# Made by Pabilo8 with Blockbench
# Exported with IIToolkit Plugin
mtllib branch_cactus.mtl


o branch_cactus2
v 0.4375 0.18750000000000003 0.09375
v 0.4375 0.18750000000000003 -0.09375
v 0.4375 -3.469446951953614e-18 0.09375
v 0.4375 -3.469446951953614e-18 -0.09375
v -0.4375 0.18750000000000003 0.09375
v -0.4375 0.18750000000000003 -0.09375
v -0.4375 -3.469446951953614e-18 0.09375
v -0.4375 -3.469446951953614e-18 -0.09375
v 0.41875 0.17414373176859962 0.1365777789908511
v 0.41875 0.14528444344141 0.08113960191721226
v -0.41875 0.17414373176859962 0.1365777789908511
v -0.41875 0.14528444344141 0.08113960191721226
v 0.41875 0.11414475553348 -0.11403421763089394
v 0.41875 0.08528546720629038 -0.1694723947045328
v -0.41875 0.11414475553348 -0.11403421763089394
v -0.41875 0.08528546720629038 -0.1694723947045328
v 0.41875 0.0032684013862022965 -0.056315640976514696
v 0.41875 -0.025590886940987323 -0.11175381805015355
v -0.41875 0.0032684013862022965 -0.056315640976514696
v -0.41875 -0.025590886940987323 -0.11175381805015355
v 0.41875 0.2550205977983176 -0.046446795974400636
v 0.41875 0.19958242072467874 -0.01758750764721103
v -0.41875 0.2550205977983176 -0.046446795974400636
v -0.41875 0.19958242072467874 -0.01758750764721103
v 0.41875 0.22616130947112797 -0.10188497304803948
v 0.41875 0.17072313239748912 -0.07302568472084989
v -0.41875 0.22616130947112797 -0.10188497304803948
v -0.41875 0.17072313239748912 -0.07302568472084989
v 0.41875 0.004408601176572519 0.013552180260718985
v 0.41875 -0.051029575897066304 0.04241146858790859
v -0.41875 0.004408601176572519 0.013552180260718985
v -0.41875 -0.051029575897066304 0.04241146858790859
v 0.41875 0.03326788950376214 0.06899035733435785
v 0.41875 -0.022170287569876698 0.09784964566154744
v -0.41875 0.03326788950376214 0.06899035733435785
v -0.41875 -0.022170287569876698 0.09784964566154744
vt 0.625 0
vt 0.625 0.1875
vt 0.4375 0.1875
vt 0.4375 0
vt 0.3125 0
vt 0.3125 0.1875
vt 0.125 0.1875
vt 0.125 0
vt 0.25 1
vt 0.0625 1
vt 0.0625 0.125
vt 0.25 0.125
vt 0.75 1
vt 0.9375 1
vt 0.9375 0.125
vt 0.75 0.125
vt 0.4375 0.125
vt 0.25 0.125
vt 0.25 1
vt 0.4375 1
vt 0.5625 0.125
vt 0.75 0.125
vt 0.75 1
vt 0.5625 1
vt 0 0.1875
vt 0.0625 0.1875
vt 0.0625 1
vt 0 1
vt 0.9375 0.1875
vt 1 0.1875
vt 1 1
vt 0.9375 1
vt 0 0.125
vt 0.0625 0.125
vt 0.0625 0.9375
vt 0 0.9375
vt 0 0.0625
vt 0.0625 0.0625
vt 0.0625 0.875
vt 0 0.875
vt 0.9375 0
vt 1 0
vt 1 0.8125
vt 0.9375 0.8125
vt 0.9375 0.125
vt 1 0.125
vt 1 0.9375
vt 0.9375 0.9375
vt 0 0.1875
vt 0.0625 0.1875
vt 0.0625 1
vt 0 1
vn 1 0 0
vn -1 0 0
vn 0 1 0
vn 0 -1 0
vn 0 0 1
vn 0 0 -1
vn 0 0.8870108331782217 -0.46174861323503397
vn 0 0.8870108331782217 -0.46174861323503397
vn 0 0.8870108331782217 -0.4617486132350339
vn 0 -0.4617486132350339 -0.8870108331782219
vn 0 -0.46174861323503363 -0.8870108331782219
vn 0 -0.461748613235034 -0.8870108331782217
vn 0 -0.4617486132350337 -0.8870108331782218
usemtl cactus_side
f 4/1/1 2/2/1 1/3/1 3/4/1
f 7/5/2 5/6/2 6/7/2 8/8/2
f 1/9/3 2/10/3 6/11/3 5/12/3
f 4/13/4 3/14/4 7/15/4 8/16/4
f 3/17/5 1/18/5 5/19/5 7/20/5
f 8/21/6 6/22/6 2/23/6 4/24/6
f 9/25/7 10/26/7 12/27/7 11/28/7
f 13/29/8 14/30/8 16/31/8 15/32/8
f 17/33/9 18/34/9 20/35/9 19/36/9
f 21/37/10 22/38/10 24/39/10 23/40/10
f 25/41/11 26/42/11 28/43/11 27/44/11
f 29/45/12 30/46/12 32/47/12 31/48/12
f 33/49/13 34/50/13 36/51/13 35/52/13