# Made by Pabilo8 with Blockbench
# Exported with IIToolkit Plugin
mtllib branch_needle.mtl


o branch_needle1
v 0.4375 0.09375 0.03125
v 0.4375 0.09375 -0.03125
v 0.4375 0.03125 0.03125
v 0.4375 0.03125 -0.03125
v -0.4375 0.09375 0.03125
v -0.4375 0.09375 -0.03125
v -0.4375 0.03125 0.03125
v -0.4375 0.03125 -0.03125
v 0.4125 0.20625 -3.469446951953614e-18
v 0.4125 -0.08124999999999999 -3.469446951953614e-18
v -0.4125 0.20625 -3.469446951953614e-18
v -0.4125 -0.08124999999999999 -3.469446951953614e-18
v 0.4125 0.0625 -0.14375
v 0.4125 0.0625 0.14375
v -0.4125 0.0625 -0.14375
v -0.4125 0.0625 0.14375
v 0.4125 0.13850158773652738 -0.114891786888624
v 0.4125 -0.005248412263472585 0.1340905166994021
v -0.4125 0.13850158773652738 -0.114891786888624
v -0.4125 -0.005248412263472585 0.1340905166994021
v 0.4125 -0.030695153921059766 -0.1075072440617954
v 0.4125 0.1635370307684425 0.1044599902711153
v -0.4125 -0.030695153921059766 -0.1075072440617954
v -0.4125 0.1635370307684425 0.1044599902711153
vt 0.1875 0.6875
vt 0.1875 0.75
vt 0.125 0.75
vt 0.125 0.6875
vt 0.25 0.25
vt 0.25 0.3125
vt 0.1875 0.3125
vt 0.1875 0.25
vt 0.125 1
vt 0.0625 1
vt 0.0625 0.125
vt 0.125 0.125
vt 0.1875 1
vt 0.25 1
vt 0.25 0.125
vt 0.1875 0.125
vt 0.1875 0.125
vt 0.125 0.125
vt 0.125 1
vt 0.1875 1
vt 0.0625 1
vt 0 1
vt 0 0.125
vt 0.0625 0.125
vt 0.9375 0.25
vt 0.9375 0.5625
vt 0.125 0.5625
vt 0.125 0.25
vt 0.9375 0.625
vt 0.9375 0.9375
vt 0.125 0.9375
vt 0.125 0.625
vt 0.9375 0.1875
vt 0.9375 0.5
vt 0.125 0.5
vt 0.125 0.1875
vt 0.25 0.0625
vt 0.5625 0.0625
vt 0.5625 0.875
vt 0.25 0.875
vn 1 0 0
vn -1 0 0
vn 0 1 0
vn 0 -1 0
vn 0 0 1
vn 0 0 -1
vn 0 0 -1
vn 0 -1 0
vn 0 -0.8660254037844388 -0.4999999999999999
vn 0 -0.7372773368101243 0.6755902076156601
usemtl log_oak
f 4/1/1 2/2/1 1/3/1 3/4/1
f 7/5/2 5/6/2 6/7/2 8/8/2
f 1/9/3 2/10/3 6/11/3 5/12/3
f 4/13/4 3/14/4 7/15/4 8/16/4
f 3/17/5 1/18/5 5/19/5 7/20/5
f 8/21/6 6/22/6 2/23/6 4/24/6
usemtl spruce_general
f 12/25/7 11/26/7 9/27/7 10/28/7
f 16/29/8 15/30/8 13/31/8 14/32/8
f 20/33/9 19/34/9 17/35/9 18/36/9
f 24/37/10 23/38/10 21/39/10 22/40/10