# Made by Pabilo8 with Blockbench
# Exported with IIToolkit Plugin
mtllib branch.mtl


o branch_leaf4
v 0.4375 0.125 0.0625
v 0.4375 0.125 -0.0625
v 0.4375 0 0.0625
v 0.4375 0 -0.0625
v -0.4375 0.125 0.0625
v -0.4375 0.125 -0.0625
v -0.4375 0 0.0625
v -0.4375 0 -0.0625
v 0.5325763327994086 0.1 0.667666978672863
v 0.6349703383355326 0.1 0.5959699241289822
v 0.5325763327994086 -0.02500000000000001 0.667666978672863
v 0.6349703383355326 -0.02500000000000001 0.5959699241289822
v -0.12289405731194276 0.1 0.05845452173581643
v -0.020500051775818803 0.1 -0.013242532808064367
v -0.12289405731194276 -0.02500000000000001 0.05845452173581643
v -0.020500051775818803 -0.02500000000000001 -0.013242532808064367
v 0.3865022965090028 0.2126684650811108 0.19573081195186898
v 0.3177945143021704 0.20162888589145372 0.0918926284376444
v 0.3865022965090028 0.2126684650811108 0.19573081195186898
v 0.3177945143021704 0.20162888589145372 0.0918926284376444
v 0.20825694944389211 0.09551372180739459 0.3261277535498523
v 0.13954916723705973 0.08447414261773747 0.22228957003562771
v 0.20825694944389211 0.09551372180739459 0.3261277535498523
v 0.13954916723705973 0.08447414261773747 0.22228957003562771
v 0.01427270232076197 0.08079569739717424 -0.238709057216204
v -0.10912188554080592 0.09953118847872885 -0.24561970555096901
v 0.01427270232076197 0.08079569739717424 -0.238709057216204
v -0.10912188554080592 0.09953118847872885 -0.24561970555096901
v -0.0016054121384321135 0.04376450891844538 -0.05558935166523499
v -0.125 0.0625 -0.0625
v -0.0016054121384321135 0.04376450891844538 -0.05558935166523499
v -0.125 0.0625 -0.0625
v -0.0625 0.12499999999999997 -0.016746824526945148
v -0.1875 0.12499999999999997 -0.016746824526945148
v -0.0625 0.12499999999999997 -0.016746824526945148
v -0.1875 0.12499999999999997 -0.016746824526945148
v -0.0625 -0.037379763209582306 0.0770031754730548
v -0.1875 -0.037379763209582306 0.0770031754730548
v -0.0625 -0.037379763209582306 0.0770031754730548
v -0.1875 -0.037379763209582306 0.0770031754730548
v 0.5034500637601852 -0.012558520446649776 -0.05148737975813761
v 0.5011099366793944 0.0937591334325899 -0.1171842615628317
v 0.5034500637601852 -0.012558520446649776 -0.05148737975813761
v 0.5011099366793944 0.0937591334325899 -0.1171842615628317
v 0.25381689418008724 -0.009855901642880222 -0.03822176642909765
v 0.2514767670992965 0.09646175223635947 -0.10391864823379172
v 0.25381689418008724 -0.009855901642880222 -0.03822176642909765
v 0.2514767670992965 0.09646175223635947 -0.10391864823379172
v 0.10368516059750207 -0.23021072861567027 0.18082509790788237
v 0.19779600709238337 -0.16290622106940095 0.1335149316011457
v 0.10368516059750207 -0.23021072861567027 0.18082509790788237
v 0.19779600709238337 -0.16290622106940095 0.1335149316011457
v -0.06036123046822811 -0.0655854228156249 0.08869860731722182
v 0.03374961602665315 0.001719084730644374 0.041388441010485194
v -0.06036123046822811 -0.0655854228156249 0.08869860731722182
v 0.03374961602665315 0.001719084730644374 0.041388441010485194
v 0.23815675372801798 0.03330671270468709 -0.23355640648111847
v 0.1272803995807406 -0.023534989077375418 -0.22353368082755598
v 0.23815675372801798 0.03330671270468709 -0.23355640648111847
v 0.1272803995807406 -0.023534989077375418 -0.22353368082755598
v 0.23815675372801842 0.06586574601723727 -0.04890495279132964
v 0.127280399580741 0.009024044235174764 -0.03888222713776712
v 0.23815675372801842 0.06586574601723727 -0.04890495279132964
v 0.127280399580741 0.009024044235174764 -0.03888222713776712
vt 0.25 0.625
vt 0.25 0.75
vt 0.125 0.75
vt 0.125 0.625
vt 0.3125 0.1875
vt 0.3125 0.3125
vt 0.1875 0.3125
vt 0.1875 0.1875
vt 0.25 1
vt 0.125 1
vt 0.125 0.125
vt 0.25 0.125
vt 0.375 1
vt 0.5 1
vt 0.5 0.125
vt 0.375 0.125
vt 0.375 0.125
vt 0.25 0.125
vt 0.25 1
vt 0.375 1
vt 0 0.125
vt 0.125 0.125
vt 0.125 1
vt 0 1
vt 0.25 0.625
vt 0.25 0.75
vt 0.125 0.75
vt 0.125 0.625
vt 0.3125 0.1875
vt 0.3125 0.3125
vt 0.1875 0.3125
vt 0.1875 0.1875
vt 0.625 1
vt 0.5 1
vt 0.5 0.125
vt 0.625 0.125
vt 0.75 1
vt 0.875 1
vt 0.875 0.125
vt 0.75 0.125
vt 0.75 0.125
vt 0.625 0.125
vt 0.625 1
vt 0.75 1
vt 0.375 0.125
vt 0.5 0.125
vt 0.5 1
vt 0.375 1
vt 0.125 1
vt 0 1
vt 0.125 1
vt 0 1
vt 0.125 1
vt 0 1
vt 0.125 1
vt 0 1
vt 0.25 1
vt 0 1
vt 0.25 1
vt 0 1
vt 0.25 1
vt 0 1
vt 0.25 1
vt 0 1
vt 0.625 0.1875
vt 0.625 0.4375
vt 0.25 0.4375
vt 0.25 0.1875
vt 0.125 1
vt 0 1
vt 0.125 1
vt 0 1
vt 0.125 1
vt 0 1
vt 0.125 1
vt 0 1
vt 0.1875 1
vt 0 1
vt 0.1875 1
vt 0 1
vt 0.1875 1
vt 0 1
vt 0.1875 1
vt 0 1
vt 0.3125 0.8125
vt 0.3125 1
vt 0 1
vt 0 0.8125
vt 0 1
vt 0.125 1
vt 0.125 1
vt 0 1
vt 0 1
vt 0.125 1
vt 0.125 1
vt 0 1
vt 0 1
vt 0.1875 1
vt 0.1875 1
vt 0 1
vt 0 1
vt 0.1875 1
vt 0.1875 1
vt 0 1
vt 0 1
vt 0.3125 1
vt 0.3125 0.8125
vt 0 0.8125
vt 0 1
vt 0.125 1
vt 0.125 1
vt 0 1
vt 0 1
vt 0.125 1
vt 0.125 1
vt 0 1
vt 0 1
vt 0.25 1
vt 0.25 1
vt 0 1
vt 0 1
vt 0.25 1
vt 0.25 1
vt 0 1
vt 0.25 0.4375
vt 0.625 0.4375
vt 0.625 0.1875
vt 0.25 0.1875
vt 0 1
vt 0.125 1
vt 0.125 1
vt 0 1
vt 0 1
vt 0.125 1
vt 0.125 1
vt 0 1
vt 0 1
vt 0.25 1
vt 0.25 1
vt 0 1
vt 0 1
vt 0.25 1
vt 0.25 1
vt 0 1
vt 0.25 0.4375
vt 0.625 0.4375
vt 0.625 0.1875
vt 0.25 0.1875
vt 0 1
vt 0.125 1
vt 0.125 1
vt 0 1
vt 0 1
vt 0.125 1
vt 0.125 1
vt 0 1
vt 0 1
vt 0.1875 1
vt 0.1875 1
vt 0 1
vt 0 1
vt 0.1875 1
vt 0.1875 1
vt 0 1
vt 0 1
vt 0.3125 1
vt 0.3125 0.8125
vt 0 0.8125
vn 1 0 0
vn -1 0 0
vn 0 1 0
vn 0 -1 0
vn 0 0 1
vn 0 0 -1
vn 0.573576436351046 0 0.8191520442889919
vn -0.5735764363510464 0 -0.8191520442889917
vn 0 1 0
vn 0 -1 0
vn -0.6807878983760846 0 0.7324806054938753
vn 0.6807878983760846 0 -0.7324806054938753
vn 0 0 0
vn 0 0 0
vn 0 0 0
vn 0 0 0
vn -0.4353492190232974 0.8789746471313566 0.19461404675950894
vn 0 0 0
vn 0 0 0
vn 0 0 0
vn 0 0 0
vn 0.13546359847305348 0.9687769028710455 0.20765578718715405
vn 0 0 0
vn 0 0 0
vn 0 0 0
vn 0 0 0
vn 0 -0.4999999999999997 -0.8660254037844388
vn 0 0 0
vn 0 0 0
vn 0 0 0
vn 0 0 0
vn -0.05081352046486698 -0.5257972498377419 -0.8490908303597644
vn 0 0 0
vn 0 0 0
vn 0 0 0
vn 0 0 0
vn -0.0508135204648674 -0.5257972498377417 -0.8490908303597643
vn 0 0 0
vn 0 0 0
vn 0 0 0
vn 0 0 0
vn 0.46174861323503813 -0.8735351455197287 0.154027814752226
usemtl log_oak
f 4/1/1 2/2/1 1/3/1 3/4/1
f 7/5/2 5/6/2 6/7/2 8/8/2
f 1/9/3 2/10/3 6/11/3 5/12/3
f 4/13/4 3/14/4 7/15/4 8/16/4
f 3/17/5 1/18/5 5/19/5 7/20/5
f 8/21/6 6/22/6 2/23/6 4/24/6
f 12/25/7 10/26/7 9/27/7 11/28/7
f 15/29/8 13/30/8 14/31/8 16/32/8
f 9/33/9 10/34/9 14/35/9 13/36/9
f 12/37/10 11/38/10 15/39/10 16/40/10
f 11/41/11 9/42/11 13/43/11 15/44/11
f 16/45/12 14/46/12 10/47/12 12/48/12
usemtl leaves_general
f 18/49/13 17/50/13 20/51/13 19/52/13
f 21/53/14 22/54/14 23/55/14 24/56/14
f 17/57/15 21/58/15 19/59/15 23/60/15
f 22/61/16 18/62/16 24/63/16 20/64/16
f 17/65/17 18/66/17 22/67/17 21/68/17
f 26/69/18 25/70/18 28/71/18 27/72/18
f 29/73/19 30/74/19 31/75/19 32/76/19
f 25/77/20 29/78/20 27/79/20 31/80/20
f 30/81/21 26/82/21 32/83/21 28/84/21
f 25/85/22 26/86/22 30/87/22 29/88/22
f 33/89/23 34/90/23 36/91/23 35/92/23
f 38/93/24 37/94/24 39/95/24 40/96/24
f 37/97/25 33/98/25 35/99/25 39/100/25
f 34/101/26 38/102/26 40/103/26 36/104/26
f 38/105/27 34/106/27 33/107/27 37/108/27
f 41/109/28 42/110/28 44/111/28 43/112/28
f 46/113/29 45/114/29 47/115/29 48/116/29
f 45/117/30 41/118/30 43/119/30 47/120/30
f 42/121/31 46/122/31 48/123/31 44/124/31
f 46/125/32 42/126/32 41/127/32 45/128/32
f 49/129/33 50/130/33 52/131/33 51/132/33
f 54/133/34 53/134/34 55/135/34 56/136/34
f 53/137/35 49/138/35 51/139/35 55/140/35
f 50/141/36 56/142/36 54/143/36 52/144/36
f 54/145/37 50/146/37 49/147/37 53/148/37
f 57/149/38 58/150/38 60/151/38 59/152/38
f 62/153/39 61/154/39 63/155/39 64/156/39
f 61/157/40 57/158/40 59/159/40 63/160/40
f 58/161/41 62/162/41 64/163/41 60/164/41
f 62/165/42 58/166/42 57/167/42 61/168/42