# Made by Pabilo8 with Blockbench
# Exported with IIToolkit Plugin
mtllib branch_cactus.mtl


o branch_cactus1
v 0.4375 0.18750000000000003 0.09375
v 0.4375 0.18750000000000003 -0.09375
v 0.4375 -3.469446951953614e-18 0.09375
v 0.4375 -3.469446951953614e-18 -0.09375
v -0.4375 0.18750000000000003 0.09375
v -0.4375 0.18750000000000003 -0.09375
v -0.4375 -3.469446951953614e-18 0.09375
v -0.4375 -3.469446951953614e-18 -0.09375
v 0.41875 0.09374999999999997 0.15625
v 0.41875 0.09374999999999997 0.09375
v -0.41875 0.09374999999999997 0.15625
v -0.41875 0.09374999999999997 0.09375
v 0.41875 0.15624999999999997 -0.09375
v 0.41875 0.15624999999999997 -0.15625
v -0.41875 0.15624999999999997 -0.09375
v -0.41875 0.15624999999999997 -0.15625
v 0.41875 0.031249999999999972 -0.09375
v 0.41875 0.031249999999999972 -0.15625
v -0.41875 0.031249999999999972 -0.09375
v -0.41875 0.031249999999999972 -0.15625
v 0.41875 0.25 0.03125000000000003
v 0.41875 0.18750000000000003 0.03125000000000003
v -0.41875 0.25 0.03125000000000003
v -0.41875 0.18750000000000003 0.03125000000000003
v 0.41875 0.25 -0.031249999999999972
v 0.41875 0.18750000000000003 -0.031249999999999972
v -0.41875 0.25 -0.031249999999999972
v -0.41875 0.18750000000000003 -0.031249999999999972
v 0.41875 0 -0.031249999999999972
v 0.41875 -0.06249999999999997 -0.031249999999999972
v -0.41875 0 -0.031249999999999972
v -0.41875 -0.06249999999999997 -0.031249999999999972
v 0.41875 0 0.03125000000000003
v 0.41875 -0.06249999999999997 0.03125000000000003
v -0.41875 0 0.03125000000000003
v -0.41875 -0.06249999999999997 0.03125000000000003
vt 0.625 0
vt 0.625 0.1875
vt 0.4375 0.1875
vt 0.4375 0
vt 0.3125 0
vt 0.3125 0.1875
vt 0.125 0.1875
vt 0.125 0
vt 0.3125 1
vt 0.125 1
vt 0.125 0.125
vt 0.3125 0.125
vt 0.6875 1
vt 0.875 1
vt 0.875 0.125
vt 0.6875 0.125
vt 0.5 0.125
vt 0.3125 0.125
vt 0.3125 1
vt 0.5 1
vt 0.5 0.125
vt 0.6875 0.125
vt 0.6875 1
vt 0.5 1
vt 0 0.1875
vt 0.0625 0.1875
vt 0.0625 1
vt 0 1
vt 0.9375 0.1875
vt 1 0.1875
vt 1 1
vt 0.9375 1
vt 0 0.125
vt 0.0625 0.125
vt 0.0625 0.9375
vt 0 0.9375
vt 0 0.0625
vt 0.0625 0.0625
vt 0.0625 0.875
vt 0 0.875
vt 0.9375 0
vt 1 0
vt 1 0.8125
vt 0.9375 0.8125
vt 0.9375 0.125
vt 1 0.125
vt 1 0.9375
vt 0.9375 0.9375
vt 0 0.1875
vt 0.0625 0.1875
vt 0.0625 1
vt 0 1
vn 1 0 0
vn -1 0 0
vn 0 1 0
vn 0 -1 0
vn 0 0 1
vn 0 0 -1
vn 0 1 0
vn 0 1 0
vn 0 1 0
vn 0 0 -1
vn 0 0 -1
vn 0 0 -1
vn 0 0 -1
usemtl cactus_side
f 4/1/1 2/2/1 1/3/1 3/4/1
f 7/5/2 5/6/2 6/7/2 8/8/2
f 1/9/3 2/10/3 6/11/3 5/12/3
f 4/13/4 3/14/4 7/15/4 8/16/4
f 3/17/5 1/18/5 5/19/5 7/20/5
f 8/21/6 6/22/6 2/23/6 4/24/6
f 9/25/7 10/26/7 12/27/7 11/28/7
f 13/29/8 14/30/8 16/31/8 15/32/8
f 17/33/9 18/34/9 20/35/9 19/36/9
f 21/37/10 22/38/10 24/39/10 23/40/10
f 25/41/11 26/42/11 28/43/11 27/44/11
f 29/45/12 30/46/12 32/47/12 31/48/12
f 33/49/13 34/50/13 36/51/13 35/52/13