# Made by Pabilo8 with Blockbench
# Exported with IIToolkit Plugin
mtllib branch.mtl


o branch_leaf2
v 0.4375 0.125 0.0625
v 0.4375 0.125 -0.0625
v 0.4375 0 0.0625
v 0.4375 0 -0.0625
v -0.4375 0.125 0.0625
v -0.4375 0.125 -0.0625
v -0.4375 0 0.0625
v -0.4375 0 -0.0625
v -0.1961224458826199 0.004388012498588233 0.2686987544688142
v -0.0728996618247261 -0.00093143412384308 0.24838006906220444
v -0.1961224458826199 0.004388012498588233 0.2686987544688142
v -0.0728996618247261 -0.00093143412384308 0.24838006906220444
v -0.23354098715025415 0.05869868862692447 0.027555222049042816
v -0.11031820309236035 0.05337924200449315 0.007236536642433095
v -0.23354098715025415 0.05869868862692447 0.027555222049042816
v -0.11031820309236035 0.05337924200449315 0.007236536642433095
v 0.23991145818697807 0.2377447118686324 0.006864794212034189
v 0.12103914796689635 0.2759736322715013 0.001126893221971445
v 0.23991145818697807 0.2377447118686324 0.006864794212034189
v 0.12103914796689635 0.2759736322715013 0.001126893221971445
v 0.18199570803180182 0.060257527879594736 0.02419440481368071
v 0.06312339781172012 0.09848644828246363 0.018456503823617965
v 0.18199570803180182 0.060257527879594736 0.02419440481368071
v 0.06312339781172012 0.09848644828246363 0.018456503823617965
vt 0.25 0.625
vt 0.25 0.75
vt 0.125 0.75
vt 0.125 0.625
vt 0.3125 0.1875
vt 0.3125 0.3125
vt 0.1875 0.3125
vt 0.1875 0.1875
vt 0.25 1
vt 0.125 1
vt 0.125 0.125
vt 0.25 0.125
vt 0.375 1
vt 0.5 1
vt 0.5 0.125
vt 0.375 0.125
vt 0.375 0.125
vt 0.25 0.125
vt 0.25 1
vt 0.375 1
vt 0 0.125
vt 0.125 0.125
vt 0.125 1
vt 0 1
vt 0.125 1
vt 0 1
vt 0.125 1
vt 0 1
vt 0.125 1
vt 0 1
vt 0.125 1
vt 0 1
vt 0.25 1
vt 0.25 1
vt 0 1
vt 0 1
vt 0.25 1
vt 0 1
vt 0.25 1
vt 0 1
vt 0.625 0.1875
vt 0.625 0.4375
vt 0.25 0.4375
vt 0.25 0.1875
vt 0.125 1
vt 0 1
vt 0.125 1
vt 0 1
vt 0.125 1
vt 0 1
vt 0.125 1
vt 0 1
vt 0.1875 1
vt 0 1
vt 0.1875 1
vt 0 1
vt 0.1875 1
vt 0 1
vt 0.1875 1
vt 0 1
vt 0.3125 0.8125
vt 0.3125 1
vt 0 1
vt 0 0.8125
vn 1 0 0
vn -1 0 0
vn 0 1 0
vn 0 -1 0
vn 0 0 1
vn 0 0 -1
vn 0 0 0
vn 0 0 0
vn 0 0 0
vn 0 0 0
vn 0.07636069412875017 0.9751895357027363 0.20778453707640832
vn 0 0 0
vn 0 0 0
vn 0 0 0
vn 0 0 0
vn -0.01518556093572652 0.10207256267041087 0.9946610431141668
usemtl log_oak
f 4/1/1 2/2/1 1/3/1 3/4/1
f 7/5/2 5/6/2 6/7/2 8/8/2
f 1/9/3 2/10/3 6/11/3 5/12/3
f 4/13/4 3/14/4 7/15/4 8/16/4
f 3/17/5 1/18/5 5/19/5 7/20/5
f 8/21/6 6/22/6 2/23/6 4/24/6
usemtl leaves_general
f 10/25/7 9/26/7 12/27/7 11/28/7
f 13/29/8 14/30/8 15/31/8 16/32/8
f 11/33/9 9/34/9 13/35/9 15/36/9
f 14/37/10 10/38/10 16/39/10 12/40/10
f 9/41/11 10/42/11 14/43/11 13/44/11
f 18/45/12 17/46/12 20/47/12 19/48/12
f 21/49/13 22/50/13 23/51/13 24/52/13
f 17/53/14 21/54/14 19/55/14 23/56/14
f 22/57/15 18/58/15 24/59/15 20/60/15
f 17/61/16 18/62/16 22/63/16 21/64/16