# Made by Pabilo8 with Blockbench
# Exported with IIToolkit Plugin
mtllib precision_assembler.mtl


o main
v 3 0.125 1
v 1.125 1.0625 0.875
v 1 1.0625 0.875
v 1.125 1 0.875
v 1 1 0.875
v 1.125 1.0625 2.0625
v 1 1.0625 2.0625
v 1.125 1 2.0625
v 1 1 2.0625
v 0 1.0625 0.875
v -0.125 1.0625 0.875
v 0 1 0.875
v -0.125 1 0.875
v 0 1.0625 2.0625
v -0.125 1.0625 2.0625
v 0 1 2.0625
v -0.125 1 2.0625
v -0.03125 1.125 1.6875
v -0.09375 1.125 1.6875
v -0.03125 1.0625 1.6875
v -0.09375 1.0625 1.6875
v -0.03125 1.125 1.9375
v -0.09375 1.125 1.9375
v -0.03125 1.0625 1.9375
v -0.09375 1.0625 1.9375
v -0.03125 1.125 1
v -0.09375 1.125 1
v -0.03125 1.0625 1
v -0.09375 1.0625 1
v -0.03125 1.125 1.25
v -0.09375 1.125 1.25
v -0.03125 1.0625 1.25
v -0.09375 1.0625 1.25
v 1.09375 1.125 1
v 1.03125 1.125 1
v 1.09375 1.0625 1
v 1.03125 1.0625 1
v 1.09375 1.125 1.25
v 1.03125 1.125 1.25
v 1.09375 1.0625 1.25
v 1.03125 1.0625 1.25
v 1.09375 1.125 1.6875
v 1.03125 1.125 1.6875
v 1.09375 1.0625 1.6875
v 1.03125 1.0625 1.6875
v 1.09375 1.125 1.9375
v 1.03125 1.125 1.9375
v 1.09375 1.0625 1.9375
v 1.03125 1.0625 1.9375
v 2.3125 2.1875 2.75
v 1 0 2
v 0 0 2
v 1 0 3
v 0 0 3
v 1 0 1
v 0 0 1
v 3 0.5 0
v 1 0.5 0
v 3 0 0
v 1 0 0
v 3 0.5 1
v 3 0 1
v 2.875 0 1
v 2.875 0 2
v 3 0.5 2
v 3 0 2
v 3 0.5 3
v 3 0 3
v -2 0.5 0
v 0 0.5 0
v -2 0 0
v 0 0 0
v -2 0.5 1
v -2 0 1
v -1.875 0 1
v -1.875 0 2
v -2 0.5 2
v -2 0 2
v -2 0.5 3
v -2 0 3
v 2.9375 0.9375 0.0625
v 1 0.9375 0.0625
v 2.9375 0.5 0.0625
v 1 0.5 0.0625
v -1.9375 0.9375 0.0625
v 0 0.9375 0.0625
v -1.9375 0.5 0.0625
v 0 0.5 0.0625
v 0 0.9375 2.9375
v 2.9375 0.5 1
v 2.875 0.5 1
v 2.9375 0 1
v 2.9375 0.5 2
v 2.875 0.5 2
v 2.9375 0 2
v 2.9375 0.125 1
v 2.9375 0.125 2
v 3 0.125 2
v 3 0.9375 1.375
v 2.9375 0.9375 1.375
v 3 0.75 1.375
v 2.9375 0.75 1.375
v 3 0.9375 1.625
v 2.9375 0.9375 1.625
v 3 0.75 1.625
v 2.9375 0.75 1.625
v 2.9375 0.75 1.25
v 3 0.75 1.25
v 2.9375 0.25 1.25
v 3 0.25 1.25
v 2.9375 0.75 1.75
v 3 0.75 1.75
v 2.9375 0.25 1.75
v 3 0.25 1.75
v 2.9375 0.9375 1
v 2.875 0.9375 1
v 2.9375 0.9375 2
v 2.875 0.9375 2
v 3 0.9375 2
v 3 0.9375 2.125
v 2.875 0.9375 2.125
v 3 0.5 2.125
v 2.875 0.5 2.125
v 3 0.9375 0
v 2.875 0.9375 0
v 2.875 0.5 0
v 3 0.9375 0.125
v 2.875 0.9375 0.125
v 3 0.5 0.125
v 2.875 0.5 0.125
v 3 0.9375 0.875
v 2.875 0.9375 0.875
v 3 0.5 0.875
v 2.875 0.5 0.875
v 3 0.9375 1
v 1.125 0.9375 0
v 1 0.9375 0
v 1.125 0.5 0
v 1.125 0.9375 0.0625
v 1.125 0.5 0.0625
v -0.125 0.9375 0
v 0 0.9375 0
v -0.125 0.5 0
v -0.125 0.9375 0.0625
v -0.125 0.5 0.0625
v -2 0.9375 0
v -1.875 0.9375 0
v -1.875 0.5 0
v -2 0.9375 0.125
v -1.875 0.9375 0.125
v -2 0.5 0.125
v -1.875 0.5 0.125
v -2 0.9375 2.875
v -1.875 0.9375 2.875
v -2 0.5 2.875
v -1.875 0.5 2.875
v -2 0.9375 3
v -1.875 0.9375 3
v -1.875 0.5 3
v 3 0.9375 2.875
v 2.875 0.9375 2.875
v 3 0.5 2.875
v 2.875 0.5 2.875
v 3 0.9375 3
v 2.875 0.9375 3
v 2.875 0.5 3
v -2 1 2
v 0 1 2
v -2 0.9375 2
v 0 0.9375 2
v -2 1 3
v 0 1 3
v 0 0.9375 3
v 2.0625 2.3125 2
v 2 2.3125 2
v 2.0625 1.875 2
v 2 1.875 2
v 2.0625 2.3125 2.875
v 2 2.3125 2.875
v 2.0625 1.875 2.875
v 2 1.875 2.875
v 2.25 2.25 2.125
v 2.0625 2.25 2.125
v 2.3125 2.1875 2.125
v 2.0625 2.1875 2.125
v 2.25 2.25 2.375
v 2.0625 2.25 2.375
v 2.3125 2.1875 2.375
v 2.0625 2.1875 2.375
v 2.3125 1.875 2.125
v 2.0625 1.875 2.125
v 2.3125 1.875 2.375
v 2.0625 1.875 2.375
v 2.3125 2.1875 2.5
v 2.0625 2.1875 2.5
v 2.3125 1.875 2.5
v 2.0625 1.875 2.5
v 2.0625 2.1875 2.75
v 2.3125 1.875 2.75
v 2.0625 1.875 2.75
v 2.25 2.25 2.5
v 2.0625 2.25 2.5
v 2.25 2.25 2.75
v 2.0625 2.25 2.75
v 1.8125 1.6875 2.125
v 1.5625 1.6875 2.125
v 1.8125 1.375 2.125
v 1.5625 1.375 2.125
v 1.8125 1.6875 2.375
v 1.5625 1.6875 2.375
v 1.8125 1.375 2.375
v 1.5625 1.375 2.375
v 1.8125 2 2.5
v 1.5625 2 2.5
v 1.8125 1.6875 2.5
v 1.5625 1.6875 2.5
v 1.8125 2 2.75
v 1.5625 2 2.75
v 1.8125 1.6875 2.75
v 1.5625 1.6875 2.75
v 1.8125 1.375 2.5
v 1.5625 1.375 2.5
v 1.8125 1.375 2.75
v 1.5625 1.375 2.75
v 1.8125 1.125 2.5
v 1.5625 1.125 2.5
v 1.8125 1.125 2.75
v 1.5625 1.125 2.75
v 1.8125 1.125 2.125
v 1.5625 1.125 2.125
v 1.8125 1.125 2.375
v 1.5625 1.125 2.375
v 1.8125 2 2.125
v 1.5625 2 2.125
v 1.8125 2 2.375
v 1.5625 2 2.375
v 1.8125 2.1875 2.5
v 1.5625 2.069444375 2.5
v 1.8125 2.1875 2.75
v 1.5625 2.069444375 2.75
v 1.875 2.1875 2.5
v 1.875 1.9375 2.5
v 1.8125 1.9375 2.5
v 1.875 2.1875 2.75
v 1.875 1.9375 2.75
v 1.8125 1.9375 2.75
v 1.8125 2.1875 2.125
v 1.5625 2.069444375 2.125
v 1.8125 2.1875 2.375
v 1.5625 2.069444375 2.375
v 1.875 2.1875 2.125
v 1.875 1.9375 2.125
v 1.8125 1.9375 2.125
v 1.875 2.1875 2.375
v 1.875 1.9375 2.375
v 1.8125 1.9375 2.375
v 1.84375 1.125 2.09375
v 1.53125 1.125 2.09375
v 1.84375 1.0625 2.09375
v 1.53125 1.0625 2.09375
v 1.84375 1.125 2.40625
v 1.53125 1.125 2.40625
v 1.84375 1.0625 2.40625
v 1.53125 1.0625 2.40625
v 1.84375 1.125 2.46875
v 1.53125 1.125 2.46875
v 1.84375 1.0625 2.46875
v 1.53125 1.0625 2.46875
v 1.84375 1.125 2.78125
v 1.53125 1.125 2.78125
v 1.84375 1.0625 2.78125
v 1.53125 1.0625 2.78125
v 1.9375 1 2
v 1.9375 1.0625 2
v 1.5 1 2
v 1.5 1.0625 2
v 1.9375 1.0625 2.875
v 1.5 1 2.875
v 1.5 1.0625 2.875
v 1.9375 2.3125 2
v 1.875 2.3125 2
v 1.9375 1.875 2
v 1.875 1.875 2
v 1.9375 2.3125 2.875
v 1.875 2.3125 2.875
v 1.9375 1.875 2.875
v 1.875 1.875 2.875
v 1.5 1.0625 2.0625
v -0.5 1.0625 2.0625
v 1.5 1 2.0625
v -0.5 1 2.0625
v -0.5 1.0625 2.875
v -0.5 1 2.875
v -2 1 1
v 0 1 1
v -2 0.9375 1
v 0 0.9375 1
v 3 1 1
v 1 1 1
v 1 0.9375 1
v 3 1 2
v 1 1 2
v 1 0.9375 2
v 3 1 0
v 1 1 0
v -2 1 0
v 0 1 0
v -0.17002937499999993 1.75 -0.11185687499999997
v -0.90625 1.75 0.03125
v -0.17002937499999993 1 -0.11185687499999997
v -0.90625 1 0.03125
v -0.026923124999999937 1.75 0.6243637500000001
v -0.763143125 1.75 0.7674706250000001
v -0.026923124999999937 1 0.6243637500000001
v -0.763143125 1 0.7674706250000001
v -0.984731875 1.625 0.10792312500000012
v -1.85121625 1.625 -0.0138531249999998
v -0.984731875 1 0.10792312500000012
v -1.85121625 1 -0.0138531249999998
v -1.071715 1.625 0.7268406249999999
v -1.938199375 1.625 0.605064375
v -1.071715 1 0.7268406249999999
v -1.938199375 1 0.605064375
v 3 1 3
v 1 1 3
v 1 0.9375 3
v -0.875 2.3125 2.875
v -1 2.3125 2.875
v -0.875 1.125 2.875
v -1 1.125 2.875
v -0.875 2.3125 3
v -1 2.3125 3
v -0.875 1.125 3
v -1 1.125 3
v -0.875 2.3125 0.75
v -1 2.3125 0.75
v -0.875 1.125 0.75
v -1 1.125 0.75
v -0.875 2.3125 0.875
v -1 2.3125 0.875
v -0.875 1.125 0.875
v -1 1.125 0.875
v 2 1.125 2.875
v 1.875 1.125 2.875
v 2 2.3125 3
v 1.875 2.3125 3
v 2 1.125 3
v 1.875 1.125 3
v 2 2.3125 0.75
v 1.875 2.3125 0.75
v 2 1.125 0.75
v 1.875 1.125 0.75
v 2 2.3125 0.875
v 1.875 2.3125 0.875
v 2 1.125 0.875
v 1.875 1.125 0.875
v 2 2.4375 0.875
v 1.9375 2.4375 0.875
v 2 1 0.875
v 1.9375 1 0.875
v 2 2.4375 2.875
v 1.9375 2.4375 2.875
v 2 1 2.875
v 1.9375 1 2.875
v 2 2.4375 0.75
v -1 2.4375 0.75
v -1 2.4375 0.875
v -1 2.4375 2.875
v 2 2.4375 3
v -1 2.4375 3
v -1 1 2.875
v 2 1 3
v -1 1 3
v 2 1 0.75
v -1 1 0.75
v -1 1 0.875
v 3 1.875 2
v 3 1.875 3
v 2 1.875 3
v -1.25 3 2.25
v -1.75 3 2.25
v -1.1875 2.9375 2.1875
v -1.8125 2.9375 2.1875
v -1.25 3 2.75
v -1.75 3 2.75
v -1.1875 2.9375 2.8125
v -1.8125 2.9375 2.8125
v -1.1875 2.4375 2.1875
v -1.8125 2.4375 2.1875
v -1.1875 2.4375 2.8125
v -1.8125 2.4375 2.8125
v -1.0625 2.4375 2.0625
v -1.9375 2.4375 2.0625
v -1 2.375 2
v -2 2.375 2
v -1.0625 2.4375 2.9375
v -1.9375 2.4375 2.9375
v -1 2.375 3
v -2 2.375 3
v -1 1 2
v -1 1.625 0.9375
v -1.3125 1.625 0.9375
v -1 1.5 0.9375
v -1.375 1.5 0.9375
v -1 1.625 1.8125
v -1.3125 1.625 1.8125
v -1 1.5 1.8125
v -1.375 1.5 1.8125
v -1 1.9375 0.9375
v -1.375 1.9375 0.9375
v -1 1.8125 0.9375
v -1.3125 1.8125 0.9375
v -1 1.9375 1.8125
v -1.375 1.9375 1.8125
v -1 1.8125 1.8125
v -1.3125 1.8125 1.8125
v -1.75 2.4375 0.75
v -1 1.9375 0.75
v -1.6875 1.9375 0.75
v -1 2.4375 2
v -1.75 2.4375 2
v -1 1.9375 2
v -1.6875 1.9375 2
v -1 1.5 0.75
v -1.6875 1.5 0.75
v -1.6875 1.9375 0.9375
v -1.6875 1.5 0.9375
v -1.75 1 0.75
v -1.75 1 2
v -1 1.5 2
v -1.6875 1.5 2
v -1.6875 1.9375 1.8125
v -1.6875 1.5 1.8125
v -2 0.9375 0.875
v -1.875 0.9375 0.875
v -2 0.5 0.875
v -1.875 0.5 0.875
v -1.875 0.9375 1
v -1.875 0.5 1
v -1.875 0.9375 2
v -1.875 0.5 2
v -2 0.9375 2.125
v -1.875 0.9375 2.125
v -2 0.5 2.125
v -1.875 0.5 2.125
v -1.9375 0.5 1
v -1.9375 0 1
v -1.9375 0.5 2
v -1.9375 0 2
v -1.9375 0.9375 1
v -1.9375 0.9375 2
v -2 0.125 1
v -1.9375 0.125 1
v -2 0.125 2
v -1.9375 0.125 2
v -1.9375 0.9375 1.375
v -2 0.9375 1.375
v -1.9375 0.75 1.375
v -2 0.75 1.375
v -1.9375 0.9375 1.625
v -2 0.9375 1.625
v -1.9375 0.75 1.625
v -2 0.75 1.625
v -1.9375 0.75 1.25
v -2 0.75 1.25
v -1.9375 0.25 1.25
v -2 0.25 1.25
v -1.9375 0.75 1.75
v -2 0.75 1.75
v -1.9375 0.25 1.75
v -2 0.25 1.75
v 1 0.125 0
v 0 0.125 0
v 1 0.0625 0
v 0 0.0625 0
v 1 0.125 0.75
v 0 0.125 0.75
v 1 0.0625 0.75
v 0 0.0625 0.75
v 1 0.4375 0
v 0 0.4375 0
v 1 0.5 0.75
v 0 0.5 0.75
v 1 0.4375 0.75
v 0 0.4375 0.75
v 1 1.0012587499999999 0.0384812499999998
v 0 1.0012587499999999 0.0384812499999998
v 1 0.9850824999999999 -0.02188937500000021
v 0 0.9850824999999999 -0.02188937500000021
v 1 0.9408881249999999 0.0546574999999998
v 0 0.9408881249999999 0.0546574999999998
v 1 0.925669375 -0.0062549999999998995
v 0 0.925669375 -0.0062549999999998995
v 1 1.1207406249999998 0.7176475
v 0 1.1207406249999998 0.7176475
v 1 1 0.75
v 0 1 0.75
v 1 0.8058856250000002 0.02555562499999997
v 0 0.8058856250000002 0.02555562499999997
v 2.75 1.75 0.9375
v 2.25 1.75 0.9375
v 2.75 1.25 0.9375
v 2.25 1.25 0.9375
v 2.75 1.75 1
v 2.25 1.75 1
v 2.75 1.25 1
v 2.25 1.25 1
v 0 0.5 1
v 1 0.5 1
v 1.9375 2.25 1
v 1.875 2.25 1
v 1.9375 2.1875 1
v 1.875 2.1875 1
v 1.9375 2.25 1.625
v 1.875 2.25 1.625
v 1.9375 2.1875 1.625
v 1.875 2.1875 1.625
v 1.9375 1.6875 1
v 1.875 1.6875 1
v 1.9375 1.625 1
v 1.875 1.625 1
v 1.9375 1.6875 1.625
v 1.875 1.6875 1.625
v 1.9375 1.625 1.625
v 1.875 1.625 1.625
v 1.9375 2.1875 1.0625
v 1.875 2.1875 1.0625
v 1.9375 1.6875 1.0625
v 1.875 1.6875 1.0625
v 1.9375 2.1875 1.5625
v 1.875 2.1875 1.5625
v 1.9375 1.6875 1.5625
v 1.875 1.6875 1.5625
v 0 0.5 2
v 1 0.5 2
v 0.9375 1.125 2.1875
v 0.9375 1.125 2.6875
v 1.4375 1.125 2.6875
v 1.4375 1.125 2.1875
v 1.4375 1.0625 2.1875
v 1.4375 1.0625 2.6875
v 0.9375 1.0625 2.6875
v 0.9375 1.0625 2.1875
v 0.28125 1.125 2.1875
v 0.28125 1.125 2.6875
v 0.78125 1.125 2.6875
v 0.78125 1.125 2.1875
v 0.78125 1.0625 2.1875
v 0.78125 1.0625 2.6875
v 0.28125 1.0625 2.6875
v 0.28125 1.0625 2.1875
v -0.375 1.125 2.1875
v -0.375 1.125 2.6875
v 0.125 1.125 2.6875
v 0.125 1.125 2.1875
v 0.125 1.0625 2.1875
v 0.125 1.0625 2.6875
v -0.375 1.0625 2.6875
v -0.375 1.0625 2.1875
v -0.375 0 0
v -0.375 0 1
v -0.375 0 0.5
v 0 0 0.5
v -2 0 0.5
v 1.375 0 0
v 1.375 0 1
v 1.375 0.5 0
v 1.375 0 0.5
v 1 0 0.5
v 3 0 0.5
v 1 0.0625 1
v 0 0.0625 1
v 1 0.0625 0.625
v 0 0.0625 0.625
v 1 0 0.625
v 0 0 0.625
v 3 0.9375 0.75
v 1 0.9375 0.75
v 2 1 0
v 2 0.9375 0
v 2 0.9375 0.75
v 2 0.9375 1
v 2 1 1
v 1 1 0.375
v 1 0.9375 0.375
v 2 0.9375 0.375
v 3 0.9375 0.375
v 2.125 1 1
v 2.125 1 0
v 2.125 0.9375 0
v 2.125 0.9375 0.375
v 2.125 0.9375 0.75
v 2.125 0.9375 1
v 2.125 1 0.625
v 2 1 0.625
v 1 1 0.625
v 1 0.9375 0.625
v 2 0.9375 0.625
v 2.125 0.9375 0.625
v 3 0.9375 0.625
v 3 1 0.625
v -2 1 0.75
v -2 0.9375 0.75
v 0 0.9375 0.75
v -1.75 1 0
v -1.75 0.9375 0
v -1.75 0.9375 0.75
v -1.75 0.9375 1
v -1.75 1 1
v -1.75 1 0.375
v 0 1 0.375
v 0 0.9375 0.375
v -1.75 0.9375 0.375
v -2 0.9375 0.375
v -2 1 0.375
v 0.25 0 3
v 0.25 0 2
v 0.75 0 3
v 0.75 0 2
v -0.75 0 3
v -0.75 0 2
v -0.25 0 3
v -0.25 0 2
v 1.75 0 3
v 1.75 0 2
v 1.25 0 3
v 1.25 0 2
v 1.75 0.75 2.9375
v 1.25 0.75 2.9375
v 1.75 0.25 2.9375
v 1.25 0.25 2.9375
v 1.75 0.75 3
v 1.25 0.75 3
v 1.75 0.25 3
v 1.25 0.25 3
v 0.75 0.75 2.9375
v 0.25 0.75 2.9375
v 0.75 0.25 2.9375
v 0.25 0.25 2.9375
v 0.75 0.75 3
v 0.25 0.75 3
v 0.75 0.25 3
v 0.25 0.25 3
v -0.25 0.75 2.9375
v -0.75 0.75 2.9375
v -0.25 0.25 2.9375
v -0.75 0.25 2.9375
v -0.25 0.75 3
v -0.75 0.75 3
v -0.25 0.25 3
v -0.75 0.25 3
v 1.625 0.9375 2.9375
v 1.375 0.9375 2.9375
v 1.625 0.9375 3
v 1.375 0.9375 3
v 1.625 0.75 3
v 1.375 0.75 3
v 1.375 0.75 2.9375
v 1.625 0.75 2.9375
v 0.625 0.9375 2.9375
v 0.375 0.9375 2.9375
v 0.625 0.9375 3
v 0.375 0.9375 3
v 0.625 0.75 3
v 0.375 0.75 3
v 0.375 0.75 2.9375
v 0.625 0.75 2.9375
v -0.375 0.9375 2.9375
v -0.625 0.9375 2.9375
v -0.375 0.9375 3
v -0.625 0.9375 3
v -0.375 0.75 3
v -0.625 0.75 3
v -0.625 0.75 2.9375
v -0.375 0.75 2.9375
v 3 2 1
v 2 2 1
v 3 2 2
v 2 2 2
v 2 1 2
v 2 1 0.375
v 2.125 1 0.75
v -1.9375 0.5 3
v -1.9375 0.5 0
v -2 0.5 0.0625
v 3 0.5 0.0625
v 2.9375 0.5 0
v 2.9375 0.5 3
v -1.9375 0.9375 0.125
v -1.9375 0.5 0.125
v -1.9375 0.9375 0.875
v -1.9375 0.5 0.875
v -1.9375 0.9375 2.875
v -1.9375 0.9375 2.125
v -1.9375 0.5 2.875
v -1.9375 0.5 2.125
v 2.9375 0.9375 2.875
v 2.9375 0.9375 2.125
v 2.9375 0.5 2.875
v 2.9375 0.5 2.125
v 2.9375 0.9375 0.875
v 2.9375 0.9375 0.125
v 2.9375 0.5 0.875
v 2.9375 0.5 0.125
v 2 0 3
v 2.000520625 0.5 3
v 3 0.5 2.9375
v 2 0.5 2.9375
v 2.875 0.9375 2.9375
v 2.125 0.9375 2.9375
v 2.125 0.5 2.9375
v 2.875 0.5 2.9375
v 2.000520625 0.9375 3
v 2.126041875 0.9375 3
v 2.126041875 0.5 3
v 2.126041875 0.9375 2.875
v 2.126041875 0.5 2.875
v -1 0 3
v -1.000520625 0.5 3
v -2 0.5 2.9375
v -1 0.5 2.9375
v -1.875 0.9375 2.9375
v -1.125 0.9375 2.9375
v -1.125 0.5 2.9375
v -1.875 0.5 2.9375
v -1.000520625 0.9375 3
v -1.126041875 0.9375 3
v -1.126041875 0.5 3
v -1.126041875 0.9375 2.875
v -1.126041875 0.5 2.875
v 2 0.9375 2.9375
v -1 0.9375 2.9375
v 2 0 2.9375
v -1 0 2.9375
v 2 0.125 3
v 2 0.125 2.9375
v -1 0.125 2.9375
v -1 0.125 3
v 1 0.9375 2.9375
v 1 0 2.9375
v 0 0 2.9375
v 1 0.125 3
v 0 0.125 3
v 1 0.125 2.9375
v 0 0.125 2.9375
v 1.9375 1 2.0625
v -1 1 2.0625
v 3 1.4375 2
v 3 1.4375 3
v 2 1.4375 3
v 3.0625 1.6875 2.25
v 3 1.6875 2.25
v 3.0625 1.1875 2.25
v 3 1.1875 2.25
v 3.0625 1.6875 2.8125
v 3 1.6875 2.8125
v 3.0625 1.1875 2.8125
v 3 1.1875 2.8125
v 1 0.125 1
v 1 0.125 0
v 1.375 0.125 0
v 3 0.125 0
v 3 0.125 1
v 0 0.0625 1
v 0 0.0625 0
v -2 0.0625 0
v -2 0.0625 1
vt 0.359375 0
vt 0.359375 0.03125
vt 0.0625 0.03125
vt 0.0625 0
vt 0.671875 0
vt 0.671875 0.015625
vt 0.375 0.015625
vt 0.375 0
vt 0.53125 0.96875
vt 0.53125 0.984375
vt 0.234375 0.984375
vt 0.234375 0.96875
vt 0.4375 0.96875
vt 0.4375 1
vt 0.140625 1
vt 0.140625 0.96875
vt 0.5625 0.96875
vt 0.5625 0.984375
vt 0.265625 0.984375
vt 0.265625 0.96875
vt 1 0
vt 1 0
vt 1 0
vt 1 0
vt 1 0
vt 1 0.015625
vt 0.984375 0.015625
vt 0.984375 0
vt 1 0
vt 1 0.015625
vt 0.984375 0.015625
vt 0.984375 0
vt 0.640625 0.265625
vt 0.640625 0.28125
vt 0.578125 0.28125
vt 0.578125 0.265625
vt 0.515625 0.328125
vt 0.515625 0.34375
vt 0.453125 0.34375
vt 0.453125 0.328125
vt 0.9375 0
vt 0.9375 0.015625
vt 0.875 0.015625
vt 0.875 0
vt 1 0
vt 1 0.015625
vt 0.984375 0.015625
vt 0.984375 0
vt 1 0
vt 1 0.015625
vt 0.984375 0.015625
vt 0.984375 0
vt 0.640625 0.265625
vt 0.640625 0.28125
vt 0.578125 0.28125
vt 0.578125 0.265625
vt 0.515625 0.328125
vt 0.515625 0.34375
vt 0.453125 0.34375
vt 0.453125 0.328125
vt 0.9375 0
vt 0.9375 0.015625
vt 0.875 0.015625
vt 0.875 0
vt 1 0
vt 1 0.015625
vt 0.984375 0.015625
vt 0.984375 0
vt 1 0
vt 1 0.015625
vt 0.984375 0.015625
vt 0.984375 0
vt 0.640625 0.265625
vt 0.640625 0.28125
vt 0.578125 0.28125
vt 0.578125 0.265625
vt 0.515625 0.328125
vt 0.515625 0.34375
vt 0.453125 0.34375
vt 0.453125 0.328125
vt 0.9375 0
vt 0.9375 0.015625
vt 0.875 0.015625
vt 0.875 0
vt 1 0
vt 1 0.015625
vt 0.984375 0.015625
vt 0.984375 0
vt 1 0
vt 1 0.015625
vt 0.984375 0.015625
vt 0.984375 0
vt 0.640625 0.265625
vt 0.640625 0.28125
vt 0.578125 0.28125
vt 0.578125 0.265625
vt 0.515625 0.328125
vt 0.515625 0.34375
vt 0.453125 0.34375
vt 0.453125 0.328125
vt 0.9375 0
vt 0.9375 0.015625
vt 0.875 0.015625
vt 0.875 0
vt 0.25 0.5
vt 0.25 0.5625
vt 0 0.5625
vt 0 0.5
vt 0.75 0
vt 0.75 0.25
vt 0.5 0.25
vt 0.5 0
vt 0.40625 0.65625
vt 0 0.65625
vt 0 0.625
vt 0.40625 0.625
vt 0.5 0.59375
vt 0.625 0.59375
vt 0.625 1
vt 0.5 1
vt 0.5 0.5
vt 0.5 0.96875
vt 0.25 0.96875
vt 0.25 0.5
vt 0 0.6875
vt 0 0.5625
vt 0.25 0.5625
vt 0.25 0.6875
vt 0.75 0.25
vt 0.625 0.25
vt 0.625 0.34375
vt 0.75 0.34375
vt 0.25 0.96875
vt 0.5 0.96875
vt 0.5 0.5
vt 0.25 0.5
vt 0.25 1
vt 0.25 0.6875
vt 0 0.6875
vt 0 1
vt 0.484375 0.890625
vt 0.484375 1
vt 0.015625 1
vt 0.015625 0.890625
vt 0.015625 1
vt 0.484375 1
vt 0.484375 0.890625
vt 0.015625 0.890625
vt 0.984375 0.3125
vt 0.984375 0.4375
vt 1 0.4375
vt 1 0.3125
vt 0 0.5
vt 0 0.625
vt 0.015625 0.625
vt 0.015625 0.5
vt 0.53125 0.984375
vt 0.53125 0.96875
vt 0.28125 0.96875
vt 0.28125 0.984375
vt 1 0
vt 1 0.125
vt 0.75 0.125
vt 0.75 0
vt 0.75 0
vt 1 0
vt 1 0.015625
vt 0.75 0.015625
vt 0.34375 0.984375
vt 0.59375 0.984375
vt 0.59375 1
vt 0.34375 1
vt 1 0.03125
vt 0.75 0.03125
vt 0.75 0
vt 1 0
vt 0 0.953125
vt 0 1
vt 0.015625 1
vt 0.015625 0.953125
vt 0.046875 0.6875
vt 0.046875 0.734375
vt 0.0625 0.734375
vt 0.0625 0.6875
vt 0.0625 0.6875
vt 0.0625 0.734375
vt 0.125 0.734375
vt 0.125 0.6875
vt 0.375 0.609375
vt 0.390625 0.609375
vt 0.390625 0.484375
vt 0.375 0.484375
vt 0.484375 0.609375
vt 0.5 0.609375
vt 0.5 0.484375
vt 0.484375 0.484375
vt 0.5 0.609375
vt 0.375 0.609375
vt 0.375 0.59375
vt 0.5 0.59375
vt 0.5 0.5
vt 0.375 0.5
vt 0.375 0.484375
vt 0.5 0.484375
vt 0.375 0.609375
vt 0.5 0.609375
vt 0.5 0.484375
vt 0.375 0.484375
vt 0.984375 0.3125
vt 0.984375 0.4375
vt 1 0.4375
vt 1 0.3125
vt 0 0.375
vt 0 0.5
vt 0.015625 0.5
vt 0.015625 0.375
vt 0.640625 1
vt 0.640625 0.984375
vt 0.390625 0.984375
vt 0.390625 1
vt 1 0.125
vt 1 0.234375
vt 0.75 0.234375
vt 0.75 0.125
vt 0.03125 0.671875
vt 0.03125 0.78125
vt 0 0.78125
vt 0 0.671875
vt 0.71875 0.6875
vt 0.71875 0.796875
vt 0.75 0.796875
vt 0.75 0.6875
vt 1 0.484375
vt 1 0.59375
vt 0.96875 0.59375
vt 0.96875 0.484375
vt 0.75 0.609375
vt 0.75 0.71875
vt 0.734375 0.71875
vt 0.734375 0.609375
vt 0.03125 0.671875
vt 0.03125 0.78125
vt 0 0.78125
vt 0 0.671875
vt 0.75 0.6875
vt 0.75 0.796875
vt 0.71875 0.796875
vt 0.71875 0.6875
vt 1 0.484375
vt 1 0.59375
vt 0.96875 0.59375
vt 0.96875 0.484375
vt 0.75 0.609375
vt 0.75 0.71875
vt 0.734375 0.71875
vt 0.734375 0.609375
vt 0 0.671875
vt 0 0.78125
vt 0.03125 0.78125
vt 0.03125 0.671875
vt 0.75 0.6875
vt 0.75 0.796875
vt 0.71875 0.796875
vt 0.71875 0.6875
vt 0.96875 0.484375
vt 0.96875 0.59375
vt 1 0.59375
vt 1 0.484375
vt 0.75 0.609375
vt 0.75 0.71875
vt 0.734375 0.71875
vt 0.734375 0.609375
vt 0.75 0.6875
vt 0.75 0.796875
vt 0.71875 0.796875
vt 0.71875 0.6875
vt 0.75 0.6875
vt 0.75 0.796875
vt 0.71875 0.796875
vt 0.71875 0.6875
vt 1 0.3125
vt 1 0.421875
vt 0.984375 0.421875
vt 0.984375 0.3125
vt 0.71875 0.796875
vt 0.75 0.796875
vt 0.75 0.6875
vt 0.71875 0.6875
vt 0.71875 0.796875
vt 0.75 0.796875
vt 0.75 0.6875
vt 0.71875 0.6875
vt 0.984375 0.421875
vt 1 0.421875
vt 1 0.3125
vt 0.984375 0.3125
vt 0 0.78125
vt 0.03125 0.78125
vt 0.03125 0.671875
vt 0 0.671875
vt 0.71875 0.796875
vt 0.75 0.796875
vt 0.75 0.6875
vt 0.71875 0.6875
vt 0.96875 0.59375
vt 1 0.59375
vt 1 0.484375
vt 0.96875 0.484375
vt 0.734375 0.71875
vt 0.75 0.71875
vt 0.75 0.609375
vt 0.734375 0.609375
vt 0 0.78125
vt 0.03125 0.78125
vt 0.03125 0.671875
vt 0 0.671875
vt 0.71875 0.796875
vt 0.75 0.796875
vt 0.75 0.6875
vt 0.71875 0.6875
vt 1 0.59375
vt 0.96875 0.59375
vt 0.96875 0.484375
vt 1 0.484375
vt 0.734375 0.71875
vt 0.75 0.71875
vt 0.75 0.609375
vt 0.734375 0.609375
vt 0.03125 0.671875
vt 0.03125 0.78125
vt 0 0.78125
vt 0 0.671875
vt 0.75 0.6875
vt 0.75 0.796875
vt 0.71875 0.796875
vt 0.71875 0.6875
vt 0.96875 0.484375
vt 0.96875 0.59375
vt 1 0.59375
vt 1 0.484375
vt 0.75 0.609375
vt 0.75 0.71875
vt 0.734375 0.71875
vt 0.734375 0.609375
vt 0 1
vt 0.5 1
vt 0.5 0.984375
vt 0 0.984375
vt 0 1
vt 0.25 1
vt 0.25 0.5
vt 0 0.5
vt 0 0.015625
vt 0.25 0.015625
vt 0.25 0
vt 0 0
vt 0.140625 0.53125
vt 0.140625 0.5859375
vt 0.1328125 0.5859375
vt 0.1328125 0.53125
vt 0.2421875 0.53125
vt 0.2421875 0.5859375
vt 0.234375 0.5859375
vt 0.234375 0.53125
vt 0.2421875 0.578125
vt 0.2421875 0.5859375
vt 0.1328125 0.5859375
vt 0.1328125 0.578125
vt 0.2421875 0.53125
vt 0.2421875 0.5859375
vt 0.1328125 0.5859375
vt 0.1328125 0.53125
vt 0.0625 0.34375
vt 0.0625 0.359375
vt 0.015625 0.359375
vt 0 0.34375
vt 0.0625 0.34375
vt 0.046875 0.359375
vt 0 0.359375
vt 0 0.34375
vt 0.0625 0.328125
vt 0.0625 0.375
vt 0 0.375
vt 0 0.328125
vt 0.0625 0.352903125
vt 0.0625 0.375
vt 0 0.375
vt 0 0.352903125
vt 0.0625 0.375
vt 0.0625 0.453125
vt 0 0.453125
vt 0 0.375
vt 0.0625 0.375
vt 0.0625 0.453125
vt 0 0.453125
vt 0 0.375
vt 0.0625 0.375
vt 0.0625 0.453125
vt 0 0.453125
vt 0 0.375
vt 0.0625 0.375
vt 0.0625 0.453125
vt 0 0.453125
vt 0 0.375
vt 0.0625 0.375
vt 0.0625 0.453125
vt 0 0.453125
vt 0 0.375
vt 0.0625 0.375
vt 0.0625 0.453125
vt 0 0.453125
vt 0 0.375
vt 0.0625 0.34375
vt 0.0625 0.359375
vt 0.015625 0.359375
vt 0 0.34375
vt 0.0625 0.34375
vt 0.046875 0.359375
vt 0 0.359375
vt 0 0.34375
vt 0.0625 0.328125
vt 0.0625 0.375
vt 0 0.375
vt 0 0.328125
vt 0.0625 0.352903125
vt 0.0625 0.375
vt 0 0.375
vt 0 0.352903125
vt 0.0625 0.328125
vt 0.0625 0.40625
vt 0 0.40625
vt 0 0.328125
vt 0.0625 0.328125
vt 0.0625 0.40625
vt 0 0.40625
vt 0 0.328125
vt 0.0625 0.328125
vt 0.0625 0.40625
vt 0 0.40625
vt 0 0.328125
vt 0.0625 0.328125
vt 0.0625 0.40625
vt 0 0.40625
vt 0 0.328125
vt 0.0625 0.40625
vt 0.0625 0.484375
vt 0 0.484375
vt 0 0.40625
vt 0.0625 0.40625
vt 0.0625 0.484375
vt 0 0.484375
vt 0 0.40625
vt 0.0625 0.40625
vt 0.0625 0.484375
vt 0 0.484375
vt 0 0.40625
vt 0.0625 0.40625
vt 0.0625 0.484375
vt 0 0.484375
vt 0 0.40625
vt 0.0625 0.328125
vt 0.0625 0.40625
vt 0 0.40625
vt 0 0.328125
vt 0.0625 0.328125
vt 0.0625 0.40625
vt 0 0.40625
vt 0 0.328125
vt 0.0625 0.328125
vt 0.0625 0.40625
vt 0 0.40625
vt 0 0.328125
vt 0.0625 0.328125
vt 0.0625 0.40625
vt 0 0.40625
vt 0 0.328125
vt 0.0625 0.328125
vt 0.0625 0.390625
vt 0 0.390625
vt 0 0.328125
vt 0.0625 0.328125
vt 0.0625 0.390625
vt 0 0.390625
vt 0 0.328125
vt 0.0625 0.328125
vt 0.0625 0.390625
vt 0 0.390625
vt 0 0.328125
vt 0.0625 0.328125
vt 0.0625 0.390625
vt 0 0.390625
vt 0 0.328125
vt 0.0625 0.328125
vt 0.0625 0.390625
vt 0 0.390625
vt 0 0.328125
vt 0.0625 0.328125
vt 0.0625 0.390625
vt 0 0.390625
vt 0 0.328125
vt 0.0625 0.328125
vt 0.0625 0.390625
vt 0 0.390625
vt 0 0.328125
vt 0.0625 0.328125
vt 0.0625 0.390625
vt 0 0.390625
vt 0 0.328125
vt 0.0625 0.40625
vt 0.0625 0.484375
vt 0 0.484375
vt 0 0.40625
vt 0.0625 0.40625
vt 0.0625 0.484375
vt 0 0.484375
vt 0 0.40625
vt 0.0625 0.40625
vt 0.0625 0.484375
vt 0 0.484375
vt 0 0.40625
vt 0.0625 0.40625
vt 0.0625 0.484375
vt 0 0.484375
vt 0 0.40625
vt 0.1875 0.375
vt 0.1875 0.3923609375
vt 0.25 0.421875
vt 0.25 0.375
vt 0.25 0.375
vt 0.25 0.421875
vt 0.1875 0.3923609375
vt 0.1875 0.375
vt 0 0.390625
vt 0 0.3277578125
vt 0.0625 0.3277578125
vt 0.0625 0.390625
vt 0.0625 0.3576390625
vt 0.0625 0.375
vt 0 0.375
vt 0 0.3576390625
vt 0 0.3671875
vt 0.0625 0.3671875
vt 0.0625 0.3828125
vt 0 0.3828125
vt 0.0625 0.3671875
vt 0 0.3671875
vt 0 0.3515625
vt 0.0625 0.3515625
vt 0.0625 0.328125
vt 0.0625 0.34375
vt 0 0.34375
vt 0 0.328125
vt 0.0625 0.34375
vt 0.0625 0.359375
vt 0 0.359375
vt 0 0.34375
vt 0.1875 0.375
vt 0.1875 0.3923609375
vt 0.25 0.421875
vt 0.25 0.375
vt 0.25 0.375
vt 0.25 0.421875
vt 0.1875 0.3923609375
vt 0.1875 0.375
vt 0 0.390625
vt 0 0.3277578125
vt 0.0625 0.3277578125
vt 0.0625 0.390625
vt 0.0625 0.3576390625
vt 0.0625 0.375
vt 0 0.375
vt 0 0.3576390625
vt 0 0.3671875
vt 0.0625 0.3671875
vt 0.0625 0.3828125
vt 0 0.3828125
vt 0.0625 0.3671875
vt 0 0.3671875
vt 0 0.3515625
vt 0.0625 0.3515625
vt 0.0625 0.328125
vt 0.0625 0.34375
vt 0 0.34375
vt 0 0.328125
vt 0.0625 0.34375
vt 0.0625 0.359375
vt 0 0.359375
vt 0 0.34375
vt 0.078125 0.390625
vt 0.078125 0.40625
vt 0 0.40625
vt 0 0.390625
vt 0.078125 0.40625
vt 0.078125 0.421875
vt 0 0.421875
vt 0 0.40625
vt 0.0859375 0.3984375
vt 0.0859375 0.4765625
vt 0.0078125 0.4765625
vt 0.0078125 0.3984375
vt 0.078125 0.453125
vt 0.078125 0.46875
vt 0 0.46875
vt 0 0.453125
vt 0.078125 0.46875
vt 0.078125 0.484375
vt 0 0.484375
vt 0 0.46875
vt 0.078125 0.390625
vt 0.078125 0.40625
vt 0 0.40625
vt 0 0.390625
vt 0.078125 0.40625
vt 0.078125 0.421875
vt 0 0.421875
vt 0 0.40625
vt 0.0859375 0.3984375
vt 0.0859375 0.4765625
vt 0.0078125 0.4765625
vt 0.0078125 0.3984375
vt 0.078125 0.453125
vt 0.078125 0.46875
vt 0 0.46875
vt 0 0.453125
vt 0.078125 0.46875
vt 0.078125 0.484375
vt 0 0.484375
vt 0 0.46875
vt 0.140625 0.53125
vt 0.140625 0.5859375
vt 0.1328125 0.5859375
vt 0.1328125 0.53125
vt 0.2421875 0.53125
vt 0.2421875 0.5390625
vt 0.1328125 0.5390625
vt 0.1328125 0.53125
vt 0.2421875 0.53125
vt 0.2421875 0.5859375
vt 0.1328125 0.5859375
vt 0.1328125 0.53125
vt 0.140625 0.53125
vt 0.140625 0.5859375
vt 0.1328125 0.5859375
vt 0.1328125 0.53125
vt 0.2421875 0.53125
vt 0.2421875 0.5859375
vt 0.234375 0.5859375
vt 0.234375 0.53125
vt 0.2421875 0.578125
vt 0.2421875 0.5859375
vt 0.1328125 0.5859375
vt 0.1328125 0.578125
vt 0.5 0.3828125
vt 0.5 0.390625
vt 0.390625 0.390625
vt 0.390625 0.3828125
vt 0.2421875 0.53125
vt 0.2421875 0.5859375
vt 0.1328125 0.5859375
vt 0.1328125 0.53125
vt 0.578125 0.75
vt 0.5859375 0.75
vt 0.5859375 1
vt 0.578125 1
vt 0.4921875 1
vt 0.484375 1
vt 0.484375 0.75
vt 0.4921875 0.75
vt 0.5859375 0.75
vt 0.5859375 1
vt 0.484375 1
vt 0.484375 0.75
vt 0.5859375 0.9921875
vt 0.5859375 1
vt 0.484375 1
vt 0.484375 0.9921875
vt 0.5859375 0.75
vt 0.5859375 0.7578125
vt 0.484375 0.7578125
vt 0.484375 0.75
vt 0.234375 0.25
vt 0.234375 0.3125
vt 0.484375 0.3125
vt 0.484375 0.25
vt 0.234375 1
vt 0.484375 1
vt 0.484375 0.5
vt 0.234375 0.5
vt 0.265625 1
vt 0.515625 1
vt 0.515625 0.984375
vt 0.265625 0.984375
vt 0.1875 0.015625
vt 0.4375 0.015625
vt 0.4375 0
vt 0.1875 0
vt 0.484375 0.5
vt 0.484375 1
vt 0.234375 1
vt 0.234375 0.5
vt 0.515625 0.984375
vt 0.515625 1
vt 0.265625 1
vt 0.265625 0.984375
vt 0.4375 0
vt 0.4375 0.015625
vt 0.1875 0.015625
vt 0.1875 0
vt 0.25 1
vt 0.21875 1
vt 0.21875 0.984375
vt 0.25 0.984375
vt 0.5625 0.75
vt 0.5625 0.78125
vt 0.5 0.78125
vt 0.5 0.75
vt 0.796875 1
vt 0.734375 1
vt 0.734375 0.984375
vt 0.796875 0.984375
vt 0.5 0.984375
vt 0.0625 0.984375
vt 0.0625 1
vt 0.5 1
vt 0 1
vt 0.09375 1
vt 0.09375 0.5625
vt 0 0.5625
vt 0.5625 0.9375
vt 0.65625 0.9375
vt 0.65625 0.5
vt 0.5625 0.5
vt 0.734375 1
vt 0.828125 1
vt 0.828125 0.984375
vt 0.734375 0.984375
vt 0.734375 0.984375
vt 0.640625 0.984375
vt 0.640625 1
vt 0.734375 1
vt 0.3125 0.25
vt 0.3125 0.5625
vt 0 0.5625
vt 0 0.25
vt 0.3125 0.25
vt 0.3125 0.5625
vt 0 0.5625
vt 0 0.25
vt 0.3125 0.25
vt 0.3125 0.5625
vt 0 0.5625
vt 0 0.25
vt 0.3125 0.25
vt 0.3125 0.5625
vt 0 0.5625
vt 0 0.25
vt 0.3125 0.25
vt 0.3125 0.5625
vt 0 0.5625
vt 0 0.25
vt 0.3125 0.25
vt 0.3125 0.5625
vt 0 0.5625
vt 0 0.25
vt 0.875 0.6875
vt 0.875 1
vt 0.4375 1
vt 0.4375 0.6875
vt 0.875 0.6875
vt 0.875 1
vt 0.4375 1
vt 0.4375 0.6875
vt 0.875 1
vt 0.4375 1
vt 0.4375 0.6875
vt 0.875 0.6875
vt 0.875 1
vt 0.4375 1
vt 0.4375 0.6875
vt 0.875 0.6875
vt 0.3125 0.25
vt 0.3125 0.5625
vt 0 0.5625
vt 0 0.25
vt 0.3125 0.25
vt 0.3125 0.5625
vt 0 0.5625
vt 0 0.25
vt 0.5 0.984375
vt 0.5 1
vt 0 1
vt 0 0.984375
vt 0.25 0.5
vt 0.25 1
vt 0 1
vt 0 0.5
vt 0.25 0
vt 0.25 0.015625
vt 0 0.015625
vt 0 0
vt 0.78125 0.40625
vt 0.78125 0.703125
vt 0.75 0.703125
vt 0.75 0.40625
vt 1 0.3125
vt 1 0.609375
vt 0.96875 0.609375
vt 0.96875 0.3125
vt 1 0.40625
vt 1 0.703125
vt 0.96875 0.703125
vt 0.96875 0.40625
vt 1 0.4375
vt 1 0.734375
vt 0.96875 0.734375
vt 0.96875 0.4375
vt 0.03125 0.53125
vt 0.03125 0.828125
vt 0 0.828125
vt 0 0.53125
vt 1 0
vt 1 0.078125
vt 1 0.078125
vt 1 0
vt 1 0.390625
vt 1 0.6875
vt 0.96875 0.6875
vt 0.96875 0.390625
vt 0.03125 0.65625
vt 0.03125 0.953125
vt 0 0.953125
vt 0 0.65625
vt 0.03125 0.515625
vt 0.03125 0.8125
vt 0 0.8125
vt 0 0.515625
vt 1 0
vt 1 0.078125
vt 1 0.078125
vt 1 0
vt 1 0.453125
vt 1 0.75
vt 0.96875 0.75
vt 0.96875 0.453125
vt 0.03125 0.453125
vt 0.03125 0.75
vt 0 0.75
vt 0 0.453125
vt 1 0.15625
vt 1 0.453125
vt 0.96875 0.453125
vt 0.96875 0.15625
vt 1 0.515625
vt 1 0.8125
vt 0.96875 0.8125
vt 0.96875 0.515625
vt 0.71875 0.25
vt 0.71875 0.265625
vt 0.21875 0.265625
vt 0.21875 0.25
vt 0.71875 0.640625
vt 0.71875 1
vt 0.21875 1
vt 0.21875 0.640625
vt 0.6875 0.5625
vt 0.6875 0.7421875
vt 0.4375 0.7421875
vt 0.4375 0.5625
vt 0.75 0.96875
vt 0.75 1
vt 0 1
vt 0 0.96875
vt 0.75 0.25
vt 0.75 0.28125
vt 0 0.28125
vt 0 0.25
vt 1 0.25
vt 1 1
vt 0.96875 1
vt 0.96875 0.25
vt 1 0.25
vt 1 1
vt 0.96875 1
vt 0.96875 0.25
vt 1 0.21875
vt 1 0.25
vt 0.96875 0.25
vt 0.96875 0.21875
vt 1 0
vt 1 0
vt 1 0
vt 1 0
vt 0.75 0.96875
vt 0.75 1
vt 0 1
vt 0 0.96875
vt 0.75 0.96875
vt 0.75 1
vt 0 1
vt 0 0.96875
vt 0.78125 0.25
vt 0.78125 1
vt 0.75 1
vt 0.75 0.25
vt 1 0.25
vt 1 1
vt 0.96875 1
vt 0.96875 0.25
vt 0.03125 0.96875
vt 0.03125 1
vt 0 1
vt 0 0.96875
vt 1 0
vt 1 0
vt 1 0
vt 1 0
vt 0.75 0.25
vt 0.75 0.28125
vt 0 0.28125
vt 0 0.25
vt 0.75 0.25
vt 0.75 0.28125
vt 0 0.28125
vt 0 0.25
vt 1 0.25
vt 1 1
vt 0.96875 1
vt 0.96875 0.25
vt 0.75 0.25
vt 0.75 0.28125
vt 0 0.28125
vt 0 0.25
vt 0.75 0.25
vt 0.75 0.28125
vt 0 0.28125
vt 0 0.25
vt 1 0.25
vt 1 1
vt 0.96875 1
vt 0.96875 0.25
vt 1 1
vt 1 0.96875
vt 0.96875 0.96875
vt 0.96875 1
vt 0.453125 0.984375
vt 0.453125 1
vt 0.203125 1
vt 0.203125 0.984375
vt 0.578125 0.984375
vt 0.578125 1
vt 0.328125 1
vt 0.328125 0.984375
vt 0.75 0.484375
vt 0.75 0.734375
vt 0.5 0.734375
vt 0.5 0.484375
vt 0.25 0.53125
vt 0.25 0.78125
vt 0 0.78125
vt 0 0.53125
vt 0.90625 0.984375
vt 0.90625 1
vt 0.65625 1
vt 0.65625 0.984375
vt 0.34375 0
vt 0.34375 0.015625
vt 0.09375 0.015625
vt 0.09375 0
vt 0 0.703125
vt 0 0.6484375
vt 0.125 0.6484375
vt 0.125 0.703125
vt 0.125 0.5859375
vt 0.125 0.4609375
vt 0 0.4609375
vt 0 0.5859375
vt 0.5 0.25
vt 0.5 0.140625
vt 0.75 0.140625
vt 0.75 0.25
vt 0.3515625 0.7265625
vt 0.3515625 0.734375
vt 0.4296875 0.734375
vt 0.4296875 0.7265625
vt 0.3515625 0.7265625
vt 0.3515625 0.734375
vt 0.4296875 0.734375
vt 0.4296875 0.7265625
vt 0.125 0.484375
vt 0.125 0.609375
vt 0 0.609375
vt 0 0.484375
vt 0.3515625 0.7265625
vt 0.3515625 0.734375
vt 0.4296875 0.734375
vt 0.4296875 0.7265625
vt 0.3515625 0.7265625
vt 0.3515625 0.734375
vt 0.4296875 0.734375
vt 0.4296875 0.7265625
vt 0.3515625 0.671875
vt 0.3515625 0.734375
vt 0.4296875 0.734375
vt 0.4296875 0.671875
vt 0.3515625 0.671875
vt 0.3515625 0.734375
vt 0.4296875 0.734375
vt 0.4296875 0.671875
vt 0.3515625 0.671875
vt 0.3515625 0.734375
vt 0.4296875 0.734375
vt 0.4296875 0.671875
vt 0.3515625 0.671875
vt 0.3515625 0.734375
vt 0.4296875 0.734375
vt 0.4296875 0.671875
vt 1 0
vt 0.984375 0.022098437499999957
vt 0.765625 0.022098437499999957
vt 0.75 0
vt 1 0
vt 0.984375 0.022096875000000016
vt 0.765625 0.022096875000000016
vt 0.75 0
vt 0.984375 0.015625
vt 0.984375 0.234375
vt 0.765625 0.234375
vt 0.765625 0.015625
vt 1 0
vt 0.984375 0.022096875000000016
vt 0.765625 0.022096875000000016
vt 0.75 0
vt 1 0
vt 0.984375 0.022096875000000016
vt 0.765625 0.022096875000000016
vt 0.75 0
vt 0.375 0.3828125
vt 0.375 0.5546875
vt 0.5 0.5546875
vt 0.5 0.3828125
vt 0.375 0.3828125
vt 0.375 0.5546875
vt 0.5 0.5546875
vt 0.5 0.3828125
vt 0.375 0.3828125
vt 0.375 0.5546875
vt 0.5 0.5546875
vt 0.5 0.3828125
vt 0.375 0.3828125
vt 0.375 0.5546875
vt 0.5 0.5546875
vt 0.5 0.3828125
vt 0.765625 0.46875
vt 0.765625 0.546875
vt 0.984375 0.546875
vt 0.984375 0.46875
vt 1 0
vt 1 0.03125
vt 0.78125 0.03125
vt 0.78125 0
vt 0.984375 0.4494359375
vt 0.984375 0.484375
vt 0.765625 0.484375
vt 0.765625 0.4494359375
vt 0.765625 0.453125
vt 0.765625 0.53125
vt 0.984375 0.53125
vt 0.984375 0.453125
vt 1 0.21875
vt 1 0.25
vt 0.78125 0.25
vt 0.78125 0.21875
vt 0.984375 0.5119359375
vt 0.984375 0.546875
vt 0.765625 0.546875
vt 0.765625 0.5119359375
vt 0.2265625 0.4609375
vt 0.2265625 0.5234375
vt 0.1328125 0.5234375
vt 0.1328125 0.4609375
vt 0.2734375 0.4375
vt 0.3671875 0.4375
vt 0.3671875 0.59375
vt 0.2734375 0.59375
vt 0.2734375 0.4375
vt 0.359375 0.4375
vt 0.359375 0.59375
vt 0.2734375 0.59375
vt 0.421875 0.6015625
vt 0.421875 0.6640625
vt 0.265625 0.6640625
vt 0.265625 0.6015625
vt 0.421875 0.6015625
vt 0.421875 0.6640625
vt 0.265625 0.6640625
vt 0.265625 0.6015625
vt 0.5078125 0.5
vt 0.5078125 0.5546875
vt 0.6015625 0.5546875
vt 0.6015625 0.5
vt 0.515625 0.5
vt 0.515625 0.5546875
vt 0.6015625 0.5546875
vt 0.6015625 0.5
vt 0.609375 0.5
vt 0.609375 0.5546875
vt 0.6328125 0.5546875
vt 0.6328125 0.5
vt 0.6328125 0.5
vt 0.6328125 0.5546875
vt 0.609375 0.5546875
vt 0.609375 0.5
vt 0.1328125 0.5234375
vt 0.2265625 0.5234375
vt 0.2265625 0.4609375
vt 0.1328125 0.4609375
vt 0.3671875 0.59375
vt 0.3671875 0.4375
vt 0.2734375 0.4375
vt 0.2734375 0.59375
vt 0.359375 0.59375
vt 0.359375 0.4375
vt 0.2734375 0.4375
vt 0.2734375 0.59375
vt 0.265625 0.6640625
vt 0.421875 0.6640625
vt 0.421875 0.6015625
vt 0.265625 0.6015625
vt 0.265625 0.6640625
vt 0.421875 0.6640625
vt 0.421875 0.6015625
vt 0.265625 0.6015625
vt 0.5078125 0.5
vt 0.5078125 0.5546875
vt 0.59375 0.5546875
vt 0.59375 0.5
vt 0.609375 0.5
vt 0.609375 0.5546875
vt 0.6328125 0.5546875
vt 0.6328125 0.5
vt 0.6328125 0.5
vt 0.6328125 0.5546875
vt 0.609375 0.5546875
vt 0.609375 0.5
vt 0.03125 0.78125
vt 0 0.78125
vt 0 0.671875
vt 0.03125 0.671875
vt 0.71875 0.796875
vt 0.75 0.796875
vt 0.75 0.6875
vt 0.71875 0.6875
vt 1 0.59375
vt 0.96875 0.59375
vt 0.96875 0.484375
vt 1 0.484375
vt 0.734375 0.71875
vt 0.75 0.71875
vt 0.75 0.609375
vt 0.734375 0.609375
vt 0 0.78125
vt 0.03125 0.78125
vt 0.03125 0.671875
vt 0 0.671875
vt 0.75 0.796875
vt 0.71875 0.796875
vt 0.71875 0.6875
vt 0.75 0.6875
vt 0.96875 0.59375
vt 1 0.59375
vt 1 0.484375
vt 0.96875 0.484375
vt 0.734375 0.71875
vt 0.75 0.71875
vt 0.75 0.609375
vt 0.734375 0.609375
vt 1 0.4375
vt 0.984375 0.4375
vt 0.984375 0.3125
vt 1 0.3125
vt 0.015625 0.625
vt 0 0.625
vt 0 0.5
vt 0.015625 0.5
vt 0.1875 0.96875
vt 0.4375 0.96875
vt 0.4375 0.984375
vt 0.1875 0.984375
vt 1 0.4375
vt 0.984375 0.4375
vt 0.984375 0.3125
vt 1 0.3125
vt 0.015625 0.5
vt 0 0.5
vt 0 0.375
vt 0.015625 0.375
vt 0.390625 0.984375
vt 0.640625 0.984375
vt 0.640625 1
vt 0.390625 1
vt 0.203125 0.984375
vt 0.453125 0.984375
vt 0.453125 1
vt 0.203125 1
vt 0.109375 0.984375
vt 0.359375 0.984375
vt 0.359375 1
vt 0.109375 1
vt 1 0.03125
vt 0.75 0.03125
vt 0.75 0
vt 1 0
vt 0.015625 0.953125
vt 0.015625 1
vt 0 1
vt 0 0.953125
vt 0.0625 0.6875
vt 0.0625 0.734375
vt 0.046875 0.734375
vt 0.046875 0.6875
vt 0.0625 0.6875
vt 0.0625 0.734375
vt 0 0.734375
vt 0 0.6875
vt 0.390625 0.484375
vt 0.390625 0.609375
vt 0.375 0.609375
vt 0.375 0.484375
vt 0.5 0.484375
vt 0.5 0.609375
vt 0.484375 0.609375
vt 0.484375 0.484375
vt 0.375 0.59375
vt 0.375 0.609375
vt 0.5 0.609375
vt 0.5 0.59375
vt 0.375 0.484375
vt 0.375 0.5
vt 0.5 0.5
vt 0.5 0.484375
vt 0.5 0.484375
vt 0.5 0.609375
vt 0.375 0.609375
vt 0.375 0.484375
vt 0.125 0.59375
vt 0.125 0.6015625
vt 0 0.6015625
vt 0 0.59375
vt 0.09375 0.875
vt 0.09375 1
vt 0 1
vt 0 0.875
vt 0.09375 0.875
vt 0.09375 1
vt 0 1
vt 0 0.875
vt 0.125 0.59375
vt 0.125 0.6015625
vt 0 0.6015625
vt 0 0.59375
vt 0.09375 0.875
vt 0.09375 1
vt 0 1
vt 0 0.875
vt 0.09375 0.875
vt 0.09375 1
vt 0 1
vt 0 0.875
vt 0.3125 0.9609375
vt 0.3125 0.96875
vt 0.1875 0.96875
vt 0.1875 0.9609375
vt 0.3125 0.890625
vt 0.1875 0.890625
vt 0.1875 0.8828125
vt 0.3125 0.8828125
vt 0.3125 0.8828125
vt 0.1875 0.8828125
vt 0.1875 0.875
vt 0.3125 0.875
vt 0.3046875 0.890625
vt 0.3046875 0.8984375
vt 0.296875 0.8984375
vt 0.296875 0.890625
vt 0.296875 0.890625
vt 0.296875 0.8984375
vt 0.2890625 0.8984375
vt 0.2890625 0.890625
vt 0.3125 0.875
vt 0.3125 0.96875
vt 0.1875 0.96875
vt 0.1875 0.875
vt 0.3125 0.875
vt 0.3125 0.96875
vt 0.1875 0.96875
vt 0.1875 0.875
vt 0.3125 0.96875
vt 0.1875 0.96875
vt 0.1875 0.953125
vt 0.3125 0.953125
vt 0.3125 0.890625
vt 0.1875 0.890625
vt 0.1875 0.875
vt 0.3125 0.875
vt 0.3125 0.875
vt 0.3125 0.96875
vt 0.296875 0.96875
vt 0.296875 0.875
vt 0.203125 0.875
vt 0.203125 0.96875
vt 0.1875 0.96875
vt 0.1875 0.875
vt 1 0.875
vt 1 1
vt 0.875 1
vt 0.875 0.875
vt 1 0.890625
vt 0.875 0.890625
vt 0.875 0.875
vt 1 0.875
vt 1 0.984375
vt 0.875 0.984375
vt 0.875 1
vt 1 1
vt 0.984375 0.875
vt 0.984375 1
vt 1 1
vt 1 0.875
vt 0.890625 0.875
vt 0.890625 1
vt 0.875 1
vt 0.875 0.875
vt 0.5 0.65625
vt 0.75 0.65625
vt 0.75 0.625
vt 0.5 0.625
vt 0.84375 0
vt 0.84375 0.015625
vt 0.828125 0.015625
vt 0.828125 0
vt 0.671875 0
vt 0.671875 0.015625
vt 0.65625 0.015625
vt 0.65625 0
vt 0.828125 0
vt 0.828125 0.015625
vt 0.671875 0.015625
vt 0.671875 0
vt 0.984375 0
vt 0.984375 0.015625
vt 0.828125 0.015625
vt 0.828125 0
vt 0.671875 0.25
vt 0.671875 0.265625
vt 0.515625 0.265625
vt 0.515625 0.25
vt 0.84375 0
vt 0.84375 0.015625
vt 0.828125 0.015625
vt 0.828125 0
vt 0.671875 0
vt 0.671875 0.015625
vt 0.65625 0.015625
vt 0.65625 0
vt 0.828125 0
vt 0.828125 0.015625
vt 0.671875 0.015625
vt 0.671875 0
vt 1 0.25
vt 1 0.265625
vt 0.84375 0.265625
vt 0.84375 0.25
vt 0.515625 0
vt 0.515625 0.015625
vt 0.359375 0.015625
vt 0.359375 0
vt 1 0.15625
vt 1 0.28125
vt 0.984375 0.28125
vt 0.984375 0.15625
vt 1 0.34375
vt 1 0.46875
vt 0.984375 0.46875
vt 0.984375 0.34375
vt 1 0.453125
vt 1 0.578125
vt 0.984375 0.578125
vt 0.984375 0.453125
vt 1 0.203125
vt 1 0.328125
vt 0.984375 0.328125
vt 0.984375 0.203125
vt 1 0.28125
vt 1 0.40625
vt 0.984375 0.40625
vt 0.984375 0.28125
vt 1 0.515625
vt 1 0.640625
vt 0.984375 0.640625
vt 0.984375 0.515625
vt 0.5 0.109375
vt 0.75 0.109375
vt 0.75 0
vt 0.5 0
vt 0.75 0
vt 0.75 0.109375
vt 0.5 0.109375
vt 0.5 0
vt 0 1
vt 0.015625 1
vt 0.015625 0.90625
vt 0 0.90625
vt 0.015625 0.90625
vt 0.015625 1
vt 0 1
vt 0 0.90625
vt 0 1
vt 0.015625 1
vt 0.015625 0.90625
vt 0 0.90625
vt 0.015625 0.90625
vt 0.015625 1
vt 0 1
vt 0 0.90625
vt 0.4453125 0.140625
vt 0.3828125 0.140625
vt 0.3828125 0.1328125
vt 0.4453125 0.1328125
vt 0.4453125 0.1953125
vt 0.3828125 0.1953125
vt 0.3828125 0.1875
vt 0.4453125 0.1875
vt 0.4375 0.1953125
vt 0.4375 0.1328125
vt 0.4453125 0.1328125
vt 0.4453125 0.1953125
vt 0.3828125 0.1328125
vt 0.3828125 0.1953125
vt 0.390625 0.1953125
vt 0.390625 0.1328125
vt 0.3828125 0.1328125
vt 0.4453125 0.1328125
vt 0.4453125 0.1953125
vt 0.3828125 0.1953125
vt 0.4453125 0.140625
vt 0.3828125 0.140625
vt 0.3828125 0.1328125
vt 0.4453125 0.1328125
vt 0.4453125 0.1953125
vt 0.3828125 0.1953125
vt 0.3828125 0.1875
vt 0.4453125 0.1875
vt 0.4375 0.1953125
vt 0.4375 0.1328125
vt 0.4453125 0.1328125
vt 0.4453125 0.1953125
vt 0.3828125 0.1328125
vt 0.3828125 0.1953125
vt 0.390625 0.1953125
vt 0.390625 0.1328125
vt 0.3828125 0.1328125
vt 0.4453125 0.1328125
vt 0.4453125 0.1953125
vt 0.3828125 0.1953125
vt 0.4453125 0.140625
vt 0.3828125 0.140625
vt 0.3828125 0.1328125
vt 0.4453125 0.1328125
vt 0.4453125 0.1953125
vt 0.3828125 0.1953125
vt 0.3828125 0.1875
vt 0.4453125 0.1875
vt 0.4375 0.1953125
vt 0.4375 0.1328125
vt 0.4453125 0.1328125
vt 0.4453125 0.1953125
vt 0.3828125 0.1328125
vt 0.3828125 0.1953125
vt 0.390625 0.1953125
vt 0.390625 0.1328125
vt 0.3828125 0.1328125
vt 0.4453125 0.1328125
vt 0.4453125 0.1953125
vt 0.3828125 0.1953125
vt 0.75 0.59375
vt 0.625 0.59375
vt 0.625 1
vt 0.75 1
vt 0.5 0.640625
vt 0 0.640625
vt 0 0.75
vt 0.5 0.75
vt 0 0.25
vt 0.125 0.25
vt 0.125 0.34375
vt 0 0.34375
vt 0.5 1
vt 0.625 1
vt 0.625 0.59375
vt 0.5 0.59375
vt 0.75 0.640625
vt 0.5 0.640625
vt 0.5 0.75
vt 0.75 0.75
vt 0 0.34375
vt 0.125 0.34375
vt 0.125 0.25
vt 0 0.25
vt 0.5 0.65625
vt 0.40625 0.65625
vt 0.40625 0.625
vt 0.5 0.625
vt 0.75 0.34375
vt 0.625 0.34375
vt 0.625 0.25
vt 0.75 0.25
vt 0.75 1
vt 0.625 1
vt 0.625 0.59375
vt 0.75 0.59375
vt 0.75 0.65625
vt 0.5 0.65625
vt 0.5 0.625
vt 0.75 0.625
vt 1 0.015625
vt 1 0.25
vt 0.75 0.25
vt 0.75 0.015625
vt 1 0.015625
vt 1 0.25
vt 0.75 0.25
vt 0.75 0.015625
vt 0.0625 0.75
vt 0.0625 1
vt 0 1
vt 0 0.75
vt 0.25 0.984375
vt 0.25 1
vt 0 1
vt 0 0.984375
vt 0.25 0.984375
vt 0.25 1
vt 0 1
vt 0 0.984375
vt 0.75 0.375
vt 0.75 0.625
vt 0.65625 0.625
vt 0.65625 0.375
vt 0.75 0.75
vt 0.75 0.78125
vt 0.65625 0.78125
vt 0.65625 0.75
vt 0.546875 0.984375
vt 0.640625 0.984375
vt 0.640625 1
vt 0.546875 1
vt 0.5 1
vt 0.25 1
vt 0.25 0.984375
vt 0.5 0.984375
vt 0.75 0.75
vt 0.65625 0.75
vt 0.65625 0.5
vt 0.75 0.5
vt 0.5625 0.5
vt 0.5625 0.75
vt 0.5 0.75
vt 0.5 0.5
vt 0.640625 0.984375
vt 0.703125 0.984375
vt 0.703125 1
vt 0.640625 1
vt 0.65625 0.78125
vt 0.59375 0.78125
vt 0.59375 0.75
vt 0.65625 0.75
vt 0 0.984375
vt 0.21875 0.984375
vt 0.21875 1
vt 0 1
vt 0.65625 1
vt 0.65625 0.78125
vt 0.75 0.78125
vt 0.75 1
vt 0.65625 1
vt 0.59375 1
vt 0.59375 0.78125
vt 0.65625 0.78125
vt 0.5 1
vt 0.5 0.78125
vt 0.5625 0.78125
vt 0.5625 1
vt 0.3984375 0.1640625
vt 0.4140625 0.1640625
vt 0.4140625 0.1484375
vt 0.3984375 0.1484375
vt 0.09375 1
vt 0 1
vt 0 0.75
vt 0.09375 0.75
vt 0.734375 1
vt 0.703125 1
vt 0.703125 0.984375
vt 0.734375 0.984375
vt 0.65625 0.75
vt 0.5625 0.75
vt 0.5625 0.5
vt 0.65625 0.5
vt 0.5625 0.75
vt 0.59375 0.75
vt 0.59375 0.78125
vt 0.5625 0.78125
vt 0.5625 0.78125
vt 0.59375 0.78125
vt 0.59375 1
vt 0.5625 1
vt 0.921875 1
vt 0.671875 1
vt 0.671875 0.984375
vt 0.921875 0.984375
vt 0.671875 1
vt 0.734375 1
vt 0.734375 0.984375
vt 0.671875 0.984375
vt 0.5 0.5
vt 0.5 0.9375
vt 0.5625 0.9375
vt 0.5625 0.5
vt 0.796875 0.984375
vt 0.734375 0.984375
vt 0.734375 1
vt 0.796875 1
vt 0 0.3125
vt 0.09375 0.3125
vt 0.09375 0.25
vt 0 0.25
vt 0 1
vt 0.0625 1
vt 0.0625 0.984375
vt 0 0.984375
vt 0.5625 1
vt 0.65625 1
vt 0.65625 0.9375
vt 0.5625 0.9375
vt 0.5625 1
vt 0.5625 0.9375
vt 0.5 0.9375
vt 0.5 1
vt 0.078125 0.25
vt 0.078125 0.3125
vt 0.015625 0.3125
vt 0.015625 0.25
vt 0.75 0.5625
vt 0.65625 0.5625
vt 0.65625 1
vt 0.75 1
vt 0.546875 1
vt 0.640625 1
vt 0.640625 0.984375
vt 0.546875 0.984375
vt 0.75 0.5
vt 0.65625 0.5
vt 0.65625 0.9375
vt 0.75 0.9375
vt 0.75 0.9375
vt 0.65625 0.9375
vt 0.65625 1
vt 0.75 1
vt 0.921875 0.984375
vt 0.828125 0.984375
vt 0.828125 1
vt 0.921875 1
vt 0.75 0.25
vt 0.65625 0.25
vt 0.65625 0.3125
vt 0.75 0.3125
vt 0.25 0.5625
vt 0.25 0.6875
vt 0 0.6875
vt 0 0.5625
vt 0 0.75
vt 0 0.6875
vt 0.25 0.6875
vt 0.25 0.75
vt 0.25 0.6875
vt 0.25 0.5625
vt 0 0.5625
vt 0 0.6875
vt 0 0.5
vt 0 0.5625
vt 0.25 0.5625
vt 0.25 0.5
vt 0.75 0.75
vt 0.75 0.625
vt 0.5 0.625
vt 0.5 0.75
vt 0 1
vt 0 0.6875
vt 0.25 0.6875
vt 0.25 1
vt 0.25 0.5
vt 0.25 0.5625
vt 0 0.5625
vt 0 0.5
vt 0.75 0.625
vt 0.75 0.75
vt 0.5 0.75
vt 0.5 0.625
vt 0.5 0.484375
vt 0.5 0.609375
vt 0.375 0.609375
vt 0.375 0.484375
vt 0.390625 0.484375
vt 0.390625 0.609375
vt 0.375 0.609375
vt 0.375 0.484375
vt 0.484375 0.609375
vt 0.484375 0.484375
vt 0.5 0.484375
vt 0.5 0.609375
vt 0.5 0.484375
vt 0.5 0.609375
vt 0.484375 0.609375
vt 0.484375 0.484375
vt 0.390625 0.484375
vt 0.390625 0.609375
vt 0.375 0.609375
vt 0.375 0.484375
vt 0.5 0.484375
vt 0.5 0.609375
vt 0.375 0.609375
vt 0.375 0.484375
vt 0.390625 0.484375
vt 0.390625 0.609375
vt 0.375 0.609375
vt 0.375 0.484375
vt 0.484375 0.609375
vt 0.484375 0.484375
vt 0.5 0.484375
vt 0.5 0.609375
vt 0.5 0.484375
vt 0.5 0.609375
vt 0.484375 0.609375
vt 0.484375 0.484375
vt 0.390625 0.484375
vt 0.390625 0.609375
vt 0.375 0.609375
vt 0.375 0.484375
vt 0.5 0.484375
vt 0.5 0.609375
vt 0.375 0.609375
vt 0.375 0.484375
vt 0.390625 0.484375
vt 0.390625 0.609375
vt 0.375 0.609375
vt 0.375 0.484375
vt 0.484375 0.609375
vt 0.484375 0.484375
vt 0.5 0.484375
vt 0.5 0.609375
vt 0.5 0.484375
vt 0.5 0.609375
vt 0.484375 0.609375
vt 0.484375 0.484375
vt 0.390625 0.484375
vt 0.390625 0.609375
vt 0.375 0.609375
vt 0.375 0.484375
vt 0.4375 0.734375
vt 0.4375 0.6875
vt 0.5 0.6875
vt 0.5 0.734375
vt 0.484375 0.734375
vt 0.484375 0.6875
vt 0.5 0.6875
vt 0.5 0.734375
vt 0.453125 0.734375
vt 0.453125 0.6875
vt 0.4375 0.6875
vt 0.4375 0.734375
vt 0 0.734375
vt 0 0.6875
vt 0.0625 0.6875
vt 0.0625 0.734375
vt 0.421875 0.734375
vt 0.421875 0.6875
vt 0.4375 0.6875
vt 0.4375 0.734375
vt 0.390625 0.734375
vt 0.390625 0.6875
vt 0.375 0.6875
vt 0.375 0.734375
vt 0.3125 0.734375
vt 0.3125 0.6875
vt 0.375 0.6875
vt 0.375 0.734375
vt 0.359375 0.734375
vt 0.359375 0.6875
vt 0.375 0.6875
vt 0.375 0.734375
vt 0.328125 0.734375
vt 0.328125 0.6875
vt 0.3125 0.6875
vt 0.3125 0.734375
vt 0.75 0
vt 0.75 0.25
vt 0.5 0.25
vt 0.5 0
vt 0.75 0
vt 0.75 0.25
vt 0.5 0.25
vt 0.5 0
vt 0.4765625 0.7421875
vt 0.4765625 0.8671875
vt 0.3515625 0.8671875
vt 0.3515625 0.7421875
vt 0.75 0
vt 0.75 0.25
vt 0.5 0.25
vt 0.5 0
vt 0.75 0.25
vt 0.75 0.5
vt 0.59375 0.5
vt 0.59375 0.25
vt 0.75 1
vt 0.65625 1
vt 0.65625 0.75
vt 0.75 0.75
vt 0 1
vt 0 0.96875
vt 0.0625 0.96875
vt 0.0625 1
vt 0.09375 0.25
vt 0.09375 0.46875
vt 0 0.46875
vt 0 0.25
vt 0.75 0.75
vt 0.75 0.734375
vt 0.5 0.734375
vt 0.5 0.75
vt 0.75 0.75
vt 0.75 0.734375
vt 0.5 0.734375
vt 0.5 0.75
vt 0.5 0.75
vt 0.5 0.734375
vt 0 0.734375
vt 0 0.75
vt 0.5 0.75
vt 0.5 0.734375
vt 0 0.734375
vt 0 0.75
vt 0.75 0.75
vt 0.75 0.734375
vt 0.5 0.734375
vt 0.5 0.75
vt 0.75 0.75
vt 0.75 0.734375
vt 0.5 0.734375
vt 0.5 0.75
vt 0.75 0.234375
vt 1 0.234375
vt 1 0
vt 0.75 0
vt 0.1875 0.890625
vt 0.1875 1
vt 0 1
vt 0 0.890625
vt 0.75 0.890625
vt 0.75 1
vt 0.5625 1
vt 0.5625 0.890625
vt 0 1
vt 0.1875 1
vt 0.1875 0.890625
vt 0 0.890625
vt 0.5625 1
vt 0.75 1
vt 0.75 0.890625
vt 0.5625 0.890625
vt 0.5 0.625
vt 0.75 0.625
vt 0.75 0.75
vt 0.5 0.75
vt 0.75 0.75
vt 0.75 0.734375
vt 0.5 0.734375
vt 0.5 0.75
vt 0 1
vt 0.1875 1
vt 0.1875 0.890625
vt 0 0.890625
vt 0.71875 0.796875
vt 0.75 0.796875
vt 0.75 0.6875
vt 0.71875 0.6875
vt 0.96875 0.59375
vt 1 0.59375
vt 1 0.484375
vt 0.96875 0.484375
vt 0.75 0.75
vt 0.75 0.625
vt 0.5 0.625
vt 0.5 0.75
vt 0.5 0.734375
vt 0.75 0.734375
vt 0.75 0.75
vt 0.5 0.75
vt 0.1875 0.890625
vt 0.1875 1
vt 0 1
vt 0 0.890625
vt 0.75 0.6875
vt 0.75 0.796875
vt 0.71875 0.796875
vt 0.71875 0.6875
vt 1 0.484375
vt 1 0.59375
vt 0.96875 0.59375
vt 0.96875 0.484375
vt 0.75 0
vt 1 0
vt 1 0.234375
vt 0.75 0.234375
vt 0.75 0.015625
vt 1 0.015625
vt 1 0.03125
vt 0.75 0.03125
vt 1 0.234375
vt 0.984375 0.234375
vt 0.984375 0
vt 1 0
vt 0.765625 0.234375
vt 0.75 0.234375
vt 0.75 0
vt 0.765625 0
vt 0.75 0
vt 1 0
vt 1 0.03125
vt 0.75 0.03125
vt 1 0.234375
vt 0.75 0.234375
vt 0.75 0
vt 1 0
vt 1 0.234375
vt 0.75 0.234375
vt 0.75 0
vt 1 0
vt 0.75 0
vt 1 0
vt 1 0.03125
vt 0.75 0.03125
vt 0.75 0
vt 1 0
vt 1 0.03125
vt 0.75 0.03125
vt 0.75 0.015625
vt 1 0.015625
vt 1 0.03125
vt 0.75 0.03125
vt 0.75 0.015625
vt 1 0.015625
vt 1 0.03125
vt 0.75 0.03125
vt 0.75 0.25
vt 0.75 0.453125
vt 0.453125 0.453125
vt 0.453125 0.25
vt 0.75 0.78125
vt 0.75 1
vt 0.453125 1
vt 0.453125 0.78125
vt 0.203125 0.875
vt 0.203125 1
vt 0 1
vt 0 0.875
vt 0.75 0
vt 0.75 0.109375
vt 0.5 0.109375
vt 0.5 0
vt 0.125 0.59375
vt 0.125 0.6484375
vt 0 0.6484375
vt 0 0.59375
vt 0.078125 0.8046875
vt 0.078125 0.8671875
vt 0.0703125 0.8671875
vt 0.0703125 0.8046875
vt 0.015625 0.8046875
vt 0.015625 0.8671875
vt 0.0078125 0.8671875
vt 0.0078125 0.8046875
vt 0.078125 0.859375
vt 0.078125 0.8671875
vt 0.0078125 0.8671875
vt 0.0078125 0.859375
vt 0.078125 0.8046875
vt 0.078125 0.8125
vt 0.0078125 0.8125
vt 0.0078125 0.8046875
vt 0.078125 0.8046875
vt 0.078125 0.8671875
vt 0.0078125 0.8671875
vt 0.0078125 0.8046875
vt 0.40625 0.65625
vt 0.5 0.65625
vt 0.5 0.75
vt 0.40625 0.75
vt 0 0.65625
vt 0.40625 0.65625
vt 0.40625 0.75
vt 0 0.75
vt 0.5 0.65625
vt 0.75 0.65625
vt 0.75 0.75
vt 0.5 0.75
vt 0.75 0.640625
vt 0.5 0.640625
vt 0.5 0.625
vt 0.75 0.625
vt 0 0.640625
vt 0.5 0.640625
vt 0.5 0.625
vt 0 0.625
vt 0.5 0.640625
vt 0.75 0.640625
vt 0.75 0.625
vt 0.5 0.625
vt 0.09375 0.8984375
vt 0 0.8984375
vt 0 1
vt 0.09375 1
vt 0.09375 1
vt 0.09375 0.8984375
vt 0 0.8984375
vt 0 1
vt 0.5 0
vt 0.5 0.109375
vt 0.75 0.109375
vt 0.75 0
vn 0 1 0
vn 1 0 0
vn -1 0 0
vn 0 1 0
vn 1 0 0
vn -1 0 0
vn 0 0 -1
vn 0 0 1
vn 0 1 0
vn 1 0 0
vn -1 0 0
vn 0 0 -1
vn 0 0 1
vn 0 1 0
vn 1 0 0
vn -1 0 0
vn 0 0 -1
vn 0 0 1
vn 0 1 0
vn 1 0 0
vn -1 0 0
vn 0 0 -1
vn 0 0 1
vn 0 1 0
vn 1 0 0
vn -1 0 0
vn 0 -1 0
vn 0 -1 0
vn 0 0 -1
vn 0 -1 0
vn 0 -1 0
vn 0 -1 0
vn 0 -1 0
vn 0 -1 0
vn 0 -1 0
vn 0 0 -1
vn 0 0 -1
vn 0 0 -1
vn 0 0 1
vn 0 -1 0
vn 1 0 0
vn 0 1 0
vn 0 -1 0
vn 1 0 0
vn 0 0 -1
vn 0 0 1
vn 1 0 0
vn 0 0 -1
vn 0 0 1
vn 0 1 0
vn 0 -1 0
vn 1 0 0
vn 0 0 -1
vn 0 0 1
vn 0 1 0
vn 1 0 0
vn 0 0 -1
vn 0 0 1
vn 1 0 0
vn -1 0 0
vn 0 0 -1
vn 0 0 1
vn 1 0 0
vn -1 0 0
vn 0 0 -1
vn 0 0 1
vn 1 0 0
vn -1 0 0
vn 0 0 -1
vn 0 0 1
vn 1 0 0
vn 0 0 -1
vn 0 0 1
vn -1 0 0
vn 0 0 -1
vn 0 0 1
vn -1 0 0
vn 1 0 0
vn 0 0 -1
vn 0 0 1
vn -1 0 0
vn 1 0 0
vn 0 0 -1
vn 0 0 1
vn 1 0 0
vn -1 0 0
vn 0 0 1
vn 0 -1 0
vn -1 0 0
vn 0 0 -1
vn 0 0 1
vn 0 1 0
vn 1 0 0
vn 0 0 -1
vn 0 0 1
vn 0 1 0
vn 0.7071067811865476 0.7071067811865476 0
vn 0 0 -1
vn 0 0 1
vn 1 0 0
vn 0 0 -1
vn 0 0 1
vn 1 0 0
vn 0 0 -1
vn 0 0 1
vn 0 1 0
vn 0.7071067811865476 0.7071067811865476 0
vn 0 0 -1
vn 0 0 1
vn 1 0 0
vn -1 0 0
vn 0 0 -1
vn 0 0 1
vn 1 0 0
vn -1 0 0
vn 0 0 -1
vn 0 0 1
vn 1 0 0
vn -1 0 0
vn 0 0 -1
vn 0 0 1
vn 1 0 0
vn -1 0 0
vn 0 0 -1
vn 0 0 1
vn 1 0 0
vn -1 0 0
vn 0 0 -1
vn 0 0 1
vn 1 0 0
vn -1 0 0
vn 0 0 -1
vn 0 0 1
vn -0.4270065107891928 0.9042485497603184 0
vn -1 0 0
vn 0 0 -1
vn 0 0 1
vn 0 1 0
vn 0 -1 0
vn 0 0 -1
vn 0 0 1
vn -0.4270065107891928 0.9042485497603184 0
vn -1 0 0
vn 0 0 -1
vn 0 0 1
vn 0 1 0
vn 0 -1 0
vn 0 0 -1
vn 0 0 1
vn 0 1 0
vn 1 0 0
vn -1 0 0
vn 0 0 -1
vn 0 0 1
vn 0 1 0
vn 1 0 0
vn -1 0 0
vn 0 0 -1
vn -1 0 0
vn 0 1 0
vn 0 0 -1
vn 0 0 1
vn 0 1 0
vn 0 -1 0
vn -1 0 0
vn 0 0 -1
vn 0 0 1
vn 0 1 0
vn 1 0 0
vn -1 0 0
vn 0 1 0
vn 0 -1 0
vn -1 0 0
vn 1 0 0
vn 0 -1 0
vn 1 0 0
vn -1 0 0
vn 0 0 -1
vn 0 -1 0
vn -1 0 0
vn 0 0 -1
vn 0 1 0
vn 0 -1 0
vn -1 0 0
vn 1 0 0
vn -0.19080910113898986 0 -0.9816271628895213
vn 0.19080925722522535 0 0.9816271325494003
vn 0 1 0
vn 0 -1 0
vn 0.981627318975328 0 -0.19080829814583503
vn -0.9816271628895213 0 0.19080910113898986
vn 0.1391728910275903 0 -0.9902680982456331
vn -0.1391728910275903 0 0.9902680982456331
vn 0 1 0
vn 0 -1 0
vn 0.9902680813242842 0 0.13917301142937533
vn -0.9902680813242842 0 -0.13917301142937524
vn 0 0 1
vn 0 -1 0
vn 1 0 0
vn 0 0 1
vn 1 0 0
vn 0 0 -1
vn 0 0 1
vn 1 0 0
vn 0 0 -1
vn 0 0 1
vn -1 0 0
vn 0 0 -1
vn 0 0 1
vn -1 0 0
vn 1 0 0
vn 1 0 0
vn 0 0 -1
vn 0 1 0
vn 1 0 0
vn -1 0 0
vn 0 0 -1
vn 0 0 1
vn 0 1 0
vn 0 -1 0
vn 1 0 0
vn -1 0 0
vn 0 0 -1
vn 0 0 1
vn 0 1 0
vn 0 -1 0
vn 1 0 0
vn -1 0 0
vn 0 0 -1
vn 0 0 1
vn 0 1 0
vn 0 0 -1
vn 0 0 1
vn 0 1 0
vn 1 0 0
vn 0 0 -1
vn 0 0 1
vn 0 1 0
vn 0 -1 0
vn 1 0 0
vn -1 0 0
vn 0 0 1
vn 0 1 0
vn 1 0 0
vn 0 0.7071067811865476 -0.7071067811865476
vn 0 0.7071067811865476 0.7071067811865476
vn 0 1 0
vn 0.7071067811865476 0.7071067811865476 0
vn -0.7071067811865476 0.7071067811865476 0
vn 0 0 -1
vn 0 0 1
vn 1 0 0
vn -1 0 0
vn 0 0.7071067811865476 -0.7071067811865476
vn 0 0.7071067811865476 0.7071067811865476
vn 0 1 0
vn 0.7071067811865476 0.7071067811865476 0
vn -0.7071067811865476 0.7071067811865476 0
vn 0 0 1
vn 1 0 0
vn -1 0 0
vn 0 0 -1
vn 0 1 0
vn 1 0 0
vn -0.8944271909999161 0.44721359549995804 0
vn 0 -1 0
vn 1 0 0
vn -0.8944271909999161 -0.44721359549995804 0
vn 0 0 -1
vn 0 1 0
vn 0 -1 0
vn 1 0 0
vn -0.9922778767136677 -0.12403473458920847 0
vn 0 0 -1
vn 0 0 1
vn 1 0 0
vn -1 0 0
vn 0 0 -1
vn 0 -1 0
vn 0 1 0
vn 1 0 0
vn -0.9922778767136677 0.12403473458920847 0
vn 0 0 -1
vn 1 0 0
vn -1 0 0
vn 0 0 -1
vn 0 0 1
vn -1 0 0
vn 1 0 0
vn 0 0 -1
vn 0 0 1
vn -1 0 0
vn 1 0 0
vn 0 0 -1
vn 0 0 1
vn 0 -1 0
vn 0 0 -1
vn 0 0 1
vn 0 1 0
vn 0 1 0
vn 0 -1 0
vn -1 0 0
vn 0 0 -1
vn 0 0 1
vn -1 0 0
vn 0 0 -1
vn 0 0 1
vn 0 1 0
vn 0 -1 0
vn -1 0 0
vn 0 0 -1
vn 0 1 0
vn 0 -1 0
vn 0 0 -1
vn 0 1 0
vn 0 -1 0
vn 0 0.9659258671501301 -0.2588188926069142
vn 0 0.2588188926069142 0.9659258671501301
vn 0 -0.2544832841716407 -0.9670771727619344
vn 1 0 0
vn -1 0 0
vn 0 0.9655573311332963 -0.260190392395158
vn 0 -0.965925796369903 0.2588191567623405
vn 0 0.25882014260670305 0.9659255322130409
vn 0 -0.2566703535290013 -0.9664990065278378
vn 1 0 0
vn -1 0 0
vn 0 0 -1
vn 0 1 0
vn 0 -1 0
vn 1 0 0
vn -1 0 0
vn -1 0 0
vn 0 0 -1
vn 0 0 1
vn 0 1 0
vn 0 -1 0
vn -1 0 0
vn 0 0 -1
vn 0 0 1
vn 0 1 0
vn 0 -1 0
vn -1 0 0
vn 0 0 -1
vn 0 0 1
vn -1 0 0
vn 0 0 -1
vn 0 0 1
vn -1 0 0
vn 1 0 0
vn -1 0 0
vn 0 0 1
vn 0 0 -1
vn 0 0 1
vn 0 0 -1
vn -1 0 0
vn 1 0 0
vn 0 0 1
vn 0 0 -1
vn 0 1 0
vn -1 0 0
vn 1 0 0
vn 0 0 1
vn 0 0 -1
vn 0 1 0
vn -1 0 0
vn 1 0 0
vn 0 0 1
vn 0 0 -1
vn 0 1 0
vn 0 -1 0
vn 0 0 -1
vn 0 -1 0
vn 0 -1 0
vn -1 0 0
vn 0 -1 0
vn 0 0 -1
vn 0 -1 0
vn 0 -1 0
vn 1 0 0
vn 0 0 -1
vn 0 0 1
vn 0 1 0
vn 0 0 -1
vn 0 0 1
vn 0 -1 0
vn 0 -1 0
vn -1 0 0
vn 0 0 -1
vn 0 -1 0
vn 0 -1 0
vn -1 0 0
vn 0 -1 0
vn 0 0 -1
vn 0 -1 0
vn 0 -1 0
vn 0 -1 0
vn 0 1 0
vn 0 1 0
vn -1 0 0
vn 0 -1 0
vn 0 -1 0
vn 0 -1 0
vn 1 0 0
vn -1 0 0
vn 0 -1 0
vn 1 0 0
vn 0 1 0
vn 0 0 -1
vn 0 -1 0
vn 0 -1 0
vn 0 1 0
vn 0 1 0
vn 1 0 0
vn 0 -1 0
vn 0 -1 0
vn -1 0 0
vn 0 1 0
vn 0 -1 0
vn 0 -1 0
vn 0 -1 0
vn 0 -1 0
vn -1 0 0
vn 0 -1 0
vn 0 -1 0
vn 1 0 0
vn 0 0 1
vn 0 1 0
vn 0 -1 0
vn 1 0 0
vn -1 0 0
vn 0 0 1
vn 0 1 0
vn 0 -1 0
vn 1 0 0
vn -1 0 0
vn 0 0 1
vn 0 1 0
vn 0 -1 0
vn 1 0 0
vn -1 0 0
vn 0 0 1
vn 1 0 0
vn -1 0 0
vn 0 0 1
vn 1 0 0
vn -1 0 0
vn 0 0 1
vn 1 0 0
vn -1 0 0
vn 0 0 -1
vn 0 1 0
vn 1 0 0
vn 0 0 1
vn 0 1 0
vn 0 1 0
vn 0 1 0
vn 0 1 0
vn 0 1 0
vn 0 1 0
vn 0 1 0
vn 0 1 0
vn 0 1 0
vn 0 1 0
vn -1 0 0
vn -1 0 0
vn -1 0 0
vn 1 0 0
vn 1 0 0
vn 0 0 1
vn 0 1 0
vn 0 0 1
vn 1 0 0
vn 0 0 1
vn 0 0 1
vn 0 1 0
vn 0 0 1
vn -1 0 0
vn 0 0 1
vn 0 0 1
vn 0 1 0
vn -0.9999653073554531 0 0.008329711010271761
vn 0.999965153173981 0.0005553139817292808 0.008329709725939211
vn 0 0 1
vn 0 0 1
vn 0 0 1
vn 0 0 1
vn 0 0 1
vn 0 1 0
vn 0 1 0
vn 0 1 0
vn 0 1 0
vn 0 1 0
vn 1 0 0
vn 0 0 1
vn 0 0 -1
vn 0 0 1
vn 0 1 0
vn 0 -1 0
vn 1 0 0
vn 0 0 -1
vn 0 0 -1
vn 1 0 0
vn 1 0 0
vn 0 0 -1
vn -1 0 0
vn 1 0 0
vn -1 0 0
vn 0 0 -1
usemtl common_steel_norivets
f 2/1/1 3/2/1 7/3/1
f 2/1/1 7/3/1 6/4/1
f 4/5/2 2/6/2 6/7/2
f 4/5/2 6/7/2 8/8/2
f 9/9/3 7/10/3 3/11/3
f 9/9/3 3/11/3 5/12/3
f 10/13/4 11/14/4 15/15/4
f 10/13/4 15/15/4 14/16/4
f 12/17/5 10/18/5 14/19/5
f 12/17/5 14/19/5 16/20/5
f 17/21/6 15/22/6 11/23/6
f 17/21/6 11/23/6 13/24/6
f 21/25/7 19/26/7 18/27/7
f 21/25/7 18/27/7 20/28/7
f 24/29/8 22/30/8 23/31/8
f 24/29/8 23/31/8 25/32/8
f 18/33/9 19/34/9 23/35/9
f 18/33/9 23/35/9 22/36/9
f 20/37/10 18/38/10 22/39/10
f 20/37/10 22/39/10 24/40/10
f 25/41/11 23/42/11 19/43/11
f 25/41/11 19/43/11 21/44/11
f 29/45/12 27/46/12 26/47/12
f 29/45/12 26/47/12 28/48/12
f 32/49/13 30/50/13 31/51/13
f 32/49/13 31/51/13 33/52/13
f 26/53/14 27/54/14 31/55/14
f 26/53/14 31/55/14 30/56/14
f 28/57/15 26/58/15 30/59/15
f 28/57/15 30/59/15 32/60/15
f 33/61/16 31/62/16 27/63/16
f 33/61/16 27/63/16 29/64/16
f 37/65/17 35/66/17 34/67/17
f 37/65/17 34/67/17 36/68/17
f 40/69/18 38/70/18 39/71/18
f 40/69/18 39/71/18 41/72/18
f 34/73/19 35/74/19 39/75/19
f 34/73/19 39/75/19 38/76/19
f 36/77/20 34/78/20 38/79/20
f 36/77/20 38/79/20 40/80/20
f 41/81/21 39/82/21 35/83/21
f 41/81/21 35/83/21 37/84/21
f 45/85/22 43/86/22 42/87/22
f 45/85/22 42/87/22 44/88/22
f 48/89/23 46/90/23 47/91/23
f 48/89/23 47/91/23 49/92/23
f 42/93/24 43/94/24 47/95/24
f 42/93/24 47/95/24 46/96/24
f 44/97/25 42/98/25 46/99/25
f 44/97/25 46/99/25 48/100/25
f 49/101/26 47/102/26 43/103/26
f 49/101/26 43/103/26 45/104/26
usemtl common_bottom
f 52/105/27 617/106/27 616/107/27
f 52/105/27 616/107/27 54/108/27
f 56/109/28 55/110/28 51/111/28
f 56/109/28 51/111/28 52/112/28
usemtl common_machinebase
f 761/113/29 762/114/29 59/115/29
f 761/113/29 59/115/29 565/116/29
usemtl common_bottom
f 566/117/30 568/118/30 570/119/30
f 566/117/30 570/119/30 62/120/30
f 55/121/31 63/122/31 64/123/31
f 55/121/31 64/123/31 51/124/31
f 624/125/32 626/126/32 627/127/32
f 624/125/32 627/127/32 625/128/32
f 72/129/33 563/130/33 562/131/33
f 72/129/33 562/131/33 560/132/33
f 76/133/34 75/134/34 56/135/34
f 76/133/34 56/135/34 52/136/34
f 78/137/35 621/138/35 620/139/35
f 78/137/35 620/139/35 80/140/35
usemtl common_steel
f 84/141/36 82/142/36 81/143/36
f 84/141/36 81/143/36 83/144/36
f 85/145/37 86/146/37 88/147/37
f 85/145/37 88/147/37 87/148/37
f 63/149/38 91/150/38 90/151/38
f 63/149/38 90/151/38 92/152/38
f 95/153/39 93/154/39 94/155/39
f 95/153/39 94/155/39 64/156/39
usemtl common_bottom
f 63/157/40 92/158/40 95/159/40
f 63/157/40 95/159/40 64/160/40
usemtl common_steel
f 92/161/41 90/162/41 93/163/41
f 92/161/41 93/163/41 95/164/41
f 98/165/42 1/166/42 96/167/42
f 98/165/42 96/167/42 97/168/42
f 95/169/43 92/170/43 62/171/43
f 95/169/43 62/171/43 66/172/43
f 1/173/44 98/174/44 66/175/44
f 1/173/44 66/175/44 62/176/44
usemtl common_thingies
f 102/177/45 100/178/45 99/179/45
f 102/177/45 99/179/45 101/180/45
f 105/181/46 103/182/46 104/183/46
f 105/181/46 104/183/46 106/184/46
f 101/185/47 99/186/47 103/187/47
f 101/185/47 103/187/47 105/188/47
f 107/189/48 108/190/48 110/191/48
f 107/189/48 110/191/48 109/192/48
f 112/193/49 111/194/49 113/195/49
f 112/193/49 113/195/49 114/196/49
f 112/197/50 108/198/50 107/199/50
f 112/197/50 107/199/50 111/200/50
f 113/201/51 109/202/51 110/203/51
f 113/201/51 110/203/51 114/204/51
f 108/205/52 112/206/52 114/207/52
f 108/205/52 114/207/52 110/208/52
usemtl common_steel
f 91/209/53 116/210/53 115/211/53
f 91/209/53 115/211/53 90/212/53
f 93/213/54 117/214/54 118/215/54
f 93/213/54 118/215/54 94/216/54
f 115/217/55 116/218/55 118/219/55
f 115/217/55 118/219/55 117/220/55
f 90/221/56 115/222/56 117/223/56
f 90/221/56 117/223/56 93/224/56
f 94/225/57 118/226/57 119/227/57
f 94/225/57 119/227/57 65/228/57
f 122/229/58 120/230/58 121/231/58
f 122/229/58 121/231/58 123/232/58
f 65/233/59 119/234/59 120/235/59
f 65/233/59 120/235/59 122/236/59
f 123/237/60 121/238/60 118/239/60
f 123/237/60 118/239/60 94/240/60
f 126/241/61 125/242/61 124/243/61
f 126/241/61 124/243/61 57/244/61
f 129/245/62 127/246/62 128/247/62
f 129/245/62 128/247/62 130/248/62
f 57/249/63 124/250/63 127/251/63
f 57/249/63 127/251/63 129/252/63
f 130/253/64 128/254/64 125/255/64
f 130/253/64 125/255/64 126/256/64
f 134/257/65 132/258/65 131/259/65
f 134/257/65 131/259/65 133/260/65
f 61/261/66 135/262/66 116/263/66
f 61/261/66 116/263/66 91/264/66
f 133/265/67 131/266/67 135/267/67
f 133/265/67 135/267/67 61/268/67
f 91/269/68 116/270/68 132/271/68
f 91/269/68 132/271/68 134/272/68
f 58/273/69 137/274/69 136/275/69
f 58/273/69 136/275/69 138/276/69
f 140/277/70 139/278/70 82/279/70
f 140/277/70 82/279/70 84/280/70
f 138/281/71 136/282/71 139/283/71
f 138/281/71 139/283/71 140/284/71
f 141/285/72 142/286/72 70/287/72
f 141/285/72 70/287/72 143/288/72
f 86/289/73 144/290/73 145/291/73
f 86/289/73 145/291/73 88/292/73
f 144/293/74 141/294/74 143/295/74
f 144/293/74 143/295/74 145/296/74
f 146/297/75 147/298/75 148/299/75
f 146/297/75 148/299/75 69/300/75
f 150/301/76 149/302/76 151/303/76
f 150/301/76 151/303/76 152/304/76
f 149/305/77 146/306/77 69/307/77
f 149/305/77 69/307/77 151/308/77
f 147/309/78 150/310/78 152/311/78
f 147/309/78 152/311/78 148/312/78
f 153/313/79 154/314/79 156/315/79
f 153/313/79 156/315/79 155/316/79
f 158/317/80 157/318/80 79/319/80
f 158/317/80 79/319/80 159/320/80
f 157/321/81 153/322/81 155/323/81
f 157/321/81 155/323/81 79/324/81
f 154/325/82 158/326/82 159/327/82
f 154/325/82 159/327/82 156/328/82
f 163/329/83 161/330/83 160/331/83
f 163/329/83 160/331/83 162/332/83
f 67/333/84 164/334/84 165/335/84
f 67/333/84 165/335/84 166/336/84
f 162/337/85 160/338/85 164/339/85
f 162/337/85 164/339/85 67/340/85
f 166/341/86 165/342/86 161/343/86
f 166/341/86 161/343/86 163/344/86
usemtl common_rough_steel
f 172/345/87 171/346/87 157/347/87
f 172/345/87 157/347/87 173/348/87
f 157/349/88 169/350/88 170/351/88
f 157/349/88 170/351/88 173/352/88
f 171/353/89 167/354/89 169/355/89
f 171/353/89 169/355/89 157/356/89
usemtl precision_assembler
f 177/357/90 175/358/90 174/359/90
f 177/357/90 174/359/90 176/360/90
f 180/361/91 178/362/91 179/363/91
f 180/361/91 179/363/91 181/364/91
f 174/365/92 175/366/92 179/367/92
f 174/365/92 179/367/92 178/368/92
f 176/369/93 174/370/93 178/371/93
f 176/369/93 178/371/93 180/372/93
usemtl common_cable_and_pipe
f 185/373/94 183/374/94 182/375/94
f 185/373/94 182/375/94 184/376/94
f 188/377/95 186/378/95 187/379/95
f 188/377/95 187/379/95 189/380/95
f 182/381/96 183/382/96 187/383/96
f 182/381/96 187/383/96 186/384/96
f 184/385/97 182/386/97 186/387/97
f 184/385/97 186/387/97 188/388/97
f 191/389/98 185/390/98 184/391/98
f 191/389/98 184/391/98 190/392/98
f 192/393/99 188/394/99 189/395/99
f 192/393/99 189/395/99 193/396/99
f 190/397/100 184/398/100 188/399/100
f 190/397/100 188/399/100 192/400/100
f 197/401/101 195/402/101 194/403/101
f 197/401/101 194/403/101 196/404/101
f 199/405/102 50/406/102 198/407/102
f 199/405/102 198/407/102 200/408/102
f 196/409/103 194/410/103 50/411/103
f 196/409/103 50/411/103 199/412/103
f 195/413/104 202/414/104 201/415/104
f 195/413/104 201/415/104 194/416/104
f 50/417/105 203/418/105 204/419/105
f 50/417/105 204/419/105 198/420/105
f 201/421/106 202/422/106 204/423/106
f 201/421/106 204/423/106 203/424/106
f 194/425/107 201/426/107 203/427/107
f 194/425/107 203/427/107 50/428/107
f 208/429/108 206/430/108 205/431/108
f 208/429/108 205/431/108 207/432/108
f 211/433/109 209/434/109 210/435/109
f 211/433/109 210/435/109 212/436/109
f 207/437/110 205/438/110 209/439/110
f 207/437/110 209/439/110 211/440/110
f 212/441/111 210/442/111 206/443/111
f 212/441/111 206/443/111 208/444/111
f 216/445/112 214/446/112 213/447/112
f 216/445/112 213/447/112 215/448/112
f 219/449/113 217/450/113 218/451/113
f 219/449/113 218/451/113 220/452/113
f 215/453/114 213/454/114 217/455/114
f 215/453/114 217/455/114 219/456/114
f 220/457/115 218/458/115 214/459/115
f 220/457/115 214/459/115 216/460/115
f 222/461/116 216/462/116 215/463/116
f 222/461/116 215/463/116 221/464/116
f 223/465/117 219/466/117 220/467/117
f 223/465/117 220/467/117 224/468/117
f 221/469/118 215/470/118 219/471/118
f 221/469/118 219/471/118 223/472/118
f 224/473/119 220/474/119 216/475/119
f 224/473/119 216/475/119 222/476/119
f 226/477/120 222/478/120 221/479/120
f 226/477/120 221/479/120 225/480/120
f 227/481/121 223/482/121 224/483/121
f 227/481/121 224/483/121 228/484/121
f 225/485/122 221/486/122 223/487/122
f 225/485/122 223/487/122 227/488/122
f 228/489/123 224/490/123 222/491/123
f 228/489/123 222/491/123 226/492/123
f 230/493/124 208/494/124 207/495/124
f 230/493/124 207/495/124 229/496/124
f 231/497/125 211/498/125 212/499/125
f 231/497/125 212/499/125 232/500/125
f 229/501/126 207/502/126 211/503/126
f 229/501/126 211/503/126 231/504/126
f 232/505/127 212/506/127 208/507/127
f 232/505/127 208/507/127 230/508/127
f 206/509/128 234/510/128 233/511/128
f 206/509/128 233/511/128 205/512/128
f 209/513/129 235/514/129 236/515/129
f 209/513/129 236/515/129 210/516/129
f 205/517/130 233/518/130 235/519/130
f 205/517/130 235/519/130 209/520/130
f 210/521/131 236/522/131 234/523/131
f 210/521/131 234/523/131 206/524/131
f 214/525/132 238/526/132 237/527/132
f 214/525/132 237/527/132 213/528/132
f 217/529/133 239/530/133 240/531/133
f 217/529/133 240/531/133 218/532/133
f 237/533/134 238/534/134 240/535/134
f 237/533/134 240/535/134 239/536/134
f 218/537/135 240/538/135 238/539/135
f 218/537/135 238/539/135 214/540/135
f 243/541/136 237/542/136 241/543/136
f 243/541/136 241/543/136 242/544/136
f 245/545/137 244/546/137 239/547/137
f 245/545/137 239/547/137 246/548/137
f 241/549/138 237/550/138 239/551/138
f 241/549/138 239/551/138 244/552/138
f 243/553/139 242/554/139 245/555/139
f 243/553/139 245/555/139 246/556/139
f 234/557/140 248/558/140 247/559/140
f 234/557/140 247/559/140 233/560/140
f 235/561/141 249/562/141 250/563/141
f 235/561/141 250/563/141 236/564/141
f 247/565/142 248/566/142 250/567/142
f 247/565/142 250/567/142 249/568/142
f 236/569/143 250/570/143 248/571/143
f 236/569/143 248/571/143 234/572/143
f 253/573/144 247/574/144 251/575/144
f 253/573/144 251/575/144 252/576/144
f 255/577/145 254/578/145 249/579/145
f 255/577/145 249/579/145 256/580/145
f 251/581/146 247/582/146 249/583/146
f 251/581/146 249/583/146 254/584/146
f 253/585/147 252/586/147 255/587/147
f 253/585/147 255/587/147 256/588/147
usemtl common_thingies
f 260/589/148 258/590/148 257/591/148
f 260/589/148 257/591/148 259/592/148
f 263/593/149 261/594/149 262/595/149
f 263/593/149 262/595/149 264/596/149
f 257/597/150 258/598/150 262/599/150
f 257/597/150 262/599/150 261/600/150
f 259/601/151 257/602/151 261/603/151
f 259/601/151 261/603/151 263/604/151
f 264/605/152 262/606/152 258/607/152
f 264/605/152 258/607/152 260/608/152
f 268/609/153 266/610/153 265/611/153
f 268/609/153 265/611/153 267/612/153
f 271/613/154 269/614/154 270/615/154
f 271/613/154 270/615/154 272/616/154
f 265/617/155 266/618/155 270/619/155
f 265/617/155 270/619/155 269/620/155
f 267/621/156 265/622/156 269/623/156
f 267/621/156 269/623/156 271/624/156
f 272/625/157 270/626/157 266/627/157
f 272/625/157 266/627/157 268/628/157
usemtl precision_assembler
f 276/629/158 274/630/158 273/631/158
f 276/629/158 273/631/158 275/632/158
f 276/633/159 275/634/159 278/635/159
f 276/633/159 278/635/159 279/636/159
f 279/637/160 277/638/160 274/639/160
f 279/637/160 274/639/160 276/640/160
f 283/641/161 281/642/161 280/643/161
f 283/641/161 280/643/161 282/644/161
f 286/645/162 284/646/162 285/647/162
f 286/645/162 285/647/162 287/648/162
f 280/649/163 281/650/163 285/651/163
f 280/649/163 285/651/163 284/652/163
f 283/653/164 282/654/164 286/655/164
f 283/653/164 286/655/164 287/656/164
f 287/657/165 285/658/165 281/659/165
f 287/657/165 281/659/165 283/660/165
f 291/661/166 289/662/166 288/663/166
f 291/661/166 288/663/166 290/664/166
f 278/665/167 279/666/167 292/667/167
f 278/665/167 292/667/167 293/668/167
f 288/669/168 289/670/168 292/671/168
f 288/669/168 292/671/168 279/672/168
f 290/673/169 288/674/169 279/675/169
f 290/673/169 279/675/169 278/676/169
f 293/677/170 292/678/170 289/679/170
f 293/677/170 289/679/170 291/680/170
usemtl common_rough_steel
f 167/681/171 429/682/171 609/683/171
f 167/681/171 609/683/171 294/684/171
f 169/685/172 296/686/172 297/687/172
f 169/685/172 297/687/172 170/688/172
f 167/689/173 294/690/173 296/691/173
f 167/689/173 296/691/173 169/692/173
f 295/693/174 168/694/174 170/695/174
f 295/693/174 170/695/174 297/696/174
f 300/697/175 135/698/175 119/699/175
f 300/697/175 119/699/175 303/700/175
f 135/701/176 298/702/176 301/703/176
f 135/701/176 301/703/176 119/704/176
f 303/705/177 302/706/177 299/707/177
f 303/705/177 299/707/177 300/708/177
f 579/709/178 589/710/178 590/711/178
f 579/709/178 590/711/178 580/712/178
f 581/713/179 592/714/179 593/715/179
f 581/713/179 593/715/179 582/716/179
f 299/717/180 496/718/180 578/719/180
f 299/717/180 578/719/180 300/720/180
f 142/721/181 606/722/181 605/723/181
f 142/721/181 605/723/181 307/724/181
usemtl common_wooden_base_light
f 497/725/182 611/726/182 610/727/182
f 497/725/182 610/727/182 428/728/182
usemtl common_rough_steel
f 607/729/183 613/730/183 612/731/183
f 607/729/183 612/731/183 604/732/183
f 602/733/184 615/734/184 614/735/184
f 602/733/184 614/735/184 603/736/184
f 604/737/185 612/738/185 611/739/185
f 604/737/185 611/739/185 497/740/185
usemtl reinforced
f 311/741/186 309/742/186 308/743/186
f 311/741/186 308/743/186 310/744/186
f 314/745/187 312/746/187 313/747/187
f 314/745/187 313/747/187 315/748/187
f 308/749/188 309/750/188 313/751/188
f 308/749/188 313/751/188 312/752/188
f 311/753/189 310/754/189 314/755/189
f 311/753/189 314/755/189 315/756/189
f 310/757/190 308/758/190 312/759/190
f 310/757/190 312/759/190 314/760/190
f 315/761/191 313/762/191 309/763/191
f 315/761/191 309/763/191 311/764/191
usemtl wooden
f 319/765/192 317/766/192 316/767/192
f 319/765/192 316/767/192 318/768/192
f 322/769/193 320/770/193 321/771/193
f 322/769/193 321/771/193 323/772/193
f 316/773/194 317/774/194 321/775/194
f 316/773/194 321/775/194 320/776/194
f 319/777/195 318/778/195 322/779/195
f 319/777/195 322/779/195 323/780/195
f 318/781/196 316/782/196 320/783/196
f 318/781/196 320/783/196 322/784/196
f 323/785/197 321/786/197 317/787/197
f 323/785/197 317/787/197 319/788/197
usemtl common_rough_steel
f 164/789/198 324/790/198 325/791/198
f 164/789/198 325/791/198 326/792/198
f 303/793/199 119/794/199 164/795/199
f 303/793/199 164/795/199 326/796/199
f 119/797/200 301/798/200 324/799/200
f 119/797/200 324/799/200 164/800/200
usemtl common_steel_norivets
f 333/801/201 331/802/201 332/803/201
f 333/801/201 332/803/201 334/804/201
f 329/805/202 327/806/202 331/807/202
f 329/805/202 331/807/202 333/808/202
f 338/809/203 336/810/203 335/811/203
f 338/809/203 335/811/203 337/812/203
f 341/813/204 339/814/204 340/815/204
f 341/813/204 340/815/204 342/816/204
f 337/817/205 335/818/205 339/819/205
f 337/817/205 339/819/205 341/820/205
f 344/821/206 285/822/206 179/823/206
f 344/821/206 179/823/206 343/824/206
f 347/825/207 345/826/207 346/827/207
f 347/825/207 346/827/207 348/828/207
f 348/829/208 346/830/208 285/831/208
f 348/829/208 285/831/208 344/832/208
f 352/833/209 350/834/209 349/835/209
f 352/833/209 349/835/209 351/836/209
f 355/837/210 353/838/210 354/839/210
f 355/837/210 354/839/210 356/840/210
f 356/841/211 354/842/211 350/843/211
f 356/841/211 350/843/211 352/844/211
f 343/845/212 179/846/212 345/847/212
f 343/845/212 345/847/212 347/848/212
f 351/849/213 349/850/213 353/851/213
f 351/849/213 353/851/213 355/852/213
f 330/853/214 328/854/214 327/855/214
f 330/853/214 327/855/214 329/856/214
f 357/857/215 358/858/215 362/859/215
f 357/857/215 362/859/215 361/860/215
f 359/861/216 357/862/216 361/863/216
f 359/861/216 361/863/216 363/864/216
usemtl precision_assembler
f 364/865/217 362/866/217 358/867/217
f 364/865/217 358/867/217 360/868/217
usemtl common_steel_norivets
f 336/869/218 366/870/218 365/871/218
f 336/869/218 365/871/218 349/872/218
f 353/873/219 357/874/219 367/875/219
f 353/873/219 367/875/219 340/876/219
f 365/877/220 366/878/220 367/879/220
f 365/877/220 367/879/220 357/880/220
f 336/881/221 349/882/221 353/883/221
f 336/881/221 353/883/221 340/884/221
f 349/885/222 365/886/222 357/887/222
f 349/885/222 357/887/222 353/888/222
f 340/889/223 367/890/223 366/891/223
f 340/889/223 366/891/223 336/892/223
f 328/893/224 368/894/224 361/895/224
f 328/893/224 361/895/224 179/896/224
f 345/897/225 369/898/225 370/899/225
f 345/897/225 370/899/225 332/900/225
f 361/901/226 368/902/226 370/903/226
f 361/901/226 370/903/226 369/904/226
f 328/905/227 179/906/227 345/907/227
f 328/905/227 345/907/227 332/908/227
f 179/909/228 361/910/228 369/911/228
f 179/909/228 369/911/228 345/912/228
f 332/913/229 370/914/229 368/915/229
f 332/913/229 368/915/229 328/916/229
f 371/917/230 330/918/230 343/919/230
f 371/917/230 343/919/230 363/920/230
f 372/921/231 347/922/231 334/923/231
f 372/921/231 334/923/231 373/924/231
f 343/925/232 330/926/232 334/927/232
f 343/925/232 334/927/232 347/928/232
f 375/929/233 338/930/233 351/931/233
f 375/929/233 351/931/233 374/932/233
f 359/933/234 355/934/234 342/935/234
f 359/933/234 342/935/234 376/936/234
f 351/937/235 338/938/235 342/939/235
f 351/937/235 342/939/235 355/940/235
f 374/941/236 351/942/236 355/943/236
f 374/941/236 355/943/236 359/944/236
usemtl common_rough_steel
f 170/945/237 168/946/237 302/947/237
f 170/945/237 302/947/237 303/948/237
f 326/949/238 325/950/238 172/951/238
f 326/949/238 172/951/238 173/952/238
f 302/953/239 168/954/239 172/955/239
f 302/953/239 172/955/239 325/956/239
f 170/957/240 303/958/240 326/959/240
f 170/957/240 326/959/240 173/960/240
f 303/961/241 302/962/241 325/963/241
f 303/961/241 325/963/241 326/964/241
f 173/965/242 172/966/242 168/967/242
f 173/965/242 168/967/242 170/968/242
usemtl precision_assembler
f 379/969/243 750/970/243 749/971/243
f 379/969/243 749/971/243 378/972/243
f 377/973/244 177/974/244 379/975/244
f 377/973/244 379/975/244 378/976/244
usemtl common_steel_norivets
f 378/977/245 749/978/245 748/979/245
f 378/977/245 748/979/245 377/980/245
usemtl precision_assembler
f 383/981/246 381/982/246 380/983/246
f 383/981/246 380/983/246 382/984/246
f 386/985/247 384/986/247 385/987/247
f 386/985/247 385/987/247 387/988/247
usemtl common_thingies
f 380/989/248 381/990/248 385/991/248
f 380/989/248 385/991/248 384/992/248
usemtl precision_assembler
f 382/993/249 380/994/249 384/995/249
f 382/993/249 384/995/249 386/996/249
f 387/997/250 385/998/250 381/999/250
f 387/997/250 381/999/250 383/1000/250
f 389/1001/251 383/1002/251 382/1003/251
f 389/1001/251 382/1003/251 388/1004/251
f 390/1005/252 386/1006/252 387/1007/252
f 390/1005/252 387/1007/252 391/1008/252
f 388/1009/253 382/1010/253 386/1011/253
f 388/1009/253 386/1011/253 390/1012/253
f 391/1013/254 387/1014/254 383/1015/254
f 391/1013/254 383/1015/254 389/1016/254
usemtl common_steel_norivets
f 395/1017/255 393/1018/255 392/1019/255
f 395/1017/255 392/1019/255 394/1020/255
f 398/1021/256 396/1022/256 397/1023/256
f 398/1021/256 397/1023/256 399/1024/256
f 392/1025/257 393/1026/257 397/1027/257
f 392/1025/257 397/1027/257 396/1028/257
f 394/1029/258 392/1030/258 396/1031/258
f 394/1029/258 396/1031/258 398/1032/258
f 399/1033/259 397/1034/259 393/1035/259
f 399/1033/259 393/1035/259 395/1036/259
usemtl precision_assembler
f 373/1037/260 398/1038/260 399/1039/260
f 373/1037/260 399/1039/260 171/1040/260
f 400/1041/261 394/1042/261 398/1043/261
f 400/1041/261 398/1043/261 373/1044/261
f 171/1045/262 399/1046/262 395/1047/262
f 171/1045/262 395/1047/262 167/1048/262
f 167/1049/263 395/1050/263 394/1051/263
f 167/1049/263 394/1051/263 400/1052/263
usemtl common_bottom
f 401/1053/264 402/1054/264 406/1055/264
f 401/1053/264 406/1055/264 405/1056/264
f 403/1057/265 401/1058/265 405/1059/265
f 403/1057/265 405/1059/265 407/1060/265
f 408/1061/266 406/1062/266 402/1063/266
f 408/1061/266 402/1063/266 404/1064/266
f 412/1065/267 411/1066/267 415/1067/267
f 412/1065/267 415/1067/267 416/1068/267
f 411/1069/268 409/1070/268 413/1071/268
f 411/1069/268 413/1071/268 415/1072/268
f 416/1073/269 414/1074/269 410/1075/269
f 416/1073/269 410/1075/269 412/1076/269
usemtl precision_assembler
f 419/1077/270 417/1078/270 366/1079/270
f 419/1077/270 366/1079/270 418/1080/270
f 366/1081/271 417/1082/271 421/1083/271
f 366/1081/271 421/1083/271 420/1084/271
f 419/1085/272 418/1086/272 422/1087/272
f 419/1085/272 422/1087/272 423/1088/272
f 418/1089/273 366/1090/273 420/1091/273
f 418/1089/273 420/1091/273 422/1092/273
f 423/1093/274 421/1094/274 417/1095/274
f 423/1093/274 417/1095/274 419/1096/274
f 425/1097/275 419/1098/275 418/1099/275
f 425/1097/275 418/1099/275 424/1100/275
f 403/1101/276 409/1102/276 426/1103/276
f 403/1101/276 426/1103/276 427/1104/276
f 424/1105/277 418/1106/277 409/1107/277
f 424/1105/277 409/1107/277 403/1108/277
f 427/1109/278 426/1110/278 419/1111/278
f 427/1109/278 419/1111/278 425/1112/278
f 375/1113/279 428/1114/279 425/1115/279
f 375/1113/279 425/1115/279 424/1116/279
f 429/1117/280 428/1118/280 375/1119/280
f 429/1117/280 375/1119/280 400/1120/280
f 430/1121/281 424/1122/281 425/1123/281
f 430/1121/281 425/1123/281 431/1124/281
f 400/1125/282 375/1126/282 424/1127/282
f 400/1125/282 424/1127/282 430/1128/282
f 428/1129/283 429/1130/283 431/1131/283
f 428/1129/283 431/1131/283 425/1132/283
f 433/1133/284 432/1134/284 413/1135/284
f 433/1133/284 413/1135/284 407/1136/284
f 407/1137/285 413/1138/285 422/1139/285
f 407/1137/285 422/1139/285 430/1140/285
f 431/1141/286 423/1142/286 432/1143/286
f 431/1141/286 432/1143/286 433/1144/286
usemtl common_steel
f 434/1145/287 435/1146/287 437/1147/287
f 434/1145/287 437/1147/287 436/1148/287
f 438/1149/288 296/1150/288 73/1151/288
f 438/1149/288 73/1151/288 439/1152/288
f 296/1153/289 434/1154/289 436/1155/289
f 296/1153/289 436/1155/289 73/1156/289
f 435/1157/290 438/1158/290 439/1159/290
f 435/1157/290 439/1159/290 437/1160/290
f 169/1161/291 440/1162/291 441/1163/291
f 169/1161/291 441/1163/291 77/1164/291
f 443/1165/292 442/1166/292 444/1167/292
f 443/1165/292 444/1167/292 445/1168/292
f 442/1169/293 169/1170/293 77/1171/293
f 442/1169/293 77/1171/293 444/1172/293
f 440/1173/294 443/1174/294 445/1175/294
f 440/1173/294 445/1175/294 441/1176/294
f 446/1177/295 439/1178/295 75/1179/295
f 446/1177/295 75/1179/295 447/1180/295
f 441/1181/296 448/1182/296 449/1183/296
f 441/1181/296 449/1183/296 76/1184/296
usemtl common_bottom
f 449/1185/297 447/1186/297 75/1187/297
f 449/1185/297 75/1187/297 76/1188/297
usemtl common_steel
f 450/1189/298 438/1190/298 439/1191/298
f 450/1189/298 439/1191/298 446/1192/298
f 440/1193/299 451/1194/299 448/1195/299
f 440/1193/299 448/1195/299 441/1196/299
f 440/1197/300 438/1198/300 450/1199/300
f 440/1197/300 450/1199/300 451/1200/300
f 455/1201/301 453/1202/301 452/1203/301
f 455/1201/301 452/1203/301 454/1204/301
f 78/1205/302 74/1206/302 447/1207/302
f 78/1205/302 447/1207/302 449/1208/302
f 454/1209/303 452/1210/303 74/1211/303
f 454/1209/303 74/1211/303 78/1212/303
usemtl common_thingies
f 459/1213/304 457/1214/304 456/1215/304
f 459/1213/304 456/1215/304 458/1216/304
f 462/1217/305 460/1218/305 461/1219/305
f 462/1217/305 461/1219/305 463/1220/305
f 463/1221/306 461/1222/306 457/1223/306
f 463/1221/306 457/1223/306 459/1224/306
f 467/1225/307 465/1226/307 464/1227/307
f 467/1225/307 464/1227/307 466/1228/307
f 470/1229/308 468/1230/308 469/1231/308
f 470/1229/308 469/1231/308 471/1232/308
f 464/1233/309 465/1234/309 469/1235/309
f 464/1233/309 469/1235/309 468/1236/309
f 467/1237/310 466/1238/310 470/1239/310
f 467/1237/310 470/1239/310 471/1240/310
f 471/1241/311 469/1242/311 465/1243/311
f 471/1241/311 465/1243/311 467/1244/311
usemtl precision_assembler
f 475/1245/312 473/1246/312 472/1247/312
f 475/1245/312 472/1247/312 474/1248/312
f 472/1249/313 473/1250/313 477/1251/313
f 472/1249/313 477/1251/313 476/1252/313
f 475/1253/314 474/1254/314 478/1255/314
f 475/1253/314 478/1255/314 479/1256/314
f 481/1257/315 70/1258/315 58/1259/315
f 481/1257/315 58/1259/315 480/1260/315
f 58/1261/316 70/1262/316 483/1263/316
f 58/1261/316 483/1263/316 482/1264/316
f 481/1265/317 480/1266/317 484/1267/317
f 481/1265/317 484/1267/317 485/1268/317
f 489/1269/318 487/1270/318 486/1271/318
f 489/1269/318 486/1271/318 488/1272/318
f 486/1273/319 487/1274/319 491/1275/319
f 486/1273/319 491/1275/319 490/1276/319
f 489/1277/320 488/1278/320 492/1279/320
f 489/1277/320 492/1279/320 493/1280/320
f 488/1281/321 486/1282/321 490/1283/321
f 488/1281/321 490/1283/321 492/1284/321
f 493/1285/322 491/1286/322 487/1287/322
f 493/1285/322 487/1287/322 489/1288/322
f 493/1289/323 495/1290/323 494/1291/323
f 493/1289/323 494/1291/323 492/1292/323
f 498/1293/324 496/1294/324 497/1295/324
f 498/1293/324 497/1295/324 499/1296/324
f 494/1297/325 495/1298/325 497/1299/325
f 494/1297/325 497/1299/325 496/1300/325
f 493/1301/326 492/1302/326 498/1303/326
f 493/1301/326 498/1303/326 499/1304/326
f 492/1305/327 494/1306/327 496/1307/327
f 492/1305/327 496/1307/327 498/1308/327
f 499/1309/328 497/1310/328 495/1311/328
f 499/1309/328 495/1311/328 493/1312/328
usemtl common_thingies
f 503/1313/329 501/1314/329 500/1315/329
f 503/1313/329 500/1315/329 502/1316/329
f 500/1317/330 501/1318/330 505/1319/330
f 500/1317/330 505/1319/330 504/1320/330
f 503/1321/331 502/1322/331 506/1323/331
f 503/1321/331 506/1323/331 507/1324/331
f 502/1325/332 500/1326/332 504/1327/332
f 502/1325/332 504/1327/332 506/1328/332
f 507/1329/333 505/1330/333 501/1331/333
f 507/1329/333 501/1331/333 503/1332/333
usemtl common_machinebase
f 759/1333/334 760/1334/334 60/1335/334
f 759/1333/334 60/1335/334 55/1336/334
usemtl common_steel
f 513/1337/335 511/1338/335 510/1339/335
f 513/1337/335 510/1339/335 512/1340/335
f 516/1341/336 514/1342/336 515/1343/336
f 516/1341/336 515/1343/336 517/1344/336
f 510/1345/337 511/1346/337 515/1347/337
f 510/1345/337 515/1347/337 514/1348/337
f 513/1349/338 512/1350/338 516/1351/338
f 513/1349/338 516/1351/338 517/1352/338
f 517/1353/339 515/1354/339 511/1355/339
f 517/1353/339 511/1355/339 513/1356/339
f 521/1357/340 519/1358/340 518/1359/340
f 521/1357/340 518/1359/340 520/1360/340
f 524/1361/341 522/1362/341 523/1363/341
f 524/1361/341 523/1363/341 525/1364/341
f 518/1365/342 519/1366/342 523/1367/342
f 518/1365/342 523/1367/342 522/1368/342
f 521/1369/343 520/1370/343 524/1371/343
f 521/1369/343 524/1371/343 525/1372/343
f 525/1373/344 523/1374/344 519/1375/344
f 525/1373/344 519/1375/344 521/1376/344
f 519/1377/345 513/1378/345 512/1379/345
f 519/1377/345 512/1379/345 518/1380/345
f 528/1381/346 526/1382/346 527/1383/346
f 528/1381/346 527/1383/346 529/1384/346
f 529/1385/347 527/1386/347 513/1387/347
f 529/1385/347 513/1387/347 519/1388/347
f 533/1389/348 531/1390/348 530/1391/348
f 533/1389/348 530/1391/348 532/1392/348
f 522/1393/349 516/1394/349 517/1395/349
f 522/1393/349 517/1395/349 523/1396/349
f 523/1397/350 517/1398/350 531/1399/350
f 523/1397/350 531/1399/350 533/1400/350
usemtl common_steel_norivets
f 297/1401/351 170/1402/351 534/1403/351
f 297/1401/351 534/1403/351 508/1404/351
f 535/1405/352 303/1406/352 300/1407/352
f 535/1405/352 300/1407/352 509/1408/352
usemtl common_rough_steel
f 61/1409/353 90/1410/353 96/1411/353
f 61/1409/353 96/1411/353 1/1412/353
f 97/1413/354 93/1414/354 65/1415/354
f 97/1413/354 65/1415/354 98/1416/354
f 446/1417/355 73/1418/355 452/1419/355
f 446/1417/355 452/1419/355 453/1420/355
f 454/1421/356 77/1422/356 448/1423/356
f 454/1421/356 448/1423/356 455/1424/356
usemtl precision_assembler
f 537/1425/357 536/1426/357 543/1427/357
f 537/1425/357 543/1427/357 542/1428/357
f 539/1429/358 538/1430/358 541/1431/358
f 539/1429/358 541/1431/358 540/1432/358
f 538/1433/359 537/1434/359 542/1435/359
f 538/1433/359 542/1435/359 541/1436/359
f 536/1437/360 539/1438/360 540/1439/360
f 536/1437/360 540/1439/360 543/1440/360
f 536/1441/361 537/1442/361 538/1443/361
f 536/1441/361 538/1443/361 539/1444/361
f 545/1445/362 544/1446/362 551/1447/362
f 545/1445/362 551/1447/362 550/1448/362
f 547/1449/363 546/1450/363 549/1451/363
f 547/1449/363 549/1451/363 548/1452/363
f 546/1453/364 545/1454/364 550/1455/364
f 546/1453/364 550/1455/364 549/1456/364
f 544/1457/365 547/1458/365 548/1459/365
f 544/1457/365 548/1459/365 551/1460/365
f 544/1461/366 545/1462/366 546/1463/366
f 544/1461/366 546/1463/366 547/1464/366
f 553/1465/367 552/1466/367 559/1467/367
f 553/1465/367 559/1467/367 558/1468/367
f 555/1469/368 554/1470/368 557/1471/368
f 555/1469/368 557/1471/368 556/1472/368
f 554/1473/369 553/1474/369 558/1475/369
f 554/1473/369 558/1475/369 557/1476/369
f 552/1477/370 555/1478/370 556/1479/370
f 552/1477/370 556/1479/370 559/1480/370
f 552/1481/371 553/1482/371 554/1483/371
f 552/1481/371 554/1483/371 555/1484/371
usemtl common_bottom
f 560/1485/372 562/1486/372 564/1487/372
f 560/1485/372 564/1487/372 71/1488/372
usemtl common_machinebase
f 765/1489/373 766/1490/373 69/1491/373
f 765/1489/373 69/1491/373 70/1492/373
usemtl common_bottom
f 561/1493/374 562/1494/374 563/1495/374
f 561/1493/374 563/1495/374 56/1496/374
f 74/1497/375 564/1498/375 562/1499/375
f 74/1497/375 562/1499/375 561/1500/375
usemtl common_machinebase
f 766/1501/376 767/1502/376 73/1503/376
f 766/1501/376 73/1503/376 69/1504/376
usemtl common_bottom
f 55/1505/377 569/1506/377 568/1507/377
f 55/1505/377 568/1507/377 566/1508/377
usemtl common_machinebase
f 760/1509/378 761/1510/378 565/1511/378
f 760/1509/378 565/1511/378 60/1512/378
usemtl common_bottom
f 565/1513/379 568/1514/379 569/1515/379
f 565/1513/379 569/1515/379 60/1516/379
f 59/1517/380 570/1518/380 568/1519/380
f 59/1517/380 568/1519/380 565/1520/380
usemtl common_machinebase
f 762/1521/381 763/1522/381 62/1523/381
f 762/1521/381 62/1523/381 59/1524/381
usemtl common_bottom
f 479/1525/382 497/1526/382 496/1527/382
f 479/1525/382 496/1527/382 478/1528/382
f 571/1529/383 299/1530/383 295/1531/383
f 571/1529/383 295/1531/383 572/1532/383
f 496/1533/384 497/1534/384 295/1535/384
f 496/1533/384 295/1535/384 299/1536/384
f 576/1537/385 574/1538/385 573/1539/385
f 576/1537/385 573/1539/385 575/1540/385
f 55/1541/386 571/1542/386 572/1543/386
f 55/1541/386 572/1543/386 56/1544/386
f 576/1545/387 575/1546/387 55/1547/387
f 576/1545/387 55/1547/387 56/1548/387
usemtl common_rough_steel
f 580/1549/388 590/1550/388 591/1551/388
f 580/1549/388 591/1551/388 586/1552/388
f 137/1553/389 585/1554/389 584/1555/389
f 137/1553/389 584/1555/389 305/1556/389
f 305/1557/390 579/1558/390 580/1559/390
f 305/1557/390 580/1559/390 137/1560/390
f 580/1561/391 586/1562/391 585/1563/391
f 580/1561/391 585/1563/391 137/1564/391
f 578/1565/392 581/1566/392 582/1567/392
f 578/1565/392 582/1567/392 300/1568/392
f 585/1569/393 597/1570/393 596/1571/393
f 585/1569/393 596/1571/393 584/1572/393
f 591/1573/394 599/1574/394 598/1575/394
f 591/1573/394 598/1575/394 586/1576/394
f 124/1577/395 590/1578/395 589/1579/395
f 124/1577/395 589/1579/395 304/1580/395
f 587/1581/396 591/1582/396 590/1583/396
f 587/1581/396 590/1583/396 124/1584/396
f 587/1585/397 600/1586/397 599/1587/397
f 587/1585/397 599/1587/397 591/1588/397
f 135/1589/398 593/1590/398 592/1591/398
f 135/1589/398 592/1591/398 577/1592/398
usemtl precision_assembler
f 682/1593/399 594/1594/399 595/1595/399
f 682/1593/399 595/1595/399 374/1596/399
usemtl common_wooden_base_light
f 584/1597/400 496/1598/400 374/1599/400
f 584/1597/400 374/1599/400 681/1600/400
usemtl common_rough_steel
f 496/1601/401 596/1602/401 597/1603/401
f 496/1601/401 597/1603/401 578/1604/401
f 586/1605/402 581/1606/402 578/1607/402
f 586/1605/402 578/1607/402 585/1608/402
f 581/1609/403 598/1610/403 599/1611/403
f 581/1609/403 599/1611/403 592/1612/403
f 592/1613/404 599/1614/404 600/1615/404
f 592/1613/404 600/1615/404 577/1616/404
f 304/1617/405 298/1618/405 135/1619/405
f 304/1617/405 135/1619/405 124/1620/405
f 294/1621/406 602/1622/406 603/1623/406
f 294/1621/406 603/1623/406 296/1624/406
f 297/1625/407 608/1626/407 607/1627/407
f 297/1625/407 607/1627/407 604/1628/407
f 297/1629/408 604/1630/408 497/1631/408
f 297/1629/408 497/1631/408 295/1632/408
usemtl common_wooden_base_light
f 428/1633/409 610/1634/409 615/1635/409
f 428/1633/409 615/1635/409 602/1636/409
usemtl common_rough_steel
f 306/1637/410 605/1638/410 606/1639/410
f 306/1637/410 606/1639/410 146/1640/410
f 603/1641/411 614/1642/411 613/1643/411
f 603/1641/411 613/1643/411 607/1644/411
f 603/1645/412 607/1646/412 608/1647/412
f 603/1645/412 608/1647/412 296/1648/412
f 294/1649/413 609/1650/413 428/1651/413
f 294/1649/413 428/1651/413 602/1652/413
usemtl common_wooden_base_light
f 605/1653/414 610/1654/414 611/1655/414
f 605/1653/414 611/1655/414 307/1656/414
usemtl common_rough_steel
f 307/1657/415 611/1658/415 612/1659/415
f 307/1657/415 612/1659/415 142/1660/415
f 142/1661/416 612/1662/416 613/1663/416
f 142/1661/416 613/1663/416 606/1664/416
f 606/1665/417 613/1666/417 614/1667/417
f 606/1665/417 614/1667/417 146/1668/417
f 146/1669/418 614/1670/418 615/1671/418
f 146/1669/418 615/1671/418 306/1672/418
usemtl common_wooden_base_light
f 306/1673/419 615/1674/419 610/1675/419
f 306/1673/419 610/1675/419 605/1676/419
usemtl common_bottom
f 617/1677/420 619/1678/420 618/1679/420
f 617/1677/420 618/1679/420 616/1680/420
f 53/1681/421 618/1682/421 619/1683/421
f 53/1681/421 619/1683/421 51/1684/421
f 621/1685/422 623/1686/422 622/1687/422
f 621/1685/422 622/1687/422 620/1688/422
f 54/1689/423 622/1690/423 623/1691/423
f 54/1689/423 623/1691/423 52/1692/423
usemtl common_machinebase
f 77/1693/424 78/1694/424 80/1695/424
f 77/1693/424 80/1695/424 79/1696/424
usemtl common_bottom
f 68/1697/425 624/1698/425 625/1699/425
f 68/1697/425 625/1699/425 66/1700/425
f 51/1701/426 627/1702/426 626/1703/426
f 51/1701/426 626/1703/426 53/1704/426
usemtl common_machinebase
f 66/1705/427 65/1706/427 67/1707/427
f 66/1705/427 67/1707/427 68/1708/427
usemtl common_thingies
f 634/1709/428 632/1710/428 633/1711/428
f 634/1709/428 633/1711/428 635/1712/428
f 628/1713/429 629/1714/429 633/1715/429
f 628/1713/429 633/1715/429 632/1716/429
f 631/1717/430 630/1718/430 634/1719/430
f 631/1717/430 634/1719/430 635/1720/430
f 630/1721/431 628/1722/431 632/1723/431
f 630/1721/431 632/1723/431 634/1724/431
f 635/1725/432 633/1726/432 629/1727/432
f 635/1725/432 629/1727/432 631/1728/432
f 642/1729/433 640/1730/433 641/1731/433
f 642/1729/433 641/1731/433 643/1732/433
f 636/1733/434 637/1734/434 641/1735/434
f 636/1733/434 641/1735/434 640/1736/434
f 639/1737/435 638/1738/435 642/1739/435
f 639/1737/435 642/1739/435 643/1740/435
f 638/1741/436 636/1742/436 640/1743/436
f 638/1741/436 640/1743/436 642/1744/436
f 643/1745/437 641/1746/437 637/1747/437
f 643/1745/437 637/1747/437 639/1748/437
f 650/1749/438 648/1750/438 649/1751/438
f 650/1749/438 649/1751/438 651/1752/438
f 644/1753/439 645/1754/439 649/1755/439
f 644/1753/439 649/1755/439 648/1756/439
f 647/1757/440 646/1758/440 650/1759/440
f 647/1757/440 650/1759/440 651/1760/440
f 646/1761/441 644/1762/441 648/1763/441
f 646/1761/441 648/1763/441 650/1764/441
f 651/1765/442 649/1766/442 645/1767/442
f 651/1765/442 645/1767/442 647/1768/442
f 655/1769/443 657/1770/443 656/1771/443
f 655/1769/443 656/1771/443 654/1772/443
f 654/1773/444 656/1774/444 659/1775/444
f 654/1773/444 659/1775/444 652/1776/444
f 653/1777/445 658/1778/445 657/1779/445
f 653/1777/445 657/1779/445 655/1780/445
f 663/1781/446 665/1782/446 664/1783/446
f 663/1781/446 664/1783/446 662/1784/446
f 662/1785/447 664/1786/447 667/1787/447
f 662/1785/447 667/1787/447 660/1788/447
f 661/1789/448 666/1790/448 665/1791/448
f 661/1789/448 665/1791/448 663/1792/448
f 671/1793/449 673/1794/449 672/1795/449
f 671/1793/449 672/1795/449 670/1796/449
f 670/1797/450 672/1798/450 675/1799/450
f 670/1797/450 675/1799/450 668/1800/450
f 669/1801/451 674/1802/451 673/1803/451
f 669/1801/451 673/1803/451 671/1804/451
usemtl common_steel
f 583/1805/452 677/1806/452 676/1807/452
f 583/1805/452 676/1807/452 298/1808/452
f 676/1809/453 677/1810/453 679/1811/453
f 676/1809/453 679/1811/453 678/1812/453
usemtl precision_assembler
f 298/1813/454 676/1814/454 678/1815/454
f 298/1813/454 678/1815/454 301/1816/454
usemtl common_steel
f 301/1817/455 678/1818/455 679/1819/455
f 301/1817/455 679/1819/455 680/1820/455
usemtl common_wooden_base_light
f 304/1821/456 579/1822/456 595/1823/456
f 304/1821/456 595/1823/456 601/1824/456
f 305/1825/457 584/1826/457 681/1827/457
f 305/1825/457 681/1827/457 579/1828/457
f 583/1829/458 588/1830/458 682/1831/458
f 583/1829/458 682/1831/458 374/1832/458
f 601/1833/459 594/1834/459 588/1835/459
f 601/1833/459 588/1835/459 298/1836/459
usemtl common_machinebase
f 448/1837/460 77/1838/460 79/1839/460
f 448/1837/460 79/1839/460 683/1840/460
f 684/1841/461 69/1842/461 73/1843/461
f 684/1841/461 73/1843/461 446/1844/461
f 88/1845/462 70/1846/462 69/1847/462
f 88/1845/462 69/1847/462 685/1848/462
f 686/1849/463 57/1850/463 58/1851/463
f 686/1849/463 58/1851/463 84/1852/463
f 65/1853/464 93/1854/464 688/1855/464
f 65/1853/464 688/1855/464 67/1856/464
f 57/1857/465 687/1858/465 90/1859/465
f 57/1857/465 90/1859/465 61/1860/465
usemtl common_steel
f 451/1861/466 450/1862/466 447/1863/466
f 451/1861/466 447/1863/466 449/1864/466
f 692/1865/467 691/1866/467 689/1867/467
f 692/1865/467 689/1867/467 690/1868/467
f 695/1869/468 693/1870/468 694/1871/468
f 695/1869/468 694/1871/468 696/1872/468
f 702/1873/469 701/1874/469 703/1875/469
f 702/1873/469 703/1875/469 704/1876/469
f 698/1877/470 697/1878/470 699/1879/470
f 698/1877/470 699/1879/470 700/1880/470
usemtl common_machinebase
f 705/1881/471 68/1882/471 67/1883/471
f 705/1881/471 67/1883/471 706/1884/471
f 67/1885/472 707/1886/472 708/1887/472
f 67/1885/472 708/1887/472 706/1888/472
usemtl common_steel
f 709/1889/473 710/1890/473 711/1891/473
f 709/1889/473 711/1891/473 712/1892/473
f 716/1893/474 714/1894/474 715/1895/474
f 716/1893/474 715/1895/474 717/1896/474
f 714/1897/475 713/1898/475 706/1899/475
f 714/1897/475 706/1899/475 715/1900/475
usemtl common_machinebase
f 79/1901/476 80/1902/476 718/1903/476
f 79/1901/476 718/1903/476 719/1904/476
f 721/1905/477 720/1906/477 79/1907/477
f 721/1905/477 79/1907/477 719/1908/477
usemtl common_steel
f 724/1909/478 723/1910/478 722/1911/478
f 724/1909/478 722/1911/478 725/1912/478
f 728/1913/479 727/1914/479 729/1915/479
f 728/1913/479 729/1915/479 730/1916/479
f 719/1917/480 726/1918/480 727/1919/480
f 719/1917/480 727/1919/480 728/1920/480
f 734/1921/481 741/1922/481 89/1923/481
f 734/1921/481 89/1923/481 732/1924/481
f 738/1925/482 743/1926/482 745/1927/482
f 738/1925/482 745/1927/482 737/1928/482
f 713/1929/483 731/1930/483 733/1931/483
f 713/1929/483 733/1931/483 705/1932/483
f 732/1933/484 726/1934/484 718/1935/484
f 732/1933/484 718/1935/484 734/1936/484
f 718/1937/485 54/1938/485 743/1939/485
f 718/1937/485 743/1939/485 738/1940/485
f 731/1941/486 739/1942/486 740/1943/486
f 731/1941/486 740/1943/486 733/1944/486
f 739/1945/487 89/1946/487 741/1947/487
f 739/1945/487 741/1947/487 740/1948/487
f 735/1949/488 742/1950/488 53/1951/488
f 735/1949/488 53/1951/488 705/1952/488
f 742/1953/489 743/1954/489 54/1955/489
f 742/1953/489 54/1955/489 53/1956/489
f 736/1957/490 744/1958/490 742/1959/490
f 736/1957/490 742/1959/490 735/1960/490
f 744/1961/491 745/1962/491 743/1963/491
f 744/1961/491 743/1963/491 742/1964/491
usemtl common_table_steel
f 360/1965/492 4/1966/492 8/1967/492
f 360/1965/492 8/1967/492 746/1968/492
f 13/1969/493 376/1970/493 747/1971/493
f 13/1969/493 747/1971/493 17/1972/493
f 291/1973/494 747/1974/494 371/1975/494
f 291/1973/494 371/1975/494 293/1976/494
usemtl common_steel_norivets
f 301/1977/495 748/1978/495 749/1979/495
f 301/1977/495 749/1979/495 324/1980/495
usemtl precision_assembler
f 324/1981/496 749/1982/496 750/1983/496
f 324/1981/496 750/1983/496 372/1984/496
f 754/1985/497 752/1986/497 751/1987/497
f 754/1985/497 751/1987/497 753/1988/497
f 757/1989/498 755/1990/498 756/1991/498
f 757/1989/498 756/1991/498 758/1992/498
f 751/1993/499 752/1994/499 756/1995/499
f 751/1993/499 756/1995/499 755/1996/499
f 754/1997/500 753/1998/500 757/1999/500
f 754/1997/500 757/1999/500 758/2000/500
f 753/2001/501 751/2002/501 755/2003/501
f 753/2001/501 755/2003/501 757/2004/501
usemtl common_machinebase
f 761/2005/502 760/2006/502 58/2007/502
f 761/2005/502 58/2007/502 567/2008/502
f 762/2009/503 761/2010/503 567/2011/503
f 762/2009/503 567/2011/503 57/2012/503
f 763/2013/504 762/2014/504 57/2015/504
f 763/2013/504 57/2015/504 61/2016/504
f 765/2017/505 764/2018/505 56/2019/505
f 765/2017/505 56/2019/505 72/2020/505
f 766/2021/506 765/2022/506 72/2023/506
f 766/2021/506 72/2023/506 71/2024/506
f 767/2025/507 766/2026/507 71/2027/507
f 767/2025/507 71/2027/507 74/2028/507
usemtl precision_assembler
f 477/2029/508 473/2030/508 142/2031/508
f 477/2029/508 142/2031/508 604/2032/508
f 137/2033/509 472/2034/509 476/2035/509
f 137/2033/509 476/2035/509 578/2036/509
usemtl common_rough_steel
f 534/2037/510 170/2038/510 303/2039/510
f 534/2037/510 303/2039/510 535/2040/510