# Made by Pabilo8 with Blockbench
# Exported with IIToolkit Plugin
mtllib precision_assembler.mtl


o main
v -2 0.125 1
v -0.125 1.0625 0.875
v 0 1.0625 0.875
v -0.125 1 0.875
v 0 1 0.875
v -0.125 1.0625 2.0625
v 0 1.0625 2.0625
v -0.125 1 2.0625
v 0 1 2.0625
v 1 1.0625 0.875
v 1.125 1.0625 0.875
v 1 1 0.875
v 1.125 1 0.875
v 1 1.0625 2.0625
v 1.125 1.0625 2.0625
v 1 1 2.0625
v 1.125 1 2.0625
v 1.03125 1.125 1.6875
v 1.09375 1.125 1.6875
v 1.03125 1.0625 1.6875
v 1.09375 1.0625 1.6875
v 1.03125 1.125 1.9375
v 1.09375 1.125 1.9375
v 1.03125 1.0625 1.9375
v 1.09375 1.0625 1.9375
v 1.03125 1.125 1
v 1.09375 1.125 1
v 1.03125 1.0625 1
v 1.09375 1.0625 1
v 1.03125 1.125 1.25
v 1.09375 1.125 1.25
v 1.03125 1.0625 1.25
v 1.09375 1.0625 1.25
v -0.09375 1.125 1
v -0.03125 1.125 1
v -0.09375 1.0625 1
v -0.03125 1.0625 1
v -0.09375 1.125 1.25
v -0.03125 1.125 1.25
v -0.09375 1.0625 1.25
v -0.03125 1.0625 1.25
v -0.09375 1.125 1.6875
v -0.03125 1.125 1.6875
v -0.09375 1.0625 1.6875
v -0.03125 1.0625 1.6875
v -0.09375 1.125 1.9375
v -0.03125 1.125 1.9375
v -0.09375 1.0625 1.9375
v -0.03125 1.0625 1.9375
v -1.3125 2.1875 2.75
v 0 0 2
v 1 0 2
v 0 0 3
v 1 0 3
v 0 0 1
v 1 0 1
v -2 0.5 0
v 0 0.5 0
v -2 0 0
v 0 0 0
v -2 0.5 1
v -2 0 1
v -1.875 0 1
v -1.875 0 2
v -2 0.5 2
v -2 0 2
v -2 0.5 3
v -2 0 3
v 3 0.5 0
v 1 0.5 0
v 3 0 0
v 1 0 0
v 3 0.5 1
v 3 0 1
v 2.875 0 1
v 2.875 0 2
v 3 0.5 2
v 3 0 2
v 3 0.5 3
v 3 0 3
v -1.9375 0.9375 0.0625
v 0 0.9375 0.0625
v -1.9375 0.5 0.0625
v 0 0.5 0.0625
v 2.9375 0.9375 0.0625
v 1 0.9375 0.0625
v 2.9375 0.5 0.0625
v 1 0.5 0.0625
v 1 0.9375 2.9375
v -1.9375 0.5 1
v -1.875 0.5 1
v -1.9375 0 1
v -1.9375 0.5 2
v -1.875 0.5 2
v -1.9375 0 2
v -1.9375 0.125 1
v -1.9375 0.125 2
v -2 0.125 2
v -2 0.9375 1.375
v -1.9375 0.9375 1.375
v -2 0.75 1.375
v -1.9375 0.75 1.375
v -2 0.9375 1.625
v -1.9375 0.9375 1.625
v -2 0.75 1.625
v -1.9375 0.75 1.625
v -1.9375 0.75 1.25
v -2 0.75 1.25
v -1.9375 0.25 1.25
v -2 0.25 1.25
v -1.9375 0.75 1.75
v -2 0.75 1.75
v -1.9375 0.25 1.75
v -2 0.25 1.75
v -1.9375 0.9375 1
v -1.875 0.9375 1
v -1.9375 0.9375 2
v -1.875 0.9375 2
v -2 0.9375 2
v -2 0.9375 2.125
v -1.875 0.9375 2.125
v -2 0.5 2.125
v -1.875 0.5 2.125
v -2 0.9375 0
v -1.875 0.9375 0
v -1.875 0.5 0
v -2 0.9375 0.125
v -1.875 0.9375 0.125
v -2 0.5 0.125
v -1.875 0.5 0.125
v -2 0.9375 0.875
v -1.875 0.9375 0.875
v -2 0.5 0.875
v -1.875 0.5 0.875
v -2 0.9375 1
v -0.125 0.9375 0
v 0 0.9375 0
v -0.125 0.5 0
v -0.125 0.9375 0.0625
v -0.125 0.5 0.0625
v 1.125 0.9375 0
v 1 0.9375 0
v 1.125 0.5 0
v 1.125 0.9375 0.0625
v 1.125 0.5 0.0625
v 3 0.9375 0
v 2.875 0.9375 0
v 2.875 0.5 0
v 3 0.9375 0.125
v 2.875 0.9375 0.125
v 3 0.5 0.125
v 2.875 0.5 0.125
v 3 0.9375 2.875
v 2.875 0.9375 2.875
v 3 0.5 2.875
v 2.875 0.5 2.875
v 3 0.9375 3
v 2.875 0.9375 3
v 2.875 0.5 3
v -2 0.9375 2.875
v -1.875 0.9375 2.875
v -2 0.5 2.875
v -1.875 0.5 2.875
v -2 0.9375 3
v -1.875 0.9375 3
v -1.875 0.5 3
v 3 1 2
v 1 1 2
v 3 0.9375 2
v 1 0.9375 2
v 3 1 3
v 1 1 3
v 1 0.9375 3
v -1.0625 2.3125 2
v -1 2.3125 2
v -1.0625 1.875 2
v -1 1.875 2
v -1.0625 2.3125 2.875
v -1 2.3125 2.875
v -1.0625 1.875 2.875
v -1 1.875 2.875
v -1.25 2.25 2.125
v -1.0625 2.25 2.125
v -1.3125 2.1875 2.125
v -1.0625 2.1875 2.125
v -1.25 2.25 2.375
v -1.0625 2.25 2.375
v -1.3125 2.1875 2.375
v -1.0625 2.1875 2.375
v -1.3125 1.875 2.125
v -1.0625 1.875 2.125
v -1.3125 1.875 2.375
v -1.0625 1.875 2.375
v -1.3125 2.1875 2.5
v -1.0625 2.1875 2.5
v -1.3125 1.875 2.5
v -1.0625 1.875 2.5
v -1.0625 2.1875 2.75
v -1.3125 1.875 2.75
v -1.0625 1.875 2.75
v -1.25 2.25 2.5
v -1.0625 2.25 2.5
v -1.25 2.25 2.75
v -1.0625 2.25 2.75
v -0.8125 1.6875 2.125
v -0.5625 1.6875 2.125
v -0.8125 1.375 2.125
v -0.5625 1.375 2.125
v -0.8125 1.6875 2.375
v -0.5625 1.6875 2.375
v -0.8125 1.375 2.375
v -0.5625 1.375 2.375
v -0.8125 2 2.5
v -0.5625 2 2.5
v -0.8125 1.6875 2.5
v -0.5625 1.6875 2.5
v -0.8125 2 2.75
v -0.5625 2 2.75
v -0.8125 1.6875 2.75
v -0.5625 1.6875 2.75
v -0.8125 1.375 2.5
v -0.5625 1.375 2.5
v -0.8125 1.375 2.75
v -0.5625 1.375 2.75
v -0.8125 1.125 2.5
v -0.5625 1.125 2.5
v -0.8125 1.125 2.75
v -0.5625 1.125 2.75
v -0.8125 1.125 2.125
v -0.5625 1.125 2.125
v -0.8125 1.125 2.375
v -0.5625 1.125 2.375
v -0.8125 2 2.125
v -0.5625 2 2.125
v -0.8125 2 2.375
v -0.5625 2 2.375
v -0.8125 2.1875 2.5
v -0.5625 2.069444375 2.5
v -0.8125 2.1875 2.75
v -0.5625 2.069444375 2.75
v -0.875 2.1875 2.5
v -0.875 1.9375 2.5
v -0.8125 1.9375 2.5
v -0.875 2.1875 2.75
v -0.875 1.9375 2.75
v -0.8125 1.9375 2.75
v -0.8125 2.1875 2.125
v -0.5625 2.069444375 2.125
v -0.8125 2.1875 2.375
v -0.5625 2.069444375 2.375
v -0.875 2.1875 2.125
v -0.875 1.9375 2.125
v -0.8125 1.9375 2.125
v -0.875 2.1875 2.375
v -0.875 1.9375 2.375
v -0.8125 1.9375 2.375
v -0.84375 1.125 2.09375
v -0.53125 1.125 2.09375
v -0.84375 1.0625 2.09375
v -0.53125 1.0625 2.09375
v -0.84375 1.125 2.40625
v -0.53125 1.125 2.40625
v -0.84375 1.0625 2.40625
v -0.53125 1.0625 2.40625
v -0.84375 1.125 2.46875
v -0.53125 1.125 2.46875
v -0.84375 1.0625 2.46875
v -0.53125 1.0625 2.46875
v -0.84375 1.125 2.78125
v -0.53125 1.125 2.78125
v -0.84375 1.0625 2.78125
v -0.53125 1.0625 2.78125
v -0.9375 1 2
v -0.9375 1.0625 2
v -0.5 1 2
v -0.5 1.0625 2
v -0.9375 1.0625 2.875
v -0.5 1 2.875
v -0.5 1.0625 2.875
v -0.9375 2.3125 2
v -0.875 2.3125 2
v -0.9375 1.875 2
v -0.875 1.875 2
v -0.9375 2.3125 2.875
v -0.875 2.3125 2.875
v -0.9375 1.875 2.875
v -0.875 1.875 2.875
v -0.5 1.0625 2.0625
v 1.5 1.0625 2.0625
v -0.5 1 2.0625
v 1.5 1 2.0625
v 1.5 1.0625 2.875
v 1.5 1 2.875
v 3 1 1
v 1 1 1
v 3 0.9375 1
v 1 0.9375 1
v -2 1 1
v 0 1 1
v 0 0.9375 1
v -2 1 2
v 0 1 2
v 0 0.9375 2
v -2 1 0
v 0 1 0
v 3 1 0
v 1 1 0
v 1.170029375 1.75 -0.11185687499999997
v 1.90625 1.75 0.03125
v 1.170029375 1 -0.11185687499999997
v 1.90625 1 0.03125
v 1.0269231249999997 1.75 0.6243637500000001
v 1.763143125 1.75 0.7674706249999996
v 1.0269231249999997 1 0.6243637500000001
v 1.763143125 1 0.7674706249999996
v 1.984731875 1.625 0.10792312500000012
v 2.8512162500000002 1.625 -0.0138531249999998
v 1.984731875 1 0.10792312500000012
v 2.8512162500000002 1 -0.0138531249999998
v 2.071715 1.625 0.7268406249999999
v 2.938199375 1.625 0.605064375
v 2.071715 1 0.7268406249999999
v 2.938199375 1 0.605064375
v -2 1 3
v 0 1 3
v 0 0.9375 3
v 1.875 2.3125 2.875
v 2 2.3125 2.875
v 1.875 1.125 2.875
v 2 1.125 2.875
v 1.875 2.3125 3
v 2 2.3125 3
v 1.875 1.125 3
v 2 1.125 3
v 1.875 2.3125 0.75
v 2 2.3125 0.75
v 1.875 1.125 0.75
v 2 1.125 0.75
v 1.875 2.3125 0.875
v 2 2.3125 0.875
v 1.875 1.125 0.875
v 2 1.125 0.875
v -1 1.125 2.875
v -0.875 1.125 2.875
v -1 2.3125 3
v -0.875 2.3125 3
v -1 1.125 3
v -0.875 1.125 3
v -1 2.3125 0.75
v -0.875 2.3125 0.75
v -1 1.125 0.75
v -0.875 1.125 0.75
v -1 2.3125 0.875
v -0.875 2.3125 0.875
v -1 1.125 0.875
v -0.875 1.125 0.875
v -1 2.4375 0.875
v -0.9375 2.4375 0.875
v -1 1 0.875
v -0.9375 1 0.875
v -1 2.4375 2.875
v -0.9375 2.4375 2.875
v -1 1 2.875
v -0.9375 1 2.875
v -1 2.4375 0.75
v 2 2.4375 0.75
v 2 2.4375 0.875
v 2 2.4375 2.875
v -1 2.4375 3
v 2 2.4375 3
v 2 1 2.875
v -1 1 3
v 2 1 3
v -1 1 0.75
v 2 1 0.75
v 2 1 0.875
v -2 1.875 2
v -2 1.875 3
v -1 1.875 3
v 2.25 3 2.25
v 2.75 3 2.25
v 2.1875 2.9375 2.1875
v 2.8125 2.9375 2.1875
v 2.25 3 2.75
v 2.75 3 2.75
v 2.1875 2.9375 2.8125
v 2.8125 2.9375 2.8125
v 2.1875 2.4375 2.1875
v 2.8125 2.4375 2.1875
v 2.1875 2.4375 2.8125
v 2.8125 2.4375 2.8125
v 2.0625 2.4375 2.0625
v 2.9375 2.4375 2.0625
v 2 2.375 2
v 3 2.375 2
v 2.0625 2.4375 2.9375
v 2.9375 2.4375 2.9375
v 2 2.375 3
v 3 2.375 3
v 2 1 2
v 2 1.625 0.9375
v 2.3125 1.625 0.9375
v 2 1.5 0.9375
v 2.375 1.5 0.9375
v 2 1.625 1.8125
v 2.3125 1.625 1.8125
v 2 1.5 1.8125
v 2.375 1.5 1.8125
v 2 1.9375 0.9375
v 2.375 1.9375 0.9375
v 2 1.8125 0.9375
v 2.3125 1.8125 0.9375
v 2 1.9375 1.8125
v 2.375 1.9375 1.8125
v 2 1.8125 1.8125
v 2.3125 1.8125 1.8125
v 2.75 2.4375 0.75
v 2 1.9375 0.75
v 2.6875 1.9375 0.75
v 2 2.4375 2
v 2.75 2.4375 2
v 2 1.9375 2
v 2.6875 1.9375 2
v 2 1.5 0.75
v 2.6875 1.5 0.75
v 2.6875 1.9375 0.9375
v 2.6875 1.5 0.9375
v 2.75 1 0.75
v 2.75 1 2
v 2 1.5 2
v 2.6875 1.5 2
v 2.6875 1.9375 1.8125
v 2.6875 1.5 1.8125
v 3 0.9375 0.875
v 2.875 0.9375 0.875
v 3 0.5 0.875
v 2.875 0.5 0.875
v 2.875 0.9375 1
v 2.875 0.5 1
v 2.875 0.9375 2
v 2.875 0.5 2
v 3 0.9375 2.125
v 2.875 0.9375 2.125
v 3 0.5 2.125
v 2.875 0.5 2.125
v 2.9375 0.5 1
v 2.9375 0 1
v 2.9375 0.5 2
v 2.9375 0 2
v 2.9375 0.9375 1
v 2.9375 0.9375 2
v 3 0.125 1
v 2.9375 0.125 1
v 3 0.125 2
v 2.9375 0.125 2
v 2.9375 0.9375 1.375
v 3 0.9375 1.375
v 2.9375 0.75 1.375
v 3 0.75 1.375
v 2.9375 0.9375 1.625
v 3 0.9375 1.625
v 2.9375 0.75 1.625
v 3 0.75 1.625
v 2.9375 0.75 1.25
v 3 0.75 1.25
v 2.9375 0.25 1.25
v 3 0.25 1.25
v 2.9375 0.75 1.75
v 3 0.75 1.75
v 2.9375 0.25 1.75
v 3 0.25 1.75
v 0 0.125 0
v 1 0.125 0
v 0 0.0625 0
v 1 0.0625 0
v 0 0.125 0.75
v 1 0.125 0.75
v 0 0.0625 0.75
v 1 0.0625 0.75
v 0 0.4375 0
v 1 0.4375 0
v 0 0.5 0.75
v 1 0.5 0.75
v 0 0.4375 0.75
v 1 0.4375 0.75
v 0 1.0012587499999999 0.038481250000000244
v 1 1.0012587499999999 0.038481250000000244
v 0 0.9850824999999999 -0.021889374999999767
v 1 0.9850824999999999 -0.021889374999999767
v 0 0.9408881249999999 0.05465750000000025
v 1 0.9408881249999999 0.05465750000000025
v 0 0.925669375 -0.0062549999999998995
v 1 0.925669375 -0.0062549999999998995
v 0 1.1207406249999998 0.7176475
v 1 1.1207406249999998 0.7176475
v 0 1 0.75
v 1 1 0.75
v 0 0.8058856250000002 0.02555562499999997
v 1 0.8058856250000002 0.02555562499999997
v -1.75 1.75 0.9375
v -1.25 1.75 0.9375
v -1.75 1.25 0.9375
v -1.25 1.25 0.9375
v -1.75 1.75 1
v -1.25 1.75 1
v -1.75 1.25 1
v -1.25 1.25 1
v 1 0.5 1
v 0 0.5 1
v -0.9375 2.25 1
v -0.875 2.25 1
v -0.9375 2.1875 1
v -0.875 2.1875 1
v -0.9375 2.25 1.625
v -0.875 2.25 1.625
v -0.9375 2.1875 1.625
v -0.875 2.1875 1.625
v -0.9375 1.6875 1
v -0.875 1.6875 1
v -0.9375 1.625 1
v -0.875 1.625 1
v -0.9375 1.6875 1.625
v -0.875 1.6875 1.625
v -0.9375 1.625 1.625
v -0.875 1.625 1.625
v -0.9375 2.1875 1.0625
v -0.875 2.1875 1.0625
v -0.9375 1.6875 1.0625
v -0.875 1.6875 1.0625
v -0.9375 2.1875 1.5625
v -0.875 2.1875 1.5625
v -0.9375 1.6875 1.5625
v -0.875 1.6875 1.5625
v 1 0.5 2
v 0 0.5 2
v 0.0625 1.125 2.1875
v 0.0625 1.125 2.6875
v -0.4375 1.125 2.6875
v -0.4375 1.125 2.1875
v -0.4375 1.0625 2.1875
v -0.4375 1.0625 2.6875
v 0.0625 1.0625 2.6875
v 0.0625 1.0625 2.1875
v 0.71875 1.125 2.1875
v 0.71875 1.125 2.6875
v 0.21875 1.125 2.6875
v 0.21875 1.125 2.1875
v 0.21875 1.0625 2.1875
v 0.21875 1.0625 2.6875
v 0.71875 1.0625 2.6875
v 0.71875 1.0625 2.1875
v 1.375 1.125 2.1875
v 1.375 1.125 2.6875
v 0.875 1.125 2.6875
v 0.875 1.125 2.1875
v 0.875 1.0625 2.1875
v 0.875 1.0625 2.6875
v 1.375 1.0625 2.6875
v 1.375 1.0625 2.1875
v 1.375 0 0
v 1.375 0 1
v 1.375 0 0.5
v 1 0 0.5
v 3 0 0.5
v -0.375 0 0
v -0.375 0 1
v -0.375 0.5 0
v -0.375 0 0.5
v 0 0 0.5
v -2 0 0.5
v 0 0.0625 1
v 1 0.0625 1
v 0 0.0625 0.625
v 1 0.0625 0.625
v 0 0 0.625
v 1 0 0.625
v -2 0.9375 0.75
v 0 0.9375 0.75
v -1 1 0
v -1 0.9375 0
v -1 0.9375 0.75
v -1 0.9375 1
v -1 1 1
v 0 1 0.375
v 0 0.9375 0.375
v -1 0.9375 0.375
v -2 0.9375 0.375
v -1.125 1 1
v -1.125 1 0
v -1.125 0.9375 0
v -1.125 0.9375 0.375
v -1.125 0.9375 0.75
v -1.125 0.9375 1
v -1.125 1 0.625
v -1 1 0.625
v 0 1 0.625
v 0 0.9375 0.625
v -1 0.9375 0.625
v -1.125 0.9375 0.625
v -2 0.9375 0.625
v -2 1 0.625
v 3 1 0.75
v 3 0.9375 0.75
v 1 0.9375 0.75
v 2.75 1 0
v 2.75 0.9375 0
v 2.75 0.9375 0.75
v 2.75 0.9375 1
v 2.75 1 1
v 2.75 1 0.375
v 1 1 0.375
v 1 0.9375 0.375
v 2.75 0.9375 0.375
v 3 0.9375 0.375
v 3 1 0.375
v 0.75 0 3
v 0.75 0 2
v 0.25 0 3
v 0.25 0 2
v 1.75 0 3
v 1.75 0 2
v 1.25 0 3
v 1.25 0 2
v -0.75 0 3
v -0.75 0 2
v -0.25 0 3
v -0.25 0 2
v -0.75 0.75 2.9375
v -0.25 0.75 2.9375
v -0.75 0.25 2.9375
v -0.25 0.25 2.9375
v -0.75 0.75 3
v -0.25 0.75 3
v -0.75 0.25 3
v -0.25 0.25 3
v 0.25 0.75 2.9375
v 0.75 0.75 2.9375
v 0.25 0.25 2.9375
v 0.75 0.25 2.9375
v 0.25 0.75 3
v 0.75 0.75 3
v 0.25 0.25 3
v 0.75 0.25 3
v 1.25 0.75 2.9375
v 1.75 0.75 2.9375
v 1.25 0.25 2.9375
v 1.75 0.25 2.9375
v 1.25 0.75 3
v 1.75 0.75 3
v 1.25 0.25 3
v 1.75 0.25 3
v -0.625 0.9375 2.9375
v -0.375 0.9375 2.9375
v -0.625 0.9375 3
v -0.375 0.9375 3
v -0.625 0.75 3
v -0.375 0.75 3
v -0.375 0.75 2.9375
v -0.625 0.75 2.9375
v 0.375 0.9375 2.9375
v 0.625 0.9375 2.9375
v 0.375 0.9375 3
v 0.625 0.9375 3
v 0.375 0.75 3
v 0.625 0.75 3
v 0.625 0.75 2.9375
v 0.375 0.75 2.9375
v 1.375 0.9375 2.9375
v 1.625 0.9375 2.9375
v 1.375 0.9375 3
v 1.625 0.9375 3
v 1.375 0.75 3
v 1.625 0.75 3
v 1.625 0.75 2.9375
v 1.375 0.75 2.9375
v -2 2 1
v -1 2 1
v -2 2 2
v -1 2 2
v -1 1 2
v -1 1 0.375
v -1.125 1 0.75
v 2.9375 0.5 3
v 2.9375 0.5 0
v 3 0.5 0.0625
v -2 0.5 0.0625
v -1.9375 0.5 0
v -1.9375 0.5 3
v 2.9375 0.9375 0.125
v 2.9375 0.5 0.125
v 2.9375 0.9375 0.875
v 2.9375 0.5 0.875
v 2.9375 0.9375 2.875
v 2.9375 0.9375 2.125
v 2.9375 0.5 2.875
v 2.9375 0.5 2.125
v -1.9375 0.9375 2.875
v -1.9375 0.9375 2.125
v -1.9375 0.5 2.875
v -1.9375 0.5 2.125
v -1.9375 0.9375 0.875
v -1.9375 0.9375 0.125
v -1.9375 0.5 0.875
v -1.9375 0.5 0.125
v -1 0 3
v -1.000520625 0.5 3
v -2 0.5 2.9375
v -1 0.5 2.9375
v -1.875 0.9375 2.9375
v -1.125 0.9375 2.9375
v -1.125 0.5 2.9375
v -1.875 0.5 2.9375
v -1.000520625 0.9375 3
v -1.1260418750000003 0.9375 3
v -1.1260418750000003 0.5 3
v -1.1260418750000003 0.9375 2.875
v -1.1260418750000003 0.5 2.875
v 2 0 3
v 2.000520625 0.5 3
v 3 0.5 2.9375
v 2 0.5 2.9375
v 2.875 0.9375 2.9375
v 2.125 0.9375 2.9375
v 2.125 0.5 2.9375
v 2.875 0.5 2.9375
v 2.000520625 0.9375 3
v 2.126041875 0.9375 3
v 2.126041875 0.5 3
v 2.126041875 0.9375 2.875
v 2.126041875 0.5 2.875
v -1 0.9375 2.9375
v 2 0.9375 2.9375
v -1 0 2.9375
v 2 0 2.9375
v -1 0.125 3
v -1 0.125 2.9375
v 2 0.125 2.9375
v 2 0.125 3
v 0 0.9375 2.9375
v 0 0 2.9375
v 1 0 2.9375
v 0 0.125 3
v 1 0.125 3
v 0 0.125 2.9375
v 1 0.125 2.9375
v -0.9375 1 2.0625
v 2 1 2.0625
v -2 1.4375 2
v -2 1.4375 3
v -1 1.4375 3
v -2.0625 1.6875 2.25
v -2 1.6875 2.25
v -2.0625 1.1875 2.25
v -2 1.1875 2.25
v -2.0625 1.6875 2.8125
v -2 1.6875 2.8125
v -2.0625 1.1875 2.8125
v -2 1.1875 2.8125
vt 0.0625 0.03125
vt 0.359375 0.03125
vt 0.359375 0
vt 0.0625 0
vt 0.375 0.015625
vt 0.671875 0.015625
vt 0.671875 0
vt 0.375 0
vt 0.234375 0.984375
vt 0.53125 0.984375
vt 0.53125 0.96875
vt 0.234375 0.96875
vt 0.140625 1
vt 0.4375 1
vt 0.4375 0.96875
vt 0.140625 0.96875
vt 0.265625 0.984375
vt 0.5625 0.984375
vt 0.5625 0.96875
vt 0.265625 0.96875
vt 1 0
vt 1 0
vt 1 0
vt 1 0
vt 0.984375 0.015625
vt 1 0.015625
vt 1 0
vt 0.984375 0
vt 0.984375 0.015625
vt 1 0.015625
vt 1 0
vt 0.984375 0
vt 0.578125 0.28125
vt 0.640625 0.28125
vt 0.640625 0.265625
vt 0.578125 0.265625
vt 0.453125 0.34375
vt 0.515625 0.34375
vt 0.515625 0.328125
vt 0.453125 0.328125
vt 0.875 0.015625
vt 0.9375 0.015625
vt 0.9375 0
vt 0.875 0
vt 0.984375 0.015625
vt 1 0.015625
vt 1 0
vt 0.984375 0
vt 0.984375 0.015625
vt 1 0.015625
vt 1 0
vt 0.984375 0
vt 0.578125 0.28125
vt 0.640625 0.28125
vt 0.640625 0.265625
vt 0.578125 0.265625
vt 0.453125 0.34375
vt 0.515625 0.34375
vt 0.515625 0.328125
vt 0.453125 0.328125
vt 0.875 0.015625
vt 0.9375 0.015625
vt 0.9375 0
vt 0.875 0
vt 0.984375 0.015625
vt 1 0.015625
vt 1 0
vt 0.984375 0
vt 0.984375 0.015625
vt 1 0.015625
vt 1 0
vt 0.984375 0
vt 0.578125 0.28125
vt 0.640625 0.28125
vt 0.640625 0.265625
vt 0.578125 0.265625
vt 0.453125 0.34375
vt 0.515625 0.34375
vt 0.515625 0.328125
vt 0.453125 0.328125
vt 0.875 0.015625
vt 0.9375 0.015625
vt 0.9375 0
vt 0.875 0
vt 0.984375 0.015625
vt 1 0.015625
vt 1 0
vt 0.984375 0
vt 0.984375 0.015625
vt 1 0.015625
vt 1 0
vt 0.984375 0
vt 0.578125 0.28125
vt 0.640625 0.28125
vt 0.640625 0.265625
vt 0.578125 0.265625
vt 0.453125 0.34375
vt 0.515625 0.34375
vt 0.515625 0.328125
vt 0.453125 0.328125
vt 0.875 0.015625
vt 0.9375 0.015625
vt 0.9375 0
vt 0.875 0
vt 0 0.5625
vt 0.25 0.5625
vt 0.25 0.5
vt 0 0.5
vt 0.5 0.25
vt 0.75 0.25
vt 0.75 0
vt 0.5 0
vt 0.40625 0.75
vt 0.40625 0.625
vt 0 0.625
vt 0 0.75
vt 0.625 1
vt 0.625 0.59375
vt 0.5 0.59375
vt 0.5 1
vt 0.25 0.96875
vt 0.5 0.96875
vt 0.5 0.5
vt 0.25 0.5
vt 0.25 0.5625
vt 0 0.5625
vt 0 0.6875
vt 0.25 0.6875
vt 0.625 0.34375
vt 0.625 0.25
vt 0.75 0.25
vt 0.75 0.34375
vt 0.5 0.5
vt 0.5 0.96875
vt 0.25 0.96875
vt 0.25 0.5
vt 0 0.6875
vt 0.25 0.6875
vt 0.25 1
vt 0 1
vt 0.015625 1
vt 0.484375 1
vt 0.484375 0.890625
vt 0.015625 0.890625
vt 0.484375 0.890625
vt 0.484375 1
vt 0.015625 1
vt 0.015625 0.890625
vt 1 0.4375
vt 0.984375 0.4375
vt 0.984375 0.3125
vt 1 0.3125
vt 0.015625 0.625
vt 0 0.625
vt 0 0.5
vt 0.015625 0.5
vt 0.28125 0.96875
vt 0.53125 0.96875
vt 0.53125 0.984375
vt 0.28125 0.984375
vt 0.75 0.125
vt 1 0.125
vt 1 0
vt 0.75 0
vt 1 0.015625
vt 1 0
vt 0.75 0
vt 0.75 0.015625
vt 0.59375 1
vt 0.59375 0.984375
vt 0.34375 0.984375
vt 0.34375 1
vt 0.75 0
vt 0.75 0.03125
vt 1 0.03125
vt 1 0
vt 0.015625 1
vt 0 1
vt 0 0.953125
vt 0.015625 0.953125
vt 0.0625 0.734375
vt 0.046875 0.734375
vt 0.046875 0.6875
vt 0.0625 0.6875
vt 0.125 0.734375
vt 0.0625 0.734375
vt 0.0625 0.6875
vt 0.125 0.6875
vt 0.390625 0.484375
vt 0.390625 0.609375
vt 0.375 0.609375
vt 0.375 0.484375
vt 0.5 0.484375
vt 0.5 0.609375
vt 0.484375 0.609375
vt 0.484375 0.484375
vt 0.375 0.59375
vt 0.375 0.609375
vt 0.5 0.609375
vt 0.5 0.59375
vt 0.375 0.484375
vt 0.375 0.5
vt 0.5 0.5
vt 0.5 0.484375
vt 0.5 0.484375
vt 0.5 0.609375
vt 0.375 0.609375
vt 0.375 0.484375
vt 1 0.4375
vt 0.984375 0.4375
vt 0.984375 0.3125
vt 1 0.3125
vt 0.015625 0.5
vt 0 0.5
vt 0 0.375
vt 0.015625 0.375
vt 0.390625 0.984375
vt 0.640625 0.984375
vt 0.640625 1
vt 0.390625 1
vt 0.75 0.234375
vt 1 0.234375
vt 1 0.125
vt 0.75 0.125
vt 0 0.78125
vt 0.03125 0.78125
vt 0.03125 0.671875
vt 0 0.671875
vt 0.75 0.796875
vt 0.71875 0.796875
vt 0.71875 0.6875
vt 0.75 0.6875
vt 0.96875 0.59375
vt 1 0.59375
vt 1 0.484375
vt 0.96875 0.484375
vt 0.734375 0.71875
vt 0.75 0.71875
vt 0.75 0.609375
vt 0.734375 0.609375
vt 0 0.78125
vt 0.03125 0.78125
vt 0.03125 0.671875
vt 0 0.671875
vt 0.71875 0.796875
vt 0.75 0.796875
vt 0.75 0.6875
vt 0.71875 0.6875
vt 0.96875 0.59375
vt 1 0.59375
vt 1 0.484375
vt 0.96875 0.484375
vt 0.734375 0.71875
vt 0.75 0.71875
vt 0.75 0.609375
vt 0.734375 0.609375
vt 0.03125 0.78125
vt 0 0.78125
vt 0 0.671875
vt 0.03125 0.671875
vt 0.71875 0.796875
vt 0.75 0.796875
vt 0.75 0.6875
vt 0.71875 0.6875
vt 1 0.59375
vt 0.96875 0.59375
vt 0.96875 0.484375
vt 1 0.484375
vt 0.734375 0.71875
vt 0.75 0.71875
vt 0.75 0.609375
vt 0.734375 0.609375
vt 0.71875 0.796875
vt 0.75 0.796875
vt 0.75 0.6875
vt 0.71875 0.6875
vt 0.71875 0.796875
vt 0.75 0.796875
vt 0.75 0.6875
vt 0.71875 0.6875
vt 0.984375 0.421875
vt 1 0.421875
vt 1 0.3125
vt 0.984375 0.3125
vt 0.734375 0.71875
vt 0.75 0.71875
vt 0.75 0.609375
vt 0.734375 0.609375
vt 0.75 0.6875
vt 0.75 0.796875
vt 0.71875 0.796875
vt 0.71875 0.6875
vt 0.75 0.6875
vt 0.75 0.796875
vt 0.71875 0.796875
vt 0.71875 0.6875
vt 1 0.3125
vt 1 0.421875
vt 0.984375 0.421875
vt 0.984375 0.3125
vt 0.75 0.609375
vt 0.75 0.71875
vt 0.734375 0.71875
vt 0.734375 0.609375
vt 0.03125 0.671875
vt 0.03125 0.78125
vt 0 0.78125
vt 0 0.671875
vt 0.75 0.6875
vt 0.75 0.796875
vt 0.71875 0.796875
vt 0.71875 0.6875
vt 1 0.484375
vt 1 0.59375
vt 0.96875 0.59375
vt 0.96875 0.484375
vt 0.75 0.609375
vt 0.75 0.71875
vt 0.734375 0.71875
vt 0.734375 0.609375
vt 0.03125 0.671875
vt 0.03125 0.78125
vt 0 0.78125
vt 0 0.671875
vt 0.75 0.6875
vt 0.75 0.796875
vt 0.71875 0.796875
vt 0.71875 0.6875
vt 0.96875 0.484375
vt 0.96875 0.59375
vt 1 0.59375
vt 1 0.484375
vt 0.75 0.609375
vt 0.75 0.71875
vt 0.734375 0.71875
vt 0.734375 0.609375
vt 0 0.78125
vt 0.03125 0.78125
vt 0.03125 0.671875
vt 0 0.671875
vt 0.71875 0.796875
vt 0.75 0.796875
vt 0.75 0.6875
vt 0.71875 0.6875
vt 1 0.59375
vt 0.96875 0.59375
vt 0.96875 0.484375
vt 1 0.484375
vt 0.734375 0.71875
vt 0.75 0.71875
vt 0.75 0.609375
vt 0.734375 0.609375
vt 0.5 0.984375
vt 0.5 1
vt 0 1
vt 0 0.984375
vt 0.25 0.5
vt 0.25 1
vt 0 1
vt 0 0.5
vt 0.25 0
vt 0.25 0.015625
vt 0 0.015625
vt 0 0
vt 0.1328125 0.5859375
vt 0.140625 0.5859375
vt 0.140625 0.53125
vt 0.1328125 0.53125
vt 0.234375 0.5859375
vt 0.2421875 0.5859375
vt 0.2421875 0.53125
vt 0.234375 0.53125
vt 0.1328125 0.5859375
vt 0.2421875 0.5859375
vt 0.2421875 0.578125
vt 0.1328125 0.578125
vt 0.1328125 0.5859375
vt 0.2421875 0.5859375
vt 0.2421875 0.53125
vt 0.1328125 0.53125
vt 0.015625 0.359375
vt 0.0625 0.359375
vt 0.0625 0.34375
vt 0 0.34375
vt 0 0.359375
vt 0.046875 0.359375
vt 0.0625 0.34375
vt 0 0.34375
vt 0 0.375
vt 0.0625 0.375
vt 0.0625 0.328125
vt 0 0.328125
vt 0 0.375
vt 0.0625 0.375
vt 0.0625 0.352903125
vt 0 0.352903125
vt 0 0.453125
vt 0.0625 0.453125
vt 0.0625 0.375
vt 0 0.375
vt 0 0.453125
vt 0.0625 0.453125
vt 0.0625 0.375
vt 0 0.375
vt 0 0.453125
vt 0.0625 0.453125
vt 0.0625 0.375
vt 0 0.375
vt 0 0.453125
vt 0.0625 0.453125
vt 0.0625 0.375
vt 0 0.375
vt 0 0.453125
vt 0.0625 0.453125
vt 0.0625 0.375
vt 0 0.375
vt 0 0.453125
vt 0.0625 0.453125
vt 0.0625 0.375
vt 0 0.375
vt 0.015625 0.359375
vt 0.0625 0.359375
vt 0.0625 0.34375
vt 0 0.34375
vt 0 0.359375
vt 0.046875 0.359375
vt 0.0625 0.34375
vt 0 0.34375
vt 0 0.375
vt 0.0625 0.375
vt 0.0625 0.328125
vt 0 0.328125
vt 0 0.375
vt 0.0625 0.375
vt 0.0625 0.352903125
vt 0 0.352903125
vt 0 0.40625
vt 0.0625 0.40625
vt 0.0625 0.328125
vt 0 0.328125
vt 0 0.40625
vt 0.0625 0.40625
vt 0.0625 0.328125
vt 0 0.328125
vt 0 0.40625
vt 0.0625 0.40625
vt 0.0625 0.328125
vt 0 0.328125
vt 0 0.40625
vt 0.0625 0.40625
vt 0.0625 0.328125
vt 0 0.328125
vt 0 0.484375
vt 0.0625 0.484375
vt 0.0625 0.40625
vt 0 0.40625
vt 0 0.484375
vt 0.0625 0.484375
vt 0.0625 0.40625
vt 0 0.40625
vt 0 0.484375
vt 0.0625 0.484375
vt 0.0625 0.40625
vt 0 0.40625
vt 0 0.484375
vt 0.0625 0.484375
vt 0.0625 0.40625
vt 0 0.40625
vt 0 0.40625
vt 0.0625 0.40625
vt 0.0625 0.328125
vt 0 0.328125
vt 0 0.40625
vt 0.0625 0.40625
vt 0.0625 0.328125
vt 0 0.328125
vt 0 0.40625
vt 0.0625 0.40625
vt 0.0625 0.328125
vt 0 0.328125
vt 0 0.40625
vt 0.0625 0.40625
vt 0.0625 0.328125
vt 0 0.328125
vt 0 0.390625
vt 0.0625 0.390625
vt 0.0625 0.328125
vt 0 0.328125
vt 0 0.390625
vt 0.0625 0.390625
vt 0.0625 0.328125
vt 0 0.328125
vt 0 0.390625
vt 0.0625 0.390625
vt 0.0625 0.328125
vt 0 0.328125
vt 0 0.390625
vt 0.0625 0.390625
vt 0.0625 0.328125
vt 0 0.328125
vt 0 0.390625
vt 0.0625 0.390625
vt 0.0625 0.328125
vt 0 0.328125
vt 0 0.390625
vt 0.0625 0.390625
vt 0.0625 0.328125
vt 0 0.328125
vt 0 0.390625
vt 0.0625 0.390625
vt 0.0625 0.328125
vt 0 0.328125
vt 0 0.390625
vt 0.0625 0.390625
vt 0.0625 0.328125
vt 0 0.328125
vt 0 0.484375
vt 0.0625 0.484375
vt 0.0625 0.40625
vt 0 0.40625
vt 0 0.484375
vt 0.0625 0.484375
vt 0.0625 0.40625
vt 0 0.40625
vt 0 0.484375
vt 0.0625 0.484375
vt 0.0625 0.40625
vt 0 0.40625
vt 0 0.484375
vt 0.0625 0.484375
vt 0.0625 0.40625
vt 0 0.40625
vt 0.25 0.421875
vt 0.1875 0.3923609375
vt 0.1875 0.375
vt 0.25 0.375
vt 0.1875 0.3923609375
vt 0.25 0.421875
vt 0.25 0.375
vt 0.1875 0.375
vt 0.0625 0.3277578125
vt 0 0.3277578125
vt 0 0.390625
vt 0.0625 0.390625
vt 0 0.375
vt 0.0625 0.375
vt 0.0625 0.3576390625
vt 0 0.3576390625
vt 0.0625 0.3828125
vt 0.0625 0.3671875
vt 0 0.3671875
vt 0 0.3828125
vt 0 0.3515625
vt 0 0.3671875
vt 0.0625 0.3671875
vt 0.0625 0.3515625
vt 0 0.34375
vt 0.0625 0.34375
vt 0.0625 0.328125
vt 0 0.328125
vt 0 0.359375
vt 0.0625 0.359375
vt 0.0625 0.34375
vt 0 0.34375
vt 0.25 0.421875
vt 0.1875 0.3923609375
vt 0.1875 0.375
vt 0.25 0.375
vt 0.1875 0.3923609375
vt 0.25 0.421875
vt 0.25 0.375
vt 0.1875 0.375
vt 0.0625 0.3277578125
vt 0 0.3277578125
vt 0 0.390625
vt 0.0625 0.390625
vt 0 0.375
vt 0.0625 0.375
vt 0.0625 0.3576390625
vt 0 0.3576390625
vt 0.0625 0.3828125
vt 0.0625 0.3671875
vt 0 0.3671875
vt 0 0.3828125
vt 0 0.3515625
vt 0 0.3671875
vt 0.0625 0.3671875
vt 0.0625 0.3515625
vt 0 0.34375
vt 0.0625 0.34375
vt 0.0625 0.328125
vt 0 0.328125
vt 0 0.359375
vt 0.0625 0.359375
vt 0.0625 0.34375
vt 0 0.34375
vt 0 0.40625
vt 0.078125 0.40625
vt 0.078125 0.390625
vt 0 0.390625
vt 0 0.421875
vt 0.078125 0.421875
vt 0.078125 0.40625
vt 0 0.40625
vt 0.0078125 0.4765625
vt 0.0859375 0.4765625
vt 0.0859375 0.3984375
vt 0.0078125 0.3984375
vt 0 0.46875
vt 0.078125 0.46875
vt 0.078125 0.453125
vt 0 0.453125
vt 0 0.484375
vt 0.078125 0.484375
vt 0.078125 0.46875
vt 0 0.46875
vt 0 0.40625
vt 0.078125 0.40625
vt 0.078125 0.390625
vt 0 0.390625
vt 0 0.421875
vt 0.078125 0.421875
vt 0.078125 0.40625
vt 0 0.40625
vt 0.0078125 0.4765625
vt 0.0859375 0.4765625
vt 0.0859375 0.3984375
vt 0.0078125 0.3984375
vt 0 0.46875
vt 0.078125 0.46875
vt 0.078125 0.453125
vt 0 0.453125
vt 0 0.484375
vt 0.078125 0.484375
vt 0.078125 0.46875
vt 0 0.46875
vt 0.1328125 0.5859375
vt 0.140625 0.5859375
vt 0.140625 0.53125
vt 0.1328125 0.53125
vt 0.1328125 0.5390625
vt 0.2421875 0.5390625
vt 0.2421875 0.53125
vt 0.1328125 0.53125
vt 0.1328125 0.5859375
vt 0.2421875 0.5859375
vt 0.2421875 0.53125
vt 0.1328125 0.53125
vt 0.1328125 0.5859375
vt 0.140625 0.5859375
vt 0.140625 0.53125
vt 0.1328125 0.53125
vt 0.234375 0.5859375
vt 0.2421875 0.5859375
vt 0.2421875 0.53125
vt 0.234375 0.53125
vt 0.1328125 0.5859375
vt 0.2421875 0.5859375
vt 0.2421875 0.578125
vt 0.1328125 0.578125
vt 0.390625 0.390625
vt 0.5 0.390625
vt 0.5 0.3828125
vt 0.390625 0.3828125
vt 0.1328125 0.5859375
vt 0.2421875 0.5859375
vt 0.2421875 0.53125
vt 0.1328125 0.53125
vt 0.5859375 1
vt 0.5859375 0.75
vt 0.578125 0.75
vt 0.578125 1
vt 0.484375 0.75
vt 0.484375 1
vt 0.4921875 1
vt 0.4921875 0.75
vt 0.484375 1
vt 0.5859375 1
vt 0.5859375 0.75
vt 0.484375 0.75
vt 0.484375 1
vt 0.5859375 1
vt 0.5859375 0.9921875
vt 0.484375 0.9921875
vt 0.484375 0.7578125
vt 0.5859375 0.7578125
vt 0.5859375 0.75
vt 0.484375 0.75
vt 0.484375 0.3125
vt 0.234375 0.3125
vt 0.234375 0.25
vt 0.484375 0.25
vt 0.484375 0.5
vt 0.484375 1
vt 0.234375 1
vt 0.234375 0.5
vt 0.515625 0.984375
vt 0.515625 1
vt 0.265625 1
vt 0.265625 0.984375
vt 0.4375 0
vt 0.4375 0.015625
vt 0.1875 0.015625
vt 0.1875 0
vt 0.234375 1
vt 0.484375 1
vt 0.484375 0.5
vt 0.234375 0.5
vt 0.265625 1
vt 0.515625 1
vt 0.515625 0.984375
vt 0.265625 0.984375
vt 0.1875 0.015625
vt 0.4375 0.015625
vt 0.4375 0
vt 0.1875 0
vt 0.21875 0.984375
vt 0.21875 1
vt 0.25 1
vt 0.25 0.984375
vt 0.5 0.78125
vt 0.5625 0.78125
vt 0.5625 0.75
vt 0.5 0.75
vt 0.734375 0.984375
vt 0.734375 1
vt 0.796875 1
vt 0.796875 0.984375
vt 0.0625 1
vt 0.0625 0.984375
vt 0.5 0.984375
vt 0.5 1
vt 0.09375 0.5625
vt 0.09375 1
vt 0 1
vt 0 0.5625
vt 0.65625 0.5
vt 0.65625 0.9375
vt 0.5625 0.9375
vt 0.5625 0.5
vt 0.828125 0.984375
vt 0.828125 1
vt 0.734375 1
vt 0.734375 0.984375
vt 0.640625 1
vt 0.640625 0.984375
vt 0.734375 0.984375
vt 0.734375 1
vt 0 0.5625
vt 0.3125 0.5625
vt 0.3125 0.25
vt 0 0.25
vt 0 0.5625
vt 0.3125 0.5625
vt 0.3125 0.25
vt 0 0.25
vt 0 0.5625
vt 0.3125 0.5625
vt 0.3125 0.25
vt 0 0.25
vt 0 0.5625
vt 0.3125 0.5625
vt 0.3125 0.25
vt 0 0.25
vt 0 0.5625
vt 0.3125 0.5625
vt 0.3125 0.25
vt 0 0.25
vt 0 0.5625
vt 0.3125 0.5625
vt 0.3125 0.25
vt 0 0.25
vt 0.4375 1
vt 0.875 1
vt 0.875 0.6875
vt 0.4375 0.6875
vt 0.4375 1
vt 0.875 1
vt 0.875 0.6875
vt 0.4375 0.6875
vt 0.4375 0.6875
vt 0.4375 1
vt 0.875 1
vt 0.875 0.6875
vt 0.4375 0.6875
vt 0.4375 1
vt 0.875 1
vt 0.875 0.6875
vt 0 0.5625
vt 0.3125 0.5625
vt 0.3125 0.25
vt 0 0.25
vt 0 0.5625
vt 0.3125 0.5625
vt 0.3125 0.25
vt 0 0.25
vt 0 1
vt 0.5 1
vt 0.5 0.984375
vt 0 0.984375
vt 0 1
vt 0.25 1
vt 0.25 0.5
vt 0 0.5
vt 0 0.015625
vt 0.25 0.015625
vt 0.25 0
vt 0 0
vt 0.75 0.703125
vt 0.78125 0.703125
vt 0.78125 0.40625
vt 0.75 0.40625
vt 0.96875 0.609375
vt 1 0.609375
vt 1 0.3125
vt 0.96875 0.3125
vt 0.96875 0.703125
vt 1 0.703125
vt 1 0.40625
vt 0.96875 0.40625
vt 0.96875 0.734375
vt 1 0.734375
vt 1 0.4375
vt 0.96875 0.4375
vt 0 0.828125
vt 0.03125 0.828125
vt 0.03125 0.53125
vt 0 0.53125
vt 1 0.078125
vt 1 0.078125
vt 1 0
vt 1 0
vt 0.96875 0.6875
vt 1 0.6875
vt 1 0.390625
vt 0.96875 0.390625
vt 0 0.953125
vt 0.03125 0.953125
vt 0.03125 0.65625
vt 0 0.65625
vt 0 0.8125
vt 0.03125 0.8125
vt 0.03125 0.515625
vt 0 0.515625
vt 1 0.078125
vt 1 0.078125
vt 1 0
vt 1 0
vt 0.96875 0.75
vt 1 0.75
vt 1 0.453125
vt 0.96875 0.453125
vt 0 0.75
vt 0.03125 0.75
vt 0.03125 0.453125
vt 0 0.453125
vt 0.96875 0.453125
vt 1 0.453125
vt 1 0.15625
vt 0.96875 0.15625
vt 0.96875 0.8125
vt 1 0.8125
vt 1 0.515625
vt 0.96875 0.515625
vt 0.21875 0.265625
vt 0.71875 0.265625
vt 0.71875 0.25
vt 0.21875 0.25
vt 0.21875 1
vt 0.71875 1
vt 0.71875 0.640625
vt 0.21875 0.640625
vt 0.4375 0.7421875
vt 0.6875 0.7421875
vt 0.6875 0.5625
vt 0.4375 0.5625
vt 0 1
vt 0.75 1
vt 0.75 0.96875
vt 0 0.96875
vt 0 0.28125
vt 0.75 0.28125
vt 0.75 0.25
vt 0 0.25
vt 0.96875 1
vt 1 1
vt 1 0.25
vt 0.96875 0.25
vt 0.96875 1
vt 1 1
vt 1 0.25
vt 0.96875 0.25
vt 0.96875 0.25
vt 1 0.25
vt 1 0.21875
vt 0.96875 0.21875
vt 1 0
vt 1 0
vt 1 0
vt 1 0
vt 0 1
vt 0.75 1
vt 0.75 0.96875
vt 0 0.96875
vt 0 1
vt 0.75 1
vt 0.75 0.96875
vt 0 0.96875
vt 0.75 1
vt 0.78125 1
vt 0.78125 0.25
vt 0.75 0.25
vt 0.96875 1
vt 1 1
vt 1 0.25
vt 0.96875 0.25
vt 0 1
vt 0.03125 1
vt 0.03125 0.96875
vt 0 0.96875
vt 1 0
vt 1 0
vt 1 0
vt 1 0
vt 0 0.28125
vt 0.75 0.28125
vt 0.75 0.25
vt 0 0.25
vt 0 0.28125
vt 0.75 0.28125
vt 0.75 0.25
vt 0 0.25
vt 0.96875 1
vt 1 1
vt 1 0.25
vt 0.96875 0.25
vt 0 0.28125
vt 0.75 0.28125
vt 0.75 0.25
vt 0 0.25
vt 0 0.28125
vt 0.75 0.28125
vt 0.75 0.25
vt 0 0.25
vt 0.96875 1
vt 1 1
vt 1 0.25
vt 0.96875 0.25
vt 0.96875 0.96875
vt 1 0.96875
vt 1 1
vt 0.96875 1
vt 0.203125 1
vt 0.453125 1
vt 0.453125 0.984375
vt 0.203125 0.984375
vt 0.328125 1
vt 0.578125 1
vt 0.578125 0.984375
vt 0.328125 0.984375
vt 0.5 0.734375
vt 0.75 0.734375
vt 0.75 0.484375
vt 0.5 0.484375
vt 0 0.78125
vt 0.25 0.78125
vt 0.25 0.53125
vt 0 0.53125
vt 0.65625 1
vt 0.90625 1
vt 0.90625 0.984375
vt 0.65625 0.984375
vt 0.09375 0.015625
vt 0.34375 0.015625
vt 0.34375 0
vt 0.09375 0
vt 0.125 0.6484375
vt 0 0.6484375
vt 0 0.703125
vt 0.125 0.703125
vt 0 0.4609375
vt 0.125 0.4609375
vt 0.125 0.5859375
vt 0 0.5859375
vt 0.75 0.140625
vt 0.5 0.140625
vt 0.5 0.25
vt 0.75 0.25
vt 0.4296875 0.734375
vt 0.3515625 0.734375
vt 0.3515625 0.7265625
vt 0.4296875 0.7265625
vt 0.4296875 0.734375
vt 0.3515625 0.734375
vt 0.3515625 0.7265625
vt 0.4296875 0.7265625
vt 0 0.609375
vt 0.125 0.609375
vt 0.125 0.484375
vt 0 0.484375
vt 0.4296875 0.734375
vt 0.3515625 0.734375
vt 0.3515625 0.7265625
vt 0.4296875 0.7265625
vt 0.4296875 0.734375
vt 0.3515625 0.734375
vt 0.3515625 0.7265625
vt 0.4296875 0.7265625
vt 0.4296875 0.734375
vt 0.3515625 0.734375
vt 0.3515625 0.671875
vt 0.4296875 0.671875
vt 0.4296875 0.734375
vt 0.3515625 0.734375
vt 0.3515625 0.671875
vt 0.4296875 0.671875
vt 0.4296875 0.734375
vt 0.3515625 0.734375
vt 0.3515625 0.671875
vt 0.4296875 0.671875
vt 0.4296875 0.734375
vt 0.3515625 0.734375
vt 0.3515625 0.671875
vt 0.4296875 0.671875
vt 0.765625 0.022098437499999957
vt 0.984375 0.022098437499999957
vt 1 0
vt 0.75 0
vt 0.765625 0.022096875000000016
vt 0.984375 0.022096875000000016
vt 1 0
vt 0.75 0
vt 0.765625 0.234375
vt 0.984375 0.234375
vt 0.984375 0.015625
vt 0.765625 0.015625
vt 0.765625 0.022096875000000016
vt 0.984375 0.022096875000000016
vt 1 0
vt 0.75 0
vt 0.765625 0.022096875000000016
vt 0.984375 0.022096875000000016
vt 1 0
vt 0.75 0
vt 0.5 0.5546875
vt 0.375 0.5546875
vt 0.375 0.3828125
vt 0.5 0.3828125
vt 0.5 0.5546875
vt 0.375 0.5546875
vt 0.375 0.3828125
vt 0.5 0.3828125
vt 0.5 0.5546875
vt 0.375 0.5546875
vt 0.375 0.3828125
vt 0.5 0.3828125
vt 0.5 0.5546875
vt 0.375 0.5546875
vt 0.375 0.3828125
vt 0.5 0.3828125
vt 0.984375 0.546875
vt 0.765625 0.546875
vt 0.765625 0.46875
vt 0.984375 0.46875
vt 0.78125 0.03125
vt 1 0.03125
vt 1 0
vt 0.78125 0
vt 0.765625 0.484375
vt 0.984375 0.484375
vt 0.984375 0.4494359375
vt 0.765625 0.4494359375
vt 0.984375 0.53125
vt 0.765625 0.53125
vt 0.765625 0.453125
vt 0.984375 0.453125
vt 0.78125 0.25
vt 1 0.25
vt 1 0.21875
vt 0.78125 0.21875
vt 0.765625 0.546875
vt 0.984375 0.546875
vt 0.984375 0.5119359375
vt 0.765625 0.5119359375
vt 0.1328125 0.5234375
vt 0.2265625 0.5234375
vt 0.2265625 0.4609375
vt 0.1328125 0.4609375
vt 0.3671875 0.59375
vt 0.3671875 0.4375
vt 0.2734375 0.4375
vt 0.2734375 0.59375
vt 0.359375 0.59375
vt 0.359375 0.4375
vt 0.2734375 0.4375
vt 0.2734375 0.59375
vt 0.265625 0.6640625
vt 0.421875 0.6640625
vt 0.421875 0.6015625
vt 0.265625 0.6015625
vt 0.265625 0.6640625
vt 0.421875 0.6640625
vt 0.421875 0.6015625
vt 0.265625 0.6015625
vt 0.6015625 0.5546875
vt 0.5078125 0.5546875
vt 0.5078125 0.5
vt 0.6015625 0.5
vt 0.6015625 0.5546875
vt 0.515625 0.5546875
vt 0.515625 0.5
vt 0.6015625 0.5
vt 0.6328125 0.5546875
vt 0.609375 0.5546875
vt 0.609375 0.5
vt 0.6328125 0.5
vt 0.609375 0.5546875
vt 0.6328125 0.5546875
vt 0.6328125 0.5
vt 0.609375 0.5
vt 0.2265625 0.4609375
vt 0.2265625 0.5234375
vt 0.1328125 0.5234375
vt 0.1328125 0.4609375
vt 0.2734375 0.4375
vt 0.3671875 0.4375
vt 0.3671875 0.59375
vt 0.2734375 0.59375
vt 0.2734375 0.4375
vt 0.359375 0.4375
vt 0.359375 0.59375
vt 0.2734375 0.59375
vt 0.421875 0.6015625
vt 0.421875 0.6640625
vt 0.265625 0.6640625
vt 0.265625 0.6015625
vt 0.421875 0.6015625
vt 0.421875 0.6640625
vt 0.265625 0.6640625
vt 0.265625 0.6015625
vt 0.59375 0.5546875
vt 0.5078125 0.5546875
vt 0.5078125 0.5
vt 0.59375 0.5
vt 0.6328125 0.5546875
vt 0.609375 0.5546875
vt 0.609375 0.5
vt 0.6328125 0.5
vt 0.609375 0.5546875
vt 0.6328125 0.5546875
vt 0.6328125 0.5
vt 0.609375 0.5
vt 0 0.671875
vt 0 0.78125
vt 0.03125 0.78125
vt 0.03125 0.671875
vt 0.75 0.6875
vt 0.75 0.796875
vt 0.71875 0.796875
vt 0.71875 0.6875
vt 0.96875 0.484375
vt 0.96875 0.59375
vt 1 0.59375
vt 1 0.484375
vt 0.75 0.609375
vt 0.75 0.71875
vt 0.734375 0.71875
vt 0.734375 0.609375
vt 0.03125 0.671875
vt 0.03125 0.78125
vt 0 0.78125
vt 0 0.671875
vt 0.71875 0.6875
vt 0.71875 0.796875
vt 0.75 0.796875
vt 0.75 0.6875
vt 1 0.484375
vt 1 0.59375
vt 0.96875 0.59375
vt 0.96875 0.484375
vt 0.75 0.609375
vt 0.75 0.71875
vt 0.734375 0.71875
vt 0.734375 0.609375
vt 0.984375 0.3125
vt 0.984375 0.4375
vt 1 0.4375
vt 1 0.3125
vt 0 0.5
vt 0 0.625
vt 0.015625 0.625
vt 0.015625 0.5
vt 0.4375 0.984375
vt 0.4375 0.96875
vt 0.1875 0.96875
vt 0.1875 0.984375
vt 0.984375 0.3125
vt 0.984375 0.4375
vt 1 0.4375
vt 1 0.3125
vt 0 0.375
vt 0 0.5
vt 0.015625 0.5
vt 0.015625 0.375
vt 0.640625 1
vt 0.640625 0.984375
vt 0.390625 0.984375
vt 0.390625 1
vt 0.453125 1
vt 0.453125 0.984375
vt 0.203125 0.984375
vt 0.203125 1
vt 0.359375 1
vt 0.359375 0.984375
vt 0.109375 0.984375
vt 0.109375 1
vt 0.75 0
vt 0.75 0.03125
vt 1 0.03125
vt 1 0
vt 0 1
vt 0.015625 1
vt 0.015625 0.953125
vt 0 0.953125
vt 0.046875 0.734375
vt 0.0625 0.734375
vt 0.0625 0.6875
vt 0.046875 0.6875
vt 0 0.734375
vt 0.0625 0.734375
vt 0.0625 0.6875
vt 0 0.6875
vt 0.375 0.609375
vt 0.390625 0.609375
vt 0.390625 0.484375
vt 0.375 0.484375
vt 0.484375 0.609375
vt 0.5 0.609375
vt 0.5 0.484375
vt 0.484375 0.484375
vt 0.5 0.609375
vt 0.375 0.609375
vt 0.375 0.59375
vt 0.5 0.59375
vt 0.5 0.5
vt 0.375 0.5
vt 0.375 0.484375
vt 0.5 0.484375
vt 0.375 0.609375
vt 0.5 0.609375
vt 0.5 0.484375
vt 0.375 0.484375
vt 0 0.6015625
vt 0.125 0.6015625
vt 0.125 0.59375
vt 0 0.59375
vt 0 1
vt 0.09375 1
vt 0.09375 0.875
vt 0 0.875
vt 0 1
vt 0.09375 1
vt 0.09375 0.875
vt 0 0.875
vt 0 0.6015625
vt 0.125 0.6015625
vt 0.125 0.59375
vt 0 0.59375
vt 0 1
vt 0.09375 1
vt 0.09375 0.875
vt 0 0.875
vt 0 1
vt 0.09375 1
vt 0.09375 0.875
vt 0 0.875
vt 0.1875 0.96875
vt 0.3125 0.96875
vt 0.3125 0.9609375
vt 0.1875 0.9609375
vt 0.1875 0.8828125
vt 0.1875 0.890625
vt 0.3125 0.890625
vt 0.3125 0.8828125
vt 0.1875 0.875
vt 0.1875 0.8828125
vt 0.3125 0.8828125
vt 0.3125 0.875
vt 0.296875 0.8984375
vt 0.3046875 0.8984375
vt 0.3046875 0.890625
vt 0.296875 0.890625
vt 0.2890625 0.8984375
vt 0.296875 0.8984375
vt 0.296875 0.890625
vt 0.2890625 0.890625
vt 0.1875 0.96875
vt 0.3125 0.96875
vt 0.3125 0.875
vt 0.1875 0.875
vt 0.1875 0.96875
vt 0.3125 0.96875
vt 0.3125 0.875
vt 0.1875 0.875
vt 0.1875 0.953125
vt 0.1875 0.96875
vt 0.3125 0.96875
vt 0.3125 0.953125
vt 0.1875 0.875
vt 0.1875 0.890625
vt 0.3125 0.890625
vt 0.3125 0.875
vt 0.296875 0.96875
vt 0.3125 0.96875
vt 0.3125 0.875
vt 0.296875 0.875
vt 0.1875 0.96875
vt 0.203125 0.96875
vt 0.203125 0.875
vt 0.1875 0.875
vt 0.875 1
vt 1 1
vt 1 0.875
vt 0.875 0.875
vt 0.875 0.875
vt 0.875 0.890625
vt 1 0.890625
vt 1 0.875
vt 0.875 1
vt 0.875 0.984375
vt 1 0.984375
vt 1 1
vt 1 1
vt 0.984375 1
vt 0.984375 0.875
vt 1 0.875
vt 0.875 1
vt 0.890625 1
vt 0.890625 0.875
vt 0.875 0.875
vt 0.5 0.625
vt 0.5 0.75
vt 0.75 0.75
vt 0.75 0.625
vt 0.75 0.75
vt 0.5 0.75
vt 0.5 0.625
vt 0.75 0.625
vt 0.828125 0.015625
vt 0.84375 0.015625
vt 0.84375 0
vt 0.828125 0
vt 0.65625 0.015625
vt 0.671875 0.015625
vt 0.671875 0
vt 0.65625 0
vt 0.671875 0.015625
vt 0.828125 0.015625
vt 0.828125 0
vt 0.671875 0
vt 0.828125 0.015625
vt 0.984375 0.015625
vt 0.984375 0
vt 0.828125 0
vt 0.515625 0.265625
vt 0.671875 0.265625
vt 0.671875 0.25
vt 0.515625 0.25
vt 0.828125 0.015625
vt 0.84375 0.015625
vt 0.84375 0
vt 0.828125 0
vt 0.65625 0.015625
vt 0.671875 0.015625
vt 0.671875 0
vt 0.65625 0
vt 0.671875 0.015625
vt 0.828125 0.015625
vt 0.828125 0
vt 0.671875 0
vt 0.84375 0.265625
vt 1 0.265625
vt 1 0.25
vt 0.84375 0.25
vt 0.359375 0.015625
vt 0.515625 0.015625
vt 0.515625 0
vt 0.359375 0
vt 0.984375 0.28125
vt 1 0.28125
vt 1 0.15625
vt 0.984375 0.15625
vt 0.984375 0.46875
vt 1 0.46875
vt 1 0.34375
vt 0.984375 0.34375
vt 0.984375 0.578125
vt 1 0.578125
vt 1 0.453125
vt 0.984375 0.453125
vt 0.984375 0.328125
vt 1 0.328125
vt 1 0.203125
vt 0.984375 0.203125
vt 0.984375 0.40625
vt 1 0.40625
vt 1 0.28125
vt 0.984375 0.28125
vt 0.984375 0.640625
vt 1 0.640625
vt 1 0.515625
vt 0.984375 0.515625
vt 0.75 0
vt 0.75 0.109375
vt 0.5 0.109375
vt 0.5 0
vt 0.5 0.109375
vt 0.75 0.109375
vt 0.75 0
vt 0.5 0
vt 0.015625 0.90625
vt 0.015625 1
vt 0 1
vt 0 0.90625
vt 0 1
vt 0.015625 1
vt 0.015625 0.90625
vt 0 0.90625
vt 0.015625 0.90625
vt 0.015625 1
vt 0 1
vt 0 0.90625
vt 0 1
vt 0.015625 1
vt 0.015625 0.90625
vt 0 0.90625
vt 0.3828125 0.1328125
vt 0.3828125 0.140625
vt 0.4453125 0.140625
vt 0.4453125 0.1328125
vt 0.3828125 0.1875
vt 0.3828125 0.1953125
vt 0.4453125 0.1953125
vt 0.4453125 0.1875
vt 0.4453125 0.1328125
vt 0.4375 0.1328125
vt 0.4375 0.1953125
vt 0.4453125 0.1953125
vt 0.390625 0.1953125
vt 0.3828125 0.1953125
vt 0.3828125 0.1328125
vt 0.390625 0.1328125
vt 0.4453125 0.1953125
vt 0.4453125 0.1328125
vt 0.3828125 0.1328125
vt 0.3828125 0.1953125
vt 0.3828125 0.1328125
vt 0.3828125 0.140625
vt 0.4453125 0.140625
vt 0.4453125 0.1328125
vt 0.3828125 0.1875
vt 0.3828125 0.1953125
vt 0.4453125 0.1953125
vt 0.4453125 0.1875
vt 0.4453125 0.1328125
vt 0.4375 0.1328125
vt 0.4375 0.1953125
vt 0.4453125 0.1953125
vt 0.390625 0.1953125
vt 0.3828125 0.1953125
vt 0.3828125 0.1328125
vt 0.390625 0.1328125
vt 0.4453125 0.1953125
vt 0.4453125 0.1328125
vt 0.3828125 0.1328125
vt 0.3828125 0.1953125
vt 0.3828125 0.1328125
vt 0.3828125 0.140625
vt 0.4453125 0.140625
vt 0.4453125 0.1328125
vt 0.3828125 0.1875
vt 0.3828125 0.1953125
vt 0.4453125 0.1953125
vt 0.4453125 0.1875
vt 0.4453125 0.1328125
vt 0.4375 0.1328125
vt 0.4375 0.1953125
vt 0.4453125 0.1953125
vt 0.390625 0.1953125
vt 0.3828125 0.1953125
vt 0.3828125 0.1328125
vt 0.390625 0.1328125
vt 0.4453125 0.1953125
vt 0.4453125 0.1328125
vt 0.3828125 0.1328125
vt 0.3828125 0.1953125
vt 0.625 1
vt 0.625 0.59375
vt 0.75 0.59375
vt 0.75 1
vt 0 0.75
vt 0 0.625
vt 0.5 0.625
vt 0.5 0.75
vt 0.125 0.34375
vt 0.125 0.25
vt 0 0.25
vt 0 0.34375
vt 0.625 0.59375
vt 0.625 1
vt 0.5 1
vt 0.5 0.59375
vt 0.5 0.75
vt 0.5 0.625
vt 0.75 0.625
vt 0.75 0.75
vt 0.125 0.25
vt 0.125 0.34375
vt 0 0.34375
vt 0 0.25
vt 0.40625 0.625
vt 0.40625 0.75
vt 0.5 0.75
vt 0.5 0.625
vt 0.625 0.25
vt 0.625 0.34375
vt 0.75 0.34375
vt 0.75 0.25
vt 0.625 0.59375
vt 0.625 1
vt 0.75 1
vt 0.75 0.59375
vt 0.75 0.75
vt 0.75 0.625
vt 0.5 0.625
vt 0.5 0.75
vt 0.75 0.25
vt 1 0.25
vt 1 0.015625
vt 0.75 0.015625
vt 0.75 0.25
vt 1 0.25
vt 1 0.015625
vt 0.75 0.015625
vt 0 1
vt 0.0625 1
vt 0.0625 0.75
vt 0 0.75
vt 0 1
vt 0.25 1
vt 0.25 0.984375
vt 0 0.984375
vt 0 1
vt 0.25 1
vt 0.25 0.984375
vt 0 0.984375
vt 0.65625 0.625
vt 0.75 0.625
vt 0.75 0.375
vt 0.65625 0.375
vt 0.65625 0.78125
vt 0.75 0.78125
vt 0.75 0.75
vt 0.65625 0.75
vt 0.640625 1
vt 0.640625 0.984375
vt 0.546875 0.984375
vt 0.546875 1
vt 0.25 0.984375
vt 0.25 1
vt 0.5 1
vt 0.5 0.984375
vt 0.65625 0.5
vt 0.65625 0.75
vt 0.75 0.75
vt 0.75 0.5
vt 0.5 0.75
vt 0.5625 0.75
vt 0.5625 0.5
vt 0.5 0.5
vt 0.703125 1
vt 0.703125 0.984375
vt 0.640625 0.984375
vt 0.640625 1
vt 0.59375 0.75
vt 0.59375 0.78125
vt 0.65625 0.78125
vt 0.65625 0.75
vt 0.21875 1
vt 0.21875 0.984375
vt 0 0.984375
vt 0 1
vt 0.75 0.78125
vt 0.65625 0.78125
vt 0.65625 1
vt 0.75 1
vt 0.59375 0.78125
vt 0.59375 1
vt 0.65625 1
vt 0.65625 0.78125
vt 0.5625 0.78125
vt 0.5 0.78125
vt 0.5 1
vt 0.5625 1
vt 0.4140625 0.1484375
vt 0.4140625 0.1640625
vt 0.3984375 0.1640625
vt 0.3984375 0.1484375
vt 0 0.75
vt 0 1
vt 0.09375 1
vt 0.09375 0.75
vt 0.703125 0.984375
vt 0.703125 1
vt 0.734375 1
vt 0.734375 0.984375
vt 0.5625 0.5
vt 0.5625 0.75
vt 0.65625 0.75
vt 0.65625 0.5
vt 0.59375 0.78125
vt 0.59375 0.75
vt 0.5625 0.75
vt 0.5625 0.78125
vt 0.59375 1
vt 0.59375 0.78125
vt 0.5625 0.78125
vt 0.5625 1
vt 0.671875 0.984375
vt 0.671875 1
vt 0.921875 1
vt 0.921875 0.984375
vt 0.734375 0.984375
vt 0.734375 1
vt 0.671875 1
vt 0.671875 0.984375
vt 0.5625 0.9375
vt 0.5 0.9375
vt 0.5 0.5
vt 0.5625 0.5
vt 0.734375 1
vt 0.734375 0.984375
vt 0.796875 0.984375
vt 0.796875 1
vt 0.09375 0.25
vt 0.09375 0.3125
vt 0 0.3125
vt 0 0.25
vt 0.0625 0.984375
vt 0.0625 1
vt 0 1
vt 0 0.984375
vt 0.65625 0.9375
vt 0.65625 1
vt 0.5625 1
vt 0.5625 0.9375
vt 0.5 0.9375
vt 0.5625 0.9375
vt 0.5625 1
vt 0.5 1
vt 0.015625 0.3125
vt 0.078125 0.3125
vt 0.078125 0.25
vt 0.015625 0.25
vt 0.65625 1
vt 0.65625 0.5625
vt 0.75 0.5625
vt 0.75 1
vt 0.640625 0.984375
vt 0.640625 1
vt 0.546875 1
vt 0.546875 0.984375
vt 0.65625 0.9375
vt 0.65625 0.5
vt 0.75 0.5
vt 0.75 0.9375
vt 0.65625 1
vt 0.65625 0.9375
vt 0.75 0.9375
vt 0.75 1
vt 0.828125 1
vt 0.828125 0.984375
vt 0.921875 0.984375
vt 0.921875 1
vt 0.65625 0.3125
vt 0.65625 0.25
vt 0.75 0.25
vt 0.75 0.3125
vt 0 0.6875
vt 0.25 0.6875
vt 0.25 0.5625
vt 0 0.5625
vt 0.25 0.6875
vt 0 0.6875
vt 0 0.75
vt 0.25 0.75
vt 0 0.5625
vt 0.25 0.5625
vt 0.25 0.6875
vt 0 0.6875
vt 0.25 0.5625
vt 0 0.5625
vt 0 0.5
vt 0.25 0.5
vt 0.5 0.625
vt 0.75 0.625
vt 0.75 0.75
vt 0.5 0.75
vt 0.25 0.6875
vt 0 0.6875
vt 0 1
vt 0.25 1
vt 0 0.5625
vt 0.25 0.5625
vt 0.25 0.5
vt 0 0.5
vt 0.5 0.75
vt 0.75 0.75
vt 0.75 0.625
vt 0.5 0.625
vt 0.375 0.609375
vt 0.5 0.609375
vt 0.5 0.484375
vt 0.375 0.484375
vt 0.375 0.609375
vt 0.390625 0.609375
vt 0.390625 0.484375
vt 0.375 0.484375
vt 0.5 0.484375
vt 0.484375 0.484375
vt 0.484375 0.609375
vt 0.5 0.609375
vt 0.484375 0.609375
vt 0.5 0.609375
vt 0.5 0.484375
vt 0.484375 0.484375
vt 0.375 0.609375
vt 0.390625 0.609375
vt 0.390625 0.484375
vt 0.375 0.484375
vt 0.375 0.609375
vt 0.5 0.609375
vt 0.5 0.484375
vt 0.375 0.484375
vt 0.375 0.609375
vt 0.390625 0.609375
vt 0.390625 0.484375
vt 0.375 0.484375
vt 0.5 0.484375
vt 0.484375 0.484375
vt 0.484375 0.609375
vt 0.5 0.609375
vt 0.484375 0.609375
vt 0.5 0.609375
vt 0.5 0.484375
vt 0.484375 0.484375
vt 0.375 0.609375
vt 0.390625 0.609375
vt 0.390625 0.484375
vt 0.375 0.484375
vt 0.375 0.609375
vt 0.5 0.609375
vt 0.5 0.484375
vt 0.375 0.484375
vt 0.375 0.609375
vt 0.390625 0.609375
vt 0.390625 0.484375
vt 0.375 0.484375
vt 0.5 0.484375
vt 0.484375 0.484375
vt 0.484375 0.609375
vt 0.5 0.609375
vt 0.484375 0.609375
vt 0.5 0.609375
vt 0.5 0.484375
vt 0.484375 0.484375
vt 0.375 0.609375
vt 0.390625 0.609375
vt 0.390625 0.484375
vt 0.375 0.484375
vt 0.5 0.6875
vt 0.4375 0.6875
vt 0.4375 0.734375
vt 0.5 0.734375
vt 0.5 0.6875
vt 0.484375 0.6875
vt 0.484375 0.734375
vt 0.5 0.734375
vt 0.4375 0.6875
vt 0.453125 0.6875
vt 0.453125 0.734375
vt 0.4375 0.734375
vt 0.0625 0.6875
vt 0 0.6875
vt 0 0.734375
vt 0.0625 0.734375
vt 0.4375 0.6875
vt 0.421875 0.6875
vt 0.421875 0.734375
vt 0.4375 0.734375
vt 0.375 0.6875
vt 0.390625 0.6875
vt 0.390625 0.734375
vt 0.375 0.734375
vt 0.375 0.6875
vt 0.3125 0.6875
vt 0.3125 0.734375
vt 0.375 0.734375
vt 0.375 0.6875
vt 0.359375 0.6875
vt 0.359375 0.734375
vt 0.375 0.734375
vt 0.3125 0.6875
vt 0.328125 0.6875
vt 0.328125 0.734375
vt 0.3125 0.734375
vt 0.5 0.25
vt 0.75 0.25
vt 0.75 0
vt 0.5 0
vt 0.5 0.25
vt 0.75 0.25
vt 0.75 0
vt 0.5 0
vt 0.3515625 0.8671875
vt 0.4765625 0.8671875
vt 0.4765625 0.7421875
vt 0.3515625 0.7421875
vt 0.5 0.25
vt 0.75 0.25
vt 0.75 0
vt 0.5 0
vt 0.59375 0.5
vt 0.75 0.5
vt 0.75 0.25
vt 0.59375 0.25
vt 0.65625 0.75
vt 0.65625 1
vt 0.75 1
vt 0.75 0.75
vt 0.0625 0.96875
vt 0 0.96875
vt 0 1
vt 0.0625 1
vt 0 0.46875
vt 0.09375 0.46875
vt 0.09375 0.25
vt 0 0.25
vt 0.5 0.734375
vt 0.75 0.734375
vt 0.75 0.75
vt 0.5 0.75
vt 0.5 0.734375
vt 0.75 0.734375
vt 0.75 0.75
vt 0.5 0.75
vt 0 0.734375
vt 0.5 0.734375
vt 0.5 0.75
vt 0 0.75
vt 0 0.734375
vt 0.5 0.734375
vt 0.5 0.75
vt 0 0.75
vt 0.5 0.734375
vt 0.75 0.734375
vt 0.75 0.75
vt 0.5 0.75
vt 0.5 0.734375
vt 0.75 0.734375
vt 0.75 0.75
vt 0.5 0.75
vt 1 0
vt 1 0.234375
vt 0.75 0.234375
vt 0.75 0
vt 0 1
vt 0.1875 1
vt 0.1875 0.890625
vt 0 0.890625
vt 0.5625 1
vt 0.75 1
vt 0.75 0.890625
vt 0.5625 0.890625
vt 0.1875 0.890625
vt 0.1875 1
vt 0 1
vt 0 0.890625
vt 0.75 0.890625
vt 0.75 1
vt 0.5625 1
vt 0.5625 0.890625
vt 0.75 0.75
vt 0.75 0.625
vt 0.5 0.625
vt 0.5 0.75
vt 0.5 0.734375
vt 0.75 0.734375
vt 0.75 0.75
vt 0.5 0.75
vt 0.1875 0.890625
vt 0.1875 1
vt 0 1
vt 0 0.890625
vt 0.75 0.6875
vt 0.75 0.796875
vt 0.71875 0.796875
vt 0.71875 0.6875
vt 1 0.484375
vt 1 0.59375
vt 0.96875 0.59375
vt 0.96875 0.484375
vt 0.5 0.625
vt 0.75 0.625
vt 0.75 0.75
vt 0.5 0.75
vt 0.75 0.75
vt 0.75 0.734375
vt 0.5 0.734375
vt 0.5 0.75
vt 0 1
vt 0.1875 1
vt 0.1875 0.890625
vt 0 0.890625
vt 0.71875 0.796875
vt 0.75 0.796875
vt 0.75 0.6875
vt 0.71875 0.6875
vt 0.96875 0.59375
vt 1 0.59375
vt 1 0.484375
vt 0.96875 0.484375
vt 1 0.234375
vt 1 0
vt 0.75 0
vt 0.75 0.234375
vt 1 0.03125
vt 1 0.015625
vt 0.75 0.015625
vt 0.75 0.03125
vt 0.984375 0
vt 0.984375 0.234375
vt 1 0.234375
vt 1 0
vt 0.75 0
vt 0.75 0.234375
vt 0.765625 0.234375
vt 0.765625 0
vt 1 0.03125
vt 1 0
vt 0.75 0
vt 0.75 0.03125
vt 0.75 0
vt 0.75 0.234375
vt 1 0.234375
vt 1 0
vt 0.75 0
vt 0.75 0.234375
vt 1 0.234375
vt 1 0
vt 1 0.03125
vt 1 0
vt 0.75 0
vt 0.75 0.03125
vt 1 0.03125
vt 1 0
vt 0.75 0
vt 0.75 0.03125
vt 1 0.03125
vt 1 0.015625
vt 0.75 0.015625
vt 0.75 0.03125
vt 1 0.03125
vt 1 0.015625
vt 0.75 0.015625
vt 0.75 0.03125
vt 0.453125 0.453125
vt 0.75 0.453125
vt 0.75 0.25
vt 0.453125 0.25
vt 0.453125 1
vt 0.75 1
vt 0.75 0.78125
vt 0.453125 0.78125
vt 0 1
vt 0.203125 1
vt 0.203125 0.875
vt 0 0.875
vt 0.5 0.109375
vt 0.75 0.109375
vt 0.75 0
vt 0.5 0
vt 0 0.6484375
vt 0.125 0.6484375
vt 0.125 0.59375
vt 0 0.59375
vt 0.0703125 0.8671875
vt 0.078125 0.8671875
vt 0.078125 0.8046875
vt 0.0703125 0.8046875
vt 0.0078125 0.8671875
vt 0.015625 0.8671875
vt 0.015625 0.8046875
vt 0.0078125 0.8046875
vt 0.0078125 0.8671875
vt 0.078125 0.8671875
vt 0.078125 0.859375
vt 0.0078125 0.859375
vt 0.0078125 0.8125
vt 0.078125 0.8125
vt 0.078125 0.8046875
vt 0.0078125 0.8046875
vt 0.0078125 0.8671875
vt 0.078125 0.8671875
vt 0.078125 0.8046875
vt 0.0078125 0.8046875
vn 0 1 0
vn -1 0 0
vn 1 0 0
vn 0 1 0
vn -1 0 0
vn 1 0 0
vn 0 0 -1
vn 0 0 1
vn 0 1 0
vn -1 0 0
vn 1 0 0
vn 0 0 -1
vn 0 0 1
vn 0 1 0
vn -1 0 0
vn 1 0 0
vn 0 0 -1
vn 0 0 1
vn 0 1 0
vn -1 0 0
vn 1 0 0
vn 0 0 -1
vn 0 0 1
vn 0 1 0
vn -1 0 0
vn 1 0 0
vn 0 -1 0
vn 0 -1 0
vn 0 0 -1
vn 0 -1 0
vn 0 -1 0
vn 0 -1 0
vn 0 -1 0
vn 0 -1 0
vn 0 -1 0
vn 0 0 -1
vn 0 0 -1
vn 0 0 -1
vn 0 0 1
vn 0 -1 0
vn -1 0 0
vn 0 1 0
vn 0 -1 0
vn -1 0 0
vn 0 0 -1
vn 0 0 1
vn -1 0 0
vn 0 0 -1
vn 0 0 1
vn 0 1 0
vn 0 -1 0
vn -1 0 0
vn 0 0 -1
vn 0 0 1
vn 0 1 0
vn -1 0 0
vn 0 0 -1
vn 0 0 1
vn -1 0 0
vn 1 0 0
vn 0 0 -1
vn 0 0 1
vn -1 0 0
vn 1 0 0
vn 0 0 -1
vn 0 0 1
vn -1 0 0
vn 1 0 0
vn 0 0 -1
vn 0 0 1
vn -1 0 0
vn 1 0 0
vn 0 0 -1
vn 0 0 1
vn 1 0 0
vn -1 0 0
vn 0 0 -1
vn 0 0 1
vn 1 0 0
vn -1 0 0
vn 0 0 -1
vn 0 0 1
vn 1 0 0
vn -1 0 0
vn 0 0 -1
vn 0 0 1
vn -1 0 0
vn 1 0 0
vn 0 0 1
vn 0 -1 0
vn 1 0 0
vn 0 0 -1
vn 0 0 1
vn 0 1 0
vn -1 0 0
vn 0 0 -1
vn 0 0 1
vn 0 1 0
vn -0.7071067811865476 0.7071067811865476 0
vn 0 0 -1
vn 0 0 1
vn -1 0 0
vn 0 0 -1
vn 0 0 1
vn -1 0 0
vn 0 0 -1
vn 0 0 1
vn 0 1 0
vn -0.7071067811865476 0.7071067811865476 0
vn 0 0 -1
vn 0 0 1
vn -1 0 0
vn 1 0 0
vn 0 0 -1
vn 0 0 1
vn -1 0 0
vn 1 0 0
vn 0 0 -1
vn 0 0 1
vn -1 0 0
vn 1 0 0
vn 0 0 -1
vn 0 0 1
vn -1 0 0
vn 1 0 0
vn 0 0 -1
vn 0 0 1
vn -1 0 0
vn 1 0 0
vn 0 0 -1
vn 0 0 1
vn -1 0 0
vn 1 0 0
vn 0 0 -1
vn 0 0 1
vn 0.4270065107891928 0.9042485497603184 0
vn 1 0 0
vn 0 0 -1
vn 0 0 1
vn 0 1 0
vn 0 -1 0
vn 0 0 -1
vn 0 0 1
vn 0.4270065107891928 0.9042485497603184 0
vn 1 0 0
vn 0 0 -1
vn 0 0 1
vn 0 1 0
vn 0 -1 0
vn 0 0 -1
vn 0 0 1
vn 0 1 0
vn -1 0 0
vn 1 0 0
vn 0 0 -1
vn 0 0 1
vn 0 1 0
vn -1 0 0
vn 1 0 0
vn 0 0 -1
vn 1 0 0
vn 0 1 0
vn 0 0 -1
vn 0 0 1
vn 0 1 0
vn 0 -1 0
vn 1 0 0
vn 0 0 -1
vn 0 0 1
vn 0 1 0
vn -1 0 0
vn 1 0 0
vn 0 1 0
vn 0 -1 0
vn 1 0 0
vn -1 0 0
vn 0 -1 0
vn -1 0 0
vn 1 0 0
vn 0 0 -1
vn 0 -1 0
vn 1 0 0
vn 0 0 -1
vn 0 1 0
vn 0 -1 0
vn 1 0 0
vn -1 0 0
vn 0.19080910113898986 0 -0.9816271628895213
vn -0.19080925722522474 0 0.9816271325494004
vn 0 1 0
vn 0 -1 0
vn -0.981627318975328 0 -0.1908082981458353
vn 0.9816271628895213 0 0.19080910113898997
vn -0.1391728910275903 0 -0.9902680982456331
vn 0.1391728910275903 0 0.9902680982456331
vn 0 1 0
vn 0 -1 0
vn -0.9902680813242842 0 0.13917301142937524
vn 0.9902680813242842 0 -0.13917301142937524
vn 0 0 1
vn 0 -1 0
vn -1 0 0
vn 0 0 1
vn -1 0 0
vn 0 0 -1
vn 0 0 1
vn -1 0 0
vn 0 0 -1
vn 0 0 1
vn 1 0 0
vn 0 0 -1
vn 0 0 1
vn 1 0 0
vn -1 0 0
vn -1 0 0
vn 0 0 -1
vn 0 1 0
vn -1 0 0
vn 1 0 0
vn 0 0 -1
vn 0 0 1
vn 0 1 0
vn 0 -1 0
vn -1 0 0
vn 1 0 0
vn 0 0 -1
vn 0 0 1
vn 0 1 0
vn 0 -1 0
vn -1 0 0
vn 1 0 0
vn 0 0 -1
vn 0 0 1
vn 0 1 0
vn 0 0 -1
vn 0 0 1
vn 0 1 0
vn -1 0 0
vn 0 0 -1
vn 0 0 1
vn 0 1 0
vn 0 -1 0
vn -1 0 0
vn 1 0 0
vn 0 0 1
vn 0 1 0
vn -1 0 0
vn 0 0.7071067811865476 -0.7071067811865476
vn 0 0.7071067811865476 0.7071067811865476
vn 0 1 0
vn -0.7071067811865476 0.7071067811865476 0
vn 0.7071067811865476 0.7071067811865476 0
vn 0 0 -1
vn 0 0 1
vn -1 0 0
vn 1 0 0
vn 0 0.7071067811865476 -0.7071067811865476
vn 0 0.7071067811865476 0.7071067811865476
vn 0 1 0
vn -0.7071067811865476 0.7071067811865476 0
vn 0.7071067811865476 0.7071067811865476 0
vn 0 0 1
vn -1 0 0
vn 1 0 0
vn 0 0 -1
vn 0 1 0
vn -1 0 0
vn 0.8944271909999161 0.44721359549995804 0
vn 0 -1 0
vn -1 0 0
vn 0.8944271909999161 -0.44721359549995804 0
vn 0 0 -1
vn 0 1 0
vn 0 -1 0
vn -1 0 0
vn 0.9922778767136677 -0.12403473458920847 0
vn 0 0 -1
vn 0 0 1
vn -1 0 0
vn 1 0 0
vn 0 0 -1
vn 0 -1 0
vn 0 1 0
vn -1 0 0
vn 0.9922778767136677 0.12403473458920847 0
vn 0 0 -1
vn -1 0 0
vn 1 0 0
vn 0 0 -1
vn 0 0 1
vn 1 0 0
vn -1 0 0
vn 0 0 -1
vn 0 0 1
vn 1 0 0
vn -1 0 0
vn 0 0 -1
vn 0 0 1
vn 0 -1 0
vn 0 0 -1
vn 0 0 1
vn 0 1 0
vn 0 1 0
vn 0 -1 0
vn 1 0 0
vn 0 0 -1
vn 0 0 1
vn 1 0 0
vn 0 0 -1
vn 0 0 1
vn 0 1 0
vn 0 -1 0
vn 1 0 0
vn 0 0 -1
vn 0 1 0
vn 0 -1 0
vn 0 0 -1
vn 0 1 0
vn 0 -1 0
vn 0 0.9659258671501301 -0.2588188926069142
vn 0 0.2588188926069142 0.9659258671501301
vn 0 -0.2544832841716339 -0.967077172761936
vn -1 0 0
vn 1 0 0
vn 0 0.9655573311332963 -0.260190392395158
vn 0 -0.965925796369903 0.2588191567623405
vn 0 0.25882014260670305 0.9659255322130409
vn 0 -0.2566703535290013 -0.9664990065278378
vn -1 0 0
vn 1 0 0
vn 0 0 -1
vn 0 1 0
vn 0 -1 0
vn -1 0 0
vn 1 0 0
vn -1 0 0
vn 1 0 0
vn 0 0 -1
vn 0 0 1
vn 0 1 0
vn 0 -1 0
vn 1 0 0
vn 0 0 -1
vn 0 0 1
vn 0 1 0
vn 0 -1 0
vn 1 0 0
vn 0 0 -1
vn 0 0 1
vn 1 0 0
vn 0 0 -1
vn 0 0 1
vn 1 0 0
vn -1 0 0
vn 1 0 0
vn 0 0 1
vn 0 0 -1
vn 0 0 1
vn 0 0 -1
vn 1 0 0
vn -1 0 0
vn 0 0 1
vn 0 0 -1
vn 0 1 0
vn 1 0 0
vn -1 0 0
vn 0 0 1
vn 0 0 -1
vn 0 1 0
vn 1 0 0
vn -1 0 0
vn 0 0 1
vn 0 0 -1
vn 0 1 0
vn 0 -1 0
vn 0 0 -1
vn 0 -1 0
vn 0 -1 0
vn 1 0 0
vn 0 -1 0
vn 0 0 -1
vn 0 -1 0
vn 0 -1 0
vn -1 0 0
vn 0 0 -1
vn 0 0 1
vn 0 1 0
vn 0 0 -1
vn 0 0 1
vn 0 -1 0
vn 0 -1 0
vn 1 0 0
vn 0 0 -1
vn 0 -1 0
vn 0 -1 0
vn 1 0 0
vn 0 -1 0
vn 0 0 -1
vn 0 -1 0
vn 0 -1 0
vn 0 -1 0
vn 0 1 0
vn 0 1 0
vn 1 0 0
vn 0 -1 0
vn 0 -1 0
vn 0 -1 0
vn -1 0 0
vn 1 0 0
vn 0 -1 0
vn -1 0 0
vn 0 1 0
vn 0 0 -1
vn 0 -1 0
vn 0 -1 0
vn 0 1 0
vn 0 1 0
vn -1 0 0
vn 0 -1 0
vn 0 -1 0
vn 1 0 0
vn 0 1 0
vn 0 -1 0
vn 0 -1 0
vn 0 -1 0
vn 0 -1 0
vn 1 0 0
vn 0 -1 0
vn 0 -1 0
vn -1 0 0
vn 0 0 1
vn 0 1 0
vn 0 -1 0
vn -1 0 0
vn 1 0 0
vn 0 0 1
vn 0 1 0
vn 0 -1 0
vn -1 0 0
vn 1 0 0
vn 0 0 1
vn 0 1 0
vn 0 -1 0
vn -1 0 0
vn 1 0 0
vn 0 0 1
vn -1 0 0
vn 1 0 0
vn 0 0 1
vn -1 0 0
vn 1 0 0
vn 0 0 1
vn -1 0 0
vn 1 0 0
vn 0 0 -1
vn 0 1 0
vn -1 0 0
vn 0 0 1
vn 0 1 0
vn 0 1 0
vn 0 1 0
vn 0 1 0
vn 0 1 0
vn 0 1 0
vn 0 1 0
vn 0 1 0
vn 0 1 0
vn 0 1 0
vn 1 0 0
vn 1 0 0
vn 1 0 0
vn -1 0 0
vn -1 0 0
vn 0 0 1
vn 0 1 0
vn 0 0 1
vn -1 0 0
vn 0 0 1
vn 0 0 1
vn 0 1 0
vn 0 0 1
vn 1 0 0
vn 0 0 1
vn 0 0 1
vn 0 1 0
vn 0.9999653073554531 0 0.008329711010271761
vn -0.999965153173981 0.00055531398172934 0.008329709725940099
vn 0 0 1
vn 0 0 1
vn 0 0 1
vn 0 0 1
vn 0 0 1
vn 0 1 0
vn 0 1 0
vn 0 1 0
vn 0 1 0
vn 0 1 0
vn -1 0 0
vn 0 0 1
vn 0 0 -1
vn 0 0 1
vn 0 1 0
vn 0 -1 0
vn -1 0 0
usemtl common_steel_norivets
f 7/1/1 3/2/1 2/3/1
f 7/1/1 2/3/1 6/4/1
f 6/5/2 2/6/2 4/7/2
f 6/5/2 4/7/2 8/8/2
f 3/9/3 7/10/3 9/11/3
f 3/9/3 9/11/3 5/12/3
f 15/13/4 11/14/4 10/15/4
f 15/13/4 10/15/4 14/16/4
f 14/17/5 10/18/5 12/19/5
f 14/17/5 12/19/5 16/20/5
f 11/21/6 15/22/6 17/23/6
f 11/21/6 17/23/6 13/24/6
f 18/25/7 19/26/7 21/27/7
f 18/25/7 21/27/7 20/28/7
f 23/29/8 22/30/8 24/31/8
f 23/29/8 24/31/8 25/32/8
f 23/33/9 19/34/9 18/35/9
f 23/33/9 18/35/9 22/36/9
f 22/37/10 18/38/10 20/39/10
f 22/37/10 20/39/10 24/40/10
f 19/41/11 23/42/11 25/43/11
f 19/41/11 25/43/11 21/44/11
f 26/45/12 27/46/12 29/47/12
f 26/45/12 29/47/12 28/48/12
f 31/49/13 30/50/13 32/51/13
f 31/49/13 32/51/13 33/52/13
f 31/53/14 27/54/14 26/55/14
f 31/53/14 26/55/14 30/56/14
f 30/57/15 26/58/15 28/59/15
f 30/57/15 28/59/15 32/60/15
f 27/61/16 31/62/16 33/63/16
f 27/61/16 33/63/16 29/64/16
f 34/65/17 35/66/17 37/67/17
f 34/65/17 37/67/17 36/68/17
f 39/69/18 38/70/18 40/71/18
f 39/69/18 40/71/18 41/72/18
f 39/73/19 35/74/19 34/75/19
f 39/73/19 34/75/19 38/76/19
f 38/77/20 34/78/20 36/79/20
f 38/77/20 36/79/20 40/80/20
f 35/81/21 39/82/21 41/83/21
f 35/81/21 41/83/21 37/84/21
f 42/85/22 43/86/22 45/87/22
f 42/85/22 45/87/22 44/88/22
f 47/89/23 46/90/23 48/91/23
f 47/89/23 48/91/23 49/92/23
f 47/93/24 43/94/24 42/95/24
f 47/93/24 42/95/24 46/96/24
f 46/97/25 42/98/25 44/99/25
f 46/97/25 44/99/25 48/100/25
f 43/101/26 47/102/26 49/103/26
f 43/101/26 49/103/26 45/104/26
usemtl common_bottom
f 616/105/27 617/106/27 52/107/27
f 616/105/27 52/107/27 54/108/27
f 51/109/28 55/110/28 56/111/28
f 51/109/28 56/111/28 52/112/28
usemtl common_machinebase
f 567/113/29 565/114/29 59/115/29
f 567/113/29 59/115/29 57/116/29
usemtl common_bottom
f 570/117/30 568/118/30 566/119/30
f 570/117/30 566/119/30 62/120/30
f 64/121/31 63/122/31 55/123/31
f 64/121/31 55/123/31 51/124/31
f 627/125/32 626/126/32 624/127/32
f 627/125/32 624/127/32 625/128/32
f 562/129/33 563/130/33 72/131/33
f 562/129/33 72/131/33 560/132/33
f 56/133/34 75/134/34 76/135/34
f 56/133/34 76/135/34 52/136/34
f 620/137/35 621/138/35 78/139/35
f 620/137/35 78/139/35 80/140/35
usemtl common_steel
f 81/141/36 82/142/36 84/143/36
f 81/141/36 84/143/36 83/144/36
f 88/145/37 86/146/37 85/147/37
f 88/145/37 85/147/37 87/148/37
f 90/149/38 91/150/38 63/151/38
f 90/149/38 63/151/38 92/152/38
f 94/153/39 93/154/39 95/155/39
f 94/153/39 95/155/39 64/156/39
usemtl common_bottom
f 95/157/40 92/158/40 63/159/40
f 95/157/40 63/159/40 64/160/40
usemtl common_steel
f 93/161/41 90/162/41 92/163/41
f 93/161/41 92/163/41 95/164/41
f 96/165/42 1/166/42 98/167/42
f 96/165/42 98/167/42 97/168/42
f 62/169/43 92/170/43 95/171/43
f 62/169/43 95/171/43 66/172/43
f 66/173/44 98/174/44 1/175/44
f 66/173/44 1/175/44 62/176/44
usemtl common_thingies
f 99/177/45 100/178/45 102/179/45
f 99/177/45 102/179/45 101/180/45
f 104/181/46 103/182/46 105/183/46
f 104/181/46 105/183/46 106/184/46
f 103/185/47 99/186/47 101/187/47
f 103/185/47 101/187/47 105/188/47
f 110/189/48 108/190/48 107/191/48
f 110/189/48 107/191/48 109/192/48
f 113/193/49 111/194/49 112/195/49
f 113/193/49 112/195/49 114/196/49
f 107/197/50 108/198/50 112/199/50
f 107/197/50 112/199/50 111/200/50
f 110/201/51 109/202/51 113/203/51
f 110/201/51 113/203/51 114/204/51
f 114/205/52 112/206/52 108/207/52
f 114/205/52 108/207/52 110/208/52
usemtl common_steel
f 115/209/53 116/210/53 91/211/53
f 115/209/53 91/211/53 90/212/53
f 118/213/54 117/214/54 93/215/54
f 118/213/54 93/215/54 94/216/54
f 118/217/55 116/218/55 115/219/55
f 118/217/55 115/219/55 117/220/55
f 117/221/56 115/222/56 90/223/56
f 117/221/56 90/223/56 93/224/56
f 119/225/57 118/226/57 94/227/57
f 119/225/57 94/227/57 65/228/57
f 121/229/58 120/230/58 122/231/58
f 121/229/58 122/231/58 123/232/58
f 120/233/59 119/234/59 65/235/59
f 120/233/59 65/235/59 122/236/59
f 118/237/60 121/238/60 123/239/60
f 118/237/60 123/239/60 94/240/60
f 124/241/61 125/242/61 126/243/61
f 124/241/61 126/243/61 57/244/61
f 128/245/62 127/246/62 129/247/62
f 128/245/62 129/247/62 130/248/62
f 127/249/63 124/250/63 57/251/63
f 127/249/63 57/251/63 129/252/63
f 125/253/64 128/254/64 130/255/64
f 125/253/64 130/255/64 126/256/64
f 131/257/65 132/258/65 134/259/65
f 131/257/65 134/259/65 133/260/65
f 116/261/66 135/262/66 61/263/66
f 116/261/66 61/263/66 91/264/66
f 135/265/67 131/266/67 133/267/67
f 135/265/67 133/267/67 61/268/67
f 132/269/68 116/270/68 91/271/68
f 132/269/68 91/271/68 134/272/68
f 136/273/69 137/274/69 58/275/69
f 136/273/69 58/275/69 138/276/69
f 82/277/70 139/278/70 140/279/70
f 82/277/70 140/279/70 84/280/70
f 139/281/71 136/282/71 138/283/71
f 139/281/71 138/283/71 140/284/71
f 137/285/72 82/286/72 84/287/72
f 137/285/72 84/287/72 58/288/72
f 70/289/73 142/290/73 141/291/73
f 70/289/73 141/291/73 143/292/73
f 145/293/74 144/294/74 86/295/74
f 145/293/74 86/295/74 88/296/74
f 143/297/75 141/298/75 144/299/75
f 143/297/75 144/299/75 145/300/75
f 88/301/76 86/302/76 142/303/76
f 88/301/76 142/303/76 70/304/76
f 148/305/77 147/306/77 146/307/77
f 148/305/77 146/307/77 69/308/77
f 151/309/78 149/310/78 150/311/78
f 151/309/78 150/311/78 152/312/78
f 69/313/79 146/314/79 149/315/79
f 69/313/79 149/315/79 151/316/79
f 152/317/80 150/318/80 147/319/80
f 152/317/80 147/319/80 148/320/80
f 156/321/81 154/322/81 153/323/81
f 156/321/81 153/323/81 155/324/81
f 79/325/82 157/326/82 158/327/82
f 79/325/82 158/327/82 159/328/82
f 155/329/83 153/330/83 157/331/83
f 155/329/83 157/331/83 79/332/83
f 159/333/84 158/334/84 154/335/84
f 159/333/84 154/335/84 156/336/84
f 160/337/85 161/338/85 163/339/85
f 160/337/85 163/339/85 162/340/85
f 165/341/86 164/342/86 67/343/86
f 165/341/86 67/343/86 166/344/86
f 164/345/87 160/346/87 162/347/87
f 164/345/87 162/347/87 67/348/87
f 161/349/88 165/350/88 166/351/88
f 161/349/88 166/351/88 163/352/88
usemtl common_rough_steel
f 157/353/89 171/354/89 172/355/89
f 157/353/89 172/355/89 173/356/89
f 170/357/90 169/358/90 157/359/90
f 170/357/90 157/359/90 173/360/90
f 169/361/91 167/362/91 171/363/91
f 169/361/91 171/363/91 157/364/91
usemtl precision_assembler
f 174/365/92 175/366/92 177/367/92
f 174/365/92 177/367/92 176/368/92
f 179/369/93 178/370/93 180/371/93
f 179/369/93 180/371/93 181/372/93
f 179/373/94 175/374/94 174/375/94
f 179/373/94 174/375/94 178/376/94
f 178/377/95 174/378/95 176/379/95
f 178/377/95 176/379/95 180/380/95
usemtl common_cable_and_pipe
f 182/381/96 183/382/96 185/383/96
f 182/381/96 185/383/96 184/384/96
f 187/385/97 186/386/97 188/387/97
f 187/385/97 188/387/97 189/388/97
f 187/389/98 183/390/98 182/391/98
f 187/389/98 182/391/98 186/392/98
f 186/393/99 182/394/99 184/395/99
f 186/393/99 184/395/99 188/396/99
f 184/397/100 185/398/100 191/399/100
f 184/397/100 191/399/100 190/400/100
f 189/401/101 188/402/101 192/403/101
f 189/401/101 192/403/101 193/404/101
f 188/405/102 184/406/102 190/407/102
f 188/405/102 190/407/102 192/408/102
f 194/409/103 195/410/103 197/411/103
f 194/409/103 197/411/103 196/412/103
f 198/413/104 50/414/104 199/415/104
f 198/413/104 199/415/104 200/416/104
f 50/417/105 194/418/105 196/419/105
f 50/417/105 196/419/105 199/420/105
f 201/421/106 202/422/106 195/423/106
f 201/421/106 195/423/106 194/424/106
f 204/425/107 203/426/107 50/427/107
f 204/425/107 50/427/107 198/428/107
f 204/429/108 202/430/108 201/431/108
f 204/429/108 201/431/108 203/432/108
f 203/433/109 201/434/109 194/435/109
f 203/433/109 194/435/109 50/436/109
f 205/437/110 206/438/110 208/439/110
f 205/437/110 208/439/110 207/440/110
f 210/441/111 209/442/111 211/443/111
f 210/441/111 211/443/111 212/444/111
f 209/445/112 205/446/112 207/447/112
f 209/445/112 207/447/112 211/448/112
f 206/449/113 210/450/113 212/451/113
f 206/449/113 212/451/113 208/452/113
f 213/453/114 214/454/114 216/455/114
f 213/453/114 216/455/114 215/456/114
f 218/457/115 217/458/115 219/459/115
f 218/457/115 219/459/115 220/460/115
f 217/461/116 213/462/116 215/463/116
f 217/461/116 215/463/116 219/464/116
f 214/465/117 218/466/117 220/467/117
f 214/465/117 220/467/117 216/468/117
f 215/469/118 216/470/118 222/471/118
f 215/469/118 222/471/118 221/472/118
f 220/473/119 219/474/119 223/475/119
f 220/473/119 223/475/119 224/476/119
f 219/477/120 215/478/120 221/479/120
f 219/477/120 221/479/120 223/480/120
f 216/481/121 220/482/121 224/483/121
f 216/481/121 224/483/121 222/484/121
f 221/485/122 222/486/122 226/487/122
f 221/485/122 226/487/122 225/488/122
f 224/489/123 223/490/123 227/491/123
f 224/489/123 227/491/123 228/492/123
f 223/493/124 221/494/124 225/495/124
f 223/493/124 225/495/124 227/496/124
f 222/497/125 224/498/125 228/499/125
f 222/497/125 228/499/125 226/500/125
f 207/501/126 208/502/126 230/503/126
f 207/501/126 230/503/126 229/504/126
f 212/505/127 211/506/127 231/507/127
f 212/505/127 231/507/127 232/508/127
f 211/509/128 207/510/128 229/511/128
f 211/509/128 229/511/128 231/512/128
f 208/513/129 212/514/129 232/515/129
f 208/513/129 232/515/129 230/516/129
f 233/517/130 234/518/130 206/519/130
f 233/517/130 206/519/130 205/520/130
f 236/521/131 235/522/131 209/523/131
f 236/521/131 209/523/131 210/524/131
f 235/525/132 233/526/132 205/527/132
f 235/525/132 205/527/132 209/528/132
f 234/529/133 236/530/133 210/531/133
f 234/529/133 210/531/133 206/532/133
f 237/533/134 238/534/134 214/535/134
f 237/533/134 214/535/134 213/536/134
f 240/537/135 239/538/135 217/539/135
f 240/537/135 217/539/135 218/540/135
f 240/541/136 238/542/136 237/543/136
f 240/541/136 237/543/136 239/544/136
f 238/545/137 240/546/137 218/547/137
f 238/545/137 218/547/137 214/548/137
f 241/549/138 237/550/138 243/551/138
f 241/549/138 243/551/138 242/552/138
f 239/553/139 244/554/139 245/555/139
f 239/553/139 245/555/139 246/556/139
f 239/557/140 237/558/140 241/559/140
f 239/557/140 241/559/140 244/560/140
f 245/561/141 242/562/141 243/563/141
f 245/561/141 243/563/141 246/564/141
f 247/565/142 248/566/142 234/567/142
f 247/565/142 234/567/142 233/568/142
f 250/569/143 249/570/143 235/571/143
f 250/569/143 235/571/143 236/572/143
f 250/573/144 248/574/144 247/575/144
f 250/573/144 247/575/144 249/576/144
f 248/577/145 250/578/145 236/579/145
f 248/577/145 236/579/145 234/580/145
f 251/581/146 247/582/146 253/583/146
f 251/581/146 253/583/146 252/584/146
f 249/585/147 254/586/147 255/587/147
f 249/585/147 255/587/147 256/588/147
f 249/589/148 247/590/148 251/591/148
f 249/589/148 251/591/148 254/592/148
f 255/593/149 252/594/149 253/595/149
f 255/593/149 253/595/149 256/596/149
usemtl common_thingies
f 257/597/150 258/598/150 260/599/150
f 257/597/150 260/599/150 259/600/150
f 262/601/151 261/602/151 263/603/151
f 262/601/151 263/603/151 264/604/151
f 262/605/152 258/606/152 257/607/152
f 262/605/152 257/607/152 261/608/152
f 261/609/153 257/610/153 259/611/153
f 261/609/153 259/611/153 263/612/153
f 258/613/154 262/614/154 264/615/154
f 258/613/154 264/615/154 260/616/154
f 265/617/155 266/618/155 268/619/155
f 265/617/155 268/619/155 267/620/155
f 270/621/156 269/622/156 271/623/156
f 270/621/156 271/623/156 272/624/156
f 270/625/157 266/626/157 265/627/157
f 270/625/157 265/627/157 269/628/157
f 269/629/158 265/630/158 267/631/158
f 269/629/158 267/631/158 271/632/158
f 266/633/159 270/634/159 272/635/159
f 266/633/159 272/635/159 268/636/159
usemtl precision_assembler
f 273/637/160 274/638/160 276/639/160
f 273/637/160 276/639/160 275/640/160
f 278/641/161 275/642/161 276/643/161
f 278/641/161 276/643/161 279/644/161
f 274/645/162 277/646/162 279/647/162
f 274/645/162 279/647/162 276/648/162
f 280/649/163 281/650/163 283/651/163
f 280/649/163 283/651/163 282/652/163
f 285/653/164 284/654/164 286/655/164
f 285/653/164 286/655/164 287/656/164
f 285/657/165 281/658/165 280/659/165
f 285/657/165 280/659/165 284/660/165
f 286/661/166 282/662/166 283/663/166
f 286/661/166 283/663/166 287/664/166
f 281/665/167 285/666/167 287/667/167
f 281/665/167 287/667/167 283/668/167
f 288/669/168 289/670/168 291/671/168
f 288/669/168 291/671/168 290/672/168
f 292/673/169 279/674/169 278/675/169
f 292/673/169 278/675/169 293/676/169
f 292/677/170 289/678/170 288/679/170
f 292/677/170 288/679/170 279/680/170
f 279/681/171 288/682/171 290/683/171
f 279/681/171 290/683/171 278/684/171
f 289/685/172 292/686/172 293/687/172
f 289/685/172 293/687/172 291/688/172
usemtl common_rough_steel
f 609/689/173 429/690/173 167/691/173
f 609/689/173 167/691/173 294/692/173
f 297/693/174 296/694/174 169/695/174
f 297/693/174 169/695/174 170/696/174
f 296/697/175 294/698/175 167/699/175
f 296/697/175 167/699/175 169/700/175
f 170/701/176 168/702/176 295/703/176
f 170/701/176 295/703/176 297/704/176
f 119/705/177 135/706/177 300/707/177
f 119/705/177 300/707/177 303/708/177
f 301/709/178 298/710/178 135/711/178
f 301/709/178 135/711/178 119/712/178
f 299/713/179 302/714/179 303/715/179
f 299/713/179 303/715/179 300/716/179
f 590/717/180 589/718/180 579/719/180
f 590/717/180 579/719/180 580/720/180
f 593/721/181 592/722/181 581/723/181
f 593/721/181 581/723/181 582/724/181
f 578/725/182 496/726/182 299/727/182
f 578/725/182 299/727/182 300/728/182
f 605/729/183 606/730/183 142/731/183
f 605/729/183 142/731/183 307/732/183
usemtl common_wooden_base_light
f 610/733/184 611/734/184 497/735/184
f 610/733/184 497/735/184 428/736/184
usemtl common_rough_steel
f 612/737/185 613/738/185 607/739/185
f 612/737/185 607/739/185 604/740/185
f 614/741/186 615/742/186 602/743/186
f 614/741/186 602/743/186 603/744/186
f 611/745/187 612/746/187 604/747/187
f 611/745/187 604/747/187 497/748/187
usemtl reinforced
f 308/749/188 309/750/188 311/751/188
f 308/749/188 311/751/188 310/752/188
f 313/753/189 312/754/189 314/755/189
f 313/753/189 314/755/189 315/756/189
f 313/757/190 309/758/190 308/759/190
f 313/757/190 308/759/190 312/760/190
f 314/761/191 310/762/191 311/763/191
f 314/761/191 311/763/191 315/764/191
f 312/765/192 308/766/192 310/767/192
f 312/765/192 310/767/192 314/768/192
f 309/769/193 313/770/193 315/771/193
f 309/769/193 315/771/193 311/772/193
usemtl wooden
f 316/773/194 317/774/194 319/775/194
f 316/773/194 319/775/194 318/776/194
f 321/777/195 320/778/195 322/779/195
f 321/777/195 322/779/195 323/780/195
f 321/781/196 317/782/196 316/783/196
f 321/781/196 316/783/196 320/784/196
f 322/785/197 318/786/197 319/787/197
f 322/785/197 319/787/197 323/788/197
f 320/789/198 316/790/198 318/791/198
f 320/789/198 318/791/198 322/792/198
f 317/793/199 321/794/199 323/795/199
f 317/793/199 323/795/199 319/796/199
usemtl common_rough_steel
f 325/797/200 324/798/200 164/799/200
f 325/797/200 164/799/200 326/800/200
f 164/801/201 119/802/201 303/803/201
f 164/801/201 303/803/201 326/804/201
f 324/805/202 301/806/202 119/807/202
f 324/805/202 119/807/202 164/808/202
usemtl common_steel_norivets
f 332/809/203 331/810/203 333/811/203
f 332/809/203 333/811/203 334/812/203
f 331/813/204 327/814/204 329/815/204
f 331/813/204 329/815/204 333/816/204
f 335/817/205 336/818/205 338/819/205
f 335/817/205 338/819/205 337/820/205
f 340/821/206 339/822/206 341/823/206
f 340/821/206 341/823/206 342/824/206
f 339/825/207 335/826/207 337/827/207
f 339/825/207 337/827/207 341/828/207
f 179/829/208 285/830/208 344/831/208
f 179/829/208 344/831/208 343/832/208
f 346/833/209 345/834/209 347/835/209
f 346/833/209 347/835/209 348/836/209
f 285/837/210 346/838/210 348/839/210
f 285/837/210 348/839/210 344/840/210
f 349/841/211 350/842/211 352/843/211
f 349/841/211 352/843/211 351/844/211
f 354/845/212 353/846/212 355/847/212
f 354/845/212 355/847/212 356/848/212
f 350/849/213 354/850/213 356/851/213
f 350/849/213 356/851/213 352/852/213
f 345/853/214 179/854/214 343/855/214
f 345/853/214 343/855/214 347/856/214
f 353/857/215 349/858/215 351/859/215
f 353/857/215 351/859/215 355/860/215
f 327/861/216 328/862/216 330/863/216
f 327/861/216 330/863/216 329/864/216
f 362/865/217 358/866/217 357/867/217
f 362/865/217 357/867/217 361/868/217
f 361/869/218 357/870/218 359/871/218
f 361/869/218 359/871/218 363/872/218
usemtl precision_assembler
f 358/873/219 362/874/219 364/875/219
f 358/873/219 364/875/219 360/876/219
usemtl common_steel_norivets
f 365/877/220 366/878/220 336/879/220
f 365/877/220 336/879/220 349/880/220
f 367/881/221 357/882/221 353/883/221
f 367/881/221 353/883/221 340/884/221
f 367/885/222 366/886/222 365/887/222
f 367/885/222 365/887/222 357/888/222
f 353/889/223 349/890/223 336/891/223
f 353/889/223 336/891/223 340/892/223
f 357/893/224 365/894/224 349/895/224
f 357/893/224 349/895/224 353/896/224
f 366/897/225 367/898/225 340/899/225
f 366/897/225 340/899/225 336/900/225
f 361/901/226 368/902/226 328/903/226
f 361/901/226 328/903/226 179/904/226
f 370/905/227 369/906/227 345/907/227
f 370/905/227 345/907/227 332/908/227
f 370/909/228 368/910/228 361/911/228
f 370/909/228 361/911/228 369/912/228
f 345/913/229 179/914/229 328/915/229
f 345/913/229 328/915/229 332/916/229
f 369/917/230 361/918/230 179/919/230
f 369/917/230 179/919/230 345/920/230
f 368/921/231 370/922/231 332/923/231
f 368/921/231 332/923/231 328/924/231
f 343/925/232 330/926/232 371/927/232
f 343/925/232 371/927/232 363/928/232
f 334/929/233 347/930/233 372/931/233
f 334/929/233 372/931/233 373/932/233
f 334/933/234 330/934/234 343/935/234
f 334/933/234 343/935/234 347/936/234
f 351/937/235 338/938/235 375/939/235
f 351/937/235 375/939/235 374/940/235
f 342/941/236 355/942/236 359/943/236
f 342/941/236 359/943/236 376/944/236
f 342/945/237 338/946/237 351/947/237
f 342/945/237 351/947/237 355/948/237
f 355/949/238 351/950/238 374/951/238
f 355/949/238 374/951/238 359/952/238
usemtl common_rough_steel
f 302/953/239 168/954/239 170/955/239
f 302/953/239 170/955/239 303/956/239
f 172/957/240 325/958/240 326/959/240
f 172/957/240 326/959/240 173/960/240
f 172/961/241 168/962/241 302/963/241
f 172/961/241 302/963/241 325/964/241
f 326/965/242 303/966/242 170/967/242
f 326/965/242 170/967/242 173/968/242
f 325/969/243 302/970/243 303/971/243
f 325/969/243 303/971/243 326/972/243
f 168/973/244 172/974/244 173/975/244
f 168/973/244 173/975/244 170/976/244
usemtl precision_assembler
f 749/977/245 750/978/245 379/979/245
f 749/977/245 379/979/245 378/980/245
f 379/981/246 177/982/246 377/983/246
f 379/981/246 377/983/246 378/984/246
usemtl common_steel_norivets
f 748/985/247 749/986/247 378/987/247
f 748/985/247 378/987/247 377/988/247
usemtl precision_assembler
f 380/989/248 381/990/248 383/991/248
f 380/989/248 383/991/248 382/992/248
f 385/993/249 384/994/249 386/995/249
f 385/993/249 386/995/249 387/996/249
usemtl common_thingies
f 385/997/250 381/998/250 380/999/250
f 385/997/250 380/999/250 384/1000/250
usemtl precision_assembler
f 384/1001/251 380/1002/251 382/1003/251
f 384/1001/251 382/1003/251 386/1004/251
f 381/1005/252 385/1006/252 387/1007/252
f 381/1005/252 387/1007/252 383/1008/252
f 382/1009/253 383/1010/253 389/1011/253
f 382/1009/253 389/1011/253 388/1012/253
f 387/1013/254 386/1014/254 390/1015/254
f 387/1013/254 390/1015/254 391/1016/254
f 386/1017/255 382/1018/255 388/1019/255
f 386/1017/255 388/1019/255 390/1020/255
f 383/1021/256 387/1022/256 391/1023/256
f 383/1021/256 391/1023/256 389/1024/256
usemtl common_steel_norivets
f 392/1025/257 393/1026/257 395/1027/257
f 392/1025/257 395/1027/257 394/1028/257
f 397/1029/258 396/1030/258 398/1031/258
f 397/1029/258 398/1031/258 399/1032/258
f 397/1033/259 393/1034/259 392/1035/259
f 397/1033/259 392/1035/259 396/1036/259
f 396/1037/260 392/1038/260 394/1039/260
f 396/1037/260 394/1039/260 398/1040/260
f 393/1041/261 397/1042/261 399/1043/261
f 393/1041/261 399/1043/261 395/1044/261
usemtl precision_assembler
f 399/1045/262 398/1046/262 373/1047/262
f 399/1045/262 373/1047/262 171/1048/262
f 398/1049/263 394/1050/263 400/1051/263
f 398/1049/263 400/1051/263 373/1052/263
f 395/1053/264 399/1054/264 171/1055/264
f 395/1053/264 171/1055/264 167/1056/264
f 394/1057/265 395/1058/265 167/1059/265
f 394/1057/265 167/1059/265 400/1060/265
usemtl common_bottom
f 406/1061/266 402/1062/266 401/1063/266
f 406/1061/266 401/1063/266 405/1064/266
f 405/1065/267 401/1066/267 403/1067/267
f 405/1065/267 403/1067/267 407/1068/267
f 402/1069/268 406/1070/268 408/1071/268
f 402/1069/268 408/1071/268 404/1072/268
f 415/1073/269 411/1074/269 412/1075/269
f 415/1073/269 412/1075/269 416/1076/269
f 413/1077/270 409/1078/270 411/1079/270
f 413/1077/270 411/1079/270 415/1080/270
f 410/1081/271 414/1082/271 416/1083/271
f 410/1081/271 416/1083/271 412/1084/271
usemtl precision_assembler
f 366/1085/272 417/1086/272 419/1087/272
f 366/1085/272 419/1087/272 418/1088/272
f 421/1089/273 417/1090/273 366/1091/273
f 421/1089/273 366/1091/273 420/1092/273
f 422/1093/274 418/1094/274 419/1095/274
f 422/1093/274 419/1095/274 423/1096/274
f 420/1097/275 366/1098/275 418/1099/275
f 420/1097/275 418/1099/275 422/1100/275
f 417/1101/276 421/1102/276 423/1103/276
f 417/1101/276 423/1103/276 419/1104/276
f 418/1105/277 419/1106/277 425/1107/277
f 418/1105/277 425/1107/277 424/1108/277
f 426/1109/278 409/1110/278 403/1111/278
f 426/1109/278 403/1111/278 427/1112/278
f 409/1113/279 418/1114/279 424/1115/279
f 409/1113/279 424/1115/279 403/1116/279
f 419/1117/280 426/1118/280 427/1119/280
f 419/1117/280 427/1119/280 425/1120/280
f 425/1121/281 428/1122/281 375/1123/281
f 425/1121/281 375/1123/281 424/1124/281
f 375/1125/282 428/1126/282 429/1127/282
f 375/1125/282 429/1127/282 400/1128/282
f 425/1129/283 424/1130/283 430/1131/283
f 425/1129/283 430/1131/283 431/1132/283
f 424/1133/284 375/1134/284 400/1135/284
f 424/1133/284 400/1135/284 430/1136/284
f 431/1137/285 429/1138/285 428/1139/285
f 431/1137/285 428/1139/285 425/1140/285
f 413/1141/286 432/1142/286 433/1143/286
f 413/1141/286 433/1143/286 407/1144/286
f 422/1145/287 413/1146/287 407/1147/287
f 422/1145/287 407/1147/287 430/1148/287
f 432/1149/288 423/1150/288 431/1151/288
f 432/1149/288 431/1151/288 433/1152/288
usemtl common_steel
f 437/1153/289 435/1154/289 434/1155/289
f 437/1153/289 434/1155/289 436/1156/289
f 73/1157/290 296/1158/290 438/1159/290
f 73/1157/290 438/1159/290 439/1160/290
f 436/1161/291 434/1162/291 296/1163/291
f 436/1161/291 296/1163/291 73/1164/291
f 439/1165/292 438/1166/292 435/1167/292
f 439/1165/292 435/1167/292 437/1168/292
f 441/1169/293 440/1170/293 169/1171/293
f 441/1169/293 169/1171/293 77/1172/293
f 444/1173/294 442/1174/294 443/1175/294
f 444/1173/294 443/1175/294 445/1176/294
f 77/1177/295 169/1178/295 442/1179/295
f 77/1177/295 442/1179/295 444/1180/295
f 445/1181/296 443/1182/296 440/1183/296
f 445/1181/296 440/1183/296 441/1184/296
f 75/1185/297 439/1186/297 446/1187/297
f 75/1185/297 446/1187/297 447/1188/297
f 449/1189/298 448/1190/298 441/1191/298
f 449/1189/298 441/1191/298 76/1192/298
usemtl common_bottom
f 75/1193/299 447/1194/299 449/1195/299
f 75/1193/299 449/1195/299 76/1196/299
usemtl common_steel
f 439/1197/300 438/1198/300 450/1199/300
f 439/1197/300 450/1199/300 446/1200/300
f 448/1201/301 451/1202/301 440/1203/301
f 448/1201/301 440/1203/301 441/1204/301
f 450/1205/302 438/1206/302 440/1207/302
f 450/1205/302 440/1207/302 451/1208/302
f 452/1209/303 453/1210/303 455/1211/303
f 452/1209/303 455/1211/303 454/1212/303
f 447/1213/304 74/1214/304 78/1215/304
f 447/1213/304 78/1215/304 449/1216/304
f 74/1217/305 452/1218/305 454/1219/305
f 74/1217/305 454/1219/305 78/1220/305
usemtl common_thingies
f 456/1221/306 457/1222/306 459/1223/306
f 456/1221/306 459/1223/306 458/1224/306
f 461/1225/307 460/1226/307 462/1227/307
f 461/1225/307 462/1227/307 463/1228/307
f 457/1229/308 461/1230/308 463/1231/308
f 457/1229/308 463/1231/308 459/1232/308
f 464/1233/309 465/1234/309 467/1235/309
f 464/1233/309 467/1235/309 466/1236/309
f 469/1237/310 468/1238/310 470/1239/310
f 469/1237/310 470/1239/310 471/1240/310
f 469/1241/311 465/1242/311 464/1243/311
f 469/1241/311 464/1243/311 468/1244/311
f 470/1245/312 466/1246/312 467/1247/312
f 470/1245/312 467/1247/312 471/1248/312
f 465/1249/313 469/1250/313 471/1251/313
f 465/1249/313 471/1251/313 467/1252/313
usemtl precision_assembler
f 472/1253/314 473/1254/314 475/1255/314
f 472/1253/314 475/1255/314 474/1256/314
f 477/1257/315 473/1258/315 472/1259/315
f 477/1257/315 472/1259/315 476/1260/315
f 478/1261/316 474/1262/316 475/1263/316
f 478/1261/316 475/1263/316 479/1264/316
f 58/1265/317 70/1266/317 481/1267/317
f 58/1265/317 481/1267/317 480/1268/317
f 483/1269/318 70/1270/318 58/1271/318
f 483/1269/318 58/1271/318 482/1272/318
f 484/1273/319 480/1274/319 481/1275/319
f 484/1273/319 481/1275/319 485/1276/319
f 486/1277/320 487/1278/320 489/1279/320
f 486/1277/320 489/1279/320 488/1280/320
f 491/1281/321 487/1282/321 486/1283/321
f 491/1281/321 486/1283/321 490/1284/321
f 492/1285/322 488/1286/322 489/1287/322
f 492/1285/322 489/1287/322 493/1288/322
f 490/1289/323 486/1290/323 488/1291/323
f 490/1289/323 488/1291/323 492/1292/323
f 487/1293/324 491/1294/324 493/1295/324
f 487/1293/324 493/1295/324 489/1296/324
f 494/1297/325 495/1298/325 493/1299/325
f 494/1297/325 493/1299/325 492/1300/325
f 497/1301/326 496/1302/326 498/1303/326
f 497/1301/326 498/1303/326 499/1304/326
f 497/1305/327 495/1306/327 494/1307/327
f 497/1305/327 494/1307/327 496/1308/327
f 498/1309/328 492/1310/328 493/1311/328
f 498/1309/328 493/1311/328 499/1312/328
f 496/1313/329 494/1314/329 492/1315/329
f 496/1313/329 492/1315/329 498/1316/329
f 495/1317/330 497/1318/330 499/1319/330
f 495/1317/330 499/1319/330 493/1320/330
usemtl common_thingies
f 500/1321/331 501/1322/331 503/1323/331
f 500/1321/331 503/1323/331 502/1324/331
f 505/1325/332 501/1326/332 500/1327/332
f 505/1325/332 500/1327/332 504/1328/332
f 506/1329/333 502/1330/333 503/1331/333
f 506/1329/333 503/1331/333 507/1332/333
f 504/1333/334 500/1334/334 502/1335/334
f 504/1333/334 502/1335/334 506/1336/334
f 501/1337/335 505/1338/335 507/1339/335
f 501/1337/335 507/1339/335 503/1340/335
usemtl common_machinebase
f 56/1341/336 508/1342/336 70/1343/336
f 56/1341/336 70/1343/336 72/1344/336
f 58/1345/337 509/1346/337 55/1347/337
f 58/1345/337 55/1347/337 60/1348/337
usemtl common_steel
f 510/1349/338 511/1350/338 513/1351/338
f 510/1349/338 513/1351/338 512/1352/338
f 515/1353/339 514/1354/339 516/1355/339
f 515/1353/339 516/1355/339 517/1356/339
f 515/1357/340 511/1358/340 510/1359/340
f 515/1357/340 510/1359/340 514/1360/340
f 516/1361/341 512/1362/341 513/1363/341
f 516/1361/341 513/1363/341 517/1364/341
f 511/1365/342 515/1366/342 517/1367/342
f 511/1365/342 517/1367/342 513/1368/342
f 518/1369/343 519/1370/343 521/1371/343
f 518/1369/343 521/1371/343 520/1372/343
f 523/1373/344 522/1374/344 524/1375/344
f 523/1373/344 524/1375/344 525/1376/344
f 523/1377/345 519/1378/345 518/1379/345
f 523/1377/345 518/1379/345 522/1380/345
f 524/1381/346 520/1382/346 521/1383/346
f 524/1381/346 521/1383/346 525/1384/346
f 519/1385/347 523/1386/347 525/1387/347
f 519/1385/347 525/1387/347 521/1388/347
f 512/1389/348 513/1390/348 519/1391/348
f 512/1389/348 519/1391/348 518/1392/348
f 527/1393/349 526/1394/349 528/1395/349
f 527/1393/349 528/1395/349 529/1396/349
f 513/1397/350 527/1398/350 529/1399/350
f 513/1397/350 529/1399/350 519/1400/350
f 530/1401/351 531/1402/351 533/1403/351
f 530/1401/351 533/1403/351 532/1404/351
f 517/1405/352 516/1406/352 522/1407/352
f 517/1405/352 522/1407/352 523/1408/352
f 531/1409/353 517/1410/353 523/1411/353
f 531/1409/353 523/1411/353 533/1412/353
usemtl common_steel_norivets
f 534/1413/354 170/1414/354 297/1415/354
f 534/1413/354 297/1415/354 508/1416/354
f 300/1417/355 303/1418/355 535/1419/355
f 300/1417/355 535/1419/355 509/1420/355
usemtl common_rough_steel
f 96/1421/356 90/1422/356 61/1423/356
f 96/1421/356 61/1423/356 1/1424/356
f 65/1425/357 93/1426/357 97/1427/357
f 65/1425/357 97/1427/357 98/1428/357
f 452/1429/358 73/1430/358 446/1431/358
f 452/1429/358 446/1431/358 453/1432/358
f 448/1433/359 77/1434/359 454/1435/359
f 448/1433/359 454/1435/359 455/1436/359
usemtl precision_assembler
f 543/1437/360 536/1438/360 537/1439/360
f 543/1437/360 537/1439/360 542/1440/360
f 541/1441/361 538/1442/361 539/1443/361
f 541/1441/361 539/1443/361 540/1444/361
f 542/1445/362 537/1446/362 538/1447/362
f 542/1445/362 538/1447/362 541/1448/362
f 540/1449/363 539/1450/363 536/1451/363
f 540/1449/363 536/1451/363 543/1452/363
f 538/1453/364 537/1454/364 536/1455/364
f 538/1453/364 536/1455/364 539/1456/364
f 551/1457/365 544/1458/365 545/1459/365
f 551/1457/365 545/1459/365 550/1460/365
f 549/1461/366 546/1462/366 547/1463/366
f 549/1461/366 547/1463/366 548/1464/366
f 550/1465/367 545/1466/367 546/1467/367
f 550/1465/367 546/1467/367 549/1468/367
f 548/1469/368 547/1470/368 544/1471/368
f 548/1469/368 544/1471/368 551/1472/368
f 546/1473/369 545/1474/369 544/1475/369
f 546/1473/369 544/1475/369 547/1476/369
f 559/1477/370 552/1478/370 553/1479/370
f 559/1477/370 553/1479/370 558/1480/370
f 557/1481/371 554/1482/371 555/1483/371
f 557/1481/371 555/1483/371 556/1484/371
f 558/1485/372 553/1486/372 554/1487/372
f 558/1485/372 554/1487/372 557/1488/372
f 556/1489/373 555/1490/373 552/1491/373
f 556/1489/373 552/1491/373 559/1492/373
f 554/1493/374 553/1494/374 552/1495/374
f 554/1493/374 552/1495/374 555/1496/374
usemtl common_bottom
f 564/1497/375 562/1498/375 560/1499/375
f 564/1497/375 560/1499/375 71/1500/375
usemtl common_machinebase
f 69/1501/376 71/1502/376 72/1503/376
f 69/1501/376 72/1503/376 70/1504/376
usemtl common_bottom
f 563/1505/377 562/1506/377 561/1507/377
f 563/1505/377 561/1507/377 56/1508/377
f 562/1509/378 564/1510/378 74/1511/378
f 562/1509/378 74/1511/378 561/1512/378
usemtl common_machinebase
f 73/1513/379 74/1514/379 71/1515/379
f 73/1513/379 71/1515/379 69/1516/379
usemtl common_bottom
f 568/1517/380 569/1518/380 55/1519/380
f 568/1517/380 55/1519/380 566/1520/380
usemtl common_machinebase
f 565/1521/381 567/1522/381 58/1523/381
f 565/1521/381 58/1523/381 60/1524/381
usemtl common_bottom
f 569/1525/382 568/1526/382 565/1527/382
f 569/1525/382 565/1527/382 60/1528/382
f 568/1529/383 570/1530/383 59/1531/383
f 568/1529/383 59/1531/383 565/1532/383
usemtl common_machinebase
f 57/1533/384 59/1534/384 62/1535/384
f 57/1533/384 62/1535/384 61/1536/384
usemtl common_bottom
f 496/1537/385 497/1538/385 479/1539/385
f 496/1537/385 479/1539/385 478/1540/385
f 295/1541/386 299/1542/386 571/1543/386
f 295/1541/386 571/1543/386 572/1544/386
f 295/1545/387 497/1546/387 496/1547/387
f 295/1545/387 496/1547/387 299/1548/387
f 573/1549/388 574/1550/388 576/1551/388
f 573/1549/388 576/1551/388 575/1552/388
f 572/1553/389 571/1554/389 55/1555/389
f 572/1553/389 55/1555/389 56/1556/389
f 55/1557/390 575/1558/390 576/1559/390
f 55/1557/390 576/1559/390 56/1560/390
usemtl common_rough_steel
f 591/1561/391 590/1562/391 580/1563/391
f 591/1561/391 580/1563/391 586/1564/391
f 584/1565/392 585/1566/392 137/1567/392
f 584/1565/392 137/1567/392 305/1568/392
f 580/1569/393 579/1570/393 305/1571/393
f 580/1569/393 305/1571/393 137/1572/393
f 585/1573/394 586/1574/394 580/1575/394
f 585/1573/394 580/1575/394 137/1576/394
f 582/1577/395 581/1578/395 578/1579/395
f 582/1577/395 578/1579/395 300/1580/395
f 596/1581/396 597/1582/396 585/1583/396
f 596/1581/396 585/1583/396 584/1584/396
f 598/1585/397 599/1586/397 591/1587/397
f 598/1585/397 591/1587/397 586/1588/397
f 589/1589/398 590/1590/398 124/1591/398
f 589/1589/398 124/1591/398 304/1592/398
f 590/1593/399 591/1594/399 587/1595/399
f 590/1593/399 587/1595/399 124/1596/399
f 599/1597/400 600/1598/400 587/1599/400
f 599/1597/400 587/1599/400 591/1600/400
f 592/1601/401 593/1602/401 135/1603/401
f 592/1601/401 135/1603/401 577/1604/401
usemtl precision_assembler
f 595/1605/402 594/1606/402 682/1607/402
f 595/1605/402 682/1607/402 374/1608/402
usemtl common_wooden_base_light
f 374/1609/403 496/1610/403 584/1611/403
f 374/1609/403 584/1611/403 681/1612/403
usemtl common_rough_steel
f 597/1613/404 596/1614/404 496/1615/404
f 597/1613/404 496/1615/404 578/1616/404
f 578/1617/405 581/1618/405 586/1619/405
f 578/1617/405 586/1619/405 585/1620/405
f 599/1621/406 598/1622/406 581/1623/406
f 599/1621/406 581/1623/406 592/1624/406
f 600/1625/407 599/1626/407 592/1627/407
f 600/1625/407 592/1627/407 577/1628/407
f 135/1629/408 298/1630/408 304/1631/408
f 135/1629/408 304/1631/408 124/1632/408
f 603/1633/409 602/1634/409 294/1635/409
f 603/1633/409 294/1635/409 296/1636/409
f 607/1637/410 608/1638/410 297/1639/410
f 607/1637/410 297/1639/410 604/1640/410
f 497/1641/411 604/1642/411 297/1643/411
f 497/1641/411 297/1643/411 295/1644/411
usemtl common_wooden_base_light
f 615/1645/412 610/1646/412 428/1647/412
f 615/1645/412 428/1647/412 602/1648/412
usemtl common_rough_steel
f 606/1649/413 605/1650/413 306/1651/413
f 606/1649/413 306/1651/413 146/1652/413
f 613/1653/414 614/1654/414 603/1655/414
f 613/1653/414 603/1655/414 607/1656/414
f 608/1657/415 607/1658/415 603/1659/415
f 608/1657/415 603/1659/415 296/1660/415
f 428/1661/416 609/1662/416 294/1663/416
f 428/1661/416 294/1663/416 602/1664/416
usemtl common_wooden_base_light
f 611/1665/417 610/1666/417 605/1667/417
f 611/1665/417 605/1667/417 307/1668/417
usemtl common_rough_steel
f 612/1669/418 611/1670/418 307/1671/418
f 612/1669/418 307/1671/418 142/1672/418
f 613/1673/419 612/1674/419 142/1675/419
f 613/1673/419 142/1675/419 606/1676/419
f 614/1677/420 613/1678/420 606/1679/420
f 614/1677/420 606/1679/420 146/1680/420
f 615/1681/421 614/1682/421 146/1683/421
f 615/1681/421 146/1683/421 306/1684/421
usemtl common_wooden_base_light
f 610/1685/422 615/1686/422 306/1687/422
f 610/1685/422 306/1687/422 605/1688/422
usemtl common_bottom
f 618/1689/423 619/1690/423 617/1691/423
f 618/1689/423 617/1691/423 616/1692/423
f 619/1693/424 618/1694/424 53/1695/424
f 619/1693/424 53/1695/424 51/1696/424
f 622/1697/425 623/1698/425 621/1699/425
f 622/1697/425 621/1699/425 620/1700/425
f 623/1701/426 622/1702/426 54/1703/426
f 623/1701/426 54/1703/426 52/1704/426
usemtl common_machinebase
f 80/1705/427 78/1706/427 77/1707/427
f 80/1705/427 77/1707/427 79/1708/427
usemtl common_bottom
f 625/1709/428 624/1710/428 68/1711/428
f 625/1709/428 68/1711/428 66/1712/428
f 626/1713/429 627/1714/429 51/1715/429
f 626/1713/429 51/1715/429 53/1716/429
usemtl common_machinebase
f 67/1717/430 65/1718/430 66/1719/430
f 67/1717/430 66/1719/430 68/1720/430
usemtl common_thingies
f 633/1721/431 632/1722/431 634/1723/431
f 633/1721/431 634/1723/431 635/1724/431
f 633/1725/432 629/1726/432 628/1727/432
f 633/1725/432 628/1727/432 632/1728/432
f 634/1729/433 630/1730/433 631/1731/433
f 634/1729/433 631/1731/433 635/1732/433
f 632/1733/434 628/1734/434 630/1735/434
f 632/1733/434 630/1735/434 634/1736/434
f 629/1737/435 633/1738/435 635/1739/435
f 629/1737/435 635/1739/435 631/1740/435
f 641/1741/436 640/1742/436 642/1743/436
f 641/1741/436 642/1743/436 643/1744/436
f 641/1745/437 637/1746/437 636/1747/437
f 641/1745/437 636/1747/437 640/1748/437
f 642/1749/438 638/1750/438 639/1751/438
f 642/1749/438 639/1751/438 643/1752/438
f 640/1753/439 636/1754/439 638/1755/439
f 640/1753/439 638/1755/439 642/1756/439
f 637/1757/440 641/1758/440 643/1759/440
f 637/1757/440 643/1759/440 639/1760/440
f 649/1761/441 648/1762/441 650/1763/441
f 649/1761/441 650/1763/441 651/1764/441
f 649/1765/442 645/1766/442 644/1767/442
f 649/1765/442 644/1767/442 648/1768/442
f 650/1769/443 646/1770/443 647/1771/443
f 650/1769/443 647/1771/443 651/1772/443
f 648/1773/444 644/1774/444 646/1775/444
f 648/1773/444 646/1775/444 650/1776/444
f 645/1777/445 649/1778/445 651/1779/445
f 645/1777/445 651/1779/445 647/1780/445
f 656/1781/446 657/1782/446 655/1783/446
f 656/1781/446 655/1783/446 654/1784/446
f 659/1785/447 656/1786/447 654/1787/447
f 659/1785/447 654/1787/447 652/1788/447
f 657/1789/448 658/1790/448 653/1791/448
f 657/1789/448 653/1791/448 655/1792/448
f 664/1793/449 665/1794/449 663/1795/449
f 664/1793/449 663/1795/449 662/1796/449
f 667/1797/450 664/1798/450 662/1799/450
f 667/1797/450 662/1799/450 660/1800/450
f 665/1801/451 666/1802/451 661/1803/451
f 665/1801/451 661/1803/451 663/1804/451
f 672/1805/452 673/1806/452 671/1807/452
f 672/1805/452 671/1807/452 670/1808/452
f 675/1809/453 672/1810/453 670/1811/453
f 675/1809/453 670/1811/453 668/1812/453
f 673/1813/454 674/1814/454 669/1815/454
f 673/1813/454 669/1815/454 671/1816/454
usemtl common_steel
f 676/1817/455 677/1818/455 583/1819/455
f 676/1817/455 583/1819/455 298/1820/455
f 679/1821/456 677/1822/456 676/1823/456
f 679/1821/456 676/1823/456 678/1824/456
usemtl precision_assembler
f 678/1825/457 676/1826/457 298/1827/457
f 678/1825/457 298/1827/457 301/1828/457
usemtl common_steel
f 679/1829/458 678/1830/458 301/1831/458
f 679/1829/458 301/1831/458 680/1832/458
usemtl common_wooden_base_light
f 595/1833/459 579/1834/459 304/1835/459
f 595/1833/459 304/1835/459 601/1836/459
f 681/1837/460 584/1838/460 305/1839/460
f 681/1837/460 305/1839/460 579/1840/460
f 682/1841/461 588/1842/461 583/1843/461
f 682/1841/461 583/1843/461 374/1844/461
f 588/1845/462 594/1846/462 601/1847/462
f 588/1845/462 601/1847/462 298/1848/462
usemtl common_machinebase
f 79/1849/463 77/1850/463 448/1851/463
f 79/1849/463 448/1851/463 683/1852/463
f 73/1853/464 69/1854/464 684/1855/464
f 73/1853/464 684/1855/464 446/1856/464
f 69/1857/465 70/1858/465 88/1859/465
f 69/1857/465 88/1859/465 685/1860/465
f 58/1861/466 57/1862/466 686/1863/466
f 58/1861/466 686/1863/466 84/1864/466
f 688/1865/467 93/1866/467 65/1867/467
f 688/1865/467 65/1867/467 67/1868/467
f 90/1869/468 687/1870/468 57/1871/468
f 90/1869/468 57/1871/468 61/1872/468
usemtl common_steel
f 447/1873/469 450/1874/469 451/1875/469
f 447/1873/469 451/1875/469 449/1876/469
f 689/1877/470 691/1878/470 692/1879/470
f 689/1877/470 692/1879/470 690/1880/470
f 694/1881/471 693/1882/471 695/1883/471
f 694/1881/471 695/1883/471 696/1884/471
f 703/1885/472 701/1886/472 702/1887/472
f 703/1885/472 702/1887/472 704/1888/472
f 699/1889/473 697/1890/473 698/1891/473
f 699/1889/473 698/1891/473 700/1892/473
usemtl common_machinebase
f 67/1893/474 68/1894/474 705/1895/474
f 67/1893/474 705/1895/474 706/1896/474
f 708/1897/475 707/1898/475 67/1899/475
f 708/1897/475 67/1899/475 706/1900/475
usemtl common_steel
f 711/1901/476 710/1902/476 709/1903/476
f 711/1901/476 709/1903/476 712/1904/476
f 715/1905/477 714/1906/477 716/1907/477
f 715/1905/477 716/1907/477 717/1908/477
f 706/1909/478 713/1910/478 714/1911/478
f 706/1909/478 714/1911/478 715/1912/478
usemtl common_machinebase
f 718/1913/479 80/1914/479 79/1915/479
f 718/1913/479 79/1915/479 719/1916/479
f 79/1917/480 720/1918/480 721/1919/480
f 79/1917/480 721/1919/480 719/1920/480
usemtl common_steel
f 722/1921/481 723/1922/481 724/1923/481
f 722/1921/481 724/1923/481 725/1924/481
f 729/1925/482 727/1926/482 728/1927/482
f 729/1925/482 728/1927/482 730/1928/482
f 727/1929/483 726/1930/483 719/1931/483
f 727/1929/483 719/1931/483 728/1932/483
f 89/1933/484 741/1934/484 734/1935/484
f 89/1933/484 734/1935/484 732/1936/484
f 745/1937/485 743/1938/485 738/1939/485
f 745/1937/485 738/1939/485 737/1940/485
f 733/1941/486 731/1942/486 713/1943/486
f 733/1941/486 713/1943/486 705/1944/486
f 718/1945/487 726/1946/487 732/1947/487
f 718/1945/487 732/1947/487 734/1948/487
f 743/1949/488 54/1950/488 718/1951/488
f 743/1949/488 718/1951/488 738/1952/488
f 740/1953/489 739/1954/489 731/1955/489
f 740/1953/489 731/1955/489 733/1956/489
f 741/1957/490 89/1958/490 739/1959/490
f 741/1957/490 739/1959/490 740/1960/490
f 53/1961/491 742/1962/491 735/1963/491
f 53/1961/491 735/1963/491 705/1964/491
f 54/1965/492 743/1966/492 742/1967/492
f 54/1965/492 742/1967/492 53/1968/492
f 742/1969/493 744/1970/493 736/1971/493
f 742/1969/493 736/1971/493 735/1972/493
f 743/1973/494 745/1974/494 744/1975/494
f 743/1973/494 744/1975/494 742/1976/494
usemtl common_table_steel
f 8/1977/495 4/1978/495 360/1979/495
f 8/1977/495 360/1979/495 746/1980/495
f 747/1981/496 376/1982/496 13/1983/496
f 747/1981/496 13/1983/496 17/1984/496
f 371/1985/497 747/1986/497 291/1987/497
f 371/1985/497 291/1987/497 293/1988/497
usemtl common_steel_norivets
f 749/1989/498 748/1990/498 301/1991/498
f 749/1989/498 301/1991/498 324/1992/498
usemtl precision_assembler
f 750/1993/499 749/1994/499 324/1995/499
f 750/1993/499 324/1995/499 372/1996/499
f 751/1997/500 752/1998/500 754/1999/500
f 751/1997/500 754/1999/500 753/2000/500
f 756/2001/501 755/2002/501 757/2003/501
f 756/2001/501 757/2003/501 758/2004/501
f 756/2005/502 752/2006/502 751/2007/502
f 756/2005/502 751/2007/502 755/2008/502
f 757/2009/503 753/2010/503 754/2011/503
f 757/2009/503 754/2011/503 758/2012/503
f 755/2013/504 751/2014/504 753/2015/504
f 755/2013/504 753/2015/504 757/2016/504