# Made by Pabilo8 with Blockbench
# Exported with IIToolkit Plugin
mtllib glass.mtl


o G1
v 0.0625 0.125 -0.1875
v 0.0625 0.0625 0
v 0.0625 0.0625 -0.1875
v -0.0625 0.125 0
v -0.0625 0.125 -0.1875
v -0.0625 0.0625 0
v -0.0625 0.0625 -0.1875
vt 0.1875 0.9375
vt 0.1875 1
vt 0 1
vt 0 0.9375
vt 0.125 0.8125
vt 0.125 1
vt 0 1
vt 0 0.8125
vt 0.125 0.9375
vt 0.125 1
vt 0 1
vt 0 0.9375
vn -1 0 0
vn 0 -1 0
vn 0 0 -1
usemtl glass
f 6/1/1 4/2/1 5/3/1 7/4/1
f 3/5/2 2/6/2 6/7/2 7/8/2
f 7/9/3 5/10/3 1/11/3 3/12/3