# Made by Pabilo8 with Blockbench
# Exported with IIToolkit Plugin
mtllib glass.mtl


o G2
v 0 0.1875 -0.1875
v 0 0.125 -0.1875
v -0.0625 0.1875 -0.125
v -0.0625 0.1875 -0.1875
v -0.0625 0.125 -0.125
v -0.0625 0.125 -0.1875
vt 0.1875 0.9375
vt 0.1875 1
vt 0 1
vt 0 0.9375
vt 0.125 0.9375
vt 0.125 1
vt 0 1
vt 0 0.9375
vn -1 0 0
vn 0 0 -1
usemtl glass
f 5/1/1 3/2/1 4/3/1 6/4/1
f 6/5/2 4/6/2 1/7/2 2/8/2
o G3
v 0.0625 0.125 -0.1875
v 0.0625 0.0625 -0.0625
v 0.0625 0.0625 -0.1875
v -0.0625 0.125 -0.0625
v -0.0625 0.125 -0.1875
v -0.0625 0.0625 -0.0625
v -0.0625 0.0625 -0.1875
vt 0.1875 0.9375
vt 0.1875 1
vt 0 1
vt 0 0.9375
vt 0.125 0.8125
vt 0.125 1
vt 0 1
vt 0 0.8125
vt 0.125 0.9375
vt 0.125 1
vt 0 1
vt 0 0.9375
vn -1 0 0
vn 0 -1 0
vn 0 0 -1
usemtl glass
f 12/9/3 10/10/3 11/11/3 13/12/3
f 9/13/4 8/14/4 12/15/4 13/16/4
f 13/17/5 11/18/5 7/19/5 9/20/5