# Made by Pabilo8 with Blockbench
# Exported with IIToolkit Plugin
mtllib radar.mtl


o base
v -0.8749999999999987 1.875000625 5.75
v 4.000000000000002 1 5.062499999999999
v 3.9999993750000016 0.500000625 5.062499999999999
v 4.000000000000001 1 3.062499999999999
v 3.999999375000001 0.500000625 3.062499999999999
v 2.0000000000000013 1 5.0625
v 2.0000000000000013 0.500000625 5.0625
v 2.000000000000001 1 3.0624999999999996
v 2.000000000000001 0.500000625 3.0624999999999996
v 1.5543122344752192e-15 1 5.0625
v 1.5543122344752192e-15 0.500000625 5.0625
v 1.1102230246251565e-15 1 3.0625
v 1.1102230246251565e-15 0.500000625 3.0625
v 4 1 1.0624999999999991
v 3.9999993750000007 0.500000625 1.0624999999999991
v 2.0000000000000004 1 1.0624999999999996
v 2.0000000000000004 0.500000625 1.0624999999999996
v 6.661338147750939e-16 0.500000625 1.0625
v 6.661338147750939e-16 1 1.0625
v 4.999999375000002 0.5 2.9999999999999987
v 5.000000000000001 6.249999999763389e-7 2.9999999999999987
v 4.999999375 0.5 -1.3322676295501878e-15
v 5 6.249999999763389e-7 -1.3322676295501878e-15
v 2.000000000000001 0.500000625 2.9999999999999996
v 2.000000000000001 0 2.9999999999999996
v 2.0000000000000004 0.500000625 -4.440892098500626e-16
v 2.0000000000000004 0 -4.440892098500626e-16
v 2.0000000000000018 0.500000625 6
v 2.0000000000000018 0 6
v 4.999999375000002 0.5 5.999999999999998
v 5.000000000000002 6.249999999763389e-7 5.999999999999998
v -0.9999999999999991 0.500000625 3
v -0.9999999999999991 0 3
v -0.9999999999999987 0.500000625 6
v -0.9999999999999987 0 6
v -1 0.500000625 0
v -1 0 0
v 1.3322676295501878e-15 1.250000625 4
v -0.9999999999999991 1.25 4
v 1.3322676295501878e-15 0.500000625 4
v -0.9999999999999991 0.500000625 4
v 1.1102230246251565e-15 1.250000625 3
v -0.9999999999999991 1.25 3
v 1.1102230246251565e-15 0.500000625 3
v 1.5543122344752192e-15 1.250000625 5
v -0.9999999999999987 1.25 5
v 1.5543122344752192e-15 0.500000625 5
v -0.9999999999999987 0.500000625 5
v 1.7763568394002505e-15 1.250000625 6
v -0.9999999999999987 1.25 6
v 1.7763568394002505e-15 0.500000625 6
v -0.8749999999999987 1.875000625 4.25
v -0.37499999999999867 1.875000625 4.25
v -0.8749999999999987 1.375 4.25
v -0.37499999999999867 1.375 4.25
v -0.8749999999999987 1.875000625 4.75
v -0.37499999999999867 1.875000625 4.75
v -0.8749999999999987 1.375 4.75
v -0.37499999999999867 1.375 4.75
v -0.8749999999999991 1.875000625 3.25
v -0.3749999999999991 1.875000625 3.25
v -0.8749999999999991 1.375 3.25
v -0.3749999999999991 1.375 3.25
v -0.8749999999999991 1.875000625 3.75
v -0.3749999999999991 1.875000625 3.75
v -0.8749999999999991 1.375 3.75
v -0.3749999999999991 1.375 3.75
v -0.9999999999999991 2.000000625 3.125
v -0.8749999999999991 2 3.125
v -0.9999999999999991 1.25 3.125
v -0.8750006249999989 1.250000625 3.125
v -0.9999999999999991 2.000000625 3.875
v -0.8749999999999991 2 3.875
v -0.9999999999999991 1.25 3.875
v -0.8750006249999989 1.250000625 3.875
v -0.9999999999999987 2.000000625 4.125
v -0.8749999999999987 2 4.125
v -0.9999999999999987 1.25 4.125
v -0.8750006249999984 1.250000625 4.125
v -0.9999999999999987 2.000000625 4.875
v -0.8749999999999987 2 4.875
v -0.9999999999999987 1.25 4.875
v -0.8750006249999984 1.250000625 4.875
v -0.9999999999999987 2.000000625 5.125
v -0.8749999999999987 2 5.125
v -0.9999999999999987 1.25 5.125
v -0.8750006249999984 1.250000625 5.125
v -0.9999999999999987 2.000000625 5.875
v -0.8749999999999987 2 5.875
v -0.9999999999999987 1.25 5.875
v -0.8750006249999984 1.250000625 5.875
v -0.8749999999999987 1.875000625 5.25
v -0.37499999999999867 1.875000625 5.25
v -0.8749999999999987 1.375 5.25
v -0.37499999999999867 1.375 5.25
v -0.37499999999999867 1.875000625 5.75
v -0.8749999999999987 1.375 5.75
v -0.37499999999999867 1.375 5.75
v 0.9571218750000012 1.3133706250000001 4.403104375
v 0.6792750000000014 1.5007812500000002 4.68432375
v 0.7655468750000014 0.748634375 4.590177499999999
v 0.4876993750000014 0.936044375 4.8713975000000005
v 0.6469231250000012 1.31640625 4.0946025
v 0.36907562500000135 1.5038162499999999 4.375821875
v 0.45534750000000135 0.7516693750000001 4.281675625
v 0.17750000000000155 0.939079375 4.562895
v 3.353600000000001 1.311629375 4.099969374999999
v 3.633974375000001 1.496524375 4.380344374999999
v 3.540372500000001 0.745186875 4.286741874999999
v 3.8207475000000013 0.9300825 4.567116874999999
v 3.0442406250000014 1.311629375 4.409328749999999
v 3.3246156250000016 1.496524375 4.689703124999999
v 3.2310137500000016 0.745186875 4.596101249999999
v 3.5113881250000016 0.9300825 4.876476249999999
v 3.0426825000000006 1.3133706250000001 1.7118681249999992
v 3.3205300000000006 1.5007812500000002 1.4306487499999994
v 3.2342587500000004 0.748634375 1.5247949999999992
v 3.5121062500000004 0.936045 1.243574999999999
v 3.3528825000000007 1.316405625 2.0203699999999993
v 3.6307293750000005 1.5038162499999999 1.739150624999999
v 3.544457500000001 0.7516693750000001 1.8332968749999992
v 3.822305000000001 0.93908 1.552077499999999
v 0.6462056250000008 1.311629375 2.015003125
v 0.36583062500000074 1.496525 1.734628125
v 0.4594325000000008 0.745186875 1.828230625
v 0.17905750000000054 0.9300825 1.547855625
v 0.9555643750000009 1.311629375 1.7056437499999997
v 0.6751900000000006 1.496525 1.4252693749999996
v 0.7687912500000005 0.745186875 1.5188712499999997
v 0.48841687500000064 0.9300825 1.2384962499999999
vt 0.6875 0.5
vt 0.75 0.5
vt 0.75 0.25
vt 0.6875 0.25
vt 0.6875 0.5625
vt 0.9375 0.5625
vt 0.9375 0.5
vt 0.6875 0.5
vt 0.75 0.5
vt 1 0.5
vt 1 0.25
vt 0.75 0.25
vt 1 0.5
vt 1 0.25
vt 0.75 0.25
vt 0.75 0.5
vt 0.6875 0.5
vt 0.75 0.5
vt 0.75 0.25
vt 0.6875 0.25
vt 0.6875 0.5625
vt 0.9375 0.5625
vt 0.9375 0.5
vt 0.6875 0.5
vt 0.6875 0.5625
vt 0.9375 0.5625
vt 0.9375 0.5
vt 0.6875 0.5
vt 0.75 0.5
vt 1 0.5
vt 1 0.25
vt 0.75 0.25
vt 1 0.5
vt 1 0.25
vt 0.75 0.25
vt 0.75 0.5
vt 0.6875 0.5
vt 0.75 0.5
vt 0.75 0.25
vt 0.6875 0.25
vt 0.6875 0.5
vt 0.75 0.5
vt 0.75 0.25
vt 0.6875 0.25
vt 0.6875 0.5625
vt 0.9375 0.5625
vt 0.9375 0.5
vt 0.6875 0.5
vt 0.75 0.5
vt 1 0.5
vt 1 0.25
vt 0.75 0.25
vt 1 0.5
vt 1 0.25
vt 0.75 0.25
vt 0.75 0.5
vt 0.6875 0.5
vt 0.75 0.5
vt 0.75 0.25
vt 0.6875 0.25
vt 0.6875 0.5
vt 0.75 0.5
vt 0.75 0.25
vt 0.6875 0.25
vt 0.6875 0.5625
vt 0.9375 0.5625
vt 0.9375 0.5
vt 0.6875 0.5
vt 0.6875 0.5625
vt 0.9375 0.5625
vt 0.9375 0.5
vt 0.6875 0.5
vt 0.75 0.5
vt 1 0.5
vt 1 0.25
vt 0.75 0.25
vt 1 0.5
vt 1 0.25
vt 0.75 0.25
vt 0.75 0.5
vt 0.5625 0.9375
vt 0.625 0.9375
vt 0.625 0.5625
vt 0.5625 0.5625
vt 0.625 1
vt 1 1
vt 1 0.9375
vt 0.625 0.9375
vt 1 0.5625
vt 1 0.9375
vt 0.625 0.9375
vt 0.625 0.5625
vt 1 0.9453125
vt 1 0.5703125
vt 0.625 0.5703125
vt 0.625 0.9453125
vt 0.5625 0.9375
vt 0.625 0.9375
vt 0.625 0.5625
vt 0.5625 0.5625
vt 0.625 1
vt 1 1
vt 1 0.9375
vt 0.625 0.9375
vt 1 0.5625
vt 0.625 0.5625
vt 0.625 0.9375
vt 1 0.9375
vt 1 0.9453125
vt 1 0.5703125
vt 0.625 0.5703125
vt 0.625 0.9453125
vt 0.5625 0.9375
vt 0.625 0.9375
vt 0.625 0.5625
vt 0.5625 0.5625
vt 0.625 1
vt 1 1
vt 1 0.9375
vt 0.625 0.9375
vt 1 0.5625
vt 1 0.9375
vt 0.625 0.9375
vt 0.625 0.5625
vt 1 0.9453125
vt 1 0.5703125
vt 0.625 0.5703125
vt 0.625 0.9453125
vt 0.5625 0.9375
vt 0.625 0.9375
vt 0.625 0.5625
vt 0.5625 0.5625
vt 0.625 1
vt 1 1
vt 1 0.9375
vt 0.625 0.9375
vt 1 0.5625
vt 0.625 0.5625
vt 0.625 0.9375
vt 1 0.9375
vt 1 0.9453125
vt 1 0.5703125
vt 0.625 0.5703125
vt 0.625 0.9453125
vt 0.1328125 0.09375
vt 0.25 0.09375
vt 0.25 0
vt 0.1328125 0
vt 0.3671875 0.1796875
vt 0.484375 0.1796875
vt 0.484375 0.0546875
vt 0.3671875 0.0546875
vt 0.125 0.09375
vt 0.2421875 0.09375
vt 0.2421875 0
vt 0.125 0
vt 0.015625 0.09375
vt 0.1328125 0.09375
vt 0.1328125 0
vt 0.015625 0
vt 0.3671875 0.1796875
vt 0.484375 0.1796875
vt 0.484375 0.0546875
vt 0.3671875 0.0546875
vt 0.125 0.09375
vt 0.2421875 0.09375
vt 0.2421875 0
vt 0.125 0
vt 0 0.09375
vt 0.1171875 0.09375
vt 0.1171875 0
vt 0 0
vt 0.1328125 0.09375
vt 0.25 0.09375
vt 0.25 0
vt 0.1328125 0
vt 0.3671875 0.1796875
vt 0.484375 0.1796875
vt 0.484375 0.0546875
vt 0.3671875 0.0546875
vt 0.125 0.09375
vt 0.2421875 0.09375
vt 0.2421875 0
vt 0.125 0
vt 0.359375 0.1796875
vt 0.4765625 0.1796875
vt 0.4765625 0.0859375
vt 0.359375 0.0859375
vt 0.5546875 0.0625
vt 0.5546875 0
vt 0.4921875 0
vt 0.4921875 0.0625
vt 0.4921875 0
vt 0.4921875 0.0625
vt 0.5546875 0.0625
vt 0.5546875 0
vt 0.5546875 0
vt 0.4921875 0
vt 0.4921875 0.0625
vt 0.5546875 0.0625
vt 0.4921875 0.0625
vt 0.5546875 0.0625
vt 0.5546875 0
vt 0.4921875 0
vt 0.4921875 0.125
vt 0.5546875 0.125
vt 0.5546875 0.0625
vt 0.4921875 0.0625
vt 0.5546875 0.0625
vt 0.5546875 0
vt 0.4921875 0
vt 0.4921875 0.0625
vt 0.4921875 0
vt 0.4921875 0.0625
vt 0.5546875 0.0625
vt 0.5546875 0
vt 0.5546875 0
vt 0.4921875 0
vt 0.4921875 0.0625
vt 0.5546875 0.0625
vt 0.4921875 0.0625
vt 0.5546875 0.0625
vt 0.5546875 0
vt 0.4921875 0
vt 0.4921875 0.125
vt 0.5546875 0.125
vt 0.5546875 0.0625
vt 0.4921875 0.0625
vt 0.2734375 0.5625
vt 0.2890625 0.5625
vt 0.2890625 0.46875
vt 0.2734375 0.46875
vt 0.265625 0.5625
vt 0.28125 0.5625
vt 0.28125 0.46875
vt 0.265625 0.46875
vt 0.171875 0.1640625
vt 0.265625 0.1640625
vt 0.265625 0.1484375
vt 0.171875 0.1484375
vt 0.1875 0.5703125
vt 0.28125 0.5703125
vt 0.28125 0.4765625
vt 0.1875 0.4765625
vt 0.28125 0.5703125
vt 0.375 0.5703125
vt 0.375 0.4765625
vt 0.28125 0.4765625
vt 0.2734375 0.5625
vt 0.2890625 0.5625
vt 0.2890625 0.46875
vt 0.2734375 0.46875
vt 0.265625 0.5625
vt 0.28125 0.5625
vt 0.28125 0.46875
vt 0.265625 0.46875
vt 0.171875 0.1640625
vt 0.265625 0.1640625
vt 0.265625 0.1484375
vt 0.171875 0.1484375
vt 0.09375 0.5703125
vt 0.1875 0.5703125
vt 0.1875 0.4765625
vt 0.09375 0.4765625
vt 0.28125 0.5703125
vt 0.375 0.5703125
vt 0.375 0.4765625
vt 0.28125 0.4765625
vt 0.2734375 0.5625
vt 0.2890625 0.5625
vt 0.2890625 0.46875
vt 0.2734375 0.46875
vt 0.265625 0.5625
vt 0.28125 0.5625
vt 0.28125 0.46875
vt 0.265625 0.46875
vt 0.171875 0.1640625
vt 0.265625 0.1640625
vt 0.265625 0.1484375
vt 0.171875 0.1484375
vt 0 0.5703125
vt 0.09375 0.5703125
vt 0.09375 0.4765625
vt 0 0.4765625
vt 0.28125 0.5703125
vt 0.375 0.5703125
vt 0.375 0.4765625
vt 0.28125 0.4765625
vt 0.5546875 0.0625
vt 0.5546875 0
vt 0.4921875 0
vt 0.4921875 0.0625
vt 0.4921875 0
vt 0.4921875 0.0625
vt 0.5546875 0.0625
vt 0.5546875 0
vt 0.5546875 0
vt 0.4921875 0
vt 0.4921875 0.0625
vt 0.5546875 0.0625
vt 0.4921875 0.0625
vt 0.5546875 0.0625
vt 0.5546875 0
vt 0.4921875 0
vt 0.4921875 0.125
vt 0.5546875 0.125
vt 0.5546875 0.0625
vt 0.4921875 0.0625
vt 0.25 0.078125
vt 0.3046875 0.078125
vt 0.3046875 0
vt 0.25 0
vt 0.25 0.078125
vt 0.3046875 0.078125
vt 0.3046875 0
vt 0.25 0
vt 0.3046875 0.1328125
vt 0.359375 0.1328125
vt 0.359375 0.078125
vt 0.3046875 0.078125
vt 0.25 0.078125
vt 0.3046875 0.078125
vt 0.3046875 0
vt 0.25 0
vt 0.25 0.078125
vt 0.3046875 0.078125
vt 0.3046875 0
vt 0.25 0
vt 0.25 0.078125
vt 0.3046875 0.078125
vt 0.3046875 0
vt 0.25 0
vt 0.25 0.078125
vt 0.3046875 0.078125
vt 0.3046875 0
vt 0.25 0
vt 0.3046875 0.1328125
vt 0.359375 0.1328125
vt 0.359375 0.078125
vt 0.3046875 0.078125
vt 0.25 0.078125
vt 0.3046875 0.078125
vt 0.3046875 0
vt 0.25 0
vt 0.25 0.078125
vt 0.3046875 0.078125
vt 0.3046875 0
vt 0.25 0
vt 0.25 0.078125
vt 0.3046875 0.078125
vt 0.3046875 0
vt 0.25 0
vt 0.25 0.078125
vt 0.3046875 0.078125
vt 0.3046875 0
vt 0.25 0
vt 0.3046875 0.1328125
vt 0.359375 0.1328125
vt 0.359375 0.078125
vt 0.3046875 0.078125
vt 0.25 0.078125
vt 0.3046875 0.078125
vt 0.3046875 0
vt 0.25 0
vt 0.25 0.078125
vt 0.3046875 0.078125
vt 0.3046875 0
vt 0.25 0
vt 0.25 0.078125
vt 0.3046875 0.078125
vt 0.3046875 0
vt 0.25 0
vt 0.25 0.078125
vt 0.3046875 0.078125
vt 0.3046875 0
vt 0.25 0
vt 0.3046875 0.1328125
vt 0.359375 0.1328125
vt 0.359375 0.078125
vt 0.3046875 0.078125
vt 0.25 0.078125
vt 0.3046875 0.078125
vt 0.3046875 0
vt 0.25 0
vt 0.25 0.078125
vt 0.3046875 0.078125
vt 0.3046875 0
vt 0.25 0
vn 0.9999999999992187 -0.0000012500015620095647 -2.2204460492485783e-16
vn 2.220446049250313e-16 0 1
vn 0 1 0
vn 0 -1 0
vn 2.220446049250313e-16 0 1
vn -1 0 2.220446049250313e-16
vn 1 0 -2.220446049250313e-16
vn 0 1 0
vn 0 -1 0
vn -2.220446049250313e-16 0 -1
vn 2.220446049250313e-16 0 1
vn 0.9999999999992187 -0.0000012500015620095647 -2.2204460492485783e-16
vn 0 1 0
vn 0 -1 0
vn -2.220446049250313e-16 0 -1
vn 2.220446049250313e-16 0 1
vn -1 0 2.220446049250313e-16
vn 1 0 -2.220446049250313e-16
vn 0 -1 0
vn 0 1 0
vn 0.9999999999992188 0.0000012500015620095647 -2.2204460492485786e-16
vn -2.220446049250313e-16 0 -1
vn 2.0833337674673234e-7 0.9999999999999785 -4.6259302332425887e-23
vn 2.0833333332544184e-7 -0.9999999999999785 -4.6259292690962593e-23
vn 2.220446049250313e-16 0 1
vn 0.9999999999992188 0.0000012500015620095647 -2.2204460492485786e-16
vn 2.0833337674673234e-7 0.9999999999999785 -4.6259302332425887e-23
vn 2.0833333332544184e-7 -0.9999999999999785 -4.6259292690962593e-23
vn -1 0 2.220446049250313e-16
vn 2.220446049250313e-16 0 1
vn 0 1 0
vn 0 -1 0
vn -2.220446049250313e-16 0 -1
vn -1 0 2.220446049250313e-16
vn 0 1 0
vn 0 -1 0
vn -2.220446049250313e-16 0 -1
vn -6.25000000031728e-7 0.9999999999998048 1.387778780851896e-22
vn 1 0 -2.220446049250313e-16
vn -1 0 2.220446049250313e-16
vn -6.25000000031728e-7 0.9999999999998048 1.387778780851896e-22
vn 1 0 -2.220446049250313e-16
vn -1 0 2.220446049250313e-16
vn 2.220446049250313e-16 0 1
vn -6.25000000031728e-7 0.9999999999998048 1.387778780851896e-22
vn 1 0 -2.220446049250313e-16
vn -1 0 2.220446049250313e-16
vn -2.220446049250313e-16 0 -1
vn 2.220446049250313e-16 0 1
vn 0 1 0
vn 0 -1 0
vn 1 0 -2.220446049250313e-16
vn -2.220446049250313e-16 0 -1
vn 2.220446049250313e-16 0 1
vn 0 1 0
vn 0 -1 0
vn 1 0 -2.220446049250313e-16
vn -2.220446049250313e-16 0 -1
vn 2.220446049250313e-16 0 1
vn 0.000004999999999748212 0.9999999999875001 -1.1102230245692484e-21
vn -1 0 2.220446049250313e-16
vn 0.9999999999996528 -8.333340274504592e-7 -2.2204460492495422e-16
vn -2.220446049250313e-16 0 -1
vn 2.220446049250313e-16 0 1
vn 0.000004999999999748212 0.9999999999875001 -1.1102230245692484e-21
vn -1 0 2.220446049250313e-16
vn 0.9999999999996528 -8.333340274504592e-7 -2.2204460492495422e-16
vn -2.220446049250313e-16 0 -1
vn 2.220446049250313e-16 0 1
vn 0.000004999999999748212 0.9999999999875001 -1.1102230245692484e-21
vn -1 0 2.220446049250313e-16
vn 0.9999999999996528 -8.333340274504592e-7 -2.2204460492495422e-16
vn -2.220446049250313e-16 0 -1
vn 2.220446049250313e-16 0 1
vn 0 1 0
vn 0 -1 0
vn 1 0 -2.220446049250313e-16
vn 0.7090269922010453 -0.006937310285754105 0.7051472172931963
vn -0.7090261390830307 0.006937517796456756 -0.7051480730625551
vn 0.3065211848722063 0.9035779957221989 -0.2993185073983783
vn 0.6350797306135076 -0.4283659060163255 -0.6427879792954184
vn -0.6350794578721239 0.4283660907496533 0.6427881256562764
vn 0.7071072172400045 0.0000010677667503652836 -0.7071063451320155
vn -0.707105922514526 -2.1394715663148973e-7 0.7071076398574939
vn -0.2988355710508979 0.9063082273428659 -0.29883557105089803
vn -0.6408565003905925 -0.422617902855813 -0.6408565003905923
vn 0.640856182585632 0.4226188666914219 0.6408561825856323
vn -0.7090261294737124 -0.006937523323741542 -0.7051480826703418
vn 0.7090269912638448 0.006937313048478243 0.7051472182083731
vn -0.30652090677912897 0.9035781832987982 0.29931822592976887
vn -0.6350784886359895 -0.4283670453610108 0.6427884470963251
vn 0.6350793265691305 0.428366477812261 -0.6427879974386713
vn -0.7071065698773925 6.408562102373553e-7 0.7071069924953491
vn 0.7071065698770055 -6.408559553518484e-7 -0.707106992495736
vn 0.29883582532694375 0.9063078605878983 0.29883642906739327
vn 0.6408569562420361 -0.4226184836692769 0.640855661516128
vn -0.6408554700053183 0.4226190644812238 -0.640856764730839
usemtl radar
f 2/1/1 3/2/1 5/3/1
f 2/1/1 5/3/1 4/4/1
f 7/5/2 3/6/2 2/7/2
f 7/5/2 2/7/2 6/8/2
f 6/9/3 2/10/3 4/11/3
f 6/9/3 4/11/3 8/12/3
f 3/13/4 7/14/4 9/15/4
f 3/13/4 9/15/4 5/16/4
f 10/17/5 11/18/5 7/19/5
f 10/17/5 7/19/5 6/20/5
f 13/21/6 11/22/6 10/23/6
f 13/21/6 10/23/6 12/24/6
f 8/25/7 6/26/7 7/27/7
f 8/25/7 7/27/7 9/28/7
f 12/29/8 10/30/8 6/31/8
f 12/29/8 6/31/8 8/32/8
f 11/33/9 13/34/9 9/35/9
f 11/33/9 9/35/9 7/36/9
f 14/37/10 15/38/10 17/39/10
f 14/37/10 17/39/10 16/40/10
f 5/41/11 4/42/11 8/43/11
f 5/41/11 8/43/11 9/44/11
f 5/45/12 15/46/12 14/47/12
f 5/45/12 14/47/12 4/48/12
f 4/49/13 14/50/13 16/51/13
f 4/49/13 16/51/13 8/52/13
f 15/53/14 5/54/14 9/55/14
f 15/53/14 9/55/14 17/56/14
f 18/57/15 19/58/15 16/59/15
f 18/57/15 16/59/15 17/60/15
f 12/61/16 13/62/16 9/63/16
f 12/61/16 9/63/16 8/64/16
f 12/65/17 19/66/17 18/67/17
f 12/65/17 18/67/17 13/68/17
f 9/69/18 17/70/18 16/71/18
f 9/69/18 16/71/18 8/72/18
f 13/73/19 18/74/19 17/75/19
f 13/73/19 17/75/19 9/76/19
f 19/77/20 12/78/20 8/79/20
f 19/77/20 8/79/20 16/80/20
f 20/81/21 21/82/21 23/83/21
f 20/81/21 23/83/21 22/84/21
f 26/85/22 22/86/22 23/87/22
f 26/85/22 23/87/22 27/88/22
f 24/89/23 20/90/23 22/91/23
f 24/89/23 22/91/23 26/92/23
f 21/93/24 25/94/24 27/95/24
f 21/93/24 27/95/24 23/96/24
f 28/97/25 29/98/25 31/99/25
f 28/97/25 31/99/25 30/100/25
f 20/101/26 30/102/26 31/103/26
f 20/101/26 31/103/26 21/104/26
f 24/105/27 28/106/27 30/107/27
f 24/105/27 30/107/27 20/108/27
f 29/109/28 25/110/28 21/111/28
f 29/109/28 21/111/28 31/112/28
f 32/113/29 33/114/29 35/115/29
f 32/113/29 35/115/29 34/116/29
f 28/117/30 34/118/30 35/119/30
f 28/117/30 35/119/30 29/120/30
f 24/121/31 32/122/31 34/123/31
f 24/121/31 34/123/31 28/124/31
f 33/125/32 25/126/32 29/127/32
f 33/125/32 29/127/32 35/128/32
f 26/129/33 27/130/33 37/131/33
f 26/129/33 37/131/33 36/132/33
f 32/133/34 36/134/34 37/135/34
f 32/133/34 37/135/34 33/136/34
f 24/137/35 26/138/35 36/139/35
f 24/137/35 36/139/35 32/140/35
f 27/141/36 25/142/36 33/143/36
f 27/141/36 33/143/36 37/144/36
f 43/145/37 42/146/37 44/147/37
f 43/145/37 44/147/37 32/148/37
f 43/149/38 39/150/38 38/151/38
f 43/149/38 38/151/38 42/152/38
f 42/153/39 38/154/39 40/155/39
f 42/153/39 40/155/39 44/156/39
f 39/157/40 43/158/40 32/159/40
f 39/157/40 32/159/40 41/160/40
f 39/161/41 46/162/41 45/163/41
f 39/161/41 45/163/41 38/164/41
f 38/165/42 45/166/42 47/167/42
f 38/165/42 47/167/42 40/168/42
f 46/169/43 39/170/43 41/171/43
f 46/169/43 41/171/43 48/172/43
f 49/173/44 50/174/44 34/175/44
f 49/173/44 34/175/44 51/176/44
f 46/177/45 50/178/45 49/179/45
f 46/177/45 49/179/45 45/180/45
f 45/181/46 49/182/46 51/183/46
f 45/181/46 51/183/46 47/184/46
f 50/185/47 46/186/47 48/187/47
f 50/185/47 48/187/47 34/188/47
f 52/189/48 53/190/48 55/191/48
f 52/189/48 55/191/48 54/192/48
f 57/193/49 56/194/49 58/195/49
f 57/193/49 58/195/49 59/196/49
f 57/197/50 53/198/50 52/199/50
f 57/197/50 52/199/50 56/200/50
f 58/201/51 54/202/51 55/203/51
f 58/201/51 55/203/51 59/204/51
f 53/205/52 57/206/52 59/207/52
f 53/205/52 59/207/52 55/208/52
f 60/209/53 61/210/53 63/211/53
f 60/209/53 63/211/53 62/212/53
f 65/213/54 64/214/54 66/215/54
f 65/213/54 66/215/54 67/216/54
f 65/217/55 61/218/55 60/219/55
f 65/217/55 60/219/55 64/220/55
f 66/221/56 62/222/56 63/223/56
f 66/221/56 63/223/56 67/224/56
f 61/225/57 65/226/57 67/227/57
f 61/225/57 67/227/57 63/228/57
f 68/229/58 69/230/58 71/231/58
f 68/229/58 71/231/58 70/232/58
f 73/233/59 72/234/59 74/235/59
f 73/233/59 74/235/59 75/236/59
f 73/237/60 69/238/60 68/239/60
f 73/237/60 68/239/60 72/240/60
f 72/241/61 68/242/61 70/243/61
f 72/241/61 70/243/61 74/244/61
f 69/245/62 73/246/62 75/247/62
f 69/245/62 75/247/62 71/248/62
f 76/249/63 77/250/63 79/251/63
f 76/249/63 79/251/63 78/252/63
f 81/253/64 80/254/64 82/255/64
f 81/253/64 82/255/64 83/256/64
f 81/257/65 77/258/65 76/259/65
f 81/257/65 76/259/65 80/260/65
f 80/261/66 76/262/66 78/263/66
f 80/261/66 78/263/66 82/264/66
f 77/265/67 81/266/67 83/267/67
f 77/265/67 83/267/67 79/268/67
f 84/269/68 85/270/68 87/271/68
f 84/269/68 87/271/68 86/272/68
f 89/273/69 88/274/69 90/275/69
f 89/273/69 90/275/69 91/276/69
f 89/277/70 85/278/70 84/279/70
f 89/277/70 84/279/70 88/280/70
f 88/281/71 84/282/71 86/283/71
f 88/281/71 86/283/71 90/284/71
f 85/285/72 89/286/72 91/287/72
f 85/285/72 91/287/72 87/288/72
f 92/289/73 93/290/73 95/291/73
f 92/289/73 95/291/73 94/292/73
f 96/293/74 1/294/74 97/295/74
f 96/293/74 97/295/74 98/296/74
f 96/297/75 93/298/75 92/299/75
f 96/297/75 92/299/75 1/300/75
f 97/301/76 94/302/76 95/303/76
f 97/301/76 95/303/76 98/304/76
f 93/305/77 96/306/77 98/307/77
f 93/305/77 98/307/77 95/308/77
f 99/309/78 100/310/78 102/311/78
f 99/309/78 102/311/78 101/312/78
f 104/313/79 103/314/79 105/315/79
f 104/313/79 105/315/79 106/316/79
f 104/317/80 100/318/80 99/319/80
f 104/317/80 99/319/80 103/320/80
f 103/321/81 99/322/81 101/323/81
f 103/321/81 101/323/81 105/324/81
f 100/325/82 104/326/82 106/327/82
f 100/325/82 106/327/82 102/328/82
f 107/329/83 108/330/83 110/331/83
f 107/329/83 110/331/83 109/332/83
f 112/333/84 111/334/84 113/335/84
f 112/333/84 113/335/84 114/336/84
f 112/337/85 108/338/85 107/339/85
f 112/337/85 107/339/85 111/340/85
f 111/341/86 107/342/86 109/343/86
f 111/341/86 109/343/86 113/344/86
f 108/345/87 112/346/87 114/347/87
f 108/345/87 114/347/87 110/348/87
f 115/349/88 116/350/88 118/351/88
f 115/349/88 118/351/88 117/352/88
f 120/353/89 119/354/89 121/355/89
f 120/353/89 121/355/89 122/356/89
f 120/357/90 116/358/90 115/359/90
f 120/357/90 115/359/90 119/360/90
f 119/361/91 115/362/91 117/363/91
f 119/361/91 117/363/91 121/364/91
f 116/365/92 120/366/92 122/367/92
f 116/365/92 122/367/92 118/368/92
f 123/369/93 124/370/93 126/371/93
f 123/369/93 126/371/93 125/372/93
f 128/373/94 127/374/94 129/375/94
f 128/373/94 129/375/94 130/376/94
f 128/377/95 124/378/95 123/379/95
f 128/377/95 123/379/95 127/380/95
f 127/381/96 123/382/96 125/383/96
f 127/381/96 125/383/96 129/384/96
f 124/385/97 128/386/97 130/387/97
f 124/385/97 130/387/97 126/388/97