# Made by Pabilo8 with Blockbench
# Exported with IIToolkit Plugin
mtllib radar.mtl


o flipped
v 1.8749999999999987 1.875000625 5.75
v -3.0000000000000013 1 5.062499999999999
v -2.9999993750000016 0.500000625 5.062499999999999
v -3.000000000000001 1 3.062499999999999
v -2.999999375000001 0.500000625 3.062499999999999
v -1.0000000000000016 1 5.0625
v -1.0000000000000016 0.500000625 5.0625
v -1.000000000000001 1 3.0624999999999996
v -1.000000000000001 0.500000625 3.0624999999999996
v 0.9999999999999984 1 5.0625
v 0.9999999999999984 0.500000625 5.0625
v 0.9999999999999989 1 3.0625
v 0.9999999999999989 0.500000625 3.0625
v -3.0000000000000004 1 1.0624999999999991
v -2.9999993750000007 0.500000625 1.0624999999999991
v -1.0000000000000007 1 1.0624999999999996
v -1.0000000000000007 0.500000625 1.0624999999999996
v 0.9999999999999993 0.500000625 1.0625
v 0.9999999999999993 1 1.0625
v -3.999999375000001 0.5 2.9999999999999987
v -4.000000000000001 6.249999999763389e-7 2.9999999999999987
v -3.9999993750000002 0.5 -1.3322676295501878e-15
v -4 6.249999999763389e-7 -1.3322676295501878e-15
v -1.000000000000001 0.500000625 2.9999999999999996
v -1.000000000000001 0 2.9999999999999996
v -1.0000000000000004 0.500000625 -4.440892098500626e-16
v -1.0000000000000004 0 -4.440892098500626e-16
v -1.0000000000000018 0.500000625 6
v -1.0000000000000018 0 6
v -3.9999993750000016 0.5 5.999999999999998
v -4.000000000000002 6.249999999763389e-7 5.999999999999998
v 1.9999999999999991 0.500000625 3
v 1.9999999999999991 0 3
v 1.9999999999999987 0.500000625 6
v 1.9999999999999987 0 6
v 2 0.500000625 0
v 2 0 0
v 0.9999999999999987 1.250000625 4
v 1.9999999999999991 1.25 4
v 0.9999999999999987 0.500000625 4
v 1.9999999999999991 0.500000625 4
v 0.9999999999999989 1.250000625 3
v 1.9999999999999991 1.25 3
v 0.9999999999999989 0.500000625 3
v 0.9999999999999984 1.250000625 5
v 1.9999999999999987 1.25 5
v 0.9999999999999984 0.500000625 5
v 1.9999999999999987 0.500000625 5
v 0.9999999999999982 1.250000625 6
v 1.9999999999999987 1.25 6
v 0.9999999999999982 0.500000625 6
v 1.8749999999999987 1.875000625 4.25
v 1.3749999999999987 1.875000625 4.25
v 1.8749999999999987 1.375 4.25
v 1.3749999999999987 1.375 4.25
v 1.8749999999999987 1.875000625 4.75
v 1.3749999999999987 1.875000625 4.75
v 1.8749999999999987 1.375 4.75
v 1.3749999999999987 1.375 4.75
v 1.8749999999999991 1.875000625 3.25
v 1.3749999999999991 1.875000625 3.25
v 1.8749999999999991 1.375 3.25
v 1.3749999999999991 1.375 3.25
v 1.8749999999999991 1.875000625 3.75
v 1.3749999999999991 1.875000625 3.75
v 1.8749999999999991 1.375 3.75
v 1.3749999999999991 1.375 3.75
v 1.9999999999999991 2.000000625 3.125
v 1.8749999999999991 2 3.125
v 1.9999999999999991 1.25 3.125
v 1.8750006249999989 1.250000625 3.125
v 1.9999999999999991 2.000000625 3.875
v 1.8749999999999991 2 3.875
v 1.9999999999999991 1.25 3.875
v 1.8750006249999989 1.250000625 3.875
v 1.9999999999999987 2.000000625 4.125
v 1.8749999999999987 2 4.125
v 1.9999999999999987 1.25 4.125
v 1.8750006249999984 1.250000625 4.125
v 1.9999999999999987 2.000000625 4.875
v 1.8749999999999987 2 4.875
v 1.9999999999999987 1.25 4.875
v 1.8750006249999984 1.250000625 4.875
v 1.9999999999999987 2.000000625 5.125
v 1.8749999999999987 2 5.125
v 1.9999999999999987 1.25 5.125
v 1.8750006249999984 1.250000625 5.125
v 1.9999999999999987 2.000000625 5.875
v 1.8749999999999987 2 5.875
v 1.9999999999999987 1.25 5.875
v 1.8750006249999984 1.250000625 5.875
v 1.8749999999999987 1.875000625 5.25
v 1.3749999999999987 1.875000625 5.25
v 1.8749999999999987 1.375 5.25
v 1.3749999999999987 1.375 5.25
v 1.3749999999999987 1.875000625 5.75
v 1.8749999999999987 1.375 5.75
v 1.3749999999999987 1.375 5.75
v 0.04287812499999877 1.3133706250000001 4.403104375
v 0.3207249999999986 1.5007812500000002 4.68432375
v 0.2344531249999986 0.748634375 4.590177499999999
v 0.5123006249999986 0.936044375 4.8713975000000005
v 0.35307687499999885 1.31640625 4.0946025
v 0.6309243749999986 1.5038162499999999 4.375821875
v 0.5446524999999987 0.7516693750000001 4.281675625
v 0.8224999999999985 0.939079375 4.562895
v -2.353600000000001 1.311629375 4.099969374999999
v -2.633974375000001 1.496524375 4.380344374999999
v -2.540372500000001 0.745186875 4.286741874999999
v -2.8207475000000013 0.9300825 4.567116874999999
v -2.0442406250000014 1.311629375 4.409328749999999
v -2.3246156250000016 1.496524375 4.689703124999999
v -2.2310137500000016 0.745186875 4.596101249999999
v -2.5113881250000016 0.9300825 4.876476249999999
v -2.0426825000000006 1.3133706250000001 1.7118681249999992
v -2.3205300000000006 1.5007812500000002 1.4306487499999994
v -2.2342587500000004 0.748634375 1.5247949999999992
v -2.5121062500000004 0.936045 1.243574999999999
v -2.3528825000000007 1.316405625 2.0203699999999993
v -2.6307293750000005 1.5038162499999999 1.739150624999999
v -2.544457500000001 0.7516693750000001 1.8332968749999992
v -2.822305000000001 0.93908 1.552077499999999
v 0.3537943749999992 1.311629375 2.015003125
v 0.6341693749999993 1.496525 1.734628125
v 0.5405674999999992 0.745186875 1.828230625
v 0.8209424999999995 0.9300825 1.547855625
v 0.04443562499999909 1.311629375 1.7056437499999997
v 0.3248099999999994 1.496525 1.4252693749999996
v 0.23120874999999952 0.745186875 1.5188712499999997
v 0.5115831249999994 0.9300825 1.2384962499999999
vt 0.75 0.25
vt 0.75 0.5
vt 0.6875 0.5
vt 0.6875 0.25
vt 0.9375 0.5
vt 0.9375 0.5625
vt 0.6875 0.5625
vt 0.6875 0.5
vt 1 0.25
vt 1 0.5
vt 0.75 0.5
vt 0.75 0.25
vt 0.75 0.25
vt 1 0.25
vt 1 0.5
vt 0.75 0.5
vt 0.75 0.25
vt 0.75 0.5
vt 0.6875 0.5
vt 0.6875 0.25
vt 0.9375 0.5
vt 0.9375 0.5625
vt 0.6875 0.5625
vt 0.6875 0.5
vt 0.9375 0.5
vt 0.9375 0.5625
vt 0.6875 0.5625
vt 0.6875 0.5
vt 1 0.25
vt 1 0.5
vt 0.75 0.5
vt 0.75 0.25
vt 0.75 0.25
vt 1 0.25
vt 1 0.5
vt 0.75 0.5
vt 0.75 0.25
vt 0.75 0.5
vt 0.6875 0.5
vt 0.6875 0.25
vt 0.75 0.25
vt 0.75 0.5
vt 0.6875 0.5
vt 0.6875 0.25
vt 0.9375 0.5
vt 0.9375 0.5625
vt 0.6875 0.5625
vt 0.6875 0.5
vt 1 0.25
vt 1 0.5
vt 0.75 0.5
vt 0.75 0.25
vt 0.75 0.25
vt 1 0.25
vt 1 0.5
vt 0.75 0.5
vt 0.75 0.25
vt 0.75 0.5
vt 0.6875 0.5
vt 0.6875 0.25
vt 0.75 0.25
vt 0.75 0.5
vt 0.6875 0.5
vt 0.6875 0.25
vt 0.9375 0.5
vt 0.9375 0.5625
vt 0.6875 0.5625
vt 0.6875 0.5
vt 0.9375 0.5
vt 0.9375 0.5625
vt 0.6875 0.5625
vt 0.6875 0.5
vt 1 0.25
vt 1 0.5
vt 0.75 0.5
vt 0.75 0.25
vt 0.75 0.25
vt 1 0.25
vt 1 0.5
vt 0.75 0.5
vt 0.625 0.5625
vt 0.625 0.9375
vt 0.5625 0.9375
vt 0.5625 0.5625
vt 1 0.9375
vt 1 1
vt 0.625 1
vt 0.625 0.9375
vt 0.62338515625 0.935871171875
vt 0.626628828125 0.56088515625
vt 1 0.564128828125
vt 0.998371171875 0.93911484375
vt 0.62338515625 0.571941328125
vt 0.998371171875 0.56869765625
vt 1 0.943683671875
vt 0.626628828125 0.94692734375
vt 0.625 0.5625
vt 0.625 0.9375
vt 0.5625 0.9375
vt 0.5625 0.5625
vt 1 0.9375
vt 1 1
vt 0.625 1
vt 0.625 0.9375
vt 0.62338515625 0.935871171875
vt 0.626628828125 0.56088515625
vt 1 0.564128828125
vt 0.998371171875 0.93911484375
vt 0.62338515625 0.571941328125
vt 0.998371171875 0.56869765625
vt 1 0.943683671875
vt 0.626628828125 0.94692734375
vt 0.625 0.5625
vt 0.625 0.9375
vt 0.5625 0.9375
vt 0.5625 0.5625
vt 1 0.9375
vt 1 1
vt 0.625 1
vt 0.625 0.9375
vt 0.62338515625 0.935871171875
vt 0.626628828125 0.56088515625
vt 1 0.564128828125
vt 0.998371171875 0.93911484375
vt 0.62338515625 0.571941328125
vt 0.998371171875 0.56869765625
vt 1 0.943683671875
vt 0.626628828125 0.94692734375
vt 0.625 0.5625
vt 0.625 0.9375
vt 0.5625 0.9375
vt 0.5625 0.5625
vt 1 0.9375
vt 1 1
vt 0.625 1
vt 0.625 0.9375
vt 0.62338515625 0.935871171875
vt 0.626628828125 0.56088515625
vt 1 0.564128828125
vt 0.998371171875 0.93911484375
vt 0.62338515625 0.571941328125
vt 0.998371171875 0.56869765625
vt 1 0.943683671875
vt 0.626628828125 0.94692734375
vt 0.25 0
vt 0.25 0.09375
vt 0.1328125 0.09375
vt 0.1328125 0
vt 0.484375 0.0546875
vt 0.484375 0.1796875
vt 0.3671875 0.1796875
vt 0.3671875 0.0546875
vt 0.2421875 0
vt 0.2421875 0.09375
vt 0.125 0.09375
vt 0.125 0
vt 0.1328125 0
vt 0.1328125 0.09375
vt 0.015625 0.09375
vt 0.015625 0
vt 0.484375 0.0546875
vt 0.484375 0.1796875
vt 0.3671875 0.1796875
vt 0.3671875 0.0546875
vt 0.2421875 0
vt 0.2421875 0.09375
vt 0.125 0.09375
vt 0.125 0
vt 0.1171875 0
vt 0.1171875 0.09375
vt 0 0.09375
vt 0 0
vt 0.25 0
vt 0.25 0.09375
vt 0.1328125 0.09375
vt 0.1328125 0
vt 0.484375 0.0546875
vt 0.484375 0.1796875
vt 0.3671875 0.1796875
vt 0.3671875 0.0546875
vt 0.2421875 0
vt 0.2421875 0.09375
vt 0.125 0.09375
vt 0.125 0
vt 0.4765625 0.0859375
vt 0.4765625 0.1796875
vt 0.359375 0.1796875
vt 0.359375 0.0859375
vt 0.492458984375 0
vt 0.554956640625 0.00027148437500001954
vt 0.554416015625 0.06276914062500005
vt 0.491918359375 0.06222851562499998
vt 0.554686953125 0.06263453124999996
vt 0.49218921875 0.06236546875000004
vt 0.492186953125 0.00013453124999995847
vt 0.554686953125 0.00013453124999995847
vt 0.492458984375 0.06276914062500005
vt 0.491918359375 0.00027148437500001954
vt 0.554416015625 0
vt 0.554956640625 0.06222851562499998
vt 0.5546875 0
vt 0.5546875 0.0625
vt 0.4921875 0.0625
vt 0.4921875 0
vt 0.5546875 0.0625
vt 0.5546875 0.125
vt 0.4921875 0.125
vt 0.4921875 0.0625
vt 0.492458984375 0
vt 0.554956640625 0.00027148437500001954
vt 0.554416015625 0.06276914062500005
vt 0.491918359375 0.06222851562499998
vt 0.554686953125 0.06263453124999996
vt 0.49218921875 0.06236546875000004
vt 0.492186953125 0.00013453124999995847
vt 0.554686953125 0.00013453124999995847
vt 0.492458984375 0.06276914062500005
vt 0.491918359375 0.00027148437500001954
vt 0.554416015625 0
vt 0.554956640625 0.06222851562499998
vt 0.5546875 0
vt 0.5546875 0.0625
vt 0.4921875 0.0625
vt 0.4921875 0
vt 0.5546875 0.0625
vt 0.5546875 0.125
vt 0.4921875 0.125
vt 0.4921875 0.0625
vt 0.2890625 0.46875
vt 0.2890625 0.5625
vt 0.2734375 0.5625
vt 0.2734375 0.46875
vt 0.28125 0.46875
vt 0.28125 0.5625
vt 0.265625 0.5625
vt 0.265625 0.46875
vt 0.265625 0.1484375
vt 0.265625 0.1640625
vt 0.171875 0.1640625
vt 0.171875 0.1484375
vt 0.28125 0.4765625
vt 0.28125 0.5703125
vt 0.1875 0.5703125
vt 0.1875 0.4765625
vt 0.375 0.4765625
vt 0.375 0.5703125
vt 0.28125 0.5703125
vt 0.28125 0.4765625
vt 0.2890625 0.46875
vt 0.2890625 0.5625
vt 0.2734375 0.5625
vt 0.2734375 0.46875
vt 0.28125 0.46875
vt 0.28125 0.5625
vt 0.265625 0.5625
vt 0.265625 0.46875
vt 0.265625 0.1484375
vt 0.265625 0.1640625
vt 0.171875 0.1640625
vt 0.171875 0.1484375
vt 0.1875 0.4765625
vt 0.1875 0.5703125
vt 0.09375 0.5703125
vt 0.09375 0.4765625
vt 0.375 0.4765625
vt 0.375 0.5703125
vt 0.28125 0.5703125
vt 0.28125 0.4765625
vt 0.2890625 0.46875
vt 0.2890625 0.5625
vt 0.2734375 0.5625
vt 0.2734375 0.46875
vt 0.28125 0.46875
vt 0.28125 0.5625
vt 0.265625 0.5625
vt 0.265625 0.46875
vt 0.265625 0.1484375
vt 0.265625 0.1640625
vt 0.171875 0.1640625
vt 0.171875 0.1484375
vt 0.09375 0.4765625
vt 0.09375 0.5703125
vt 0 0.5703125
vt 0 0.4765625
vt 0.375 0.4765625
vt 0.375 0.5703125
vt 0.28125 0.5703125
vt 0.28125 0.4765625
vt 0.492458984375 0
vt 0.554956640625 0.00027148437500001954
vt 0.554416015625 0.06276914062500005
vt 0.491918359375 0.06222851562499998
vt 0.554686953125 0.06263453124999996
vt 0.49218921875 0.06236546875000004
vt 0.492186953125 0.00013453124999995847
vt 0.554686953125 0.00013453124999995847
vt 0.492458984375 0.06276914062500005
vt 0.491918359375 0.00027148437500001954
vt 0.554416015625 0
vt 0.554956640625 0.06222851562499998
vt 0.5546875 0
vt 0.5546875 0.0625
vt 0.4921875 0.0625
vt 0.4921875 0
vt 0.5546875 0.0625
vt 0.5546875 0.125
vt 0.4921875 0.125
vt 0.4921875 0.0625
vt 0.3046875 0
vt 0.3046875 0.078125
vt 0.25 0.078125
vt 0.25 0
vt 0.3046875 0
vt 0.3046875 0.078125
vt 0.25 0.078125
vt 0.25 0
vt 0.359375 0.078125
vt 0.359375 0.1328125
vt 0.3046875 0.1328125
vt 0.3046875 0.078125
vt 0.3046875 0
vt 0.3046875 0.078125
vt 0.25 0.078125
vt 0.25 0
vt 0.3046875 0
vt 0.3046875 0.078125
vt 0.25 0.078125
vt 0.25 0
vt 0.3046875 0
vt 0.3046875 0.078125
vt 0.25 0.078125
vt 0.25 0
vt 0.3046875 0
vt 0.3046875 0.078125
vt 0.25 0.078125
vt 0.25 0
vt 0.359375 0.078125
vt 0.359375 0.1328125
vt 0.3046875 0.1328125
vt 0.3046875 0.078125
vt 0.3046875 0
vt 0.3046875 0.078125
vt 0.25 0.078125
vt 0.25 0
vt 0.3046875 0
vt 0.3046875 0.078125
vt 0.25 0.078125
vt 0.25 0
vt 0.3046875 0
vt 0.3046875 0.078125
vt 0.25 0.078125
vt 0.25 0
vt 0.3046875 0
vt 0.3046875 0.078125
vt 0.25 0.078125
vt 0.25 0
vt 0.359375 0.078125
vt 0.359375 0.1328125
vt 0.3046875 0.1328125
vt 0.3046875 0.078125
vt 0.3046875 0
vt 0.3046875 0.078125
vt 0.25 0.078125
vt 0.25 0
vt 0.3046875 0
vt 0.3046875 0.078125
vt 0.25 0.078125
vt 0.25 0
vt 0.3046875 0
vt 0.3046875 0.078125
vt 0.25 0.078125
vt 0.25 0
vt 0.3046875 0
vt 0.3046875 0.078125
vt 0.25 0.078125
vt 0.25 0
vt 0.359375 0.078125
vt 0.359375 0.1328125
vt 0.3046875 0.1328125
vt 0.3046875 0.078125
vt 0.3046875 0
vt 0.3046875 0.078125
vt 0.25 0.078125
vt 0.25 0
vt 0.3046875 0
vt 0.3046875 0.078125
vt 0.25 0.078125
vt 0.25 0
vn -0.9999999999992187 -0.0000012500015620095647 -2.2204460492485783e-16
vn -2.220446049250313e-16 0 1
vn 0 1 0
vn 0 -1 0
vn -2.220446049250313e-16 0 1
vn 1 0 2.220446049250313e-16
vn -1 0 -2.220446049250313e-16
vn 0 1 0
vn 0 -1 0
vn 2.220446049250313e-16 0 -1
vn -2.220446049250313e-16 0 1
vn -0.9999999999992187 -0.0000012500015620095647 -2.2204460492485783e-16
vn 0 1 0
vn 0 -1 0
vn 2.220446049250313e-16 0 -1
vn -2.220446049250313e-16 0 1
vn 1 0 2.220446049250313e-16
vn -1 0 -2.220446049250313e-16
vn 0 -1 0
vn 0 1 0
vn -0.9999999999992188 0.0000012500015620095647 -2.2204460492485786e-16
vn 2.220446049250313e-16 0 -1
vn -2.0833337674673234e-7 0.9999999999999785 -4.6259302332425887e-23
vn -2.0833333332544184e-7 -0.9999999999999785 -4.6259292690962593e-23
vn -2.220446049250313e-16 0 1
vn -0.9999999999992188 0.0000012500015620095647 -2.2204460492485786e-16
vn -2.0833337674673234e-7 0.9999999999999785 -4.6259302332425887e-23
vn -2.0833333332544184e-7 -0.9999999999999785 -4.6259292690962593e-23
vn 1 0 2.220446049250313e-16
vn -2.220446049250313e-16 0 1
vn 0 1 0
vn 0 -1 0
vn 2.220446049250313e-16 0 -1
vn 1 0 2.220446049250313e-16
vn 0 1 0
vn 0 -1 0
vn 2.220446049250313e-16 0 -1
vn 6.25000000031728e-7 0.9999999999998048 1.387778780851896e-22
vn -1 0 -2.220446049250313e-16
vn 1 0 2.220446049250313e-16
vn 6.25000000031728e-7 0.9999999999998048 1.387778780851896e-22
vn -1 0 -2.220446049250313e-16
vn 1 0 2.220446049250313e-16
vn -2.220446049250313e-16 0 1
vn 6.25000000031728e-7 0.9999999999998048 1.387778780851896e-22
vn -1 0 -2.220446049250313e-16
vn 1 0 2.220446049250313e-16
vn 2.220446049250313e-16 0 -1
vn -2.220446049250313e-16 0 1
vn 0 1 0
vn 0 -1 0
vn -1 0 -2.220446049250313e-16
vn 2.220446049250313e-16 0 -1
vn -2.220446049250313e-16 0 1
vn 0 1 0
vn 0 -1 0
vn -1 0 -2.220446049250313e-16
vn 2.220446049250313e-16 0 -1
vn -2.220446049250313e-16 0 1
vn -0.000004999999999748212 0.9999999999875001 -1.1102230245692484e-21
vn 1 0 2.220446049250313e-16
vn -0.9999999999996528 -8.333340274504592e-7 -2.2204460492495422e-16
vn 2.220446049250313e-16 0 -1
vn -2.220446049250313e-16 0 1
vn -0.000004999999999748212 0.9999999999875001 -1.1102230245692484e-21
vn 1 0 2.220446049250313e-16
vn -0.9999999999996528 -8.333340274504592e-7 -2.2204460492495422e-16
vn 2.220446049250313e-16 0 -1
vn -2.220446049250313e-16 0 1
vn -0.000004999999999748212 0.9999999999875001 -1.1102230245692484e-21
vn 1 0 2.220446049250313e-16
vn -0.9999999999996528 -8.333340274504592e-7 -2.2204460492495422e-16
vn 2.220446049250313e-16 0 -1
vn -2.220446049250313e-16 0 1
vn 0 1 0
vn 0 -1 0
vn -1 0 -2.220446049250313e-16
vn -0.7090269922010453 -0.0069373102857541525 0.7051472172931962
vn 0.7090261390830307 0.006937517796456756 -0.7051480730625551
vn -0.30652118487220636 0.9035779957221989 -0.29931850739837834
vn -0.6350797306135075 -0.42836590601632546 -0.6427879792954184
vn 0.6350794578721239 0.4283660907496533 0.6427881256562763
vn -0.7071072172400045 0.0000010677667504160368 -0.7071063451320156
vn 0.7071059225145261 -2.1394715663148978e-7 0.707107639857494
vn 0.29883557105089786 0.9063082273428659 -0.29883557105089803
vn 0.6408565003905925 -0.42261790285581297 -0.6408565003905924
vn -0.6408561825856322 0.4226188666914219 0.6408561825856323
vn 0.7090261294737122 -0.006937523323741492 -0.7051480826703418
vn -0.7090269912638448 0.006937313048478243 0.7051472182083731
vn 0.30652090677912897 0.9035781832987982 0.29931822592976887
vn 0.6350784886359894 -0.42836704536101083 0.6427884470963252
vn -0.6350793265691305 0.42836647781226117 -0.6427879974386714
vn 0.7071065698773924 6.408562102881081e-7 0.7071069924953491
vn -0.7071065698770055 -6.408559553518485e-7 -0.7071069924957362
vn -0.29883582532694375 0.9063078605878983 0.29883642906739327
vn -0.6408569562420361 -0.4226184836692769 0.640855661516128
vn 0.6408554700053183 0.4226190644812238 -0.640856764730839
usemtl radar
f 5/1/1 3/2/1 2/3/1
f 5/1/1 2/3/1 4/4/1
f 2/5/2 3/6/2 7/7/2
f 2/5/2 7/7/2 6/8/2
f 4/9/3 2/10/3 6/11/3
f 4/9/3 6/11/3 8/12/3
f 9/13/4 7/14/4 3/15/4
f 9/13/4 3/15/4 5/16/4
f 7/17/5 11/18/5 10/19/5
f 7/17/5 10/19/5 6/20/5
f 10/21/6 11/22/6 13/23/6
f 10/21/6 13/23/6 12/24/6
f 7/25/7 6/26/7 8/27/7
f 7/25/7 8/27/7 9/28/7
f 6/29/8 10/30/8 12/31/8
f 6/29/8 12/31/8 8/32/8
f 9/33/9 13/34/9 11/35/9
f 9/33/9 11/35/9 7/36/9
f 17/37/10 15/38/10 14/39/10
f 17/37/10 14/39/10 16/40/10
f 8/41/11 4/42/11 5/43/11
f 8/41/11 5/43/11 9/44/11
f 14/45/12 15/46/12 5/47/12
f 14/45/12 5/47/12 4/48/12
f 16/49/13 14/50/13 4/51/13
f 16/49/13 4/51/13 8/52/13
f 9/53/14 5/54/14 15/55/14
f 9/53/14 15/55/14 17/56/14
f 16/57/15 19/58/15 18/59/15
f 16/57/15 18/59/15 17/60/15
f 9/61/16 13/62/16 12/63/16
f 9/61/16 12/63/16 8/64/16
f 18/65/17 19/66/17 12/67/17
f 18/65/17 12/67/17 13/68/17
f 16/69/18 17/70/18 9/71/18
f 16/69/18 9/71/18 8/72/18
f 17/73/19 18/74/19 13/75/19
f 17/73/19 13/75/19 9/76/19
f 8/77/20 12/78/20 19/79/20
f 8/77/20 19/79/20 16/80/20
f 23/81/21 21/82/21 20/83/21
f 23/81/21 20/83/21 22/84/21
f 23/85/22 22/86/22 26/87/22
f 23/85/22 26/87/22 27/88/22
f 22/89/23 20/90/23 24/91/23
f 22/89/23 24/91/23 26/92/23
f 27/93/24 25/94/24 21/95/24
f 27/93/24 21/95/24 23/96/24
f 31/97/25 29/98/25 28/99/25
f 31/97/25 28/99/25 30/100/25
f 31/101/26 30/102/26 20/103/26
f 31/101/26 20/103/26 21/104/26
f 30/105/27 28/106/27 24/107/27
f 30/105/27 24/107/27 20/108/27
f 21/109/28 25/110/28 29/111/28
f 21/109/28 29/111/28 31/112/28
f 35/113/29 33/114/29 32/115/29
f 35/113/29 32/115/29 34/116/29
f 35/117/30 34/118/30 28/119/30
f 35/117/30 28/119/30 29/120/30
f 34/121/31 32/122/31 24/123/31
f 34/121/31 24/123/31 28/124/31
f 29/125/32 25/126/32 33/127/32
f 29/125/32 33/127/32 35/128/32
f 37/129/33 27/130/33 26/131/33
f 37/129/33 26/131/33 36/132/33
f 37/133/34 36/134/34 32/135/34
f 37/133/34 32/135/34 33/136/34
f 36/137/35 26/138/35 24/139/35
f 36/137/35 24/139/35 32/140/35
f 33/141/36 25/142/36 27/143/36
f 33/141/36 27/143/36 37/144/36
f 44/145/37 42/146/37 43/147/37
f 44/145/37 43/147/37 32/148/37
f 38/149/38 39/150/38 43/151/38
f 38/149/38 43/151/38 42/152/38
f 40/153/39 38/154/39 42/155/39
f 40/153/39 42/155/39 44/156/39
f 32/157/40 43/158/40 39/159/40
f 32/157/40 39/159/40 41/160/40
f 45/161/41 46/162/41 39/163/41
f 45/161/41 39/163/41 38/164/41
f 47/165/42 45/166/42 38/167/42
f 47/165/42 38/167/42 40/168/42
f 41/169/43 39/170/43 46/171/43
f 41/169/43 46/171/43 48/172/43
f 34/173/44 50/174/44 49/175/44
f 34/173/44 49/175/44 51/176/44
f 49/177/45 50/178/45 46/179/45
f 49/177/45 46/179/45 45/180/45
f 51/181/46 49/182/46 45/183/46
f 51/181/46 45/183/46 47/184/46
f 48/185/47 46/186/47 50/187/47
f 48/185/47 50/187/47 34/188/47
f 55/189/48 53/190/48 52/191/48
f 55/189/48 52/191/48 54/192/48
f 58/193/49 56/194/49 57/195/49
f 58/193/49 57/195/49 59/196/49
f 52/197/50 53/198/50 57/199/50
f 52/197/50 57/199/50 56/200/50
f 55/201/51 54/202/51 58/203/51
f 55/201/51 58/203/51 59/204/51
f 59/205/52 57/206/52 53/207/52
f 59/205/52 53/207/52 55/208/52
f 63/209/53 61/210/53 60/211/53
f 63/209/53 60/211/53 62/212/53
f 66/213/54 64/214/54 65/215/54
f 66/213/54 65/215/54 67/216/54
f 60/217/55 61/218/55 65/219/55
f 60/217/55 65/219/55 64/220/55
f 63/221/56 62/222/56 66/223/56
f 63/221/56 66/223/56 67/224/56
f 67/225/57 65/226/57 61/227/57
f 67/225/57 61/227/57 63/228/57
f 71/229/58 69/230/58 68/231/58
f 71/229/58 68/231/58 70/232/58
f 74/233/59 72/234/59 73/235/59
f 74/233/59 73/235/59 75/236/59
f 68/237/60 69/238/60 73/239/60
f 68/237/60 73/239/60 72/240/60
f 70/241/61 68/242/61 72/243/61
f 70/241/61 72/243/61 74/244/61
f 75/245/62 73/246/62 69/247/62
f 75/245/62 69/247/62 71/248/62
f 79/249/63 77/250/63 76/251/63
f 79/249/63 76/251/63 78/252/63
f 82/253/64 80/254/64 81/255/64
f 82/253/64 81/255/64 83/256/64
f 76/257/65 77/258/65 81/259/65
f 76/257/65 81/259/65 80/260/65
f 78/261/66 76/262/66 80/263/66
f 78/261/66 80/263/66 82/264/66
f 83/265/67 81/266/67 77/267/67
f 83/265/67 77/267/67 79/268/67
f 87/269/68 85/270/68 84/271/68
f 87/269/68 84/271/68 86/272/68
f 90/273/69 88/274/69 89/275/69
f 90/273/69 89/275/69 91/276/69
f 84/277/70 85/278/70 89/279/70
f 84/277/70 89/279/70 88/280/70
f 86/281/71 84/282/71 88/283/71
f 86/281/71 88/283/71 90/284/71
f 91/285/72 89/286/72 85/287/72
f 91/285/72 85/287/72 87/288/72
f 95/289/73 93/290/73 92/291/73
f 95/289/73 92/291/73 94/292/73
f 97/293/74 1/294/74 96/295/74
f 97/293/74 96/295/74 98/296/74
f 92/297/75 93/298/75 96/299/75
f 92/297/75 96/299/75 1/300/75
f 95/301/76 94/302/76 97/303/76
f 95/301/76 97/303/76 98/304/76
f 98/305/77 96/306/77 93/307/77
f 98/305/77 93/307/77 95/308/77
f 102/309/78 100/310/78 99/311/78
f 102/309/78 99/311/78 101/312/78
f 105/313/79 103/314/79 104/315/79
f 105/313/79 104/315/79 106/316/79
f 99/317/80 100/318/80 104/319/80
f 99/317/80 104/319/80 103/320/80
f 101/321/81 99/322/81 103/323/81
f 101/321/81 103/323/81 105/324/81
f 106/325/82 104/326/82 100/327/82
f 106/325/82 100/327/82 102/328/82
f 110/329/83 108/330/83 107/331/83
f 110/329/83 107/331/83 109/332/83
f 113/333/84 111/334/84 112/335/84
f 113/333/84 112/335/84 114/336/84
f 107/337/85 108/338/85 112/339/85
f 107/337/85 112/339/85 111/340/85
f 109/341/86 107/342/86 111/343/86
f 109/341/86 111/343/86 113/344/86
f 114/345/87 112/346/87 108/347/87
f 114/345/87 108/347/87 110/348/87
f 118/349/88 116/350/88 115/351/88
f 118/349/88 115/351/88 117/352/88
f 121/353/89 119/354/89 120/355/89
f 121/353/89 120/355/89 122/356/89
f 115/357/90 116/358/90 120/359/90
f 115/357/90 120/359/90 119/360/90
f 117/361/91 115/362/91 119/363/91
f 117/361/91 119/363/91 121/364/91
f 122/365/92 120/366/92 116/367/92
f 122/365/92 116/367/92 118/368/92
f 126/369/93 124/370/93 123/371/93
f 126/369/93 123/371/93 125/372/93
f 129/373/94 127/374/94 128/375/94
f 129/373/94 128/375/94 130/376/94
f 123/377/95 124/378/95 128/379/95
f 123/377/95 128/379/95 127/380/95
f 125/381/96 123/382/96 127/383/96
f 125/381/96 127/383/96 129/384/96
f 130/385/97 128/386/97 124/387/97
f 130/385/97 124/387/97 126/388/97