# Made by Pabilo8 with Blockbench
# Exported with IIToolkit Plugin on 21/07/2026
mtllib wooden_pier_support_inv.mtl

o pier_support
v 0.6875 0.5 0.6875
v 0.6875 0.5 0.3125
v 0.6875 0 0.6875
v 0.6875 0 0.3125
v 0.3125 0.5 0.6875
v 0.3125 0.5 0.3125
v 0.3125 0 0.6875
v 0.3125 0 0.3125
v 0.625 1 0.625
v 0.625 1 0.375
v 0.625 0.5 0.625
v 0.625 0.5 0.375
v 0.375 1 0.625
v 0.375 1 0.375
v 0.375 0.5 0.625
v 0.375 0.5 0.375
vt 0.0938 0.25
vt 0.0938 0.375
vt 0 0.375
vt 0 0.25
vt 0.0938 0.25
vt 0.0938 0.375
vt 0 0.375
vt 0 0.25
vt 0.1875 0.2813
vt 0.1875 0.375
vt 0.0938 0.375
vt 0.0938 0.2813
vt 0.2813 0.2813
vt 0.2813 0.375
vt 0.1875 0.375
vt 0.1875 0.2813
vt 0.0938 0.25
vt 0.0938 0.375
vt 0 0.375
vt 0 0.25
vt 0.0938 0.25
vt 0.0938 0.375
vt 0 0.375
vt 0 0.25
vt 0.125 0.0625
vt 0 0.0625
vt 0 0
vt 0.125 0
vt 0.125 0.0625
vt 0 0.0625
vt 0 0
vt 0.125 0
vt 0.75 0
vt 0.8125 0
vt 0.8125 0.0625
vt 0.75 0.0625
vt 0.125 0
vt 0 0
vt 0 0.0625
vt 0.125 0.0625
vt 0.125 0
vt 0 0
vt 0 0.0625
vt 0.125 0.0625
vn 1 0 0
vn -1 0 0
vn 0 1 0
vn 0 -1 0
vn 0 0 1
vn 0 0 -1
vn 1 0 0
vn -1 0 0
vn 0 1 0
vn 0 0 1
vn 0 0 -1
usemtl common_wooden_pier
f 4/1/1 2/2/1 1/3/1
f 4/1/1 1/3/1 3/4/1
f 7/5/2 5/6/2 6/7/2
f 7/5/2 6/7/2 8/8/2
f 1/9/3 2/10/3 6/11/3
f 1/9/3 6/11/3 5/12/3
f 4/13/4 3/14/4 7/15/4
f 4/13/4 7/15/4 8/16/4
f 3/17/5 1/18/5 5/19/5
f 3/17/5 5/19/5 7/20/5
f 8/21/6 6/22/6 2/23/6
f 8/21/6 2/23/6 4/24/6
f 12/25/7 10/26/7 9/27/7
f 12/25/7 9/27/7 11/28/7
f 15/29/8 13/30/8 14/31/8
f 15/29/8 14/31/8 16/32/8
f 9/33/9 10/34/9 14/35/9
f 9/33/9 14/35/9 13/36/9
f 11/37/10 9/38/10 13/39/10
f 11/37/10 13/39/10 15/40/10
f 16/41/11 14/42/11 10/43/11
f 16/41/11 10/43/11 12/44/11