# Made by Pabilo8 with Blockbench
# Exported with IIToolkit Plugin
mtllib smoke.mtl


o dust_big
v 1.6534902576697317 0.06250000143810744 1.653490257669732
v 1.4618718694308457 1.8124999533234307 -1.4618718433538311
v -1.4618718172767788 1.8124999968906028 1.4618718433538396
v 1.4618718172767788 -1.6874999968906026 -1.4618718433538396
v -1.4618718694308457 -1.6874999533234305 1.4618718433538311
v 1.697684431493891 0.06250000077956236 -1.697684431493892
v -1.697684431493891 0.06249999922043799 1.6976844314938917
v -1.6534902576697315 0.06249999856189291 -1.6534902576697321
v 1.4618718474261134 1.8124999791383698 1.4618718433538216
v -1.461871839281532 1.8124999710756633 -1.4618718433538247
v 1.4618718392815324 -1.6874999710756633 1.461871843353825
v -1.4618718474261134 -1.6874999791383698 -1.4618718433538216
vt 1 0
vt 1 1
vt 0 1
vt 0 0
vt 1 1
vt 1 0
vt 0 0
vt 0 1
vt 1 0
vt 1 1
vt 0 1
vt 0 0
vt 1 1
vt 1 0
vt 0 0
vt 0 1
vt 1 1
vt 1 0
vt 0 0
vt 0 1
vt 1 1
vt 1 0
vt 0 0
vt 0 1
vn 0.707106781186553 -1.05367145613669e-8 0.7071067811865419
vn -0.707106781186553 1.05367145613669e-8 -0.7071067811865419
vn -6.644659228499793e-10 1 -2.0527446893224338e-10
vn 6.644659228499759e-10 -1 2.0527446893224504e-10
vn -0.7071067811865476 1.6454545728813193e-9 0.7071067811865474
vn 0.7071067811865476 -1.6454545728813176e-9 -0.7071067811865474
usemtl dust_big
f 2/1/1 3/2/1 5/3/1 4/4/1
f 3/5/2 2/6/2 4/7/2 5/8/2
f 1/9/3 6/10/3 8/11/3 7/12/3
f 6/13/4 1/14/4 7/15/4 8/16/4
f 9/17/5 10/18/5 12/19/5 11/20/5
f 10/21/6 9/22/6 11/23/6 12/24/6