# Made by Pabilo8 with Blockbench
# Exported with IIToolkit Plugin
mtllib smoke.mtl


o dust_small
v 0.5044417382415923 0.062499999933812896 0.5044417382415923
v 0.4993718508044001 0.5624999861050439 -0.49937184335382584
v -0.49937183590323814 0.5625000009874833 0.4993718433538283
v 0.49937183590323814 -0.4375000009874832 -0.4993718433538283
v -0.4993718508044001 -0.4374999861050438 0.49937184335382584
v 0.5044417382415923 0.062499999933812875 -0.5044417382415922
v -0.5044417382415923 0.06250000006618722 0.5044417382415922
v -0.5044417382415923 0.0625000000661872 -0.5044417382415923
v 0.4993718432876376 0.5624999934807404 0.4993718433538223
v -0.4993718434200082 0.5624999936117867 -0.49937184335382384
v 0.4993718434200083 -0.4374999936117866 0.4993718433538239
v -0.4993718432876376 -0.4374999934807404 -0.4993718433538223
vt 1 0
vt 1 1
vt 0 1
vt 0 0
vt 1 1
vt 1 0
vt 0 0
vt 0 1
vt 1 0
vt 1 1
vt 0 1
vt 0 0
vt 1 1
vt 1 0
vt 0 0
vt 0 1
vt 1 1
vt 1 0
vt 0 0
vt 0 1
vt 1 1
vt 1 0
vt 0 0
vt 0 1
vn 0.707106781186553 -1.05367145613669e-8 0.7071067811865419
vn -0.707106781186553 1.05367145613669e-8 -0.7071067811865419
vn 1.3120873617609644e-10 1 -2.6592984845214215e-17
vn -1.3120873617609726e-10 -1 2.6592984018033602e-17
vn -0.7071067811865476 -9.359901788603073e-11 0.7071067811865474
vn 0.7071067811865476 9.359901788603073e-11 -0.7071067811865474
usemtl dust_small
f 2/1/1 3/2/1 5/3/1 4/4/1
f 3/5/2 2/6/2 4/7/2 5/8/2
f 1/9/3 6/10/3 8/11/3 7/12/3
f 6/13/4 1/14/4 7/15/4 8/16/4
f 9/17/5 10/18/5 12/19/5 11/20/5
f 10/21/6 9/22/6 11/23/6 12/24/6