# Made by Pabilo8 with Blockbench
# Exported with IIToolkit Plugin
mtllib smoke_trace.mtl


o cube
v 0 1.1875 -0.4999999999999998
v 0 -0.3124999999999999 -0.5000000000000001
v 0 1.1875 0.5000000000000002
v 0 -0.3125000000000001 0.4999999999999999
v 0 -0.3124999999999999 -0.5000000000000001
v 0 1.1875 -0.4999999999999998
v 0 -0.3125000000000001 0.4999999999999999
v 0 1.1875 0.5000000000000002
vt 1 1
vt 0 1
vt 0 0.5208333333333333
vt 1 0.5208333333333333
vt 0 1
vt 1 1
vt 1 0.5208333333333334
vt 0 0.5208333333333334
vn 1 0 0
vn -1 0 0
usemtl smoke_trace
f 3/4/1 4/3/1 2/2/1 1/1/1
f 7/8/2 8/7/2 6/6/2 5/5/2
o cube
v 0.5 1.1875 1.1102230246251565e-16
v 0.5 -0.3125 -2.220446049250313e-16
v -0.5 1.1875 3.3306690738754696e-16
v -0.5 -0.3125 0
v 0.5 -0.3125 -2.220446049250313e-16
v 0.5 1.1875 1.1102230246251565e-16
v -0.5 -0.3125 0
v -0.5 1.1875 3.3306690738754696e-16
vt 1 1
vt 0 1
vt 0 0.5208333333333333
vt 1 0.5208333333333333
vt 0 1
vt 1 1
vt 1 0.5208333333333334
vt 0 0.5208333333333334
vn 2.220446049250313e-16 -2.220446049250313e-16 1
vn -2.220446049250313e-16 2.220446049250313e-16 -1
usemtl smoke_trace
f 11/12/3 12/11/3 10/10/3 9/9/3
f 15/16/4 16/15/4 14/14/4 13/13/4
o cube
v 0.35355339059327406 1.1875 0.3535533905932735
v 0.35355339059327406 -0.3125000000000001 0.3535533905932732
v -0.35355339059327406 1.1875 -0.35355339059327306
v -0.35355339059327406 -0.31249999999999994 -0.3535533905932734
v 0.35355339059327406 -0.3125000000000001 0.3535533905932732
v 0.35355339059327406 1.1875 0.3535533905932735
v -0.35355339059327406 -0.31249999999999994 -0.3535533905932734
v -0.35355339059327406 1.1875 -0.35355339059327306
vt 1 1
vt 0 1
vt 0 0.5208333333333333
vt 1 0.5208333333333333
vt 0 1
vt 1 1
vt 1 0.5208333333333334
vt 0 0.5208333333333334
vn -0.7071067811865468 -1.570092458683777e-16 0.7071067811865483
vn 0.7071067811865468 1.570092458683777e-16 -0.7071067811865483
usemtl smoke_trace
f 19/20/5 20/19/5 18/18/5 17/17/5
f 23/24/6 24/23/6 22/22/6 21/21/6
o cube
v 0.35355339059327373 1.1875 -0.3535533905932735
v 0.35355339059327373 -0.31249999999999994 -0.35355339059327384
v -0.3535533905932738 1.1875 0.35355339059327395
v -0.3535533905932738 -0.3125000000000001 0.3535533905932736
v 0.35355339059327373 -0.31249999999999994 -0.35355339059327384
v 0.35355339059327373 1.1875 -0.3535533905932735
v -0.3535533905932738 -0.3125000000000001 0.3535533905932736
v -0.3535533905932738 1.1875 0.35355339059327395
vt 1 1
vt 0 1
vt 0 0.5208333333333333
vt 1 0.5208333333333333
vt 0 1
vt 1 1
vt 1 0.5208333333333334
vt 0 0.5208333333333334
vn 0.7071067811865475 -1.5700924586837752e-16 0.7071067811865476
vn -0.7071067811865475 1.5700924586837752e-16 -0.7071067811865476
usemtl smoke_trace
f 27/28/7 28/27/7 26/26/7 25/25/7
f 31/32/8 32/31/8 30/30/8 29/29/8
o cube
v 0.5 1.1102230246251565e-16 -0.5
v 0.5 1.1102230246251565e-16 -0.5
v 0.5 -1.1102230246251565e-16 0.5
v 0.5 -1.1102230246251565e-16 0.5
v -0.5 1.1102230246251565e-16 -0.5
v -0.5 1.1102230246251565e-16 -0.5
v -0.5 -1.1102230246251565e-16 0.5
v -0.5 -1.1102230246251565e-16 0.5
vt 0 0.5
vt 0.5 0.5
vt 0.5 0
vt 0 0
vt 0 1
vt 0 1
vt 0 0
vt 0 0
vt 0 0.5
vt 0.5 0.5
vt 0.5 0
vt 0 0
vt 0 1
vt 0 1
vt 0 0
vt 0 0
vt 0 1
vt 1 1
vt 1 1
vt 0 1
vt 0 1
vt 1 1
vt 1 1
vt 0 1
vn 0 -1 -2.220446049250313e-16
vn 1 0 0
vn 0 1 2.220446049250313e-16
vn -1 0 0
vn 0 2.220446049250313e-16 -1
vn 0 -2.220446049250313e-16 1
usemtl smoke_trace
f 36/36/9 39/35/9 37/34/9 34/33/9
usemtl none
f 35/40/10 36/39/10 34/38/10 33/37/10
usemtl smoke_trace
f 40/44/11 35/43/11 33/42/11 38/41/11
usemtl none
f 39/48/12 40/47/12 38/46/12 37/45/12
f 38/52/13 33/51/13 34/50/13 37/49/13
f 39/56/14 36/55/14 35/54/14 40/53/14
o cube
v 0.25 -0.18749999999999994 -0.2500000000000001
v 0.25 -0.18749999999999994 -0.2500000000000001
v 0.25 -0.18750000000000006 0.2499999999999999
v 0.25 -0.18750000000000006 0.2499999999999999
v -0.25 -0.18749999999999994 -0.2500000000000001
v -0.25 -0.18749999999999994 -0.2500000000000001
v -0.25 -0.18750000000000006 0.2499999999999999
v -0.25 -0.18750000000000006 0.2499999999999999
vt 0.6458333333333333 0.3749999999999998
vt 0.8958333333333335 0.3749999999999998
vt 0.8958333333333335 0.12499999999999978
vt 0.6458333333333333 0.12499999999999978
vt 0 1
vt 0 1
vt 0 0
vt 0 0
vt 0.6458333333333336 0.3749999999999998
vt 0.8958333333333336 0.3749999999999998
vt 0.8958333333333336 0.12499999999999978
vt 0.6458333333333336 0.12499999999999978
vt 0 1
vt 0 1
vt 0 0
vt 0 0
vt 0 1
vt 1 1
vt 1 1
vt 0 1
vt 0 1
vt 1 1
vt 1 1
vt 0 1
vn 0 -1 -2.220446049250313e-16
vn 1 0 0
vn 0 1 2.220446049250313e-16
vn -1 0 0
vn 0 2.220446049250313e-16 -1
vn 0 -2.220446049250313e-16 1
usemtl smoke_trace
f 44/60/15 47/59/15 45/58/15 42/57/15
usemtl none
f 43/64/16 44/63/16 42/62/16 41/61/16
usemtl smoke_trace
f 48/68/17 43/67/17 41/66/17 46/65/17
usemtl none
f 47/72/18 48/71/18 46/70/18 45/69/18
f 46/76/19 41/75/19 42/74/19 45/73/19
f 47/80/20 44/79/20 43/78/20 48/77/20