# Made by Pabilo8 with Blockbench
# Exported with IIToolkit Plugin
mtllib redstone_interface.mtl


o main
v 0.3125 0.6875 -0.125
v 0.3125 0.6875 -0.875
v 0.3125 0.3125 -0.125
v 0.3125 0.3125 -0.875
v 1.59375 0.875 0.0625
v 1.59375 0.875 -0.3125
v 1.59375 0.25 0.0625
v 1.59375 0.25 -0.3125
v 1.65625 0.875 0.0625
v 1.65625 0.875 -0.3125
v 1.65625 0.25 0.0625
v 1.65625 0.25 -0.3125
v 0.375 0.625 -0.875
v 0.375 0.625 -0.9375
v 0.375 0.375 -0.875
v 0.375 0.375 -0.9375
v 0.625 0.625 -0.875
v 0.625 0.625 -0.9375
v 0.625 0.375 -0.875
v 0.625 0.375 -0.9375
v 0.375 0.625 -0.0625
v 0.375 0.625 -0.125
v 0.375 0.375 -0.0625
v 0.375 0.375 -0.125
v 0.625 0.625 -0.0625
v 0.625 0.625 -0.125
v 0.625 0.375 -0.0625
v 0.625 0.375 -0.125
v 0.25 0.75 -0.9375
v 0.25 0.75 -1
v 0.25 0.25 -0.9375
v 0.25 0.25 -1
v 0.75 0.75 -0.9375
v 0.75 0.75 -1
v 0.75 0.25 -0.9375
v 0.75 0.25 -1
v 1 0.25 1
v 1 0.25 0
v 1 0 1
v 1 0 0
v 2 0.25 1
v 2 0.25 0
v 2 0 1
v 2 0 0
v 1 0.25 -1
v 1 0 -1
v 2 0.25 -1
v 2 0 -1
v 0 0.25 0
v 0 0.25 -1
v 0 0 0
v 0 0 -1
v 0 0.25 1
v 0 0 1
v 0.96875 1 0.9375
v 0.96875 1 0.875
v 0.96875 0.25 0.9375
v 0.96875 0.25 0.875
v 1.34375 1 0.9375
v 1.34375 1 0.875
v 1.34375 0.25 0.9375
v 1.34375 0.25 0.875
v 1.15625 1 0.9375
v 1.15625 1 0.875
v 1.15625 0.25 0.875
v 1.15625 0.25 0.9375
v 0.125 1 1
v 0.125 1 0.9375
v 0.125 0.5 1
v 0.125 0.5 0.9375
v 0.625 1 1
v 0.625 1 0.9375
v 0.625 0.5 1
v 0.625 0.5 0.9375
v 0.1875 0.9375 0.9375
v 0.1875 0.9375 0.8125
v 0.1875 0.5625 0.9375
v 0.1875 0.5625 0.8125
v 0.5625 0.9375 0.9375
v 0.5625 0.9375 0.8125
v 0.5625 0.5625 0.9375
v 0.5625 0.5625 0.8125
v 0.1875 0.5 1
v 0.1875 0.5 0.9375
v 0.1875 0.25 1
v 0.1875 0.25 0.9375
v 0.25 0.5 1
v 0.25 0.5 0.9375
v 0.25 0.25 1
v 0.25 0.25 0.9375
v 0.5 0.5 1
v 0.5 0.5 0.9375
v 0.5 0.25 1
v 0.5 0.25 0.9375
v 0.5625 0.5 1
v 0.5625 0.5 0.9375
v 0.5625 0.25 1
v 0.5625 0.25 0.9375
v 0.28125 0.8125 0.8125
v 0.28125 0.8125 0.75
v 0.28125 0.25 0.8125
v 0.28125 0.25 0.75
v 0.46875 0.8125 0.8125
v 0.46875 0.8125 0.75
v 0.46875 0.25 0.8125
v 0.46875 0.25 0.75
v 0.28125 0.3125 0.75
v 0.28125 0.3125 0.5
v 0.28125 0.25 0.5
v 0.71875 0.3125 0.75
v 0.71875 0.3125 0.5
v 0.71875 0.25 0.75
v 0.71875 0.25 0.5
v 0.71875 0.75 0.75
v 0.71875 0.75 0.5
v 0.78125 0.75 0.75
v 0.78125 0.75 0.5
v 0.78125 0.25 0.75
v 0.78125 0.25 0.5
v 0.84375 0.875 0.8125
v 0.78125 0.875 0.8125
v 0.84375 0.5 0.8125
v 0.78125 0.5 0.8125
v 0.84375 0.875 0.4375
v 0.78125 0.875 0.4375
v 0.84375 0.5 0.4375
v 0.78125 0.5 0.4375
v 0.84375 0.9375 0.875
v 0.84375 0.9375 0.375
v 0.84375 0.4375 0.875
v 0.84375 0.4375 0.375
v 1.46875 0.9375 0.875
v 1.46875 0.9375 0.375
v 1.46875 0.4375 0.875
v 1.46875 0.4375 0.375
v 1.53125 0.875 0.8125
v 1.46875 0.875 0.8125
v 1.53125 0.5 0.8125
v 1.46875 0.5 0.8125
v 1.53125 0.875 0.4375
v 1.46875 0.875 0.4375
v 1.53125 0.5 0.4375
v 1.46875 0.5 0.4375
v 1.65625 0.5 0
v 1.65625 0.5 -0.25
v 1.65625 0.25 0
v 1.65625 0.25 -0.25
v 1.71875 0.5 0
v 1.71875 0.5 -0.25
v 1.71875 0.25 0
v 1.71875 0.25 -0.25
v 1.96875 0.5 0
v 1.96875 0.5 -0.1875
v 1.96875 0.25 0
v 1.96875 0.25 -0.1875
v 1.71875 0.5 0.5
v 1.96875 0.5 0.5
v 1.71875 0.25 0.5
v 1.96875 0.25 0.5
v 1.71875 0.5 0.75
v 1.71875 0.25 0.75
v 1.96875 0.5 0.75
v 1.96875 0.25 0.75
v 1.71875 0.5625 0.75
v 1.71875 0.5625 0.5
v 1.96875 0.5625 0.75
v 1.96875 0.5625 0.5
v 1.71875 0.8125 0.75
v 1.71875 0.8125 0.5
v 1.96875 0.75 0.75
v 1.96875 0.75 0.5
v 1.53125 0.8125 0.75
v 1.53125 0.8125 0.5
v 1.53125 0.5625 0.75
v 1.53125 0.5625 0.5
v 1.65625 0.8125 0
v 1.65625 0.8125 -0.25
v 1.65625 0.5625 0
v 1.65625 0.5625 -0.25
v 1.71875 0.8125 0
v 1.71875 0.8125 -0.25
v 1.71875 0.5625 0
v 1.71875 0.5625 -0.25
v 1.96875 0.8125 0
v 1.96875 0.8125 -0.1875
v 1.96875 0.5625 0
v 1.96875 0.5625 -0.1875
v 1.71875 0.8125 0.375
v 1.71875 0.8125 0.125
v 1.71875 0.5625 0.375
v 1.71875 0.5625 0.125
v 1.90625 0.8125 0.375
v 1.96875 0.8125 0.125
v 1.90625 0.5625 0.375
v 1.96875 0.5625 0.125
v 1.21875 0.8125 0.375
v 1.21875 0.8125 0.125
v 1.21875 0.5625 0.375
v 1.21875 0.5625 0.125
v 0.59375 0.8125 0.375
v 0.59375 0.8125 0.125
v 0.59375 0.5625 0.375
v 0.59375 0.5625 0.125
v 0.25 0.875 0.375
v 0.25 0.875 0.125
v 0.25 0.625 0.375
v 0.25 0.625 0.125
v 0.5 0.875 0.375
v 0.5 0.875 0.125
v 0.5 0.625 0.375
v 0.5 0.625 0.125
v 0.25 0.875 0.0625
v 0.5 0.875 0.0625
v 0.25 0.625 0.0625
v 0.5 0.625 0.0625
v 0.125 0.9375 0
v 0.125 0.9375 -0.0625
v 0.125 0.25 0
v 0.125 0.25 -0.0625
v 0.625 0.9375 0
v 0.625 0.9375 -0.0625
v 0.625 0.25 0
v 0.625 0.25 -0.0625
v 0.1875 1 0
v 0.1875 1 -0.0625
v 0.625 1 0
v 0.625 1 -0.0625
v 0.1875 0.9375 0.0625
v 0.1875 0.9375 0
v 0.1875 0.5625 0.0625
v 0.1875 0.5625 0
v 0.5625 0.9375 0.0625
v 0.5625 0.9375 0
v 0.5625 0.5625 0.0625
v 0.5625 0.5625 0
v 0.625 1 0.125
v 0.625 1 -0.875
v 0.625 0.25 0.125
v 0.625 0.25 -0.875
v 1.625 1 0.125
v 1.625 1 -0.875
v 1.625 0.25 0.125
v 1.625 0.25 -0.875
v 1.625 0.3125 -0.4375
v 1.625 0.3125 -0.8125
v 1.625 0.25 -0.4375
v 1.625 0.25 -0.8125
v 2 0.3125 -0.4375
v 2 0.3125 -0.8125
v 2 0.25 -0.4375
v 2 0.25 -0.8125
v 1.6875 0.34375 -0.5
v 1.6875 0.34375 -0.75
v 1.6875 0.28125 -0.5
v 1.6875 0.28125 -0.75
v 1.9375 0.34375 -0.5
v 1.9375 0.34375 -0.75
v 1.9375 0.28125 -0.5
v 1.9375 0.28125 -0.75
v 1.75 0.625 -0.5625
v 1.75 0.625 -0.6875
v 1.75 0.3125 -0.5625
v 1.75 0.3125 -0.6875
v 1.875 0.625 -0.5625
v 1.875 0.625 -0.6875
v 1.875 0.3125 -0.5625
v 1.875 0.3125 -0.6875
v 1.71875 0.59375 -0.53125
v 1.71875 0.59375 -0.71875
v 1.71875 0.34375 -0.53125
v 1.71875 0.34375 -0.71875
v 1.90625 0.59375 -0.53125
v 1.90625 0.59375 -0.71875
v 1.90625 0.34375 -0.53125
v 1.90625 0.34375 -0.71875
v 1.75 0.65625 -0.5625
v 1.75 0.65625 -0.6875
v 1.875 0.65625 -0.5625
v 1.875 0.65625 -0.6875
v 0.875 0.875 -0.875
v 0.875 0.875 -0.9375
v 0.875 0.6875 -0.875
v 0.875 0.6875 -0.9375
v 1.375 0.875 -0.875
v 1.375 0.875 -0.9375
v 1.375 0.6875 -0.875
v 1.375 0.6875 -0.9375
v 0.875 0.5 -0.875
v 0.875 0.5 -0.9375
v 0.875 0.3125 -0.875
v 0.875 0.3125 -0.9375
v 1.375 0.5 -0.875
v 1.375 0.5 -0.9375
v 1.375 0.3125 -0.875
v 1.375 0.3125 -0.9375
v 0.5 0.875 1.3125
v 0.5 0.625 1.3125
v 0.5 0.625 1.5625
v 0.5 0.875 1.5625
v 0.25 0.875 1.3125
v 0.25 0.875 1.5625
v 0.25 0.625 1.3125
v 0.25 0.625 1.5625
v 0.4375 0.8125 1
v 0.3125 0.8125 1
v 0.3125 0.6875 1
v 0.4375 0.6875 1
v 0.5625 0.5625 1.3125
v 0.5625 0.9375 1.3125
v 0.5625 0.9375 1.1875
v 0.5625 0.5625 1.1875
v 0.1875 0.9375 1.3125
v 0.1875 0.9375 1.1875
v 0.1875 0.5625 1.3125
v 0.1875 0.5625 1.1875
v 0.5625 0.5625 1.125
v 0.5625 0.9375 1.125
v 0.5625 0.9375 1
v 0.5625 0.5625 1
v 0.1875 0.9375 1.125
v 0.1875 0.5625 1.125
v 0.1875 0.5625 1
v 0.1875 0.9375 1
v 0.25 0.875 1.1875
v 0.25 0.625 1.1875
v 0.25 0.625 1.125
v 0.25 0.875 1.125
v 0.5 0.625 1.1875
v 0.5 0.875 1.1875
v 0.5 0.875 1.125
v 0.5 0.625 1.125
v 0.625 0.6875 -0.875
v 0.625 0.3125 -0.875
v 0.625 0.3125 -0.125
v 0.625 0.6875 -0.125
v 0.125 0.75 -0.1875
v 0.125 0.75 -0.3125
v 0.125 0.25 -0.1875
v 0.125 0.25 -0.3125
v 0.25 0.75 -0.1875
v 0.25 0.75 -0.3125
v 0.25 0.25 -0.1875
v 0.25 0.25 -0.3125
v 0.125 0.875 -0.1875
v 0.125 0.875 -0.3125
v 0.125 0.75 -0.1875
v 0.125 0.75 -0.3125
v 0.625 0.875 -0.1875
v 0.625 0.875 -0.3125
v 0.625 0.75 -0.1875
v 0.625 0.75 -0.3125
v 0.1875 0.875 -0.3125
v 0.1875 0.75 -0.3125
v 0.1875 0.75 -0.1875
v 0.1875 0.875 -0.1875
v 0.125 0.875 -0.625
v 0.125 0.875 -0.75
v 0.125 0.75 -0.625
v 0.125 0.75 -0.75
v 0.625 0.875 -0.625
v 0.625 0.875 -0.75
v 0.625 0.75 -0.625
v 0.625 0.75 -0.75
v 0.1875 0.875 -0.75
v 0.1875 0.75 -0.75
v 0.1875 0.75 -0.625
v 0.1875 0.875 -0.625
v 0.125 0.75 -0.625
v 0.125 0.75 -0.75
v 0.125 0.25 -0.625
v 0.125 0.25 -0.75
v 0.25 0.75 -0.625
v 0.25 0.75 -0.75
v 0.25 0.25 -0.625
v 0.25 0.25 -0.75
vt 0.578125 0.75
vt 0.390625 0.75
vt 0.390625 0.65625
vt 0.578125 0.65625
vt 0.578125 0.671875
vt 0.390625 0.671875
vt 0.390625 0.75
vt 0.578125 0.75
vt 0.390625 0.671875
vt 0.578125 0.671875
vt 0.578125 0.75
vt 0.390625 0.75
vt 0.703125 0.90625
vt 0.703125 1
vt 0.625 1
vt 0.625 0.90625
vt 0.640625 1
vt 0.640625 0.90625
vt 0.71875 0.90625
vt 0.71875 1
vt 0.984375 0.203125
vt 0.890625 0.203125
vt 0.890625 0.046875
vt 0.984375 0.046875
vt 0.921875 0.203125
vt 0.828125 0.203125
vt 0.828125 0.046875
vt 0.921875 0.046875
vt 0.875 0.09375
vt 0.890625 0.09375
vt 0.890625 0.1875
vt 0.875 0.1875
vt 0.890625 0.296875
vt 0.90625 0.296875
vt 0.90625 0.203125
vt 0.890625 0.203125
vt 0.90625 0.203125
vt 0.890625 0.203125
vt 0.890625 0.046875
vt 0.90625 0.046875
vt 0.890625 0.203125
vt 0.875 0.203125
vt 0.875 0.046875
vt 0.890625 0.046875
vt 0.3125 0.46875
vt 0.296875 0.46875
vt 0.296875 0.40625
vt 0.3125 0.40625
vt 0.359375 0.46875
vt 0.34375 0.46875
vt 0.34375 0.40625
vt 0.359375 0.40625
vt 0.359375 0.453125
vt 0.296875 0.453125
vt 0.296875 0.46875
vt 0.359375 0.46875
vt 0.359375 0.421875
vt 0.296875 0.421875
vt 0.296875 0.40625
vt 0.359375 0.40625
vt 0.3125 0.46875
vt 0.296875 0.46875
vt 0.296875 0.40625
vt 0.3125 0.40625
vt 0.359375 0.46875
vt 0.34375 0.46875
vt 0.34375 0.40625
vt 0.359375 0.40625
vt 0.359375 0.453125
vt 0.296875 0.453125
vt 0.296875 0.46875
vt 0.359375 0.46875
vt 0.359375 0.421875
vt 0.296875 0.421875
vt 0.296875 0.40625
vt 0.359375 0.40625
vt 0.875 0.609375
vt 0.859375 0.609375
vt 0.859375 0.484375
vt 0.875 0.484375
vt 0.765625 0.609375
vt 0.75 0.609375
vt 0.75 0.484375
vt 0.765625 0.484375
vt 0.75 0.59375
vt 0.875 0.59375
vt 0.875 0.609375
vt 0.75 0.609375
vt 0.75 0.5
vt 0.875 0.5
vt 0.875 0.484375
vt 0.75 0.484375
vt 0.75 0.609375
vt 0.875 0.609375
vt 0.875 0.484375
vt 0.75 0.484375
vt 0.875 0.609375
vt 0.75 0.609375
vt 0.75 0.484375
vt 0.875 0.484375
vt 0.25 1
vt 0.5 1
vt 0.5 0.9375
vt 0.25 0.9375
vt 0.6875 0.6875
vt 0.4375 0.6875
vt 0.4375 0.9375
vt 0.6875 0.9375
vt 0.75 1
vt 0.5 1
vt 0.5 0.75
vt 0.75 0.75
vt 0 1
vt 0.25 1
vt 0.25 0.9375
vt 0 0.9375
vt 0 1
vt 0.25 1
vt 0.25 0.9375
vt 0 0.9375
vt 0.6875 0.3125
vt 0.4375 0.3125
vt 0.4375 0.5625
vt 0.6875 0.5625
vt 0.75 0.5
vt 0.5 0.5
vt 0.5 0.25
vt 0.75 0.25
vt 0.25 1
vt 0.5 1
vt 0.5 0.9375
vt 0.25 0.9375
vt 0.3125 0.3125
vt 0.0625 0.3125
vt 0.0625 0.5625
vt 0.3125 0.5625
vt 0.25 0.5
vt 0 0.5
vt 0 0.25
vt 0.25 0.25
vt 0 1
vt 0.25 1
vt 0.25 0.9375
vt 0 0.9375
vt 0.25 1
vt 0.5 1
vt 0.5 0.9375
vt 0.25 0.9375
vt 0.3125 0.6875
vt 0.0625 0.6875
vt 0.0625 0.9375
vt 0.3125 0.9375
vt 0.25 1
vt 0 1
vt 0 0.75
vt 0.25 0.75
vt 0 1
vt 0.25 1
vt 0.25 0.9375
vt 0 0.9375
vt 0.25 1
vt 0.5 1
vt 0.5 0.9375
vt 0.25 0.9375
vt 0.015625 0.78125
vt 0 0.78125
vt 0 0.59375
vt 0.015625 0.59375
vt 0.015625 0.1875
vt 0 0.1875
vt 0 0
vt 0.015625 0
vt 0.09375 0.015625
vt 0.09375 0
vt 0.140625 0
vt 0.140625 0.015625
vt 0.546875 0.0625
vt 0.546875 0.25
vt 0.5 0.25
vt 0.5 0.0625
vt 0.359375 0.453125
vt 0.359375 0.265625
vt 0.40625 0.265625
vt 0.40625 0.453125
vt 0.3125 0
vt 0.3125 0.015625
vt 0.265625 0.015625
vt 0.265625 0
vt 0.359375 0.265625
vt 0.359375 0.453125
vt 0.3125 0.453125
vt 0.3125 0.265625
vt 0.703125 0.25
vt 0.703125 0.0625
vt 0.75 0.0625
vt 0.75 0.25
vt 0.640625 0.609375
vt 0.625 0.609375
vt 0.625 0.484375
vt 0.640625 0.484375
vt 0.75 0.609375
vt 0.734375 0.609375
vt 0.734375 0.484375
vt 0.75 0.484375
vt 0.75 0.59375
vt 0.625 0.59375
vt 0.625 0.609375
vt 0.75 0.609375
vt 0.75 0.5
vt 0.625 0.5
vt 0.625 0.484375
vt 0.75 0.484375
vt 0.75 0.609375
vt 0.625 0.609375
vt 0.625 0.484375
vt 0.75 0.484375
vt 0.625 0.609375
vt 0.75 0.609375
vt 0.75 0.484375
vt 0.625 0.484375
vt 0.6875 0.734375
vt 0.65625 0.734375
vt 0.65625 0.640625
vt 0.6875 0.640625
vt 0.625 0.734375
vt 0.59375 0.734375
vt 0.59375 0.640625
vt 0.625 0.640625
vt 0.59375 0.703125
vt 0.6875 0.703125
vt 0.6875 0.734375
vt 0.59375 0.734375
vt 0.59375 0.734375
vt 0.6875 0.734375
vt 0.6875 0.703125
vt 0.59375 0.703125
vt 0.6875 0.734375
vt 0.59375 0.734375
vt 0.59375 0.640625
vt 0.6875 0.640625
vt 0.609375 0.421875
vt 0.59375 0.421875
vt 0.59375 0.359375
vt 0.609375 0.359375
vt 0.578125 0.421875
vt 0.5625 0.421875
vt 0.5625 0.359375
vt 0.578125 0.359375
vt 0.625 0.421875
vt 0.609375 0.421875
vt 0.609375 0.359375
vt 0.625 0.359375
vt 0.59375 0.421875
vt 0.578125 0.421875
vt 0.578125 0.359375
vt 0.59375 0.359375
vt 0.609375 0.421875
vt 0.59375 0.421875
vt 0.59375 0.359375
vt 0.609375 0.359375
vt 0.578125 0.421875
vt 0.5625 0.421875
vt 0.5625 0.359375
vt 0.578125 0.359375
vt 0.625 0.421875
vt 0.609375 0.421875
vt 0.609375 0.359375
vt 0.625 0.359375
vt 0.59375 0.421875
vt 0.578125 0.421875
vt 0.578125 0.359375
vt 0.59375 0.359375
vt 0.171875 0.578125
vt 0.15625 0.578125
vt 0.15625 0.4375
vt 0.171875 0.4375
vt 0.171875 0.59375
vt 0.15625 0.59375
vt 0.15625 0.453125
vt 0.171875 0.453125
vt 0.09375 0.5625
vt 0.140625 0.5625
vt 0.140625 0.578125
vt 0.09375 0.578125
vt 0.109375 0.59375
vt 0.0625 0.59375
vt 0.0625 0.453125
vt 0.109375 0.453125
vt 0.171875 0.59375
vt 0.125 0.59375
vt 0.125 0.453125
vt 0.171875 0.453125
vt 0.140625 0.484375
vt 0.078125 0.484375
vt 0.078125 0.46875
vt 0.140625 0.46875
vt 0.15625 0.484375
vt 0.15625 0.59375
vt 0.09375 0.59375
vt 0.09375 0.484375
vt 0.140625 0.546875
vt 0.140625 0.4375
vt 0.15625 0.4375
vt 0.15625 0.546875
vt 0.171875 0.578125
vt 0.171875 0.46875
vt 0.1875 0.46875
vt 0.1875 0.578125
vt 0.078125 0.59375
vt 0.015625 0.59375
vt 0.015625 0.46875
vt 0.078125 0.46875
vt 0.171875 0.59375
vt 0.109375 0.59375
vt 0.109375 0.46875
vt 0.171875 0.46875
vt 0.1875 0.484375
vt 0.1875 0.5
vt 0.125 0.5
vt 0.125 0.484375
vt 0.171875 0.578125
vt 0.15625 0.578125
vt 0.15625 0.453125
vt 0.171875 0.453125
vt 0.15625 0.59375
vt 0.140625 0.59375
vt 0.140625 0.46875
vt 0.15625 0.46875
vt 0.296875 0.484375
vt 0.28125 0.484375
vt 0.28125 0.390625
vt 0.296875 0.390625
vt 0.375 0.484375
vt 0.359375 0.484375
vt 0.359375 0.390625
vt 0.375 0.390625
vt 0.375 0.46875
vt 0.28125 0.46875
vt 0.28125 0.484375
vt 0.375 0.484375
vt 0.375 0.40625
vt 0.28125 0.40625
vt 0.28125 0.390625
vt 0.375 0.390625
vt 0.28125 0.484375
vt 0.375 0.484375
vt 0.375 0.390625
vt 0.28125 0.390625
vt 0.625 1
vt 0.5 1
vt 0.5 0.875
vt 0.625 0.875
vt 0.625 1
vt 0.5 1
vt 0.5 0.875
vt 0.625 0.875
vt 0.5 0.75
vt 0.65625 0.75
vt 0.65625 0.875
vt 0.5 0.875
vt 0.5 0.875
vt 0.65625 0.875
vt 0.65625 0.75
vt 0.5 0.75
vt 0.5 0.875
vt 0.65625 0.875
vt 0.65625 0.75
vt 0.5 0.75
vt 0.65625 0.875
vt 0.5 0.875
vt 0.5 0.75
vt 0.65625 0.75
vt 0.296875 0.484375
vt 0.28125 0.484375
vt 0.28125 0.390625
vt 0.296875 0.390625
vt 0.375 0.484375
vt 0.359375 0.484375
vt 0.359375 0.390625
vt 0.375 0.390625
vt 0.375 0.46875
vt 0.28125 0.46875
vt 0.28125 0.484375
vt 0.375 0.484375
vt 0.375 0.40625
vt 0.28125 0.40625
vt 0.28125 0.390625
vt 0.375 0.390625
vt 0.375 0.484375
vt 0.28125 0.484375
vt 0.28125 0.390625
vt 0.375 0.390625
vt 0.0625 0.34375
vt 0.0625 0.359375
vt 0 0.359375
vt 0 0.34375
vt 0 0.484375
vt 0 0.5
vt 0.0625 0.5
vt 0.0625 0.484375
vt 0 0.359375
vt 0 0.34375
vt 0.0625 0.34375
vt 0.0625 0.359375
vt 0 0.5
vt 0 0.484375
vt 0.0625 0.484375
vt 0.0625 0.5
vt 0 0.4453125
vt 0 0.4921875
vt 0.0625 0.4921875
vt 0.0625 0.4453125
vt 0.25 0.4375
vt 0.25 0.375
vt 0.1875 0.375
vt 0.1875 0.421875
vt 0.0625 0.33088906250000005
vt 0 0.33088906250000005
vt 0 0.390625
vt 0.0625 0.390625
vt 0.0625 0.34375
vt 0 0.34375
vt 0 0.46875
vt 0.0625 0.46875
vt 0.0625 0.46875
vt 0.0625 0.34375
vt 0 0.34375
vt 0 0.46875
vt 0 0.484375
vt 0.0625 0.484375
vt 0.0625 0.359375
vt 0 0.359375
vt 0.25 0.375
vt 0.1875 0.375
vt 0.1875 0.4375
vt 0.25 0.4375
vt 0 0.5
vt 0.0625 0.5
vt 0.0625 0.4375
vt 0 0.4375
vt 0.1875 0.4375
vt 0.1875 0.375
vt 0.25 0.375
vt 0.25 0.4375
vt 0 0.328125
vt 0 0.34375
vt 0.0625 0.34375
vt 0.0625 0.328125
vt 0 0.375
vt 0.0625 0.375
vt 0.0625 0.359375
vt 0 0.359375
vt 0 0.46875
vt 0.0625 0.46875
vt 0.0625 0.453125
vt 0 0.453125
vt 0 0.359375
vt 0 0.375
vt 0.0625 0.375
vt 0.0625 0.359375
vt 0 0.390625
vt 0.0625 0.390625
vt 0.0625 0.34375
vt 0 0.34375
vt 0 0.5
vt 0.0625 0.5
vt 0.0625 0.43870156250000003
vt 0 0.43870156250000003
vt 0.1875 0.421875
vt 0.25 0.4375
vt 0.25 0.375
vt 0.1875 0.375
vt 0.25 0.375
vt 0.25 0.4375
vt 0.1875 0.421875
vt 0.1875 0.375
vt 0 0.328125
vt 0 0.375
vt 0.0625 0.375
vt 0.0625 0.328125
vt 0.0625 0.484375
vt 0.0625 0.4375
vt 0 0.4375
vt 0 0.484375
vt 0 0.328125
vt 0 0.375
vt 0.0625 0.375
vt 0.0625 0.328125
vt 0 0.34375
vt 0 0.390625
vt 0.0625 0.390625
vt 0.0625 0.34375
vt 0.0625 0.34375
vt 0.0625 0.359375
vt 0 0.359375
vt 0 0.34375
vt 0 0.484375
vt 0 0.5
vt 0.0625 0.5
vt 0.0625 0.484375
vt 0 0.359375
vt 0 0.34375
vt 0.0625 0.34375
vt 0.0625 0.359375
vt 0 0.5
vt 0 0.484375
vt 0.0625 0.484375
vt 0.0625 0.5
vt 0 0.4453125
vt 0 0.4921875
vt 0.0625 0.4921875
vt 0.0625 0.4453125
vt 0.25 0.4375
vt 0.25 0.375
vt 0.1875 0.375
vt 0.1875 0.421875
vt 0.1875 0.375
vt 0.25 0.375
vt 0.25 0.4375
vt 0.1875 0.421875
vt 0.0625 0.33088906250000005
vt 0 0.33088906250000005
vt 0 0.390625
vt 0.0625 0.390625
vt 0.0625 0.5
vt 0.0625 0.44182656249999996
vt 0 0.44182656249999996
vt 0 0.5
vt 0.25 0.375
vt 0.25 0.4375
vt 0.203125 0.4375
vt 0.1875 0.375
vt 0.203125 0.4375
vt 0.25 0.4375
vt 0.25 0.375
vt 0.1875 0.375
vt 0 0.3359375
vt 0 0.3828125
vt 0.0625 0.3828125
vt 0.0625 0.3359375
vt 0.0625 0.34375
vt 0 0.34375
vt 0 0.46875
vt 0.0625 0.46875
vt 0.0625 0.46875
vt 0.0625 0.34375
vt 0 0.34375
vt 0 0.46875
vt 0.0625 0.46875
vt 0.0625 0.34375
vt 0 0.34375
vt 0 0.46875
vt 0.0625 0.328125
vt 0 0.328125
vt 0 0.484375
vt 0.0625 0.484375
vt 0.0625 0.484375
vt 0.0625 0.328125
vt 0 0.328125
vt 0 0.484375
vt 0.0625 0.484375
vt 0.0625 0.328125
vt 0 0.328125
vt 0 0.484375
vt 0.0625 0.328125
vt 0 0.328125
vt 0 0.390625
vt 0.0625 0.390625
vt 0.1875 0.375
vt 0.1875 0.4375
vt 0.25 0.4375
vt 0.25 0.375
vt 0.1875 0.375
vt 0.1875 0.4375
vt 0.25 0.4375
vt 0.25 0.375
vt 0 0.328125
vt 0 0.390625
vt 0.0625 0.390625
vt 0.0625 0.328125
vt 0 0.484375
vt 0.0625 0.484375
vt 0.0625 0.45620625000000004
vt 0 0.45620625000000004
vt 0 0.36245625000000004
vt 0 0.390625
vt 0.0625 0.390625
vt 0.0625 0.36245625000000004
vt 0.0625 0.375
vt 0.0625 0.34375
vt 0 0.34375
vt 0 0.375
vt 0 0.375
vt 0.0625 0.375
vt 0.0625 0.34375
vt 0 0.34375
vt 0.0625 0.34375
vt 0.0625 0.359375
vt 0 0.359375
vt 0 0.34375
vt 0 0.484375
vt 0 0.5
vt 0.0625 0.5
vt 0.0625 0.484375
vt 0 0.359375
vt 0 0.34375
vt 0.0625 0.34375
vt 0.0625 0.359375
vt 0 0.5
vt 0 0.484375
vt 0.0625 0.484375
vt 0.0625 0.5
vt 0 0.25
vt 0 0.28125
vt 0.0625 0.28125
vt 0.0625 0.25
vt 0 0.359375
vt 0 0.390625
vt 0.0625 0.390625
vt 0.0625 0.359375
vt 0 0.484375
vt 0.0625 0.484375
vt 0.0625 0.453125
vt 0 0.453125
vt 0 0.375
vt 0.0625 0.375
vt 0.0625 0.34375
vt 0 0.34375
vt 0.375 0.71875
vt 0.359375 0.71875
vt 0.359375 0.546875
vt 0.375 0.546875
vt 0.375 0.71875
vt 0.25 0.71875
vt 0.25 0.546875
vt 0.375 0.546875
vt 0.375 0.71875
vt 0.25 0.71875
vt 0.25 0.546875
vt 0.375 0.546875
vt 0.359375 0.665403125
vt 0.359375 0.6875
vt 0.375 0.6875
vt 0.375 0.665403125
vt 0.359375 0.71875
vt 0.359375 0.703125
vt 0.25 0.703125
vt 0.25 0.71875
vt 0.25 0.71875
vt 0.359375 0.71875
vt 0.375 0.703125
vt 0.25 0.703125
vt 0.25 0.703125
vt 0.265625 0.71875
vt 0.375 0.71875
vt 0.375 0.703125
vt 0.296875 0.484375
vt 0.28125 0.484375
vt 0.28125 0.390625
vt 0.296875 0.390625
vt 0.375 0.484375
vt 0.359375 0.484375
vt 0.359375 0.390625
vt 0.375 0.390625
vt 0.375 0.46875
vt 0.28125 0.46875
vt 0.28125 0.484375
vt 0.375 0.484375
vt 0.375 0.40625
vt 0.28125 0.40625
vt 0.28125 0.390625
vt 0.375 0.390625
vt 0.375 0.484375
vt 0.28125 0.484375
vt 0.28125 0.390625
vt 0.375 0.390625
vt 0.5 0.9375
vt 0.25 0.9375
vt 0.25 0.75
vt 0.5 0.75
vt 0.5 0.9375
vt 0.25 0.9375
vt 0.25 0.75
vt 0.5 0.75
vt 0.5 0
vt 0.75 0
vt 0.75 0.25
vt 0.5 0.25
vt 0.5 0.9375
vt 0.25 0.9375
vt 0.25 0.75
vt 0.5 0.75
vt 0.25 0.9375
vt 0 0.9375
vt 0 0.75
vt 0.25 0.75
vt 0.828125 0.265625
vt 0.734375 0.265625
vt 0.734375 0.25
vt 0.828125 0.25
vt 0.6875 0.734375
vt 0.59375 0.734375
vt 0.59375 0.71875
vt 0.6875 0.71875
vt 0.59375 0.640625
vt 0.6875 0.640625
vt 0.6875 0.734375
vt 0.59375 0.734375
vt 0.6875 0.734375
vt 0.59375 0.734375
vt 0.59375 0.71875
vt 0.6875 0.71875
vt 0.6875 0.65625
vt 0.59375 0.65625
vt 0.59375 0.640625
vt 0.6875 0.640625
vt 0.546875 0.5625
vt 0.484375 0.5625
vt 0.484375 0.546875
vt 0.546875 0.546875
vt 0.640625 0.5625
vt 0.578125 0.5625
vt 0.578125 0.546875
vt 0.640625 0.546875
vt 0.515625 0.5625
vt 0.578125 0.5625
vt 0.578125 0.625
vt 0.515625 0.625
vt 0.5625 0.5625
vt 0.5 0.5625
vt 0.5 0.546875
vt 0.5625 0.546875
vt 0.484375 0.5625
vt 0.421875 0.5625
vt 0.421875 0.546875
vt 0.484375 0.546875
vt 0.25 0.703125
vt 0.21875 0.703125
vt 0.21875 0.625
vt 0.25 0.625
vt 0.25 0.703125
vt 0.21875 0.703125
vt 0.21875 0.625
vt 0.25 0.625
vt 0.21875 0.671875
vt 0.25 0.671875
vt 0.25 0.703125
vt 0.21875 0.703125
vt 0.203125 0.234375
vt 0.234375 0.234375
vt 0.234375 0.203125
vt 0.203125 0.203125
vt 0.25 0.703125
vt 0.21875 0.703125
vt 0.21875 0.625
vt 0.25 0.625
vt 0.25 0.703125
vt 0.21875 0.703125
vt 0.21875 0.625
vt 0.25 0.625
vt 0.09375 0.6875
vt 0.046875 0.6875
vt 0.046875 0.625
vt 0.09375 0.625
vt 0.125 0.734375
vt 0.078125 0.734375
vt 0.078125 0.671875
vt 0.125 0.671875
vt 0.15625 0.71875
vt 0.109375 0.71875
vt 0.109375 0.65625
vt 0.15625 0.65625
vt 0.171875 0.703125
vt 0.125 0.703125
vt 0.125 0.640625
vt 0.171875 0.640625
vt 0.109375 0.671875
vt 0.109375 0.734375
vt 0.171875 0.734375
vt 0.171875 0.671875
vt 0.109375 0.71875
vt 0.171875 0.71875
vt 0.171875 0.65625
vt 0.109375 0.65625
vt 0.171875 0.703125
vt 0.171875 0.640625
vt 0.109375 0.640625
vt 0.109375 0.703125
vt 0 0.75
vt 0.0625 0.75
vt 0.0625 0.6875
vt 0 0.6875
vt 0.109375 0.703125
vt 0.171875 0.703125
vt 0.171875 0.640625
vt 0.109375 0.640625
vt 0.109375 0.6544062500000001
vt 0.1171875 0.671875
vt 0.1484375 0.671875
vt 0.15625 0.6544062500000001
vt 0.5 0.125
vt 0.515625 0.125
vt 0.515625 0.078125
vt 0.5 0.078125
vt 0.625 0.125
vt 0.5 0.125
vt 0.5 0.109375
vt 0.625 0.109375
vt 0.5 0.09375
vt 0.625 0.09375
vt 0.625 0.078125
vt 0.5 0.078125
vt 0.5 0.125
vt 0.625 0.125
vt 0.625 0.078125
vt 0.5 0.078125
vt 0.609375 0.125
vt 0.625 0.125
vt 0.625 0.078125
vt 0.609375 0.078125
vt 0.5 0.125
vt 0.625 0.125
vt 0.625 0.078125
vt 0.5 0.078125
vt 0.625 0.125
vt 0.640625 0.125
vt 0.640625 0.078125
vt 0.625 0.078125
vt 0.734375 0.125
vt 0.75 0.125
vt 0.75 0.078125
vt 0.734375 0.078125
vt 0.75 0.125
vt 0.625 0.125
vt 0.625 0.109375
vt 0.75 0.109375
vt 0.625 0.09375
vt 0.75 0.09375
vt 0.75 0.078125
vt 0.625 0.078125
vt 0.625 0.125
vt 0.75 0.125
vt 0.75 0.078125
vt 0.625 0.078125
vt 0.625 0.125
vt 0.75 0.125
vt 0.75 0.078125
vt 0.625 0.078125
vt 0.625 0.9375
vt 0.375 0.9375
vt 0.375 0.6875
vt 0.625 0.6875
vt 0.375 0.9375
vt 0.375 0.6875
vt 0.625 0.6875
vt 0.625 0.9375
vt 0.625 0.9375
vt 0.625 0.6875
vt 0.375 0.6875
vt 0.375 0.9375
vt 0.375 0.9375
vt 0.375 0.6875
vt 0.625 0.6875
vt 0.625 0.9375
vt 0.875 0.6875
vt 0.625 0.6875
vt 0.625 0.9375
vt 0.875 0.9375
vt 0.875 0
vt 0.875 0.125
vt 1 0.125
vt 1 0
vt 0.3125 0.5625
vt 0.3125 0.6875
vt 0.6875 0.6875
vt 0.6875 0.5625
vt 0.3125 0.5625
vt 0.3125 0.6875
vt 0.6875 0.6875
vt 0.6875 0.5625
vt 0.3125 0.5625
vt 0.3125 0.6875
vt 0.6875 0.6875
vt 0.6875 0.5625
vt 0.3125 0.5625
vt 0.3125 0.6875
vt 0.6875 0.6875
vt 0.6875 0.5625
vt 0.6875 0.5
vt 0.6875 0.375
vt 0.3125 0.375
vt 0.3125 0.5
vt 0.3125 0.375
vt 0.3125 0.5
vt 0.6875 0.5
vt 0.6875 0.375
vt 0.3125 0.375
vt 0.3125 0.5
vt 0.6875 0.5
vt 0.6875 0.375
vt 0.3125 0.375
vt 0.3125 0.5
vt 0.6875 0.5
vt 0.6875 0.375
vt 0.5625 0.125
vt 0.6875 0
vt 0.3125 0
vt 0.4375 0.125
vt 0.4375 0.125
vt 0.3125 0
vt 0.3125 0.375
vt 0.4375 0.25
vt 0.5625 0.25
vt 0.6875 0.375
vt 0.6875 0
vt 0.5625 0.125
vt 0.4375 0.25
vt 0.3125 0.375
vt 0.6875 0.375
vt 0.5625 0.25
vt 0.3125 0.375
vt 0.6875 0.375
vt 0.6875 0
vt 0.3125 0
vt 0.3125 0.375
vt 0.6875 0.375
vt 0.6875 0
vt 0.3125 0
vt 0.6875 0
vt 0.3125 0
vt 0.3125 0.375
vt 0.6875 0.375
vt 0.375 0.5
vt 0.375 0.5625
vt 0.625 0.5625
vt 0.625 0.5
vt 0.625 0.5625
vt 0.625 0.5
vt 0.375 0.5
vt 0.375 0.5625
vt 0.375 0.5
vt 0.375 0.5625
vt 0.625 0.5625
vt 0.625 0.5
vt 0.625 0.5625
vt 0.625 0.5
vt 0.375 0.5
vt 0.375 0.5625
vt 0 0.484375
vt 0.0625 0.484375
vt 0.0625 0.359375
vt 0 0.359375
vt 0 0.96875
vt 0.03125 0.96875
vt 0.03125 0.84375
vt 0 0.84375
vt 0 0.96875
vt 0.03125 0.96875
vt 0.03125 0.84375
vt 0 0.84375
vt 0.03125 0.96875
vt 0 0.96875
vt 0 0.84375
vt 0.03125 0.84375
vt 0.03125 0.96875
vt 0 0.96875
vt 0 0.84375
vt 0.03125 0.84375
vt 0.125 1
vt 0.125 0.96875
vt 0.09375 0.96875
vt 0.09375 1
vt 0.046875 1
vt 0.046875 0.96875
vt 0.03125 0.96875
vt 0.03125 1
vt 0.015625 0.96875
vt 0.015625 1
vt 0 1
vt 0 0.96875
vt 0.03125 0.953125
vt 0.03125 0.921875
vt 0.015625 0.921875
vt 0.015625 0.953125
vt 0.140625 1
vt 0.140625 0.96875
vt 0.03125 0.96875
vt 0.03125 1
vt 0.171875 1
vt 0.171875 0.96875
vt 0.28125 0.96875
vt 0.28125 1
vt 0.015625 1
vt 0.015625 0.96875
vt 0.125 0.96875
vt 0.125 1
vt 0.046875 0.96875
vt 0.046875 1
vt 0.15625 1
vt 0.15625 0.96875
vt 0.125 1
vt 0.125 0.96875
vt 0.09375 0.96875
vt 0.09375 1
vt 0.046875 1
vt 0.046875 0.96875
vt 0.03125 0.96875
vt 0.03125 1
vt 0.015625 0.96875
vt 0.015625 1
vt 0 1
vt 0 0.96875
vt 0.03125 0.953125
vt 0.03125 0.921875
vt 0.015625 0.921875
vt 0.015625 0.953125
vt 0.0625 1
vt 0.0625 0.96875
vt 0.171875 0.96875
vt 0.171875 1
vt 0.171875 1
vt 0.171875 0.96875
vt 0.28125 0.96875
vt 0.28125 1
vt 0.015625 1
vt 0.015625 0.96875
vt 0.125 0.96875
vt 0.125 1
vt 0.046875 0.96875
vt 0.046875 1
vt 0.15625 1
vt 0.15625 0.96875
vt 0 0.96875
vt 0.03125 0.96875
vt 0.03125 0.84375
vt 0 0.84375
vt 0 0.96875
vt 0.03125 0.96875
vt 0.03125 0.84375
vt 0 0.84375
vt 0.03125 0.96875
vt 0 0.96875
vt 0 0.84375
vt 0.03125 0.84375
vt 0.03125 0.96875
vt 0 0.96875
vt 0 0.84375
vt 0.03125 0.84375
vn -1 0 0
vn 0 1 0
vn 0 -1 0
vn 0 0 1
vn 0 0 -1
vn -1 0 0
vn 1 0 0
vn 0 1 0
vn 0 -1 0
vn 0 0 1
vn 0 0 -1
vn -1 0 0
vn 1 0 0
vn 0 1 0
vn 0 -1 0
vn -1 0 0
vn 1 0 0
vn 0 1 0
vn 0 -1 0
vn -1 0 0
vn 1 0 0
vn 0 1 0
vn 0 -1 0
vn 0 0 1
vn 0 0 -1
vn 1 0 0
vn 0 1 0
vn 0 -1 0
vn 0 0 1
vn 1 0 0
vn 0 1 0
vn 0 -1 0
vn 0 0 -1
vn 0 1 0
vn 0 -1 0
vn 0 0 -1
vn -1 0 0
vn 0 1 0
vn 0 -1 0
vn -1 0 0
vn 0 0 1
vn -1 0 0
vn 1 0 0
vn 0 1 0
vn 0 0 1
vn 0 0 -1
vn 0 1 0
vn 0 0 -1
vn 0 0 1
vn -1 0 0
vn 1 0 0
vn 0 1 0
vn 0 -1 0
vn 0 0 1
vn 0 0 -1
vn -1 0 0
vn 1 0 0
vn 0 1 0
vn 0 -1 0
vn 0 0 -1
vn -1 0 0
vn 1 0 0
vn 0 0 1
vn 0 0 -1
vn -1 0 0
vn 1 0 0
vn 0 0 1
vn 0 0 -1
vn -1 0 0
vn 1 0 0
vn 0 1 0
vn 0 0 1
vn 0 0 -1
vn -1 0 0
vn 0 1 0
vn 0 0 1
vn 0 0 -1
vn -1 0 0
vn 1 0 0
vn 0 1 0
vn 0 0 1
vn 0 0 -1
vn 0 0 1
vn 0 0 -1
vn 0 1 0
vn 0 -1 0
vn -1 0 0
vn -1 0 0
vn 1 0 0
vn 0 1 0
vn 0 -1 0
vn 0 0 1
vn 0 0 -1
vn 0 0 1
vn 0 0 -1
vn 0 1 0
vn 0 -1 0
vn 1 0 0
vn 0 1 0
vn 0 -1 0
vn 0 0 1
vn 0 0 -1
vn 1 0 0
vn 0 1 0
vn 0.24253562503633297 0 -0.9701425001453319
vn 0 1 0
vn -1 0 0
vn 1 0 0
vn 1 0 0
vn 0 0 1
vn -1 0 0
vn -1 0 0
vn 1 0 0
vn 0 0 1
vn 0 0 -1
vn 1 0 0
vn 0.24253562503633297 0.9701425001453319 0
vn 0 0 1
vn 0 0 -1
vn 0 1 0
vn 0 -1 0
vn 0 0 1
vn 0 0 -1
vn 0 1 0
vn 0 -1 0
vn 0 0 1
vn 0 0 -1
vn 1 0 0
vn 0 1 0
vn 0 -1 0
vn 0.24253562503633297 0 -0.9701425001453319
vn 0.9701425001453319 0 0.24253562503633297
vn 0 1 0
vn 0 -1 0
vn 0 0 1
vn 0 1 0
vn 0 -1 0
vn 0 0 1
vn 0 1 0
vn 0 -1 0
vn 0 0 1
vn -1 0 0
vn 0 1 0
vn 0 -1 0
vn 0 0 1
vn 0.5547001962252291 0.8320502943378437 0
vn -0.5547001962252291 -0.8320502943378437 0
vn 0 0 1
vn 0 0 -1
vn 0 1 0
vn 0 -1 0
vn -1 0 0
vn 1 0 0
vn -1 0 0
vn 1 0 0
vn 0 1 0
vn 0 -1 0
vn -1 0 0
vn 0 0 1
vn 0 0 -1
vn -0.7071067811865476 0.7071067811865476 0
vn 0 1 0
vn 0 0 1
vn 0 0 -1
vn -1 0 0
vn 1 0 0
vn 0 1 0
vn 0 -1 0
vn 0 0 1
vn -1 0 0
vn 1 0 0
vn 0 1 0
vn 0 0 1
vn 0 0 -1
vn -1 0 0
vn 1 0 0
vn 0 1 0
vn 0 0 1
vn 0 0 -1
vn -1 0 0
vn 1 0 0
vn 0 1 0
vn 0 0 1
vn 0 0 -1
vn -1 0 0
vn 1 0 0
vn 0 1 0
vn 0 -1 0
vn 0 0 1
vn 0 0 -1
vn -1 0 0
vn 1 0 0
vn 0 0 1
vn 0 0 -1
vn -0.8944271909999161 0.44721359549995804 0
vn 0.8944271909999161 0.44721359549995804 0
vn 0 1 0
vn 0 -1 0
vn 0 0.44721359549995804 0.8944271909999161
vn 0 0.44721359549995804 -0.8944271909999161
vn -1 0 0
vn 0 1 0
vn 0 -1 0
vn 0 0 -1
vn 1 0 0
vn 0 0 1
vn -1 0 0
vn 1 0 0
vn 0 1 0
vn 0 -1 0
vn 0 0 1
vn 0 0 -1
vn 1 0 0
vn 0 1 0
vn -1 0 0
vn 0 -1 0
vn 0 0 1
vn 0 0 -1
vn 1 0 0
vn 0 1 0
vn -1 0 0
vn 0 -1 0
vn 1 0 0
vn -1 0 0
vn 0 -1 0
vn 0 1 0
vn 0 0 -1
vn 0 0 -1
vn 0 0 -1
vn 0 0 -1
vn 0 0 1
vn 0 0 -1
vn 0 0 1
vn -1 0 0
vn 1 0 0
vn 0 -1 0
vn 0 1 0
vn 0 0 -1
vn -1 0 0
vn 1 0 0
vn 0 0 1
vn 0 0 -1
vn -1 0 0
vn 0 1 0
vn 0 0 1
vn 0 0 -1
vn 0 0 -1
vn 0 -1 0
vn 0 0 1
vn 0 1 0
vn -1 0 0
vn 0 1 0
vn 0 0 1
vn 0 0 -1
vn 0 0 -1
vn 0 -1 0
vn 0 0 1
vn 0 1 0
vn -1 0 0
vn 1 0 0
vn 0 0 1
vn 0 0 -1
usemtl redstone_interface
f 1/1/1 2/2/1 4/3/1
f 1/1/1 4/3/1 3/4/1
f 335/5/2 332/6/2 2/7/2
f 335/5/2 2/7/2 1/8/2
f 333/9/3 334/10/3 3/11/3
f 333/9/3 3/11/3 4/12/3
f 334/13/4 335/14/4 1/15/4
f 334/13/4 1/15/4 3/16/4
f 332/17/5 333/18/5 4/19/5
f 332/17/5 4/19/5 2/20/5
usemtl common_steel_norivets
f 5/21/6 6/22/6 8/23/6
f 5/21/6 8/23/6 7/24/6
f 10/25/7 9/26/7 11/27/7
f 10/25/7 11/27/7 12/28/7
f 10/29/8 6/30/8 5/31/8
f 10/29/8 5/31/8 9/32/8
f 11/33/9 7/34/9 8/35/9
f 11/33/9 8/35/9 12/36/9
f 9/37/10 5/38/10 7/39/10
f 9/37/10 7/39/10 11/40/10
f 6/41/11 10/42/11 12/43/11
f 6/41/11 12/43/11 8/44/11
usemtl common_thingies
f 13/45/12 14/46/12 16/47/12
f 13/45/12 16/47/12 15/48/12
f 18/49/13 17/50/13 19/51/13
f 18/49/13 19/51/13 20/52/13
f 18/53/14 14/54/14 13/55/14
f 18/53/14 13/55/14 17/56/14
f 19/57/15 15/58/15 16/59/15
f 19/57/15 16/59/15 20/60/15
f 21/61/16 22/62/16 24/63/16
f 21/61/16 24/63/16 23/64/16
f 26/65/17 25/66/17 27/67/17
f 26/65/17 27/67/17 28/68/17
f 26/69/18 22/70/18 21/71/18
f 26/69/18 21/71/18 25/72/18
f 27/73/19 23/74/19 24/75/19
f 27/73/19 24/75/19 28/76/19
f 29/77/20 30/78/20 32/79/20
f 29/77/20 32/79/20 31/80/20
f 34/81/21 33/82/21 35/83/21
f 34/81/21 35/83/21 36/84/21
f 34/85/22 30/86/22 29/87/22
f 34/85/22 29/87/22 33/88/22
f 35/89/23 31/90/23 32/91/23
f 35/89/23 32/91/23 36/92/23
f 33/93/24 29/94/24 31/95/24
f 33/93/24 31/95/24 35/96/24
f 30/97/25 34/98/25 36/99/25
f 30/97/25 36/99/25 32/100/25
usemtl redstone_interface
f 42/101/26 41/102/26 43/103/26
f 42/101/26 43/103/26 44/104/26
usemtl common_wood_and_steel
f 42/105/27 38/106/27 37/107/27
f 42/105/27 37/107/27 41/108/27
usemtl common_steel
f 43/109/28 39/110/28 40/111/28
f 43/109/28 40/111/28 44/112/28
usemtl redstone_interface
f 41/113/29 37/114/29 39/115/29
f 41/113/29 39/115/29 43/116/29
f 47/117/30 42/118/30 44/119/30
f 47/117/30 44/119/30 48/120/30
usemtl common_wood_and_steel
f 47/121/31 45/122/31 38/123/31
f 47/121/31 38/123/31 42/124/31
usemtl common_steel
f 44/125/32 40/126/32 46/127/32
f 44/125/32 46/127/32 48/128/32
usemtl redstone_interface
f 45/129/33 47/130/33 48/131/33
f 45/129/33 48/131/33 46/132/33
usemtl common_wood_and_steel
f 45/133/34 50/134/34 49/135/34
f 45/133/34 49/135/34 38/136/34
usemtl common_steel
f 40/137/35 51/138/35 52/139/35
f 40/137/35 52/139/35 46/140/35
usemtl redstone_interface
f 50/141/36 45/142/36 46/143/36
f 50/141/36 46/143/36 52/144/36
f 49/145/37 50/146/37 52/147/37
f 49/145/37 52/147/37 51/148/37
usemtl common_wood_and_steel
f 38/149/38 49/150/38 53/151/38
f 38/149/38 53/151/38 37/152/38
usemtl common_steel
f 39/153/39 54/154/39 51/155/39
f 39/153/39 51/155/39 40/156/39
usemtl redstone_interface
f 53/157/40 49/158/40 51/159/40
f 53/157/40 51/159/40 54/160/40
f 37/161/41 53/162/41 54/163/41
f 37/161/41 54/163/41 39/164/41
usemtl common_steel_norivets
f 55/165/42 56/166/42 58/167/42
f 55/165/42 58/167/42 57/168/42
f 60/169/43 59/170/43 61/171/43
f 60/169/43 61/171/43 62/172/43
f 63/173/44 64/174/44 56/175/44
f 63/173/44 56/175/44 55/176/44
f 66/177/45 63/178/45 55/179/45
f 66/177/45 55/179/45 57/180/45
f 64/181/46 65/182/46 58/183/46
f 64/181/46 58/183/46 56/184/46
f 64/185/47 63/186/47 59/187/47
f 64/185/47 59/187/47 60/188/47
f 65/189/48 64/190/48 60/191/48
f 65/189/48 60/191/48 62/192/48
f 63/193/49 66/194/49 61/195/49
f 63/193/49 61/195/49 59/196/49
usemtl common_thingies
f 67/197/50 68/198/50 70/199/50
f 67/197/50 70/199/50 69/200/50
f 72/201/51 71/202/51 73/203/51
f 72/201/51 73/203/51 74/204/51
f 72/205/52 68/206/52 67/207/52
f 72/205/52 67/207/52 71/208/52
f 73/209/53 69/210/53 70/211/53
f 73/209/53 70/211/53 74/212/53
f 71/213/54 67/214/54 69/215/54
f 71/213/54 69/215/54 73/216/54
f 68/217/55 72/218/55 74/219/55
f 68/217/55 74/219/55 70/220/55
usemtl redstone_interface
f 75/221/56 76/222/56 78/223/56
f 75/221/56 78/223/56 77/224/56
f 80/225/57 79/226/57 81/227/57
f 80/225/57 81/227/57 82/228/57
f 80/229/58 76/230/58 75/231/58
f 80/229/58 75/231/58 79/232/58
f 81/233/59 77/234/59 78/235/59
f 81/233/59 78/235/59 82/236/59
f 76/237/60 80/238/60 82/239/60
f 76/237/60 82/239/60 78/240/60
usemtl common_steel_norivets
f 83/241/61 84/242/61 86/243/61
f 83/241/61 86/243/61 85/244/61
f 88/245/62 87/246/62 89/247/62
f 88/245/62 89/247/62 90/248/62
f 87/249/63 83/250/63 85/251/63
f 87/249/63 85/251/63 89/252/63
f 84/253/64 88/254/64 90/255/64
f 84/253/64 90/255/64 86/256/64
f 91/257/65 92/258/65 94/259/65
f 91/257/65 94/259/65 93/260/65
f 96/261/66 95/262/66 97/263/66
f 96/261/66 97/263/66 98/264/66
f 95/265/67 91/266/67 93/267/67
f 95/265/67 93/267/67 97/268/67
f 92/269/68 96/270/68 98/271/68
f 92/269/68 98/271/68 94/272/68
usemtl redstone_interface
f 99/273/69 100/274/69 102/275/69
f 99/273/69 102/275/69 101/276/69
f 104/277/70 103/278/70 105/279/70
f 104/277/70 105/279/70 106/280/70
f 104/281/71 100/282/71 99/283/71
f 104/281/71 99/283/71 103/284/71
f 103/285/72 99/286/72 101/287/72
f 103/285/72 101/287/72 105/288/72
f 100/289/73 104/290/73 106/291/73
f 100/289/73 106/291/73 102/292/73
f 107/293/74 108/294/74 109/295/74
f 107/293/74 109/295/74 102/296/74
f 111/297/75 108/298/75 107/299/75
f 111/297/75 107/299/75 110/300/75
f 110/301/76 107/302/76 102/303/76
f 110/301/76 102/303/76 112/304/76
f 108/305/77 111/306/77 113/307/77
f 108/305/77 113/307/77 109/308/77
f 114/309/78 115/310/78 113/311/78
f 114/309/78 113/311/78 112/312/78
f 117/313/79 116/314/79 118/315/79
f 117/313/79 118/315/79 119/316/79
f 117/317/80 115/318/80 114/319/80
f 117/317/80 114/319/80 116/320/80
f 116/321/81 114/322/81 112/323/81
f 116/321/81 112/323/81 118/324/81
f 115/325/82 117/326/82 119/327/82
f 115/325/82 119/327/82 113/328/82
usemtl common_thingies
f 120/329/83 121/330/83 123/331/83
f 120/329/83 123/331/83 122/332/83
f 125/333/84 124/334/84 126/335/84
f 125/333/84 126/335/84 127/336/84
f 125/337/85 121/338/85 120/339/85
f 125/337/85 120/339/85 124/340/85
f 126/341/86 122/342/86 123/343/86
f 126/341/86 123/343/86 127/344/86
f 121/345/87 125/346/87 127/347/87
f 121/345/87 127/347/87 123/348/87
usemtl redstone_interface
f 128/349/88 129/350/88 131/351/88
f 128/349/88 131/351/88 130/352/88
f 133/353/89 132/354/89 134/355/89
f 133/353/89 134/355/89 135/356/89
f 133/357/90 129/358/90 128/359/90
f 133/357/90 128/359/90 132/360/90
f 134/361/91 130/362/91 131/363/91
f 134/361/91 131/363/91 135/364/91
f 132/365/92 128/366/92 130/367/92
f 132/365/92 130/367/92 134/368/92
f 129/369/93 133/370/93 135/371/93
f 129/369/93 135/371/93 131/372/93
usemtl common_thingies
f 136/373/94 137/374/94 139/375/94
f 136/373/94 139/375/94 138/376/94
f 141/377/95 140/378/95 142/379/95
f 141/377/95 142/379/95 143/380/95
f 141/381/96 137/382/96 136/383/96
f 141/381/96 136/383/96 140/384/96
f 142/385/97 138/386/97 139/387/97
f 142/385/97 139/387/97 143/388/97
f 140/389/98 136/390/98 138/391/98
f 140/389/98 138/391/98 142/392/98
usemtl common_cable_and_pipe
f 149/393/99 145/394/99 144/395/99
f 149/393/99 144/395/99 148/396/99
f 150/397/100 146/398/100 147/399/100
f 150/397/100 147/399/100 151/400/100
f 148/401/101 144/402/101 146/403/101
f 148/401/101 146/403/101 150/404/101
f 145/405/102 149/406/102 151/407/102
f 145/405/102 151/407/102 147/408/102
f 153/409/103 152/410/103 154/411/103
f 153/409/103 154/411/103 155/412/103
f 149/413/104 148/414/104 152/415/104
f 149/413/104 152/415/104 153/416/104
f 151/417/105 149/418/105 153/419/105
f 151/417/105 153/419/105 155/420/105
f 152/421/106 148/422/106 156/423/106
f 152/421/106 156/423/106 157/424/106
f 156/425/107 148/426/107 150/427/107
f 156/425/107 150/427/107 158/428/107
f 154/429/108 152/430/108 157/431/108
f 154/429/108 157/431/108 159/432/108
f 157/433/109 162/434/109 163/435/109
f 157/433/109 163/435/109 159/436/109
f 162/437/110 160/438/110 161/439/110
f 162/437/110 161/439/110 163/440/110
f 161/441/111 160/442/111 156/443/111
f 161/441/111 156/443/111 158/444/111
f 160/445/112 164/446/112 165/447/112
f 160/445/112 165/447/112 156/448/112
f 167/449/113 166/450/113 162/451/113
f 167/449/113 162/451/113 157/452/113
f 166/453/114 164/454/114 160/455/114
f 166/453/114 160/455/114 162/456/114
f 156/457/115 165/458/115 167/459/115
f 156/457/115 167/459/115 157/460/115
f 171/461/116 170/462/116 166/463/116
f 171/461/116 166/463/116 167/464/116
f 169/465/117 168/466/117 170/467/117
f 169/465/117 170/467/117 171/468/117
f 170/469/118 168/470/118 164/471/118
f 170/469/118 164/471/118 166/472/118
f 165/473/119 169/474/119 171/475/119
f 165/473/119 171/475/119 167/476/119
f 169/477/120 173/478/120 172/479/120
f 169/477/120 172/479/120 168/480/120
f 164/481/121 174/482/121 175/483/121
f 164/481/121 175/483/121 165/484/121
f 168/485/122 172/486/122 174/487/122
f 168/485/122 174/487/122 164/488/122
f 173/489/123 169/490/123 165/491/123
f 173/489/123 165/491/123 175/492/123
f 181/493/124 177/494/124 176/495/124
f 181/493/124 176/495/124 180/496/124
f 182/497/125 178/498/125 179/499/125
f 182/497/125 179/499/125 183/500/125
f 180/501/126 176/502/126 178/503/126
f 180/501/126 178/503/126 182/504/126
f 177/505/127 181/506/127 183/507/127
f 177/505/127 183/507/127 179/508/127
f 185/509/128 184/510/128 186/511/128
f 185/509/128 186/511/128 187/512/128
f 181/513/129 180/514/129 184/515/129
f 181/513/129 184/515/129 185/516/129
f 186/517/130 182/518/130 183/519/130
f 186/517/130 183/519/130 187/520/130
f 183/521/131 181/522/131 185/523/131
f 183/521/131 185/523/131 187/524/131
f 193/525/132 192/526/132 194/527/132
f 193/525/132 194/527/132 195/528/132
f 189/529/133 188/530/133 192/531/133
f 189/529/133 192/531/133 193/532/133
f 194/533/134 190/534/134 191/535/134
f 194/533/134 191/535/134 195/536/134
f 192/537/135 188/538/135 190/539/135
f 192/537/135 190/539/135 194/540/135
f 197/541/136 196/542/136 188/543/136
f 197/541/136 188/543/136 189/544/136
f 190/545/137 198/546/137 199/547/137
f 190/545/137 199/547/137 191/548/137
f 188/549/138 196/550/138 198/551/138
f 188/549/138 198/551/138 190/552/138
f 201/553/139 200/554/139 196/555/139
f 201/553/139 196/555/139 197/556/139
f 198/557/140 202/558/140 203/559/140
f 198/557/140 203/559/140 199/560/140
f 196/561/141 200/562/141 202/563/141
f 196/561/141 202/563/141 198/564/141
f 206/565/142 204/566/142 205/567/142
f 206/565/142 205/567/142 207/568/142
f 205/569/143 204/570/143 208/571/143
f 205/569/143 208/571/143 209/572/143
f 210/573/144 206/574/144 207/575/144
f 210/573/144 207/575/144 211/576/144
f 208/577/145 204/578/145 206/579/145
f 208/577/145 206/579/145 210/580/145
f 209/581/146 208/582/146 200/583/146
f 209/581/146 200/583/146 201/584/146
f 202/585/147 210/586/147 211/587/147
f 202/585/147 211/587/147 203/588/147
f 200/589/148 208/590/148 210/591/148
f 200/589/148 210/591/148 202/592/148
f 211/593/149 209/594/149 201/595/149
f 211/593/149 201/595/149 203/596/149
f 209/597/150 213/598/150 212/599/150
f 209/597/150 212/599/150 205/600/150
f 207/601/151 214/602/151 215/603/151
f 207/601/151 215/603/151 211/604/151
f 205/605/152 212/606/152 214/607/152
f 205/605/152 214/607/152 207/608/152
f 213/609/153 209/610/153 211/611/153
f 213/609/153 211/611/153 215/612/153
f 189/613/154 180/614/154 182/615/154
f 189/613/154 182/615/154 191/616/154
f 184/617/155 193/618/155 195/619/155
f 184/617/155 195/619/155 186/620/155
f 184/621/156 180/622/156 189/623/156
f 184/621/156 189/623/156 193/624/156
f 195/625/157 191/626/157 182/627/157
f 195/625/157 182/627/157 186/628/157
usemtl redstone_interface
f 216/629/158 217/630/158 219/631/158
f 216/629/158 219/631/158 218/632/158
f 220/633/159 216/634/159 218/635/159
f 220/633/159 218/635/159 222/636/159
f 217/637/160 221/638/160 223/639/160
f 217/637/160 223/639/160 219/640/160
f 216/641/161 224/642/161 225/643/161
f 216/641/161 225/643/161 217/644/161
f 225/645/162 224/646/162 226/647/162
f 225/645/162 226/647/162 227/648/162
f 226/649/163 224/650/163 216/651/163
f 226/649/163 216/651/163 220/652/163
f 217/653/164 225/654/164 227/655/164
f 217/653/164 227/655/164 221/656/164
usemtl common_thingies
f 228/657/165 229/658/165 231/659/165
f 228/657/165 231/659/165 230/660/165
f 233/661/166 232/662/166 234/663/166
f 233/661/166 234/663/166 235/664/166
f 233/665/167 229/666/167 228/667/167
f 233/665/167 228/667/167 232/668/167
f 234/669/168 230/670/168 231/671/168
f 234/669/168 231/671/168 235/672/168
f 232/673/169 228/674/169 230/675/169
f 232/673/169 230/675/169 234/676/169
usemtl redstone_interface
f 236/677/170 237/678/170 239/679/170
f 236/677/170 239/679/170 238/680/170
f 241/681/171 240/682/171 242/683/171
f 241/681/171 242/683/171 243/684/171
usemtl common_steel
f 241/685/172 237/686/172 236/687/172
f 241/685/172 236/687/172 240/688/172
usemtl redstone_interface
f 240/689/173 236/690/173 238/691/173
f 240/689/173 238/691/173 242/692/173
f 237/693/174 241/694/174 243/695/174
f 237/693/174 243/695/174 239/696/174
f 244/697/175 245/698/175 247/699/175
f 244/697/175 247/699/175 246/700/175
f 249/701/176 248/702/176 250/703/176
f 249/701/176 250/703/176 251/704/176
f 249/705/177 245/706/177 244/707/177
f 249/705/177 244/707/177 248/708/177
f 248/709/178 244/710/178 246/711/178
f 248/709/178 246/711/178 250/712/178
f 245/713/179 249/714/179 251/715/179
f 245/713/179 251/715/179 247/716/179
f 252/717/180 253/718/180 255/719/180
f 252/717/180 255/719/180 254/720/180
f 257/721/181 256/722/181 258/723/181
f 257/721/181 258/723/181 259/724/181
f 257/725/182 253/726/182 252/727/182
f 257/725/182 252/727/182 256/728/182
f 256/729/183 252/730/183 254/731/183
f 256/729/183 254/731/183 258/732/183
f 253/733/184 257/734/184 259/735/184
f 253/733/184 259/735/184 255/736/184
f 260/737/185 261/738/185 263/739/185
f 260/737/185 263/739/185 262/740/185
f 265/741/186 264/742/186 266/743/186
f 265/741/186 266/743/186 267/744/186
f 265/745/187 261/746/187 260/747/187
f 265/745/187 260/747/187 264/748/187
f 266/749/188 262/750/188 263/751/188
f 266/749/188 263/751/188 267/752/188
f 264/753/189 260/754/189 262/755/189
f 264/753/189 262/755/189 266/756/189
f 261/757/190 265/758/190 267/759/190
f 261/757/190 267/759/190 263/760/190
f 268/761/191 269/762/191 271/763/191
f 268/761/191 271/763/191 270/764/191
f 273/765/192 272/766/192 274/767/192
f 273/765/192 274/767/192 275/768/192
f 272/769/193 268/770/193 270/771/193
f 272/769/193 270/771/193 274/772/193
f 269/773/194 273/774/194 275/775/194
f 269/773/194 275/775/194 271/776/194
f 268/777/195 276/778/195 277/779/195
f 268/777/195 277/779/195 269/780/195
f 279/781/196 278/782/196 272/783/196
f 279/781/196 272/783/196 273/784/196
f 277/785/197 276/786/197 278/787/197
f 277/785/197 278/787/197 279/788/197
f 272/789/198 268/790/198 269/791/198
f 272/789/198 269/791/198 273/792/198
f 278/793/199 276/794/199 268/795/199
f 278/793/199 268/795/199 272/796/199
f 269/797/200 277/798/200 279/799/200
f 269/797/200 279/799/200 273/800/200
usemtl common_thingies
f 280/801/201 281/802/201 283/803/201
f 280/801/201 283/803/201 282/804/201
f 285/805/202 281/806/202 280/807/202
f 285/805/202 280/807/202 284/808/202
f 286/809/203 282/810/203 283/811/203
f 286/809/203 283/811/203 287/812/203
f 281/813/204 285/814/204 287/815/204
f 281/813/204 287/815/204 283/816/204
f 285/817/205 284/818/205 286/819/205
f 285/817/205 286/819/205 287/820/205
f 284/821/206 280/822/206 282/823/206
f 284/821/206 282/823/206 286/824/206
f 288/825/207 289/826/207 291/827/207
f 288/825/207 291/827/207 290/828/207
f 293/829/208 292/830/208 294/831/208
f 293/829/208 294/831/208 295/832/208
f 293/833/209 289/834/209 288/835/209
f 293/833/209 288/835/209 292/836/209
f 294/837/210 290/838/210 291/839/210
f 294/837/210 291/839/210 295/840/210
f 292/841/211 288/842/211 290/843/211
f 292/841/211 290/843/211 294/844/211
f 289/845/212 293/846/212 295/847/212
f 289/845/212 295/847/212 291/848/212
usemtl connector_connector_redstone
f 298/849/213 297/850/213 296/851/213
f 298/849/213 296/851/213 299/852/213
f 299/853/214 296/854/214 300/855/214
f 299/853/214 300/855/214 301/856/214
f 301/857/215 300/858/215 302/859/215
f 301/857/215 302/859/215 303/860/215
f 303/861/216 302/862/216 297/863/216
f 303/861/216 297/863/216 298/864/216
f 303/865/217 298/866/217 299/867/217
f 303/865/217 299/867/217 301/868/217
f 306/869/218 305/870/218 304/871/218
f 306/869/218 304/871/218 307/872/218
f 310/873/219 309/874/219 308/875/219
f 310/873/219 308/875/219 311/876/219
f 313/877/220 312/878/220 309/879/220
f 313/877/220 309/879/220 310/880/220
f 315/881/221 314/882/221 312/883/221
f 315/881/221 312/883/221 313/884/221
f 311/885/222 308/886/222 314/887/222
f 311/885/222 314/887/222 315/888/222
f 318/889/223 317/890/223 316/891/223
f 318/889/223 316/891/223 319/892/223
f 322/893/224 321/894/224 320/895/224
f 322/893/224 320/895/224 323/896/224
f 319/897/225 316/898/225 321/899/225
f 319/897/225 321/899/225 322/900/225
f 323/901/226 320/902/226 317/903/226
f 323/901/226 317/903/226 318/904/226
f 305/905/227 323/906/227 318/907/227
f 305/905/227 318/907/227 304/908/227
f 304/909/228 318/910/228 319/911/228
f 304/909/228 319/911/228 307/912/228
f 306/913/229 322/914/229 323/915/229
f 306/913/229 323/915/229 305/916/229
f 307/917/230 319/918/230 322/919/230
f 307/917/230 322/919/230 306/920/230
f 309/921/231 312/922/231 314/923/231
f 309/921/231 314/923/231 308/924/231
f 311/925/232 315/926/232 313/927/232
f 311/925/232 313/927/232 310/928/232
f 321/929/233 316/930/233 317/931/233
f 321/929/233 317/931/233 320/932/233
f 326/933/234 325/934/234 324/935/234
f 326/933/234 324/935/234 327/936/234
f 330/937/235 329/938/235 328/939/235
f 330/937/235 328/939/235 331/940/235
f 331/941/236 328/942/236 325/943/236
f 331/941/236 325/943/236 326/944/236
f 327/945/237 324/946/237 329/947/237
f 327/945/237 329/947/237 330/948/237
usemtl common_cable_and_pipe
f 199/949/238 197/950/238 189/951/238
f 199/949/238 189/951/238 191/952/238
usemtl common_steel
f 336/953/239 337/954/239 339/955/239
f 336/953/239 339/955/239 338/956/239
f 341/957/240 340/958/240 342/959/240
f 341/957/240 342/959/240 343/960/240
f 340/961/241 336/962/241 338/963/241
f 340/961/241 338/963/241 342/964/241
f 337/965/242 341/966/242 343/967/242
f 337/965/242 343/967/242 339/968/242
f 344/969/243 345/970/243 347/971/243
f 344/969/243 347/971/243 346/972/243
f 355/973/244 352/974/244 345/975/244
f 355/973/244 345/975/244 344/976/244
f 354/977/245 355/978/245 344/979/245
f 354/977/245 344/979/245 346/980/245
f 352/981/246 353/982/246 347/983/246
f 352/981/246 347/983/246 345/984/246
f 353/985/247 352/986/247 349/987/247
f 353/985/247 349/987/247 351/988/247
f 354/989/248 353/990/248 351/991/248
f 354/989/248 351/991/248 350/992/248
f 355/993/249 354/994/249 350/995/249
f 355/993/249 350/995/249 348/996/249
f 352/997/250 355/998/250 348/999/250
f 352/997/250 348/999/250 349/1000/250
f 356/1001/251 357/1002/251 359/1003/251
f 356/1001/251 359/1003/251 358/1004/251
f 367/1005/252 364/1006/252 357/1007/252
f 367/1005/252 357/1007/252 356/1008/252
f 366/1009/253 367/1010/253 356/1011/253
f 366/1009/253 356/1011/253 358/1012/253
f 364/1013/254 365/1014/254 359/1015/254
f 364/1013/254 359/1015/254 357/1016/254
f 365/1017/255 364/1018/255 361/1019/255
f 365/1017/255 361/1019/255 363/1020/255
f 366/1021/256 365/1022/256 363/1023/256
f 366/1021/256 363/1023/256 362/1024/256
f 367/1025/257 366/1026/257 362/1027/257
f 367/1025/257 362/1027/257 360/1028/257
f 364/1029/258 367/1030/258 360/1031/258
f 364/1029/258 360/1031/258 361/1032/258
f 368/1033/259 369/1034/259 371/1035/259
f 368/1033/259 371/1035/259 370/1036/259
f 373/1037/260 372/1038/260 374/1039/260
f 373/1037/260 374/1039/260 375/1040/260
f 372/1041/261 368/1042/261 370/1043/261
f 372/1041/261 370/1043/261 374/1044/261
f 369/1045/262 373/1046/262 375/1047/262
f 369/1045/262 375/1047/262 371/1048/262