# Made by Pabilo8 with Blockbench
# Exported with IIToolkit Plugin
mtllib redstone_interface.mtl


o main
v 0.6875 0.6875 -0.125
v 0.6875 0.6875 -0.875
v 0.6875 0.3125 -0.125
v 0.6875 0.3125 -0.875
v -0.59375 0.875 0.0625
v -0.59375 0.875 -0.3125
v -0.59375 0.25 0.0625
v -0.59375 0.25 -0.3125
v -0.65625 0.875 0.0625
v -0.65625 0.875 -0.3125
v -0.65625 0.25 0.0625
v -0.65625 0.25 -0.3125
v 0.625 0.625 -0.875
v 0.625 0.625 -0.9375
v 0.625 0.375 -0.875
v 0.625 0.375 -0.9375
v 0.375 0.625 -0.875
v 0.375 0.625 -0.9375
v 0.375 0.375 -0.875
v 0.375 0.375 -0.9375
v 0.625 0.625 -0.0625
v 0.625 0.625 -0.125
v 0.625 0.375 -0.0625
v 0.625 0.375 -0.125
v 0.375 0.625 -0.0625
v 0.375 0.625 -0.125
v 0.375 0.375 -0.0625
v 0.375 0.375 -0.125
v 0.75 0.75 -0.9375
v 0.75 0.75 -1
v 0.75 0.25 -0.9375
v 0.75 0.25 -1
v 0.25 0.75 -0.9375
v 0.25 0.75 -1
v 0.25 0.25 -0.9375
v 0.25 0.25 -1
v 0 0.25 1
v 0 0.25 0
v 0 0 1
v 0 0 0
v -1 0.25 1
v -1 0.25 0
v -1 0 1
v -1 0 0
v 0 0.25 -1
v 0 0 -1
v -1 0.25 -1
v -1 0 -1
v 1 0.25 0
v 1 0.25 -1
v 1 0 0
v 1 0 -1
v 1 0.25 1
v 1 0 1
v 0.03125 1 0.9375
v 0.03125 1 0.875
v 0.03125 0.25 0.9375
v 0.03125 0.25 0.875
v -0.34375 1 0.9375
v -0.34375 1 0.875
v -0.34375 0.25 0.9375
v -0.34375 0.25 0.875
v -0.15625 1 0.9375
v -0.15625 1 0.875
v -0.15625 0.25 0.875
v -0.15625 0.25 0.9375
v 0.875 1 1
v 0.875 1 0.9375
v 0.875 0.5 1
v 0.875 0.5 0.9375
v 0.375 1 1
v 0.375 1 0.9375
v 0.375 0.5 1
v 0.375 0.5 0.9375
v 0.8125 0.9375 0.9375
v 0.8125 0.9375 0.8125
v 0.8125 0.5625 0.9375
v 0.8125 0.5625 0.8125
v 0.4375 0.9375 0.9375
v 0.4375 0.9375 0.8125
v 0.4375 0.5625 0.9375
v 0.4375 0.5625 0.8125
v 0.8125 0.5 1
v 0.8125 0.5 0.9375
v 0.8125 0.25 1
v 0.8125 0.25 0.9375
v 0.75 0.5 1
v 0.75 0.5 0.9375
v 0.75 0.25 1
v 0.75 0.25 0.9375
v 0.5 0.5 1
v 0.5 0.5 0.9375
v 0.5 0.25 1
v 0.5 0.25 0.9375
v 0.4375 0.5 1
v 0.4375 0.5 0.9375
v 0.4375 0.25 1
v 0.4375 0.25 0.9375
v 0.71875 0.8125 0.8125
v 0.71875 0.8125 0.75
v 0.71875 0.25 0.8125
v 0.71875 0.25 0.75
v 0.53125 0.8125 0.8125
v 0.53125 0.8125 0.75
v 0.53125 0.25 0.8125
v 0.53125 0.25 0.75
v 0.71875 0.3125 0.75
v 0.71875 0.3125 0.5
v 0.71875 0.25 0.5
v 0.28125 0.3125 0.75
v 0.28125 0.3125 0.5
v 0.28125 0.25 0.75
v 0.28125 0.25 0.5
v 0.28125 0.75 0.75
v 0.28125 0.75 0.5
v 0.21875 0.75 0.75
v 0.21875 0.75 0.5
v 0.21875 0.25 0.75
v 0.21875 0.25 0.5
v 0.15625 0.875 0.8125
v 0.21875 0.875 0.8125
v 0.15625 0.5 0.8125
v 0.21875 0.5 0.8125
v 0.15625 0.875 0.4375
v 0.21875 0.875 0.4375
v 0.15625 0.5 0.4375
v 0.21875 0.5 0.4375
v 0.15625 0.9375 0.875
v 0.15625 0.9375 0.375
v 0.15625 0.4375 0.875
v 0.15625 0.4375 0.375
v -0.46875 0.9375 0.875
v -0.46875 0.9375 0.375
v -0.46875 0.4375 0.875
v -0.46875 0.4375 0.375
v -0.53125 0.875 0.8125
v -0.46875 0.875 0.8125
v -0.53125 0.5 0.8125
v -0.46875 0.5 0.8125
v -0.53125 0.875 0.4375
v -0.46875 0.875 0.4375
v -0.53125 0.5 0.4375
v -0.46875 0.5 0.4375
v -0.65625 0.5 0
v -0.65625 0.5 -0.25
v -0.65625 0.25 0
v -0.65625 0.25 -0.25
v -0.71875 0.5 0
v -0.71875 0.5 -0.25
v -0.71875 0.25 0
v -0.71875 0.25 -0.25
v -0.96875 0.5 0
v -0.96875 0.5 -0.1875
v -0.96875 0.25 0
v -0.96875 0.25 -0.1875
v -0.71875 0.5 0.5
v -0.96875 0.5 0.5
v -0.71875 0.25 0.5
v -0.96875 0.25 0.5
v -0.71875 0.5 0.75
v -0.71875 0.25 0.75
v -0.96875 0.5 0.75
v -0.96875 0.25 0.75
v -0.71875 0.5625 0.75
v -0.71875 0.5625 0.5
v -0.96875 0.5625 0.75
v -0.96875 0.5625 0.5
v -0.71875 0.8125 0.75
v -0.71875 0.8125 0.5
v -0.96875 0.75 0.75
v -0.96875 0.75 0.5
v -0.53125 0.8125 0.75
v -0.53125 0.8125 0.5
v -0.53125 0.5625 0.75
v -0.53125 0.5625 0.5
v -0.65625 0.8125 0
v -0.65625 0.8125 -0.25
v -0.65625 0.5625 0
v -0.65625 0.5625 -0.25
v -0.71875 0.8125 0
v -0.71875 0.8125 -0.25
v -0.71875 0.5625 0
v -0.71875 0.5625 -0.25
v -0.96875 0.8125 0
v -0.96875 0.8125 -0.1875
v -0.96875 0.5625 0
v -0.96875 0.5625 -0.1875
v -0.71875 0.8125 0.375
v -0.71875 0.8125 0.125
v -0.71875 0.5625 0.375
v -0.71875 0.5625 0.125
v -0.90625 0.8125 0.375
v -0.96875 0.8125 0.125
v -0.90625 0.5625 0.375
v -0.96875 0.5625 0.125
v -0.21875 0.8125 0.375
v -0.21875 0.8125 0.125
v -0.21875 0.5625 0.375
v -0.21875 0.5625 0.125
v 0.40625 0.8125 0.375
v 0.40625 0.8125 0.125
v 0.40625 0.5625 0.375
v 0.40625 0.5625 0.125
v 0.75 0.875 0.375
v 0.75 0.875 0.125
v 0.75 0.625 0.375
v 0.75 0.625 0.125
v 0.5 0.875 0.375
v 0.5 0.875 0.125
v 0.5 0.625 0.375
v 0.5 0.625 0.125
v 0.75 0.875 0.0625
v 0.5 0.875 0.0625
v 0.75 0.625 0.0625
v 0.5 0.625 0.0625
v 0.875 0.9375 0
v 0.875 0.9375 -0.0625
v 0.875 0.25 0
v 0.875 0.25 -0.0625
v 0.375 0.9375 0
v 0.375 0.9375 -0.0625
v 0.375 0.25 0
v 0.375 0.25 -0.0625
v 0.8125 1 0
v 0.8125 1 -0.0625
v 0.375 1 0
v 0.375 1 -0.0625
v 0.8125 0.9375 0.0625
v 0.8125 0.9375 0
v 0.8125 0.5625 0.0625
v 0.8125 0.5625 0
v 0.4375 0.9375 0.0625
v 0.4375 0.9375 0
v 0.4375 0.5625 0.0625
v 0.4375 0.5625 0
v 0.375 1 0.125
v 0.375 1 -0.875
v 0.375 0.25 0.125
v 0.375 0.25 -0.875
v -0.625 1 0.125
v -0.625 1 -0.875
v -0.625 0.25 0.125
v -0.625 0.25 -0.875
v -0.625 0.3125 -0.4375
v -0.625 0.3125 -0.8125
v -0.625 0.25 -0.4375
v -0.625 0.25 -0.8125
v -1 0.3125 -0.4375
v -1 0.3125 -0.8125
v -1 0.25 -0.4375
v -1 0.25 -0.8125
v -0.6875 0.34375 -0.5
v -0.6875 0.34375 -0.75
v -0.6875 0.28125 -0.5
v -0.6875 0.28125 -0.75
v -0.9375 0.34375 -0.5
v -0.9375 0.34375 -0.75
v -0.9375 0.28125 -0.5
v -0.9375 0.28125 -0.75
v -0.75 0.625 -0.5625
v -0.75 0.625 -0.6875
v -0.75 0.3125 -0.5625
v -0.75 0.3125 -0.6875
v -0.875 0.625 -0.5625
v -0.875 0.625 -0.6875
v -0.875 0.3125 -0.5625
v -0.875 0.3125 -0.6875
v -0.71875 0.59375 -0.53125
v -0.71875 0.59375 -0.71875
v -0.71875 0.34375 -0.53125
v -0.71875 0.34375 -0.71875
v -0.90625 0.59375 -0.53125
v -0.90625 0.59375 -0.71875
v -0.90625 0.34375 -0.53125
v -0.90625 0.34375 -0.71875
v -0.75 0.65625 -0.5625
v -0.75 0.65625 -0.6875
v -0.875 0.65625 -0.5625
v -0.875 0.65625 -0.6875
v 0.125 0.875 -0.875
v 0.125 0.875 -0.9375
v 0.125 0.6875 -0.875
v 0.125 0.6875 -0.9375
v -0.375 0.875 -0.875
v -0.375 0.875 -0.9375
v -0.375 0.6875 -0.875
v -0.375 0.6875 -0.9375
v 0.125 0.5 -0.875
v 0.125 0.5 -0.9375
v 0.125 0.3125 -0.875
v 0.125 0.3125 -0.9375
v -0.375 0.5 -0.875
v -0.375 0.5 -0.9375
v -0.375 0.3125 -0.875
v -0.375 0.3125 -0.9375
v 0.5 0.875 1.3125
v 0.5 0.625 1.3125
v 0.5 0.625 1.5625
v 0.5 0.875 1.5625
v 0.75 0.875 1.3125
v 0.75 0.875 1.5625
v 0.75 0.625 1.3125
v 0.75 0.625 1.5625
v 0.5625 0.8125 1
v 0.6875 0.8125 1
v 0.6875 0.6875 1
v 0.5625 0.6875 1
v 0.4375 0.5625 1.3125
v 0.4375 0.9375 1.3125
v 0.4375 0.9375 1.1875
v 0.4375 0.5625 1.1875
v 0.8125 0.9375 1.3125
v 0.8125 0.9375 1.1875
v 0.8125 0.5625 1.3125
v 0.8125 0.5625 1.1875
v 0.4375 0.5625 1.125
v 0.4375 0.9375 1.125
v 0.4375 0.9375 1
v 0.4375 0.5625 1
v 0.8125 0.9375 1.125
v 0.8125 0.5625 1.125
v 0.8125 0.5625 1
v 0.8125 0.9375 1
v 0.75 0.875 1.1875
v 0.75 0.625 1.1875
v 0.75 0.625 1.125
v 0.75 0.875 1.125
v 0.5 0.625 1.1875
v 0.5 0.875 1.1875
v 0.5 0.875 1.125
v 0.5 0.625 1.125
v 0.375 0.6875 -0.875
v 0.375 0.3125 -0.875
v 0.375 0.3125 -0.125
v 0.375 0.6875 -0.125
v 0.875 0.75 -0.1875
v 0.875 0.75 -0.3125
v 0.875 0.25 -0.1875
v 0.875 0.25 -0.3125
v 0.75 0.75 -0.1875
v 0.75 0.75 -0.3125
v 0.75 0.25 -0.1875
v 0.75 0.25 -0.3125
v 0.875 0.875 -0.1875
v 0.875 0.875 -0.3125
v 0.875 0.75 -0.1875
v 0.875 0.75 -0.3125
v 0.375 0.875 -0.1875
v 0.375 0.875 -0.3125
v 0.375 0.75 -0.1875
v 0.375 0.75 -0.3125
v 0.8125 0.875 -0.3125
v 0.8125 0.75 -0.3125
v 0.8125 0.75 -0.1875
v 0.8125 0.875 -0.1875
v 0.875 0.875 -0.625
v 0.875 0.875 -0.75
v 0.875 0.75 -0.625
v 0.875 0.75 -0.75
v 0.375 0.875 -0.625
v 0.375 0.875 -0.75
v 0.375 0.75 -0.625
v 0.375 0.75 -0.75
v 0.8125 0.875 -0.75
v 0.8125 0.75 -0.75
v 0.8125 0.75 -0.625
v 0.8125 0.875 -0.625
v 0.875 0.75 -0.625
v 0.875 0.75 -0.75
v 0.875 0.25 -0.625
v 0.875 0.25 -0.75
v 0.75 0.75 -0.625
v 0.75 0.75 -0.75
v 0.75 0.25 -0.625
v 0.75 0.25 -0.75
vt 0.390625 0.65625
vt 0.390625 0.75
vt 0.578125 0.75
vt 0.578125 0.65625
vt 0.390625 0.75
vt 0.390625 0.671875
vt 0.578125 0.671875
vt 0.578125 0.75
vt 0.578125 0.75
vt 0.578125 0.671875
vt 0.390625 0.671875
vt 0.390625 0.75
vt 0.625 1
vt 0.703125 1
vt 0.703125 0.90625
vt 0.625 0.90625
vt 0.71875 0.90625
vt 0.640625 0.90625
vt 0.640625 1
vt 0.71875 1
vt 0.890625 0.046875
vt 0.890625 0.203125
vt 0.984375 0.203125
vt 0.984375 0.046875
vt 0.828125 0.046875
vt 0.828125 0.203125
vt 0.921875 0.203125
vt 0.921875 0.046875
vt 0.890625 0.1875
vt 0.890625 0.09375
vt 0.875 0.09375
vt 0.875 0.1875
vt 0.90625 0.203125
vt 0.90625 0.296875
vt 0.890625 0.296875
vt 0.890625 0.203125
vt 0.890625 0.046875
vt 0.890625 0.203125
vt 0.90625 0.203125
vt 0.90625 0.046875
vt 0.875 0.046875
vt 0.875 0.203125
vt 0.890625 0.203125
vt 0.890625 0.046875
vt 0.296875 0.40625
vt 0.296875 0.46875
vt 0.3125 0.46875
vt 0.3125 0.40625
vt 0.34375 0.40625
vt 0.34375 0.46875
vt 0.359375 0.46875
vt 0.359375 0.40625
vt 0.296875 0.46875
vt 0.296875 0.453125
vt 0.359375 0.453125
vt 0.359375 0.46875
vt 0.296875 0.40625
vt 0.296875 0.421875
vt 0.359375 0.421875
vt 0.359375 0.40625
vt 0.296875 0.40625
vt 0.296875 0.46875
vt 0.3125 0.46875
vt 0.3125 0.40625
vt 0.34375 0.40625
vt 0.34375 0.46875
vt 0.359375 0.46875
vt 0.359375 0.40625
vt 0.296875 0.46875
vt 0.296875 0.453125
vt 0.359375 0.453125
vt 0.359375 0.46875
vt 0.296875 0.40625
vt 0.296875 0.421875
vt 0.359375 0.421875
vt 0.359375 0.40625
vt 0.859375 0.484375
vt 0.859375 0.609375
vt 0.875 0.609375
vt 0.875 0.484375
vt 0.75 0.484375
vt 0.75 0.609375
vt 0.765625 0.609375
vt 0.765625 0.484375
vt 0.875 0.609375
vt 0.875 0.59375
vt 0.75 0.59375
vt 0.75 0.609375
vt 0.875 0.484375
vt 0.875 0.5
vt 0.75 0.5
vt 0.75 0.484375
vt 0.875 0.484375
vt 0.875 0.609375
vt 0.75 0.609375
vt 0.75 0.484375
vt 0.75 0.484375
vt 0.75 0.609375
vt 0.875 0.609375
vt 0.875 0.484375
vt 0.5 0.9375
vt 0.5 1
vt 0.25 1
vt 0.25 0.9375
vt 0.4375 0.9375
vt 0.4375 0.6875
vt 0.6875 0.6875
vt 0.6875 0.9375
vt 0.5 0.75
vt 0.5 1
vt 0.75 1
vt 0.75 0.75
vt 0.25 0.9375
vt 0.25 1
vt 0 1
vt 0 0.9375
vt 0.25 0.9375
vt 0.25 1
vt 0 1
vt 0 0.9375
vt 0.4375 0.5625
vt 0.4375 0.3125
vt 0.6875 0.3125
vt 0.6875 0.5625
vt 0.5 0.25
vt 0.5 0.5
vt 0.75 0.5
vt 0.75 0.25
vt 0.5 0.9375
vt 0.5 1
vt 0.25 1
vt 0.25 0.9375
vt 0.0625 0.5625
vt 0.0625 0.3125
vt 0.3125 0.3125
vt 0.3125 0.5625
vt 0 0.25
vt 0 0.5
vt 0.25 0.5
vt 0.25 0.25
vt 0.25 0.9375
vt 0.25 1
vt 0 1
vt 0 0.9375
vt 0.5 0.9375
vt 0.5 1
vt 0.25 1
vt 0.25 0.9375
vt 0.0625 0.9375
vt 0.0625 0.6875
vt 0.3125 0.6875
vt 0.3125 0.9375
vt 0 0.75
vt 0 1
vt 0.25 1
vt 0.25 0.75
vt 0.25 0.9375
vt 0.25 1
vt 0 1
vt 0 0.9375
vt 0.5 0.9375
vt 0.5 1
vt 0.25 1
vt 0.25 0.9375
vt 0 0.59375
vt 0 0.78125
vt 0.015625 0.78125
vt 0.015625 0.59375
vt 0 0
vt 0 0.1875
vt 0.015625 0.1875
vt 0.015625 0
vt 0.140625 0
vt 0.09375 0
vt 0.09375 0.015625
vt 0.140625 0.015625
vt 0.5 0.25
vt 0.546875 0.25
vt 0.546875 0.0625
vt 0.5 0.0625
vt 0.40625 0.265625
vt 0.359375 0.265625
vt 0.359375 0.453125
vt 0.40625 0.453125
vt 0.265625 0.015625
vt 0.3125 0.015625
vt 0.3125 0
vt 0.265625 0
vt 0.3125 0.453125
vt 0.359375 0.453125
vt 0.359375 0.265625
vt 0.3125 0.265625
vt 0.75 0.0625
vt 0.703125 0.0625
vt 0.703125 0.25
vt 0.75 0.25
vt 0.625 0.484375
vt 0.625 0.609375
vt 0.640625 0.609375
vt 0.640625 0.484375
vt 0.734375 0.484375
vt 0.734375 0.609375
vt 0.75 0.609375
vt 0.75 0.484375
vt 0.625 0.609375
vt 0.625 0.59375
vt 0.75 0.59375
vt 0.75 0.609375
vt 0.625 0.484375
vt 0.625 0.5
vt 0.75 0.5
vt 0.75 0.484375
vt 0.625 0.484375
vt 0.625 0.609375
vt 0.75 0.609375
vt 0.75 0.484375
vt 0.75 0.484375
vt 0.75 0.609375
vt 0.625 0.609375
vt 0.625 0.484375
vt 0.65625 0.640625
vt 0.65625 0.734375
vt 0.6875 0.734375
vt 0.6875 0.640625
vt 0.59375 0.640625
vt 0.59375 0.734375
vt 0.625 0.734375
vt 0.625 0.640625
vt 0.6875 0.734375
vt 0.6875 0.703125
vt 0.59375 0.703125
vt 0.59375 0.734375
vt 0.6875 0.703125
vt 0.6875 0.734375
vt 0.59375 0.734375
vt 0.59375 0.703125
vt 0.59375 0.640625
vt 0.59375 0.734375
vt 0.6875 0.734375
vt 0.6875 0.640625
vt 0.59375 0.359375
vt 0.59375 0.421875
vt 0.609375 0.421875
vt 0.609375 0.359375
vt 0.5625 0.359375
vt 0.5625 0.421875
vt 0.578125 0.421875
vt 0.578125 0.359375
vt 0.609375 0.359375
vt 0.609375 0.421875
vt 0.625 0.421875
vt 0.625 0.359375
vt 0.578125 0.359375
vt 0.578125 0.421875
vt 0.59375 0.421875
vt 0.59375 0.359375
vt 0.59375 0.359375
vt 0.59375 0.421875
vt 0.609375 0.421875
vt 0.609375 0.359375
vt 0.5625 0.359375
vt 0.5625 0.421875
vt 0.578125 0.421875
vt 0.578125 0.359375
vt 0.609375 0.359375
vt 0.609375 0.421875
vt 0.625 0.421875
vt 0.625 0.359375
vt 0.578125 0.359375
vt 0.578125 0.421875
vt 0.59375 0.421875
vt 0.59375 0.359375
vt 0.15625 0.4375
vt 0.15625 0.578125
vt 0.171875 0.578125
vt 0.171875 0.4375
vt 0.15625 0.453125
vt 0.15625 0.59375
vt 0.171875 0.59375
vt 0.171875 0.453125
vt 0.140625 0.578125
vt 0.140625 0.5625
vt 0.09375 0.5625
vt 0.09375 0.578125
vt 0.0625 0.453125
vt 0.0625 0.59375
vt 0.109375 0.59375
vt 0.109375 0.453125
vt 0.125 0.453125
vt 0.125 0.59375
vt 0.171875 0.59375
vt 0.171875 0.453125
vt 0.078125 0.46875
vt 0.078125 0.484375
vt 0.140625 0.484375
vt 0.140625 0.46875
vt 0.09375 0.59375
vt 0.15625 0.59375
vt 0.15625 0.484375
vt 0.09375 0.484375
vt 0.15625 0.4375
vt 0.140625 0.4375
vt 0.140625 0.546875
vt 0.15625 0.546875
vt 0.1875 0.46875
vt 0.171875 0.46875
vt 0.171875 0.578125
vt 0.1875 0.578125
vt 0.015625 0.46875
vt 0.015625 0.59375
vt 0.078125 0.59375
vt 0.078125 0.46875
vt 0.109375 0.46875
vt 0.109375 0.59375
vt 0.171875 0.59375
vt 0.171875 0.46875
vt 0.125 0.5
vt 0.1875 0.5
vt 0.1875 0.484375
vt 0.125 0.484375
vt 0.15625 0.453125
vt 0.15625 0.578125
vt 0.171875 0.578125
vt 0.171875 0.453125
vt 0.140625 0.46875
vt 0.140625 0.59375
vt 0.15625 0.59375
vt 0.15625 0.46875
vt 0.28125 0.390625
vt 0.28125 0.484375
vt 0.296875 0.484375
vt 0.296875 0.390625
vt 0.359375 0.390625
vt 0.359375 0.484375
vt 0.375 0.484375
vt 0.375 0.390625
vt 0.28125 0.484375
vt 0.28125 0.46875
vt 0.375 0.46875
vt 0.375 0.484375
vt 0.28125 0.390625
vt 0.28125 0.40625
vt 0.375 0.40625
vt 0.375 0.390625
vt 0.375 0.390625
vt 0.375 0.484375
vt 0.28125 0.484375
vt 0.28125 0.390625
vt 0.5 0.875
vt 0.5 1
vt 0.625 1
vt 0.625 0.875
vt 0.5 0.875
vt 0.5 1
vt 0.625 1
vt 0.625 0.875
vt 0.65625 0.875
vt 0.65625 0.75
vt 0.5 0.75
vt 0.5 0.875
vt 0.65625 0.75
vt 0.65625 0.875
vt 0.5 0.875
vt 0.5 0.75
vt 0.65625 0.75
vt 0.65625 0.875
vt 0.5 0.875
vt 0.5 0.75
vt 0.5 0.75
vt 0.5 0.875
vt 0.65625 0.875
vt 0.65625 0.75
vt 0.28125 0.390625
vt 0.28125 0.484375
vt 0.296875 0.484375
vt 0.296875 0.390625
vt 0.359375 0.390625
vt 0.359375 0.484375
vt 0.375 0.484375
vt 0.375 0.390625
vt 0.28125 0.484375
vt 0.28125 0.46875
vt 0.375 0.46875
vt 0.375 0.484375
vt 0.28125 0.390625
vt 0.28125 0.40625
vt 0.375 0.40625
vt 0.375 0.390625
vt 0.28125 0.390625
vt 0.28125 0.484375
vt 0.375 0.484375
vt 0.375 0.390625
vt 0 0.359375
vt 0.0625 0.359375
vt 0.0625 0.34375
vt 0 0.34375
vt 0.0625 0.5
vt 0 0.5
vt 0 0.484375
vt 0.0625 0.484375
vt 0.0625 0.34375
vt 0 0.34375
vt 0 0.359375
vt 0.0625 0.359375
vt 0.0625 0.484375
vt 0 0.484375
vt 0 0.5
vt 0.0625 0.5
vt 0.0625 0.4921875
vt 0 0.4921875
vt 0 0.4453125
vt 0.0625 0.4453125
vt 0.1875 0.375
vt 0.25 0.375
vt 0.25 0.4375
vt 0.1875 0.421875
vt 0 0.390625
vt 0 0.33088906250000005
vt 0.0625 0.33088906250000005
vt 0.0625 0.390625
vt 0 0.46875
vt 0 0.34375
vt 0.0625 0.34375
vt 0.0625 0.46875
vt 0 0.34375
vt 0.0625 0.34375
vt 0.0625 0.46875
vt 0 0.46875
vt 0.0625 0.359375
vt 0.0625 0.484375
vt 0 0.484375
vt 0 0.359375
vt 0.1875 0.4375
vt 0.1875 0.375
vt 0.25 0.375
vt 0.25 0.4375
vt 0.0625 0.4375
vt 0.0625 0.5
vt 0 0.5
vt 0 0.4375
vt 0.25 0.375
vt 0.1875 0.375
vt 0.1875 0.4375
vt 0.25 0.4375
vt 0.0625 0.34375
vt 0 0.34375
vt 0 0.328125
vt 0.0625 0.328125
vt 0.0625 0.359375
vt 0.0625 0.375
vt 0 0.375
vt 0 0.359375
vt 0.0625 0.453125
vt 0.0625 0.46875
vt 0 0.46875
vt 0 0.453125
vt 0.0625 0.375
vt 0 0.375
vt 0 0.359375
vt 0.0625 0.359375
vt 0.0625 0.34375
vt 0.0625 0.390625
vt 0 0.390625
vt 0 0.34375
vt 0.0625 0.43870156250000003
vt 0.0625 0.5
vt 0 0.5
vt 0 0.43870156250000003
vt 0.25 0.375
vt 0.25 0.4375
vt 0.1875 0.421875
vt 0.1875 0.375
vt 0.1875 0.421875
vt 0.25 0.4375
vt 0.25 0.375
vt 0.1875 0.375
vt 0.0625 0.375
vt 0 0.375
vt 0 0.328125
vt 0.0625 0.328125
vt 0 0.4375
vt 0.0625 0.4375
vt 0.0625 0.484375
vt 0 0.484375
vt 0.0625 0.375
vt 0 0.375
vt 0 0.328125
vt 0.0625 0.328125
vt 0.0625 0.390625
vt 0 0.390625
vt 0 0.34375
vt 0.0625 0.34375
vt 0 0.359375
vt 0.0625 0.359375
vt 0.0625 0.34375
vt 0 0.34375
vt 0.0625 0.5
vt 0 0.5
vt 0 0.484375
vt 0.0625 0.484375
vt 0.0625 0.34375
vt 0 0.34375
vt 0 0.359375
vt 0.0625 0.359375
vt 0.0625 0.484375
vt 0 0.484375
vt 0 0.5
vt 0.0625 0.5
vt 0.0625 0.4921875
vt 0 0.4921875
vt 0 0.4453125
vt 0.0625 0.4453125
vt 0.1875 0.375
vt 0.25 0.375
vt 0.25 0.4375
vt 0.1875 0.421875
vt 0.25 0.4375
vt 0.25 0.375
vt 0.1875 0.375
vt 0.1875 0.421875
vt 0 0.390625
vt 0 0.33088906250000005
vt 0.0625 0.33088906250000005
vt 0.0625 0.390625
vt 0 0.44182656249999996
vt 0.0625 0.44182656249999996
vt 0.0625 0.5
vt 0 0.5
vt 0.203125 0.4375
vt 0.25 0.4375
vt 0.25 0.375
vt 0.1875 0.375
vt 0.25 0.375
vt 0.25 0.4375
vt 0.203125 0.4375
vt 0.1875 0.375
vt 0.0625 0.3828125
vt 0 0.3828125
vt 0 0.3359375
vt 0.0625 0.3359375
vt 0 0.46875
vt 0 0.34375
vt 0.0625 0.34375
vt 0.0625 0.46875
vt 0 0.34375
vt 0.0625 0.34375
vt 0.0625 0.46875
vt 0 0.46875
vt 0 0.34375
vt 0.0625 0.34375
vt 0.0625 0.46875
vt 0 0.46875
vt 0 0.484375
vt 0 0.328125
vt 0.0625 0.328125
vt 0.0625 0.484375
vt 0 0.328125
vt 0.0625 0.328125
vt 0.0625 0.484375
vt 0 0.484375
vt 0 0.328125
vt 0.0625 0.328125
vt 0.0625 0.484375
vt 0 0.484375
vt 0 0.390625
vt 0 0.328125
vt 0.0625 0.328125
vt 0.0625 0.390625
vt 0.25 0.4375
vt 0.1875 0.4375
vt 0.1875 0.375
vt 0.25 0.375
vt 0.25 0.4375
vt 0.1875 0.4375
vt 0.1875 0.375
vt 0.25 0.375
vt 0.0625 0.390625
vt 0 0.390625
vt 0 0.328125
vt 0.0625 0.328125
vt 0.0625 0.45620625000000004
vt 0.0625 0.484375
vt 0 0.484375
vt 0 0.45620625000000004
vt 0.0625 0.390625
vt 0 0.390625
vt 0 0.36245625000000004
vt 0.0625 0.36245625000000004
vt 0 0.34375
vt 0.0625 0.34375
vt 0.0625 0.375
vt 0 0.375
vt 0.0625 0.34375
vt 0.0625 0.375
vt 0 0.375
vt 0 0.34375
vt 0 0.359375
vt 0.0625 0.359375
vt 0.0625 0.34375
vt 0 0.34375
vt 0.0625 0.5
vt 0 0.5
vt 0 0.484375
vt 0.0625 0.484375
vt 0.0625 0.34375
vt 0 0.34375
vt 0 0.359375
vt 0.0625 0.359375
vt 0.0625 0.484375
vt 0 0.484375
vt 0 0.5
vt 0.0625 0.5
vt 0.0625 0.28125
vt 0 0.28125
vt 0 0.25
vt 0.0625 0.25
vt 0.0625 0.390625
vt 0 0.390625
vt 0 0.359375
vt 0.0625 0.359375
vt 0.0625 0.453125
vt 0.0625 0.484375
vt 0 0.484375
vt 0 0.453125
vt 0.0625 0.34375
vt 0.0625 0.375
vt 0 0.375
vt 0 0.34375
vt 0.359375 0.546875
vt 0.359375 0.71875
vt 0.375 0.71875
vt 0.375 0.546875
vt 0.25 0.546875
vt 0.25 0.71875
vt 0.375 0.71875
vt 0.375 0.546875
vt 0.25 0.546875
vt 0.25 0.71875
vt 0.375 0.71875
vt 0.375 0.546875
vt 0.375 0.6875
vt 0.359375 0.6875
vt 0.359375 0.665403125
vt 0.375 0.665403125
vt 0.25 0.703125
vt 0.359375 0.703125
vt 0.359375 0.71875
vt 0.25 0.71875
vt 0.375 0.703125
vt 0.359375 0.71875
vt 0.25 0.71875
vt 0.25 0.703125
vt 0.375 0.71875
vt 0.265625 0.71875
vt 0.25 0.703125
vt 0.375 0.703125
vt 0.28125 0.390625
vt 0.28125 0.484375
vt 0.296875 0.484375
vt 0.296875 0.390625
vt 0.359375 0.390625
vt 0.359375 0.484375
vt 0.375 0.484375
vt 0.375 0.390625
vt 0.28125 0.484375
vt 0.28125 0.46875
vt 0.375 0.46875
vt 0.375 0.484375
vt 0.28125 0.390625
vt 0.28125 0.40625
vt 0.375 0.40625
vt 0.375 0.390625
vt 0.28125 0.390625
vt 0.28125 0.484375
vt 0.375 0.484375
vt 0.375 0.390625
vt 0.25 0.75
vt 0.25 0.9375
vt 0.5 0.9375
vt 0.5 0.75
vt 0.25 0.75
vt 0.25 0.9375
vt 0.5 0.9375
vt 0.5 0.75
vt 0.75 0.25
vt 0.75 0
vt 0.5 0
vt 0.5 0.25
vt 0.25 0.75
vt 0.25 0.9375
vt 0.5 0.9375
vt 0.5 0.75
vt 0 0.75
vt 0 0.9375
vt 0.25 0.9375
vt 0.25 0.75
vt 0.734375 0.25
vt 0.734375 0.265625
vt 0.828125 0.265625
vt 0.828125 0.25
vt 0.59375 0.71875
vt 0.59375 0.734375
vt 0.6875 0.734375
vt 0.6875 0.71875
vt 0.6875 0.734375
vt 0.6875 0.640625
vt 0.59375 0.640625
vt 0.59375 0.734375
vt 0.59375 0.71875
vt 0.59375 0.734375
vt 0.6875 0.734375
vt 0.6875 0.71875
vt 0.59375 0.640625
vt 0.59375 0.65625
vt 0.6875 0.65625
vt 0.6875 0.640625
vt 0.484375 0.546875
vt 0.484375 0.5625
vt 0.546875 0.5625
vt 0.546875 0.546875
vt 0.578125 0.546875
vt 0.578125 0.5625
vt 0.640625 0.5625
vt 0.640625 0.546875
vt 0.578125 0.625
vt 0.578125 0.5625
vt 0.515625 0.5625
vt 0.515625 0.625
vt 0.5 0.546875
vt 0.5 0.5625
vt 0.5625 0.5625
vt 0.5625 0.546875
vt 0.421875 0.546875
vt 0.421875 0.5625
vt 0.484375 0.5625
vt 0.484375 0.546875
vt 0.21875 0.625
vt 0.21875 0.703125
vt 0.25 0.703125
vt 0.25 0.625
vt 0.21875 0.625
vt 0.21875 0.703125
vt 0.25 0.703125
vt 0.25 0.625
vt 0.25 0.703125
vt 0.25 0.671875
vt 0.21875 0.671875
vt 0.21875 0.703125
vt 0.234375 0.203125
vt 0.234375 0.234375
vt 0.203125 0.234375
vt 0.203125 0.203125
vt 0.21875 0.625
vt 0.21875 0.703125
vt 0.25 0.703125
vt 0.25 0.625
vt 0.21875 0.625
vt 0.21875 0.703125
vt 0.25 0.703125
vt 0.25 0.625
vt 0.046875 0.625
vt 0.046875 0.6875
vt 0.09375 0.6875
vt 0.09375 0.625
vt 0.078125 0.671875
vt 0.078125 0.734375
vt 0.125 0.734375
vt 0.125 0.671875
vt 0.109375 0.65625
vt 0.109375 0.71875
vt 0.15625 0.71875
vt 0.15625 0.65625
vt 0.125 0.640625
vt 0.125 0.703125
vt 0.171875 0.703125
vt 0.171875 0.640625
vt 0.171875 0.734375
vt 0.109375 0.734375
vt 0.109375 0.671875
vt 0.171875 0.671875
vt 0.171875 0.65625
vt 0.171875 0.71875
vt 0.109375 0.71875
vt 0.109375 0.65625
vt 0.109375 0.640625
vt 0.171875 0.640625
vt 0.171875 0.703125
vt 0.109375 0.703125
vt 0.0625 0.6875
vt 0.0625 0.75
vt 0 0.75
vt 0 0.6875
vt 0.171875 0.640625
vt 0.171875 0.703125
vt 0.109375 0.703125
vt 0.109375 0.640625
vt 0.1484375 0.671875
vt 0.1171875 0.671875
vt 0.109375 0.6544062500000001
vt 0.15625 0.6544062500000001
vt 0.515625 0.078125
vt 0.515625 0.125
vt 0.5 0.125
vt 0.5 0.078125
vt 0.5 0.109375
vt 0.5 0.125
vt 0.625 0.125
vt 0.625 0.109375
vt 0.625 0.078125
vt 0.625 0.09375
vt 0.5 0.09375
vt 0.5 0.078125
vt 0.625 0.078125
vt 0.625 0.125
vt 0.5 0.125
vt 0.5 0.078125
vt 0.625 0.078125
vt 0.625 0.125
vt 0.609375 0.125
vt 0.609375 0.078125
vt 0.625 0.078125
vt 0.625 0.125
vt 0.5 0.125
vt 0.5 0.078125
vt 0.640625 0.078125
vt 0.640625 0.125
vt 0.625 0.125
vt 0.625 0.078125
vt 0.75 0.078125
vt 0.75 0.125
vt 0.734375 0.125
vt 0.734375 0.078125
vt 0.625 0.109375
vt 0.625 0.125
vt 0.75 0.125
vt 0.75 0.109375
vt 0.75 0.078125
vt 0.75 0.09375
vt 0.625 0.09375
vt 0.625 0.078125
vt 0.75 0.078125
vt 0.75 0.125
vt 0.625 0.125
vt 0.625 0.078125
vt 0.75 0.078125
vt 0.75 0.125
vt 0.625 0.125
vt 0.625 0.078125
vt 0.375 0.6875
vt 0.375 0.9375
vt 0.625 0.9375
vt 0.625 0.6875
vt 0.625 0.6875
vt 0.375 0.6875
vt 0.375 0.9375
vt 0.625 0.9375
vt 0.375 0.6875
vt 0.625 0.6875
vt 0.625 0.9375
vt 0.375 0.9375
vt 0.625 0.6875
vt 0.375 0.6875
vt 0.375 0.9375
vt 0.625 0.9375
vt 0.625 0.9375
vt 0.625 0.6875
vt 0.875 0.6875
vt 0.875 0.9375
vt 1 0.125
vt 0.875 0.125
vt 0.875 0
vt 1 0
vt 0.6875 0.6875
vt 0.3125 0.6875
vt 0.3125 0.5625
vt 0.6875 0.5625
vt 0.6875 0.6875
vt 0.3125 0.6875
vt 0.3125 0.5625
vt 0.6875 0.5625
vt 0.6875 0.6875
vt 0.3125 0.6875
vt 0.3125 0.5625
vt 0.6875 0.5625
vt 0.6875 0.6875
vt 0.3125 0.6875
vt 0.3125 0.5625
vt 0.6875 0.5625
vt 0.3125 0.375
vt 0.6875 0.375
vt 0.6875 0.5
vt 0.3125 0.5
vt 0.6875 0.5
vt 0.3125 0.5
vt 0.3125 0.375
vt 0.6875 0.375
vt 0.6875 0.5
vt 0.3125 0.5
vt 0.3125 0.375
vt 0.6875 0.375
vt 0.6875 0.5
vt 0.3125 0.5
vt 0.3125 0.375
vt 0.6875 0.375
vt 0.3125 0
vt 0.6875 0
vt 0.5625 0.125
vt 0.4375 0.125
vt 0.3125 0.375
vt 0.3125 0
vt 0.4375 0.125
vt 0.4375 0.25
vt 0.6875 0
vt 0.6875 0.375
vt 0.5625 0.25
vt 0.5625 0.125
vt 0.6875 0.375
vt 0.3125 0.375
vt 0.4375 0.25
vt 0.5625 0.25
vt 0.6875 0
vt 0.6875 0.375
vt 0.3125 0.375
vt 0.3125 0
vt 0.6875 0
vt 0.6875 0.375
vt 0.3125 0.375
vt 0.3125 0
vt 0.3125 0.375
vt 0.3125 0
vt 0.6875 0
vt 0.6875 0.375
vt 0.625 0.5625
vt 0.375 0.5625
vt 0.375 0.5
vt 0.625 0.5
vt 0.375 0.5
vt 0.625 0.5
vt 0.625 0.5625
vt 0.375 0.5625
vt 0.625 0.5625
vt 0.375 0.5625
vt 0.375 0.5
vt 0.625 0.5
vt 0.375 0.5
vt 0.625 0.5
vt 0.625 0.5625
vt 0.375 0.5625
vt 0.0625 0.359375
vt 0.0625 0.484375
vt 0 0.484375
vt 0 0.359375
vt 0.03125 0.84375
vt 0.03125 0.96875
vt 0 0.96875
vt 0 0.84375
vt 0.03125 0.84375
vt 0.03125 0.96875
vt 0 0.96875
vt 0 0.84375
vt 0 0.84375
vt 0 0.96875
vt 0.03125 0.96875
vt 0.03125 0.84375
vt 0 0.84375
vt 0 0.96875
vt 0.03125 0.96875
vt 0.03125 0.84375
vt 0.09375 0.96875
vt 0.125 0.96875
vt 0.125 1
vt 0.09375 1
vt 0.03125 0.96875
vt 0.046875 0.96875
vt 0.046875 1
vt 0.03125 1
vt 0 1
vt 0.015625 1
vt 0.015625 0.96875
vt 0 0.96875
vt 0.015625 0.921875
vt 0.03125 0.921875
vt 0.03125 0.953125
vt 0.015625 0.953125
vt 0.03125 0.96875
vt 0.140625 0.96875
vt 0.140625 1
vt 0.03125 1
vt 0.28125 0.96875
vt 0.171875 0.96875
vt 0.171875 1
vt 0.28125 1
vt 0.125 0.96875
vt 0.015625 0.96875
vt 0.015625 1
vt 0.125 1
vt 0.15625 1
vt 0.046875 1
vt 0.046875 0.96875
vt 0.15625 0.96875
vt 0.09375 0.96875
vt 0.125 0.96875
vt 0.125 1
vt 0.09375 1
vt 0.03125 0.96875
vt 0.046875 0.96875
vt 0.046875 1
vt 0.03125 1
vt 0 1
vt 0.015625 1
vt 0.015625 0.96875
vt 0 0.96875
vt 0.015625 0.921875
vt 0.03125 0.921875
vt 0.03125 0.953125
vt 0.015625 0.953125
vt 0.171875 0.96875
vt 0.0625 0.96875
vt 0.0625 1
vt 0.171875 1
vt 0.28125 0.96875
vt 0.171875 0.96875
vt 0.171875 1
vt 0.28125 1
vt 0.125 0.96875
vt 0.015625 0.96875
vt 0.015625 1
vt 0.125 1
vt 0.15625 1
vt 0.046875 1
vt 0.046875 0.96875
vt 0.15625 0.96875
vt 0.03125 0.84375
vt 0.03125 0.96875
vt 0 0.96875
vt 0 0.84375
vt 0.03125 0.84375
vt 0.03125 0.96875
vt 0 0.96875
vt 0 0.84375
vt 0 0.84375
vt 0 0.96875
vt 0.03125 0.96875
vt 0.03125 0.84375
vt 0 0.84375
vt 0 0.96875
vt 0.03125 0.96875
vt 0.03125 0.84375
vn 1 0 0
vn 0 1 0
vn 0 -1 0
vn 0 0 1
vn 0 0 -1
vn 1 0 0
vn -1 0 0
vn 0 1 0
vn 0 -1 0
vn 0 0 1
vn 0 0 -1
vn 1 0 0
vn -1 0 0
vn 0 1 0
vn 0 -1 0
vn 1 0 0
vn -1 0 0
vn 0 1 0
vn 0 -1 0
vn 1 0 0
vn -1 0 0
vn 0 1 0
vn 0 -1 0
vn 0 0 1
vn 0 0 -1
vn -1 0 0
vn 0 1 0
vn 0 -1 0
vn 0 0 1
vn -1 0 0
vn 0 1 0
vn 0 -1 0
vn 0 0 -1
vn 0 1 0
vn 0 -1 0
vn 0 0 -1
vn 1 0 0
vn 0 1 0
vn 0 -1 0
vn 1 0 0
vn 0 0 1
vn 1 0 0
vn -1 0 0
vn 0 1 0
vn 0 0 1
vn 0 0 -1
vn 0 1 0
vn 0 0 -1
vn 0 0 1
vn 1 0 0
vn -1 0 0
vn 0 1 0
vn 0 -1 0
vn 0 0 1
vn 0 0 -1
vn 1 0 0
vn -1 0 0
vn 0 1 0
vn 0 -1 0
vn 0 0 -1
vn 1 0 0
vn -1 0 0
vn 0 0 1
vn 0 0 -1
vn 1 0 0
vn -1 0 0
vn 0 0 1
vn 0 0 -1
vn 1 0 0
vn -1 0 0
vn 0 1 0
vn 0 0 1
vn 0 0 -1
vn 1 0 0
vn 0 1 0
vn 0 0 1
vn 0 0 -1
vn 1 0 0
vn -1 0 0
vn 0 1 0
vn 0 0 1
vn 0 0 -1
vn 0 0 1
vn 0 0 -1
vn 0 1 0
vn 0 -1 0
vn 1 0 0
vn 1 0 0
vn -1 0 0
vn 0 1 0
vn 0 -1 0
vn 0 0 1
vn 0 0 -1
vn 0 0 1
vn 0 0 -1
vn 0 1 0
vn 0 -1 0
vn -1 0 0
vn 0 1 0
vn 0 -1 0
vn 0 0 1
vn 0 0 -1
vn -1 0 0
vn 0 1 0
vn -0.24253562503633297 0 -0.9701425001453319
vn 0 1 0
vn 1 0 0
vn -1 0 0
vn -1 0 0
vn 0 0 1
vn 1 0 0
vn 1 0 0
vn -1 0 0
vn 0 0 1
vn 0 0 -1
vn -1 0 0
vn -0.24253562503633297 0.9701425001453319 0
vn 0 0 1
vn 0 0 -1
vn 0 1 0
vn 0 -1 0
vn 0 0 1
vn 0 0 -1
vn 0 1 0
vn 0 -1 0
vn 0 0 1
vn 0 0 -1
vn -1 0 0
vn 0 1 0
vn 0 -1 0
vn -0.24253562503633297 0 -0.9701425001453319
vn -0.9701425001453319 0 0.24253562503633297
vn 0 1 0
vn 0 -1 0
vn 0 0 1
vn 0 1 0
vn 0 -1 0
vn 0 0 1
vn 0 1 0
vn 0 -1 0
vn 0 0 1
vn 1 0 0
vn 0 1 0
vn 0 -1 0
vn 0 0 1
vn -0.5547001962252291 0.8320502943378437 0
vn 0.5547001962252291 -0.8320502943378437 0
vn 0 0 1
vn 0 0 -1
vn 0 1 0
vn 0 -1 0
vn 1 0 0
vn -1 0 0
vn 1 0 0
vn -1 0 0
vn 0 1 0
vn 0 -1 0
vn 1 0 0
vn 0 0 1
vn 0 0 -1
vn 0.7071067811865476 0.7071067811865476 0
vn 0 1 0
vn 0 0 1
vn 0 0 -1
vn 1 0 0
vn -1 0 0
vn 0 1 0
vn 0 -1 0
vn 0 0 1
vn 1 0 0
vn -1 0 0
vn 0 1 0
vn 0 0 1
vn 0 0 -1
vn 1 0 0
vn -1 0 0
vn 0 1 0
vn 0 0 1
vn 0 0 -1
vn 1 0 0
vn -1 0 0
vn 0 1 0
vn 0 0 1
vn 0 0 -1
vn 1 0 0
vn -1 0 0
vn 0 1 0
vn 0 -1 0
vn 0 0 1
vn 0 0 -1
vn 1 0 0
vn -1 0 0
vn 0 0 1
vn 0 0 -1
vn 0.8944271909999161 0.44721359549995804 0
vn -0.8944271909999161 0.44721359549995804 0
vn 0 1 0
vn 0 -1 0
vn 0 0.44721359549995804 0.8944271909999161
vn 0 0.44721359549995804 -0.8944271909999161
vn 1 0 0
vn 0 1 0
vn 0 -1 0
vn 0 0 -1
vn -1 0 0
vn 0 0 1
vn 1 0 0
vn -1 0 0
vn 0 1 0
vn 0 -1 0
vn 0 0 1
vn 0 0 -1
vn -1 0 0
vn 0 1 0
vn 1 0 0
vn 0 -1 0
vn 0 0 1
vn 0 0 -1
vn -1 0 0
vn 0 1 0
vn 1 0 0
vn 0 -1 0
vn -1 0 0
vn 1 0 0
vn 0 -1 0
vn 0 1 0
vn 0 0 -1
vn 0 0 -1
vn 0 0 -1
vn 0 0 -1
vn 0 0 1
vn 0 0 -1
vn 0 0 1
vn 1 0 0
vn -1 0 0
vn 0 -1 0
vn 0 1 0
vn 0 0 -1
vn 1 0 0
vn -1 0 0
vn 0 0 1
vn 0 0 -1
vn 1 0 0
vn 0 1 0
vn 0 0 1
vn 0 0 -1
vn 0 0 -1
vn 0 -1 0
vn 0 0 1
vn 0 1 0
vn 1 0 0
vn 0 1 0
vn 0 0 1
vn 0 0 -1
vn 0 0 -1
vn 0 -1 0
vn 0 0 1
vn 0 1 0
vn 1 0 0
vn -1 0 0
vn 0 0 1
vn 0 0 -1
usemtl redstone_interface
f 4/1/1 2/2/1 1/3/1
f 4/1/1 1/3/1 3/4/1
f 2/5/2 332/6/2 335/7/2
f 2/5/2 335/7/2 1/8/2
f 3/9/3 334/10/3 333/11/3
f 3/9/3 333/11/3 4/12/3
f 1/13/4 335/14/4 334/15/4
f 1/13/4 334/15/4 3/16/4
f 4/17/5 333/18/5 332/19/5
f 4/17/5 332/19/5 2/20/5
usemtl common_steel_norivets
f 8/21/6 6/22/6 5/23/6
f 8/21/6 5/23/6 7/24/6
f 11/25/7 9/26/7 10/27/7
f 11/25/7 10/27/7 12/28/7
f 5/29/8 6/30/8 10/31/8
f 5/29/8 10/31/8 9/32/8
f 8/33/9 7/34/9 11/35/9
f 8/33/9 11/35/9 12/36/9
f 7/37/10 5/38/10 9/39/10
f 7/37/10 9/39/10 11/40/10
f 12/41/11 10/42/11 6/43/11
f 12/41/11 6/43/11 8/44/11
usemtl common_thingies
f 16/45/12 14/46/12 13/47/12
f 16/45/12 13/47/12 15/48/12
f 19/49/13 17/50/13 18/51/13
f 19/49/13 18/51/13 20/52/13
f 13/53/14 14/54/14 18/55/14
f 13/53/14 18/55/14 17/56/14
f 16/57/15 15/58/15 19/59/15
f 16/57/15 19/59/15 20/60/15
f 24/61/16 22/62/16 21/63/16
f 24/61/16 21/63/16 23/64/16
f 27/65/17 25/66/17 26/67/17
f 27/65/17 26/67/17 28/68/17
f 21/69/18 22/70/18 26/71/18
f 21/69/18 26/71/18 25/72/18
f 24/73/19 23/74/19 27/75/19
f 24/73/19 27/75/19 28/76/19
f 32/77/20 30/78/20 29/79/20
f 32/77/20 29/79/20 31/80/20
f 35/81/21 33/82/21 34/83/21
f 35/81/21 34/83/21 36/84/21
f 29/85/22 30/86/22 34/87/22
f 29/85/22 34/87/22 33/88/22
f 32/89/23 31/90/23 35/91/23
f 32/89/23 35/91/23 36/92/23
f 31/93/24 29/94/24 33/95/24
f 31/93/24 33/95/24 35/96/24
f 36/97/25 34/98/25 30/99/25
f 36/97/25 30/99/25 32/100/25
usemtl redstone_interface
f 43/101/26 41/102/26 42/103/26
f 43/101/26 42/103/26 44/104/26
usemtl common_wood_and_steel
f 37/105/27 38/106/27 42/107/27
f 37/105/27 42/107/27 41/108/27
usemtl common_steel
f 40/109/28 39/110/28 43/111/28
f 40/109/28 43/111/28 44/112/28
usemtl redstone_interface
f 39/113/29 37/114/29 41/115/29
f 39/113/29 41/115/29 43/116/29
f 44/117/30 42/118/30 47/119/30
f 44/117/30 47/119/30 48/120/30
usemtl common_wood_and_steel
f 38/121/31 45/122/31 47/123/31
f 38/121/31 47/123/31 42/124/31
usemtl common_steel
f 46/125/32 40/126/32 44/127/32
f 46/125/32 44/127/32 48/128/32
usemtl redstone_interface
f 48/129/33 47/130/33 45/131/33
f 48/129/33 45/131/33 46/132/33
usemtl common_wood_and_steel
f 49/133/34 50/134/34 45/135/34
f 49/133/34 45/135/34 38/136/34
usemtl common_steel
f 52/137/35 51/138/35 40/139/35
f 52/137/35 40/139/35 46/140/35
usemtl redstone_interface
f 46/141/36 45/142/36 50/143/36
f 46/141/36 50/143/36 52/144/36
f 52/145/37 50/146/37 49/147/37
f 52/145/37 49/147/37 51/148/37
usemtl common_wood_and_steel
f 53/149/38 49/150/38 38/151/38
f 53/149/38 38/151/38 37/152/38
usemtl common_steel
f 51/153/39 54/154/39 39/155/39
f 51/153/39 39/155/39 40/156/39
usemtl redstone_interface
f 51/157/40 49/158/40 53/159/40
f 51/157/40 53/159/40 54/160/40
f 54/161/41 53/162/41 37/163/41
f 54/161/41 37/163/41 39/164/41
usemtl common_steel_norivets
f 58/165/42 56/166/42 55/167/42
f 58/165/42 55/167/42 57/168/42
f 61/169/43 59/170/43 60/171/43
f 61/169/43 60/171/43 62/172/43
f 56/173/44 64/174/44 63/175/44
f 56/173/44 63/175/44 55/176/44
f 55/177/45 63/178/45 66/179/45
f 55/177/45 66/179/45 57/180/45
f 58/181/46 65/182/46 64/183/46
f 58/181/46 64/183/46 56/184/46
f 59/185/47 63/186/47 64/187/47
f 59/185/47 64/187/47 60/188/47
f 60/189/48 64/190/48 65/191/48
f 60/189/48 65/191/48 62/192/48
f 61/193/49 66/194/49 63/195/49
f 61/193/49 63/195/49 59/196/49
usemtl common_thingies
f 70/197/50 68/198/50 67/199/50
f 70/197/50 67/199/50 69/200/50
f 73/201/51 71/202/51 72/203/51
f 73/201/51 72/203/51 74/204/51
f 67/205/52 68/206/52 72/207/52
f 67/205/52 72/207/52 71/208/52
f 70/209/53 69/210/53 73/211/53
f 70/209/53 73/211/53 74/212/53
f 69/213/54 67/214/54 71/215/54
f 69/213/54 71/215/54 73/216/54
f 74/217/55 72/218/55 68/219/55
f 74/217/55 68/219/55 70/220/55
usemtl redstone_interface
f 78/221/56 76/222/56 75/223/56
f 78/221/56 75/223/56 77/224/56
f 81/225/57 79/226/57 80/227/57
f 81/225/57 80/227/57 82/228/57
f 75/229/58 76/230/58 80/231/58
f 75/229/58 80/231/58 79/232/58
f 78/233/59 77/234/59 81/235/59
f 78/233/59 81/235/59 82/236/59
f 82/237/60 80/238/60 76/239/60
f 82/237/60 76/239/60 78/240/60
usemtl common_steel_norivets
f 86/241/61 84/242/61 83/243/61
f 86/241/61 83/243/61 85/244/61
f 89/245/62 87/246/62 88/247/62
f 89/245/62 88/247/62 90/248/62
f 85/249/63 83/250/63 87/251/63
f 85/249/63 87/251/63 89/252/63
f 90/253/64 88/254/64 84/255/64
f 90/253/64 84/255/64 86/256/64
f 94/257/65 92/258/65 91/259/65
f 94/257/65 91/259/65 93/260/65
f 97/261/66 95/262/66 96/263/66
f 97/261/66 96/263/66 98/264/66
f 93/265/67 91/266/67 95/267/67
f 93/265/67 95/267/67 97/268/67
f 98/269/68 96/270/68 92/271/68
f 98/269/68 92/271/68 94/272/68
usemtl redstone_interface
f 102/273/69 100/274/69 99/275/69
f 102/273/69 99/275/69 101/276/69
f 105/277/70 103/278/70 104/279/70
f 105/277/70 104/279/70 106/280/70
f 99/281/71 100/282/71 104/283/71
f 99/281/71 104/283/71 103/284/71
f 101/285/72 99/286/72 103/287/72
f 101/285/72 103/287/72 105/288/72
f 106/289/73 104/290/73 100/291/73
f 106/289/73 100/291/73 102/292/73
f 109/293/74 108/294/74 107/295/74
f 109/293/74 107/295/74 102/296/74
f 107/297/75 108/298/75 111/299/75
f 107/297/75 111/299/75 110/300/75
f 102/301/76 107/302/76 110/303/76
f 102/301/76 110/303/76 112/304/76
f 113/305/77 111/306/77 108/307/77
f 113/305/77 108/307/77 109/308/77
f 113/309/78 115/310/78 114/311/78
f 113/309/78 114/311/78 112/312/78
f 118/313/79 116/314/79 117/315/79
f 118/313/79 117/315/79 119/316/79
f 114/317/80 115/318/80 117/319/80
f 114/317/80 117/319/80 116/320/80
f 112/321/81 114/322/81 116/323/81
f 112/321/81 116/323/81 118/324/81
f 119/325/82 117/326/82 115/327/82
f 119/325/82 115/327/82 113/328/82
usemtl common_thingies
f 123/329/83 121/330/83 120/331/83
f 123/329/83 120/331/83 122/332/83
f 126/333/84 124/334/84 125/335/84
f 126/333/84 125/335/84 127/336/84
f 120/337/85 121/338/85 125/339/85
f 120/337/85 125/339/85 124/340/85
f 123/341/86 122/342/86 126/343/86
f 123/341/86 126/343/86 127/344/86
f 127/345/87 125/346/87 121/347/87
f 127/345/87 121/347/87 123/348/87
usemtl redstone_interface
f 131/349/88 129/350/88 128/351/88
f 131/349/88 128/351/88 130/352/88
f 134/353/89 132/354/89 133/355/89
f 134/353/89 133/355/89 135/356/89
f 128/357/90 129/358/90 133/359/90
f 128/357/90 133/359/90 132/360/90
f 131/361/91 130/362/91 134/363/91
f 131/361/91 134/363/91 135/364/91
f 130/365/92 128/366/92 132/367/92
f 130/365/92 132/367/92 134/368/92
f 135/369/93 133/370/93 129/371/93
f 135/369/93 129/371/93 131/372/93
usemtl common_thingies
f 139/373/94 137/374/94 136/375/94
f 139/373/94 136/375/94 138/376/94
f 142/377/95 140/378/95 141/379/95
f 142/377/95 141/379/95 143/380/95
f 136/381/96 137/382/96 141/383/96
f 136/381/96 141/383/96 140/384/96
f 139/385/97 138/386/97 142/387/97
f 139/385/97 142/387/97 143/388/97
f 138/389/98 136/390/98 140/391/98
f 138/389/98 140/391/98 142/392/98
usemtl common_cable_and_pipe
f 144/393/99 145/394/99 149/395/99
f 144/393/99 149/395/99 148/396/99
f 147/397/100 146/398/100 150/399/100
f 147/397/100 150/399/100 151/400/100
f 146/401/101 144/402/101 148/403/101
f 146/401/101 148/403/101 150/404/101
f 151/405/102 149/406/102 145/407/102
f 151/405/102 145/407/102 147/408/102
f 154/409/103 152/410/103 153/411/103
f 154/409/103 153/411/103 155/412/103
f 152/413/104 148/414/104 149/415/104
f 152/413/104 149/415/104 153/416/104
f 153/417/105 149/418/105 151/419/105
f 153/417/105 151/419/105 155/420/105
f 156/421/106 148/422/106 152/423/106
f 156/421/106 152/423/106 157/424/106
f 150/425/107 148/426/107 156/427/107
f 150/425/107 156/427/107 158/428/107
f 157/429/108 152/430/108 154/431/108
f 157/429/108 154/431/108 159/432/108
f 163/433/109 162/434/109 157/435/109
f 163/433/109 157/435/109 159/436/109
f 161/437/110 160/438/110 162/439/110
f 161/437/110 162/439/110 163/440/110
f 156/441/111 160/442/111 161/443/111
f 156/441/111 161/443/111 158/444/111
f 165/445/112 164/446/112 160/447/112
f 165/445/112 160/447/112 156/448/112
f 162/449/113 166/450/113 167/451/113
f 162/449/113 167/451/113 157/452/113
f 160/453/114 164/454/114 166/455/114
f 160/453/114 166/455/114 162/456/114
f 167/457/115 165/458/115 156/459/115
f 167/457/115 156/459/115 157/460/115
f 166/461/116 170/462/116 171/463/116
f 166/461/116 171/463/116 167/464/116
f 170/465/117 168/466/117 169/467/117
f 170/465/117 169/467/117 171/468/117
f 164/469/118 168/470/118 170/471/118
f 164/469/118 170/471/118 166/472/118
f 171/473/119 169/474/119 165/475/119
f 171/473/119 165/475/119 167/476/119
f 172/477/120 173/478/120 169/479/120
f 172/477/120 169/479/120 168/480/120
f 175/481/121 174/482/121 164/483/121
f 175/481/121 164/483/121 165/484/121
f 174/485/122 172/486/122 168/487/122
f 174/485/122 168/487/122 164/488/122
f 165/489/123 169/490/123 173/491/123
f 165/489/123 173/491/123 175/492/123
f 176/493/124 177/494/124 181/495/124
f 176/493/124 181/495/124 180/496/124
f 179/497/125 178/498/125 182/499/125
f 179/497/125 182/499/125 183/500/125
f 178/501/126 176/502/126 180/503/126
f 178/501/126 180/503/126 182/504/126
f 183/505/127 181/506/127 177/507/127
f 183/505/127 177/507/127 179/508/127
f 186/509/128 184/510/128 185/511/128
f 186/509/128 185/511/128 187/512/128
f 184/513/129 180/514/129 181/515/129
f 184/513/129 181/515/129 185/516/129
f 183/517/130 182/518/130 186/519/130
f 183/517/130 186/519/130 187/520/130
f 185/521/131 181/522/131 183/523/131
f 185/521/131 183/523/131 187/524/131
f 194/525/132 192/526/132 193/527/132
f 194/525/132 193/527/132 195/528/132
f 192/529/133 188/530/133 189/531/133
f 192/529/133 189/531/133 193/532/133
f 191/533/134 190/534/134 194/535/134
f 191/533/134 194/535/134 195/536/134
f 190/537/135 188/538/135 192/539/135
f 190/537/135 192/539/135 194/540/135
f 188/541/136 196/542/136 197/543/136
f 188/541/136 197/543/136 189/544/136
f 199/545/137 198/546/137 190/547/137
f 199/545/137 190/547/137 191/548/137
f 198/549/138 196/550/138 188/551/138
f 198/549/138 188/551/138 190/552/138
f 196/553/139 200/554/139 201/555/139
f 196/553/139 201/555/139 197/556/139
f 203/557/140 202/558/140 198/559/140
f 203/557/140 198/559/140 199/560/140
f 202/561/141 200/562/141 196/563/141
f 202/561/141 196/563/141 198/564/141
f 205/565/142 204/566/142 206/567/142
f 205/565/142 206/567/142 207/568/142
f 208/569/143 204/570/143 205/571/143
f 208/569/143 205/571/143 209/572/143
f 207/573/144 206/574/144 210/575/144
f 207/573/144 210/575/144 211/576/144
f 206/577/145 204/578/145 208/579/145
f 206/577/145 208/579/145 210/580/145
f 200/581/146 208/582/146 209/583/146
f 200/581/146 209/583/146 201/584/146
f 211/585/147 210/586/147 202/587/147
f 211/585/147 202/587/147 203/588/147
f 210/589/148 208/590/148 200/591/148
f 210/589/148 200/591/148 202/592/148
f 201/593/149 209/594/149 211/595/149
f 201/593/149 211/595/149 203/596/149
f 212/597/150 213/598/150 209/599/150
f 212/597/150 209/599/150 205/600/150
f 215/601/151 214/602/151 207/603/151
f 215/601/151 207/603/151 211/604/151
f 214/605/152 212/606/152 205/607/152
f 214/605/152 205/607/152 207/608/152
f 211/609/153 209/610/153 213/611/153
f 211/609/153 213/611/153 215/612/153
f 182/613/154 180/614/154 189/615/154
f 182/613/154 189/615/154 191/616/154
f 195/617/155 193/618/155 184/619/155
f 195/617/155 184/619/155 186/620/155
f 189/621/156 180/622/156 184/623/156
f 189/621/156 184/623/156 193/624/156
f 182/625/157 191/626/157 195/627/157
f 182/625/157 195/627/157 186/628/157
usemtl redstone_interface
f 219/629/158 217/630/158 216/631/158
f 219/629/158 216/631/158 218/632/158
f 218/633/159 216/634/159 220/635/159
f 218/633/159 220/635/159 222/636/159
f 223/637/160 221/638/160 217/639/160
f 223/637/160 217/639/160 219/640/160
f 225/641/161 224/642/161 216/643/161
f 225/641/161 216/643/161 217/644/161
f 226/645/162 224/646/162 225/647/162
f 226/645/162 225/647/162 227/648/162
f 216/649/163 224/650/163 226/651/163
f 216/649/163 226/651/163 220/652/163
f 227/653/164 225/654/164 217/655/164
f 227/653/164 217/655/164 221/656/164
usemtl common_thingies
f 231/657/165 229/658/165 228/659/165
f 231/657/165 228/659/165 230/660/165
f 234/661/166 232/662/166 233/663/166
f 234/661/166 233/663/166 235/664/166
f 228/665/167 229/666/167 233/667/167
f 228/665/167 233/667/167 232/668/167
f 231/669/168 230/670/168 234/671/168
f 231/669/168 234/671/168 235/672/168
f 230/673/169 228/674/169 232/675/169
f 230/673/169 232/675/169 234/676/169
usemtl redstone_interface
f 239/677/170 237/678/170 236/679/170
f 239/677/170 236/679/170 238/680/170
f 242/681/171 240/682/171 241/683/171
f 242/681/171 241/683/171 243/684/171
usemtl common_steel
f 236/685/172 237/686/172 241/687/172
f 236/685/172 241/687/172 240/688/172
usemtl redstone_interface
f 238/689/173 236/690/173 240/691/173
f 238/689/173 240/691/173 242/692/173
f 243/693/174 241/694/174 237/695/174
f 243/693/174 237/695/174 239/696/174
f 247/697/175 245/698/175 244/699/175
f 247/697/175 244/699/175 246/700/175
f 250/701/176 248/702/176 249/703/176
f 250/701/176 249/703/176 251/704/176
f 244/705/177 245/706/177 249/707/177
f 244/705/177 249/707/177 248/708/177
f 246/709/178 244/710/178 248/711/178
f 246/709/178 248/711/178 250/712/178
f 251/713/179 249/714/179 245/715/179
f 251/713/179 245/715/179 247/716/179
f 255/717/180 253/718/180 252/719/180
f 255/717/180 252/719/180 254/720/180
f 258/721/181 256/722/181 257/723/181
f 258/721/181 257/723/181 259/724/181
f 252/725/182 253/726/182 257/727/182
f 252/725/182 257/727/182 256/728/182
f 254/729/183 252/730/183 256/731/183
f 254/729/183 256/731/183 258/732/183
f 259/733/184 257/734/184 253/735/184
f 259/733/184 253/735/184 255/736/184
f 263/737/185 261/738/185 260/739/185
f 263/737/185 260/739/185 262/740/185
f 266/741/186 264/742/186 265/743/186
f 266/741/186 265/743/186 267/744/186
f 260/745/187 261/746/187 265/747/187
f 260/745/187 265/747/187 264/748/187
f 263/749/188 262/750/188 266/751/188
f 263/749/188 266/751/188 267/752/188
f 262/753/189 260/754/189 264/755/189
f 262/753/189 264/755/189 266/756/189
f 267/757/190 265/758/190 261/759/190
f 267/757/190 261/759/190 263/760/190
f 271/761/191 269/762/191 268/763/191
f 271/761/191 268/763/191 270/764/191
f 274/765/192 272/766/192 273/767/192
f 274/765/192 273/767/192 275/768/192
f 270/769/193 268/770/193 272/771/193
f 270/769/193 272/771/193 274/772/193
f 275/773/194 273/774/194 269/775/194
f 275/773/194 269/775/194 271/776/194
f 277/777/195 276/778/195 268/779/195
f 277/777/195 268/779/195 269/780/195
f 272/781/196 278/782/196 279/783/196
f 272/781/196 279/783/196 273/784/196
f 278/785/197 276/786/197 277/787/197
f 278/785/197 277/787/197 279/788/197
f 269/789/198 268/790/198 272/791/198
f 269/789/198 272/791/198 273/792/198
f 268/793/199 276/794/199 278/795/199
f 268/793/199 278/795/199 272/796/199
f 279/797/200 277/798/200 269/799/200
f 279/797/200 269/799/200 273/800/200
usemtl common_thingies
f 283/801/201 281/802/201 280/803/201
f 283/801/201 280/803/201 282/804/201
f 280/805/202 281/806/202 285/807/202
f 280/805/202 285/807/202 284/808/202
f 283/809/203 282/810/203 286/811/203
f 283/809/203 286/811/203 287/812/203
f 287/813/204 285/814/204 281/815/204
f 287/813/204 281/815/204 283/816/204
f 286/817/205 284/818/205 285/819/205
f 286/817/205 285/819/205 287/820/205
f 282/821/206 280/822/206 284/823/206
f 282/821/206 284/823/206 286/824/206
f 291/825/207 289/826/207 288/827/207
f 291/825/207 288/827/207 290/828/207
f 294/829/208 292/830/208 293/831/208
f 294/829/208 293/831/208 295/832/208
f 288/833/209 289/834/209 293/835/209
f 288/833/209 293/835/209 292/836/209
f 291/837/210 290/838/210 294/839/210
f 291/837/210 294/839/210 295/840/210
f 290/841/211 288/842/211 292/843/211
f 290/841/211 292/843/211 294/844/211
f 295/845/212 293/846/212 289/847/212
f 295/845/212 289/847/212 291/848/212
usemtl connector_connector_redstone
f 296/849/213 297/850/213 298/851/213
f 296/849/213 298/851/213 299/852/213
f 300/853/214 296/854/214 299/855/214
f 300/853/214 299/855/214 301/856/214
f 302/857/215 300/858/215 301/859/215
f 302/857/215 301/859/215 303/860/215
f 297/861/216 302/862/216 303/863/216
f 297/861/216 303/863/216 298/864/216
f 299/865/217 298/866/217 303/867/217
f 299/865/217 303/867/217 301/868/217
f 304/869/218 305/870/218 306/871/218
f 304/869/218 306/871/218 307/872/218
f 308/873/219 309/874/219 310/875/219
f 308/873/219 310/875/219 311/876/219
f 309/877/220 312/878/220 313/879/220
f 309/877/220 313/879/220 310/880/220
f 312/881/221 314/882/221 315/883/221
f 312/881/221 315/883/221 313/884/221
f 314/885/222 308/886/222 311/887/222
f 314/885/222 311/887/222 315/888/222
f 316/889/223 317/890/223 318/891/223
f 316/889/223 318/891/223 319/892/223
f 320/893/224 321/894/224 322/895/224
f 320/893/224 322/895/224 323/896/224
f 321/897/225 316/898/225 319/899/225
f 321/897/225 319/899/225 322/900/225
f 317/901/226 320/902/226 323/903/226
f 317/901/226 323/903/226 318/904/226
f 318/905/227 323/906/227 305/907/227
f 318/905/227 305/907/227 304/908/227
f 319/909/228 318/910/228 304/911/228
f 319/909/228 304/911/228 307/912/228
f 323/913/229 322/914/229 306/915/229
f 323/913/229 306/915/229 305/916/229
f 322/917/230 319/918/230 307/919/230
f 322/917/230 307/919/230 306/920/230
f 314/921/231 312/922/231 309/923/231
f 314/921/231 309/923/231 308/924/231
f 313/925/232 315/926/232 311/927/232
f 313/925/232 311/927/232 310/928/232
f 317/929/233 316/930/233 321/931/233
f 317/929/233 321/931/233 320/932/233
f 324/933/234 325/934/234 326/935/234
f 324/933/234 326/935/234 327/936/234
f 328/937/235 329/938/235 330/939/235
f 328/937/235 330/939/235 331/940/235
f 325/941/236 328/942/236 331/943/236
f 325/941/236 331/943/236 326/944/236
f 329/945/237 324/946/237 327/947/237
f 329/945/237 327/947/237 330/948/237
usemtl common_cable_and_pipe
f 189/949/238 197/950/238 199/951/238
f 189/949/238 199/951/238 191/952/238
usemtl common_steel
f 339/953/239 337/954/239 336/955/239
f 339/953/239 336/955/239 338/956/239
f 342/957/240 340/958/240 341/959/240
f 342/957/240 341/959/240 343/960/240
f 338/961/241 336/962/241 340/963/241
f 338/961/241 340/963/241 342/964/241
f 343/965/242 341/966/242 337/967/242
f 343/965/242 337/967/242 339/968/242
f 347/969/243 345/970/243 344/971/243
f 347/969/243 344/971/243 346/972/243
f 345/973/244 352/974/244 355/975/244
f 345/973/244 355/975/244 344/976/244
f 344/977/245 355/978/245 354/979/245
f 344/977/245 354/979/245 346/980/245
f 347/981/246 353/982/246 352/983/246
f 347/981/246 352/983/246 345/984/246
f 349/985/247 352/986/247 353/987/247
f 349/985/247 353/987/247 351/988/247
f 351/989/248 353/990/248 354/991/248
f 351/989/248 354/991/248 350/992/248
f 350/993/249 354/994/249 355/995/249
f 350/993/249 355/995/249 348/996/249
f 348/997/250 355/998/250 352/999/250
f 348/997/250 352/999/250 349/1000/250
f 359/1001/251 357/1002/251 356/1003/251
f 359/1001/251 356/1003/251 358/1004/251
f 357/1005/252 364/1006/252 367/1007/252
f 357/1005/252 367/1007/252 356/1008/252
f 356/1009/253 367/1010/253 366/1011/253
f 356/1009/253 366/1011/253 358/1012/253
f 359/1013/254 365/1014/254 364/1015/254
f 359/1013/254 364/1015/254 357/1016/254
f 361/1017/255 364/1018/255 365/1019/255
f 361/1017/255 365/1019/255 363/1020/255
f 363/1021/256 365/1022/256 366/1023/256
f 363/1021/256 366/1023/256 362/1024/256
f 362/1025/257 366/1026/257 367/1027/257
f 362/1025/257 367/1027/257 360/1028/257
f 360/1029/258 367/1030/258 364/1031/258
f 360/1029/258 364/1031/258 361/1032/258
f 371/1033/259 369/1034/259 368/1035/259
f 371/1033/259 368/1035/259 370/1036/259
f 374/1037/260 372/1038/260 373/1039/260
f 374/1037/260 373/1039/260 375/1040/260
f 370/1041/261 368/1042/261 372/1043/261
f 370/1041/261 372/1043/261 374/1044/261
f 375/1045/262 373/1046/262 369/1047/262
f 375/1045/262 369/1047/262 371/1048/262