# Made by Pabilo8 with Blockbench
# Exported with IIToolkit Plugin on 04/06/2026
mtllib field_flak.mtl

o weapon
v 1.0491 0.3438 0.0196
v 1.0491 0.3438 -0.1054
v 1.0491 0.2188 0.0196
v 1.0491 0.2188 -0.1054
v -0.9509 0.3438 0.0196
v -0.9509 0.3438 -0.1054
v -0.9509 0.2188 0.0196
v -0.9509 0.2188 -0.1054
v 0.2116 0.4688 1.7071
v 0.2116 0.4688 1.5821
v 0.2116 0.3438 1.7071
v 0.2116 0.3438 1.5821
v -0.1634 0.4688 1.7071
v -0.1634 0.4688 1.5821
v -0.1634 0.3438 1.7071
v -0.1634 0.3438 1.5821
v 0.0866 0.3438 1.5821
v 0.0866 0.3438 1.4571
v 0.0866 0.4688 1.5821
v 0.0866 0.4688 1.4571
v 0.2116 0.3438 1.5821
v 0.2116 0.3438 1.4571
v 0.2116 0.4688 1.5821
v 0.2116 0.4688 1.4571
v 0.2116 0.4688 1.4571
v 0.2116 0.4688 1.2071
v 0.2116 0.3438 1.4571
v 0.2116 0.3438 1.2071
v -0.1634 0.4688 1.4571
v -0.1634 0.4688 1.2071
v -0.1634 0.3438 1.4571
v -0.1634 0.3438 1.2071
v -0.0384 0.4688 1.5821
v -0.0384 0.4688 1.4571
v -0.0384 0.3438 1.5821
v -0.0384 0.3438 1.4571
v -0.1634 0.4688 1.5821
v -0.1634 0.4688 1.4571
v -0.1634 0.3438 1.5821
v -0.1634 0.3438 1.4571
v -0.1384 0.4688 1.2071
v 0.1741 0.4688 1.2071
v -0.1384 0.3438 1.2071
v 0.1741 0.3438 1.2071
v -0.2634 0.4688 0.7071
v 0.2991 0.4688 0.7071
v -0.2634 0.3438 0.7071
v 0.2991 0.3438 0.7071
v -0.2634 0.4688 0.7071
v 0.2991 0.4688 0.7071
v -0.2634 0.3438 0.7071
v 0.2991 0.3438 0.7071
v -0.2634 0.4688 -0.1054
v 0.2991 0.4688 -0.1054
v -0.2634 0.3438 -0.1054
v 0.2991 0.3438 -0.1054
v -0.2354 0.4688 0.0552
v 0.0972 0.4688 -0.1179
v -0.2354 0.3438 0.0552
v 0.0972 0.3438 -0.1179
v -0.8149 0.4688 -1.1933
v -0.5931 0.4688 -1.3087
v -0.8149 0.3438 -1.1933
v -0.5931 0.3438 -1.3087
v -0.0246 0.4688 -0.1161
v 0.308 0.4688 0.057
v -0.0246 0.3438 -0.1161
v 0.308 0.3438 0.057
v 0.6657 0.4688 -1.3069
v 0.8875 0.4688 -1.1915
v 0.6657 0.3438 -1.3069
v 0.8875 0.3438 -1.1915
v 0.4241 0.5313 0.5821
v 0.6741 0.5313 0.3712
v 0.4241 0.4688 0.5821
v 0.6741 0.4688 0.3712
v 0.4241 0.5313 -0.6679
v 0.6741 0.5313 -0.457
v 0.4241 0.4688 -0.6679
v 0.6741 0.4688 -0.457
v -0.3259 0.5313 0.5821
v 0.4241 0.5313 0.5821
v -0.3259 0.4688 0.5821
v 0.4241 0.4688 0.5821
v -0.3259 0.5313 -0.6679
v 0.4241 0.5313 -0.6679
v -0.3259 0.4688 -0.6679
v 0.4241 0.4688 -0.6679
v -0.3259 0.5313 -0.6679
v -0.5759 0.5313 -0.457
v -0.3259 0.4688 -0.6679
v -0.5759 0.4688 -0.457
v -0.3259 0.5313 0.5821
v -0.5759 0.5313 0.3712
v -0.3259 0.4688 0.5821
v -0.5759 0.4688 0.3712
vt 0.0313 0.2188
vt 0.0313 0.25
vt 0 0.25
vt 0 0.2188
vt 0.0313 0.2188
vt 0.0313 0.25
vt 0 0.25
vt 0 0.2188
vt 0.7656 0.3438
vt 0.7656 0.375
vt 0.2656 0.375
vt 0.2656 0.3438
vt 0.75 0.3438
vt 0.75 0.375
vt 0.25 0.375
vt 0.25 0.3438
vt 0.75 0.375
vt 0.75 0.3438
vt 0.25 0.3438
vt 0.25 0.375
vt 0.75 0.3438
vt 0.75 0.375
vt 0.25 0.375
vt 0.25 0.3438
vt 0.7344 0.2188
vt 0.7344 0.25
vt 0.7656 0.25
vt 0.7656 0.2188
vt 0.7969 0.2188
vt 0.7969 0.25
vt 0.7656 0.25
vt 0.7656 0.2188
vt 0.7813 0.25
vt 0.7813 0.2813
vt 0.6875 0.2813
vt 0.6875 0.25
vt 0.7813 0.2813
vt 0.7813 0.25
vt 0.6875 0.25
vt 0.6875 0.2813
vt 0.7031 0.2188
vt 0.7031 0.25
vt 0.7969 0.25
vt 0.7969 0.2188
vt 0.7656 0.5625
vt 0.7656 0.5938
vt 0.8594 0.5938
vt 0.8594 0.5625
vt 0.8438 0.6094
vt 0.8438 0.6406
vt 0.875 0.6406
vt 0.875 0.6094
vt 0.7656 0.25
vt 0.7656 0.2188
vt 0.7344 0.2188
vt 0.7344 0.25
vt 0.7656 0.2813
vt 0.7344 0.2813
vt 0.7344 0.25
vt 0.7656 0.25
vt 0.75 0.2813
vt 0.7188 0.2813
vt 0.7188 0.25
vt 0.75 0.25
vt 0.6719 0.2188
vt 0.6719 0.25
vt 0.6094 0.25
vt 0.6094 0.2188
vt 0.5938 0.2188
vt 0.5938 0.25
vt 0.6563 0.25
vt 0.6563 0.2188
vt 0.9063 0.25
vt 0.9063 0.1875
vt 0.8125 0.1875
vt 0.8125 0.25
vt 1 0.25
vt 1 0.1875
vt 0.9063 0.1875
vt 0.9063 0.25
vt 0.8125 0.625
vt 0.8125 0.6563
vt 0.9063 0.6563
vt 0.9063 0.625
vt 0.9063 0.2188
vt 0.9063 0.25
vt 1 0.25
vt 1 0.2188
vt 0.8438 0.6094
vt 0.8438 0.6406
vt 0.875 0.6406
vt 0.875 0.6094
vt 0.7656 0.2188
vt 0.7656 0.25
vt 0.7344 0.25
vt 0.7344 0.2188
vt 0.7656 0.2813
vt 0.7344 0.2813
vt 0.7344 0.25
vt 0.7656 0.25
vt 0.75 0.2813
vt 0.7188 0.2813
vt 0.7188 0.25
vt 0.75 0.25
vt 0.5 0.6563
vt 0.5 0.6875
vt 0.4219 0.6875
vt 0.4219 0.6563
vt 0.1406 0.9688
vt 0.1406 1
vt 0 1
vt 0 0.9688
vt 0.6406 0.5625
vt 0.6406 0.6406
vt 0.5156 0.6719
vt 0.5156 0.5313
vt 0.6406 0.5625
vt 0.6406 0.6406
vt 0.5156 0.6719
vt 0.5156 0.5313
vt 0.4726 0.6563
vt 0.4726 0.6875
vt 0.3438 0.6875
vt 0.3438 0.6563
vt 0.5156 0.6563
vt 0.5156 0.6875
vt 0.3906 0.6875
vt 0.3906 0.6563
vt 0.1406 0.9688
vt 0.1406 1
vt 0 1
vt 0 0.9688
vt 0.5313 0.5313
vt 0.5313 0.6719
vt 0.3281 0.6719
vt 0.3281 0.5313
vt 0.5156 0.5313
vt 0.5156 0.6719
vt 0.3125 0.6719
vt 0.3125 0.5313
vt 0.5313 0.5156
vt 0.5313 0.5469
vt 0.3281 0.5469
vt 0.3281 0.5156
vt 0.5156 0.6563
vt 0.5156 0.6875
vt 0.3125 0.6875
vt 0.3125 0.6563
vt 0.5156 0.3906
vt 0.5156 0.4219
vt 0.4531 0.4219
vt 0.4531 0.3906
vt 0.3125 0.4063
vt 0.6563 0.4063
vt 0.6563 0.5
vt 0.3125 0.5
vt 0.6563 0.4063
vt 0.6563 0.5
vt 0.3125 0.5
vt 0.3125 0.4063
vt 0.6563 0.3906
vt 0.6563 0.4219
vt 0.3125 0.4219
vt 0.3125 0.3906
vt 0.6563 0.4219
vt 0.3125 0.4219
vt 0.3125 0.3906
vt 0.6563 0.3906
vt 0.5156 0.3906
vt 0.5156 0.4219
vt 0.4531 0.4219
vt 0.4531 0.3906
vt 0.6563 0.4063
vt 0.6563 0.5
vt 0.3125 0.5
vt 0.3125 0.4063
vt 0.6563 0.3906
vt 0.6563 0.4219
vt 0.3125 0.4219
vt 0.3125 0.3906
vt 0.6563 0.4219
vt 0.3125 0.4219
vt 0.3125 0.3906
vt 0.6563 0.3906
vt 0.3125 0.4063
vt 0.6563 0.4063
vt 0.6563 0.5
vt 0.3125 0.5
vt 0.8787 0.6719
vt 0.7969 0.6719
vt 0.7969 0.6563
vt 0.8787 0.6563
vt 0.9255 0.6563
vt 0.9255 0.6719
vt 0.8438 0.6719
vt 0.8438 0.6563
vt 0.6875 0.625
vt 1 0.625
vt 0.9473 0.6875
vt 0.7402 0.6875
vt 0.9473 0.6875
vt 1 0.625
vt 0.6875 0.625
vt 0.7402 0.6875
vt 0.3125 0.9219
vt 0.3125 0.9375
vt 0 0.9375
vt 0 0.9219
vt 0.957 0.3906
vt 0.75 0.3906
vt 0.75 0.375
vt 0.957 0.375
vt 0.9375 0.6719
vt 0.9375 0.6875
vt 0.75 0.6875
vt 0.75 0.6719
vt 0.9375 0.6563
vt 0.9375 0.6719
vt 0.75 0.6719
vt 0.75 0.6563
vt 1 0.4375
vt 1 0.625
vt 0.6875 0.625
vt 0.6875 0.4375
vt 1 0.625
vt 1 0.4375
vt 0.6875 0.4375
vt 0.6875 0.625
vt 0.5469 0.9844
vt 0.5469 1
vt 0.2344 1
vt 0.2344 0.9844
vt 0.5469 0.9844
vt 0.5469 1
vt 0.2344 1
vt 0.2344 0.9844
vt 0.9568 0.6875
vt 0.875 0.6875
vt 0.875 0.6719
vt 0.9568 0.6719
vt 0.8943 0.6719
vt 0.8943 0.6875
vt 0.8125 0.6875
vt 0.8125 0.6719
vt 0.6875 0.4375
vt 1 0.4375
vt 0.9473 0.375
vt 0.7402 0.375
vt 0.7402 0.375
vt 0.6875 0.4375
vt 1 0.4375
vt 0.9473 0.375
vt 0.3125 0.9063
vt 0.3125 0.9219
vt 0 0.9219
vt 0 0.9063
vt 0.9414 0.6875
vt 0.7344 0.6875
vt 0.7344 0.6719
vt 0.9414 0.6719
vn 1 0 0
vn -1 0 0
vn 0 1 0
vn 0 -1 0
vn 0 0 1
vn 0 0 -1
vn 1 0 0
vn -1 0 0
vn 0 1 0
vn 0 -1 0
vn 0 0 1
vn 0 0 -1
vn -1 0 0
vn 1 0 0
vn 0 -1 0
vn 0 1 0
vn 1 0 0
vn -1 0 0
vn 0 1 0
vn 0 -1 0
vn 0 0 1
vn 0 0 -1
vn 1 0 0
vn -1 0 0
vn 0 1 0
vn 0 -1 0
vn 0 0 1
vn 0 0 -1
vn 0 1 0
vn 0 -1 0
vn -0.97 0 0.24
vn 0.97 0 0.24
vn 0 0 1
vn 0 1 0
vn 0 -1 0
vn -1 0 0
vn 1 0 0
vn -0.46 0 -0.89
vn 0 1 0
vn 0 -1 0
vn -0.91 0 0.42
vn 0.87 0 -0.5
vn 0.46 0 -0.89
vn 0 -1 0
vn -0.87 0 -0.5
vn 0.91 0 0.42
vn 0 1 0
vn 0.64 0 0.76
vn 0.64 0 -0.76
vn 0 1 0
vn 0 -1 0
vn -1 0 0
vn 1 0 0
vn 0 0 1
vn 0 0 -1
vn 0 1 0
vn 0 -1 0
vn -1 0 0
vn 1 0 0
vn -0.64 0 -0.76
vn -0.64 0 0.76
vn 0 1 0
vn 0 -1 0
vn 1 0 0
vn -1 0 0
usemtl anti_aircraft_gun_painted
f 4/1/1 2/2/1 1/3/1 3/4/1
f 7/5/2 5/6/2 6/7/2 8/8/2
f 1/9/3 2/10/3 6/11/3 5/12/3
f 4/13/4 3/14/4 7/15/4 8/16/4
f 3/17/5 1/18/5 5/19/5 7/20/5
f 8/21/6 6/22/6 2/23/6 4/24/6
f 12/25/7 10/26/7 9/27/7 11/28/7
f 15/29/8 13/30/8 14/31/8 16/32/8
f 9/33/9 10/34/9 14/35/9 13/36/9
usemtl anti_aircraft_gun
f 12/37/10 11/38/10 15/39/10 16/40/10
usemtl anti_aircraft_gun_painted
f 11/41/11 9/42/11 13/43/11 15/44/11
f 16/45/12 14/46/12 10/47/12 12/48/12
f 20/49/13 18/50/13 17/51/13 19/52/13
f 23/53/14 21/54/14 22/55/14 24/56/14
usemtl anti_aircraft_gun
f 17/57/15 18/58/15 22/59/15 21/60/15
usemtl anti_aircraft_gun_painted
f 20/61/16 19/62/16 23/63/16 24/64/16
f 28/65/17 26/66/17 25/67/17 27/68/17
f 31/69/18 29/70/18 30/71/18 32/72/18
f 25/73/19 26/74/19 30/75/19 29/76/19
usemtl anti_aircraft_gun
f 28/77/20 27/78/20 31/79/20 32/80/20
usemtl anti_aircraft_gun_painted
f 27/81/21 25/82/21 29/83/21 31/84/21
f 32/85/22 30/86/22 26/87/22 28/88/22
f 36/89/23 34/90/23 33/91/23 35/92/23
f 39/93/24 37/94/24 38/95/24 40/96/24
f 33/97/25 34/98/25 38/99/25 37/100/25
usemtl anti_aircraft_gun
f 36/101/26 35/102/26 39/103/26 40/104/26
usemtl anti_aircraft_gun_painted
f 44/105/27 42/106/27 41/107/27 43/108/27
f 47/109/28 45/110/28 46/111/28 48/112/28
f 41/113/29 42/114/29 46/115/29 45/116/29
usemtl anti_aircraft_gun
f 44/117/30 43/118/30 47/119/30 48/120/30
usemtl anti_aircraft_gun_painted
f 43/121/31 41/122/31 45/123/31 47/124/31
f 48/125/32 46/126/32 42/127/32 44/128/32
f 52/129/33 50/130/33 49/131/33 51/132/33
f 49/133/34 50/134/34 54/135/34 53/136/34
usemtl anti_aircraft_gun
f 52/137/35 51/138/35 55/139/35 56/140/35
usemtl anti_aircraft_gun_painted
f 51/141/36 49/142/36 53/143/36 55/144/36
f 56/145/37 54/146/37 50/147/37 52/148/37
f 63/149/38 61/150/38 62/151/38 64/152/38
f 61/153/39 57/154/39 58/155/39 62/156/39
usemtl anti_aircraft_gun
f 60/157/40 59/158/40 63/159/40 64/160/40
usemtl anti_aircraft_gun_painted
f 59/161/41 57/162/41 61/163/41 63/164/41
f 62/165/42 58/166/42 60/167/42 64/168/42
f 71/169/43 69/170/43 70/171/43 72/172/43
usemtl anti_aircraft_gun
f 68/173/44 67/174/44 71/175/44 72/176/44
usemtl anti_aircraft_gun_painted
f 67/177/45 65/178/45 69/179/45 71/180/45
f 70/181/46 66/182/46 68/183/46 72/184/46
f 69/185/47 65/186/47 66/187/47 70/188/47
f 74/189/48 73/190/48 75/191/48 76/192/48
f 79/193/49 77/194/49 78/195/49 80/196/49
f 77/197/50 73/198/50 74/199/50 78/200/50
usemtl anti_aircraft_gun
f 76/201/51 75/202/51 79/203/51 80/204/51
usemtl anti_aircraft_gun_painted
f 75/205/52 73/206/52 77/207/52 79/208/52
f 78/209/53 74/210/53 76/211/53 80/212/53
f 84/213/54 82/214/54 81/215/54 83/216/54
f 87/217/55 85/218/55 86/219/55 88/220/55
f 81/221/56 82/222/56 86/223/56 85/224/56
usemtl anti_aircraft_gun
f 84/225/57 83/226/57 87/227/57 88/228/57
usemtl anti_aircraft_gun_painted
f 83/229/58 81/230/58 85/231/58 87/232/58
f 88/233/59 86/234/59 82/235/59 84/236/59
f 90/237/60 89/238/60 91/239/60 92/240/60
f 95/241/61 93/242/61 94/243/61 96/244/61
f 93/245/62 89/246/62 90/247/62 94/248/62
usemtl anti_aircraft_gun
f 92/249/63 91/250/63 95/251/63 96/252/63
usemtl anti_aircraft_gun_painted
f 91/253/64 89/254/64 93/255/64 95/256/64
f 94/257/65 90/258/65 92/259/65 96/260/65
o turret
v 0.4804 0.7188 0.6488
v 0.9804 0.7188 0.6488
v 0.4804 0.6563 0.6488
v 0.9804 0.6563 0.6488
v 0.4804 0.7188 0.1488
v 0.9804 0.7188 0.1488
v 0.4804 0.6563 0.1488
v 0.9804 0.6563 0.1488
v -0.8321 0.7188 0.6488
v -0.3321 0.7188 0.6488
v -0.8321 0.6563 0.6488
v -0.3321 0.6563 0.6488
v -0.8321 0.7188 0.1488
v -0.3321 0.7188 0.1488
v -0.8321 0.6563 0.1488
v -0.3321 0.6563 0.1488
v -1.0821 1.9063 -0.4762
v -0.3321 1.9063 -0.4762
v -1.0821 1.3438 -0.7262
v -0.3321 1.3438 -0.7262
v -1.0821 1.9063 -0.5387
v -0.3321 1.9063 -0.5387
v -1.0821 1.3438 -0.7887
v -0.3321 1.3438 -0.7887
v -1.0821 1.3438 -0.7262
v -0.3321 1.3438 -0.7262
v -1.0821 0.9063 -0.5387
v -0.3321 0.9063 -0.5387
v -1.0821 1.3438 -0.7887
v -0.3321 1.3438 -0.7887
v -1.0821 0.9063 -0.6012
v -0.3321 0.9063 -0.6012
v -1.0821 0.9063 -0.5387
v -0.3321 0.9063 -0.5387
v -1.0821 0.6563 -0.4137
v -0.3321 0.6563 -0.4137
v -1.0821 0.9063 -0.6012
v -0.3321 0.9063 -0.6012
v -1.0821 0.6563 -0.4762
v -0.3321 0.6563 -0.4762
v 0.4179 1.3438 -0.7262
v 1.1679 1.3438 -0.7262
v 0.4179 0.9063 -0.5387
v 1.1679 0.9063 -0.5387
v 0.4179 1.3438 -0.7887
v 1.1679 1.3438 -0.7887
v 0.4179 0.9063 -0.6012
v 1.1679 0.9063 -0.6012
v 0.4179 0.9063 -0.5387
v 1.1679 0.9063 -0.5387
v 0.4179 0.6563 -0.4137
v 0.9804 0.6563 -0.4137
v 0.4179 0.9063 -0.6012
v 1.1679 0.9063 -0.6012
v 0.4179 0.6563 -0.4762
v 0.9804 0.6563 -0.4762
v 0.4179 1.9063 -0.4762
v 1.1679 1.9063 -0.4762
v 0.4179 1.3438 -0.7262
v 1.1679 1.3438 -0.7262
v 0.4179 1.9063 -0.5387
v 1.1679 1.9063 -0.5387
v 0.4179 1.3438 -0.7887
v 1.1679 1.3438 -0.7887
v 0.0158 1.4063 0.1489
v 0.0783 1.4063 0.1489
v 0.0158 0.6563 0.1489
v 0.0783 0.6563 0.1489
v 0.0158 1.4063 -0.6011
v 0.0783 1.4063 -0.6011
v 0.0158 0.6563 -0.6011
v 0.0783 0.6563 -0.6011
v -0.1405 1.0313 0.5239
v 0.2345 1.0313 0.5239
v -0.1405 0.6563 0.5239
v 0.2345 0.6563 0.5239
v -0.1405 1.0313 0.2739
v 0.2345 1.0313 0.2739
v -0.1405 0.6563 0.2739
v 0.2345 0.6563 0.2739
v -0.2655 0.6563 0.5239
v 0.3595 0.6563 0.5239
v -0.2655 0.5313 0.5239
v 0.3595 0.5313 0.5239
v -0.2655 0.6563 -0.6011
v 0.3595 0.6563 -0.6011
v -0.2655 0.5313 -0.6011
v 0.3595 0.5313 -0.6011
v 0.3595 0.6563 -0.0386
v -0.2655 0.6563 -0.0386
v -0.2655 0.5313 -0.0386
v 0.3595 0.5313 -0.0386
v 0.6095 0.6563 -0.3902
v 0.3595 0.6563 -0.6011
v 0.6095 0.5313 -0.3902
v 0.3595 0.5313 -0.6011
v 0.6095 0.6563 0.313
v 0.3595 0.6563 0.5239
v 0.6095 0.5313 0.313
v 0.3595 0.5313 0.5239
v -0.5155 0.6563 0.313
v -0.2655 0.6563 0.5239
v -0.5155 0.5313 0.313
v -0.2655 0.5313 0.5239
v -0.5155 0.6563 -0.3902
v -0.2655 0.6563 -0.6011
v -0.5155 0.5313 -0.3902
v -0.2655 0.5313 -0.6011
v 0.6875 2.1875 -0.2875
v 0.6875 2.1875 -0.475
v 0.6875 0.75 -0.2875
v 0.6875 0.75 -0.475
v 0.625 2.1875 -0.2875
v 0.625 2.1875 -0.475
v 0.625 0.75 -0.2875
v 0.625 0.75 -0.475
v 0.75 0.75 -0.1625
v 0.75 0.75 -0.475
v 0.75 0.625 -0.1625
v 0.75 0.625 -0.475
v 0.5625 0.75 -0.1625
v 0.5625 0.75 -0.475
v 0.5625 0.625 -0.1625
v 0.5625 0.625 -0.475
v 0.9375 2.1375 0.0273
v 0.9375 2.2571 -0.2614
v 0.9375 1.9065 -0.0684
v 0.9375 2.0261 -0.3571
v 0.6875 2.1375 0.0273
v 0.6875 2.2571 -0.2614
v 0.6875 1.9065 -0.0684
v 0.6875 2.0261 -0.3571
v 0.875 2.0797 0.0034
v 0.75 2.0797 0.0034
v 0.875 1.9643 -0.0444
v 0.75 1.9643 -0.0444
v 0.875 2.1037 -0.0543
v 0.75 2.1037 -0.0543
v 0.875 1.9882 -0.1022
v 0.75 1.9882 -0.1022
v 1 2.0748 -0.0663
v 1 2.1465 -0.2395
v 1 2.017 -0.0902
v 1 2.0888 -0.2635
v 0.9375 2.0748 -0.0663
v 0.9375 2.1465 -0.2395
v 0.9375 2.017 -0.0902
v 0.9375 2.0888 -0.2635
v 1.0625 2.0797 0.0034
v 1.0625 2.1993 -0.2853
v 1.0625 1.9643 -0.0444
v 1.0625 2.0838 -0.3332
v 1 2.0797 0.0034
v 1 2.1993 -0.2853
v 1 1.9643 -0.0444
v 1 2.0838 -0.3332
v 0.4547 1.5059 -0.073
v 0.4547 1.5701 -0.2492
v 0.4547 1.0361 -0.244
v 0.4547 1.1002 -0.4202
v 0.3922 1.5059 -0.073
v 0.3922 1.5701 -0.2492
v 0.3922 1.0361 -0.244
v 0.3922 1.1002 -0.4202
v -0.4578 1.7543 -0.4821
v -0.4578 1.7807 -0.5387
v -0.4578 1.4144 -0.6405
v -0.4578 1.4408 -0.6972
v -1.0203 1.7543 -0.4821
v -1.0203 1.7807 -0.5387
v -1.0203 1.4144 -0.6405
v -1.0203 1.4408 -0.6972
v 0.6875 2.1875 -0.2875
v 0.6875 2.1875 -0.1
v 0.6875 2 -0.2875
v 0.6875 2 -0.1
v 0.625 2.1875 -0.2875
v 0.625 2.1875 -0.1
v 0.625 2 -0.2875
v 0.625 2 -0.1
vt 0.4219 0.3281
vt 0.4219 0.3438
vt 0.2969 0.3438
vt 0.2969 0.3281
vt 0.4219 0.3281
vt 0.4219 0.3438
vt 0.2969 0.3438
vt 0.2969 0.3281
vt 0.4219 0.2188
vt 0.4219 0.3438
vt 0.2969 0.3438
vt 0.2969 0.2188
vt 0.4219 0.2188
vt 0.4219 0.3438
vt 0.2969 0.3438
vt 0.2969 0.2188
vt 0.4219 0.3281
vt 0.4219 0.3438
vt 0.2969 0.3438
vt 0.2969 0.3281
vt 0.4219 0.3281
vt 0.4219 0.3438
vt 0.2969 0.3438
vt 0.2969 0.3281
vt 0.4219 0.3281
vt 0.4219 0.3438
vt 0.2969 0.3438
vt 0.2969 0.3281
vt 0.4219 0.3281
vt 0.4219 0.3438
vt 0.2969 0.3438
vt 0.2969 0.3281
vt 0.4219 0.2188
vt 0.4219 0.3438
vt 0.2969 0.3438
vt 0.2969 0.2188
vt 0.4219 0.2188
vt 0.4219 0.3438
vt 0.2969 0.3438
vt 0.2969 0.2188
vt 0.4219 0.3281
vt 0.4219 0.3438
vt 0.2969 0.3438
vt 0.2969 0.3281
vt 0.4219 0.3281
vt 0.4219 0.3438
vt 0.2969 0.3438
vt 0.2969 0.3281
vt 0 0.8594
vt 0 1
vt 0.1875 1
vt 0.1875 0.8594
vt 0.375 0.8594
vt 0.375 1
vt 0.1875 1
vt 0.1875 0.8594
vt 0.1875 1
vt 0 1
vt 0 0.9844
vt 0.1875 0.9844
vt 0.375 0.8594
vt 0.375 1
vt 0.3594 1
vt 0.3594 0.8594
vt 0.2031 0.8594
vt 0.2031 1
vt 0.1875 1
vt 0.1875 0.8594
vt 0 0.8125
vt 0 0.9219
vt 0.1875 0.9219
vt 0.1875 0.8125
vt 0.375 0.7656
vt 0.375 0.875
vt 0.1875 0.875
vt 0.1875 0.7656
vt 0.0156 0.8125
vt 0.0156 1
vt 0 1
vt 0 0.8125
vt 0.375 0.75
vt 0.375 0.8594
vt 0.3594 0.8594
vt 0.3594 0.75
vt 0.2031 0.7656
vt 0.2031 0.875
vt 0.1875 0.875
vt 0.1875 0.7656
vt 0.1875 0.6957
vt 0.1875 0.7656
vt 0.375 0.7656
vt 0.375 0.6957
vt 0.375 0.6957
vt 0.375 0.7656
vt 0.1875 0.7656
vt 0.1875 0.6957
vt 0.375 0.7031
vt 0.1875 0.7031
vt 0.1875 0.6875
vt 0.375 0.6875
vt 0.375 0.6875
vt 0.375 0.75
vt 0.3594 0.75
vt 0.3594 0.6875
vt 0.2031 0.6875
vt 0.2031 0.7656
vt 0.1875 0.7656
vt 0.1875 0.6875
vt 0 0.8125
vt 0 0.9219
vt 0.1875 0.9219
vt 0.1875 0.8125
vt 0.1875 0.7656
vt 0.1875 0.875
vt 0 0.875
vt 0 0.7656
vt 0.0156 0.8125
vt 0.0156 1
vt 0 1
vt 0 0.8125
vt 0.1875 0.75
vt 0.1875 0.8594
vt 0.1719 0.8594
vt 0.1719 0.75
vt 0.0156 0.7188
vt 0.0156 0.8281
vt 0 0.8281
vt 0 0.7188
vt 0.0469 0.6957
vt 0 0.7656
vt 0.1875 0.7656
vt 0.1875 0.6957
vt 0.1875 0.6957
vt 0.1875 0.7656
vt 0 0.7656
vt 0.0469 0.6957
vt 0.0156 0.8438
vt 0.0156 0.9688
vt 0 0.9688
vt 0 0.8438
vt 0.1875 0.6875
vt 0.1875 0.75
vt 0.1719 0.75
vt 0.1719 0.6875
vt 0.0156 0.7188
vt 0.0156 0.8125
vt 0 0.8125
vt 0 0.7188
vt 0 0.8594
vt 0 1
vt 0.1875 1
vt 0.1875 0.8594
vt 0.1875 0.8594
vt 0.1875 1
vt 0 1
vt 0 0.8594
vt 0.1875 1
vt 0 1
vt 0 0.9844
vt 0.1875 0.9844
vt 0.1875 0.8594
vt 0.1875 1
vt 0.1719 1
vt 0.1719 0.8594
vt 0.0156 0.8594
vt 0.0156 1
vt 0 1
vt 0 0.8594
vt 0.0156 0.8125
vt 0.0156 1
vt 0 1
vt 0 0.8125
vt 0.0156 0.8125
vt 0.0156 1
vt 0 1
vt 0 0.8125
vt 0.1875 0.9844
vt 0.1875 1
vt 0 1
vt 0 0.9844
vt 0.4375 0
vt 0.4375 0.1875
vt 0.25 0.1875
vt 0.25 0
vt 0.4375 0
vt 0.4375 0.1875
vt 0.25 0.1875
vt 0.25 0
vt 0.7031 0.8125
vt 0.7031 0.9063
vt 0.6094 0.9063
vt 0.6094 0.8125
vt 0.7031 0.8125
vt 0.7031 0.9063
vt 0.6094 0.9063
vt 0.6094 0.8125
vt 0.6875 0.9063
vt 0.6875 1
vt 0.625 1
vt 0.625 0.9063
vt 0.6875 0.9063
vt 0.6875 1
vt 0.625 1
vt 0.625 0.9063
vt 0.6875 0.9063
vt 0.6875 1
vt 0.625 1
vt 0.625 0.9063
vt 0.9531 0.9688
vt 0.9531 1
vt 0.7969 1
vt 0.7969 0.9688
vt 0.9531 0.9688
vt 0.9531 1
vt 0.7969 1
vt 0.7969 0.9688
vt 0.7188 0.7656
vt 0.8594 0.7656
vt 0.8594 0.9219
vt 0.7188 0.9219
vt 0.7188 0.9219
vt 0.8594 0.9219
vt 0.8594 0.7656
vt 0.7188 0.7656
vt 0 0.9688
vt 0.1406 0.9688
vt 0.1406 1
vt 0 1
vt 0.2813 1
vt 0.1406 1
vt 0.1406 0.9688
vt 0.2813 0.9688
vt 1 0.9219
vt 0.8594 0.9219
vt 0.8594 0.7656
vt 1 0.7656
vt 0.2813 1
vt 0.1406 1
vt 0.1406 0.9688
vt 0.2813 0.9688
vt 1 0.7656
vt 0.8594 0.7656
vt 0.8594 0.9219
vt 1 0.9219
vt 0 0.9688
vt 0.1406 0.9688
vt 0.1406 1
vt 0 1
vt 0.875 1
vt 0.7969 1
vt 0.7969 0.9688
vt 0.875 0.9688
vt 0.8906 0.9688
vt 0.8906 1
vt 0.8125 1
vt 0.8125 0.9688
vt 0.7715 0.9688
vt 0.9473 0.9688
vt 1 0.9063
vt 0.7188 0.9063
vt 1 0.9063
vt 0.9473 0.9688
vt 0.7715 0.9688
vt 0.7188 0.9063
vt 0.9844 0.9688
vt 0.9844 1
vt 0.8125 1
vt 0.8125 0.9688
vt 0.25 1
vt 0 1
vt 0 0.875
vt 0.25 0.875
vt 0.8594 1
vt 0.7813 1
vt 0.7813 0.9688
vt 0.8594 0.9688
vt 1 0.9688
vt 1 1
vt 0.9219 1
vt 0.9219 0.9688
vt 0.7715 0.6875
vt 0.9473 0.6875
vt 1 0.75
vt 0.7188 0.75
vt 1 0.75
vt 0.9473 0.6875
vt 0.7715 0.6875
vt 0.7188 0.75
vt 0.9531 0.9688
vt 0.9531 1
vt 0.7813 1
vt 0.7813 0.9688
vt 0.25 1
vt 0 1
vt 0 0.875
vt 0.25 0.875
vt 0.7813 0.2969
vt 0.4219 0.2969
vt 0.4219 0.3438
vt 0.7813 0.3438
vt 0.7813 0.3438
vt 0.4219 0.3438
vt 0.4219 0.2969
vt 0.7813 0.2969
vt 0.7656 0.3438
vt 0.7656 0.2969
vt 0.7813 0.2969
vt 0.7813 0.3438
vt 0.7813 0.3281
vt 0.4219 0.3281
vt 0.4219 0.3438
vt 0.7813 0.3438
vt 0.7813 0.2969
vt 0.4219 0.2969
vt 0.4219 0.3125
vt 0.7813 0.3125
vt 0.4531 0.2188
vt 0.4219 0.2188
vt 0.4219 0.2969
vt 0.4531 0.2969
vt 0.4375 0.2969
vt 0.4688 0.2969
vt 0.4688 0.2188
vt 0.4375 0.2188
vt 0.4219 0.2969
vt 0.4219 0.2188
vt 0.4688 0.2188
vt 0.4688 0.2969
vt 0.4688 0.2188
vt 0.4688 0.2969
vt 0.4219 0.2969
vt 0.4219 0.2188
vt 0.4219 0.2656
vt 0.4219 0.2969
vt 0.4688 0.2969
vt 0.4688 0.2656
vt 0.4688 0.25
vt 0.4688 0.2188
vt 0.4219 0.2188
vt 0.4219 0.25
vt 0.6719 0.125
vt 0.7344 0.125
vt 0.7344 0.0469
vt 0.6719 0.0469
vt 0.7344 0.0469
vt 0.6719 0.0469
vt 0.6719 0.125
vt 0.7344 0.125
vt 0.7344 0.0469
vt 0.7344 0.125
vt 0.6719 0.125
vt 0.6719 0.0469
vt 0.7344 0.0469
vt 0.7344 0.125
vt 0.6719 0.125
vt 0.6719 0.0469
vt 0.7188 0.0156
vt 0.7188 0.0469
vt 0.6875 0.0469
vt 0.6875 0.0156
vt 0.7344 0
vt 0.7344 0.0625
vt 0.7969 0.0625
vt 0.7969 0
vt 0.7188 0.0469
vt 0.7188 0.0156
vt 0.7344 0
vt 0.7344 0.0625
vt 0.6875 0.0469
vt 0.7188 0.0469
vt 0.7344 0.0625
vt 0.6719 0.0625
vt 0.6875 0.0156
vt 0.6875 0.0469
vt 0.6719 0.0625
vt 0.6719 0
vt 0.7188 0.0156
vt 0.6875 0.0156
vt 0.6719 0
vt 0.7344 0
vt 0.7188 0.0469
vt 0.7188 0.0156
vt 0.7344 0.0156
vt 0.7344 0.0469
vt 0.6875 0.0469
vt 0.7188 0.0469
vt 0.7188 0.0625
vt 0.6875 0.0625
vt 0.6875 0.0156
vt 0.6875 0.0469
vt 0.6719 0.0469
vt 0.6719 0.0156
vt 0.7188 0.0156
vt 0.6875 0.0156
vt 0.6875 0
vt 0.7188 0
vt 0.8594 0.125
vt 0.8125 0.125
vt 0.8125 0.1094
vt 0.8594 0.1094
vt 0.8125 0.125
vt 0.8594 0.125
vt 0.8594 0.1094
vt 0.8125 0.1094
vt 0.8594 0.125
vt 0.8438 0.125
vt 0.8438 0.1094
vt 0.8594 0.1094
vt 0.8281 0.125
vt 0.8125 0.125
vt 0.8125 0.1094
vt 0.8281 0.1094
vt 0.8125 0.1094
vt 0.8125 0.1406
vt 0.7344 0.1406
vt 0.7344 0.1094
vt 0.8125 0.1094
vt 0.8125 0.1406
vt 0.7344 0.1406
vt 0.7344 0.1094
vt 0.7344 0.125
vt 0.8125 0.125
vt 0.8125 0.1406
vt 0.7344 0.1406
vt 0.7344 0.1094
vt 0.8125 0.1094
vt 0.8125 0.125
vt 0.7344 0.125
vt 0.8125 0.1094
vt 0.8125 0.1406
vt 0.7969 0.1406
vt 0.7969 0.1094
vt 0.75 0.1094
vt 0.75 0.1406
vt 0.7344 0.1406
vt 0.7344 0.1094
vt 0.0625 0.3906
vt 0.1875 0.3906
vt 0.1875 0.4375
vt 0.0625 0.4375
vt 0.1875 0.4375
vt 0.0625 0.4375
vt 0.0625 0.3906
vt 0.1875 0.3906
vt 0.1719 0.4375
vt 0.1719 0.3906
vt 0.1875 0.3906
vt 0.1875 0.4375
vt 0.0625 0.3906
vt 0.0625 0.4375
vt 0.0781 0.4375
vt 0.0781 0.3906
vt 0.0625 0.4219
vt 0.1875 0.4219
vt 0.1875 0.4375
vt 0.0625 0.4375
vt 0.0625 0.3906
vt 0.1875 0.3906
vt 0.1875 0.4063
vt 0.0625 0.4063
vt 0.1406 0.0938
vt 0.1406 0.1875
vt 0.125 0.1875
vt 0.125 0.0938
vt 0.0156 0.0938
vt 0.0156 0.1875
vt 0 0.1875
vt 0 0.0938
vt 0.1406 0.1719
vt 0.1406 0.1875
vt 0 0.1875
vt 0 0.1719
vt 0.1406 0.0938
vt 0.1406 0.1094
vt 0 0.1094
vt 0 0.0938
vt 0.1406 0.0938
vt 0.1406 0.1875
vt 0 0.1875
vt 0 0.0938
vt 0.8438 0.0625
vt 0.8594 0.0625
vt 0.8594 0.0156
vt 0.8438 0.0156
vt 0.8438 0.0625
vt 0.8594 0.0625
vt 0.8594 0.0156
vt 0.8438 0.0156
vt 0.8438 0.0625
vt 0.8594 0.0625
vt 0.8594 0.0156
vt 0.8438 0.0156
vn 0 0 1
vn 0 0 -1
vn 0 1 0
vn 0 -1 0
vn -1 0 0
vn 1 0 0
vn 0 0 1
vn 0 0 -1
vn 0 1 0
vn 0 -1 0
vn -1 0 0
vn 1 0 0
vn 0 -0.41 0.91
vn 0 0.41 -0.91
vn 0 1 0
vn -1 0 0
vn 1 0 0
vn 0 0.39 0.92
vn 0 -0.39 -0.92
vn 0 -1 0
vn -1 0 0
vn 1 0 0
vn 0 0.45 0.89
vn 0 -0.45 -0.89
vn 0 -1 0
vn -1 0 0
vn 1 0 0
vn 0 0.39 0.92
vn 0 -0.39 -0.92
vn 0 -1 0
vn -1 0 0
vn 1 0 0
vn 0 0.45 0.89
vn 0 -0.45 -0.89
vn 0 -1 0
vn -1 0 0
vn 0.8 -0.6 0
vn 0 -0.41 0.91
vn 0 0.41 -0.91
vn 0 1 0
vn -1 0 0
vn 1 0 0
vn 0 0 1
vn 0 0 -1
vn 0 1 0
vn -1 0 0
vn 1 0 0
vn 0 0 1
vn 0 0 -1
vn 0 1 0
vn -1 0 0
vn 1 0 0
vn 0 0 1
vn 0 0 -1
vn 0 1 0
vn 0 -1 0
vn -1 0 0
vn 1 0 0
vn 0 1 0
vn -1 0 0
vn 0 -1 0
vn 1 0 0
vn 0.64 0 -0.76
vn 0.64 0 0.76
vn 0 1 0
vn 0 -1 0
vn 1 0 0
vn -1 0 0
vn -0.64 0 0.76
vn -0.64 0 -0.76
vn 0 1 0
vn 0 -1 0
vn -1 0 0
vn 1 0 0
vn 1 0 0
vn -1 0 0
vn 0 1 0
vn 0 0 1
vn 0 0 -1
vn 1 0 0
vn -1 0 0
vn 0 1 0
vn 0 -1 0
vn 0 0 1
vn 0 0 -1
vn 1 0 0
vn -1 0 0
vn 0 0.92 0.38
vn 0 -0.92 -0.38
vn 0 -0.38 0.92
vn 0 0.38 -0.92
vn 0 -0.38 0.92
vn 0 -0.38 0.92
vn 0 -0.38 0.92
vn 0 -0.38 0.92
vn -1 0 0
vn 0 -0.92 -0.38
vn 1 0 0
vn 0 0.92 0.38
vn 0 0.92 0.38
vn 0 -0.92 -0.38
vn 0 -0.38 0.92
vn 0 0.38 -0.92
vn 1 0 0
vn -1 0 0
vn 0 0.92 0.38
vn 0 -0.92 -0.38
vn 0 -0.38 0.92
vn 0 0.38 -0.92
vn 1 0 0
vn -1 0 0
vn 0 0.94 0.34
vn 0 -0.94 -0.34
vn 0 -0.34 0.94
vn 0 0.34 -0.94
vn 1 0 0
vn -1 0 0
vn 0 0.91 0.42
vn 0 -0.91 -0.42
vn 0 -0.42 0.91
vn 0 1 0
vn 0 -1 0
vn 0 0 1
usemtl anti_aircraft_gun_painted
f 100/261/66 98/262/66 97/263/66 99/264/66
f 103/265/67 101/266/67 102/267/67 104/268/67
f 97/269/68 98/270/68 102/271/68 101/272/68
f 100/273/69 99/274/69 103/275/69 104/276/69
f 99/277/70 97/278/70 101/279/70 103/280/70
f 104/281/71 102/282/71 98/283/71 100/284/71
f 108/285/72 106/286/72 105/287/72 107/288/72
f 111/289/73 109/290/73 110/291/73 112/292/73
f 105/293/74 106/294/74 110/295/74 109/296/74
f 108/297/75 107/298/75 111/299/75 112/300/75
f 107/301/76 105/302/76 109/303/76 111/304/76
f 112/305/77 110/306/77 106/307/77 108/308/77
f 116/309/78 114/310/78 113/311/78 115/312/78
f 119/313/79 117/314/79 118/315/79 120/316/79
f 113/317/80 114/318/80 118/319/80 117/320/80
f 115/321/81 113/322/81 117/323/81 119/324/81
f 120/325/82 118/326/82 114/327/82 116/328/82
f 124/329/83 122/330/83 121/331/83 123/332/83
f 127/333/84 125/334/84 126/335/84 128/336/84
f 124/337/85 123/338/85 127/339/85 128/340/85
f 123/341/86 121/342/86 125/343/86 127/344/86
f 128/345/87 126/346/87 122/347/87 124/348/87
f 132/349/88 130/350/88 129/351/88 131/352/88
f 135/353/89 133/354/89 134/355/89 136/356/89
f 132/357/90 131/358/90 135/359/90 136/360/90
f 131/361/91 129/362/91 133/363/91 135/364/91
f 136/365/92 134/366/92 130/367/92 132/368/92
f 140/369/93 138/370/93 137/371/93 139/372/93
f 143/373/94 141/374/94 142/375/94 144/376/94
f 140/377/95 139/378/95 143/379/95 144/380/95
f 139/381/96 137/382/96 141/383/96 143/384/96
f 144/385/97 142/386/97 138/387/97 140/388/97
f 148/389/98 146/390/98 145/391/98 147/392/98
f 151/393/99 149/394/99 150/395/99 152/396/99
f 148/397/100 147/398/100 151/399/100 152/400/100
f 147/401/101 145/402/101 149/403/101 151/404/101
f 152/405/102 150/406/102 146/407/102 148/408/102
f 156/409/103 154/410/103 153/411/103 155/412/103
f 159/413/104 157/414/104 158/415/104 160/416/104
f 153/417/105 154/418/105 158/419/105 157/420/105
f 155/421/106 153/422/106 157/423/106 159/424/106
f 160/425/107 158/426/107 154/427/107 156/428/107
usemtl anti_aircraft_gun
f 164/429/108 162/430/108 161/431/108 163/432/108
f 167/433/109 165/434/109 166/435/109 168/436/109
f 161/437/110 162/438/110 166/439/110 165/440/110
f 163/441/111 161/442/111 165/443/111 167/444/111
f 168/445/112 166/446/112 162/447/112 164/448/112
f 172/449/113 170/450/113 169/451/113 171/452/113
f 175/453/114 173/454/114 174/455/114 176/456/114
f 169/457/115 170/458/115 174/459/115 173/460/115
f 171/461/116 169/462/116 173/463/116 175/464/116
f 176/465/117 174/466/117 170/467/117 172/468/117
usemtl anti_aircraft_gun_painted
f 180/469/118 178/470/118 177/471/118 179/472/118
f 183/473/119 181/474/119 182/475/119 184/476/119
usemtl anti_aircraft_gun
f 181/477/120 186/478/120 185/479/120 182/480/120
usemtl anti_aircraft_gun_painted
f 184/481/121 188/482/121 187/483/121 183/484/121
f 183/485/122 187/486/122 186/487/122 181/488/122
f 182/489/123 185/490/123 188/491/123 184/492/123
usemtl anti_aircraft_gun
f 178/493/124 185/494/124 186/495/124 177/496/124
usemtl anti_aircraft_gun_painted
f 177/497/125 186/498/125 187/499/125 179/500/125
f 179/501/126 187/502/126 188/503/126 180/504/126
f 180/505/127 188/506/127 185/507/127 178/508/127
f 190/509/128 189/510/128 191/511/128 192/512/128
f 195/513/129 193/514/129 194/515/129 196/516/129
usemtl anti_aircraft_gun
f 193/517/130 189/518/130 190/519/130 194/520/130
usemtl anti_aircraft_gun_painted
f 192/521/131 191/522/131 195/523/131 196/524/131
f 191/525/132 189/526/132 193/527/132 195/528/132
f 194/529/133 190/530/133 192/531/133 196/532/133
f 198/533/134 197/534/134 199/535/134 200/536/134
f 203/537/135 201/538/135 202/539/135 204/540/135
usemtl anti_aircraft_gun
f 201/541/136 197/542/136 198/543/136 202/544/136
usemtl anti_aircraft_gun_painted
f 200/545/137 199/546/137 203/547/137 204/548/137
f 199/549/138 197/550/138 201/551/138 203/552/138
f 202/553/139 198/554/139 200/555/139 204/556/139
f 208/557/140 206/558/140 205/559/140 207/560/140
f 211/561/141 209/562/141 210/563/141 212/564/141
f 205/565/142 206/566/142 210/567/142 209/568/142
f 207/569/143 205/570/143 209/571/143 211/572/143
f 212/573/144 210/574/144 206/575/144 208/576/144
f 216/577/145 214/578/145 213/579/145 215/580/145
f 219/581/146 217/582/146 218/583/146 220/584/146
f 213/585/147 214/586/147 218/587/147 217/588/147
f 216/589/148 215/590/148 219/591/148 220/592/148
f 215/593/149 213/594/149 217/595/149 219/596/149
f 220/597/150 218/598/150 214/599/150 216/600/150
f 224/601/151 222/602/151 221/603/151 223/604/151
f 227/605/152 225/606/152 226/607/152 228/608/152
f 221/609/153 222/610/153 226/611/153 225/612/153
f 224/613/154 223/614/154 227/615/154 228/616/154
f 235/617/155 233/618/155 234/619/155 236/620/155
f 228/621/156 226/622/156 222/623/156 224/624/156
f 229/625/157 231/626/157 223/627/157 221/628/157
f 230/629/158 229/630/158 221/631/158 225/632/158
f 232/633/159 230/634/159 225/635/159 227/636/159
f 231/637/160 232/638/160 227/639/160 223/640/160
f 233/641/161 235/642/161 231/643/161 229/644/161
f 234/645/162 233/646/162 229/647/162 230/648/162
f 236/649/163 234/650/163 230/651/163 232/652/163
f 235/653/164 236/654/164 232/655/164 231/656/164
f 237/657/165 238/658/165 242/659/165 241/660/165
f 240/661/166 239/662/166 243/663/166 244/664/166
f 239/665/167 237/666/167 241/667/167 243/668/167
f 244/669/168 242/670/168 238/671/168 240/672/168
f 248/673/169 246/674/169 245/675/169 247/676/169
f 251/677/170 249/678/170 250/679/170 252/680/170
f 245/681/171 246/682/171 250/683/171 249/684/171
f 248/685/172 247/686/172 251/687/172 252/688/172
f 247/689/173 245/690/173 249/691/173 251/692/173
f 252/693/174 250/694/174 246/695/174 248/696/174
f 256/697/175 254/698/175 253/699/175 255/700/175
f 259/701/176 257/702/176 258/703/176 260/704/176
f 253/705/177 254/706/177 258/707/177 257/708/177
f 256/709/178 255/710/178 259/711/178 260/712/178
f 255/713/179 253/714/179 257/715/179 259/716/179
f 260/717/180 258/718/180 254/719/180 256/720/180
f 264/721/181 262/722/181 261/723/181 263/724/181
f 267/725/182 265/726/182 266/727/182 268/728/182
f 261/729/183 262/730/183 266/731/183 265/732/183
f 264/733/184 263/734/184 267/735/184 268/736/184
f 263/737/185 261/738/185 265/739/185 267/740/185
f 274/741/186 270/742/186 269/743/186 273/744/186
f 275/745/187 271/746/187 272/747/187 276/748/187
f 270/749/188 274/750/188 276/751/188 272/752/188
o gun
v 0.0158 1.2188 -0.8823
v 0.0158 1.2188 -1.0073
v 0.0158 0.7188 -0.6948
v 0.0158 0.7188 -0.8198
v -0.2967 1.2188 -0.8823
v -0.2967 1.2188 -1.0073
v -0.2967 0.7188 -0.6948
v -0.2967 0.7188 -0.8198
v 0.3908 1.2188 -0.8823
v 0.3908 1.2188 -1.0073
v 0.3908 0.7188 -0.6948
v 0.3908 0.7188 -0.8198
v 0.0783 1.2188 -0.8823
v 0.0783 1.2188 -1.0073
v 0.0783 0.7188 -0.6948
v 0.0783 0.7188 -0.8198
v 0.3908 1.7188 -0.6323
v 0.3908 1.7188 -0.7573
v 0.3908 1.2188 -0.8823
v 0.3908 1.2188 -1.0073
v 0.0783 1.7188 -0.6323
v 0.0783 1.7188 -0.7573
v 0.0783 1.2188 -0.8823
v 0.0783 1.2188 -1.0073
v 0.0158 1.7188 -0.6323
v 0.0158 1.7188 -0.7573
v 0.0158 1.2188 -0.8823
v 0.0158 1.2188 -1.0073
v -0.2967 1.7188 -0.6323
v -0.2967 1.7188 -0.7573
v -0.2967 1.2188 -0.8823
v -0.2967 1.2188 -1.0073
v 0.1095 1.3438 -0.2198
v 0.3595 1.3438 -0.2198
v 0.1095 1.2813 -0.2198
v 0.3595 1.2813 -0.2198
v 0.1095 1.3438 -0.7198
v 0.3595 1.3438 -0.7198
v 0.1095 1.2813 -0.7198
v 0.3595 1.2813 -0.7198
v 0.3595 1.3438 -0.4698
v 0.1095 1.3438 -0.4698
v 0.1095 1.2813 -0.4698
v 0.3595 1.2813 -0.4698
v 0.3898 1.2813 -0.1793
v 0.3898 1.2813 -0.8043
v 0.3898 1.0313 -0.1793
v 0.3898 1.0313 -0.8043
v 0.0773 1.2813 -0.1793
v 0.0773 1.2813 -0.8043
v 0.0773 1.0313 -0.1793
v 0.0773 1.0313 -0.8043
v 0.2648 1.2813 -0.1793
v 0.2648 1.0313 -0.1793
v 0.2648 1.0313 -0.8043
v 0.2648 1.2813 -0.8043
v 0.3273 1.25 -0.8043
v 0.3273 1.25 -1.3043
v 0.3273 1.0625 -0.8043
v 0.3273 1.0625 -1.3043
v 0.1398 1.25 -0.8043
v 0.1398 1.25 -1.3043
v 0.1398 1.0625 -0.8043
v 0.1398 1.0625 -1.3043
v 0.171 1.2188 -1.3668
v 0.1398 1.25 -1.3043
v 0.171 1.0938 -1.3668
v 0.1398 1.0625 -1.3043
v 0.296 1.2188 -1.3668
v 0.3273 1.25 -1.3043
v 0.296 1.0938 -1.3668
v 0.3273 1.0625 -1.3043
v -0.2655 1.3438 -0.2198
v -0.0155 1.3438 -0.2198
v -0.2655 1.2813 -0.2198
v -0.0155 1.2813 -0.2198
v -0.2655 1.3438 -0.7198
v -0.0155 1.3438 -0.7198
v -0.2655 1.2813 -0.7198
v -0.0155 1.2813 -0.7198
v -0.0155 1.3438 -0.4698
v -0.2655 1.3438 -0.4698
v -0.2655 1.2813 -0.4698
v -0.0155 1.2813 -0.4698
v 0.0148 1.2813 -0.1793
v 0.0148 1.2813 -0.8043
v 0.0148 1.0313 -0.1793
v 0.0148 1.0313 -0.8043
v -0.2977 1.2813 -0.1793
v -0.2977 1.2813 -0.8043
v -0.2977 1.0313 -0.1793
v -0.2977 1.0313 -0.8043
v -0.1102 1.2813 -0.1793
v -0.1102 1.0313 -0.1793
v -0.1102 1.0313 -0.8043
v -0.1102 1.2813 -0.8043
v -0.0477 1.25 -0.8043
v -0.0477 1.25 -1.3043
v -0.0477 1.0625 -0.8043
v -0.0477 1.0625 -1.3043
v -0.2352 1.25 -0.8043
v -0.2352 1.25 -1.3043
v -0.2352 1.0625 -0.8043
v -0.2352 1.0625 -1.3043
v -0.204 1.2188 -1.3668
v -0.2352 1.25 -1.3043
v -0.204 1.0938 -1.3668
v -0.2352 1.0625 -1.3043
v -0.079 1.2188 -1.3668
v -0.0477 1.25 -1.3043
v -0.079 1.0938 -1.3668
v -0.0477 1.0625 -1.3043
vt 0.5938 1
vt 0.5625 1
vt 0.5625 0.8594
vt 0.5938 0.8594
vt 0.5625 1
vt 0.5625 0.8594
vt 0.5313 0.8594
vt 0.5313 1
vt 0.4531 0.9688
vt 0.4531 1
vt 0.5313 1
vt 0.5313 0.9688
vt 0.375 1
vt 0.375 0.8602
vt 0.4531 0.8602
vt 0.4531 1
vt 0.4531 0.8602
vt 0.375 0.8602
vt 0.375 1
vt 0.4531 1
vt 0.5938 0.8594
vt 0.5625 0.8594
vt 0.5625 1
vt 0.5938 1
vt 0.5625 1
vt 0.5625 0.8594
vt 0.5313 0.8594
vt 0.5313 1
vt 0.4531 0.9688
vt 0.4531 1
vt 0.5313 1
vt 0.5313 0.9688
vt 0.375 1
vt 0.375 0.8602
vt 0.4531 0.8602
vt 0.4531 1
vt 0.4531 0.8602
vt 0.375 0.8602
vt 0.375 1
vt 0.4531 1
vt 0.5938 1
vt 0.5625 1
vt 0.5625 0.8594
vt 0.5938 0.8594
vt 0.5625 0.8594
vt 0.5625 1
vt 0.5313 1
vt 0.5313 0.8594
vt 0.5313 0.9688
vt 0.4531 0.9688
vt 0.4531 1
vt 0.5313 1
vt 0.375 0.8602
vt 0.375 1
vt 0.4531 1
vt 0.4531 0.8602
vt 0.4531 1
vt 0.375 1
vt 0.375 0.8602
vt 0.4531 0.8602
vt 0.5938 1
vt 0.5625 1
vt 0.5625 0.8594
vt 0.5938 0.8594
vt 0.5625 0.8594
vt 0.5625 1
vt 0.5313 1
vt 0.5313 0.8594
vt 0.5313 0.9688
vt 0.4531 0.9688
vt 0.4531 1
vt 0.5313 1
vt 0.375 0.8602
vt 0.375 1
vt 0.4531 1
vt 0.4531 0.8602
vt 0.4531 1
vt 0.375 1
vt 0.375 0.8602
vt 0.4531 0.8602
vt 0.6094 0.0938
vt 0.6094 0.125
vt 0.5469 0.125
vt 0.5469 0.0938
vt 0.5625 0.0938
vt 0.5625 0.125
vt 0.5 0.125
vt 0.5 0.0938
vt 0.4531 0.1094
vt 0.5156 0.1094
vt 0.5156 0.1719
vt 0.4531 0.1719
vt 0.4531 0.0938
vt 0.5156 0.0938
vt 0.5156 0.125
vt 0.4531 0.125
vt 0.5625 0.125
vt 0.5 0.125
vt 0.5 0.0938
vt 0.5625 0.0938
vt 0.6094 0.1719
vt 0.5469 0.1719
vt 0.5469 0.1094
vt 0.6094 0.1094
vt 0.6094 0.125
vt 0.5469 0.125
vt 0.5469 0.0938
vt 0.6094 0.0938
vt 0.5156 0.0938
vt 0.5781 0.0938
vt 0.5781 0.125
vt 0.5156 0.125
vt 0.0781 0.6875
vt 0.0156 0.6875
vt 0.0156 0.5313
vt 0.0781 0.5313
vt 0.0781 0.6875
vt 0.0156 0.6875
vt 0.0156 0.5313
vt 0.0781 0.5313
vt 0.0156 0.5313
vt 0.0625 0.5313
vt 0.0625 0.6875
vt 0.0156 0.6875
vt 0 0.5313
vt 0.0469 0.5313
vt 0.0469 0.6875
vt 0 0.6875
vt 0 0.4688
vt 0.0469 0.4688
vt 0.0469 0.5313
vt 0 0.5313
vt 0.125 0.5313
vt 0.0781 0.5313
vt 0.0781 0.4688
vt 0.125 0.4688
vt 0.125 0.5313
vt 0.0938 0.5313
vt 0.0938 0.4688
vt 0.125 0.4688
vt 0.0781 0.6875
vt 0.0469 0.6875
vt 0.0469 0.5313
vt 0.0781 0.5313
vt 0 0.4688
vt 0.0313 0.4688
vt 0.0313 0.5313
vt 0 0.5313
vt 0.0938 0.6875
vt 0.0625 0.6875
vt 0.0625 0.5313
vt 0.0938 0.5313
vt 0.1563 0.5469
vt 0.2031 0.5469
vt 0.2031 0.6719
vt 0.1563 0.6719
vt 0.2031 0.6719
vt 0.1563 0.6719
vt 0.1563 0.5469
vt 0.2031 0.5469
vt 0.2031 0.5469
vt 0.2031 0.6719
vt 0.1563 0.6719
vt 0.1563 0.5469
vt 0.1563 0.6719
vt 0.1563 0.5469
vt 0.2031 0.5469
vt 0.2031 0.6719
vt 0.9219 0.1875
vt 0.9219 0.2344
vt 0.875 0.2344
vt 0.875 0.1875
vt 0.875 0.1875
vt 0.875 0.2344
vt 0.8281 0.2344
vt 0.8281 0.1875
vt 0.1563 0.5938
vt 0.1641 0.5781
vt 0.1953 0.5781
vt 0.2031 0.5938
vt 0.1641 0.6094
vt 0.1953 0.6094
vt 0.2031 0.625
vt 0.1563 0.625
vt 0.1953 0.625
vt 0.1641 0.625
vt 0.1563 0.6094
vt 0.2031 0.6094
vt 0.2031 0.6075
vt 0.1953 0.625
vt 0.1641 0.625
vt 0.1563 0.6075
vt 0.1875 0.5938
vt 0.1875 0.625
vt 0.1563 0.625
vt 0.1563 0.5938
vt 0.2031 0.6406
vt 0.1563 0.6406
vt 0.1563 0.5938
vt 0.2031 0.5938
vt 0.6094 0.0938
vt 0.6094 0.125
vt 0.5469 0.125
vt 0.5469 0.0938
vt 0.5625 0.0938
vt 0.5625 0.125
vt 0.5 0.125
vt 0.5 0.0938
vt 0.4531 0.1094
vt 0.5156 0.1094
vt 0.5156 0.1719
vt 0.4531 0.1719
vt 0.4531 0.0938
vt 0.5156 0.0938
vt 0.5156 0.125
vt 0.4531 0.125
vt 0.5625 0.125
vt 0.5 0.125
vt 0.5 0.0938
vt 0.5625 0.0938
vt 0.6094 0.1719
vt 0.5469 0.1719
vt 0.5469 0.1094
vt 0.6094 0.1094
vt 0.6094 0.125
vt 0.5469 0.125
vt 0.5469 0.0938
vt 0.6094 0.0938
vt 0.5156 0.0938
vt 0.5781 0.0938
vt 0.5781 0.125
vt 0.5156 0.125
vt 0.0781 0.6875
vt 0.0156 0.6875
vt 0.0156 0.5313
vt 0.0781 0.5313
vt 0.0781 0.6875
vt 0.0156 0.6875
vt 0.0156 0.5313
vt 0.0781 0.5313
vt 0.0156 0.5313
vt 0.0625 0.5313
vt 0.0625 0.6875
vt 0.0156 0.6875
vt 0 0.5313
vt 0.0469 0.5313
vt 0.0469 0.6875
vt 0 0.6875
vt 0 0.4688
vt 0.0469 0.4688
vt 0.0469 0.5313
vt 0 0.5313
vt 0.125 0.5313
vt 0.0781 0.5313
vt 0.0781 0.4688
vt 0.125 0.4688
vt 0.125 0.5313
vt 0.0938 0.5313
vt 0.0938 0.4688
vt 0.125 0.4688
vt 0.0781 0.6875
vt 0.0469 0.6875
vt 0.0469 0.5313
vt 0.0781 0.5313
vt 0 0.4688
vt 0.0313 0.4688
vt 0.0313 0.5313
vt 0 0.5313
vt 0.0938 0.6875
vt 0.0625 0.6875
vt 0.0625 0.5313
vt 0.0938 0.5313
vt 0.1563 0.5469
vt 0.2031 0.5469
vt 0.2031 0.6719
vt 0.1563 0.6719
vt 0.2031 0.6719
vt 0.1563 0.6719
vt 0.1563 0.5469
vt 0.2031 0.5469
vt 0.2031 0.5469
vt 0.2031 0.6719
vt 0.1563 0.6719
vt 0.1563 0.5469
vt 0.1563 0.6719
vt 0.1563 0.5469
vt 0.2031 0.5469
vt 0.2031 0.6719
vt 0.9219 0.1875
vt 0.9219 0.2344
vt 0.875 0.2344
vt 0.875 0.1875
vt 0.875 0.1875
vt 0.875 0.2344
vt 0.8281 0.2344
vt 0.8281 0.1875
vt 0.1563 0.5938
vt 0.1641 0.5781
vt 0.1953 0.5781
vt 0.2031 0.5938
vt 0.1641 0.6094
vt 0.1953 0.6094
vt 0.2031 0.625
vt 0.1563 0.625
vt 0.1953 0.625
vt 0.1641 0.625
vt 0.1563 0.6094
vt 0.2031 0.6094
vt 0.2031 0.6075
vt 0.1953 0.625
vt 0.1641 0.625
vt 0.1563 0.6075
vt 0.1875 0.5938
vt 0.1875 0.625
vt 0.1563 0.625
vt 0.1563 0.5938
vt 0.2031 0.6406
vt 0.1563 0.6406
vt 0.1563 0.5938
vt 0.2031 0.5938
vn 1 0 0
vn -1 0 0
vn 0 -1 0
vn 0 0.35 0.94
vn 0 -0.35 -0.94
vn 1 0 0
vn -1 0 0
vn 0 -1 0
vn 0 0.35 0.94
vn 0 -0.35 -0.94
vn 1 0 0
vn -1 0 0
vn 0 1 0
vn 0 -0.45 0.89
vn 0 0.45 -0.89
vn 1 0 0
vn -1 0 0
vn 0 1 0
vn 0 -0.45 0.89
vn 0 0.45 -0.89
vn 0 0 1
vn 0 0 -1
vn 0 1 0
vn -1 0 0
vn 1 0 0
vn 0 1 0
vn -1 0 0
vn 1 0 0
vn 1 0 0
vn -1 0 0
vn 0 1 0
vn 0 -1 0
vn 0 0 1
vn 0 0 -1
vn 0 0 1
vn 0 -1 0
vn 0 0 -1
vn 0 1 0
vn 1 0 0
vn -1 0 0
vn 0 1 0
vn 0 -1 0
vn 0 0 1
vn 0 0 -1
vn -0.89 0 -0.45
vn 0.89 0 -0.45
vn 0 0.89 -0.45
vn 0 -0.89 -0.45
vn 0 0 -1
vn 0 0 1
vn 0 0 1
vn 0 0 -1
vn 0 1 0
vn -1 0 0
vn 1 0 0
vn 0 1 0
vn -1 0 0
vn 1 0 0
vn 1 0 0
vn -1 0 0
vn 0 1 0
vn 0 -1 0
vn 0 0 1
vn 0 0 -1
vn 0 0 1
vn 0 -1 0
vn 0 0 -1
vn 0 1 0
vn 1 0 0
vn -1 0 0
vn 0 1 0
vn 0 -1 0
vn 0 0 1
vn 0 0 -1
vn -0.89 0 -0.45
vn 0.89 0 -0.45
vn 0 0.89 -0.45
vn 0 -0.89 -0.45
vn 0 0 -1
vn 0 0 1
usemtl anti_aircraft_gun_painted
f 278/753/189 277/754/189 279/755/189 280/756/189
f 283/757/190 281/758/190 282/759/190 284/760/190
f 280/761/191 279/762/191 283/763/191 284/764/191
usemtl anti_aircraft_gun
f 279/765/192 277/766/192 281/767/192 283/768/192
usemtl anti_aircraft_gun_painted
f 282/769/193 278/770/193 280/771/193 284/772/193
f 286/773/194 285/774/194 287/775/194 288/776/194
f 291/777/195 289/778/195 290/779/195 292/780/195
f 288/781/196 287/782/196 291/783/196 292/784/196
usemtl anti_aircraft_gun
f 287/785/197 285/786/197 289/787/197 291/788/197
usemtl anti_aircraft_gun_painted
f 290/789/198 286/790/198 288/791/198 292/792/198
f 294/793/199 293/794/199 295/795/199 296/796/199
f 299/797/200 297/798/200 298/799/200 300/800/200
f 297/801/201 293/802/201 294/803/201 298/804/201
usemtl anti_aircraft_gun
f 295/805/202 293/806/202 297/807/202 299/808/202
usemtl anti_aircraft_gun_painted
f 298/809/203 294/810/203 296/811/203 300/812/203
f 302/813/204 301/814/204 303/815/204 304/816/204
f 307/817/205 305/818/205 306/819/205 308/820/205
f 305/821/206 301/822/206 302/823/206 306/824/206
usemtl anti_aircraft_gun
f 303/825/207 301/826/207 305/827/207 307/828/207
usemtl anti_aircraft_gun_painted
f 306/829/208 302/830/208 304/831/208 308/832/208
f 312/833/209 310/834/209 309/835/209 311/836/209
f 315/837/210 313/838/210 314/839/210 316/840/210
f 313/841/211 318/842/211 317/843/211 314/844/211
f 315/845/212 319/846/212 318/847/212 313/848/212
f 314/849/213 317/850/213 320/851/213 316/852/213
f 310/853/214 317/854/214 318/855/214 309/856/214
f 309/857/215 318/858/215 319/859/215 311/860/215
f 312/861/216 320/862/216 317/863/216 310/864/216
f 324/865/217 322/866/217 321/867/217 323/868/217
f 327/869/218 325/870/218 326/871/218 328/872/218
f 325/873/219 329/874/219 332/875/219 326/876/219
f 328/877/220 331/878/220 330/879/220 327/880/220
f 327/881/221 330/882/221 329/883/221 325/884/221
f 326/885/222 332/886/222 331/887/222 328/888/222
f 321/889/223 329/890/223 330/891/223 323/892/223
f 323/893/224 330/894/224 331/895/224 324/896/224
f 324/897/225 331/898/225 332/899/225 322/900/225
f 322/901/226 332/902/226 329/903/226 321/904/226
f 336/905/227 334/906/227 333/907/227 335/908/227
f 339/909/228 337/910/228 338/911/228 340/912/228
f 333/913/229 334/914/229 338/915/229 337/916/229
f 336/917/230 335/918/230 339/919/230 340/920/230
f 335/921/231 333/922/231 337/923/231 339/924/231
f 340/925/232 338/926/232 334/927/232 336/928/232
f 342/929/233 341/930/233 343/931/233 344/932/233
f 347/933/234 345/934/234 346/935/234 348/936/234
f 345/937/235 341/938/235 342/939/235 346/940/235
f 344/941/236 343/942/236 347/943/236 348/944/236
f 343/945/237 341/946/237 345/947/237 347/948/237
f 346/949/238 342/950/238 344/951/238 348/952/238
f 352/953/239 350/954/239 349/955/239 351/956/239
f 355/957/240 353/958/240 354/959/240 356/960/240
f 353/961/241 358/962/241 357/963/241 354/964/241
f 355/965/242 359/966/242 358/967/242 353/968/242
f 354/969/243 357/970/243 360/971/243 356/972/243
f 350/973/244 357/974/244 358/975/244 349/976/244
f 349/977/245 358/978/245 359/979/245 351/980/245
f 352/981/246 360/982/246 357/983/246 350/984/246
f 364/985/247 362/986/247 361/987/247 363/988/247
f 367/989/248 365/990/248 366/991/248 368/992/248
f 365/993/249 369/994/249 372/995/249 366/996/249
f 368/997/250 371/998/250 370/999/250 367/1000/250
f 367/1001/251 370/1002/251 369/1003/251 365/1004/251
f 366/1005/252 372/1006/252 371/1007/252 368/1008/252
f 361/1009/253 369/1010/253 370/1011/253 363/1012/253
f 363/1013/254 370/1014/254 371/1015/254 364/1016/254
f 364/1017/255 371/1018/255 372/1019/255 362/1020/255
f 362/1021/256 372/1022/256 369/1023/256 361/1024/256
f 376/1025/257 374/1026/257 373/1027/257 375/1028/257
f 379/1029/258 377/1030/258 378/1031/258 380/1032/258
f 373/1033/259 374/1034/259 378/1035/259 377/1036/259
f 376/1037/260 375/1038/260 379/1039/260 380/1040/260
f 375/1041/261 373/1042/261 377/1043/261 379/1044/261
f 380/1045/262 378/1046/262 374/1047/262 376/1048/262
f 382/1049/263 381/1050/263 383/1051/263 384/1052/263
f 387/1053/264 385/1054/264 386/1055/264 388/1056/264
f 385/1057/265 381/1058/265 382/1059/265 386/1060/265
f 384/1061/266 383/1062/266 387/1063/266 388/1064/266
f 383/1065/267 381/1066/267 385/1067/267 387/1068/267
f 386/1069/268 382/1070/268 384/1071/268 388/1072/268
o cannon2
v 0.296 1.2188 -1.3668
v 0.296 1.2188 -2.3668
v 0.296 1.0938 -1.3668
v 0.296 1.0938 -2.3668
v 0.171 1.2188 -1.3668
v 0.171 1.2188 -2.3668
v 0.171 1.0938 -1.3668
v 0.171 1.0938 -2.3668
v 0.1398 1.0625 -2.4293
v 0.1398 1.0625 -2.5543
v 0.1398 1.25 -2.4293
v 0.1398 1.25 -2.5543
v 0.3273 1.0625 -2.4293
v 0.3273 1.0625 -2.5543
v 0.3273 1.25 -2.4293
v 0.3273 1.25 -2.5543
v 0.171 1.0938 -2.3668
v 0.1398 1.0625 -2.4293
v 0.171 1.2188 -2.3668
v 0.1398 1.25 -2.4293
v 0.296 1.0938 -2.3668
v 0.3273 1.0625 -2.4293
v 0.296 1.2188 -2.3668
v 0.3273 1.25 -2.4293
vt 0.25 0.4375
vt 0.25 0.4688
vt 0 0.4688
vt 0 0.4375
vt 0 0.4688
vt 0 0.4375
vt 0.25 0.4375
vt 0.25 0.4688
vt 0 0.4375
vt 0.25 0.4375
vt 0.25 0.4688
vt 0 0.4688
vt 0.25 0.4688
vt 0 0.4688
vt 0 0.4375
vt 0.25 0.4375
vt 0.6563 0.125
vt 0.6563 0.1563
vt 0.625 0.1563
vt 0.625 0.125
vt 0.2969 0.4375
vt 0.2969 0.4688
vt 0.2656 0.4688
vt 0.2656 0.4375
vt 0.2031 0.5938
vt 0.1563 0.5938
vt 0.1563 0.5625
vt 0.2031 0.5625
vt 0.1563 0.5625
vt 0.2031 0.5625
vt 0.2031 0.5938
vt 0.1563 0.5938
vt 0.1563 0.5938
vt 0.1563 0.5625
vt 0.2031 0.5625
vt 0.2031 0.5938
vt 0.2031 0.5625
vt 0.2031 0.5938
vt 0.1563 0.5938
vt 0.1563 0.5625
vt 0.25 0.5313
vt 0.25 0.5781
vt 0.2031 0.5781
vt 0.2031 0.5313
vt 0.2031 0.5156
vt 0.2031 0.5625
vt 0.1563 0.5625
vt 0.1563 0.5156
vt 0.1563 0.6094
vt 0.1641 0.5938
vt 0.1953 0.5938
vt 0.2031 0.6094
vt 0.1641 0.625
vt 0.1953 0.625
vt 0.2031 0.6406
vt 0.1563 0.6406
vt 0.1953 0.6406
vt 0.1641 0.6406
vt 0.1563 0.625
vt 0.2031 0.625
vt 0.2031 0.6232
vt 0.1953 0.6406
vt 0.1641 0.6406
vt 0.1563 0.6232
vt 0.1875 0.6094
vt 0.1875 0.6406
vt 0.1563 0.6406
vt 0.1563 0.6094
vt 0.2031 0.6563
vt 0.1563 0.6563
vt 0.1563 0.6094
vt 0.2031 0.6094
vn 1 0 0
vn -1 0 0
vn 0 1 0
vn 0 -1 0
vn 0 0 1
vn 0 0 -1
vn -1 0 0
vn 1 0 0
vn 0 -1 0
vn 0 1 0
vn 0 0 1
vn 0 0 -1
vn -0.89 0 0.45
vn 0.89 0 0.45
vn 0 -0.89 0.45
vn 0 0.89 0.45
vn 0 0 1
vn 0 0 -1
usemtl anti_aircraft_gun
f 392/1073/269 390/1074/269 389/1075/269 391/1076/269
f 395/1077/270 393/1078/270 394/1079/270 396/1080/270
f 389/1081/271 390/1082/271 394/1083/271 393/1084/271
f 392/1085/272 391/1086/272 395/1087/272 396/1088/272
usemtl anti_aircraft_gun_painted
f 391/1089/273 389/1090/273 393/1091/273 395/1092/273
f 396/1093/274 394/1094/274 390/1095/274 392/1096/274
f 400/1097/275 398/1098/275 397/1099/275 399/1100/275
f 403/1101/276 401/1102/276 402/1103/276 404/1104/276
f 397/1105/277 398/1106/277 402/1107/277 401/1108/277
f 400/1109/278 399/1110/278 403/1111/278 404/1112/278
f 399/1113/279 397/1114/279 401/1115/279 403/1116/279
f 404/1117/280 402/1118/280 398/1119/280 400/1120/280
f 406/1121/281 405/1122/281 407/1123/281 408/1124/281
f 411/1125/282 409/1126/282 410/1127/282 412/1128/282
f 409/1129/283 405/1130/283 406/1131/283 410/1132/283
f 408/1133/284 407/1134/284 411/1135/284 412/1136/284
f 407/1137/285 405/1138/285 409/1139/285 411/1140/285
f 410/1141/286 406/1142/286 408/1143/286 412/1144/286
o cannon1
v -0.079 1.2188 -1.3668
v -0.079 1.2188 -2.3668
v -0.079 1.0938 -1.3668
v -0.079 1.0938 -2.3668
v -0.204 1.2188 -1.3668
v -0.204 1.2188 -2.3668
v -0.204 1.0938 -1.3668
v -0.204 1.0938 -2.3668
v -0.2352 1.0625 -2.4293
v -0.2352 1.0625 -2.5543
v -0.2352 1.25 -2.4293
v -0.2352 1.25 -2.5543
v -0.0477 1.0625 -2.4293
v -0.0477 1.0625 -2.5543
v -0.0477 1.25 -2.4293
v -0.0477 1.25 -2.5543
v -0.204 1.0938 -2.3668
v -0.2352 1.0625 -2.4293
v -0.204 1.2188 -2.3668
v -0.2352 1.25 -2.4293
v -0.079 1.0938 -2.3668
v -0.0477 1.0625 -2.4293
v -0.079 1.2188 -2.3668
v -0.0477 1.25 -2.4293
vt 0.25 0.4375
vt 0.25 0.4688
vt 0 0.4688
vt 0 0.4375
vt 0 0.4688
vt 0 0.4375
vt 0.25 0.4375
vt 0.25 0.4688
vt 0 0.4375
vt 0.25 0.4375
vt 0.25 0.4688
vt 0 0.4688
vt 0.25 0.4688
vt 0 0.4688
vt 0 0.4375
vt 0.25 0.4375
vt 0.6563 0.125
vt 0.6563 0.1563
vt 0.625 0.1563
vt 0.625 0.125
vt 0.2969 0.4375
vt 0.2969 0.4688
vt 0.2656 0.4688
vt 0.2656 0.4375
vt 0.2031 0.5938
vt 0.1563 0.5938
vt 0.1563 0.5625
vt 0.2031 0.5625
vt 0.1563 0.5625
vt 0.2031 0.5625
vt 0.2031 0.5938
vt 0.1563 0.5938
vt 0.1563 0.5938
vt 0.1563 0.5625
vt 0.2031 0.5625
vt 0.2031 0.5938
vt 0.2031 0.5625
vt 0.2031 0.5938
vt 0.1563 0.5938
vt 0.1563 0.5625
vt 0.25 0.5313
vt 0.25 0.5781
vt 0.2031 0.5781
vt 0.2031 0.5313
vt 0.2031 0.5156
vt 0.2031 0.5625
vt 0.1563 0.5625
vt 0.1563 0.5156
vt 0.1563 0.6094
vt 0.1641 0.5938
vt 0.1953 0.5938
vt 0.2031 0.6094
vt 0.1641 0.625
vt 0.1953 0.625
vt 0.2031 0.6406
vt 0.1563 0.6406
vt 0.1953 0.6406
vt 0.1641 0.6406
vt 0.1563 0.625
vt 0.2031 0.625
vt 0.2031 0.6232
vt 0.1953 0.6406
vt 0.1641 0.6406
vt 0.1563 0.6232
vt 0.1875 0.6094
vt 0.1875 0.6406
vt 0.1563 0.6406
vt 0.1563 0.6094
vt 0.2031 0.6563
vt 0.1563 0.6563
vt 0.1563 0.6094
vt 0.2031 0.6094
vn 1 0 0
vn -1 0 0
vn 0 1 0
vn 0 -1 0
vn 0 0 1
vn 0 0 -1
vn -1 0 0
vn 1 0 0
vn 0 -1 0
vn 0 1 0
vn 0 0 1
vn 0 0 -1
vn -0.89 0 0.45
vn 0.89 0 0.45
vn 0 -0.89 0.45
vn 0 0.89 0.45
vn 0 0 1
vn 0 0 -1
usemtl anti_aircraft_gun
f 416/1145/287 414/1146/287 413/1147/287 415/1148/287
f 419/1149/288 417/1150/288 418/1151/288 420/1152/288
f 413/1153/289 414/1154/289 418/1155/289 417/1156/289
f 416/1157/290 415/1158/290 419/1159/290 420/1160/290
usemtl anti_aircraft_gun_painted
f 415/1161/291 413/1162/291 417/1163/291 419/1164/291
f 420/1165/292 418/1166/292 414/1167/292 416/1168/292
f 424/1169/293 422/1170/293 421/1171/293 423/1172/293
f 427/1173/294 425/1174/294 426/1175/294 428/1176/294
f 421/1177/295 422/1178/295 426/1179/295 425/1180/295
f 424/1181/296 423/1182/296 427/1183/296 428/1184/296
f 423/1185/297 421/1186/297 425/1187/297 427/1188/297
f 428/1189/298 426/1190/298 422/1191/298 424/1192/298
f 430/1193/299 429/1194/299 431/1195/299 432/1196/299
f 435/1197/300 433/1198/300 434/1199/300 436/1200/300
f 433/1201/301 429/1202/301 430/1203/301 434/1204/301
f 432/1205/302 431/1206/302 435/1207/302 436/1208/302
f 431/1209/303 429/1210/303 433/1211/303 435/1212/303
f 434/1213/304 430/1214/304 432/1215/304 436/1216/304
o magazine1
v -0.203 1.7813 -0.2823
v -0.203 1.7813 -0.5323
v -0.078 1.7813 -0.2823
v -0.078 1.7813 -0.5323
v -0.203 1.3438 -0.2823
v -0.203 1.3438 -0.5323
v -0.078 1.3438 -0.2823
v -0.078 1.3438 -0.5323
v -0.203 1.7813 -0.1573
v -0.203 1.7813 -0.2823
v -0.078 1.7813 -0.1573
v -0.078 1.7813 -0.2823
v -0.203 1.5938 -0.1573
v -0.203 1.3438 -0.2823
v -0.078 1.5938 -0.1573
v -0.078 1.3438 -0.2823
v -0.203 1.7813 -0.5323
v -0.203 1.4688 -0.6573
v -0.078 1.7813 -0.5323
v -0.078 1.4688 -0.6573
v -0.203 1.3438 -0.5323
v -0.203 1.3438 -0.6573
v -0.078 1.3438 -0.5323
v -0.078 1.3438 -0.6573
vt 0.3125 0.5625
vt 0.3125 0.5938
vt 0.25 0.5938
vt 0.25 0.5625
vt 0.5625 0.125
vt 0.5625 0.1563
vt 0.5 0.1563
vt 0.5 0.125
vt 0.3125 0.5938
vt 0.3125 0.6563
vt 0.2031 0.6563
vt 0.2031 0.5938
vt 0.3125 0.6094
vt 0.3125 0.6719
vt 0.2031 0.6719
vt 0.2031 0.6094
vt 0.3125 0.5938
vt 0.3125 0.625
vt 0.2031 0.625
vt 0.2031 0.5938
vt 0.3125 0.5938
vt 0.3125 0.625
vt 0.2031 0.625
vt 0.2031 0.5938
vt 0.2656 0.5938
vt 0.2344 0.5938
vt 0.2344 0.5625
vt 0.2656 0.5625
vt 0.273 0.5625
vt 0.273 0.5938
vt 0.2031 0.5938
vt 0.2031 0.5625
vt 0.2656 0.5625
vt 0.3125 0.5625
vt 0.3125 0.5938
vt 0.2031 0.5938
vt 0.3125 0.5625
vt 0.3125 0.5938
vt 0.2656 0.5938
vt 0.2031 0.5625
vt 0.25 0.5625
vt 0.25 0.5938
vt 0.2031 0.5938
vt 0.2031 0.5625
vt 0.3281 0.6094
vt 0.2188 0.6094
vt 0.2188 0.5781
vt 0.3281 0.5781
vt 0.3029 0.5938
vt 0.2188 0.5938
vt 0.2188 0.5625
vt 0.3029 0.5625
vt 0.5469 0.125
vt 0.5469 0.1563
vt 0.5156 0.1563
vt 0.5156 0.125
vt 0.2031 0.6563
vt 0.3125 0.6563
vt 0.2344 0.6875
vt 0.2031 0.6875
vt 0.2344 0.5781
vt 0.3125 0.6094
vt 0.2031 0.6094
vt 0.2031 0.5781
vt 0.3125 0.6406
vt 0.3125 0.6719
vt 0.2031 0.6719
vt 0.2031 0.6406
vt 0.2969 0.5938
vt 0.2656 0.5938
vt 0.2656 0.5625
vt 0.2969 0.5625
vn 0 1 0
vn 0 -1 0
vn -1 0 0
vn 1 0 0
vn 0 0 1
vn 0 0 -1
vn 0 1 0
vn 0 -0.45 0.89
vn -1 0 0
vn 1 0 0
vn 0 0 1
vn 0 0 -1
vn 0 0.37 -0.93
vn 0 -1 0
vn -1 0 0
vn 1 0 0
vn 0 0 1
vn 0 0 -1
usemtl anti_aircraft_gun_painted
f 440/1217/305 438/1218/305 437/1219/305 439/1220/305
f 443/1221/306 441/1222/306 442/1223/306 444/1224/306
f 437/1225/307 438/1226/307 442/1227/307 441/1228/307
f 440/1229/308 439/1230/308 443/1231/308 444/1232/308
f 439/1233/309 437/1234/309 441/1235/309 443/1236/309
f 444/1237/310 442/1238/310 438/1239/310 440/1240/310
f 446/1241/311 445/1242/311 447/1243/311 448/1244/311
f 451/1245/312 449/1246/312 450/1247/312 452/1248/312
f 449/1249/313 445/1250/313 446/1251/313 450/1252/313
f 448/1253/314 447/1254/314 451/1255/314 452/1256/314
f 447/1257/315 445/1258/315 449/1259/315 451/1260/315
f 450/1261/316 446/1262/316 448/1263/316 452/1264/316
f 454/1265/317 453/1266/317 455/1267/317 456/1268/317
f 459/1269/318 457/1270/318 458/1271/318 460/1272/318
f 457/1273/319 453/1274/319 454/1275/319 458/1276/319
f 456/1277/320 455/1278/320 459/1279/320 460/1280/320
f 455/1281/321 453/1282/321 457/1283/321 459/1284/321
f 458/1285/322 454/1286/322 456/1287/322 460/1288/322
o magazine2
v 0.172 1.7813 -0.2823
v 0.172 1.7813 -0.5323
v 0.297 1.7813 -0.2823
v 0.297 1.7813 -0.5323
v 0.172 1.3438 -0.2823
v 0.172 1.3438 -0.5323
v 0.297 1.3438 -0.2823
v 0.297 1.3438 -0.5323
v 0.172 1.7813 -0.1573
v 0.172 1.7813 -0.2823
v 0.297 1.7813 -0.1573
v 0.297 1.7813 -0.2823
v 0.172 1.5938 -0.1573
v 0.172 1.3438 -0.2823
v 0.297 1.5938 -0.1573
v 0.297 1.3438 -0.2823
v 0.172 1.7813 -0.5323
v 0.172 1.4688 -0.6573
v 0.297 1.7813 -0.5323
v 0.297 1.4688 -0.6573
v 0.172 1.3438 -0.5323
v 0.172 1.3438 -0.6573
v 0.297 1.3438 -0.5323
v 0.297 1.3438 -0.6573
vt 0.3125 0.5625
vt 0.3125 0.5938
vt 0.25 0.5938
vt 0.25 0.5625
vt 0.5625 0.125
vt 0.5625 0.1563
vt 0.5 0.1563
vt 0.5 0.125
vt 0.3125 0.5938
vt 0.3125 0.6563
vt 0.2031 0.6563
vt 0.2031 0.5938
vt 0.3125 0.6094
vt 0.3125 0.6719
vt 0.2031 0.6719
vt 0.2031 0.6094
vt 0.3125 0.5938
vt 0.3125 0.625
vt 0.2031 0.625
vt 0.2031 0.5938
vt 0.3125 0.5938
vt 0.3125 0.625
vt 0.2031 0.625
vt 0.2031 0.5938
vt 0.2656 0.5938
vt 0.2344 0.5938
vt 0.2344 0.5625
vt 0.2656 0.5625
vt 0.273 0.5625
vt 0.273 0.5938
vt 0.2031 0.5938
vt 0.2031 0.5625
vt 0.2656 0.5625
vt 0.3125 0.5625
vt 0.3125 0.5938
vt 0.2031 0.5938
vt 0.3125 0.5625
vt 0.3125 0.5938
vt 0.2656 0.5938
vt 0.2031 0.5625
vt 0.25 0.5625
vt 0.25 0.5938
vt 0.2031 0.5938
vt 0.2031 0.5625
vt 0.3281 0.6094
vt 0.2188 0.6094
vt 0.2188 0.5781
vt 0.3281 0.5781
vt 0.3029 0.5938
vt 0.2188 0.5938
vt 0.2188 0.5625
vt 0.3029 0.5625
vt 0.5469 0.125
vt 0.5469 0.1563
vt 0.5156 0.1563
vt 0.5156 0.125
vt 0.2031 0.6563
vt 0.3125 0.6563
vt 0.2344 0.6875
vt 0.2031 0.6875
vt 0.2344 0.5781
vt 0.3125 0.6094
vt 0.2031 0.6094
vt 0.2031 0.5781
vt 0.3125 0.6406
vt 0.3125 0.6719
vt 0.2031 0.6719
vt 0.2031 0.6406
vt 0.2969 0.5938
vt 0.2656 0.5938
vt 0.2656 0.5625
vt 0.2969 0.5625
vn 0 1 0
vn 0 -1 0
vn -1 0 0
vn 1 0 0
vn 0 0 1
vn 0 0 -1
vn 0 1 0
vn 0 -0.45 0.89
vn -1 0 0
vn 1 0 0
vn 0 0 1
vn 0 0 -1
vn 0 0.37 -0.93
vn 0 -1 0
vn -1 0 0
vn 1 0 0
vn 0 0 1
vn 0 0 -1
usemtl anti_aircraft_gun_painted
f 464/1289/323 462/1290/323 461/1291/323 463/1292/323
f 467/1293/324 465/1294/324 466/1295/324 468/1296/324
f 461/1297/325 462/1298/325 466/1299/325 465/1300/325
f 464/1301/326 463/1302/326 467/1303/326 468/1304/326
f 463/1305/327 461/1306/327 465/1307/327 467/1308/327
f 468/1309/328 466/1310/328 462/1311/328 464/1312/328
f 470/1313/329 469/1314/329 471/1315/329 472/1316/329
f 475/1317/330 473/1318/330 474/1319/330 476/1320/330
f 473/1321/331 469/1322/331 470/1323/331 474/1324/331
f 472/1325/332 471/1326/332 475/1327/332 476/1328/332
f 471/1329/333 469/1330/333 473/1331/333 475/1332/333
f 474/1333/334 470/1334/334 472/1335/334 476/1336/334
f 478/1337/335 477/1338/335 479/1339/335 480/1340/335
f 483/1341/336 481/1342/336 482/1343/336 484/1344/336
f 481/1345/337 477/1346/337 478/1347/337 482/1348/337
f 480/1349/338 479/1350/338 483/1351/338 484/1352/338
f 479/1353/339 477/1354/339 481/1355/339 483/1356/339
f 482/1357/340 478/1358/340 480/1359/340 484/1360/340
o firing_pedal
v 0.3742 0.6521 -0.0398
v 0.5617 0.6521 -0.0398
v 0.3742 0.5979 -0.0711
v 0.5617 0.5979 -0.0711
v 0.3742 0.8396 -0.3646
v 0.5617 0.8396 -0.3646
v 0.3742 0.7854 -0.3958
v 0.5617 0.7854 -0.3958
vt 0.2031 0.2813
vt 0.2031 0.2969
vt 0.1563 0.2969
vt 0.1563 0.2813
vt 0.2031 0.2813
vt 0.2031 0.2969
vt 0.1563 0.2969
vt 0.1563 0.2813
vt 0.25 0.25
vt 0.25 0.2969
vt 0.1563 0.2969
vt 0.1563 0.25
vt 0.25 0.25
vt 0.25 0.2969
vt 0.1563 0.2969
vt 0.1563 0.25
vt 0.25 0.2813
vt 0.25 0.2969
vt 0.1563 0.2969
vt 0.1563 0.2813
vt 0.1563 0.2969
vt 0.1563 0.2813
vt 0.25 0.2813
vt 0.25 0.2969
vn 0 -0.5 0.87
vn 0 0.5 -0.87
vn 0 0.87 0.5
vn 0 -0.87 -0.5
vn -1 0 0
vn 1 0 0
usemtl anti_aircraft_gun_painted
f 488/1361/341 486/1362/341 485/1363/341 487/1364/341
f 491/1365/342 489/1366/342 490/1367/342 492/1368/342
f 485/1369/343 486/1370/343 490/1371/343 489/1372/343
f 488/1373/344 487/1374/344 491/1375/344 492/1376/344
f 487/1377/345 485/1378/345 489/1379/345 491/1380/345
f 492/1381/346 490/1382/346 486/1383/346 488/1384/346
o vertical_drive_guida_mechanismnce
v 1.125 1.2875 -0.1625
v 1.125 1.2875 -0.225
v 1.125 1.225 -0.1625
v 1.125 1.225 -0.225
v 0.75 1.2875 -0.1625
v 0.75 1.2875 -0.225
v 0.75 1.225 -0.1625
v 0.75 1.225 -0.225
v 0.8125 1.475 -0.1625
v 0.8125 1.475 -0.225
v 0.8125 1.4125 -0.1625
v 0.8125 1.4125 -0.225
v 0.4375 1.475 -0.1625
v 0.4375 1.475 -0.225
v 0.4375 1.4125 -0.1625
v 0.4375 1.4125 -0.225
v 0.8125 1.4125 -0.1625
v 0.8125 1.4125 -0.225
v 0.8125 1.2875 -0.1625
v 0.8125 1.2875 -0.225
v 0.75 1.4125 -0.1625
v 0.75 1.4125 -0.225
v 0.75 1.2875 -0.1625
v 0.75 1.2875 -0.225
vt 0.2813 0.3125
vt 0.2813 0.3281
vt 0.2656 0.3281
vt 0.2656 0.3125
vt 0.2031 0.3125
vt 0.2031 0.3281
vt 0.1875 0.3281
vt 0.1875 0.3125
vt 0.2813 0.3125
vt 0.2813 0.3281
vt 0.1875 0.3281
vt 0.1875 0.3125
vt 0.2813 0.3125
vt 0.2813 0.3281
vt 0.1875 0.3281
vt 0.1875 0.3125
vt 0.2813 0.3125
vt 0.2813 0.3281
vt 0.1875 0.3281
vt 0.1875 0.3125
vt 0.1875 0.3125
vt 0.1875 0.3281
vt 0.2813 0.3281
vt 0.2813 0.3125
vt 0.2031 0.3594
vt 0.2031 0.375
vt 0.1875 0.375
vt 0.1875 0.3594
vt 0.125 0.3594
vt 0.125 0.375
vt 0.1094 0.375
vt 0.1094 0.3594
vt 0.2031 0.3594
vt 0.2031 0.375
vt 0.1094 0.375
vt 0.1094 0.3594
vt 0.2031 0.3594
vt 0.2031 0.375
vt 0.1094 0.375
vt 0.1094 0.3594
vt 0.2031 0.3594
vt 0.2031 0.375
vt 0.1094 0.375
vt 0.1094 0.3594
vt 0.1094 0.3594
vt 0.1094 0.375
vt 0.2031 0.375
vt 0.2031 0.3594
vt 0.2031 0.3281
vt 0.2031 0.3594
vt 0.1875 0.3594
vt 0.1875 0.3281
vt 0.2031 0.3281
vt 0.2031 0.3594
vt 0.1875 0.3594
vt 0.1875 0.3281
vt 0.2031 0.3281
vt 0.2031 0.3594
vt 0.1875 0.3594
vt 0.1875 0.3281
vt 0.2031 0.3281
vt 0.2031 0.3594
vt 0.1875 0.3594
vt 0.1875 0.3281
vn 1 0 0
vn -1 0 0
vn 0 1 0
vn 0 -1 0
vn 0 0 1
vn 0 0 -1
vn 1 0 0
vn -1 0 0
vn 0 1 0
vn 0 -1 0
vn 0 0 1
vn 0 0 -1
vn 1 0 0
vn -1 0 0
vn 0 0 1
vn 0 0 -1
usemtl anti_aircraft_gun
f 496/1385/347 494/1386/347 493/1387/347 495/1388/347
f 499/1389/348 497/1390/348 498/1391/348 500/1392/348
f 493/1393/349 494/1394/349 498/1395/349 497/1396/349
f 496/1397/350 495/1398/350 499/1399/350 500/1400/350
f 495/1401/351 493/1402/351 497/1403/351 499/1404/351
f 500/1405/352 498/1406/352 494/1407/352 496/1408/352
f 504/1409/353 502/1410/353 501/1411/353 503/1412/353
f 507/1413/354 505/1414/354 506/1415/354 508/1416/354
f 501/1417/355 502/1418/355 506/1419/355 505/1420/355
f 504/1421/356 503/1422/356 507/1423/356 508/1424/356
f 503/1425/357 501/1426/357 505/1427/357 507/1428/357
f 508/1429/358 506/1430/358 502/1431/358 504/1432/358
f 512/1433/359 510/1434/359 509/1435/359 511/1436/359
f 515/1437/360 513/1438/360 514/1439/360 516/1440/360
f 511/1441/361 509/1442/361 513/1443/361 515/1444/361
f 516/1445/362 514/1446/362 510/1447/362 512/1448/362
o horizontal_drive2
v 0.1095 1.2188 0.3364
v 0.1095 1.2188 0.4614
v 0.1095 1.0313 0.3364
v 0.1095 1.0313 0.4614
v -0.0155 1.2188 0.3364
v -0.0155 1.2188 0.4614
v -0.0155 1.0313 0.3364
v -0.0155 1.0313 0.4614
v 0.172 1.1563 0.5239
v 0.172 1.1563 0.6489
v 0.172 1.0938 0.5239
v 0.172 1.0938 0.6489
v -0.078 1.1563 0.5239
v -0.078 1.1563 0.6489
v -0.078 1.0938 0.5239
v -0.078 1.0938 0.6489
v 0.297 1.1563 0.2739
v 0.297 1.1563 0.5239
v 0.297 1.0938 0.2739
v 0.297 1.0938 0.5239
v 0.172 1.1563 0.1489
v 0.172 1.0938 0.1489
v 0.172 1.1563 0.2739
v 0.172 1.0938 0.2739
v -0.078 1.1563 0.1489
v -0.078 1.1563 0.2739
v -0.078 1.0938 0.1489
v -0.078 1.0938 0.2739
v -0.203 1.1563 0.2739
v -0.203 1.1563 0.5239
v -0.203 1.0938 0.2739
v -0.203 1.0938 0.5239
v 0.172 1.1563 0.4614
v 0.1095 1.1563 0.4614
v 0.172 1.0938 0.4614
v 0.1095 1.0938 0.4614
v 0.172 1.1563 0.3364
v 0.1095 1.1563 0.3364
v 0.172 1.0938 0.3364
v 0.1095 1.0938 0.3364
v 0.1095 1.1563 0.5239
v 0.1095 1.0938 0.5239
v -0.0155 1.1563 0.4614
v -0.0155 1.1563 0.5239
v -0.0155 1.0938 0.4614
v -0.0155 1.0938 0.5239
v 0.1095 1.1563 0.2739
v 0.1095 1.0938 0.2739
v -0.0155 1.1563 0.2739
v -0.0155 1.1563 0.3364
v -0.0155 1.0938 0.2739
v -0.0155 1.0938 0.3364
v -0.078 1.1563 0.4614
v -0.078 1.0938 0.4614
v -0.078 1.1563 0.3364
v -0.078 1.0938 0.3364
vt 0.0313 0.375
vt 0 0.375
vt 0 0.4219
vt 0.0313 0.4219
vt 0.0313 0.375
vt 0 0.375
vt 0 0.4219
vt 0.0313 0.4219
vt 0 0.375
vt 0.0313 0.375
vt 0.0313 0.4219
vt 0 0.4219
vt 0 0.375
vt 0.0313 0.375
vt 0.0313 0.4219
vt 0 0.4219
vt 0.0313 0.4063
vt 0.0625 0.4063
vt 0.0625 0.4375
vt 0.0313 0.4375
vt 0 0.2813
vt 0 0.3438
vt 0.0313 0.3438
vt 0.0313 0.2813
vt 0.0313 0.2813
vt 0.0313 0.3438
vt 0 0.3438
vt 0 0.2813
vt 0.0156 0.2813
vt 0.0156 0.3438
vt 0.0313 0.3438
vt 0.0313 0.2813
vt 0 0.2813
vt 0 0.3438
vt 0.0156 0.3438
vt 0.0156 0.2813
vt 0.0313 0.25
vt 0.0938 0.25
vt 0.0938 0.2656
vt 0.0313 0.2656
vt 0 0.2813
vt 0.0313 0.25
vt 0.0938 0.25
vt 0.125 0.2813
vt 0 0.3438
vt 0.0313 0.375
vt 0.0938 0.375
vt 0.125 0.3438
vt 0.0938 0.25
vt 0.0938 0.2813
vt 0.1094 0.2813
vt 0.1094 0.25
vt 0.0938 0.3438
vt 0.0938 0.375
vt 0.1094 0.375
vt 0.1094 0.3438
vt 0.0938 0.2813
vt 0.0938 0.3438
vt 0.125 0.3438
vt 0.125 0.2813
vt 0.125 0.2813
vt 0.125 0.3438
vt 0.0938 0.3438
vt 0.0938 0.2813
vt 0.1094 0.2813
vt 0.1094 0.3438
vt 0.125 0.3438
vt 0.125 0.2813
vt 0.0938 0.2813
vt 0.0938 0.3438
vt 0.1094 0.3438
vt 0.1094 0.2813
vt 0.0938 0.3594
vt 0.0938 0.375
vt 0.0313 0.375
vt 0.0313 0.3594
vt 0.0938 0.375
vt 0.0313 0.375
vt 0 0.3438
vt 0.125 0.3438
vt 0.0938 0.375
vt 0.0313 0.375
vt 0 0.3438
vt 0.125 0.3438
vt 0.0313 0.2813
vt 0.0156 0.2813
vt 0.0156 0.25
vt 0.0313 0.25
vt 0.0156 0.3281
vt 0 0.3281
vt 0 0.3594
vt 0.0156 0.3594
vt 0.0781 0.3125
vt 0.0781 0.2969
vt 0.0938 0.2969
vt 0.0938 0.3125
vt 0.0781 0.3281
vt 0.0781 0.3125
vt 0.0938 0.3125
vt 0.0938 0.3281
vt 0.0781 0.3281
vt 0.0781 0.2969
vt 0.0938 0.2969
vt 0.0938 0.3281
vt 0.0781 0.3281
vt 0.0781 0.2969
vt 0.0938 0.2969
vt 0.0938 0.3281
vt 0.0625 0.3438
vt 0.0469 0.3438
vt 0.0469 0.3281
vt 0.0625 0.3281
vt 0.0781 0.3438
vt 0.0625 0.3438
vt 0.0625 0.3281
vt 0.0781 0.3281
vt 0.0781 0.3438
vt 0.0469 0.3438
vt 0.0469 0.3281
vt 0.0781 0.3281
vt 0.0781 0.3438
vt 0.0469 0.3438
vt 0.0469 0.3281
vt 0.0781 0.3281
vt 0.0625 0.2969
vt 0.0781 0.2969
vt 0.0781 0.2813
vt 0.0625 0.2813
vt 0.0469 0.2969
vt 0.0625 0.2969
vt 0.0625 0.2813
vt 0.0469 0.2813
vt 0.0469 0.2969
vt 0.0781 0.2969
vt 0.0781 0.2813
vt 0.0469 0.2813
vt 0.0469 0.2969
vt 0.0781 0.2969
vt 0.0781 0.2813
vt 0.0469 0.2813
vt 0.0313 0.3125
vt 0.0313 0.2969
vt 0.0469 0.2969
vt 0.0469 0.3125
vt 0.0313 0.3281
vt 0.0313 0.3125
vt 0.0469 0.3125
vt 0.0469 0.3281
vt 0.0313 0.3281
vt 0.0313 0.2969
vt 0.0469 0.2969
vt 0.0469 0.3281
vt 0.0313 0.3281
vt 0.0313 0.2969
vt 0.0469 0.2969
vt 0.0469 0.3281
vt 0 0.3438
vt 0 0.3594
vt 0.125 0.3594
vt 0.125 0.3438
vt 0 0.3594
vt 0 0.3438
vt 0.125 0.3438
vt 0.125 0.3594
vn 1 0 0
vn -1 0 0
vn 0 0 -1
vn 0 0 1
vn 0 1 0
vn 0 1 0
vn 0 -1 0
vn 0 0 -1
vn 0 0 1
vn 1 0 0
vn 0 1 0
vn 0 -1 0
vn 0.71 0 -0.71
vn 0.71 0 0.71
vn 0 1 0
vn 0 -1 0
vn 0 0 -1
vn 0 0 1
vn -1 0 0
vn 0 1 0
vn 0 -1 0
vn -0.71 0 -0.71
vn -0.71 0 0.71
vn 0 0 1
vn 0 0 -1
vn 0 1 0
vn 0 -1 0
vn 1 0 0
vn -1 0 0
vn 0 1 0
vn 0 -1 0
vn 1 0 0
vn -1 0 0
vn 0 1 0
vn 0 -1 0
vn 0 0 1
vn 0 0 -1
vn 0 1 0
vn 0 -1 0
vn 1 0 0
vn -1 0 0
usemtl anti_aircraft_gun_painted
f 517/1449/363 518/1450/363 520/1451/363 519/1452/363
f 522/1453/364 521/1454/364 523/1455/364 524/1456/364
f 521/1457/365 517/1458/365 519/1459/365 523/1460/365
f 518/1461/366 522/1462/366 524/1463/366 520/1464/366
f 522/1465/367 518/1466/367 517/1467/367 521/1468/367
f 530/1469/368 526/1470/368 525/1471/368 529/1472/368
f 531/1473/369 527/1474/369 528/1475/369 532/1476/369
f 529/1477/370 525/1478/370 527/1479/370 531/1480/370
f 526/1481/371 530/1482/371 532/1483/371 528/1484/371
f 533/1485/372 534/1486/372 536/1487/372 535/1488/372
f 526/1489/373 534/1490/373 533/1491/373 537/1492/373
f 538/1493/374 535/1494/374 536/1495/374 528/1496/374
f 537/1497/375 533/1498/375 535/1499/375 538/1500/375
f 534/1501/376 526/1502/376 528/1503/376 536/1504/376
f 542/1505/377 539/1506/377 537/1507/377 541/1508/377
f 543/1509/378 538/1510/378 540/1511/378 544/1512/378
f 541/1513/379 537/1514/379 538/1515/379 543/1516/379
f 539/1517/380 542/1518/380 544/1519/380 540/1520/380
f 548/1521/381 546/1522/381 545/1523/381 547/1524/381
f 545/1525/382 546/1526/382 530/1527/382 541/1528/382
f 548/1529/383 547/1530/383 543/1531/383 532/1532/383
f 547/1533/384 545/1534/384 541/1535/384 543/1536/384
f 532/1537/385 530/1538/385 546/1539/385 548/1540/385
f 549/1541/386 550/1542/386 552/1543/386 551/1544/386
f 554/1545/387 553/1546/387 555/1547/387 556/1548/387
f 554/1549/388 550/1550/388 549/1551/388 553/1552/388
f 555/1553/389 551/1554/389 552/1555/389 556/1556/389
f 550/1557/390 557/1558/390 558/1559/390 552/1560/390
f 560/1561/391 559/1562/391 561/1563/391 562/1564/391
f 560/1565/392 557/1566/392 550/1567/392 559/1568/392
f 561/1569/393 552/1570/393 558/1571/393 562/1572/393
f 563/1573/394 554/1574/394 556/1575/394 564/1576/394
f 566/1577/395 565/1578/395 567/1579/395 568/1580/395
f 566/1581/396 554/1582/396 563/1583/396 565/1584/396
f 567/1585/397 564/1586/397 556/1587/397 568/1588/397
f 559/1589/398 569/1590/398 570/1591/398 561/1592/398
f 571/1593/399 566/1594/399 568/1595/399 572/1596/399
f 571/1597/400 569/1598/400 559/1599/400 566/1600/400
f 568/1601/401 561/1602/401 570/1603/401 572/1604/401
f 543/1605/402 541/1606/402 530/1607/402 532/1608/402
f 537/1609/403 538/1610/403 528/1611/403 526/1612/403
o scope
v 0.625 2.2188 -0.0375
v 0.625 2.2188 -0.2875
v 0.625 1.9688 -0.0375
v 0.625 1.9688 -0.2875
v 0.375 2.2188 -0.0375
v 0.375 2.2188 -0.2875
v 0.375 1.9688 -0.0375
v 0.375 1.9688 -0.2875
v 0.5313 2.25 -0.2875
v 0.5313 2.25 -0.725
v 0.5313 2.1875 -0.2875
v 0.5313 2.1875 -0.725
v 0.4688 2.25 -0.2875
v 0.4688 2.25 -0.725
v 0.4688 2.1875 -0.2875
v 0.4688 2.1875 -0.725
v 0.5938 2.1875 -0.2875
v 0.5938 2.1875 -0.6
v 0.5938 2 -0.2875
v 0.5938 2 -0.6
v 0.4063 2.1875 -0.2875
v 0.4063 2.1875 -0.6
v 0.4063 2 -0.2875
v 0.4063 2 -0.6
v 0.5938 2.1875 -0.6
v 0.625 2.2188 -0.7875
v 0.5938 2 -0.6
v 0.625 1.9688 -0.7875
v 0.4063 2.1875 -0.6
v 0.375 2.2188 -0.7875
v 0.4063 2 -0.6
v 0.375 1.9688 -0.7875
v 0.3125 2.125 -0.0375
v 0.3125 2.125 -0.225
v 0.3125 2.0625 -0.0375
v 0.3125 2.0625 -0.225
v 0.375 2.125 -0.0375
v 0.375 2.125 -0.225
v 0.375 2.0625 -0.0375
v 0.375 2.0625 -0.225
v 0.25 2.1563 0.025
v 0.25 2.1563 -0.2875
v 0.25 2.0313 0.025
v 0.25 2.0313 -0.2875
v 0.3125 2.1563 0.025
v 0.3125 2.1563 -0.2875
v 0.3125 2.0313 0.025
v 0.3125 2.0313 -0.2875
v 0.5625 2.1563 0.025
v 0.5625 2.1563 -0.0375
v 0.5625 2.0313 0.025
v 0.5625 2.0313 -0.0375
v 0.4375 2.1563 0.025
v 0.4375 2.1563 -0.0375
v 0.4375 2.0313 0.025
v 0.4375 2.0313 -0.0375
v 0.5938 2.1875 -0.7563
v 0.5938 2.1875 -0.8188
v 0.5938 2 -0.7563
v 0.5938 2 -0.8188
v 0.4063 2.1875 -0.7563
v 0.4063 2.1875 -0.8188
v 0.4063 2 -0.7563
v 0.4063 2 -0.8188
vt 0.7344 0.1094
vt 0.6719 0.1094
vt 0.6719 0.0469
vt 0.7344 0.0469
vt 0.6719 0.0469
vt 0.7344 0.0469
vt 0.7344 0.1094
vt 0.6719 0.1094
vt 0.6719 0.0469
vt 0.6719 0.1094
vt 0.7344 0.1094
vt 0.7344 0.0469
vt 0.7344 0.1094
vt 0.7344 0.0469
vt 0.6719 0.0469
vt 0.6719 0.1094
vt 0.7344 0
vt 0.7344 0.0625
vt 0.7969 0.0625
vt 0.7969 0
vt 0.7969 0
vt 0.7969 0.0625
vt 0.7344 0.0625
vt 0.7344 0
vt 0.7344 0.0625
vt 0.7344 0.0781
vt 0.8438 0.0781
vt 0.8438 0.0625
vt 0.8438 0.0625
vt 0.8438 0.0781
vt 0.7344 0.0781
vt 0.7344 0.0625
vt 0.8438 0.0781
vt 0.7344 0.0781
vt 0.7344 0.0625
vt 0.8438 0.0625
vt 0.75 0.0625
vt 0.75 0.0781
vt 0.7344 0.0781
vt 0.7344 0.0625
vt 0.8438 0.0625
vt 0.8438 0.0781
vt 0.8281 0.0781
vt 0.8281 0.0625
vt 0.8125 0.1094
vt 0.8125 0.0625
vt 0.7344 0.0625
vt 0.7344 0.1094
vt 0.7344 0.0625
vt 0.7344 0.1094
vt 0.8125 0.1094
vt 0.8125 0.0625
vt 0.7344 0.0625
vt 0.8125 0.0625
vt 0.8125 0.1094
vt 0.7344 0.1094
vt 0.8125 0.1094
vt 0.7344 0.1094
vt 0.7344 0.0625
vt 0.8125 0.0625
vt 0.8594 0.1094
vt 0.8594 0.0625
vt 0.8281 0.0625
vt 0.8281 0.1094
vt 0.8281 0.0625
vt 0.8281 0.1094
vt 0.8594 0.1094
vt 0.8594 0.0625
vt 0.8281 0.0625
vt 0.8594 0.0625
vt 0.8594 0.1094
vt 0.8281 0.1094
vt 0.8594 0.1094
vt 0.8281 0.1094
vt 0.8281 0.0625
vt 0.8594 0.0625
vt 0.8281 0.0625
vt 0.8281 0.1094
vt 0.7813 0.1094
vt 0.7813 0.0625
vt 0.8438 0.0625
vt 0.8438 0.1094
vt 0.8906 0.1094
vt 0.8906 0.0625
vt 0.8125 0.1094
vt 0.8125 0.125
vt 0.8594 0.125
vt 0.8594 0.1094
vt 0.8594 0.1094
vt 0.8594 0.125
vt 0.8125 0.125
vt 0.8125 0.1094
vt 0.8438 0.1094
vt 0.8438 0.125
vt 0.8594 0.125
vt 0.8594 0.1094
vt 0.8125 0.1094
vt 0.8125 0.125
vt 0.8281 0.125
vt 0.8281 0.1094
vt 0.7344 0.1406
vt 0.8125 0.1406
vt 0.8125 0.1094
vt 0.7344 0.1094
vt 0.7344 0.1406
vt 0.8125 0.1406
vt 0.8125 0.1094
vt 0.7344 0.1094
vt 0.8125 0.1406
vt 0.8125 0.125
vt 0.7344 0.125
vt 0.7344 0.1406
vt 0.8125 0.125
vt 0.8125 0.1094
vt 0.7344 0.1094
vt 0.7344 0.125
vt 0.7969 0.1406
vt 0.8125 0.1406
vt 0.8125 0.1094
vt 0.7969 0.1094
vt 0.7344 0.1406
vt 0.75 0.1406
vt 0.75 0.1094
vt 0.7344 0.1094
vt 0.6563 0.0938
vt 0.6563 0.125
vt 0.6406 0.125
vt 0.6406 0.0938
vt 0.6406 0.0938
vt 0.6406 0.125
vt 0.625 0.125
vt 0.625 0.0938
vt 0.6563 0.1094
vt 0.6563 0.125
vt 0.625 0.125
vt 0.625 0.1094
vt 0.6563 0.0938
vt 0.6563 0.1094
vt 0.625 0.1094
vt 0.625 0.0938
vt 0.6563 0.0938
vt 0.6563 0.125
vt 0.625 0.125
vt 0.625 0.0938
vt 0.8125 0.0156
vt 0.8125 0.0625
vt 0.7969 0.0625
vt 0.7969 0.0156
vt 0.8438 0.0156
vt 0.8438 0.0625
vt 0.8281 0.0625
vt 0.8281 0.0156
vt 0.7969 0.0469
vt 0.7969 0.0625
vt 0.8438 0.0625
vt 0.8438 0.0469
vt 0.7969 0.0156
vt 0.7969 0.0313
vt 0.8438 0.0313
vt 0.8438 0.0156
vt 0.8438 0.0156
vt 0.8438 0.0625
vt 0.7969 0.0625
vt 0.7969 0.0156
vn 1 0 0
vn -1 0 0
vn 0 1 0
vn 0 -1 0
vn 0 0 1
vn 0 0 -1
vn 1 0 0
vn -1 0 0
vn 0 1 0
vn 0 0 1
vn 0 0 -1
vn 1 0 0
vn -1 0 0
vn 0 1 0
vn 0 -1 0
vn 0.99 0 0.16
vn -0.99 0 0.16
vn 0 0.99 0.16
vn 0 -0.99 0.16
vn 0 0 1
vn 0 0 -1
vn 0 1 0
vn 0 -1 0
vn 0 0 1
vn 0 0 -1
vn -1 0 0
vn 1 0 0
vn 0 1 0
vn 0 -1 0
vn 0 0 1
vn 0 0 -1
vn 1 0 0
vn -1 0 0
vn 0 1 0
vn 0 -1 0
vn 0 0 1
vn 1 0 0
vn -1 0 0
vn 0 1 0
vn 0 -1 0
vn 0 0 -1
usemtl anti_aircraft_gun
f 576/1613/404 574/1614/404 573/1615/404 575/1616/404
f 579/1617/405 577/1618/405 578/1619/405 580/1620/405
f 573/1621/406 574/1622/406 578/1623/406 577/1624/406
f 576/1625/407 575/1626/407 579/1627/407 580/1628/407
f 575/1629/408 573/1630/408 577/1631/408 579/1632/408
f 580/1633/409 578/1634/409 574/1635/409 576/1636/409
f 584/1637/410 582/1638/410 581/1639/410 583/1640/410
f 587/1641/411 585/1642/411 586/1643/411 588/1644/411
f 581/1645/412 582/1646/412 586/1647/412 585/1648/412
f 583/1649/413 581/1650/413 585/1651/413 587/1652/413
f 588/1653/414 586/1654/414 582/1655/414 584/1656/414
f 592/1657/415 590/1658/415 589/1659/415 591/1660/415
f 595/1661/416 593/1662/416 594/1663/416 596/1664/416
f 589/1665/417 590/1666/417 594/1667/417 593/1668/417
f 592/1669/418 591/1670/418 595/1671/418 596/1672/418
f 600/1673/419 598/1674/419 597/1675/419 599/1676/419
f 603/1677/420 601/1678/420 602/1679/420 604/1680/420
f 597/1681/421 598/1682/421 602/1683/421 601/1684/421
f 600/1685/422 599/1686/422 603/1687/422 604/1688/422
f 599/1689/423 597/1690/423 601/1691/423 603/1692/423
f 604/1693/424 602/1694/424 598/1695/424 600/1696/424
f 610/1697/425 606/1698/425 605/1699/425 609/1700/425
f 611/1701/426 607/1702/426 608/1703/426 612/1704/426
f 609/1705/427 605/1706/427 607/1707/427 611/1708/427
f 606/1709/428 610/1710/428 612/1711/428 608/1712/428
f 613/1713/429 614/1714/429 616/1715/429 615/1716/429
f 618/1717/430 617/1718/430 619/1719/430 620/1720/430
f 618/1721/431 614/1722/431 613/1723/431 617/1724/431
f 619/1725/432 615/1726/432 616/1727/432 620/1728/432
f 617/1729/433 613/1730/433 615/1731/433 619/1732/433
f 614/1733/434 618/1734/434 620/1735/434 616/1736/434
f 624/1737/435 622/1738/435 621/1739/435 623/1740/435
f 627/1741/436 625/1742/436 626/1743/436 628/1744/436
f 621/1745/437 622/1746/437 626/1747/437 625/1748/437
f 624/1749/438 623/1750/438 627/1751/438 628/1752/438
f 623/1753/439 621/1754/439 625/1755/439 627/1756/439
f 632/1757/440 630/1758/440 629/1759/440 631/1760/440
f 635/1761/441 633/1762/441 634/1763/441 636/1764/441
f 629/1765/442 630/1766/442 634/1767/442 633/1768/442
f 632/1769/443 631/1770/443 635/1771/443 636/1772/443
f 636/1773/444 634/1774/444 630/1775/444 632/1776/444
o seat1
v -0.8321 1.4063 0.7113
v -0.3321 1.4063 0.7113
v -0.8321 0.9063 0.7113
v -0.3321 0.9063 0.7113
v -0.8321 1.4063 0.6488
v -0.3321 1.4063 0.6488
v -0.8321 0.9063 0.6488
v -0.3321 0.9063 0.6488
v -0.6405 0.9063 0.7114
v -0.5155 0.9063 0.7114
v -0.6405 0.6563 0.7114
v -0.5155 0.6563 0.7114
v -0.6405 0.9063 0.6489
v -0.5155 0.9063 0.6489
v -0.6405 0.6563 0.6489
v -0.5155 0.6563 0.6489
vt 0.4219 0.2188
vt 0.4219 0.3438
vt 0.2969 0.3438
vt 0.2969 0.2188
vt 0.4219 0.2188
vt 0.4219 0.3438
vt 0.2969 0.3438
vt 0.2969 0.2188
vt 0.3125 0.2188
vt 0.3125 0.3438
vt 0.2969 0.3438
vt 0.2969 0.2188
vt 0.3125 0.2188
vt 0.3125 0.3438
vt 0.2969 0.3438
vt 0.2969 0.2188
vt 0.3125 0.2188
vt 0.3125 0.3438
vt 0.2969 0.3438
vt 0.2969 0.2188
vt 0.3125 0.2188
vt 0.3125 0.3438
vt 0.2969 0.3438
vt 0.2969 0.2188
vt 0.5938 0.375
vt 0.5313 0.375
vt 0.5313 0.3438
vt 0.5938 0.3438
vt 0.5313 0.3438
vt 0.5938 0.3438
vt 0.5938 0.375
vt 0.5313 0.375
vt 0.5938 0.3594
vt 0.5313 0.3594
vt 0.5313 0.3438
vt 0.5938 0.3438
vt 0.5938 0.375
vt 0.5313 0.375
vt 0.5313 0.3594
vt 0.5938 0.3594
vt 0.5625 0.3594
vt 0.5313 0.3594
vt 0.5313 0.3438
vt 0.5625 0.3438
vn 0 0 1
vn 0 0 -1
vn 0 1 0
vn 0 -1 0
vn -1 0 0
vn 1 0 0
vn 0 0 1
vn 0 0 -1
vn -1 0 0
vn 1 0 0
vn 0 -1 0
usemtl anti_aircraft_gun_painted
f 640/1777/445 638/1778/445 637/1779/445 639/1780/445
f 643/1781/446 641/1782/446 642/1783/446 644/1784/446
f 637/1785/447 638/1786/447 642/1787/447 641/1788/447
f 640/1789/448 639/1790/448 643/1791/448 644/1792/448
f 639/1793/449 637/1794/449 641/1795/449 643/1796/449
f 644/1797/450 642/1798/450 638/1799/450 640/1800/450
f 648/1801/451 646/1802/451 645/1803/451 647/1804/451
f 651/1805/452 649/1806/452 650/1807/452 652/1808/452
f 647/1809/453 645/1810/453 649/1811/453 651/1812/453
f 652/1813/454 650/1814/454 646/1815/454 648/1816/454
f 648/1817/455 647/1818/455 651/1819/455 652/1820/455
o seat2
v 0.4804 1.4063 0.7113
v 0.9804 1.4063 0.7113
v 0.4804 0.9063 0.7113
v 0.9804 0.9063 0.7113
v 0.4804 1.4063 0.6488
v 0.9804 1.4063 0.6488
v 0.4804 0.9063 0.6488
v 0.9804 0.9063 0.6488
v 0.672 0.9063 0.7114
v 0.797 0.9063 0.7114
v 0.672 0.6563 0.7114
v 0.797 0.6563 0.7114
v 0.672 0.9063 0.6489
v 0.797 0.9063 0.6489
v 0.672 0.6563 0.6489
v 0.797 0.6563 0.6489
vt 0.4219 0.2188
vt 0.4219 0.3438
vt 0.2969 0.3438
vt 0.2969 0.2188
vt 0.4219 0.2188
vt 0.4219 0.3438
vt 0.2969 0.3438
vt 0.2969 0.2188
vt 0.3125 0.2188
vt 0.3125 0.3438
vt 0.2969 0.3438
vt 0.2969 0.2188
vt 0.3125 0.2188
vt 0.3125 0.3438
vt 0.2969 0.3438
vt 0.2969 0.2188
vt 0.3125 0.2188
vt 0.3125 0.3438
vt 0.2969 0.3438
vt 0.2969 0.2188
vt 0.3125 0.2188
vt 0.3125 0.3438
vt 0.2969 0.3438
vt 0.2969 0.2188
vt 0.5938 0.375
vt 0.5313 0.375
vt 0.5313 0.3438
vt 0.5938 0.3438
vt 0.5313 0.3438
vt 0.5938 0.3438
vt 0.5938 0.375
vt 0.5313 0.375
vt 0.5938 0.3594
vt 0.5313 0.3594
vt 0.5313 0.3438
vt 0.5938 0.3438
vt 0.5938 0.375
vt 0.5313 0.375
vt 0.5313 0.3594
vt 0.5938 0.3594
vt 0.5625 0.3594
vt 0.5313 0.3594
vt 0.5313 0.3438
vt 0.5625 0.3438
vn 0 0 1
vn 0 0 -1
vn 0 1 0
vn 0 -1 0
vn -1 0 0
vn 1 0 0
vn 0 0 1
vn 0 0 -1
vn -1 0 0
vn 1 0 0
vn 0 -1 0
usemtl anti_aircraft_gun_painted
f 656/1821/456 654/1822/456 653/1823/456 655/1824/456
f 659/1825/457 657/1826/457 658/1827/457 660/1828/457
f 653/1829/458 654/1830/458 658/1831/458 657/1832/458
f 656/1833/459 655/1834/459 659/1835/459 660/1836/459
f 655/1837/460 653/1838/460 657/1839/460 659/1840/460
f 660/1841/461 658/1842/461 654/1843/461 656/1844/461
f 664/1845/462 662/1846/462 661/1847/462 663/1848/462
f 667/1849/463 665/1850/463 666/1851/463 668/1852/463
f 663/1853/464 661/1854/464 665/1855/464 667/1856/464
f 668/1857/465 666/1858/465 662/1859/465 664/1860/465
f 664/1861/466 663/1862/466 667/1863/466 668/1864/466
o rod1
v 0.7727 0.5628 -1.1129
v 0.6619 0.5624 -1.1706
v 0.7741 0.0628 -1.1118
v 0.6632 0.0624 -1.1695
v 0.715 0.5629 -1.002
v 0.6042 0.5624 -1.0597
v 0.7164 0.0629 -1.0009
v 0.6055 0.0624 -1.0586
v 0.4371 0.0625 -1.0032
v 0.7698 0.0625 -0.83
v 0.4371 0 -1.0032
v 0.7698 0 -0.83
v 0.6103 0.0625 -1.3358
v 0.9429 0.0625 -1.1626
v 0.6103 0 -1.3358
v 0.9429 0 -1.1626
v -0.589 0.5625 -1.1716
v -0.6973 0.5621 -1.1091
v -0.5865 0.0626 -1.1706
v -0.6948 0.0621 -1.1081
v -0.5265 0.5631 -1.0634
v -0.6348 0.5627 -1.0009
v -0.524 0.0631 -1.0624
v -0.6323 0.0627 -0.9999
v -0.6782 0.0625 -0.8304
v -0.3534 0.0625 -1.0179
v -0.6782 0 -0.8304
v -0.3534 0 -1.0179
v -0.8657 0.0625 -1.1552
v -0.5409 0.0625 -1.3427
v -0.8657 0 -1.1552
v -0.5409 0 -1.3427
vt 0.4063 0.8125
vt 0.375 0.8125
vt 0.375 0.6875
vt 0.4063 0.6875
vt 0.4063 0.6875
vt 0.4063 0.8125
vt 0.375 0.8125
vt 0.375 0.6875
vt 0.4063 0.8125
vt 0.4063 0.8438
vt 0.375 0.8438
vt 0.375 0.8125
vt 0.375 0.6875
vt 0.375 0.8125
vt 0.4063 0.8125
vt 0.4063 0.6875
vt 0.375 0.8281
vt 0.4063 0.8281
vt 0.4063 0.6875
vt 0.375 0.6875
vt 0.5313 0.0938
vt 0.4375 0.0938
vt 0.4375 0.0781
vt 0.5313 0.0781
vt 0.4375 0.0156
vt 0.4375 0
vt 0.5313 0
vt 0.5313 0.0156
vt 0.4375 0
vt 0.5313 0
vt 0.5313 0.0938
vt 0.4375 0.0938
vt 0.5313 0.0938
vt 0.4375 0.0938
vt 0.4375 0
vt 0.5313 0
vt 0.5313 0
vt 0.5313 0.0156
vt 0.4375 0.0156
vt 0.4375 0
vt 0.4375 0.0781
vt 0.5313 0.0781
vt 0.5313 0.0938
vt 0.4375 0.0938
vt 0.4063 0.8125
vt 0.375 0.8125
vt 0.375 0.6875
vt 0.4063 0.6875
vt 0.4063 0.6875
vt 0.4063 0.8125
vt 0.375 0.8125
vt 0.375 0.6875
vt 0.4063 0.8125
vt 0.4063 0.8438
vt 0.375 0.8438
vt 0.375 0.8125
vt 0.375 0.6875
vt 0.375 0.8125
vt 0.4063 0.8125
vt 0.4063 0.6875
vt 0.375 0.8125
vt 0.4063 0.8125
vt 0.4063 0.6875
vt 0.375 0.6875
vt 0.5313 0.0938
vt 0.4375 0.0938
vt 0.4375 0.0781
vt 0.5313 0.0781
vt 0.4375 0.0156
vt 0.4375 0
vt 0.5313 0
vt 0.5313 0.0156
vt 0.4375 0
vt 0.5313 0
vt 0.5313 0.0938
vt 0.4375 0.0938
vt 0.5313 0.0938
vt 0.4375 0.0938
vt 0.4375 0
vt 0.5313 0
vt 0.5313 0
vt 0.5313 0.0156
vt 0.4375 0.0156
vt 0.4375 0
vt 0.4375 0.0781
vt 0.5313 0.0781
vt 0.5313 0.0938
vt 0.4375 0.0938
vn 0.46 0 -0.89
vn -0.46 0 0.89
vn 0 1 0
vn 0.89 0 0.46
vn -0.89 0 -0.46
vn -0.46 0 0.89
vn 0.46 0 -0.89
vn 0 1 0
vn 0 -1 0
vn -0.89 0 -0.46
vn 0.89 0 0.46
vn -0.5 0 -0.87
vn 0.5 0 0.87
vn 0 1 0
vn 0.87 0 -0.5
vn -0.87 0 0.5
vn 0.5 0 0.87
vn -0.5 0 -0.87
vn 0 1 0
vn 0 -1 0
vn -0.87 0 0.5
vn 0.87 0 -0.5
usemtl anti_aircraft_gun_painted
f 670/1865/467 669/1866/467 671/1867/467 672/1868/467
f 675/1869/468 673/1870/468 674/1871/468 676/1872/468
f 673/1873/469 669/1874/469 670/1875/469 674/1876/469
f 671/1877/470 669/1878/470 673/1879/470 675/1880/470
f 674/1881/471 670/1882/471 672/1883/471 676/1884/471
f 678/1885/472 677/1886/472 679/1887/472 680/1888/472
f 683/1889/473 681/1890/473 682/1891/473 684/1892/473
f 681/1893/474 677/1894/474 678/1895/474 682/1896/474
f 680/1897/475 679/1898/475 683/1899/475 684/1900/475
f 679/1901/476 677/1902/476 681/1903/476 683/1904/476
f 682/1905/477 678/1906/477 680/1907/477 684/1908/477
f 686/1909/478 685/1910/478 687/1911/478 688/1912/478
f 691/1913/479 689/1914/479 690/1915/479 692/1916/479
f 689/1917/480 685/1918/480 686/1919/480 690/1920/480
f 687/1921/481 685/1922/481 689/1923/481 691/1924/481
f 690/1925/482 686/1926/482 688/1927/482 692/1928/482
f 694/1929/483 693/1930/483 695/1931/483 696/1932/483
f 699/1933/484 697/1934/484 698/1935/484 700/1936/484
f 697/1937/485 693/1938/485 694/1939/485 698/1940/485
f 696/1941/486 695/1942/486 699/1943/486 700/1944/486
f 695/1945/487 693/1946/487 697/1947/487 699/1948/487
f 698/1949/488 694/1950/488 696/1951/488 700/1952/488
o rod2
v 0.082 0.5627 0.9137
v -0.043 0.5622 0.9137
v 0.0839 0.0627 0.9149
v -0.0411 0.0622 0.9149
v 0.082 0.563 1.0387
v -0.043 0.5625 1.0387
v 0.0839 0.063 1.0399
v -0.0411 0.0625 1.0399
v -0.1687 0.0625 1.1625
v 0.2063 0.0625 1.1625
v -0.1687 0 1.1625
v 0.2063 0 1.1625
v -0.1687 0.0625 0.7875
v 0.2063 0.0625 0.7875
v -0.1687 0 0.7875
v 0.2063 0 0.7875
vt 0.4063 0.8125
vt 0.375 0.8125
vt 0.375 0.6875
vt 0.4063 0.6875
vt 0.4063 0.6875
vt 0.4063 0.8125
vt 0.375 0.8125
vt 0.375 0.6875
vt 0.4063 0.8125
vt 0.4063 0.8438
vt 0.375 0.8438
vt 0.375 0.8125
vt 0.375 0.6875
vt 0.375 0.8125
vt 0.4063 0.8125
vt 0.4063 0.6875
vt 0.375 0.8281
vt 0.4063 0.8281
vt 0.4063 0.6875
vt 0.375 0.6875
vt 0.5313 0.0938
vt 0.4375 0.0938
vt 0.4375 0.0781
vt 0.5313 0.0781
vt 0.4375 0.0156
vt 0.4375 0
vt 0.5313 0
vt 0.5313 0.0156
vt 0.4375 0
vt 0.5313 0
vt 0.5313 0.0938
vt 0.4375 0.0938
vt 0.5313 0.0938
vt 0.4375 0.0938
vt 0.4375 0
vt 0.5313 0
vt 0.5313 0
vt 0.5313 0.0156
vt 0.4375 0.0156
vt 0.4375 0
vt 0.4375 0.0781
vt 0.5313 0.0781
vt 0.5313 0.0938
vt 0.4375 0.0938
vn 0 0 -1
vn 0 0 1
vn 0 1 0
vn 1 0 0
vn -1 0 0
vn 0 0 1
vn 0 0 -1
vn 0 1 0
vn 0 -1 0
vn -1 0 0
vn 1 0 0
usemtl anti_aircraft_gun_painted
f 702/1953/489 701/1954/489 703/1955/489 704/1956/489
f 707/1957/490 705/1958/490 706/1959/490 708/1960/490
f 705/1961/491 701/1962/491 702/1963/491 706/1964/491
f 703/1965/492 701/1966/492 705/1967/492 707/1968/492
f 706/1969/493 702/1970/493 704/1971/493 708/1972/493
f 710/1973/494 709/1974/494 711/1975/494 712/1976/494
f 715/1977/495 713/1978/495 714/1979/495 716/1980/495
f 713/1981/496 709/1982/496 710/1983/496 714/1984/496
f 712/1985/497 711/1986/497 715/1987/497 716/1988/497
f 711/1989/498 709/1990/498 713/1991/498 715/1992/498
f 714/1993/499 710/1994/499 712/1995/499 716/1996/499
o wheel2
v -1.25 0.7185 0.1437
v -1 0.7185 0.1437
v -1.25 0.4685 0.3937
v -1 0.4685 0.3937
v -1.25 0.7185 -0.2313
v -1 0.7185 -0.2313
v -1.25 0.4685 -0.4813
v -1 0.4685 -0.4813
v -1.25 -0.1565 0.1437
v -1 -0.1565 0.1437
v -1.25 0.0935 0.3937
v -1 0.0935 0.3937
v -1.25 -0.1565 -0.2313
v -1 -0.1565 -0.2313
v -1.25 0.0935 -0.4813
v -1 0.0935 -0.4813
v -1.25 0.4685 0.3937
v -1 0.4685 0.3937
v -1.25 0.0935 0.3937
v -1 0.0935 0.3937
v -1.25 0.4685 -0.4813
v -1 0.4685 -0.4813
v -1.25 0.0935 -0.4813
v -1 0.0935 -0.4813
v -1.25 0.4719 0.1437
v -1.25 0.4719 -0.2313
v -1.25 0.0969 0.1437
v -1.25 0.0969 -0.2313
v -1.3125 0.4719 0.1437
v -1.3125 0.4719 -0.2313
v -1.3125 0.0969 0.1437
v -1.3125 0.0969 -0.2313
v -0.9375 0.4685 0.1437
v -0.9375 0.4685 -0.2313
v -0.9375 0.0935 0.1437
v -0.9375 0.0935 -0.2313
v -1 0.4685 0.1437
v -1 0.4685 -0.2313
v -1 0.0935 0.1437
v -1 0.0935 -0.2313
vt 0.8438 0.5625
vt 0.8438 0.7188
vt 0.7188 0.7188
vt 0.7188 0.5625
vt 0.2813 0.5625
vt 0.2813 0.7188
vt 0.1563 0.7188
vt 0.1563 0.5625
vt 0.4063 0.7188
vt 0.4063 0.8438
vt 0.5938 0.8438
vt 0.5938 0.7188
vt 0.7188 0.5938
vt 0.5938 0.7188
vt 0.4063 0.7188
vt 0.2813 0.5938
vt 0.2813 0.5938
vt 0.4063 0.7188
vt 0.5938 0.7188
vt 0.7188 0.5938
vt 0.7188 0.2813
vt 0.8438 0.2813
vt 0.8438 0.4375
vt 0.7188 0.4375
vt 0.1563 0.2813
vt 0.2813 0.2813
vt 0.2813 0.4375
vt 0.1563 0.4375
vt 0.4063 0.1563
vt 0.5938 0.1563
vt 0.5938 0.2813
vt 0.4063 0.2813
vt 0.4063 0.2813
vt 0.5938 0.2813
vt 0.7188 0.4063
vt 0.2813 0.4063
vt 0.5938 0.2813
vt 0.4063 0.2813
vt 0.2813 0.4063
vt 0.7188 0.4063
vt 0.8438 0.4063
vt 0.8438 0.5938
vt 0.7188 0.5938
vt 0.7188 0.4063
vt 0.2813 0.4063
vt 0.2813 0.5938
vt 0.1563 0.5938
vt 0.1563 0.4063
vt 0.7188 0.4063
vt 0.7188 0.5938
vt 0.2813 0.5938
vt 0.2813 0.4063
vt 0.2813 0.4063
vt 0.2813 0.5938
vt 0.7188 0.5938
vt 0.7188 0.4063
vt 0.5938 0.4063
vt 0.5938 0.5938
vt 0.4063 0.5938
vt 0.4063 0.4063
vt 0.5938 0.5938
vt 0.4063 0.5938
vt 0.4063 0.5625
vt 0.5938 0.5625
vt 0.4063 0.4063
vt 0.5938 0.4063
vt 0.5938 0.4375
vt 0.4063 0.4375
vt 0.5938 0.4063
vt 0.5938 0.5938
vt 0.5625 0.5938
vt 0.5625 0.4063
vt 0.4375 0.4063
vt 0.4375 0.5938
vt 0.4063 0.5938
vt 0.4063 0.4063
vt 0.625 0.0938
vt 0.625 0
vt 0.5313 0
vt 0.5313 0.0938
vt 0.5469 0
vt 0.5469 0.0938
vt 0.5313 0.0938
vt 0.5313 0
vt 0.625 0.0938
vt 0.625 0
vt 0.6094 0
vt 0.6094 0.0938
vt 0.5313 0.0938
vt 0.5313 0
vt 0.5469 0
vt 0.5469 0.0938
vt 0.6094 0.0938
vt 0.6094 0
vt 0.625 0
vt 0.625 0.0938
vn 0 0.71 0.71
vn 0 0.71 -0.71
vn 0 1 0
vn -1 0 0
vn 1 0 0
vn 0 -0.71 0.71
vn 0 -0.71 -0.71
vn 0 -1 0
vn -1 0 0
vn 1 0 0
vn 0 0 1
vn 0 0 -1
vn -1 0 0
vn 1 0 0
vn -1 0 0
vn 0 1 0
vn 0 -1 0
vn 0 0 1
vn 0 0 -1
vn 1 0 0
vn 0 1 0
vn 0 -1 0
vn 0 0 1
vn 0 0 -1
usemtl wheel_12_terrain
f 720/1997/500 718/1998/500 717/1999/500 719/2000/500
f 723/2001/501 721/2002/501 722/2003/501 724/2004/501
f 717/2005/502 718/2006/502 722/2007/502 721/2008/502
f 719/2009/503 717/2010/503 721/2011/503 723/2012/503
f 724/2013/504 722/2014/504 718/2015/504 720/2016/504
f 725/2017/505 726/2018/505 728/2019/505 727/2020/505
f 730/2021/506 729/2022/506 731/2023/506 732/2024/506
f 730/2025/507 726/2026/507 725/2027/507 729/2028/507
f 729/2029/508 725/2030/508 727/2031/508 731/2032/508
f 726/2033/509 730/2034/509 732/2035/509 728/2036/509
f 736/2037/510 734/2038/510 733/2039/510 735/2040/510
f 739/2041/511 737/2042/511 738/2043/511 740/2044/511
f 735/2045/512 733/2046/512 737/2047/512 739/2048/512
f 740/2049/513 738/2050/513 734/2051/513 736/2052/513
f 747/2053/514 745/2054/514 746/2055/514 748/2056/514
f 741/2057/515 742/2058/515 746/2059/515 745/2060/515
f 744/2061/516 743/2062/516 747/2063/516 748/2064/516
f 743/2065/517 741/2066/517 745/2067/517 747/2068/517
f 748/2069/518 746/2070/518 742/2071/518 744/2072/518
usemtl anti_aircraft_gun
f 752/2073/519 750/2074/519 749/2075/519 751/2076/519
f 749/2077/520 750/2078/520 754/2079/520 753/2080/520
f 752/2081/521 751/2082/521 755/2083/521 756/2084/521
f 751/2085/522 749/2086/522 753/2087/522 755/2088/522
f 756/2089/523 754/2090/523 750/2091/523 752/2092/523
o wheel1
v 1.3125 0.7185 0.1437
v 1.0625 0.7185 0.1437
v 1.3125 0.4685 0.3937
v 1.0625 0.4685 0.3937
v 1.3125 0.7185 -0.2313
v 1.0625 0.7185 -0.2313
v 1.3125 0.4685 -0.4813
v 1.0625 0.4685 -0.4813
v 1.3125 -0.1565 0.1437
v 1.0625 -0.1565 0.1437
v 1.3125 0.0935 0.3937
v 1.0625 0.0935 0.3937
v 1.3125 -0.1565 -0.2313
v 1.0625 -0.1565 -0.2313
v 1.3125 0.0935 -0.4813
v 1.0625 0.0935 -0.4813
v 1.3125 0.4685 0.3937
v 1.0625 0.4685 0.3937
v 1.3125 0.0935 0.3937
v 1.0625 0.0935 0.3937
v 1.3125 0.4685 -0.4813
v 1.0625 0.4685 -0.4813
v 1.3125 0.0935 -0.4813
v 1.0625 0.0935 -0.4813
v 1.3125 0.4719 0.1437
v 1.3125 0.4719 -0.2313
v 1.3125 0.0969 0.1437
v 1.3125 0.0969 -0.2313
v 1.375 0.4719 0.1437
v 1.375 0.4719 -0.2313
v 1.375 0.0969 0.1437
v 1.375 0.0969 -0.2313
v 1 0.4685 0.1437
v 1 0.4685 -0.2313
v 1 0.0935 0.1437
v 1 0.0935 -0.2313
v 1.0625 0.4685 0.1437
v 1.0625 0.4685 -0.2313
v 1.0625 0.0935 0.1437
v 1.0625 0.0935 -0.2313
vt 0.7188 0.7188
vt 0.8438 0.7188
vt 0.8438 0.5625
vt 0.7188 0.5625
vt 0.1563 0.7188
vt 0.2813 0.7188
vt 0.2813 0.5625
vt 0.1563 0.5625
vt 0.5938 0.8438
vt 0.4063 0.8438
vt 0.4063 0.7188
vt 0.5938 0.7188
vt 0.4063 0.7188
vt 0.5938 0.7188
vt 0.7188 0.5938
vt 0.2813 0.5938
vt 0.5938 0.7188
vt 0.4063 0.7188
vt 0.2813 0.5938
vt 0.7188 0.5938
vt 0.8438 0.4375
vt 0.8438 0.2813
vt 0.7188 0.2813
vt 0.7188 0.4375
vt 0.2813 0.4375
vt 0.2813 0.2813
vt 0.1563 0.2813
vt 0.1563 0.4375
vt 0.5938 0.2813
vt 0.5938 0.1563
vt 0.4063 0.1563
vt 0.4063 0.2813
vt 0.7188 0.4063
vt 0.5938 0.2813
vt 0.4063 0.2813
vt 0.2813 0.4063
vt 0.2813 0.4063
vt 0.4063 0.2813
vt 0.5938 0.2813
vt 0.7188 0.4063
vt 0.7188 0.5938
vt 0.8438 0.5938
vt 0.8438 0.4063
vt 0.7188 0.4063
vt 0.1563 0.5938
vt 0.2813 0.5938
vt 0.2813 0.4063
vt 0.1563 0.4063
vt 0.2813 0.5938
vt 0.7188 0.5938
vt 0.7188 0.4063
vt 0.2813 0.4063
vt 0.7188 0.5938
vt 0.2813 0.5938
vt 0.2813 0.4063
vt 0.7188 0.4063
vt 0.4063 0.5938
vt 0.5938 0.5938
vt 0.5938 0.4063
vt 0.4063 0.4063
vt 0.4063 0.5625
vt 0.4063 0.5938
vt 0.5938 0.5938
vt 0.5938 0.5625
vt 0.5938 0.4375
vt 0.5938 0.4063
vt 0.4063 0.4063
vt 0.4063 0.4375
vt 0.5625 0.5938
vt 0.5938 0.5938
vt 0.5938 0.4063
vt 0.5625 0.4063
vt 0.4063 0.5938
vt 0.4375 0.5938
vt 0.4375 0.4063
vt 0.4063 0.4063
vt 0.5313 0
vt 0.625 0
vt 0.625 0.0938
vt 0.5313 0.0938
vt 0.5313 0.0938
vt 0.5469 0.0938
vt 0.5469 0
vt 0.5313 0
vt 0.6094 0
vt 0.625 0
vt 0.625 0.0938
vt 0.6094 0.0938
vt 0.5469 0
vt 0.5313 0
vt 0.5313 0.0938
vt 0.5469 0.0938
vt 0.625 0
vt 0.6094 0
vt 0.6094 0.0938
vt 0.625 0.0938
vn 0 0.71 0.71
vn 0 0.71 -0.71
vn 0 1 0
vn 1 0 0
vn -1 0 0
vn 0 -0.71 0.71
vn 0 -0.71 -0.71
vn 0 -1 0
vn 1 0 0
vn -1 0 0
vn 0 0 1
vn 0 0 -1
vn 1 0 0
vn -1 0 0
vn 1 0 0
vn 0 1 0
vn 0 -1 0
vn 0 0 1
vn 0 0 -1
vn -1 0 0
vn 0 1 0
vn 0 -1 0
vn 0 0 1
vn 0 0 -1
usemtl wheel_12_terrain
f 757/2093/524 758/2094/524 760/2095/524 759/2096/524
f 762/2097/525 761/2098/525 763/2099/525 764/2100/525
f 762/2101/526 758/2102/526 757/2103/526 761/2104/526
f 761/2105/527 757/2106/527 759/2107/527 763/2108/527
f 758/2109/528 762/2110/528 764/2111/528 760/2112/528
f 768/2113/529 766/2114/529 765/2115/529 767/2116/529
f 771/2117/530 769/2118/530 770/2119/530 772/2120/530
f 765/2121/531 766/2122/531 770/2123/531 769/2124/531
f 767/2125/532 765/2126/532 769/2127/532 771/2128/532
f 772/2129/533 770/2130/533 766/2131/533 768/2132/533
f 773/2133/534 774/2134/534 776/2135/534 775/2136/534
f 778/2137/535 777/2138/535 779/2139/535 780/2140/535
f 777/2141/536 773/2142/536 775/2143/536 779/2144/536
f 774/2145/537 778/2146/537 780/2147/537 776/2148/537
f 786/2149/538 785/2150/538 787/2151/538 788/2152/538
f 786/2153/539 782/2154/539 781/2155/539 785/2156/539
f 787/2157/540 783/2158/540 784/2159/540 788/2160/540
f 785/2161/541 781/2162/541 783/2163/541 787/2164/541
f 782/2165/542 786/2166/542 788/2167/542 784/2168/542
usemtl anti_aircraft_gun
f 789/2169/543 790/2170/543 792/2171/543 791/2172/543
f 794/2173/544 790/2174/544 789/2175/544 793/2176/544
f 795/2177/545 791/2178/545 792/2179/545 796/2180/545
f 793/2181/546 789/2182/546 791/2183/546 795/2184/546
f 790/2185/547 794/2186/547 796/2187/547 792/2188/547