# Made by Pabilo8 with Blockbench
# Exported with IIToolkit Plugin on 04/06/2026
mtllib field_flak.mtl

o particle_gun
v 0.022 1.725 -0.6261
v 0.022 1.725 -0.7561
v 0.022 1.3375 -0.8211
v 0.022 1.3375 -0.9511
v -0.303 1.725 -0.6261
v -0.303 1.725 -0.7561
v -0.303 1.3375 -0.8211
v -0.303 1.3375 -0.9511
v -0.303 1.5017 -0.8685
v 0.022 1.5017 -0.8685
v 0.022 1.5017 -0.7385
v -0.303 1.5017 -0.7385
v -0.1736 1.5017 -0.8685
v -0.1736 1.725 -0.7561
v -0.1736 1.725 -0.6261
v -0.1736 1.5017 -0.7385
v -0.1736 1.3375 -0.8211
v -0.1736 1.3375 -0.9511
v 0.067 1.725 -0.6261
v 0.067 1.725 -0.7561
v 0.067 1.3375 -0.8211
v 0.067 1.3375 -0.9511
v 0.392 1.725 -0.6261
v 0.392 1.725 -0.7561
v 0.392 1.3375 -0.8211
v 0.392 1.3375 -0.9511
v 0.392 1.5017 -0.8685
v 0.067 1.5017 -0.8685
v 0.067 1.5017 -0.7385
v 0.392 1.5017 -0.7385
v 0.2627 1.5017 -0.8685
v 0.2627 1.725 -0.7561
v 0.2627 1.725 -0.6261
v 0.2627 1.5017 -0.7385
v 0.2627 1.3375 -0.8211
v 0.2627 1.3375 -0.9511
vt 0.0938 0.6875
vt 0.0938 0.625
vt 0.125 0.625
vt 0.125 0.6875
vt 0.0938 0.6875
vt 0.0938 0.625
vt 0.125 0.625
vt 0.125 0.6875
vt 0.0781 0.6406
vt 0.1094 0.6406
vt 0.1094 0.6719
vt 0.0781 0.6719
vt 0.6092 0.8588
vt 0.5781 0.8588
vt 0.5781 0.9219
vt 0.6092 0.9219
vt 0.6094 0.9219
vt 0.5783 0.9219
vt 0.5783 0.8588
vt 0.6094 0.8588
vt 0.547 0.3901
vt 0.5781 0.3901
vt 0.5781 0.3438
vt 0.547 0.3438
vt 0.1706 0.3281
vt 0.1706 0.375
vt 0.1394 0.375
vt 0.1394 0.3281
vt 0.5469 0.3438
vt 0.578 0.3438
vt 0.578 0.3901
vt 0.5469 0.3901
vt 0.1406 0.3281
vt 0.1406 0.375
vt 0.1719 0.375
vt 0.1719 0.3281
vt 0.1719 0.8588
vt 0.2189 0.8588
vt 0.2189 0.9219
vt 0.1719 0.9219
vt 0.5 0.9063
vt 0.4531 0.9063
vt 0.4531 0.875
vt 0.5 0.875
vt 0.2188 0.9219
vt 0.1717 0.9219
vt 0.1717 0.8588
vt 0.2188 0.8588
vt 0.453 0.3901
vt 0.5 0.3901
vt 0.5 0.3438
vt 0.453 0.3438
vt 0.4531 0.3438
vt 0.5002 0.3438
vt 0.5002 0.3901
vt 0.4531 0.3901
vt 0.125 0.625
vt 0.0938 0.625
vt 0.0938 0.6875
vt 0.125 0.6875
vt 0.125 0.625
vt 0.0938 0.625
vt 0.0938 0.6875
vt 0.125 0.6875
vt 0.1094 0.6719
vt 0.1094 0.6406
vt 0.0781 0.6406
vt 0.0781 0.6719
vt 0.5781 0.9219
vt 0.5781 0.8588
vt 0.6092 0.8588
vt 0.6092 0.9219
vt 0.5783 0.8588
vt 0.5783 0.9219
vt 0.6094 0.9219
vt 0.6094 0.8588
vt 0.5781 0.3438
vt 0.5781 0.3901
vt 0.547 0.3901
vt 0.547 0.3438
vt 0.1394 0.375
vt 0.1706 0.375
vt 0.1706 0.3281
vt 0.1394 0.3281
vt 0.578 0.3901
vt 0.578 0.3438
vt 0.5469 0.3438
vt 0.5469 0.3901
vt 0.1719 0.375
vt 0.1406 0.375
vt 0.1406 0.3281
vt 0.1719 0.3281
vt 0.2189 0.9219
vt 0.2189 0.8588
vt 0.1719 0.8588
vt 0.1719 0.9219
vt 0.4531 0.875
vt 0.4531 0.9063
vt 0.5 0.9063
vt 0.5 0.875
vt 0.1717 0.8588
vt 0.1717 0.9219
vt 0.2188 0.9219
vt 0.2188 0.8588
vt 0.5 0.3438
vt 0.5 0.3901
vt 0.453 0.3901
vt 0.453 0.3438
vt 0.5002 0.3901
vt 0.5002 0.3438
vt 0.4531 0.3438
vt 0.4531 0.3901
vn 1 0 0
vn -1 0 0
vn 0 1 0
vn 0 -0.45 0.89
vn 0 0.45 -0.89
vn 0 0.45 -0.89
vn 1 0 0
vn 0 -0.45 0.89
vn -1 0 0
vn 0 0.45 -0.89
vn 0 1 0
vn 0 -0.45 0.89
vn 0 -0.45 0.89
vn 0 0.45 -0.89
vn -1 0 0
vn 1 0 0
vn 0 1 0
vn 0 -0.45 0.89
vn 0 0.45 -0.89
vn 0 0.45 -0.89
vn -1 0 0
vn 0 -0.45 0.89
vn 1 0 0
vn 0 0.45 -0.89
vn 0 1 0
vn 0 -0.45 0.89
vn 0 -0.45 0.89
vn 0 0.45 -0.89
usemtl snow_vehicle
f 1/1/1 11/2/1 10/3/1 2/4/1
f 6/5/2 9/6/2 12/7/2 5/8/2
f 5/9/3 15/10/3 14/11/3 6/12/3
f 12/13/4 16/14/4 15/15/4 5/16/4
f 6/17/5 14/18/5 13/19/5 9/20/5
f 9/21/6 13/22/6 18/23/6 8/24/6
f 4/25/7 10/26/7 11/27/7 3/28/7
f 7/29/8 17/30/8 16/31/8 12/32/8
f 7/33/9 12/34/9 9/35/9 8/36/9
f 10/37/10 13/38/10 14/39/10 2/40/10
f 2/41/11 14/42/11 15/43/11 1/44/11
f 1/45/12 15/46/12 16/47/12 11/48/12
f 11/49/13 16/50/13 17/51/13 3/52/13
f 4/53/14 18/54/14 13/55/14 10/56/14
f 28/57/15 29/58/15 19/59/15 20/60/15
f 30/61/16 27/62/16 24/63/16 23/64/16
f 32/65/17 33/66/17 23/67/17 24/68/17
f 33/69/18 34/70/18 30/71/18 23/72/18
f 31/73/19 32/74/19 24/75/19 27/76/19
f 36/77/20 31/78/20 27/79/20 26/80/20
f 29/81/21 28/82/21 22/83/21 21/84/21
f 34/85/22 35/86/22 25/87/22 30/88/22
f 27/89/23 30/90/23 25/91/23 26/92/23
f 32/93/24 31/94/24 28/95/24 20/96/24
f 33/97/25 32/98/25 20/99/25 19/100/25
f 34/101/26 33/102/26 19/103/26 29/104/26
f 35/105/27 34/106/27 29/107/27 21/108/27
f 31/109/28 36/110/28 22/111/28 28/112/28
o particle_turret
v 1.1742 1.9109 -0.4684
v 1.1742 1.9109 -0.5431
v 1.1742 1.4609 -0.6593
v 1.1742 1.4609 -0.759
v 0.4117 1.9109 -0.4684
v 0.4117 1.9109 -0.5431
v 0.4117 1.4609 -0.6593
v 0.4117 1.4609 -0.759
v 0.4117 1.6831 -0.6447
v 1.1742 1.6831 -0.6447
v 1.1742 1.6831 -0.57
v 0.4117 1.6831 -0.57
v -1.0929 1.9109 -0.4684
v -1.0929 1.9109 -0.5431
v -1.0929 1.4609 -0.6593
v -1.0929 1.4609 -0.759
v -0.3304 1.9109 -0.4684
v -0.3304 1.9109 -0.5431
v -0.3304 1.4609 -0.6593
v -0.3304 1.4609 -0.759
v -0.3304 1.6831 -0.6447
v -1.0929 1.6831 -0.6447
v -1.0929 1.6831 -0.57
v -0.3304 1.6831 -0.57
vt 0.4167 0.2351
vt 0.4792 0.2351
vt 0.4859 0.25
vt 0.4234 0.25
vt 0.7507 0.7955
vt 0.7507 0.7391
vt 0.7663 0.7451
vt 0.7663 0.8016
vt 0.5156 0.2344
vt 0.5156 0.25
vt 0.3281 0.25
vt 0.3281 0.2344
vt 0.1906 0.968
vt 0.1906 0.9844
vt 0 0.9844
vt 0 0.968
vt 0.5344 0.25
vt 0.5344 0.1875
vt 0.3438 0.1875
vt 0.3438 0.25
vt 0.3438 0.25
vt 0.3438 0.1875
vt 0.5313 0.1875
vt 0.5313 0.25
vt 0.6406 0.3438
vt 0.6406 0.4063
vt 0.4531 0.4063
vt 0.4531 0.3438
vt 0.5469 0.25
vt 0.4859 0.25
vt 0.4792 0.2351
vt 0.5401 0.2351
vt 0.4531 0.3453
vt 0.4531 0.4063
vt 0.6438 0.4063
vt 0.6438 0.3453
vt 0.6569 0.5536
vt 0.6569 0.6141
vt 0.6413 0.6074
vt 0.6413 0.5469
vt 0.4859 0.25
vt 0.4792 0.2351
vt 0.4167 0.2351
vt 0.4234 0.25
vt 0.7663 0.7451
vt 0.7507 0.7391
vt 0.7507 0.7955
vt 0.7663 0.8016
vt 0.3281 0.25
vt 0.5156 0.25
vt 0.5156 0.2344
vt 0.3281 0.2344
vt 0 0.9844
vt 0.1906 0.9844
vt 0.1906 0.968
vt 0 0.968
vt 0.3438 0.1875
vt 0.5344 0.1875
vt 0.5344 0.25
vt 0.3438 0.25
vt 0.5313 0.1875
vt 0.3438 0.1875
vt 0.3438 0.25
vt 0.5313 0.25
vt 0.4531 0.4063
vt 0.6406 0.4063
vt 0.6406 0.3438
vt 0.4531 0.3438
vt 0.4792 0.2351
vt 0.4859 0.25
vt 0.5469 0.25
vt 0.5401 0.2351
vt 0.6438 0.4063
vt 0.4531 0.4063
vt 0.4531 0.3453
vt 0.6438 0.3453
vt 0.6413 0.6074
vt 0.6569 0.6141
vt 0.6569 0.5536
vt 0.6413 0.5469
vn 1 0 0
vn -1 0 0
vn 0 1 0
vn 0 -1 0
vn 0 -0.41 0.91
vn 0 0.41 -0.91
vn 0 0.46 -0.89
vn 1 0 0
vn 0 -0.37 0.93
vn -1 0 0
vn -1 0 0
vn 1 0 0
vn 0 1 0
vn 0 -1 0
vn 0 -0.41 0.91
vn 0 0.41 -0.91
vn 0 0.46 -0.89
vn -1 0 0
vn 0 -0.37 0.93
vn 1 0 0
usemtl snow_vehicle
f 37/113/29 47/114/29 46/115/29 38/116/29
f 42/117/30 45/118/30 48/119/30 41/120/30
f 37/121/31 38/122/31 42/123/31 41/124/31
f 40/125/32 39/126/32 43/127/32 44/128/32
f 41/129/33 48/130/33 47/131/33 37/132/33
f 38/133/34 46/134/34 45/135/34 42/136/34
f 44/137/35 45/138/35 46/139/35 40/140/35
f 40/141/36 46/142/36 47/143/36 39/144/36
f 39/145/37 47/146/37 48/147/37 43/148/37
f 43/149/38 48/150/38 45/151/38 44/152/38
f 58/153/39 59/154/39 49/155/39 50/156/39
f 60/157/40 57/158/40 54/159/40 53/160/40
f 54/161/41 50/162/41 49/163/41 53/164/41
f 55/165/42 51/166/42 52/167/42 56/168/42
f 59/169/43 60/170/43 53/171/43 49/172/43
f 57/173/44 58/174/44 50/175/44 54/176/44
f 58/177/45 57/178/45 56/179/45 52/180/45
f 59/181/46 58/182/46 52/183/46 51/184/46
f 60/185/47 59/186/47 51/187/47 55/188/47
f 57/189/48 60/190/48 55/191/48 56/192/48