# Made by Pabilo8 in Blockbench 4.2.2
mtllib ammunition_crate.mtl

o main
v 0.3125 0.3125 0.78125
v 1 0.4375 0.75
v 1 0.4375 0.25
v 1 0 0.75
v 1 0 0.25
v 0 0.4375 0.75
v 0 0.4375 0.25
v 0 0 0.75
v 0 0 0.25
v 1 0.5 0.75
v 1 0.5 0.6875
v 1 0.4375 0.75
v 1 0.4375 0.6875
v 0 0.5 0.75
v 0 0.5 0.6875
v 0 0.4375 0.75
v 0 0.4375 0.6875
v 1 0.5 0.3125
v 1 0.5 0.25
v 1 0.4375 0.3125
v 1 0.4375 0.25
v 0 0.5 0.3125
v 0 0.5 0.25
v 0 0.4375 0.3125
v 0 0.4375 0.25
v 0.0625 0.5 0.6875
v 0.0625 0.5 0.3125
v 0.0625 0.4375 0.6875
v 0.0625 0.4375 0.3125
v 0 0.5 0.6875
v 0 0.5 0.3125
v 0 0.4375 0.6875
v 0 0.4375 0.3125
v 1 0.5 0.6875
v 1 0.5 0.3125
v 1 0.4375 0.6875
v 1 0.4375 0.3125
v 0.9375 0.5 0.6875
v 0.9375 0.5 0.3125
v 0.9375 0.4375 0.6875
v 0.9375 0.4375 0.3125
v 0.4358351804151387 0.47563063745210044 0.6875
v 0.4358351804151387 0.47563063745210044 0.3125
v 0.4412824143368673 0.41336846882136635 0.6875
v 0.4412824143368673 0.41336846882136635 0.3125
v 0.06226216863073408 0.44294723392172863 0.6875
v 0.06226216863073408 0.44294723392172863 0.3125
v 0.06770940255246272 0.38068506529099455 0.6875
v 0.06770940255246272 0.38068506529099455 0.3125
v 0.6875 0.25 0.28125
v 0.6875 0.25 0.21875
v 0.625 0.1875 0.28125
v 0.625 0.1875 0.21875
v 0.3125 0.25 0.28125
v 0.3125 0.25 0.21875
v 0.375 0.1875 0.28125
v 0.375 0.1875 0.21875
v 0.6875 0.3125 0.28125
v 0.6875 0.3125 0.21875
v 0.6875 0.25 0.28125
v 0.6875 0.25 0.21875
v 0.625 0.3125 0.28125
v 0.625 0.3125 0.21875
v 0.625 0.25 0.28125
v 0.625 0.25 0.21875
v 0.6875 0.375 0.28125
v 0.6875 0.375 0.21875
v 0.6875 0.3125 0.28125
v 0.6875 0.3125 0.21875
v 0.3125 0.375 0.28125
v 0.3125 0.375 0.21875
v 0.3125 0.3125 0.28125
v 0.3125 0.3125 0.21875
v 0.375 0.3125 0.28125
v 0.375 0.3125 0.21875
v 0.375 0.25 0.28125
v 0.375 0.25 0.21875
v 0.3125 0.3125 0.28125
v 0.3125 0.3125 0.21875
v 0.3125 0.25 0.28125
v 0.3125 0.25 0.21875
v 0.6875 0.25 0.71875
v 0.6875 0.25 0.78125
v 0.625 0.1875 0.71875
v 0.625 0.1875 0.78125
v 0.3125 0.25 0.71875
v 0.3125 0.25 0.78125
v 0.375 0.1875 0.71875
v 0.375 0.1875 0.78125
v 0.6875 0.3125 0.71875
v 0.6875 0.3125 0.78125
v 0.6875 0.25 0.71875
v 0.6875 0.25 0.78125
v 0.625 0.3125 0.71875
v 0.625 0.3125 0.78125
v 0.625 0.25 0.71875
v 0.625 0.25 0.78125
v 0.6875 0.375 0.71875
v 0.6875 0.375 0.78125
v 0.6875 0.3125 0.71875
v 0.6875 0.3125 0.78125
v 0.3125 0.375 0.71875
v 0.3125 0.375 0.78125
v 0.3125 0.3125 0.71875
v 0.3125 0.3125 0.78125
v 0.375 0.3125 0.71875
v 0.375 0.3125 0.78125
v 0.375 0.25 0.71875
v 0.375 0.25 0.78125
v 0.3125 0.3125 0.71875
v 0.3125 0.25 0.71875
v 0.3125 0.25 0.78125
vt 0.25 0.53125
vt 0.25 0.75
vt 0 0.75
vt 0 0.53125
vt 0.25 0.53125
vt 0.25 0.75
vt 0 0.75
vt 0 0.53125
vt 0.5 0.75
vt 0.5 1
vt 0 1
vt 0 0.75
vt 1 1
vt 1 0.75
vt 0.5 0.75
vt 0.5 1
vt 0.75 0.53125
vt 0.75 0.75
vt 0.25 0.75
vt 0.25 0.53125
vt 0.75 0.53125
vt 0.75 0.75
vt 0.25 0.75
vt 0.25 0.53125
vt 0.03125 0.96875
vt 0.03125 1
vt 0 1
vt 0 0.96875
vt 0.5 0.96875
vt 0.5 1
vt 0.46875 1
vt 0.46875 0.96875
vt 0.5 0.96875
vt 0.5 1
vt 0 1
vt 0 0.96875
vt 0.5 0.96875
vt 0.5 1
vt 0 1
vt 0 0.96875
vt 0.5 0.96875
vt 0.5 1
vt 0 1
vt 0 0.96875
vt 0 0.96875
vt 0 1
vt 0.5 1
vt 0.5 0.96875
vt 0.03125 0.75
vt 0.03125 0.78125
vt 0 0.78125
vt 0 0.75
vt 0.5 0.75
vt 0.5 0.78125
vt 0.46875 0.78125
vt 0.46875 0.75
vt 0.5 0.75
vt 0.5 0.78125
vt 0 0.78125
vt 0 0.75
vt 0.5 0.75
vt 0.5 0.78125
vt 0 0.78125
vt 0 0.75
vt 0.5 0.75
vt 0.5 0.78125
vt 0 0.78125
vt 0 0.75
vt 0.5 0.75
vt 0.5 0.78125
vt 0 0.78125
vt 0 0.75
vt 0.5 0.96875
vt 0.46875 0.96875
vt 0.46875 0.78125
vt 0.5 0.78125
vt 0.5 0.78125
vt 0.46875 0.78125
vt 0.46875 0.96875
vt 0.5 0.96875
vt 0.03125 0.78125
vt 0.03125 0.96875
vt 0 0.96875
vt 0 0.78125
vt 0.03125 0.78125
vt 0.03125 0.96875
vt 0 0.96875
vt 0 0.78125
vt 0.03125 0.9375
vt 0.03125 0.96875
vt 0 0.96875
vt 0 0.9375
vt 0.03125 0.78125
vt 0.03125 0.8125
vt 0 0.8125
vt 0 0.78125
vt 0.5 0.96875
vt 0.46875 0.96875
vt 0.46875 0.78125
vt 0.5 0.78125
vt 0.5 0.78125
vt 0.46875 0.78125
vt 0.46875 0.96875
vt 0.5 0.96875
vt 0.5 0.78125
vt 0.5 0.96875
vt 0.46875 0.96875
vt 0.46875 0.78125
vt 0.5 0.78125
vt 0.5 0.96875
vt 0.46875 0.96875
vt 0.46875 0.78125
vt 0.5 0.9375
vt 0.5 0.96875
vt 0.46875 0.96875
vt 0.46875 0.9375
vt 0.5 0.78125
vt 0.5 0.8125
vt 0.46875 0.8125
vt 0.46875 0.78125
vt 0.78125 0.71875
vt 0.78125 0.75
vt 0.96875 0.75
vt 0.96875 0.71875
vt 0.78125 0.75
vt 0.96875 0.75
vt 0.96875 0.5625
vt 0.78125 0.5625
vt 0.78125 0.75
vt 0.8125 0.75
vt 0.8125 0.5625
vt 0.78125 0.5625
vt 0.9375 0.5625
vt 0.96875 0.5625
vt 0.96875 0.75
vt 0.9375 0.75
vt 1 0.56518125
vt 0.96875 0.56518125
vt 0.96875 0.609375
vt 1 0.609375
vt 1 0.70580625
vt 1 0.75
vt 0.96875 0.75
vt 0.96875 0.70580625
vt 0.5625 0.71875
vt 0.5625 0.75
vt 0.4375 0.75
vt 0.4375 0.71875
vt 1 0.5625
vt 1 0.75
vt 0.96875 0.71875
vt 0.96875 0.59375
vt 1 0.5625
vt 1 0.59375
vt 0.96875 0.59375
vt 0.96875 0.5625
vt 1 0.5625
vt 1 0.59375
vt 0.96875 0.59375
vt 0.96875 0.5625
vt 1 0.5625
vt 1 0.59375
vt 0.96875 0.59375
vt 0.96875 0.5625
vt 1 0.71875
vt 1 0.75
vt 0.96875 0.75
vt 0.96875 0.71875
vt 1 0.5625
vt 1 0.59375
vt 0.96875 0.59375
vt 0.96875 0.5625
vt 0.28125 0.96875
vt 0.28125 1
vt 0.09375 1
vt 0.09375 0.96875
vt 0.96875 0.5625
vt 1 0.5625
vt 1 0.75
vt 0.96875 0.75
vt 0.96875 0.5625
vt 1 0.5625
vt 1 0.75
vt 0.96875 0.75
vt 1 0.71875
vt 1 0.75
vt 0.96875 0.75
vt 0.96875 0.71875
vt 1 0.71875
vt 1 0.75
vt 0.96875 0.75
vt 0.96875 0.71875
vt 1 0.71875
vt 1 0.75
vt 0.96875 0.75
vt 0.96875 0.71875
vt 0.96875 0.75
vt 0.96875 0.5625
vt 1 0.5625
vt 1 0.75
vt 0.96875 0.609375
vt 0.96875 0.56518125
vt 1 0.56518125
vt 1 0.609375
vt 0.96875 0.75
vt 1 0.75
vt 1 0.70580625
vt 0.96875 0.70580625
vt 0.4375 0.75
vt 0.5625 0.75
vt 0.5625 0.71875
vt 0.4375 0.71875
vt 0.96875 0.71875
vt 1 0.75
vt 1 0.5625
vt 0.96875 0.59375
vt 0.96875 0.59375
vt 1 0.59375
vt 1 0.5625
vt 0.96875 0.5625
vt 0.96875 0.59375
vt 1 0.59375
vt 1 0.5625
vt 0.96875 0.5625
vt 0.96875 0.59375
vt 1 0.59375
vt 1 0.5625
vt 0.96875 0.5625
vt 0.96875 0.75
vt 1 0.75
vt 1 0.71875
vt 0.96875 0.71875
vt 0.96875 0.59375
vt 1 0.59375
vt 1 0.5625
vt 0.96875 0.5625
vt 0.09375 1
vt 0.28125 1
vt 0.28125 0.96875
vt 0.09375 0.96875
vt 1 0.75
vt 1 0.5625
vt 0.96875 0.5625
vt 0.96875 0.75
vt 1 0.75
vt 1 0.5625
vt 0.96875 0.5625
vt 0.96875 0.75
vt 0.96875 0.75
vt 1 0.75
vt 1 0.71875
vt 0.96875 0.71875
vt 0.96875 0.75
vt 1 0.75
vt 1 0.71875
vt 0.96875 0.71875
vt 0.96875 0.75
vt 1 0.75
vt 1 0.71875
vt 0.96875 0.71875
vt 1 0.5625
vt 0.96875 0.5625
vt 0.96875 0.75
vt 1 0.75
vn 1 0 0
vn -1 0 0
vn 0 1 0
vn 0 -1 0
vn 0 0 1
vn 0 0 -1
vn 1 0 0
vn -1 0 0
vn 0 1 0
vn 0 -1 0
vn 0 0 1
vn 0 0 -1
vn 1 0 0
vn -1 0 0
vn 0 1 0
vn 0 -1 0
vn 0 0 1
vn 0 0 -1
vn 1 0 0
vn -1 0 0
vn 0 1 0
vn 0 -1 0
vn 0 0 1
vn 0 0 -1
vn 1 0 0
vn -1 0 0
vn 0 1 0
vn 0 -1 0
vn 0 0 1
vn 0 0 -1
vn 0.9961946980917457 0.08715574274765817 0
vn -0.08715574274765812 0.9961946980917455 0
vn 0 0 1
vn 0 0 -1
vn 0.7071067811865476 -0.7071067811865476 0
vn -0.7071067811865476 -0.7071067811865476 0
vn 0 -1 0
vn 0 0 -1
vn 1 0 0
vn -1 0 0
vn 0 0 -1
vn 1 0 0
vn -1 0 0
vn 0 1 0
vn 0 -1 0
vn 0 0 -1
vn 1 0 0
vn -1 0 0
vn 0 0 -1
vn 0 1 0
vn 0.7071067811865476 -0.7071067811865476 0
vn -0.7071067811865476 -0.7071067811865476 0
vn 0 -1 0
vn 0 0 1
vn 1 0 0
vn -1 0 0
vn 0 0 1
vn 1 0 0
vn -1 0 0
vn 0 1 0
vn 0 -1 0
vn 0 0 1
vn 1 0 0
vn -1 0 0
vn 0 0 1
vn 0 1 0
usemtl m_0
f 5/1/1 3/2/1 2/3/1 4/4/1
f 8/5/2 6/6/2 7/7/2 9/8/2
f 2/9/3 3/10/3 7/11/3 6/12/3
f 5/13/4 4/14/4 8/15/4 9/16/4
f 4/17/5 2/18/5 6/19/5 8/20/5
f 9/21/6 7/22/6 3/23/6 5/24/6
f 13/25/7 11/26/7 10/27/7 12/28/7
f 16/29/8 14/30/8 15/31/8 17/32/8
f 10/33/9 11/34/9 15/35/9 14/36/9
f 13/37/10 12/38/10 16/39/10 17/40/10
f 12/41/11 10/42/11 14/43/11 16/44/11
f 17/45/12 15/46/12 11/47/12 13/48/12
f 21/49/13 19/50/13 18/51/13 20/52/13
f 24/53/14 22/54/14 23/55/14 25/56/14
f 18/57/15 19/58/15 23/59/15 22/60/15
f 21/61/16 20/62/16 24/63/16 25/64/16
f 20/65/17 18/66/17 22/67/17 24/68/17
f 25/69/18 23/70/18 19/71/18 21/72/18
f 29/73/19 27/74/19 26/75/19 28/76/19
f 32/77/20 30/78/20 31/79/20 33/80/20
f 26/81/21 27/82/21 31/83/21 30/84/21
f 29/85/22 28/86/22 32/87/22 33/88/22
f 28/89/23 26/90/23 30/91/23 32/92/23
f 33/93/24 31/94/24 27/95/24 29/96/24
f 37/97/25 35/98/25 34/99/25 36/100/25
f 40/101/26 38/102/26 39/103/26 41/104/26
f 34/105/27 35/106/27 39/107/27 38/108/27
f 37/109/28 36/110/28 40/111/28 41/112/28
f 36/113/29 34/114/29 38/115/29 40/116/29
f 41/117/30 39/118/30 35/119/30 37/120/30
f 45/121/31 43/122/31 42/123/31 44/124/31
f 42/125/32 43/126/32 47/127/32 46/128/32
f 44/129/33 42/130/33 46/131/33 48/132/33
f 49/133/34 47/134/34 43/135/34 45/136/34
f 51/137/35 50/138/35 52/139/35 53/140/35
f 56/141/36 54/142/36 55/143/36 57/144/36
f 53/145/37 52/146/37 56/147/37 57/148/37
f 55/149/38 51/150/38 53/151/38 57/152/38
f 61/153/39 59/154/39 58/155/39 60/156/39
f 64/157/40 62/158/40 63/159/40 65/160/40
f 65/161/41 63/162/41 59/163/41 61/164/41
f 69/165/42 67/166/42 66/167/42 68/168/42
f 72/169/43 70/170/43 71/171/43 73/172/43
f 66/173/44 67/174/44 71/175/44 70/176/44
f 69/177/45 68/178/45 72/179/45 73/180/45
f 73/181/46 71/182/46 67/183/46 69/184/46
f 77/185/47 75/186/47 74/187/47 76/188/47
f 80/189/48 78/190/48 79/191/48 81/192/48
f 81/193/49 79/194/49 75/195/49 77/196/49
f 54/197/50 50/198/50 51/199/50 55/200/50
f 84/201/51 82/202/51 83/203/51 85/204/51
f 87/205/52 86/206/52 88/207/52 89/208/52
f 88/209/53 84/210/53 85/211/53 89/212/53
f 85/213/54 83/214/54 87/215/54 89/216/54
f 90/217/55 91/218/55 93/219/55 92/220/55
f 95/221/56 94/222/56 96/223/56 97/224/56
f 91/225/57 95/226/57 97/227/57 93/228/57
f 98/229/58 99/230/58 101/231/58 100/232/58
f 103/233/59 102/234/59 104/235/59 105/236/59
f 103/237/60 99/238/60 98/239/60 102/240/60
f 104/241/61 100/242/61 101/243/61 105/244/61
f 99/245/62 103/246/62 105/247/62 101/248/62
f 106/249/63 107/250/63 109/251/63 108/252/63
f 1/253/64 110/254/64 111/255/64 112/256/64
f 107/257/65 1/258/65 112/259/65 109/260/65
f 83/261/66 82/262/66 86/263/66 87/264/66