# Made by Pabilo8 in Blockbench 4.2.5
mtllib medic_crate.mtl

o main
v 1 0.25 0.75
v 1 0.25 0.25
v 1 0 0.75
v 1 0 0.25
v 0 0.25 0.75
v 0 0.25 0.25
v 0 0 0.75
v 0 0 0.25
v 1 0.5 0.75
v 1 0.5 0.25
v 0.9375 0.5 0.75
v 0.9375 0.5 0.25
v 0.0625 0.5 0.75
v 0.0625 0.5 0.25
v 0 0.5 0.75
v 0 0.5 0.25
v 0.9375 0.5 0.3125
v 0.9375 0.25 0.3125
v 0.0625 0.5 0.3125
v 0.0625 0.25 0.3125
v 0.9375 0.5 0.6875
v 0.9375 0.25 0.6875
v 0.0625 0.5 0.6875
v 0.0625 0.25 0.6875
v 0.6875 0.375 0.28125
v 0.6875 0.375 0.21875
v 0.6875 0.3125 0.21875
v 0.3125 0.375 0.28125
v 0.3125 0.375 0.21875
v 0.3125 0.3125 0.21875
v 0.6875 0.25 0.28125
v 0.6875 0.25 0.21875
v 0.625 0.3125 0.28125
v 0.625 0.3125 0.21875
v 0.625 0.25 0.28125
v 0.625 0.25 0.21875
v 0.625 0.1875 0.28125
v 0.625 0.1875 0.21875
v 0.3125 0.25 0.28125
v 0.3125 0.25 0.21875
v 0.375 0.1875 0.28125
v 0.375 0.1875 0.21875
v 0.375 0.3125 0.28125
v 0.375 0.3125 0.21875
v 0.375 0.25 0.28125
v 0.375 0.25 0.21875
v 0.6875 0.375 0.71875
v 0.6875 0.375 0.78125
v 0.6875 0.3125 0.78125
v 0.3125 0.375 0.71875
v 0.3125 0.375 0.78125
v 0.3125 0.3125 0.78125
v 0.6875 0.25 0.71875
v 0.6875 0.25 0.78125
v 0.625 0.3125 0.71875
v 0.625 0.3125 0.78125
v 0.625 0.25 0.71875
v 0.625 0.25 0.78125
v 0.625 0.1875 0.71875
v 0.625 0.1875 0.78125
v 0.3125 0.25 0.71875
v 0.3125 0.25 0.78125
v 0.375 0.1875 0.71875
v 0.375 0.1875 0.78125
v 0.375 0.3125 0.71875
v 0.375 0.3125 0.78125
v 0.375 0.25 0.71875
v 0.375 0.25 0.78125
v 0.03125 0.53125 0.6875
v 0.03125 0.53125 0.5625
v 0.03125 0.46875 0.6875
v 0.03125 0.46875 0.5625
v -0.03125 0.53125 0.6875
v -0.03125 0.53125 0.5625
v -0.03125 0.46875 0.6875
v -0.03125 0.46875 0.5625
v 0.03125 0.53125 0.4375
v 0.03125 0.53125 0.3125
v 0.03125 0.46875 0.4375
v 0.03125 0.46875 0.3125
v -0.03125 0.53125 0.4375
v -0.03125 0.53125 0.3125
v -0.03125 0.46875 0.4375
v -0.03125 0.46875 0.3125
v 0.6752070169997536 0.39375 0.658071389218918
v 0.7077660503123031 0.39375 0.47341993552912887
v 0.6752070169997536 0.20625 0.658071389218918
v 0.7077660503123031 0.20625 0.47341993552912887
v 0.6136565324364907 0.39375 0.6472183781147347
v 0.64621556574904 0.39375 0.46256692442494574
v 0.6136565324364907 0.20625 0.6472183781147347
v 0.64621556574904 0.20625 0.46256692442494574
v 0.6163697852125364 0.378125 0.631830756973919
v 0.6435023129729942 0.378125 0.4779545455657615
v 0.6163697852125364 0.221875 0.631830756973919
v 0.6435023129729942 0.221875 0.4779545455657615
v 0.5548193006492734 0.378125 0.6209777458697359
v 0.5819518284097313 0.378125 0.46710153446157837
v 0.5548193006492734 0.221875 0.6209777458697359
v 0.5819518284097313 0.221875 0.46710153446157837
v 0.5521060478732276 0.39375 0.6363653670105516
v 0.5846650811857771 0.39375 0.4517139133207626
v 0.5521060478732276 0.20625 0.6363653670105516
v 0.5846650811857771 0.20625 0.4517139133207626
v 0.4905555633099646 0.39375 0.6255123559063684
v 0.523114596622514 0.39375 0.4408609022165795
v 0.4905555633099646 0.20625 0.6255123559063684
v 0.523114596622514 0.20625 0.4408609022165795
v 0.27108656472012127 0.33125 0.5233498867830519
v 0.2819395758243044 0.33125 0.46179940221978893
v 0.27108656472012127 0.26875 0.5233498867830519
v 0.2819395758243044 0.26875 0.46179940221978893
v 0.08643511103033219 0.33125 0.4907908534705025
v 0.09728812213451532 0.33125 0.4292403689072395
v 0.08643511103033219 0.26875 0.4907908534705025
v 0.09728812213451532 0.26875 0.4292403689072395
v 0.8526147894975146 0.4375 0.7187843522232278
v 0.9318557135738957 0.4375 0.548851642153856
v 0.8526147894975146 0.25 0.7187843522232278
v 0.9318557135738957 0.25 0.548851642153856
v 0.6826820794281427 0.4375 0.6395434281468467
v 0.7619230035045239 0.4375 0.46961071807747484
v 0.6826820794281427 0.25 0.6395434281468467
v 0.7619230035045239 0.25 0.46961071807747484
v 0.8890803069291154 0.40228226836208647 0.5332054504453136
v 0.9683212310054965 0.4390624385249569 0.36730082412551657
v 0.8890803069291154 0.21922676702709898 0.49262302283191933
v 0.9683212310054965 0.25600693718996936 0.32671839651212226
v 0.7191475968597435 0.41943314337727694 0.4558428526690489
v 0.7983885209361247 0.4562133135401474 0.2899382263492518
v 0.7191475968597435 0.23637764204228945 0.41526042505565464
v 0.7983885209361247 0.2731578122051599 0.24935579873585756
v 0.683875 0.4407768992606713 0.36249582139730174
v 0.683875 0.4326190122469181 0.30053051756143856
v 0.683875 0.2548809877530819 0.38696948243856144
v 0.683875 0.24672310073932868 0.32500417860269826
v 0.12137500000000001 0.4407768992606713 0.36249582139730174
v 0.12137500000000001 0.4326190122469181 0.30053051756143856
v 0.12137500000000001 0.2548809877530819 0.38696948243856144
v 0.12137500000000001 0.24672310073932868 0.32500417860269826
v 0 0.5625 0.75
v 0 0.5625 0.25
v 0 0.5 0.75
v 0 0.5 0.25
v 1 0.5625 0.75
v 1 0.5625 0.25
v 1 0.5 0.75
v 1 0.5 0.25
v 0.96875 0.53125 0.625
v 0.96875 0.53125 0.375
v 0.96875 0.40625 0.625
v 0.96875 0.40625 0.375
v 1.03125 0.53125 0.625
v 1.03125 0.53125 0.375
v 1.03125 0.40625 0.625
v 1.03125 0.40625 0.375
vt 1 0.5
vt 1 0.75
vt 0.5 0.75
vt 0.5 0.5
vt 1 0.03125
vt 1 0.28125
vt 0.5 0.28125
vt 0.5 0.03125
vt 0.25 0.5
vt 0 0.5
vt 0 0.46875
vt 0.25 0.46875
vt 0.25 0.5
vt 0 0.5
vt 0 0.46875
vt 0.25 0.46875
vt 0.46875 0.71875
vt 0.46875 0.75
vt 0.03125 0.75
vt 0.03125 0.71875
vt 0.5625 0.375
vt 0.5625 0.5
vt 1 0.5
vt 1 0.375
vt 0.46875 0.71875
vt 0.46875 0.75
vt 0.03125 0.75
vt 0.03125 0.71875
vt 1 0.375
vt 1 0.5
vt 0.5625 0.5
vt 0.5625 0.375
vt 0.875 0.375
vt 0.875 0.5
vt 0.6875 0.5
vt 0.6875 0.375
vt 0.6875 0.5
vt 0.875 0.5
vt 0.875 0.375
vt 0.6875 0.375
vt 0 0.25
vt 0.25 0.25
vt 0.25 0.5
vt 0 0.5
vt 0 0.75
vt 0.5 0.75
vt 0.5 0.5
vt 0 0.5
vt 0 0.25
vt 0.25 0.25
vt 0.25 0.5
vt 0 0.5
vt 0 0.75
vt 0.5 0.75
vt 0.5 0.5
vt 0 0.5
vt 0.3125 0.25
vt 0.3125 0.28125
vt 0.5 0.28125
vt 0.5 0.25
vt 0.5 0.25
vt 0.5 0.28125
vt 0.3125 0.28125
vt 0.3125 0.25
vt 0.34375 0.21875
vt 0.34375 0.25
vt 0.3125 0.25
vt 0.3125 0.21875
vt 0.34375 0.21875
vt 0.34375 0.25
vt 0.3125 0.25
vt 0.3125 0.21875
vt 0.34375 0.21875
vt 0.3125 0.21875
vt 0.3125 0.1875
vt 0.34375 0.1875
vt 0.5 0.1875
vt 0.5 0.21875
vt 0.46875 0.21875
vt 0.46875 0.1875
vt 0.34375 0.1875
vt 0.34375 0.21875
vt 0.46875 0.21875
vt 0.46875 0.1875
vt 0.5 0.21875
vt 0.3125 0.21875
vt 0.34375 0.1875
vt 0.46875 0.1875
vt 0.5 0.21875
vt 0.5 0.25
vt 0.46875 0.25
vt 0.46875 0.21875
vt 0.5 0.21875
vt 0.5 0.25
vt 0.46875 0.25
vt 0.46875 0.21875
vt 0.3125 0.28125
vt 0.3125 0.21875
vt 0.34375 0.21875
vt 0.34375 0.28125
vt 0.46875 0.21875
vt 0.5 0.21875
vt 0.5 0.28125
vt 0.46875 0.28125
vt 0.46875 0.25
vt 0.46875 0.28125
vt 0.34375 0.28125
vt 0.34375 0.25
vt 0.46875 0.1875
vt 0.34375 0.1875
vt 0.34375 0.21875
vt 0.46875 0.21875
vt 0.5 0.28125
vt 0.3125 0.28125
vt 0.3125 0.25
vt 0.5 0.25
vt 0.3125 0.28125
vt 0.5 0.28125
vt 0.5 0.25
vt 0.3125 0.25
vt 0.3125 0.25
vt 0.34375 0.25
vt 0.34375 0.21875
vt 0.3125 0.21875
vt 0.3125 0.25
vt 0.34375 0.25
vt 0.34375 0.21875
vt 0.3125 0.21875
vt 0.3125 0.1875
vt 0.3125 0.21875
vt 0.34375 0.21875
vt 0.34375 0.1875
vt 0.46875 0.21875
vt 0.5 0.21875
vt 0.5 0.1875
vt 0.46875 0.1875
vt 0.46875 0.21875
vt 0.34375 0.21875
vt 0.34375 0.1875
vt 0.46875 0.1875
vt 0.34375 0.1875
vt 0.3125 0.21875
vt 0.5 0.21875
vt 0.46875 0.1875
vt 0.46875 0.25
vt 0.5 0.25
vt 0.5 0.21875
vt 0.46875 0.21875
vt 0.46875 0.25
vt 0.5 0.25
vt 0.5 0.21875
vt 0.46875 0.21875
vt 0.34375 0.21875
vt 0.3125 0.21875
vt 0.3125 0.28125
vt 0.34375 0.28125
vt 0.5 0.28125
vt 0.5 0.21875
vt 0.46875 0.21875
vt 0.46875 0.28125
vt 0.34375 0.28125
vt 0.46875 0.28125
vt 0.46875 0.25
vt 0.34375 0.25
vt 0.34375 0.21875
vt 0.34375 0.1875
vt 0.46875 0.1875
vt 0.46875 0.21875
vt 0.4375 0.15625
vt 0.4375 0.1875
vt 0.375 0.1875
vt 0.375 0.15625
vt 0.375 0.15625
vt 0.375 0.1875
vt 0.4375 0.1875
vt 0.4375 0.15625
vt 0.375 0.1875
vt 0.4375 0.1875
vt 0.4375 0.15625
vt 0.375 0.15625
vt 0.4375 0.1875
vt 0.375 0.1875
vt 0.375 0.15625
vt 0.4375 0.15625
vt 0.40625 0.15625
vt 0.40625 0.1875
vt 0.375 0.1875
vt 0.375 0.15625
vt 0.4375 0.15625
vt 0.4375 0.1875
vt 0.40625 0.1875
vt 0.40625 0.15625
vt 0.5 0.15625
vt 0.5 0.1875
vt 0.4375 0.1875
vt 0.4375 0.15625
vt 0.4375 0.15625
vt 0.4375 0.1875
vt 0.5 0.1875
vt 0.5 0.15625
vt 0.4375 0.1875
vt 0.5 0.1875
vt 0.5 0.15625
vt 0.4375 0.15625
vt 0.5 0.1875
vt 0.4375 0.1875
vt 0.4375 0.15625
vt 0.5 0.15625
vt 0.46875 0.15625
vt 0.46875 0.1875
vt 0.4375 0.1875
vt 0.4375 0.15625
vt 0.5 0.15625
vt 0.5 0.1875
vt 0.46875 0.1875
vt 0.46875 0.15625
vt 0.28125 0.375
vt 0.28125 0.46875
vt 0.375 0.46875
vt 0.375 0.375
vt 0.375 0.375
vt 0.375 0.46875
vt 0.28125 0.46875
vt 0.28125 0.375
vt 0.375 0.46875
vt 0.28125 0.46875
vt 0.28125 0.4375
vt 0.375 0.4375
vt 0.28125 0.40625
vt 0.375 0.40625
vt 0.375 0.375
vt 0.28125 0.375
vt 0.375 0.375
vt 0.375 0.46875
vt 0.34375 0.46875
vt 0.34375 0.375
vt 0.3125 0.375
vt 0.3125 0.46875
vt 0.28125 0.46875
vt 0.28125 0.375
vt 0.40625 0.28125
vt 0.40625 0.34375
vt 0.375 0.34375
vt 0.375 0.28125
vt 0.40625 0.28125
vt 0.40625 0.34375
vt 0.375 0.34375
vt 0.375 0.28125
vt 0.40625 0.28125
vt 0.40625 0.34375
vt 0.375 0.34375
vt 0.375 0.28125
vt 0.40625 0.28125
vt 0.40625 0.34375
vt 0.375 0.34375
vt 0.375 0.28125
vt 0.28125 0.375
vt 0.28125 0.46875
vt 0.375 0.46875
vt 0.375 0.375
vt 0.375 0.375
vt 0.375 0.46875
vt 0.28125 0.46875
vt 0.28125 0.375
vt 0.375 0.46875
vt 0.28125 0.46875
vt 0.28125 0.4375
vt 0.375 0.4375
vt 0.28125 0.40625
vt 0.375 0.40625
vt 0.375 0.375
vt 0.28125 0.375
vt 0.375 0.375
vt 0.375 0.46875
vt 0.34375 0.46875
vt 0.34375 0.375
vt 0.3125 0.375
vt 0.3125 0.46875
vt 0.28125 0.46875
vt 0.28125 0.375
vt 0.5 0.375
vt 0.5 0.40625
vt 0.46875 0.40625
vt 0.46875 0.375
vt 0.4375 0.375
vt 0.4375 0.40625
vt 0.40625 0.40625
vt 0.40625 0.375
vt 0.5 0.375
vt 0.5 0.40625
vt 0.40625 0.40625
vt 0.40625 0.375
vt 0.5 0.375
vt 0.5 0.40625
vt 0.40625 0.40625
vt 0.40625 0.375
vt 0.5 0.375
vt 0.5 0.40625
vt 0.40625 0.40625
vt 0.40625 0.375
vt 0.40625 0.375
vt 0.40625 0.40625
vt 0.5 0.40625
vt 0.5 0.375
vt 0.90625 0.28125
vt 0.90625 0.375
vt 0.8125 0.375
vt 0.8125 0.28125
vt 0.71875 0.28125
vt 0.71875 0.375
vt 0.625 0.375
vt 0.625 0.28125
vt 0.53125 0.28125
vt 0.53125 0.375
vt 0.4375 0.375
vt 0.4375 0.28125
vt 0.53125 0.375
vt 0.53125 0.28125
vt 0.625 0.28125
vt 0.625 0.375
vt 0.8125 0.28125
vt 0.8125 0.375
vt 0.71875 0.375
vt 0.71875 0.28125
vt 1 0.28125
vt 1 0.375
vt 0.90625 0.375
vt 0.90625 0.28125
vt 0.90625 0.28125
vt 0.90625 0.375
vt 0.8125 0.375
vt 0.8125 0.28125
vt 0.71875 0.28125
vt 0.71875 0.375
vt 0.625 0.375
vt 0.625 0.28125
vt 0.53125 0.28125
vt 0.53125 0.375
vt 0.4375 0.375
vt 0.4375 0.28125
vt 0.53125 0.375
vt 0.53125 0.28125
vt 0.625 0.28125
vt 0.625 0.375
vt 0.8125 0.28125
vt 0.8125 0.375
vt 0.71875 0.375
vt 0.71875 0.28125
vt 1 0.28125
vt 1 0.375
vt 0.90625 0.375
vt 0.90625 0.28125
vt 0.75 0.28125
vt 0.75 0.375
vt 0.71875 0.375
vt 0.71875 0.28125
vt 1 0.28125
vt 1 0.375
vt 0.96875 0.375
vt 0.96875 0.28125
vt 1 0.34375
vt 1 0.375
vt 0.71875 0.375
vt 0.71875 0.34375
vt 1 0.28125
vt 1 0.3125
vt 0.71875 0.3125
vt 0.71875 0.28125
vt 1 0.28125
vt 1 0.375
vt 0.71875 0.375
vt 0.71875 0.28125
vt 1 0.28125
vt 1 0.375
vt 0.71875 0.375
vt 0.71875 0.28125
vt 0 0.75
vt 0 1
vt 0.03125 1
vt 0.03125 0.75
vt 0.46875 1
vt 0.46875 0.75
vt 0.5 0.75
vt 0.5 1
vt 0.5 1
vt 0 1
vt 0 0.75
vt 0.5 0.75
vt 1 0.75
vt 0.5 0.75
vt 0.5 1
vt 1 1
vt 0.5 0.78125
vt 0 0.78125
vt 0 0.75
vt 0.5 0.75
vt 0 1
vt 0.5 1
vt 0.5 0.96875
vt 0 0.96875
vt 0.5 0.5
vt 0.5 0.375
vt 0.5625 0.375
vt 0.5625 0.5
vt 0.5 0.375
vt 0.5 0.5
vt 0.5625 0.5
vt 0.5625 0.375
vt 0.53125 0.375
vt 0.5 0.375
vt 0.5 0.5
vt 0.53125 0.5
vt 0.5625 0.5
vt 0.53125 0.5
vt 0.53125 0.375
vt 0.5625 0.375
vt 0.5 0.46875
vt 0.5 0.5
vt 0.5625 0.5
vt 0.5625 0.46875
vt 0.5 0.375
vt 0.5 0.40625
vt 0.5625 0.40625
vt 0.5625 0.375
vn 0 1 0
vn 0 -1 0
vn 0 1 0
vn 0 1 0
vn 0 1 0
vn 0 0 1
vn 0 1 0
vn 0 0 -1
vn -1 0 0
vn 1 0 0
vn 1 0 0
vn 0 0 -1
vn -1 0 0
vn 0 0 1
vn 0 1 0
vn 0 0 -1
vn -1 0 0
vn 0 0 -1
vn 0.7071067811865476 -0.7071067811865476 0
vn -0.7071067811865476 -0.7071067811865476 0
vn 0 -1 0
vn 0 0 -1
vn 1 0 0
vn 0 0 -1
vn 1 0 0
vn -1 0 0
vn 0 -1 0
vn 0 1 0
vn 0 1 0
vn 0 0 1
vn -1 0 0
vn 0 0 1
vn 0.7071067811865476 -0.7071067811865476 0
vn -0.7071067811865476 -0.7071067811865476 0
vn 0 -1 0
vn 0 0 1
vn 1 0 0
vn 0 0 1
vn 1 0 0
vn -1 0 0
vn 0 -1 0
vn 0 1 0
vn 1 0 0
vn -1 0 0
vn 0 1 0
vn 0 -1 0
vn 0 0 1
vn 0 0 -1
vn 1 0 0
vn -1 0 0
vn 0 1 0
vn 0 -1 0
vn 0 0 1
vn 0 0 -1
vn 0.984807753012208 0 0.1736481776669306
vn -0.9848077530122082 0 -0.17364817766693014
vn 0 1 0
vn 0 -1 0
vn -0.17364817766693197 0 0.9848077530122079
vn 0.17364817766692991 0 -0.9848077530122081
vn 0 1 0
vn 0 -1 0
vn -0.17364817766693025 0 0.9848077530122081
vn 0.17364817766693025 0 -0.9848077530122081
vn 0.984807753012208 0 0.17364817766693072
vn -0.9848077530122082 0 -0.17364817766693044
vn 0 1 0
vn 0 -1 0
vn -0.17364817766693008 0 0.9848077530122081
vn 0.17364817766692991 0 -0.9848077530122081
vn 0.9848077530122081 0 0.17364817766693008
vn -0.9848077530122081 0 -0.17364817766693008
vn 0 1 0
vn 0 -1 0
vn -0.17364817766693033 0 0.9848077530122081
vn 0.17364817766693033 0 -0.9848077530122081
vn 0.9063077870366499 0 0.42261826174069966
vn -0.9063077870366499 0 -0.42261826174069955
vn 0 1 0
vn 0 -1 0
vn -0.42261826174069916 0 0.9063077870366502
vn 0.4226182617406995 0 -0.9063077870366502
vn 0.9063077870366502 -0.09147133341434903 0.41260052147341136
vn -0.9063077870366499 0.09147133341434903 -0.4126005214734118
vn 0 0.9762960071199335 0.21643961393810301
vn -1.480297366166875e-16 -0.9762960071199335 -0.21643961393810274
vn -0.4226182617406995 -0.196160907535309 0.8848246737055843
vn 0.4226182617406998 0.1961609075353087 -0.8848246737055842
vn 1 0 0
vn -1 0 0
vn 0 0.9914448613738106 -0.13052619222005107
vn 0 -0.9914448613738106 0.13052619222005107
vn 0 0.13052619222005174 0.9914448613738104
vn 0 -0.13052619222005174 -0.9914448613738104
vn -1 0 0
vn 1 0 0
vn 0 1 0
vn 0 -1 0
vn 0 0 1
vn 0 0 -1
vn -1 0 0
vn 1 0 0
vn 0 1 0
vn 0 -1 0
vn 0 0 1
vn 0 0 -1
usemtl m_0
f 1/1/1 2/2/1 6/3/1 5/4/1
f 4/5/2 3/6/2 7/7/2 8/8/2
f 9/9/3 10/10/3 12/11/3 11/12/3
f 13/13/4 14/14/4 16/15/4 15/16/4
f 17/17/5 12/18/5 14/19/5 19/20/5
f 18/21/6 17/22/6 19/23/6 20/24/6
f 11/25/7 21/26/7 23/27/7 13/28/7
f 24/29/8 23/30/8 21/31/8 22/32/8
f 22/33/9 21/34/9 17/35/9 18/36/9
f 19/37/10 23/38/10 24/39/10 20/40/10
f 3/41/11 4/42/11 10/43/11 9/44/11
f 16/45/12 10/46/12 4/47/12 8/48/12
f 8/49/13 7/50/13 15/51/13 16/52/13
f 9/53/14 15/54/14 7/55/14 3/56/14
f 25/57/15 26/58/15 29/59/15 28/60/15
f 30/61/16 29/62/16 26/63/16 27/64/16
f 35/65/17 33/66/17 34/67/17 36/68/17
f 36/69/18 34/70/18 27/71/18 32/72/18
f 32/73/19 31/74/19 37/75/19 38/76/19
f 41/77/20 39/78/20 40/79/20 42/80/20
f 38/81/21 37/82/21 41/83/21 42/84/21
f 40/85/22 32/86/22 38/87/22 42/88/22
f 46/89/23 44/90/23 43/91/23 45/92/23
f 40/93/24 30/94/24 44/95/24 46/96/24
f 25/97/25 31/98/25 32/99/25 26/100/25
f 40/101/26 39/102/26 28/103/26 29/104/26
f 34/105/27 33/106/27 43/107/27 44/108/27
f 45/109/28 35/110/28 36/111/28 46/112/28
f 51/113/29 48/114/29 47/115/29 50/116/29
f 48/117/30 51/118/30 52/119/30 49/120/30
f 56/121/31 55/122/31 57/123/31 58/124/31
f 49/125/32 56/126/32 58/127/32 54/128/32
f 59/129/33 53/130/33 54/131/33 60/132/33
f 62/133/34 61/134/34 63/135/34 64/136/34
f 63/137/35 59/138/35 60/139/35 64/140/35
f 60/141/36 54/142/36 62/143/36 64/144/36
f 65/145/37 66/146/37 68/147/37 67/148/37
f 66/149/38 52/150/38 62/151/38 68/152/38
f 54/153/39 53/154/39 47/155/39 48/156/39
f 50/157/40 61/158/40 62/159/40 51/160/40
f 65/161/41 55/162/41 56/163/41 66/164/41
f 58/165/42 57/166/42 67/167/42 68/168/42
f 72/169/43 70/170/43 69/171/43 71/172/43
f 75/173/44 73/174/44 74/175/44 76/176/44
f 69/177/45 70/178/45 74/179/45 73/180/45
f 72/181/46 71/182/46 75/183/46 76/184/46
f 71/185/47 69/186/47 73/187/47 75/188/47
f 76/189/48 74/190/48 70/191/48 72/192/48
f 80/193/49 78/194/49 77/195/49 79/196/49
f 83/197/50 81/198/50 82/199/50 84/200/50
f 77/201/51 78/202/51 82/203/51 81/204/51
f 80/205/52 79/206/52 83/207/52 84/208/52
f 79/209/53 77/210/53 81/211/53 83/212/53
f 84/213/54 82/214/54 78/215/54 80/216/54
f 88/217/55 86/218/55 85/219/55 87/220/55
f 91/221/56 89/222/56 90/223/56 92/224/56
f 85/225/57 86/226/57 90/227/57 89/228/57
f 88/229/58 87/230/58 91/231/58 92/232/58
f 87/233/59 85/234/59 89/235/59 91/236/59
f 92/237/60 90/238/60 86/239/60 88/240/60
f 93/241/61 94/242/61 98/243/61 97/244/61
f 96/245/62 95/246/62 99/247/62 100/248/62
f 95/249/63 93/250/63 97/251/63 99/252/63
f 100/253/64 98/254/64 94/255/64 96/256/64
f 104/257/65 102/258/65 101/259/65 103/260/65
f 107/261/66 105/262/66 106/263/66 108/264/66
f 101/265/67 102/266/67 106/267/67 105/268/67
f 104/269/68 103/270/68 107/271/68 108/272/68
f 103/273/69 101/274/69 105/275/69 107/276/69
f 108/277/70 106/278/70 102/279/70 104/280/70
f 112/281/71 110/282/71 109/283/71 111/284/71
f 115/285/72 113/286/72 114/287/72 116/288/72
f 109/289/73 110/290/73 114/291/73 113/292/73
f 112/293/74 111/294/74 115/295/74 116/296/74
f 111/297/75 109/298/75 113/299/75 115/300/75
f 116/301/76 114/302/76 110/303/76 112/304/76
f 120/305/77 118/306/77 117/307/77 119/308/77
f 123/309/78 121/310/78 122/311/78 124/312/78
f 117/313/79 118/314/79 122/315/79 121/316/79
f 120/317/80 119/318/80 123/319/80 124/320/80
f 119/321/81 117/322/81 121/323/81 123/324/81
f 124/325/82 122/326/82 118/327/82 120/328/82
f 128/329/83 126/330/83 125/331/83 127/332/83
f 131/333/84 129/334/84 130/335/84 132/336/84
f 125/337/85 126/338/85 130/339/85 129/340/85
f 128/341/86 127/342/86 131/343/86 132/344/86
f 127/345/87 125/346/87 129/347/87 131/348/87
f 132/349/88 130/350/88 126/351/88 128/352/88
f 136/353/89 134/354/89 133/355/89 135/356/89
f 139/357/90 137/358/90 138/359/90 140/360/90
f 133/361/91 134/362/91 138/363/91 137/364/91
f 136/365/92 135/366/92 139/367/92 140/368/92
f 135/369/93 133/370/93 137/371/93 139/372/93
f 140/373/94 138/374/94 134/375/94 136/376/94
f 141/377/95 142/378/95 144/379/95 143/380/95
f 146/381/96 145/382/96 147/383/96 148/384/96
f 146/385/97 142/386/97 141/387/97 145/388/97
f 147/389/98 143/390/98 144/391/98 148/392/98
f 145/393/99 141/394/99 143/395/99 147/396/99
f 142/397/100 146/398/100 148/399/100 144/400/100
f 149/401/101 150/402/101 152/403/101 151/404/101
f 154/405/102 153/406/102 155/407/102 156/408/102
f 154/409/103 150/410/103 149/411/103 153/412/103
f 155/413/104 151/414/104 152/415/104 156/416/104
f 153/417/105 149/418/105 151/419/105 155/420/105
f 150/421/106 154/422/106 156/423/106 152/424/106