# Made by Pabilo8 with Blockbench
# Exported with IIToolkit Plugin on 15/05/2026
mtllib latex_collector.mtl

o base
v 0.9375 0.25 1
v 0.9375 0.25 0.25
v 0.9375 0.1875 1
v 0.9375 0.1875 0.25
v 0.0625 0.25 1
v 0.0625 0.25 0.25
v 0.0625 0.1875 1
v 0.0625 0.1875 0.25
v 0.8125 0.1875 0.875
v 0.8125 0.1875 0.25
v 0.8125 0.125 0.875
v 0.8125 0.125 0.25
v 0.6875 0.1875 0.875
v 0.6875 0.1875 0.25
v 0.6875 0.125 0.875
v 0.6875 0.125 0.25
v 0.3125 0.1875 0.875
v 0.3125 0.1875 0.25
v 0.3125 0.125 0.875
v 0.3125 0.125 0.25
v 0.1875 0.1875 0.875
v 0.1875 0.1875 0.25
v 0.1875 0.125 0.875
v 0.1875 0.125 0.25
vt 0.4688 1
vt 0.4375 1
vt 0.4375 0.625
vt 0.4688 0.625
vt 0.4375 0.625
vt 0.4688 0.625
vt 0.4688 1
vt 0.4375 1
vt 0.875 0.625
vt 0.875 1
vt 0.4375 1
vt 0.4375 0.625
vt 0.875 1
vt 0.875 0.625
vt 0.4375 0.625
vt 0.4375 1
vt 0.875 0.625
vt 0.875 0.6563
vt 0.4375 0.6563
vt 0.4375 0.625
vt 0.4375 1
vt 0.4375 0.9688
vt 0.875 0.9688
vt 0.875 1
vt 0.4063 0.7813
vt 0.375 0.7813
vt 0.375 0.4688
vt 0.4063 0.4688
vt 0.3438 0.4688
vt 0.375 0.4688
vt 0.375 0.7813
vt 0.3438 0.7813
vt 0.4063 0.4688
vt 0.4063 0.7813
vt 0.3438 0.7813
vt 0.3438 0.4688
vt 0.4063 0.75
vt 0.4063 0.7813
vt 0.3438 0.7813
vt 0.3438 0.75
vt 0.3438 0.5
vt 0.3438 0.4688
vt 0.4063 0.4688
vt 0.4063 0.5
vt 0.4063 0.7813
vt 0.375 0.7813
vt 0.375 0.4688
vt 0.4063 0.4688
vt 0.3438 0.4688
vt 0.375 0.4688
vt 0.375 0.7813
vt 0.3438 0.7813
vt 0.4063 0.4688
vt 0.4063 0.7813
vt 0.3438 0.7813
vt 0.3438 0.4688
vt 0.4063 0.75
vt 0.4063 0.7813
vt 0.3438 0.7813
vt 0.3438 0.75
vt 0.3438 0.5
vt 0.3438 0.4688
vt 0.4063 0.4688
vt 0.4063 0.5
vn 1 0 0
vn -1 0 0
vn 0 1 0
vn 0 -1 0
vn 0 0 1
vn 0 0 -1
vn 1 0 0
vn -1 0 0
vn 0 -1 0
vn 0 0 1
vn 0 0 -1
vn 1 0 0
vn -1 0 0
vn 0 -1 0
vn 0 0 1
vn 0 0 -1
usemtl latex_collector
f 4/1/1 2/2/1 1/3/1 3/4/1
f 7/5/2 5/6/2 6/7/2 8/8/2
f 1/9/3 2/10/3 6/11/3 5/12/3
f 4/13/4 3/14/4 7/15/4 8/16/4
f 3/17/5 1/18/5 5/19/5 7/20/5
f 8/21/6 6/22/6 2/23/6 4/24/6
f 12/25/7 10/26/7 9/27/7 11/28/7
f 15/29/8 13/30/8 14/31/8 16/32/8
f 12/33/9 11/34/9 15/35/9 16/36/9
f 11/37/10 9/38/10 13/39/10 15/40/10
f 16/41/11 14/42/11 10/43/11 12/44/11
f 20/45/12 18/46/12 17/47/12 19/48/12
f 23/49/13 21/50/13 22/51/13 24/52/13
f 20/53/14 19/54/14 23/55/14 24/56/14
f 19/57/15 17/58/15 21/59/15 23/60/15
f 24/61/16 22/62/16 18/63/16 20/64/16
o item
v 0.1522 0.4374 0.2813
v 0.1522 0.4374 0.9688
v 0.1603 0.2501 0.2813
v 0.1603 0.2501 0.9688
v 0.8438 0.4375 0.2813
v 0.8438 0.4375 0.9688
v 0.8438 0.25 0.2813
v 0.8438 0.25 0.9688
v 0.6583 0.3062 0.3438
v 0.6583 0.3062 0.4688
v 0.7803 0.2792 0.3438
v 0.7803 0.2792 0.4688
v 0.6989 0.4893 0.3438
v 0.6989 0.4893 0.4688
v 0.8209 0.4622 0.3438
v 0.8209 0.4622 0.4688
v 0.4261 0.367 0.7813
v 0.4261 0.367 0.9063
v 0.4044 0.2439 0.7813
v 0.4044 0.2439 0.9063
v 0.2414 0.3996 0.7813
v 0.2414 0.3996 0.9063
v 0.2197 0.2765 0.7813
v 0.2197 0.2765 0.9063
v 0.6347 0.3595 0.7391
v 0.7559 0.3381 0.7174
v 0.6096 0.2389 0.7177
v 0.7308 0.2175 0.696
v 0.6606 0.3218 0.921
v 0.7818 0.3005 0.8993
v 0.6355 0.2013 0.8996
v 0.7568 0.1799 0.8779
v 0.1756 0.2501 0.2969
v 0.1678 0.4374 0.2969
v 0.8281 0.4375 0.2969
v 0.8281 0.25 0.2969
v 0.1756 0.2501 0.9531
v 0.1678 0.4374 0.9531
v 0.8281 0.25 0.9531
v 0.8281 0.4375 0.9531
v 0.375 0.415 0.3415
v 0.375 0.3959 0.7786
v 0.375 0.3525 0.3388
v 0.375 0.3335 0.7758
v 0.4375 0.415 0.3415
v 0.4375 0.3959 0.7786
v 0.4375 0.3525 0.3388
v 0.4375 0.3335 0.7758
v 0.375 0.2901 0.336
v 0.375 0.271 0.7731
v 0.625 0.3525 0.3388
v 0.625 0.3335 0.7758
v 0.625 0.2901 0.336
v 0.625 0.271 0.7731
v 0.5625 0.415 0.3415
v 0.5625 0.3959 0.7786
v 0.5625 0.3525 0.3388
v 0.5625 0.3335 0.7758
v 0.625 0.415 0.3415
v 0.625 0.3959 0.7786
vt 0.375 0.0313
vt 0.375 0.125
vt 0 0.125
vt 0 0.0313
vt 0.375 0.0313
vt 0.375 0.125
vt 0 0.125
vt 0 0.0313
vt 0.375 0.0313
vt 0.375 0.125
vt 0 0.125
vt 0 0.0313
vt 0.375 0.0313
vt 0.375 0.125
vt 0 0.125
vt 0 0.0313
vt 0.5938 0.1875
vt 0.5938 0.25
vt 0.5313 0.25
vt 0.5313 0.1875
vt 0.5938 0.1875
vt 0.5938 0.25
vt 0.5313 0.25
vt 0.5313 0.1875
vt 0.6875 0.0938
vt 0.625 0.0938
vt 0.625 0.1875
vt 0.6875 0.1875
vt 0.5313 0.0938
vt 0.5938 0.0938
vt 0.5938 0.1875
vt 0.5313 0.1875
vt 0.5625 0.0938
vt 0.625 0.0938
vt 0.625 0.1875
vt 0.5625 0.1875
vt 0.5938 0.1875
vt 0.6563 0.1875
vt 0.6563 0.0938
vt 0.5938 0.0938
vt 0.5313 0.25
vt 0.5938 0.25
vt 0.5938 0.1875
vt 0.5313 0.1875
vt 0.5313 0.25
vt 0.5938 0.25
vt 0.5938 0.1875
vt 0.5313 0.1875
vt 0.625 0.1875
vt 0.625 0.0938
vt 0.6875 0.0938
vt 0.6875 0.1875
vt 0.5938 0.1875
vt 0.5938 0.0938
vt 0.5313 0.0938
vt 0.5313 0.1875
vt 0.625 0.1875
vt 0.625 0.0938
vt 0.5625 0.0938
vt 0.5625 0.1875
vt 0.6563 0.0938
vt 0.6563 0.1875
vt 0.5938 0.1875
vt 0.5938 0.0938
vt 0.5313 0.25
vt 0.5938 0.25
vt 0.5938 0.1875
vt 0.5313 0.1875
vt 0.5313 0.25
vt 0.5938 0.25
vt 0.5938 0.1875
vt 0.5313 0.1875
vt 0.625 0.1875
vt 0.625 0.0938
vt 0.6875 0.0938
vt 0.6875 0.1875
vt 0.5938 0.1875
vt 0.5938 0.0938
vt 0.5313 0.0938
vt 0.5313 0.1875
vt 0.625 0.1875
vt 0.625 0.0938
vt 0.5625 0.0938
vt 0.5625 0.1875
vt 0.6563 0.0938
vt 0.6563 0.1875
vt 0.5938 0.1875
vt 0.5938 0.0938
vt 0 0.125
vt 0.375 0.125
vt 0.375 0.0313
vt 0 0.0313
vt 0 0.125
vt 0.375 0.125
vt 0.375 0.0313
vt 0 0.0313
vt 0 0.125
vt 0.375 0.125
vt 0.375 0.0313
vt 0 0.0313
vt 0 0.125
vt 0.375 0.125
vt 0.375 0.0313
vt 0 0.0313
vt 0.4375 1
vt 0.4063 1
vt 0.4063 0.7813
vt 0.4375 0.7813
vt 0.4063 0.7813
vt 0.4375 0.7813
vt 0.4375 1
vt 0.4063 1
vt 0.4375 0.7813
vt 0.4375 1
vt 0.4063 1
vt 0.4063 0.7813
vt 0.4063 0.8125
vt 0.4063 0.7813
vt 0.4375 0.7813
vt 0.4375 0.8125
vt 0.4375 0.9688
vt 0.4375 1
vt 0.4063 1
vt 0.4063 0.9688
vt 0.4375 1
vt 0.4063 1
vt 0.4063 0.7813
vt 0.4375 0.7813
vt 0.3125 0.7813
vt 0.3438 0.7813
vt 0.3438 1
vt 0.3125 1
vt 0.4375 0.7813
vt 0.4375 1
vt 0.3125 1
vt 0.3125 0.7813
vt 0.3125 1
vt 0.3125 0.7813
vt 0.4375 0.7813
vt 0.4375 1
vt 0.3125 0.8125
vt 0.3125 0.7813
vt 0.4375 0.7813
vt 0.4375 0.8125
vt 0.4375 0.9688
vt 0.4375 1
vt 0.3125 1
vt 0.3125 0.9688
vt 0.3438 1
vt 0.3125 1
vt 0.3125 0.7813
vt 0.3438 0.7813
vt 0.3125 0.7813
vt 0.3438 0.7813
vt 0.3438 1
vt 0.3125 1
vt 0.3438 0.7813
vt 0.3438 1
vt 0.3125 1
vt 0.3125 0.7813
vt 0.3125 0.8125
vt 0.3125 0.7813
vt 0.3438 0.7813
vt 0.3438 0.8125
vt 0.3438 0.9688
vt 0.3438 1
vt 0.3125 1
vt 0.3125 0.9688
vn -1 -0.04 0
vn 1 0 0
vn 0 0 -1
vn 0 0 1
vn -0.22 -0.98 0
vn 0.22 0.98 0
vn -0.98 0.22 0
vn 0.98 -0.22 0
vn 0 0 -1
vn 0 0 1
vn 0.98 -0.17 0
vn -0.98 0.17 0
vn 0.17 0.98 0
vn -0.17 -0.98 0
vn 0 0 -1
vn 0 0 1
vn -0.14 0.2 -0.97
vn 0.14 -0.2 0.97
vn 0.2 0.96 0.17
vn -0.2 -0.96 -0.17
vn -0.97 0.17 0.17
vn 0.97 -0.17 -0.17
vn 1 0.04 0
vn -1 0 0
vn 0 0 1
vn 0 0 -1
vn -1 0 0
vn 1 0 0
vn 0 1 0.04
vn 0 0.04 -1
vn 0 -0.04 1
vn -1 0 0
vn 1 0 0
vn 0 1 0.04
vn 0 -1 -0.04
vn 0 0.04 -1
vn 0 -0.04 1
vn -1 0 0
vn 1 0 0
vn 0 1 0.04
vn 0 0.04 -1
vn 0 -0.04 1
usemtl latex_collector
f 28/65/17 26/66/17 25/67/17 27/68/17
f 31/69/18 29/70/18 30/71/18 32/72/18
f 27/73/19 25/74/19 29/75/19 31/76/19
f 32/77/20 30/78/20 26/79/20 28/80/20
f 36/81/21 34/82/21 33/83/21 35/84/21
f 39/85/22 37/86/22 38/87/22 40/88/22
f 33/89/23 34/90/23 38/91/23 37/92/23
f 36/93/24 35/94/24 39/95/24 40/96/24
f 35/97/25 33/98/25 37/99/25 39/100/25
f 40/101/26 38/102/26 34/103/26 36/104/26
f 41/105/27 42/106/27 44/107/27 43/108/27
f 46/109/28 45/110/28 47/111/28 48/112/28
f 46/113/29 42/114/29 41/115/29 45/116/29
f 47/117/30 43/118/30 44/119/30 48/120/30
f 45/121/31 41/122/31 43/123/31 47/124/31
f 42/125/32 46/126/32 48/127/32 44/128/32
f 49/129/33 50/130/33 52/131/33 51/132/33
f 54/133/34 53/134/34 55/135/34 56/136/34
f 54/137/35 50/138/35 49/139/35 53/140/35
f 55/141/36 51/142/36 52/143/36 56/144/36
f 53/145/37 49/146/37 51/147/37 55/148/37
f 50/149/38 54/150/38 56/151/38 52/152/38
f 58/153/39 62/154/39 61/155/39 57/156/39
f 64/157/40 59/158/40 60/159/40 63/160/40
f 59/161/41 58/162/41 57/163/41 60/164/41
f 62/165/42 64/166/42 63/167/42 61/168/42
f 68/169/43 66/170/43 65/171/43 67/172/43
f 71/173/44 69/174/44 70/175/44 72/176/44
f 65/177/45 66/178/45 70/179/45 69/180/45
f 67/181/46 65/182/46 69/183/46 71/184/46
f 72/185/47 70/186/47 66/187/47 68/188/47
f 74/189/48 68/190/48 67/191/48 73/192/48
f 77/193/49 75/194/49 76/195/49 78/196/49
f 67/197/50 68/198/50 76/199/50 75/200/50
f 74/201/51 73/202/51 77/203/51 78/204/51
f 73/205/52 67/206/52 75/207/52 77/208/52
f 78/209/53 76/210/53 68/211/53 74/212/53
f 82/213/54 80/214/54 79/215/54 81/216/54
f 75/217/55 83/218/55 84/219/55 76/220/55
f 79/221/56 80/222/56 84/223/56 83/224/56
f 81/225/57 79/226/57 83/227/57 75/228/57
f 76/229/58 84/230/58 80/231/58 82/232/58