# Made by Pabilo8 with Blockbench
# Exported with IIToolkit Plugin on 15/05/2026
mtllib latex_collector.mtl

o base
v 0.9375 0.25 1
v 0.9375 0.25 0.25
v 0.9375 0.1875 1
v 0.9375 0.1875 0.25
v 0.0625 0.25 1
v 0.0625 0.25 0.25
v 0.0625 0.1875 1
v 0.0625 0.1875 0.25
v 0.8125 0.1875 0.875
v 0.8125 0.1875 0.25
v 0.8125 0.125 0.875
v 0.8125 0.125 0.25
v 0.6875 0.1875 0.875
v 0.6875 0.1875 0.25
v 0.6875 0.125 0.875
v 0.6875 0.125 0.25
v 0.3125 0.1875 0.875
v 0.3125 0.1875 0.25
v 0.3125 0.125 0.875
v 0.3125 0.125 0.25
v 0.1875 0.1875 0.875
v 0.1875 0.1875 0.25
v 0.1875 0.125 0.875
v 0.1875 0.125 0.25
vt 0.4688 1
vt 0.4375 1
vt 0.4375 0.625
vt 0.4688 0.625
vt 0.4375 0.625
vt 0.4688 0.625
vt 0.4688 1
vt 0.4375 1
vt 0.875 0.625
vt 0.875 1
vt 0.4375 1
vt 0.4375 0.625
vt 0.875 1
vt 0.875 0.625
vt 0.4375 0.625
vt 0.4375 1
vt 0.875 0.625
vt 0.875 0.6563
vt 0.4375 0.6563
vt 0.4375 0.625
vt 0.4375 1
vt 0.4375 0.9688
vt 0.875 0.9688
vt 0.875 1
vt 0.4063 0.7813
vt 0.375 0.7813
vt 0.375 0.4688
vt 0.4063 0.4688
vt 0.3438 0.4688
vt 0.375 0.4688
vt 0.375 0.7813
vt 0.3438 0.7813
vt 0.4063 0.4688
vt 0.4063 0.7813
vt 0.3438 0.7813
vt 0.3438 0.4688
vt 0.4063 0.75
vt 0.4063 0.7813
vt 0.3438 0.7813
vt 0.3438 0.75
vt 0.3438 0.5
vt 0.3438 0.4688
vt 0.4063 0.4688
vt 0.4063 0.5
vt 0.4063 0.7813
vt 0.375 0.7813
vt 0.375 0.4688
vt 0.4063 0.4688
vt 0.3438 0.4688
vt 0.375 0.4688
vt 0.375 0.7813
vt 0.3438 0.7813
vt 0.4063 0.4688
vt 0.4063 0.7813
vt 0.3438 0.7813
vt 0.3438 0.4688
vt 0.4063 0.75
vt 0.4063 0.7813
vt 0.3438 0.7813
vt 0.3438 0.75
vt 0.3438 0.5
vt 0.3438 0.4688
vt 0.4063 0.4688
vt 0.4063 0.5
vn 1 0 0
vn -1 0 0
vn 0 1 0
vn 0 -1 0
vn 0 0 1
vn 0 0 -1
vn 1 0 0
vn -1 0 0
vn 0 -1 0
vn 0 0 1
vn 0 0 -1
vn 1 0 0
vn -1 0 0
vn 0 -1 0
vn 0 0 1
vn 0 0 -1
usemtl latex_collector
f 4/1/1 2/2/1 1/3/1 3/4/1
f 7/5/2 5/6/2 6/7/2 8/8/2
f 1/9/3 2/10/3 6/11/3 5/12/3
f 4/13/4 3/14/4 7/15/4 8/16/4
f 3/17/5 1/18/5 5/19/5 7/20/5
f 8/21/6 6/22/6 2/23/6 4/24/6
f 12/25/7 10/26/7 9/27/7 11/28/7
f 15/29/8 13/30/8 14/31/8 16/32/8
f 12/33/9 11/34/9 15/35/9 16/36/9
f 11/37/10 9/38/10 13/39/10 15/40/10
f 16/41/11 14/42/11 10/43/11 12/44/11
f 20/45/12 18/46/12 17/47/12 19/48/12
f 23/49/13 21/50/13 22/51/13 24/52/13
f 20/53/14 19/54/14 23/55/14 24/56/14
f 19/57/15 17/58/15 21/59/15 23/60/15
f 24/61/16 22/62/16 18/63/16 20/64/16