# Made by Pabilo8 with Blockbench
# Exported with IIToolkit Plugin
mtllib flagpole.mtl


o main
v 0.15625 8.1875 0.15625
v 0.15625 8.1875 -0.15625
v 0.15625 8 0.15625
v 0.15625 8 -0.15625
v -0.15625 8.1875 0.15625
v -0.15625 8.1875 -0.15625
v -0.15625 8 0.15625
v -0.15625 8 -0.15625
v 0.25 2.875 0.25
v 0.25 2.875 -0.25
v 0.25 2 0.25
v 0.25 2 -0.25
v -0.25 2.875 0.25
v -0.25 2.875 -0.25
v -0.25 2 0.25
v -0.25 2 -0.25
v 0.125 8 0.125
v 0.125 8 -0.125
v 0.125 2.875 0.125
v 0.125 2.875 -0.125
v -0.125 8 0.125
v -0.125 8 -0.125
v -0.125 2.875 0.125
v -0.125 2.875 -0.125
v -0.125 5.4375 0.125
v -0.125 5.4375 -0.125
v 0.125 5.4375 -0.125
v 0.125 5.4375 0.125
v -0.125 6.71875 0.125
v -0.125 6.71875 -0.125
v 0.125 6.71875 -0.125
v 0.125 6.71875 0.125
v -0.125 4.15625 0.125
v -0.125 4.15625 -0.125
v 0.125 4.15625 -0.125
v 0.125 4.15625 0.125
v 0.4375 2.822313125 0.43724312499999995
v 0.4375 2.8125 0.25
v 0.4375 2.01092625 0.47976624999999995
v 0.4375 2.00111375 0.292523125
v -0.375 2.822313125 0.43724312499999995
v -0.375 2.8125 0.25
v -0.375 2.01092625 0.47976624999999995
v -0.375 2.00111375 0.292523125
v -0.125 3.3125 0.0625
v -0.125 3.3125 -0.0625
v -0.125 3.0625 0.0625
v -0.125 3.0625 -0.0625
v -0.3125 3.3125 0.0625
v -0.3125 3.3125 -0.0625
v -0.3125 3.0625 0.0625
v -0.3125 3.0625 -0.0625
v -0.125 8.125 0.0625
v -0.125 8.125 -0.0625
v -0.125 8 0.0625
v -0.125 8 -0.0625
v -0.3125 8.125 0.0625
v -0.3125 8.125 -0.0625
v -0.3125 8 0.0625
v -0.3125 8 -0.0625
v 0.1875 2.5625 -0.6875
v 0.1875 2.5625 -1.25
v 0.1875 2 -0.6875
v 0.1875 2 -1.25
v -0.375 2.5625 -0.6875
v -0.375 2.5625 -1.25
v -0.375 2 -0.6875
v -0.375 2 -1.25
v -0.3903533932386347 2.75 -0.5041083175735339
v -0.4687497406893748 2.75 -1.249999739099739
v -0.3903533932386347 2 -0.5041083175735339
v -0.4687497406893748 2 -1.249999739099739
v -1.13624481476484 2.75 -0.4257119701227938
v -1.21464116221558 2.75 -1.1716033916489987
v -1.13624481476484 2 -0.4257119701227938
v -1.21464116221558 2 -1.1716033916489987
v -0.8734344591834251 2.375 0.9962731474789015
v -0.8124997874808515 2.375 0.5000000716582402
v -0.8734344591834251 2.1875 0.9962731474789015
v -0.8124997874808515 2.1875 0.5000000716582402
v -1.1215709970937557 2.375 0.9658058116276145
v -1.0606363253911821 2.375 0.4695327358069534
v -1.1215709970937557 2.1875 0.9658058116276145
v -1.0606363253911821 2.1875 0.4695327358069534
v -0.1875 8 0.0625
v -0.1875 8 -0.0625
v -0.1875 7 0.0625
v -0.1875 7 -0.0625
v -0.1875 6 0.0625
v -0.1875 6 -0.0625
v -0.1875 5 0.0625
v -0.1875 5 -0.0625
v -0.1875 4 0.0625
v -0.1875 3 0.0625
v -0.1875 4 -0.0625
v -0.1875 3 -0.0625
v -0.125 8 0
v -0.25 8 0
v -0.125 7 0
v -0.25 7 0
v -0.125 6 0
v -0.25 6 0
v -0.125 5 0
v -0.25 5 0
v -0.125 4 0
v -0.125 3 0
v -0.25 4 0
v -0.25 3 0
v 1.5 0 1.5
v 1.5 0 -1.5
v -1.5 0 1.5
v -1.5 0 -1.5
v -1.25 2 1.25
v -1.25 2 -1.25
v 1.25 2 -1.25
v 1.25 2 1.25
v -1.25 2 0
v 1.25 2 0
v 0 2 0
v 0 2 1.25
v 0 2 -1.25
v 0.5625000000000002 2.3125 0.375
v 1.1875000000000002 2.3125 0.375
v 0.5625000000000002 2 0.375
v 1.1875000000000002 2 0.375
v 0.5625 2.3125 -0.5
v 1.1875 2.3125 -0.5
v 0.5625 2 -0.5
v 1.1875 2 -0.5
v 0.5188829251480559 2.3125 1.1783205499203322
v 1.1385359635066874 2.3125 1.2598994200578644
v 0.5188829251480559 2 1.1783205499203322
v 1.1385359635066874 2 1.2598994200578644
v 0.633093343340601 2.3125 0.31080629621824785
v 1.2527463816992326 2.3125 0.39238516635578025
v 0.633093343340601 2 0.31080629621824785
v 1.2527463816992326 2 0.39238516635578025
v -0.625 2.8125 1.1875
v -0.625 2.8125 0.4375
v -0.625 2.6875 1.1875
v -0.625 2.6875 0.4375
v -1.25 2.8125 1.1875
v -1.25 2.8125 0.4375
v -1.25 2.6875 1.1875
v -1.25 2.6875 0.4375
v -1.0625 2.6875 0.625
v -1.0625 2.6875 0.5
v -1.0625 2 0.625
v -1.0625 2 0.5
v -1.1875 2.6875 0.625
v -1.1875 2.6875 0.5
v -1.1875 2 0.625
v -1.1875 2 0.5
v -1.0625 2.6875 1.125
v -1.0625 2.6875 1
v -1.0625 2 1.125
v -1.0625 2 1
v -1.1875 2.6875 1.125
v -1.1875 2.6875 1
v -1.1875 2 1.125
v -1.1875 2 1
v -0.6875 2.6875 0.625
v -0.6875 2.6875 0.5
v -0.6875 2 0.625
v -0.6875 2 0.5
v -0.8125 2.6875 0.625
v -0.8125 2.6875 0.5
v -0.8125 2 0.625
v -0.8125 2 0.5
v -0.6875 2.6875 1.125
v -0.6875 2.6875 1
v -0.6875 2 1.125
v -0.6875 2 1
v -0.8125 2.6875 1.125
v -0.8125 2.6875 1
v -0.8125 2 1.125
v -0.8125 2 1
vt 0.250000 0.000000
vt 0.250000 0.062500
vt 0.125000 0.062500
vt 0.125000 0.000000
vt 0.250000 0.000000
vt 0.250000 0.062500
vt 0.125000 0.062500
vt 0.125000 0.000000
vt 1.000000 0.046875
vt 1.000000 0.171875
vt 0.875000 0.171875
vt 0.875000 0.046875
vt 1.000000 0.046875
vt 1.000000 0.171875
vt 0.875000 0.171875
vt 0.875000 0.046875
vt 0.125000 0.000000
vt 0.125000 0.062500
vt 0.250000 0.062500
vt 0.250000 0.000000
vt 0.125000 0.000000
vt 0.125000 0.062500
vt 0.250000 0.062500
vt 0.250000 0.000000
vt 1.000000 0.000000
vt 1.000000 0.218750
vt 0.875000 0.218750
vt 0.875000 0.000000
vt 1.000000 0.000000
vt 1.000000 0.218750
vt 0.875000 0.218750
vt 0.875000 0.000000
vt 1.000000 0.046875
vt 1.000000 0.171875
vt 0.875000 0.171875
vt 0.875000 0.046875
vt 1.000000 0.000000
vt 1.000000 0.109375
vt 1.000000 0.109375
vt 1.000000 0.000000
vt 1.000000 0.000000
vt 1.000000 0.218750
vt 0.875000 0.218750
vt 0.875000 0.000000
vt 1.000000 0.000000
vt 1.000000 0.218750
vt 0.875000 0.218750
vt 0.875000 0.000000
vt 0.750000 1.000000
vt 0.750000 0.679688
vt 0.812500 0.679688
vt 0.812500 1.000000
vt 0.750000 0.968750
vt 0.750000 0.648438
vt 0.812500 0.648438
vt 0.812500 0.968750
vt 1.000000 0.843750
vt 1.000000 0.781250
vt 1.000000 0.781250
vt 1.000000 0.843750
vt 1.000000 0.781250
vt 1.000000 0.843750
vt 1.000000 0.843750
vt 1.000000 0.781250
vt 0.750000 0.921875
vt 0.750000 0.601562
vt 0.812500 0.601562
vt 0.812500 0.921875
vt 0.750000 0.984375
vt 0.750000 0.664062
vt 0.812500 0.664062
vt 0.812500 0.984375
vt 0.750000 1.000000
vt 0.750000 0.679688
vt 0.812500 0.679688
vt 0.812500 1.000000
vt 0.750000 0.968750
vt 0.750000 0.648438
vt 0.812500 0.648438
vt 0.812500 0.968750
vt 0.750000 0.937500
vt 0.750000 0.617188
vt 0.812500 0.617188
vt 0.812500 0.937500
vt 0.750000 0.984375
vt 0.750000 0.664062
vt 0.812500 0.664062
vt 0.812500 0.984375
vt 0.812500 0.617188
vt 0.812500 0.937500
vt 0.750000 0.937500
vt 0.750000 0.617188
vt 0.812500 0.632812
vt 0.812500 0.953125
vt 0.750000 0.953125
vt 0.750000 0.632812
vt 0.812500 0.648438
vt 0.812500 0.968750
vt 0.750000 0.968750
vt 0.750000 0.648438
vt 0.812500 0.617188
vt 0.812500 0.937500
vt 0.750000 0.937500
vt 0.750000 0.617188
vt 0.812500 0.507812
vt 0.812500 0.828125
vt 0.750000 0.828125
vt 0.750000 0.507812
vt 0.812500 0.507812
vt 0.812500 0.828125
vt 0.750000 0.828125
vt 0.750000 0.507812
vt 0.812500 0.507812
vt 0.812500 0.828125
vt 0.750000 0.828125
vt 0.750000 0.507812
vt 0.812500 0.617188
vt 0.812500 0.937500
vt 0.750000 0.937500
vt 0.750000 0.617188
vt 0.718750 0.015625
vt 0.718750 0.234375
vt 0.750000 0.234375
vt 0.750000 0.015625
vt 0.500000 0.015625
vt 0.500000 0.234375
vt 0.531250 0.234375
vt 0.531250 0.015625
vt 0.750000 0.031250
vt 0.750000 0.000000
vt 0.531250 0.000000
vt 0.531250 0.031250
vt 0.734375 0.218750
vt 0.734375 0.250000
vt 0.515625 0.250000
vt 0.515625 0.218750
vt 0.515625 0.015625
vt 0.515625 0.234375
vt 0.734375 0.234375
vt 0.734375 0.015625
vt 0.515625 0.015625
vt 0.515625 0.234375
vt 0.734375 0.234375
vt 0.734375 0.015625
vt 1.000000 0.421875
vt 1.000000 0.484375
vt 1.000000 0.484375
vt 1.000000 0.421875
vt 0.750000 0.406250
vt 0.750000 0.468750
vt 0.718750 0.468750
vt 0.718750 0.406250
vt 0.750000 0.406250
vt 0.718750 0.406250
vt 0.718750 0.453125
vt 0.750000 0.453125
vt 0.718750 0.421875
vt 0.750000 0.421875
vt 0.750000 0.468750
vt 0.718750 0.468750
vt 0.718750 0.406250
vt 0.718750 0.468750
vt 0.671875 0.468750
vt 0.671875 0.406250
vt 0.734375 0.406250
vt 0.734375 0.468750
vt 0.687500 0.468750
vt 0.687500 0.406250
vt 1.000000 0.421875
vt 1.000000 0.484375
vt 1.000000 0.484375
vt 1.000000 0.421875
vt 0.750000 0.406250
vt 0.750000 0.468750
vt 0.718750 0.468750
vt 0.718750 0.406250
vt 0.750000 0.406250
vt 0.718750 0.406250
vt 0.718750 0.453125
vt 0.750000 0.453125
vt 0.718750 0.421875
vt 0.750000 0.421875
vt 0.750000 0.468750
vt 0.718750 0.468750
vt 0.718750 0.406250
vt 0.718750 0.468750
vt 0.671875 0.468750
vt 0.671875 0.406250
vt 0.734375 0.406250
vt 0.734375 0.468750
vt 0.687500 0.468750
vt 0.687500 0.406250
vt 0.953125 0.593750
vt 0.953125 0.734375
vt 0.812500 0.734375
vt 0.812500 0.593750
vt 0.953125 0.593750
vt 0.953125 0.734375
vt 0.812500 0.734375
vt 0.812500 0.593750
vt 0.953125 0.593750
vt 0.953125 0.734375
vt 0.812500 0.734375
vt 0.812500 0.593750
vt 0.953125 0.593750
vt 0.953125 0.734375
vt 0.812500 0.734375
vt 0.812500 0.593750
vt 0.953125 0.593750
vt 0.953125 0.734375
vt 0.812500 0.734375
vt 0.812500 0.593750
vt 0.953125 0.593750
vt 0.953125 0.734375
vt 0.812500 0.734375
vt 0.812500 0.593750
vt 0.437500 0.062500
vt 0.437500 0.250000
vt 0.250000 0.250000
vt 0.250000 0.062500
vt 0.437500 0.062500
vt 0.437500 0.250000
vt 0.250000 0.250000
vt 0.250000 0.062500
vt 0.437500 0.062500
vt 0.437500 0.250000
vt 0.250000 0.250000
vt 0.250000 0.062500
vt 0.437500 0.062500
vt 0.437500 0.250000
vt 0.250000 0.250000
vt 0.250000 0.062500
vt 0.437500 0.062500
vt 0.437500 0.250000
vt 0.250000 0.250000
vt 0.250000 0.062500
vt 0.437500 0.062500
vt 0.437500 0.250000
vt 0.250000 0.250000
vt 0.250000 0.062500
vt 0.500000 0.328125
vt 0.500000 0.375000
vt 0.375000 0.375000
vt 0.375000 0.328125
vt 0.453125 0.343750
vt 0.453125 0.375000
vt 0.375000 0.375000
vt 0.375000 0.343750
vt 0.468750 0.375000
vt 0.343750 0.375000
vt 0.343750 0.312500
vt 0.468750 0.312500
vt 0.453125 0.359375
vt 0.453125 0.375000
vt 0.375000 0.375000
vt 0.375000 0.359375
vt 0.421875 0.343750
vt 0.421875 0.375000
vt 0.375000 0.375000
vt 0.375000 0.343750
vt 0.437500 0.343750
vt 0.437500 0.375000
vt 0.375000 0.375000
vt 0.375000 0.343750
vt 0.125000 0.000000
vt 0.125000 1.000000
vt 0.000000 1.000000
vt 0.000000 0.000000
vt 0.125000 0.000000
vt 0.125000 1.000000
vt 0.000000 1.000000
vt 0.000000 0.000000
vt 0.125000 0.000000
vt 0.125000 1.000000
vt 0.000000 1.000000
vt 0.000000 0.000000
vt 0.125000 0.000000
vt 0.125000 1.000000
vt 0.000000 1.000000
vt 0.000000 0.000000
vt 0.125000 0.000000
vt 0.125000 1.000000
vt 0.000000 1.000000
vt 0.000000 0.000000
vt 0.125000 0.000000
vt 0.125000 1.000000
vt 0.000000 1.000000
vt 0.000000 0.000000
vt 0.125000 0.000000
vt 0.125000 1.000000
vt 0.000000 1.000000
vt 0.000000 0.000000
vt 0.125000 0.000000
vt 0.125000 1.000000
vt 0.000000 1.000000
vt 0.000000 0.000000
vt 0.125000 0.000000
vt 0.125000 1.000000
vt 0.000000 1.000000
vt 0.000000 0.000000
vt 0.125000 0.000000
vt 0.125000 1.000000
vt 0.000000 1.000000
vt 0.000000 0.000000
vt 0.000000 0.250000
vt 0.000000 1.000000
vt 0.750000 1.000000
vt 0.750000 0.250000
vt 0.750000 1.000000
vt 0.437500 1.000000
vt 0.437500 0.687500
vt 0.750000 0.687500
vt 0.437500 1.000000
vt 0.437500 0.687500
vt 0.750000 0.687500
vt 0.750000 1.000000
vt 0.437500 1.000000
vt 0.437500 0.687500
vt 0.750000 0.687500
vt 0.750000 1.000000
vt 0.750000 1.000000
vt 0.437500 1.000000
vt 0.437500 0.687500
vt 0.750000 0.687500
vt 0.500000 0.718750
vt 0.500000 0.796875
vt 0.343750 0.796875
vt 0.343750 0.718750
vt 0.500000 0.718750
vt 0.500000 0.796875
vt 0.343750 0.796875
vt 0.343750 0.718750
vt 0.750000 0.625000
vt 0.750000 0.781250
vt 0.531250 0.781250
vt 0.531250 0.625000
vt 0.812500 0.625000
vt 0.812500 0.781250
vt 0.593750 0.781250
vt 0.593750 0.625000
vt 0.437500 0.796875
vt 0.437500 0.875000
vt 0.218750 0.875000
vt 0.218750 0.796875
vt 0.437500 0.796875
vt 0.437500 0.875000
vt 0.218750 0.875000
vt 0.218750 0.796875
vt 0.500000 0.718750
vt 0.500000 0.796875
vt 0.343750 0.796875
vt 0.343750 0.718750
vt 0.500000 0.718750
vt 0.500000 0.796875
vt 0.343750 0.796875
vt 0.343750 0.718750
vt 0.968750 0.843750
vt 0.968750 1.000000
vt 0.750000 1.000000
vt 0.750000 0.843750
vt 0.812500 0.625000
vt 0.812500 0.781250
vt 0.593750 0.781250
vt 0.593750 0.625000
vt 0.437500 0.796875
vt 0.437500 0.875000
vt 0.218750 0.875000
vt 0.218750 0.796875
vt 0.437500 0.796875
vt 0.437500 0.875000
vt 0.218750 0.875000
vt 0.218750 0.796875
vt 0.218750 0.703125
vt 0.218750 0.734375
vt 0.031250 0.734375
vt 0.031250 0.703125
vt 0.562500 0.703125
vt 0.562500 0.734375
vt 0.375000 0.734375
vt 0.375000 0.703125
vt 0.265625 0.250000
vt 0.265625 0.062500
vt 0.421875 0.062500
vt 0.421875 0.250000
vt 0.375000 0.734375
vt 0.375000 0.921875
vt 0.531250 0.921875
vt 0.531250 0.734375
vt 0.718750 0.703125
vt 0.718750 0.734375
vt 0.562500 0.734375
vt 0.562500 0.703125
vt 0.375000 0.703125
vt 0.375000 0.734375
vt 0.218750 0.734375
vt 0.218750 0.703125
vt 0.796875 0.390625
vt 0.796875 0.562500
vt 0.765625 0.562500
vt 0.765625 0.390625
vt 0.796875 0.375000
vt 0.796875 0.546875
vt 0.765625 0.546875
vt 0.765625 0.375000
vt 0.140625 0.859375
vt 0.140625 0.828125
vt 0.171875 0.828125
vt 0.171875 0.859375
vt 0.171875 0.828125
vt 0.171875 0.859375
vt 0.203125 0.859375
vt 0.203125 0.828125
vt 0.796875 0.359375
vt 0.796875 0.531250
vt 0.765625 0.531250
vt 0.765625 0.359375
vt 0.796875 0.375000
vt 0.796875 0.546875
vt 0.765625 0.546875
vt 0.765625 0.375000
vt 0.796875 0.390625
vt 0.796875 0.562500
vt 0.765625 0.562500
vt 0.765625 0.390625
vt 0.796875 0.375000
vt 0.796875 0.546875
vt 0.765625 0.546875
vt 0.765625 0.375000
vt 0.140625 0.859375
vt 0.140625 0.828125
vt 0.171875 0.828125
vt 0.171875 0.859375
vt 0.171875 0.828125
vt 0.171875 0.859375
vt 0.203125 0.859375
vt 0.203125 0.828125
vt 0.796875 0.359375
vt 0.796875 0.531250
vt 0.765625 0.531250
vt 0.765625 0.359375
vt 0.796875 0.375000
vt 0.796875 0.546875
vt 0.765625 0.546875
vt 0.765625 0.375000
vt 0.796875 0.390625
vt 0.796875 0.562500
vt 0.765625 0.562500
vt 0.765625 0.390625
vt 0.796875 0.375000
vt 0.796875 0.546875
vt 0.765625 0.546875
vt 0.765625 0.375000
vt 0.140625 0.859375
vt 0.140625 0.828125
vt 0.171875 0.828125
vt 0.171875 0.859375
vt 0.171875 0.828125
vt 0.171875 0.859375
vt 0.203125 0.859375
vt 0.203125 0.828125
vt 0.796875 0.359375
vt 0.796875 0.531250
vt 0.765625 0.531250
vt 0.765625 0.359375
vt 0.796875 0.375000
vt 0.796875 0.546875
vt 0.765625 0.546875
vt 0.765625 0.375000
vt 0.796875 0.390625
vt 0.796875 0.562500
vt 0.765625 0.562500
vt 0.765625 0.390625
vt 0.796875 0.375000
vt 0.796875 0.546875
vt 0.765625 0.546875
vt 0.765625 0.375000
vt 0.140625 0.859375
vt 0.140625 0.828125
vt 0.171875 0.828125
vt 0.171875 0.859375
vt 0.171875 0.828125
vt 0.171875 0.859375
vt 0.203125 0.859375
vt 0.203125 0.828125
vt 0.796875 0.359375
vt 0.796875 0.531250
vt 0.765625 0.531250
vt 0.765625 0.359375
vt 0.796875 0.375000
vt 0.796875 0.546875
vt 0.765625 0.546875
vt 0.765625 0.375000
vn 1 0 0
vn -1 0 0
vn 0 1 0
vn 0 -1 0
vn 0 0 1
vn 0 0 -1
vn 1 0 0
vn -1 0 0
vn 0 1 0
vn 0 -1 0
vn 0 0 1
vn 0 0 -1
vn 1 0 0
vn -1 0 0
vn 0 1 0
vn 0 -1 0
vn 0 0 1
vn 0 0 -1
vn -1 0 0
vn 0 0 -1
vn 1 0 0
vn 0 0 1
vn -1 0 0
vn 0 0 -1
vn 1 0 0
vn 0 0 1
vn -1 0 0
vn 0 0 -1
vn 1 0 0
vn 0 0 1
vn 1 0 0
vn -1 0 0
vn 0 0.9986294988989391 -0.05233664040472852
vn 0 -0.998629673109726 0.052333316202605396
vn 0 0.052336128989130766 0.998629525701315
vn 0 -0.052336169192529945 -0.9986295235943362
vn 1 0 0
vn -1 0 0
vn 0 1 0
vn 0 -1 0
vn 0 0 1
vn 0 0 -1
vn 1 0 0
vn -1 0 0
vn 0 1 0
vn 0 -1 0
vn 0 0 1
vn 0 0 -1
vn 1 0 0
vn -1 0 0
vn 0 1 0
vn 0 -1 0
vn 0 0 1
vn 0 0 -1
vn 0.9945218953682734 0 -0.10452846326765346
vn -0.9945218953682734 0 0.10452846326765318
vn 0 1 0
vn 0 -1 0
vn 0.10452846326765342 0 0.9945218953682734
vn -0.10452846326765375 0 -0.9945218953682734
vn 0.9925461516413221 0 0.12186934340514716
vn -0.9925461516413221 0 -0.12186934340514721
vn 0 1 0
vn 0 -1 0
vn -0.12186934340514805 0 0.9925461516413221
vn 0.12186934340514716 0 -0.9925461516413221
vn -1 0 0
vn -1 0 0
vn -1 0 0
vn -1 0 0
vn -1 0 0
vn 0 0 1
vn 0 0 1
vn 0 0 1
vn 0 0 1
vn 0 0 1
vn 0 -1 0
vn 0 1 0
vn 0 1 0
vn 0 1 0
vn 0 1 0
vn 0 0 1
vn 0 0 -1
vn 0 1 0
vn 0 -1 0
vn -1 0 2.5376526277146434e-16
vn 1 0 -2.5376526277146434e-16
vn -0.13052619222005152 0 0.9914448613738106
vn 0.13052619222005182 0 -0.9914448613738104
vn 0 1 0
vn 0 -1 0
vn -0.9914448613738106 0 -0.13052619222005152
vn 0.9914448613738104 0 0.13052619222005163
vn 1 0 0
vn -1 0 0
vn 0 1 0
vn 0 -1 0
vn 0 0 1
vn 0 0 -1
vn 1 0 0
vn -1 0 0
vn 0 1 0
vn 0 -1 0
vn 0 0 1
vn 0 0 -1
vn 1 0 0
vn -1 0 0
vn 0 1 0
vn 0 -1 0
vn 0 0 1
vn 0 0 -1
vn 1 0 0
vn -1 0 0
vn 0 1 0
vn 0 -1 0
vn 0 0 1
vn 0 0 -1
vn 1 0 0
vn -1 0 0
vn 0 1 0
vn 0 -1 0
vn 0 0 1
vn 0 0 -1
usemtl flagpole
f 4/1/1 2/2/1 1/3/1
f 4/1/1 1/3/1 3/4/1
f 7/5/2 5/6/2 6/7/2
f 7/5/2 6/7/2 8/8/2
f 1/9/3 2/10/3 6/11/3
f 1/9/3 6/11/3 5/12/3
f 4/13/4 3/14/4 7/15/4
f 4/13/4 7/15/4 8/16/4
f 3/17/5 1/18/5 5/19/5
f 3/17/5 5/19/5 7/20/5
f 8/21/6 6/22/6 2/23/6
f 8/21/6 2/23/6 4/24/6
f 12/25/7 10/26/7 9/27/7
f 12/25/7 9/27/7 11/28/7
f 15/29/8 13/30/8 14/31/8
f 15/29/8 14/31/8 16/32/8
f 9/33/9 10/34/9 14/35/9
f 9/33/9 14/35/9 13/36/9
f 12/37/10 11/38/10 15/39/10
f 12/37/10 15/39/10 16/40/10
f 11/41/11 9/42/11 13/43/11
f 11/41/11 13/43/11 15/44/11
f 16/45/12 14/46/12 10/47/12
f 16/45/12 10/47/12 12/48/12
f 17/49/13 32/50/13 31/51/13
f 17/49/13 31/51/13 18/52/13
f 22/53/14 30/54/14 29/55/14
f 22/53/14 29/55/14 21/56/14
f 17/57/15 18/58/15 22/59/15
f 17/57/15 22/59/15 21/60/15
f 20/61/16 19/62/16 23/63/16
f 20/61/16 23/63/16 24/64/16
f 21/65/17 29/66/17 32/67/17
f 21/65/17 32/67/17 17/68/17
f 18/69/18 31/70/18 30/71/18
f 18/69/18 30/71/18 22/72/18
f 26/73/19 34/74/19 33/75/19
f 26/73/19 33/75/19 25/76/19
f 27/77/20 35/78/20 34/79/20
f 27/77/20 34/79/20 26/80/20
f 28/81/21 36/82/21 35/83/21
f 28/81/21 35/83/21 27/84/21
f 25/85/22 33/86/22 36/87/22
f 25/85/22 36/87/22 28/88/22
f 25/89/23 29/90/23 30/91/23
f 25/89/23 30/91/23 26/92/23
f 26/93/24 30/94/24 31/95/24
f 26/93/24 31/95/24 27/96/24
f 27/97/25 31/98/25 32/99/25
f 27/97/25 32/99/25 28/100/25
f 28/101/26 32/102/26 29/103/26
f 28/101/26 29/103/26 25/104/26
f 23/105/27 33/106/27 34/107/27
f 23/105/27 34/107/27 24/108/27
f 24/109/28 34/110/28 35/111/28
f 24/109/28 35/111/28 20/112/28
f 20/113/29 35/114/29 36/115/29
f 20/113/29 36/115/29 19/116/29
f 19/117/30 36/118/30 33/119/30
f 19/117/30 33/119/30 23/120/30
usemtl common_steel
f 40/121/31 38/122/31 37/123/31
f 40/121/31 37/123/31 39/124/31
f 43/125/32 41/126/32 42/127/32
f 43/125/32 42/127/32 44/128/32
f 37/129/33 38/130/33 42/131/33
f 37/129/33 42/131/33 41/132/33
f 40/133/34 39/134/34 43/135/34
f 40/133/34 43/135/34 44/136/34
f 39/137/35 37/138/35 41/139/35
f 39/137/35 41/139/35 43/140/35
f 44/141/36 42/142/36 38/143/36
f 44/141/36 38/143/36 40/144/36
f 48/145/37 46/146/37 45/147/37
f 48/145/37 45/147/37 47/148/37
f 51/149/38 49/150/38 50/151/38
f 51/149/38 50/151/38 52/152/38
f 45/153/39 46/154/39 50/155/39
f 45/153/39 50/155/39 49/156/39
f 48/157/40 47/158/40 51/159/40
f 48/157/40 51/159/40 52/160/40
f 47/161/41 45/162/41 49/163/41
f 47/161/41 49/163/41 51/164/41
f 52/165/42 50/166/42 46/167/42
f 52/165/42 46/167/42 48/168/42
f 56/169/43 54/170/43 53/171/43
f 56/169/43 53/171/43 55/172/43
f 59/173/44 57/174/44 58/175/44
f 59/173/44 58/175/44 60/176/44
f 53/177/45 54/178/45 58/179/45
f 53/177/45 58/179/45 57/180/45
f 56/181/46 55/182/46 59/183/46
f 56/181/46 59/183/46 60/184/46
f 55/185/47 53/186/47 57/187/47
f 55/185/47 57/187/47 59/188/47
f 60/189/48 58/190/48 54/191/48
f 60/189/48 54/191/48 56/192/48
usemtl flagpole
f 64/193/49 62/194/49 61/195/49
f 64/193/49 61/195/49 63/196/49
f 67/197/50 65/198/50 66/199/50
f 67/197/50 66/199/50 68/200/50
f 61/201/51 62/202/51 66/203/51
f 61/201/51 66/203/51 65/204/51
f 64/205/52 63/206/52 67/207/52
f 64/205/52 67/207/52 68/208/52
f 63/209/53 61/210/53 65/211/53
f 63/209/53 65/211/53 67/212/53
f 68/213/54 66/214/54 62/215/54
f 68/213/54 62/215/54 64/216/54
f 72/217/55 70/218/55 69/219/55
f 72/217/55 69/219/55 71/220/55
f 75/221/56 73/222/56 74/223/56
f 75/221/56 74/223/56 76/224/56
f 69/225/57 70/226/57 74/227/57
f 69/225/57 74/227/57 73/228/57
f 72/229/58 71/230/58 75/231/58
f 72/229/58 75/231/58 76/232/58
f 71/233/59 69/234/59 73/235/59
f 71/233/59 73/235/59 75/236/59
f 76/237/60 74/238/60 70/239/60
f 76/237/60 70/239/60 72/240/60
f 80/241/61 78/242/61 77/243/61
f 80/241/61 77/243/61 79/244/61
f 83/245/62 81/246/62 82/247/62
f 83/245/62 82/247/62 84/248/62
f 77/249/63 78/250/63 82/251/63
f 77/249/63 82/251/63 81/252/63
f 80/253/64 79/254/64 83/255/64
f 80/253/64 83/255/64 84/256/64
f 79/257/65 77/258/65 81/259/65
f 79/257/65 81/259/65 83/260/65
f 84/261/66 82/262/66 78/263/66
f 84/261/66 78/263/66 80/264/66
usemtl coil_rope_side
f 87/265/67 85/266/67 86/267/67
f 87/265/67 86/267/67 88/268/67
f 89/269/68 87/270/68 88/271/68
f 89/269/68 88/271/68 90/272/68
f 91/273/69 89/274/69 90/275/69
f 91/273/69 90/275/69 92/276/69
f 93/277/70 91/278/70 92/279/70
f 93/277/70 92/279/70 95/280/70
f 94/281/71 93/282/71 95/283/71
f 94/281/71 95/283/71 96/284/71
f 99/285/72 97/286/72 98/287/72
f 99/285/72 98/287/72 100/288/72
f 101/289/73 99/290/73 100/291/73
f 101/289/73 100/291/73 102/292/73
f 103/293/74 101/294/74 102/295/74
f 103/293/74 102/295/74 104/296/74
f 105/297/75 103/298/75 104/299/75
f 105/297/75 104/299/75 107/300/75
f 106/301/76 105/302/76 107/303/76
f 106/301/76 107/303/76 108/304/76
usemtl common_concrete_volks
f 110/305/77 109/306/77 111/307/77
f 110/305/77 111/307/77 112/308/77
usemtl flagpole
f 113/309/78 120/310/78 119/311/78
f 113/309/78 119/311/78 117/312/78
f 117/313/79 119/314/79 121/315/79
f 117/313/79 121/315/79 114/316/79
f 118/317/80 119/318/80 120/319/80
f 118/317/80 120/319/80 116/320/80
f 115/321/81 121/322/81 119/323/81
f 115/321/81 119/323/81 118/324/81
usemtl common_table
f 125/325/82 123/326/82 122/327/82
f 125/325/82 122/327/82 124/328/82
f 128/329/83 126/330/83 127/331/83
f 128/329/83 127/331/83 129/332/83
f 122/333/84 123/334/84 127/335/84
f 122/333/84 127/335/84 126/336/84
f 125/337/85 124/338/85 128/339/85
f 125/337/85 128/339/85 129/340/85
f 124/341/86 122/342/86 126/343/86
f 124/341/86 126/343/86 128/344/86
f 129/345/87 127/346/87 123/347/87
f 129/345/87 123/347/87 125/348/87
f 133/349/88 131/350/88 130/351/88
f 133/349/88 130/351/88 132/352/88
f 136/353/89 134/354/89 135/355/89
f 136/353/89 135/355/89 137/356/89
f 130/357/90 131/358/90 135/359/90
f 130/357/90 135/359/90 134/360/90
f 133/361/91 132/362/91 136/363/91
f 133/361/91 136/363/91 137/364/91
f 132/365/92 130/366/92 134/367/92
f 132/365/92 134/367/92 136/368/92
f 137/369/93 135/370/93 131/371/93
f 137/369/93 131/371/93 133/372/93
f 141/373/94 139/374/94 138/375/94
f 141/373/94 138/375/94 140/376/94
f 144/377/95 142/378/95 143/379/95
f 144/377/95 143/379/95 145/380/95
f 138/381/96 139/382/96 143/383/96
f 138/381/96 143/383/96 142/384/96
f 141/385/97 140/386/97 144/387/97
f 141/385/97 144/387/97 145/388/97
f 140/389/98 138/390/98 142/391/98
f 140/389/98 142/391/98 144/392/98
f 145/393/99 143/394/99 139/395/99
f 145/393/99 139/395/99 141/396/99
f 149/397/100 147/398/100 146/399/100
f 149/397/100 146/399/100 148/400/100
f 152/401/101 150/402/101 151/403/101
f 152/401/101 151/403/101 153/404/101
f 146/405/102 147/406/102 151/407/102
f 146/405/102 151/407/102 150/408/102
f 149/409/103 148/410/103 152/411/103
f 149/409/103 152/411/103 153/412/103
f 148/413/104 146/414/104 150/415/104
f 148/413/104 150/415/104 152/416/104
f 153/417/105 151/418/105 147/419/105
f 153/417/105 147/419/105 149/420/105
f 157/421/106 155/422/106 154/423/106
f 157/421/106 154/423/106 156/424/106
f 160/425/107 158/426/107 159/427/107
f 160/425/107 159/427/107 161/428/107
f 154/429/108 155/430/108 159/431/108
f 154/429/108 159/431/108 158/432/108
f 157/433/109 156/434/109 160/435/109
f 157/433/109 160/435/109 161/436/109
f 156/437/110 154/438/110 158/439/110
f 156/437/110 158/439/110 160/440/110
f 161/441/111 159/442/111 155/443/111
f 161/441/111 155/443/111 157/444/111
f 165/445/112 163/446/112 162/447/112
f 165/445/112 162/447/112 164/448/112
f 168/449/113 166/450/113 167/451/113
f 168/449/113 167/451/113 169/452/113
f 162/453/114 163/454/114 167/455/114
f 162/453/114 167/455/114 166/456/114
f 165/457/115 164/458/115 168/459/115
f 165/457/115 168/459/115 169/460/115
f 164/461/116 162/462/116 166/463/116
f 164/461/116 166/463/116 168/464/116
f 169/465/117 167/466/117 163/467/117
f 169/465/117 163/467/117 165/468/117
f 173/469/118 171/470/118 170/471/118
f 173/469/118 170/471/118 172/472/118
f 176/473/119 174/474/119 175/475/119
f 176/473/119 175/475/119 177/476/119
f 170/477/120 171/478/120 175/479/120
f 170/477/120 175/479/120 174/480/120
f 173/481/121 172/482/121 176/483/121
f 173/481/121 176/483/121 177/484/121
f 172/485/122 170/486/122 174/487/122
f 172/485/122 174/487/122 176/488/122
f 177/489/123 175/490/123 171/491/123
f 177/489/123 171/491/123 173/492/123
o variant_sandbags
v -1.25 3.25 0.375
v -1.25 3.25 -0.625
v -1.25 3 0.375
v -1.25 3 -0.625
v -1.5 3.25 0.375
v -1.5 3.25 -0.625
v -1.5 3 0.375
v -1.5 3 -0.625
v -1.31958625 3.25 -0.62986625
v -1.25 3.25 -1.125
v -1.31958625 3 -0.62986625
v -1.25 3 -1.125
v -1.5671537500000001 3.25 -0.664659375
v -1.497566875 3.25 -1.159793125
v -1.5671537500000001 3 -0.664659375
v -1.497566875 3 -1.159793125
v 1.2804675 3.25 1.43563625
v 1.25 3.25 1.1875
v 1.2804675 3 1.43563625
v 1.25 3 1.1875
v 0.784194375 3.25 1.4965712500000001
v 0.753726875 3.25 1.248434375
v 0.784194375 3 1.4965712500000001
v 0.753726875 3 1.248434375
v 1.25 2.25 1.5625
v 1.25 2.25 1.5
v 1.25 2 1.5625
v 1.25 2 1.5
v 0.75 2.25 1.5625
v 0.75 2.25 1.5
v 0.75 2 1.5625
v 0.75 2 1.5
v 1 2.75 1.5625
v 1 2.75 1.5
v 1 2.5 1.5625
v 1 2.5 1.5
v 0 2.75 1.5625
v 0 2.75 1.5
v 0 2.5 1.5625
v 0 2.5 1.5
v 0.4375 2.5 1.5625
v 0.4375 2.5 1.5
v 0.4375 2.25 1.5625
v 0.4375 2.25 1.5
v -0.5625 2.5 1.5625
v -0.5625 2.5 1.5
v -0.5625 2.25 1.5625
v -0.5625 2.25 1.5
v -0.5625 2 1.5625
v -0.5625 2 1.5
v -1.0625 2.25 1.5625
v -1.0625 2.25 1.5
v -1.0625 2 1.5625
v -1.0625 2 1.5
v -1 2.75 1.5625
v -1 2.75 1.5
v -1 2.5 1.5625
v -1 2.5 1.5
v -1.5 2.75 1.5625
v -1.5 2.75 1.5
v -1.5 2.5 1.5625
v -1.5 2.5 1.5
v 1.25 3 1.5
v 1.25 3 1.25
v -1.25 3 1.5
v -1.25 3 1.25
v -1.25 2 1.5
v 0 2.99375 1.5625
v 0 2.99375 1.5
v 0 2.74375 1.5625
v 0 2.74375 1.5
v -1 2.99375 1.5625
v -1 2.99375 1.5
v -1 2.74375 1.5625
v -1 2.74375 1.5
v -0.5842887499999998 3.25 1.56154875
v -0.5625 3.25 1.3125
v -0.5842887499999998 3 1.56154875
v -0.5625 3 1.3125
v -1.0823862499999999 3.25 1.5179706249999998
v -1.0605975 3.25 1.2689218750000002
v -1.0823862499999999 3 1.5179706249999998
v -1.0605975 3 1.2689218750000002
v 1.5 3.25 1.1875
v 1.5 3.25 0.1875
v 1.5 3 1.1875
v 1.5 3 0.1875
v 1.25 3.25 0.1875
v 1.25 3 0.1875
v 1.534878125 3.25 -0.25121812500000007
v 1.5 3.25 -0.75
v 1.534878125 3 -0.25121812500000007
v 1.5 3 -0.75
v 1.2854875 3.25 -0.23377874999999992
v 1.25060875 3.25 -0.732560625
v 1.2854875 3 -0.23377874999999992
v 1.25060875 3 -0.732560625
v 1.5625 2.25 -1
v 1.5 2.25 -1
v 1.5625 2 -1
v 1.5 2 -1
v 1.5625 2.25 0
v 1.5 2.25 0
v 1.5625 2 0
v 1.5 2 0
v 1.5625 3 1
v 1.5625 3 0.5
v 1.5625 2.75 1
v 1.5625 2.75 0.5
v 1.5 3 1
v 1.5 3 0.5
v 1.5 2.75 1
v 1.5 2.75 0.5
v 1.5625 2.5 1.5
v 1.5625 2.5 1
v 1.5625 2.25 1.5
v 1.5625 2.25 1
v 1.5 2.5 1.5
v 1.5 2.5 1
v 1.5 2.25 1.5
v 1.5 2.25 1
v 1.5 3 1.5
v 1.5 3 -1.5
v 1.5 2 1.5
v 1.5 2 -1.5
v 1.25 3 -1.5
v 1.25 2 -1.5
v 1.5625 2.25 0.5
v 1.5625 2 1
v 1.5625 2 0.5
v 1.5 2.25 0.5
v 1.5 2 1
v 1.5 2 0.5
v 1.5625 2.5 -0.5
v 1.5 2.5 -0.5
v 1.5625 2.25 -0.5
v 1.5 2.25 -0.5
v 1.5625 2.5 0.5
v 1.5 2.5 0.5
v 1.5625 2.75 -1
v 1.5 2.75 -1
v 1.5625 2.5 -1
v 1.5 2.5 -1
v 1.5625 2.75 0
v 1.5 2.75 0
v 1.5625 2.5 0
v 1.5 2.5 0
v 1.25 3 -1.5625
v 1.25 2.75 -1.5
v 1.25 2.75 -1.5625
v 0.75 3 -1.5
v 0.75 3 -1.5625
v 0.75 2.75 -1.5
v 0.75 2.75 -1.5625
v 1.25 2.25 -1.5
v 1.25 2.25 -1.5625
v 1.25 2 -1.5625
v 0.75 2.25 -1.5
v 0.75 2.25 -1.5625
v 0.75 2 -1.5
v 0.75 2 -1.5625
v 0.1875 2.25 -1.5
v 0.1875 2.25 -1.5625
v 0.1875 2 -1.5
v 0.1875 2 -1.5625
v -0.3125 2.25 -1.5
v -0.3125 2.25 -1.5625
v -0.3125 2 -1.5
v -0.3125 2 -1.5625
v 0.9375 2.5 -1.5
v 0.9375 2.5 -1.5625
v 0.9375 2.25 -1.5
v 0.9375 2.25 -1.5625
v -0.0625 2.5 -1.5
v -0.0625 2.5 -1.5625
v -0.0625 2.25 -1.5
v -0.0625 2.25 -1.5625
v 0.25 2.75 -1.5
v 0.25 2.75 -1.5625
v 0.25 2.5 -1.5
v 0.25 2.5 -1.5625
v -0.75 2.75 -1.5
v -0.75 2.75 -1.5625
v -0.75 2.5 -1.5
v -0.75 2.5 -1.5625
v -1 3 -1.5
v -1 3 -1.5625
v -1 2.75 -1.5
v -1 2.75 -1.5625
v -1.5 3 -1.5
v -1.5 3 -1.5625
v -1.5 2.75 -1.5
v -1.5 2.75 -1.5625
v 1.25 3 -1.25
v -1.25 3 -1.25
v -1.25 3 -1.5
v -1.25 2 -1.5
v -0.75 2.25 -1.5
v -0.75 2.25 -1.5625
v -1.25 2.5 -1.5
v -1.25 2.5 -1.5625
v -1.25 2.25 -1.5
v -1.25 2.25 -1.5625
v -1.5 2.25 0.875
v -1.5 2.25 0.375
v -1.5 2 0.875
v -1.5 2 0.375
v -1.5625 2.25 0.875
v -1.5625 2.25 0.375
v -1.5625 2 0.875
v -1.5625 2 0.375
v -1.5 2.75 1.25
v -1.5 2.75 0.75
v -1.5 2.5 1.25
v -1.5 2.5 0.75
v -1.5625 2.75 1.25
v -1.5625 2.75 0.75
v -1.5625 2.5 1.25
v -1.5625 2.5 0.75
v -1.5 2.75 -0.625
v -1.5625 2.75 -0.625
v -1.5 2.5 -0.625
v -1.5625 2.5 -0.625
v -1.5 2.75 0.375
v -1.5625 2.75 0.375
v -1.5 2.5 0.375
v -1.5625 2.5 0.375
v -1.4825499999999998 2.5 -0.375304375
v -1.5 2.5 -0.875
v -1.4825499999999998 2.25 -0.375304375
v -1.5 2.25 -0.875
v -1.5450118750000001 2.5 -0.373123125
v -1.562461875 2.5 -0.87281875
v -1.5450118750000001 2.25 -0.373123125
v -1.562461875 2.25 -0.87281875
v -1.5 2.75 -1
v -1.5 2.5 -1
v -1.5 2.5 -1.5
v -1.5625 2.75 -1
v -1.5625 2.75 -1.5
v -1.5625 2.5 -1
v -1.5625 2.5 -1.5
v -1.5 3 1.5
v -1.5 2 1.5
v -1.5 2 -1.5
v -0.7092887499999998 3.25 -1.25095125
v -0.6875 3.25 -1.5
v -0.7092887499999998 3 -1.25095125
v -0.6875 3 -1.5
v -1.0206 3.25 -1.2781875
v -0.998810625 3.25 -1.52723625
v -1.0206 3 -1.2781875
v -0.998810625 3 -1.52723625
v 1.28770875 3.25 -0.87867125
v 1.5335225 3.25 -0.924230625
v 1.19659125 3.25 -1.37029875
v 1.442405 3.25 -1.4158575
v 1.28770875 3 -0.87867125
v 1.19659125 3 -1.37029875
v 1.442405 3 -1.4158575
v 1.5335225 3 -0.924230625
v 0.69842875 3.25 -1.308373125
v 1.19652625 3.25 -1.264795625
v 0.720218125 3.25 -1.557421875
v 1.218315 3.25 -1.513844375
v 0.69842875 3 -1.308373125
v 0.720218125 3 -1.557421875
v 1.218315 3 -1.513844375
v 1.19652625 3 -1.264795625
v -1.5 0 1.5
v -1.5 0 -1.5
v 1.5 0 1.5
v 1.5 0 -1.5
v 1.25 2 1.25
v 1.25 2 -1.25
v -1.25 2 1.25
v -1.25 2 -1.25
vt 0.593750 0.937500
vt 0.593750 1.000000
vt 0.343750 1.000000
vt 0.343750 0.937500
vt 0.562500 0.937500
vt 0.562500 1.000000
vt 0.312500 1.000000
vt 0.312500 0.937500
vt 0.578125 1.000000
vt 0.328125 1.000000
vt 0.328125 0.937500
vt 0.578125 0.937500
vt 0.531250 0.937500
vt 0.531250 1.000000
vt 0.468750 1.000000
vt 0.468750 0.937500
vt 0.062500 0.937500
vt 0.062500 1.000000
vt 0.000000 1.000000
vt 0.000000 0.937500
vt 0.500000 0.937500
vt 0.500000 1.000000
vt 0.375000 1.000000
vt 0.375000 0.937500
vt 0.421875 0.812500
vt 0.421875 0.875000
vt 0.296875 0.875000
vt 0.296875 0.812500
vt 0.500000 1.000000
vt 0.375000 1.000000
vt 0.375000 0.937500
vt 0.500000 0.937500
vt 0.453125 0.812500
vt 0.453125 0.875000
vt 0.390625 0.875000
vt 0.390625 0.812500
vt 0.375000 0.937500
vt 0.375000 1.000000
vt 0.312500 1.000000
vt 0.312500 0.937500
vt 0.421875 0.812500
vt 0.421875 0.875000
vt 0.359375 0.875000
vt 0.359375 0.812500
vt 0.515625 0.812500
vt 0.515625 0.875000
vt 0.453125 0.875000
vt 0.453125 0.812500
vt 0.531250 0.812500
vt 0.531250 0.875000
vt 0.406250 0.875000
vt 0.406250 0.812500
vt 0.484375 0.812500
vt 0.484375 0.875000
vt 0.359375 0.875000
vt 0.359375 0.812500
vt 0.406250 0.937500
vt 0.406250 1.000000
vt 0.281250 1.000000
vt 0.281250 0.937500
vt 0.343750 0.796875
vt 0.343750 0.859375
vt 0.328125 0.859375
vt 0.328125 0.796875
vt 0.312500 0.828125
vt 0.312500 0.890625
vt 0.296875 0.890625
vt 0.296875 0.828125
vt 0.390625 0.875000
vt 0.390625 0.890625
vt 0.265625 0.890625
vt 0.265625 0.875000
vt 0.406250 0.859375
vt 0.406250 0.875000
vt 0.281250 0.875000
vt 0.281250 0.859375
vt 0.703125 0.812500
vt 0.703125 0.875000
vt 0.578125 0.875000
vt 0.578125 0.812500
vt 0.312500 0.843750
vt 0.312500 0.906250
vt 0.296875 0.906250
vt 0.296875 0.843750
vt 0.328125 0.859375
vt 0.328125 0.921875
vt 0.312500 0.921875
vt 0.312500 0.859375
vt 0.593750 0.843750
vt 0.593750 0.859375
vt 0.343750 0.859375
vt 0.343750 0.843750
vt 0.593750 0.859375
vt 0.593750 0.875000
vt 0.343750 0.875000
vt 0.343750 0.859375
vt 0.468750 0.812500
vt 0.468750 0.875000
vt 0.218750 0.875000
vt 0.218750 0.812500
vt 0.343750 0.828125
vt 0.343750 0.859375
vt 0.328125 0.859375
vt 0.328125 0.828125
vt 0.312500 0.828125
vt 0.312500 0.859375
vt 0.296875 0.859375
vt 0.296875 0.828125
vt 0.343750 0.859375
vt 0.343750 0.875000
vt 0.250000 0.875000
vt 0.250000 0.859375
vt 0.343750 0.843750
vt 0.343750 0.859375
vt 0.250000 0.859375
vt 0.250000 0.843750
vt 0.484375 0.812500
vt 0.484375 0.875000
vt 0.234375 0.875000
vt 0.234375 0.812500
vt 0.296875 0.796875
vt 0.250000 0.796875
vt 0.250000 0.781250
vt 0.296875 0.781250
vt 0.250000 0.781250
vt 0.250000 0.812500
vt 0.234375 0.812500
vt 0.234375 0.781250
vt 0.296875 0.796875
vt 0.296875 0.812500
vt 0.250000 0.812500
vt 0.250000 0.796875
vt 0.296875 0.796875
vt 0.296875 0.812500
vt 0.234375 0.812500
vt 0.234375 0.796875
vt 0.343750 0.750000
vt 0.343750 0.812500
vt 0.218750 0.812500
vt 0.218750 0.750000
vt 0.437500 0.843750
vt 0.484375 0.843750
vt 0.484375 0.859375
vt 0.437500 0.859375
vt 0.437500 0.828125
vt 0.437500 0.859375
vt 0.421875 0.859375
vt 0.421875 0.828125
vt 0.484375 0.875000
vt 0.484375 0.859375
vt 0.406250 0.859375
vt 0.406250 0.875000
vt 0.484375 0.843750
vt 0.484375 0.859375
vt 0.406250 0.859375
vt 0.406250 0.843750
vt 0.515625 0.812500
vt 0.515625 0.875000
vt 0.390625 0.875000
vt 0.390625 0.812500
vt 0.640625 0.828125
vt 0.640625 0.890625
vt 0.015625 0.890625
vt 0.015625 0.828125
vt 0.687500 0.750000
vt 0.687500 1.000000
vt 0.062500 1.000000
vt 0.062500 0.750000
vt 0.453125 0.812500
vt 0.453125 0.843750
vt 0.437500 0.843750
vt 0.437500 0.812500
vt 0.343750 0.812500
vt 0.343750 0.843750
vt 0.343750 0.843750
vt 0.343750 0.812500
vt 0.453125 0.828125
vt 0.453125 0.843750
vt 0.343750 0.843750
vt 0.343750 0.828125
vt 0.453125 0.812500
vt 0.453125 0.828125
vt 0.343750 0.828125
vt 0.343750 0.812500
vt 0.531250 0.812500
vt 0.531250 0.875000
vt 0.281250 0.875000
vt 0.281250 0.812500
vt 0.500000 0.937500
vt 0.500000 1.000000
vt 0.750000 1.000000
vt 0.750000 0.937500
vt 0.437500 0.812500
vt 0.437500 0.875000
vt 0.375000 0.875000
vt 0.375000 0.812500
vt 0.390625 0.812500
vt 0.390625 0.875000
vt 0.328125 0.875000
vt 0.328125 0.812500
vt 0.343750 0.812500
vt 0.343750 0.875000
vt 0.218750 0.875000
vt 0.218750 0.812500
vt 0.421875 0.812500
vt 0.421875 0.875000
vt 0.296875 0.875000
vt 0.296875 0.812500
vt 0.421875 0.937500
vt 0.421875 1.000000
vt 0.296875 1.000000
vt 0.296875 0.937500
vt 0.500000 0.937500
vt 0.500000 1.000000
vt 0.250000 1.000000
vt 0.250000 0.937500
vt 0.531250 0.937500
vt 0.531250 1.000000
vt 0.281250 1.000000
vt 0.281250 0.937500
vt 0.562500 1.000000
vt 0.312500 1.000000
vt 0.312500 0.937500
vt 0.562500 0.937500
vt 0.421875 0.937500
vt 0.421875 1.000000
vt 0.359375 1.000000
vt 0.359375 0.937500
vt 0.500000 0.937500
vt 0.500000 1.000000
vt 0.437500 1.000000
vt 0.437500 0.937500
vt 0.484375 0.937500
vt 0.484375 1.000000
vt 0.359375 1.000000
vt 0.359375 0.937500
vt 0.406250 0.937500
vt 0.406250 1.000000
vt 0.281250 1.000000
vt 0.281250 0.937500
vt 0.343750 0.937500
vt 0.468750 0.937500
vt 0.468750 1.000000
vt 0.343750 1.000000
vt 0.296875 0.937500
vt 0.296875 1.000000
vt 0.234375 1.000000
vt 0.234375 0.937500
vt 0.140625 0.875000
vt 0.140625 0.937500
vt 0.078125 0.937500
vt 0.078125 0.875000
vt 0.484375 0.812500
vt 0.484375 0.875000
vt 0.468750 0.875000
vt 0.468750 0.812500
vt 0.312500 0.875000
vt 0.312500 0.937500
vt 0.296875 0.937500
vt 0.296875 0.875000
vt 0.484375 0.906250
vt 0.484375 0.921875
vt 0.234375 0.921875
vt 0.234375 0.906250
vt 0.484375 0.890625
vt 0.484375 0.906250
vt 0.234375 0.906250
vt 0.234375 0.890625
vt 0.562500 0.750000
vt 0.562500 0.812500
vt 0.312500 0.812500
vt 0.312500 0.750000
vt 0.265625 0.937500
vt 0.265625 1.000000
vt 0.140625 1.000000
vt 0.140625 0.937500
vt 0.468750 0.765625
vt 0.468750 0.890625
vt 0.453125 0.890625
vt 0.453125 0.765625
vt 0.453125 0.765625
vt 0.453125 0.890625
vt 0.437500 0.890625
vt 0.437500 0.765625
vt 0.546875 0.796875
vt 0.546875 0.859375
vt 0.531250 0.859375
vt 0.531250 0.796875
vt 0.390625 0.796875
vt 0.390625 0.859375
vt 0.375000 0.859375
vt 0.375000 0.796875
vt 0.125000 0.812500
vt 0.125000 0.875000
vt 0.000000 0.875000
vt 0.000000 0.812500
vt 0.375000 0.796875
vt 0.375000 0.921875
vt 0.359375 0.921875
vt 0.359375 0.796875
vt 0.328125 0.796875
vt 0.328125 0.921875
vt 0.312500 0.921875
vt 0.312500 0.796875
vt 0.406250 0.812500
vt 0.406250 0.875000
vt 0.390625 0.875000
vt 0.390625 0.812500
vt 0.437500 0.828125
vt 0.437500 0.890625
vt 0.421875 0.890625
vt 0.421875 0.828125
vt 0.750000 0.750000
vt 0.750000 1.000000
vt 0.000000 1.000000
vt 0.000000 0.750000
vt 0.750000 1.000000
vt 0.000000 1.000000
vt 0.000000 0.937500
vt 0.750000 0.937500
vt 0.750000 0.750000
vt 0.750000 1.000000
vt 0.687500 1.000000
vt 0.687500 0.750000
vt 0.062500 0.750000
vt 0.062500 1.000000
vt 0.000000 1.000000
vt 0.000000 0.750000
vt 0.328125 0.750000
vt 0.328125 0.812500
vt 0.203125 0.812500
vt 0.203125 0.750000
vt 0.406250 0.812500
vt 0.406250 0.937500
vt 0.390625 0.937500
vt 0.390625 0.812500
vt 0.468750 0.812500
vt 0.468750 0.937500
vt 0.453125 0.937500
vt 0.453125 0.812500
vt 0.453125 0.843750
vt 0.453125 0.906250
vt 0.437500 0.906250
vt 0.437500 0.843750
vt 0.468750 0.843750
vt 0.468750 0.906250
vt 0.453125 0.906250
vt 0.453125 0.843750
vt 0.500000 0.781250
vt 0.500000 0.843750
vt 0.484375 0.843750
vt 0.484375 0.781250
vt 0.390625 0.781250
vt 0.390625 0.843750
vt 0.375000 0.843750
vt 0.375000 0.781250
vt 0.546875 0.828125
vt 0.546875 0.843750
vt 0.296875 0.843750
vt 0.296875 0.828125
vt 0.578125 0.828125
vt 0.578125 0.843750
vt 0.328125 0.843750
vt 0.328125 0.828125
vt 0.359375 0.921875
vt 0.359375 0.984375
vt 0.109375 0.984375
vt 0.109375 0.921875
vt 0.343750 0.796875
vt 0.343750 0.859375
vt 0.328125 0.859375
vt 0.328125 0.796875
vt 0.453125 0.796875
vt 0.453125 0.859375
vt 0.437500 0.859375
vt 0.437500 0.796875
vt 0.531250 0.828125
vt 0.531250 0.843750
vt 0.281250 0.843750
vt 0.281250 0.828125
vt 0.515625 0.812500
vt 0.515625 0.828125
vt 0.265625 0.828125
vt 0.265625 0.812500
vt 0.578125 0.875000
vt 0.578125 0.937500
vt 0.328125 0.937500
vt 0.328125 0.875000
vt 0.281250 0.843750
vt 0.281250 0.875000
vt 0.296875 0.875000
vt 0.296875 0.843750
vt 0.234375 0.843750
vt 0.234375 0.875000
vt 0.250000 0.875000
vt 0.250000 0.843750
vt 0.296875 0.875000
vt 0.296875 0.859375
vt 0.234375 0.859375
vt 0.234375 0.875000
vt 0.296875 0.843750
vt 0.296875 0.859375
vt 0.234375 0.859375
vt 0.234375 0.843750
vt 0.375000 0.812500
vt 0.375000 0.875000
vt 0.250000 0.875000
vt 0.250000 0.812500
vt 0.453125 0.750000
vt 0.453125 0.781250
vt 0.437500 0.781250
vt 0.437500 0.750000
vt 0.500000 0.750000
vt 0.500000 0.781250
vt 0.484375 0.781250
vt 0.484375 0.750000
vt 0.515625 0.765625
vt 0.515625 0.781250
vt 0.453125 0.781250
vt 0.453125 0.765625
vt 0.484375 0.765625
vt 0.484375 0.781250
vt 0.421875 0.781250
vt 0.421875 0.765625
vt 0.343750 0.750000
vt 0.343750 0.812500
vt 0.218750 0.812500
vt 0.218750 0.750000
vt 0.375000 0.796875
vt 0.375000 0.843750
vt 0.359375 0.843750
vt 0.359375 0.796875
vt 0.343750 0.796875
vt 0.343750 0.843750
vt 0.328125 0.843750
vt 0.328125 0.796875
vt 0.390625 0.828125
vt 0.390625 0.843750
vt 0.343750 0.843750
vt 0.343750 0.828125
vt 0.390625 0.812500
vt 0.390625 0.828125
vt 0.328125 0.828125
vt 0.328125 0.812500
vt 0.500000 0.875000
vt 0.500000 0.937500
vt 0.375000 0.937500
vt 0.375000 0.875000
vt 0.593750 0.843750
vt 0.593750 0.859375
vt 0.578125 0.859375
vt 0.578125 0.843750
vt 0.531250 0.843750
vt 0.531250 0.875000
vt 0.515625 0.875000
vt 0.515625 0.843750
vt 0.593750 0.859375
vt 0.593750 0.875000
vt 0.515625 0.875000
vt 0.515625 0.859375
vt 0.593750 0.843750
vt 0.593750 0.859375
vt 0.515625 0.859375
vt 0.515625 0.843750
vt 0.687500 0.812500
vt 0.687500 0.875000
vt 0.437500 0.875000
vt 0.437500 0.812500
vt 0.343750 0.812500
vt 0.343750 0.843750
vt 0.328125 0.843750
vt 0.328125 0.812500
vt 0.437500 0.812500
vt 0.437500 0.843750
vt 0.421875 0.843750
vt 0.421875 0.812500
vt 0.437500 0.828125
vt 0.437500 0.843750
vt 0.328125 0.843750
vt 0.328125 0.828125
vt 0.437500 0.828125
vt 0.437500 0.828125
vt 0.328125 0.828125
vt 0.328125 0.828125
vt 0.484375 0.937500
vt 0.484375 1.000000
vt 0.234375 1.000000
vt 0.234375 0.937500
vt 0.453125 0.781250
vt 0.453125 0.812500
vt 0.437500 0.812500
vt 0.437500 0.781250
vt 0.421875 0.781250
vt 0.421875 0.812500
vt 0.437500 0.812500
vt 0.437500 0.781250
vt 0.484375 0.812500
vt 0.484375 0.796875
vt 0.421875 0.796875
vt 0.421875 0.812500
vt 0.484375 0.781250
vt 0.484375 0.796875
vt 0.421875 0.796875
vt 0.421875 0.781250
vt 0.562500 0.812500
vt 0.562500 0.875000
vt 0.437500 0.875000
vt 0.437500 0.812500
vt 0.687500 0.812500
vt 0.687500 0.875000
vt 0.062500 0.875000
vt 0.062500 0.812500
vt 0.687500 0.750000
vt 0.687500 1.000000
vt 0.062500 1.000000
vt 0.062500 0.750000
vt 0.531250 0.843750
vt 0.531250 0.875000
vt 0.515625 0.875000
vt 0.515625 0.843750
vt 0.515625 0.843750
vt 0.515625 0.875000
vt 0.515625 0.875000
vt 0.515625 0.843750
vt 0.578125 0.843750
vt 0.578125 0.859375
vt 0.515625 0.859375
vt 0.515625 0.843750
vt 0.578125 0.859375
vt 0.578125 0.875000
vt 0.531250 0.875000
vt 0.531250 0.859375
vt 0.718750 0.937500
vt 0.718750 1.000000
vt 0.593750 1.000000
vt 0.593750 0.937500
vt 0.125000 0.875000
vt 0.125000 0.937500
vt 0.000000 0.937500
vt 0.000000 0.875000
vt 0.429688 0.820312
vt 0.367188 0.820312
vt 0.367188 0.835938
vt 0.429688 0.835938
vt 0.414062 0.835938
vt 0.367188 0.835938
vt 0.367188 0.820312
vt 0.414062 0.820312
vt 0.375000 0.812500
vt 0.375000 0.843750
vt 0.390625 0.843750
vt 0.390625 0.812500
vt 0.390625 0.812500
vt 0.390625 0.843750
vt 0.406250 0.843750
vt 0.406250 0.812500
vt 0.328125 0.750000
vt 0.328125 0.812500
vt 0.203125 0.812500
vt 0.203125 0.750000
vt 0.257812 0.789062
vt 0.304688 0.789062
vt 0.304688 0.804688
vt 0.257812 0.804688
vt 0.257812 0.789062
vt 0.304688 0.789062
vt 0.304688 0.804688
vt 0.257812 0.804688
vt 0.312500 0.781250
vt 0.312500 0.812500
vt 0.296875 0.812500
vt 0.296875 0.781250
vt 0.257812 0.789062
vt 0.320312 0.789062
vt 0.320312 0.804688
vt 0.257812 0.804688
vt 0.500000 0.765625
vt 0.500000 0.812500
vt 0.484375 0.812500
vt 0.484375 0.765625
vt 0.500000 0.765625
vt 0.500000 0.796875
vt 0.484375 0.796875
vt 0.484375 0.765625
vt 0.500000 0.796875
vt 0.500000 0.812500
vt 0.375000 0.812500
vt 0.375000 0.796875
vt 0.500000 0.781250
vt 0.500000 0.796875
vt 0.375000 0.796875
vt 0.375000 0.781250
vt 0.562500 0.875000
vt 0.562500 0.937500
vt 0.312500 0.937500
vt 0.312500 0.875000
vt 0.531250 0.812500
vt 0.531250 0.875000
vt 0.406250 0.875000
vt 0.406250 0.812500
vt 0.500000 0.796875
vt 0.500000 0.828125
vt 0.468750 0.828125
vt 0.468750 0.796875
vt 0.562500 0.796875
vt 0.562500 0.859375
vt 0.546875 0.859375
vt 0.546875 0.796875
vt 0.406250 0.812500
vt 0.406250 0.875000
vt 0.390625 0.875000
vt 0.390625 0.812500
vt 0.453125 0.781250
vt 0.453125 0.843750
vt 0.437500 0.843750
vt 0.437500 0.781250
vt 0.406250 0.812500
vt 0.406250 0.875000
vt 0.281250 0.875000
vt 0.281250 0.812500
vt 0.343750 0.828125
vt 0.343750 0.875000
vt 0.328125 0.875000
vt 0.328125 0.828125
vt 0.375000 0.812500
vt 0.375000 0.875000
vt 0.359375 0.875000
vt 0.359375 0.812500
vt 0.437500 0.796875
vt 0.437500 0.859375
vt 0.421875 0.859375
vt 0.421875 0.796875
vt 0.343750 0.812500
vt 0.343750 0.875000
vt 0.328125 0.875000
vt 0.328125 0.812500
vt 0.750000 0.750000
vt 0.750000 1.000000
vt 0.000000 1.000000
vt 0.000000 0.750000
vt 0.750000 0.937500
vt 0.000000 0.937500
vt 0.000000 0.875000
vt 0.750000 0.875000
vt 0.062500 0.750000
vt 0.062500 1.000000
vt 0.000000 1.000000
vt 0.000000 0.750000
vt 0.750000 0.750000
vt 0.750000 1.000000
vt 0.687500 1.000000
vt 0.687500 0.750000
vt 0.515625 0.812500
vt 0.515625 0.875000
vt 0.453125 0.875000
vt 0.453125 0.812500
vt 0.531250 0.812500
vt 0.531250 0.875000
vt 0.468750 0.875000
vt 0.468750 0.812500
vt 0.453125 0.812500
vt 0.453125 0.875000
vt 0.375000 0.875000
vt 0.375000 0.812500
vt 0.515625 0.812500
vt 0.515625 0.875000
vt 0.437500 0.875000
vt 0.437500 0.812500
vt 0.515625 0.812500
vt 0.515625 0.875000
vt 0.437500 0.875000
vt 0.437500 0.812500
vt 0.390625 0.937500
vt 0.390625 1.000000
vt 0.265625 1.000000
vt 0.265625 0.937500
vt 0.468750 0.937500
vt 0.468750 1.000000
vt 0.343750 1.000000
vt 0.343750 0.937500
vt 0.125000 0.937500
vt 0.000000 0.937500
vt 0.000000 0.875000
vt 0.125000 0.875000
vt 0.390625 0.812500
vt 0.390625 0.875000
vt 0.328125 0.875000
vt 0.328125 0.812500
vt 0.062500 0.875000
vt 0.062500 0.937500
vt 0.000000 0.937500
vt 0.000000 0.875000
vt 0.437500 0.812500
vt 0.437500 0.875000
vt 0.375000 0.875000
vt 0.375000 0.812500
vt 0.390625 0.812500
vt 0.390625 0.875000
vt 0.328125 0.875000
vt 0.328125 0.812500
vt 0.343750 0.812500
vt 0.343750 0.875000
vt 0.218750 0.875000
vt 0.218750 0.812500
vt 0.421875 0.812500
vt 0.421875 0.875000
vt 0.296875 0.875000
vt 0.296875 0.812500
vt 0.421875 0.937500
vt 0.421875 1.000000
vt 0.296875 1.000000
vt 0.296875 0.937500
vt 0.750000 0.750000
vt 0.750000 0.250000
vt 0.000000 0.250000
vt 0.000000 0.750000
vt 0.750000 0.750000
vt 0.750000 0.250000
vt 0.000000 0.250000
vt 0.000000 0.750000
vt 0.750000 0.750000
vt 0.750000 0.250000
vt 0.000000 0.250000
vt 0.000000 0.750000
vt 0.750000 0.750000
vt 0.750000 0.250000
vt 0.000000 0.250000
vt 0.000000 0.750000
vt 0.687500 1.000000
vt 0.062500 1.000000
vt 0.062500 0.750000
vt 0.687500 0.750000
vt 0.703125 1.000000
vt 0.078125 1.000000
vt 0.078125 0.750000
vt 0.703125 0.750000
vt 0.687500 1.000000
vt 0.062500 1.000000
vt 0.062500 0.750000
vt 0.687500 0.750000
vt 0.687500 1.000000
vt 0.062500 1.000000
vt 0.062500 0.750000
vt 0.687500 0.750000
vn 1 0 0
vn -1 0 0
vn 0 1 0
vn 0 0 1
vn 0 0 -1
vn 0.9902681405489647 0 0.13917259002294907
vn -0.9902679682753971 0 -0.13917381581216023
vn 0 1 0
vn -0.13917224547811627 0 0.9902681889713407
vn 0.1391725900229491 0 -0.9902681405489647
vn 0.9925460551142379 0 -0.12187012955258676
vn -0.9925460922449604 0 0.121869827148719
vn 0 1 0
vn 0.12186997835046713 0 0.9925460736796338
vn -0.12186874691576863 0 -0.9925462248808267
vn 1 0 0
vn -1 0 0
vn 0 1 0
vn 0 -1 0
vn 0 0 1
vn 1 0 0
vn -1 0 0
vn 0 1 0
vn 0 -1 0
vn 0 0 1
vn 1 0 0
vn -1 0 0
vn 0 1 0
vn 0 -1 0
vn 0 0 1
vn 1 0 0
vn -1 0 0
vn 0 1 0
vn 0 -1 0
vn 0 0 1
vn 1 0 0
vn -1 0 0
vn 0 1 0
vn 0 -1 0
vn 0 0 1
vn 0 1 0
vn 0 0 1
vn 1 0 0
vn -1 0 0
vn 0 1 0
vn 0 -1 0
vn 0 0 1
vn 0 0 -1
vn 0.9961947648731585 0 0.0871549794292476
vn -0.9961947648731586 0 -0.08715497942924777
vn 0 1 0
vn -0.08715621993376532 0 0.9961946563432557
vn 0.08715621993376443 0 -0.9961946563432557
vn 1 0 0
vn -1 0 0
vn 0 1 0
vn 0 0 1
vn 0 0 -1
vn 0.9975640643683362 0 -0.06975627198271164
vn -0.997563977384603 0 0.06975751590051911
vn 0 1 0
vn 0.06975760288512896 0 0.9975639713019515
vn -0.06975742891612632 0 -0.9975639834672319
vn 0 0 -1
vn 0 0 1
vn 0 1 0
vn 0 -1 0
vn 1 0 0
vn 1 0 0
vn 0 1 0
vn 0 -1 0
vn 0 0 1
vn 0 0 -1
vn 1 0 0
vn 0 1 0
vn 0 -1 0
vn 0 0 1
vn 0 0 -1
vn 1 0 0
vn 0 1 0
vn 0 0 1
vn 0 0 -1
vn 1 0 0
vn 0 1 0
vn 0 -1 0
vn 0 0 1
vn 0 0 -1
vn 0 0 -1
vn 0 0 1
vn 0 1 0
vn 0 -1 0
vn 1 0 0
vn 0 0 -1
vn 0 0 1
vn 0 1 0
vn 0 -1 0
vn 1 0 0
vn 1 0 0
vn -1 0 0
vn 0 1 0
vn 0 -1 0
vn 0 0 -1
vn 1 0 0
vn -1 0 0
vn 0 1 0
vn 0 -1 0
vn 0 0 -1
vn 1 0 0
vn -1 0 0
vn 0 1 0
vn 0 -1 0
vn 0 0 -1
vn 1 0 0
vn -1 0 0
vn 0 1 0
vn 0 -1 0
vn 0 0 -1
vn 1 0 0
vn -1 0 0
vn 0 1 0
vn 0 -1 0
vn 0 0 -1
vn 1 0 0
vn -1 0 0
vn 0 1 0
vn 0 -1 0
vn 0 0 -1
vn 0 1 0
vn 0 0 -1
vn 1 0 0
vn -1 0 0
vn 0 1 0
vn 0 -1 0
vn 0 0 -1
vn -1 0 0
vn 0 1 0
vn 0 -1 0
vn 0 0 1
vn 0 0 -1
vn -1 0 0
vn 0 1 0
vn 0 -1 0
vn 0 0 1
vn 0 0 -1
vn 0 0 -1
vn 0 0 1
vn 0 1 0
vn 0 -1 0
vn -1 0 0
vn -0.9993908099800349 0 0.034899984633948625
vn 0 1 0
vn 0 -1 0
vn 0.034900028232389455 0 0.9993908084575217
vn -0.034900028232389704 0 -0.9993908084575217
vn -1 0 0
vn 0 1 0
vn 0 -1 0
vn 0 0 1
vn 0 0 -1
vn -1 0 0
vn 0 1 0
vn 0 0 1
vn 0 0 -1
vn 0.9961947648731586 0 0.08715497942924762
vn -0.9961945478118319 0 -0.08715746043787585
vn 0 1 0
vn -0.08715588500869294 0 0.9961946856455076
vn 0.0871560586572674 0 -0.9961946704531855
vn -0.9832550047933682 0 0.18223500088839567
vn 0.9832549632812971 0 -0.1822352248680131
vn 0 1 0
vn -0.18223500088839562 0 -0.9832550047933682
vn 0.18223741786276668 0 0.9832545568319079
vn -0.9961945478118319 0 -0.08715746043787585
vn 0.9961947648731584 0 0.0871549794292483
vn 0 1 0
vn 0.08715508795852522 0 -0.9961947553781548
vn -0.0871549794292484 0 0.9961947648731585
vn -1 0 0
vn 0 0 1
vn 1 0 0
vn 0 0 -1
vn -1 0 0
vn 1 0 0
vn 0 0 -1
vn 0 0 1
usemtl base_sandbags
f 181/493/124 179/494/124 178/495/124
f 181/493/124 178/495/124 180/496/124
f 184/497/125 182/498/125 183/499/125
f 184/497/125 183/499/125 185/500/125
f 178/501/126 179/502/126 183/503/126
f 178/501/126 183/503/126 182/504/126
f 180/505/127 178/506/127 182/507/127
f 180/505/127 182/507/127 184/508/127
f 185/509/128 183/510/128 179/511/128
f 185/509/128 179/511/128 181/512/128
f 189/513/129 187/514/129 186/515/129
f 189/513/129 186/515/129 188/516/129
f 192/517/130 190/518/130 191/519/130
f 192/517/130 191/519/130 193/520/130
f 186/521/131 187/522/131 191/523/131
f 186/521/131 191/523/131 190/524/131
f 188/525/132 186/526/132 190/527/132
f 188/525/132 190/527/132 192/528/132
f 193/529/133 191/530/133 187/531/133
f 193/529/133 187/531/133 189/532/133
f 197/533/134 195/534/134 194/535/134
f 197/533/134 194/535/134 196/536/134
f 200/537/135 198/538/135 199/539/135
f 200/537/135 199/539/135 201/540/135
f 194/541/136 195/542/136 199/543/136
f 194/541/136 199/543/136 198/544/136
f 196/545/137 194/546/137 198/547/137
f 196/545/137 198/547/137 200/548/137
f 201/549/138 199/550/138 195/551/138
f 201/549/138 195/551/138 197/552/138
f 205/553/139 203/554/139 202/555/139
f 205/553/139 202/555/139 204/556/139
f 208/557/140 206/558/140 207/559/140
f 208/557/140 207/559/140 209/560/140
f 202/561/141 203/562/141 207/563/141
f 202/561/141 207/563/141 206/564/141
f 205/565/142 204/566/142 208/567/142
f 205/565/142 208/567/142 209/568/142
f 204/569/143 202/570/143 206/571/143
f 204/569/143 206/571/143 208/572/143
f 213/573/144 211/574/144 210/575/144
f 213/573/144 210/575/144 212/576/144
f 216/577/145 214/578/145 215/579/145
f 216/577/145 215/579/145 217/580/145
f 210/581/146 211/582/146 215/583/146
f 210/581/146 215/583/146 214/584/146
f 213/585/147 212/586/147 216/587/147
f 213/585/147 216/587/147 217/588/147
f 212/589/148 210/590/148 214/591/148
f 212/589/148 214/591/148 216/592/148
f 221/593/149 219/594/149 218/595/149
f 221/593/149 218/595/149 220/596/149
f 224/597/150 222/598/150 223/599/150
f 224/597/150 223/599/150 225/600/150
f 218/601/151 219/602/151 223/603/151
f 218/601/151 223/603/151 222/604/151
f 221/605/152 220/606/152 224/607/152
f 221/605/152 224/607/152 225/608/152
f 220/609/153 218/610/153 222/611/153
f 220/609/153 222/611/153 224/612/153
f 227/613/154 225/614/154 224/615/154
f 227/613/154 224/615/154 226/616/154
f 230/617/155 228/618/155 229/619/155
f 230/617/155 229/619/155 231/620/155
f 224/621/156 225/622/156 229/623/156
f 224/621/156 229/623/156 228/624/156
f 227/625/157 226/626/157 230/627/157
f 227/625/157 230/627/157 231/628/157
f 226/629/158 224/630/158 228/631/158
f 226/629/158 228/631/158 230/632/158
f 235/633/159 233/634/159 232/635/159
f 235/633/159 232/635/159 234/636/159
f 238/637/160 236/638/160 237/639/160
f 238/637/160 237/639/160 239/640/160
f 232/641/161 233/642/161 237/643/161
f 232/641/161 237/643/161 236/644/161
f 235/645/162 234/646/162 238/647/162
f 235/645/162 238/647/162 239/648/162
f 234/649/163 232/650/163 236/651/163
f 234/649/163 236/651/163 238/652/163
f 240/653/164 241/654/164 243/655/164
f 240/653/164 243/655/164 242/656/164
f 205/657/165 240/658/165 242/659/165
f 205/657/165 242/659/165 244/660/165
f 248/661/166 246/662/166 245/663/166
f 248/661/166 245/663/166 247/664/166
f 251/665/167 249/666/167 250/667/167
f 251/665/167 250/667/167 252/668/167
f 245/669/168 246/670/168 250/671/168
f 245/669/168 250/671/168 249/672/168
f 248/673/169 247/674/169 251/675/169
f 248/673/169 251/675/169 252/676/169
f 247/677/170 245/678/170 249/679/170
f 247/677/170 249/679/170 251/680/170
f 252/681/171 250/682/171 246/683/171
f 252/681/171 246/683/171 248/684/171
f 256/685/172 254/686/172 253/687/172
f 256/685/172 253/687/172 255/688/172
f 259/689/173 257/690/173 258/691/173
f 259/689/173 258/691/173 260/692/173
f 253/693/174 254/694/174 258/695/174
f 253/693/174 258/695/174 257/696/174
f 255/697/175 253/698/175 257/699/175
f 255/697/175 257/699/175 259/700/175
f 260/701/176 258/702/176 254/703/176
f 260/701/176 254/703/176 256/704/176
f 264/705/177 262/706/177 261/707/177
f 264/705/177 261/707/177 263/708/177
f 197/709/178 195/710/178 265/711/178
f 197/709/178 265/711/178 266/712/178
f 261/713/179 262/714/179 265/715/179
f 261/713/179 265/715/179 195/716/179
f 263/717/180 261/718/180 195/719/180
f 263/717/180 195/719/180 197/720/180
f 266/721/181 265/722/181 262/723/181
f 266/721/181 262/723/181 264/724/181
f 270/725/182 268/726/182 267/727/182
f 270/725/182 267/727/182 269/728/182
f 273/729/183 271/730/183 272/731/183
f 273/729/183 272/731/183 274/732/183
f 267/733/184 268/734/184 272/735/184
f 267/733/184 272/735/184 271/736/184
f 269/737/185 267/738/185 271/739/185
f 269/737/185 271/739/185 273/740/185
f 274/741/186 272/742/186 268/743/186
f 274/741/186 268/743/186 270/744/186
f 278/745/187 276/746/187 275/747/187
f 278/745/187 275/747/187 277/748/187
f 281/749/188 279/750/188 280/751/188
f 281/749/188 280/751/188 282/752/188
f 275/753/189 276/754/189 280/755/189
f 275/753/189 280/755/189 279/756/189
f 278/757/190 277/758/190 281/759/190
f 278/757/190 281/759/190 282/760/190
f 277/761/191 275/762/191 279/763/191
f 277/761/191 279/763/191 281/764/191
f 286/765/192 284/766/192 283/767/192
f 286/765/192 283/767/192 285/768/192
f 283/769/193 284/770/193 288/771/193
f 283/769/193 288/771/193 287/772/193
f 286/773/194 285/774/194 289/775/194
f 286/773/194 289/775/194 290/776/194
f 285/777/195 283/778/195 287/779/195
f 285/777/195 287/779/195 289/780/195
f 290/781/196 288/782/196 284/783/196
f 290/781/196 284/783/196 286/784/196
f 294/785/197 292/786/197 291/787/197
f 294/785/197 291/787/197 293/788/197
f 291/789/198 292/790/198 296/791/198
f 291/789/198 296/791/198 295/792/198
f 294/793/199 293/794/199 297/795/199
f 294/793/199 297/795/199 298/796/199
f 293/797/200 291/798/200 295/799/200
f 293/797/200 295/799/200 297/800/200
f 298/801/201 296/802/201 292/803/201
f 298/801/201 292/803/201 294/804/201
f 302/805/202 300/806/202 299/807/202
f 302/805/202 299/807/202 301/808/202
f 299/809/203 300/810/203 303/811/203
f 299/809/203 303/811/203 240/812/203
f 301/813/204 299/814/204 240/815/204
f 301/813/204 240/815/204 205/816/204
f 304/817/205 303/818/205 300/819/205
f 304/817/205 300/819/205 302/820/205
f 307/821/206 305/822/206 294/823/206
f 307/821/206 294/823/206 306/824/206
f 294/825/207 305/826/207 308/827/207
f 294/825/207 308/827/207 298/828/207
f 307/829/208 306/830/208 309/831/208
f 307/829/208 309/831/208 310/832/208
f 306/833/209 294/834/209 298/835/209
f 306/833/209 298/835/209 309/836/209
f 310/837/210 308/838/210 305/839/210
f 310/837/210 305/839/210 307/840/210
f 314/841/211 312/842/211 311/843/211
f 314/841/211 311/843/211 313/844/211
f 305/845/212 315/846/212 316/847/212
f 305/845/212 316/847/212 308/848/212
f 311/849/213 312/850/213 316/851/213
f 311/849/213 316/851/213 315/852/213
f 314/853/214 313/854/214 305/855/214
f 314/853/214 305/855/214 308/856/214
f 313/857/215 311/858/215 315/859/215
f 313/857/215 315/859/215 305/860/215
f 320/861/216 318/862/216 317/863/216
f 320/861/216 317/863/216 319/864/216
f 323/865/217 321/866/217 322/867/217
f 323/865/217 322/867/217 324/868/217
f 317/869/218 318/870/218 322/871/218
f 317/869/218 322/871/218 321/872/218
f 320/873/219 319/874/219 323/875/219
f 320/873/219 323/875/219 324/876/219
f 319/877/220 317/878/220 321/879/220
f 319/877/220 321/879/220 323/880/220
f 327/881/221 325/882/221 303/883/221
f 327/881/221 303/883/221 326/884/221
f 330/885/222 328/886/222 329/887/222
f 330/885/222 329/887/222 331/888/222
f 303/889/223 325/890/223 329/891/223
f 303/889/223 329/891/223 328/892/223
f 327/893/224 326/894/224 330/895/224
f 327/893/224 330/895/224 331/896/224
f 331/897/225 329/898/225 325/899/225
f 331/897/225 325/899/225 327/900/225
f 334/901/226 333/902/226 332/903/226
f 334/901/226 332/903/226 304/904/226
f 337/905/227 335/906/227 336/907/227
f 337/905/227 336/907/227 338/908/227
f 332/909/228 333/910/228 336/911/228
f 332/909/228 336/911/228 335/912/228
f 334/913/229 304/914/229 337/915/229
f 334/913/229 337/915/229 338/916/229
f 338/917/230 336/918/230 333/919/230
f 338/917/230 333/919/230 334/920/230
f 342/921/231 340/922/231 339/923/231
f 342/921/231 339/923/231 341/924/231
f 345/925/232 343/926/232 344/927/232
f 345/925/232 344/927/232 346/928/232
f 339/929/233 340/930/233 344/931/233
f 339/929/233 344/931/233 343/932/233
f 342/933/234 341/934/234 345/935/234
f 342/933/234 345/935/234 346/936/234
f 346/937/235 344/938/235 340/939/235
f 346/937/235 340/939/235 342/940/235
f 350/941/236 348/942/236 347/943/236
f 350/941/236 347/943/236 349/944/236
f 353/945/237 351/946/237 352/947/237
f 353/945/237 352/947/237 354/948/237
f 347/949/238 348/950/238 352/951/238
f 347/949/238 352/951/238 351/952/238
f 350/953/239 349/954/239 353/955/239
f 350/953/239 353/955/239 354/956/239
f 354/957/240 352/958/240 348/959/240
f 354/957/240 348/959/240 350/960/240
f 358/961/241 356/962/241 355/963/241
f 358/961/241 355/963/241 357/964/241
f 361/965/242 359/966/242 360/967/242
f 361/965/242 360/967/242 362/968/242
f 355/969/243 356/970/243 360/971/243
f 355/969/243 360/971/243 359/972/243
f 358/973/244 357/974/244 361/975/244
f 358/973/244 361/975/244 362/976/244
f 362/977/245 360/978/245 356/979/245
f 362/977/245 356/979/245 358/980/245
f 366/981/246 364/982/246 363/983/246
f 366/981/246 363/983/246 365/984/246
f 369/985/247 367/986/247 368/987/247
f 369/985/247 368/987/247 370/988/247
f 363/989/248 364/990/248 368/991/248
f 363/989/248 368/991/248 367/992/248
f 366/993/249 365/994/249 369/995/249
f 366/993/249 369/995/249 370/996/249
f 370/997/250 368/998/250 364/999/250
f 370/997/250 364/999/250 366/1000/250
f 371/1001/251 303/1002/251 373/1003/251
f 371/1001/251 373/1003/251 372/1004/251
f 374/1005/252 373/1006/252 303/1007/252
f 374/1005/252 303/1007/252 304/1008/252
f 376/1009/253 362/1010/253 361/1011/253
f 376/1009/253 361/1011/253 375/1012/253
f 379/1013/254 377/1014/254 378/1015/254
f 379/1013/254 378/1015/254 380/1016/254
f 361/1017/255 362/1018/255 378/1019/255
f 361/1017/255 378/1019/255 377/1020/255
f 376/1021/256 375/1022/256 379/1023/256
f 376/1021/256 379/1023/256 380/1024/256
f 380/1025/257 378/1026/257 362/1027/257
f 380/1025/257 362/1027/257 376/1028/257
f 387/1029/258 385/1030/258 386/1031/258
f 387/1029/258 386/1031/258 388/1032/258
f 381/1033/259 382/1034/259 386/1035/259
f 381/1033/259 386/1035/259 385/1036/259
f 384/1037/260 383/1038/260 387/1039/260
f 384/1037/260 387/1039/260 388/1040/260
f 383/1041/261 381/1042/261 385/1043/261
f 383/1041/261 385/1043/261 387/1044/261
f 388/1045/262 386/1046/262 382/1047/262
f 388/1045/262 382/1047/262 384/1048/262
f 395/1049/263 393/1050/263 394/1051/263
f 395/1049/263 394/1051/263 396/1052/263
f 389/1053/264 390/1054/264 394/1055/264
f 389/1053/264 394/1055/264 393/1056/264
f 392/1057/265 391/1058/265 395/1059/265
f 392/1057/265 395/1059/265 396/1060/265
f 391/1061/266 389/1062/266 393/1063/266
f 391/1061/266 393/1063/266 395/1064/266
f 396/1065/267 394/1066/267 390/1067/267
f 396/1065/267 390/1067/267 392/1068/267
f 400/1069/268 398/1070/268 397/1071/268
f 400/1069/268 397/1071/268 399/1072/268
f 403/1073/269 401/1074/269 402/1075/269
f 403/1073/269 402/1075/269 404/1076/269
f 397/1077/270 398/1078/270 402/1079/270
f 397/1077/270 402/1079/270 401/1080/270
f 400/1081/271 399/1082/271 403/1083/271
f 400/1081/271 403/1083/271 404/1084/271
f 404/1085/272 402/1086/272 398/1087/272
f 404/1085/272 398/1087/272 400/1088/272
f 411/1089/273 409/1090/273 410/1091/273
f 411/1089/273 410/1091/273 412/1092/273
f 405/1093/274 406/1094/274 410/1095/274
f 405/1093/274 410/1095/274 409/1096/274
f 408/1097/275 407/1098/275 411/1099/275
f 408/1097/275 411/1099/275 412/1100/275
f 407/1101/276 405/1102/276 409/1103/276
f 407/1101/276 409/1103/276 411/1104/276
f 412/1105/277 410/1106/277 406/1107/277
f 412/1105/277 406/1107/277 408/1108/277
f 418/1109/278 416/1110/278 417/1111/278
f 418/1109/278 417/1111/278 419/1112/278
f 413/1113/279 369/1114/279 417/1115/279
f 413/1113/279 417/1115/279 416/1116/279
f 415/1117/280 414/1118/280 418/1119/280
f 415/1117/280 418/1119/280 419/1120/280
f 414/1121/281 413/1122/281 416/1123/281
f 414/1121/281 416/1123/281 418/1124/281
f 419/1125/282 417/1126/282 369/1127/282
f 419/1125/282 369/1127/282 415/1128/282
f 421/1129/283 420/1130/283 367/1131/283
f 421/1129/283 367/1131/283 422/1132/283
f 242/1133/284 373/1134/284 367/1135/284
f 242/1133/284 367/1135/284 420/1136/284
f 244/1137/285 242/1138/285 420/1139/285
f 244/1137/285 420/1139/285 421/1140/285
f 422/1141/286 367/1142/286 373/1143/286
f 422/1141/286 373/1143/286 374/1144/286
f 426/1145/287 424/1146/287 423/1147/287
f 426/1145/287 423/1147/287 425/1148/287
f 429/1149/288 427/1150/288 428/1151/288
f 429/1149/288 428/1151/288 430/1152/288
f 423/1153/289 424/1154/289 428/1155/289
f 423/1153/289 428/1155/289 427/1156/289
f 425/1157/290 423/1158/290 427/1159/290
f 425/1157/290 427/1159/290 429/1160/290
f 430/1161/291 428/1162/291 424/1163/291
f 430/1161/291 424/1163/291 426/1164/291
f 435/1165/292 431/1166/292 433/1167/292
f 435/1165/292 433/1167/292 436/1168/292
f 437/1169/293 434/1170/293 432/1171/293
f 437/1169/293 432/1171/293 438/1172/293
f 433/1173/294 431/1174/294 432/1175/294
f 433/1173/294 432/1175/294 434/1176/294
f 436/1177/295 433/1178/295 434/1179/295
f 436/1177/295 434/1179/295 437/1180/295
f 438/1181/296 432/1182/296 431/1183/296
f 438/1181/296 431/1183/296 435/1184/296
f 443/1185/297 439/1186/297 441/1187/297
f 443/1185/297 441/1187/297 444/1188/297
f 445/1189/298 442/1190/298 440/1191/298
f 445/1189/298 440/1191/298 446/1192/298
f 441/1193/299 439/1194/299 440/1195/299
f 441/1193/299 440/1195/299 442/1196/299
f 444/1197/300 441/1198/300 442/1199/300
f 444/1197/300 442/1199/300 445/1200/300
f 446/1201/301 440/1202/301 439/1203/301
f 446/1201/301 439/1203/301 443/1204/301
f 422/1205/302 448/1206/302 447/1207/302
f 422/1205/302 447/1207/302 421/1208/302
f 421/1209/303 447/1210/303 449/1211/303
f 421/1209/303 449/1211/303 301/1212/303
f 301/1213/304 449/1214/304 450/1215/304
f 301/1213/304 450/1215/304 302/1216/304
f 302/1217/305 450/1218/305 448/1219/305
f 302/1217/305 448/1219/305 422/1220/305
f 241/1221/306 371/1222/306 452/1223/306
f 241/1221/306 452/1223/306 451/1224/306
f 372/1225/307 243/1226/307 453/1227/307
f 372/1225/307 453/1227/307 454/1228/307
f 243/1229/308 241/1230/308 451/1231/308
f 243/1229/308 451/1231/308 453/1232/308
f 371/1233/309 372/1234/309 454/1235/309
f 371/1233/309 454/1235/309 452/1236/309