# Made by Pabilo8 with Blockbench
# Exported with IIToolkit Plugin on 16/08/2026
mtllib flagpole.mtl

o main
v 0.3232 5.1875 1.6563
v 0.3232 5.1875 1.3438
v 0.3232 5 1.6563
v 0.3232 5 1.3438
v 0.6357 5.1875 1.6563
v 0.6357 5.1875 1.3438
v 0.6357 5 1.6563
v 0.6357 5 1.3438
v 0.2294 -0.125 1.75
v 0.2294 -0.125 1.25
v 0.2294 -1 1.75
v 0.2294 -1 1.25
v 0.7294 -0.125 1.75
v 0.7294 -0.125 1.25
v 0.7294 -1 1.75
v 0.7294 -1 1.25
v 0.0419 -0.1777 1.9372
v 0.0419 -0.1875 1.75
v 0.0419 -0.9891 1.9798
v 0.0419 -0.9989 1.7925
v 0.8544 -0.1777 1.9372
v 0.8544 -0.1875 1.75
v 0.8544 -0.9891 1.9798
v 0.8544 -0.9989 1.7925
v 0.6044 0.3125 1.5625
v 0.6044 0.3125 1.4375
v 0.6044 0.0625 1.5625
v 0.6044 0.0625 1.4375
v 0.7919 0.3125 1.5625
v 0.7919 0.3125 1.4375
v 0.7919 0.0625 1.5625
v 0.7919 0.0625 1.4375
v 0.6044 5.125 1.5625
v 0.6044 5.125 1.4375
v 0.6044 5 1.5625
v 0.6044 5 1.4375
v 0.7919 5.125 1.5625
v 0.7919 5.125 1.4375
v 0.7919 5 1.5625
v 0.7919 5 1.4375
v 0.6669 5 1.5625
v 0.6669 5 1.4375
v 0.6669 4 1.5625
v 0.6669 4 1.4375
v 0.6669 3 1.5625
v 0.6669 3 1.4375
v 0.6669 2 1.5625
v 0.6669 2 1.4375
v 0.6669 1 1.5625
v 0.6669 0 1.5625
v 0.6669 1 1.4375
v 0.6669 0 1.4375
v 0.6044 5 1.5
v 0.7294 5 1.5
v 0.6044 4 1.5
v 0.7294 4 1.5
v 0.6044 3 1.5
v 0.7294 3 1.5
v 0.6044 2 1.5
v 0.7294 2 1.5
v 0.6044 1 1.5
v 0.6044 0 1.5
v 0.7294 1 1.5
v 0.7294 0 1.5
v -1 -3 3
v -1 -3 0
v 2 -3 3
v 2 -3 0
v 1.7294 -1 2.75
v 1.7294 -1 0.25
v -0.7706 -1 0.25
v -0.7706 -1 2.75
v 1.7294 -1 1.5
v -0.7706 -1 1.5
v 0.4794 -1 1.5
v 0.4794 -1 2.75
v 0.4794 -1 0.25
v 1.1044 -0.1875 2.6875
v 1.1044 -0.1875 1.9375
v 1.1044 -0.3125 2.6875
v 1.1044 -0.3125 1.9375
v 1.7294 -0.1875 2.6875
v 1.7294 -0.1875 1.9375
v 1.7294 -0.3125 2.6875
v 1.7294 -0.3125 1.9375
v 0.3544 5 1.625
v 0.3544 5 1.375
v 0.3544 -0.125 1.625
v 0.3544 -0.125 1.375
v 0.6044 5 1.625
v 0.6044 5 1.375
v 0.6044 -0.125 1.625
v 0.6044 -0.125 1.375
v 0.6044 2.4375 1.625
v 0.6044 2.4375 1.375
v 0.3544 2.4375 1.375
v 0.3544 2.4375 1.625
v 0.6044 3.7188 1.625
v 0.6044 3.7188 1.375
v 0.3544 3.7188 1.375
v 0.3544 3.7188 1.625
v 0.6044 1.1563 1.625
v 0.6044 1.1563 1.375
v 0.3544 1.1563 1.375
v 0.3544 1.1563 1.625
v 1.1044 -0.1875 2.3125
v 1.7294 -0.1875 2.3125
v 1.7294 -0.3125 2.3125
v 1.1044 -0.3125 2.3125
v 1.1669 -0.3125 2.625
v 1.1669 -0.3125 2.5
v 1.1669 -1 2.625
v 1.1669 -1 2.5
v 1.2919 -0.3125 2.625
v 1.2919 -0.3125 2.5
v 1.2919 -1 2.625
v 1.2919 -1 2.5
v 1.1669 -0.3125 2
v 1.1669 -0.3125 2.125
v 1.1669 -1 2
v 1.1669 -1 2.125
v 1.2919 -0.3125 2
v 1.2919 -0.3125 2.125
v 1.2919 -1 2
v 1.2919 -1 2.125
v 1.6456 -0.3125 2.625
v 1.6456 -0.3125 2.5
v 1.6456 -1 2.625
v 1.6456 -1 2.5
v 1.5206 -0.3125 2.625
v 1.5206 -0.3125 2.5
v 1.5206 -1 2.625
v 1.5206 -1 2.5
v 1.6456 -0.3125 2
v 1.6456 -0.3125 2.125
v 1.6456 -1 2
v 1.6456 -1 2.125
v 1.5206 -0.3125 2
v 1.5206 -0.3125 2.125
v 1.5206 -1 2
v 1.5206 -1 2.125
v -0.0394 -0.6875 2.6783
v -0.6591 -0.6875 2.7599
v -0.0394 -1 2.6783
v -0.6591 -1 2.7599
v -0.1537 -0.6875 1.8108
v -0.7733 -0.6875 1.8924
v -0.1537 -1 1.8108
v -0.7733 -1 1.8924
v 0.1044 -0.4375 0.7875
v 0.1044 -0.4375 0.225
v 0.1044 -1 0.7875
v 0.1044 -1 0.225
v 0.6669 -0.4375 0.7875
v 0.6669 -0.4375 0.225
v 0.6669 -1 0.7875
v 0.6669 -1 0.225
v 0.8073 -0.25 0.9959
v 0.8857 -0.25 0.25
v 0.8073 -1 0.9959
v 0.8857 -1 0.25
v 1.5532 -0.25 1.0743
v 1.6316 -0.25 0.3284
v 1.5532 -1 1.0743
v 1.6316 -1 0.3284
v -0.0894 -0.375 2.7422
v -0.7121 -0.375 2.6877
v -0.0894 -0.6875 2.7422
v -0.7121 -0.6875 2.6877
v -0.0132 -0.375 1.8705
v -0.6358 -0.375 1.816
v -0.0132 -0.6875 1.8705
v -0.6358 -0.6875 1.816
vt 0.125 0.0625
vt 0.25 0.0625
vt 0.25 0
vt 0.125 0
vt 0.125 0.0625
vt 0.25 0.0625
vt 0.25 0
vt 0.125 0
vt 0.875 0.1719
vt 1 0.1719
vt 1 0.0469
vt 0.875 0.0469
vt 0.875 0.1719
vt 1 0.1719
vt 1 0.0469
vt 0.875 0.0469
vt 0.25 0.0625
vt 0.125 0.0625
vt 0.125 0
vt 0.25 0
vt 0.25 0.0625
vt 0.125 0.0625
vt 0.125 0
vt 0.25 0
vt 0.875 0.2188
vt 1 0.2188
vt 1 0
vt 0.875 0
vt 0.875 0.2188
vt 1 0.2188
vt 1 0
vt 0.875 0
vt 0.875 0.1719
vt 1 0.1719
vt 1 0.0469
vt 0.875 0.0469
vt 0.875 0.2188
vt 1 0.2188
vt 1 0
vt 0.875 0
vt 0.875 0.2188
vt 1 0.2188
vt 1 0
vt 0.875 0
vt 0.7188 0.2344
vt 0.75 0.2344
vt 0.75 0.0156
vt 0.7188 0.0156
vt 0.5 0.2344
vt 0.5313 0.2344
vt 0.5313 0.0156
vt 0.5 0.0156
vt 0.5313 0
vt 0.75 0
vt 0.75 0.0313
vt 0.5313 0.0313
vt 0.7344 0.2344
vt 0.5156 0.2344
vt 0.5156 0.0156
vt 0.7344 0.0156
vt 0.7344 0.2344
vt 0.5156 0.2344
vt 0.5156 0.0156
vt 0.7344 0.0156
vt 1 0.4844
vt 1 0.4844
vt 1 0.4219
vt 1 0.4219
vt 0.7188 0.4688
vt 0.75 0.4688
vt 0.75 0.4063
vt 0.7188 0.4063
vt 0.7188 0.4531
vt 0.7188 0.4063
vt 0.75 0.4063
vt 0.75 0.4531
vt 0.75 0.4688
vt 0.75 0.4219
vt 0.7188 0.4219
vt 0.7188 0.4688
vt 0.6719 0.4688
vt 0.7188 0.4688
vt 0.7188 0.4063
vt 0.6719 0.4063
vt 0.6875 0.4688
vt 0.7344 0.4688
vt 0.7344 0.4063
vt 0.6875 0.4063
vt 1 0.4844
vt 1 0.4844
vt 1 0.4219
vt 1 0.4219
vt 0.7188 0.4688
vt 0.75 0.4688
vt 0.75 0.4063
vt 0.7188 0.4063
vt 0.7188 0.4531
vt 0.7188 0.4063
vt 0.75 0.4063
vt 0.75 0.4531
vt 0.75 0.4688
vt 0.75 0.4219
vt 0.7188 0.4219
vt 0.7188 0.4688
vt 0.6719 0.4688
vt 0.7188 0.4688
vt 0.7188 0.4063
vt 0.6719 0.4063
vt 0.6875 0.4688
vt 0.7344 0.4688
vt 0.7344 0.4063
vt 0.6875 0.4063
vt 0 1
vt 0.125 1
vt 0.125 0
vt 0 0
vt 0 1
vt 0.125 1
vt 0.125 0
vt 0 0
vt 0 1
vt 0.125 1
vt 0.125 0
vt 0 0
vt 0 1
vt 0.125 1
vt 0.125 0
vt 0 0
vt 0 1
vt 0.125 1
vt 0.125 0
vt 0 0
vt 0 1
vt 0.125 1
vt 0.125 0
vt 0 0
vt 0 1
vt 0.125 1
vt 0.125 0
vt 0 0
vt 0 1
vt 0.125 1
vt 0.125 0
vt 0 0
vt 0 1
vt 0.125 1
vt 0.125 0
vt 0 0
vt 0 1
vt 0.125 1
vt 0.125 0
vt 0 0
vt 0.75 1
vt 0 1
vt 0 0.25
vt 0.75 0.25
vt 0.4375 0.6875
vt 0.4375 1
vt 0.75 1
vt 0.75 0.6875
vt 0.75 0.6875
vt 0.4375 0.6875
vt 0.4375 1
vt 0.75 1
vt 0.75 0.6875
vt 0.4375 0.6875
vt 0.4375 1
vt 0.75 1
vt 0.4375 0.6875
vt 0.4375 1
vt 0.75 1
vt 0.75 0.6875
vt 0.5313 0.2813
vt 0.625 0.2813
vt 0.625 0.25
vt 0.5313 0.25
vt 0.7031 0.25
vt 0.6094 0.25
vt 0.6094 0.2813
vt 0.7031 0.2813
vt 0.7031 0.25
vt 0.6094 0.25
vt 0.6094 0.4063
vt 0.7031 0.4063
vt 0.7031 0.4063
vt 0.6094 0.4063
vt 0.6094 0.25
vt 0.7031 0.25
vt 0.5313 0.25
vt 0.5313 0.4063
vt 0.5625 0.4063
vt 0.5625 0.25
vt 0.6719 0.4063
vt 0.6719 0.25
vt 0.7031 0.25
vt 0.7031 0.4063
vt 0.8125 0.6797
vt 0.75 0.6797
vt 0.75 1
vt 0.8125 1
vt 0.8125 0.6484
vt 0.75 0.6484
vt 0.75 0.9688
vt 0.8125 0.9688
vt 0.8125 0.6016
vt 0.75 0.6016
vt 0.75 0.9219
vt 0.8125 0.9219
vt 0.8125 0.6641
vt 0.75 0.6641
vt 0.75 0.9844
vt 0.8125 0.9844
vt 0.8125 0.6797
vt 0.75 0.6797
vt 0.75 1
vt 0.8125 1
vt 0.8125 0.6484
vt 0.75 0.6484
vt 0.75 0.9688
vt 0.8125 0.9688
vt 0.8125 0.6172
vt 0.75 0.6172
vt 0.75 0.9375
vt 0.8125 0.9375
vt 0.8125 0.6641
vt 0.75 0.6641
vt 0.75 0.9844
vt 0.8125 0.9844
vt 0.75 0.9375
vt 0.8125 0.9375
vt 0.8125 0.6172
vt 0.75 0.6172
vt 0.75 0.9531
vt 0.8125 0.9531
vt 0.8125 0.6328
vt 0.75 0.6328
vt 0.75 0.9688
vt 0.8125 0.9688
vt 0.8125 0.6484
vt 0.75 0.6484
vt 0.75 0.9375
vt 0.8125 0.9375
vt 0.8125 0.6172
vt 0.75 0.6172
vt 0.75 0.8281
vt 0.8125 0.8281
vt 0.8125 0.5078
vt 0.75 0.5078
vt 0.75 0.8281
vt 0.8125 0.8281
vt 0.8125 0.5078
vt 0.75 0.5078
vt 0.75 0.8281
vt 0.8125 0.8281
vt 0.8125 0.5078
vt 0.75 0.5078
vt 0.75 0.9375
vt 0.8125 0.9375
vt 0.8125 0.6172
vt 0.75 0.6172
vt 0.5313 0.4063
vt 0.625 0.4063
vt 0.625 0.25
vt 0.5313 0.25
vt 0.6094 0.2813
vt 0.7031 0.2813
vt 0.7031 0.25
vt 0.6094 0.25
vt 0.5313 0.25
vt 0.625 0.25
vt 0.625 0.4063
vt 0.5313 0.4063
vt 0.7031 0.25
vt 0.6094 0.25
vt 0.6094 0.2813
vt 0.7031 0.2813
vt 0.7969 0.5313
vt 0.7656 0.5313
vt 0.7656 0.3594
vt 0.7969 0.3594
vt 0.7969 0.5313
vt 0.7656 0.5313
vt 0.7656 0.3594
vt 0.7969 0.3594
vt 0.7656 0.5313
vt 0.7969 0.5313
vt 0.7969 0.3594
vt 0.7656 0.3594
vt 0.7656 0.5313
vt 0.7969 0.5313
vt 0.7969 0.3594
vt 0.7656 0.3594
vt 0.7656 0.3594
vt 0.7656 0.5313
vt 0.7969 0.5313
vt 0.7969 0.3594
vt 0.7656 0.3594
vt 0.7656 0.5313
vt 0.7969 0.5313
vt 0.7969 0.3594
vt 0.7969 0.3594
vt 0.7969 0.5313
vt 0.7656 0.5313
vt 0.7656 0.3594
vt 0.7969 0.3594
vt 0.7969 0.5313
vt 0.7656 0.5313
vt 0.7656 0.3594
vt 0.7656 0.3594
vt 0.7656 0.5313
vt 0.7969 0.5313
vt 0.7969 0.3594
vt 0.7656 0.3594
vt 0.7656 0.5313
vt 0.7969 0.5313
vt 0.7969 0.3594
vt 0.7969 0.3594
vt 0.7969 0.5313
vt 0.7656 0.5313
vt 0.7656 0.3594
vt 0.7969 0.3594
vt 0.7969 0.5313
vt 0.7656 0.5313
vt 0.7656 0.3594
vt 0.7969 0.5313
vt 0.7656 0.5313
vt 0.7656 0.3594
vt 0.7969 0.3594
vt 0.7969 0.5313
vt 0.7656 0.5313
vt 0.7656 0.3594
vt 0.7969 0.3594
vt 0.7656 0.5313
vt 0.7969 0.5313
vt 0.7969 0.3594
vt 0.7656 0.3594
vt 0.7656 0.5313
vt 0.7969 0.5313
vt 0.7969 0.3594
vt 0.7656 0.3594
vt 0.3125 0.25
vt 0 0.25
vt 0 0.0938
vt 0.3125 0.0938
vt 0.3125 0.25
vt 0 0.25
vt 0 0.0938
vt 0.3125 0.0938
vt 0.875 1
vt 0.4375 1
vt 0.4375 0.6875
vt 0.875 0.6875
vt 0.875 0.6875
vt 0.4375 0.6875
vt 0.4375 0.5313
vt 0.875 0.5313
vt 0.875 0.5313
vt 0.4375 0.5313
vt 0.4375 0.375
vt 0.875 0.375
vt 0.8125 0.7344
vt 0.9531 0.7344
vt 0.9531 0.5938
vt 0.8125 0.5938
vt 0.8125 0.7344
vt 0.9531 0.7344
vt 0.9531 0.5938
vt 0.8125 0.5938
vt 0.8125 0.7344
vt 0.9531 0.7344
vt 0.9531 0.5938
vt 0.8125 0.5938
vt 0.8125 0.7344
vt 0.9531 0.7344
vt 0.9531 0.5938
vt 0.8125 0.5938
vt 0.8125 0.7344
vt 0.9531 0.7344
vt 0.9531 0.5938
vt 0.8125 0.5938
vt 0.25 0.25
vt 0.4375 0.25
vt 0.4375 0.0625
vt 0.25 0.0625
vt 0.25 0.25
vt 0.4375 0.25
vt 0.4375 0.0625
vt 0.25 0.0625
vt 0.25 0.25
vt 0.4375 0.25
vt 0.4375 0.0625
vt 0.25 0.0625
vt 0.25 0.25
vt 0.4375 0.25
vt 0.4375 0.0625
vt 0.25 0.0625
vt 0.25 0.25
vt 0.4375 0.25
vt 0.4375 0.0625
vt 0.25 0.0625
vt 0.3125 0.25
vt 0 0.25
vt 0 0.0938
vt 0.3125 0.0938
vt 0.3125 0.25
vt 0 0.25
vt 0 0.0938
vt 0.3125 0.0938
vt 0.875 1
vt 0.4375 1
vt 0.4375 0.6875
vt 0.875 0.6875
vt 0.875 0.6875
vt 0.4375 0.6875
vt 0.4375 0.5313
vt 0.875 0.5313
vt 0.875 0.5313
vt 0.4375 0.5313
vt 0.4375 0.375
vt 0.875 0.375
vn -1 0 0
vn 1 0 0
vn 0 1 0
vn 0 -1 0
vn 0 0 1
vn 0 0 -1
vn -1 0 0
vn 1 0 0
vn 0 1 0
vn 0 0 1
vn 0 0 -1
vn -1 0 0
vn 1 0 0
vn 0 1 -0.05
vn 0 0.05 1
vn 0 -0.05 -1
vn -1 0 0
vn 1 0 0
vn 0 1 0
vn 0 -1 0
vn 0 0 1
vn 0 0 -1
vn -1 0 0
vn 1 0 0
vn 0 1 0
vn 0 -1 0
vn 0 0 1
vn 0 0 -1
vn 1 0 0
vn 1 0 0
vn 1 0 0
vn 1 0 0
vn 1 0 0
vn 0 0 1
vn 0 0 1
vn 0 0 1
vn 0 0 1
vn 0 0 1
vn 0 -1 0
vn 0 1 0
vn 0 1 0
vn 0 1 0
vn 0 1 0
vn -1 0 0
vn 1 0 0
vn 0 1 0
vn 0 -1 0
vn 0 0 1
vn 0 0 -1
vn -1 0 0
vn 1 0 0
vn 0 0 1
vn 0 0 -1
vn 1 0 0
vn 0 0 -1
vn -1 0 0
vn 0 0 1
vn 1 0 0
vn 0 0 -1
vn -1 0 0
vn 0 0 1
vn 1 0 0
vn 0 0 -1
vn -1 0 0
vn 0 0 1
vn 0 1 0
vn 1 0 0
vn 0 -1 0
vn -1 0 0
vn -1 0 0
vn 1 0 0
vn 0 0 1
vn 0 0 -1
vn -1 0 0
vn 1 0 0
vn 0 0 -1
vn 0 0 1
vn 1 0 0
vn -1 0 0
vn 0 0 1
vn 0 0 -1
vn 1 0 0
vn -1 0 0
vn 0 0 -1
vn 0 0 1
vn 0.13 0 0.99
vn -0.13 0 -0.99
vn 0 1 0
vn 0.99 0 -0.13
vn -0.99 0 0.13
vn -1 0 0
vn 1 0 0
vn 0 1 0
vn 0 0 1
vn 0 0 -1
vn -0.99 0 -0.1
vn 0.99 0 0.1
vn 0 1 0
vn -0.1 0 0.99
vn 0.1 0 -0.99
vn -0.09 0 1
vn 0.09 0 -1
vn 0 1 0
vn 1 0 0.09
vn -1 0 -0.09
usemtl flagpole
f 1/1/1 2/2/1 4/3/1
f 1/1/1 4/3/1 3/4/1
f 6/5/2 5/6/2 7/7/2
f 6/5/2 7/7/2 8/8/2
f 6/9/3 2/10/3 1/11/3
f 6/9/3 1/11/3 5/12/3
f 7/13/4 3/14/4 4/15/4
f 7/13/4 4/15/4 8/16/4
f 5/17/5 1/18/5 3/19/5
f 5/17/5 3/19/5 7/20/5
f 2/21/6 6/22/6 8/23/6
f 2/21/6 8/23/6 4/24/6
f 9/25/7 10/26/7 12/27/7
f 9/25/7 12/27/7 11/28/7
f 14/29/8 13/30/8 15/31/8
f 14/29/8 15/31/8 16/32/8
f 14/33/9 10/34/9 9/35/9
f 14/33/9 9/35/9 13/36/9
f 13/37/10 9/38/10 11/39/10
f 13/37/10 11/39/10 15/40/10
f 10/41/11 14/42/11 16/43/11
f 10/41/11 16/43/11 12/44/11
usemtl common_steel
f 17/45/12 18/46/12 20/47/12
f 17/45/12 20/47/12 19/48/12
f 22/49/13 21/50/13 23/51/13
f 22/49/13 23/51/13 24/52/13
f 22/53/14 18/54/14 17/55/14
f 22/53/14 17/55/14 21/56/14
f 21/57/15 17/58/15 19/59/15
f 21/57/15 19/59/15 23/60/15
f 18/61/16 22/62/16 24/63/16
f 18/61/16 24/63/16 20/64/16
f 25/65/17 26/66/17 28/67/17
f 25/65/17 28/67/17 27/68/17
f 30/69/18 29/70/18 31/71/18
f 30/69/18 31/71/18 32/72/18
f 30/73/19 26/74/19 25/75/19
f 30/73/19 25/75/19 29/76/19
f 31/77/20 27/78/20 28/79/20
f 31/77/20 28/79/20 32/80/20
f 29/81/21 25/82/21 27/83/21
f 29/81/21 27/83/21 31/84/21
f 26/85/22 30/86/22 32/87/22
f 26/85/22 32/87/22 28/88/22
f 33/89/23 34/90/23 36/91/23
f 33/89/23 36/91/23 35/92/23
f 38/93/24 37/94/24 39/95/24
f 38/93/24 39/95/24 40/96/24
f 38/97/25 34/98/25 33/99/25
f 38/97/25 33/99/25 37/100/25
f 39/101/26 35/102/26 36/103/26
f 39/101/26 36/103/26 40/104/26
f 37/105/27 33/106/27 35/107/27
f 37/105/27 35/107/27 39/108/27
f 34/109/28 38/110/28 40/111/28
f 34/109/28 40/111/28 36/112/28
usemtl coil_rope_side
f 42/113/29 41/114/29 43/115/29
f 42/113/29 43/115/29 44/116/29
f 44/117/30 43/118/30 45/119/30
f 44/117/30 45/119/30 46/120/30
f 46/121/31 45/122/31 47/123/31
f 46/121/31 47/123/31 48/124/31
f 48/125/32 47/126/32 49/127/32
f 48/125/32 49/127/32 51/128/32
f 51/129/33 49/130/33 50/131/33
f 51/129/33 50/131/33 52/132/33
f 54/133/34 53/134/34 55/135/34
f 54/133/34 55/135/34 56/136/34
f 56/137/35 55/138/35 57/139/35
f 56/137/35 57/139/35 58/140/35
f 58/141/36 57/142/36 59/143/36
f 58/141/36 59/143/36 60/144/36
f 60/145/37 59/146/37 61/147/37
f 60/145/37 61/147/37 63/148/37
f 63/149/38 61/150/38 62/151/38
f 63/149/38 62/151/38 64/152/38
usemtl common_concrete_volks
f 67/153/39 65/154/39 66/155/39
f 67/153/39 66/155/39 68/156/39
usemtl flagpole
f 75/157/40 76/158/40 69/159/40
f 75/157/40 69/159/40 73/160/40
f 77/161/41 75/162/41 73/163/41
f 77/161/41 73/163/41 70/164/41
f 76/165/42 75/166/42 74/167/42
f 76/165/42 74/167/42 72/168/42
f 75/169/43 77/170/43 71/171/43
f 75/169/43 71/171/43 74/172/43
usemtl common_table
f 78/173/44 106/174/44 109/175/44
f 78/173/44 109/175/44 80/176/44
f 84/177/45 108/178/45 107/179/45
f 84/177/45 107/179/45 82/180/45
f 82/181/46 107/182/46 106/183/46
f 82/181/46 106/183/46 78/184/46
f 80/185/47 109/186/47 108/187/47
f 80/185/47 108/187/47 84/188/47
f 82/189/48 78/190/48 80/191/48
f 82/189/48 80/191/48 84/192/48
f 79/193/49 83/194/49 85/195/49
f 79/193/49 85/195/49 81/196/49
usemtl flagpole
f 100/197/50 101/198/50 86/199/50
f 100/197/50 86/199/50 87/200/50
f 98/201/51 99/202/51 91/203/51
f 98/201/51 91/203/51 90/204/51
f 101/205/52 98/206/52 90/207/52
f 101/205/52 90/207/52 86/208/52
f 99/209/53 100/210/53 87/211/53
f 99/209/53 87/211/53 91/212/53
f 102/213/54 103/214/54 95/215/54
f 102/213/54 95/215/54 94/216/54
f 103/217/55 104/218/55 96/219/55
f 103/217/55 96/219/55 95/220/55
f 104/221/56 105/222/56 97/223/56
f 104/221/56 97/223/56 96/224/56
f 105/225/57 102/226/57 94/227/57
f 105/225/57 94/227/57 97/228/57
f 99/229/58 98/230/58 94/231/58
f 99/229/58 94/231/58 95/232/58
f 100/233/59 99/234/59 95/235/59
f 100/233/59 95/235/59 96/236/59
f 101/237/60 100/238/60 96/239/60
f 101/237/60 96/239/60 97/240/60
f 98/241/61 101/242/61 97/243/61
f 98/241/61 97/243/61 94/244/61
f 103/245/62 102/246/62 92/247/62
f 103/245/62 92/247/62 93/248/62
f 104/249/63 103/250/63 93/251/63
f 104/249/63 93/251/63 89/252/63
f 105/253/64 104/254/64 89/255/64
f 105/253/64 89/255/64 88/256/64
f 102/257/65 105/258/65 88/259/65
f 102/257/65 88/259/65 92/260/65
usemtl common_table
f 79/261/66 106/262/66 107/263/66
f 79/261/66 107/263/66 83/264/66
f 83/265/67 107/266/67 108/267/67
f 83/265/67 108/267/67 85/268/67
f 85/269/68 108/270/68 109/271/68
f 85/269/68 109/271/68 81/272/68
f 81/273/69 109/274/69 106/275/69
f 81/273/69 106/275/69 79/276/69
f 110/277/70 111/278/70 113/279/70
f 110/277/70 113/279/70 112/280/70
f 115/281/71 114/282/71 116/283/71
f 115/281/71 116/283/71 117/284/71
f 114/285/72 110/286/72 112/287/72
f 114/285/72 112/287/72 116/288/72
f 111/289/73 115/290/73 117/291/73
f 111/289/73 117/291/73 113/292/73
f 121/293/74 119/294/74 118/295/74
f 121/293/74 118/295/74 120/296/74
f 124/297/75 122/298/75 123/299/75
f 124/297/75 123/299/75 125/300/75
f 120/301/76 118/302/76 122/303/76
f 120/301/76 122/303/76 124/304/76
f 125/305/77 123/306/77 119/307/77
f 125/305/77 119/307/77 121/308/77
f 129/309/78 127/310/78 126/311/78
f 129/309/78 126/311/78 128/312/78
f 132/313/79 130/314/79 131/315/79
f 132/313/79 131/315/79 133/316/79
f 128/317/80 126/318/80 130/319/80
f 128/317/80 130/319/80 132/320/80
f 133/321/81 131/322/81 127/323/81
f 133/321/81 127/323/81 129/324/81
f 134/325/82 135/326/82 137/327/82
f 134/325/82 137/327/82 136/328/82
f 139/329/83 138/330/83 140/331/83
f 139/329/83 140/331/83 141/332/83
f 138/333/84 134/334/84 136/335/84
f 138/333/84 136/335/84 140/336/84
f 135/337/85 139/338/85 141/339/85
f 135/337/85 141/339/85 137/340/85
usemtl metal
f 142/341/86 143/342/86 145/343/86
f 142/341/86 145/343/86 144/344/86
f 147/345/87 146/346/87 148/347/87
f 147/345/87 148/347/87 149/348/87
f 147/349/88 143/350/88 142/351/88
f 147/349/88 142/351/88 146/352/88
f 146/353/89 142/354/89 144/355/89
f 146/353/89 144/355/89 148/356/89
f 143/357/90 147/358/90 149/359/90
f 143/357/90 149/359/90 145/360/90
usemtl flagpole
f 150/361/91 151/362/91 153/363/91
f 150/361/91 153/363/91 152/364/91
f 155/365/92 154/366/92 156/367/92
f 155/365/92 156/367/92 157/368/92
f 155/369/93 151/370/93 150/371/93
f 155/369/93 150/371/93 154/372/93
f 154/373/94 150/374/94 152/375/94
f 154/373/94 152/375/94 156/376/94
f 151/377/95 155/378/95 157/379/95
f 151/377/95 157/379/95 153/380/95
f 158/381/96 159/382/96 161/383/96
f 158/381/96 161/383/96 160/384/96
f 163/385/97 162/386/97 164/387/97
f 163/385/97 164/387/97 165/388/97
f 163/389/98 159/390/98 158/391/98
f 163/389/98 158/391/98 162/392/98
f 162/393/99 158/394/99 160/395/99
f 162/393/99 160/395/99 164/396/99
f 159/397/100 163/398/100 165/399/100
f 159/397/100 165/399/100 161/400/100
usemtl metal
f 166/401/101 167/402/101 169/403/101
f 166/401/101 169/403/101 168/404/101
f 171/405/102 170/406/102 172/407/102
f 171/405/102 172/407/102 173/408/102
f 171/409/103 167/410/103 166/411/103
f 171/409/103 166/411/103 170/412/103
f 170/413/104 166/414/104 168/415/104
f 170/413/104 168/415/104 172/416/104
f 167/417/105 171/418/105 173/419/105
f 167/417/105 173/419/105 169/420/105