# Made by Pabilo8 with Blockbench
# Exported with IIToolkit Plugin
mtllib flagpole.mtl


o main
v 0.3231879194042242 5.187500000000001 1.65625
v 0.3231879194042242 5.187500000000001 1.34375
v 0.3231879194042242 5.000000000000001 1.65625
v 0.3231879194042242 5.000000000000001 1.34375
v 0.6356879194042242 5.187500000000001 1.65625
v 0.6356879194042242 5.187500000000001 1.34375
v 0.6356879194042242 5.000000000000001 1.65625
v 0.6356879194042242 5.000000000000001 1.34375
v 0.2294379194042242 -0.125 1.75
v 0.2294379194042242 -0.125 1.25
v 0.2294379194042242 -1 1.75
v 0.2294379194042242 -1 1.25
v 0.7294379194042242 -0.125 1.75
v 0.7294379194042242 -0.125 1.25
v 0.7294379194042242 -1 1.75
v 0.7294379194042242 -1 1.25
v 0.0419379194042242 -0.17768687500000002 1.937243125
v 0.0419379194042242 -0.1875 1.75
v 0.0419379194042242 -0.9890737500000002 1.97976625
v 0.0419379194042242 -0.99888625 1.792523125
v 0.8544379194042242 -0.17768687500000002 1.937243125
v 0.8544379194042242 -0.1875 1.75
v 0.8544379194042242 -0.9890737500000002 1.97976625
v 0.8544379194042242 -0.99888625 1.792523125
v 0.6044379194042242 0.3125 1.5625
v 0.6044379194042242 0.3125 1.4375
v 0.6044379194042242 0.0625 1.5625
v 0.6044379194042242 0.0625 1.4375
v 0.7919379194042242 0.3125 1.5625
v 0.7919379194042242 0.3125 1.4375
v 0.7919379194042242 0.0625 1.5625
v 0.7919379194042242 0.0625 1.4375
v 0.6044379194042242 5.125000000000001 1.5625
v 0.6044379194042242 5.125000000000001 1.4375
v 0.6044379194042242 5.000000000000001 1.5625
v 0.6044379194042242 5.000000000000001 1.4375
v 0.7919379194042242 5.125000000000001 1.5625
v 0.7919379194042242 5.125000000000001 1.4375
v 0.7919379194042242 5.000000000000001 1.5625
v 0.7919379194042242 5.000000000000001 1.4375
v 0.2919379194042242 -0.4375 0.8125
v 0.2919379194042242 -0.4375 0.25
v 0.2919379194042242 -1 0.8125
v 0.2919379194042242 -1 0.25
v 0.8544379194042242 -0.4375 0.8125
v 0.8544379194042242 -0.4375 0.25
v 0.8544379194042242 -1 0.8125
v 0.8544379194042242 -1 0.25
v 0.8697913126428589 -0.25 0.9958916824264661
v 0.948187660093599 -0.25 0.25000026090026095
v 0.8697913126428589 -1 0.9958916824264661
v 0.948187660093599 -1 0.25000026090026095
v 1.6156827341690643 -0.25 1.0742880298772062
v 1.6940790816198041 -0.25 0.32839660835100126
v 1.6156827341690643 -1 1.0742880298772062
v 1.6940790816198041 -1 0.32839660835100126
v 1.3528723785876493 -0.625 2.4962731474789015
v 1.2919377068850757 -0.625 2.0000000716582402
v 1.3528723785876493 -0.8125 2.4962731474789015
v 1.2919377068850757 -0.8125 2.0000000716582402
v 1.60100891649798 -0.625 2.4658058116276145
v 1.5400742447954063 -0.625 1.9695327358069534
v 1.60100891649798 -0.8125 2.4658058116276145
v 1.5400742447954063 -0.8125 1.9695327358069534
v 0.6669379194042242 5.000000000000001 1.5625
v 0.6669379194042242 5.000000000000001 1.4375
v 0.6669379194042242 4 1.5625
v 0.6669379194042242 4 1.4375
v 0.6669379194042242 3 1.5625
v 0.6669379194042242 3 1.4375
v 0.6669379194042242 2 1.5625
v 0.6669379194042242 2 1.4375
v 0.6669379194042242 1 1.5625
v 0.6669379194042242 0 1.5625
v 0.6669379194042242 1 1.4375
v 0.6669379194042242 0 1.4375
v 0.6044379194042242 5.000000000000001 1.5
v 0.7294379194042242 5.000000000000001 1.5
v 0.6044379194042242 4 1.5
v 0.7294379194042242 4 1.5
v 0.6044379194042242 3 1.5
v 0.7294379194042242 3 1.5
v 0.6044379194042242 2 1.5
v 0.7294379194042242 2 1.5
v 0.6044379194042242 1 1.5
v 0.6044379194042242 0 1.5
v 0.7294379194042242 1 1.5
v 0.7294379194042242 0 1.5
v -1.0205620805957758 -3 3
v -1.0205620805957758 -3 0
v 1.9794379194042242 -3 3
v 1.9794379194042242 -3 0
v 1.7294379194042242 -1 2.75
v 1.7294379194042242 -1 0.25
v -0.7705620805957758 -1 0.25
v -0.7705620805957758 -1 2.75
v 1.7294379194042242 -1 1.5
v -0.7705620805957758 -1 1.5
v 0.4794379194042242 -1 1.5
v 0.4794379194042242 -1 2.75
v 0.4794379194042242 -1 0.25
v -0.08306208059577602 -0.6875 1.875
v -0.708062080595776 -0.6875 1.875
v -0.08306208059577602 -1 1.875
v -0.708062080595776 -1 1.875
v -0.0830620805957758 -0.6875 1
v -0.7080620805957758 -0.6875 1
v -0.0830620805957758 -1 1
v -0.7080620805957758 -1 1
v -0.039445005743831696 -0.6875 2.678320549920332
v -0.6590980441024632 -0.6875 2.7598994200578644
v -0.039445005743831696 -1 2.678320549920332
v -0.6590980441024632 -1 2.7598994200578644
v -0.15365542393637677 -0.6875 1.8108062962182478
v -0.7733084622950084 -0.6875 1.8923851663557802
v -0.15365542393637677 -1 1.8108062962182478
v -0.7733084622950084 -1 1.8923851663557802
v 1.1044379194042242 -0.1875 2.6875
v 1.1044379194042242 -0.1875 1.9375
v 1.1044379194042242 -0.3125 2.6875
v 1.1044379194042242 -0.3125 1.9375
v 1.7294379194042242 -0.1875 2.6875
v 1.7294379194042242 -0.1875 1.9375
v 1.7294379194042242 -0.3125 2.6875
v 1.7294379194042242 -0.3125 1.9375
v 1.5419379194042242 -0.3125 2.125
v 1.5419379194042242 -0.3125 2
v 1.5419379194042242 -1 2.125
v 1.5419379194042242 -1 2
v 1.6669379194042242 -0.3125 2.125
v 1.6669379194042242 -0.3125 2
v 1.6669379194042242 -1 2.125
v 1.6669379194042242 -1 2
v 1.5419379194042242 -0.3125 2.625
v 1.5419379194042242 -0.3125 2.5
v 1.5419379194042242 -1 2.625
v 1.5419379194042242 -1 2.5
v 1.6669379194042242 -0.3125 2.625
v 1.6669379194042242 -0.3125 2.5
v 1.6669379194042242 -1 2.625
v 1.6669379194042242 -1 2.5
v 1.1669379194042242 -0.3125 2.125
v 1.1669379194042242 -0.3125 2
v 1.1669379194042242 -1 2.125
v 1.1669379194042242 -1 2
v 1.2919379194042242 -0.3125 2.125
v 1.2919379194042242 -0.3125 2
v 1.2919379194042242 -1 2.125
v 1.2919379194042242 -1 2
v 1.1669379194042242 -0.3125 2.625
v 1.1669379194042242 -0.3125 2.5
v 1.1669379194042242 -1 2.625
v 1.1669379194042242 -1 2.5
v 1.2919379194042242 -0.3125 2.625
v 1.2919379194042242 -0.3125 2.5
v 1.2919379194042242 -1 2.625
v 1.2919379194042242 -1 2.5
v 0.3544379194042242 5.000000000000001 1.625
v 0.3544379194042242 5.000000000000001 1.375
v 0.3544379194042242 -0.125 1.625
v 0.3544379194042242 -0.125 1.375
v 0.6044379194042242 5.000000000000001 1.625
v 0.6044379194042242 5.000000000000001 1.375
v 0.6044379194042242 -0.125 1.625
v 0.6044379194042242 -0.125 1.375
v 0.6044379194042242 2.4375 1.625
v 0.6044379194042242 2.4375 1.375
v 0.3544379194042242 2.4375 1.375
v 0.3544379194042242 2.4375 1.625
v 0.6044379194042242 3.71875 1.625
v 0.6044379194042242 3.71875 1.375
v 0.3544379194042242 3.71875 1.375
v 0.3544379194042242 3.71875 1.625
v 0.6044379194042242 1.15625 1.625
v 0.6044379194042242 1.15625 1.375
v 0.3544379194042242 1.15625 1.375
v 0.3544379194042242 1.15625 1.625
vt 0.125 0.0625
vt 0.25 0.0625
vt 0.25 0
vt 0.125 0
vt 0.125 0.0625
vt 0.25 0.0625
vt 0.25 0
vt 0.125 0
vt 0.875 0.171875
vt 1 0.171875
vt 1 0.046875
vt 0.875 0.046875
vt 0.875 0.171875
vt 1 0.171875
vt 1 0.046875
vt 0.875 0.046875
vt 0.25 0.0625
vt 0.125 0.0625
vt 0.125 0
vt 0.25 0
vt 0.25 0.0625
vt 0.125 0.0625
vt 0.125 0
vt 0.25 0
vt 0.875 0.21875
vt 1 0.21875
vt 1 0
vt 0.875 0
vt 0.875 0.21875
vt 1 0.21875
vt 1 0
vt 0.875 0
vt 0.875 0.171875
vt 1 0.171875
vt 1 0.046875
vt 0.875 0.046875
vt 0.875 0.21875
vt 1 0.21875
vt 1 0
vt 0.875 0
vt 0.875 0.21875
vt 1 0.21875
vt 1 0
vt 0.875 0
vt 0.75 0.234375
vt 0.71875 0.234375
vt 0.71875 0.015625
vt 0.75 0.015625
vt 0.53125 0.234375
vt 0.5 0.234375
vt 0.5 0.015625
vt 0.53125 0.015625
vt 0.53125 0
vt 0.75 0
vt 0.75 0.03125
vt 0.53125 0.03125
vt 0.734375 0.234375
vt 0.515625 0.234375
vt 0.515625 0.015625
vt 0.734375 0.015625
vt 0.734375 0.234375
vt 0.515625 0.234375
vt 0.515625 0.015625
vt 0.734375 0.015625
vt 1 0.484375
vt 1 0.484375
vt 1 0.421875
vt 1 0.421875
vt 0.71875 0.46875
vt 0.75 0.46875
vt 0.75 0.40625
vt 0.71875 0.40625
vt 0.71875 0.453125
vt 0.71875 0.40625
vt 0.75 0.40625
vt 0.75 0.453125
vt 0.75 0.46875
vt 0.75 0.421875
vt 0.71875 0.421875
vt 0.71875 0.46875
vt 0.671875 0.46875
vt 0.71875 0.46875
vt 0.71875 0.40625
vt 0.671875 0.40625
vt 0.6875 0.46875
vt 0.734375 0.46875
vt 0.734375 0.40625
vt 0.6875 0.40625
vt 1 0.484375
vt 1 0.484375
vt 1 0.421875
vt 1 0.421875
vt 0.71875 0.46875
vt 0.75 0.46875
vt 0.75 0.40625
vt 0.71875 0.40625
vt 0.71875 0.453125
vt 0.71875 0.40625
vt 0.75 0.40625
vt 0.75 0.453125
vt 0.75 0.46875
vt 0.75 0.421875
vt 0.71875 0.421875
vt 0.71875 0.46875
vt 0.671875 0.46875
vt 0.71875 0.46875
vt 0.71875 0.40625
vt 0.671875 0.40625
vt 0.6875 0.46875
vt 0.734375 0.46875
vt 0.734375 0.40625
vt 0.6875 0.40625
vt 0.8125 0.734375
vt 0.953125 0.734375
vt 0.953125 0.59375
vt 0.8125 0.59375
vt 0.8125 0.734375
vt 0.953125 0.734375
vt 0.953125 0.59375
vt 0.8125 0.59375
vt 0.8125 0.734375
vt 0.953125 0.734375
vt 0.953125 0.59375
vt 0.8125 0.59375
vt 0.8125 0.734375
vt 0.953125 0.734375
vt 0.953125 0.59375
vt 0.8125 0.59375
vt 0.8125 0.734375
vt 0.953125 0.734375
vt 0.953125 0.59375
vt 0.8125 0.59375
vt 0.25 0.25
vt 0.4375 0.25
vt 0.4375 0.0625
vt 0.25 0.0625
vt 0.25 0.25
vt 0.4375 0.25
vt 0.4375 0.0625
vt 0.25 0.0625
vt 0.25 0.25
vt 0.4375 0.25
vt 0.4375 0.0625
vt 0.25 0.0625
vt 0.25 0.25
vt 0.4375 0.25
vt 0.4375 0.0625
vt 0.25 0.0625
vt 0.25 0.25
vt 0.4375 0.25
vt 0.4375 0.0625
vt 0.25 0.0625
vt 0.375 0.375
vt 0.5 0.375
vt 0.5 0.328125
vt 0.375 0.328125
vt 0.375 0.375
vt 0.453125 0.375
vt 0.453125 0.34375
vt 0.375 0.34375
vt 0.34375 0.3125
vt 0.34375 0.375
vt 0.46875 0.375
vt 0.46875 0.3125
vt 0.375 0.375
vt 0.453125 0.375
vt 0.453125 0.359375
vt 0.375 0.359375
vt 0.375 0.375
vt 0.421875 0.375
vt 0.421875 0.34375
vt 0.375 0.34375
vt 0.375 0.375
vt 0.4375 0.375
vt 0.4375 0.34375
vt 0.375 0.34375
vt 0 1
vt 0.125 1
vt 0.125 0
vt 0 0
vt 0 1
vt 0.125 1
vt 0.125 0
vt 0 0
vt 0 1
vt 0.125 1
vt 0.125 0
vt 0 0
vt 0 1
vt 0.125 1
vt 0.125 0
vt 0 0
vt 0 1
vt 0.125 1
vt 0.125 0
vt 0 0
vt 0 1
vt 0.125 1
vt 0.125 0
vt 0 0
vt 0 1
vt 0.125 1
vt 0.125 0
vt 0 0
vt 0 1
vt 0.125 1
vt 0.125 0
vt 0 0
vt 0 1
vt 0.125 1
vt 0.125 0
vt 0 0
vt 0 1
vt 0.125 1
vt 0.125 0
vt 0 0
vt 0.75 1
vt 0 1
vt 0 0.25
vt 0.75 0.25
vt 0.4375 0.6875
vt 0.4375 1
vt 0.75 1
vt 0.75 0.6875
vt 0.75 0.6875
vt 0.4375 0.6875
vt 0.4375 1
vt 0.75 1
vt 0.75 0.6875
vt 0.4375 0.6875
vt 0.4375 1
vt 0.75 1
vt 0.4375 0.6875
vt 0.4375 1
vt 0.75 1
vt 0.75 0.6875
vt 0.34375 0.796875
vt 0.5 0.796875
vt 0.5 0.71875
vt 0.34375 0.71875
vt 0.34375 0.796875
vt 0.5 0.796875
vt 0.5 0.71875
vt 0.34375 0.71875
vt 0.53125 0.78125
vt 0.75 0.78125
vt 0.75 0.625
vt 0.53125 0.625
vt 0.21875 0.875
vt 0.4375 0.875
vt 0.4375 0.796875
vt 0.21875 0.796875
vt 0.21875 0.875
vt 0.4375 0.875
vt 0.4375 0.796875
vt 0.21875 0.796875
vt 0.34375 0.796875
vt 0.5 0.796875
vt 0.5 0.71875
vt 0.34375 0.71875
vt 0.34375 0.796875
vt 0.5 0.796875
vt 0.5 0.71875
vt 0.34375 0.71875
vt 0.75 1
vt 0.96875 1
vt 0.96875 0.84375
vt 0.75 0.84375
vt 0.21875 0.875
vt 0.4375 0.875
vt 0.4375 0.796875
vt 0.21875 0.796875
vt 0.21875 0.875
vt 0.4375 0.875
vt 0.4375 0.796875
vt 0.21875 0.796875
vt 0.03125 0.734375
vt 0.21875 0.734375
vt 0.21875 0.703125
vt 0.03125 0.703125
vt 0.375 0.734375
vt 0.5625 0.734375
vt 0.5625 0.703125
vt 0.375 0.703125
vt 0.421875 0.0625
vt 0.265625 0.0625
vt 0.265625 0.25
vt 0.421875 0.25
vt 0.53125 0.921875
vt 0.375 0.921875
vt 0.375 0.734375
vt 0.53125 0.734375
vt 0.5625 0.734375
vt 0.71875 0.734375
vt 0.71875 0.703125
vt 0.5625 0.703125
vt 0.21875 0.734375
vt 0.375 0.734375
vt 0.375 0.703125
vt 0.21875 0.703125
vt 0.765625 0.5625
vt 0.796875 0.5625
vt 0.796875 0.390625
vt 0.765625 0.390625
vt 0.765625 0.546875
vt 0.796875 0.546875
vt 0.796875 0.375
vt 0.765625 0.375
vt 0.171875 0.828125
vt 0.140625 0.828125
vt 0.140625 0.859375
vt 0.171875 0.859375
vt 0.765625 0.53125
vt 0.796875 0.53125
vt 0.796875 0.359375
vt 0.765625 0.359375
vt 0.765625 0.546875
vt 0.796875 0.546875
vt 0.796875 0.375
vt 0.765625 0.375
vt 0.765625 0.5625
vt 0.796875 0.5625
vt 0.796875 0.390625
vt 0.765625 0.390625
vt 0.765625 0.546875
vt 0.796875 0.546875
vt 0.796875 0.375
vt 0.765625 0.375
vt 0.171875 0.828125
vt 0.140625 0.828125
vt 0.140625 0.859375
vt 0.171875 0.859375
vt 0.765625 0.53125
vt 0.796875 0.53125
vt 0.796875 0.359375
vt 0.765625 0.359375
vt 0.765625 0.546875
vt 0.796875 0.546875
vt 0.796875 0.375
vt 0.765625 0.375
vt 0.765625 0.5625
vt 0.796875 0.5625
vt 0.796875 0.390625
vt 0.765625 0.390625
vt 0.765625 0.546875
vt 0.796875 0.546875
vt 0.796875 0.375
vt 0.765625 0.375
vt 0.171875 0.828125
vt 0.140625 0.828125
vt 0.140625 0.859375
vt 0.171875 0.859375
vt 0.765625 0.53125
vt 0.796875 0.53125
vt 0.796875 0.359375
vt 0.765625 0.359375
vt 0.765625 0.546875
vt 0.796875 0.546875
vt 0.796875 0.375
vt 0.765625 0.375
vt 0.765625 0.5625
vt 0.796875 0.5625
vt 0.796875 0.390625
vt 0.765625 0.390625
vt 0.765625 0.546875
vt 0.796875 0.546875
vt 0.796875 0.375
vt 0.765625 0.375
vt 0.171875 0.828125
vt 0.140625 0.828125
vt 0.140625 0.859375
vt 0.171875 0.859375
vt 0.765625 0.53125
vt 0.796875 0.53125
vt 0.796875 0.359375
vt 0.765625 0.359375
vt 0.765625 0.546875
vt 0.796875 0.546875
vt 0.796875 0.375
vt 0.765625 0.375
vt 0.8125 0.6796875
vt 0.75 0.6796875
vt 0.75 1
vt 0.8125 1
vt 0.8125 0.6484375
vt 0.75 0.6484375
vt 0.75 0.96875
vt 0.8125 0.96875
vt 0.8125 0.6015625
vt 0.75 0.6015625
vt 0.75 0.921875
vt 0.8125 0.921875
vt 0.8125 0.6640625
vt 0.75 0.6640625
vt 0.75 0.984375
vt 0.8125 0.984375
vt 0.8125 0.6796875
vt 0.75 0.6796875
vt 0.75 1
vt 0.8125 1
vt 0.8125 0.6484375
vt 0.75 0.6484375
vt 0.75 0.96875
vt 0.8125 0.96875
vt 0.8125 0.6171875
vt 0.75 0.6171875
vt 0.75 0.9375
vt 0.8125 0.9375
vt 0.8125 0.6640625
vt 0.75 0.6640625
vt 0.75 0.984375
vt 0.8125 0.984375
vt 0.75 0.9375
vt 0.8125 0.9375
vt 0.8125 0.6171875
vt 0.75 0.6171875
vt 0.75 0.953125
vt 0.8125 0.953125
vt 0.8125 0.6328125
vt 0.75 0.6328125
vt 0.75 0.96875
vt 0.8125 0.96875
vt 0.8125 0.6484375
vt 0.75 0.6484375
vt 0.75 0.9375
vt 0.8125 0.9375
vt 0.8125 0.6171875
vt 0.75 0.6171875
vt 0.75 0.828125
vt 0.8125 0.828125
vt 0.8125 0.5078125
vt 0.75 0.5078125
vt 0.75 0.828125
vt 0.8125 0.828125
vt 0.8125 0.5078125
vt 0.75 0.5078125
vt 0.75 0.828125
vt 0.8125 0.828125
vt 0.8125 0.5078125
vt 0.75 0.5078125
vt 0.75 0.9375
vt 0.8125 0.9375
vt 0.8125 0.6171875
vt 0.75 0.6171875
vn -1 0 0
vn 1 0 0
vn 0 1 0
vn 0 -1 0
vn 0 0 1
vn 0 0 -1
vn -1 0 0
vn 1 0 0
vn 0 1 0
vn 0 0 1
vn 0 0 -1
vn -1 0 0
vn 1 0 0
vn 0 0.9986294988989391 -0.05233664040472852
vn 0 0.052336128989130766 0.998629525701315
vn 0 -0.052336169192529945 -0.9986295235943362
vn -1 0 0
vn 1 0 0
vn 0 1 0
vn 0 -1 0
vn 0 0 1
vn 0 0 -1
vn -1 0 0
vn 1 0 0
vn 0 1 0
vn 0 -1 0
vn 0 0 1
vn 0 0 -1
vn -1 0 0
vn 1 0 0
vn 0 1 0
vn 0 0 1
vn 0 0 -1
vn -0.9945218953682734 0 -0.10452846326765346
vn 0.9945218953682734 0 0.10452846326765318
vn 0 1 0
vn -0.10452846326765342 0 0.9945218953682734
vn 0.10452846326765375 0 -0.9945218953682734
vn -0.9925461516413221 0 0.12186934340514716
vn 0.9925461516413221 0 -0.12186934340514721
vn 0 1 0
vn 0 -1 0
vn 0.12186934340514805 0 0.9925461516413221
vn -0.12186934340514716 0 -0.9925461516413221
vn 1 0 0
vn 1 0 0
vn 1 0 0
vn 1 0 0
vn 1 0 0
vn 0 0 1
vn 0 0 1
vn 0 0 1
vn 0 0 1
vn 0 0 1
vn 0 -1 0
vn 0 1 0
vn 0 1 0
vn 0 1 0
vn 0 1 0
vn 0 0 1
vn 0 0 -1
vn 0 1 0
vn 1 0 2.5376526277146434e-16
vn -1 0 -2.5376526277146434e-16
vn 0.13052619222005152 0 0.9914448613738106
vn -0.13052619222005182 0 -0.9914448613738104
vn 0 1 0
vn 0.9914448613738106 0 -0.13052619222005152
vn -0.9914448613738104 0 0.13052619222005163
vn -1 0 0
vn 1 0 0
vn 0 1 0
vn 0 -1 0
vn 0 0 1
vn 0 0 -1
vn -1 0 0
vn 1 0 0
vn 0 1 0
vn 0 0 1
vn 0 0 -1
vn -1 0 0
vn 1 0 0
vn 0 1 0
vn 0 0 1
vn 0 0 -1
vn -1 0 0
vn 1 0 0
vn 0 1 0
vn 0 0 1
vn 0 0 -1
vn -1 0 0
vn 1 0 0
vn 0 1 0
vn 0 0 1
vn 0 0 -1
vn -1 0 0
vn 1 0 0
vn 0 0 1
vn 0 0 -1
vn 1 0 0
vn 0 0 -1
vn -1 0 0
vn 0 0 1
vn 1 0 0
vn 0 0 -1
vn -1 0 0
vn 0 0 1
vn 1 0 0
vn 0 0 -1
vn -1 0 0
vn 0 0 1
usemtl flagpole
f 1/1/1 2/2/1 4/3/1
f 1/1/1 4/3/1 3/4/1
f 6/5/2 5/6/2 7/7/2
f 6/5/2 7/7/2 8/8/2
f 6/9/3 2/10/3 1/11/3
f 6/9/3 1/11/3 5/12/3
f 7/13/4 3/14/4 4/15/4
f 7/13/4 4/15/4 8/16/4
f 5/17/5 1/18/5 3/19/5
f 5/17/5 3/19/5 7/20/5
f 2/21/6 6/22/6 8/23/6
f 2/21/6 8/23/6 4/24/6
f 9/25/7 10/26/7 12/27/7
f 9/25/7 12/27/7 11/28/7
f 14/29/8 13/30/8 15/31/8
f 14/29/8 15/31/8 16/32/8
f 14/33/9 10/34/9 9/35/9
f 14/33/9 9/35/9 13/36/9
f 13/37/10 9/38/10 11/39/10
f 13/37/10 11/39/10 15/40/10
f 10/41/11 14/42/11 16/43/11
f 10/41/11 16/43/11 12/44/11
usemtl common_steel
f 17/45/12 18/46/12 20/47/12
f 17/45/12 20/47/12 19/48/12
f 22/49/13 21/50/13 23/51/13
f 22/49/13 23/51/13 24/52/13
f 22/53/14 18/54/14 17/55/14
f 22/53/14 17/55/14 21/56/14
f 21/57/15 17/58/15 19/59/15
f 21/57/15 19/59/15 23/60/15
f 18/61/16 22/62/16 24/63/16
f 18/61/16 24/63/16 20/64/16
f 25/65/17 26/66/17 28/67/17
f 25/65/17 28/67/17 27/68/17
f 30/69/18 29/70/18 31/71/18
f 30/69/18 31/71/18 32/72/18
f 30/73/19 26/74/19 25/75/19
f 30/73/19 25/75/19 29/76/19
f 31/77/20 27/78/20 28/79/20
f 31/77/20 28/79/20 32/80/20
f 29/81/21 25/82/21 27/83/21
f 29/81/21 27/83/21 31/84/21
f 26/85/22 30/86/22 32/87/22
f 26/85/22 32/87/22 28/88/22
f 33/89/23 34/90/23 36/91/23
f 33/89/23 36/91/23 35/92/23
f 38/93/24 37/94/24 39/95/24
f 38/93/24 39/95/24 40/96/24
f 38/97/25 34/98/25 33/99/25
f 38/97/25 33/99/25 37/100/25
f 39/101/26 35/102/26 36/103/26
f 39/101/26 36/103/26 40/104/26
f 37/105/27 33/106/27 35/107/27
f 37/105/27 35/107/27 39/108/27
f 34/109/28 38/110/28 40/111/28
f 34/109/28 40/111/28 36/112/28
usemtl flagpole
f 41/113/29 42/114/29 44/115/29
f 41/113/29 44/115/29 43/116/29
f 46/117/30 45/118/30 47/119/30
f 46/117/30 47/119/30 48/120/30
f 46/121/31 42/122/31 41/123/31
f 46/121/31 41/123/31 45/124/31
f 45/125/32 41/126/32 43/127/32
f 45/125/32 43/127/32 47/128/32
f 42/129/33 46/130/33 48/131/33
f 42/129/33 48/131/33 44/132/33
f 49/133/34 50/134/34 52/135/34
f 49/133/34 52/135/34 51/136/34
f 54/137/35 53/138/35 55/139/35
f 54/137/35 55/139/35 56/140/35
f 54/141/36 50/142/36 49/143/36
f 54/141/36 49/143/36 53/144/36
f 53/145/37 49/146/37 51/147/37
f 53/145/37 51/147/37 55/148/37
f 50/149/38 54/150/38 56/151/38
f 50/149/38 56/151/38 52/152/38
f 57/153/39 58/154/39 60/155/39
f 57/153/39 60/155/39 59/156/39
f 62/157/40 61/158/40 63/159/40
f 62/157/40 63/159/40 64/160/40
f 62/161/41 58/162/41 57/163/41
f 62/161/41 57/163/41 61/164/41
f 63/165/42 59/166/42 60/167/42
f 63/165/42 60/167/42 64/168/42
f 61/169/43 57/170/43 59/171/43
f 61/169/43 59/171/43 63/172/43
f 58/173/44 62/174/44 64/175/44
f 58/173/44 64/175/44 60/176/44
usemtl coil_rope_side
f 66/177/45 65/178/45 67/179/45
f 66/177/45 67/179/45 68/180/45
f 68/181/46 67/182/46 69/183/46
f 68/181/46 69/183/46 70/184/46
f 70/185/47 69/186/47 71/187/47
f 70/185/47 71/187/47 72/188/47
f 72/189/48 71/190/48 73/191/48
f 72/189/48 73/191/48 75/192/48
f 75/193/49 73/194/49 74/195/49
f 75/193/49 74/195/49 76/196/49
f 78/197/50 77/198/50 79/199/50
f 78/197/50 79/199/50 80/200/50
f 80/201/51 79/202/51 81/203/51
f 80/201/51 81/203/51 82/204/51
f 82/205/52 81/206/52 83/207/52
f 82/205/52 83/207/52 84/208/52
f 84/209/53 83/210/53 85/211/53
f 84/209/53 85/211/53 87/212/53
f 87/213/54 85/214/54 86/215/54
f 87/213/54 86/215/54 88/216/54
usemtl common_concrete_volks
f 91/217/55 89/218/55 90/219/55
f 91/217/55 90/219/55 92/220/55
usemtl flagpole
f 99/221/56 100/222/56 93/223/56
f 99/221/56 93/223/56 97/224/56
f 101/225/57 99/226/57 97/227/57
f 101/225/57 97/227/57 94/228/57
f 100/229/58 99/230/58 98/231/58
f 100/229/58 98/231/58 96/232/58
f 99/233/59 101/234/59 95/235/59
f 99/233/59 95/235/59 98/236/59
usemtl common_table
f 102/237/60 103/238/60 105/239/60
f 102/237/60 105/239/60 104/240/60
f 107/241/61 106/242/61 108/243/61
f 107/241/61 108/243/61 109/244/61
f 107/245/62 103/246/62 102/247/62
f 107/245/62 102/247/62 106/248/62
f 106/249/63 102/250/63 104/251/63
f 106/249/63 104/251/63 108/252/63
f 103/253/64 107/254/64 109/255/64
f 103/253/64 109/255/64 105/256/64
f 110/257/65 111/258/65 113/259/65
f 110/257/65 113/259/65 112/260/65
f 115/261/66 114/262/66 116/263/66
f 115/261/66 116/263/66 117/264/66
f 115/265/67 111/266/67 110/267/67
f 115/265/67 110/267/67 114/268/67
f 114/269/68 110/270/68 112/271/68
f 114/269/68 112/271/68 116/272/68
f 111/273/69 115/274/69 117/275/69
f 111/273/69 117/275/69 113/276/69
f 118/277/70 119/278/70 121/279/70
f 118/277/70 121/279/70 120/280/70
f 123/281/71 122/282/71 124/283/71
f 123/281/71 124/283/71 125/284/71
f 123/285/72 119/286/72 118/287/72
f 123/285/72 118/287/72 122/288/72
f 124/289/73 120/290/73 121/291/73
f 124/289/73 121/291/73 125/292/73
f 122/293/74 118/294/74 120/295/74
f 122/293/74 120/295/74 124/296/74
f 119/297/75 123/298/75 125/299/75
f 119/297/75 125/299/75 121/300/75
f 126/301/76 127/302/76 129/303/76
f 126/301/76 129/303/76 128/304/76
f 131/305/77 130/306/77 132/307/77
f 131/305/77 132/307/77 133/308/77
f 131/309/78 127/310/78 126/311/78
f 131/309/78 126/311/78 130/312/78
f 130/313/79 126/314/79 128/315/79
f 130/313/79 128/315/79 132/316/79
f 127/317/80 131/318/80 133/319/80
f 127/317/80 133/319/80 129/320/80
f 134/321/81 135/322/81 137/323/81
f 134/321/81 137/323/81 136/324/81
f 139/325/82 138/326/82 140/327/82
f 139/325/82 140/327/82 141/328/82
f 139/329/83 135/330/83 134/331/83
f 139/329/83 134/331/83 138/332/83
f 138/333/84 134/334/84 136/335/84
f 138/333/84 136/335/84 140/336/84
f 135/337/85 139/338/85 141/339/85
f 135/337/85 141/339/85 137/340/85
f 142/341/86 143/342/86 145/343/86
f 142/341/86 145/343/86 144/344/86
f 147/345/87 146/346/87 148/347/87
f 147/345/87 148/347/87 149/348/87
f 147/349/88 143/350/88 142/351/88
f 147/349/88 142/351/88 146/352/88
f 146/353/89 142/354/89 144/355/89
f 146/353/89 144/355/89 148/356/89
f 143/357/90 147/358/90 149/359/90
f 143/357/90 149/359/90 145/360/90
f 150/361/91 151/362/91 153/363/91
f 150/361/91 153/363/91 152/364/91
f 155/365/92 154/366/92 156/367/92
f 155/365/92 156/367/92 157/368/92
f 155/369/93 151/370/93 150/371/93
f 155/369/93 150/371/93 154/372/93
f 154/373/94 150/374/94 152/375/94
f 154/373/94 152/375/94 156/376/94
f 151/377/95 155/378/95 157/379/95
f 151/377/95 157/379/95 153/380/95
usemtl flagpole
f 172/381/96 173/382/96 158/383/96
f 172/381/96 158/383/96 159/384/96
f 170/385/97 171/386/97 163/387/97
f 170/385/97 163/387/97 162/388/97
f 173/389/98 170/390/98 162/391/98
f 173/389/98 162/391/98 158/392/98
f 171/393/99 172/394/99 159/395/99
f 171/393/99 159/395/99 163/396/99
f 174/397/100 175/398/100 167/399/100
f 174/397/100 167/399/100 166/400/100
f 175/401/101 176/402/101 168/403/101
f 175/401/101 168/403/101 167/404/101
f 176/405/102 177/406/102 169/407/102
f 176/405/102 169/407/102 168/408/102
f 177/409/103 174/410/103 166/411/103
f 177/409/103 166/411/103 169/412/103
f 171/413/104 170/414/104 166/415/104
f 171/413/104 166/415/104 167/416/104
f 172/417/105 171/418/105 167/419/105
f 172/417/105 167/419/105 168/420/105
f 173/421/106 172/422/106 168/423/106
f 173/421/106 168/423/106 169/424/106
f 170/425/107 173/426/107 169/427/107
f 170/425/107 169/427/107 166/428/107
f 175/429/108 174/430/108 164/431/108
f 175/429/108 164/431/108 165/432/108
f 176/433/109 175/434/109 165/435/109
f 176/433/109 165/435/109 161/436/109
f 177/437/110 176/438/110 161/439/110
f 177/437/110 161/439/110 160/440/110
f 174/441/111 177/442/111 160/443/111
f 174/441/111 160/443/111 164/444/111