# Made by Pabilo8 with Blockbench
# Exported with IIToolkit Plugin on 16/08/2026
mtllib flagpole.mtl

o upgrade_unit_post
v 0.0195 -0.1875 0.2216
v -0.7305 -0.1875 0.2216
v 0.0195 -1.0625 0.2216
v -0.7305 -1.0625 0.2216
v 0.0194 -0.1875 1.2216
v -0.7305 -0.1875 1.2216
v 0.0194 -1.0625 1.2216
v -0.7305 -1.0625 1.2216
v 0.5194 -1 2.0028
v 0.5194 -0.25 2.0028
v 0.1444 -0.25 2.0028
v 0.5194 -0.25 2.7528
v 0.1444 -0.25 2.7528
v 0.1444 -1 2.0028
v 0.1444 -1 2.7528
v 0.5194 -1 2.7528
v 0.9569 -0.25 2.0028
v 0.5819 -0.25 2.0028
v 0.9569 -0.25 2.7528
v 0.5819 -0.25 2.7528
v 0.5819 -1 2.0028
v 0.5819 -1 2.7528
v 0.9569 -1 2.0028
v 0.9569 -1 2.7528
v 1.5504 -0.1875 1.3094
v 1.5722 -0.1875 1.0604
v 1.7372 -0.4375 1.3257
v 1.759 -0.4375 1.0767
v 1.0523 -0.1875 1.2658
v 1.0741 -0.1875 1.0168
v 1.0523 -0.4375 1.2658
v 1.0741 -0.4375 1.0168
v 1.4313 -0.0625 1.2362
v 1.4422 -0.0625 1.1117
v 1.4936 -0.125 1.2417
v 1.5045 -0.125 1.1172
v 1.1823 -0.0625 1.2145
v 1.1932 -0.0625 1.0899
v 1.12 -0.125 1.209
v 1.1309 -0.125 1.0845
v 1.7372 -0.4375 1.3257
v 1.759 -0.4375 1.0767
v 1.7372 -1 1.3257
v 1.759 -1 1.0767
v 1.0523 -0.4375 1.2658
v 1.0741 -0.4375 1.0168
v 1.0523 -1 1.2658
v 1.0741 -1 1.0168
v 1.1823 -0.125 1.2145
v 1.1932 -0.125 1.0899
v 1.1823 -0.1875 1.2145
v 1.1932 -0.1875 1.0899
v 1.12 -0.125 1.209
v 1.1309 -0.125 1.0845
v 1.12 -0.1875 1.209
v 1.1309 -0.1875 1.0845
v 1.4936 -0.125 1.2417
v 1.5045 -0.125 1.1172
v 1.4936 -0.1875 1.2417
v 1.5045 -0.1875 1.1172
v 1.4313 -0.125 1.2362
v 1.4422 -0.125 1.1117
v 1.4313 -0.1875 1.2362
v 1.4422 -0.1875 1.1117
v 1.6468 -0.2048 1.2551
v 1.6577 -0.2048 1.1306
v 1.7226 -0.3039 1.2617
v 1.7335 -0.3039 1.1372
v 1.5974 -0.2428 1.2508
v 1.6083 -0.2428 1.1263
v 1.6732 -0.342 1.2574
v 1.6841 -0.342 1.1329
v 0.3945 0.125 0.3466
v 0.0195 0.125 0.3466
v 0.3945 -0.125 0.3466
v 0.0195 -0.125 0.3466
v 0.3945 0.125 0.7841
v 0.0195 0.125 0.7841
v 0.3945 -0.125 0.7841
v 0.0195 -0.125 0.7841
v 0.332 0.3125 0.4091
v 0.207 0.3125 0.4091
v 0.332 0.125 0.4091
v 0.207 0.125 0.4091
v 0.332 0.3125 0.5341
v 0.207 0.3125 0.5341
v 0.332 0.125 0.5341
v 0.207 0.125 0.5341
v 0.9948 -0.172 1.4093
v 0.7619 -0.2047 1.494
v 0.9613 -0.4199 1.2219
v 0.7284 -0.4525 1.3067
v 1.1658 -0.172 1.8791
v 0.9329 -0.2047 1.9639
v 1.1965 -0.4199 1.8679
v 0.9635 -0.4525 1.9527
v 0.964 -0.0562 1.5535
v 0.8475 -0.0726 1.5959
v 0.9503 -0.1182 1.492
v 0.8338 -0.1345 1.5344
v 1.0495 -0.0562 1.7884
v 0.933 -0.0726 1.8308
v 1.0785 -0.1182 1.8444
v 0.9621 -0.1345 1.8867
v 0.9613 -0.4199 1.2219
v 0.7284 -0.4525 1.3067
v 1.0303 -0.9776 1.1968
v 0.7974 -1.0102 1.2816
v 1.1965 -0.4199 1.8679
v 0.9635 -0.4525 1.9527
v 1.2654 -0.9776 1.8428
v 1.0325 -1.0102 1.9276
v 1.0571 -0.1182 1.7856
v 0.9407 -0.1345 1.828
v 1.0648 -0.1802 1.7828
v 0.9483 -0.1965 1.8252
v 1.0785 -0.1182 1.8444
v 0.9621 -0.1345 1.8867
v 1.0862 -0.1802 1.8416
v 0.9697 -0.1965 1.884
v 0.9503 -0.1182 1.492
v 0.8338 -0.1345 1.5344
v 0.9579 -0.1802 1.4892
v 0.8415 -0.1965 1.5316
v 0.9716 -0.1182 1.5507
v 0.8552 -0.1345 1.5931
v 0.9793 -0.1802 1.5479
v 0.8628 -0.1965 1.5903
v 0.9074 -0.1973 1.3439
v 0.791 -0.2136 1.3863
v 0.8936 -0.2956 1.2679
v 0.7771 -0.3119 1.3103
v 0.9291 -0.235 1.3888
v 0.8126 -0.2513 1.4312
v 0.9152 -0.3333 1.3128
v 0.7987 -0.3497 1.3552
v 1.3081 -0.1517 1.483
v 1.1628 -0.2261 1.6724
v 1.2002 -0.3869 1.3078
v 1.0549 -0.4613 1.4972
v 1.7064 -0.1608 1.785
v 1.5612 -0.2352 1.9744
v 1.7479 -0.3994 1.7231
v 1.6027 -0.4738 1.9125
v 1.3506 -0.0533 1.6368
v 1.2779 -0.0905 1.7315
v 1.3112 -0.1118 1.5836
v 1.2385 -0.149 1.6783
v 1.5498 -0.0578 1.7878
v 1.4771 -0.095 1.8825
v 1.6099 -0.1186 1.8101
v 1.5373 -0.1558 1.9048
v 1.2002 -0.3869 1.3078
v 1.0549 -0.4613 1.4972
v 1.2936 -0.9238 1.1684
v 1.1483 -0.9982 1.3578
v 1.7479 -0.3994 1.7231
v 1.6027 -0.4738 1.9125
v 1.8414 -0.9363 1.5838
v 1.6961 -1.0107 1.7731
v 1.5601 -0.1175 1.7724
v 1.4875 -0.1547 1.867
v 1.5705 -0.1771 1.7569
v 1.4979 -0.2143 1.8516
v 1.6099 -0.1186 1.8101
v 1.5373 -0.1558 1.9048
v 1.6203 -0.1782 1.7946
v 1.5477 -0.2155 1.8893
v 1.3112 -0.1118 1.5836
v 1.2385 -0.149 1.6783
v 1.3215 -0.1714 1.5681
v 1.2489 -0.2086 1.6628
v 1.361 -0.1129 1.6213
v 1.2883 -0.1501 1.716
v 1.3713 -0.1726 1.6059
v 1.2987 -0.2098 1.7005
v 1.2019 -0.1851 1.4709
v 1.1292 -0.2223 1.5656
v 1.1577 -0.2784 1.4004
v 1.0851 -0.3156 1.495
v 1.2477 -0.2223 1.4914
v 1.1751 -0.2595 1.5861
v 1.2035 -0.3156 1.4209
v 1.1309 -0.3528 1.5156
v 0.207 0.125 0.3466
v 0.207 0.125 0.7841
v 0.207 -0.125 0.7841
v 0.207 -0.125 0.3466
v 0.207 0.125 0.4924
v 0.3945 0.125 0.4924
v 0.3945 -0.125 0.4924
v 0.207 -0.125 0.4924
v 0.0195 -0.125 0.4924
v 0.0195 0.125 0.4924
v 0.0194 -0.8125 1.5966
v 0.2069 0 1.7841
v 0.2069 -0.1875 1.7841
v 0.2069 0 2.4091
v 0.2069 -0.1875 2.4091
v 0.0194 0 1.7841
v 0.0194 -0.1875 1.7841
v 0.0194 0 2.4091
v 0.0194 -0.1875 2.4091
v 0.2069 0 2.4091
v 0.2069 -0.1875 2.4091
v 0.8319 0 2.4091
v 0.8319 -0.1875 2.4091
v 0.2069 0 2.5966
v 0.2069 -0.1875 2.5966
v 0.8319 0 2.5966
v 0.8319 -0.1875 2.5966
v 0.0194 -0.0625 1.5966
v 0.0194 0 1.7841
v 0.0194 -0.1875 1.5966
v 0.0194 -0.1875 1.7841
v 0.2069 -0.0625 1.5966
v 0.2069 0 1.7841
v 0.2069 -0.1875 1.5966
v 0.2069 -0.1875 1.7841
v 0.2069 -0.1875 1.7841
v 0.2069 -0.1875 1.5966
v 0.2069 -0.8125 1.7841
v 0.2069 -0.8125 1.5966
v 0.0194 -0.1875 1.7841
v 0.0194 -0.1875 1.5966
v 0.0194 -0.8125 1.7841
v 0.0194 -0.8125 1.5966
v 0.2069 -0.8125 0.9716
v 0.2069 -1 0.9716
v 0.2069 -0.8125 1.5966
v 0.2069 -1 1.5966
v 0.0194 -0.8125 0.9716
v 0.0194 -1 0.9716
v 0.0194 -1 1.5966
v 0.0194 -1 1.7216
v 0.0194 -0.8125 1.7841
v 0.0194 -1 1.5966
v 0.0194 -0.8125 1.5966
v 0.2069 -1 1.7216
v 0.2069 -0.8125 1.7841
v 0.2069 -1 1.5966
v 0.2069 -0.8125 1.5966
v 0.0819 0 2.5966
v 0.0194 0 2.4091
v 0.2069 0 2.5966
v 0.2069 0 2.4091
v 0.0819 -0.1875 2.5966
v 0.0194 -0.1875 2.4091
v 0.2069 -0.1875 2.5966
v 0.0195 -1 0.8466
v 0.0195 -0.8125 0.7841
v 0.0194 -1 0.9716
v 0.0194 -0.8125 0.9716
v 0.207 -1 0.8466
v 0.207 -0.8125 0.7841
v 0.2069 -1 0.9716
v 0.2069 -0.8125 0.9716
v 0.2069 -0.0625 0.9716
v 0.207 -0.0625 0.7841
v 0.2069 -0.8125 0.9716
v 0.207 -0.8125 0.7841
v 0.0194 -0.0625 0.9716
v 0.0195 -0.0625 0.7841
v 0.0194 -0.8125 0.9716
v 0.0195 -0.8125 0.7841
v 0.2069 0.0625 0.9716
v 0.207 0.125 0.7841
v 0.2069 -0.0625 0.9716
v 0.207 -0.0625 0.7841
v 0.0194 0.0625 0.9716
v 0.0195 0.125 0.7841
v 0.0194 -0.0625 0.9716
v 0.0195 -0.0625 0.7841
v 0.3007 1.6875 0.4403
v 0.2382 1.6875 0.4403
v 0.3007 0.3125 0.4403
v 0.2382 0.3125 0.4403
v 0.3007 1.6875 0.5028
v 0.2382 1.6875 0.5028
v 0.3007 0.3125 0.5028
v 0.2382 0.3125 0.5028
v 0.7748 -0.125 0.2451
v 0.033 -0.125 0.3559
v 0.7748 -0.4375 0.2451
v 0.033 -0.4375 0.3559
v 0.8302 -0.125 0.6159
v 0.0884 -0.125 0.7268
v 0.8302 -0.4375 0.6159
v 0.0884 -0.4375 0.7268
v 1.2921 0.2358 2.2542
v 0.6964 0.1038 2.3895
v 1.3733 -0.1303 2.2542
v 0.7776 -0.2623 2.3895
v 1.3581 0.2505 2.5593
v 0.7624 0.1184 2.6946
v 1.4393 -0.1156 2.5593
v 0.8436 -0.2477 2.6946
vt 0.875 0.0625
vt 0.875 0.9375
vt 0.125 0.9375
vt 0.125 0.0625
vt 0.875 0.0625
vt 0.875 0.9375
vt 0.125 0.9375
vt 0.125 0.0625
vt 0 0
vt 0.75 0
vt 0.75 1
vt 0 1
vt 0 0
vt 0.8125 0
vt 0.8125 1
vt 0 1
vt 0.8281 0
vt 0.8281 0.1875
vt 0.7344 0.1875
vt 0.7344 0
vt 0.9375 0.4063
vt 0.9375 0.5
vt 0.75 0.5
vt 0.75 0.4063
vt 0.875 0
vt 0.875 0.1875
vt 0.6875 0.1875
vt 0.6875 0
vt 0.875 0
vt 0.875 0.1875
vt 0.6875 0.1875
vt 0.6875 0
vt 0.8281 0
vt 0.8281 0.1875
vt 0.7344 0.1875
vt 0.7344 0
vt 0.9375 0.4063
vt 0.9375 0.5
vt 0.75 0.5
vt 0.75 0.4063
vt 0.875 0
vt 0.875 0.1875
vt 0.6875 0.1875
vt 0.6875 0
vt 0.875 0
vt 0.875 0.1875
vt 0.6875 0.1875
vt 0.6875 0
vt 0.7656 0.1875
vt 0.8438 0.1875
vt 0.8438 0.25
vt 0.7656 0.25
vt 0.8125 0.25
vt 0.75 0.25
vt 0.75 0.1875
vt 0.8125 0.1875
vt 0.8125 0.1875
vt 0.8125 0.25
vt 0.6875 0.25
vt 0.6875 0.1875
vt 0.9219 0.3438
vt 0.875 0.4063
vt 0.75 0.4063
vt 0.75 0.3438
vt 0.9219 0.3438
vt 0.9219 0.4063
vt 0.7969 0.4063
vt 0.75 0.3438
vt 0.7188 0.2031
vt 0.7188 0.2188
vt 0.6875 0.2188
vt 0.6875 0.2031
vt 0.7188 0.2031
vt 0.7188 0.2188
vt 0.6875 0.2188
vt 0.6875 0.2031
vt 0.375 0.0156
vt 0.375 0.0469
vt 0.3125 0.0469
vt 0.3125 0.0156
vt 0.875 0.2813
vt 0.875 0.3125
vt 0.7813 0.3125
vt 0.7813 0.2813
vt 0.4063 0.0313
vt 0.3906 0.0469
vt 0.3281 0.0469
vt 0.3125 0.0313
vt 0.3906 0.0313
vt 0.375 0.0469
vt 0.3125 0.0469
vt 0.2969 0.0313
vt 0.6875 0.25
vt 0.8281 0.25
vt 0.8281 0.1875
vt 0.6875 0.1875
vt 0.6875 0.25
vt 0.8281 0.25
vt 0.8281 0.1875
vt 0.6875 0.1875
vt 0.25 0
vt 0.25 0.0625
vt 0.4219 0.0625
vt 0.4219 0
vt 0.9219 0.25
vt 0.9219 0.3906
vt 0.75 0.3906
vt 0.75 0.25
vt 0.9219 0.25
vt 0.9219 0.3906
vt 0.75 0.3906
vt 0.75 0.25
vt 0.8281 0.3125
vt 0.8281 0.3281
vt 0.7969 0.3281
vt 0.7969 0.3125
vt 0.875 0.3125
vt 0.875 0.3281
vt 0.8438 0.3281
vt 0.8438 0.3125
vt 0.8906 0.3125
vt 0.8906 0.3281
vt 0.875 0.3281
vt 0.875 0.3125
vt 0.8438 0.3125
vt 0.8438 0.3281
vt 0.8281 0.3281
vt 0.8281 0.3125
vt 0.8281 0.3125
vt 0.8281 0.3281
vt 0.7969 0.3281
vt 0.7969 0.3125
vt 0.875 0.3125
vt 0.875 0.3281
vt 0.8438 0.3281
vt 0.8438 0.3125
vt 0.8906 0.3125
vt 0.8906 0.3281
vt 0.875 0.3281
vt 0.875 0.3125
vt 0.8438 0.3125
vt 0.8438 0.3281
vt 0.8281 0.3281
vt 0.8281 0.3125
vt 0.8281 0.2813
vt 0.8281 0.3125
vt 0.7969 0.3125
vt 0.7969 0.2813
vt 0.8281 0.3438
vt 0.8281 0.3125
vt 0.8438 0.3125
vt 0.8438 0.3438
vt 0.8438 0.3125
vt 0.8438 0.3438
vt 0.8594 0.3438
vt 0.8594 0.3125
vt 0.8906 0.2813
vt 0.8906 0.3125
vt 0.875 0.3125
vt 0.875 0.2813
vt 0.8438 0.2813
vt 0.8438 0.3125
vt 0.8281 0.3125
vt 0.8281 0.2813
vt 0.375 0.0625
vt 0.3281 0.0625
vt 0.3281 0
vt 0.375 0
vt 0.3125 0
vt 0.3594 0
vt 0.3594 0.0625
vt 0.3125 0.0625
vt 0.75 0.2969
vt 0.8229 0.2969
vt 0.8229 0.25
vt 0.75 0.25
vt 1 0.6094
vt 1 0.6094
vt 1 0.6563
vt 1 0.6563
vt 0.2813 0
vt 0.3542 0
vt 0.3542 0.0625
vt 0.2813 0.0625
vt 0.3906 0.0625
vt 0.3177 0.0625
vt 0.3177 0
vt 0.3906 0
vt 0.9063 0.0938
vt 0.9063 0.1406
vt 0.875 0.1406
vt 0.875 0.0938
vt 0.9063 0.0938
vt 0.9063 0.1406
vt 0.875 0.1406
vt 0.875 0.0938
vt 0.9063 0.0938
vt 0.9063 0.125
vt 0.875 0.125
vt 0.875 0.0938
vt 0.9063 0.0938
vt 0.9063 0.1406
vt 0.875 0.1406
vt 0.875 0.0938
vt 0.9063 0.0938
vt 0.9063 0.1406
vt 0.875 0.1406
vt 0.875 0.0938
vt 0.7656 0.1875
vt 0.8438 0.1875
vt 0.8438 0.25
vt 0.7656 0.25
vt 0.8125 0.25
vt 0.75 0.25
vt 0.75 0.1875
vt 0.8125 0.1875
vt 0.8125 0.1875
vt 0.8125 0.25
vt 0.6875 0.25
vt 0.6875 0.1875
vt 0.9219 0.3438
vt 0.875 0.4063
vt 0.75 0.4063
vt 0.75 0.3438
vt 0.9219 0.3438
vt 0.9219 0.4063
vt 0.7969 0.4063
vt 0.75 0.3438
vt 0.7188 0.2031
vt 0.7188 0.2188
vt 0.6875 0.2188
vt 0.6875 0.2031
vt 0.7188 0.2031
vt 0.7188 0.2188
vt 0.6875 0.2188
vt 0.6875 0.2031
vt 0.375 0.0156
vt 0.375 0.0469
vt 0.3125 0.0469
vt 0.3125 0.0156
vt 0.875 0.2813
vt 0.875 0.3125
vt 0.7813 0.3125
vt 0.7813 0.2813
vt 0.4063 0.0313
vt 0.3906 0.0469
vt 0.3281 0.0469
vt 0.3125 0.0313
vt 0.3906 0.0313
vt 0.375 0.0469
vt 0.3125 0.0469
vt 0.2969 0.0313
vt 0.6875 0.25
vt 0.8281 0.25
vt 0.8281 0.1875
vt 0.6875 0.1875
vt 0.6875 0.25
vt 0.8281 0.25
vt 0.8281 0.1875
vt 0.6875 0.1875
vt 0.25 0
vt 0.25 0.0625
vt 0.4219 0.0625
vt 0.4219 0
vt 0.9219 0.25
vt 0.9219 0.3906
vt 0.75 0.3906
vt 0.75 0.25
vt 0.9219 0.25
vt 0.9219 0.3906
vt 0.75 0.3906
vt 0.75 0.25
vt 0.8281 0.3125
vt 0.8281 0.3281
vt 0.7969 0.3281
vt 0.7969 0.3125
vt 0.875 0.3125
vt 0.875 0.3281
vt 0.8438 0.3281
vt 0.8438 0.3125
vt 0.8906 0.3125
vt 0.8906 0.3281
vt 0.875 0.3281
vt 0.875 0.3125
vt 0.8438 0.3125
vt 0.8438 0.3281
vt 0.8281 0.3281
vt 0.8281 0.3125
vt 0.8281 0.3125
vt 0.8281 0.3281
vt 0.7969 0.3281
vt 0.7969 0.3125
vt 0.875 0.3125
vt 0.875 0.3281
vt 0.8438 0.3281
vt 0.8438 0.3125
vt 0.8906 0.3125
vt 0.8906 0.3281
vt 0.875 0.3281
vt 0.875 0.3125
vt 0.8438 0.3125
vt 0.8438 0.3281
vt 0.8281 0.3281
vt 0.8281 0.3125
vt 0.8281 0.2813
vt 0.8281 0.3125
vt 0.7969 0.3125
vt 0.7969 0.2813
vt 0.8281 0.3438
vt 0.8281 0.3125
vt 0.8438 0.3125
vt 0.8438 0.3438
vt 0.8438 0.3125
vt 0.8438 0.3438
vt 0.8594 0.3438
vt 0.8594 0.3125
vt 0.8906 0.2813
vt 0.8906 0.3125
vt 0.875 0.3125
vt 0.875 0.2813
vt 0.8438 0.2813
vt 0.8438 0.3125
vt 0.8281 0.3125
vt 0.8281 0.2813
vt 0.7656 0.1875
vt 0.8438 0.1875
vt 0.8438 0.25
vt 0.7656 0.25
vt 0.8125 0.25
vt 0.75 0.25
vt 0.75 0.1875
vt 0.8125 0.1875
vt 0.8125 0.1875
vt 0.8125 0.25
vt 0.6875 0.25
vt 0.6875 0.1875
vt 0.9219 0.3438
vt 0.875 0.4063
vt 0.75 0.4063
vt 0.75 0.3438
vt 0.9219 0.3438
vt 0.9219 0.4063
vt 0.7969 0.4063
vt 0.75 0.3438
vt 0.7188 0.2031
vt 0.7188 0.2188
vt 0.6875 0.2188
vt 0.6875 0.2031
vt 0.7188 0.2031
vt 0.7188 0.2188
vt 0.6875 0.2188
vt 0.6875 0.2031
vt 0.375 0.0156
vt 0.375 0.0469
vt 0.3125 0.0469
vt 0.3125 0.0156
vt 0.875 0.2813
vt 0.875 0.3125
vt 0.7813 0.3125
vt 0.7813 0.2813
vt 0.4063 0.0313
vt 0.3906 0.0469
vt 0.3281 0.0469
vt 0.3125 0.0313
vt 0.3906 0.0313
vt 0.375 0.0469
vt 0.3125 0.0469
vt 0.2969 0.0313
vt 0.6875 0.25
vt 0.8281 0.25
vt 0.8281 0.1875
vt 0.6875 0.1875
vt 0.6875 0.25
vt 0.8281 0.25
vt 0.8281 0.1875
vt 0.6875 0.1875
vt 0.25 0
vt 0.25 0.0625
vt 0.4219 0.0625
vt 0.4219 0
vt 0.9219 0.25
vt 0.9219 0.3906
vt 0.75 0.3906
vt 0.75 0.25
vt 0.9219 0.25
vt 0.9219 0.3906
vt 0.75 0.3906
vt 0.75 0.25
vt 0.8281 0.3125
vt 0.8281 0.3281
vt 0.7969 0.3281
vt 0.7969 0.3125
vt 0.875 0.3125
vt 0.875 0.3281
vt 0.8438 0.3281
vt 0.8438 0.3125
vt 0.8906 0.3125
vt 0.8906 0.3281
vt 0.875 0.3281
vt 0.875 0.3125
vt 0.8438 0.3125
vt 0.8438 0.3281
vt 0.8281 0.3281
vt 0.8281 0.3125
vt 0.8281 0.3125
vt 0.8281 0.3281
vt 0.7969 0.3281
vt 0.7969 0.3125
vt 0.875 0.3125
vt 0.875 0.3281
vt 0.8438 0.3281
vt 0.8438 0.3125
vt 0.8906 0.3125
vt 0.8906 0.3281
vt 0.875 0.3281
vt 0.875 0.3125
vt 0.8438 0.3125
vt 0.8438 0.3281
vt 0.8281 0.3281
vt 0.8281 0.3125
vt 0.8281 0.2813
vt 0.8281 0.3125
vt 0.7969 0.3125
vt 0.7969 0.2813
vt 0.8281 0.3438
vt 0.8281 0.3125
vt 0.8438 0.3125
vt 0.8438 0.3438
vt 0.8438 0.3125
vt 0.8438 0.3438
vt 0.8594 0.3438
vt 0.8594 0.3125
vt 0.8906 0.2813
vt 0.8906 0.3125
vt 0.875 0.3125
vt 0.875 0.2813
vt 0.8438 0.2813
vt 0.8438 0.3125
vt 0.8281 0.3125
vt 0.8281 0.2813
vt 0.75 0.25
vt 0.8229 0.25
vt 0.8229 0.2969
vt 0.75 0.2969
vt 0.4063 0.0625
vt 0.3594 0.0625
vt 0.3594 0
vt 0.4063 0
vt 1 0.6563
vt 1 0.6563
vt 1 0.7031
vt 1 0.7031
vt 0.2813 0
vt 0.3281 0
vt 0.3281 0.0625
vt 0.2813 0.0625
vt 0.75 0.2969
vt 0.7813 0.2969
vt 0.7813 0.25
vt 0.75 0.25
vt 0.3906 0.0625
vt 0.3542 0.0625
vt 0.3542 0
vt 0.3906 0
vt 1 0.7031
vt 1 0.7031
vt 1 0.6563
vt 1 0.6563
vt 1 0.6563
vt 1 0.6563
vt 1 0.6094
vt 1 0.6094
vt 0.2813 0
vt 0.3177 0
vt 0.3177 0.0625
vt 0.2813 0.0625
vt 0.75 0.25
vt 0.7813 0.25
vt 0.7813 0.2969
vt 0.75 0.2969
vt 0.5 0.125
vt 0.5 0.75
vt 0.3125 0.75
vt 0.3125 0.125
vt 0.5 0.125
vt 0.5 0.75
vt 0.3125 0.75
vt 0.3125 0.125
vt 0.5 0.125
vt 0.5 0.75
vt 0.3125 0.75
vt 0.3125 0.125
vt 0.5 0.125
vt 0.5 0.75
vt 0.3125 0.75
vt 0.3125 0.125
vt 0.5 0.125
vt 0.5 0.75
vt 0.3125 0.75
vt 0.3125 0.125
vt 0.5 0.125
vt 0.5 0.75
vt 0.3125 0.75
vt 0.3125 0.125
vt 0.5 0.125
vt 0.5 0.75
vt 0.3125 0.75
vt 0.3125 0.125
vt 1 0.125
vt 1 0.3125
vt 0.8125 0.3125
vt 0.8125 0.125
vt 0.8125 0.125
vt 0.8125 0.3125
vt 1 0.3125
vt 1 0.125
vt 0.5 0.8125
vt 0.5 1
vt 0.3125 1
vt 0.3125 0.8125
vt 0.5 0.75
vt 0.5 0.875
vt 0.3125 0.875
vt 0.3125 0.75
vt 0.5 0.125
vt 0.5 0.75
vt 0.3125 0.75
vt 0.3125 0.125
vt 0.5 0.125
vt 0.5 0.75
vt 0.3125 0.75
vt 0.3125 0.125
vt 0.5 0.125
vt 0.5 0.75
vt 0.3125 0.75
vt 0.3125 0.125
vt 0.5 0.125
vt 0.5 0.75
vt 0.3125 0.75
vt 0.3125 0.125
vt 0.5 0.125
vt 0.5 0.75
vt 0.3125 0.75
vt 0.3125 0.125
vt 0.5 0.125
vt 0.5 0.75
vt 0.3125 0.75
vt 0.3125 0.125
vt 0.5 0.125
vt 0.5 0.75
vt 0.3125 0.75
vt 0.3125 0.125
vt 0.8125 0.3125
vt 1 0.3125
vt 1 0.125
vt 0.8125 0.125
vt 1 0.3125
vt 0.8125 0.3125
vt 0.8125 0.125
vt 1 0.125
vt 0.3125 1
vt 0.5 1
vt 0.5 0.8125
vt 0.3125 0.8125
vt 1 0.125
vt 1 0.3125
vt 0.8125 0.3125
vt 0.8125 0.125
vt 0.5 0.8125
vt 0.5 1
vt 0.3125 1
vt 0.3125 0.8125
vt 0.5 0.75
vt 0.5 0.875
vt 0.3125 0.875
vt 0.3125 0.75
vt 1 0.125
vt 1 0.3125
vt 0.8125 0.3125
vt 0.8125 0.125
vt 0.8125 0.125
vt 0.8125 0.3125
vt 1 0.3125
vt 1 0.125
vt 0.5 0.8125
vt 0.5 1
vt 0.3125 1
vt 0.3125 0.8125
vt 0.5 0.0625
vt 0.5 0.8125
vt 0.3125 0.8125
vt 0.3125 0.0625
vt 0.5 0.0625
vt 0.5 0.8125
vt 0.3125 0.8125
vt 0.3125 0.0625
vt 0.5 0.0625
vt 0.5 0.8125
vt 0.3125 0.8125
vt 0.3125 0.0625
vt 0.5 0.0625
vt 0.5 0.8125
vt 0.3125 0.8125
vt 0.3125 0.0625
vt 1 0.125
vt 1 0.3125
vt 0.8125 0.3125
vt 0.8125 0.125
vt 0.8125 0.125
vt 0.8125 0.3125
vt 1 0.3125
vt 1 0.125
vt 0.5 0.8125
vt 0.5 1
vt 0.3125 1
vt 0.3125 0.8125
vt 0.5 0.75
vt 0.5 0.875
vt 0.3125 0.875
vt 0.3125 0.75
vt 0.7188 0.4219
vt 0.7188 0.7656
vt 0.7031 0.7656
vt 0.7031 0.4219
vt 0.7188 0.4219
vt 0.7188 0.7656
vt 0.7031 0.7656
vt 0.7031 0.4219
vt 0.1719 0.4844
vt 0.1719 0.5
vt 0.1563 0.5
vt 0.1563 0.4844
vt 0.7188 0.4219
vt 0.7188 0.7656
vt 0.7031 0.7656
vt 0.7031 0.4219
vt 0.7188 0.4219
vt 0.7188 0.7656
vt 0.7031 0.7656
vt 0.7031 0.4219
vt 0.9063 0.8125
vt 0.9844 0.8125
vt 0.9844 1
vt 0.9063 1
vt 0.9063 0.8125
vt 0.9844 0.8125
vt 0.9844 1
vt 0.9063 1
vt 0.9063 0.8125
vt 0.9063 1
vt 0.8125 1
vt 0.8125 0.8125
vt 0.9063 0.8125
vt 0.9063 1
vt 0.8125 1
vt 0.8125 0.8125
vt 0.9063 0.7344
vt 0.9063 0.8125
vt 0.8125 0.8125
vt 0.8125 0.7344
vt 0.9063 0.7344
vt 0.9063 0.8125
vt 0.8125 0.8125
vt 0.8125 0.7344
vt 0.9219 0.25
vt 0.9219 0.3438
vt 0.7656 0.3438
vt 0.7656 0.25
vt 0.7656 0.3438
vt 0.7656 0.25
vt 0.9219 0.25
vt 0.9219 0.3438
vt 0.7656 0.3281
vt 0.9219 0.3281
vt 0.9219 0.25
vt 0.7656 0.25
vt 0.0469 0.9688
vt 0.0469 1
vt 0.125 1
vt 0.125 0.9688
vt 0.8281 0.25
vt 0.8281 0.3438
vt 0.75 0.3438
vt 0.75 0.25
vt 0.8438 0.3438
vt 0.8438 0.25
vt 0.9219 0.25
vt 0.9219 0.3438
vn 0 0 -1
vn 0 0 1
vn 0 1 0
vn 1 0 0
vn 0 0 -1
vn 0 1 0
vn 1 0 0
vn -1 0 0
vn 0 0 -1
vn 0 1 0
vn 1 0 0
vn -1 0 0
vn 0.8 0.6 0.07
vn -1 0 -0.09
vn 0 1 0
vn -0.09 0 1
vn 0.09 0 -1
vn 0.7 0.71 0.06
vn -0.7 0.71 -0.06
vn 0 1 0
vn 0 -1 0
vn -0.09 0 1
vn 0.09 0 -1
vn 1 0 0.09
vn -1 0 -0.09
vn 0 -1 0
vn -0.09 0 1
vn 0.09 0 -1
vn 1 0 0.09
vn -1 0 -0.09
vn -0.09 0 1
vn 0.09 0 -1
vn 1 0 0.09
vn -1 0 -0.09
vn -0.09 0 1
vn 0.09 0 -1
vn 0.79 0.61 0.07
vn -0.61 0.79 -0.05
vn 0.61 -0.79 0.05
vn -0.09 0 1
vn 0.09 0 -1
vn 0 0 -1
vn 0 0 1
vn 0 1 0
vn 0 -1 0
vn 1 0 0
vn -1 0 0
vn 0 0 -1
vn 0 0 1
vn 0 1 0
vn 1 0 0
vn -1 0 0
vn -0.35 0.59 -0.72
vn 0.34 0 0.94
vn -0.12 0.99 0.04
vn 0.93 0.13 -0.34
vn -0.93 -0.13 0.34
vn -0.33 0.7 -0.63
vn 0.16 0.7 0.7
vn -0.12 0.99 0.04
vn 0.12 -0.99 -0.04
vn 0.93 0.13 -0.34
vn -0.93 -0.13 0.34
vn -0.34 0 -0.94
vn 0.34 0 0.94
vn 0.12 -0.99 -0.04
vn 0.93 0.13 -0.34
vn -0.93 -0.13 0.34
vn -0.34 0 -0.94
vn 0.34 0 0.94
vn 0.93 0.13 -0.34
vn -0.93 -0.13 0.34
vn -0.34 0 -0.94
vn 0.34 0 0.94
vn 0.93 0.13 -0.34
vn -0.93 -0.13 0.34
vn -0.35 0.6 -0.72
vn 0.11 0.79 0.61
vn -0.11 -0.79 -0.61
vn 0.93 0.13 -0.34
vn -0.93 -0.13 0.34
vn -0.74 0.59 -0.33
vn 0.8 -0.02 0.6
vn -0.17 0.95 0.25
vn 0.58 0.3 -0.76
vn -0.58 -0.3 0.76
vn -0.68 0.69 -0.25
vn 0.45 0.66 0.6
vn -0.17 0.95 0.25
vn 0.17 -0.95 -0.25
vn 0.58 0.3 -0.76
vn -0.58 -0.3 0.76
vn -0.8 0.02 -0.6
vn 0.8 -0.02 0.6
vn 0.17 -0.95 -0.25
vn 0.58 0.3 -0.76
vn -0.58 -0.3 0.76
vn -0.8 0.02 -0.6
vn 0.8 -0.02 0.6
vn 0.58 0.3 -0.76
vn -0.58 -0.3 0.76
vn -0.8 0.02 -0.6
vn 0.8 -0.02 0.6
vn 0.58 0.3 -0.76
vn -0.58 -0.3 0.76
vn -0.73 0.6 -0.33
vn 0.35 0.75 0.56
vn -0.35 -0.75 -0.56
vn 0.58 0.3 -0.76
vn -0.58 -0.3 0.76
vn 0 1 0
vn 0 0 1
vn 0 -1 0
vn 0 0 -1
vn 0 1 0
vn 1 0 0
vn 0 -1 0
vn 0 -1 0
vn -1 0 0
vn 0 1 0
vn 1 0 0
vn -1 0 0
vn 0 1 0
vn 0 -1 0
vn 0 0 -1
vn 0 0 1
vn 0 1 0
vn -1 0 0
vn 1 0 0
vn 0 0.95 -0.32
vn 0 0 -1
vn 1 0 0
vn -1 0 0
vn 0 0 1
vn 0 0 -1
vn 1 0 0
vn -1 0 0
vn 0 1 0
vn -1 0 0
vn 1 0 0
vn 0 -0.32 0.95
vn 0 1 0
vn -0.95 0 0.32
vn 0 0 1
vn -1 0 0
vn 1 0 0
vn 0 -0.32 -0.95
vn 1 0 0
vn -1 0 0
vn 0 0 1
vn 0 0 -1
vn 1 0 0
vn -1 0 0
vn 0 0.95 0.32
vn 0 0 1
vn 0 0 -1
vn 0 0 1
vn 0 1 0
vn 1 0 0
vn -1 0 0
vn -0.15 0 -0.99
vn 0.15 0 0.99
vn 0 1 0
vn 0 -1 0
vn 0.99 0 -0.15
vn -0.99 0 0.15
vn -0.21 -0.05 -0.98
vn 0.21 0.05 0.98
vn -0.22 0.98 0
vn 0.22 -0.98 0
vn 0.95 0.21 -0.22
vn -0.95 -0.21 0.22
usemtl metal_device0_barrel_up_none
f 4/1/1 2/2/1 1/3/1
f 4/1/1 1/3/1 3/4/1
f 7/5/2 5/6/2 6/7/2
f 7/5/2 6/7/2 8/8/2
usemtl metal_device0_barrel_side
f 1/9/3 2/10/3 6/11/3
f 1/9/3 6/11/3 5/12/3
f 3/13/4 1/14/4 5/15/4
f 3/13/4 5/15/4 7/16/4
usemtl flagpole
f 14/17/5 11/18/5 10/19/5
f 14/17/5 10/19/5 9/20/5
f 10/21/6 11/22/6 13/23/6
f 10/21/6 13/23/6 12/24/6
f 9/25/7 10/26/7 12/27/7
f 9/25/7 12/27/7 16/28/7
f 15/29/8 13/30/8 11/31/8
f 15/29/8 11/31/8 14/32/8
f 21/33/9 18/34/9 17/35/9
f 21/33/9 17/35/9 23/36/9
f 17/37/10 18/38/10 20/39/10
f 17/37/10 20/39/10 19/40/10
f 23/41/11 17/42/11 19/43/11
f 23/41/11 19/43/11 24/44/11
f 22/45/12 20/46/12 18/47/12
f 22/45/12 18/47/12 21/48/12
f 28/49/13 26/50/13 25/51/13
f 28/49/13 25/51/13 27/52/13
f 31/53/14 29/54/14 30/55/14
f 31/53/14 30/55/14 32/56/14
f 25/57/15 26/58/15 30/59/15
f 25/57/15 30/59/15 29/60/15
f 27/61/16 25/62/16 29/63/16
f 27/61/16 29/63/16 31/64/16
f 32/65/17 30/66/17 26/67/17
f 32/65/17 26/67/17 28/68/17
f 36/69/18 34/70/18 33/71/18
f 36/69/18 33/71/18 35/72/18
f 39/73/19 37/74/19 38/75/19
f 39/73/19 38/75/19 40/76/19
f 33/77/20 34/78/20 38/79/20
f 33/77/20 38/79/20 37/80/20
f 36/81/21 35/82/21 39/83/21
f 36/81/21 39/83/21 40/84/21
f 35/85/22 33/86/22 37/87/22
f 35/85/22 37/87/22 39/88/22
f 40/89/23 38/90/23 34/91/23
f 40/89/23 34/91/23 36/92/23
f 44/93/24 42/94/24 41/95/24
f 44/93/24 41/95/24 43/96/24
f 47/97/25 45/98/25 46/99/25
f 47/97/25 46/99/25 48/100/25
f 44/101/26 43/102/26 47/103/26
f 44/101/26 47/103/26 48/104/26
f 43/105/27 41/106/27 45/107/27
f 43/105/27 45/107/27 47/108/27
f 48/109/28 46/110/28 42/111/28
f 48/109/28 42/111/28 44/112/28
f 52/113/29 50/114/29 49/115/29
f 52/113/29 49/115/29 51/116/29
f 55/117/30 53/118/30 54/119/30
f 55/117/30 54/119/30 56/120/30
f 51/121/31 49/122/31 53/123/31
f 51/121/31 53/123/31 55/124/31
f 56/125/32 54/126/32 50/127/32
f 56/125/32 50/127/32 52/128/32
f 60/129/33 58/130/33 57/131/33
f 60/129/33 57/131/33 59/132/33
f 63/133/34 61/134/34 62/135/34
f 63/133/34 62/135/34 64/136/34
f 59/137/35 57/138/35 61/139/35
f 59/137/35 61/139/35 63/140/35
f 64/141/36 62/142/36 58/143/36
f 64/141/36 58/143/36 60/144/36
f 68/145/37 66/146/37 65/147/37
f 68/145/37 65/147/37 67/148/37
f 65/149/38 66/150/38 70/151/38
f 65/149/38 70/151/38 69/152/38
f 68/153/39 67/154/39 71/155/39
f 68/153/39 71/155/39 72/156/39
f 67/157/40 65/158/40 69/159/40
f 67/157/40 69/159/40 71/160/40
f 72/161/41 70/162/41 66/163/41
f 72/161/41 66/163/41 68/164/41
f 74/165/42 185/166/42 188/167/42
f 74/165/42 188/167/42 76/168/42
f 80/169/43 187/170/43 186/171/43
f 80/169/43 186/171/43 78/172/43
f 186/173/44 189/174/44 194/175/44
f 186/173/44 194/175/44 78/176/44
f 80/177/45 193/178/45 192/179/45
f 80/177/45 192/179/45 187/180/45
f 79/181/46 191/182/46 190/183/46
f 79/181/46 190/183/46 77/184/46
f 78/185/47 194/186/47 193/187/47
f 78/185/47 193/187/47 80/188/47
usemtl common_steel
f 84/189/48 82/190/48 81/191/48
f 84/189/48 81/191/48 83/192/48
f 87/193/49 85/194/49 86/195/49
f 87/193/49 86/195/49 88/196/49
f 81/197/50 82/198/50 86/199/50
f 81/197/50 86/199/50 85/200/50
f 83/201/51 81/202/51 85/203/51
f 83/201/51 85/203/51 87/204/51
f 88/205/52 86/206/52 82/207/52
f 88/205/52 82/207/52 84/208/52
usemtl flagpole
f 92/209/53 90/210/53 89/211/53
f 92/209/53 89/211/53 91/212/53
f 95/213/54 93/214/54 94/215/54
f 95/213/54 94/215/54 96/216/54
f 89/217/55 90/218/55 94/219/55
f 89/217/55 94/219/55 93/220/55
f 91/221/56 89/222/56 93/223/56
f 91/221/56 93/223/56 95/224/56
f 96/225/57 94/226/57 90/227/57
f 96/225/57 90/227/57 92/228/57
f 100/229/58 98/230/58 97/231/58
f 100/229/58 97/231/58 99/232/58
f 103/233/59 101/234/59 102/235/59
f 103/233/59 102/235/59 104/236/59
f 97/237/60 98/238/60 102/239/60
f 97/237/60 102/239/60 101/240/60
f 100/241/61 99/242/61 103/243/61
f 100/241/61 103/243/61 104/244/61
f 99/245/62 97/246/62 101/247/62
f 99/245/62 101/247/62 103/248/62
f 104/249/63 102/250/63 98/251/63
f 104/249/63 98/251/63 100/252/63
f 108/253/64 106/254/64 105/255/64
f 108/253/64 105/255/64 107/256/64
f 111/257/65 109/258/65 110/259/65
f 111/257/65 110/259/65 112/260/65
f 108/261/66 107/262/66 111/263/66
f 108/261/66 111/263/66 112/264/66
f 107/265/67 105/266/67 109/267/67
f 107/265/67 109/267/67 111/268/67
f 112/269/68 110/270/68 106/271/68
f 112/269/68 106/271/68 108/272/68
f 116/273/69 114/274/69 113/275/69
f 116/273/69 113/275/69 115/276/69
f 119/277/70 117/278/70 118/279/70
f 119/277/70 118/279/70 120/280/70
f 115/281/71 113/282/71 117/283/71
f 115/281/71 117/283/71 119/284/71
f 120/285/72 118/286/72 114/287/72
f 120/285/72 114/287/72 116/288/72
f 124/289/73 122/290/73 121/291/73
f 124/289/73 121/291/73 123/292/73
f 127/293/74 125/294/74 126/295/74
f 127/293/74 126/295/74 128/296/74
f 123/297/75 121/298/75 125/299/75
f 123/297/75 125/299/75 127/300/75
f 128/301/76 126/302/76 122/303/76
f 128/301/76 122/303/76 124/304/76
f 132/305/77 130/306/77 129/307/77
f 132/305/77 129/307/77 131/308/77
f 129/309/78 130/310/78 134/311/78
f 129/309/78 134/311/78 133/312/78
f 132/313/79 131/314/79 135/315/79
f 132/313/79 135/315/79 136/316/79
f 131/317/80 129/318/80 133/319/80
f 131/317/80 133/319/80 135/320/80
f 136/321/81 134/322/81 130/323/81
f 136/321/81 130/323/81 132/324/81
f 140/325/82 138/326/82 137/327/82
f 140/325/82 137/327/82 139/328/82
f 143/329/83 141/330/83 142/331/83
f 143/329/83 142/331/83 144/332/83
f 137/333/84 138/334/84 142/335/84
f 137/333/84 142/335/84 141/336/84
f 139/337/85 137/338/85 141/339/85
f 139/337/85 141/339/85 143/340/85
f 144/341/86 142/342/86 138/343/86
f 144/341/86 138/343/86 140/344/86
f 148/345/87 146/346/87 145/347/87
f 148/345/87 145/347/87 147/348/87
f 151/349/88 149/350/88 150/351/88
f 151/349/88 150/351/88 152/352/88
f 145/353/89 146/354/89 150/355/89
f 145/353/89 150/355/89 149/356/89
f 148/357/90 147/358/90 151/359/90
f 148/357/90 151/359/90 152/360/90
f 147/361/91 145/362/91 149/363/91
f 147/361/91 149/363/91 151/364/91
f 152/365/92 150/366/92 146/367/92
f 152/365/92 146/367/92 148/368/92
f 156/369/93 154/370/93 153/371/93
f 156/369/93 153/371/93 155/372/93
f 159/373/94 157/374/94 158/375/94
f 159/373/94 158/375/94 160/376/94
f 156/377/95 155/378/95 159/379/95
f 156/377/95 159/379/95 160/380/95
f 155/381/96 153/382/96 157/383/96
f 155/381/96 157/383/96 159/384/96
f 160/385/97 158/386/97 154/387/97
f 160/385/97 154/387/97 156/388/97
f 164/389/98 162/390/98 161/391/98
f 164/389/98 161/391/98 163/392/98
f 167/393/99 165/394/99 166/395/99
f 167/393/99 166/395/99 168/396/99
f 163/397/100 161/398/100 165/399/100
f 163/397/100 165/399/100 167/400/100
f 168/401/101 166/402/101 162/403/101
f 168/401/101 162/403/101 164/404/101
f 172/405/102 170/406/102 169/407/102
f 172/405/102 169/407/102 171/408/102
f 175/409/103 173/410/103 174/411/103
f 175/409/103 174/411/103 176/412/103
f 171/413/104 169/414/104 173/415/104
f 171/413/104 173/415/104 175/416/104
f 176/417/105 174/418/105 170/419/105
f 176/417/105 170/419/105 172/420/105
f 180/421/106 178/422/106 177/423/106
f 180/421/106 177/423/106 179/424/106
f 177/425/107 178/426/107 182/427/107
f 177/425/107 182/427/107 181/428/107
f 180/429/108 179/430/108 183/431/108
f 180/429/108 183/431/108 184/432/108
f 179/433/109 177/434/109 181/435/109
f 179/433/109 181/435/109 183/436/109
f 184/437/110 182/438/110 178/439/110
f 184/437/110 178/439/110 180/440/110
f 77/441/111 190/442/111 189/443/111
f 77/441/111 189/443/111 186/444/111
f 77/445/112 186/446/112 187/447/112
f 77/445/112 187/447/112 79/448/112
f 187/449/113 192/450/113 191/451/113
f 187/449/113 191/451/113 79/452/113
f 75/453/114 188/454/114 185/455/114
f 75/453/114 185/455/114 73/456/114
f 185/457/115 189/458/115 190/459/115
f 185/457/115 190/459/115 73/460/115
f 73/461/116 190/462/116 191/463/116
f 73/461/116 191/463/116 75/464/116
f 75/465/117 191/466/117 192/467/117
f 75/465/117 192/467/117 188/468/117
f 188/469/118 192/470/118 193/471/118
f 188/469/118 193/471/118 76/472/118
f 76/473/119 193/474/119 194/475/119
f 76/473/119 194/475/119 74/476/119
f 74/477/120 194/478/120 189/479/120
f 74/477/120 189/479/120 185/480/120
usemtl common_copper_cable
f 199/481/121 197/482/121 196/483/121
f 199/481/121 196/483/121 198/484/121
f 202/485/122 200/486/122 201/487/122
f 202/485/122 201/487/122 203/488/122
f 198/489/123 196/490/123 200/491/123
f 198/489/123 200/491/123 202/492/123
f 203/493/124 201/494/124 197/495/124
f 203/493/124 197/495/124 199/496/124
f 207/497/125 205/498/125 204/499/125
f 207/497/125 204/499/125 206/500/125
f 210/501/126 208/502/126 209/503/126
f 210/501/126 209/503/126 211/504/126
f 206/505/127 204/506/127 208/507/127
f 206/505/127 208/507/127 210/508/127
f 215/509/128 213/510/128 212/511/128
f 215/509/128 212/511/128 214/512/128
f 218/513/129 216/514/129 217/515/129
f 218/513/129 217/515/129 219/516/129
f 212/517/130 213/518/130 217/519/130
f 212/517/130 217/519/130 216/520/130
f 214/521/131 212/522/131 216/523/131
f 214/521/131 216/523/131 218/524/131
f 223/525/132 221/526/132 220/527/132
f 223/525/132 220/527/132 222/528/132
f 226/529/133 224/530/133 225/531/133
f 226/529/133 225/531/133 227/532/133
f 222/533/134 220/534/134 224/535/134
f 222/533/134 224/535/134 226/536/134
f 227/537/135 225/538/135 221/539/135
f 227/537/135 221/539/135 223/540/135
f 231/541/136 229/542/136 228/543/136
f 231/541/136 228/543/136 230/544/136
f 195/545/137 232/546/137 233/547/137
f 195/545/137 233/547/137 234/548/137
f 230/549/138 228/550/138 232/551/138
f 230/549/138 232/551/138 195/552/138
f 235/553/139 236/554/139 238/555/139
f 235/553/139 238/555/139 237/556/139
f 240/557/140 239/558/140 241/559/140
f 240/557/140 241/559/140 242/560/140
f 240/561/141 236/562/141 235/563/141
f 240/561/141 235/563/141 239/564/141
f 246/565/142 244/566/142 243/567/142
f 246/565/142 243/567/142 245/568/142
f 243/569/143 244/570/143 248/571/143
f 243/569/143 248/571/143 247/572/143
f 245/573/144 243/574/144 247/575/144
f 245/573/144 247/575/144 249/576/144
f 253/577/145 251/578/145 250/579/145
f 253/577/145 250/579/145 252/580/145
f 256/581/146 254/582/146 255/583/146
f 256/581/146 255/583/146 257/584/146
f 250/585/147 251/586/147 255/587/147
f 250/585/147 255/587/147 254/588/147
f 261/589/148 259/590/148 258/591/148
f 261/589/148 258/591/148 260/592/148
f 264/593/149 262/594/149 263/595/149
f 264/593/149 263/595/149 265/596/149
f 260/597/150 258/598/150 262/599/150
f 260/597/150 262/599/150 264/600/150
f 265/601/151 263/602/151 259/603/151
f 265/601/151 259/603/151 261/604/151
f 269/605/152 267/606/152 266/607/152
f 269/605/152 266/607/152 268/608/152
f 272/609/153 270/610/153 271/611/153
f 272/609/153 271/611/153 273/612/153
f 266/613/154 267/614/154 271/615/154
f 266/613/154 271/615/154 270/616/154
f 268/617/155 266/618/155 270/619/155
f 268/617/155 270/619/155 272/620/155
usemtl common_steel
f 277/621/156 275/622/156 274/623/156
f 277/621/156 274/623/156 276/624/156
f 280/625/157 278/626/157 279/627/157
f 280/625/157 279/627/157 281/628/157
f 274/629/158 275/630/158 279/631/158
f 274/629/158 279/631/158 278/632/158
f 276/633/159 274/634/159 278/635/159
f 276/633/159 278/635/159 280/636/159
f 281/637/160 279/638/160 275/639/160
f 281/637/160 275/639/160 277/640/160
usemtl flagpole
f 285/641/161 283/642/161 282/643/161
f 285/641/161 282/643/161 284/644/161
f 288/645/162 286/646/162 287/647/162
f 288/645/162 287/647/162 289/648/162
f 282/649/163 283/650/163 287/651/163
f 282/649/163 287/651/163 286/652/163
f 285/653/164 284/654/164 288/655/164
f 285/653/164 288/655/164 289/656/164
f 284/657/165 282/658/165 286/659/165
f 284/657/165 286/659/165 288/660/165
f 289/661/166 287/662/166 283/663/166
f 289/661/166 283/663/166 285/664/166
f 293/665/167 291/666/167 290/667/167
f 293/665/167 290/667/167 292/668/167
f 296/669/168 294/670/168 295/671/168
f 296/669/168 295/671/168 297/672/168
f 290/673/169 291/674/169 295/675/169
f 290/673/169 295/675/169 294/676/169
f 293/677/170 292/678/170 296/679/170
f 293/677/170 296/679/170 297/680/170
f 292/681/171 290/682/171 294/683/171
f 292/681/171 294/683/171 296/684/171
f 297/685/172 295/686/172 291/687/172
f 297/685/172 291/687/172 293/688/172