# Made by Pabilo8 with Blockbench
# Exported with IIToolkit Plugin on 12/05/2026
mtllib flagpole.mtl

o upgrade_distress_signal
v 0.1875 5.6875 1
v 0.8125 5.6875 1
v 0.1875 5.0625 1
v 0.8125 5.0625 1
v 0.3125 5.5625 1.375
v 0.6875 5.5625 1.375
v 0.3125 5.1875 1.375
v 0.6875 5.1875 1.375
v 0.4375 5.4375 0.875
v 0.5625 5.4375 0.875
v 0.4375 5.3125 0.875
v 0.5625 5.3125 0.875
v 0.375 5.5 1
v 0.625 5.5 1
v 0.375 5.25 1
v 0.625 5.25 1
v 0.1875 5.6875 0.9375
v 0.25 5.6875 0.9375
v 0.1875 5.0625 0.9375
v 0.25 5.0625 0.9375
v 0.25 5.6875 1
v 0.25 5.0625 1
v 0.75 5.0625 0.9375
v 0.8125 5.0625 0.9375
v 0.75 5.6875 0.9375
v 0.8125 5.6875 0.9375
v 0.75 5.0625 1
v 0.75 5.6875 1
v 0.75 5.625 0.9375
v 0.25 5.625 0.9375
v 0.75 5.625 1
v 0.25 5.625 1
v 0.25 5.125 0.9375
v 0.75 5.125 0.9375
v 0.25 5.125 1
v 0.75 5.125 1
v 0.1875 5.6875 2
v 0.8125 5.6875 2
v 0.1875 5.0625 2
v 0.8125 5.0625 2
v 0.3125 5.5625 1.625
v 0.6875 5.5625 1.625
v 0.3125 5.1875 1.625
v 0.6875 5.1875 1.625
v 0.4375 5.4375 2.125
v 0.5625 5.4375 2.125
v 0.4375 5.3125 2.125
v 0.5625 5.3125 2.125
v 0.375 5.5 2
v 0.625 5.5 2
v 0.375 5.25 2
v 0.625 5.25 2
v 0.1875 5.6875 2.0625
v 0.25 5.6875 2.0625
v 0.1875 5.0625 2.0625
v 0.25 5.0625 2.0625
v 0.25 5.6875 2
v 0.25 5.0625 2
v 0.75 5.0625 2.0625
v 0.8125 5.0625 2.0625
v 0.75 5.6875 2.0625
v 0.8125 5.6875 2.0625
v 0.75 5.0625 2
v 0.75 5.6875 2
v 0.75 5.625 2.0625
v 0.25 5.625 2.0625
v 0.75 5.625 2
v 0.25 5.625 2
v 0.25 5.125 2.0625
v 0.75 5.125 2.0625
v 0.25 5.125 2
v 0.75 5.125 2
v 0.5625 5.625 1.5625
v 0.5625 5.625 1.4375
v 0.625 5.5625 1.625
v 0.625 5.5625 1.375
v 0.4375 5.625 1.5625
v 0.4375 5.625 1.4375
v 0.375 5.5625 1.625
v 0.375 5.5625 1.375
v 0.375 5.1875 1.625
v 0.375 5.1875 1.375
v 0.625 5.1875 1.375
v 0.625 5.1875 1.625
v 0.5 5.9375 1.5625
v 0.5 5.9375 1.5
v 0.5 5.875 1.5625
v 0.5 5.875 1.5
v 0.4375 5.9375 1.5625
v 0.4375 5.9375 1.5
v 0.4375 5.875 1.5625
v 0.4375 5.875 1.5
v 0.5 5.8125 1.5625
v 0.5 5.8125 1.5
v 0.5 5.625 1.5625
v 0.5 5.625 1.5
v 0.4375 5.8125 1.5625
v 0.4375 5.8125 1.5
v 0.4375 5.625 1.5
v 0.5625 5.8469 1.5625
v 0.5625 5.8469 1.5
v 0.375 5.8469 1.5625
v 0.375 5.8469 1.5
v 0.375 5.875 2.0625
v 0.375 5.875 1
v 0.375 5.8125 2.0625
v 0.375 5.8125 1
v 0.3125 5.875 2.0625
v 0.3125 5.875 1
v 0.3125 5.8125 2.0625
v 0.3125 5.8125 1
v 0.5 5.875 2.0625
v 0.5 5.875 1
v 0.5 5.8125 2.0625
v 0.5 5.8125 1
v 0.4375 5.875 2.0625
v 0.4375 5.875 1
v 0.4375 5.8125 2.0625
v 0.4375 5.8125 1
v 0.625 5.875 2.0625
v 0.625 5.875 1
v 0.625 5.8125 2.0625
v 0.625 5.8125 1
v 0.5625 5.875 2.0625
v 0.5625 5.875 1
v 0.5625 5.8125 2.0625
v 0.5625 5.8125 1
vt 0.625 0.375
vt 0.625 1
vt 0 1
vt 0 0.375
vt 1 0.375
vt 0.625 0.375
vt 0.625 0
vt 1 0
vt 0.625 1
vt 0.625 0.375
vt 1 0.5
vt 1 0.875
vt 1 0.5
vt 0.625 0.375
vt 0.625 1
vt 1 0.875
vt 1 0.875
vt 0.625 1
vt 0.625 0.375
vt 1 0.5
vt 0.625 0.375
vt 0.625 1
vt 1 0.875
vt 1 0.5
vt 0.25 0.125
vt 0.25 0.25
vt 0.125 0.25
vt 0.125 0.125
vt 0.125 0.25
vt 0.25 0.25
vt 0.3125 0.375
vt 0.0625 0.375
vt 0.3125 0
vt 0.25 0.125
vt 0.125 0.125
vt 0.0625 0
vt 0.375 0.3125
vt 0.25 0.25
vt 0.25 0.125
vt 0.375 0.0625
vt 0.125 0.125
vt 0.125 0.25
vt 0 0.3125
vt 0 0.0625
vt 0.625 0.9375
vt 0.6875 0.9375
vt 0.6875 0.3125
vt 0.625 0.3125
vt 0.6875 0.3125
vt 0.6875 0.25
vt 0.625 0.25
vt 0.625 0.3125
vt 0.625 1
vt 0.6875 1
vt 0.6875 0.9375
vt 0.625 0.9375
vt 0.625 0.9375
vt 0.6875 0.9375
vt 0.6875 0.3125
vt 0.625 0.3125
vt 0.625 0.9375
vt 0.6875 0.9375
vt 0.6875 0.3125
vt 0.625 0.3125
vt 0.6875 0.3125
vt 0.6875 0.9375
vt 0.625 0.9375
vt 0.625 0.3125
vt 0.6875 0.25
vt 0.6875 0.3125
vt 0.625 0.3125
vt 0.625 0.25
vt 0.6875 0.9375
vt 0.6875 1
vt 0.625 1
vt 0.625 0.9375
vt 0.6875 0.3125
vt 0.6875 0.9375
vt 0.625 0.9375
vt 0.625 0.3125
vt 0.6875 0.3125
vt 0.6875 0.9375
vt 0.625 0.9375
vt 0.625 0.3125
vt 0.75 1
vt 0.6875 1
vt 0.6875 0.5
vt 0.75 0.5
vt 0.75 0.5
vt 0.75 1
vt 0.6875 1
vt 0.6875 0.5
vt 0.75 1
vt 0.75 0.5
vt 0.6875 0.5
vt 0.6875 1
vt 0.6875 0.5
vt 0.6875 1
vt 0.75 1
vt 0.75 0.5
vt 0.6875 1
vt 0.75 1
vt 0.75 0.5
vt 0.6875 0.5
vt 0.6875 0.5
vt 0.75 0.5
vt 0.75 1
vt 0.6875 1
vt 0 1
vt 0.625 1
vt 0.625 0.375
vt 0 0.375
vt 0.625 0
vt 0.625 0.375
vt 1 0.375
vt 1 0
vt 1 0.5
vt 0.625 0.375
vt 0.625 1
vt 1 0.875
vt 0.625 1
vt 0.625 0.375
vt 1 0.5
vt 1 0.875
vt 0.625 0.375
vt 0.625 1
vt 1 0.875
vt 1 0.5
vt 1 0.875
vt 0.625 1
vt 0.625 0.375
vt 1 0.5
vt 0.125 0.25
vt 0.25 0.25
vt 0.25 0.125
vt 0.125 0.125
vt 0.3125 0.375
vt 0.25 0.25
vt 0.125 0.25
vt 0.0625 0.375
vt 0.125 0.125
vt 0.25 0.125
vt 0.3125 0
vt 0.0625 0
vt 0.25 0.125
vt 0.25 0.25
vt 0.375 0.3125
vt 0.375 0.0625
vt 0 0.3125
vt 0.125 0.25
vt 0.125 0.125
vt 0 0.0625
vt 0.6875 0.3125
vt 0.6875 0.9375
vt 0.625 0.9375
vt 0.625 0.3125
vt 0.625 0.25
vt 0.6875 0.25
vt 0.6875 0.3125
vt 0.625 0.3125
vt 0.6875 0.9375
vt 0.6875 1
vt 0.625 1
vt 0.625 0.9375
vt 0.6875 0.3125
vt 0.6875 0.9375
vt 0.625 0.9375
vt 0.625 0.3125
vt 0.6875 0.3125
vt 0.6875 0.9375
vt 0.625 0.9375
vt 0.625 0.3125
vt 0.625 0.9375
vt 0.6875 0.9375
vt 0.6875 0.3125
vt 0.625 0.3125
vt 0.625 0.3125
vt 0.6875 0.3125
vt 0.6875 0.25
vt 0.625 0.25
vt 0.625 1
vt 0.6875 1
vt 0.6875 0.9375
vt 0.625 0.9375
vt 0.625 0.9375
vt 0.6875 0.9375
vt 0.6875 0.3125
vt 0.625 0.3125
vt 0.625 0.9375
vt 0.6875 0.9375
vt 0.6875 0.3125
vt 0.625 0.3125
vt 0.6875 0.5
vt 0.6875 1
vt 0.75 1
vt 0.75 0.5
vt 0.6875 1
vt 0.75 1
vt 0.75 0.5
vt 0.6875 0.5
vt 0.6875 0.5
vt 0.75 0.5
vt 0.75 1
vt 0.6875 1
vt 0.75 1
vt 0.6875 1
vt 0.6875 0.5
vt 0.75 0.5
vt 0.75 0.5
vt 0.75 1
vt 0.6875 1
vt 0.6875 0.5
vt 0.75 1
vt 0.75 0.5
vt 0.6875 0.5
vt 0.6875 1
vt 0.25 0.25
vt 0.125 0.25
vt 0.0625 0.375
vt 0.3125 0.375
vt 0.3125 0
vt 0.25 0.125
vt 0.125 0.125
vt 0.0625 0
vt 0.125 0.125
vt 0.25 0.125
vt 0.25 0.25
vt 0.125 0.25
vt 0.375 0.3125
vt 0.25 0.25
vt 0.25 0.125
vt 0.375 0.0625
vt 0.125 0.25
vt 0.125 0.125
vt 0 0.0625
vt 0 0.3125
vt 1 1
vt 1 0.625
vt 0.75 0.625
vt 0.75 1
vt 0.75 1
vt 0.75 0.625
vt 1 0.625
vt 1 1
vt 1 1
vt 1 0.625
vt 0.75 0.625
vt 0.75 1
vt 0.75 1
vt 0.75 0.625
vt 1 0.625
vt 1 1
vt 0.8438 0.7813
vt 0.8438 0.8125
vt 0.8125 0.8125
vt 0.8125 0.7813
vt 0.8438 0.7813
vt 0.8438 0.8125
vt 0.8125 0.8125
vt 0.8125 0.7813
vt 0.8125 0.8125
vt 0.8125 0.7813
vt 0.8438 0.7813
vt 0.8438 0.8125
vt 0.8438 0.7813
vt 0.8438 0.8125
vt 0.8125 0.8125
vt 0.8125 0.7813
vt 0.8438 0.7813
vt 0.8438 0.8125
vt 0.8125 0.8125
vt 0.8125 0.7813
vt 0.8438 0.75
vt 0.8438 0.8438
vt 0.8125 0.8438
vt 0.8125 0.75
vt 0.8438 0.75
vt 0.8438 0.8438
vt 0.8125 0.8438
vt 0.8125 0.75
vt 0.8438 0.75
vt 0.8438 0.8438
vt 0.8125 0.8438
vt 0.8125 0.75
vt 0.8438 0.75
vt 0.8438 0.8438
vt 0.8125 0.8438
vt 0.8125 0.75
vt 0.625 0.7188
vt 0.625 0.75
vt 0.7188 0.75
vt 0.7188 0.7188
vt 1 0.1563
vt 1 0.1875
vt 0.4688 0.1875
vt 0.4688 0.1563
vt 1 0.1563
vt 1 0.1875
vt 0.4688 0.1875
vt 0.4688 0.1563
vt 1 0.1875
vt 0.4688 0.1875
vt 0.4688 0.1563
vt 1 0.1563
vt 1 0.1875
vt 0.4688 0.1875
vt 0.4688 0.1563
vt 1 0.1563
vt 1 0.1563
vt 1 0.1875
vt 0.9688 0.1875
vt 0.9688 0.1563
vt 0.5 0.1563
vt 0.5 0.1875
vt 0.4688 0.1875
vt 0.4688 0.1563
vt 1 0.2188
vt 1 0.25
vt 0.4688 0.25
vt 0.4688 0.2188
vt 1 0.2188
vt 1 0.25
vt 0.4688 0.25
vt 0.4688 0.2188
vt 1 0.25
vt 0.4688 0.25
vt 0.4688 0.2188
vt 1 0.2188
vt 1 0.25
vt 0.4688 0.25
vt 0.4688 0.2188
vt 1 0.2188
vt 1 0.2188
vt 1 0.25
vt 0.9688 0.25
vt 0.9688 0.2188
vt 0.5 0.2188
vt 0.5 0.25
vt 0.4688 0.25
vt 0.4688 0.2188
vt 1 0.1875
vt 1 0.2188
vt 0.4688 0.2188
vt 0.4688 0.1875
vt 1 0.1875
vt 1 0.2188
vt 0.4688 0.2188
vt 0.4688 0.1875
vt 1 0.2188
vt 0.4688 0.2188
vt 0.4688 0.1875
vt 1 0.1875
vt 1 0.2188
vt 0.4688 0.2188
vt 0.4688 0.1875
vt 1 0.1875
vt 1 0.1875
vt 1 0.2188
vt 0.9688 0.2188
vt 0.9688 0.1875
vt 0.5 0.1875
vt 0.5 0.2188
vt 0.4688 0.2188
vt 0.4688 0.1875
vn 0 0 -1
vn 0 0 1
vn 0 0.95 0.32
vn 0 -0.95 0.32
vn -0.95 0 0.32
vn 0.95 0 0.32
vn 0 0 -1
vn 0 0.89 -0.45
vn 0 -0.89 -0.45
vn -0.89 0 -0.45
vn 0.89 0 -0.45
vn 0 0 -1
vn 0 1 0
vn 0 -1 0
vn -1 0 0
vn 1 0 0
vn 0 0 -1
vn 0 -1 0
vn 0 1 0
vn -1 0 0
vn 1 0 0
vn 0 0 -1
vn 0 1 0
vn 0 -1 0
vn 0 0 -1
vn 0 1 0
vn 0 -1 0
vn 0 0 1
vn 0 0 -1
vn 0 0.95 -0.32
vn 0 -0.95 -0.32
vn -0.95 0 -0.32
vn 0.95 0 -0.32
vn 0 0 1
vn 0 0.89 0.45
vn 0 -0.89 0.45
vn -0.89 0 0.45
vn 0.89 0 0.45
vn 0 0 1
vn 0 1 0
vn 0 -1 0
vn -1 0 0
vn 1 0 0
vn 0 0 1
vn 0 -1 0
vn 0 1 0
vn -1 0 0
vn 1 0 0
vn 0 0 1
vn 0 1 0
vn 0 -1 0
vn 0 0 1
vn 0 1 0
vn 0 -1 0
vn 0.71 0.71 0
vn -0.71 0.71 0
vn 0 1 0
vn 0 0.71 0.71
vn 0 0.71 -0.71
vn 1 0 0
vn 0 0 -1
vn -1 0 0
vn 0 0 1
vn 1 0 0
vn -1 0 0
vn 0 1 0
vn 0 0 1
vn 0 0 -1
vn 1 0 0
vn -1 0 0
vn 0 0 1
vn 0 0 -1
vn 0 -1 0
vn 1 0 0
vn -1 0 0
vn 0 1 0
vn 0 -1 0
vn 0 0 1
vn 0 0 -1
vn 1 0 0
vn -1 0 0
vn 0 1 0
vn 0 -1 0
vn 0 0 1
vn 0 0 -1
vn 1 0 0
vn -1 0 0
vn 0 1 0
vn 0 -1 0
vn 0 0 1
vn 0 0 -1
usemtl alarm_siren2
f 3/1/1 1/2/1 2/3/1 4/4/1
f 6/5/2 5/6/2 7/7/2 8/8/2
f 2/9/3 1/10/3 5/11/3 6/12/3
f 7/13/4 3/14/4 4/15/4 8/16/4
f 5/17/5 1/18/5 3/19/5 7/20/5
f 4/21/6 2/22/6 6/23/6 8/24/6
f 11/25/7 9/26/7 10/27/7 12/28/7
f 10/29/8 9/30/8 13/31/8 14/32/8
f 15/33/9 11/34/9 12/35/9 16/36/9
f 13/37/10 9/38/10 11/39/10 15/40/10
f 12/41/11 10/42/11 14/43/11 16/44/11
f 17/45/12 18/46/12 20/47/12 19/48/12
f 21/49/13 18/50/13 17/51/13 1/52/13
f 3/53/14 19/54/14 20/55/14 22/56/14
f 1/57/15 17/58/15 19/59/15 3/60/15
f 18/61/16 21/62/16 22/63/16 20/64/16
f 26/65/17 24/66/17 23/67/17 25/68/17
f 23/69/18 24/70/18 4/71/18 27/72/18
f 26/73/19 25/74/19 28/75/19 2/76/19
f 25/77/20 23/78/20 27/79/20 28/80/20
f 2/81/21 4/82/21 24/83/21 26/84/21
f 30/85/22 18/86/22 25/87/22 29/88/22
f 25/89/23 18/90/23 21/91/23 28/92/23
f 30/93/24 29/94/24 31/95/24 32/96/24
f 33/97/25 34/98/25 23/99/25 20/100/25
f 36/101/26 34/102/26 33/103/26 35/104/26
f 22/105/27 20/106/27 23/107/27 27/108/27
f 38/109/28 37/110/28 39/111/28 40/112/28
f 43/113/29 41/114/29 42/115/29 44/116/29
f 41/117/30 37/118/30 38/119/30 42/120/30
f 40/121/31 39/122/31 43/123/31 44/124/31
f 39/125/32 37/126/32 41/127/32 43/128/32
f 42/129/33 38/130/33 40/131/33 44/132/33
f 46/133/34 45/134/34 47/135/34 48/136/34
f 49/137/35 45/138/35 46/139/35 50/140/35
f 48/141/36 47/142/36 51/143/36 52/144/36
f 47/145/37 45/146/37 49/147/37 51/148/37
f 50/149/38 46/150/38 48/151/38 52/152/38
f 56/153/39 54/154/39 53/155/39 55/156/39
f 53/157/40 54/158/40 57/159/40 37/160/40
f 56/161/41 55/162/41 39/163/41 58/164/41
f 55/165/42 53/166/42 37/167/42 39/168/42
f 58/169/43 57/170/43 54/171/43 56/172/43
f 59/173/44 60/174/44 62/175/44 61/176/44
f 40/177/45 60/178/45 59/179/45 63/180/45
f 64/181/46 61/182/46 62/183/46 38/184/46
f 63/185/47 59/186/47 61/187/47 64/188/47
f 60/189/48 40/190/48 38/191/48 62/192/48
f 61/193/49 54/194/49 66/195/49 65/196/49
f 57/197/50 54/198/50 61/199/50 64/200/50
f 67/201/51 65/202/51 66/203/51 68/204/51
f 59/205/52 70/206/52 69/207/52 56/208/52
f 69/209/53 70/210/53 72/211/53 71/212/53
f 59/213/54 56/214/54 58/215/54 63/216/54
f 74/217/55 73/218/55 75/219/55 76/220/55
f 79/221/56 77/222/56 78/223/56 80/224/56
f 77/225/57 73/226/57 74/227/57 78/228/57
f 75/229/58 73/230/58 77/231/58 79/232/58
f 78/233/59 74/234/59 76/235/59 80/236/59
usemtl alarm_siren_pole2
f 75/237/60 84/238/60 83/239/60 76/240/60
f 76/241/61 83/242/61 82/243/61 80/244/61
f 80/245/62 82/246/62 81/247/62 79/248/62
f 79/249/63 81/250/63 84/251/63 75/252/63
usemtl flagpole_mod
f 88/253/64 86/254/64 85/255/64 87/256/64
f 91/257/65 89/258/65 90/259/65 92/260/65
f 85/261/66 86/262/66 90/263/66 89/264/66
f 87/265/67 85/266/67 89/267/67 91/268/67
f 92/269/68 90/270/68 86/271/68 88/272/68
f 96/273/69 94/274/69 93/275/69 95/276/69
f 77/277/70 97/278/70 98/279/70 99/280/70
f 95/281/71 93/282/71 97/283/71 77/284/71
f 99/285/72 98/286/72 94/287/72 96/288/72
f 101/289/73 100/290/73 102/291/73 103/292/73
f 107/293/74 105/294/74 104/295/74 106/296/74
f 110/297/75 108/298/75 109/299/75 111/300/75
f 104/301/76 105/302/76 109/303/76 108/304/76
f 107/305/77 106/306/77 110/307/77 111/308/77
f 106/309/78 104/310/78 108/311/78 110/312/78
f 111/313/79 109/314/79 105/315/79 107/316/79
f 115/317/80 113/318/80 112/319/80 114/320/80
f 118/321/81 116/322/81 117/323/81 119/324/81
f 112/325/82 113/326/82 117/327/82 116/328/82
f 115/329/83 114/330/83 118/331/83 119/332/83
f 114/333/84 112/334/84 116/335/84 118/336/84
f 119/337/85 117/338/85 113/339/85 115/340/85
f 123/341/86 121/342/86 120/343/86 122/344/86
f 126/345/87 124/346/87 125/347/87 127/348/87
f 120/349/88 121/350/88 125/351/88 124/352/88
f 123/353/89 122/354/89 126/355/89 127/356/89
f 122/357/90 120/358/90 124/359/90 126/360/90
f 127/361/91 125/362/91 121/363/91 123/364/91