# Made by Pabilo8 with Blockbench
# Exported with IIToolkit Plugin
mtllib flagpole.mtl


o variant_sandbags
v -0.75 0.25 1.875
v -0.75 0.25 0.875
v -0.75 0 1.875
v -0.75 0 0.875
v -1 0.25 1.875
v -1 0.25 0.875
v -1 0 1.875
v -1 0 0.875
v -0.81958625 0.25 0.87013375
v -0.75 0.25 0.375
v -0.81958625 0 0.87013375
v -0.75 0 0.375
v -1.0671537500000001 0.25 0.835340625
v -0.997566875 0.25 0.340206875
v -1.0671537500000001 0 0.835340625
v -0.997566875 0 0.340206875
v 1.7804675 0.25 2.93563625
v 1.75 0.25 2.6875
v 1.7804675 0 2.93563625
v 1.75 0 2.6875
v 1.284194375 0.25 2.99657125
v 1.253726875 0.25 2.748434375
v 1.284194375 0 2.99657125
v 1.253726875 0 2.748434375
v 1.75 -0.75 3.0625
v 1.75 -0.75 3
v 1.75 -1 3.0625
v 1.75 -1 3
v 1.25 -0.75 3.0625
v 1.25 -0.75 3
v 1.25 -1 3.0625
v 1.25 -1 3
v 1.5 -0.25 3.0625
v 1.5 -0.25 3
v 1.5 -0.5 3.0625
v 1.5 -0.5 3
v 0.5 -0.25 3.0625
v 0.5 -0.25 3
v 0.5 -0.5 3.0625
v 0.5 -0.5 3
v 0.9375 -0.5 3.0625
v 0.9375 -0.5 3
v 0.9375 -0.75 3.0625
v 0.9375 -0.75 3
v -0.0625 -0.5 3.0625
v -0.0625 -0.5 3
v -0.0625 -0.75 3.0625
v -0.0625 -0.75 3
v -0.0625 -1 3.0625
v -0.0625 -1 3
v -0.5625 -0.75 3.0625
v -0.5625 -0.75 3
v -0.5625 -1 3.0625
v -0.5625 -1 3
v -0.5 -0.25 3.0625
v -0.5 -0.25 3
v -0.5 -0.5 3.0625
v -0.5 -0.5 3
v -1 -0.25 3.0625
v -1 -0.25 3
v -1 -0.5 3.0625
v -1 -0.5 3
v 1.75 0 3
v 1.75 0 2.75
v -0.75 0 3
v -0.75 0 2.75
v -0.75 -1 3
v 0.5 -0.006250000000000089 3.0625
v 0.5 -0.006250000000000089 3
v 0.5 -0.2562500000000001 3.0625
v 0.5 -0.2562500000000001 3
v -0.5 -0.006250000000000089 3.0625
v -0.5 -0.006250000000000089 3
v -0.5 -0.2562500000000001 3.0625
v -0.5 -0.2562500000000001 3
v -0.0842887499999998 0.25 3.06154875
v -0.0625 0.25 2.8125
v -0.0842887499999998 0 3.06154875
v -0.0625 0 2.8125
v -0.5823862499999999 0.25 3.017970625
v -0.5605975000000001 0.25 2.768921875
v -0.5823862499999999 0 3.017970625
v -0.5605975000000001 0 2.768921875
v 2 0.25 2.6875
v 2 0.25 1.6875
v 2 0 2.6875
v 2 0 1.6875
v 1.75 0.25 1.6875
v 1.75 0 1.6875
v 2.034878125 0.25 1.248781875
v 2 0.25 0.75
v 2.034878125 0 1.248781875
v 2 0 0.75
v 1.7854875 0.25 1.26622125
v 1.75060875 0.25 0.767439375
v 1.7854875 0 1.26622125
v 1.75060875 0 0.767439375
v 2.0625 -0.75 0.5
v 2 -0.75 0.5
v 2.0625 -1 0.5
v 2 -1 0.5
v 2.0625 -0.75 1.5
v 2 -0.75 1.5
v 2.0625 -1 1.5
v 2 -1 1.5
v 2.0625 0 2.5
v 2.0625 0 2
v 2.0625 -0.25 2.5
v 2.0625 -0.25 2
v 2 0 2.5
v 2 0 2
v 2 -0.25 2.5
v 2 -0.25 2
v 2.0625 -0.5 3
v 2.0625 -0.5 2.5
v 2.0625 -0.75 3
v 2.0625 -0.75 2.5
v 2 -0.5 3
v 2 -0.5 2.5
v 2 -0.75 3
v 2 -0.75 2.5
v 2 0 3
v 2 0 0
v 2 -1 3
v 2 -1 0
v 1.75 0 0
v 1.75 -1 0
v 2.0625 -0.75 2
v 2.0625 -1 2.5
v 2.0625 -1 2
v 2 -0.75 2
v 2 -1 2.5
v 2 -1 2
v 2.0625 -0.5 1
v 2 -0.5 1
v 2.0625 -0.75 1
v 2 -0.75 1
v 2.0625 -0.5 2
v 2 -0.5 2
v 2.0625 -0.25 0.5
v 2 -0.25 0.5
v 2.0625 -0.5 0.5
v 2 -0.5 0.5
v 2.0625 -0.25 1.5
v 2 -0.25 1.5
v 2.0625 -0.5 1.5
v 2 -0.5 1.5
v 1.75 0 -0.0625
v 1.75 -0.25 0
v 1.75 -0.25 -0.0625
v 1.25 0 0
v 1.25 0 -0.0625
v 1.25 -0.25 0
v 1.25 -0.25 -0.0625
v 1.75 -0.75 0
v 1.75 -0.75 -0.0625
v 1.75 -1 -0.0625
v 1.25 -0.75 0
v 1.25 -0.75 -0.0625
v 1.25 -1 0
v 1.25 -1 -0.0625
v 0.6875 -0.75 0
v 0.6875 -0.75 -0.0625
v 0.6875 -1 0
v 0.6875 -1 -0.0625
v 0.1875 -0.75 0
v 0.1875 -0.75 -0.0625
v 0.1875 -1 0
v 0.1875 -1 -0.0625
v 1.4375 -0.5 0
v 1.4375 -0.5 -0.0625
v 1.4375 -0.75 0
v 1.4375 -0.75 -0.0625
v 0.4375 -0.5 0
v 0.4375 -0.5 -0.0625
v 0.4375 -0.75 0
v 0.4375 -0.75 -0.0625
v 0.75 -0.25 0
v 0.75 -0.25 -0.0625
v 0.75 -0.5 0
v 0.75 -0.5 -0.0625
v -0.25 -0.25 0
v -0.25 -0.25 -0.0625
v -0.25 -0.5 0
v -0.25 -0.5 -0.0625
v -0.5 0 0
v -0.5 0 -0.0625
v -0.5 -0.25 0
v -0.5 -0.25 -0.0625
v -1 0 0
v -1 0 -0.0625
v -1 -0.25 0
v -1 -0.25 -0.0625
v 1.75 0 0.25
v -0.75 0 0.25
v -0.75 0 0
v -0.75 -1 0
v -0.25 -0.75 0
v -0.25 -0.75 -0.0625
v -0.75 -0.5 0
v -0.75 -0.5 -0.0625
v -0.75 -0.75 0
v -0.75 -0.75 -0.0625
v -1 -0.75 2.375
v -1 -0.75 1.875
v -1 -1 2.375
v -1 -1 1.875
v -1.0625 -0.75 2.375
v -1.0625 -0.75 1.875
v -1.0625 -1 2.375
v -1.0625 -1 1.875
v -1 -0.25 2.75
v -1 -0.25 2.25
v -1 -0.5 2.75
v -1 -0.5 2.25
v -1.0625 -0.25 2.75
v -1.0625 -0.25 2.25
v -1.0625 -0.5 2.75
v -1.0625 -0.5 2.25
v -1 -0.25 0.875
v -1.0625 -0.25 0.875
v -1 -0.5 0.875
v -1.0625 -0.5 0.875
v -1 -0.25 1.875
v -1.0625 -0.25 1.875
v -1 -0.5 1.875
v -1.0625 -0.5 1.875
v -0.9825499999999998 -0.5 1.124695625
v -1 -0.5 0.625
v -0.9825499999999998 -0.75 1.124695625
v -1 -0.75 0.625
v -1.0450118750000001 -0.5 1.126876875
v -1.062461875 -0.5 0.62718125
v -1.0450118750000001 -0.75 1.126876875
v -1.062461875 -0.75 0.62718125
v -1 -0.25 0.5
v -1 -0.5 0.5
v -1 -0.5 0
v -1.0625 -0.25 0.5
v -1.0625 -0.25 0
v -1.0625 -0.5 0.5
v -1.0625 -0.5 0
v -1 0 3
v -1 -1 3
v -1 -1 0
v -0.2092887499999998 0.25 0.24904875
v -0.1875 0.25 0
v -0.2092887499999998 0 0.24904875
v -0.1875 0 0
v -0.5206 0.25 0.2218125
v -0.49881062499999995 0.25 -0.02723625
v -0.5206 0 0.2218125
v -0.49881062499999995 0 -0.02723625
v 1.78770875 0.25 0.62132875
v 2.0335225 0.25 0.575769375
v 1.69659125 0.25 0.12970125
v 1.942405 0.25 0.0841425
v 1.78770875 0 0.62132875
v 1.69659125 0 0.12970125
v 1.942405 0 0.0841425
v 2.0335225 0 0.575769375
v 1.1984287500000002 0.25 0.191626875
v 1.69652625 0.25 0.235204375
v 1.2202181250000002 0.25 -0.057421875
v 1.718315 0.25 -0.013844375
v 1.1984287500000002 0 0.191626875
v 1.2202181250000002 0 -0.057421875
v 1.718315 0 -0.013844375
v 1.69652625 0 0.235204375
v -1 -3 3
v -1 -3 0
v 2 -3 3
v 2 -3 0
v 1.75 -1 2.75
v 1.75 -1 0.25
v -0.75 -1 2.75
v -0.75 -1 0.25
vt 0.59375 0.9375
vt 0.59375 1
vt 0.34375 1
vt 0.34375 0.9375
vt 0.5625 0.9375
vt 0.5625 1
vt 0.3125 1
vt 0.3125 0.9375
vt 0.578125 1
vt 0.328125 1
vt 0.328125 0.9375
vt 0.578125 0.9375
vt 0.53125 0.9375
vt 0.53125 1
vt 0.46875 1
vt 0.46875 0.9375
vt 0.0625 0.9375
vt 0.0625 1
vt 0 1
vt 0 0.9375
vt 0.5 0.9375
vt 0.5 1
vt 0.375 1
vt 0.375 0.9375
vt 0.421875 0.8125
vt 0.421875 0.875
vt 0.296875 0.875
vt 0.296875 0.8125
vt 0.5 1
vt 0.375 1
vt 0.375 0.9375
vt 0.5 0.9375
vt 0.453125 0.8125
vt 0.453125 0.875
vt 0.390625 0.875
vt 0.390625 0.8125
vt 0.375 0.9375
vt 0.375 1
vt 0.3125 1
vt 0.3125 0.9375
vt 0.421875 0.8125
vt 0.421875 0.875
vt 0.359375 0.875
vt 0.359375 0.8125
vt 0.515625 0.8125
vt 0.515625 0.875
vt 0.453125 0.875
vt 0.453125 0.8125
vt 0.53125 0.8125
vt 0.53125 0.875
vt 0.40625 0.875
vt 0.40625 0.8125
vt 0.484375 0.8125
vt 0.484375 0.875
vt 0.359375 0.875
vt 0.359375 0.8125
vt 0.40625 0.9375
vt 0.40625 1
vt 0.28125 1
vt 0.28125 0.9375
vt 0.34375 0.796875
vt 0.34375 0.859375
vt 0.328125 0.859375
vt 0.328125 0.796875
vt 0.3125 0.828125
vt 0.3125 0.890625
vt 0.296875 0.890625
vt 0.296875 0.828125
vt 0.390625 0.875
vt 0.390625 0.890625
vt 0.265625 0.890625
vt 0.265625 0.875
vt 0.40625 0.859375
vt 0.40625 0.875
vt 0.28125 0.875
vt 0.28125 0.859375
vt 0.703125 0.8125
vt 0.703125 0.875
vt 0.578125 0.875
vt 0.578125 0.8125
vt 0.3125 0.84375
vt 0.3125 0.90625
vt 0.296875 0.90625
vt 0.296875 0.84375
vt 0.328125 0.859375
vt 0.328125 0.921875
vt 0.3125 0.921875
vt 0.3125 0.859375
vt 0.59375 0.84375
vt 0.59375 0.859375
vt 0.34375 0.859375
vt 0.34375 0.84375
vt 0.59375 0.859375
vt 0.59375 0.875
vt 0.34375 0.875
vt 0.34375 0.859375
vt 0.46875 0.8125
vt 0.46875 0.875
vt 0.21875 0.875
vt 0.21875 0.8125
vt 0.34375 0.828125
vt 0.34375 0.859375
vt 0.328125 0.859375
vt 0.328125 0.828125
vt 0.3125 0.828125
vt 0.3125 0.859375
vt 0.296875 0.859375
vt 0.296875 0.828125
vt 0.34375 0.859375
vt 0.34375 0.875
vt 0.25 0.875
vt 0.25 0.859375
vt 0.34375 0.84375
vt 0.34375 0.859375
vt 0.25 0.859375
vt 0.25 0.84375
vt 0.484375 0.8125
vt 0.484375 0.875
vt 0.234375 0.875
vt 0.234375 0.8125
vt 0.296875 0.796875
vt 0.25 0.796875
vt 0.25 0.78125
vt 0.296875 0.78125
vt 0.25 0.78125
vt 0.25 0.8125
vt 0.234375 0.8125
vt 0.234375 0.78125
vt 0.296875 0.796875
vt 0.296875 0.8125
vt 0.25 0.8125
vt 0.25 0.796875
vt 0.296875 0.796875
vt 0.296875 0.8125
vt 0.234375 0.8125
vt 0.234375 0.796875
vt 0.34375 0.75
vt 0.34375 0.8125
vt 0.21875 0.8125
vt 0.21875 0.75
vt 0.4375 0.84375
vt 0.484375 0.84375
vt 0.484375 0.859375
vt 0.4375 0.859375
vt 0.4375 0.828125
vt 0.4375 0.859375
vt 0.421875 0.859375
vt 0.421875 0.828125
vt 0.484375 0.875
vt 0.484375 0.859375
vt 0.40625 0.859375
vt 0.40625 0.875
vt 0.484375 0.84375
vt 0.484375 0.859375
vt 0.40625 0.859375
vt 0.40625 0.84375
vt 0.515625 0.8125
vt 0.515625 0.875
vt 0.390625 0.875
vt 0.390625 0.8125
vt 0.640625 0.828125
vt 0.640625 0.890625
vt 0.015625 0.890625
vt 0.015625 0.828125
vt 0.6875 0.75
vt 0.6875 1
vt 0.0625 1
vt 0.0625 0.75
vt 0.453125 0.8125
vt 0.453125 0.84375
vt 0.4375 0.84375
vt 0.4375 0.8125
vt 0.34375 0.8125
vt 0.34375 0.84375
vt 0.34375 0.84375
vt 0.34375 0.8125
vt 0.453125 0.828125
vt 0.453125 0.84375
vt 0.34375 0.84375
vt 0.34375 0.828125
vt 0.453125 0.8125
vt 0.453125 0.828125
vt 0.34375 0.828125
vt 0.34375 0.8125
vt 0.53125 0.8125
vt 0.53125 0.875
vt 0.28125 0.875
vt 0.28125 0.8125
vt 0.5 0.9375
vt 0.5 1
vt 0.75 1
vt 0.75 0.9375
vt 0.4375 0.8125
vt 0.4375 0.875
vt 0.375 0.875
vt 0.375 0.8125
vt 0.390625 0.8125
vt 0.390625 0.875
vt 0.328125 0.875
vt 0.328125 0.8125
vt 0.34375 0.8125
vt 0.34375 0.875
vt 0.21875 0.875
vt 0.21875 0.8125
vt 0.421875 0.8125
vt 0.421875 0.875
vt 0.296875 0.875
vt 0.296875 0.8125
vt 0.421875 0.9375
vt 0.421875 1
vt 0.296875 1
vt 0.296875 0.9375
vt 0.5 0.9375
vt 0.5 1
vt 0.25 1
vt 0.25 0.9375
vt 0.53125 0.9375
vt 0.53125 1
vt 0.28125 1
vt 0.28125 0.9375
vt 0.5625 1
vt 0.3125 1
vt 0.3125 0.9375
vt 0.5625 0.9375
vt 0.421875 0.9375
vt 0.421875 1
vt 0.359375 1
vt 0.359375 0.9375
vt 0.5 0.9375
vt 0.5 1
vt 0.4375 1
vt 0.4375 0.9375
vt 0.484375 0.9375
vt 0.484375 1
vt 0.359375 1
vt 0.359375 0.9375
vt 0.40625 0.9375
vt 0.40625 1
vt 0.28125 1
vt 0.28125 0.9375
vt 0.34375 0.9375
vt 0.46875 0.9375
vt 0.46875 1
vt 0.34375 1
vt 0.296875 0.9375
vt 0.296875 1
vt 0.234375 1
vt 0.234375 0.9375
vt 0.140625 0.875
vt 0.140625 0.9375
vt 0.078125 0.9375
vt 0.078125 0.875
vt 0.484375 0.8125
vt 0.484375 0.875
vt 0.46875 0.875
vt 0.46875 0.8125
vt 0.3125 0.875
vt 0.3125 0.9375
vt 0.296875 0.9375
vt 0.296875 0.875
vt 0.484375 0.90625
vt 0.484375 0.921875
vt 0.234375 0.921875
vt 0.234375 0.90625
vt 0.484375 0.890625
vt 0.484375 0.90625
vt 0.234375 0.90625
vt 0.234375 0.890625
vt 0.5625 0.75
vt 0.5625 0.8125
vt 0.3125 0.8125
vt 0.3125 0.75
vt 0.265625 0.9375
vt 0.265625 1
vt 0.140625 1
vt 0.140625 0.9375
vt 0.46875 0.765625
vt 0.46875 0.890625
vt 0.453125 0.890625
vt 0.453125 0.765625
vt 0.453125 0.765625
vt 0.453125 0.890625
vt 0.4375 0.890625
vt 0.4375 0.765625
vt 0.546875 0.796875
vt 0.546875 0.859375
vt 0.53125 0.859375
vt 0.53125 0.796875
vt 0.390625 0.796875
vt 0.390625 0.859375
vt 0.375 0.859375
vt 0.375 0.796875
vt 0.125 0.8125
vt 0.125 0.875
vt 0 0.875
vt 0 0.8125
vt 0.375 0.796875
vt 0.375 0.921875
vt 0.359375 0.921875
vt 0.359375 0.796875
vt 0.328125 0.796875
vt 0.328125 0.921875
vt 0.3125 0.921875
vt 0.3125 0.796875
vt 0.40625 0.8125
vt 0.40625 0.875
vt 0.390625 0.875
vt 0.390625 0.8125
vt 0.4375 0.828125
vt 0.4375 0.890625
vt 0.421875 0.890625
vt 0.421875 0.828125
vt 0.75 0.75
vt 0.75 1
vt 0 1
vt 0 0.75
vt 0.75 1
vt 0 1
vt 0 0.9375
vt 0.75 0.9375
vt 0.75 0.75
vt 0.75 1
vt 0.6875 1
vt 0.6875 0.75
vt 0.0625 0.75
vt 0.0625 1
vt 0 1
vt 0 0.75
vt 0.328125 0.75
vt 0.328125 0.8125
vt 0.203125 0.8125
vt 0.203125 0.75
vt 0.40625 0.8125
vt 0.40625 0.9375
vt 0.390625 0.9375
vt 0.390625 0.8125
vt 0.46875 0.8125
vt 0.46875 0.9375
vt 0.453125 0.9375
vt 0.453125 0.8125
vt 0.453125 0.84375
vt 0.453125 0.90625
vt 0.4375 0.90625
vt 0.4375 0.84375
vt 0.46875 0.84375
vt 0.46875 0.90625
vt 0.453125 0.90625
vt 0.453125 0.84375
vt 0.5 0.78125
vt 0.5 0.84375
vt 0.484375 0.84375
vt 0.484375 0.78125
vt 0.390625 0.78125
vt 0.390625 0.84375
vt 0.375 0.84375
vt 0.375 0.78125
vt 0.546875 0.828125
vt 0.546875 0.84375
vt 0.296875 0.84375
vt 0.296875 0.828125
vt 0.578125 0.828125
vt 0.578125 0.84375
vt 0.328125 0.84375
vt 0.328125 0.828125
vt 0.359375 0.921875
vt 0.359375 0.984375
vt 0.109375 0.984375
vt 0.109375 0.921875
vt 0.34375 0.796875
vt 0.34375 0.859375
vt 0.328125 0.859375
vt 0.328125 0.796875
vt 0.453125 0.796875
vt 0.453125 0.859375
vt 0.4375 0.859375
vt 0.4375 0.796875
vt 0.53125 0.828125
vt 0.53125 0.84375
vt 0.28125 0.84375
vt 0.28125 0.828125
vt 0.515625 0.8125
vt 0.515625 0.828125
vt 0.265625 0.828125
vt 0.265625 0.8125
vt 0.578125 0.875
vt 0.578125 0.9375
vt 0.328125 0.9375
vt 0.328125 0.875
vt 0.28125 0.84375
vt 0.28125 0.875
vt 0.296875 0.875
vt 0.296875 0.84375
vt 0.234375 0.84375
vt 0.234375 0.875
vt 0.25 0.875
vt 0.25 0.84375
vt 0.296875 0.875
vt 0.296875 0.859375
vt 0.234375 0.859375
vt 0.234375 0.875
vt 0.296875 0.84375
vt 0.296875 0.859375
vt 0.234375 0.859375
vt 0.234375 0.84375
vt 0.375 0.8125
vt 0.375 0.875
vt 0.25 0.875
vt 0.25 0.8125
vt 0.453125 0.75
vt 0.453125 0.78125
vt 0.4375 0.78125
vt 0.4375 0.75
vt 0.5 0.75
vt 0.5 0.78125
vt 0.484375 0.78125
vt 0.484375 0.75
vt 0.515625 0.765625
vt 0.515625 0.78125
vt 0.453125 0.78125
vt 0.453125 0.765625
vt 0.484375 0.765625
vt 0.484375 0.78125
vt 0.421875 0.78125
vt 0.421875 0.765625
vt 0.34375 0.75
vt 0.34375 0.8125
vt 0.21875 0.8125
vt 0.21875 0.75
vt 0.375 0.796875
vt 0.375 0.84375
vt 0.359375 0.84375
vt 0.359375 0.796875
vt 0.34375 0.796875
vt 0.34375 0.84375
vt 0.328125 0.84375
vt 0.328125 0.796875
vt 0.390625 0.828125
vt 0.390625 0.84375
vt 0.34375 0.84375
vt 0.34375 0.828125
vt 0.390625 0.8125
vt 0.390625 0.828125
vt 0.328125 0.828125
vt 0.328125 0.8125
vt 0.5 0.875
vt 0.5 0.9375
vt 0.375 0.9375
vt 0.375 0.875
vt 0.59375 0.84375
vt 0.59375 0.859375
vt 0.578125 0.859375
vt 0.578125 0.84375
vt 0.53125 0.84375
vt 0.53125 0.875
vt 0.515625 0.875
vt 0.515625 0.84375
vt 0.59375 0.859375
vt 0.59375 0.875
vt 0.515625 0.875
vt 0.515625 0.859375
vt 0.59375 0.84375
vt 0.59375 0.859375
vt 0.515625 0.859375
vt 0.515625 0.84375
vt 0.6875 0.8125
vt 0.6875 0.875
vt 0.4375 0.875
vt 0.4375 0.8125
vt 0.34375 0.8125
vt 0.34375 0.84375
vt 0.328125 0.84375
vt 0.328125 0.8125
vt 0.4375 0.8125
vt 0.4375 0.84375
vt 0.421875 0.84375
vt 0.421875 0.8125
vt 0.4375 0.828125
vt 0.4375 0.84375
vt 0.328125 0.84375
vt 0.328125 0.828125
vt 0.4375 0.828125
vt 0.4375 0.828125
vt 0.328125 0.828125
vt 0.328125 0.828125
vt 0.484375 0.9375
vt 0.484375 1
vt 0.234375 1
vt 0.234375 0.9375
vt 0.453125 0.78125
vt 0.453125 0.8125
vt 0.4375 0.8125
vt 0.4375 0.78125
vt 0.421875 0.78125
vt 0.421875 0.8125
vt 0.4375 0.8125
vt 0.4375 0.78125
vt 0.484375 0.8125
vt 0.484375 0.796875
vt 0.421875 0.796875
vt 0.421875 0.8125
vt 0.484375 0.78125
vt 0.484375 0.796875
vt 0.421875 0.796875
vt 0.421875 0.78125
vt 0.5625 0.8125
vt 0.5625 0.875
vt 0.4375 0.875
vt 0.4375 0.8125
vt 0.6875 0.8125
vt 0.6875 0.875
vt 0.0625 0.875
vt 0.0625 0.8125
vt 0.6875 0.75
vt 0.6875 1
vt 0.0625 1
vt 0.0625 0.75
vt 0.53125 0.84375
vt 0.53125 0.875
vt 0.515625 0.875
vt 0.515625 0.84375
vt 0.515625 0.84375
vt 0.515625 0.875
vt 0.515625 0.875
vt 0.515625 0.84375
vt 0.578125 0.84375
vt 0.578125 0.859375
vt 0.515625 0.859375
vt 0.515625 0.84375
vt 0.578125 0.859375
vt 0.578125 0.875
vt 0.53125 0.875
vt 0.53125 0.859375
vt 0.71875 0.9375
vt 0.71875 1
vt 0.59375 1
vt 0.59375 0.9375
vt 0.125 0.875
vt 0.125 0.9375
vt 0 0.9375
vt 0 0.875
vt 0.4296875 0.8203125
vt 0.3671875 0.8203125
vt 0.3671875 0.8359375
vt 0.4296875 0.8359375
vt 0.4140625 0.8359375
vt 0.3671875 0.8359375
vt 0.3671875 0.8203125
vt 0.4140625 0.8203125
vt 0.375 0.8125
vt 0.375 0.84375
vt 0.390625 0.84375
vt 0.390625 0.8125
vt 0.390625 0.8125
vt 0.390625 0.84375
vt 0.40625 0.84375
vt 0.40625 0.8125
vt 0.328125 0.75
vt 0.328125 0.8125
vt 0.203125 0.8125
vt 0.203125 0.75
vt 0.2578125 0.7890625
vt 0.3046875 0.7890625
vt 0.3046875 0.8046875
vt 0.2578125 0.8046875
vt 0.2578125 0.7890625
vt 0.3046875 0.7890625
vt 0.3046875 0.8046875
vt 0.2578125 0.8046875
vt 0.3125 0.78125
vt 0.3125 0.8125
vt 0.296875 0.8125
vt 0.296875 0.78125
vt 0.2578125 0.7890625
vt 0.3203125 0.7890625
vt 0.3203125 0.8046875
vt 0.2578125 0.8046875
vt 0.5 0.765625
vt 0.5 0.8125
vt 0.484375 0.8125
vt 0.484375 0.765625
vt 0.5 0.765625
vt 0.5 0.796875
vt 0.484375 0.796875
vt 0.484375 0.765625
vt 0.5 0.796875
vt 0.5 0.8125
vt 0.375 0.8125
vt 0.375 0.796875
vt 0.5 0.78125
vt 0.5 0.796875
vt 0.375 0.796875
vt 0.375 0.78125
vt 0.5625 0.875
vt 0.5625 0.9375
vt 0.3125 0.9375
vt 0.3125 0.875
vt 0.53125 0.8125
vt 0.53125 0.875
vt 0.40625 0.875
vt 0.40625 0.8125
vt 0.5 0.796875
vt 0.5 0.828125
vt 0.46875 0.828125
vt 0.46875 0.796875
vt 0.5625 0.796875
vt 0.5625 0.859375
vt 0.546875 0.859375
vt 0.546875 0.796875
vt 0.40625 0.8125
vt 0.40625 0.875
vt 0.390625 0.875
vt 0.390625 0.8125
vt 0.453125 0.78125
vt 0.453125 0.84375
vt 0.4375 0.84375
vt 0.4375 0.78125
vt 0.40625 0.8125
vt 0.40625 0.875
vt 0.28125 0.875
vt 0.28125 0.8125
vt 0.34375 0.828125
vt 0.34375 0.875
vt 0.328125 0.875
vt 0.328125 0.828125
vt 0.375 0.8125
vt 0.375 0.875
vt 0.359375 0.875
vt 0.359375 0.8125
vt 0.4375 0.796875
vt 0.4375 0.859375
vt 0.421875 0.859375
vt 0.421875 0.796875
vt 0.34375 0.8125
vt 0.34375 0.875
vt 0.328125 0.875
vt 0.328125 0.8125
vt 0.75 0.75
vt 0.75 1
vt 0 1
vt 0 0.75
vt 0.75 0.9375
vt 0 0.9375
vt 0 0.875
vt 0.75 0.875
vt 0.0625 0.75
vt 0.0625 1
vt 0 1
vt 0 0.75
vt 0.75 0.75
vt 0.75 1
vt 0.6875 1
vt 0.6875 0.75
vt 0.515625 0.8125
vt 0.515625 0.875
vt 0.453125 0.875
vt 0.453125 0.8125
vt 0.53125 0.8125
vt 0.53125 0.875
vt 0.46875 0.875
vt 0.46875 0.8125
vt 0.453125 0.8125
vt 0.453125 0.875
vt 0.375 0.875
vt 0.375 0.8125
vt 0.515625 0.8125
vt 0.515625 0.875
vt 0.4375 0.875
vt 0.4375 0.8125
vt 0.515625 0.8125
vt 0.515625 0.875
vt 0.4375 0.875
vt 0.4375 0.8125
vt 0.390625 0.9375
vt 0.390625 1
vt 0.265625 1
vt 0.265625 0.9375
vt 0.46875 0.9375
vt 0.46875 1
vt 0.34375 1
vt 0.34375 0.9375
vt 0.125 0.9375
vt 0 0.9375
vt 0 0.875
vt 0.125 0.875
vt 0.390625 0.8125
vt 0.390625 0.875
vt 0.328125 0.875
vt 0.328125 0.8125
vt 0.0625 0.875
vt 0.0625 0.9375
vt 0 0.9375
vt 0 0.875
vt 0.4375 0.8125
vt 0.4375 0.875
vt 0.375 0.875
vt 0.375 0.8125
vt 0.390625 0.8125
vt 0.390625 0.875
vt 0.328125 0.875
vt 0.328125 0.8125
vt 0.34375 0.8125
vt 0.34375 0.875
vt 0.21875 0.875
vt 0.21875 0.8125
vt 0.421875 0.8125
vt 0.421875 0.875
vt 0.296875 0.875
vt 0.296875 0.8125
vt 0.421875 0.9375
vt 0.421875 1
vt 0.296875 1
vt 0.296875 0.9375
vt 0.75 0.75
vt 0.75 0.25
vt 0 0.25
vt 0 0.75
vt 0.75 0.75
vt 0.75 0.25
vt 0 0.25
vt 0 0.75
vt 0.75 0.75
vt 0.75 0.25
vt 0 0.25
vt 0 0.75
vt 0.75 0.75
vt 0.75 0.25
vt 0 0.25
vt 0 0.75
vt 0.6875 1
vt 0.0625 1
vt 0.0625 0.75
vt 0.6875 0.75
vt 0.703125 1
vt 0.078125 1
vt 0.078125 0.75
vt 0.703125 0.75
vt 0.6875 1
vt 0.0625 1
vt 0.0625 0.75
vt 0.6875 0.75
vt 0.6875 1
vt 0.0625 1
vt 0.0625 0.75
vt 0.6875 0.75
vn 1 0 0
vn -1 0 0
vn 0 1 0
vn 0 0 1
vn 0 0 -1
vn 0.9902681405489647 0 0.13917259002294907
vn -0.9902679682753971 0 -0.13917381581216023
vn 0 1 0
vn -0.13917224547811627 0 0.9902681889713407
vn 0.1391725900229491 0 -0.9902681405489647
vn 0.9925460551142379 0 -0.12187012955258676
vn -0.9925460922449604 0 0.121869827148719
vn 0 1 0
vn 0.12186997835046713 0 0.9925460736796338
vn -0.12186874691576863 0 -0.9925462248808267
vn 1 0 0
vn -1 0 0
vn 0 1 0
vn 0 -1 0
vn 0 0 1
vn 1 0 0
vn -1 0 0
vn 0 1 0
vn 0 -1 0
vn 0 0 1
vn 1 0 0
vn -1 0 0
vn 0 1 0
vn 0 -1 0
vn 0 0 1
vn 1 0 0
vn -1 0 0
vn 0 1 0
vn 0 -1 0
vn 0 0 1
vn 1 0 0
vn -1 0 0
vn 0 1 0
vn 0 -1 0
vn 0 0 1
vn 0 1 0
vn 0 0 1
vn 1 0 0
vn -1 0 0
vn 0 1 0
vn 0 -1 0
vn 0 0 1
vn 0 0 -1
vn 0.9961947648731585 0 0.0871549794292476
vn -0.9961947648731586 0 -0.08715497942924777
vn 0 1 0
vn -0.08715621993376532 0 0.9961946563432557
vn 0.08715621993376443 0 -0.9961946563432557
vn 1 0 0
vn -1 0 0
vn 0 1 0
vn 0 0 1
vn 0 0 -1
vn 0.9975640643683362 0 -0.06975627198271164
vn -0.997563977384603 0 0.06975751590051911
vn 0 1 0
vn 0.06975760288512896 0 0.9975639713019515
vn -0.06975742891612632 0 -0.9975639834672319
vn 0 0 -1
vn 0 0 1
vn 0 1 0
vn 0 -1 0
vn 1 0 0
vn 1 0 0
vn 0 1 0
vn 0 -1 0
vn 0 0 1
vn 0 0 -1
vn 1 0 0
vn 0 1 0
vn 0 -1 0
vn 0 0 1
vn 0 0 -1
vn 1 0 0
vn 0 1 0
vn 0 0 1
vn 0 0 -1
vn 1 0 0
vn 0 1 0
vn 0 -1 0
vn 0 0 1
vn 0 0 -1
vn 0 0 -1
vn 0 0 1
vn 0 1 0
vn 0 -1 0
vn 1 0 0
vn 0 0 -1
vn 0 0 1
vn 0 1 0
vn 0 -1 0
vn 1 0 0
vn 1 0 0
vn -1 0 0
vn 0 1 0
vn 0 -1 0
vn 0 0 -1
vn 1 0 0
vn -1 0 0
vn 0 1 0
vn 0 -1 0
vn 0 0 -1
vn 1 0 0
vn -1 0 0
vn 0 1 0
vn 0 -1 0
vn 0 0 -1
vn 1 0 0
vn -1 0 0
vn 0 1 0
vn 0 -1 0
vn 0 0 -1
vn 1 0 0
vn -1 0 0
vn 0 1 0
vn 0 -1 0
vn 0 0 -1
vn 1 0 0
vn -1 0 0
vn 0 1 0
vn 0 -1 0
vn 0 0 -1
vn 0 1 0
vn 0 0 -1
vn 1 0 0
vn -1 0 0
vn 0 1 0
vn 0 -1 0
vn 0 0 -1
vn -1 0 0
vn 0 1 0
vn 0 -1 0
vn 0 0 1
vn 0 0 -1
vn -1 0 0
vn 0 1 0
vn 0 -1 0
vn 0 0 1
vn 0 0 -1
vn 0 0 -1
vn 0 0 1
vn 0 1 0
vn 0 -1 0
vn -1 0 0
vn -0.9993908099800349 0 0.034899984633948625
vn 0 1 0
vn 0 -1 0
vn 0.034900028232389455 0 0.9993908084575217
vn -0.034900028232389704 0 -0.9993908084575217
vn -1 0 0
vn 0 1 0
vn 0 -1 0
vn 0 0 1
vn 0 0 -1
vn -1 0 0
vn 0 1 0
vn 0 0 1
vn 0 0 -1
vn 0.9961947648731586 0 0.08715497942924762
vn -0.9961945478118319 0 -0.08715746043787585
vn 0 1 0
vn -0.08715588500869294 0 0.9961946856455076
vn 0.0871560586572674 0 -0.9961946704531855
vn -0.9832550047933682 0 0.18223500088839567
vn 0.9832549632812971 0 -0.1822352248680131
vn 0 1 0
vn -0.18223500088839562 0 -0.9832550047933682
vn 0.18223741786276668 0 0.9832545568319079
vn -0.9961945478118319 0 -0.08715746043787585
vn 0.9961947648731584 0 0.0871549794292483
vn 0 1 0
vn 0.08715508795852522 0 -0.9961947553781548
vn -0.0871549794292484 0 0.9961947648731585
vn -1 0 0
vn 0 0 1
vn 1 0 0
vn 0 0 -1
vn -1 0 0
vn 1 0 0
vn 0 0 -1
vn 0 0 1
usemtl base_sandbags
f 4/1/1 2/2/1 1/3/1
f 4/1/1 1/3/1 3/4/1
f 7/5/2 5/6/2 6/7/2
f 7/5/2 6/7/2 8/8/2
f 1/9/3 2/10/3 6/11/3
f 1/9/3 6/11/3 5/12/3
f 3/13/4 1/14/4 5/15/4
f 3/13/4 5/15/4 7/16/4
f 8/17/5 6/18/5 2/19/5
f 8/17/5 2/19/5 4/20/5
f 12/21/6 10/22/6 9/23/6
f 12/21/6 9/23/6 11/24/6
f 15/25/7 13/26/7 14/27/7
f 15/25/7 14/27/7 16/28/7
f 9/29/8 10/30/8 14/31/8
f 9/29/8 14/31/8 13/32/8
f 11/33/9 9/34/9 13/35/9
f 11/33/9 13/35/9 15/36/9
f 16/37/10 14/38/10 10/39/10
f 16/37/10 10/39/10 12/40/10
f 20/41/11 18/42/11 17/43/11
f 20/41/11 17/43/11 19/44/11
f 23/45/12 21/46/12 22/47/12
f 23/45/12 22/47/12 24/48/12
f 17/49/13 18/50/13 22/51/13
f 17/49/13 22/51/13 21/52/13
f 19/53/14 17/54/14 21/55/14
f 19/53/14 21/55/14 23/56/14
f 24/57/15 22/58/15 18/59/15
f 24/57/15 18/59/15 20/60/15
f 28/61/16 26/62/16 25/63/16
f 28/61/16 25/63/16 27/64/16
f 31/65/17 29/66/17 30/67/17
f 31/65/17 30/67/17 32/68/17
f 25/69/18 26/70/18 30/71/18
f 25/69/18 30/71/18 29/72/18
f 28/73/19 27/74/19 31/75/19
f 28/73/19 31/75/19 32/76/19
f 27/77/20 25/78/20 29/79/20
f 27/77/20 29/79/20 31/80/20
f 36/81/21 34/82/21 33/83/21
f 36/81/21 33/83/21 35/84/21
f 39/85/22 37/86/22 38/87/22
f 39/85/22 38/87/22 40/88/22
f 33/89/23 34/90/23 38/91/23
f 33/89/23 38/91/23 37/92/23
f 36/93/24 35/94/24 39/95/24
f 36/93/24 39/95/24 40/96/24
f 35/97/25 33/98/25 37/99/25
f 35/97/25 37/99/25 39/100/25
f 44/101/26 42/102/26 41/103/26
f 44/101/26 41/103/26 43/104/26
f 47/105/27 45/106/27 46/107/27
f 47/105/27 46/107/27 48/108/27
f 41/109/28 42/110/28 46/111/28
f 41/109/28 46/111/28 45/112/28
f 44/113/29 43/114/29 47/115/29
f 44/113/29 47/115/29 48/116/29
f 43/117/30 41/118/30 45/119/30
f 43/117/30 45/119/30 47/120/30
f 50/121/31 48/122/31 47/123/31
f 50/121/31 47/123/31 49/124/31
f 53/125/32 51/126/32 52/127/32
f 53/125/32 52/127/32 54/128/32
f 47/129/33 48/130/33 52/131/33
f 47/129/33 52/131/33 51/132/33
f 50/133/34 49/134/34 53/135/34
f 50/133/34 53/135/34 54/136/34
f 49/137/35 47/138/35 51/139/35
f 49/137/35 51/139/35 53/140/35
f 58/141/36 56/142/36 55/143/36
f 58/141/36 55/143/36 57/144/36
f 61/145/37 59/146/37 60/147/37
f 61/145/37 60/147/37 62/148/37
f 55/149/38 56/150/38 60/151/38
f 55/149/38 60/151/38 59/152/38
f 58/153/39 57/154/39 61/155/39
f 58/153/39 61/155/39 62/156/39
f 57/157/40 55/158/40 59/159/40
f 57/157/40 59/159/40 61/160/40
f 63/161/41 64/162/41 66/163/41
f 63/161/41 66/163/41 65/164/41
f 28/165/42 63/166/42 65/167/42
f 28/165/42 65/167/42 67/168/42
f 71/169/43 69/170/43 68/171/43
f 71/169/43 68/171/43 70/172/43
f 74/173/44 72/174/44 73/175/44
f 74/173/44 73/175/44 75/176/44
f 68/177/45 69/178/45 73/179/45
f 68/177/45 73/179/45 72/180/45
f 71/181/46 70/182/46 74/183/46
f 71/181/46 74/183/46 75/184/46
f 70/185/47 68/186/47 72/187/47
f 70/185/47 72/187/47 74/188/47
f 75/189/48 73/190/48 69/191/48
f 75/189/48 69/191/48 71/192/48
f 79/193/49 77/194/49 76/195/49
f 79/193/49 76/195/49 78/196/49
f 82/197/50 80/198/50 81/199/50
f 82/197/50 81/199/50 83/200/50
f 76/201/51 77/202/51 81/203/51
f 76/201/51 81/203/51 80/204/51
f 78/205/52 76/206/52 80/207/52
f 78/205/52 80/207/52 82/208/52
f 83/209/53 81/210/53 77/211/53
f 83/209/53 77/211/53 79/212/53
f 87/213/54 85/214/54 84/215/54
f 87/213/54 84/215/54 86/216/54
f 20/217/55 18/218/55 88/219/55
f 20/217/55 88/219/55 89/220/55
f 84/221/56 85/222/56 88/223/56
f 84/221/56 88/223/56 18/224/56
f 86/225/57 84/226/57 18/227/57
f 86/225/57 18/227/57 20/228/57
f 89/229/58 88/230/58 85/231/58
f 89/229/58 85/231/58 87/232/58
f 93/233/59 91/234/59 90/235/59
f 93/233/59 90/235/59 92/236/59
f 96/237/60 94/238/60 95/239/60
f 96/237/60 95/239/60 97/240/60
f 90/241/61 91/242/61 95/243/61
f 90/241/61 95/243/61 94/244/61
f 92/245/62 90/246/62 94/247/62
f 92/245/62 94/247/62 96/248/62
f 97/249/63 95/250/63 91/251/63
f 97/249/63 91/251/63 93/252/63
f 101/253/64 99/254/64 98/255/64
f 101/253/64 98/255/64 100/256/64
f 104/257/65 102/258/65 103/259/65
f 104/257/65 103/259/65 105/260/65
f 98/261/66 99/262/66 103/263/66
f 98/261/66 103/263/66 102/264/66
f 101/265/67 100/266/67 104/267/67
f 101/265/67 104/267/67 105/268/67
f 100/269/68 98/270/68 102/271/68
f 100/269/68 102/271/68 104/272/68
f 109/273/69 107/274/69 106/275/69
f 109/273/69 106/275/69 108/276/69
f 106/277/70 107/278/70 111/279/70
f 106/277/70 111/279/70 110/280/70
f 109/281/71 108/282/71 112/283/71
f 109/281/71 112/283/71 113/284/71
f 108/285/72 106/286/72 110/287/72
f 108/285/72 110/287/72 112/288/72
f 113/289/73 111/290/73 107/291/73
f 113/289/73 107/291/73 109/292/73
f 117/293/74 115/294/74 114/295/74
f 117/293/74 114/295/74 116/296/74
f 114/297/75 115/298/75 119/299/75
f 114/297/75 119/299/75 118/300/75
f 117/301/76 116/302/76 120/303/76
f 117/301/76 120/303/76 121/304/76
f 116/305/77 114/306/77 118/307/77
f 116/305/77 118/307/77 120/308/77
f 121/309/78 119/310/78 115/311/78
f 121/309/78 115/311/78 117/312/78
f 125/313/79 123/314/79 122/315/79
f 125/313/79 122/315/79 124/316/79
f 122/317/80 123/318/80 126/319/80
f 122/317/80 126/319/80 63/320/80
f 124/321/81 122/322/81 63/323/81
f 124/321/81 63/323/81 28/324/81
f 127/325/82 126/326/82 123/327/82
f 127/325/82 123/327/82 125/328/82
f 130/329/83 128/330/83 117/331/83
f 130/329/83 117/331/83 129/332/83
f 117/333/84 128/334/84 131/335/84
f 117/333/84 131/335/84 121/336/84
f 130/337/85 129/338/85 132/339/85
f 130/337/85 132/339/85 133/340/85
f 129/341/86 117/342/86 121/343/86
f 129/341/86 121/343/86 132/344/86
f 133/345/87 131/346/87 128/347/87
f 133/345/87 128/347/87 130/348/87
f 137/349/88 135/350/88 134/351/88
f 137/349/88 134/351/88 136/352/88
f 128/353/89 138/354/89 139/355/89
f 128/353/89 139/355/89 131/356/89
f 134/357/90 135/358/90 139/359/90
f 134/357/90 139/359/90 138/360/90
f 137/361/91 136/362/91 128/363/91
f 137/361/91 128/363/91 131/364/91
f 136/365/92 134/366/92 138/367/92
f 136/365/92 138/367/92 128/368/92
f 143/369/93 141/370/93 140/371/93
f 143/369/93 140/371/93 142/372/93
f 146/373/94 144/374/94 145/375/94
f 146/373/94 145/375/94 147/376/94
f 140/377/95 141/378/95 145/379/95
f 140/377/95 145/379/95 144/380/95
f 143/381/96 142/382/96 146/383/96
f 143/381/96 146/383/96 147/384/96
f 142/385/97 140/386/97 144/387/97
f 142/385/97 144/387/97 146/388/97
f 150/389/98 148/390/98 126/391/98
f 150/389/98 126/391/98 149/392/98
f 153/393/99 151/394/99 152/395/99
f 153/393/99 152/395/99 154/396/99
f 126/397/100 148/398/100 152/399/100
f 126/397/100 152/399/100 151/400/100
f 150/401/101 149/402/101 153/403/101
f 150/401/101 153/403/101 154/404/101
f 154/405/102 152/406/102 148/407/102
f 154/405/102 148/407/102 150/408/102
f 157/409/103 156/410/103 155/411/103
f 157/409/103 155/411/103 127/412/103
f 160/413/104 158/414/104 159/415/104
f 160/413/104 159/415/104 161/416/104
f 155/417/105 156/418/105 159/419/105
f 155/417/105 159/419/105 158/420/105
f 157/421/106 127/422/106 160/423/106
f 157/421/106 160/423/106 161/424/106
f 161/425/107 159/426/107 156/427/107
f 161/425/107 156/427/107 157/428/107
f 165/429/108 163/430/108 162/431/108
f 165/429/108 162/431/108 164/432/108
f 168/433/109 166/434/109 167/435/109
f 168/433/109 167/435/109 169/436/109
f 162/437/110 163/438/110 167/439/110
f 162/437/110 167/439/110 166/440/110
f 165/441/111 164/442/111 168/443/111
f 165/441/111 168/443/111 169/444/111
f 169/445/112 167/446/112 163/447/112
f 169/445/112 163/447/112 165/448/112
f 173/449/113 171/450/113 170/451/113
f 173/449/113 170/451/113 172/452/113
f 176/453/114 174/454/114 175/455/114
f 176/453/114 175/455/114 177/456/114
f 170/457/115 171/458/115 175/459/115
f 170/457/115 175/459/115 174/460/115
f 173/461/116 172/462/116 176/463/116
f 173/461/116 176/463/116 177/464/116
f 177/465/117 175/466/117 171/467/117
f 177/465/117 171/467/117 173/468/117
f 181/469/118 179/470/118 178/471/118
f 181/469/118 178/471/118 180/472/118
f 184/473/119 182/474/119 183/475/119
f 184/473/119 183/475/119 185/476/119
f 178/477/120 179/478/120 183/479/120
f 178/477/120 183/479/120 182/480/120
f 181/481/121 180/482/121 184/483/121
f 181/481/121 184/483/121 185/484/121
f 185/485/122 183/486/122 179/487/122
f 185/485/122 179/487/122 181/488/122
f 189/489/123 187/490/123 186/491/123
f 189/489/123 186/491/123 188/492/123
f 192/493/124 190/494/124 191/495/124
f 192/493/124 191/495/124 193/496/124
f 186/497/125 187/498/125 191/499/125
f 186/497/125 191/499/125 190/500/125
f 189/501/126 188/502/126 192/503/126
f 189/501/126 192/503/126 193/504/126
f 193/505/127 191/506/127 187/507/127
f 193/505/127 187/507/127 189/508/127
f 194/509/128 126/510/128 196/511/128
f 194/509/128 196/511/128 195/512/128
f 197/513/129 196/514/129 126/515/129
f 197/513/129 126/515/129 127/516/129
f 199/517/130 185/518/130 184/519/130
f 199/517/130 184/519/130 198/520/130
f 202/521/131 200/522/131 201/523/131
f 202/521/131 201/523/131 203/524/131
f 184/525/132 185/526/132 201/527/132
f 184/525/132 201/527/132 200/528/132
f 199/529/133 198/530/133 202/531/133
f 199/529/133 202/531/133 203/532/133
f 203/533/134 201/534/134 185/535/134
f 203/533/134 185/535/134 199/536/134
f 210/537/135 208/538/135 209/539/135
f 210/537/135 209/539/135 211/540/135
f 204/541/136 205/542/136 209/543/136
f 204/541/136 209/543/136 208/544/136
f 207/545/137 206/546/137 210/547/137
f 207/545/137 210/547/137 211/548/137
f 206/549/138 204/550/138 208/551/138
f 206/549/138 208/551/138 210/552/138
f 211/553/139 209/554/139 205/555/139
f 211/553/139 205/555/139 207/556/139
f 218/557/140 216/558/140 217/559/140
f 218/557/140 217/559/140 219/560/140
f 212/561/141 213/562/141 217/563/141
f 212/561/141 217/563/141 216/564/141
f 215/565/142 214/566/142 218/567/142
f 215/565/142 218/567/142 219/568/142
f 214/569/143 212/570/143 216/571/143
f 214/569/143 216/571/143 218/572/143
f 219/573/144 217/574/144 213/575/144
f 219/573/144 213/575/144 215/576/144
f 223/577/145 221/578/145 220/579/145
f 223/577/145 220/579/145 222/580/145
f 226/581/146 224/582/146 225/583/146
f 226/581/146 225/583/146 227/584/146
f 220/585/147 221/586/147 225/587/147
f 220/585/147 225/587/147 224/588/147
f 223/589/148 222/590/148 226/591/148
f 223/589/148 226/591/148 227/592/148
f 227/593/149 225/594/149 221/595/149
f 227/593/149 221/595/149 223/596/149
f 234/597/150 232/598/150 233/599/150
f 234/597/150 233/599/150 235/600/150
f 228/601/151 229/602/151 233/603/151
f 228/601/151 233/603/151 232/604/151
f 231/605/152 230/606/152 234/607/152
f 231/605/152 234/607/152 235/608/152
f 230/609/153 228/610/153 232/611/153
f 230/609/153 232/611/153 234/612/153
f 235/613/154 233/614/154 229/615/154
f 235/613/154 229/615/154 231/616/154
f 241/617/155 239/618/155 240/619/155
f 241/617/155 240/619/155 242/620/155
f 236/621/156 192/622/156 240/623/156
f 236/621/156 240/623/156 239/624/156
f 238/625/157 237/626/157 241/627/157
f 238/625/157 241/627/157 242/628/157
f 237/629/158 236/630/158 239/631/158
f 237/629/158 239/631/158 241/632/158
f 242/633/159 240/634/159 192/635/159
f 242/633/159 192/635/159 238/636/159
f 244/637/160 243/638/160 190/639/160
f 244/637/160 190/639/160 245/640/160
f 65/641/161 196/642/161 190/643/161
f 65/641/161 190/643/161 243/644/161
f 67/645/162 65/646/162 243/647/162
f 67/645/162 243/647/162 244/648/162
f 245/649/163 190/650/163 196/651/163
f 245/649/163 196/651/163 197/652/163
f 249/653/164 247/654/164 246/655/164
f 249/653/164 246/655/164 248/656/164
f 252/657/165 250/658/165 251/659/165
f 252/657/165 251/659/165 253/660/165
f 246/661/166 247/662/166 251/663/166
f 246/661/166 251/663/166 250/664/166
f 248/665/167 246/666/167 250/667/167
f 248/665/167 250/667/167 252/668/167
f 253/669/168 251/670/168 247/671/168
f 253/669/168 247/671/168 249/672/168
f 258/673/169 254/674/169 256/675/169
f 258/673/169 256/675/169 259/676/169
f 260/677/170 257/678/170 255/679/170
f 260/677/170 255/679/170 261/680/170
f 256/681/171 254/682/171 255/683/171
f 256/681/171 255/683/171 257/684/171
f 259/685/172 256/686/172 257/687/172
f 259/685/172 257/687/172 260/688/172
f 261/689/173 255/690/173 254/691/173
f 261/689/173 254/691/173 258/692/173
f 266/693/174 262/694/174 264/695/174
f 266/693/174 264/695/174 267/696/174
f 268/697/175 265/698/175 263/699/175
f 268/697/175 263/699/175 269/700/175
f 264/701/176 262/702/176 263/703/176
f 264/701/176 263/703/176 265/704/176
f 267/705/177 264/706/177 265/707/177
f 267/705/177 265/707/177 268/708/177
f 269/709/178 263/710/178 262/711/178
f 269/709/178 262/711/178 266/712/178
f 245/713/179 271/714/179 270/715/179
f 245/713/179 270/715/179 244/716/179
f 244/717/180 270/718/180 272/719/180
f 244/717/180 272/719/180 124/720/180
f 124/721/181 272/722/181 273/723/181
f 124/721/181 273/723/181 125/724/181
f 125/725/182 273/726/182 271/727/182
f 125/725/182 271/727/182 245/728/182
f 64/729/183 194/730/183 275/731/183
f 64/729/183 275/731/183 274/732/183
f 195/733/184 66/734/184 276/735/184
f 195/733/184 276/735/184 277/736/184
f 66/737/185 64/738/185 274/739/185
f 66/737/185 274/739/185 276/740/185
f 194/741/186 195/742/186 277/743/186
f 194/741/186 277/743/186 275/744/186