# Made by Pabilo8 with Blockbench
# Exported with IIToolkit Plugin
mtllib flagpole.mtl


o variant_wooden
v 1.9375 -1.287036875 2.9375
v 1.9375 -1.287036875 0.0625
v 1.9375 -0.04375 0.0625
v 1.9375 -0.04375 2.9375
v -0.9375 -1.287036875 0.0625
v -0.9375 -1.287036875 2.9375
v -0.9375 -0.04375 2.9375
v -0.9375 -0.04375 0.0625
v -0.693125 -0.04375 2.693125
v 1.993166875 0.25 1.3065125
v 1.944095 0.25 0.18258312500000007
v 1.993166875 0 1.3065125
v 1.944095 0 0.18258312500000007
v 1.743405 0.25 1.317416875
v 1.694333125 0.25 0.19348750000000003
v 1.743405 0 1.317416875
v 1.694333125 0 0.19348750000000003
v 1.898075625 0.25 2.9500731250000003
v 2.012285625 0.25 2.08255875
v 1.898075625 0 2.9500731250000003
v 2.012285625 0 2.08255875
v 1.650214375 0.25 2.91744125
v 1.764424375 0.25 2.049926875
v 1.650214375 0 2.91744125
v 1.764424375 0 2.049926875
v -0.19527125 0.25 0.013666249999999991
v -0.8859049999999999 0.25 0.06273812500000009
v -0.19527125 0 0.013666249999999991
v -0.8859049999999999 0 0.06273812500000009
v -0.188570625 0.25 0.2634281249999999
v -0.879204375 0.25 0.3125
v -0.188570625 0 0.2634281249999999
v -0.879204375 0 0.3125
v -0.15952062499999997 0.25 2.7448562499999998
v -1.031190625 0.25 2.668595
v -0.15952062499999997 0 2.7448562499999998
v -1.031190625 0 2.668595
v -0.181309375 0.25 2.993905
v -1.052979375 0.25 2.91764375
v -0.181309375 0 2.993905
v -1.052979375 0 2.91764375
v -0.694333125 0.25 1.4940125
v -0.7434050000000001 0.25 0.37008312500000007
v -0.694333125 0 1.4940125
v -0.7434050000000001 0 0.37008312500000007
v -0.9440949999999999 0.25 1.504916875
v -0.993166875 0.25 0.38098750000000003
v -0.9440949999999999 0 1.504916875
v -0.993166875 0 0.38098750000000003
v -0.6875 0.1875 1.625
v -0.875 0.1875 1.625
v -0.6875 0 1.625
v -0.875 0 1.625
v -0.6875 0.1875 2.5
v -0.875 0.1875 2.5
v -0.6875 0 2.5
v -0.875 0 2.5
v -0.9375 -0.312821875 2.9415843749999997
v -0.9375 -0.18741625 0.06932062500000002
v -0.9375 -0.56258375 2.930679375
v -0.9375 -0.437178125 0.05841562500000008
v -1 -0.312821875 2.9415843749999997
v -1 -0.18741625 0.06932062500000002
v -1 -0.56258375 2.930679375
v -1.0020425 -0.4370175 0.05841562500000008
v -1 -0.25011875 1.5054525
v -1 -0.49988125 1.4945475
v -0.9375 -0.49988125 1.4945475
v -0.9375 -0.25011875 1.5054525
v -0.9375 -0.625 2.9375
v -0.9375 -0.625 0.0625
v -0.9375 -0.875 2.9375
v -0.9375 -0.875 0.0625
v -1 -0.625 2.9375
v -1 -0.625 0.0625
v -1 -0.875 2.9375
v -1 -0.875 0.0625
v -1 -0.625 1.5
v -1 -0.875 1.5
v -0.9375 -0.875 1.5
v -0.9375 -0.625 1.5
v 2 -0.56258375 0.06932062500000002
v 2 -0.312821875 0.05841562500000008
v 2 -0.56258375 0.006820625000000025
v -1.004084375 -0.43685625 -0.004084374999999918
v 2 -0.312821875 -0.004084374999999918
v -1 -0.18741625 0.006820625000000025
v 0.43204750000000003 -0.499559375 -0.004084374999999918
v 0.44295249999999997 -0.249796875 -0.004084374999999918
v 0.44295249999999997 -0.249796875 0.05841562500000008
v 0.43204750000000003 -0.499559375 0.05841562500000008
v 2 -0.875 0.0625
v 2 -0.625 0.0625
v 2 -0.875 0
v -1 -0.875 0
v 2 -0.625 0
v -1 -0.625 0
v 0.4375 -0.875 0
v 0.4375 -0.625 0
v 0.4375 -0.625 0.0625
v 0.4375 -0.875 0.0625
v 1.9375 -0.312821875 0.05841562500000008
v 1.9375 -0.18741625 2.930679375
v 1.9375 -0.56258375 0.06932062500000002
v 1.9375 -0.437178125 2.9415843749999997
v 2 -0.18741625 2.930679375
v 2 -0.437178125 2.9415843749999997
v 2 -0.25011875 1.4945475
v 2 -0.49988125 1.5054525
v 1.9375 -0.49988125 1.5054525
v 1.9375 -0.25011875 1.4945475
v 1.9375 -0.625 0.0625
v 1.9375 -0.625 2.9375
v 1.9375 -0.875 0.0625
v 1.9375 -0.875 2.9375
v 2 -0.625 2.9375
v 2 -0.875 2.9375
v 2 -0.625 1.5
v 2 -0.875 1.5
v 1.9375 -0.875 1.5
v 1.9375 -0.625 1.5
v 2 -0.18741625 2.993179375
v -1 -0.312821875 3.0040843749999997
v 2 -0.437178125 3.0040843749999997
v -1 -0.56258375 2.993179375
v 0.436131875 -0.25011875 3.0040843749999997
v 0.447036875 -0.49988125 3.0040843749999997
v 0.447036875 -0.49988125 2.9415843749999997
v 0.436131875 -0.25011875 2.9415843749999997
v 2 -0.625 3
v -1 -0.625 3
v 2 -0.875 3
v -1 -0.875 3
v 0.4375 -0.625 3
v 0.4375 -0.875 3
v 0.4375 -0.875 2.9375
v 0.4375 -0.625 2.9375
v -0.9375 -1.062821875 2.9415843749999997
v -0.9375 -0.93741625 0.06932062500000002
v -0.9375 -1.3125 2.9375
v -0.9375 -1.187178125 0.05841562500000008
v -1.0020425 -1.062983125 2.9415843749999997
v -1 -0.93741625 0.06932062500000002
v -1 -1.3125 2.9375
v -1 -1.187178125 0.05841562500000008
v -1 -1.00011875 1.5054525
v -1 -1.24988125 1.4945475
v -0.9375 -1.24988125 1.4945475
v -0.9375 -1.00011875 1.5054525
v 2 -1.31258375 0.06932062500000002
v 2 -1.062821875 0.05841562500000008
v 2 -1.31258375 0.006820625000000025
v -1 -1.187178125 -0.004084374999999918
v 2 -1.062821875 -0.004084374999999918
v -1 -0.93741625 0.006820625000000025
v 0.436131875 -1.24988125 -0.004084374999999918
v 0.447036875 -1.00011875 -0.004084374999999918
v 0.447036875 -1.00011875 0.05841562500000008
v 0.436131875 -1.24988125 0.05841562500000008
v 1.9375 -1.062821875 0.05841562500000008
v 1.9375 -0.93741625 2.930679375
v 1.9375 -1.3125 0.0625
v 1.9375 -1.187178125 2.9415843749999997
v 2 -0.93741625 2.930679375
v 2 -1.3125 0.0625
v 2 -1.187178125 2.9415843749999997
v 2 -1.00011875 1.4945475
v 2 -1.24988125 1.5054525
v 1.9375 -1.24988125 1.5054525
v 1.9375 -1.00011875 1.4945475
v 2.003965 -1.1820475 2.9415843749999997
v 2 -0.93741625 2.993179375
v -1.004084375 -1.06314375 3.0040843749999997
v 2.003965 -1.1820475 3.0040843749999997
v -1 -1.3125 3
v 0.43204750000000003 -1.000440625 3.0040843749999997
v 0.44295249999999997 -1.250203125 3.0040843749999997
v 0.44295249999999997 -1.250203125 2.9415843749999997
v 0.43204750000000003 -1.000440625 2.9415843749999997
v -1 0.003125 0.0625
v -1 -0.1875 0.0625
v -1 0.003125 2.9375
v -1 -0.1875 2.9375
v 2 0.003125 2.9375
v 2 0.003125 0.0625
v 2 -0.1875 2.9375
v 2 -0.1875 0.0625
v 1.9375 0.003125 2.9375
v -0.9375 0.003125 2.9375
v 1.9375 -0.1875 2.9375
v -0.9375 -0.1875 2.9375
v -0.9375 0.003125 0.0625
v 1.9375 0.003125 0.0625
v -0.9375 -0.1875 0.0625
v 1.9375 -0.1875 0.0625
v -1 0.003125 3
v -1 0.003125 0
v -1 -0.1875 3
v -1 -0.1875 0
v 2 0.003125 0
v 2 0.003125 3
v 2 -0.1875 0
v 2 -0.1875 3
v -0.9437500000000001 -0.212325 0.34124687499999995
v -1.00625 -0.212325 0.34124687499999995
v -0.9437500000000001 -1.32023375 0.53660125
v -1.00625 -1.32023375 0.53660125
v -0.9437500000000001 -0.17976625 0.52589875
v -1.00625 -0.17976625 0.52589875
v -0.9437500000000001 -1.287675 0.721253125
v -1.00625 -1.287675 0.721253125
v -0.9437500000000001 -0.185343125 1.23598625
v -1.00625 -0.185343125 1.23598625
v -0.9437500000000001 -1.258274375 0.897691875
v -1.00625 -1.258274375 0.897691875
v -0.9437500000000001 -0.241725625 1.414808125
v -1.00625 -0.241725625 1.414808125
v -0.9437500000000001 -1.314656875 1.07651375
v -1.00625 -1.314656875 1.07651375
v -0.9437500000000001 -0.180075625 1.824223125
v -1.00625 -0.180075625 1.824223125
v -0.9437500000000001 -1.295450625 1.67738125
v -1.00625 -1.295450625 1.67738125
v -0.9437500000000001 -0.204549375 2.01011875
v -1.00625 -0.204549375 2.01011875
v -0.9437500000000001 -1.319924375 1.863276875
v -1.00625 -1.319924375 1.863276875
v -0.9437500000000001 -0.204549375 2.30238125
v -1.00625 -0.204549375 2.30238125
v -0.9437500000000001 -1.319924375 2.449223125
v -1.00625 -1.319924375 2.449223125
v -0.9437500000000001 -0.180075625 2.488276875
v -1.00625 -0.180075625 2.488276875
v -0.9437500000000001 -1.295450625 2.63511875
v -1.00625 -1.295450625 2.63511875
v 1.94375 -0.212325 0.34124687499999995
v 2.00625 -0.212325 0.34124687499999995
v 1.94375 -1.32023375 0.53660125
v 2.00625 -1.32023375 0.53660125
v 1.94375 -0.17976625 0.52589875
v 2.00625 -0.17976625 0.52589875
v 1.94375 -1.287675 0.721253125
v 2.00625 -1.287675 0.721253125
v 1.94375 -0.185343125 1.23598625
v 2.00625 -0.185343125 1.23598625
v 1.94375 -1.258274375 0.897691875
v 2.00625 -1.258274375 0.897691875
v 1.94375 -0.241725625 1.414808125
v 2.00625 -0.241725625 1.414808125
v 1.94375 -1.314656875 1.07651375
v 2.00625 -1.314656875 1.07651375
v 1.94375 -0.180075625 1.824223125
v 2.00625 -0.180075625 1.824223125
v 1.94375 -1.295450625 1.67738125
v 2.00625 -1.295450625 1.67738125
v 1.94375 -0.204549375 2.01011875
v 2.00625 -0.204549375 2.01011875
v 1.94375 -1.319924375 1.863276875
v 2.00625 -1.319924375 1.863276875
v 1.94375 -0.204549375 2.30238125
v 2.00625 -0.204549375 2.30238125
v 1.94375 -1.319924375 2.449223125
v 2.00625 -1.319924375 2.449223125
v 1.94375 -0.180075625 2.488276875
v 2.00625 -0.180075625 2.488276875
v 1.94375 -1.295450625 2.63511875
v 2.00625 -1.295450625 2.63511875
v 1.783753125 -0.212325 0.05624999999999991
v 1.783753125 -0.212325 -0.006250000000000089
v 1.58839875 -1.32023375 0.05624999999999991
v 1.58839875 -1.32023375 -0.006250000000000089
v 1.59910125 -0.17976625 0.05624999999999991
v 1.59910125 -0.17976625 -0.006250000000000089
v 1.403746875 -1.287675 0.05624999999999991
v 1.403746875 -1.287675 -0.006250000000000089
v 0.8890137499999999 -0.185343125 0.05624999999999991
v 0.8890137499999999 -0.185343125 -0.006250000000000089
v 1.227308125 -1.258274375 0.05624999999999991
v 1.227308125 -1.258274375 -0.006250000000000089
v 0.710191875 -0.241725625 0.05624999999999991
v 0.710191875 -0.241725625 -0.006250000000000089
v 1.0484862499999998 -1.314656875 0.05624999999999991
v 1.0484862499999998 -1.314656875 -0.006250000000000089
v 0.300776875 -0.180075625 0.05624999999999991
v 0.300776875 -0.180075625 -0.006250000000000089
v 0.44761875 -1.295450625 0.05624999999999991
v 0.44761875 -1.295450625 -0.006250000000000089
v 0.11488124999999999 -0.204549375 0.05624999999999991
v 0.11488124999999999 -0.204549375 -0.006250000000000089
v 0.261723125 -1.319924375 0.05624999999999991
v 0.261723125 -1.319924375 -0.006250000000000089
v -0.17738125000000005 -0.204549375 0.05624999999999991
v -0.17738125000000005 -0.204549375 -0.006250000000000089
v -0.32422312499999995 -1.319924375 0.05624999999999991
v -0.32422312499999995 -1.319924375 -0.006250000000000089
v -0.36327687500000005 -0.180075625 0.05624999999999991
v -0.36327687500000005 -0.180075625 -0.006250000000000089
v -0.51011875 -1.295450625 0.05624999999999991
v -0.51011875 -1.295450625 -0.006250000000000089
v 1.783753125 -0.212325 2.94375
v 1.783753125 -0.212325 3.00625
v 1.58839875 -1.32023375 2.94375
v 1.58839875 -1.32023375 3.00625
v 1.59910125 -0.17976625 2.94375
v 1.59910125 -0.17976625 3.00625
v 1.403746875 -1.287675 2.94375
v 1.403746875 -1.287675 3.00625
v 0.8890137499999999 -0.185343125 2.94375
v 0.8890137499999999 -0.185343125 3.00625
v 1.227308125 -1.258274375 2.94375
v 1.227308125 -1.258274375 3.00625
v 0.710191875 -0.241725625 2.94375
v 0.710191875 -0.241725625 3.00625
v 1.0484862499999998 -1.314656875 2.94375
v 1.0484862499999998 -1.314656875 3.00625
v 0.300776875 -0.180075625 2.94375
v 0.300776875 -0.180075625 3.00625
v 0.44761875 -1.295450625 2.94375
v 0.44761875 -1.295450625 3.00625
v 0.11488124999999999 -0.204549375 2.94375
v 0.11488124999999999 -0.204549375 3.00625
v 0.261723125 -1.319924375 2.94375
v 0.261723125 -1.319924375 3.00625
v -0.17738125000000005 -0.204549375 2.94375
v -0.17738125000000005 -0.204549375 3.00625
v -0.32422312499999995 -1.319924375 2.94375
v -0.32422312499999995 -1.319924375 3.00625
v -0.36327687500000005 -0.180075625 2.94375
v -0.36327687500000005 -0.180075625 3.00625
v -0.51011875 -1.295450625 2.94375
v -0.51011875 -1.295450625 3.00625
v 2 -1.3125 3
v 2 -1.3125 0
v -1 -1.3125 0
v 2 -3 0
v 2 -3 3
v -1 -3 3
v -1 -3 0
v -0.7450000000000001 -1.3125 2.745
v 1.693125 -0.04375 2.693125
v 1.745 -1.3125 2.745
v 1.693125 -0.04375 0.306875
v 1.745 -1.3125 0.2549999999999999
v -0.7450000000000001 -1.3125 0.2549999999999999
v -0.693125 -0.04375 0.306875
v 1.693125 -0.04375 2.693125
v 1.745 -1.3125 2.745
v -0.7450000000000001 -1.3125 2.745
v -0.693125 -0.04375 2.693125
v 1.693125 -0.04375 0.306875
v 1.745 -1.3125 0.2549999999999999
v -0.7450000000000001 -1.3125 0.2549999999999999
v -0.693125 -0.04375 0.306875
vt 0.015625 0.625
vt 0.734375 0.625
vt 0.734375 0.9375
vt 0.015625 0.9375
vt 0.015625 0.625
vt 0.734375 0.625
vt 0.734375 0.9375
vt 0.015625 0.9375
vt 0.015625 0.625
vt 0.734375 0.625
vt 0.734375 0.9375
vt 0.015625 0.9375
vt 0.015625 0.625
vt 0.734375 0.625
vt 0.734375 0.9375
vt 0.015625 0.9375
vt 0.0625 1
vt 0.6875 1
vt 0.75 0.9375
vt 0 0.9375
vt 0.6875 1
vt 0.0625 1
vt 0 0.9375
vt 0.75 0.9375
vt 0.0625 1
vt 0.6875 1
vt 0.75 0.9375
vt 0 0.9375
vt 0.6875 1
vt 0.0625 1
vt 0 0.9375
vt 0.75 0.9375
vt 0.8125 0.9375
vt 0.8125 1
vt 0.53125 1
vt 0.53125 0.9375
vt 0.8125 0.9375
vt 0.8125 1
vt 0.53125 1
vt 0.53125 0.9375
vt 0.8125 1
vt 0.53125 1
vt 0.53125 0.9375
vt 0.8125 0.9375
vt 0.8125 1
vt 0.53125 1
vt 0.53125 0.9375
vt 0.8125 0.9375
vt 0.8125 0.9375
vt 0.8125 1
vt 0.75 1
vt 0.75 0.9375
vt 0.8125 0.9375
vt 0.8125 1
vt 0.75 1
vt 0.75 0.9375
vt 0.75 0.9375
vt 0.75 1
vt 0.53125 1
vt 0.53125 0.9375
vt 0.75 0.9375
vt 0.75 1
vt 0.53125 1
vt 0.53125 0.9375
vt 0.75 1
vt 0.53125 1
vt 0.53125 0.9375
vt 0.75 0.9375
vt 0.75 1
vt 0.53125 1
vt 0.53125 0.9375
vt 0.75 0.9375
vt 0.8125 0.9375
vt 0.8125 1
vt 0.75 1
vt 0.75 0.9375
vt 0.8125 0.9375
vt 0.8125 1
vt 0.75 1
vt 0.75 0.9375
vt 0.640625 0.9375
vt 0.640625 1
vt 0.359375 1
vt 0.359375 0.9375
vt 0.640625 0.9375
vt 0.640625 1
vt 0.359375 1
vt 0.359375 0.9375
vt 0.640625 1
vt 0.359375 1
vt 0.359375 0.9375
vt 0.640625 0.9375
vt 0.640625 1
vt 0.359375 1
vt 0.359375 0.9375
vt 0.640625 0.9375
vt 0.8125 0.9375
vt 0.8125 1
vt 0.75 1
vt 0.75 0.9375
vt 0.8125 0.9375
vt 0.8125 1
vt 0.75 1
vt 0.75 0.9375
vt 0.375 0.9375
vt 0.375 1
vt 0.15625 1
vt 0.15625 0.9375
vt 0.375 0.9375
vt 0.375 1
vt 0.15625 1
vt 0.15625 0.9375
vt 0.375 1
vt 0.15625 1
vt 0.15625 0.9375
vt 0.375 0.9375
vt 0.375 1
vt 0.15625 1
vt 0.15625 0.9375
vt 0.375 0.9375
vt 0.8125 0.9375
vt 0.8125 1
vt 0.75 1
vt 0.75 0.9375
vt 0.8125 0.9375
vt 0.8125 1
vt 0.75 1
vt 0.75 0.9375
vt 0.28125 0.9375
vt 0.28125 1
vt 0 1
vt 0 0.9375
vt 0.28125 0.9375
vt 0.28125 1
vt 0 1
vt 0 0.9375
vt 0.28125 1
vt 0 1
vt 0 0.9375
vt 0.28125 0.9375
vt 0.28125 1
vt 0 1
vt 0 0.9375
vt 0.28125 0.9375
vt 0.8125 0.9375
vt 0.8125 1
vt 0.75 1
vt 0.75 0.9375
vt 0.8125 0.9375
vt 0.8125 1
vt 0.75 1
vt 0.75 0.9375
vt 0.953125 1
vt 0.90625 1
vt 0.90625 0.953125
vt 0.953125 0.953125
vt 0.953125 1
vt 0.90625 1
vt 0.90625 0.953125
vt 0.953125 0.953125
vt 1 0.90625
vt 0.953125 0.90625
vt 0.953125 0.6875
vt 1 0.6875
vt 1 0.90625
vt 0.953125 0.90625
vt 0.953125 0.6875
vt 1 0.6875
vt 1 0.90625
vt 0.953125 0.90625
vt 0.953125 0.6875
vt 1 0.6875
vt 1 0.90625
vt 0.953125 0.90625
vt 0.953125 0.6875
vt 1 0.6875
vt 0 0.9375
vt 0.359375 0.9375
vt 0.359375 1
vt 0 1
vt 0 0.984375
vt 0.359375 0.984375
vt 0.359375 1
vt 0 1
vt 0.640625 1
vt 0.28125 1
vt 0.28125 0.984375
vt 0.640625 0.984375
vt 0.75 1
vt 0.390625 1
vt 0.390625 0.9375
vt 0.75 0.9375
vt 0.109375 0.984375
vt 0.46875 0.984375
vt 0.46875 1
vt 0.109375 1
vt 0.75 1
vt 0.390625 1
vt 0.390625 0.984375
vt 0.75 0.984375
vt 0 0.9375
vt 0.359375 0.9375
vt 0.359375 1
vt 0 1
vt 0 0.984375
vt 0.359375 0.984375
vt 0.359375 1
vt 0 1
vt 0.640625 1
vt 0.28125 1
vt 0.28125 0.984375
vt 0.640625 0.984375
vt 0.75 1
vt 0.390625 1
vt 0.390625 0.9375
vt 0.75 0.9375
vt 0.109375 0.984375
vt 0.46875 0.984375
vt 0.46875 1
vt 0.109375 1
vt 0.75 1
vt 0.390625 1
vt 0.390625 0.984375
vt 0.75 0.984375
vt 0 0.9375
vt 0.359375 0.9375
vt 0.359375 1
vt 0 1
vt 0 0.984375
vt 0.359375 0.984375
vt 0.359375 1
vt 0 1
vt 0.578125 1
vt 0.21879390625 1
vt 0.21875 0.984375
vt 0.57808109375 0.984375
vt 0.015625 0.9375
vt 0.015625 1
vt 0 1
vt 0 0.9375
vt 0.015625 0.9375
vt 0.015625 1
vt 0 1
vt 0 0.9375
vt 0.75 1
vt 0.390625 1
vt 0.390625 0.9375
vt 0.75 0.9375
vt 0.140625 0.984375
vt 0.5 0.984375
vt 0.5 1
vt 0.140625 1
vt 0.359375 0.984375
vt 0.71875 0.984375
vt 0.71875 1
vt 0.359375 1
vt 0 0.9375
vt 0.359375 0.9375
vt 0.359375 1
vt 0 1
vt 0 0.984375
vt 0.359375 0.984375
vt 0.359375 1
vt 0 1
vt 0.578125 1
vt 0.21879390625 1
vt 0.21875 0.984375
vt 0.57808109375 0.984375
vt 0.015625 0.9375
vt 0.015625 1
vt 0 1
vt 0 0.9375
vt 0.015625 0.9375
vt 0.015625 1
vt 0 1
vt 0 0.9375
vt 0.75 1
vt 0.390625 1
vt 0.390625 0.9375
vt 0.75 0.9375
vt 0.140625 0.984375
vt 0.5 0.984375
vt 0.5 1
vt 0.140625 1
vt 0.359375 0.984375
vt 0.71875 0.984375
vt 0.71875 1
vt 0.359375 1
vt 0 0.9375
vt 0.359375 0.9375
vt 0.359375 1
vt 0 1
vt 0 0.984375
vt 0.359375 0.984375
vt 0.359375 1
vt 0 1
vt 0.640625 1
vt 0.28125 1
vt 0.28125 0.984375
vt 0.640625 0.984375
vt 0.75 1
vt 0.390625 1
vt 0.390625 0.9375
vt 0.75 0.9375
vt 0.109375 0.984375
vt 0.46875 0.984375
vt 0.46875 1
vt 0.109375 1
vt 0.75 1
vt 0.390625 1
vt 0.390625 0.984375
vt 0.75 0.984375
vt 0 0.9375
vt 0.359375 0.9375
vt 0.359375 1
vt 0 1
vt 0 0.984375
vt 0.359375 0.984375
vt 0.359375 1
vt 0 1
vt 0.640625 1
vt 0.28125 1
vt 0.28125 0.984375
vt 0.640625 0.984375
vt 0.75 1
vt 0.390625 1
vt 0.390625 0.9375
vt 0.75 0.9375
vt 0.109375 0.984375
vt 0.46875 0.984375
vt 0.46875 1
vt 0.109375 1
vt 0.75 1
vt 0.390625 1
vt 0.390625 0.984375
vt 0.75 0.984375
vt 0 0.9375
vt 0.359375 0.9375
vt 0.359375 1
vt 0 1
vt 0 0.984375
vt 0.359375 0.984375
vt 0.359375 1
vt 0 1
vt 0.578125 1
vt 0.21879390625 1
vt 0.21875 0.984375
vt 0.57808109375 0.984375
vt 0.015625 0.9375
vt 0.015625 1
vt 0 1
vt 0 0.9375
vt 0.015625 0.9375
vt 0.015625 1
vt 0 1
vt 0 0.9375
vt 0.75 1
vt 0.390625 1
vt 0.390625 0.9375
vt 0.75 0.9375
vt 0.140625 0.984375
vt 0.5 0.984375
vt 0.5 1
vt 0.140625 1
vt 0.359375 0.984375
vt 0.71875 0.984375
vt 0.71875 1
vt 0.359375 1
vt 0 0.9375
vt 0.359375 0.9375
vt 0.359375 1
vt 0 1
vt 0 0.984375
vt 0.359375 0.984375
vt 0.359375 1
vt 0 1
vt 0.578125 1
vt 0.21879390625 1
vt 0.21875 0.984375
vt 0.57808109375 0.984375
vt 0.015625 0.9375
vt 0.015625 1
vt 0 1
vt 0 0.9375
vt 0.015625 0.9375
vt 0.015625 1
vt 0 1
vt 0 0.9375
vt 0.75 1
vt 0.390625 1
vt 0.390625 0.9375
vt 0.75 0.9375
vt 0.140625 0.984375
vt 0.5 0.984375
vt 0.5 1
vt 0.140625 1
vt 0.359375 0.984375
vt 0.71875 0.984375
vt 0.71875 1
vt 0.359375 1
vt 0 0.9375
vt 0.359375 0.9375
vt 0.359375 1
vt 0 1
vt 0 0.984375
vt 0.359375 0.984375
vt 0.359375 1
vt 0 1
vt 0.640625 1
vt 0.28125 1
vt 0.28125 0.984375
vt 0.640625 0.984375
vt 0.75 1
vt 0.390625 1
vt 0.390625 0.9375
vt 0.75 0.9375
vt 0.109375 0.984375
vt 0.46875 0.984375
vt 0.46875 1
vt 0.109375 1
vt 0.75 1
vt 0.390625 1
vt 0.390625 0.984375
vt 0.75 0.984375
vt 0 0.9375
vt 0.359375 0.9375
vt 0.359375 1
vt 0 1
vt 0 0.984375
vt 0.359375 0.984375
vt 0.359375 1
vt 0 1
vt 0.578125 1
vt 0.21879390625 1
vt 0.21875 0.984375
vt 0.57808109375 0.984375
vt 0.015625 0.9375
vt 0.015625 1
vt 0 1
vt 0 0.9375
vt 0.015625 0.9375
vt 0.015625 1
vt 0 1
vt 0 0.9375
vt 0.75 1
vt 0.390625 1
vt 0.390625 0.9375
vt 0.75 0.9375
vt 0.140625 0.984375
vt 0.5 0.984375
vt 0.5 1
vt 0.140625 1
vt 0.359375 0.984375
vt 0.71875 0.984375
vt 0.71875 1
vt 0.359375 1
vt 0 0.9375
vt 0.359375 0.9375
vt 0.359375 1
vt 0 1
vt 0 0.984375
vt 0.359375 0.984375
vt 0.359375 1
vt 0 1
vt 0.640625 1
vt 0.28125 1
vt 0.28125 0.984375
vt 0.640625 0.984375
vt 0.75 1
vt 0.390625 1
vt 0.390625 0.9375
vt 0.75 0.9375
vt 0.109375 0.984375
vt 0.46875 0.984375
vt 0.46875 1
vt 0.109375 1
vt 0.75 1
vt 0.390625 1
vt 0.390625 0.984375
vt 0.75 0.984375
vt 0 0.9375
vt 0.359375 0.9375
vt 0.359375 1
vt 0 1
vt 0 0.984375
vt 0.359375 0.984375
vt 0.359375 1
vt 0 1
vt 0.578125 1
vt 0.21879390625 1
vt 0.21875 0.984375
vt 0.57808109375 0.984375
vt 0.015625 0.9375
vt 0.015625 1
vt 0 1
vt 0 0.9375
vt 0.015625 0.9375
vt 0.015625 1
vt 0 1
vt 0 0.9375
vt 0.75 1
vt 0.390625 1
vt 0.390625 0.9375
vt 0.75 0.9375
vt 0.140625 0.984375
vt 0.5 0.984375
vt 0.5 1
vt 0.140625 1
vt 0.359375 0.984375
vt 0.71875 0.984375
vt 0.71875 1
vt 0.359375 1
vt 0.984375 1
vt 0.984375 0.28125
vt 1 0.28125
vt 1 1
vt 0.953125 0.28125
vt 0.953125 1
vt 0.96875 1
vt 0.96875 0.28125
vt 1 1
vt 0.953125 1
vt 0.953125 0.25
vt 1 0.25
vt 0.984375 1
vt 0.984375 0.25
vt 1 0.25
vt 1 1
vt 0.953125 0.25
vt 0.953125 1
vt 0.96875 1
vt 0.96875 0.25
vt 0.984375 1
vt 0.984375 0.28125
vt 1 0.28125
vt 1 1
vt 0.953125 0.28125
vt 0.953125 1
vt 0.96875 1
vt 0.96875 0.28125
vt 1 1
vt 0.953125 1
vt 0.953125 0.25
vt 1 0.25
vt 0.984375 1
vt 0.984375 0.25
vt 1 0.25
vt 1 1
vt 0.953125 0.25
vt 0.953125 1
vt 0.96875 1
vt 0.96875 0.25
vt 0.953125 0.28125
vt 0.953125 1
vt 1 1
vt 1 0.28125
vt 0.953125 0.28125
vt 0.953125 1
vt 1 1
vt 1 0.28125
vt 0.953125 0.28125
vt 0.953125 1
vt 1 1
vt 1 0.28125
vt 0.953125 0.28125
vt 0.953125 1
vt 1 1
vt 1 0.28125
vt 1 1
vt 0.953125 1
vt 0.953125 0.25
vt 1 0.25
vt 1 1
vt 0.953125 1
vt 0.953125 0.25
vt 1 0.25
vt 0.96875 0.609375
vt 0.96875 0.890625
vt 0.953125 0.890625
vt 0.953125 0.609375
vt 0.96875 0.609375
vt 0.96875 0.890625
vt 0.953125 0.890625
vt 0.953125 0.609375
vt 1 0.875
vt 1 0.890625
vt 0.953125 0.890625
vt 0.953125 0.875
vt 1 0.875
vt 1 0.890625
vt 0.953125 0.890625
vt 0.953125 0.875
vt 1 0.609375
vt 1 0.890625
vt 0.953125 0.890625
vt 0.953125 0.609375
vt 0.96875 0.71875
vt 0.96875 1
vt 0.953125 1
vt 0.953125 0.71875
vt 0.96875 0.71875
vt 0.96875 1
vt 0.953125 1
vt 0.953125 0.71875
vt 1 0.984375
vt 1 1
vt 0.953125 1
vt 0.953125 0.984375
vt 1 0.984375
vt 1 1
vt 0.953125 1
vt 0.953125 0.984375
vt 1 0.71875
vt 1 1
vt 0.953125 1
vt 0.953125 0.71875
vt 0.96875 0.4375
vt 0.96875 0.71875
vt 0.953125 0.71875
vt 0.953125 0.4375
vt 0.96875 0.4375
vt 0.96875 0.71875
vt 0.953125 0.71875
vt 0.953125 0.4375
vt 1 0.703125
vt 1 0.71875
vt 0.953125 0.71875
vt 0.953125 0.703125
vt 1 0.703125
vt 1 0.71875
vt 0.953125 0.71875
vt 0.953125 0.703125
vt 1 0.4375
vt 1 0.71875
vt 0.953125 0.71875
vt 0.953125 0.4375
vt 0.96875 0.4375
vt 0.96875 0.71875
vt 0.953125 0.71875
vt 0.953125 0.4375
vt 0.96875 0.4375
vt 0.96875 0.71875
vt 0.953125 0.71875
vt 0.953125 0.4375
vt 1 0.703125
vt 1 0.71875
vt 0.953125 0.71875
vt 0.953125 0.703125
vt 1 0.703125
vt 1 0.71875
vt 0.953125 0.71875
vt 0.953125 0.703125
vt 1 0.4375
vt 1 0.71875
vt 0.953125 0.71875
vt 0.953125 0.4375
vt 0.953125 0.90625
vt 0.96875 0.90625
vt 0.96875 0.625
vt 0.953125 0.625
vt 0.953125 0.90625
vt 0.96875 0.90625
vt 0.96875 0.625
vt 0.953125 0.625
vt 0.953125 0.90625
vt 1 0.90625
vt 1 0.890625
vt 0.953125 0.890625
vt 0.953125 0.90625
vt 1 0.90625
vt 1 0.890625
vt 0.953125 0.890625
vt 0.953125 0.90625
vt 1 0.90625
vt 1 0.625
vt 0.953125 0.625
vt 0.953125 1
vt 0.96875 1
vt 0.96875 0.71875
vt 0.953125 0.71875
vt 0.953125 1
vt 0.96875 1
vt 0.96875 0.71875
vt 0.953125 0.71875
vt 0.953125 1
vt 1 1
vt 1 0.984375
vt 0.953125 0.984375
vt 0.953125 1
vt 1 1
vt 1 0.984375
vt 0.953125 0.984375
vt 0.953125 1
vt 1 1
vt 1 0.71875
vt 0.953125 0.71875
vt 0.953125 0.5625
vt 0.96875 0.5625
vt 0.96875 0.28125
vt 0.953125 0.28125
vt 0.953125 0.5625
vt 0.96875 0.5625
vt 0.96875 0.28125
vt 0.953125 0.28125
vt 0.953125 0.5625
vt 1 0.5625
vt 1 0.546875
vt 0.953125 0.546875
vt 0.953125 0.5625
vt 1 0.5625
vt 1 0.546875
vt 0.953125 0.546875
vt 0.953125 0.5625
vt 1 0.5625
vt 1 0.28125
vt 0.953125 0.28125
vt 0.953125 0.734375
vt 0.96875 0.734375
vt 0.96875 0.453125
vt 0.953125 0.453125
vt 0.953125 0.734375
vt 0.96875 0.734375
vt 0.96875 0.453125
vt 0.953125 0.453125
vt 0.953125 0.734375
vt 1 0.734375
vt 1 0.71875
vt 0.953125 0.71875
vt 0.953125 0.734375
vt 1 0.734375
vt 1 0.71875
vt 0.953125 0.71875
vt 0.953125 0.734375
vt 1 0.734375
vt 1 0.453125
vt 0.953125 0.453125
vt 0.96875 0.3125
vt 0.96875 0.59375
vt 0.953125 0.59375
vt 0.953125 0.3125
vt 0.96875 0.3125
vt 0.96875 0.59375
vt 0.953125 0.59375
vt 0.953125 0.3125
vt 1 0.578125
vt 1 0.59375
vt 0.953125 0.59375
vt 0.953125 0.578125
vt 1 0.578125
vt 1 0.59375
vt 0.953125 0.59375
vt 0.953125 0.578125
vt 1 0.3125
vt 1 0.59375
vt 0.953125 0.59375
vt 0.953125 0.3125
vt 0.96875 0.71875
vt 0.96875 1
vt 0.953125 1
vt 0.953125 0.71875
vt 0.96875 0.71875
vt 0.96875 1
vt 0.953125 1
vt 0.953125 0.71875
vt 1 0.984375
vt 1 1
vt 0.953125 1
vt 0.953125 0.984375
vt 1 0.984375
vt 1 1
vt 0.953125 1
vt 0.953125 0.984375
vt 1 0.71875
vt 1 1
vt 0.953125 1
vt 0.953125 0.71875
vt 0.96875 0.515625
vt 0.96875 0.796875
vt 0.953125 0.796875
vt 0.953125 0.515625
vt 0.96875 0.515625
vt 0.96875 0.796875
vt 0.953125 0.796875
vt 0.953125 0.515625
vt 1 0.78125
vt 1 0.796875
vt 0.953125 0.796875
vt 0.953125 0.78125
vt 1 0.78125
vt 1 0.796875
vt 0.953125 0.796875
vt 0.953125 0.78125
vt 1 0.515625
vt 1 0.796875
vt 0.953125 0.796875
vt 0.953125 0.515625
vt 0.96875 0.71875
vt 0.96875 1
vt 0.953125 1
vt 0.953125 0.71875
vt 0.96875 0.71875
vt 0.96875 1
vt 0.953125 1
vt 0.953125 0.71875
vt 1 0.984375
vt 1 1
vt 0.953125 1
vt 0.953125 0.984375
vt 1 0.984375
vt 1 1
vt 0.953125 1
vt 0.953125 0.984375
vt 1 0.71875
vt 1 1
vt 0.953125 1
vt 0.953125 0.71875
vt 0.953125 1
vt 0.96875 1
vt 0.96875 0.71875
vt 0.953125 0.71875
vt 0.953125 1
vt 0.96875 1
vt 0.96875 0.71875
vt 0.953125 0.71875
vt 0.953125 1
vt 1 1
vt 1 0.984375
vt 0.953125 0.984375
vt 0.953125 1
vt 1 1
vt 1 0.984375
vt 0.953125 0.984375
vt 0.953125 1
vt 1 1
vt 1 0.71875
vt 0.953125 0.71875
vt 0.953125 0.734375
vt 0.96875 0.734375
vt 0.96875 0.453125
vt 0.953125 0.453125
vt 0.953125 0.734375
vt 0.96875 0.734375
vt 0.96875 0.453125
vt 0.953125 0.453125
vt 0.953125 0.734375
vt 1 0.734375
vt 1 0.71875
vt 0.953125 0.71875
vt 0.953125 0.734375
vt 1 0.734375
vt 1 0.71875
vt 0.953125 0.71875
vt 0.953125 0.734375
vt 1 0.734375
vt 1 0.453125
vt 0.953125 0.453125
vt 0.953125 0.53125
vt 0.96875 0.53125
vt 0.96875 0.25
vt 0.953125 0.25
vt 0.953125 0.53125
vt 0.96875 0.53125
vt 0.96875 0.25
vt 0.953125 0.25
vt 0.953125 0.53125
vt 1 0.53125
vt 1 0.515625
vt 0.953125 0.515625
vt 0.953125 0.53125
vt 1 0.53125
vt 1 0.515625
vt 0.953125 0.515625
vt 0.953125 0.53125
vt 1 0.53125
vt 1 0.25
vt 0.953125 0.25
vt 0.953125 1
vt 0.96875 1
vt 0.96875 0.71875
vt 0.953125 0.71875
vt 0.953125 1
vt 0.96875 1
vt 0.96875 0.71875
vt 0.953125 0.71875
vt 0.953125 1
vt 1 1
vt 1 0.984375
vt 0.953125 0.984375
vt 0.953125 1
vt 1 1
vt 1 0.984375
vt 0.953125 0.984375
vt 0.953125 1
vt 1 1
vt 1 0.71875
vt 0.953125 0.71875
vt 0 0.625
vt 0 0.265625
vt 0.75 0.265625
vt 0.75 0.625
vt 0 0.625
vt 0 0.265625
vt 0.75 0.265625
vt 0.75 0.625
vt 0 0.625
vt 0 0.265625
vt 0.75 0.265625
vt 0.75 0.625
vt 0 0.625
vt 0 0.265625
vt 0.75 0.265625
vt 0.75 0.625
vt 0.68625 1
vt 0.06375 1
vt 0 0.93625
vt 0.75 0.93625
vt 0.06375 1
vt 0.68625 1
vt 0.75 0.93625
vt 0 0.93625
vt 0.06375 1
vt 0.68625 1
vt 0.75 0.93625
vt 0 0.93625
vt 0.68625 1
vt 0.06375 1
vt 0 0.93625
vt 0.75 0.93625
vt 0.07546875 1
vt 0.0625 0.682546875
vt 0.685 0.682546875
vt 0.67203125 1
vt 0.07546875 1
vt 0.0625 0.682546875
vt 0.685 0.682546875
vt 0.67203125 1
vt 0.07546875 1
vt 0.0625 0.682546875
vt 0.685 0.682546875
vt 0.67203125 1
vt 0.685 0.682546875
vt 0.0625 0.682546875
vt 0.07546875 1
vt 0.67203125 1
vt 0.07546875 1
vt 0.0625 0.682546875
vt 0.685 0.682546875
vt 0.67203125 1
vt 0.07546875 1
vt 0.0625 0.682546875
vt 0.685 0.682546875
vt 0.67203125 1
vt 0.07546875 1
vt 0.0625 0.682546875
vt 0.685 0.682546875
vt 0.67203125 1
vt 0.685 0.682546875
vt 0.0625 0.682546875
vt 0.07546875 1
vt 0.67203125 1
vn 1 0 0
vn -1 0 0
vn 0 0 1
vn 0 0 -1
vn 0 1 0
vn 0 1 0
vn 0 1 0
vn 0 1 0
vn 0.9990482193070948 0 -0.043619439465945486
vn -0.9990482193070948 0 0.043619439465945486
vn 0 1 0
vn 0 -1 0
vn 0.04361753503443603 0 0.9990483024546509
vn -0.04361753503443592 0 -0.9990483024546509
vn 0.9914449255847266 0 0.13052570448879508
vn -0.9914449255847266 0 -0.13052570448879486
vn 0 1 0
vn 0 -1 0
vn -0.13052745977919356 0 0.9914446944956592
vn 0.130527459779193 0 -0.9914446944956594
vn -0.07087471513203947 0 -0.9974852253316601
vn 0.07087471513203945 0 0.9974852253316601
vn 0 1 0
vn 0 -1 0
vn 0.999640321912361 0 -0.026818404258111977
vn -0.999640321912361 0 0.026818404258111533
vn 0.08715575030621499 0 -0.9961946974304576
vn -0.08715575030621499 0 0.9961946974304576
vn 0 1 0
vn 0 -1 0
vn 0.9961947648731585 0 0.08715497942924849
vn -0.9961947648731585 0 -0.08715497942924849
vn 0.9990482193070948 0 -0.043619439465945486
vn -0.9990482193070948 0 0.043619439465945486
vn 0 1 0
vn 0 -1 0
vn 0.04361753503443606 0 0.9990483024546509
vn -0.04361753503443592 0 -0.9990483024546509
vn 0 0 -1
vn 0 0 1
vn 0 1 0
vn 0 -1 0
vn 1 0 0
vn -1 0 0
vn -0.9999989905763027 -0.0000619778511012491 0.001419508760722186
vn 0 0.9990482328530615 0.043619129211562885
vn 0 -0.9990482139061796 -0.04361956316691735
vn -1 0 0
vn 0 -0.9990482328530615 -0.043619129211562926
vn 0 0.9990482139061796 0.04361956316691735
vn -1 0 0
vn 0 1 0
vn 0 -1 0
vn -1 0 0
vn 0 -1 0
vn 0 1 0
vn -0.007542968267981915 0.00032933714613821066 -0.9999714971771708
vn -0.04361956316691735 -0.9990482139061796 0
vn 0.043190897661373746 0.9990668377837415 0
vn 1 0 0
vn -0.999354036648103 0.014934574429450046 0.032687427579321034
vn 0.006942578003602209 -0.00030312321957573734 -0.999975854071976
vn 0.04044413098115059 0.9991818014101237 0
vn -0.04016290255959473 -0.9991931451215968 0
vn 0 0 -1
vn 0 -1 0
vn 0 1 0
vn 1 0 0
vn -1 0 0
vn 0 0 -1
vn 0 1 0
vn 0 -1 0
vn 1 0 0
vn 0 0.9990482328530615 -0.043619129211562885
vn 0 -0.9990482139061796 0.04361956316691735
vn 1 0 0
vn 0 -0.9990482328530615 0.043619129211562926
vn 0 0.9990482139061796 -0.04361956316691735
vn 1 0 0
vn 0 1 0
vn 0 -1 0
vn 1 0 0
vn 0 -1 0
vn 0 1 0
vn -0.007521645944849278 -0.00032840618198721685 0.9999716580941982
vn -0.04361956316691734 0.9990482139061796 0
vn 0.043291029920516026 -0.9990625039147556 0
vn 1 0 0
vn -1 0 0
vn 0.006960739739119257 0.0003039161877987941 0.9999757275740424
vn 0.040343569846780516 -0.9991858667795587 0
vn -0.04006230474544763 0.9991971836121651 0
vn 0 0 1
vn 0 1 0
vn 0 -1 0
vn 1 0 0
vn -1 0 0
vn 0 0 1
vn 0 -1 0
vn 0 1 0
vn -1 0 0
vn 0 0.9990482328530615 0.043619129211562885
vn 0 -0.9990482139061796 -0.04361956316691738
vn -0.9999989905763409 0.00006197784992583595 -0.0014195087338011295
vn 0 -0.9990597099468668 -0.043355460565912815
vn 0 0.9990482139061796 0.04361956316691738
vn -0.007521645944849278 0.0003284061819872167 -0.9999716580941982
vn -0.043619563166917376 -0.9990482139061796 0
vn 0.04329102992051599 0.9990625039147556 0
vn 1 0 0
vn -1 0 0
vn 0.006960739739119257 -0.000303916187798794 -0.9999757275740424
vn 0.04034356984678055 0.9991858667795587 0
vn -0.04006230474544756 -0.9991971836121651 0
vn 1 0 0
vn 0 0.9990482328530615 -0.043619129211562885
vn 0 -0.9990482139061796 0.04361956316691738
vn 1 0 0
vn 0 -0.9990597099468668 0.043355460565912815
vn 0 0.9990482139061796 -0.04361956316691738
vn -0.0028252309860668213 -0.00012335376168583743 0.9999960014188681
vn -0.04361956316691738 0.9990482139061796 0
vn 0.04313301905807996 -0.9990693382678378 0
vn 0.9998686751354029 0.016205939743642192 0
vn -0.9993401437567191 -0.01583343195237043 -0.03268913441664917
vn 0.00694257800360221 0.00030312321957573724 0.9999758540719761
vn 0.04361960925154224 -0.9990482118940721 0
vn -0.04016290255959473 0.9991931451215968 0
vn 0 1 0
vn 0 -1 0
vn 0 0 -1
vn 0 1 0
vn 0 -1 0
vn 0 1 0
vn 0 -1 0
vn 0 0 1
vn 0 1 0
vn 0 -1 0
vn -1 0 0
vn 1 0 0
vn 0 0 -1
vn 0 0 1
vn -1 0 0
vn 1 0 0
vn 0 -0.17364832440424569 -0.9848077271384491
vn 0 0.17364832440424569 0.9848077271384491
vn 0 0.9848080791610708 -0.1736463279746579
vn 0 -0.9848080791610705 0.17364632797465873
vn -1 0 0
vn 0 0.30070616440566844 -0.9537168356951823
vn 0 -0.3007061644056685 0.9537168356951823
vn 0 0.9537166763680847 0.3007066697255218
vn 0 -0.9537166763680847 -0.30070666972552185
vn -1 0 0
vn 0 0.1305261664475904 -0.991444864766819
vn 0 -0.13052616644759035 0.991444864766819
vn 0 0.9914447739421927 0.13052685632740288
vn 0 -0.9914447739421927 -0.13052685632740313
vn -1 0 0
vn 0 -0.1305261664475903 -0.991444864766819
vn 0 0.1305261664475903 0.991444864766819
vn 0 0.9914447739421927 -0.13052685632740282
vn 0 -0.9914447739421927 0.13052685632740313
vn -1 0 0
vn 0 -0.17364832440424569 -0.9848077271384491
vn 0 0.17364832440424569 0.9848077271384491
vn 0 0.9848080791610708 -0.1736463279746579
vn 0 -0.9848080791610705 0.17364632797465873
vn 1 0 0
vn 0 0.30070616440566844 -0.9537168356951823
vn 0 -0.3007061644056685 0.9537168356951823
vn 0 0.9537166763680847 0.3007066697255218
vn 0 -0.9537166763680847 -0.30070666972552185
vn 1 0 0
vn 0 0.1305261664475904 -0.991444864766819
vn 0 -0.13052616644759035 0.991444864766819
vn 0 0.9914447739421927 0.13052685632740288
vn 0 -0.9914447739421927 -0.13052685632740313
vn 1 0 0
vn 0 -0.1305261664475903 -0.991444864766819
vn 0 0.1305261664475903 0.991444864766819
vn 0 0.9914447739421927 -0.13052685632740282
vn 0 -0.9914447739421927 0.13052685632740313
vn 1 0 0
vn 0.9848077271384491 -0.17364832440424557 0
vn -0.9848077271384491 0.17364832440424557 0
vn 0.1736463279746578 0.9848080791610708 0
vn -0.17364632797465865 -0.9848080791610706 0
vn 0 0 -1
vn 0.9537168356951823 0.30070616440566844 0
vn -0.9537168356951823 -0.3007061644056684 0
vn -0.3007066697255218 0.9537166763680847 0
vn 0.3007066697255218 -0.9537166763680849 0
vn 0 0 -1
vn 0.991444864766819 0.1305261664475904 0
vn -0.991444864766819 -0.1305261664475904 0
vn -0.13052685632740282 0.9914447739421927 0
vn 0.13052685632740313 -0.9914447739421927 0
vn 0 0 -1
vn 0.991444864766819 -0.1305261664475903 0
vn -0.991444864766819 0.1305261664475903 0
vn 0.13052685632740282 0.9914447739421927 0
vn -0.13052685632740313 -0.9914447739421927 0
vn 0 0 -1
vn 0.9848077271384491 -0.17364832440424557 0
vn -0.9848077271384491 0.17364832440424557 0
vn 0.1736463279746578 0.9848080791610708 0
vn -0.17364632797465865 -0.9848080791610706 0
vn 0 0 1
vn 0.9537168356951823 0.30070616440566844 0
vn -0.9537168356951823 -0.3007061644056684 0
vn -0.3007066697255218 0.9537166763680847 0
vn 0.3007066697255218 -0.9537166763680849 0
vn 0 0 1
vn 0.991444864766819 0.1305261664475904 0
vn -0.991444864766819 -0.1305261664475904 0
vn -0.13052685632740282 0.9914447739421927 0
vn 0.13052685632740313 -0.9914447739421927 0
vn 0 0 1
vn 0.991444864766819 -0.1305261664475903 0
vn -0.991444864766819 0.1305261664475903 0
vn 0.13052685632740282 0.9914447739421927 0
vn -0.13052685632740313 -0.9914447739421927 0
vn 0 0 1
vn 1 0 0
vn -1 0 0
vn 0 0 1
vn 0 0 -1
vn 0 1 0
vn 0 1 0
vn 0 1 0
vn 0 1 0
vn -0.9991651854395275 -0.040852566695310816 0
vn 0 -0.040852566695310816 -0.9991651854395275
vn 0.9991651854395275 -0.040852566695310816 0
vn 0 -0.04085256669531082 0.9991651854395275
vn -0.9991651854395275 -0.040852566695310816 0
vn 0 -0.040852566695310816 -0.9991651854395275
vn 0.9991651854395275 -0.040852566695310816 0
vn 0 -0.04085256669531082 0.9991651854395275
usemtl base_wooden
f 1/1/1 2/2/1 3/3/1
f 1/1/1 3/3/1 4/4/1
f 5/5/2 6/6/2 7/7/2
f 5/5/2 7/7/2 8/8/2
f 6/9/3 1/10/3 4/11/3
f 6/9/3 4/11/3 7/12/3
f 2/13/4 5/14/4 8/15/4
f 2/13/4 8/15/4 3/16/4
f 340/17/5 9/18/5 7/19/5
f 340/17/5 7/19/5 4/20/5
f 342/21/6 340/22/6 4/23/6
f 342/21/6 4/23/6 3/24/6
f 345/25/7 342/26/7 3/27/7
f 345/25/7 3/27/7 8/28/7
f 9/29/8 345/30/8 8/31/8
f 9/29/8 8/31/8 7/32/8
f 13/33/9 11/34/9 10/35/9
f 13/33/9 10/35/9 12/36/9
f 16/37/10 14/38/10 15/39/10
f 16/37/10 15/39/10 17/40/10
f 10/41/11 11/42/11 15/43/11
f 10/41/11 15/43/11 14/44/11
f 13/45/12 12/46/12 16/47/12
f 13/45/12 16/47/12 17/48/12
f 12/49/13 10/50/13 14/51/13
f 12/49/13 14/51/13 16/52/13
f 17/53/14 15/54/14 11/55/14
f 17/53/14 11/55/14 13/56/14
f 21/57/15 19/58/15 18/59/15
f 21/57/15 18/59/15 20/60/15
f 24/61/16 22/62/16 23/63/16
f 24/61/16 23/63/16 25/64/16
f 18/65/17 19/66/17 23/67/17
f 18/65/17 23/67/17 22/68/17
f 21/69/18 20/70/18 24/71/18
f 21/69/18 24/71/18 25/72/18
f 20/73/19 18/74/19 22/75/19
f 20/73/19 22/75/19 24/76/19
f 25/77/20 23/78/20 19/79/20
f 25/77/20 19/79/20 21/80/20
f 29/81/21 27/82/21 26/83/21
f 29/81/21 26/83/21 28/84/21
f 32/85/22 30/86/22 31/87/22
f 32/85/22 31/87/22 33/88/22
f 26/89/23 27/90/23 31/91/23
f 26/89/23 31/91/23 30/92/23
f 29/93/24 28/94/24 32/95/24
f 29/93/24 32/95/24 33/96/24
f 28/97/25 26/98/25 30/99/25
f 28/97/25 30/99/25 32/100/25
f 33/101/26 31/102/26 27/103/26
f 33/101/26 27/103/26 29/104/26
f 37/105/27 35/106/27 34/107/27
f 37/105/27 34/107/27 36/108/27
f 40/109/28 38/110/28 39/111/28
f 40/109/28 39/111/28 41/112/28
f 34/113/29 35/114/29 39/115/29
f 34/113/29 39/115/29 38/116/29
f 37/117/30 36/118/30 40/119/30
f 37/117/30 40/119/30 41/120/30
f 36/121/31 34/122/31 38/123/31
f 36/121/31 38/123/31 40/124/31
f 41/125/32 39/126/32 35/127/32
f 41/125/32 35/127/32 37/128/32
f 45/129/33 43/130/33 42/131/33
f 45/129/33 42/131/33 44/132/33
f 48/133/34 46/134/34 47/135/34
f 48/133/34 47/135/34 49/136/34
f 42/137/35 43/138/35 47/139/35
f 42/137/35 47/139/35 46/140/35
f 45/141/36 44/142/36 48/143/36
f 45/141/36 48/143/36 49/144/36
f 44/145/37 42/146/37 46/147/37
f 44/145/37 46/147/37 48/148/37
f 49/149/38 47/150/38 43/151/38
f 49/149/38 43/151/38 45/152/38
f 53/153/39 51/154/39 50/155/39
f 53/153/39 50/155/39 52/156/39
f 56/157/40 54/158/40 55/159/40
f 56/157/40 55/159/40 57/160/40
f 50/161/41 51/162/41 55/163/41
f 50/161/41 55/163/41 54/164/41
f 53/165/42 52/166/42 56/167/42
f 53/165/42 56/167/42 57/168/42
f 52/169/43 50/170/43 54/171/43
f 52/169/43 54/171/43 56/172/43
f 57/173/44 55/174/44 51/175/44
f 57/173/44 51/175/44 53/176/44
f 65/177/45 67/178/45 66/179/45
f 65/177/45 66/179/45 63/180/45
f 63/181/46 66/182/46 69/183/46
f 63/181/46 69/183/46 59/184/46
f 61/185/47 68/186/47 67/187/47
f 61/185/47 67/187/47 65/188/47
f 62/189/48 66/190/48 67/191/48
f 62/189/48 67/191/48 64/192/48
f 64/193/49 67/194/49 68/195/49
f 64/193/49 68/195/49 60/196/49
f 58/197/50 69/198/50 66/199/50
f 58/197/50 66/199/50 62/200/50
f 77/201/51 79/202/51 78/203/51
f 77/201/51 78/203/51 75/204/51
f 75/205/52 78/206/52 81/207/52
f 75/205/52 81/207/52 71/208/52
f 73/209/53 80/210/53 79/211/53
f 73/209/53 79/211/53 77/212/53
f 74/213/54 78/214/54 79/215/54
f 74/213/54 79/215/54 76/216/54
f 76/217/55 79/218/55 80/219/55
f 76/217/55 80/219/55 72/220/55
f 70/221/56 81/222/56 78/223/56
f 70/221/56 78/223/56 74/224/56
f 87/225/57 89/226/57 88/227/57
f 87/225/57 88/227/57 85/228/57
f 85/229/58 88/230/58 91/231/58
f 85/229/58 91/231/58 65/232/58
f 63/233/59 90/234/59 89/235/59
f 63/233/59 89/235/59 87/236/59
f 83/237/60 82/238/60 84/239/60
f 83/237/60 84/239/60 86/240/60
f 87/241/61 85/242/61 65/243/61
f 87/241/61 65/243/61 63/244/61
f 84/245/62 88/246/62 89/247/62
f 84/245/62 89/247/62 86/248/62
f 86/249/63 89/250/63 90/251/63
f 86/249/63 90/251/63 83/252/63
f 82/253/64 91/254/64 88/255/64
f 82/253/64 88/255/64 84/256/64
f 97/257/65 99/258/65 98/259/65
f 97/257/65 98/259/65 95/260/65
f 95/261/66 98/262/66 101/263/66
f 95/261/66 101/263/66 77/264/66
f 75/265/67 100/266/67 99/267/67
f 75/265/67 99/267/67 97/268/67
f 93/269/68 92/270/68 94/271/68
f 93/269/68 94/271/68 96/272/68
f 97/273/69 95/274/69 77/275/69
f 97/273/69 77/275/69 75/276/69
f 94/277/70 98/278/70 99/279/70
f 94/277/70 99/279/70 96/280/70
f 96/281/71 99/282/71 100/283/71
f 96/281/71 100/283/71 93/284/71
f 92/285/72 101/286/72 98/287/72
f 92/285/72 98/287/72 94/288/72
f 107/289/73 109/290/73 108/291/73
f 107/289/73 108/291/73 106/292/73
f 106/293/74 108/294/74 111/295/74
f 106/293/74 111/295/74 103/296/74
f 105/297/75 110/298/75 109/299/75
f 105/297/75 109/299/75 107/300/75
f 83/301/76 108/302/76 109/303/76
f 83/301/76 109/303/76 82/304/76
f 82/305/77 109/306/77 110/307/77
f 82/305/77 110/307/77 104/308/77
f 102/309/78 111/310/78 108/311/78
f 102/309/78 108/311/78 83/312/78
f 117/313/79 119/314/79 118/315/79
f 117/313/79 118/315/79 116/316/79
f 116/317/80 118/318/80 121/319/80
f 116/317/80 121/319/80 113/320/80
f 115/321/81 120/322/81 119/323/81
f 115/321/81 119/323/81 117/324/81
f 93/325/82 118/326/82 119/327/82
f 93/325/82 119/327/82 92/328/82
f 92/329/83 119/330/83 120/331/83
f 92/329/83 120/331/83 114/332/83
f 112/333/84 121/334/84 118/335/84
f 112/333/84 118/335/84 93/336/84
f 125/337/85 127/338/85 126/339/85
f 125/337/85 126/339/85 123/340/85
f 123/341/86 126/342/86 129/343/86
f 123/341/86 129/343/86 62/344/86
f 64/345/87 128/346/87 127/347/87
f 64/345/87 127/347/87 125/348/87
f 107/349/88 106/350/88 122/351/88
f 107/349/88 122/351/88 124/352/88
f 125/353/89 123/354/89 62/355/89
f 125/353/89 62/355/89 64/356/89
f 122/357/90 126/358/90 127/359/90
f 122/357/90 127/359/90 124/360/90
f 124/361/91 127/362/91 128/363/91
f 124/361/91 128/363/91 107/364/91
f 106/365/92 129/366/92 126/367/92
f 106/365/92 126/367/92 122/368/92
f 133/369/93 135/370/93 134/371/93
f 133/369/93 134/371/93 131/372/93
f 131/373/94 134/374/94 137/375/94
f 131/373/94 137/375/94 74/376/94
f 76/377/95 136/378/95 135/379/95
f 76/377/95 135/379/95 133/380/95
f 117/381/96 116/382/96 130/383/96
f 117/381/96 130/383/96 132/384/96
f 133/385/97 131/386/97 74/387/97
f 133/385/97 74/387/97 76/388/97
f 130/389/98 134/390/98 135/391/98
f 130/389/98 135/391/98 132/392/98
f 132/393/99 135/394/99 136/395/99
f 132/393/99 136/395/99 117/396/99
f 116/397/100 137/398/100 134/399/100
f 116/397/100 134/399/100 130/400/100
f 145/401/101 147/402/101 146/403/101
f 145/401/101 146/403/101 143/404/101
f 143/405/102 146/406/102 149/407/102
f 143/405/102 149/407/102 139/408/102
f 141/409/103 148/410/103 147/411/103
f 141/409/103 147/411/103 145/412/103
f 142/413/104 146/414/104 147/415/104
f 142/413/104 147/415/104 144/416/104
f 144/417/105 147/418/105 148/419/105
f 144/417/105 148/419/105 140/420/105
f 138/421/106 149/422/106 146/423/106
f 138/421/106 146/423/106 142/424/106
f 155/425/107 157/426/107 156/427/107
f 155/425/107 156/427/107 153/428/107
f 153/429/108 156/430/108 159/431/108
f 153/429/108 159/431/108 145/432/108
f 143/433/109 158/434/109 157/435/109
f 143/433/109 157/435/109 155/436/109
f 151/437/110 150/438/110 152/439/110
f 151/437/110 152/439/110 154/440/110
f 155/441/111 153/442/111 145/443/111
f 155/441/111 145/443/111 143/444/111
f 152/445/112 156/446/112 157/447/112
f 152/445/112 157/447/112 154/448/112
f 154/449/113 157/450/113 158/451/113
f 154/449/113 158/451/113 151/452/113
f 150/453/114 159/454/114 156/455/114
f 150/453/114 156/455/114 152/456/114
f 166/457/115 168/458/115 167/459/115
f 166/457/115 167/459/115 164/460/115
f 164/461/116 167/462/116 170/463/116
f 164/461/116 170/463/116 161/464/116
f 163/465/117 169/466/117 168/467/117
f 163/465/117 168/467/117 166/468/117
f 151/469/118 167/470/118 168/471/118
f 151/469/118 168/471/118 165/472/118
f 165/473/119 168/474/119 169/475/119
f 165/473/119 169/475/119 162/476/119
f 160/477/120 170/478/120 167/479/120
f 160/477/120 167/479/120 151/480/120
f 175/481/121 177/482/121 176/483/121
f 175/481/121 176/483/121 173/484/121
f 173/485/122 176/486/122 179/487/122
f 173/485/122 179/487/122 142/488/122
f 144/489/123 178/490/123 177/491/123
f 144/489/123 177/491/123 175/492/123
f 171/493/124 164/494/124 172/495/124
f 171/493/124 172/495/124 174/496/124
f 175/497/125 173/498/125 142/499/125
f 175/497/125 142/499/125 144/500/125
f 172/501/126 176/502/126 177/503/126
f 172/501/126 177/503/126 174/504/126
f 174/505/127 177/506/127 178/507/127
f 174/505/127 178/507/127 171/508/127
f 164/509/128 179/510/128 176/511/128
f 164/509/128 176/511/128 172/512/128
f 184/513/129 185/514/129 193/515/129
f 184/513/129 193/515/129 188/516/129
f 187/517/130 186/518/130 190/519/130
f 187/517/130 190/519/130 195/520/130
f 199/521/131 197/522/131 200/523/131
f 199/521/131 200/523/131 202/524/131
f 180/525/132 185/526/132 200/527/132
f 180/525/132 200/527/132 197/528/132
f 187/529/133 181/530/133 199/531/133
f 187/529/133 199/531/133 202/532/133
f 189/533/134 192/534/134 180/535/134
f 189/533/134 180/535/134 182/536/134
f 194/537/135 191/538/135 183/539/135
f 194/537/135 183/539/135 181/540/135
f 203/541/136 201/542/136 196/543/136
f 203/541/136 196/543/136 198/544/136
f 196/545/137 201/546/137 184/547/137
f 196/545/137 184/547/137 182/548/137
f 203/549/138 198/550/138 183/551/138
f 203/549/138 183/551/138 186/552/138
f 188/553/139 193/554/139 195/555/139
f 188/553/139 195/555/139 190/556/139
f 192/557/140 189/558/140 191/559/140
f 192/557/140 191/559/140 194/560/140
f 189/561/141 188/562/141 190/563/141
f 189/561/141 190/563/141 191/564/141
f 193/565/142 192/566/142 194/567/142
f 193/565/142 194/567/142 195/568/142
f 198/569/143 196/570/143 197/571/143
f 198/569/143 197/571/143 199/572/143
f 202/573/144 200/574/144 201/575/144
f 202/573/144 201/575/144 203/576/144
f 207/577/145 205/578/145 204/579/145
f 207/577/145 204/579/145 206/580/145
f 210/581/146 208/582/146 209/583/146
f 210/581/146 209/583/146 211/584/146
f 204/585/147 205/586/147 209/587/147
f 204/585/147 209/587/147 208/588/147
f 207/589/148 206/590/148 210/591/148
f 207/589/148 210/591/148 211/592/148
f 211/593/149 209/594/149 205/595/149
f 211/593/149 205/595/149 207/596/149
f 215/597/150 213/598/150 212/599/150
f 215/597/150 212/599/150 214/600/150
f 218/601/151 216/602/151 217/603/151
f 218/601/151 217/603/151 219/604/151
f 212/605/152 213/606/152 217/607/152
f 212/605/152 217/607/152 216/608/152
f 215/609/153 214/610/153 218/611/153
f 215/609/153 218/611/153 219/612/153
f 219/613/154 217/614/154 213/615/154
f 219/613/154 213/615/154 215/616/154
f 223/617/155 221/618/155 220/619/155
f 223/617/155 220/619/155 222/620/155
f 226/621/156 224/622/156 225/623/156
f 226/621/156 225/623/156 227/624/156
f 220/625/157 221/626/157 225/627/157
f 220/625/157 225/627/157 224/628/157
f 223/629/158 222/630/158 226/631/158
f 223/629/158 226/631/158 227/632/158
f 227/633/159 225/634/159 221/635/159
f 227/633/159 221/635/159 223/636/159
f 231/637/160 229/638/160 228/639/160
f 231/637/160 228/639/160 230/640/160
f 234/641/161 232/642/161 233/643/161
f 234/641/161 233/643/161 235/644/161
f 228/645/162 229/646/162 233/647/162
f 228/645/162 233/647/162 232/648/162
f 231/649/163 230/650/163 234/651/163
f 231/649/163 234/651/163 235/652/163
f 235/653/164 233/654/164 229/655/164
f 235/653/164 229/655/164 231/656/164
f 236/657/165 237/658/165 239/659/165
f 236/657/165 239/659/165 238/660/165
f 241/661/166 240/662/166 242/663/166
f 241/661/166 242/663/166 243/664/166
f 241/665/167 237/666/167 236/667/167
f 241/665/167 236/667/167 240/668/167
f 242/669/168 238/670/168 239/671/168
f 242/669/168 239/671/168 243/672/168
f 237/673/169 241/674/169 243/675/169
f 237/673/169 243/675/169 239/676/169
f 244/677/170 245/678/170 247/679/170
f 244/677/170 247/679/170 246/680/170
f 249/681/171 248/682/171 250/683/171
f 249/681/171 250/683/171 251/684/171
f 249/685/172 245/686/172 244/687/172
f 249/685/172 244/687/172 248/688/172
f 250/689/173 246/690/173 247/691/173
f 250/689/173 247/691/173 251/692/173
f 245/693/174 249/694/174 251/695/174
f 245/693/174 251/695/174 247/696/174
f 252/697/175 253/698/175 255/699/175
f 252/697/175 255/699/175 254/700/175
f 257/701/176 256/702/176 258/703/176
f 257/701/176 258/703/176 259/704/176
f 257/705/177 253/706/177 252/707/177
f 257/705/177 252/707/177 256/708/177
f 258/709/178 254/710/178 255/711/178
f 258/709/178 255/711/178 259/712/178
f 253/713/179 257/714/179 259/715/179
f 253/713/179 259/715/179 255/716/179
f 260/717/180 261/718/180 263/719/180
f 260/717/180 263/719/180 262/720/180
f 265/721/181 264/722/181 266/723/181
f 265/721/181 266/723/181 267/724/181
f 265/725/182 261/726/182 260/727/182
f 265/725/182 260/727/182 264/728/182
f 266/729/183 262/730/183 263/731/183
f 266/729/183 263/731/183 267/732/183
f 261/733/184 265/734/184 267/735/184
f 261/733/184 267/735/184 263/736/184
f 271/737/185 269/738/185 268/739/185
f 271/737/185 268/739/185 270/740/185
f 274/741/186 272/742/186 273/743/186
f 274/741/186 273/743/186 275/744/186
f 268/745/187 269/746/187 273/747/187
f 268/745/187 273/747/187 272/748/187
f 271/749/188 270/750/188 274/751/188
f 271/749/188 274/751/188 275/752/188
f 275/753/189 273/754/189 269/755/189
f 275/753/189 269/755/189 271/756/189
f 279/757/190 277/758/190 276/759/190
f 279/757/190 276/759/190 278/760/190
f 282/761/191 280/762/191 281/763/191
f 282/761/191 281/763/191 283/764/191
f 276/765/192 277/766/192 281/767/192
f 276/765/192 281/767/192 280/768/192
f 279/769/193 278/770/193 282/771/193
f 279/769/193 282/771/193 283/772/193
f 283/773/194 281/774/194 277/775/194
f 283/773/194 277/775/194 279/776/194
f 287/777/195 285/778/195 284/779/195
f 287/777/195 284/779/195 286/780/195
f 290/781/196 288/782/196 289/783/196
f 290/781/196 289/783/196 291/784/196
f 284/785/197 285/786/197 289/787/197
f 284/785/197 289/787/197 288/788/197
f 287/789/198 286/790/198 290/791/198
f 287/789/198 290/791/198 291/792/198
f 291/793/199 289/794/199 285/795/199
f 291/793/199 285/795/199 287/796/199
f 295/797/200 293/798/200 292/799/200
f 295/797/200 292/799/200 294/800/200
f 298/801/201 296/802/201 297/803/201
f 298/801/201 297/803/201 299/804/201
f 292/805/202 293/806/202 297/807/202
f 292/805/202 297/807/202 296/808/202
f 295/809/203 294/810/203 298/811/203
f 295/809/203 298/811/203 299/812/203
f 299/813/204 297/814/204 293/815/204
f 299/813/204 293/815/204 295/816/204
f 300/817/205 301/818/205 303/819/205
f 300/817/205 303/819/205 302/820/205
f 305/821/206 304/822/206 306/823/206
f 305/821/206 306/823/206 307/824/206
f 305/825/207 301/826/207 300/827/207
f 305/825/207 300/827/207 304/828/207
f 306/829/208 302/830/208 303/831/208
f 306/829/208 303/831/208 307/832/208
f 301/833/209 305/834/209 307/835/209
f 301/833/209 307/835/209 303/836/209
f 308/837/210 309/838/210 311/839/210
f 308/837/210 311/839/210 310/840/210
f 313/841/211 312/842/211 314/843/211
f 313/841/211 314/843/211 315/844/211
f 313/845/212 309/846/212 308/847/212
f 313/845/212 308/847/212 312/848/212
f 314/849/213 310/850/213 311/851/213
f 314/849/213 311/851/213 315/852/213
f 309/853/214 313/854/214 315/855/214
f 309/853/214 315/855/214 311/856/214
f 316/857/215 317/858/215 319/859/215
f 316/857/215 319/859/215 318/860/215
f 321/861/216 320/862/216 322/863/216
f 321/861/216 322/863/216 323/864/216
f 321/865/217 317/866/217 316/867/217
f 321/865/217 316/867/217 320/868/217
f 322/869/218 318/870/218 319/871/218
f 322/869/218 319/871/218 323/872/218
f 317/873/219 321/874/219 323/875/219
f 317/873/219 323/875/219 319/876/219
f 324/877/220 325/878/220 327/879/220
f 324/877/220 327/879/220 326/880/220
f 329/881/221 328/882/221 330/883/221
f 329/881/221 330/883/221 331/884/221
f 329/885/222 325/886/222 324/887/222
f 329/885/222 324/887/222 328/888/222
f 330/889/223 326/890/223 327/891/223
f 330/889/223 327/891/223 331/892/223
f 325/893/224 329/894/224 331/895/224
f 325/893/224 331/895/224 327/896/224
f 332/897/225 336/898/225 335/899/225
f 332/897/225 335/899/225 333/900/225
f 334/901/226 338/902/226 337/903/226
f 334/901/226 337/903/226 175/904/226
f 175/905/227 337/906/227 336/907/227
f 175/905/227 336/907/227 332/908/227
f 333/909/228 335/910/228 338/911/228
f 333/909/228 338/911/228 334/912/228
f 341/913/229 339/914/229 175/915/229
f 341/913/229 175/915/229 332/916/229
f 343/917/230 341/918/230 332/919/230
f 343/917/230 332/919/230 333/920/230
f 344/921/231 343/922/231 333/923/231
f 344/921/231 333/923/231 334/924/231
f 339/925/232 344/926/232 334/927/232
f 339/925/232 334/927/232 175/928/232
f 342/929/233 343/930/233 341/931/233
f 342/929/233 341/931/233 340/932/233
f 340/933/234 341/934/234 339/935/234
f 340/933/234 339/935/234 9/936/234
f 9/937/235 339/938/235 344/939/235
f 9/937/235 344/939/235 345/940/235
f 344/941/236 343/942/236 342/943/236
f 344/941/236 342/943/236 345/944/236
f 350/945/237 351/946/237 347/947/237
f 350/945/237 347/947/237 346/948/237
f 346/949/238 347/950/238 348/951/238
f 346/949/238 348/951/238 349/952/238
f 349/953/239 348/954/239 352/955/239
f 349/953/239 352/955/239 353/956/239
f 352/957/240 351/958/240 350/959/240
f 352/957/240 350/959/240 353/960/240