# Made by Pabilo8 with Blockbench
# Exported with IIToolkit Plugin
mtllib flagpole.mtl


o variant_concrete
v 2 -1 3
v 2 -1 0
v -1 -1 3
v -1 -1 0
v -0.7450000000000001 -1 2.745
v 1.745 -1 2.745
v 1.745 -1 0.2549999999999999
v -0.7450000000000001 -1 0.2549999999999999
v -0.7491276396645872 0.25 3.0354279459305484
v -0.7098983763223552 0.25 2.5369693053291407
v -0.7491276396645872 0 3.0354279459305484
v -0.7098983763223552 0 2.5369693053291407
v -0.9983572486776451 0.25 3.0158131946708595
v -0.9591279853354127 0.25 2.5173545540694517
v -0.9983572486776451 0 3.0158131946708595
v -0.9591279853354127 0 2.5173545540694517
v -0.75 0.25 1.875
v -0.75 0.25 0.875
v -0.75 0 1.875
v -0.75 0 0.875
v -1 0.25 1.875
v -1 0.25 0.875
v -1 0 1.875
v -1 0 0.875
v -0.81958625 0.25 0.87013375
v -0.75 0.25 0.375
v -0.81958625 0 0.87013375
v -0.75 0 0.375
v -1.06715375 0.25 0.835340625
v -0.997566875 0.25 0.340206875
v -1.06715375 0 0.835340625
v -0.997566875 0 0.340206875
v 1.7804675 0.25 2.93563625
v 1.75 0.25 2.6875
v 1.7804675 0 2.93563625
v 1.75 0 2.6875
v 1.284194375 0.25 2.9965712499999997
v 1.253726875 0.25 2.748434375
v 1.284194375 0 2.9965712499999997
v 1.253726875 0 2.748434375
v 1.75 0 3
v 1.75 0 2.75
v -0.75 0 3
v -0.75 0 2.75
v -0.27178875 0.25 3.06154875
v -0.25 0.25 2.8125
v -0.27178875 0 3.06154875
v -0.25 0 2.8125
v -0.7698862500000001 0.25 3.0179706250000002
v -0.7480975000000001 0.25 2.768921875
v -0.7698862500000001 0 3.0179706250000002
v -0.7480975000000001 0 2.768921875
v 2 0.25 2.6875
v 2 0.25 1.6875
v 2 0 2.6875
v 2 0 1.6875
v 1.75 0.25 1.6875
v 1.75 0 1.6875
v 2.034878125 0.25 1.248781875
v 2 0.25 0.75
v 2.034878125 0 1.248781875
v 2 0 0.75
v 1.7854875 0.25 1.26622125
v 1.75060875 0.25 0.767439375
v 1.7854875 0 1.26622125
v 1.75060875 0 0.767439375
v 2 0 3
v 2 0 0
v 1.75 0 0
v -1 0 0
v 1.75 0 0.25
v -0.75 0 0.25
v -0.75 0 0
v -1 0 3
v -0.20928875000000002 0.25 0.24904875000000004
v -0.1875 0.25 0
v -0.20928875000000002 0 0.24904875000000004
v -0.1875 0 0
v -0.5206 0.25 0.22181249999999997
v -0.49881062499999995 0.25 -0.027236250000000073
v -0.5206 0 0.22181249999999997
v -0.49881062499999995 0 -0.027236250000000073
v 1.78770875 0.25 0.62132875
v 2.0335225 0.25 0.575769375
v 1.69659125 0.25 0.1297012500000001
v 1.942405 0.25 0.08414250000000001
v 1.78770875 0 0.62132875
v 1.69659125 0 0.1297012500000001
v 1.942405 0 0.08414250000000001
v 2.0335225 0 0.575769375
v 1.1984287500000002 0.25 0.19162687500000009
v 1.69652625 0.25 0.2352043749999999
v 1.2202181250000002 0.25 -0.057421874999999956
v 1.718315 0.25 -0.013844374999999909
v 1.1984287500000002 0 0.19162687500000009
v 1.2202181250000002 0 -0.057421874999999956
v 1.718315 0 -0.013844374999999909
v 1.69652625 0 0.2352043749999999
v 1.75 -1 3
v -0.75 -1 3
v 1.75 -1 0
v -0.75 -1 0
v 1.9375 -0.625 3.0625
v 1.9375 -0.625 3
v 1.9375 -0.875 3.0625
v 1.9375 -0.875 3
v 1.4375 -0.625 3.0625
v 1.4375 -0.625 3
v 1.4375 -0.875 3.0625
v 1.4375 -0.875 3
v 1.75 -0.75 0
v 1.75 -0.75 -0.0625
v 1.75 -1 -0.0625
v 1.25 -0.75 0
v 1.25 -0.75 -0.0625
v 1.25 -1 0
v 1.25 -1 -0.0625
v -1 -0.25 0
v -1 -0.25 0.5
v -1 -0.5 0.5
v -1 -0.5 0
v -1.0625 -0.25 0.5
v -1.0625 -0.25 0
v -1.0625 -0.5 0.5
v -1.0625 -0.5 0
v -0.5 0 0
v -0.5 0 -0.0625
v -0.5 -0.25 0
v -0.5 -0.25 -0.0625
v -1 0 -0.0625
v -1 -0.25 -0.0625
v 0.5 -0.006250000000000089 3.0625
v 0.5 -0.006250000000000089 3
v 0.5 -0.2562500000000001 3.0625
v 0.5 -0.2562500000000001 3
v -0.5 -0.006250000000000089 3.0625
v -0.5 -0.006250000000000089 3
v -0.5 -0.2562500000000001 3.0625
v -0.5 -0.2562500000000001 3
v -1 -0.25 2.75
v -1 -0.25 2.25
v -1 -0.5 2.75
v -1 -0.5 2.25
v -1.0625 -0.25 2.75
v -1.0625 -0.25 2.25
v -1.0625 -0.5 2.75
v -1.0625 -0.5 2.25
v 1.5 -0.3125 3.0625
v 1.5 -0.3125 3
v 1.5 -0.5625 3.0625
v 1.5 -0.5625 3
v 0.5 -0.3125 3.0625
v 0.5 -0.3125 3
v 0.5 -0.5625 3.0625
v 0.5 -0.5625 3
v 0.9375 -0.625 3.0625
v 0.9375 -0.625 3
v 0.9375 -0.875 3.0625
v 0.9375 -0.875 3
v -0.0625 -0.625 3.0625
v -0.0625 -0.625 3
v -0.0625 -0.875 3.0625
v -0.0625 -0.875 3
v -0.0625 -1.125 3.0625
v -0.0625 -1.125 3
v -0.5625 -0.875 3.0625
v -0.5625 -0.875 3
v -0.5625 -1.125 3.0625
v -0.5625 -1.125 3
v -0.5 -0.3125 3.0625
v -0.5 -0.3125 3
v -0.5 -0.5625 3.0625
v -0.5 -0.5625 3
v -1 -0.3125 3.0625
v -1 -0.3125 3
v -1 -0.5625 3.0625
v -1 -0.5625 3
v -1 -0.75 2.375
v -1 -0.75 1.875
v -1 -1 2.375
v -1 -1 1.875
v -1.0625 -0.75 2.375
v -1.0625 -0.75 1.875
v -1.0625 -1 2.375
v -1.0625 -1 1.875
v -1 -0.25 0.875
v -1.0625 -0.25 0.875
v -1 -0.5 0.875
v -1.0625 -0.5 0.875
v -1 -0.25 1.875
v -1.0625 -0.25 1.875
v -1 -0.5 1.875
v -1.0625 -0.5 1.875
v -0.98255 -0.5 1.124695625
v -1 -0.5 0.625
v -0.98255 -0.75 1.124695625
v -1 -0.75 0.625
v -1.045011875 -0.5 1.126876875
v -1.062461875 -0.5 0.62718125
v -1.045011875 -0.75 1.126876875
v -1.062461875 -0.75 0.62718125
v 2.0625 -0.75 0.5
v 2 -0.75 0.5
v 2.0625 -1 0.5
v 2 -1 0.5
v 2.0625 -0.75 1.5
v 2 -0.75 1.5
v 2.0625 -1 1.5
v 2 -1 1.5
v 2.0625 0 2.5
v 2.0625 0 2
v 2.0625 -0.25 2.5
v 2.0625 -0.25 2
v 2 0 2.5
v 2 0 2
v 2 -0.25 2.5
v 2 -0.25 2
v 2.0625 -0.5 3
v 2.0625 -0.5 2.5
v 2.0625 -0.75 3
v 2.0625 -0.75 2.5
v 2 -0.5 3
v 2 -0.5 2.5
v 2 -0.75 3
v 2 -0.75 2.5
v 2.0625 -0.75 2
v 2.0625 -1 2.5
v 2.0625 -1 2
v 2 -0.75 2
v 2 -1 2.5
v 2 -1 2
v 2.0625 -0.5 1
v 2 -0.5 1
v 2.0625 -0.75 1
v 2 -0.75 1
v 2.0625 -0.5 2
v 2 -0.5 2
v 2.0625 -0.25 0.5
v 2 -0.25 0.5
v 2.0625 -0.5 0.5
v 2 -0.5 0.5
v 2.0625 -0.25 1.5
v 2 -0.25 1.5
v 2.0625 -0.5 1.5
v 2 -0.5 1.5
v 0.6875 -0.75 0
v 0.6875 -0.75 -0.0625
v 0.6875 -1 0
v 0.6875 -1 -0.0625
v 0.1875 -0.75 0
v 0.1875 -0.75 -0.0625
v 0.1875 -1 0
v 0.1875 -1 -0.0625
v 1.4375 -0.5 0
v 1.4375 -0.5 -0.0625
v 1.4375 -0.75 0
v 1.4375 -0.75 -0.0625
v 0.4375 -0.5 0
v 0.4375 -0.5 -0.0625
v 0.4375 -0.75 0
v 0.4375 -0.75 -0.0625
v 0.75 -0.25 0
v 0.75 -0.25 -0.0625
v 0.75 -0.5 0
v 0.75 -0.5 -0.0625
v -0.25 -0.25 0
v -0.25 -0.25 -0.0625
v -0.25 -0.5 0
v -0.25 -0.5 -0.0625
v -0.25 -0.75 0
v -0.25 -0.75 -0.0625
v -0.75 -0.5 0
v -0.75 -0.5 -0.0625
v -0.75 -0.75 0
v -0.75 -0.75 -0.0625
v 1.75 0 -0.0625
v 1.75 -0.25 0
v 1.75 -0.25 -0.0625
v 1.25 0 0
v 1.25 0 -0.0625
v 1.25 -0.25 0
v 1.25 -0.25 -0.0625
v 2 -3 0
v 2 -3 3
v -1 -3 3
v -1 -3 0
v -0.75 0 2.75
v 1.75 0 2.75
v 1.75 -1 2.75
v -0.75 -1 2.75
v -0.75 0 0.25
v -0.75 -1 0.25
v 1.75 0 0.25
v 1.75 -1 0.25
vt 0 0.71875
vt 0 0.21875
vt 0.75 0.21875
vt 0.75 0.71875
vt 0 0.71875
vt 0 0.21875
vt 0.75 0.21875
vt 0.75 0.71875
vt 0 0.71875
vt 0 0.21875
vt 0.75 0.21875
vt 0.75 0.71875
vt 0.68625 0.75
vt 0.06375 0.75
vt 0 0.68625
vt 0.75 0.68625
vt 0.06375 0.68625
vt 0.68625 0.68625
vt 0.75 0.75
vt 0 0.75
vt 0.06375 0.68625
vt 0.68625 0.68625
vt 0.75 0.75
vt 0 0.75
vt 0.68625 0.75
vt 0.06375 0.75
vt 0 0.68625
vt 0.75 0.68625
vt 0.875 0.671875
vt 0.8125 0.671875
vt 0.8125 0.546875
vt 0.875 0.546875
vt 0.875 0.75
vt 0.8125 0.75
vt 0.8125 0.625
vt 0.875 0.625
vt 0.875 0.40625
vt 0.875 0.28125
vt 0.9375 0.28125
vt 0.9375 0.40625
vt 1 0.671875
vt 0.9375 0.671875
vt 0.9375 0.609375
vt 1 0.609375
vt 0.9375 0.34375
vt 0.875 0.34375
vt 0.875 0.28125
vt 0.9375 0.28125
vt 0.875 0.875
vt 0.8125 0.875
vt 0.8125 0.625
vt 0.875 0.625
vt 0.875 0.84375
vt 0.8125 0.84375
vt 0.8125 0.59375
vt 0.875 0.59375
vt 0.8125 0.859375
vt 0.8125 0.609375
vt 0.875 0.609375
vt 0.875 0.859375
vt 0.875 0.8125
vt 0.8125 0.8125
vt 0.8125 0.75
vt 0.875 0.75
vt 0.875 0.34375
vt 0.8125 0.34375
vt 0.8125 0.28125
vt 0.875 0.28125
vt 0.875 0.78125
vt 0.8125 0.78125
vt 0.8125 0.65625
vt 0.875 0.65625
vt 1 0.703125
vt 0.9375 0.703125
vt 0.9375 0.578125
vt 1 0.578125
vt 0.8125 0.78125
vt 0.8125 0.65625
vt 0.875 0.65625
vt 0.875 0.78125
vt 1 0.734375
vt 0.9375 0.734375
vt 0.9375 0.671875
vt 1 0.671875
vt 0.875 0.65625
vt 0.8125 0.65625
vt 0.8125 0.59375
vt 0.875 0.59375
vt 1 0.703125
vt 0.9375 0.703125
vt 0.9375 0.640625
vt 1 0.640625
vt 1 0.796875
vt 0.9375 0.796875
vt 0.9375 0.734375
vt 1 0.734375
vt 1 0.8125
vt 0.9375 0.8125
vt 0.9375 0.6875
vt 1 0.6875
vt 1 0.765625
vt 0.9375 0.765625
vt 0.9375 0.640625
vt 1 0.640625
vt 0.875 0.6875
vt 0.8125 0.6875
vt 0.8125 0.5625
vt 0.875 0.5625
vt 0.640625 0.828125
vt 0.640625 0.890625
vt 0.015625 0.890625
vt 0.015625 0.828125
vt 1 0.71875
vt 0.9375 0.71875
vt 0.9375 0.65625
vt 1 0.65625
vt 1 0.671875
vt 0.9375 0.671875
vt 0.9375 0.609375
vt 1 0.609375
vt 1 0.625
vt 0.9375 0.625
vt 0.9375 0.5
vt 1 0.5
vt 1 0.703125
vt 0.9375 0.703125
vt 0.9375 0.578125
vt 1 0.578125
vt 0.875 0.703125
vt 0.8125 0.703125
vt 0.8125 0.578125
vt 0.875 0.578125
vt 0.875 0.828125
vt 0.8125 0.828125
vt 0.8125 0.578125
vt 0.875 0.578125
vt 0.875 0.8125
vt 0.8125 0.8125
vt 0.8125 0.5625
vt 0.875 0.5625
vt 0.875 0.59375
vt 0.875 0.84375
vt 0.8125 0.84375
vt 0.8125 0.59375
vt 0.875 0.703125
vt 0.8125 0.703125
vt 0.8125 0.640625
vt 0.875 0.640625
vt 0.875 0.78125
vt 0.8125 0.78125
vt 0.8125 0.71875
vt 0.875 0.71875
vt 0.875 0.765625
vt 0.8125 0.765625
vt 0.8125 0.640625
vt 0.875 0.640625
vt 0.875 0.6875
vt 0.8125 0.6875
vt 0.8125 0.5625
vt 0.875 0.5625
vt 0.875 0.625
vt 0.875 0.75
vt 0.8125 0.75
vt 0.8125 0.625
vt 0.875 0.578125
vt 0.8125 0.578125
vt 0.8125 0.515625
vt 0.875 0.515625
vt 0.9375 0.421875
vt 0.875 0.421875
vt 0.875 0.359375
vt 0.9375 0.359375
vt 0.75 1
vt 0 1
vt 0 0.9375
vt 0.75 0.9375
vt 0.6875 0.8125
vt 0.6875 0.875
vt 0.0625 0.875
vt 0.0625 0.8125
vt 0.75 0.9375
vt 0 0.9375
vt 0 0.875
vt 0.75 0.875
vt 1 0.796875
vt 0.9375 0.796875
vt 0.9375 0.734375
vt 1 0.734375
vt 1 0.8125
vt 0.9375 0.8125
vt 0.9375 0.75
vt 1 0.75
vt 1 0.734375
vt 0.9375 0.734375
vt 0.9375 0.65625
vt 1 0.65625
vt 1 0.796875
vt 0.9375 0.796875
vt 0.9375 0.71875
vt 1 0.71875
vt 1 0.796875
vt 0.9375 0.796875
vt 0.9375 0.71875
vt 1 0.71875
vt 0.875 0.671875
vt 0.8125 0.671875
vt 0.8125 0.546875
vt 0.875 0.546875
vt 0.875 0.75
vt 0.8125 0.75
vt 0.8125 0.625
vt 0.875 0.625
vt 0.875 0.40625
vt 0.875 0.28125
vt 0.9375 0.28125
vt 0.9375 0.40625
vt 1 0.671875
vt 0.9375 0.671875
vt 0.9375 0.609375
vt 1 0.609375
vt 0.9375 0.34375
vt 0.875 0.34375
vt 0.875 0.28125
vt 0.9375 0.28125
vt 0.8125 0.5
vt 0.875 0.5
vt 0.875 0.5625
vt 0.8125 0.5625
vt 0.8125 0.546875
vt 0.875 0.546875
vt 0.875 0.609375
vt 0.8125 0.609375
vt 0.8125 0.59375
vt 0.875 0.59375
vt 0.875 0.71875
vt 0.8125 0.71875
vt 0.8125 0.515625
vt 0.875 0.515625
vt 0.875 0.640625
vt 0.8125 0.640625
vt 0.9375 0.515625
vt 1 0.515625
vt 1 0.640625
vt 0.9375 0.640625
vt 0.6875 0.75
vt 0.6875 1
vt 0.0625 1
vt 0.0625 0.75
vt 0.75 0.75
vt 0.75 1
vt 0 1
vt 0 0.75
vt 0.75 0.75
vt 0.75 1
vt 0.6875 1
vt 0.6875 0.75
vt 0.0625 0.75
vt 0.0625 1
vt 0 1
vt 0 0.75
vt 0.6875 0.75
vt 0.6875 1
vt 0.0625 1
vt 0.0625 0.75
vt 0.75 0.75
vt 0.75 1
vt 0 1
vt 0 0.75
vt 0.0625 0.75
vt 0.0625 1
vt 0 1
vt 0 0.75
vt 0.75 0.75
vt 0.75 1
vt 0.6875 1
vt 0.6875 0.75
vt 0.796875 0.65625
vt 0.859375 0.65625
vt 0.859375 0.671875
vt 0.796875 0.671875
vt 0.828125 0.6875
vt 0.890625 0.6875
vt 0.890625 0.703125
vt 0.828125 0.703125
vt 0.875 0.609375
vt 0.890625 0.609375
vt 0.890625 0.734375
vt 0.875 0.734375
vt 0.859375 0.59375
vt 0.875 0.59375
vt 0.875 0.71875
vt 0.859375 0.71875
vt 0.8125 0.296875
vt 0.875 0.296875
vt 0.875 0.421875
vt 0.8125 0.421875
vt 0.75 0.546875
vt 0.78125 0.546875
vt 0.78125 0.5625
vt 0.75 0.5625
vt 0.75 0.5
vt 0.78125 0.5
vt 0.78125 0.515625
vt 0.75 0.515625
vt 0.765625 0.484375
vt 0.78125 0.484375
vt 0.78125 0.546875
vt 0.765625 0.546875
vt 0.765625 0.515625
vt 0.78125 0.515625
vt 0.78125 0.578125
vt 0.765625 0.578125
vt 0.75 0.65625
vt 0.8125 0.65625
vt 0.8125 0.78125
vt 0.75 0.78125
vt 0.8125 0.59375
vt 0.875 0.59375
vt 0.875 0.71875
vt 0.8125 0.71875
vt 0.828125 0.65625
vt 0.875 0.65625
vt 0.875 0.671875
vt 0.828125 0.671875
vt 0.8125 0.625
vt 0.875 0.625
vt 0.875 0.640625
vt 0.8125 0.640625
vt 0.796875 0.5625
vt 0.859375 0.5625
vt 0.859375 0.578125
vt 0.796875 0.578125
vt 0.8125 0.65625
vt 0.875 0.65625
vt 0.875 0.671875
vt 0.8125 0.671875
vt 0.78125 0.546875
vt 0.8125 0.546875
vt 0.8125 0.5625
vt 0.78125 0.5625
vt 0.78125 0.578125
vt 0.8125 0.578125
vt 0.8125 0.5625
vt 0.78125 0.5625
vt 0.8125 0.515625
vt 0.796875 0.515625
vt 0.796875 0.578125
vt 0.8125 0.578125
vt 0.78125 0.515625
vt 0.796875 0.515625
vt 0.796875 0.578125
vt 0.78125 0.578125
vt 0.8125 0.4375
vt 0.875 0.4375
vt 0.875 0.5625
vt 0.8125 0.5625
vt 0.8125 0.546875
vt 0.84375 0.546875
vt 0.84375 0.5625
vt 0.8125 0.5625
vt 0.8125 0.65625
vt 0.84375 0.65625
vt 0.84375 0.65625
vt 0.8125 0.65625
vt 0.828125 0.546875
vt 0.84375 0.546875
vt 0.84375 0.65625
vt 0.828125 0.65625
vt 0.8125 0.546875
vt 0.828125 0.546875
vt 0.828125 0.65625
vt 0.8125 0.65625
vt 0.8125 0.46875
vt 0.875 0.46875
vt 0.875 0.71875
vt 0.8125 0.71875
vt 0.9375 0.5
vt 1 0.5
vt 1 0.25
vt 0.9375 0.25
vt 0.75 0.671875
vt 0.8125 0.671875
vt 0.8125 0.796875
vt 0.75 0.796875
vt 0.796875 0.734375
vt 0.796875 0.6875
vt 0.8125 0.6875
vt 0.8125 0.734375
vt 0.796875 0.734375
vt 0.796875 0.6875
vt 0.8125 0.6875
vt 0.8125 0.734375
vt 0.78125 0.6875
vt 0.8125 0.6875
vt 0.8125 0.703125
vt 0.78125 0.703125
vt 0.796875 0.734375
vt 0.796875 0.671875
vt 0.8125 0.671875
vt 0.8125 0.734375
vt 0.84375 0.6875
vt 0.90625 0.6875
vt 0.90625 0.703125
vt 0.84375 0.703125
vt 0.859375 0.671875
vt 0.921875 0.671875
vt 0.921875 0.6875
vt 0.859375 0.6875
vt 0.84375 0.40625
vt 0.859375 0.40625
vt 0.859375 0.65625
vt 0.84375 0.65625
vt 0.859375 0.40625
vt 0.875 0.40625
vt 0.875 0.65625
vt 0.859375 0.65625
vt 0.8125 0.53125
vt 0.875 0.53125
vt 0.875 0.78125
vt 0.8125 0.78125
vt 0.828125 0.65625
vt 0.859375 0.65625
vt 0.859375 0.671875
vt 0.828125 0.671875
vt 0.828125 0.6875
vt 0.859375 0.6875
vt 0.859375 0.703125
vt 0.828125 0.703125
vt 0.859375 0.65625
vt 0.875 0.65625
vt 0.875 0.75
vt 0.859375 0.75
vt 0.84375 0.65625
vt 0.859375 0.65625
vt 0.859375 0.75
vt 0.84375 0.75
vt 0.8125 0.515625
vt 0.875 0.515625
vt 0.875 0.765625
vt 0.8125 0.765625
vt 0.796875 0.703125
vt 0.796875 0.75
vt 0.78125 0.75
vt 0.78125 0.703125
vt 0.78125 0.75
vt 0.8125 0.75
vt 0.8125 0.765625
vt 0.78125 0.765625
vt 0.796875 0.703125
vt 0.8125 0.703125
vt 0.8125 0.75
vt 0.796875 0.75
vt 0.796875 0.703125
vt 0.8125 0.703125
vt 0.8125 0.765625
vt 0.796875 0.765625
vt 0.75 0.65625
vt 0.8125 0.65625
vt 0.8125 0.78125
vt 0.75 0.78125
vt 0.84375 0.5625
vt 0.84375 0.515625
vt 0.859375 0.515625
vt 0.859375 0.5625
vt 0.828125 0.5625
vt 0.859375 0.5625
vt 0.859375 0.578125
vt 0.828125 0.578125
vt 0.875 0.515625
vt 0.859375 0.515625
vt 0.859375 0.59375
vt 0.875 0.59375
vt 0.84375 0.515625
vt 0.859375 0.515625
vt 0.859375 0.59375
vt 0.84375 0.59375
vt 0.8125 0.484375
vt 0.875 0.484375
vt 0.875 0.609375
vt 0.8125 0.609375
vt 0.875 0.875
vt 0.9375 0.875
vt 0.9375 1
vt 0.875 1
vt 0.828125 0.5625
vt 0.828125 0.625
vt 0.84375 0.625
vt 0.84375 0.5625
vt 0.84375 0.578125
vt 0.84375 0.625
vt 0.828125 0.625
vt 0.828125 0.578125
vt 0.8125 0.625
vt 0.84375 0.625
vt 0.84375 0.609375
vt 0.8125 0.609375
vt 0.8125 0.609375
vt 0.84375 0.609375
vt 0.84375 0.59375
vt 0.8125 0.59375
vt 0.765625 0.5
vt 0.8125 0.5
vt 0.8125 0.515625
vt 0.765625 0.515625
vt 0.765625 0.5
vt 0.796875 0.5
vt 0.796875 0.515625
vt 0.765625 0.515625
vt 0.796875 0.5
vt 0.8125 0.5
vt 0.8125 0.625
vt 0.796875 0.625
vt 0.78125 0.5
vt 0.796875 0.5
vt 0.796875 0.625
vt 0.78125 0.625
vt 0.875 0.4375
vt 0.9375 0.4375
vt 0.9375 0.6875
vt 0.875 0.6875
vt 0.8125 0.46875
vt 0.875 0.46875
vt 0.875 0.59375
vt 0.8125 0.59375
vt 0.796875 0.5
vt 0.828125 0.5
vt 0.828125 0.53125
vt 0.796875 0.53125
vt 0.796875 0.4375
vt 0.859375 0.4375
vt 0.859375 0.453125
vt 0.796875 0.453125
vt 0.8125 0.59375
vt 0.875 0.59375
vt 0.875 0.609375
vt 0.8125 0.609375
vt 0.78125 0.546875
vt 0.84375 0.546875
vt 0.84375 0.5625
vt 0.78125 0.5625
vt 0.8125 0.515625
vt 0.875 0.515625
vt 0.875 0.53125
vt 0.8125 0.53125
vt 0.875 0.6875
vt 0.9375 0.6875
vt 0.9375 0.703125
vt 0.875 0.703125
vt 0.90625 0.515625
vt 0.921875 0.515625
vt 0.921875 0.765625
vt 0.90625 0.765625
vt 0.890625 0.515625
vt 0.90625 0.515625
vt 0.90625 0.765625
vt 0.890625 0.765625
vt 0.75 0.4375
vt 0.8125 0.4375
vt 0.8125 0.6875
vt 0.75 0.6875
vt 0.9375 0.734375
vt 1 0.734375
vt 1 0.859375
vt 0.9375 0.859375
vt 0.765625 0.53125
vt 0.890625 0.53125
vt 0.890625 0.546875
vt 0.765625 0.546875
vt 0.765625 0.546875
vt 0.890625 0.546875
vt 0.890625 0.5625
vt 0.765625 0.5625
vt 0.796875 0.453125
vt 0.859375 0.453125
vt 0.859375 0.46875
vt 0.796875 0.46875
vt 0.796875 0.609375
vt 0.859375 0.609375
vt 0.859375 0.625
vt 0.796875 0.625
vt 0.8125 0.875
vt 0.875 0.875
vt 0.875 1
vt 0.8125 1
vt 0.796875 0.625
vt 0.921875 0.625
vt 0.921875 0.640625
vt 0.796875 0.640625
vt 0.796875 0.671875
vt 0.921875 0.671875
vt 0.921875 0.6875
vt 0.796875 0.6875
vt 0.8125 0.59375
vt 0.875 0.59375
vt 0.875 0.609375
vt 0.8125 0.609375
vt 0.828125 0.5625
vt 0.890625 0.5625
vt 0.890625 0.578125
vt 0.828125 0.578125
vt 0.75 0.671875
vt 0.8125 0.671875
vt 0.8125 0.796875
vt 0.75 0.796875
vt 0.8125 0.59375
vt 0.9375 0.59375
vt 0.9375 0.609375
vt 0.8125 0.609375
vt 0.8125 0.53125
vt 0.9375 0.53125
vt 0.9375 0.546875
vt 0.8125 0.546875
vt 0.84375 0.546875
vt 0.90625 0.546875
vt 0.90625 0.5625
vt 0.84375 0.5625
vt 0.84375 0.53125
vt 0.90625 0.53125
vt 0.90625 0.546875
vt 0.84375 0.546875
vt 0.78125 0.5
vt 0.84375 0.5
vt 0.84375 0.515625
vt 0.78125 0.515625
vt 0.78125 0.609375
vt 0.84375 0.609375
vt 0.84375 0.625
vt 0.78125 0.625
vt 0.828125 0.453125
vt 0.84375 0.453125
vt 0.84375 0.703125
vt 0.828125 0.703125
vt 0.828125 0.421875
vt 0.84375 0.421875
vt 0.84375 0.671875
vt 0.828125 0.671875
vt 0.921875 0.640625
vt 0.984375 0.640625
vt 0.984375 0.890625
vt 0.921875 0.890625
vt 0.796875 0.65625
vt 0.859375 0.65625
vt 0.859375 0.671875
vt 0.796875 0.671875
vt 0.796875 0.546875
vt 0.859375 0.546875
vt 0.859375 0.5625
vt 0.796875 0.5625
vt 0.828125 0.46875
vt 0.84375 0.46875
vt 0.84375 0.71875
vt 0.828125 0.71875
vt 0.8125 0.484375
vt 0.828125 0.484375
vt 0.828125 0.734375
vt 0.8125 0.734375
vt 0.875 0.421875
vt 0.9375 0.421875
vt 0.9375 0.671875
vt 0.875 0.671875
vt 0.796875 0.625
vt 0.84375 0.625
vt 0.84375 0.640625
vt 0.796875 0.640625
vt 0.796875 0.65625
vt 0.84375 0.65625
vt 0.84375 0.671875
vt 0.796875 0.671875
vt 0.828125 0.609375
vt 0.84375 0.609375
vt 0.84375 0.65625
vt 0.828125 0.65625
vt 0.8125 0.609375
vt 0.828125 0.609375
vt 0.828125 0.671875
vt 0.8125 0.671875
vt 0.875 0.5
vt 0.9375 0.5
vt 0.9375 0.625
vt 0.875 0.625
vt 0.84375 0.40625
vt 0.859375 0.40625
vt 0.859375 0.421875
vt 0.84375 0.421875
vt 0.84375 0.46875
vt 0.875 0.46875
vt 0.875 0.484375
vt 0.84375 0.484375
vt 0.859375 0.40625
vt 0.875 0.40625
vt 0.875 0.484375
vt 0.859375 0.484375
vt 0.84375 0.40625
vt 0.859375 0.40625
vt 0.859375 0.484375
vt 0.84375 0.484375
vt 0.8125 0.3125
vt 0.875 0.3125
vt 0.875 0.5625
vt 0.8125 0.5625
vt 0.8125 0.65625
vt 0.84375 0.65625
vt 0.84375 0.671875
vt 0.8125 0.671875
vt 0.8125 0.5625
vt 0.84375 0.5625
vt 0.84375 0.578125
vt 0.8125 0.578125
vt 0.828125 0.5625
vt 0.84375 0.5625
vt 0.84375 0.671875
vt 0.828125 0.671875
vt 0.828125 0.5625
vt 0.828125 0.5625
vt 0.828125 0.671875
vt 0.828125 0.671875
vt 0.9375 0.515625
vt 1 0.515625
vt 1 0.765625
vt 0.9375 0.765625
vt 0.84375 0.46875
vt 0.875 0.46875
vt 0.875 0.484375
vt 0.84375 0.484375
vt 0.84375 0.484375
vt 0.875 0.484375
vt 0.875 0.484375
vt 0.84375 0.484375
vt 0.84375 0.421875
vt 0.859375 0.421875
vt 0.859375 0.484375
vt 0.84375 0.484375
vt 0.859375 0.421875
vt 0.875 0.421875
vt 0.875 0.46875
vt 0.859375 0.46875
vt 0.9375 0.28125
vt 1 0.28125
vt 1 0.40625
vt 0.9375 0.40625
vt 0.859375 0.71875
vt 0.890625 0.71875
vt 0.890625 0.703125
vt 0.859375 0.703125
vt 0.859375 0.765625
vt 0.890625 0.765625
vt 0.890625 0.75
vt 0.859375 0.75
vt 0.890625 0.703125
vt 0.875 0.703125
vt 0.875 0.765625
vt 0.890625 0.765625
vt 0.859375 0.703125
vt 0.875 0.703125
vt 0.875 0.765625
vt 0.859375 0.765625
vt 0.828125 0.625
vt 0.890625 0.625
vt 0.890625 0.75
vt 0.828125 0.75
vt 0 0.71875
vt 0 0.21875
vt 0.75 0.21875
vt 0.75 0.71875
vt 0.6875 1
vt 0.0625 1
vt 0.0625 0.75
vt 0.6875 0.75
vt 0.703125 1
vt 0.078125 1
vt 0.078125 0.75
vt 0.703125 0.75
vt 0.6875 1
vt 0.0625 1
vt 0.0625 0.75
vt 0.6875 0.75
vt 0.6875 1
vt 0.0625 1
vt 0.0625 0.75
vt 0.6875 0.75
vn 1 0 0
vn -1 0 0
vn 0 0 1
vn 0 1 0
vn 0 1 0
vn 0 1 0
vn 0 1 0
vn 0.9969173779186049 0 0.07845853429610686
vn -0.9969173779186049 0 -0.07845853429610775
vn 0 1 0
vn -0.07845891937686308 0 0.9969173476122357
vn 0.07845891937686322 0 -0.9969173476122357
vn 1 0 0
vn -1 0 0
vn 0 1 0
vn 0 0 1
vn 0 0 -1
vn 0.9902681405489647 0 0.13917259002294907
vn -0.9902679682753972 0 -0.1391738158121598
vn 0 1 0
vn -0.13917224547811638 0 0.9902681889713407
vn 0.1391725900229491 0 -0.9902681405489647
vn 0.992546055114238 0 -0.12187012955258711
vn -0.9925460922449604 0 0.1218698271487191
vn 0 1 0
vn 0.12186997835046666 0 0.9925460736796338
vn -0.12186874691576863 0 -0.9925462248808267
vn 0 1 0
vn 0.9961947648731585 0 0.08715497942924849
vn -0.9961947648731585 0 -0.08715497942924849
vn 0 1 0
vn -0.08715621993376488 0 0.9961946563432557
vn 0.08715621993376488 0 -0.9961946563432557
vn 1 0 0
vn -1 0 0
vn 0 1 0
vn 0 0 1
vn 0 0 -1
vn 0.9975640643683362 0 -0.06975627198271182
vn -0.9975639773846032 0 0.0697575159005188
vn 0 1 0
vn 0.06975760288512835 0 0.9975639713019515
vn -0.06975742891612634 0 -0.9975639834672319
vn 0 1 0
vn 0 1 0
vn 0 1 0
vn 0.9961947648731585 0 0.08715497942924849
vn -0.9961945478118319 0 -0.08715746043787584
vn 0 1 0
vn -0.08715588500869317 0 0.9961946856455076
vn 0.08715605865726764 0 -0.9961946704531855
vn -0.9832550047933682 0 0.18223500088839562
vn 0.9832549632812971 0 -0.18223522486801305
vn 0 1 0
vn -0.18223500088839603 0 -0.9832550047933681
vn 0.1822374178627667 0 0.9832545568319078
vn -0.9961945478118319 0 -0.08715746043787584
vn 0.9961947648731584 0 0.08715497942924856
vn 0 1 0
vn 0.0871550879585253 0 -0.9961947553781548
vn -0.08715497942924808 0 0.9961947648731584
vn 0 0 1
vn 1 0 0
vn 0 0 1
vn 0 0 -1
vn 0 0 -1
vn -1 0 0
vn 0 0 1
vn 0 0 -1
vn 1 0 0
vn -1 0 0
vn 0 1 0
vn 0 -1 0
vn 0 0 1
vn 1 0 0
vn -1 0 0
vn 0 1 0
vn 0 -1 0
vn 0 0 -1
vn -1 0 0
vn 0 1 0
vn 0 -1 0
vn 0 0 1
vn 0 0 -1
vn 1 0 0
vn -1 0 0
vn 0 1 0
vn 0 -1 0
vn 0 0 -1
vn 1 0 0
vn -1 0 0
vn 0 1 0
vn 0 -1 0
vn 0 0 1
vn 0 0 -1
vn -1 0 0
vn 0 1 0
vn 0 -1 0
vn 0 0 1
vn 0 0 -1
vn 1 0 0
vn -1 0 0
vn 0 1 0
vn 0 -1 0
vn 0 0 1
vn 1 0 0
vn -1 0 0
vn 0 1 0
vn 0 -1 0
vn 0 0 1
vn 1 0 0
vn -1 0 0
vn 0 1 0
vn 0 -1 0
vn 0 0 1
vn 1 0 0
vn -1 0 0
vn 0 1 0
vn 0 -1 0
vn 0 0 1
vn -1 0 0
vn 0 1 0
vn 0 -1 0
vn 0 0 1
vn 0 0 -1
vn 0 0 -1
vn 0 0 1
vn 0 1 0
vn 0 -1 0
vn -1 0 0
vn -0.9993908099800349 0 0.03489998463394907
vn 0 1 0
vn 0 -1 0
vn 0.034900028232389704 0 0.9993908084575217
vn -0.034900028232389704 0 -0.9993908084575217
vn 0 0 -1
vn 0 0 1
vn 0 1 0
vn 0 -1 0
vn 1 0 0
vn 1 0 0
vn 0 1 0
vn 0 -1 0
vn 0 0 1
vn 0 0 -1
vn 1 0 0
vn 0 1 0
vn 0 -1 0
vn 0 0 1
vn 0 0 -1
vn 1 0 0
vn 0 1 0
vn 0 -1 0
vn 0 0 1
vn 0 0 -1
vn 0 0 -1
vn 0 0 1
vn 0 1 0
vn 0 -1 0
vn 1 0 0
vn 0 0 -1
vn 0 0 1
vn 0 1 0
vn 0 -1 0
vn 1 0 0
vn 1 0 0
vn -1 0 0
vn 0 1 0
vn 0 -1 0
vn 0 0 -1
vn 1 0 0
vn -1 0 0
vn 0 1 0
vn 0 -1 0
vn 0 0 -1
vn 1 0 0
vn -1 0 0
vn 0 1 0
vn 0 -1 0
vn 0 0 -1
vn 1 0 0
vn -1 0 0
vn 0 1 0
vn 0 -1 0
vn 0 0 -1
vn 1 0 0
vn -1 0 0
vn 0 1 0
vn 0 -1 0
vn 0 0 -1
vn 0 0 -1
vn -1 0 0
vn 1 0 0
vn 0 0 -1
vn 0 0 1
usemtl base_concrete
f 1/1/1 284/2/1 283/3/1
f 1/1/1 283/3/1 2/4/1
f 4/5/2 286/6/2 285/7/2
f 4/5/2 285/7/2 3/8/2
f 3/9/3 285/10/3 284/11/3
f 3/9/3 284/11/3 1/12/3
f 6/13/4 5/14/4 3/15/4
f 6/13/4 3/15/4 1/16/4
f 7/17/5 6/18/5 1/19/5
f 7/17/5 1/19/5 2/20/5
f 8/21/6 7/22/6 2/23/6
f 8/21/6 2/23/6 4/24/6
f 5/25/7 8/26/7 4/27/7
f 5/25/7 4/27/7 3/28/7
f 12/29/8 10/30/8 9/31/8
f 12/29/8 9/31/8 11/32/8
f 15/33/9 13/34/9 14/35/9
f 15/33/9 14/35/9 16/36/9
f 9/37/10 10/38/10 14/39/10
f 9/37/10 14/39/10 13/40/10
f 11/41/11 9/42/11 13/43/11
f 11/41/11 13/43/11 15/44/11
f 16/45/12 14/46/12 10/47/12
f 16/45/12 10/47/12 12/48/12
f 20/49/13 18/50/13 17/51/13
f 20/49/13 17/51/13 19/52/13
f 23/53/14 21/54/14 22/55/14
f 23/53/14 22/55/14 24/56/14
f 17/57/15 18/58/15 22/59/15
f 17/57/15 22/59/15 21/60/15
f 19/61/16 17/62/16 21/63/16
f 19/61/16 21/63/16 23/64/16
f 24/65/17 22/66/17 18/67/17
f 24/65/17 18/67/17 20/68/17
f 28/69/18 26/70/18 25/71/18
f 28/69/18 25/71/18 27/72/18
f 31/73/19 29/74/19 30/75/19
f 31/73/19 30/75/19 32/76/19
f 25/77/20 26/78/20 30/79/20
f 25/77/20 30/79/20 29/80/20
f 27/81/21 25/82/21 29/83/21
f 27/81/21 29/83/21 31/84/21
f 32/85/22 30/86/22 26/87/22
f 32/85/22 26/87/22 28/88/22
f 36/89/23 34/90/23 33/91/23
f 36/89/23 33/91/23 35/92/23
f 39/93/24 37/94/24 38/95/24
f 39/93/24 38/95/24 40/96/24
f 33/97/25 34/98/25 38/99/25
f 33/97/25 38/99/25 37/100/25
f 35/101/26 33/102/26 37/103/26
f 35/101/26 37/103/26 39/104/26
f 40/105/27 38/106/27 34/107/27
f 40/105/27 34/107/27 36/108/27
f 41/109/28 42/110/28 44/111/28
f 41/109/28 44/111/28 43/112/28
f 48/113/29 46/114/29 45/115/29
f 48/113/29 45/115/29 47/116/29
f 51/117/30 49/118/30 50/119/30
f 51/117/30 50/119/30 52/120/30
f 45/121/31 46/122/31 50/123/31
f 45/121/31 50/123/31 49/124/31
f 47/125/32 45/126/32 49/127/32
f 47/125/32 49/127/32 51/128/32
f 52/129/33 50/130/33 46/131/33
f 52/129/33 46/131/33 48/132/33
f 56/133/34 54/134/34 53/135/34
f 56/133/34 53/135/34 55/136/34
f 36/137/35 34/138/35 57/139/35
f 36/137/35 57/139/35 58/140/35
f 53/141/36 54/142/36 57/143/36
f 53/141/36 57/143/36 34/144/36
f 55/145/37 53/146/37 34/147/37
f 55/145/37 34/147/37 36/148/37
f 58/149/38 57/150/38 54/151/38
f 58/149/38 54/151/38 56/152/38
f 62/153/39 60/154/39 59/155/39
f 62/153/39 59/155/39 61/156/39
f 65/157/40 63/158/40 64/159/40
f 65/157/40 64/159/40 66/160/40
f 59/161/41 60/162/41 64/163/41
f 59/161/41 64/163/41 63/164/41
f 61/165/42 59/166/42 63/167/42
f 61/165/42 63/167/42 65/168/42
f 66/169/43 64/170/43 60/171/43
f 66/169/43 60/171/43 62/172/43
f 67/173/44 68/174/44 69/175/44
f 67/173/44 69/175/44 41/176/44
f 71/177/45 69/178/45 73/179/45
f 71/177/45 73/179/45 72/180/45
f 43/181/46 73/182/46 70/183/46
f 43/181/46 70/183/46 74/184/46
f 78/185/47 76/186/47 75/187/47
f 78/185/47 75/187/47 77/188/47
f 81/189/48 79/190/48 80/191/48
f 81/189/48 80/191/48 82/192/48
f 75/193/49 76/194/49 80/195/49
f 75/193/49 80/195/49 79/196/49
f 77/197/50 75/198/50 79/199/50
f 77/197/50 79/199/50 81/200/50
f 82/201/51 80/202/51 76/203/51
f 82/201/51 76/203/51 78/204/51
f 87/205/52 83/206/52 85/207/52
f 87/205/52 85/207/52 88/208/52
f 89/209/53 86/210/53 84/211/53
f 89/209/53 84/211/53 90/212/53
f 85/213/54 83/214/54 84/215/54
f 85/213/54 84/215/54 86/216/54
f 88/217/55 85/218/55 86/219/55
f 88/217/55 86/219/55 89/220/55
f 90/221/56 84/222/56 83/223/56
f 90/221/56 83/223/56 87/224/56
f 95/225/57 91/226/57 93/227/57
f 95/225/57 93/227/57 96/228/57
f 97/229/58 94/230/58 92/231/58
f 97/229/58 92/231/58 98/232/58
f 93/233/59 91/234/59 92/235/59
f 93/233/59 92/235/59 94/236/59
f 96/237/60 93/238/60 94/239/60
f 96/237/60 94/239/60 97/240/60
f 98/241/61 92/242/61 91/243/61
f 98/241/61 91/243/61 95/244/61
f 99/245/62 41/246/62 43/247/62
f 99/245/62 43/247/62 100/248/62
f 2/249/63 68/250/63 67/251/63
f 2/249/63 67/251/63 1/252/63
f 1/253/64 67/254/64 41/255/64
f 1/253/64 41/255/64 99/256/64
f 101/257/65 69/258/65 68/259/65
f 101/257/65 68/259/65 2/260/65
f 102/261/66 73/262/66 69/263/66
f 102/261/66 69/263/66 101/264/66
f 3/265/67 74/266/67 70/267/67
f 3/265/67 70/267/67 4/268/67
f 100/269/68 43/270/68 74/271/68
f 100/269/68 74/271/68 3/272/68
f 4/273/69 70/274/69 73/275/69
f 4/273/69 73/275/69 102/276/69
f 106/277/70 104/278/70 103/279/70
f 106/277/70 103/279/70 105/280/70
f 109/281/71 107/282/71 108/283/71
f 109/281/71 108/283/71 110/284/71
f 103/285/72 104/286/72 108/287/72
f 103/285/72 108/287/72 107/288/72
f 106/289/73 105/290/73 109/291/73
f 106/289/73 109/291/73 110/292/73
f 105/293/74 103/294/74 107/295/74
f 105/293/74 107/295/74 109/296/74
f 113/297/75 112/298/75 111/299/75
f 113/297/75 111/299/75 101/300/75
f 116/301/76 114/302/76 115/303/76
f 116/301/76 115/303/76 117/304/76
f 111/305/77 112/306/77 115/307/77
f 111/305/77 115/307/77 114/308/77
f 113/309/78 101/310/78 116/311/78
f 113/309/78 116/311/78 117/312/78
f 117/313/79 115/314/79 112/315/79
f 117/313/79 112/315/79 113/316/79
f 124/317/80 122/318/80 123/319/80
f 124/317/80 123/319/80 125/320/80
f 119/321/81 118/322/81 123/323/81
f 119/321/81 123/323/81 122/324/81
f 121/325/82 120/326/82 124/327/82
f 121/325/82 124/327/82 125/328/82
f 120/329/83 119/330/83 122/331/83
f 120/329/83 122/331/83 124/332/83
f 125/333/84 123/334/84 118/335/84
f 125/333/84 118/335/84 121/336/84
f 129/337/85 127/338/85 126/339/85
f 129/337/85 126/339/85 128/340/85
f 118/341/86 70/342/86 130/343/86
f 118/341/86 130/343/86 131/344/86
f 126/345/87 127/346/87 130/347/87
f 126/345/87 130/347/87 70/348/87
f 129/349/88 128/350/88 118/351/88
f 129/349/88 118/351/88 131/352/88
f 131/353/89 130/354/89 127/355/89
f 131/353/89 127/355/89 129/356/89
f 135/357/90 133/358/90 132/359/90
f 135/357/90 132/359/90 134/360/90
f 138/361/91 136/362/91 137/363/91
f 138/361/91 137/363/91 139/364/91
f 132/365/92 133/366/92 137/367/92
f 132/365/92 137/367/92 136/368/92
f 135/369/93 134/370/93 138/371/93
f 135/369/93 138/371/93 139/372/93
f 134/373/94 132/374/94 136/375/94
f 134/373/94 136/375/94 138/376/94
f 139/377/95 137/378/95 133/379/95
f 139/377/95 133/379/95 135/380/95
f 146/381/96 144/382/96 145/383/96
f 146/381/96 145/383/96 147/384/96
f 140/385/97 141/386/97 145/387/97
f 140/385/97 145/387/97 144/388/97
f 143/389/98 142/390/98 146/391/98
f 143/389/98 146/391/98 147/392/98
f 142/393/99 140/394/99 144/395/99
f 142/393/99 144/395/99 146/396/99
f 147/397/100 145/398/100 141/399/100
f 147/397/100 141/399/100 143/400/100
f 151/401/101 149/402/101 148/403/101
f 151/401/101 148/403/101 150/404/101
f 154/405/102 152/406/102 153/407/102
f 154/405/102 153/407/102 155/408/102
f 148/409/103 149/410/103 153/411/103
f 148/409/103 153/411/103 152/412/103
f 151/413/104 150/414/104 154/415/104
f 151/413/104 154/415/104 155/416/104
f 150/417/105 148/418/105 152/419/105
f 150/417/105 152/419/105 154/420/105
f 159/421/106 157/422/106 156/423/106
f 159/421/106 156/423/106 158/424/106
f 162/425/107 160/426/107 161/427/107
f 162/425/107 161/427/107 163/428/107
f 156/429/108 157/430/108 161/431/108
f 156/429/108 161/431/108 160/432/108
f 159/433/109 158/434/109 162/435/109
f 159/433/109 162/435/109 163/436/109
f 158/437/110 156/438/110 160/439/110
f 158/437/110 160/439/110 162/440/110
f 165/441/111 163/442/111 162/443/111
f 165/441/111 162/443/111 164/444/111
f 168/445/112 166/446/112 167/447/112
f 168/445/112 167/447/112 169/448/112
f 162/449/113 163/450/113 167/451/113
f 162/449/113 167/451/113 166/452/113
f 165/453/114 164/454/114 168/455/114
f 165/453/114 168/455/114 169/456/114
f 164/457/115 162/458/115 166/459/115
f 164/457/115 166/459/115 168/460/115
f 173/461/116 171/462/116 170/463/116
f 173/461/116 170/463/116 172/464/116
f 176/465/117 174/466/117 175/467/117
f 176/465/117 175/467/117 177/468/117
f 170/469/118 171/470/118 175/471/118
f 170/469/118 175/471/118 174/472/118
f 173/473/119 172/474/119 176/475/119
f 173/473/119 176/475/119 177/476/119
f 172/477/120 170/478/120 174/479/120
f 172/477/120 174/479/120 176/480/120
f 184/481/121 182/482/121 183/483/121
f 184/481/121 183/483/121 185/484/121
f 178/485/122 179/486/122 183/487/122
f 178/485/122 183/487/122 182/488/122
f 181/489/123 180/490/123 184/491/123
f 181/489/123 184/491/123 185/492/123
f 180/493/124 178/494/124 182/495/124
f 180/493/124 182/495/124 184/496/124
f 185/497/125 183/498/125 179/499/125
f 185/497/125 179/499/125 181/500/125
f 189/501/126 187/502/126 186/503/126
f 189/501/126 186/503/126 188/504/126
f 192/505/127 190/506/127 191/507/127
f 192/505/127 191/507/127 193/508/127
f 186/509/128 187/510/128 191/511/128
f 186/509/128 191/511/128 190/512/128
f 189/513/129 188/514/129 192/515/129
f 189/513/129 192/515/129 193/516/129
f 193/517/130 191/518/130 187/519/130
f 193/517/130 187/519/130 189/520/130
f 200/521/131 198/522/131 199/523/131
f 200/521/131 199/523/131 201/524/131
f 194/525/132 195/526/132 199/527/132
f 194/525/132 199/527/132 198/528/132
f 197/529/133 196/530/133 200/531/133
f 197/529/133 200/531/133 201/532/133
f 196/533/134 194/534/134 198/535/134
f 196/533/134 198/535/134 200/536/134
f 201/537/135 199/538/135 195/539/135
f 201/537/135 195/539/135 197/540/135
f 205/541/136 203/542/136 202/543/136
f 205/541/136 202/543/136 204/544/136
f 208/545/137 206/546/137 207/547/137
f 208/545/137 207/547/137 209/548/137
f 202/549/138 203/550/138 207/551/138
f 202/549/138 207/551/138 206/552/138
f 205/553/139 204/554/139 208/555/139
f 205/553/139 208/555/139 209/556/139
f 204/557/140 202/558/140 206/559/140
f 204/557/140 206/559/140 208/560/140
f 213/561/141 211/562/141 210/563/141
f 213/561/141 210/563/141 212/564/141
f 210/565/142 211/566/142 215/567/142
f 210/565/142 215/567/142 214/568/142
f 213/569/143 212/570/143 216/571/143
f 213/569/143 216/571/143 217/572/143
f 212/573/144 210/574/144 214/575/144
f 212/573/144 214/575/144 216/576/144
f 217/577/145 215/578/145 211/579/145
f 217/577/145 211/579/145 213/580/145
f 221/581/146 219/582/146 218/583/146
f 221/581/146 218/583/146 220/584/146
f 218/585/147 219/586/147 223/587/147
f 218/585/147 223/587/147 222/588/147
f 221/589/148 220/590/148 224/591/148
f 221/589/148 224/591/148 225/592/148
f 220/593/149 218/594/149 222/595/149
f 220/593/149 222/595/149 224/596/149
f 225/597/150 223/598/150 219/599/150
f 225/597/150 219/599/150 221/600/150
f 228/601/151 226/602/151 221/603/151
f 228/601/151 221/603/151 227/604/151
f 221/605/152 226/606/152 229/607/152
f 221/605/152 229/607/152 225/608/152
f 228/609/153 227/610/153 230/611/153
f 228/609/153 230/611/153 231/612/153
f 227/613/154 221/614/154 225/615/154
f 227/613/154 225/615/154 230/616/154
f 231/617/155 229/618/155 226/619/155
f 231/617/155 226/619/155 228/620/155
f 235/621/156 233/622/156 232/623/156
f 235/621/156 232/623/156 234/624/156
f 226/625/157 236/626/157 237/627/157
f 226/625/157 237/627/157 229/628/157
f 232/629/158 233/630/158 237/631/158
f 232/629/158 237/631/158 236/632/158
f 235/633/159 234/634/159 226/635/159
f 235/633/159 226/635/159 229/636/159
f 234/637/160 232/638/160 236/639/160
f 234/637/160 236/639/160 226/640/160
f 241/641/161 239/642/161 238/643/161
f 241/641/161 238/643/161 240/644/161
f 244/645/162 242/646/162 243/647/162
f 244/645/162 243/647/162 245/648/162
f 238/649/163 239/650/163 243/651/163
f 238/649/163 243/651/163 242/652/163
f 241/653/164 240/654/164 244/655/164
f 241/653/164 244/655/164 245/656/164
f 240/657/165 238/658/165 242/659/165
f 240/657/165 242/659/165 244/660/165
f 249/661/166 247/662/166 246/663/166
f 249/661/166 246/663/166 248/664/166
f 252/665/167 250/666/167 251/667/167
f 252/665/167 251/667/167 253/668/167
f 246/669/168 247/670/168 251/671/168
f 246/669/168 251/671/168 250/672/168
f 249/673/169 248/674/169 252/675/169
f 249/673/169 252/675/169 253/676/169
f 253/677/170 251/678/170 247/679/170
f 253/677/170 247/679/170 249/680/170
f 257/681/171 255/682/171 254/683/171
f 257/681/171 254/683/171 256/684/171
f 260/685/172 258/686/172 259/687/172
f 260/685/172 259/687/172 261/688/172
f 254/689/173 255/690/173 259/691/173
f 254/689/173 259/691/173 258/692/173
f 257/693/174 256/694/174 260/695/174
f 257/693/174 260/695/174 261/696/174
f 261/697/175 259/698/175 255/699/175
f 261/697/175 255/699/175 257/700/175
f 265/701/176 263/702/176 262/703/176
f 265/701/176 262/703/176 264/704/176
f 268/705/177 266/706/177 267/707/177
f 268/705/177 267/707/177 269/708/177
f 262/709/178 263/710/178 267/711/178
f 262/709/178 267/711/178 266/712/178
f 265/713/179 264/714/179 268/715/179
f 265/713/179 268/715/179 269/716/179
f 269/717/180 267/718/180 263/719/180
f 269/717/180 263/719/180 265/720/180
f 271/721/181 269/722/181 268/723/181
f 271/721/181 268/723/181 270/724/181
f 274/725/182 272/726/182 273/727/182
f 274/725/182 273/727/182 275/728/182
f 268/729/183 269/730/183 273/731/183
f 268/729/183 273/731/183 272/732/183
f 271/733/184 270/734/184 274/735/184
f 271/733/184 274/735/184 275/736/184
f 275/737/185 273/738/185 269/739/185
f 275/737/185 269/739/185 271/740/185
f 278/741/186 276/742/186 69/743/186
f 278/741/186 69/743/186 277/744/186
f 281/745/187 279/746/187 280/747/187
f 281/745/187 280/747/187 282/748/187
f 69/749/188 276/750/188 280/751/188
f 69/749/188 280/751/188 279/752/188
f 278/753/189 277/754/189 281/755/189
f 278/753/189 281/755/189 282/756/189
f 282/757/190 280/758/190 276/759/190
f 282/757/190 276/759/190 278/760/190
f 2/761/191 283/762/191 286/763/191
f 2/761/191 286/763/191 4/764/191
f 288/765/192 293/766/192 294/767/192
f 288/765/192 294/767/192 289/768/192
f 291/769/193 287/770/193 290/771/193
f 291/769/193 290/771/193 292/772/193
f 287/773/194 288/774/194 289/775/194
f 287/773/194 289/775/194 290/776/194
f 293/777/195 291/778/195 292/779/195
f 293/777/195 292/779/195 294/780/195