# Made by Pabilo8 with Blockbench
# Exported with IIToolkit Plugin
mtllib flagpole.mtl


o variant_steel
v 1.75 0.2500001392339992 0.3749998883697847
v 1.75 0.25000000707379755 0.1874996898282697
v 2 -1.250000050327233 0.1874998632264071
v 2 -1.2500001824874347 -3.353151079021899e-7
v 1.5625 0.2500001392339992 0.3749998883697847
v 1.5625 0.25000000707379755 0.1874996898282697
v 1.8125 -1.250000050327233 0.1874998632264071
v 1.8125 -1.2500001824874347 -3.353151079021899e-7
v 1.8125 0.2500002259330679 1.1249999170703
v 1.8125 0.25000009377286614 0.9374997185287851
v 2 -1.2499998314679628 1.1250000904684374
v 2 -1.2499999636281645 0.9374998919269223
v 1.625 0.2500002259330679 1.1249999170703
v 1.625 0.25000009377286614 0.9374997185287851
v 1.8125 -1.2499998314679628 1.1250000904684374
v 1.8125 -1.2499999636281645 0.9374998919269223
v 1.8125 0.24999992778776536 2.8125000112509424
v 1.8125 0.2499997956275638 2.624999812709427
v 2 -1.2499998356911601 2.999999779486953
v 2 -1.250000129613265 2.812500184649079
v 1.625 0.24999992778776536 2.8125000112509424
v 1.625 0.2499997956275638 2.624999812709427
v 1.8125 -1.2499998356911601 2.999999779486953
v 1.8125 -1.250000129613265 2.812500184649079
v 1.8125 0.24999983122146296 2.1250002499654794
v 1.8125 0.2499996990612613 1.9375000514239642
v 2 -1.2500000644176643 2.1249998196599753
v 2 -1.2500003583397692 1.9375002248221014
v 1.625 0.24999983122146296 2.1250002499654794
v 1.625 0.2499996990612613 1.9375000514239642
v 1.8125 -1.2500000644176643 2.1249998196599753
v 1.8125 -1.2500003583397692 1.9375002248221014
v -0.6249999999999999 0.2500002259330679 1.1249999170703
v -0.6249999999999999 0.25000009377286614 0.9374997185287851
v -0.8124999999999999 -1.2499998314679628 1.1250000904684374
v -0.8124999999999999 -1.2499999636281645 0.9374998919269223
v -0.8124999999999999 0.2500002259330679 1.1249999170703
v -0.8124999999999999 0.25000009377286614 0.9374997185287851
v -0.9999999999999999 -1.2499998314679628 1.1250000904684374
v -0.9999999999999999 -1.2499999636281645 0.9374998919269223
v -0.6249999999999999 0.24999983122146296 2.1250002499654794
v -0.6249999999999999 0.2499996990612613 1.9375000514239642
v -0.8124999999999999 -1.2500000644176643 2.1249998196599753
v -0.8124999999999999 -1.2500003583397692 1.9375002248221014
v -0.8124999999999999 0.24999983122146296 2.1250002499654794
v -0.8124999999999999 0.2499996990612613 1.9375000514239642
v -0.9999999999999999 -1.2500000644176643 2.1249998196599753
v -0.9999999999999999 -1.2500003583397692 1.9375002248221014
v -0.6249999999999999 0.24999992778776536 2.8125000112509424
v -0.6249999999999999 0.2499997956275638 2.624999812709427
v -0.8124999999999999 -1.2499998356911601 2.999999779486953
v -0.8124999999999999 -1.250000129613265 2.812500184649079
v -0.8124999999999999 0.24999992778776536 2.8125000112509424
v -0.8124999999999999 0.2499997956275638 2.624999812709427
v -0.9999999999999999 -1.2499998356911601 2.999999779486953
v -0.9999999999999999 -1.250000129613265 2.812500184649079
v -0.6249999999999999 0.2500001392339992 0.3749998883697847
v -0.6249999999999999 0.25000000707379755 0.1874996898282697
v -0.8124999999999999 -1.250000050327233 0.1874998632264071
v -0.8124999999999999 -1.2500001824874347 -3.353151079021899e-7
v -0.8124999999999999 0.2500001392339992 0.3749998883697847
v -0.8124999999999999 0.25000000707379755 0.1874996898282697
v -0.9999999999999999 -1.250000050327233 0.1874998632264071
v -0.9999999999999999 -1.2500001824874347 -3.353151079021899e-7
v 0.125 0.2500001392339992 0.3749998883697847
v 0.125 0.25000000707379755 0.1874996898282697
v 0.125 -1.250000050327233 0.1874998632264071
v 0.125 -1.2500001824874347 -3.353151079021899e-7
v -0.0625 0.2500001392339992 0.3749998883697847
v -0.0625 0.25000000707379755 0.1874996898282697
v -0.0625 -1.250000050327233 0.1874998632264071
v -0.0625 -1.2500001824874347 -3.353151079021899e-7
v 1.0625 0.2500001392339992 0.3749998883697847
v 1.0625 0.25000000707379755 0.1874996898282697
v 1.0625 -1.250000050327233 0.1874998632264071
v 1.0625 -1.2500001824874347 -3.353151079021899e-7
v 0.875 0.2500001392339992 0.3749998883697847
v 0.875 0.25000000707379755 0.1874996898282697
v 0.875 -1.250000050327233 0.1874998632264071
v 0.875 -1.2500001824874347 -3.353151079021899e-7
v 1.0625 0.24999992778776536 2.8125000112509424
v 1.0625 0.2499997956275638 2.624999812709427
v 1.0625 -1.2499998356911601 2.999999779486953
v 1.0625 -1.250000129613265 2.812500184649079
v 0.875 0.24999992778776536 2.8125000112509424
v 0.875 0.2499997956275638 2.624999812709427
v 0.875 -1.2499998356911601 2.999999779486953
v 0.875 -1.250000129613265 2.812500184649079
v 0.125 0.24999992778776536 2.8125000112509424
v 0.125 0.2499997956275638 2.624999812709427
v 0.125 -1.2499998356911601 2.999999779486953
v 0.125 -1.250000129613265 2.812500184649079
v -0.0625 0.24999992778776536 2.8125000112509424
v -0.0625 0.2499997956275638 2.624999812709427
v -0.0625 -1.2499998356911601 2.999999779486953
v -0.0625 -1.250000129613265 2.812500184649079
v 0.875 -0.49999996875254826 3.0000002964915264
v 1.0625 -0.49999996875254826 3.0000002964915264
v 1.0625 -0.5000001009127499 2.8125000979500108
v 0.875 -0.5000001009127499 2.8125000979500108
v 0.125 -0.49999996875254826 3.0000002964915264
v -0.0625 -0.49999996875254826 3.0000002964915264
v -0.0625 -0.5000001009127499 2.8125000979500108
v 0.125 -0.5000001009127499 2.8125000979500108
v -0.9999999999999999 -0.5000000357171492 2.1249997329609065
v -0.9999999999999999 -0.5000003296392541 1.937500138123033
v -0.8124999999999999 -0.5000003296392541 1.937500138123033
v -0.8124999999999999 -0.5000000357171492 2.1249997329609065
v -0.9999999999999999 -0.49999980276744743 1.1250000037693686
v -0.9999999999999999 -0.49999993492764916 0.9374998052278536
v -0.8124999999999999 -0.49999993492764916 0.9374998052278536
v -0.8124999999999999 -0.49999980276744743 1.1250000037693686
v -0.0625 -0.5000003155488226 1.816894650286116e-7
v 0.125 -0.5000003155488226 1.816894650286116e-7
v 0.125 -0.5000000216267177 0.1874997765273383
v -0.0625 -0.5000000216267177 0.1874997765273383
v 0.875 -0.5000003155488226 1.816894650286116e-7
v 1.0625 -0.5000003155488226 1.816894650286116e-7
v 1.0625 -0.5000000216267177 0.1874997765273383
v 0.875 -0.5000000216267177 0.1874997765273383
v 2 -0.49999993492764916 0.9374998052278536
v 2 -0.49999980276744743 1.1250000037693686
v 1.8125 -0.49999980276744743 1.1250000037693686
v 1.8125 -0.49999993492764916 0.9374998052278536
v 2 -0.5000003296392541 1.937500138123033
v 2 -0.5000000357171492 2.1249997329609065
v 1.8125 -0.5000000357171492 2.1249997329609065
v 1.8125 -0.5000003296392541 1.937500138123033
v 2 -0.5000001009127499 2.8125000979500108
v 2 -0.49999996875254826 3.0000002964915264
v 1.8125 -0.49999996875254826 3.0000002964915264
v 1.8125 -0.5000001009127499 2.8125000979500108
v -0.8124999999999999 -0.49999996875254826 3.0000002964915264
v -0.9999999999999999 -0.49999996875254826 3.0000002964915264
v -0.9999999999999999 -0.5000001009127499 2.8125000979500108
v -0.8124999999999999 -0.5000001009127499 2.8125000979500108
v 1.96875 -0.5000003155488226 1.816894650286116e-7
v 1.96875 -0.5000000216267177 0.1874997765273383
v 1.78125 -0.5000000216267177 0.1874997765273383
v 1.78125 -0.5000003155488226 1.816894650286116e-7
v -0.8124999999999999 -0.5000003155488226 1.816894650286116e-7
v -0.8124999999999999 -0.5000000216267177 0.1874997765273383
v -0.9999999999999999 -0.5000000216267177 0.1874997765273383
v -0.9999999999999999 -0.5000003155488226 1.816894650286116e-7
v -0.7461937500000001 0.2499997759300946 1.9789065899040201
v -0.7461937500000001 0.24999981551508355 1.020572792876393
v -0.9336937500000001 -1.250000241885947 1.0205729662745302
v -0.934346875 -1.2499998064281586 0.0631529065499119
v -0.934346875 -1.2500002018041472 2.937107300474974
v -0.9336937500000001 -1.250000119709033 1.978906159598516
v -0.934346875 -0.49999977772764326 0.06315281985084331
v -0.9336937500000001 -0.5000002131854318 1.0205728795754616
v -0.934346875 -0.5000001731036319 2.9371072137759056
v -0.9336937500000001 -0.5000000910085177 1.9789060728994472
v 1.751715 0.2499997759300946 1.9789065899040201
v 1.751715 0.24999981551508355 1.020572792876393
v 1.939215 -1.250000241885947 1.0205729662745302
v 1.7521074999999997 0.2499997794294322 0.2506527699313865
v 1.9396074999999997 -1.2499998064281586 0.0631529065499119
v 1.7521074999999997 0.25000016537842007 2.7496076940008667
v 1.9396074999999997 -1.2500002018041472 2.937107300474974
v 1.939215 -1.250000119709033 1.978906159598516
v 1.9396074999999997 -0.49999977772764326 0.06315281985084331
v 1.939215 -0.5000002131854318 1.0205728795754616
v 1.9396074999999997 -0.5000001731036319 2.9371072137759056
v 1.939215 -0.5000000910085177 1.9789060728994472
v 0.023854374999999983 0.2499999412138132 2.7489541158472575
v 0.9821875 0.2499999412138132 2.7489541158472575
v 0.9821875 -1.2499999840270155 2.93645448778691
v 0.023854374999999983 -1.2499999840270155 2.93645448778691
v 0.9821875 -0.4999999553265002 2.936454401087841
v 0.023854374999999983 -0.4999999553265002 2.936454401087841
v 0.023854374999999983 0.2499999936477496 0.25104558523195486
v 0.9821875 0.2499999936477496 0.25104558523195486
v 0.9821875 -1.2500001959134828 0.06354556008857704
v 0.023854374999999983 -1.2500001959134828 0.06354556008857704
v 0.9821875 -0.5000001672129673 0.06354547338950844
v 0.023854374999999983 -0.5000001672129673 0.06354547338950844
v 2 -3.0115741308850135 3.000000191569092
v 2 -3.0115738739776465 2.385289346040764e-7
v -0.9999999999999999 -3.0115741308850135 3.000000191569092
v -0.9999999999999999 -3.0115738739776465 2.385289346040764e-7
v -0.745 -1.2499998520578508 2.7450002520570913
v 1.745 -1.2499998520578508 2.7450002520570913
v 1.745 -1.249999724179006 0.25499995758029836
v -0.745 -1.249999724179006 0.25499995758029836
v -1.0097875000000003 0.23815839923290538 3.00000036785977
v -1.0097875000000003 0.23815819024086893 1.9999998732026876
v -1.058315625 0.05704719244271511 3.000000337216835
v -1.058315625 0.05704698345067838 1.9999998425597527
v -0.8286762499999999 0.1896298589191176 3.00000025349878
v -0.8286762499999999 0.1896296499270811 1.9999997588416978
v -0.8772049999999999 0.008518652128927329 3.0000002228558453
v -0.8772049999999999 0.008518443136890652 1.999999728198763
v -1.0097875000000003 0.23815842319057035 1.0000001440111501
v -1.058315625 0.05704721640038013 1.000000113368215
v -0.8286762499999999 0.18962988287678262 1.00000002965016
v -0.8772049999999999 0.008518676086592403 0.9999999990072251
v -1.0097875000000003 0.2381580524366308 2.530577087878072e-7
v -1.058315625 0.05704684564644047 2.224147741536342e-7
v -0.8286762499999999 0.189629512122843 1.3869671899868763e-7
v -0.8772049999999999 0.008518305332652742 1.0805378414247002e-7
v -0.9876900000000001 0.1998849607349963 3.0000000885372677
v -0.9876900000000001 0.19988458998105663 2.0000001975838266
v -1.0200425000000002 0.07914395497365556 3.00000001418801
v -1.0200425000000002 0.07914418792335731 2.000000284996472
v -0.8669493749999998 0.16753265444643878 2.999999811062061
v -0.8669493749999998 0.16753228369249917 1.9999999201086198
v -0.8993018749999998 0.04679164868509811 2.999999736712803
v -0.8993018749999998 0.0467918816347998 2.0000000075212654
v -0.9876900000000001 0.19988498469266136 0.9999998646886475
v -1.0200425000000002 0.07914397893132069 0.9999997903393898
v -0.8669493749999998 0.1675325166422007 1.000000190917082
v -0.8993018749999998 0.04679151088086009 1.0000001165678243
v -0.9876900000000001 0.1998846139387217 -2.6264793451247215e-8
v -1.0200425000000002 0.07914421188102244 6.114785211508433e-8
v -0.8669493749999998 0.16753230765016425 -3.0374000048460914e-7
v -0.8993018749999998 0.04679190559246499 -2.163273551403222e-7
v 2.0097875 0.23815839923290538 3.00000036785977
v 2.0097875 0.23815819024086893 1.9999998732026876
v 2.058315625 0.05704719244271511 3.000000337216835
v 2.058315625 0.05704698345067838 1.9999998425597527
v 1.82867625 0.1896298589191176 3.00000025349878
v 1.82867625 0.1896296499270811 1.9999997588416978
v 1.877205 0.008518652128927329 3.0000002228558453
v 1.877205 0.008518443136890652 1.999999728198763
v 2.0097875 0.23815842319057035 1.0000001440111501
v 2.058315625 0.05704721640038013 1.000000113368215
v 1.82867625 0.18962988287678262 1.00000002965016
v 1.877205 0.008518676086592403 0.9999999990072251
v 2.0097875 0.2381580524366308 2.530577087878072e-7
v 2.058315625 0.05704684564644047 2.224147741536342e-7
v 1.82867625 0.189629512122843 1.3869671899868763e-7
v 1.877205 0.008518305332652742 1.0805378414247002e-7
v 1.9876899999999997 0.1998849607349963 3.0000000885372677
v 1.9876899999999997 0.19988458998105663 2.0000001975838266
v 2.0200424999999997 0.07914395497365556 3.00000001418801
v 2.0200424999999997 0.07914418792335731 2.000000284996472
v 1.866949375 0.16753265444643878 2.999999811062061
v 1.866949375 0.16753228369249917 1.9999999201086198
v 1.899301875 0.04679164868509811 2.999999736712803
v 1.899301875 0.0467918816347998 2.0000000075212654
v 1.9876899999999997 0.19988498469266136 0.9999998646886475
v 2.0200424999999997 0.07914397893132069 0.9999997903393898
v 1.866949375 0.1675325166422007 1.000000190917082
v 1.899301875 0.04679151088086009 1.0000001165678243
v 1.9876899999999997 0.1998846139387217 -2.6264793451247215e-8
v 2.0200424999999997 0.07914421188102244 6.114785211508433e-8
v 1.866949375 0.16753230765016425 -3.0374000048460914e-7
v 1.899301875 0.04679190559246499 -2.163273551403222e-7
v -0.9999999999999999 0.2381582138874534 -0.009787592919837884
v 0 0.2381582138874534 -0.009787592919837884
v -0.9999999999999999 0.05704712145825308 -0.05831616387656058
v 0 0.05704712145825308 -0.05831616387656058
v 1 0.2381582138874534 -0.009787592919837884
v 1 0.05704712145825308 -0.05831616387656058
v 2 0.2381582138874534 -0.009787592919837884
v 2 0.05704712145825308 -0.05831616387656058
v 1 0.1896296429307308 0.1713234995093622
v 2 0.1896296429307308 0.1713234995093622
v 2 0.008518550501530497 0.12279492855263952
v 1 0.008518550501530497 0.12279492855263952
v 0 0.1896296429307308 0.1713234995093622
v 0 0.008518550501530497 0.12279492855263952
v -0.9999999999999999 0.1896296429307308 0.1713234995093622
v -0.9999999999999999 0.008518550501530497 0.12279492855263952
v -0.9999999999999999 0.19988493665646617 0.012309493992241682
v -0.9999999999999999 0.16753255601865114 0.13305022227837493
v 0 0.19988493665646617 0.012309493992241682
v 0 0.16753255601865114 0.13305022227837493
v 1 0.19988493665646617 0.012309493992241682
v 0 0.07914420837033265 -0.02004288664557352
v 1 0.07914420837033265 -0.02004288664557352
v 2 0.19988493665646617 0.012309493992241682
v 2 0.07914420837033265 -0.02004288664557352
v 1 0.16753255601865114 0.13305022227837493
v 2 0.16753255601865114 0.13305022227837493
v 2 0.04679182773251761 0.10069784164055973
v 1 0.04679182773251761 0.10069784164055973
v 0 0.04679182773251761 0.10069784164055973
v -0.9999999999999999 0.07914420837033265 -0.02004288664557352
v -0.9999999999999999 0.04679182773251761 0.10069784164055973
v -0.9999999999999999 0.1675324060779519 2.866949285043685
v -0.9999999999999999 0.1998847997791548 2.9876899645765915
v 0 0.1998847997791548 2.9876899645765915
v 0 0.1675324060779519 2.866949285043685
v 1 0.1998847997791548 2.9876899645765915
v 0 0.0791441202462485 3.020042358277794
v 1 0.0791441202462485 3.020042358277794
v 2 0.1998847997791548 2.9876899645765915
v 2 0.0791441202462485 3.020042358277794
v 1 0.1675324060779519 2.866949285043685
v 2 0.1675324060779519 2.866949285043685
v 2 0.0467917265450456 2.8993016787448878
v 1 0.0467917265450456 2.8993016787448878
v 0 0.0467917265450456 2.8993016787448878
v -0.9999999999999999 0.0791441202462485 3.020042358277794
v -0.9999999999999999 0.0467917265450456 2.8993016787448878
v -0.9999999999999999 0.18962988987313295 2.8286762889824955
v -0.9999999999999999 0.23815839954398577 3.009787610133676
v 0 0.23815839954398577 3.009787610133676
v 0 0.18962988987313295 2.8286762889824955
v 1 0.23815839954398577 3.009787610133676
v 0 0.05704707839280565 3.0583161198045286
v 1 0.05704707839280565 3.0583161198045286
v 2 0.23815839954398577 3.009787610133676
v 2 0.05704707839280565 3.0583161198045286
v 1 0.18962988987313295 2.8286762889824955
v 2 0.18962988987313295 2.8286762889824955
v 2 0.008518568721952724 2.877204798653348
v 1 0.008518568721952724 2.877204798653348
v 0 0.008518568721952724 2.877204798653348
v -0.9999999999999999 0.05704707839280565 3.0583161198045286
v -0.9999999999999999 0.008518568721952724 2.877204798653348
v 1.6931249999999998 0.2687499999999997 2.693125
v 1.745 -0.9999999999999998 2.745
v -0.745 -0.9999999999999998 2.745
v -0.6931250000000001 0.2687499999999997 2.693125
v 1.6931249999999998 0.26874999999999993 0.3068749999999998
v 1.745 -1 0.25499999999999967
v -0.745 -1 0.25499999999999967
v -0.6931250000000001 0.26874999999999993 0.3068749999999998
v 1.7521074999999997 0.2500001653784205 0.25039230599913287
v -0.6931250000000001 0.26875000000000004 0.30687499999999934
v 1.6931249999999998 0.26875000000000004 0.30687499999999934
v 1.744137081172104 0.2500001653784203 0.24937422513419927
v 1.7441370811721044 0.2500001653784203 2.748328600134199
v 1.6876543871712375 0.2687499999999996 0.3030961001341994
v 1.687654387171238 0.26874999999999993 2.689346100134199
v -0.746169426543026 0.25000006889117343 0.2502029017659628
v -0.7454919780860522 0.25000016537842007 2.748968147067533
v -0.6876543871712374 0.2687499999999996 0.3030961001341994
v -0.6876543871712378 0.26874999999999993 2.689346100134199
vt 0.75 0.609375
vt 0.75 0.8046875
vt 0.703125 0.8046875
vt 0.703125 0.609375
vt 0.75 0.609375
vt 0.75 0.8046875
vt 0.703125 0.8046875
vt 0.703125 0.609375
vt 0.75 1
vt 0.75 0.953125
vt 0.796875 0.953125
vt 0.796875 1
vt 0.703125 0.609375
vt 0.703125 0.8046875
vt 0.75 0.8046875
vt 0.75 0.609375
vt 0.703125 0.609375
vt 0.703125 0.8046875
vt 0.75 0.8046875
vt 0.75 0.609375
vt 0.75 0.609375
vt 0.75 0.8046875
vt 0.703125 0.8046875
vt 0.703125 0.609375
vt 0.75 1
vt 0.75 0.953125
vt 0.796875 0.953125
vt 0.796875 1
vt 0.703125 0.609375
vt 0.703125 0.8046875
vt 0.75 0.8046875
vt 0.75 0.609375
vt 0.703125 0.609375
vt 0.703125 0.8046875
vt 0.75 0.8046875
vt 0.75 0.609375
vt 0.75 0.609375
vt 0.75 0.8046875
vt 0.703125 0.8046875
vt 0.703125 0.609375
vt 0.75 0.609375
vt 0.75 0.8046875
vt 0.703125 0.8046875
vt 0.703125 0.609375
vt 0.75 1
vt 0.75 0.953125
vt 0.796875 0.953125
vt 0.796875 1
vt 0.703125 0.609375
vt 0.703125 0.8046875
vt 0.75 0.8046875
vt 0.75 0.609375
vt 0.703125 0.609375
vt 0.703125 0.8046875
vt 0.75 0.8046875
vt 0.75 0.609375
vt 0.75 0.609375
vt 0.75 0.8046875
vt 0.703125 0.8046875
vt 0.703125 0.609375
vt 0.75 1
vt 0.75 0.953125
vt 0.796875 0.953125
vt 0.796875 1
vt 0.703125 0.609375
vt 0.703125 0.8046875
vt 0.75 0.8046875
vt 0.75 0.609375
vt 0.703125 0.609375
vt 0.703125 0.8046875
vt 0.75 0.8046875
vt 0.75 0.609375
vt 0.75 0.609375
vt 0.75 0.8046875
vt 0.703125 0.8046875
vt 0.703125 0.609375
vt 0.75 1
vt 0.75 0.953125
vt 0.796875 0.953125
vt 0.796875 1
vt 0.703125 0.609375
vt 0.703125 0.8046875
vt 0.75 0.8046875
vt 0.75 0.609375
vt 0.703125 0.609375
vt 0.703125 0.8046875
vt 0.75 0.8046875
vt 0.75 0.609375
vt 0.75 0.609375
vt 0.75 0.8046875
vt 0.703125 0.8046875
vt 0.703125 0.609375
vt 0.75 1
vt 0.75 0.953125
vt 0.796875 0.953125
vt 0.796875 1
vt 0.703125 0.609375
vt 0.703125 0.8046875
vt 0.75 0.8046875
vt 0.75 0.609375
vt 0.703125 0.609375
vt 0.703125 0.8046875
vt 0.75 0.8046875
vt 0.75 0.609375
vt 0.75 0.609375
vt 0.75 0.8046875
vt 0.703125 0.8046875
vt 0.703125 0.609375
vt 0.75 0.609375
vt 0.75 0.8046875
vt 0.703125 0.8046875
vt 0.703125 0.609375
vt 0.75 1
vt 0.75 0.953125
vt 0.796875 0.953125
vt 0.796875 1
vt 0.703125 0.609375
vt 0.703125 0.8046875
vt 0.75 0.8046875
vt 0.75 0.609375
vt 0.703125 0.609375
vt 0.703125 0.8046875
vt 0.75 0.8046875
vt 0.75 0.609375
vt 0.75 0.609375
vt 0.75 0.8046875
vt 0.703125 0.8046875
vt 0.703125 0.609375
vt 0.75 0.609375
vt 0.75 0.8046875
vt 0.703125 0.8046875
vt 0.703125 0.609375
vt 0.75 1
vt 0.75 0.953125
vt 0.796875 0.953125
vt 0.796875 1
vt 0.703125 0.609375
vt 0.703125 0.8046875
vt 0.75 0.8046875
vt 0.75 0.609375
vt 0.703125 0.609375
vt 0.703125 0.8046875
vt 0.75 0.8046875
vt 0.75 0.609375
vt 0.75 0.609375
vt 0.75 0.8046875
vt 0.703125 0.8046875
vt 0.703125 0.609375
vt 0.75 0.609375
vt 0.75 0.8046875
vt 0.703125 0.8046875
vt 0.703125 0.609375
vt 0.75 1
vt 0.75 0.953125
vt 0.796875 0.953125
vt 0.796875 1
vt 0.703125 0.609375
vt 0.703125 0.8046875
vt 0.75 0.8046875
vt 0.75 0.609375
vt 0.75 0.609375
vt 0.75 0.8046875
vt 0.703125 0.8046875
vt 0.703125 0.609375
vt 0.75 0.609375
vt 0.75 0.8046875
vt 0.703125 0.8046875
vt 0.703125 0.609375
vt 0.75 1
vt 0.75 0.953125
vt 0.796875 0.953125
vt 0.796875 1
vt 0.703125 0.609375
vt 0.703125 0.8046875
vt 0.75 0.8046875
vt 0.75 0.609375
vt 0.703125 1
vt 0.703125 0.8046875
vt 0.75 0.8046875
vt 0.75 1
vt 0.703125 1
vt 0.703125 0.8046875
vt 0.75 0.8046875
vt 0.75 1
vt 0.75 1
vt 0.75 0.953125
vt 0.796875 0.953125
vt 0.796875 1
vt 0.75 1
vt 0.75 0.8046875
vt 0.703125 0.8046875
vt 0.703125 1
vt 0.75 1
vt 0.75 0.8046875
vt 0.703125 0.8046875
vt 0.703125 1
vt 0.75 0.609375
vt 0.75 0.8046875
vt 0.703125 0.8046875
vt 0.703125 0.609375
vt 0.75 0.609375
vt 0.75 0.8046875
vt 0.703125 0.8046875
vt 0.703125 0.609375
vt 0.75 1
vt 0.75 0.953125
vt 0.796875 0.953125
vt 0.796875 1
vt 0.703125 0.609375
vt 0.703125 0.8046875
vt 0.75 0.8046875
vt 0.75 0.609375
vt 0.703125 0.609375
vt 0.703125 0.8046875
vt 0.75 0.8046875
vt 0.75 0.609375
vt 0.75 0.609375
vt 0.75 0.8046875
vt 0.703125 0.8046875
vt 0.703125 0.609375
vt 0.75 0.609375
vt 0.75 0.8046875
vt 0.703125 0.8046875
vt 0.703125 0.609375
vt 0.75 1
vt 0.75 0.8046875
vt 0.703125 0.8046875
vt 0.703125 1
vt 0.703125 1
vt 0.703125 0.8046875
vt 0.75 0.8046875
vt 0.75 1
vt 0.75 1
vt 0.75 0.8046875
vt 0.703125 0.8046875
vt 0.703125 1
vt 0.703125 1
vt 0.703125 0.8046875
vt 0.75 0.8046875
vt 0.75 1
vt 0.703125 1
vt 0.703125 0.8046875
vt 0.75 0.8046875
vt 0.75 1
vt 0.75 1
vt 0.75 0.8046875
vt 0.703125 0.8046875
vt 0.703125 1
vt 0.703125 1
vt 0.703125 0.8046875
vt 0.75 0.8046875
vt 0.75 1
vt 0.75 1
vt 0.75 0.8046875
vt 0.703125 0.8046875
vt 0.703125 1
vt 0.703125 1
vt 0.703125 0.8046875
vt 0.75 0.8046875
vt 0.75 1
vt 0.75 1
vt 0.75 0.8046875
vt 0.703125 0.8046875
vt 0.703125 1
vt 0.703125 1
vt 0.703125 0.8046875
vt 0.75 0.8046875
vt 0.75 1
vt 0.75 1
vt 0.75 0.8046875
vt 0.703125 0.8046875
vt 0.703125 1
vt 0.75 1
vt 0.75 0.8046875
vt 0.703125 0.8046875
vt 0.703125 1
vt 0.703125 1
vt 0.703125 0.8046875
vt 0.75 0.8046875
vt 0.75 1
vt 0.75 1
vt 0.75 0.8046875
vt 0.703125 0.8046875
vt 0.703125 1
vt 0.703125 1
vt 0.703125 0.8046875
vt 0.75 0.8046875
vt 0.75 1
vt 0.75 1
vt 0.75 0.8046875
vt 0.703125 0.8046875
vt 0.703125 1
vt 0.703125 1
vt 0.703125 0.8046875
vt 0.75 0.8046875
vt 0.75 1
vt 0.75 1
vt 0.75 0.8046875
vt 0.703125 0.8046875
vt 0.703125 1
vt 0.703125 1
vt 0.703125 0.8046875
vt 0.75 0.8046875
vt 0.75 1
vt 0.703125 1
vt 0.703125 0.8046875
vt 0.75 0.8046875
vt 0.75 1
vt 0.75 1
vt 0.75 0.8046875
vt 0.703125 0.8046875
vt 0.703125 1
vt 0.703125 1
vt 0.703125 0.8046875
vt 0.75 0.8046875
vt 0.75 1
vt 0.75 1
vt 0.75 0.8046875
vt 0.703125 0.8046875
vt 0.703125 1
vt 0.703125 1
vt 0.703125 0.8046875
vt 0.75 0.8046875
vt 0.75 1
vt 0.75 1
vt 0.75 0.8046875
vt 0.703125 0.8046875
vt 0.703125 1
vt 0.703125 1
vt 0.703125 0.8046875
vt 0.75 0.8046875
vt 0.75 1
vt 0.75 1
vt 0.75 0.8046875
vt 0.703125 0.8046875
vt 0.703125 1
vt 0.703125 1
vt 0.703125 0.8046875
vt 0.75 0.8046875
vt 0.75 1
vt 0.75 1
vt 0.75 0.8046875
vt 0.703125 0.8046875
vt 0.703125 1
vt 0.703125 1
vt 0.703125 0.8046875
vt 0.75 0.8046875
vt 0.75 1
vt 0.75 1
vt 0.75 0.8046875
vt 0.703125 0.8046875
vt 0.703125 1
vt 0.75 1
vt 0.75 0.8046875
vt 0.703125 0.8046875
vt 0.703125 1
vt 0.703125 1
vt 0.703125 0.8046875
vt 0.75 0.8046875
vt 0.75 1
vt 0.75 1
vt 0.75 0.8046875
vt 0.703125 0.8046875
vt 0.703125 1
vt 0.703125 1
vt 0.703125 0.8046875
vt 0.75 0.8046875
vt 0.75 1
vt 0.703125 1
vt 0.703125 0.8046875
vt 0.75 0.8046875
vt 0.75 1
vt 0.75 1
vt 0.75 0.8046875
vt 0.703125 0.8046875
vt 0.703125 1
vt 0.703125 1
vt 0.703125 0.8046875
vt 0.75 0.8046875
vt 0.75 1
vt 0.75 1
vt 0.75 0.8046875
vt 0.703125 0.8046875
vt 0.703125 1
vt 0.703125 1
vt 0.703125 0.8046875
vt 0.75 0.8046875
vt 0.75 1
vt 0.75 1
vt 0.75 0.8046875
vt 0.703125 0.8046875
vt 0.703125 1
vt 0.703125 1
vt 0.703125 0.8046875
vt 0.75 0.8046875
vt 0.75 1
vt 0.75 1
vt 0.75 0.8046875
vt 0.703125 0.8046875
vt 0.703125 1
vt 0.625 1
vt 0.671875 0.8125
vt 0.4375 0.8125
vt 0.4375 1
vt 0.3125 1
vt 0.3125 0.8125
vt 0.078125 0.8125
vt 0.125 1
vt 0.4375 0.625
vt 0.4375 0.8125
vt 0.671875 0.8125
vt 0.671875 0.625
vt 0.078125 0.625
vt 0.078125 0.8125
vt 0.3125 0.8125
vt 0.3125 0.625
vt 0.484375 1
vt 0.484375 0.8125
vt 0.25 0.8125
vt 0.25 1
vt 0.25 0.625
vt 0.25 0.8125
vt 0.484375 0.8125
vt 0.484375 0.625
vt 0.4375 0.8125
vt 0.671875 0.8125
vt 0.625 1
vt 0.4375 1
vt 0.078125 0.8125
vt 0.3125 0.8125
vt 0.3125 1
vt 0.125 1
vt 0.671875 0.8125
vt 0.4375 0.8125
vt 0.4375 0.625
vt 0.671875 0.625
vt 0.3125 0.8125
vt 0.078125 0.8125
vt 0.078125 0.625
vt 0.3125 0.625
vt 0.25 0.8125
vt 0.484375 0.8125
vt 0.484375 1
vt 0.25 1
vt 0.484375 0.8125
vt 0.25 0.8125
vt 0.25 0.625
vt 0.484375 0.625
vt 0.4375 0.8125
vt 0.671875 0.8125
vt 0.625 1
vt 0.4375 1
vt 0.078125 0.8125
vt 0.3125 0.8125
vt 0.3125 1
vt 0.125 1
vt 0.671875 0.8125
vt 0.4375 0.8125
vt 0.4375 0.625
vt 0.671875 0.625
vt 0.3125 0.8125
vt 0.078125 0.8125
vt 0.078125 0.625
vt 0.3125 0.625
vt 0.25 0.8125
vt 0.484375 0.8125
vt 0.484375 1
vt 0.25 1
vt 0.484375 0.8125
vt 0.25 0.8125
vt 0.25 0.625
vt 0.484375 0.625
vt 0.625 1
vt 0.671875 0.8125
vt 0.4375 0.8125
vt 0.4375 1
vt 0.3125 1
vt 0.3125 0.8125
vt 0.078125 0.8125
vt 0.125 1
vt 0.4375 0.625
vt 0.4375 0.8125
vt 0.671875 0.8125
vt 0.671875 0.625
vt 0.078125 0.625
vt 0.078125 0.8125
vt 0.3125 0.8125
vt 0.3125 0.625
vt 0.484375 1
vt 0.484375 0.8125
vt 0.25 0.8125
vt 0.25 1
vt 0.25 0.625
vt 0.25 0.8125
vt 0.484375 0.8125
vt 0.484375 0.625
vt 0 0.18460624999999997
vt 0.75 0.18460624999999997
vt 0.75 0.625
vt 0 0.625
vt 0 0.18460624999999997
vt 0.75 0.18460624999999997
vt 0.75 0.625
vt 0 0.625
vt 0 0.18460624999999997
vt 0.75 0.18460624999999997
vt 0.75 0.625
vt 0 0.625
vt 0 0.18460624999999997
vt 0.75 0.18460624999999997
vt 0.75 0.625
vt 0 0.625
vt 0.9375 0.9375
vt 0.9375 0.3125
vt 1 0.25
vt 1 1
vt 0.9375 0.3125
vt 0.9375 0.9375
vt 1 1
vt 1 0.25
vt 0.9375 0.3125
vt 0.9375 0.9375
vt 1 1
vt 1 0.25
vt 0.9375 0.9375
vt 0.9375 0.3125
vt 1 0.25
vt 1 1
vt 0.890625 0.65625
vt 0.890625 0.90625
vt 0.9375 0.90625
vt 0.9375 0.65625
vt 0.890625 0.90625
vt 0.890625 0.65625
vt 0.9375 0.65625
vt 0.9375 0.90625
vt 0.890625 0.90625
vt 0.9375 0.90625
vt 0.9375 0.65625
vt 0.890625 0.65625
vt 0.890625 0.90625
vt 0.9375 0.90625
vt 0.9375 0.65625
vt 0.890625 0.65625
vt 0.890625 0.6875
vt 0.890625 0.9375
vt 0.9375 0.9375
vt 0.9375 0.6875
vt 0.890625 0.9375
vt 0.890625 0.6875
vt 0.9375 0.6875
vt 0.9375 0.9375
vt 0.890625 0.9375
vt 0.9375 0.9375
vt 0.9375 0.6875
vt 0.890625 0.6875
vt 0.890625 0.9375
vt 0.9375 0.9375
vt 0.9375 0.6875
vt 0.890625 0.6875
vt 0.890625 0.71875
vt 0.890625 0.96875
vt 0.9375 0.96875
vt 0.9375 0.71875
vt 0.890625 0.96875
vt 0.890625 0.71875
vt 0.9375 0.71875
vt 0.9375 0.96875
vt 0.890625 0.96875
vt 0.9375 0.96875
vt 0.9375 0.71875
vt 0.890625 0.71875
vt 0.890625 0.96875
vt 0.9375 0.96875
vt 0.9375 0.71875
vt 0.890625 0.71875
vt 0.859375 0.65625
vt 0.859375 0.90625
vt 0.890625 0.90625
vt 0.890625 0.65625
vt 0.859375 0.90625
vt 0.859375 0.65625
vt 0.890625 0.65625
vt 0.890625 0.90625
vt 0.859375 0.90625
vt 0.890625 0.90625
vt 0.890625 0.65625
vt 0.859375 0.65625
vt 0.859375 0.90625
vt 0.890625 0.90625
vt 0.890625 0.65625
vt 0.859375 0.65625
vt 0.859375 0.6875
vt 0.859375 0.9375
vt 0.890625 0.9375
vt 0.890625 0.6875
vt 0.859375 0.9375
vt 0.859375 0.6875
vt 0.890625 0.6875
vt 0.890625 0.9375
vt 0.859375 0.9375
vt 0.890625 0.9375
vt 0.890625 0.6875
vt 0.859375 0.6875
vt 0.859375 0.9375
vt 0.890625 0.9375
vt 0.890625 0.6875
vt 0.859375 0.6875
vt 0.859375 0.71875
vt 0.859375 0.96875
vt 0.890625 0.96875
vt 0.890625 0.71875
vt 0.859375 0.96875
vt 0.859375 0.71875
vt 0.890625 0.71875
vt 0.890625 0.96875
vt 0.859375 0.96875
vt 0.890625 0.96875
vt 0.890625 0.71875
vt 0.859375 0.71875
vt 0.859375 0.96875
vt 0.890625 0.96875
vt 0.890625 0.71875
vt 0.859375 0.71875
vt 0.9375 0.90625
vt 0.890625 0.90625
vt 0.890625 0.65625
vt 0.9375 0.65625
vt 0.9375 0.65625
vt 0.890625 0.65625
vt 0.890625 0.90625
vt 0.9375 0.90625
vt 0.9375 0.65625
vt 0.9375 0.90625
vt 0.890625 0.90625
vt 0.890625 0.65625
vt 0.9375 0.65625
vt 0.9375 0.90625
vt 0.890625 0.90625
vt 0.890625 0.65625
vt 0.9375 0.9375
vt 0.890625 0.9375
vt 0.890625 0.6875
vt 0.9375 0.6875
vt 0.9375 0.6875
vt 0.890625 0.6875
vt 0.890625 0.9375
vt 0.9375 0.9375
vt 0.9375 0.6875
vt 0.9375 0.9375
vt 0.890625 0.9375
vt 0.890625 0.6875
vt 0.9375 0.6875
vt 0.9375 0.9375
vt 0.890625 0.9375
vt 0.890625 0.6875
vt 0.9375 0.96875
vt 0.890625 0.96875
vt 0.890625 0.71875
vt 0.9375 0.71875
vt 0.9375 0.71875
vt 0.890625 0.71875
vt 0.890625 0.96875
vt 0.9375 0.96875
vt 0.9375 0.71875
vt 0.9375 0.96875
vt 0.890625 0.96875
vt 0.890625 0.71875
vt 0.9375 0.71875
vt 0.9375 0.96875
vt 0.890625 0.96875
vt 0.890625 0.71875
vt 0.890625 0.90625
vt 0.859375 0.90625
vt 0.859375 0.65625
vt 0.890625 0.65625
vt 0.890625 0.65625
vt 0.859375 0.65625
vt 0.859375 0.90625
vt 0.890625 0.90625
vt 0.890625 0.65625
vt 0.890625 0.90625
vt 0.859375 0.90625
vt 0.859375 0.65625
vt 0.890625 0.65625
vt 0.890625 0.90625
vt 0.859375 0.90625
vt 0.859375 0.65625
vt 0.890625 0.9375
vt 0.859375 0.9375
vt 0.859375 0.6875
vt 0.890625 0.6875
vt 0.890625 0.6875
vt 0.859375 0.6875
vt 0.859375 0.9375
vt 0.890625 0.9375
vt 0.890625 0.6875
vt 0.890625 0.9375
vt 0.859375 0.9375
vt 0.859375 0.6875
vt 0.890625 0.6875
vt 0.890625 0.9375
vt 0.859375 0.9375
vt 0.859375 0.6875
vt 0.890625 0.96875
vt 0.859375 0.96875
vt 0.859375 0.71875
vt 0.890625 0.71875
vt 0.890625 0.71875
vt 0.859375 0.71875
vt 0.859375 0.96875
vt 0.890625 0.96875
vt 0.890625 0.71875
vt 0.890625 0.96875
vt 0.859375 0.96875
vt 0.859375 0.71875
vt 0.890625 0.71875
vt 0.890625 0.96875
vt 0.859375 0.96875
vt 0.859375 0.71875
vt 0.890625 0.65625
vt 0.890625 0.90625
vt 0.9375 0.90625
vt 0.9375 0.65625
vt 0.890625 0.90625
vt 0.890625 0.65625
vt 0.9375 0.65625
vt 0.9375 0.90625
vt 0.890625 0.90625
vt 0.9375 0.90625
vt 0.9375 0.65625
vt 0.890625 0.65625
vt 0.890625 0.90625
vt 0.9375 0.90625
vt 0.9375 0.65625
vt 0.890625 0.65625
vt 0.890625 0.6875
vt 0.890625 0.9375
vt 0.9375 0.9375
vt 0.9375 0.6875
vt 0.890625 0.9375
vt 0.890625 0.6875
vt 0.9375 0.6875
vt 0.9375 0.9375
vt 0.890625 0.9375
vt 0.9375 0.9375
vt 0.9375 0.6875
vt 0.890625 0.6875
vt 0.890625 0.9375
vt 0.9375 0.9375
vt 0.9375 0.6875
vt 0.890625 0.6875
vt 0.890625 0.71875
vt 0.890625 0.96875
vt 0.9375 0.96875
vt 0.9375 0.71875
vt 0.890625 0.96875
vt 0.890625 0.71875
vt 0.9375 0.71875
vt 0.9375 0.96875
vt 0.890625 0.96875
vt 0.9375 0.96875
vt 0.9375 0.71875
vt 0.890625 0.71875
vt 0.890625 0.96875
vt 0.9375 0.96875
vt 0.9375 0.71875
vt 0.890625 0.71875
vt 0.859375 0.65625
vt 0.859375 0.90625
vt 0.890625 0.90625
vt 0.890625 0.65625
vt 0.859375 0.90625
vt 0.859375 0.65625
vt 0.890625 0.65625
vt 0.890625 0.90625
vt 0.859375 0.90625
vt 0.890625 0.90625
vt 0.890625 0.65625
vt 0.859375 0.65625
vt 0.859375 0.90625
vt 0.890625 0.90625
vt 0.890625 0.65625
vt 0.859375 0.65625
vt 0.859375 0.6875
vt 0.859375 0.9375
vt 0.890625 0.9375
vt 0.890625 0.6875
vt 0.859375 0.9375
vt 0.859375 0.6875
vt 0.890625 0.6875
vt 0.890625 0.9375
vt 0.859375 0.9375
vt 0.890625 0.9375
vt 0.890625 0.6875
vt 0.859375 0.6875
vt 0.859375 0.9375
vt 0.890625 0.9375
vt 0.890625 0.6875
vt 0.859375 0.6875
vt 0.859375 0.71875
vt 0.859375 0.96875
vt 0.890625 0.96875
vt 0.890625 0.71875
vt 0.859375 0.96875
vt 0.859375 0.71875
vt 0.890625 0.71875
vt 0.890625 0.96875
vt 0.859375 0.96875
vt 0.890625 0.96875
vt 0.890625 0.71875
vt 0.859375 0.71875
vt 0.859375 0.96875
vt 0.890625 0.96875
vt 0.890625 0.71875
vt 0.859375 0.71875
vt 0.9375 0.90625
vt 0.890625 0.90625
vt 0.890625 0.65625
vt 0.9375 0.65625
vt 0.9375 0.65625
vt 0.890625 0.65625
vt 0.890625 0.90625
vt 0.9375 0.90625
vt 0.9375 0.65625
vt 0.9375 0.90625
vt 0.890625 0.90625
vt 0.890625 0.65625
vt 0.9375 0.65625
vt 0.9375 0.90625
vt 0.890625 0.90625
vt 0.890625 0.65625
vt 0.9375 0.9375
vt 0.890625 0.9375
vt 0.890625 0.6875
vt 0.9375 0.6875
vt 0.9375 0.6875
vt 0.890625 0.6875
vt 0.890625 0.9375
vt 0.9375 0.9375
vt 0.9375 0.6875
vt 0.9375 0.9375
vt 0.890625 0.9375
vt 0.890625 0.6875
vt 0.9375 0.6875
vt 0.9375 0.9375
vt 0.890625 0.9375
vt 0.890625 0.6875
vt 0.9375 0.96875
vt 0.890625 0.96875
vt 0.890625 0.71875
vt 0.9375 0.71875
vt 0.9375 0.71875
vt 0.890625 0.71875
vt 0.890625 0.96875
vt 0.9375 0.96875
vt 0.9375 0.71875
vt 0.9375 0.96875
vt 0.890625 0.96875
vt 0.890625 0.71875
vt 0.9375 0.71875
vt 0.9375 0.96875
vt 0.890625 0.96875
vt 0.890625 0.71875
vt 0.890625 0.90625
vt 0.859375 0.90625
vt 0.859375 0.65625
vt 0.890625 0.65625
vt 0.890625 0.65625
vt 0.859375 0.65625
vt 0.859375 0.90625
vt 0.890625 0.90625
vt 0.890625 0.65625
vt 0.890625 0.90625
vt 0.859375 0.90625
vt 0.859375 0.65625
vt 0.890625 0.65625
vt 0.890625 0.90625
vt 0.859375 0.90625
vt 0.859375 0.65625
vt 0.890625 0.9375
vt 0.859375 0.9375
vt 0.859375 0.6875
vt 0.890625 0.6875
vt 0.890625 0.6875
vt 0.859375 0.6875
vt 0.859375 0.9375
vt 0.890625 0.9375
vt 0.890625 0.6875
vt 0.890625 0.9375
vt 0.859375 0.9375
vt 0.859375 0.6875
vt 0.890625 0.6875
vt 0.890625 0.9375
vt 0.859375 0.9375
vt 0.859375 0.6875
vt 0.890625 0.96875
vt 0.859375 0.96875
vt 0.859375 0.71875
vt 0.890625 0.71875
vt 0.890625 0.71875
vt 0.859375 0.71875
vt 0.859375 0.96875
vt 0.890625 0.96875
vt 0.890625 0.71875
vt 0.890625 0.96875
vt 0.859375 0.96875
vt 0.859375 0.71875
vt 0.890625 0.71875
vt 0.890625 0.96875
vt 0.859375 0.96875
vt 0.859375 0.71875
vt 0.078125 0.5625
vt 0.0625 0.25
vt 0.6875 0.25
vt 0.671875 0.5625
vt 0.078125 0.5625
vt 0.0625 0.25
vt 0.6875 0.25
vt 0.671875 0.5625
vt 0.078125 0.5625
vt 0.0625 0.25
vt 0.6875 0.25
vt 0.671875 0.5625
vt 0.09155625 1
vt 0.078125 0.9851218749999999
vt 0.7028640625 0.9851218749999999
vt 0.68811875 1
vt 0.7028640625 0.9851218749999999
vt 0.078125 0.9851218749999999
vt 0.09155625 1
vt 0.68811875 1
vt 0.7028640625 0.9851218749999999
vt 0.078125 0.9851218749999999
vt 0.09155625 1
vt 0.68811875 1
vt 0.09155625 1
vt 0.078125 0.9851218749999999
vt 0.7028640625 0.9851218749999999
vt 0.68811875 1
vt 0.6875 0.25
vt 0.0625 0.25
vt 0.078125 0.5625
vt 0.671875 0.5625
vn 0.9599999866468467 0.28000004578189247 -4.389246969355166e-7
vn -0.9600000028800751 -0.2799999901251125 4.3892460969974234e-7
vn 0 0.9999999999997516 -7.048536627696222e-7
vn 0 -0.24253571223776205 0.9701424783449706
vn 0 0.24253492803512292 -0.9701426743953684
vn 0.9701425023291333 0.24253561630106735 -1.7095211749668107e-7
vn 0 0.9999999999997518 -7.048536628806445e-7
vn 0 1.1559875373601258e-7 0.9999999999999933
vn 0 -1.1559875362499031e-7 -0.9999999999999934
vn 0.9701425023291333 0.24253561630106735 -1.7095211742729213e-7
vn -0.9701425023291333 -0.2425356163010673 1.7095211742035324e-7
vn 0 0.9999999999997518 -7.048536624365554e-7
vn 0 0.24253600378666415 0.9701424054576707
vn 0 -0.24253600378666415 -0.9701424054576707
vn 0.9701424900206088 0.24253566553492398 -3.801959859231485e-7
vn 0 0.9999999999997516 -7.048536627696222e-7
vn 0 -6.893395525231493e-7 0.9999999999997624
vn 0 -1.1559875384703489e-7 -0.9999999999999933
vn -0.9701425023291332 0.24253561630106737 -1.7095211749668104e-7
vn 0 0.9999999999997518 -7.048536628806445e-7
vn 0 1.1559875373601258e-7 0.9999999999999933
vn 0 -1.1559875362499031e-7 -0.9999999999999934
vn -0.970142502329083 0.2425356163010306 -3.801959087418316e-7
vn 0 0.9999999999997516 -7.048536627696222e-7
vn 0 -6.893395525231493e-7 0.9999999999997624
vn 0 -1.1559875384703489e-7 -0.9999999999999933
vn 0.9701425023291333 -0.24253561630106735 1.7095211742729213e-7
vn -0.9701425023291333 0.2425356163010673 -1.7095211742035324e-7
vn 0 0.9999999999997518 -7.048536624365554e-7
vn 0 0.24253600378666415 0.9701424054576707
vn 0 -0.24253600378666415 -0.9701424054576707
vn 0.9701424900206089 -0.24253566553492403 3.8019598602723203e-7
vn -0.9701425023290831 0.2425356163010306 -3.8019590885285403e-7
vn 0 0.9999999999997516 -7.048536627696222e-7
vn 0 -0.24253571223776205 0.9701424783449706
vn 0 0.24253492803512292 -0.9701426743953684
vn 1 0 0
vn -1 0 0
vn 0 0.9999999999997516 -7.048536627696222e-7
vn 0 0.24253492803512292 -0.9701426743953684
vn 1 0 0
vn -1 0 0
vn 0 0.9999999999997516 -7.048536627696222e-7
vn 0 0.24253492803512292 -0.9701426743953684
vn 1 0 0
vn -1 0 0
vn 0 0.9999999999997518 -7.048536624365554e-7
vn 0 -6.893395531060165e-7 0.9999999999997624
vn 0 -1.1559875356947916e-7 -0.9999999999999934
vn 1 0 0
vn -1 0 0
vn 0 0.9999999999997518 -7.048536624365554e-7
vn 0 0.24253600378666415 0.9701424054576707
vn 0 0.24253600378666415 0.9701424054576707
vn 1 0 0
vn -1 0 0
vn 0 -6.893395531060165e-7 0.9999999999997624
vn -1 0 0
vn 0 -1.1559875356947916e-7 -0.9999999999999934
vn 1 0 0
vn -1 0 0
vn 0 -1.1559875368050143e-7 -0.9999999999999933
vn 1 0 0
vn 0 1.1559875356947916e-7 0.9999999999999934
vn -1 0 0
vn 0 -1.1559875384703489e-7 -0.9999999999999933
vn 1 0 0
vn 0 1.1559875384703489e-7 0.9999999999999933
vn 0 6.893395529672386e-7 -0.9999999999997624
vn 1 0 0
vn 0 1.1559875379152373e-7 0.9999999999999933
vn -1 0 0
vn 0 6.893395529672386e-7 -0.9999999999997624
vn 1 0 0
vn 0 1.1559875379152373e-7 0.9999999999999933
vn -1 0 0
vn 1 0 0
vn 0 1.1559875384703489e-7 0.9999999999999933
vn -1 0 0
vn 0 -1.1559875384703489e-7 -0.9999999999999933
vn 1 0 0
vn 0 1.1559875356947916e-7 0.9999999999999934
vn -1 0 0
vn 0 -1.1559875368050143e-7 -0.9999999999999933
vn 1 0 0
vn 0 -6.893395531060165e-7 0.9999999999997624
vn -1 0 0
vn 0 -1.1559875356947916e-7 -0.9999999999999934
vn 0 -6.893395531060165e-7 0.9999999999997624
vn -1 0 0
vn 0 -1.1559875356947916e-7 -0.9999999999999934
vn 1 0 0
vn 0.9991330727851357 0.0416305520853177 -6.52595516775073e-8
vn 0 1.1559875379152373e-7 0.9999999999999933
vn -0.9991330731586139 -0.04163054312184398 6.525953762798187e-8
vn 0 6.893395529672386e-7 -0.9999999999997624
vn 1 0 0
vn 0 1.1559875379152373e-7 0.9999999999999933
vn -1 0 0
vn 0 6.893395529672386e-7 -0.9999999999997624
vn -0.9699747296190858 0.24320482298068316 0.0006618000576455175
vn -0.9701422778194834 0.24253561294019235 -0.000661243487596372
vn -0.9999997673208743 7.885819582509508e-11 0.0006821716773087657
vn -0.999999767700058 -7.879391410170467e-11 -0.0006816156028384816
vn -0.9701425023291431 0.24253561630108605 -3.0920616456153744e-8
vn -1 0 0
vn 0.9701657872651014 0.2424421311307856 0.0003978354547168744
vn 0.9701424133618796 0.24253564664389943 -0.0003973706250281414
vn 0.9999999159680916 4.739038687569339e-11 0.0004099558631873524
vn 0.9999999161050337 -4.7351756372816986e-11 -0.0004096216862276004
vn 0.9701425023291431 0.24253561630108603 -3.0920616470031526e-8
vn 1 0 0
vn -0.0006614588316871539 0.24237924383850568 0.9701813565661259
vn 0.0006608928076623543 0.2425359508193045 0.9701421935885858
vn -0.0006818455184653126 1.1559872725719345e-7 0.9999997675433108
vn 0.0006812895897771082 1.1559872670208193e-7 0.9999997679222139
vn 0 0.2425360037866637 0.9701424054576708
vn 0 1.1559875412459064e-7 0.9999999999999934
vn -0.0003979794304954622 0.24244203643789025 -0.9701658108695759
vn 0.0003976453914121106 0.24253569306266262 -0.9701424016446022
vn -0.0004101162557694913 -1.1559874377176094e-7 -0.9999999159023183
vn 0.000409781875835218 -1.1559874374400536e-7 -0.999999916039397
vn 0 0.242535712237762 -0.9701424783449705
vn 0 -1.1559875354172355e-7 -0.9999999999999933
vn 1 0 0
vn -1 0 0
vn 0 2.339283333707698e-7 0.9999999999999728
vn 0 -3.2575647859744983e-7 -0.9999999999999469
vn 0 0.9999999999999981 -6.418321921164428e-8
vn -1.1553996472202878e-7 0.9999999999999921 5.135695979596734e-8
vn 0 0.9999999999983851 -0.000001797285892141121
vn -0.000001848644975210973 0.99999999999829 5.13569597127006e-8
vn -0.9659264617523805 0.25881667350950255 -5.4090596918188196e-8
vn 0.9659256284218247 -0.25881978355199303 5.4091246884380175e-8
vn 0.2588186825269376 0.9659259234408091 -2.0187072607980028e-7
vn -0.25881951586113316 -0.9659257001495343 2.0187067947818882e-7
vn -0.9659264617523848 0.2588166735094846 6.029128318818523e-8
vn 0.9659256284218292 -0.2588197835519747 -6.029200766421995e-8
vn 0.2588186825271876 0.9659259234407369 2.250122165536883e-7
vn -0.2588195158613834 -0.9659257001494622 -2.250121647062731e-7
vn -0.9659264617523755 0.2588166735095085 -9.595731180478406e-8
vn 0.9659256284218197 -0.25881978355199875 9.595846488241744e-8
vn 0.25881868252683427 0.9659259234407915 -3.5812088061693014e-7
vn -0.25881951586102964 -0.9659257001495167 3.581207977665368e-7
vn -0.9659254127372471 0.2588205884939792 -9.595876332424425e-8
vn 0.9659257362633515 -0.2588193810828185 9.595831566844295e-8
vn 0.25881869672324026 0.9659259196368815 -3.581208792013957e-7
vn -0.2588186967245011 -0.9659259196365838 -2.250122157487766e-7
vn -0.9659257362633815 0.25881938108270464 1.0215897923437914e-7
vn 0.9659254127372214 -0.2588205884940855 -6.029219516701101e-8
vn 0.25881990413110395 0.9659255961125687 3.8126191523324426e-7
vn -0.2588186967235866 -0.965925919636834 2.0187072530264416e-7
vn -0.965925412737247 0.2588205884939795 -9.595876331036646e-8
vn 0.9659257362633609 -0.25881938108279545 5.409116275723047e-8
vn 0.2588186967232402 0.9659259196368815 -3.5812087914588453e-7
vn -0.25881990413151 -0.9659255961125087 -2.2501214044789997e-7
vn 0.9659264617523797 0.2588166735095047 -5.409059691818818e-8
vn -0.9659256284218247 -0.25881978355199303 5.4091246884380175e-8
vn -0.258818682526938 0.9659259234408091 -2.0187072602428918e-7
vn 0.2588195158611333 -0.9659257001495343 2.0187067947818882e-7
vn 0.9659264617523842 0.25881667350948684 6.029128318818522e-8
vn -0.9659256284218292 -0.25881978355197466 -6.029200766421995e-8
vn -0.2588186825271882 0.9659259234407368 2.250122165536883e-7
vn 0.2588195158613835 -0.965925700149462 -2.2501216467851748e-7
vn 0.965926461752375 0.2588166735095107 -9.595731180478409e-8
vn -0.9659256284218198 -0.2588197835519988 9.595846488241746e-8
vn -0.2588186825268347 0.9659259234407914 -3.5812088058917457e-7
vn 0.2588195158610297 -0.9659257001495168 3.5812079773878135e-7
vn 0.9659254127372471 0.25882058849397926 -9.595876331036646e-8
vn -0.9659257362633515 -0.2588193810828185 9.595831566844295e-8
vn -0.25881869672324104 0.9659259196368815 -3.5812087925690694e-7
vn 0.2588186967245021 -0.9659259196365837 -2.2501221574877666e-7
vn 0.9659257362633814 0.2588193810827046 1.0215897923437911e-7
vn -0.9659254127372214 -0.2588205884940855 -6.029219516701101e-8
vn -0.25881990413110456 0.9659255961125686 3.8126191523324426e-7
vn 0.25881869672358776 -0.9659259196368337 2.0187072533039974e-7
vn 0.965925412737247 0.25882058849397954 -9.595876332424425e-8
vn -0.965925736263361 -0.2588193810827954 5.409116277110827e-8
vn -0.2588186967232412 0.9659259196368812 -3.581208792013957e-7
vn 0.2588199041315108 -0.9659255961125086 -2.2501214044789997e-7
vn 0 0.2588184351778566 0.9659259897176833
vn 0 -0.2588184351778566 -0.9659259897176833
vn 0 0.965925989717683 -0.258818435177857
vn 0 -0.965925989717683 0.258818435177857
vn 0 0.2588184351778566 0.9659259897176833
vn 0 -0.2588184351778566 -0.9659259897176833
vn 0 0.965925989717683 -0.258818435177857
vn 0 -0.965925989717683 0.258818435177857
vn 0 0.2588184351778565 0.9659259897176832
vn 0 -0.2588184351778565 -0.9659259897176832
vn 0 0.9659259897176832 -0.25881843517785713
vn 0 -0.9659259897176832 0.25881843517785713
vn 0 0.2588192401154926 0.9659257740354789
vn 0 -0.2588192401154926 -0.9659257740354789
vn 0 0.965925774035479 -0.2588192401154923
vn 0 -0.965925774035479 0.2588192401154923
vn 0 0.2588192401154926 0.9659257740354789
vn 0 -0.2588192401154926 -0.9659257740354789
vn 0 0.965925774035479 -0.2588192401154923
vn 0 -0.965925774035479 0.2588192401154923
vn 0 0.25881924011549273 0.9659257740354789
vn 0 -0.25881924011549273 -0.9659257740354789
vn 0 0.965925774035479 -0.2588192401154923
vn 0 -0.965925774035479 0.2588192401154923
vn 0 0.25881904510252074 -0.9659258262890683
vn 0 -0.25881904510252074 0.9659258262890683
vn 0 0.9659258262890683 0.25881904510252074
vn 0 -0.9659258262890683 -0.25881904510252074
vn 0 0.25881904510252074 -0.9659258262890683
vn 0 -0.25881904510252074 0.9659258262890683
vn 0 0.9659258262890683 0.25881904510252074
vn 0 -0.9659258262890683 -0.25881904510252074
vn 0 0.25881904510252074 -0.9659258262890683
vn 0 -0.25881904510252074 0.9659258262890683
vn 0 0.9659258262890683 0.25881904510252074
vn 0 -0.9659258262890683 -0.25881904510252074
vn 0 0.25881904510252074 -0.9659258262890683
vn 0 -0.25881904510252074 0.9659258262890683
vn 0 0.9659258262890683 0.25881904510252074
vn 0 -0.9659258262890683 -0.25881904510252074
vn 0 0.25881904510252074 -0.9659258262890683
vn 0 -0.25881904510252074 0.9659258262890683
vn 0 0.9659258262890683 0.25881904510252074
vn 0 -0.9659258262890683 -0.25881904510252074
vn 0 0.25881904510252074 -0.9659258262890683
vn 0 -0.25881904510252074 0.9659258262890683
vn 0 0.9659258262890683 0.25881904510252074
vn 0 -0.9659258262890683 -0.25881904510252074
vn -0.9991651854395275 -0.040852566695310996 1.7347234759768075e-18
vn 0 -0.04085256669531043 -0.9991651854395274
vn 0.9991651854395275 -0.04085256669531067 5.204170427930421e-18
vn -0.00008148689714585663 0.9480142628484275 0.3182278284434575
vn 0.000023778363631789673 0.9493817446609294 -0.3141246605078298
vn 0.31505204044711765 0.9490743974052338 -5.551115123125783e-17
vn -0.3052143251973438 0.9522836808710099 0.00008271088723094122
vn 0 -0.040852566695310816 0.9991651854395274
usemtl base_steel
f 1/1/1 138/2/1 137/3/1
f 1/1/1 137/3/1 2/4/1
f 6/5/2 140/6/2 139/7/2
f 6/5/2 139/7/2 5/8/2
f 1/9/3 2/10/3 6/11/3
f 1/9/3 6/11/3 5/12/3
f 5/13/4 139/14/4 138/15/4
f 5/13/4 138/15/4 1/16/4
f 2/17/5 137/18/5 140/19/5
f 2/17/5 140/19/5 6/20/5
f 9/21/6 122/22/6 121/23/6
f 9/21/6 121/23/6 10/24/6
f 9/25/7 10/26/7 14/27/7
f 9/25/7 14/27/7 13/28/7
f 13/29/8 123/30/8 122/31/8
f 13/29/8 122/31/8 9/32/8
f 10/33/9 121/34/9 124/35/9
f 10/33/9 124/35/9 14/36/9
f 17/37/10 130/38/10 129/39/10
f 17/37/10 129/39/10 18/40/10
f 22/41/11 132/42/11 131/43/11
f 22/41/11 131/43/11 21/44/11
f 17/45/12 18/46/12 22/47/12
f 17/45/12 22/47/12 21/48/12
f 21/49/13 131/50/13 130/51/13
f 21/49/13 130/51/13 17/52/13
f 18/53/14 129/54/14 132/55/14
f 18/53/14 132/55/14 22/56/14
f 25/57/15 126/58/15 125/59/15
f 25/57/15 125/59/15 26/60/15
f 25/61/16 26/62/16 30/63/16
f 25/61/16 30/63/16 29/64/16
f 29/65/17 127/66/17 126/67/17
f 29/65/17 126/67/17 25/68/17
f 26/69/18 125/70/18 128/71/18
f 26/69/18 128/71/18 30/72/18
f 38/73/19 110/74/19 109/75/19
f 38/73/19 109/75/19 37/76/19
f 33/77/20 34/78/20 38/79/20
f 33/77/20 38/79/20 37/80/20
f 37/81/21 109/82/21 112/83/21
f 37/81/21 112/83/21 33/84/21
f 34/85/22 111/86/22 110/87/22
f 34/85/22 110/87/22 38/88/22
f 46/89/23 106/90/23 105/91/23
f 46/89/23 105/91/23 45/92/23
f 41/93/24 42/94/24 46/95/24
f 41/93/24 46/95/24 45/96/24
f 45/97/25 105/98/25 108/99/25
f 45/97/25 108/99/25 41/100/25
f 42/101/26 107/102/26 106/103/26
f 42/101/26 106/103/26 46/104/26
f 49/105/27 133/106/27 136/107/27
f 49/105/27 136/107/27 50/108/27
f 54/109/28 135/110/28 134/111/28
f 54/109/28 134/111/28 53/112/28
f 49/113/29 50/114/29 54/115/29
f 49/113/29 54/115/29 53/116/29
f 53/117/30 134/118/30 133/119/30
f 53/117/30 133/119/30 49/120/30
f 50/121/31 136/122/31 135/123/31
f 50/121/31 135/123/31 54/124/31
f 57/125/32 142/126/32 141/127/32
f 57/125/32 141/127/32 58/128/32
f 62/129/33 144/130/33 143/131/33
f 62/129/33 143/131/33 61/132/33
f 57/133/34 58/134/34 62/135/34
f 57/133/34 62/135/34 61/136/34
f 61/137/35 143/138/35 142/139/35
f 61/137/35 142/139/35 57/140/35
f 58/141/36 141/142/36 144/143/36
f 58/141/36 144/143/36 62/144/36
f 65/145/37 115/146/37 114/147/37
f 65/145/37 114/147/37 66/148/37
f 70/149/38 113/150/38 116/151/38
f 70/149/38 116/151/38 69/152/38
f 65/153/39 66/154/39 70/155/39
f 65/153/39 70/155/39 69/156/39
f 66/157/40 114/158/40 113/159/40
f 66/157/40 113/159/40 70/160/40
f 73/161/41 119/162/41 118/163/41
f 73/161/41 118/163/41 74/164/41
f 78/165/42 117/166/42 120/167/42
f 78/165/42 120/167/42 77/168/42
f 73/169/43 74/170/43 78/171/43
f 73/169/43 78/171/43 77/172/43
f 74/173/44 118/174/44 117/175/44
f 74/173/44 117/175/44 78/176/44
f 84/177/45 99/178/45 98/179/45
f 84/177/45 98/179/45 83/180/45
f 87/181/46 97/182/46 100/183/46
f 87/181/46 100/183/46 88/184/46
f 81/185/47 82/186/47 86/187/47
f 81/185/47 86/187/47 85/188/47
f 83/189/48 98/190/48 97/191/48
f 83/189/48 97/191/48 87/192/48
f 88/193/49 100/194/49 99/195/49
f 88/193/49 99/195/49 84/196/49
f 89/197/50 101/198/50 104/199/50
f 89/197/50 104/199/50 90/200/50
f 94/201/51 103/202/51 102/203/51
f 94/201/51 102/203/51 93/204/51
f 89/205/52 90/206/52 94/207/52
f 89/205/52 94/207/52 93/208/52
f 93/209/53 102/210/53 101/211/53
f 93/209/53 101/211/53 89/212/53
f 85/213/54 97/214/54 98/215/54
f 85/213/54 98/215/54 81/216/54
f 81/217/55 98/218/55 99/219/55
f 81/217/55 99/219/55 82/220/55
f 86/221/56 100/222/56 97/223/56
f 86/221/56 97/223/56 85/224/56
f 91/225/57 101/226/57 102/227/57
f 91/225/57 102/227/57 95/228/57
f 95/229/58 102/230/58 103/231/58
f 95/229/58 103/231/58 96/232/58
f 96/233/59 103/234/59 104/235/59
f 96/233/59 104/235/59 92/236/59
f 92/237/60 104/238/60 101/239/60
f 92/237/60 101/239/60 91/240/60
f 47/241/61 105/242/61 106/243/61
f 47/241/61 106/243/61 48/244/61
f 48/245/62 106/246/62 107/247/62
f 48/245/62 107/247/62 44/248/62
f 44/249/63 107/250/63 108/251/63
f 44/249/63 108/251/63 43/252/63
f 43/253/64 108/254/64 105/255/64
f 43/253/64 105/255/64 47/256/64
f 39/257/65 109/258/65 110/259/65
f 39/257/65 110/259/65 40/260/65
f 40/261/66 110/262/66 111/263/66
f 40/261/66 111/263/66 36/264/66
f 36/265/67 111/266/67 112/267/67
f 36/265/67 112/267/67 35/268/67
f 35/269/68 112/270/68 109/271/68
f 35/269/68 109/271/68 39/272/68
f 72/273/69 113/274/69 114/275/69
f 72/273/69 114/275/69 68/276/69
f 68/277/70 114/278/70 115/279/70
f 68/277/70 115/279/70 67/280/70
f 67/281/71 115/282/71 116/283/71
f 67/281/71 116/283/71 71/284/71
f 71/285/72 116/286/72 113/287/72
f 71/285/72 113/287/72 72/288/72
f 80/289/73 117/290/73 118/291/73
f 80/289/73 118/291/73 76/292/73
f 76/293/74 118/294/74 119/295/74
f 76/293/74 119/295/74 75/296/74
f 75/297/75 119/298/75 120/299/75
f 75/297/75 120/299/75 79/300/75
f 79/301/76 120/302/76 117/303/76
f 79/301/76 117/303/76 80/304/76
f 12/305/77 121/306/77 122/307/77
f 12/305/77 122/307/77 11/308/77
f 11/309/78 122/310/78 123/311/78
f 11/309/78 123/311/78 15/312/78
f 15/313/79 123/314/79 124/315/79
f 15/313/79 124/315/79 16/316/79
f 16/317/80 124/318/80 121/319/80
f 16/317/80 121/319/80 12/320/80
f 28/321/81 125/322/81 126/323/81
f 28/321/81 126/323/81 27/324/81
f 27/325/82 126/326/82 127/327/82
f 27/325/82 127/327/82 31/328/82
f 31/329/83 127/330/83 128/331/83
f 31/329/83 128/331/83 32/332/83
f 32/333/84 128/334/84 125/335/84
f 32/333/84 125/335/84 28/336/84
f 20/337/85 129/338/85 130/339/85
f 20/337/85 130/339/85 19/340/85
f 19/341/86 130/342/86 131/343/86
f 19/341/86 131/343/86 23/344/86
f 23/345/87 131/346/87 132/347/87
f 23/345/87 132/347/87 24/348/87
f 24/349/88 132/350/88 129/351/88
f 24/349/88 129/351/88 20/352/88
f 51/353/89 133/354/89 134/355/89
f 51/353/89 134/355/89 55/356/89
f 55/357/90 134/358/90 135/359/90
f 55/357/90 135/359/90 56/360/90
f 56/361/91 135/362/91 136/363/91
f 56/361/91 136/363/91 52/364/91
f 52/365/92 136/366/92 133/367/92
f 52/365/92 133/367/92 51/368/92
f 4/369/93 137/370/93 138/371/93
f 4/369/93 138/371/93 3/372/93
f 3/373/94 138/374/94 139/375/94
f 3/373/94 139/375/94 7/376/94
f 7/377/95 139/378/95 140/379/95
f 7/377/95 140/379/95 8/380/95
f 8/381/96 140/382/96 137/383/96
f 8/381/96 137/383/96 4/384/96
f 60/385/97 141/386/97 142/387/97
f 60/385/97 142/387/97 59/388/97
f 59/389/98 142/390/98 143/391/98
f 59/389/98 143/391/98 63/392/98
f 63/393/99 143/394/99 144/395/99
f 63/393/99 144/395/99 64/396/99
f 64/397/100 144/398/100 141/399/100
f 64/397/100 141/399/100 60/400/100
f 330/401/101 151/402/101 152/403/101
f 330/401/101 152/403/101 146/404/101
f 145/405/102 154/406/102 153/407/102
f 145/405/102 153/407/102 331/408/102
f 147/409/103 152/410/103 151/411/103
f 147/409/103 151/411/103 148/412/103
f 149/413/104 153/414/104 154/415/104
f 149/413/104 154/415/104 150/416/104
f 146/417/105 152/418/105 154/419/105
f 146/417/105 154/419/105 145/420/105
f 150/421/106 154/422/106 152/423/106
f 150/421/106 152/423/106 147/424/106
f 164/425/107 163/426/107 158/427/107
f 164/425/107 158/427/107 156/428/107
f 165/429/108 166/430/108 155/431/108
f 165/429/108 155/431/108 160/432/108
f 163/433/109 164/434/109 157/435/109
f 163/433/109 157/435/109 159/436/109
f 166/437/110 165/438/110 161/439/110
f 166/437/110 161/439/110 162/440/110
f 166/441/111 164/442/111 156/443/111
f 166/441/111 156/443/111 155/444/111
f 164/445/112 166/446/112 162/447/112
f 164/445/112 162/447/112 157/448/112
f 171/449/113 165/450/113 160/451/113
f 171/449/113 160/451/113 168/452/113
f 153/453/114 172/454/114 167/455/114
f 153/453/114 167/455/114 331/456/114
f 165/457/115 171/458/115 169/459/115
f 165/457/115 169/459/115 161/460/115
f 172/461/116 153/462/116 149/463/116
f 172/461/116 149/463/116 170/464/116
f 172/465/117 171/466/117 168/467/117
f 172/465/117 168/467/117 167/468/117
f 171/469/118 172/470/118 170/471/118
f 171/469/118 170/471/118 169/472/118
f 158/473/119 163/474/119 177/475/119
f 158/473/119 177/475/119 174/476/119
f 173/477/120 178/478/120 151/479/120
f 173/477/120 151/479/120 330/480/120
f 175/481/121 177/482/121 163/483/121
f 175/481/121 163/483/121 159/484/121
f 148/485/122 151/486/122 178/487/122
f 148/485/122 178/487/122 176/488/122
f 174/489/123 177/490/123 178/491/123
f 174/489/123 178/491/123 173/492/123
f 176/493/124 178/494/124 177/495/124
f 176/493/124 177/495/124 175/496/124
f 179/497/125 180/498/125 4/499/125
f 179/497/125 4/499/125 19/500/125
f 182/501/126 181/502/126 55/503/126
f 182/501/126 55/503/126 64/504/126
f 181/505/127 179/506/127 19/507/127
f 181/505/127 19/507/127 55/508/127
f 180/509/128 182/510/128 64/511/128
f 180/509/128 64/511/128 4/512/128
f 184/513/129 183/514/129 55/515/129
f 184/513/129 55/515/129 19/516/129
f 185/517/130 184/518/130 19/519/130
f 185/517/130 19/519/130 4/520/130
f 186/521/131 185/522/131 4/523/131
f 186/521/131 4/523/131 64/524/131
f 183/525/132 186/526/132 64/527/132
f 183/525/132 64/527/132 55/528/132
f 187/529/133 188/530/133 190/531/133
f 187/529/133 190/531/133 189/532/133
f 192/533/134 191/534/134 193/535/134
f 192/533/134 193/535/134 194/536/134
f 192/537/135 188/538/135 187/539/135
f 192/537/135 187/539/135 191/540/135
f 193/541/136 189/542/136 190/543/136
f 193/541/136 190/543/136 194/544/136
f 188/545/137 195/546/137 196/547/137
f 188/545/137 196/547/137 190/548/137
f 197/549/138 192/550/138 194/551/138
f 197/549/138 194/551/138 198/552/138
f 197/553/139 195/554/139 188/555/139
f 197/553/139 188/555/139 192/556/139
f 194/557/140 190/558/140 196/559/140
f 194/557/140 196/559/140 198/560/140
f 195/561/141 199/562/141 200/563/141
f 195/561/141 200/563/141 196/564/141
f 201/565/142 197/566/142 198/567/142
f 201/565/142 198/567/142 202/568/142
f 201/569/143 199/570/143 195/571/143
f 201/569/143 195/571/143 197/572/143
f 198/573/144 196/574/144 200/575/144
f 198/573/144 200/575/144 202/576/144
f 203/577/145 204/578/145 206/579/145
f 203/577/145 206/579/145 205/580/145
f 208/581/146 207/582/146 209/583/146
f 208/581/146 209/583/146 210/584/146
f 208/585/147 204/586/147 203/587/147
f 208/585/147 203/587/147 207/588/147
f 209/589/148 205/590/148 206/591/148
f 209/589/148 206/591/148 210/592/148
f 204/593/149 211/594/149 212/595/149
f 204/593/149 212/595/149 206/596/149
f 213/597/150 208/598/150 210/599/150
f 213/597/150 210/599/150 214/600/150
f 213/601/151 211/602/151 204/603/151
f 213/601/151 204/603/151 208/604/151
f 210/605/152 206/606/152 212/607/152
f 210/605/152 212/607/152 214/608/152
f 211/609/153 215/610/153 216/611/153
f 211/609/153 216/611/153 212/612/153
f 217/613/154 213/614/154 214/615/154
f 217/613/154 214/615/154 218/616/154
f 217/617/155 215/618/155 211/619/155
f 217/617/155 211/619/155 213/620/155
f 214/621/156 212/622/156 216/623/156
f 214/621/156 216/623/156 218/624/156
f 222/625/157 220/626/157 219/627/157
f 222/625/157 219/627/157 221/628/157
f 225/629/158 223/630/158 224/631/158
f 225/629/158 224/631/158 226/632/158
f 219/633/159 220/634/159 224/635/159
f 219/633/159 224/635/159 223/636/159
f 222/637/160 221/638/160 225/639/160
f 222/637/160 225/639/160 226/640/160
f 228/641/161 227/642/161 220/643/161
f 228/641/161 220/643/161 222/644/161
f 226/645/162 224/646/162 229/647/162
f 226/645/162 229/647/162 230/648/162
f 220/649/163 227/650/163 229/651/163
f 220/649/163 229/651/163 224/652/163
f 228/653/164 222/654/164 226/655/164
f 228/653/164 226/655/164 230/656/164
f 232/657/165 231/658/165 227/659/165
f 232/657/165 227/659/165 228/660/165
f 230/661/166 229/662/166 233/663/166
f 230/661/166 233/663/166 234/664/166
f 227/665/167 231/666/167 233/667/167
f 227/665/167 233/667/167 229/668/167
f 232/669/168 228/670/168 230/671/168
f 232/669/168 230/671/168 234/672/168
f 238/673/169 236/674/169 235/675/169
f 238/673/169 235/675/169 237/676/169
f 241/677/170 239/678/170 240/679/170
f 241/677/170 240/679/170 242/680/170
f 235/681/171 236/682/171 240/683/171
f 235/681/171 240/683/171 239/684/171
f 238/685/172 237/686/172 241/687/172
f 238/685/172 241/687/172 242/688/172
f 244/689/173 243/690/173 236/691/173
f 244/689/173 236/691/173 238/692/173
f 242/693/174 240/694/174 245/695/174
f 242/693/174 245/695/174 246/696/174
f 236/697/175 243/698/175 245/699/175
f 236/697/175 245/699/175 240/700/175
f 244/701/176 238/702/176 242/703/176
f 244/701/176 242/703/176 246/704/176
f 248/705/177 247/706/177 243/707/177
f 248/705/177 243/707/177 244/708/177
f 246/709/178 245/710/178 249/711/178
f 246/709/178 249/711/178 250/712/178
f 243/713/179 247/714/179 249/715/179
f 243/713/179 249/715/179 245/716/179
f 248/717/180 244/718/180 246/719/180
f 248/717/180 246/719/180 250/720/180
f 306/721/181 303/722/181 305/723/181
f 306/721/181 305/723/181 307/724/181
f 308/725/182 309/726/182 310/727/182
f 308/725/182 310/727/182 311/728/182
f 308/729/183 303/730/183 306/731/183
f 308/729/183 306/731/183 309/732/183
f 310/733/184 307/734/184 305/735/184
f 310/733/184 305/735/184 311/736/184
f 303/737/185 301/738/185 304/739/185
f 303/737/185 304/739/185 305/740/185
f 302/741/186 308/742/186 311/743/186
f 302/741/186 311/743/186 312/744/186
f 302/745/187 301/746/187 303/747/187
f 302/745/187 303/747/187 308/748/187
f 311/749/188 305/750/188 304/751/188
f 311/749/188 304/751/188 312/752/188
f 301/753/189 300/754/189 313/755/189
f 301/753/189 313/755/189 304/756/189
f 299/757/190 302/758/190 312/759/190
f 299/757/190 312/759/190 314/760/190
f 299/761/191 300/762/191 301/763/191
f 299/761/191 301/763/191 302/764/191
f 312/765/192 304/766/192 313/767/192
f 312/765/192 313/767/192 314/768/192
f 290/769/193 287/770/193 289/771/193
f 290/769/193 289/771/193 291/772/193
f 292/773/194 293/774/194 294/775/194
f 292/773/194 294/775/194 295/776/194
f 292/777/195 287/778/195 290/779/195
f 292/777/195 290/779/195 293/780/195
f 294/781/196 291/782/196 289/783/196
f 294/781/196 289/783/196 295/784/196
f 287/785/197 285/786/197 288/787/197
f 287/785/197 288/787/197 289/788/197
f 286/789/198 292/790/198 295/791/198
f 286/789/198 295/791/198 296/792/198
f 286/793/199 285/794/199 287/795/199
f 286/793/199 287/795/199 292/796/199
f 295/797/200 289/798/200 288/799/200
f 295/797/200 288/799/200 296/800/200
f 285/801/201 284/802/201 297/803/201
f 285/801/201 297/803/201 288/804/201
f 283/805/202 286/806/202 296/807/202
f 283/805/202 296/807/202 298/808/202
f 283/809/203 284/810/203 285/811/203
f 283/809/203 285/811/203 286/812/203
f 296/813/204 288/814/204 297/815/204
f 296/813/204 297/815/204 298/816/204
f 256/817/205 255/818/205 257/819/205
f 256/817/205 257/819/205 258/820/205
f 261/821/206 260/822/206 259/823/206
f 261/821/206 259/823/206 262/824/206
f 257/825/207 255/826/207 259/827/207
f 257/825/207 259/827/207 260/828/207
f 256/829/208 258/830/208 261/831/208
f 256/829/208 261/831/208 262/832/208
f 254/833/209 252/834/209 255/835/209
f 254/833/209 255/835/209 256/836/209
f 262/837/210 259/838/210 263/839/210
f 262/837/210 263/839/210 264/840/210
f 255/841/211 252/842/211 263/843/211
f 255/841/211 263/843/211 259/844/211
f 254/845/212 256/846/212 262/847/212
f 254/845/212 262/847/212 264/848/212
f 253/849/213 251/850/213 252/851/213
f 253/849/213 252/851/213 254/852/213
f 264/853/214 263/854/214 265/855/214
f 264/853/214 265/855/214 266/856/214
f 252/857/215 251/858/215 265/859/215
f 252/857/215 265/859/215 263/860/215
f 253/861/216 254/862/216 264/863/216
f 253/861/216 264/863/216 266/864/216
f 273/865/217 271/866/217 274/867/217
f 273/865/217 274/867/217 275/868/217
f 278/869/218 277/870/218 276/871/218
f 278/869/218 276/871/218 279/872/218
f 274/873/219 271/874/219 276/875/219
f 274/873/219 276/875/219 277/876/219
f 273/877/220 275/878/220 278/879/220
f 273/877/220 278/879/220 279/880/220
f 272/881/221 269/882/221 271/883/221
f 272/881/221 271/883/221 273/884/221
f 279/885/222 276/886/222 270/887/222
f 279/885/222 270/887/222 280/888/222
f 271/889/223 269/890/223 270/891/223
f 271/889/223 270/891/223 276/892/223
f 272/893/224 273/894/224 279/895/224
f 272/893/224 279/895/224 280/896/224
f 281/897/225 267/898/225 269/899/225
f 281/897/225 269/899/225 272/900/225
f 280/901/226 270/902/226 268/903/226
f 280/901/226 268/903/226 282/904/226
f 269/905/227 267/906/227 268/907/227
f 269/905/227 268/907/227 270/908/227
f 281/909/228 272/910/228 280/911/228
f 281/909/228 280/911/228 282/912/228
usemtl common_steel
f 319/913/229 320/914/229 316/915/229
f 319/913/229 316/915/229 315/916/229
f 315/917/230 316/918/230 317/919/230
f 315/917/230 317/919/230 318/920/230
f 318/921/231 317/922/231 321/923/231
f 318/921/231 321/923/231 322/924/231
f 318/925/232 331/926/232 160/927/232
f 318/925/232 160/927/232 315/928/232
f 323/929/233 330/930/233 324/931/233
f 323/929/233 324/931/233 325/932/233
f 327/933/234 326/934/234 328/935/234
f 327/933/234 328/935/234 329/936/234
f 332/937/235 330/938/235 331/939/235
f 332/937/235 331/939/235 333/940/235
f 321/941/236 320/942/236 319/943/236
f 321/941/236 319/943/236 322/944/236