# Made by Pabilo8 with Blockbench
# Exported with IIToolkit Plugin
mtllib flagpole.mtl


o variant_bricks
v 2 -1 3
v 2 -1 0
v -1 -1 3
v -1 -1 0
v -0.7450000000000001 -1 2.745
v 1.745 -1 2.745
v 1.745 -1 0.2549999999999999
v -0.7450000000000001 -1 0.2549999999999999
v -0.75 0.25 1.875
v -0.75 0.25 0.875
v -0.75 0 1.875
v -0.75 0 0.875
v -1 0.25 1.875
v -1 0.25 0.875
v -1 0 1.875
v -1 0 0.875
v -0.81958625 0.25 0.87013375
v -0.75 0.25 0.375
v -0.81958625 0 0.87013375
v -0.75 0 0.375
v -1.06715375 0.25 0.835340625
v -0.997566875 0.25 0.340206875
v -1.06715375 0 0.835340625
v -0.997566875 0 0.340206875
v 1.7804675 0.25 2.93563625
v 1.75 0.25 2.6875
v 1.7804675 0 2.93563625
v 1.75 0 2.6875
v 1.284194375 0.25 2.9965712499999997
v 1.253726875 0.25 2.748434375
v 1.284194375 0 2.9965712499999997
v 1.253726875 0 2.748434375
v 1.75 0 3
v 1.75 0 2.75
v -0.75 0 3
v -0.75 0 2.75
v -0.27178875 0.25 3.06154875
v -0.25 0.25 2.8125
v -0.27178875 0 3.06154875
v -0.25 0 2.8125
v -0.7698862500000001 0.25 3.0179706250000002
v -0.7480975000000001 0.25 2.768921875
v -0.7698862500000001 0 3.0179706250000002
v -0.7480975000000001 0 2.768921875
v 2 0.25 2.6875
v 2 0.25 1.6875
v 2 0 2.6875
v 2 0 1.6875
v 1.75 0.25 1.6875
v 1.75 0 1.6875
v 2.034878125 0.25 1.248781875
v 2 0.25 0.75
v 2.034878125 0 1.248781875
v 2 0 0.75
v 1.7854875 0.25 1.26622125
v 1.75060875 0.25 0.767439375
v 1.7854875 0 1.26622125
v 1.75060875 0 0.767439375
v 2 0 3
v 2 0 0
v 1.75 0 0
v -1 0 0
v 1.75 0 0.25
v -0.75 0 0.25
v -0.75 0 0
v -1 0 3
v -0.20928875000000002 0.25 0.24904875000000004
v -0.1875 0.25 0
v -0.20928875000000002 0 0.24904875000000004
v -0.1875 0 0
v -0.5206 0.25 0.22181249999999997
v -0.49881062499999995 0.25 -0.027236250000000073
v -0.5206 0 0.22181249999999997
v -0.49881062499999995 0 -0.027236250000000073
v 1.78770875 0.25 0.62132875
v 2.0335225 0.25 0.575769375
v 1.69659125 0.25 0.1297012500000001
v 1.942405 0.25 0.08414250000000001
v 1.78770875 0 0.62132875
v 1.69659125 0 0.1297012500000001
v 1.942405 0 0.08414250000000001
v 2.0335225 0 0.575769375
v 1.1984287500000002 0.25 0.19162687500000009
v 1.69652625 0.25 0.2352043749999999
v 1.2202181250000002 0.25 -0.057421874999999956
v 1.718315 0.25 -0.013844374999999909
v 1.1984287500000002 0 0.19162687500000009
v 1.2202181250000002 0 -0.057421874999999956
v 1.718315 0 -0.013844374999999909
v 1.69652625 0 0.2352043749999999
v 1.75 -1 3
v -0.75 -1 3
v 1.75 -1 0
v -0.75 -1 0
v 1.9375 -0.625 3.0625
v 1.9375 -0.625 3
v 1.9375 -0.875 3.0625
v 1.9375 -0.875 3
v 1.4375 -0.625 3.0625
v 1.4375 -0.625 3
v 1.4375 -0.875 3.0625
v 1.4375 -0.875 3
v 1.75 -0.75 0
v 1.75 -0.75 -0.0625
v 1.75 -1 -0.0625
v 1.25 -0.75 0
v 1.25 -0.75 -0.0625
v 1.25 -1 0
v 1.25 -1 -0.0625
v -1 -0.25 0
v -1 -0.25 0.5
v -1 -0.5 0.5
v -1 -0.5 0
v -1.0625 -0.25 0.5
v -1.0625 -0.25 0
v -1.0625 -0.5 0.5
v -1.0625 -0.5 0
v -0.5 0 0
v -0.5 0 -0.0625
v -0.5 -0.25 0
v -0.5 -0.25 -0.0625
v -1 0 -0.0625
v -1 -0.25 -0.0625
v 0.5 -0.006250000000000089 3.0625
v 0.5 -0.006250000000000089 3
v 0.5 -0.2562500000000001 3.0625
v 0.5 -0.2562500000000001 3
v -0.5 -0.006250000000000089 3.0625
v -0.5 -0.006250000000000089 3
v -0.5 -0.2562500000000001 3.0625
v -0.5 -0.2562500000000001 3
v -1 -0.25 2.75
v -1 -0.25 2.25
v -1 -0.5 2.75
v -1 -0.5 2.25
v -1.0625 -0.25 2.75
v -1.0625 -0.25 2.25
v -1.0625 -0.5 2.75
v -1.0625 -0.5 2.25
v 1.5 -0.3125 3.0625
v 1.5 -0.3125 3
v 1.5 -0.5625 3.0625
v 1.5 -0.5625 3
v 0.5 -0.3125 3.0625
v 0.5 -0.3125 3
v 0.5 -0.5625 3.0625
v 0.5 -0.5625 3
v 0.9375 -0.625 3.0625
v 0.9375 -0.625 3
v 0.9375 -0.875 3.0625
v 0.9375 -0.875 3
v -0.0625 -0.625 3.0625
v -0.0625 -0.625 3
v -0.0625 -0.875 3.0625
v -0.0625 -0.875 3
v -0.0625 -1.125 3.0625
v -0.0625 -1.125 3
v -0.5625 -0.875 3.0625
v -0.5625 -0.875 3
v -0.5625 -1.125 3.0625
v -0.5625 -1.125 3
v -0.5 -0.3125 3.0625
v -0.5 -0.3125 3
v -0.5 -0.5625 3.0625
v -0.5 -0.5625 3
v -1 -0.3125 3.0625
v -1 -0.3125 3
v -1 -0.5625 3.0625
v -1 -0.5625 3
v -1 -0.75 2.375
v -1 -0.75 1.875
v -1 -1 2.375
v -1 -1 1.875
v -1.0625 -0.75 2.375
v -1.0625 -0.75 1.875
v -1.0625 -1 2.375
v -1.0625 -1 1.875
v -1 -0.25 0.875
v -1.0625 -0.25 0.875
v -1 -0.5 0.875
v -1.0625 -0.5 0.875
v -1 -0.25 1.875
v -1.0625 -0.25 1.875
v -1 -0.5 1.875
v -1.0625 -0.5 1.875
v -0.98255 -0.5 1.124695625
v -1 -0.5 0.625
v -0.98255 -0.75 1.124695625
v -1 -0.75 0.625
v -1.045011875 -0.5 1.126876875
v -1.062461875 -0.5 0.62718125
v -1.045011875 -0.75 1.126876875
v -1.062461875 -0.75 0.62718125
v 2.0625 -0.75 0.5
v 2 -0.75 0.5
v 2.0625 -1 0.5
v 2 -1 0.5
v 2.0625 -0.75 1.5
v 2 -0.75 1.5
v 2.0625 -1 1.5
v 2 -1 1.5
v 2.0625 0 2.5
v 2.0625 0 2
v 2.0625 -0.25 2.5
v 2.0625 -0.25 2
v 2 0 2.5
v 2 0 2
v 2 -0.25 2.5
v 2 -0.25 2
v 2.0625 -0.5 3
v 2.0625 -0.5 2.5
v 2.0625 -0.75 3
v 2.0625 -0.75 2.5
v 2 -0.5 3
v 2 -0.5 2.5
v 2 -0.75 3
v 2 -0.75 2.5
v 2.0625 -0.75 2
v 2.0625 -1 2.5
v 2.0625 -1 2
v 2 -0.75 2
v 2 -1 2.5
v 2 -1 2
v 2.0625 -0.5 1
v 2 -0.5 1
v 2.0625 -0.75 1
v 2 -0.75 1
v 2.0625 -0.5 2
v 2 -0.5 2
v 2.0625 -0.25 0.5
v 2 -0.25 0.5
v 2.0625 -0.5 0.5
v 2 -0.5 0.5
v 2.0625 -0.25 1.5
v 2 -0.25 1.5
v 2.0625 -0.5 1.5
v 2 -0.5 1.5
v 0.6875 -0.75 0
v 0.6875 -0.75 -0.0625
v 0.6875 -1 0
v 0.6875 -1 -0.0625
v 0.1875 -0.75 0
v 0.1875 -0.75 -0.0625
v 0.1875 -1 0
v 0.1875 -1 -0.0625
v 1.4375 -0.5 0
v 1.4375 -0.5 -0.0625
v 1.4375 -0.75 0
v 1.4375 -0.75 -0.0625
v 0.4375 -0.5 0
v 0.4375 -0.5 -0.0625
v 0.4375 -0.75 0
v 0.4375 -0.75 -0.0625
v 0.75 -0.25 0
v 0.75 -0.25 -0.0625
v 0.75 -0.5 0
v 0.75 -0.5 -0.0625
v -0.25 -0.25 0
v -0.25 -0.25 -0.0625
v -0.25 -0.5 0
v -0.25 -0.5 -0.0625
v -0.25 -0.75 0
v -0.25 -0.75 -0.0625
v -0.75 -0.5 0
v -0.75 -0.5 -0.0625
v -0.75 -0.75 0
v -0.75 -0.75 -0.0625
v 1.75 0 -0.0625
v 1.75 -0.25 0
v 1.75 -0.25 -0.0625
v 1.25 0 0
v 1.25 0 -0.0625
v 1.25 -0.25 0
v 1.25 -0.25 -0.0625
v 2 -3 0
v 2 -3 3
v -1 -3 3
v -1 -3 0
v -0.7721037326553715 0.25 3.0435936011493188
v -0.6895802154531911 0.25 2.5504508017482133
v -0.7721037326553715 0 3.0435936011493188
v -0.6895802154531911 0 2.5504508017482133
v -1.0186754095468091 0.25 3.002331698251787
v -0.9361518923446288 0.25 2.5091888988506814
v -1.0186754095468091 0 3.002331698251787
v -0.9361518923446288 0 2.5091888988506814
v -0.75 0 2.75
v 1.75 0 2.75
v 1.75 -1 2.75
v -0.75 -1 2.75
v -0.75 0 0.25
v -0.75 -1 0.25
v 1.75 0 0.25
v 1.75 -1 0.25
vt 0 0.71875
vt 0 0.21875
vt 0.75 0.21875
vt 0.75 0.71875
vt 0 0.71875
vt 0 0.21875
vt 0.75 0.21875
vt 0.75 0.71875
vt 0 0.71875
vt 0 0.21875
vt 0.75 0.21875
vt 0.75 0.71875
vt 0 0.71875
vt 0 0.21875
vt 0.75 0.21875
vt 0.75 0.71875
vt 0.68625 0.75
vt 0.06375 0.75
vt 0 0.68625
vt 0.75 0.68625
vt 0.06375 0.68625
vt 0.68625 0.68625
vt 0.75 0.75
vt 0 0.75
vt 0.06375 0.68625
vt 0.68625 0.68625
vt 0.75 0.75
vt 0 0.75
vt 0.68625 0.75
vt 0.06375 0.75
vt 0 0.68625
vt 0.75 0.68625
vt 0.875 0.875
vt 0.8125 0.875
vt 0.8125 0.625
vt 0.875 0.625
vt 0.875 0.84375
vt 0.8125 0.84375
vt 0.8125 0.59375
vt 0.875 0.59375
vt 0.8125 0.859375
vt 0.8125 0.609375
vt 0.875 0.609375
vt 0.875 0.859375
vt 0.875 0.8125
vt 0.8125 0.8125
vt 0.8125 0.75
vt 0.875 0.75
vt 0.875 0.34375
vt 0.8125 0.34375
vt 0.8125 0.28125
vt 0.875 0.28125
vt 0.875 0.78125
vt 0.8125 0.78125
vt 0.8125 0.65625
vt 0.875 0.65625
vt 1 0.703125
vt 0.9375 0.703125
vt 0.9375 0.578125
vt 1 0.578125
vt 0.8125 0.78125
vt 0.8125 0.65625
vt 0.875 0.65625
vt 0.875 0.78125
vt 1 0.734375
vt 0.9375 0.734375
vt 0.9375 0.671875
vt 1 0.671875
vt 0.875 0.65625
vt 0.8125 0.65625
vt 0.8125 0.59375
vt 0.875 0.59375
vt 1 0.703125
vt 0.9375 0.703125
vt 0.9375 0.640625
vt 1 0.640625
vt 1 0.796875
vt 0.9375 0.796875
vt 0.9375 0.734375
vt 1 0.734375
vt 1 0.8125
vt 0.9375 0.8125
vt 0.9375 0.6875
vt 1 0.6875
vt 1 0.765625
vt 0.9375 0.765625
vt 0.9375 0.640625
vt 1 0.640625
vt 0.875 0.6875
vt 0.8125 0.6875
vt 0.8125 0.5625
vt 0.875 0.5625
vt 0.640625 0.828125
vt 0.640625 0.890625
vt 0.015625 0.890625
vt 0.015625 0.828125
vt 1 0.71875
vt 0.9375 0.71875
vt 0.9375 0.65625
vt 1 0.65625
vt 1 0.671875
vt 0.9375 0.671875
vt 0.9375 0.609375
vt 1 0.609375
vt 1 0.625
vt 0.9375 0.625
vt 0.9375 0.5
vt 1 0.5
vt 1 0.703125
vt 0.9375 0.703125
vt 0.9375 0.578125
vt 1 0.578125
vt 0.875 0.703125
vt 0.8125 0.703125
vt 0.8125 0.578125
vt 0.875 0.578125
vt 0.875 0.828125
vt 0.8125 0.828125
vt 0.8125 0.578125
vt 0.875 0.578125
vt 0.875 0.8125
vt 0.8125 0.8125
vt 0.8125 0.5625
vt 0.875 0.5625
vt 0.875 0.59375
vt 0.875 0.84375
vt 0.8125 0.84375
vt 0.8125 0.59375
vt 0.875 0.703125
vt 0.8125 0.703125
vt 0.8125 0.640625
vt 0.875 0.640625
vt 0.875 0.78125
vt 0.8125 0.78125
vt 0.8125 0.71875
vt 0.875 0.71875
vt 0.875 0.765625
vt 0.8125 0.765625
vt 0.8125 0.640625
vt 0.875 0.640625
vt 0.875 0.6875
vt 0.8125 0.6875
vt 0.8125 0.5625
vt 0.875 0.5625
vt 0.875 0.625
vt 0.875 0.75
vt 0.8125 0.75
vt 0.8125 0.625
vt 0.875 0.578125
vt 0.8125 0.578125
vt 0.8125 0.515625
vt 0.875 0.515625
vt 0.9375 0.421875
vt 0.875 0.421875
vt 0.875 0.359375
vt 0.9375 0.359375
vt 0.75 1
vt 0 1
vt 0 0.9375
vt 0.75 0.9375
vt 0.6875 0.8125
vt 0.6875 0.875
vt 0.0625 0.875
vt 0.0625 0.8125
vt 0.75 0.9375
vt 0 0.9375
vt 0 0.875
vt 0.75 0.875
vt 1 0.796875
vt 0.9375 0.796875
vt 0.9375 0.734375
vt 1 0.734375
vt 1 0.8125
vt 0.9375 0.8125
vt 0.9375 0.75
vt 1 0.75
vt 1 0.734375
vt 0.9375 0.734375
vt 0.9375 0.65625
vt 1 0.65625
vt 1 0.796875
vt 0.9375 0.796875
vt 0.9375 0.71875
vt 1 0.71875
vt 1 0.796875
vt 0.9375 0.796875
vt 0.9375 0.71875
vt 1 0.71875
vt 0.875 0.671875
vt 0.8125 0.671875
vt 0.8125 0.546875
vt 0.875 0.546875
vt 0.875 0.75
vt 0.8125 0.75
vt 0.8125 0.625
vt 0.875 0.625
vt 0.875 0.40625
vt 0.875 0.28125
vt 0.9375 0.28125
vt 0.9375 0.40625
vt 1 0.671875
vt 0.9375 0.671875
vt 0.9375 0.609375
vt 1 0.609375
vt 0.9375 0.34375
vt 0.875 0.34375
vt 0.875 0.28125
vt 0.9375 0.28125
vt 0.8125 0.5
vt 0.875 0.5
vt 0.875 0.5625
vt 0.8125 0.5625
vt 0.8125 0.546875
vt 0.875 0.546875
vt 0.875 0.609375
vt 0.8125 0.609375
vt 0.8125 0.59375
vt 0.875 0.59375
vt 0.875 0.71875
vt 0.8125 0.71875
vt 0.8125 0.515625
vt 0.875 0.515625
vt 0.875 0.640625
vt 0.8125 0.640625
vt 0.9375 0.515625
vt 1 0.515625
vt 1 0.640625
vt 0.9375 0.640625
vt 0.6875 0.75
vt 0.6875 1
vt 0.0625 1
vt 0.0625 0.75
vt 0.75 0.75
vt 0.75 1
vt 0 1
vt 0 0.75
vt 0.75 0.75
vt 0.75 1
vt 0.6875 1
vt 0.6875 0.75
vt 0.0625 0.75
vt 0.0625 1
vt 0 1
vt 0 0.75
vt 0.6875 0.75
vt 0.6875 1
vt 0.0625 1
vt 0.0625 0.75
vt 0.75 0.75
vt 0.75 1
vt 0 1
vt 0 0.75
vt 0.0625 0.75
vt 0.0625 1
vt 0 1
vt 0 0.75
vt 0.75 0.75
vt 0.75 1
vt 0.6875 1
vt 0.6875 0.75
vt 0.796875 0.65625
vt 0.859375 0.65625
vt 0.859375 0.671875
vt 0.796875 0.671875
vt 0.828125 0.6875
vt 0.890625 0.6875
vt 0.890625 0.703125
vt 0.828125 0.703125
vt 0.875 0.609375
vt 0.890625 0.609375
vt 0.890625 0.734375
vt 0.875 0.734375
vt 0.859375 0.59375
vt 0.875 0.59375
vt 0.875 0.71875
vt 0.859375 0.71875
vt 0.8125 0.296875
vt 0.875 0.296875
vt 0.875 0.421875
vt 0.8125 0.421875
vt 0.75 0.546875
vt 0.78125 0.546875
vt 0.78125 0.5625
vt 0.75 0.5625
vt 0.75 0.5
vt 0.78125 0.5
vt 0.78125 0.515625
vt 0.75 0.515625
vt 0.765625 0.484375
vt 0.78125 0.484375
vt 0.78125 0.546875
vt 0.765625 0.546875
vt 0.765625 0.515625
vt 0.78125 0.515625
vt 0.78125 0.578125
vt 0.765625 0.578125
vt 0.75 0.65625
vt 0.8125 0.65625
vt 0.8125 0.78125
vt 0.75 0.78125
vt 0.8125 0.59375
vt 0.875 0.59375
vt 0.875 0.71875
vt 0.8125 0.71875
vt 0.828125 0.65625
vt 0.875 0.65625
vt 0.875 0.671875
vt 0.828125 0.671875
vt 0.8125 0.625
vt 0.875 0.625
vt 0.875 0.640625
vt 0.8125 0.640625
vt 0.796875 0.5625
vt 0.859375 0.5625
vt 0.859375 0.578125
vt 0.796875 0.578125
vt 0.8125 0.65625
vt 0.875 0.65625
vt 0.875 0.671875
vt 0.8125 0.671875
vt 0.78125 0.546875
vt 0.8125 0.546875
vt 0.8125 0.5625
vt 0.78125 0.5625
vt 0.78125 0.578125
vt 0.8125 0.578125
vt 0.8125 0.5625
vt 0.78125 0.5625
vt 0.8125 0.515625
vt 0.796875 0.515625
vt 0.796875 0.578125
vt 0.8125 0.578125
vt 0.78125 0.515625
vt 0.796875 0.515625
vt 0.796875 0.578125
vt 0.78125 0.578125
vt 0.8125 0.4375
vt 0.875 0.4375
vt 0.875 0.5625
vt 0.8125 0.5625
vt 0.8125 0.546875
vt 0.84375 0.546875
vt 0.84375 0.5625
vt 0.8125 0.5625
vt 0.8125 0.65625
vt 0.84375 0.65625
vt 0.84375 0.65625
vt 0.8125 0.65625
vt 0.828125 0.546875
vt 0.84375 0.546875
vt 0.84375 0.65625
vt 0.828125 0.65625
vt 0.8125 0.546875
vt 0.828125 0.546875
vt 0.828125 0.65625
vt 0.8125 0.65625
vt 0.8125 0.46875
vt 0.875 0.46875
vt 0.875 0.71875
vt 0.8125 0.71875
vt 0.9375 0.5
vt 1 0.5
vt 1 0.25
vt 0.9375 0.25
vt 0.75 0.671875
vt 0.8125 0.671875
vt 0.8125 0.796875
vt 0.75 0.796875
vt 0.796875 0.734375
vt 0.796875 0.6875
vt 0.8125 0.6875
vt 0.8125 0.734375
vt 0.796875 0.734375
vt 0.796875 0.6875
vt 0.8125 0.6875
vt 0.8125 0.734375
vt 0.78125 0.6875
vt 0.8125 0.6875
vt 0.8125 0.703125
vt 0.78125 0.703125
vt 0.796875 0.734375
vt 0.796875 0.671875
vt 0.8125 0.671875
vt 0.8125 0.734375
vt 0.84375 0.6875
vt 0.90625 0.6875
vt 0.90625 0.703125
vt 0.84375 0.703125
vt 0.859375 0.671875
vt 0.921875 0.671875
vt 0.921875 0.6875
vt 0.859375 0.6875
vt 0.84375 0.40625
vt 0.859375 0.40625
vt 0.859375 0.65625
vt 0.84375 0.65625
vt 0.859375 0.40625
vt 0.875 0.40625
vt 0.875 0.65625
vt 0.859375 0.65625
vt 0.8125 0.53125
vt 0.875 0.53125
vt 0.875 0.78125
vt 0.8125 0.78125
vt 0.828125 0.65625
vt 0.859375 0.65625
vt 0.859375 0.671875
vt 0.828125 0.671875
vt 0.828125 0.6875
vt 0.859375 0.6875
vt 0.859375 0.703125
vt 0.828125 0.703125
vt 0.859375 0.65625
vt 0.875 0.65625
vt 0.875 0.75
vt 0.859375 0.75
vt 0.84375 0.65625
vt 0.859375 0.65625
vt 0.859375 0.75
vt 0.84375 0.75
vt 0.8125 0.515625
vt 0.875 0.515625
vt 0.875 0.765625
vt 0.8125 0.765625
vt 0.796875 0.703125
vt 0.796875 0.75
vt 0.78125 0.75
vt 0.78125 0.703125
vt 0.78125 0.75
vt 0.8125 0.75
vt 0.8125 0.765625
vt 0.78125 0.765625
vt 0.796875 0.703125
vt 0.8125 0.703125
vt 0.8125 0.75
vt 0.796875 0.75
vt 0.796875 0.703125
vt 0.8125 0.703125
vt 0.8125 0.765625
vt 0.796875 0.765625
vt 0.75 0.65625
vt 0.8125 0.65625
vt 0.8125 0.78125
vt 0.75 0.78125
vt 0.84375 0.5625
vt 0.84375 0.515625
vt 0.859375 0.515625
vt 0.859375 0.5625
vt 0.828125 0.5625
vt 0.859375 0.5625
vt 0.859375 0.578125
vt 0.828125 0.578125
vt 0.875 0.515625
vt 0.859375 0.515625
vt 0.859375 0.59375
vt 0.875 0.59375
vt 0.84375 0.515625
vt 0.859375 0.515625
vt 0.859375 0.59375
vt 0.84375 0.59375
vt 0.8125 0.484375
vt 0.875 0.484375
vt 0.875 0.609375
vt 0.8125 0.609375
vt 0.875 0.875
vt 0.9375 0.875
vt 0.9375 1
vt 0.875 1
vt 0.828125 0.5625
vt 0.828125 0.625
vt 0.84375 0.625
vt 0.84375 0.5625
vt 0.84375 0.578125
vt 0.84375 0.625
vt 0.828125 0.625
vt 0.828125 0.578125
vt 0.8125 0.625
vt 0.84375 0.625
vt 0.84375 0.609375
vt 0.8125 0.609375
vt 0.8125 0.609375
vt 0.84375 0.609375
vt 0.84375 0.59375
vt 0.8125 0.59375
vt 0.765625 0.5
vt 0.8125 0.5
vt 0.8125 0.515625
vt 0.765625 0.515625
vt 0.765625 0.5
vt 0.796875 0.5
vt 0.796875 0.515625
vt 0.765625 0.515625
vt 0.796875 0.5
vt 0.8125 0.5
vt 0.8125 0.625
vt 0.796875 0.625
vt 0.78125 0.5
vt 0.796875 0.5
vt 0.796875 0.625
vt 0.78125 0.625
vt 0.875 0.4375
vt 0.9375 0.4375
vt 0.9375 0.6875
vt 0.875 0.6875
vt 0.8125 0.46875
vt 0.875 0.46875
vt 0.875 0.59375
vt 0.8125 0.59375
vt 0.796875 0.5
vt 0.828125 0.5
vt 0.828125 0.53125
vt 0.796875 0.53125
vt 0.796875 0.4375
vt 0.859375 0.4375
vt 0.859375 0.453125
vt 0.796875 0.453125
vt 0.8125 0.59375
vt 0.875 0.59375
vt 0.875 0.609375
vt 0.8125 0.609375
vt 0.78125 0.546875
vt 0.84375 0.546875
vt 0.84375 0.5625
vt 0.78125 0.5625
vt 0.8125 0.515625
vt 0.875 0.515625
vt 0.875 0.53125
vt 0.8125 0.53125
vt 0.875 0.6875
vt 0.9375 0.6875
vt 0.9375 0.703125
vt 0.875 0.703125
vt 0.90625 0.515625
vt 0.921875 0.515625
vt 0.921875 0.765625
vt 0.90625 0.765625
vt 0.890625 0.515625
vt 0.90625 0.515625
vt 0.90625 0.765625
vt 0.890625 0.765625
vt 0.75 0.4375
vt 0.8125 0.4375
vt 0.8125 0.6875
vt 0.75 0.6875
vt 0.9375 0.734375
vt 1 0.734375
vt 1 0.859375
vt 0.9375 0.859375
vt 0.765625 0.53125
vt 0.890625 0.53125
vt 0.890625 0.546875
vt 0.765625 0.546875
vt 0.765625 0.546875
vt 0.890625 0.546875
vt 0.890625 0.5625
vt 0.765625 0.5625
vt 0.796875 0.453125
vt 0.859375 0.453125
vt 0.859375 0.46875
vt 0.796875 0.46875
vt 0.796875 0.609375
vt 0.859375 0.609375
vt 0.859375 0.625
vt 0.796875 0.625
vt 0.8125 0.875
vt 0.875 0.875
vt 0.875 1
vt 0.8125 1
vt 0.796875 0.625
vt 0.921875 0.625
vt 0.921875 0.640625
vt 0.796875 0.640625
vt 0.796875 0.671875
vt 0.921875 0.671875
vt 0.921875 0.6875
vt 0.796875 0.6875
vt 0.8125 0.59375
vt 0.875 0.59375
vt 0.875 0.609375
vt 0.8125 0.609375
vt 0.828125 0.5625
vt 0.890625 0.5625
vt 0.890625 0.578125
vt 0.828125 0.578125
vt 0.75 0.671875
vt 0.8125 0.671875
vt 0.8125 0.796875
vt 0.75 0.796875
vt 0.8125 0.59375
vt 0.9375 0.59375
vt 0.9375 0.609375
vt 0.8125 0.609375
vt 0.8125 0.53125
vt 0.9375 0.53125
vt 0.9375 0.546875
vt 0.8125 0.546875
vt 0.84375 0.546875
vt 0.90625 0.546875
vt 0.90625 0.5625
vt 0.84375 0.5625
vt 0.84375 0.53125
vt 0.90625 0.53125
vt 0.90625 0.546875
vt 0.84375 0.546875
vt 0.78125 0.5
vt 0.84375 0.5
vt 0.84375 0.515625
vt 0.78125 0.515625
vt 0.78125 0.609375
vt 0.84375 0.609375
vt 0.84375 0.625
vt 0.78125 0.625
vt 0.828125 0.453125
vt 0.84375 0.453125
vt 0.84375 0.703125
vt 0.828125 0.703125
vt 0.828125 0.421875
vt 0.84375 0.421875
vt 0.84375 0.671875
vt 0.828125 0.671875
vt 0.921875 0.640625
vt 0.984375 0.640625
vt 0.984375 0.890625
vt 0.921875 0.890625
vt 0.796875 0.65625
vt 0.859375 0.65625
vt 0.859375 0.671875
vt 0.796875 0.671875
vt 0.796875 0.546875
vt 0.859375 0.546875
vt 0.859375 0.5625
vt 0.796875 0.5625
vt 0.828125 0.46875
vt 0.84375 0.46875
vt 0.84375 0.71875
vt 0.828125 0.71875
vt 0.8125 0.484375
vt 0.828125 0.484375
vt 0.828125 0.734375
vt 0.8125 0.734375
vt 0.875 0.421875
vt 0.9375 0.421875
vt 0.9375 0.671875
vt 0.875 0.671875
vt 0.796875 0.625
vt 0.84375 0.625
vt 0.84375 0.640625
vt 0.796875 0.640625
vt 0.796875 0.65625
vt 0.84375 0.65625
vt 0.84375 0.671875
vt 0.796875 0.671875
vt 0.828125 0.609375
vt 0.84375 0.609375
vt 0.84375 0.65625
vt 0.828125 0.65625
vt 0.8125 0.609375
vt 0.828125 0.609375
vt 0.828125 0.671875
vt 0.8125 0.671875
vt 0.875 0.5
vt 0.9375 0.5
vt 0.9375 0.625
vt 0.875 0.625
vt 0.84375 0.40625
vt 0.859375 0.40625
vt 0.859375 0.421875
vt 0.84375 0.421875
vt 0.84375 0.46875
vt 0.875 0.46875
vt 0.875 0.484375
vt 0.84375 0.484375
vt 0.859375 0.40625
vt 0.875 0.40625
vt 0.875 0.484375
vt 0.859375 0.484375
vt 0.84375 0.40625
vt 0.859375 0.40625
vt 0.859375 0.484375
vt 0.84375 0.484375
vt 0.8125 0.3125
vt 0.875 0.3125
vt 0.875 0.5625
vt 0.8125 0.5625
vt 0.8125 0.65625
vt 0.84375 0.65625
vt 0.84375 0.671875
vt 0.8125 0.671875
vt 0.8125 0.5625
vt 0.84375 0.5625
vt 0.84375 0.578125
vt 0.8125 0.578125
vt 0.828125 0.5625
vt 0.84375 0.5625
vt 0.84375 0.671875
vt 0.828125 0.671875
vt 0.828125 0.5625
vt 0.828125 0.5625
vt 0.828125 0.671875
vt 0.828125 0.671875
vt 0.9375 0.515625
vt 1 0.515625
vt 1 0.765625
vt 0.9375 0.765625
vt 0.84375 0.46875
vt 0.875 0.46875
vt 0.875 0.484375
vt 0.84375 0.484375
vt 0.84375 0.484375
vt 0.875 0.484375
vt 0.875 0.484375
vt 0.84375 0.484375
vt 0.84375 0.421875
vt 0.859375 0.421875
vt 0.859375 0.484375
vt 0.84375 0.484375
vt 0.859375 0.421875
vt 0.875 0.421875
vt 0.875 0.46875
vt 0.859375 0.46875
vt 0.9375 0.28125
vt 1 0.28125
vt 1 0.40625
vt 0.9375 0.40625
vt 0.859375 0.71875
vt 0.890625 0.71875
vt 0.890625 0.703125
vt 0.859375 0.703125
vt 0.859375 0.765625
vt 0.890625 0.765625
vt 0.890625 0.75
vt 0.859375 0.75
vt 0.890625 0.703125
vt 0.875 0.703125
vt 0.875 0.765625
vt 0.890625 0.765625
vt 0.859375 0.703125
vt 0.875 0.703125
vt 0.875 0.765625
vt 0.859375 0.765625
vt 0.828125 0.625
vt 0.890625 0.625
vt 0.890625 0.75
vt 0.828125 0.75
vt 0.875 0.671875
vt 0.8125 0.671875
vt 0.8125 0.546875
vt 0.875 0.546875
vt 0.875 0.75
vt 0.8125 0.75
vt 0.8125 0.625
vt 0.875 0.625
vt 0.875 0.40625
vt 0.875 0.28125
vt 0.9375 0.28125
vt 0.9375 0.40625
vt 1 0.671875
vt 0.9375 0.671875
vt 0.9375 0.609375
vt 1 0.609375
vt 0.9375 0.34375
vt 0.875 0.34375
vt 0.875 0.28125
vt 0.9375 0.28125
vt 0.6875 1
vt 0.0625 1
vt 0.0625 0.75
vt 0.6875 0.75
vt 0.703125 1
vt 0.078125 1
vt 0.078125 0.75
vt 0.703125 0.75
vt 0.6875 1
vt 0.0625 1
vt 0.0625 0.75
vt 0.6875 0.75
vt 0.6875 1
vt 0.0625 1
vt 0.0625 0.75
vt 0.6875 0.75
vn 1 0 0
vn -1 0 0
vn 0 0 1
vn 0 0 -1
vn 0 1 0
vn 0 1 0
vn 0 1 0
vn 0 1 0
vn 1 0 0
vn -1 0 0
vn 0 1 0
vn 0 0 1
vn 0 0 -1
vn 0.9902681405489647 0 0.13917259002294907
vn -0.9902679682753972 0 -0.1391738158121598
vn 0 1 0
vn -0.13917224547811638 0 0.9902681889713407
vn 0.1391725900229491 0 -0.9902681405489647
vn 0.992546055114238 0 -0.12187012955258711
vn -0.9925460922449604 0 0.1218698271487191
vn 0 1 0
vn 0.12186997835046666 0 0.9925460736796338
vn -0.12186874691576863 0 -0.9925462248808267
vn 0 1 0
vn 0.9961947648731585 0 0.08715497942924849
vn -0.9961947648731585 0 -0.08715497942924849
vn 0 1 0
vn -0.08715621993376488 0 0.9961946563432557
vn 0.08715621993376488 0 -0.9961946563432557
vn 1 0 0
vn -1 0 0
vn 0 1 0
vn 0 0 1
vn 0 0 -1
vn 0.9975640643683362 0 -0.06975627198271182
vn -0.9975639773846032 0 0.0697575159005188
vn 0 1 0
vn 0.06975760288512835 0 0.9975639713019515
vn -0.06975742891612634 0 -0.9975639834672319
vn 0 1 0
vn 0 1 0
vn 0 1 0
vn 0.9961947648731585 0 0.08715497942924849
vn -0.9961945478118319 0 -0.08715746043787584
vn 0 1 0
vn -0.08715588500869317 0 0.9961946856455076
vn 0.08715605865726764 0 -0.9961946704531855
vn -0.9832550047933682 0 0.18223500088839562
vn 0.9832549632812971 0 -0.18223522486801305
vn 0 1 0
vn -0.18223500088839603 0 -0.9832550047933681
vn 0.1822374178627667 0 0.9832545568319078
vn -0.9961945478118319 0 -0.08715746043787584
vn 0.9961947648731584 0 0.08715497942924856
vn 0 1 0
vn 0.0871550879585253 0 -0.9961947553781548
vn -0.08715497942924808 0 0.9961947648731584
vn 0 0 1
vn 1 0 0
vn 0 0 1
vn 0 0 -1
vn 0 0 -1
vn -1 0 0
vn 0 0 1
vn 0 0 -1
vn 1 0 0
vn -1 0 0
vn 0 1 0
vn 0 -1 0
vn 0 0 1
vn 1 0 0
vn -1 0 0
vn 0 1 0
vn 0 -1 0
vn 0 0 -1
vn -1 0 0
vn 0 1 0
vn 0 -1 0
vn 0 0 1
vn 0 0 -1
vn 1 0 0
vn -1 0 0
vn 0 1 0
vn 0 -1 0
vn 0 0 -1
vn 1 0 0
vn -1 0 0
vn 0 1 0
vn 0 -1 0
vn 0 0 1
vn 0 0 -1
vn -1 0 0
vn 0 1 0
vn 0 -1 0
vn 0 0 1
vn 0 0 -1
vn 1 0 0
vn -1 0 0
vn 0 1 0
vn 0 -1 0
vn 0 0 1
vn 1 0 0
vn -1 0 0
vn 0 1 0
vn 0 -1 0
vn 0 0 1
vn 1 0 0
vn -1 0 0
vn 0 1 0
vn 0 -1 0
vn 0 0 1
vn 1 0 0
vn -1 0 0
vn 0 1 0
vn 0 -1 0
vn 0 0 1
vn -1 0 0
vn 0 1 0
vn 0 -1 0
vn 0 0 1
vn 0 0 -1
vn 0 0 -1
vn 0 0 1
vn 0 1 0
vn 0 -1 0
vn -1 0 0
vn -0.9993908099800349 0 0.03489998463394907
vn 0 1 0
vn 0 -1 0
vn 0.034900028232389704 0 0.9993908084575217
vn -0.034900028232389704 0 -0.9993908084575217
vn 0 0 -1
vn 0 0 1
vn 0 1 0
vn 0 -1 0
vn 1 0 0
vn 1 0 0
vn 0 1 0
vn 0 -1 0
vn 0 0 1
vn 0 0 -1
vn 1 0 0
vn 0 1 0
vn 0 -1 0
vn 0 0 1
vn 0 0 -1
vn 1 0 0
vn 0 1 0
vn 0 -1 0
vn 0 0 1
vn 0 0 -1
vn 0 0 -1
vn 0 0 1
vn 0 1 0
vn 0 -1 0
vn 1 0 0
vn 0 0 -1
vn 0 0 1
vn 0 1 0
vn 0 -1 0
vn 1 0 0
vn 1 0 0
vn -1 0 0
vn 0 1 0
vn 0 -1 0
vn 0 0 -1
vn 1 0 0
vn -1 0 0
vn 0 1 0
vn 0 -1 0
vn 0 0 -1
vn 1 0 0
vn -1 0 0
vn 0 1 0
vn 0 -1 0
vn 0 0 -1
vn 1 0 0
vn -1 0 0
vn 0 1 0
vn 0 -1 0
vn 0 0 -1
vn 1 0 0
vn -1 0 0
vn 0 1 0
vn 0 -1 0
vn 0 0 -1
vn 0.9862856944865693 0 0.1650470504163754
vn -0.9862856944865693 0 -0.16504705041637532
vn 0 1 0
vn -0.16504743139040823 0 0.9862856307335257
vn 0.1650474313904091 0 -0.9862856307335255
vn -1 0 0
vn 1 0 0
vn 0 0 -1
vn 0 0 1
usemtl base_bricks
f 1/1/1 276/2/1 275/3/1
f 1/1/1 275/3/1 2/4/1
f 4/5/2 278/6/2 277/7/2
f 4/5/2 277/7/2 3/8/2
f 3/9/3 277/10/3 276/11/3
f 3/9/3 276/11/3 1/12/3
f 2/13/4 275/14/4 278/15/4
f 2/13/4 278/15/4 4/16/4
f 6/17/5 5/18/5 3/19/5
f 6/17/5 3/19/5 1/20/5
f 7/21/6 6/22/6 1/23/6
f 7/21/6 1/23/6 2/24/6
f 8/25/7 7/26/7 2/27/7
f 8/25/7 2/27/7 4/28/7
f 5/29/8 8/30/8 4/31/8
f 5/29/8 4/31/8 3/32/8
f 12/33/9 10/34/9 9/35/9
f 12/33/9 9/35/9 11/36/9
f 15/37/10 13/38/10 14/39/10
f 15/37/10 14/39/10 16/40/10
f 9/41/11 10/42/11 14/43/11
f 9/41/11 14/43/11 13/44/11
f 11/45/12 9/46/12 13/47/12
f 11/45/12 13/47/12 15/48/12
f 16/49/13 14/50/13 10/51/13
f 16/49/13 10/51/13 12/52/13
f 20/53/14 18/54/14 17/55/14
f 20/53/14 17/55/14 19/56/14
f 23/57/15 21/58/15 22/59/15
f 23/57/15 22/59/15 24/60/15
f 17/61/16 18/62/16 22/63/16
f 17/61/16 22/63/16 21/64/16
f 19/65/17 17/66/17 21/67/17
f 19/65/17 21/67/17 23/68/17
f 24/69/18 22/70/18 18/71/18
f 24/69/18 18/71/18 20/72/18
f 28/73/19 26/74/19 25/75/19
f 28/73/19 25/75/19 27/76/19
f 31/77/20 29/78/20 30/79/20
f 31/77/20 30/79/20 32/80/20
f 25/81/21 26/82/21 30/83/21
f 25/81/21 30/83/21 29/84/21
f 27/85/22 25/86/22 29/87/22
f 27/85/22 29/87/22 31/88/22
f 32/89/23 30/90/23 26/91/23
f 32/89/23 26/91/23 28/92/23
f 33/93/24 34/94/24 36/95/24
f 33/93/24 36/95/24 35/96/24
f 40/97/25 38/98/25 37/99/25
f 40/97/25 37/99/25 39/100/25
f 43/101/26 41/102/26 42/103/26
f 43/101/26 42/103/26 44/104/26
f 37/105/27 38/106/27 42/107/27
f 37/105/27 42/107/27 41/108/27
f 39/109/28 37/110/28 41/111/28
f 39/109/28 41/111/28 43/112/28
f 44/113/29 42/114/29 38/115/29
f 44/113/29 38/115/29 40/116/29
f 48/117/30 46/118/30 45/119/30
f 48/117/30 45/119/30 47/120/30
f 28/121/31 26/122/31 49/123/31
f 28/121/31 49/123/31 50/124/31
f 45/125/32 46/126/32 49/127/32
f 45/125/32 49/127/32 26/128/32
f 47/129/33 45/130/33 26/131/33
f 47/129/33 26/131/33 28/132/33
f 50/133/34 49/134/34 46/135/34
f 50/133/34 46/135/34 48/136/34
f 54/137/35 52/138/35 51/139/35
f 54/137/35 51/139/35 53/140/35
f 57/141/36 55/142/36 56/143/36
f 57/141/36 56/143/36 58/144/36
f 51/145/37 52/146/37 56/147/37
f 51/145/37 56/147/37 55/148/37
f 53/149/38 51/150/38 55/151/38
f 53/149/38 55/151/38 57/152/38
f 58/153/39 56/154/39 52/155/39
f 58/153/39 52/155/39 54/156/39
f 59/157/40 60/158/40 61/159/40
f 59/157/40 61/159/40 33/160/40
f 63/161/41 61/162/41 65/163/41
f 63/161/41 65/163/41 64/164/41
f 35/165/42 65/166/42 62/167/42
f 35/165/42 62/167/42 66/168/42
f 70/169/43 68/170/43 67/171/43
f 70/169/43 67/171/43 69/172/43
f 73/173/44 71/174/44 72/175/44
f 73/173/44 72/175/44 74/176/44
f 67/177/45 68/178/45 72/179/45
f 67/177/45 72/179/45 71/180/45
f 69/181/46 67/182/46 71/183/46
f 69/181/46 71/183/46 73/184/46
f 74/185/47 72/186/47 68/187/47
f 74/185/47 68/187/47 70/188/47
f 79/189/48 75/190/48 77/191/48
f 79/189/48 77/191/48 80/192/48
f 81/193/49 78/194/49 76/195/49
f 81/193/49 76/195/49 82/196/49
f 77/197/50 75/198/50 76/199/50
f 77/197/50 76/199/50 78/200/50
f 80/201/51 77/202/51 78/203/51
f 80/201/51 78/203/51 81/204/51
f 82/205/52 76/206/52 75/207/52
f 82/205/52 75/207/52 79/208/52
f 87/209/53 83/210/53 85/211/53
f 87/209/53 85/211/53 88/212/53
f 89/213/54 86/214/54 84/215/54
f 89/213/54 84/215/54 90/216/54
f 85/217/55 83/218/55 84/219/55
f 85/217/55 84/219/55 86/220/55
f 88/221/56 85/222/56 86/223/56
f 88/221/56 86/223/56 89/224/56
f 90/225/57 84/226/57 83/227/57
f 90/225/57 83/227/57 87/228/57
f 91/229/58 33/230/58 35/231/58
f 91/229/58 35/231/58 92/232/58
f 2/233/59 60/234/59 59/235/59
f 2/233/59 59/235/59 1/236/59
f 1/237/60 59/238/60 33/239/60
f 1/237/60 33/239/60 91/240/60
f 93/241/61 61/242/61 60/243/61
f 93/241/61 60/243/61 2/244/61
f 94/245/62 65/246/62 61/247/62
f 94/245/62 61/247/62 93/248/62
f 3/249/63 66/250/63 62/251/63
f 3/249/63 62/251/63 4/252/63
f 92/253/64 35/254/64 66/255/64
f 92/253/64 66/255/64 3/256/64
f 4/257/65 62/258/65 65/259/65
f 4/257/65 65/259/65 94/260/65
f 98/261/66 96/262/66 95/263/66
f 98/261/66 95/263/66 97/264/66
f 101/265/67 99/266/67 100/267/67
f 101/265/67 100/267/67 102/268/67
f 95/269/68 96/270/68 100/271/68
f 95/269/68 100/271/68 99/272/68
f 98/273/69 97/274/69 101/275/69
f 98/273/69 101/275/69 102/276/69
f 97/277/70 95/278/70 99/279/70
f 97/277/70 99/279/70 101/280/70
f 105/281/71 104/282/71 103/283/71
f 105/281/71 103/283/71 93/284/71
f 108/285/72 106/286/72 107/287/72
f 108/285/72 107/287/72 109/288/72
f 103/289/73 104/290/73 107/291/73
f 103/289/73 107/291/73 106/292/73
f 105/293/74 93/294/74 108/295/74
f 105/293/74 108/295/74 109/296/74
f 109/297/75 107/298/75 104/299/75
f 109/297/75 104/299/75 105/300/75
f 116/301/76 114/302/76 115/303/76
f 116/301/76 115/303/76 117/304/76
f 111/305/77 110/306/77 115/307/77
f 111/305/77 115/307/77 114/308/77
f 113/309/78 112/310/78 116/311/78
f 113/309/78 116/311/78 117/312/78
f 112/313/79 111/314/79 114/315/79
f 112/313/79 114/315/79 116/316/79
f 117/317/80 115/318/80 110/319/80
f 117/317/80 110/319/80 113/320/80
f 121/321/81 119/322/81 118/323/81
f 121/321/81 118/323/81 120/324/81
f 110/325/82 62/326/82 122/327/82
f 110/325/82 122/327/82 123/328/82
f 118/329/83 119/330/83 122/331/83
f 118/329/83 122/331/83 62/332/83
f 121/333/84 120/334/84 110/335/84
f 121/333/84 110/335/84 123/336/84
f 123/337/85 122/338/85 119/339/85
f 123/337/85 119/339/85 121/340/85
f 127/341/86 125/342/86 124/343/86
f 127/341/86 124/343/86 126/344/86
f 130/345/87 128/346/87 129/347/87
f 130/345/87 129/347/87 131/348/87
f 124/349/88 125/350/88 129/351/88
f 124/349/88 129/351/88 128/352/88
f 127/353/89 126/354/89 130/355/89
f 127/353/89 130/355/89 131/356/89
f 126/357/90 124/358/90 128/359/90
f 126/357/90 128/359/90 130/360/90
f 131/361/91 129/362/91 125/363/91
f 131/361/91 125/363/91 127/364/91
f 138/365/92 136/366/92 137/367/92
f 138/365/92 137/367/92 139/368/92
f 132/369/93 133/370/93 137/371/93
f 132/369/93 137/371/93 136/372/93
f 135/373/94 134/374/94 138/375/94
f 135/373/94 138/375/94 139/376/94
f 134/377/95 132/378/95 136/379/95
f 134/377/95 136/379/95 138/380/95
f 139/381/96 137/382/96 133/383/96
f 139/381/96 133/383/96 135/384/96
f 143/385/97 141/386/97 140/387/97
f 143/385/97 140/387/97 142/388/97
f 146/389/98 144/390/98 145/391/98
f 146/389/98 145/391/98 147/392/98
f 140/393/99 141/394/99 145/395/99
f 140/393/99 145/395/99 144/396/99
f 143/397/100 142/398/100 146/399/100
f 143/397/100 146/399/100 147/400/100
f 142/401/101 140/402/101 144/403/101
f 142/401/101 144/403/101 146/404/101
f 151/405/102 149/406/102 148/407/102
f 151/405/102 148/407/102 150/408/102
f 154/409/103 152/410/103 153/411/103
f 154/409/103 153/411/103 155/412/103
f 148/413/104 149/414/104 153/415/104
f 148/413/104 153/415/104 152/416/104
f 151/417/105 150/418/105 154/419/105
f 151/417/105 154/419/105 155/420/105
f 150/421/106 148/422/106 152/423/106
f 150/421/106 152/423/106 154/424/106
f 157/425/107 155/426/107 154/427/107
f 157/425/107 154/427/107 156/428/107
f 160/429/108 158/430/108 159/431/108
f 160/429/108 159/431/108 161/432/108
f 154/433/109 155/434/109 159/435/109
f 154/433/109 159/435/109 158/436/109
f 157/437/110 156/438/110 160/439/110
f 157/437/110 160/439/110 161/440/110
f 156/441/111 154/442/111 158/443/111
f 156/441/111 158/443/111 160/444/111
f 165/445/112 163/446/112 162/447/112
f 165/445/112 162/447/112 164/448/112
f 168/449/113 166/450/113 167/451/113
f 168/449/113 167/451/113 169/452/113
f 162/453/114 163/454/114 167/455/114
f 162/453/114 167/455/114 166/456/114
f 165/457/115 164/458/115 168/459/115
f 165/457/115 168/459/115 169/460/115
f 164/461/116 162/462/116 166/463/116
f 164/461/116 166/463/116 168/464/116
f 176/465/117 174/466/117 175/467/117
f 176/465/117 175/467/117 177/468/117
f 170/469/118 171/470/118 175/471/118
f 170/469/118 175/471/118 174/472/118
f 173/473/119 172/474/119 176/475/119
f 173/473/119 176/475/119 177/476/119
f 172/477/120 170/478/120 174/479/120
f 172/477/120 174/479/120 176/480/120
f 177/481/121 175/482/121 171/483/121
f 177/481/121 171/483/121 173/484/121
f 181/485/122 179/486/122 178/487/122
f 181/485/122 178/487/122 180/488/122
f 184/489/123 182/490/123 183/491/123
f 184/489/123 183/491/123 185/492/123
f 178/493/124 179/494/124 183/495/124
f 178/493/124 183/495/124 182/496/124
f 181/497/125 180/498/125 184/499/125
f 181/497/125 184/499/125 185/500/125
f 185/501/126 183/502/126 179/503/126
f 185/501/126 179/503/126 181/504/126
f 192/505/127 190/506/127 191/507/127
f 192/505/127 191/507/127 193/508/127
f 186/509/128 187/510/128 191/511/128
f 186/509/128 191/511/128 190/512/128
f 189/513/129 188/514/129 192/515/129
f 189/513/129 192/515/129 193/516/129
f 188/517/130 186/518/130 190/519/130
f 188/517/130 190/519/130 192/520/130
f 193/521/131 191/522/131 187/523/131
f 193/521/131 187/523/131 189/524/131
f 197/525/132 195/526/132 194/527/132
f 197/525/132 194/527/132 196/528/132
f 200/529/133 198/530/133 199/531/133
f 200/529/133 199/531/133 201/532/133
f 194/533/134 195/534/134 199/535/134
f 194/533/134 199/535/134 198/536/134
f 197/537/135 196/538/135 200/539/135
f 197/537/135 200/539/135 201/540/135
f 196/541/136 194/542/136 198/543/136
f 196/541/136 198/543/136 200/544/136
f 205/545/137 203/546/137 202/547/137
f 205/545/137 202/547/137 204/548/137
f 202/549/138 203/550/138 207/551/138
f 202/549/138 207/551/138 206/552/138
f 205/553/139 204/554/139 208/555/139
f 205/553/139 208/555/139 209/556/139
f 204/557/140 202/558/140 206/559/140
f 204/557/140 206/559/140 208/560/140
f 209/561/141 207/562/141 203/563/141
f 209/561/141 203/563/141 205/564/141
f 213/565/142 211/566/142 210/567/142
f 213/565/142 210/567/142 212/568/142
f 210/569/143 211/570/143 215/571/143
f 210/569/143 215/571/143 214/572/143
f 213/573/144 212/574/144 216/575/144
f 213/573/144 216/575/144 217/576/144
f 212/577/145 210/578/145 214/579/145
f 212/577/145 214/579/145 216/580/145
f 217/581/146 215/582/146 211/583/146
f 217/581/146 211/583/146 213/584/146
f 220/585/147 218/586/147 213/587/147
f 220/585/147 213/587/147 219/588/147
f 213/589/148 218/590/148 221/591/148
f 213/589/148 221/591/148 217/592/148
f 220/593/149 219/594/149 222/595/149
f 220/593/149 222/595/149 223/596/149
f 219/597/150 213/598/150 217/599/150
f 219/597/150 217/599/150 222/600/150
f 223/601/151 221/602/151 218/603/151
f 223/601/151 218/603/151 220/604/151
f 227/605/152 225/606/152 224/607/152
f 227/605/152 224/607/152 226/608/152
f 218/609/153 228/610/153 229/611/153
f 218/609/153 229/611/153 221/612/153
f 224/613/154 225/614/154 229/615/154
f 224/613/154 229/615/154 228/616/154
f 227/617/155 226/618/155 218/619/155
f 227/617/155 218/619/155 221/620/155
f 226/621/156 224/622/156 228/623/156
f 226/621/156 228/623/156 218/624/156
f 233/625/157 231/626/157 230/627/157
f 233/625/157 230/627/157 232/628/157
f 236/629/158 234/630/158 235/631/158
f 236/629/158 235/631/158 237/632/158
f 230/633/159 231/634/159 235/635/159
f 230/633/159 235/635/159 234/636/159
f 233/637/160 232/638/160 236/639/160
f 233/637/160 236/639/160 237/640/160
f 232/641/161 230/642/161 234/643/161
f 232/641/161 234/643/161 236/644/161
f 241/645/162 239/646/162 238/647/162
f 241/645/162 238/647/162 240/648/162
f 244/649/163 242/650/163 243/651/163
f 244/649/163 243/651/163 245/652/163
f 238/653/164 239/654/164 243/655/164
f 238/653/164 243/655/164 242/656/164
f 241/657/165 240/658/165 244/659/165
f 241/657/165 244/659/165 245/660/165
f 245/661/166 243/662/166 239/663/166
f 245/661/166 239/663/166 241/664/166
f 249/665/167 247/666/167 246/667/167
f 249/665/167 246/667/167 248/668/167
f 252/669/168 250/670/168 251/671/168
f 252/669/168 251/671/168 253/672/168
f 246/673/169 247/674/169 251/675/169
f 246/673/169 251/675/169 250/676/169
f 249/677/170 248/678/170 252/679/170
f 249/677/170 252/679/170 253/680/170
f 253/681/171 251/682/171 247/683/171
f 253/681/171 247/683/171 249/684/171
f 257/685/172 255/686/172 254/687/172
f 257/685/172 254/687/172 256/688/172
f 260/689/173 258/690/173 259/691/173
f 260/689/173 259/691/173 261/692/173
f 254/693/174 255/694/174 259/695/174
f 254/693/174 259/695/174 258/696/174
f 257/697/175 256/698/175 260/699/175
f 257/697/175 260/699/175 261/700/175
f 261/701/176 259/702/176 255/703/176
f 261/701/176 255/703/176 257/704/176
f 263/705/177 261/706/177 260/707/177
f 263/705/177 260/707/177 262/708/177
f 266/709/178 264/710/178 265/711/178
f 266/709/178 265/711/178 267/712/178
f 260/713/179 261/714/179 265/715/179
f 260/713/179 265/715/179 264/716/179
f 263/717/180 262/718/180 266/719/180
f 263/717/180 266/719/180 267/720/180
f 267/721/181 265/722/181 261/723/181
f 267/721/181 261/723/181 263/724/181
f 270/725/182 268/726/182 61/727/182
f 270/725/182 61/727/182 269/728/182
f 273/729/183 271/730/183 272/731/183
f 273/729/183 272/731/183 274/732/183
f 61/733/184 268/734/184 272/735/184
f 61/733/184 272/735/184 271/736/184
f 270/737/185 269/738/185 273/739/185
f 270/737/185 273/739/185 274/740/185
f 274/741/186 272/742/186 268/743/186
f 274/741/186 268/743/186 270/744/186
f 282/745/187 280/746/187 279/747/187
f 282/745/187 279/747/187 281/748/187
f 285/749/188 283/750/188 284/751/188
f 285/749/188 284/751/188 286/752/188
f 279/753/189 280/754/189 284/755/189
f 279/753/189 284/755/189 283/756/189
f 281/757/190 279/758/190 283/759/190
f 281/757/190 283/759/190 285/760/190
f 286/761/191 284/762/191 280/763/191
f 286/761/191 280/763/191 282/764/191
f 288/765/192 293/766/192 294/767/192
f 288/765/192 294/767/192 289/768/192
f 291/769/193 287/770/193 290/771/193
f 291/769/193 290/771/193 292/772/193
f 287/773/194 288/774/194 289/775/194
f 287/773/194 289/775/194 290/776/194
f 293/777/195 291/778/195 292/779/195
f 293/777/195 292/779/195 294/780/195