# Made by Pabilo8 with Blockbench
# Exported with IIToolkit Plugin
mtllib guided_missile_launcher.mtl


o style
v 0.625 -2.5625 2.1875
v 1.375 -2.5625 0.5625
v 1.4375 -1.8125 0.75
v 1.4375 -1.8125 0.5625
v 1.375 -1.8125 0.75
v 1.375 -1.8125 0.5625
v 1.4375 -1.8125 2.4375
v 1.4375 -1.8125 2.25
v 1.375 -1.8125 2.4375
v 1.375 -1.8125 2.25
v 0.75 -1.8125 0.75
v 0.75 -1.8125 0.5625
v 0.6875 -1.8125 0.75
v 0.6875 -1.8125 0.5625
v 0.75 -1.8125 1.5625
v 0.75 -1.8125 1.375
v 0.6875 -1.8125 1.5625
v 0.6875 -1.8125 1.375
v 0.75 -1.8125 2.4375
v 0.75 -1.8125 2.25
v 0.6875 -1.8125 2.4375
v 0.6875 -1.8125 2.25
v 1.375 -1.8125 0.625
v 0.75 -1.8125 0.625
v 0.75 -2.5625 0.5625
v 1.0625 -1.8125 0.625
v 1.0625 -1.8125 0.5625
v 1.0625 -2.5625 0.5625
v 0.875 -1.9375 0.5625
v 0.875 -1.9375 0.5
v 0.875 -2.1875 0.5625
v 0.875 -2.1875 0.5
v 0.625 -1.9375 0.5625
v 0.625 -1.9375 0.5
v 0.625 -2.1875 0.5625
v 0.625 -2.1875 0.5
v 1.125 -2.3125 0.5625
v 1.125 -2.3125 0.5
v 1.125 -2.5625 0.5625
v 1.125 -2.5625 0.5
v 0.6875 -2.3125 0.5625
v 0.6875 -2.3125 0.5
v 0.6875 -2.5625 0.5625
v 0.6875 -2.5625 0.5
v 1.4375 -2.0625 0.5625
v 1.4375 -2.0625 0.5
v 1.4375 -2.3125 0.5625
v 1.4375 -2.3125 0.5
v 1 -2.0625 0.5625
v 1 -2.0625 0.5
v 1 -2.3125 0.5625
v 1 -2.3125 0.5
v 1.5 -1.8125 0.5625
v 1.5 -1.8125 0.5
v 1.5 -2.0625 0.5625
v 1.5 -2.0625 0.5
v 1.25 -1.8125 0.5625
v 1.25 -1.8125 0.5
v 1.25 -2.0625 0.5625
v 1.25 -2.0625 0.5
v 0.625 -1.8125 2.4375
v 0.625 -1.8125 2.5
v 0.625 -2.0625 2.4375
v 0.625 -2.0625 2.5
v 0.875 -1.8125 2.4375
v 0.875 -1.8125 2.5
v 0.875 -2.0625 2.4375
v 0.875 -2.0625 2.5
v 0.6875 -2.0625 2.4375
v 0.6875 -2.0625 2.5
v 0.6875 -2.3125 2.4375
v 0.6875 -2.3125 2.5
v 1.125 -2.0625 2.4375
v 1.125 -2.0625 2.5
v 1.125 -2.3125 2.4375
v 1.125 -2.3125 2.5
v 1.0625 -2.3125 2.4375
v 1.0625 -2.3125 2.5
v 1.0625 -2.5625 2.4375
v 1.0625 -2.5625 2.5
v 1.5 -2.3125 2.4375
v 1.5 -2.3125 2.5
v 1.5 -2.5625 2.4375
v 1.5 -2.5625 2.5
v 1.25 -1.9375 2.4375
v 1.25 -1.9375 2.5
v 1.25 -2.1875 2.4375
v 1.25 -2.1875 2.5
v 1.5 -1.9375 2.4375
v 1.5 -1.9375 2.5
v 1.5 -2.1875 2.4375
v 1.5 -2.1875 2.5
v 0.75 -1.8125 2.375
v 0.75 -2.5625 2.4375
v 1.375 -1.8125 2.375
v 1.375 -2.5625 2.4375
v 1.0625 -1.8125 2.375
v 1.0625 -1.8125 2.4375
v 1.5 -1.8125 2.25
v 1.5 -1.8125 1.8125
v 1.5 -2.0625 2.25
v 1.5 -2.0625 1.8125
v 1.4375 -1.8125 1.8125
v 1.4375 -2.0625 2.25
v 1.4375 -2.0625 1.8125
v 1.5 -1.9375 2.25
v 1.5 -2.1875 2.25
v 1.4375 -1.9375 2.4375
v 1.4375 -1.9375 2.25
v 1.4375 -2.1875 2.4375
v 1.4375 -2.1875 2.25
v 1.5 -2.0625 2.0625
v 1.5 -2.0625 1.625
v 1.5 -2.3125 2.0625
v 1.5 -2.3125 1.625
v 1.4375 -2.0625 2.0625
v 1.4375 -2.0625 1.625
v 1.4375 -2.3125 2.0625
v 1.4375 -2.3125 1.625
v 1.5 -2.3125 2
v 1.5 -2.5625 2
v 1.4375 -2.3125 2.4375
v 1.4375 -2.3125 2
v 1.4375 -2.5625 2.4375
v 1.4375 -2.5625 2
v 1.5 -2.1875 1.625
v 1.5 -2.1875 1.375
v 1.5 -2.4375 1.625
v 1.5 -2.4375 1.375
v 1.4375 -2.1875 1.625
v 1.4375 -2.1875 1.375
v 1.4375 -2.4375 1.625
v 1.4375 -2.4375 1.375
v 1.5 -2.3125 1.75
v 1.5 -2.5625 1.75
v 1.4375 -2.3125 1.75
v 1.4375 -2.5625 1.75
v 1.5 -2.3125 1.375
v 1.5 -2.3125 0.9375
v 1.5 -2.5625 1.375
v 1.5 -2.5625 0.9375
v 1.4375 -2.3125 1.375
v 1.4375 -2.3125 0.9375
v 1.4375 -2.5625 1.375
v 1.4375 -2.5625 0.9375
v 1.5 -2.3125 0.8125
v 1.5 -2.3125 0.5625
v 1.5 -2.5625 0.8125
v 1.5 -2.5625 0.5625
v 1.4375 -2.3125 0.8125
v 1.4375 -2.5625 0.8125
v 1.4375 -2.5625 0.5625
v 1.5 -2.0625 1.25
v 1.5 -2.0625 0.8125
v 1.5 -2.3125 1.25
v 1.4375 -2.0625 1.25
v 1.4375 -2.0625 0.8125
v 1.4375 -2.3125 1.25
v 1.5 -1.8125 0.8125
v 1.4375 -1.8125 0.8125
v 1.5 -1.8125 1.625
v 1.5 -1.8125 1.1875
v 1.5 -2.0625 1.1875
v 1.4375 -1.8125 1.625
v 1.4375 -1.8125 1.1875
v 1.4375 -2.0625 1.1875
v 1.375 -1.8125 1.5
v 1.4375 -1.8125 1.5
v 1.4375 -2.5625 1.5
v 0.6875 -2.5625 2.4375
v 0.75 -1.8125 1.5
v 0.6875 -1.8125 1.5
v 0.6875 -2.5625 1.5
v 0.625 -1.8125 0.75
v 0.625 -1.8125 1.1875
v 0.625 -2.0625 0.75
v 0.625 -2.0625 1.1875
v 0.6875 -1.8125 1.1875
v 0.6875 -2.0625 0.75
v 0.6875 -2.0625 1.1875
v 0.625 -1.9375 0.75
v 0.625 -2.1875 0.75
v 0.6875 -1.9375 0.5625
v 0.6875 -1.9375 0.75
v 0.6875 -2.1875 0.5625
v 0.6875 -2.1875 0.75
v 0.625 -2.0625 0.9375
v 0.625 -2.0625 1.375
v 0.625 -2.3125 0.9375
v 0.625 -2.3125 1.375
v 0.6875 -2.0625 0.9375
v 0.6875 -2.0625 1.375
v 0.6875 -2.3125 0.9375
v 0.6875 -2.3125 1.375
v 0.625 -2.1875 1.375
v 0.625 -2.1875 1.625
v 0.625 -2.4375 1.375
v 0.625 -2.4375 1.625
v 0.6875 -2.1875 1.375
v 0.6875 -2.1875 1.625
v 0.6875 -2.4375 1.375
v 0.6875 -2.4375 1.625
v 0.625 -2.3125 1
v 0.625 -2.3125 1.25
v 0.625 -2.5625 1
v 0.625 -2.5625 1.25
v 0.6875 -2.3125 1
v 0.6875 -2.3125 1.25
v 0.6875 -2.5625 1
v 0.6875 -2.5625 1.25
v 0.625 -2.3125 1.625
v 0.625 -2.3125 2.0625
v 0.625 -2.5625 1.625
v 0.625 -2.5625 2.0625
v 0.6875 -2.3125 1.625
v 0.6875 -2.3125 2.0625
v 0.6875 -2.5625 1.625
v 0.6875 -2.5625 2.0625
v 0.625 -2.3125 2.1875
v 0.625 -2.3125 2.4375
v 0.625 -2.5625 2.4375
v 0.6875 -2.3125 2.1875
v 0.6875 -2.5625 2.1875
v 0.625 -2.0625 1.75
v 0.625 -2.0625 2.1875
v 0.625 -2.3125 1.75
v 0.6875 -2.0625 1.75
v 0.6875 -2.0625 2.1875
v 0.6875 -2.3125 1.75
v 0.625 -1.8125 2.1875
v 0.6875 -1.8125 2.1875
v 0.625 -1.8125 1.375
v 0.625 -1.8125 1.8125
v 0.625 -2.0625 1.8125
v 0.6875 -1.8125 1.8125
v 0.6875 -2.0625 1.8125
vt 0.015625 0.953125
vt 0.015625 1
vt 0 1
vt 0 0.953125
vt 0.015625 0.953125
vt 0.015625 1
vt 0 1
vt 0 0.953125
vt 0.015625 0.953125
vt 0.015625 1
vt 0 1
vt 0 0.953125
vt 0.015625 0.953125
vt 0.015625 1
vt 0 1
vt 0 0.953125
vt 0.015625 0.953125
vt 0.015625 1
vt 0 1
vt 0 0.953125
vt 0.09375 0.171875
vt 0.171875 0.171875
vt 0.171875 0.1875
vt 0.09375 0.1875
vt 0.25 0.1875
vt 0.171875 0.1875
vt 0.171875 0
vt 0.25 0
vt 0.25 0.1875
vt 0.171875 0.1875
vt 0.171875 0.171875
vt 0.25 0.171875
vt 0.09375 0
vt 0.171875 0
vt 0.171875 0.1875
vt 0.09375 0.1875
vt 0.078125 0.0625
vt 0.078125 0.125
vt 0.0625 0.125
vt 0.0625 0.0625
vt 0.125 0.109375
vt 0.125 0.125
vt 0.0625 0.125
vt 0.0625 0.109375
vt 0.125 0.109375
vt 0.125 0.125
vt 0.0625 0.125
vt 0.0625 0.109375
vt 0.125 0.0625
vt 0.125 0.125
vt 0.0625 0.125
vt 0.0625 0.0625
vt 0.515625 0.0625
vt 0.515625 0.125
vt 0.5 0.125
vt 0.5 0.0625
vt 0.515625 0.0625
vt 0.515625 0.125
vt 0.5 0.125
vt 0.5 0.0625
vt 0.609375 0.109375
vt 0.609375 0.125
vt 0.5 0.125
vt 0.5 0.109375
vt 0.609375 0.0625
vt 0.609375 0.125
vt 0.5 0.125
vt 0.5 0.0625
vt 0.515625 0
vt 0.515625 0.0625
vt 0.5 0.0625
vt 0.5 0
vt 0.515625 0
vt 0.515625 0.0625
vt 0.5 0.0625
vt 0.5 0
vt 0.609375 0.046875
vt 0.609375 0.0625
vt 0.5 0.0625
vt 0.5 0.046875
vt 0.609375 0.046875
vt 0.609375 0.0625
vt 0.5 0.0625
vt 0.5 0.046875
vt 0.609375 0
vt 0.609375 0.0625
vt 0.5 0.0625
vt 0.5 0
vt 0.53125 0.0625
vt 0.53125 0.125
vt 0.515625 0.125
vt 0.515625 0.0625
vt 0.53125 0.0625
vt 0.53125 0.125
vt 0.515625 0.125
vt 0.515625 0.0625
vt 0.578125 0.109375
vt 0.578125 0.125
vt 0.515625 0.125
vt 0.515625 0.109375
vt 0.578125 0.109375
vt 0.578125 0.125
vt 0.515625 0.125
vt 0.515625 0.109375
vt 0.578125 0.0625
vt 0.578125 0.125
vt 0.515625 0.125
vt 0.515625 0.0625
vt 0.53125 0.0625
vt 0.53125 0.125
vt 0.515625 0.125
vt 0.515625 0.0625
vt 0.578125 0.109375
vt 0.578125 0.125
vt 0.515625 0.125
vt 0.515625 0.109375
vt 0.578125 0.109375
vt 0.578125 0.125
vt 0.515625 0.125
vt 0.515625 0.109375
vt 0.578125 0.0625
vt 0.578125 0.125
vt 0.515625 0.125
vt 0.515625 0.0625
vt 0.515625 0
vt 0.515625 0.0625
vt 0.5 0.0625
vt 0.5 0
vt 0.515625 0
vt 0.515625 0.0625
vt 0.5 0.0625
vt 0.5 0
vt 0.609375 0.046875
vt 0.609375 0.0625
vt 0.5 0.0625
vt 0.5 0.046875
vt 0.609375 0.046875
vt 0.609375 0.0625
vt 0.5 0.0625
vt 0.5 0.046875
vt 0.609375 0
vt 0.609375 0.0625
vt 0.5 0.0625
vt 0.5 0
vt 0.515625 0.0625
vt 0.515625 0.125
vt 0.5 0.125
vt 0.5 0.0625
vt 0.515625 0.0625
vt 0.515625 0.125
vt 0.5 0.125
vt 0.5 0.0625
vt 0.609375 0.109375
vt 0.609375 0.125
vt 0.5 0.125
vt 0.5 0.109375
vt 0.609375 0.0625
vt 0.609375 0.125
vt 0.5 0.125
vt 0.5 0.0625
vt 0.078125 0.0625
vt 0.078125 0.125
vt 0.0625 0.125
vt 0.0625 0.0625
vt 0.078125 0.0625
vt 0.078125 0.125
vt 0.0625 0.125
vt 0.0625 0.0625
vt 0.125 0.109375
vt 0.125 0.125
vt 0.0625 0.125
vt 0.0625 0.109375
vt 0.125 0.109375
vt 0.125 0.125
vt 0.0625 0.125
vt 0.0625 0.109375
vt 0.125 0.0625
vt 0.125 0.125
vt 0.0625 0.125
vt 0.0625 0.0625
vt 0.09375 0.171875
vt 0.171875 0.171875
vt 0.171875 0.1875
vt 0.09375 0.1875
vt 0.25 0.1875
vt 0.171875 0.1875
vt 0.171875 0
vt 0.25 0
vt 0.25 0.1875
vt 0.171875 0.1875
vt 0.171875 0.171875
vt 0.25 0.171875
vt 0.09375 0
vt 0.171875 0
vt 0.171875 0.1875
vt 0.09375 0.1875
vt 0.625 0
vt 0.625 0.0625
vt 0.515625 0.0625
vt 0.515625 0
vt 0.625 0.0625
vt 0.515625 0.0625
vt 0.515625 0.046875
vt 0.625 0.046875
vt 0.53125 0
vt 0.53125 0.0625
vt 0.515625 0.0625
vt 0.515625 0
vt 0.53125 0
vt 0.53125 0.0625
vt 0.515625 0.0625
vt 0.515625 0
vt 0.546875 0.125
vt 0.546875 0.1875
vt 0.5 0.1875
vt 0.5 0.125
vt 0.515625 0.140625
vt 0.515625 0.1875
vt 0.5 0.1875
vt 0.5 0.140625
vt 0.515625 0.140625
vt 0.515625 0.1875
vt 0.5 0.1875
vt 0.5 0.140625
vt 0.515625 0.125
vt 0.515625 0.1875
vt 0.5 0.1875
vt 0.5 0.125
vt 0.515625 0.125
vt 0.515625 0.1875
vt 0.5 0.1875
vt 0.5 0.125
vt 0.125 0.0625
vt 0.125 0.125
vt 0.015625 0.125
vt 0.015625 0.0625
vt 0.125 0.125
vt 0.015625 0.125
vt 0.015625 0.109375
vt 0.125 0.109375
vt 0.125 0.125
vt 0.015625 0.125
vt 0.015625 0.109375
vt 0.125 0.109375
vt 0.03125 0.0625
vt 0.03125 0.125
vt 0.015625 0.125
vt 0.015625 0.0625
vt 0.03125 0.0625
vt 0.03125 0.125
vt 0.015625 0.125
vt 0.015625 0.0625
vt 0.609375 0.0625
vt 0.609375 0.125
vt 0.5 0.125
vt 0.5 0.0625
vt 0.609375 0.125
vt 0.5 0.125
vt 0.5 0.109375
vt 0.609375 0.109375
vt 0.515625 0.0625
vt 0.515625 0.125
vt 0.5 0.125
vt 0.5 0.0625
vt 0.640625 0.125
vt 0.640625 0.1875
vt 0.578125 0.1875
vt 0.578125 0.125
vt 0.59375 0.125
vt 0.59375 0.1875
vt 0.578125 0.1875
vt 0.578125 0.125
vt 0.59375 0.125
vt 0.59375 0.1875
vt 0.578125 0.1875
vt 0.578125 0.125
vt 0.59375 0.125
vt 0.59375 0.1875
vt 0.578125 0.1875
vt 0.578125 0.125
vt 0.59375 0.125
vt 0.59375 0.1875
vt 0.578125 0.1875
vt 0.578125 0.125
vt 0.59375 0.125
vt 0.59375 0.1875
vt 0.53125 0.1875
vt 0.53125 0.125
vt 0.546875 0.125
vt 0.546875 0.1875
vt 0.53125 0.1875
vt 0.53125 0.125
vt 0.546875 0.125
vt 0.546875 0.1875
vt 0.53125 0.1875
vt 0.53125 0.125
vt 0.546875 0.125
vt 0.546875 0.1875
vt 0.53125 0.1875
vt 0.53125 0.125
vt 0.640625 0
vt 0.640625 0.0625
vt 0.53125 0.0625
vt 0.53125 0
vt 0.640625 0.0625
vt 0.53125 0.0625
vt 0.53125 0.046875
vt 0.640625 0.046875
vt 0.546875 0
vt 0.546875 0.0625
vt 0.53125 0.0625
vt 0.53125 0
vt 0.546875 0
vt 0.546875 0.0625
vt 0.53125 0.0625
vt 0.53125 0
vt 0.59375 0.0625
vt 0.59375 0.125
vt 0.53125 0.125
vt 0.53125 0.0625
vt 0.546875 0.0625
vt 0.546875 0.125
vt 0.53125 0.125
vt 0.53125 0.0625
vt 0.546875 0.0625
vt 0.546875 0.125
vt 0.53125 0.125
vt 0.53125 0.0625
vt 0.546875 0.0625
vt 0.546875 0.125
vt 0.53125 0.125
vt 0.53125 0.0625
vt 0.640625 0.125
vt 0.640625 0.1875
vt 0.53125 0.1875
vt 0.53125 0.125
vt 0.640625 0.1875
vt 0.53125 0.1875
vt 0.53125 0.171875
vt 0.640625 0.171875
vt 0.640625 0.1875
vt 0.53125 0.1875
vt 0.53125 0.171875
vt 0.640625 0.171875
vt 0.546875 0.125
vt 0.546875 0.1875
vt 0.53125 0.1875
vt 0.53125 0.125
vt 0.546875 0.125
vt 0.546875 0.1875
vt 0.53125 0.1875
vt 0.53125 0.125
vt 0.5625 0
vt 0.5625 0.0625
vt 0.5 0.0625
vt 0.5 0
vt 0.515625 0
vt 0.515625 0.0625
vt 0.5 0.0625
vt 0.5 0
vt 0.515625 0
vt 0.515625 0.0625
vt 0.5 0.0625
vt 0.5 0
vt 0.515625 0
vt 0.515625 0.0625
vt 0.5 0.0625
vt 0.5 0
vt 0.515625 0
vt 0.515625 0.0625
vt 0.5 0.0625
vt 0.5 0
vt 0.609375 0.0625
vt 0.609375 0.125
vt 0.5 0.125
vt 0.5 0.0625
vt 0.609375 0.125
vt 0.5 0.125
vt 0.5 0.109375
vt 0.609375 0.109375
vt 0.609375 0.125
vt 0.5 0.125
vt 0.5 0.109375
vt 0.609375 0.109375
vt 0.515625 0.0625
vt 0.515625 0.125
vt 0.5 0.125
vt 0.5 0.0625
vt 0.515625 0.0625
vt 0.515625 0.125
vt 0.5 0.125
vt 0.5 0.0625
vt 0.46875 0.1875
vt 0.234375 0.1875
vt 0.234375 0
vt 0.46875 0
vt 0 0.171875
vt 0.234375 0.171875
vt 0.234375 0.1875
vt 0 0.1875
vt 0.015625 0
vt 0.015625 0.1875
vt 0 0.1875
vt 0 0
vt 0.46875 0
vt 0.46875 0.1875
vt 0.453125 0.1875
vt 0.453125 0
vt 0.46875 0.1875
vt 0.234375 0.1875
vt 0.234375 0.171875
vt 0.46875 0.171875
vt 0 0
vt 0.234375 0
vt 0.234375 0.1875
vt 0 0.1875
vt 0.625 0.0625
vt 0.515625 0.0625
vt 0.515625 0.046875
vt 0.625 0.046875
vt 0.46875 0.1875
vt 0.234375 0.1875
vt 0.234375 0
vt 0.46875 0
vt 0 0.171875
vt 0.234375 0.171875
vt 0.234375 0.1875
vt 0 0.1875
vt 0.015625 0
vt 0.015625 0.1875
vt 0 0.1875
vt 0 0
vt 0.46875 0
vt 0.46875 0.1875
vt 0.453125 0.1875
vt 0.453125 0
vt 0.46875 0.1875
vt 0.234375 0.1875
vt 0.234375 0.171875
vt 0.46875 0.171875
vt 0 0
vt 0.234375 0
vt 0.234375 0.1875
vt 0 0.1875
vt 0.625 0.0625
vt 0.515625 0.0625
vt 0.515625 0.046875
vt 0.625 0.046875
vt 0.625 0.0625
vt 0.515625 0.0625
vt 0.515625 0.046875
vt 0.625 0.046875
vt 0.53125 0
vt 0.53125 0.0625
vt 0.515625 0.0625
vt 0.515625 0
vt 0.53125 0
vt 0.53125 0.0625
vt 0.515625 0.0625
vt 0.515625 0
vt 0.515625 0.140625
vt 0.515625 0.1875
vt 0.5 0.1875
vt 0.5 0.140625
vt 0.515625 0.140625
vt 0.515625 0.1875
vt 0.5 0.1875
vt 0.5 0.140625
vt 0.515625 0.125
vt 0.515625 0.1875
vt 0.5 0.1875
vt 0.5 0.125
vt 0.515625 0.125
vt 0.515625 0.1875
vt 0.5 0.1875
vt 0.5 0.125
vt 0.125 0.125
vt 0.015625 0.125
vt 0.015625 0.109375
vt 0.125 0.109375
vt 0.125 0.125
vt 0.015625 0.125
vt 0.015625 0.109375
vt 0.125 0.109375
vt 0.03125 0.0625
vt 0.03125 0.125
vt 0.015625 0.125
vt 0.015625 0.0625
vt 0.03125 0.0625
vt 0.03125 0.125
vt 0.015625 0.125
vt 0.015625 0.0625
vt 0.59375 0.125
vt 0.59375 0.1875
vt 0.578125 0.1875
vt 0.578125 0.125
vt 0.59375 0.125
vt 0.59375 0.1875
vt 0.578125 0.1875
vt 0.578125 0.125
vt 0.59375 0.125
vt 0.59375 0.1875
vt 0.578125 0.1875
vt 0.578125 0.125
vt 0.59375 0.125
vt 0.59375 0.1875
vt 0.578125 0.1875
vt 0.578125 0.125
vt 0.546875 0.125
vt 0.546875 0.1875
vt 0.53125 0.1875
vt 0.53125 0.125
vt 0.546875 0.125
vt 0.546875 0.1875
vt 0.53125 0.1875
vt 0.53125 0.125
vt 0.546875 0.125
vt 0.546875 0.1875
vt 0.53125 0.1875
vt 0.53125 0.125
vt 0.640625 0.0625
vt 0.53125 0.0625
vt 0.53125 0.046875
vt 0.640625 0.046875
vt 0.546875 0
vt 0.546875 0.0625
vt 0.53125 0.0625
vt 0.53125 0
vt 0.546875 0
vt 0.546875 0.0625
vt 0.53125 0.0625
vt 0.53125 0
vt 0.546875 0.0625
vt 0.546875 0.125
vt 0.53125 0.125
vt 0.53125 0.0625
vt 0.546875 0.0625
vt 0.546875 0.125
vt 0.53125 0.125
vt 0.53125 0.0625
vt 0.546875 0.0625
vt 0.546875 0.125
vt 0.53125 0.125
vt 0.53125 0.0625
vt 0.640625 0.1875
vt 0.53125 0.1875
vt 0.53125 0.171875
vt 0.640625 0.171875
vt 0.640625 0.1875
vt 0.53125 0.1875
vt 0.53125 0.171875
vt 0.640625 0.171875
vt 0.546875 0.125
vt 0.546875 0.1875
vt 0.53125 0.1875
vt 0.53125 0.125
vt 0.546875 0.125
vt 0.546875 0.1875
vt 0.53125 0.1875
vt 0.53125 0.125
vt 0.515625 0
vt 0.515625 0.0625
vt 0.5 0.0625
vt 0.5 0
vt 0.515625 0
vt 0.515625 0.0625
vt 0.5 0.0625
vt 0.5 0
vt 0.515625 0
vt 0.515625 0.0625
vt 0.5 0.0625
vt 0.5 0
vt 0.515625 0
vt 0.515625 0.0625
vt 0.5 0.0625
vt 0.5 0
vt 0.609375 0.125
vt 0.5 0.125
vt 0.5 0.109375
vt 0.609375 0.109375
vt 0.609375 0.125
vt 0.5 0.125
vt 0.5 0.109375
vt 0.609375 0.109375
vt 0.515625 0.0625
vt 0.515625 0.125
vt 0.5 0.125
vt 0.5 0.0625
vt 0.515625 0.0625
vt 0.515625 0.125
vt 0.5 0.125
vt 0.5 0.0625
vn 0 -1 0
vn 0 -1 0
vn 0 -1 0
vn 0 -1 0
vn 0 -1 0
vn 0 1 0
vn 0 0 -1
vn 0 1 0
vn 0 0 -1
vn 1 0 0
vn 0 1 0
vn 0 -1 0
vn 0 0 -1
vn 1 0 0
vn -1 0 0
vn 0 1 0
vn 0 0 -1
vn 1 0 0
vn -1 0 0
vn 0 1 0
vn 0 -1 0
vn 0 0 -1
vn 1 0 0
vn -1 0 0
vn 0 1 0
vn 0 -1 0
vn 0 0 -1
vn 1 0 0
vn 0 1 0
vn 0 -1 0
vn 0 0 1
vn -1 0 0
vn 1 0 0
vn 0 1 0
vn 0 -1 0
vn 0 0 1
vn -1 0 0
vn 1 0 0
vn 0 1 0
vn 0 0 1
vn -1 0 0
vn 1 0 0
vn 0 1 0
vn 0 -1 0
vn 0 0 1
vn 0 1 0
vn 0 0 1
vn 0 1 0
vn 0 0 1
vn 1 0 0
vn 0 -1 0
vn 0 0 1
vn 0 0 -1
vn 1 0 0
vn 0 1 0
vn 0 -1 0
vn 0 0 1
vn 0 0 -1
vn 1 0 0
vn 0 1 0
vn 0 -1 0
vn 0 0 1
vn 0 0 -1
vn 1 0 0
vn 0 1 0
vn 0 0 1
vn 1 0 0
vn 0 1 0
vn 0 -1 0
vn 0 0 1
vn 0 0 -1
vn 1 0 0
vn 0 1 0
vn 0 0 1
vn 0 0 -1
vn 1 0 0
vn 0 1 0
vn 0 0 1
vn 0 0 -1
vn 1 0 0
vn 0 1 0
vn 0 0 1
vn 0 0 -1
vn 1 0 0
vn 0 1 0
vn 0 -1 0
vn 0 0 1
vn 0 0 -1
vn 1 0 0
vn 0 1 0
vn 0 -1 0
vn 0 0 1
vn 0 0 -1
vn 1 0 0
vn 0 1 0
vn 0 -1 0
vn 0 0 1
vn 0 0 -1
vn 1 0 0
vn 0 1 0
vn 0 0 1
vn 0 0 -1
vn 0 1 0
vn 1 0 0
vn 0 1 0
vn -1 0 0
vn 0 1 0
vn 0 0 -1
vn 0 0 1
vn 0 1 0
vn -1 0 0
vn 0 1 0
vn 0 -1 0
vn 0 0 -1
vn 0 0 1
vn 0 1 0
vn 0 -1 0
vn 0 0 -1
vn 0 0 1
vn 0 1 0
vn 0 -1 0
vn 0 0 -1
vn 0 0 1
vn 0 1 0
vn 0 -1 0
vn 0 0 -1
vn 0 0 1
vn 0 1 0
vn 0 0 -1
vn 0 0 1
vn 0 1 0
vn 0 0 -1
vn 0 0 1
vn 0 1 0
vn 0 0 -1
vn 0 0 1
vn 0 1 0
vn 0 -1 0
vn 0 0 -1
vn 0 0 1
vn 0 1 0
vn 0 -1 0
vn 0 0 -1
vn 0 0 1
vn 0 1 0
vn 0 -1 0
vn 0 0 -1
vn 0 0 1
usemtl common_bottom
f 4/1/1 3/2/1 5/3/1
f 4/1/1 5/3/1 6/4/1
f 8/5/2 7/6/2 9/7/2
f 8/5/2 9/7/2 10/8/2
f 12/9/3 11/10/3 13/11/3
f 12/9/3 13/11/3 14/12/3
f 16/13/4 15/14/4 17/15/4
f 16/13/4 17/15/4 18/16/4
f 20/17/5 19/18/5 21/19/5
f 20/17/5 21/19/5 22/20/5
usemtl weapon_guided_missile
f 24/21/6 26/22/6 27/23/6
f 24/21/6 27/23/6 12/24/6
f 12/25/7 27/26/7 28/27/7
f 12/25/7 28/27/7 25/28/7
f 6/29/8 27/30/8 26/31/8
f 6/29/8 26/31/8 23/32/8
f 2/33/9 28/34/9 27/35/9
f 2/33/9 27/35/9 6/36/9
f 32/37/10 30/38/10 29/39/10
f 32/37/10 29/39/10 31/40/10
f 29/41/11 30/42/11 34/43/11
f 29/41/11 34/43/11 33/44/11
f 32/45/12 31/46/12 35/47/12
f 32/45/12 35/47/12 36/48/12
f 36/49/13 34/50/13 30/51/13
f 36/49/13 30/51/13 32/52/13
f 40/53/14 38/54/14 37/55/14
f 40/53/14 37/55/14 39/56/14
f 43/57/15 41/58/15 42/59/15
f 43/57/15 42/59/15 44/60/15
f 37/61/16 38/62/16 42/63/16
f 37/61/16 42/63/16 41/64/16
f 44/65/17 42/66/17 38/67/17
f 44/65/17 38/67/17 40/68/17
f 48/69/18 46/70/18 45/71/18
f 48/69/18 45/71/18 47/72/18
f 51/73/19 49/74/19 50/75/19
f 51/73/19 50/75/19 52/76/19
f 45/77/20 46/78/20 50/79/20
f 45/77/20 50/79/20 49/80/20
f 48/81/21 47/82/21 51/83/21
f 48/81/21 51/83/21 52/84/21
f 52/85/22 50/86/22 46/87/22
f 52/85/22 46/87/22 48/88/22
f 56/89/23 54/90/23 53/91/23
f 56/89/23 53/91/23 55/92/23
f 59/93/24 57/94/24 58/95/24
f 59/93/24 58/95/24 60/96/24
f 53/97/25 54/98/25 58/99/25
f 53/97/25 58/99/25 57/100/25
f 56/101/26 55/102/26 59/103/26
f 56/101/26 59/103/26 60/104/26
f 60/105/27 58/106/27 54/107/27
f 60/105/27 54/107/27 56/108/27
f 67/109/28 65/110/28 66/111/28
f 67/109/28 66/111/28 68/112/28
f 61/113/29 62/114/29 66/115/29
f 61/113/29 66/115/29 65/116/29
f 64/117/30 63/118/30 67/119/30
f 64/117/30 67/119/30 68/120/30
f 68/121/31 66/122/31 62/123/31
f 68/121/31 62/123/31 64/124/31
f 72/125/32 70/126/32 69/127/32
f 72/125/32 69/127/32 71/128/32
f 75/129/33 73/130/33 74/131/33
f 75/129/33 74/131/33 76/132/33
f 69/133/34 70/134/34 74/135/34
f 69/133/34 74/135/34 73/136/34
f 72/137/35 71/138/35 75/139/35
f 72/137/35 75/139/35 76/140/35
f 76/141/36 74/142/36 70/143/36
f 76/141/36 70/143/36 72/144/36
f 80/145/37 78/146/37 77/147/37
f 80/145/37 77/147/37 79/148/37
f 83/149/38 81/150/38 82/151/38
f 83/149/38 82/151/38 84/152/38
f 77/153/39 78/154/39 82/155/39
f 77/153/39 82/155/39 81/156/39
f 84/157/40 82/158/40 78/159/40
f 84/157/40 78/159/40 80/160/40
f 88/161/41 86/162/41 85/163/41
f 88/161/41 85/163/41 87/164/41
f 91/165/42 89/166/42 90/167/42
f 91/165/42 90/167/42 92/168/42
f 85/169/43 86/170/43 90/171/43
f 85/169/43 90/171/43 89/172/43
f 88/173/44 87/174/44 91/175/44
f 88/173/44 91/175/44 92/176/44
f 92/177/45 90/178/45 86/179/45
f 92/177/45 86/179/45 88/180/45
f 95/181/46 97/182/46 98/183/46
f 95/181/46 98/183/46 9/184/46
f 9/185/47 98/186/47 79/187/47
f 9/185/47 79/187/47 96/188/47
f 19/189/48 98/190/48 97/191/48
f 19/189/48 97/191/48 93/192/48
f 94/193/49 79/194/49 98/195/49
f 94/193/49 98/195/49 19/196/49
f 102/197/50 100/198/50 99/199/50
f 102/197/50 99/199/50 101/200/50
f 102/201/51 101/202/51 104/203/51
f 102/201/51 104/203/51 105/204/51
f 101/205/52 99/206/52 8/207/52
f 101/205/52 8/207/52 104/208/52
f 105/209/53 103/210/53 100/211/53
f 105/209/53 100/211/53 102/212/53
f 107/213/54 106/214/54 89/215/54
f 107/213/54 89/215/54 91/216/54
f 89/217/55 106/218/55 109/219/55
f 89/217/55 109/219/55 108/220/55
f 107/221/56 91/222/56 110/223/56
f 107/221/56 110/223/56 111/224/56
f 91/225/57 89/226/57 108/227/57
f 91/225/57 108/227/57 110/228/57
f 111/229/58 109/230/58 106/231/58
f 111/229/58 106/231/58 107/232/58
f 115/233/59 113/234/59 112/235/59
f 115/233/59 112/235/59 114/236/59
f 112/237/60 113/238/60 117/239/60
f 112/237/60 117/239/60 116/240/60
f 115/241/61 114/242/61 118/243/61
f 115/241/61 118/243/61 119/244/61
f 114/245/62 112/246/62 116/247/62
f 114/245/62 116/247/62 118/248/62
f 119/249/63 117/250/63 113/251/63
f 119/249/63 113/251/63 115/252/63
f 121/253/64 120/254/64 81/255/64
f 121/253/64 81/255/64 83/256/64
f 81/257/65 120/258/65 123/259/65
f 81/257/65 123/259/65 122/260/65
f 83/261/66 81/262/66 122/263/66
f 83/261/66 122/263/66 124/264/66
f 129/265/67 127/266/67 126/267/67
f 129/265/67 126/267/67 128/268/67
f 126/269/68 127/270/68 131/271/68
f 126/269/68 131/271/68 130/272/68
f 129/273/69 128/274/69 132/275/69
f 129/273/69 132/275/69 133/276/69
f 128/277/70 126/278/70 130/279/70
f 128/277/70 130/279/70 132/280/70
f 133/281/71 131/282/71 127/283/71
f 133/281/71 127/283/71 129/284/71
f 135/285/72 134/286/72 120/287/72
f 135/285/72 120/287/72 121/288/72
f 120/289/73 134/290/73 136/291/73
f 120/289/73 136/291/73 123/292/73
f 121/293/74 120/294/74 123/295/74
f 121/293/74 123/295/74 125/296/74
f 137/297/75 136/298/75 134/299/75
f 137/297/75 134/299/75 135/300/75
f 141/301/76 139/302/76 138/303/76
f 141/301/76 138/303/76 140/304/76
f 138/305/77 139/306/77 143/307/77
f 138/305/77 143/307/77 142/308/77
f 140/309/78 138/310/78 142/311/78
f 140/309/78 142/311/78 144/312/78
f 145/313/79 143/314/79 139/315/79
f 145/313/79 139/315/79 141/316/79
f 149/317/80 147/318/80 146/319/80
f 149/317/80 146/319/80 148/320/80
f 146/321/81 147/322/81 47/323/81
f 146/321/81 47/323/81 150/324/81
f 148/325/82 146/326/82 150/327/82
f 148/325/82 150/327/82 151/328/82
f 152/329/83 47/330/83 147/331/83
f 152/329/83 147/331/83 149/332/83
f 146/333/84 154/334/84 153/335/84
f 146/333/84 153/335/84 155/336/84
f 153/337/85 154/338/85 157/339/85
f 153/337/85 157/339/85 156/340/85
f 146/341/86 155/342/86 158/343/86
f 146/341/86 158/343/86 150/344/86
f 155/345/87 153/346/87 156/347/87
f 155/345/87 156/347/87 158/348/87
f 150/349/88 157/350/88 154/351/88
f 150/349/88 154/351/88 146/352/88
f 55/353/89 53/354/89 159/355/89
f 55/353/89 159/355/89 154/356/89
f 159/357/90 53/358/90 4/359/90
f 159/357/90 4/359/90 160/360/90
f 55/361/91 154/362/91 157/363/91
f 55/361/91 157/363/91 45/364/91
f 154/365/92 159/366/92 160/367/92
f 154/365/92 160/367/92 157/368/92
f 45/369/93 4/370/93 53/371/93
f 45/369/93 53/371/93 55/372/93
f 163/373/94 162/374/94 161/375/94
f 163/373/94 161/375/94 113/376/94
f 161/377/95 162/378/95 165/379/95
f 161/377/95 165/379/95 164/380/95
f 163/381/96 113/382/96 117/383/96
f 163/381/96 117/383/96 166/384/96
f 113/385/97 161/386/97 164/387/97
f 113/385/97 164/387/97 117/388/97
f 166/389/98 165/390/98 162/391/98
f 166/389/98 162/391/98 163/392/98
f 4/393/99 168/394/99 169/395/99
f 4/393/99 169/395/99 152/396/99
f 6/397/100 167/398/100 168/399/100
f 6/397/100 168/399/100 4/400/100
f 124/401/101 7/402/101 9/403/101
f 124/401/101 9/403/101 96/404/101
f 2/405/102 6/406/102 4/407/102
f 2/405/102 4/407/102 152/408/102
f 7/409/103 168/410/103 167/411/103
f 7/409/103 167/411/103 9/412/103
f 124/413/104 169/414/104 168/415/104
f 124/413/104 168/415/104 7/416/104
f 99/417/105 100/418/105 103/419/105
f 99/417/105 103/419/105 8/420/105
f 21/421/106 172/422/106 173/423/106
f 21/421/106 173/423/106 170/424/106
f 19/425/107 171/426/107 172/427/107
f 19/425/107 172/427/107 21/428/107
f 43/429/108 14/430/108 12/431/108
f 43/429/108 12/431/108 25/432/108
f 94/433/109 19/434/109 21/435/109
f 94/433/109 21/435/109 170/436/109
f 14/437/110 172/438/110 171/439/110
f 14/437/110 171/439/110 12/440/110
f 43/441/111 173/442/111 172/443/111
f 43/441/111 172/443/111 14/444/111
f 174/445/112 175/446/112 178/447/112
f 174/445/112 178/447/112 13/448/112
f 177/449/113 176/450/113 179/451/113
f 177/449/113 179/451/113 180/452/113
f 176/453/114 174/454/114 13/455/114
f 176/453/114 13/455/114 179/456/114
f 180/457/115 178/458/115 175/459/115
f 180/457/115 175/459/115 177/460/115
f 33/461/116 181/462/116 184/463/116
f 33/461/116 184/463/116 183/464/116
f 182/465/117 35/466/117 185/467/117
f 182/465/117 185/467/117 186/468/117
f 35/469/118 33/470/118 183/471/118
f 35/469/118 183/471/118 185/472/118
f 186/473/119 184/474/119 181/475/119
f 186/473/119 181/475/119 182/476/119
f 187/477/120 188/478/120 192/479/120
f 187/477/120 192/479/120 191/480/120
f 190/481/121 189/482/121 193/483/121
f 190/481/121 193/483/121 194/484/121
f 189/485/122 187/486/122 191/487/122
f 189/485/122 191/487/122 193/488/122
f 194/489/123 192/490/123 188/491/123
f 194/489/123 188/491/123 190/492/123
f 195/493/124 196/494/124 200/495/124
f 195/493/124 200/495/124 199/496/124
f 198/497/125 197/498/125 201/499/125
f 198/497/125 201/499/125 202/500/125
f 197/501/126 195/502/126 199/503/126
f 197/501/126 199/503/126 201/504/126
f 202/505/127 200/506/127 196/507/127
f 202/505/127 196/507/127 198/508/127
f 203/509/128 204/510/128 208/511/128
f 203/509/128 208/511/128 207/512/128
f 205/513/129 203/514/129 207/515/129
f 205/513/129 207/515/129 209/516/129
f 210/517/130 208/518/130 204/519/130
f 210/517/130 204/519/130 206/520/130
f 211/521/131 212/522/131 216/523/131
f 211/521/131 216/523/131 215/524/131
f 213/525/132 211/526/132 215/527/132
f 213/525/132 215/527/132 217/528/132
f 218/529/133 216/530/133 212/531/133
f 218/529/133 212/531/133 214/532/133
f 219/533/134 220/534/134 71/535/134
f 219/533/134 71/535/134 222/536/134
f 1/537/135 219/538/135 222/539/135
f 1/537/135 222/539/135 223/540/135
f 170/541/136 71/542/136 220/543/136
f 170/541/136 220/543/136 221/544/136
f 224/545/137 225/546/137 228/547/137
f 224/545/137 228/547/137 227/548/137
f 219/549/138 226/550/138 229/551/138
f 219/549/138 229/551/138 222/552/138
f 226/553/139 224/554/139 227/555/139
f 226/553/139 227/555/139 229/556/139
f 222/557/140 228/558/140 225/559/140
f 222/557/140 225/559/140 219/560/140
f 230/561/141 61/562/141 21/563/141
f 230/561/141 21/563/141 231/564/141
f 63/565/142 225/566/142 228/567/142
f 63/565/142 228/567/142 69/568/142
f 225/569/143 230/570/143 231/571/143
f 225/569/143 231/571/143 228/572/143
f 69/573/144 21/574/144 61/575/144
f 69/573/144 61/575/144 63/576/144
f 232/577/145 233/578/145 235/579/145
f 232/577/145 235/579/145 18/580/145
f 234/581/146 188/582/146 192/583/146
f 234/581/146 192/583/146 236/584/146
f 188/585/147 232/586/147 18/587/147
f 188/585/147 18/587/147 192/588/147
f 236/589/148 235/590/148 233/591/148
f 236/589/148 233/591/148 234/592/148