# Made by Pabilo8 with Blockbench
# Exported with IIToolkit Plugin
mtllib variants.mtl


o style
v 0.625 -2.5625 2.1875
v 1.375 -2.5625 0.5625
v 1.4375 -1.8125 0.5625
v 1.375 -1.8125 0.5625
v 1.4375 -1.8125 2.4375
v 1.4375 -1.8125 2.25
v 1.375 -1.8125 2.4375
v 0.75 -1.8125 0.5625
v 0.6875 -1.8125 0.75
v 0.6875 -1.8125 0.5625
v 0.6875 -1.8125 1.375
v 0.75 -1.8125 2.4375
v 0.6875 -1.8125 2.4375
v 1.375 -1.8125 0.625
v 0.75 -1.8125 0.625
v 0.75 -2.5625 0.5625
v 1.0625 -1.8125 0.625
v 1.0625 -1.8125 0.5625
v 1.0625 -2.5625 0.5625
v 0.875 -1.9375 0.5625
v 0.875 -1.9375 0.5
v 0.875 -2.1875 0.5625
v 0.875 -2.1875 0.5
v 0.625 -1.9375 0.5625
v 0.625 -1.9375 0.5
v 0.625 -2.1875 0.5625
v 0.625 -2.1875 0.5
v 1.125 -2.3125 0.5625
v 1.125 -2.3125 0.5
v 1.125 -2.5625 0.5625
v 1.125 -2.5625 0.5
v 0.6875 -2.3125 0.5625
v 0.6875 -2.3125 0.5
v 0.6875 -2.5625 0.5625
v 0.6875 -2.5625 0.5
v 1.4375 -2.0625 0.5625
v 1.4375 -2.0625 0.5
v 1.4375 -2.3125 0.5625
v 1.4375 -2.3125 0.5
v 1 -2.0625 0.5625
v 1 -2.0625 0.5
v 1 -2.3125 0.5625
v 1 -2.3125 0.5
v 1.5 -1.8125 0.5625
v 1.5 -1.8125 0.5
v 1.5 -2.0625 0.5625
v 1.5 -2.0625 0.5
v 1.25 -1.8125 0.5625
v 1.25 -1.8125 0.5
v 1.25 -2.0625 0.5625
v 1.25 -2.0625 0.5
v 0.625 -1.8125 2.4375
v 0.625 -1.8125 2.5
v 0.625 -2.0625 2.4375
v 0.625 -2.0625 2.5
v 0.875 -1.8125 2.4375
v 0.875 -1.8125 2.5
v 0.875 -2.0625 2.4375
v 0.875 -2.0625 2.5
v 0.6875 -2.0625 2.4375
v 0.6875 -2.0625 2.5
v 0.6875 -2.3125 2.4375
v 0.6875 -2.3125 2.5
v 1.125 -2.0625 2.4375
v 1.125 -2.0625 2.5
v 1.125 -2.3125 2.4375
v 1.125 -2.3125 2.5
v 1.0625 -2.3125 2.4375
v 1.0625 -2.3125 2.5
v 1.0625 -2.5625 2.4375
v 1.0625 -2.5625 2.5
v 1.5 -2.3125 2.4375
v 1.5 -2.3125 2.5
v 1.5 -2.5625 2.4375
v 1.5 -2.5625 2.5
v 1.25 -1.9375 2.4375
v 1.25 -1.9375 2.5
v 1.25 -2.1875 2.4375
v 1.25 -2.1875 2.5
v 1.5 -1.9375 2.4375
v 1.5 -1.9375 2.5
v 1.5 -2.1875 2.4375
v 1.5 -2.1875 2.5
v 0.75 -1.8125 2.375
v 0.75 -2.5625 2.4375
v 1.375 -1.8125 2.375
v 1.375 -2.5625 2.4375
v 1.0625 -1.8125 2.375
v 1.0625 -1.8125 2.4375
v 1.5 -1.8125 2.25
v 1.5 -1.8125 1.8125
v 1.5 -2.0625 2.25
v 1.5 -2.0625 1.8125
v 1.4375 -1.8125 1.8125
v 1.4375 -2.0625 2.25
v 1.4375 -2.0625 1.8125
v 1.5 -1.9375 2.25
v 1.5 -2.1875 2.25
v 1.4375 -1.9375 2.4375
v 1.4375 -1.9375 2.25
v 1.4375 -2.1875 2.4375
v 1.4375 -2.1875 2.25
v 1.5 -2.0625 2.0625
v 1.5 -2.0625 1.625
v 1.5 -2.3125 2.0625
v 1.5 -2.3125 1.625
v 1.4375 -2.0625 2.0625
v 1.4375 -2.0625 1.625
v 1.4375 -2.3125 2.0625
v 1.4375 -2.3125 1.625
v 1.5 -2.3125 2
v 1.5 -2.5625 2
v 1.4375 -2.3125 2.4375
v 1.4375 -2.3125 2
v 1.4375 -2.5625 2.4375
v 1.4375 -2.5625 2
v 1.5 -2.1875 1.625
v 1.5 -2.1875 1.375
v 1.5 -2.4375 1.625
v 1.5 -2.4375 1.375
v 1.4375 -2.1875 1.625
v 1.4375 -2.1875 1.375
v 1.4375 -2.4375 1.625
v 1.4375 -2.4375 1.375
v 1.5 -2.3125 1.75
v 1.5 -2.5625 1.75
v 1.4375 -2.3125 1.75
v 1.4375 -2.5625 1.75
v 1.5 -2.3125 1.375
v 1.5 -2.3125 0.9375
v 1.5 -2.5625 1.375
v 1.5 -2.5625 0.9375
v 1.4375 -2.3125 1.375
v 1.4375 -2.3125 0.9375
v 1.4375 -2.5625 1.375
v 1.4375 -2.5625 0.9375
v 1.5 -2.3125 0.8125
v 1.5 -2.3125 0.5625
v 1.5 -2.5625 0.8125
v 1.5 -2.5625 0.5625
v 1.4375 -2.3125 0.8125
v 1.4375 -2.5625 0.8125
v 1.4375 -2.5625 0.5625
v 1.5 -2.0625 1.25
v 1.5 -2.0625 0.8125
v 1.5 -2.3125 1.25
v 1.4375 -2.0625 1.25
v 1.4375 -2.0625 0.8125
v 1.4375 -2.3125 1.25
v 1.5 -1.8125 0.8125
v 1.4375 -1.8125 0.8125
v 1.5 -1.8125 1.625
v 1.5 -1.8125 1.1875
v 1.5 -2.0625 1.1875
v 1.4375 -1.8125 1.625
v 1.4375 -1.8125 1.1875
v 1.4375 -2.0625 1.1875
v 1.375 -1.8125 1.5
v 1.4375 -1.8125 1.5
v 1.4375 -2.5625 1.5
v 0.6875 -2.5625 2.4375
v 0.75 -1.8125 1.5
v 0.6875 -1.8125 1.5
v 0.6875 -2.5625 1.5
v 0.625 -1.8125 0.75
v 0.625 -1.8125 1.1875
v 0.625 -2.0625 0.75
v 0.625 -2.0625 1.1875
v 0.6875 -1.8125 1.1875
v 0.6875 -2.0625 0.75
v 0.6875 -2.0625 1.1875
v 0.625 -1.9375 0.75
v 0.625 -2.1875 0.75
v 0.6875 -1.9375 0.5625
v 0.6875 -1.9375 0.75
v 0.6875 -2.1875 0.5625
v 0.6875 -2.1875 0.75
v 0.625 -2.0625 0.9375
v 0.625 -2.0625 1.375
v 0.625 -2.3125 0.9375
v 0.625 -2.3125 1.375
v 0.6875 -2.0625 0.9375
v 0.6875 -2.0625 1.375
v 0.6875 -2.3125 0.9375
v 0.6875 -2.3125 1.375
v 0.625 -2.1875 1.375
v 0.625 -2.1875 1.625
v 0.625 -2.4375 1.375
v 0.625 -2.4375 1.625
v 0.6875 -2.1875 1.375
v 0.6875 -2.1875 1.625
v 0.6875 -2.4375 1.375
v 0.6875 -2.4375 1.625
v 0.625 -2.3125 1
v 0.625 -2.3125 1.25
v 0.625 -2.5625 1
v 0.625 -2.5625 1.25
v 0.6875 -2.3125 1
v 0.6875 -2.3125 1.25
v 0.6875 -2.5625 1
v 0.6875 -2.5625 1.25
v 0.625 -2.3125 1.625
v 0.625 -2.3125 2.0625
v 0.625 -2.5625 1.625
v 0.625 -2.5625 2.0625
v 0.6875 -2.3125 1.625
v 0.6875 -2.3125 2.0625
v 0.6875 -2.5625 1.625
v 0.6875 -2.5625 2.0625
v 0.625 -2.3125 2.1875
v 0.625 -2.3125 2.4375
v 0.625 -2.5625 2.4375
v 0.6875 -2.3125 2.1875
v 0.6875 -2.5625 2.1875
v 0.625 -2.0625 1.75
v 0.625 -2.0625 2.1875
v 0.625 -2.3125 1.75
v 0.6875 -2.0625 1.75
v 0.6875 -2.0625 2.1875
v 0.6875 -2.3125 1.75
v 0.625 -1.8125 2.1875
v 0.6875 -1.8125 2.1875
v 0.625 -1.8125 1.375
v 0.625 -1.8125 1.8125
v 0.625 -2.0625 1.8125
v 0.6875 -1.8125 1.8125
v 0.6875 -2.0625 1.8125
vt 0.59375 0.65625
vt 0.671875 0.65625
vt 0.671875 0.671875
vt 0.59375 0.671875
vt 0.75 0.671875
vt 0.671875 0.671875
vt 0.671875 0.484375
vt 0.75 0.484375
vt 0.75 0.671875
vt 0.671875 0.671875
vt 0.671875 0.65625
vt 0.75 0.65625
vt 0.59375 0.484375
vt 0.671875 0.484375
vt 0.671875 0.671875
vt 0.59375 0.671875
vt 0.0625 0.59375
vt 0.0625 0.65625
vt 0.046875 0.65625
vt 0.046875 0.59375
vt 0.0625 0.59375
vt 0.0625 0.65625
vt 0.046875 0.65625
vt 0.046875 0.59375
vt 0.109375 0.640625
vt 0.109375 0.65625
vt 0.046875 0.65625
vt 0.046875 0.640625
vt 0.109375 0.640625
vt 0.109375 0.65625
vt 0.046875 0.65625
vt 0.046875 0.640625
vt 0.109375 0.59375
vt 0.109375 0.65625
vt 0.046875 0.65625
vt 0.046875 0.59375
vt 0.390625 0.59375
vt 0.390625 0.65625
vt 0.375 0.65625
vt 0.375 0.59375
vt 0.390625 0.59375
vt 0.390625 0.65625
vt 0.375 0.65625
vt 0.375 0.59375
vt 0.484375 0.640625
vt 0.484375 0.65625
vt 0.375 0.65625
vt 0.375 0.640625
vt 0.484375 0.59375
vt 0.484375 0.65625
vt 0.375 0.65625
vt 0.375 0.59375
vt 0.546875 0.53125
vt 0.546875 0.59375
vt 0.53125 0.59375
vt 0.53125 0.53125
vt 0.546875 0.53125
vt 0.546875 0.59375
vt 0.53125 0.59375
vt 0.53125 0.53125
vt 0.640625 0.578125
vt 0.640625 0.59375
vt 0.53125 0.59375
vt 0.53125 0.578125
vt 0.640625 0.578125
vt 0.640625 0.59375
vt 0.53125 0.59375
vt 0.53125 0.578125
vt 0.640625 0.53125
vt 0.640625 0.59375
vt 0.53125 0.59375
vt 0.53125 0.53125
vt 0.40625 0.59375
vt 0.40625 0.65625
vt 0.390625 0.65625
vt 0.390625 0.59375
vt 0.40625 0.59375
vt 0.40625 0.65625
vt 0.390625 0.65625
vt 0.390625 0.59375
vt 0.453125 0.640625
vt 0.453125 0.65625
vt 0.390625 0.65625
vt 0.390625 0.640625
vt 0.453125 0.640625
vt 0.453125 0.65625
vt 0.390625 0.65625
vt 0.390625 0.640625
vt 0.453125 0.59375
vt 0.453125 0.65625
vt 0.390625 0.65625
vt 0.390625 0.59375
vt 0.40625 0.59375
vt 0.40625 0.65625
vt 0.390625 0.65625
vt 0.390625 0.59375
vt 0.40625 0.59375
vt 0.40625 0.65625
vt 0.390625 0.65625
vt 0.390625 0.59375
vt 0.453125 0.640625
vt 0.453125 0.65625
vt 0.390625 0.65625
vt 0.390625 0.640625
vt 0.453125 0.640625
vt 0.453125 0.65625
vt 0.390625 0.65625
vt 0.390625 0.640625
vt 0.453125 0.59375
vt 0.453125 0.65625
vt 0.390625 0.65625
vt 0.390625 0.59375
vt 0.546875 0.53125
vt 0.546875 0.59375
vt 0.53125 0.59375
vt 0.53125 0.53125
vt 0.546875 0.53125
vt 0.546875 0.59375
vt 0.53125 0.59375
vt 0.53125 0.53125
vt 0.640625 0.578125
vt 0.640625 0.59375
vt 0.53125 0.59375
vt 0.53125 0.578125
vt 0.640625 0.578125
vt 0.640625 0.59375
vt 0.53125 0.59375
vt 0.53125 0.578125
vt 0.640625 0.53125
vt 0.640625 0.59375
vt 0.53125 0.59375
vt 0.53125 0.53125
vt 0.390625 0.59375
vt 0.390625 0.65625
vt 0.375 0.65625
vt 0.375 0.59375
vt 0.390625 0.59375
vt 0.390625 0.65625
vt 0.375 0.65625
vt 0.375 0.59375
vt 0.484375 0.640625
vt 0.484375 0.65625
vt 0.375 0.65625
vt 0.375 0.640625
vt 0.484375 0.59375
vt 0.484375 0.65625
vt 0.375 0.65625
vt 0.375 0.59375
vt 0.0625 0.59375
vt 0.0625 0.65625
vt 0.046875 0.65625
vt 0.046875 0.59375
vt 0.0625 0.59375
vt 0.0625 0.65625
vt 0.046875 0.65625
vt 0.046875 0.59375
vt 0.109375 0.640625
vt 0.109375 0.65625
vt 0.046875 0.65625
vt 0.046875 0.640625
vt 0.109375 0.640625
vt 0.109375 0.65625
vt 0.046875 0.65625
vt 0.046875 0.640625
vt 0.109375 0.59375
vt 0.109375 0.65625
vt 0.046875 0.65625
vt 0.046875 0.59375
vt 0.59375 0.65625
vt 0.671875 0.65625
vt 0.671875 0.671875
vt 0.59375 0.671875
vt 0.75 0.671875
vt 0.671875 0.671875
vt 0.671875 0.484375
vt 0.75 0.484375
vt 0.75 0.671875
vt 0.671875 0.671875
vt 0.671875 0.65625
vt 0.75 0.65625
vt 0.59375 0.484375
vt 0.671875 0.484375
vt 0.671875 0.671875
vt 0.59375 0.671875
vt 0.65625 0.53125
vt 0.65625 0.59375
vt 0.546875 0.59375
vt 0.546875 0.53125
vt 0.65625 0.59375
vt 0.546875 0.59375
vt 0.546875 0.578125
vt 0.65625 0.578125
vt 0.5625 0.53125
vt 0.5625 0.59375
vt 0.546875 0.59375
vt 0.546875 0.53125
vt 0.5625 0.53125
vt 0.5625 0.59375
vt 0.546875 0.59375
vt 0.546875 0.53125
vt 0.1875 0.46875
vt 0.1875 0.53125
vt 0.140625 0.53125
vt 0.140625 0.46875
vt 0.15625 0.484375
vt 0.15625 0.53125
vt 0.140625 0.53125
vt 0.140625 0.484375
vt 0.15625 0.484375
vt 0.15625 0.53125
vt 0.140625 0.53125
vt 0.140625 0.484375
vt 0.15625 0.46875
vt 0.15625 0.53125
vt 0.140625 0.53125
vt 0.140625 0.46875
vt 0.15625 0.46875
vt 0.15625 0.53125
vt 0.140625 0.53125
vt 0.140625 0.46875
vt 0.109375 0.59375
vt 0.109375 0.65625
vt 0 0.65625
vt 0 0.59375
vt 0.109375 0.65625
vt 0 0.65625
vt 0 0.640625
vt 0.109375 0.640625
vt 0.109375 0.65625
vt 0 0.65625
vt 0 0.640625
vt 0.109375 0.640625
vt 0.109375 0.59375
vt 0.109375 0.65625
vt 0.09375 0.65625
vt 0.09375 0.59375
vt 0.109375 0.59375
vt 0.109375 0.65625
vt 0.09375 0.65625
vt 0.09375 0.59375
vt 0.484375 0.59375
vt 0.484375 0.65625
vt 0.375 0.65625
vt 0.375 0.59375
vt 0.484375 0.65625
vt 0.375 0.65625
vt 0.375 0.640625
vt 0.484375 0.640625
vt 0.390625 0.59375
vt 0.390625 0.65625
vt 0.375 0.65625
vt 0.375 0.59375
vt 0.28125 0.46875
vt 0.28125 0.53125
vt 0.21875 0.53125
vt 0.21875 0.46875
vt 0.234375 0.46875
vt 0.234375 0.53125
vt 0.21875 0.53125
vt 0.21875 0.46875
vt 0.234375 0.46875
vt 0.234375 0.53125
vt 0.21875 0.53125
vt 0.21875 0.46875
vt 0.234375 0.46875
vt 0.234375 0.53125
vt 0.21875 0.53125
vt 0.21875 0.46875
vt 0.234375 0.46875
vt 0.234375 0.53125
vt 0.21875 0.53125
vt 0.21875 0.46875
vt 0.234375 0.46875
vt 0.234375 0.53125
vt 0.171875 0.53125
vt 0.171875 0.46875
vt 0.1875 0.46875
vt 0.1875 0.53125
vt 0.171875 0.53125
vt 0.171875 0.46875
vt 0.1875 0.46875
vt 0.1875 0.53125
vt 0.171875 0.53125
vt 0.171875 0.46875
vt 0.1875 0.46875
vt 0.1875 0.53125
vt 0.171875 0.53125
vt 0.171875 0.46875
vt 0.671875 0.53125
vt 0.671875 0.59375
vt 0.5625 0.59375
vt 0.5625 0.53125
vt 0.671875 0.59375
vt 0.5625 0.59375
vt 0.5625 0.578125
vt 0.671875 0.578125
vt 0.578125 0.53125
vt 0.578125 0.59375
vt 0.5625 0.59375
vt 0.5625 0.53125
vt 0.578125 0.53125
vt 0.578125 0.59375
vt 0.5625 0.59375
vt 0.5625 0.53125
vt 0.46875 0.59375
vt 0.46875 0.65625
vt 0.40625 0.65625
vt 0.40625 0.59375
vt 0.421875 0.59375
vt 0.421875 0.65625
vt 0.40625 0.65625
vt 0.40625 0.59375
vt 0.421875 0.59375
vt 0.421875 0.65625
vt 0.40625 0.65625
vt 0.40625 0.59375
vt 0.421875 0.59375
vt 0.421875 0.65625
vt 0.40625 0.65625
vt 0.40625 0.59375
vt 0.28125 0.46875
vt 0.28125 0.53125
vt 0.171875 0.53125
vt 0.171875 0.46875
vt 0.28125 0.53125
vt 0.171875 0.53125
vt 0.171875 0.515625
vt 0.28125 0.515625
vt 0.28125 0.53125
vt 0.171875 0.53125
vt 0.171875 0.515625
vt 0.28125 0.515625
vt 0.1875 0.46875
vt 0.1875 0.53125
vt 0.171875 0.53125
vt 0.171875 0.46875
vt 0.1875 0.46875
vt 0.1875 0.53125
vt 0.171875 0.53125
vt 0.171875 0.46875
vt 0.59375 0.53125
vt 0.59375 0.59375
vt 0.53125 0.59375
vt 0.53125 0.53125
vt 0.546875 0.53125
vt 0.546875 0.59375
vt 0.53125 0.59375
vt 0.53125 0.53125
vt 0.546875 0.53125
vt 0.546875 0.59375
vt 0.53125 0.59375
vt 0.53125 0.53125
vt 0.546875 0.53125
vt 0.546875 0.59375
vt 0.53125 0.59375
vt 0.53125 0.53125
vt 0.546875 0.53125
vt 0.546875 0.59375
vt 0.53125 0.59375
vt 0.53125 0.53125
vt 0.484375 0.59375
vt 0.484375 0.65625
vt 0.375 0.65625
vt 0.375 0.59375
vt 0.484375 0.65625
vt 0.375 0.65625
vt 0.375 0.640625
vt 0.484375 0.640625
vt 0.484375 0.65625
vt 0.375 0.65625
vt 0.375 0.640625
vt 0.484375 0.640625
vt 0.390625 0.59375
vt 0.390625 0.65625
vt 0.375 0.65625
vt 0.375 0.59375
vt 0.390625 0.59375
vt 0.390625 0.65625
vt 0.375 0.65625
vt 0.375 0.59375
vt 0.734375 0.671875
vt 0.5 0.671875
vt 0.5 0.484375
vt 0.734375 0.484375
vt 0.5 0.65625
vt 0.734375 0.65625
vt 0.734375 0.671875
vt 0.5 0.671875
vt 0.515625 0.484375
vt 0.515625 0.671875
vt 0.5 0.671875
vt 0.5 0.484375
vt 0.734375 0.484375
vt 0.734375 0.671875
vt 0.71875 0.671875
vt 0.71875 0.484375
vt 0.734375 0.671875
vt 0.5 0.671875
vt 0.5 0.65625
vt 0.734375 0.65625
vt 0.5 0.484375
vt 0.734375 0.484375
vt 0.734375 0.671875
vt 0.5 0.671875
vt 0.65625 0.59375
vt 0.546875 0.59375
vt 0.546875 0.578125
vt 0.65625 0.578125
vt 0.734375 0.671875
vt 0.5 0.671875
vt 0.5 0.484375
vt 0.734375 0.484375
vt 0.5 0.65625
vt 0.734375 0.65625
vt 0.734375 0.671875
vt 0.5 0.671875
vt 0.515625 0.484375
vt 0.515625 0.671875
vt 0.5 0.671875
vt 0.5 0.484375
vt 0.734375 0.484375
vt 0.734375 0.671875
vt 0.71875 0.671875
vt 0.71875 0.484375
vt 0.734375 0.671875
vt 0.5 0.671875
vt 0.5 0.65625
vt 0.734375 0.65625
vt 0.5 0.484375
vt 0.734375 0.484375
vt 0.734375 0.671875
vt 0.5 0.671875
vt 0.65625 0.53125
vt 0.65625 0.59375
vt 0.546875 0.59375
vt 0.546875 0.53125
vt 0.65625 0.59375
vt 0.546875 0.59375
vt 0.546875 0.578125
vt 0.65625 0.578125
vt 0.65625 0.59375
vt 0.546875 0.59375
vt 0.546875 0.578125
vt 0.65625 0.578125
vt 0.5625 0.53125
vt 0.5625 0.59375
vt 0.546875 0.59375
vt 0.546875 0.53125
vt 0.5625 0.53125
vt 0.5625 0.59375
vt 0.546875 0.59375
vt 0.546875 0.53125
vt 0.1875 0.46875
vt 0.1875 0.53125
vt 0.140625 0.53125
vt 0.140625 0.46875
vt 0.15625 0.484375
vt 0.15625 0.53125
vt 0.140625 0.53125
vt 0.140625 0.484375
vt 0.15625 0.484375
vt 0.15625 0.53125
vt 0.140625 0.53125
vt 0.140625 0.484375
vt 0.15625 0.46875
vt 0.15625 0.53125
vt 0.140625 0.53125
vt 0.140625 0.46875
vt 0.15625 0.46875
vt 0.15625 0.53125
vt 0.140625 0.53125
vt 0.140625 0.46875
vt 0.109375 0.59375
vt 0.109375 0.65625
vt 0 0.65625
vt 0 0.59375
vt 0.109375 0.65625
vt 0 0.65625
vt 0 0.640625
vt 0.109375 0.640625
vt 0.109375 0.65625
vt 0 0.65625
vt 0 0.640625
vt 0.109375 0.640625
vt 0.109375 0.59375
vt 0.109375 0.65625
vt 0.09375 0.65625
vt 0.09375 0.59375
vt 0.109375 0.59375
vt 0.109375 0.65625
vt 0.09375 0.65625
vt 0.09375 0.59375
vt 0.28125 0.46875
vt 0.28125 0.53125
vt 0.21875 0.53125
vt 0.21875 0.46875
vt 0.234375 0.46875
vt 0.234375 0.53125
vt 0.21875 0.53125
vt 0.21875 0.46875
vt 0.234375 0.46875
vt 0.234375 0.53125
vt 0.21875 0.53125
vt 0.21875 0.46875
vt 0.234375 0.46875
vt 0.234375 0.53125
vt 0.21875 0.53125
vt 0.21875 0.46875
vt 0.234375 0.46875
vt 0.234375 0.53125
vt 0.21875 0.53125
vt 0.21875 0.46875
vt 0.234375 0.46875
vt 0.234375 0.53125
vt 0.171875 0.53125
vt 0.171875 0.46875
vt 0.1875 0.46875
vt 0.1875 0.53125
vt 0.171875 0.53125
vt 0.171875 0.46875
vt 0.1875 0.46875
vt 0.1875 0.53125
vt 0.171875 0.53125
vt 0.171875 0.46875
vt 0.1875 0.46875
vt 0.1875 0.53125
vt 0.171875 0.53125
vt 0.171875 0.46875
vt 0.671875 0.53125
vt 0.671875 0.59375
vt 0.5625 0.59375
vt 0.5625 0.53125
vt 0.671875 0.59375
vt 0.5625 0.59375
vt 0.5625 0.578125
vt 0.671875 0.578125
vt 0.578125 0.53125
vt 0.578125 0.59375
vt 0.5625 0.59375
vt 0.5625 0.53125
vt 0.578125 0.53125
vt 0.578125 0.59375
vt 0.5625 0.59375
vt 0.5625 0.53125
vt 0.46875 0.59375
vt 0.46875 0.65625
vt 0.40625 0.65625
vt 0.40625 0.59375
vt 0.421875 0.59375
vt 0.421875 0.65625
vt 0.40625 0.65625
vt 0.40625 0.59375
vt 0.421875 0.59375
vt 0.421875 0.65625
vt 0.40625 0.65625
vt 0.40625 0.59375
vt 0.421875 0.59375
vt 0.421875 0.65625
vt 0.40625 0.65625
vt 0.40625 0.59375
vt 0.28125 0.46875
vt 0.28125 0.53125
vt 0.171875 0.53125
vt 0.171875 0.46875
vt 0.28125 0.53125
vt 0.171875 0.53125
vt 0.171875 0.515625
vt 0.28125 0.515625
vt 0.28125 0.53125
vt 0.171875 0.53125
vt 0.171875 0.515625
vt 0.28125 0.515625
vt 0.1875 0.46875
vt 0.1875 0.53125
vt 0.171875 0.53125
vt 0.171875 0.46875
vt 0.1875 0.46875
vt 0.1875 0.53125
vt 0.171875 0.53125
vt 0.171875 0.46875
vt 0.59375 0.53125
vt 0.59375 0.59375
vt 0.53125 0.59375
vt 0.53125 0.53125
vt 0.546875 0.53125
vt 0.546875 0.59375
vt 0.53125 0.59375
vt 0.53125 0.53125
vt 0.546875 0.53125
vt 0.546875 0.59375
vt 0.53125 0.59375
vt 0.53125 0.53125
vt 0.546875 0.53125
vt 0.546875 0.59375
vt 0.53125 0.59375
vt 0.53125 0.53125
vt 0.546875 0.53125
vt 0.546875 0.59375
vt 0.53125 0.59375
vt 0.53125 0.53125
vt 0.484375 0.59375
vt 0.484375 0.65625
vt 0.375 0.65625
vt 0.375 0.59375
vt 0.484375 0.65625
vt 0.375 0.65625
vt 0.375 0.640625
vt 0.484375 0.640625
vt 0.484375 0.65625
vt 0.375 0.65625
vt 0.375 0.640625
vt 0.484375 0.640625
vt 0.390625 0.59375
vt 0.390625 0.65625
vt 0.375 0.65625
vt 0.375 0.59375
vt 0.390625 0.59375
vt 0.390625 0.65625
vt 0.375 0.65625
vt 0.375 0.59375
vn 0 1 0
vn 0 0 -1
vn 0 1 0
vn 0 0 -1
vn 1 0 0
vn -1 0 0
vn 0 1 0
vn 0 -1 0
vn 0 0 -1
vn 1 0 0
vn -1 0 0
vn 0 1 0
vn 0 0 -1
vn 1 0 0
vn -1 0 0
vn 0 1 0
vn 0 -1 0
vn 0 0 -1
vn 1 0 0
vn -1 0 0
vn 0 1 0
vn 0 -1 0
vn 0 0 -1
vn -1 0 0
vn 1 0 0
vn 0 1 0
vn 0 -1 0
vn 0 0 1
vn -1 0 0
vn 1 0 0
vn 0 1 0
vn 0 -1 0
vn 0 0 1
vn -1 0 0
vn 1 0 0
vn 0 1 0
vn 0 0 1
vn -1 0 0
vn 1 0 0
vn 0 1 0
vn 0 -1 0
vn 0 0 1
vn 0 1 0
vn 0 0 1
vn 0 1 0
vn 0 0 1
vn 1 0 0
vn 0 -1 0
vn 0 0 1
vn 0 0 -1
vn 1 0 0
vn 0 1 0
vn 0 -1 0
vn 0 0 1
vn 0 0 -1
vn 1 0 0
vn 0 1 0
vn 0 -1 0
vn 0 0 1
vn 0 0 -1
vn 1 0 0
vn 0 1 0
vn 0 0 1
vn 1 0 0
vn 0 1 0
vn 0 -1 0
vn 0 0 1
vn 0 0 -1
vn 1 0 0
vn 0 1 0
vn 0 0 1
vn 0 0 -1
vn 1 0 0
vn 0 1 0
vn 0 0 1
vn 0 0 -1
vn 1 0 0
vn 0 1 0
vn 0 0 1
vn 0 0 -1
vn 1 0 0
vn 0 1 0
vn 0 -1 0
vn 0 0 1
vn 0 0 -1
vn 1 0 0
vn 0 1 0
vn 0 -1 0
vn 0 0 1
vn 0 0 -1
vn 1 0 0
vn 0 1 0
vn 0 -1 0
vn 0 0 1
vn 0 0 -1
vn 1 0 0
vn 0 1 0
vn 0 0 1
vn 0 0 -1
vn 0 1 0
vn 1 0 0
vn 0 1 0
vn -1 0 0
vn 0 1 0
vn 0 0 -1
vn 0 0 1
vn 0 1 0
vn -1 0 0
vn -1 0 0
vn 0 1 0
vn 0 -1 0
vn 0 0 -1
vn 0 0 1
vn -1 0 0
vn 0 1 0
vn 0 -1 0
vn 0 0 -1
vn 0 0 1
vn -1 0 0
vn 0 1 0
vn 0 -1 0
vn 0 0 -1
vn 0 0 1
vn -1 0 0
vn 0 1 0
vn 0 -1 0
vn 0 0 -1
vn 0 0 1
vn -1 0 0
vn 0 1 0
vn 0 0 -1
vn 0 0 1
vn -1 0 0
vn 0 1 0
vn 0 0 -1
vn 0 0 1
vn -1 0 0
vn 0 1 0
vn 0 0 -1
vn 0 0 1
vn -1 0 0
vn 0 1 0
vn 0 -1 0
vn 0 0 -1
vn 0 0 1
vn -1 0 0
vn 0 1 0
vn 0 -1 0
vn 0 0 -1
vn 0 0 1
vn -1 0 0
vn 0 1 0
vn 0 -1 0
vn 0 0 -1
vn 0 0 1
usemtl base_concrete
f 15/1/1 17/2/1 18/3/1
f 15/1/1 18/3/1 8/4/1
f 8/5/2 18/6/2 19/7/2
f 8/5/2 19/7/2 16/8/2
f 4/9/3 18/10/3 17/11/3
f 4/9/3 17/11/3 14/12/3
f 2/13/4 19/14/4 18/15/4
f 2/13/4 18/15/4 4/16/4
f 23/17/5 21/18/5 20/19/5
f 23/17/5 20/19/5 22/20/5
f 26/21/6 24/22/6 25/23/6
f 26/21/6 25/23/6 27/24/6
f 20/25/7 21/26/7 25/27/7
f 20/25/7 25/27/7 24/28/7
f 23/29/8 22/30/8 26/31/8
f 23/29/8 26/31/8 27/32/8
f 27/33/9 25/34/9 21/35/9
f 27/33/9 21/35/9 23/36/9
f 31/37/10 29/38/10 28/39/10
f 31/37/10 28/39/10 30/40/10
f 34/41/11 32/42/11 33/43/11
f 34/41/11 33/43/11 35/44/11
f 28/45/12 29/46/12 33/47/12
f 28/45/12 33/47/12 32/48/12
f 35/49/13 33/50/13 29/51/13
f 35/49/13 29/51/13 31/52/13
f 39/53/14 37/54/14 36/55/14
f 39/53/14 36/55/14 38/56/14
f 42/57/15 40/58/15 41/59/15
f 42/57/15 41/59/15 43/60/15
f 36/61/16 37/62/16 41/63/16
f 36/61/16 41/63/16 40/64/16
f 39/65/17 38/66/17 42/67/17
f 39/65/17 42/67/17 43/68/17
f 43/69/18 41/70/18 37/71/18
f 43/69/18 37/71/18 39/72/18
f 47/73/19 45/74/19 44/75/19
f 47/73/19 44/75/19 46/76/19
f 50/77/20 48/78/20 49/79/20
f 50/77/20 49/79/20 51/80/20
f 44/81/21 45/82/21 49/83/21
f 44/81/21 49/83/21 48/84/21
f 47/85/22 46/86/22 50/87/22
f 47/85/22 50/87/22 51/88/22
f 51/89/23 49/90/23 45/91/23
f 51/89/23 45/91/23 47/92/23
f 55/93/24 53/94/24 52/95/24
f 55/93/24 52/95/24 54/96/24
f 58/97/25 56/98/25 57/99/25
f 58/97/25 57/99/25 59/100/25
f 52/101/26 53/102/26 57/103/26
f 52/101/26 57/103/26 56/104/26
f 55/105/27 54/106/27 58/107/27
f 55/105/27 58/107/27 59/108/27
f 59/109/28 57/110/28 53/111/28
f 59/109/28 53/111/28 55/112/28
f 63/113/29 61/114/29 60/115/29
f 63/113/29 60/115/29 62/116/29
f 66/117/30 64/118/30 65/119/30
f 66/117/30 65/119/30 67/120/30
f 60/121/31 61/122/31 65/123/31
f 60/121/31 65/123/31 64/124/31
f 63/125/32 62/126/32 66/127/32
f 63/125/32 66/127/32 67/128/32
f 67/129/33 65/130/33 61/131/33
f 67/129/33 61/131/33 63/132/33
f 71/133/34 69/134/34 68/135/34
f 71/133/34 68/135/34 70/136/34
f 74/137/35 72/138/35 73/139/35
f 74/137/35 73/139/35 75/140/35
f 68/141/36 69/142/36 73/143/36
f 68/141/36 73/143/36 72/144/36
f 75/145/37 73/146/37 69/147/37
f 75/145/37 69/147/37 71/148/37
f 79/149/38 77/150/38 76/151/38
f 79/149/38 76/151/38 78/152/38
f 82/153/39 80/154/39 81/155/39
f 82/153/39 81/155/39 83/156/39
f 76/157/40 77/158/40 81/159/40
f 76/157/40 81/159/40 80/160/40
f 79/161/41 78/162/41 82/163/41
f 79/161/41 82/163/41 83/164/41
f 83/165/42 81/166/42 77/167/42
f 83/165/42 77/167/42 79/168/42
f 86/169/43 88/170/43 89/171/43
f 86/169/43 89/171/43 7/172/43
f 7/173/44 89/174/44 70/175/44
f 7/173/44 70/175/44 87/176/44
f 12/177/45 89/178/45 88/179/45
f 12/177/45 88/179/45 84/180/45
f 85/181/46 70/182/46 89/183/46
f 85/181/46 89/183/46 12/184/46
f 93/185/47 91/186/47 90/187/47
f 93/185/47 90/187/47 92/188/47
f 93/189/48 92/190/48 95/191/48
f 93/189/48 95/191/48 96/192/48
f 92/193/49 90/194/49 6/195/49
f 92/193/49 6/195/49 95/196/49
f 96/197/50 94/198/50 91/199/50
f 96/197/50 91/199/50 93/200/50
f 98/201/51 97/202/51 80/203/51
f 98/201/51 80/203/51 82/204/51
f 80/205/52 97/206/52 100/207/52
f 80/205/52 100/207/52 99/208/52
f 98/209/53 82/210/53 101/211/53
f 98/209/53 101/211/53 102/212/53
f 82/213/54 80/214/54 99/215/54
f 82/213/54 99/215/54 101/216/54
f 102/217/55 100/218/55 97/219/55
f 102/217/55 97/219/55 98/220/55
f 106/221/56 104/222/56 103/223/56
f 106/221/56 103/223/56 105/224/56
f 103/225/57 104/226/57 108/227/57
f 103/225/57 108/227/57 107/228/57
f 106/229/58 105/230/58 109/231/58
f 106/229/58 109/231/58 110/232/58
f 105/233/59 103/234/59 107/235/59
f 105/233/59 107/235/59 109/236/59
f 110/237/60 108/238/60 104/239/60
f 110/237/60 104/239/60 106/240/60
f 112/241/61 111/242/61 72/243/61
f 112/241/61 72/243/61 74/244/61
f 72/245/62 111/246/62 114/247/62
f 72/245/62 114/247/62 113/248/62
f 74/249/63 72/250/63 113/251/63
f 74/249/63 113/251/63 115/252/63
f 120/253/64 118/254/64 117/255/64
f 120/253/64 117/255/64 119/256/64
f 117/257/65 118/258/65 122/259/65
f 117/257/65 122/259/65 121/260/65
f 120/261/66 119/262/66 123/263/66
f 120/261/66 123/263/66 124/264/66
f 119/265/67 117/266/67 121/267/67
f 119/265/67 121/267/67 123/268/67
f 124/269/68 122/270/68 118/271/68
f 124/269/68 118/271/68 120/272/68
f 126/273/69 125/274/69 111/275/69
f 126/273/69 111/275/69 112/276/69
f 111/277/70 125/278/70 127/279/70
f 111/277/70 127/279/70 114/280/70
f 112/281/71 111/282/71 114/283/71
f 112/281/71 114/283/71 116/284/71
f 128/285/72 127/286/72 125/287/72
f 128/285/72 125/287/72 126/288/72
f 132/289/73 130/290/73 129/291/73
f 132/289/73 129/291/73 131/292/73
f 129/293/74 130/294/74 134/295/74
f 129/293/74 134/295/74 133/296/74
f 131/297/75 129/298/75 133/299/75
f 131/297/75 133/299/75 135/300/75
f 136/301/76 134/302/76 130/303/76
f 136/301/76 130/303/76 132/304/76
f 140/305/77 138/306/77 137/307/77
f 140/305/77 137/307/77 139/308/77
f 137/309/78 138/310/78 38/311/78
f 137/309/78 38/311/78 141/312/78
f 139/313/79 137/314/79 141/315/79
f 139/313/79 141/315/79 142/316/79
f 143/317/80 38/318/80 138/319/80
f 143/317/80 138/319/80 140/320/80
f 137/321/81 145/322/81 144/323/81
f 137/321/81 144/323/81 146/324/81
f 144/325/82 145/326/82 148/327/82
f 144/325/82 148/327/82 147/328/82
f 137/329/83 146/330/83 149/331/83
f 137/329/83 149/331/83 141/332/83
f 146/333/84 144/334/84 147/335/84
f 146/333/84 147/335/84 149/336/84
f 141/337/85 148/338/85 145/339/85
f 141/337/85 145/339/85 137/340/85
f 46/341/86 44/342/86 150/343/86
f 46/341/86 150/343/86 145/344/86
f 150/345/87 44/346/87 3/347/87
f 150/345/87 3/347/87 151/348/87
f 46/349/88 145/350/88 148/351/88
f 46/349/88 148/351/88 36/352/88
f 145/353/89 150/354/89 151/355/89
f 145/353/89 151/355/89 148/356/89
f 36/357/90 3/358/90 44/359/90
f 36/357/90 44/359/90 46/360/90
f 154/361/91 153/362/91 152/363/91
f 154/361/91 152/363/91 104/364/91
f 152/365/92 153/366/92 156/367/92
f 152/365/92 156/367/92 155/368/92
f 154/369/93 104/370/93 108/371/93
f 154/369/93 108/371/93 157/372/93
f 104/373/94 152/374/94 155/375/94
f 104/373/94 155/375/94 108/376/94
f 157/377/95 156/378/95 153/379/95
f 157/377/95 153/379/95 154/380/95
f 3/381/96 159/382/96 160/383/96
f 3/381/96 160/383/96 143/384/96
f 4/385/97 158/386/97 159/387/97
f 4/385/97 159/387/97 3/388/97
f 115/389/98 5/390/98 7/391/98
f 115/389/98 7/391/98 87/392/98
f 2/393/99 4/394/99 3/395/99
f 2/393/99 3/395/99 143/396/99
f 5/397/100 159/398/100 158/399/100
f 5/397/100 158/399/100 7/400/100
f 115/401/101 160/402/101 159/403/101
f 115/401/101 159/403/101 5/404/101
f 90/405/102 91/406/102 94/407/102
f 90/405/102 94/407/102 6/408/102
f 13/409/103 163/410/103 164/411/103
f 13/409/103 164/411/103 161/412/103
f 12/413/104 162/414/104 163/415/104
f 12/413/104 163/415/104 13/416/104
f 34/417/105 10/418/105 8/419/105
f 34/417/105 8/419/105 16/420/105
f 85/421/106 12/422/106 13/423/106
f 85/421/106 13/423/106 161/424/106
f 10/425/107 163/426/107 162/427/107
f 10/425/107 162/427/107 8/428/107
f 34/429/108 164/430/108 163/431/108
f 34/429/108 163/431/108 10/432/108
f 168/433/109 166/434/109 165/435/109
f 168/433/109 165/435/109 167/436/109
f 165/437/110 166/438/110 169/439/110
f 165/437/110 169/439/110 9/440/110
f 168/441/111 167/442/111 170/443/111
f 168/441/111 170/443/111 171/444/111
f 167/445/112 165/446/112 9/447/112
f 167/445/112 9/447/112 170/448/112
f 171/449/113 169/450/113 166/451/113
f 171/449/113 166/451/113 168/452/113
f 173/453/114 172/454/114 24/455/114
f 173/453/114 24/455/114 26/456/114
f 24/457/115 172/458/115 175/459/115
f 24/457/115 175/459/115 174/460/115
f 173/461/116 26/462/116 176/463/116
f 173/461/116 176/463/116 177/464/116
f 26/465/117 24/466/117 174/467/117
f 26/465/117 174/467/117 176/468/117
f 177/469/118 175/470/118 172/471/118
f 177/469/118 172/471/118 173/472/118
f 181/473/119 179/474/119 178/475/119
f 181/473/119 178/475/119 180/476/119
f 178/477/120 179/478/120 183/479/120
f 178/477/120 183/479/120 182/480/120
f 181/481/121 180/482/121 184/483/121
f 181/481/121 184/483/121 185/484/121
f 180/485/122 178/486/122 182/487/122
f 180/485/122 182/487/122 184/488/122
f 185/489/123 183/490/123 179/491/123
f 185/489/123 179/491/123 181/492/123
f 189/493/124 187/494/124 186/495/124
f 189/493/124 186/495/124 188/496/124
f 186/497/125 187/498/125 191/499/125
f 186/497/125 191/499/125 190/500/125
f 189/501/126 188/502/126 192/503/126
f 189/501/126 192/503/126 193/504/126
f 188/505/127 186/506/127 190/507/127
f 188/505/127 190/507/127 192/508/127
f 193/509/128 191/510/128 187/511/128
f 193/509/128 187/511/128 189/512/128
f 197/513/129 195/514/129 194/515/129
f 197/513/129 194/515/129 196/516/129
f 194/517/130 195/518/130 199/519/130
f 194/517/130 199/519/130 198/520/130
f 196/521/131 194/522/131 198/523/131
f 196/521/131 198/523/131 200/524/131
f 201/525/132 199/526/132 195/527/132
f 201/525/132 195/527/132 197/528/132
f 205/529/133 203/530/133 202/531/133
f 205/529/133 202/531/133 204/532/133
f 202/533/134 203/534/134 207/535/134
f 202/533/134 207/535/134 206/536/134
f 204/537/135 202/538/135 206/539/135
f 204/537/135 206/539/135 208/540/135
f 209/541/136 207/542/136 203/543/136
f 209/541/136 203/543/136 205/544/136
f 212/545/137 211/546/137 210/547/137
f 212/545/137 210/547/137 1/548/137
f 210/549/138 211/550/138 62/551/138
f 210/549/138 62/551/138 213/552/138
f 1/553/139 210/554/139 213/555/139
f 1/553/139 213/555/139 214/556/139
f 161/557/140 62/558/140 211/559/140
f 161/557/140 211/559/140 212/560/140
f 210/561/141 216/562/141 215/563/141
f 210/561/141 215/563/141 217/564/141
f 215/565/142 216/566/142 219/567/142
f 215/565/142 219/567/142 218/568/142
f 210/569/143 217/570/143 220/571/143
f 210/569/143 220/571/143 213/572/143
f 217/573/144 215/574/144 218/575/144
f 217/573/144 218/575/144 220/576/144
f 213/577/145 219/578/145 216/579/145
f 213/577/145 216/579/145 210/580/145
f 54/581/146 52/582/146 221/583/146
f 54/581/146 221/583/146 216/584/146
f 221/585/147 52/586/147 13/587/147
f 221/585/147 13/587/147 222/588/147
f 54/589/148 216/590/148 219/591/148
f 54/589/148 219/591/148 60/592/148
f 216/593/149 221/594/149 222/595/149
f 216/593/149 222/595/149 219/596/149
f 60/597/150 13/598/150 52/599/150
f 60/597/150 52/599/150 54/600/150
f 225/601/151 224/602/151 223/603/151
f 225/601/151 223/603/151 179/604/151
f 223/605/152 224/606/152 226/607/152
f 223/605/152 226/607/152 11/608/152
f 225/609/153 179/610/153 183/611/153
f 225/609/153 183/611/153 227/612/153
f 179/613/154 223/614/154 11/615/154
f 179/613/154 11/615/154 183/616/154
f 227/617/155 226/618/155 224/619/155
f 227/617/155 224/619/155 225/620/155