# Made by Pabilo8 with Blockbench
# Exported with IIToolkit Plugin
mtllib variants.mtl


o style
v 1.375 -2.5625 0.5625
v 1.4375 -1.8125 0.5625
v 1.375 -1.8125 0.5625
v 1.4375 -1.8125 2.4375
v 1.375 -1.8125 2.4375
v 0.75 -1.8125 0.5625
v 0.6875 -1.8125 0.5625
v 0.75 -1.8125 2.4375
v 0.6875 -1.8125 2.4375
v 1.375 -1.8125 0.625
v 0.75 -1.8125 0.625
v 0.75 -2.5625 0.5625
v 1.0625 -1.8125 0.625
v 1.0625 -1.8125 0.5625
v 1.0625 -2.5625 0.5625
v 0.6875 -2.5625 0.5625
v 1.0625 -2.5625 2.4375
v 0.75 -1.8125 2.375
v 0.75 -2.5625 2.4375
v 1.375 -1.8125 2.375
v 1.375 -2.5625 2.4375
v 1.0625 -1.8125 2.375
v 1.0625 -1.8125 2.4375
v 1.4375 -2.5625 2.4375
v 1.4375 -2.5625 0.5625
v 1.375 -1.8125 1.5
v 1.4375 -1.8125 1.5
v 1.4375 -2.5625 1.5
v 0.6875 -2.5625 2.4375
v 0.75 -1.8125 1.5
v 0.6875 -1.8125 1.5
v 0.6875 -2.5625 1.5
v 1.5 -1.8125 2.4375
v 1.5 -1.8125 0.5625
v 1.5 -2 2.4375
v 1.5 -2 0.5625
v 1.4375 -1.8125 2.4375
v 1.4375 -1.8125 0.5625
v 1.4375 -2 2.4375
v 1.4375 -2 0.5625
v 0.625 -1.8125 2.4375
v 0.625 -1.8125 0.5625
v 0.625 -2 2.4375
v 0.625 -2 0.5625
v 0.6875 -1.8125 2.4375
v 0.6875 -1.8125 0.5625
v 0.6875 -2 2.4375
v 0.6875 -2 0.5625
v 1.5 -1.8125 0.5625
v 1.5 -1.8125 0.5
v 1.5 -2 0.5625
v 1.5 -2 0.5
v 0.625 -1.8125 0.5625
v 0.625 -1.8125 0.5
v 0.625 -2 0.5625
v 0.625 -2 0.5
v 1.5 -1.8125 2.4375
v 1.5 -1.8125 2.5
v 1.5 -2 2.4375
v 1.5 -2 2.5
v 0.625 -1.8125 2.4375
v 0.625 -1.8125 2.5
v 0.625 -2 2.4375
v 0.625 -2 2.5
v 1.5 -2.4375 2.4375
v 1.5 -2.4375 2.5
v 1.5 -2.5625 2.5
v 0.625 -2.4375 2.4375
v 0.625 -2.4375 2.5
v 0.625 -2.5625 2.5
v 0.625 -2.5625 2.4375
v 1.5 -2.5625 2.4375
v 1.5 -2.4375 2.4375
v 1.5 -2.4375 0.5625
v 1.5 -2.5625 2.4375
v 1.5 -2.5625 0.5625
v 1.4375 -2.4375 2.4375
v 1.4375 -2.4375 0.5625
v 0.625 -2.4375 2.4375
v 0.6312500000000001 -2.4375 0.5625
v 0.625 -2.5625 2.4375
v 0.6312500000000001 -2.5625 0.5625
v 0.6875 -2.4375 2.4375
v 0.6875 -2.4375 0.5625
v 1.5 -2.4375 0.5625
v 1.5 -2.4375 0.5
v 1.5 -2.5625 0.5
v 0.625 -2.4375 0.5625
v 0.625 -2.4375 0.5
v 0.625 -2.5625 0.5
v 0.625 -2.5625 0.5625
v 1.5 -2.5625 0.5625
v 1.4875 -2.04461875 2.4160331250000002
v 1.4875 -2.2058568750000003 0.5730725
v 1.4875 -2.169143125 2.4269275
v 1.4875 -2.3303812500000003 0.583966875
v 1.425 -2.04461875 2.4160331250000002
v 1.425 -2.2058568750000003 0.5730725
v 1.425 -2.169143125 2.4269275
v 1.425 -2.3303812500000003 0.583966875
v 1.49375 -1.9801606250000001 0.958894375
v 1.49375 -2.00186625 0.8357931249999999
v 1.49375 -2.43563375 1.039206875
v 1.49375 -2.4573400000000003 0.9161056249999999
v 1.43125 -1.9801606250000001 0.958894375
v 1.43125 -2.00186625 0.8357931249999999
v 1.43125 -2.43563375 1.039206875
v 1.43125 -2.4573400000000003 0.9161056249999999
v 1.49375 -1.9829331250000002 1.9578925
v 1.49375 -1.9938275 2.082416875
v 1.49375 -2.443673125 1.917583125
v 1.49375 -2.4545675 2.0421075
v 1.43125 -1.9829331250000002 1.9578925
v 1.43125 -1.9938275 2.082416875
v 1.43125 -2.443673125 1.917583125
v 1.43125 -2.4545675 2.0421075
v 1.49375 -1.994305625 1.3237243749999998
v 1.49375 -1.9672506250000001 1.4457612499999999
v 1.49375 -2.47025 1.42923875
v 1.49375 -2.4431950000000002 1.551275625
v 1.43125 -1.994305625 1.3237243749999998
v 1.43125 -1.9672506250000001 1.4457612499999999
v 1.43125 -2.47025 1.42923875
v 1.43125 -2.4431950000000002 1.551275625
v 1.3109 -1.99763625 0.50625
v 1.186969375 -1.9813206250000002 0.50625
v 1.25053125 -2.4561800000000003 0.50625
v 1.126600625 -2.43986375 0.50625
v 1.3109 -1.99763625 0.56875
v 1.186969375 -1.9813206250000002 0.56875
v 1.25053125 -2.4561800000000003 0.56875
v 1.126600625 -2.43986375 0.56875
v 0.6312500000000001 -1.9801606250000001 0.958894375
v 0.6312500000000001 -2.00186625 0.8357931249999999
v 0.6312500000000001 -2.43563375 1.039206875
v 0.6312500000000001 -2.4573400000000003 0.9161056249999999
v 0.6937500000000001 -1.9801606250000001 0.958894375
v 0.6937500000000001 -2.00186625 0.8357931249999999
v 0.6937500000000001 -2.43563375 1.039206875
v 0.6937500000000001 -2.4573400000000003 0.9161056249999999
v 0.6375 -2.04461875 2.4160331250000002
v 0.6375 -2.2058568750000003 0.5730725
v 0.6375 -2.169143125 2.4269275
v 0.6375 -2.3303812500000003 0.583966875
v 0.7 -2.04461875 2.4160331250000002
v 0.7 -2.2058568750000003 0.5730725
v 0.7 -2.169143125 2.4269275
v 0.7 -2.3303812500000003 0.583966875
v 0.6312500000000001 -1.994305625 1.3237243749999998
v 0.6312500000000001 -1.9672506250000001 1.4457612499999999
v 0.6312500000000001 -2.47025 1.42923875
v 0.6312500000000001 -2.4431950000000002 1.551275625
v 0.6937500000000001 -1.994305625 1.3237243749999998
v 0.6937500000000001 -1.9672506250000001 1.4457612499999999
v 0.6937500000000001 -2.47025 1.42923875
v 0.6937500000000001 -2.4431950000000002 1.551275625
v 0.6312500000000001 -1.9829331250000002 1.9578925
v 0.6312500000000001 -1.9938275 2.082416875
v 0.6312500000000001 -2.443673125 1.917583125
v 0.6312500000000001 -2.4545675 2.0421075
v 0.6937500000000001 -1.9829331250000002 1.9578925
v 0.6937500000000001 -1.9938275 2.082416875
v 0.6937500000000001 -2.443673125 1.917583125
v 0.6937500000000001 -2.4545675 2.0421075
v 0.93803125 -1.9813206250000002 0.50625
v 0.814100625 -1.99763625 0.50625
v 0.9984 -2.43986375 0.50625
v 0.874469375 -2.4561800000000003 0.50625
v 0.93803125 -1.9813206250000002 0.56875
v 0.814100625 -1.99763625 0.56875
v 0.9984 -2.43986375 0.56875
v 0.874469375 -2.4561800000000003 0.56875
v 1.359399375 -2.0716843750000002 0.5625
v 1.359399375 -2.0716843750000002 0.5
v 1.381105625 -2.194785625 0.5625
v 1.381105625 -2.194785625 0.5
v 0.743895 -2.180215 0.5625
v 0.743895 -2.180215 0.5
v 0.765600625 -2.303315625 0.5625
v 0.765600625 -2.303315625 0.5
v 1.359399375 -2.0716843750000002 2.4375
v 1.359399375 -2.0716843750000002 2.5
v 1.381105625 -2.194785625 2.4375
v 1.381105625 -2.194785625 2.5
v 0.743895 -2.180215 2.4375
v 0.743895 -2.180215 2.5
v 0.765600625 -2.303315625 2.4375
v 0.765600625 -2.303315625 2.5
v 1.3109 -1.99763625 2.49375
v 1.186969375 -1.9813206250000002 2.49375
v 1.25053125 -2.4561800000000003 2.49375
v 1.126600625 -2.43986375 2.49375
v 1.3109 -1.99763625 2.43125
v 1.186969375 -1.9813206250000002 2.43125
v 1.25053125 -2.4561800000000003 2.43125
v 1.126600625 -2.43986375 2.43125
v 0.93803125 -1.9813206250000002 2.49375
v 0.814100625 -1.99763625 2.49375
v 0.9984 -2.43986375 2.49375
v 0.874469375 -2.4561800000000003 2.49375
v 0.93803125 -1.9813206250000002 2.43125
v 0.814100625 -1.99763625 2.43125
v 0.9984 -2.43986375 2.43125
v 0.874469375 -2.4561800000000003 2.43125
vt 0.328125 0.96875
vt 0.40625 0.96875
vt 0.40625 0.984375
vt 0.328125 0.984375
vt 0.53125 0.859375
vt 0.453125 0.859375
vt 0.453125 0.671875
vt 0.53125 0.671875
vt 0.484375 0.984375
vt 0.40625 0.984375
vt 0.40625 0.96875
vt 0.484375 0.96875
vt 0.375 0.671875
vt 0.453125 0.671875
vt 0.453125 0.859375
vt 0.375 0.859375
vt 0.34375 0.96875
vt 0.421875 0.96875
vt 0.421875 0.984375
vt 0.34375 0.984375
vt 0.53125 0.859375
vt 0.453125 0.859375
vt 0.453125 0.671875
vt 0.53125 0.671875
vt 0.5 0.984375
vt 0.421875 0.984375
vt 0.421875 0.96875
vt 0.5 0.96875
vt 0.375 0.671875
vt 0.453125 0.671875
vt 0.453125 0.859375
vt 0.375 0.859375
vt 0.515625 0.859375
vt 0.28125 0.859375
vt 0.28125 0.671875
vt 0.515625 0.671875
vt 0.21875 0.96875
vt 0.453125 0.96875
vt 0.453125 0.984375
vt 0.21875 0.984375
vt 0.296875 0.671875
vt 0.296875 0.859375
vt 0.28125 0.859375
vt 0.28125 0.671875
vt 0.515625 0.671875
vt 0.515625 0.859375
vt 0.5 0.859375
vt 0.5 0.671875
vt 0.453125 0.984375
vt 0.21875 0.984375
vt 0.21875 0.96875
vt 0.453125 0.96875
vt 0.28125 0.671875
vt 0.515625 0.671875
vt 0.515625 0.859375
vt 0.28125 0.859375
vt 0.515625 0.859375
vt 0.28125 0.859375
vt 0.28125 0.671875
vt 0.515625 0.671875
vt 0.40625 0.96875
vt 0.640625 0.96875
vt 0.640625 0.984375
vt 0.40625 0.984375
vt 0.296875 0.671875
vt 0.296875 0.859375
vt 0.28125 0.859375
vt 0.28125 0.671875
vt 0.515625 0.671875
vt 0.515625 0.859375
vt 0.5 0.859375
vt 0.5 0.671875
vt 0.640625 0.984375
vt 0.40625 0.984375
vt 0.40625 0.96875
vt 0.640625 0.96875
vt 0.28125 0.671875
vt 0.515625 0.671875
vt 0.515625 0.859375
vt 0.28125 0.859375
vt 0.953125 0.375
vt 1 0.375
vt 1 0.84375
vt 0.953125 0.84375
vt 0.984375 0.84375
vt 0.984375 0.375
vt 1 0.375
vt 1 0.84375
vt 0.984375 0.84375
vt 0.984375 0.375
vt 1 0.375
vt 1 0.84375
vt 1 0.84375
vt 1 0.375
vt 0.953125 0.375
vt 0.953125 0.84375
vt 1 0.375
vt 0.984375 0.375
vt 0.984375 0.84375
vt 1 0.84375
vt 1 0.375
vt 0.984375 0.375
vt 0.984375 0.84375
vt 1 0.84375
vt 0.953125 0.984375
vt 1 0.984375
vt 1 1
vt 0.953125 1
vt 0.953125 0.984375
vt 1 0.984375
vt 1 1
vt 0.953125 1
vt 0.984375 0.78125
vt 1 0.78125
vt 1 1
vt 0.984375 1
vt 0.984375 0.78125
vt 1 0.78125
vt 1 1
vt 0.984375 1
vt 0.953125 0.78125
vt 1 0.78125
vt 1 1
vt 0.953125 1
vt 1 1
vt 1 0.984375
vt 0.953125 0.984375
vt 0.953125 1
vt 1 1
vt 1 0.984375
vt 0.953125 0.984375
vt 0.953125 1
vt 1 1
vt 1 0.78125
vt 0.984375 0.78125
vt 0.984375 1
vt 1 1
vt 1 0.78125
vt 0.984375 0.78125
vt 0.984375 1
vt 1 1
vt 1 0.78125
vt 0.953125 0.78125
vt 0.953125 1
vt 0.265625 0.625
vt 0.484375 0.625
vt 0.484375 0.609375
vt 0.265625 0.609375
vt 0.265625 0.625
vt 0.484375 0.625
vt 0.484375 0.59375
vt 0.265625 0.59375
vt 0.28125 0.625
vt 0.296875 0.625
vt 0.296875 0.59375
vt 0.28125 0.59375
vt 0.265625 0.625
vt 0.28125 0.625
vt 0.28125 0.59375
vt 0.265625 0.59375
vt 0.640625 0.59375
vt 0.640625 0.625
vt 0.171875 0.625
vt 0.171875 0.59375
vt 0.171875 0.578125
vt 0.640625 0.578125
vt 0.640625 0.59375
vt 0.171875 0.59375
vt 0.171875 0.625
vt 0.640625 0.625
vt 0.640625 0.59375
vt 0.171875 0.59375
vt 0.640625 0.59375
vt 0.640625 0.578125
vt 0.171875 0.578125
vt 0.171875 0.59375
vt 0.484375 0.609375
vt 0.484375 0.625
vt 0.265625 0.625
vt 0.265625 0.609375
vt 0.484375 0.59375
vt 0.484375 0.625
vt 0.265625 0.625
vt 0.265625 0.59375
vt 0.296875 0.59375
vt 0.296875 0.625
vt 0.28125 0.625
vt 0.28125 0.59375
vt 0.28125 0.59375
vt 0.28125 0.625
vt 0.265625 0.625
vt 0.265625 0.59375
vt 0.578125 0.9375
vt 0.578125 0.96875
vt 0.109375 0.96875
vt 0.109375 0.9375
vt 0.125 0.953125
vt 0.59375 0.953125
vt 0.59375 0.96875
vt 0.125 0.96875
vt 0.109375 0.9375
vt 0.578125 0.9375
vt 0.578125 0.953125
vt 0.109375 0.953125
vt 0.21875 0.9375
vt 0.21875 0.96875
vt 0.203125 0.96875
vt 0.203125 0.9375
vt 0.359375 0.9375
vt 0.359375 0.96875
vt 0.34375 0.96875
vt 0.34375 0.9375
vt 0.25 0.96875
vt 0.359375 0.96875
vt 0.359375 1
vt 0.25 1
vt 0.25 0.984375
vt 0.359375 0.984375
vt 0.359375 1
vt 0.25 1
vt 0.25 0.96875
vt 0.359375 0.96875
vt 0.359375 0.984375
vt 0.25 0.984375
vt 0.359375 1
vt 0.359375 0.96875
vt 0.25 0.96875
vt 0.25 1
vt 0.359375 1
vt 0.359375 0.984375
vt 0.25 0.984375
vt 0.25 1
vt 0.359375 0.984375
vt 0.359375 0.96875
vt 0.25 0.96875
vt 0.25 0.984375
vt 0.359375 1
vt 0.359375 0.96875
vt 0.25 0.96875
vt 0.25 1
vt 0.359375 1
vt 0.359375 0.984375
vt 0.25 0.984375
vt 0.25 1
vt 0.359375 0.984375
vt 0.359375 0.96875
vt 0.25 0.96875
vt 0.25 0.984375
vt 0.25 0.96875
vt 0.359375 0.96875
vt 0.359375 1
vt 0.25 1
vt 0.25 0.984375
vt 0.359375 0.984375
vt 0.359375 1
vt 0.25 1
vt 0.25 0.96875
vt 0.359375 0.96875
vt 0.359375 0.984375
vt 0.25 0.984375
vt 0.359375 1
vt 0.359375 0.96875
vt 0.25 0.96875
vt 0.25 1
vt 0.359375 1
vt 0.359375 0.984375
vt 0.25 0.984375
vt 0.25 1
vt 0.359375 0.984375
vt 0.359375 0.96875
vt 0.25 0.96875
vt 0.25 0.984375
vt 0.109375 0.96875
vt 0.578125 0.96875
vt 0.578125 0.9375
vt 0.109375 0.9375
vt 0.59375 0.96875
vt 0.59375 0.953125
vt 0.125 0.953125
vt 0.125 0.96875
vt 0.578125 0.953125
vt 0.578125 0.9375
vt 0.109375 0.9375
vt 0.109375 0.953125
vt 0.203125 0.96875
vt 0.21875 0.96875
vt 0.21875 0.9375
vt 0.203125 0.9375
vt 0.34375 0.96875
vt 0.359375 0.96875
vt 0.359375 0.9375
vt 0.34375 0.9375
vt 0.25 0.96875
vt 0.359375 0.96875
vt 0.359375 1
vt 0.25 1
vt 0.25 0.984375
vt 0.359375 0.984375
vt 0.359375 1
vt 0.25 1
vt 0.25 0.96875
vt 0.359375 0.96875
vt 0.359375 0.984375
vt 0.25 0.984375
vt 0.25 0.96875
vt 0.359375 0.96875
vt 0.359375 1
vt 0.25 1
vt 0.25 0.984375
vt 0.359375 0.984375
vt 0.359375 1
vt 0.25 1
vt 0.25 0.96875
vt 0.359375 0.96875
vt 0.359375 0.984375
vt 0.25 0.984375
vt 0.25 0.96875
vt 0.359375 0.96875
vt 0.359375 1
vt 0.25 1
vt 0.25 0.984375
vt 0.359375 0.984375
vt 0.359375 1
vt 0.25 1
vt 0.25 0.96875
vt 0.359375 0.96875
vt 0.359375 0.984375
vt 0.25 0.984375
vt 0.140625 0.578125
vt 0.140625 0.609375
vt 0.125 0.609375
vt 0.125 0.578125
vt 0.15625 0.578125
vt 0.15625 0.609375
vt 0.140625 0.609375
vt 0.140625 0.578125
vt 0.296875 0.578125
vt 0.296875 0.59375
vt 0.140625 0.59375
vt 0.140625 0.578125
vt 0.296875 0.609375
vt 0.296875 0.625
vt 0.140625 0.625
vt 0.140625 0.609375
vt 0.28125 0.578125
vt 0.28125 0.609375
vt 0.125 0.609375
vt 0.125 0.578125
vt 0.125 0.609375
vt 0.140625 0.609375
vt 0.140625 0.578125
vt 0.125 0.578125
vt 0.140625 0.609375
vt 0.15625 0.609375
vt 0.15625 0.578125
vt 0.140625 0.578125
vt 0.140625 0.59375
vt 0.296875 0.59375
vt 0.296875 0.578125
vt 0.140625 0.578125
vt 0.140625 0.625
vt 0.296875 0.625
vt 0.296875 0.609375
vt 0.140625 0.609375
vt 0.125 0.609375
vt 0.28125 0.609375
vt 0.28125 0.578125
vt 0.125 0.578125
vt 0.359375 1
vt 0.359375 0.96875
vt 0.25 0.96875
vt 0.25 1
vt 0.359375 1
vt 0.359375 0.984375
vt 0.25 0.984375
vt 0.25 1
vt 0.359375 0.984375
vt 0.359375 0.96875
vt 0.25 0.96875
vt 0.25 0.984375
vt 0.359375 1
vt 0.359375 0.96875
vt 0.25 0.96875
vt 0.25 1
vt 0.359375 1
vt 0.359375 0.984375
vt 0.25 0.984375
vt 0.25 1
vt 0.359375 0.984375
vt 0.359375 0.96875
vt 0.25 0.96875
vt 0.25 0.984375
vn 0 1 0
vn 0 0 -1
vn 0 1 0
vn 0 0 -1
vn 0 1 0
vn 0 0 1
vn 0 1 0
vn 0 0 1
vn 1 0 0
vn 0 1 0
vn 0 0 1
vn 0 0 -1
vn 0 1 0
vn 1 0 0
vn -1 0 0
vn 0 1 0
vn 0 0 -1
vn 0 0 1
vn 0 1 0
vn -1 0 0
vn 1 0 0
vn 0 1 0
vn 0 -1 0
vn -1 0 0
vn 0 1 0
vn 0 -1 0
vn 1 0 0
vn -1 0 0
vn 0 1 0
vn 0 -1 0
vn 0 0 -1
vn 1 0 0
vn -1 0 0
vn 0 1 0
vn 0 -1 0
vn 0 0 1
vn 0 1 0
vn 0 0 1
vn -1 0 0
vn 1 0 0
vn 1 0 0
vn 0 1 0
vn -0.9999944444907405 0 -0.003333314814969153
vn 0 1 0
vn 0 1 0
vn 0 0 -1
vn -1 0 0
vn 1 0 0
vn 1 0 0
vn 0 0.996194699828797 -0.08715572289306674
vn 0 -0.996194699828797 0.08715572289306674
vn 0 0.0871549794292485 0.9961947648731585
vn 0 -0.08715497942924849 -0.9961947648731584
vn 1 0 0
vn 0 0.17364880481705705 0.9848076424285139
vn 0 -0.1736485737216519 -0.9848076831769929
vn 1 0 0
vn 0 0.08715541695389689 -0.9961947265949527
vn 0 -0.08715541695389678 0.9961947265949527
vn 1 0 0
vn 0 -0.21643970651146213 -0.9762959865969093
vn 0 0.2164397065114621 0.9762959865969093
vn 0 0 -1
vn 0.9914447718196607 -0.13052687244954955 0
vn -0.9914447487963114 0.13052704732820347 0
vn -1 0 0
vn 0 0.17364880481705705 0.9848076424285139
vn 0 -0.1736485737216519 -0.9848076831769929
vn -1 0 0
vn 0 0.996194699828797 -0.08715572289306674
vn 0 -0.996194699828797 0.08715572289306674
vn 0 0.0871549794292485 0.9961947648731585
vn 0 -0.08715497942924849 -0.9961947648731584
vn -1 0 0
vn 0 -0.21643970651146213 -0.9762959865969093
vn 0 0.2164397065114621 0.9762959865969093
vn -1 0 0
vn 0 0.08715541695389689 -0.9961947265949527
vn 0 -0.08715541695389678 0.9961947265949527
vn 0 0 -1
vn 0.9914447487963114 0.13052704732820344 0
vn -0.9914447718196607 -0.13052687244954955 0
vn 0.9848075091295174 0.17364956078872124 0
vn -0.9848082134098228 -0.17364556660206715 0
vn -0.17364910397677338 0.984807589678341 0
vn 0.17364796311995495 -0.9848077908426045 0
vn 0 0 -1
vn 0.9848075091295174 0.17364956078872124 0
vn -0.9848082134098228 -0.17364556660206715 0
vn -0.17364910397677338 0.984807589678341 0
vn 0.17364796311995495 -0.9848077908426045 0
vn 0 0 1
vn 0 0 1
vn 0.9914447718196607 -0.13052687244954955 0
vn -0.9914447487963114 0.13052704732820347 0
vn 0 0 1
vn 0.9914447487963114 0.13052704732820344 0
vn -0.9914447718196607 -0.13052687244954955 0
usemtl base_wooden
f 11/1/1 13/2/1 14/3/1
f 11/1/1 14/3/1 6/4/1
f 6/5/2 14/6/2 15/7/2
f 6/5/2 15/7/2 12/8/2
f 3/9/3 14/10/3 13/11/3
f 3/9/3 13/11/3 10/12/3
f 1/13/4 15/14/4 14/15/4
f 1/13/4 14/15/4 3/16/4
f 20/17/5 22/18/5 23/19/5
f 20/17/5 23/19/5 5/20/5
f 5/21/6 23/22/6 17/23/6
f 5/21/6 17/23/6 21/24/6
f 8/25/7 23/26/7 22/27/7
f 8/25/7 22/27/7 18/28/7
f 19/29/8 17/30/8 23/31/8
f 19/29/8 23/31/8 8/32/8
f 2/33/9 27/34/9 28/35/9
f 2/33/9 28/35/9 25/36/9
f 3/37/10 26/38/10 27/39/10
f 3/37/10 27/39/10 2/40/10
f 24/41/11 4/42/11 5/43/11
f 24/41/11 5/43/11 21/44/11
f 1/45/12 3/46/12 2/47/12
f 1/45/12 2/47/12 25/48/12
f 4/49/13 27/50/13 26/51/13
f 4/49/13 26/51/13 5/52/13
f 24/53/14 28/54/14 27/55/14
f 24/53/14 27/55/14 4/56/14
f 9/57/15 31/58/15 32/59/15
f 9/57/15 32/59/15 29/60/15
f 8/61/16 30/62/16 31/63/16
f 8/61/16 31/63/16 9/64/16
f 16/65/17 7/66/17 6/67/17
f 16/65/17 6/67/17 12/68/17
f 19/69/18 8/70/18 9/71/18
f 19/69/18 9/71/18 29/72/18
f 7/73/19 31/74/19 30/75/19
f 7/73/19 30/75/19 6/76/19
f 16/77/20 32/78/20 31/79/20
f 16/77/20 31/79/20 7/80/20
f 36/81/21 34/82/21 33/83/21
f 36/81/21 33/83/21 35/84/21
f 33/85/22 34/86/22 38/87/22
f 33/85/22 38/87/22 37/88/22
f 36/89/23 35/90/23 39/91/23
f 36/89/23 39/91/23 40/92/23
f 41/93/24 42/94/24 44/95/24
f 41/93/24 44/95/24 43/96/24
f 46/97/25 42/98/25 41/99/25
f 46/97/25 41/99/25 45/100/25
f 47/101/26 43/102/26 44/103/26
f 47/101/26 44/103/26 48/104/26
f 52/105/27 50/106/27 49/107/27
f 52/105/27 49/107/27 51/108/27
f 55/109/28 53/110/28 54/111/28
f 55/109/28 54/111/28 56/112/28
f 49/113/29 50/114/29 54/115/29
f 49/113/29 54/115/29 53/116/29
f 52/117/30 51/118/30 55/119/30
f 52/117/30 55/119/30 56/120/30
f 56/121/31 54/122/31 50/123/31
f 56/121/31 50/123/31 52/124/31
f 57/125/32 58/126/32 60/127/32
f 57/125/32 60/127/32 59/128/32
f 62/129/33 61/130/33 63/131/33
f 62/129/33 63/131/33 64/132/33
f 62/133/34 58/134/34 57/135/34
f 62/133/34 57/135/34 61/136/34
f 63/137/35 59/138/35 60/139/35
f 63/137/35 60/139/35 64/140/35
f 58/141/36 62/142/36 64/143/36
f 58/141/36 64/143/36 60/144/36
f 69/145/37 66/146/37 65/147/37
f 69/145/37 65/147/37 68/148/37
f 66/149/38 69/150/38 70/151/38
f 66/149/38 70/151/38 67/152/38
f 69/153/39 68/154/39 71/155/39
f 69/153/39 71/155/39 70/156/39
f 65/157/40 66/158/40 67/159/40
f 65/157/40 67/159/40 72/160/40
f 76/161/41 74/162/41 73/163/41
f 76/161/41 73/163/41 75/164/41
f 73/165/42 74/166/42 78/167/42
f 73/165/42 78/167/42 77/168/42
f 79/169/43 80/170/43 82/171/43
f 79/169/43 82/171/43 81/172/43
f 84/173/44 80/174/44 79/175/44
f 84/173/44 79/175/44 83/176/44
f 85/177/45 86/178/45 89/179/45
f 85/177/45 89/179/45 88/180/45
f 90/181/46 89/182/46 86/183/46
f 90/181/46 86/183/46 87/184/46
f 91/185/47 88/186/47 89/187/47
f 91/185/47 89/187/47 90/188/47
f 87/189/48 86/190/48 85/191/48
f 87/189/48 85/191/48 92/192/48
f 96/193/49 94/194/49 93/195/49
f 96/193/49 93/195/49 95/196/49
f 93/197/50 94/198/50 98/199/50
f 93/197/50 98/199/50 97/200/50
f 96/201/51 95/202/51 99/203/51
f 96/201/51 99/203/51 100/204/51
f 95/205/52 93/206/52 97/207/52
f 95/205/52 97/207/52 99/208/52
f 100/209/53 98/210/53 94/211/53
f 100/209/53 94/211/53 96/212/53
f 104/213/54 102/214/54 101/215/54
f 104/213/54 101/215/54 103/216/54
f 103/217/55 101/218/55 105/219/55
f 103/217/55 105/219/55 107/220/55
f 108/221/56 106/222/56 102/223/56
f 108/221/56 102/223/56 104/224/56
f 109/225/57 110/226/57 112/227/57
f 109/225/57 112/227/57 111/228/57
f 113/229/58 109/230/58 111/231/58
f 113/229/58 111/231/58 115/232/58
f 110/233/59 114/234/59 116/235/59
f 110/233/59 116/235/59 112/236/59
f 117/237/60 118/238/60 120/239/60
f 117/237/60 120/239/60 119/240/60
f 121/241/61 117/242/61 119/243/61
f 121/241/61 119/243/61 123/244/61
f 118/245/62 122/246/62 124/247/62
f 118/245/62 124/247/62 120/248/62
f 128/249/63 126/250/63 125/251/63
f 128/249/63 125/251/63 127/252/63
f 127/253/64 125/254/64 129/255/64
f 127/253/64 129/255/64 131/256/64
f 132/257/65 130/258/65 126/259/65
f 132/257/65 126/259/65 128/260/65
f 133/261/66 134/262/66 136/263/66
f 133/261/66 136/263/66 135/264/66
f 137/265/67 133/266/67 135/267/67
f 137/265/67 135/267/67 139/268/67
f 134/269/68 138/270/68 140/271/68
f 134/269/68 140/271/68 136/272/68
f 141/273/69 142/274/69 144/275/69
f 141/273/69 144/275/69 143/276/69
f 146/277/70 142/278/70 141/279/70
f 146/277/70 141/279/70 145/280/70
f 147/281/71 143/282/71 144/283/71
f 147/281/71 144/283/71 148/284/71
f 145/285/72 141/286/72 143/287/72
f 145/285/72 143/287/72 147/288/72
f 142/289/73 146/290/73 148/291/73
f 142/289/73 148/291/73 144/292/73
f 152/293/74 150/294/74 149/295/74
f 152/293/74 149/295/74 151/296/74
f 151/297/75 149/298/75 153/299/75
f 151/297/75 153/299/75 155/300/75
f 156/301/76 154/302/76 150/303/76
f 156/301/76 150/303/76 152/304/76
f 160/305/77 158/306/77 157/307/77
f 160/305/77 157/307/77 159/308/77
f 159/309/78 157/310/78 161/311/78
f 159/309/78 161/311/78 163/312/78
f 164/313/79 162/314/79 158/315/79
f 164/313/79 158/315/79 160/316/79
f 168/317/80 166/318/80 165/319/80
f 168/317/80 165/319/80 167/320/80
f 167/321/81 165/322/81 169/323/81
f 167/321/81 169/323/81 171/324/81
f 172/325/82 170/326/82 166/327/82
f 172/325/82 166/327/82 168/328/82
f 176/329/83 174/330/83 173/331/83
f 176/329/83 173/331/83 175/332/83
f 179/333/84 177/334/84 178/335/84
f 179/333/84 178/335/84 180/336/84
f 173/337/85 174/338/85 178/339/85
f 173/337/85 178/339/85 177/340/85
f 176/341/86 175/342/86 179/343/86
f 176/341/86 179/343/86 180/344/86
f 180/345/87 178/346/87 174/347/87
f 180/345/87 174/347/87 176/348/87
f 181/349/88 182/350/88 184/351/88
f 181/349/88 184/351/88 183/352/88
f 186/353/89 185/354/89 187/355/89
f 186/353/89 187/355/89 188/356/89
f 186/357/90 182/358/90 181/359/90
f 186/357/90 181/359/90 185/360/90
f 187/361/91 183/362/91 184/363/91
f 187/361/91 184/363/91 188/364/91
f 182/365/92 186/366/92 188/367/92
f 182/365/92 188/367/92 184/368/92
f 189/369/93 190/370/93 192/371/93
f 189/369/93 192/371/93 191/372/93
f 193/373/94 189/374/94 191/375/94
f 193/373/94 191/375/94 195/376/94
f 190/377/95 194/378/95 196/379/95
f 190/377/95 196/379/95 192/380/95
f 197/381/96 198/382/96 200/383/96
f 197/381/96 200/383/96 199/384/96
f 201/385/97 197/386/97 199/387/97
f 201/385/97 199/387/97 203/388/97
f 198/389/98 202/390/98 204/391/98
f 198/389/98 204/391/98 200/392/98