# Made by Pabilo8 with Blockbench
# Exported with IIToolkit Plugin
mtllib variants.mtl


o style
v 0.625 -2.5625 2.1875
v 1.375 -2.5625 0.5625
v 1.4375 -1.8125 0.5625
v 1.375 -1.8125 0.5625
v 1.4375 -1.8125 2.4375
v 1.4375 -1.8125 2.25
v 1.375 -1.8125 2.4375
v 0.75 -1.8125 0.5625
v 0.6875 -1.8125 0.75
v 0.6875 -1.8125 0.5625
v 0.6875 -1.8125 1.375
v 0.75 -1.8125 2.4375
v 0.6875 -1.8125 2.4375
v 1.375 -1.8125 0.625
v 1.375 -2.5625 0.625
v 0.75 -1.8125 0.625
v 0.75 -2.5625 0.625
v 0.75 -2.5625 0.5625
v 1.0625 -1.8125 0.625
v 1.0625 -2.5625 0.625
v 1.0625 -1.8125 0.5625
v 1.0625 -2.5625 0.5625
v 0.875 -1.9375 0.5625
v 0.875 -1.9375 0.5
v 0.875 -2.1875 0.5625
v 0.875 -2.1875 0.5
v 0.625 -1.9375 0.5625
v 0.625 -1.9375 0.5
v 0.625 -2.1875 0.5625
v 0.625 -2.1875 0.5
v 1.125 -2.3125 0.5625
v 1.125 -2.3125 0.5
v 1.125 -2.5625 0.5625
v 1.125 -2.5625 0.5
v 0.6875 -2.3125 0.5625
v 0.6875 -2.3125 0.5
v 0.6875 -2.5625 0.5625
v 0.6875 -2.5625 0.5
v 1.4375 -2.0625 0.5625
v 1.4375 -2.0625 0.5
v 1.4375 -2.3125 0.5625
v 1.4375 -2.3125 0.5
v 1 -2.0625 0.5625
v 1 -2.0625 0.5
v 1 -2.3125 0.5625
v 1 -2.3125 0.5
v 1.5 -1.8125 0.5625
v 1.5 -1.8125 0.5
v 1.5 -2.0625 0.5625
v 1.5 -2.0625 0.5
v 1.25 -1.8125 0.5625
v 1.25 -1.8125 0.5
v 1.25 -2.0625 0.5625
v 1.25 -2.0625 0.5
v 0.625 -1.8125 2.4375
v 0.625 -1.8125 2.5
v 0.625 -2.0625 2.4375
v 0.625 -2.0625 2.5
v 0.875 -1.8125 2.4375
v 0.875 -1.8125 2.5
v 0.875 -2.0625 2.4375
v 0.875 -2.0625 2.5
v 0.6875 -2.0625 2.4375
v 0.6875 -2.0625 2.5
v 0.6875 -2.3125 2.4375
v 0.6875 -2.3125 2.5
v 1.125 -2.0625 2.4375
v 1.125 -2.0625 2.5
v 1.125 -2.3125 2.4375
v 1.125 -2.3125 2.5
v 1.0625 -2.3125 2.4375
v 1.0625 -2.3125 2.5
v 1.0625 -2.5625 2.4375
v 1.0625 -2.5625 2.5
v 1.5 -2.3125 2.4375
v 1.5 -2.3125 2.5
v 1.5 -2.5625 2.4375
v 1.5 -2.5625 2.5
v 1.25 -1.9375 2.4375
v 1.25 -1.9375 2.5
v 1.25 -2.1875 2.4375
v 1.25 -2.1875 2.5
v 1.5 -1.9375 2.4375
v 1.5 -1.9375 2.5
v 1.5 -2.1875 2.4375
v 1.5 -2.1875 2.5
v 0.75 -1.8125 2.375
v 0.75 -2.5625 2.375
v 0.75 -2.5625 2.4375
v 1.375 -1.8125 2.375
v 1.375 -2.5625 2.375
v 1.375 -2.5625 2.4375
v 1.0625 -1.8125 2.375
v 1.0625 -2.5625 2.375
v 1.0625 -1.8125 2.4375
v 1.5 -1.8125 2.25
v 1.5 -1.8125 1.8125
v 1.5 -2.0625 2.25
v 1.5 -2.0625 1.8125
v 1.4375 -1.8125 1.8125
v 1.4375 -2.0625 2.25
v 1.4375 -2.0625 1.8125
v 1.5 -1.9375 2.25
v 1.5 -2.1875 2.25
v 1.4375 -1.9375 2.4375
v 1.4375 -1.9375 2.25
v 1.4375 -2.1875 2.4375
v 1.4375 -2.1875 2.25
v 1.5 -2.0625 2.0625
v 1.5 -2.0625 1.625
v 1.5 -2.3125 2.0625
v 1.5 -2.3125 1.625
v 1.4375 -2.0625 2.0625
v 1.4375 -2.0625 1.625
v 1.4375 -2.3125 2.0625
v 1.4375 -2.3125 1.625
v 1.5 -2.3125 2
v 1.5 -2.5625 2
v 1.4375 -2.3125 2.4375
v 1.4375 -2.3125 2
v 1.4375 -2.5625 2.4375
v 1.4375 -2.5625 2
v 1.5 -2.1875 1.625
v 1.5 -2.1875 1.375
v 1.5 -2.4375 1.625
v 1.5 -2.4375 1.375
v 1.4375 -2.1875 1.625
v 1.4375 -2.1875 1.375
v 1.4375 -2.4375 1.625
v 1.4375 -2.4375 1.375
v 1.5 -2.3125 1.75
v 1.5 -2.5625 1.75
v 1.4375 -2.3125 1.75
v 1.4375 -2.5625 1.75
v 1.5 -2.3125 1.375
v 1.5 -2.3125 0.9375
v 1.5 -2.5625 1.375
v 1.5 -2.5625 0.9375
v 1.4375 -2.3125 1.375
v 1.4375 -2.3125 0.9375
v 1.4375 -2.5625 1.375
v 1.4375 -2.5625 0.9375
v 1.5 -2.3125 0.8125
v 1.5 -2.3125 0.5625
v 1.5 -2.5625 0.8125
v 1.5 -2.5625 0.5625
v 1.4375 -2.3125 0.8125
v 1.4375 -2.5625 0.8125
v 1.4375 -2.5625 0.5625
v 1.5 -2.0625 1.25
v 1.5 -2.0625 0.8125
v 1.5 -2.3125 1.25
v 1.4375 -2.0625 1.25
v 1.4375 -2.0625 0.8125
v 1.4375 -2.3125 1.25
v 1.5 -1.8125 0.8125
v 1.4375 -1.8125 0.8125
v 1.5 -1.8125 1.625
v 1.5 -1.8125 1.1875
v 1.5 -2.0625 1.1875
v 1.4375 -1.8125 1.625
v 1.4375 -1.8125 1.1875
v 1.4375 -2.0625 1.1875
v 1.375 -1.8125 1.5
v 1.375 -2.5625 1.5
v 1.4375 -1.8125 1.5
v 1.4375 -2.5625 1.5
v 0.6875 -2.5625 2.4375
v 0.75 -1.8125 1.5
v 0.75 -2.5625 1.5
v 0.6875 -1.8125 1.5
v 0.6875 -2.5625 1.5
v 0.625 -1.8125 0.75
v 0.625 -1.8125 1.1875
v 0.625 -2.0625 0.75
v 0.625 -2.0625 1.1875
v 0.6875 -1.8125 1.1875
v 0.6875 -2.0625 0.75
v 0.6875 -2.0625 1.1875
v 0.625 -1.9375 0.75
v 0.625 -2.1875 0.75
v 0.6875 -1.9375 0.5625
v 0.6875 -1.9375 0.75
v 0.6875 -2.1875 0.5625
v 0.6875 -2.1875 0.75
v 0.625 -2.0625 0.9375
v 0.625 -2.0625 1.375
v 0.625 -2.3125 0.9375
v 0.625 -2.3125 1.375
v 0.6875 -2.0625 0.9375
v 0.6875 -2.0625 1.375
v 0.6875 -2.3125 0.9375
v 0.6875 -2.3125 1.375
v 0.625 -2.1875 1.375
v 0.625 -2.1875 1.625
v 0.625 -2.4375 1.375
v 0.625 -2.4375 1.625
v 0.6875 -2.1875 1.375
v 0.6875 -2.1875 1.625
v 0.6875 -2.4375 1.375
v 0.6875 -2.4375 1.625
v 0.625 -2.3125 1
v 0.625 -2.3125 1.25
v 0.625 -2.5625 1
v 0.625 -2.5625 1.25
v 0.6875 -2.3125 1
v 0.6875 -2.3125 1.25
v 0.6875 -2.5625 1
v 0.6875 -2.5625 1.25
v 0.625 -2.3125 1.625
v 0.625 -2.3125 2.0625
v 0.625 -2.5625 1.625
v 0.625 -2.5625 2.0625
v 0.6875 -2.3125 1.625
v 0.6875 -2.3125 2.0625
v 0.6875 -2.5625 1.625
v 0.6875 -2.5625 2.0625
v 0.625 -2.3125 2.1875
v 0.625 -2.3125 2.4375
v 0.625 -2.5625 2.4375
v 0.6875 -2.3125 2.1875
v 0.6875 -2.5625 2.1875
v 0.625 -2.0625 1.75
v 0.625 -2.0625 2.1875
v 0.625 -2.3125 1.75
v 0.6875 -2.0625 1.75
v 0.6875 -2.0625 2.1875
v 0.6875 -2.3125 1.75
v 0.625 -1.8125 2.1875
v 0.6875 -1.8125 2.1875
v 0.625 -1.8125 1.375
v 0.625 -1.8125 1.8125
v 0.625 -2.0625 1.8125
v 0.6875 -1.8125 1.8125
v 0.6875 -2.0625 1.8125
v 1.4375 -1.75 0.5625
v 1.4375 -1.8125 0.5625
v 1.375 -1.75 0.5625
v 1.375 -1.8125 0.5625
v 0.75 -1.75 0.5625
v 0.75 -1.8125 0.5625
v 0.6875 -1.75 0.5625
v 0.6875 -1.8125 0.5625
vt 0.59375 0.65625
vt 0.671875 0.65625
vt 0.671875 0.671875
vt 0.59375 0.671875
vt 0 0.8125
vt 0.078125 0.8125
vt 0.078125 1
vt 0 1
vt 0.75 0.671875
vt 0.671875 0.671875
vt 0.671875 0.484375
vt 0.75 0.484375
vt 0.75 1
vt 0.671875 1
vt 0.671875 0.8125
vt 0.75 0.8125
vt 0.75 0.671875
vt 0.671875 0.671875
vt 0.671875 0.65625
vt 0.75 0.65625
vt 0.59375 0.484375
vt 0.671875 0.484375
vt 0.671875 0.671875
vt 0.59375 0.671875
vt 0.0625 0.59375
vt 0.0625 0.65625
vt 0.046875 0.65625
vt 0.046875 0.59375
vt 0.0625 0.59375
vt 0.0625 0.65625
vt 0.046875 0.65625
vt 0.046875 0.59375
vt 0.109375 0.640625
vt 0.109375 0.65625
vt 0.046875 0.65625
vt 0.046875 0.640625
vt 0.109375 0.640625
vt 0.109375 0.65625
vt 0.046875 0.65625
vt 0.046875 0.640625
vt 0.109375 0.59375
vt 0.109375 0.65625
vt 0.046875 0.65625
vt 0.046875 0.59375
vt 0.390625 0.59375
vt 0.390625 0.65625
vt 0.375 0.65625
vt 0.375 0.59375
vt 0.390625 0.59375
vt 0.390625 0.65625
vt 0.375 0.65625
vt 0.375 0.59375
vt 0.484375 0.640625
vt 0.484375 0.65625
vt 0.375 0.65625
vt 0.375 0.640625
vt 0.484375 0.59375
vt 0.484375 0.65625
vt 0.375 0.65625
vt 0.375 0.59375
vt 0.546875 0.53125
vt 0.546875 0.59375
vt 0.53125 0.59375
vt 0.53125 0.53125
vt 0.546875 0.53125
vt 0.546875 0.59375
vt 0.53125 0.59375
vt 0.53125 0.53125
vt 0.640625 0.578125
vt 0.640625 0.59375
vt 0.53125 0.59375
vt 0.53125 0.578125
vt 0.640625 0.578125
vt 0.640625 0.59375
vt 0.53125 0.59375
vt 0.53125 0.578125
vt 0.640625 0.53125
vt 0.640625 0.59375
vt 0.53125 0.59375
vt 0.53125 0.53125
vt 0.40625 0.59375
vt 0.40625 0.65625
vt 0.390625 0.65625
vt 0.390625 0.59375
vt 0.40625 0.59375
vt 0.40625 0.65625
vt 0.390625 0.65625
vt 0.390625 0.59375
vt 0.453125 0.640625
vt 0.453125 0.65625
vt 0.390625 0.65625
vt 0.390625 0.640625
vt 0.453125 0.640625
vt 0.453125 0.65625
vt 0.390625 0.65625
vt 0.390625 0.640625
vt 0.453125 0.59375
vt 0.453125 0.65625
vt 0.390625 0.65625
vt 0.390625 0.59375
vt 0.40625 0.59375
vt 0.40625 0.65625
vt 0.390625 0.65625
vt 0.390625 0.59375
vt 0.40625 0.59375
vt 0.40625 0.65625
vt 0.390625 0.65625
vt 0.390625 0.59375
vt 0.453125 0.640625
vt 0.453125 0.65625
vt 0.390625 0.65625
vt 0.390625 0.640625
vt 0.453125 0.640625
vt 0.453125 0.65625
vt 0.390625 0.65625
vt 0.390625 0.640625
vt 0.453125 0.59375
vt 0.453125 0.65625
vt 0.390625 0.65625
vt 0.390625 0.59375
vt 0.546875 0.53125
vt 0.546875 0.59375
vt 0.53125 0.59375
vt 0.53125 0.53125
vt 0.546875 0.53125
vt 0.546875 0.59375
vt 0.53125 0.59375
vt 0.53125 0.53125
vt 0.640625 0.578125
vt 0.640625 0.59375
vt 0.53125 0.59375
vt 0.53125 0.578125
vt 0.640625 0.578125
vt 0.640625 0.59375
vt 0.53125 0.59375
vt 0.53125 0.578125
vt 0.640625 0.53125
vt 0.640625 0.59375
vt 0.53125 0.59375
vt 0.53125 0.53125
vt 0.390625 0.59375
vt 0.390625 0.65625
vt 0.375 0.65625
vt 0.375 0.59375
vt 0.390625 0.59375
vt 0.390625 0.65625
vt 0.375 0.65625
vt 0.375 0.59375
vt 0.484375 0.640625
vt 0.484375 0.65625
vt 0.375 0.65625
vt 0.375 0.640625
vt 0.484375 0.59375
vt 0.484375 0.65625
vt 0.375 0.65625
vt 0.375 0.59375
vt 0.0625 0.59375
vt 0.0625 0.65625
vt 0.046875 0.65625
vt 0.046875 0.59375
vt 0.0625 0.59375
vt 0.0625 0.65625
vt 0.046875 0.65625
vt 0.046875 0.59375
vt 0.109375 0.640625
vt 0.109375 0.65625
vt 0.046875 0.65625
vt 0.046875 0.640625
vt 0.109375 0.640625
vt 0.109375 0.65625
vt 0.046875 0.65625
vt 0.046875 0.640625
vt 0.109375 0.59375
vt 0.109375 0.65625
vt 0.046875 0.65625
vt 0.046875 0.59375
vt 0.59375 0.65625
vt 0.671875 0.65625
vt 0.671875 0.671875
vt 0.59375 0.671875
vt 0 0.8125
vt 0.078125 0.8125
vt 0.078125 1
vt 0 1
vt 0.75 0.671875
vt 0.671875 0.671875
vt 0.671875 0.484375
vt 0.75 0.484375
vt 0.75 1
vt 0.671875 1
vt 0.671875 0.8125
vt 0.75 0.8125
vt 0.75 0.671875
vt 0.671875 0.671875
vt 0.671875 0.65625
vt 0.75 0.65625
vt 0.59375 0.484375
vt 0.671875 0.484375
vt 0.671875 0.671875
vt 0.59375 0.671875
vt 0.65625 0.53125
vt 0.65625 0.59375
vt 0.546875 0.59375
vt 0.546875 0.53125
vt 0.65625 0.59375
vt 0.546875 0.59375
vt 0.546875 0.578125
vt 0.65625 0.578125
vt 0.5625 0.53125
vt 0.5625 0.59375
vt 0.546875 0.59375
vt 0.546875 0.53125
vt 0.5625 0.53125
vt 0.5625 0.59375
vt 0.546875 0.59375
vt 0.546875 0.53125
vt 0.1875 0.46875
vt 0.1875 0.53125
vt 0.140625 0.53125
vt 0.140625 0.46875
vt 0.15625 0.484375
vt 0.15625 0.53125
vt 0.140625 0.53125
vt 0.140625 0.484375
vt 0.15625 0.484375
vt 0.15625 0.53125
vt 0.140625 0.53125
vt 0.140625 0.484375
vt 0.15625 0.46875
vt 0.15625 0.53125
vt 0.140625 0.53125
vt 0.140625 0.46875
vt 0.15625 0.46875
vt 0.15625 0.53125
vt 0.140625 0.53125
vt 0.140625 0.46875
vt 0.109375 0.59375
vt 0.109375 0.65625
vt 0 0.65625
vt 0 0.59375
vt 0.109375 0.65625
vt 0 0.65625
vt 0 0.640625
vt 0.109375 0.640625
vt 0.109375 0.65625
vt 0 0.65625
vt 0 0.640625
vt 0.109375 0.640625
vt 0.109375 0.59375
vt 0.109375 0.65625
vt 0.09375 0.65625
vt 0.09375 0.59375
vt 0.109375 0.59375
vt 0.109375 0.65625
vt 0.09375 0.65625
vt 0.09375 0.59375
vt 0.484375 0.59375
vt 0.484375 0.65625
vt 0.375 0.65625
vt 0.375 0.59375
vt 0.484375 0.65625
vt 0.375 0.65625
vt 0.375 0.640625
vt 0.484375 0.640625
vt 0.390625 0.59375
vt 0.390625 0.65625
vt 0.375 0.65625
vt 0.375 0.59375
vt 0.28125 0.46875
vt 0.28125 0.53125
vt 0.21875 0.53125
vt 0.21875 0.46875
vt 0.234375 0.46875
vt 0.234375 0.53125
vt 0.21875 0.53125
vt 0.21875 0.46875
vt 0.234375 0.46875
vt 0.234375 0.53125
vt 0.21875 0.53125
vt 0.21875 0.46875
vt 0.234375 0.46875
vt 0.234375 0.53125
vt 0.21875 0.53125
vt 0.21875 0.46875
vt 0.234375 0.46875
vt 0.234375 0.53125
vt 0.21875 0.53125
vt 0.21875 0.46875
vt 0.234375 0.46875
vt 0.234375 0.53125
vt 0.171875 0.53125
vt 0.171875 0.46875
vt 0.1875 0.46875
vt 0.1875 0.53125
vt 0.171875 0.53125
vt 0.171875 0.46875
vt 0.1875 0.46875
vt 0.1875 0.53125
vt 0.171875 0.53125
vt 0.171875 0.46875
vt 0.1875 0.46875
vt 0.1875 0.53125
vt 0.171875 0.53125
vt 0.171875 0.46875
vt 0.671875 0.53125
vt 0.671875 0.59375
vt 0.5625 0.59375
vt 0.5625 0.53125
vt 0.671875 0.59375
vt 0.5625 0.59375
vt 0.5625 0.578125
vt 0.671875 0.578125
vt 0.578125 0.53125
vt 0.578125 0.59375
vt 0.5625 0.59375
vt 0.5625 0.53125
vt 0.578125 0.53125
vt 0.578125 0.59375
vt 0.5625 0.59375
vt 0.5625 0.53125
vt 0.46875 0.59375
vt 0.46875 0.65625
vt 0.40625 0.65625
vt 0.40625 0.59375
vt 0.421875 0.59375
vt 0.421875 0.65625
vt 0.40625 0.65625
vt 0.40625 0.59375
vt 0.421875 0.59375
vt 0.421875 0.65625
vt 0.40625 0.65625
vt 0.40625 0.59375
vt 0.421875 0.59375
vt 0.421875 0.65625
vt 0.40625 0.65625
vt 0.40625 0.59375
vt 0.28125 0.46875
vt 0.28125 0.53125
vt 0.171875 0.53125
vt 0.171875 0.46875
vt 0.28125 0.53125
vt 0.171875 0.53125
vt 0.171875 0.515625
vt 0.28125 0.515625
vt 0.28125 0.53125
vt 0.171875 0.53125
vt 0.171875 0.515625
vt 0.28125 0.515625
vt 0.1875 0.46875
vt 0.1875 0.53125
vt 0.171875 0.53125
vt 0.171875 0.46875
vt 0.1875 0.46875
vt 0.1875 0.53125
vt 0.171875 0.53125
vt 0.171875 0.46875
vt 0.59375 0.53125
vt 0.59375 0.59375
vt 0.53125 0.59375
vt 0.53125 0.53125
vt 0.546875 0.53125
vt 0.546875 0.59375
vt 0.53125 0.59375
vt 0.53125 0.53125
vt 0.546875 0.53125
vt 0.546875 0.59375
vt 0.53125 0.59375
vt 0.53125 0.53125
vt 0.546875 0.53125
vt 0.546875 0.59375
vt 0.53125 0.59375
vt 0.53125 0.53125
vt 0.546875 0.53125
vt 0.546875 0.59375
vt 0.53125 0.59375
vt 0.53125 0.53125
vt 0.484375 0.59375
vt 0.484375 0.65625
vt 0.375 0.65625
vt 0.375 0.59375
vt 0.484375 0.65625
vt 0.375 0.65625
vt 0.375 0.640625
vt 0.484375 0.640625
vt 0.484375 0.65625
vt 0.375 0.65625
vt 0.375 0.640625
vt 0.484375 0.640625
vt 0.390625 0.59375
vt 0.390625 0.65625
vt 0.375 0.65625
vt 0.375 0.59375
vt 0.390625 0.59375
vt 0.390625 0.65625
vt 0.375 0.65625
vt 0.375 0.59375
vt 0.734375 0.671875
vt 0.5 0.671875
vt 0.5 0.484375
vt 0.734375 0.484375
vt 0 0.8125
vt 0.234375 0.8125
vt 0.234375 1
vt 0 1
vt 0.5 0.65625
vt 0.734375 0.65625
vt 0.734375 0.671875
vt 0.5 0.671875
vt 0.515625 0.484375
vt 0.515625 0.671875
vt 0.5 0.671875
vt 0.5 0.484375
vt 0.734375 0.484375
vt 0.734375 0.671875
vt 0.71875 0.671875
vt 0.71875 0.484375
vt 0.75 1
vt 0.515625 1
vt 0.515625 0.8125
vt 0.75 0.8125
vt 0.734375 0.671875
vt 0.5 0.671875
vt 0.5 0.65625
vt 0.734375 0.65625
vt 0.5 0.484375
vt 0.734375 0.484375
vt 0.734375 0.671875
vt 0.5 0.671875
vt 0.65625 0.59375
vt 0.546875 0.59375
vt 0.546875 0.578125
vt 0.65625 0.578125
vt 0.734375 0.671875
vt 0.5 0.671875
vt 0.5 0.484375
vt 0.734375 0.484375
vt 0 0.8125
vt 0.234375 0.8125
vt 0.234375 1
vt 0 1
vt 0.5 0.65625
vt 0.734375 0.65625
vt 0.734375 0.671875
vt 0.5 0.671875
vt 0.515625 0.484375
vt 0.515625 0.671875
vt 0.5 0.671875
vt 0.5 0.484375
vt 0.734375 0.484375
vt 0.734375 0.671875
vt 0.71875 0.671875
vt 0.71875 0.484375
vt 0.75 1
vt 0.515625 1
vt 0.515625 0.8125
vt 0.75 0.8125
vt 0.734375 0.671875
vt 0.5 0.671875
vt 0.5 0.65625
vt 0.734375 0.65625
vt 0.5 0.484375
vt 0.734375 0.484375
vt 0.734375 0.671875
vt 0.5 0.671875
vt 0.65625 0.53125
vt 0.65625 0.59375
vt 0.546875 0.59375
vt 0.546875 0.53125
vt 0.65625 0.59375
vt 0.546875 0.59375
vt 0.546875 0.578125
vt 0.65625 0.578125
vt 0.65625 0.59375
vt 0.546875 0.59375
vt 0.546875 0.578125
vt 0.65625 0.578125
vt 0.5625 0.53125
vt 0.5625 0.59375
vt 0.546875 0.59375
vt 0.546875 0.53125
vt 0.5625 0.53125
vt 0.5625 0.59375
vt 0.546875 0.59375
vt 0.546875 0.53125
vt 0.1875 0.46875
vt 0.1875 0.53125
vt 0.140625 0.53125
vt 0.140625 0.46875
vt 0.15625 0.484375
vt 0.15625 0.53125
vt 0.140625 0.53125
vt 0.140625 0.484375
vt 0.15625 0.484375
vt 0.15625 0.53125
vt 0.140625 0.53125
vt 0.140625 0.484375
vt 0.15625 0.46875
vt 0.15625 0.53125
vt 0.140625 0.53125
vt 0.140625 0.46875
vt 0.15625 0.46875
vt 0.15625 0.53125
vt 0.140625 0.53125
vt 0.140625 0.46875
vt 0.109375 0.59375
vt 0.109375 0.65625
vt 0 0.65625
vt 0 0.59375
vt 0.109375 0.65625
vt 0 0.65625
vt 0 0.640625
vt 0.109375 0.640625
vt 0.109375 0.65625
vt 0 0.65625
vt 0 0.640625
vt 0.109375 0.640625
vt 0.109375 0.59375
vt 0.109375 0.65625
vt 0.09375 0.65625
vt 0.09375 0.59375
vt 0.109375 0.59375
vt 0.109375 0.65625
vt 0.09375 0.65625
vt 0.09375 0.59375
vt 0.28125 0.46875
vt 0.28125 0.53125
vt 0.21875 0.53125
vt 0.21875 0.46875
vt 0.234375 0.46875
vt 0.234375 0.53125
vt 0.21875 0.53125
vt 0.21875 0.46875
vt 0.234375 0.46875
vt 0.234375 0.53125
vt 0.21875 0.53125
vt 0.21875 0.46875
vt 0.234375 0.46875
vt 0.234375 0.53125
vt 0.21875 0.53125
vt 0.21875 0.46875
vt 0.234375 0.46875
vt 0.234375 0.53125
vt 0.21875 0.53125
vt 0.21875 0.46875
vt 0.234375 0.46875
vt 0.234375 0.53125
vt 0.171875 0.53125
vt 0.171875 0.46875
vt 0.1875 0.46875
vt 0.1875 0.53125
vt 0.171875 0.53125
vt 0.171875 0.46875
vt 0.1875 0.46875
vt 0.1875 0.53125
vt 0.171875 0.53125
vt 0.171875 0.46875
vt 0.1875 0.46875
vt 0.1875 0.53125
vt 0.171875 0.53125
vt 0.171875 0.46875
vt 0.671875 0.53125
vt 0.671875 0.59375
vt 0.5625 0.59375
vt 0.5625 0.53125
vt 0.671875 0.59375
vt 0.5625 0.59375
vt 0.5625 0.578125
vt 0.671875 0.578125
vt 0.578125 0.53125
vt 0.578125 0.59375
vt 0.5625 0.59375
vt 0.5625 0.53125
vt 0.578125 0.53125
vt 0.578125 0.59375
vt 0.5625 0.59375
vt 0.5625 0.53125
vt 0.46875 0.59375
vt 0.46875 0.65625
vt 0.40625 0.65625
vt 0.40625 0.59375
vt 0.421875 0.59375
vt 0.421875 0.65625
vt 0.40625 0.65625
vt 0.40625 0.59375
vt 0.421875 0.59375
vt 0.421875 0.65625
vt 0.40625 0.65625
vt 0.40625 0.59375
vt 0.421875 0.59375
vt 0.421875 0.65625
vt 0.40625 0.65625
vt 0.40625 0.59375
vt 0.28125 0.46875
vt 0.28125 0.53125
vt 0.171875 0.53125
vt 0.171875 0.46875
vt 0.28125 0.53125
vt 0.171875 0.53125
vt 0.171875 0.515625
vt 0.28125 0.515625
vt 0.28125 0.53125
vt 0.171875 0.53125
vt 0.171875 0.515625
vt 0.28125 0.515625
vt 0.1875 0.46875
vt 0.1875 0.53125
vt 0.171875 0.53125
vt 0.171875 0.46875
vt 0.1875 0.46875
vt 0.1875 0.53125
vt 0.171875 0.53125
vt 0.171875 0.46875
vt 0.59375 0.53125
vt 0.59375 0.59375
vt 0.53125 0.59375
vt 0.53125 0.53125
vt 0.546875 0.53125
vt 0.546875 0.59375
vt 0.53125 0.59375
vt 0.53125 0.53125
vt 0.546875 0.53125
vt 0.546875 0.59375
vt 0.53125 0.59375
vt 0.53125 0.53125
vt 0.546875 0.53125
vt 0.546875 0.59375
vt 0.53125 0.59375
vt 0.53125 0.53125
vt 0.546875 0.53125
vt 0.546875 0.59375
vt 0.53125 0.59375
vt 0.53125 0.53125
vt 0.484375 0.59375
vt 0.484375 0.65625
vt 0.375 0.65625
vt 0.375 0.59375
vt 0.484375 0.65625
vt 0.375 0.65625
vt 0.375 0.640625
vt 0.484375 0.640625
vt 0.484375 0.65625
vt 0.375 0.65625
vt 0.375 0.640625
vt 0.484375 0.640625
vt 0.390625 0.59375
vt 0.390625 0.65625
vt 0.375 0.65625
vt 0.375 0.59375
vt 0.390625 0.59375
vt 0.390625 0.65625
vt 0.375 0.65625
vt 0.375 0.59375
vt 0.515625 0.65625
vt 0.515625 0.671875
vt 0.5 0.671875
vt 0.5 0.65625
vt 0.515625 0.65625
vt 0.515625 0.671875
vt 0.5 0.671875
vt 0.5 0.65625
vn 0 1 0
vn 0 0 1
vn 0 0 -1
vn 0 0 1
vn 0 1 0
vn 0 0 -1
vn 1 0 0
vn -1 0 0
vn 0 1 0
vn 0 -1 0
vn 0 0 -1
vn 1 0 0
vn -1 0 0
vn 0 1 0
vn 0 0 -1
vn 1 0 0
vn -1 0 0
vn 0 1 0
vn 0 -1 0
vn 0 0 -1
vn 1 0 0
vn -1 0 0
vn 0 1 0
vn 0 -1 0
vn 0 0 -1
vn -1 0 0
vn 1 0 0
vn 0 1 0
vn 0 -1 0
vn 0 0 1
vn -1 0 0
vn 1 0 0
vn 0 1 0
vn 0 -1 0
vn 0 0 1
vn -1 0 0
vn 1 0 0
vn 0 1 0
vn 0 0 1
vn -1 0 0
vn 1 0 0
vn 0 1 0
vn 0 -1 0
vn 0 0 1
vn 0 1 0
vn 0 0 -1
vn 0 0 1
vn 0 0 -1
vn 0 1 0
vn 0 0 1
vn 1 0 0
vn 0 -1 0
vn 0 0 1
vn 0 0 -1
vn 1 0 0
vn 0 1 0
vn 0 -1 0
vn 0 0 1
vn 0 0 -1
vn 1 0 0
vn 0 1 0
vn 0 -1 0
vn 0 0 1
vn 0 0 -1
vn 1 0 0
vn 0 1 0
vn 0 0 1
vn 1 0 0
vn 0 1 0
vn 0 -1 0
vn 0 0 1
vn 0 0 -1
vn 1 0 0
vn 0 1 0
vn 0 0 1
vn 0 0 -1
vn 1 0 0
vn 0 1 0
vn 0 0 1
vn 0 0 -1
vn 1 0 0
vn 0 1 0
vn 0 0 1
vn 0 0 -1
vn 1 0 0
vn 0 1 0
vn 0 -1 0
vn 0 0 1
vn 0 0 -1
vn 1 0 0
vn 0 1 0
vn 0 -1 0
vn 0 0 1
vn 0 0 -1
vn 1 0 0
vn 0 1 0
vn 0 -1 0
vn 0 0 1
vn 0 0 -1
vn 1 0 0
vn -1 0 0
vn 0 1 0
vn 0 0 1
vn 0 0 -1
vn -1 0 0
vn 0 1 0
vn 1 0 0
vn 0 1 0
vn -1 0 0
vn 1 0 0
vn 0 1 0
vn 0 0 -1
vn 0 0 1
vn 1 0 0
vn 0 1 0
vn -1 0 0
vn -1 0 0
vn 0 1 0
vn 0 -1 0
vn 0 0 -1
vn 0 0 1
vn -1 0 0
vn 0 1 0
vn 0 -1 0
vn 0 0 -1
vn 0 0 1
vn -1 0 0
vn 0 1 0
vn 0 -1 0
vn 0 0 -1
vn 0 0 1
vn -1 0 0
vn 0 1 0
vn 0 -1 0
vn 0 0 -1
vn 0 0 1
vn -1 0 0
vn 0 1 0
vn 0 0 -1
vn 0 0 1
vn -1 0 0
vn 0 1 0
vn 0 0 -1
vn 0 0 1
vn -1 0 0
vn 0 1 0
vn 0 0 -1
vn 0 0 1
vn -1 0 0
vn 0 1 0
vn 0 -1 0
vn 0 0 -1
vn 0 0 1
vn -1 0 0
vn 0 1 0
vn 0 -1 0
vn 0 0 -1
vn 0 0 1
vn -1 0 0
vn 0 1 0
vn 0 -1 0
vn 0 0 -1
vn 0 0 1
vn 0 0 -1
vn 0 0 -1
usemtl base_bricks
f 16/1/1 19/2/1 21/3/1
f 16/1/1 21/3/1 8/4/1
f 17/5/2 20/6/2 19/7/2
f 17/5/2 19/7/2 16/8/2
f 8/9/3 21/10/3 22/11/3
f 8/9/3 22/11/3 18/12/3
f 14/13/4 19/14/4 20/15/4
f 14/13/4 20/15/4 15/16/4
f 4/17/5 21/18/5 19/19/5
f 4/17/5 19/19/5 14/20/5
f 2/21/6 22/22/6 21/23/6
f 2/21/6 21/23/6 4/24/6
f 26/25/7 24/26/7 23/27/7
f 26/25/7 23/27/7 25/28/7
f 29/29/8 27/30/8 28/31/8
f 29/29/8 28/31/8 30/32/8
f 23/33/9 24/34/9 28/35/9
f 23/33/9 28/35/9 27/36/9
f 26/37/10 25/38/10 29/39/10
f 26/37/10 29/39/10 30/40/10
f 30/41/11 28/42/11 24/43/11
f 30/41/11 24/43/11 26/44/11
f 34/45/12 32/46/12 31/47/12
f 34/45/12 31/47/12 33/48/12
f 37/49/13 35/50/13 36/51/13
f 37/49/13 36/51/13 38/52/13
f 31/53/14 32/54/14 36/55/14
f 31/53/14 36/55/14 35/56/14
f 38/57/15 36/58/15 32/59/15
f 38/57/15 32/59/15 34/60/15
f 42/61/16 40/62/16 39/63/16
f 42/61/16 39/63/16 41/64/16
f 45/65/17 43/66/17 44/67/17
f 45/65/17 44/67/17 46/68/17
f 39/69/18 40/70/18 44/71/18
f 39/69/18 44/71/18 43/72/18
f 42/73/19 41/74/19 45/75/19
f 42/73/19 45/75/19 46/76/19
f 46/77/20 44/78/20 40/79/20
f 46/77/20 40/79/20 42/80/20
f 50/81/21 48/82/21 47/83/21
f 50/81/21 47/83/21 49/84/21
f 53/85/22 51/86/22 52/87/22
f 53/85/22 52/87/22 54/88/22
f 47/89/23 48/90/23 52/91/23
f 47/89/23 52/91/23 51/92/23
f 50/93/24 49/94/24 53/95/24
f 50/93/24 53/95/24 54/96/24
f 54/97/25 52/98/25 48/99/25
f 54/97/25 48/99/25 50/100/25
f 58/101/26 56/102/26 55/103/26
f 58/101/26 55/103/26 57/104/26
f 61/105/27 59/106/27 60/107/27
f 61/105/27 60/107/27 62/108/27
f 55/109/28 56/110/28 60/111/28
f 55/109/28 60/111/28 59/112/28
f 58/113/29 57/114/29 61/115/29
f 58/113/29 61/115/29 62/116/29
f 62/117/30 60/118/30 56/119/30
f 62/117/30 56/119/30 58/120/30
f 66/121/31 64/122/31 63/123/31
f 66/121/31 63/123/31 65/124/31
f 69/125/32 67/126/32 68/127/32
f 69/125/32 68/127/32 70/128/32
f 63/129/33 64/130/33 68/131/33
f 63/129/33 68/131/33 67/132/33
f 66/133/34 65/134/34 69/135/34
f 66/133/34 69/135/34 70/136/34
f 70/137/35 68/138/35 64/139/35
f 70/137/35 64/139/35 66/140/35
f 74/141/36 72/142/36 71/143/36
f 74/141/36 71/143/36 73/144/36
f 77/145/37 75/146/37 76/147/37
f 77/145/37 76/147/37 78/148/37
f 71/149/38 72/150/38 76/151/38
f 71/149/38 76/151/38 75/152/38
f 78/153/39 76/154/39 72/155/39
f 78/153/39 72/155/39 74/156/39
f 82/157/40 80/158/40 79/159/40
f 82/157/40 79/159/40 81/160/40
f 85/161/41 83/162/41 84/163/41
f 85/161/41 84/163/41 86/164/41
f 79/165/42 80/166/42 84/167/42
f 79/165/42 84/167/42 83/168/42
f 82/169/43 81/170/43 85/171/43
f 82/169/43 85/171/43 86/172/43
f 86/173/44 84/174/44 80/175/44
f 86/173/44 80/175/44 82/176/44
f 90/177/45 93/178/45 95/179/45
f 90/177/45 95/179/45 7/180/45
f 91/181/46 94/182/46 93/183/46
f 91/181/46 93/183/46 90/184/46
f 7/185/47 95/186/47 73/187/47
f 7/185/47 73/187/47 92/188/47
f 87/189/48 93/190/48 94/191/48
f 87/189/48 94/191/48 88/192/48
f 12/193/49 95/194/49 93/195/49
f 12/193/49 93/195/49 87/196/49
f 89/197/50 73/198/50 95/199/50
f 89/197/50 95/199/50 12/200/50
f 99/201/51 97/202/51 96/203/51
f 99/201/51 96/203/51 98/204/51
f 99/205/52 98/206/52 101/207/52
f 99/205/52 101/207/52 102/208/52
f 98/209/53 96/210/53 6/211/53
f 98/209/53 6/211/53 101/212/53
f 102/213/54 100/214/54 97/215/54
f 102/213/54 97/215/54 99/216/54
f 104/217/55 103/218/55 83/219/55
f 104/217/55 83/219/55 85/220/55
f 83/221/56 103/222/56 106/223/56
f 83/221/56 106/223/56 105/224/56
f 104/225/57 85/226/57 107/227/57
f 104/225/57 107/227/57 108/228/57
f 85/229/58 83/230/58 105/231/58
f 85/229/58 105/231/58 107/232/58
f 108/233/59 106/234/59 103/235/59
f 108/233/59 103/235/59 104/236/59
f 112/237/60 110/238/60 109/239/60
f 112/237/60 109/239/60 111/240/60
f 109/241/61 110/242/61 114/243/61
f 109/241/61 114/243/61 113/244/61
f 112/245/62 111/246/62 115/247/62
f 112/245/62 115/247/62 116/248/62
f 111/249/63 109/250/63 113/251/63
f 111/249/63 113/251/63 115/252/63
f 116/253/64 114/254/64 110/255/64
f 116/253/64 110/255/64 112/256/64
f 118/257/65 117/258/65 75/259/65
f 118/257/65 75/259/65 77/260/65
f 75/261/66 117/262/66 120/263/66
f 75/261/66 120/263/66 119/264/66
f 77/265/67 75/266/67 119/267/67
f 77/265/67 119/267/67 121/268/67
f 126/269/68 124/270/68 123/271/68
f 126/269/68 123/271/68 125/272/68
f 123/273/69 124/274/69 128/275/69
f 123/273/69 128/275/69 127/276/69
f 126/277/70 125/278/70 129/279/70
f 126/277/70 129/279/70 130/280/70
f 125/281/71 123/282/71 127/283/71
f 125/281/71 127/283/71 129/284/71
f 130/285/72 128/286/72 124/287/72
f 130/285/72 124/287/72 126/288/72
f 132/289/73 131/290/73 117/291/73
f 132/289/73 117/291/73 118/292/73
f 117/293/74 131/294/74 133/295/74
f 117/293/74 133/295/74 120/296/74
f 118/297/75 117/298/75 120/299/75
f 118/297/75 120/299/75 122/300/75
f 134/301/76 133/302/76 131/303/76
f 134/301/76 131/303/76 132/304/76
f 138/305/77 136/306/77 135/307/77
f 138/305/77 135/307/77 137/308/77
f 135/309/78 136/310/78 140/311/78
f 135/309/78 140/311/78 139/312/78
f 137/313/79 135/314/79 139/315/79
f 137/313/79 139/315/79 141/316/79
f 142/317/80 140/318/80 136/319/80
f 142/317/80 136/319/80 138/320/80
f 146/321/81 144/322/81 143/323/81
f 146/321/81 143/323/81 145/324/81
f 143/325/82 144/326/82 41/327/82
f 143/325/82 41/327/82 147/328/82
f 145/329/83 143/330/83 147/331/83
f 145/329/83 147/331/83 148/332/83
f 149/333/84 41/334/84 144/335/84
f 149/333/84 144/335/84 146/336/84
f 143/337/85 151/338/85 150/339/85
f 143/337/85 150/339/85 152/340/85
f 150/341/86 151/342/86 154/343/86
f 150/341/86 154/343/86 153/344/86
f 143/345/87 152/346/87 155/347/87
f 143/345/87 155/347/87 147/348/87
f 152/349/88 150/350/88 153/351/88
f 152/349/88 153/351/88 155/352/88
f 147/353/89 154/354/89 151/355/89
f 147/353/89 151/355/89 143/356/89
f 49/357/90 47/358/90 156/359/90
f 49/357/90 156/359/90 151/360/90
f 156/361/91 47/362/91 3/363/91
f 156/361/91 3/363/91 157/364/91
f 49/365/92 151/366/92 154/367/92
f 49/365/92 154/367/92 39/368/92
f 151/369/93 156/370/93 157/371/93
f 151/369/93 157/371/93 154/372/93
f 39/373/94 3/374/94 47/375/94
f 39/373/94 47/375/94 49/376/94
f 160/377/95 159/378/95 158/379/95
f 160/377/95 158/379/95 110/380/95
f 158/381/96 159/382/96 162/383/96
f 158/381/96 162/383/96 161/384/96
f 160/385/97 110/386/97 114/387/97
f 160/385/97 114/387/97 163/388/97
f 110/389/98 158/390/98 161/391/98
f 110/389/98 161/391/98 114/392/98
f 163/393/99 162/394/99 159/395/99
f 163/393/99 159/395/99 160/396/99
f 3/397/100 166/398/100 167/399/100
f 3/397/100 167/399/100 149/400/100
f 2/401/101 165/402/101 164/403/101
f 2/401/101 164/403/101 4/404/101
f 4/405/102 164/406/102 166/407/102
f 4/405/102 166/407/102 3/408/102
f 121/409/103 5/410/103 7/411/103
f 121/409/103 7/411/103 92/412/103
f 2/413/104 4/414/104 3/415/104
f 2/413/104 3/415/104 149/416/104
f 7/417/105 164/418/105 165/419/105
f 7/417/105 165/419/105 92/420/105
f 5/421/106 166/422/106 164/423/106
f 5/421/106 164/423/106 7/424/106
f 121/425/107 167/426/107 166/427/107
f 121/425/107 166/427/107 5/428/107
f 96/429/108 97/430/108 100/431/108
f 96/429/108 100/431/108 6/432/108
f 13/433/109 171/434/109 172/435/109
f 13/433/109 172/435/109 168/436/109
f 89/437/110 170/438/110 169/439/110
f 89/437/110 169/439/110 12/440/110
f 12/441/111 169/442/111 171/443/111
f 12/441/111 171/443/111 13/444/111
f 37/445/112 10/446/112 8/447/112
f 37/445/112 8/447/112 18/448/112
f 89/449/113 12/450/113 13/451/113
f 89/449/113 13/451/113 168/452/113
f 8/453/114 169/454/114 170/455/114
f 8/453/114 170/455/114 18/456/114
f 10/457/115 171/458/115 169/459/115
f 10/457/115 169/459/115 8/460/115
f 37/461/116 172/462/116 171/463/116
f 37/461/116 171/463/116 10/464/116
f 176/465/117 174/466/117 173/467/117
f 176/465/117 173/467/117 175/468/117
f 173/469/118 174/470/118 177/471/118
f 173/469/118 177/471/118 9/472/118
f 176/473/119 175/474/119 178/475/119
f 176/473/119 178/475/119 179/476/119
f 175/477/120 173/478/120 9/479/120
f 175/477/120 9/479/120 178/480/120
f 179/481/121 177/482/121 174/483/121
f 179/481/121 174/483/121 176/484/121
f 181/485/122 180/486/122 27/487/122
f 181/485/122 27/487/122 29/488/122
f 27/489/123 180/490/123 183/491/123
f 27/489/123 183/491/123 182/492/123
f 181/493/124 29/494/124 184/495/124
f 181/493/124 184/495/124 185/496/124
f 29/497/125 27/498/125 182/499/125
f 29/497/125 182/499/125 184/500/125
f 185/501/126 183/502/126 180/503/126
f 185/501/126 180/503/126 181/504/126
f 189/505/127 187/506/127 186/507/127
f 189/505/127 186/507/127 188/508/127
f 186/509/128 187/510/128 191/511/128
f 186/509/128 191/511/128 190/512/128
f 189/513/129 188/514/129 192/515/129
f 189/513/129 192/515/129 193/516/129
f 188/517/130 186/518/130 190/519/130
f 188/517/130 190/519/130 192/520/130
f 193/521/131 191/522/131 187/523/131
f 193/521/131 187/523/131 189/524/131
f 197/525/132 195/526/132 194/527/132
f 197/525/132 194/527/132 196/528/132
f 194/529/133 195/530/133 199/531/133
f 194/529/133 199/531/133 198/532/133
f 197/533/134 196/534/134 200/535/134
f 197/533/134 200/535/134 201/536/134
f 196/537/135 194/538/135 198/539/135
f 196/537/135 198/539/135 200/540/135
f 201/541/136 199/542/136 195/543/136
f 201/541/136 195/543/136 197/544/136
f 205/545/137 203/546/137 202/547/137
f 205/545/137 202/547/137 204/548/137
f 202/549/138 203/550/138 207/551/138
f 202/549/138 207/551/138 206/552/138
f 204/553/139 202/554/139 206/555/139
f 204/553/139 206/555/139 208/556/139
f 209/557/140 207/558/140 203/559/140
f 209/557/140 203/559/140 205/560/140
f 213/561/141 211/562/141 210/563/141
f 213/561/141 210/563/141 212/564/141
f 210/565/142 211/566/142 215/567/142
f 210/565/142 215/567/142 214/568/142
f 212/569/143 210/570/143 214/571/143
f 212/569/143 214/571/143 216/572/143
f 217/573/144 215/574/144 211/575/144
f 217/573/144 211/575/144 213/576/144
f 220/577/145 219/578/145 218/579/145
f 220/577/145 218/579/145 1/580/145
f 218/581/146 219/582/146 65/583/146
f 218/581/146 65/583/146 221/584/146
f 1/585/147 218/586/147 221/587/147
f 1/585/147 221/587/147 222/588/147
f 168/589/148 65/590/148 219/591/148
f 168/589/148 219/591/148 220/592/148
f 218/593/149 224/594/149 223/595/149
f 218/593/149 223/595/149 225/596/149
f 223/597/150 224/598/150 227/599/150
f 223/597/150 227/599/150 226/600/150
f 218/601/151 225/602/151 228/603/151
f 218/601/151 228/603/151 221/604/151
f 225/605/152 223/606/152 226/607/152
f 225/605/152 226/607/152 228/608/152
f 221/609/153 227/610/153 224/611/153
f 221/609/153 224/611/153 218/612/153
f 57/613/154 55/614/154 229/615/154
f 57/613/154 229/615/154 224/616/154
f 229/617/155 55/618/155 13/619/155
f 229/617/155 13/619/155 230/620/155
f 57/621/156 224/622/156 227/623/156
f 57/621/156 227/623/156 63/624/156
f 224/625/157 229/626/157 230/627/157
f 224/625/157 230/627/157 227/628/157
f 63/629/158 13/630/158 55/631/158
f 63/629/158 55/631/158 57/632/158
f 233/633/159 232/634/159 231/635/159
f 233/633/159 231/635/159 187/636/159
f 231/637/160 232/638/160 234/639/160
f 231/637/160 234/639/160 11/640/160
f 233/641/161 187/642/161 191/643/161
f 233/641/161 191/643/161 235/644/161
f 187/645/162 231/646/162 11/647/162
f 187/645/162 11/647/162 191/648/162
f 235/649/163 234/650/163 232/651/163
f 235/649/163 232/651/163 233/652/163
f 239/653/164 238/654/164 236/655/164
f 239/653/164 236/655/164 237/656/164
f 243/657/165 242/658/165 240/659/165
f 243/657/165 240/659/165 241/660/165