# Made by Pabilo8 with Blockbench
# Exported with IIToolkit Plugin
mtllib variants.mtl


o style
v 1.375 -2.5625 0.5625
v 1.4375 -1.8125 0.5625
v 1.375 -1.8125 0.5625
v 1.4375 -1.8125 2.4375
v 1.375 -1.8125 2.4375
v 0.75 -1.8125 0.5625
v 0.6875 -1.8125 0.5625
v 0.75 -1.8125 2.4375
v 0.6875 -1.8125 2.4375
v 1.375 -1.8125 0.625
v 0.75 -1.8125 0.625
v 0.75 -2.5625 0.5625
v 1.0625 -1.8125 0.625
v 1.0625 -1.8125 0.5625
v 1.0625 -2.5625 0.5625
v 0.6875 -2.5625 0.5625
v 1.0625 -2.5625 2.4375
v 0.75 -1.8125 2.375
v 0.75 -2.5625 2.4375
v 1.375 -1.8125 2.375
v 1.375 -2.5625 2.4375
v 1.0625 -1.8125 2.375
v 1.0625 -1.8125 2.4375
v 1.4375 -2.5625 2.4375
v 1.4375 -2.5625 0.5625
v 1.375 -1.8125 1.5
v 1.4375 -1.8125 1.5
v 1.4375 -2.5625 1.5
v 0.6875 -2.5625 2.4375
v 0.75 -1.8125 1.5
v 0.6875 -1.8125 1.5
v 0.6875 -2.5625 1.5
v 1.5 -1.8125 2.4375
v 1.5 -1.8125 0.5625
v 1.5 -2 2.4375
v 1.5 -2 0.5625
v 1.4375 -1.8125 2.4375
v 1.4375 -1.8125 0.5625
v 1.4375 -2 2.4375
v 1.4375 -2 0.5625
v 0.625 -1.8125 2.4375
v 0.625 -1.8125 0.5625
v 0.625 -2 2.4375
v 0.625 -2 0.5625
v 0.6875 -1.8125 2.4375
v 0.6875 -1.8125 0.5625
v 0.6875 -2 2.4375
v 0.6875 -2 0.5625
v 1.5 -1.8125 0.5625
v 1.5 -1.8125 0.5
v 1.5 -2 0.5625
v 1.5 -2 0.5
v 0.625 -1.8125 0.5625
v 0.625 -1.8125 0.5
v 0.625 -2 0.5625
v 0.625 -2 0.5
v 1.5 -1.8125 2.4375
v 1.5 -1.8125 2.5
v 1.5 -2 2.4375
v 1.5 -2 2.5
v 0.625 -1.8125 2.4375
v 0.625 -1.8125 2.5
v 0.625 -2 2.4375
v 0.625 -2 2.5
v 1.5 -2.4375 2.4375
v 1.5 -2.4375 2.5
v 1.5 -2.5625 2.5
v 0.625 -2.4375 2.4375
v 0.625 -2.4375 2.5
v 0.625 -2.5625 2.5
v 0.625 -2.5625 2.4375
v 1.5 -2.5625 2.4375
v 1.5 -2.4375 2.4375
v 1.5 -2.4375 0.5625
v 1.5 -2.5625 2.4375
v 1.5 -2.5625 0.5625
v 1.4375 -2.4375 2.4375
v 1.4375 -2.4375 0.5625
v 0.625 -2.4375 2.4375
v 0.6312500000000001 -2.4375 0.5625
v 0.625 -2.5625 2.4375
v 0.6312500000000001 -2.5625 0.5625
v 0.6875 -2.4375 2.4375
v 0.6875 -2.4375 0.5625
v 1.5 -2.4375 0.5625
v 1.5 -2.4375 0.5
v 1.5 -2.5625 0.5
v 0.625 -2.4375 0.5625
v 0.625 -2.4375 0.5
v 0.625 -2.5625 0.5
v 0.625 -2.5625 0.5625
v 1.5 -2.5625 0.5625
v 1.5 -2 0.625
v 1.5 -2 0.5
v 1.5 -2.4375 0.625
v 1.5 -2.4375 0.5
v 1.375 -2 0.625
v 1.375 -2 0.5
v 1.375 -2.4375 0.625
v 1.375 -2.4375 0.5
v 1.5 -2 2.375
v 1.5 -2 2.5
v 1.5 -2.4375 2.375
v 1.5 -2.4375 2.5
v 1.375 -2 2.375
v 1.375 -2 2.5
v 1.375 -2.4375 2.375
v 1.375 -2.4375 2.5
v 0.625 -2 2.375
v 0.625 -2 2.5
v 0.625 -2.4375 2.375
v 0.625 -2.4375 2.5
v 0.75 -2 2.375
v 0.75 -2 2.5
v 0.75 -2.4375 2.375
v 0.75 -2.4375 2.5
v 0.625 -2 0.625
v 0.625 -2 0.5
v 0.625 -2.4375 0.625
v 0.625 -2.4375 0.5
v 0.75 -2 0.625
v 0.75 -2 0.5
v 0.75 -2.4375 0.625
v 0.75 -2.4375 0.5
v 1.600131875 -2.144713125 2.375
v 1.600131875 -2.144713125 0.625
v 1.524036875 -2.243881875 2.375
v 1.524036875 -2.243881875 0.625
v 1.500963125 -2.068618125 2.375
v 1.500963125 -2.068618125 0.625
v 1.4248681250000002 -2.167786875 2.375
v 1.4248681250000002 -2.167786875 0.625
v 1.643948125 -2.138944375 2.375
v 1.643948125 -2.138944375 0.625
v 1.529805625 -2.287698125 2.375
v 1.529805625 -2.287698125 0.625
v 1.495194375 -2.024801875 2.375
v 1.495194375 -2.024801875 0.625
v 1.381051875 -2.173555625 2.375
v 1.381051875 -2.173555625 0.625
v 1.643948125 -2.138944375 1.5
v 1.529805625 -2.287698125 1.5
v 1.381051875 -2.173555625 1.5
v 1.495194375 -2.024801875 1.5
vt 0.484375 0.921875
vt 0.484375 0.84375
vt 0.5 0.84375
vt 0.5 0.921875
vt 0.453125 0.859375
vt 0.375 0.859375
vt 0.375 0.671875
vt 0.453125 0.671875
vt 0.5 0.765625
vt 0.5 0.84375
vt 0.484375 0.84375
vt 0.484375 0.765625
vt 0.296875 0.671875
vt 0.375 0.671875
vt 0.375 0.859375
vt 0.296875 0.859375
vt 0.484375 0.953125
vt 0.484375 0.875
vt 0.5 0.875
vt 0.5 0.953125
vt 0.453125 0.921875
vt 0.375 0.921875
vt 0.375 0.734375
vt 0.453125 0.734375
vt 0.5 0.796875
vt 0.5 0.875
vt 0.484375 0.875
vt 0.484375 0.796875
vt 0.296875 0.734375
vt 0.375 0.734375
vt 0.375 0.921875
vt 0.296875 0.921875
vt 0.609375 0.90625
vt 0.375 0.90625
vt 0.375 0.71875
vt 0.609375 0.71875
vt 0.484375 0.9375
vt 0.484375 0.703125
vt 0.5 0.703125
vt 0.5 0.9375
vt 0.46875 0.734375
vt 0.46875 0.921875
vt 0.453125 0.921875
vt 0.453125 0.734375
vt 0.296875 0.671875
vt 0.296875 0.859375
vt 0.28125 0.859375
vt 0.28125 0.671875
vt 0.5 0.703125
vt 0.5 0.9375
vt 0.484375 0.9375
vt 0.484375 0.703125
vt 0.140625 0.71875
vt 0.375 0.71875
vt 0.375 0.90625
vt 0.140625 0.90625
vt 0.140625 0.90625
vt 0.375 0.90625
vt 0.375 0.71875
vt 0.140625 0.71875
vt 0.484375 0.9375
vt 0.484375 0.703125
vt 0.5 0.703125
vt 0.5 0.9375
vt 0.46875 0.671875
vt 0.46875 0.859375
vt 0.453125 0.859375
vt 0.453125 0.671875
vt 0.296875 0.734375
vt 0.296875 0.921875
vt 0.28125 0.921875
vt 0.28125 0.734375
vt 0.5 0.703125
vt 0.5 0.9375
vt 0.484375 0.9375
vt 0.484375 0.703125
vt 0.609375 0.71875
vt 0.375 0.71875
vt 0.375 0.90625
vt 0.609375 0.90625
vt 0.15625 0.625
vt 0.15625 0.578125
vt 0.625 0.578125
vt 0.625 0.625
vt 0.984375 0.84375
vt 0.984375 0.375
vt 1 0.375
vt 1 0.84375
vt 0.59375 0.59375
vt 0.125 0.59375
vt 0.125 0.578125
vt 0.59375 0.578125
vt 0.59375 0.578125
vt 0.125 0.578125
vt 0.125 0.625
vt 0.59375 0.625
vt 1 0.375
vt 0.984375 0.375
vt 0.984375 0.84375
vt 1 0.84375
vt 0.125 0.578125
vt 0.125 0.59375
vt 0.59375 0.59375
vt 0.59375 0.578125
vt 0.609375 0.625
vt 0.609375 0.578125
vt 0.625 0.578125
vt 0.625 0.625
vt 0.578125 0.625
vt 0.578125 0.578125
vt 0.59375 0.578125
vt 0.59375 0.625
vt 0.984375 0.78125
vt 1 0.78125
vt 1 1
vt 0.984375 1
vt 0.234375 0.59375
vt 0.234375 0.578125
vt 0.453125 0.578125
vt 0.453125 0.59375
vt 0.265625 0.625
vt 0.265625 0.578125
vt 0.484375 0.578125
vt 0.484375 0.625
vt 0.625 0.578125
vt 0.609375 0.578125
vt 0.609375 0.625
vt 0.625 0.625
vt 0.59375 0.578125
vt 0.578125 0.578125
vt 0.578125 0.625
vt 0.59375 0.625
vt 1 1
vt 1 0.78125
vt 0.984375 0.78125
vt 0.984375 1
vt 0.453125 0.578125
vt 0.234375 0.578125
vt 0.234375 0.59375
vt 0.453125 0.59375
vt 0.5 0.578125
vt 0.28125 0.578125
vt 0.28125 0.625
vt 0.5 0.625
vt 0.265625 0.625
vt 0.484375 0.625
vt 0.484375 0.609375
vt 0.265625 0.609375
vt 0.265625 0.625
vt 0.484375 0.625
vt 0.484375 0.59375
vt 0.265625 0.59375
vt 0.28125 0.625
vt 0.296875 0.625
vt 0.296875 0.59375
vt 0.28125 0.59375
vt 0.265625 0.625
vt 0.28125 0.625
vt 0.28125 0.59375
vt 0.265625 0.59375
vt 0.640625 0.59375
vt 0.640625 0.625
vt 0.171875 0.625
vt 0.171875 0.59375
vt 0.171875 0.578125
vt 0.640625 0.578125
vt 0.640625 0.59375
vt 0.171875 0.59375
vt 0.171875 0.625
vt 0.640625 0.625
vt 0.640625 0.59375
vt 0.171875 0.59375
vt 0.640625 0.59375
vt 0.640625 0.578125
vt 0.171875 0.578125
vt 0.171875 0.59375
vt 0.484375 0.609375
vt 0.484375 0.625
vt 0.265625 0.625
vt 0.265625 0.609375
vt 0.484375 0.59375
vt 0.484375 0.625
vt 0.265625 0.625
vt 0.265625 0.59375
vt 0.296875 0.59375
vt 0.296875 0.625
vt 0.28125 0.625
vt 0.28125 0.59375
vt 0.28125 0.59375
vt 0.28125 0.625
vt 0.265625 0.625
vt 0.265625 0.59375
vt 0 0.890625
vt 0 1
vt 0.03125 1
vt 0.03125 0.890625
vt 0 0.890625
vt 0 1
vt 0.03125 1
vt 0.03125 0.890625
vt 0.03125 0.890625
vt 0.03125 1
vt 0 1
vt 0 0.890625
vt 0.03125 0.890625
vt 0.03125 1
vt 0 1
vt 0 0.890625
vt 0.03125 1
vt 0 1
vt 0 0.890625
vt 0.03125 0.890625
vt 0.03125 1
vt 0 1
vt 0 0.890625
vt 0.03125 0.890625
vt 0 1
vt 0.03125 1
vt 0.03125 0.890625
vt 0 0.890625
vt 0 1
vt 0.03125 1
vt 0.03125 0.890625
vt 0 0.890625
vt 0 0.890625
vt 0 1
vt 0.03125 1
vt 0.03125 0.890625
vt 0 0.890625
vt 0 1
vt 0.03125 1
vt 0.03125 0.890625
vt 0.03125 0.890625
vt 0.03125 1
vt 0 1
vt 0 0.890625
vt 0.03125 0.890625
vt 0.03125 1
vt 0 1
vt 0 0.890625
vt 0.03125 1
vt 0 1
vt 0 0.890625
vt 0.03125 0.890625
vt 0.03125 1
vt 0 1
vt 0 0.890625
vt 0.03125 0.890625
vt 0 1
vt 0.03125 1
vt 0.03125 0.890625
vt 0 0.890625
vt 0 1
vt 0.03125 1
vt 0.03125 0.890625
vt 0 0.890625
vt 0.640625 0.578125
vt 0.640625 0.609375
vt 0.203125 0.609375
vt 0.203125 0.578125
vt 0.640625 0.609375
vt 0.640625 0.578125
vt 0.203125 0.578125
vt 0.203125 0.609375
vt 0.203125 0.609375
vt 0.640625 0.609375
vt 0.640625 0.578125
vt 0.203125 0.578125
vt 0.203125 0.578125
vt 0.640625 0.578125
vt 0.640625 0.609375
vt 0.203125 0.609375
vt 0.890625 0.96875
vt 0.890625 0.75
vt 0.9375 0.75
vt 0.9375 0.96875
vt 0.9375 0.96875
vt 0.9375 0.75
vt 0.890625 0.75
vt 0.890625 0.96875
vt 0.890625 0.96875
vt 0.890625 0.75
vt 0.9375 0.75
vt 0.9375 0.96875
vt 0.9375 0.96875
vt 0.9375 0.75
vt 0.890625 0.75
vt 0.890625 0.96875
vt 0.75 0.953125
vt 0.796875 0.953125
vt 0.796875 1
vt 0.75 1
vt 0.75 0.953125
vt 0.796875 0.953125
vt 0.796875 1
vt 0.75 1
vt 0.9375 0.96875
vt 0.9375 0.75
vt 0.890625 0.75
vt 0.890625 0.96875
vt 0.890625 0.96875
vt 0.890625 0.75
vt 0.9375 0.75
vt 0.9375 0.96875
vt 0.890625 0.96875
vt 0.890625 0.75
vt 0.9375 0.75
vt 0.9375 0.96875
vt 0.9375 0.96875
vt 0.9375 0.75
vt 0.890625 0.75
vt 0.890625 0.96875
vn 0 1 0
vn 0 0 -1
vn 0 1 0
vn 0 0 -1
vn 0 1 0
vn 0 0 1
vn 0 1 0
vn 0 0 1
vn 1 0 0
vn 0 1 0
vn 0 0 1
vn 0 0 -1
vn 0 1 0
vn 1 0 0
vn -1 0 0
vn 0 1 0
vn 0 0 -1
vn 0 0 1
vn 0 1 0
vn -1 0 0
vn 1 0 0
vn 0 1 0
vn 0 -1 0
vn -1 0 0
vn 0 1 0
vn 0 -1 0
vn 1 0 0
vn -1 0 0
vn 0 1 0
vn 0 -1 0
vn 0 0 -1
vn 1 0 0
vn -1 0 0
vn 0 1 0
vn 0 -1 0
vn 0 0 1
vn 0 1 0
vn 0 0 1
vn -1 0 0
vn 1 0 0
vn 1 0 0
vn 0 1 0
vn -0.9999944444907405 0 -0.003333314814969153
vn 0 1 0
vn 0 1 0
vn 0 0 -1
vn -1 0 0
vn 1 0 0
vn 1 0 0
vn -1 0 0
vn 0 0 1
vn 0 0 -1
vn 1 0 0
vn -1 0 0
vn 0 0 -1
vn 0 0 1
vn -1 0 0
vn 1 0 0
vn 0 0 -1
vn 0 0 1
vn -1 0 0
vn 1 0 0
vn 0 0 1
vn 0 0 -1
vn 0.7933527925670774 -0.6087621428160758 0
vn -0.7933527925670774 0.6087621428160758 0
vn 0.608762142816076 0.793352792567077 0
vn -0.608762142816076 -0.793352792567077 0
vn 0.7933540278710136 -0.6087605329362596 0
vn -0.7933540278710136 0.6087605329362596 0
vn 0.60876053293626 0.7933540278710134 0
vn -0.60876053293626 -0.7933540278710134 0
vn 0 0 1
vn 0 0 -1
vn 0.7933540278710136 -0.6087605329362596 0
vn -0.60876053293626 -0.7933540278710134 0
vn -0.7933540278710136 0.6087605329362596 0
vn 0.60876053293626 0.7933540278710134 0
usemtl base_steel
f 11/1/1 13/2/1 14/3/1
f 11/1/1 14/3/1 6/4/1
f 6/5/2 14/6/2 15/7/2
f 6/5/2 15/7/2 12/8/2
f 3/9/3 14/10/3 13/11/3
f 3/9/3 13/11/3 10/12/3
f 1/13/4 15/14/4 14/15/4
f 1/13/4 14/15/4 3/16/4
f 20/17/5 22/18/5 23/19/5
f 20/17/5 23/19/5 5/20/5
f 5/21/6 23/22/6 17/23/6
f 5/21/6 17/23/6 21/24/6
f 8/25/7 23/26/7 22/27/7
f 8/25/7 22/27/7 18/28/7
f 19/29/8 17/30/8 23/31/8
f 19/29/8 23/31/8 8/32/8
f 2/33/9 27/34/9 28/35/9
f 2/33/9 28/35/9 25/36/9
f 3/37/10 26/38/10 27/39/10
f 3/37/10 27/39/10 2/40/10
f 24/41/11 4/42/11 5/43/11
f 24/41/11 5/43/11 21/44/11
f 1/45/12 3/46/12 2/47/12
f 1/45/12 2/47/12 25/48/12
f 4/49/13 27/50/13 26/51/13
f 4/49/13 26/51/13 5/52/13
f 24/53/14 28/54/14 27/55/14
f 24/53/14 27/55/14 4/56/14
f 9/57/15 31/58/15 32/59/15
f 9/57/15 32/59/15 29/60/15
f 8/61/16 30/62/16 31/63/16
f 8/61/16 31/63/16 9/64/16
f 16/65/17 7/66/17 6/67/17
f 16/65/17 6/67/17 12/68/17
f 19/69/18 8/70/18 9/71/18
f 19/69/18 9/71/18 29/72/18
f 7/73/19 31/74/19 30/75/19
f 7/73/19 30/75/19 6/76/19
f 16/77/20 32/78/20 31/79/20
f 16/77/20 31/79/20 7/80/20
f 36/81/21 34/82/21 33/83/21
f 36/81/21 33/83/21 35/84/21
f 33/85/22 34/86/22 38/87/22
f 33/85/22 38/87/22 37/88/22
f 36/89/23 35/90/23 39/91/23
f 36/89/23 39/91/23 40/92/23
f 41/93/24 42/94/24 44/95/24
f 41/93/24 44/95/24 43/96/24
f 46/97/25 42/98/25 41/99/25
f 46/97/25 41/99/25 45/100/25
f 47/101/26 43/102/26 44/103/26
f 47/101/26 44/103/26 48/104/26
f 52/105/27 50/106/27 49/107/27
f 52/105/27 49/107/27 51/108/27
f 55/109/28 53/110/28 54/111/28
f 55/109/28 54/111/28 56/112/28
f 49/113/29 50/114/29 54/115/29
f 49/113/29 54/115/29 53/116/29
f 52/117/30 51/118/30 55/119/30
f 52/117/30 55/119/30 56/120/30
f 56/121/31 54/122/31 50/123/31
f 56/121/31 50/123/31 52/124/31
f 57/125/32 58/126/32 60/127/32
f 57/125/32 60/127/32 59/128/32
f 62/129/33 61/130/33 63/131/33
f 62/129/33 63/131/33 64/132/33
f 62/133/34 58/134/34 57/135/34
f 62/133/34 57/135/34 61/136/34
f 63/137/35 59/138/35 60/139/35
f 63/137/35 60/139/35 64/140/35
f 58/141/36 62/142/36 64/143/36
f 58/141/36 64/143/36 60/144/36
f 69/145/37 66/146/37 65/147/37
f 69/145/37 65/147/37 68/148/37
f 66/149/38 69/150/38 70/151/38
f 66/149/38 70/151/38 67/152/38
f 69/153/39 68/154/39 71/155/39
f 69/153/39 71/155/39 70/156/39
f 65/157/40 66/158/40 67/159/40
f 65/157/40 67/159/40 72/160/40
f 76/161/41 74/162/41 73/163/41
f 76/161/41 73/163/41 75/164/41
f 73/165/42 74/166/42 78/167/42
f 73/165/42 78/167/42 77/168/42
f 79/169/43 80/170/43 82/171/43
f 79/169/43 82/171/43 81/172/43
f 84/173/44 80/174/44 79/175/44
f 84/173/44 79/175/44 83/176/44
f 85/177/45 86/178/45 89/179/45
f 85/177/45 89/179/45 88/180/45
f 90/181/46 89/182/46 86/183/46
f 90/181/46 86/183/46 87/184/46
f 91/185/47 88/186/47 89/187/47
f 91/185/47 89/187/47 90/188/47
f 87/189/48 86/190/48 85/191/48
f 87/189/48 85/191/48 92/192/48
f 96/193/49 94/194/49 93/195/49
f 96/193/49 93/195/49 95/196/49
f 99/197/50 97/198/50 98/199/50
f 99/197/50 98/199/50 100/200/50
f 95/201/51 93/202/51 97/203/51
f 95/201/51 97/203/51 99/204/51
f 100/205/52 98/206/52 94/207/52
f 100/205/52 94/207/52 96/208/52
f 101/209/53 102/210/53 104/211/53
f 101/209/53 104/211/53 103/212/53
f 106/213/54 105/214/54 107/215/54
f 106/213/54 107/215/54 108/216/54
f 105/217/55 101/218/55 103/219/55
f 105/217/55 103/219/55 107/220/55
f 102/221/56 106/222/56 108/223/56
f 102/221/56 108/223/56 104/224/56
f 112/225/57 110/226/57 109/227/57
f 112/225/57 109/227/57 111/228/57
f 115/229/58 113/230/58 114/231/58
f 115/229/58 114/231/58 116/232/58
f 111/233/59 109/234/59 113/235/59
f 111/233/59 113/235/59 115/236/59
f 116/237/60 114/238/60 110/239/60
f 116/237/60 110/239/60 112/240/60
f 117/241/61 118/242/61 120/243/61
f 117/241/61 120/243/61 119/244/61
f 122/245/62 121/246/62 123/247/62
f 122/245/62 123/247/62 124/248/62
f 121/249/63 117/250/63 119/251/63
f 121/249/63 119/251/63 123/252/63
f 118/253/64 122/254/64 124/255/64
f 118/253/64 124/255/64 120/256/64
f 128/257/65 126/258/65 125/259/65
f 128/257/65 125/259/65 127/260/65
f 131/261/66 129/262/66 130/263/66
f 131/261/66 130/263/66 132/264/66
f 125/265/67 126/266/67 130/267/67
f 125/265/67 130/267/67 129/268/67
f 128/269/68 127/270/68 131/271/68
f 128/269/68 131/271/68 132/272/68
f 135/273/69 142/274/69 141/275/69
f 135/273/69 141/275/69 133/276/69
f 137/277/70 144/278/70 143/279/70
f 137/277/70 143/279/70 139/280/70
f 133/281/71 141/282/71 144/283/71
f 133/281/71 144/283/71 137/284/71
f 139/285/72 143/286/72 142/287/72
f 139/285/72 142/287/72 135/288/72
f 135/289/73 133/290/73 137/291/73
f 135/289/73 137/291/73 139/292/73
f 140/293/74 138/294/74 134/295/74
f 140/293/74 134/295/74 136/296/74
f 134/297/75 141/298/75 142/299/75
f 134/297/75 142/299/75 136/300/75
f 136/301/76 142/302/76 143/303/76
f 136/301/76 143/303/76 140/304/76
f 140/305/77 143/306/77 144/307/77
f 140/305/77 144/307/77 138/308/77
f 138/309/78 144/310/78 141/311/78
f 138/309/78 141/311/78 134/312/78