# Made by Pabilo8 with Blockbench
# Exported with IIToolkit Plugin on 10/09/2026
mtllib heavy_chemthrower.mtl

o base
v 1 -2.625 2
v 1 -2.625 1
v 1 -2.75 2
v 1 -2.75 1
v 0 -2.625 2
v 0 -2.625 1
v 0 -2.75 2
v 0 -2.75 1
vt 0.3594 0.2031
vt 0.3594 0.2344
vt 0.1094 0.2344
vt 0.1094 0.2031
vt 0.3594 0.2031
vt 0.3594 0.2344
vt 0.1094 0.2344
vt 0.1094 0.2031
vt 0.7344 0.75
vt 0.7344 1
vt 0.4844 1
vt 0.4844 0.75
vt 0.7344 0.75
vt 0.7344 1
vt 0.4844 1
vt 0.4844 0.75
vt 0.3594 0.2031
vt 0.3594 0.2344
vt 0.1094 0.2344
vt 0.1094 0.2031
vt 0.3594 0.2031
vt 0.3594 0.2344
vt 0.1094 0.2344
vt 0.1094 0.2031
vn 1 0 0
vn -1 0 0
vn 0 1 0
vn 0 -1 0
vn 0 0 1
vn 0 0 -1
usemtl weapon_heavy_chemthrower
f 4/1/1 2/2/1 1/3/1
f 4/1/1 1/3/1 3/4/1
f 7/5/2 5/6/2 6/7/2
f 7/5/2 6/7/2 8/8/2
f 1/9/3 2/10/3 6/11/3
f 1/9/3 6/11/3 5/12/3
f 4/13/4 3/14/4 7/15/4
f 4/13/4 7/15/4 8/16/4
f 3/17/5 1/18/5 5/19/5
f 3/17/5 5/19/5 7/20/5
f 8/21/6 6/22/6 2/23/6
f 8/21/6 2/23/6 4/24/6
o turret
v 1.25 -1.9375 2.4375
v 1.25 -1.9375 2.0625
v 1.25 -2.3125 2.4375
v 1.25 -2.3125 2.0625
v 1.3125 -1.9375 2.4375
v 1.3125 -1.9375 2.0625
v 1.3125 -2.3125 2.4375
v 1.3125 -2.3125 2.0625
v 1.2188 -1.375 2.2813
v 1.2188 -1.375 2.0313
v 1.2188 -1.4375 2.2813
v 1.2188 -1.4375 2.0313
v 0.9688 -1.375 2.2813
v 0.9688 -1.375 2.0313
v 0.9688 -1.4375 2.2813
v 0.9688 -1.4375 2.0313
v 0.0313 -1.375 2.2813
v 0.0313 -1.375 2.0313
v 0.0313 -1.4375 2.2813
v 0.0313 -1.4375 2.0313
v -0.2187 -1.375 2.2813
v -0.2187 -1.375 2.0313
v -0.2187 -1.4375 2.2813
v -0.2187 -1.4375 2.0313
v 0.375 -2.4062 0.9375
v 0.2188 -2.3437 2.4688
v 0.2188 -2.3437 2.0313
v 0.2188 -2.4687 2.4688
v 0.2188 -2.4687 2.0313
v -0.2187 -2.3437 2.4688
v -0.2187 -2.3437 2.0313
v -0.2187 -2.4687 2.4688
v -0.2187 -2.4687 2.0313
v 1.2188 -2.3437 2.4688
v 1.2188 -2.3437 2.0313
v 1.2188 -2.4687 2.4688
v 1.2188 -2.4687 2.0313
v 0.7813 -2.3437 2.4688
v 0.7813 -2.3437 2.0313
v 0.7813 -2.4687 2.4688
v 0.7813 -2.4687 2.0313
v -0.25 -1.9375 2.4375
v -0.25 -1.9375 2.0625
v -0.25 -2.3125 2.4375
v -0.25 -2.3125 2.0625
v -0.3125 -1.9375 2.4375
v -0.3125 -1.9375 2.0625
v -0.3125 -2.3125 2.4375
v -0.3125 -2.3125 2.0625
v 1 -2.4375 2
v 1 -2.4375 1
v 1 -2.5 2
v 1 -2.5 1
v 0 -2.4375 2
v 0 -2.4375 1
v 0 -2.5 2
v 0 -2.5 1
v 1.3125 -2.3125 2.0625
v 1.4844 -1.9687 1.75
v 1.4844 -1.9687 1.6875
v 1.4844 -2.2812 1.75
v 1.4844 -2.2812 1.6875
v 1.1719 -1.9687 1.75
v 1.1719 -1.9687 1.6875
v 1.1719 -2.2812 1.75
v 1.1719 -2.2812 1.6875
v -0.1719 -1.9687 1.75
v -0.1719 -1.9687 1.6875
v -0.1719 -2.2812 1.75
v -0.1719 -2.2812 1.6875
v -0.4844 -1.9687 1.75
v -0.4844 -1.9687 1.6875
v -0.4844 -2.2812 1.75
v -0.4844 -2.2812 1.6875
v 1.3125 -1.9375 2.4375
v 1.3125 -1.9375 2.0625
v 1.3125 -2.3125 2.4375
v 1.25 -1.9375 2.4375
v 1.25 -1.9375 2.0625
v 1.25 -2.3125 2.4375
v 1.25 -2.3125 2.0625
v 1.125 -1.9375 1.4375
v 1.125 -1.9375 1.0625
v 1.125 -2.3125 1.4375
v 1.125 -2.3125 1.0625
v 1.0625 -1.9375 1.4375
v 1.0625 -1.9375 1.0625
v 1.0625 -2.3125 1.4375
v 1.0625 -2.3125 1.0625
v 1.1094 -2 1.1875
v 1.1094 -2 1.125
v 1.1094 -2.25 1.1875
v 1.1094 -2.25 1.125
v 1.3594 -2 1.1875
v 1.2969 -2 1.125
v 1.3594 -2.25 1.1875
v 1.2969 -2.25 1.125
v 1.2969 -2 2.0625
v 1.1094 -2 1.3125
v 1.2969 -2.25 2.0625
v 1.1094 -2.25 1.3125
v 1.5469 -2 2.0625
v 1.3594 -2 1.3125
v 1.5469 -2.25 2.0625
v 1.3594 -2.25 1.3125
v 1.3569 -1.8879 1.8125
v 1.3569 -1.8879 1.5625
v 1.5108 -2.0849 1.8125
v 1.5108 -2.0849 1.5625
v 1.4061 -1.8494 1.8125
v 1.4061 -1.8494 1.5625
v 1.5601 -2.0464 1.8125
v 1.5601 -2.0464 1.5625
v 1.1094 -2 1.3125
v 1.1094 -2 1.1875
v 1.1094 -2.25 1.3125
v 1.1094 -2.25 1.1875
v 1.3594 -2 1.3125
v 1.3594 -2 1.1875
v 1.3594 -2.25 1.3125
v 1.3594 -2.25 1.1875
v 1.2969 -2 2.3125
v 1.2969 -2 2.0625
v 1.2969 -2.25 2.3125
v 1.2969 -2.25 2.0625
v 1.5469 -2 2.3125
v 1.5469 -2 2.0625
v 1.5469 -2.25 2.3125
v 1.5469 -2.25 2.0625
v 1.2969 -2 2.375
v 1.2969 -2 2.3125
v 1.2969 -2.25 2.375
v 1.2969 -2.25 2.3125
v 1.4844 -2 2.375
v 1.5469 -2 2.3125
v 1.4844 -2.25 2.375
v 1.5469 -2.25 2.3125
v 1.0625 -1.6875 1.1875
v 0.5625 -1.3437 1.5938
v 0.5625 -1.3437 1.5
v 0.5625 -1.4062 1.625
v 0.5625 -1.4062 1.5
v 0.4375 -1.3437 1.5938
v 0.4375 -1.3437 1.5
v 0.4375 -1.4062 1.625
v 0.4375 -1.4062 1.5
v 0.5625 -1.4062 1.625
v 0.5625 -1.4062 1.5
v 0.5625 -1.5312 1.625
v 0.5625 -1.5312 1.5
v 0.4375 -1.4062 1.625
v 0.4375 -1.4062 1.5
v 0.4375 -1.5312 1.625
v 0.4375 -1.5312 1.5
v 0.5938 -1.5 1.6563
v 0.5938 -1.5 1.4688
v 0.5938 -1.625 1.6563
v 0.5938 -1.625 1.4688
v 0.4063 -1.5 1.6563
v 0.4063 -1.5 1.4688
v 0.4063 -1.625 1.6563
v 0.4063 -1.625 1.4688
v 0.25 -1.4375 2.5
v 0.25 -1.4375 2
v 0.25 -2.375 2.5
v 0.25 -2.375 2
v -0.25 -1.4375 2.5
v -0.25 -1.4375 2
v -0.25 -2.375 2.5
v -0.25 -2.375 2
v 1.25 -1.4375 2.5
v 1.25 -1.4375 2
v 1.25 -2.375 2.5
v 1.25 -2.375 2
v 0.75 -1.4375 2.5
v 0.75 -1.4375 2
v 0.75 -2.375 2.5
v 0.75 -2.375 2
v 0.9375 -1.5 0.9375
v -0.2969 -2 2.0625
v -0.1094 -2 1.3125
v -0.2969 -2.25 2.0625
v -0.1094 -2.25 1.3125
v -0.5469 -2 2.0625
v -0.3594 -2 1.3125
v -0.5469 -2.25 2.0625
v -0.3594 -2.25 1.3125
v -0.2969 -2 2.3125
v -0.2969 -2 2.0625
v -0.2969 -2.25 2.3125
v -0.2969 -2.25 2.0625
v -0.5469 -2 2.3125
v -0.5469 -2 2.0625
v -0.5469 -2.25 2.3125
v -0.5469 -2.25 2.0625
v -0.1094 -2 1.3125
v -0.1094 -2 1.1875
v -0.1094 -2.25 1.3125
v -0.1094 -2.25 1.1875
v -0.3594 -2 1.3125
v -0.3594 -2 1.1875
v -0.3594 -2.25 1.3125
v -0.3594 -2.25 1.1875
v -0.2969 -2 2.375
v -0.2969 -2 2.3125
v -0.2969 -2.25 2.375
v -0.2969 -2.25 2.3125
v -0.4844 -2 2.375
v -0.5469 -2 2.3125
v -0.4844 -2.25 2.375
v -0.5469 -2.25 2.3125
v -0.1094 -2 1.1875
v -0.1094 -2 1.125
v -0.1094 -2.25 1.1875
v -0.1094 -2.25 1.125
v -0.3594 -2 1.1875
v -0.2969 -2 1.125
v -0.3594 -2.25 1.1875
v -0.2969 -2.25 1.125
v -0.3569 -1.8879 1.8125
v -0.3569 -1.8879 1.5625
v -0.5108 -2.0849 1.8125
v -0.5108 -2.0849 1.5625
v -0.4061 -1.8494 1.8125
v -0.4061 -1.8494 1.5625
v -0.5601 -2.0464 1.8125
v -0.5601 -2.0464 1.5625
v 1.2813 -1.75 2.5313
v 1.2813 -1.75 1.9688
v 1.2813 -1.8125 2.5313
v 1.2813 -1.8125 1.9688
v 0.7188 -1.75 2.5313
v 0.7188 -1.75 1.9688
v 0.7188 -1.8125 2.5313
v 0.7188 -1.8125 1.9688
v 0.2813 -1.75 2.5313
v 0.2813 -1.75 1.9688
v 0.2813 -1.8125 2.5313
v 0.2813 -1.8125 1.9688
v -0.2812 -1.75 2.5313
v -0.2812 -1.75 1.9688
v -0.2812 -1.8125 2.5313
v -0.2812 -1.8125 1.9688
v 0.2813 -2.3125 2.5313
v 0.2813 -2.3125 1.9688
v 0.2813 -2.375 2.5313
v 0.2813 -2.375 1.9688
v -0.2812 -2.3125 2.5313
v -0.2812 -2.3125 1.9688
v -0.2812 -2.375 2.5313
v -0.2812 -2.375 1.9688
v 1.2813 -2.3125 2.5313
v 1.2813 -2.3125 1.9688
v 1.2813 -2.375 2.5313
v 1.2813 -2.375 1.9688
v 0.7188 -2.3125 2.5313
v 0.7188 -2.3125 1.9688
v 0.7188 -2.375 2.5313
v 0.7188 -2.375 1.9688
v 1.0625 -1.5 1.1875
v 1.0625 -1.5 0.9375
v 1.0625 -2.0625 1.1875
v 1.0625 -2.0625 0.9375
v 0.9375 -1.5 1.1875
v 0.9375 -2.0625 1.1875
v 0.9375 -2.0625 0.9375
v 1.0625 -1.5 1.5
v 1.0625 -1.5 1.1875
v 1.0625 -1.6875 1.75
v 1.0625 -1.6875 1.1875
v -0.0625 -1.5 1.5
v -0.0625 -1.5 1.1875
v -0.0625 -1.6875 1.75
v -0.0625 -1.6875 1.1875
v 1.0625 -1.6875 2
v 1.0625 -2.0625 2
v 1.0625 -2.0625 1.1875
v -0.0625 -1.6875 2
v -0.0625 -1.6875 1.1875
v -0.0625 -2.0625 2
v -0.0625 -2.0625 1.1875
v 1.0625 -2.0625 2
v 1.0625 -2.0625 0.9375
v 1.0625 -2.4375 2
v 1.0625 -2.4375 0.9375
v -0.0625 -2.0625 2
v -0.0625 -2.0625 0.9375
v -0.0625 -2.4375 2
v -0.0625 -2.4375 0.9375
v 0.9063 -2.125 0.875
v 0.9063 -2.125 0.75
v 0.9063 -2.375 0.875
v 0.9063 -2.375 0.75
v 0.6563 -2.125 0.875
v 0.6563 -2.125 0.75
v 0.6563 -2.375 0.875
v 0.6563 -2.375 0.75
v 0.9375 -2.0937 0.9375
v 0.9375 -2.0937 0.875
v 0.9375 -2.4062 0.9375
v 0.9375 -2.4062 0.875
v 0.625 -2.0937 0.9375
v 0.625 -2.0937 0.875
v 0.625 -2.4062 0.9375
v 0.625 -2.4062 0.875
v 0.3438 -2.125 0.875
v 0.3438 -2.125 0.75
v 0.3438 -2.375 0.875
v 0.3438 -2.375 0.75
v 0.0938 -2.125 0.875
v 0.0938 -2.125 0.75
v 0.0938 -2.375 0.875
v 0.0938 -2.375 0.75
v 0.375 -2.0937 0.9375
v 0.375 -2.0937 0.875
v 0.375 -2.4062 0.875
v 0.0625 -2.0937 0.9375
v 0.0625 -2.0937 0.875
v 0.0625 -2.4062 0.9375
v 0.0625 -2.4062 0.875
v -0.0625 -1.5 1.1875
v -0.0625 -1.5 0.9375
v -0.0625 -2.0625 1.1875
v -0.0625 -2.0625 0.9375
v 0.0625 -1.5 1.1875
v 0.0625 -1.5 0.9375
v 0.0625 -2.0625 1.1875
v 0.0625 -2.0625 0.9375
v 0.625 -1.5 1.1875
v 0.625 -1.5 0.9375
v 0.625 -2 0.9375
v 0.375 -1.5 1.1875
v 0.375 -1.5 0.9375
v 0.375 -2 1.1875
v 0.375 -2 0.9375
v -0.0625 -1.9375 1.4375
v -0.0625 -1.9375 1.0625
v -0.0625 -2.3125 1.4375
v -0.0625 -2.3125 1.0625
v -0.125 -1.9375 1.4375
v -0.125 -1.9375 1.0625
v -0.125 -2.3125 1.4375
v -0.125 -2.3125 1.0625
v 0.625 -1.25 1.5
v 0.625 -1.25 1.25
v 0.625 -1.5 1.5
v 0.625 -1.5 1.25
v 0.375 -1.25 1.5
v 0.375 -1.25 1.25
v 0.375 -1.5 1.5
v 0.375 -1.5 1.25
v 0.5625 -1.3125 1.0625
v 0.5938 -1.2812 1
v 0.5625 -1.4375 1.0625
v 0.5938 -1.4687 1
v 0.4375 -1.3125 1.0625
v 0.4063 -1.2812 1
v 0.4375 -1.4375 1.0625
v 0.4063 -1.4687 1
v 0.5938 -1.2812 1.125
v 0.5625 -1.3125 1.0625
v 0.5938 -1.4687 1.125
v 0.5625 -1.4375 1.0625
v 0.4063 -1.2812 1.125
v 0.4375 -1.3125 1.0625
v 0.4063 -1.4687 1.125
v 0.4375 -1.4375 1.0625
v 0.5625 -1.3125 1.1875
v 0.5938 -1.2812 1.125
v 0.5625 -1.4375 1.1875
v 0.5938 -1.4687 1.125
v 0.4375 -1.3125 1.1875
v 0.4063 -1.2812 1.125
v 0.4375 -1.4375 1.1875
v 0.4063 -1.4687 1.125
v 0.5938 -1.2812 1.25
v 0.5625 -1.3125 1.1875
v 0.5938 -1.4687 1.25
v 0.5625 -1.4375 1.1875
v 0.4063 -1.2812 1.25
v 0.4375 -1.3125 1.1875
v 0.4063 -1.4687 1.25
v 0.4375 -1.4375 1.1875
v 0.625 -1.25 1
v 0.625 -1.25 0.9375
v 0.625 -1.5 1
v 0.625 -1.5 0.9375
v 0.375 -1.25 1
v 0.375 -1.25 0.9375
v 0.375 -1.5 1
v 0.375 -1.5 0.9375
v 0.5938 -1.2812 0.9375
v 0.5938 -1.2812 0.875
v 0.5938 -1.4687 0.9375
v 0.5938 -1.4687 0.875
v 0.4063 -1.2812 0.9375
v 0.4063 -1.2812 0.875
v 0.4063 -1.4687 0.9375
v 0.4063 -1.4687 0.875
v 0.625 -1.25 0.875
v 0.625 -1.25 0.8125
v 0.625 -1.5 0.875
v 0.625 -1.5 0.8125
v 0.375 -1.25 0.875
v 0.375 -1.25 0.8125
v 0.375 -1.5 0.875
v 0.375 -1.5 0.8125
v 0.9375 -2 0.9363
v 0.9375 -2.0625 0.9363
v 0.0625 -2 0.9363
v 0.0625 -2.0625 0.9363
v 0.875 -2.5 1.875
v 0.875 -2.5 1.125
v 0.875 -2.625 1.875
v 0.875 -2.625 1.125
v 0.125 -2.5 1.875
v 0.125 -2.5 1.125
v 0.125 -2.625 1.875
v 0.125 -2.625 1.125
v 0.625 -2 1.1875
vt 0.2969 0.6094
vt 0.3906 0.6094
vt 0.3906 0.5156
vt 0.2969 0.5156
vt 0.1094 0.4063
vt 0.125 0.4063
vt 0.125 0.3125
vt 0.1094 0.3125
vt 0.1094 0.4219
vt 0.125 0.4219
vt 0.125 0.3281
vt 0.1094 0.3281
vt 0.3281 0.375
vt 0.3438 0.375
vt 0.3438 0.2813
vt 0.3281 0.2813
vt 0.125 0.375
vt 0.1406 0.375
vt 0.1406 0.2813
vt 0.125 0.2813
vt 0.0625 0.6875
vt 0.0625 0.7031
vt 0 0.7031
vt 0 0.6875
vt 0 0.75
vt 0.0156 0.75
vt 0.0156 0.6875
vt 0 0.6875
vt 0.0625 0.75
vt 0.0625 0.6875
vt 0 0.6875
vt 0 0.75
vt 0.0625 0.7344
vt 0.0625 0.75
vt 0 0.75
vt 0 0.7344
vt 0 0.6875
vt 0 0.7031
vt 0.0625 0.7031
vt 0.0625 0.6875
vt 0.0625 0.6875
vt 0.0625 0.7031
vt 0 0.7031
vt 0 0.6875
vt 0 0.75
vt 0.0156 0.75
vt 0.0156 0.6875
vt 0 0.6875
vt 0.0625 0.75
vt 0.0625 0.6875
vt 0 0.6875
vt 0 0.75
vt 0.0625 0.7344
vt 0.0625 0.75
vt 0 0.75
vt 0 0.7344
vt 0 0.6875
vt 0 0.7031
vt 0.0625 0.7031
vt 0.0625 0.6875
vt 0.4063 0.5
vt 0.4063 0.5313
vt 0.2969 0.5313
vt 0.2969 0.5
vt 0.4063 0.5
vt 0.4063 0.5313
vt 0.2969 0.5313
vt 0.2969 0.5
vt 0.5156 0.5
vt 0.5156 0.6094
vt 0.4063 0.6094
vt 0.4063 0.5
vt 0.4063 0.5
vt 0.4063 0.5313
vt 0.2969 0.5313
vt 0.2969 0.5
vt 0.4063 0.5
vt 0.4063 0.5313
vt 0.2969 0.5313
vt 0.2969 0.5
vt 0.4063 0.5
vt 0.4063 0.5313
vt 0.2969 0.5313
vt 0.2969 0.5
vt 0.4063 0.5
vt 0.4063 0.5313
vt 0.2969 0.5313
vt 0.2969 0.5
vt 0.5156 0.5
vt 0.5156 0.6094
vt 0.4063 0.6094
vt 0.4063 0.5
vt 0.4063 0.5
vt 0.4063 0.5313
vt 0.2969 0.5313
vt 0.2969 0.5
vt 0.4063 0.5
vt 0.4063 0.5313
vt 0.2969 0.5313
vt 0.2969 0.5
vt 0.3906 0.5156
vt 0.3906 0.6094
vt 0.2969 0.6094
vt 0.2969 0.5156
vt 0.125 0.3125
vt 0.125 0.4063
vt 0.1094 0.4063
vt 0.1094 0.3125
vt 0.125 0.3281
vt 0.125 0.4219
vt 0.1094 0.4219
vt 0.1094 0.3281
vt 0.3438 0.2813
vt 0.3438 0.375
vt 0.3281 0.375
vt 0.3281 0.2813
vt 0.1406 0.2813
vt 0.1406 0.375
vt 0.125 0.375
vt 0.125 0.2813
vt 0.3594 0.2031
vt 0.3594 0.2188
vt 0.1094 0.2188
vt 0.1094 0.2031
vt 0.3594 0.2031
vt 0.3594 0.2188
vt 0.1094 0.2188
vt 0.1094 0.2031
vt 0.7344 0.75
vt 0.7344 1
vt 0.4844 1
vt 0.4844 0.75
vt 0.3594 0.2031
vt 0.3594 0.2188
vt 0.1094 0.2188
vt 0.1094 0.2031
vt 0.3594 0.2031
vt 0.3594 0.2188
vt 0.1094 0.2188
vt 0.1094 0.2031
vt 0.2969 0.5156
vt 0.2969 0.5938
vt 0.3125 0.5938
vt 0.3125 0.5156
vt 0.2969 0.5156
vt 0.2969 0.5938
vt 0.3125 0.5938
vt 0.3125 0.5156
vt 0.3125 0.5
vt 0.3125 0.5156
vt 0.3906 0.5156
vt 0.3906 0.5
vt 0.3125 0.5
vt 0.3125 0.5156
vt 0.3906 0.5156
vt 0.3906 0.5
vt 0.2969 0.6094
vt 0.2969 0.6875
vt 0.2188 0.6875
vt 0.2188 0.6094
vt 0.2969 0.6094
vt 0.2969 0.6875
vt 0.2188 0.6875
vt 0.2188 0.6094
vt 0.3125 0.5156
vt 0.3125 0.5938
vt 0.2969 0.5938
vt 0.2969 0.5156
vt 0.3125 0.5156
vt 0.3125 0.5938
vt 0.2969 0.5938
vt 0.2969 0.5156
vt 0.3906 0.5
vt 0.3906 0.5156
vt 0.3125 0.5156
vt 0.3125 0.5
vt 0.3906 0.5
vt 0.3906 0.5156
vt 0.3125 0.5156
vt 0.3125 0.5
vt 0.2188 0.6094
vt 0.2188 0.6875
vt 0.2969 0.6875
vt 0.2969 0.6094
vt 0.2188 0.6094
vt 0.2188 0.6875
vt 0.2969 0.6875
vt 0.2969 0.6094
vt 0.2969 0.1094
vt 0.2969 0.2031
vt 0.2031 0.2031
vt 0.2031 0.1094
vt 0.2813 0
vt 0.2813 0.0469
vt 0.375 0.0469
vt 0.375 0
vt 0.3906 0.1406
vt 0.3906 0.0469
vt 0.375 0.0469
vt 0.375 0.1406
vt 0.4063 0.0469
vt 0.4063 0.1406
vt 0.3906 0.1406
vt 0.3906 0.0469
vt 0.4844 0
vt 0.4844 0.0469
vt 0.5 0.0469
vt 0.5 0
vt 0.375 0
vt 0.375 0.0469
vt 0.3906 0.0469
vt 0.3906 0
vt 0.5 0.5156
vt 0.5 0.6094
vt 0.4063 0.6094
vt 0.4063 0.5156
vt 1 0.4531
vt 1 0.5469
vt 1 0.5469
vt 1 0.4531
vt 0.7344 0.5625
vt 0.7344 0.6563
vt 0.7188 0.6563
vt 0.7188 0.5625
vt 0.7344 0.5625
vt 0.7344 0.6563
vt 0.7188 0.6563
vt 0.7188 0.5625
vt 0.7344 0.4688
vt 0.7344 0.5625
vt 0.7188 0.5625
vt 0.7188 0.4688
vt 0.7344 0.4688
vt 0.7344 0.5625
vt 0.7188 0.5625
vt 0.7188 0.4688
vt 0.5313 0.75
vt 0.5455 0.75
vt 0.5455 0.6875
vt 0.5313 0.6875
vt 0.6094 0.6875
vt 0.625 0.6875
vt 0.625 0.75
vt 0.6094 0.7344
vt 0.6094 0.6875
vt 0.6094 0.75
vt 0.5938 0.75
vt 0.5938 0.7031
vt 0.5313 0.6875
vt 0.5313 0.75
vt 0.5781 0.75
vt 0.5781 0.6875
vt 0.5156 0.75
vt 0.5156 0.6875
vt 0.7089 0.6875
vt 0.7089 0.75
vt 0.5156 0.75
vt 0.7031 0.75
vt 0.7031 0.6875
vt 0.5156 0.6875
vt 0.5156 0.6875
vt 0.7031 0.6875
vt 0.7031 0.75
vt 0.5156 0.75
vt 0.5156 0.6875
vt 0.5156 0.75
vt 0.7031 0.75
vt 0.7031 0.6875
vt 1 0.6094
vt 1 0.6094
vt 1 0.5469
vt 1 0.5469
vt 0.3281 0.75
vt 0.3906 0.75
vt 0.3906 0.6875
vt 0.3281 0.6875
vt 0.3281 0.7344
vt 0.3281 0.75
vt 0.3906 0.75
vt 0.3906 0.7344
vt 0.3281 0.6875
vt 0.3281 0.7031
vt 0.3906 0.7031
vt 0.3906 0.6875
vt 0.375 0.75
vt 0.3906 0.75
vt 0.3906 0.6875
vt 0.375 0.6875
vt 0.3281 0.75
vt 0.3438 0.75
vt 0.3438 0.6875
vt 0.3281 0.6875
vt 0.5781 0.75
vt 0.6094 0.75
vt 0.6094 0.6875
vt 0.5781 0.6875
vt 0.5625 0.75
vt 0.5625 0.6875
vt 0.5313 0.6875
vt 0.5313 0.75
vt 0.6406 0.6875
vt 0.6406 0.75
vt 0.6719 0.75
vt 0.6719 0.6875
vt 0.5 0.75
vt 0.5625 0.75
vt 0.5625 0.6875
vt 0.5 0.6875
vt 0.5469 0.75
vt 0.5469 0.6875
vt 0.6094 0.6875
vt 0.6094 0.75
vt 0.5938 0.6875
vt 0.5938 0.75
vt 0.6563 0.75
vt 0.6563 0.6875
vt 0.5781 0.75
vt 0.5955 0.75
vt 0.5955 0.6875
vt 0.5781 0.6875
vt 0.5469 0.6875
vt 0.5313 0.6875
vt 0.5313 0.7344
vt 0.5469 0.75
vt 0.7031 0.7031
vt 0.7031 0.75
vt 0.7188 0.75
vt 0.7188 0.6875
vt 0.5625 0.75
vt 0.6094 0.75
vt 0.6094 0.6875
vt 0.5625 0.6875
vt 0.6719 0.5469
vt 0.6484 0.5469
vt 0.6406 0.5313
vt 0.6719 0.5313
vt 0.6406 0.5313
vt 0.6328 0.5469
vt 0.6094 0.5469
vt 0.6094 0.5313
vt 0.625 0.5391
vt 0.6563 0.5391
vt 0.6563 0.5625
vt 0.625 0.5625
vt 0.0469 0.9531
vt 0.0469 1
vt 0 1
vt 0 0.9531
vt 0.6563 0.5333
vt 0.6563 0.5469
vt 0.625 0.5469
vt 0.625 0.5333
vt 0.0469 1
vt 0 1
vt 0 0.9531
vt 0.0469 0.9531
vt 0.6406 0.5313
vt 0.6406 0.5625
vt 0.6094 0.5625
vt 0.6094 0.5313
vt 0.625 0.5313
vt 0.625 0.5625
vt 0.5938 0.5625
vt 0.5938 0.5313
vt 0.6406 0.5313
vt 0.6406 0.5625
vt 0.6094 0.5625
vt 0.6094 0.5313
vt 0.0313 0.4375
vt 0.0313 0.4688
vt 0.0781 0.4688
vt 0.0781 0.4375
vt 0.0313 0.4375
vt 0.0313 0.4688
vt 0.0781 0.4688
vt 0.0781 0.4375
vt 0.0781 0.4688
vt 0.0781 0.4219
vt 0.0313 0.4219
vt 0.0313 0.4688
vt 0.0156 0.3594
vt 0.0156 0.3906
vt 0.0625 0.3906
vt 0.0625 0.3594
vt 0.2344 0.875
vt 0 0.875
vt 0 0.75
vt 0.2344 0.75
vt 0.2344 0.875
vt 0 0.875
vt 0 0.75
vt 0.2344 0.75
vt 0.4844 0.875
vt 0.4844 0.75
vt 0.3594 0.75
vt 0.3594 0.875
vt 0.2344 0.75
vt 0 0.75
vt 0 0.875
vt 0.2344 0.875
vt 0.2344 0.875
vt 0 0.875
vt 0 0.75
vt 0.2344 0.75
vt 0.2344 1
vt 0 1
vt 0 0.875
vt 0.2344 0.875
vt 0.2344 1
vt 0 1
vt 0 0.875
vt 0.2344 0.875
vt 0.4844 1
vt 0.4844 0.875
vt 0.3594 0.875
vt 0.3594 1
vt 0.2344 0.875
vt 0 0.875
vt 0 1
vt 0.2344 1
vt 0.2344 0.875
vt 0 0.875
vt 0 1
vt 0.2344 1
vt 0.7089 0.6875
vt 0.5156 0.6875
vt 0.5156 0.75
vt 0.7089 0.75
vt 0.7031 0.6875
vt 0.7031 0.75
vt 0.5156 0.75
vt 0.5156 0.6875
vt 0.7031 0.75
vt 0.7031 0.6875
vt 0.5156 0.6875
vt 0.5156 0.75
vt 0.7031 0.75
vt 0.5156 0.75
vt 0.5156 0.6875
vt 0.7031 0.6875
vt 0.5625 0.6875
vt 0.5625 0.75
vt 0.5 0.75
vt 0.5 0.6875
vt 0.6094 0.6875
vt 0.5469 0.6875
vt 0.5469 0.75
vt 0.6094 0.75
vt 0.6563 0.75
vt 0.5938 0.75
vt 0.5938 0.6875
vt 0.6563 0.6875
vt 0.6094 0.6875
vt 0.6094 0.75
vt 0.5781 0.75
vt 0.5781 0.6875
vt 0.5313 0.6875
vt 0.5625 0.6875
vt 0.5625 0.75
vt 0.5313 0.75
vt 0.6719 0.75
vt 0.6406 0.75
vt 0.6406 0.6875
vt 0.6719 0.6875
vt 0.5955 0.6875
vt 0.5955 0.75
vt 0.5781 0.75
vt 0.5781 0.6875
vt 0.5313 0.7344
vt 0.5313 0.6875
vt 0.5469 0.6875
vt 0.5469 0.75
vt 0.7188 0.75
vt 0.7031 0.75
vt 0.7031 0.7031
vt 0.7188 0.6875
vt 0.6094 0.6875
vt 0.6094 0.75
vt 0.5625 0.75
vt 0.5625 0.6875
vt 0.5455 0.6875
vt 0.5455 0.75
vt 0.5313 0.75
vt 0.5313 0.6875
vt 0.625 0.75
vt 0.625 0.6875
vt 0.6094 0.6875
vt 0.6094 0.7344
vt 0.5938 0.75
vt 0.6094 0.75
vt 0.6094 0.6875
vt 0.5938 0.7031
vt 0.5781 0.75
vt 0.5313 0.75
vt 0.5313 0.6875
vt 0.5781 0.6875
vt 1 0.5469
vt 1 0.6094
vt 1 0.6094
vt 1 0.5469
vt 0.3906 0.6875
vt 0.3906 0.75
vt 0.3281 0.75
vt 0.3281 0.6875
vt 0.3906 0.75
vt 0.3281 0.75
vt 0.3281 0.7344
vt 0.3906 0.7344
vt 0.3906 0.7031
vt 0.3281 0.7031
vt 0.3281 0.6875
vt 0.3906 0.6875
vt 0.3906 0.6875
vt 0.3906 0.75
vt 0.375 0.75
vt 0.375 0.6875
vt 0.3438 0.6875
vt 0.3438 0.75
vt 0.3281 0.75
vt 0.3281 0.6875
vt 0.2813 0.4844
vt 0.2813 0.5
vt 0.1406 0.5
vt 0.1406 0.4844
vt 0.2813 0.4844
vt 0.2813 0.5
vt 0.1406 0.5
vt 0.1406 0.4844
vt 0.2813 0.4688
vt 0.2813 0.6094
vt 0.1406 0.6094
vt 0.1406 0.4688
vt 0.2813 0.4688
vt 0.2813 0.6094
vt 0.1406 0.6094
vt 0.1406 0.4688
vt 0.2813 0.4844
vt 0.2813 0.5
vt 0.1406 0.5
vt 0.1406 0.4844
vt 0.2813 0.4844
vt 0.2813 0.5
vt 0.1406 0.5
vt 0.1406 0.4844
vt 0.2813 0.4844
vt 0.2813 0.5
vt 0.1406 0.5
vt 0.1406 0.4844
vt 0.2813 0.4844
vt 0.2813 0.5
vt 0.1406 0.5
vt 0.1406 0.4844
vt 0.2813 0.4688
vt 0.2813 0.6094
vt 0.1406 0.6094
vt 0.1406 0.4688
vt 0.2813 0.4688
vt 0.2813 0.6094
vt 0.1406 0.6094
vt 0.1406 0.4688
vt 0.2813 0.4844
vt 0.2813 0.5
vt 0.1406 0.5
vt 0.1406 0.4844
vt 0.2813 0.4844
vt 0.2813 0.5
vt 0.1406 0.5
vt 0.1406 0.4844
vt 0.2813 0.4844
vt 0.2813 0.5
vt 0.1406 0.5
vt 0.1406 0.4844
vt 0.2813 0.4844
vt 0.2813 0.5
vt 0.1406 0.5
vt 0.1406 0.4844
vt 0.2813 0.4688
vt 0.2813 0.6094
vt 0.1406 0.6094
vt 0.1406 0.4688
vt 0.2813 0.4688
vt 0.2813 0.6094
vt 0.1406 0.6094
vt 0.1406 0.4688
vt 0.2813 0.4844
vt 0.2813 0.5
vt 0.1406 0.5
vt 0.1406 0.4844
vt 0.2813 0.4844
vt 0.2813 0.5
vt 0.1406 0.5
vt 0.1406 0.4844
vt 0.2813 0.4844
vt 0.2813 0.5
vt 0.1406 0.5
vt 0.1406 0.4844
vt 0.2813 0.4844
vt 0.2813 0.5
vt 0.1406 0.5
vt 0.1406 0.4844
vt 0.2813 0.4688
vt 0.2813 0.6094
vt 0.1406 0.6094
vt 0.1406 0.4688
vt 0.2813 0.4688
vt 0.2813 0.6094
vt 0.1406 0.6094
vt 0.1406 0.4688
vt 0.2813 0.4844
vt 0.2813 0.5
vt 0.1406 0.5
vt 0.1406 0.4844
vt 0.2813 0.4844
vt 0.2813 0.5
vt 0.1406 0.5
vt 0.1406 0.4844
vt 0.4375 0.3438
vt 0.4375 0.4844
vt 0.375 0.4844
vt 0.375 0.3438
vt 0.3594 0.3438
vt 0.3594 0.4844
vt 0.4219 0.4844
vt 0.4219 0.3438
vt 0.4219 0.4688
vt 0.4219 0.4063
vt 0.4531 0.4063
vt 0.4531 0.4688
vt 0.4063 0.25
vt 0.4063 0.3906
vt 0.4375 0.3906
vt 0.4375 0.25
vt 0.4219 0.3438
vt 0.4219 0.4219
vt 0.375 0.4844
vt 0.375 0.3438
vt 0.3906 0.4844
vt 0.3438 0.4219
vt 0.3438 0.3438
vt 0.3906 0.3438
vt 0.3594 0.4844
vt 0.3594 0.2031
vt 0.4375 0.2031
vt 0.4375 0.4844
vt 0.4375 0.4844
vt 0.3594 0.4844
vt 0.3594 0.2031
vt 0.4375 0.2031
vt 0.3438 0.4844
vt 0.3438 0.2031
vt 0.3906 0.2031
vt 0.3906 0.4844
vt 0.0938 0.2813
vt 0 0.2813
vt 0 0.4844
vt 0.0938 0.4844
vt 0.0938 0.4844
vt 0 0.4844
vt 0 0.2813
vt 0.0938 0.2813
vt 0.1094 0.4844
vt 0.3125 0.4844
vt 0.3125 0.2031
vt 0.1094 0.2031
vt 0.0938 0.2031
vt 0 0.2031
vt 0 0.4688
vt 0.0938 0.4688
vt 0 0.2031
vt 0.0938 0.2031
vt 0.0938 0.4688
vt 0 0.4688
vt 0 0.2031
vt 0.0938 0.2031
vt 0.0938 0.4688
vt 0 0.4688
vt 0.3594 0.4844
vt 0.0938 0.4844
vt 0.0938 0.2031
vt 0.3594 0.2031
vt 0 0.4688
vt 0.0938 0.4688
vt 0.0938 0.2031
vt 0 0.2031
vt 0.0938 0.4688
vt 0 0.4688
vt 0 0.2031
vt 0.0938 0.2031
vt 0.5 0.5156
vt 0.5 0.5781
vt 0.4688 0.5781
vt 0.4688 0.5156
vt 0.5 0.5156
vt 0.5 0.5781
vt 0.4688 0.5781
vt 0.4688 0.5156
vt 0.5 0.5156
vt 0.5 0.5469
vt 0.4375 0.5469
vt 0.4375 0.5156
vt 0.5 0.5156
vt 0.5 0.5469
vt 0.4375 0.5469
vt 0.4375 0.5156
vt 0.5781 0.5
vt 0.5781 0.5625
vt 0.5156 0.5625
vt 0.5156 0.5
vt 0.3125 0.5156
vt 0.3125 0.5938
vt 0.2969 0.5938
vt 0.2969 0.5156
vt 0.2969 0.5156
vt 0.2969 0.5938
vt 0.3125 0.5938
vt 0.3125 0.5156
vt 0.3906 0.5
vt 0.3906 0.5156
vt 0.3125 0.5156
vt 0.3125 0.5
vt 0.3906 0.5938
vt 0.3906 0.6094
vt 0.3125 0.6094
vt 0.3125 0.5938
vt 0.3125 0.5156
vt 0.3125 0.5938
vt 0.3906 0.5938
vt 0.3906 0.5156
vt 0.5 0.5156
vt 0.5 0.5781
vt 0.4688 0.5781
vt 0.4688 0.5156
vt 0.5 0.5156
vt 0.5 0.5781
vt 0.4688 0.5781
vt 0.4688 0.5156
vt 0.5 0.5156
vt 0.5 0.5469
vt 0.4375 0.5469
vt 0.4375 0.5156
vt 0.5 0.5156
vt 0.5 0.5469
vt 0.4375 0.5469
vt 0.4375 0.5156
vt 0.5781 0.5
vt 0.5781 0.5625
vt 0.5156 0.5625
vt 0.5156 0.5
vt 0.3125 0.5156
vt 0.3125 0.5938
vt 0.2969 0.5938
vt 0.2969 0.5156
vt 0.2969 0.5156
vt 0.2969 0.5938
vt 0.3125 0.5938
vt 0.3125 0.5156
vt 0.3906 0.5
vt 0.3906 0.5156
vt 0.3125 0.5156
vt 0.3125 0.5
vt 0.3906 0.5938
vt 0.3906 0.6094
vt 0.3125 0.6094
vt 0.3125 0.5938
vt 0.3125 0.5156
vt 0.3125 0.5938
vt 0.3906 0.5938
vt 0.3906 0.5156
vt 0.375 0.4844
vt 0.4375 0.4844
vt 0.4375 0.3438
vt 0.375 0.3438
vt 0.4219 0.4844
vt 0.3594 0.4844
vt 0.3594 0.3438
vt 0.4219 0.3438
vt 0.4531 0.4063
vt 0.4219 0.4063
vt 0.4219 0.4688
vt 0.4531 0.4688
vt 0.4375 0.3906
vt 0.4063 0.3906
vt 0.4063 0.25
vt 0.4375 0.25
vt 0.125 0.5469
vt 0 0.5469
vt 0 0.6094
vt 0.125 0.6094
vt 0.125 0.6094
vt 0.125 0.5469
vt 0.0625 0.5469
vt 0.0625 0.6094
vt 0.125 0.4844
vt 0 0.4844
vt 0 0.5469
vt 0.125 0.5469
vt 0.5 0.5156
vt 0.5 0.6094
vt 0.4063 0.6094
vt 0.4063 0.5156
vt 0.7344 0.5625
vt 0.7344 0.6563
vt 0.7188 0.6563
vt 0.7188 0.5625
vt 0.7344 0.5625
vt 0.7344 0.6563
vt 0.7188 0.6563
vt 0.7188 0.5625
vt 0.7344 0.4688
vt 0.7344 0.5625
vt 0.7188 0.5625
vt 0.7188 0.4688
vt 0.7344 0.4688
vt 0.7344 0.5625
vt 0.7188 0.5625
vt 0.7188 0.4688
vt 0.4531 0.6875
vt 0.4531 0.75
vt 0.3906 0.75
vt 0.3906 0.6875
vt 0.4531 0.6875
vt 0.4531 0.75
vt 0.3906 0.75
vt 0.3906 0.6875
vt 0.4531 0.6875
vt 0.4531 0.75
vt 0.3906 0.75
vt 0.3906 0.6875
vt 0.4531 0.6875
vt 0.4531 0.75
vt 0.3906 0.75
vt 0.3906 0.6875
vt 0.4531 0.6875
vt 0.4531 0.75
vt 0.3906 0.75
vt 0.3906 0.6875
vt 0.5927 0.5458
vt 0.6005 0.5323
vt 0.6318 0.5323
vt 0.6396 0.5458
vt 0.6943 0.5458
vt 0.663 0.5458
vt 0.6552 0.5323
vt 0.7021 0.5323
vt 0.6172 0.5333
vt 0.6484 0.5333
vt 0.6563 0.5469
vt 0.6094 0.5469
vt 0.6563 0.5333
vt 0.6484 0.5487
vt 0.6172 0.5487
vt 0.6094 0.5333
vt 0.6005 0.5458
vt 0.5927 0.5323
vt 0.6396 0.5323
vt 0.6318 0.5458
vt 0.7021 0.5458
vt 0.6552 0.5458
vt 0.663 0.5323
vt 0.6943 0.5323
vt 0.6563 0.5469
vt 0.6094 0.5469
vt 0.6172 0.5333
vt 0.6484 0.5333
vt 0.6172 0.5487
vt 0.6094 0.5333
vt 0.6563 0.5333
vt 0.6484 0.5487
vt 0.5927 0.5458
vt 0.6005 0.5323
vt 0.6318 0.5323
vt 0.6396 0.5458
vt 0.6943 0.5458
vt 0.663 0.5458
vt 0.6552 0.5323
vt 0.7021 0.5323
vt 0.6172 0.5315
vt 0.6484 0.5315
vt 0.6563 0.5469
vt 0.6094 0.5469
vt 0.6563 0.5333
vt 0.6484 0.5487
vt 0.6172 0.5487
vt 0.6094 0.5333
vt 0.6005 0.5458
vt 0.5927 0.5323
vt 0.6396 0.5323
vt 0.6318 0.5458
vt 0.7021 0.5458
vt 0.6552 0.5458
vt 0.663 0.5323
vt 0.6943 0.5323
vt 0.6563 0.5487
vt 0.6094 0.5487
vt 0.6172 0.5333
vt 0.6484 0.5333
vt 0.6172 0.5625
vt 0.6094 0.5471
vt 0.6563 0.5471
vt 0.6484 0.5625
vt 0.0781 0.6875
vt 0.0781 0.75
vt 0.0625 0.75
vt 0.0625 0.6875
vt 0.0781 0.6875
vt 0.0781 0.75
vt 0.0625 0.75
vt 0.0625 0.6875
vt 0.125 0.7344
vt 0.125 0.75
vt 0.0625 0.75
vt 0.0625 0.7344
vt 0.8906 0
vt 0.8906 0
vt 0.8281 0
vt 0.8281 0
vt 0.125 0.6875
vt 0.125 0.75
vt 0.0625 0.75
vt 0.0625 0.6875
vt 0.125 0.6875
vt 0.125 0.75
vt 0.0625 0.75
vt 0.0625 0.6875
vt 0.7188 0.5625
vt 0.7188 0.6094
vt 0.7031 0.6094
vt 0.7031 0.5625
vt 0.6875 0.5625
vt 0.6875 0.6094
vt 0.6719 0.6094
vt 0.6719 0.5625
vt 0.7188 0.5938
vt 0.7188 0.6094
vt 0.6719 0.6094
vt 0.6719 0.5938
vt 0.7188 0.5625
vt 0.7188 0.5781
vt 0.6719 0.5781
vt 0.6719 0.5625
vt 0.0625 0.6875
vt 0.0625 0.75
vt 0.0781 0.75
vt 0.0781 0.6875
vt 0.125 0.6875
vt 0.125 0.75
vt 0.1094 0.75
vt 0.1094 0.6875
vt 0.125 0.7344
vt 0.125 0.75
vt 0.0625 0.75
vt 0.0625 0.7344
vt 0.125 0.6875
vt 0.125 0.7031
vt 0.0625 0.7031
vt 0.0625 0.6875
vt 0.125 0.6875
vt 0.125 0.75
vt 0.0625 0.75
vt 0.0625 0.6875
vt 0.125 0.6875
vt 0.125 0.75
vt 0.0625 0.75
vt 0.0625 0.6875
vt 0.5 0.75
vt 0.5 0.7656
vt 0.7188 0.7656
vt 0.7188 0.75
vt 0.7188 0.4688
vt 0.7188 0.5
vt 0.5313 0.5
vt 0.5313 0.4688
vt 0.7188 0.4688
vt 0.7188 0.5
vt 0.5313 0.5
vt 0.5313 0.4688
vt 0.7188 0.4688
vt 0.7188 0.5
vt 0.5313 0.5
vt 0.5313 0.4688
vt 0.7188 0.4688
vt 0.7188 0.5
vt 0.5313 0.5
vt 0.5313 0.4688
vt 0.125 0.6094
vt 0 0.6094
vt 0 0.5469
vt 0.125 0.5469
vn 1 0 0
vn 0 1 0
vn 0 -1 0
vn 0 0 1
vn 0 0 -1
vn 1 0 0
vn -1 0 0
vn 0 1 0
vn 0 0 1
vn 0 0 -1
vn 1 0 0
vn -1 0 0
vn 0 1 0
vn 0 0 1
vn 0 0 -1
vn 1 0 0
vn -1 0 0
vn 0 -1 0
vn 0 0 1
vn 0 0 -1
vn 1 0 0
vn -1 0 0
vn 0 -1 0
vn 0 0 1
vn 0 0 -1
vn -1 0 0
vn 0 1 0
vn 0 -1 0
vn 0 0 1
vn 0 0 -1
vn 1 0 0
vn -1 0 0
vn 0 -1 0
vn 0 0 1
vn 0 0 -1
vn 1 0 0
vn -1 0 0
vn 0 1 0
vn 0 -1 0
vn 0 0 1
vn 0 0 -1
vn 1 0 0
vn -1 0 0
vn 0 1 0
vn 0 -1 0
vn 0 0 1
vn 0 0 -1
vn 1 0 0
vn -1 0 0
vn 0 1 0
vn 0 -1 0
vn 0 0 1
vn 0 0 -1
vn 1 0 0
vn -1 0 0
vn 0 1 0
vn 0 -1 0
vn 0 0 1
vn 0 0 -1
vn 0.71 0 -0.71
vn 0 1 0
vn 0 -1 0
vn 0 0 -1
vn -0.97 0 0.24
vn 0.97 0 -0.24
vn 0 1 0
vn 0 -1 0
vn -0.79 -0.62 0
vn 0.79 0.62 0
vn -0.62 0.79 0
vn 0.62 -0.79 0
vn 0 0 1
vn 0 0 -1
vn 1 0 0
vn 0 1 0
vn 0 -1 0
vn 1 0 0
vn 0 1 0
vn 0 -1 0
vn 0.71 0 0.71
vn 0 1 0
vn 0 -1 0
vn 0 0 1
vn 1 0 0
vn -1 0 0
vn 0 1 0
vn 0 -1 0
vn 0 0.45 0.89
vn 0 0 -1
vn 1 0 0
vn -1 0 0
vn 0 0 1
vn 1 0 0
vn -1 0 0
vn 0 1 0
vn 0 0 1
vn 1 0 0
vn -1 0 0
vn 0 1 0
vn 0 0 1
vn 0 0 -1
vn 1 0 0
vn -1 0 0
vn 0 1 0
vn 0 0 1
vn 0 0 -1
vn 0.97 0 0.24
vn -0.97 0 -0.24
vn 0 1 0
vn 0 -1 0
vn -1 0 0
vn 0 1 0
vn 0 -1 0
vn -1 0 0
vn 0 1 0
vn 0 -1 0
vn -0.71 0 0.71
vn 0 1 0
vn 0 -1 0
vn 0 0 1
vn -0.71 0 -0.71
vn 0 1 0
vn 0 -1 0
vn 0 0 -1
vn 0.79 -0.62 0
vn -0.79 0.62 0
vn 0.62 0.79 0
vn -0.62 -0.79 0
vn 0 0 1
vn 0 0 -1
vn 1 0 0
vn -1 0 0
vn 0 1 0
vn 0 -1 0
vn 0 0 1
vn 0 0 -1
vn 1 0 0
vn -1 0 0
vn 0 1 0
vn 0 -1 0
vn 0 0 1
vn 0 0 -1
vn 1 0 0
vn -1 0 0
vn 0 1 0
vn 0 -1 0
vn 0 0 1
vn 0 0 -1
vn 1 0 0
vn -1 0 0
vn 0 1 0
vn 0 -1 0
vn 0 0 1
vn 0 0 -1
vn 1 0 0
vn -1 0 0
vn 0 1 0
vn 0 0 -1
vn 1 0 0
vn -1 0 0
vn 0 1 0
vn 0 0.8 0.6
vn 0 0 -1
vn 1 0 0
vn -1 0 0
vn 0 1 0
vn 0 0 1
vn 1 0 0
vn -1 0 0
vn 0 -1 0
vn 0 0 1
vn 0 0 -1
vn 1 0 0
vn -1 0 0
vn 0 1 0
vn 0 -1 0
vn 0 0 -1
vn 1 0 0
vn -1 0 0
vn 0 1 0
vn 0 -1 0
vn 0 0 -1
vn 1 0 0
vn -1 0 0
vn 0 1 0
vn 0 -1 0
vn 0 0 -1
vn 1 0 0
vn -1 0 0
vn 0 1 0
vn 0 -1 0
vn 0 0 -1
vn -1 0 0
vn 1 0 0
vn 0 1 0
vn 0 0 -1
vn -1 0 0
vn 0 1 0
vn 0 0 -1
vn -1 0 0
vn 0 1 0
vn 0 -1 0
vn 0 0 1
vn 0 0 -1
vn 1 0 0
vn -1 0 0
vn 0 1 0
vn 0 0 1
vn 0 0 -1
vn 0.89 0 0.45
vn -0.89 0 0.45
vn 0 0.89 0.45
vn 0 -0.89 0.45
vn 0.89 0 -0.45
vn -0.89 0 -0.45
vn 0 0.89 -0.45
vn 0 -0.89 -0.45
vn 0.89 0 0.45
vn -0.89 0 0.45
vn 0 0.89 0.45
vn 0 -0.89 0.45
vn 0.89 0 -0.45
vn -0.89 0 -0.45
vn 0 0.89 -0.45
vn 0 -0.89 -0.45
vn 1 0 0
vn -1 0 0
vn 0 1 0
vn 0 -1 0
vn 0 0 1
vn 0 0 -1
vn 1 0 0
vn -1 0 0
vn 0 1 0
vn 0 -1 0
vn 1 0 0
vn -1 0 0
vn 0 1 0
vn 0 -1 0
vn 0 0 1
vn 0 0 -1
vn 0 0 -1
vn 1 0 0
vn -1 0 0
vn 0 0 1
vn 0 0 -1
vn 1 0 0
usemtl weapon_heavy_chemthrower
f 14/25/7 13/26/7 15/27/7
f 14/25/7 15/27/7 16/28/7
f 14/29/8 10/30/8 9/31/8
f 14/29/8 9/31/8 13/32/8
f 15/33/9 11/34/9 12/35/9
f 15/33/9 12/35/9 16/36/9
f 13/37/10 9/38/10 11/39/10
f 13/37/10 11/39/10 15/40/10
f 10/41/11 14/42/11 16/43/11
f 10/41/11 16/43/11 12/44/11
f 20/45/12 18/46/12 17/47/12
f 20/45/12 17/47/12 19/48/12
f 23/49/13 21/50/13 22/51/13
f 23/49/13 22/51/13 24/52/13
f 17/53/14 18/54/14 22/55/14
f 17/53/14 22/55/14 21/56/14
f 19/57/15 17/58/15 21/59/15
f 19/57/15 21/59/15 23/60/15
f 24/61/16 22/62/16 18/63/16
f 24/61/16 18/63/16 20/64/16
f 28/65/17 26/66/17 25/67/17
f 28/65/17 25/67/17 27/68/17
f 31/69/18 29/70/18 30/71/18
f 31/69/18 30/71/18 32/72/18
f 25/73/19 26/74/19 30/75/19
f 25/73/19 30/75/19 29/76/19
f 27/77/20 25/78/20 29/79/20
f 27/77/20 29/79/20 31/80/20
f 32/81/21 30/82/21 26/83/21
f 32/81/21 26/83/21 28/84/21
f 37/85/22 35/86/22 34/87/22
f 37/85/22 34/87/22 36/88/22
f 40/89/23 38/90/23 39/91/23
f 40/89/23 39/91/23 41/92/23
f 37/93/24 36/94/24 40/95/24
f 37/93/24 40/95/24 41/96/24
f 36/97/25 34/98/25 38/99/25
f 36/97/25 38/99/25 40/100/25
f 41/101/26 39/102/26 35/103/26
f 41/101/26 35/103/26 37/104/26
f 45/105/27 43/106/27 42/107/27
f 45/105/27 42/107/27 44/108/27
f 48/109/28 46/110/28 47/111/28
f 48/109/28 47/111/28 49/112/28
f 45/113/29 44/114/29 48/115/29
f 45/113/29 48/115/29 49/116/29
f 44/117/30 42/118/30 46/119/30
f 44/117/30 46/119/30 48/120/30
f 49/121/31 47/122/31 43/123/31
f 49/121/31 43/123/31 45/124/31
f 56/125/32 54/126/32 55/127/32
f 56/125/32 55/127/32 57/128/32
f 50/129/33 51/130/33 55/131/33
f 50/129/33 55/131/33 54/132/33
f 53/133/34 52/134/34 56/135/34
f 53/133/34 56/135/34 57/136/34
f 52/137/35 50/138/35 54/139/35
f 52/137/35 54/139/35 56/140/35
f 57/141/36 55/142/36 51/143/36
f 57/141/36 51/143/36 53/144/36
f 61/145/37 59/146/37 58/147/37
f 61/145/37 58/147/37 60/148/37
f 64/149/38 62/150/38 63/151/38
f 64/149/38 63/151/38 65/152/38
f 61/153/39 60/154/39 64/155/39
f 61/153/39 64/155/39 65/156/39
f 60/157/40 58/158/40 62/159/40
f 60/157/40 62/159/40 64/160/40
f 65/161/41 63/162/41 59/163/41
f 65/161/41 59/163/41 61/164/41
f 70/165/42 68/166/42 67/167/42
f 70/165/42 67/167/42 69/168/42
f 73/169/43 71/170/43 72/171/43
f 73/169/43 72/171/43 74/172/43
f 67/173/44 68/174/44 72/175/44
f 67/173/44 72/175/44 71/176/44
f 70/177/45 69/178/45 73/179/45
f 70/177/45 73/179/45 74/180/45
f 69/181/46 67/182/46 71/183/46
f 69/181/46 71/183/46 73/184/46
f 74/185/47 72/186/47 68/187/47
f 74/185/47 68/187/47 70/188/47
f 78/189/48 76/190/48 75/191/48
f 78/189/48 75/191/48 77/192/48
f 81/193/49 79/194/49 80/195/49
f 81/193/49 80/195/49 82/196/49
f 75/197/50 76/198/50 80/199/50
f 75/197/50 80/199/50 79/200/50
f 78/201/51 77/202/51 81/203/51
f 78/201/51 81/203/51 82/204/51
f 77/205/52 75/206/52 79/207/52
f 77/205/52 79/207/52 81/208/52
f 82/209/53 80/210/53 76/211/53
f 82/209/53 76/211/53 78/212/53
f 66/213/54 84/214/54 83/215/54
f 66/213/54 83/215/54 85/216/54
f 88/217/55 86/218/55 87/219/55
f 88/217/55 87/219/55 89/220/55
f 83/221/56 84/222/56 87/223/56
f 83/221/56 87/223/56 86/224/56
f 66/225/57 85/226/57 88/227/57
f 66/225/57 88/227/57 89/228/57
f 85/229/58 83/230/58 86/231/58
f 85/229/58 86/231/58 88/232/58
f 89/233/59 87/234/59 84/235/59
f 89/233/59 84/235/59 66/236/59
f 93/237/60 91/238/60 90/239/60
f 93/237/60 90/239/60 92/240/60
f 96/241/61 94/242/61 95/243/61
f 96/241/61 95/243/61 97/244/61
f 90/245/62 91/246/62 95/247/62
f 90/245/62 95/247/62 94/248/62
f 93/249/63 92/250/63 96/251/63
f 93/249/63 96/251/63 97/252/63
f 92/253/64 90/254/64 94/255/64
f 92/253/64 94/255/64 96/256/64
f 97/257/65 95/258/65 91/259/65
f 97/257/65 91/259/65 93/260/65
f 103/261/66 102/262/66 104/263/66
f 103/261/66 104/263/66 105/264/66
f 99/265/67 98/266/67 102/267/67
f 99/265/67 102/267/67 103/268/67
f 104/269/68 100/270/68 101/271/68
f 104/269/68 101/271/68 105/272/68
f 101/273/69 99/274/69 103/275/69
f 101/273/69 103/275/69 105/276/69
f 108/277/70 106/278/70 107/279/70
f 108/277/70 107/279/70 109/280/70
f 111/281/71 110/282/71 112/283/71
f 111/281/71 112/283/71 113/284/71
f 107/285/72 106/286/72 110/287/72
f 107/285/72 110/287/72 111/288/72
f 112/289/73 108/290/73 109/291/73
f 112/289/73 109/291/73 113/292/73
f 114/293/74 115/294/74 117/295/74
f 114/293/74 117/295/74 116/296/74
f 119/297/75 118/298/75 120/299/75
f 119/297/75 120/299/75 121/300/75
f 119/301/76 115/302/76 114/303/76
f 119/301/76 114/303/76 118/304/76
f 120/305/77 116/306/77 117/307/77
f 120/305/77 117/307/77 121/308/77
f 118/309/78 114/310/78 116/311/78
f 118/309/78 116/311/78 120/312/78
f 115/313/79 119/314/79 121/315/79
f 115/313/79 121/315/79 117/316/79
f 127/317/80 126/318/80 128/319/80
f 127/317/80 128/319/80 129/320/80
f 127/321/81 123/322/81 122/323/81
f 127/321/81 122/323/81 126/324/81
f 128/325/82 124/326/82 125/327/82
f 128/325/82 125/327/82 129/328/82
f 135/329/83 134/330/83 136/331/83
f 135/329/83 136/331/83 137/332/83
f 135/333/84 131/334/84 130/335/84
f 135/333/84 130/335/84 134/336/84
f 136/337/85 132/338/85 133/339/85
f 136/337/85 133/339/85 137/340/85
f 143/341/86 142/342/86 144/343/86
f 143/341/86 144/343/86 145/344/86
f 139/345/87 138/346/87 142/347/87
f 139/345/87 142/347/87 143/348/87
f 144/349/88 140/350/88 141/351/88
f 144/349/88 141/351/88 145/352/88
f 142/353/89 138/354/89 140/355/89
f 142/353/89 140/355/89 144/356/89
f 148/357/90 147/358/90 149/359/90
f 148/357/90 149/359/90 150/360/90
f 153/361/91 151/362/91 152/363/91
f 153/361/91 152/363/91 154/364/91
f 151/365/92 147/366/92 148/367/92
f 151/365/92 148/367/92 152/368/92
f 150/369/93 149/370/93 153/371/93
f 150/369/93 153/371/93 154/372/93
f 149/373/94 147/374/94 151/375/94
f 149/373/94 151/375/94 153/376/94
f 152/377/95 148/378/95 150/379/95
f 152/377/95 150/379/95 154/380/95
f 158/381/96 156/382/96 155/383/96
f 158/381/96 155/383/96 157/384/96
f 161/385/97 159/386/97 160/387/97
f 161/385/97 160/387/97 162/388/97
f 157/389/98 155/390/98 159/391/98
f 157/389/98 159/391/98 161/392/98
f 166/393/99 164/394/99 163/395/99
f 166/393/99 163/395/99 165/396/99
f 169/397/100 167/398/100 168/399/100
f 169/397/100 168/399/100 170/400/100
f 163/401/101 164/402/101 168/403/101
f 163/401/101 168/403/101 167/404/101
f 165/405/102 163/406/102 167/407/102
f 165/405/102 167/407/102 169/408/102
f 174/409/103 172/410/103 171/411/103
f 174/409/103 171/411/103 173/412/103
f 177/413/104 175/414/104 176/415/104
f 177/413/104 176/415/104 178/416/104
f 171/417/105 172/418/105 176/419/105
f 171/417/105 176/419/105 175/420/105
f 173/421/106 171/422/106 175/423/106
f 173/421/106 175/423/106 177/424/106
f 178/425/107 176/426/107 172/427/107
f 178/425/107 172/427/107 174/428/107
f 182/429/108 180/430/108 179/431/108
f 182/429/108 179/431/108 181/432/108
f 185/433/109 183/434/109 184/435/109
f 185/433/109 184/435/109 186/436/109
f 179/437/110 180/438/110 184/439/110
f 179/437/110 184/439/110 183/440/110
f 181/441/111 179/442/111 183/443/111
f 181/441/111 183/443/111 185/444/111
f 186/445/112 184/446/112 180/447/112
f 186/445/112 180/447/112 182/448/112
f 189/449/113 188/450/113 190/451/113
f 189/449/113 190/451/113 191/452/113
f 194/453/114 192/454/114 193/455/114
f 194/453/114 193/455/114 195/456/114
f 192/457/115 188/458/115 189/459/115
f 192/457/115 189/459/115 193/460/115
f 191/461/116 190/462/116 194/463/116
f 191/461/116 194/463/116 195/464/116
f 202/465/117 200/466/117 201/467/117
f 202/465/117 201/467/117 203/468/117
f 196/469/118 197/470/118 201/471/118
f 196/469/118 201/471/118 200/472/118
f 199/473/119 198/474/119 202/475/119
f 199/473/119 202/475/119 203/476/119
f 210/477/120 208/478/120 209/479/120
f 210/477/120 209/479/120 211/480/120
f 204/481/121 205/482/121 209/483/121
f 204/481/121 209/483/121 208/484/121
f 207/485/122 206/486/122 210/487/122
f 207/485/122 210/487/122 211/488/122
f 218/489/123 216/490/123 217/491/123
f 218/489/123 217/491/123 219/492/123
f 216/493/124 212/494/124 213/495/124
f 216/493/124 213/495/124 217/496/124
f 215/497/125 214/498/125 218/499/125
f 215/497/125 218/499/125 219/500/125
f 214/501/126 212/502/126 216/503/126
f 214/501/126 216/503/126 218/504/126
f 226/505/127 224/506/127 225/507/127
f 226/505/127 225/507/127 227/508/127
f 224/509/128 220/510/128 221/511/128
f 224/509/128 221/511/128 225/512/128
f 223/513/129 222/514/129 226/515/129
f 223/513/129 226/515/129 227/516/129
f 225/517/130 221/518/130 223/519/130
f 225/517/130 223/519/130 227/520/130
f 231/521/131 229/522/131 228/523/131
f 231/521/131 228/523/131 230/524/131
f 234/525/132 232/526/132 233/527/132
f 234/525/132 233/527/132 235/528/132
f 228/529/133 229/530/133 233/531/133
f 228/529/133 233/531/133 232/532/133
f 231/533/134 230/534/134 234/535/134
f 231/533/134 234/535/134 235/536/134
f 230/537/135 228/538/135 232/539/135
f 230/537/135 232/539/135 234/540/135
f 235/541/136 233/542/136 229/543/136
f 235/541/136 229/543/136 231/544/136
f 239/545/137 237/546/137 236/547/137
f 239/545/137 236/547/137 238/548/137
f 242/549/138 240/550/138 241/551/138
f 242/549/138 241/551/138 243/552/138
f 236/553/139 237/554/139 241/555/139
f 236/553/139 241/555/139 240/556/139
f 239/557/140 238/558/140 242/559/140
f 239/557/140 242/559/140 243/560/140
f 238/561/141 236/562/141 240/563/141
f 238/561/141 240/563/141 242/564/141
f 243/565/142 241/566/142 237/567/142
f 243/565/142 237/567/142 239/568/142
f 247/569/143 245/570/143 244/571/143
f 247/569/143 244/571/143 246/572/143
f 250/573/144 248/574/144 249/575/144
f 250/573/144 249/575/144 251/576/144
f 244/577/145 245/578/145 249/579/145
f 244/577/145 249/579/145 248/580/145
f 247/581/146 246/582/146 250/583/146
f 247/581/146 250/583/146 251/584/146
f 246/585/147 244/586/147 248/587/147
f 246/585/147 248/587/147 250/588/147
f 251/589/148 249/590/148 245/591/148
f 251/589/148 245/591/148 247/592/148
f 255/593/149 253/594/149 252/595/149
f 255/593/149 252/595/149 254/596/149
f 258/597/150 256/598/150 257/599/150
f 258/597/150 257/599/150 259/600/150
f 252/601/151 253/602/151 257/603/151
f 252/601/151 257/603/151 256/604/151
f 255/605/152 254/606/152 258/607/152
f 255/605/152 258/607/152 259/608/152
f 254/609/153 252/610/153 256/611/153
f 254/609/153 256/611/153 258/612/153
f 259/613/154 257/614/154 253/615/154
f 259/613/154 253/615/154 255/616/154
f 263/617/155 261/618/155 260/619/155
f 263/617/155 260/619/155 262/620/155
f 266/621/156 264/622/156 265/623/156
f 266/621/156 265/623/156 267/624/156
f 260/625/157 261/626/157 265/627/157
f 260/625/157 265/627/157 264/628/157
f 263/629/158 262/630/158 266/631/158
f 263/629/158 266/631/158 267/632/158
f 262/633/159 260/634/159 264/635/159
f 262/633/159 264/635/159 266/636/159
f 267/637/160 265/638/160 261/639/160
f 267/637/160 261/639/160 263/640/160
f 271/641/161 269/642/161 268/643/161
f 271/641/161 268/643/161 270/644/161
f 273/645/162 272/646/162 187/647/162
f 273/645/162 187/647/162 274/648/162
f 268/649/163 269/650/163 187/651/163
f 268/649/163 187/651/163 272/652/163
f 274/653/164 187/654/164 269/655/164
f 274/653/164 269/655/164 271/656/164
f 276/657/165 275/658/165 277/659/165
f 276/657/165 277/659/165 278/660/165
f 281/661/166 279/662/166 280/663/166
f 281/661/166 280/663/166 282/664/166
f 279/665/167 275/666/167 276/667/167
f 279/665/167 276/667/167 280/668/167
f 277/669/168 275/670/168 279/671/168
f 277/669/168 279/671/168 281/672/168
f 280/673/169 276/674/169 278/675/169
f 280/673/169 278/675/169 282/676/169
f 285/677/170 146/678/170 283/679/170
f 285/677/170 283/679/170 284/680/170
f 288/681/171 286/682/171 287/683/171
f 288/681/171 287/683/171 289/684/171
f 283/685/172 146/686/172 287/687/172
f 283/685/172 287/687/172 286/688/172
f 284/689/173 283/690/173 286/691/173
f 284/689/173 286/691/173 288/692/173
f 293/693/174 291/694/174 290/695/174
f 293/693/174 290/695/174 292/696/174
f 296/697/175 294/698/175 295/699/175
f 296/697/175 295/699/175 297/700/175
f 293/701/176 292/702/176 296/703/176
f 293/701/176 296/703/176 297/704/176
f 292/705/177 290/706/177 294/707/177
f 292/705/177 294/707/177 296/708/177
f 297/709/178 295/710/178 291/711/178
f 297/709/178 291/711/178 293/712/178
f 301/713/179 299/714/179 298/715/179
f 301/713/179 298/715/179 300/716/179
f 304/717/180 302/718/180 303/719/180
f 304/717/180 303/719/180 305/720/180
f 298/721/181 299/722/181 303/723/181
f 298/721/181 303/723/181 302/724/181
f 301/725/182 300/726/182 304/727/182
f 301/725/182 304/727/182 305/728/182
f 305/729/183 303/730/183 299/731/183
f 305/729/183 299/731/183 301/732/183
f 309/733/184 307/734/184 306/735/184
f 309/733/184 306/735/184 308/736/184
f 312/737/185 310/738/185 311/739/185
f 312/737/185 311/739/185 313/740/185
f 306/741/186 307/742/186 311/743/186
f 306/741/186 311/743/186 310/744/186
f 309/745/187 308/746/187 312/747/187
f 309/745/187 312/747/187 313/748/187
f 313/749/188 311/750/188 307/751/188
f 313/749/188 307/751/188 309/752/188
f 317/753/189 315/754/189 314/755/189
f 317/753/189 314/755/189 316/756/189
f 320/757/190 318/758/190 319/759/190
f 320/757/190 319/759/190 321/760/190
f 314/761/191 315/762/191 319/763/191
f 314/761/191 319/763/191 318/764/191
f 317/765/192 316/766/192 320/767/192
f 317/765/192 320/767/192 321/768/192
f 321/769/193 319/770/193 315/771/193
f 321/769/193 315/771/193 317/772/193
f 324/773/194 323/774/194 322/775/194
f 324/773/194 322/775/194 33/776/194
f 327/777/195 325/778/195 326/779/195
f 327/777/195 326/779/195 328/780/195
f 322/781/196 323/782/196 326/783/196
f 322/781/196 326/783/196 325/784/196
f 324/785/197 33/786/197 327/787/197
f 324/785/197 327/787/197 328/788/197
f 328/789/198 326/790/198 323/791/198
f 328/789/198 323/791/198 324/792/198
f 329/793/199 330/794/199 332/795/199
f 329/793/199 332/795/199 331/796/199
f 334/797/200 333/798/200 335/799/200
f 334/797/200 335/799/200 336/800/200
f 334/801/201 330/802/201 329/803/201
f 334/801/201 329/803/201 333/804/201
f 330/805/202 334/806/202 336/807/202
f 330/805/202 336/807/202 332/808/202
f 342/809/203 340/810/203 341/811/203
f 342/809/203 341/811/203 343/812/203
f 337/813/204 338/814/204 341/815/204
f 337/813/204 341/815/204 340/816/204
f 343/817/205 341/818/205 338/819/205
f 343/817/205 338/819/205 339/820/205
f 350/821/206 348/822/206 349/823/206
f 350/821/206 349/823/206 351/824/206
f 344/825/207 345/826/207 349/827/207
f 344/825/207 349/827/207 348/828/207
f 347/829/208 346/830/208 350/831/208
f 347/829/208 350/831/208 351/832/208
f 346/833/209 344/834/209 348/835/209
f 346/833/209 348/835/209 350/836/209
f 351/837/210 349/838/210 345/839/210
f 351/837/210 345/839/210 347/840/210
f 355/841/211 353/842/211 352/843/211
f 355/841/211 352/843/211 354/844/211
f 358/845/212 356/846/212 357/847/212
f 358/845/212 357/847/212 359/848/212
f 352/849/213 353/850/213 357/851/213
f 352/849/213 357/851/213 356/852/213
f 354/853/214 352/854/214 356/855/214
f 354/853/214 356/855/214 358/856/214
f 359/857/215 357/858/215 353/859/215
f 359/857/215 353/859/215 355/860/215
f 361/861/216 360/862/216 362/863/216
f 361/861/216 362/863/216 363/864/216
f 366/865/217 364/866/217 365/867/217
f 366/865/217 365/867/217 367/868/217
f 364/869/218 360/870/218 361/871/218
f 364/869/218 361/871/218 365/872/218
f 363/873/219 362/874/219 366/875/219
f 363/873/219 366/875/219 367/876/219
f 369/877/220 368/878/220 370/879/220
f 369/877/220 370/879/220 371/880/220
f 374/881/221 372/882/221 373/883/221
f 374/881/221 373/883/221 375/884/221
f 372/885/222 368/886/222 369/887/222
f 372/885/222 369/887/222 373/888/222
f 371/889/223 370/890/223 374/891/223
f 371/889/223 374/891/223 375/892/223
f 377/893/224 376/894/224 378/895/224
f 377/893/224 378/895/224 379/896/224
f 382/897/225 380/898/225 381/899/225
f 382/897/225 381/899/225 383/900/225
f 380/901/226 376/902/226 377/903/226
f 380/901/226 377/903/226 381/904/226
f 379/905/227 378/906/227 382/907/227
f 379/905/227 382/907/227 383/908/227
f 385/909/228 384/910/228 386/911/228
f 385/909/228 386/911/228 387/912/228
f 390/913/229 388/914/229 389/915/229
f 390/913/229 389/915/229 391/916/229
f 388/917/230 384/918/230 385/919/230
f 388/917/230 385/919/230 389/920/230
f 387/921/231 386/922/231 390/923/231
f 387/921/231 390/923/231 391/924/231
f 395/925/232 393/926/232 392/927/232
f 395/925/232 392/927/232 394/928/232
f 398/929/233 396/930/233 397/931/233
f 398/929/233 397/931/233 399/932/233
f 392/933/234 393/934/234 397/935/234
f 392/933/234 397/935/234 396/936/234
f 395/937/235 394/938/235 398/939/235
f 395/937/235 398/939/235 399/940/235
f 394/941/236 392/942/236 396/943/236
f 394/941/236 396/943/236 398/944/236
f 399/945/237 397/946/237 393/947/237
f 399/945/237 393/947/237 395/948/237
f 403/949/238 401/950/238 400/951/238
f 403/949/238 400/951/238 402/952/238
f 406/953/239 404/954/239 405/955/239
f 406/953/239 405/955/239 407/956/239
f 400/957/240 401/958/240 405/959/240
f 400/957/240 405/959/240 404/960/240
f 403/961/241 402/962/241 406/963/241
f 403/961/241 406/963/241 407/964/241
f 411/965/242 409/966/242 408/967/242
f 411/965/242 408/967/242 410/968/242
f 414/969/243 412/970/243 413/971/243
f 414/969/243 413/971/243 415/972/243
f 408/973/244 409/974/244 413/975/244
f 408/973/244 413/975/244 412/976/244
f 411/977/245 410/978/245 414/979/245
f 411/977/245 414/979/245 415/980/245
f 410/981/246 408/982/246 412/983/246
f 410/981/246 412/983/246 414/984/246
f 415/985/247 413/986/247 409/987/247
f 415/985/247 409/987/247 411/988/247
f 419/989/248 418/990/248 416/991/248
f 419/989/248 416/991/248 417/992/248
f 423/993/249 421/994/249 420/995/249
f 423/993/249 420/995/249 422/996/249
f 426/997/250 424/998/250 425/999/250
f 426/997/250 425/999/250 427/1000/250
f 422/1001/251 420/1002/251 424/1003/251
f 422/1001/251 424/1003/251 426/1004/251
f 427/1005/252 425/1006/252 421/1007/252
f 427/1005/252 421/1007/252 423/1008/252
f 339/1009/253 338/1010/253 337/1011/253
f 339/1009/253 337/1011/253 428/1012/253
o gun
v 0.375 -1.6875 1.25
v 0.375 -1.6875 0.4375
v 0.375 -2 1.25
v 0.375 -2 0.4375
v 0.0625 -1.6875 1.25
v 0.0625 -1.6875 0.4375
v 0.0625 -2 1.25
v 0.0625 -2 0.4375
v 0.9375 -1.6875 1.25
v 0.9375 -1.6875 0.4375
v 0.9375 -2 1.25
v 0.9375 -2 0.4375
v 0.625 -1.6875 1.25
v 0.625 -1.6875 0.4375
v 0.625 -2 1.25
v 0.625 -2 0.4375
vt 0.2031 0.6094
vt 0.2031 0.6875
vt 0 0.6875
vt 0 0.6094
vt 0 0.6875
vt 0 0.6094
vt 0.2031 0.6094
vt 0.2031 0.6875
vt 0 0.6875
vt 0.2031 0.6875
vt 0.2031 0.6094
vt 0 0.6094
vt 0 0.6094
vt 0.2031 0.6094
vt 0.2031 0.6875
vt 0 0.6875
vt 0.2969 0.6094
vt 0.2969 0.6875
vt 0.2188 0.6875
vt 0.2188 0.6094
vt 0.2031 0.6094
vt 0.2031 0.6875
vt 0 0.6875
vt 0 0.6094
vt 0 0.6875
vt 0 0.6094
vt 0.2031 0.6094
vt 0.2031 0.6875
vt 0 0.6875
vt 0.2031 0.6875
vt 0.2031 0.6094
vt 0 0.6094
vt 0 0.6094
vt 0.2031 0.6094
vt 0.2031 0.6875
vt 0 0.6875
vt 0.2969 0.6094
vt 0.2969 0.6875
vt 0.2188 0.6875
vt 0.2188 0.6094
vn 1 0 0
vn -1 0 0
vn 0 1 0
vn 0 -1 0
vn 0 0 -1
vn 1 0 0
vn -1 0 0
vn 0 1 0
vn 0 -1 0
vn 0 0 -1
usemtl weapon_heavy_chemthrower
f 432/1013/254 430/1014/254 429/1015/254
f 432/1013/254 429/1015/254 431/1016/254
f 435/1017/255 433/1018/255 434/1019/255
f 435/1017/255 434/1019/255 436/1020/255
f 429/1021/256 430/1022/256 434/1023/256
f 429/1021/256 434/1023/256 433/1024/256
f 432/1025/257 431/1026/257 435/1027/257
f 432/1025/257 435/1027/257 436/1028/257
f 436/1029/258 434/1030/258 430/1031/258
f 436/1029/258 430/1031/258 432/1032/258
f 440/1033/259 438/1034/259 437/1035/259
f 440/1033/259 437/1035/259 439/1036/259
f 443/1037/260 441/1038/260 442/1039/260
f 443/1037/260 442/1039/260 444/1040/260
f 437/1041/261 438/1042/261 442/1043/261
f 437/1041/261 442/1043/261 441/1044/261
f 440/1045/262 439/1046/262 443/1047/262
f 440/1045/262 443/1047/262 444/1048/262
f 444/1049/263 442/1050/263 438/1051/263
f 444/1049/263 438/1051/263 440/1052/263
o stage2
v 0.9063 -1.7187 0.4375
v 0.9063 -1.7187 -0.125
v 0.9063 -1.9687 0.4375
v 0.9063 -1.9687 -0.125
v 0.6563 -1.7187 0.4375
v 0.6563 -1.7187 -0.125
v 0.6563 -1.9687 0.4375
v 0.6563 -1.9687 -0.125
v 0.3438 -1.7187 0.4375
v 0.3438 -1.7187 -0.125
v 0.3438 -1.9687 0.4375
v 0.3438 -1.9687 -0.125
v 0.0938 -1.7187 0.4375
v 0.0938 -1.7187 -0.125
v 0.0938 -1.9687 0.4375
v 0.0938 -1.9687 -0.125
vt 0.125 0.75
vt 0.125 0.6875
vt 0.2656 0.6875
vt 0.2656 0.75
vt 0.2656 0.75
vt 0.2656 0.6875
vt 0.125 0.6875
vt 0.125 0.75
vt 0.2656 0.75
vt 0.125 0.75
vt 0.125 0.6875
vt 0.2656 0.6875
vt 0.125 0.6875
vt 0.2656 0.6875
vt 0.2656 0.75
vt 0.125 0.75
vt 0.2656 0.75
vt 0.3281 0.75
vt 0.3281 0.6875
vt 0.2656 0.6875
vt 0.125 0.6875
vt 0.125 0.75
vt 0.2656 0.75
vt 0.2656 0.6875
vt 0.2656 0.75
vt 0.2656 0.6875
vt 0.125 0.6875
vt 0.125 0.75
vt 0.2656 0.75
vt 0.125 0.75
vt 0.125 0.6875
vt 0.2656 0.6875
vt 0.125 0.6875
vt 0.2656 0.6875
vt 0.2656 0.75
vt 0.125 0.75
vt 0.2656 0.75
vt 0.3281 0.75
vt 0.3281 0.6875
vt 0.2656 0.6875
vn 1 0 0
vn -1 0 0
vn 0 1 0
vn 0 -1 0
vn 0 0 -1
vn 1 0 0
vn -1 0 0
vn 0 1 0
vn 0 -1 0
vn 0 0 -1
usemtl weapon_heavy_chemthrower
f 448/1053/264 446/1054/264 445/1055/264
f 448/1053/264 445/1055/264 447/1056/264
f 451/1057/265 449/1058/265 450/1059/265
f 451/1057/265 450/1059/265 452/1060/265
f 445/1061/266 446/1062/266 450/1063/266
f 445/1061/266 450/1063/266 449/1064/266
f 448/1065/267 447/1066/267 451/1067/267
f 448/1065/267 451/1067/267 452/1068/267
f 452/1069/268 450/1070/268 446/1071/268
f 452/1069/268 446/1071/268 448/1072/268
f 456/1073/269 454/1074/269 453/1075/269
f 456/1073/269 453/1075/269 455/1076/269
f 459/1077/270 457/1078/270 458/1079/270
f 459/1077/270 458/1079/270 460/1080/270
f 453/1081/271 454/1082/271 458/1083/271
f 453/1081/271 458/1083/271 457/1084/271
f 456/1085/272 455/1086/272 459/1087/272
f 456/1085/272 459/1087/272 460/1088/272
f 460/1089/273 458/1090/273 454/1091/273
f 460/1089/273 454/1091/273 456/1092/273
o stage3
v 0.875 -1.75 -0.125
v 0.875 -1.75 -0.6875
v 0.875 -1.9375 -0.125
v 0.875 -1.9375 -0.6875
v 0.6875 -1.75 -0.125
v 0.6875 -1.75 -0.6875
v 0.6875 -1.9375 -0.125
v 0.6875 -1.9375 -0.6875
v 0.3125 -1.75 -0.125
v 0.3125 -1.75 -0.6875
v 0.3125 -1.9375 -0.125
v 0.3125 -1.9375 -0.6875
v 0.125 -1.75 -0.125
v 0.125 -1.75 -0.6875
v 0.125 -1.9375 -0.125
v 0.125 -1.9375 -0.6875
v 0.375 -1.6875 -0.6875
v 0.375 -1.6875 -1.1875
v 0.375 -2 -0.6875
v 0.375 -2 -1.1875
v 0.0625 -1.6875 -0.6875
v 0.0625 -1.6875 -1.1875
v 0.0625 -2 -0.6875
v 0.0625 -2 -1.1875
v 0.9375 -1.6875 -0.6875
v 0.9375 -1.6875 -1.1875
v 0.9375 -2 -0.6875
v 0.9375 -2 -1.1875
v 0.625 -1.6875 -0.6875
v 0.625 -1.6875 -1.1875
v 0.625 -2 -0.6875
v 0.625 -2 -1.1875
v 0.875 -1.75 -0.6875
v 0.875 -1.75 -1.125
v 0.875 -1.9375 -0.6875
v 0.875 -1.9375 -1.125
v 0.6875 -1.75 -0.6875
v 0.6875 -1.75 -1.125
v 0.6875 -1.9375 -0.6875
v 0.6875 -1.9375 -1.125
v 0.3125 -1.75 -0.6875
v 0.3125 -1.75 -1.125
v 0.3125 -1.9375 -0.6875
v 0.3125 -1.9375 -1.125
v 0.125 -1.75 -0.6875
v 0.125 -1.75 -1.125
v 0.125 -1.9375 -0.6875
v 0.125 -1.9375 -1.125
vt 0 0.6406
vt 0 0.6875
vt 0.1406 0.6875
vt 0.1406 0.6406
vt 0 0.6875
vt 0.1406 0.6875
vt 0.1406 0.6406
vt 0 0.6406
vt 0.1406 0.6406
vt 0 0.6406
vt 0 0.6875
vt 0.1406 0.6875
vt 0 0.6875
vt 0 0.6406
vt 0.1406 0.6406
vt 0.1406 0.6875
vt 0 0.6406
vt 0 0.6875
vt 0.1406 0.6875
vt 0.1406 0.6406
vt 0 0.6875
vt 0 0.6406
vt 0.1406 0.6406
vt 0.1406 0.6875
vt 0 0.6875
vt 0.1406 0.6875
vt 0.1406 0.6406
vt 0 0.6406
vt 0.1406 0.6406
vt 0 0.6406
vt 0 0.6875
vt 0.1406 0.6875
vt 0.2969 0.6094
vt 0.2969 0.6875
vt 0.4219 0.6875
vt 0.4219 0.6094
vt 0.4219 0.6875
vt 0.4219 0.6094
vt 0.2969 0.6094
vt 0.2969 0.6875
vt 0.4219 0.6875
vt 0.2969 0.6875
vt 0.2969 0.6094
vt 0.4219 0.6094
vt 0.2969 0.6094
vt 0.4219 0.6094
vt 0.4219 0.6875
vt 0.2969 0.6875
vt 0.5781 0.6094
vt 0.5781 0.6875
vt 0.6563 0.6875
vt 0.6563 0.6094
vt 0.4219 0.6094
vt 0.4219 0.6875
vt 0.5 0.6875
vt 0.5 0.6094
vt 0.2969 0.6094
vt 0.2969 0.6875
vt 0.4219 0.6875
vt 0.4219 0.6094
vt 0.4219 0.6875
vt 0.4219 0.6094
vt 0.2969 0.6094
vt 0.2969 0.6875
vt 0.4219 0.6875
vt 0.2969 0.6875
vt 0.2969 0.6094
vt 0.4219 0.6094
vt 0.2969 0.6094
vt 0.4219 0.6094
vt 0.4219 0.6875
vt 0.2969 0.6875
vt 0.5781 0.6094
vt 0.5781 0.6875
vt 0.6563 0.6875
vt 0.6563 0.6094
vt 0.4219 0.6094
vt 0.4219 0.6875
vt 0.5 0.6875
vt 0.5 0.6094
vt 0.625 0.6094
vt 0.625 0.5625
vt 0.5156 0.5625
vt 0.5156 0.6094
vt 0.5156 0.5625
vt 0.5156 0.6094
vt 0.625 0.6094
vt 0.625 0.5625
vt 0.5156 0.5625
vt 0.625 0.5625
vt 0.625 0.6094
vt 0.5156 0.6094
vt 0.625 0.6094
vt 0.5156 0.6094
vt 0.5156 0.5625
vt 0.625 0.5625
vt 0.625 0.6094
vt 0.6719 0.6094
vt 0.6719 0.5625
vt 0.625 0.5625
vt 0.625 0.6094
vt 0.625 0.5625
vt 0.5156 0.5625
vt 0.5156 0.6094
vt 0.5156 0.5625
vt 0.5156 0.6094
vt 0.625 0.6094
vt 0.625 0.5625
vt 0.5156 0.5625
vt 0.625 0.5625
vt 0.625 0.6094
vt 0.5156 0.6094
vt 0.625 0.6094
vt 0.5156 0.6094
vt 0.5156 0.5625
vt 0.625 0.5625
vt 0.625 0.6094
vt 0.6719 0.6094
vt 0.6719 0.5625
vt 0.625 0.5625
vn 1 0 0
vn 0 1 0
vn 0 -1 0
vn -1 0 0
vn 1 0 0
vn -1 0 0
vn 0 1 0
vn 0 -1 0
vn 1 0 0
vn -1 0 0
vn 0 1 0
vn 0 -1 0
vn 0 0 1
vn 0 0 -1
vn 1 0 0
vn -1 0 0
vn 0 1 0
vn 0 -1 0
vn 0 0 1
vn 0 0 -1
vn 1 0 0
vn -1 0 0
vn 0 1 0
vn 0 -1 0
vn 0 0 -1
vn 1 0 0
vn -1 0 0
vn 0 1 0
vn 0 -1 0
vn 0 0 -1
usemtl weapon_heavy_chemthrower
f 464/1093/274 462/1094/274 461/1095/274
f 464/1093/274 461/1095/274 463/1096/274
f 461/1097/275 462/1098/275 466/1099/275
f 461/1097/275 466/1099/275 465/1100/275
f 464/1101/276 463/1102/276 467/1103/276
f 464/1101/276 467/1103/276 468/1104/276
f 467/1105/277 465/1106/277 466/1107/277
f 467/1105/277 466/1107/277 468/1108/277
f 472/1109/278 470/1110/278 469/1111/278
f 472/1109/278 469/1111/278 471/1112/278
f 475/1113/279 473/1114/279 474/1115/279
f 475/1113/279 474/1115/279 476/1116/279
f 469/1117/280 470/1118/280 474/1119/280
f 469/1117/280 474/1119/280 473/1120/280
f 472/1121/281 471/1122/281 475/1123/281
f 472/1121/281 475/1123/281 476/1124/281
f 480/1125/282 478/1126/282 477/1127/282
f 480/1125/282 477/1127/282 479/1128/282
f 483/1129/283 481/1130/283 482/1131/283
f 483/1129/283 482/1131/283 484/1132/283
f 477/1133/284 478/1134/284 482/1135/284
f 477/1133/284 482/1135/284 481/1136/284
f 480/1137/285 479/1138/285 483/1139/285
f 480/1137/285 483/1139/285 484/1140/285
f 479/1141/286 477/1142/286 481/1143/286
f 479/1141/286 481/1143/286 483/1144/286
f 484/1145/287 482/1146/287 478/1147/287
f 484/1145/287 478/1147/287 480/1148/287
f 488/1149/288 486/1150/288 485/1151/288
f 488/1149/288 485/1151/288 487/1152/288
f 491/1153/289 489/1154/289 490/1155/289
f 491/1153/289 490/1155/289 492/1156/289
f 485/1157/290 486/1158/290 490/1159/290
f 485/1157/290 490/1159/290 489/1160/290
f 488/1161/291 487/1162/291 491/1163/291
f 488/1161/291 491/1163/291 492/1164/291
f 487/1165/292 485/1166/292 489/1167/292
f 487/1165/292 489/1167/292 491/1168/292
f 492/1169/293 490/1170/293 486/1171/293
f 492/1169/293 486/1171/293 488/1172/293
f 496/1173/294 494/1174/294 493/1175/294
f 496/1173/294 493/1175/294 495/1176/294
f 499/1177/295 497/1178/295 498/1179/295
f 499/1177/295 498/1179/295 500/1180/295
f 493/1181/296 494/1182/296 498/1183/296
f 493/1181/296 498/1183/296 497/1184/296
f 496/1185/297 495/1186/297 499/1187/297
f 496/1185/297 499/1187/297 500/1188/297
f 500/1189/298 498/1190/298 494/1191/298
f 500/1189/298 494/1191/298 496/1192/298
f 504/1193/299 502/1194/299 501/1195/299
f 504/1193/299 501/1195/299 503/1196/299
f 507/1197/300 505/1198/300 506/1199/300
f 507/1197/300 506/1199/300 508/1200/300
f 501/1201/301 502/1202/301 506/1203/301
f 501/1201/301 506/1203/301 505/1204/301
f 504/1205/302 503/1206/302 507/1207/302
f 504/1205/302 507/1207/302 508/1208/302
f 508/1209/303 506/1210/303 502/1211/303
f 508/1209/303 502/1211/303 504/1212/303