# Made by Pabilo8 with Blockbench
# Exported with IIToolkit Plugin on 02/10/2026
mtllib light_howitzer.mtl

o base
v 1.625 -2.3125 2.625
v 1.625 -2.3125 0.375
v 1.625 -2.75 2.625
v 1.625 -2.75 0.375
v -0.625 -2.3125 2.625
v -0.625 -2.3125 0.375
v -0.625 -2.75 2.625
v -0.625 -2.75 0.375
v 1.625 -2.3125 1.5
v -0.625 -2.3125 1.5
v -0.625 -2.75 1.5
v 1.625 -2.75 1.5
v 0.5 -2.3125 1.5
v 0.5 -2.3125 2.625
v 0.5 -2.75 2.625
v 0.5 -2.75 1.5
v 0.5 -2.75 0.375
v 0.5 -2.3125 0.375
v 0.5 -2.5625 2.625
v -0.625 -2.5625 2.625
v -0.625 -2.5625 1.5
v -0.625 -2.5625 0.375
v 0.5 -2.5625 0.375
v 1.625 -2.5625 0.375
v 1.625 -2.5625 1.5
v 1.625 -2.5625 2.625
v 1.625 -2.5625 2.0625
v 1.625 -2.3125 2.0625
v 0.5 -2.3125 2.0625
v -0.625 -2.3125 2.0625
v -0.625 -2.5625 2.0625
v -0.625 -2.75 2.0625
v 0.5 -2.75 2.0625
v 1.625 -2.75 2.0625
v 1.625 -2.5625 2.5625
v 1.625 -2.3125 2.5625
v 0.5 -2.3125 2.5625
v -0.625 -2.3125 2.5625
v -0.625 -2.5625 2.5625
v -0.625 -2.75 2.5625
v 0.5 -2.75 2.5625
v 1.625 -2.75 2.5625
v 1.625 -2.375 2.5625
v 1.625 -2.375 2.0625
v 1.625 -2.375 1.5
v 1.625 -2.375 0.375
v 0.5 -2.375 0.375
v -0.625 -2.375 0.375
v -0.625 -2.375 1.5
v -0.625 -2.375 2.0625
v -0.625 -2.375 2.5625
v -0.625 -2.375 2.625
v 0.5 -2.375 2.625
v 1.625 -2.375 2.625
v 1.625 -2.6875 2.5625
v 1.625 -2.6875 2.0625
v 1.625 -2.6875 1.5
v 1.625 -2.6875 0.375
v 0.5 -2.6875 0.375
v -0.625 -2.6875 0.375
v -0.625 -2.6875 1.5
v -0.625 -2.6875 2.0625
v -0.625 -2.6875 2.5625
v -0.625 -2.6875 2.625
v 0.5 -2.6875 2.625
v 1.625 -2.6875 2.625
v 1.4375 -2.5625 2.0625
v 1.4375 -2.375 2.5625
v 1.4375 -2.375 2.0625
v 1.4375 -2.5625 2.5625
v 1.4375 -2.6875 2.5625
v 1.4375 -2.6875 2.0625
v 1.5938 -2.375 2.5625
v 1.5938 -2.375 2.0625
v 1.5938 -2.6875 2.5625
v 1.5938 -2.6875 2.0625
vt 0.5 0.1875
vt 0.5 0.2344
vt 0.2188 0.2344
vt 0.2188 0.1875
vt 0.2813 0.1875
vt 0.2813 0.2344
vt 0 0.2344
vt 0 0.1875
vt 0 0.75
vt 0.25 0.75
vt 0.25 1
vt 0 1
vt 0 0.25
vt 0.25 0.25
vt 0.25 0.5
vt 0 0.5
vt 0.2813 0.1875
vt 0.2813 0.2344
vt 0 0.2344
vt 0 0.1875
vt 0.5 0.1875
vt 0.5 0.2344
vt 0.2188 0.2344
vt 0.2188 0.1875
vt 0 0.5
vt 0 0.375
vt 0.25 0.375
vt 0.25 0.5
vt 0.3594 0.1875
vt 0.3594 0.2344
vt 0.2188 0.2344
vt 0.2188 0.1875
vt 0.25 0.75
vt 0.25 0.875
vt 0 0.875
vt 0 0.75
vt 0.2813 0.1875
vt 0.2813 0.2344
vt 0.1406 0.2344
vt 0.1406 0.1875
vt 0.5 0.5
vt 0.5 0.375
vt 0.75 0.375
vt 0.75 0.5
vt 0.5 0.1875
vt 0.5 0.2344
vt 0.2188 0.2344
vt 0.2188 0.1875
vt 0.75 0.75
vt 0.75 0.875
vt 0.5 0.875
vt 0.5 0.75
vt 0.75 0.5
vt 0.5 0.5
vt 0.5 0.25
vt 0.75 0.25
vt 0.2813 0.1875
vt 0.2813 0.2344
vt 0 0.2344
vt 0 0.1875
vt 0.75 1
vt 0.5 1
vt 0.5 0.75
vt 0.75 0.75
vt 0.2813 0
vt 0.2813 0.0156
vt 0 0.0156
vt 0 0
vt 0.3594 0
vt 0.3594 0.0156
vt 0.2188 0.0156
vt 0.2188 0
vt 0.2813 0
vt 0.2813 0.0156
vt 0 0.0156
vt 0 0
vt 0.5 0
vt 0.5 0.0156
vt 0.2188 0.0156
vt 0.2188 0
vt 0.2813 0
vt 0.2813 0.0156
vt 0 0.0156
vt 0 0
vt 0.5 0
vt 0.5 0.0156
vt 0.2188 0.0156
vt 0.2188 0
vt 0.2813 0
vt 0.2813 0.0156
vt 0.1406 0.0156
vt 0.1406 0
vt 0.5 0
vt 0.5 0.0156
vt 0.2188 0.0156
vt 0.2188 0
vt 1 0.4531
vt 1 0.5
vt 0.875 0.5
vt 0.875 0.4531
vt 0.5 0.375
vt 0.5 0.2639
vt 0.75 0.2639
vt 0.75 0.375
vt 0 0.375
vt 0 0.2639
vt 0.25 0.2639
vt 0.25 0.375
vt 0.4844 0.1875
vt 0.4844 0.2344
vt 0.3594 0.2344
vt 0.3594 0.1875
vt 0.4844 0
vt 0.4844 0.0156
vt 0.3594 0.0156
vt 0.3594 0
vt 0.25 0.875
vt 0.25 0.9861
vt 0 0.9861
vt 0 0.875
vt 0.75 0.875
vt 0.75 0.9861
vt 0.5 0.9861
vt 0.5 0.875
vt 0.1406 0
vt 0.1406 0.0156
vt 0.0156 0.0156
vt 0.0156 0
vt 0.0156 0.1875
vt 0.0156 0.2344
vt 0 0.2344
vt 0 0.1875
vt 0.75 0.25
vt 0.75 0.2639
vt 0.5 0.2639
vt 0.5 0.25
vt 0.25 0.25
vt 0.25 0.2639
vt 0 0.2639
vt 0 0.25
vt 0.5 0.1875
vt 0.5 0.2344
vt 0.4844 0.2344
vt 0.4844 0.1875
vt 0.5 0
vt 0.5 0.0156
vt 0.4844 0.0156
vt 0.4844 0
vt 0 1
vt 0 0.9861
vt 0.25 0.9861
vt 0.25 1
vt 0.5 1
vt 0.5 0.9861
vt 0.75 0.9861
vt 0.75 1
vt 0.0156 0
vt 0.0156 0.0156
vt 0 0.0156
vt 0 0
vt 0.0156 0.25
vt 0.0156 0.2344
vt 0.1406 0.2344
vt 0.1406 0.25
vt 0.1406 0.25
vt 0.1406 0.2344
vt 0.2813 0.2344
vt 0.2813 0.25
vt 0.2188 0.25
vt 0.2188 0.2344
vt 0.5 0.2344
vt 0.5 0.25
vt 0 0.25
vt 0 0.2344
vt 0.2813 0.2344
vt 0.2813 0.25
vt 0.2188 0.25
vt 0.2188 0.2344
vt 0.5 0.2344
vt 0.5 0.25
vt 0 0.25
vt 0 0.2344
vt 0.2813 0.2344
vt 0.2813 0.25
vt 0.2188 0.25
vt 0.2188 0.2344
vt 0.3594 0.2344
vt 0.3594 0.25
vt 0.3594 0.25
vt 0.3594 0.2344
vt 0.4844 0.2344
vt 0.4844 0.25
vt 0.4844 0.25
vt 0.4844 0.2344
vt 0.5 0.2344
vt 0.5 0.25
vt 0 0.25
vt 0 0.2344
vt 0.2813 0.2344
vt 0.2813 0.25
vt 0.2188 0.25
vt 0.2188 0.2344
vt 0.5 0.2344
vt 0.5 0.25
vt 0 0.25
vt 0 0.2344
vt 0.0156 0.2344
vt 0.0156 0.25
vt 0.875 0.4531
vt 0.875 0.4219
vt 1 0.4219
vt 1 0.4531
vt 0.1406 0.0469
vt 0.1406 0.0156
vt 0.2813 0.0156
vt 0.2813 0.0469
vt 0.2188 0.0469
vt 0.2188 0.0156
vt 0.5 0.0156
vt 0.5 0.0469
vt 0 0.0469
vt 0 0.0156
vt 0.2813 0.0156
vt 0.2813 0.0469
vt 0.2188 0.0469
vt 0.2188 0.0156
vt 0.5 0.0156
vt 0.5 0.0469
vt 0 0.0469
vt 0 0.0156
vt 0.2813 0.0156
vt 0.2813 0.0469
vt 0.2188 0.0469
vt 0.2188 0.0156
vt 0.3594 0.0156
vt 0.3594 0.0469
vt 0.3594 0.0469
vt 0.3594 0.0156
vt 0.4844 0.0156
vt 0.4844 0.0469
vt 0.4844 0.0469
vt 0.4844 0.0156
vt 0.5 0.0156
vt 0.5 0.0469
vt 0 0.0469
vt 0 0.0156
vt 0.2813 0.0156
vt 0.2813 0.0469
vt 0.2188 0.0469
vt 0.2188 0.0156
vt 0.5 0.0156
vt 0.5 0.0469
vt 0 0.0469
vt 0 0.0156
vt 0.0156 0.0156
vt 0.0156 0.0469
vt 1 0.5313
vt 0.9531 0.5313
vt 0.9531 0.5781
vt 1 0.5781
vt 0.875 0.5313
vt 1 0.5313
vt 1 0.5781
vt 0.875 0.5781
vt 0.9688 0.5313
vt 0.9219 0.5313
vt 0.9219 0.5781
vt 0.9688 0.5781
vt 1 0.5313
vt 0.9688 0.5313
vt 0.9688 0.5781
vt 1 0.5781
vt 1 0.5313
vt 0.875 0.5313
vt 0.875 0.5781
vt 1 0.5781
vt 0.9531 0.5313
vt 0.9219 0.5313
vt 0.9219 0.5781
vt 0.9531 0.5781
vt 0.125 0.3438
vt 0.125 0.2656
vt 0 0.2656
vt 0 0.3438
vn 1 0 0
vn -1 0 0
vn 0 1 0
vn 0 -1 0
vn 0 0 1
vn 0 0 -1
vn 0 1 0
vn -1 0 0
vn 0 -1 0
vn 1 0 0
vn 0 1 0
vn 0 0 1
vn 0 -1 0
vn 0 -1 0
vn 0 0 -1
vn 0 1 0
vn 0 0 1
vn -1 0 0
vn -1 0 0
vn 0 0 -1
vn 0 0 -1
vn 1 0 0
vn 1 0 0
vn 0 0 1
vn 1 0 0
vn 0 1 0
vn 0 1 0
vn -1 0 0
vn -1 0 0
vn 0 -1 0
vn 0 -1 0
vn 1 0 0
vn 1 0 0
vn 0 1 0
vn 0 1 0
vn -1 0 0
vn -1 0 0
vn 0 -1 0
vn 0 -1 0
vn 1 0 0
vn 1 0 0
vn 1 0 0
vn 1 0 0
vn 0 0 -1
vn 0 0 -1
vn -1 0 0
vn -1 0 0
vn -1 0 0
vn -1 0 0
vn 0 0 1
vn 0 0 1
vn 1 0 0
vn 1 0 0
vn 1 0 0
vn 1 0 0
vn 0 0 -1
vn 0 0 -1
vn -1 0 0
vn -1 0 0
vn -1 0 0
vn -1 0 0
vn 0 0 1
vn 0 0 1
vn 1 0 0
vn 0 0 1
vn 0 -1 0
vn 0 0 -1
vn 0 0 -1
vn 0 1 0
vn 0 0 1
vn 1 0 0
usemtl common_bottom
f 24/1/1 46/2/1 45/3/1
f 24/1/1 45/3/1 25/4/1
f 21/5/2 49/6/2 48/7/2
f 21/5/2 48/7/2 22/8/2
f 10/9/3 13/10/3 18/11/3
f 10/9/3 18/11/3 6/12/3
f 8/13/4 17/14/4 16/15/4
f 8/13/4 16/15/4 11/16/4
f 19/17/5 53/18/5 52/19/5
f 19/17/5 52/19/5 20/20/5
f 22/21/6 48/22/6 47/23/6
f 22/21/6 47/23/6 23/24/6
f 10/25/7 30/26/7 29/27/7
f 10/25/7 29/27/7 13/28/7
f 31/29/8 50/30/8 49/31/8
f 31/29/8 49/31/8 21/32/8
f 16/33/9 33/34/9 32/35/9
f 16/33/9 32/35/9 11/36/9
f 25/37/10 45/38/10 44/39/10
f 25/37/10 44/39/10 27/40/10
f 13/41/11 29/42/11 28/43/11
f 13/41/11 28/43/11 9/44/11
f 26/45/12 54/46/12 53/47/12
f 26/45/12 53/47/12 19/48/12
f 12/49/13 34/50/13 33/51/13
f 12/49/13 33/51/13 16/52/13
f 12/53/14 16/54/14 17/55/14
f 12/53/14 17/55/14 4/56/14
f 23/57/15 47/58/15 46/59/15
f 23/57/15 46/59/15 24/60/15
f 2/61/16 18/62/16 13/63/16
f 2/61/16 13/63/16 9/64/16
f 15/65/17 65/66/17 64/67/17
f 15/65/17 64/67/17 7/68/17
f 32/69/18 62/70/18 61/71/18
f 32/69/18 61/71/18 11/72/18
f 11/73/19 61/74/19 60/75/19
f 11/73/19 60/75/19 8/76/19
f 8/77/20 60/78/20 59/79/20
f 8/77/20 59/79/20 17/80/20
f 17/81/21 59/82/21 58/83/21
f 17/81/21 58/83/21 4/84/21
f 4/85/22 58/86/22 57/87/22
f 4/85/22 57/87/22 12/88/22
f 12/89/23 57/90/23 56/91/23
f 12/89/23 56/91/23 34/92/23
f 3/93/24 66/94/24 65/95/24
f 3/93/24 65/95/24 15/96/24
usemtl weapon_light_howitzer
f 67/97/25 69/98/25 68/99/25
f 67/97/25 68/99/25 70/100/25
usemtl common_bottom
f 29/101/26 37/102/26 36/103/26
f 29/101/26 36/103/26 28/104/26
f 30/105/27 38/106/27 37/107/27
f 30/105/27 37/107/27 29/108/27
f 39/109/28 51/110/28 50/111/28
f 39/109/28 50/111/28 31/112/28
f 40/113/29 63/114/29 62/115/29
f 40/113/29 62/115/29 32/116/29
f 33/117/30 41/118/30 40/119/30
f 33/117/30 40/119/30 32/120/30
f 34/121/31 42/122/31 41/123/31
f 34/121/31 41/123/31 33/124/31
f 34/125/32 56/126/32 55/127/32
f 34/125/32 55/127/32 42/128/32
f 35/129/33 43/130/33 54/131/33
f 35/129/33 54/131/33 26/132/33
f 1/133/34 36/134/34 37/135/34
f 1/133/34 37/135/34 14/136/34
f 14/137/35 37/138/35 38/139/35
f 14/137/35 38/139/35 5/140/35
f 20/141/36 52/142/36 51/143/36
f 20/141/36 51/143/36 39/144/36
f 7/145/37 64/146/37 63/147/37
f 7/145/37 63/147/37 40/148/37
f 7/149/38 40/150/38 41/151/38
f 7/149/38 41/151/38 15/152/38
f 15/153/39 41/154/39 42/155/39
f 15/153/39 42/155/39 3/156/39
f 42/157/40 55/158/40 66/159/40
f 42/157/40 66/159/40 3/160/40
f 36/161/41 43/162/41 44/163/41
f 36/161/41 44/163/41 28/164/41
f 28/165/42 44/166/42 45/167/42
f 28/165/42 45/167/42 9/168/42
f 9/169/43 45/170/43 46/171/43
f 9/169/43 46/171/43 2/172/43
f 2/173/44 46/174/44 47/175/44
f 2/173/44 47/175/44 18/176/44
f 18/177/45 47/178/45 48/179/45
f 18/177/45 48/179/45 6/180/45
f 6/181/46 48/182/46 49/183/46
f 6/181/46 49/183/46 10/184/46
f 10/185/47 49/186/47 50/187/47
f 10/185/47 50/187/47 30/188/47
f 30/189/48 50/190/48 51/191/48
f 30/189/48 51/191/48 38/192/48
f 38/193/49 51/194/49 52/195/49
f 38/193/49 52/195/49 5/196/49
f 5/197/50 52/198/50 53/199/50
f 5/197/50 53/199/50 14/200/50
f 14/201/51 53/202/51 54/203/51
f 14/201/51 54/203/51 1/204/51
f 1/205/52 54/206/52 43/207/52
f 1/205/52 43/207/52 36/208/52
usemtl weapon_light_howitzer
f 70/209/53 71/210/53 72/211/53
f 70/209/53 72/211/53 67/212/53
usemtl common_bottom
f 27/213/54 56/214/54 57/215/54
f 27/213/54 57/215/54 25/216/54
f 25/217/55 57/218/55 58/219/55
f 25/217/55 58/219/55 24/220/55
f 24/221/56 58/222/56 59/223/56
f 24/221/56 59/223/56 23/224/56
f 23/225/57 59/226/57 60/227/57
f 23/225/57 60/227/57 22/228/57
f 22/229/58 60/230/58 61/231/58
f 22/229/58 61/231/58 21/232/58
f 21/233/59 61/234/59 62/235/59
f 21/233/59 62/235/59 31/236/59
f 31/237/60 62/238/60 63/239/60
f 31/237/60 63/239/60 39/240/60
f 39/241/61 63/242/61 64/243/61
f 39/241/61 64/243/61 20/244/61
f 20/245/62 64/246/62 65/247/62
f 20/245/62 65/247/62 19/248/62
f 19/249/63 65/250/63 66/251/63
f 19/249/63 66/251/63 26/252/63
f 26/253/64 66/254/64 55/255/64
f 26/253/64 55/255/64 35/256/64
usemtl weapon_light_howitzer
f 69/257/65 67/258/65 27/259/65
f 69/257/65 27/259/65 44/260/65
f 68/261/66 69/262/66 44/263/66
f 68/261/66 44/263/66 43/264/66
f 70/265/67 68/266/67 43/267/67
f 70/265/67 43/267/67 35/268/67
f 71/269/68 70/270/68 35/271/68
f 71/269/68 35/271/68 55/272/68
f 72/273/69 71/274/69 55/275/69
f 72/273/69 55/275/69 56/276/69
f 67/277/70 72/278/70 56/279/70
f 67/277/70 56/279/70 27/280/70
f 76/281/71 74/282/71 73/283/71
f 76/281/71 73/283/71 75/284/71
o propeller1
v 1.5 -2.4871 2.1948
v 1.5 -2.4871 2.1323
v 1.5 -2.5496 2.1948
v 1.5 -2.5496 2.1323
v 1.4375 -2.4871 2.1948
v 1.4375 -2.4871 2.1323
v 1.4375 -2.5496 2.1948
v 1.4375 -2.5496 2.1323
v 1.5 -2.4246 2.2573
v 1.5 -2.4246 2.1948
v 1.5 -2.6121 2.2573
v 1.5 -2.6121 2.1948
v 1.4375 -2.4246 2.2573
v 1.4375 -2.4246 2.1948
v 1.4375 -2.6121 2.2573
v 1.4375 -2.6121 2.1948
v 1.5 -2.4871 2.3198
v 1.5 -2.4871 2.2573
v 1.5 -2.5496 2.3198
v 1.5 -2.5496 2.2573
v 1.4375 -2.4871 2.3198
v 1.4375 -2.4871 2.2573
v 1.4375 -2.5496 2.3198
v 1.4375 -2.5496 2.2573
vt 0.8594 0.9219
vt 0.8594 0.9375
vt 0.8438 0.9375
vt 0.8438 0.9219
vt 0.8594 0.9219
vt 0.8594 0.9375
vt 0.8438 0.9375
vt 0.8438 0.9219
vt 0.8594 0.9219
vt 0.8594 0.9375
vt 0.8438 0.9375
vt 0.8438 0.9219
vt 0.8594 0.9219
vt 0.8594 0.9375
vt 0.8438 0.9375
vt 0.8438 0.9219
vt 0.8594 0.8906
vt 0.8594 0.9375
vt 0.8438 0.9375
vt 0.8438 0.8906
vt 0.8594 0.9219
vt 0.8594 0.9375
vt 0.8438 0.9375
vt 0.8438 0.9219
vt 0.8594 0.9219
vt 0.8594 0.9375
vt 0.8438 0.9375
vt 0.8438 0.9219
vt 0.8594 0.8906
vt 0.8594 0.9375
vt 0.8438 0.9375
vt 0.8438 0.8906
vt 0.8594 0.8906
vt 0.8594 0.9375
vt 0.8438 0.9375
vt 0.8438 0.8906
vt 0.8594 0.9219
vt 0.8594 0.9375
vt 0.8438 0.9375
vt 0.8438 0.9219
vt 0.8594 0.9219
vt 0.8594 0.9375
vt 0.8438 0.9375
vt 0.8438 0.9219
vt 0.8594 0.9219
vt 0.8594 0.9375
vt 0.8438 0.9375
vt 0.8438 0.9219
vt 0.8594 0.9219
vt 0.8594 0.9375
vt 0.8438 0.9375
vt 0.8438 0.9219
vn 1 0 0
vn 0 1 0
vn 0 -1 0
vn 0 0 -1
vn 1 0 0
vn 0 1 0
vn 0 -1 0
vn 0 0 1
vn 0 0 -1
vn 1 0 0
vn 0 1 0
vn 0 -1 0
vn 0 0 1
usemtl common_rough_steel
f 80/285/72 78/286/72 77/287/72
f 80/285/72 77/287/72 79/288/72
f 77/289/73 78/290/73 82/291/73
f 77/289/73 82/291/73 81/292/73
f 80/293/74 79/294/74 83/295/74
f 80/293/74 83/295/74 84/296/74
f 84/297/75 82/298/75 78/299/75
f 84/297/75 78/299/75 80/300/75
f 88/301/76 86/302/76 85/303/76
f 88/301/76 85/303/76 87/304/76
f 85/305/77 86/306/77 90/307/77
f 85/305/77 90/307/77 89/308/77
f 88/309/78 87/310/78 91/311/78
f 88/309/78 91/311/78 92/312/78
f 87/313/79 85/314/79 89/315/79
f 87/313/79 89/315/79 91/316/79
f 92/317/80 90/318/80 86/319/80
f 92/317/80 86/319/80 88/320/80
f 96/321/81 94/322/81 93/323/81
f 96/321/81 93/323/81 95/324/81
f 93/325/82 94/326/82 98/327/82
f 93/325/82 98/327/82 97/328/82
f 96/329/83 95/330/83 99/331/83
f 96/329/83 99/331/83 100/332/83
f 95/333/84 93/334/84 97/335/84
f 95/333/84 97/335/84 99/336/84
o propeller2
v 1.5 -2.4899 2.4365
v 1.5 -2.4899 2.374
v 1.5 -2.5524 2.4365
v 1.5 -2.5524 2.374
v 1.4375 -2.4899 2.4365
v 1.4375 -2.4899 2.374
v 1.4375 -2.5524 2.4365
v 1.4375 -2.5524 2.374
v 1.5 -2.4274 2.499
v 1.5 -2.4274 2.4365
v 1.5 -2.6149 2.499
v 1.5 -2.6149 2.4365
v 1.4375 -2.4274 2.499
v 1.4375 -2.4274 2.4365
v 1.4375 -2.6149 2.499
v 1.4375 -2.6149 2.4365
v 1.5 -2.4899 2.5615
v 1.5 -2.4899 2.499
v 1.5 -2.5524 2.5615
v 1.5 -2.5524 2.499
v 1.4375 -2.4899 2.5615
v 1.4375 -2.4899 2.499
v 1.4375 -2.5524 2.5615
v 1.4375 -2.5524 2.499
vt 0.8594 0.9219
vt 0.8594 0.9375
vt 0.8438 0.9375
vt 0.8438 0.9219
vt 0.8594 0.9219
vt 0.8594 0.9375
vt 0.8438 0.9375
vt 0.8438 0.9219
vt 0.8594 0.9219
vt 0.8594 0.9375
vt 0.8438 0.9375
vt 0.8438 0.9219
vt 0.8594 0.9219
vt 0.8594 0.9375
vt 0.8438 0.9375
vt 0.8438 0.9219
vt 0.8594 0.8906
vt 0.8594 0.9375
vt 0.8438 0.9375
vt 0.8438 0.8906
vt 0.8594 0.9219
vt 0.8594 0.9375
vt 0.8438 0.9375
vt 0.8438 0.9219
vt 0.8594 0.9219
vt 0.8594 0.9375
vt 0.8438 0.9375
vt 0.8438 0.9219
vt 0.8594 0.8906
vt 0.8594 0.9375
vt 0.8438 0.9375
vt 0.8438 0.8906
vt 0.8594 0.8906
vt 0.8594 0.9375
vt 0.8438 0.9375
vt 0.8438 0.8906
vt 0.8594 0.9219
vt 0.8594 0.9375
vt 0.8438 0.9375
vt 0.8438 0.9219
vt 0.8594 0.9219
vt 0.8594 0.9375
vt 0.8438 0.9375
vt 0.8438 0.9219
vt 0.8594 0.9219
vt 0.8594 0.9375
vt 0.8438 0.9375
vt 0.8438 0.9219
vt 0.8594 0.9219
vt 0.8594 0.9375
vt 0.8438 0.9375
vt 0.8438 0.9219
vn 1 0 0
vn 0 1 0
vn 0 -1 0
vn 0 0 -1
vn 1 0 0
vn 0 1 0
vn 0 -1 0
vn 0 0 1
vn 0 0 -1
vn 1 0 0
vn 0 1 0
vn 0 -1 0
vn 0 0 1
usemtl common_rough_steel
f 104/337/85 102/338/85 101/339/85
f 104/337/85 101/339/85 103/340/85
f 101/341/86 102/342/86 106/343/86
f 101/341/86 106/343/86 105/344/86
f 104/345/87 103/346/87 107/347/87
f 104/345/87 107/347/87 108/348/87
f 108/349/88 106/350/88 102/351/88
f 108/349/88 102/351/88 104/352/88
f 112/353/89 110/354/89 109/355/89
f 112/353/89 109/355/89 111/356/89
f 109/357/90 110/358/90 114/359/90
f 109/357/90 114/359/90 113/360/90
f 112/361/91 111/362/91 115/363/91
f 112/361/91 115/363/91 116/364/91
f 111/365/92 109/366/92 113/367/92
f 111/365/92 113/367/92 115/368/92
f 116/369/93 114/370/93 110/371/93
f 116/369/93 110/371/93 112/372/93
f 120/373/94 118/374/94 117/375/94
f 120/373/94 117/375/94 119/376/94
f 117/377/95 118/378/95 122/379/95
f 117/377/95 122/379/95 121/380/95
f 120/381/96 119/382/96 123/383/96
f 120/381/96 123/383/96 124/384/96
f 119/385/97 117/386/97 121/387/97
f 119/385/97 121/387/97 123/388/97
o turret
v 0.875 -1.375 1.5
v 1.4375 -2.0625 1.5625
v 1.4375 -2.0625 0.5625
v 1.4375 -2.1875 1.5625
v 1.4375 -2.1875 0.5625
v 0.5 -2.0625 1.5625
v 0.5 -2.0625 0.5625
v 0.5 -2.1875 1.5625
v 0.5 -2.1875 0.5625
v 0.5 -2.0625 2.4375
v 0.5 -2.0625 1.5625
v 0.5 -2.1875 2.4375
v 0.5 -2.1875 1.5625
v -0.4375 -2.0625 2.4375
v -0.4375 -2.0625 1.5625
v -0.4375 -2.1875 2.4375
v -0.4375 -2.1875 1.5625
v 0.5 -2.0625 1.5625
v 0.5 -2.0625 0.5625
v 0.5 -2.1875 1.5625
v 0.5 -2.1875 0.5625
v -0.4375 -2.0625 1.5625
v -0.4375 -2.0625 0.5625
v -0.4375 -2.1875 1.5625
v -0.4375 -2.1875 0.5625
v 1.4375 -2.0625 2.4375
v 1.4375 -2.0625 1.5625
v 1.4375 -2.1875 2.4375
v 1.4375 -2.1875 1.5625
v 0.5 -2.0625 2.4375
v 0.5 -2.0625 1.5625
v 0.5 -2.1875 2.4375
v 0.5 -2.1875 1.5625
v 0.8125 -1.9375 2.375
v 0.8125 -1.9375 1.6875
v 0.3125 -1.9375 2.375
v 0.3125 -1.9375 1.6875
v 0.3125 -1.8125 2.4375
v 0.3125 -1.8125 1.5625
v 0.3125 -2.0625 2.4375
v 0.3125 -2.0625 1.5625
v 0.25 -1.8125 2.4375
v 0.25 -1.8125 1.5625
v 0.25 -2.0625 2.4375
v 0.25 -2.0625 1.5625
v 0.875 -1.8125 2.4375
v 0.875 -1.8125 1.5625
v 0.875 -2.0625 2.4375
v 0.875 -2.0625 1.5625
v 0.8125 -1.8125 2.4375
v 0.8125 -1.8125 1.5625
v 0.8125 -2.0625 2.4375
v 0.8125 -2.0625 1.5625
v 0.8125 -1.8125 1.6875
v 0.8125 -1.8125 1.625
v 0.8125 -2.0625 1.6875
v 0.8125 -2.0625 1.625
v 0.3125 -1.8125 1.6875
v 0.3125 -1.8125 1.625
v 0.3125 -2.0625 1.6875
v 0.3125 -2.0625 1.625
v 0.8125 -1.8125 2.4375
v 0.8125 -1.8125 2.375
v 0.8125 -2.0625 2.4375
v 0.8125 -2.0625 2.375
v 0.3125 -1.8125 2.4375
v 0.3125 -1.8125 2.375
v 0.3125 -2.0625 2.4375
v 0.3125 -2.0625 2.375
v 0.875 -1.6875 1.5
v 1.25 -1.375 2.1875
v 1.25 -1.375 2.125
v 1.25 -1.6875 2.1875
v 1.25 -1.6875 2.125
v 1.125 -1.375 2.1875
v 1.125 -1.375 2.125
v 0.875 -1.6875 2.1875
v 0.875 -1.6875 2.125
v 1.4375 -1.6875 2.125
v 1.4375 -1.6875 1.5625
v 1.4375 -2.0625 2.125
v 1.4375 -2.0625 1.5625
v 1.375 -1.6875 2.125
v 1.375 -1.6875 1.5625
v 1.375 -2.0625 2.125
v 1.375 -2.0625 1.5625
v 1.4375 -1.6875 2.1875
v 1.4375 -1.6875 2.125
v 1.4375 -2.0625 2.1875
v 1.4375 -2.0625 2.125
v 1.125 -1.6875 2.1875
v 1.125 -1.6875 2.125
v 1.125 -2.0625 2.1875
v 1.125 -2.0625 2.125
v 1.125 -1.6875 2.1875
v 1.125 -1.6875 2.125
v 1.125 -2.0625 2.1875
v 1.125 -2.0625 2.125
v 0.875 -1.6875 2.1875
v 0.875 -1.6875 2.125
v 0.875 -2.0625 2.1875
v 0.875 -2.0625 2.125
v 1.4375 -1.375 2.1875
v 1.4375 -1.375 2.125
v 1.4375 -1.6875 2.1875
v 1.4375 -1.6875 2.125
v 1.25 -1.375 2.1875
v 1.25 -1.375 2.125
v 1.25 -1.6875 2.1875
v 1.25 -1.6875 2.125
v 1.4375 -1.375 2.125
v 1.4375 -1.375 1.5625
v 1.4375 -1.6875 2.125
v 1.4375 -1.6875 1.5625
v 1.375 -1.375 2.125
v 1.375 -1.375 1.5625
v 1.375 -1.6875 2.125
v 1.375 -1.6875 1.5625
v 1.4375 -1.375 1.5625
v 1.4375 -1.375 1.5
v 1.4375 -1.6875 1.5625
v 1.4375 -1.6875 1.5
v 1.125 -1.375 1.5625
v 1.125 -1.375 1.5
v 1.125 -1.6875 1.5625
v 1.125 -1.6875 1.5
v 1.4375 -1.6875 1.5625
v 1.4375 -1.6875 1.5
v 1.4375 -2.0625 1.5625
v 1.4375 -2.0625 1.5
v 0.875 -1.6875 1.5625
v 0.875 -1.6875 1.5
v 0.875 -2.0625 1.5625
v 0.875 -2.0625 1.5
v 1.125 -1.375 1.5625
v 1.125 -1.375 1.5
v 1.125 -1.6875 1.5625
v 1.125 -1.6875 1.5
v 0.875 -1.375 1.5625
v 0.875 -1.6875 1.5625
v 1.375 -1.9375 2.125
v 1.375 -1.9375 1.5625
v 0.875 -1.9375 2.125
v 0.875 -1.9375 1.5625
v 0.0625 -1.6875 2.3438
v 0.0625 -1.5625 2.3438
v 0.1875 -1.6875 2.3438
v 0.1875 -1.625 2.3438
v 0.0625 -1.6875 2.2188
v 0.0625 -1.5625 2.2188
v 0.1875 -1.6875 2.2188
v 0.1875 -1.625 2.2188
v 0.25 -1.6875 2.375
v 0.25 -1.6875 2.1875
v 0.25 -2.0625 2.375
v 0.25 -2.0625 2.1875
v 0.0625 -1.6875 2.375
v 0.0625 -1.6875 2.1875
v 0.0625 -2.0625 2.375
v 0.0625 -2.0625 2.1875
v 0.0625 -1.5625 2.4375
v 0.0625 -1.5625 2.0625
v 0.0625 -2.0625 2.4375
v 0.0625 -2.0625 2.0625
v -0.4375 -1.5625 2.4375
v -0.4375 -1.5625 2.0625
v -0.4375 -2.0625 2.4375
v -0.4375 -2.0625 2.0625
v -0.25 -1.5 2.4375
v -0.25 -1.5 2.25
v -0.25 -1.5625 2.4375
v -0.25 -1.5625 2.25
v -0.4375 -1.5 2.4375
v -0.4375 -1.5 2.25
v -0.4375 -1.5625 2.4375
v -0.4375 -1.5625 2.25
v -0.3125 -0.75 2.375
v -0.3125 -0.75 2.3125
v -0.3125 -1.5 2.375
v -0.3125 -1.5 2.3125
v -0.375 -0.75 2.375
v -0.375 -0.75 2.3125
v -0.375 -1.5 2.375
v -0.375 -1.5 2.3125
v -0.0527 -1.8325 1.2813
v -0.0527 -1.8325 1.0938
v -0.0772 -2.0184 1.2813
v -0.0691 -1.9564 1.0938
v -0.2386 -1.808 1.2813
v -0.2386 -1.808 1.0938
v -0.2631 -1.9939 1.2813
v -0.255 -1.932 1.0938
v -0.0201 -1.5846 1.2813
v -0.0201 -1.5846 1.0938
v -0.0527 -1.8325 1.2813
v -0.0527 -1.8325 1.0938
v -0.206 -1.5602 1.2813
v -0.206 -1.5602 1.0938
v -0.2386 -1.808 1.2813
v -0.2386 -1.808 1.0938
v 0 -1.75 1.7813
v 0 -1.75 1.2813
v 0 -2.0625 1.7813
v 0 -2.0625 1.2813
v -0.3125 -1.75 1.7813
v -0.3125 -1.75 1.2813
v -0.3125 -2.0625 1.7813
v -0.3125 -2.0625 1.2813
v -0.0625 -1.8125 2.0625
v -0.0625 -1.8125 1.75
v -0.0625 -2 2.0625
v -0.0625 -2 1.75
v -0.25 -1.8125 2.0625
v -0.25 -1.8125 1.75
v -0.25 -2 2.0625
v -0.25 -2 1.75
v -0.3125 -1.9375 2.0625
v -0.3125 -1.9375 1.25
v -0.3125 -2.0625 2.0625
v -0.3125 -2.0625 1.25
v -0.4375 -1.9375 2.0625
v -0.4375 -1.9375 1.25
v -0.4375 -2.0625 2.0625
v -0.4375 -2.0625 1.25
v -0.3125 -1.5 1.25
v -0.3125 -1.5 1.125
v -0.3125 -1.9375 1.25
v -0.3125 -1.9375 1.125
v -0.4375 -1.5 1.25
v -0.4375 -1.5 1.125
v -0.4375 -1.9375 1.25
v -0.4375 -1.9375 1.125
v -0.3125 -1.9375 1.25
v -0.3125 -1.9375 1.125
v -0.3125 -2.0625 1.25
v -0.3125 -2.0625 1.1875
v -0.4375 -1.9375 1.25
v -0.4375 -1.9375 1.125
v -0.4375 -2.0625 1.25
v -0.4375 -2.0625 1.1875
v -0.3125 -1.5 1.125
v -0.3125 -1.375 1.125
v -0.4375 -1.5 1.125
v -0.4375 -1.4375 1.125
v -0.3125 -1.5 1.25
v -0.3125 -1.375 1.25
v -0.4375 -1.5 1.25
v -0.4375 -1.4375 1.25
v -0.25 -1.375 1.25
v -0.25 -1.375 1.125
v -0.25 -1.5 1.25
v -0.25 -1.5 1.125
v -0.3125 -1.375 1.25
v -0.3125 -1.375 1.125
v -0.3125 -1.5 1.25
v -0.3125 -1.5 1.125
v 0.125 -1.25 1.0313
v 0.125 -1.25 0.9688
v 0.125 -1.5 1.0313
v 0.125 -1.5 0.9688
v -0.125 -1.25 1.0313
v -0.125 -1.25 0.9688
v -0.125 -1.5 1.0313
v -0.125 -1.5 0.9688
v 0 -1.625 1.0938
v 0 -1.625 1.0313
v 0 -2.0625 1.0938
v 0 -2.0625 1.0313
v -0.25 -1.625 1.0938
v -0.25 -1.625 1.0313
v -0.25 -2.0625 1.0938
v -0.25 -2.0625 1.0313
v 0.0625 -2.0625 1.4063
v 0.0625 -2.0625 1.0313
v 0 -1.625 1.4063
v 0 -1.625 1.0313
v 0 -2.0625 1.4063
v 0 -2.0625 1.0313
v -0.125 -1.625 1.0313
v -0.125 -2.0625 1.0313
v -0.125 -2.0625 1.0938
v -0.125 -1.625 1.0938
v -0.125 -1.875 1.0313
v 0 -1.875 1.0313
v 0 -1.875 1.0938
v -0.125 -1.875 1.0938
v -0.25 -1.875 1.0938
v -0.25 -1.875 1.0313
v 0 -1.625 1.2188
v 0 -2.0625 1.2188
v 0.0625 -2.0625 1.2188
v 0 -1.875 1.2188
v 0 -1.875 1.0313
v 0.0625 -1.875 1.0313
v 0.0625 -1.875 1.2188
v 0.0625 -1.875 1.4063
v 0 -1.875 1.4063
v -0.25 -1.25 1.4063
v -0.25 -1.25 1.0313
v -0.25 -1.625 1.4063
v -0.25 -1.625 1.0313
v 0.1312 -1.2437 0.7813
v 0.1312 -1.2437 0.7188
v 0.1312 -1.5062 0.7813
v 0.1312 -1.5062 0.7188
v -0.1313 -1.2437 0.7813
v -0.1313 -1.2437 0.7188
v -0.1313 -1.5062 0.7813
v -0.1313 -1.5062 0.7188
v 0.125 -1.25 0.9688
v 0.125 -1.25 0.6563
v 0.125 -1.5 0.9688
v 0.125 -1.5 0.6563
v -0.125 -1.25 0.9688
v -0.125 -1.25 0.6563
v -0.125 -1.5 0.9688
v -0.125 -1.5 0.6563
v 0.1312 -1.2437 0.9375
v 0.1312 -1.2437 0.875
v 0.1312 -1.5062 0.9375
v 0.1312 -1.5062 0.875
v -0.1313 -1.2437 0.9375
v -0.1313 -1.2437 0.875
v -0.1313 -1.5062 0.9375
v -0.1313 -1.5062 0.875
v 0.1875 -0.8403 0.7525
v 0.1875 -0.81 0.6979
v 0.1875 -1.059 0.6313
v 0.1875 -1.0286 0.5767
v -0.3125 -0.8403 0.7525
v -0.3125 -0.81 0.6979
v -0.4375 -1.059 0.6313
v -0.4375 -1.0286 0.5767
v 0.1875 -1.033 0.639
v 0.1875 -1.0286 0.5767
v 0.1875 -2.2176 0.5562
v 0.1875 -2.2133 0.4938
v -0.4375 -1.033 0.639
v -0.4375 -1.0286 0.5767
v -0.4375 -2.2176 0.5562
v -0.4375 -2.2133 0.4938
v -0.4375 -1.1533 0.568
v 0.1875 -1.1533 0.568
v 0.1875 -1.1577 0.6303
v -0.4375 -1.1577 0.6303
v 0.1875 -2.2176 0.5562
v 0.1875 -2.2133 0.4938
v 0.8125 -2.2176 0.5562
v 0.8125 -2.2133 0.4938
v 0.8125 -1.8392 0.52
v 0.1875 -1.8392 0.52
v 0.1875 -1.8435 0.5823
v 0.8125 -1.8435 0.5823
v 0.8125 -2.0262 0.5069
v 0.1875 -2.0262 0.5069
v 0.1875 -2.0306 0.5693
v 0.8125 -2.0306 0.5693
v 0.8125 -0.8403 0.7525
v 0.8125 -0.81 0.6979
v 0.8125 -1.059 0.6313
v 0.8125 -1.0286 0.5767
v 1.3125 -0.8403 0.7525
v 1.3125 -0.81 0.6979
v 1.4375 -1.059 0.6313
v 1.4375 -1.0286 0.5767
v 0.8125 -1.033 0.639
v 0.8125 -1.0286 0.5767
v 0.8125 -2.2176 0.5562
v 0.8125 -2.2133 0.4938
v 1.4375 -1.033 0.639
v 1.4375 -1.0286 0.5767
v 1.4375 -2.2176 0.5562
v 1.4375 -2.2133 0.4938
v 1.4375 -1.1533 0.568
v 0.8125 -1.1533 0.568
v 0.8125 -1.1577 0.6303
v 1.4375 -1.1577 0.6303
v 0.875 -1.1875 1
v 0.875 -1.1875 1.375
v 0.875 -1.4375 0.875
v 0.875 -1.4375 1.5
v 1 -1.1875 1
v 1 -1.1875 1.375
v 1 -1.4375 0.875
v 1 -1.4375 1.5
v 0.875 -1.1875 1.1875
v 0.875 -1.4375 1.1875
v 1 -1.4375 1.1875
v 1 -1.1875 1.1875
v 0.875 -1.4375 0.875
v 0.875 -1.4375 1.5
v 0.875 -2.0625 0.875
v 0.875 -2.0625 1.5
v 1 -1.4375 0.875
v 1 -1.4375 1.5
v 1 -2.0625 0.875
v 1 -2.0625 1.5
v 0.875 -1.4375 1.1875
v 0.875 -2.0625 1.1875
v 1 -2.0625 1.1875
v 1 -1.4375 1.1875
v 1.0625 -1.25 1.375
v 1.0625 -1.25 1
v 1.0625 -1.625 1.375
v 1.0625 -1.625 1
v 1 -1.25 1
v 1 -1.625 1
v 1 -1.625 1.375
v 1 -1.25 1.375
v 0.125 -1.1875 1
v 0.125 -1.1875 1.375
v 0.125 -1.4375 0.875
v 0.125 -1.4375 1.5
v 0.25 -1.1875 1
v 0.25 -1.1875 1.375
v 0.25 -1.4375 0.875
v 0.25 -1.4375 1.5
v 0.125 -1.1875 1.1875
v 0.125 -1.4375 1.1875
v 0.25 -1.4375 1.1875
v 0.25 -1.1875 1.1875
v 0.125 -1.4375 0.875
v 0.125 -1.4375 1.5
v 0.125 -2.0625 0.875
v 0.125 -2.0625 1.5
v 0.25 -1.4375 0.875
v 0.25 -1.4375 1.5
v 0.25 -2.0625 0.875
v 0.25 -2.0625 1.5
v 0.125 -1.4375 1.1875
v 0.125 -2.0625 1.1875
v 0.25 -2.0625 1.1875
v 0.25 -1.4375 1.1875
v 0.0625 -1.25 1.375
v 0.0625 -1.625 1.375
v 0.0625 -1.625 1
v 0.125 -1.25 1.0313
v 0.125 -1.625 1
v 0.125 -1.625 1.375
v 0.125 -1.25 1.375
v 1.0625 -2.1875 2.0625
v 1.0625 -2.1875 0.9375
v 1.0625 -2.3125 2.0625
v 1.0625 -2.3125 0.9375
v -0.0625 -2.1875 2.0625
v -0.0625 -2.1875 0.9375
v -0.0625 -2.3125 2.0625
v -0.0625 -2.3125 0.9375
v 0.875 -2.1875 2.4375
v 0.875 -2.1875 2.0625
v 0.875 -2.3125 2.4375
v 0.875 -2.3125 2.0625
v 0.1875 -2.1875 2.4375
v 0.1875 -2.1875 2.0625
v 0.1875 -2.3125 2.4375
v 0.1875 -2.3125 2.0625
v 1.4375 -2.1875 2.1875
v 1.4375 -2.1875 1.5
v 1.4375 -2.3125 2.1875
v 1.4375 -2.3125 1.5
v 0.875 -2.1875 2.1875
v 0.875 -2.1875 1.5
v 0.875 -2.3125 2.1875
v 0.875 -2.3125 1.5
v 0.0625 -1.2201 0.6259
v -0.0625 -1.2201 0.6259
v -0.0625 -1.5318 0.6041
v 0.0625 -1.5318 0.6041
v 0.0625 -1.2157 0.5636
v 0.0625 -1.5274 0.5418
v -0.0625 -1.5274 0.5418
v -0.0625 -1.2157 0.5636
v 0.0625 -1.2157 0.5636
v -0.0625 -1.2157 0.5636
v -0.0625 -1.5274 0.5418
v 0.0625 -1.5274 0.5418
v 0.0625 -1.25 1.4063
v 0.0625 -1.5 1.4063
v 0.0625 -1.5 1.2188
v 0.0625 -1.25 1.2188
v 0.0625 -1.625 1.2188
v 0.0625 -1.625 1.4063
v 0.0625 -1.625 1.0313
v 0.0625 -1.5 1.0313
v 0.0625 -1.25 1.0313
vt 0 0.9688
vt 0 1
vt 0.2813 1
vt 0.2813 0.9688
vt 0 0.75
vt 0 1
vt 0.2344 1
vt 0.2344 0.75
vt 0 1
vt 0 0.75
vt 0.2344 0.75
vt 0.2344 1
vt 0.2344 0.9688
vt 0.2344 1
vt 0 1
vt 0 0.9688
vt 0 0.9688
vt 0 1
vt 0.2188 1
vt 0.2188 0.9688
vt 0.2344 1
vt 0.2344 0.7813
vt 0 0.7813
vt 0 1
vt 0.2344 0.7813
vt 0.2344 1
vt 0 1
vt 0 0.7813
vt 0.2344 0.9688
vt 0.2344 1
vt 0 1
vt 0 0.9688
vt 0.25 0.9688
vt 0.25 1
vt 0 1
vt 0 0.9688
vt 0.2813 0.7188
vt 0.2813 1
vt 0 1
vt 0 0.7188
vt 0.2344 1
vt 0.2344 0.75
vt 0 0.75
vt 0 1
vt 0 0.9688
vt 0 1
vt 0.2344 1
vt 0.2344 0.9688
vt 0.2188 0.9688
vt 0.2188 1
vt 0 1
vt 0 0.9688
vt 0 1
vt 0 0.7813
vt 0.2344 0.7813
vt 0.2344 1
vt 0 0.7813
vt 0 1
vt 0.2344 1
vt 0.2344 0.7813
vt 0 0.9688
vt 0 1
vt 0.2344 1
vt 0.2344 0.9688
vt 0.4844 0.75
vt 0.6563 0.75
vt 0.6563 0.875
vt 0.4844 0.875
vt 0.7969 0.875
vt 0.7969 0.9375
vt 0.5781 0.9375
vt 0.5781 0.875
vt 0.7969 0.875
vt 0.7969 0.9375
vt 0.5781 0.9375
vt 0.5781 0.875
vt 0.5781 0.9219
vt 0.7969 0.9219
vt 0.7969 0.9375
vt 0.5781 0.9375
vt 0.7969 0.875
vt 0.7969 0.9375
vt 0.7813 0.9375
vt 0.7813 0.875
vt 0.7969 0.875
vt 0.7969 0.9375
vt 0.7813 0.9375
vt 0.7813 0.875
vt 0.7969 0.875
vt 0.7969 0.9375
vt 0.5781 0.9375
vt 0.5781 0.875
vt 0.7969 0.875
vt 0.7969 0.9375
vt 0.5781 0.9375
vt 0.5781 0.875
vt 0.5781 0.9219
vt 0.7969 0.9219
vt 0.7969 0.9375
vt 0.5781 0.9375
vt 0.7969 0.875
vt 0.7969 0.9375
vt 0.7813 0.9375
vt 0.7813 0.875
vt 0.7969 0.875
vt 0.7969 0.9375
vt 0.7813 0.9375
vt 0.7813 0.875
vt 0.75 0.9219
vt 0.75 0.9375
vt 0.625 0.9375
vt 0.625 0.9219
vt 0.7656 0.875
vt 0.7656 0.9375
vt 0.6406 0.9375
vt 0.6406 0.875
vt 0.7656 0.875
vt 0.7656 0.9375
vt 0.6406 0.9375
vt 0.6406 0.875
vt 0.75 0.9219
vt 0.75 0.9375
vt 0.625 0.9375
vt 0.625 0.9219
vt 0.7656 0.875
vt 0.7656 0.9375
vt 0.6406 0.9375
vt 0.6406 0.875
vt 0.7656 0.875
vt 0.7656 0.9375
vt 0.6406 0.9375
vt 0.6406 0.875
vt 0.2031 0.7203
vt 0.2031 0.8125
vt 0.1875 0.8125
vt 0.1875 0.7203
vt 0.2188 0.8281
vt 0.2188 0.8438
vt 0.1875 0.8438
vt 0.1875 0.8281
vt 0.2813 0.7656
vt 0.2813 0.8438
vt 0.25 0.8438
vt 0.1875 0.7656
vt 0.3281 0.7656
vt 0.2656 0.8438
vt 0.2344 0.8438
vt 0.2344 0.7656
vt 0.3594 0.8438
vt 0.3594 0.75
vt 0.2188 0.75
vt 0.2188 0.8438
vt 0.3594 0.8438
vt 0.3594 0.75
vt 0.2188 0.75
vt 0.2188 0.8438
vt 0.2031 0.7344
vt 0.2031 0.8281
vt 0.1875 0.8281
vt 0.1875 0.7344
vt 0.1875 0.8438
vt 0.1875 0.75
vt 0.2656 0.75
vt 0.2656 0.8438
vt 0.2656 0.8438
vt 0.2656 0.75
vt 0.1875 0.75
vt 0.1875 0.8438
vt 0.4063 0.6875
vt 0.4063 0.7813
vt 0.3906 0.7813
vt 0.3906 0.6875
vt 0.25 0.8438
vt 0.25 0.75
vt 0.1875 0.75
vt 0.1875 0.8438
vt 0.25 0.8438
vt 0.25 0.75
vt 0.3125 0.75
vt 0.3125 0.8438
vt 0.2031 0.7344
vt 0.2031 0.8125
vt 0.1875 0.8125
vt 0.1875 0.7344
vt 0.2344 0.8281
vt 0.2344 0.8438
vt 0.1875 0.8438
vt 0.1875 0.8281
vt 0.1875 0.7656
vt 0.1875 0.8438
vt 0.2344 0.8438
vt 0.2344 0.7656
vt 0.2344 0.7656
vt 0.2344 0.8438
vt 0.1875 0.8438
vt 0.1875 0.7656
vt 0.3594 0.7656
vt 0.3594 0.8438
vt 0.2188 0.8438
vt 0.2188 0.7656
vt 0.3594 0.7656
vt 0.3594 0.8438
vt 0.2188 0.8438
vt 0.2188 0.7656
vt 0.2031 0.7031
vt 0.2031 0.8438
vt 0.1875 0.8438
vt 0.1875 0.7031
vt 0.5 0.5
vt 0.5 0.5781
vt 0.4844 0.5781
vt 0.4844 0.5
vt 0.2031 0.7656
vt 0.2031 0.8438
vt 0.1875 0.8438
vt 0.1875 0.7656
vt 0.1875 0.7656
vt 0.1875 0.8438
vt 0.2656 0.8438
vt 0.2656 0.7656
vt 0.2656 0.7656
vt 0.2656 0.8438
vt 0.1875 0.8438
vt 0.1875 0.7656
vt 0.2031 0.75
vt 0.2031 0.8438
vt 0.1875 0.8438
vt 0.1875 0.75
vt 0.3281 0.8438
vt 0.3281 0.75
vt 0.1875 0.75
vt 0.1875 0.8438
vt 0.3281 0.8438
vt 0.3281 0.75
vt 0.1875 0.75
vt 0.1875 0.8438
vt 0.5 0.5
vt 0.5 0.5781
vt 0.4844 0.5781
vt 0.4844 0.5
vt 0.2656 0.8281
vt 0.2656 0.8438
vt 0.2031 0.8438
vt 0.2031 0.8281
vt 0.25 0.7656
vt 0.25 0.8438
vt 0.1875 0.8438
vt 0.1875 0.7656
vt 0.3281 0.7656
vt 0.3281 0.8438
vt 0.2656 0.8438
vt 0.2656 0.7656
vt 0.9688 1
vt 0.8281 1
vt 0.8281 0.875
vt 0.9688 0.875
vt 0.1875 0.8125
vt 0.1875 0.8281
vt 0.125 0.8281
vt 0.125 0.8125
vt 0.2969 0.8281
vt 0.2969 0.8438
vt 0.2188 0.8438
vt 0.2188 0.8281
vt 0.4063 0.6875
vt 0.4063 0.7813
vt 0.3906 0.7813
vt 0.3906 0.6875
vt 0.4063 0.8125
vt 0.3906 0.8125
vt 0.3906 0.7344
vt 0.4063 0.7344
vt 0.875 0.25
vt 0.875 0.125
vt 1 0.125
vt 1 0.25
vt 0.875 0.125
vt 0.875 0
vt 0.75 0
vt 0.75 0.125
vt 0.6875 0.9375
vt 0.6875 1
vt 0.5625 1
vt 0.5625 0.9375
vt 0.5625 0.875
vt 0.5625 1
vt 0.6875 1
vt 0.6875 0.875
vt 0.7188 0.6563
vt 0.7188 0.75
vt 0.7656 0.75
vt 0.7656 0.6563
vt 0.7656 0.7344
vt 0.7656 0.7813
vt 0.7188 0.7813
vt 0.7188 0.7344
vt 0.7656 0.6563
vt 0.7656 0.75
vt 0.7188 0.75
vt 0.7188 0.6563
vt 0.7656 0.6563
vt 0.7656 0.75
vt 0.7188 0.75
vt 0.7188 0.6563
vt 0.7188 0.625
vt 0.7188 0.75
vt 0.625 0.75
vt 0.625 0.625
vt 0.7188 0.625
vt 0.7188 0.75
vt 0.625 0.75
vt 0.625 0.625
vt 0.5938 0.625
vt 0.5 0.625
vt 0.5 0.5
vt 0.5938 0.5
vt 0.625 0.625
vt 0.625 0.75
vt 0.5 0.75
vt 0.5 0.625
vt 0.625 0.625
vt 0.625 0.75
vt 0.5 0.75
vt 0.5 0.625
vt 0.6875 0.2188
vt 0.6875 0.2344
vt 0.7344 0.2344
vt 0.7344 0.2188
vt 0.7344 0.25
vt 0.7344 0.2656
vt 0.6875 0.2656
vt 0.6875 0.25
vt 0.7344 0.2188
vt 0.7344 0.2656
vt 0.6875 0.2656
vt 0.6875 0.2188
vt 0.7344 0.2188
vt 0.7344 0.2344
vt 0.6875 0.2344
vt 0.6875 0.2188
vt 0.6875 0.25
vt 0.6875 0.2656
vt 0.7344 0.2656
vt 0.7344 0.25
vt 0.4063 1
vt 0.2188 1
vt 0.2188 0.9844
vt 0.4063 0.9844
vt 0.4063 1
vt 0.2188 1
vt 0.2188 0.9844
vt 0.4063 0.9844
vt 0.2344 1
vt 0.2188 1
vt 0.2188 0.9844
vt 0.2344 0.9844
vt 0.4063 1
vt 0.2188 1
vt 0.2188 0.9844
vt 0.4063 0.9844
vt 0.4063 1
vt 0.2188 1
vt 0.2188 0.9844
vt 0.4063 0.9844
vt 0.8125 0.3125
vt 0.8125 0.125
vt 1 0.125
vt 1 0.3125
vt 1 0.3125
vt 1 0.125
vt 0.8125 0.125
vt 0.8125 0.3125
vt 0.5 0.8125
vt 0.5 1
vt 0.3125 1
vt 0.3125 0.8125
vt 0.5 0.875
vt 0.5 1
vt 0.3125 1
vt 0.3125 0.875
vt 0.5 0.5625
vt 0.5 0.8125
vt 0.3125 0.8125
vt 0.3125 0.5625
vt 0.5 0.5625
vt 0.5 0.8125
vt 0.3125 0.8125
vt 0.3125 0.5625
vt 0.5 0.5625
vt 0.5 0.8125
vt 0.3125 0.8125
vt 0.3125 0.5625
vt 0.5 0.5625
vt 0.5 0.8125
vt 0.3125 0.8125
vt 0.3125 0.5625
vt 0.9063 0.875
vt 0.9844 0.875
vt 0.9844 0.75
vt 0.9063 0.75
vt 0.9844 0.75
vt 0.9063 0.75
vt 0.9063 0.875
vt 0.9844 0.875
vt 0.9844 0.75
vt 0.9844 0.875
vt 0.9063 0.875
vt 0.9063 0.75
vt 0.9844 0.6875
vt 0.9844 0.7656
vt 0.9063 0.7656
vt 0.9063 0.6875
vt 0.9063 0.7188
vt 0.9063 0.7969
vt 0.8281 0.7969
vt 0.8281 0.7188
vt 0.5 0.8125
vt 0.3125 0.8125
vt 0.3125 0.5
vt 0.5 0.5
vt 0.5 0.8125
vt 0.3125 0.8125
vt 0.3125 0.5
vt 0.5 0.5
vt 0.5 0.5
vt 0.5 0.8125
vt 0.3125 0.8125
vt 0.3125 0.5
vt 0.5 0.5
vt 0.5 0.8125
vt 0.3125 0.8125
vt 0.3125 0.5
vt 0.5625 1
vt 0.6875 1
vt 0.6875 0.1875
vt 0.5625 0.1875
vt 0.6875 0.1875
vt 0.5625 0.1875
vt 0.5625 1
vt 0.6875 1
vt 0.6875 0.1875
vt 0.6875 1
vt 0.5625 1
vt 0.5625 0.1875
vt 0.5625 0.25
vt 0.5625 0.6875
vt 0.6875 0.6875
vt 0.6875 0.25
vt 0.5625 0.25
vt 0.5625 0.6875
vt 0.6875 0.6875
vt 0.6875 0.25
vt 0.6875 0.25
vt 0.6875 0.6875
vt 0.5625 0.6875
vt 0.5625 0.25
vt 0.6875 0.25
vt 0.6875 0.6875
vt 0.5625 0.6875
vt 0.5625 0.25
vt 0.75 0.125
vt 0.75 0
vt 0.875 0
vt 0.875 0.125
vt 1 0.25
vt 1 0.125
vt 0.875 0.125
vt 0.875 0.25
vt 0.6875 0.875
vt 0.6875 1
vt 0.5625 1
vt 0.5625 0.875
vt 0.875 0.25
vt 0.875 0.125
vt 1 0.125
vt 1 0.25
vt 0.875 0.125
vt 0.875 0
vt 0.75 0
vt 0.75 0.125
vt 0.6875 0.9375
vt 0.6875 1
vt 0.5625 1
vt 0.5625 0.9375
vt 0.5625 0.875
vt 0.5625 1
vt 0.6875 1
vt 0.6875 0.875
vt 0.5625 0.9375
vt 0.6875 0.9375
vt 0.6875 1
vt 0.5625 1
vt 0.5625 0.9375
vt 0.6875 0.9375
vt 0.6875 1
vt 0.5625 1
vt 0.6875 1
vt 0.5625 1
vt 0.5625 0.9375
vt 0.6875 0.9375
vt 0.5625 1
vt 0.6875 1
vt 0.6875 0.9375
vt 0.5625 0.9375
vt 0.9219 0.0625
vt 0.9219 0.125
vt 0.9063 0.125
vt 0.9063 0.0625
vt 0.9375 0.1094
vt 0.9375 0.125
vt 0.8594 0.125
vt 0.8594 0.1094
vt 0.9219 0.1719
vt 0.9219 0.1875
vt 0.8594 0.1875
vt 0.8594 0.1719
vt 0.7188 0.5781
vt 0.7188 0.5156
vt 0.7344 0.5156
vt 0.7344 0.5781
vt 0.9531 0.2344
vt 0.9531 0.1719
vt 0.9844 0.1719
vt 0.9844 0.2344
vt 0.9844 0.2344
vt 0.9844 0.1719
vt 0.9531 0.1719
vt 0.9531 0.2344
vt 0.7031 0.9844
vt 0.7031 0.9219
vt 0.75 0.9219
vt 0.75 0.9844
vt 0.0156 0.9844
vt 0.0156 0.9219
vt 0.0625 0.9219
vt 0.0625 0.9844
vt 0.9844 0.7344
vt 0.9844 0.6719
vt 1 0.6719
vt 1 0.7344
vt 0.75 0.1094
vt 0.75 0.0469
vt 0.7656 0.0469
vt 0.7656 0.1094
vt 0.9688 0.2344
vt 0.9688 0.1719
vt 1 0.1719
vt 1 0.2344
vt 0.75 0.25
vt 0.75 0.1875
vt 0.7813 0.1875
vt 0.7813 0.25
vt 0.9531 0
vt 0.9531 0.0469
vt 0.9844 0.0469
vt 0.9844 0
vt 0.9844 0
vt 0.9844 0.0469
vt 0.9531 0.0469
vt 0.9531 0
vt 0.7813 0.0156
vt 0.7813 0.0625
vt 0.75 0.0625
vt 0.75 0.0156
vt 0.7344 0.4688
vt 0.7344 0.5156
vt 0.7188 0.5156
vt 0.7188 0.4688
vt 1 0
vt 1 0.0469
vt 0.9688 0.0469
vt 0.9688 0
vt 0.0469 0.9844
vt 0.0469 0.9219
vt 0 0.9219
vt 0 0.9844
vt 0 0.9844
vt 0 0.9219
vt 0.0469 0.9219
vt 0.0469 0.9844
vt 0.0625 1
vt 0.0625 0.9531
vt 0.0156 0.9531
vt 0.0156 1
vt 0.7656 0
vt 0.7656 0.0469
vt 0.75 0.0469
vt 0.75 0
vt 0.75 1
vt 0.75 0.9531
vt 0.7031 0.9531
vt 0.7031 1
vt 0.0469 1
vt 0.0469 0.9531
vt 0 0.9531
vt 0 1
vt 1 0.625
vt 1 0.6719
vt 0.9844 0.6719
vt 0.9844 0.625
vt 0 1
vt 0 0.9531
vt 0.0469 0.9531
vt 0.0469 1
vt 0.75 0.7813
vt 0.75 0.875
vt 0.6563 0.875
vt 0.6563 0.7813
vt 0.9063 0.875
vt 0.8125 0.875
vt 0.8125 0.7969
vt 0.9063 0.7969
vt 0.9063 0.875
vt 0.8125 0.875
vt 0.8125 0.7969
vt 0.9063 0.7969
vt 0.8125 0.7813
vt 0.8125 0.875
vt 0.7344 0.875
vt 0.7344 0.7813
vt 0.8125 0.7813
vt 0.8125 0.875
vt 0.7344 0.875
vt 0.7344 0.7813
vt 0.3125 0.625
vt 0.3125 0.6875
vt 0.2969 0.6875
vt 0.2969 0.625
vt 0.3125 0.625
vt 0.3125 0.6875
vt 0.2969 0.6875
vt 0.2969 0.625
vt 0.3594 0.6719
vt 0.3594 0.6875
vt 0.2969 0.6875
vt 0.2969 0.6719
vt 0.3594 0.6719
vt 0.3594 0.6875
vt 0.2969 0.6875
vt 0.2969 0.6719
vt 0 0.4375
vt 0 0.5
vt 0.0781 0.5
vt 0.0781 0.4375
vt 0.0781 0.4375
vt 0.0781 0.5
vt 0 0.5
vt 0 0.4375
vt 0.0781 0.5
vt 0 0.5
vt 0 0.4375
vt 0.0781 0.4375
vt 0 0.4375
vt 0.0781 0.4375
vt 0.0781 0.5
vt 0 0.5
vt 0.1406 0.4375
vt 0.1406 0.5
vt 0.0781 0.5
vt 0.0781 0.4375
vt 0.3125 0.625
vt 0.3125 0.6875
vt 0.2969 0.6875
vt 0.2969 0.625
vt 0.3125 0.625
vt 0.3125 0.6875
vt 0.2969 0.6875
vt 0.2969 0.625
vt 0.3594 0.6719
vt 0.3594 0.6875
vt 0.2969 0.6875
vt 0.2969 0.6719
vt 0.3594 0.6719
vt 0.3594 0.6875
vt 0.2969 0.6875
vt 0.2969 0.6719
vt 1 0.0625
vt 1 0
vt 0.9844 0
vt 0.9844 0.0625
vt 0.8594 0.0625
vt 0.8594 0
vt 0.8438 0
vt 0.8438 0.0625
vt 0.9688 0
vt 0.9688 0.0156
vt 0.8438 0.0156
vt 0.8438 0
vt 1 0.0781
vt 1 0.0156
vt 0.8438 0.0156
vt 0.8438 0.0781
vt 0.8438 0.0781
vt 0.8438 0.0156
vt 1 0.0156
vt 1 0.0781
vt 0.9844 0.4219
vt 0.9844 0.3906
vt 1 0.3906
vt 1 0.4219
vt 0.8438 0.4219
vt 0.8438 0.3906
vt 0.8594 0.3906
vt 0.8594 0.4219
vt 0.3281 0
vt 0.3281 0.0156
vt 0.1719 0.0156
vt 0.1719 0
vt 0.8438 0.3438
vt 0.8438 0.375
vt 1 0.375
vt 1 0.3438
vt 1 0.0781
vt 1 0.1094
vt 0.8438 0.1094
vt 0.8438 0.0781
vt 1 0.125
vt 1 0.3906
vt 0.9844 0.3906
vt 0.9844 0.125
vt 0.8594 0.125
vt 0.8594 0.3906
vt 0.8438 0.3906
vt 0.8438 0.125
vt 1 0.0156
vt 0.8438 0.0156
vt 0.8438 0
vt 1 0
vt 1 0.0156
vt 1 0.0625
vt 0.8438 0.0625
vt 0.8438 0.0156
vt 1 0.0156
vt 1 0.0625
vt 0.8438 0.0625
vt 0.8438 0.0156
vt 0.8438 0.4219
vt 0.8438 0.375
vt 1 0.375
vt 1 0.4219
vt 0.8438 0.4219
vt 0.8438 0.375
vt 1 0.375
vt 1 0.4219
vt 1 0.4219
vt 0.8438 0.4219
vt 0.8438 0.4063
vt 1 0.4063
vt 0.9844 0
vt 1 0
vt 1 0.0625
vt 0.9844 0.0625
vt 0.8438 0
vt 0.8594 0
vt 0.8594 0.0625
vt 0.8438 0.0625
vt 0.8438 0.0156
vt 0.9688 0.0156
vt 0.9688 0
vt 0.8438 0
vt 0.8438 0.0156
vt 1 0.0156
vt 1 0.0781
vt 0.8438 0.0781
vt 1 0.0156
vt 0.8438 0.0156
vt 0.8438 0.0781
vt 1 0.0781
vt 1 0.3906
vt 0.9844 0.3906
vt 0.9844 0.4219
vt 1 0.4219
vt 0.8594 0.3906
vt 0.8438 0.3906
vt 0.8438 0.4219
vt 0.8594 0.4219
vt 0.1719 0.0156
vt 0.3281 0.0156
vt 0.3281 0
vt 0.1719 0
vt 1 0.375
vt 0.8438 0.375
vt 0.8438 0.3438
vt 1 0.3438
vt 0.8438 0.1094
vt 1 0.1094
vt 1 0.0781
vt 0.8438 0.0781
vt 1 0.1563
vt 0.8438 0.1563
vt 0.8438 0.4219
vt 1 0.4219
vt 0.9844 0.3906
vt 1 0.3906
vt 1 0.125
vt 0.9844 0.125
vt 0.8438 0.1563
vt 1 0.1563
vt 1 0.4219
vt 0.8438 0.4219
vt 0.8438 0.3906
vt 0.8594 0.3906
vt 0.8594 0.125
vt 0.8438 0.125
vt 0.3125 0.0625
vt 0.2344 0.0625
vt 0.2344 0
vt 0.2813 0
vt 0.1875 0
vt 0.2344 0
vt 0.2344 0.0625
vt 0.1563 0.0625
vt 0.3125 0.1719
vt 0.3125 0.2188
vt 0.2813 0.2188
vt 0.2813 0.1719
vt 0.3125 0.1801
vt 0.3125 0.25
vt 0.2813 0.25
vt 0.2813 0.1801
vt 0.1719 0.2813
vt 0.1406 0.2813
vt 0.1406 0.2114
vt 0.1719 0.2114
vt 0.1875 0
vt 0.2344 0
vt 0.2344 0.0625
vt 0.1563 0.0625
vt 0.3125 0.0625
vt 0.2344 0.0625
vt 0.2344 0
vt 0.2813 0
vt 0.2813 0.1719
vt 0.2813 0.125
vt 0.3125 0.125
vt 0.3125 0.1719
vt 0.3125 0.3125
vt 0.2344 0.3125
vt 0.2344 0.1563
vt 0.3125 0.1563
vt 0.1563 0.1563
vt 0.2344 0.1563
vt 0.2344 0.3125
vt 0.1563 0.3125
vt 0.3125 0.0938
vt 0.3125 0.25
vt 0.2813 0.25
vt 0.2813 0.0938
vt 0.2813 0.2813
vt 0.2813 0.125
vt 0.3125 0.125
vt 0.3125 0.2813
vt 0.1406 0.1563
vt 0.2188 0.1563
vt 0.2188 0.3125
vt 0.1406 0.3125
vt 0.3125 0.3125
vt 0.2344 0.3125
vt 0.2344 0.1563
vt 0.3125 0.1563
vt 0 0.3438
vt 0 0.4375
vt 0.0938 0.4375
vt 0.0938 0.3438
vt 0.2656 0.25
vt 0.2656 0.3438
vt 0.2813 0.3438
vt 0.2813 0.25
vt 0.2656 0.3438
vt 0.2656 0.25
vt 0.2813 0.25
vt 0.2813 0.3438
vt 0.2656 0.25
vt 0.2656 0.3438
vt 0.2813 0.3438
vt 0.2813 0.25
vt 0.2656 0.3438
vt 0.2656 0.25
vt 0.2813 0.25
vt 0.2813 0.3438
vt 0.3125 0.0625
vt 0.2344 0.0625
vt 0.2344 0
vt 0.2813 0
vt 0.1875 0
vt 0.2344 0
vt 0.2344 0.0625
vt 0.1563 0.0625
vt 0.3125 0.1719
vt 0.3125 0.2188
vt 0.2813 0.2188
vt 0.2813 0.1719
vt 0.3125 0.1801
vt 0.3125 0.25
vt 0.2813 0.25
vt 0.2813 0.1801
vt 0.1719 0.2813
vt 0.1406 0.2813
vt 0.1406 0.2114
vt 0.1719 0.2114
vt 0.1875 0
vt 0.2344 0
vt 0.2344 0.0625
vt 0.1563 0.0625
vt 0.3125 0.0625
vt 0.2344 0.0625
vt 0.2344 0
vt 0.2813 0
vt 0.2813 0.1719
vt 0.2813 0.125
vt 0.3125 0.125
vt 0.3125 0.1719
vt 0.3125 0.3125
vt 0.2344 0.3125
vt 0.2344 0.1563
vt 0.3125 0.1563
vt 0.1563 0.1563
vt 0.2344 0.1563
vt 0.2344 0.3125
vt 0.1563 0.3125
vt 0.3125 0.0938
vt 0.3125 0.25
vt 0.2813 0.25
vt 0.2813 0.0938
vt 0.2813 0.2813
vt 0.2813 0.125
vt 0.3125 0.125
vt 0.3125 0.2813
vt 0.1406 0.1563
vt 0.2188 0.1563
vt 0.2188 0.3125
vt 0.1406 0.3125
vt 0.3125 0.3125
vt 0.2344 0.3125
vt 0.2344 0.1563
vt 0.3125 0.1563
vt 0.0938 0.4375
vt 0 0.4375
vt 0 0.3438
vt 0.0938 0.3438
vt 0.2813 0.3438
vt 0.2656 0.3438
vt 0.2656 0.25
vt 0.2813 0.25
vt 0.2813 0.25
vt 0.2656 0.25
vt 0.2656 0.3438
vt 0.2813 0.3438
vt 0.2813 0.3438
vt 0.2656 0.3438
vt 0.2656 0.25
vt 0.2813 0.25
vt 0.2813 0.25
vt 0.2656 0.25
vt 0.2656 0.3438
vt 0.2813 0.3438
vt 0.2813 0.6563
vt 0.2813 0.6875
vt 0 0.6875
vt 0 0.6563
vt 0.2813 0.6563
vt 0.2813 0.6875
vt 0 0.6875
vt 0 0.6563
vt 0.2813 0.6563
vt 0.2813 0.6875
vt 0 0.6875
vt 0 0.6563
vt 0.2813 0.6563
vt 0.2813 0.6875
vt 0 0.6875
vt 0 0.6563
vt 0.125 0.9688
vt 0.125 1
vt 0.2188 1
vt 0.2188 0.9688
vt 0.1875 0.9688
vt 0.1875 1
vt 0.0938 1
vt 0.0938 0.9688
vt 0.2188 0.9688
vt 0.2188 1
vt 0.0469 1
vt 0.0469 0.9688
vt 0.3125 0.9688
vt 0.3125 1
vt 0.1406 1
vt 0.1406 0.9688
vt 0.2813 0.9688
vt 0.2813 1
vt 0.1406 1
vt 0.1406 0.9688
vt 0.2813 0.9688
vt 0.2813 1
vt 0.1406 1
vt 0.1406 0.9688
vt 0.9688 0.25
vt 1 0.4219
vt 1 0.1563
vt 0.9688 0.1719
vt 1 0.1563
vt 0.8438 0.1563
vt 0.9375 0.1719
vt 0.9688 0.1719
vt 0.8438 0.1563
vt 0.8438 0.4219
vt 0.9375 0.25
vt 0.9375 0.1719
vt 0.9375 0.25
vt 0.8438 0.4219
vt 1 0.4219
vt 0.9688 0.25
vt 0.9375 0.25
vt 0.8438 0.4219
vt 0.8438 0.1563
vt 0.9375 0.1719
vt 0.9375 0.1719
vt 0.8438 0.1563
vt 1 0.1563
vt 0.9688 0.1719
vt 1 0.1563
vt 1 0.4219
vt 0.9688 0.25
vt 0.9688 0.1719
vt 1 0.4219
vt 0.8438 0.4219
vt 0.9375 0.25
vt 0.9688 0.25
vt 0.9688 0
vt 1 0
vt 1 0.0156
vt 0.9688 0.0156
vt 0.9219 0
vt 1 0
vt 1 0.0156
vt 0.9219 0.0156
vt 0.9688 0
vt 1 0
vt 1 0.0156
vt 0.9688 0.0156
vt 1 0.1719
vt 1 0.0938
vt 0.9844 0.0938
vt 0.9844 0.1719
vt 0.7031 0.9844
vt 0.7031 0.9219
vt 0.75 0.9219
vt 0.75 0.9844
vt 0 0.9844
vt 0 0.9219
vt 0.0469 0.9219
vt 0.0469 0.9844
vt 0.75 1
vt 0.75 0.9531
vt 0.7031 0.9531
vt 0.7031 1
vt 0.0469 1
vt 0.0469 0.9531
vt 0 0.9531
vt 0 1
vn 1 0 0
vn 0 1 0
vn 0 -1 0
vn 0 0 -1
vn -1 0 0
vn 0 1 0
vn 0 -1 0
vn 0 0 1
vn -1 0 0
vn 0 1 0
vn 0 -1 0
vn 0 0 -1
vn 1 0 0
vn 0 1 0
vn 0 -1 0
vn 0 0 1
vn 0 1 0
vn 1 0 0
vn -1 0 0
vn 0 1 0
vn 0 0 1
vn 0 0 -1
vn 1 0 0
vn -1 0 0
vn 0 1 0
vn 0 0 1
vn 0 0 -1
vn 0 1 0
vn 0 0 1
vn 0 0 -1
vn 0 1 0
vn 0 0 1
vn 0 0 -1
vn -0.78 0.62 0
vn 0 1 0
vn 0 0 1
vn 0 0 -1
vn 1 0 0
vn -1 0 0
vn 1 0 0
vn 0 0 1
vn 0 0 -1
vn -1 0 0
vn 0 0 1
vn 0 0 -1
vn 1 0 0
vn 0 1 0
vn 0 0 1
vn 0 0 -1
vn 1 0 0
vn -1 0 0
vn 0 1 0
vn 0 0 1
vn 1 0 0
vn 0 0 1
vn 0 0 -1
vn 1 0 0
vn 0 0 1
vn 0 0 -1
vn -1 0 0
vn 0 1 0
vn 0 0 1
vn 0 0 -1
vn 0 1 0
vn 0 1 0
vn 0 1 0
vn -1 0 0
vn -1 0 0
vn 0 0 1
vn 0 0 -1
vn 1 0 0
vn 0.45 0.89 0
vn 1 0 0
vn 0 1 0
vn 0 0 1
vn 0 0 -1
vn 1 0 0
vn -1 0 0
vn 0 1 0
vn 0 0 1
vn 0 0 -1
vn 1 0 0
vn -1 0 0
vn 0 1 0
vn 0 0 1
vn 0 0 -1
vn 1 0 0
vn -1 0 0
vn 0 1 0
vn 0 0 1
vn 0 0 -1
vn 0.99 -0.13 0
vn -0.99 0.13 0
vn -0.12 -0.94 -0.32
vn 0 0 -1
vn 0.99 -0.13 0
vn -0.99 0.13 0
vn 0 0 1
vn 0 0 -1
vn 1 0 0
vn -1 0 0
vn 0 1 0
vn 0 0 1
vn 0 0 -1
vn 1 0 0
vn -1 0 0
vn 0 1 0
vn 0 -1 0
vn 1 0 0
vn -1 0 0
vn 0 1 0
vn 1 0 0
vn -1 0 0
vn 0 0 1
vn 0 0 -1
vn 1 0 0
vn -1 0 0
vn 0 -0.45 -0.89
vn 0 0 -1
vn 0 0 1
vn -1 0 0
vn -0.45 0.89 0
vn 0 1 0
vn 0 -1 0
vn 0 0 1
vn 0 0 -1
vn -1 0 0
vn 0 1 0
vn 0 -1 0
vn -1 0 0
vn 0 0 1
vn 0 0 -1
vn 1 0 0
vn -1 0 0
vn 0 0 1
vn 0 0 -1
vn 0 0 -1
vn 0 0 1
vn 0 0 -1
vn 0 0 1
vn 0 0 1
vn -1 0 0
vn 0 0 -1
vn -1 0 0
vn 1 0 0
vn -1 0 0
vn 0 0 -1
vn 1 0 0
vn 1 0 0
vn 0 0 1
vn -1 0 0
vn -1 0 0
vn 0 1 0
vn 0 -1 0
vn 0 0 1
vn 0 0 -1
vn 1 0 0
vn -1 0 0
vn 0 1 0
vn 0 -1 0
vn 1 0 0
vn -1 0 0
vn 0 1 0
vn 0 -1 0
vn 0 0 -1
vn 1 0 0
vn -1 0 0
vn 0 1 0
vn 0 -1 0
vn 1 0 0
vn -0.89 0.39 0.22
vn 0 0.87 0.48
vn 0 -0.48 0.87
vn 0 0.48 -0.87
vn 1 0 0
vn -1 0 0
vn 0 -1 -0.07
vn 0 -0.07 1
vn 0 0.07 -1
vn 1 0 0
vn -1 0 0
vn 0 -1 -0.07
vn 0 0.07 -1
vn 0 -0.07 1
vn 0 0.07 -1
vn 0 -0.07 1
vn 0 1 0.07
vn -1 0 0
vn 0.89 0.39 0.22
vn 0 0.87 0.48
vn 0 -0.48 0.87
vn 0 0.48 -0.87
vn -1 0 0
vn 1 0 0
vn 0 -1 -0.07
vn 0 -0.07 1
vn 0 0.07 -1
vn 0 0.07 -1
vn -1 0 0
vn 0 -0.07 1
vn 1 0 0
vn -1 0 0
vn 1 0 0
vn 0 1 0
vn 0 0.45 -0.89
vn 0 0.45 0.89
vn -1 0 0
vn 1 0 0
vn 0 1 0
vn -1 0 0
vn 1 0 0
vn 0 0 -1
vn 0 0 1
vn -1 0 0
vn 1 0 0
vn 1 0 0
vn 0 0 -1
vn 0 -1 0
vn 0 0 1
vn 0 1 0
vn -1 0 0
vn 1 0 0
vn 0 1 0
vn 0 0.45 -0.89
vn 0 0.45 0.89
vn -1 0 0
vn 1 0 0
vn 0 1 0
vn -1 0 0
vn 1 0 0
vn 0 0 -1
vn 0 0 1
vn -1 0 0
vn 1 0 0
vn -1 0 0
vn 0 0.08 -1
vn 0 -1 0
vn 0 0 1
vn 0 1 0
vn 1 0 0
vn -1 0 0
vn 0 0 1
vn 0 0 -1
vn 1 0 0
vn -1 0 0
vn 0 0 1
vn 1 0 0
vn 0 0 1
vn 0 0 -1
vn 0 -0.07 1
vn 0 -0.07 1
vn 0 -0.07 1
vn 0 -0.07 1
vn 0 0.07 -1
vn 0 0.07 -1
vn 0 0.07 -1
vn 0 0.07 -1
vn 0 -1 -0.07
vn 1 0 0
vn 0 1 0.07
vn -1 0 0
vn 1 0 0
vn 1 0 0
vn 1 0 0
vn 1 0 0
usemtl common_rough_steel
f 129/389/98 127/390/98 126/391/98
f 129/389/98 126/391/98 128/392/98
f 126/393/99 127/394/99 131/395/99
f 126/393/99 131/395/99 130/396/99
f 129/397/100 128/398/100 132/399/100
f 129/397/100 132/399/100 133/400/100
f 133/401/101 131/402/101 127/403/101
f 133/401/101 127/403/101 129/404/101
f 140/405/102 138/406/102 139/407/102
f 140/405/102 139/407/102 141/408/102
f 134/409/103 135/410/103 139/411/103
f 134/409/103 139/411/103 138/412/103
f 137/413/104 136/414/104 140/415/104
f 137/413/104 140/415/104 141/416/104
f 136/417/105 134/418/105 138/419/105
f 136/417/105 138/419/105 140/420/105
f 148/421/106 146/422/106 147/423/106
f 148/421/106 147/423/106 149/424/106
f 142/425/107 143/426/107 147/427/107
f 142/425/107 147/427/107 146/428/107
f 145/429/108 144/430/108 148/431/108
f 145/429/108 148/431/108 149/432/108
f 149/433/109 147/434/109 143/435/109
f 149/433/109 143/435/109 145/436/109
f 153/437/110 151/438/110 150/439/110
f 153/437/110 150/439/110 152/440/110
f 150/441/111 151/442/111 155/443/111
f 150/441/111 155/443/111 154/444/111
f 153/445/112 152/446/112 156/447/112
f 153/445/112 156/447/112 157/448/112
f 152/449/113 150/450/113 154/451/113
f 152/449/113 154/451/113 156/452/113
usemtl weapon_light_howitzer
f 158/453/114 159/454/114 161/455/114
f 158/453/114 161/455/114 160/456/114
f 165/457/115 163/458/115 162/459/115
f 165/457/115 162/459/115 164/460/115
f 168/461/116 166/462/116 167/463/116
f 168/461/116 167/463/116 169/464/116
f 162/465/117 163/466/117 167/467/117
f 162/465/117 167/467/117 166/468/117
f 164/469/118 162/470/118 166/471/118
f 164/469/118 166/471/118 168/472/118
f 169/473/119 167/474/119 163/475/119
f 169/473/119 163/475/119 165/476/119
f 173/477/120 171/478/120 170/479/120
f 173/477/120 170/479/120 172/480/120
f 176/481/121 174/482/121 175/483/121
f 176/481/121 175/483/121 177/484/121
f 170/485/122 171/486/122 175/487/122
f 170/485/122 175/487/122 174/488/122
f 172/489/123 170/490/123 174/491/123
f 172/489/123 174/491/123 176/492/123
f 177/493/124 175/494/124 171/495/124
f 177/493/124 171/495/124 173/496/124
f 178/497/125 179/498/125 183/499/125
f 178/497/125 183/499/125 182/500/125
f 180/501/126 178/502/126 182/503/126
f 180/501/126 182/503/126 184/504/126
f 185/505/127 183/506/127 179/507/127
f 185/505/127 179/507/127 181/508/127
f 186/509/128 187/510/128 191/511/128
f 186/509/128 191/511/128 190/512/128
f 188/513/129 186/514/129 190/515/129
f 188/513/129 190/515/129 192/516/129
f 193/517/130 191/518/130 187/519/130
f 193/517/130 187/519/130 189/520/130
f 201/521/131 199/522/131 200/523/131
f 201/521/131 200/523/131 202/524/131
f 195/525/132 196/526/132 200/527/132
f 195/525/132 200/527/132 199/528/132
f 197/529/133 195/530/133 199/531/133
f 197/529/133 199/531/133 201/532/133
f 202/533/134 200/534/134 196/535/134
f 202/533/134 196/535/134 198/536/134
f 206/537/135 204/538/135 203/539/135
f 206/537/135 203/539/135 205/540/135
f 209/541/136 207/542/136 208/543/136
f 209/541/136 208/543/136 210/544/136
f 214/545/137 212/546/137 211/547/137
f 214/545/137 211/547/137 213/548/137
f 213/549/138 211/550/138 215/551/138
f 213/549/138 215/551/138 217/552/138
f 218/553/139 216/554/139 212/555/139
f 218/553/139 212/555/139 214/556/139
f 225/557/140 223/558/140 224/559/140
f 225/557/140 224/559/140 226/560/140
f 221/561/141 219/562/141 223/563/141
f 221/561/141 223/563/141 225/564/141
f 226/565/142 224/566/142 220/567/142
f 226/565/142 220/567/142 222/568/142
f 230/569/143 228/570/143 227/571/143
f 230/569/143 227/571/143 229/572/143
f 227/573/144 228/574/144 232/575/144
f 227/573/144 232/575/144 231/576/144
f 229/577/145 227/578/145 231/579/145
f 229/577/145 231/579/145 233/580/145
f 234/581/146 232/582/146 228/583/146
f 234/581/146 228/583/146 230/584/146
f 238/585/147 236/586/147 235/587/147
f 238/585/147 235/587/147 237/588/147
f 241/589/148 239/590/148 240/591/148
f 241/589/148 240/591/148 242/592/148
f 235/593/149 236/594/149 240/595/149
f 235/593/149 240/595/149 239/596/149
f 237/597/150 235/598/150 239/599/150
f 237/597/150 239/599/150 241/600/150
f 246/601/151 244/602/151 243/603/151
f 246/601/151 243/603/151 245/604/151
f 245/605/152 243/606/152 247/607/152
f 245/605/152 247/607/152 249/608/152
f 250/609/153 248/610/153 244/611/153
f 250/609/153 244/611/153 246/612/153
f 254/613/154 252/614/154 251/615/154
f 254/613/154 251/615/154 253/616/154
f 253/617/155 251/618/155 255/619/155
f 253/617/155 255/619/155 257/620/155
f 258/621/156 256/622/156 252/623/156
f 258/621/156 252/623/156 254/624/156
f 264/625/157 263/626/157 125/627/157
f 264/625/157 125/627/157 194/628/157
f 259/629/158 260/630/158 125/631/158
f 259/629/158 125/631/158 263/632/158
f 261/633/159 259/634/159 263/635/159
f 261/633/159 263/635/159 264/636/159
f 194/637/160 125/638/160 260/639/160
f 194/637/160 260/639/160 262/640/160
f 265/641/161 266/642/161 268/643/161
f 265/641/161 268/643/161 267/644/161
f 219/645/162 220/646/162 224/647/162
f 219/645/162 224/647/162 223/648/162
f 243/649/163 244/650/163 248/651/163
f 243/649/163 248/651/163 247/652/163
f 257/653/164 255/654/164 256/655/164
f 257/653/164 256/655/164 258/656/164
f 263/657/165 125/658/165 194/659/165
f 263/657/165 194/659/165 255/660/165
usemtl common_copper_cable
f 272/661/166 270/662/166 269/663/166
f 272/661/166 269/663/166 271/664/166
f 275/665/167 273/666/167 274/667/167
f 275/665/167 274/667/167 276/668/167
f 272/669/168 271/670/168 275/671/168
f 272/669/168 275/671/168 276/672/168
f 276/673/169 274/674/169 270/675/169
f 276/673/169 270/675/169 272/676/169
usemtl weapon_light_howitzer
f 280/677/170 278/678/170 277/679/170
f 280/677/170 277/679/170 279/680/170
f 277/681/171 278/682/171 282/683/171
f 277/681/171 282/683/171 281/684/171
f 279/685/172 277/686/172 281/687/172
f 279/685/172 281/687/172 283/688/172
f 284/689/173 282/690/173 278/691/173
f 284/689/173 278/691/173 280/692/173
f 288/693/174 286/694/174 285/695/174
f 288/693/174 285/695/174 287/696/174
f 291/697/175 289/698/175 290/699/175
f 291/697/175 290/699/175 292/700/175
f 285/701/176 286/702/176 290/703/176
f 285/701/176 290/703/176 289/704/176
f 287/705/177 285/706/177 289/707/177
f 287/705/177 289/707/177 291/708/177
f 292/709/178 290/710/178 286/711/178
f 292/709/178 286/711/178 288/712/178
usemtl common_thingies
f 296/713/179 294/714/179 293/715/179
f 296/713/179 293/715/179 295/716/179
f 299/717/180 297/718/180 298/719/180
f 299/717/180 298/719/180 300/720/180
f 293/721/181 294/722/181 298/723/181
f 293/721/181 298/723/181 297/724/181
f 295/725/182 293/726/182 297/727/182
f 295/725/182 297/727/182 299/728/182
f 300/729/183 298/730/183 294/731/183
f 300/729/183 294/731/183 296/732/183
usemtl weapon_light_howitzer
f 304/733/184 302/734/184 301/735/184
f 304/733/184 301/735/184 303/736/184
f 307/737/185 305/738/185 306/739/185
f 307/737/185 306/739/185 308/740/185
f 301/741/186 302/742/186 306/743/186
f 301/741/186 306/743/186 305/744/186
f 303/745/187 301/746/187 305/747/187
f 303/745/187 305/747/187 307/748/187
f 308/749/188 306/750/188 302/751/188
f 308/749/188 302/751/188 304/752/188
usemtl common_copper_cable
f 312/753/189 310/754/189 309/755/189
f 312/753/189 309/755/189 311/756/189
f 315/757/190 313/758/190 314/759/190
f 315/757/190 314/759/190 316/760/190
f 312/761/191 311/762/191 315/763/191
f 312/761/191 315/763/191 316/764/191
f 316/765/192 314/766/192 310/767/192
f 316/765/192 310/767/192 312/768/192
f 320/769/193 318/770/193 317/771/193
f 320/769/193 317/771/193 319/772/193
f 323/773/194 321/774/194 322/775/194
f 323/773/194 322/775/194 324/776/194
f 319/777/195 317/778/195 321/779/195
f 319/777/195 321/779/195 323/780/195
f 324/781/196 322/782/196 318/783/196
f 324/781/196 318/783/196 320/784/196
usemtl weapon_light_howitzer
f 328/785/197 326/786/197 325/787/197
f 328/785/197 325/787/197 327/788/197
f 331/789/198 329/790/198 330/791/198
f 331/789/198 330/791/198 332/792/198
f 325/793/199 326/794/199 330/795/199
f 325/793/199 330/795/199 329/796/199
f 327/797/200 325/798/200 329/799/200
f 327/797/200 329/799/200 331/800/200
f 332/801/201 330/802/201 326/803/201
f 332/801/201 326/803/201 328/804/201
usemtl common_copper_cable
f 336/805/202 334/806/202 333/807/202
f 336/805/202 333/807/202 335/808/202
f 339/809/203 337/810/203 338/811/203
f 339/809/203 338/811/203 340/812/203
f 333/813/204 334/814/204 338/815/204
f 333/813/204 338/815/204 337/816/204
f 336/817/205 335/818/205 339/819/205
f 336/817/205 339/819/205 340/820/205
f 344/821/206 342/822/206 341/823/206
f 344/821/206 341/823/206 343/824/206
f 347/825/207 345/826/207 346/827/207
f 347/825/207 346/827/207 348/828/207
f 341/829/208 342/830/208 346/831/208
f 341/829/208 346/831/208 345/832/208
f 352/833/209 350/834/209 349/835/209
f 352/833/209 349/835/209 351/836/209
f 355/837/210 353/838/210 354/839/210
f 355/837/210 354/839/210 356/840/210
f 351/841/211 349/842/211 353/843/211
f 351/841/211 353/843/211 355/844/211
f 356/845/212 354/846/212 350/847/212
f 356/845/212 350/847/212 352/848/212
f 360/849/213 358/850/213 357/851/213
f 360/849/213 357/851/213 359/852/213
f 363/853/214 361/854/214 362/855/214
f 363/853/214 362/855/214 364/856/214
f 364/857/215 362/858/215 358/859/215
f 364/857/215 358/859/215 360/860/215
f 368/861/216 366/862/216 365/863/216
f 368/861/216 365/863/216 367/864/216
f 371/865/217 369/866/217 370/867/217
f 371/865/217 370/867/217 372/868/217
f 368/869/218 367/870/218 371/871/218
f 368/869/218 371/871/218 372/872/218
f 372/873/219 370/874/219 366/875/219
f 372/873/219 366/875/219 368/876/219
f 373/877/220 374/878/220 378/879/220
f 373/877/220 378/879/220 377/880/220
f 376/881/221 375/882/221 379/883/221
f 376/881/221 379/883/221 380/884/221
f 375/885/222 373/886/222 377/887/222
f 375/885/222 377/887/222 379/888/222
f 380/889/223 378/890/223 374/891/223
f 380/889/223 374/891/223 376/892/223
usemtl common_steel_norivets
f 387/893/224 385/894/224 386/895/224
f 387/893/224 386/895/224 388/896/224
f 381/897/225 382/898/225 386/899/225
f 381/897/225 386/899/225 385/900/225
f 384/901/226 383/902/226 387/903/226
f 384/901/226 387/903/226 388/904/226
f 394/905/227 412/906/227 411/907/227
f 394/905/227 411/907/227 393/908/227
f 406/909/228 410/910/228 409/911/228
f 406/909/228 409/911/228 389/912/228
f 390/913/229 408/914/229 407/915/229
f 390/913/229 407/915/229 403/916/229
f 605/917/230 419/918/230 418/919/230
f 605/917/230 418/919/230 607/920/230
f 400/921/231 417/922/231 416/923/231
f 400/921/231 416/923/231 413/924/231
f 399/925/232 421/926/232 420/927/232
f 399/925/232 420/927/232 606/928/232
f 607/929/233 418/930/233 417/931/233
f 607/929/233 417/931/233 400/932/233
f 403/933/234 407/934/234 412/935/234
f 403/933/234 412/935/234 394/936/234
f 393/937/235 411/938/235 410/939/235
f 393/937/235 410/939/235 406/940/235
f 404/941/236 407/942/236 408/943/236
f 404/941/236 408/943/236 392/944/236
f 391/945/237 409/946/237 410/947/237
f 391/945/237 410/947/237 405/948/237
f 405/949/238 410/950/238 411/951/238
f 405/949/238 411/951/238 395/952/238
f 395/953/239 411/954/239 412/955/239
f 395/953/239 412/955/239 396/956/239
f 396/957/240 412/958/240 407/959/240
f 396/957/240 407/959/240 404/960/240
f 413/961/241 416/962/241 421/963/241
f 413/961/241 421/963/241 399/964/241
f 606/965/242 420/966/242 419/967/242
f 606/965/242 419/967/242 605/968/242
f 414/969/243 416/970/243 417/971/243
f 414/969/243 417/971/243 402/972/243
f 402/973/244 417/974/244 418/975/244
f 402/973/244 418/975/244 398/976/244
f 398/977/245 418/978/245 419/979/245
f 398/977/245 419/979/245 415/980/245
f 415/981/246 419/982/246 420/983/246
f 415/981/246 420/983/246 397/984/246
f 397/985/247 420/986/247 421/987/247
f 397/985/247 421/987/247 401/988/247
f 401/989/248 421/990/248 416/991/248
f 401/989/248 416/991/248 414/992/248
usemtl weapon_light_howitzer
f 424/993/249 422/994/249 423/995/249
f 424/993/249 423/995/249 425/996/249
f 601/997/250 609/998/250 423/999/250
f 601/997/250 423/999/250 422/1000/250
f 607/1001/251 606/1002/251 424/1003/251
f 607/1001/251 424/1003/251 425/1004/251
f 606/1005/252 601/1006/252 422/1007/252
f 606/1005/252 422/1007/252 424/1008/252
f 425/1009/253 423/1010/253 609/1011/253
f 425/1009/253 609/1011/253 607/1012/253
f 429/1013/254 427/1014/254 426/1015/254
f 429/1013/254 426/1015/254 428/1016/254
f 432/1017/255 430/1018/255 431/1019/255
f 432/1017/255 431/1019/255 433/1020/255
f 426/1021/256 427/1022/256 431/1023/256
f 426/1021/256 431/1023/256 430/1024/256
f 429/1025/257 428/1026/257 432/1027/257
f 429/1025/257 432/1027/257 433/1028/257
f 437/1029/258 435/1030/258 434/1031/258
f 437/1029/258 434/1031/258 436/1032/258
f 440/1033/259 438/1034/259 439/1035/259
f 440/1033/259 439/1035/259 441/1036/259
f 434/1037/260 435/1038/260 439/1039/260
f 434/1037/260 439/1039/260 438/1040/260
f 437/1041/261 436/1042/261 440/1043/261
f 437/1041/261 440/1043/261 441/1044/261
f 441/1045/262 439/1046/262 435/1047/262
f 441/1045/262 435/1047/262 437/1048/262
f 445/1049/263 443/1050/263 442/1051/263
f 445/1049/263 442/1051/263 444/1052/263
f 448/1053/264 446/1054/264 447/1055/264
f 448/1053/264 447/1055/264 449/1056/264
f 442/1057/265 443/1058/265 447/1059/265
f 442/1057/265 447/1059/265 446/1060/265
f 445/1061/266 444/1062/266 448/1063/266
f 445/1061/266 448/1063/266 449/1064/266
f 453/1065/267 451/1066/267 450/1067/267
f 453/1065/267 450/1067/267 452/1068/267
f 456/1069/268 454/1070/268 455/1071/268
f 456/1069/268 455/1071/268 457/1072/268
f 450/1073/269 451/1074/269 455/1075/269
f 450/1073/269 455/1075/269 454/1076/269
f 452/1077/270 450/1078/270 454/1079/270
f 452/1077/270 454/1079/270 456/1080/270
f 457/1081/271 455/1082/271 451/1083/271
f 457/1081/271 451/1083/271 453/1084/271
f 458/1085/272 468/1086/272 467/1087/272
f 458/1085/272 467/1087/272 459/1088/272
f 463/1089/273 466/1090/273 469/1091/273
f 463/1089/273 469/1091/273 462/1092/273
f 461/1093/274 460/1094/274 464/1095/274
f 461/1093/274 464/1095/274 465/1096/274
f 462/1097/275 469/1098/275 468/1099/275
f 462/1097/275 468/1099/275 458/1100/275
f 459/1101/276 467/1102/276 466/1103/276
f 459/1101/276 466/1103/276 463/1104/276
f 461/1105/277 467/1106/277 468/1107/277
f 461/1105/277 468/1107/277 460/1108/277
f 464/1109/278 469/1110/278 466/1111/278
f 464/1109/278 466/1111/278 465/1112/278
f 472/1113/279 470/1114/279 471/1115/279
f 472/1113/279 471/1115/279 473/1116/279
f 471/1117/280 479/1118/280 478/1119/280
f 471/1117/280 478/1119/280 473/1120/280
f 472/1121/281 481/1122/281 480/1123/281
f 472/1121/281 480/1123/281 470/1124/281
f 474/1125/282 478/1126/282 479/1127/282
f 474/1125/282 479/1127/282 475/1128/282
f 476/1129/283 480/1130/283 481/1131/283
f 476/1129/283 481/1131/283 477/1132/283
f 476/1133/284 477/1134/284 474/1135/284
f 476/1133/284 474/1135/284 475/1136/284
f 482/1137/285 483/1138/285 485/1139/285
f 482/1137/285 485/1139/285 484/1140/285
f 487/1141/286 486/1142/286 488/1143/286
f 487/1141/286 488/1143/286 489/1144/286
f 487/1145/287 483/1146/287 482/1147/287
f 487/1145/287 482/1147/287 486/1148/287
f 486/1149/288 482/1150/288 484/1151/288
f 486/1149/288 484/1151/288 488/1152/288
f 483/1153/289 487/1154/289 489/1155/289
f 483/1153/289 489/1155/289 485/1156/289
f 499/1157/290 500/1158/290 490/1159/290
f 499/1157/290 490/1159/290 491/1160/290
f 501/1161/291 498/1162/291 495/1163/291
f 501/1161/291 495/1163/291 494/1164/291
f 496/1165/292 492/1166/292 493/1167/292
f 496/1165/292 493/1167/292 497/1168/292
f 500/1169/293 501/1170/293 494/1171/293
f 500/1169/293 494/1171/293 490/1172/293
f 498/1173/294 499/1174/294 491/1175/294
f 498/1173/294 491/1175/294 495/1176/294
f 499/1177/295 498/1178/295 497/1179/295
f 499/1177/295 497/1179/295 493/1180/295
f 500/1181/296 499/1182/296 493/1183/296
f 500/1181/296 493/1183/296 492/1184/296
f 501/1185/297 500/1186/297 492/1187/297
f 501/1185/297 492/1187/297 496/1188/297
f 498/1189/298 501/1190/298 496/1191/298
f 498/1189/298 496/1191/298 497/1192/298
f 504/1193/299 511/1194/299 510/1195/299
f 504/1193/299 510/1195/299 502/1196/299
f 506/1197/300 513/1198/300 512/1199/300
f 506/1197/300 512/1199/300 508/1200/300
f 502/1201/301 510/1202/301 513/1203/301
f 502/1201/301 513/1203/301 506/1204/301
f 504/1205/302 502/1206/302 506/1207/302
f 504/1205/302 506/1207/302 508/1208/302
f 507/1209/303 503/1210/303 505/1211/303
f 507/1209/303 505/1211/303 509/1212/303
f 503/1213/304 510/1214/304 511/1215/304
f 503/1213/304 511/1215/304 505/1216/304
f 509/1217/305 512/1218/305 513/1219/305
f 509/1217/305 513/1219/305 507/1220/305
f 507/1221/306 513/1222/306 510/1223/306
f 507/1221/306 510/1223/306 503/1224/306
f 516/1225/307 523/1226/307 522/1227/307
f 516/1225/307 522/1227/307 514/1228/307
f 518/1229/308 525/1230/308 524/1231/308
f 518/1229/308 524/1231/308 520/1232/308
f 516/1233/309 514/1234/309 518/1235/309
f 516/1233/309 518/1235/309 520/1236/309
f 521/1237/310 519/1238/310 515/1239/310
f 521/1237/310 515/1239/310 517/1240/310
f 515/1241/311 522/1242/311 523/1243/311
f 515/1241/311 523/1243/311 517/1244/311
f 521/1245/312 524/1246/312 525/1247/312
f 521/1245/312 525/1247/312 519/1248/312
f 529/1249/313 527/1250/313 526/1251/313
f 529/1249/313 526/1251/313 528/1252/313
usemtl common_thingies
f 531/1253/314 530/1254/314 527/1255/314
f 531/1253/314 527/1255/314 529/1256/314
f 532/1257/315 531/1258/315 529/1259/315
f 532/1257/315 529/1259/315 528/1260/315
f 533/1261/316 532/1262/316 528/1263/316
f 533/1261/316 528/1263/316 526/1264/316
f 530/1265/317 533/1266/317 526/1267/317
f 530/1265/317 526/1267/317 527/1268/317
usemtl weapon_light_howitzer
f 536/1269/318 543/1270/318 542/1271/318
f 536/1269/318 542/1271/318 534/1272/318
f 538/1273/319 545/1274/319 544/1275/319
f 538/1273/319 544/1275/319 540/1276/319
f 534/1277/320 542/1278/320 545/1279/320
f 534/1277/320 545/1279/320 538/1280/320
f 536/1281/321 534/1282/321 538/1283/321
f 536/1281/321 538/1283/321 540/1284/321
f 539/1285/322 535/1286/322 537/1287/322
f 539/1285/322 537/1287/322 541/1288/322
f 535/1289/323 542/1290/323 543/1291/323
f 535/1289/323 543/1291/323 537/1292/323
f 541/1293/324 544/1294/324 545/1295/324
f 541/1293/324 545/1295/324 539/1296/324
f 539/1297/325 545/1298/325 542/1299/325
f 539/1297/325 542/1299/325 535/1300/325
f 548/1301/326 555/1302/326 554/1303/326
f 548/1301/326 554/1303/326 546/1304/326
f 550/1305/327 557/1306/327 556/1307/327
f 550/1305/327 556/1307/327 552/1308/327
f 548/1309/328 546/1310/328 550/1311/328
f 548/1309/328 550/1311/328 552/1312/328
f 553/1313/329 551/1314/329 547/1315/329
f 553/1313/329 547/1315/329 549/1316/329
f 547/1317/330 554/1318/330 555/1319/330
f 547/1317/330 555/1319/330 549/1320/330
f 553/1321/331 556/1322/331 557/1323/331
f 553/1321/331 557/1323/331 551/1324/331
f 558/1325/332 609/1326/332 560/1327/332
f 558/1325/332 560/1327/332 559/1328/332
usemtl common_thingies
f 609/1329/333 561/1330/333 562/1331/333
f 609/1329/333 562/1331/333 560/1332/333
f 560/1333/334 562/1334/334 563/1335/334
f 560/1333/334 563/1335/334 559/1336/334
f 559/1337/335 563/1338/335 564/1339/335
f 559/1337/335 564/1339/335 558/1340/335
f 558/1341/336 564/1342/336 561/1343/336
f 558/1341/336 561/1343/336 609/1344/336
usemtl weapon_light_howitzer
f 568/1345/337 566/1346/337 565/1347/337
f 568/1345/337 565/1347/337 567/1348/337
f 571/1349/338 569/1350/338 570/1351/338
f 571/1349/338 570/1351/338 572/1352/338
f 567/1353/339 565/1354/339 569/1355/339
f 567/1353/339 569/1355/339 571/1356/339
f 572/1357/340 570/1358/340 566/1359/340
f 572/1357/340 566/1359/340 568/1360/340
usemtl common_steel_norivets
f 576/1361/341 574/1362/341 573/1363/341
f 576/1361/341 573/1363/341 575/1364/341
f 579/1365/342 577/1366/342 578/1367/342
f 579/1365/342 578/1367/342 580/1368/342
f 575/1369/343 573/1370/343 577/1371/343
f 575/1369/343 577/1371/343 579/1372/343
usemtl common_steel
f 584/1373/344 582/1374/344 581/1375/344
f 584/1373/344 581/1375/344 583/1376/344
f 583/1377/345 581/1378/345 585/1379/345
f 583/1377/345 585/1379/345 587/1380/345
f 588/1381/346 586/1382/346 582/1383/346
f 588/1381/346 582/1383/346 584/1384/346
usemtl weapon_light_howitzer
f 592/1385/347 460/1386/347 468/1387/347
f 592/1385/347 468/1387/347 589/1388/347
f 468/1389/348 469/1390/348 590/1391/348
f 468/1389/348 590/1391/348 589/1392/348
f 469/1393/349 464/1394/349 591/1395/349
f 469/1393/349 591/1395/349 590/1396/349
f 591/1397/350 464/1398/350 460/1399/350
f 591/1397/350 460/1399/350 592/1400/350
f 595/1401/351 465/1402/351 466/1403/351
f 595/1401/351 466/1403/351 596/1404/351
f 596/1405/352 466/1406/352 467/1407/352
f 596/1405/352 467/1407/352 593/1408/352
f 467/1409/353 461/1410/353 594/1411/353
f 467/1409/353 594/1411/353 593/1412/353
f 461/1413/354 465/1414/354 595/1415/354
f 461/1413/354 595/1415/354 594/1416/354
f 598/1417/355 597/1418/355 589/1419/355
f 598/1417/355 589/1419/355 590/1420/355
f 599/1421/356 598/1422/356 590/1423/356
f 599/1421/356 590/1423/356 591/1424/356
f 600/1425/357 599/1426/357 591/1427/357
f 600/1425/357 591/1427/357 592/1428/357
f 597/1429/358 600/1430/358 592/1431/358
f 597/1429/358 592/1431/358 589/1432/358
usemtl common_steel_norivets
f 604/1433/359 603/1434/359 608/1435/359
f 604/1433/359 608/1435/359 609/1436/359
f 601/1437/360 602/1438/360 603/1439/360
f 601/1437/360 603/1439/360 604/1440/360
f 607/1441/361 608/1442/361 603/1443/361
f 607/1441/361 603/1443/361 605/1444/361
f 605/1445/362 603/1446/362 602/1447/362
f 605/1445/362 602/1447/362 606/1448/362
o cartridge_piston
v 0.5938 -2.25 2.0938
v 0.5938 -2.25 1.9688
v 0.5938 -2.375 2.0938
v 0.5938 -2.375 1.9688
v 0.4688 -2.25 2.0938
v 0.4688 -2.25 1.9688
v 0.4688 -2.375 2.0938
v 0.4688 -2.375 1.9688
v 0.6875 -2.125 2.375
v 0.6875 -2.125 1.6875
v 0.6875 -2.1875 2.375
v 0.6875 -2.1875 1.6875
v 0.375 -2.125 2.375
v 0.375 -2.125 1.6875
v 0.375 -2.1875 2.375
v 0.375 -2.1875 1.6875
v 0.6875 -2.1875 2.375
v 0.6875 -2.1875 1.6875
v 0.6563 -2.25 2.3125
v 0.6563 -2.25 1.75
v 0.375 -2.1875 2.375
v 0.375 -2.1875 1.6875
v 0.4063 -2.25 2.3125
v 0.4063 -2.25 1.75
vt 0.9688 0.6094
vt 0.9688 0.6406
vt 1 0.6406
vt 1 0.6094
vt 0.9688 0.6094
vt 0.9688 0.6406
vt 1 0.6406
vt 1 0.6094
vt 0.1563 0.5938
vt 0.1563 0.625
vt 0.1875 0.625
vt 0.1875 0.5938
vt 1 0.6094
vt 1 0.6406
vt 0.9688 0.6406
vt 0.9688 0.6094
vt 1 0.6094
vt 1 0.6406
vt 0.9688 0.6406
vt 0.9688 0.6094
vt 0.4688 0.6719
vt 0.4688 0.6875
vt 0.2969 0.6875
vt 0.2969 0.6719
vt 0.4688 0.6719
vt 0.4688 0.6875
vt 0.2969 0.6875
vt 0.2969 0.6719
vt 0.4688 0.6875
vt 0.2969 0.6875
vt 0.2969 0.6094
vt 0.4688 0.6094
vt 0.4531 0.6094
vt 0.4688 0.6094
vt 0.4688 0.6875
vt 0.4531 0.6875
vt 0.4531 0.6094
vt 0.4688 0.6094
vt 0.4688 0.6875
vt 0.4531 0.6875
vt 0.4531 0.5938
vt 0.4688 0.6094
vt 0.2969 0.6094
vt 0.3125 0.5938
vt 0.4531 0.5938
vt 0.4688 0.6094
vt 0.2969 0.6094
vt 0.3125 0.5938
vt 0.2969 0.5313
vt 0.4375 0.5313
vt 0.4375 0.5938
vt 0.2969 0.5938
vt 0.3828 0.5313
vt 0.3906 0.5469
vt 0.3125 0.5469
vt 0.3203 0.5313
vt 0.3672 0.5313
vt 0.375 0.5469
vt 0.2969 0.5469
vt 0.3047 0.5313
vn 1 0 0
vn -1 0 0
vn 0 -1 0
vn 0 0 1
vn 0 0 -1
vn 1 0 0
vn -1 0 0
vn 0 1 0
vn 0 0 1
vn 0 0 -1
vn 0.89 -0.45 0
vn -0.89 -0.45 0
vn 0 -1 0
vn 0 -0.71 0.71
vn 0 -0.71 -0.71
usemtl common_steel_norivets
f 613/1449/363 611/1450/363 610/1451/363
f 613/1449/363 610/1451/363 612/1452/363
f 616/1453/364 614/1454/364 615/1455/364
f 616/1453/364 615/1455/364 617/1456/364
usemtl weapon_light_howitzer
f 613/1457/365 612/1458/365 616/1459/365
f 613/1457/365 616/1459/365 617/1460/365
usemtl common_steel_norivets
f 612/1461/366 610/1462/366 614/1463/366
f 612/1461/366 614/1463/366 616/1464/366
f 617/1465/367 615/1466/367 611/1467/367
f 617/1465/367 611/1467/367 613/1468/367
usemtl weapon_light_howitzer
f 621/1469/368 619/1470/368 618/1471/368
f 621/1469/368 618/1471/368 620/1472/368
f 624/1473/369 622/1474/369 623/1475/369
f 624/1473/369 623/1475/369 625/1476/369
f 618/1477/370 619/1478/370 623/1479/370
f 618/1477/370 623/1479/370 622/1480/370
f 620/1481/371 618/1482/371 622/1483/371
f 620/1481/371 622/1483/371 624/1484/371
f 625/1485/372 623/1486/372 619/1487/372
f 625/1485/372 619/1487/372 621/1488/372
f 629/1489/373 627/1490/373 626/1491/373
f 629/1489/373 626/1491/373 628/1492/373
f 632/1493/374 630/1494/374 631/1495/374
f 632/1493/374 631/1495/374 633/1496/374
f 629/1497/375 628/1498/375 632/1499/375
f 629/1497/375 632/1499/375 633/1500/375
f 628/1501/376 626/1502/376 630/1503/376
f 628/1501/376 630/1503/376 632/1504/376
f 633/1505/377 631/1506/377 627/1507/377
f 633/1505/377 627/1507/377 629/1508/377
o barrel
v 0.875 -1.0625 1.5625
v 0.875 -1.0625 0.8125
v 0.875 -1.125 1.5625
v 0.875 -1.125 0.8125
v 0.25 -1.0625 1.5625
v 0.25 -1.0625 0.8125
v 0.25 -1.125 1.5625
v 0.25 -1.125 0.8125
v 0.75 -1.625 1.5625
v 0.75 -1.625 1.0625
v 0.75 -1.6875 1.5625
v 0.75 -1.6875 1.0625
v 0.375 -1.625 1.5625
v 0.375 -1.625 1.0625
v 0.375 -1.6875 1.5625
v 0.375 -1.6875 1.0625
v 0.75 -1.625 1.0625
v 0.75 -1.625 0.8125
v 0.75 -1.6875 1.0625
v 0.75 -1.6875 0.8125
v 0.375 -1.625 1.0625
v 0.375 -1.625 0.8125
v 0.375 -1.6875 1.0625
v 0.375 -1.6875 0.8125
v 0.8125 -1.125 1.5625
v 0.8125 -1.1875 1.5625
v 0.8125 -1.1875 1.0625
v 0.3125 -1.125 1.5625
v 0.3125 -1.1875 1.5625
v 0.3125 -1.1875 1.0625
v 0.8125 -1.125 0.8125
v 0.8125 -1.125 0.0625
v 0.8125 -1.625 0.8125
v 0.8125 -1.625 0.0625
v 0.3125 -1.125 0.8125
v 0.3125 -1.125 0.0625
v 0.3125 -1.625 0.8125
v 0.3125 -1.625 0.0625
v 0.3125 -1.125 1.5625
v 0.3125 -1.125 0.8125
v 0.3125 -1.6875 1.5625
v 0.3125 -1.6875 0.8125
v 0.25 -1.125 1.5625
v 0.25 -1.125 0.8125
v 0.25 -1.6875 1.5625
v 0.25 -1.6875 0.8125
v 0.875 -1.125 1.5625
v 0.875 -1.125 0.8125
v 0.875 -1.6875 1.5625
v 0.875 -1.6875 0.8125
v 0.8125 -1.125 1.5625
v 0.8125 -1.125 0.8125
v 0.8125 -1.6875 1.5625
v 0.8125 -1.6875 0.8125
v 0.875 -1.3125 0.4375
v 0.875 -1.3125 0.25
v 0.875 -1.5 0.4375
v 0.875 -1.5 0.25
v 0.8125 -1.3125 0.4375
v 0.8125 -1.3125 0.25
v 0.8125 -1.5 0.4375
v 0.8125 -1.5 0.25
v 0.7188 -1.0625 0.625
v 0.7188 -1.125 0.625
v 0.4063 -1.0625 0.625
v 0.4063 -1.125 0.625
v 0.7188 -1.0625 1.125
v 0.4063 -1.0625 1.125
v 0.4063 -1.125 1.125
v 0.7188 -1.125 1.125
v 0.7188 -0.9375 1.5625
v 0.7188 -0.9375 0.625
v 0.7188 -1.0625 1.5625
v 0.7188 -1.0625 0.625
v 0.4063 -0.9375 1.5625
v 0.4063 -0.9375 0.625
v 0.4063 -1.0625 1.5625
v 0.4063 -1.0625 0.625
v 0.7188 -1.0625 1.0625
v 0.4063 -1.0625 1.0625
v 0.4063 -0.9375 1.0625
v 0.7188 -0.9375 1.0625
v 0.6563 -0.8125 1.5625
v 0.6563 -0.8125 0.625
v 0.7188 -0.9375 1.5625
v 0.7188 -0.9375 0.625
v 0.4688 -0.8125 1.5625
v 0.4688 -0.8125 0.625
v 0.4063 -0.9375 1.5625
v 0.4063 -0.9375 0.625
vt 0.2031 0.9844
vt 0.2031 1
vt 0.3906 1
vt 0.3906 0.9844
vt 0.3906 0.9844
vt 0.3906 1
vt 0.2031 1
vt 0.2031 0.9844
vt 0.375 1
vt 0.1875 1
vt 0.1875 0.8438
vt 0.375 0.8438
vt 0.375 1
vt 0.1875 1
vt 0.1875 0.8438
vt 0.375 0.8438
vt 0.3906 0.8906
vt 0.3906 0.9063
vt 0.2344 0.9063
vt 0.2344 0.8906
vt 0.4219 0.9844
vt 0.4219 1
vt 0.2656 1
vt 0.2656 0.9844
vt 0.4063 0.8906
vt 0.4063 0.9063
vt 0.2813 0.9063
vt 0.2813 0.8906
vt 0.4063 0.8906
vt 0.4063 0.9063
vt 0.2813 0.9063
vt 0.2813 0.8906
vt 0.375 1
vt 0.375 0.875
vt 0.2813 0.875
vt 0.2813 1
vt 0.4375 0.8594
vt 0.4375 0.9844
vt 0.3438 0.9844
vt 0.3438 0.8594
vt 0.3906 0.8906
vt 0.3906 0.9063
vt 0.2969 0.9063
vt 0.2969 0.8906
vt 0.4063 0.9063
vt 0.4063 0.9219
vt 0.3438 0.9219
vt 0.3438 0.9063
vt 0.4063 0.9063
vt 0.4063 0.9219
vt 0.3438 0.9219
vt 0.3438 0.9063
vt 0.3438 1
vt 0.3438 0.9375
vt 0.25 0.9375
vt 0.25 1
vt 0.25 0.9688
vt 0.1875 0.9688
vt 0.1875 0.875
vt 0.25 0.875
vt 0.0938 0.9844
vt 0.0938 1
vt 0 1
vt 0 0.9844
vt 0.4219 0.875
vt 0.4219 1
vt 0.2969 1
vt 0.2969 0.875
vt 0.3438 0.9688
vt 0.3438 0.9844
vt 0.2188 0.9844
vt 0.2188 0.9688
vt 0.1875 0.7813
vt 0.1875 0.9063
vt 0 0.9063
vt 0 0.7813
vt 0.1875 0.9063
vt 0.1875 0.7813
vt 0 0.7813
vt 0 0.9063
vt 0.1875 0.9063
vt 0 0.9063
vt 0 0.7813
vt 0.1875 0.7813
vt 0.1875 0.7813
vt 0 0.7813
vt 0 0.9063
vt 0.1875 0.9063
vt 0.5781 1
vt 0.5781 0.875
vt 0.4531 0.875
vt 0.4531 1
vt 0.375 0.8594
vt 0.375 1
vt 0.1875 1
vt 0.1875 0.8594
vt 0.375 1
vt 0.375 0.8594
vt 0.1875 0.8594
vt 0.1875 1
vt 0.4297 1
vt 0.2422 1
vt 0.2422 0.9844
vt 0.4297 0.9844
vt 0.3906 0.8594
vt 0.3906 1
vt 0.375 1
vt 0.375 0.8594
vt 0.2031 0.8594
vt 0.2031 1
vt 0.1875 1
vt 0.1875 0.8594
vt 0.1875 1
vt 0.1875 0.8594
vt 0.375 0.8594
vt 0.375 1
vt 0.375 0.8594
vt 0.375 1
vt 0.1875 1
vt 0.1875 0.8594
vt 0.4297 1
vt 0.2422 1
vt 0.2422 0.9844
vt 0.4297 0.9844
vt 0.3906 0.8594
vt 0.3906 1
vt 0.375 1
vt 0.375 0.8594
vt 0.2031 0.8594
vt 0.2031 1
vt 0.1875 1
vt 0.1875 0.8594
vt 0.7344 0.2188
vt 0.7344 0.2656
vt 0.6875 0.2656
vt 0.6875 0.2188
vt 0.7031 0.2656
vt 0.7031 0.2188
vt 0.6875 0.2188
vt 0.6875 0.2656
vt 0.7344 0.2344
vt 0.6875 0.2344
vt 0.6875 0.2188
vt 0.7344 0.2188
vt 0.7031 0.2188
vt 0.7031 0.2656
vt 0.6875 0.2656
vt 0.6875 0.2188
vt 0.7344 0.2188
vt 0.7344 0.2656
vt 0.7188 0.2656
vt 0.7188 0.2188
vt 0.4219 1
vt 0.2969 1
vt 0.2969 0.9844
vt 0.4219 0.9844
vt 0.25 0.9844
vt 0.375 0.9844
vt 0.375 1
vt 0.25 1
vt 0.5781 0.9375
vt 0.7031 0.9375
vt 0.7031 0.9688
vt 0.5781 0.9688
vt 0.8281 0.9688
vt 0.7031 0.9688
vt 0.7031 0.9375
vt 0.8281 0.9375
vt 0.8281 0.9375
vt 0.8281 0.9688
vt 0.75 0.9688
vt 0.75 0.9375
vt 0.7813 0.9375
vt 0.7813 0.9688
vt 0.7031 0.9688
vt 0.7031 0.9375
vt 0.5938 0.9375
vt 0.7031 0.9375
vt 0.7031 0.9688
vt 0.5938 0.9688
vt 0.8125 0.9688
vt 0.7031 0.9688
vt 0.7031 0.9375
vt 0.8125 0.9375
vt 0.8281 1
vt 0.8281 0.9688
vt 0.5938 0.9688
vt 0.5938 1
vt 0.8281 1
vt 0.5938 1
vt 0.5938 0.9531
vt 0.8281 0.9531
vt 0.8281 0.9688
vt 0.8125 1
vt 0.7656 1
vt 0.75 0.9688
vt 0.7969 1
vt 0.7813 0.9688
vt 0.7344 0.9688
vt 0.7188 1
vt 0.2969 0.9844
vt 0.2969 1
vt 0.375 1
vt 0.375 0.9844
vt 0.8281 1
vt 0.8281 0.9688
vt 0.5938 0.9688
vt 0.5938 1
vn 1 0 0
vn -1 0 0
vn 0 1 0
vn 0 -1 0
vn 0 0 1
vn 0 0 -1
vn 1 0 0
vn -1 0 0
vn 0 1 0
vn 0 -1 0
vn 0 0 1
vn 1 0 0
vn -1 0 0
vn 0 1 0
vn 0 -1 0
vn 0 0 -1
vn 0 -1 0
vn 0 0 1
vn 1 0 0
vn -1 0 0
vn 0 1 0
vn 0 -1 0
vn 0 0 -1
vn 1 0 0
vn -1 0 0
vn 0 -1 0
vn 0 0 1
vn 0 0 -1
vn 1 0 0
vn -1 0 0
vn 0 -1 0
vn 0 0 1
vn 0 0 -1
vn 1 0 0
vn 0 1 0
vn 0 -1 0
vn 0 0 1
vn 0 0 -1
vn 1 0 0
vn -1 0 0
vn 1 0 0
vn -1 0 0
vn 0 0 1
vn 0 0 -1
vn -1 0 0
vn 1 0 0
vn 0.89 0.45 0
vn 0 1 0
vn 0 0 1
vn 0 0 -1
vn 0 0 -1
vn -0.89 0.45 0
usemtl weapon_light_howitzer
f 637/1509/378 635/1510/378 634/1511/378
f 637/1509/378 634/1511/378 636/1512/378
f 640/1513/379 638/1514/379 639/1515/379
f 640/1513/379 639/1515/379 641/1516/379
f 634/1517/380 635/1518/380 639/1519/380
f 634/1517/380 639/1519/380 638/1520/380
f 637/1521/381 636/1522/381 640/1523/381
f 637/1521/381 640/1523/381 641/1524/381
f 636/1525/382 634/1526/382 638/1527/382
f 636/1525/382 638/1527/382 640/1528/382
f 641/1529/383 639/1530/383 635/1531/383
f 641/1529/383 635/1531/383 637/1532/383
f 645/1533/384 643/1534/384 642/1535/384
f 645/1533/384 642/1535/384 644/1536/384
f 648/1537/385 646/1538/385 647/1539/385
f 648/1537/385 647/1539/385 649/1540/385
f 642/1541/386 643/1542/386 647/1543/386
f 642/1541/386 647/1543/386 646/1544/386
f 645/1545/387 644/1546/387 648/1547/387
f 645/1545/387 648/1547/387 649/1548/387
f 644/1549/388 642/1550/388 646/1551/388
f 644/1549/388 646/1551/388 648/1552/388
f 653/1553/389 651/1554/389 650/1555/389
f 653/1553/389 650/1555/389 652/1556/389
f 656/1557/390 654/1558/390 655/1559/390
f 656/1557/390 655/1559/390 657/1560/390
f 650/1561/391 651/1562/391 655/1563/391
f 650/1561/391 655/1563/391 654/1564/391
f 653/1565/392 652/1566/392 656/1567/392
f 653/1565/392 656/1567/392 657/1568/392
f 657/1569/393 655/1570/393 651/1571/393
f 657/1569/393 651/1571/393 653/1572/393
f 660/1573/394 659/1574/394 662/1575/394
f 660/1573/394 662/1575/394 663/1576/394
f 659/1577/395 658/1578/395 661/1579/395
f 659/1577/395 661/1579/395 662/1580/395
f 667/1581/396 665/1582/396 664/1583/396
f 667/1581/396 664/1583/396 666/1584/396
f 670/1585/397 668/1586/397 669/1587/397
f 670/1585/397 669/1587/397 671/1588/397
f 664/1589/398 665/1590/398 669/1591/398
f 664/1589/398 669/1591/398 668/1592/398
f 667/1593/399 666/1594/399 670/1595/399
f 667/1593/399 670/1595/399 671/1596/399
f 671/1597/400 669/1598/400 665/1599/400
f 671/1597/400 665/1599/400 667/1600/400
f 675/1601/401 673/1602/401 672/1603/401
f 675/1601/401 672/1603/401 674/1604/401
f 678/1605/402 676/1606/402 677/1607/402
f 678/1605/402 677/1607/402 679/1608/402
f 675/1609/403 674/1610/403 678/1611/403
f 675/1609/403 678/1611/403 679/1612/403
f 674/1613/404 672/1614/404 676/1615/404
f 674/1613/404 676/1615/404 678/1616/404
f 679/1617/405 677/1618/405 673/1619/405
f 679/1617/405 673/1619/405 675/1620/405
f 683/1621/406 681/1622/406 680/1623/406
f 683/1621/406 680/1623/406 682/1624/406
f 686/1625/407 684/1626/407 685/1627/407
f 686/1625/407 685/1627/407 687/1628/407
f 683/1629/408 682/1630/408 686/1631/408
f 683/1629/408 686/1631/408 687/1632/408
f 682/1633/409 680/1634/409 684/1635/409
f 682/1633/409 684/1635/409 686/1636/409
f 687/1637/410 685/1638/410 681/1639/410
f 687/1637/410 681/1639/410 683/1640/410
usemtl common_thingies
f 691/1641/411 689/1642/411 688/1643/411
f 691/1641/411 688/1643/411 690/1644/411
f 688/1645/412 689/1646/412 693/1647/412
f 688/1645/412 693/1647/412 692/1648/412
f 691/1649/413 690/1650/413 694/1651/413
f 691/1649/413 694/1651/413 695/1652/413
f 690/1653/414 688/1654/414 692/1655/414
f 690/1653/414 692/1655/414 694/1656/414
f 695/1657/415 693/1658/415 689/1659/415
f 695/1657/415 689/1659/415 691/1660/415
usemtl weapon_light_howitzer
f 696/1661/416 700/1662/416 703/1663/416
f 696/1661/416 703/1663/416 697/1664/416
f 699/1665/417 702/1666/417 701/1667/417
f 699/1665/417 701/1667/417 698/1668/417
f 706/1669/418 712/1670/418 715/1671/418
f 706/1669/418 715/1671/418 704/1672/418
f 708/1673/419 714/1674/419 713/1675/419
f 708/1673/419 713/1675/419 710/1676/419
f 706/1677/420 704/1678/420 708/1679/420
f 706/1677/420 708/1679/420 710/1680/420
f 711/1681/421 709/1682/421 705/1683/421
f 711/1681/421 705/1683/421 707/1684/421
f 711/1685/422 713/1686/422 714/1687/422
f 711/1685/422 714/1687/422 709/1688/422
f 705/1689/423 715/1690/423 712/1691/423
f 705/1689/423 712/1691/423 707/1692/423
f 719/1693/424 717/1694/424 716/1695/424
f 719/1693/424 716/1695/424 718/1696/424
f 716/1697/425 717/1698/425 721/1699/425
f 716/1697/425 721/1699/425 720/1700/425
f 718/1701/426 716/1702/426 720/1703/426
f 718/1701/426 720/1703/426 722/1704/426
f 723/1705/427 721/1706/427 717/1707/427
f 723/1705/427 717/1707/427 719/1708/427
f 699/1709/428 698/1710/428 696/1711/428
f 699/1709/428 696/1711/428 697/1712/428
f 722/1713/429 720/1714/429 721/1715/429
f 722/1713/429 721/1715/429 723/1716/429
o gun_block
v 0.75 -0.8125 1.6875
v 0.75 -0.8125 1.5625
v 0.375 -0.8125 1.6875
v 0.375 -0.8125 1.5625
v 0.875 -1 1.6875
v 0.875 -1 1.5625
v 0.875 -1.6875 1.6875
v 0.875 -1.6875 1.5625
v 0.25 -1 1.6875
v 0.25 -1 1.5625
v 0.25 -1.6875 1.6875
v 0.25 -1.6875 1.5625
v 0.75 -1.1875 1.75
v 0.75 -1.1875 1.6875
v 0.75 -1.5625 1.75
v 0.75 -1.5625 1.6875
v 0.375 -1.1875 1.75
v 0.375 -1.1875 1.6875
v 0.375 -1.5625 1.75
v 0.375 -1.5625 1.6875
v 0.375 -1.1875 1.5625
v 0.375 -1.1875 0.8125
v 0.375 -1.6875 1.5625
v 0.375 -1.6875 0.8125
v 0.3125 -1.1875 1.5625
v 0.3125 -1.1875 0.8125
v 0.3125 -1.6875 1.5625
v 0.3125 -1.6875 0.8125
v 0.75 -1.1875 1.5625
v 0.75 -1.1875 0.8125
v 0.75 -1.25 1.5625
v 0.75 -1.25 0.8125
v 0.375 -1.1875 1.5625
v 0.375 -1.1875 0.8125
v 0.375 -1.25 1.5625
v 0.375 -1.25 0.8125
v 0.8125 -1.1875 1.5625
v 0.8125 -1.1875 0.8125
v 0.8125 -1.25 1.5625
v 0.8125 -1.25 0.8125
v 0.75 -1.1875 1.5625
v 0.75 -1.1875 0.8125
v 0.75 -1.25 1.5625
v 0.75 -1.25 0.8125
v 0.8125 -1.625 1.5625
v 0.8125 -1.625 0.8125
v 0.8125 -1.6875 1.5625
v 0.8125 -1.6875 0.8125
v 0.75 -1.625 1.5625
v 0.75 -1.625 0.8125
v 0.75 -1.6875 1.5625
v 0.75 -1.6875 0.8125
v 0.625 -0.9375 1.75
v 0.625 -0.9375 0.5625
v 0.625 -1.0625 1.75
v 0.625 -1.0625 0.5625
v 0.5 -0.9375 1.75
v 0.5 -0.9375 0.5625
v 0.5 -1.0625 1.75
v 0.5 -1.0625 0.5625
v 0.3125 -1.4375 1.5625
v 0.3125 -1.4375 0.8125
v 0.375 -1.4375 0.8125
v 0.375 -1.4375 1.5625
v 0.5625 -1 1.6875
v 0.5625 -1.6875 1.6875
v 0.5625 -1.6875 1.5625
v 0.5625 -1 1.5625
v 0.5625 -0.8125 1.6875
v 0.5625 -0.8125 1.5625
vt 0.9063 0.9124
vt 0.9063 0.9688
vt 0.9375 0.9688
vt 0.9375 0.9124
vt 0.9375 0.9688
vt 0.9375 0.9124
vt 0.9063 0.9124
vt 0.9063 0.9688
vt 0.8906 0.9531
vt 0.8438 0.9531
vt 0.8438 0.9219
vt 0.8906 0.9219
vt 0.375 1
vt 0.1875 1
vt 0.1875 0.625
vt 0.375 0.625
vt 0.7656 1
vt 0.7656 0.9219
vt 0.8125 0.9219
vt 0.8125 1
vt 0.9531 1
vt 0.9531 0.9219
vt 1 0.9219
vt 1 1
vt 0.7969 0.9531
vt 0.9688 0.9531
vt 0.9688 0.9219
vt 0.7969 0.9219
vt 0.9688 0.2813
vt 0.7969 0.2813
vt 0.7969 0.3125
vt 0.9688 0.3125
vt 0.7969 0.9531
vt 0.875 0.9531
vt 0.875 0.9219
vt 0.7969 0.9219
vt 1 0.25
vt 1 0.3281
vt 0.8281 0.3281
vt 0.8281 0.25
vt 0.8281 1
vt 0.8281 0.9219
vt 1 0.9219
vt 1 1
vt 0 0.7813
vt 0 0.6875
vt 0.0156 0.6875
vt 0.0156 0.7813
vt 0.0781 0.7813
vt 0.0781 0.6875
vt 0.0938 0.6875
vt 0.0938 0.7813
vt 0 0.7031
vt 0 0.6875
vt 0.0938 0.6875
vt 0.0938 0.7031
vt 0 0.7656
vt 0 0.7813
vt 0.0938 0.7813
vt 0.0938 0.7656
vt 0 0.7813
vt 0 0.6875
vt 0.0938 0.6875
vt 0.0938 0.7813
vt 1 0.8125
vt 0.9375 0.8125
vt 0.9375 1
vt 1 1
vt 0.75 1
vt 0.75 0.9375
vt 0.9375 0.9375
vt 0.9375 1
vt 1 0.8125
vt 1 1
vt 0.9844 1
vt 0.9844 0.8125
vt 0.0156 1
vt 0.0156 0.8125
vt 0 0.8125
vt 0 1
vt 0 1
vt 0 0.9375
vt 0.0156 0.9375
vt 0.0156 1
vt 0.9375 0.8906
vt 0.75 0.8906
vt 0.75 0.9844
vt 0.9375 0.9844
vt 0.9844 1
vt 0.9844 0.8125
vt 0.8906 0.8125
vt 0.8906 1
vt 0.6719 0.9844
vt 0.6719 1
vt 0.5781 1
vt 0.5781 0.9844
vt 0.6875 0.9844
vt 0.6875 1
vt 0.5 1
vt 0.5 0.9844
vt 1 0.8125
vt 1 1
vt 0.9844 1
vt 0.9844 0.8125
vt 1 0.8125
vt 1 1
vt 0.9844 1
vt 0.9844 0.8125
vt 0.75 0.5781
vt 0.75 0.5938
vt 0.7344 0.5938
vt 0.7344 0.5781
vt 1 0.25
vt 1 0.2656
vt 0.8125 0.2656
vt 0.8125 0.25
vt 0.1875 0.9844
vt 0.1875 1
vt 0 1
vt 0 0.9844
vt 0.0156 0.8125
vt 0.0156 1
vt 0 1
vt 0 0.8125
vt 0.0156 1
vt 0.0156 0.8125
vt 0 0.8125
vt 0 1
vt 0.2969 0.625
vt 0.2969 0.6563
vt 0 0.6563
vt 0 0.625
vt 0.2969 0.6563
vt 0.2969 0.625
vt 0 0.625
vt 0 0.6563
vt 0 0.6563
vt 0.2969 0.6563
vt 0.2969 0.625
vt 0 0.625
vt 0 0.625
vt 0.2969 0.625
vt 0.2969 0.6563
vt 0 0.6563
vt 0.125 0.5938
vt 0.125 0.625
vt 0.1563 0.625
vt 0.1563 0.5938
vt 0.1563 0.5938
vt 0.1563 0.625
vt 0.125 0.625
vt 0.125 0.5938
vt 0.9375 1
vt 0.9375 0.9375
vt 0.75 0.9375
vt 0.75 1
vt 0.0156 0.875
vt 0.0156 0.9375
vt 0 0.9375
vt 0 0.875
vt 1 1
vt 0.9375 1
vt 0.9375 0.8125
vt 1 0.8125
vt 0.8281 1
vt 0.8281 0.9219
vt 1 0.9219
vt 1 1
vt 0.9531 0.9219
vt 0.875 0.9219
vt 0.875 0.9531
vt 0.9531 0.9531
vt 1 0.25
vt 1 0.3281
vt 0.8281 0.3281
vt 0.8281 0.25
vt 0 0.625
vt 0.1875 0.625
vt 0.1875 1
vt 0 1
vt 0.7969 0.25
vt 0.7969 0.3281
vt 0.75 0.3281
vt 0.75 0.25
vt 0.8906 0.9219
vt 0.9375 0.9219
vt 0.9375 0.9531
vt 0.8906 0.9531
vt 1 0.25
vt 1 0.3281
vt 0.9531 0.3281
vt 0.9531 0.25
vn 0.83 0.55 0
vn -0.83 0.55 0
vn 0 1 0
vn 0 -1 0
vn 0 0 1
vn 0 0 -1
vn 1 0 0
vn -1 0 0
vn 0 -1 0
vn 0 0 1
vn 0 0 -1
vn 1 0 0
vn -1 0 0
vn 0 1 0
vn 0 -1 0
vn 0 0 1
vn 1 0 0
vn -1 0 0
vn 0 1 0
vn 0 -1 0
vn 0 0 -1
vn 0 1 0
vn 0 -1 0
vn 0 0 -1
vn 1 0 0
vn 0 1 0
vn 0 -1 0
vn 0 0 -1
vn 1 0 0
vn -1 0 0
vn 0 1 0
vn 0 -1 0
vn 1 0 0
vn -1 0 0
vn 0 1 0
vn 0 -1 0
vn 0 0 1
vn 0 0 -1
vn -1 0 0
vn 0 0 -1
vn 1 0 0
vn 0 0 1
vn 0 -1 0
vn 0 0 -1
vn 0 -1 0
vn 0 0 1
vn 0 1 0
vn 0 0 -1
usemtl common_rough_steel
f 729/1717/430 725/1718/430 724/1719/430
f 729/1717/430 724/1719/430 728/1720/430
f 732/1721/431 726/1722/431 727/1723/431
f 732/1721/431 727/1723/431 733/1724/431
f 725/1725/432 793/1726/432 792/1727/432
f 725/1725/432 792/1727/432 724/1728/432
usemtl common_steel_norivets
f 728/1729/433 788/1730/433 791/1731/433
f 728/1729/433 791/1731/433 729/1732/433
usemtl common_rough_steel
f 724/1733/434 792/1734/434 788/1735/434
f 724/1733/434 788/1735/434 728/1736/434
f 729/1737/435 791/1738/435 793/1739/435
f 729/1737/435 793/1739/435 725/1740/435
f 731/1741/436 729/1742/436 728/1743/436
f 731/1741/436 728/1743/436 730/1744/436
f 734/1745/437 732/1746/437 733/1747/437
f 734/1745/437 733/1747/437 735/1748/437
f 735/1749/438 790/1750/438 789/1751/438
f 735/1749/438 789/1751/438 734/1752/438
f 734/1753/439 789/1754/439 788/1755/439
f 734/1753/439 788/1755/439 732/1756/439
f 733/1757/440 791/1758/440 790/1759/440
f 733/1757/440 790/1759/440 735/1760/440
usemtl weapon_light_howitzer
f 739/1761/441 737/1762/441 736/1763/441
f 739/1761/441 736/1763/441 738/1764/441
f 742/1765/442 740/1766/442 741/1767/442
f 742/1765/442 741/1767/442 743/1768/442
f 736/1769/443 737/1770/443 741/1771/443
f 736/1769/443 741/1771/443 740/1772/443
f 739/1773/444 738/1774/444 742/1775/444
f 739/1773/444 742/1775/444 743/1776/444
f 738/1777/445 736/1778/445 740/1779/445
f 738/1777/445 740/1779/445 742/1780/445
usemtl common_rough_steel
f 744/1781/446 787/1782/446 786/1783/446
f 744/1781/446 786/1783/446 745/1784/446
f 749/1785/447 785/1786/447 784/1787/447
f 749/1785/447 784/1787/447 748/1788/447
f 744/1789/448 745/1790/448 749/1791/448
f 744/1789/448 749/1791/448 748/1792/448
f 747/1793/449 746/1794/449 750/1795/449
f 747/1793/449 750/1795/449 751/1796/449
f 745/1797/450 786/1798/450 785/1799/450
f 745/1797/450 785/1799/450 749/1800/450
f 752/1801/451 753/1802/451 757/1803/451
f 752/1801/451 757/1803/451 756/1804/451
f 755/1805/452 754/1806/452 758/1807/452
f 755/1805/452 758/1807/452 759/1808/452
f 759/1809/453 757/1810/453 753/1811/453
f 759/1809/453 753/1811/453 755/1812/453
f 763/1813/454 761/1814/454 760/1815/454
f 763/1813/454 760/1815/454 762/1816/454
f 760/1817/455 761/1818/455 765/1819/455
f 760/1817/455 765/1819/455 764/1820/455
f 763/1821/456 762/1822/456 766/1823/456
f 763/1821/456 766/1823/456 767/1824/456
f 767/1825/457 765/1826/457 761/1827/457
f 767/1825/457 761/1827/457 763/1828/457
f 771/1829/458 769/1830/458 768/1831/458
f 771/1829/458 768/1831/458 770/1832/458
f 774/1833/459 772/1834/459 773/1835/459
f 774/1833/459 773/1835/459 775/1836/459
f 768/1837/460 769/1838/460 773/1839/460
f 768/1837/460 773/1839/460 772/1840/460
f 771/1841/461 770/1842/461 774/1843/461
f 771/1841/461 774/1843/461 775/1844/461
usemtl weapon_light_howitzer
f 779/1845/462 777/1846/462 776/1847/462
f 779/1845/462 776/1847/462 778/1848/462
f 782/1849/463 780/1850/463 781/1851/463
f 782/1849/463 781/1851/463 783/1852/463
f 776/1853/464 777/1854/464 781/1855/464
f 776/1853/464 781/1855/464 780/1856/464
f 779/1857/465 778/1858/465 782/1859/465
f 779/1857/465 782/1859/465 783/1860/465
f 778/1861/466 776/1862/466 780/1863/466
f 778/1861/466 780/1863/466 782/1864/466
f 783/1865/467 781/1866/467 777/1867/467
f 783/1865/467 777/1867/467 779/1868/467
usemtl common_rough_steel
f 750/1869/468 784/1870/468 785/1871/468
f 750/1869/468 785/1871/468 751/1872/468
f 751/1873/469 785/1874/469 786/1875/469
f 751/1873/469 786/1875/469 747/1876/469
f 747/1877/470 786/1878/470 787/1879/470
f 747/1877/470 787/1879/470 746/1880/470
f 728/1881/471 788/1882/471 789/1883/471
f 728/1881/471 789/1883/471 730/1884/471
f 730/1885/472 789/1886/472 790/1887/472
f 730/1885/472 790/1887/472 731/1888/472
f 731/1889/473 790/1890/473 791/1891/473
f 731/1889/473 791/1891/473 729/1892/473
usemtl common_steel_norivets
f 733/1893/474 791/1894/474 788/1895/474
f 733/1893/474 788/1895/474 732/1896/474
usemtl common_rough_steel
f 732/1897/475 788/1898/475 792/1899/475
f 732/1897/475 792/1899/475 726/1900/475
f 726/1901/476 792/1902/476 793/1903/476
f 726/1901/476 793/1903/476 727/1904/476
f 727/1905/477 793/1906/477 791/1907/477
f 727/1905/477 791/1907/477 733/1908/477
o barrel_end
v 0.75 -1.1875 0.1875
v 0.75 -1.1875 -0.5625
v 0.75 -1.5625 0.1875
v 0.75 -1.5625 -0.5625
v 0.375 -1.1875 0.1875
v 0.375 -1.1875 -0.5625
v 0.375 -1.5625 0.1875
v 0.375 -1.5625 -0.5625
v 0.4375 -1.25 -0.5625
v 0.6875 -1.25 -0.5625
v 0.4375 -1.5 -0.5625
v 0.6875 -1.5 -0.5625
v 0.4375 -1.25 -0.0625
v 0.6875 -1.25 -0.0625
v 0.4375 -1.5 -0.0625
v 0.6875 -1.5 -0.0625
vt 0.1875 0.9063
vt 0.1875 1
vt 0 1
vt 0 0.9063
vt 0 1
vt 0 0.9063
vt 0.1875 0.9063
vt 0.1875 1
vt 0 1
vt 0.1875 1
vt 0.1875 0.9063
vt 0 0.9063
vt 0.1875 0.9063
vt 0 0.9063
vt 0 1
vt 0.1875 1
vt 0.5469 0.9063
vt 0.5469 0.9688
vt 0.4844 0.9688
vt 0.4844 0.9063
vt 0.1719 0.9219
vt 0.1719 0.9844
vt 0.1875 1
vt 0.1875 0.9063
vt 0.1875 0.9844
vt 0.1875 0.9219
vt 0.1719 0.9063
vt 0.1719 1
vt 0.1875 0.9219
vt 0.1875 0.9844
vt 0.1719 1
vt 0.1719 0.9063
vt 0.1719 0.9844
vt 0.1719 0.9219
vt 0.1875 0.9063
vt 0.1875 1
vt 0.125 0.5313
vt 0.125 0.5938
vt 0.25 0.5938
vt 0.25 0.5313
vt 0.125 0.5938
vt 0.125 0.5313
vt 0.25 0.5313
vt 0.25 0.5938
vt 0.125 0.5313
vt 0.125 0.5938
vt 0.25 0.5938
vt 0.25 0.5313
vt 0.125 0.5938
vt 0.125 0.5313
vt 0.25 0.5313
vt 0.25 0.5938
vn 1 0 0
vn -1 0 0
vn 0 1 0
vn 0 -1 0
vn 0 0 -1
vn 0 0 -1
vn 0 0 -1
vn 0 0 -1
vn 0 0 -1
vn 1 0 0
vn 0 -1 0
vn -1 0 0
vn 0 1 0
usemtl weapon_light_howitzer
f 797/1909/478 795/1910/478 794/1911/478
f 797/1909/478 794/1911/478 796/1912/478
f 800/1913/479 798/1914/479 799/1915/479
f 800/1913/479 799/1915/479 801/1916/479
f 794/1917/480 795/1918/480 799/1919/480
f 794/1917/480 799/1919/480 798/1920/480
f 797/1921/481 796/1922/481 800/1923/481
f 797/1921/481 800/1923/481 801/1924/481
f 808/1925/482 806/1926/482 807/1927/482
f 808/1925/482 807/1927/482 809/1928/482
f 802/1929/483 804/1930/483 801/1931/483
f 802/1929/483 801/1931/483 799/1932/483
f 803/1933/484 802/1934/484 799/1935/484
f 803/1933/484 799/1935/484 795/1936/484
f 805/1937/485 803/1938/485 795/1939/485
f 805/1937/485 795/1939/485 797/1940/485
f 804/1941/486 805/1942/486 797/1943/486
f 804/1941/486 797/1943/486 801/1944/486
f 806/1945/487 808/1946/487 804/1947/487
f 806/1945/487 804/1947/487 802/1948/487
f 807/1949/488 806/1950/488 802/1951/488
f 807/1949/488 802/1951/488 803/1952/488
f 809/1953/489 807/1954/489 803/1955/489
f 809/1953/489 803/1955/489 805/1956/489
f 808/1957/490 809/1958/490 805/1959/490
f 808/1957/490 805/1959/490 804/1960/490