# Made by Pabilo8 with Blockbench
# Exported with IIToolkit Plugin
mtllib variants.mtl


o style
v 1.375 -2.1875 0.75
v 1.375 -2.1875 0.625
v 1.5 -2.75 0.625
v 1.5 -2.75 0.5
v -0.25 -2.1875 0.75
v -0.25 -2.1875 0.625
v -0.375 -2.75 0.625
v -0.375 -2.75 0.5
v 1.375 -2.1875 2.1875
v 1.375 -2.1875 2.3125
v 1.5 -2.75 2.3125
v 1.5 -2.75 2.4375
v -0.25 -2.1875 2.1875
v -0.25 -2.1875 2.3125
v -0.375 -2.75 2.3125
v -0.375 -2.75 2.4375
v 1.25 -2.1875 0.75
v 1.25 -2.1875 2.1875
v 1.375 -2.75 0.625
v 1.375 -2.75 2.3125
v 1.375 -2.1875 0.75
v 1.375 -2.1875 2.1875
v 1.5 -2.75 0.625
v 1.5 -2.75 2.3125
v -0.125 -2.1875 0.75
v -0.125 -2.1875 2.1875
v -0.25 -2.75 0.625
v -0.25 -2.75 2.3125
v -0.25 -2.1875 0.75
v -0.25 -2.1875 2.1875
v -0.375 -2.75 0.625
v -0.375 -2.75 2.3125
v 1.25 -2 0.75
v 1.25 -2 0.5625
v 1.25 -2.1875 0.75
v 1.25 -2.1875 0.5625
v -0.125 -2 0.75
v -0.125 -2 0.5625
v -0.125 -2.1875 0.75
v -0.125 -2.1875 0.5625
v 1.25 -2 2.375
v 1.25 -2 2.1875
v 1.25 -2.1875 2.375
v 1.25 -2.1875 2.1875
v -0.125 -2 2.375
v -0.125 -2 2.1875
v -0.125 -2.1875 2.375
v -0.125 -2.1875 2.1875
v 1.4375 -2 2.375
v 1.4375 -2 0.5625
v 1.4375 -2.1875 2.375
v 1.4375 -2.1875 0.5625
v 1.25 -2 2.375
v 1.25 -2 0.5625
v 1.25 -2.1875 2.375
v 1.25 -2.1875 0.5625
v -0.125 -2 2.375
v -0.125 -2 0.5625
v -0.125 -2.1875 2.375
v -0.125 -2.1875 0.5625
v -0.3125 -2 2.375
v -0.3125 -2 0.5625
v -0.3125 -2.1875 2.375
v -0.3125 -2.1875 0.5625
v 0.125 -2.1875 0.625
v 0.125 -2.1875 0.5625
v 0.125 -2.75 0.5
v 0.125 -2.75 0.4375
v -0.125 -2.1875 0.625
v -0.125 -2.1875 0.5625
v -0.125 -2.75 0.5
v -0.125 -2.75 0.4375
v 1.25 -2.1875 0.625
v 1.25 -2.1875 0.5625
v 1.25 -2.75 0.5
v 1.25 -2.75 0.4375
v 1 -2.1875 0.625
v 1 -2.1875 0.5625
v 1 -2.75 0.5
v 1 -2.75 0.4375
v 0.125 -2.1875 2.3125
v 0.125 -2.1875 2.375
v 0.125 -2.75 2.4375
v 0.125 -2.75 2.5
v -0.125 -2.1875 2.3125
v -0.125 -2.1875 2.375
v -0.125 -2.75 2.4375
v -0.125 -2.75 2.5
v 0.6875 -2.1875 2.3125
v 0.6875 -2.1875 2.375
v 0.6875 -2.75 2.4375
v 0.6875 -2.75 2.5
v 0.4375 -2.1875 2.3125
v 0.4375 -2.1875 2.375
v 0.4375 -2.75 2.4375
v 0.4375 -2.75 2.5
v 1.25 -2.1875 2.3125
v 1.25 -2.1875 2.375
v 1.25 -2.75 2.4375
v 1.25 -2.75 2.5
v 1 -2.1875 2.3125
v 1 -2.1875 2.375
v 1 -2.75 2.4375
v 1 -2.75 2.5
v -0.25 -2.1875 0.75
v -0.3125 -2.1875 0.75
v -0.375 -2.75 0.75
v -0.4375 -2.75 0.75
v -0.25 -2.1875 1
v -0.3125 -2.1875 1
v -0.375 -2.75 1
v -0.4375 -2.75 1
v -0.25 -2.1875 1.3125
v -0.3125 -2.1875 1.3125
v -0.375 -2.75 1.3125
v -0.4375 -2.75 1.3125
v -0.25 -2.1875 1.5625
v -0.3125 -2.1875 1.5625
v -0.375 -2.75 1.5625
v -0.4375 -2.75 1.5625
v -0.25 -2.1875 1.875
v -0.3125 -2.1875 1.875
v -0.375 -2.75 1.875
v -0.4375 -2.75 1.875
v -0.25 -2.1875 2.125
v -0.3125 -2.1875 2.125
v -0.375 -2.75 2.125
v -0.4375 -2.75 2.125
v 1.375 -2.1875 1.875
v 1.4375 -2.1875 1.875
v 1.5 -2.75 1.875
v 1.5625 -2.75 1.875
v 1.375 -2.1875 2.125
v 1.4375 -2.1875 2.125
v 1.5 -2.75 2.125
v 1.5625 -2.75 2.125
v 1.375 -2.1875 1.3125
v 1.4375 -2.1875 1.3125
v 1.5 -2.75 1.3125
v 1.5625 -2.75 1.3125
v 1.375 -2.1875 1.5625
v 1.4375 -2.1875 1.5625
v 1.5 -2.75 1.5625
v 1.5625 -2.75 1.5625
v 1.375 -2.1875 0.75
v 1.4375 -2.1875 0.75
v 1.5 -2.75 0.75
v 1.5625 -2.75 0.75
v 1.375 -2.1875 1
v 1.4375 -2.1875 1
v 1.5 -2.75 1
v 1.5625 -2.75 1
v 0.6875 -2.1875 0.625
v 0.6875 -2.1875 0.5625
v 0.6875 -2.75 0.5
v 0.6875 -2.75 0.4375
v 0.4375 -2.1875 0.625
v 0.4375 -2.1875 0.5625
v 0.4375 -2.75 0.5
v 0.4375 -2.75 0.4375
v 1.426118125 -2.37723 0.5803906249999999
v 1.426118125 -2.3637025 0.5193725
v 1.44246 -2.559589375 0.5399631250000001
v 1.44246 -2.546061875 0.478944375
v -0.31722249999999996 -2.5261375 0.54737875
v -0.31722249999999996 -2.51261 0.4863606250000001
v -0.300880625 -2.70849625 0.50695125
v -0.300880625 -2.69496875 0.44593250000000006
v 1.440605 -2.538566875 2.4067325
v 1.440605 -2.525039375 2.467750625
v 1.40804625 -2.71884125 2.446698125
v 1.40804625 -2.70531375 2.507716875
v -0.28280812499999997 -2.241885625 2.34096
v -0.28280812499999997 -2.2283581249999997 2.401978125
v -0.3153675 -2.42216 2.380925625
v -0.3153675 -2.4086325 2.441944375
v 1.4059375 -2.1931575 0.571733125
v 1.46695625 -2.17963 0.571733125
v 1.446365625 -2.37551625 0.55539125
v 1.507384375 -2.361989375 0.55539125
v 1.438949375 -2.342065 2.31507375
v 1.499968125 -2.3285375 2.31507375
v 1.4793775 -2.52442375 2.2987325
v 1.54039625 -2.51089625 2.2987325
v -0.313949375 -2.404565 0.55539125
v -0.374968125 -2.3910375 0.55539125
v -0.3543775 -2.58692375 0.571733125
v -0.41539625 -2.57339625 0.571733125
v -0.28093749999999995 -2.2556575 2.2987325
v -0.34195624999999996 -2.24213 2.2987325
v -0.321365625 -2.43801625 2.31507375
v -0.382384375 -2.424489375 2.31507375
vt 0.265625 0.59375
vt 0.296875 0.734375
vt 0.328125 0.734375
vt 0.296875 0.59375
vt 0.28125 0.59375
vt 0.3125 0.734375
vt 0.28125 0.734375
vt 0.25 0.59375
vt 0.59375 0.59375
vt 0.5625 0.734375
vt 0.15625 0.734375
vt 0.125 0.59375
vt 0 0.59375
vt 0.03125 0.734375
vt 0.4375 0.734375
vt 0.46875 0.59375
vt 0.6875 0.734375
vt 0.71875 0.734375
vt 0.75 0.59375
vt 0.71875 0.59375
vt 0.703125 0.734375
vt 0.671875 0.734375
vt 0.703125 0.59375
vt 0.734375 0.59375
vt 0.15625 0.734375
vt 0.5625 0.734375
vt 0.59375 0.59375
vt 0.125 0.59375
vt 0.4375 0.734375
vt 0.03125 0.734375
vt 0 0.59375
vt 0.46875 0.59375
vt 0.59375 0.59375
vt 0.5625 0.734375
vt 0.203125 0.734375
vt 0.171875 0.59375
vt 0.296875 0.59375
vt 0.328125 0.734375
vt 0.6875 0.734375
vt 0.71875 0.59375
vt 0.203125 0.75
vt 0.5625 0.75
vt 0.59375 0.609375
vt 0.171875 0.609375
vt 0.671875 0.734375
vt 0.3125 0.734375
vt 0.28125 0.59375
vt 0.703125 0.59375
vt 0.953125 0.5
vt 1 0.5
vt 1 0.84375
vt 0.953125 0.84375
vt 0.953125 0.5
vt 1 0.5
vt 1 0.84375
vt 0.953125 0.84375
vt 0.953125 0.5
vt 1 0.5
vt 1 0.84375
vt 0.953125 0.84375
vt 0.953125 0.5
vt 1 0.5
vt 1 0.84375
vt 0.953125 0.84375
vt 0.953125 0.5
vt 1 0.5
vt 1 0.84375
vt 0.953125 0.84375
vt 0.953125 0.5
vt 1 0.5
vt 1 0.84375
vt 0.953125 0.84375
vt 0.953125 0.5
vt 1 0.5
vt 1 0.84375
vt 0.953125 0.84375
vt 0.953125 0.5
vt 1 0.5
vt 1 0.84375
vt 0.953125 0.84375
vt 0.953125 0.4375
vt 1 0.4375
vt 1 0.890625
vt 0.953125 0.890625
vt 0.953125 0.4375
vt 1 0.4375
vt 1 0.890625
vt 0.953125 0.890625
vt 1 0.4375
vt 1 0.890625
vt 0.953125 0.890625
vt 0.953125 0.4375
vt 1 0.421875
vt 1 0.875
vt 0.953125 0.875
vt 0.953125 0.421875
vt 0.953125 0.84375
vt 1 0.84375
vt 1 0.890625
vt 0.953125 0.890625
vt 0.953125 0.84375
vt 1 0.84375
vt 1 0.890625
vt 0.953125 0.890625
vt 0.953125 0.4375
vt 1 0.4375
vt 1 0.890625
vt 0.953125 0.890625
vt 0.953125 0.4375
vt 1 0.4375
vt 1 0.890625
vt 0.953125 0.890625
vt 1 0.4375
vt 1 0.890625
vt 0.953125 0.890625
vt 0.953125 0.4375
vt 1 0.421875
vt 1 0.875
vt 0.953125 0.875
vt 0.953125 0.421875
vt 0.953125 0.84375
vt 1 0.84375
vt 1 0.890625
vt 0.953125 0.890625
vt 0.953125 0.84375
vt 1 0.84375
vt 1 0.890625
vt 0.953125 0.890625
vt 0.140625 0.609375
vt 0.28125 0.609375
vt 0.28125 0.625
vt 0.140625 0.625
vt 0.140625 0.59375
vt 0.28125 0.59375
vt 0.28125 0.609375
vt 0.140625 0.609375
vt 0.140625 0.5625
vt 0.28125 0.5625
vt 0.28125 0.625
vt 0.140625 0.625
vt 0.453125 0.984375
vt 0.59375 0.984375
vt 0.59375 1
vt 0.453125 1
vt 0.453125 0.96875
vt 0.59375 0.96875
vt 0.59375 0.984375
vt 0.453125 0.984375
vt 0.453125 0.9375
vt 0.59375 0.9375
vt 0.59375 1
vt 0.453125 1
vt 0.28125 0.625
vt 0.28125 0.609375
vt 0.140625 0.609375
vt 0.140625 0.625
vt 0.28125 0.609375
vt 0.28125 0.59375
vt 0.140625 0.59375
vt 0.140625 0.609375
vt 0.28125 0.625
vt 0.28125 0.5625
vt 0.140625 0.5625
vt 0.140625 0.625
vt 0.328125 1
vt 0.328125 0.984375
vt 0.1875 0.984375
vt 0.1875 1
vt 0.328125 0.984375
vt 0.328125 0.96875
vt 0.1875 0.96875
vt 0.1875 0.984375
vt 0.328125 1
vt 0.328125 0.9375
vt 0.1875 0.9375
vt 0.1875 1
vt 0.59375 1
vt 0.59375 0.984375
vt 0.453125 0.984375
vt 0.453125 1
vt 0.59375 0.984375
vt 0.59375 0.96875
vt 0.453125 0.96875
vt 0.453125 0.984375
vt 0.59375 1
vt 0.59375 0.9375
vt 0.453125 0.9375
vt 0.453125 1
vt 0.453125 0.984375
vt 0.59375 0.984375
vt 0.59375 1
vt 0.453125 1
vt 0.453125 0.96875
vt 0.59375 0.96875
vt 0.59375 0.984375
vt 0.453125 0.984375
vt 0.453125 0.9375
vt 0.59375 0.9375
vt 0.59375 1
vt 0.453125 1
vt 0.1875 0.984375
vt 0.328125 0.984375
vt 0.328125 1
vt 0.1875 1
vt 0.1875 0.96875
vt 0.328125 0.96875
vt 0.328125 0.984375
vt 0.1875 0.984375
vt 0.1875 0.9375
vt 0.328125 0.9375
vt 0.328125 1
vt 0.1875 1
vt 0.140625 0.609375
vt 0.28125 0.609375
vt 0.28125 0.625
vt 0.140625 0.625
vt 0.140625 0.59375
vt 0.28125 0.59375
vt 0.28125 0.609375
vt 0.140625 0.609375
vt 0.140625 0.5625
vt 0.28125 0.5625
vt 0.28125 0.625
vt 0.140625 0.625
vt 0.28125 0.625
vt 0.28125 0.609375
vt 0.140625 0.609375
vt 0.140625 0.625
vt 0.28125 0.609375
vt 0.28125 0.59375
vt 0.140625 0.59375
vt 0.140625 0.609375
vt 0.28125 0.625
vt 0.28125 0.5625
vt 0.140625 0.5625
vt 0.140625 0.625
vt 0.328125 1
vt 0.328125 0.984375
vt 0.1875 0.984375
vt 0.1875 1
vt 0.328125 0.984375
vt 0.328125 0.96875
vt 0.1875 0.96875
vt 0.1875 0.984375
vt 0.328125 1
vt 0.328125 0.9375
vt 0.1875 0.9375
vt 0.1875 1
vt 0.59375 1
vt 0.59375 0.984375
vt 0.453125 0.984375
vt 0.453125 1
vt 0.59375 0.984375
vt 0.59375 0.96875
vt 0.453125 0.96875
vt 0.453125 0.984375
vt 0.59375 1
vt 0.59375 0.9375
vt 0.453125 0.9375
vt 0.453125 1
vt 0.1875 0.984375
vt 0.328125 0.984375
vt 0.328125 1
vt 0.1875 1
vt 0.1875 0.96875
vt 0.328125 0.96875
vt 0.328125 0.984375
vt 0.1875 0.984375
vt 0.1875 0.9375
vt 0.328125 0.9375
vt 0.328125 1
vt 0.1875 1
vt 0.953125 0.75
vt 1 0.75
vt 1 0.765625
vt 0.953125 0.765625
vt 0.953125 0.734375
vt 1 0.734375
vt 1 0.75
vt 0.953125 0.75
vt 0.96875 0.328125
vt 0.984375 0.328125
vt 0.984375 0.765625
vt 0.96875 0.765625
vt 0.984375 0.328125
vt 1 0.328125
vt 1 0.765625
vt 0.984375 0.765625
vt 0.953125 0.328125
vt 1 0.328125
vt 1 0.765625
vt 0.953125 0.765625
vt 0.953125 0.3125
vt 1 0.3125
vt 1 0.75
vt 0.953125 0.75
vt 1 0.765625
vt 1 0.75
vt 0.953125 0.75
vt 0.953125 0.765625
vt 1 0.75
vt 1 0.734375
vt 0.953125 0.734375
vt 0.953125 0.75
vt 0.984375 0.765625
vt 0.984375 0.328125
vt 0.96875 0.328125
vt 0.96875 0.765625
vt 1 0.765625
vt 1 0.328125
vt 0.984375 0.328125
vt 0.984375 0.765625
vt 1 0.765625
vt 1 0.328125
vt 0.953125 0.328125
vt 0.953125 0.765625
vt 1 0.75
vt 1 0.3125
vt 0.953125 0.3125
vt 0.953125 0.75
vt 1 0.765625
vt 1 0.75
vt 0.953125 0.75
vt 0.953125 0.765625
vt 1 0.75
vt 1 0.734375
vt 0.953125 0.734375
vt 0.953125 0.75
vt 0.984375 0.765625
vt 0.984375 0.328125
vt 0.96875 0.328125
vt 0.96875 0.765625
vt 1 0.765625
vt 1 0.328125
vt 0.984375 0.328125
vt 0.984375 0.765625
vt 1 0.765625
vt 1 0.328125
vt 0.953125 0.328125
vt 0.953125 0.765625
vt 1 0.75
vt 1 0.3125
vt 0.953125 0.3125
vt 0.953125 0.75
vt 0.953125 0.75
vt 1 0.75
vt 1 0.765625
vt 0.953125 0.765625
vt 0.953125 0.734375
vt 1 0.734375
vt 1 0.75
vt 0.953125 0.75
vt 0.96875 0.328125
vt 0.984375 0.328125
vt 0.984375 0.765625
vt 0.96875 0.765625
vt 0.984375 0.328125
vt 1 0.328125
vt 1 0.765625
vt 0.984375 0.765625
vt 0.953125 0.328125
vt 1 0.328125
vt 1 0.765625
vt 0.953125 0.765625
vt 0.953125 0.3125
vt 1 0.3125
vt 1 0.75
vt 0.953125 0.75
vn 0.9761870601839528 0.21693045781865616 0
vn -0.9761870601839528 0.21693045781865616 0
vn 0 -0.2169304578186562 0.9761870601839528
vn 0 0.2169304578186562 -0.9761870601839528
vn 0.9761870601839528 0.21693045781865616 0
vn -0.9761870601839528 0.21693045781865616 0
vn 0 -0.2169304578186562 -0.9761870601839528
vn 0 0.2169304578186562 0.9761870601839528
vn -0.9761870601839527 -0.21693045781865616 0
vn 0.9761870601839527 0.21693045781865616 0
vn 0.9761870601839527 -0.21693045781865616 0
vn -0.9761870601839527 0.21693045781865616 0
vn 0 1 0
vn 0 -1 0
vn 0 0 1
vn 0 0 -1
vn 0 1 0
vn 0 -1 0
vn 0 0 1
vn 0 0 -1
vn 1 0 0
vn -1 0 0
vn 0 1 0
vn 0 -1 0
vn 0 0 1
vn 0 0 -1
vn 1 0 0
vn -1 0 0
vn 0 1 0
vn 0 -1 0
vn 0 0 1
vn 0 0 -1
vn 1 0 0
vn -1 0 0
vn 0 0.21693045781865616 -0.9761870601839528
vn 1 0 0
vn -1 0 0
vn 0 0.21693045781865616 -0.9761870601839528
vn 1 0 0
vn -1 0 0
vn 0 0.21693045781865616 0.9761870601839528
vn 1 0 0
vn -1 0 0
vn 0 0.21693045781865616 0.9761870601839528
vn 1 0 0
vn -1 0 0
vn 0 0.21693045781865616 0.9761870601839528
vn 0 0 -1
vn 0 0 1
vn -0.9761870601839528 0.21693045781865616 0
vn 0 0 -1
vn 0 0 1
vn -0.9761870601839528 0.21693045781865616 0
vn 0 0 -1
vn 0 0 1
vn -0.9761870601839528 0.21693045781865616 0
vn 0 0 -1
vn 0 0 1
vn 0.9761870601839528 0.21693045781865616 0
vn 0 0 -1
vn 0 0 1
vn 0.9761870601839528 0.21693045781865616 0
vn 0 0 -1
vn 0 0 1
vn 0.9761870601839528 0.21693045781865616 0
vn 1 0 0
vn -1 0 0
vn 0 0.21693045781865616 -0.9761870601839528
vn 0.996194636976904 0.08509045398977169 0.018864249210322998
vn -0.9961946067757295 -0.08509079100461422 -0.018864323925307763
vn -0.08715593204641774 0.9725805282813238 0.21561762339183066
vn 0.08715558601807065 -0.972581024518632 -0.21561552488662528
vn -2.0399605562032226e-7 -0.21643656900928154 0.9762966821593981
vn -1.4251676577465393e-7 0.21644043577802047 -0.9762958249220368
vn 0.984808007954655 -0.1695305478833991 0.037584315914208834
vn -0.9848074161650171 0.16953382452799756 -0.03758504233459311
vn 0.1736483225480526 0.9614634946282822 -0.21315301680581256
vn -0.17364826147337672 -0.9614639664891004 0.2131509381408395
vn 1.3637398887886933e-7 -0.21643838952798178 -0.976296278564307
vn 4.287333450125581e-7 0.21644151843945686 0.9762955849001054
vn -0.01886406504014972 0.08509049481934072 -0.9961946369769118
vn 0.01886341021216591 -0.08508754107437431 0.9961949016678837
vn -0.21561551833423767 0.9725809949626474 0.08715593204667649
vn 0.2156060236580006 -0.972583102607336 -0.08715590103414741
vn -0.9762958249220369 -0.21644043577802044 -1.425167657647412e-7
vn 0.9762958249219347 0.2164404357784814 1.4251680694601326e-7
vn -0.01886412619629013 -0.08509077067749966 -0.9961946122562396
vn 0.018863410212165938 0.0850875410743743 0.9961949016678836
vn 0.21561551892141748 0.9725809976112526 -0.0871559010380163
vn -0.21561551833423678 -0.9725809949626476 0.08715593204667647
vn 0.9762958249220358 -0.2164404357780248 1.4251671499550003e-7
vn -0.9762959804819866 0.21643973409406655 -7.963669672758127e-8
usemtl base_wooden
f 4/1/1 2/2/1 1/3/1
f 4/1/1 1/3/1 3/4/1
f 7/5/2 5/6/2 6/7/2
f 7/5/2 6/7/2 8/8/2
f 3/9/3 1/10/3 5/11/3
f 3/9/3 5/11/3 7/12/3
f 8/13/4 6/14/4 2/15/4
f 8/13/4 2/15/4 4/16/4
f 9/17/5 10/18/5 12/19/5
f 9/17/5 12/19/5 11/20/5
f 14/21/6 13/22/6 15/23/6
f 14/21/6 15/23/6 16/24/6
f 13/25/7 9/26/7 11/27/7
f 13/25/7 11/27/7 15/28/7
f 10/29/8 14/30/8 16/31/8
f 10/29/8 16/31/8 12/32/8
f 20/33/9 18/34/9 17/35/9
f 20/33/9 17/35/9 19/36/9
f 23/37/10 21/38/10 22/39/10
f 23/37/10 22/39/10 24/40/10
f 25/41/11 26/42/11 28/43/11
f 25/41/11 28/43/11 27/44/11
f 30/45/12 29/46/12 31/47/12
f 30/45/12 31/47/12 32/48/12
f 33/49/13 34/50/13 38/51/13
f 33/49/13 38/51/13 37/52/13
f 36/53/14 35/54/14 39/55/14
f 36/53/14 39/55/14 40/56/14
f 35/57/15 33/58/15 37/59/15
f 35/57/15 37/59/15 39/60/15
f 40/61/16 38/62/16 34/63/16
f 40/61/16 34/63/16 36/64/16
f 41/65/17 42/66/17 46/67/17
f 41/65/17 46/67/17 45/68/17
f 44/69/18 43/70/18 47/71/18
f 44/69/18 47/71/18 48/72/18
f 43/73/19 41/74/19 45/75/19
f 43/73/19 45/75/19 47/76/19
f 48/77/20 46/78/20 42/79/20
f 48/77/20 42/79/20 44/80/20
f 52/81/21 50/82/21 49/83/21
f 52/81/21 49/83/21 51/84/21
f 55/85/22 53/86/22 54/87/22
f 55/85/22 54/87/22 56/88/22
f 49/89/23 50/90/23 54/91/23
f 49/89/23 54/91/23 53/92/23
f 52/93/24 51/94/24 55/95/24
f 52/93/24 55/95/24 56/96/24
f 51/97/25 49/98/25 53/99/25
f 51/97/25 53/99/25 55/100/25
f 56/101/26 54/102/26 50/103/26
f 56/101/26 50/103/26 52/104/26
f 60/105/27 58/106/27 57/107/27
f 60/105/27 57/107/27 59/108/27
f 63/109/28 61/110/28 62/111/28
f 63/109/28 62/111/28 64/112/28
f 57/113/29 58/114/29 62/115/29
f 57/113/29 62/115/29 61/116/29
f 60/117/30 59/118/30 63/119/30
f 60/117/30 63/119/30 64/120/30
f 59/121/31 57/122/31 61/123/31
f 59/121/31 61/123/31 63/124/31
f 64/125/32 62/126/32 58/127/32
f 64/125/32 58/127/32 60/128/32
f 68/129/33 66/130/33 65/131/33
f 68/129/33 65/131/33 67/132/33
f 71/133/34 69/134/34 70/135/34
f 71/133/34 70/135/34 72/136/34
f 72/137/35 70/138/35 66/139/35
f 72/137/35 66/139/35 68/140/35
f 76/141/36 74/142/36 73/143/36
f 76/141/36 73/143/36 75/144/36
f 79/145/37 77/146/37 78/147/37
f 79/145/37 78/147/37 80/148/37
f 80/149/38 78/150/38 74/151/38
f 80/149/38 74/151/38 76/152/38
f 81/153/39 82/154/39 84/155/39
f 81/153/39 84/155/39 83/156/39
f 86/157/40 85/158/40 87/159/40
f 86/157/40 87/159/40 88/160/40
f 82/161/41 86/162/41 88/163/41
f 82/161/41 88/163/41 84/164/41
f 89/165/42 90/166/42 92/167/42
f 89/165/42 92/167/42 91/168/42
f 94/169/43 93/170/43 95/171/43
f 94/169/43 95/171/43 96/172/43
f 90/173/44 94/174/44 96/175/44
f 90/173/44 96/175/44 92/176/44
f 97/177/45 98/178/45 100/179/45
f 97/177/45 100/179/45 99/180/45
f 102/181/46 101/182/46 103/183/46
f 102/181/46 103/183/46 104/184/46
f 98/185/47 102/186/47 104/187/47
f 98/185/47 104/187/47 100/188/47
f 108/189/48 106/190/48 105/191/48
f 108/189/48 105/191/48 107/192/48
f 111/193/49 109/194/49 110/195/49
f 111/193/49 110/195/49 112/196/49
f 112/197/50 110/198/50 106/199/50
f 112/197/50 106/199/50 108/200/50
f 116/201/51 114/202/51 113/203/51
f 116/201/51 113/203/51 115/204/51
f 119/205/52 117/206/52 118/207/52
f 119/205/52 118/207/52 120/208/52
f 120/209/53 118/210/53 114/211/53
f 120/209/53 114/211/53 116/212/53
f 124/213/54 122/214/54 121/215/54
f 124/213/54 121/215/54 123/216/54
f 127/217/55 125/218/55 126/219/55
f 127/217/55 126/219/55 128/220/55
f 128/221/56 126/222/56 122/223/56
f 128/221/56 122/223/56 124/224/56
f 129/225/57 130/226/57 132/227/57
f 129/225/57 132/227/57 131/228/57
f 134/229/58 133/230/58 135/231/58
f 134/229/58 135/231/58 136/232/58
f 130/233/59 134/234/59 136/235/59
f 130/233/59 136/235/59 132/236/59
f 137/237/60 138/238/60 140/239/60
f 137/237/60 140/239/60 139/240/60
f 142/241/61 141/242/61 143/243/61
f 142/241/61 143/243/61 144/244/61
f 138/245/62 142/246/62 144/247/62
f 138/245/62 144/247/62 140/248/62
f 145/249/63 146/250/63 148/251/63
f 145/249/63 148/251/63 147/252/63
f 150/253/64 149/254/64 151/255/64
f 150/253/64 151/255/64 152/256/64
f 146/257/65 150/258/65 152/259/65
f 146/257/65 152/259/65 148/260/65
f 156/261/66 154/262/66 153/263/66
f 156/261/66 153/263/66 155/264/66
f 159/265/67 157/266/67 158/267/67
f 159/265/67 158/267/67 160/268/67
f 160/269/68 158/270/68 154/271/68
f 160/269/68 154/271/68 156/272/68
f 164/273/69 162/274/69 161/275/69
f 164/273/69 161/275/69 163/276/69
f 167/277/70 165/278/70 166/279/70
f 167/277/70 166/279/70 168/280/70
f 161/281/71 162/282/71 166/283/71
f 161/281/71 166/283/71 165/284/71
f 164/285/72 163/286/72 167/287/72
f 164/285/72 167/287/72 168/288/72
f 163/289/73 161/290/73 165/291/73
f 163/289/73 165/291/73 167/292/73
f 168/293/74 166/294/74 162/295/74
f 168/293/74 162/295/74 164/296/74
f 169/297/75 170/298/75 172/299/75
f 169/297/75 172/299/75 171/300/75
f 174/301/76 173/302/76 175/303/76
f 174/301/76 175/303/76 176/304/76
f 174/305/77 170/306/77 169/307/77
f 174/305/77 169/307/77 173/308/77
f 175/309/78 171/310/78 172/311/78
f 175/309/78 172/311/78 176/312/78
f 173/313/79 169/314/79 171/315/79
f 173/313/79 171/315/79 175/316/79
f 170/317/80 174/318/80 176/319/80
f 170/317/80 176/319/80 172/320/80
f 177/321/81 178/322/81 180/323/81
f 177/321/81 180/323/81 179/324/81
f 182/325/82 181/326/82 183/327/82
f 182/325/82 183/327/82 184/328/82
f 182/329/83 178/330/83 177/331/83
f 182/329/83 177/331/83 181/332/83
f 183/333/84 179/334/84 180/335/84
f 183/333/84 180/335/84 184/336/84
f 181/337/85 177/338/85 179/339/85
f 181/337/85 179/339/85 183/340/85
f 178/341/86 182/342/86 184/343/86
f 178/341/86 184/343/86 180/344/86
f 188/345/87 186/346/87 185/347/87
f 188/345/87 185/347/87 187/348/87
f 191/349/88 189/350/88 190/351/88
f 191/349/88 190/351/88 192/352/88
f 185/353/89 186/354/89 190/355/89
f 185/353/89 190/355/89 189/356/89
f 188/357/90 187/358/90 191/359/90
f 188/357/90 191/359/90 192/360/90
f 187/361/91 185/362/91 189/363/91
f 187/361/91 189/363/91 191/364/91
f 192/365/92 190/366/92 186/367/92
f 192/365/92 186/367/92 188/368/92