# Made by Pabilo8 with Blockbench
# Exported with IIToolkit Plugin
mtllib machinegun.mtl


o water_cooling2
v 0.875 -1.75 0.0625
v 0.8125 -1.75 0.0625
v 0.875 -1.875 0.0625
v 0.8125 -1.875 0.0625
v 0.875 -1.75 0.1875
v 0.8125 -1.75 0.1875
v 0.875 -1.875 0.1875
v 0.8125 -1.875 0.1875
v 1 -1.75 0.25
v 1 -1.75 0.18750000000000003
v 1 -1.875 0.25
v 1 -1.875 0.18750000000000003
v 0.875 -1.75 0.25
v 0.875 -1.75 0.1875
v 0.875 -1.875 0.25
v 0.875 -1.875 0.1875
v 1 -1.75 0.18750000000000003
v 1 -1.75 0.12500000000000003
v 1 -1.875 0.18750000000000003
v 1 -1.875 0.12500000000000003
v 0.875 -1.75 0.1875
v 0.875 -1.75 0.0625
v 0.875 -1.875 0.1875
v 0.875 -1.875 0.0625
v 1.0722043749999999 -1.621199375 0.5625
v 1.0722043749999999 -1.621199375 0.31250000000000006
v 1.1263143749999998 -1.865273125 0.5625
v 1.126314375 -1.865273125 0.31250000000000006
v 1.011185625 -1.634726875 0.5625
v 1.011185625 -1.634726875 0.3125
v 1.0652956249999999 -1.878800625 0.5625
v 1.065295625 -1.878800625 0.31250000000000006
v 1.0624999999999998 -1.6875 0.75
v 1.0625 -1.6875 0.25000000000000006
v 1.0624999999999998 -1.9375 0.75
v 1.0625 -1.9375 0.25000000000000006
v 0.8124999999999999 -1.6875 0.75
v 0.8125 -1.6875 0.25
v 0.8124999999999999 -1.9375 0.75
v 0.8125 -1.9375 0.25
v 0.7812499999999999 -1.6875 0.4375
v 0.7812500000000001 -1.6875 -0.4375
v 0.8124999999999999 -1.75 0.4375
v 0.8125000000000001 -1.75 -0.4375
v 0.59375 -1.6875 0.43749999999999994
v 0.5937500000000001 -1.6875 -0.4375
v 0.5625 -1.75 0.43749999999999994
v 0.5625000000000001 -1.75 -0.4375000000000001
v 0.7812499999999999 -1.9375 0.4375
v 0.7812500000000001 -1.9375 -0.4375
v 0.8124999999999999 -1.875 0.4375
v 0.8125000000000001 -1.875 -0.4375
v 0.59375 -1.9375 0.43749999999999994
v 0.5937500000000001 -1.9375 -0.4375
v 0.5625 -1.875 0.43749999999999994
v 0.5625000000000001 -1.875 -0.4375000000000001
v 0.8124999999999999 -1.75 0.4375
v 0.8125000000000001 -1.75 -0.4375
v 0.8124999999999999 -1.875 0.4375
v 0.8125000000000001 -1.875 -0.4375
v 0.5625 -1.75 0.43749999999999994
v 0.5625000000000001 -1.75 -0.4375000000000001
v 0.5625 -1.875 0.43749999999999994
v 0.5625000000000001 -1.875 -0.4375000000000001
v 0.8124999999999999 -1.75 0.5625
v 0.8124999999999999 -1.75 0.5
v 0.8124999999999999 -1.875 0.5625
v 0.8124999999999999 -1.875 0.5
v 0.7499999999999999 -1.75 0.5625
v 0.7499999999999999 -1.75 0.5
v 0.7499999999999999 -1.875 0.5625
v 0.7499999999999999 -1.875 0.5
v 0.8124999999999999 -1.75 0.75
v 0.8124999999999999 -1.75 0.6875
v 0.8124999999999999 -1.875 0.75
v 0.8124999999999999 -1.875 0.6875
v 0.7499999999999999 -1.75 0.75
v 0.7499999999999999 -1.75 0.6875
v 0.7499999999999999 -1.875 0.75
v 0.7499999999999999 -1.875 0.6875
vt 0.65625 0.53125
vt 0.65625 0.5625
vt 0.640625 0.5625
vt 0.640625 0.53125
vt 0.65625 0.5625
vt 0.65625 0.53125
vt 0.640625 0.53125
vt 0.640625 0.5625
vt 0.671875 0.5625
vt 0.65625 0.5625
vt 0.65625 0.53125
vt 0.671875 0.53125
vt 0.671875 0.53125
vt 0.65625 0.53125
vt 0.65625 0.5625
vt 0.671875 0.5625
vt 0.65625 0.53125
vt 0.65625 0.5625
vt 0.640625 0.5625
vt 0.640625 0.53125
vt 0.65625 0.5625
vt 0.65625 0.53125
vt 0.640625 0.53125
vt 0.640625 0.5625
vt 0.671875 0.5625
vt 0.65625 0.5625
vt 0.65625 0.53125
vt 0.671875 0.53125
vt 0.671875 0.53125
vt 0.65625 0.53125
vt 0.65625 0.5625
vt 0.671875 0.5625
vt 0.828125 0.53125
vt 0.828125 0.5625
vt 0.8125 0.5625
vt 0.8125 0.53125
vt 0.875 0.53125
vt 0.875 0.5625
vt 0.84375 0.5625
vt 0.84375 0.53125
vt 0.84375 0.53125
vt 0.84375 0.5625
vt 0.8125 0.5625
vt 0.8125 0.53125
vt 0.765625 0.53125
vt 0.765625 0.5625
vt 0.734375 0.5625
vt 0.734375 0.53125
vt 0.8125 0.46875
vt 0.8125 0.53125
vt 0.75 0.53125
vt 0.75 0.46875
vt 0.75 0.46875
vt 0.75 0.53125
vt 0.8125 0.53125
vt 0.8125 0.46875
vt 0.75 0.53125
vt 0.8125 0.53125
vt 0.8125 0.515625
vt 0.75 0.515625
vt 0.8125 0.46875
vt 0.8125 0.53125
vt 0.796875 0.53125
vt 0.796875 0.46875
vt 0.765625 0.46875
vt 0.765625 0.53125
vt 0.75 0.53125
vt 0.75 0.46875
vt 0.8125 0.46875
vt 0.8125 0.53125
vt 0.796875 0.53125
vt 0.796875 0.46875
vt 0.8125 0.5625
vt 0.8125 0.625
vt 0.6875 0.625
vt 0.6875 0.5625
vt 0.6875 0.5625
vt 0.6875 0.625
vt 0.8125 0.625
vt 0.8125 0.5625
vt 0.6875 0.5625
vt 0.8125 0.5625
vt 0.8125 0.625
vt 0.6875 0.625
vt 0.8125 0.625
vt 0.6875 0.625
vt 0.6875 0.5625
vt 0.8125 0.5625
vt 0.859375 0.5625
vt 0.859375 0.625
vt 0.796875 0.625
vt 0.796875 0.5625
vt 0.859375 0.5625
vt 0.859375 0.625
vt 0.796875 0.625
vt 0.796875 0.5625
vt 0.984375 0.375
vt 1 0.375
vt 1 0.59375
vt 0.984375 0.59375
vt 1 0.59375
vt 0.984375 0.59375
vt 0.984375 0.375
vt 1 0.375
vt 0.9375 0.375
vt 0.9375 0.59375
vt 0.890625 0.59375
vt 0.890625 0.375
vt 0.984375 0.421875
vt 1 0.4296875
vt 1 0.4765625
vt 0.984375 0.484375
vt 0.984375 0.53125
vt 1 0.5390625
vt 1 0.5859375
vt 0.984375 0.59375
vt 0.953125 0.59375
vt 0.953125 0.375
vt 0.9375 0.375
vt 0.9375 0.59375
vt 0.953125 0.375
vt 0.953125 0.59375
vt 0.9375 0.59375
vt 0.9375 0.375
vt 0.828125 0.125
vt 0.875 0.125
vt 0.875 0.34375
vt 0.828125 0.34375
vt 0.9375 0.4765625
vt 0.9375 0.4296875
vt 0.953125 0.421875
vt 0.953125 0.484375
vt 0.9375 0.5859375
vt 0.9375 0.5390625
vt 0.953125 0.53125
vt 0.953125 0.59375
vt 0.984375 0.59375
vt 0.953125 0.59375
vt 0.953125 0.375
vt 0.984375 0.375
vt 0.953125 0.59375
vt 0.984375 0.59375
vt 0.984375 0.375
vt 0.953125 0.375
vt 0.984375 0.484375
vt 0.953125 0.484375
vt 0.953125 0.421875
vt 0.984375 0.421875
vt 0.984375 0.59375
vt 0.953125 0.59375
vt 0.953125 0.53125
vt 0.984375 0.53125
vt 0.34375 0.140625
vt 0.34375 0.15625
vt 0.328125 0.15625
vt 0.328125 0.140625
vt 0.34375 0.125
vt 0.34375 0.140625
vt 0.328125 0.140625
vt 0.328125 0.125
vt 0.34375 0.125
vt 0.34375 0.15625
vt 0.328125 0.15625
vt 0.328125 0.125
vt 0.34375 0.125
vt 0.34375 0.15625
vt 0.328125 0.15625
vt 0.328125 0.125
vt 0.34375 0.140625
vt 0.34375 0.15625
vt 0.328125 0.15625
vt 0.328125 0.140625
vt 0.34375 0.125
vt 0.34375 0.140625
vt 0.328125 0.140625
vt 0.328125 0.125
vt 0.34375 0.125
vt 0.34375 0.15625
vt 0.328125 0.15625
vt 0.328125 0.125
vt 0.34375 0.125
vt 0.34375 0.15625
vt 0.328125 0.15625
vt 0.328125 0.125
vn 2.220446049250313e-16 0 -1
vn -2.220446049250313e-16 0 1
vn 0 1 0
vn 0 -1 0
vn 1 0 2.220446049250313e-16
vn -1 0 -2.220446049250313e-16
vn 0 1 0
vn 0 -1 0
vn 1 0 2.220446049250313e-16
vn 0 1 0
vn 0 -1 0
vn 0.44721359549995826 0 -0.894427190999916
vn 0.9762958783615934 0.2164401947286253 2.1678123260073642e-16
vn -0.9762958783615934 -0.2164401947286253 -2.1678123260073642e-16
vn -0.21643913818435542 0.9762961125918784 -4.805914292845946e-17
vn 0.21643913818435548 -0.9762961125918782 4.805914292845947e-17
vn -2.220446049250313e-16 0 1
vn 2.220446049250313e-16 0 -1
vn 1 0 2.220446049250313e-16
vn -1 0 -2.220446049250313e-16
vn 0 1 0
vn 0 -1 0
vn -2.220446049250313e-16 0 1
vn 2.220446049250313e-16 0 -1
vn 0.8944271909999161 0.44721359549995804 1.9860273225978188e-16
vn -0.8944271909999161 0.44721359549995804 -1.9860273225978188e-16
vn 0 1 0
vn -2.220446049250313e-16 0 1
vn 2.220446049250313e-16 0 -1
vn 0.8944271909999161 -0.44721359549995804 1.9860273225978188e-16
vn -0.8944271909999161 -0.44721359549995804 -1.9860273225978188e-16
vn 0 -1 0
vn -2.220446049250313e-16 0 1
vn 2.220446049250313e-16 0 -1
vn 1 0 2.220446049250313e-16
vn -1 0 -2.220446049250313e-16
vn -2.220446049250313e-16 0 1
vn 2.220446049250313e-16 0 -1
vn 0 1 0
vn 0 -1 0
vn -2.220446049250313e-16 0 1
vn 2.220446049250313e-16 0 -1
vn 0 1 0
vn 0 -1 0
vn -2.220446049250313e-16 0 1
vn 2.220446049250313e-16 0 -1
usemtl weapon_machinegun
f 4/1/1 2/2/1 1/3/1
f 4/1/1 1/3/1 3/4/1
f 7/5/2 5/6/2 6/7/2
f 7/5/2 6/7/2 8/8/2
f 1/9/3 2/10/3 6/11/3
f 1/9/3 6/11/3 5/12/3
f 4/13/4 3/14/4 7/15/4
f 4/13/4 7/15/4 8/16/4
f 12/17/5 10/18/5 9/19/5
f 12/17/5 9/19/5 11/20/5
f 15/21/6 13/22/6 14/23/6
f 15/21/6 14/23/6 16/24/6
f 9/25/7 10/26/7 14/27/7
f 9/25/7 14/27/7 13/28/7
f 12/29/8 11/30/8 15/31/8
f 12/29/8 15/31/8 16/32/8
f 20/33/9 18/34/9 17/35/9
f 20/33/9 17/35/9 19/36/9
f 17/37/10 18/38/10 22/39/10
f 17/37/10 22/39/10 21/40/10
f 20/41/11 19/42/11 23/43/11
f 20/41/11 23/43/11 24/44/11
f 24/45/12 22/46/12 18/47/12
f 24/45/12 18/47/12 20/48/12
f 28/49/13 26/50/13 25/51/13
f 28/49/13 25/51/13 27/52/13
f 31/53/14 29/54/14 30/55/14
f 31/53/14 30/55/14 32/56/14
f 25/57/15 26/58/15 30/59/15
f 25/57/15 30/59/15 29/60/15
f 28/61/16 27/62/16 31/63/16
f 28/61/16 31/63/16 32/64/16
f 27/65/17 25/66/17 29/67/17
f 27/65/17 29/67/17 31/68/17
f 32/69/18 30/70/18 26/71/18
f 32/69/18 26/71/18 28/72/18
f 36/73/19 34/74/19 33/75/19
f 36/73/19 33/75/19 35/76/19
f 39/77/20 37/78/20 38/79/20
f 39/77/20 38/79/20 40/80/20
f 33/81/21 34/82/21 38/83/21
f 33/81/21 38/83/21 37/84/21
f 36/85/22 35/86/22 39/87/22
f 36/85/22 39/87/22 40/88/22
f 35/89/23 33/90/23 37/91/23
f 35/89/23 37/91/23 39/92/23
f 40/93/24 38/94/24 34/95/24
f 40/93/24 34/95/24 36/96/24
f 44/97/25 42/98/25 41/99/25
f 44/97/25 41/99/25 43/100/25
f 47/101/26 45/102/26 46/103/26
f 47/101/26 46/103/26 48/104/26
f 41/105/27 42/106/27 46/107/27
f 41/105/27 46/107/27 45/108/27
f 43/109/28 41/110/28 45/111/28
f 43/109/28 45/111/28 47/112/28
f 48/113/29 46/114/29 42/115/29
f 48/113/29 42/115/29 44/116/29
f 49/117/30 50/118/30 52/119/30
f 49/117/30 52/119/30 51/120/30
f 54/121/31 53/122/31 55/123/31
f 54/121/31 55/123/31 56/124/31
f 54/125/32 50/126/32 49/127/32
f 54/125/32 49/127/32 53/128/32
f 53/129/33 49/130/33 51/131/33
f 53/129/33 51/131/33 55/132/33
f 50/133/34 54/134/34 56/135/34
f 50/133/34 56/135/34 52/136/34
f 60/137/35 58/138/35 57/139/35
f 60/137/35 57/139/35 59/140/35
f 63/141/36 61/142/36 62/143/36
f 63/141/36 62/143/36 64/144/36
f 59/145/37 57/146/37 61/147/37
f 59/145/37 61/147/37 63/148/37
f 64/149/38 62/150/38 58/151/38
f 64/149/38 58/151/38 60/152/38
f 65/153/39 66/154/39 70/155/39
f 65/153/39 70/155/39 69/156/39
f 68/157/40 67/158/40 71/159/40
f 68/157/40 71/159/40 72/160/40
f 67/161/41 65/162/41 69/163/41
f 67/161/41 69/163/41 71/164/41
f 72/165/42 70/166/42 66/167/42
f 72/165/42 66/167/42 68/168/42
f 73/169/43 74/170/43 78/171/43
f 73/169/43 78/171/43 77/172/43
f 76/173/44 75/174/44 79/175/44
f 76/173/44 79/175/44 80/176/44
f 75/177/45 73/178/45 77/179/45
f 75/177/45 77/179/45 79/180/45
f 80/181/46 78/182/46 74/183/46
f 80/181/46 74/183/46 76/184/46
o water_cooling1
v 0.12499999999999999 -1.75 0.0625
v 0.1875 -1.75 0.0625
v 0.12499999999999999 -1.875 0.0625
v 0.1875 -1.875 0.0625
v 0.125 -1.75 0.1875
v 0.1875 -1.75 0.1875
v 0.125 -1.875 0.1875
v 0.1875 -1.875 0.1875
v 2.7755575615628914e-17 -1.75 0.25
v 0 -1.75 0.18750000000000003
v 2.7755575615628914e-17 -1.875 0.25
v 0 -1.875 0.18750000000000003
v 0.12500000000000003 -1.75 0.25
v 0.125 -1.75 0.1875
v 0.12500000000000003 -1.875 0.25
v 0.125 -1.875 0.1875
v 0 -1.75 0.18750000000000003
v 0 -1.75 0.12500000000000003
v 0 -1.875 0.18750000000000003
v 0 -1.875 0.12500000000000003
v 0.125 -1.75 0.1875
v 0.12499999999999999 -1.75 0.0625
v 0.125 -1.875 0.1875
v 0.12499999999999999 -1.875 0.0625
v -0.07220437499999988 -1.621199375 0.5625
v -0.07220437499999993 -1.621199375 0.31250000000000006
v -0.12631437499999987 -1.865273125 0.5625
v -0.12631437499999992 -1.865273125 0.31250000000000006
v -0.011185624999999921 -1.634726875 0.5625
v -0.011185624999999977 -1.634726875 0.3125
v -0.06529562499999991 -1.878800625 0.5625
v -0.06529562499999997 -1.878800625 0.31250000000000006
v -0.06249999999999986 -1.6875 0.75
v -0.06249999999999997 -1.6875 0.25000000000000006
v -0.06249999999999986 -1.9375 0.75
v -0.06249999999999997 -1.9375 0.25000000000000006
v 0.18750000000000014 -1.6875 0.75
v 0.18750000000000003 -1.6875 0.25
v 0.18750000000000014 -1.9375 0.75
v 0.18750000000000003 -1.9375 0.25
v 0.21875000000000006 -1.6875 0.4375
v 0.2187499999999999 -1.6875 -0.4375
v 0.18750000000000006 -1.75 0.4375
v 0.1874999999999999 -1.75 -0.4375
v 0.40625000000000006 -1.6875 0.43749999999999994
v 0.4062499999999999 -1.6875 -0.4375
v 0.43750000000000006 -1.75 0.43749999999999994
v 0.4374999999999999 -1.75 -0.4375000000000001
v 0.21875000000000006 -1.9375 0.4375
v 0.2187499999999999 -1.9375 -0.4375
v 0.18750000000000006 -1.875 0.4375
v 0.1874999999999999 -1.875 -0.4375
v 0.40625000000000006 -1.9375 0.43749999999999994
v 0.4062499999999999 -1.9375 -0.4375
v 0.43750000000000006 -1.875 0.43749999999999994
v 0.4374999999999999 -1.875 -0.4375000000000001
v 0.18750000000000006 -1.75 0.4375
v 0.1874999999999999 -1.75 -0.4375
v 0.18750000000000006 -1.875 0.4375
v 0.1874999999999999 -1.875 -0.4375
v 0.43750000000000006 -1.75 0.43749999999999994
v 0.4374999999999999 -1.75 -0.4375000000000001
v 0.43750000000000006 -1.875 0.43749999999999994
v 0.4374999999999999 -1.875 -0.4375000000000001
v 0.2500000000000001 -1.75 0.75
v 0.2500000000000001 -1.75 0.6875
v 0.2500000000000001 -1.875 0.75
v 0.2500000000000001 -1.875 0.6875
v 0.18750000000000014 -1.75 0.75
v 0.1875000000000001 -1.75 0.6875
v 0.18750000000000014 -1.875 0.75
v 0.1875000000000001 -1.875 0.6875
v 0.2500000000000001 -1.75 0.5625
v 0.2500000000000001 -1.75 0.5
v 0.2500000000000001 -1.875 0.5625
v 0.2500000000000001 -1.875 0.5
v 0.1875000000000001 -1.75 0.5625
v 0.18750000000000008 -1.75 0.5
v 0.1875000000000001 -1.875 0.5625
v 0.18750000000000008 -1.875 0.5
vt 0.640625 0.5625
vt 0.65625 0.5625
vt 0.65625 0.53125
vt 0.640625 0.53125
vt 0.640625 0.53125
vt 0.65625 0.53125
vt 0.65625 0.5625
vt 0.640625 0.5625
vt 0.65625 0.53125
vt 0.65625 0.5625
vt 0.671875 0.5625
vt 0.671875 0.53125
vt 0.65625 0.5625
vt 0.65625 0.53125
vt 0.671875 0.53125
vt 0.671875 0.5625
vt 0.640625 0.5625
vt 0.65625 0.5625
vt 0.65625 0.53125
vt 0.640625 0.53125
vt 0.640625 0.53125
vt 0.65625 0.53125
vt 0.65625 0.5625
vt 0.640625 0.5625
vt 0.65625 0.53125
vt 0.65625 0.5625
vt 0.671875 0.5625
vt 0.671875 0.53125
vt 0.65625 0.5625
vt 0.65625 0.53125
vt 0.671875 0.53125
vt 0.671875 0.5625
vt 0.8125 0.5625
vt 0.828125 0.5625
vt 0.828125 0.53125
vt 0.8125 0.53125
vt 0.84375 0.5625
vt 0.875 0.5625
vt 0.875 0.53125
vt 0.84375 0.53125
vt 0.8125 0.5625
vt 0.84375 0.5625
vt 0.84375 0.53125
vt 0.8125 0.53125
vt 0.734375 0.5625
vt 0.765625 0.5625
vt 0.765625 0.53125
vt 0.734375 0.53125
vt 0.75 0.53125
vt 0.8125 0.53125
vt 0.8125 0.46875
vt 0.75 0.46875
vt 0.8125 0.53125
vt 0.75 0.53125
vt 0.75 0.46875
vt 0.8125 0.46875
vt 0.8125 0.515625
vt 0.8125 0.53125
vt 0.75 0.53125
vt 0.75 0.515625
vt 0.796875 0.53125
vt 0.8125 0.53125
vt 0.8125 0.46875
vt 0.796875 0.46875
vt 0.75 0.53125
vt 0.765625 0.53125
vt 0.765625 0.46875
vt 0.75 0.46875
vt 0.796875 0.53125
vt 0.8125 0.53125
vt 0.8125 0.46875
vt 0.796875 0.46875
vt 0.6875 0.625
vt 0.8125 0.625
vt 0.8125 0.5625
vt 0.6875 0.5625
vt 0.8125 0.625
vt 0.6875 0.625
vt 0.6875 0.5625
vt 0.8125 0.5625
vt 0.8125 0.625
vt 0.8125 0.5625
vt 0.6875 0.5625
vt 0.6875 0.625
vt 0.6875 0.5625
vt 0.6875 0.625
vt 0.8125 0.625
vt 0.8125 0.5625
vt 0.796875 0.625
vt 0.859375 0.625
vt 0.859375 0.5625
vt 0.796875 0.5625
vt 0.796875 0.625
vt 0.859375 0.625
vt 0.859375 0.5625
vt 0.796875 0.5625
vt 1 0.59375
vt 1 0.375
vt 0.984375 0.375
vt 0.984375 0.59375
vt 0.984375 0.375
vt 0.984375 0.59375
vt 1 0.59375
vt 1 0.375
vt 0.890625 0.59375
vt 0.9375 0.59375
vt 0.9375 0.375
vt 0.890625 0.375
vt 1 0.4765625
vt 1 0.4296875
vt 0.984375 0.421875
vt 0.984375 0.484375
vt 1 0.5859375
vt 1 0.5390625
vt 0.984375 0.53125
vt 0.984375 0.59375
vt 0.9375 0.375
vt 0.953125 0.375
vt 0.953125 0.59375
vt 0.9375 0.59375
vt 0.9375 0.59375
vt 0.953125 0.59375
vt 0.953125 0.375
vt 0.9375 0.375
vt 0.875 0.34375
vt 0.875 0.125
vt 0.828125 0.125
vt 0.828125 0.34375
vt 0.953125 0.421875
vt 0.9375 0.4296875
vt 0.9375 0.4765625
vt 0.953125 0.484375
vt 0.953125 0.53125
vt 0.9375 0.5390625
vt 0.9375 0.5859375
vt 0.953125 0.59375
vt 0.953125 0.375
vt 0.953125 0.59375
vt 0.984375 0.59375
vt 0.984375 0.375
vt 0.984375 0.375
vt 0.984375 0.59375
vt 0.953125 0.59375
vt 0.953125 0.375
vt 0.953125 0.421875
vt 0.953125 0.484375
vt 0.984375 0.484375
vt 0.984375 0.421875
vt 0.953125 0.53125
vt 0.953125 0.59375
vt 0.984375 0.59375
vt 0.984375 0.53125
vt 0.34375 0.140625
vt 0.34375 0.15625
vt 0.328125 0.15625
vt 0.328125 0.140625
vt 0.34375 0.125
vt 0.34375 0.140625
vt 0.328125 0.140625
vt 0.328125 0.125
vt 0.34375 0.125
vt 0.34375 0.15625
vt 0.328125 0.15625
vt 0.328125 0.125
vt 0.34375 0.125
vt 0.34375 0.15625
vt 0.328125 0.15625
vt 0.328125 0.125
vt 0.34375 0.140625
vt 0.34375 0.15625
vt 0.328125 0.15625
vt 0.328125 0.140625
vt 0.34375 0.125
vt 0.34375 0.140625
vt 0.328125 0.140625
vt 0.328125 0.125
vt 0.34375 0.125
vt 0.34375 0.15625
vt 0.328125 0.15625
vt 0.328125 0.125
vt 0.34375 0.125
vt 0.34375 0.15625
vt 0.328125 0.15625
vt 0.328125 0.125
vn -2.220446049250313e-16 0 -1
vn 2.220446049250313e-16 0 1
vn 0 1 0
vn 0 -1 0
vn -1 0 2.220446049250313e-16
vn 1 0 -2.220446049250313e-16
vn 0 1 0
vn 0 -1 0
vn -1 0 2.220446049250313e-16
vn 0 1 0
vn 0 -1 0
vn -0.44721359549995826 0 -0.894427190999916
vn -0.9762958783615934 0.2164401947286253 2.1678123260073642e-16
vn 0.9762958783615934 -0.2164401947286253 -2.1678123260073642e-16
vn 0.21643913818435542 0.9762961125918784 -4.805914292845946e-17
vn -0.21643913818435548 -0.9762961125918782 4.805914292845947e-17
vn 2.220446049250313e-16 0 1
vn -2.220446049250313e-16 0 -1
vn -1 0 2.220446049250313e-16
vn 1 0 -2.220446049250313e-16
vn 0 1 0
vn 0 -1 0
vn 2.220446049250313e-16 0 1
vn -2.220446049250313e-16 0 -1
vn -0.8944271909999161 0.44721359549995804 1.9860273225978188e-16
vn 0.8944271909999161 0.44721359549995804 -1.9860273225978188e-16
vn 0 1 0
vn 2.220446049250313e-16 0 1
vn -2.220446049250313e-16 0 -1
vn -0.8944271909999161 -0.44721359549995804 1.9860273225978188e-16
vn 0.8944271909999161 -0.44721359549995804 -1.9860273225978188e-16
vn 0 -1 0
vn 2.220446049250313e-16 0 1
vn -2.220446049250313e-16 0 -1
vn -1 0 2.220446049250313e-16
vn 1 0 -2.220446049250313e-16
vn 2.220446049250313e-16 0 1
vn -2.220446049250313e-16 0 -1
vn 0 1 0
vn 0 -1 0
vn 2.220446049250313e-16 0 1
vn -2.220446049250313e-16 0 -1
vn 0 1 0
vn 0 -1 0
vn 2.220446049250313e-16 0 1
vn -2.220446049250313e-16 0 -1
usemtl weapon_machinegun
f 81/185/47 82/186/47 84/187/47
f 81/185/47 84/187/47 83/188/47
f 86/189/48 85/190/48 87/191/48
f 86/189/48 87/191/48 88/192/48
f 86/193/49 82/194/49 81/195/49
f 86/193/49 81/195/49 85/196/49
f 87/197/50 83/198/50 84/199/50
f 87/197/50 84/199/50 88/200/50
f 89/201/51 90/202/51 92/203/51
f 89/201/51 92/203/51 91/204/51
f 94/205/52 93/206/52 95/207/52
f 94/205/52 95/207/52 96/208/52
f 94/209/53 90/210/53 89/211/53
f 94/209/53 89/211/53 93/212/53
f 95/213/54 91/214/54 92/215/54
f 95/213/54 92/215/54 96/216/54
f 97/217/55 98/218/55 100/219/55
f 97/217/55 100/219/55 99/220/55
f 102/221/56 98/222/56 97/223/56
f 102/221/56 97/223/56 101/224/56
f 103/225/57 99/226/57 100/227/57
f 103/225/57 100/227/57 104/228/57
f 98/229/58 102/230/58 104/231/58
f 98/229/58 104/231/58 100/232/58
f 105/233/59 106/234/59 108/235/59
f 105/233/59 108/235/59 107/236/59
f 110/237/60 109/238/60 111/239/60
f 110/237/60 111/239/60 112/240/60
f 110/241/61 106/242/61 105/243/61
f 110/241/61 105/243/61 109/244/61
f 111/245/62 107/246/62 108/247/62
f 111/245/62 108/247/62 112/248/62
f 109/249/63 105/250/63 107/251/63
f 109/249/63 107/251/63 111/252/63
f 106/253/64 110/254/64 112/255/64
f 106/253/64 112/255/64 108/256/64
f 113/257/65 114/258/65 116/259/65
f 113/257/65 116/259/65 115/260/65
f 118/261/66 117/262/66 119/263/66
f 118/261/66 119/263/66 120/264/66
f 118/265/67 114/266/67 113/267/67
f 118/265/67 113/267/67 117/268/67
f 119/269/68 115/270/68 116/271/68
f 119/269/68 116/271/68 120/272/68
f 117/273/69 113/274/69 115/275/69
f 117/273/69 115/275/69 119/276/69
f 114/277/70 118/278/70 120/279/70
f 114/277/70 120/279/70 116/280/70
f 121/281/71 122/282/71 124/283/71
f 121/281/71 124/283/71 123/284/71
f 126/285/72 125/286/72 127/287/72
f 126/285/72 127/287/72 128/288/72
f 126/289/73 122/290/73 121/291/73
f 126/289/73 121/291/73 125/292/73
f 125/293/74 121/294/74 123/295/74
f 125/293/74 123/295/74 127/296/74
f 122/297/75 126/298/75 128/299/75
f 122/297/75 128/299/75 124/300/75
f 132/301/76 130/302/76 129/303/76
f 132/301/76 129/303/76 131/304/76
f 135/305/77 133/306/77 134/307/77
f 135/305/77 134/307/77 136/308/77
f 129/309/78 130/310/78 134/311/78
f 129/309/78 134/311/78 133/312/78
f 131/313/79 129/314/79 133/315/79
f 131/313/79 133/315/79 135/316/79
f 136/317/80 134/318/80 130/319/80
f 136/317/80 130/319/80 132/320/80
f 137/321/81 138/322/81 140/323/81
f 137/321/81 140/323/81 139/324/81
f 142/325/82 141/326/82 143/327/82
f 142/325/82 143/327/82 144/328/82
f 141/329/83 137/330/83 139/331/83
f 141/329/83 139/331/83 143/332/83
f 138/333/84 142/334/84 144/335/84
f 138/333/84 144/335/84 140/336/84
f 145/337/85 146/338/85 150/339/85
f 145/337/85 150/339/85 149/340/85
f 148/341/86 147/342/86 151/343/86
f 148/341/86 151/343/86 152/344/86
f 147/345/87 145/346/87 149/347/87
f 147/345/87 149/347/87 151/348/87
f 152/349/88 150/350/88 146/351/88
f 152/349/88 146/351/88 148/352/88
f 153/353/89 154/354/89 158/355/89
f 153/353/89 158/355/89 157/356/89
f 156/357/90 155/358/90 159/359/90
f 156/357/90 159/359/90 160/360/90
f 155/361/91 153/362/91 157/363/91
f 155/361/91 157/363/91 159/364/91
f 160/365/92 158/366/92 154/367/92
f 160/365/92 154/367/92 156/368/92