# Made by Pabilo8 with Blockbench
# Exported with IIToolkit Plugin
mtllib machinegun.mtl


o style
v -0.3125 -2.247825625 2.337983125
v -0.4138949999999999 -2.226119375 1.1409387500000001
v -0.24738187500000008 -2.00162375 0.64093875
v -0.370483125 -1.9799175 0.64093875
v -0.29079374999999996 -2.247825625 0.64093875
v -0.4138949999999999 -2.226119375 0.64093875
v -0.24738187500000008 -2.00162375 1.1409387500000001
v -0.370483125 -1.9799175 1.1409387500000001
v -0.29079374999999996 -2.247825625 1.1409387500000001
v -0.4138949999999999 -2.226119375 1.70343875
v -0.24738187500000008 -2.00162375 1.2034387500000001
v -0.370483125 -1.9799175 1.2034387500000001
v -0.29079374999999996 -2.247825625 1.2034387500000001
v -0.4138949999999999 -2.226119375 1.2034387500000001
v -0.24738187500000008 -2.00162375 1.70343875
v -0.370483125 -1.9799175 1.70343875
v -0.29079374999999996 -2.247825625 1.70343875
v -0.4138949999999999 -2.226119375 2.32843875
v -0.24738187500000008 -2.00162375 1.82843875
v -0.370483125 -1.9799175 1.82843875
v -0.29079374999999996 -2.247825625 1.82843875
v -0.4138949999999999 -2.226119375 1.82843875
v -0.24738187500000008 -2.00162375 2.32843875
v -0.370483125 -1.9799175 2.32843875
v -0.29079374999999996 -2.247825625 2.32843875
v -0.457306875 -2.4723212500000002 2.07843875
v -0.29079374999999996 -2.247825625 1.57843875
v -0.4138949999999999 -2.226119375 1.57843875
v -0.33420625000000004 -2.4940275 1.57843875
v -0.457306875 -2.4723212500000002 1.57843875
v -0.29079374999999996 -2.247825625 2.07843875
v -0.4138949999999999 -2.226119375 2.07843875
v -0.33420625000000004 -2.4940275 2.07843875
v -0.457306875 -2.4723212500000002 1.3909387500000001
v -0.29079374999999996 -2.247825625 0.89093875
v -0.4138949999999999 -2.226119375 0.89093875
v -0.33420625000000004 -2.4940275 0.89093875
v -0.457306875 -2.4723212500000002 0.89093875
v -0.29079374999999996 -2.247825625 1.3909387500000001
v -0.4138949999999999 -2.226119375 1.3909387500000001
v -0.33420625000000004 -2.4940275 1.3909387500000001
v -0.5007187499999999 -2.718523125 1.0784387500000001
v -0.33420625000000004 -2.4940275 0.57843875
v -0.457306875 -2.4723212500000002 0.57843875
v -0.3776181249999999 -2.740229375 0.57843875
v -0.5007187499999999 -2.718523125 0.57843875
v -0.33420625000000004 -2.4940275 1.0784387500000001
v -0.457306875 -2.4723212500000002 1.0784387500000001
v -0.3776181249999999 -2.740229375 1.0784387500000001
v -0.5007187499999999 -2.718523125 1.70343875
v -0.33420625000000004 -2.4940275 1.2034387500000001
v -0.457306875 -2.4723212500000002 1.2034387500000001
v -0.3776181249999999 -2.740229375 1.2034387500000001
v -0.5007187499999999 -2.718523125 1.2034387500000001
v -0.33420625000000004 -2.4940275 1.70343875
v -0.457306875 -2.4723212500000002 1.70343875
v -0.3776181249999999 -2.740229375 1.70343875
v -0.5007187499999999 -2.718523125 2.45343875
v -0.33420625000000004 -2.4940275 1.95343875
v -0.457306875 -2.4723212500000002 1.95343875
v -0.3776181249999999 -2.740229375 1.95343875
v -0.5007187499999999 -2.718523125 1.95343875
v -0.33420625000000004 -2.4940275 2.45343875
v -0.457306875 -2.4723212500000002 2.45343875
v -0.3776181249999999 -2.740229375 2.45343875
v -0.29079374999999996 -2.247825625 2.14093875
v -0.1242812499999999 -2.023329375 1.64093875
v -0.24738187500000008 -2.00162375 1.64093875
v -0.167693125 -2.26953125 1.64093875
v -0.29079374999999996 -2.247825625 1.64093875
v -0.1242812499999999 -2.023329375 2.14093875
v -0.24738187500000008 -2.00162375 2.14093875
v -0.167693125 -2.26953125 2.14093875
v -0.29079374999999996 -2.247825625 1.3909387500000001
v -0.1242812499999999 -2.023329375 0.89093875
v -0.24738187500000008 -2.00162375 0.89093875
v -0.167693125 -2.26953125 0.89093875
v -0.29079374999999996 -2.247825625 0.89093875
v -0.1242812499999999 -2.023329375 1.3909387500000001
v -0.24738187500000008 -2.00162375 1.3909387500000001
v -0.167693125 -2.26953125 1.3909387500000001
v -0.3776181249999999 -2.740229375 2.07843875
v -0.2111050000000001 -2.5157331249999997 1.57843875
v -0.33420625000000004 -2.4940275 1.57843875
v -0.254516875 -2.761935625 1.57843875
v -0.3776181249999999 -2.740229375 1.57843875
v -0.2111050000000001 -2.5157331249999997 2.07843875
v -0.33420625000000004 -2.4940275 2.07843875
v -0.254516875 -2.761935625 2.07843875
v -0.3776181249999999 -2.740229375 1.3909387500000001
v -0.2111050000000001 -2.5157331249999997 0.89093875
v -0.33420625000000004 -2.4940275 0.89093875
v -0.254516875 -2.761935625 0.89093875
v -0.3776181249999999 -2.740229375 0.89093875
v -0.2111050000000001 -2.5157331249999997 1.3909387500000001
v -0.33420625000000004 -2.4940275 1.3909387500000001
v -0.254516875 -2.761935625 1.3909387500000001
v -0.33420625000000004 -2.4940275 1.0784387500000001
v -0.167693125 -2.26953125 0.57843875
v -0.29079374999999996 -2.247825625 0.57843875
v -0.2111050000000001 -2.5157331249999997 0.57843875
v -0.33420625000000004 -2.4940275 0.57843875
v -0.167693125 -2.26953125 1.0784387500000001
v -0.29079374999999996 -2.247825625 1.0784387500000001
v -0.2111050000000001 -2.5157331249999997 1.0784387500000001
v -0.33420625000000004 -2.4940275 1.76593875
v -0.167693125 -2.26953125 1.2659387500000001
v -0.29079374999999996 -2.247825625 1.2659387500000001
v -0.2111050000000001 -2.5157331249999997 1.2659387500000001
v -0.33420625000000004 -2.4940275 1.2659387500000001
v -0.167693125 -2.26953125 1.76593875
v -0.29079374999999996 -2.247825625 1.76593875
v -0.2111050000000001 -2.5157331249999997 1.76593875
v -0.33420625000000004 -2.4940275 2.39093875
v -0.167693125 -2.26953125 1.89093875
v -0.29079374999999996 -2.247825625 1.89093875
v -0.2111050000000001 -2.5157331249999997 1.89093875
v -0.33420625000000004 -2.4940275 1.89093875
v -0.167693125 -2.26953125 2.39093875
v -0.29079374999999996 -2.247825625 2.39093875
v -0.2111050000000001 -2.5157331249999997 2.39093875
v 0.125 -2.4723212500000002 2.504495625
v -0.375 -2.247825625 2.337983125
v -0.375 -2.226119375 2.46108375
v -0.375 -2.4940275 2.381395
v -0.375 -2.4723212500000002 2.504495625
v 0.125 -2.247825625 2.337983125
v 0.125 -2.226119375 2.46108375
v 0.125 -2.4940275 2.381395
v 0.125 -2.740229375 2.424806875
v -0.375 -2.5157331249999997 2.25829375
v -0.375 -2.4940275 2.381395
v -0.375 -2.761935625 2.30170625
v -0.375 -2.740229375 2.424806875
v 0.125 -2.5157331249999997 2.25829375
v 0.125 -2.4940275 2.381395
v 0.125 -2.761935625 2.30170625
v 0.4375 -2.718523125 2.547908125
v -0.0625 -2.4940275 2.381395
v -0.0625 -2.4723212500000002 2.504495625
v -0.0625 -2.740229375 2.424806875
v -0.0625 -2.718523125 2.547908125
v 0.4375 -2.4940275 2.381395
v 0.4375 -2.4723212500000002 2.504495625
v 0.4375 -2.740229375 2.424806875
v 0.4375 -2.4940275 2.381395
v -0.0625 -2.26953125 2.214881875
v -0.0625 -2.247825625 2.337983125
v -0.0625 -2.5157331249999997 2.25829375
v -0.0625 -2.4940275 2.381395
v 0.4375 -2.26953125 2.214881875
v 0.4375 -2.247825625 2.337983125
v 0.4375 -2.5157331249999997 2.25829375
v 0.8125 -2.4723212500000002 2.504495625
v 0.3125 -2.247825625 2.337983125
v 0.3125 -2.226119375 2.46108375
v 0.3125 -2.4940275 2.381395
v 0.3125 -2.4723212500000002 2.504495625
v 0.8125 -2.247825625 2.337983125
v 0.8125 -2.226119375 2.46108375
v 0.8125 -2.4940275 2.381395
v 0.4375 -2.226119375 2.46108375
v -0.0625 -2.00162375 2.294570625
v -0.0625 -1.9799175 2.417671875
v -0.0625 -2.247825625 2.337983125
v -0.0625 -2.226119375 2.46108375
v 0.4375 -2.00162375 2.294570625
v 0.4375 -1.9799175 2.417671875
v 0.4375 -2.247825625 2.337983125
v 0.75 -2.247825625 2.337983125
v 0.25 -2.023329375 2.1714700000000002
v 0.25 -2.00162375 2.294570625
v 0.25 -2.26953125 2.214881875
v 0.25 -2.247825625 2.337983125
v 0.75 -2.023329375 2.1714700000000002
v 0.75 -2.00162375 2.294570625
v 0.75 -2.26953125 2.214881875
v 0.1875 -2.247825625 2.337983125
v -0.3125 -2.023329375 2.1714700000000002
v -0.3125 -2.00162375 2.294570625
v -0.3125 -2.26953125 2.214881875
v 0.1875 -2.023329375 2.1714700000000002
v 0.1875 -2.00162375 2.294570625
v 0.1875 -2.26953125 2.214881875
v 1.125 -2.4940275 2.381395
v 0.625 -2.26953125 2.214881875
v 0.625 -2.247825625 2.337983125
v 0.625 -2.5157331249999997 2.25829375
v 0.625 -2.4940275 2.381395
v 1.125 -2.26953125 2.214881875
v 1.125 -2.247825625 2.337983125
v 1.125 -2.5157331249999997 2.25829375
v 1.1875 -2.226119375 2.46108375
v 0.6875 -2.00162375 2.294570625
v 0.6875 -1.9799175 2.417671875
v 0.6875 -2.247825625 2.337983125
v 0.6875 -2.226119375 2.46108375
v 1.1875 -2.00162375 2.294570625
v 1.1875 -1.9799175 2.417671875
v 1.1875 -2.247825625 2.337983125
v 1.5 -2.740229375 2.424806875
v 1 -2.5157331249999997 2.25829375
v 1 -2.4940275 2.381395
v 1 -2.761935625 2.30170625
v 1 -2.740229375 2.424806875
v 1.5 -2.5157331249999997 2.25829375
v 1.5 -2.4940275 2.381395
v 1.5 -2.761935625 2.30170625
v 1.125 -2.718523125 2.547908125
v 0.625 -2.4940275 2.381395
v 0.625 -2.4723212500000002 2.504495625
v 0.625 -2.740229375 2.424806875
v 0.625 -2.718523125 2.547908125
v 1.125 -2.4940275 2.381395
v 1.125 -2.4723212500000002 2.504495625
v 1.125 -2.740229375 2.424806875
v 0.75 -2.740229375 2.424806875
v 0.25 -2.5157331249999997 2.25829375
v 0.25 -2.4940275 2.381395
v 0.25 -2.761935625 2.30170625
v 0.25 -2.740229375 2.424806875
v 0.75 -2.5157331249999997 2.25829375
v 0.75 -2.4940275 2.381395
v 0.75 -2.761935625 2.30170625
v 1.375 -2.247825625 2.337983125
v 0.875 -2.023329375 2.1714700000000002
v 0.875 -2.00162375 2.294570625
v 0.875 -2.26953125 2.214881875
v 0.875 -2.247825625 2.337983125
v 1.375 -2.023329375 2.1714700000000002
v 1.375 -2.00162375 2.294570625
v 1.375 -2.26953125 2.214881875
v 1.5 -2.4723212500000002 2.504495625
v 1 -2.247825625 2.337983125
v 1 -2.226119375 2.46108375
v 1 -2.4940275 2.381395
v 1 -2.4723212500000002 2.504495625
v 1.5 -2.247825625 2.337983125
v 1.5 -2.226119375 2.46108375
v 1.5 -2.4940275 2.381395
v 1.520145 -2.226119375 1.89093875
v 1.353631875 -2.00162375 2.39093875
v 1.476733125 -1.9799175 2.39093875
v 1.39704375 -2.247825625 2.39093875
v 1.520145 -2.226119375 2.39093875
v 1.353631875 -2.00162375 1.89093875
v 1.476733125 -1.9799175 1.89093875
v 1.39704375 -2.247825625 1.89093875
v 1.44045625 -2.4940275 1.95343875
v 1.273943125 -2.26953125 2.45343875
v 1.39704375 -2.247825625 2.45343875
v 1.317355 -2.5157331249999997 2.45343875
v 1.44045625 -2.4940275 2.45343875
v 1.273943125 -2.26953125 1.95343875
v 1.39704375 -2.247825625 1.95343875
v 1.317355 -2.5157331249999997 1.95343875
v 1.60696875 -2.718523125 1.95343875
v 1.44045625 -2.4940275 2.45343875
v 1.563556875 -2.4723212500000002 2.45343875
v 1.483868125 -2.740229375 2.45343875
v 1.60696875 -2.718523125 2.45343875
v 1.44045625 -2.4940275 1.95343875
v 1.563556875 -2.4723212500000002 1.95343875
v 1.483868125 -2.740229375 1.95343875
v 1.563556875 -2.4723212500000002 1.64093875
v 1.39704375 -2.247825625 2.14093875
v 1.520145 -2.226119375 2.14093875
v 1.44045625 -2.4940275 2.14093875
v 1.563556875 -2.4723212500000002 2.14093875
v 1.39704375 -2.247825625 1.64093875
v 1.520145 -2.226119375 1.64093875
v 1.44045625 -2.4940275 1.64093875
v 1.60696875 -2.718523125 1.3284387500000001
v 1.44045625 -2.4940275 1.82843875
v 1.563556875 -2.4723212500000002 1.82843875
v 1.483868125 -2.740229375 1.82843875
v 1.60696875 -2.718523125 1.82843875
v 1.44045625 -2.4940275 1.3284387500000001
v 1.563556875 -2.4723212500000002 1.3284387500000001
v 1.483868125 -2.740229375 1.3284387500000001
v 1.563556875 -2.4723212500000002 0.95343875
v 1.39704375 -2.247825625 1.45343875
v 1.520145 -2.226119375 1.45343875
v 1.44045625 -2.4940275 1.45343875
v 1.563556875 -2.4723212500000002 1.45343875
v 1.39704375 -2.247825625 0.95343875
v 1.520145 -2.226119375 0.95343875
v 1.44045625 -2.4940275 0.95343875
v 1.483868125 -2.740229375 1.64093875
v 1.317355 -2.5157331249999997 2.14093875
v 1.44045625 -2.4940275 2.14093875
v 1.360766875 -2.761935625 2.14093875
v 1.483868125 -2.740229375 2.14093875
v 1.317355 -2.5157331249999997 1.64093875
v 1.44045625 -2.4940275 1.64093875
v 1.360766875 -2.761935625 1.64093875
v 1.39704375 -2.247825625 1.64093875
v 1.23053125 -2.023329375 2.14093875
v 1.353631875 -2.00162375 2.14093875
v 1.273943125 -2.26953125 2.14093875
v 1.39704375 -2.247825625 2.14093875
v 1.23053125 -2.023329375 1.64093875
v 1.353631875 -2.00162375 1.64093875
v 1.273943125 -2.26953125 1.64093875
v 1.44045625 -2.4940275 1.2659387500000001
v 1.273943125 -2.26953125 1.76593875
v 1.39704375 -2.247825625 1.76593875
v 1.317355 -2.5157331249999997 1.76593875
v 1.44045625 -2.4940275 1.76593875
v 1.273943125 -2.26953125 1.2659387500000001
v 1.39704375 -2.247825625 1.2659387500000001
v 1.317355 -2.5157331249999997 1.2659387500000001
v 1.39704375 -2.247825625 0.89093875
v 1.23053125 -2.023329375 1.3909387500000001
v 1.353631875 -2.00162375 1.3909387500000001
v 1.273943125 -2.26953125 1.3909387500000001
v 1.39704375 -2.247825625 1.3909387500000001
v 1.23053125 -2.023329375 0.89093875
v 1.353631875 -2.00162375 0.89093875
v 1.273943125 -2.26953125 0.89093875
v 1.520145 -2.226119375 1.3284387500000001
v 1.353631875 -2.00162375 1.82843875
v 1.476733125 -1.9799175 1.82843875
v 1.39704375 -2.247825625 1.82843875
v 1.520145 -2.226119375 1.82843875
v 1.353631875 -2.00162375 1.3284387500000001
v 1.476733125 -1.9799175 1.3284387500000001
v 1.39704375 -2.247825625 1.3284387500000001
v 1.483868125 -2.740229375 0.95343875
v 1.317355 -2.5157331249999997 1.45343875
v 1.44045625 -2.4940275 1.45343875
v 1.360766875 -2.761935625 1.45343875
v 1.483868125 -2.740229375 1.45343875
v 1.317355 -2.5157331249999997 0.95343875
v 1.44045625 -2.4940275 0.95343875
v 1.360766875 -2.761935625 0.95343875
v 1.60696875 -2.718523125 0.57843875
v 1.44045625 -2.4940275 1.0784387500000001
v 1.563556875 -2.4723212500000002 1.0784387500000001
v 1.483868125 -2.740229375 1.0784387500000001
v 1.60696875 -2.718523125 1.0784387500000001
v 1.44045625 -2.4940275 0.57843875
v 1.563556875 -2.4723212500000002 0.57843875
v 1.483868125 -2.740229375 0.57843875
v 1.44045625 -2.4940275 0.51593875
v 1.273943125 -2.26953125 1.0159387500000001
v 1.39704375 -2.247825625 1.0159387500000001
v 1.317355 -2.5157331249999997 1.0159387500000001
v 1.44045625 -2.4940275 1.0159387500000001
v 1.273943125 -2.26953125 0.51593875
v 1.39704375 -2.247825625 0.51593875
v 1.317355 -2.5157331249999997 0.51593875
v 0.6875 -2.718523125 0.39022
v 1.1875 -2.4940275 0.556733125
v 1.1875 -2.4723212500000002 0.433631875
v 1.1875 -2.740229375 0.513320625
v 1.1875 -2.718523125 0.39022
v 0.6875 -2.4940275 0.556733125
v 0.6875 -2.4723212500000002 0.433631875
v 0.6875 -2.740229375 0.513320625
v 1.520145 -2.226119375 0.70343875
v 1.353631875 -2.00162375 1.2034387500000001
v 1.476733125 -1.9799175 1.2034387500000001
v 1.39704375 -2.247825625 1.2034387500000001
v 1.520145 -2.226119375 1.2034387500000001
v 1.353631875 -2.00162375 0.70343875
v 1.476733125 -1.9799175 0.70343875
v 1.39704375 -2.247825625 0.70343875
v 0.9375 -2.247825625 0.600145
v 1.4375 -2.023329375 0.766658125
v 1.4375 -2.00162375 0.643556875
v 1.4375 -2.26953125 0.723245625
v 1.4375 -2.247825625 0.600145
v 0.9375 -2.023329375 0.766658125
v 0.9375 -2.00162375 0.643556875
v 0.9375 -2.26953125 0.723245625
v 1 -2.4723212500000002 0.433631875
v 1.5 -2.247825625 0.600145
v 1.5 -2.226119375 0.47704375
v 1.5 -2.4940275 0.556733125
v 1.5 -2.4723212500000002 0.433631875
v 1 -2.247825625 0.600145
v 1 -2.226119375 0.47704375
v 1 -2.4940275 0.556733125
v 0.6875 -2.226119375 0.47704375
v 1.1875 -2.00162375 0.643556875
v 1.1875 -1.9799175 0.52045625
v 1.1875 -2.247825625 0.600145
v 1.1875 -2.226119375 0.47704375
v 0.6875 -2.00162375 0.643556875
v 0.6875 -1.9799175 0.52045625
v 0.6875 -2.247825625 0.600145
v 1 -2.740229375 0.513320625
v 1.5 -2.5157331249999997 0.67983375
v 1.5 -2.4940275 0.556733125
v 1.5 -2.761935625 0.636421875
v 1.5 -2.740229375 0.513320625
v 1 -2.5157331249999997 0.67983375
v 1 -2.4940275 0.556733125
v 1 -2.761935625 0.636421875
v 0.3125 -2.4723212500000002 0.433631875
v 0.8125 -2.247825625 0.600145
v 0.8125 -2.226119375 0.47704375
v 0.8125 -2.4940275 0.556733125
v 0.8125 -2.4723212500000002 0.433631875
v 0.3125 -2.247825625 0.600145
v 0.3125 -2.226119375 0.47704375
v 0.3125 -2.4940275 0.556733125
v 0.6875 -2.4940275 0.556733125
v 1.1875 -2.26953125 0.723245625
v 1.1875 -2.247825625 0.600145
v 1.1875 -2.5157331249999997 0.67983375
v 1.1875 -2.4940275 0.556733125
v 0.6875 -2.26953125 0.723245625
v 0.6875 -2.247825625 0.600145
v 0.6875 -2.5157331249999997 0.67983375
v 0.375 -2.247825625 0.600145
v 0.875 -2.023329375 0.766658125
v 0.875 -2.00162375 0.643556875
v 0.875 -2.26953125 0.723245625
v 0.875 -2.247825625 0.600145
v 0.375 -2.023329375 0.766658125
v 0.375 -2.00162375 0.643556875
v 0.375 -2.26953125 0.723245625
v 0.375 -2.740229375 0.513320625
v 0.875 -2.5157331249999997 0.67983375
v 0.875 -2.4940275 0.556733125
v 0.875 -2.761935625 0.636421875
v 0.875 -2.740229375 0.513320625
v 0.375 -2.5157331249999997 0.67983375
v 0.375 -2.4940275 0.556733125
v 0.375 -2.761935625 0.636421875
v 0 -2.718523125 0.39022
v 0.5 -2.4940275 0.556733125
v 0.5 -2.4723212500000002 0.433631875
v 0.5 -2.740229375 0.513320625
v 0.5 -2.718523125 0.39022
v 0 -2.4940275 0.556733125
v 0 -2.4723212500000002 0.433631875
v 0 -2.740229375 0.513320625
v 0 -2.4940275 0.556733125
v 0.5 -2.26953125 0.723245625
v 0.5 -2.247825625 0.600145
v 0.5 -2.5157331249999997 0.67983375
v 0.5 -2.4940275 0.556733125
v 0 -2.26953125 0.723245625
v 0 -2.247825625 0.600145
v 0 -2.5157331249999997 0.67983375
v -0.0625 -2.226119375 0.47704375
v 0.4375 -2.00162375 0.643556875
v 0.4375 -1.9799175 0.52045625
v 0.4375 -2.247825625 0.600145
v 0.4375 -2.226119375 0.47704375
v -0.0625 -2.00162375 0.643556875
v -0.0625 -1.9799175 0.52045625
v -0.0625 -2.247825625 0.600145
v -0.375 -2.4723212500000002 0.433631875
v 0.125 -2.247825625 0.600145
v 0.125 -2.226119375 0.47704375
v 0.125 -2.4940275 0.556733125
v 0.125 -2.4723212500000002 0.433631875
v -0.375 -2.247825625 0.600145
v -0.375 -2.226119375 0.47704375
v -0.375 -2.4940275 0.556733125
v -0.375 -2.740229375 0.513320625
v 0.125 -2.5157331249999997 0.67983375
v 0.125 -2.4940275 0.556733125
v 0.125 -2.761935625 0.636421875
v 0.125 -2.740229375 0.513320625
v -0.375 -2.5157331249999997 0.67983375
v -0.375 -2.4940275 0.556733125
v -0.375 -2.761935625 0.636421875
v -0.25 -2.247825625 0.600145
v 0.25 -2.023329375 0.766658125
v 0.25 -2.00162375 0.643556875
v 0.25 -2.26953125 0.723245625
v 0.25 -2.247825625 0.600145
v -0.25 -2.023329375 0.766658125
v -0.25 -2.00162375 0.643556875
v -0.25 -2.26953125 0.723245625
vt 0.125 0.3125
vt 0.125 0.375
vt 0.09375 0.375
vt 0.09375 0.3125
vt 0.125 0.3125
vt 0.125 0.375
vt 0.09375 0.375
vt 0.09375 0.3125
vt 0.125 0.34375
vt 0.125 0.375
vt 0 0.375
vt 0 0.34375
vt 0.125 0.34375
vt 0.125 0.375
vt 0 0.375
vt 0 0.34375
vt 0.125 0.3125
vt 0.125 0.375
vt 0 0.375
vt 0 0.3125
vt 0.125 0.3125
vt 0.125 0.375
vt 0 0.375
vt 0 0.3125
vt 0.125 0.375
vt 0.125 0.4375
vt 0.09375 0.4375
vt 0.09375 0.375
vt 0.125 0.375
vt 0.125 0.4375
vt 0.09375 0.4375
vt 0.09375 0.375
vt 0.125 0.40625
vt 0.125 0.4375
vt 0 0.4375
vt 0 0.40625
vt 0.125 0.40625
vt 0.125 0.4375
vt 0 0.4375
vt 0 0.40625
vt 0.125 0.375
vt 0.125 0.4375
vt 0 0.4375
vt 0 0.375
vt 0.125 0.375
vt 0.125 0.4375
vt 0 0.4375
vt 0 0.375
vt 0.125 0.3125
vt 0.125 0.375
vt 0.09375 0.375
vt 0.09375 0.3125
vt 0.125 0.3125
vt 0.125 0.375
vt 0.09375 0.375
vt 0.09375 0.3125
vt 0.125 0.34375
vt 0.125 0.375
vt 0 0.375
vt 0 0.34375
vt 0.125 0.34375
vt 0.125 0.375
vt 0 0.375
vt 0 0.34375
vt 0.125 0.3125
vt 0.125 0.375
vt 0 0.375
vt 0 0.3125
vt 0.125 0.3125
vt 0.125 0.375
vt 0 0.375
vt 0 0.3125
vt 0.125 0.3125
vt 0.125 0.375
vt 0.09375 0.375
vt 0.09375 0.3125
vt 0.125 0.3125
vt 0.125 0.375
vt 0.09375 0.375
vt 0.09375 0.3125
vt 0.125 0.34375
vt 0.125 0.375
vt 0 0.375
vt 0 0.34375
vt 0.125 0.34375
vt 0.125 0.375
vt 0 0.375
vt 0 0.34375
vt 0.125 0.3125
vt 0.125 0.375
vt 0 0.375
vt 0 0.3125
vt 0.125 0.3125
vt 0.125 0.375
vt 0 0.375
vt 0 0.3125
vt 0.125 0.3125
vt 0.125 0.375
vt 0.09375 0.375
vt 0.09375 0.3125
vt 0.125 0.3125
vt 0.125 0.375
vt 0.09375 0.375
vt 0.09375 0.3125
vt 0.125 0.34375
vt 0.125 0.375
vt 0 0.375
vt 0 0.34375
vt 0.125 0.34375
vt 0.125 0.375
vt 0 0.375
vt 0 0.34375
vt 0.125 0.3125
vt 0.125 0.375
vt 0 0.375
vt 0 0.3125
vt 0.125 0.3125
vt 0.125 0.375
vt 0 0.375
vt 0 0.3125
vt 0.125 0.375
vt 0.125 0.4375
vt 0.09375 0.4375
vt 0.09375 0.375
vt 0.125 0.375
vt 0.125 0.4375
vt 0.09375 0.4375
vt 0.09375 0.375
vt 0.125 0.40625
vt 0.125 0.4375
vt 0 0.4375
vt 0 0.40625
vt 0.125 0.40625
vt 0.125 0.4375
vt 0 0.4375
vt 0 0.40625
vt 0.125 0.375
vt 0.125 0.4375
vt 0 0.4375
vt 0 0.375
vt 0.125 0.375
vt 0.125 0.4375
vt 0 0.4375
vt 0 0.375
vt 0.125 0.375
vt 0.125 0.4375
vt 0.09375 0.4375
vt 0.09375 0.375
vt 0.125 0.375
vt 0.125 0.4375
vt 0.09375 0.4375
vt 0.09375 0.375
vt 0.125 0.40625
vt 0.125 0.4375
vt 0 0.4375
vt 0 0.40625
vt 0.125 0.40625
vt 0.125 0.4375
vt 0 0.4375
vt 0 0.40625
vt 0.125 0.375
vt 0.125 0.4375
vt 0 0.4375
vt 0 0.375
vt 0.125 0.375
vt 0.125 0.4375
vt 0 0.4375
vt 0 0.375
vt 0.125 0.3125
vt 0.125 0.375
vt 0.09375 0.375
vt 0.09375 0.3125
vt 0.125 0.3125
vt 0.125 0.375
vt 0.09375 0.375
vt 0.09375 0.3125
vt 0.125 0.34375
vt 0.125 0.375
vt 0 0.375
vt 0 0.34375
vt 0.125 0.34375
vt 0.125 0.375
vt 0 0.375
vt 0 0.34375
vt 0.125 0.3125
vt 0.125 0.375
vt 0 0.375
vt 0 0.3125
vt 0.125 0.3125
vt 0.125 0.375
vt 0 0.375
vt 0 0.3125
vt 0.125 0.3125
vt 0.125 0.375
vt 0.09375 0.375
vt 0.09375 0.3125
vt 0.125 0.3125
vt 0.125 0.375
vt 0.09375 0.375
vt 0.09375 0.3125
vt 0.125 0.34375
vt 0.125 0.375
vt 0 0.375
vt 0 0.34375
vt 0.125 0.34375
vt 0.125 0.375
vt 0 0.375
vt 0 0.34375
vt 0.125 0.3125
vt 0.125 0.375
vt 0 0.375
vt 0 0.3125
vt 0.125 0.3125
vt 0.125 0.375
vt 0 0.375
vt 0 0.3125
vt 0.125 0.375
vt 0.125 0.4375
vt 0.09375 0.4375
vt 0.09375 0.375
vt 0.125 0.375
vt 0.125 0.4375
vt 0.09375 0.4375
vt 0.09375 0.375
vt 0.125 0.40625
vt 0.125 0.4375
vt 0 0.4375
vt 0 0.40625
vt 0.125 0.40625
vt 0.125 0.4375
vt 0 0.4375
vt 0 0.40625
vt 0.125 0.375
vt 0.125 0.4375
vt 0 0.4375
vt 0 0.375
vt 0.125 0.375
vt 0.125 0.4375
vt 0 0.4375
vt 0 0.375
vt 0.125 0.375
vt 0.125 0.4375
vt 0.09375 0.4375
vt 0.09375 0.375
vt 0.125 0.375
vt 0.125 0.4375
vt 0.09375 0.4375
vt 0.09375 0.375
vt 0.125 0.40625
vt 0.125 0.4375
vt 0 0.4375
vt 0 0.40625
vt 0.125 0.40625
vt 0.125 0.4375
vt 0 0.4375
vt 0 0.40625
vt 0.125 0.375
vt 0.125 0.4375
vt 0 0.4375
vt 0 0.375
vt 0.125 0.375
vt 0.125 0.4375
vt 0 0.4375
vt 0 0.375
vt 0.25 0.4375
vt 0.25 0.5
vt 0.21875 0.5
vt 0.21875 0.4375
vt 0.25 0.4375
vt 0.25 0.5
vt 0.21875 0.5
vt 0.21875 0.4375
vt 0.25 0.46875
vt 0.25 0.5
vt 0.125 0.5
vt 0.125 0.46875
vt 0.25 0.46875
vt 0.25 0.5
vt 0.125 0.5
vt 0.125 0.46875
vt 0.25 0.4375
vt 0.25 0.5
vt 0.125 0.5
vt 0.125 0.4375
vt 0.25 0.4375
vt 0.25 0.5
vt 0.125 0.5
vt 0.125 0.4375
vt 0.25 0.4375
vt 0.25 0.5
vt 0.21875 0.5
vt 0.21875 0.4375
vt 0.25 0.4375
vt 0.25 0.5
vt 0.21875 0.5
vt 0.21875 0.4375
vt 0.25 0.46875
vt 0.25 0.5
vt 0.125 0.5
vt 0.125 0.46875
vt 0.25 0.46875
vt 0.25 0.5
vt 0.125 0.5
vt 0.125 0.46875
vt 0.25 0.4375
vt 0.25 0.5
vt 0.125 0.5
vt 0.125 0.4375
vt 0.25 0.4375
vt 0.25 0.5
vt 0.125 0.5
vt 0.125 0.4375
vt 0.125 0.375
vt 0.125 0.4375
vt 0.09375 0.4375
vt 0.09375 0.375
vt 0.125 0.375
vt 0.125 0.4375
vt 0.09375 0.4375
vt 0.09375 0.375
vt 0.125 0.40625
vt 0.125 0.4375
vt 0 0.4375
vt 0 0.40625
vt 0.125 0.40625
vt 0.125 0.4375
vt 0 0.4375
vt 0 0.40625
vt 0.125 0.375
vt 0.125 0.4375
vt 0 0.4375
vt 0 0.375
vt 0.125 0.375
vt 0.125 0.4375
vt 0 0.4375
vt 0 0.375
vt 0.25 0.4375
vt 0.25 0.5
vt 0.21875 0.5
vt 0.21875 0.4375
vt 0.25 0.4375
vt 0.25 0.5
vt 0.21875 0.5
vt 0.21875 0.4375
vt 0.25 0.46875
vt 0.25 0.5
vt 0.125 0.5
vt 0.125 0.46875
vt 0.25 0.46875
vt 0.25 0.5
vt 0.125 0.5
vt 0.125 0.46875
vt 0.25 0.4375
vt 0.25 0.5
vt 0.125 0.5
vt 0.125 0.4375
vt 0.25 0.4375
vt 0.25 0.5
vt 0.125 0.5
vt 0.125 0.4375
vt 0.25 0.4375
vt 0.25 0.5
vt 0.21875 0.5
vt 0.21875 0.4375
vt 0.25 0.4375
vt 0.25 0.5
vt 0.21875 0.5
vt 0.21875 0.4375
vt 0.25 0.46875
vt 0.25 0.5
vt 0.125 0.5
vt 0.125 0.46875
vt 0.25 0.46875
vt 0.25 0.5
vt 0.125 0.5
vt 0.125 0.46875
vt 0.25 0.4375
vt 0.25 0.5
vt 0.125 0.5
vt 0.125 0.4375
vt 0.25 0.4375
vt 0.25 0.5
vt 0.125 0.5
vt 0.125 0.4375
vt 0.125 0.375
vt 0.125 0.4375
vt 0.09375 0.4375
vt 0.09375 0.375
vt 0.125 0.375
vt 0.125 0.4375
vt 0.09375 0.4375
vt 0.09375 0.375
vt 0.125 0.40625
vt 0.125 0.4375
vt 0 0.4375
vt 0 0.40625
vt 0.125 0.40625
vt 0.125 0.4375
vt 0 0.4375
vt 0 0.40625
vt 0.125 0.375
vt 0.125 0.4375
vt 0 0.4375
vt 0 0.375
vt 0.125 0.375
vt 0.125 0.4375
vt 0 0.4375
vt 0 0.375
vt 0.25 0.4375
vt 0.25 0.5
vt 0.21875 0.5
vt 0.21875 0.4375
vt 0.25 0.4375
vt 0.25 0.5
vt 0.21875 0.5
vt 0.21875 0.4375
vt 0.25 0.46875
vt 0.25 0.5
vt 0.125 0.5
vt 0.125 0.46875
vt 0.25 0.46875
vt 0.25 0.5
vt 0.125 0.5
vt 0.125 0.46875
vt 0.25 0.4375
vt 0.25 0.5
vt 0.125 0.5
vt 0.125 0.4375
vt 0.25 0.4375
vt 0.25 0.5
vt 0.125 0.5
vt 0.125 0.4375
vt 0.125 0.3125
vt 0.125 0.375
vt 0.09375 0.375
vt 0.09375 0.3125
vt 0.125 0.3125
vt 0.125 0.375
vt 0.09375 0.375
vt 0.09375 0.3125
vt 0.125 0.34375
vt 0.125 0.375
vt 0 0.375
vt 0 0.34375
vt 0.125 0.34375
vt 0.125 0.375
vt 0 0.375
vt 0 0.34375
vt 0.125 0.3125
vt 0.125 0.375
vt 0 0.375
vt 0 0.3125
vt 0.125 0.3125
vt 0.125 0.375
vt 0 0.375
vt 0 0.3125
vt 0.125 0.375
vt 0.125 0.4375
vt 0.09375 0.4375
vt 0.09375 0.375
vt 0.125 0.375
vt 0.125 0.4375
vt 0.09375 0.4375
vt 0.09375 0.375
vt 0.125 0.40625
vt 0.125 0.4375
vt 0 0.4375
vt 0 0.40625
vt 0.125 0.40625
vt 0.125 0.4375
vt 0 0.4375
vt 0 0.40625
vt 0.125 0.375
vt 0.125 0.4375
vt 0 0.4375
vt 0 0.375
vt 0.125 0.375
vt 0.125 0.4375
vt 0 0.4375
vt 0 0.375
vt 0.125 0.375
vt 0.125 0.4375
vt 0.09375 0.4375
vt 0.09375 0.375
vt 0.125 0.375
vt 0.125 0.4375
vt 0.09375 0.4375
vt 0.09375 0.375
vt 0.125 0.40625
vt 0.125 0.4375
vt 0 0.4375
vt 0 0.40625
vt 0.125 0.40625
vt 0.125 0.4375
vt 0 0.4375
vt 0 0.40625
vt 0.125 0.375
vt 0.125 0.4375
vt 0 0.4375
vt 0 0.375
vt 0.125 0.375
vt 0.125 0.4375
vt 0 0.4375
vt 0 0.375
vt 0.125 0.375
vt 0.125 0.4375
vt 0.09375 0.4375
vt 0.09375 0.375
vt 0.125 0.375
vt 0.125 0.4375
vt 0.09375 0.4375
vt 0.09375 0.375
vt 0.125 0.40625
vt 0.125 0.4375
vt 0 0.4375
vt 0 0.40625
vt 0.125 0.40625
vt 0.125 0.4375
vt 0 0.4375
vt 0 0.40625
vt 0.125 0.375
vt 0.125 0.4375
vt 0 0.4375
vt 0 0.375
vt 0.125 0.375
vt 0.125 0.4375
vt 0 0.4375
vt 0 0.375
vt 0.125 0.3125
vt 0.125 0.375
vt 0.09375 0.375
vt 0.09375 0.3125
vt 0.125 0.3125
vt 0.125 0.375
vt 0.09375 0.375
vt 0.09375 0.3125
vt 0.125 0.34375
vt 0.125 0.375
vt 0 0.375
vt 0 0.34375
vt 0.125 0.34375
vt 0.125 0.375
vt 0 0.375
vt 0 0.34375
vt 0.125 0.3125
vt 0.125 0.375
vt 0 0.375
vt 0 0.3125
vt 0.125 0.3125
vt 0.125 0.375
vt 0 0.375
vt 0 0.3125
vt 0.125 0.3125
vt 0.125 0.375
vt 0.09375 0.375
vt 0.09375 0.3125
vt 0.125 0.3125
vt 0.125 0.375
vt 0.09375 0.375
vt 0.09375 0.3125
vt 0.125 0.34375
vt 0.125 0.375
vt 0 0.375
vt 0 0.34375
vt 0.125 0.34375
vt 0.125 0.375
vt 0 0.375
vt 0 0.34375
vt 0.125 0.3125
vt 0.125 0.375
vt 0 0.375
vt 0 0.3125
vt 0.125 0.3125
vt 0.125 0.375
vt 0 0.375
vt 0 0.3125
vt 0.125 0.3125
vt 0.125 0.375
vt 0.09375 0.375
vt 0.09375 0.3125
vt 0.125 0.3125
vt 0.125 0.375
vt 0.09375 0.375
vt 0.09375 0.3125
vt 0.125 0.34375
vt 0.125 0.375
vt 0 0.375
vt 0 0.34375
vt 0.125 0.34375
vt 0.125 0.375
vt 0 0.375
vt 0 0.34375
vt 0.125 0.3125
vt 0.125 0.375
vt 0 0.375
vt 0 0.3125
vt 0.125 0.3125
vt 0.125 0.375
vt 0 0.375
vt 0 0.3125
vt 0.125 0.3125
vt 0.125 0.375
vt 0.09375 0.375
vt 0.09375 0.3125
vt 0.125 0.3125
vt 0.125 0.375
vt 0.09375 0.375
vt 0.09375 0.3125
vt 0.125 0.34375
vt 0.125 0.375
vt 0 0.375
vt 0 0.34375
vt 0.125 0.34375
vt 0.125 0.375
vt 0 0.375
vt 0 0.34375
vt 0.125 0.3125
vt 0.125 0.375
vt 0 0.375
vt 0 0.3125
vt 0.125 0.3125
vt 0.125 0.375
vt 0 0.375
vt 0 0.3125
vt 0.125 0.375
vt 0.125 0.4375
vt 0.09375 0.4375
vt 0.09375 0.375
vt 0.125 0.375
vt 0.125 0.4375
vt 0.09375 0.4375
vt 0.09375 0.375
vt 0.125 0.40625
vt 0.125 0.4375
vt 0 0.4375
vt 0 0.40625
vt 0.125 0.40625
vt 0.125 0.4375
vt 0 0.4375
vt 0 0.40625
vt 0.125 0.375
vt 0.125 0.4375
vt 0 0.4375
vt 0 0.375
vt 0.125 0.375
vt 0.125 0.4375
vt 0 0.4375
vt 0 0.375
vt 0.125 0.375
vt 0.125 0.4375
vt 0.09375 0.4375
vt 0.09375 0.375
vt 0.125 0.375
vt 0.125 0.4375
vt 0.09375 0.4375
vt 0.09375 0.375
vt 0.125 0.40625
vt 0.125 0.4375
vt 0 0.4375
vt 0 0.40625
vt 0.125 0.40625
vt 0.125 0.4375
vt 0 0.4375
vt 0 0.40625
vt 0.125 0.375
vt 0.125 0.4375
vt 0 0.4375
vt 0 0.375
vt 0.125 0.375
vt 0.125 0.4375
vt 0 0.4375
vt 0 0.375
vt 0.125 0.3125
vt 0.125 0.375
vt 0.09375 0.375
vt 0.09375 0.3125
vt 0.125 0.3125
vt 0.125 0.375
vt 0.09375 0.375
vt 0.09375 0.3125
vt 0.125 0.34375
vt 0.125 0.375
vt 0 0.375
vt 0 0.34375
vt 0.125 0.34375
vt 0.125 0.375
vt 0 0.375
vt 0 0.34375
vt 0.125 0.3125
vt 0.125 0.375
vt 0 0.375
vt 0 0.3125
vt 0.125 0.3125
vt 0.125 0.375
vt 0 0.375
vt 0 0.3125
vt 0.25 0.4375
vt 0.25 0.5
vt 0.21875 0.5
vt 0.21875 0.4375
vt 0.25 0.4375
vt 0.25 0.5
vt 0.21875 0.5
vt 0.21875 0.4375
vt 0.25 0.46875
vt 0.25 0.5
vt 0.125 0.5
vt 0.125 0.46875
vt 0.25 0.46875
vt 0.25 0.5
vt 0.125 0.5
vt 0.125 0.46875
vt 0.25 0.4375
vt 0.25 0.5
vt 0.125 0.5
vt 0.125 0.4375
vt 0.25 0.4375
vt 0.25 0.5
vt 0.125 0.5
vt 0.125 0.4375
vt 0.125 0.3125
vt 0.125 0.375
vt 0.09375 0.375
vt 0.09375 0.3125
vt 0.125 0.3125
vt 0.125 0.375
vt 0.09375 0.375
vt 0.09375 0.3125
vt 0.125 0.34375
vt 0.125 0.375
vt 0 0.375
vt 0 0.34375
vt 0.125 0.34375
vt 0.125 0.375
vt 0 0.375
vt 0 0.34375
vt 0.125 0.3125
vt 0.125 0.375
vt 0 0.375
vt 0 0.3125
vt 0.125 0.3125
vt 0.125 0.375
vt 0 0.375
vt 0 0.3125
vt 0.25 0.4375
vt 0.25 0.5
vt 0.21875 0.5
vt 0.21875 0.4375
vt 0.25 0.4375
vt 0.25 0.5
vt 0.21875 0.5
vt 0.21875 0.4375
vt 0.25 0.46875
vt 0.25 0.5
vt 0.125 0.5
vt 0.125 0.46875
vt 0.25 0.46875
vt 0.25 0.5
vt 0.125 0.5
vt 0.125 0.46875
vt 0.25 0.4375
vt 0.25 0.5
vt 0.125 0.5
vt 0.125 0.4375
vt 0.25 0.4375
vt 0.25 0.5
vt 0.125 0.5
vt 0.125 0.4375
vt 0.125 0.375
vt 0.125 0.4375
vt 0.09375 0.4375
vt 0.09375 0.375
vt 0.125 0.375
vt 0.125 0.4375
vt 0.09375 0.4375
vt 0.09375 0.375
vt 0.125 0.40625
vt 0.125 0.4375
vt 0 0.4375
vt 0 0.40625
vt 0.125 0.40625
vt 0.125 0.4375
vt 0 0.4375
vt 0 0.40625
vt 0.125 0.375
vt 0.125 0.4375
vt 0 0.4375
vt 0 0.375
vt 0.125 0.375
vt 0.125 0.4375
vt 0 0.4375
vt 0 0.375
vt 0.125 0.3125
vt 0.125 0.375
vt 0.09375 0.375
vt 0.09375 0.3125
vt 0.125 0.3125
vt 0.125 0.375
vt 0.09375 0.375
vt 0.09375 0.3125
vt 0.125 0.34375
vt 0.125 0.375
vt 0 0.375
vt 0 0.34375
vt 0.125 0.34375
vt 0.125 0.375
vt 0 0.375
vt 0 0.34375
vt 0.125 0.3125
vt 0.125 0.375
vt 0 0.375
vt 0 0.3125
vt 0.125 0.3125
vt 0.125 0.375
vt 0 0.375
vt 0 0.3125
vt 0.125 0.375
vt 0.125 0.4375
vt 0.09375 0.4375
vt 0.09375 0.375
vt 0.125 0.375
vt 0.125 0.4375
vt 0.09375 0.4375
vt 0.09375 0.375
vt 0.125 0.40625
vt 0.125 0.4375
vt 0 0.4375
vt 0 0.40625
vt 0.125 0.40625
vt 0.125 0.4375
vt 0 0.4375
vt 0 0.40625
vt 0.125 0.375
vt 0.125 0.4375
vt 0 0.4375
vt 0 0.375
vt 0.125 0.375
vt 0.125 0.4375
vt 0 0.4375
vt 0 0.375
vt 0.125 0.3125
vt 0.125 0.375
vt 0.09375 0.375
vt 0.09375 0.3125
vt 0.125 0.3125
vt 0.125 0.375
vt 0.09375 0.375
vt 0.09375 0.3125
vt 0.125 0.34375
vt 0.125 0.375
vt 0 0.375
vt 0 0.34375
vt 0.125 0.34375
vt 0.125 0.375
vt 0 0.375
vt 0 0.34375
vt 0.125 0.3125
vt 0.125 0.375
vt 0 0.375
vt 0 0.3125
vt 0.125 0.3125
vt 0.125 0.375
vt 0 0.375
vt 0 0.3125
vt 0.25 0.4375
vt 0.25 0.5
vt 0.21875 0.5
vt 0.21875 0.4375
vt 0.25 0.4375
vt 0.25 0.5
vt 0.21875 0.5
vt 0.21875 0.4375
vt 0.25 0.46875
vt 0.25 0.5
vt 0.125 0.5
vt 0.125 0.46875
vt 0.25 0.46875
vt 0.25 0.5
vt 0.125 0.5
vt 0.125 0.46875
vt 0.25 0.4375
vt 0.25 0.5
vt 0.125 0.5
vt 0.125 0.4375
vt 0.25 0.4375
vt 0.25 0.5
vt 0.125 0.5
vt 0.125 0.4375
vt 0.125 0.375
vt 0.125 0.4375
vt 0.09375 0.4375
vt 0.09375 0.375
vt 0.125 0.375
vt 0.125 0.4375
vt 0.09375 0.4375
vt 0.09375 0.375
vt 0.125 0.40625
vt 0.125 0.4375
vt 0 0.4375
vt 0 0.40625
vt 0.125 0.40625
vt 0.125 0.4375
vt 0 0.4375
vt 0 0.40625
vt 0.125 0.375
vt 0.125 0.4375
vt 0 0.4375
vt 0 0.375
vt 0.125 0.375
vt 0.125 0.4375
vt 0 0.4375
vt 0 0.375
vt 0.125 0.375
vt 0.125 0.4375
vt 0.09375 0.4375
vt 0.09375 0.375
vt 0.125 0.375
vt 0.125 0.4375
vt 0.09375 0.4375
vt 0.09375 0.375
vt 0.125 0.40625
vt 0.125 0.4375
vt 0 0.4375
vt 0 0.40625
vt 0.125 0.40625
vt 0.125 0.4375
vt 0 0.4375
vt 0 0.40625
vt 0.125 0.375
vt 0.125 0.4375
vt 0 0.4375
vt 0 0.375
vt 0.125 0.375
vt 0.125 0.4375
vt 0 0.4375
vt 0 0.375
vt 0.125 0.3125
vt 0.125 0.375
vt 0.09375 0.375
vt 0.09375 0.3125
vt 0.125 0.3125
vt 0.125 0.375
vt 0.09375 0.375
vt 0.09375 0.3125
vt 0.125 0.34375
vt 0.125 0.375
vt 0 0.375
vt 0 0.34375
vt 0.125 0.34375
vt 0.125 0.375
vt 0 0.375
vt 0 0.34375
vt 0.125 0.3125
vt 0.125 0.375
vt 0 0.375
vt 0 0.3125
vt 0.125 0.3125
vt 0.125 0.375
vt 0 0.375
vt 0 0.3125
vt 0.125 0.375
vt 0.125 0.4375
vt 0.09375 0.4375
vt 0.09375 0.375
vt 0.125 0.375
vt 0.125 0.4375
vt 0.09375 0.4375
vt 0.09375 0.375
vt 0.125 0.40625
vt 0.125 0.4375
vt 0 0.4375
vt 0 0.40625
vt 0.125 0.40625
vt 0.125 0.4375
vt 0 0.4375
vt 0 0.40625
vt 0.125 0.375
vt 0.125 0.4375
vt 0 0.4375
vt 0 0.375
vt 0.125 0.375
vt 0.125 0.4375
vt 0 0.4375
vt 0 0.375
vt 0.125 0.375
vt 0.125 0.4375
vt 0.09375 0.4375
vt 0.09375 0.375
vt 0.125 0.375
vt 0.125 0.4375
vt 0.09375 0.4375
vt 0.09375 0.375
vt 0.125 0.40625
vt 0.125 0.4375
vt 0 0.4375
vt 0 0.40625
vt 0.125 0.40625
vt 0.125 0.4375
vt 0 0.4375
vt 0 0.40625
vt 0.125 0.375
vt 0.125 0.4375
vt 0 0.4375
vt 0 0.375
vt 0.125 0.375
vt 0.125 0.4375
vt 0 0.4375
vt 0 0.375
vt 0.125 0.3125
vt 0.125 0.375
vt 0.09375 0.375
vt 0.09375 0.3125
vt 0.125 0.3125
vt 0.125 0.375
vt 0.09375 0.375
vt 0.09375 0.3125
vt 0.125 0.34375
vt 0.125 0.375
vt 0 0.375
vt 0 0.34375
vt 0.125 0.34375
vt 0.125 0.375
vt 0 0.375
vt 0 0.34375
vt 0.125 0.3125
vt 0.125 0.375
vt 0 0.375
vt 0 0.3125
vt 0.125 0.3125
vt 0.125 0.375
vt 0 0.375
vt 0 0.3125
vt 0.25 0.4375
vt 0.25 0.5
vt 0.21875 0.5
vt 0.21875 0.4375
vt 0.25 0.4375
vt 0.25 0.5
vt 0.21875 0.5
vt 0.21875 0.4375
vt 0.25 0.46875
vt 0.25 0.5
vt 0.125 0.5
vt 0.125 0.46875
vt 0.25 0.46875
vt 0.25 0.5
vt 0.125 0.5
vt 0.125 0.46875
vt 0.25 0.4375
vt 0.25 0.5
vt 0.125 0.5
vt 0.125 0.4375
vt 0.25 0.4375
vt 0.25 0.5
vt 0.125 0.5
vt 0.125 0.4375
vt 0.25 0.4375
vt 0.25 0.5
vt 0.21875 0.5
vt 0.21875 0.4375
vt 0.25 0.4375
vt 0.25 0.5
vt 0.21875 0.5
vt 0.21875 0.4375
vt 0.25 0.46875
vt 0.25 0.5
vt 0.125 0.5
vt 0.125 0.46875
vt 0.25 0.46875
vt 0.25 0.5
vt 0.125 0.5
vt 0.125 0.46875
vt 0.25 0.4375
vt 0.25 0.5
vt 0.125 0.5
vt 0.125 0.4375
vt 0.25 0.4375
vt 0.25 0.5
vt 0.125 0.5
vt 0.125 0.4375
vt 0.125 0.3125
vt 0.125 0.375
vt 0.09375 0.375
vt 0.09375 0.3125
vt 0.125 0.3125
vt 0.125 0.375
vt 0.09375 0.375
vt 0.09375 0.3125
vt 0.125 0.34375
vt 0.125 0.375
vt 0 0.375
vt 0 0.34375
vt 0.125 0.34375
vt 0.125 0.375
vt 0 0.375
vt 0 0.34375
vt 0.125 0.3125
vt 0.125 0.375
vt 0 0.375
vt 0 0.3125
vt 0.125 0.3125
vt 0.125 0.375
vt 0 0.375
vt 0 0.3125
vt 0.125 0.3125
vt 0.125 0.375
vt 0.09375 0.375
vt 0.09375 0.3125
vt 0.125 0.3125
vt 0.125 0.375
vt 0.09375 0.375
vt 0.09375 0.3125
vt 0.125 0.34375
vt 0.125 0.375
vt 0 0.375
vt 0 0.34375
vt 0.125 0.34375
vt 0.125 0.375
vt 0 0.375
vt 0 0.34375
vt 0.125 0.3125
vt 0.125 0.375
vt 0 0.375
vt 0 0.3125
vt 0.125 0.3125
vt 0.125 0.375
vt 0 0.375
vt 0 0.3125
vt 0.25 0.4375
vt 0.25 0.5
vt 0.21875 0.5
vt 0.21875 0.4375
vt 0.25 0.4375
vt 0.25 0.5
vt 0.21875 0.5
vt 0.21875 0.4375
vt 0.25 0.46875
vt 0.25 0.5
vt 0.125 0.5
vt 0.125 0.46875
vt 0.25 0.46875
vt 0.25 0.5
vt 0.125 0.5
vt 0.125 0.46875
vt 0.25 0.4375
vt 0.25 0.5
vt 0.125 0.5
vt 0.125 0.4375
vt 0.25 0.4375
vt 0.25 0.5
vt 0.125 0.5
vt 0.125 0.4375
vt 0.125 0.375
vt 0.125 0.4375
vt 0.09375 0.4375
vt 0.09375 0.375
vt 0.125 0.375
vt 0.125 0.4375
vt 0.09375 0.4375
vt 0.09375 0.375
vt 0.125 0.40625
vt 0.125 0.4375
vt 0 0.4375
vt 0 0.40625
vt 0.125 0.40625
vt 0.125 0.4375
vt 0 0.4375
vt 0 0.40625
vt 0.125 0.375
vt 0.125 0.4375
vt 0 0.4375
vt 0 0.375
vt 0.125 0.375
vt 0.125 0.4375
vt 0 0.4375
vt 0 0.375
vt 0.125 0.375
vt 0.125 0.4375
vt 0.09375 0.4375
vt 0.09375 0.375
vt 0.125 0.375
vt 0.125 0.4375
vt 0.09375 0.4375
vt 0.09375 0.375
vt 0.125 0.40625
vt 0.125 0.4375
vt 0 0.4375
vt 0 0.40625
vt 0.125 0.40625
vt 0.125 0.4375
vt 0 0.4375
vt 0 0.40625
vt 0.125 0.375
vt 0.125 0.4375
vt 0 0.4375
vt 0 0.375
vt 0.125 0.375
vt 0.125 0.4375
vt 0 0.4375
vt 0 0.375
vt 0.125 0.375
vt 0.125 0.4375
vt 0.09375 0.4375
vt 0.09375 0.375
vt 0.125 0.375
vt 0.125 0.4375
vt 0.09375 0.4375
vt 0.09375 0.375
vt 0.125 0.40625
vt 0.125 0.4375
vt 0 0.4375
vt 0 0.40625
vt 0.125 0.40625
vt 0.125 0.4375
vt 0 0.4375
vt 0 0.40625
vt 0.125 0.375
vt 0.125 0.4375
vt 0 0.4375
vt 0 0.375
vt 0.125 0.375
vt 0.125 0.4375
vt 0 0.4375
vt 0 0.375
vt 0.125 0.3125
vt 0.125 0.375
vt 0.09375 0.375
vt 0.09375 0.3125
vt 0.125 0.3125
vt 0.125 0.375
vt 0.09375 0.375
vt 0.09375 0.3125
vt 0.125 0.34375
vt 0.125 0.375
vt 0 0.375
vt 0 0.34375
vt 0.125 0.34375
vt 0.125 0.375
vt 0 0.375
vt 0 0.34375
vt 0.125 0.3125
vt 0.125 0.375
vt 0 0.375
vt 0 0.3125
vt 0.125 0.3125
vt 0.125 0.375
vt 0 0.375
vt 0 0.3125
vt 0.125 0.375
vt 0.125 0.4375
vt 0.09375 0.4375
vt 0.09375 0.375
vt 0.125 0.375
vt 0.125 0.4375
vt 0.09375 0.4375
vt 0.09375 0.375
vt 0.125 0.40625
vt 0.125 0.4375
vt 0 0.4375
vt 0 0.40625
vt 0.125 0.40625
vt 0.125 0.4375
vt 0 0.4375
vt 0 0.40625
vt 0.125 0.375
vt 0.125 0.4375
vt 0 0.4375
vt 0 0.375
vt 0.125 0.375
vt 0.125 0.4375
vt 0 0.4375
vt 0 0.375
vt 0.125 0.375
vt 0.125 0.4375
vt 0.09375 0.4375
vt 0.09375 0.375
vt 0.125 0.375
vt 0.125 0.4375
vt 0.09375 0.4375
vt 0.09375 0.375
vt 0.125 0.40625
vt 0.125 0.4375
vt 0 0.4375
vt 0 0.40625
vt 0.125 0.40625
vt 0.125 0.4375
vt 0 0.4375
vt 0 0.40625
vt 0.125 0.375
vt 0.125 0.4375
vt 0 0.4375
vt 0 0.375
vt 0.125 0.375
vt 0.125 0.4375
vt 0 0.4375
vt 0 0.375
vt 0.125 0.375
vt 0.125 0.4375
vt 0.09375 0.4375
vt 0.09375 0.375
vt 0.125 0.375
vt 0.125 0.4375
vt 0.09375 0.4375
vt 0.09375 0.375
vt 0.125 0.40625
vt 0.125 0.4375
vt 0 0.4375
vt 0 0.40625
vt 0.125 0.40625
vt 0.125 0.4375
vt 0 0.4375
vt 0 0.40625
vt 0.125 0.375
vt 0.125 0.4375
vt 0 0.4375
vt 0 0.375
vt 0.125 0.375
vt 0.125 0.4375
vt 0 0.4375
vt 0 0.375
vt 0.125 0.3125
vt 0.125 0.375
vt 0.09375 0.375
vt 0.09375 0.3125
vt 0.125 0.3125
vt 0.125 0.375
vt 0.09375 0.375
vt 0.09375 0.3125
vt 0.125 0.34375
vt 0.125 0.375
vt 0 0.375
vt 0 0.34375
vt 0.125 0.34375
vt 0.125 0.375
vt 0 0.375
vt 0 0.34375
vt 0.125 0.3125
vt 0.125 0.375
vt 0 0.375
vt 0 0.3125
vt 0.125 0.3125
vt 0.125 0.375
vt 0 0.375
vt 0 0.3125
vt 0.125 0.3125
vt 0.125 0.375
vt 0.09375 0.375
vt 0.09375 0.3125
vt 0.125 0.3125
vt 0.125 0.375
vt 0.09375 0.375
vt 0.09375 0.3125
vt 0.125 0.34375
vt 0.125 0.375
vt 0 0.375
vt 0 0.34375
vt 0.125 0.34375
vt 0.125 0.375
vt 0 0.375
vt 0 0.34375
vt 0.125 0.3125
vt 0.125 0.375
vt 0 0.375
vt 0 0.3125
vt 0.125 0.3125
vt 0.125 0.375
vt 0 0.375
vt 0 0.3125
vt 0.25 0.4375
vt 0.25 0.5
vt 0.21875 0.5
vt 0.21875 0.4375
vt 0.25 0.4375
vt 0.25 0.5
vt 0.21875 0.5
vt 0.21875 0.4375
vt 0.25 0.46875
vt 0.25 0.5
vt 0.125 0.5
vt 0.125 0.46875
vt 0.25 0.46875
vt 0.25 0.5
vt 0.125 0.5
vt 0.125 0.46875
vt 0.25 0.4375
vt 0.25 0.5
vt 0.125 0.5
vt 0.125 0.4375
vt 0.25 0.4375
vt 0.25 0.5
vt 0.125 0.5
vt 0.125 0.4375
vt 0.125 0.3125
vt 0.125 0.375
vt 0.09375 0.375
vt 0.09375 0.3125
vt 0.125 0.3125
vt 0.125 0.375
vt 0.09375 0.375
vt 0.09375 0.3125
vt 0.125 0.34375
vt 0.125 0.375
vt 0 0.375
vt 0 0.34375
vt 0.125 0.34375
vt 0.125 0.375
vt 0 0.375
vt 0 0.34375
vt 0.125 0.3125
vt 0.125 0.375
vt 0 0.375
vt 0 0.3125
vt 0.125 0.3125
vt 0.125 0.375
vt 0 0.375
vt 0 0.3125
vt 0.125 0.3125
vt 0.125 0.375
vt 0.09375 0.375
vt 0.09375 0.3125
vt 0.125 0.3125
vt 0.125 0.375
vt 0.09375 0.375
vt 0.09375 0.3125
vt 0.125 0.34375
vt 0.125 0.375
vt 0 0.375
vt 0 0.34375
vt 0.125 0.34375
vt 0.125 0.375
vt 0 0.375
vt 0 0.34375
vt 0.125 0.3125
vt 0.125 0.375
vt 0 0.375
vt 0 0.3125
vt 0.125 0.3125
vt 0.125 0.375
vt 0 0.375
vt 0 0.3125
vn 0 0 -1
vn 0 0 1
vn 0.17364956078872001 0.9848075091295176 0
vn -0.17364956078872001 -0.9848075091295176 0
vn 0.9848078612706752 -0.17364756370153456 0
vn -0.9848078612706752 0.17364756370153456 0
vn 0 0 -1
vn 0 0 1
vn 0.17364956078872004 0.9848075091295176 0
vn -0.17364956078872004 -0.9848075091295176 0
vn 0.9848078612706752 -0.17364756370153459 0
vn -0.9848078612706752 0.17364756370153459 0
vn 0 0 -1
vn 0 0 1
vn 0.17364956078872001 0.9848075091295176 0
vn -0.17364956078872001 -0.9848075091295176 0
vn 0.9848078612706752 -0.17364756370153456 0
vn -0.9848078612706752 0.17364756370153456 0
vn 0 0 -1
vn 0 0 1
vn 0.17364956078872001 0.9848075091295176 0
vn -0.173650415847661 -0.9848073583579352 0
vn 0.9848074337440046 -0.17364998831715497 0
vn -0.9848078612706751 0.17364756370153558 0
vn 0 0 -1
vn 0 0 1
vn 0.17364956078872001 0.9848075091295176 0
vn -0.173650415847661 -0.9848073583579352 0
vn 0.9848074337440046 -0.17364998831715497 0
vn -0.9848078612706751 0.17364756370153558 0
vn 0 0 -1
vn 0 0 1
vn 0.173650415847661 0.9848073583579352 0
vn -0.173650415847661 -0.9848073583579352 0
vn 0.9848078612706752 -0.17364756370153472 0
vn -0.9848078612706752 0.17364756370153472 0
vn 0 0 -1
vn 0 0 1
vn 0.173650415847661 0.9848073583579351 0
vn -0.173650415847661 -0.9848073583579351 0
vn 0.9848078612706752 -0.17364756370153472 0
vn -0.9848078612706752 0.17364756370153472 0
vn 0 0 -1
vn 0 0 1
vn 0.173650415847661 0.9848073583579353 0
vn -0.173650415847661 -0.9848073583579353 0
vn 0.9848078612706752 -0.17364756370153472 0
vn -0.9848078612706752 0.17364756370153472 0
vn 0 0 -1
vn 0 0 1
vn 0.1736455666020673 0.9848082134098228 0
vn -0.17364556660206762 -0.9848082134098227 0
vn 0.9848078612706751 -0.17364756370153545 0
vn -0.9848078612706752 0.17364756370153456 0
vn 0 0 -1
vn 0 0 1
vn 0.1736455666020673 0.9848082134098228 0
vn -0.17364556660206762 -0.9848082134098227 0
vn 0.9848078612706751 -0.17364756370153545 0
vn -0.9848078612706752 0.17364756370153456 0
vn 0 0 -1
vn 0 0 1
vn 0.17364471156551972 0.9848083641731156 0
vn -0.17364956078872174 -0.9848075091295172 0
vn 0.9848079366541156 -0.17364713617869942 0
vn -0.9848078612706752 0.17364756370153472 0
vn 0 0 -1
vn 0 0 1
vn 0.17364471156551972 0.9848083641731156 0
vn -0.17364956078872174 -0.9848075091295172 0
vn 0.9848079366541156 -0.17364713617869942 0
vn -0.9848078612706752 0.17364756370153472 0
vn 0 0 -1
vn 0 0 1
vn 0.17364556660206762 0.9848082134098227 0
vn -0.17364471156551972 -0.9848083641731156 0
vn 0.9848078612706751 -0.17364756370153558 0
vn -0.9848074337440046 0.17364998831715497 0
vn 0 0 -1
vn 0 0 1
vn 0.17364556660206762 0.9848082134098227 0
vn -0.17364471156551972 -0.9848083641731156 0
vn 0.9848078612706751 -0.1736475637015356 0
vn -0.9848074337440046 0.173649988317155 0
vn 0 0 -1
vn 0 0 1
vn 0.17364556660206762 0.9848082134098227 0
vn -0.17364471156551972 -0.9848083641731156 0
vn 0.9848078612706751 -0.17364756370153558 0
vn -0.9848074337440046 0.17364998831715497 0
vn -1 0 0
vn 1 0 0
vn 0 0.9848073583579355 -0.17365041584765958
vn 0 -0.9848073583579352 0.1736504158476607
vn 0 -0.17364756370153456 -0.9848078612706752
vn 0 0.17364756370153644 0.9848078612706749
vn -1 0 0
vn 1 0 0
vn 0 0.9848083641731156 -0.17364471156551972
vn 0 -0.9848073583579352 0.173650415847661
vn 0 -0.17364956078872157 -0.9848075091295172
vn 0 0.17364756370153558 0.9848078612706751
vn -1 0 0
vn 1 0 0
vn 0 0.9848073583579352 -0.1736504158476607
vn 0 -0.9848075091295174 0.17364956078872146
vn 0 -0.17364756370153558 -0.9848078612706751
vn 0 0.17364998831715514 0.9848074337440046
vn -1 0 0
vn 1 0 0
vn 0 0.9848083641731151 -0.17364471156552141
vn 0 -0.9848083641731156 0.17364471156551972
vn 0 -0.17364756370153472 -0.9848078612706752
vn 0 0.17364756370153456 0.9848078612706752
vn -1 0 0
vn 1 0 0
vn 0 0.9848073583579355 -0.17365041584765958
vn 0 -0.9848073583579352 0.1736504158476607
vn 0 -0.17364756370153456 -0.9848078612706752
vn 0 0.17364756370153644 0.9848078612706749
vn -1 0 0
vn 1 0 0
vn 0 0.9848075091295176 -0.17364956078872001
vn 0 -0.9848073583579355 0.17365041584765958
vn 0 -0.17364998831715497 -0.9848074337440046
vn 0 0.17364756370153456 0.9848078612706752
vn -1 0 0
vn 1 0 0
vn 0 0.9848082134098227 -0.17364556660206762
vn 0 -0.9848083641731151 0.17364471156552141
vn 0 -0.17364756370153545 -0.9848078612706751
vn 0 0.17364998831715497 0.9848074337440046
vn -1 0 0
vn 1 0 0
vn 0 0.9848082134098227 -0.17364556660206762
vn 0 -0.9848083641731151 0.17364471156552141
vn 0 -0.17364756370153545 -0.9848078612706751
vn 0 0.17364998831715497 0.9848074337440046
vn -1 0 0
vn 1 0 0
vn 0 0.9848083641731151 -0.17364471156552141
vn 0 -0.9848083641731156 0.17364471156551972
vn 0 -0.17364756370153472 -0.9848078612706752
vn 0 0.17364756370153456 0.9848078612706752
vn -1 0 0
vn 1 0 0
vn 0 0.9848075091295176 -0.17364956078872001
vn 0 -0.9848073583579355 0.17365041584765958
vn 0 -0.17364998831715497 -0.9848074337440046
vn 0 0.17364756370153456 0.9848078612706752
vn -1 0 0
vn 1 0 0
vn 0 0.9848083641731156 -0.17364471156551972
vn 0 -0.9848073583579352 0.173650415847661
vn 0 -0.17364956078872157 -0.9848075091295172
vn 0 0.17364756370153558 0.9848078612706751
vn -1 0 0
vn 1 0 0
vn 0 0.9848073583579352 -0.1736504158476607
vn 0 -0.9848075091295174 0.17364956078872146
vn 0 -0.17364756370153558 -0.9848078612706751
vn 0 0.17364998831715514 0.9848074337440046
vn -1 0 0
vn 1 0 0
vn 0 0.9848083641731156 -0.17364471156551972
vn 0 -0.9848073583579352 0.173650415847661
vn 0 -0.17364956078872157 -0.9848075091295172
vn 0 0.17364756370153558 0.9848078612706751
vn -1 0 0
vn 1 0 0
vn 0 0.9848082134098227 -0.17364556660206762
vn 0 -0.9848083641731151 0.17364471156552141
vn 0 -0.17364756370153545 -0.9848078612706751
vn 0 0.17364998831715497 0.9848074337440046
vn -1 0 0
vn 1 0 0
vn 0 0.9848073583579355 -0.17365041584765958
vn 0 -0.9848073583579352 0.1736504158476607
vn 0 -0.17364756370153456 -0.9848078612706752
vn 0 0.17364756370153644 0.9848078612706749
vn 0 0 1
vn 0 0 -1
vn -0.17364956078871996 0.9848075091295176 0
vn 0.17364956078871996 -0.9848075091295176 0
vn -0.9848078612706752 -0.173647563701535 0
vn 0.9848078612706753 0.17364756370153508 0
vn 0 0 1
vn 0 0 -1
vn -0.1736455666020676 0.9848082134098227 0
vn 0.17364471156551964 -0.9848083641731156 0
vn -0.9848078612706751 -0.17364756370153517 0
vn 0.9848074337440048 0.1736499883171547 0
vn 0 0 1
vn 0 0 -1
vn -0.17365041584766097 0.9848073583579353 0
vn 0.17365041584766094 -0.9848073583579352 0
vn -0.9848078612706751 -0.17364756370153522 0
vn 0.9848078612706751 0.17364756370153522 0
vn 0 0 1
vn 0 0 -1
vn -0.17364956078871996 0.9848075091295176 0
vn 0.17365041584766097 -0.9848073583579352 0
vn -0.9848074337440048 -0.1736499883171547 0
vn 0.9848078612706751 0.1736475637015352 0
vn 0 0 1
vn 0 0 -1
vn -0.17365041584766097 0.9848073583579352 0
vn 0.17365041584766094 -0.9848073583579352 0
vn -0.9848078612706751 -0.17364756370153522 0
vn 0.9848078612706751 0.17364756370153522 0
vn 0 0 1
vn 0 0 -1
vn -0.17364956078871996 0.9848075091295176 0
vn 0.17365041584766097 -0.9848073583579352 0
vn -0.9848074337440046 -0.1736499883171547 0
vn 0.9848078612706751 0.17364756370153522 0
vn 0 0 1
vn 0 0 -1
vn -0.17364471156551964 0.9848083641731156 0
vn 0.17364956078872165 -0.9848075091295173 0
vn -0.9848079366541154 -0.17364713617869984 0
vn 0.9848078612706751 0.1736475637015352 0
vn 0 0 1
vn 0 0 -1
vn -0.1736455666020676 0.9848082134098227 0
vn 0.1736455666020676 -0.9848082134098227 0
vn -0.9848078612706752 -0.173647563701535 0
vn 0.9848078612706752 0.173647563701535 0
vn 0 0 1
vn 0 0 -1
vn -0.1736455666020676 0.9848082134098227 0
vn 0.17364471156551964 -0.9848083641731156 0
vn -0.9848078612706752 -0.17364756370153517 0
vn 0.9848074337440046 0.1736499883171547 0
vn 0 0 1
vn 0 0 -1
vn -0.1736455666020676 0.9848082134098227 0
vn 0.1736455666020676 -0.9848082134098227 0
vn -0.9848078612706752 -0.173647563701535 0
vn 0.9848078612706752 0.173647563701535 0
vn 0 0 1
vn 0 0 -1
vn -0.17364956078871996 0.9848075091295176 0
vn 0.17364956078871996 -0.9848075091295176 0
vn -0.9848078612706752 -0.17364756370153503 0
vn 0.9848078612706753 0.17364756370153508 0
vn 0 0 1
vn 0 0 -1
vn -0.17364471156551964 0.9848083641731156 0
vn 0.17364956078872165 -0.9848075091295173 0
vn -0.9848079366541154 -0.17364713617869984 0
vn 0.9848078612706751 0.17364756370153522 0
vn 0 0 1
vn 0 0 -1
vn -0.17365041584766097 0.9848073583579352 0
vn 0.17365041584766094 -0.9848073583579352 0
vn -0.9848078612706751 -0.1736475637015352 0
vn 0.9848078612706751 0.1736475637015352 0
vn 0 0 1
vn 0 0 -1
vn -0.1736455666020676 0.9848082134098227 0
vn 0.17364471156551964 -0.9848083641731156 0
vn -0.9848078612706752 -0.17364756370153517 0
vn 0.9848074337440048 0.1736499883171547 0
vn 1 0 0
vn -1 0 0
vn 0 0.9848075091295172 0.17364956078872165
vn 0 -0.9848073583579352 -0.17365041584766094
vn 0 -0.1736499883171548 0.9848074337440046
vn 0 0.1736475637015352 -0.9848078612706751
vn 0 0 1
vn 0 0 -1
vn -0.17364956078871996 0.9848075091295176 0
vn 0.17364956078871996 -0.9848075091295176 0
vn -0.9848078612706752 -0.173647563701535 0
vn 0.9848078612706753 0.17364756370153508 0
vn 1 0 0
vn -1 0 0
vn 0 0.9848083641731151 0.1736447115655213
vn 0 -0.9848082134098227 -0.1736455666020676
vn 0 -0.17364998831715475 0.9848074337440046
vn 0 0.173647563701535 -0.9848078612706752
vn 1 0 0
vn -1 0 0
vn 0 0.9848075091295175 0.1736495607887199
vn 0 -0.9848075091295172 -0.17364956078872165
vn 0 -0.1736475637015351 0.9848078612706751
vn 0 0.1736475637015352 -0.9848078612706751
vn 1 0 0
vn -1 0 0
vn 0 0.9848073583579354 0.1736504158476592
vn 0 -0.9848075091295175 -0.1736495607887199
vn 0 -0.173647563701535 0.9848078612706752
vn 0 0.17364998831715467 -0.9848074337440048
vn 1 0 0
vn -1 0 0
vn 0 0.984808213409823 0.17364556660206587
vn 0 -0.9848075091295172 -0.17364956078872165
vn 0 -0.17364713617869984 0.9848079366541154
vn 0 0.1736499883171548 -0.9848074337440046
vn 1 0 0
vn -1 0 0
vn 0 0.9848075091295175 0.1736495607887199
vn 0 -0.9848075091295172 -0.17364956078872165
vn 0 -0.1736475637015351 0.9848078612706751
vn 0 0.1736475637015352 -0.9848078612706751
vn 1 0 0
vn -1 0 0
vn 0 0.9848082134098227 0.1736455666020676
vn 0 -0.984808213409823 -0.17364556660206587
vn 0 -0.17364756370153525 0.9848078612706751
vn 0 0.1736475637015351 -0.9848078612706751
vn 1 0 0
vn -1 0 0
vn 0 0.9848083641731151 0.1736447115655213
vn 0 -0.9848082134098227 -0.1736455666020676
vn 0 -0.17364998831715475 0.9848074337440046
vn 0 0.173647563701535 -0.9848078612706752
vn 1 0 0
vn -1 0 0
vn 0 0.984808213409823 0.17364556660206587
vn 0 -0.9848075091295172 -0.17364956078872165
vn 0 -0.17364713617869984 0.9848079366541154
vn 0 0.1736499883171548 -0.9848074337440046
vn 1 0 0
vn -1 0 0
vn 0 0.9848075091295172 0.17364956078872165
vn 0 -0.9848073583579352 -0.17365041584766094
vn 0 -0.1736499883171548 0.9848074337440046
vn 0 0.1736475637015352 -0.9848078612706751
vn 1 0 0
vn -1 0 0
vn 0 0.9848082134098227 0.1736455666020676
vn 0 -0.984808213409823 -0.17364556660206587
vn 0 -0.17364756370153525 0.9848078612706751
vn 0 0.1736475637015351 -0.9848078612706751
vn 1 0 0
vn -1 0 0
vn 0 0.9848073583579354 0.1736504158476592
vn 0 -0.9848075091295175 -0.1736495607887199
vn 0 -0.173647563701535 0.9848078612706752
vn 0 0.17364998831715467 -0.9848074337440048
vn 1 0 0
vn -1 0 0
vn 0 0.9848075091295175 0.1736495607887199
vn 0 -0.9848075091295172 -0.17364956078872165
vn 0 -0.1736475637015351 0.9848078612706751
vn 0 0.1736475637015352 -0.9848078612706751
vn 1 0 0
vn -1 0 0
vn 0 0.984808213409823 0.17364556660206587
vn 0 -0.9848075091295172 -0.17364956078872165
vn 0 -0.17364713617869984 0.9848079366541154
vn 0 0.1736499883171548 -0.9848074337440046
vn 1 0 0
vn -1 0 0
vn 0 0.9848083641731151 0.1736447115655213
vn 0 -0.9848082134098227 -0.1736455666020676
vn 0 -0.17364998831715475 0.9848074337440046
vn 0 0.173647563701535 -0.9848078612706752
usemtl weapon_machinegun
f 6/1/1 4/2/1 3/3/1
f 6/1/1 3/3/1 5/4/1
f 9/5/2 7/6/2 8/7/2
f 9/5/2 8/7/2 2/8/2
f 3/9/3 4/10/3 8/11/3
f 3/9/3 8/11/3 7/12/3
f 6/13/4 5/14/4 9/15/4
f 6/13/4 9/15/4 2/16/4
f 5/17/5 3/18/5 7/19/5
f 5/17/5 7/19/5 9/20/5
f 2/21/6 8/22/6 4/23/6
f 2/21/6 4/23/6 6/24/6
f 14/25/7 12/26/7 11/27/7
f 14/25/7 11/27/7 13/28/7
f 17/29/8 15/30/8 16/31/8
f 17/29/8 16/31/8 10/32/8
f 11/33/9 12/34/9 16/35/9
f 11/33/9 16/35/9 15/36/9
f 14/37/10 13/38/10 17/39/10
f 14/37/10 17/39/10 10/40/10
f 13/41/11 11/42/11 15/43/11
f 13/41/11 15/43/11 17/44/11
f 10/45/12 16/46/12 12/47/12
f 10/45/12 12/47/12 14/48/12
f 22/49/13 20/50/13 19/51/13
f 22/49/13 19/51/13 21/52/13
f 25/53/14 23/54/14 24/55/14
f 25/53/14 24/55/14 18/56/14
f 19/57/15 20/58/15 24/59/15
f 19/57/15 24/59/15 23/60/15
f 22/61/16 21/62/16 25/63/16
f 22/61/16 25/63/16 18/64/16
f 21/65/17 19/66/17 23/67/17
f 21/65/17 23/67/17 25/68/17
f 18/69/18 24/70/18 20/71/18
f 18/69/18 20/71/18 22/72/18
f 30/73/19 28/74/19 27/75/19
f 30/73/19 27/75/19 29/76/19
f 33/77/20 31/78/20 32/79/20
f 33/77/20 32/79/20 26/80/20
f 27/81/21 28/82/21 32/83/21
f 27/81/21 32/83/21 31/84/21
f 30/85/22 29/86/22 33/87/22
f 30/85/22 33/87/22 26/88/22
f 29/89/23 27/90/23 31/91/23
f 29/89/23 31/91/23 33/92/23
f 26/93/24 32/94/24 28/95/24
f 26/93/24 28/95/24 30/96/24
f 38/97/25 36/98/25 35/99/25
f 38/97/25 35/99/25 37/100/25
f 41/101/26 39/102/26 40/103/26
f 41/101/26 40/103/26 34/104/26
f 35/105/27 36/106/27 40/107/27
f 35/105/27 40/107/27 39/108/27
f 38/109/28 37/110/28 41/111/28
f 38/109/28 41/111/28 34/112/28
f 37/113/29 35/114/29 39/115/29
f 37/113/29 39/115/29 41/116/29
f 34/117/30 40/118/30 36/119/30
f 34/117/30 36/119/30 38/120/30
f 46/121/31 44/122/31 43/123/31
f 46/121/31 43/123/31 45/124/31
f 49/125/32 47/126/32 48/127/32
f 49/125/32 48/127/32 42/128/32
f 43/129/33 44/130/33 48/131/33
f 43/129/33 48/131/33 47/132/33
f 46/133/34 45/134/34 49/135/34
f 46/133/34 49/135/34 42/136/34
f 45/137/35 43/138/35 47/139/35
f 45/137/35 47/139/35 49/140/35
f 42/141/36 48/142/36 44/143/36
f 42/141/36 44/143/36 46/144/36
f 54/145/37 52/146/37 51/147/37
f 54/145/37 51/147/37 53/148/37
f 57/149/38 55/150/38 56/151/38
f 57/149/38 56/151/38 50/152/38
f 51/153/39 52/154/39 56/155/39
f 51/153/39 56/155/39 55/156/39
f 54/157/40 53/158/40 57/159/40
f 54/157/40 57/159/40 50/160/40
f 53/161/41 51/162/41 55/163/41
f 53/161/41 55/163/41 57/164/41
f 50/165/42 56/166/42 52/167/42
f 50/165/42 52/167/42 54/168/42
f 62/169/43 60/170/43 59/171/43
f 62/169/43 59/171/43 61/172/43
f 65/173/44 63/174/44 64/175/44
f 65/173/44 64/175/44 58/176/44
f 59/177/45 60/178/45 64/179/45
f 59/177/45 64/179/45 63/180/45
f 62/181/46 61/182/46 65/183/46
f 62/181/46 65/183/46 58/184/46
f 61/185/47 59/186/47 63/187/47
f 61/185/47 63/187/47 65/188/47
f 58/189/48 64/190/48 60/191/48
f 58/189/48 60/191/48 62/192/48
f 70/193/49 68/194/49 67/195/49
f 70/193/49 67/195/49 69/196/49
f 73/197/50 71/198/50 72/199/50
f 73/197/50 72/199/50 66/200/50
f 67/201/51 68/202/51 72/203/51
f 67/201/51 72/203/51 71/204/51
f 70/205/52 69/206/52 73/207/52
f 70/205/52 73/207/52 66/208/52
f 69/209/53 67/210/53 71/211/53
f 69/209/53 71/211/53 73/212/53
f 66/213/54 72/214/54 68/215/54
f 66/213/54 68/215/54 70/216/54
f 78/217/55 76/218/55 75/219/55
f 78/217/55 75/219/55 77/220/55
f 81/221/56 79/222/56 80/223/56
f 81/221/56 80/223/56 74/224/56
f 75/225/57 76/226/57 80/227/57
f 75/225/57 80/227/57 79/228/57
f 78/229/58 77/230/58 81/231/58
f 78/229/58 81/231/58 74/232/58
f 77/233/59 75/234/59 79/235/59
f 77/233/59 79/235/59 81/236/59
f 74/237/60 80/238/60 76/239/60
f 74/237/60 76/239/60 78/240/60
f 86/241/61 84/242/61 83/243/61
f 86/241/61 83/243/61 85/244/61
f 89/245/62 87/246/62 88/247/62
f 89/245/62 88/247/62 82/248/62
f 83/249/63 84/250/63 88/251/63
f 83/249/63 88/251/63 87/252/63
f 86/253/64 85/254/64 89/255/64
f 86/253/64 89/255/64 82/256/64
f 85/257/65 83/258/65 87/259/65
f 85/257/65 87/259/65 89/260/65
f 82/261/66 88/262/66 84/263/66
f 82/261/66 84/263/66 86/264/66
f 94/265/67 92/266/67 91/267/67
f 94/265/67 91/267/67 93/268/67
f 97/269/68 95/270/68 96/271/68
f 97/269/68 96/271/68 90/272/68
f 91/273/69 92/274/69 96/275/69
f 91/273/69 96/275/69 95/276/69
f 94/277/70 93/278/70 97/279/70
f 94/277/70 97/279/70 90/280/70
f 93/281/71 91/282/71 95/283/71
f 93/281/71 95/283/71 97/284/71
f 90/285/72 96/286/72 92/287/72
f 90/285/72 92/287/72 94/288/72
f 102/289/73 100/290/73 99/291/73
f 102/289/73 99/291/73 101/292/73
f 105/293/74 103/294/74 104/295/74
f 105/293/74 104/295/74 98/296/74
f 99/297/75 100/298/75 104/299/75
f 99/297/75 104/299/75 103/300/75
f 102/301/76 101/302/76 105/303/76
f 102/301/76 105/303/76 98/304/76
f 101/305/77 99/306/77 103/307/77
f 101/305/77 103/307/77 105/308/77
f 98/309/78 104/310/78 100/311/78
f 98/309/78 100/311/78 102/312/78
f 110/313/79 108/314/79 107/315/79
f 110/313/79 107/315/79 109/316/79
f 113/317/80 111/318/80 112/319/80
f 113/317/80 112/319/80 106/320/80
f 107/321/81 108/322/81 112/323/81
f 107/321/81 112/323/81 111/324/81
f 110/325/82 109/326/82 113/327/82
f 110/325/82 113/327/82 106/328/82
f 109/329/83 107/330/83 111/331/83
f 109/329/83 111/331/83 113/332/83
f 106/333/84 112/334/84 108/335/84
f 106/333/84 108/335/84 110/336/84
f 118/337/85 116/338/85 115/339/85
f 118/337/85 115/339/85 117/340/85
f 121/341/86 119/342/86 120/343/86
f 121/341/86 120/343/86 114/344/86
f 115/345/87 116/346/87 120/347/87
f 115/345/87 120/347/87 119/348/87
f 118/349/88 117/350/88 121/351/88
f 118/349/88 121/351/88 114/352/88
f 117/353/89 115/354/89 119/355/89
f 117/353/89 119/355/89 121/356/89
f 114/357/90 120/358/90 116/359/90
f 114/357/90 116/359/90 118/360/90
f 126/361/91 124/362/91 123/363/91
f 126/361/91 123/363/91 125/364/91
f 129/365/92 127/366/92 128/367/92
f 129/365/92 128/367/92 122/368/92
f 123/369/93 124/370/93 128/371/93
f 123/369/93 128/371/93 127/372/93
f 126/373/94 125/374/94 129/375/94
f 126/373/94 129/375/94 122/376/94
f 125/377/95 123/378/95 127/379/95
f 125/377/95 127/379/95 129/380/95
f 122/381/96 128/382/96 124/383/96
f 122/381/96 124/383/96 126/384/96
f 134/385/97 132/386/97 131/387/97
f 134/385/97 131/387/97 133/388/97
f 137/389/98 135/390/98 136/391/98
f 137/389/98 136/391/98 130/392/98
f 131/393/99 132/394/99 136/395/99
f 131/393/99 136/395/99 135/396/99
f 134/397/100 133/398/100 137/399/100
f 134/397/100 137/399/100 130/400/100
f 133/401/101 131/402/101 135/403/101
f 133/401/101 135/403/101 137/404/101
f 130/405/102 136/406/102 132/407/102
f 130/405/102 132/407/102 134/408/102
f 142/409/103 140/410/103 139/411/103
f 142/409/103 139/411/103 141/412/103
f 145/413/104 143/414/104 144/415/104
f 145/413/104 144/415/104 138/416/104
f 139/417/105 140/418/105 144/419/105
f 139/417/105 144/419/105 143/420/105
f 142/421/106 141/422/106 145/423/106
f 142/421/106 145/423/106 138/424/106
f 141/425/107 139/426/107 143/427/107
f 141/425/107 143/427/107 145/428/107
f 138/429/108 144/430/108 140/431/108
f 138/429/108 140/431/108 142/432/108
f 150/433/109 148/434/109 147/435/109
f 150/433/109 147/435/109 149/436/109
f 153/437/110 151/438/110 152/439/110
f 153/437/110 152/439/110 146/440/110
f 147/441/111 148/442/111 152/443/111
f 147/441/111 152/443/111 151/444/111
f 150/445/112 149/446/112 153/447/112
f 150/445/112 153/447/112 146/448/112
f 149/449/113 147/450/113 151/451/113
f 149/449/113 151/451/113 153/452/113
f 146/453/114 152/454/114 148/455/114
f 146/453/114 148/455/114 150/456/114
f 158/457/115 156/458/115 155/459/115
f 158/457/115 155/459/115 157/460/115
f 161/461/116 159/462/116 160/463/116
f 161/461/116 160/463/116 154/464/116
f 155/465/117 156/466/117 160/467/117
f 155/465/117 160/467/117 159/468/117
f 158/469/118 157/470/118 161/471/118
f 158/469/118 161/471/118 154/472/118
f 157/473/119 155/474/119 159/475/119
f 157/473/119 159/475/119 161/476/119
f 154/477/120 160/478/120 156/479/120
f 154/477/120 156/479/120 158/480/120
f 166/481/121 164/482/121 163/483/121
f 166/481/121 163/483/121 165/484/121
f 169/485/122 167/486/122 168/487/122
f 169/485/122 168/487/122 162/488/122
f 163/489/123 164/490/123 168/491/123
f 163/489/123 168/491/123 167/492/123
f 166/493/124 165/494/124 169/495/124
f 166/493/124 169/495/124 162/496/124
f 165/497/125 163/498/125 167/499/125
f 165/497/125 167/499/125 169/500/125
f 162/501/126 168/502/126 164/503/126
f 162/501/126 164/503/126 166/504/126
f 174/505/127 172/506/127 171/507/127
f 174/505/127 171/507/127 173/508/127
f 177/509/128 175/510/128 176/511/128
f 177/509/128 176/511/128 170/512/128
f 171/513/129 172/514/129 176/515/129
f 171/513/129 176/515/129 175/516/129
f 174/517/130 173/518/130 177/519/130
f 174/517/130 177/519/130 170/520/130
f 173/521/131 171/522/131 175/523/131
f 173/521/131 175/523/131 177/524/131
f 170/525/132 176/526/132 172/527/132
f 170/525/132 172/527/132 174/528/132
f 1/529/133 180/530/133 179/531/133
f 1/529/133 179/531/133 181/532/133
f 184/533/134 182/534/134 183/535/134
f 184/533/134 183/535/134 178/536/134
f 179/537/135 180/538/135 183/539/135
f 179/537/135 183/539/135 182/540/135
f 1/541/136 181/542/136 184/543/136
f 1/541/136 184/543/136 178/544/136
f 181/545/137 179/546/137 182/547/137
f 181/545/137 182/547/137 184/548/137
f 178/549/138 183/550/138 180/551/138
f 178/549/138 180/551/138 1/552/138
f 189/553/139 187/554/139 186/555/139
f 189/553/139 186/555/139 188/556/139
f 192/557/140 190/558/140 191/559/140
f 192/557/140 191/559/140 185/560/140
f 186/561/141 187/562/141 191/563/141
f 186/561/141 191/563/141 190/564/141
f 189/565/142 188/566/142 192/567/142
f 189/565/142 192/567/142 185/568/142
f 188/569/143 186/570/143 190/571/143
f 188/569/143 190/571/143 192/572/143
f 185/573/144 191/574/144 187/575/144
f 185/573/144 187/575/144 189/576/144
f 197/577/145 195/578/145 194/579/145
f 197/577/145 194/579/145 196/580/145
f 200/581/146 198/582/146 199/583/146
f 200/581/146 199/583/146 193/584/146
f 194/585/147 195/586/147 199/587/147
f 194/585/147 199/587/147 198/588/147
f 197/589/148 196/590/148 200/591/148
f 197/589/148 200/591/148 193/592/148
f 196/593/149 194/594/149 198/595/149
f 196/593/149 198/595/149 200/596/149
f 193/597/150 199/598/150 195/599/150
f 193/597/150 195/599/150 197/600/150
f 205/601/151 203/602/151 202/603/151
f 205/601/151 202/603/151 204/604/151
f 208/605/152 206/606/152 207/607/152
f 208/605/152 207/607/152 201/608/152
f 202/609/153 203/610/153 207/611/153
f 202/609/153 207/611/153 206/612/153
f 205/613/154 204/614/154 208/615/154
f 205/613/154 208/615/154 201/616/154
f 204/617/155 202/618/155 206/619/155
f 204/617/155 206/619/155 208/620/155
f 201/621/156 207/622/156 203/623/156
f 201/621/156 203/623/156 205/624/156
f 213/625/157 211/626/157 210/627/157
f 213/625/157 210/627/157 212/628/157
f 216/629/158 214/630/158 215/631/158
f 216/629/158 215/631/158 209/632/158
f 210/633/159 211/634/159 215/635/159
f 210/633/159 215/635/159 214/636/159
f 213/637/160 212/638/160 216/639/160
f 213/637/160 216/639/160 209/640/160
f 212/641/161 210/642/161 214/643/161
f 212/641/161 214/643/161 216/644/161
f 209/645/162 215/646/162 211/647/162
f 209/645/162 211/647/162 213/648/162
f 221/649/163 219/650/163 218/651/163
f 221/649/163 218/651/163 220/652/163
f 224/653/164 222/654/164 223/655/164
f 224/653/164 223/655/164 217/656/164
f 218/657/165 219/658/165 223/659/165
f 218/657/165 223/659/165 222/660/165
f 221/661/166 220/662/166 224/663/166
f 221/661/166 224/663/166 217/664/166
f 220/665/167 218/666/167 222/667/167
f 220/665/167 222/667/167 224/668/167
f 217/669/168 223/670/168 219/671/168
f 217/669/168 219/671/168 221/672/168
f 229/673/169 227/674/169 226/675/169
f 229/673/169 226/675/169 228/676/169
f 232/677/170 230/678/170 231/679/170
f 232/677/170 231/679/170 225/680/170
f 226/681/171 227/682/171 231/683/171
f 226/681/171 231/683/171 230/684/171
f 229/685/172 228/686/172 232/687/172
f 229/685/172 232/687/172 225/688/172
f 228/689/173 226/690/173 230/691/173
f 228/689/173 230/691/173 232/692/173
f 225/693/174 231/694/174 227/695/174
f 225/693/174 227/695/174 229/696/174
f 237/697/175 235/698/175 234/699/175
f 237/697/175 234/699/175 236/700/175
f 240/701/176 238/702/176 239/703/176
f 240/701/176 239/703/176 233/704/176
f 234/705/177 235/706/177 239/707/177
f 234/705/177 239/707/177 238/708/177
f 237/709/178 236/710/178 240/711/178
f 237/709/178 240/711/178 233/712/178
f 236/713/179 234/714/179 238/715/179
f 236/713/179 238/715/179 240/716/179
f 233/717/180 239/718/180 235/719/180
f 233/717/180 235/719/180 237/720/180
f 245/721/181 243/722/181 242/723/181
f 245/721/181 242/723/181 244/724/181
f 248/725/182 246/726/182 247/727/182
f 248/725/182 247/727/182 241/728/182
f 242/729/183 243/730/183 247/731/183
f 242/729/183 247/731/183 246/732/183
f 245/733/184 244/734/184 248/735/184
f 245/733/184 248/735/184 241/736/184
f 244/737/185 242/738/185 246/739/185
f 244/737/185 246/739/185 248/740/185
f 241/741/186 247/742/186 243/743/186
f 241/741/186 243/743/186 245/744/186
f 253/745/187 251/746/187 250/747/187
f 253/745/187 250/747/187 252/748/187
f 256/749/188 254/750/188 255/751/188
f 256/749/188 255/751/188 249/752/188
f 250/753/189 251/754/189 255/755/189
f 250/753/189 255/755/189 254/756/189
f 253/757/190 252/758/190 256/759/190
f 253/757/190 256/759/190 249/760/190
f 252/761/191 250/762/191 254/763/191
f 252/761/191 254/763/191 256/764/191
f 249/765/192 255/766/192 251/767/192
f 249/765/192 251/767/192 253/768/192
f 261/769/193 259/770/193 258/771/193
f 261/769/193 258/771/193 260/772/193
f 264/773/194 262/774/194 263/775/194
f 264/773/194 263/775/194 257/776/194
f 258/777/195 259/778/195 263/779/195
f 258/777/195 263/779/195 262/780/195
f 261/781/196 260/782/196 264/783/196
f 261/781/196 264/783/196 257/784/196
f 260/785/197 258/786/197 262/787/197
f 260/785/197 262/787/197 264/788/197
f 257/789/198 263/790/198 259/791/198
f 257/789/198 259/791/198 261/792/198
f 269/793/199 267/794/199 266/795/199
f 269/793/199 266/795/199 268/796/199
f 272/797/200 270/798/200 271/799/200
f 272/797/200 271/799/200 265/800/200
f 266/801/201 267/802/201 271/803/201
f 266/801/201 271/803/201 270/804/201
f 269/805/202 268/806/202 272/807/202
f 269/805/202 272/807/202 265/808/202
f 268/809/203 266/810/203 270/811/203
f 268/809/203 270/811/203 272/812/203
f 265/813/204 271/814/204 267/815/204
f 265/813/204 267/815/204 269/816/204
f 277/817/205 275/818/205 274/819/205
f 277/817/205 274/819/205 276/820/205
f 280/821/206 278/822/206 279/823/206
f 280/821/206 279/823/206 273/824/206
f 274/825/207 275/826/207 279/827/207
f 274/825/207 279/827/207 278/828/207
f 277/829/208 276/830/208 280/831/208
f 277/829/208 280/831/208 273/832/208
f 276/833/209 274/834/209 278/835/209
f 276/833/209 278/835/209 280/836/209
f 273/837/210 279/838/210 275/839/210
f 273/837/210 275/839/210 277/840/210
f 285/841/211 283/842/211 282/843/211
f 285/841/211 282/843/211 284/844/211
f 288/845/212 286/846/212 287/847/212
f 288/845/212 287/847/212 281/848/212
f 282/849/213 283/850/213 287/851/213
f 282/849/213 287/851/213 286/852/213
f 285/853/214 284/854/214 288/855/214
f 285/853/214 288/855/214 281/856/214
f 284/857/215 282/858/215 286/859/215
f 284/857/215 286/859/215 288/860/215
f 281/861/216 287/862/216 283/863/216
f 281/861/216 283/863/216 285/864/216
f 293/865/217 291/866/217 290/867/217
f 293/865/217 290/867/217 292/868/217
f 296/869/218 294/870/218 295/871/218
f 296/869/218 295/871/218 289/872/218
f 290/873/219 291/874/219 295/875/219
f 290/873/219 295/875/219 294/876/219
f 293/877/220 292/878/220 296/879/220
f 293/877/220 296/879/220 289/880/220
f 292/881/221 290/882/221 294/883/221
f 292/881/221 294/883/221 296/884/221
f 289/885/222 295/886/222 291/887/222
f 289/885/222 291/887/222 293/888/222
f 301/889/223 299/890/223 298/891/223
f 301/889/223 298/891/223 300/892/223
f 304/893/224 302/894/224 303/895/224
f 304/893/224 303/895/224 297/896/224
f 298/897/225 299/898/225 303/899/225
f 298/897/225 303/899/225 302/900/225
f 301/901/226 300/902/226 304/903/226
f 301/901/226 304/903/226 297/904/226
f 300/905/227 298/906/227 302/907/227
f 300/905/227 302/907/227 304/908/227
f 297/909/228 303/910/228 299/911/228
f 297/909/228 299/911/228 301/912/228
f 309/913/229 307/914/229 306/915/229
f 309/913/229 306/915/229 308/916/229
f 312/917/230 310/918/230 311/919/230
f 312/917/230 311/919/230 305/920/230
f 306/921/231 307/922/231 311/923/231
f 306/921/231 311/923/231 310/924/231
f 309/925/232 308/926/232 312/927/232
f 309/925/232 312/927/232 305/928/232
f 308/929/233 306/930/233 310/931/233
f 308/929/233 310/931/233 312/932/233
f 305/933/234 311/934/234 307/935/234
f 305/933/234 307/935/234 309/936/234
f 317/937/235 315/938/235 314/939/235
f 317/937/235 314/939/235 316/940/235
f 320/941/236 318/942/236 319/943/236
f 320/941/236 319/943/236 313/944/236
f 314/945/237 315/946/237 319/947/237
f 314/945/237 319/947/237 318/948/237
f 317/949/238 316/950/238 320/951/238
f 317/949/238 320/951/238 313/952/238
f 316/953/239 314/954/239 318/955/239
f 316/953/239 318/955/239 320/956/239
f 313/957/240 319/958/240 315/959/240
f 313/957/240 315/959/240 317/960/240
f 325/961/241 323/962/241 322/963/241
f 325/961/241 322/963/241 324/964/241
f 328/965/242 326/966/242 327/967/242
f 328/965/242 327/967/242 321/968/242
f 322/969/243 323/970/243 327/971/243
f 322/969/243 327/971/243 326/972/243
f 325/973/244 324/974/244 328/975/244
f 325/973/244 328/975/244 321/976/244
f 324/977/245 322/978/245 326/979/245
f 324/977/245 326/979/245 328/980/245
f 321/981/246 327/982/246 323/983/246
f 321/981/246 323/983/246 325/984/246
f 333/985/247 331/986/247 330/987/247
f 333/985/247 330/987/247 332/988/247
f 336/989/248 334/990/248 335/991/248
f 336/989/248 335/991/248 329/992/248
f 330/993/249 331/994/249 335/995/249
f 330/993/249 335/995/249 334/996/249
f 333/997/250 332/998/250 336/999/250
f 333/997/250 336/999/250 329/1000/250
f 332/1001/251 330/1002/251 334/1003/251
f 332/1001/251 334/1003/251 336/1004/251
f 329/1005/252 335/1006/252 331/1007/252
f 329/1005/252 331/1007/252 333/1008/252
f 341/1009/253 339/1010/253 338/1011/253
f 341/1009/253 338/1011/253 340/1012/253
f 344/1013/254 342/1014/254 343/1015/254
f 344/1013/254 343/1015/254 337/1016/254
f 338/1017/255 339/1018/255 343/1019/255
f 338/1017/255 343/1019/255 342/1020/255
f 341/1021/256 340/1022/256 344/1023/256
f 341/1021/256 344/1023/256 337/1024/256
f 340/1025/257 338/1026/257 342/1027/257
f 340/1025/257 342/1027/257 344/1028/257
f 337/1029/258 343/1030/258 339/1031/258
f 337/1029/258 339/1031/258 341/1032/258
f 349/1033/259 347/1034/259 346/1035/259
f 349/1033/259 346/1035/259 348/1036/259
f 352/1037/260 350/1038/260 351/1039/260
f 352/1037/260 351/1039/260 345/1040/260
f 346/1041/261 347/1042/261 351/1043/261
f 346/1041/261 351/1043/261 350/1044/261
f 349/1045/262 348/1046/262 352/1047/262
f 349/1045/262 352/1047/262 345/1048/262
f 348/1049/263 346/1050/263 350/1051/263
f 348/1049/263 350/1051/263 352/1052/263
f 345/1053/264 351/1054/264 347/1055/264
f 345/1053/264 347/1055/264 349/1056/264
f 357/1057/265 355/1058/265 354/1059/265
f 357/1057/265 354/1059/265 356/1060/265
f 360/1061/266 358/1062/266 359/1063/266
f 360/1061/266 359/1063/266 353/1064/266
f 354/1065/267 355/1066/267 359/1067/267
f 354/1065/267 359/1067/267 358/1068/267
f 357/1069/268 356/1070/268 360/1071/268
f 357/1069/268 360/1071/268 353/1072/268
f 356/1073/269 354/1074/269 358/1075/269
f 356/1073/269 358/1075/269 360/1076/269
f 353/1077/270 359/1078/270 355/1079/270
f 353/1077/270 355/1079/270 357/1080/270
f 365/1081/271 363/1082/271 362/1083/271
f 365/1081/271 362/1083/271 364/1084/271
f 368/1085/272 366/1086/272 367/1087/272
f 368/1085/272 367/1087/272 361/1088/272
f 362/1089/273 363/1090/273 367/1091/273
f 362/1089/273 367/1091/273 366/1092/273
f 365/1093/274 364/1094/274 368/1095/274
f 365/1093/274 368/1095/274 361/1096/274
f 364/1097/275 362/1098/275 366/1099/275
f 364/1097/275 366/1099/275 368/1100/275
f 361/1101/276 367/1102/276 363/1103/276
f 361/1101/276 363/1103/276 365/1104/276
f 373/1105/277 371/1106/277 370/1107/277
f 373/1105/277 370/1107/277 372/1108/277
f 376/1109/278 374/1110/278 375/1111/278
f 376/1109/278 375/1111/278 369/1112/278
f 370/1113/279 371/1114/279 375/1115/279
f 370/1113/279 375/1115/279 374/1116/279
f 373/1117/280 372/1118/280 376/1119/280
f 373/1117/280 376/1119/280 369/1120/280
f 372/1121/281 370/1122/281 374/1123/281
f 372/1121/281 374/1123/281 376/1124/281
f 369/1125/282 375/1126/282 371/1127/282
f 369/1125/282 371/1127/282 373/1128/282
f 381/1129/283 379/1130/283 378/1131/283
f 381/1129/283 378/1131/283 380/1132/283
f 384/1133/284 382/1134/284 383/1135/284
f 384/1133/284 383/1135/284 377/1136/284
f 378/1137/285 379/1138/285 383/1139/285
f 378/1137/285 383/1139/285 382/1140/285
f 381/1141/286 380/1142/286 384/1143/286
f 381/1141/286 384/1143/286 377/1144/286
f 380/1145/287 378/1146/287 382/1147/287
f 380/1145/287 382/1147/287 384/1148/287
f 377/1149/288 383/1150/288 379/1151/288
f 377/1149/288 379/1151/288 381/1152/288
f 389/1153/289 387/1154/289 386/1155/289
f 389/1153/289 386/1155/289 388/1156/289
f 392/1157/290 390/1158/290 391/1159/290
f 392/1157/290 391/1159/290 385/1160/290
f 386/1161/291 387/1162/291 391/1163/291
f 386/1161/291 391/1163/291 390/1164/291
f 389/1165/292 388/1166/292 392/1167/292
f 389/1165/292 392/1167/292 385/1168/292
f 388/1169/293 386/1170/293 390/1171/293
f 388/1169/293 390/1171/293 392/1172/293
f 385/1173/294 391/1174/294 387/1175/294
f 385/1173/294 387/1175/294 389/1176/294
f 397/1177/295 395/1178/295 394/1179/295
f 397/1177/295 394/1179/295 396/1180/295
f 400/1181/296 398/1182/296 399/1183/296
f 400/1181/296 399/1183/296 393/1184/296
f 394/1185/297 395/1186/297 399/1187/297
f 394/1185/297 399/1187/297 398/1188/297
f 397/1189/298 396/1190/298 400/1191/298
f 397/1189/298 400/1191/298 393/1192/298
f 396/1193/299 394/1194/299 398/1195/299
f 396/1193/299 398/1195/299 400/1196/299
f 393/1197/300 399/1198/300 395/1199/300
f 393/1197/300 395/1199/300 397/1200/300
f 405/1201/301 403/1202/301 402/1203/301
f 405/1201/301 402/1203/301 404/1204/301
f 408/1205/302 406/1206/302 407/1207/302
f 408/1205/302 407/1207/302 401/1208/302
f 402/1209/303 403/1210/303 407/1211/303
f 402/1209/303 407/1211/303 406/1212/303
f 405/1213/304 404/1214/304 408/1215/304
f 405/1213/304 408/1215/304 401/1216/304
f 404/1217/305 402/1218/305 406/1219/305
f 404/1217/305 406/1219/305 408/1220/305
f 401/1221/306 407/1222/306 403/1223/306
f 401/1221/306 403/1223/306 405/1224/306
f 413/1225/307 411/1226/307 410/1227/307
f 413/1225/307 410/1227/307 412/1228/307
f 416/1229/308 414/1230/308 415/1231/308
f 416/1229/308 415/1231/308 409/1232/308
f 410/1233/309 411/1234/309 415/1235/309
f 410/1233/309 415/1235/309 414/1236/309
f 413/1237/310 412/1238/310 416/1239/310
f 413/1237/310 416/1239/310 409/1240/310
f 412/1241/311 410/1242/311 414/1243/311
f 412/1241/311 414/1243/311 416/1244/311
f 409/1245/312 415/1246/312 411/1247/312
f 409/1245/312 411/1247/312 413/1248/312
f 421/1249/313 419/1250/313 418/1251/313
f 421/1249/313 418/1251/313 420/1252/313
f 424/1253/314 422/1254/314 423/1255/314
f 424/1253/314 423/1255/314 417/1256/314
f 418/1257/315 419/1258/315 423/1259/315
f 418/1257/315 423/1259/315 422/1260/315
f 421/1261/316 420/1262/316 424/1263/316
f 421/1261/316 424/1263/316 417/1264/316
f 420/1265/317 418/1266/317 422/1267/317
f 420/1265/317 422/1267/317 424/1268/317
f 417/1269/318 423/1270/318 419/1271/318
f 417/1269/318 419/1271/318 421/1272/318
f 429/1273/319 427/1274/319 426/1275/319
f 429/1273/319 426/1275/319 428/1276/319
f 432/1277/320 430/1278/320 431/1279/320
f 432/1277/320 431/1279/320 425/1280/320
f 426/1281/321 427/1282/321 431/1283/321
f 426/1281/321 431/1283/321 430/1284/321
f 429/1285/322 428/1286/322 432/1287/322
f 429/1285/322 432/1287/322 425/1288/322
f 428/1289/323 426/1290/323 430/1291/323
f 428/1289/323 430/1291/323 432/1292/323
f 425/1293/324 431/1294/324 427/1295/324
f 425/1293/324 427/1295/324 429/1296/324
f 437/1297/325 435/1298/325 434/1299/325
f 437/1297/325 434/1299/325 436/1300/325
f 440/1301/326 438/1302/326 439/1303/326
f 440/1301/326 439/1303/326 433/1304/326
f 434/1305/327 435/1306/327 439/1307/327
f 434/1305/327 439/1307/327 438/1308/327
f 437/1309/328 436/1310/328 440/1311/328
f 437/1309/328 440/1311/328 433/1312/328
f 436/1313/329 434/1314/329 438/1315/329
f 436/1313/329 438/1315/329 440/1316/329
f 433/1317/330 439/1318/330 435/1319/330
f 433/1317/330 435/1319/330 437/1320/330
f 445/1321/331 443/1322/331 442/1323/331
f 445/1321/331 442/1323/331 444/1324/331
f 448/1325/332 446/1326/332 447/1327/332
f 448/1325/332 447/1327/332 441/1328/332
f 442/1329/333 443/1330/333 447/1331/333
f 442/1329/333 447/1331/333 446/1332/333
f 445/1333/334 444/1334/334 448/1335/334
f 445/1333/334 448/1335/334 441/1336/334
f 444/1337/335 442/1338/335 446/1339/335
f 444/1337/335 446/1339/335 448/1340/335
f 441/1341/336 447/1342/336 443/1343/336
f 441/1341/336 443/1343/336 445/1344/336
f 453/1345/337 451/1346/337 450/1347/337
f 453/1345/337 450/1347/337 452/1348/337
f 456/1349/338 454/1350/338 455/1351/338
f 456/1349/338 455/1351/338 449/1352/338
f 450/1353/339 451/1354/339 455/1355/339
f 450/1353/339 455/1355/339 454/1356/339
f 453/1357/340 452/1358/340 456/1359/340
f 453/1357/340 456/1359/340 449/1360/340
f 452/1361/341 450/1362/341 454/1363/341
f 452/1361/341 454/1363/341 456/1364/341
f 449/1365/342 455/1366/342 451/1367/342
f 449/1365/342 451/1367/342 453/1368/342
f 461/1369/343 459/1370/343 458/1371/343
f 461/1369/343 458/1371/343 460/1372/343
f 464/1373/344 462/1374/344 463/1375/344
f 464/1373/344 463/1375/344 457/1376/344
f 458/1377/345 459/1378/345 463/1379/345
f 458/1377/345 463/1379/345 462/1380/345
f 461/1381/346 460/1382/346 464/1383/346
f 461/1381/346 464/1383/346 457/1384/346
f 460/1385/347 458/1386/347 462/1387/347
f 460/1385/347 462/1387/347 464/1388/347
f 457/1389/348 463/1390/348 459/1391/348
f 457/1389/348 459/1391/348 461/1392/348
f 469/1393/349 467/1394/349 466/1395/349
f 469/1393/349 466/1395/349 468/1396/349
f 472/1397/350 470/1398/350 471/1399/350
f 472/1397/350 471/1399/350 465/1400/350
f 466/1401/351 467/1402/351 471/1403/351
f 466/1401/351 471/1403/351 470/1404/351
f 469/1405/352 468/1406/352 472/1407/352
f 469/1405/352 472/1407/352 465/1408/352
f 468/1409/353 466/1410/353 470/1411/353
f 468/1409/353 470/1411/353 472/1412/353
f 465/1413/354 471/1414/354 467/1415/354
f 465/1413/354 467/1415/354 469/1416/354
f 477/1417/355 475/1418/355 474/1419/355
f 477/1417/355 474/1419/355 476/1420/355
f 480/1421/356 478/1422/356 479/1423/356
f 480/1421/356 479/1423/356 473/1424/356
f 474/1425/357 475/1426/357 479/1427/357
f 474/1425/357 479/1427/357 478/1428/357
f 477/1429/358 476/1430/358 480/1431/358
f 477/1429/358 480/1431/358 473/1432/358
f 476/1433/359 474/1434/359 478/1435/359
f 476/1433/359 478/1435/359 480/1436/359
f 473/1437/360 479/1438/360 475/1439/360
f 473/1437/360 475/1439/360 477/1440/360