# Made by Pabilo8 with Blockbench
# Exported with IIToolkit Plugin
mtllib variants.mtl


o style
v 1.30625 -2.3655475 0.44842125
v 1.375 -2.1875 0.75
v 1.375 -2.1875 0.625
v 1.5 -2.75 0.625
v 1.5 -2.75 0.5
v -0.25 -2.1875 0.75
v -0.25 -2.1875 0.625
v -0.375 -2.75 0.625
v -0.375 -2.75 0.5
v 1.375 -2.1875 2.1875
v 1.375 -2.1875 2.3125
v 1.5 -2.75 2.3125
v 1.5 -2.75 2.4375
v -0.25 -2.1875 2.1875
v -0.25 -2.1875 2.3125
v -0.375 -2.75 2.3125
v -0.375 -2.75 2.4375
v 1.25 -2.1875 0.75
v 1.25 -2.1875 2.1875
v 1.375 -2.75 0.625
v 1.375 -2.75 2.3125
v 1.375 -2.1875 0.75
v 1.375 -2.1875 2.1875
v 1.5 -2.75 0.625
v 1.5 -2.75 2.3125
v -0.125 -2.1875 0.75
v -0.125 -2.1875 2.1875
v -0.25 -2.75 0.625
v -0.25 -2.75 2.3125
v -0.25 -2.1875 0.75
v -0.25 -2.1875 2.1875
v -0.375 -2.75 0.625
v -0.375 -2.75 2.3125
v 1.25 -2 0.75
v 1.25 -2 0.5625
v 1.25 -2.1875 0.75
v 1.25 -2.1875 0.5625
v -0.125 -2 0.75
v -0.125 -2 0.5625
v -0.125 -2.1875 0.75
v -0.125 -2.1875 0.5625
v 1.25 -2 2.375
v 1.25 -2 2.1875
v 1.25 -2.1875 2.375
v 1.25 -2.1875 2.1875
v -0.125 -2 2.375
v -0.125 -2 2.1875
v -0.125 -2.1875 2.375
v -0.125 -2.1875 2.1875
v 1.4375 -2 2.375
v 1.4375 -2 0.5625
v 1.4375 -2.1875 2.375
v 1.4375 -2.1875 0.5625
v 1.25 -2 2.375
v 1.25 -2 0.5625
v 1.25 -2.1875 2.375
v 1.25 -2.1875 0.5625
v -0.125 -2 2.375
v -0.125 -2 0.5625
v -0.125 -2.1875 2.375
v -0.125 -2.1875 0.5625
v -0.3125 -2 2.375
v -0.3125 -2 0.5625
v -0.3125 -2.1875 2.375
v -0.3125 -2.1875 0.5625
v 1.4375 -2 1.4375
v 1.4375 -2.1875 1.4375
v 1.25 -2.1875 1.4375
v 1.25 -2 1.4375
v 0.5625 -2 2.375
v 0.5625 -2.1875 2.375
v 0.5625 -2.1875 2.1875
v 0.5625 -2 2.1875
v -0.3125 -2 1.4375
v -0.3125 -2.1875 1.4375
v -0.125 -2.1875 1.4375
v -0.125 -2 1.4375
v 0.5625 -2 0.5625
v 0.5625 -2.1875 0.5625
v 0.5625 -2.1875 0.75
v 0.5625 -2 0.75
v 1.30625 -2.321118125 2.33605375
v -0.25625 -2.321118125 2.33605375
v 1.30625 -2.40769625 2.502368125
v -0.25625 -2.40769625 2.502368125
v 1.30625 -2.15480375 2.422631875
v -0.25625 -2.15480375 2.422631875
v 1.30625 -2.241381875 2.58894625
v -0.25625 -2.241381875 2.58894625
v 0.55625 -2.321118125 2.33605375
v 0.55625 -2.15480375 2.422631875
v 0.55625 -2.241381875 2.58894625
v 0.55625 -2.40769625 2.502368125
v 1.30625 -2.30782875 2.3782025
v -0.25625 -2.30782875 2.3782025
v 1.30625 -2.3655475 2.48907875
v -0.25625 -2.3655475 2.48907875
v 1.30625 -2.1969525 2.43592125
v -0.25625 -2.1969525 2.43592125
v 1.30625 -2.25467125 2.5467975
v -0.25625 -2.25467125 2.5467975
v -0.125 -2.1875 0.75
v -0.125 -2.1875 0.5625
v -0.25 -2.75 0.625
v -0.25 -2.75 0.4375
v -0.3125 -2.1875 0.75
v -0.3125 -2.1875 0.5625
v -0.4375 -2.75 0.625
v -0.4375 -2.75 0.4375
v -0.125 -2.1875 2.1875
v -0.125 -2.1875 2.375
v -0.25 -2.75 2.3125
v -0.25 -2.75 2.5
v -0.3125 -2.1875 2.1875
v -0.3125 -2.1875 2.375
v -0.4375 -2.75 2.3125
v -0.4375 -2.75 2.5
v 1.25 -2.1875 0.75
v 1.25 -2.1875 0.5625
v 1.375 -2.75 0.625
v 1.375 -2.75 0.4375
v 1.4375 -2.1875 0.75
v 1.4375 -2.1875 0.5625
v 1.5625 -2.75 0.625
v 1.5625 -2.75 0.4375
v 1.25 -2.1875 2.1875
v 1.25 -2.1875 2.375
v 1.375 -2.75 2.3125
v 1.375 -2.75 2.5
v 1.4375 -2.1875 2.1875
v 1.4375 -2.1875 2.375
v 1.5625 -2.75 2.3125
v 1.5625 -2.75 2.5
v -0.27980375 -2.321118125 2.25
v -0.27980375 -2.321118125 0.6875
v -0.44611812500000003 -2.40769625 2.25
v -0.44611812500000003 -2.40769625 0.6875
v -0.36638187499999997 -2.15480375 2.25
v -0.36638187499999997 -2.15480375 0.6875
v -0.53269625 -2.241381875 2.25
v -0.53269625 -2.241381875 0.6875
v -0.27980375 -2.321118125 1.5
v -0.36638187499999997 -2.15480375 1.5
v -0.53269625 -2.241381875 1.5
v -0.44611812500000003 -2.40769625 1.5
v -0.3219525 -2.30782875 2.25
v -0.3219525 -2.30782875 0.6875
v -0.43282875 -2.3655475 2.25
v -0.43282875 -2.3655475 0.6875
v -0.37967125 -2.1969525 2.25
v -0.37967125 -2.1969525 0.6875
v -0.4905475 -2.25467125 2.25
v -0.4905475 -2.25467125 0.6875
v 1.40480375 -2.321118125 2.25
v 1.40480375 -2.321118125 0.6875
v 1.571118125 -2.40769625 2.25
v 1.571118125 -2.40769625 0.6875
v 1.491381875 -2.15480375 2.25
v 1.491381875 -2.15480375 0.6875
v 1.65769625 -2.241381875 2.25
v 1.65769625 -2.241381875 0.6875
v 1.40480375 -2.321118125 1.5
v 1.491381875 -2.15480375 1.5
v 1.65769625 -2.241381875 1.5
v 1.571118125 -2.40769625 1.5
v 1.4469525 -2.30782875 2.25
v 1.4469525 -2.30782875 0.6875
v 1.55782875 -2.3655475 2.25
v 1.55782875 -2.3655475 0.6875
v 1.50467125 -2.1969525 2.25
v 1.50467125 -2.1969525 0.6875
v 1.6155475 -2.25467125 2.25
v 1.6155475 -2.25467125 0.6875
v 1.30625 -2.321118125 0.60144625
v -0.25625 -2.321118125 0.60144625
v 1.30625 -2.40769625 0.43513187499999995
v -0.25625 -2.40769625 0.43513187499999995
v 1.30625 -2.15480375 0.514868125
v -0.25625 -2.15480375 0.514868125
v 1.30625 -2.241381875 0.34855375
v -0.25625 -2.241381875 0.34855375
v 0.55625 -2.321118125 0.60144625
v 0.55625 -2.15480375 0.514868125
v 0.55625 -2.241381875 0.34855375
v 0.55625 -2.40769625 0.43513187499999995
v 1.30625 -2.30782875 0.5592975
v -0.25625 -2.30782875 0.5592975
v -0.25625 -2.3655475 0.44842125
v 1.30625 -2.1969525 0.50157875
v -0.25625 -2.1969525 0.50157875
v 1.30625 -2.25467125 0.39070249999999995
v -0.25625 -2.25467125 0.39070249999999995
vt 0.140625 0.859375
vt 0.171875 1
vt 0.203125 1
vt 0.171875 0.859375
vt 0.171875 0.859375
vt 0.203125 1
vt 0.171875 1
vt 0.140625 0.859375
vt 0.609375 0.859375
vt 0.578125 1
vt 0.171875 1
vt 0.140625 0.859375
vt 0.140625 0.859375
vt 0.171875 1
vt 0.578125 1
vt 0.609375 0.859375
vt 0.5625 1
vt 0.59375 1
vt 0.625 0.859375
vt 0.59375 0.859375
vt 0.59375 1
vt 0.5625 1
vt 0.59375 0.859375
vt 0.625 0.859375
vt 0.171875 1
vt 0.578125 1
vt 0.609375 0.859375
vt 0.140625 0.859375
vt 0.578125 1
vt 0.171875 1
vt 0.140625 0.859375
vt 0.609375 0.859375
vt 0.59375 0.859375
vt 0.5625 1
vt 0.203125 1
vt 0.171875 0.859375
vt 0.171875 0.859375
vt 0.203125 1
vt 0.5625 1
vt 0.59375 0.859375
vt 0.203125 1
vt 0.5625 1
vt 0.59375 0.859375
vt 0.171875 0.859375
vt 0.5625 1
vt 0.203125 1
vt 0.171875 0.859375
vt 0.59375 0.859375
vt 0.75 0.828125
vt 0.75 1
vt 0.703125 1
vt 0.703125 0.828125
vt 0.75 0.828125
vt 0.75 1
vt 0.703125 1
vt 0.703125 0.828125
vt 0.75 0.828125
vt 0.75 1
vt 0.703125 1
vt 0.703125 0.828125
vt 0.703125 0.953125
vt 0.703125 0.78125
vt 0.75 0.78125
vt 0.75 0.953125
vt 0.703125 0.953125
vt 0.703125 0.78125
vt 0.75 0.78125
vt 0.75 0.953125
vt 0.703125 0.953125
vt 0.703125 0.78125
vt 0.75 0.78125
vt 0.75 0.953125
vt 0.703125 0.953125
vt 0.703125 0.78125
vt 0.75 0.78125
vt 0.75 0.953125
vt 0.75 0.828125
vt 0.75 1
vt 0.703125 1
vt 0.703125 0.828125
vt 0.703125 1
vt 0.703125 0.765625
vt 0.75 0.765625
vt 0.75 1
vt 0.75 0.765625
vt 0.75 1
vt 0.703125 1
vt 0.703125 0.765625
vt 0.75 0.765625
vt 0.75 1
vt 0.703125 1
vt 0.703125 0.765625
vt 0.703125 1
vt 0.703125 0.765625
vt 0.75 0.765625
vt 0.75 1
vt 0.75 0.953125
vt 0.796875 0.953125
vt 0.796875 1
vt 0.75 1
vt 0.75 0.953125
vt 0.796875 0.953125
vt 0.796875 1
vt 0.75 1
vt 0.75 0.765625
vt 0.75 0.984375
vt 0.703125 0.984375
vt 0.703125 0.765625
vt 0.703125 1
vt 0.703125 0.78125
vt 0.75 0.78125
vt 0.75 1
vt 0.703125 1
vt 0.703125 0.78125
vt 0.75 0.78125
vt 0.75 1
vt 0.75 0.765625
vt 0.75 0.984375
vt 0.703125 0.984375
vt 0.703125 0.765625
vt 0.75 0.953125
vt 0.796875 0.953125
vt 0.796875 1
vt 0.75 1
vt 0.75 0.953125
vt 0.796875 0.953125
vt 0.796875 1
vt 0.75 1
vt 0.75 0.765625
vt 0.75 0.984375
vt 0.703125 0.984375
vt 0.703125 0.765625
vt 0.75 0.765625
vt 0.75 0.984375
vt 0.703125 0.984375
vt 0.703125 0.765625
vt 0.703125 1
vt 0.703125 0.78125
vt 0.75 0.78125
vt 0.75 1
vt 0.703125 1
vt 0.703125 0.78125
vt 0.75 0.78125
vt 0.75 1
vt 0.75 0.828125
vt 0.75 1
vt 0.703125 1
vt 0.703125 0.828125
vt 0.75 0.828125
vt 0.75 1
vt 0.703125 1
vt 0.703125 0.828125
vt 0.703125 0.953125
vt 0.703125 0.78125
vt 0.75 0.78125
vt 0.75 0.953125
vt 0.75 0.828125
vt 0.75 1
vt 0.703125 1
vt 0.703125 0.828125
vt 0.75 0.765625
vt 0.75 1
vt 0.703125 1
vt 0.703125 0.765625
vt 0.703125 1
vt 0.703125 0.765625
vt 0.75 0.765625
vt 0.75 1
vt 0.703125 1
vt 0.703125 0.765625
vt 0.75 0.765625
vt 0.75 1
vt 0.75 0.765625
vt 0.75 1
vt 0.703125 1
vt 0.703125 0.765625
vt 0.75 0.828125
vt 0.75 1
vt 0.703125 1
vt 0.703125 0.828125
vt 0.703125 0.953125
vt 0.703125 0.78125
vt 0.75 0.78125
vt 0.75 0.953125
vt 0.703125 0.953125
vt 0.703125 0.78125
vt 0.75 0.78125
vt 0.75 0.953125
vt 0.703125 0.953125
vt 0.703125 0.78125
vt 0.75 0.78125
vt 0.75 0.953125
vt 0.9375 0.65625
vt 0.9375 0.859375
vt 0.890625 0.859375
vt 0.890625 0.65625
vt 0.890625 0.65625
vt 0.890625 0.859375
vt 0.9375 0.859375
vt 0.9375 0.65625
vt 0.9375 0.65625
vt 0.9375 0.859375
vt 0.890625 0.859375
vt 0.890625 0.65625
vt 0.890625 0.65625
vt 0.890625 0.859375
vt 0.9375 0.859375
vt 0.9375 0.65625
vt 0.75 0.953125
vt 0.796875 0.953125
vt 0.796875 1
vt 0.75 1
vt 0.75 0.953125
vt 0.796875 0.953125
vt 0.796875 1
vt 0.75 1
vt 0.890625 0.96875
vt 0.890625 0.78125
vt 0.9375 0.78125
vt 0.9375 0.96875
vt 0.9375 0.65625
vt 0.9375 0.84375
vt 0.890625 0.84375
vt 0.890625 0.65625
vt 0.9375 0.65625
vt 0.9375 0.84375
vt 0.890625 0.84375
vt 0.890625 0.65625
vt 0.890625 0.96875
vt 0.890625 0.78125
vt 0.9375 0.78125
vt 0.9375 0.96875
vt 0.203125 0.578125
vt 0.203125 0.609375
vt 0.59375 0.609375
vt 0.59375 0.578125
vt 0.203125 0.609375
vt 0.203125 0.578125
vt 0.59375 0.578125
vt 0.59375 0.609375
vt 0.203125 0.609375
vt 0.59375 0.609375
vt 0.59375 0.578125
vt 0.203125 0.578125
vt 0.203125 0.578125
vt 0.59375 0.578125
vt 0.59375 0.609375
vt 0.203125 0.609375
vt 0.75 0.859375
vt 0.75 1
vt 0.703125 1
vt 0.703125 0.859375
vt 0.75 0.859375
vt 0.75 1
vt 0.703125 1
vt 0.703125 0.859375
vt 0.75 0.859375
vt 0.75 1
vt 0.703125 1
vt 0.703125 0.859375
vt 0.75 0.859375
vt 0.75 1
vt 0.703125 1
vt 0.703125 0.859375
vt 0.703125 1
vt 0.75 1
vt 0.75 0.859375
vt 0.703125 0.859375
vt 0.703125 1
vt 0.75 1
vt 0.75 0.859375
vt 0.703125 0.859375
vt 0.703125 1
vt 0.75 1
vt 0.75 0.859375
vt 0.703125 0.859375
vt 0.703125 1
vt 0.75 1
vt 0.75 0.859375
vt 0.703125 0.859375
vt 0.703125 1
vt 0.75 1
vt 0.75 0.859375
vt 0.703125 0.859375
vt 0.703125 1
vt 0.75 1
vt 0.75 0.859375
vt 0.703125 0.859375
vt 0.703125 1
vt 0.75 1
vt 0.75 0.859375
vt 0.703125 0.859375
vt 0.703125 1
vt 0.75 1
vt 0.75 0.859375
vt 0.703125 0.859375
vt 0.75 0.859375
vt 0.75 1
vt 0.703125 1
vt 0.703125 0.859375
vt 0.75 0.859375
vt 0.75 1
vt 0.703125 1
vt 0.703125 0.859375
vt 0.75 0.859375
vt 0.75 1
vt 0.703125 1
vt 0.703125 0.859375
vt 0.75 0.859375
vt 0.75 1
vt 0.703125 1
vt 0.703125 0.859375
vt 0.9375 0.65625
vt 0.9375 0.859375
vt 0.890625 0.859375
vt 0.890625 0.65625
vt 0.890625 0.65625
vt 0.890625 0.859375
vt 0.9375 0.859375
vt 0.9375 0.65625
vt 0.9375 0.65625
vt 0.9375 0.859375
vt 0.890625 0.859375
vt 0.890625 0.65625
vt 0.890625 0.65625
vt 0.890625 0.859375
vt 0.9375 0.859375
vt 0.9375 0.65625
vt 0.75 0.953125
vt 0.796875 0.953125
vt 0.796875 1
vt 0.75 1
vt 0.75 0.953125
vt 0.796875 0.953125
vt 0.796875 1
vt 0.75 1
vt 0.890625 0.96875
vt 0.890625 0.78125
vt 0.9375 0.78125
vt 0.9375 0.96875
vt 0.9375 0.65625
vt 0.9375 0.84375
vt 0.890625 0.84375
vt 0.890625 0.65625
vt 0.9375 0.65625
vt 0.9375 0.84375
vt 0.890625 0.84375
vt 0.890625 0.65625
vt 0.890625 0.96875
vt 0.890625 0.78125
vt 0.9375 0.78125
vt 0.9375 0.96875
vt 0.203125 0.578125
vt 0.203125 0.609375
vt 0.59375 0.609375
vt 0.59375 0.578125
vt 0.203125 0.609375
vt 0.203125 0.578125
vt 0.59375 0.578125
vt 0.59375 0.609375
vt 0.203125 0.609375
vt 0.59375 0.609375
vt 0.59375 0.578125
vt 0.203125 0.578125
vt 0.203125 0.578125
vt 0.59375 0.578125
vt 0.59375 0.609375
vt 0.203125 0.609375
vt 0.890625 0.859375
vt 0.9375 0.859375
vt 0.9375 0.65625
vt 0.890625 0.65625
vt 0.9375 0.859375
vt 0.890625 0.859375
vt 0.890625 0.65625
vt 0.9375 0.65625
vt 0.890625 0.859375
vt 0.9375 0.859375
vt 0.9375 0.65625
vt 0.890625 0.65625
vt 0.9375 0.859375
vt 0.890625 0.859375
vt 0.890625 0.65625
vt 0.9375 0.65625
vt 0.796875 1
vt 0.796875 0.953125
vt 0.75 0.953125
vt 0.75 1
vt 0.796875 1
vt 0.796875 0.953125
vt 0.75 0.953125
vt 0.75 1
vt 0.9375 0.78125
vt 0.890625 0.78125
vt 0.890625 0.96875
vt 0.9375 0.96875
vt 0.890625 0.84375
vt 0.9375 0.84375
vt 0.9375 0.65625
vt 0.890625 0.65625
vt 0.890625 0.84375
vt 0.9375 0.84375
vt 0.9375 0.65625
vt 0.890625 0.65625
vt 0.9375 0.78125
vt 0.890625 0.78125
vt 0.890625 0.96875
vt 0.9375 0.96875
vt 0.59375 0.609375
vt 0.203125 0.609375
vt 0.203125 0.578125
vt 0.59375 0.578125
vt 0.59375 0.578125
vt 0.203125 0.578125
vt 0.203125 0.609375
vt 0.59375 0.609375
vt 0.59375 0.578125
vt 0.59375 0.609375
vt 0.203125 0.609375
vt 0.203125 0.578125
vt 0.59375 0.609375
vt 0.59375 0.578125
vt 0.203125 0.578125
vt 0.203125 0.609375
vt 0.890625 0.859375
vt 0.9375 0.859375
vt 0.9375 0.65625
vt 0.890625 0.65625
vt 0.9375 0.859375
vt 0.890625 0.859375
vt 0.890625 0.65625
vt 0.9375 0.65625
vt 0.890625 0.859375
vt 0.9375 0.859375
vt 0.9375 0.65625
vt 0.890625 0.65625
vt 0.9375 0.859375
vt 0.890625 0.859375
vt 0.890625 0.65625
vt 0.9375 0.65625
vt 0.796875 1
vt 0.796875 0.953125
vt 0.75 0.953125
vt 0.75 1
vt 0.796875 1
vt 0.796875 0.953125
vt 0.75 0.953125
vt 0.75 1
vt 0.9375 0.78125
vt 0.890625 0.78125
vt 0.890625 0.96875
vt 0.9375 0.96875
vt 0.890625 0.84375
vt 0.9375 0.84375
vt 0.9375 0.65625
vt 0.890625 0.65625
vt 0.890625 0.84375
vt 0.9375 0.84375
vt 0.9375 0.65625
vt 0.890625 0.65625
vt 0.9375 0.78125
vt 0.890625 0.78125
vt 0.890625 0.96875
vt 0.9375 0.96875
vt 0.59375 0.609375
vt 0.203125 0.609375
vt 0.203125 0.578125
vt 0.59375 0.578125
vt 0.59375 0.578125
vt 0.203125 0.578125
vt 0.203125 0.609375
vt 0.59375 0.609375
vt 0.59375 0.578125
vt 0.59375 0.609375
vt 0.203125 0.609375
vt 0.203125 0.578125
vt 0.59375 0.609375
vt 0.59375 0.578125
vt 0.203125 0.578125
vt 0.203125 0.609375
vn 0.9761870601839528 0.21693045781865616 0
vn -0.9761870601839528 0.21693045781865616 0
vn 0 -0.2169304578186562 0.9761870601839528
vn 0 0.2169304578186562 -0.9761870601839528
vn 0.9761870601839528 0.21693045781865616 0
vn -0.9761870601839528 0.21693045781865616 0
vn 0 -0.2169304578186562 -0.9761870601839528
vn 0 0.2169304578186562 0.9761870601839528
vn -0.9761870601839527 -0.21693045781865616 0
vn 0.9761870601839527 0.21693045781865616 0
vn 0.9761870601839527 -0.21693045781865616 0
vn -0.9761870601839527 0.21693045781865616 0
vn 0 1 0
vn 0 -1 0
vn 0 0 1
vn 0 0 -1
vn 0 1 0
vn 0 -1 0
vn 0 0 1
vn 0 0 -1
vn 1 0 0
vn -1 0 0
vn 0 1 0
vn 0 -1 0
vn 0 0 1
vn 0 0 -1
vn 1 0 0
vn -1 0 0
vn 0 1 0
vn 0 -1 0
vn 0 0 1
vn 0 0 -1
vn 1 0 0
vn 0 -1 0
vn -1 0 0
vn 0 1 0
vn 0 0 1
vn 0 -1 0
vn 0 0 -1
vn 0 1 0
vn -1 0 0
vn 0 -1 0
vn 1 0 0
vn 0 1 0
vn 0 0 -1
vn 0 -1 0
vn 0 0 1
vn 0 1 0
vn 0 -0.8870100875478999 -0.4617500455747323
vn 0 0.8870100875478999 0.46175004557473204
vn 0 0.4617500455747317 -0.8870100875479002
vn 0 -0.4617500455747316 0.8870100875479001
vn 1 0 0
vn -1 0 0
vn 0 0.46175004557473165 -0.8870100875479
vn 0 0.8870100875478999 0.461750045574732
vn 0 -0.46175004557473154 0.8870100875479001
vn 0 -0.8870100875478999 -0.4617500455747323
vn 0 -0.8870100875478999 -0.461750045574732
vn 0 0.8870100875478999 0.461750045574732
vn 0 0.46175004557473065 -0.8870100875479007
vn 0 -0.46175004557473065 0.8870100875479007
vn 0.9761870601839528 -0.21693045781865616 0
vn -0.9761870601839528 0.21693045781865616 0
vn 0 -0.21693045781865616 0.9761870601839528
vn 0 0.21693045781865616 -0.9761870601839528
vn 0.9761870601839528 -0.21693045781865616 0
vn -0.9761870601839528 0.21693045781865616 0
vn 0 -0.21693045781865616 -0.9761870601839528
vn 0 0.21693045781865616 0.9761870601839528
vn -0.9761870601839528 -0.21693045781865616 0
vn 0.9761870601839528 0.21693045781865616 0
vn 0 -0.21693045781865616 0.9761870601839528
vn 0 0.21693045781865616 -0.9761870601839528
vn -0.9761870601839528 -0.21693045781865616 0
vn 0.9761870601839528 0.21693045781865616 0
vn 0 -0.21693045781865616 -0.9761870601839528
vn 0 0.21693045781865616 0.9761870601839528
vn 0.46175004557473176 -0.8870100875479 0
vn -0.4617500455747316 0.8870100875479001 0
vn 0.8870100875479002 0.4617500455747317 0
vn -0.8870100875479001 -0.4617500455747316 0
vn 0 0 1
vn 0 0 -1
vn 0.8870100875479 0.46175004557473165 0
vn -0.46175004557473154 0.8870100875479001 0
vn -0.8870100875479001 -0.46175004557473154 0
vn 0.46175004557473176 -0.8870100875479 0
vn 0.461750045574732 -0.8870100875478999 0
vn -0.461750045574732 0.8870100875478999 0
vn 0.8870100875478999 0.461750045574732 0
vn -0.8870100875478999 -0.461750045574732 0
vn -0.46175004557473176 -0.8870100875479 0
vn 0.4617500455747316 0.8870100875479001 0
vn -0.8870100875478997 0.46175004557473265 0
vn 0.8870100875478997 -0.46175004557473254 0
vn 0 0 1
vn 0 0 -1
vn -0.8870100875478996 0.46175004557473254 0
vn 0.46175004557473154 0.8870100875479001 0
vn 0.8870100875478997 -0.4617500455747325 0
vn -0.46175004557473176 -0.8870100875479 0
vn -0.461750045574732 -0.8870100875478999 0
vn 0.461750045574732 0.8870100875478999 0
vn -0.8870100875479007 0.46175004557473065 0
vn 0.8870100875479007 -0.46175004557473065 0
vn 0 -0.8870100875479 0.46175004557473176
vn 0 0.8870100875479001 -0.4617500455747316
vn 0 0.4617500455747317 0.8870100875479002
vn 0 -0.4617500455747316 -0.8870100875479001
vn 1 0 0
vn -1 0 0
vn 0 0.46175004557473165 0.8870100875479
vn 0 0.8870100875479001 -0.46175004557473154
vn 0 -0.46175004557473154 -0.8870100875479001
vn 0 -0.8870100875479 0.46175004557473176
vn 0 -0.8870100875478999 0.461750045574732
vn 0 0.8870100875478999 -0.461750045574732
vn 0 0.461750045574732 0.8870100875478999
vn 0 -0.461750045574732 -0.8870100875478999
usemtl base_steel
f 5/1/1 3/2/1 2/3/1
f 5/1/1 2/3/1 4/4/1
f 8/5/2 6/6/2 7/7/2
f 8/5/2 7/7/2 9/8/2
f 4/9/3 2/10/3 6/11/3
f 4/9/3 6/11/3 8/12/3
f 9/13/4 7/14/4 3/15/4
f 9/13/4 3/15/4 5/16/4
f 10/17/5 11/18/5 13/19/5
f 10/17/5 13/19/5 12/20/5
f 15/21/6 14/22/6 16/23/6
f 15/21/6 16/23/6 17/24/6
f 14/25/7 10/26/7 12/27/7
f 14/25/7 12/27/7 16/28/7
f 11/29/8 15/30/8 17/31/8
f 11/29/8 17/31/8 13/32/8
f 21/33/9 19/34/9 18/35/9
f 21/33/9 18/35/9 20/36/9
f 24/37/10 22/38/10 23/39/10
f 24/37/10 23/39/10 25/40/10
f 26/41/11 27/42/11 29/43/11
f 26/41/11 29/43/11 28/44/11
f 31/45/12 30/46/12 32/47/12
f 31/45/12 32/47/12 33/48/12
f 35/49/13 78/50/13 81/51/13
f 35/49/13 81/51/13 34/52/13
f 36/53/14 80/54/14 79/55/14
f 36/53/14 79/55/14 37/56/14
f 34/57/15 81/58/15 80/59/15
f 34/57/15 80/59/15 36/60/15
f 37/61/16 79/62/16 78/63/16
f 37/61/16 78/63/16 35/64/16
f 46/65/17 70/66/17 73/67/17
f 46/65/17 73/67/17 47/68/17
f 49/69/18 72/70/18 71/71/18
f 49/69/18 71/71/18 48/72/18
f 48/73/19 71/74/19 70/75/19
f 48/73/19 70/75/19 46/76/19
f 47/77/20 73/78/20 72/79/20
f 47/77/20 72/79/20 49/80/20
f 52/81/21 67/82/21 66/83/21
f 52/81/21 66/83/21 50/84/21
f 54/85/22 69/86/22 68/87/22
f 54/85/22 68/87/22 56/88/22
f 50/89/23 66/90/23 69/91/23
f 50/89/23 69/91/23 54/92/23
f 56/93/24 68/94/24 67/95/24
f 56/93/24 67/95/24 52/96/24
f 52/97/25 50/98/25 54/99/25
f 52/97/25 54/99/25 56/100/25
f 57/101/26 55/102/26 51/103/26
f 57/101/26 51/103/26 53/104/26
f 59/105/27 77/106/27 76/107/27
f 59/105/27 76/107/27 61/108/27
f 65/109/28 75/110/28 74/111/28
f 65/109/28 74/111/28 63/112/28
f 63/113/29 74/114/29 77/115/29
f 63/113/29 77/115/29 59/116/29
f 61/117/30 76/118/30 75/119/30
f 61/117/30 75/119/30 65/120/30
f 60/121/31 58/122/31 62/123/31
f 60/121/31 62/123/31 64/124/31
f 65/125/32 63/126/32 59/127/32
f 65/125/32 59/127/32 61/128/32
f 51/129/33 66/130/33 67/131/33
f 51/129/33 67/131/33 53/132/33
f 53/133/34 67/134/34 68/135/34
f 53/133/34 68/135/34 57/136/34
f 57/137/35 68/138/35 69/139/35
f 57/137/35 69/139/35 55/140/35
f 55/141/36 69/142/36 66/143/36
f 55/141/36 66/143/36 51/144/36
f 42/145/37 70/146/37 71/147/37
f 42/145/37 71/147/37 44/148/37
f 44/149/38 71/150/38 72/151/38
f 44/149/38 72/151/38 45/152/38
f 45/153/39 72/154/39 73/155/39
f 45/153/39 73/155/39 43/156/39
f 43/157/40 73/158/40 70/159/40
f 43/157/40 70/159/40 42/160/40
f 62/161/41 74/162/41 75/163/41
f 62/161/41 75/163/41 64/164/41
f 64/165/42 75/166/42 76/167/42
f 64/165/42 76/167/42 60/168/42
f 60/169/43 76/170/43 77/171/43
f 60/169/43 77/171/43 58/172/43
f 58/173/44 77/174/44 74/175/44
f 58/173/44 74/175/44 62/176/44
f 39/177/45 78/178/45 79/179/45
f 39/177/45 79/179/45 41/180/45
f 41/181/46 79/182/46 80/183/46
f 41/181/46 80/183/46 40/184/46
f 40/185/47 80/186/47 81/187/47
f 40/185/47 81/187/47 38/188/47
f 38/189/48 81/190/48 78/191/48
f 38/189/48 78/191/48 39/192/48
f 83/193/49 90/194/49 93/195/49
f 83/193/49 93/195/49 85/196/49
f 89/197/50 92/198/50 91/199/50
f 89/197/50 91/199/50 87/200/50
f 87/201/51 91/202/51 90/203/51
f 87/201/51 90/203/51 83/204/51
f 85/205/52 93/206/52 92/207/52
f 85/205/52 92/207/52 89/208/52
f 84/209/53 82/210/53 86/211/53
f 84/209/53 86/211/53 88/212/53
f 89/213/54 87/214/54 83/215/54
f 89/213/54 83/215/54 85/216/54
f 82/217/55 90/218/55 91/219/55
f 82/217/55 91/219/55 86/220/55
f 86/221/56 91/222/56 92/223/56
f 86/221/56 92/223/56 88/224/56
f 88/225/57 92/226/57 93/227/57
f 88/225/57 93/227/57 84/228/57
f 84/229/58 93/230/58 90/231/58
f 84/229/58 90/231/58 82/232/58
f 97/233/59 95/234/59 94/235/59
f 97/233/59 94/235/59 96/236/59
f 100/237/60 98/238/60 99/239/60
f 100/237/60 99/239/60 101/240/60
f 94/241/61 95/242/61 99/243/61
f 94/241/61 99/243/61 98/244/61
f 97/245/62 96/246/62 100/247/62
f 97/245/62 100/247/62 101/248/62
f 105/249/63 103/250/63 102/251/63
f 105/249/63 102/251/63 104/252/63
f 108/253/64 106/254/64 107/255/64
f 108/253/64 107/255/64 109/256/64
f 104/257/65 102/258/65 106/259/65
f 104/257/65 106/259/65 108/260/65
f 109/261/66 107/262/66 103/263/66
f 109/261/66 103/263/66 105/264/66
f 110/265/67 111/266/67 113/267/67
f 110/265/67 113/267/67 112/268/67
f 115/269/68 114/270/68 116/271/68
f 115/269/68 116/271/68 117/272/68
f 114/273/69 110/274/69 112/275/69
f 114/273/69 112/275/69 116/276/69
f 111/277/70 115/278/70 117/279/70
f 111/277/70 117/279/70 113/280/70
f 118/281/71 119/282/71 121/283/71
f 118/281/71 121/283/71 120/284/71
f 123/285/72 122/286/72 124/287/72
f 123/285/72 124/287/72 125/288/72
f 122/289/73 118/290/73 120/291/73
f 122/289/73 120/291/73 124/292/73
f 119/293/74 123/294/74 125/295/74
f 119/293/74 125/295/74 121/296/74
f 129/297/75 127/298/75 126/299/75
f 129/297/75 126/299/75 128/300/75
f 132/301/76 130/302/76 131/303/76
f 132/301/76 131/303/76 133/304/76
f 128/305/77 126/306/77 130/307/77
f 128/305/77 130/307/77 132/308/77
f 133/309/78 131/310/78 127/311/78
f 133/309/78 127/311/78 129/312/78
f 135/313/79 142/314/79 145/315/79
f 135/313/79 145/315/79 137/316/79
f 141/317/80 144/318/80 143/319/80
f 141/317/80 143/319/80 139/320/80
f 139/321/81 143/322/81 142/323/81
f 139/321/81 142/323/81 135/324/81
f 137/325/82 145/326/82 144/327/82
f 137/325/82 144/327/82 141/328/82
f 136/329/83 134/330/83 138/331/83
f 136/329/83 138/331/83 140/332/83
f 141/333/84 139/334/84 135/335/84
f 141/333/84 135/335/84 137/336/84
f 134/337/85 142/338/85 143/339/85
f 134/337/85 143/339/85 138/340/85
f 138/341/86 143/342/86 144/343/86
f 138/341/86 144/343/86 140/344/86
f 140/345/87 144/346/87 145/347/87
f 140/345/87 145/347/87 136/348/87
f 136/349/88 145/350/88 142/351/88
f 136/349/88 142/351/88 134/352/88
f 149/353/89 147/354/89 146/355/89
f 149/353/89 146/355/89 148/356/89
f 152/357/90 150/358/90 151/359/90
f 152/357/90 151/359/90 153/360/90
f 146/361/91 147/362/91 151/363/91
f 146/361/91 151/363/91 150/364/91
f 149/365/92 148/366/92 152/367/92
f 149/365/92 152/367/92 153/368/92
f 165/369/93 162/370/93 155/371/93
f 165/369/93 155/371/93 157/372/93
f 163/373/94 164/374/94 161/375/94
f 163/373/94 161/375/94 159/376/94
f 162/377/95 163/378/95 159/379/95
f 162/377/95 159/379/95 155/380/95
f 164/381/96 165/382/96 157/383/96
f 164/381/96 157/383/96 161/384/96
f 158/385/97 154/386/97 156/387/97
f 158/385/97 156/387/97 160/388/97
f 155/389/98 159/390/98 161/391/98
f 155/389/98 161/391/98 157/392/98
f 163/393/99 162/394/99 154/395/99
f 163/393/99 154/395/99 158/396/99
f 164/397/100 163/398/100 158/399/100
f 164/397/100 158/399/100 160/400/100
f 165/401/101 164/402/101 160/403/101
f 165/401/101 160/403/101 156/404/101
f 162/405/102 165/406/102 156/407/102
f 162/405/102 156/407/102 154/408/102
f 166/409/103 167/410/103 169/411/103
f 166/409/103 169/411/103 168/412/103
f 171/413/104 170/414/104 172/415/104
f 171/413/104 172/415/104 173/416/104
f 171/417/105 167/418/105 166/419/105
f 171/417/105 166/419/105 170/420/105
f 172/421/106 168/422/106 169/423/106
f 172/421/106 169/423/106 173/424/106
f 185/425/107 182/426/107 175/427/107
f 185/425/107 175/427/107 177/428/107
f 183/429/108 184/430/108 181/431/108
f 183/429/108 181/431/108 179/432/108
f 182/433/109 183/434/109 179/435/109
f 182/433/109 179/435/109 175/436/109
f 184/437/110 185/438/110 177/439/110
f 184/437/110 177/439/110 181/440/110
f 178/441/111 174/442/111 176/443/111
f 178/441/111 176/443/111 180/444/111
f 175/445/112 179/446/112 181/447/112
f 175/445/112 181/447/112 177/448/112
f 183/449/113 182/450/113 174/451/113
f 183/449/113 174/451/113 178/452/113
f 184/453/114 183/454/114 178/455/114
f 184/453/114 178/455/114 180/456/114
f 185/457/115 184/458/115 180/459/115
f 185/457/115 180/459/115 176/460/115
f 182/461/116 185/462/116 176/463/116
f 182/461/116 176/463/116 174/464/116
f 186/465/117 187/466/117 188/467/117
f 186/465/117 188/467/117 1/468/117
f 190/469/118 189/470/118 191/471/118
f 190/469/118 191/471/118 192/472/118
f 190/473/119 187/474/119 186/475/119
f 190/473/119 186/475/119 189/476/119
f 191/477/120 1/478/120 188/479/120
f 191/477/120 188/479/120 192/480/120