# Made by Pabilo8 with Blockbench
# Exported with IIToolkit Plugin
mtllib machinegun.mtl


o heavy_barrel2
v 0.84375 -1.6875 0.96875
v 0.84375 -1.6875 0.46875
v 0.84375 -1.9375 0.96875
v 0.84375 -1.9375 0.46875
v 0.59375 -1.6875 0.96875
v 0.59375 -1.6875 0.46875
v 0.59375 -1.9375 0.96875
v 0.59375 -1.9375 0.46875
v 0.825 -1.70625 0.46875
v 0.80625 -1.725 -0.34375
v 0.825 -1.91875 0.46875
v 0.80625 -1.9 -0.34375
v 0.6125 -1.70625 0.46875
v 0.63125 -1.725 -0.34375
v 0.6125 -1.91875 0.46875
v 0.63125 -1.9 -0.34375
vt 0.78125 0.046875
vt 0.78125 0.109375
vt 0.65625 0.109375
vt 0.65625 0.046875
vt 0.78125 0.046875
vt 0.78125 0.109375
vt 0.65625 0.109375
vt 0.65625 0.046875
vt 0.78125 0.109375
vt 0.65625 0.109375
vt 0.65625 0.046875
vt 0.78125 0.046875
vt 0.78125 0.109375
vt 0.65625 0.109375
vt 0.65625 0.046875
vt 0.78125 0.046875
vt 0.65625 0.046875
vt 0.65625 0.109375
vt 0.59375 0.109375
vt 0.59375 0.046875
vt 0.65625 0.046875
vt 0.65625 0.109375
vt 0.59375 0.109375
vt 0.59375 0.046875
vt 0.671875 0.046875
vt 0.671875 0
vt 0.875 0
vt 0.875 0.046875
vt 0.875 0.046875
vt 0.875 0
vt 0.671875 0
vt 0.671875 0.046875
vt 0.875 0.046875
vt 0.671875 0.046875
vt 0.671875 0
vt 0.875 0
vt 0.671875 0
vt 0.875 0
vt 0.875 0.046875
vt 0.671875 0.046875
vn 1 0 0
vn -1 0 0
vn 0 1 0
vn 0 -1 0
vn 0 0 -1
vn 0 0 1
vn 0.9997338341147938 0 -0.023070780787264464
vn -0.9997338341147938 0 -0.023070780787264492
vn 0 0.9997338341147938 -0.023070780787264475
vn 0 -0.9997338341147938 -0.023070780787264475
usemtl weapon_machinegun
f 4/1/1 2/2/1 1/3/1
f 4/1/1 1/3/1 3/4/1
f 7/5/2 5/6/2 6/7/2
f 7/5/2 6/7/2 8/8/2
f 1/9/3 2/10/3 6/11/3
f 1/9/3 6/11/3 5/12/3
f 4/13/4 3/14/4 7/15/4
f 4/13/4 7/15/4 8/16/4
f 8/17/5 6/18/5 2/19/5
f 8/17/5 2/19/5 4/20/5
f 3/21/6 1/22/6 5/23/6
f 3/21/6 5/23/6 7/24/6
f 12/25/7 10/26/7 9/27/7
f 12/25/7 9/27/7 11/28/7
f 15/29/8 13/30/8 14/31/8
f 15/29/8 14/31/8 16/32/8
f 9/33/9 10/34/9 14/35/9
f 9/33/9 14/35/9 13/36/9
f 12/37/10 11/38/10 15/39/10
f 12/37/10 15/39/10 16/40/10
o heavy_barrel1
v 0.46875 -1.6875 0.96875
v 0.46875 -1.6875 0.46875
v 0.46875 -1.9375 0.96875
v 0.46875 -1.9375 0.46875
v 0.21875 -1.6875 0.96875
v 0.21875 -1.6875 0.46875
v 0.21875 -1.9375 0.96875
v 0.21875 -1.9375 0.46875
v 0.45 -1.70625 0.46875
v 0.43125 -1.725 -0.34375
v 0.45 -1.91875 0.46875
v 0.43125 -1.9 -0.34375
v 0.2375 -1.70625 0.46875
v 0.25625 -1.725 -0.34375
v 0.2375 -1.91875 0.46875
v 0.25625 -1.9 -0.34375
vt 0.78125 0.046875
vt 0.78125 0.109375
vt 0.65625 0.109375
vt 0.65625 0.046875
vt 0.78125 0.046875
vt 0.78125 0.109375
vt 0.65625 0.109375
vt 0.65625 0.046875
vt 0.78125 0.109375
vt 0.65625 0.109375
vt 0.65625 0.046875
vt 0.78125 0.046875
vt 0.78125 0.109375
vt 0.65625 0.109375
vt 0.65625 0.046875
vt 0.78125 0.046875
vt 0.65625 0.046875
vt 0.65625 0.109375
vt 0.59375 0.109375
vt 0.59375 0.046875
vt 0.65625 0.046875
vt 0.65625 0.109375
vt 0.59375 0.109375
vt 0.59375 0.046875
vt 0.671875 0.046875
vt 0.671875 0
vt 0.875 0
vt 0.875 0.046875
vt 0.875 0.046875
vt 0.875 0
vt 0.671875 0
vt 0.671875 0.046875
vt 0.875 0.046875
vt 0.671875 0.046875
vt 0.671875 0
vt 0.875 0
vt 0.671875 0
vt 0.875 0
vt 0.875 0.046875
vt 0.671875 0.046875
vn 1 0 0
vn -1 0 0
vn 0 1 0
vn 0 -1 0
vn 0 0 -1
vn 0 0 1
vn 0.9997338341147938 0 -0.023070780787264464
vn -0.9997338341147938 0 -0.023070780787264492
vn 0 0.9997338341147938 -0.023070780787264475
vn 0 -0.9997338341147938 -0.023070780787264475
usemtl weapon_machinegun
f 20/41/11 18/42/11 17/43/11
f 20/41/11 17/43/11 19/44/11
f 23/45/12 21/46/12 22/47/12
f 23/45/12 22/47/12 24/48/12
f 17/49/13 18/50/13 22/51/13
f 17/49/13 22/51/13 21/52/13
f 20/53/14 19/54/14 23/55/14
f 20/53/14 23/55/14 24/56/14
f 24/57/15 22/58/15 18/59/15
f 24/57/15 18/59/15 20/60/15
f 19/61/16 17/62/16 21/63/16
f 19/61/16 21/63/16 23/64/16
f 28/65/17 26/66/17 25/67/17
f 28/65/17 25/67/17 27/68/17
f 31/69/18 29/70/18 30/71/18
f 31/69/18 30/71/18 32/72/18
f 25/73/19 26/74/19 30/75/19
f 25/73/19 30/75/19 29/76/19
f 28/77/20 27/78/20 31/79/20
f 28/77/20 31/79/20 32/80/20