# Made by Pabilo8 with Blockbench
# Exported with IIToolkit Plugin
mtllib machinegun.mtl


o gun2
v 0.78125 -1.75 0.96875
v 0.78125 -1.75 0.53125
v 0.78125 -1.9375 0.96875
v 0.78125 -1.9375 0.53125
v 0.65625 -1.75 0.96875
v 0.65625 -1.75 0.53125
v 0.65625 -1.9375 0.96875
v 0.65625 -1.9375 0.53125
v 0.78125 -1.75 0.53125
v 0.78125 -1.75 -0.28125
v 0.78125 -1.875 0.53125
v 0.78125 -1.875 -0.28125
v 0.65625 -1.75 0.53125
v 0.65625 -1.75 -0.28125
v 0.65625 -1.875 0.53125
v 0.65625 -1.875 -0.28125
v 0.8125 -1.71875 -0.34375
v 0.8125 -1.71875 -0.40625
v 0.8125 -1.90625 -0.34375
v 0.8125 -1.90625 -0.40625
v 0.625 -1.71875 -0.34375
v 0.625 -1.71875 -0.40625
v 0.625 -1.90625 -0.34375
v 0.625 -1.90625 -0.40625
v 0.78125 -1.75 -0.28125
v 0.8125 -1.71875 -0.34375
v 0.78125 -1.875 -0.28125
v 0.8125 -1.90625 -0.34375
v 0.65625 -1.75 -0.28125
v 0.625 -1.71875 -0.34375
v 0.65625 -1.875 -0.28125
v 0.625 -1.90625 -0.34375
vt 0.28125 0.953125
vt 0.28125 1
vt 0.390625 1
vt 0.390625 0.953125
vt 0.28125 0.953125
vt 0.28125 1
vt 0.390625 1
vt 0.390625 0.953125
vt 0.484375 1
vt 0.484375 0.890625
vt 0.453125 0.890625
vt 0.453125 1
vt 0.515625 0.890625
vt 0.515625 1
vt 0.484375 1
vt 0.484375 0.890625
vt 0.390625 0.578125
vt 0.390625 0.625
vt 0.421875 0.625
vt 0.421875 0.578125
vt 0.328125 0.953125
vt 0.328125 1
vt 0.359375 1
vt 0.359375 0.953125
vt 0.96875 0
vt 1 0
vt 1 0.203125
vt 0.96875 0.203125
vt 1 0.203125
vt 0.96875 0.203125
vt 0.96875 0
vt 1 0
vt 1 0.03125
vt 1 0.234375
vt 0.96875 0.234375
vt 0.96875 0.03125
vt 0.96875 0.203125
vt 0.96875 0
vt 1 0
vt 1 0.203125
vt 0.9375 0
vt 0.9375 0.046875
vt 0.921875 0.046875
vt 0.921875 0
vt 0.96875 0
vt 0.96875 0.046875
vt 0.953125 0.046875
vt 0.953125 0
vt 0.921875 0.046875
vt 0.921875 0.03125
vt 0.96875 0.03125
vt 0.96875 0.046875
vt 0.921875 0.015625
vt 0.921875 0
vt 0.96875 0
vt 0.96875 0.015625
vt 0.96875 0
vt 0.96875 0.046875
vt 0.921875 0.046875
vt 0.921875 0
vt 0.9705953125 0.296875
vt 0.953125 0.2890625
vt 0.953125 0.2578125
vt 0.9705953125 0.25
vt 0.9705953125 0.2578125
vt 0.9705953125 0.2890625
vt 0.953125 0.296875
vt 0.953125 0.25
vt 0.9609375 0.28125
vt 0.9921875 0.28125
vt 1 0.296875
vt 0.953125 0.296875
vt 1 0.28125
vt 0.9921875 0.296875
vt 0.9609375 0.296875
vt 0.953125 0.28125
vn 1 0 0
vn -1 0 0
vn 0 1 0
vn 0 -1 0
vn 0 0 1
vn 0 0 -1
vn 1 0 0
vn -1 0 0
vn 0 1 0
vn 0 -1 0
vn 1 0 0
vn -1 0 0
vn 0 1 0
vn 0 -1 0
vn 0 0 -1
vn 0.8944271909999161 0 0.44721359549995804
vn -0.8944271909999161 0 0.44721359549995804
vn 0 0.8944271909999161 0.44721359549995804
vn 0 -0.8944271909999161 0.44721359549995804
usemtl weapon_machinegun
f 4/1/1 2/2/1 1/3/1
f 4/1/1 1/3/1 3/4/1
f 7/5/2 5/6/2 6/7/2
f 7/5/2 6/7/2 8/8/2
f 1/9/3 2/10/3 6/11/3
f 1/9/3 6/11/3 5/12/3
f 4/13/4 3/14/4 7/15/4
f 4/13/4 7/15/4 8/16/4
f 3/17/5 1/18/5 5/19/5
f 3/17/5 5/19/5 7/20/5
f 8/21/6 6/22/6 2/23/6
f 8/21/6 2/23/6 4/24/6
f 12/25/7 10/26/7 9/27/7
f 12/25/7 9/27/7 11/28/7
f 15/29/8 13/30/8 14/31/8
f 15/29/8 14/31/8 16/32/8
f 9/33/9 10/34/9 14/35/9
f 9/33/9 14/35/9 13/36/9
f 12/37/10 11/38/10 15/39/10
f 12/37/10 15/39/10 16/40/10
f 20/41/11 18/42/11 17/43/11
f 20/41/11 17/43/11 19/44/11
f 23/45/12 21/46/12 22/47/12
f 23/45/12 22/47/12 24/48/12
f 17/49/13 18/50/13 22/51/13
f 17/49/13 22/51/13 21/52/13
f 20/53/14 19/54/14 23/55/14
f 20/53/14 23/55/14 24/56/14
f 24/57/15 22/58/15 18/59/15
f 24/57/15 18/59/15 20/60/15
f 26/61/16 25/62/16 27/63/16
f 26/61/16 27/63/16 28/64/16
f 31/65/17 29/66/17 30/67/17
f 31/65/17 30/67/17 32/68/17
f 29/69/18 25/70/18 26/71/18
f 29/69/18 26/71/18 30/72/18
f 28/73/19 27/74/19 31/75/19
f 28/73/19 31/75/19 32/76/19
o gun1
v 0.40625 -1.75 0.96875
v 0.40625 -1.75 0.53125
v 0.40625 -1.9375 0.96875
v 0.40625 -1.9375 0.53125
v 0.28125 -1.75 0.96875
v 0.28125 -1.75 0.53125
v 0.28125 -1.9375 0.96875
v 0.28125 -1.9375 0.53125
v 0.40625 -1.75 0.53125
v 0.40625 -1.75 -0.28125
v 0.40625 -1.875 0.53125
v 0.40625 -1.875 -0.28125
v 0.28125 -1.75 0.53125
v 0.28125 -1.75 -0.28125
v 0.28125 -1.875 0.53125
v 0.28125 -1.875 -0.28125
v 0.4375 -1.71875 -0.34375
v 0.4375 -1.71875 -0.40625
v 0.4375 -1.90625 -0.34375
v 0.4375 -1.90625 -0.40625
v 0.25 -1.71875 -0.34375
v 0.25 -1.71875 -0.40625
v 0.25 -1.90625 -0.34375
v 0.25 -1.90625 -0.40625
v 0.40625 -1.75 -0.28125
v 0.4375 -1.71875 -0.34375
v 0.40625 -1.875 -0.28125
v 0.4375 -1.90625 -0.34375
v 0.28125 -1.75 -0.28125
v 0.25 -1.71875 -0.34375
v 0.28125 -1.875 -0.28125
v 0.25 -1.90625 -0.34375
vt 0.28125 0.953125
vt 0.28125 1
vt 0.390625 1
vt 0.390625 0.953125
vt 0.28125 0.953125
vt 0.28125 1
vt 0.390625 1
vt 0.390625 0.953125
vt 0.484375 1
vt 0.484375 0.890625
vt 0.453125 0.890625
vt 0.453125 1
vt 0.515625 0.890625
vt 0.515625 1
vt 0.484375 1
vt 0.484375 0.890625
vt 0.375 0.609375
vt 0.375 0.65625
vt 0.40625 0.65625
vt 0.40625 0.609375
vt 0.328125 0.953125
vt 0.328125 1
vt 0.359375 1
vt 0.359375 0.953125
vt 0.96875 0
vt 1 0
vt 1 0.203125
vt 0.96875 0.203125
vt 1 0.203125
vt 0.96875 0.203125
vt 0.96875 0
vt 1 0
vt 1 0.03125
vt 1 0.234375
vt 0.96875 0.234375
vt 0.96875 0.03125
vt 0.96875 0.203125
vt 0.96875 0
vt 1 0
vt 1 0.203125
vt 0.9375 0
vt 0.9375 0.046875
vt 0.921875 0.046875
vt 0.921875 0
vt 0.96875 0
vt 0.96875 0.046875
vt 0.953125 0.046875
vt 0.953125 0
vt 0.921875 0.046875
vt 0.921875 0.03125
vt 0.96875 0.03125
vt 0.96875 0.046875
vt 0.921875 0.015625
vt 0.921875 0
vt 0.96875 0
vt 0.96875 0.015625
vt 0.96875 0
vt 0.96875 0.046875
vt 0.921875 0.046875
vt 0.921875 0
vt 0.9705953125 0.296875
vt 0.953125 0.2890625
vt 0.953125 0.2578125
vt 0.9705953125 0.25
vt 0.9705953125 0.2578125
vt 0.9705953125 0.2890625
vt 0.953125 0.296875
vt 0.953125 0.25
vt 0.9609375 0.28125
vt 0.9921875 0.28125
vt 1 0.296875
vt 0.953125 0.296875
vt 1 0.28125
vt 0.9921875 0.296875
vt 0.9609375 0.296875
vt 0.953125 0.28125
vn 1 0 0
vn -1 0 0
vn 0 1 0
vn 0 -1 0
vn 0 0 1
vn 0 0 -1
vn 1 0 0
vn -1 0 0
vn 0 1 0
vn 0 -1 0
vn 1 0 0
vn -1 0 0
vn 0 1 0
vn 0 -1 0
vn 0 0 -1
vn 0.8944271909999161 0 0.44721359549995804
vn -0.8944271909999161 0 0.44721359549995804
vn 0 0.8944271909999161 0.44721359549995804
vn 0 -0.8944271909999161 0.44721359549995804
usemtl weapon_machinegun
f 36/77/20 34/78/20 33/79/20
f 36/77/20 33/79/20 35/80/20
f 39/81/21 37/82/21 38/83/21
f 39/81/21 38/83/21 40/84/21
f 33/85/22 34/86/22 38/87/22
f 33/85/22 38/87/22 37/88/22
f 36/89/23 35/90/23 39/91/23
f 36/89/23 39/91/23 40/92/23
f 35/93/24 33/94/24 37/95/24
f 35/93/24 37/95/24 39/96/24
f 40/97/25 38/98/25 34/99/25
f 40/97/25 34/99/25 36/100/25
f 44/101/26 42/102/26 41/103/26
f 44/101/26 41/103/26 43/104/26
f 47/105/27 45/106/27 46/107/27
f 47/105/27 46/107/27 48/108/27
f 41/109/28 42/110/28 46/111/28
f 41/109/28 46/111/28 45/112/28
f 44/113/29 43/114/29 47/115/29
f 44/113/29 47/115/29 48/116/29
f 52/117/30 50/118/30 49/119/30
f 52/117/30 49/119/30 51/120/30
f 55/121/31 53/122/31 54/123/31
f 55/121/31 54/123/31 56/124/31
f 49/125/32 50/126/32 54/127/32
f 49/125/32 54/127/32 53/128/32
f 52/129/33 51/130/33 55/131/33
f 52/129/33 55/131/33 56/132/33
f 56/133/34 54/134/34 50/135/34
f 56/133/34 50/135/34 52/136/34
f 58/137/35 57/138/35 59/139/35
f 58/137/35 59/139/35 60/140/35
f 63/141/36 61/142/36 62/143/36
f 63/141/36 62/143/36 64/144/36
f 61/145/37 57/146/37 58/147/37
f 61/145/37 58/147/37 62/148/37
f 60/149/38 59/150/38 63/151/38
f 60/149/38 63/151/38 64/152/38
o pickerLeft2
v 0.75 0.375 1.9375
v 0.75 0.375 1.875
v 0.75 0.1875 1.9375
v 0.75 0.1875 1.875
v 0.6875 0.375 1.875
v 0.6875 0.375 1.9375
v 0.6875 0.1875 1.875
v 0.6875 0.1875 1.9375
vt 0.625 1
vt 0.6875 1
vt 0.6875 0.8125
vt 0.625 0.8125
vt 0.625 1
vt 0.6875 1
vt 0.6875 0.8125
vt 0.625 0.8125
vt 0.625 1
vt 0.6875 1
vt 0.6875 0.8125
vt 0.625 0.8125
vt 0.625 1
vt 0.6875 1
vt 0.6875 0.8125
vt 0.625 0.8125
vt 0.625 1
vt 0.6875 1
vt 0.6875 0.9375
vt 0.625 0.9375
vt 0.625 0.875
vt 0.6875 0.875
vt 0.6875 0.8125
vt 0.625 0.8125
vn 0 0 -1
vn 1 0 0
vn 0 0 1
vn -1 0 0
vn 0 1 0
vn 0 -1 0
usemtl inserter
f 71/155/39 69/154/39 66/153/39
f 68/156/39 71/155/39 66/153/39
f 68/159/40 66/158/40 65/157/40
f 67/160/40 68/159/40 65/157/40
f 67/163/41 65/162/41 70/161/41
f 72/164/41 67/163/41 70/161/41
f 72/167/42 70/166/42 69/165/42
f 71/168/42 72/167/42 69/165/42
f 65/171/43 66/170/43 69/169/43
f 70/172/43 65/171/43 69/169/43
f 68/175/44 67/174/44 72/173/44
f 71/176/44 68/175/44 72/173/44
o pickerLeft
v 0.75 0.1875 1.9375
v 0.75 0.1875 1.875
v 0.75 0 1.9375
v 0.75 0 1.875
v 0.6875 0.1875 1.875
v 0.6875 0.1875 1.9375
v 0.6875 0 1.875
v 0.6875 0 1.9375
vt 0.625 1
vt 0.6875 1
vt 0.6875 0.8125
vt 0.625 0.8125
vt 0.625 1
vt 0.6875 1
vt 0.6875 0.8125
vt 0.625 0.8125
vt 0.625 1
vt 0.6875 1
vt 0.6875 0.8125
vt 0.625 0.8125
vt 0.625 1
vt 0.6875 1
vt 0.6875 0.8125
vt 0.625 0.8125
vt 0.625 1
vt 0.6875 1
vt 0.6875 0.9375
vt 0.625 0.9375
vt 0.625 0.875
vt 0.6875 0.875
vt 0.6875 0.8125
vt 0.625 0.8125
vn 0 0 -1
vn 1 0 0
vn 0 0 1
vn -1 0 0
vn 0 1 0
vn 0 -1 0
usemtl inserter
f 79/179/45 77/178/45 74/177/45
f 76/180/45 79/179/45 74/177/45
f 76/183/46 74/182/46 73/181/46
f 75/184/46 76/183/46 73/181/46
f 75/187/47 73/186/47 78/185/47
f 80/188/47 75/187/47 78/185/47
f 80/191/48 78/190/48 77/189/48
f 79/192/48 80/191/48 77/189/48
f 73/195/49 74/194/49 77/193/49
f 78/196/49 73/195/49 77/193/49
f 76/199/50 75/198/50 80/197/50
f 79/200/50 76/199/50 80/197/50
o pickerRight2
v 0.5 0.375 1.9375
v 0.5 0.375 1.875
v 0.5 0.1875 1.9375
v 0.5 0.1875 1.875
v 0.4375 0.375 1.875
v 0.4375 0.375 1.9375
v 0.4375 0.1875 1.875
v 0.4375 0.1875 1.9375
vt 0.625 1
vt 0.6875 1
vt 0.6875 0.8125
vt 0.625 0.8125
vt 0.625 1
vt 0.6875 1
vt 0.6875 0.8125
vt 0.625 0.8125
vt 0.625 1
vt 0.6875 1
vt 0.6875 0.8125
vt 0.625 0.8125
vt 0.625 1
vt 0.6875 1
vt 0.6875 0.8125
vt 0.625 0.8125
vt 0.625 1
vt 0.6875 1
vt 0.6875 0.9375
vt 0.625 0.9375
vt 0.625 0.875
vt 0.6875 0.875
vt 0.6875 0.8125
vt 0.625 0.8125
vn 0 0 -1
vn 1 0 0
vn 0 0 1
vn -1 0 0
vn 0 1 0
vn 0 -1 0
usemtl inserter
f 87/203/51 85/202/51 82/201/51
f 84/204/51 87/203/51 82/201/51
f 84/207/52 82/206/52 81/205/52
f 83/208/52 84/207/52 81/205/52
f 83/211/53 81/210/53 86/209/53
f 88/212/53 83/211/53 86/209/53
f 88/215/54 86/214/54 85/213/54
f 87/216/54 88/215/54 85/213/54
f 81/219/55 82/218/55 85/217/55
f 86/220/55 81/219/55 85/217/55
f 84/223/56 83/222/56 88/221/56
f 87/224/56 84/223/56 88/221/56
o pickerRight
v 0.5 0.1875 1.9375
v 0.5 0.1875 1.875
v 0.5 0 1.9375
v 0.5 0 1.875
v 0.4375 0.1875 1.875
v 0.4375 0.1875 1.9375
v 0.4375 0 1.875
v 0.4375 0 1.9375
vt 0.625 1
vt 0.6875 1
vt 0.6875 0.8125
vt 0.625 0.8125
vt 0.625 1
vt 0.6875 1
vt 0.6875 0.8125
vt 0.625 0.8125
vt 0.625 1
vt 0.6875 1
vt 0.6875 0.8125
vt 0.625 0.8125
vt 0.625 1
vt 0.6875 1
vt 0.6875 0.8125
vt 0.625 0.8125
vt 0.625 1
vt 0.6875 1
vt 0.6875 0.9375
vt 0.625 0.9375
vt 0.625 0.875
vt 0.6875 0.875
vt 0.6875 0.8125
vt 0.625 0.8125
vn 0 0 -1
vn 1 0 0
vn 0 0 1
vn -1 0 0
vn 0 1 0
vn 0 -1 0
usemtl inserter
f 95/227/57 93/226/57 90/225/57
f 92/228/57 95/227/57 90/225/57
f 92/231/58 90/230/58 89/229/58
f 91/232/58 92/231/58 89/229/58
f 91/235/59 89/234/59 94/233/59
f 96/236/59 91/235/59 94/233/59
f 96/239/60 94/238/60 93/237/60
f 95/240/60 96/239/60 93/237/60
f 89/243/61 90/242/61 93/241/61
f 94/244/61 89/243/61 93/241/61
f 92/247/62 91/246/62 96/245/62
f 95/248/62 92/247/62 96/245/62
o upper
v 0.5625 -0.0625 1.9375
v 0.625 -0.0625 1.9375
v 0.625 -0.0625 1.875
v 0.5625 -0.0625 1.875
v 0.5625 -0.625 1.875
v 0.625 -0.625 1.875
v 0.625 -0.625 1.9375
v 0.5625 -0.625 1.9375
v 0.4375 0 1.9375
v 0.75 0 1.9375
v 0.75 0 1.875
v 0.4375 0 1.875
v 0.5 -0.0625 1.875
v 0.6875 -0.0625 1.875
v 0.6875 -0.0625 1.9375
v 0.5 -0.0625 1.9375
v 0.65625 -0.59375 1.96875
v 0.65625 -0.59375 1.84375
v 0.65625 -0.71875 1.96875
v 0.65625 -0.71875 1.84375
v 0.53125 -0.59375 1.96875
v 0.53125 -0.59375 1.84375
v 0.53125 -0.71875 1.96875
v 0.53125 -0.71875 1.84375
vt 1 0.25
vt 0.9375 0.25
vt 0.9375 0.3125
vt 1 0.3125
vt 1 0.375
vt 0.9375 0.375
vt 0.9375 0.4375
vt 1 0.4375
vt 0.4375 0.5
vt 0.5 0.5
vt 0.5 0
vt 0.4375 0
vt 0.4375 0.5
vt 0.5 0.5
vt 0.5 0.1875
vt 0.4375 0.1875
vt 0.4375 0.5
vt 0.5 0.5
vt 0.5 0
vt 0.4375 0
vt 0.4375 0.5
vt 0.5 0.5
vt 0.5 0
vt 0.4375 0
vt 0.5 0.5
vt 0.5 0.1875
vt 0.4375 0.1875
vt 0.4375 0.5
vt 0.4375 0.5
vt 0.4375 0.3125
vt 0.375 0.3125
vt 0.375 0.5
vt 0.4375 0
vt 0.4375 0.5
vt 0.5 0.375
vt 0.5 0.125
vt 0.4375 0
vt 0.4375 0.5
vt 0.5 0.4375
vt 0.5 0.125
vt 0.4375 0.5
vt 0.5 0.5
vt 0.5 0.375
vt 0.4375 0.375
vt 0.4375 0.5
vt 0.5 0.5
vt 0.5 0.375
vt 0.4375 0.375
vt 0.625 1
vt 0.625 0.875
vt 0.5 0.875
vt 0.5 1
vt 0.625 1
vt 0.625 0.875
vt 0.5 0.875
vt 0.5 1
vt 0.625 0.875
vt 0.625 1
vt 0.5 1
vt 0.5 0.875
vt 0.5 1
vt 0.5 0.875
vt 0.625 0.875
vt 0.625 1
vn 0 1 0
vn 0 -1 0
vn 0 0 1
vn 0 0 -1
vn 1 0 0
vn -1 0 0
vn 0 1 0
vn 0 -1 0
vn 0 0 1
vn 0 0 -1
vn 0.7071067811865476 -0.7071067811865476 0
vn -0.7071067811865476 -0.7071067811865476 0
vn 0 1 0
vn 0 -1 0
vn 0 0 1
vn 0 0 -1
usemtl inserter
f 97/249/63 98/250/63 99/251/63
f 97/249/63 99/251/63 100/252/63
f 101/253/64 102/254/64 103/255/64
f 101/253/64 103/255/64 104/256/64
f 98/257/65 97/258/65 104/259/65
f 98/257/65 104/259/65 103/260/65
f 100/261/66 99/262/66 102/263/66
f 100/261/66 102/263/66 101/264/66
f 99/265/67 98/266/67 103/267/67
f 99/265/67 103/267/67 102/268/67
f 97/269/68 100/270/68 101/271/68
f 97/269/68 101/271/68 104/272/68
f 105/273/69 106/274/69 107/275/69
f 105/273/69 107/275/69 108/276/69
f 109/277/70 110/278/70 111/279/70
f 109/277/70 111/279/70 112/280/70
f 106/281/71 105/282/71 112/283/71
f 106/281/71 112/283/71 111/284/71
f 108/285/72 107/286/72 110/287/72
f 108/285/72 110/287/72 109/288/72
f 107/289/73 106/290/73 111/291/73
f 107/289/73 111/291/73 110/292/73
f 105/293/74 108/294/74 109/295/74
f 105/293/74 109/295/74 112/296/74
f 113/297/75 114/298/75 118/299/75
f 113/297/75 118/299/75 117/300/75
f 116/301/76 115/302/76 119/303/76
f 116/301/76 119/303/76 120/304/76
f 115/305/77 113/306/77 117/307/77
f 115/305/77 117/307/77 119/308/77
f 120/309/78 118/310/78 114/311/78
f 120/309/78 114/311/78 116/312/78
o lower
v 0.553125 -0.5625 2
v 0.553125 -0.5625 1.8125
v 0.553125 -0.75 2
v 0.553125 -0.75 1.8125
v 0.365625 -0.5625 2
v 0.365625 -0.5625 1.8125
v 0.365625 -0.75 2
v 0.365625 -0.75 1.8125
v 0.634375 -0.5625 2
v 0.634375 -0.5625 1.8125
v 0.634375 -0.75 2
v 0.634375 -0.75 1.8125
v 0.821875 -0.5625 2
v 0.821875 -0.5625 1.8125
v 0.821875 -0.75 2
v 0.821875 -0.75 1.8125
v 0.78125 -1.4375 1.96875
v 0.78125 -1.4375 1.84375
v 0.78125 -1.5625 1.96875
v 0.78125 -1.5625 1.84375
v 0.40625 -1.4375 1.96875
v 0.40625 -1.4375 1.84375
v 0.40625 -1.5625 1.96875
v 0.40625 -1.5625 1.84375
v 0.78125 -0.8125 1.875
v 0.78125 -0.8125 1.8125
v 0.78125 -1.3125 1.875
v 0.78125 -1.3125 1.8125
v 0.40625 -0.8125 1.875
v 0.40625 -0.8125 1.8125
v 0.40625 -1.3125 1.875
v 0.40625 -1.3125 1.8125
v 0.75 -0.84375 1.8125
v 0.75 -0.84375 1.78125
v 0.75 -1.03125 1.8125
v 0.75 -1.03125 1.78125
v 0.4375 -0.84375 1.8125
v 0.4375 -0.84375 1.78125
v 0.4375 -1.03125 1.8125
v 0.4375 -1.03125 1.78125
v 0.75 -1.0625 1.8125
v 0.75 -1.0625 1.78125
v 0.75 -1.25 1.8125
v 0.75 -1.25 1.78125
v 0.4375 -1.0625 1.8125
v 0.4375 -1.0625 1.78125
v 0.4375 -1.25 1.8125
v 0.4375 -1.25 1.78125
v 0.75 -0.75 1.953125
v 0.75 -0.75 1.859375
v 0.75 -1.375 1.953125
v 0.75 -1.375 1.859375
v 0.65625 -0.75 1.953125
v 0.65625 -0.75 1.859375
v 0.65625 -1.375 1.953125
v 0.65625 -1.375 1.859375
v 0.75 -1.0625 1.859375
v 0.75 -1.0625 1.953125
v 0.65625 -1.0625 1.953125
v 0.65625 -1.0625 1.859375
v 0.53125 -0.75 1.953125
v 0.53125 -0.75 1.859375
v 0.53125 -1.375 1.953125
v 0.53125 -1.375 1.859375
v 0.4375 -0.75 1.953125
v 0.4375 -0.75 1.859375
v 0.4375 -1.375 1.953125
v 0.4375 -1.375 1.859375
v 0.53125 -1.0625 1.859375
v 0.53125 -1.0625 1.953125
v 0.4375 -1.0625 1.953125
v 0.4375 -1.0625 1.859375
v 0.53125 -1.4375 1.828125
v 0.53125 -1.4375 1.765625
v 0.53125 -1.5625 1.828125
v 0.53125 -1.5625 1.765625
v 0.4375 -1.4375 1.828125
v 0.4375 -1.4375 1.765625
v 0.4375 -1.5625 1.828125
v 0.4375 -1.5625 1.765625
v 0.53125 -1.4375 2.046875
v 0.53125 -1.4375 1.984375
v 0.53125 -1.5625 2.046875
v 0.53125 -1.5625 1.984375
v 0.4375 -1.4375 2.046875
v 0.4375 -1.4375 1.984375
v 0.4375 -1.5625 2.046875
v 0.4375 -1.5625 1.984375
v 0.75 -1.4375 1.828125
v 0.75 -1.4375 1.765625
v 0.75 -1.5625 1.828125
v 0.75 -1.5625 1.765625
v 0.65625 -1.4375 1.828125
v 0.65625 -1.4375 1.765625
v 0.65625 -1.5625 1.828125
v 0.65625 -1.5625 1.765625
v 0.75 -1.4375 2.046875
v 0.75 -1.4375 1.984375
v 0.75 -1.5625 2.046875
v 0.75 -1.5625 1.984375
v 0.65625 -1.4375 2.046875
v 0.65625 -1.4375 1.984375
v 0.65625 -1.5625 2.046875
v 0.65625 -1.5625 1.984375
vt 0.09375 0.8125
vt 0.09375 1
vt 0 1
vt 0 0.8125
vt 0.8125 0.8125
vt 0.8125 0.625
vt 0.625 0.625
vt 0.625 0.8125
vt 0.8125 0.625
vt 0.8125 0.8125
vt 1 0.8125
vt 1 0.625
vt 0.8125 0.8125
vt 0.8125 0.625
vt 1 0.625
vt 1 0.8125
vt 0.8125 0.625
vt 0.8125 0.8125
vt 1 0.8125
vt 1 0.625
vt 1 0.625
vt 1 0.8125
vt 0.8125 0.8125
vt 0.8125 0.625
vt 0 1
vt 0.09375 1
vt 0.09375 0.8125
vt 0 0.8125
vt 0.625 0.625
vt 0.8125 0.625
vt 0.8125 0.8125
vt 0.625 0.8125
vt 1 0.8125
vt 0.8125 0.8125
vt 0.8125 0.625
vt 1 0.625
vt 1 0.625
vt 0.8125 0.625
vt 0.8125 0.8125
vt 1 0.8125
vt 1 0.8125
vt 0.8125 0.8125
vt 0.8125 0.625
vt 1 0.625
vt 0.8125 0.8125
vt 1 0.8125
vt 1 0.625
vt 0.8125 0.625
vt 0.0625 0.875
vt 0.0625 1
vt 0 1
vt 0 0.875
vt 0.0625 0.875
vt 0.0625 1
vt 0 1
vt 0 0.875
vt 0.5 0.625
vt 0.625 0.625
vt 0.625 1
vt 0.5 1
vt 0.625 0.625
vt 0.5 0.625
vt 0.5 1
vt 0.625 1
vt 0.625 0.625
vt 0.5 0.625
vt 0.5 1
vt 0.625 1
vt 0.5 1
vt 0.625 1
vt 0.625 0.625
vt 0.5 0.625
vt 0 0.5
vt 0 0
vt 0.03125 0
vt 0.03125 0.5
vt 0.34375 0
vt 0.34375 0.5
vt 0.375 0.5
vt 0.375 0
vt 0 0.0625
vt 0 0
vt 0.375 0
vt 0.375 0.0625
vt 0 0.5
vt 0 0.4375
vt 0.375 0.4375
vt 0.375 0.5
vt 0.375 0.5
vt 0.375 0
vt 0 0
vt 0 0.5
vt 0.375 0.5
vt 0.375 0
vt 0 0
vt 0 0.5
vt 0.71875 0.8125
vt 0.71875 1
vt 0.6875 1
vt 0.6875 0.8125
vt 1 0.8125
vt 1 1
vt 0.96875 1
vt 0.96875 0.8125
vt 0.6875 0.9375
vt 0.6875 1
vt 1 1
vt 1 0.9375
vt 0.6875 0.8125
vt 0.6875 0.875
vt 1 0.875
vt 1 0.8125
vt 1 0.8125
vt 1 1
vt 0.6875 1
vt 0.6875 0.8125
vt 0.71875 0.8125
vt 0.71875 1
vt 0.6875 1
vt 0.6875 0.8125
vt 1 0.8125
vt 1 1
vt 0.96875 1
vt 0.96875 0.8125
vt 0.6875 0.9375
vt 0.6875 1
vt 1 1
vt 1 0.9375
vt 0.6875 0.8125
vt 0.6875 0.875
vt 1 0.875
vt 1 0.8125
vt 1 0.8125
vt 1 1
vt 0.6875 1
vt 0.6875 0.8125
vt 0.375 0.5
vt 0.375 0.1875
vt 0.5 0.1875
vt 0.5 0.5
vt 0.375 0.5
vt 0.375 0.1875
vt 0.5 0.1875
vt 0.5 0.5
vt 0.046875 0.90625
vt 0.046875 1
vt 0 1
vt 0 0.90625
vt 0.046875 0.90625
vt 0.046875 1
vt 0 1
vt 0 0.90625
vt 0.5 0.5
vt 0.5 0.1875
vt 0.375 0.1875
vt 0.375 0.5
vt 0.375 0.5
vt 0.375 0.1875
vt 0.5 0.1875
vt 0.5 0.5
vt 0.5 0.5
vt 0.5 0.1875
vt 0.375 0.1875
vt 0.375 0.5
vt 0.375 0.5
vt 0.375 0.1875
vt 0.5 0.1875
vt 0.5 0.5
vt 0.5 0.5
vt 0.5 0.1875
vt 0.375 0.1875
vt 0.375 0.5
vt 0.375 0.5
vt 0.375 0.1875
vt 0.5 0.1875
vt 0.5 0.5
vt 0.375 0.5
vt 0.375 0.1875
vt 0.5 0.1875
vt 0.5 0.5
vt 0.375 0.5
vt 0.375 0.1875
vt 0.5 0.1875
vt 0.5 0.5
vt 0.046875 0.90625
vt 0.046875 1
vt 0 1
vt 0 0.90625
vt 0.046875 0.90625
vt 0.046875 1
vt 0 1
vt 0 0.90625
vt 0.5 0.5
vt 0.5 0.1875
vt 0.375 0.1875
vt 0.375 0.5
vt 0.375 0.5
vt 0.375 0.1875
vt 0.5 0.1875
vt 0.5 0.5
vt 0.5 0.5
vt 0.5 0.1875
vt 0.375 0.1875
vt 0.375 0.5
vt 0.375 0.5
vt 0.375 0.1875
vt 0.5 0.1875
vt 0.5 0.5
vt 0.5 0.5
vt 0.5 0.1875
vt 0.375 0.1875
vt 0.375 0.5
vt 0.375 0.5
vt 0.375 0.1875
vt 0.5 0.1875
vt 0.5 0.5
vt 0.4375 0.375
vt 0.4375 0.125
vt 0.375 0.125
vt 0.375 0.375
vt 0.5 0.375
vt 0.5 0.125
vt 0.4375 0.125
vt 0.4375 0.375
vt 0.375 0.25
vt 0.375 0.375
vt 0.5 0.375
vt 0.5 0.25
vt 0.375 0.125
vt 0.375 0.375
vt 0.5 0.375
vt 0.5 0.125
vt 0.5 0.375
vt 0.5 0.125
vt 0.375 0.125
vt 0.375 0.375
vt 0.4375 0.375
vt 0.4375 0.125
vt 0.375 0.125
vt 0.375 0.375
vt 0.5 0.375
vt 0.5 0.125
vt 0.4375 0.125
vt 0.4375 0.375
vt 0.046875 0.9375
vt 0.046875 1
vt 0 1
vt 0 0.9375
vt 0.375 0.125
vt 0.375 0.375
vt 0.5 0.375
vt 0.5 0.125
vt 0.375 0.125
vt 0.375 0.375
vt 0.5 0.375
vt 0.5 0.125
vt 0.37734375 0
vt 0.43515625 0.09999999999999998
vt 0.43671875 0.1875
vt 0.37734375 0.28437500000000004
vt 0.4984375 0
vt 0.440625 0.09999999999999998
vt 0.4390625 0.1875
vt 0.4984375 0.28437500000000004
vt 0.375 0.375
vt 0.375 0.125
vt 0.5 0.125
vt 0.5 0.375
vt 0.375 0.375
vt 0.375 0
vt 0.5 0
vt 0.5 0.375
vt 0.5 0.375
vt 0.5 0
vt 0.375 0
vt 0.375 0.375
vt 0.4375 0.375
vt 0.4375 0.125
vt 0.375 0.125
vt 0.375 0.375
vt 0.5 0.375
vt 0.5 0.125
vt 0.4375 0.125
vt 0.4375 0.375
vt 0.375 0.25
vt 0.375 0.375
vt 0.5 0.375
vt 0.5 0.25
vt 0.375 0.125
vt 0.375 0.375
vt 0.5 0.375
vt 0.5 0.125
vt 0.5 0.375
vt 0.5 0.125
vt 0.375 0.125
vt 0.375 0.375
vt 0.4375 0.375
vt 0.4375 0.125
vt 0.375 0.125
vt 0.375 0.375
vt 0.5 0.375
vt 0.5 0.125
vt 0.4375 0.125
vt 0.4375 0.375
vt 0.046875 0.9375
vt 0.046875 1
vt 0 1
vt 0 0.9375
vt 0.375 0.125
vt 0.375 0.375
vt 0.5 0.375
vt 0.5 0.125
vt 0.375 0.125
vt 0.375 0.375
vt 0.5 0.375
vt 0.5 0.125
vt 0.37734375 0
vt 0.43515625 0.09999999999999998
vt 0.43671875 0.1875
vt 0.37734375 0.28437500000000004
vt 0.4984375 0
vt 0.440625 0.09999999999999998
vt 0.4390625 0.1875
vt 0.4984375 0.28437500000000004
vt 0.375 0.375
vt 0.375 0.125
vt 0.5 0.125
vt 0.5 0.375
vt 0.375 0.375
vt 0.375 0
vt 0.5 0
vt 0.5 0.375
vt 0.5 0.375
vt 0.5 0
vt 0.375 0
vt 0.375 0.375
vn 1 0 0
vn -1 0 0
vn 0 1 0
vn 0 -1 0
vn 0 0 1
vn 0 0 -1
vn -1 0 0
vn 1 0 0
vn 0 1 0
vn 0 -1 0
vn 0 0 1
vn 0 0 -1
vn 1 0 0
vn -1 0 0
vn 0 1 0
vn 0 -1 0
vn 0 0 1
vn 0 0 -1
vn 1 0 0
vn -1 0 0
vn 0 1 0
vn 0 -1 0
vn 0 0 1
vn 0 0 -1
vn 1 0 0
vn -1 0 0
vn 0 1 0
vn 0 -1 0
vn 0 0 -1
vn 1 0 0
vn -1 0 0
vn 0 1 0
vn 0 -1 0
vn 0 0 -1
vn 1 0 0
vn -1 0 0
vn 0 1 0
vn 0 -1 0
vn 0 0 1
vn 0 0 -1
vn 1 0 0
vn 0 0 1
vn -1 0 0
vn 0 0 -1
vn 1 0 0
vn -1 0 0
vn 0 1 0
vn 0 -1 0
vn 0 0 1
vn 0 0 -1
vn 1 0 0
vn 0 0 1
vn -1 0 0
vn 0 0 -1
vn 1 0 0
vn -1 0 0
vn 0 -1 0
vn 0 0 1
vn 0 0 -1
vn 1 0 0
vn -1 0 0
vn 0 -1 0
vn 0 0 1
vn 0 0 -1
vn 1 0 0
vn -1 0 0
vn 0 1 0
vn 0 0.8320502943378438 0.5547001962252291
vn 0 0.8320502943378438 -0.5547001962252291
vn 1 0 0
vn -1 0 0
vn 0 -1 0
vn 0 0 1
vn 0 0 -1
vn 1 0 0
vn -1 0 0
vn 0 -1 0
vn 0 0 1
vn 0 0 -1
vn 1 0 0
vn -1 0 0
vn 0 1 0
vn 0 0.8320502943378438 0.5547001962252291
vn 0 0.8320502943378438 -0.5547001962252291
usemtl inserter
f 124/313/79 122/314/79 121/315/79
f 124/313/79 121/315/79 123/316/79
f 127/317/80 125/318/80 126/319/80
f 127/317/80 126/319/80 128/320/80
f 121/321/81 122/322/81 126/323/81
f 121/321/81 126/323/81 125/324/81
f 124/325/82 123/326/82 127/327/82
f 124/325/82 127/327/82 128/328/82
f 123/329/83 121/330/83 125/331/83
f 123/329/83 125/331/83 127/332/83
f 128/333/84 126/334/84 122/335/84
f 128/333/84 122/335/84 124/336/84
f 129/337/85 130/338/85 132/339/85
f 129/337/85 132/339/85 131/340/85
f 134/341/86 133/342/86 135/343/86
f 134/341/86 135/343/86 136/344/86
f 134/345/87 130/346/87 129/347/87
f 134/345/87 129/347/87 133/348/87
f 135/349/88 131/350/88 132/351/88
f 135/349/88 132/351/88 136/352/88
f 133/353/89 129/354/89 131/355/89
f 133/353/89 131/355/89 135/356/89
f 130/357/90 134/358/90 136/359/90
f 130/357/90 136/359/90 132/360/90
f 140/361/91 138/362/91 137/363/91
f 140/361/91 137/363/91 139/364/91
f 143/365/92 141/366/92 142/367/92
f 143/365/92 142/367/92 144/368/92
f 137/369/93 138/370/93 142/371/93
f 137/369/93 142/371/93 141/372/93
f 140/373/94 139/374/94 143/375/94
f 140/373/94 143/375/94 144/376/94
f 139/377/95 137/378/95 141/379/95
f 139/377/95 141/379/95 143/380/95
f 144/381/96 142/382/96 138/383/96
f 144/381/96 138/383/96 140/384/96
f 148/385/97 146/386/97 145/387/97
f 148/385/97 145/387/97 147/388/97
f 151/389/98 149/390/98 150/391/98
f 151/389/98 150/391/98 152/392/98
f 145/393/99 146/394/99 150/395/99
f 145/393/99 150/395/99 149/396/99
f 148/397/100 147/398/100 151/399/100
f 148/397/100 151/399/100 152/400/100
f 147/401/101 145/402/101 149/403/101
f 147/401/101 149/403/101 151/404/101
f 152/405/102 150/406/102 146/407/102
f 152/405/102 146/407/102 148/408/102
f 156/409/103 154/410/103 153/411/103
f 156/409/103 153/411/103 155/412/103
f 159/413/104 157/414/104 158/415/104
f 159/413/104 158/415/104 160/416/104
f 153/417/105 154/418/105 158/419/105
f 153/417/105 158/419/105 157/420/105
f 156/421/106 155/422/106 159/423/106
f 156/421/106 159/423/106 160/424/106
f 160/425/107 158/426/107 154/427/107
f 160/425/107 154/427/107 156/428/107
f 164/429/108 162/430/108 161/431/108
f 164/429/108 161/431/108 163/432/108
f 167/433/109 165/434/109 166/435/109
f 167/433/109 166/435/109 168/436/109
f 161/437/110 162/438/110 166/439/110
f 161/437/110 166/439/110 165/440/110
f 164/441/111 163/442/111 167/443/111
f 164/441/111 167/443/111 168/444/111
f 168/445/112 166/446/112 162/447/112
f 168/445/112 162/447/112 164/448/112
f 169/449/113 178/450/113 177/451/113
f 169/449/113 177/451/113 170/452/113
f 174/453/114 180/454/114 179/455/114
f 174/453/114 179/455/114 173/456/114
f 169/457/115 170/458/115 174/459/115
f 169/457/115 174/459/115 173/460/115
f 172/461/116 171/462/116 175/463/116
f 172/461/116 175/463/116 176/464/116
f 173/465/117 179/466/117 178/467/117
f 173/465/117 178/467/117 169/468/117
f 170/469/118 177/470/118 180/471/118
f 170/469/118 180/471/118 174/472/118
f 172/473/119 177/474/119 178/475/119
f 172/473/119 178/475/119 171/476/119
f 171/477/120 178/478/120 179/479/120
f 171/477/120 179/479/120 175/480/120
f 175/481/121 179/482/121 180/483/121
f 175/481/121 180/483/121 176/484/121
f 176/485/122 180/486/122 177/487/122
f 176/485/122 177/487/122 172/488/122
f 181/489/123 190/490/123 189/491/123
f 181/489/123 189/491/123 182/492/123
f 186/493/124 192/494/124 191/495/124
f 186/493/124 191/495/124 185/496/124
f 181/497/125 182/498/125 186/499/125
f 181/497/125 186/499/125 185/500/125
f 184/501/126 183/502/126 187/503/126
f 184/501/126 187/503/126 188/504/126
f 185/505/127 191/506/127 190/507/127
f 185/505/127 190/507/127 181/508/127
f 182/509/128 189/510/128 192/511/128
f 182/509/128 192/511/128 186/512/128
f 184/513/129 189/514/129 190/515/129
f 184/513/129 190/515/129 183/516/129
f 183/517/130 190/518/130 191/519/130
f 183/517/130 191/519/130 187/520/130
f 187/521/131 191/522/131 192/523/131
f 187/521/131 192/523/131 188/524/131
f 188/525/132 192/526/132 189/527/132
f 188/525/132 189/527/132 184/528/132
f 196/529/133 194/530/133 193/531/133
f 196/529/133 193/531/133 195/532/133
f 199/533/134 197/534/134 198/535/134
f 199/533/134 198/535/134 200/536/134
f 196/537/135 195/538/135 199/539/135
f 196/537/135 199/539/135 200/540/135
f 195/541/136 193/542/136 197/543/136
f 195/541/136 197/543/136 199/544/136
f 200/545/137 198/546/137 194/547/137
f 200/545/137 194/547/137 196/548/137
f 204/549/138 202/550/138 201/551/138
f 204/549/138 201/551/138 203/552/138
f 207/553/139 205/554/139 206/555/139
f 207/553/139 206/555/139 208/556/139
f 204/557/140 203/558/140 207/559/140
f 204/557/140 207/559/140 208/560/140
f 203/561/141 201/562/141 205/563/141
f 203/561/141 205/563/141 207/564/141
f 208/565/142 206/566/142 202/567/142
f 208/565/142 202/567/142 204/568/142
f 194/569/143 184/570/143 183/571/143
f 194/569/143 183/571/143 201/572/143
f 205/573/144 187/574/144 188/575/144
f 205/573/144 188/575/144 198/576/144
f 183/577/145 184/578/145 188/579/145
f 183/577/145 188/579/145 187/580/145
f 201/581/146 183/582/146 187/583/146
f 201/581/146 187/583/146 205/584/146
f 198/585/147 188/586/147 184/587/147
f 198/585/147 184/587/147 194/588/147
f 212/589/148 210/590/148 209/591/148
f 212/589/148 209/591/148 211/592/148
f 215/593/149 213/594/149 214/595/149
f 215/593/149 214/595/149 216/596/149
f 212/597/150 211/598/150 215/599/150
f 212/597/150 215/599/150 216/600/150
f 211/601/151 209/602/151 213/603/151
f 211/601/151 213/603/151 215/604/151
f 216/605/152 214/606/152 210/607/152
f 216/605/152 210/607/152 212/608/152
f 220/609/153 218/610/153 217/611/153
f 220/609/153 217/611/153 219/612/153
f 223/613/154 221/614/154 222/615/154
f 223/613/154 222/615/154 224/616/154
f 220/617/155 219/618/155 223/619/155
f 220/617/155 223/619/155 224/620/155
f 219/621/156 217/622/156 221/623/156
f 219/621/156 221/623/156 223/624/156
f 224/625/157 222/626/157 218/627/157
f 224/625/157 218/627/157 220/628/157
f 210/629/158 172/630/158 171/631/158
f 210/629/158 171/631/158 217/632/158
f 221/633/159 175/634/159 176/635/159
f 221/633/159 176/635/159 214/636/159
f 171/637/160 172/638/160 176/639/160
f 171/637/160 176/639/160 175/640/160
f 217/641/161 171/642/161 175/643/161
f 217/641/161 175/643/161 221/644/161
f 214/645/162 176/646/162 172/647/162
f 214/645/162 172/647/162 210/648/162
o turntable
v 0.84375 -1.625 2.15625
v 0.84375 -1.625 1.65625
v 0.84375 -1.6875 2.15625
v 0.84375 -1.6875 1.65625
v 0.34375 -1.625 2.15625
v 0.34375 -1.625 1.65625
v 0.34375 -1.6875 2.15625
v 0.34375 -1.6875 1.65625
v 0.71875 -1.6875 2.03125
v 0.71875 -1.6875 1.78125
v 0.71875 -1.75 2.03125
v 0.71875 -1.75 1.78125
v 0.46875 -1.6875 2.03125
v 0.46875 -1.6875 1.78125
v 0.46875 -1.75 2.03125
v 0.46875 -1.75 1.78125
v 0.40625 -1.4375 2.03125
v 0.40625 -1.4375 1.78125
v 0.40625 -1.625 2.03125
v 0.40625 -1.625 1.78125
v 0.34375 -1.4375 2.03125
v 0.34375 -1.4375 1.78125
v 0.34375 -1.625 2.03125
v 0.34375 -1.625 1.78125
v 0.84375 -1.4375 2.03125
v 0.84375 -1.4375 1.78125
v 0.84375 -1.625 2.03125
v 0.84375 -1.625 1.78125
v 0.78125 -1.4375 2.03125
v 0.78125 -1.4375 1.78125
v 0.78125 -1.625 2.03125
v 0.78125 -1.625 1.78125
v 0.40625 -1.375 1.96875
v 0.40625 -1.375 1.84375
v 0.34375 -1.375 1.96875
v 0.34375 -1.375 1.84375
v 0.84375 -1.375 1.96875
v 0.84375 -1.375 1.84375
v 0.78125 -1.375 1.96875
v 0.78125 -1.375 1.84375
vt 0.5 1
vt 0.4375 1
vt 0.4375 0.5
vt 0.5 0.5
vt 0.0625 1
vt 0 1
vt 0 0.5
vt 0.0625 0.5
vt 0.5 0.5
vt 0.5 1
vt 0 1
vt 0 0.5
vt 0.5 0.5
vt 0.5 1
vt 0 1
vt 0 0.5
vt 0.5 0.9375
vt 0.5 1
vt 0 1
vt 0 0.9375
vt 0 0.5
vt 0 0.5625
vt 0.5 0.5625
vt 0.5 0.5
vt 0.8125 0.5625
vt 0.8125 0.625
vt 0.5625 0.625
vt 0.5625 0.5625
vt 0.8125 0.5625
vt 0.8125 0.625
vt 0.5625 0.625
vt 0.5625 0.5625
vt 0.8125 0.5625
vt 0.8125 0.625
vt 0.5625 0.625
vt 0.5625 0.5625
vt 0.8125 0.5625
vt 0.8125 0.625
vt 0.5625 0.625
vt 0.5625 0.5625
vt 0.375 0.5
vt 0.375 0.6875
vt 0.125 0.6875
vt 0.125 0.5
vt 0.375 0.5
vt 0.375 0.6875
vt 0.125 0.6875
vt 0.125 0.5
vt 0.375 0.5
vt 0.375 0.6875
vt 0.3125 0.6875
vt 0.3125 0.5
vt 0.1875 0.5
vt 0.1875 0.6875
vt 0.125 0.6875
vt 0.125 0.5
vt 0.375 0.5
vt 0.375 0.6875
vt 0.125 0.6875
vt 0.125 0.5
vt 0.375 0.5
vt 0.375 0.6875
vt 0.125 0.6875
vt 0.125 0.5
vt 0.375 0.5
vt 0.375 0.6875
vt 0.3125 0.6875
vt 0.3125 0.5
vt 0.1875 0.5
vt 0.1875 0.6875
vt 0.125 0.6875
vt 0.125 0.5
vt 0.3125 0.5625
vt 0.28125 0.5
vt 0.21875 0.5
vt 0.1875 0.5625
vt 0.1875 0.5625
vt 0.21875 0.5
vt 0.28125 0.5
vt 0.3125 0.5625
vt 0.28125 0.5625
vt 0.21875 0.5625
vt 0.21875 0.5
vt 0.28125 0.5
vt 0.3125 0.5
vt 0.3125 0.5625
vt 0.28125 0.5625
vt 0.28125 0.5
vt 0.21875 0.5
vt 0.21875 0.5625
vt 0.1875 0.5625
vt 0.1875 0.5
vt 0.3125 0.5625
vt 0.28125 0.5
vt 0.21875 0.5
vt 0.1875 0.5625
vt 0.1875 0.5625
vt 0.21875 0.5
vt 0.28125 0.5
vt 0.3125 0.5625
vt 0.28125 0.5625
vt 0.21875 0.5625
vt 0.21875 0.5
vt 0.28125 0.5
vt 0.3125 0.5
vt 0.3125 0.5625
vt 0.28125 0.5625
vt 0.28125 0.5
vt 0.21875 0.5
vt 0.21875 0.5625
vt 0.1875 0.5625
vt 0.1875 0.5
vn 1 0 0
vn -1 0 0
vn 0 1 0
vn 0 -1 0
vn 0 0 1
vn 0 0 -1
vn 1 0 0
vn -1 0 0
vn 0 0 1
vn 0 0 -1
vn 1 0 0
vn -1 0 0
vn 0 0 1
vn 0 0 -1
vn 1 0 0
vn -1 0 0
vn 0 0 1
vn 0 0 -1
vn 1 0 0
vn -1 0 0
vn 0 1 0
vn 0 0.7071067811865476 0.7071067811865476
vn 0 0.7071067811865476 -0.7071067811865476
vn 1 0 0
vn -1 0 0
vn 0 1 0
vn 0 0.7071067811865476 0.7071067811865476
vn 0 0.7071067811865476 -0.7071067811865476
usemtl inserter
f 228/649/163 226/650/163 225/651/163
f 228/649/163 225/651/163 227/652/163
f 231/653/164 229/654/164 230/655/164
f 231/653/164 230/655/164 232/656/164
f 225/657/165 226/658/165 230/659/165
f 225/657/165 230/659/165 229/660/165
f 228/661/166 227/662/166 231/663/166
f 228/661/166 231/663/166 232/664/166
f 227/665/167 225/666/167 229/667/167
f 227/665/167 229/667/167 231/668/167
f 232/669/168 230/670/168 226/671/168
f 232/669/168 226/671/168 228/672/168
f 236/673/169 234/674/169 233/675/169
f 236/673/169 233/675/169 235/676/169
f 239/677/170 237/678/170 238/679/170
f 239/677/170 238/679/170 240/680/170
f 235/681/171 233/682/171 237/683/171
f 235/681/171 237/683/171 239/684/171
f 240/685/172 238/686/172 234/687/172
f 240/685/172 234/687/172 236/688/172
f 244/689/173 242/690/173 241/691/173
f 244/689/173 241/691/173 243/692/173
f 247/693/174 245/694/174 246/695/174
f 247/693/174 246/695/174 248/696/174
f 243/697/175 241/698/175 245/699/175
f 243/697/175 245/699/175 247/700/175
f 248/701/176 246/702/176 242/703/176
f 248/701/176 242/703/176 244/704/176
f 252/705/177 250/706/177 249/707/177
f 252/705/177 249/707/177 251/708/177
f 255/709/178 253/710/178 254/711/178
f 255/709/178 254/711/178 256/712/178
f 251/713/179 249/714/179 253/715/179
f 251/713/179 253/715/179 255/716/179
f 256/717/180 254/718/180 250/719/180
f 256/717/180 250/719/180 252/720/180
f 242/721/181 258/722/181 257/723/181
f 242/721/181 257/723/181 241/724/181
f 245/725/182 259/726/182 260/727/182
f 245/725/182 260/727/182 246/728/182
f 257/729/183 258/730/183 260/731/183
f 257/729/183 260/731/183 259/732/183
f 241/733/184 257/734/184 259/735/184
f 241/733/184 259/735/184 245/736/184
f 246/737/185 260/738/185 258/739/185
f 246/737/185 258/739/185 242/740/185
f 250/741/186 262/742/186 261/743/186
f 250/741/186 261/743/186 249/744/186
f 253/745/187 263/746/187 264/747/187
f 253/745/187 264/747/187 254/748/187
f 261/749/188 262/750/188 264/751/188
f 261/749/188 264/751/188 263/752/188
f 249/753/189 261/754/189 263/755/189
f 249/753/189 263/755/189 253/756/189
f 254/757/190 264/758/190 262/759/190
f 254/757/190 262/759/190 250/760/190
o lid1
v 1.15625 -1.5 2.09375
v 1.15625 -1.5 1.59375
v 1.15625 -1.5625 2.09375
v 1.15625 -1.5625 1.59375
v 0.84375 -1.5 2.09375
v 0.84375 -1.5 1.59375
v 0.84375 -1.5625 2.09375
v 0.84375 -1.5625 1.59375
vt 0.6875 0.359375
vt 0.671875 0.359375
vt 0.671875 0.484375
vt 0.6875 0.484375
vt 0.6875 0.359375
vt 0.671875 0.359375
vt 0.671875 0.484375
vt 0.6875 0.484375
vt 0.75 0.484375
vt 0.75 0.359375
vt 0.671875 0.359375
vt 0.671875 0.484375
vt 0.75 0.359375
vt 0.75 0.484375
vt 0.671875 0.484375
vt 0.671875 0.359375
vt 0.671875 0.359375
vt 0.671875 0.375
vt 0.75 0.375
vt 0.75 0.359375
vt 0.671875 0.375
vt 0.671875 0.390625
vt 0.75 0.390625
vt 0.75 0.375
vn 1 0 0
vn -1 0 0
vn 0 1 0
vn 0 -1 0
vn 0 0 1
vn 0 0 -1
usemtl weapon_machinegun
f 268/761/191 266/762/191 265/763/191
f 268/761/191 265/763/191 267/764/191
f 271/765/192 269/766/192 270/767/192
f 271/765/192 270/767/192 272/768/192
f 265/769/193 266/770/193 270/771/193
f 265/769/193 270/771/193 269/772/193
f 268/773/194 267/774/194 271/775/194
f 268/773/194 271/775/194 272/776/194
f 267/777/195 265/778/195 269/779/195
f 267/777/195 269/779/195 271/780/195
f 272/781/196 270/782/196 266/783/196
f 272/781/196 266/783/196 268/784/196
o lid2
v 0.21875 -1.5 2.09375
v 0.21875 -1.5 1.59375
v 0.21875 -1.5625 2.09375
v 0.21875 -1.5625 1.59375
v -0.09375 -1.5 2.09375
v -0.09375 -1.5 1.59375
v -0.09375 -1.5625 2.09375
v -0.09375 -1.5625 1.59375
vt 0.6875 0.359375
vt 0.671875 0.359375
vt 0.671875 0.484375
vt 0.6875 0.484375
vt 0.6875 0.359375
vt 0.671875 0.359375
vt 0.671875 0.484375
vt 0.6875 0.484375
vt 0.75 0.484375
vt 0.75 0.359375
vt 0.671875 0.359375
vt 0.671875 0.484375
vt 0.75 0.359375
vt 0.75 0.484375
vt 0.671875 0.484375
vt 0.671875 0.359375
vt 0.671875 0.359375
vt 0.671875 0.375
vt 0.75 0.375
vt 0.75 0.359375
vt 0.671875 0.375
vt 0.671875 0.390625
vt 0.75 0.390625
vt 0.75 0.375
vn 1 0 0
vn -1 0 0
vn 0 1 0
vn 0 -1 0
vn 0 0 1
vn 0 0 -1
usemtl weapon_machinegun
f 276/785/197 274/786/197 273/787/197
f 276/785/197 273/787/197 275/788/197
f 279/789/198 277/790/198 278/791/198
f 279/789/198 278/791/198 280/792/198
f 273/793/199 274/794/199 278/795/199
f 273/793/199 278/795/199 277/796/199
f 276/797/200 275/798/200 279/799/200
f 276/797/200 279/799/200 280/800/200
f 275/801/201 273/802/201 277/803/201
f 275/801/201 277/803/201 279/804/201
f 280/805/202 278/806/202 274/807/202
f 280/805/202 274/807/202 276/808/202
o cannon
v 0.4375 -1.6875 1.21875
v 0.4375 -1.6875 0.96875
v 0.4375 -2 1.21875
v 0.4375 -2 0.96875
v 0.25 -1.6875 1.21875
v 0.25 -1.6875 0.96875
v 0.25 -2 1.21875
v 0.25 -2 0.96875
v 0.8125 -1.6875 1.21875
v 0.8125 -1.6875 0.96875
v 0.8125 -2 1.21875
v 0.8125 -2 0.96875
v 0.625 -1.6875 1.21875
v 0.625 -1.6875 0.96875
v 0.625 -2 1.21875
v 0.625 -2 0.96875
v 0.46875 -1.5 1.71875
v 0.46875 -1.5 1.46875
v 0.46875 -1.625 1.71875
v 0.46875 -1.625 1.46875
v 0.34375 -1.5 1.71875
v 0.34375 -1.5 1.46875
v 0.34375 -1.625 1.71875
v 0.34375 -1.625 1.46875
v 0.53125 -1.625 1.71875
v 0.53125 -1.5 1.71875
v 0.53125 -1.5 1.84375
v 0.65625 -1.625 1.71875
v 0.59375 -1.5 1.71875
v 0.65625 -1.625 1.84375
v 0.59375 -1.5 1.84375
v 0.53125 -1.5 1.84375
v 0.53125 -1.5 1.71875
v 0.53125 -1.625 1.71875
v 0.46875 -1.5 1.84375
v 0.46875 -1.5 1.71875
v 0.46875 -1.625 1.71875
v 0.46875 -1.5 1.71875
v 0.34375 -1.5 1.71875
v 0.34375 -1.625 1.71875
v 0.46875 -1.5 1.84375
v 0.34375 -1.5 1.78125
v 0.46875 -1.625 1.84375
v 0.34375 -1.625 1.78125
v 0.46875 -1.5 1.46875
v 0.46875 -1.5 1.34375
v 0.46875 -1.625 1.34375
v 0.34375 -1.5 1.46875
v 0.40625 -1.5 1.34375
v 0.34375 -1.625 1.46875
v 0.40625 -1.625 1.34375
v 0.59375 -1.5 1.46875
v 0.59375 -1.5 1.34375
v 0.59375 -1.625 1.46875
v 0.59375 -1.625 1.34375
v 0.46875 -1.5 1.46875
v 0.46875 -1.5 1.34375
v 0.46875 -1.625 1.46875
v 0.46875 -1.625 1.34375
v 0.84375 -1.625 1.84375
v 0.84375 -1.625 1.21875
v 0.84375 -2 1.84375
v 0.84375 -2 1.21875
v 0.21875 -1.625 1.84375
v 0.21875 -1.625 1.21875
v 0.21875 -2 1.84375
v 0.21875 -2 1.21875
v 0.84375 -1.25 1.53125
v 0.84375 -1.25 1.28125
v 0.84375 -1.625 1.53125
v 0.84375 -1.625 1.28125
v 0.59375 -1.25 1.53125
v 0.59375 -1.25 1.28125
v 0.59375 -1.625 1.53125
v 0.59375 -1.625 1.28125
v 0.957583125 -1.34801 1.28125
v 1.2761331249999999 -1.3574087499999998 1.46875
v 1.2761331249999999 -1.3574087499999998 1.34375
v 1.2620737499999999 -1.4183068749999999 1.46875
v 1.2620737499999999 -1.4183068749999999 1.34375
v 0.84984625 -1.258993125 1.46875
v 0.84984625 -1.258993125 1.34375
v 0.835786875 -1.31989125 1.46875
v 0.835786875 -1.31989125 1.34375
v 1.2620737499999999 -1.4183068749999999 1.46875
v 1.2620737499999999 -1.4183068749999999 1.34375
v 1.20583625 -1.661899375 1.46875
v 1.20583625 -1.661899375 1.34375
v 1.201175625 -1.4042474999999999 1.46875
v 1.201175625 -1.4042474999999999 1.34375
v 1.144938125 -1.64784 1.46875
v 1.144938125 -1.64784 1.34375
v 1.20583625 -1.661899375 1.46875
v 1.20583625 -1.661899375 1.34375
v 1.191776875 -1.7227975 1.46875
v 1.191776875 -1.7227975 1.34375
v 0.779549375 -1.56348375 1.46875
v 0.779549375 -1.56348375 1.34375
v 0.76549 -1.624381875 1.46875
v 0.76549 -1.624381875 1.34375
v 1.201175625 -1.4042474999999999 1.03125
v 1.201175625 -1.4042474999999999 0.96875
v 1.144938125 -1.64784 1.03125
v 1.144938125 -1.64784 0.96875
v 0.957583125 -1.34801 1.03125
v 0.957583125 -1.34801 0.96875
v 0.901345625 -1.5916025 1.03125
v 0.901345625 -1.5916025 0.96875
v 1.163696875 -1.427666875 0.96875
v 1.163696875 -1.427666875 0.90625
v 1.12151875 -1.61036125 0.96875
v 1.12151875 -1.61036125 0.90625
v 0.9810025 -1.38548875 0.96875
v 0.9810025 -1.38548875 0.90625
v 0.938824375 -1.568183125 0.96875
v 0.938824375 -1.568183125 0.90625
v 1.201175625 -1.4042474999999999 0.90625
v 1.201175625 -1.4042474999999999 0.84375
v 1.144938125 -1.64784 0.90625
v 1.144938125 -1.64784 0.84375
v 0.957583125 -1.34801 0.90625
v 0.957583125 -1.34801 0.84375
v 0.901345625 -1.5916025 0.90625
v 0.901345625 -1.5916025 0.84375
v 1.010511875 -1.4243731249999998 1.21875
v 0.9870925 -1.3868943749999998 1.28125
v 0.9823925 -1.5461693749999998 1.21875
v 0.94491375 -1.5695887499999999 1.28125
v 1.132308125 -1.4524925 1.21875
v 1.169786875 -1.429073125 1.28125
v 1.10418875 -1.57428875 1.21875
v 1.127608125 -1.6117675 1.28125
v 1.010511875 -1.4243731249999998 1.09375
v 0.9870925 -1.3868943749999998 1.15625
v 0.9823925 -1.5461693749999998 1.09375
v 0.94491375 -1.5695887499999999 1.15625
v 1.132308125 -1.4524925 1.09375
v 1.169786875 -1.429073125 1.15625
v 1.10418875 -1.57428875 1.09375
v 1.127608125 -1.6117675 1.15625
v 1.132308125 -1.4524925 1.21875
v 1.169786875 -1.429073125 1.15625
v 1.10418875 -1.57428875 1.21875
v 1.127608125 -1.6117675 1.15625
v 1.010511875 -1.4243731249999998 1.21875
v 0.9870925 -1.3868943749999998 1.15625
v 0.9823925 -1.5461693749999998 1.21875
v 0.94491375 -1.5695887499999999 1.15625
v 1.132308125 -1.4524925 1.09375
v 1.169786875 -1.429073125 1.03125
v 1.10418875 -1.57428875 1.09375
v 1.127608125 -1.6117675 1.03125
v 1.010511875 -1.4243731249999998 1.09375
v 0.9870925 -1.3868943749999998 1.03125
v 0.9823925 -1.5461693749999998 1.09375
v 0.94491375 -1.5695887499999999 1.03125
v 1.201175625 -1.4042474999999999 1.53125
v 1.201175625 -1.4042474999999999 1.28125
v 1.144938125 -1.64784 1.53125
v 1.144938125 -1.64784 1.28125
v 0.957583125 -1.34801 1.53125
v 0.901345625 -1.5916025 1.53125
v 0.901345625 -1.5916025 1.28125
v 0.9375 -1.75 1.46875
v 0.9375 -1.75 1.34375
v 0.9375 -1.875 1.46875
v 0.9375 -1.875 1.34375
v 0.125 -1.75 1.46875
v 0.125 -1.75 1.34375
v 0.125 -1.875 1.46875
v 0.125 -1.875 1.34375
v 0.34375 -1.5625 1.8125
v 0.34375 -1.5625 1.5625
v 0.34375 -1.625 1.8125
v 0.34375 -1.625 1.5625
v 0.21875 -1.5625 1.8125
v 0.21875 -1.5625 1.5625
v 0.21875 -1.625 1.8125
v 0.21875 -1.625 1.5625
v 0.84375 -1.5625 1.8125
v 0.84375 -1.5625 1.5625
v 0.84375 -1.625 1.8125
v 0.84375 -1.625 1.5625
v 0.71875 -1.5625 1.8125
v 0.71875 -1.5625 1.5625
v 0.71875 -1.625 1.8125
v 0.71875 -1.625 1.5625
v 0.84375 -1.5 1.90625
v 0.84375 -1.5 1.84375
v 0.84375 -2 1.90625
v 0.84375 -2 1.84375
v 0.34375 -1.5 1.90625
v 0.34375 -1.5 1.84375
v 0.34375 -2 1.90625
v 0.34375 -2 1.84375
v 1.15625 -1.5625 2.09375
v 1.15625 -1.5625 1.59375
v 1.15625 -1.9375 2.09375
v 1.15625 -1.9375 1.59375
v 0.84375 -1.5625 2.09375
v 0.84375 -1.5625 1.59375
v 0.84375 -1.9375 2.09375
v 0.84375 -1.9375 1.59375
v 0.21875 -1.5625 2.09375
v 0.21875 -1.5625 1.59375
v 0.21875 -1.9375 2.09375
v 0.21875 -1.9375 1.59375
v -0.09375 -1.5625 2.09375
v -0.09375 -1.5625 1.59375
v -0.09375 -1.9375 2.09375
v -0.09375 -1.9375 1.59375
vt 0.9375 0.3125
vt 0.9375 0.234375
vt 1 0.234375
vt 1 0.3125
vt 1 0.234375
vt 1 0.3125
vt 0.9375 0.3125
vt 0.9375 0.234375
vt 0.984375 0.3125
vt 0.984375 0.375
vt 0.9375 0.375
vt 0.9375 0.3125
vt 0.9375 0.375
vt 0.9375 0.3125
vt 0.984375 0.3125
vt 0.984375 0.375
vt 0.9375 0.234375
vt 0.9375 0.3125
vt 0.890625 0.3125
vt 0.890625 0.234375
vt 0.9375 0.3125
vt 0.9375 0.234375
vt 1 0.234375
vt 1 0.3125
vt 1 0.234375
vt 1 0.3125
vt 0.9375 0.3125
vt 0.9375 0.234375
vt 0.984375 0.3125
vt 0.984375 0.375
vt 0.9375 0.375
vt 0.9375 0.3125
vt 0.9375 0.375
vt 0.9375 0.3125
vt 0.984375 0.3125
vt 0.984375 0.375
vt 0.9375 0.234375
vt 0.9375 0.3125
vt 0.890625 0.3125
vt 0.890625 0.234375
vt 0.6875 0.875
vt 0.5625 0.875
vt 0.5625 0.625
vt 0.6875 0.625
vt 0.6875 0.9375
vt 0.5625 0.9375
vt 0.5625 0.6875
vt 0.6875 0.6875
vt 0.6875 0.625
vt 0.6875 0.875
vt 0.5625 0.875
vt 0.5625 0.625
vt 0.6875 0.375
vt 0.6875 0.625
vt 0.5625 0.625
vt 0.5625 0.375
vt 0.5625 0.875
vt 0.6875 0.875
vt 0.6875 1
vt 0.5625 1
vt 0.75 0
vt 0.875 0
vt 0.875 0.125
vt 0.75 0.125
vt 0.625 1
vt 0.5625 1
vt 0.5625 0.875
vt 0.625 0.875
vt 0.6875 0.25
vt 0.6875 0.375
vt 0.625 0.375
vt 0.625 0.25
vt 0.6875 0.25
vt 0.6875 0.375
vt 0.625 0.375
vt 0.625 0.25
vt 0.5625 0.875
vt 0.6875 0.875
vt 0.6875 1
vt 0.5625 1
vt 0.75 0
vt 0.875 0
vt 0.875 0.125
vt 0.75 0.125
vt 0.625 1
vt 0.5625 1
vt 0.5625 0.875
vt 0.625 0.875
vt 0.5625 0.875
vt 0.6875 0.875
vt 0.6875 1
vt 0.5625 1
vt 0.75 0
vt 0.875 0
vt 0.875 0.125
vt 0.75 0.125
vt 0.625 1
vt 0.5625 1
vt 0.5625 0.875
vt 0.625 0.875
vt 0.561961875 0.875543125
vt 0.686956875 0.8744618749999999
vt 0.688038125 0.999456875
vt 0.563043125 1
vt 0.6875 0.875
vt 0.6875 1
vt 0.5625 1
vt 0.5625 0.875
vt 0.6875 0.875
vt 0.6875 1
vt 0.5625 1
vt 0.5625 0.875
vt 0.671875 0.90625
vt 0.671875 1
vt 0.515625 1
vt 0.515625 0.90625
vt 0.671875 0.90625
vt 0.671875 1
vt 0.515625 1
vt 0.515625 0.90625
vt 0.28125 0.84375
vt 0.28125 1
vt 0.125 1
vt 0.125 0.84375
vt 0.28125 0.84375
vt 0.28125 1
vt 0.125 1
vt 0.125 0.84375
vt 0.265625 0.734375
vt 0.265625 0.828125
vt 0.109375 0.828125
vt 0.109375 0.734375
vt 0.265625 0.734375
vt 0.265625 0.828125
vt 0.109375 0.828125
vt 0.109375 0.734375
vt 0.265625 0
vt 0.265625 0.09375
vt 0.328125 0.09375
vt 0.328125 0
vt 0.25 0
vt 0.25 0.09375
vt 0.3125 0.09375
vt 0.3125 0
vt 0.375 0.15625
vt 0.375 0.09375
vt 0.3125 0.09375
vt 0.3125 0.15625
vt 0.3125 0
vt 0.3125 0.09375
vt 0.375 0.09375
vt 0.375 0
vt 0.3125 0
vt 0.3125 0.09375
vt 0.375 0.09375
vt 0.375 0
vt 0.25 0.78125
vt 0.25 0.796875
vt 0.28125 0.796875
vt 0.28125 0.78125
vt 0.15625 0.953125
vt 0.15625 0.96875
vt 0.1875 0.96875
vt 0.1875 0.953125
vt 0.296875 1
vt 0.296875 0.96875
vt 0.1875 0.96875
vt 0.1875 1
vt 0.28125 0.96875
vt 0.28125 1
vt 0.171875 1
vt 0.171875 0.96875
vt 0.171875 0.984375
vt 0.171875 1
vt 0.28125 1
vt 0.28125 0.984375
vt 0.1875 0.953125
vt 0.1875 0.96875
vt 0.296875 0.96875
vt 0.296875 0.953125
vt 0.25 0.75
vt 0.25 0.8125
vt 0.28125 0.8125
vt 0.28125 0.75
vt 0.09375 0.734375
vt 0.09375 0.796875
vt 0.109375 0.796875
vt 0.109375 0.734375
vt 0.125 0.734375
vt 0.125 0.796875
vt 0.140625 0.796875
vt 0.140625 0.734375
vt 0.25 0.78125
vt 0.25 0.796875
vt 0.28125 0.796875
vt 0.28125 0.78125
vt 0.296875 1
vt 0.296875 0.96875
vt 0.1875 0.96875
vt 0.1875 1
vt 0.28125 0.96875
vt 0.28125 1
vt 0.171875 1
vt 0.171875 0.96875
vt 0.171875 0.984375
vt 0.171875 1
vt 0.28125 1
vt 0.28125 0.984375
vt 0.1875 0.953125
vt 0.1875 0.96875
vt 0.296875 0.96875
vt 0.296875 0.953125
vt 0.0625 0
vt 0.0625 0.0625
vt 0.046875 0.0625
vt 0.046875 0
vt 0.0625 0
vt 0.0625 0.0625
vt 0.046875 0.0625
vt 0.046875 0
vt 0.0625 0.046875
vt 0.0625 0.0625
vt 0 0.0625
vt 0 0.046875
vt 0.125 0
vt 0.125 0.015625
vt 0.0625 0.015625
vt 0.0625 0
vt 0.0625 0
vt 0.0625 0.0625
vt 0 0.0625
vt 0 0
vt 0.0625 0
vt 0.0625 0.0625
vt 0 0.0625
vt 0 0
vt 0.125 0.0625
vt 0.125 0.109375
vt 0.109375 0.109375
vt 0.109375 0.0625
vt 0.125 0.0625
vt 0.125 0.109375
vt 0.109375 0.109375
vt 0.109375 0.0625
vt 0.125 0.109375
vt 0.125 0.125
vt 0.078125 0.125
vt 0.078125 0.109375
vt 0.125 0.109375
vt 0.125 0.125
vt 0.078125 0.125
vt 0.078125 0.109375
vt 0.125 0
vt 0.125 0.0625
vt 0.109375 0.0625
vt 0.109375 0
vt 0.125 0
vt 0.125 0.0625
vt 0.109375 0.0625
vt 0.109375 0
vt 0.125 0.046875
vt 0.125 0.0625
vt 0.0625 0.0625
vt 0.0625 0.046875
vt 0.125 0
vt 0.125 0.015625
vt 0.0625 0.015625
vt 0.0625 0
vt 0.125 0
vt 0.125 0.0625
vt 0.0625 0.0625
vt 0.0625 0
vt 0.125 0
vt 0.125 0.0625
vt 0.0625 0.0625
vt 0.0625 0
vt 0.171875 0.046875
vt 0.15625 0.0390625
vt 0.15625 0.0078125
vt 0.171875 0
vt 0.140625 0.0078125
vt 0.140625 0.0390625
vt 0.125 0.046875
vt 0.125 0
vt 0.1328125 0.03125
vt 0.1640625 0.03125
vt 0.171875 0.046875
vt 0.125 0.046875
vt 0.171875 0
vt 0.1640625 0.015625
vt 0.1328125 0.015625
vt 0.125 0
vt 0.171875 0.046875
vt 0.15625 0.0390625
vt 0.15625 0.0078125
vt 0.171875 0
vt 0.140625 0.0078125
vt 0.140625 0.0390625
vt 0.125 0.046875
vt 0.125 0
vt 0.1328125 0.03125
vt 0.1640625 0.03125
vt 0.171875 0.046875
vt 0.125 0.046875
vt 0.171875 0
vt 0.1640625 0.015625
vt 0.1328125 0.015625
vt 0.125 0
vt 0.171875 0.046875
vt 0.15625 0.0390625
vt 0.15625 0.0078125
vt 0.171875 0
vt 0.140625 0.0078125
vt 0.140625 0.0390625
vt 0.125 0.046875
vt 0.125 0
vt 0.1328125 0.03125
vt 0.1640625 0.03125
vt 0.171875 0.046875
vt 0.125 0.046875
vt 0.171875 0
vt 0.1640625 0.015625
vt 0.1328125 0.015625
vt 0.125 0
vt 0.171875 0.046875
vt 0.15625 0.0390625
vt 0.15625 0.0078125
vt 0.171875 0
vt 0.140625 0.0078125
vt 0.140625 0.0390625
vt 0.125 0.046875
vt 0.125 0
vt 0.1328125 0.03125
vt 0.1640625 0.03125
vt 0.171875 0.046875
vt 0.125 0.046875
vt 0.171875 0
vt 0.1640625 0.015625
vt 0.1328125 0.015625
vt 0.125 0
vt 0 0.0625
vt 0.0625 0.0625
vt 0.0625 0.125
vt 0 0.125
vt 0.0625 0.125
vt 0 0.125
vt 0 0.0625
vt 0.0625 0.0625
vt 0 0.125
vt 0 0.0625
vt 0.0625 0.0625
vt 0.0625 0.125
vt 0.0625 0.0625
vt 0.0625 0.125
vt 0 0.125
vt 0 0.0625
vt 0 0
vt 0.0625 0
vt 0.0625 0.0625
vt 0 0.0625
vt 0.0625 0.0625
vt 0.125 0.0625
vt 0.125 0.125
vt 0.0625 0.125
vt 0.59375 0.53125
vt 0.59375 0.5625
vt 0.5625 0.5625
vt 0.5625 0.53125
vt 0.5625 0.53125
vt 0.59375 0.53125
vt 0.59375 0.5625
vt 0.5625 0.5625
vt 0.8125 0.53125
vt 0.8125 0.5625
vt 0.609375 0.5625
vt 0.609375 0.53125
vt 0.796875 0.53125
vt 0.796875 0.5625
vt 0.59375 0.5625
vt 0.59375 0.53125
vt 0.609375 0.5625
vt 0.609375 0.53125
vt 0.8125 0.53125
vt 0.8125 0.5625
vt 0.796875 0.53125
vt 0.796875 0.5625
vt 0.59375 0.5625
vt 0.59375 0.53125
vt 0.171875 0.921875
vt 0.171875 0.9375
vt 0.234375 0.9375
vt 0.234375 0.921875
vt 0.265625 0.984375
vt 0.265625 1
vt 0.328125 1
vt 0.328125 0.984375
vt 1 0.203125
vt 1 0.140625
vt 0.96875 0.140625
vt 0.96875 0.203125
vt 1 0.1875
vt 1 0.171875
vt 0.96875 0.171875
vt 0.96875 0.1875
vt 0.96875 0.09375
vt 0.96875 0.109375
vt 1 0.109375
vt 1 0.09375
vt 0.171875 0.921875
vt 0.171875 0.9375
vt 0.234375 0.9375
vt 0.234375 0.921875
vt 0.265625 0.984375
vt 0.265625 1
vt 0.328125 1
vt 0.328125 0.984375
vt 1 0.203125
vt 1 0.140625
vt 0.96875 0.140625
vt 0.96875 0.203125
vt 1 0.1875
vt 1 0.171875
vt 0.96875 0.171875
vt 0.96875 0.1875
vt 0.96875 0.09375
vt 0.96875 0.109375
vt 1 0.109375
vt 1 0.09375
vt 0 0.875
vt 0 1
vt 0.015625 1
vt 0.015625 0.875
vt 0 0.875
vt 0 1
vt 0.015625 1
vt 0.015625 0.875
vt 0.125 1
vt 0.125 0.984375
vt 0 0.984375
vt 0 1
vt 0.125 0.984375
vt 0.125 1
vt 0 1
vt 0 0.984375
vt 0 0.875
vt 0 1
vt 0.125 1
vt 0.125 0.875
vt 0 0.859375
vt 0 0.984375
vt 0.125 0.984375
vt 0.125 0.859375
vt 0.84375 0.75
vt 0.84375 0.84375
vt 0.71875 0.84375
vt 0.71875 0.75
vt 0.84375 0.75
vt 0.84375 0.84375
vt 0.71875 0.84375
vt 0.71875 0.75
vt 0.921875 0.84375
vt 0.921875 0.96875
vt 0.84375 0.96875
vt 0.84375 0.84375
vt 1 0.84375
vt 1 0.96875
vt 0.921875 0.96875
vt 0.921875 0.84375
vt 0.921875 0.75
vt 0.921875 0.84375
vt 0.84375 0.84375
vt 0.84375 0.75
vt 0.921875 0.75
vt 0.921875 0.84375
vt 0.84375 0.84375
vt 0.84375 0.75
vt 0.84375 0.75
vt 0.84375 0.84375
vt 0.71875 0.84375
vt 0.71875 0.75
vt 0.84375 0.75
vt 0.84375 0.84375
vt 0.71875 0.84375
vt 0.71875 0.75
vt 0.921875 0.84375
vt 0.921875 0.96875
vt 0.84375 0.96875
vt 0.84375 0.84375
vt 1 0.84375
vt 1 0.96875
vt 0.921875 0.96875
vt 0.921875 0.84375
vt 0.921875 0.75
vt 0.921875 0.84375
vt 0.84375 0.84375
vt 0.84375 0.75
vt 0.921875 0.75
vt 0.921875 0.84375
vt 0.84375 0.84375
vt 0.84375 0.75
vn 1 0 0
vn -1 0 0
vn 0 1 0
vn 0 -1 0
vn 0 0 -1
vn 1 0 0
vn -1 0 0
vn 0 1 0
vn 0 -1 0
vn 0 0 -1
vn 1 0 0
vn -1 0 0
vn 0 1 0
vn 0 -1 0
vn 0.8944271909999161 0.44721359549995804 0
vn 0 0 -1
vn 0 1 0
vn 0 1 0
vn 0 0 -1
vn -0.44721359549995804 0 0.8944271909999161
vn 0 1 0
vn -1 0 0
vn -0.8944271909999161 0 -0.44721359549995804
vn 0 1 0
vn 0 0 -1
vn 0 1 0
vn 0 0 1
vn 0 0 -1
vn 1 0 0
vn -1 0 0
vn 0 1 0
vn 0 -1 0
vn 0 0 1
vn 0 0 -1
vn 1 0 0
vn -1 0 0
vn 0 1 0
vn 0 0 1
vn 0 0 -1
vn 0.974370292603443 -0.22495006755251512 0
vn -0.974370292603443 0.22495006755251512 0
vn 0.22495006755251523 0.9743702926034429 0
vn -0.22495006755251523 -0.9743702926034429 0
vn 0 0 1
vn 0 0 -1
vn 0.9743702926034429 -0.22495006755251534 0
vn 0 0 1
vn 0 0 -1
vn 0.974370292603443 -0.22495006755251512 0
vn 0.2249500675525152 0.9743702926034429 0
vn -0.2249500675525152 -0.9743702926034429 0
vn 0 0 1
vn 0 0 -1
vn 0.9743702926034429 -0.22495006755251556 0
vn -0.974370292603443 0.22495006755251512 0
vn 0.22495006755251515 0.9743702926034429 0
vn -0.22495006755251526 -0.9743702926034429 0
vn 0 0 1
vn 0 0 -1
vn 0.974370292603443 -0.22495006755251545 0
vn -0.974370292603443 0.22495006755251512 0
vn 0.2249500675525152 0.974370292603443 0
vn -0.22495006755251526 -0.974370292603443 0
vn 0.9743702926034429 -0.22495006755251556 0
vn -0.974370292603443 0.22495006755251512 0
vn 0.22495006755251515 0.9743702926034429 0
vn -0.22495006755251526 -0.9743702926034429 0
vn 0 0 1
vn 0 0 -1
vn -0.8715015067526937 0.20120551890098398 -0.44721523105946465
vn 0.8715032050824879 -0.20120591099821525 -0.44721174504962347
vn 0.20120591099821636 0.8715032050824876 -0.44721174504962324
vn -0.20120551890098537 -0.8715015067526924 -0.4472152310594666
vn -0.8715015067526937 0.20120551890098398 -0.44721523105946465
vn 0.8715032050824879 -0.20120591099821525 -0.44721174504962347
vn 0.20120591099821636 0.8715032050824876 -0.44721174504962324
vn -0.20120551890098537 -0.8715015067526924 -0.4472152310594666
vn 0.871503205082488 -0.20120591099821528 0.4472117450496236
vn -0.8715015067526937 0.20120551890098398 0.44721523105946465
vn 0.2012055189009853 0.8715015067526924 0.44721523105946653
vn -0.20120591099821653 -0.8715032050824879 0.4472117450496229
vn 0.871503205082488 -0.20120591099821528 0.4472117450496236
vn -0.8715015067526937 0.20120551890098398 0.44721523105946465
vn 0.2012055189009853 0.8715015067526924 0.44721523105946653
vn -0.20120591099821653 -0.8715032050824879 0.4472117450496229
vn 0.9743702926034429 -0.22495006755251556 0
vn -0.974370292603443 0.22495006755251512 0
vn 0.22495006755251515 0.9743702926034429 0
vn -0.22495006755251526 -0.9743702926034429 0
vn 0 0 1
vn 0 0 -1
vn 1 0 0
vn -1 0 0
vn 0 1 0
vn 0 -1 0
vn 0 0 1
vn 0 0 -1
vn 1 0 0
vn -1 0 0
vn 0 1 0
vn 0 0 1
vn 0 0 -1
vn 1 0 0
vn -1 0 0
vn 0 1 0
vn 0 0 1
vn 0 0 -1
vn 1 0 0
vn -1 0 0
vn 0 1 0
vn 0 -1 0
vn 0 0 1
vn 0 0 -1
vn 1 0 0
vn -1 0 0
vn 0 1 0
vn 0 -1 0
vn 0 0 1
vn 0 0 -1
vn 1 0 0
vn -1 0 0
vn 0 1 0
vn 0 -1 0
vn 0 0 1
vn 0 0 -1
usemtl weapon_machinegun
f 284/809/203 282/810/203 281/811/203
f 284/809/203 281/811/203 283/812/203
f 287/813/204 285/814/204 286/815/204
f 287/813/204 286/815/204 288/816/204
f 281/817/205 282/818/205 286/819/205
f 281/817/205 286/819/205 285/820/205
f 284/821/206 283/822/206 287/823/206
f 284/821/206 287/823/206 288/824/206
f 288/825/207 286/826/207 282/827/207
f 288/825/207 282/827/207 284/828/207
f 292/829/208 290/830/208 289/831/208
f 292/829/208 289/831/208 291/832/208
f 295/833/209 293/834/209 294/835/209
f 295/833/209 294/835/209 296/836/209
f 289/837/210 290/838/210 294/839/210
f 289/837/210 294/839/210 293/840/210
f 292/841/211 291/842/211 295/843/211
f 292/841/211 295/843/211 296/844/211
f 296/845/212 294/846/212 290/847/212
f 296/845/212 290/847/212 292/848/212
usemtl common_copper_cable
f 300/849/213 298/850/213 297/851/213
f 300/849/213 297/851/213 299/852/213
f 303/853/214 301/854/214 302/855/214
f 303/853/214 302/855/214 304/856/214
f 297/857/215 298/858/215 302/859/215
f 297/857/215 302/859/215 301/860/215
f 300/861/216 299/862/216 303/863/216
f 300/861/216 303/863/216 304/864/216
f 310/865/217 308/866/217 309/867/217
f 310/865/217 309/867/217 311/868/217
f 308/869/218 305/870/218 306/871/218
f 308/869/218 306/871/218 309/872/218
f 309/873/219 306/874/219 307/875/219
f 309/873/219 307/875/219 311/876/219
f 312/877/220 313/878/220 316/879/220
f 312/877/220 316/879/220 315/880/220
f 317/881/221 316/882/221 313/883/221
f 317/881/221 313/883/221 314/884/221
f 323/885/222 321/886/222 322/887/222
f 323/885/222 322/887/222 324/888/222
f 321/889/223 318/890/223 319/891/223
f 321/889/223 319/891/223 322/892/223
f 322/893/224 319/894/224 320/895/224
f 322/893/224 320/895/224 324/896/224
f 330/897/225 328/898/225 329/899/225
f 330/897/225 329/899/225 331/900/225
f 328/901/226 325/902/226 326/903/226
f 328/901/226 326/903/226 329/904/226
f 329/905/227 326/906/227 327/907/227
f 329/905/227 327/907/227 331/908/227
f 332/909/228 333/910/228 337/911/228
f 332/909/228 337/911/228 336/912/228
f 334/913/229 332/914/229 336/915/229
f 334/913/229 336/915/229 338/916/229
f 339/917/230 337/918/230 333/919/230
f 339/917/230 333/919/230 335/920/230
usemtl weapon_machinegun
f 343/921/231 341/922/231 340/923/231
f 343/921/231 340/923/231 342/924/231
f 346/925/232 344/926/232 345/927/232
f 346/925/232 345/927/232 347/928/232
f 340/929/233 341/930/233 345/931/233
f 340/929/233 345/931/233 344/932/233
f 343/933/234 342/934/234 346/935/234
f 343/933/234 346/935/234 347/936/234
f 342/937/235 340/938/235 344/939/235
f 342/937/235 344/939/235 346/940/235
f 347/941/236 345/942/236 341/943/236
f 347/941/236 341/943/236 343/944/236
f 351/945/237 349/946/237 348/947/237
f 351/945/237 348/947/237 350/948/237
f 354/949/238 352/950/238 353/951/238
f 354/949/238 353/951/238 355/952/238
f 348/953/239 349/954/239 353/955/239
f 348/953/239 353/955/239 352/956/239
f 350/957/240 348/958/240 352/959/240
f 350/957/240 352/959/240 354/960/240
f 355/961/241 353/962/241 349/963/241
f 355/961/241 349/963/241 351/964/241
f 360/965/242 358/966/242 357/967/242
f 360/965/242 357/967/242 359/968/242
f 363/969/243 361/970/243 362/971/243
f 363/969/243 362/971/243 364/972/243
f 357/973/244 358/974/244 362/975/244
f 357/973/244 362/975/244 361/976/244
f 360/977/245 359/978/245 363/979/245
f 360/977/245 363/979/245 364/980/245
f 359/981/246 357/982/246 361/983/246
f 359/981/246 361/983/246 363/984/246
f 364/985/247 362/986/247 358/987/247
f 364/985/247 358/987/247 360/988/247
f 368/989/248 366/990/248 365/991/248
f 368/989/248 365/991/248 367/992/248
f 367/993/249 365/994/249 369/995/249
f 367/993/249 369/995/249 371/996/249
f 372/997/250 370/998/250 366/999/250
f 372/997/250 366/999/250 368/1000/250
f 376/1001/251 374/1002/251 373/1003/251
f 376/1001/251 373/1003/251 375/1004/251
f 373/1005/252 374/1006/252 378/1007/252
f 373/1005/252 378/1007/252 377/1008/252
f 376/1009/253 375/1010/253 379/1011/253
f 376/1009/253 379/1011/253 380/1012/253
f 375/1013/254 373/1014/254 377/1015/254
f 375/1013/254 377/1015/254 379/1016/254
f 380/1017/255 378/1018/255 374/1019/255
f 380/1017/255 374/1019/255 376/1020/255
f 384/1021/256 382/1022/256 381/1023/256
f 384/1021/256 381/1023/256 383/1024/256
f 387/1025/257 385/1026/257 386/1027/257
f 387/1025/257 386/1027/257 388/1028/257
f 381/1029/258 382/1030/258 386/1031/258
f 381/1029/258 386/1031/258 385/1032/258
f 384/1033/259 383/1034/259 387/1035/259
f 384/1033/259 387/1035/259 388/1036/259
f 383/1037/260 381/1038/260 385/1039/260
f 383/1037/260 385/1039/260 387/1040/260
f 388/1041/261 386/1042/261 382/1043/261
f 388/1041/261 382/1043/261 384/1044/261
f 392/1045/262 390/1046/262 389/1047/262
f 392/1045/262 389/1047/262 391/1048/262
f 395/1049/263 393/1050/263 394/1051/263
f 395/1049/263 394/1051/263 396/1052/263
f 389/1053/264 390/1054/264 394/1055/264
f 389/1053/264 394/1055/264 393/1056/264
f 392/1057/265 391/1058/265 395/1059/265
f 392/1057/265 395/1059/265 396/1060/265
f 400/1061/266 398/1062/266 397/1063/266
f 400/1061/266 397/1063/266 399/1064/266
f 403/1065/267 401/1066/267 402/1067/267
f 403/1065/267 402/1067/267 404/1068/267
f 397/1069/268 398/1070/268 402/1071/268
f 397/1069/268 402/1071/268 401/1072/268
f 400/1073/269 399/1074/269 403/1075/269
f 400/1073/269 403/1075/269 404/1076/269
f 399/1077/270 397/1078/270 401/1079/270
f 399/1077/270 401/1079/270 403/1080/270
f 404/1081/271 402/1082/271 398/1083/271
f 404/1081/271 398/1083/271 400/1084/271
f 406/1085/272 405/1086/272 407/1087/272
f 406/1085/272 407/1087/272 408/1088/272
f 411/1089/273 409/1090/273 410/1091/273
f 411/1089/273 410/1091/273 412/1092/273
f 409/1093/274 405/1094/274 406/1095/274
f 409/1093/274 406/1095/274 410/1096/274
f 408/1097/275 407/1098/275 411/1099/275
f 408/1097/275 411/1099/275 412/1100/275
f 414/1101/276 413/1102/276 415/1103/276
f 414/1101/276 415/1103/276 416/1104/276
f 419/1105/277 417/1106/277 418/1107/277
f 419/1105/277 418/1107/277 420/1108/277
f 417/1109/278 413/1110/278 414/1111/278
f 417/1109/278 414/1111/278 418/1112/278
f 416/1113/279 415/1114/279 419/1115/279
f 416/1113/279 419/1115/279 420/1116/279
f 422/1117/280 421/1118/280 423/1119/280
f 422/1117/280 423/1119/280 424/1120/280
f 427/1121/281 425/1122/281 426/1123/281
f 427/1121/281 426/1123/281 428/1124/281
f 425/1125/282 421/1126/282 422/1127/282
f 425/1125/282 422/1127/282 426/1128/282
f 424/1129/283 423/1130/283 427/1131/283
f 424/1129/283 427/1131/283 428/1132/283
f 430/1133/284 429/1134/284 431/1135/284
f 430/1133/284 431/1135/284 432/1136/284
f 435/1137/285 433/1138/285 434/1139/285
f 435/1137/285 434/1139/285 436/1140/285
f 433/1141/286 429/1142/286 430/1143/286
f 433/1141/286 430/1143/286 434/1144/286
f 432/1145/287 431/1146/287 435/1147/287
f 432/1145/287 435/1147/287 436/1148/287
f 440/1149/288 438/1150/288 437/1151/288
f 440/1149/288 437/1151/288 439/1152/288
f 442/1153/289 441/1154/289 356/1155/289
f 442/1153/289 356/1155/289 443/1156/289
f 437/1157/290 438/1158/290 356/1159/290
f 437/1157/290 356/1159/290 441/1160/290
f 440/1161/291 439/1162/291 442/1163/291
f 440/1161/291 442/1163/291 443/1164/291
f 439/1165/292 437/1166/292 441/1167/292
f 439/1165/292 441/1167/292 442/1168/292
f 443/1169/293 356/1170/293 438/1171/293
f 443/1169/293 438/1171/293 440/1172/293
f 447/1173/294 445/1174/294 444/1175/294
f 447/1173/294 444/1175/294 446/1176/294
f 450/1177/295 448/1178/295 449/1179/295
f 450/1177/295 449/1179/295 451/1180/295
f 444/1181/296 445/1182/296 449/1183/296
f 444/1181/296 449/1183/296 448/1184/296
f 447/1185/297 446/1186/297 450/1187/297
f 447/1185/297 450/1187/297 451/1188/297
f 446/1189/298 444/1190/298 448/1191/298
f 446/1189/298 448/1191/298 450/1192/298
f 451/1193/299 449/1194/299 445/1195/299
f 451/1193/299 445/1195/299 447/1196/299
f 455/1197/300 453/1198/300 452/1199/300
f 455/1197/300 452/1199/300 454/1200/300
f 458/1201/301 456/1202/301 457/1203/301
f 458/1201/301 457/1203/301 459/1204/301
f 452/1205/302 453/1206/302 457/1207/302
f 452/1205/302 457/1207/302 456/1208/302
f 454/1209/303 452/1210/303 456/1211/303
f 454/1209/303 456/1211/303 458/1212/303
f 459/1213/304 457/1214/304 453/1215/304
f 459/1213/304 453/1215/304 455/1216/304
f 463/1217/305 461/1218/305 460/1219/305
f 463/1217/305 460/1219/305 462/1220/305
f 466/1221/306 464/1222/306 465/1223/306
f 466/1221/306 465/1223/306 467/1224/306
f 460/1225/307 461/1226/307 465/1227/307
f 460/1225/307 465/1227/307 464/1228/307
f 462/1229/308 460/1230/308 464/1231/308
f 462/1229/308 464/1231/308 466/1232/308
f 467/1233/309 465/1234/309 461/1235/309
f 467/1233/309 461/1235/309 463/1236/309
f 471/1237/310 469/1238/310 468/1239/310
f 471/1237/310 468/1239/310 470/1240/310
f 474/1241/311 472/1242/311 473/1243/311
f 474/1241/311 473/1243/311 475/1244/311
f 468/1245/312 469/1246/312 473/1247/312
f 468/1245/312 473/1247/312 472/1248/312
f 471/1249/313 470/1250/313 474/1251/313
f 471/1249/313 474/1251/313 475/1252/313
f 470/1253/314 468/1254/314 472/1255/314
f 470/1253/314 472/1255/314 474/1256/314
f 475/1257/315 473/1258/315 469/1259/315
f 475/1257/315 469/1259/315 471/1260/315
f 479/1261/316 477/1262/316 476/1263/316
f 479/1261/316 476/1263/316 478/1264/316
f 482/1265/317 480/1266/317 481/1267/317
f 482/1265/317 481/1267/317 483/1268/317
f 476/1269/318 477/1270/318 481/1271/318
f 476/1269/318 481/1271/318 480/1272/318
f 479/1273/319 478/1274/319 482/1275/319
f 479/1273/319 482/1275/319 483/1276/319
f 478/1277/320 476/1278/320 480/1279/320
f 478/1277/320 480/1279/320 482/1280/320
f 483/1281/321 481/1282/321 477/1283/321
f 483/1281/321 477/1283/321 479/1284/321
f 487/1285/322 485/1286/322 484/1287/322
f 487/1285/322 484/1287/322 486/1288/322
f 490/1289/323 488/1290/323 489/1291/323
f 490/1289/323 489/1291/323 491/1292/323
f 484/1293/324 485/1294/324 489/1295/324
f 484/1293/324 489/1295/324 488/1296/324
f 487/1297/325 486/1298/325 490/1299/325
f 487/1297/325 490/1299/325 491/1300/325
f 486/1301/326 484/1302/326 488/1303/326
f 486/1301/326 488/1303/326 490/1304/326
f 491/1305/327 489/1306/327 485/1307/327
f 491/1305/327 485/1307/327 487/1308/327
o turen
v 0.90625 -1.75 1.59375
v 0.90625 -1.75 1.21875
v 0.90625 -2.125 1.59375
v 0.90625 -2.125 1.21875
v 0.84375 -1.75 1.59375
v 0.84375 -1.75 1.21875
v 0.84375 -2.125 1.59375
v 0.84375 -2.125 1.21875
v 0.90625 -1.6875 1.53125
v 0.90625 -1.6875 1.28125
v 0.90625 -1.75 1.59375
v 0.90625 -1.75 1.21875
v 0.84375 -1.6875 1.53125
v 0.84375 -1.6875 1.28125
v 0.84375 -1.75 1.59375
v 0.84375 -1.75 1.21875
v 0.90625 -2.125 1.65625
v 0.90625 -2.125 1.15625
v 0.90625 -2.1875 1.65625
v 0.90625 -2.1875 1.15625
v 0.15625 -2.125 1.65625
v 0.15625 -2.125 1.15625
v 0.15625 -2.1875 1.65625
v 0.15625 -2.1875 1.15625
v 0.21875 -1.75 1.59375
v 0.21875 -1.75 1.21875
v 0.21875 -2.125 1.59375
v 0.21875 -2.125 1.21875
v 0.15625 -1.75 1.59375
v 0.15625 -1.75 1.21875
v 0.15625 -2.125 1.59375
v 0.15625 -2.125 1.21875
v 0.21875 -1.6875 1.53125
v 0.21875 -1.6875 1.28125
v 0.21875 -1.75 1.59375
v 0.21875 -1.75 1.21875
v 0.15625 -1.6875 1.53125
v 0.15625 -1.6875 1.28125
v 0.15625 -1.75 1.59375
v 0.15625 -1.75 1.21875
vt 0 0.765625
vt 0 0.859375
vt 0.09375 0.859375
vt 0.09375 0.765625
vt 0 0.765625
vt 0 0.859375
vt 0.09375 0.859375
vt 0.09375 0.765625
vt 0.078125 0.78125
vt 0.078125 0.875
vt 0.09375 0.875
vt 0.09375 0.78125
vt 0 0.78125
vt 0 0.875
vt 0.015625 0.875
vt 0.015625 0.78125
vt 0.078125 0.78125
vt 0.015625 0.78125
vt 0 0.765625
vt 0.09375 0.765625
vt 0.09375 0.765625
vt 0.078125 0.78125
vt 0.015625 0.78125
vt 0 0.765625
vt 0.515625 0.921875
vt 0.53125 0.921875
vt 0.53125 0.984375
vt 0.515625 0.984375
vt 0.03125 0.977903125
vt 0.03125 1
vt 0.015625 1
vt 0.015625 0.977903125
vt 0.03125 0.984375
vt 0.015625 0.984375
vt 0.015625 0.962278125
vt 0.03125 0.962278125
vt 0.28125 0.703125
vt 0.28125 0.71875
vt 0.15625 0.71875
vt 0.15625 0.703125
vt 0.28125 0.71875
vt 0.28125 0.734375
vt 0.15625 0.734375
vt 0.15625 0.71875
vt 0.28125 0.71875
vt 0.28125 0.84375
vt 0.09375 0.84375
vt 0.09375 0.71875
vt 0.28125 0.71875
vt 0.28125 0.84375
vt 0.09375 0.84375
vt 0.09375 0.71875
vt 0.28125 0.71875
vt 0.28125 0.734375
vt 0.09375 0.734375
vt 0.09375 0.71875
vt 0.28125 0.71875
vt 0.28125 0.734375
vt 0.09375 0.734375
vt 0.09375 0.71875
vt 0 0.765625
vt 0 0.859375
vt 0.09375 0.859375
vt 0.09375 0.765625
vt 0 0.765625
vt 0 0.859375
vt 0.09375 0.859375
vt 0.09375 0.765625
vt 0.078125 0.78125
vt 0.078125 0.875
vt 0.09375 0.875
vt 0.09375 0.78125
vt 0 0.78125
vt 0 0.875
vt 0.015625 0.875
vt 0.015625 0.78125
vt 0.078125 0.78125
vt 0.015625 0.78125
vt 0 0.765625
vt 0.09375 0.765625
vt 0.09375 0.765625
vt 0.078125 0.78125
vt 0.015625 0.78125
vt 0 0.765625
vt 0.515625 0.921875
vt 0.53125 0.921875
vt 0.53125 0.984375
vt 0.515625 0.984375
vt 0.03125 0.977903125
vt 0.03125 1
vt 0.015625 1
vt 0.015625 0.977903125
vt 0.03125 0.984375
vt 0.015625 0.984375
vt 0.015625 0.962278125
vt 0.03125 0.962278125
vn 1 0 0
vn -1 0 0
vn 0 0 1
vn 0 0 -1
vn 1 0 0
vn -1 0 0
vn 0 1 0
vn 0 0.7071067811865476 0.7071067811865476
vn 0 0.7071067811865476 -0.7071067811865476
vn 1 0 0
vn -1 0 0
vn 0 1 0
vn 0 -1 0
vn 0 0 1
vn 0 0 -1
vn 1 0 0
vn -1 0 0
vn 0 0 1
vn 0 0 -1
vn 1 0 0
vn -1 0 0
vn 0 1 0
vn 0 0.7071067811865476 0.7071067811865476
vn 0 0.7071067811865476 -0.7071067811865476
usemtl weapon_machinegun
f 495/1309/328 493/1310/328 492/1311/328
f 495/1309/328 492/1311/328 494/1312/328
f 498/1313/329 496/1314/329 497/1315/329
f 498/1313/329 497/1315/329 499/1316/329
f 494/1317/330 492/1318/330 496/1319/330
f 494/1317/330 496/1319/330 498/1320/330
f 499/1321/331 497/1322/331 493/1323/331
f 499/1321/331 493/1323/331 495/1324/331
f 501/1325/332 500/1326/332 502/1327/332
f 501/1325/332 502/1327/332 503/1328/332
f 506/1329/333 504/1330/333 505/1331/333
f 506/1329/333 505/1331/333 507/1332/333
f 504/1333/334 500/1334/334 501/1335/334
f 504/1333/334 501/1335/334 505/1336/334
f 502/1337/335 500/1338/335 504/1339/335
f 502/1337/335 504/1339/335 506/1340/335
f 505/1341/336 501/1342/336 503/1343/336
f 505/1341/336 503/1343/336 507/1344/336
f 511/1345/337 509/1346/337 508/1347/337
f 511/1345/337 508/1347/337 510/1348/337
f 514/1349/338 512/1350/338 513/1351/338
f 514/1349/338 513/1351/338 515/1352/338
f 508/1353/339 509/1354/339 513/1355/339
f 508/1353/339 513/1355/339 512/1356/339
f 511/1357/340 510/1358/340 514/1359/340
f 511/1357/340 514/1359/340 515/1360/340
f 510/1361/341 508/1362/341 512/1363/341
f 510/1361/341 512/1363/341 514/1364/341
f 515/1365/342 513/1366/342 509/1367/342
f 515/1365/342 509/1367/342 511/1368/342
f 519/1369/343 517/1370/343 516/1371/343
f 519/1369/343 516/1371/343 518/1372/343
f 522/1373/344 520/1374/344 521/1375/344
f 522/1373/344 521/1375/344 523/1376/344
f 518/1377/345 516/1378/345 520/1379/345
f 518/1377/345 520/1379/345 522/1380/345
f 523/1381/346 521/1382/346 517/1383/346
f 523/1381/346 517/1383/346 519/1384/346
f 525/1385/347 524/1386/347 526/1387/347
f 525/1385/347 526/1387/347 527/1388/347
f 530/1389/348 528/1390/348 529/1391/348
f 530/1389/348 529/1391/348 531/1392/348
f 528/1393/349 524/1394/349 525/1395/349
f 528/1393/349 525/1395/349 529/1396/349
f 526/1397/350 524/1398/350 528/1399/350
f 526/1397/350 528/1399/350 530/1400/350
f 529/1401/351 525/1402/351 527/1403/351
f 529/1401/351 527/1403/351 531/1404/351
o base
v 0.75 -2.1875 1.5625
v 0.75 -2.1875 1.25
v 0.75 -2.6875 1.5625
v 0.75 -2.6875 1.25
v 0.375 -2.1875 1.5625
v 0.375 -2.1875 1.25
v 0.375 -2.6875 1.5625
v 0.375 -2.6875 1.25
vt 0.359375 0.75
vt 0.359375 0.875
vt 0.28125 0.875
vt 0.28125 0.75
vt 0.359375 0.75
vt 0.359375 0.875
vt 0.28125 0.875
vt 0.28125 0.75
vt 0.453125 0.875
vt 0.453125 0.953125
vt 0.359375 0.953125
vt 0.359375 0.875
vt 0.453125 0.875
vt 0.453125 0.953125
vt 0.359375 0.953125
vt 0.359375 0.875
vt 0.453125 0.75
vt 0.453125 0.875
vt 0.359375 0.875
vt 0.359375 0.75
vt 0.453125 0.75
vt 0.453125 0.875
vt 0.359375 0.875
vt 0.359375 0.75
vn 1 0 0
vn -1 0 0
vn 0 1 0
vn 0 -1 0
vn 0 0 1
vn 0 0 -1
usemtl weapon_machinegun
f 535/1405/352 533/1406/352 532/1407/352
f 535/1405/352 532/1407/352 534/1408/352
f 538/1409/353 536/1410/353 537/1411/353
f 538/1409/353 537/1411/353 539/1412/353
f 532/1413/354 533/1414/354 537/1415/354
f 532/1413/354 537/1415/354 536/1416/354
f 535/1417/355 534/1418/355 538/1419/355
f 535/1417/355 538/1419/355 539/1420/355
f 534/1421/356 532/1422/356 536/1423/356
f 534/1421/356 536/1423/356 538/1424/356
f 539/1425/357 537/1426/357 533/1427/357
f 539/1425/357 533/1427/357 535/1428/357