# Made by Pabilo8 with Blockbench
# Exported with IIToolkit Plugin
mtllib mortar.mtl


o Mortar_turret
v 1.0625 -2.625 2.0625
v 1.0625 -2.625 0.9375
v 1.0625 -2.75 2.0625
v 1.0625 -2.75 0.9375
v -0.0625 -2.625 2.0625
v -0.0625 -2.625 0.9375
v -0.0625 -2.75 2.0625
v -0.0625 -2.75 0.9375
v 1.5 -2.5 2.5
v 1.5 -2.5 0.5
v 1.5 -2.625 2.5
v 1.5 -2.625 0.5
v -0.5 -2.5 2.5
v -0.5 -2.5 0.5
v -0.5 -2.625 2.5
v -0.5 -2.625 0.5
v 1.5 -2.5 1.5
v -0.5 -2.5 1.5
v -0.5 -2.625 1.5
v 1.5 -2.625 1.5
v 0.5 -2.5 1.5
v 0.5 -2.5 2.5
v 0.5 -2.625 2.5
v 0.5 -2.625 1.5
v 0.5 -2.625 0.5
v 0.5 -2.5 0.5
v 0 -1.5 1.375
v 0 -1.5 1.75
v 0 -1.75 1.25
v 0 -1.75 1.875
v 0.1875 -1.5 1.375
v 0.1875 -1.5 1.75
v 0.1875 -1.75 1.25
v 0.1875 -1.75 1.875
v 0 -1.5 1.5625
v 0 -1.75 1.5625
v 0.1875 -1.75 1.5625
v 0.1875 -1.5 1.5625
v 0 -1.75 1.25
v 0 -1.75 1.875
v 0 -2.375 1.25
v 0 -2.375 1.875
v 0.1875 -1.75 1.25
v 0.1875 -1.75 1.875
v 0.1875 -2.375 1.25
v 0.1875 -2.375 1.875
v 0 -1.75 1.5625
v 0 -2.375 1.5625
v 0.1875 -2.375 1.5625
v 0.1875 -1.75 1.5625
v 1.0625 -1.8125 1.6875
v 1.0625 -1.8125 1.4375
v 1.0625 -2.0625 1.6875
v 1.0625 -2.0625 1.4375
v -0.0625 -1.8125 1.6875
v -0.0625 -1.8125 1.4375
v -0.0625 -2.0625 1.6875
v -0.0625 -2.0625 1.4375
v 0.8125 -2.375 2.3125
v 0.8125 -2.375 2.0625
v 0.8125 -2.5 2.3125
v 0.8125 -2.5 2.0625
v 0.1875 -2.375 2.3125
v 0.1875 -2.375 2.0625
v 0.1875 -2.5 2.3125
v 0.1875 -2.5 2.0625
v 0.1875 -2.375 2.3125
v 0.1875 -2.375 1.1875
v 0.1875 -2.5 2.3125
v 0.1875 -2.5 1.1875
v -0.0625 -2.375 2.3125
v -0.0625 -2.375 1.1875
v -0.0625 -2.5 2.3125
v -0.0625 -2.5 1.1875
v 1.0625 -2.375 2.3125
v 1.0625 -2.375 1.1875
v 1.0625 -2.5 2.3125
v 1.0625 -2.5 1.1875
v 0.8125 -2.375 2.3125
v 0.8125 -2.375 1.1875
v 0.8125 -2.5 2.3125
v 0.8125 -2.5 1.1875
v 0.75 -2.375 1.25
v 0.75 -2.375 0.75
v 0.75 -2.5 1.25
v 0.75 -2.5 0.75
v 0.25 -2.375 1.25
v 0.25 -2.375 0.75
v 0.25 -2.5 1.25
v 0.25 -2.5 0.75
v 0.8125 -1.5 1.375
v 0.8125 -1.5 1.75
v 0.8125 -1.75 1.25
v 0.8125 -1.75 1.875
v 1 -1.5 1.375
v 1 -1.5 1.75
v 1 -1.75 1.25
v 1 -1.75 1.875
v 0.8125 -1.5 1.5625
v 0.8125 -1.75 1.5625
v 1 -1.75 1.5625
v 1 -1.5 1.5625
v 0.8125 -1.75 1.25
v 0.8125 -1.75 1.875
v 0.8125 -2.375 1.25
v 0.8125 -2.375 1.875
v 1 -1.75 1.25
v 1 -1.75 1.875
v 1 -2.375 1.25
v 1 -2.375 1.875
v 0.8125 -1.75 1.5625
v 0.8125 -2.375 1.5625
v 1 -2.375 1.5625
v 1 -1.75 1.5625
v 0.25 -2.125 1
v 0.25 -2.125 0.8125
v 0.25 -2.25 1.0625
v 0.25 -2.25 0.75
v 0.125 -2.125 1
v 0.125 -2.125 0.8125
v 0.125 -2.25 1.0625
v 0.125 -2.25 0.75
v 0.25 -2.25 1.0625
v 0.25 -2.25 0.75
v 0.25 -2.5 1.0625
v 0.25 -2.5 0.75
v 0.125 -2.25 1.0625
v 0.125 -2.25 0.75
v 0.125 -2.5 1.0625
v 0.125 -2.5 0.75
v 0.25 -2.25 0.9375
v 0.25 -2.5 0.9375
v 0.125 -2.25 0.875
v 0.125 -2.5 0.875
v 0.25 -2.25 1.25
v 0.25 -2.25 1.0625
v 0.25 -2.5 1.25
v 0.25 -2.5 1.0625
v 0 -2.25 1.25
v 0 -2.25 1.0625
v 0 -2.5 1.25
v 0 -2.5 1.0625
v 0.875 -2.125 1
v 0.875 -2.125 0.8125
v 0.875 -2.25 1.0625
v 0.875 -2.25 0.75
v 0.75 -2.125 1
v 0.75 -2.125 0.8125
v 0.75 -2.25 1.0625
v 0.75 -2.25 0.75
v 0.875 -2.25 1.0625
v 0.875 -2.25 0.75
v 0.875 -2.5 1.0625
v 0.875 -2.5 0.75
v 0.75 -2.25 1.0625
v 0.75 -2.25 0.75
v 0.75 -2.5 1.0625
v 0.75 -2.5 0.75
v 0.875 -2.25 0.9375
v 0.875 -2.5 0.9375
v 0.75 -2.25 0.875
v 0.75 -2.5 0.875
v 1 -2.25 1.25
v 1 -2.25 1.0625
v 1 -2.5 1.25
v 1 -2.5 1.0625
v 0.75 -2.25 1.25
v 0.75 -2.25 1.0625
v 0.75 -2.5 1.25
v 0.75 -2.5 1.0625
v 0.75 -2.625 0.9375
v 0.75 -2.625 0.75
v 0.75 -2.75 0.9375
v 0.75 -2.75 0.75
v 0.25 -2.625 0.9375
v 0.25 -2.625 0.75
v 0.25 -2.75 0.9375
v 0.25 -2.75 0.75
v 1.40625 -2.125 1.25
v 1.40625 -2 1.25
v 1.40625 -2.125 1.125
v 1.40625 -2.0625 1.125
v 1.28125 -2.125 1.25
v 1.28125 -2 1.25
v 1.28125 -2.125 1.125
v 1.28125 -2.0625 1.125
v 1.4375 -2.125 1.0625
v 1.25 -2.125 1.0625
v 1.4375 -2.5 1.0625
v 1.25 -2.5 1.0625
v 1.4375 -2.125 1.25
v 1.25 -2.125 1.25
v 1.4375 -2.5 1.25
v 1.25 -2.5 1.25
v 1.5 -2 1.25
v 1.125 -2 1.25
v 1.5 -2.5 1.25
v 1.125 -2.5 1.25
v 1.5 -2 1.75
v 1.125 -2 1.75
v 1.5 -2.5 1.75
v 1.125 -2.5 1.75
v 1.4375 -1.9375 1.8125
v 1.4375 -1.9375 1.1875
v 1.4375 -2 1.8125
v 1.4375 -2 1.1875
v 1.1875 -1.9375 1.8125
v 1.1875 -1.9375 1.1875
v 1.1875 -2 1.8125
v 1.1875 -2 1.1875
v 1.188680625 -1.686128125 1.5625
v 1.188680625 -1.686128125 1.8125
v 1.188680625 -1.936128125 1.5625
v 1.188680625 -1.936128125 1.8125
v 1.438680625 -1.686128125 1.5625
v 1.438680625 -1.686128125 1.8125
v 1.438680625 -1.936128125 1.5625
v 1.438680625 -1.936128125 1.8125
v 1.382430625 -1.748628125 1.375
v 1.413680625 -1.717378125 1.3125
v 1.382430625 -1.873628125 1.375
v 1.413680625 -1.904878125 1.3125
v 1.257430625 -1.748628125 1.375
v 1.226180625 -1.717378125 1.3125
v 1.257430625 -1.873628125 1.375
v 1.226180625 -1.904878125 1.3125
v 1.257430625 -1.748628125 1.375
v 1.226180625 -1.717378125 1.4375
v 1.257430625 -1.873628125 1.375
v 1.226180625 -1.904878125 1.4375
v 1.382430625 -1.748628125 1.375
v 1.413680625 -1.717378125 1.4375
v 1.382430625 -1.873628125 1.375
v 1.413680625 -1.904878125 1.4375
v 1.382430625 -1.748628125 1.5
v 1.413680625 -1.717378125 1.4375
v 1.382430625 -1.873628125 1.5
v 1.413680625 -1.904878125 1.4375
v 1.257430625 -1.748628125 1.5
v 1.226180625 -1.717378125 1.4375
v 1.257430625 -1.873628125 1.5
v 1.226180625 -1.904878125 1.4375
v 1.257430625 -1.748628125 1.5
v 1.226180625 -1.717378125 1.5625
v 1.257430625 -1.873628125 1.5
v 1.226180625 -1.904878125 1.5625
v 1.382430625 -1.748628125 1.5
v 1.413680625 -1.717378125 1.5625
v 1.382430625 -1.873628125 1.5
v 1.413680625 -1.904878125 1.5625
v 1.438680625 -1.686128125 1.3125
v 1.438680625 -1.686128125 1.25
v 1.438680625 -1.936128125 1.3125
v 1.438680625 -1.936128125 1.25
v 1.188680625 -1.686128125 1.3125
v 1.188680625 -1.686128125 1.25
v 1.188680625 -1.936128125 1.3125
v 1.188680625 -1.936128125 1.25
v 1.407430625 -1.717378125 1.25
v 1.407430625 -1.717378125 1.1875
v 1.407430625 -1.904878125 1.25
v 1.407430625 -1.904878125 1.1875
v 1.219930625 -1.717378125 1.25
v 1.219930625 -1.717378125 1.1875
v 1.219930625 -1.904878125 1.25
v 1.219930625 -1.904878125 1.1875
v 1.438680625 -1.686128125 1.1875
v 1.438680625 -1.686128125 1.125
v 1.438680625 -1.936128125 1.1875
v 1.438680625 -1.936128125 1.125
v 1.188680625 -1.686128125 1.1875
v 1.188680625 -1.686128125 1.125
v 1.188680625 -1.936128125 1.1875
v 1.188680625 -1.936128125 1.125
v 0.11068 -1.86875 2.48807125
v 0.16515249999999998 -1.86875 1.865449375
v 0.11068 -2.49375 2.48807125
v 0.16515249999999998 -2.49375 1.865449375
v -0.51194125 -1.86875 2.43359875
v -0.45746937499999996 -1.86875 1.8109775
v -0.51194125 -2.49375 2.43359875
v -0.45746937499999996 -2.49375 1.8109775
vt 0.484375 1.000000
vt 0.453125 1.000000
vt 0.453125 0.718750
vt 0.484375 0.718750
vt 0.484375 1.000000
vt 0.453125 1.000000
vt 0.453125 0.718750
vt 0.484375 0.718750
vt 0.484375 1.000000
vt 0.453125 1.000000
vt 0.453125 0.718750
vt 0.484375 0.718750
vt 0.484375 1.000000
vt 0.453125 1.000000
vt 0.453125 0.718750
vt 0.484375 0.718750
vt 0.562500 1.000000
vt 0.312500 1.000000
vt 0.312500 0.968750
vt 0.562500 0.968750
vt 0.125000 0.968750
vt 0.375000 0.968750
vt 0.375000 1.000000
vt 0.125000 1.000000
vt 0.000000 0.750000
vt 0.250000 0.750000
vt 0.250000 1.000000
vt 0.000000 1.000000
vt 0.000000 0.250000
vt 0.250000 0.250000
vt 0.250000 0.500000
vt 0.000000 0.500000
vt 0.062500 0.968750
vt 0.312500 0.968750
vt 0.312500 1.000000
vt 0.062500 1.000000
vt 0.562500 1.000000
vt 0.312500 1.000000
vt 0.312500 0.968750
vt 0.562500 0.968750
vt 0.000000 0.250000
vt 0.250000 0.250000
vt 0.250000 0.500000
vt 0.000000 0.500000
vt 0.625000 1.000000
vt 0.375000 1.000000
vt 0.375000 0.968750
vt 0.625000 0.968750
vt 0.000000 0.750000
vt 0.250000 0.750000
vt 0.250000 1.000000
vt 0.000000 1.000000
vt 0.062500 0.968750
vt 0.312500 0.968750
vt 0.312500 1.000000
vt 0.062500 1.000000
vt 0.750000 0.500000
vt 0.500000 0.500000
vt 0.500000 0.250000
vt 0.750000 0.250000
vt 0.562500 1.000000
vt 0.312500 1.000000
vt 0.312500 0.968750
vt 0.562500 0.968750
vt 0.750000 1.000000
vt 0.500000 1.000000
vt 0.500000 0.750000
vt 0.750000 0.750000
vt 0.750000 0.500000
vt 0.500000 0.500000
vt 0.500000 0.250000
vt 0.750000 0.250000
vt 0.062500 0.968750
vt 0.312500 0.968750
vt 0.312500 1.000000
vt 0.062500 1.000000
vt 0.750000 1.000000
vt 0.500000 1.000000
vt 0.500000 0.750000
vt 0.750000 0.750000
vt 0.015625 0.062500
vt 0.093750 0.062500
vt 0.093750 0.000000
vt 0.046875 0.000000
vt 0.046875 0.000000
vt 0.093750 0.000000
vt 0.093750 0.062500
vt 0.015625 0.062500
vt 0.156250 0.203125
vt 0.156250 0.156250
vt 0.203125 0.156250
vt 0.203125 0.203125
vt 0.203125 0.171875
vt 0.203125 0.234375
vt 0.156250 0.234375
vt 0.156250 0.171875
vt 0.203125 0.203125
vt 0.156250 0.203125
vt 0.156250 0.140625
vt 0.203125 0.140625
vt 0.125000 0.000000
vt 0.078125 0.000000
vt 0.078125 0.062500
vt 0.156250 0.062500
vt 0.171875 0.062500
vt 0.093750 0.062500
vt 0.093750 0.000000
vt 0.140625 0.000000
vt 0.203125 0.109375
vt 0.203125 0.156250
vt 0.156250 0.156250
vt 0.156250 0.109375
vt 0.000000 0.312500
vt 0.078125 0.312500
vt 0.078125 0.156250
vt 0.000000 0.156250
vt 0.000000 0.156250
vt 0.078125 0.156250
vt 0.078125 0.312500
vt 0.000000 0.312500
vt 0.203125 0.078125
vt 0.203125 0.234375
vt 0.156250 0.234375
vt 0.156250 0.078125
vt 0.203125 0.109375
vt 0.203125 0.265625
vt 0.156250 0.265625
vt 0.156250 0.109375
vt 0.171875 0.156250
vt 0.093750 0.156250
vt 0.093750 0.312500
vt 0.171875 0.312500
vt 0.171875 0.312500
vt 0.093750 0.312500
vt 0.093750 0.156250
vt 0.171875 0.156250
vt 0.062500 0.437500
vt 0.062500 0.500000
vt 0.000000 0.500000
vt 0.000000 0.437500
vt 0.062500 0.437500
vt 0.062500 0.500000
vt 0.000000 0.500000
vt 0.000000 0.437500
vt 0.343750 0.437500
vt 0.343750 0.500000
vt 0.062500 0.500000
vt 0.062500 0.437500
vt 0.343750 0.437500
vt 0.343750 0.500000
vt 0.062500 0.500000
vt 0.062500 0.437500
vt 0.343750 0.437500
vt 0.343750 0.500000
vt 0.062500 0.500000
vt 0.062500 0.437500
vt 0.343750 0.437500
vt 0.343750 0.500000
vt 0.062500 0.500000
vt 0.062500 0.437500
vt 0.281250 0.765625
vt 0.218750 0.765625
vt 0.218750 0.921875
vt 0.281250 0.921875
vt 0.250000 0.765625
vt 0.281250 0.765625
vt 0.281250 0.921875
vt 0.250000 0.921875
vt 0.250000 0.765625
vt 0.281250 0.765625
vt 0.281250 0.921875
vt 0.250000 0.921875
vt 0.250000 0.718750
vt 0.281250 0.718750
vt 0.281250 1.000000
vt 0.250000 1.000000
vt 0.250000 0.703125
vt 0.281250 0.703125
vt 0.281250 0.984375
vt 0.250000 0.984375
vt 0.218750 1.000000
vt 0.218750 0.718750
vt 0.281250 0.718750
vt 0.281250 1.000000
vt 0.203125 0.968750
vt 0.203125 1.000000
vt 0.265625 1.000000
vt 0.265625 0.968750
vt 0.250000 0.968750
vt 0.250000 1.000000
vt 0.187500 1.000000
vt 0.187500 0.968750
vt 0.250000 0.703125
vt 0.281250 0.703125
vt 0.281250 0.984375
vt 0.250000 0.984375
vt 0.250000 0.718750
vt 0.281250 0.718750
vt 0.281250 1.000000
vt 0.250000 1.000000
vt 0.281250 1.000000
vt 0.281250 0.718750
vt 0.218750 0.718750
vt 0.218750 1.000000
vt 0.265625 0.968750
vt 0.265625 1.000000
vt 0.203125 1.000000
vt 0.203125 0.968750
vt 0.250000 0.968750
vt 0.250000 1.000000
vt 0.187500 1.000000
vt 0.187500 0.968750
vt 0.390625 0.250000
vt 0.390625 0.375000
vt 0.265625 0.375000
vt 0.265625 0.250000
vt 0.390625 0.234375
vt 0.390625 0.265625
vt 0.265625 0.265625
vt 0.265625 0.234375
vt 0.265625 0.390625
vt 0.265625 0.359375
vt 0.390625 0.359375
vt 0.390625 0.390625
vt 0.015625 0.062500
vt 0.093750 0.062500
vt 0.093750 0.000000
vt 0.046875 0.000000
vt 0.046875 0.000000
vt 0.093750 0.000000
vt 0.093750 0.062500
vt 0.015625 0.062500
vt 0.156250 0.203125
vt 0.156250 0.156250
vt 0.203125 0.156250
vt 0.203125 0.203125
vt 0.203125 0.171875
vt 0.203125 0.234375
vt 0.156250 0.234375
vt 0.156250 0.171875
vt 0.203125 0.203125
vt 0.156250 0.203125
vt 0.156250 0.140625
vt 0.203125 0.140625
vt 0.125000 0.000000
vt 0.078125 0.000000
vt 0.078125 0.062500
vt 0.156250 0.062500
vt 0.171875 0.062500
vt 0.093750 0.062500
vt 0.093750 0.000000
vt 0.140625 0.000000
vt 0.203125 0.109375
vt 0.203125 0.156250
vt 0.156250 0.156250
vt 0.156250 0.109375
vt 0.000000 0.312500
vt 0.078125 0.312500
vt 0.078125 0.156250
vt 0.000000 0.156250
vt 0.000000 0.156250
vt 0.078125 0.156250
vt 0.078125 0.312500
vt 0.000000 0.312500
vt 0.203125 0.078125
vt 0.203125 0.234375
vt 0.156250 0.234375
vt 0.156250 0.078125
vt 0.203125 0.109375
vt 0.203125 0.265625
vt 0.156250 0.265625
vt 0.156250 0.109375
vt 0.171875 0.156250
vt 0.093750 0.156250
vt 0.093750 0.312500
vt 0.171875 0.312500
vt 0.171875 0.312500
vt 0.093750 0.312500
vt 0.093750 0.156250
vt 0.171875 0.156250
vt 1.000000 0.968750
vt 0.984375 1.000000
vt 0.937500 1.000000
vt 0.921875 0.968750
vt 1.000000 0.968750
vt 0.984375 1.000000
vt 0.937500 1.000000
vt 0.921875 0.968750
vt 0.968750 0.921875
vt 0.968750 0.968750
vt 1.000000 0.968750
vt 1.000000 0.921875
vt 0.968750 0.953125
vt 0.968750 0.921875
vt 1.000000 0.921875
vt 1.000000 0.953125
vt 1.000000 0.906250
vt 1.000000 0.937500
vt 0.968750 0.937500
vt 0.968750 0.906250
vt 0.750000 0.250000
vt 0.781250 0.250000
vt 0.781250 0.312500
vt 0.750000 0.312500
vt 0.750000 0.250000
vt 0.781250 0.250000
vt 0.781250 0.312500
vt 0.750000 0.312500
vt 0.765625 0.437500
vt 0.765625 0.500000
vt 0.734375 0.500000
vt 0.734375 0.437500
vt 1.000000 0.312500
vt 0.953125 0.312500
vt 0.953125 0.250000
vt 1.000000 0.250000
vt 1.000000 0.312500
vt 0.953125 0.312500
vt 0.953125 0.250000
vt 1.000000 0.250000
vt 0.531250 0.937500
vt 0.531250 1.000000
vt 0.484375 1.000000
vt 0.484375 0.937500
vt 0.531250 0.937500
vt 0.531250 1.000000
vt 0.484375 1.000000
vt 0.484375 0.937500
vt 0.484375 0.937500
vt 0.531250 0.937500
vt 0.531250 1.000000
vt 0.484375 1.000000
vt 0.593750 0.937500
vt 0.593750 1.000000
vt 0.531250 1.000000
vt 0.531250 0.937500
vt 0.593750 0.937500
vt 0.593750 1.000000
vt 0.531250 1.000000
vt 0.531250 0.937500
vt 1.000000 0.968750
vt 0.984375 1.000000
vt 0.937500 1.000000
vt 0.921875 0.968750
vt 1.000000 0.968750
vt 0.984375 1.000000
vt 0.937500 1.000000
vt 0.921875 0.968750
vt 0.968750 0.921875
vt 0.968750 0.968750
vt 1.000000 0.968750
vt 1.000000 0.921875
vt 0.968750 0.953125
vt 0.968750 0.921875
vt 1.000000 0.921875
vt 1.000000 0.953125
vt 1.000000 0.906250
vt 1.000000 0.937500
vt 0.968750 0.937500
vt 0.968750 0.906250
vt 0.750000 0.250000
vt 0.781250 0.250000
vt 0.781250 0.312500
vt 0.750000 0.312500
vt 0.750000 0.250000
vt 0.781250 0.250000
vt 0.781250 0.312500
vt 0.750000 0.312500
vt 0.765625 0.437500
vt 0.765625 0.500000
vt 0.734375 0.500000
vt 0.734375 0.437500
vt 1.000000 0.312500
vt 0.953125 0.312500
vt 0.953125 0.250000
vt 1.000000 0.250000
vt 1.000000 0.312500
vt 0.953125 0.312500
vt 0.953125 0.250000
vt 1.000000 0.250000
vt 0.531250 0.937500
vt 0.531250 1.000000
vt 0.484375 1.000000
vt 0.484375 0.937500
vt 0.531250 0.937500
vt 0.531250 1.000000
vt 0.484375 1.000000
vt 0.484375 0.937500
vt 0.484375 0.937500
vt 0.531250 0.937500
vt 0.531250 1.000000
vt 0.484375 1.000000
vt 0.593750 0.937500
vt 0.593750 1.000000
vt 0.531250 1.000000
vt 0.531250 0.937500
vt 0.593750 0.937500
vt 0.593750 1.000000
vt 0.531250 1.000000
vt 0.531250 0.937500
vt 0.578125 0.968750
vt 0.578125 1.000000
vt 0.531250 1.000000
vt 0.531250 0.968750
vt 0.578125 0.968750
vt 0.578125 1.000000
vt 0.531250 1.000000
vt 0.531250 0.968750
vt 0.250000 0.968750
vt 0.250000 1.000000
vt 0.125000 1.000000
vt 0.125000 0.968750
vt 0.750000 0.062500
vt 0.875000 0.125000
vt 0.875000 0.000000
vt 0.750000 0.000000
vt 0.937500 0.562500
vt 0.812500 0.562500
vt 0.812500 0.687500
vt 0.937500 0.687500
vt 0.562500 1.000000
vt 0.562500 0.937500
vt 0.687500 0.937500
vt 0.687500 1.000000
vt 0.687500 0.875000
vt 0.687500 1.000000
vt 0.562500 1.000000
vt 0.562500 0.875000
vt 0.421875 0.156250
vt 0.421875 0.250000
vt 0.468750 0.250000
vt 0.468750 0.156250
vt 0.468750 0.234375
vt 0.468750 0.281250
vt 0.421875 0.281250
vt 0.421875 0.234375
vt 0.468750 0.156250
vt 0.468750 0.250000
vt 0.421875 0.250000
vt 0.421875 0.156250
vt 0.468750 0.156250
vt 0.468750 0.250000
vt 0.421875 0.250000
vt 0.421875 0.156250
vt 0.421875 0.125000
vt 0.421875 0.250000
vt 0.328125 0.250000
vt 0.328125 0.125000
vt 0.421875 0.125000
vt 0.421875 0.250000
vt 0.328125 0.250000
vt 0.328125 0.125000
vt 0.296875 0.125000
vt 0.203125 0.125000
vt 0.203125 0.000000
vt 0.296875 0.000000
vt 0.328125 0.125000
vt 0.328125 0.250000
vt 0.203125 0.250000
vt 0.203125 0.125000
vt 0.328125 0.125000
vt 0.328125 0.250000
vt 0.203125 0.250000
vt 0.203125 0.125000
vt 0.062500 0.500000
vt 0.062500 0.484375
vt 0.218750 0.484375
vt 0.218750 0.500000
vt 0.078125 0.500000
vt 0.078125 0.484375
vt 0.234375 0.484375
vt 0.234375 0.500000
vt 0.296875 0.500000
vt 0.140625 0.500000
vt 0.140625 0.437500
vt 0.296875 0.437500
vt 0.296875 0.500000
vt 0.140625 0.500000
vt 0.140625 0.437500
vt 0.296875 0.437500
vt 0.265625 0.500000
vt 0.250000 0.500000
vt 0.250000 0.437500
vt 0.265625 0.437500
vt 0.265625 0.500000
vt 0.250000 0.500000
vt 0.250000 0.437500
vt 0.265625 0.437500
vt 0.812500 0.125000
vt 0.750000 0.125000
vt 0.750000 0.062500
vt 0.812500 0.062500
vt 0.750000 0.062500
vt 0.812500 0.062500
vt 0.812500 0.125000
vt 0.750000 0.125000
vt 0.812500 0.062500
vt 0.812500 0.125000
vt 0.750000 0.125000
vt 0.750000 0.062500
vt 0.875000 0.062500
vt 0.875000 0.125000
vt 0.812500 0.125000
vt 0.812500 0.062500
vt 0.812500 0.000000
vt 0.812500 0.062500
vt 0.750000 0.062500
vt 0.750000 0.000000
vt 0.921875 0.046875
vt 0.906250 0.039062
vt 0.906250 0.007812
vt 0.921875 0.000000
vt 0.890625 0.007812
vt 0.890625 0.039062
vt 0.875000 0.046875
vt 0.875000 0.000000
vt 0.882812 0.031250
vt 0.914062 0.031250
vt 0.921875 0.046875
vt 0.875000 0.046875
vt 0.921875 0.000000
vt 0.914062 0.015625
vt 0.882812 0.015625
vt 0.875000 0.000000
vt 0.921875 0.046875
vt 0.906250 0.039062
vt 0.906250 0.007812
vt 0.921875 0.000000
vt 0.890625 0.007812
vt 0.890625 0.039062
vt 0.875000 0.046875
vt 0.875000 0.000000
vt 0.882812 0.031250
vt 0.914062 0.031250
vt 0.921875 0.046875
vt 0.875000 0.046875
vt 0.921875 0.000000
vt 0.914062 0.015625
vt 0.882812 0.015625
vt 0.875000 0.000000
vt 0.921875 0.046875
vt 0.906250 0.039062
vt 0.906250 0.007812
vt 0.921875 0.000000
vt 0.890625 0.007812
vt 0.890625 0.039062
vt 0.875000 0.046875
vt 0.875000 0.000000
vt 0.882812 0.031250
vt 0.914062 0.031250
vt 0.921875 0.046875
vt 0.875000 0.046875
vt 0.921875 0.000000
vt 0.914062 0.015625
vt 0.882812 0.015625
vt 0.875000 0.000000
vt 0.890625 0.007812
vt 0.890625 0.039062
vt 0.875000 0.046875
vt 0.875000 0.000000
vt 0.882812 0.031250
vt 0.914062 0.031250
vt 0.921875 0.046875
vt 0.875000 0.046875
vt 0.921875 0.000000
vt 0.914062 0.015625
vt 0.882812 0.015625
vt 0.875000 0.000000
vt 0.921875 0.046875
vt 0.906250 0.039062
vt 0.906250 0.007812
vt 0.921875 0.000000
vt 0.812500 0.000000
vt 0.812500 0.062500
vt 0.796875 0.062500
vt 0.796875 0.000000
vt 0.812500 0.000000
vt 0.812500 0.062500
vt 0.796875 0.062500
vt 0.796875 0.000000
vt 0.812500 0.000000
vt 0.812500 0.015625
vt 0.750000 0.015625
vt 0.750000 0.000000
vt 0.812500 0.000000
vt 0.812500 0.062500
vt 0.750000 0.062500
vt 0.750000 0.000000
vt 0.812500 0.000000
vt 0.812500 0.062500
vt 0.750000 0.062500
vt 0.750000 0.000000
vt 0.875000 0.078125
vt 0.875000 0.125000
vt 0.859375 0.125000
vt 0.859375 0.078125
vt 0.875000 0.078125
vt 0.875000 0.125000
vt 0.859375 0.125000
vt 0.859375 0.078125
vt 0.875000 0.062500
vt 0.875000 0.078125
vt 0.828125 0.078125
vt 0.828125 0.062500
vt 0.875000 0.062500
vt 0.875000 0.078125
vt 0.828125 0.078125
vt 0.828125 0.062500
vt 0.875000 0.000000
vt 0.875000 0.062500
vt 0.859375 0.062500
vt 0.859375 0.000000
vt 0.875000 0.000000
vt 0.875000 0.062500
vt 0.859375 0.062500
vt 0.859375 0.000000
vt 0.875000 0.046875
vt 0.875000 0.062500
vt 0.812500 0.062500
vt 0.812500 0.046875
vt 0.875000 0.000000
vt 0.875000 0.015625
vt 0.812500 0.015625
vt 0.812500 0.000000
vt 0.875000 0.000000
vt 0.875000 0.062500
vt 0.812500 0.062500
vt 0.812500 0.000000
vt 0.875000 0.000000
vt 0.875000 0.062500
vt 0.812500 0.062500
vt 0.812500 0.000000
vt 0.312500 0.250000
vt 0.312500 0.562500
vt 0.000000 0.562500
vt 0.000000 0.250000
vt 0.312500 0.250000
vt 0.312500 0.562500
vt 0.000000 0.562500
vt 0.000000 0.250000
vt 0.312500 0.250000
vt 0.312500 0.562500
vt 0.000000 0.562500
vt 0.000000 0.250000
vt 0.312500 0.250000
vt 0.312500 0.562500
vt 0.000000 0.562500
vt 0.000000 0.250000
vt 0.312500 0.250000
vt 0.312500 0.562500
vt 0.000000 0.562500
vt 0.000000 0.250000
vt 0.312500 0.250000
vt 0.312500 0.562500
vt 0.000000 0.562500
vt 0.000000 0.250000
vn 1 0 0
vn -1 0 0
vn 0 0 1
vn 0 0 -1
vn 1 0 0
vn -1 0 0
vn 0 1 0
vn 0 -1 0
vn 0 0 1
vn 0 0 -1
vn 0 1 0
vn -1 0 0
vn 0 -1 0
vn 1 0 0
vn 0 1 0
vn 0 0 1
vn 0 -1 0
vn 0 -1 0
vn 0 0 -1
vn 0 1 0
vn -1 0 0
vn 1 0 0
vn 0 1 0
vn 0 0.44721359549995804 -0.8944271909999161
vn 0 0.44721359549995804 0.8944271909999161
vn -1 0 0
vn 1 0 0
vn 0 1 0
vn -1 0 0
vn 1 0 0
vn 0 0 -1
vn 0 0 1
vn -1 0 0
vn 1 0 0
vn 1 0 0
vn -1 0 0
vn 0 1 0
vn 0 -1 0
vn 0 0 1
vn 0 0 -1
vn 0 1 0
vn 0 0 1
vn 0 0 -1
vn 1 0 0
vn -1 0 0
vn 0 1 0
vn 0 0 1
vn 0 0 -1
vn 1 0 0
vn -1 0 0
vn 0 1 0
vn 0 0 1
vn 0 0 -1
vn 0 1 0
vn 0 0 1
vn 0 0 -1
vn -1 0 0
vn 1 0 0
vn 0 1 0
vn 0 0.44721359549995804 -0.8944271909999161
vn 0 0.44721359549995804 0.8944271909999161
vn -1 0 0
vn 1 0 0
vn 0 1 0
vn -1 0 0
vn 1 0 0
vn 0 0 -1
vn 0 0 1
vn -1 0 0
vn 1 0 0
vn 1 0 0
vn -1 0 0
vn 0 1 0
vn 0 0.44721359549995804 0.8944271909999161
vn 0 0.44721359549995804 -0.8944271909999161
vn 1 0 0
vn -1 0 0
vn 0 0 -1
vn 1 0 0
vn -1 0 0
vn 1 0 0
vn -1 0 0
vn 0 1 0
vn 0 0 1
vn 0 0 -1
vn 1 0 0
vn -1 0 0
vn 0 1 0
vn 0 0.44721359549995804 0.8944271909999161
vn 0 0.44721359549995804 -0.8944271909999161
vn 1 0 0
vn -1 0 0
vn 0 0 -1
vn 1 0 0
vn -1 0 0
vn 1 0 0
vn -1 0 0
vn 0 1 0
vn 0 0 1
vn 0 0 -1
vn 1 0 0
vn -1 0 0
vn 0 0 -1
vn 1 0 0
vn -1 0 0
vn 0 0 -1
vn 0 0.8944271909999161 -0.44721359549995804
vn 0 0 -1
vn 0 1 0
vn 1 0 0
vn -1 0 0
vn 0 0 -1
vn 0 0 1
vn 0 1 0
vn 1 0 0
vn -1 0 0
vn 1 0 0
vn -1 0 0
vn 0 1 0
vn 0 -1 0
vn 0 0 1
vn 0 0 -1
vn -1 0 0
vn 1 0 0
vn 0 1 0
vn 0 0 -1
vn 0 0 1
vn 0.8944271909999161 0 0.44721359549995804
vn -0.8944271909999161 0 0.44721359549995804
vn 0 0.8944271909999161 0.44721359549995804
vn 0 -0.8944271909999161 0.44721359549995804
vn -0.8944271909999161 0 -0.44721359549995804
vn 0.8944271909999161 0 -0.44721359549995804
vn 0 0.8944271909999161 -0.44721359549995804
vn 0 -0.8944271909999161 -0.44721359549995804
vn 0.8944271909999161 0 0.44721359549995804
vn -0.8944271909999161 0 0.44721359549995804
vn 0 0.8944271909999161 0.44721359549995804
vn 0 -0.8944271909999161 0.44721359549995804
vn 0.8944271909999161 0 -0.44721359549995804
vn 0 0.8944271909999161 -0.44721359549995804
vn 0 -0.8944271909999161 -0.44721359549995804
vn -0.8944271909999161 0 -0.44721359549995804
vn 1 0 0
vn -1 0 0
vn 0 1 0
vn 0 0 1
vn 0 0 -1
vn 1 0 0
vn -1 0 0
vn 0 1 0
vn 0 -1 0
vn 1 0 0
vn -1 0 0
vn 0 1 0
vn 0 -1 0
vn 0 0 1
vn 0 0 -1
vn 0.996194678049358 0 0.08715597183289397
vn -0.9961947572771586 0 -0.08715506625264843
vn 0 1 0
vn 0 -1 0
vn -0.08715605865726729 0 0.9961946704531858
vn 0.08715497942924844 0 -0.9961947648731585
usemtl weapon_mortar
f 4/1/1 2/2/1 1/3/1
f 4/1/1 1/3/1 3/4/1
f 7/5/2 5/6/2 6/7/2
f 7/5/2 6/7/2 8/8/2
f 3/9/3 1/10/3 5/11/3
f 3/9/3 5/11/3 7/12/3
f 8/13/4 6/14/4 2/15/4
f 8/13/4 2/15/4 4/16/4
usemtl common_rough_steel
f 10/17/5 17/18/5 20/19/5
f 10/17/5 20/19/5 12/20/5
f 16/21/6 19/22/6 18/23/6
f 16/21/6 18/23/6 14/24/6
f 18/25/7 21/26/7 26/27/7
f 18/25/7 26/27/7 14/28/7
f 16/29/8 25/30/8 24/31/8
f 16/29/8 24/31/8 19/32/8
f 15/33/9 23/34/9 22/35/9
f 15/33/9 22/35/9 13/36/9
f 14/37/10 26/38/10 25/39/10
f 14/37/10 25/39/10 16/40/10
f 13/41/11 22/42/11 21/43/11
f 13/41/11 21/43/11 18/44/11
f 13/45/12 18/46/12 19/47/12
f 13/45/12 19/47/12 15/48/12
f 19/49/13 24/50/13 23/51/13
f 19/49/13 23/51/13 15/52/13
f 11/53/14 20/54/14 17/55/14
f 11/53/14 17/55/14 9/56/14
f 17/57/15 21/58/15 22/59/15
f 17/57/15 22/59/15 9/60/15
f 9/61/16 22/62/16 23/63/16
f 9/61/16 23/63/16 11/64/16
f 11/65/17 23/66/17 24/67/17
f 11/65/17 24/67/17 20/68/17
f 20/69/18 24/70/18 25/71/18
f 20/69/18 25/71/18 12/72/18
f 12/73/19 25/74/19 26/75/19
f 12/73/19 26/75/19 10/76/19
f 10/77/20 26/78/20 21/79/20
f 10/77/20 21/79/20 17/80/20
usemtl weapon_mortar
f 29/81/21 36/82/21 35/83/21
f 29/81/21 35/83/21 27/84/21
f 31/85/22 38/86/22 37/87/22
f 31/85/22 37/87/22 33/88/22
f 27/89/23 35/90/23 38/91/23
f 27/89/23 38/91/23 31/92/23
f 29/93/24 27/94/24 31/95/24
f 29/93/24 31/95/24 33/96/24
f 32/97/25 28/98/25 30/99/25
f 32/97/25 30/99/25 34/100/25
f 28/101/26 35/102/26 36/103/26
f 28/101/26 36/103/26 30/104/26
f 34/105/27 37/106/27 38/107/27
f 34/105/27 38/107/27 32/108/27
f 32/109/28 38/110/28 35/111/28
f 32/109/28 35/111/28 28/112/28
f 41/113/29 48/114/29 47/115/29
f 41/113/29 47/115/29 39/116/29
f 43/117/30 50/118/30 49/119/30
f 43/117/30 49/119/30 45/120/30
f 41/121/31 39/122/31 43/123/31
f 41/121/31 43/123/31 45/124/31
f 46/125/32 44/126/32 40/127/32
f 46/125/32 40/127/32 42/128/32
f 40/129/33 47/130/33 48/131/33
f 40/129/33 48/131/33 42/132/33
f 46/133/34 49/134/34 50/135/34
f 46/133/34 50/135/34 44/136/34
f 54/137/35 52/138/35 51/139/35
f 54/137/35 51/139/35 53/140/35
f 57/141/36 55/142/36 56/143/36
f 57/141/36 56/143/36 58/144/36
f 51/145/37 52/146/37 56/147/37
f 51/145/37 56/147/37 55/148/37
f 54/149/38 53/150/38 57/151/38
f 54/149/38 57/151/38 58/152/38
f 53/153/39 51/154/39 55/155/39
f 53/153/39 55/155/39 57/156/39
f 58/157/40 56/158/40 52/159/40
f 58/157/40 52/159/40 54/160/40
f 59/161/41 60/162/41 64/163/41
f 59/161/41 64/163/41 63/164/41
f 61/165/42 59/166/42 63/167/42
f 61/165/42 63/167/42 65/168/42
f 66/169/43 64/170/43 60/171/43
f 66/169/43 60/171/43 62/172/43
f 70/173/44 68/174/44 67/175/44
f 70/173/44 67/175/44 69/176/44
f 73/177/45 71/178/45 72/179/45
f 73/177/45 72/179/45 74/180/45
f 67/181/46 68/182/46 72/183/46
f 67/181/46 72/183/46 71/184/46
f 69/185/47 67/186/47 71/187/47
f 69/185/47 71/187/47 73/188/47
f 74/189/48 72/190/48 68/191/48
f 74/189/48 68/191/48 70/192/48
f 78/193/49 76/194/49 75/195/49
f 78/193/49 75/195/49 77/196/49
f 81/197/50 79/198/50 80/199/50
f 81/197/50 80/199/50 82/200/50
f 75/201/51 76/202/51 80/203/51
f 75/201/51 80/203/51 79/204/51
f 77/205/52 75/206/52 79/207/52
f 77/205/52 79/207/52 81/208/52
f 82/209/53 80/210/53 76/211/53
f 82/209/53 76/211/53 78/212/53
usemtl common_thingies
f 83/213/54 84/214/54 88/215/54
f 83/213/54 88/215/54 87/216/54
f 85/217/55 83/218/55 87/219/55
f 85/217/55 87/219/55 89/220/55
f 90/221/56 88/222/56 84/223/56
f 90/221/56 84/223/56 86/224/56
usemtl weapon_mortar
f 93/225/57 100/226/57 99/227/57
f 93/225/57 99/227/57 91/228/57
f 95/229/58 102/230/58 101/231/58
f 95/229/58 101/231/58 97/232/58
f 91/233/59 99/234/59 102/235/59
f 91/233/59 102/235/59 95/236/59
f 93/237/60 91/238/60 95/239/60
f 93/237/60 95/239/60 97/240/60
f 96/241/61 92/242/61 94/243/61
f 96/241/61 94/243/61 98/244/61
f 92/245/62 99/246/62 100/247/62
f 92/245/62 100/247/62 94/248/62
f 98/249/63 101/250/63 102/251/63
f 98/249/63 102/251/63 96/252/63
f 96/253/64 102/254/64 99/255/64
f 96/253/64 99/255/64 92/256/64
f 105/257/65 112/258/65 111/259/65
f 105/257/65 111/259/65 103/260/65
f 107/261/66 114/262/66 113/263/66
f 107/261/66 113/263/66 109/264/66
f 105/265/67 103/266/67 107/267/67
f 105/265/67 107/267/67 109/268/67
f 110/269/68 108/270/68 104/271/68
f 110/269/68 104/271/68 106/272/68
f 104/273/69 111/274/69 112/275/69
f 104/273/69 112/275/69 106/276/69
f 110/277/70 113/278/70 114/279/70
f 110/277/70 114/279/70 108/280/70
usemtl common_rough_steel
f 118/281/71 116/282/71 115/283/71
f 118/281/71 115/283/71 117/284/71
f 121/285/72 119/286/72 120/287/72
f 121/285/72 120/287/72 122/288/72
f 115/289/73 116/290/73 120/291/73
f 115/289/73 120/291/73 119/292/73
f 117/293/74 115/294/74 119/295/74
f 117/293/74 119/295/74 121/296/74
f 122/297/75 120/298/75 116/299/75
f 122/297/75 116/299/75 118/300/75
f 125/301/76 132/302/76 131/303/76
f 125/301/76 131/303/76 123/304/76
f 130/305/77 134/306/77 133/307/77
f 130/305/77 133/307/77 128/308/77
f 130/309/78 128/310/78 124/311/78
f 130/309/78 124/311/78 126/312/78
f 124/313/79 131/314/79 132/315/79
f 124/313/79 132/315/79 126/316/79
f 127/317/80 133/318/80 134/319/80
f 127/317/80 134/319/80 129/320/80
usemtl weapon_mortar
f 138/321/81 136/322/81 135/323/81
f 138/321/81 135/323/81 137/324/81
f 141/325/82 139/326/82 140/327/82
f 141/325/82 140/327/82 142/328/82
f 135/329/83 136/330/83 140/331/83
f 135/329/83 140/331/83 139/332/83
f 137/333/84 135/334/84 139/335/84
f 137/333/84 139/335/84 141/336/84
f 142/337/85 140/338/85 136/339/85
f 142/337/85 136/339/85 138/340/85
usemtl common_rough_steel
f 146/341/86 144/342/86 143/343/86
f 146/341/86 143/343/86 145/344/86
f 149/345/87 147/346/87 148/347/87
f 149/345/87 148/347/87 150/348/87
f 143/349/88 144/350/88 148/351/88
f 143/349/88 148/351/88 147/352/88
f 145/353/89 143/354/89 147/355/89
f 145/353/89 147/355/89 149/356/89
f 150/357/90 148/358/90 144/359/90
f 150/357/90 144/359/90 146/360/90
f 153/361/91 160/362/91 159/363/91
f 153/361/91 159/363/91 151/364/91
f 158/365/92 162/366/92 161/367/92
f 158/365/92 161/367/92 156/368/92
f 158/369/93 156/370/93 152/371/93
f 158/369/93 152/371/93 154/372/93
f 152/373/94 159/374/94 160/375/94
f 152/373/94 160/375/94 154/376/94
f 155/377/95 161/378/95 162/379/95
f 155/377/95 162/379/95 157/380/95
usemtl weapon_mortar
f 166/381/96 164/382/96 163/383/96
f 166/381/96 163/383/96 165/384/96
f 169/385/97 167/386/97 168/387/97
f 169/385/97 168/387/97 170/388/97
f 163/389/98 164/390/98 168/391/98
f 163/389/98 168/391/98 167/392/98
f 165/393/99 163/394/99 167/395/99
f 165/393/99 167/395/99 169/396/99
f 170/397/100 168/398/100 164/399/100
f 170/397/100 164/399/100 166/400/100
usemtl common_rough_steel
f 174/401/101 172/402/101 171/403/101
f 174/401/101 171/403/101 173/404/101
f 177/405/102 175/406/102 176/407/102
f 177/405/102 176/407/102 178/408/102
f 178/409/103 176/410/103 172/411/103
f 178/409/103 172/411/103 174/412/103
usemtl common_copper_cable
f 182/413/104 180/414/104 179/415/104
f 182/413/104 179/415/104 181/416/104
f 185/417/105 183/418/105 184/419/105
f 185/417/105 184/419/105 186/420/105
f 182/421/106 181/422/106 185/423/106
f 182/421/106 185/423/106 186/424/106
f 186/425/107 184/426/107 180/427/107
f 186/425/107 180/427/107 182/428/107
usemtl weapon_mortar
f 190/429/108 188/430/108 187/431/108
f 190/429/108 187/431/108 189/432/108
f 187/433/109 188/434/109 192/435/109
f 187/433/109 192/435/109 191/436/109
f 189/437/110 187/438/110 191/439/110
f 189/437/110 191/439/110 193/440/110
f 194/441/111 192/442/111 188/443/111
f 194/441/111 188/443/111 190/444/111
f 198/445/112 196/446/112 195/447/112
f 198/445/112 195/447/112 197/448/112
f 201/449/113 199/450/113 200/451/113
f 201/449/113 200/451/113 202/452/113
f 195/453/114 196/454/114 200/455/114
f 195/453/114 200/455/114 199/456/114
f 197/457/115 195/458/115 199/459/115
f 197/457/115 199/459/115 201/460/115
f 202/461/116 200/462/116 196/463/116
f 202/461/116 196/463/116 198/464/116
f 206/465/117 204/466/117 203/467/117
f 206/465/117 203/467/117 205/468/117
f 209/469/118 207/470/118 208/471/118
f 209/469/118 208/471/118 210/472/118
f 203/473/119 204/474/119 208/475/119
f 203/473/119 208/475/119 207/476/119
f 206/477/120 205/478/120 209/479/120
f 206/477/120 209/479/120 210/480/120
f 205/481/121 203/482/121 207/483/121
f 205/481/121 207/483/121 209/484/121
f 210/485/122 208/486/122 204/487/122
f 210/485/122 204/487/122 206/488/122
f 214/489/123 212/490/123 211/491/123
f 214/489/123 211/491/123 213/492/123
f 217/493/124 215/494/124 216/495/124
f 217/493/124 216/495/124 218/496/124
f 211/497/125 212/498/125 216/499/125
f 211/497/125 216/499/125 215/500/125
f 213/501/126 211/502/126 215/503/126
f 213/501/126 215/503/126 217/504/126
f 218/505/127 216/506/127 212/507/127
f 218/505/127 212/507/127 214/508/127
f 220/509/128 219/510/128 221/511/128
f 220/509/128 221/511/128 222/512/128
f 225/513/129 223/514/129 224/515/129
f 225/513/129 224/515/129 226/516/129
f 223/517/130 219/518/130 220/519/130
f 223/517/130 220/519/130 224/520/130
f 222/521/131 221/522/131 225/523/131
f 222/521/131 225/523/131 226/524/131
f 228/525/132 227/526/132 229/527/132
f 228/525/132 229/527/132 230/528/132
f 233/529/133 231/530/133 232/531/133
f 233/529/133 232/531/133 234/532/133
f 231/533/134 227/534/134 228/535/134
f 231/533/134 228/535/134 232/536/134
f 230/537/135 229/538/135 233/539/135
f 230/537/135 233/539/135 234/540/135
f 236/541/136 235/542/136 237/543/136
f 236/541/136 237/543/136 238/544/136
f 241/545/137 239/546/137 240/547/137
f 241/545/137 240/547/137 242/548/137
f 239/549/138 235/550/138 236/551/138
f 239/549/138 236/551/138 240/552/138
f 238/553/139 237/554/139 241/555/139
f 238/553/139 241/555/139 242/556/139
f 249/557/140 247/558/140 248/559/140
f 249/557/140 248/559/140 250/560/140
f 247/561/141 243/562/141 244/563/141
f 247/561/141 244/563/141 248/564/141
f 246/565/142 245/566/142 249/567/142
f 246/565/142 249/567/142 250/568/142
f 244/569/143 243/570/143 245/571/143
f 244/569/143 245/571/143 246/572/143
f 254/573/144 252/574/144 251/575/144
f 254/573/144 251/575/144 253/576/144
f 257/577/145 255/578/145 256/579/145
f 257/577/145 256/579/145 258/580/145
f 251/581/146 252/582/146 256/583/146
f 251/581/146 256/583/146 255/584/146
f 253/585/147 251/586/147 255/587/147
f 253/585/147 255/587/147 257/588/147
f 258/589/148 256/590/148 252/591/148
f 258/589/148 252/591/148 254/592/148
f 262/593/149 260/594/149 259/595/149
f 262/593/149 259/595/149 261/596/149
f 265/597/150 263/598/150 264/599/150
f 265/597/150 264/599/150 266/600/150
f 259/601/151 260/602/151 264/603/151
f 259/601/151 264/603/151 263/604/151
f 262/605/152 261/606/152 265/607/152
f 262/605/152 265/607/152 266/608/152
f 270/609/153 268/610/153 267/611/153
f 270/609/153 267/611/153 269/612/153
f 273/613/154 271/614/154 272/615/154
f 273/613/154 272/615/154 274/616/154
f 267/617/155 268/618/155 272/619/155
f 267/617/155 272/619/155 271/620/155
f 270/621/156 269/622/156 273/623/156
f 270/621/156 273/623/156 274/624/156
f 269/625/157 267/626/157 271/627/157
f 269/625/157 271/627/157 273/628/157
f 274/629/158 272/630/158 268/631/158
f 274/629/158 268/631/158 270/632/158
usemtl metal
f 278/633/159 276/634/159 275/635/159
f 278/633/159 275/635/159 277/636/159
f 281/637/160 279/638/160 280/639/160
f 281/637/160 280/639/160 282/640/160
f 275/641/161 276/642/161 280/643/161
f 275/641/161 280/643/161 279/644/161
f 278/645/162 277/646/162 281/647/162
f 278/645/162 281/647/162 282/648/162
f 277/649/163 275/650/163 279/651/163
f 277/649/163 279/651/163 281/652/163
f 282/653/164 280/654/164 276/655/164
f 282/653/164 276/655/164 278/656/164
o Mortar_move_mechanism
v 1.0625 -1.7050837921619983 1.080776825891327
v 1.0625 -1.6806101311207386 0.8948809143837377
v 1.0625 -2.448667438192356 0.9828821817262885
v 1.0625 -2.424193777151096 0.796986270218699
v 0.875 -1.7050837921619983 1.080776825891327
v 0.875 -1.6806101311207386 0.8948809143837377
v 0.875 -2.448667438192356 0.9828821817262885
v 0.875 -2.424193777151096 0.796986270218699
v 1.125 -2.25869258317789 0.9763731908496165
v 1.125 -2.2423768091503837 0.8524425831778901
v 1.125 -2.3826231908496163 0.9600574168221101
v 1.125 -2.3663074168221097 0.8361268091503837
v 0.8125 -2.25869258317789 0.9763731908496165
v 0.8125 -2.2423768091503837 0.8524425831778901
v 0.8125 -2.3826231908496163 0.9600574168221101
v 0.8125 -2.3663074168221097 0.8361268091503837
v -0.0625 -1.7050837921619983 1.080776825891327
v -0.0625 -1.6806101311207386 0.8948809143837377
v -0.0625 -2.448667438192356 0.9828821817262885
v -0.0625 -2.424193777151096 0.796986270218699
v 0.125 -1.7050837921619983 1.080776825891327
v 0.125 -1.6806101311207386 0.8948809143837377
v 0.125 -2.448667438192356 0.9828821817262885
v 0.125 -2.424193777151096 0.796986270218699
v -0.125 -2.25869258317789 0.9763731908496165
v -0.125 -2.2423768091503837 0.8524425831778901
v -0.125 -2.3826231908496163 0.9600574168221101
v -0.125 -2.3663074168221097 0.8361268091503837
v 0.1875 -2.25869258317789 0.9763731908496165
v 0.1875 -2.2423768091503837 0.8524425831778901
v 0.1875 -2.3826231908496163 0.9600574168221101
v 0.1875 -2.3663074168221097 0.8361268091503837
vt 0.156250 0.812500
vt 0.156250 1.000000
vt 0.109375 1.000000
vt 0.109375 0.812500
vt 0.156250 0.812500
vt 0.156250 1.000000
vt 0.109375 1.000000
vt 0.109375 0.812500
vt 0.109375 0.734375
vt 0.109375 0.781250
vt 0.156250 0.781250
vt 0.156250 0.734375
vt 0.156250 0.734375
vt 0.156250 0.781250
vt 0.109375 0.781250
vt 0.109375 0.734375
vt 0.156250 0.812500
vt 0.156250 1.000000
vt 0.109375 1.000000
vt 0.109375 0.812500
vt 0.156250 0.812500
vt 0.156250 1.000000
vt 0.109375 1.000000
vt 0.109375 0.812500
vt 0.140625 0.812500
vt 0.109375 0.812500
vt 0.109375 0.781250
vt 0.140625 0.781250
vt 0.265625 0.953125
vt 0.296875 0.953125
vt 0.296875 0.875000
vt 0.265625 0.875000
vt 0.265625 0.843750
vt 0.296875 0.843750
vt 0.296875 0.921875
vt 0.265625 0.921875
vt 0.296875 0.937500
vt 0.265625 0.937500
vt 0.265625 0.859375
vt 0.296875 0.859375
vt 0.265625 0.843750
vt 0.296875 0.843750
vt 0.296875 0.921875
vt 0.265625 0.921875
vt 0.109375 1.000000
vt 0.156250 1.000000
vt 0.156250 0.812500
vt 0.109375 0.812500
vt 0.109375 1.000000
vt 0.156250 1.000000
vt 0.156250 0.812500
vt 0.109375 0.812500
vt 0.156250 0.781250
vt 0.109375 0.781250
vt 0.109375 0.734375
vt 0.156250 0.734375
vt 0.109375 0.781250
vt 0.156250 0.781250
vt 0.156250 0.734375
vt 0.109375 0.734375
vt 0.109375 1.000000
vt 0.156250 1.000000
vt 0.156250 0.812500
vt 0.109375 0.812500
vt 0.109375 1.000000
vt 0.156250 1.000000
vt 0.156250 0.812500
vt 0.109375 0.812500
vt 0.109375 0.781250
vt 0.109375 0.812500
vt 0.140625 0.812500
vt 0.140625 0.781250
vt 0.296875 0.875000
vt 0.296875 0.953125
vt 0.265625 0.953125
vt 0.265625 0.875000
vt 0.296875 0.921875
vt 0.296875 0.843750
vt 0.265625 0.843750
vt 0.265625 0.921875
vt 0.265625 0.859375
vt 0.265625 0.937500
vt 0.296875 0.937500
vt 0.296875 0.859375
vt 0.296875 0.921875
vt 0.296875 0.843750
vt 0.265625 0.843750
vt 0.265625 0.921875
vn 1 0 0
vn -1 0 0
vn 0 0.9914448613738104 0.13052619222005157
vn 0 -0.9914448613738104 -0.13052619222005157
vn 0 -0.13052619222005157 0.9914448613738104
vn 0 0.13052619222005157 -0.9914448613738104
vn 1 0 0
vn 0 0.9914448613738104 0.13052619222005157
vn 0 -0.9914448613738104 -0.13052619222005157
vn 0 -0.13052619222005157 0.9914448613738104
vn 0 0.13052619222005157 -0.9914448613738104
vn -1 0 0
vn 1 0 0
vn 0 0.9914448613738104 0.13052619222005157
vn 0 -0.9914448613738104 -0.13052619222005157
vn 0 -0.13052619222005157 0.9914448613738104
vn 0 0.13052619222005157 -0.9914448613738104
vn -1 0 0
vn 0 0.9914448613738104 0.13052619222005157
vn 0 -0.9914448613738104 -0.13052619222005157
vn 0 -0.13052619222005157 0.9914448613738104
vn 0 0.13052619222005157 -0.9914448613738104
usemtl weapon_mortar
f 286/657/165 284/658/165 283/659/165
f 286/657/165 283/659/165 285/660/165
f 289/661/166 287/662/166 288/663/166
f 289/661/166 288/663/166 290/664/166
f 283/665/167 284/666/167 288/667/167
f 283/665/167 288/667/167 287/668/167
f 286/669/168 285/670/168 289/671/168
f 286/669/168 289/671/168 290/672/168
f 285/673/169 283/674/169 287/675/169
f 285/673/169 287/675/169 289/676/169
f 290/677/170 288/678/170 284/679/170
f 290/677/170 284/679/170 286/680/170
f 294/681/171 292/682/171 291/683/171
f 294/681/171 291/683/171 293/684/171
f 291/685/172 292/686/172 296/687/172
f 291/685/172 296/687/172 295/688/172
f 294/689/173 293/690/173 297/691/173
f 294/689/173 297/691/173 298/692/173
f 293/693/174 291/694/174 295/695/174
f 293/693/174 295/695/174 297/696/174
f 298/697/175 296/698/175 292/699/175
f 298/697/175 292/699/175 294/700/175
f 299/701/176 300/702/176 302/703/176
f 299/701/176 302/703/176 301/704/176
f 304/705/177 303/706/177 305/707/177
f 304/705/177 305/707/177 306/708/177
f 304/709/178 300/710/178 299/711/178
f 304/709/178 299/711/178 303/712/178
f 305/713/179 301/714/179 302/715/179
f 305/713/179 302/715/179 306/716/179
f 303/717/180 299/718/180 301/719/180
f 303/717/180 301/719/180 305/720/180
f 300/721/181 304/722/181 306/723/181
f 300/721/181 306/723/181 302/724/181
f 307/725/182 308/726/182 310/727/182
f 307/725/182 310/727/182 309/728/182
f 312/729/183 308/730/183 307/731/183
f 312/729/183 307/731/183 311/732/183
f 313/733/184 309/734/184 310/735/184
f 313/733/184 310/735/184 314/736/184
f 311/737/185 307/738/185 309/739/185
f 311/737/185 309/739/185 313/740/185
f 308/741/186 312/742/186 314/743/186
f 308/741/186 314/743/186 310/744/186
o Mortar_move_fastener
v 1.03125 -1.5770742409833955 1.0661099480009018
v 1.03125 -1.560758466955889 0.9421793403291754
v 1.03125 -2.3206578870137533 0.9682153038358632
v 1.03125 -2.3043421129862467 0.8442846961641368
v 0.90625 -1.5770742409833955 1.0661099480009018
v 0.90625 -1.560758466955889 0.9421793403291754
v 0.90625 -2.3206578870137533 0.9682153038358632
v 0.90625 -2.3043421129862467 0.8442846961641368
v 1.0625 -1.3373709126536961 1.1607067998917777
v 1.0625 -1.3047393645986833 0.9128455845483252
v 1.0625 -1.5852321279971489 1.1280752518367647
v 1.0625 -1.5526005799421358 0.8802140364933124
v 0.875 -1.3373709126536961 1.1607067998917777
v 0.875 -1.3047393645986833 0.9128455845483252
v 0.875 -1.5852321279971489 1.1280752518367647
v 0.875 -1.5526005799421358 0.8802140364933124
v 0.09375 -1.5770742409833955 1.0661099480009018
v 0.09375 -1.560758466955889 0.9421793403291754
v 0.09375 -2.3206578870137533 0.9682153038358632
v 0.09375 -2.3043421129862467 0.8442846961641368
v -0.03125 -1.5770742409833955 1.0661099480009018
v -0.03125 -1.560758466955889 0.9421793403291754
v -0.03125 -2.3206578870137533 0.9682153038358632
v -0.03125 -2.3043421129862467 0.8442846961641368
v 0.125 -1.3373709126536961 1.1607067998917777
v 0.125 -1.3047393645986833 0.9128455845483252
v 0.125 -1.5852321279971489 1.1280752518367647
v 0.125 -1.5526005799421358 0.8802140364933124
v -0.0625 -1.3373709126536961 1.1607067998917777
v -0.0625 -1.3047393645986833 0.9128455845483252
v -0.0625 -1.5852321279971489 1.1280752518367647
v -0.0625 -1.5526005799421358 0.8802140364933124
vt 0.421875 1.000000
vt 0.421875 0.812500
vt 0.453125 0.812500
vt 0.453125 1.000000
vt 0.421875 1.000000
vt 0.421875 0.812500
vt 0.453125 0.812500
vt 0.453125 1.000000
vt 0.453125 1.000000
vt 0.453125 0.812500
vt 0.421875 0.812500
vt 0.421875 1.000000
vt 0.453125 1.000000
vt 0.453125 0.812500
vt 0.421875 0.812500
vt 0.421875 1.000000
vt 0.000000 0.375000
vt 0.000000 0.437500
vt 0.062500 0.437500
vt 0.062500 0.375000
vt 0.062500 0.375000
vt 0.062500 0.437500
vt 0.000000 0.437500
vt 0.000000 0.375000
vt 0.046875 0.265625
vt 0.046875 0.328125
vt 0.000000 0.328125
vt 0.000000 0.265625
vt 0.046875 0.265625
vt 0.046875 0.328125
vt 0.000000 0.328125
vt 0.000000 0.265625
vt 0.046875 0.328125
vt 0.046875 0.265625
vt 0.000000 0.265625
vt 0.000000 0.328125
vt 0.046875 0.265625
vt 0.046875 0.328125
vt 0.000000 0.328125
vt 0.000000 0.265625
vt 0.421875 1.000000
vt 0.421875 0.812500
vt 0.453125 0.812500
vt 0.453125 1.000000
vt 0.421875 1.000000
vt 0.421875 0.812500
vt 0.453125 0.812500
vt 0.453125 1.000000
vt 0.453125 1.000000
vt 0.453125 0.812500
vt 0.421875 0.812500
vt 0.421875 1.000000
vt 0.453125 1.000000
vt 0.453125 0.812500
vt 0.421875 0.812500
vt 0.421875 1.000000
vt 0.000000 0.375000
vt 0.000000 0.437500
vt 0.062500 0.437500
vt 0.062500 0.375000
vt 0.062500 0.375000
vt 0.062500 0.437500
vt 0.000000 0.437500
vt 0.000000 0.375000
vt 0.046875 0.265625
vt 0.046875 0.328125
vt 0.000000 0.328125
vt 0.000000 0.265625
vt 0.046875 0.265625
vt 0.046875 0.328125
vt 0.000000 0.328125
vt 0.000000 0.265625
vt 0.046875 0.328125
vt 0.046875 0.265625
vt 0.000000 0.265625
vt 0.000000 0.328125
vt 0.046875 0.265625
vt 0.046875 0.328125
vt 0.000000 0.328125
vt 0.000000 0.265625
vn 1 0 0
vn -1 0 0
vn 0 -0.13052619222005157 0.9914448613738104
vn 0 0.13052619222005157 -0.9914448613738104
vn 1 0 0
vn -1 0 0
vn 0 0.9914448613738104 0.13052619222005157
vn 0 -0.9914448613738104 -0.13052619222005157
vn 0 -0.13052619222005157 0.9914448613738104
vn 0 0.13052619222005157 -0.9914448613738104
vn 1 0 0
vn -1 0 0
vn 0 -0.13052619222005157 0.9914448613738104
vn 0 0.13052619222005157 -0.9914448613738104
vn 1 0 0
vn -1 0 0
vn 0 0.9914448613738104 0.13052619222005157
vn 0 -0.9914448613738104 -0.13052619222005157
vn 0 -0.13052619222005157 0.9914448613738104
vn 0 0.13052619222005157 -0.9914448613738104
usemtl weapon_mortar
f 318/745/187 316/746/187 315/747/187
f 318/745/187 315/747/187 317/748/187
f 321/749/188 319/750/188 320/751/188
f 321/749/188 320/751/188 322/752/188
f 317/753/189 315/754/189 319/755/189
f 317/753/189 319/755/189 321/756/189
f 322/757/190 320/758/190 316/759/190
f 322/757/190 316/759/190 318/760/190
f 326/761/191 324/762/191 323/763/191
f 326/761/191 323/763/191 325/764/191
f 329/765/192 327/766/192 328/767/192
f 329/765/192 328/767/192 330/768/192
usemtl common_thingies
f 323/769/193 324/770/193 328/771/193
f 323/769/193 328/771/193 327/772/193
f 326/773/194 325/774/194 329/775/194
f 326/773/194 329/775/194 330/776/194
f 325/777/195 323/778/195 327/779/195
f 325/777/195 327/779/195 329/780/195
f 330/781/196 328/782/196 324/783/196
f 330/781/196 324/783/196 326/784/196
usemtl weapon_mortar
f 334/785/197 332/786/197 331/787/197
f 334/785/197 331/787/197 333/788/197
f 337/789/198 335/790/198 336/791/198
f 337/789/198 336/791/198 338/792/198
f 333/793/199 331/794/199 335/795/199
f 333/793/199 335/795/199 337/796/199
f 338/797/200 336/798/200 332/799/200
f 338/797/200 332/799/200 334/800/200
f 342/801/201 340/802/201 339/803/201
f 342/801/201 339/803/201 341/804/201
f 345/805/202 343/806/202 344/807/202
f 345/805/202 344/807/202 346/808/202
usemtl common_thingies
f 339/809/203 340/810/203 344/811/203
f 339/809/203 344/811/203 343/812/203
f 342/813/204 341/814/204 345/815/204
f 342/813/204 345/815/204 346/816/204
f 341/817/205 339/818/205 343/819/205
f 341/817/205 343/819/205 345/820/205
f 346/821/206 344/822/206 340/823/206
f 346/821/206 340/823/206 342/824/206
o Mortar
v 0.31314687500000005 -2.398095521961119 1.7737399471890374
v 0.688146875 -2.398095521961119 1.7737399471890374
v 0.31314687500000005 -2.4403199099370974 1.81981978073967
v 0.688146875 -2.4403199099370974 1.81981978073967
v 0.31314687500000005 -2.121616520657322 2.02708627504491
v 0.688146875 -2.121616520657322 2.02708627504491
v 0.31314687500000005 -2.163840908633301 2.073166108595543
v 0.688146875 -2.163840908633301 2.073166108595543
v 0.18814687500000005 -1.4153990270810692 0.8092455357950521
v 0.25064687500000005 -1.4153990270810692 0.8092455357950521
v 0.18814687500000005 -1.5113833744655647 0.8060634426257496
v 0.25064687500000005 -1.5113833744655647 0.8060634426257496
v 0.18814687500000005 -1.2003601110436735 1.006292398187033
v 0.25064687500000005 -1.2003601110436735 1.006292398187033
v 0.18814687500000005 -1.1888245396111354 1.101634158457601
v 0.25064687500000005 -1.1888245396111354 1.101634158457601
v 0.750646875 -1.4153990270810692 0.8092455357950521
v 0.813146875 -1.4153990270810692 0.8092455357950521
v 0.750646875 -1.5113833744655647 0.8060634426257496
v 0.813146875 -1.5113833744655647 0.8060634426257496
v 0.750646875 -1.2003601110436735 1.006292398187033
v 0.813146875 -1.2003601110436735 1.006292398187033
v 0.750646875 -1.1888245396111354 1.101634158457601
v 0.813146875 -1.1888245396111354 1.101634158457601
v 0.25064687500000005 -2.0219314757519635 1.270717223706731
v 0.750646875 -2.0219314757519635 1.270717223706731
v 0.25064687500000005 -2.4441753555117516 1.7315155592130584
v 0.750646875 -2.4441753555117516 1.7315155592130584
v 0.25064687500000005 -1.6532928073469018 1.6085123275145612
v 0.750646875 -1.6532928073469018 1.6085123275145612
v 0.25064687500000005 -2.0755366871066894 2.0693106630208886
v 0.750646875 -2.0755366871066894 2.0693106630208886
v 0.813146875 -1.1888245396111354 1.101634158457601
v 0.813146875 -1.5113833744655647 0.8060634426257496
v 0.813146875 -1.991087911154732 1.9771509959196232
v 0.813146875 -2.3136467460091614 1.6815802800877717
v 0.750646875 -1.1888245396111354 1.101634158457601
v 0.750646875 -1.5113833744655647 0.8060634426257496
v 0.750646875 -1.991087911154732 1.9771509959196232
v 0.750646875 -2.3136467460091614 1.6815802800877717
v 0.25064687500000005 -1.1888245396111354 1.101634158457601
v 0.25064687500000005 -1.5113833744655647 0.8060634426257496
v 0.25064687500000005 -1.991087911154732 1.9771509959196232
v 0.25064687500000005 -2.3136467460091614 1.6815802800877717
v 0.18814687500000005 -1.1888245396111354 1.101634158457601
v 0.18814687500000005 -1.5113833744655647 0.8060634426257496
v 0.18814687500000005 -1.991087911154732 1.9771509959196232
v 0.18814687500000005 -2.3136467460091614 1.6815802800877717
vt 0.125000 0.531250
vt 0.218750 0.531250
vt 0.218750 0.515625
vt 0.125000 0.515625
vt 0.218750 0.531250
vt 0.125000 0.531250
vt 0.125000 0.515625
vt 0.218750 0.515625
vt 0.125000 0.609375
vt 0.218750 0.609375
vt 0.218750 0.515625
vt 0.125000 0.515625
vt 0.125000 0.609375
vt 0.218750 0.609375
vt 0.218750 0.593750
vt 0.125000 0.593750
vt 0.218750 0.531250
vt 0.125000 0.531250
vt 0.125000 0.515625
vt 0.218750 0.515625
vt 0.187500 1.000000
vt 0.171875 1.000000
vt 0.171875 0.983803
vt 0.187500 0.983803
vt 0.187500 1.000000
vt 0.171875 1.000000
vt 0.171875 0.983803
vt 0.187500 0.983803
vt 0.234375 0.927084
vt 0.234375 1.000000
vt 0.218750 1.000000
vt 0.218750 0.927084
vt 0.263020 1.000000
vt 0.190105 1.000000
vt 0.171875 0.984375
vt 0.281250 0.984375
vt 0.263020 1.000000
vt 0.190105 1.000000
vt 0.171875 0.984375
vt 0.281250 0.984375
vt 0.187500 1.000000
vt 0.171875 1.000000
vt 0.171875 0.983803
vt 0.187500 0.983803
vt 0.187500 1.000000
vt 0.171875 1.000000
vt 0.171875 0.983803
vt 0.187500 0.983803
vt 0.234375 0.927084
vt 0.234375 1.000000
vt 0.218750 1.000000
vt 0.218750 0.927084
vt 0.263020 1.000000
vt 0.190105 1.000000
vt 0.171875 0.984375
vt 0.281250 0.984375
vt 0.263020 1.000000
vt 0.190105 1.000000
vt 0.171875 0.984375
vt 0.281250 0.984375
vt 0.125000 0.656250
vt 0.000000 0.656250
vt 0.000000 0.500000
vt 0.125000 0.500000
vt 0.125000 0.656250
vt 0.000000 0.656250
vt 0.000000 0.500000
vt 0.125000 0.500000
vt 0.500000 0.500000
vt 0.500000 0.625000
vt 0.375000 0.625000
vt 0.375000 0.500000
vt 0.500000 0.500000
vt 0.500000 0.625000
vt 0.375000 0.625000
vt 0.375000 0.500000
vt 0.125000 0.656250
vt 0.000000 0.656250
vt 0.000000 0.500000
vt 0.125000 0.500000
vt 0.125000 0.656250
vt 0.000000 0.656250
vt 0.000000 0.500000
vt 0.125000 0.500000
vt 0.281250 1.000000
vt 0.281250 0.703125
vt 0.171875 0.703125
vt 0.171875 1.000000
vt 0.171875 1.000000
vt 0.171875 0.703125
vt 0.281250 0.703125
vt 0.281250 1.000000
vt 0.156250 0.984375
vt 0.265625 0.984375
vt 0.265625 1.000000
vt 0.156250 1.000000
vt 0.187500 1.000000
vt 0.187500 0.703125
vt 0.171875 0.703125
vt 0.171875 1.000000
vt 0.281250 0.703125
vt 0.281250 1.000000
vt 0.265625 1.000000
vt 0.265625 0.703125
vt 0.281250 1.000000
vt 0.281250 0.703125
vt 0.171875 0.703125
vt 0.171875 1.000000
vt 0.171875 1.000000
vt 0.171875 0.703125
vt 0.281250 0.703125
vt 0.281250 1.000000
vt 0.171875 0.984375
vt 0.281250 0.984375
vt 0.281250 1.000000
vt 0.171875 1.000000
vt 0.187500 1.000000
vt 0.187500 0.703125
vt 0.171875 0.703125
vt 0.171875 1.000000
vt 0.281250 0.703125
vt 0.281250 1.000000
vt 0.265625 1.000000
vt 0.265625 0.703125
vn 0 -0.7372773368101241 -0.6755902076156604
vn 0 0.7372773368101241 0.6755902076156604
vn 0 -0.6755902076156604 0.7372773368101241
vn -1 0 0
vn 1 0 0
vn 0 0.03313400597215266 -0.9994509180786406
vn 0 0.9927598866921609 -0.12011580818097137
vn 0 0.6755902076156604 -0.7372773368101241
vn -1 0 0
vn 1 0 0
vn 0 0.03313400597215266 -0.9994509180786406
vn 0 0.9927598866921609 -0.12011580818097137
vn 0 0.6755902076156604 -0.7372773368101241
vn -1 0 0
vn 1 0 0
vn 0 -0.7372773368101241 -0.6755902076156604
vn 0 0.7372773368101241 0.6755902076156604
vn 0 0.6755902076156604 -0.7372773368101241
vn 0 -0.6755902076156604 0.7372773368101241
vn -1 0 0
vn 1 0 0
vn 1 0 0
vn -1 0 0
vn 0 -0.6755902076156604 0.7372773368101241
vn 0 0.7372773368101241 0.6755902076156604
vn 0 -0.7372773368101241 -0.6755902076156604
vn 1 0 0
vn -1 0 0
vn 0 -0.6755902076156604 0.7372773368101241
vn 0 0.7372773368101241 0.6755902076156604
vn 0 -0.7372773368101241 -0.6755902076156604
usemtl weapon_mortar
f 347/825/207 348/826/207 350/827/207
f 347/825/207 350/827/207 349/828/207
f 352/829/208 351/830/208 353/831/208
f 352/829/208 353/831/208 354/832/208
f 353/833/209 349/834/209 350/835/209
f 353/833/209 350/835/209 354/836/209
f 351/837/210 347/838/210 349/839/210
f 351/837/210 349/839/210 353/840/210
f 348/841/211 352/842/211 354/843/211
f 348/841/211 354/843/211 350/844/211
f 355/845/212 356/846/212 358/847/212
f 355/845/212 358/847/212 357/848/212
f 360/849/213 359/850/213 361/851/213
f 360/849/213 361/851/213 362/852/213
f 360/853/214 356/854/214 355/855/214
f 360/853/214 355/855/214 359/856/214
f 359/857/215 355/858/215 357/859/215
f 359/857/215 357/859/215 361/860/215
f 356/861/216 360/862/216 362/863/216
f 356/861/216 362/863/216 358/864/216
f 363/865/217 364/866/217 366/867/217
f 363/865/217 366/867/217 365/868/217
f 368/869/218 367/870/218 369/871/218
f 368/869/218 369/871/218 370/872/218
f 368/873/219 364/874/219 363/875/219
f 368/873/219 363/875/219 367/876/219
f 367/877/220 363/878/220 365/879/220
f 367/877/220 365/879/220 369/880/220
f 364/881/221 368/882/221 370/883/221
f 364/881/221 370/883/221 366/884/221
f 371/885/222 372/886/222 374/887/222
f 371/885/222 374/887/222 373/888/222
f 376/889/223 375/890/223 377/891/223
f 376/889/223 377/891/223 378/892/223
f 376/893/224 372/894/224 371/895/224
f 376/893/224 371/895/224 375/896/224
f 377/897/225 373/898/225 374/899/225
f 377/897/225 374/899/225 378/900/225
f 375/901/226 371/902/226 373/903/226
f 375/901/226 373/903/226 377/904/226
f 372/905/227 376/906/227 378/907/227
f 372/905/227 378/907/227 374/908/227
f 382/909/228 380/910/228 379/911/228
f 382/909/228 379/911/228 381/912/228
f 385/913/229 383/914/229 384/915/229
f 385/913/229 384/915/229 386/916/229
f 382/917/230 381/918/230 385/919/230
f 382/917/230 385/919/230 386/920/230
f 381/921/231 379/922/231 383/923/231
f 381/921/231 383/923/231 385/924/231
f 386/925/232 384/926/232 380/927/232
f 386/925/232 380/927/232 382/928/232
f 390/929/233 388/930/233 387/931/233
f 390/929/233 387/931/233 389/932/233
f 393/933/234 391/934/234 392/935/234
f 393/933/234 392/935/234 394/936/234
f 390/937/235 389/938/235 393/939/235
f 390/937/235 393/939/235 394/940/235
f 389/941/236 387/942/236 391/943/236
f 389/941/236 391/943/236 393/944/236
f 394/945/237 392/946/237 388/947/237
f 394/945/237 388/947/237 390/948/237
o Mortar_gun
v 0.7193968750000002 -1.9528117254260144 1.334053805670699
v 0.7193968749999999 -1.0238751899544818 0.32029746755677846
v 0.6568968750000002 -1.9988915589766474 1.2918294176947203
v 0.6568968749999999 -1.0699550235051145 0.27807307958079963
v 0.7193968750000002 -1.7224125576728508 1.5451757455505928
v 0.7193968749999999 -0.793476022201318 0.5314194074366723
v 0.6568968750000002 -1.6763327241222181 1.5874001335265717
v 0.6568968749999999 -0.7473961886506852 0.573643795412651
v 0.406896875 -1.0468223500571907 0.8078984087404688
v 0.5943968749999999 -1.0468223500571905 0.8078984087404688
v 0.406896875 -1.0851912924585154 0.9422824638177131
v 0.594396875 -1.0851912924585154 0.942282463817713
v 0.406896875 -1.0007425165065578 0.8501227967164475
v 0.5943968749999999 -1.0007425165065578 0.8501227967164475
v 0.406896875 -1.0429669044825367 0.8962026302670804
v 0.5943968749999999 -1.0429669044825367 0.8962026302670802
v 0.656896875 -1.1274156804344941 0.9883622973683458
v 0.656896875 -1.1734955139851269 0.946137909392367
v 0.6568968750000002 -1.6763327241222181 1.5874001335265717
v 0.6568968750000002 -1.7224125576728508 1.5451757455505928
v 0.34439687500000005 -1.1274156804344941 0.9883622973683458
v 0.34439687500000005 -1.1734955139851269 0.9461379093923671
v 0.3443968750000002 -1.6763327241222181 1.5874001335265717
v 0.3443968750000002 -1.7224125576728508 1.5451757455505928
v 0.6568968749999999 -1.0007425165065578 0.8501227967164475
v 0.656896875 -1.1274156804344941 0.9883622973683458
v 0.5943968749999999 -1.0007425165065578 0.8501227967164475
v 0.594396875 -1.1274156804344941 0.9883622973683458
v 0.406896875 -1.0007425165065578 0.8501227967164475
v 0.406896875 -1.0468223500571907 0.8078984087404688
v 0.40689687500000005 -1.1274156804344941 0.9883622973683458
v 0.344396875 -1.0007425165065578 0.8501227967164475
v 0.344396875 -1.0468223500571907 0.8078984087404688
v 0.34439687500000005 -1.1274156804344941 0.9883622973683458
v 0.6568968749999999 -0.7473961886506852 0.573643795412651
v 0.6568968749999999 -0.793476022201318 0.5314194074366723
v 0.6568968749999999 -1.0007425165065578 0.8501227967164475
v 0.6568968749999999 -1.0468223500571905 0.8078984087404688
v 0.3443968749999999 -0.7473961886506852 0.573643795412651
v 0.3443968749999999 -0.793476022201318 0.5314194074366723
v 0.344396875 -1.0007425165065578 0.8501227967164475
v 0.344396875 -1.0468223500571907 0.8078984087404688
v 0.6568968749999999 -1.0468223500571905 0.8078984087404688
v 0.656896875 -1.1734955139851269 0.946137909392367
v 0.5943968749999999 -1.0468223500571905 0.8078984087404688
v 0.594396875 -1.1734955139851269 0.946137909392367
v 0.406896875 -1.0468223500571907 0.8078984087404688
v 0.40689687500000005 -1.1734955139851269 0.9461379093923671
v 0.344396875 -1.0468223500571907 0.8078984087404688
v 0.34439687500000005 -1.1734955139851269 0.9461379093923671
v 0.31314687500000005 -1.3692884282390123 1.0210408280802972
v 0.31314687500000005 -1.4614480953402778 0.9365920521283396
v 0.3131468750000001 -1.45373720419097 1.1132004951815626
v 0.3131468750000001 -1.5458968712922354 1.0287517192296052
v 0.06314687500000005 -1.3692884282390123 1.0210408280802972
v 0.06314687500000005 -1.461448095340278 0.9365920521283396
v 0.0631468750000001 -1.45373720419097 1.1132004951815628
v 0.0631468750000001 -1.5458968712922354 1.0287517192296052
v 0.6868531250000001 -1.3692884282390123 1.0210408280802972
v 0.6868531250000001 -1.4614480953402778 0.9365920521283396
v 0.6868531250000001 -1.4537372041909697 1.1132004951815626
v 0.6868531250000001 -1.5458968712922354 1.028751719229605
v 0.9368531250000001 -1.3692884282390123 1.021040828080297
v 0.9368531250000001 -1.4614480953402778 0.9365920521283395
v 0.9368531250000001 -1.4537372041909697 1.1132004951815626
v 0.9368531250000001 -1.5458968712922352 1.028751719229605
v 0.34439687500000016 -1.5918839481702607 1.4952404664253058
v 0.6568968750000002 -1.5918839481702607 1.4952404664253058
v 0.3443968750000002 -1.6763327241222181 1.5874001335265717
v 0.6568968750000002 -1.6763327241222181 1.5874001335265717
v 0.34439687500000016 -1.499724281068995 1.5796892423772637
v 0.6568968750000002 -1.499724281068995 1.5796892423772637
v 0.34439687500000016 -1.5419486690449737 1.6257690759278964
v 0.6568968750000002 -1.5419486690449737 1.6257690759278964
v 0.6568968750000002 -1.4152755051170376 1.4875295752759983
v 0.6568968750000002 -1.507435172218303 1.4030807993240406
v 0.6568968750000002 -1.499724281068995 1.5796892423772637
v 0.6568968750000002 -1.5918839481702607 1.4952404664253058
v 0.5943968750000002 -1.4152755051170376 1.4875295752759983
v 0.5943968750000002 -1.507435172218303 1.4030807993240406
v 0.5943968750000002 -1.499724281068995 1.5796892423772637
v 0.5943968750000002 -1.5918839481702607 1.4952404664253058
v 0.40689687500000016 -1.4152755051170376 1.4875295752759983
v 0.40689687500000016 -1.507435172218303 1.4030807993240406
v 0.40689687500000016 -1.499724281068995 1.5796892423772637
v 0.40689687500000016 -1.5918839481702607 1.4952404664253058
v 0.34439687500000016 -1.4152755051170376 1.4875295752759983
v 0.34439687500000016 -1.507435172218303 1.4030807993240406
v 0.34439687500000016 -1.499724281068995 1.5796892423772637
v 0.34439687500000016 -1.5918839481702607 1.4952404664253058
v 0.2818968750000002 -1.9528117254260147 1.334053805670699
v 0.2818968749999999 -1.0238751899544818 0.32029746755677846
v 0.3443968750000002 -1.9988915589766474 1.2918294176947203
v 0.3443968749999999 -1.0699550235051145 0.27807307958079963
v 0.2818968750000002 -1.7224125576728508 1.5451757455505928
v 0.2818968749999999 -0.7934760222013181 0.5314194074366723
v 0.3443968750000002 -1.6763327241222181 1.5874001335265717
v 0.3443968749999999 -0.7473961886506852 0.573643795412651
v 0.3443968749999999 -1.0699550235051145 0.27807307958079963
v 0.6568968749999999 -1.0699550235051145 0.27807307958079963
v 0.3443968750000002 -1.9988915589766474 1.2918294176947203
v 0.6568968750000002 -1.9988915589766474 1.2918294176947203
v 0.3443968749999999 -1.0238751899544818 0.32029746755677846
v 0.6568968749999999 -1.0238751899544818 0.32029746755677846
v 0.3443968750000002 -1.9528117254260147 1.334053805670699
v 0.6568968750000002 -1.9528117254260147 1.334053805670699
v 0.7818968749999999 -1.1812064051344349 0.769529466339144
v 0.7818968749999999 -1.138982017158456 0.7234496327885112
v 0.7818968749999999 -1.2272862386850676 0.7273050783631652
v 0.7818968749999999 -1.1850618507090889 0.6812252448125324
v 0.7193968749999999 -1.1812064051344349 0.769529466339144
v 0.7193968749999999 -1.1389820171584562 0.7234496327885113
v 0.7193968749999999 -1.2272862386850676 0.7273050783631652
v 0.7193968749999999 -1.1850618507090889 0.6812252448125324
v 0.7818968749999999 -1.0123088532305198 0.585210132136613
v 0.7818968749999999 -0.9700844652545411 0.5391302985859803
v 0.7818968749999999 -1.0583886867811525 0.5429857441606343
v 0.7818968749999999 -1.0161642988051738 0.4969059106100015
v 0.7193968749999999 -1.0123088532305198 0.585210132136613
v 0.7193968749999999 -0.9700844652545411 0.5391302985859803
v 0.7193968749999999 -1.0583886867811525 0.5429857441606343
v 0.7193968749999999 -1.0161642988051738 0.4969059106100015
v 0.969396875 -1.2195753475357596 0.9039135214163881
v 0.9693968749999999 -0.8817802437279294 0.5352748530113263
v 0.969396875 -1.3578148481876577 0.7772403574884519
v 0.9693968749999999 -1.0200197443798278 0.4086016890833899
v 0.781896875 -1.2195753475357596 0.9039135214163883
v 0.7818968749999999 -0.8817802437279294 0.5352748530113263
v 0.781896875 -1.357814848187658 0.7772403574884519
v 0.7818968749999999 -1.0200197443798278 0.4086016890833899
v 0.9381468749999999 -0.9259323544912352 0.5372025757986532
v 0.9381468749999999 -0.8837079665152565 0.4911227422480205
v 0.9381468749999999 -1.018092021592501 0.45275379984669567
v 0.9381468749999999 -0.975867633616522 0.406673966296063
v 0.8131468749999999 -0.9259323544912352 0.5372025757986532
v 0.8131468749999999 -0.8837079665152565 0.4911227422480205
v 0.8131468749999999 -1.018092021592501 0.45275379984669567
v 0.8131468749999999 -0.975867633616522 0.406673966296063
vt 0.014284 1.000000
vt 0.014284 0.656250
vt 0.000000 0.656250
vt 0.000000 1.000000
vt 0.092409 0.656250
vt 0.078125 0.656250
vt 0.078125 1.000000
vt 0.092409 1.000000
vt 0.093750 0.656250
vt 0.015625 0.656250
vt 0.015625 1.000000
vt 0.093750 1.000000
vt 0.109375 1.000000
vt 0.109375 0.656250
vt 0.000000 0.656250
vt 0.000000 1.000000
vt 0.093750 0.671875
vt 0.015625 0.671875
vt 0.000000 0.656250
vt 0.109375 0.656250
vt 0.031250 0.890625
vt 0.078125 0.890625
vt 0.078125 0.859375
vt 0.031250 0.859375
vt 0.062500 0.751341
vt 0.015625 0.751341
vt 0.015625 0.766966
vt 0.062500 0.766966
vt 0.031250 0.843750
vt 0.031250 0.859375
vt 0.078125 0.859375
vt 0.078125 0.843750
vt 0.093750 0.656250
vt 0.093750 0.859375
vt 0.015625 0.859375
vt 0.015625 0.656250
vt 0.015625 0.671875
vt 0.015625 0.875000
vt 0.093750 0.875000
vt 0.093750 0.671875
vt 0.078125 0.812500
vt 0.078125 0.859375
vt 0.093750 0.859375
vt 0.093750 0.812500
vt 0.000000 1.000000
vt 0.015625 1.000000
vt 0.015625 0.984375
vt 0.000000 0.984375
vt 0.031250 0.812500
vt 0.031250 0.859375
vt 0.015625 0.859375
vt 0.015625 0.812500
vt 0.093750 0.671875
vt 0.093750 0.656250
vt 0.015625 0.656250
vt 0.015625 0.671875
vt 0.093750 0.906250
vt 0.093750 1.000000
vt 0.015625 1.000000
vt 0.015625 0.906250
vt 0.000000 0.906250
vt 0.000000 1.000000
vt 0.078125 1.000000
vt 0.078125 0.906250
vt 0.078125 0.781250
vt 0.078125 0.828125
vt 0.093750 0.828125
vt 0.093750 0.781250
vt 0.015625 0.781250
vt 0.015625 0.828125
vt 0.031250 0.828125
vt 0.031250 0.781250
vt 0.140625 0.812500
vt 0.140625 0.781250
vt 0.109375 0.781250
vt 0.109375 0.812500
vt 0.890625 0.203125
vt 0.890625 0.234375
vt 0.828125 0.234375
vt 0.828125 0.203125
vt 0.953125 0.093750
vt 0.984375 0.093750
vt 0.984375 0.156250
vt 0.953125 0.156250
vt 0.906250 0.234375
vt 0.906250 0.203125
vt 0.843750 0.203125
vt 0.843750 0.234375
vt 0.906250 0.203125
vt 0.906250 0.234375
vt 0.843750 0.234375
vt 0.843750 0.203125
vt 0.109375 0.781250
vt 0.140625 0.781250
vt 0.140625 0.812500
vt 0.109375 0.812500
vt 0.828125 0.234375
vt 0.890625 0.234375
vt 0.890625 0.203125
vt 0.828125 0.203125
vt 0.984375 0.156250
vt 0.984375 0.093750
vt 0.953125 0.093750
vt 0.953125 0.156250
vt 0.843750 0.203125
vt 0.906250 0.203125
vt 0.906250 0.234375
vt 0.843750 0.234375
vt 0.843750 0.234375
vt 0.906250 0.234375
vt 0.906250 0.203125
vt 0.843750 0.203125
vt 0.125000 0.984375
vt 0.046875 0.984375
vt 0.046875 0.968750
vt 0.125000 0.968750
vt 0.000000 1.000000
vt 0.031250 1.000000
vt 0.031250 0.921875
vt 0.000000 0.921875
vt 0.031250 0.906250
vt 0.000000 0.906250
vt 0.000000 0.828125
vt 0.031250 0.828125
vt 0.109375 0.984375
vt 0.078125 0.984375
vt 0.078125 0.953125
vt 0.109375 0.968750
vt 0.109375 0.984375
vt 0.078125 0.984375
vt 0.078125 0.968750
vt 0.109375 0.953125
vt 0.062500 0.968750
vt 0.062500 1.000000
vt 0.031250 1.000000
vt 0.031250 0.968750
vt 0.062500 0.968750
vt 0.062500 1.000000
vt 0.031250 1.000000
vt 0.031250 0.968750
vt 0.062500 1.000000
vt 0.031250 1.000000
vt 0.031250 0.984375
vt 0.062500 0.984375
vt 0.031250 0.968750
vt 0.031250 1.000000
vt 0.015625 1.000000
vt 0.015625 0.968750
vt 0.062500 0.968750
vt 0.062500 1.000000
vt 0.031250 1.000000
vt 0.031250 0.968750
vt 0.062500 0.968750
vt 0.062500 1.000000
vt 0.031250 1.000000
vt 0.031250 0.968750
vt 0.062500 1.000000
vt 0.031250 1.000000
vt 0.031250 0.984375
vt 0.062500 0.984375
vt 0.031250 0.968750
vt 0.031250 1.000000
vt 0.015625 1.000000
vt 0.015625 0.968750
vt 0.078125 0.656250
vt 0.092409 0.656250
vt 0.092409 1.000000
vt 0.078125 1.000000
vt 0.029909 1.000000
vt 0.029909 0.656250
vt 0.015625 0.656250
vt 0.015625 1.000000
vt 0.093750 1.000000
vt 0.093750 0.656250
vt 0.015625 0.656250
vt 0.015625 1.000000
vt 0.109375 0.671875
vt 0.093750 0.656250
vt 0.015625 0.656250
vt 0.000000 0.671875
vt 0.109375 1.000000
vt 0.031250 1.000000
vt 0.031250 0.656250
vt 0.109375 0.656250
vt 0.109375 1.000000
vt 0.031250 1.000000
vt 0.031250 0.656250
vt 0.109375 0.656250
vt 0.015625 0.656250
vt 0.015625 0.671875
vt 0.093750 0.671875
vt 0.093750 0.656250
vt 0.000000 0.656250
vt 0.109375 0.656250
vt 0.109375 1.000000
vt 0.000000 1.000000
vt 0.734375 0.984375
vt 0.734375 1.000000
vt 0.718750 1.000000
vt 0.718750 0.984375
vt 0.734375 0.984375
vt 0.734375 1.000000
vt 0.718750 1.000000
vt 0.718750 0.984375
vt 0.734375 0.984375
vt 0.734375 1.000000
vt 0.718750 1.000000
vt 0.718750 0.984375
vt 0.734375 0.984375
vt 0.734375 1.000000
vt 0.718750 1.000000
vt 0.718750 0.984375
vt 0.734375 0.984375
vt 0.734375 1.000000
vt 0.718750 1.000000
vt 0.718750 0.984375
vt 0.734375 0.984375
vt 0.734375 1.000000
vt 0.718750 1.000000
vt 0.718750 0.984375
vt 0.734375 0.984375
vt 0.734375 1.000000
vt 0.718750 1.000000
vt 0.718750 0.984375
vt 0.734375 0.984375
vt 0.734375 1.000000
vt 0.718750 1.000000
vt 0.718750 0.984375
vt 0.109375 0.437500
vt 0.062500 0.437500
vt 0.062500 0.312500
vt 0.109375 0.312500
vt 0.062500 0.312500
vt 0.109375 0.312500
vt 0.109375 0.437500
vt 0.062500 0.437500
vt 0.109375 0.312500
vt 0.109375 0.437500
vt 0.062500 0.437500
vt 0.062500 0.312500
vt 0.062500 0.437500
vt 0.062500 0.312500
vt 0.109375 0.312500
vt 0.109375 0.437500
vt 0.109375 0.312500
vt 0.109375 0.359375
vt 0.062500 0.359375
vt 0.062500 0.312500
vt 0.109375 0.390625
vt 0.109375 0.437500
vt 0.062500 0.437500
vt 0.062500 0.390625
vt 0.140625 0.312500
vt 0.140625 0.343750
vt 0.125000 0.343750
vt 0.125000 0.312500
vt 0.140625 0.312500
vt 0.140625 0.343750
vt 0.125000 0.343750
vt 0.125000 0.312500
vt 0.109375 0.328125
vt 0.109375 0.343750
vt 0.140625 0.343750
vt 0.140625 0.328125
vt 0.109375 0.312500
vt 0.109375 0.328125
vt 0.140625 0.328125
vt 0.140625 0.312500
vt 0.140625 0.312500
vt 0.140625 0.343750
vt 0.109375 0.343750
vt 0.109375 0.312500
vn 0.7071067811865476 -0.5213338044735968 -0.4777144171082611
vn 0.7071067811865476 0.521333804473597 0.4777144171082609
vn 1 1.5001116074123918e-16 -1.6370845497218324e-16
vn -1 -1.5001116074123918e-16 1.6370845497218324e-16
vn -2.220446049250313e-16 0.6755902076156604 -0.7372773368101241
vn 9.930136612989092e-17 -0.9615740231833406 -0.274545802989236
vn 0 0.7372773368101241 0.6755902076156604
vn 0 0.7372773368101241 0.6755902076156604
vn 0 0.7372773368101241 0.6755902076156604
vn 0 -0.7372773368101241 -0.6755902076156604
vn 0 0.7372773368101241 0.6755902076156604
vn -2.220446049250313e-16 0.6755902076156604 -0.7372773368101241
vn 0 0.7372773368101241 0.6755902076156604
vn -2.220446049250313e-16 0.6755902076156604 -0.7372773368101241
vn 0 0.7372773368101241 0.6755902076156604
vn 0 -0.7372773368101241 -0.6755902076156604
vn 0 -0.7372773368101241 -0.6755902076156604
vn 0 -0.7372773368101241 -0.6755902076156604
vn -1 -1.5001116074123918e-16 1.6370845497218324e-16
vn -2.220446049250313e-16 0.6755902076156604 -0.7372773368101241
vn 2.220446049250313e-16 -0.6755902076156604 0.7372773368101241
vn 0 0.7372773368101241 0.6755902076156604
vn 0 -0.7372773368101241 -0.6755902076156604
vn 1 1.5001116074123918e-16 -1.6370845497218324e-16
vn -2.220446049250313e-16 0.6755902076156604 -0.7372773368101241
vn 2.220446049250313e-16 -0.6755902076156604 0.7372773368101241
vn 0 0.7372773368101241 0.6755902076156604
vn 0 -0.7372773368101241 -0.6755902076156604
vn 0 0.7372773368101241 0.6755902076156604
vn -2.220446049250313e-16 0.6755902076156604 -0.7372773368101241
vn 1.9860273225978183e-16 -0.274545802989236 0.9615740231833406
vn -1 -1.5001116074123918e-16 1.6370845497218324e-16
vn 1 1.5001116074123918e-16 -1.6370845497218324e-16
vn 1 1.5001116074123918e-16 -1.6370845497218324e-16
vn -1 -1.5001116074123918e-16 1.6370845497218324e-16
vn -2.220446049250313e-16 0.6755902076156604 -0.7372773368101241
vn 0 0.7372773368101241 0.6755902076156604
vn 1 1.5001116074123918e-16 -1.6370845497218324e-16
vn -1 -1.5001116074123918e-16 1.6370845497218324e-16
vn -2.220446049250313e-16 0.6755902076156604 -0.7372773368101241
vn 0 0.7372773368101241 0.6755902076156604
vn -0.7071067811865476 -0.521333804473597 -0.4777144171082609
vn -0.7071067811865476 0.5213338044735968 0.4777144171082611
vn -1 -1.5001116074123918e-16 1.6370845497218324e-16
vn -2.220446049250313e-16 0.6755902076156604 -0.7372773368101241
vn 0 -0.7372773368101241 -0.6755902076156604
vn 0 0.7372773368101241 0.6755902076156604
vn -2.220446049250313e-16 0.6755902076156604 -0.7372773368101241
vn 1 1.5001116074123918e-16 -1.6370845497218324e-16
vn 0 0.7372773368101241 0.6755902076156604
vn 0 -0.7372773368101241 -0.6755902076156604
vn 2.220446049250313e-16 -0.6755902076156604 0.7372773368101241
vn -2.220446049250313e-16 0.6755902076156604 -0.7372773368101241
vn 0 0.7372773368101241 0.6755902076156604
vn 0 -0.7372773368101241 -0.6755902076156604
vn 2.220446049250313e-16 -0.6755902076156604 0.7372773368101241
vn -2.220446049250313e-16 0.6755902076156604 -0.7372773368101241
vn 1 1.5001116074123918e-16 -1.6370845497218324e-16
vn -1 -1.5001116074123918e-16 1.6370845497218324e-16
vn 0 0.7372773368101241 0.6755902076156604
vn 0 -0.7372773368101241 -0.6755902076156604
vn 2.220446049250313e-16 -0.6755902076156604 0.7372773368101241
vn -2.220446049250313e-16 0.6755902076156604 -0.7372773368101241
vn 1 1.5001116074123918e-16 -1.6370845497218324e-16
vn -1 -1.5001116074123918e-16 1.6370845497218324e-16
vn 0 0.7372773368101241 0.6755902076156604
vn 0 -0.7372773368101241 -0.6755902076156604
vn -2.220446049250313e-16 0.6755902076156604 -0.7372773368101241
usemtl weapon_mortar
f 396/949/238 395/950/238 397/951/238
f 396/949/238 397/951/238 398/952/238
f 401/953/239 399/954/239 400/955/239
f 401/953/239 400/955/239 402/956/239
f 399/957/240 395/958/240 396/959/240
f 399/957/240 396/959/240 400/960/240
f 398/961/241 397/962/241 401/963/241
f 398/961/241 401/963/241 402/964/241
f 400/965/242 396/966/242 398/967/242
f 400/965/242 398/967/242 402/968/242
f 403/969/243 404/970/243 406/971/243
f 403/969/243 406/971/243 405/972/243
f 408/973/244 407/974/244 409/975/244
f 408/973/244 409/975/244 410/976/244
f 409/977/245 405/978/245 406/979/245
f 409/977/245 406/979/245 410/980/245
f 413/981/246 411/982/246 415/983/246
f 413/981/246 415/983/246 417/984/246
f 418/985/247 416/986/247 412/987/247
f 418/985/247 412/987/247 414/988/247
f 420/989/248 419/990/248 421/991/248
f 420/989/248 421/991/248 422/992/248
f 423/993/249 424/994/249 427/995/249
f 423/993/249 427/995/249 426/996/249
f 425/997/250 423/998/250 426/999/250
f 425/997/250 426/999/250 428/1000/250
f 429/1001/251 430/1002/251 434/1003/251
f 429/1001/251 434/1003/251 433/1004/251
f 431/1005/252 429/1006/252 433/1007/252
f 431/1005/252 433/1007/252 435/1008/252
f 436/1009/253 434/1010/253 430/1011/253
f 436/1009/253 430/1011/253 432/1012/253
f 440/1013/254 439/1014/254 437/1015/254
f 440/1013/254 437/1015/254 438/1016/254
f 444/1017/255 443/1018/255 441/1019/255
f 444/1017/255 441/1019/255 442/1020/255
f 451/1021/256 449/1022/256 450/1023/256
f 451/1021/256 450/1023/256 452/1024/256
usemtl common_steel_norivets
f 445/1025/257 446/1026/257 450/1027/257
f 445/1025/257 450/1027/257 449/1028/257
f 448/1029/258 447/1030/258 451/1031/258
f 448/1029/258 451/1031/258 452/1032/258
f 447/1033/259 445/1034/259 449/1035/259
f 447/1033/259 449/1035/259 451/1036/259
f 452/1037/260 450/1038/260 446/1039/260
f 452/1037/260 446/1039/260 448/1040/260
usemtl weapon_mortar
f 458/1041/261 457/1042/261 459/1043/261
f 458/1041/261 459/1043/261 460/1044/261
usemtl common_steel_norivets
f 458/1045/262 454/1046/262 453/1047/262
f 458/1045/262 453/1047/262 457/1048/262
f 459/1049/263 455/1050/263 456/1051/263
f 459/1049/263 456/1051/263 460/1052/263
f 457/1053/264 453/1054/264 455/1055/264
f 457/1053/264 455/1055/264 459/1056/264
f 454/1057/265 458/1058/265 460/1059/265
f 454/1057/265 460/1059/265 456/1060/265
f 466/1061/266 465/1062/266 467/1063/266
f 466/1061/266 467/1063/266 468/1064/266
f 466/1065/267 462/1066/267 461/1067/267
f 466/1065/267 461/1067/267 465/1068/267
f 467/1069/268 463/1070/268 464/1071/268
f 467/1069/268 464/1071/268 468/1072/268
f 465/1073/269 461/1074/269 463/1075/269
f 465/1073/269 463/1075/269 467/1076/269
f 462/1077/270 466/1078/270 468/1079/270
f 462/1077/270 468/1079/270 464/1080/270
f 472/1081/271 470/1082/271 469/1083/271
f 472/1081/271 469/1083/271 471/1084/271
f 475/1085/272 473/1086/272 474/1087/272
f 475/1085/272 474/1087/272 476/1088/272
f 469/1089/273 470/1090/273 474/1091/273
f 469/1089/273 474/1091/273 473/1092/273
f 471/1093/274 469/1094/274 473/1095/274
f 471/1093/274 473/1095/274 475/1096/274
f 480/1097/275 478/1098/275 477/1099/275
f 480/1097/275 477/1099/275 479/1100/275
f 483/1101/276 481/1102/276 482/1103/276
f 483/1101/276 482/1103/276 484/1104/276
f 477/1105/277 478/1106/277 482/1107/277
f 477/1105/277 482/1107/277 481/1108/277
f 479/1109/278 477/1110/278 481/1111/278
f 479/1109/278 481/1111/278 483/1112/278
usemtl weapon_mortar
f 487/1113/279 485/1114/279 486/1115/279
f 487/1113/279 486/1115/279 488/1116/279
f 490/1117/280 489/1118/280 491/1119/280
f 490/1117/280 491/1119/280 492/1120/280
f 486/1121/281 485/1122/281 489/1123/281
f 486/1121/281 489/1123/281 490/1124/281
f 488/1125/282 486/1126/282 490/1127/282
f 488/1125/282 490/1127/282 492/1128/282
f 493/1129/283 494/1130/283 496/1131/283
f 493/1129/283 496/1131/283 495/1132/283
f 498/1133/284 497/1134/284 499/1135/284
f 498/1133/284 499/1135/284 500/1136/284
f 498/1137/285 494/1138/285 493/1139/285
f 498/1137/285 493/1139/285 497/1140/285
f 491/1141/286 487/1142/286 488/1143/286
f 491/1141/286 488/1143/286 492/1144/286
f 501/1145/287 502/1146/287 506/1147/287
f 501/1145/287 506/1147/287 505/1148/287
f 504/1149/288 503/1150/288 507/1151/288
f 504/1149/288 507/1151/288 508/1152/288
f 503/1153/289 501/1154/289 505/1155/289
f 503/1153/289 505/1155/289 507/1156/289
f 508/1157/290 506/1158/290 502/1159/290
f 508/1157/290 502/1159/290 504/1160/290
f 509/1161/291 510/1162/291 514/1163/291
f 509/1161/291 514/1163/291 513/1164/291
f 512/1165/292 511/1166/292 515/1167/292
f 512/1165/292 515/1167/292 516/1168/292
f 511/1169/293 509/1170/293 513/1171/293
f 511/1169/293 513/1171/293 515/1172/293
f 516/1173/294 514/1174/294 510/1175/294
f 516/1173/294 510/1175/294 512/1176/294
f 520/1177/295 518/1178/295 517/1179/295
f 520/1177/295 517/1179/295 519/1180/295
f 523/1181/296 521/1182/296 522/1183/296
f 523/1181/296 522/1183/296 524/1184/296
f 517/1185/297 518/1186/297 522/1187/297
f 517/1185/297 522/1187/297 521/1188/297
f 520/1189/298 519/1190/298 523/1191/298
f 520/1189/298 523/1191/298 524/1192/298
f 519/1193/299 517/1194/299 521/1195/299
f 519/1193/299 521/1195/299 523/1196/299
f 524/1197/300 522/1198/300 518/1199/300
f 524/1197/300 518/1199/300 520/1200/300
f 528/1201/301 526/1202/301 525/1203/301
f 528/1201/301 525/1203/301 527/1204/301
f 531/1205/302 529/1206/302 530/1207/302
f 531/1205/302 530/1207/302 532/1208/302
f 525/1209/303 526/1210/303 530/1211/303
f 525/1209/303 530/1211/303 529/1212/303
f 528/1213/304 527/1214/304 531/1215/304
f 528/1213/304 531/1215/304 532/1216/304
f 532/1217/305 530/1218/305 526/1219/305
f 532/1217/305 526/1219/305 528/1220/305
o Trigger_level
v 0.40689687500000005 -1.039111458907883 0.9845068517936919
v 0.594396875 -1.039111458907883 0.9845068517936919
v 0.40689687500000005 -1.0813358468838616 1.0305866853443246
v 0.594396875 -1.0813358468838616 1.0305866853443246
v 0.46939687500000005 -0.9930316253572502 1.0267312397696706
v 0.531896875 -0.9930316253572502 1.0267312397696706
v 0.46939687500000005 -1.035256013333229 1.0728110733203033
v 0.531896875 -1.035256013333229 1.0728110733203033
v 0.594396875 -1.039111458907883 0.9845068517936919
v 0.594396875 -1.177350959559781 0.8578336878657555
v 0.594396875 -1.0813358468838616 1.0305866853443246
v 0.594396875 -1.21957534753576 0.9039135214163883
v 0.40689687500000005 -1.039111458907883 0.9845068517936919
v 0.40689687500000005 -1.177350959559781 0.8578336878657555
v 0.40689687500000005 -1.0813358468838616 1.0305866853443246
v 0.40689687500000005 -1.21957534753576 0.9039135214163883
v 0.531896875 -1.0371837361205558 1.0286589625569977
v 0.531896875 -1.0832635696711888 0.9864345745810188
v 0.531896875 -1.4594276158803436 1.4894572980633252
v 0.531896875 -1.5055074494309764 1.4472329100873464
v 0.46939687500000005 -1.0371837361205558 1.0286589625569977
v 0.46939687500000005 -1.0832635696711888 0.9864345745810188
v 0.46939687500000005 -1.4594276158803436 1.4894572980633252
v 0.46939687500000005 -1.5055074494309764 1.4472329100873464
v 0.719396875 -1.4594276158803436 1.4894572980633252
v 0.719396875 -1.5055074494309764 1.4472329100873464
v 0.719396875 -1.5016520038563224 1.5355371316139579
v 0.719396875 -1.547731837406955 1.4933127436379792
v 0.28189687500000005 -1.4594276158803436 1.4894572980633252
v 0.28189687500000005 -1.5055074494309764 1.4472329100873464
v 0.28189687500000005 -1.5016520038563224 1.5355371316139579
v 0.28189687500000005 -1.547731837406955 1.4933127436379792
vt 0.000000 1.000000
vt 0.046875 1.000000
vt 0.046875 0.984375
vt 0.000000 0.984375
vt 0.000000 1.000000
vt 0.015625 1.000000
vt 0.015625 0.953125
vt 0.000000 0.953125
vt 0.000000 1.000000
vt 0.015625 1.000000
vt 0.015625 0.953125
vt 0.000000 0.953125
vt 0.000000 1.000000
vt 0.015625 1.000000
vt 0.015625 0.984375
vt 0.000000 0.984375
vt 0.000000 1.000000
vt 0.015625 1.000000
vt 0.015625 0.984375
vt 0.000000 0.984375
vt 0.093750 0.968750
vt 0.093750 0.984375
vt 0.046875 0.984375
vt 0.046875 0.968750
vt 0.093750 0.968750
vt 0.093750 0.984375
vt 0.046875 0.984375
vt 0.046875 0.968750
vt 0.000000 0.921875
vt 0.046875 0.921875
vt 0.046875 0.875000
vt 0.000000 0.875000
vt 0.046875 0.875000
vt 0.000000 0.875000
vt 0.000000 0.921875
vt 0.046875 0.921875
vt 0.093750 0.984375
vt 0.093750 1.000000
vt 0.046875 1.000000
vt 0.046875 0.984375
vt 0.812500 0.046875
vt 0.812500 0.203125
vt 0.796875 0.203125
vt 0.796875 0.046875
vt 0.812500 0.046875
vt 0.812500 0.203125
vt 0.796875 0.203125
vt 0.796875 0.046875
vt 0.812500 0.046875
vt 0.812500 0.203125
vt 0.796875 0.203125
vt 0.796875 0.046875
vt 0.812500 0.046875
vt 0.812500 0.203125
vt 0.796875 0.203125
vt 0.796875 0.046875
vt 0.843750 0.109375
vt 0.843750 0.125000
vt 0.828125 0.125000
vt 0.828125 0.109375
vt 0.843750 0.109375
vt 0.843750 0.125000
vt 0.828125 0.125000
vt 0.828125 0.109375
vt 0.937500 0.109375
vt 0.937500 0.125000
vt 0.828125 0.125000
vt 0.828125 0.109375
vt 0.937500 0.109375
vt 0.937500 0.125000
vt 0.828125 0.125000
vt 0.828125 0.109375
vt 0.937500 0.109375
vt 0.937500 0.125000
vt 0.828125 0.125000
vt 0.828125 0.109375
vt 0.937500 0.109375
vt 0.937500 0.125000
vt 0.828125 0.125000
vt 0.828125 0.109375
vn 0 0.7372773368101241 0.6755902076156604
vn 0 0.6755902076156604 -0.7372773368101241
vn 0 -0.6755902076156604 0.7372773368101241
vn -0.7071067811865476 0.521333804473597 0.477714417108261
vn 0.7071067811865476 0.521333804473597 0.477714417108261
vn 1 0 0
vn -1 0 0
vn 0 0.6755902076156604 -0.7372773368101241
vn 0 -0.6755902076156604 0.7372773368101241
vn 0 -0.7372773368101241 -0.6755902076156604
vn 1 0 0
vn -1 0 0
vn 0 0.7372773368101241 0.6755902076156604
vn 0 -0.7372773368101241 -0.6755902076156604
vn 1 0 0
vn -1 0 0
vn 0 0.6755902076156604 -0.7372773368101241
vn 0 -0.6755902076156604 0.7372773368101241
vn 0 0.7372773368101241 0.6755902076156604
vn 0 -0.7372773368101241 -0.6755902076156604
usemtl common_steel_norivets
f 538/1221/306 537/1222/306 539/1223/306
f 538/1221/306 539/1223/306 540/1224/306
f 538/1225/307 534/1226/307 533/1227/307
f 538/1225/307 533/1227/307 537/1228/307
f 539/1229/308 535/1230/308 536/1231/308
f 539/1229/308 536/1231/308 540/1232/308
f 537/1233/309 533/1234/309 535/1235/309
f 537/1233/309 535/1235/309 539/1236/309
f 534/1237/310 538/1238/310 540/1239/310
f 534/1237/310 540/1239/310 536/1240/310
f 544/1241/311 542/1242/311 541/1243/311
f 544/1241/311 541/1243/311 543/1244/311
f 547/1245/312 545/1246/312 546/1247/312
f 547/1245/312 546/1247/312 548/1248/312
f 541/1249/313 542/1250/313 546/1251/313
f 541/1249/313 546/1251/313 545/1252/313
f 544/1253/314 543/1254/314 547/1255/314
f 544/1253/314 547/1255/314 548/1256/314
f 548/1257/315 546/1258/315 542/1259/315
f 548/1257/315 542/1259/315 544/1260/315
f 552/1261/316 550/1262/316 549/1263/316
f 552/1261/316 549/1263/316 551/1264/316
f 555/1265/317 553/1266/317 554/1267/317
f 555/1265/317 554/1267/317 556/1268/317
f 551/1269/318 549/1270/318 553/1271/318
f 551/1269/318 553/1271/318 555/1272/318
f 556/1273/319 554/1274/319 550/1275/319
f 556/1273/319 550/1275/319 552/1276/319
f 560/1277/320 558/1278/320 557/1279/320
f 560/1277/320 557/1279/320 559/1280/320
f 563/1281/321 561/1282/321 562/1283/321
f 563/1281/321 562/1283/321 564/1284/321
f 557/1285/322 558/1286/322 562/1287/322
f 557/1285/322 562/1287/322 561/1288/322
f 560/1289/323 559/1290/323 563/1291/323
f 560/1289/323 563/1291/323 564/1292/323
f 559/1293/324 557/1294/324 561/1295/324
f 559/1293/324 561/1295/324 563/1296/324
f 564/1297/325 562/1298/325 558/1299/325
f 564/1297/325 558/1299/325 560/1300/325
o piston
v 0.5625 -3.875 1
v 0.5625 -3.875 0.875
v 0.5625 -4.875 1
v 0.5625 -4.875 0.875
v 0.4375 -3.875 1
v 0.4375 -3.875 0.875
v 0.4375 -4.875 1
v 0.4375 -4.875 0.875
v 0.625 -3.8125 1.0625
v 0.625 -3.8125 0.8125
v 0.625 -3.875 1.0625
v 0.625 -3.875 0.8125
v 0.375 -3.8125 1.0625
v 0.375 -3.8125 0.8125
v 0.375 -3.875 1.0625
v 0.375 -3.875 0.8125
vt 0.031250 0.546875
vt 0.031250 0.796875
vt 0.000000 0.796875
vt 0.000000 0.546875
vt 0.031250 0.546875
vt 0.031250 0.796875
vt 0.000000 0.796875
vt 0.000000 0.546875
vt 0.000000 0.546875
vt 0.000000 0.796875
vt 0.031250 0.796875
vt 0.031250 0.546875
vt 0.000000 0.546875
vt 0.000000 0.796875
vt 0.031250 0.796875
vt 0.031250 0.546875
vt 0.187500 0.656250
vt 0.187500 0.671875
vt 0.125000 0.671875
vt 0.125000 0.656250
vt 0.187500 0.656250
vt 0.187500 0.671875
vt 0.125000 0.671875
vt 0.125000 0.656250
vt 0.187500 0.609375
vt 0.187500 0.671875
vt 0.125000 0.671875
vt 0.125000 0.609375
vt 0.187500 0.609375
vt 0.187500 0.671875
vt 0.125000 0.671875
vt 0.125000 0.609375
vt 0.187500 0.656250
vt 0.187500 0.671875
vt 0.125000 0.671875
vt 0.125000 0.656250
vt 0.187500 0.656250
vt 0.187500 0.671875
vt 0.125000 0.671875
vt 0.125000 0.656250
vn 1 0 0
vn -1 0 0
vn 0 0 1
vn 0 0 -1
vn 1 0 0
vn -1 0 0
vn 0 1 0
vn 0 -1 0
vn 0 0 1
vn 0 0 -1
usemtl common_rough_steel
f 568/1301/326 566/1302/326 565/1303/326
f 568/1301/326 565/1303/326 567/1304/326
f 571/1305/327 569/1306/327 570/1307/327
f 571/1305/327 570/1307/327 572/1308/327
f 567/1309/328 565/1310/328 569/1311/328
f 567/1309/328 569/1311/328 571/1312/328
f 572/1313/329 570/1314/329 566/1315/329
f 572/1313/329 566/1315/329 568/1316/329
usemtl weapon_mortar
f 576/1317/330 574/1318/330 573/1319/330
f 576/1317/330 573/1319/330 575/1320/330
f 579/1321/331 577/1322/331 578/1323/331
f 579/1321/331 578/1323/331 580/1324/331
f 573/1325/332 574/1326/332 578/1327/332
f 573/1325/332 578/1327/332 577/1328/332
f 576/1329/333 575/1330/333 579/1331/333
f 576/1329/333 579/1331/333 580/1332/333
f 575/1333/334 573/1334/334 577/1335/334
f 575/1333/334 577/1335/334 579/1336/334
f 580/1337/335 578/1338/335 574/1339/335
f 580/1337/335 574/1339/335 576/1340/335
o main
v -0.1875 -2.8125 1.25
v -0.1875 -2.8125 1.125
v -0.1875 -3.8125 1.25
v -0.1875 -3.8125 1.125
v -0.3125 -2.8125 1.25
v -0.3125 -2.8125 1.125
v -0.3125 -3.8125 1.25
v -0.3125 -3.8125 1.125
v 1.3125 -2.8125 1.25
v 1.3125 -2.8125 1.125
v 1.3125 -3.8125 1.25
v 1.3125 -3.8125 1.125
v 1.1875 -2.8125 1.25
v 1.1875 -2.8125 1.125
v 1.1875 -3.8125 1.25
v 1.1875 -3.8125 1.125
v 0.5625 -2.8125 1.25
v 0.5625 -2.8125 1.125
v 0.5625 -3.8125 1.25
v 0.5625 -3.8125 1.125
v 0.4375 -2.8125 1.25
v 0.4375 -2.8125 1.125
v 0.4375 -3.8125 1.25
v 0.4375 -3.8125 1.125
v 1.3125 -3.8125 1.25
v 1.3125 -3.8125 0.6875
v 1.3125 -3.875 1.25
v 1.3125 -3.875 0.6875
v -0.3125 -3.8125 1.25
v -0.3125 -3.8125 0.6875
v -0.3125 -3.875 1.25
v -0.3125 -3.875 0.6875
v 1.3125 -2.8125 0.8125
v 1.3125 -2.8125 0.6875
v 1.3125 -3.8125 0.8125
v 1.3125 -3.8125 0.6875
v 1.1875 -2.8125 0.8125
v 1.1875 -2.8125 0.6875
v 1.1875 -3.8125 0.8125
v 1.1875 -3.8125 0.6875
v 0.5625 -2.8125 0.8125
v 0.5625 -2.8125 0.6875
v 0.5625 -3.8125 0.8125
v 0.5625 -3.8125 0.6875
v 0.4375 -2.8125 0.8125
v 0.4375 -2.8125 0.6875
v 0.4375 -3.8125 0.8125
v 0.4375 -3.8125 0.6875
v -0.1875 -2.8125 0.8125
v -0.1875 -2.8125 0.6875
v -0.1875 -3.8125 0.8125
v -0.1875 -3.8125 0.6875
v -0.3125 -2.8125 0.8125
v -0.3125 -2.8125 0.6875
v -0.3125 -3.8125 0.8125
v -0.3125 -3.8125 0.6875
vt 0.031250 0.609375
vt 0.031250 0.859375
vt 0.000000 0.859375
vt 0.000000 0.609375
vt 0.031250 0.609375
vt 0.031250 0.859375
vt 0.000000 0.859375
vt 0.000000 0.609375
vt 0.000000 0.609375
vt 0.000000 0.859375
vt 0.031250 0.859375
vt 0.031250 0.609375
vt 0.000000 0.609375
vt 0.000000 0.859375
vt 0.031250 0.859375
vt 0.031250 0.609375
vt 0.031250 0.609375
vt 0.031250 0.859375
vt 0.000000 0.859375
vt 0.000000 0.609375
vt 0.031250 0.609375
vt 0.031250 0.859375
vt 0.000000 0.859375
vt 0.000000 0.609375
vt 0.000000 0.609375
vt 0.000000 0.859375
vt 0.031250 0.859375
vt 0.031250 0.609375
vt 0.000000 0.609375
vt 0.000000 0.859375
vt 0.031250 0.859375
vt 0.031250 0.609375
vt 0.031250 0.609375
vt 0.031250 0.859375
vt 0.000000 0.859375
vt 0.000000 0.609375
vt 0.031250 0.609375
vt 0.031250 0.859375
vt 0.000000 0.859375
vt 0.000000 0.609375
vt 0.000000 0.609375
vt 0.000000 0.859375
vt 0.031250 0.859375
vt 0.031250 0.609375
vt 0.000000 0.609375
vt 0.000000 0.859375
vt 0.031250 0.859375
vt 0.031250 0.609375
vt 0.734375 0.984375
vt 0.734375 1.000000
vt 0.593750 1.000000
vt 0.593750 0.984375
vt 0.734375 0.984375
vt 0.734375 1.000000
vt 0.593750 1.000000
vt 0.593750 0.984375
vt 0.734375 1.000000
vt 0.593750 1.000000
vt 0.593750 0.593750
vt 0.734375 0.593750
vt 0.734375 1.000000
vt 0.593750 1.000000
vt 0.593750 0.593750
vt 0.734375 0.593750
vt 0.734375 1.000000
vt 0.718750 1.000000
vt 0.718750 0.593750
vt 0.734375 0.593750
vt 0.734375 1.000000
vt 0.718750 1.000000
vt 0.718750 0.593750
vt 0.734375 0.593750
vt 0.031250 0.609375
vt 0.031250 0.859375
vt 0.000000 0.859375
vt 0.000000 0.609375
vt 0.031250 0.609375
vt 0.031250 0.859375
vt 0.000000 0.859375
vt 0.000000 0.609375
vt 0.000000 0.609375
vt 0.000000 0.859375
vt 0.031250 0.859375
vt 0.031250 0.609375
vt 0.000000 0.609375
vt 0.000000 0.859375
vt 0.031250 0.859375
vt 0.031250 0.609375
vt 0.031250 0.609375
vt 0.031250 0.859375
vt 0.000000 0.859375
vt 0.000000 0.609375
vt 0.031250 0.609375
vt 0.031250 0.859375
vt 0.000000 0.859375
vt 0.000000 0.609375
vt 0.000000 0.609375
vt 0.000000 0.859375
vt 0.031250 0.859375
vt 0.031250 0.609375
vt 0.000000 0.609375
vt 0.000000 0.859375
vt 0.031250 0.859375
vt 0.031250 0.609375
vt 0.031250 0.609375
vt 0.031250 0.859375
vt 0.000000 0.859375
vt 0.000000 0.609375
vt 0.031250 0.609375
vt 0.031250 0.859375
vt 0.000000 0.859375
vt 0.000000 0.609375
vt 0.000000 0.609375
vt 0.000000 0.859375
vt 0.031250 0.859375
vt 0.031250 0.609375
vt 0.000000 0.609375
vt 0.000000 0.859375
vt 0.031250 0.859375
vt 0.031250 0.609375
vn 1 0 0
vn -1 0 0
vn 0 0 1
vn 0 0 -1
vn 1 0 0
vn -1 0 0
vn 0 0 1
vn 0 0 -1
vn 1 0 0
vn -1 0 0
vn 0 0 1
vn 0 0 -1
vn 1 0 0
vn -1 0 0
vn 0 1 0
vn 0 -1 0
vn 0 0 1
vn 0 0 -1
vn 1 0 0
vn -1 0 0
vn 0 0 1
vn 0 0 -1
vn 1 0 0
vn -1 0 0
vn 0 0 1
vn 0 0 -1
vn 1 0 0
vn -1 0 0
vn 0 0 1
vn 0 0 -1
usemtl common_steel
f 584/1341/336 582/1342/336 581/1343/336
f 584/1341/336 581/1343/336 583/1344/336
f 587/1345/337 585/1346/337 586/1347/337
f 587/1345/337 586/1347/337 588/1348/337
f 583/1349/338 581/1350/338 585/1351/338
f 583/1349/338 585/1351/338 587/1352/338
f 588/1353/339 586/1354/339 582/1355/339
f 588/1353/339 582/1355/339 584/1356/339
f 592/1357/340 590/1358/340 589/1359/340
f 592/1357/340 589/1359/340 591/1360/340
f 595/1361/341 593/1362/341 594/1363/341
f 595/1361/341 594/1363/341 596/1364/341
f 591/1365/342 589/1366/342 593/1367/342
f 591/1365/342 593/1367/342 595/1368/342
f 596/1369/343 594/1370/343 590/1371/343
f 596/1369/343 590/1371/343 592/1372/343
f 600/1373/344 598/1374/344 597/1375/344
f 600/1373/344 597/1375/344 599/1376/344
f 603/1377/345 601/1378/345 602/1379/345
f 603/1377/345 602/1379/345 604/1380/345
f 599/1381/346 597/1382/346 601/1383/346
f 599/1381/346 601/1383/346 603/1384/346
f 604/1385/347 602/1386/347 598/1387/347
f 604/1385/347 598/1387/347 600/1388/347
usemtl weapon_mortar
f 608/1389/348 606/1390/348 605/1391/348
f 608/1389/348 605/1391/348 607/1392/348
f 611/1393/349 609/1394/349 610/1395/349
f 611/1393/349 610/1395/349 612/1396/349
f 605/1397/350 606/1398/350 610/1399/350
f 605/1397/350 610/1399/350 609/1400/350
f 608/1401/351 607/1402/351 611/1403/351
f 608/1401/351 611/1403/351 612/1404/351
f 607/1405/352 605/1406/352 609/1407/352
f 607/1405/352 609/1407/352 611/1408/352
f 612/1409/353 610/1410/353 606/1411/353
f 612/1409/353 606/1411/353 608/1412/353
usemtl common_steel
f 616/1413/354 614/1414/354 613/1415/354
f 616/1413/354 613/1415/354 615/1416/354
f 619/1417/355 617/1418/355 618/1419/355
f 619/1417/355 618/1419/355 620/1420/355
f 615/1421/356 613/1422/356 617/1423/356
f 615/1421/356 617/1423/356 619/1424/356
f 620/1425/357 618/1426/357 614/1427/357
f 620/1425/357 614/1427/357 616/1428/357
f 624/1429/358 622/1430/358 621/1431/358
f 624/1429/358 621/1431/358 623/1432/358
f 627/1433/359 625/1434/359 626/1435/359
f 627/1433/359 626/1435/359 628/1436/359
f 623/1437/360 621/1438/360 625/1439/360
f 623/1437/360 625/1439/360 627/1440/360
f 628/1441/361 626/1442/361 622/1443/361
f 628/1441/361 622/1443/361 624/1444/361
f 632/1445/362 630/1446/362 629/1447/362
f 632/1445/362 629/1447/362 631/1448/362
f 635/1449/363 633/1450/363 634/1451/363
f 635/1449/363 634/1451/363 636/1452/363
f 631/1453/364 629/1454/364 633/1455/364
f 631/1453/364 633/1455/364 635/1456/364
f 636/1457/365 634/1458/365 630/1459/365
f 636/1457/365 630/1459/365 632/1460/365