# Made by Pabilo8 with Blockbench
# Exported with IIToolkit Plugin on 20/08/2026
mtllib mortar.mtl

o base
v 1.625 -2.75 0.375
v 1.625 -3.1875 0.375
v -0.625 -2.75 2.625
v -0.625 -2.75 0.375
v -0.625 -3.1875 2.625
v -0.625 -3.1875 0.375
v -0.625 -2.75 1.5
v -0.625 -3.1875 1.5
v 0.5 -2.75 1.5
v 0.5 -2.75 2.625
v 0.5 -3.1875 2.625
v 0.5 -3.1875 1.5
v 0.5 -3.1875 0.375
v 0.5 -2.75 0.375
v 0.5 -3 2.625
v -0.625 -3 2.625
v -0.625 -3 1.5
v -0.625 -3 0.375
v 0.5 -3 0.375
v 1.625 -3 0.375
v 0.5 -2.75 2.0625
v -0.625 -2.75 2.0625
v -0.625 -3 2.0625
v -0.625 -3.1875 2.0625
v 0.5 -3.1875 2.0625
v 0.5 -2.75 2.5625
v -0.625 -2.75 2.5625
v -0.625 -3 2.5625
v -0.625 -3.1875 2.5625
v 0.5 -3.1875 2.5625
v 1.625 -2.8125 0.375
v 0.5 -2.8125 0.375
v -0.625 -2.8125 0.375
v -0.625 -2.8125 1.5
v -0.625 -2.8125 2.0625
v -0.625 -2.8125 2.5625
v -0.625 -2.8125 2.625
v 0.5 -2.8125 2.625
v 1.625 -3.125 0.375
v 0.5 -3.125 0.375
v -0.625 -3.125 0.375
v -0.625 -3.125 1.5
v -0.625 -3.125 2.0625
v -0.625 -3.125 2.5625
v -0.625 -3.125 2.625
v 0.5 -3.125 2.625
v 1.625 -3 2.5625
v 1.625 -2.8125 2.5625
v 1.625 -2.8125 2.0625
v 1.625 -3 2.0625
v 1.625 -2.8125 1.5
v 1.625 -3 1.5
v 1.625 -3.125 1.5
v 1.625 -3.125 2.0625
v 1.625 -3.1875 2.0625
v 1.625 -3.1875 1.5
v 1.625 -3.1875 2.5625
v 1.625 -3.125 2.5625
v 1.625 -3.125 2.625
v 1.625 -3 2.625
v 1.625 -2.8125 2.625
v 1.625 -2.75 2.5625
v 1.625 -2.75 2.625
v 1.625 -2.75 2.0625
v 1.625 -3.1875 2.625
v 1.625 -2.75 1.5
vt 0.5 0.1875
vt 0.5 0.2344
vt 0.2188 0.2344
vt 0.2188 0.1875
vt 0.2813 0.1875
vt 0.2813 0.2344
vt 0 0.2344
vt 0 0.1875
vt 0 0.75
vt 0.25 0.75
vt 0.25 1
vt 0 1
vt 0 0.25
vt 0.25 0.25
vt 0.25 0.5
vt 0 0.5
vt 0.2813 0.1875
vt 0.2813 0.2344
vt 0 0.2344
vt 0 0.1875
vt 0.5 0.1875
vt 0.5 0.2344
vt 0.2188 0.2344
vt 0.2188 0.1875
vt 0 0.5
vt 0 0.375
vt 0.25 0.375
vt 0.25 0.5
vt 0.3594 0.1875
vt 0.3594 0.2344
vt 0.2188 0.2344
vt 0.2188 0.1875
vt 0.25 0.75
vt 0.25 0.875
vt 0 0.875
vt 0 0.75
vt 0.5 0.5
vt 0.5 0.375
vt 0.75 0.375
vt 0.75 0.5
vt 0.5 0.1875
vt 0.5 0.2344
vt 0.2188 0.2344
vt 0.2188 0.1875
vt 0.75 0.75
vt 0.75 0.875
vt 0.5 0.875
vt 0.5 0.75
vt 0.75 0.5
vt 0.5 0.5
vt 0.5 0.25
vt 0.75 0.25
vt 0.2813 0.1875
vt 0.2813 0.2344
vt 0 0.2344
vt 0 0.1875
vt 0.75 1
vt 0.5 1
vt 0.5 0.75
vt 0.75 0.75
vt 0.2813 0
vt 0.2813 0.0156
vt 0 0.0156
vt 0 0
vt 0.3594 0
vt 0.3594 0.0156
vt 0.2188 0.0156
vt 0.2188 0
vt 0.2813 0
vt 0.2813 0.0156
vt 0 0.0156
vt 0 0
vt 0.5 0
vt 0.5 0.0156
vt 0.2188 0.0156
vt 0.2188 0
vt 0.2813 0
vt 0.2813 0.0156
vt 0 0.0156
vt 0 0
vt 0.5 0
vt 0.5 0.0156
vt 0.2188 0.0156
vt 0.2188 0
vt 0.5 0
vt 0.5 0.0156
vt 0.2188 0.0156
vt 0.2188 0
vt 0.5 0.375
vt 0.5 0.2639
vt 0.75 0.2639
vt 0.75 0.375
vt 0 0.375
vt 0 0.2639
vt 0.25 0.2639
vt 0.25 0.375
vt 0.4844 0.1875
vt 0.4844 0.2344
vt 0.3594 0.2344
vt 0.3594 0.1875
vt 0.4844 0
vt 0.4844 0.0156
vt 0.3594 0.0156
vt 0.3594 0
vt 0.25 0.875
vt 0.25 0.9861
vt 0 0.9861
vt 0 0.875
vt 0.75 0.875
vt 0.75 0.9861
vt 0.5 0.9861
vt 0.5 0.875
vt 0.75 0.25
vt 0.75 0.2639
vt 0.5 0.2639
vt 0.5 0.25
vt 0.25 0.25
vt 0.25 0.2639
vt 0 0.2639
vt 0 0.25
vt 0.5 0.1875
vt 0.5 0.2344
vt 0.4844 0.2344
vt 0.4844 0.1875
vt 0.5 0
vt 0.5 0.0156
vt 0.4844 0.0156
vt 0.4844 0
vt 0 1
vt 0 0.9861
vt 0.25 0.9861
vt 0.25 1
vt 0.5 1
vt 0.5 0.9861
vt 0.75 0.9861
vt 0.75 1
vt 0.2188 0.25
vt 0.2188 0.2344
vt 0.5 0.2344
vt 0.5 0.25
vt 0 0.25
vt 0 0.2344
vt 0.2813 0.2344
vt 0.2813 0.25
vt 0.2188 0.25
vt 0.2188 0.2344
vt 0.5 0.2344
vt 0.5 0.25
vt 0 0.25
vt 0 0.2344
vt 0.2813 0.2344
vt 0.2813 0.25
vt 0.2188 0.25
vt 0.2188 0.2344
vt 0.3594 0.2344
vt 0.3594 0.25
vt 0.3594 0.25
vt 0.3594 0.2344
vt 0.4844 0.2344
vt 0.4844 0.25
vt 0.4844 0.25
vt 0.4844 0.2344
vt 0.5 0.2344
vt 0.5 0.25
vt 0 0.25
vt 0 0.2344
vt 0.2813 0.2344
vt 0.2813 0.25
vt 0.2188 0.25
vt 0.2188 0.2344
vt 0.5 0.2344
vt 0.5 0.25
vt 0.2188 0.0469
vt 0.2188 0.0156
vt 0.5 0.0156
vt 0.5 0.0469
vt 0 0.0469
vt 0 0.0156
vt 0.2813 0.0156
vt 0.2813 0.0469
vt 0.2188 0.0469
vt 0.2188 0.0156
vt 0.5 0.0156
vt 0.5 0.0469
vt 0 0.0469
vt 0 0.0156
vt 0.2813 0.0156
vt 0.2813 0.0469
vt 0.2188 0.0469
vt 0.2188 0.0156
vt 0.3594 0.0156
vt 0.3594 0.0469
vt 0.3594 0.0469
vt 0.3594 0.0156
vt 0.4844 0.0156
vt 0.4844 0.0469
vt 0.4844 0.0469
vt 0.4844 0.0156
vt 0.5 0.0156
vt 0.5 0.0469
vt 0 0.0469
vt 0 0.0156
vt 0.2813 0.0156
vt 0.2813 0.0469
vt 0.2188 0.0469
vt 0.2188 0.0156
vt 0.5 0.0156
vt 0.5 0.0469
vt 0.2188 0.2344
vt 0.3594 0.2344
vt 0.3594 0.1875
vt 0.2188 0.1875
vt 0.2188 0.0156
vt 0.3594 0.0156
vt 0.3594 0
vt 0.2188 0
vt 0.3594 0.2344
vt 0.4844 0.2344
vt 0.4844 0.1875
vt 0.3594 0.1875
vt 0.3594 0.0156
vt 0.4844 0.0156
vt 0.4844 0
vt 0.3594 0
vt 0.4844 0.2344
vt 0.5 0.2344
vt 0.5 0.1875
vt 0.4844 0.1875
vt 0.4844 0.0156
vt 0.5 0.0156
vt 0.5 0
vt 0.4844 0
vt 0.3594 0.2344
vt 0.2188 0.2344
vt 0.2188 0.25
vt 0.3594 0.25
vt 0.4844 0.2344
vt 0.3594 0.2344
vt 0.3594 0.25
vt 0.4844 0.25
vt 0.5 0.2344
vt 0.4844 0.2344
vt 0.4844 0.25
vt 0.5 0.25
vt 0.3594 0.0156
vt 0.2188 0.0156
vt 0.2188 0.0469
vt 0.3594 0.0469
vt 0.4844 0.0156
vt 0.3594 0.0156
vt 0.3594 0.0469
vt 0.4844 0.0469
vt 0.5 0.0156
vt 0.4844 0.0156
vt 0.4844 0.0469
vt 0.5 0.0469
vn 1 0 0
vn -1 0 0
vn 0 1 0
vn 0 -1 0
vn 0 0 1
vn 0 0 -1
vn 0 1 0
vn -1 0 0
vn 0 -1 0
vn 0 1 0
vn 0 0 1
vn 0 -1 0
vn 0 -1 0
vn 0 0 -1
vn 0 1 0
vn 0 0 1
vn -1 0 0
vn -1 0 0
vn 0 0 -1
vn 0 0 -1
vn 1 0 0
vn 0 0 1
vn 0 1 0
vn 0 1 0
vn -1 0 0
vn -1 0 0
vn 0 -1 0
vn 0 -1 0
vn 0 1 0
vn 0 1 0
vn -1 0 0
vn -1 0 0
vn 0 -1 0
vn 0 -1 0
vn 1 0 0
vn 0 0 -1
vn 0 0 -1
vn -1 0 0
vn -1 0 0
vn -1 0 0
vn -1 0 0
vn 0 0 1
vn 0 0 1
vn 1 0 0
vn 0 0 -1
vn 0 0 -1
vn -1 0 0
vn -1 0 0
vn -1 0 0
vn -1 0 0
vn 0 0 1
vn 0 0 1
vn 1 0 0
vn 1 0 0
vn 1 0 0
vn 1 0 0
vn 1 0 0
vn 1 0 0
vn 1 0 0
vn 1 0 0
vn 1 0 0
vn 1 0 0
vn 1 0 0
vn 1 0 0
usemtl common_steel
f 20/1/1 31/2/1 51/3/1
f 20/1/1 51/3/1 52/4/1
f 17/5/2 34/6/2 33/7/2
f 17/5/2 33/7/2 18/8/2
f 7/9/3 9/10/3 14/11/3
f 7/9/3 14/11/3 4/12/3
f 6/13/4 13/14/4 12/15/4
f 6/13/4 12/15/4 8/16/4
f 15/17/5 38/18/5 37/19/5
f 15/17/5 37/19/5 16/20/5
f 18/21/6 33/22/6 32/23/6
f 18/21/6 32/23/6 19/24/6
f 7/25/7 22/26/7 21/27/7
f 7/25/7 21/27/7 9/28/7
f 23/29/8 35/30/8 34/31/8
f 23/29/8 34/31/8 17/32/8
f 12/33/9 25/34/9 24/35/9
f 12/33/9 24/35/9 8/36/9
f 9/37/10 21/38/10 64/39/10
f 9/37/10 64/39/10 66/40/10
f 60/41/11 61/42/11 38/43/11
f 60/41/11 38/43/11 15/44/11
f 56/45/12 55/46/12 25/47/12
f 56/45/12 25/47/12 12/48/12
f 56/49/13 12/50/13 13/51/13
f 56/49/13 13/51/13 2/52/13
f 19/53/14 32/54/14 31/55/14
f 19/53/14 31/55/14 20/56/14
f 1/57/15 14/58/15 9/59/15
f 1/57/15 9/59/15 66/60/15
f 11/61/16 46/62/16 45/63/16
f 11/61/16 45/63/16 5/64/16
f 24/65/17 43/66/17 42/67/17
f 24/65/17 42/67/17 8/68/17
f 8/69/18 42/70/18 41/71/18
f 8/69/18 41/71/18 6/72/18
f 6/73/19 41/74/19 40/75/19
f 6/73/19 40/75/19 13/76/19
f 13/77/20 40/78/20 39/79/20
f 13/77/20 39/79/20 2/80/20
f 2/81/21 39/82/21 53/83/21
f 2/81/21 53/83/21 56/84/21
f 65/85/22 59/86/22 46/87/22
f 65/85/22 46/87/22 11/88/22
f 21/89/23 26/90/23 62/91/23
f 21/89/23 62/91/23 64/92/23
f 22/93/24 27/94/24 26/95/24
f 22/93/24 26/95/24 21/96/24
f 28/97/25 36/98/25 35/99/25
f 28/97/25 35/99/25 23/100/25
f 29/101/26 44/102/26 43/103/26
f 29/101/26 43/103/26 24/104/26
f 25/105/27 30/106/27 29/107/27
f 25/105/27 29/107/27 24/108/27
f 55/109/28 57/110/28 30/111/28
f 55/109/28 30/111/28 25/112/28
f 63/113/29 62/114/29 26/115/29
f 63/113/29 26/115/29 10/116/29
f 10/117/30 26/118/30 27/119/30
f 10/117/30 27/119/30 3/120/30
f 16/121/31 37/122/31 36/123/31
f 16/121/31 36/123/31 28/124/31
f 5/125/32 45/126/32 44/127/32
f 5/125/32 44/127/32 29/128/32
f 5/129/33 29/130/33 30/131/33
f 5/129/33 30/131/33 11/132/33
f 11/133/34 30/134/34 57/135/34
f 11/133/34 57/135/34 65/136/34
f 66/137/35 51/138/35 31/139/35
f 66/137/35 31/139/35 1/140/35
f 1/141/36 31/142/36 32/143/36
f 1/141/36 32/143/36 14/144/36
f 14/145/37 32/146/37 33/147/37
f 14/145/37 33/147/37 4/148/37
f 4/149/38 33/150/38 34/151/38
f 4/149/38 34/151/38 7/152/38
f 7/153/39 34/154/39 35/155/39
f 7/153/39 35/155/39 22/156/39
f 22/157/40 35/158/40 36/159/40
f 22/157/40 36/159/40 27/160/40
f 27/161/41 36/162/41 37/163/41
f 27/161/41 37/163/41 3/164/41
f 3/165/42 37/166/42 38/167/42
f 3/165/42 38/167/42 10/168/42
f 10/169/43 38/170/43 61/171/43
f 10/169/43 61/171/43 63/172/43
f 52/173/44 53/174/44 39/175/44
f 52/173/44 39/175/44 20/176/44
f 20/177/45 39/178/45 40/179/45
f 20/177/45 40/179/45 19/180/45
f 19/181/46 40/182/46 41/183/46
f 19/181/46 41/183/46 18/184/46
f 18/185/47 41/186/47 42/187/47
f 18/185/47 42/187/47 17/188/47
f 17/189/48 42/190/48 43/191/48
f 17/189/48 43/191/48 23/192/48
f 23/193/49 43/194/49 44/195/49
f 23/193/49 44/195/49 28/196/49
f 28/197/50 44/198/50 45/199/50
f 28/197/50 45/199/50 16/200/50
f 16/201/51 45/202/51 46/203/51
f 16/201/51 46/203/51 15/204/51
f 15/205/52 46/206/52 59/207/52
f 15/205/52 59/207/52 60/208/52
f 51/209/53 49/210/53 50/211/53
f 51/209/53 50/211/53 52/212/53
f 53/213/54 54/214/54 55/215/54
f 53/213/54 55/215/54 56/216/54
f 49/217/55 48/218/55 47/219/55
f 49/217/55 47/219/55 50/220/55
f 54/221/56 58/222/56 57/223/56
f 54/221/56 57/223/56 55/224/56
f 48/225/57 61/226/57 60/227/57
f 48/225/57 60/227/57 47/228/57
f 58/229/58 59/230/58 65/231/58
f 58/229/58 65/231/58 57/232/58
f 49/233/59 51/234/59 66/235/59
f 49/233/59 66/235/59 64/236/59
f 48/237/60 49/238/60 64/239/60
f 48/237/60 64/239/60 62/240/60
f 61/241/61 48/242/61 62/243/61
f 61/241/61 62/243/61 63/244/61
f 54/245/62 53/246/62 52/247/62
f 54/245/62 52/247/62 50/248/62
f 58/249/63 54/250/63 50/251/63
f 58/249/63 50/251/63 47/252/63
f 59/253/64 58/254/64 47/255/64
f 59/253/64 47/255/64 60/256/64
o piston
v 0.5625 -3.875 1
v 0.5625 -3.875 0.875
v 0.5625 -4.875 1
v 0.5625 -4.875 0.875
v 0.4375 -3.875 1
v 0.4375 -3.875 0.875
v 0.4375 -4.875 1
v 0.4375 -4.875 0.875
v 0.625 -3.8125 1.0625
v 0.625 -3.8125 0.8125
v 0.625 -3.875 1.0625
v 0.625 -3.875 0.8125
v 0.375 -3.8125 1.0625
v 0.375 -3.8125 0.8125
v 0.375 -3.875 1.0625
v 0.375 -3.875 0.8125
vt 0.0313 0.5469
vt 0.0313 0.7969
vt 0 0.7969
vt 0 0.5469
vt 0.0313 0.5469
vt 0.0313 0.7969
vt 0 0.7969
vt 0 0.5469
vt 0 0.5469
vt 0 0.7969
vt 0.0313 0.7969
vt 0.0313 0.5469
vt 0 0.5469
vt 0 0.7969
vt 0.0313 0.7969
vt 0.0313 0.5469
vt 0.1875 0.6563
vt 0.1875 0.6719
vt 0.125 0.6719
vt 0.125 0.6563
vt 0.1875 0.6563
vt 0.1875 0.6719
vt 0.125 0.6719
vt 0.125 0.6563
vt 0.1875 0.6094
vt 0.1875 0.6719
vt 0.125 0.6719
vt 0.125 0.6094
vt 0.1875 0.6094
vt 0.1875 0.6719
vt 0.125 0.6719
vt 0.125 0.6094
vt 0.1875 0.6563
vt 0.1875 0.6719
vt 0.125 0.6719
vt 0.125 0.6563
vt 0.1875 0.6563
vt 0.1875 0.6719
vt 0.125 0.6719
vt 0.125 0.6563
vn 1 0 0
vn -1 0 0
vn 0 0 1
vn 0 0 -1
vn 1 0 0
vn -1 0 0
vn 0 1 0
vn 0 -1 0
vn 0 0 1
vn 0 0 -1
usemtl common_rough_steel
f 70/257/65 68/258/65 67/259/65
f 70/257/65 67/259/65 69/260/65
f 73/261/66 71/262/66 72/263/66
f 73/261/66 72/263/66 74/264/66
f 69/265/67 67/266/67 71/267/67
f 69/265/67 71/267/67 73/268/67
f 74/269/68 72/270/68 68/271/68
f 74/269/68 68/271/68 70/272/68
usemtl weapon_mortar
f 78/273/69 76/274/69 75/275/69
f 78/273/69 75/275/69 77/276/69
f 81/277/70 79/278/70 80/279/70
f 81/277/70 80/279/70 82/280/70
f 75/281/71 76/282/71 80/283/71
f 75/281/71 80/283/71 79/284/71
f 78/285/72 77/286/72 81/287/72
f 78/285/72 81/287/72 82/288/72
f 77/289/73 75/290/73 79/291/73
f 77/289/73 79/291/73 81/292/73
f 82/293/74 80/294/74 76/295/74
f 82/293/74 76/295/74 78/296/74
o turret
v 1.0625 -2.625 2.0625
v 1.0625 -2.625 0.9375
v 1.0625 -2.75 2.0625
v 1.0625 -2.75 0.9375
v -0.0625 -2.625 2.0625
v -0.0625 -2.625 0.9375
v -0.0625 -2.75 2.0625
v -0.0625 -2.75 0.9375
v 1.5 -2.5 2.5
v 1.5 -2.5 0.5
v 1.5 -2.625 2.5
v 1.5 -2.625 0.5
v -0.5 -2.5 2.5
v -0.5 -2.5 0.5
v -0.5 -2.625 2.5
v -0.5 -2.625 0.5
v 1.5 -2.5 1.5
v -0.5 -2.5 1.5
v -0.5 -2.625 1.5
v 1.5 -2.625 1.5
v 0.5 -2.5 1.5
v 0.5 -2.5 2.5
v 0.5 -2.625 2.5
v 0.5 -2.625 1.5
v 0.5 -2.625 0.5
v 0.5 -2.5 0.5
v 0 -1.5 1.375
v 0 -1.5 1.75
v 0 -1.75 1.25
v 0 -1.75 1.875
v 0.1875 -1.5 1.375
v 0.1875 -1.5 1.75
v 0.1875 -1.75 1.25
v 0.1875 -1.75 1.875
v 0 -1.5 1.5625
v 0 -1.75 1.5625
v 0.1875 -1.75 1.5625
v 0.1875 -1.5 1.5625
v 0 -1.75 1.25
v 0 -1.75 1.875
v 0 -2.375 1.25
v 0 -2.375 1.875
v 0.1875 -1.75 1.25
v 0.1875 -1.75 1.875
v 0.1875 -2.375 1.25
v 0.1875 -2.375 1.875
v 0 -1.75 1.5625
v 0 -2.375 1.5625
v 0.1875 -2.375 1.5625
v 0.1875 -1.75 1.5625
v 1.0625 -1.8125 1.6875
v 1.0625 -1.8125 1.4375
v 1.0625 -2.0625 1.6875
v 1.0625 -2.0625 1.4375
v -0.0625 -1.8125 1.6875
v -0.0625 -1.8125 1.4375
v -0.0625 -2.0625 1.6875
v -0.0625 -2.0625 1.4375
v 0.8125 -2.375 2.3125
v 0.8125 -2.375 2.0625
v 0.8125 -2.5 2.3125
v 0.8125 -2.5 2.0625
v 0.1875 -2.375 2.3125
v 0.1875 -2.375 2.0625
v 0.1875 -2.5 2.3125
v 0.1875 -2.5 2.0625
v 0.1875 -2.375 2.3125
v 0.1875 -2.375 1.1875
v 0.1875 -2.5 2.3125
v 0.1875 -2.5 1.1875
v -0.0625 -2.375 2.3125
v -0.0625 -2.375 1.1875
v -0.0625 -2.5 2.3125
v -0.0625 -2.5 1.1875
v 1.0625 -2.375 2.3125
v 1.0625 -2.375 1.1875
v 1.0625 -2.5 2.3125
v 1.0625 -2.5 1.1875
v 0.8125 -2.375 2.3125
v 0.8125 -2.375 1.1875
v 0.8125 -2.5 2.3125
v 0.8125 -2.5 1.1875
v 0.75 -2.375 1.25
v 0.75 -2.375 0.75
v 0.75 -2.5 1.25
v 0.75 -2.5 0.75
v 0.25 -2.375 1.25
v 0.25 -2.375 0.75
v 0.25 -2.5 1.25
v 0.25 -2.5 0.75
v 0.8125 -1.5 1.375
v 0.8125 -1.5 1.75
v 0.8125 -1.75 1.25
v 0.8125 -1.75 1.875
v 1 -1.5 1.375
v 1 -1.5 1.75
v 1 -1.75 1.25
v 1 -1.75 1.875
v 0.8125 -1.5 1.5625
v 0.8125 -1.75 1.5625
v 1 -1.75 1.5625
v 1 -1.5 1.5625
v 0.8125 -1.75 1.25
v 0.8125 -1.75 1.875
v 0.8125 -2.375 1.25
v 0.8125 -2.375 1.875
v 1 -1.75 1.25
v 1 -1.75 1.875
v 1 -2.375 1.25
v 1 -2.375 1.875
v 0.8125 -1.75 1.5625
v 0.8125 -2.375 1.5625
v 1 -2.375 1.5625
v 1 -1.75 1.5625
v 0.25 -2.125 1
v 0.25 -2.125 0.8125
v 0.25 -2.25 1.0625
v 0.25 -2.25 0.75
v 0.125 -2.125 1
v 0.125 -2.125 0.8125
v 0.125 -2.25 1.0625
v 0.125 -2.25 0.75
v 0.25 -2.25 1.0625
v 0.25 -2.25 0.75
v 0.25 -2.5 1.0625
v 0.25 -2.5 0.75
v 0.125 -2.25 1.0625
v 0.125 -2.25 0.75
v 0.125 -2.5 1.0625
v 0.125 -2.5 0.75
v 0.25 -2.25 0.9375
v 0.25 -2.5 0.9375
v 0.125 -2.25 0.875
v 0.125 -2.5 0.875
v 0.25 -2.25 1.25
v 0.25 -2.25 1.0625
v 0.25 -2.5 1.25
v 0.25 -2.5 1.0625
v 0 -2.25 1.25
v 0 -2.25 1.0625
v 0 -2.5 1.25
v 0 -2.5 1.0625
v 0.875 -2.125 1
v 0.875 -2.125 0.8125
v 0.875 -2.25 1.0625
v 0.875 -2.25 0.75
v 0.75 -2.125 1
v 0.75 -2.125 0.8125
v 0.75 -2.25 1.0625
v 0.75 -2.25 0.75
v 0.875 -2.25 1.0625
v 0.875 -2.25 0.75
v 0.875 -2.5 1.0625
v 0.875 -2.5 0.75
v 0.75 -2.25 1.0625
v 0.75 -2.25 0.75
v 0.75 -2.5 1.0625
v 0.75 -2.5 0.75
v 0.875 -2.25 0.9375
v 0.875 -2.5 0.9375
v 0.75 -2.25 0.875
v 0.75 -2.5 0.875
v 1 -2.25 1.25
v 1 -2.25 1.0625
v 1 -2.5 1.25
v 1 -2.5 1.0625
v 0.75 -2.25 1.25
v 0.75 -2.25 1.0625
v 0.75 -2.5 1.25
v 0.75 -2.5 1.0625
v 0.75 -2.625 0.9375
v 0.75 -2.625 0.75
v 0.75 -2.75 0.9375
v 0.75 -2.75 0.75
v 0.25 -2.625 0.9375
v 0.25 -2.625 0.75
v 0.25 -2.75 0.9375
v 0.25 -2.75 0.75
v 1.4063 -2.125 1.25
v 1.4063 -2 1.25
v 1.4063 -2.125 1.125
v 1.4063 -2.0625 1.125
v 1.2813 -2.125 1.25
v 1.2813 -2 1.25
v 1.2813 -2.125 1.125
v 1.2813 -2.0625 1.125
v 1.4375 -2.125 1.0625
v 1.25 -2.125 1.0625
v 1.4375 -2.5 1.0625
v 1.25 -2.5 1.0625
v 1.4375 -2.125 1.25
v 1.25 -2.125 1.25
v 1.4375 -2.5 1.25
v 1.25 -2.5 1.25
v 1.5 -2 1.25
v 1.125 -2 1.25
v 1.5 -2.5 1.25
v 1.125 -2.5 1.25
v 1.5 -2 1.75
v 1.125 -2 1.75
v 1.5 -2.5 1.75
v 1.125 -2.5 1.75
v 1.4375 -1.9375 1.8125
v 1.4375 -1.9375 1.1875
v 1.4375 -2 1.8125
v 1.4375 -2 1.1875
v 1.1875 -1.9375 1.8125
v 1.1875 -1.9375 1.1875
v 1.1875 -2 1.8125
v 1.1875 -2 1.1875
v 1.1887 -1.6861 1.5625
v 1.1887 -1.6861 1.8125
v 1.1887 -1.9361 1.5625
v 1.1887 -1.9361 1.8125
v 1.4387 -1.6861 1.5625
v 1.4387 -1.6861 1.8125
v 1.4387 -1.9361 1.5625
v 1.4387 -1.9361 1.8125
v 1.3824 -1.7486 1.375
v 1.4137 -1.7174 1.3125
v 1.3824 -1.8736 1.375
v 1.4137 -1.9049 1.3125
v 1.2574 -1.7486 1.375
v 1.2262 -1.7174 1.3125
v 1.2574 -1.8736 1.375
v 1.2262 -1.9049 1.3125
v 1.2574 -1.7486 1.375
v 1.2262 -1.7174 1.4375
v 1.2574 -1.8736 1.375
v 1.2262 -1.9049 1.4375
v 1.3824 -1.7486 1.375
v 1.4137 -1.7174 1.4375
v 1.3824 -1.8736 1.375
v 1.4137 -1.9049 1.4375
v 1.3824 -1.7486 1.5
v 1.4137 -1.7174 1.4375
v 1.3824 -1.8736 1.5
v 1.4137 -1.9049 1.4375
v 1.2574 -1.7486 1.5
v 1.2262 -1.7174 1.4375
v 1.2574 -1.8736 1.5
v 1.2262 -1.9049 1.4375
v 1.2574 -1.7486 1.5
v 1.2262 -1.7174 1.5625
v 1.2574 -1.8736 1.5
v 1.2262 -1.9049 1.5625
v 1.3824 -1.7486 1.5
v 1.4137 -1.7174 1.5625
v 1.3824 -1.8736 1.5
v 1.4137 -1.9049 1.5625
v 1.4387 -1.6861 1.3125
v 1.4387 -1.6861 1.25
v 1.4387 -1.9361 1.3125
v 1.4387 -1.9361 1.25
v 1.1887 -1.6861 1.3125
v 1.1887 -1.6861 1.25
v 1.1887 -1.9361 1.3125
v 1.1887 -1.9361 1.25
v 1.4074 -1.7174 1.25
v 1.4074 -1.7174 1.1875
v 1.4074 -1.9049 1.25
v 1.4074 -1.9049 1.1875
v 1.2199 -1.7174 1.25
v 1.2199 -1.7174 1.1875
v 1.2199 -1.9049 1.25
v 1.2199 -1.9049 1.1875
v 1.4387 -1.6861 1.1875
v 1.4387 -1.6861 1.125
v 1.4387 -1.9361 1.1875
v 1.4387 -1.9361 1.125
v 1.1887 -1.6861 1.1875
v 1.1887 -1.6861 1.125
v 1.1887 -1.9361 1.1875
v 1.1887 -1.9361 1.125
v 0.1107 -1.8687 2.4881
v 0.1652 -1.8687 1.8654
v 0.1107 -2.4937 2.4881
v 0.1652 -2.4937 1.8654
v -0.5119 -1.8687 2.4336
v -0.4575 -1.8687 1.811
v -0.5119 -2.4937 2.4336
v -0.4575 -2.4937 1.811
vt 0.4844 1
vt 0.4531 1
vt 0.4531 0.7188
vt 0.4844 0.7188
vt 0.4844 1
vt 0.4531 1
vt 0.4531 0.7188
vt 0.4844 0.7188
vt 0.4844 1
vt 0.4531 1
vt 0.4531 0.7188
vt 0.4844 0.7188
vt 0.4844 1
vt 0.4531 1
vt 0.4531 0.7188
vt 0.4844 0.7188
vt 0.5625 1
vt 0.3125 1
vt 0.3125 0.9688
vt 0.5625 0.9688
vt 0.125 0.9688
vt 0.375 0.9688
vt 0.375 1
vt 0.125 1
vt 0 0.75
vt 0.25 0.75
vt 0.25 1
vt 0 1
vt 0 0.25
vt 0.25 0.25
vt 0.25 0.5
vt 0 0.5
vt 0.0625 0.9688
vt 0.3125 0.9688
vt 0.3125 1
vt 0.0625 1
vt 0.5625 1
vt 0.3125 1
vt 0.3125 0.9688
vt 0.5625 0.9688
vt 0 0.25
vt 0.25 0.25
vt 0.25 0.5
vt 0 0.5
vt 0.625 1
vt 0.375 1
vt 0.375 0.9688
vt 0.625 0.9688
vt 0 0.75
vt 0.25 0.75
vt 0.25 1
vt 0 1
vt 0.0625 0.9688
vt 0.3125 0.9688
vt 0.3125 1
vt 0.0625 1
vt 0.75 0.5
vt 0.5 0.5
vt 0.5 0.25
vt 0.75 0.25
vt 0.5625 1
vt 0.3125 1
vt 0.3125 0.9688
vt 0.5625 0.9688
vt 0.75 1
vt 0.5 1
vt 0.5 0.75
vt 0.75 0.75
vt 0.75 0.5
vt 0.5 0.5
vt 0.5 0.25
vt 0.75 0.25
vt 0.0625 0.9688
vt 0.3125 0.9688
vt 0.3125 1
vt 0.0625 1
vt 0.75 1
vt 0.5 1
vt 0.5 0.75
vt 0.75 0.75
vt 0.0156 0.0625
vt 0.0938 0.0625
vt 0.0938 0
vt 0.0469 0
vt 0.0469 0
vt 0.0938 0
vt 0.0938 0.0625
vt 0.0156 0.0625
vt 0.1563 0.2031
vt 0.1563 0.1563
vt 0.2031 0.1563
vt 0.2031 0.2031
vt 0.2031 0.1719
vt 0.2031 0.2344
vt 0.1563 0.2344
vt 0.1563 0.1719
vt 0.2031 0.2031
vt 0.1563 0.2031
vt 0.1563 0.1406
vt 0.2031 0.1406
vt 0.125 0
vt 0.0781 0
vt 0.0781 0.0625
vt 0.1563 0.0625
vt 0.1719 0.0625
vt 0.0938 0.0625
vt 0.0938 0
vt 0.1406 0
vt 0.2031 0.1094
vt 0.2031 0.1563
vt 0.1563 0.1563
vt 0.1563 0.1094
vt 0 0.3125
vt 0.0781 0.3125
vt 0.0781 0.1563
vt 0 0.1563
vt 0 0.1563
vt 0.0781 0.1563
vt 0.0781 0.3125
vt 0 0.3125
vt 0.2031 0.0781
vt 0.2031 0.2344
vt 0.1563 0.2344
vt 0.1563 0.0781
vt 0.2031 0.1094
vt 0.2031 0.2656
vt 0.1563 0.2656
vt 0.1563 0.1094
vt 0.1719 0.1563
vt 0.0938 0.1563
vt 0.0938 0.3125
vt 0.1719 0.3125
vt 0.1719 0.3125
vt 0.0938 0.3125
vt 0.0938 0.1563
vt 0.1719 0.1563
vt 0.0625 0.4375
vt 0.0625 0.5
vt 0 0.5
vt 0 0.4375
vt 0.0625 0.4375
vt 0.0625 0.5
vt 0 0.5
vt 0 0.4375
vt 0.3438 0.4375
vt 0.3438 0.5
vt 0.0625 0.5
vt 0.0625 0.4375
vt 0.3438 0.4375
vt 0.3438 0.5
vt 0.0625 0.5
vt 0.0625 0.4375
vt 0.3438 0.4375
vt 0.3438 0.5
vt 0.0625 0.5
vt 0.0625 0.4375
vt 0.3438 0.4375
vt 0.3438 0.5
vt 0.0625 0.5
vt 0.0625 0.4375
vt 0.2813 0.7656
vt 0.2188 0.7656
vt 0.2188 0.9219
vt 0.2813 0.9219
vt 0.25 0.7656
vt 0.2813 0.7656
vt 0.2813 0.9219
vt 0.25 0.9219
vt 0.25 0.7656
vt 0.2813 0.7656
vt 0.2813 0.9219
vt 0.25 0.9219
vt 0.25 0.7188
vt 0.2813 0.7188
vt 0.2813 1
vt 0.25 1
vt 0.25 0.7031
vt 0.2813 0.7031
vt 0.2813 0.9844
vt 0.25 0.9844
vt 0.2188 1
vt 0.2188 0.7188
vt 0.2813 0.7188
vt 0.2813 1
vt 0.2031 0.9688
vt 0.2031 1
vt 0.2656 1
vt 0.2656 0.9688
vt 0.25 0.9688
vt 0.25 1
vt 0.1875 1
vt 0.1875 0.9688
vt 0.25 0.7031
vt 0.2813 0.7031
vt 0.2813 0.9844
vt 0.25 0.9844
vt 0.25 0.7188
vt 0.2813 0.7188
vt 0.2813 1
vt 0.25 1
vt 0.2813 1
vt 0.2813 0.7188
vt 0.2188 0.7188
vt 0.2188 1
vt 0.2656 0.9688
vt 0.2656 1
vt 0.2031 1
vt 0.2031 0.9688
vt 0.25 0.9688
vt 0.25 1
vt 0.1875 1
vt 0.1875 0.9688
vt 0.3906 0.25
vt 0.3906 0.375
vt 0.2656 0.375
vt 0.2656 0.25
vt 0.3906 0.2344
vt 0.3906 0.2656
vt 0.2656 0.2656
vt 0.2656 0.2344
vt 0.2656 0.3906
vt 0.2656 0.3594
vt 0.3906 0.3594
vt 0.3906 0.3906
vt 0.0156 0.0625
vt 0.0938 0.0625
vt 0.0938 0
vt 0.0469 0
vt 0.0469 0
vt 0.0938 0
vt 0.0938 0.0625
vt 0.0156 0.0625
vt 0.1563 0.2031
vt 0.1563 0.1563
vt 0.2031 0.1563
vt 0.2031 0.2031
vt 0.2031 0.1719
vt 0.2031 0.2344
vt 0.1563 0.2344
vt 0.1563 0.1719
vt 0.2031 0.2031
vt 0.1563 0.2031
vt 0.1563 0.1406
vt 0.2031 0.1406
vt 0.125 0
vt 0.0781 0
vt 0.0781 0.0625
vt 0.1563 0.0625
vt 0.1719 0.0625
vt 0.0938 0.0625
vt 0.0938 0
vt 0.1406 0
vt 0.2031 0.1094
vt 0.2031 0.1563
vt 0.1563 0.1563
vt 0.1563 0.1094
vt 0 0.3125
vt 0.0781 0.3125
vt 0.0781 0.1563
vt 0 0.1563
vt 0 0.1563
vt 0.0781 0.1563
vt 0.0781 0.3125
vt 0 0.3125
vt 0.2031 0.0781
vt 0.2031 0.2344
vt 0.1563 0.2344
vt 0.1563 0.0781
vt 0.2031 0.1094
vt 0.2031 0.2656
vt 0.1563 0.2656
vt 0.1563 0.1094
vt 0.1719 0.1563
vt 0.0938 0.1563
vt 0.0938 0.3125
vt 0.1719 0.3125
vt 0.1719 0.3125
vt 0.0938 0.3125
vt 0.0938 0.1563
vt 0.1719 0.1563
vt 1 0.9688
vt 0.9844 1
vt 0.9375 1
vt 0.9219 0.9688
vt 1 0.9688
vt 0.9844 1
vt 0.9375 1
vt 0.9219 0.9688
vt 0.9688 0.9219
vt 0.9688 0.9688
vt 1 0.9688
vt 1 0.9219
vt 0.9688 0.9531
vt 0.9688 0.9219
vt 1 0.9219
vt 1 0.9531
vt 1 0.9063
vt 1 0.9375
vt 0.9688 0.9375
vt 0.9688 0.9063
vt 0.75 0.25
vt 0.7813 0.25
vt 0.7813 0.3125
vt 0.75 0.3125
vt 0.75 0.25
vt 0.7813 0.25
vt 0.7813 0.3125
vt 0.75 0.3125
vt 0.7656 0.4375
vt 0.7656 0.5
vt 0.7344 0.5
vt 0.7344 0.4375
vt 1 0.3125
vt 0.9531 0.3125
vt 0.9531 0.25
vt 1 0.25
vt 1 0.3125
vt 0.9531 0.3125
vt 0.9531 0.25
vt 1 0.25
vt 0.5313 0.9375
vt 0.5313 1
vt 0.4844 1
vt 0.4844 0.9375
vt 0.5313 0.9375
vt 0.5313 1
vt 0.4844 1
vt 0.4844 0.9375
vt 0.4844 0.9375
vt 0.5313 0.9375
vt 0.5313 1
vt 0.4844 1
vt 0.5938 0.9375
vt 0.5938 1
vt 0.5313 1
vt 0.5313 0.9375
vt 0.5938 0.9375
vt 0.5938 1
vt 0.5313 1
vt 0.5313 0.9375
vt 1 0.9688
vt 0.9844 1
vt 0.9375 1
vt 0.9219 0.9688
vt 1 0.9688
vt 0.9844 1
vt 0.9375 1
vt 0.9219 0.9688
vt 0.9688 0.9219
vt 0.9688 0.9688
vt 1 0.9688
vt 1 0.9219
vt 0.9688 0.9531
vt 0.9688 0.9219
vt 1 0.9219
vt 1 0.9531
vt 1 0.9063
vt 1 0.9375
vt 0.9688 0.9375
vt 0.9688 0.9063
vt 0.75 0.25
vt 0.7813 0.25
vt 0.7813 0.3125
vt 0.75 0.3125
vt 0.75 0.25
vt 0.7813 0.25
vt 0.7813 0.3125
vt 0.75 0.3125
vt 0.7656 0.4375
vt 0.7656 0.5
vt 0.7344 0.5
vt 0.7344 0.4375
vt 1 0.3125
vt 0.9531 0.3125
vt 0.9531 0.25
vt 1 0.25
vt 1 0.3125
vt 0.9531 0.3125
vt 0.9531 0.25
vt 1 0.25
vt 0.5313 0.9375
vt 0.5313 1
vt 0.4844 1
vt 0.4844 0.9375
vt 0.5313 0.9375
vt 0.5313 1
vt 0.4844 1
vt 0.4844 0.9375
vt 0.4844 0.9375
vt 0.5313 0.9375
vt 0.5313 1
vt 0.4844 1
vt 0.5938 0.9375
vt 0.5938 1
vt 0.5313 1
vt 0.5313 0.9375
vt 0.5938 0.9375
vt 0.5938 1
vt 0.5313 1
vt 0.5313 0.9375
vt 0.5781 0.9688
vt 0.5781 1
vt 0.5313 1
vt 0.5313 0.9688
vt 0.5781 0.9688
vt 0.5781 1
vt 0.5313 1
vt 0.5313 0.9688
vt 0.25 0.9688
vt 0.25 1
vt 0.125 1
vt 0.125 0.9688
vt 0.75 0.0625
vt 0.875 0.125
vt 0.875 0
vt 0.75 0
vt 0.9375 0.5625
vt 0.8125 0.5625
vt 0.8125 0.6875
vt 0.9375 0.6875
vt 0.5625 1
vt 0.5625 0.9375
vt 0.6875 0.9375
vt 0.6875 1
vt 0.6875 0.875
vt 0.6875 1
vt 0.5625 1
vt 0.5625 0.875
vt 0.4219 0.1563
vt 0.4219 0.25
vt 0.4688 0.25
vt 0.4688 0.1563
vt 0.4688 0.2344
vt 0.4688 0.2813
vt 0.4219 0.2813
vt 0.4219 0.2344
vt 0.4688 0.1563
vt 0.4688 0.25
vt 0.4219 0.25
vt 0.4219 0.1563
vt 0.4688 0.1563
vt 0.4688 0.25
vt 0.4219 0.25
vt 0.4219 0.1563
vt 0.4219 0.125
vt 0.4219 0.25
vt 0.3281 0.25
vt 0.3281 0.125
vt 0.4219 0.125
vt 0.4219 0.25
vt 0.3281 0.25
vt 0.3281 0.125
vt 0.2969 0.125
vt 0.2031 0.125
vt 0.2031 0
vt 0.2969 0
vt 0.3281 0.125
vt 0.3281 0.25
vt 0.2031 0.25
vt 0.2031 0.125
vt 0.3281 0.125
vt 0.3281 0.25
vt 0.2031 0.25
vt 0.2031 0.125
vt 0.0625 0.5
vt 0.0625 0.4844
vt 0.2188 0.4844
vt 0.2188 0.5
vt 0.0781 0.5
vt 0.0781 0.4844
vt 0.2344 0.4844
vt 0.2344 0.5
vt 0.2969 0.5
vt 0.1406 0.5
vt 0.1406 0.4375
vt 0.2969 0.4375
vt 0.2969 0.5
vt 0.1406 0.5
vt 0.1406 0.4375
vt 0.2969 0.4375
vt 0.2656 0.5
vt 0.25 0.5
vt 0.25 0.4375
vt 0.2656 0.4375
vt 0.2656 0.5
vt 0.25 0.5
vt 0.25 0.4375
vt 0.2656 0.4375
vt 0.8125 0.125
vt 0.75 0.125
vt 0.75 0.0625
vt 0.8125 0.0625
vt 0.75 0.0625
vt 0.8125 0.0625
vt 0.8125 0.125
vt 0.75 0.125
vt 0.8125 0.0625
vt 0.8125 0.125
vt 0.75 0.125
vt 0.75 0.0625
vt 0.875 0.0625
vt 0.875 0.125
vt 0.8125 0.125
vt 0.8125 0.0625
vt 0.8125 0
vt 0.8125 0.0625
vt 0.75 0.0625
vt 0.75 0
vt 0.9219 0.0469
vt 0.9063 0.0391
vt 0.9063 0.0078
vt 0.9219 0
vt 0.8906 0.0078
vt 0.8906 0.0391
vt 0.875 0.0469
vt 0.875 0
vt 0.8828 0.0313
vt 0.9141 0.0313
vt 0.9219 0.0469
vt 0.875 0.0469
vt 0.9219 0
vt 0.9141 0.0156
vt 0.8828 0.0156
vt 0.875 0
vt 0.9219 0.0469
vt 0.9063 0.0391
vt 0.9063 0.0078
vt 0.9219 0
vt 0.8906 0.0078
vt 0.8906 0.0391
vt 0.875 0.0469
vt 0.875 0
vt 0.8828 0.0313
vt 0.9141 0.0313
vt 0.9219 0.0469
vt 0.875 0.0469
vt 0.9219 0
vt 0.9141 0.0156
vt 0.8828 0.0156
vt 0.875 0
vt 0.9219 0.0469
vt 0.9063 0.0391
vt 0.9063 0.0078
vt 0.9219 0
vt 0.8906 0.0078
vt 0.8906 0.0391
vt 0.875 0.0469
vt 0.875 0
vt 0.8828 0.0313
vt 0.9141 0.0313
vt 0.9219 0.0469
vt 0.875 0.0469
vt 0.9219 0
vt 0.9141 0.0156
vt 0.8828 0.0156
vt 0.875 0
vt 0.8906 0.0078
vt 0.8906 0.0391
vt 0.875 0.0469
vt 0.875 0
vt 0.8828 0.0313
vt 0.9141 0.0313
vt 0.9219 0.0469
vt 0.875 0.0469
vt 0.9219 0
vt 0.9141 0.0156
vt 0.8828 0.0156
vt 0.875 0
vt 0.9219 0.0469
vt 0.9063 0.0391
vt 0.9063 0.0078
vt 0.9219 0
vt 0.8125 0
vt 0.8125 0.0625
vt 0.7969 0.0625
vt 0.7969 0
vt 0.8125 0
vt 0.8125 0.0625
vt 0.7969 0.0625
vt 0.7969 0
vt 0.8125 0
vt 0.8125 0.0156
vt 0.75 0.0156
vt 0.75 0
vt 0.8125 0
vt 0.8125 0.0625
vt 0.75 0.0625
vt 0.75 0
vt 0.8125 0
vt 0.8125 0.0625
vt 0.75 0.0625
vt 0.75 0
vt 0.875 0.0781
vt 0.875 0.125
vt 0.8594 0.125
vt 0.8594 0.0781
vt 0.875 0.0781
vt 0.875 0.125
vt 0.8594 0.125
vt 0.8594 0.0781
vt 0.875 0.0625
vt 0.875 0.0781
vt 0.8281 0.0781
vt 0.8281 0.0625
vt 0.875 0.0625
vt 0.875 0.0781
vt 0.8281 0.0781
vt 0.8281 0.0625
vt 0.875 0
vt 0.875 0.0625
vt 0.8594 0.0625
vt 0.8594 0
vt 0.875 0
vt 0.875 0.0625
vt 0.8594 0.0625
vt 0.8594 0
vt 0.875 0.0469
vt 0.875 0.0625
vt 0.8125 0.0625
vt 0.8125 0.0469
vt 0.875 0
vt 0.875 0.0156
vt 0.8125 0.0156
vt 0.8125 0
vt 0.875 0
vt 0.875 0.0625
vt 0.8125 0.0625
vt 0.8125 0
vt 0.875 0
vt 0.875 0.0625
vt 0.8125 0.0625
vt 0.8125 0
vt 0.3125 0.25
vt 0.3125 0.5625
vt 0 0.5625
vt 0 0.25
vt 0.3125 0.25
vt 0.3125 0.5625
vt 0 0.5625
vt 0 0.25
vt 0.3125 0.25
vt 0.3125 0.5625
vt 0 0.5625
vt 0 0.25
vt 0.3125 0.25
vt 0.3125 0.5625
vt 0 0.5625
vt 0 0.25
vt 0.3125 0.25
vt 0.3125 0.5625
vt 0 0.5625
vt 0 0.25
vt 0.3125 0.25
vt 0.3125 0.5625
vt 0 0.5625
vt 0 0.25
vn 1 0 0
vn -1 0 0
vn 0 0 1
vn 0 0 -1
vn 1 0 0
vn -1 0 0
vn 0 1 0
vn 0 -1 0
vn 0 0 1
vn 0 0 -1
vn 0 1 0
vn -1 0 0
vn 0 -1 0
vn 1 0 0
vn 0 1 0
vn 0 0 1
vn 0 -1 0
vn 0 -1 0
vn 0 0 -1
vn 0 1 0
vn -1 0 0
vn 1 0 0
vn 0 1 0
vn 0 0.45 -0.89
vn 0 0.45 0.89
vn -1 0 0
vn 1 0 0
vn 0 1 0
vn -1 0 0
vn 1 0 0
vn 0 0 -1
vn 0 0 1
vn -1 0 0
vn 1 0 0
vn 1 0 0
vn -1 0 0
vn 0 1 0
vn 0 -1 0
vn 0 0 1
vn 0 0 -1
vn 0 1 0
vn 0 0 1
vn 0 0 -1
vn 1 0 0
vn -1 0 0
vn 0 1 0
vn 0 0 1
vn 0 0 -1
vn 1 0 0
vn -1 0 0
vn 0 1 0
vn 0 0 1
vn 0 0 -1
vn 0 1 0
vn 0 0 1
vn 0 0 -1
vn -1 0 0
vn 1 0 0
vn 0 1 0
vn 0 0.45 -0.89
vn 0 0.45 0.89
vn -1 0 0
vn 1 0 0
vn 0 1 0
vn -1 0 0
vn 1 0 0
vn 0 0 -1
vn 0 0 1
vn -1 0 0
vn 1 0 0
vn 1 0 0
vn -1 0 0
vn 0 1 0
vn 0 0.45 0.89
vn 0 0.45 -0.89
vn 1 0 0
vn -1 0 0
vn 0 0 -1
vn 1 0 0
vn -1 0 0
vn 1 0 0
vn -1 0 0
vn 0 1 0
vn 0 0 1
vn 0 0 -1
vn 1 0 0
vn -1 0 0
vn 0 1 0
vn 0 0.45 0.89
vn 0 0.45 -0.89
vn 1 0 0
vn -1 0 0
vn 0 0 -1
vn 1 0 0
vn -1 0 0
vn 1 0 0
vn -1 0 0
vn 0 1 0
vn 0 0 1
vn 0 0 -1
vn 1 0 0
vn -1 0 0
vn 0 0 -1
vn 1 0 0
vn -1 0 0
vn 0 0 -1
vn 0 0.89 -0.45
vn 0 0 -1
vn 0 1 0
vn 1 0 0
vn -1 0 0
vn 0 0 -1
vn 0 0 1
vn 0 1 0
vn 1 0 0
vn -1 0 0
vn 1 0 0
vn -1 0 0
vn 0 1 0
vn 0 -1 0
vn 0 0 1
vn 0 0 -1
vn -1 0 0
vn 1 0 0
vn 0 1 0
vn 0 0 -1
vn 0 0 1
vn 0.89 0 0.45
vn -0.89 0 0.45
vn 0 0.89 0.45
vn 0 -0.89 0.45
vn -0.89 0 -0.45
vn 0.89 0 -0.45
vn 0 0.89 -0.45
vn 0 -0.89 -0.45
vn 0.89 0 0.45
vn -0.89 0 0.45
vn 0 0.89 0.45
vn 0 -0.89 0.45
vn 0.89 0 -0.45
vn 0 0.89 -0.45
vn 0 -0.89 -0.45
vn -0.89 0 -0.45
vn 1 0 0
vn -1 0 0
vn 0 1 0
vn 0 0 1
vn 0 0 -1
vn 1 0 0
vn -1 0 0
vn 0 1 0
vn 0 -1 0
vn 1 0 0
vn -1 0 0
vn 0 1 0
vn 0 -1 0
vn 0 0 1
vn 0 0 -1
vn 1 0 0.09
vn -1 0 -0.09
vn 0 1 0
vn 0 -1 0
vn -0.09 0 1
vn 0.09 0 -1
usemtl weapon_mortar
f 86/297/75 84/298/75 83/299/75
f 86/297/75 83/299/75 85/300/75
f 89/301/76 87/302/76 88/303/76
f 89/301/76 88/303/76 90/304/76
f 85/305/77 83/306/77 87/307/77
f 85/305/77 87/307/77 89/308/77
f 90/309/78 88/310/78 84/311/78
f 90/309/78 84/311/78 86/312/78
usemtl common_rough_steel
f 92/313/79 99/314/79 102/315/79
f 92/313/79 102/315/79 94/316/79
f 98/317/80 101/318/80 100/319/80
f 98/317/80 100/319/80 96/320/80
f 100/321/81 103/322/81 108/323/81
f 100/321/81 108/323/81 96/324/81
f 98/325/82 107/326/82 106/327/82
f 98/325/82 106/327/82 101/328/82
f 97/329/83 105/330/83 104/331/83
f 97/329/83 104/331/83 95/332/83
f 96/333/84 108/334/84 107/335/84
f 96/333/84 107/335/84 98/336/84
f 95/337/85 104/338/85 103/339/85
f 95/337/85 103/339/85 100/340/85
f 95/341/86 100/342/86 101/343/86
f 95/341/86 101/343/86 97/344/86
f 101/345/87 106/346/87 105/347/87
f 101/345/87 105/347/87 97/348/87
f 93/349/88 102/350/88 99/351/88
f 93/349/88 99/351/88 91/352/88
f 99/353/89 103/354/89 104/355/89
f 99/353/89 104/355/89 91/356/89
f 91/357/90 104/358/90 105/359/90
f 91/357/90 105/359/90 93/360/90
f 93/361/91 105/362/91 106/363/91
f 93/361/91 106/363/91 102/364/91
f 102/365/92 106/366/92 107/367/92
f 102/365/92 107/367/92 94/368/92
f 94/369/93 107/370/93 108/371/93
f 94/369/93 108/371/93 92/372/93
f 92/373/94 108/374/94 103/375/94
f 92/373/94 103/375/94 99/376/94
usemtl weapon_mortar
f 111/377/95 118/378/95 117/379/95
f 111/377/95 117/379/95 109/380/95
f 113/381/96 120/382/96 119/383/96
f 113/381/96 119/383/96 115/384/96
f 109/385/97 117/386/97 120/387/97
f 109/385/97 120/387/97 113/388/97
f 111/389/98 109/390/98 113/391/98
f 111/389/98 113/391/98 115/392/98
f 114/393/99 110/394/99 112/395/99
f 114/393/99 112/395/99 116/396/99
f 110/397/100 117/398/100 118/399/100
f 110/397/100 118/399/100 112/400/100
f 116/401/101 119/402/101 120/403/101
f 116/401/101 120/403/101 114/404/101
f 114/405/102 120/406/102 117/407/102
f 114/405/102 117/407/102 110/408/102
f 123/409/103 130/410/103 129/411/103
f 123/409/103 129/411/103 121/412/103
f 125/413/104 132/414/104 131/415/104
f 125/413/104 131/415/104 127/416/104
f 123/417/105 121/418/105 125/419/105
f 123/417/105 125/419/105 127/420/105
f 128/421/106 126/422/106 122/423/106
f 128/421/106 122/423/106 124/424/106
f 122/425/107 129/426/107 130/427/107
f 122/425/107 130/427/107 124/428/107
f 128/429/108 131/430/108 132/431/108
f 128/429/108 132/431/108 126/432/108
f 136/433/109 134/434/109 133/435/109
f 136/433/109 133/435/109 135/436/109
f 139/437/110 137/438/110 138/439/110
f 139/437/110 138/439/110 140/440/110
f 133/441/111 134/442/111 138/443/111
f 133/441/111 138/443/111 137/444/111
f 136/445/112 135/446/112 139/447/112
f 136/445/112 139/447/112 140/448/112
f 135/449/113 133/450/113 137/451/113
f 135/449/113 137/451/113 139/452/113
f 140/453/114 138/454/114 134/455/114
f 140/453/114 134/455/114 136/456/114
f 141/457/115 142/458/115 146/459/115
f 141/457/115 146/459/115 145/460/115
f 143/461/116 141/462/116 145/463/116
f 143/461/116 145/463/116 147/464/116
f 148/465/117 146/466/117 142/467/117
f 148/465/117 142/467/117 144/468/117
f 152/469/118 150/470/118 149/471/118
f 152/469/118 149/471/118 151/472/118
f 155/473/119 153/474/119 154/475/119
f 155/473/119 154/475/119 156/476/119
f 149/477/120 150/478/120 154/479/120
f 149/477/120 154/479/120 153/480/120
f 151/481/121 149/482/121 153/483/121
f 151/481/121 153/483/121 155/484/121
f 156/485/122 154/486/122 150/487/122
f 156/485/122 150/487/122 152/488/122
f 160/489/123 158/490/123 157/491/123
f 160/489/123 157/491/123 159/492/123
f 163/493/124 161/494/124 162/495/124
f 163/493/124 162/495/124 164/496/124
f 157/497/125 158/498/125 162/499/125
f 157/497/125 162/499/125 161/500/125
f 159/501/126 157/502/126 161/503/126
f 159/501/126 161/503/126 163/504/126
f 164/505/127 162/506/127 158/507/127
f 164/505/127 158/507/127 160/508/127
usemtl common_thingies
f 165/509/128 166/510/128 170/511/128
f 165/509/128 170/511/128 169/512/128
f 167/513/129 165/514/129 169/515/129
f 167/513/129 169/515/129 171/516/129
f 172/517/130 170/518/130 166/519/130
f 172/517/130 166/519/130 168/520/130
usemtl weapon_mortar
f 175/521/131 182/522/131 181/523/131
f 175/521/131 181/523/131 173/524/131
f 177/525/132 184/526/132 183/527/132
f 177/525/132 183/527/132 179/528/132
f 173/529/133 181/530/133 184/531/133
f 173/529/133 184/531/133 177/532/133
f 175/533/134 173/534/134 177/535/134
f 175/533/134 177/535/134 179/536/134
f 178/537/135 174/538/135 176/539/135
f 178/537/135 176/539/135 180/540/135
f 174/541/136 181/542/136 182/543/136
f 174/541/136 182/543/136 176/544/136
f 180/545/137 183/546/137 184/547/137
f 180/545/137 184/547/137 178/548/137
f 178/549/138 184/550/138 181/551/138
f 178/549/138 181/551/138 174/552/138
f 187/553/139 194/554/139 193/555/139
f 187/553/139 193/555/139 185/556/139
f 189/557/140 196/558/140 195/559/140
f 189/557/140 195/559/140 191/560/140
f 187/561/141 185/562/141 189/563/141
f 187/561/141 189/563/141 191/564/141
f 192/565/142 190/566/142 186/567/142
f 192/565/142 186/567/142 188/568/142
f 186/569/143 193/570/143 194/571/143
f 186/569/143 194/571/143 188/572/143
f 192/573/144 195/574/144 196/575/144
f 192/573/144 196/575/144 190/576/144
usemtl common_rough_steel
f 200/577/145 198/578/145 197/579/145
f 200/577/145 197/579/145 199/580/145
f 203/581/146 201/582/146 202/583/146
f 203/581/146 202/583/146 204/584/146
f 197/585/147 198/586/147 202/587/147
f 197/585/147 202/587/147 201/588/147
f 199/589/148 197/590/148 201/591/148
f 199/589/148 201/591/148 203/592/148
f 204/593/149 202/594/149 198/595/149
f 204/593/149 198/595/149 200/596/149
f 207/597/150 214/598/150 213/599/150
f 207/597/150 213/599/150 205/600/150
f 212/601/151 216/602/151 215/603/151
f 212/601/151 215/603/151 210/604/151
f 212/605/152 210/606/152 206/607/152
f 212/605/152 206/607/152 208/608/152
f 206/609/153 213/610/153 214/611/153
f 206/609/153 214/611/153 208/612/153
f 209/613/154 215/614/154 216/615/154
f 209/613/154 216/615/154 211/616/154
usemtl weapon_mortar
f 220/617/155 218/618/155 217/619/155
f 220/617/155 217/619/155 219/620/155
f 223/621/156 221/622/156 222/623/156
f 223/621/156 222/623/156 224/624/156
f 217/625/157 218/626/157 222/627/157
f 217/625/157 222/627/157 221/628/157
f 219/629/158 217/630/158 221/631/158
f 219/629/158 221/631/158 223/632/158
f 224/633/159 222/634/159 218/635/159
f 224/633/159 218/635/159 220/636/159
usemtl common_rough_steel
f 228/637/160 226/638/160 225/639/160
f 228/637/160 225/639/160 227/640/160
f 231/641/161 229/642/161 230/643/161
f 231/641/161 230/643/161 232/644/161
f 225/645/162 226/646/162 230/647/162
f 225/645/162 230/647/162 229/648/162
f 227/649/163 225/650/163 229/651/163
f 227/649/163 229/651/163 231/652/163
f 232/653/164 230/654/164 226/655/164
f 232/653/164 226/655/164 228/656/164
f 235/657/165 242/658/165 241/659/165
f 235/657/165 241/659/165 233/660/165
f 240/661/166 244/662/166 243/663/166
f 240/661/166 243/663/166 238/664/166
f 240/665/167 238/666/167 234/667/167
f 240/665/167 234/667/167 236/668/167
f 234/669/168 241/670/168 242/671/168
f 234/669/168 242/671/168 236/672/168
f 237/673/169 243/674/169 244/675/169
f 237/673/169 244/675/169 239/676/169
usemtl weapon_mortar
f 248/677/170 246/678/170 245/679/170
f 248/677/170 245/679/170 247/680/170
f 251/681/171 249/682/171 250/683/171
f 251/681/171 250/683/171 252/684/171
f 245/685/172 246/686/172 250/687/172
f 245/685/172 250/687/172 249/688/172
f 247/689/173 245/690/173 249/691/173
f 247/689/173 249/691/173 251/692/173
f 252/693/174 250/694/174 246/695/174
f 252/693/174 246/695/174 248/696/174
usemtl common_rough_steel
f 256/697/175 254/698/175 253/699/175
f 256/697/175 253/699/175 255/700/175
f 259/701/176 257/702/176 258/703/176
f 259/701/176 258/703/176 260/704/176
f 260/705/177 258/706/177 254/707/177
f 260/705/177 254/707/177 256/708/177
usemtl common_copper_cable
f 264/709/178 262/710/178 261/711/178
f 264/709/178 261/711/178 263/712/178
f 267/713/179 265/714/179 266/715/179
f 267/713/179 266/715/179 268/716/179
f 264/717/180 263/718/180 267/719/180
f 264/717/180 267/719/180 268/720/180
f 268/721/181 266/722/181 262/723/181
f 268/721/181 262/723/181 264/724/181
usemtl weapon_mortar
f 272/725/182 270/726/182 269/727/182
f 272/725/182 269/727/182 271/728/182
f 269/729/183 270/730/183 274/731/183
f 269/729/183 274/731/183 273/732/183
f 271/733/184 269/734/184 273/735/184
f 271/733/184 273/735/184 275/736/184
f 276/737/185 274/738/185 270/739/185
f 276/737/185 270/739/185 272/740/185
f 280/741/186 278/742/186 277/743/186
f 280/741/186 277/743/186 279/744/186
f 283/745/187 281/746/187 282/747/187
f 283/745/187 282/747/187 284/748/187
f 277/749/188 278/750/188 282/751/188
f 277/749/188 282/751/188 281/752/188
f 279/753/189 277/754/189 281/755/189
f 279/753/189 281/755/189 283/756/189
f 284/757/190 282/758/190 278/759/190
f 284/757/190 278/759/190 280/760/190
f 288/761/191 286/762/191 285/763/191
f 288/761/191 285/763/191 287/764/191
f 291/765/192 289/766/192 290/767/192
f 291/765/192 290/767/192 292/768/192
f 285/769/193 286/770/193 290/771/193
f 285/769/193 290/771/193 289/772/193
f 288/773/194 287/774/194 291/775/194
f 288/773/194 291/775/194 292/776/194
f 287/777/195 285/778/195 289/779/195
f 287/777/195 289/779/195 291/780/195
f 292/781/196 290/782/196 286/783/196
f 292/781/196 286/783/196 288/784/196
f 296/785/197 294/786/197 293/787/197
f 296/785/197 293/787/197 295/788/197
f 299/789/198 297/790/198 298/791/198
f 299/789/198 298/791/198 300/792/198
f 293/793/199 294/794/199 298/795/199
f 293/793/199 298/795/199 297/796/199
f 295/797/200 293/798/200 297/799/200
f 295/797/200 297/799/200 299/800/200
f 300/801/201 298/802/201 294/803/201
f 300/801/201 294/803/201 296/804/201
f 302/805/202 301/806/202 303/807/202
f 302/805/202 303/807/202 304/808/202
f 307/809/203 305/810/203 306/811/203
f 307/809/203 306/811/203 308/812/203
f 305/813/204 301/814/204 302/815/204
f 305/813/204 302/815/204 306/816/204
f 304/817/205 303/818/205 307/819/205
f 304/817/205 307/819/205 308/820/205
f 310/821/206 309/822/206 311/823/206
f 310/821/206 311/823/206 312/824/206
f 315/825/207 313/826/207 314/827/207
f 315/825/207 314/827/207 316/828/207
f 313/829/208 309/830/208 310/831/208
f 313/829/208 310/831/208 314/832/208
f 312/833/209 311/834/209 315/835/209
f 312/833/209 315/835/209 316/836/209
f 318/837/210 317/838/210 319/839/210
f 318/837/210 319/839/210 320/840/210
f 323/841/211 321/842/211 322/843/211
f 323/841/211 322/843/211 324/844/211
f 321/845/212 317/846/212 318/847/212
f 321/845/212 318/847/212 322/848/212
f 320/849/213 319/850/213 323/851/213
f 320/849/213 323/851/213 324/852/213
f 331/853/214 329/854/214 330/855/214
f 331/853/214 330/855/214 332/856/214
f 329/857/215 325/858/215 326/859/215
f 329/857/215 326/859/215 330/860/215
f 328/861/216 327/862/216 331/863/216
f 328/861/216 331/863/216 332/864/216
f 326/865/217 325/866/217 327/867/217
f 326/865/217 327/867/217 328/868/217
f 336/869/218 334/870/218 333/871/218
f 336/869/218 333/871/218 335/872/218
f 339/873/219 337/874/219 338/875/219
f 339/873/219 338/875/219 340/876/219
f 333/877/220 334/878/220 338/879/220
f 333/877/220 338/879/220 337/880/220
f 335/881/221 333/882/221 337/883/221
f 335/881/221 337/883/221 339/884/221
f 340/885/222 338/886/222 334/887/222
f 340/885/222 334/887/222 336/888/222
f 344/889/223 342/890/223 341/891/223
f 344/889/223 341/891/223 343/892/223
f 347/893/224 345/894/224 346/895/224
f 347/893/224 346/895/224 348/896/224
f 341/897/225 342/898/225 346/899/225
f 341/897/225 346/899/225 345/900/225
f 344/901/226 343/902/226 347/903/226
f 344/901/226 347/903/226 348/904/226
f 352/905/227 350/906/227 349/907/227
f 352/905/227 349/907/227 351/908/227
f 355/909/228 353/910/228 354/911/228
f 355/909/228 354/911/228 356/912/228
f 349/913/229 350/914/229 354/915/229
f 349/913/229 354/915/229 353/916/229
f 352/917/230 351/918/230 355/919/230
f 352/917/230 355/919/230 356/920/230
f 351/921/231 349/922/231 353/923/231
f 351/921/231 353/923/231 355/924/231
f 356/925/232 354/926/232 350/927/232
f 356/925/232 350/927/232 352/928/232
usemtl metal
f 360/929/233 358/930/233 357/931/233
f 360/929/233 357/931/233 359/932/233
f 363/933/234 361/934/234 362/935/234
f 363/933/234 362/935/234 364/936/234
f 357/937/235 358/938/235 362/939/235
f 357/937/235 362/939/235 361/940/235
f 360/941/236 359/942/236 363/943/236
f 360/941/236 363/943/236 364/944/236
f 359/945/237 357/946/237 361/947/237
f 359/945/237 361/947/237 363/948/237
f 364/949/238 362/950/238 358/951/238
f 364/949/238 358/951/238 360/952/238
o mortar_frame
v 1.0625 -1.6875 1
v 1.0625 -1.6875 0.8125
v 1.0625 -2.4375 1
v 1.0625 -2.4375 0.8125
v 0.875 -1.6875 1
v 0.875 -1.6875 0.8125
v 0.875 -2.4375 1
v 0.875 -2.4375 0.8125
v 1.125 -2.25 0.9688
v 1.125 -2.25 0.8438
v 1.125 -2.375 0.9688
v 1.125 -2.375 0.8438
v 0.8125 -2.25 0.9688
v 0.8125 -2.25 0.8438
v 0.8125 -2.375 0.9688
v 0.8125 -2.375 0.8438
v -0.0625 -1.6875 1
v -0.0625 -1.6875 0.8125
v -0.0625 -2.4375 1
v -0.0625 -2.4375 0.8125
v 0.125 -1.6875 1
v 0.125 -1.6875 0.8125
v 0.125 -2.4375 1
v 0.125 -2.4375 0.8125
v -0.125 -2.25 0.9688
v -0.125 -2.25 0.8438
v -0.125 -2.375 0.9688
v -0.125 -2.375 0.8438
v 0.1875 -2.25 0.9688
v 0.1875 -2.25 0.8438
v 0.1875 -2.375 0.9688
v 0.1875 -2.375 0.8438
vt 0.1563 0.8125
vt 0.1563 1
vt 0.1094 1
vt 0.1094 0.8125
vt 0.1563 0.8125
vt 0.1563 1
vt 0.1094 1
vt 0.1094 0.8125
vt 0.1094 0.7344
vt 0.1094 0.7813
vt 0.1563 0.7813
vt 0.1563 0.7344
vt 0.1563 0.7344
vt 0.1563 0.7813
vt 0.1094 0.7813
vt 0.1094 0.7344
vt 0.1563 0.8125
vt 0.1563 1
vt 0.1094 1
vt 0.1094 0.8125
vt 0.1563 0.8125
vt 0.1563 1
vt 0.1094 1
vt 0.1094 0.8125
vt 0.1406 0.8125
vt 0.1094 0.8125
vt 0.1094 0.7813
vt 0.1406 0.7813
vt 0.2656 0.9531
vt 0.2969 0.9531
vt 0.2969 0.875
vt 0.2656 0.875
vt 0.2656 0.8438
vt 0.2969 0.8438
vt 0.2969 0.9219
vt 0.2656 0.9219
vt 0.2969 0.9375
vt 0.2656 0.9375
vt 0.2656 0.8594
vt 0.2969 0.8594
vt 0.2656 0.8438
vt 0.2969 0.8438
vt 0.2969 0.9219
vt 0.2656 0.9219
vt 0.1094 1
vt 0.1563 1
vt 0.1563 0.8125
vt 0.1094 0.8125
vt 0.1094 1
vt 0.1563 1
vt 0.1563 0.8125
vt 0.1094 0.8125
vt 0.1563 0.7813
vt 0.1094 0.7813
vt 0.1094 0.7344
vt 0.1563 0.7344
vt 0.1094 0.7813
vt 0.1563 0.7813
vt 0.1563 0.7344
vt 0.1094 0.7344
vt 0.1094 1
vt 0.1563 1
vt 0.1563 0.8125
vt 0.1094 0.8125
vt 0.1094 1
vt 0.1563 1
vt 0.1563 0.8125
vt 0.1094 0.8125
vt 0.1094 0.7813
vt 0.1094 0.8125
vt 0.1406 0.8125
vt 0.1406 0.7813
vt 0.2969 0.875
vt 0.2969 0.9531
vt 0.2656 0.9531
vt 0.2656 0.875
vt 0.2969 0.9219
vt 0.2969 0.8438
vt 0.2656 0.8438
vt 0.2656 0.9219
vt 0.2656 0.8594
vt 0.2656 0.9375
vt 0.2969 0.9375
vt 0.2969 0.8594
vt 0.2969 0.9219
vt 0.2969 0.8438
vt 0.2656 0.8438
vt 0.2656 0.9219
vn 1 0 0
vn -1 0 0
vn 0 1 0
vn 0 -1 0
vn 0 0 1
vn 0 0 -1
vn 1 0 0
vn 0 1 0
vn 0 -1 0
vn 0 0 1
vn 0 0 -1
vn -1 0 0
vn 1 0 0
vn 0 1 0
vn 0 -1 0
vn 0 0 1
vn 0 0 -1
vn -1 0 0
vn 0 1 0
vn 0 -1 0
vn 0 0 1
vn 0 0 -1
usemtl weapon_mortar
f 368/953/239 366/954/239 365/955/239
f 368/953/239 365/955/239 367/956/239
f 371/957/240 369/958/240 370/959/240
f 371/957/240 370/959/240 372/960/240
f 365/961/241 366/962/241 370/963/241
f 365/961/241 370/963/241 369/964/241
f 368/965/242 367/966/242 371/967/242
f 368/965/242 371/967/242 372/968/242
f 367/969/243 365/970/243 369/971/243
f 367/969/243 369/971/243 371/972/243
f 372/973/244 370/974/244 366/975/244
f 372/973/244 366/975/244 368/976/244
f 376/977/245 374/978/245 373/979/245
f 376/977/245 373/979/245 375/980/245
f 373/981/246 374/982/246 378/983/246
f 373/981/246 378/983/246 377/984/246
f 376/985/247 375/986/247 379/987/247
f 376/985/247 379/987/247 380/988/247
f 375/989/248 373/990/248 377/991/248
f 375/989/248 377/991/248 379/992/248
f 380/993/249 378/994/249 374/995/249
f 380/993/249 374/995/249 376/996/249
f 381/997/250 382/998/250 384/999/250
f 381/997/250 384/999/250 383/1000/250
f 386/1001/251 385/1002/251 387/1003/251
f 386/1001/251 387/1003/251 388/1004/251
f 386/1005/252 382/1006/252 381/1007/252
f 386/1005/252 381/1007/252 385/1008/252
f 387/1009/253 383/1010/253 384/1011/253
f 387/1009/253 384/1011/253 388/1012/253
f 385/1013/254 381/1014/254 383/1015/254
f 385/1013/254 383/1015/254 387/1016/254
f 382/1017/255 386/1018/255 388/1019/255
f 382/1017/255 388/1019/255 384/1020/255
f 389/1021/256 390/1022/256 392/1023/256
f 389/1021/256 392/1023/256 391/1024/256
f 394/1025/257 390/1026/257 389/1027/257
f 394/1025/257 389/1027/257 393/1028/257
f 395/1029/258 391/1030/258 392/1031/258
f 395/1029/258 392/1031/258 396/1032/258
f 393/1033/259 389/1034/259 391/1035/259
f 393/1033/259 391/1035/259 395/1036/259
f 390/1037/260 394/1038/260 396/1039/260
f 390/1037/260 396/1039/260 392/1040/260
o mortar_fastener
v 1.0313 -1.4375 0.9688
v 1.0313 -1.4375 0.8438
v 1.0313 -2.1875 0.9688
v 1.0313 -2.1875 0.8438
v 0.9063 -1.4375 0.9688
v 0.9063 -1.4375 0.8438
v 0.9063 -2.1875 0.9688
v 0.9063 -2.1875 0.8438
v 1.0625 -1.1875 1.0313
v 1.0625 -1.1875 0.7813
v 1.0625 -1.4375 1.0313
v 1.0625 -1.4375 0.7813
v 0.875 -1.1875 1.0313
v 0.875 -1.1875 0.7813
v 0.875 -1.4375 1.0313
v 0.875 -1.4375 0.7813
v 0.0938 -1.4375 0.9688
v 0.0938 -1.4375 0.8438
v 0.0938 -2.1875 0.9688
v 0.0938 -2.1875 0.8438
v -0.0312 -1.4375 0.9688
v -0.0312 -1.4375 0.8438
v -0.0312 -2.1875 0.9688
v -0.0312 -2.1875 0.8438
v 0.125 -1.1875 1.0313
v 0.125 -1.1875 0.7813
v 0.125 -1.4375 1.0313
v 0.125 -1.4375 0.7813
v -0.0625 -1.1875 1.0313
v -0.0625 -1.1875 0.7813
v -0.0625 -1.4375 1.0313
v -0.0625 -1.4375 0.7813
vt 0.4219 1
vt 0.4219 0.8125
vt 0.4531 0.8125
vt 0.4531 1
vt 0.4219 1
vt 0.4219 0.8125
vt 0.4531 0.8125
vt 0.4531 1
vt 0.4531 1
vt 0.4531 0.8125
vt 0.4219 0.8125
vt 0.4219 1
vt 0.4531 1
vt 0.4531 0.8125
vt 0.4219 0.8125
vt 0.4219 1
vt 0 0.375
vt 0 0.4375
vt 0.0625 0.4375
vt 0.0625 0.375
vt 0.0625 0.375
vt 0.0625 0.4375
vt 0 0.4375
vt 0 0.375
vt 0.0469 0.2656
vt 0.0469 0.3281
vt 0 0.3281
vt 0 0.2656
vt 0.0469 0.2656
vt 0.0469 0.3281
vt 0 0.3281
vt 0 0.2656
vt 0.0469 0.3281
vt 0.0469 0.2656
vt 0 0.2656
vt 0 0.3281
vt 0.0469 0.2656
vt 0.0469 0.3281
vt 0 0.3281
vt 0 0.2656
vt 0.4219 1
vt 0.4219 0.8125
vt 0.4531 0.8125
vt 0.4531 1
vt 0.4219 1
vt 0.4219 0.8125
vt 0.4531 0.8125
vt 0.4531 1
vt 0.4531 1
vt 0.4531 0.8125
vt 0.4219 0.8125
vt 0.4219 1
vt 0.4531 1
vt 0.4531 0.8125
vt 0.4219 0.8125
vt 0.4219 1
vt 0 0.375
vt 0 0.4375
vt 0.0625 0.4375
vt 0.0625 0.375
vt 0.0625 0.375
vt 0.0625 0.4375
vt 0 0.4375
vt 0 0.375
vt 0.0469 0.2656
vt 0.0469 0.3281
vt 0 0.3281
vt 0 0.2656
vt 0.0469 0.2656
vt 0.0469 0.3281
vt 0 0.3281
vt 0 0.2656
vt 0.0469 0.3281
vt 0.0469 0.2656
vt 0 0.2656
vt 0 0.3281
vt 0.0469 0.2656
vt 0.0469 0.3281
vt 0 0.3281
vt 0 0.2656
vn 1 0 0
vn -1 0 0
vn 0 0 1
vn 0 0 -1
vn 1 0 0
vn -1 0 0
vn 0 1 0
vn 0 -1 0
vn 0 0 1
vn 0 0 -1
vn 1 0 0
vn -1 0 0
vn 0 0 1
vn 0 0 -1
vn 1 0 0
vn -1 0 0
vn 0 1 0
vn 0 -1 0
vn 0 0 1
vn 0 0 -1
usemtl weapon_mortar
f 400/1041/261 398/1042/261 397/1043/261
f 400/1041/261 397/1043/261 399/1044/261
f 403/1045/262 401/1046/262 402/1047/262
f 403/1045/262 402/1047/262 404/1048/262
f 399/1049/263 397/1050/263 401/1051/263
f 399/1049/263 401/1051/263 403/1052/263
f 404/1053/264 402/1054/264 398/1055/264
f 404/1053/264 398/1055/264 400/1056/264
f 408/1057/265 406/1058/265 405/1059/265
f 408/1057/265 405/1059/265 407/1060/265
f 411/1061/266 409/1062/266 410/1063/266
f 411/1061/266 410/1063/266 412/1064/266
usemtl common_thingies
f 405/1065/267 406/1066/267 410/1067/267
f 405/1065/267 410/1067/267 409/1068/267
f 408/1069/268 407/1070/268 411/1071/268
f 408/1069/268 411/1071/268 412/1072/268
f 407/1073/269 405/1074/269 409/1075/269
f 407/1073/269 409/1075/269 411/1076/269
f 412/1077/270 410/1078/270 406/1079/270
f 412/1077/270 406/1079/270 408/1080/270
usemtl weapon_mortar
f 416/1081/271 414/1082/271 413/1083/271
f 416/1081/271 413/1083/271 415/1084/271
f 419/1085/272 417/1086/272 418/1087/272
f 419/1085/272 418/1087/272 420/1088/272
f 415/1089/273 413/1090/273 417/1091/273
f 415/1089/273 417/1091/273 419/1092/273
f 420/1093/274 418/1094/274 414/1095/274
f 420/1093/274 414/1095/274 416/1096/274
f 424/1097/275 422/1098/275 421/1099/275
f 424/1097/275 421/1099/275 423/1100/275
f 427/1101/276 425/1102/276 426/1103/276
f 427/1101/276 426/1103/276 428/1104/276
usemtl common_thingies
f 421/1105/277 422/1106/277 426/1107/277
f 421/1105/277 426/1107/277 425/1108/277
f 424/1109/278 423/1110/278 427/1111/278
f 424/1109/278 427/1111/278 428/1112/278
f 423/1113/279 421/1114/279 425/1115/279
f 423/1113/279 425/1115/279 427/1116/279
f 428/1117/280 426/1118/280 422/1119/280
f 428/1117/280 422/1119/280 424/1120/280
o mortar
v 0.3131 -2.4044 1.3656
v 0.6881 -2.4044 1.3656
v 0.3131 -2.4669 1.3656
v 0.6881 -2.4669 1.3656
v 0.3131 -2.4044 1.7406
v 0.6881 -2.4044 1.7406
v 0.3131 -2.4669 1.7406
v 0.6881 -2.4669 1.7406
v 0.1881 -1.0294 1.4385
v 0.2506 -1.0294 1.4385
v 0.1881 -1.0919 1.3656
v 0.2506 -1.0919 1.3656
v 0.1881 -1.0294 1.7302
v 0.2506 -1.0294 1.7302
v 0.1881 -1.0919 1.8031
v 0.2506 -1.0919 1.8031
v 0.7506 -1.0294 1.4385
v 0.8131 -1.0294 1.4385
v 0.7506 -1.0919 1.3656
v 0.8131 -1.0919 1.3656
v 0.7506 -1.0294 1.7302
v 0.8131 -1.0294 1.7302
v 0.7506 -1.0919 1.8031
v 0.8131 -1.0919 1.8031
v 0.2506 -1.7794 1.3031
v 0.7506 -1.7794 1.3031
v 0.2506 -2.4044 1.3031
v 0.7506 -2.4044 1.3031
v 0.2506 -1.7794 1.8031
v 0.7506 -1.7794 1.8031
v 0.2506 -2.4044 1.8031
v 0.7506 -2.4044 1.8031
v 0.8131 -1.0919 1.8031
v 0.8131 -1.0919 1.3656
v 0.8131 -2.2794 1.8031
v 0.8131 -2.2794 1.3656
v 0.7506 -1.0919 1.8031
v 0.7506 -1.0919 1.3656
v 0.7506 -2.2794 1.8031
v 0.7506 -2.2794 1.3656
v 0.2506 -1.0919 1.8031
v 0.2506 -1.0919 1.3656
v 0.2506 -2.2794 1.8031
v 0.2506 -2.2794 1.3656
v 0.1881 -1.0919 1.8031
v 0.1881 -1.0919 1.3656
v 0.1881 -2.2794 1.8031
v 0.1881 -2.2794 1.3656
vt 0.125 0.5313
vt 0.2188 0.5313
vt 0.2188 0.5156
vt 0.125 0.5156
vt 0.2188 0.5313
vt 0.125 0.5313
vt 0.125 0.5156
vt 0.2188 0.5156
vt 0.125 0.6094
vt 0.2188 0.6094
vt 0.2188 0.5156
vt 0.125 0.5156
vt 0.125 0.6094
vt 0.2188 0.6094
vt 0.2188 0.5938
vt 0.125 0.5938
vt 0.2188 0.5313
vt 0.125 0.5313
vt 0.125 0.5156
vt 0.2188 0.5156
vt 0.1875 1
vt 0.1719 1
vt 0.1719 0.9838
vt 0.1875 0.9838
vt 0.1875 1
vt 0.1719 1
vt 0.1719 0.9838
vt 0.1875 0.9838
vt 0.2344 0.9271
vt 0.2344 1
vt 0.2188 1
vt 0.2188 0.9271
vt 0.263 1
vt 0.1901 1
vt 0.1719 0.9844
vt 0.2813 0.9844
vt 0.263 1
vt 0.1901 1
vt 0.1719 0.9844
vt 0.2813 0.9844
vt 0.1875 1
vt 0.1719 1
vt 0.1719 0.9838
vt 0.1875 0.9838
vt 0.1875 1
vt 0.1719 1
vt 0.1719 0.9838
vt 0.1875 0.9838
vt 0.2344 0.9271
vt 0.2344 1
vt 0.2188 1
vt 0.2188 0.9271
vt 0.263 1
vt 0.1901 1
vt 0.1719 0.9844
vt 0.2813 0.9844
vt 0.263 1
vt 0.1901 1
vt 0.1719 0.9844
vt 0.2813 0.9844
vt 0.125 0.6563
vt 0 0.6563
vt 0 0.5
vt 0.125 0.5
vt 0.125 0.6563
vt 0 0.6563
vt 0 0.5
vt 0.125 0.5
vt 0.5 0.5
vt 0.5 0.625
vt 0.375 0.625
vt 0.375 0.5
vt 0.5 0.5
vt 0.5 0.625
vt 0.375 0.625
vt 0.375 0.5
vt 0.125 0.6563
vt 0 0.6563
vt 0 0.5
vt 0.125 0.5
vt 0.125 0.6563
vt 0 0.6563
vt 0 0.5
vt 0.125 0.5
vt 0.2813 1
vt 0.2813 0.7031
vt 0.1719 0.7031
vt 0.1719 1
vt 0.1719 1
vt 0.1719 0.7031
vt 0.2813 0.7031
vt 0.2813 1
vt 0.1563 0.9844
vt 0.2656 0.9844
vt 0.2656 1
vt 0.1563 1
vt 0.1875 1
vt 0.1875 0.7031
vt 0.1719 0.7031
vt 0.1719 1
vt 0.2813 0.7031
vt 0.2813 1
vt 0.2656 1
vt 0.2656 0.7031
vt 0.2813 1
vt 0.2813 0.7031
vt 0.1719 0.7031
vt 0.1719 1
vt 0.1719 1
vt 0.1719 0.7031
vt 0.2813 0.7031
vt 0.2813 1
vt 0.1719 0.9844
vt 0.2813 0.9844
vt 0.2813 1
vt 0.1719 1
vt 0.1875 1
vt 0.1875 0.7031
vt 0.1719 0.7031
vt 0.1719 1
vt 0.2813 0.7031
vt 0.2813 1
vt 0.2656 1
vt 0.2656 0.7031
vn 0 0 -1
vn 0 0 1
vn 0 -1 0
vn -1 0 0
vn 1 0 0
vn 0 0.76 -0.65
vn 0 0.76 0.65
vn 0 1 0
vn -1 0 0
vn 1 0 0
vn 0 0.76 -0.65
vn 0 0.76 0.65
vn 0 1 0
vn -1 0 0
vn 1 0 0
vn 0 0 -1
vn 0 0 1
vn 0 1 0
vn 0 -1 0
vn -1 0 0
vn 1 0 0
vn 1 0 0
vn -1 0 0
vn 0 -1 0
vn 0 0 1
vn 0 0 -1
vn 1 0 0
vn -1 0 0
vn 0 -1 0
vn 0 0 1
vn 0 0 -1
usemtl weapon_mortar
f 429/1121/281 430/1122/281 432/1123/281
f 429/1121/281 432/1123/281 431/1124/281
f 434/1125/282 433/1126/282 435/1127/282
f 434/1125/282 435/1127/282 436/1128/282
f 435/1129/283 431/1130/283 432/1131/283
f 435/1129/283 432/1131/283 436/1132/283
f 433/1133/284 429/1134/284 431/1135/284
f 433/1133/284 431/1135/284 435/1136/284
f 430/1137/285 434/1138/285 436/1139/285
f 430/1137/285 436/1139/285 432/1140/285
f 437/1141/286 438/1142/286 440/1143/286
f 437/1141/286 440/1143/286 439/1144/286
f 442/1145/287 441/1146/287 443/1147/287
f 442/1145/287 443/1147/287 444/1148/287
f 442/1149/288 438/1150/288 437/1151/288
f 442/1149/288 437/1151/288 441/1152/288
f 441/1153/289 437/1154/289 439/1155/289
f 441/1153/289 439/1155/289 443/1156/289
f 438/1157/290 442/1158/290 444/1159/290
f 438/1157/290 444/1159/290 440/1160/290
f 445/1161/291 446/1162/291 448/1163/291
f 445/1161/291 448/1163/291 447/1164/291
f 450/1165/292 449/1166/292 451/1167/292
f 450/1165/292 451/1167/292 452/1168/292
f 450/1169/293 446/1170/293 445/1171/293
f 450/1169/293 445/1171/293 449/1172/293
f 449/1173/294 445/1174/294 447/1175/294
f 449/1173/294 447/1175/294 451/1176/294
f 446/1177/295 450/1178/295 452/1179/295
f 446/1177/295 452/1179/295 448/1180/295
f 453/1181/296 454/1182/296 456/1183/296
f 453/1181/296 456/1183/296 455/1184/296
f 458/1185/297 457/1186/297 459/1187/297
f 458/1185/297 459/1187/297 460/1188/297
f 458/1189/298 454/1190/298 453/1191/298
f 458/1189/298 453/1191/298 457/1192/298
f 459/1193/299 455/1194/299 456/1195/299
f 459/1193/299 456/1195/299 460/1196/299
f 457/1197/300 453/1198/300 455/1199/300
f 457/1197/300 455/1199/300 459/1200/300
f 454/1201/301 458/1202/301 460/1203/301
f 454/1201/301 460/1203/301 456/1204/301
f 464/1205/302 462/1206/302 461/1207/302
f 464/1205/302 461/1207/302 463/1208/302
f 467/1209/303 465/1210/303 466/1211/303
f 467/1209/303 466/1211/303 468/1212/303
f 464/1213/304 463/1214/304 467/1215/304
f 464/1213/304 467/1215/304 468/1216/304
f 463/1217/305 461/1218/305 465/1219/305
f 463/1217/305 465/1219/305 467/1220/305
f 468/1221/306 466/1222/306 462/1223/306
f 468/1221/306 462/1223/306 464/1224/306
f 472/1225/307 470/1226/307 469/1227/307
f 472/1225/307 469/1227/307 471/1228/307
f 475/1229/308 473/1230/308 474/1231/308
f 475/1229/308 474/1231/308 476/1232/308
f 472/1233/309 471/1234/309 475/1235/309
f 472/1233/309 475/1235/309 476/1236/309
f 471/1237/310 469/1238/310 473/1239/310
f 471/1237/310 473/1239/310 475/1240/310
f 476/1241/311 474/1242/311 470/1243/311
f 476/1241/311 470/1243/311 472/1244/311
o barrel
v 0.7194 -1.7794 1.3969
v 0.7194 -0.4044 1.3969
v 0.6569 -1.7794 1.3344
v 0.6569 -0.4044 1.3344
v 0.7194 -1.7794 1.7094
v 0.7194 -0.4044 1.7094
v 0.6569 -1.7794 1.7719
v 0.6569 -0.4044 1.7719
v 0.4069 -0.7794 1.7094
v 0.5944 -0.7794 1.7094
v 0.4069 -0.9044 1.7719
v 0.5944 -0.9044 1.7719
v 0.4069 -0.7794 1.7719
v 0.5944 -0.7794 1.7719
v 0.4069 -0.8419 1.7719
v 0.5944 -0.8419 1.7719
v 0.6569 -0.9669 1.7719
v 0.6569 -0.9669 1.7094
v 0.6569 -1.7794 1.7719
v 0.6569 -1.7794 1.7094
v 0.3444 -0.9669 1.7719
v 0.3444 -0.9669 1.7094
v 0.3444 -1.7794 1.7719
v 0.3444 -1.7794 1.7094
v 0.6569 -0.7794 1.7719
v 0.6569 -0.9669 1.7719
v 0.5944 -0.7794 1.7719
v 0.5944 -0.9669 1.7719
v 0.4069 -0.7794 1.7719
v 0.4069 -0.7794 1.7094
v 0.4069 -0.9669 1.7719
v 0.3444 -0.7794 1.7719
v 0.3444 -0.7794 1.7094
v 0.3444 -0.9669 1.7719
v 0.6569 -0.4044 1.7719
v 0.6569 -0.4044 1.7094
v 0.6569 -0.7794 1.7719
v 0.6569 -0.7794 1.7094
v 0.3444 -0.4044 1.7719
v 0.3444 -0.4044 1.7094
v 0.3444 -0.7794 1.7719
v 0.3444 -0.7794 1.7094
v 0.6569 -0.7794 1.7094
v 0.6569 -0.9669 1.7094
v 0.5944 -0.7794 1.7094
v 0.5944 -0.9669 1.7094
v 0.4069 -0.7794 1.7094
v 0.4069 -0.9669 1.7094
v 0.3444 -0.7794 1.7094
v 0.3444 -0.9669 1.7094
v 0.3131 -1.1544 1.6156
v 0.3131 -1.1544 1.4906
v 0.3131 -1.2794 1.6156
v 0.3131 -1.2794 1.4906
v 0.0631 -1.1544 1.6156
v 0.0631 -1.1544 1.4906
v 0.0631 -1.2794 1.6156
v 0.0631 -1.2794 1.4906
v 0.6869 -1.1544 1.6156
v 0.6869 -1.1544 1.4906
v 0.6869 -1.2794 1.6156
v 0.6869 -1.2794 1.4906
v 0.9369 -1.1544 1.6156
v 0.9369 -1.1544 1.4906
v 0.9369 -1.2794 1.6156
v 0.9369 -1.2794 1.4906
v 0.3444 -1.6544 1.7719
v 0.6569 -1.6544 1.7719
v 0.3444 -1.7794 1.7719
v 0.6569 -1.7794 1.7719
v 0.3444 -1.6544 1.8969
v 0.6569 -1.6544 1.8969
v 0.3444 -1.7169 1.8969
v 0.6569 -1.7169 1.8969
v 0.6569 -1.5294 1.8969
v 0.6569 -1.5294 1.7719
v 0.6569 -1.6544 1.8969
v 0.6569 -1.6544 1.7719
v 0.5944 -1.5294 1.8969
v 0.5944 -1.5294 1.7719
v 0.5944 -1.6544 1.8969
v 0.5944 -1.6544 1.7719
v 0.4069 -1.5294 1.8969
v 0.4069 -1.5294 1.7719
v 0.4069 -1.6544 1.8969
v 0.4069 -1.6544 1.7719
v 0.3444 -1.5294 1.8969
v 0.3444 -1.5294 1.7719
v 0.3444 -1.6544 1.8969
v 0.3444 -1.6544 1.7719
v 0.2819 -1.7794 1.3969
v 0.2819 -0.4044 1.3969
v 0.3444 -1.7794 1.3344
v 0.3444 -0.4044 1.3344
v 0.2819 -1.7794 1.7094
v 0.2819 -0.4044 1.7094
v 0.3444 -1.7794 1.7719
v 0.3444 -0.4044 1.7719
v 0.3444 -0.4044 1.3344
v 0.6569 -0.4044 1.3344
v 0.3444 -1.7794 1.3344
v 0.6569 -1.7794 1.3344
v 0.3444 -0.4044 1.3969
v 0.6569 -0.4044 1.3969
v 0.3444 -1.7794 1.3969
v 0.6569 -1.7794 1.3969
v 0.7819 -0.8419 1.5844
v 0.7819 -0.7794 1.5844
v 0.7819 -0.8419 1.5219
v 0.7819 -0.7794 1.5219
v 0.7194 -0.8419 1.5844
v 0.7194 -0.7794 1.5844
v 0.7194 -0.8419 1.5219
v 0.7194 -0.7794 1.5219
v 0.7819 -0.5919 1.5844
v 0.7819 -0.5294 1.5844
v 0.7819 -0.5919 1.5219
v 0.7819 -0.5294 1.5219
v 0.7194 -0.5919 1.5844
v 0.7194 -0.5294 1.5844
v 0.7194 -0.5919 1.5219
v 0.7194 -0.5294 1.5219
v 0.9694 -0.9669 1.6469
v 0.9694 -0.4669 1.6469
v 0.9694 -0.9669 1.4594
v 0.9694 -0.4669 1.4594
v 0.7819 -0.9669 1.6469
v 0.7819 -0.4669 1.6469
v 0.7819 -0.9669 1.4594
v 0.7819 -0.4669 1.4594
v 0.9381 -0.4982 1.6156
v 0.9381 -0.4357 1.6156
v 0.9381 -0.4982 1.4906
v 0.9381 -0.4357 1.4906
v 0.8131 -0.4982 1.6156
v 0.8131 -0.4357 1.6156
v 0.8131 -0.4982 1.4906
v 0.8131 -0.4357 1.4906
vt 0.0143 1
vt 0.0143 0.6563
vt 0 0.6563
vt 0 1
vt 0.0924 0.6563
vt 0.0781 0.6563
vt 0.0781 1
vt 0.0924 1
vt 0.0938 0.6563
vt 0.0156 0.6563
vt 0.0156 1
vt 0.0938 1
vt 0.1094 1
vt 0.1094 0.6563
vt 0 0.6563
vt 0 1
vt 0.0938 0.6719
vt 0.0156 0.6719
vt 0 0.6563
vt 0.1094 0.6563
vt 0.0313 0.8906
vt 0.0781 0.8906
vt 0.0781 0.8594
vt 0.0313 0.8594
vt 0.0625 0.7513
vt 0.0156 0.7513
vt 0.0156 0.767
vt 0.0625 0.767
vt 0.0313 0.8438
vt 0.0313 0.8594
vt 0.0781 0.8594
vt 0.0781 0.8438
vt 0.0938 0.6563
vt 0.0938 0.8594
vt 0.0156 0.8594
vt 0.0156 0.6563
vt 0.0156 0.6719
vt 0.0156 0.875
vt 0.0938 0.875
vt 0.0938 0.6719
vt 0.0781 0.8125
vt 0.0781 0.8594
vt 0.0938 0.8594
vt 0.0938 0.8125
vt 0 1
vt 0.0156 1
vt 0.0156 0.9844
vt 0 0.9844
vt 0.0313 0.8125
vt 0.0313 0.8594
vt 0.0156 0.8594
vt 0.0156 0.8125
vt 0.0938 0.6719
vt 0.0938 0.6563
vt 0.0156 0.6563
vt 0.0156 0.6719
vt 0.0938 0.9063
vt 0.0938 1
vt 0.0156 1
vt 0.0156 0.9063
vt 0 0.9063
vt 0 1
vt 0.0781 1
vt 0.0781 0.9063
vt 0.0781 0.7813
vt 0.0781 0.8281
vt 0.0938 0.8281
vt 0.0938 0.7813
vt 0.0156 0.7813
vt 0.0156 0.8281
vt 0.0313 0.8281
vt 0.0313 0.7813
vt 0.1406 0.8125
vt 0.1406 0.7813
vt 0.1094 0.7813
vt 0.1094 0.8125
vt 0.8906 0.2031
vt 0.8906 0.2344
vt 0.8281 0.2344
vt 0.8281 0.2031
vt 0.9531 0.0938
vt 0.9844 0.0938
vt 0.9844 0.1563
vt 0.9531 0.1563
vt 0.9063 0.2344
vt 0.9063 0.2031
vt 0.8438 0.2031
vt 0.8438 0.2344
vt 0.9063 0.2031
vt 0.9063 0.2344
vt 0.8438 0.2344
vt 0.8438 0.2031
vt 0.1094 0.7813
vt 0.1406 0.7813
vt 0.1406 0.8125
vt 0.1094 0.8125
vt 0.8281 0.2344
vt 0.8906 0.2344
vt 0.8906 0.2031
vt 0.8281 0.2031
vt 0.9844 0.1563
vt 0.9844 0.0938
vt 0.9531 0.0938
vt 0.9531 0.1563
vt 0.8438 0.2031
vt 0.9063 0.2031
vt 0.9063 0.2344
vt 0.8438 0.2344
vt 0.8438 0.2344
vt 0.9063 0.2344
vt 0.9063 0.2031
vt 0.8438 0.2031
vt 0.125 0.9844
vt 0.0469 0.9844
vt 0.0469 0.9688
vt 0.125 0.9688
vt 0 1
vt 0.0313 1
vt 0.0313 0.9219
vt 0 0.9219
vt 0.0313 0.9063
vt 0 0.9063
vt 0 0.8281
vt 0.0313 0.8281
vt 0.1094 0.9844
vt 0.0781 0.9844
vt 0.0781 0.9531
vt 0.1094 0.9688
vt 0.1094 0.9844
vt 0.0781 0.9844
vt 0.0781 0.9688
vt 0.1094 0.9531
vt 0.0625 0.9688
vt 0.0625 1
vt 0.0313 1
vt 0.0313 0.9688
vt 0.0625 0.9688
vt 0.0625 1
vt 0.0313 1
vt 0.0313 0.9688
vt 0.0625 1
vt 0.0313 1
vt 0.0313 0.9844
vt 0.0625 0.9844
vt 0.0313 0.9688
vt 0.0313 1
vt 0.0156 1
vt 0.0156 0.9688
vt 0.0625 0.9688
vt 0.0625 1
vt 0.0313 1
vt 0.0313 0.9688
vt 0.0625 0.9688
vt 0.0625 1
vt 0.0313 1
vt 0.0313 0.9688
vt 0.0625 1
vt 0.0313 1
vt 0.0313 0.9844
vt 0.0625 0.9844
vt 0.0313 0.9688
vt 0.0313 1
vt 0.0156 1
vt 0.0156 0.9688
vt 0.0781 0.6563
vt 0.0924 0.6563
vt 0.0924 1
vt 0.0781 1
vt 0.0299 1
vt 0.0299 0.6563
vt 0.0156 0.6563
vt 0.0156 1
vt 0.0938 1
vt 0.0938 0.6563
vt 0.0156 0.6563
vt 0.0156 1
vt 0.1094 0.6719
vt 0.0938 0.6563
vt 0.0156 0.6563
vt 0 0.6719
vt 0.1094 1
vt 0.0313 1
vt 0.0313 0.6563
vt 0.1094 0.6563
vt 0.1094 1
vt 0.0313 1
vt 0.0313 0.6563
vt 0.1094 0.6563
vt 0.0156 0.6563
vt 0.0156 0.6719
vt 0.0938 0.6719
vt 0.0938 0.6563
vt 0 0.6563
vt 0.1094 0.6563
vt 0.1094 1
vt 0 1
vt 0.7344 0.9844
vt 0.7344 1
vt 0.7188 1
vt 0.7188 0.9844
vt 0.7344 0.9844
vt 0.7344 1
vt 0.7188 1
vt 0.7188 0.9844
vt 0.7344 0.9844
vt 0.7344 1
vt 0.7188 1
vt 0.7188 0.9844
vt 0.7344 0.9844
vt 0.7344 1
vt 0.7188 1
vt 0.7188 0.9844
vt 0.7344 0.9844
vt 0.7344 1
vt 0.7188 1
vt 0.7188 0.9844
vt 0.7344 0.9844
vt 0.7344 1
vt 0.7188 1
vt 0.7188 0.9844
vt 0.7344 0.9844
vt 0.7344 1
vt 0.7188 1
vt 0.7188 0.9844
vt 0.7344 0.9844
vt 0.7344 1
vt 0.7188 1
vt 0.7188 0.9844
vt 0.1094 0.4375
vt 0.0625 0.4375
vt 0.0625 0.3125
vt 0.1094 0.3125
vt 0.0625 0.3125
vt 0.1094 0.3125
vt 0.1094 0.4375
vt 0.0625 0.4375
vt 0.1094 0.3125
vt 0.1094 0.4375
vt 0.0625 0.4375
vt 0.0625 0.3125
vt 0.0625 0.4375
vt 0.0625 0.3125
vt 0.1094 0.3125
vt 0.1094 0.4375
vt 0.1094 0.3125
vt 0.1094 0.3594
vt 0.0625 0.3594
vt 0.0625 0.3125
vt 0.1094 0.3906
vt 0.1094 0.4375
vt 0.0625 0.4375
vt 0.0625 0.3906
vt 0.1406 0.3125
vt 0.1406 0.3438
vt 0.125 0.3438
vt 0.125 0.3125
vt 0.1406 0.3125
vt 0.1406 0.3438
vt 0.125 0.3438
vt 0.125 0.3125
vt 0.1094 0.3281
vt 0.1094 0.3438
vt 0.1406 0.3438
vt 0.1406 0.3281
vt 0.1094 0.3125
vt 0.1094 0.3281
vt 0.1406 0.3281
vt 0.1406 0.3125
vt 0.1406 0.3125
vt 0.1406 0.3438
vt 0.1094 0.3438
vt 0.1094 0.3125
vn 0.71 0 -0.71
vn 0.71 0 0.71
vn 1 0 0
vn -1 0 0
vn 0 1 0
vn 0 -0.45 -0.89
vn 0 0 1
vn 0 0 1
vn 0 0 1
vn 0 0 -1
vn 0 0 1
vn 0 1 0
vn 0 0 1
vn 0 1 0
vn 0 0 1
vn 0 0 -1
vn 0 0 -1
vn 0 0 -1
vn -1 0 0
vn 0 1 0
vn 0 -1 0
vn 0 0 1
vn 0 0 -1
vn 1 0 0
vn 0 1 0
vn 0 -1 0
vn 0 0 1
vn 0 0 -1
vn 0 0 1
vn 0 1 0
vn 0 -0.89 0.45
vn -1 0 0
vn 1 0 0
vn 1 0 0
vn -1 0 0
vn 0 1 0
vn 0 0 1
vn 1 0 0
vn -1 0 0
vn 0 1 0
vn 0 0 1
vn -0.71 0 -0.71
vn -0.71 0 0.71
vn -1 0 0
vn 0 1 0
vn 0 0 -1
vn 0 0 1
vn 0 1 0
vn 1 0 0
vn 0 0 1
vn 0 0 -1
vn 0 -1 0
vn 0 1 0
vn 0 0 1
vn 0 0 -1
vn 0 -1 0
vn 0 1 0
vn 1 0 0
vn -1 0 0
vn 0 0 1
vn 0 0 -1
vn 0 -1 0
vn 0 1 0
vn 1 0 0
vn -1 0 0
vn 0 0 1
vn 0 0 -1
vn 0 1 0
usemtl weapon_mortar
f 478/1245/312 477/1246/312 479/1247/312
f 478/1245/312 479/1247/312 480/1248/312
f 483/1249/313 481/1250/313 482/1251/313
f 483/1249/313 482/1251/313 484/1252/313
f 481/1253/314 477/1254/314 478/1255/314
f 481/1253/314 478/1255/314 482/1256/314
f 480/1257/315 479/1258/315 483/1259/315
f 480/1257/315 483/1259/315 484/1260/315
f 482/1261/316 478/1262/316 480/1263/316
f 482/1261/316 480/1263/316 484/1264/316
f 485/1265/317 486/1266/317 488/1267/317
f 485/1265/317 488/1267/317 487/1268/317
f 490/1269/318 489/1270/318 491/1271/318
f 490/1269/318 491/1271/318 492/1272/318
f 491/1273/319 487/1274/319 488/1275/319
f 491/1273/319 488/1275/319 492/1276/319
f 495/1277/320 493/1278/320 497/1279/320
f 495/1277/320 497/1279/320 499/1280/320
f 500/1281/321 498/1282/321 494/1283/321
f 500/1281/321 494/1283/321 496/1284/321
f 502/1285/322 501/1286/322 503/1287/322
f 502/1285/322 503/1287/322 504/1288/322
f 505/1289/323 506/1290/323 509/1291/323
f 505/1289/323 509/1291/323 508/1292/323
f 507/1293/324 505/1294/324 508/1295/324
f 507/1293/324 508/1295/324 510/1296/324
f 511/1297/325 512/1298/325 516/1299/325
f 511/1297/325 516/1299/325 515/1300/325
f 513/1301/326 511/1302/326 515/1303/326
f 513/1301/326 515/1303/326 517/1304/326
f 518/1305/327 516/1306/327 512/1307/327
f 518/1305/327 512/1307/327 514/1308/327
f 522/1309/328 521/1310/328 519/1311/328
f 522/1309/328 519/1311/328 520/1312/328
f 526/1313/329 525/1314/329 523/1315/329
f 526/1313/329 523/1315/329 524/1316/329
f 533/1317/330 531/1318/330 532/1319/330
f 533/1317/330 532/1319/330 534/1320/330
usemtl common_steel_norivets
f 527/1321/331 528/1322/331 532/1323/331
f 527/1321/331 532/1323/331 531/1324/331
f 530/1325/332 529/1326/332 533/1327/332
f 530/1325/332 533/1327/332 534/1328/332
f 529/1329/333 527/1330/333 531/1331/333
f 529/1329/333 531/1331/333 533/1332/333
f 534/1333/334 532/1334/334 528/1335/334
f 534/1333/334 528/1335/334 530/1336/334
usemtl weapon_mortar
f 540/1337/335 539/1338/335 541/1339/335
f 540/1337/335 541/1339/335 542/1340/335
usemtl common_steel_norivets
f 540/1341/336 536/1342/336 535/1343/336
f 540/1341/336 535/1343/336 539/1344/336
f 541/1345/337 537/1346/337 538/1347/337
f 541/1345/337 538/1347/337 542/1348/337
f 539/1349/338 535/1350/338 537/1351/338
f 539/1349/338 537/1351/338 541/1352/338
f 536/1353/339 540/1354/339 542/1355/339
f 536/1353/339 542/1355/339 538/1356/339
f 548/1357/340 547/1358/340 549/1359/340
f 548/1357/340 549/1359/340 550/1360/340
f 548/1361/341 544/1362/341 543/1363/341
f 548/1361/341 543/1363/341 547/1364/341
f 549/1365/342 545/1366/342 546/1367/342
f 549/1365/342 546/1367/342 550/1368/342
f 547/1369/343 543/1370/343 545/1371/343
f 547/1369/343 545/1371/343 549/1372/343
f 544/1373/344 548/1374/344 550/1375/344
f 544/1373/344 550/1375/344 546/1376/344
f 554/1377/345 552/1378/345 551/1379/345
f 554/1377/345 551/1379/345 553/1380/345
f 557/1381/346 555/1382/346 556/1383/346
f 557/1381/346 556/1383/346 558/1384/346
f 551/1385/347 552/1386/347 556/1387/347
f 551/1385/347 556/1387/347 555/1388/347
f 553/1389/348 551/1390/348 555/1391/348
f 553/1389/348 555/1391/348 557/1392/348
f 562/1393/349 560/1394/349 559/1395/349
f 562/1393/349 559/1395/349 561/1396/349
f 565/1397/350 563/1398/350 564/1399/350
f 565/1397/350 564/1399/350 566/1400/350
f 559/1401/351 560/1402/351 564/1403/351
f 559/1401/351 564/1403/351 563/1404/351
f 561/1405/352 559/1406/352 563/1407/352
f 561/1405/352 563/1407/352 565/1408/352
usemtl weapon_mortar
f 569/1409/353 567/1410/353 568/1411/353
f 569/1409/353 568/1411/353 570/1412/353
f 572/1413/354 571/1414/354 573/1415/354
f 572/1413/354 573/1415/354 574/1416/354
f 568/1417/355 567/1418/355 571/1419/355
f 568/1417/355 571/1419/355 572/1420/355
f 570/1421/356 568/1422/356 572/1423/356
f 570/1421/356 572/1423/356 574/1424/356
f 575/1425/357 576/1426/357 578/1427/357
f 575/1425/357 578/1427/357 577/1428/357
f 580/1429/358 579/1430/358 581/1431/358
f 580/1429/358 581/1431/358 582/1432/358
f 580/1433/359 576/1434/359 575/1435/359
f 580/1433/359 575/1435/359 579/1436/359
f 573/1437/360 569/1438/360 570/1439/360
f 573/1437/360 570/1439/360 574/1440/360
f 583/1441/361 584/1442/361 588/1443/361
f 583/1441/361 588/1443/361 587/1444/361
f 586/1445/362 585/1446/362 589/1447/362
f 586/1445/362 589/1447/362 590/1448/362
f 585/1449/363 583/1450/363 587/1451/363
f 585/1449/363 587/1451/363 589/1452/363
f 590/1453/364 588/1454/364 584/1455/364
f 590/1453/364 584/1455/364 586/1456/364
f 591/1457/365 592/1458/365 596/1459/365
f 591/1457/365 596/1459/365 595/1460/365
f 594/1461/366 593/1462/366 597/1463/366
f 594/1461/366 597/1463/366 598/1464/366
f 593/1465/367 591/1466/367 595/1467/367
f 593/1465/367 595/1467/367 597/1468/367
f 598/1469/368 596/1470/368 592/1471/368
f 598/1469/368 592/1471/368 594/1472/368
f 602/1473/369 600/1474/369 599/1475/369
f 602/1473/369 599/1475/369 601/1476/369
f 605/1477/370 603/1478/370 604/1479/370
f 605/1477/370 604/1479/370 606/1480/370
f 599/1481/371 600/1482/371 604/1483/371
f 599/1481/371 604/1483/371 603/1484/371
f 602/1485/372 601/1486/372 605/1487/372
f 602/1485/372 605/1487/372 606/1488/372
f 601/1489/373 599/1490/373 603/1491/373
f 601/1489/373 603/1491/373 605/1492/373
f 606/1493/374 604/1494/374 600/1495/374
f 606/1493/374 600/1495/374 602/1496/374
f 610/1497/375 608/1498/375 607/1499/375
f 610/1497/375 607/1499/375 609/1500/375
f 613/1501/376 611/1502/376 612/1503/376
f 613/1501/376 612/1503/376 614/1504/376
f 607/1505/377 608/1506/377 612/1507/377
f 607/1505/377 612/1507/377 611/1508/377
f 610/1509/378 609/1510/378 613/1511/378
f 610/1509/378 613/1511/378 614/1512/378
f 614/1513/379 612/1514/379 608/1515/379
f 614/1513/379 608/1515/379 610/1516/379
o sights
v 0.4069 -0.9044 1.8344
v 0.5944 -0.9044 1.8344
v 0.4069 -0.9669 1.8344
v 0.5944 -0.9669 1.8344
v 0.4694 -0.9044 1.8969
v 0.5319 -0.9044 1.8969
v 0.4694 -0.9669 1.8969
v 0.5319 -0.9669 1.8969
v 0.5944 -0.9044 1.8344
v 0.5944 -0.9044 1.6469
v 0.5944 -0.9669 1.8344
v 0.5944 -0.9669 1.6469
v 0.4069 -0.9044 1.8344
v 0.4069 -0.9044 1.6469
v 0.4069 -0.9669 1.8344
v 0.4069 -0.9669 1.6469
v 0.5319 -0.9357 1.8656
v 0.5319 -0.9357 1.8031
v 0.5319 -1.5607 1.8656
v 0.5319 -1.5607 1.8031
v 0.4694 -0.9357 1.8656
v 0.4694 -0.9357 1.8031
v 0.4694 -1.5607 1.8656
v 0.4694 -1.5607 1.8031
v 0.7194 -1.5607 1.8656
v 0.7194 -1.5607 1.8031
v 0.7194 -1.6232 1.8656
v 0.7194 -1.6232 1.8031
v 0.2819 -1.5607 1.8656
v 0.2819 -1.5607 1.8031
v 0.2819 -1.6232 1.8656
v 0.2819 -1.6232 1.8031
vt 0 1
vt 0.0469 1
vt 0.0469 0.9844
vt 0 0.9844
vt 0 1
vt 0.0156 1
vt 0.0156 0.9531
vt 0 0.9531
vt 0 1
vt 0.0156 1
vt 0.0156 0.9531
vt 0 0.9531
vt 0 1
vt 0.0156 1
vt 0.0156 0.9844
vt 0 0.9844
vt 0 1
vt 0.0156 1
vt 0.0156 0.9844
vt 0 0.9844
vt 0.0938 0.9688
vt 0.0938 0.9844
vt 0.0469 0.9844
vt 0.0469 0.9688
vt 0.0938 0.9688
vt 0.0938 0.9844
vt 0.0469 0.9844
vt 0.0469 0.9688
vt 0 0.9219
vt 0.0469 0.9219
vt 0.0469 0.875
vt 0 0.875
vt 0.0469 0.875
vt 0 0.875
vt 0 0.9219
vt 0.0469 0.9219
vt 0.0938 0.9844
vt 0.0938 1
vt 0.0469 1
vt 0.0469 0.9844
vt 0.8125 0.0469
vt 0.8125 0.2031
vt 0.7969 0.2031
vt 0.7969 0.0469
vt 0.8125 0.0469
vt 0.8125 0.2031
vt 0.7969 0.2031
vt 0.7969 0.0469
vt 0.8125 0.0469
vt 0.8125 0.2031
vt 0.7969 0.2031
vt 0.7969 0.0469
vt 0.8125 0.0469
vt 0.8125 0.2031
vt 0.7969 0.2031
vt 0.7969 0.0469
vt 0.8438 0.1094
vt 0.8438 0.125
vt 0.8281 0.125
vt 0.8281 0.1094
vt 0.8438 0.1094
vt 0.8438 0.125
vt 0.8281 0.125
vt 0.8281 0.1094
vt 0.9375 0.1094
vt 0.9375 0.125
vt 0.8281 0.125
vt 0.8281 0.1094
vt 0.9375 0.1094
vt 0.9375 0.125
vt 0.8281 0.125
vt 0.8281 0.1094
vt 0.9375 0.1094
vt 0.9375 0.125
vt 0.8281 0.125
vt 0.8281 0.1094
vt 0.9375 0.1094
vt 0.9375 0.125
vt 0.8281 0.125
vt 0.8281 0.1094
vn 0 0 1
vn 0 1 0
vn 0 -1 0
vn -0.71 0 0.71
vn 0.71 0 0.71
vn 1 0 0
vn -1 0 0
vn 0 1 0
vn 0 -1 0
vn 0 0 -1
vn 1 0 0
vn -1 0 0
vn 0 0 1
vn 0 0 -1
vn 1 0 0
vn -1 0 0
vn 0 1 0
vn 0 -1 0
vn 0 0 1
vn 0 0 -1
usemtl common_steel_norivets
f 620/1517/380 619/1518/380 621/1519/380
f 620/1517/380 621/1519/380 622/1520/380
f 620/1521/381 616/1522/381 615/1523/381
f 620/1521/381 615/1523/381 619/1524/381
f 621/1525/382 617/1526/382 618/1527/382
f 621/1525/382 618/1527/382 622/1528/382
f 619/1529/383 615/1530/383 617/1531/383
f 619/1529/383 617/1531/383 621/1532/383
f 616/1533/384 620/1534/384 622/1535/384
f 616/1533/384 622/1535/384 618/1536/384
f 626/1537/385 624/1538/385 623/1539/385
f 626/1537/385 623/1539/385 625/1540/385
f 629/1541/386 627/1542/386 628/1543/386
f 629/1541/386 628/1543/386 630/1544/386
f 623/1545/387 624/1546/387 628/1547/387
f 623/1545/387 628/1547/387 627/1548/387
f 626/1549/388 625/1550/388 629/1551/388
f 626/1549/388 629/1551/388 630/1552/388
f 630/1553/389 628/1554/389 624/1555/389
f 630/1553/389 624/1555/389 626/1556/389
f 634/1557/390 632/1558/390 631/1559/390
f 634/1557/390 631/1559/390 633/1560/390
f 637/1561/391 635/1562/391 636/1563/391
f 637/1561/391 636/1563/391 638/1564/391
f 633/1565/392 631/1566/392 635/1567/392
f 633/1565/392 635/1567/392 637/1568/392
f 638/1569/393 636/1570/393 632/1571/393
f 638/1569/393 632/1571/393 634/1572/393
f 642/1573/394 640/1574/394 639/1575/394
f 642/1573/394 639/1575/394 641/1576/394
f 645/1577/395 643/1578/395 644/1579/395
f 645/1577/395 644/1579/395 646/1580/395
f 639/1581/396 640/1582/396 644/1583/396
f 639/1581/396 644/1583/396 643/1584/396
f 642/1585/397 641/1586/397 645/1587/397
f 642/1585/397 645/1587/397 646/1588/397
f 641/1589/398 639/1590/398 643/1591/398
f 641/1589/398 643/1591/398 645/1592/398
f 646/1593/399 644/1594/399 640/1595/399
f 646/1593/399 640/1595/399 642/1596/399