# Made by Pabilo8 with Blockbench
# Exported with IIToolkit Plugin
mtllib searchlight.mtl


o base
v 1.4375 -2.5625 2.4375
v 1.4375 -2.5625 0.5625
v 1.4375 -2.75 2.4375
v 1.4375 -2.75 0.5625
v -0.4375 -2.5625 2.4375
v -0.4375 -2.5625 0.5625
v -0.4375 -2.75 2.4375
v -0.4375 -2.75 0.5625
v -0.4375 -2.5625 1.5
v -0.4375 -2.75 1.5
v 1.4375 -2.75 1.5
v 1.4375 -2.5625 1.5
v 0.5 -2.5625 0.5625
v 0.5 -2.5625 1.5
v 0.5 -2.5625 2.4375
v 0.5 -2.75 2.4375
v 0.5 -2.75 1.5
v 0.5 -2.75 0.5625
vt 0.453125 0.046875
vt 0.21875 0.046875
vt 0.21875 0
vt 0.453125 0
vt 0.09375 0
vt 0.328125 0
vt 0.328125 0.046875
vt 0.09375 0.046875
vt 0 0.765625
vt 0.234375 0.765625
vt 0.234375 1
vt 0 1
vt 0 0.25
vt 0.234375 0.25
vt 0.234375 0.484375
vt 0 0.484375
vt 0.0625 0
vt 0.296875 0
vt 0.296875 0.046875
vt 0.0625 0.046875
vt 0.4375 0.046875
vt 0.203125 0.046875
vt 0.203125 0
vt 0.4375 0
vt 0.40625 0.046875
vt 0.171875 0.046875
vt 0.171875 0
vt 0.40625 0
vt 0 0.765625
vt 0.234375 0.765625
vt 0.234375 1
vt 0 1
vt 0.078125 0
vt 0.3125 0
vt 0.3125 0.046875
vt 0.078125 0.046875
vt 0 0.25
vt 0.234375 0.25
vt 0.234375 0.484375
vt 0 0.484375
vt 0.75 1
vt 0.515625 1
vt 0.515625 0.765625
vt 0.75 0.765625
vt 0.75 0.484375
vt 0.515625 0.484375
vt 0.515625 0.25
vt 0.75 0.25
vt 0.453125 0.046875
vt 0.21875 0.046875
vt 0.21875 0
vt 0.453125 0
vt 0.75 1
vt 0.515625 1
vt 0.515625 0.765625
vt 0.75 0.765625
vt 0.75 0.484375
vt 0.515625 0.484375
vt 0.515625 0.25
vt 0.75 0.25
vt 0.078125 0
vt 0.3125 0
vt 0.3125 0.046875
vt 0.078125 0.046875
vn 1 0 0
vn -1 0 0
vn 0 1 0
vn 0 -1 0
vn 0 0 1
vn 0 0 -1
vn -1 0 0
vn 0 -1 0
vn 1 0 0
vn 0 1 0
vn 0 1 0
vn 0 1 0
vn 0 0 1
vn 0 -1 0
vn 0 -1 0
vn 0 0 -1
usemtl common_bottom
f 2/1/1 12/2/1 11/3/1
f 2/1/1 11/3/1 4/4/1
f 8/5/2 10/6/2 9/7/2
f 8/5/2 9/7/2 6/8/2
f 9/9/3 14/10/3 13/11/3
f 9/9/3 13/11/3 6/12/3
f 8/13/4 18/14/4 17/15/4
f 8/13/4 17/15/4 10/16/4
f 7/17/5 16/18/5 15/19/5
f 7/17/5 15/19/5 5/20/5
f 6/21/6 13/22/6 18/23/6
f 6/21/6 18/23/6 8/24/6
f 5/25/7 9/26/7 10/27/7
f 5/25/7 10/27/7 7/28/7
f 10/29/8 17/30/8 16/31/8
f 10/29/8 16/31/8 7/32/8
f 3/33/9 11/34/9 12/35/9
f 3/33/9 12/35/9 1/36/9
f 5/37/10 15/38/10 14/39/10
f 5/37/10 14/39/10 9/40/10
f 2/41/11 13/42/11 14/43/11
f 2/41/11 14/43/11 12/44/11
f 12/45/12 14/46/12 15/47/12
f 12/45/12 15/47/12 1/48/12
f 1/49/13 15/50/13 16/51/13
f 1/49/13 16/51/13 3/52/13
f 3/53/14 16/54/14 17/55/14
f 3/53/14 17/55/14 11/56/14
f 11/57/15 17/58/15 18/59/15
f 11/57/15 18/59/15 4/60/15
f 4/61/16 18/62/16 13/63/16
f 4/61/16 13/63/16 2/64/16
o gun
v 0.9375 -2.4375 1.9375
v 0.9375 -2.4375 1.0625
v 0.9375 -2.5625 1.9375
v 0.9375 -2.5625 1.0625
v 0.0625 -2.4375 1.9375
v 0.0625 -2.4375 1.0625
v 0.0625 -2.5625 1.9375
v 0.0625 -2.5625 1.0625
v 1.5625 -2.3125 1.75
v 1.5625 -2.3125 1.25
v 1.5625 -2.4375 1.75
v 1.5625 -2.4375 1.25
v -0.5625 -2.3125 1.75
v -0.5625 -2.3125 1.25
v -0.5625 -2.4375 1.75
v -0.5625 -2.4375 1.25
v 1.5625 -2.3125 1.5
v 1.5625 -2.4375 1.5
v -0.5625 -2.4375 1.5
v -0.5625 -2.3125 1.5
v -0.4375 -2.3125 1.75
v -0.4375 -2.3125 1.25
v -0.5625 -2.3125 1.75
v -0.5625 -2.3125 1.25
v -0.43750000000000033 -0.8750000000000002 1.75
v -0.43750000000000033 -0.8750000000000002 1.25
v -0.5625000000000004 -0.8750000000000002 1.75
v -0.5625000000000004 -0.8750000000000002 1.25
v -0.4375 -2.3125 1.5
v -0.5625 -2.3125 1.5
v -0.5625000000000004 -0.8750000000000002 1.5
v -0.43750000000000033 -0.8750000000000002 1.5
v 1.4375 -2.3125 1.75
v 1.4375 -2.3125 1.25
v 1.5625 -2.3125 1.75
v 1.5625 -2.3125 1.25
v 1.4375000000000004 -0.8750000000000002 1.75
v 1.4375000000000004 -0.8750000000000002 1.25
v 1.5625000000000004 -0.8750000000000002 1.75
v 1.5625000000000004 -0.8750000000000002 1.25
v 1.4375 -2.3125 1.5
v 1.5625 -2.3125 1.5
v 1.5625000000000004 -0.8750000000000002 1.5
v 1.4375000000000004 -0.8750000000000002 1.5
v 1.5625 -1.125 1.6875
v 1.5625 -1.125 1.5625
v 1.5625 -1.25 1.6875
v 1.5625 -1.25 1.5625
v 1.625 -1.125 1.6875
v 1.625 -1.125 1.5625
v 1.6875 -1.25 1.6875
v 1.6875 -1.25 1.5625
v 1.5625 -1.25 1.6875
v 1.5625 -1.25 1.5625
v 1.5625 -1.5 1.6875
v 1.5625 -1.5 1.5625
v 1.6875 -1.25 1.6875
v 1.6875 -1.25 1.5625
v 1.6875 -1.5 1.6875
v 1.6875 -1.5 1.5625
v 1.5625 -1.5 1.6875
v 1.5625 -1.5 1.5625
v 1.5625 -1.75 1.6875
v 1.5625 -1.75 1.5625
v 1.6875 -1.5 1.6875
v 1.6875 -1.5 1.5625
v 1.6875 -1.75 1.6875
v 1.6875 -1.75 1.5625
v 1.5625 -1.75 1.6875
v 1.5625 -1.75 1.5625
v 1.5625 -2 1.6875
v 1.5625 -2 1.5625
v 1.6875 -1.75 1.6875
v 1.6875 -1.75 1.5625
v 1.6875 -2 1.6875
v 1.6875 -2 1.5625
v 1.5625 -2 1.6875
v 1.5625 -2 1.5625
v 1.5625 -2.1875 1.6875
v 1.5625 -2.1875 1.5625
v 1.6875 -2 1.6875
v 1.6875 -2 1.5625
v 1.6875 -2.1875 1.6875
v 1.6875 -2.1875 1.5625
v 1.5625 -2.1875 1.6875
v 1.5625 -2.1875 1.5625
v 1.5625 -2.3125 1.6875
v 1.5625 -2.3125 1.5625
v 1.6875 -2.1875 1.6875
v 1.6875 -2.1875 1.5625
v 1.625 -2.3125 1.6875
v 1.625 -2.3125 1.5625
v 1.5625000000000002 -2.1875 1.6875
v 1.5625000000000002 -2.1875 1.5625
v 1.3750000000000002 -2.1875 1.6875
v 1.3750000000000002 -2.1875 1.5625
v 1.5625000000000002 -2.3125 1.6875
v 1.5625000000000002 -2.3125 1.5625
v 1.3750000000000002 -2.3125 1.6875
v 1.3750000000000002 -2.3125 1.5625
v 1.3750000000000002 -2.1875 1.6875
v 1.3750000000000002 -2.1875 1.5625
v 1.1250000000000002 -2.1875 1.6875
v 1.1250000000000002 -2.1875 1.5625
v 1.3750000000000002 -2.3125 1.6875
v 1.3750000000000002 -2.3125 1.5625
v 1.1250000000000002 -2.3125 1.6875
v 1.1250000000000002 -2.3125 1.5625
v 1.1250000000000002 -2.1875 1.6875
v 1.1250000000000002 -2.1875 1.5625
v 0.9375000000000002 -2.1875 1.6875
v 0.9375000000000002 -2.1875 1.5625
v 1.1250000000000002 -2.3125 1.6875
v 1.1250000000000002 -2.3125 1.5625
v 0.9375000000000002 -2.3125 1.6875
v 0.9375000000000002 -2.3125 1.5625
v 0.9375000000000002 -2.1875 1.6875
v 0.9375000000000002 -2.1875 1.5625
v 0.6875000000000002 -2.1875 1.6875
v 0.6875000000000002 -2.1875 1.5625
v 0.9375000000000002 -2.3125 1.6875
v 0.9375000000000002 -2.3125 1.5625
v 0.6875000000000002 -2.3125 1.6875
v 0.6875000000000002 -2.3125 1.5625
v 0.6874999999999998 -2.3125 1.6875
v 0.6874999999999998 -2.3125 1.5625
v 0.5624999999999998 -2.3125 1.6875
v 0.5624999999999998 -2.3125 1.5625
v 0.6874999999999998 -2.1875 1.6875
v 0.6874999999999998 -2.1875 1.5625
v 0.5624999999999998 -2.25 1.6875
v 0.5624999999999998 -2.25 1.5625
vt 0.328125 0.359375
vt 0.359375 0.359375
vt 0.359375 0.578125
vt 0.328125 0.578125
vt 0.328125 0.359375
vt 0.359375 0.359375
vt 0.359375 0.578125
vt 0.328125 0.578125
vt 0.21875 0.28125
vt 0.21875 0.5
vt 0 0.5
vt 0 0.28125
vt 0.21875 0.28125
vt 0.21875 0.5
vt 0 0.5
vt 0 0.28125
vt 0.328125 0.359375
vt 0.359375 0.359375
vt 0.359375 0.578125
vt 0.328125 0.578125
vt 0.328125 0.359375
vt 0.359375 0.359375
vt 0.359375 0.578125
vt 0.328125 0.578125
vt 0.078125 0.25
vt 0.140625 0.25
vt 0.140625 0.28125
vt 0.078125 0.28125
vt 0.203125 0.28125
vt 0.140625 0.28125
vt 0.140625 0.25
vt 0.203125 0.25
vt 0.625 0.25
vt 0.625 0.3125
vt 0.09375 0.3125
vt 0.09375 0.25
vt 0.078125 1
vt 0.078125 0.9375
vt 0.609375 0.9375
vt 0.609375 1
vt 0.65625 0.25
vt 0.65625 0.28125
vt 0.125 0.28125
vt 0.125 0.25
vt 0.65625 0.25
vt 0.65625 0.28125
vt 0.125 0.28125
vt 0.125 0.25
vt 0.203125 0.28125
vt 0.140625 0.28125
vt 0.140625 0.25
vt 0.203125 0.25
vt 0.625 0.25
vt 0.625 0.3125
vt 0.09375 0.3125
vt 0.09375 0.25
vt 0.078125 0.25
vt 0.140625 0.25
vt 0.140625 0.28125
vt 0.078125 0.28125
vt 0.109375 1
vt 0.109375 0.9375
vt 0.640625 0.9375
vt 0.640625 1
vt 0.078125 0.25
vt 0.140625 0.25
vt 0.140625 0.28125
vt 0.078125 0.28125
vt 0.203125 0.28125
vt 0.140625 0.28125
vt 0.140625 0.25
vt 0.203125 0.25
vt 0.359375 0.25
vt 0.359375 0.3125
vt 0 0.3125
vt 0 0.25
vt 0 1
vt 0 0.9375
vt 0.359375 0.9375
vt 0.359375 1
vt 0.578125 0.25
vt 0.578125 0.28125
vt 0.21875 0.28125
vt 0.21875 0.25
vt 0.578125 0.25
vt 0.578125 0.28125
vt 0.21875 0.28125
vt 0.21875 0.25
vt 0.203125 0.28125
vt 0.140625 0.28125
vt 0.140625 0.25
vt 0.203125 0.25
vt 0.359375 0.25
vt 0.359375 0.3125
vt 0 0.3125
vt 0 0.25
vt 0.078125 0.25
vt 0.140625 0.25
vt 0.140625 0.28125
vt 0.078125 0.28125
vt 0 1
vt 0 0.9375
vt 0.359375 0.9375
vt 0.359375 1
vt 0.140625 0.28125
vt 0.140625 0.25
vt 0.078125 0.25
vt 0.078125 0.28125
vt 0.140625 0.25
vt 0.140625 0.28125
vt 0.203125 0.28125
vt 0.203125 0.25
vt 0 0.3125
vt 0.359375 0.3125
vt 0.359375 0.25
vt 0 0.25
vt 0.359375 0.9375
vt 0 0.9375
vt 0 1
vt 0.359375 1
vt 0.21875 0.28125
vt 0.578125 0.28125
vt 0.578125 0.25
vt 0.21875 0.25
vt 0.21875 0.28125
vt 0.578125 0.28125
vt 0.578125 0.25
vt 0.21875 0.25
vt 0.140625 0.25
vt 0.140625 0.28125
vt 0.203125 0.28125
vt 0.203125 0.25
vt 0 0.3125
vt 0.359375 0.3125
vt 0.359375 0.25
vt 0 0.25
vt 0.140625 0.28125
vt 0.140625 0.25
vt 0.078125 0.25
vt 0.078125 0.28125
vt 0.359375 0.9375
vt 0 0.9375
vt 0 1
vt 0.359375 1
vt 0.6875 1
vt 0.5625 1
vt 0.5625 0.875
vt 0.6875 0.875
vt 0.6875 1
vt 0.5625 1
vt 0.5625 0.875
vt 0.6875 0.875
vt 0.6875 1
vt 0.6875 0.9375
vt 0.5625 0.9375
vt 0.5625 1
vt 0.6875 1
vt 0.5625 1
vt 0.5625 0.875
vt 0.6875 0.875
vt 0.6875 1
vt 0.5625 1
vt 0.5625 0.875
vt 0.6875 0.875
vt 0.875 0.125
vt 0.8125 0.125
vt 0.75 0
vt 0.875 0
vt 0.6875 0.9375
vt 0.5625 0.9375
vt 0.5625 0.6875
vt 0.6875 0.6875
vt 0.6875 0.9375
vt 0.5625 0.9375
vt 0.5625 0.6875
vt 0.6875 0.6875
vt 0.6875 0.8125
vt 0.5625 0.8125
vt 0.5625 0.6875
vt 0.6875 0.6875
vt 0.6875 0.8125
vt 0.5625 0.8125
vt 0.5625 0.6875
vt 0.6875 0.6875
vt 0.6875 0.9375
vt 0.5625 0.9375
vt 0.5625 0.6875
vt 0.6875 0.6875
vt 0.6875 0.9375
vt 0.5625 0.9375
vt 0.5625 0.6875
vt 0.6875 0.6875
vt 0.4375 1
vt 0.3125 1
vt 0.3125 0.75
vt 0.4375 0.75
vt 0.4375 1
vt 0.3125 1
vt 0.3125 0.75
vt 0.4375 0.75
vt 0.4375 0.875
vt 0.3125 0.875
vt 0.3125 0.75
vt 0.4375 0.75
vt 0.4375 0.875
vt 0.3125 0.875
vt 0.3125 0.75
vt 0.4375 0.75
vt 0.4375 1
vt 0.3125 1
vt 0.3125 0.75
vt 0.4375 0.75
vt 0.4375 1
vt 0.3125 1
vt 0.3125 0.75
vt 0.4375 0.75
vt 0.6875 0.9375
vt 0.5625 0.9375
vt 0.5625 0.6875
vt 0.6875 0.6875
vt 0.6875 0.9375
vt 0.5625 0.9375
vt 0.5625 0.6875
vt 0.6875 0.6875
vt 0.6875 0.8125
vt 0.5625 0.8125
vt 0.5625 0.6875
vt 0.6875 0.6875
vt 0.6875 0.8125
vt 0.5625 0.8125
vt 0.5625 0.6875
vt 0.6875 0.6875
vt 0.6875 0.9375
vt 0.5625 0.9375
vt 0.5625 0.6875
vt 0.6875 0.6875
vt 0.6875 0.9375
vt 0.5625 0.9375
vt 0.5625 0.6875
vt 0.6875 0.6875
vt 0.4375 1
vt 0.3125 1
vt 0.3125 0.8125
vt 0.4375 0.8125
vt 0.4375 1
vt 0.3125 1
vt 0.3125 0.8125
vt 0.4375 0.8125
vt 0.4375 0.9375
vt 0.3125 0.9375
vt 0.3125 0.8125
vt 0.4375 0.8125
vt 0.4375 0.9375
vt 0.3125 0.9375
vt 0.3125 0.8125
vt 0.4375 0.8125
vt 0.4375 1
vt 0.3125 1
vt 0.3125 0.8125
vt 0.4375 0.8125
vt 0.4375 1
vt 0.3125 1
vt 0.3125 0.8125
vt 0.4375 0.8125
vt 0.4375 0.9375
vt 0.3125 0.9375
vt 0.3125 0.8125
vt 0.4375 0.8125
vt 0.4375 0.9375
vt 0.3125 0.9375
vt 0.3125 0.8125
vt 0.4375 0.8125
vt 0.4375 0.9375
vt 0.3125 0.9375
vt 0.3125 0.8125
vt 0.4375 0.8125
vt 0.5625 0.9375
vt 0.5625 1
vt 0.6875 1
vt 0.6875 0.9375
vt 0.4375 0.9375
vt 0.3125 0.9375
vt 0.3125 0.8125
vt 0.4375 0.8125
vt 0.875 0
vt 0.75 0
vt 0.8125 0.125
vt 0.875 0.125
vt 0.4375 1
vt 0.3125 1
vt 0.3125 0.8125
vt 0.4375 0.8125
vt 0.4375 1
vt 0.3125 1
vt 0.3125 0.8125
vt 0.4375 0.8125
vt 0.4375 0.9375
vt 0.3125 0.9375
vt 0.3125 0.8125
vt 0.4375 0.8125
vt 0.4375 0.9375
vt 0.3125 0.9375
vt 0.3125 0.8125
vt 0.4375 0.8125
vt 0.4375 1
vt 0.3125 1
vt 0.3125 0.8125
vt 0.4375 0.8125
vt 0.4375 1
vt 0.3125 1
vt 0.3125 0.8125
vt 0.4375 0.8125
vt 0.6875 0.9375
vt 0.5625 0.9375
vt 0.5625 0.6875
vt 0.6875 0.6875
vt 0.6875 0.9375
vt 0.5625 0.9375
vt 0.5625 0.6875
vt 0.6875 0.6875
vt 0.6875 0.8125
vt 0.5625 0.8125
vt 0.5625 0.6875
vt 0.6875 0.6875
vt 0.6875 0.8125
vt 0.5625 0.8125
vt 0.5625 0.6875
vt 0.6875 0.6875
vt 0.6875 0.9375
vt 0.5625 0.9375
vt 0.5625 0.6875
vt 0.6875 0.6875
vt 0.6875 0.9375
vt 0.5625 0.9375
vt 0.5625 0.6875
vt 0.6875 0.6875
vt 0.4375 1
vt 0.3125 1
vt 0.3125 0.8125
vt 0.4375 0.8125
vt 0.4375 1
vt 0.3125 1
vt 0.3125 0.8125
vt 0.4375 0.8125
vt 0.4375 0.9375
vt 0.3125 0.9375
vt 0.3125 0.8125
vt 0.4375 0.8125
vt 0.4375 0.9375
vt 0.3125 0.9375
vt 0.3125 0.8125
vt 0.4375 0.8125
vt 0.4375 1
vt 0.3125 1
vt 0.3125 0.8125
vt 0.4375 0.8125
vt 0.4375 1
vt 0.3125 1
vt 0.3125 0.8125
vt 0.4375 0.8125
vt 0.6875 0.9375
vt 0.5625 0.9375
vt 0.5625 0.6875
vt 0.6875 0.6875
vt 0.6875 0.9375
vt 0.5625 0.9375
vt 0.5625 0.6875
vt 0.6875 0.6875
vt 0.6875 0.8125
vt 0.5625 0.8125
vt 0.5625 0.6875
vt 0.6875 0.6875
vt 0.6875 0.8125
vt 0.5625 0.8125
vt 0.5625 0.6875
vt 0.6875 0.6875
vt 0.6875 0.9375
vt 0.5625 0.9375
vt 0.5625 0.6875
vt 0.6875 0.6875
vt 0.6875 0.9375
vt 0.5625 0.9375
vt 0.5625 0.6875
vt 0.6875 0.6875
vt 0.3125 0.8125
vt 0.3125 0.9375
vt 0.4375 0.9375
vt 0.4375 0.8125
vt 0.3125 0.8125
vt 0.3125 0.9375
vt 0.4375 0.9375
vt 0.4375 0.8125
vt 0.3125 0.8125
vt 0.3125 0.9375
vt 0.4375 0.9375
vt 0.4375 0.8125
vt 0.6875 1
vt 0.5625 1
vt 0.5625 0.9375
vt 0.6875 0.9375
vt 0.3125 0.8125
vt 0.3125 0.9375
vt 0.4375 0.9375
vt 0.4375 0.8125
vt 0.8125 0.125
vt 0.75 0
vt 0.875 0
vt 0.875 0.125
vn 1 0 0
vn -1 0 0
vn 0 1 0
vn 0 -1 0
vn 0 0 1
vn 0 0 -1
vn 1 0 0
vn -1 0 0
vn 0 1 0
vn 0 -1 0
vn 0 0 1
vn 0 0 -1
vn 1 0 0
vn 0 -1 0
vn -1 0 0
vn 0 1 0
vn 0 -1 0
vn 0 1 0
vn 1 2.3169871818264136e-16 0
vn -1 -3.089316242435218e-16 0
vn 0 0 1
vn 0 0 -1
vn 0 -1 0
vn -1 -3.089316242435218e-16 0
vn 0 1 0
vn 1 2.3169871818264136e-16 0
vn 0 -1 0
vn 0 1 0
vn -1 2.3169871818264136e-16 0
vn 1 -3.089316242435218e-16 0
vn 0 0 1
vn 0 0 -1
vn 0 -1 0
vn 1 -3.089316242435218e-16 0
vn 0 1 0
vn -1 2.3169871818264136e-16 0
vn -1 0 0
vn 0.8944271909999161 0.44721359549995804 0
vn 0 1 0
vn 0 -1 0
vn 0 0 1
vn 0 0 -1
vn -1 0 0
vn 1 0 0
vn 0 1 0
vn 0 -1 0
vn 0 0 1
vn 0 0 -1
vn -1 0 0
vn 1 0 0
vn 0 1 0
vn 0 -1 0
vn 0 0 1
vn 0 0 -1
vn -1 0 0
vn 1 0 0
vn 0 1 0
vn 0 -1 0
vn 0 0 1
vn 0 0 -1
vn -1 0 0
vn 1 0 0
vn 0 1 0
vn 0 -1 0
vn 0 0 1
vn 0 0 -1
vn -1 0 0
vn 0.8944271909999161 -0.44721359549995804 0
vn 0 1 0
vn 0 -1 0
vn 0 0 1
vn 0 0 -1
vn 0 1 0
vn 0 -1 0
vn 1 0 0
vn -1 0 0
vn 0 0 1
vn 0 0 -1
vn 0 1 0
vn 0 -1 0
vn 1 0 0
vn -1 0 0
vn 0 0 1
vn 0 0 -1
vn 0 1 0
vn 0 -1 0
vn 1 0 0
vn -1 0 0
vn 0 0 1
vn 0 0 -1
vn 0 1 0
vn 0 -1 0
vn 1 0 0
vn -1 0 0
vn 0 0 1
vn 0 0 -1
vn 0 -1 0
vn -0.44721359549995804 0.8944271909999161 0
vn 1 0 0
vn -1 0 0
vn 0 0 1
vn 0 0 -1
usemtl searchlight
f 22/65/17 20/66/17 19/67/17
f 22/65/17 19/67/17 21/68/17
f 25/69/18 23/70/18 24/71/18
f 25/69/18 24/71/18 26/72/18
f 19/73/19 20/74/19 24/75/19
f 19/73/19 24/75/19 23/76/19
f 22/77/20 21/78/20 25/79/20
f 22/77/20 25/79/20 26/80/20
f 21/81/21 19/82/21 23/83/21
f 21/81/21 23/83/21 25/84/21
f 26/85/22 24/86/22 20/87/22
f 26/85/22 20/87/22 22/88/22
usemtl common_steel_norivets
f 29/89/23 36/90/23 35/91/23
f 29/89/23 35/91/23 27/92/23
f 31/93/24 38/94/24 37/95/24
f 31/93/24 37/95/24 33/96/24
f 27/97/25 35/98/25 38/99/25
f 27/97/25 38/99/25 31/100/25
f 33/101/26 37/102/26 36/103/26
f 33/101/26 36/103/26 29/104/26
f 29/105/27 27/106/27 31/107/27
f 29/105/27 31/107/27 33/108/27
f 34/109/28 32/110/28 28/111/28
f 34/109/28 28/111/28 30/112/28
f 28/113/29 35/114/29 36/115/29
f 28/113/29 36/115/29 30/116/29
f 30/117/30 36/118/30 37/119/30
f 30/117/30 37/119/30 34/120/30
f 34/121/31 37/122/31 38/123/31
f 34/121/31 38/123/31 32/124/31
f 32/125/32 38/126/32 35/127/32
f 32/125/32 35/127/32 28/128/32
f 41/129/33 48/130/33 47/131/33
f 41/129/33 47/131/33 39/132/33
f 43/133/34 50/134/34 49/135/34
f 43/133/34 49/135/34 45/136/34
f 39/137/35 47/138/35 50/139/35
f 39/137/35 50/139/35 43/140/35
f 45/141/36 49/142/36 48/143/36
f 45/141/36 48/143/36 41/144/36
f 41/145/37 39/146/37 43/147/37
f 41/145/37 43/147/37 45/148/37
f 46/149/38 44/150/38 40/151/38
f 46/149/38 40/151/38 42/152/38
f 40/153/39 47/154/39 48/155/39
f 40/153/39 48/155/39 42/156/39
f 42/157/40 48/158/40 49/159/40
f 42/157/40 49/159/40 46/160/40
f 46/161/41 49/162/41 50/163/41
f 46/161/41 50/163/41 44/164/41
f 44/165/42 50/166/42 47/167/42
f 44/165/42 47/167/42 40/168/42
f 59/169/43 60/170/43 53/171/43
f 59/169/43 53/171/43 51/172/43
f 61/173/44 62/174/44 55/175/44
f 61/173/44 55/175/44 57/176/44
f 62/177/45 59/178/45 51/179/45
f 62/177/45 51/179/45 55/180/45
f 60/181/46 61/182/46 57/183/46
f 60/181/46 57/183/46 53/184/46
f 55/185/47 51/186/47 53/187/47
f 55/185/47 53/187/47 57/188/47
f 52/189/48 56/190/48 58/191/48
f 52/189/48 58/191/48 54/192/48
f 60/193/49 59/194/49 52/195/49
f 60/193/49 52/195/49 54/196/49
f 61/197/50 60/198/50 54/199/50
f 61/197/50 54/199/50 58/200/50
f 62/201/51 61/202/51 58/203/51
f 62/201/51 58/203/51 56/204/51
f 59/205/52 62/206/52 56/207/52
f 59/205/52 56/207/52 52/208/52
usemtl common_copper_cable
f 63/209/53 64/210/53 66/211/53
f 63/209/53 66/211/53 65/212/53
f 68/213/54 67/214/54 69/215/54
f 68/213/54 69/215/54 70/216/54
f 68/217/55 64/218/55 63/219/55
f 68/217/55 63/219/55 67/220/55
f 69/221/56 65/222/56 66/223/56
f 69/221/56 66/223/56 70/224/56
f 67/225/57 63/226/57 65/227/57
f 67/225/57 65/227/57 69/228/57
f 64/229/58 68/230/58 70/231/58
f 64/229/58 70/231/58 66/232/58
f 71/233/59 72/234/59 74/235/59
f 71/233/59 74/235/59 73/236/59
f 76/237/60 75/238/60 77/239/60
f 76/237/60 77/239/60 78/240/60
f 76/241/61 72/242/61 71/243/61
f 76/241/61 71/243/61 75/244/61
f 77/245/62 73/246/62 74/247/62
f 77/245/62 74/247/62 78/248/62
f 75/249/63 71/250/63 73/251/63
f 75/249/63 73/251/63 77/252/63
f 72/253/64 76/254/64 78/255/64
f 72/253/64 78/255/64 74/256/64
f 79/257/65 80/258/65 82/259/65
f 79/257/65 82/259/65 81/260/65
f 84/261/66 83/262/66 85/263/66
f 84/261/66 85/263/66 86/264/66
f 84/265/67 80/266/67 79/267/67
f 84/265/67 79/267/67 83/268/67
f 85/269/68 81/270/68 82/271/68
f 85/269/68 82/271/68 86/272/68
f 83/273/69 79/274/69 81/275/69
f 83/273/69 81/275/69 85/276/69
f 80/277/70 84/278/70 86/279/70
f 80/277/70 86/279/70 82/280/70
f 87/281/71 88/282/71 90/283/71
f 87/281/71 90/283/71 89/284/71
f 92/285/72 91/286/72 93/287/72
f 92/285/72 93/287/72 94/288/72
f 92/289/73 88/290/73 87/291/73
f 92/289/73 87/291/73 91/292/73
f 93/293/74 89/294/74 90/295/74
f 93/293/74 90/295/74 94/296/74
f 91/297/75 87/298/75 89/299/75
f 91/297/75 89/299/75 93/300/75
f 88/301/76 92/302/76 94/303/76
f 88/301/76 94/303/76 90/304/76
f 95/305/77 96/306/77 98/307/77
f 95/305/77 98/307/77 97/308/77
f 100/309/78 99/310/78 101/311/78
f 100/309/78 101/311/78 102/312/78
f 100/313/79 96/314/79 95/315/79
f 100/313/79 95/315/79 99/316/79
f 101/317/80 97/318/80 98/319/80
f 101/317/80 98/319/80 102/320/80
f 99/321/81 95/322/81 97/323/81
f 99/321/81 97/323/81 101/324/81
f 96/325/82 100/326/82 102/327/82
f 96/325/82 102/327/82 98/328/82
f 103/329/83 104/330/83 106/331/83
f 103/329/83 106/331/83 105/332/83
f 108/333/84 107/334/84 109/335/84
f 108/333/84 109/335/84 110/336/84
f 108/337/85 104/338/85 103/339/85
f 108/337/85 103/339/85 107/340/85
f 109/341/86 105/342/86 106/343/86
f 109/341/86 106/343/86 110/344/86
f 107/345/87 103/346/87 105/347/87
f 107/345/87 105/347/87 109/348/87
f 104/349/88 108/350/88 110/351/88
f 104/349/88 110/351/88 106/352/88
f 111/353/89 112/354/89 114/355/89
f 111/353/89 114/355/89 113/356/89
f 116/357/90 115/358/90 117/359/90
f 116/357/90 117/359/90 118/360/90
f 116/361/91 112/362/91 111/363/91
f 116/361/91 111/363/91 115/364/91
f 117/365/92 113/366/92 114/367/92
f 117/365/92 114/367/92 118/368/92
f 115/369/93 111/370/93 113/371/93
f 115/369/93 113/371/93 117/372/93
f 112/373/94 116/374/94 118/375/94
f 112/373/94 118/375/94 114/376/94
f 119/377/95 120/378/95 122/379/95
f 119/377/95 122/379/95 121/380/95
f 124/381/96 123/382/96 125/383/96
f 124/381/96 125/383/96 126/384/96
f 124/385/97 120/386/97 119/387/97
f 124/385/97 119/387/97 123/388/97
f 125/389/98 121/390/98 122/391/98
f 125/389/98 122/391/98 126/392/98
f 123/393/99 119/394/99 121/395/99
f 123/393/99 121/395/99 125/396/99
f 120/397/100 124/398/100 126/399/100
f 120/397/100 126/399/100 122/400/100
f 127/401/101 128/402/101 130/403/101
f 127/401/101 130/403/101 129/404/101
f 132/405/102 131/406/102 133/407/102
f 132/405/102 133/407/102 134/408/102
f 132/409/103 128/410/103 127/411/103
f 132/409/103 127/411/103 131/412/103
f 133/413/104 129/414/104 130/415/104
f 133/413/104 130/415/104 134/416/104
f 131/417/105 127/418/105 129/419/105
f 131/417/105 129/419/105 133/420/105
f 128/421/106 132/422/106 134/423/106
f 128/421/106 134/423/106 130/424/106
f 135/425/107 136/426/107 138/427/107
f 135/425/107 138/427/107 137/428/107
f 140/429/108 139/430/108 141/431/108
f 140/429/108 141/431/108 142/432/108
f 140/433/109 136/434/109 135/435/109
f 140/433/109 135/435/109 139/436/109
f 141/437/110 137/438/110 138/439/110
f 141/437/110 138/439/110 142/440/110
f 139/441/111 135/442/111 137/443/111
f 139/441/111 137/443/111 141/444/111
f 136/445/112 140/446/112 142/447/112
f 136/445/112 142/447/112 138/448/112
f 146/449/113 144/450/113 143/451/113
f 146/449/113 143/451/113 145/452/113
f 149/453/114 147/454/114 148/455/114
f 149/453/114 148/455/114 150/456/114
f 143/457/115 144/458/115 148/459/115
f 143/457/115 148/459/115 147/460/115
f 146/461/116 145/462/116 149/463/116
f 146/461/116 149/463/116 150/464/116
f 145/465/117 143/466/117 147/467/117
f 145/465/117 147/467/117 149/468/117
f 150/469/118 148/470/118 144/471/118
f 150/469/118 144/471/118 146/472/118
o searchlight
v 1.3125 -1.0312499999999996 2
v 1.3125 -1.0312499999999996 1
v 1.3125 -1.59375 2
v 1.3125 -1.59375 1
v 1.25 -1.0625 2
v 1.25 -1.0625 1
v 1.25 -1.5625 2
v 1.25 -1.5625 1
v 1.3125 -1.0312499999999996 1.5
v 1.3125 -1.59375 1.5
v 1.25 -1.5625 1.5
v 1.25 -1.0625 1.5
v -0.3125 -1.0312499999999996 2
v -0.3125 -1.0312499999999996 1
v -0.3125 -1.59375 2
v -0.3125 -1.59375 1
v -0.25 -1.0625 2
v -0.25 -1.0625 1
v -0.25 -1.5625 2
v -0.25 -1.5625 1
v -0.3125 -1.0312499999999996 1.5
v -0.3125 -1.59375 1.5
v -0.25 -1.5625 1.5
v -0.25 -1.0625 1.5
v 0.12500000000000044 -0.5 2
v 0.12500000000000044 -0.5 1
v 0.8750000000000004 -0.5 2
v 0.8750000000000004 -0.5 1
v 0.15625000000000033 -0.5625 2
v 0.15625000000000033 -0.5625 1
v 0.8437500000000006 -0.5625 2
v 0.8437500000000006 -0.5625 1
v 0.12500000000000044 -0.5 1.5
v 0.8750000000000004 -0.5 1.5
v 0.8437500000000006 -0.5625 1.5
v 0.15625000000000033 -0.5625 1.5
v 0.12499999999999956 -0.5 2
v 0.12499999999999956 -0.5 1
v -0.3125000000000001 -1.0312500000000007 2
v -0.3125000000000001 -1.0312500000000007 1
v 0.15624999999999944 -0.5625 2
v 0.15624999999999944 -0.5625 1
v -0.25000000000000033 -1.0625000000000002 2
v -0.25000000000000033 -1.0625000000000002 1
v 0.12499999999999956 -0.5 1.5
v -0.3125000000000001 -1.0312500000000007 1.5
v -0.25000000000000033 -1.0625000000000002 1.5
v 0.15624999999999944 -0.5625 1.5
v 0.8750000000000004 -2.125 2
v 0.8750000000000004 -2.125 1
v 1.3125 -1.5937499999999993 2
v 1.3125 -1.5937499999999993 1
v 0.8437500000000006 -2.0625 2
v 0.8437500000000006 -2.0625 1
v 1.2500000000000004 -1.5624999999999998 2
v 1.2500000000000004 -1.5624999999999998 1
v 0.8750000000000004 -2.125 1.5
v 1.3125 -1.5937499999999993 1.5
v 1.2500000000000004 -1.5624999999999998 1.5
v 0.8437500000000006 -2.0625 1.5
v 0.12500000000000044 -2.125 2
v 0.12500000000000044 -2.125 1
v 0.8750000000000004 -2.125 2
v 0.8750000000000004 -2.125 1
v 0.15625000000000033 -2.0625 2
v 0.15625000000000033 -2.0625 1
v 0.8437500000000006 -2.0625 2
v 0.8437500000000006 -2.0625 1
v 0.12500000000000044 -2.125 1.5
v 0.8750000000000004 -2.125 1.5
v 0.8437500000000006 -2.0625 1.5
v 0.15625000000000033 -2.0625 1.5
v 0.12499999999999956 -2.125 2
v 0.12499999999999956 -2.125 1
v -0.3125000000000001 -1.5937499999999993 2
v -0.3125000000000001 -1.5937499999999993 1
v 0.15624999999999944 -2.0625 2
v 0.15624999999999944 -2.0625 1
v -0.25000000000000033 -1.5624999999999998 2
v -0.25000000000000033 -1.5624999999999998 1
v 0.12499999999999956 -2.125 1.5
v -0.3125000000000001 -1.5937499999999993 1.5
v -0.25000000000000033 -1.5624999999999998 1.5
v 0.15624999999999944 -2.0625 1.5
v 0.8750000000000004 -0.5 2
v 0.8750000000000004 -0.5 1
v 1.3125 -1.0312500000000007 2
v 1.3125 -1.0312500000000007 1
v 0.8437500000000006 -0.5625 2
v 0.8437500000000006 -0.5625 1
v 1.2500000000000004 -1.0625000000000002 2
v 1.2500000000000004 -1.0625000000000002 1
v 0.8750000000000004 -0.5 1.5
v 1.3125 -1.0312500000000007 1.5
v 1.2500000000000004 -1.0625000000000002 1.5
v 0.8437500000000006 -0.5625 1.5
v 0.875 -0.5625 1.0625
v 0.875 -0.5625 1
v 1.25 -1.0625 1.0625
v 1.25 -1.0625 1
v 0.125 -0.5625 1.0625
v 0.125 -0.5625 1
v -0.25 -1.0625 1.0625
v -0.25 -1.0625 1
v 1.25 -1.0625 1.0625
v 1.25 -1.0625 1
v 1.25 -1.5625 1.0625
v 1.25 -1.5625 1
v -0.25 -1.0625 1.0625
v -0.25 -1.0625 1
v -0.25 -1.5625 1.0625
v -0.25 -1.5625 1
v 0.875 -2.0625 1.0625
v 0.875 -2.0625 1
v 1.25 -1.5625 1.0625
v 1.25 -1.5625 1
v 0.125 -2.0625 1.0625
v 0.125 -2.0625 1
v -0.25 -1.5625 1.0625
v -0.25 -1.5625 1
v 0.06250000000000122 -0.8749999999999987 0.7499999999999993
v 0.0625 -1.7499999999999987 0.7499999999999989
v 0.937500000000001 -0.8750000000000002 0.7500000000000004
v 0.9374999999999998 -1.75 0.7499999999999999
v 0.06250000000000078 -0.8749999999999989 0.9999999999999993
v 0.062499999999999556 -1.7499999999999987 0.9999999999999989
v 0.9375000000000007 -0.8750000000000002 1.0000000000000004
v 0.9374999999999993 -1.75 1
v 0.875 -1.1875 0.75
v 1.25 -1.1875 1.125
v 1.25 -1.1875 1.375
v 1.25 -1.4375 1.125
v 1.25 -1.4375 1.375
v 1.5 -1.1875 1.125
v 1.375 -1.1875 1.375
v 1.5 -1.4375 1.125
v 1.375 -1.4375 1.375
v 1.5 -1.1875 1.125
v 1.5 -1.1875 0.75
v 1.5 -1.4375 1.125
v 1.5 -1.4375 0.75
v 1.25 -1.1875 1.125
v 1.25 -1.1875 0.75
v 1.25 -1.4375 1.125
v 1.25 -1.4375 0.75
v 1.25 -1.1875 0.75
v 1.25 -1.1875 0.5
v 1.25 -1.4375 0.75
v 1.25 -1.4375 0.5
v 1.5 -1.1875 0.75
v 1.375 -1.1875 0.5
v 1.5 -1.4375 0.75
v 1.375 -1.4375 0.5
v 0.875 -1.1875 0.75
v 1.25 -1.1875 0.7499999999999999
v 0.875 -1.4375 0.75
v 1.25 -1.4375 0.7499999999999999
v 0.875 -1.1875 0.5
v 1.25 -1.1875 0.5
v 0.875 -1.4375 0.5
v 1.25 -1.4375 0.5
v 0.625 -1.1875 0.75
v 0.625 -1.4375 0.75
v 0.875 -1.4375 0.75
v 0.625 -1.1875 0.5
v 0.875 -1.1875 0.5
v 0.625 -1.4375 0.5
v 0.875 -1.4375 0.5
v 0.625 -1.1875 0.75
v 0.625 -1.1875 0.5
v 0.625 -1.4375 0.75
v 0.625 -1.4375 0.5
v 0.375 -1.1875 0.75
v 0.5 -1.1875 0.5
v 0.375 -1.4375 0.75
v 0.5 -1.4375 0.5
v 1.4375 -1 1.8125
v 1.4375 -1 1.1875
v 1.4375 -1.625 1.8125
v 1.4375 -1.625 1.1875
v 1.1875 -1 1.8125
v 1.1875 -1 1.1875
v 1.1875 -1.625 1.8125
v 1.1875 -1.625 1.1875
v -0.4375 -1 1.8125
v -0.4375 -1 1.1875
v -0.4375 -1.625 1.8125
v -0.4375 -1.625 1.1875
v -0.1875 -1 1.8125
v -0.1875 -1 1.1875
v -0.1875 -1.625 1.8125
v -0.1875 -1.625 1.1875
v -0.625 -1.25 1.5625
v -0.625 -1.25 1.4375
v -0.625 -1.375 1.5625
v -0.625 -1.375 1.4375
v -0.5625 -1.25 1.5625
v -0.5625 -1.25 1.4375
v -0.5625 -1.375 1.5625
v -0.5625 -1.375 1.4375
v 1.625 -1.25 1.5625
v 1.625 -1.25 1.4375
v 1.625 -1.375 1.5625
v 1.625 -1.375 1.4375
v 1.5625 -1.25 1.5625
v 1.5625 -1.25 1.4375
v 1.5625 -1.375 1.5625
v 1.5625 -1.375 1.4375
v 0.875 -0.5625 1.9375
v 1.25 -1.0625 1.9375
v 0.125 -0.5625 1.9375
v -0.25 -1.0625 1.9375
v 1.25 -1.0625 1.9375
v 1.25 -1.5625 1.9375
v -0.25 -1.0625 1.9375
v -0.25 -1.5625 1.9375
v 0.875 -2.0625 1.9375
v 1.25 -1.5625 1.9375
v 0.125 -2.0625 1.9375
v -0.25 -1.5625 1.9375
vt 0 0.640625
vt 0.125 0.640625
vt 0.125 0.78125
vt 0 0.78125
vt 0.75 0.5
vt 0.625 0.5
vt 0.625 0.375
vt 0.75 0.375
vt 0.125 0.8125
vt 0 0.8125
vt 0 0.7950312500000001
vt 0.125 0.7950312500000001
vt 0.125 0.953125
vt 0 0.953125
vt 0 0.93565625
vt 0.125 0.93565625
vt 0.015625 0.859375
vt 0.015625 1
vt 0 0.9921875
vt 0 0.8671875
vt 0.015625 0.8671875
vt 0.015625 0.9921875
vt 0 1
vt 0 0.859375
vt 0.75 0.734375
vt 0.625 0.734375
vt 0.625 0.59375
vt 0.75 0.59375
vt 0 0.81065625
vt 0.125 0.81065625
vt 0.125 0.828125
vt 0 0.828125
vt 0 0.40625
vt 0.125 0.40625
vt 0.125 0.53125
vt 0 0.53125
vt 0 0.9200312500000001
vt 0.125 0.9200312500000001
vt 0.125 0.9375
vt 0 0.9375
vt 0.125 0.78125
vt 0.125 0.640625
vt 0 0.640625
vt 0 0.78125
vt 0.625 0.375
vt 0.625 0.5
vt 0.75 0.5
vt 0.75 0.375
vt 0 0.7950312500000001
vt 0 0.8125
vt 0.125 0.8125
vt 0.125 0.7950312500000001
vt 0 0.93565625
vt 0 0.953125
vt 0.125 0.953125
vt 0.125 0.93565625
vt 0 0.9921875
vt 0.015625 1
vt 0.015625 0.859375
vt 0 0.8671875
vt 0 1
vt 0.015625 0.9921875
vt 0.015625 0.8671875
vt 0 0.859375
vt 0.625 0.59375
vt 0.625 0.734375
vt 0.75 0.734375
vt 0.75 0.59375
vt 0.125 0.828125
vt 0.125 0.81065625
vt 0 0.81065625
vt 0 0.828125
vt 0.125 0.53125
vt 0.125 0.40625
vt 0 0.40625
vt 0 0.53125
vt 0.125 0.9375
vt 0.125 0.9200312500000001
vt 0 0.9200312500000001
vt 0 0.9375
vt 0 0.625
vt 0.125 0.625
vt 0.125 0.8125
vt 0 0.8125
vt 0.75 0.8125
vt 0.625 0.8125
vt 0.625 0.640625
vt 0.75 0.640625
vt 0.125 0.8125
vt 0 0.8125
vt 0 0.7950296875
vt 0.125 0.7950296875
vt 0.125 0.953125
vt 0 0.953125
vt 0 0.9356546875
vt 0.125 0.9356546875
vt 0.015625 0.8125
vt 0.015625 1
vt 0 0.9921875
vt 0 0.8203125
vt 0.015625 0.8203125
vt 0.015625 0.9921875
vt 0 1
vt 0 0.8125
vt 0.75 0.5
vt 0.625 0.5
vt 0.625 0.3125
vt 0.75 0.3125
vt 0 0.8106546875
vt 0.125 0.8106546875
vt 0.125 0.828125
vt 0 0.828125
vt 0 0.625
vt 0.125 0.625
vt 0.125 0.796875
vt 0 0.796875
vt 0 0.9200296875
vt 0.125 0.9200296875
vt 0.125 0.9375
vt 0 0.9375
vt 0.125 0.859375
vt 0.125 0.687321875
vt 0 0.687321875
vt 0 0.859375
vt 0.625 0.370190625
vt 0.625 0.53125
vt 0.75 0.53125
vt 0.75 0.370190625
vt 0.125 0.828125
vt 0.125 0.8106546875
vt 0 0.8106546875
vt 0 0.828125
vt 0 0.9356562500000001
vt 0 0.953125
vt 0.125 0.953125
vt 0.125 0.9356562500000001
vt 0.3383305851913424 0.9990334141972191
vt 0.3454899651995722 0.9845346271555063
vt 0.171875 0.9845346271555062
vt 0.1758126590045264 1
vt 0.0011368857423578183 0.984375
vt 0.017053286135367163 0.9771747236317339
vt 0.017053286135367163 0.816115910131044
vt 0 0.8123262909898513
vt 0.625 0.593571875
vt 0.625 0.765625
vt 0.75 0.765625
vt 0.75 0.593571875
vt 0.125 0.828125
vt 0.125 0.8106562500000001
vt 0 0.8106562500000001
vt 0 0.828125
vt 0.125 0.6875
vt 0.125 0.526440625
vt 0 0.526440625
vt 0 0.6875
vt 0 0.9356546875
vt 0 0.953125
vt 0.125 0.953125
vt 0.125 0.9356546875
vt 0.125 0.859375
vt 0.125 0.687321875
vt 0 0.687321875
vt 0 0.859375
vt 0.625 0.370190625
vt 0.625 0.53125
vt 0.75 0.53125
vt 0.75 0.370190625
vt 0.125 0.828125
vt 0.125 0.8106546875
vt 0 0.8106546875
vt 0 0.828125
vt 0 0.9356562500000001
vt 0 0.953125
vt 0.125 0.953125
vt 0.125 0.9356562500000001
vt 0.3383305851913424 0.9990334141972191
vt 0.3454899651995722 0.9845346271555063
vt 0.171875 0.9845346271555062
vt 0.1758126590045264 1
vt 0.0011368857423578183 0.984375
vt 0.017053286135367163 0.9771747236317339
vt 0.017053286135367163 0.816115910131044
vt 0 0.8123262909898513
vt 0.625 0.593571875
vt 0.625 0.765625
vt 0.75 0.765625
vt 0.75 0.593571875
vt 0.125 0.828125
vt 0.125 0.8106562500000001
vt 0 0.8106562500000001
vt 0 0.828125
vt 0.125 0.6875
vt 0.125 0.526440625
vt 0 0.526440625
vt 0 0.6875
vt 0 0.9356546875
vt 0 0.953125
vt 0.125 0.953125
vt 0.125 0.9356546875
vt 0.125 0.8125
vt 0.125 0.625
vt 0 0.625
vt 0 0.8125
vt 0.625 0.640625
vt 0.625 0.8125
vt 0.75 0.8125
vt 0.75 0.640625
vt 0 0.7950296875
vt 0 0.8125
vt 0.125 0.8125
vt 0.125 0.7950296875
vt 0 0.9356546875
vt 0 0.953125
vt 0.125 0.953125
vt 0.125 0.9356546875
vt 0 0.9921875
vt 0.015625 1
vt 0.015625 0.8125
vt 0 0.8203125
vt 0 1
vt 0.015625 0.9921875
vt 0.015625 0.8203125
vt 0 0.8125
vt 0.625 0.3125
vt 0.625 0.5
vt 0.75 0.5
vt 0.75 0.3125
vt 0.125 0.828125
vt 0.125 0.8106546875
vt 0 0.8106546875
vt 0 0.828125
vt 0.125 0.796875
vt 0.125 0.625
vt 0 0.625
vt 0 0.796875
vt 0.125 0.9375
vt 0.125 0.9200296875
vt 0 0.9200296875
vt 0 0.9375
vt 0 0.687321875
vt 0.125 0.687321875
vt 0.125 0.859375
vt 0 0.859375
vt 0.75 0.53125
vt 0.625 0.53125
vt 0.625 0.370190625
vt 0.75 0.370190625
vt 0 0.8106546875
vt 0.125 0.8106546875
vt 0.125 0.828125
vt 0 0.828125
vt 0.125 0.953125
vt 0 0.953125
vt 0 0.9356562500000001
vt 0.125 0.9356562500000001
vt 0.171875 0.9845346271555062
vt 0.3454899651995722 0.9845346271555063
vt 0.3383305851913424 0.9990334141972191
vt 0.1758126590045264 1
vt 0.017053286135367163 0.816115910131044
vt 0.017053286135367163 0.9771747236317339
vt 0.0011368857423578183 0.984375
vt 0 0.8123262909898513
vt 0.75 0.765625
vt 0.625 0.765625
vt 0.625 0.593571875
vt 0.75 0.593571875
vt 0 0.8106562500000001
vt 0.125 0.8106562500000001
vt 0.125 0.828125
vt 0 0.828125
vt 0 0.526440625
vt 0.125 0.526440625
vt 0.125 0.6875
vt 0 0.6875
vt 0.125 0.953125
vt 0 0.953125
vt 0 0.9356546875
vt 0.125 0.9356546875
vt 0 0.687321875
vt 0.125 0.687321875
vt 0.125 0.859375
vt 0 0.859375
vt 0.75 0.53125
vt 0.625 0.53125
vt 0.625 0.370190625
vt 0.75 0.370190625
vt 0 0.8106546875
vt 0.125 0.8106546875
vt 0.125 0.828125
vt 0 0.828125
vt 0.125 0.953125
vt 0 0.953125
vt 0 0.9356562500000001
vt 0.125 0.9356562500000001
vt 0.171875 0.9845346271555062
vt 0.3454899651995722 0.9845346271555063
vt 0.3383305851913424 0.9990334141972191
vt 0.1758126590045264 1
vt 0.017053286135367163 0.816115910131044
vt 0.017053286135367163 0.9771747236317339
vt 0.0011368857423578183 0.984375
vt 0 0.8123262909898513
vt 0.75 0.765625
vt 0.625 0.765625
vt 0.625 0.593571875
vt 0.75 0.593571875
vt 0 0.8106562500000001
vt 0.125 0.8106562500000001
vt 0.125 0.828125
vt 0 0.828125
vt 0 0.526440625
vt 0.125 0.526440625
vt 0.125 0.6875
vt 0 0.6875
vt 0.125 0.953125
vt 0 0.953125
vt 0 0.9356546875
vt 0.125 0.9356546875
vt 0.421875 0.359375
vt 0.421875 0.515625
vt 0.40625 0.515625
vt 0.40625 0.359375
vt 0.453125 0.359375
vt 0.453125 0.515625
vt 0.4375 0.515625
vt 0.4375 0.359375
vt 0.1875 0.5
vt 0.1875 0.515625
vt 0 0.515625
vt 0 0.5
vt 0.375 0.5625
vt 0.375 0.578125
vt 0 0.578125
vt 0 0.5625
vt 1 0.875
vt 0.90625 1
vt 0.71875 1
vt 0.625 0.875
vt 0.375 0.875
vt 0.28125 1
vt 0.09375 1
vt 0 0.875
vt 0.015625 0.359375
vt 0.015625 0.484375
vt 0 0.484375
vt 0 0.359375
vt 0.046875 0.359375
vt 0.046875 0.484375
vt 0.03125 0.484375
vt 0.03125 0.359375
vt 0.765625 0.5625
vt 0.765625 0.578125
vt 0.390625 0.578125
vt 0.390625 0.5625
vt 0.375 0.53125
vt 0.375 0.546875
vt 0 0.546875
vt 0 0.53125
vt 1 0.75
vt 1 0.875
vt 0.625 0.875
vt 0.625 0.75
vt 0.375 0.75
vt 0.375 0.875
vt 0 0.875
vt 0 0.75
vt 0.46875 0.359375
vt 0.484375 0.359375
vt 0.484375 0.515625
vt 0.46875 0.515625
vt 0.5 0.359375
vt 0.515625 0.359375
vt 0.515625 0.515625
vt 0.5 0.515625
vt 0.203125 0.5
vt 0.390625 0.5
vt 0.390625 0.515625
vt 0.203125 0.515625
vt 0.390625 0.53125
vt 0.765625 0.53125
vt 0.765625 0.546875
vt 0.390625 0.546875
vt 0.71875 1
vt 0.90625 1
vt 1 0.875
vt 0.625 0.875
vt 0.09375 1
vt 0.28125 1
vt 0.375 0.875
vt 0 0.875
vt 0.21875 0.28125
vt 0.21875 0.5
vt 0 0.5
vt 0 0.28125
vt 0.21875 0.28125
vt 0.21875 0.5
vt 0 0.5
vt 0 0.28125
vt 0.359375 0.359375
vt 0.359375 0.578125
vt 0.296875 0.578125
vt 0.296875 0.359375
vt 0.359375 0.359375
vt 0.359375 0.578125
vt 0.296875 0.578125
vt 0.296875 0.359375
vt 0.359375 0.359375
vt 0.359375 0.578125
vt 0.296875 0.578125
vt 0.296875 0.359375
vt 0.359375 0.359375
vt 0.359375 0.578125
vt 0.296875 0.578125
vt 0.296875 0.359375
vt 0 0.75
vt 0.25 0.75
vt 0.25 1
vt 0 1
vt 0 0.75
vt 0.25 0.75
vt 0.25 1
vt 0 1
vt 1 0.5
vt 1 0.75
vt 0.875 0.75
vt 0.75 0.5
vt 1 0.75
vt 1 0.5
vt 0.75 0.5
vt 0.875 0.75
vt 0.25 0.75
vt 0.25 1
vt 0 1
vt 0 0.75
vt 0 0.875
vt 0.25 0.875
vt 0.25 1
vt 0 1
vt 0 0.875
vt 0.25 0.875
vt 0.25 0.5
vt 0 0.5
vt 0 0.5
vt 0.25 0.5
vt 0.25 0.875
vt 0 0.875
vt 0.25 0.5
vt 0.25 0.875
vt 0 0.875
vt 0 0.5
vt 0.25 0.875
vt 0.25 0.5
vt 0 0.5
vt 0 0.875
vt 0.25 0.625
vt 0.25 0.875
vt 0 0.875
vt 0 0.625
vt 0.25 0.625
vt 0.25 0.875
vt 0 0.875
vt 0 0.625
vt 0.25 1
vt 0.25 0.75
vt 0 0.75
vt 0 1
vt 0.25 1
vt 0.25 0.75
vt 0 0.75
vt 0 1
vt 0.875 0.75
vt 1 0.75
vt 1 0.5
vt 0.75 0.5
vt 0.75 0.5
vt 1 0.5
vt 1 0.75
vt 0.875 0.75
vt 0 1
vt 0.25 1
vt 0.25 0.75
vt 0 0.75
vt 0.25 1
vt 0.25 0.875
vt 0 0.875
vt 0 1
vt 0 0.875
vt 0.25 0.875
vt 0.25 0.5
vt 0 0.5
vt 0 0.5
vt 0.25 0.5
vt 0.25 0.875
vt 0 0.875
vt 0.25 0.5
vt 0.25 0.875
vt 0 0.875
vt 0 0.5
vt 0.25 0.875
vt 0.25 0.5
vt 0 0.5
vt 0 0.875
vt 0.25 0.625
vt 0.25 0.875
vt 0 0.875
vt 0 0.625
vt 0.25 0.625
vt 0.25 0.875
vt 0 0.875
vt 0 0.625
vt 0 0.75
vt 0.25 0.75
vt 0.25 1
vt 0 1
vt 0 0.75
vt 0.25 0.75
vt 0.25 1
vt 0 1
vt 0.25 0.75
vt 0.25 1
vt 0 1
vt 0 0.75
vt 0.25 0.75
vt 0.25 1
vt 0 1
vt 0 0.75
vt 0.25 0.75
vt 0.25 1
vt 0 1
vt 0 0.75
vt 0.25 0.75
vt 0.25 1
vt 0 1
vt 0 0.75
vt 0 0.75
vt 0.25 0.75
vt 0.25 1
vt 0 1
vt 0 0.75
vt 0.25 0.75
vt 0.25 1
vt 0 1
vt 1 0.5
vt 1 0.75
vt 0.875 0.75
vt 0.75 0.5
vt 1 0.75
vt 1 0.5
vt 0.75 0.5
vt 0.875 0.75
vt 0.25 0.75
vt 0.25 1
vt 0 1
vt 0 0.75
vt 0 0.875
vt 0.25 0.875
vt 0.25 1
vt 0 1
vt 0.375 0.59375
vt 0.375 0.75
vt 0.21875 0.75
vt 0.21875 0.59375
vt 0.375 0.59375
vt 0.375 0.75
vt 0.21875 0.75
vt 0.21875 0.59375
vt 0.53125 0.328125
vt 0.53125 0.484375
vt 0.46875 0.484375
vt 0.46875 0.328125
vt 0.53125 0.328125
vt 0.53125 0.484375
vt 0.46875 0.484375
vt 0.46875 0.328125
vt 0.53125 0.328125
vt 0.53125 0.484375
vt 0.46875 0.484375
vt 0.46875 0.328125
vt 0.53125 0.328125
vt 0.53125 0.484375
vt 0.46875 0.484375
vt 0.46875 0.328125
vt 0.21875 0.75
vt 0.375 0.75
vt 0.375 0.59375
vt 0.21875 0.59375
vt 0.21875 0.75
vt 0.375 0.75
vt 0.375 0.59375
vt 0.21875 0.59375
vt 0.46875 0.484375
vt 0.53125 0.484375
vt 0.53125 0.328125
vt 0.46875 0.328125
vt 0.46875 0.484375
vt 0.53125 0.484375
vt 0.53125 0.328125
vt 0.46875 0.328125
vt 0.46875 0.484375
vt 0.53125 0.484375
vt 0.53125 0.328125
vt 0.46875 0.328125
vt 0.46875 0.484375
vt 0.53125 0.484375
vt 0.53125 0.328125
vt 0.46875 0.328125
vt 0.25 0.71875
vt 0.28125 0.71875
vt 0.28125 0.6875
vt 0.25 0.6875
vt 0.25 0.71875
vt 0.28125 0.71875
vt 0.28125 0.6875
vt 0.25 0.6875
vt 0.28125 0.71875
vt 0.28125 0.703125
vt 0.25 0.703125
vt 0.25 0.71875
vt 0.25 0.703125
vt 0.25 0.6875
vt 0.28125 0.6875
vt 0.28125 0.703125
vt 0.25 0.71875
vt 0.265625 0.71875
vt 0.265625 0.6875
vt 0.25 0.6875
vt 0.265625 0.71875
vt 0.28125 0.71875
vt 0.28125 0.6875
vt 0.265625 0.6875
vt 0.28125 0.6875
vt 0.28125 0.71875
vt 0.25 0.71875
vt 0.25 0.6875
vt 0.28125 0.6875
vt 0.28125 0.71875
vt 0.25 0.71875
vt 0.25 0.6875
vt 0.25 0.703125
vt 0.28125 0.703125
vt 0.28125 0.71875
vt 0.25 0.71875
vt 0.28125 0.6875
vt 0.25 0.6875
vt 0.25 0.703125
vt 0.28125 0.703125
vt 0.265625 0.6875
vt 0.265625 0.71875
vt 0.25 0.71875
vt 0.25 0.6875
vt 0.28125 0.6875
vt 0.28125 0.71875
vt 0.265625 0.71875
vt 0.265625 0.6875
vt 1 0.25
vt 0.90625 0.375
vt 0.71875 0.375
vt 0.625 0.25
vt 1 0.125
vt 1 0.25
vt 0.625 0.25
vt 0.625 0.125
vt 0.71875 0
vt 0.90625 0
vt 1 0.125
vt 0.625 0.125
vn 1 0 0
vn -1 0 0
vn -0.44721359549996303 0.8944271909999133 0
vn -0.4472135954999567 -0.8944271909999165 0
vn 0 0 1
vn 0 0 -1
vn 1 0 0
vn -0.4472135954999567 -0.8944271909999165 0
vn -1 0 0
vn -0.44721359549996303 0.8944271909999133 0
vn -1 0 0
vn 1 0 0
vn 0.44721359549996303 0.8944271909999133 0
vn 0.44721359549995804 -0.8944271909999161 0
vn 0 0 1
vn 0 0 -1
vn -1 0 0
vn 0.44721359549995804 -0.8944271909999161 0
vn 1 0 0
vn 0.44721359549996303 0.8944271909999133 0
vn 0 1 0
vn 0 -1 0
vn -0.8944271909999165 -0.4472135954999567 0
vn 0.8944271909999165 -0.4472135954999567 0
vn 0 0 1
vn 0 0 -1
vn 0 1 0
vn 0.8944271909999165 -0.4472135954999567 0
vn 0 -1 0
vn -0.8944271909999165 -0.4472135954999567 0
vn -0.7719302356170503 0.635707252861099 0
vn 0.7761140001162659 -0.6305926250944653 0
vn 0.8944271909999165 0.4472135954999567 0
vn -0.44721359549995415 -0.8944271909999179 0
vn 0 0 1
vn 0 0 -1
vn -0.7719302356170503 0.635707252861099 0
vn -0.44721359549995415 -0.8944271909999179 0
vn 0.7761140001162659 -0.6305926250944653 0
vn 0.8944271909999165 0.4472135954999567 0
vn 0.7719302356170503 -0.635707252861099 0
vn -0.7761140001162659 0.6305926250944653 0
vn -0.8944271909999165 -0.4472135954999567 0
vn 0.44721359549995415 0.8944271909999179 0
vn 0 0 1
vn 0 0 -1
vn 0.7719302356170503 -0.635707252861099 0
vn 0.44721359549995415 0.8944271909999179 0
vn -0.7761140001162659 0.6305926250944653 0
vn -0.8944271909999165 -0.4472135954999567 0
vn 0 -1 0
vn 0 1 0
vn -0.8944271909999165 0.4472135954999567 0
vn 0.8944271909999165 0.4472135954999567 0
vn 0 0 1
vn 0 0 -1
vn 0 -1 0
vn 0.8944271909999165 0.4472135954999567 0
vn 0 1 0
vn -0.8944271909999165 0.4472135954999567 0
vn -0.7719302356170503 -0.635707252861099 0
vn 0.7761140001162659 0.6305926250944653 0
vn 0.8944271909999165 -0.4472135954999567 0
vn -0.44721359549995415 0.8944271909999179 0
vn 0 0 1
vn 0 0 -1
vn -0.7719302356170503 -0.635707252861099 0
vn -0.44721359549995415 0.8944271909999179 0
vn 0.7761140001162659 0.6305926250944653 0
vn 0.8944271909999165 -0.4472135954999567 0
vn 0.7719302356170503 0.635707252861099 0
vn -0.7761140001162659 -0.6305926250944653 0
vn -0.8944271909999165 0.4472135954999567 0
vn 0.44721359549995415 -0.8944271909999179 0
vn 0 0 1
vn 0 0 -1
vn 0.7719302356170503 0.635707252861099 0
vn 0.44721359549995415 -0.8944271909999179 0
vn -0.7761140001162659 -0.6305926250944653 0
vn -0.8944271909999165 0.4472135954999567 0
vn 0.8 0.6 0
vn -0.8 0.6 0
vn 0 1 0
vn 0 -1 0
vn 0 0 1
vn 0 0 -1
vn 1 0 0
vn -1 0 0
vn 0 1 0
vn 0 -1 0
vn 0 0 1
vn 0 0 -1
vn 0.8 -0.6 0
vn -0.8 -0.6 0
vn 0 -1 0
vn 0 1 0
vn 0 0 1
vn 0 0 -1
vn 1.1419436824715905e-15 5.07530525542927e-16 -1
vn -1.2688263138573226e-15 -5.07530525542927e-16 1
vn -1 1.3957089452430549e-15 -1.7763568394002505e-15
vn 1 -1.3957089452430553e-15 1.3322676295501882e-15
vn 1.7763568394002499e-15 1 8.88178419700129e-16
vn -1.6494742080145187e-15 -1 -2.7046659607577553e-30
vn -1 0 0
vn 0.8944271909999161 0 0.44721359549995804
vn 0 1 0
vn 0 -1 0
vn 0 0 -1
vn 0 0 1
vn 1 0 0
vn -1 0 0
vn 0 1 0
vn 0 -1 0
vn 0 0 1
vn 0 0 -1
vn -1 0 0
vn 0.8944271909999161 0 -0.44721359549995804
vn 0 1 0
vn 0 -1 0
vn 0 0 1
vn 0 0 -1
vn 2.9605947323337506e-16 0 1
vn 0 0 -1
vn 0 1 0
vn 0 -1 0
vn -1 0 0
vn 1 0 0
vn 0 0 1
vn 0 0 -1
vn 0 1 0
vn 0 -1 0
vn -1 0 0
vn 1 0 0
vn 1 0 0
vn -0.8944271909999161 0 -0.44721359549995804
vn 0 1 0
vn 0 -1 0
vn 0 0 1
vn 0 0 -1
vn 1 0 0
vn -1 0 0
vn 0 1 0
vn 0 -1 0
vn 0 0 1
vn 0 0 -1
vn -1 0 0
vn 1 0 0
vn 0 1 0
vn 0 -1 0
vn 0 0 1
vn 0 0 -1
vn -1 0 0
vn 1 0 0
vn 0 1 0
vn 0 -1 0
vn 0 0 1
vn 0 0 -1
vn 1 0 0
vn -1 0 0
vn 0 1 0
vn 0 -1 0
vn 0 0 1
vn 0 0 -1
vn 0 0 1
vn 0 0 1
vn 0 0 1
usemtl common_steel_norivets
f 153/473/119 160/474/119 159/475/119
f 153/473/119 159/475/119 151/476/119
f 155/477/120 162/478/120 161/479/120
f 155/477/120 161/479/120 157/480/120
f 151/481/121 159/482/121 162/483/121
f 151/481/121 162/483/121 155/484/121
f 157/485/122 161/486/122 160/487/122
f 157/485/122 160/487/122 153/488/122
f 153/489/123 151/490/123 155/491/123
f 153/489/123 155/491/123 157/492/123
f 158/493/124 156/494/124 152/495/124
f 158/493/124 152/495/124 154/496/124
f 152/497/125 159/498/125 160/499/125
f 152/497/125 160/499/125 154/500/125
f 154/501/126 160/502/126 161/503/126
f 154/501/126 161/503/126 158/504/126
f 158/505/127 161/506/127 162/507/127
f 158/505/127 162/507/127 156/508/127
f 156/509/128 162/510/128 159/511/128
f 156/509/128 159/511/128 152/512/128
f 171/513/129 172/514/129 165/515/129
f 171/513/129 165/515/129 163/516/129
f 173/517/130 174/518/130 167/519/130
f 173/517/130 167/519/130 169/520/130
f 174/521/131 171/522/131 163/523/131
f 174/521/131 163/523/131 167/524/131
f 172/525/132 173/526/132 169/527/132
f 172/525/132 169/527/132 165/528/132
f 167/529/133 163/530/133 165/531/133
f 167/529/133 165/531/133 169/532/133
f 164/533/134 168/534/134 170/535/134
f 164/533/134 170/535/134 166/536/134
f 172/537/135 171/538/135 164/539/135
f 172/537/135 164/539/135 166/540/135
f 173/541/136 172/542/136 166/543/136
f 173/541/136 166/543/136 170/544/136
f 174/545/137 173/546/137 170/547/137
f 174/545/137 170/547/137 168/548/137
f 171/549/138 174/550/138 168/551/138
f 171/549/138 168/551/138 164/552/138
f 177/553/139 184/554/139 183/555/139
f 177/553/139 183/555/139 175/556/139
f 179/557/140 186/558/140 185/559/140
f 179/557/140 185/559/140 181/560/140
f 175/561/141 183/562/141 186/563/141
f 175/561/141 186/563/141 179/564/141
f 181/565/142 185/566/142 184/567/142
f 181/565/142 184/567/142 177/568/142
f 177/569/143 175/570/143 179/571/143
f 177/569/143 179/571/143 181/572/143
f 182/573/144 180/574/144 176/575/144
f 182/573/144 176/575/144 178/576/144
f 176/577/145 183/578/145 184/579/145
f 176/577/145 184/579/145 178/580/145
f 178/581/146 184/582/146 185/583/146
f 178/581/146 185/583/146 182/584/146
f 182/585/147 185/586/147 186/587/147
f 182/585/147 186/587/147 180/588/147
f 180/589/148 186/590/148 183/591/148
f 180/589/148 183/591/148 176/592/148
f 195/593/149 196/594/149 189/595/149
f 195/593/149 189/595/149 187/596/149
f 197/597/150 198/598/150 191/599/150
f 197/597/150 191/599/150 193/600/150
f 198/601/151 195/602/151 187/603/151
f 198/601/151 187/603/151 191/604/151
f 196/605/152 197/606/152 193/607/152
f 196/605/152 193/607/152 189/608/152
f 191/609/153 187/610/153 189/611/153
f 191/609/153 189/611/153 193/612/153
f 188/613/154 192/614/154 194/615/154
f 188/613/154 194/615/154 190/616/154
f 196/617/155 195/618/155 188/619/155
f 196/617/155 188/619/155 190/620/155
f 197/621/156 196/622/156 190/623/156
f 197/621/156 190/623/156 194/624/156
f 198/625/157 197/626/157 194/627/157
f 198/625/157 194/627/157 192/628/157
f 195/629/158 198/630/158 192/631/158
f 195/629/158 192/631/158 188/632/158
f 207/633/159 208/634/159 201/635/159
f 207/633/159 201/635/159 199/636/159
f 209/637/160 210/638/160 203/639/160
f 209/637/160 203/639/160 205/640/160
f 210/641/161 207/642/161 199/643/161
f 210/641/161 199/643/161 203/644/161
f 208/645/162 209/646/162 205/647/162
f 208/645/162 205/647/162 201/648/162
f 203/649/163 199/650/163 201/651/163
f 203/649/163 201/651/163 205/652/163
f 200/653/164 204/654/164 206/655/164
f 200/653/164 206/655/164 202/656/164
f 208/657/165 207/658/165 200/659/165
f 208/657/165 200/659/165 202/660/165
f 209/661/166 208/662/166 202/663/166
f 209/661/166 202/663/166 206/664/166
f 210/665/167 209/666/167 206/667/167
f 210/665/167 206/667/167 204/668/167
f 207/669/168 210/670/168 204/671/168
f 207/669/168 204/671/168 200/672/168
f 219/673/169 220/674/169 213/675/169
f 219/673/169 213/675/169 211/676/169
f 221/677/170 222/678/170 215/679/170
f 221/677/170 215/679/170 217/680/170
f 222/681/171 219/682/171 211/683/171
f 222/681/171 211/683/171 215/684/171
f 220/685/172 221/686/172 217/687/172
f 220/685/172 217/687/172 213/688/172
f 215/689/173 211/690/173 213/691/173
f 215/689/173 213/691/173 217/692/173
f 212/693/174 216/694/174 218/695/174
f 212/693/174 218/695/174 214/696/174
f 220/697/175 219/698/175 212/699/175
f 220/697/175 212/699/175 214/700/175
f 221/701/176 220/702/176 214/703/176
f 221/701/176 214/703/176 218/704/176
f 222/705/177 221/706/177 218/707/177
f 222/705/177 218/707/177 216/708/177
f 219/709/178 222/710/178 216/711/178
f 219/709/178 216/711/178 212/712/178
f 225/713/179 232/714/179 231/715/179
f 225/713/179 231/715/179 223/716/179
f 227/717/180 234/718/180 233/719/180
f 227/717/180 233/719/180 229/720/180
f 223/721/181 231/722/181 234/723/181
f 223/721/181 234/723/181 227/724/181
f 229/725/182 233/726/182 232/727/182
f 229/725/182 232/727/182 225/728/182
f 225/729/183 223/730/183 227/731/183
f 225/729/183 227/731/183 229/732/183
f 230/733/184 228/734/184 224/735/184
f 230/733/184 224/735/184 226/736/184
f 224/737/185 231/738/185 232/739/185
f 224/737/185 232/739/185 226/740/185
f 226/741/186 232/742/186 233/743/186
f 226/741/186 233/743/186 230/744/186
f 230/745/187 233/746/187 234/747/187
f 230/745/187 234/747/187 228/748/187
f 228/749/188 234/750/188 231/751/188
f 228/749/188 231/751/188 224/752/188
f 237/753/189 244/754/189 243/755/189
f 237/753/189 243/755/189 235/756/189
f 239/757/190 246/758/190 245/759/190
f 239/757/190 245/759/190 241/760/190
f 235/761/191 243/762/191 246/763/191
f 235/761/191 246/763/191 239/764/191
f 241/765/192 245/766/192 244/767/192
f 241/765/192 244/767/192 237/768/192
f 237/769/193 235/770/193 239/771/193
f 237/769/193 239/771/193 241/772/193
f 242/773/194 240/774/194 236/775/194
f 242/773/194 236/775/194 238/776/194
f 236/777/195 243/778/195 244/779/195
f 236/777/195 244/779/195 238/780/195
f 238/781/196 244/782/196 245/783/196
f 238/781/196 245/783/196 242/784/196
f 242/785/197 245/786/197 246/787/197
f 242/785/197 246/787/197 240/788/197
f 240/789/198 246/790/198 243/791/198
f 240/789/198 243/791/198 236/792/198
usemtl searchlight
f 250/793/199 248/794/199 247/795/199
f 250/793/199 247/795/199 249/796/199
f 253/797/200 251/798/200 252/799/200
f 253/797/200 252/799/200 254/800/200
f 247/801/201 248/802/201 252/803/201
f 247/801/201 252/803/201 251/804/201
f 250/805/202 249/806/202 253/807/202
f 250/805/202 253/807/202 254/808/202
f 249/809/203 247/810/203 251/811/203
f 249/809/203 251/811/203 253/812/203
f 254/813/204 252/814/204 248/815/204
f 254/813/204 248/815/204 250/816/204
f 258/817/205 256/818/205 255/819/205
f 258/817/205 255/819/205 257/820/205
f 261/821/206 259/822/206 260/823/206
f 261/821/206 260/823/206 262/824/206
f 255/825/207 256/826/207 260/827/207
f 255/825/207 260/827/207 259/828/207
f 258/829/208 257/830/208 261/831/208
f 258/829/208 261/831/208 262/832/208
f 257/833/209 255/834/209 259/835/209
f 257/833/209 259/835/209 261/836/209
f 262/837/210 260/838/210 256/839/210
f 262/837/210 256/839/210 258/840/210
f 263/841/211 264/842/211 266/843/211
f 263/841/211 266/843/211 265/844/211
f 268/845/212 267/846/212 269/847/212
f 268/845/212 269/847/212 270/848/212
f 268/849/213 264/850/213 263/851/213
f 268/849/213 263/851/213 267/852/213
f 269/853/214 265/854/214 266/855/214
f 269/853/214 266/855/214 270/856/214
f 267/857/215 263/858/215 265/859/215
f 267/857/215 265/859/215 269/860/215
f 264/861/216 268/862/216 270/863/216
f 264/861/216 270/863/216 266/864/216
f 274/865/217 272/866/217 271/867/217
f 274/865/217 271/867/217 273/868/217
f 277/869/218 275/870/218 276/871/218
f 277/869/218 276/871/218 278/872/218
f 271/873/219 272/874/219 276/875/219
f 271/873/219 276/875/219 275/876/219
f 274/877/220 273/878/220 277/879/220
f 274/877/220 277/879/220 278/880/220
f 273/881/221 271/882/221 275/883/221
f 273/881/221 275/883/221 277/884/221
f 278/885/222 276/886/222 272/887/222
f 278/885/222 272/887/222 274/888/222
usemtl common_copper_cable
f 283/889/223 281/890/223 280/891/223
f 283/889/223 280/891/223 282/892/223
f 286/893/224 284/894/224 285/895/224
f 286/893/224 285/895/224 287/896/224
f 280/897/225 281/898/225 285/899/225
f 280/897/225 285/899/225 284/900/225
f 283/901/226 282/902/226 286/903/226
f 283/901/226 286/903/226 287/904/226
f 282/905/227 280/906/227 284/907/227
f 282/905/227 284/907/227 286/908/227
f 287/909/228 285/910/228 281/911/228
f 287/909/228 281/911/228 283/912/228
f 291/913/229 289/914/229 288/915/229
f 291/913/229 288/915/229 290/916/229
f 294/917/230 292/918/230 293/919/230
f 294/917/230 293/919/230 295/920/230
f 288/921/231 289/922/231 293/923/231
f 288/921/231 293/923/231 292/924/231
f 291/925/232 290/926/232 294/927/232
f 291/925/232 294/927/232 295/928/232
f 290/929/233 288/930/233 292/931/233
f 290/929/233 292/931/233 294/932/233
f 295/933/234 293/934/234 289/935/234
f 295/933/234 289/935/234 291/936/234
f 296/937/235 297/938/235 299/939/235
f 296/937/235 299/939/235 298/940/235
f 301/941/236 300/942/236 302/943/236
f 301/941/236 302/943/236 303/944/236
f 301/945/237 297/946/237 296/947/237
f 301/945/237 296/947/237 300/948/237
f 302/949/238 298/950/238 299/951/238
f 302/949/238 299/951/238 303/952/238
f 300/953/239 296/954/239 298/955/239
f 300/953/239 298/955/239 302/956/239
f 297/957/240 301/958/240 303/959/240
f 297/957/240 303/959/240 299/960/240
f 307/961/241 305/962/241 304/963/241
f 307/961/241 304/963/241 306/964/241
f 310/965/242 308/966/242 309/967/242
f 310/965/242 309/967/242 311/968/242
f 304/969/243 305/970/243 309/971/243
f 304/969/243 309/971/243 308/972/243
f 307/973/244 306/974/244 310/975/244
f 307/973/244 310/975/244 311/976/244
f 306/977/245 304/978/245 308/979/245
f 306/977/245 308/979/245 310/980/245
f 311/981/246 309/982/246 305/983/246
f 311/981/246 305/983/246 307/984/246
f 314/985/247 279/986/247 312/987/247
f 314/985/247 312/987/247 313/988/247
f 317/989/248 315/990/248 316/991/248
f 317/989/248 316/991/248 318/992/248
f 312/993/249 279/994/249 316/995/249
f 312/993/249 316/995/249 315/996/249
f 314/997/250 313/998/250 317/999/250
f 314/997/250 317/999/250 318/1000/250
f 313/1001/251 312/1002/251 315/1003/251
f 313/1001/251 315/1003/251 317/1004/251
f 318/1005/252 316/1006/252 279/1007/252
f 318/1005/252 279/1007/252 314/1008/252
f 322/1009/253 320/1010/253 319/1011/253
f 322/1009/253 319/1011/253 321/1012/253
f 325/1013/254 323/1014/254 324/1015/254
f 325/1013/254 324/1015/254 326/1016/254
f 319/1017/255 320/1018/255 324/1019/255
f 319/1017/255 324/1019/255 323/1020/255
f 322/1021/256 321/1022/256 325/1023/256
f 322/1021/256 325/1023/256 326/1024/256
f 321/1025/257 319/1026/257 323/1027/257
f 321/1025/257 323/1027/257 325/1028/257
f 326/1029/258 324/1030/258 320/1031/258
f 326/1029/258 320/1031/258 322/1032/258
usemtl searchlight
f 330/1033/259 328/1034/259 327/1035/259
f 330/1033/259 327/1035/259 329/1036/259
f 333/1037/260 331/1038/260 332/1039/260
f 333/1037/260 332/1039/260 334/1040/260
f 327/1041/261 328/1042/261 332/1043/261
f 327/1041/261 332/1043/261 331/1044/261
f 330/1045/262 329/1046/262 333/1047/262
f 330/1045/262 333/1047/262 334/1048/262
f 329/1049/263 327/1050/263 331/1051/263
f 329/1049/263 331/1051/263 333/1052/263
f 334/1053/264 332/1054/264 328/1055/264
f 334/1053/264 328/1055/264 330/1056/264
f 335/1057/265 336/1058/265 338/1059/265
f 335/1057/265 338/1059/265 337/1060/265
f 340/1061/266 339/1062/266 341/1063/266
f 340/1061/266 341/1063/266 342/1064/266
f 340/1065/267 336/1066/267 335/1067/267
f 340/1065/267 335/1067/267 339/1068/267
f 341/1069/268 337/1070/268 338/1071/268
f 341/1069/268 338/1071/268 342/1072/268
f 339/1073/269 335/1074/269 337/1075/269
f 339/1073/269 337/1075/269 341/1076/269
f 336/1077/270 340/1078/270 342/1079/270
f 336/1077/270 342/1079/270 338/1080/270
f 343/1081/271 344/1082/271 346/1083/271
f 343/1081/271 346/1083/271 345/1084/271
f 348/1085/272 347/1086/272 349/1087/272
f 348/1085/272 349/1087/272 350/1088/272
f 348/1089/273 344/1090/273 343/1091/273
f 348/1089/273 343/1091/273 347/1092/273
f 349/1093/274 345/1094/274 346/1095/274
f 349/1093/274 346/1095/274 350/1096/274
f 347/1097/275 343/1098/275 345/1099/275
f 347/1097/275 345/1099/275 349/1100/275
f 344/1101/276 348/1102/276 350/1103/276
f 344/1101/276 350/1103/276 346/1104/276
f 354/1105/277 352/1106/277 351/1107/277
f 354/1105/277 351/1107/277 353/1108/277
f 357/1109/278 355/1110/278 356/1111/278
f 357/1109/278 356/1111/278 358/1112/278
f 351/1113/279 352/1114/279 356/1115/279
f 351/1113/279 356/1115/279 355/1116/279
f 354/1117/280 353/1118/280 357/1119/280
f 354/1117/280 357/1119/280 358/1120/280
f 353/1121/281 351/1122/281 355/1123/281
f 353/1121/281 355/1123/281 357/1124/281
f 358/1125/282 356/1126/282 352/1127/282
f 358/1125/282 352/1127/282 354/1128/282
f 360/1129/283 359/1130/283 361/1131/283
f 360/1129/283 361/1131/283 362/1132/283
f 364/1133/284 363/1134/284 365/1135/284
f 364/1133/284 365/1135/284 366/1136/284
f 369/1137/285 367/1138/285 368/1139/285
f 369/1137/285 368/1139/285 370/1140/285
o ele_activ
v 0.625 -1.1875 1.75
v 0.625 -1.1875 0.9375
v 0.625 -1.4375 1.75
v 0.625 -1.4375 0.9375
v 0.375 -1.1875 1.75
v 0.375 -1.1875 0.9375
v 0.375 -1.4375 1.75
v 0.375 -1.4375 0.9375
vt 0.765625 0.53125
vt 0.828125 0.53125
vt 0.828125 0.734375
vt 0.765625 0.734375
vt 0.765625 0.421875
vt 0.828125 0.421875
vt 0.828125 0.625
vt 0.765625 0.625
vt 0.828125 0.40625
vt 0.828125 0.609375
vt 0.765625 0.609375
vt 0.765625 0.40625
vt 0.828125 0.53125
vt 0.828125 0.734375
vt 0.765625 0.734375
vt 0.765625 0.53125
vt 0.828125 0.671875
vt 0.828125 0.734375
vt 0.765625 0.734375
vt 0.765625 0.671875
vt 0.828125 0.40625
vt 0.828125 0.46875
vt 0.765625 0.46875
vt 0.765625 0.40625
vn 1 0 0
vn -1 0 0
vn 0 1 0
vn 0 -1 0
vn 0 0 1
vn 0 0 -1
usemtl searchlight
f 374/1141/286 372/1142/286 371/1143/286
f 374/1141/286 371/1143/286 373/1144/286
f 377/1145/287 375/1146/287 376/1147/287
f 377/1145/287 376/1147/287 378/1148/287
f 371/1149/288 372/1150/288 376/1151/288
f 371/1149/288 376/1151/288 375/1152/288
f 374/1153/289 373/1154/289 377/1155/289
f 374/1153/289 377/1155/289 378/1156/289
f 373/1157/290 371/1158/290 375/1159/290
f 373/1157/290 375/1159/290 377/1160/290
f 378/1161/291 376/1162/291 372/1163/291
f 378/1161/291 372/1163/291 374/1164/291
o ele_notactive
v 0.625 -1.1875 1.75
v 0.625 -1.1875 0.9375
v 0.625 -1.4375 1.75
v 0.625 -1.4375 0.9375
v 0.375 -1.1875 1.75
v 0.375 -1.1875 0.9375
v 0.375 -1.4375 1.75
v 0.375 -1.4375 0.9375
vt 0.6875 0.40625
vt 0.75 0.40625
vt 0.75 0.609375
vt 0.6875 0.609375
vt 0.6875 0.421875
vt 0.75 0.421875
vt 0.75 0.625
vt 0.6875 0.625
vt 0.75 0.46875
vt 0.75 0.671875
vt 0.6875 0.671875
vt 0.6875 0.46875
vt 0.75 0.46875
vt 0.75 0.671875
vt 0.6875 0.671875
vt 0.6875 0.46875
vt 0.75 0.671875
vt 0.75 0.734375
vt 0.6875 0.734375
vt 0.6875 0.671875
vt 0.75 0.46875
vt 0.75 0.53125
vt 0.6875 0.53125
vt 0.6875 0.46875
vn 1 0 0
vn -1 0 0
vn 0 1 0
vn 0 -1 0
vn 0 0 1
vn 0 0 -1
usemtl searchlight
f 382/1165/292 380/1166/292 379/1167/292
f 382/1165/292 379/1167/292 381/1168/292
f 385/1169/293 383/1170/293 384/1171/293
f 385/1169/293 384/1171/293 386/1172/293
f 379/1173/294 380/1174/294 384/1175/294
f 379/1173/294 384/1175/294 383/1176/294
f 382/1177/295 381/1178/295 385/1179/295
f 382/1177/295 385/1179/295 386/1180/295
f 381/1181/296 379/1182/296 383/1183/296
f 381/1181/296 383/1183/296 385/1184/296
f 386/1185/297 384/1186/297 380/1187/297
f 386/1185/297 380/1187/297 382/1188/297