# Made by Pabilo8 with Blockbench
# Exported with IIToolkit Plugin
mtllib tesla.mtl


o base
v 0.75 -0.25 1.59375
v 0.75 -0.25 1.40625
v 0.75 -0.3125 1.59375
v 0.75 -0.3125 1.40625
v 0.25 -0.25 1.59375
v 0.25 -0.25 1.40625
v 0.25 -0.3125 1.59375
v 0.25 -0.3125 1.40625
v 1.3125 -2.625 2.4375
v 1.3125 -2.625 2.0625
v 1.3125 -2.75 2.4375
v 1.3125 -2.75 2.0625
v -0.31250000000000006 -2.625 2.4375
v -0.31250000000000006 -2.625 2.0625
v -0.31250000000000006 -2.75 2.4375
v -0.31250000000000006 -2.75 2.0625
v 1.3125 -2.5625 2.0625
v 1.3125 -2.5625 0.6875000000000001
v 1.3125 -2.75 2.0625
v 1.3125 -2.75 0.6875000000000001
v -0.31250000000000006 -2.5625 2.0625
v -0.31250000000000006 -2.5625 0.6875000000000001
v -0.31250000000000006 -2.75 2.0625
v -0.31250000000000006 -2.75 0.6875000000000001
v 1.1875 -1.25 2.1875
v -0.26401125 -2.03803875 1.78125
v -0.26401125 -2.03803875 1.21875
v -0.43923874999999996 -2.2163512499999998 1.78125
v -0.43923874999999996 -2.2163512499999998 1.21875
v -0.308589375 -1.994231875 1.78125
v -0.308589375 -1.994231875 1.21875
v -0.483816875 -2.172544375 1.78125
v -0.483816875 -2.172544375 1.21875
v -0.25000000000000006 -2 1.1875
v -0.25000000000000006 -2 1.8125
v -0.5 -2.25 1.1875
v -0.5 -2.25 1.8125
v -0.06250000000000006 -2 1.1875
v -0.06250000000000006 -2 1.8125
v -0.06250000000000006 -2.25 1.1875
v -0.06250000000000006 -2.25 1.8125
v -0.5 -2.25 1.1875
v -0.5 -2.25 1.8125
v -0.5 -2.75 1.1875
v -0.5 -2.75 1.8125
v -0.06250000000000006 -2.25 1.1875
v -0.06250000000000006 -2.25 1.8125
v -0.06250000000000006 -2.75 1.1875
v -0.06250000000000006 -2.75 1.8125
v 0.8125 -2 0.7500000000000001
v 0.1875 -2 0.7500000000000001
v 0.8125 -2.25 0.5
v 0.1875 -2.25 0.5
v 0.8125 -2 0.9375000000000001
v 0.1875 -2 0.9375000000000001
v 0.8125 -2.25 0.9375000000000001
v 0.1875 -2.25 0.9375000000000001
v 0.8125 -2.25 0.5
v 0.1875 -2.25 0.5
v 0.8125 -2.75 0.5
v 0.1875 -2.75 0.5
v 0.8125 -2.25 0.9375000000000001
v 0.1875 -2.25 0.9375000000000001
v 0.8125 -2.75 0.9375000000000001
v 0.1875 -2.75 0.9375000000000001
v 0.006249999999999978 -2.3125 2.375
v 0.006249999999999978 -2.3125 2.0625
v 0.006249999999999978 -2.625 2.375
v -0.24374999999999997 -2.3125 2.375
v -0.30624999999999997 -2.3125 2.0625
v -0.24374999999999997 -2.625 2.375
v -0.30624999999999997 -2.625 2.0625
v 0.006249999999999978 -2.3125 2.0625
v 0.006249999999999978 -2.3125 1.25
v 0.006249999999999978 -2.625 2.0625
v 0.006249999999999978 -2.625 1.25
v -0.30624999999999997 -2.3125 2.0625
v -0.30624999999999997 -2.3125 1.25
v -0.30624999999999997 -2.625 2.0625
v -0.30624999999999997 -2.625 1.25
v 0.19374999999999998 -2.3125 2.375
v 0.19374999999999998 -2.3125 2.0625
v 0.19374999999999998 -2.625 2.375
v 0.19374999999999998 -2.625 2.0625
v 0.006249999999999978 -2.3125 2.375
v 0.006249999999999978 -2.3125 2.0625
v 0.006249999999999978 -2.625 2.375
v 0.006249999999999978 -2.625 2.0625
v 1.375 -2.4375 2.375
v 1.375 -2.4375 2.0625
v 1.375 -2.5625 2.375
v 1.375 -2.5625 2.0625
v 1.0625 -2.3125 2.375
v 1.0625 -2.3125 2.0625
v 1.0625 -2.5625 2.375
v 1.0625 -2.5625 2.0625
v 1.375 -2.5625 2.375
v 1.375 -2.5625 2.0625
v 1.375 -2.75 2.375
v 1.375 -2.75 2.0625
v 1.0625 -2.5625 2.375
v 1.0625 -2.5625 2.0625
v 1.0625 -2.75 2.375
v 1.0625 -2.75 2.0625
v 1.0625 -2.3125 2.375
v 1.0625 -2.3125 2.0625
v 1.0625 -2.625 2.375
v 1.0625 -2.625 2.0625
v 0.875 -2.3125 2.375
v 0.875 -2.3125 2.0625
v 0.875 -2.625 2.375
v 0.875 -2.625 2.0625
v 0.40625 -0.625 1.8125
v 1 -2.0625 2
v 1 -2.0625 1
v 1 -2.5625 2
v 1 -2.5625 1
v 0 -2.0625 2
v 0 -2.0625 1
v 0 -2.5625 2
v 0 -2.5625 1
v 0.875 -1.75 1.875
v 0.875 -1.75 1.125
v 0.875 -2.0625 1.875
v 0.875 -2.0625 1.125
v 0.125 -1.75 1.875
v 0.125 -1.75 1.125
v 0.125 -2.0625 1.875
v 0.125 -2.0625 1.125
v 0.71875 -1.875 2.1875
v 0.71875 -1.8125 2.0625
v 0.71875 -2 2.1875
v 0.71875 -2 2.0625
v 0.53125 -1.875 2.1875
v 0.53125 -1.8125 2.0625
v 0.53125 -2 2.1875
v 0.53125 -2 2.0625
v 0.46875 -1.875 2.1875
v 0.46875 -1.8125 2.0625
v 0.46875 -2 2.1875
v 0.46875 -2 2.0625
v 0.28125 -1.875 2.1875
v 0.28125 -1.8125 2.0625
v 0.28125 -2 2.1875
v 0.28125 -2 2.0625
v 0.71875 -1.8125 2.0625
v 0.71875 -1.8125 0.8750000000000001
v 0.71875 -2 2.0625
v 0.71875 -2 0.8750000000000001
v 0.53125 -1.8125 2.0625
v 0.53125 -1.8125 0.8750000000000001
v 0.53125 -2 2.0625
v 0.53125 -2 0.8750000000000001
v 0.71875 -1.8125 1.4375
v 0.71875 -2 1.4375
v 0.53125 -2 1.4375
v 0.53125 -1.8125 1.4375
v 0.46875 -1.8125 2.0625
v 0.46875 -1.8125 0.8750000000000001
v 0.46875 -2 2.0625
v 0.46875 -2 0.8750000000000001
v 0.28125 -1.8125 2.0625
v 0.28125 -1.8125 0.8750000000000001
v 0.28125 -2 2.0625
v 0.28125 -2 0.8750000000000001
v 0.46875 -1.8125 1.4375
v 0.46875 -2 1.4375
v 0.28125 -2 1.4375
v 0.28125 -1.8125 1.4375
v 0.28125 -1.875 0.7500000000000001
v 0.28125 -1.8125 0.8750000000000001
v 0.28125 -2 0.7500000000000001
v 0.28125 -2 0.8750000000000001
v 0.46875 -1.875 0.7500000000000001
v 0.46875 -1.8125 0.8750000000000001
v 0.46875 -2 0.7500000000000001
v 0.46875 -2 0.8750000000000001
v 0.53125 -1.875 0.7500000000000001
v 0.53125 -1.8125 0.8750000000000001
v 0.53125 -2 0.7500000000000001
v 0.53125 -2 0.8750000000000001
v 0.71875 -1.875 0.7500000000000001
v 0.71875 -1.8125 0.8750000000000001
v 0.71875 -2 0.7500000000000001
v 0.71875 -2 0.8750000000000001
v 1.223214375 -1.875 1.2455362500000002
v 1.098214375 -1.8125 1.2455362500000002
v 1.223214375 -2 1.2455362500000002
v 1.098214375 -2 1.2455362500000002
v 1.223214375 -1.875 1.43303625
v 1.098214375 -1.8125 1.43303625
v 1.223214375 -2 1.43303625
v 1.098214375 -2 1.43303625
v 1.223214375 -1.875 1.49553625
v 1.098214375 -1.8125 1.49553625
v 1.223214375 -2 1.49553625
v 1.098214375 -2 1.49553625
v 1.223214375 -1.875 1.68303625
v 1.098214375 -1.8125 1.68303625
v 1.223214375 -2 1.68303625
v 1.098214375 -2 1.68303625
v 1.098214375 -1.8125 1.2455362500000002
v -0.08928562499999998 -1.8125 1.2455362500000002
v 1.098214375 -2 1.2455362500000002
v -0.08928562499999998 -2 1.2455362500000002
v 1.098214375 -1.8125 1.43303625
v -0.08928562499999998 -1.8125 1.43303625
v 1.098214375 -2 1.43303625
v -0.08928562499999998 -2 1.43303625
v 0.47321437499999996 -1.8125 1.2455362500000002
v 0.47321437499999996 -2 1.2455362500000002
v 0.47321437499999996 -2 1.43303625
v 0.47321437499999996 -1.8125 1.43303625
v 1.098214375 -1.8125 1.49553625
v -0.08928562499999998 -1.8125 1.49553625
v 1.098214375 -2 1.49553625
v -0.08928562499999998 -2 1.49553625
v 1.098214375 -1.8125 1.68303625
v -0.08928562499999998 -1.8125 1.68303625
v 1.098214375 -2 1.68303625
v -0.08928562499999998 -2 1.68303625
v 0.47321437499999996 -1.8125 1.49553625
v 0.47321437499999996 -2 1.49553625
v 0.47321437499999996 -2 1.68303625
v 0.47321437499999996 -1.8125 1.68303625
v -0.21428562499999998 -1.875 1.68303625
v -0.08928562499999998 -1.8125 1.68303625
v -0.21428562499999998 -2 1.68303625
v -0.08928562499999998 -2 1.68303625
v -0.21428562499999998 -1.875 1.49553625
v -0.08928562499999998 -1.8125 1.49553625
v -0.21428562499999998 -2 1.49553625
v -0.08928562499999998 -2 1.49553625
v -0.21428562499999998 -1.875 1.43303625
v -0.08928562499999998 -1.8125 1.43303625
v -0.21428562499999998 -2 1.43303625
v -0.08928562499999998 -2 1.43303625
v -0.21428562499999998 -1.875 1.2455362500000002
v -0.08928562499999998 -1.8125 1.2455362500000002
v -0.21428562499999998 -2 1.2455362500000002
v -0.08928562499999998 -2 1.2455362500000002
v 0.8125 0.5625 1.8125
v 0.8125 0.5625 1.1875
v 0.8125 0.1875 1.8125
v 0.8125 0.1875 1.1875
v 0.1875 0.5625 1.8125
v 0.1875 0.5625 1.1875
v 0.1875 0.1875 1.8125
v 0.1875 0.1875 1.1875
v 0.75 0.6875 1.75
v 0.75 0.6875 1.25
v 0.8125 0.5625 1.8125
v 0.8125 0.5625 1.1875
v 0.25 0.6875 1.75
v 0.25 0.6875 1.25
v 0.1875 0.5625 1.8125
v 0.1875 0.5625 1.1875
v 0.75 0.0625 1.25
v 0.75 0.0625 1.75
v 0.8125 0.1875 1.1875
v 0.8125 0.1875 1.8125
v 0.25 0.0625 1.25
v 0.25 0.0625 1.75
v 0.1875 0.1875 1.1875
v 0.1875 0.1875 1.8125
v 0.6875 0.0625 1.6875
v 0.6875 0.0625 1.3125
v 0.6875 -2.0625 1.6875
v 0.6875 -2.0625 1.3125
v 0.3125 0.0625 1.6875
v 0.3125 0.0625 1.3125
v 0.3125 -2.0625 1.6875
v 0.3125 -2.0625 1.3125
v 1.03125 -1.3125 1.59375
v 1.03125 -1.3125 1.40625
v 1.03125 -1.375 1.59375
v 1.03125 -1.375 1.40625
v -0.031250000000000056 -1.3125 1.59375
v -0.031250000000000056 -1.3125 1.40625
v -0.031250000000000056 -1.375 1.59375
v -0.031250000000000056 -1.375 1.40625
v 0.59375 -1.3125 2
v 0.59375 -1.3125 1
v 0.59375 -1.375 2
v 0.59375 -1.375 1
v 0.40625 -1.3125 2
v 0.40625 -1.3125 1
v 0.40625 -1.375 2
v 0.40625 -1.375 1
v 1.1875 -1.25 2
v 1.1875 -1.25 1
v 1.1875 -1.4375 2
v 1.1875 -1.4375 1
v 1 -1.25 2
v 1 -1.25 1
v 1 -1.4375 2
v 1 -1.4375 1
v 0 -1.25 2
v 0 -1.25 1
v 0 -1.4375 2
v 0 -1.4375 1
v -0.18750000000000006 -1.25 2
v -0.18750000000000006 -1.25 1
v -0.18750000000000006 -1.4375 2
v -0.18750000000000006 -1.4375 1
v 1.1875 -1.25 1
v 1.1875 -1.25 0.8125000000000001
v 1.1875 -1.4375 1
v 1.1875 -1.4375 0.8125000000000001
v -0.18750000000000006 -1.25 1
v -0.18750000000000006 -1.25 0.8125000000000001
v -0.18750000000000006 -1.4375 1
v -0.18750000000000006 -1.4375 0.8125000000000001
v 1.1875 -1.25 2
v 1.1875 -1.4375 2.1875
v 1.1875 -1.4375 2
v -0.18750000000000006 -1.25 2.1875
v -0.18750000000000006 -1.25 2
v -0.18750000000000006 -1.4375 2.1875
v -0.18750000000000006 -1.4375 2
v 0.59375 -1 1.875
v 0.59375 -1 1.125
v 0.59375 -1.0625 1.875
v 0.59375 -1.0625 1.125
v 0.40625 -1 1.875
v 0.40625 -1 1.125
v 0.40625 -1.0625 1.875
v 0.40625 -1.0625 1.125
v 0.90625 -1 1.59375
v 0.90625 -1 1.40625
v 0.90625 -1.0625 1.59375
v 0.90625 -1.0625 1.40625
v 0.09375 -1 1.59375
v 0.09375 -1 1.40625
v 0.09375 -1.0625 1.59375
v 0.09375 -1.0625 1.40625
v 0.125 -0.9375 1.875
v 0.125 -0.9375 1.125
v 0.125 -1.125 1.875
v 0.125 -1.125 1.125
v -0.06250000000000006 -0.9375 1.875
v -0.06250000000000006 -0.9375 1.125
v -0.06250000000000006 -1.125 1.875
v -0.06250000000000006 -1.125 1.125
v 1.0625 -0.9375 1.125
v 1.0625 -0.9375 0.9375000000000001
v 1.0625 -1.125 1.125
v 1.0625 -1.125 0.9375000000000001
v -0.06250000000000006 -0.9375 1.125
v -0.06250000000000006 -0.9375 0.9375000000000001
v -0.06250000000000006 -1.125 1.125
v -0.06250000000000006 -1.125 0.9375000000000001
v 1.0625 -0.9375 1.875
v 1.0625 -0.9375 1.125
v 1.0625 -1.125 1.875
v 1.0625 -1.125 1.125
v 0.875 -0.9375 1.875
v 0.875 -0.9375 1.125
v 0.875 -1.125 1.875
v 0.875 -1.125 1.125
v 1.0625 -1.125 1.875
v 1.0625 -1.125 2.0625
v 1.0625 -0.9375 1.875
v 1.0625 -0.9375 2.0625
v -0.06250000000000006 -1.125 1.875
v -0.06250000000000006 -1.125 2.0625
v -0.06250000000000006 -0.9375 1.875
v -0.06250000000000006 -0.9375 2.0625
v 0.8125 -0.625 1.59375
v 0.8125 -0.625 1.40625
v 0.8125 -0.6875 1.59375
v 0.8125 -0.6875 1.40625
v 0.1875 -0.625 1.59375
v 0.1875 -0.625 1.40625
v 0.1875 -0.6875 1.59375
v 0.1875 -0.6875 1.40625
v 0.59375 -0.625 1.8125
v 0.59375 -0.625 1.1875
v 0.59375 -0.6875 1.8125
v 0.59375 -0.6875 1.1875
v 0.40625 -0.625 1.1875
v 0.40625 -0.6875 1.8125
v 0.40625 -0.6875 1.1875
v 0 -0.5625 1.1875
v 0 -0.5625 1.8125
v 0 -0.75 1.1875
v 0 -0.75 1.8125
v 0.1875 -0.5625 1.1875
v 0.1875 -0.5625 1.8125
v 0.1875 -0.75 1.1875
v 0.1875 -0.75 1.8125
v 1 -0.5625 1.8125
v 1 -0.5625 1.1875
v 1 -0.75 1.8125
v 1 -0.75 1.1875
v 0.8125 -0.5625 1.8125
v 0.8125 -0.5625 1.1875
v 0.8125 -0.75 1.8125
v 0.8125 -0.75 1.1875
v 1 -0.75 2
v 0 -0.75 2
v 1 -0.5625 2
v 0 -0.5625 2
v 1 -0.75 1.8125
v 0 -0.75 1.8125
v 1 -0.5625 1.8125
v 0 -0.5625 1.8125
v 1 -0.5625 1
v 0 -0.5625 1
v 1 -0.75 1
v 0 -0.75 1
v 1 -0.5625 1.1875
v 0 -0.5625 1.1875
v 1 -0.75 1.1875
v 0 -0.75 1.1875
v 0.9375 -0.1875 1.75
v 0.9375 -0.1875 1.25
v 0.9375 -0.375 1.75
v 0.9375 -0.375 1.25
v 0.75 -0.1875 1.75
v 0.75 -0.1875 1.25
v 0.75 -0.375 1.75
v 0.75 -0.375 1.25
v 0.25 -0.1875 1.75
v 0.25 -0.1875 1.25
v 0.25 -0.375 1.75
v 0.25 -0.375 1.25
v 0.0625 -0.1875 1.75
v 0.0625 -0.1875 1.25
v 0.0625 -0.375 1.75
v 0.0625 -0.375 1.25
v 0.9375 -0.375 1.75
v 0.9375 -0.375 1.9375
v 0.9375 -0.1875 1.75
v 0.9375 -0.1875 1.9375
v 0.0625 -0.375 1.75
v 0.0625 -0.375 1.9375
v 0.0625 -0.1875 1.75
v 0.0625 -0.1875 1.9375
v 0.5 -0.375 1.9375
v 0.5 -0.375 1.75
v 0.5 -0.1875 1.75
v 0.5 -0.1875 1.9375
v 0.9375 -0.1875 1.25
v 0.9375 -0.1875 1.0625
v 0.9375 -0.375 1.25
v 0.9375 -0.375 1.0625
v 0.0625 -0.1875 1.25
v 0.0625 -0.1875 1.0625
v 0.0625 -0.375 1.25
v 0.0625 -0.375 1.0625
v 0.5 -0.1875 1.0625
v 0.5 -0.1875 1.25
v 0.5 -0.375 1.25
v 0.5 -0.375 1.0625
v 0.59375 -0.25 1.75
v 0.59375 -0.25 1.25
v 0.59375 -0.3125 1.75
v 0.59375 -0.3125 1.25
v 0.40625 -0.25 1.75
v 0.40625 -0.25 1.25
v 0.40625 -0.3125 1.75
v 0.40625 -0.3125 1.25
v 0.1875 -2 2.1875
v 0.8125 -2 2.1875
v 0.1875 -2.25 2.4375
v 0.8125 -2.25 2.4375
v 0.1875 -2 2
v 0.8125 -2 2
v 0.1875 -2.25 2
v 0.8125 -2.25 2
v 0.25 -2.25 2.5
v 0.25 -2.25 2.4375
v 0.25 -2.75 2.5
v 0.25 -2.75 2.4375
v 0.1875 -2.25 2.5
v 0.1875 -2.25 2.4375
v 0.1875 -2.75 2.5
v 0.1875 -2.75 2.4375
v 0.875 -2.25 2.4375
v 0.875 -2.25 2
v 0.875 -2.625 2.4375
v 0.875 -2.625 2
v 0.125 -2.25 2.4375
v 0.125 -2.25 2
v 0.125 -2.625 2.4375
v 0.125 -2.625 2
v 0.8125 -2.25 2.5
v 0.8125 -2.25 2.4375
v 0.8125 -2.75 2.5
v 0.8125 -2.75 2.4375
v 0.75 -2.25 2.5
v 0.75 -2.25 2.4375
v 0.75 -2.75 2.5
v 0.75 -2.75 2.4375
v 1.25 -2 1.8125
v 1.25 -2 1.1875
v 1.5 -2.25 1.8125
v 1.5 -2.25 1.1875
v 1.0625 -2 1.8125
v 1.0625 -2 1.1875
v 1.0625 -2.25 1.8125
v 1.0625 -2.25 1.1875
v 1.5 -2.25 1.8125
v 1.5 -2.25 1.1875
v 1.5 -2.75 1.8125
v 1.5 -2.75 1.1875
v 1.0625 -2.25 1.8125
v 1.0625 -2.25 1.1875
v 1.0625 -2.75 1.8125
v 1.0625 -2.75 1.1875
vt 0.921875 0.234375
vt 0.921875 0.28125
vt 0.796875 0.28125
vt 0.796875 0.234375
vt 0.921875 0.21875
vt 0.921875 0.265625
vt 0.796875 0.265625
vt 0.796875 0.21875
vt 0.921875 0.21875
vt 0.921875 0.234375
vt 0.796875 0.234375
vt 0.796875 0.21875
vt 0.921875 0.21875
vt 0.921875 0.234375
vt 0.796875 0.234375
vt 0.796875 0.21875
vt 0.671875 0.859375
vt 0.671875 0.890625
vt 0.578125 0.890625
vt 0.578125 0.859375
vt 0.65625 0.859375
vt 0.65625 0.890625
vt 0.5625 0.890625
vt 0.5625 0.859375
vt 1 0.34375
vt 1 0.25
vt 0.59375 0.25
vt 0.59375 0.34375
vt 1 0.25
vt 1 0.34375
vt 0.59375 0.34375
vt 0.59375 0.25
vt 0.671875 0.859375
vt 0.671875 0.890625
vt 0.265625 0.890625
vt 0.265625 0.859375
vt 0.25 0.859375
vt 0.25 0.90625
vt 0.59375 0.90625
vt 0.59375 0.859375
vt 0.328125 0.859375
vt 0.328125 0.90625
vt 0.671875 0.90625
vt 0.671875 0.859375
vt 1 0.34375
vt 1 0
vt 0.59375 0
vt 0.59375 0.34375
vt 0.265625 0.859375
vt 0.265625 0.90625
vt 0.671875 0.90625
vt 0.671875 0.859375
vt 1 0
vt 1 0.34375
vt 0.59375 0.34375
vt 0.59375 0
vt 0.25 0.671875
vt 0.25 0.734375
vt 0.390625 0.734375
vt 0.390625 0.671875
vt 0.25 0.734375
vt 0.390625 0.734375
vt 0.390625 0.71875
vt 0.25 0.71875
vt 0.390625 0.6875
vt 0.25 0.6875
vt 0.25 0.671875
vt 0.390625 0.671875
vt 0.375 0.671875
vt 0.375 0.734375
vt 0.390625 0.734375
vt 0.390625 0.671875
vt 0.25 0.671875
vt 0.25 0.734375
vt 0.265625 0.734375
vt 0.265625 0.671875
vt 0.53125 0.15625
vt 0.375 0.15625
vt 0.375 0.06786250000000005
vt 0.53125 0.06786250000000005
vt 0.53125 0.09375
vt 0.53125 0.15625
vt 0.375 0.15625
vt 0.375 0.09375
vt 0.53125 0.109375
vt 0.53125 0.15625
vt 0.375 0.15625
vt 0.375 0.109375
vt 0.890625 0.40625
vt 0.953125 0.34375
vt 1 0.34375
vt 1 0.40625
vt 1 0.34375
vt 0.953125 0.34375
vt 0.890625 0.40625
vt 1 0.40625
vt 0.265625 0.046875
vt 0.265625 0.171875
vt 0.109375 0.171875
vt 0.109375 0.046875
vt 0.53125 0.140625
vt 0.53125 0.265625
vt 0.375 0.265625
vt 0.375 0.140625
vt 0.109375 0.046875
vt 0.109375 0.171875
vt 0 0.171875
vt 0 0.046875
vt 0.375 0.046875
vt 0.375 0.171875
vt 0.265625 0.171875
vt 0.265625 0.046875
vt 0.53125 0.15625
vt 0.375 0.15625
vt 0.375 0.06786250000000005
vt 0.53125 0.06786250000000005
vt 0.53125 0.09375
vt 0.53125 0.15625
vt 0.375 0.15625
vt 0.375 0.09375
vt 0.53125 0.109375
vt 0.53125 0.15625
vt 0.375 0.15625
vt 0.375 0.109375
vt 0.890625 0.40625
vt 0.953125 0.34375
vt 1 0.34375
vt 1 0.40625
vt 1 0.34375
vt 0.953125 0.34375
vt 0.890625 0.40625
vt 1 0.40625
vt 0.265625 0.046875
vt 0.265625 0.171875
vt 0.109375 0.171875
vt 0.109375 0.046875
vt 0.53125 0.140625
vt 0.53125 0.265625
vt 0.375 0.265625
vt 0.375 0.140625
vt 0.109375 0.046875
vt 0.109375 0.171875
vt 0 0.171875
vt 0 0.046875
vt 0.375 0.046875
vt 0.375 0.171875
vt 0.265625 0.171875
vt 0.265625 0.046875
vt 0.173421875 0.546875
vt 0.173421875 0.625
vt 0.09375 0.625
vt 0.09375 0.546875
vt 0.28125 0.625
vt 0.28125 0.546875
vt 0.359375 0.546875
vt 0.359375 0.625
vt 0.125 0.546875
vt 0.125 0.625
vt 0.0625 0.625
vt 0.0625 0.546875
vt 0.203125 0.546875
vt 0.203125 0.625
vt 0 0.625
vt 0 0.546875
vt 0 0.546875
vt 0.203125 0.546875
vt 0.203125 0.625
vt 0 0.625
vt 0.5 0.40625
vt 0.5 0.609375
vt 0.421875 0.609375
vt 0.421875 0.40625
vt 0.125 0.625
vt 0.125 0.546875
vt 0.078125 0.546875
vt 0.078125 0.625
vt 0.125 0.546875
vt 0.125 0.625
vt 0.078125 0.625
vt 0.078125 0.546875
vt 0.125 0.625
vt 0.125 0.546875
vt 0.078125 0.546875
vt 0.078125 0.625
vt 0.015625 0.546875
vt 0.015625 0.625
vt 0.046875 0.625
vt 0.046875 0.546875
vt 0.171875 0.625
vt 0.09375 0.625
vt 0.09375 0.546875
vt 0.171875 0.546875
vt 0.28125 0.5625
vt 0.28125 0.59375
vt 0.359375 0.625
vt 0.359375 0.5625
vt 0.359375 0.625
vt 0.28125 0.59375
vt 0.28125 0.5625
vt 0.359375 0.5625
vt 0.15625 0.546875
vt 0.109375 0.546875
vt 0.109375 0.625
vt 0.15625 0.625
vt 0.125 0.625
vt 0.078125 0.625
vt 0.078125 0.546875
vt 0.125 0.546875
vt 0.109375 0.546875
vt 0.0625 0.546875
vt 0.0625 0.625
vt 0.109375 0.625
vt 0.125 0.625
vt 0.125 0.546875
vt 0.078125 0.546875
vt 0.078125 0.625
vt 0.125 0.546875
vt 0.125 0.625
vt 0.078125 0.625
vt 0.078125 0.546875
vt 0.125 0.625
vt 0.125 0.546875
vt 0.078125 0.546875
vt 0.078125 0.625
vt 0.25 0.625
vt 0.25 0.75
vt 0 0.75
vt 0 0.625
vt 0.25 0.625
vt 0.25 0.75
vt 0 0.75
vt 0 0.625
vt 0.25 0.75
vt 0.25 1
vt 0 1
vt 0 0.75
vt 0.25 0.625
vt 0.25 0.75
vt 0 0.75
vt 0 0.625
vt 0.25 0.625
vt 0.25 0.75
vt 0 0.75
vt 0 0.625
vt 1 0.40625
vt 1 0.484375
vt 0.8125 0.484375
vt 0.8125 0.40625
vt 0.625 0.40625
vt 0.625 0.484375
vt 0.8125 0.484375
vt 0.8125 0.40625
vt 0.1875 0.296875
vt 0.1875 0.484375
vt 0 0.484375
vt 0 0.296875
vt 0.8125 0.40625
vt 0.8125 0.484375
vt 0.625 0.484375
vt 0.625 0.40625
vt 0.8125 0.40625
vt 0.8125 0.484375
vt 1 0.484375
vt 1 0.40625
vt 0.9375 0.3125
vt 0.8125 0.3125
vt 0.8125 0.125
vt 0.9375 0.125
vt 0.8125 0.125
vt 0.8125 0.3125
vt 0.9375 0.3125
vt 0.9375 0.125
vt 0.3125 0.8125
vt 0.5 0.8125
vt 0.5 0.9375
vt 0.3125 0.9375
vt 0.5 0.8125
vt 0.5 0.9375
vt 0.3125 0.9375
vt 0.3125 0.8125
vt 0.9375 0.3125
vt 0.8125 0.3125
vt 0.8125 0.125
vt 0.9375 0.125
vt 0.8125 0.125
vt 0.8125 0.3125
vt 0.9375 0.3125
vt 0.9375 0.125
vt 0.3125 0.8125
vt 0.5 0.8125
vt 0.5 0.9375
vt 0.3125 0.9375
vt 0.5 0.8125
vt 0.5 0.9375
vt 0.3125 0.9375
vt 0.3125 0.8125
vt 0.5 0.125
vt 0.5 0.75
vt 0.3125 0.75
vt 0.3125 0.125
vt 0.3125 0.75
vt 0.3125 0.125
vt 0.5 0.125
vt 0.5 0.75
vt 0.5 0.125
vt 0.5 0.75
vt 0.3125 0.75
vt 0.3125 0.125
vt 0.3125 0.75
vt 0.3125 0.125
vt 0.5 0.125
vt 0.5 0.75
vt 0.3125 1
vt 0.3125 0.4375
vt 0.5 0.4375
vt 0.5 1
vt 0.5 0.3125
vt 0.5 0.875
vt 0.3125 0.875
vt 0.3125 0.3125
vt 0.5 0.3125
vt 0.5 0.875
vt 0.3125 0.875
vt 0.3125 0.3125
vt 0.3125 1
vt 0.3125 0.4375
vt 0.5 0.4375
vt 0.5 1
vt 0.5 0.125
vt 0.5 0.75
vt 0.3125 0.75
vt 0.3125 0.125
vt 0.3125 0.75
vt 0.3125 0.125
vt 0.5 0.125
vt 0.5 0.75
vt 0.5 0.125
vt 0.5 0.75
vt 0.3125 0.75
vt 0.3125 0.125
vt 0.3125 0.75
vt 0.3125 0.125
vt 0.5 0.125
vt 0.5 0.75
vt 0.3125 1
vt 0.3125 0.4375
vt 0.5 0.4375
vt 0.5 1
vt 0.5 0.3125
vt 0.5 0.875
vt 0.3125 0.875
vt 0.3125 0.3125
vt 0.5 0.3125
vt 0.5 0.875
vt 0.3125 0.875
vt 0.3125 0.3125
vt 0.3125 1
vt 0.3125 0.4375
vt 0.5 0.4375
vt 0.5 1
vt 0.9375 0.3125
vt 0.8125 0.3125
vt 0.8125 0.125
vt 0.9375 0.125
vt 0.8125 0.125
vt 0.8125 0.3125
vt 0.9375 0.3125
vt 0.9375 0.125
vt 0.3125 0.8125
vt 0.5 0.8125
vt 0.5 0.9375
vt 0.3125 0.9375
vt 0.5 0.8125
vt 0.5 0.9375
vt 0.3125 0.9375
vt 0.3125 0.8125
vt 0.9375 0.3125
vt 0.8125 0.3125
vt 0.8125 0.125
vt 0.9375 0.125
vt 0.8125 0.125
vt 0.8125 0.3125
vt 0.9375 0.3125
vt 0.9375 0.125
vt 0.3125 0.8125
vt 0.5 0.8125
vt 0.5 0.9375
vt 0.3125 0.9375
vt 0.5 0.8125
vt 0.5 0.9375
vt 0.3125 0.9375
vt 0.3125 0.8125
vt 0.9375 0.3125
vt 0.8125 0.3125
vt 0.8125 0.125
vt 0.9375 0.125
vt 0.8125 0.125
vt 0.8125 0.3125
vt 0.9375 0.3125
vt 0.9375 0.125
vt 0.3125 0.8125
vt 0.5 0.8125
vt 0.5 0.9375
vt 0.3125 0.9375
vt 0.5 0.8125
vt 0.5 0.9375
vt 0.3125 0.9375
vt 0.3125 0.8125
vt 0.9375 0.3125
vt 0.8125 0.3125
vt 0.8125 0.125
vt 0.9375 0.125
vt 0.8125 0.125
vt 0.8125 0.3125
vt 0.9375 0.3125
vt 0.9375 0.125
vt 0.3125 0.8125
vt 0.5 0.8125
vt 0.5 0.9375
vt 0.3125 0.9375
vt 0.5 0.8125
vt 0.5 0.9375
vt 0.3125 0.9375
vt 0.3125 0.8125
vt 0.5 0.125
vt 0.5 0.75
vt 0.3125 0.75
vt 0.3125 0.125
vt 0.3125 0.75
vt 0.3125 0.125
vt 0.5 0.125
vt 0.5 0.75
vt 0.5 0.125
vt 0.5 0.75
vt 0.3125 0.75
vt 0.3125 0.125
vt 0.3125 0.75
vt 0.3125 0.125
vt 0.5 0.125
vt 0.5 0.75
vt 0.3125 1
vt 0.3125 0.4375
vt 0.5 0.4375
vt 0.5 1
vt 0.5 0.3125
vt 0.5 0.875
vt 0.3125 0.875
vt 0.3125 0.3125
vt 0.5 0.3125
vt 0.5 0.875
vt 0.3125 0.875
vt 0.3125 0.3125
vt 0.3125 1
vt 0.3125 0.4375
vt 0.5 0.4375
vt 0.5 1
vt 0.5 0.125
vt 0.5 0.75
vt 0.3125 0.75
vt 0.3125 0.125
vt 0.3125 0.75
vt 0.3125 0.125
vt 0.5 0.125
vt 0.5 0.75
vt 0.5 0.125
vt 0.5 0.75
vt 0.3125 0.75
vt 0.3125 0.125
vt 0.3125 0.75
vt 0.3125 0.125
vt 0.5 0.125
vt 0.5 0.75
vt 0.3125 1
vt 0.3125 0.4375
vt 0.5 0.4375
vt 0.5 1
vt 0.5 0.3125
vt 0.5 0.875
vt 0.3125 0.875
vt 0.3125 0.3125
vt 0.5 0.3125
vt 0.5 0.875
vt 0.3125 0.875
vt 0.3125 0.3125
vt 0.3125 1
vt 0.3125 0.4375
vt 0.5 0.4375
vt 0.5 1
vt 0.9375 0.3125
vt 0.8125 0.3125
vt 0.8125 0.125
vt 0.9375 0.125
vt 0.8125 0.125
vt 0.8125 0.3125
vt 0.9375 0.3125
vt 0.9375 0.125
vt 0.3125 0.8125
vt 0.5 0.8125
vt 0.5 0.9375
vt 0.3125 0.9375
vt 0.5 0.8125
vt 0.5 0.9375
vt 0.3125 0.9375
vt 0.3125 0.8125
vt 0.9375 0.3125
vt 0.8125 0.3125
vt 0.8125 0.125
vt 0.9375 0.125
vt 0.8125 0.125
vt 0.8125 0.3125
vt 0.9375 0.3125
vt 0.9375 0.125
vt 0.3125 0.8125
vt 0.5 0.8125
vt 0.5 0.9375
vt 0.3125 0.9375
vt 0.5 0.8125
vt 0.5 0.9375
vt 0.3125 0.9375
vt 0.3125 0.8125
vt 0.1875 0.265625
vt 0.1875 0.359375
vt 0.34375 0.359375
vt 0.34375 0.265625
vt 0.1875 0.265625
vt 0.1875 0.359375
vt 0.34375 0.359375
vt 0.34375 0.265625
vt 0.34375 0.265625
vt 0.34375 0.359375
vt 0.1875 0.359375
vt 0.1875 0.265625
vt 0.34375 0.265625
vt 0.34375 0.359375
vt 0.1875 0.359375
vt 0.1875 0.265625
vt 0.1875 0.40625
vt 0.34375 0.40625
vt 0.34375 0.375
vt 0.1875 0.375
vt 0.1875 0.375
vt 0.1875 0.40625
vt 0.34375 0.40625
vt 0.34375 0.375
vt 0.328125 0.265625
vt 0.203125 0.265625
vt 0.203125 0.390625
vt 0.328125 0.390625
vt 0.34375 0.375
vt 0.328125 0.40625
vt 0.203125 0.40625
vt 0.1875 0.375
vt 0.34375 0.40625
vt 0.1875 0.40625
vt 0.1875 0.375
vt 0.34375 0.375
vt 0.1875 0.40625
vt 0.34375 0.40625
vt 0.34375 0.375
vt 0.1875 0.375
vt 0.1875 0.375
vt 0.1875 0.40625
vt 0.34375 0.40625
vt 0.34375 0.375
vt 0.34375 0.375
vt 0.328125 0.40625
vt 0.203125 0.40625
vt 0.1875 0.375
vt 0.34375 0.40625
vt 0.1875 0.40625
vt 0.1875 0.375
vt 0.34375 0.375
vt 0.328125 0.265625
vt 0.203125 0.265625
vt 0.203125 0.390625
vt 0.328125 0.390625
vt 1 0.46875
vt 1 1
vt 0.90625 1
vt 0.90625 0.46875
vt 1 0.46875
vt 1 1
vt 0.90625 1
vt 0.90625 0.46875
vt 1 0.46875
vt 1 1
vt 0.90625 1
vt 0.90625 0.46875
vt 1 0.46875
vt 1 1
vt 0.90625 1
vt 0.90625 0.46875
vt 0.96875 0.203125
vt 0.96875 0.25
vt 0.703125 0.25
vt 0.703125 0.203125
vt 0.96875 0.1875
vt 0.96875 0.234375
vt 0.703125 0.234375
vt 0.703125 0.1875
vt 0.96875 0.1875
vt 0.96875 0.203125
vt 0.703125 0.203125
vt 0.703125 0.1875
vt 0.96875 0.1875
vt 0.96875 0.203125
vt 0.703125 0.203125
vt 0.703125 0.1875
vt 0.921875 0.03125
vt 0.921875 0.046875
vt 0.671875 0.046875
vt 0.671875 0.03125
vt 0.921875 0.03125
vt 0.921875 0.046875
vt 0.671875 0.046875
vt 0.671875 0.03125
vt 0.921875 0.046875
vt 0.921875 0.296875
vt 0.875 0.296875
vt 0.875 0.046875
vt 0.921875 0.046875
vt 0.921875 0.296875
vt 0.875 0.296875
vt 0.875 0.046875
vt 0.671875 0.859375
vt 0.671875 0.90625
vt 0.421875 0.90625
vt 0.421875 0.859375
vt 0.671875 0.859375
vt 0.671875 0.90625
vt 0.421875 0.90625
vt 0.421875 0.859375
vt 0.671875 0.90625
vt 0.421875 0.90625
vt 0.421875 0.859375
vt 0.671875 0.859375
vt 0.6734375 0.90625
vt 0.4234375 0.90625
vt 0.4234375 0.859375
vt 0.6734375 0.859375
vt 0.671875 0.859375
vt 0.671875 0.90625
vt 0.421875 0.90625
vt 0.421875 0.859375
vt 0.671875 0.859375
vt 0.671875 0.90625
vt 0.421875 0.90625
vt 0.421875 0.859375
vt 0.671875 0.90625
vt 0.421875 0.90625
vt 0.421875 0.859375
vt 0.671875 0.859375
vt 0.6734375 0.90625
vt 0.4234375 0.90625
vt 0.4234375 0.859375
vt 0.6734375 0.859375
vt 0.640625 0.859375
vt 0.640625 0.90625
vt 0.59375 0.90625
vt 0.59375 0.859375
vt 0.640625 0.859375
vt 0.640625 0.90625
vt 0.59375 0.90625
vt 0.59375 0.859375
vt 0.59375 0.8125
vt 0.59375 0.765625
vt 0.25 0.765625
vt 0.25 0.8125
vt 0.59375 0.765625
vt 0.59375 0.8125
vt 0.25 0.8125
vt 0.25 0.765625
vt 0.640625 0.859375
vt 0.640625 0.90625
vt 0.296875 0.90625
vt 0.296875 0.859375
vt 0.640625 0.859375
vt 0.640625 0.90625
vt 0.296875 0.90625
vt 0.296875 0.859375
vt 0.640625 0.859375
vt 0.640625 0.90625
vt 0.59375 0.90625
vt 0.59375 0.859375
vt 0.640625 0.859375
vt 0.640625 0.90625
vt 0.59375 0.90625
vt 0.59375 0.859375
vt 0.59375 0.765625
vt 0.59375 0.8125
vt 0.25 0.8125
vt 0.25 0.765625
vt 0.59375 0.8125
vt 0.59375 0.765625
vt 0.25 0.765625
vt 0.25 0.8125
vt 0.640625 0.859375
vt 0.640625 0.90625
vt 0.296875 0.90625
vt 0.296875 0.859375
vt 0.640625 0.859375
vt 0.640625 0.90625
vt 0.296875 0.90625
vt 0.296875 0.859375
vt 0.9375 0.09375
vt 0.9375 0.109375
vt 0.75 0.109375
vt 0.75 0.09375
vt 0.9375 0.09375
vt 0.9375 0.109375
vt 0.75 0.109375
vt 0.75 0.09375
vt 0.9375 0.109375
vt 0.9375 0.296875
vt 0.890625 0.296875
vt 0.890625 0.109375
vt 0.9375 0.109375
vt 0.9375 0.296875
vt 0.890625 0.296875
vt 0.890625 0.109375
vt 0.890625 0.140625
vt 0.890625 0.1875
vt 0.6875 0.1875
vt 0.6875 0.140625
vt 0.890625 0.125
vt 0.890625 0.171875
vt 0.6875 0.171875
vt 0.6875 0.125
vt 0.890625 0.125
vt 0.890625 0.140625
vt 0.6875 0.140625
vt 0.6875 0.125
vt 0.890625 0.125
vt 0.890625 0.140625
vt 0.6875 0.140625
vt 0.6875 0.125
vt 0.671875 0.8125
vt 0.671875 0.859375
vt 0.484375 0.859375
vt 0.484375 0.8125
vt 0.671875 0.8125
vt 0.671875 0.859375
vt 0.484375 0.859375
vt 0.484375 0.8125
vt 0.484375 0.859375
vt 0.671875 0.859375
vt 0.671875 0.8125
vt 0.484375 0.8125
vt 0.671875 0.859375
vt 0.484375 0.859375
vt 0.484375 0.8125
vt 0.671875 0.8125
vt 0.609375 0.8125
vt 0.609375 0.859375
vt 0.5625 0.859375
vt 0.5625 0.8125
vt 0.609375 0.8125
vt 0.609375 0.859375
vt 0.5625 0.859375
vt 0.5625 0.8125
vt 0.671875 0.765625
vt 0.671875 0.71875
vt 0.390625 0.71875
vt 0.390625 0.765625
vt 0.671875 0.71875
vt 0.671875 0.765625
vt 0.390625 0.765625
vt 0.390625 0.71875
vt 0.609375 0.8125
vt 0.609375 0.859375
vt 0.328125 0.859375
vt 0.328125 0.8125
vt 0.609375 0.8125
vt 0.609375 0.859375
vt 0.328125 0.859375
vt 0.328125 0.8125
vt 0.671875 0.8125
vt 0.671875 0.859375
vt 0.484375 0.859375
vt 0.484375 0.8125
vt 0.671875 0.8125
vt 0.671875 0.859375
vt 0.484375 0.859375
vt 0.484375 0.8125
vt 0.484375 0.859375
vt 0.671875 0.859375
vt 0.671875 0.8125
vt 0.484375 0.8125
vt 0.671875 0.859375
vt 0.484375 0.859375
vt 0.484375 0.8125
vt 0.671875 0.8125
vt 0.609375 0.8125
vt 0.609375 0.859375
vt 0.5625 0.859375
vt 0.5625 0.8125
vt 0.609375 0.8125
vt 0.609375 0.859375
vt 0.5625 0.859375
vt 0.5625 0.8125
vt 0.671875 0.765625
vt 0.671875 0.71875
vt 0.390625 0.71875
vt 0.390625 0.765625
vt 0.671875 0.71875
vt 0.671875 0.765625
vt 0.390625 0.765625
vt 0.390625 0.71875
vt 0.609375 0.8125
vt 0.609375 0.859375
vt 0.328125 0.859375
vt 0.328125 0.8125
vt 0.609375 0.8125
vt 0.609375 0.859375
vt 0.328125 0.859375
vt 0.328125 0.8125
vt 0.9375 0.171875
vt 0.9375 0.21875
vt 0.78125 0.21875
vt 0.78125 0.171875
vt 0.9375 0.15625
vt 0.9375 0.203125
vt 0.78125 0.203125
vt 0.78125 0.15625
vt 0.9375 0.15625
vt 0.9375 0.171875
vt 0.78125 0.171875
vt 0.78125 0.15625
vt 0.9375 0.15625
vt 0.9375 0.171875
vt 0.78125 0.171875
vt 0.78125 0.15625
vt 0.890625 0.140625
vt 0.890625 0.15625
vt 0.734375 0.15625
vt 0.734375 0.140625
vt 0.890625 0.140625
vt 0.890625 0.15625
vt 0.734375 0.15625
vt 0.734375 0.140625
vt 0.890625 0.15625
vt 0.890625 0.3125
vt 0.84375 0.3125
vt 0.84375 0.15625
vt 0.890625 0.15625
vt 0.890625 0.3125
vt 0.84375 0.3125
vt 0.84375 0.15625
vt 0.53125 0.765625
vt 0.53125 0.8125
vt 0.375 0.8125
vt 0.375 0.765625
vt 0.484375 0.859375
vt 0.484375 0.90625
vt 0.640625 0.90625
vt 0.640625 0.859375
vt 0.375 0.8125
vt 0.53125 0.8125
vt 0.53125 0.765625
vt 0.375 0.765625
vt 0.53125 0.8125
vt 0.375 0.8125
vt 0.375 0.765625
vt 0.53125 0.765625
vt 0.375 0.765625
vt 0.375 0.8125
vt 0.53125 0.8125
vt 0.53125 0.765625
vt 0.53125 0.765625
vt 0.53125 0.8125
vt 0.375 0.8125
vt 0.375 0.765625
vt 0.53125 0.8125
vt 0.375 0.8125
vt 0.375 0.765625
vt 0.53125 0.765625
vt 0.375 0.8125
vt 0.53125 0.8125
vt 0.53125 0.765625
vt 0.375 0.765625
vt 0.59375 0.859375
vt 0.59375 0.90625
vt 0.34375 0.90625
vt 0.34375 0.859375
vt 0.671875 0.859375
vt 0.671875 0.90625
vt 0.421875 0.90625
vt 0.421875 0.859375
vt 0.65625 0.671875
vt 0.40625 0.671875
vt 0.40625 0.71875
vt 0.65625 0.71875
vt 0.65625 0.671875
vt 0.40625 0.671875
vt 0.40625 0.71875
vt 0.65625 0.71875
vt 0.65625 0.859375
vt 0.65625 0.90625
vt 0.609375 0.90625
vt 0.609375 0.859375
vt 0.328125 0.859375
vt 0.328125 0.90625
vt 0.28125 0.90625
vt 0.28125 0.859375
vt 0.671875 0.859375
vt 0.671875 0.90625
vt 0.421875 0.90625
vt 0.421875 0.859375
vt 0.671875 0.859375
vt 0.671875 0.90625
vt 0.421875 0.90625
vt 0.421875 0.859375
vt 0.65625 0.671875
vt 0.40625 0.671875
vt 0.40625 0.71875
vt 0.65625 0.71875
vt 0.65625 0.671875
vt 0.40625 0.671875
vt 0.40625 0.71875
vt 0.65625 0.71875
vt 0.546875 0.859375
vt 0.546875 0.90625
vt 0.5 0.90625
vt 0.5 0.859375
vt 0.515625 0.859375
vt 0.515625 0.90625
vt 0.46875 0.90625
vt 0.46875 0.859375
vt 0.515625 0.8125
vt 0.515625 0.859375
vt 0.390625 0.859375
vt 0.390625 0.8125
vt 0.515625 0.8125
vt 0.515625 0.859375
vt 0.390625 0.859375
vt 0.390625 0.8125
vt 0.5625 0.859375
vt 0.4375 0.859375
vt 0.4375 0.8125
vt 0.5625 0.8125
vt 0.53125 0.859375
vt 0.40625 0.859375
vt 0.40625 0.8125
vt 0.53125 0.8125
vt 0.515625 0.8125
vt 0.515625 0.859375
vt 0.390625 0.859375
vt 0.390625 0.8125
vt 0.515625 0.8125
vt 0.515625 0.859375
vt 0.390625 0.859375
vt 0.390625 0.8125
vt 0.5625 0.859375
vt 0.4375 0.859375
vt 0.4375 0.8125
vt 0.5625 0.8125
vt 0.53125 0.859375
vt 0.40625 0.859375
vt 0.40625 0.8125
vt 0.53125 0.8125
vt 0.625 0.71875
vt 0.625 0.765625
vt 0.578125 0.765625
vt 0.578125 0.71875
vt 0.625 0.71875
vt 0.625 0.765625
vt 0.578125 0.765625
vt 0.578125 0.71875
vt 0.390625 0.765625
vt 0.5 0.765625
vt 0.5 0.71875
vt 0.390625 0.71875
vt 0.390625 0.71875
vt 0.5 0.71875
vt 0.5 0.765625
vt 0.390625 0.765625
vt 0.453125 0.71875
vt 0.5625 0.71875
vt 0.5625 0.765625
vt 0.453125 0.765625
vt 0.640625 0.765625
vt 0.53125 0.765625
vt 0.53125 0.71875
vt 0.640625 0.71875
vt 0.671875 0.71875
vt 0.5625 0.71875
vt 0.5625 0.765625
vt 0.671875 0.765625
vt 0.671875 0.765625
vt 0.5625 0.765625
vt 0.5625 0.71875
vt 0.671875 0.71875
vt 0.671875 0.765625
vt 0.5625 0.765625
vt 0.5625 0.71875
vt 0.671875 0.71875
vt 0.453125 0.71875
vt 0.5625 0.71875
vt 0.5625 0.765625
vt 0.453125 0.765625
vt 0.625 0.71875
vt 0.625 0.765625
vt 0.578125 0.765625
vt 0.578125 0.71875
vt 0.625 0.71875
vt 0.625 0.765625
vt 0.578125 0.765625
vt 0.578125 0.71875
vt 0.390625 0.765625
vt 0.5 0.765625
vt 0.5 0.71875
vt 0.390625 0.71875
vt 0.390625 0.71875
vt 0.5 0.71875
vt 0.5 0.765625
vt 0.390625 0.765625
vt 0.453125 0.71875
vt 0.5625 0.71875
vt 0.5625 0.765625
vt 0.453125 0.765625
vt 0.640625 0.765625
vt 0.53125 0.765625
vt 0.53125 0.71875
vt 0.640625 0.71875
vt 0.671875 0.71875
vt 0.5625 0.71875
vt 0.5625 0.765625
vt 0.671875 0.765625
vt 0.671875 0.765625
vt 0.5625 0.765625
vt 0.5625 0.71875
vt 0.671875 0.71875
vt 0.671875 0.765625
vt 0.5625 0.765625
vt 0.5625 0.71875
vt 0.671875 0.71875
vt 0.453125 0.71875
vt 0.5625 0.71875
vt 0.5625 0.765625
vt 0.453125 0.765625
vt 0.9375 0.140625
vt 0.9375 0.15625
vt 0.8125 0.15625
vt 0.8125 0.140625
vt 0.9375 0.140625
vt 0.9375 0.15625
vt 0.8125 0.15625
vt 0.8125 0.140625
vt 0.9375 0.15625
vt 0.9375 0.28125
vt 0.890625 0.28125
vt 0.890625 0.15625
vt 0.9375 0.15625
vt 0.9375 0.28125
vt 0.890625 0.28125
vt 0.890625 0.15625
vt 0.53125 0.15625
vt 0.375 0.15625
vt 0.375 0.06786250000000005
vt 0.53125 0.06786250000000005
vt 0.53125 0.109375
vt 0.53125 0.15625
vt 0.375 0.15625
vt 0.375 0.109375
vt 0.890625 0.40625
vt 0.953125 0.34375
vt 1 0.34375
vt 1 0.40625
vt 1 0.34375
vt 0.953125 0.34375
vt 0.890625 0.40625
vt 1 0.40625
vt 0.53125 0.34375
vt 0.53125 0.46875
vt 0.515625 0.46875
vt 0.515625 0.34375
vt 0.53125 0.34375
vt 0.53125 0.46875
vt 0.515625 0.46875
vt 0.515625 0.34375
vt 0.53125 0.34375
vt 0.53125 0.359375
vt 0.515625 0.359375
vt 0.515625 0.34375
vt 0.53125 0.34375
vt 0.53125 0.46875
vt 0.515625 0.46875
vt 0.515625 0.34375
vt 0.296875 0.171875
vt 0.296875 0.265625
vt 0.1875 0.265625
vt 0.1875 0.171875
vt 0.296875 0.171875
vt 0.296875 0.265625
vt 0.1875 0.265625
vt 0.1875 0.171875
vt 0.546875 0.265625
vt 0.546875 0.359375
vt 0.359375 0.359375
vt 0.359375 0.265625
vt 0.546875 0.25
vt 0.546875 0.359375
vt 0.359375 0.359375
vt 0.359375 0.25
vt 0.53125 0.34375
vt 0.53125 0.46875
vt 0.515625 0.46875
vt 0.515625 0.34375
vt 0.53125 0.34375
vt 0.53125 0.46875
vt 0.515625 0.46875
vt 0.515625 0.34375
vt 0.53125 0.34375
vt 0.53125 0.359375
vt 0.515625 0.359375
vt 0.515625 0.34375
vt 0.53125 0.34375
vt 0.53125 0.46875
vt 0.515625 0.46875
vt 0.515625 0.34375
vt 0.53125 0.15625
vt 0.375 0.15625
vt 0.375 0.06786250000000005
vt 0.53125 0.06786250000000005
vt 0.53125 0.09375
vt 0.53125 0.15625
vt 0.375 0.15625
vt 0.375 0.09375
vt 0.53125 0.109375
vt 0.53125 0.15625
vt 0.375 0.15625
vt 0.375 0.109375
vt 0.890625 0.40625
vt 0.953125 0.34375
vt 1 0.34375
vt 1 0.40625
vt 1 0.34375
vt 0.953125 0.34375
vt 0.890625 0.40625
vt 1 0.40625
vt 0.265625 0.046875
vt 0.265625 0.171875
vt 0.109375 0.171875
vt 0.109375 0.046875
vt 0.53125 0.140625
vt 0.53125 0.265625
vt 0.375 0.265625
vt 0.375 0.140625
vt 0.109375 0.046875
vt 0.109375 0.171875
vt 0 0.171875
vt 0 0.046875
vt 0.375 0.046875
vt 0.375 0.171875
vt 0.265625 0.171875
vt 0.265625 0.046875
vn 0 1 0
vn 0 -1 0
vn 0 0 1
vn 0 0 -1
vn 1 0 0
vn -1 0 0
vn 0 1 0
vn 0 -1 0
vn 0 0 1
vn 1 0 0
vn -1 0 0
vn 0 -1 0
vn 0 0 -1
vn 0 1 0
vn -0.7132498607023159 0.700909863112317 0
vn 0.7009098631123166 0.7132498607023162 0
vn -0.7009098631123162 -0.7132498607023167 0
vn 0 0 1
vn 0 0 -1
vn -0.7071067811865475 0.7071067811865476 0
vn 1 0 0
vn 0 1 0
vn 0 0 -1
vn 0 0 1
vn -1 0 0
vn 1 0 0
vn 0 0 -1
vn 0 0 1
vn 0 0.7071067811865478 -0.7071067811865474
vn 0 0 1
vn 0 1 0
vn 1 0 0
vn -1 0 0
vn 0 0 -1
vn 0 0 1
vn 1 0 0
vn -1 0 0
vn -0.9805806756909203 0 0.1961161351381841
vn 0 1 0
vn 0 0 1
vn -1 0 0
vn 0 1 0
vn 0 -1 0
vn 0 1 0
vn 0 0 1
vn 0 0 -1
vn 1 0 0
vn 0.3713906763541037 0.9284766908852593 0
vn 0 0 1
vn 0 0 -1
vn 1 0 0
vn 0 0 1
vn 0 0 -1
vn 0 1 0
vn 0 0 1
vn 0 0 -1
vn 1 0 0
vn -1 0 0
vn 0 1 0
vn 0 0 1
vn 0 0 -1
vn 1 0 0
vn -1 0 0
vn 0 1 0
vn 0 0 1
vn 0 0 -1
vn 1 0 0
vn -1 0 0
vn 0 0.8944271909999161 0.44721359549995804
vn 0 0 1
vn 1 0 0
vn -1 0 0
vn 0 0.8944271909999161 0.44721359549995804
vn 0 0 1
vn 1 0 0
vn -1 0 0
vn 0 1 0
vn 0 -1 0
vn 1 0 0
vn 0 -1 0
vn -1 0 0
vn 0 1 0
vn 1 0 0
vn -1 0 0
vn 0 1 0
vn 0 -1 0
vn 1 0 0
vn 0 -1 0
vn -1 0 0
vn 0 1 0
vn -1 0 0
vn 1 0 0
vn 0 0.8944271909999161 -0.44721359549995804
vn 0 0 -1
vn -1 0 0
vn 1 0 0
vn 0 0.8944271909999161 -0.44721359549995804
vn 0 0 -1
vn 0 0 -1
vn 0 0 1
vn 0.44721359549995804 0.8944271909999161 0
vn 1 0 0
vn 0 0 -1
vn 0 0 1
vn 0.44721359549995804 0.8944271909999161 0
vn 1 0 0
vn 0 0 -1
vn 0 0 1
vn 0 1 0
vn 0 -1 0
vn 0 0 -1
vn 0 -1 0
vn 0 0 1
vn 0 1 0
vn 0 0 -1
vn 0 0 1
vn 0 1 0
vn 0 -1 0
vn 0 0 -1
vn 0 -1 0
vn 0 0 1
vn 0 1 0
vn 0 0 1
vn 0 0 -1
vn -0.44721359549995804 0.8944271909999161 0
vn -1 0 0
vn 0 0 1
vn 0 0 -1
vn -0.44721359549995804 0.8944271909999161 0
vn -1 0 0
vn 1 0 0
vn -1 0 0
vn 0 0 1
vn 0 0 -1
vn 0.8944271909999161 0.44721359549995804 0
vn -0.8944271909999161 0.44721359549995804 0
vn 0 1 0
vn 0 0.44721359549995804 0.8944271909999161
vn 0 0.44721359549995804 -0.8944271909999161
vn 0.8944271909999161 -0.44721359549995804 0
vn -0.8944271909999161 -0.44721359549995804 0
vn 0 -0.44721359549995804 -0.8944271909999161
vn 0 -0.44721359549995804 0.8944271909999161
vn 0 -1 0
vn 1 0 0
vn -1 0 0
vn 0 0 1
vn 0 0 -1
vn 0 1 0
vn 0 -1 0
vn 0 0 1
vn 0 0 -1
vn 1 0 0
vn -1 0 0
vn 0 1 0
vn 0 -1 0
vn 1 0 0
vn -1 0 0
vn 0 1 0
vn 0 -1 0
vn 1 0 0
vn -1 0 0
vn 0 1 0
vn 0 -1 0
vn 1 0 0
vn -1 0 0
vn 0 1 0
vn 0 -1 0
vn 0 0 1
vn 0 0 -1
vn 1 0 0
vn -1 0 0
vn 0 1 0
vn 0 -1 0
vn 0 0 1
vn 0 0 -1
vn 1 0 0
vn -1 0 0
vn 0 1 0
vn 0 -1 0
vn 0 1 0
vn 0 -1 0
vn 0 0 1
vn 0 0 -1
vn 1 0 0
vn -1 0 0
vn 0 1 0
vn 0 -1 0
vn 1 0 0
vn -1 0 0
vn 0 1 0
vn 0 -1 0
vn 0 0 1
vn 0 0 -1
vn 1 0 0
vn -1 0 0
vn 0 1 0
vn 0 -1 0
vn 1 0 0
vn -1 0 0
vn 0 -1 0
vn 0 1 0
vn 0 0 -1
vn 0 0 1
vn 0 1 0
vn 0 -1 0
vn 0 0 1
vn 0 0 -1
vn 1 0 0
vn -1 0 0
vn 0 1 0
vn 0 -1 0
vn -1 0 0
vn 1 0 0
vn 0 1 0
vn 0 -1 0
vn 1 0 0
vn -1 0 0
vn 0 1 0
vn 0 -1 0
vn 0 0 1
vn 0 0 -1
vn 0 -1 0
vn 0 1 0
vn 1 0 0
vn -1 0 0
vn 0 0 -1
vn 0 0 1
vn 0 1 0
vn 0 -1 0
vn 1 0 0
vn -1 0 0
vn 1 0 0
vn -1 0 0
vn 0 1 0
vn 0 -1 0
vn 1 0 0
vn -1 0 0
vn 0 1 0
vn 0 -1 0
vn 1 0 0
vn -1 0 0
vn 0 -1 0
vn 0 1 0
vn 0 0 -1
vn 0 0 1
vn 0 -1 0
vn 0 0 -1
vn 0 1 0
vn 0 0 1
vn 1 0 0
vn -1 0 0
vn 0 1 0
vn 0 -1 0
vn 0 0 1
vn 0 0 -1
vn 0 1 0
vn 0 0 1
vn 0 -1 0
vn 0 0 -1
vn 1 0 0
vn -1 0 0
vn 0 1 0
vn 0 -1 0
vn 0 0.7071067811865476 0.7071067811865475
vn 0 1 0
vn -1 0 0
vn 1 0 0
vn 1 0 0
vn -1 0 0
vn 0 1 0
vn 0 0 1
vn 1 0 0
vn -1 0 0
vn 0 0 1
vn 0 1 0
vn 1 0 0
vn -1 0 0
vn 0 1 0
vn 0 0 1
vn 0.7071067811865474 0.7071067811865478 0
vn -1 0 0
vn 0 1 0
vn 0 0 1
vn 0 0 -1
vn 1 0 0
vn -1 0 0
vn 0 0 1
vn 0 0 -1
usemtl tesla_coil
f 1/1/1 2/2/1 6/3/1
f 1/1/1 6/3/1 5/4/1
f 4/5/2 3/6/2 7/7/2
f 4/5/2 7/7/2 8/8/2
f 3/9/3 1/10/3 5/11/3
f 3/9/3 5/11/3 7/12/3
f 8/13/4 6/14/4 2/15/4
f 8/13/4 2/15/4 4/16/4
f 12/17/5 10/18/5 9/19/5
f 12/17/5 9/19/5 11/20/5
f 15/21/6 13/22/6 14/23/6
f 15/21/6 14/23/6 16/24/6
f 9/25/7 10/26/7 14/27/7
f 9/25/7 14/27/7 13/28/7
f 12/29/8 11/30/8 15/31/8
f 12/29/8 15/31/8 16/32/8
f 11/33/9 9/34/9 13/35/9
f 11/33/9 13/35/9 15/36/9
f 20/37/10 18/38/10 17/39/10
f 20/37/10 17/39/10 19/40/10
f 23/41/11 21/42/11 22/43/11
f 23/41/11 22/43/11 24/44/11
f 20/45/12 19/46/12 23/47/12
f 20/45/12 23/47/12 24/48/12
f 24/49/13 22/50/13 18/51/13
f 24/49/13 18/51/13 20/52/13
f 17/53/14 18/54/14 22/55/14
f 17/53/14 22/55/14 21/56/14
f 32/57/15 30/58/15 31/59/15
f 32/57/15 31/59/15 33/60/15
f 26/61/16 27/62/16 31/63/16
f 26/61/16 31/63/16 30/64/16
f 29/65/17 28/66/17 32/67/17
f 29/65/17 32/67/17 33/68/17
f 28/69/18 26/70/18 30/71/18
f 28/69/18 30/71/18 32/72/18
f 33/73/19 31/74/19 27/75/19
f 33/73/19 27/75/19 29/76/19
f 35/77/20 34/78/20 36/79/20
f 35/77/20 36/79/20 37/80/20
f 40/81/21 38/82/21 39/83/21
f 40/81/21 39/83/21 41/84/21
f 38/85/22 34/86/22 35/87/22
f 38/85/22 35/87/22 39/88/22
f 36/89/23 34/90/23 38/91/23
f 36/89/23 38/91/23 40/92/23
f 39/93/24 35/94/24 37/95/24
f 39/93/24 37/95/24 41/96/24
f 45/97/25 43/98/25 42/99/25
f 45/97/25 42/99/25 44/100/25
f 48/101/26 46/102/26 47/103/26
f 48/101/26 47/103/26 49/104/26
f 44/105/27 42/106/27 46/107/27
f 44/105/27 46/107/27 48/108/27
f 49/109/28 47/110/28 43/111/28
f 49/109/28 43/111/28 45/112/28
f 51/113/29 50/114/29 52/115/29
f 51/113/29 52/115/29 53/116/29
f 56/117/30 54/118/30 55/119/30
f 56/117/30 55/119/30 57/120/30
f 54/121/31 50/122/31 51/123/31
f 54/121/31 51/123/31 55/124/31
f 52/125/32 50/126/32 54/127/32
f 52/125/32 54/127/32 56/128/32
f 55/129/33 51/130/33 53/131/33
f 55/129/33 53/131/33 57/132/33
f 61/133/34 59/134/34 58/135/34
f 61/133/34 58/135/34 60/136/34
f 64/137/35 62/138/35 63/139/35
f 64/137/35 63/139/35 65/140/35
f 60/141/36 58/142/36 62/143/36
f 60/141/36 62/143/36 64/144/36
f 65/145/37 63/146/37 59/147/37
f 65/145/37 59/147/37 61/148/37
f 71/149/38 69/150/38 70/151/38
f 71/149/38 70/151/38 72/152/38
f 69/153/39 66/154/39 67/155/39
f 69/153/39 67/155/39 70/156/39
f 68/157/40 66/158/40 69/159/40
f 68/157/40 69/159/40 71/160/40
f 79/161/41 77/162/41 78/163/41
f 79/161/41 78/163/41 80/164/41
f 73/165/42 74/166/42 78/167/42
f 73/165/42 78/167/42 77/168/42
f 76/169/43 75/170/43 79/171/43
f 76/169/43 79/171/43 80/172/43
f 81/173/44 82/174/44 86/175/44
f 81/173/44 86/175/44 85/176/44
f 83/177/45 81/178/45 85/179/45
f 83/177/45 85/179/45 87/180/45
f 88/181/46 86/182/46 82/183/46
f 88/181/46 82/183/46 84/184/46
f 90/185/47 89/186/47 91/187/47
f 90/185/47 91/187/47 92/188/47
f 93/189/48 89/190/48 90/191/48
f 93/189/48 90/191/48 94/192/48
f 91/193/49 89/194/49 93/195/49
f 91/193/49 93/195/49 95/196/49
f 94/197/50 90/198/50 92/199/50
f 94/197/50 92/199/50 96/200/50
f 100/201/51 98/202/51 97/203/51
f 100/201/51 97/203/51 99/204/51
f 99/205/52 97/206/52 101/207/52
f 99/205/52 101/207/52 103/208/52
f 104/209/53 102/210/53 98/211/53
f 104/209/53 98/211/53 100/212/53
f 105/213/54 106/214/54 110/215/54
f 105/213/54 110/215/54 109/216/54
f 107/217/55 105/218/55 109/219/55
f 107/217/55 109/219/55 111/220/55
f 112/221/56 110/222/56 106/223/56
f 112/221/56 106/223/56 108/224/56
f 117/225/57 115/226/57 114/227/57
f 117/225/57 114/227/57 116/228/57
f 120/229/58 118/230/58 119/231/58
f 120/229/58 119/231/58 121/232/58
f 114/233/59 115/234/59 119/235/59
f 114/233/59 119/235/59 118/236/59
f 116/237/60 114/238/60 118/239/60
f 116/237/60 118/239/60 120/240/60
f 121/241/61 119/242/61 115/243/61
f 121/241/61 115/243/61 117/244/61
f 125/245/62 123/246/62 122/247/62
f 125/245/62 122/247/62 124/248/62
f 128/249/63 126/250/63 127/251/63
f 128/249/63 127/251/63 129/252/63
f 122/253/64 123/254/64 127/255/64
f 122/253/64 127/255/64 126/256/64
f 124/257/65 122/258/65 126/259/65
f 124/257/65 126/259/65 128/260/65
f 129/261/66 127/262/66 123/263/66
f 129/261/66 123/263/66 125/264/66
usemtl common_copper_cable
f 131/265/67 130/266/67 132/267/67
f 131/265/67 132/267/67 133/268/67
f 136/269/68 134/270/68 135/271/68
f 136/269/68 135/271/68 137/272/68
f 134/273/69 130/274/69 131/275/69
f 134/273/69 131/275/69 135/276/69
f 132/277/70 130/278/70 134/279/70
f 132/277/70 134/279/70 136/280/70
f 139/281/71 138/282/71 140/283/71
f 139/281/71 140/283/71 141/284/71
f 144/285/72 142/286/72 143/287/72
f 144/285/72 143/287/72 145/288/72
f 142/289/73 138/290/73 139/291/73
f 142/289/73 139/291/73 143/292/73
f 140/293/74 138/294/74 142/295/74
f 140/293/74 142/295/74 144/296/74
f 148/297/75 155/298/75 154/299/75
f 148/297/75 154/299/75 146/300/75
f 150/301/76 157/302/76 156/303/76
f 150/301/76 156/303/76 152/304/76
f 146/305/77 154/306/77 157/307/77
f 146/305/77 157/307/77 150/308/77
f 152/309/78 156/310/78 155/311/78
f 152/309/78 155/311/78 148/312/78
f 147/313/79 154/314/79 155/315/79
f 147/313/79 155/315/79 149/316/79
f 149/317/80 155/318/80 156/319/80
f 149/317/80 156/319/80 153/320/80
f 153/321/81 156/322/81 157/323/81
f 153/321/81 157/323/81 151/324/81
f 151/325/82 157/326/82 154/327/82
f 151/325/82 154/327/82 147/328/82
f 160/329/83 167/330/83 166/331/83
f 160/329/83 166/331/83 158/332/83
f 162/333/84 169/334/84 168/335/84
f 162/333/84 168/335/84 164/336/84
f 158/337/85 166/338/85 169/339/85
f 158/337/85 169/339/85 162/340/85
f 164/341/86 168/342/86 167/343/86
f 164/341/86 167/343/86 160/344/86
f 159/345/87 166/346/87 167/347/87
f 159/345/87 167/347/87 161/348/87
f 161/349/88 167/350/88 168/351/88
f 161/349/88 168/351/88 165/352/88
f 165/353/89 168/354/89 169/355/89
f 165/353/89 169/355/89 163/356/89
f 163/357/90 169/358/90 166/359/90
f 163/357/90 166/359/90 159/360/90
f 171/361/91 170/362/91 172/363/91
f 171/361/91 172/363/91 173/364/91
f 176/365/92 174/366/92 175/367/92
f 176/365/92 175/367/92 177/368/92
f 174/369/93 170/370/93 171/371/93
f 174/369/93 171/371/93 175/372/93
f 172/373/94 170/374/94 174/375/94
f 172/373/94 174/375/94 176/376/94
f 179/377/95 178/378/95 180/379/95
f 179/377/95 180/379/95 181/380/95
f 184/381/96 182/382/96 183/383/96
f 184/381/96 183/383/96 185/384/96
f 182/385/97 178/386/97 179/387/97
f 182/385/97 179/387/97 183/388/97
f 180/389/98 178/390/98 182/391/98
f 180/389/98 182/391/98 184/392/98
f 187/393/99 186/394/99 188/395/99
f 187/393/99 188/395/99 189/396/99
f 192/397/100 190/398/100 191/399/100
f 192/397/100 191/399/100 193/400/100
f 190/401/101 186/402/101 187/403/101
f 190/401/101 187/403/101 191/404/101
f 188/405/102 186/406/102 190/407/102
f 188/405/102 190/407/102 192/408/102
f 195/409/103 194/410/103 196/411/103
f 195/409/103 196/411/103 197/412/103
f 200/413/104 198/414/104 199/415/104
f 200/413/104 199/415/104 201/416/104
f 198/417/105 194/418/105 195/419/105
f 198/417/105 195/419/105 199/420/105
f 196/421/106 194/422/106 198/423/106
f 196/421/106 198/423/106 200/424/106
f 204/425/107 211/426/107 210/427/107
f 204/425/107 210/427/107 202/428/107
f 206/429/108 213/430/108 212/431/108
f 206/429/108 212/431/108 208/432/108
f 202/433/109 210/434/109 213/435/109
f 202/433/109 213/435/109 206/436/109
f 208/437/110 212/438/110 211/439/110
f 208/437/110 211/439/110 204/440/110
f 203/441/111 210/442/111 211/443/111
f 203/441/111 211/443/111 205/444/111
f 205/445/112 211/446/112 212/447/112
f 205/445/112 212/447/112 209/448/112
f 209/449/113 212/450/113 213/451/113
f 209/449/113 213/451/113 207/452/113
f 207/453/114 213/454/114 210/455/114
f 207/453/114 210/455/114 203/456/114
f 216/457/115 223/458/115 222/459/115
f 216/457/115 222/459/115 214/460/115
f 218/461/116 225/462/116 224/463/116
f 218/461/116 224/463/116 220/464/116
f 214/465/117 222/466/117 225/467/117
f 214/465/117 225/467/117 218/468/117
f 220/469/118 224/470/118 223/471/118
f 220/469/118 223/471/118 216/472/118
f 215/473/119 222/474/119 223/475/119
f 215/473/119 223/475/119 217/476/119
f 217/477/120 223/478/120 224/479/120
f 217/477/120 224/479/120 221/480/120
f 221/481/121 224/482/121 225/483/121
f 221/481/121 225/483/121 219/484/121
f 219/485/122 225/486/122 222/487/122
f 219/485/122 222/487/122 215/488/122
f 227/489/123 226/490/123 228/491/123
f 227/489/123 228/491/123 229/492/123
f 232/493/124 230/494/124 231/495/124
f 232/493/124 231/495/124 233/496/124
f 230/497/125 226/498/125 227/499/125
f 230/497/125 227/499/125 231/500/125
f 228/501/126 226/502/126 230/503/126
f 228/501/126 230/503/126 232/504/126
f 235/505/127 234/506/127 236/507/127
f 235/505/127 236/507/127 237/508/127
f 240/509/128 238/510/128 239/511/128
f 240/509/128 239/511/128 241/512/128
f 238/513/129 234/514/129 235/515/129
f 238/513/129 235/515/129 239/516/129
f 236/517/130 234/518/130 238/519/130
f 236/517/130 238/519/130 240/520/130
usemtl tesla_coil
f 245/521/131 243/522/131 242/523/131
f 245/521/131 242/523/131 244/524/131
f 248/525/132 246/526/132 247/527/132
f 248/525/132 247/527/132 249/528/132
f 244/529/133 242/530/133 246/531/133
f 244/529/133 246/531/133 248/532/133
f 249/533/134 247/534/134 243/535/134
f 249/533/134 243/535/134 245/536/134
f 251/537/135 250/538/135 252/539/135
f 251/537/135 252/539/135 253/540/135
f 256/541/136 254/542/136 255/543/136
f 256/541/136 255/543/136 257/544/136
f 254/545/137 250/546/137 251/547/137
f 254/545/137 251/547/137 255/548/137
f 252/549/138 250/550/138 254/551/138
f 252/549/138 254/551/138 256/552/138
f 255/553/139 251/554/139 253/555/139
f 255/553/139 253/555/139 257/556/139
f 259/557/140 258/558/140 260/559/140
f 259/557/140 260/559/140 261/560/140
f 264/561/141 262/562/141 263/563/141
f 264/561/141 263/563/141 265/564/141
f 260/565/142 258/566/142 262/567/142
f 260/565/142 262/567/142 264/568/142
f 263/569/143 259/570/143 261/571/143
f 263/569/143 261/571/143 265/572/143
f 262/573/144 258/574/144 259/575/144
f 262/573/144 259/575/144 263/576/144
f 269/577/145 267/578/145 266/579/145
f 269/577/145 266/579/145 268/580/145
f 272/581/146 270/582/146 271/583/146
f 272/581/146 271/583/146 273/584/146
f 268/585/147 266/586/147 270/587/147
f 268/585/147 270/587/147 272/588/147
f 273/589/148 271/590/148 267/591/148
f 273/589/148 267/591/148 269/592/148
f 274/593/149 275/594/149 279/595/149
f 274/593/149 279/595/149 278/596/149
f 277/597/150 276/598/150 280/599/150
f 277/597/150 280/599/150 281/600/150
f 276/601/151 274/602/151 278/603/151
f 276/601/151 278/603/151 280/604/151
f 281/605/152 279/606/152 275/607/152
f 281/605/152 275/607/152 277/608/152
f 285/609/153 283/610/153 282/611/153
f 285/609/153 282/611/153 284/612/153
f 288/613/154 286/614/154 287/615/154
f 288/613/154 287/615/154 289/616/154
f 282/617/155 283/618/155 287/619/155
f 282/617/155 287/619/155 286/620/155
f 285/621/156 284/622/156 288/623/156
f 285/621/156 288/623/156 289/624/156
f 293/625/157 291/626/157 290/627/157
f 293/625/157 290/627/157 292/628/157
f 296/629/158 294/630/158 295/631/158
f 296/629/158 295/631/158 297/632/158
f 290/633/159 291/634/159 295/635/159
f 290/633/159 295/635/159 294/636/159
f 293/637/160 292/638/160 296/639/160
f 293/637/160 296/639/160 297/640/160
f 301/641/161 299/642/161 298/643/161
f 301/641/161 298/643/161 300/644/161
f 304/645/162 302/646/162 303/647/162
f 304/645/162 303/647/162 305/648/162
f 298/649/163 299/650/163 303/651/163
f 298/649/163 303/651/163 302/652/163
f 301/653/164 300/654/164 304/655/164
f 301/653/164 304/655/164 305/656/164
f 309/657/165 307/658/165 306/659/165
f 309/657/165 306/659/165 308/660/165
f 312/661/166 310/662/166 311/663/166
f 312/661/166 311/663/166 313/664/166
f 306/665/167 307/666/167 311/667/167
f 306/665/167 311/667/167 310/668/167
f 309/669/168 308/670/168 312/671/168
f 309/669/168 312/671/168 313/672/168
f 308/673/169 306/674/169 310/675/169
f 308/673/169 310/675/169 312/676/169
f 313/677/170 311/678/170 307/679/170
f 313/677/170 307/679/170 309/680/170
f 316/681/171 314/682/171 25/683/171
f 316/681/171 25/683/171 315/684/171
f 319/685/172 317/686/172 318/687/172
f 319/685/172 318/687/172 320/688/172
f 25/689/173 314/690/173 318/691/173
f 25/689/173 318/691/173 317/692/173
f 316/693/174 315/694/174 319/695/174
f 316/693/174 319/695/174 320/696/174
f 315/697/175 25/698/175 317/699/175
f 315/697/175 317/699/175 319/700/175
f 320/701/176 318/702/176 314/703/176
f 320/701/176 314/703/176 316/704/176
f 324/705/177 322/706/177 321/707/177
f 324/705/177 321/707/177 323/708/177
f 327/709/178 325/710/178 326/711/178
f 327/709/178 326/711/178 328/712/178
f 321/713/179 322/714/179 326/715/179
f 321/713/179 326/715/179 325/716/179
f 324/717/180 323/718/180 327/719/180
f 324/717/180 327/719/180 328/720/180
f 329/721/181 330/722/181 334/723/181
f 329/721/181 334/723/181 333/724/181
f 332/725/182 331/726/182 335/727/182
f 332/725/182 335/727/182 336/728/182
f 331/729/183 329/730/183 333/731/183
f 331/729/183 333/731/183 335/732/183
f 336/733/184 334/734/184 330/735/184
f 336/733/184 330/735/184 332/736/184
f 340/737/185 338/738/185 337/739/185
f 340/737/185 337/739/185 339/740/185
f 343/741/186 341/742/186 342/743/186
f 343/741/186 342/743/186 344/744/186
f 337/745/187 338/746/187 342/747/187
f 337/745/187 342/747/187 341/748/187
f 340/749/188 339/750/188 343/751/188
f 340/749/188 343/751/188 344/752/188
f 348/753/189 346/754/189 345/755/189
f 348/753/189 345/755/189 347/756/189
f 351/757/190 349/758/190 350/759/190
f 351/757/190 350/759/190 352/760/190
f 345/761/191 346/762/191 350/763/191
f 345/761/191 350/763/191 349/764/191
f 348/765/192 347/766/192 351/767/192
f 348/765/192 351/767/192 352/768/192
f 347/769/193 345/770/193 349/771/193
f 347/769/193 349/771/193 351/772/193
f 352/773/194 350/774/194 346/775/194
f 352/773/194 346/775/194 348/776/194
f 356/777/195 354/778/195 353/779/195
f 356/777/195 353/779/195 355/780/195
f 359/781/196 357/782/196 358/783/196
f 359/781/196 358/783/196 360/784/196
f 353/785/197 354/786/197 358/787/197
f 353/785/197 358/787/197 357/788/197
f 356/789/198 355/790/198 359/791/198
f 356/789/198 359/791/198 360/792/198
f 364/793/199 362/794/199 361/795/199
f 364/793/199 361/795/199 363/796/199
f 367/797/200 365/798/200 366/799/200
f 367/797/200 366/799/200 368/800/200
f 361/801/201 362/802/201 366/803/201
f 361/801/201 366/803/201 365/804/201
f 364/805/202 363/806/202 367/807/202
f 364/805/202 367/807/202 368/808/202
f 363/809/203 361/810/203 365/811/203
f 363/809/203 365/811/203 367/812/203
f 368/813/204 366/814/204 362/815/204
f 368/813/204 362/815/204 364/816/204
f 369/817/205 370/818/205 374/819/205
f 369/817/205 374/819/205 373/820/205
f 372/821/206 371/822/206 375/823/206
f 372/821/206 375/823/206 376/824/206
f 371/825/207 369/826/207 373/827/207
f 371/825/207 373/827/207 375/828/207
f 376/829/208 374/830/208 370/831/208
f 376/829/208 370/831/208 372/832/208
f 380/833/209 378/834/209 377/835/209
f 380/833/209 377/835/209 379/836/209
f 382/837/210 113/838/210 381/839/210
f 382/837/210 381/839/210 383/840/210
f 377/841/211 378/842/211 381/843/211
f 377/841/211 381/843/211 113/844/211
f 380/845/212 379/846/212 382/847/212
f 380/845/212 382/847/212 383/848/212
f 387/849/213 385/850/213 384/851/213
f 387/849/213 384/851/213 386/852/213
f 390/853/214 388/854/214 389/855/214
f 390/853/214 389/855/214 391/856/214
f 384/857/215 385/858/215 389/859/215
f 384/857/215 389/859/215 388/860/215
f 387/861/216 386/862/216 390/863/216
f 387/861/216 390/863/216 391/864/216
f 395/865/217 393/866/217 392/867/217
f 395/865/217 392/867/217 394/868/217
f 398/869/218 396/870/218 397/871/218
f 398/869/218 397/871/218 399/872/218
f 392/873/219 393/874/219 397/875/219
f 392/873/219 397/875/219 396/876/219
f 395/877/220 394/878/220 398/879/220
f 395/877/220 398/879/220 399/880/220
f 403/881/221 401/882/221 400/883/221
f 403/881/221 400/883/221 402/884/221
f 406/885/222 404/886/222 405/887/222
f 406/885/222 405/887/222 407/888/222
f 400/889/223 401/890/223 405/891/223
f 400/889/223 405/891/223 404/892/223
f 403/893/224 402/894/224 406/895/224
f 403/893/224 406/895/224 407/896/224
f 402/897/225 400/898/225 404/899/225
f 402/897/225 404/899/225 406/900/225
f 407/901/226 405/902/226 401/903/226
f 407/901/226 401/903/226 403/904/226
f 411/905/227 409/906/227 408/907/227
f 411/905/227 408/907/227 410/908/227
f 414/909/228 412/910/228 413/911/228
f 414/909/228 413/911/228 415/912/228
f 408/913/229 409/914/229 413/915/229
f 408/913/229 413/915/229 412/916/229
f 411/917/230 410/918/230 414/919/230
f 411/917/230 414/919/230 415/920/230
f 410/921/231 408/922/231 412/923/231
f 410/921/231 412/923/231 414/924/231
f 415/925/232 413/926/232 409/927/232
f 415/925/232 409/927/232 411/928/232
f 419/929/233 417/930/233 416/931/233
f 419/929/233 416/931/233 418/932/233
f 422/933/234 420/934/234 421/935/234
f 422/933/234 421/935/234 423/936/234
f 416/937/235 417/938/235 421/939/235
f 416/937/235 421/939/235 420/940/235
f 419/941/236 418/942/236 422/943/236
f 419/941/236 422/943/236 423/944/236
f 427/945/237 425/946/237 424/947/237
f 427/945/237 424/947/237 426/948/237
f 430/949/238 428/950/238 429/951/238
f 430/949/238 429/951/238 431/952/238
f 424/953/239 425/954/239 429/955/239
f 424/953/239 429/955/239 428/956/239
f 427/957/240 426/958/240 430/959/240
f 427/957/240 430/959/240 431/960/240
f 435/961/241 433/962/241 432/963/241
f 435/961/241 432/963/241 434/964/241
f 438/965/242 436/966/242 437/967/242
f 438/965/242 437/967/242 439/968/242
f 436/969/243 441/970/243 440/971/243
f 436/969/243 440/971/243 437/972/243
f 439/973/244 443/974/244 442/975/244
f 439/973/244 442/975/244 438/976/244
f 438/977/245 442/978/245 441/979/245
f 438/977/245 441/979/245 436/980/245
f 437/981/246 440/982/246 443/983/246
f 437/981/246 443/983/246 439/984/246
f 433/985/247 440/986/247 441/987/247
f 433/985/247 441/987/247 432/988/247
f 432/989/248 441/990/248 442/991/248
f 432/989/248 442/991/248 434/992/248
f 434/993/249 442/994/249 443/995/249
f 434/993/249 443/995/249 435/996/249
f 435/997/250 443/998/250 440/999/250
f 435/997/250 440/999/250 433/1000/250
f 447/1001/251 445/1002/251 444/1003/251
f 447/1001/251 444/1003/251 446/1004/251
f 450/1005/252 448/1006/252 449/1007/252
f 450/1005/252 449/1007/252 451/1008/252
f 448/1009/253 453/1010/253 452/1011/253
f 448/1009/253 452/1011/253 449/1012/253
f 451/1013/254 455/1014/254 454/1015/254
f 451/1013/254 454/1015/254 450/1016/254
f 450/1017/255 454/1018/255 453/1019/255
f 450/1017/255 453/1019/255 448/1020/255
f 449/1021/256 452/1022/256 455/1023/256
f 449/1021/256 455/1023/256 451/1024/256
f 445/1025/257 452/1026/257 453/1027/257
f 445/1025/257 453/1027/257 444/1028/257
f 444/1029/258 453/1030/258 454/1031/258
f 444/1029/258 454/1031/258 446/1032/258
f 446/1033/259 454/1034/259 455/1035/259
f 446/1033/259 455/1035/259 447/1036/259
f 447/1037/260 455/1038/260 452/1039/260
f 447/1037/260 452/1039/260 445/1040/260
f 459/1041/261 457/1042/261 456/1043/261
f 459/1041/261 456/1043/261 458/1044/261
f 462/1045/262 460/1046/262 461/1047/262
f 462/1045/262 461/1047/262 463/1048/262
f 456/1049/263 457/1050/263 461/1051/263
f 456/1049/263 461/1051/263 460/1052/263
f 459/1053/264 458/1054/264 462/1055/264
f 459/1053/264 462/1055/264 463/1056/264
f 465/1057/265 464/1058/265 466/1059/265
f 465/1057/265 466/1059/265 467/1060/265
f 468/1061/266 464/1062/266 465/1063/266
f 468/1061/266 465/1063/266 469/1064/266
f 466/1065/267 464/1066/267 468/1067/267
f 466/1065/267 468/1067/267 470/1068/267
f 469/1069/268 465/1070/268 467/1071/268
f 469/1069/268 467/1071/268 471/1072/268
f 475/1073/269 473/1074/269 472/1075/269
f 475/1073/269 472/1075/269 474/1076/269
f 478/1077/270 476/1078/270 477/1079/270
f 478/1077/270 477/1079/270 479/1080/270
f 472/1081/271 473/1082/271 477/1083/271
f 472/1081/271 477/1083/271 476/1084/271
f 474/1085/272 472/1086/272 476/1087/272
f 474/1085/272 476/1087/272 478/1088/272
f 483/1089/273 481/1090/273 480/1091/273
f 483/1089/273 480/1091/273 482/1092/273
f 486/1093/274 484/1094/274 485/1095/274
f 486/1093/274 485/1095/274 487/1096/274
f 482/1097/275 480/1098/275 484/1099/275
f 482/1097/275 484/1099/275 486/1100/275
f 480/1101/276 481/1102/276 485/1103/276
f 480/1101/276 485/1103/276 484/1104/276
f 491/1105/277 489/1106/277 488/1107/277
f 491/1105/277 488/1107/277 490/1108/277
f 494/1109/278 492/1110/278 493/1111/278
f 494/1109/278 493/1111/278 495/1112/278
f 488/1113/279 489/1114/279 493/1115/279
f 488/1113/279 493/1115/279 492/1116/279
f 490/1117/280 488/1118/280 492/1119/280
f 490/1117/280 492/1119/280 494/1120/280
f 497/1121/281 496/1122/281 498/1123/281
f 497/1121/281 498/1123/281 499/1124/281
f 502/1125/282 500/1126/282 501/1127/282
f 502/1125/282 501/1127/282 503/1128/282
f 500/1129/283 496/1130/283 497/1131/283
f 500/1129/283 497/1131/283 501/1132/283
f 498/1133/284 496/1134/284 500/1135/284
f 498/1133/284 500/1135/284 502/1136/284
f 501/1137/285 497/1138/285 499/1139/285
f 501/1137/285 499/1139/285 503/1140/285
f 507/1141/286 505/1142/286 504/1143/286
f 507/1141/286 504/1143/286 506/1144/286
f 510/1145/287 508/1146/287 509/1147/287
f 510/1145/287 509/1147/287 511/1148/287
f 506/1149/288 504/1150/288 508/1151/288
f 506/1149/288 508/1151/288 510/1152/288
f 511/1153/289 509/1154/289 505/1155/289
f 511/1153/289 505/1155/289 507/1156/289