# Made by Pabilo8 with Blockbench
# Exported with IIToolkit Plugin
mtllib advanced_fluid_inserter.mtl


o tank_inside
v 1.319616951585513 0.7880533796515973 0.12500000000000022
v 1.114828940513265 0.6446592705638358 0.12500000000000022
v 1.0328287334099897 1.1976294017960931 0.1250000000000001
v 0.8280407223377418 1.0542352927083316 0.1250000000000001
v 1.319616951585513 0.7880533796515973 0.3750000000000002
v 1.0328287334099897 1.1976294017960931 0.37500000000000017
v 1.1148289405132648 0.6446592705638358 0.37500000000000017
v 0.8280407223377417 1.0542352927083316 0.3750000000000001
vt 0 0.4375
vt 0 0.125
vt 0.5 0.125
vt 0.5 0.4375
vt 0 0.4375
vt 0 0.125
vt 0.5 0.125
vt 0.5 0.4375
vt 0.5 0.3125
vt 0.8125 0.3125
vt 0.8125 0
vt 0.5 0
vt 0.8125 0.3125
vt 0.5 0.3125
vt 0.5 0
vt 0.8125 0
vt 0 0.125
vt 0 0.4375
vt 0.5 0.4375
vt 0.5 0.125
vt 0 0.125
vt 0 0.4375
vt 0.5 0.4375
vt 0.5 0.125
vn -2.220446049250313e-16 0 1
vn 2.220446049250313e-16 0 -1
vn -0.5735764363510463 0.8191520442889917 -1.2735955320387544e-16
vn 0.5735764363510463 -0.8191520442889917 1.2735955320387544e-16
vn 0.8191520442889917 0.5735764363510463 1.818882920476809e-16
vn -0.8191520442889917 -0.5735764363510463 -1.818882920476809e-16
usemtl data_connector
f 2/1/1 1/2/1 3/3/1
f 2/1/1 3/3/1 4/4/1
f 5/5/2 7/6/2 8/7/2
f 5/5/2 8/7/2 6/8/2
usemtl tool_dark_blue
f 5/9/3 1/10/3 2/11/3
f 5/9/3 2/11/3 7/12/3
f 8/13/4 4/14/4 3/15/4
f 8/13/4 3/15/4 6/16/4
usemtl data_connector
f 7/17/5 2/18/5 4/19/5
f 7/17/5 4/19/5 8/20/5
f 1/21/6 5/22/6 6/23/6
f 1/21/6 6/23/6 3/24/6
o camera
v 1.1633970284699935 1.1746066885519109 0.28437500000000016
v 1.5217760478464273 1.4255463794554935 0.28437500000000027
v 1.127548501198053 1.2258036913199728 0.28437500000000016
v 1.4859275205744868 1.4767433822235554 0.28437500000000027
v 1.1633970284699933 1.1746066885519109 0.7218750000000003
v 1.5217760478464273 1.4255463794554935 0.7218750000000003
v 1.1275485011980528 1.2258036913199728 0.7218750000000003
v 1.4859275205744868 1.4767433822235554 0.7218750000000003
v 1.260692584397905 1.090136946651757 0.31562500000000016
v 1.567874601006277 1.3052281102833994 0.31562500000000027
v 1.2760410598940268 1.1771824766917593 0.3781250000000002
v 1.4808290709662746 1.3205765857795209 0.37812500000000027
v 1.260692584397905 1.090136946651757 0.6906250000000003
v 1.567874601006277 1.3052281102833994 0.6906250000000003
v 1.2760410598940268 1.1771824766917593 0.6281250000000003
v 1.4808290709662746 1.3205765857795209 0.6281250000000003
v 1.1889955298540245 1.192530952187881 0.31562500000000016
v 1.4961775464623963 1.4076221158195232 0.31562500000000027
v 1.1889955298540242 1.192530952187881 0.6906250000000003
v 1.496177546462396 1.4076221158195232 0.6906250000000003
v 1.3477381144379075 1.0747884711556355 0.3781250000000002
v 1.5525261255101555 1.218182580243397 0.37812500000000027
v 1.3477381144379075 1.0747884711556355 0.6281250000000003
v 1.5525261255101555 1.218182580243397 0.6281250000000003
v 1.357988140325817 1.0056672047516033 0.3468750000000002
v 1.6139731541661269 1.1849098411113053 0.34687500000000027
v 1.3733366158219384 1.0927127347916057 0.4093750000000002
v 1.5269276241261245 1.2002583166074268 0.40937500000000027
v 1.357988140325817 1.0056672047516033 0.6593750000000003
v 1.6139731541661266 1.1849098411113053 0.6593750000000003
v 1.3733366158219384 1.0927127347916057 0.5968750000000003
v 1.5269276241261245 1.2002583166074268 0.5968750000000003
v 1.4450336703658193 0.9903187292554816 0.4093750000000002
v 1.5986246786700051 1.097864311071303 0.40937500000000027
v 1.4450336703658193 0.9903187292554816 0.5968750000000003
v 1.5986246786700051 1.097864311071303 0.5968750000000003
v 1.5525792521816404 0.8367277209512958 0.40937500000000027
v 1.7061702604858264 0.9442733027671169 0.40937500000000027
v 1.5167307249097002 0.8879247237193577 0.40937500000000027
v 1.670321733213886 0.9954703055351789 0.40937500000000027
v 1.5525792521816404 0.8367277209512958 0.5968750000000003
v 1.7061702604858264 0.9442733027671169 0.5968750000000004
v 1.5167307249097002 0.8879247237193577 0.5968750000000003
v 1.670321733213886 0.9954703055351789 0.5968750000000004
v 1.4808821976377597 0.9391217264874197 0.40937500000000027
v 1.6344732059419456 1.046667308303241 0.40937500000000027
v 1.4706321717498503 1.0082429928914518 0.44062500000000027
v 1.5730261772859742 1.0799400474353327 0.44062500000000027
v 1.4808821976377597 0.9391217264874197 0.5968750000000003
v 1.6344732059419456 1.046667308303241 0.5968750000000004
v 1.4706321717498503 1.0082429928914518 0.5656250000000003
v 1.5730261772859742 1.0799400474353327 0.5656250000000003
v 1.542329226293731 0.9058489873553279 0.44062500000000027
v 1.644723231829855 0.9775460418992087 0.44062500000000027
v 1.542329226293731 0.9058489873553279 0.5656250000000003
v 1.644723231829855 0.9775460418992087 0.5656250000000003
v 1.5013822494135785 0.8008791936793553 0.5968750000000003
v 1.6549732577177645 0.9084247754951765 0.5968750000000003
v 1.465533722141638 0.8520761964474173 0.5968750000000003
v 1.619124730445824 0.9596217782632385 0.5968750000000003
v 1.5013822494135785 0.8008791936793553 0.6593750000000003
v 1.6549732577177645 0.9084247754951765 0.6593750000000003
v 1.465533722141638 0.8520761964474173 0.6593750000000003
v 1.619124730445824 0.9596217782632385 0.6593750000000003
v 1.5013822494135785 0.8008791936793553 0.34687500000000027
v 1.6549732577177645 0.9084247754951765 0.34687500000000027
v 1.4655337221416382 0.8520761964474173 0.34687500000000027
v 1.619124730445824 0.9596217782632385 0.34687500000000027
v 1.5013822494135785 0.8008791936793553 0.40937500000000027
v 1.6549732577177645 0.9084247754951765 0.4093750000000003
v 1.465533722141638 0.8520761964474173 0.40937500000000027
v 1.619124730445824 0.9596217782632385 0.4093750000000003
v 1.4501852466455165 0.7650306664074149 0.40937500000000027
v 1.414336719373576 0.816227669175477 0.4093750000000002
v 1.4501852466455165 0.7650306664074149 0.5968750000000003
v 1.414336719373576 0.816227669175477 0.5968750000000003
vt 0.5625 0.25
vt 0.5 0.25
vt 0.5 0.625
vt 0.5625 0.625
vt 0.875 0.625
vt 0.8125 0.625
vt 0.8125 0.25
vt 0.875 0.25
vt 0.875 0.625
vt 0.875 0.25
vt 0.5 0.25
vt 0.5 0.625
vt 0.875 0.25
vt 0.875 0.625
vt 0.5 0.625
vt 0.5 0.25
vt 0.875 0.5625
vt 0.875 0.625
vt 0.5 0.625
vt 0.5 0.5625
vt 0.875 0.25
vt 0.875 0.3125
vt 0.5 0.3125
vt 0.5 0.25
vt 1 0.625
vt 0.9375 0.625
vt 0.9375 0.3125
vt 1 0.3125
vt 1 0.625
vt 0.9375 0.625
vt 0.9375 0.3125
vt 1 0.3125
vt 1 0.625
vt 0.9375 0.625
vt 0.9375 0.3125
vt 1 0.3125
vt 1 0.625
vt 0.9375 0.625
vt 0.9375 0.3125
vt 1 0.3125
vt 0.9375 0.625
vt 0.875 0.625
vt 0.875 0.3125
vt 0.9375 0.3125
vt 0.9375 0.625
vt 0.875 0.625
vt 0.875 0.3125
vt 0.9375 0.3125
vt 0.9375 0.625
vt 0.875 0.625
vt 0.875 0.3125
vt 0.9375 0.3125
vt 0.9375 0.625
vt 0.875 0.625
vt 0.875 0.3125
vt 0.9375 0.3125
vt 0.9375 0.625
vt 0.875 0.625
vt 0.875 0.3125
vt 0.9375 0.3125
vt 0.9375 0.625
vt 0.875 0.625
vt 0.875 0.3125
vt 0.9375 0.3125
vt 0.9375 0.625
vt 0.875 0.625
vt 0.875 0.3125
vt 0.9375 0.3125
vt 0.9375 0.625
vt 0.875 0.625
vt 0.875 0.3125
vt 0.9375 0.3125
vt 0.90625 0.3125
vt 0.90625 0.375
vt 0.875 0.375
vt 0.875 0.3125
vt 1 0.3125
vt 0.9375 0.3125
vt 0.9375 0.0625
vt 1 0.0625
vt 1 0.3125
vt 0.9375 0.3125
vt 0.9375 0.0625
vt 1 0.0625
vt 1 0.3125
vt 0.9375 0.3125
vt 0.9375 0.0625
vt 1 0.0625
vt 1 0.3125
vt 0.9375 0.3125
vt 0.9375 0.0625
vt 1 0.0625
vt 0.9375 0.3125
vt 0.875 0.3125
vt 0.875 0.0625
vt 0.9375 0.0625
vt 0.9375 0.3125
vt 0.875 0.3125
vt 0.875 0.0625
vt 0.9375 0.0625
vt 0.90625 0.3125
vt 0.90625 0.375
vt 0.875 0.375
vt 0.875 0.3125
vt 0.9375 0.3125
vt 0.875 0.3125
vt 0.875 0.0625
vt 0.9375 0.0625
vt 0.9375 0.3125
vt 0.875 0.3125
vt 0.875 0.0625
vt 0.9375 0.0625
vt 0.6875 0.25
vt 0.625 0.25
vt 0.625 0.0625
vt 0.6875 0.0625
vt 0.5625 0.25
vt 0.5 0.25
vt 0.5 0.0625
vt 0.5625 0.0625
vt 0.6875 0.0625
vt 0.6875 0.25
vt 0.5 0.25
vt 0.5 0.0625
vt 0.6875 0.0625
vt 0.6875 0.25
vt 0.5 0.25
vt 0.5 0.0625
vt 0.6875 0.1875
vt 0.6875 0.25
vt 0.5 0.25
vt 0.5 0.1875
vt 0.6875 0.0625
vt 0.6875 0.125
vt 0.5 0.125
vt 0.5 0.0625
vt 0.875 0.25
vt 0.8125 0.25
vt 0.8125 0.0625
vt 0.875 0.0625
vt 0.875 0.25
vt 0.8125 0.25
vt 0.8125 0.0625
vt 0.875 0.0625
vt 0.875 0.0625
vt 0.8125 0.0625
vt 0.8125 0.25
vt 0.875 0.25
vt 0.875 0.0625
vt 0.8125 0.0625
vt 0.8125 0.25
vt 0.875 0.25
vt 0.8125 0.25
vt 0.75 0.25
vt 0.75 0.0625
vt 0.8125 0.0625
vt 0.8125 0.25
vt 0.75 0.25
vt 0.75 0.0625
vt 0.8125 0.0625
vt 0.8125 0.0625
vt 0.75 0.0625
vt 0.75 0.25
vt 0.8125 0.25
vt 0.8125 0.0625
vt 0.75 0.0625
vt 0.75 0.25
vt 0.8125 0.25
vt 0.4375 0.3125
vt 0.4375 0.5
vt 0.375 0.5
vt 0.375 0.3125
vt 0.4375 0.3125
vt 0.4375 0.5
vt 0.375 0.5
vt 0.375 0.3125
vt 0.4375 0.3125
vt 0.4375 0.5
vt 0.375 0.5
vt 0.375 0.3125
vt 0.4375 0.3125
vt 0.4375 0.5
vt 0.375 0.5
vt 0.375 0.3125
vt 0.4375 0.4375
vt 0.4375 0.5
vt 0.375 0.5
vt 0.375 0.4375
vt 0.5 0.3125
vt 0.5 0.5
vt 0.4375 0.5
vt 0.4375 0.3125
vt 0.5 0.3125
vt 0.5 0.5
vt 0.4375 0.5
vt 0.4375 0.3125
vt 0.5 0.3125
vt 0.5 0.5
vt 0.4375 0.5
vt 0.4375 0.3125
vt 0.5 0.3125
vt 0.5 0.5
vt 0.4375 0.5
vt 0.4375 0.3125
vt 0.5 0.4375
vt 0.5 0.5
vt 0.4375 0.5
vt 0.4375 0.4375
vt 0.4375 0.0625
vt 0.4375 0.125
vt 0.375 0.125
vt 0.375 0.0625
vt 0.4375 0.3125
vt 0.4375 0.375
vt 0.375 0.375
vt 0.375 0.3125
vt 0.375 0.3125
vt 0.4375 0.375
vt 0.4375 0.0625
vt 0.375 0.125
vt 0.375 0.3125
vt 0.4375 0.375
vt 0.4375 0.0625
vt 0.375 0.125
vt 0.4375 0.375
vt 0.375 0.375
vt 0.375 0.0625
vt 0.4375 0.0625
vn 2.220446049250313e-16 0 -1
vn -2.220446049250313e-16 0 1
vn 0.5735764363510463 -0.8191520442889917 1.2735955320387544e-16
vn -0.5735764363510463 0.8191520442889917 -1.2735955320387544e-16
vn -0.8191520442889917 -0.5735764363510463 -1.818882920476809e-16
vn 0.8191520442889917 0.5735764363510463 1.818882920476809e-16
vn -0.40557978767263886 0.5792279653395692 -0.7071067811865477
vn -0.4055797876726392 0.5792279653395692 0.7071067811865475
vn -0.9848077530122082 0.1736481776669302 -2.186712484447036e-16
vn 0.1736481776669302 0.9848077530122082 3.855764100600516e-17
vn 0.40557978767263925 -0.5792279653395692 -0.7071067811865475
vn 0.4055797876726388 -0.5792279653395691 0.7071067811865476
vn -0.1736481776669302 -0.9848077530122082 -3.855764100600516e-17
vn 0.9848077530122082 -0.1736481776669302 2.186712484447036e-16
vn 0.40557978767263925 -0.5792279653395692 -0.7071067811865475
vn 0.4055797876726388 -0.5792279653395691 0.7071067811865476
vn -0.1736481776669302 -0.9848077530122082 -3.855764100600516e-17
vn 0.9848077530122082 -0.1736481776669302 2.186712484447036e-16
vn 0.5735764363510463 -0.8191520442889917 1.2735955320387544e-16
vn -0.4055797876726388 0.5792279653395691 -0.7071067811865476
vn -0.40557978767263925 0.5792279653395692 0.7071067811865475
vn -0.9848077530122082 0.1736481776669302 -2.186712484447036e-16
vn 0.1736481776669302 0.9848077530122082 3.855764100600516e-17
vn 0.4055797876726392 -0.5792279653395692 -0.7071067811865475
vn 0.40557978767263886 -0.5792279653395692 0.7071067811865477
vn 0.5735764363510463 -0.8191520442889917 1.2735955320387544e-16
vn -0.17364817766693014 -0.9848077530122081 -3.855764100600515e-17
vn 0.9848077530122081 -0.17364817766693014 2.1867124844470357e-16
vn 2.220446049250313e-16 0 -1
vn -2.220446049250313e-16 0 1
vn 0.5735764363510463 -0.8191520442889917 1.2735955320387544e-16
vn -0.5735764363510463 0.8191520442889917 -1.2735955320387544e-16
vn -0.8191520442889917 -0.5735764363510463 -1.818882920476809e-16
vn 0.8191520442889917 0.5735764363510463 1.818882920476809e-16
vn -0.25651118039460397 0.36633593098762074 -0.894427190999916
vn -0.25651118039460447 0.3663359309876208 0.894427190999916
vn -0.9891830423698457 -0.14668642980158764 -2.1964275784155289e-16
vn 0.4761606815806373 0.8793582917768291 1.0572891042240624e-16
vn 0.25651118039460447 -0.3663359309876208 -0.894427190999916
vn 0.25651118039460397 -0.36633593098762074 0.894427190999916
vn -0.4761606815806373 -0.8793582917768291 -1.0572891042240624e-16
vn 0.9891830423698457 0.14668642980158764 2.1964275784155289e-16
vn 2.220446049250313e-16 0 -1
vn -2.220446049250313e-16 0 1
vn 0.5735764363510463 -0.8191520442889917 1.2735955320387544e-16
vn -0.5735764363510463 0.8191520442889917 -1.2735955320387544e-16
vn 0.8191520442889917 0.5735764363510463 1.818882920476809e-16
vn 2.220446049250313e-16 0 -1
vn -2.220446049250313e-16 0 1
vn 0.5735764363510463 -0.8191520442889917 1.2735955320387544e-16
vn -0.5735764363510463 0.8191520442889917 -1.2735955320387544e-16
vn 0.8191520442889917 0.5735764363510463 1.818882920476809e-16
vn -0.579227965339569 -0.40557978767263897 -0.7071067811865476
vn -0.5792279653395693 -0.4055797876726391 0.7071067811865475
vn 0.5735764363510463 -0.8191520442889917 1.2735955320387544e-16
vn -0.5735764363510463 0.8191520442889917 -1.2735955320387544e-16
vn 0.8191520442889917 0.5735764363510463 1.818882920476809e-16
usemtl inserter_fluid_advanced
f 12/25/7 10/26/7 9/27/7
f 12/25/7 9/27/7 11/28/7
f 15/29/8 13/30/8 14/31/8
f 15/29/8 14/31/8 16/32/8
f 9/33/9 10/34/9 14/35/9
f 9/33/9 14/35/9 13/36/9
f 12/37/10 11/38/10 15/39/10
f 12/37/10 15/39/10 16/40/10
f 11/41/11 9/42/11 13/43/11
f 11/41/11 13/43/11 15/44/11
f 16/45/12 14/46/12 10/47/12
f 16/45/12 10/47/12 12/48/12
f 20/49/13 18/50/13 17/51/13
f 20/49/13 17/51/13 19/52/13
f 23/53/14 21/54/14 22/55/14
f 23/53/14 22/55/14 24/56/14
f 19/57/15 17/58/15 21/59/15
f 19/57/15 21/59/15 23/60/15
f 24/61/16 22/62/16 18/63/16
f 24/61/16 18/63/16 20/64/16
f 26/65/17 20/66/17 19/67/17
f 26/65/17 19/67/17 25/68/17
f 27/69/18 23/70/18 24/71/18
f 27/69/18 24/71/18 28/72/18
f 25/73/19 19/74/19 23/75/19
f 25/73/19 23/75/19 27/76/19
f 28/77/20 24/78/20 20/79/20
f 28/77/20 20/79/20 26/80/20
f 18/81/21 30/82/21 29/83/21
f 18/81/21 29/83/21 17/84/21
f 21/85/22 31/86/22 32/87/22
f 21/85/22 32/87/22 22/88/22
f 17/89/23 29/90/23 31/91/23
f 17/89/23 31/91/23 21/92/23
f 22/93/24 32/94/24 30/95/24
f 22/93/24 30/95/24 18/96/24
f 29/97/25 30/98/25 32/99/25
f 29/97/25 32/99/25 31/100/25
f 36/101/26 34/102/26 33/103/26
f 36/101/26 33/103/26 35/104/26
f 39/105/27 37/106/27 38/107/27
f 39/105/27 38/107/27 40/108/27
f 35/109/28 33/110/28 37/111/28
f 35/109/28 37/111/28 39/112/28
f 40/113/29 38/114/29 34/115/29
f 40/113/29 34/115/29 36/116/29
f 34/117/30 42/118/30 41/119/30
f 34/117/30 41/119/30 33/120/30
f 37/121/31 43/122/31 44/123/31
f 37/121/31 44/123/31 38/124/31
f 41/125/32 42/126/32 44/127/32
f 41/125/32 44/127/32 43/128/32
f 33/129/33 41/130/33 43/131/33
f 33/129/33 43/131/33 37/132/33
f 38/133/34 44/134/34 42/135/34
f 38/133/34 42/135/34 34/136/34
f 48/137/35 46/138/35 45/139/35
f 48/137/35 45/139/35 47/140/35
f 51/141/36 49/142/36 50/143/36
f 51/141/36 50/143/36 52/144/36
f 45/145/37 46/146/37 50/147/37
f 45/145/37 50/147/37 49/148/37
f 48/149/38 47/150/38 51/151/38
f 48/149/38 51/151/38 52/152/38
f 47/153/39 45/154/39 49/155/39
f 47/153/39 49/155/39 51/156/39
f 52/157/40 50/158/40 46/159/40
f 52/157/40 46/159/40 48/160/40
f 56/161/41 54/162/41 53/163/41
f 56/161/41 53/163/41 55/164/41
f 59/165/42 57/166/42 58/167/42
f 59/165/42 58/167/42 60/168/42
f 55/169/43 53/170/43 57/171/43
f 55/169/43 57/171/43 59/172/43
f 60/173/44 58/174/44 54/175/44
f 60/173/44 54/175/44 56/176/44
f 54/177/45 62/178/45 61/179/45
f 54/177/45 61/179/45 53/180/45
f 57/181/46 63/182/46 64/183/46
f 57/181/46 64/183/46 58/184/46
f 53/185/47 61/186/47 63/187/47
f 53/185/47 63/187/47 57/188/47
f 58/189/48 64/190/48 62/191/48
f 58/189/48 62/191/48 54/192/48
f 68/193/49 66/194/49 65/195/49
f 68/193/49 65/195/49 67/196/49
f 71/197/50 69/198/50 70/199/50
f 71/197/50 70/199/50 72/200/50
f 65/201/51 66/202/51 70/203/51
f 65/201/51 70/203/51 69/204/51
f 68/205/52 67/206/52 71/207/52
f 68/205/52 71/207/52 72/208/52
f 72/209/53 70/210/53 66/211/53
f 72/209/53 66/211/53 68/212/53
f 76/213/54 74/214/54 73/215/54
f 76/213/54 73/215/54 75/216/54
f 79/217/55 77/218/55 78/219/55
f 79/217/55 78/219/55 80/220/55
f 73/221/56 74/222/56 78/223/56
f 73/221/56 78/223/56 77/224/56
f 76/225/57 75/226/57 79/227/57
f 76/225/57 79/227/57 80/228/57
f 80/229/58 78/230/58 74/231/58
f 80/229/58 74/231/58 76/232/58
f 75/233/59 73/234/59 81/235/59
f 75/233/59 81/235/59 82/236/59
f 84/237/60 83/238/60 69/239/60
f 84/237/60 69/239/60 71/240/60
f 81/241/61 73/242/61 69/243/61
f 81/241/61 69/243/61 83/244/61
f 75/245/62 82/246/62 84/247/62
f 75/245/62 84/247/62 71/248/62
f 71/249/63 69/250/63 73/251/63
f 71/249/63 73/251/63 75/252/63
o upper
v 1.2658972873490872 0.4833940245115891 0.4062500000000002
v 1.4194882956532733 0.5909396063274102 0.4062500000000002
v 1.2658972873490872 0.4833940245115891 0.5937500000000002
v 1.4194882956532733 0.5909396063274102 0.5937500000000002
v 1.1378516537574472 0.7752275656238393 0.5312500000000002
v 1.1378516537574472 0.7752275656238393 0.46875000000000017
v 1.1890486565255092 0.8110760928957796 0.4687500000000002
v 1.1890486565255092 0.8110760928957796 0.5312500000000002
v 0.8664119110780457 1.2718491178083375 0.5312500000000001
v 0.8664119110780457 1.2718491178083375 0.4687500000000001
v 0.8152149083099838 1.236000590536397 0.4687500000000001
v 0.8152149083099838 1.236000590536397 0.5312500000000001
v 0.8075406705619229 1.192477825516396 0.4375000000000001
v 0.9099346760980469 1.2641748800602768 0.4375000000000001
v 0.7358436160180422 1.2948718310525198 0.4375000000000001
v 0.8382376215541661 1.3665688855964007 0.4375000000000001
v 0.8075406705619229 1.192477825516396 0.5625000000000001
v 0.9099346760980469 1.2641748800602768 0.5625000000000001
v 0.7358436160180422 1.2948718310525198 0.5625000000000001
v 0.8382376215541661 1.3665688855964007 0.5625000000000001
v 1.1583517055332662 0.636985032815775 0.4062500000000002
v 1.311942713837452 0.7445306146315961 0.4062500000000002
v 1.1583517055332662 0.636985032815775 0.5937500000000002
v 1.311942713837452 0.7445306146315961 0.5937500000000002
v 1.183950206917297 0.6549092964517451 0.43750000000000017
v 1.286344212453421 0.726606350995626 0.4375000000000002
v 1.1122531523734163 0.7573033019878691 0.43750000000000017
v 1.2146471579095404 0.8290003565317499 0.4375000000000002
v 1.183950206917297 0.6549092964517451 0.5625000000000002
v 1.286344212453421 0.726606350995626 0.5625000000000002
v 1.1122531523734163 0.7573033019878691 0.5625000000000002
v 1.2146471579095404 0.8290003565317499 0.5625000000000002
v 1.1378357157560028 0.8896640234114688 0.5906249999999996
v 1.0354417102198799 0.8179669688675888 0.5906249999999996
v 1.1019871884840624 0.9408610261795308 0.5906249999999996
v 0.9995931829479396 0.8691639716356507 0.5906249999999996
v 1.1378357157560028 0.8896640234114689 0.4031250000000014
v 1.0354417102198799 0.8179669688675888 0.4031250000000014
v 1.1019871884840626 0.9408610261795309 0.40312500000000134
v 0.9995931829479396 0.8691639716356507 0.4031250000000014
v 1.066138661212122 0.9920580289475929 0.5906249999999996
v 0.9637446556759992 0.9203609744037127 0.5906249999999996
v 1.0302901339401818 1.0432550317156548 0.5906249999999996
v 0.9278961284040588 0.9715579771717747 0.5906249999999996
v 1.0661386612121222 0.9920580289475929 0.40312500000000134
v 0.9637446556759992 0.9203609744037127 0.4031250000000014
v 1.0302901339401818 1.0432550317156548 0.40312500000000134
v 0.9278961284040588 0.9715579771717747 0.4031250000000014
v 1.1071547027652042 0.6011365055438346 0.09375000000000017
v 1.3631397166055141 0.7803791419035365 0.09375000000000028
v 0.7845179573177407 1.0619095304563924 0.09375000000000006
v 1.0405029711580505 1.2411521668160943 0.09375000000000017
v 1.107154702765204 0.6011365055438346 0.40625000000000017
v 1.363139716605514 0.7803791419035365 0.4062500000000002
v 0.7845179573177405 1.0619095304563924 0.4062500000000001
v 1.0405029711580505 1.2411521668160943 0.40625000000000017
v 1.2914957887331182 0.5013182881475592 0.3125000000000002
v 1.393889794269242 0.57301534269144 0.3125000000000002
v 1.2197987341892376 0.6037122936836831 0.3125000000000002
v 1.3221927397253614 0.6754093482275639 0.3125000000000002
v 1.2914957887331182 0.5013182881475592 0.4062500000000002
v 1.393889794269242 0.57301534269144 0.4062500000000002
v 1.2197987341892373 0.6037122936836831 0.4062500000000002
v 1.3221927397253614 0.6754093482275639 0.4062500000000002
v 1.2556472614611778 0.5525152909156211 0.18750000000000022
v 1.3580412669973019 0.624212345459502 0.18750000000000022
v 1.2197987341892376 0.6037122936836831 0.18750000000000022
v 1.3221927397253614 0.6754093482275639 0.18750000000000022
v 1.1839502069172971 0.6549092964517451 0.18750000000000022
v 1.286344212453421 0.726606350995626 0.18750000000000022
v 1.1839502069172971 0.6549092964517451 0.3125000000000002
v 1.286344212453421 0.726606350995626 0.3125000000000002
v 1.4707384250928204 0.24533327430724938 0.4375000000000002
v 1.5731324306289443 0.31703032885113014 0.4375000000000003
v 1.3273443160050586 0.45012128537949714 0.4375000000000002
v 1.4297383215411825 0.521818339923378 0.4375000000000002
v 1.4707384250928204 0.24533327430724938 0.5625000000000002
v 1.5731324306289443 0.31703032885113014 0.5625000000000002
v 1.3273443160050586 0.45012128537949714 0.5625000000000002
v 1.4297383215411825 0.521818339923378 0.5625000000000002
v 1.2914957887331182 0.5013182881475592 0.4375000000000002
v 1.393889794269242 0.57301534269144 0.4375000000000002
v 1.2914957887331182 0.5013182881475592 0.5625000000000002
v 1.393889794269242 0.57301534269144 0.5625000000000002
v 1.5859582446567022 0.13526503102306453 0.4687500000000003
v 1.6371552474247641 0.17111355829500496 0.4687500000000003
v 1.478412662840881 0.28885603932725046 0.4687500000000003
v 1.5296096656089428 0.3247045665991909 0.4687500000000003
v 1.5859582446567022 0.13526503102306453 0.5312500000000002
v 1.6371552474247641 0.17111355829500496 0.5312500000000003
v 1.478412662840881 0.28885603932725046 0.5312500000000002
v 1.5296096656089428 0.3247045665991909 0.5312500000000002
v 0.7845179573177418 1.061909530456391 0.5906250000000004
v 1.1071547027652042 0.6011365055438347 0.5906250000000005
v 1.1071547027652042 0.6011365055438348 0.9031249999999997
v 0.7845179573177418 1.061909530456391 0.9031249999999997
v 1.3631397166055137 0.7803791419035364 0.9031250000000002
v 1.0405029711580511 1.2411521668160928 0.903125
v 1.363139716605514 0.7803791419035364 0.5906250000000005
v 1.0405029711580513 1.2411521668160928 0.5906250000000004
v 1.2197987341892373 0.6037122936836832 0.6843750000000002
v 1.2914957887331182 0.5013182881475593 0.6843750000000002
v 1.2556472614611778 0.5525152909156212 0.809375
v 1.2197987341892373 0.6037122936836832 0.809375
v 1.3580412669973017 0.6242123454595019 0.809375
v 1.3221927397253612 0.6754093482275638 0.809375
v 1.393889794269242 0.5730153426914399 0.6843750000000002
v 1.3221927397253612 0.6754093482275638 0.6843750000000002
v 1.183950206917297 0.6549092964517452 0.6843750000000002
v 1.183950206917297 0.6549092964517452 0.809375
v 1.2863442124534208 0.7266063509956259 0.809375
v 1.2863442124534208 0.7266063509956259 0.6843750000000001
v 1.2197987341892376 0.6037122936836832 0.5906250000000004
v 1.2914957887331184 0.5013182881475593 0.5906250000000004
v 1.393889794269242 0.5730153426914399 0.5906250000000003
v 1.3221927397253614 0.6754093482275638 0.5906250000000003
v 1.324715401193725 0.9442201760956318 0.5937500000000002
v 1.4501852466455163 0.7650306664074147 0.5937500000000002
v 1.4501852466455163 0.7650306664074147 0.4062500000000002
v 1.324715401193725 0.9442201760956318 0.4062500000000002
v 1.3989882438774544 0.7291821391354744 0.4062500000000002
v 1.273518398425663 0.9083716488236915 0.4062500000000002
v 1.3989882438774544 0.7291821391354744 0.5937500000000002
v 1.273518398425663 0.9083716488236915 0.5937500000000002
v 1.1736842430279424 0.8384670206434078 0.40312500000000057
v 1.3272752513321278 0.9460126024592285 0.40312500000000073
v 0.9585930793963009 1.1456490372517785 0.4031250000000005
v 1.1121840877004863 1.2531946190675993 0.4031250000000007
v 1.1736842430279424 0.8384670206434078 0.5906249999999996
v 1.3272752513321278 0.9460126024592285 0.5906249999999997
v 0.9585930793963009 1.1456490372517785 0.5906249999999996
v 1.1121840877004863 1.2531946190675993 0.5906249999999997
v 1.404123882155706 0.6183305340750381 0.4343750000000005
v 1.4297223835397372 0.6362547977110083 0.4343750000000005
v 1.3682753548837656 0.6695275368431001 0.4343750000000005
v 1.4194723576518276 0.7053760641150403 0.4343750000000004
v 1.404123882155706 0.6183305340750381 0.559375
v 1.4297223835397372 0.6362547977110083 0.559375
v 1.3682753548837656 0.6695275368431001 0.559375
v 1.4194723576518276 0.7053760641150403 0.559375
v 1.2248812457960043 0.8743155479153482 0.4343750000000005
v 1.2760782485640658 0.9101640751872884 0.4343750000000004
v 1.2248812457960043 0.8743155479153482 0.559375
v 1.2760782485640658 0.9101640751872884 0.559375
vt 1 0.375
vt 0.9375 0.375
vt 0.9375 0.4375
vt 1 0.4375
vt 0.4375 0.5
vt 0.5 0.5
vt 0.5 0
vt 0.4375 0
vt 0.4375 0.5
vt 0.5 0.5
vt 0.5 0.1875
vt 0.4375 0.1875
vt 0.4375 0.5
vt 0.5 0.5
vt 0.5 0
vt 0.4375 0
vt 0.4375 0.5
vt 0.5 0.5
vt 0.5 0
vt 0.4375 0
vt 0.625 1
vt 0.625 0.875
vt 0.5 0.875
vt 0.5 1
vt 0.625 1
vt 0.625 0.875
vt 0.5 0.875
vt 0.5 1
vt 0.625 0.875
vt 0.625 1
vt 0.5 1
vt 0.5 0.875
vt 0.5 1
vt 0.5 0.875
vt 0.625 0.875
vt 0.625 1
vt 0.8125 0.75
vt 0.8125 0.5625
vt 0.625 0.5625
vt 0.625 0.75
vt 0.8125 0.75
vt 0.8125 0.5625
vt 0.625 0.5625
vt 0.625 0.75
vt 1 0.75
vt 1 0.5625
vt 0.8125 0.5625
vt 0.8125 0.75
vt 1 0.75
vt 1 0.5625
vt 0.8125 0.5625
vt 0.8125 0.75
vt 0.8125 0.75
vt 0.8125 0.5625
vt 0.625 0.5625
vt 0.625 0.75
vt 0.8125 0.75
vt 0.8125 0.5625
vt 0.625 0.5625
vt 0.625 0.75
vt 0.625 0.625
vt 0.625 0.75
vt 0.5 0.75
vt 0.5 0.625
vt 0.625 0.625
vt 0.625 0.75
vt 0.5 0.75
vt 0.5 0.625
vt 0.625 0.625
vt 0.625 0.75
vt 0.5 0.75
vt 0.5 0.625
vt 0.5 0.625
vt 0.5 0.75
vt 0.625 0.75
vt 0.625 0.625
vt 0.5 0.625
vt 0.5 0.75
vt 0.625 0.75
vt 0.625 0.625
vt 0.6875 1
vt 0.625 1
vt 0.625 0.875
vt 0.6875 0.875
vt 0.5625 0.875
vt 0.5 0.875
vt 0.5 1
vt 0.5625 1
vt 0.6875 0.875
vt 0.6875 1
vt 0.5 1
vt 0.5 0.875
vt 0.5 0.875
vt 0.5 1
vt 0.6875 1
vt 0.6875 0.875
vt 0.6875 1
vt 0.625 1
vt 0.625 0.875
vt 0.6875 0.875
vt 0.5625 0.875
vt 0.5 0.875
vt 0.5 1
vt 0.5625 1
vt 0.6875 0.875
vt 0.6875 1
vt 0.5 1
vt 0.5 0.875
vt 0.5 0.875
vt 0.5 1
vt 0.6875 1
vt 0.6875 0.875
vt 0.5625 0
vt 0 0
vt 0 0.3125
vt 0.5625 0.3125
vt 0.5625 0
vt 0 0
vt 0 0.3125
vt 0.5625 0.3125
vt 0.5625 0.3125
vt 0 0.3125
vt 0 0
vt 0.5625 0
vt 0.5625 0.3125
vt 0 0.3125
vt 0 0
vt 0.5625 0
vt 0.25 0.4375
vt 0.25 0.5625
vt 0.125 0.5625
vt 0.125 0.4375
vt 0.25 0.4375
vt 0.25 0.5625
vt 0.125 0.5625
vt 0.125 0.4375
vt 0.25 0.5625
vt 0.25 0.4375
vt 0.125 0.4375
vt 0.125 0.5625
vt 0.25 0.4375
vt 0.25 0.5625
vt 0.125 0.5625
vt 0.125 0.4375
vt 0 0.3125
vt 0 0.375
vt 0.125 0.375
vt 0.125 0.3125
vt 0.125 0.4375
vt 0 0.4375
vt 0 0.3125
vt 0.125 0.3125
vt 0.25 0.4375
vt 0.25 0.5625
vt 0.375 0.5625
vt 0.375 0.4375
vt 0.125 0.4375
vt 0.125 0.5625
vt 0 0.5625
vt 0 0.4375
vt 0 0.375
vt 0 0.4375
vt 0.125 0.4375
vt 0.125 0.375
vt 0 0.375
vt 0 0.4375
vt 0.125 0.4375
vt 0.125 0.375
vt 0.125 0.375
vt 0.125 0.4375
vt 0 0.4375
vt 0 0.375
vt 0.125 0.375
vt 0.125 0.4375
vt 0 0.4375
vt 0 0.375
vt 0.9375 0.1875
vt 0.9375 0.4375
vt 0.8125 0.4375
vt 0.8125 0.1875
vt 0.9375 0.1875
vt 0.9375 0.4375
vt 0.8125 0.4375
vt 0.8125 0.1875
vt 0.9375 0.1875
vt 0.9375 0.4375
vt 0.8125 0.4375
vt 0.8125 0.1875
vt 0.9375 0.1875
vt 0.9375 0.4375
vt 0.8125 0.4375
vt 0.8125 0.1875
vt 0.9375 0.4375
vt 0.9375 0.5
vt 0.8125 0.5
vt 0.8125 0.4375
vt 0.9375 0.4375
vt 0.9375 0.5
vt 0.8125 0.5
vt 0.8125 0.4375
vt 0.9375 0.4375
vt 0.9375 0.5625
vt 0.8125 0.5625
vt 0.8125 0.4375
vt 0.9375 0.4375
vt 0.9375 0.5625
vt 0.8125 0.5625
vt 0.8125 0.4375
vt 0.9375 0.5625
vt 0.875 0.5625
vt 0.875 0.4375
vt 0.9375 0.4375
vt 0.875 0.4375
vt 0.8125 0.4375
vt 0.8125 0.5625
vt 0.875 0.5625
vt 1 0.1875
vt 1 0.375
vt 0.9375 0.375
vt 0.9375 0.1875
vt 1 0.1875
vt 1 0.375
vt 0.9375 0.375
vt 0.9375 0.1875
vt 1 0.3125
vt 1 0.375
vt 0.9375 0.375
vt 0.9375 0.3125
vt 1 0.1875
vt 1 0.25
vt 0.9375 0.25
vt 0.9375 0.1875
vt 1 0.1875
vt 1 0.375
vt 0.9375 0.375
vt 0.9375 0.1875
vt 1 0.1875
vt 1 0.375
vt 0.9375 0.375
vt 0.9375 0.1875
vt 0.9375 0.3125
vt 0.9375 0.4375
vt 0.8125 0.4375
vt 0.8125 0.3125
vt 0.5 0
vt 0.5 0.3125
vt 0.8125 0.3125
vt 0.8125 0
vt 0.8125 0
vt 0.8125 0.3125
vt 0.5 0.3125
vt 0.5 0
vt 0.5 1
vt 0.6875 1
vt 0.6875 0.9375
vt 0.5 0.9375
vt 0.5 0.9375
vt 0.6875 0.9375
vt 0.6875 1
vt 0.5 1
vt 0.5625 0
vt 0 0
vt 0 0.3125
vt 0.5625 0.3125
vt 0.5625 0
vt 0 0
vt 0 0.3125
vt 0.5625 0.3125
vt 0.5625 0.3125
vt 0 0.3125
vt 0 0
vt 0.5625 0
vt 0.5625 0.3125
vt 0 0.3125
vt 0 0
vt 0.5625 0
vt 0.25 0.4375
vt 0.25 0.5625
vt 0.125 0.5625
vt 0.125 0.4375
vt 0.25 0.4375
vt 0.25 0.5625
vt 0.125 0.5625
vt 0.125 0.4375
vt 0.25 0.5625
vt 0.25 0.4375
vt 0.125 0.4375
vt 0.125 0.5625
vt 0.25 0.4375
vt 0.25 0.5625
vt 0.125 0.5625
vt 0.125 0.4375
vt 0 0.3125
vt 0 0.375
vt 0.125 0.375
vt 0.125 0.3125
vt 0.125 0.4375
vt 0 0.4375
vt 0 0.3125
vt 0.125 0.3125
vt 0.25 0.4375
vt 0.25 0.5625
vt 0.375 0.5625
vt 0.375 0.4375
vt 0.125 0.4375
vt 0.125 0.5625
vt 0 0.5625
vt 0 0.4375
vt 0 0.375
vt 0 0.4375
vt 0.125 0.4375
vt 0.125 0.375
vt 0 0.375
vt 0 0.4375
vt 0.125 0.4375
vt 0.125 0.375
vt 0.125 0.375
vt 0.125 0.4375
vt 0 0.4375
vt 0 0.375
vt 0.125 0.375
vt 0.125 0.4375
vt 0 0.4375
vt 0 0.375
vt 0.5 0
vt 0.5 0.3125
vt 0.8125 0.3125
vt 0.8125 0
vt 0.8125 0
vt 0.8125 0.3125
vt 0.5 0.3125
vt 0.5 0
vt 0.6875 0.75
vt 0.6875 0.5625
vt 0.625 0.5625
vt 0.625 0.75
vt 0.8125 0.75
vt 0.8125 0.5625
vt 0.75 0.5625
vt 0.75 0.75
vt 1 0.75
vt 1 0.5625
vt 0.8125 0.5625
vt 0.8125 0.75
vt 1 0.75
vt 1 0.5625
vt 0.8125 0.5625
vt 0.8125 0.75
vt 0.8125 0.75
vt 0.8125 0.5625
vt 0.625 0.5625
vt 0.625 0.75
vt 0.8125 0.75
vt 0.8125 0.5625
vt 0.625 0.5625
vt 0.625 0.75
vt 0.5 0.5625
vt 0.125 0.5625
vt 0.125 0.75
vt 0.5 0.75
vt 0.5 0.5625
vt 0.125 0.5625
vt 0.125 0.75
vt 0.5 0.75
vt 1 0.9375
vt 1 0.75
vt 0.8125 0.75
vt 0.8125 0.9375
vt 1 0.75
vt 1 0.9375
vt 0.8125 0.9375
vt 0.8125 0.75
vt 0.5 0.75
vt 0.125 0.75
vt 0.125 0.5625
vt 0.5 0.5625
vt 0.5 0.75
vt 0.125 0.75
vt 0.125 0.5625
vt 0.5 0.5625
vt 0.625 0.5625
vt 0.625 0.625
vt 0.5625 0.625
vt 0.5625 0.5625
vt 0.6875 0.5625
vt 0.6875 0.625
vt 0.625 0.625
vt 0.625 0.5625
vt 0.5625 0.5625
vt 0.5625 0.625
vt 0.6875 0.625
vt 0.6875 0.5625
vt 0.6875 0.5625
vt 0.6875 0.625
vt 0.5625 0.625
vt 0.5625 0.5625
vt 0.6875 0.0625
vt 0.6875 0.3125
vt 0.625 0.3125
vt 0.625 0.0625
vt 0.625 0.0625
vt 0.625 0.3125
vt 0.5625 0.3125
vt 0.5625 0.0625
vt 0.5625 0.0625
vt 0.5625 0.3125
vt 0.6875 0.3125
vt 0.6875 0.0625
vt 0.6875 0.0625
vt 0.6875 0.3125
vt 0.5625 0.3125
vt 0.5625 0.0625
vn -0.5735764363510463 0.8191520442889917 -1.2735955320387544e-16
vn -0.8191520442889917 -0.5735764363510463 -1.818882920476809e-16
vn 0.8191520442889917 0.5735764363510463 1.818882920476809e-16
vn 2.220446049250313e-16 0 -1
vn -2.220446049250313e-16 0 1
vn 0.5735764363510463 -0.8191520442889917 1.2735955320387544e-16
vn -0.5735764363510463 0.8191520442889917 -1.2735955320387544e-16
vn -0.8191520442889917 -0.5735764363510463 -1.818882920476809e-16
vn 0.8191520442889917 0.5735764363510463 1.818882920476809e-16
vn 2.220446049250313e-16 0 -1
vn -2.220446049250313e-16 0 1
vn 0.5735764363510463 -0.8191520442889917 1.2735955320387544e-16
vn -0.5735764363510463 0.8191520442889917 -1.2735955320387544e-16
vn -0.8191520442889917 -0.5735764363510463 -1.818882920476809e-16
vn 0.8191520442889917 0.5735764363510463 1.818882920476809e-16
vn 2.220446049250313e-16 0 -1
vn -2.220446049250313e-16 0 1
vn -0.5735764363510463 0.8191520442889917 -1.2735955320387544e-16
vn -0.8191520442889917 -0.5735764363510463 -1.818882920476809e-16
vn 0.8191520442889917 0.5735764363510463 1.818882920476809e-16
vn -1.3110045890118994e-16 6.367977660193836e-17 1
vn -1.417319791703338e-16 -2.547191064077532e-16 -1
vn 0.5735764363510463 -0.8191520442889917 1.2735955320387544e-16
vn -0.5735764363510463 0.8191520442889917 -1.2735955320387544e-16
vn -1.3110045890118994e-16 6.367977660193836e-17 1
vn -1.417319791703338e-16 -2.547191064077532e-16 -1
vn 0.5735764363510463 -0.8191520442889917 1.2735955320387544e-16
vn -0.5735764363510463 0.8191520442889917 -1.2735955320387544e-16
vn 2.220446049250313e-16 0 -1
vn -2.220446049250313e-16 0 1
vn -0.8191520442889917 -0.5735764363510463 -1.818882920476809e-16
vn 0.8191520442889917 0.5735764363510463 1.818882920476809e-16
vn 0.5735764363510463 -0.8191520442889917 1.2735955320387544e-16
vn -0.5735764363510463 0.8191520442889917 -1.2735955320387544e-16
vn -0.8191520442889917 -0.5735764363510463 -1.818882920476809e-16
vn 0.8191520442889917 0.5735764363510463 1.818882920476809e-16
vn 2.220446049250313e-16 0 -1
vn 0.5130223607892085 -0.7326718619752415 -0.4472135954999578
vn -0.8191520442889917 -0.5735764363510463 -1.818882920476809e-16
vn 0.8191520442889917 0.5735764363510463 1.818882920476809e-16
vn 2.220446049250313e-16 0 -1
vn -2.220446049250313e-16 0 1
vn -0.8191520442889917 -0.5735764363510463 -1.818882920476809e-16
vn 0.8191520442889917 0.5735764363510463 1.818882920476809e-16
vn 2.220446049250313e-16 0 -1
vn -2.220446049250313e-16 0 1
vn -0.8191520442889917 -0.5735764363510463 -1.818882920476809e-16
vn 0.8191520442889917 0.5735764363510463 1.818882920476809e-16
vn 2.220446049250313e-16 0 -1
vn -2.220446049250313e-16 0 1
vn 0.5735764363510463 -0.8191520442889917 1.2735955320387544e-16
vn -0.5735764363510463 0.8191520442889917 -1.2735955320387544e-16
vn -0.8191520442889917 -0.5735764363510463 -1.818882920476809e-16
vn 0.8191520442889917 0.5735764363510463 1.818882920476809e-16
vn 2.220446049250313e-16 0 -1
vn -2.220446049250313e-16 0 1
vn 0.5735764363510463 -0.8191520442889917 1.2735955320387544e-16
vn -0.5735764363510463 0.8191520442889917 -1.2735955320387544e-16
vn -0.8191520442889917 -0.5735764363510463 -1.818882920476809e-16
vn 0.8191520442889917 0.5735764363510463 1.818882920476809e-16
vn 0.5735764363510463 -0.8191520442889917 1.2735955320387544e-16
vn -0.5735764363510463 0.8191520442889917 -1.2735955320387544e-16
vn 0.5735764363510463 -0.8191520442889917 1.2735955320387544e-16
vn -0.8191520442889917 -0.5735764363510463 -1.0787342373933643e-16
vn -0.8191520442889917 -0.5735764363510463 -1.0787342373933643e-16
vn -8.040871394776113e-16 -4.0755057025240214e-16 1
vn 2.220446049250313e-16 0 -1
vn 0.8191520442889917 0.5735764363510463 3.595239759877062e-16
vn -0.8191520442889917 -0.5735764363510463 8.45652338623572e-17
vn 0.5735764363510463 -0.8191520442889917 1.2735955320387544e-16
vn -0.5735764363510463 0.8191520442889917 -1.2735955320387544e-16
vn 0.8191520442889917 0.5735764363510463 2.180289736372966e-15
vn -0.8191520442889917 -0.5735764363510463 -1.3661261849811842e-15
vn -5.858211890203935e-16 -2.5471910640775117e-16 1
vn 0.5130223607892079 -0.7326718619752414 0.4472135954999587
vn 0.8191520442889917 0.5735764363510463 -9.838458838087344e-16
vn -0.8191520442889917 -0.5735764363510463 -1.535483835390713e-17
vn -5.858211890203935e-16 -2.5471910640775117e-16 1
vn -1.417319791703313e-16 -2.547191064077514e-16 -1
vn 0.8191520442889917 0.5735764363510463 -9.838458838087344e-16
vn -0.8191520442889917 -0.5735764363510463 -1.535483835390713e-17
vn -0.5735764363510463 0.8191520442889917 -1.2735955320387544e-16
vn 0.5735764363510463 -0.8191520442889917 1.2735955320387544e-16
vn 2.220446049250313e-16 0 -1
vn -2.220446049250313e-16 0 1
vn 0.5735764363510463 -0.8191520442889917 1.2735955320387544e-16
vn -0.5735764363510448 0.8191520442889927 -1.2735955320387511e-16
vn -0.8191520442889917 -0.5735764363510463 -1.818882920476809e-16
vn 0.8191520442889922 0.5735764363510455 1.8188829204768103e-16
vn 7.070800503855162e-16 3.3962547521033574e-16 -1
vn -4.645623276552736e-16 -1.6981273760516802e-16 1
vn 0.5735764363510458 -0.819152044288992 1.2735955320387534e-16
vn -0.5735764363510458 0.819152044288992 -1.2735955320387534e-16
vn -0.8191520442889917 -0.5735764363510463 -1.818882920476809e-16
vn 0.819152044288992 0.5735764363510458 1.8188829204768098e-16
vn 1.2409210305560348e-15 -1.4551063363814473e-15 -1
vn -2.220446049250313e-16 0 1
vn 0.5735764363510463 -0.8191520442889917 1.2735955320387544e-16
vn 0.9891830423698453 0.14668642980159047 2.196427578415528e-16
vn -1.233061731456421e-15 -1.018876425631007e-15 -1
vn -2.220446049250313e-16 0 1
vn -0.8191520442889922 -0.5735764363510455 -1.95824513144794e-15
vn 0.8191520442889917 0.5735764363510463 1.818882920476809e-16
usemtl inserter_fluid_advanced
f 93/253/64 94/254/64 95/255/64
f 93/253/64 95/255/64 96/256/64
f 90/257/65 89/258/65 96/259/65
f 90/257/65 96/259/65 95/260/65
f 92/261/66 91/262/66 94/263/66
f 92/261/66 94/263/66 93/264/66
f 91/265/67 90/266/67 95/267/67
f 91/265/67 95/267/67 94/268/67
f 89/269/68 92/270/68 93/271/68
f 89/269/68 93/271/68 96/272/68
f 97/273/69 98/274/69 102/275/69
f 97/273/69 102/275/69 101/276/69
f 100/277/70 99/278/70 103/279/70
f 100/277/70 103/279/70 104/280/70
f 99/281/71 97/282/71 101/283/71
f 99/281/71 101/283/71 103/284/71
f 104/285/72 102/286/72 98/287/72
f 104/285/72 98/287/72 100/288/72
usemtl tool_dark_blue
f 106/289/73 86/290/73 85/291/73
f 106/289/73 85/291/73 105/292/73
f 107/293/74 87/294/74 88/295/74
f 107/293/74 88/295/74 108/296/74
f 85/297/75 86/298/75 88/299/75
f 85/297/75 88/299/75 87/300/75
f 106/301/76 105/302/76 107/303/76
f 106/301/76 107/303/76 108/304/76
f 105/305/77 85/306/77 87/307/77
f 105/305/77 87/307/77 107/308/77
f 108/309/78 88/310/78 86/311/78
f 108/309/78 86/311/78 106/312/78
f 112/313/79 110/314/79 109/315/79
f 112/313/79 109/315/79 111/316/79
f 115/317/80 113/318/80 114/319/80
f 115/317/80 114/319/80 116/320/80
f 112/321/81 111/322/81 115/323/81
f 112/321/81 115/323/81 116/324/81
f 111/325/82 109/326/82 113/327/82
f 111/325/82 113/327/82 115/328/82
f 116/329/83 114/330/83 110/331/83
f 116/329/83 110/331/83 112/332/83
f 120/333/84 118/334/84 117/335/84
f 120/333/84 117/335/84 119/336/84
f 123/337/85 121/338/85 122/339/85
f 123/337/85 122/339/85 124/340/85
f 117/341/86 118/342/86 122/343/86
f 117/341/86 122/343/86 121/344/86
f 120/345/87 119/346/87 123/347/87
f 120/345/87 123/347/87 124/348/87
f 128/349/88 126/350/88 125/351/88
f 128/349/88 125/351/88 127/352/88
f 131/353/89 129/354/89 130/355/89
f 131/353/89 130/355/89 132/356/89
f 125/357/90 126/358/90 130/359/90
f 125/357/90 130/359/90 129/360/90
f 128/361/91 127/362/91 131/363/91
f 128/361/91 131/363/91 132/364/91
f 136/365/92 134/366/92 133/367/92
f 136/365/92 133/367/92 135/368/92
f 139/369/93 137/370/93 138/371/93
f 139/369/93 138/371/93 140/372/93
f 135/373/94 133/374/94 137/375/94
f 135/373/94 137/375/94 139/376/94
f 140/377/95 138/378/95 134/379/95
f 140/377/95 134/379/95 136/380/95
f 141/381/96 142/382/96 146/383/96
f 141/381/96 146/383/96 145/384/96
f 144/385/97 143/386/97 147/387/97
f 144/385/97 147/387/97 148/388/97
f 143/389/98 141/390/98 145/391/98
f 143/389/98 145/391/98 147/392/98
f 148/393/99 146/394/99 142/395/99
f 148/393/99 142/395/99 144/396/99
f 152/397/100 150/398/100 149/399/100
f 152/397/100 149/399/100 151/400/100
f 149/401/101 150/402/101 142/403/101
f 149/401/101 142/403/101 141/404/101
f 151/405/102 149/406/102 141/407/102
f 151/405/102 141/407/102 143/408/102
f 144/409/103 142/410/103 150/411/103
f 144/409/103 150/411/103 152/412/103
f 154/413/104 152/414/104 151/415/104
f 154/413/104 151/415/104 153/416/104
f 155/417/105 143/418/105 144/419/105
f 155/417/105 144/419/105 156/420/105
f 153/421/106 151/422/106 143/423/106
f 153/421/106 143/423/106 155/424/106
f 156/425/107 144/426/107 152/427/107
f 156/425/107 152/427/107 154/428/107
f 160/429/108 158/430/108 157/431/108
f 160/429/108 157/431/108 159/432/108
f 163/433/109 161/434/109 162/435/109
f 163/433/109 162/435/109 164/436/109
f 159/437/110 157/438/110 161/439/110
f 159/437/110 161/439/110 163/440/110
f 164/441/111 162/442/111 158/443/111
f 164/441/111 158/443/111 160/444/111
f 166/445/112 160/446/112 159/447/112
f 166/445/112 159/447/112 165/448/112
f 167/449/113 163/450/113 164/451/113
f 167/449/113 164/451/113 168/452/113
f 159/453/114 160/454/114 164/455/114
f 159/453/114 164/455/114 163/456/114
f 166/457/115 165/458/115 167/459/115
f 166/457/115 167/459/115 168/460/115
f 165/461/116 159/462/116 163/463/116
f 165/461/116 163/463/116 167/464/116
f 168/465/117 164/466/117 160/467/117
f 168/465/117 160/467/117 166/468/117
f 172/469/118 170/470/118 169/471/118
f 172/469/118 169/471/118 171/472/118
f 175/473/119 173/474/119 174/475/119
f 175/473/119 174/475/119 176/476/119
f 169/477/120 170/478/120 174/479/120
f 169/477/120 174/479/120 173/480/120
f 172/481/121 171/482/121 175/483/121
f 172/481/121 175/483/121 176/484/121
f 171/485/122 169/486/122 173/487/122
f 171/485/122 173/487/122 175/488/122
f 176/489/123 174/490/123 170/491/123
f 176/489/123 170/491/123 172/492/123
f 157/493/124 158/494/124 162/495/124
f 157/493/124 162/495/124 161/496/124
f 136/497/125 135/498/125 139/499/125
f 136/497/125 139/499/125 140/500/125
f 133/501/126 134/502/126 138/503/126
f 133/501/126 138/503/126 137/504/126
f 122/505/127 118/506/127 120/507/127
f 122/505/127 120/507/127 124/508/127
f 128/509/128 132/510/128 130/511/128
f 128/509/128 130/511/128 126/512/128
f 180/513/129 179/514/129 181/515/129
f 180/513/129 181/515/129 182/516/129
f 184/517/130 183/518/130 178/519/130
f 184/517/130 178/519/130 177/520/130
f 182/521/131 181/522/131 183/523/131
f 182/521/131 183/523/131 184/524/131
f 177/525/132 178/526/132 179/527/132
f 177/525/132 179/527/132 180/528/132
f 191/529/133 186/530/133 198/531/133
f 191/529/133 198/531/133 199/532/133
f 185/533/134 192/534/134 200/535/134
f 185/533/134 200/535/134 197/536/134
f 192/537/135 191/538/135 199/539/135
f 192/537/135 199/539/135 200/540/135
f 197/541/136 198/542/136 186/543/136
f 197/541/136 186/543/136 185/544/136
f 188/545/137 187/546/137 189/547/137
f 188/545/137 189/547/137 190/548/137
f 189/549/138 187/550/138 186/551/138
f 189/549/138 186/551/138 191/552/138
f 190/553/139 189/554/139 191/555/139
f 190/553/139 191/555/139 192/556/139
f 185/557/140 186/558/140 187/559/140
f 185/557/140 187/559/140 188/560/140
f 194/561/141 188/562/141 190/563/141
f 194/561/141 190/563/141 195/564/141
f 196/565/142 192/566/142 185/567/142
f 196/565/142 185/567/142 193/568/142
f 195/569/143 190/570/143 192/571/143
f 195/569/143 192/571/143 196/572/143
f 193/573/144 185/574/144 188/575/144
f 193/573/144 188/575/144 194/576/144
f 180/577/145 182/578/145 184/579/145
f 180/577/145 184/579/145 177/580/145
f 181/581/146 179/582/146 178/583/146
f 181/581/146 178/583/146 183/584/146
f 204/585/147 203/586/147 205/587/147
f 204/585/147 205/587/147 206/588/147
f 208/589/148 207/590/148 202/591/148
f 208/589/148 202/591/148 201/592/148
f 205/593/149 203/594/149 202/595/149
f 205/593/149 202/595/149 207/596/149
f 204/597/150 206/598/150 208/599/150
f 204/597/150 208/599/150 201/600/150
f 206/601/151 205/602/151 207/603/151
f 206/601/151 207/603/151 208/604/151
f 201/605/152 202/606/152 203/607/152
f 201/605/152 203/607/152 204/608/152
f 212/609/153 210/610/153 209/611/153
f 212/609/153 209/611/153 211/612/153
f 215/613/154 213/614/154 214/615/154
f 215/613/154 214/615/154 216/616/154
f 209/617/155 210/618/155 214/619/155
f 209/617/155 214/619/155 213/620/155
f 212/621/156 211/622/156 215/623/156
f 212/621/156 215/623/156 216/624/156
f 211/625/157 209/626/157 213/627/157
f 211/625/157 213/627/157 215/628/157
f 216/629/158 214/630/158 210/631/158
f 216/629/158 210/631/158 212/632/158
usemtl common_copper_cable
f 220/633/159 218/634/159 217/635/159
f 220/633/159 217/635/159 219/636/159
f 223/637/160 221/638/160 222/639/160
f 223/637/160 222/639/160 224/640/160
f 217/641/161 218/642/161 222/643/161
f 217/641/161 222/643/161 221/644/161
f 224/645/162 222/646/162 218/647/162
f 224/645/162 218/647/162 220/648/162
f 226/649/163 220/650/163 219/651/163
f 226/649/163 219/651/163 225/652/163
f 227/653/164 223/654/164 224/655/164
f 227/653/164 224/655/164 228/656/164
f 225/657/165 219/658/165 223/659/165
f 225/657/165 223/659/165 227/660/165
f 228/661/166 224/662/166 220/663/166
f 228/661/166 220/663/166 226/664/166
o lower
v 0.9453794240152047 1.330260489945104 0.5406250000000001
v 0.7721520116693386 1.4020136335135587 0.540625
v 0.8736262804467505 1.157033077599238 0.5406250000000001
v 0.7003988681008841 1.228786221167692 0.540625
v 0.9453794240152047 1.330260489945104 0.7281250000000001
v 0.7721520116693384 1.4020136335135587 0.728125
v 0.8736262804467504 1.157033077599238 0.7281250000000001
v 0.7003988681008841 1.228786221167692 0.728125
v 0.9453794240152047 1.330260489945104 0.4593750000000001
v 0.7721520116693386 1.4020136335135587 0.45937500000000003
v 0.8736262804467505 1.157033077599238 0.4593750000000001
v 0.7003988681008841 1.228786221167692 0.45937500000000003
v 0.9453794240152048 1.330260489945104 0.2718750000000001
v 0.7721520116693386 1.4020136335135587 0.2718750000000001
v 0.8736262804467505 1.157033077599238 0.2718750000000001
v 0.7003988681008843 1.228786221167692 0.27187500000000003
v 0.5816601853047736 0.5338247562591373 0.3125
v 0.4661752437408627 0.5816601853047736 0.3125
v 0.5338247562591374 0.41833981469522646 0.3125
v 0.4183398146952265 0.46617524374086267 0.3125
v 0.5816601853047735 0.5338247562591373 0.6875
v 0.46617524374086267 0.5816601853047736 0.6875
v 0.5338247562591373 0.41833981469522646 0.6875
v 0.4183398146952264 0.46617524374086267 0.6875
v 0.7342236243600215 1.1471260358629187 0.31250000000000006
v 0.6764811535780662 1.1710437503857367 0.3125
v 0.5428819081774766 0.6851862696072752 0.3125
v 0.48513943739552123 0.7091039841300935 0.3125
v 0.7342236243600214 1.1471260358629187 0.6875
v 0.6764811535780659 1.1710437503857367 0.6875
v 0.5428819081774766 0.6851862696072752 0.6875
v 0.4851394373955212 0.7091039841300935 0.6875
v 0.664522296316657 1.1421725149947592 0.34375
v 0.6356510609256794 1.1541313722561681 0.34375
v 0.5927691527482027 0.9689451026488929 0.34375
v 0.5638979173572249 0.9809039599103019 0.34375
v 0.6645222963166569 1.1421725149947592 0.65625
v 0.6356510609256792 1.1541313722561681 0.65625
v 0.5927691527482026 0.9689451026488929 0.65625
v 0.5638979173572249 0.9809039599103019 0.65625
v 0.5808102954867936 0.9400738672579151 0.34375
v 0.551939060095816 0.9520327245193241 0.34375
v 0.5090571519183393 0.7668464549120488 0.34375
v 0.48018591652736164 0.7788053121734579 0.34375
v 0.5808102954867936 0.9400738672579151 0.65625
v 0.5519390600958158 0.9520327245193241 0.65625
v 0.5090571519183393 0.7668464549120488 0.65625
v 0.48018591652736153 0.7788053121734579 0.65625
v 0.830319427360284 1.1749713634913515 0.34375000000000006
v 0.7437057211873508 1.2108479352755785 0.34375000000000006
v 0.5911422821321028 0.5975466556717972 0.34375
v 0.5045285759591697 0.6334232274560244 0.34375
v 0.8303194273602839 1.1749713634913515 0.43750000000000006
v 0.7437057211873508 1.2108479352755785 0.43750000000000006
v 0.5911422821321028 0.5975466556717972 0.4375
v 0.5045285759591697 0.6334232274560244 0.4375
v 0.6241171485732602 0.9221355813658015 0.34375
v 0.7107308547461934 0.8862590095815743 0.34375
v 0.7107308547461934 0.8862590095815743 0.43750000000000006
v 0.6241171485732602 0.9221355813658015 0.4375
v 0.8303194273602839 1.1749713634913515 0.5625000000000001
v 0.7437057211873508 1.2108479352755785 0.5625
v 0.5911422821321027 0.5975466556717972 0.5625
v 0.5045285759591697 0.6334232274560244 0.5625
v 0.8303194273602839 1.1749713634913515 0.65625
v 0.7437057211873507 1.2108479352755785 0.65625
v 0.5911422821321027 0.5975466556717972 0.65625
v 0.5045285759591697 0.6334232274560244 0.65625
v 0.6241171485732602 0.9221355813658015 0.5625
v 0.7107308547461934 0.8862590095815743 0.5625
v 0.7107308547461932 0.8862590095815743 0.65625
v 0.6241171485732602 0.9221355813658015 0.65625
v 0.4517396260453738 0.587639613935478 0.5625
v 0.3939971552634184 0.6115573284582961 0.5625
v 0.40390419699973756 0.4721546723715672 0.5625
v 0.3461617262177822 0.4960723868943853 0.5625
v 0.45173962604537377 0.587639613935478 0.65625
v 0.3939971552634184 0.6115573284582961 0.65625
v 0.40390419699973756 0.4721546723715672 0.65625
v 0.3461617262177822 0.4960723868943853 0.65625
v 0.6538382737822178 0.5039276131056147 0.5625
v 0.5960958030002623 0.5278453276284328 0.5625
v 0.6060028447365815 0.38844267154170387 0.5625
v 0.5482603739546261 0.41236038606452197 0.5625
v 0.6538382737822177 0.5039276131056147 0.65625
v 0.5960958030002623 0.5278453276284328 0.65625
v 0.6060028447365815 0.38844267154170387 0.65625
v 0.5482603739546261 0.41236038606452197 0.65625
v 0.4517396260453739 0.587639613935478 0.34375
v 0.39399715526341844 0.6115573284582961 0.34375
v 0.4039041969997377 0.4721546723715672 0.34375
v 0.34616172621778224 0.4960723868943853 0.34375
v 0.4517396260453738 0.587639613935478 0.4375
v 0.39399715526341844 0.6115573284582961 0.4375
v 0.4039041969997376 0.4721546723715672 0.4375
v 0.3461617262177822 0.4960723868943853 0.4375
v 0.6538382737822178 0.5039276131056147 0.34375
v 0.5960958030002624 0.5278453276284328 0.34375
v 0.6060028447365816 0.38844267154170387 0.34375
v 0.5482603739546262 0.41236038606452197 0.34375
v 0.6538382737822178 0.5039276131056147 0.43750000000000006
v 0.5960958030002624 0.5278453276284328 0.4375
v 0.6060028447365816 0.38844267154170387 0.4375
v 0.5482603739546262 0.41236038606452197 0.4375
vt 0.09375 0.8125
vt 0.09375 1
vt 0 1
vt 0 0.8125
vt 0.8125 0.8125
vt 0.8125 0.625
vt 0.625 0.625
vt 0.625 0.8125
vt 0.8125 0.625
vt 0.8125 0.8125
vt 1 0.8125
vt 1 0.625
vt 0.8125 0.8125
vt 0.8125 0.625
vt 1 0.625
vt 1 0.8125
vt 0.8125 0.625
vt 0.8125 0.8125
vt 1 0.8125
vt 1 0.625
vt 1 0.625
vt 1 0.8125
vt 0.8125 0.8125
vt 0.8125 0.625
vt 0 1
vt 0.09375 1
vt 0.09375 0.8125
vt 0 0.8125
vt 0.625 0.625
vt 0.8125 0.625
vt 0.8125 0.8125
vt 0.625 0.8125
vt 1 0.8125
vt 0.8125 0.8125
vt 0.8125 0.625
vt 1 0.625
vt 1 0.625
vt 0.8125 0.625
vt 0.8125 0.8125
vt 1 0.8125
vt 1 0.8125
vt 0.8125 0.8125
vt 0.8125 0.625
vt 1 0.625
vt 0.8125 0.8125
vt 1 0.8125
vt 1 0.625
vt 0.8125 0.625
vt 0.0625 0.875
vt 0.0625 1
vt 0 1
vt 0 0.875
vt 0.0625 0.875
vt 0.0625 1
vt 0 1
vt 0 0.875
vt 0.5 0.625
vt 0.625 0.625
vt 0.625 1
vt 0.5 1
vt 0.625 0.625
vt 0.5 0.625
vt 0.5 1
vt 0.625 1
vt 0.625 0.625
vt 0.5 0.625
vt 0.5 1
vt 0.625 1
vt 0.5 1
vt 0.625 1
vt 0.625 0.625
vt 0.5 0.625
vt 0 0.5
vt 0 0
vt 0.03125 0
vt 0.03125 0.5
vt 0.34375 0
vt 0.34375 0.5
vt 0.375 0.5
vt 0.375 0
vt 0 0.0625
vt 0 0
vt 0.375 0
vt 0.375 0.0625
vt 0 0.5
vt 0 0.4375
vt 0.375 0.4375
vt 0.375 0.5
vt 0.375 0.5
vt 0.375 0
vt 0 0
vt 0 0.5
vt 0.375 0.5
vt 0.375 0
vt 0 0
vt 0 0.5
vt 0.71875 0.8125
vt 0.71875 1
vt 0.6875 1
vt 0.6875 0.8125
vt 1 0.8125
vt 1 1
vt 0.96875 1
vt 0.96875 0.8125
vt 0.6875 0.9375
vt 0.6875 1
vt 1 1
vt 1 0.9375
vt 0.6875 0.8125
vt 0.6875 0.875
vt 1 0.875
vt 1 0.8125
vt 1 0.8125
vt 1 1
vt 0.6875 1
vt 0.6875 0.8125
vt 0.71875 0.8125
vt 0.71875 1
vt 0.6875 1
vt 0.6875 0.8125
vt 1 0.8125
vt 1 1
vt 0.96875 1
vt 0.96875 0.8125
vt 0.6875 0.9375
vt 0.6875 1
vt 1 1
vt 1 0.9375
vt 0.6875 0.8125
vt 0.6875 0.875
vt 1 0.875
vt 1 0.8125
vt 1 0.8125
vt 1 1
vt 0.6875 1
vt 0.6875 0.8125
vt 0.375 0.5
vt 0.375 0.1875
vt 0.5 0.1875
vt 0.5 0.5
vt 0.375 0.5
vt 0.375 0.1875
vt 0.5 0.1875
vt 0.5 0.5
vt 0.046875 0.90625
vt 0.046875 1
vt 0 1
vt 0 0.90625
vt 0.046875 0.90625
vt 0.046875 1
vt 0 1
vt 0 0.90625
vt 0.5 0.5
vt 0.5 0.1875
vt 0.375 0.1875
vt 0.375 0.5
vt 0.375 0.5
vt 0.375 0.1875
vt 0.5 0.1875
vt 0.5 0.5
vt 0.5 0.5
vt 0.5 0.1875
vt 0.375 0.1875
vt 0.375 0.5
vt 0.375 0.5
vt 0.375 0.1875
vt 0.5 0.1875
vt 0.5 0.5
vt 0.5 0.5
vt 0.5 0.1875
vt 0.375 0.1875
vt 0.375 0.5
vt 0.375 0.5
vt 0.375 0.1875
vt 0.5 0.1875
vt 0.5 0.5
vt 0.375 0.5
vt 0.375 0.1875
vt 0.5 0.1875
vt 0.5 0.5
vt 0.375 0.5
vt 0.375 0.1875
vt 0.5 0.1875
vt 0.5 0.5
vt 0.046875 0.90625
vt 0.046875 1
vt 0 1
vt 0 0.90625
vt 0.046875 0.90625
vt 0.046875 1
vt 0 1
vt 0 0.90625
vt 0.5 0.5
vt 0.5 0.1875
vt 0.375 0.1875
vt 0.375 0.5
vt 0.375 0.5
vt 0.375 0.1875
vt 0.5 0.1875
vt 0.5 0.5
vt 0.5 0.5
vt 0.5 0.1875
vt 0.375 0.1875
vt 0.375 0.5
vt 0.375 0.5
vt 0.375 0.1875
vt 0.5 0.1875
vt 0.5 0.5
vt 0.5 0.5
vt 0.5 0.1875
vt 0.375 0.1875
vt 0.375 0.5
vt 0.375 0.5
vt 0.375 0.1875
vt 0.5 0.1875
vt 0.5 0.5
vt 0.4375 0.375
vt 0.4375 0.125
vt 0.375 0.125
vt 0.375 0.375
vt 0.5 0.375
vt 0.5 0.125
vt 0.4375 0.125
vt 0.4375 0.375
vt 0.375 0.25
vt 0.375 0.375
vt 0.5 0.375
vt 0.5 0.25
vt 0.375 0.125
vt 0.375 0.375
vt 0.5 0.375
vt 0.5 0.125
vt 0.5 0.375
vt 0.5 0.125
vt 0.375 0.125
vt 0.375 0.375
vt 0.4375 0.375
vt 0.4375 0.125
vt 0.375 0.125
vt 0.375 0.375
vt 0.5 0.375
vt 0.5 0.125
vt 0.4375 0.125
vt 0.4375 0.375
vt 0.046875 0.9375
vt 0.046875 1
vt 0 1
vt 0 0.9375
vt 0.375 0.125
vt 0.375 0.375
vt 0.5 0.375
vt 0.5 0.125
vt 0.375 0.125
vt 0.375 0.375
vt 0.5 0.375
vt 0.5 0.125
vt 0.37734375 0
vt 0.43515625 0.09999999999999998
vt 0.43671875 0.1875
vt 0.37734375 0.28437500000000004
vt 0.4984375 0
vt 0.440625 0.09999999999999998
vt 0.4390625 0.1875
vt 0.4984375 0.28437500000000004
vt 0.375 0.375
vt 0.375 0.125
vt 0.5 0.125
vt 0.5 0.375
vt 0.375 0.375
vt 0.375 0
vt 0.5 0
vt 0.5 0.375
vt 0.5 0.375
vt 0.5 0
vt 0.375 0
vt 0.375 0.375
vt 0.4375 0.375
vt 0.4375 0.125
vt 0.375 0.125
vt 0.375 0.375
vt 0.5 0.375
vt 0.5 0.125
vt 0.4375 0.125
vt 0.4375 0.375
vt 0.375 0.25
vt 0.375 0.375
vt 0.5 0.375
vt 0.5 0.25
vt 0.375 0.125
vt 0.375 0.375
vt 0.5 0.375
vt 0.5 0.125
vt 0.5 0.375
vt 0.5 0.125
vt 0.375 0.125
vt 0.375 0.375
vt 0.4375 0.375
vt 0.4375 0.125
vt 0.375 0.125
vt 0.375 0.375
vt 0.5 0.375
vt 0.5 0.125
vt 0.4375 0.125
vt 0.4375 0.375
vt 0.046875 0.9375
vt 0.046875 1
vt 0 1
vt 0 0.9375
vt 0.375 0.125
vt 0.375 0.375
vt 0.5 0.375
vt 0.5 0.125
vt 0.375 0.125
vt 0.375 0.375
vt 0.5 0.375
vt 0.5 0.125
vt 0.37734375 0
vt 0.43515625 0.09999999999999998
vt 0.43671875 0.1875
vt 0.37734375 0.28437500000000004
vt 0.4984375 0
vt 0.440625 0.09999999999999998
vt 0.4390625 0.1875
vt 0.4984375 0.28437500000000004
vt 0.375 0.375
vt 0.375 0.125
vt 0.5 0.125
vt 0.5 0.375
vt 0.375 0.375
vt 0.375 0
vt 0.5 0
vt 0.5 0.375
vt 0.5 0.375
vt 0.5 0
vt 0.375 0
vt 0.375 0.375
vn 2.220446049250313e-16 0 -1
vn -2.220446049250313e-16 0 1
vn 0.3826834323650897 0.9238795325112867 8.497279155086129e-17
vn -0.3826834323650897 -0.9238795325112867 -8.497279155086129e-17
vn 0.9238795325112867 -0.3826834323650897 2.0514246579479128e-16
vn -0.9238795325112867 0.3826834323650897 -2.0514246579479128e-16
vn -2.220446049250313e-16 0 1
vn 2.220446049250313e-16 0 -1
vn 0.3826834323650897 0.9238795325112867 8.497279155086129e-17
vn -0.3826834323650897 -0.9238795325112867 -8.497279155086129e-17
vn 0.9238795325112867 -0.3826834323650897 2.0514246579479128e-16
vn -0.9238795325112867 0.3826834323650897 -2.0514246579479128e-16
vn 2.220446049250313e-16 0 -1
vn -2.220446049250313e-16 0 1
vn 0.3826834323650897 0.9238795325112867 8.497279155086129e-17
vn -0.3826834323650897 -0.9238795325112867 -8.497279155086129e-17
vn 0.9238795325112867 -0.3826834323650897 2.0514246579479128e-16
vn -0.9238795325112867 0.3826834323650897 -2.0514246579479128e-16
vn 2.220446049250313e-16 0 -1
vn -2.220446049250313e-16 0 1
vn 0.3826834323650897 0.9238795325112867 8.497279155086129e-17
vn -0.3826834323650897 -0.9238795325112867 -8.497279155086129e-17
vn 0.9238795325112867 -0.3826834323650897 2.0514246579479128e-16
vn -0.9238795325112867 0.3826834323650897 -2.0514246579479128e-16
vn 2.220446049250313e-16 0 -1
vn -2.220446049250313e-16 0 1
vn 0.3826834323650897 0.9238795325112867 8.497279155086129e-17
vn -0.3826834323650897 -0.9238795325112867 -8.497279155086129e-17
vn -0.9238795325112867 0.3826834323650897 -2.0514246579479128e-16
vn 2.220446049250313e-16 0 -1
vn -2.220446049250313e-16 0 1
vn 0.3826834323650897 0.9238795325112867 8.497279155086129e-17
vn -0.3826834323650897 -0.9238795325112867 -8.497279155086129e-17
vn -0.9238795325112867 0.3826834323650897 -2.0514246579479128e-16
vn 2.220446049250313e-16 0 -1
vn -2.220446049250313e-16 0 1
vn 0.3826834323650897 0.9238795325112867 8.497279155086129e-17
vn -0.3826834323650897 -0.9238795325112867 -8.497279155086129e-17
vn 0.9238795325112867 -0.3826834323650897 2.0514246579479128e-16
vn -0.9238795325112867 0.3826834323650897 -2.0514246579479128e-16
vn 2.220446049250313e-16 0 -1
vn 0.9238795325112867 -0.3826834323650897 2.0514246579479128e-16
vn -2.220446049250313e-16 0 1
vn -0.9238795325112867 0.3826834323650897 -2.0514246579479128e-16
vn 2.220446049250313e-16 0 -1
vn -2.220446049250313e-16 0 1
vn 0.3826834323650897 0.9238795325112867 8.497279155086129e-17
vn -0.3826834323650897 -0.9238795325112867 -8.497279155086129e-17
vn 0.9238795325112867 -0.3826834323650897 2.0514246579479128e-16
vn -0.9238795325112867 0.3826834323650897 -2.0514246579479128e-16
vn 2.220446049250313e-16 0 -1
vn 0.9238795325112867 -0.3826834323650897 2.0514246579479128e-16
vn -2.220446049250313e-16 0 1
vn -0.9238795325112867 0.3826834323650897 -2.0514246579479128e-16
vn 2.220446049250313e-16 0 -1
vn -2.220446049250313e-16 0 1
vn -0.3826834323650897 -0.9238795325112867 -8.497279155086129e-17
vn 0.9238795325112867 -0.3826834323650897 2.0514246579479128e-16
vn -0.9238795325112867 0.3826834323650897 -2.0514246579479128e-16
vn 2.220446049250313e-16 0 -1
vn -2.220446049250313e-16 0 1
vn -0.3826834323650897 -0.9238795325112867 -8.497279155086129e-17
vn 0.9238795325112867 -0.3826834323650897 2.0514246579479128e-16
vn -0.9238795325112867 0.3826834323650897 -2.0514246579479128e-16
vn 2.220446049250313e-16 0 -1
vn -2.220446049250313e-16 0 1
vn 0.3826834323650897 0.9238795325112867 8.497279155086129e-17
vn 0.830888020510073 0.5564396619336662 1.8449420225110048e-16
vn -0.19406429543489445 0.9809888119837852 -4.3090929809895695e-17
vn 2.220446049250313e-16 0 -1
vn -2.220446049250313e-16 0 1
vn -0.3826834323650897 -0.9238795325112867 -8.497279155086129e-17
vn 0.9238795325112867 -0.3826834323650897 2.0514246579479128e-16
vn -0.9238795325112867 0.3826834323650897 -2.0514246579479128e-16
vn 2.220446049250313e-16 0 -1
vn -2.220446049250313e-16 0 1
vn -0.3826834323650897 -0.9238795325112867 -8.497279155086129e-17
vn 0.9238795325112867 -0.3826834323650897 2.0514246579479128e-16
vn -0.9238795325112867 0.3826834323650897 -2.0514246579479128e-16
vn 2.220446049250313e-16 0 -1
vn -2.220446049250313e-16 0 1
vn 0.3826834323650897 0.9238795325112867 8.497279155086129e-17
vn 0.830888020510073 0.5564396619336662 1.8449420225110048e-16
vn -0.19406429543489445 0.9809888119837852 -4.3090929809895695e-17
usemtl inserter_fluid_advanced
f 232/665/167 230/666/167 229/667/167
f 232/665/167 229/667/167 231/668/167
f 235/669/168 233/670/168 234/671/168
f 235/669/168 234/671/168 236/672/168
f 229/673/169 230/674/169 234/675/169
f 229/673/169 234/675/169 233/676/169
f 232/677/170 231/678/170 235/679/170
f 232/677/170 235/679/170 236/680/170
f 231/681/171 229/682/171 233/683/171
f 231/681/171 233/683/171 235/684/171
f 236/685/172 234/686/172 230/687/172
f 236/685/172 230/687/172 232/688/172
f 237/689/173 238/690/173 240/691/173
f 237/689/173 240/691/173 239/692/173
f 242/693/174 241/694/174 243/695/174
f 242/693/174 243/695/174 244/696/174
f 242/697/175 238/698/175 237/699/175
f 242/697/175 237/699/175 241/700/175
f 243/701/176 239/702/176 240/703/176
f 243/701/176 240/703/176 244/704/176
f 241/705/177 237/706/177 239/707/177
f 241/705/177 239/707/177 243/708/177
f 238/709/178 242/710/178 244/711/178
f 238/709/178 244/711/178 240/712/178
f 248/713/179 246/714/179 245/715/179
f 248/713/179 245/715/179 247/716/179
f 251/717/180 249/718/180 250/719/180
f 251/717/180 250/719/180 252/720/180
f 245/721/181 246/722/181 250/723/181
f 245/721/181 250/723/181 249/724/181
f 248/725/182 247/726/182 251/727/182
f 248/725/182 251/727/182 252/728/182
f 247/729/183 245/730/183 249/731/183
f 247/729/183 249/731/183 251/732/183
f 252/733/184 250/734/184 246/735/184
f 252/733/184 246/735/184 248/736/184
f 256/737/185 254/738/185 253/739/185
f 256/737/185 253/739/185 255/740/185
f 259/741/186 257/742/186 258/743/186
f 259/741/186 258/743/186 260/744/186
f 253/745/187 254/746/187 258/747/187
f 253/745/187 258/747/187 257/748/187
f 256/749/188 255/750/188 259/751/188
f 256/749/188 259/751/188 260/752/188
f 255/753/189 253/754/189 257/755/189
f 255/753/189 257/755/189 259/756/189
f 260/757/190 258/758/190 254/759/190
f 260/757/190 254/759/190 256/760/190
f 264/761/191 262/762/191 261/763/191
f 264/761/191 261/763/191 263/764/191
f 267/765/192 265/766/192 266/767/192
f 267/765/192 266/767/192 268/768/192
f 261/769/193 262/770/193 266/771/193
f 261/769/193 266/771/193 265/772/193
f 264/773/194 263/774/194 267/775/194
f 264/773/194 267/775/194 268/776/194
f 268/777/195 266/778/195 262/779/195
f 268/777/195 262/779/195 264/780/195
f 272/781/196 270/782/196 269/783/196
f 272/781/196 269/783/196 271/784/196
f 275/785/197 273/786/197 274/787/197
f 275/785/197 274/787/197 276/788/197
f 269/789/198 270/790/198 274/791/198
f 269/789/198 274/791/198 273/792/198
f 272/793/199 271/794/199 275/795/199
f 272/793/199 275/795/199 276/796/199
f 276/797/200 274/798/200 270/799/200
f 276/797/200 270/799/200 272/800/200
f 277/801/201 286/802/201 285/803/201
f 277/801/201 285/803/201 278/804/201
f 282/805/202 288/806/202 287/807/202
f 282/805/202 287/807/202 281/808/202
f 277/809/203 278/810/203 282/811/203
f 277/809/203 282/811/203 281/812/203
f 280/813/204 279/814/204 283/815/204
f 280/813/204 283/815/204 284/816/204
f 281/817/205 287/818/205 286/819/205
f 281/817/205 286/819/205 277/820/205
f 278/821/206 285/822/206 288/823/206
f 278/821/206 288/823/206 282/824/206
f 280/825/207 285/826/207 286/827/207
f 280/825/207 286/827/207 279/828/207
f 279/829/208 286/830/208 287/831/208
f 279/829/208 287/831/208 283/832/208
f 283/833/209 287/834/209 288/835/209
f 283/833/209 288/835/209 284/836/209
f 284/837/210 288/838/210 285/839/210
f 284/837/210 285/839/210 280/840/210
f 289/841/211 298/842/211 297/843/211
f 289/841/211 297/843/211 290/844/211
f 294/845/212 300/846/212 299/847/212
f 294/845/212 299/847/212 293/848/212
f 289/849/213 290/850/213 294/851/213
f 289/849/213 294/851/213 293/852/213
f 292/853/214 291/854/214 295/855/214
f 292/853/214 295/855/214 296/856/214
f 293/857/215 299/858/215 298/859/215
f 293/857/215 298/859/215 289/860/215
f 290/861/216 297/862/216 300/863/216
f 290/861/216 300/863/216 294/864/216
f 292/865/217 297/866/217 298/867/217
f 292/865/217 298/867/217 291/868/217
f 291/869/218 298/870/218 299/871/218
f 291/869/218 299/871/218 295/872/218
f 295/873/219 299/874/219 300/875/219
f 295/873/219 300/875/219 296/876/219
f 296/877/220 300/878/220 297/879/220
f 296/877/220 297/879/220 292/880/220
f 304/881/221 302/882/221 301/883/221
f 304/881/221 301/883/221 303/884/221
f 307/885/222 305/886/222 306/887/222
f 307/885/222 306/887/222 308/888/222
f 304/889/223 303/890/223 307/891/223
f 304/889/223 307/891/223 308/892/223
f 303/893/224 301/894/224 305/895/224
f 303/893/224 305/895/224 307/896/224
f 308/897/225 306/898/225 302/899/225
f 308/897/225 302/899/225 304/900/225
f 312/901/226 310/902/226 309/903/226
f 312/901/226 309/903/226 311/904/226
f 315/905/227 313/906/227 314/907/227
f 315/905/227 314/907/227 316/908/227
f 312/909/228 311/910/228 315/911/228
f 312/909/228 315/911/228 316/912/228
f 311/913/229 309/914/229 313/915/229
f 311/913/229 313/915/229 315/916/229
f 316/917/230 314/918/230 310/919/230
f 316/917/230 310/919/230 312/920/230
f 302/921/231 292/922/231 291/923/231
f 302/921/231 291/923/231 309/924/231
f 313/925/232 295/926/232 296/927/232
f 313/925/232 296/927/232 306/928/232
f 291/929/233 292/930/233 296/931/233
f 291/929/233 296/931/233 295/932/233
f 309/933/234 291/934/234 295/935/234
f 309/933/234 295/935/234 313/936/234
f 306/937/235 296/938/235 292/939/235
f 306/937/235 292/939/235 302/940/235
f 320/941/236 318/942/236 317/943/236
f 320/941/236 317/943/236 319/944/236
f 323/945/237 321/946/237 322/947/237
f 323/945/237 322/947/237 324/948/237
f 320/949/238 319/950/238 323/951/238
f 320/949/238 323/951/238 324/952/238
f 319/953/239 317/954/239 321/955/239
f 319/953/239 321/955/239 323/956/239
f 324/957/240 322/958/240 318/959/240
f 324/957/240 318/959/240 320/960/240
f 328/961/241 326/962/241 325/963/241
f 328/961/241 325/963/241 327/964/241
f 331/965/242 329/966/242 330/967/242
f 331/965/242 330/967/242 332/968/242
f 328/969/243 327/970/243 331/971/243
f 328/969/243 331/971/243 332/972/243
f 327/973/244 325/974/244 329/975/244
f 327/973/244 329/975/244 331/976/244
f 332/977/245 330/978/245 326/979/245
f 332/977/245 326/979/245 328/980/245
f 318/981/246 280/982/246 279/983/246
f 318/981/246 279/983/246 325/984/246
f 329/985/247 283/986/247 284/987/247
f 329/985/247 284/987/247 322/988/247
f 279/989/248 280/990/248 284/991/248
f 279/989/248 284/991/248 283/992/248
f 325/993/249 279/994/249 283/995/249
f 325/993/249 283/995/249 329/996/249
f 322/997/250 284/998/250 280/999/250
f 322/997/250 280/999/250 318/1000/250
o turntable
v 0.75 0.375 0.25000000000000006
v 0.25000000000000006 0.375 0.24999999999999994
v 0.75 0.3125 0.25000000000000006
v 0.25000000000000006 0.3125 0.24999999999999994
v 0.75 0.375 0.75
v 0.24999999999999994 0.375 0.75
v 0.75 0.3125 0.75
v 0.24999999999999994 0.3125 0.75
v 0.625 0.3125 0.375
v 0.375 0.3125 0.375
v 0.625 0.25 0.375
v 0.375 0.25 0.375
v 0.625 0.3125 0.625
v 0.375 0.3125 0.625
v 0.625 0.25 0.625
v 0.375 0.25 0.625
v 0.625 0.5625 0.6875
v 0.37499999999999994 0.5625 0.6875
v 0.625 0.375 0.6875
v 0.37499999999999994 0.375 0.6875
v 0.625 0.5625 0.75
v 0.37499999999999994 0.5625 0.75
v 0.625 0.375 0.75
v 0.37499999999999994 0.375 0.75
v 0.625 0.5625 0.25
v 0.37500000000000006 0.5625 0.25
v 0.625 0.375 0.25
v 0.37500000000000006 0.375 0.25
v 0.625 0.5625 0.3125
v 0.37500000000000006 0.5625 0.3125
v 0.625 0.375 0.3125
v 0.37500000000000006 0.375 0.3125
v 0.5625 0.625 0.6875
v 0.43749999999999994 0.625 0.6875
v 0.5625 0.625 0.75
v 0.43749999999999994 0.625 0.75
v 0.5625 0.625 0.25
v 0.43750000000000006 0.625 0.25
v 0.5625 0.625 0.3125
v 0.43750000000000006 0.625 0.3125
vt 0.5 1
vt 0.4375 1
vt 0.4375 0.5
vt 0.5 0.5
vt 0.0625 1
vt 0 1
vt 0 0.5
vt 0.0625 0.5
vt 0.5 0.5
vt 0.5 1
vt 0 1
vt 0 0.5
vt 0.5 0.5
vt 0.5 1
vt 0 1
vt 0 0.5
vt 0.5 0.9375
vt 0.5 1
vt 0 1
vt 0 0.9375
vt 0 0.5
vt 0 0.5625
vt 0.5 0.5625
vt 0.5 0.5
vt 0.75 0.4375
vt 0.75 0.5
vt 0.5 0.5
vt 0.5 0.4375
vt 0.75 0.375
vt 0.75 0.4375
vt 0.5 0.4375
vt 0.5 0.375
vt 0.75 0.375
vt 0.75 0.4375
vt 0.5 0.4375
vt 0.5 0.375
vt 0.75 0.4375
vt 0.75 0.5
vt 0.5 0.5
vt 0.5 0.4375
vt 0.375 0.5
vt 0.375 0.6875
vt 0.125 0.6875
vt 0.125 0.5
vt 0.375 0.5
vt 0.375 0.6875
vt 0.125 0.6875
vt 0.125 0.5
vt 0.375 0.5
vt 0.375 0.6875
vt 0.3125 0.6875
vt 0.3125 0.5
vt 0.1875 0.5
vt 0.1875 0.6875
vt 0.125 0.6875
vt 0.125 0.5
vt 0.375 0.5
vt 0.375 0.6875
vt 0.125 0.6875
vt 0.125 0.5
vt 0.375 0.5
vt 0.375 0.6875
vt 0.125 0.6875
vt 0.125 0.5
vt 0.375 0.5
vt 0.375 0.6875
vt 0.3125 0.6875
vt 0.3125 0.5
vt 0.1875 0.5
vt 0.1875 0.6875
vt 0.125 0.6875
vt 0.125 0.5
vt 0.3125 0.5625
vt 0.28125 0.5
vt 0.21875 0.5
vt 0.1875 0.5625
vt 0.1875 0.5625
vt 0.21875 0.5
vt 0.28125 0.5
vt 0.3125 0.5625
vt 0.28125 0.5625
vt 0.21875 0.5625
vt 0.21875 0.5
vt 0.28125 0.5
vt 0.3125 0.5
vt 0.3125 0.5625
vt 0.28125 0.5625
vt 0.28125 0.5
vt 0.21875 0.5
vt 0.21875 0.5625
vt 0.1875 0.5625
vt 0.1875 0.5
vt 0.3125 0.5625
vt 0.28125 0.5
vt 0.21875 0.5
vt 0.1875 0.5625
vt 0.1875 0.5625
vt 0.21875 0.5
vt 0.28125 0.5
vt 0.3125 0.5625
vt 0.28125 0.5625
vt 0.21875 0.5625
vt 0.21875 0.5
vt 0.28125 0.5
vt 0.3125 0.5
vt 0.3125 0.5625
vt 0.28125 0.5625
vt 0.28125 0.5
vt 0.21875 0.5
vt 0.21875 0.5625
vt 0.1875 0.5625
vt 0.1875 0.5
vn 2.220446049250313e-16 0 -1
vn -2.220446049250313e-16 0 1
vn 0 1 0
vn 0 -1 0
vn 1 0 2.220446049250313e-16
vn -1 0 -2.220446049250313e-16
vn 2.220446049250313e-16 0 -1
vn -2.220446049250313e-16 0 1
vn 1 0 2.220446049250313e-16
vn -1 0 -2.220446049250313e-16
vn 2.220446049250313e-16 0 -1
vn -2.220446049250313e-16 0 1
vn 1 0 2.220446049250313e-16
vn -1 0 -2.220446049250313e-16
vn 2.220446049250313e-16 0 -1
vn -2.220446049250313e-16 0 1
vn 1 0 2.220446049250313e-16
vn -1 0 -2.220446049250313e-16
vn 2.220446049250313e-16 0 -1
vn -2.220446049250313e-16 0 1
vn 0 1 0
vn 0.7071067811865476 0.7071067811865476 1.5700924586837752e-16
vn -0.7071067811865476 0.7071067811865476 -1.5700924586837752e-16
vn 2.220446049250313e-16 0 -1
vn -2.220446049250313e-16 0 1
vn 0 1 0
vn 0.7071067811865476 0.7071067811865476 1.5700924586837752e-16
vn -0.7071067811865476 0.7071067811865476 -1.5700924586837752e-16
usemtl inserter_fluid_advanced
f 336/1001/251 334/1002/251 333/1003/251
f 336/1001/251 333/1003/251 335/1004/251
f 339/1005/252 337/1006/252 338/1007/252
f 339/1005/252 338/1007/252 340/1008/252
f 333/1009/253 334/1010/253 338/1011/253
f 333/1009/253 338/1011/253 337/1012/253
f 336/1013/254 335/1014/254 339/1015/254
f 336/1013/254 339/1015/254 340/1016/254
f 335/1017/255 333/1018/255 337/1019/255
f 335/1017/255 337/1019/255 339/1020/255
f 340/1021/256 338/1022/256 334/1023/256
f 340/1021/256 334/1023/256 336/1024/256
usemtl inserter_base2
f 344/1025/257 342/1026/257 341/1027/257
f 344/1025/257 341/1027/257 343/1028/257
f 347/1029/258 345/1030/258 346/1031/258
f 347/1029/258 346/1031/258 348/1032/258
f 343/1033/259 341/1034/259 345/1035/259
f 343/1033/259 345/1035/259 347/1036/259
f 348/1037/260 346/1038/260 342/1039/260
f 348/1037/260 342/1039/260 344/1040/260
usemtl inserter_fluid_advanced
f 352/1041/261 350/1042/261 349/1043/261
f 352/1041/261 349/1043/261 351/1044/261
f 355/1045/262 353/1046/262 354/1047/262
f 355/1045/262 354/1047/262 356/1048/262
f 351/1049/263 349/1050/263 353/1051/263
f 351/1049/263 353/1051/263 355/1052/263
f 356/1053/264 354/1054/264 350/1055/264
f 356/1053/264 350/1055/264 352/1056/264
f 360/1057/265 358/1058/265 357/1059/265
f 360/1057/265 357/1059/265 359/1060/265
f 363/1061/266 361/1062/266 362/1063/266
f 363/1061/266 362/1063/266 364/1064/266
f 359/1065/267 357/1066/267 361/1067/267
f 359/1065/267 361/1067/267 363/1068/267
f 364/1069/268 362/1070/268 358/1071/268
f 364/1069/268 358/1071/268 360/1072/268
f 350/1073/269 366/1074/269 365/1075/269
f 350/1073/269 365/1075/269 349/1076/269
f 353/1077/270 367/1078/270 368/1079/270
f 353/1077/270 368/1079/270 354/1080/270
f 365/1081/271 366/1082/271 368/1083/271
f 365/1081/271 368/1083/271 367/1084/271
f 349/1085/272 365/1086/272 367/1087/272
f 349/1085/272 367/1087/272 353/1088/272
f 354/1089/273 368/1090/273 366/1091/273
f 354/1089/273 366/1091/273 350/1092/273
f 358/1093/274 370/1094/274 369/1095/274
f 358/1093/274 369/1095/274 357/1096/274
f 361/1097/275 371/1098/275 372/1099/275
f 361/1097/275 372/1099/275 362/1100/275
f 369/1101/276 370/1102/276 372/1103/276
f 369/1101/276 372/1103/276 371/1104/276
f 357/1105/277 369/1106/277 371/1107/277
f 357/1105/277 371/1107/277 361/1108/277
f 362/1109/278 372/1110/278 370/1111/278
f 362/1109/278 370/1111/278 358/1112/278
o base
v 1 0.1875 0
v 0 0.1875 0
v 0 0.1875 1
v 1 0.1875 1
v 1 0 1
v 0 0 1
v 0 0 0
v 1 0 0
v 0.75 0.25 0.25
v 0.25 0.25 0.25
v 0.25 0.25 0.75
v 0.75 0.25 0.75
v 0.75 0.1875 0.75
v 0.25 0.1875 0.75
v 0.25 0.1875 0.25
v 0.75 0.1875 0.25
v 0.75 0.3125 0.75
v 0.75 0.3125 1
v 0.75 0.1875 1
v 1 0.3125 0.75
v 1 0.3125 1
v 1 0.1875 0.75
v 0.78125 0.375 0.78125
v 0.78125 0.375 0.96875
v 0.78125 0.3125 0.78125
v 0.78125 0.3125 0.96875
v 0.96875 0.375 0.78125
v 0.96875 0.375 0.96875
v 0.96875 0.3125 0.78125
v 0.96875 0.3125 0.96875
v 0.75 0.4375 0.75
v 0.75 0.4375 1
v 0.75 0.375 0.75
v 0.75 0.375 1
v 1 0.4375 0.75
v 1 0.4375 1
v 1 0.375 0.75
v 1 0.375 1
v 0.78125 0.5 0.78125
v 0.78125 0.5 0.96875
v 0.78125 0.4375 0.78125
v 0.78125 0.4375 0.96875
v 0.96875 0.5 0.78125
v 0.96875 0.5 0.96875
v 0.96875 0.4375 0.78125
v 0.96875 0.4375 0.96875
v 0 0.4375 0
v 0 0.4375 0.25
v 0 0.375 0
v 0 0.375 0.25
v 0.25 0.4375 0
v 0.25 0.4375 0.25
v 0.25 0.375 0
v 0.25 0.375 0.25
v 0.03125 0.5 0.03125
v 0.03125 0.5 0.21875
v 0.03125 0.3125 0.03125
v 0.03125 0.3125 0.21875
v 0.21875 0.5 0.03125
v 0.21875 0.5 0.21875
v 0.21875 0.3125 0.03125
v 0.21875 0.3125 0.21875
v 0 0.3125 0
v 0 0.3125 0.25
v 0 0.1875 0.25
v 0.25 0.3125 0
v 0.25 0.3125 0.25
v 0.25 0.1875 0
vt 0.8125 1
vt 0.8125 0
vt 1 0
vt 1 1
vt 0.8125 1
vt 0.8125 0
vt 1 0
vt 1 1
vt 0.8125 1
vt 0.8125 0
vt 1 0
vt 1 1
vt 0.8125 1
vt 0.8125 0
vt 1 0
vt 1 1
vt 0.5 0.0625
vt 0 0.0625
vt 0 0
vt 0.5 0
vt 0.5 0.5
vt 0 0.5
vt 0 0.4375
vt 0.5 0.4375
vt 0.4375 0.5
vt 0.4375 0
vt 0.5 0
vt 0.5 0.5
vt 0 0
vt 0 0.5
vt 0.0625 0.5
vt 0.0625 0
vt 0 0
vt 0.5 0
vt 0.5 0.5
vt 0 0.5
vt 0 0
vt 1 0
vt 1 1
vt 0 1
vt 0 0
vt 1 0
vt 1 1
vt 0 1
vt 0.3125 0.75
vt 0.1875 0.75
vt 0.1875 0.5
vt 0.3125 0.5
vt 0.3125 0.75
vt 0.1875 0.75
vt 0.1875 0.5
vt 0.3125 0.5
vt 0.25 0.5
vt 0.25 0.75
vt 0 0.75
vt 0 0.5
vt 0.3125 0.75
vt 0.1875 0.75
vt 0.1875 0.5
vt 0.3125 0.5
vt 0.3125 0.75
vt 0.1875 0.75
vt 0.1875 0.5
vt 0.3125 0.5
vt 0.5625 0.75
vt 0.5625 0.8125
vt 0.375 0.8125
vt 0.375 0.75
vt 0.375 0.75
vt 0.375 0.8125
vt 0.1875 0.8125
vt 0.1875 0.75
vt 0.1875 0.75
vt 0.1875 0.8125
vt 0 0.8125
vt 0 0.75
vt 0.75 0.75
vt 0.75 0.8125
vt 0.5625 0.8125
vt 0.5625 0.75
vt 0.25 0.75
vt 0.1875 0.75
vt 0.1875 0.5
vt 0.25 0.5
vt 0.0625 0.75
vt 0 0.75
vt 0 0.5
vt 0.0625 0.5
vt 0.25 0.25
vt 0.25 0.5
vt 0 0.5
vt 0 0.25
vt 0.25 0.5
vt 0.25 0.75
vt 0 0.75
vt 0 0.5
vt 0.25 0.5
vt 0.25 0.5625
vt 0 0.5625
vt 0 0.5
vt 0.25 0.6875
vt 0.25 0.75
vt 0 0.75
vt 0 0.6875
vt 0.5625 0.75
vt 0.5625 0.8125
vt 0.375 0.8125
vt 0.375 0.75
vt 0.375 0.75
vt 0.375 0.8125
vt 0.1875 0.8125
vt 0.1875 0.75
vt 0.375 0.8125
vt 0.375 1
vt 0.1875 1
vt 0.1875 0.8125
vt 0.1875 0.75
vt 0.1875 0.8125
vt 0 0.8125
vt 0 0.75
vt 0.75 0.75
vt 0.75 0.8125
vt 0.5625 0.8125
vt 0.5625 0.75
vt 0.25 0.9375
vt 0.25 1
vt 0 1
vt 0 0.9375
vt 0.25 0.9375
vt 0.25 1
vt 0 1
vt 0 0.9375
vt 0.375 0.1875
vt 0.375 0.4375
vt 0.125 0.4375
vt 0.125 0.1875
vt 0.375 0.1875
vt 0.375 0.4375
vt 0.125 0.4375
vt 0.125 0.1875
vt 0.375 0.375
vt 0.375 0.4375
vt 0.125 0.4375
vt 0.125 0.375
vt 0.25 0.9375
vt 0.25 1
vt 0 1
vt 0 0.9375
vt 0.75 0.125
vt 0.75 0.3125
vt 0.5625 0.3125
vt 0.5625 0.125
vt 0.75 0.125
vt 0.75 0.3125
vt 0.5625 0.3125
vt 0.5625 0.125
vt 0.875 0.5625
vt 0.875 0.75
vt 0.6875 0.75
vt 0.6875 0.5625
vt 0.75 0.125
vt 0.75 0.3125
vt 0.5625 0.3125
vt 0.5625 0.125
vt 0.5625 0.125
vt 0.5625 0.3125
vt 0.75 0.3125
vt 0.75 0.125
vt 0.5 0.875
vt 0.375 0.875
vt 0.375 0.625
vt 0.5 0.625
vt 0 0.875
vt 0.125 0.875
vt 0.125 0.625
vt 0 0.625
vt 0.375 0.1875
vt 0.375 0.4375
vt 0.125 0.4375
vt 0.125 0.1875
vt 0.375 0.5
vt 0.375 0.625
vt 0.125 0.625
vt 0.125 0.5
vt 0.125 1
vt 0.125 0.875
vt 0.375 0.875
vt 0.375 1
vn 0 0 -1
vn 0 0 1
vn -1 0 0
vn 1 0 0
vn 0 0 -1
vn 0 0 1
vn -1 0 0
vn 1 0 0
vn 0 1 0
vn 0 1 0
vn 0 -1 0
vn -1 0 0
vn 1 0 0
vn 0 1 0
vn 0 0 -1
vn 0 0 1
vn -1 0 0
vn 1 0 0
vn 0 0 -1
vn 0 0 1
vn -1 0 0
vn 1 0 0
vn 0 1 0
vn 0 -1 0
vn 0 0 -1
vn 0 0 1
vn -1 0 0
vn 1 0 0
vn 0 1 0
vn 0 0 -1
vn 0 0 1
vn -1 0 0
vn 1 0 0
vn 0 1 0
vn 0 -1 0
vn 0 0 -1
vn 0 0 1
vn -1 0 0
vn 1 0 0
vn 0 1 0
vn 0 0 -1
vn 0 0 1
vn -1 0 0
vn 1 0 0
vn 0 1 0
vn 0 0 -1
vn 0 0 1
usemtl inserter_base2
f 374/1113/279 373/1114/279 380/1115/279
f 374/1113/279 380/1115/279 379/1116/279
f 376/1117/280 375/1118/280 378/1119/280
f 376/1117/280 378/1119/280 377/1120/280
f 375/1121/281 374/1122/281 379/1123/281
f 375/1121/281 379/1123/281 378/1124/281
f 373/1125/282 376/1126/282 377/1127/282
f 373/1125/282 377/1127/282 380/1128/282
f 382/1129/283 381/1130/283 388/1131/283
f 382/1129/283 388/1131/283 387/1132/283
f 384/1133/284 383/1134/284 386/1135/284
f 384/1133/284 386/1135/284 385/1136/284
f 383/1137/285 382/1138/285 387/1139/285
f 383/1137/285 387/1139/285 386/1140/285
f 381/1141/286 384/1142/286 385/1143/286
f 381/1141/286 385/1143/286 388/1144/286
f 381/1145/287 382/1146/287 383/1147/287
f 381/1145/287 383/1147/287 384/1148/287
usemtl inserter_base1
f 373/1149/288 374/1150/288 375/1151/288
f 373/1149/288 375/1151/288 376/1152/288
f 377/1153/289 378/1154/289 379/1155/289
f 377/1153/289 379/1155/289 380/1156/289
usemtl connector_connector_lv
f 391/1157/290 390/1158/290 389/1159/290
f 391/1157/290 389/1159/290 385/1160/290
f 394/1161/291 392/1162/291 393/1163/291
f 394/1161/291 393/1163/291 376/1164/291
f 389/1165/292 390/1166/292 393/1167/292
f 389/1165/292 393/1167/292 392/1168/292
f 385/1169/293 389/1170/293 392/1171/293
f 385/1169/293 392/1171/293 394/1172/293
f 376/1173/294 393/1174/294 390/1175/294
f 376/1173/294 390/1175/294 391/1176/294
f 398/1177/295 396/1178/295 395/1179/295
f 398/1177/295 395/1179/295 397/1180/295
f 401/1181/296 399/1182/296 400/1183/296
f 401/1181/296 400/1183/296 402/1184/296
f 397/1185/297 395/1186/297 399/1187/297
f 397/1185/297 399/1187/297 401/1188/297
f 402/1189/298 400/1190/298 396/1191/298
f 402/1189/298 396/1191/298 398/1192/298
f 406/1193/299 404/1194/299 403/1195/299
f 406/1193/299 403/1195/299 405/1196/299
f 409/1197/300 407/1198/300 408/1199/300
f 409/1197/300 408/1199/300 410/1200/300
f 403/1201/301 404/1202/301 408/1203/301
f 403/1201/301 408/1203/301 407/1204/301
f 406/1205/302 405/1206/302 409/1207/302
f 406/1205/302 409/1207/302 410/1208/302
f 405/1209/303 403/1210/303 407/1211/303
f 405/1209/303 407/1211/303 409/1212/303
f 410/1213/304 408/1214/304 404/1215/304
f 410/1213/304 404/1215/304 406/1216/304
f 414/1217/305 412/1218/305 411/1219/305
f 414/1217/305 411/1219/305 413/1220/305
f 417/1221/306 415/1222/306 416/1223/306
f 417/1221/306 416/1223/306 418/1224/306
f 411/1225/307 412/1226/307 416/1227/307
f 411/1225/307 416/1227/307 415/1228/307
f 413/1229/308 411/1230/308 415/1231/308
f 413/1229/308 415/1231/308 417/1232/308
f 418/1233/309 416/1234/309 412/1235/309
f 418/1233/309 412/1235/309 414/1236/309
usemtl data_connector
f 422/1237/310 420/1238/310 419/1239/310
f 422/1237/310 419/1239/310 421/1240/310
f 425/1241/311 423/1242/311 424/1243/311
f 425/1241/311 424/1243/311 426/1244/311
f 419/1245/312 420/1246/312 424/1247/312
f 419/1245/312 424/1247/312 423/1248/312
f 422/1249/313 421/1250/313 425/1251/313
f 422/1249/313 425/1251/313 426/1252/313
f 421/1253/314 419/1254/314 423/1255/314
f 421/1253/314 423/1255/314 425/1256/314
f 426/1257/315 424/1258/315 420/1259/315
f 426/1257/315 420/1259/315 422/1260/315
f 430/1261/316 428/1262/316 427/1263/316
f 430/1261/316 427/1263/316 429/1264/316
f 433/1265/317 431/1266/317 432/1267/317
f 433/1265/317 432/1267/317 434/1268/317
f 427/1269/318 428/1270/318 432/1271/318
f 427/1269/318 432/1271/318 431/1272/318
f 429/1273/319 427/1274/319 431/1275/319
f 429/1273/319 431/1275/319 433/1276/319
f 434/1277/320 432/1278/320 428/1279/320
f 434/1277/320 428/1279/320 430/1280/320
f 437/1281/321 436/1282/321 435/1283/321
f 437/1281/321 435/1283/321 374/1284/321
f 440/1285/322 438/1286/322 439/1287/322
f 440/1285/322 439/1287/322 387/1288/322
f 435/1289/323 436/1290/323 439/1291/323
f 435/1289/323 439/1291/323 438/1292/323
f 374/1293/324 435/1294/324 438/1295/324
f 374/1293/324 438/1295/324 440/1296/324
f 387/1297/325 439/1298/325 436/1299/325
f 387/1297/325 436/1299/325 437/1300/325
o output
v 0.75 0.25 0.75
v 0.75 0.25 1
v 0.25 0.25 1
v 0.25 0.25 0.75
v 0.25 0.1875 0.75
v 0.25 0.1875 1
v 0.75 0.1875 1
v 0.75 0.1875 0.75
vt 0.25 1
vt 0.25 0.5
vt 0.5 0.5
vt 0.5 1
vt 0.5 0.9375
vt 0.5 1
vt 0.25 1
vt 0.25 0.9375
vt 0.5 0.5
vt 0.5 0.5625
vt 0.25 0.5625
vt 0.25 0.5
vt 0.4375 0.5
vt 0.5 0.5
vt 0.5 1
vt 0.4375 1
vn 0 1 0
vn 1 0 0
vn -1 0 0
vn 0 0 1
usemtl inserter_base2
f 443/1301/326 442/1302/326 441/1303/326
f 443/1301/326 441/1303/326 444/1304/326
f 448/1305/327 441/1306/327 442/1307/327
f 448/1305/327 442/1307/327 447/1308/327
f 446/1309/328 443/1310/328 444/1311/328
f 446/1309/328 444/1311/328 445/1312/328
f 447/1313/329 442/1314/329 443/1315/329
f 447/1313/329 443/1315/329 446/1316/329
o input
v 0.25 0.25 0.75
v 0 0.25 0.7500000000000001
v -1.1102230246251565e-16 0.25 0.2500000000000001
v 0.24999999999999992 0.25 0.25000000000000006
v 0.24999999999999992 0.1875 0.25000000000000006
v -1.1102230246251565e-16 0.1875 0.2500000000000001
v 0 0.1875 0.7500000000000001
v 0.25 0.1875 0.75
vt 0.25 1
vt 0.25 0.5
vt 0 0.5
vt 0 1
vt 0 0.9375
vt 0 1
vt 0.25 1
vt 0.25 0.9375
vt 0 0.5
vt 0 0.5625
vt 0.25 0.5625
vt 0.25 0.5
vt 0.25 0.5
vt 0.1875 0.5
vt 0.1875 1
vt 0.25 1
vn 0 1 0
vn 2.220446049250313e-16 0 1
vn -2.220446049250313e-16 0 -1
vn -1 0 2.220446049250313e-16
usemtl inserter_base2
f 451/1317/330 450/1318/330 449/1319/330
f 451/1317/330 449/1319/330 452/1320/330
f 456/1321/331 449/1322/331 450/1323/331
f 456/1321/331 450/1323/331 455/1324/331
f 454/1325/332 451/1326/332 452/1327/332
f 454/1325/332 452/1327/332 453/1328/332
f 455/1329/333 450/1330/333 451/1331/333
f 455/1329/333 451/1331/333 454/1332/333