# Made by Pabilo8 with Blockbench
# Exported with IIToolkit Plugin
mtllib fluid_inserter.mtl


o upper
v 1.2658972873490872 0.4833940245115891 0.4062500000000002
v 1.4194882956532733 0.5909396063274102 0.4062500000000002
v 1.2658972873490872 0.4833940245115891 0.5937500000000002
v 1.4194882956532733 0.5909396063274102 0.5937500000000002
v 1.1378516537574472 0.7752275656238393 0.5312500000000002
v 1.1378516537574472 0.7752275656238393 0.46875000000000017
v 1.1890486565255092 0.8110760928957796 0.4687500000000002
v 1.1890486565255092 0.8110760928957796 0.5312500000000002
v 0.8664119110780457 1.2718491178083375 0.5312500000000001
v 0.8664119110780457 1.2718491178083375 0.4687500000000001
v 0.8152149083099838 1.236000590536397 0.4687500000000001
v 0.8152149083099838 1.236000590536397 0.5312500000000001
v 0.8075406705619229 1.192477825516396 0.4375000000000001
v 0.9099346760980469 1.2641748800602768 0.4375000000000001
v 0.7358436160180422 1.2948718310525198 0.4375000000000001
v 0.8382376215541661 1.3665688855964007 0.4375000000000001
v 0.8075406705619229 1.192477825516396 0.5625000000000001
v 0.9099346760980469 1.2641748800602768 0.5625000000000001
v 0.7358436160180422 1.2948718310525198 0.5625000000000001
v 0.8382376215541661 1.3665688855964007 0.5625000000000001
v 1.1583517055332662 0.636985032815775 0.4062500000000002
v 1.311942713837452 0.7445306146315961 0.4062500000000002
v 1.1583517055332662 0.636985032815775 0.5937500000000002
v 1.311942713837452 0.7445306146315961 0.5937500000000002
v 1.183950206917297 0.6549092964517451 0.43750000000000017
v 1.286344212453421 0.726606350995626 0.4375000000000002
v 1.1122531523734163 0.7573033019878691 0.43750000000000017
v 1.2146471579095404 0.8290003565317499 0.4375000000000002
v 1.183950206917297 0.6549092964517451 0.5625000000000002
v 1.286344212453421 0.726606350995626 0.5625000000000002
v 1.1122531523734163 0.7573033019878691 0.5625000000000002
v 1.2146471579095404 0.8290003565317499 0.5625000000000002
v 1.222321395657601 0.872523121551751 0.5312500000000002
v 1.222321395657601 0.872523121551751 0.7187500000000002
v 1.0072302320259587 1.179705138160123 0.5312500000000001
v 1.0072302320259587 1.179705138160123 0.7187500000000002
v 1.068730387353415 0.7649775397359299 0.5312500000000002
v 1.068730387353415 0.7649775397359299 0.7187500000000002
v 0.8536392237217727 1.0721595563443018 0.5312500000000001
v 0.8536392237217727 1.0721595563443018 0.7187500000000001
v 1.3759655306332719 0.598613844075471 0.5937500000000002
v 1.3759655306332719 0.598613844075471 0.6250000000000002
v 1.3401170033613314 0.649810846843533 0.5937500000000002
v 1.3401170033613314 0.649810846843533 0.6562500000000002
v 1.273571525097148 0.5269167895315902 0.5937500000000002
v 1.273571525097148 0.5269167895315902 0.6250000000000002
v 1.2377229978252076 0.5781137922996521 0.5937500000000002
v 1.2377229978252076 0.5781137922996521 0.6562500000000002
v 1.1967228942735701 0.8545988579157808 0.5937500000000002
v 1.19672289427357 0.8545988579157808 0.6562500000000002
v 1.094328888737446 0.7829018033719001 0.5937500000000002
v 1.094328888737446 0.7829018033719001 0.6562500000000002
v 1.1864728683856607 0.923720124319813 0.4062500000000002
v 1.1864728683856607 0.923720124319813 0.5312500000000002
v 1.1506243411137203 0.974917127087875 0.40625000000000017
v 1.1506243411137203 0.974917127087875 0.5312500000000002
v 1.0328818600814746 0.8161745425039919 0.40625000000000017
v 1.0328818600814746 0.8161745425039919 0.5312500000000001
v 0.9970333328095343 0.8673715452720538 0.40625000000000017
v 0.9970333328095343 0.8673715452720538 0.5312500000000001
v 1.1147758138417798 1.026114129855937 0.40625000000000017
v 1.1147758138417798 1.026114129855937 0.5312500000000002
v 1.0789272865698396 1.077311132623999 0.40625000000000017
v 1.0789272865698394 1.077311132623999 0.5312500000000002
v 0.961184805537594 0.9185685480401158 0.4062500000000001
v 0.9611848055375939 0.9185685480401158 0.5312500000000001
v 0.9253362782656536 0.9697655508081777 0.4062500000000001
v 0.9253362782656536 0.9697655508081777 0.5312500000000001
v 1.107154702765204 0.6011365055438349 0.09374999999999994
v 1.363139716605514 0.7803791419035369 0.09375000000000006
v 0.7845179573177404 1.0619095304563928 0.09374999999999983
v 1.0405029711580502 1.2411521668160947 0.09374999999999994
v 1.1071547027652038 0.6011365055438349 0.40624999999999994
v 1.3631397166055137 0.7803791419035369 0.40625
v 0.7845179573177403 1.0619095304563928 0.4062499999999999
v 1.0405029711580502 1.2411521668160947 0.40624999999999994
v 1.2914957887331182 0.5013182881475592 0.3125000000000002
v 1.393889794269242 0.57301534269144 0.3125000000000002
v 1.2197987341892376 0.6037122936836831 0.3125000000000002
v 1.3221927397253614 0.6754093482275639 0.3125000000000002
v 1.2914957887331182 0.5013182881475592 0.4062500000000002
v 1.393889794269242 0.57301534269144 0.4062500000000002
v 1.2197987341892373 0.6037122936836831 0.4062500000000002
v 1.3221927397253614 0.6754093482275639 0.4062500000000002
v 1.2556472614611778 0.5525152909156211 0.18750000000000022
v 1.3580412669973019 0.624212345459502 0.18750000000000022
v 1.2197987341892376 0.6037122936836831 0.18750000000000022
v 1.3221927397253614 0.6754093482275639 0.18750000000000022
v 1.2914957887331182 0.5013182881475592 0.3125000000000002
v 1.393889794269242 0.57301534269144 0.3125000000000002
v 1.2197987341892376 0.6037122936836831 0.3125000000000002
v 1.3221927397253614 0.6754093482275639 0.3125000000000002
v 1.2197987341892376 0.6037122936836831 0.18750000000000022
v 1.3221927397253614 0.6754093482275639 0.18750000000000022
v 1.1839502069172971 0.6549092964517451 0.18750000000000022
v 1.286344212453421 0.726606350995626 0.18750000000000022
v 1.2197987341892376 0.6037122936836831 0.3125000000000002
v 1.3221927397253614 0.6754093482275639 0.3125000000000002
v 1.1839502069172971 0.6549092964517451 0.3125000000000002
v 1.286344212453421 0.726606350995626 0.3125000000000002
v 1.4707384250928204 0.24533327430724938 0.4375000000000002
v 1.5731324306289443 0.31703032885113014 0.4375000000000003
v 1.3273443160050586 0.45012128537949714 0.4375000000000002
v 1.4297383215411825 0.521818339923378 0.4375000000000002
v 1.4707384250928204 0.24533327430724938 0.5625000000000002
v 1.5731324306289443 0.31703032885113014 0.5625000000000002
v 1.3273443160050586 0.45012128537949714 0.5625000000000002
v 1.4297383215411825 0.521818339923378 0.5625000000000002
v 1.3273443160050586 0.45012128537949714 0.4375000000000002
v 1.4297383215411825 0.521818339923378 0.4375000000000002
v 1.2914957887331182 0.5013182881475592 0.4375000000000002
v 1.393889794269242 0.57301534269144 0.4375000000000002
v 1.3273443160050586 0.45012128537949714 0.5625000000000002
v 1.4297383215411825 0.521818339923378 0.5625000000000002
v 1.2914957887331182 0.5013182881475592 0.5625000000000002
v 1.393889794269242 0.57301534269144 0.5625000000000002
v 1.5859582446567022 0.13526503102306453 0.4687500000000003
v 1.6371552474247641 0.17111355829500496 0.4687500000000003
v 1.478412662840881 0.28885603932725046 0.4687500000000003
v 1.5296096656089428 0.3247045665991909 0.4687500000000003
v 1.5859582446567022 0.13526503102306453 0.5312500000000002
v 1.6371552474247641 0.17111355829500496 0.5312500000000003
v 1.478412662840881 0.28885603932725046 0.5312500000000002
v 1.5296096656089428 0.3247045665991909 0.5312500000000002
v 1.4707384250928204 0.24533327430724938 0.4375000000000002
v 1.5731324306289443 0.31703032885113014 0.4375000000000003
v 1.4707384250928204 0.24533327430724938 0.5625000000000002
v 1.5731324306289443 0.31703032885113014 0.5625000000000002
vt 1 0.375
vt 0.9375 0.375
vt 0.9375 0.4375
vt 1 0.4375
vt 0.4375 0.5
vt 0.5 0.5
vt 0.5 0
vt 0.4375 0
vt 0.4375 0.5
vt 0.5 0.5
vt 0.5 0.1875
vt 0.4375 0.1875
vt 0.4375 0.5
vt 0.5 0.5
vt 0.5 0
vt 0.4375 0
vt 0.4375 0.5
vt 0.5 0.5
vt 0.5 0
vt 0.4375 0
vt 0.625 1
vt 0.625 0.875
vt 0.5 0.875
vt 0.5 1
vt 0.625 1
vt 0.625 0.875
vt 0.5 0.875
vt 0.5 1
vt 0.625 0.875
vt 0.625 1
vt 0.5 1
vt 0.5 0.875
vt 0.5 1
vt 0.5 0.875
vt 0.625 0.875
vt 0.625 1
vt 0.8125 0.75
vt 0.8125 0.5625
vt 0.625 0.5625
vt 0.625 0.75
vt 0.8125 0.75
vt 0.8125 0.5625
vt 0.625 0.5625
vt 0.625 0.75
vt 1 0.75
vt 1 0.5625
vt 0.8125 0.5625
vt 0.8125 0.75
vt 1 0.75
vt 1 0.5625
vt 0.8125 0.5625
vt 0.8125 0.75
vt 0.8125 0.75
vt 0.8125 0.5625
vt 0.625 0.5625
vt 0.625 0.75
vt 0.8125 0.75
vt 0.8125 0.5625
vt 0.625 0.5625
vt 0.625 0.75
vt 0.625 0.625
vt 0.625 0.75
vt 0.5 0.75
vt 0.5 0.625
vt 0.625 0.625
vt 0.625 0.75
vt 0.5 0.75
vt 0.5 0.625
vt 0.625 0.625
vt 0.625 0.75
vt 0.5 0.75
vt 0.5 0.625
vt 0.5 0.625
vt 0.5 0.75
vt 0.625 0.75
vt 0.625 0.625
vt 0.5 0.625
vt 0.5 0.75
vt 0.625 0.75
vt 0.625 0.625
vt 0.5 0.5625
vt 0.125 0.5625
vt 0.125 0.75
vt 0.5 0.75
vt 0.5 0.5625
vt 0.125 0.5625
vt 0.125 0.75
vt 0.5 0.75
vt 1 0.9375
vt 1 0.75
vt 0.8125 0.75
vt 0.8125 0.9375
vt 1 0.75
vt 1 0.9375
vt 0.8125 0.9375
vt 0.8125 0.75
vt 0.5 0.75
vt 0.125 0.75
vt 0.125 0.5625
vt 0.5 0.5625
vt 0.5 0.75
vt 0.125 0.75
vt 0.125 0.5625
vt 0.5 0.5625
vt 0.625 0.5625
vt 0.625 0.625
vt 0.5625 0.625
vt 0.5625 0.5625
vt 0.6875 0.5625
vt 0.6875 0.625
vt 0.625 0.625
vt 0.625 0.5625
vt 0.5625 0.5625
vt 0.5625 0.625
vt 0.6875 0.625
vt 0.6875 0.5625
vt 0.6875 0.5625
vt 0.6875 0.625
vt 0.5625 0.625
vt 0.5625 0.5625
vt 0.6875 0.0625
vt 0.6875 0.3125
vt 0.625 0.3125
vt 0.625 0.0625
vt 0.625 0.0625
vt 0.625 0.3125
vt 0.5625 0.3125
vt 0.5625 0.0625
vt 0.5625 0.0625
vt 0.5625 0.3125
vt 0.6875 0.3125
vt 0.6875 0.0625
vt 0.6875 0.0625
vt 0.6875 0.3125
vt 0.5625 0.3125
vt 0.5625 0.0625
vt 0.6875 1
vt 0.625 1
vt 0.625 0.875
vt 0.6875 0.875
vt 0.5625 0.875
vt 0.5 0.875
vt 0.5 1
vt 0.5625 1
vt 0.6875 0.875
vt 0.6875 1
vt 0.5 1
vt 0.5 0.875
vt 0.5 0.875
vt 0.5 1
vt 0.6875 1
vt 0.6875 0.875
vt 0.6875 1
vt 0.625 1
vt 0.625 0.875
vt 0.6875 0.875
vt 0.5625 0.875
vt 0.5 0.875
vt 0.5 1
vt 0.5625 1
vt 0.6875 0.875
vt 0.6875 1
vt 0.5 1
vt 0.5 0.875
vt 0.5 0.875
vt 0.5 1
vt 0.6875 1
vt 0.6875 0.875
vt 0.5625 0
vt 0 0
vt 0 0.3125
vt 0.5625 0.3125
vt 0.5625 0
vt 0 0
vt 0 0.3125
vt 0.5625 0.3125
vt 0.8125 0
vt 0.8125 0.3125
vt 0.5 0.3125
vt 0.5 0
vt 0.5 0
vt 0.5 0.3125
vt 0.8125 0.3125
vt 0.8125 0
vt 0.5625 0.3125
vt 0 0.3125
vt 0 0
vt 0.5625 0
vt 0.5625 0.3125
vt 0 0.3125
vt 0 0
vt 0.5625 0
vt 0.25 0.4375
vt 0.25 0.5625
vt 0.125 0.5625
vt 0.125 0.4375
vt 0.25 0.4375
vt 0.25 0.5625
vt 0.125 0.5625
vt 0.125 0.4375
vt 0.25 0.5625
vt 0.25 0.4375
vt 0.125 0.4375
vt 0.125 0.5625
vt 0.25 0.4375
vt 0.25 0.5625
vt 0.125 0.5625
vt 0.125 0.4375
vt 0 0.3125
vt 0 0.375
vt 0.125 0.375
vt 0.125 0.3125
vt 0.125 0.4375
vt 6.938893903907228e-18 0.4375
vt 0 0.3125
vt 0.125 0.3125
vt 0.25 0.4375
vt 0.25 0.5625
vt 0.375 0.5625
vt 0.375 0.4375
vt 0.125 0.4375
vt 0.125 0.5625
vt 0 0.5625
vt 0 0.4375
vt 0 0.375
vt 0 0.4375
vt 0.125 0.4375
vt 0.125 0.375
vt 0 0.375
vt 0 0.4375
vt 0.125 0.4375
vt 0.125 0.375
vt 0.125 0.375
vt 0.125 0.4375
vt 0 0.4375
vt 0 0.375
vt 0.125 0.375
vt 0.125 0.4375
vt 0 0.4375
vt 0 0.375
vt 0.9375 0.1875
vt 0.9375 0.4375
vt 0.8125 0.4375
vt 0.8125 0.1875
vt 0.9375 0.1875
vt 0.9375 0.4375
vt 0.8125 0.4375
vt 0.8125 0.1875
vt 0.9375 0.1875
vt 0.9375 0.4375
vt 0.8125 0.4375
vt 0.8125 0.1875
vt 0.9375 0.1875
vt 0.9375 0.4375
vt 0.8125 0.4375
vt 0.8125 0.1875
vt 0.9375 0.4375
vt 0.9375 0.5
vt 0.8125 0.5
vt 0.8125 0.4375
vt 0.9375 0.4375
vt 0.9375 0.5
vt 0.8125 0.5
vt 0.8125 0.4375
vt 0.9375 0.4375
vt 0.9375 0.5625
vt 0.8125 0.5625
vt 0.8125 0.4375
vt 0.9375 0.4375
vt 0.9375 0.5625
vt 0.8125 0.5625
vt 0.8125 0.4375
vt 0.9375 0.5625
vt 0.875 0.5625
vt 0.875 0.4375
vt 0.9375 0.4375
vt 0.875 0.4375
vt 0.8125 0.4375
vt 0.8125 0.5625
vt 0.875 0.5625
vt 1 0.1875
vt 1 0.375
vt 0.9375 0.375
vt 0.9375 0.1875
vt 1 0.1875
vt 1 0.375
vt 0.9375 0.375
vt 0.9375 0.1875
vt 1 0.3125
vt 1 0.375
vt 0.9375 0.375
vt 0.9375 0.3125
vt 1 0.1875
vt 1 0.25
vt 0.9375 0.25
vt 0.9375 0.1875
vt 1 0.1875
vt 1 0.375
vt 0.9375 0.375
vt 0.9375 0.1875
vt 1 0.1875
vt 1 0.375
vt 0.9375 0.375
vt 0.9375 0.1875
vt 0.9375 0.3125
vt 0.9375 0.4375
vt 0.8125 0.4375
vt 0.8125 0.3125
vn -0.5735764363510463 0.8191520442889917 -1.2735955320387544e-16
vn -0.8191520442889917 -0.5735764363510463 -1.818882920476809e-16
vn 0.8191520442889917 0.5735764363510463 1.818882920476809e-16
vn 2.220446049250313e-16 0 -1
vn -2.220446049250313e-16 0 1
vn 0.5735764363510463 -0.8191520442889917 1.2735955320387544e-16
vn -0.5735764363510463 0.8191520442889917 -1.2735955320387544e-16
vn -0.8191520442889917 -0.5735764363510463 -1.818882920476809e-16
vn 0.8191520442889917 0.5735764363510463 1.818882920476809e-16
vn 2.220446049250313e-16 0 -1
vn -2.220446049250313e-16 0 1
vn 0.5735764363510463 -0.8191520442889917 1.2735955320387544e-16
vn -0.5735764363510463 0.8191520442889917 -1.2735955320387544e-16
vn -0.8191520442889917 -0.5735764363510463 -1.818882920476809e-16
vn 0.8191520442889917 0.5735764363510463 1.818882920476809e-16
vn 2.220446049250313e-16 0 -1
vn -2.220446049250313e-16 0 1
vn -0.5735764363510463 0.8191520442889917 -1.2735955320387544e-16
vn -0.8191520442889917 -0.5735764363510463 -1.818882920476809e-16
vn 0.8191520442889917 0.5735764363510463 1.818882920476809e-16
vn 0.8191520442889917 0.5735764363510463 -1.1417118118569415e-16
vn -0.8191520442889917 -0.5735764363510463 -1.818882920476809e-16
vn 0.5735764363510463 -0.8191520442889917 1.2735955320387544e-16
vn -0.5735764363510463 0.8191520442889917 -1.2735955320387544e-16
vn 2.220446049250313e-16 0 -1
vn -2.220446049250313e-16 0 1
vn 0.8191520442889917 0.5735764363510463 1.818882920476809e-16
vn -0.8191520442889917 -0.5735764363510463 -1.818882920476809e-16
vn 0.5735764363510463 -0.8191520442889917 1.2735955320387544e-16
vn 0.25651118039460397 -0.36633593098762074 0.894427190999916
vn 0.8191520442889917 0.5735764363510463 1.818882920476809e-16
vn -0.8191520442889917 -0.5735764363510463 -1.818882920476809e-16
vn 2.220446049250313e-16 0 -1
vn -2.220446049250313e-16 0 1
vn 0.8191520442889917 0.5735764363510463 1.818882920476809e-16
vn -0.8191520442889917 -0.5735764363510463 -1.818882920476809e-16
vn 0.5735764363510463 -0.8191520442889917 1.2735955320387544e-16
vn -0.5735764363510463 0.8191520442889917 -1.2735955320387544e-16
vn 0.8191520442889917 0.5735764363510463 1.818882920476809e-16
vn -0.8191520442889917 -0.5735764363510463 -1.818882920476809e-16
vn 0.5735764363510463 -0.8191520442889917 1.2735955320387544e-16
vn -0.5735764363510463 0.8191520442889917 -1.2735955320387544e-16
vn 2.220446049250313e-16 0 -1
vn -2.220446049250313e-16 0 1
vn 0.5735764363510463 -0.8191520442889917 1.2735955320387544e-16
vn -0.5735764363510463 0.8191520442889917 -1.2735955320387544e-16
vn -0.8191520442889917 -0.5735764363510463 -1.818882920476809e-16
vn 0.8191520442889917 0.5735764363510463 1.818882920476809e-16
vn 0.5735764363510463 -0.8191520442889917 1.2735955320387544e-16
vn -0.5735764363510463 0.8191520442889917 -1.2735955320387544e-16
vn -0.8191520442889917 -0.5735764363510463 -1.818882920476809e-16
vn 0.8191520442889917 0.5735764363510463 1.818882920476809e-16
vn 2.220446049250313e-16 0 -1
vn 0.5130223607892085 -0.7326718619752415 -0.4472135954999578
vn -0.8191520442889917 -0.5735764363510463 -1.818882920476809e-16
vn 0.8191520442889917 0.5735764363510463 1.818882920476809e-16
vn 2.220446049250313e-16 0 -1
vn -2.220446049250313e-16 0 1
vn -0.8191520442889917 -0.5735764363510463 -1.818882920476809e-16
vn 0.8191520442889917 0.5735764363510463 1.818882920476809e-16
vn 2.220446049250313e-16 0 -1
vn -2.220446049250313e-16 0 1
vn -0.8191520442889917 -0.5735764363510463 -1.818882920476809e-16
vn 0.8191520442889917 0.5735764363510463 1.818882920476809e-16
vn 2.220446049250313e-16 0 -1
vn -2.220446049250313e-16 0 1
vn 0.5735764363510463 -0.8191520442889917 1.2735955320387544e-16
vn -0.5735764363510463 0.8191520442889917 -1.2735955320387544e-16
vn -0.8191520442889917 -0.5735764363510463 -1.818882920476809e-16
vn 0.8191520442889917 0.5735764363510463 1.818882920476809e-16
vn 2.220446049250313e-16 0 -1
vn -2.220446049250313e-16 0 1
vn 0.5735764363510463 -0.8191520442889917 1.2735955320387544e-16
vn -0.5735764363510463 0.8191520442889917 -1.2735955320387544e-16
vn -0.8191520442889917 -0.5735764363510463 -1.818882920476809e-16
vn 0.8191520442889917 0.5735764363510463 1.818882920476809e-16
vn 0.5735764363510463 -0.8191520442889917 1.2735955320387544e-16
usemtl inserter_fluid
f 9/1/1 10/2/1 11/3/1
f 9/1/1 11/3/1 12/4/1
f 6/5/2 5/6/2 12/7/2
f 6/5/2 12/7/2 11/8/2
f 8/9/3 7/10/3 10/11/3
f 8/9/3 10/11/3 9/12/3
f 7/13/4 6/14/4 11/15/4
f 7/13/4 11/15/4 10/16/4
f 5/17/5 8/18/5 9/19/5
f 5/17/5 9/19/5 12/20/5
f 13/21/6 14/22/6 18/23/6
f 13/21/6 18/23/6 17/24/6
f 16/25/7 15/26/7 19/27/7
f 16/25/7 19/27/7 20/28/7
f 15/29/8 13/30/8 17/31/8
f 15/29/8 17/31/8 19/32/8
f 20/33/9 18/34/9 14/35/9
f 20/33/9 14/35/9 16/36/9
usemtl tool_blue
f 22/37/10 2/38/10 1/39/10
f 22/37/10 1/39/10 21/40/10
f 23/41/11 3/42/11 4/43/11
f 23/41/11 4/43/11 24/44/11
f 1/45/12 2/46/12 4/47/12
f 1/45/12 4/47/12 3/48/12
f 22/49/13 21/50/13 23/51/13
f 22/49/13 23/51/13 24/52/13
f 21/53/14 1/54/14 3/55/14
f 21/53/14 3/55/14 23/56/14
f 24/57/15 4/58/15 2/59/15
f 24/57/15 2/59/15 22/60/15
f 28/61/16 26/62/16 25/63/16
f 28/61/16 25/63/16 27/64/16
f 31/65/17 29/66/17 30/67/17
f 31/65/17 30/67/17 32/68/17
f 28/69/18 27/70/18 31/71/18
f 28/69/18 31/71/18 32/72/18
f 27/73/19 25/74/19 29/75/19
f 27/73/19 29/75/19 31/76/19
f 32/77/20 30/78/20 26/79/20
f 32/77/20 26/79/20 28/80/20
f 36/81/21 34/82/21 33/83/21
f 36/81/21 33/83/21 35/84/21
f 39/85/22 37/86/22 38/87/22
f 39/85/22 38/87/22 40/88/22
f 33/89/23 34/90/23 38/91/23
f 33/89/23 38/91/23 37/92/23
f 36/93/24 35/94/24 39/95/24
f 36/93/24 39/95/24 40/96/24
f 35/97/25 33/98/25 37/99/25
f 35/97/25 37/99/25 39/100/25
f 40/101/26 38/102/26 34/103/26
f 40/101/26 34/103/26 36/104/26
usemtl common_copper_cable
f 44/105/27 42/106/27 41/107/27
f 44/105/27 41/107/27 43/108/27
f 47/109/28 45/110/28 46/111/28
f 47/109/28 46/111/28 48/112/28
f 41/113/29 42/114/29 46/115/29
f 41/113/29 46/115/29 45/116/29
f 48/117/30 46/118/30 42/119/30
f 48/117/30 42/119/30 44/120/30
f 50/121/31 44/122/31 43/123/31
f 50/121/31 43/123/31 49/124/31
f 51/125/32 47/126/32 48/127/32
f 51/125/32 48/127/32 52/128/32
f 49/129/33 43/130/33 47/131/33
f 49/129/33 47/131/33 51/132/33
f 52/133/34 48/134/34 44/135/34
f 52/133/34 44/135/34 50/136/34
usemtl tool_blue
f 56/137/35 54/138/35 53/139/35
f 56/137/35 53/139/35 55/140/35
f 59/141/36 57/142/36 58/143/36
f 59/141/36 58/143/36 60/144/36
f 53/145/37 54/146/37 58/147/37
f 53/145/37 58/147/37 57/148/37
f 56/149/38 55/150/38 59/151/38
f 56/149/38 59/151/38 60/152/38
f 64/153/39 62/154/39 61/155/39
f 64/153/39 61/155/39 63/156/39
f 67/157/40 65/158/40 66/159/40
f 67/157/40 66/159/40 68/160/40
f 61/161/41 62/162/41 66/163/41
f 61/161/41 66/163/41 65/164/41
f 64/165/42 63/166/42 67/167/42
f 64/165/42 67/167/42 68/168/42
f 72/169/43 70/170/43 69/171/43
f 72/169/43 69/171/43 71/172/43
f 75/173/44 73/174/44 74/175/44
f 75/173/44 74/175/44 76/176/44
f 69/177/45 70/178/45 74/179/45
f 69/177/45 74/179/45 73/180/45
f 72/181/46 71/182/46 75/183/46
f 72/181/46 75/183/46 76/184/46
f 71/185/47 69/186/47 73/187/47
f 71/185/47 73/187/47 75/188/47
f 76/189/48 74/190/48 70/191/48
f 76/189/48 70/191/48 72/192/48
f 77/193/49 78/194/49 82/195/49
f 77/193/49 82/195/49 81/196/49
f 80/197/50 79/198/50 83/199/50
f 80/197/50 83/199/50 84/200/50
f 79/201/51 77/202/51 81/203/51
f 79/201/51 81/203/51 83/204/51
f 84/205/52 82/206/52 78/207/52
f 84/205/52 78/207/52 80/208/52
f 88/209/53 86/210/53 85/211/53
f 88/209/53 85/211/53 87/212/53
f 85/213/54 86/214/54 90/215/54
f 85/213/54 90/215/54 89/216/54
f 87/217/55 85/218/55 89/219/55
f 87/217/55 89/219/55 91/220/55
f 92/221/56 90/222/56 86/223/56
f 92/221/56 86/223/56 88/224/56
f 96/225/57 94/226/57 93/227/57
f 96/225/57 93/227/57 95/228/57
f 99/229/58 97/230/58 98/231/58
f 99/229/58 98/231/58 100/232/58
f 95/233/59 93/234/59 97/235/59
f 95/233/59 97/235/59 99/236/59
f 100/237/60 98/238/60 94/239/60
f 100/237/60 94/239/60 96/240/60
f 104/241/61 102/242/61 101/243/61
f 104/241/61 101/243/61 103/244/61
f 107/245/62 105/246/62 106/247/62
f 107/245/62 106/247/62 108/248/62
f 103/249/63 101/250/63 105/251/63
f 103/249/63 105/251/63 107/252/63
f 108/253/64 106/254/64 102/255/64
f 108/253/64 102/255/64 104/256/64
f 112/257/65 110/258/65 109/259/65
f 112/257/65 109/259/65 111/260/65
f 115/261/66 113/262/66 114/263/66
f 115/261/66 114/263/66 116/264/66
f 109/265/67 110/266/67 114/267/67
f 109/265/67 114/267/67 113/268/67
f 112/269/68 111/270/68 115/271/68
f 112/269/68 115/271/68 116/272/68
f 111/273/69 109/274/69 113/275/69
f 111/273/69 113/275/69 115/276/69
f 116/277/70 114/278/70 110/279/70
f 116/277/70 110/279/70 112/280/70
f 120/281/71 118/282/71 117/283/71
f 120/281/71 117/283/71 119/284/71
f 123/285/72 121/286/72 122/287/72
f 123/285/72 122/287/72 124/288/72
f 117/289/73 118/290/73 122/291/73
f 117/289/73 122/291/73 121/292/73
f 120/293/74 119/294/74 123/295/74
f 120/293/74 123/295/74 124/296/74
f 119/297/75 117/298/75 121/299/75
f 119/297/75 121/299/75 123/300/75
f 124/301/76 122/302/76 118/303/76
f 124/301/76 118/303/76 120/304/76
f 125/305/77 126/306/77 128/307/77
f 125/305/77 128/307/77 127/308/77
o lower
v 0.9453794240152047 1.3302604899451043 0.5406250000000001
v 0.7721520116693384 1.4020136335135587 0.540625
v 0.8736262804467505 1.157033077599238 0.5406250000000001
v 0.7003988681008841 1.228786221167692 0.540625
v 0.9453794240152047 1.3302604899451043 0.7281250000000001
v 0.7721520116693384 1.4020136335135587 0.728125
v 0.8736262804467504 1.157033077599238 0.7281250000000001
v 0.7003988681008841 1.228786221167692 0.728125
v 0.9453794240152047 1.3302604899451043 0.4593750000000001
v 0.7721520116693384 1.4020136335135587 0.45937500000000003
v 0.8736262804467505 1.157033077599238 0.4593750000000001
v 0.7003988681008841 1.228786221167692 0.45937500000000003
v 0.9453794240152048 1.3302604899451043 0.2718750000000001
v 0.7721520116693386 1.4020136335135587 0.27187500000000003
v 0.8736262804467505 1.157033077599238 0.2718750000000001
v 0.7003988681008843 1.228786221167692 0.271875
v 0.5816601853047736 0.5338247562591373 0.3125
v 0.4661752437408627 0.5816601853047736 0.3125
v 0.5338247562591374 0.41833981469522646 0.3125
v 0.4183398146952265 0.46617524374086267 0.3125
v 0.5816601853047735 0.5338247562591373 0.6875
v 0.46617524374086267 0.5816601853047736 0.6875
v 0.5338247562591373 0.41833981469522646 0.6875
v 0.4183398146952264 0.46617524374086267 0.6875
v 0.7342236243600215 1.1471260358629187 0.31250000000000006
v 0.6764811535780662 1.1710437503857367 0.3125
v 0.5428819081774766 0.6851862696072752 0.3125
v 0.48513943739552123 0.7091039841300935 0.3125
v 0.7342236243600214 1.1471260358629187 0.6875
v 0.6764811535780659 1.1710437503857367 0.6875
v 0.5428819081774766 0.6851862696072752 0.6875
v 0.4851394373955212 0.7091039841300935 0.6875
v 0.6645222963166568 1.1421725149947588 0.34375
v 0.6356510609256791 1.1541313722561677 0.34375
v 0.5927691527482027 0.9689451026488929 0.34375
v 0.5638979173572249 0.9809039599103019 0.34375
v 0.6645222963166568 1.1421725149947588 0.65625
v 0.635651060925679 1.1541313722561677 0.65625
v 0.5927691527482026 0.9689451026488929 0.65625
v 0.5638979173572249 0.9809039599103019 0.65625
v 0.5808102954867935 0.9400738672579148 0.34375
v 0.5519390600958158 0.9520327245193237 0.34375
v 0.5090571519183393 0.7668464549120488 0.34375
v 0.48018591652736164 0.7788053121734579 0.34375
v 0.5808102954867934 0.9400738672579148 0.65625
v 0.5519390600958157 0.9520327245193237 0.65625
v 0.5090571519183393 0.7668464549120488 0.65625
v 0.48018591652736153 0.7788053121734579 0.65625
v 0.830319427360284 1.1749713634913515 0.34375000000000006
v 0.7437057211873508 1.2108479352755785 0.34375000000000006
v 0.5911422821321028 0.5975466556717972 0.34375
v 0.5045285759591697 0.6334232274560244 0.34375
v 0.8303194273602839 1.1749713634913515 0.43750000000000006
v 0.7437057211873508 1.2108479352755785 0.43750000000000006
v 0.5911422821321028 0.5975466556717972 0.4375
v 0.5045285759591697 0.6334232274560244 0.4375
v 0.6241171485732602 0.9221355813658015 0.34375
v 0.7107308547461934 0.8862590095815743 0.34375
v 0.7107308547461934 0.8862590095815743 0.43750000000000006
v 0.6241171485732602 0.9221355813658015 0.43750000000000006
v 0.8303194273602839 1.1749713634913515 0.5625000000000001
v 0.7437057211873508 1.2108479352755785 0.5625
v 0.5911422821321027 0.5975466556717972 0.5625
v 0.5045285759591697 0.6334232274560244 0.5625
v 0.8303194273602839 1.1749713634913515 0.65625
v 0.7437057211873507 1.2108479352755785 0.65625
v 0.5911422821321027 0.5975466556717972 0.65625
v 0.5045285759591697 0.6334232274560244 0.65625
v 0.6241171485732602 0.9221355813658015 0.5625
v 0.7107308547461934 0.8862590095815743 0.5625
v 0.7107308547461932 0.8862590095815743 0.65625
v 0.6241171485732602 0.9221355813658015 0.65625
v 0.4517396260453738 0.587639613935478 0.5625
v 0.3939971552634184 0.6115573284582961 0.5625
v 0.40390419699973756 0.4721546723715672 0.5625
v 0.3461617262177822 0.4960723868943853 0.5625
v 0.45173962604537377 0.587639613935478 0.65625
v 0.3939971552634184 0.6115573284582961 0.65625
v 0.40390419699973756 0.4721546723715672 0.65625
v 0.3461617262177822 0.4960723868943853 0.65625
v 0.6538382737822178 0.5039276131056147 0.5625
v 0.5960958030002623 0.5278453276284328 0.5625
v 0.6060028447365815 0.38844267154170387 0.5625
v 0.5482603739546261 0.41236038606452197 0.5625
v 0.6538382737822177 0.5039276131056147 0.65625
v 0.5960958030002623 0.5278453276284328 0.65625
v 0.6060028447365815 0.38844267154170387 0.65625
v 0.5482603739546261 0.41236038606452197 0.65625
v 0.4517396260453739 0.587639613935478 0.34375
v 0.39399715526341844 0.6115573284582961 0.34375
v 0.4039041969997377 0.4721546723715672 0.34375
v 0.34616172621778224 0.4960723868943853 0.34375
v 0.4517396260453738 0.587639613935478 0.4375
v 0.39399715526341844 0.6115573284582961 0.4375
v 0.4039041969997376 0.4721546723715672 0.4375
v 0.3461617262177822 0.4960723868943853 0.4375
v 0.6538382737822178 0.5039276131056147 0.34375
v 0.5960958030002624 0.5278453276284328 0.34375
v 0.6060028447365816 0.38844267154170387 0.34375
v 0.5482603739546262 0.41236038606452197 0.34375
v 0.6538382737822178 0.5039276131056147 0.43750000000000006
v 0.5960958030002624 0.5278453276284328 0.4375
v 0.6060028447365816 0.38844267154170387 0.4375
v 0.5482603739546262 0.41236038606452197 0.4375
vt 0.09375 0.8125
vt 0.09375 1
vt 0 1
vt 0 0.8125
vt 0.8125 0.8125
vt 0.8125 0.625
vt 0.625 0.625
vt 0.625 0.8125
vt 0.8125 0.625
vt 0.8125 0.8125
vt 1 0.8125
vt 1 0.625
vt 0.8125 0.8125
vt 0.8125 0.625
vt 1 0.625
vt 1 0.8125
vt 0.8125 0.625
vt 0.8125 0.8125
vt 1 0.8125
vt 1 0.625
vt 1 0.625
vt 1 0.8125
vt 0.8125 0.8125
vt 0.8125 0.625
vt 0 1
vt 0.09375 1
vt 0.09375 0.8125
vt 0 0.8125
vt 0.625 0.625
vt 0.8125 0.625
vt 0.8125 0.8125
vt 0.625 0.8125
vt 1 0.8125
vt 0.8125 0.8125
vt 0.8125 0.625
vt 1 0.625
vt 1 0.625
vt 0.8125 0.625
vt 0.8125 0.8125
vt 1 0.8125
vt 1 0.8125
vt 0.8125 0.8125
vt 0.8125 0.625
vt 1 0.625
vt 0.8125 0.8125
vt 1 0.8125
vt 1 0.625
vt 0.8125 0.625
vt 0.0625 0.875
vt 0.0625 1
vt 0 1
vt 0 0.875
vt 0.0625 0.875
vt 0.0625 1
vt 0 1
vt 0 0.875
vt 0.5 0.625
vt 0.625 0.625
vt 0.625 1
vt 0.5 1
vt 0.625 0.625
vt 0.5 0.625
vt 0.5 1
vt 0.625 1
vt 0.625 0.625
vt 0.49999999999999994 0.625
vt 0.49999999999999994 1
vt 0.625 1
vt 0.5 1
vt 0.625 1
vt 0.625 0.625
vt 0.5 0.625
vt 0 0.5
vt 0 0
vt 0.03125 0
vt 0.03125 0.5
vt 0.34375 0
vt 0.34375 0.5
vt 0.375 0.5
vt 0.375 0
vt 0 0.0625
vt 0 0
vt 0.375 0
vt 0.375 0.0625
vt 0 0.5
vt 0 0.4375
vt 0.375 0.4375
vt 0.375 0.5
vt 0.375 0.5
vt 0.375 0
vt 0 0
vt 0 0.5
vt 0.375 0.5
vt 0.375 0
vt 0 0
vt 0 0.5
vt 0.71875 0.8125000000000004
vt 0.71875 1
vt 0.6875 1
vt 0.6875 0.8125000000000004
vt 1 0.8125000000000004
vt 1 1
vt 0.96875 1
vt 0.96875 0.8125000000000004
vt 0.6875 0.9375
vt 0.6875 1
vt 1 1
vt 1 0.9375
vt 0.6875 0.8125
vt 0.6875 0.875
vt 1 0.875
vt 1 0.8125
vt 1 0.8125000000000004
vt 1 1
vt 0.6875 1
vt 0.6875 0.8125000000000004
vt 0.71875 0.8125000000000004
vt 0.71875 1
vt 0.6875 1
vt 0.6875 0.8125000000000004
vt 1 0.8125000000000004
vt 1 1
vt 0.96875 1
vt 0.96875 0.8125000000000004
vt 0.6875 0.9375
vt 0.6875 1
vt 1 1
vt 1 0.9375
vt 0.6875 0.8125
vt 0.6875 0.875
vt 1 0.875
vt 1 0.8125
vt 1 0.8125000000000004
vt 1 1
vt 0.6875 1
vt 0.6875 0.8125000000000004
vt 0.375 0.5
vt 0.375 0.1875
vt 0.5 0.1875
vt 0.5 0.5
vt 0.375 0.5
vt 0.375 0.1875
vt 0.5 0.1875
vt 0.5 0.5
vt 0.046875 0.90625
vt 0.046875 1
vt 0 1
vt 0 0.90625
vt 0.046875 0.90625
vt 0.046875 1
vt 0 1
vt 0 0.90625
vt 0.5 0.5
vt 0.5 0.1875
vt 0.375 0.1875
vt 0.375 0.5
vt 0.375 0.5
vt 0.375 0.1875
vt 0.5 0.1875
vt 0.5 0.5
vt 0.5 0.5
vt 0.5 0.1875
vt 0.375 0.1875
vt 0.375 0.5
vt 0.375 0.5
vt 0.375 0.1875
vt 0.5 0.1875
vt 0.5 0.5
vt 0.5 0.5
vt 0.5 0.1875
vt 0.375 0.1875
vt 0.375 0.5
vt 0.375 0.5
vt 0.375 0.1875
vt 0.5 0.1875
vt 0.5 0.5
vt 0.375 0.5
vt 0.375 0.1875
vt 0.5 0.1875
vt 0.5 0.5
vt 0.375 0.5
vt 0.375 0.1875
vt 0.5 0.1875
vt 0.5 0.5
vt 0.046875 0.90625
vt 0.046875 1
vt 0 1
vt 0 0.90625
vt 0.046875 0.90625
vt 0.046875 1
vt 0 1
vt 0 0.90625
vt 0.5 0.5
vt 0.5 0.1875
vt 0.375 0.1875
vt 0.375 0.5
vt 0.375 0.5
vt 0.375 0.1875
vt 0.5 0.1875
vt 0.5 0.5
vt 0.5 0.5
vt 0.5 0.1875
vt 0.375 0.1875
vt 0.375 0.5
vt 0.375 0.5
vt 0.375 0.1875
vt 0.5 0.1875
vt 0.5 0.5
vt 0.5 0.5
vt 0.5 0.1875
vt 0.375 0.1875
vt 0.375 0.5
vt 0.375 0.5
vt 0.375 0.1875
vt 0.5 0.1875
vt 0.5 0.5
vt 0.4375 0.375
vt 0.4375 0.125
vt 0.375 0.125
vt 0.375 0.375
vt 0.5 0.375
vt 0.5 0.125
vt 0.4375 0.125
vt 0.4375 0.375
vt 0.375 0.25
vt 0.375 0.375
vt 0.5 0.375
vt 0.5 0.25
vt 0.375 0.125
vt 0.375 0.375
vt 0.5 0.375
vt 0.5 0.125
vt 0.5 0.375
vt 0.5 0.125
vt 0.375 0.125
vt 0.375 0.375
vt 0.4375 0.375
vt 0.4375 0.125
vt 0.375 0.125
vt 0.375 0.375
vt 0.5 0.375
vt 0.5 0.125
vt 0.4375 0.125
vt 0.4375 0.375
vt 0.046875 0.9375
vt 0.046875 1
vt 0 1
vt 0 0.9375
vt 0.375 0.125
vt 0.375 0.375
vt 0.5 0.375
vt 0.5 0.125
vt 0.375 0.125
vt 0.375 0.375
vt 0.5 0.375
vt 0.5 0.125
vt 0.3773437500000002 0
vt 0.43515625 0.09999999999999998
vt 0.43671875000000016 0.1875
vt 0.3773437500000002 0.28437500000000004
vt 0.4984375 0
vt 0.44062500000000016 0.09999999999999998
vt 0.4390625 0.1875
vt 0.4984375 0.28437500000000004
vt 0.375 0.375
vt 0.375 0.125
vt 0.5 0.125
vt 0.5 0.375
vt 0.375 0.375
vt 0.375 0
vt 0.5 0
vt 0.5 0.375
vt 0.5 0.375
vt 0.5 0
vt 0.375 0
vt 0.375 0.375
vt 0.4375 0.375
vt 0.4375 0.125
vt 0.375 0.125
vt 0.375 0.375
vt 0.5 0.375
vt 0.5 0.125
vt 0.4375 0.125
vt 0.4375 0.375
vt 0.375 0.25
vt 0.375 0.375
vt 0.5 0.375
vt 0.5 0.25
vt 0.375 0.125
vt 0.375 0.375
vt 0.5 0.375
vt 0.5 0.125
vt 0.5 0.375
vt 0.5 0.125
vt 0.375 0.125
vt 0.375 0.375
vt 0.4375 0.375
vt 0.4375 0.125
vt 0.375 0.125
vt 0.375 0.375
vt 0.5 0.375
vt 0.5 0.125
vt 0.4375 0.125
vt 0.4375 0.375
vt 0.046875 0.9375
vt 0.046875 1
vt 0 1
vt 0 0.9375
vt 0.375 0.125
vt 0.375 0.375
vt 0.5 0.375
vt 0.5 0.125
vt 0.375 0.125
vt 0.375 0.375
vt 0.5 0.375
vt 0.5 0.125
vt 0.3773437500000002 0
vt 0.43515625 0.09999999999999998
vt 0.43671875000000016 0.1875
vt 0.3773437500000002 0.28437500000000004
vt 0.4984375 0
vt 0.44062500000000016 0.09999999999999998
vt 0.4390625 0.1875
vt 0.4984375 0.28437500000000004
vt 0.375 0.375
vt 0.375 0.125
vt 0.5 0.125
vt 0.5 0.375
vt 0.375 0.375
vt 0.375 0
vt 0.5 0
vt 0.5 0.375
vt 0.5 0.375
vt 0.5 0
vt 0.375 0
vt 0.375 0.375
vn 2.220446049250313e-16 0 -1
vn -2.220446049250313e-16 0 1
vn 0.3826834323650897 0.9238795325112867 8.497279155086129e-17
vn -0.3826834323650897 -0.9238795325112867 -8.497279155086129e-17
vn 0.9238795325112867 -0.3826834323650897 2.0514246579479128e-16
vn -0.9238795325112867 0.3826834323650897 -2.0514246579479128e-16
vn -2.220446049250313e-16 0 1
vn 2.220446049250313e-16 0 -1
vn 0.3826834323650897 0.9238795325112867 8.497279155086129e-17
vn -0.3826834323650897 -0.9238795325112867 -8.497279155086129e-17
vn 0.9238795325112867 -0.3826834323650897 2.0514246579479128e-16
vn -0.9238795325112867 0.3826834323650897 -2.0514246579479128e-16
vn 2.220446049250313e-16 0 -1
vn -2.220446049250313e-16 0 1
vn 0.3826834323650897 0.9238795325112867 8.497279155086129e-17
vn -0.3826834323650897 -0.9238795325112867 -8.497279155086129e-17
vn 0.9238795325112867 -0.3826834323650897 2.0514246579479128e-16
vn -0.9238795325112867 0.3826834323650897 -2.0514246579479128e-16
vn 2.220446049250313e-16 0 -1
vn -2.220446049250313e-16 0 1
vn 0.3826834323650897 0.9238795325112867 8.497279155086129e-17
vn -0.3826834323650897 -0.9238795325112867 -8.497279155086129e-17
vn 0.9238795325112867 -0.3826834323650897 2.0514246579479128e-16
vn -0.9238795325112867 0.3826834323650897 -2.0514246579479128e-16
vn 2.220446049250313e-16 0 -1
vn -2.220446049250313e-16 0 1
vn 0.3826834323650897 0.9238795325112867 8.497279155086129e-17
vn -0.3826834323650897 -0.9238795325112867 -8.497279155086129e-17
vn -0.9238795325112867 0.3826834323650897 -2.0514246579479128e-16
vn 2.220446049250313e-16 0 -1
vn -2.220446049250313e-16 0 1
vn 0.3826834323650897 0.9238795325112867 8.497279155086129e-17
vn -0.3826834323650897 -0.9238795325112867 -8.497279155086129e-17
vn -0.9238795325112867 0.3826834323650897 -2.0514246579479128e-16
vn 2.220446049250313e-16 0 -1
vn -2.220446049250313e-16 0 1
vn 0.3826834323650897 0.9238795325112867 8.497279155086129e-17
vn -0.3826834323650897 -0.9238795325112867 -8.497279155086129e-17
vn 0.9238795325112867 -0.3826834323650897 2.0514246579479128e-16
vn -0.9238795325112867 0.3826834323650897 -2.0514246579479128e-16
vn 2.220446049250313e-16 0 -1
vn 0.9238795325112867 -0.3826834323650897 2.0514246579479128e-16
vn -2.3054188408011743e-16 -2.051424657947913e-17 1
vn -0.923879532511287 0.3826834323650897 -2.0514246579479133e-16
vn 2.220446049250313e-16 0 -1
vn -2.220446049250313e-16 0 1
vn 0.3826834323650897 0.9238795325112867 8.497279155086129e-17
vn -0.3826834323650897 -0.9238795325112867 -8.497279155086129e-17
vn 0.9238795325112867 -0.3826834323650897 2.0514246579479128e-16
vn -0.9238795325112867 0.3826834323650897 -2.0514246579479128e-16
vn 2.220446049250313e-16 0 -1
vn 0.9238795325112867 -0.3826834323650897 2.0514246579479128e-16
vn -2.220446049250313e-16 0 1
vn -0.923879532511287 0.3826834323650897 -2.0514246579479133e-16
vn 2.220446049250313e-16 0 -1
vn -2.220446049250313e-16 0 1
vn -0.3826834323650897 -0.9238795325112867 -8.497279155086129e-17
vn 0.9238795325112867 -0.3826834323650897 2.0514246579479128e-16
vn -0.9238795325112867 0.3826834323650897 -2.0514246579479128e-16
vn 2.220446049250313e-16 0 -1
vn -2.220446049250313e-16 0 1
vn -0.3826834323650897 -0.9238795325112867 -8.497279155086129e-17
vn 0.9238795325112867 -0.3826834323650897 2.0514246579479128e-16
vn -0.9238795325112867 0.3826834323650897 -2.0514246579479128e-16
vn 2.220446049250313e-16 0 -1
vn -2.220446049250313e-16 0 1
vn 0.3826834323650897 0.9238795325112867 8.497279155086129e-17
vn 0.830888020510073 0.5564396619336662 1.8449420225110048e-16
vn -0.19406429543489434 0.9809888119837851 -4.309092980989567e-17
vn 2.220446049250313e-16 0 -1
vn -2.220446049250313e-16 0 1
vn -0.3826834323650897 -0.9238795325112867 -8.497279155086129e-17
vn 0.9238795325112867 -0.3826834323650897 2.0514246579479128e-16
vn -0.9238795325112867 0.3826834323650897 -2.0514246579479128e-16
vn 2.220446049250313e-16 0 -1
vn -2.220446049250313e-16 0 1
vn -0.3826834323650897 -0.9238795325112867 -8.497279155086129e-17
vn 0.9238795325112867 -0.3826834323650897 2.0514246579479128e-16
vn -0.9238795325112867 0.3826834323650897 -2.0514246579479128e-16
vn 2.220446049250313e-16 0 -1
vn -2.220446049250313e-16 0 1
vn 0.3826834323650897 0.9238795325112867 8.497279155086129e-17
vn 0.830888020510073 0.5564396619336662 1.8449420225110048e-16
vn -0.19406429543489434 0.9809888119837851 -4.309092980989567e-17
usemtl inserter_fluid
f 132/309/78 130/310/78 129/311/78
f 132/309/78 129/311/78 131/312/78
f 135/313/79 133/314/79 134/315/79
f 135/313/79 134/315/79 136/316/79
f 129/317/80 130/318/80 134/319/80
f 129/317/80 134/319/80 133/320/80
f 132/321/81 131/322/81 135/323/81
f 132/321/81 135/323/81 136/324/81
f 131/325/82 129/326/82 133/327/82
f 131/325/82 133/327/82 135/328/82
f 136/329/83 134/330/83 130/331/83
f 136/329/83 130/331/83 132/332/83
f 137/333/84 138/334/84 140/335/84
f 137/333/84 140/335/84 139/336/84
f 142/337/85 141/338/85 143/339/85
f 142/337/85 143/339/85 144/340/85
f 142/341/86 138/342/86 137/343/86
f 142/341/86 137/343/86 141/344/86
f 143/345/87 139/346/87 140/347/87
f 143/345/87 140/347/87 144/348/87
f 141/349/88 137/350/88 139/351/88
f 141/349/88 139/351/88 143/352/88
f 138/353/89 142/354/89 144/355/89
f 138/353/89 144/355/89 140/356/89
f 148/357/90 146/358/90 145/359/90
f 148/357/90 145/359/90 147/360/90
f 151/361/91 149/362/91 150/363/91
f 151/361/91 150/363/91 152/364/91
f 145/365/92 146/366/92 150/367/92
f 145/365/92 150/367/92 149/368/92
f 148/369/93 147/370/93 151/371/93
f 148/369/93 151/371/93 152/372/93
f 147/373/94 145/374/94 149/375/94
f 147/373/94 149/375/94 151/376/94
f 152/377/95 150/378/95 146/379/95
f 152/377/95 146/379/95 148/380/95
f 156/381/96 154/382/96 153/383/96
f 156/381/96 153/383/96 155/384/96
f 159/385/97 157/386/97 158/387/97
f 159/385/97 158/387/97 160/388/97
f 153/389/98 154/390/98 158/391/98
f 153/389/98 158/391/98 157/392/98
f 156/393/99 155/394/99 159/395/99
f 156/393/99 159/395/99 160/396/99
f 155/397/100 153/398/100 157/399/100
f 155/397/100 157/399/100 159/400/100
f 160/401/101 158/402/101 154/403/101
f 160/401/101 154/403/101 156/404/101
f 164/405/102 162/406/102 161/407/102
f 164/405/102 161/407/102 163/408/102
f 167/409/103 165/410/103 166/411/103
f 167/409/103 166/411/103 168/412/103
f 161/413/104 162/414/104 166/415/104
f 161/413/104 166/415/104 165/416/104
f 164/417/105 163/418/105 167/419/105
f 164/417/105 167/419/105 168/420/105
f 168/421/106 166/422/106 162/423/106
f 168/421/106 162/423/106 164/424/106
f 172/425/107 170/426/107 169/427/107
f 172/425/107 169/427/107 171/428/107
f 175/429/108 173/430/108 174/431/108
f 175/429/108 174/431/108 176/432/108
f 169/433/109 170/434/109 174/435/109
f 169/433/109 174/435/109 173/436/109
f 172/437/110 171/438/110 175/439/110
f 172/437/110 175/439/110 176/440/110
f 176/441/111 174/442/111 170/443/111
f 176/441/111 170/443/111 172/444/111
f 177/445/112 186/446/112 185/447/112
f 177/445/112 185/447/112 178/448/112
f 182/449/113 188/450/113 187/451/113
f 182/449/113 187/451/113 181/452/113
f 177/453/114 178/454/114 182/455/114
f 177/453/114 182/455/114 181/456/114
f 180/457/115 179/458/115 183/459/115
f 180/457/115 183/459/115 184/460/115
f 181/461/116 187/462/116 186/463/116
f 181/461/116 186/463/116 177/464/116
f 178/465/117 185/466/117 188/467/117
f 178/465/117 188/467/117 182/468/117
f 180/469/118 185/470/118 186/471/118
f 180/469/118 186/471/118 179/472/118
f 179/473/119 186/474/119 187/475/119
f 179/473/119 187/475/119 183/476/119
f 183/477/120 187/478/120 188/479/120
f 183/477/120 188/479/120 184/480/120
f 184/481/121 188/482/121 185/483/121
f 184/481/121 185/483/121 180/484/121
f 189/485/122 198/486/122 197/487/122
f 189/485/122 197/487/122 190/488/122
f 194/489/123 200/490/123 199/491/123
f 194/489/123 199/491/123 193/492/123
f 189/493/124 190/494/124 194/495/124
f 189/493/124 194/495/124 193/496/124
f 192/497/125 191/498/125 195/499/125
f 192/497/125 195/499/125 196/500/125
f 193/501/126 199/502/126 198/503/126
f 193/501/126 198/503/126 189/504/126
f 190/505/127 197/506/127 200/507/127
f 190/505/127 200/507/127 194/508/127
f 192/509/128 197/510/128 198/511/128
f 192/509/128 198/511/128 191/512/128
f 191/513/129 198/514/129 199/515/129
f 191/513/129 199/515/129 195/516/129
f 195/517/130 199/518/130 200/519/130
f 195/517/130 200/519/130 196/520/130
f 196/521/131 200/522/131 197/523/131
f 196/521/131 197/523/131 192/524/131
f 204/525/132 202/526/132 201/527/132
f 204/525/132 201/527/132 203/528/132
f 207/529/133 205/530/133 206/531/133
f 207/529/133 206/531/133 208/532/133
f 204/533/134 203/534/134 207/535/134
f 204/533/134 207/535/134 208/536/134
f 203/537/135 201/538/135 205/539/135
f 203/537/135 205/539/135 207/540/135
f 208/541/136 206/542/136 202/543/136
f 208/541/136 202/543/136 204/544/136
f 212/545/137 210/546/137 209/547/137
f 212/545/137 209/547/137 211/548/137
f 215/549/138 213/550/138 214/551/138
f 215/549/138 214/551/138 216/552/138
f 212/553/139 211/554/139 215/555/139
f 212/553/139 215/555/139 216/556/139
f 211/557/140 209/558/140 213/559/140
f 211/557/140 213/559/140 215/560/140
f 216/561/141 214/562/141 210/563/141
f 216/561/141 210/563/141 212/564/141
f 202/565/142 192/566/142 191/567/142
f 202/565/142 191/567/142 209/568/142
f 213/569/143 195/570/143 196/571/143
f 213/569/143 196/571/143 206/572/143
f 191/573/144 192/574/144 196/575/144
f 191/573/144 196/575/144 195/576/144
f 209/577/145 191/578/145 195/579/145
f 209/577/145 195/579/145 213/580/145
f 206/581/146 196/582/146 192/583/146
f 206/581/146 192/583/146 202/584/146
f 220/585/147 218/586/147 217/587/147
f 220/585/147 217/587/147 219/588/147
f 223/589/148 221/590/148 222/591/148
f 223/589/148 222/591/148 224/592/148
f 220/593/149 219/594/149 223/595/149
f 220/593/149 223/595/149 224/596/149
f 219/597/150 217/598/150 221/599/150
f 219/597/150 221/599/150 223/600/150
f 224/601/151 222/602/151 218/603/151
f 224/601/151 218/603/151 220/604/151
f 228/605/152 226/606/152 225/607/152
f 228/605/152 225/607/152 227/608/152
f 231/609/153 229/610/153 230/611/153
f 231/609/153 230/611/153 232/612/153
f 228/613/154 227/614/154 231/615/154
f 228/613/154 231/615/154 232/616/154
f 227/617/155 225/618/155 229/619/155
f 227/617/155 229/619/155 231/620/155
f 232/621/156 230/622/156 226/623/156
f 232/621/156 226/623/156 228/624/156
f 218/625/157 180/626/157 179/627/157
f 218/625/157 179/627/157 225/628/157
f 229/629/158 183/630/158 184/631/158
f 229/629/158 184/631/158 222/632/158
f 179/633/159 180/634/159 184/635/159
f 179/633/159 184/635/159 183/636/159
f 225/637/160 179/638/160 183/639/160
f 225/637/160 183/639/160 229/640/160
f 222/641/161 184/642/161 180/643/161
f 222/641/161 180/643/161 218/644/161
o turntable
v 0.75 0.375 0.25000000000000006
v 0.25000000000000006 0.375 0.24999999999999994
v 0.75 0.3125 0.25000000000000006
v 0.25000000000000006 0.3125 0.24999999999999994
v 0.75 0.375 0.75
v 0.24999999999999994 0.375 0.75
v 0.75 0.3125 0.75
v 0.24999999999999994 0.3125 0.75
v 0.625 0.3125 0.375
v 0.375 0.3125 0.375
v 0.625 0.25 0.375
v 0.375 0.25 0.375
v 0.625 0.3125 0.625
v 0.375 0.3125 0.625
v 0.625 0.25 0.625
v 0.375 0.25 0.625
v 0.625 0.5625 0.6875
v 0.37499999999999994 0.5625 0.6875
v 0.625 0.375 0.6875
v 0.37499999999999994 0.375 0.6875
v 0.625 0.5625 0.75
v 0.37499999999999994 0.5625 0.75
v 0.625 0.375 0.75
v 0.37499999999999994 0.375 0.75
v 0.625 0.5625 0.25
v 0.37500000000000006 0.5625 0.25
v 0.625 0.375 0.25
v 0.37500000000000006 0.375 0.25
v 0.625 0.5625 0.3125
v 0.37500000000000006 0.5625 0.3125
v 0.625 0.375 0.3125
v 0.37500000000000006 0.375 0.3125
v 0.5625 0.625 0.6875
v 0.43749999999999994 0.625 0.6875
v 0.5625 0.625 0.75
v 0.43749999999999994 0.625 0.75
v 0.5625 0.625 0.25
v 0.43750000000000006 0.625 0.25
v 0.5625 0.625 0.3125
v 0.43750000000000006 0.625 0.3125
vt 0.5 1
vt 0.4375 1
vt 0.4375 0.5
vt 0.5 0.5
vt 0.0625 1
vt 0 1
vt 0 0.5
vt 0.0625 0.5
vt 0.5 0.5
vt 0.5 1
vt 0 1
vt 0 0.5
vt 0.5 0.5
vt 0.5 1
vt 0 1
vt 0 0.5
vt 0.5 0.9375
vt 0.5 1
vt 0 1
vt 0 0.9375
vt 0 0.5
vt 0 0.5625
vt 0.5 0.5625
vt 0.5 0.5
vt 0.75 0.4375
vt 0.75 0.5
vt 0.5 0.5
vt 0.5 0.4375
vt 0.75 0.375
vt 0.75 0.4375
vt 0.5 0.4375
vt 0.5 0.375
vt 0.75 0.375
vt 0.75 0.4375
vt 0.5 0.4375
vt 0.5 0.375
vt 0.75 0.4375
vt 0.75 0.5
vt 0.5 0.5
vt 0.5 0.4375
vt 0.375 0.5
vt 0.375 0.6875
vt 0.125 0.6875
vt 0.125 0.5
vt 0.375 0.5
vt 0.375 0.6875
vt 0.125 0.6875
vt 0.125 0.5
vt 0.375 0.5
vt 0.375 0.6875
vt 0.3125 0.6875
vt 0.3125 0.5
vt 0.1875 0.5
vt 0.1875 0.6875
vt 0.125 0.6875
vt 0.125 0.5
vt 0.375 0.5
vt 0.375 0.6875
vt 0.125 0.6875
vt 0.125 0.5
vt 0.375 0.5
vt 0.375 0.6875
vt 0.125 0.6875
vt 0.125 0.5
vt 0.375 0.5
vt 0.375 0.6875
vt 0.3125 0.6875
vt 0.3125 0.5
vt 0.1875 0.5
vt 0.1875 0.6875
vt 0.125 0.6875
vt 0.125 0.5
vt 0.3125 0.5625
vt 0.28125 0.5
vt 0.21875 0.5
vt 0.1875 0.5625
vt 0.1875 0.5625
vt 0.21875 0.5
vt 0.28125 0.5
vt 0.3125 0.5625
vt 0.28125 0.5625
vt 0.21875 0.5625
vt 0.21875 0.5
vt 0.28125 0.5
vt 0.3125 0.5
vt 0.3125 0.5625
vt 0.28125 0.5625
vt 0.28125 0.5
vt 0.21875 0.5
vt 0.21875 0.5625
vt 0.1875 0.5625
vt 0.1875 0.5
vt 0.3125 0.5625
vt 0.28125 0.5
vt 0.21875 0.5
vt 0.1875 0.5625
vt 0.1875 0.5625
vt 0.21875 0.5
vt 0.28125 0.5
vt 0.3125 0.5625
vt 0.28125 0.5625
vt 0.21875 0.5625
vt 0.21875 0.5
vt 0.28125 0.5
vt 0.3125 0.5
vt 0.3125 0.5625
vt 0.28125 0.5625
vt 0.28125 0.5
vt 0.21875 0.5
vt 0.21875 0.5625
vt 0.1875 0.5625
vt 0.1875 0.5
vn 2.220446049250313e-16 0 -1
vn -2.220446049250313e-16 0 1
vn 0 1 0
vn 0 -1 0
vn 1 0 2.220446049250313e-16
vn -1 0 -2.220446049250313e-16
vn 2.220446049250313e-16 0 -1
vn -2.220446049250313e-16 0 1
vn 1 0 2.220446049250313e-16
vn -1 0 -2.220446049250313e-16
vn 2.220446049250313e-16 0 -1
vn -2.220446049250313e-16 0 1
vn 1 0 2.220446049250313e-16
vn -1 0 -2.220446049250313e-16
vn 2.220446049250313e-16 0 -1
vn -2.220446049250313e-16 0 1
vn 1 0 2.220446049250313e-16
vn -1 0 -2.220446049250313e-16
vn 2.220446049250313e-16 0 -1
vn -2.220446049250313e-16 0 1
vn 0 1 0
vn 0.7071067811865476 0.7071067811865476 1.5700924586837752e-16
vn -0.7071067811865476 0.7071067811865476 -1.5700924586837752e-16
vn 2.220446049250313e-16 0 -1
vn -2.220446049250313e-16 0 1
vn 0 1 0
vn 0.7071067811865476 0.7071067811865476 1.5700924586837752e-16
vn -0.7071067811865476 0.7071067811865476 -1.5700924586837752e-16
usemtl inserter_fluid
f 236/645/162 234/646/162 233/647/162
f 236/645/162 233/647/162 235/648/162
f 239/649/163 237/650/163 238/651/163
f 239/649/163 238/651/163 240/652/163
f 233/653/164 234/654/164 238/655/164
f 233/653/164 238/655/164 237/656/164
f 236/657/165 235/658/165 239/659/165
f 236/657/165 239/659/165 240/660/165
f 235/661/166 233/662/166 237/663/166
f 235/661/166 237/663/166 239/664/166
f 240/665/167 238/666/167 234/667/167
f 240/665/167 234/667/167 236/668/167
usemtl inserter_base2
f 244/669/168 242/670/168 241/671/168
f 244/669/168 241/671/168 243/672/168
f 247/673/169 245/674/169 246/675/169
f 247/673/169 246/675/169 248/676/169
f 243/677/170 241/678/170 245/679/170
f 243/677/170 245/679/170 247/680/170
f 248/681/171 246/682/171 242/683/171
f 248/681/171 242/683/171 244/684/171
usemtl inserter_fluid
f 252/685/172 250/686/172 249/687/172
f 252/685/172 249/687/172 251/688/172
f 255/689/173 253/690/173 254/691/173
f 255/689/173 254/691/173 256/692/173
f 251/693/174 249/694/174 253/695/174
f 251/693/174 253/695/174 255/696/174
f 256/697/175 254/698/175 250/699/175
f 256/697/175 250/699/175 252/700/175
f 260/701/176 258/702/176 257/703/176
f 260/701/176 257/703/176 259/704/176
f 263/705/177 261/706/177 262/707/177
f 263/705/177 262/707/177 264/708/177
f 259/709/178 257/710/178 261/711/178
f 259/709/178 261/711/178 263/712/178
f 264/713/179 262/714/179 258/715/179
f 264/713/179 258/715/179 260/716/179
f 250/717/180 266/718/180 265/719/180
f 250/717/180 265/719/180 249/720/180
f 253/721/181 267/722/181 268/723/181
f 253/721/181 268/723/181 254/724/181
f 265/725/182 266/726/182 268/727/182
f 265/725/182 268/727/182 267/728/182
f 249/729/183 265/730/183 267/731/183
f 249/729/183 267/731/183 253/732/183
f 254/733/184 268/734/184 266/735/184
f 254/733/184 266/735/184 250/736/184
f 258/737/185 270/738/185 269/739/185
f 258/737/185 269/739/185 257/740/185
f 261/741/186 271/742/186 272/743/186
f 261/741/186 272/743/186 262/744/186
f 269/745/187 270/746/187 272/747/187
f 269/745/187 272/747/187 271/748/187
f 257/749/188 269/750/188 271/751/188
f 257/749/188 271/751/188 261/752/188
f 262/753/189 272/754/189 270/755/189
f 262/753/189 270/755/189 258/756/189
o base
v 1 0.1875 0
v 0 0.1875 0
v 0 0.1875 1
v 1 0.1875 1
v 1 0 1
v 0 0 1
v 0 0 0
v 1 0 0
v 0.75 0.25 0.25
v 0.25 0.25 0.25
v 0.25 0.25 0.75
v 0.75 0.25 0.75
v 0.75 0.1875 0.75
v 0.25 0.1875 0.75
v 0.25 0.1875 0.25
v 0.75 0.1875 0.25
v 0.75 0.3125 0.75
v 0.75 0.3125 1
v 0.75 0.1875 1
v 1 0.3125 0.75
v 1 0.3125 1
v 1 0.1875 0.75
v 0.78125 0.375 0.78125
v 0.78125 0.375 0.96875
v 0.78125 0.3125 0.78125
v 0.78125 0.3125 0.96875
v 0.96875 0.375 0.78125
v 0.96875 0.375 0.96875
v 0.96875 0.3125 0.78125
v 0.96875 0.3125 0.96875
v 0.75 0.4375 0.75
v 0.75 0.4375 1
v 0.75 0.375 0.75
v 0.75 0.375 1
v 1 0.4375 0.75
v 1 0.4375 1
v 1 0.375 0.75
v 1 0.375 1
v 0.78125 0.5 0.78125
v 0.78125 0.5 0.96875
v 0.78125 0.4375 0.78125
v 0.78125 0.4375 0.96875
v 0.96875 0.5 0.78125
v 0.96875 0.5 0.96875
v 0.96875 0.4375 0.78125
v 0.96875 0.4375 0.96875
v 0 0.4375 0
v 0 0.4375 0.25
v 0 0.375 0
v 0 0.375 0.25
v 0.25 0.4375 0
v 0.25 0.4375 0.25
v 0.25 0.375 0
v 0.25 0.375 0.25
v 0.03125 0.5 0.03125
v 0.03125 0.5 0.21875
v 0.03125 0.3125 0.03125
v 0.03125 0.3125 0.21875
v 0.21875 0.5 0.03125
v 0.21875 0.5 0.21875
v 0.21875 0.3125 0.03125
v 0.21875 0.3125 0.21875
v 0 0.3125 0
v 0 0.3125 0.25
v 0 0.1875 0.25
v 0.25 0.3125 0
v 0.25 0.3125 0.25
v 0.25 0.1875 0
vt 0.8125 1
vt 0.8125 0
vt 1 0
vt 1 1
vt 0.8125 1
vt 0.8125 0
vt 1 0
vt 1 1
vt 0.8125 1
vt 0.8125 0
vt 1 0
vt 1 1
vt 0.8125 1
vt 0.8125 0
vt 1 0
vt 1 1
vt 0.5 0.0625
vt 0 0.0625
vt 0 0
vt 0.5 0
vt 0.5 0.5
vt 0 0.5
vt 0 0.4375
vt 0.5 0.4375
vt 0.4375 0.5
vt 0.4375 0
vt 0.5 0
vt 0.5 0.5
vt 0 0
vt 0 0.5
vt 0.0625 0.5
vt 0.0625 0
vt 0 0
vt 0.5 0
vt 0.5 0.5
vt 0 0.5
vt 0 0
vt 1 0
vt 1 1
vt 0 1
vt 0 0
vt 1 0
vt 1 1
vt 0 1
vt 0.3125 0.75
vt 0.1875 0.75
vt 0.1875 0.5
vt 0.3125 0.5
vt 0.3125 0.75
vt 0.1875 0.75
vt 0.1875 0.5
vt 0.3125 0.5
vt 0.25 0.5
vt 0.25 0.75
vt 0 0.75
vt 0 0.5
vt 0.3125 0.75
vt 0.1875 0.75
vt 0.1875 0.5
vt 0.3125 0.5
vt 0.3125 0.75
vt 0.1875 0.75
vt 0.1875 0.5
vt 0.3125 0.5
vt 0.5625 0.75
vt 0.5625 0.8125
vt 0.375 0.8125
vt 0.375 0.75
vt 0.375 0.75
vt 0.375 0.8125
vt 0.1875 0.8125
vt 0.1875 0.75
vt 0.1875 0.75
vt 0.1875 0.8125
vt 0 0.8125
vt 0 0.75
vt 0.75 0.75
vt 0.75 0.8125
vt 0.5625 0.8125
vt 0.5625 0.75
vt 0.25 0.75
vt 0.1875 0.75
vt 0.1875 0.5
vt 0.25 0.5
vt 0.0625 0.75
vt 0 0.75
vt 0 0.5
vt 0.0625 0.5
vt 0.25 0.25
vt 0.25 0.5
vt 0 0.5
vt 0 0.25
vt 0.25 0.5
vt 0.25 0.75
vt 0 0.75
vt 0 0.5
vt 0.25 0.5
vt 0.25 0.5625
vt 0 0.5625
vt 0 0.5
vt 0.25 0.6875
vt 0.25 0.75
vt 0 0.75
vt 0 0.6875
vt 0.5625 0.75
vt 0.5625 0.8125
vt 0.375 0.8125
vt 0.375 0.75
vt 0.375 0.75
vt 0.375 0.8125
vt 0.1875 0.8125
vt 0.1875 0.75
vt 0.375 0.8125
vt 0.375 1
vt 0.1875 1
vt 0.1875 0.8125
vt 0.1875 0.75
vt 0.1875 0.8125
vt 0 0.8125
vt 0 0.75
vt 0.75 0.75
vt 0.75 0.8125
vt 0.5625 0.8125
vt 0.5625 0.75
vt 0.25 0.9375
vt 0.25 1
vt 0 1
vt 0 0.9375
vt 0.25 0.9375
vt 0.25 1
vt 0 1
vt 0 0.9375
vt 0.375 0.1875
vt 0.375 0.4375
vt 0.125 0.4375
vt 0.125 0.1875
vt 0.375 0.1875
vt 0.375 0.4375
vt 0.125 0.4375
vt 0.125 0.1875
vt 0.375 0.375
vt 0.375 0.4375
vt 0.125 0.4375
vt 0.125 0.375
vt 0.25 0.9375
vt 0.25 1
vt 0 1
vt 0 0.9375
vt 0.75 0.125
vt 0.75 0.3125
vt 0.5625 0.3125
vt 0.5625 0.125
vt 0.75 0.125
vt 0.75 0.3125
vt 0.5625 0.3125
vt 0.5625 0.125
vt 0.875 0.5625
vt 0.875 0.75
vt 0.6875 0.75
vt 0.6875 0.5625
vt 0.75 0.125
vt 0.75 0.3125
vt 0.5625 0.3125
vt 0.5625 0.125
vt 0.5625 0.125
vt 0.5625 0.3125
vt 0.75 0.3125
vt 0.75 0.125
vt 0.5 0.875
vt 0.375 0.875
vt 0.375 0.625
vt 0.5 0.625
vt 0 0.875
vt 0.125 0.875
vt 0.125 0.625
vt 0 0.625
vt 0.375 0.1875
vt 0.375 0.4375
vt 0.125 0.4375
vt 0.125 0.1875
vt 0.375 0.5
vt 0.375 0.625
vt 0.125 0.625
vt 0.125 0.5
vt 0.125 1
vt 0.125 0.875
vt 0.375 0.875
vt 0.375 1
vn 0 0 -1
vn 0 0 1
vn -1 0 0
vn 1 0 0
vn 0 0 -1
vn 0 0 1
vn -1 0 0
vn 1 0 0
vn 0 1 0
vn 0 1 0
vn 0 -1 0
vn -1 0 0
vn 1 0 0
vn 0 1 0
vn 0 0 -1
vn 0 0 1
vn -1 0 0
vn 1 0 0
vn 0 0 -1
vn 0 0 1
vn -1 0 0
vn 1 0 0
vn 0 1 0
vn 0 -1 0
vn 0 0 -1
vn 0 0 1
vn -1 0 0
vn 1 0 0
vn 0 1 0
vn 0 0 -1
vn 0 0 1
vn -1 0 0
vn 1 0 0
vn 0 1 0
vn 0 -1 0
vn 0 0 -1
vn 0 0 1
vn -1 0 0
vn 1 0 0
vn 0 1 0
vn 0 0 -1
vn 0 0 1
vn -1 0 0
vn 1 0 0
vn 0 1 0
vn 0 0 -1
vn 0 0 1
usemtl inserter_base2
f 274/757/190 273/758/190 280/759/190
f 274/757/190 280/759/190 279/760/190
f 276/761/191 275/762/191 278/763/191
f 276/761/191 278/763/191 277/764/191
f 275/765/192 274/766/192 279/767/192
f 275/765/192 279/767/192 278/768/192
f 273/769/193 276/770/193 277/771/193
f 273/769/193 277/771/193 280/772/193
f 282/773/194 281/774/194 288/775/194
f 282/773/194 288/775/194 287/776/194
f 284/777/195 283/778/195 286/779/195
f 284/777/195 286/779/195 285/780/195
f 283/781/196 282/782/196 287/783/196
f 283/781/196 287/783/196 286/784/196
f 281/785/197 284/786/197 285/787/197
f 281/785/197 285/787/197 288/788/197
f 281/789/198 282/790/198 283/791/198
f 281/789/198 283/791/198 284/792/198
usemtl inserter_base1
f 273/793/199 274/794/199 275/795/199
f 273/793/199 275/795/199 276/796/199
f 277/797/200 278/798/200 279/799/200
f 277/797/200 279/799/200 280/800/200
usemtl connector_connector_lv
f 291/801/201 290/802/201 289/803/201
f 291/801/201 289/803/201 285/804/201
f 294/805/202 292/806/202 293/807/202
f 294/805/202 293/807/202 276/808/202
f 289/809/203 290/810/203 293/811/203
f 289/809/203 293/811/203 292/812/203
f 285/813/204 289/814/204 292/815/204
f 285/813/204 292/815/204 294/816/204
f 276/817/205 293/818/205 290/819/205
f 276/817/205 290/819/205 291/820/205
f 298/821/206 296/822/206 295/823/206
f 298/821/206 295/823/206 297/824/206
f 301/825/207 299/826/207 300/827/207
f 301/825/207 300/827/207 302/828/207
f 297/829/208 295/830/208 299/831/208
f 297/829/208 299/831/208 301/832/208
f 302/833/209 300/834/209 296/835/209
f 302/833/209 296/835/209 298/836/209
f 306/837/210 304/838/210 303/839/210
f 306/837/210 303/839/210 305/840/210
f 309/841/211 307/842/211 308/843/211
f 309/841/211 308/843/211 310/844/211
f 303/845/212 304/846/212 308/847/212
f 303/845/212 308/847/212 307/848/212
f 306/849/213 305/850/213 309/851/213
f 306/849/213 309/851/213 310/852/213
f 305/853/214 303/854/214 307/855/214
f 305/853/214 307/855/214 309/856/214
f 310/857/215 308/858/215 304/859/215
f 310/857/215 304/859/215 306/860/215
f 314/861/216 312/862/216 311/863/216
f 314/861/216 311/863/216 313/864/216
f 317/865/217 315/866/217 316/867/217
f 317/865/217 316/867/217 318/868/217
f 311/869/218 312/870/218 316/871/218
f 311/869/218 316/871/218 315/872/218
f 313/873/219 311/874/219 315/875/219
f 313/873/219 315/875/219 317/876/219
f 318/877/220 316/878/220 312/879/220
f 318/877/220 312/879/220 314/880/220
usemtl data_connector
f 322/881/221 320/882/221 319/883/221
f 322/881/221 319/883/221 321/884/221
f 325/885/222 323/886/222 324/887/222
f 325/885/222 324/887/222 326/888/222
f 319/889/223 320/890/223 324/891/223
f 319/889/223 324/891/223 323/892/223
f 322/893/224 321/894/224 325/895/224
f 322/893/224 325/895/224 326/896/224
f 321/897/225 319/898/225 323/899/225
f 321/897/225 323/899/225 325/900/225
f 326/901/226 324/902/226 320/903/226
f 326/901/226 320/903/226 322/904/226
f 330/905/227 328/906/227 327/907/227
f 330/905/227 327/907/227 329/908/227
f 333/909/228 331/910/228 332/911/228
f 333/909/228 332/911/228 334/912/228
f 327/913/229 328/914/229 332/915/229
f 327/913/229 332/915/229 331/916/229
f 329/917/230 327/918/230 331/919/230
f 329/917/230 331/919/230 333/920/230
f 334/921/231 332/922/231 328/923/231
f 334/921/231 328/923/231 330/924/231
f 337/925/232 336/926/232 335/927/232
f 337/925/232 335/927/232 274/928/232
f 340/929/233 338/930/233 339/931/233
f 340/929/233 339/931/233 287/932/233
f 335/933/234 336/934/234 339/935/234
f 335/933/234 339/935/234 338/936/234
f 274/937/235 335/938/235 338/939/235
f 274/937/235 338/939/235 340/940/235
f 287/941/236 339/942/236 336/943/236
f 287/941/236 336/943/236 337/944/236
o output
v 0.7499999999999994 0.24999999999999994 0.7500000000000006
v 0.7499999999999994 0.24999999999999994 1
v 0.25000000000000056 0.24999999999999994 1.0000000000000002
v 0.25000000000000056 0.24999999999999994 0.7500000000000008
v 0.25000000000000056 0.18750000000000006 0.7500000000000008
v 0.25000000000000056 0.18750000000000006 1.0000000000000002
v 0.7499999999999994 0.18750000000000006 1
v 0.7499999999999994 0.18750000000000006 0.7500000000000006
vt 0.25 1
vt 0.25 0.5
vt 0.5 0.5
vt 0.5 1
vt 0.5 0.9375
vt 0.5 1
vt 0.25 1
vt 0.25 0.9375
vt 0.5 0.5
vt 0.5 0.5625
vt 0.25 0.5625
vt 0.25 0.5
vt 0.4375 0.5
vt 0.5 0.5
vt 0.5 1
vt 0.4375 1
vn 0 1 0
vn 1 0 2.220446049250318e-16
vn -1 0 0
vn 4.440892098500636e-16 0 1
usemtl inserter_base2
f 343/945/237 342/946/237 341/947/237
f 343/945/237 341/947/237 344/948/237
f 348/949/238 341/950/238 342/951/238
f 348/949/238 342/951/238 347/952/238
f 346/953/239 343/954/239 344/955/239
f 346/953/239 344/955/239 345/956/239
f 347/957/240 342/958/240 343/959/240
f 347/957/240 343/959/240 346/960/240
o input
v 0.7500000000000003 0.24999999999999997 0.2500000000000009
v 0.9999999999999998 0.24999999999999997 0.25000000000000067
v 0.9999999999999996 0.24999999999999997 0.7499999999999993
v 0.7500000000000002 0.24999999999999997 0.7499999999999994
v 0.7500000000000002 0.18750000000000003 0.7499999999999994
v 0.9999999999999996 0.18750000000000003 0.7499999999999993
v 0.9999999999999998 0.18750000000000003 0.25000000000000067
v 0.7500000000000003 0.18750000000000003 0.2500000000000009
vt 0.25 1
vt 0.25 0.5
vt 0 0.5
vt 0 1
vt 0 0.9375
vt 0 1
vt 0.25 1
vt 0.25 0.9375
vt 0 0.5
vt 0 0.5625
vt 0.25 0.5625
vt 0.25 0.5
vt 0.25 0.5
vt 0.1875 0.5
vt 0.1875 1
vt 0.25 1
vn 0 1 0
vn -6.661338147750959e-16 0 -1
vn 5.551115123125799e-16 0 1
vn 1 0 4.440892098500632e-16
usemtl inserter_base2
f 351/961/241 350/962/241 349/963/241
f 351/961/241 349/963/241 352/964/241
f 356/965/242 349/966/242 350/967/242
f 356/965/242 350/967/242 355/968/242
f 354/969/243 351/970/243 352/971/243
f 354/969/243 352/971/243 353/972/243
f 355/973/244 350/974/244 351/975/244
f 355/973/244 351/975/244 354/976/244