# Made by Pabilo8 with Blockbench
# Exported with IIToolkit Plugin
mtllib track_8.mtl


o track
v -0.12499992339895835 0.06250018370951727 0.2500000000000001
v 0.12499985167902122 0.06250033243235184 0.2500000000000001
v -0.12499995385562909 -6.515247985214301e-8 0.2500000000000001
v 0.12499982122235051 8.357035470585306e-8 0.2500000000000001
v -0.12499992339895846 0.06250018370951727 -0.24999999999999992
v 0.12499985167902111 0.06250033243235184 -0.24999999999999997
v -0.1249999538556292 -6.515247985214301e-8 -0.24999999999999992
v 0.1249998212223504 8.357035470585306e-8 -0.24999999999999997
v -0.06249970499363205 -9.560915057230113e-8 -0.15624999999999997
v 0.06250018254535776 -2.1247733284629478e-8 -0.15625
v -0.06250034563530722 -0.06250020919638899 -0.15624999999999994
v 0.06250015208868703 -0.06250027010973042 -0.15625
v -0.06249970499363206 -9.560915057230113e-8 -0.21875
v 0.06250018254535775 -2.1247733284629478e-8 -0.21875000000000003
v -0.06250034563530724 -0.06250020919638899 -0.21874999999999997
v 0.062500152088687 -0.06250027010973042 -0.21875000000000003
v -0.062499704993631965 -9.560915057230113e-8 0.21875000000000003
v 0.06250018254535784 -2.1247733284629478e-8 0.21875
v -0.06250034563530714 -0.06250020919638899 0.21875000000000006
v 0.06250015208868712 -0.06250027010973042 0.21875
v -0.06249970499363198 -9.560915057230113e-8 0.15625000000000003
v 0.06250018254535783 -2.1247733284629478e-8 0.15625
v -0.06250034563530715 -0.06250020919638899 0.15625000000000006
v 0.0625001520886871 -0.06250027010973042 0.15625
v 0.10369298993199132 -0.002318227315651348 -0.062499999999999986
v 0.19085989986034504 -0.009944113602980652 -0.06250000000000001
v 0.10913992574658056 0.05994369619099412 -0.062499999999999986
v 0.19630683567493426 0.05231780990366481 -0.06250000000000001
v 0.10369298993199129 -0.002318227315651348 -0.1875
v 0.19085989986034502 -0.009944113602980652 -0.18750000000000003
v 0.10913992574658053 0.05994369619099412 -0.1875
v 0.19630683567493423 0.05231780990366481 -0.18750000000000003
v 0.10369298993199137 -0.002318227315651348 0.1875
v 0.1908598998603451 -0.009944113602980652 0.18749999999999997
v 0.10913992574658062 0.05994369619099412 0.1875
v 0.19630683567493432 0.05231780990366481 0.18749999999999997
v 0.10369298993199134 -0.002318227315651348 0.06250000000000003
v 0.19085989986034507 -0.009944113602980652 0.06250000000000001
v 0.10913992574658059 0.05994369619099412 0.06250000000000003
v 0.1963068356749343 0.05231780990366481 0.06250000000000001
vt 0.25 0.9375
vt 0.25 1
vt 0 1
vt 0 0.9375
vt 0.25 0.9375
vt 0.25 1
vt 0 1
vt 0 0.9375
vt 0.25 1
vt 0 1
vt 0 0.5
vt 0.25 0.5
vt 0 1
vt 0.25 1
vt 0.25 0.5
vt 0 0.5
vt 0.25 1
vt 0.1875 1
vt 0.1875 0.5
vt 0.25 0.5
vt 0.0625 0.5
vt 0 0.5
vt 0 1
vt 0.0625 1
vt 0 0.9375
vt 0 1
vt 0.125 1
vt 0.125 0.9375
vt 0.125 0.9375
vt 0.125 1
vt 0 1
vt 0 0.9375
vt 0.0625 1
vt 0.0625 0.875
vt 0 0.875
vt 0 1
vt 0.125 0.9375
vt 0.125 1
vt 0.0625 1
vt 0.0625 0.9375
vt 0.0625 0.9375
vt 0.0625 1
vt 0 1
vt 0 0.9375
vt 0 0.9375
vt 0 1
vt 0.125 1
vt 0.125 0.9375
vt 0.125 0.9375
vt 0.125 1
vt 0 1
vt 0 0.9375
vt 0.0625 1
vt 0.0625 0.875
vt 0 0.875
vt 0 1
vt 0.125 0.9375
vt 0.125 1
vt 0.0625 1
vt 0.0625 0.9375
vt 0.0625 0.9375
vt 0.0625 1
vt 0 1
vt 0 0.9375
vt 0.0625 1
vt 0.125 1
vt 0.125 0.9375
vt 0.0625 0.9375
vt 0.0625 1
vt 0.125 1
vt 0.125 0.9375
vt 0.0625 0.9375
vt 0.0625 1
vt 0.1875 1
vt 0.1875 0.9375
vt 0.0625 0.9375
vt 0.0625 1
vt 0.1875 1
vt 0.1875 0.9375
vt 0.0625 0.9375
vt 0.0625 1
vt 0.1875 1
vt 0.1875 0.9375
vt 0.0625 0.9375
vt 0.0625 1
vt 0.1875 1
vt 0.1875 0.9375
vt 0.0625 0.9375
vt 0.0625 1
vt 0.125 1
vt 0.125 0.9375
vt 0.0625 0.9375
vt 0.0625 1
vt 0.125 1
vt 0.125 0.9375
vt 0.0625 0.9375
vt 0.0625 1
vt 0.1875 1
vt 0.1875 0.9375
vt 0.0625 0.9375
vt 0.0625 1
vt 0.1875 1
vt 0.1875 0.9375
vt 0.0625 0.9375
vt 0.0625 1
vt 0.1875 1
vt 0.1875 0.9375
vt 0.0625 0.9375
vt 0.0625 1
vt 0.1875 1
vt 0.1875 0.9375
vt 0.0625 0.9375
vn 2.220446049250313e-16 0 1
vn -2.220446049250313e-16 0 -1
vn -5.948918735183964e-7 0.999999999999823 1.3209253102850403e-22
vn 5.948918734490074e-7 -0.999999999999823 -1.3209253101309656e-22
vn -0.9999999999998814 4.873047915092411e-7 2.2204460492500498e-16
vn 0.9999999999998814 -4.873047910651536e-7 -2.2204460492500498e-16
vn 2.220446049250313e-16 0 1
vn -2.220446049250313e-16 0 -1
vn -4.873047910651537e-7 -0.9999999999998814 1.0820339981013697e-22
vn -0.9999999999474664 0.000010250248173605915 2.220446049133665e-16
vn 0.9999999999998814 -4.873047912871972e-7 -2.2204460492500498e-16
vn 2.220446049250313e-16 0 1
vn -2.220446049250313e-16 0 -1
vn -4.873047910651537e-7 -0.9999999999998814 1.0820339981013697e-22
vn -0.9999999999474664 0.000010250248173605915 2.220446049133665e-16
vn 0.9999999999998814 -4.873047912871972e-7 -2.2204460492500498e-16
vn 2.220446049250313e-16 0 1
vn -2.220446049250313e-16 0 -1
vn -0.08715313225592297 -0.9961949264767321 1.935188281974542e-17
vn 0.08715313225592307 0.9961949264767321 -1.935188281974544e-17
vn -0.9961950824179274 0.08715134976773935 2.211997435037477e-16
vn 0.9961950824179274 -0.08715134976773893 -2.211997435037477e-16
vn 2.220446049250313e-16 0 1
vn -2.220446049250313e-16 0 -1
vn -0.08715313225592296 -0.9961949264767321 1.9351882819745416e-17
vn 0.08715313225592307 0.9961949264767321 -1.935188281974544e-17
vn -0.9961950824179274 0.08715134976773936 2.211997435037477e-16
vn 0.9961950824179274 -0.08715134976773893 -2.211997435037477e-16
usemtl track_8
f 4/1/1 2/2/1 1/3/1
f 4/1/1 1/3/1 3/4/1
f 7/5/2 5/6/2 6/7/2
f 7/5/2 6/7/2 8/8/2
f 1/9/3 2/10/3 6/11/3
f 1/9/3 6/11/3 5/12/3
f 4/13/4 3/14/4 7/15/4
f 4/13/4 7/15/4 8/16/4
f 3/17/5 1/18/5 5/19/5
f 3/17/5 5/19/5 7/20/5
f 8/21/6 6/22/6 2/23/6
f 8/21/6 2/23/6 4/24/6
f 12/25/7 10/26/7 9/27/7
f 12/25/7 9/27/7 11/28/7
f 15/29/8 13/30/8 14/31/8
f 15/29/8 14/31/8 16/32/8
f 12/33/9 11/34/9 15/35/9
f 12/33/9 15/35/9 16/36/9
f 11/37/10 9/38/10 13/39/10
f 11/37/10 13/39/10 15/40/10
f 16/41/11 14/42/11 10/43/11
f 16/41/11 10/43/11 12/44/11
f 20/45/12 18/46/12 17/47/12
f 20/45/12 17/47/12 19/48/12
f 23/49/13 21/50/13 22/51/13
f 23/49/13 22/51/13 24/52/13
f 20/53/14 19/54/14 23/55/14
f 20/53/14 23/55/14 24/56/14
f 19/57/15 17/58/15 21/59/15
f 19/57/15 21/59/15 23/60/15
f 24/61/16 22/62/16 18/63/16
f 24/61/16 18/63/16 20/64/16
f 25/65/17 26/66/17 28/67/17
f 25/65/17 28/67/17 27/68/17
f 30/69/18 29/70/18 31/71/18
f 30/69/18 31/71/18 32/72/18
f 30/73/19 26/74/19 25/75/19
f 30/73/19 25/75/19 29/76/19
f 31/77/20 27/78/20 28/79/20
f 31/77/20 28/79/20 32/80/20
f 29/81/21 25/82/21 27/83/21
f 29/81/21 27/83/21 31/84/21
f 26/85/22 30/86/22 32/87/22
f 26/85/22 32/87/22 28/88/22
f 33/89/23 34/90/23 36/91/23
f 33/89/23 36/91/23 35/92/23
f 38/93/24 37/94/24 39/95/24
f 38/93/24 39/95/24 40/96/24
f 38/97/25 34/98/25 33/99/25
f 38/97/25 33/99/25 37/100/25
f 39/101/26 35/102/26 36/103/26
f 39/101/26 36/103/26 40/104/26
f 37/105/27 33/106/27 35/107/27
f 37/105/27 35/107/27 39/108/27
f 34/109/28 38/110/28 40/111/28
f 34/109/28 40/111/28 36/112/28