# Made by Pabilo8 with Blockbench
# Exported with IIToolkit Plugin
mtllib packer.mtl


o container_energy
v 0 3.125 3
v 0 3.125 1
v 0 0.25 3
v 0 0.25 1
v 0 3.125 3
v 0 3.125 1
v 2 3.125 3
v 2 3.125 1
v 0 3.125 2
v 2 3.125 2
v 2 0.25 1
v 0 0.25 2
v 2 0.25 2
v 0 0.25 1
v 0 0.25 3
v 2 0.25 3
v 1.3125 3.1875 2.5
v 1.3125 3.1875 1.5
v 1.3125 3.125 2.5
v 1.3125 3.125 1.5
v 1.5 3.1875 2.5
v 1.5 3.1875 1.5
v 1.5 3.125 2.5
v 1.5 3.125 1.5
v 0.6875 3.1875 1.6875
v 0.6875 3.1875 1.5
v 0.6875 3.125 1.6875
v 0.6875 3.125 1.5
v 1.3125 3.1875 1.6875
v 1.3125 3.125 1.6875
v 0.5 3.1875 2.5
v 0.5 3.1875 1.5
v 0.5 3.125 2.5
v 0.5 3.125 1.5
v 0.6875 3.1875 2.5
v 0.6875 3.125 2.5
v 0.6875 3.1875 2.3125
v 0.6875 3.125 2.3125
v 1.3125 3.1875 2.3125
v 1.3125 3.125 2.3125
v 0.6875 3.140625 1.6875
v 1.3125 3.140625 1.6875
v 0.6875 3.140625 2.3125
v 1.3125 3.140625 2.3125
v 0.75 3.1875 2.25
v 0.75 3.1875 1.75
v 0.75 3.125 2.25
v 0.75 3.125 1.75
v 1.25 3.1875 2.25
v 1.25 3.1875 1.75
v 1.25 3.125 2.25
v 1.25 3.125 1.75
v 1.3125 0.1875 2.5
v 1.3125 0.1875 1.5
v 1.3125 0.25 2.5
v 1.3125 0.25 1.5
v 1.5 0.1875 2.5
v 1.5 0.1875 1.5
v 1.5 0.25 2.5
v 1.5 0.25 1.5
v 0.6875 0.1875 1.6875
v 0.6875 0.1875 1.5
v 0.6875 0.25 1.6875
v 0.6875 0.25 1.5
v 1.3125 0.1875 1.6875
v 1.3125 0.25 1.6875
v 0.5 0.1875 2.5
v 0.5 0.1875 1.5
v 0.5 0.25 2.5
v 0.5 0.25 1.5
v 0.6875 0.1875 2.5
v 0.6875 0.25 2.5
v 0.6875 0.1875 2.3125
v 0.6875 0.25 2.3125
v 1.3125 0.1875 2.3125
v 1.3125 0.25 2.3125
v 0.6875 0.234375 1.6875
v 1.3125 0.234375 1.6875
v 0.6875 0.234375 2.3125
v 1.3125 0.234375 2.3125
v 0.75 0.1875 2.25
v 0.75 0.1875 1.75
v 0.75 0.25 2.25
v 0.75 0.25 1.75
v 1.25 0.1875 2.25
v 1.25 0.1875 1.75
v 1.25 0.25 2.25
v 1.25 0.25 1.75
v 0 2.9375 1.1875
v 0 2.9375 2.8125
v 0 0.4375 1.1875
v 0 0.4375 2.8125
v 0.0625 2.9375 1.1875
v 0.0625 2.9375 2.8125
v 0.0625 0.4375 1.1875
v 0.0625 0.4375 2.8125
v 0.0625 2.125 2.5625
v 0.0625 2.125 1.4375
v 0.0625 1.375 2.5625
v 0.0625 1.375 1.4375
v 0 2.125 2.5625
v 0 2.125 1.4375
v 0 1.375 2.5625
v 0 1.375 1.4375
v 1.9375 2.9375 1.1875
v 1.9375 2.9375 2.8125
v 1.9375 0.4375 1.1875
v 1.9375 0.4375 2.8125
v 2 2.9375 1.1875
v 2 2.9375 2.8125
v 2 0.4375 2.8125
v 2 0.4375 1.1875
v 2 0.25 3
v 2 0.25 1
v 2 3.125 3
v 2 3.125 1
v 1.9375 2.125 2.5625
v 1.9375 2.125 1.4375
v 1.9375 1.375 2.5625
v 1.9375 1.375 1.4375
v 2 2.125 2.5625
v 2 2.125 1.4375
v 2 1.375 2.5625
v 2 1.375 1.4375
v 0.1875 2.9375 2.9375
v 1.8125 2.9375 2.9375
v 0.1875 0.4375 2.9375
v 1.8125 0.4375 2.9375
v 0.1875 2.9375 3
v 1.8125 2.9375 3
v 1.8125 0.4375 3
v 0.1875 0.4375 3
v 2 0.25 3
v 0 0.25 3
v 2 3.125 3
v 0 3.125 3
v 0.5625 2.9375 3
v 0.5625 2.8125 3
v 0.5625 2.8125 2.9375
v 1.375 2.9375 3
v 1.375 2.8125 3
v 1.375 2.8125 2.9375
v 1.3125 2.8125 3
v 1.3125 2.8125 2.9375
v 1.3125 0.5625 3
v 1.3125 0.5625 2.9375
v 1.375 2.8125 3
v 1.375 0.5625 3
v 0.5625 2.8125 3
v 0.5625 0.5625 3
v 0.625 2.8125 3
v 0.625 2.8125 2.9375
v 0.625 0.5625 3
v 0.625 0.5625 2.9375
v 0.5625 0.5625 3
v 0.5625 0.5625 2.9375
v 0.5625 0.4375 3
v 1.375 0.5625 3
v 1.375 0.5625 2.9375
v 1.375 0.4375 3
v 0.5625 2.9375 3
v 1.375 2.9375 3
v 0.5625 2.9375 2.9375
v 1.375 2.9375 2.9375
v 0.5625 0.4375 2.9375
v 1.375 0.4375 2.9375
v 0.5625 0.4375 3
v 1.375 0.4375 3
v 0.1875 2.9375 1.0625
v 1.8125 2.9375 1.0625
v 0.1875 0.4375 1.0625
v 1.8125 0.4375 1.0625
v 0.1875 2.9375 1
v 1.8125 2.9375 1
v 1.8125 0.4375 1
v 0.1875 0.4375 1
v 2 0.25 1
v 0 0.25 1
v 2 3.125 1
v 0 3.125 1
v 0.5625 2.9375 1
v 0.5625 2.8125 1
v 0.5625 2.8125 1.0625
v 1.375 2.9375 1
v 1.375 2.8125 1
v 1.375 2.8125 1.0625
v 1.3125 2.8125 1
v 1.3125 2.8125 1.0625
v 1.3125 0.5625 1
v 1.3125 0.5625 1.0625
v 1.375 2.8125 1
v 1.375 0.5625 1
v 0.5625 2.8125 1
v 0.5625 0.5625 1
v 0.625 2.8125 1
v 0.625 2.8125 1.0625
v 0.625 0.5625 1
v 0.625 0.5625 1.0625
v 0.5625 0.5625 1
v 0.5625 0.5625 1.0625
v 0.5625 0.4375 1
v 1.375 0.5625 1
v 1.375 0.5625 1.0625
v 1.375 0.4375 1
v 0.5625 2.9375 1
v 1.375 2.9375 1
v 0.5625 2.9375 1.0625
v 1.375 2.9375 1.0625
v 0.5625 0.4375 1.0625
v 1.375 0.4375 1.0625
v 0.5625 0.4375 1
v 1.375 0.4375 1
vt 0.046875 0.046875
vt 0.046875 0.453125
vt 0.671875 0.453125
vt 0.671875 0.046875
vt 0.96875 1
vt 0.96875 0.5
vt 0.71875 0.5
vt 0.71875 1
vt 0.96875 0.5
vt 0.96875 1
vt 0.71875 1
vt 0.71875 0.5
vt 0.71875 0.5
vt 0.96875 0.5
vt 0.96875 1
vt 0.71875 1
vt 0.71875 1
vt 0.96875 1
vt 0.96875 0.5
vt 0.71875 0.5
vt 0.71875 0
vt 0.71875 0.25
vt 0.734375 0.25
vt 0.734375 0
vt 0.71875 0.25
vt 0.765625 0.25
vt 0.765625 0
vt 0.71875 0
vt 0.71875 0.015625
vt 0.765625 0.015625
vt 0.765625 0
vt 0.71875 0
vt 0.71875 0.25
vt 0.765625 0.25
vt 0.765625 0.234375
vt 0.71875 0.234375
vt 0.765625 0.25
vt 0.921875 0.25
vt 0.921875 0.203125
vt 0.765625 0.203125
vt 0.765625 0.21875
vt 0.921875 0.21875
vt 0.921875 0.203125
vt 0.765625 0.203125
vt 0.765625 0.25
vt 0.921875 0.25
vt 0.921875 0.234375
vt 0.765625 0.234375
vt 0.953125 0
vt 0.953125 0.25
vt 0.96875 0.25
vt 0.96875 0
vt 0.921875 0.25
vt 0.96875 0.25
vt 0.96875 0
vt 0.921875 0
vt 0.921875 0.015625
vt 0.96875 0.015625
vt 0.96875 0
vt 0.921875 0
vt 0.921875 0.25
vt 0.96875 0.25
vt 0.96875 0.234375
vt 0.921875 0.234375
vt 0.765625 0.046875
vt 0.921875 0.046875
vt 0.921875 0
vt 0.765625 0
vt 0.765625 0.015625
vt 0.921875 0.015625
vt 0.921875 0
vt 0.765625 0
vt 0.765625 0.046875
vt 0.921875 0.046875
vt 0.921875 0.03125
vt 0.765625 0.03125
vt 0.9375 0.046875
vt 0.921875 0.046875
vt 0.921875 0.203125
vt 0.9375 0.203125
vt 0.765625 0.046875
vt 0.75 0.046875
vt 0.75 0.203125
vt 0.765625 0.203125
vt 0.765625 0.046875
vt 0.765625 0.203125
vt 0.921875 0.203125
vt 0.921875 0.046875
vt 0.890625 0.0625
vt 0.890625 0.1875
vt 0.90625 0.1875
vt 0.90625 0.0625
vt 0.78125 0.0625
vt 0.78125 0.1875
vt 0.796875 0.1875
vt 0.796875 0.0625
vt 0.78125 0.1875
vt 0.90625 0.1875
vt 0.90625 0.0625
vt 0.78125 0.0625
vt 0.78125 0.078125
vt 0.90625 0.078125
vt 0.90625 0.0625
vt 0.78125 0.0625
vt 0.78125 0.1875
vt 0.90625 0.1875
vt 0.90625 0.171875
vt 0.78125 0.171875
vt 0.734375 0.25
vt 0.71875 0.25
vt 0.71875 0
vt 0.734375 0
vt 0.765625 0
vt 0.765625 0.25
vt 0.71875 0.25
vt 0.71875 0
vt 0.765625 0
vt 0.765625 0.015625
vt 0.71875 0.015625
vt 0.71875 0
vt 0.765625 0.234375
vt 0.765625 0.25
vt 0.71875 0.25
vt 0.71875 0.234375
vt 0.921875 0.203125
vt 0.921875 0.25
vt 0.765625 0.25
vt 0.765625 0.203125
vt 0.921875 0.203125
vt 0.921875 0.21875
vt 0.765625 0.21875
vt 0.765625 0.203125
vt 0.921875 0.234375
vt 0.921875 0.25
vt 0.765625 0.25
vt 0.765625 0.234375
vt 0.96875 0.25
vt 0.953125 0.25
vt 0.953125 0
vt 0.96875 0
vt 0.96875 0
vt 0.96875 0.25
vt 0.921875 0.25
vt 0.921875 0
vt 0.96875 0
vt 0.96875 0.015625
vt 0.921875 0.015625
vt 0.921875 0
vt 0.96875 0.234375
vt 0.96875 0.25
vt 0.921875 0.25
vt 0.921875 0.234375
vt 0.921875 0
vt 0.921875 0.046875
vt 0.765625 0.046875
vt 0.765625 0
vt 0.921875 0
vt 0.921875 0.015625
vt 0.765625 0.015625
vt 0.765625 0
vt 0.921875 0.03125
vt 0.921875 0.046875
vt 0.765625 0.046875
vt 0.765625 0.03125
vt 0.921875 0.203125
vt 0.921875 0.046875
vt 0.9375 0.046875
vt 0.9375 0.203125
vt 0.75 0.203125
vt 0.75 0.046875
vt 0.765625 0.046875
vt 0.765625 0.203125
vt 0.921875 0.203125
vt 0.765625 0.203125
vt 0.765625 0.046875
vt 0.921875 0.046875
vt 0.90625 0.1875
vt 0.890625 0.1875
vt 0.890625 0.0625
vt 0.90625 0.0625
vt 0.796875 0.1875
vt 0.78125 0.1875
vt 0.78125 0.0625
vt 0.796875 0.0625
vt 0.90625 0.0625
vt 0.90625 0.1875
vt 0.78125 0.1875
vt 0.78125 0.0625
vt 0.90625 0.0625
vt 0.90625 0.078125
vt 0.78125 0.078125
vt 0.78125 0.0625
vt 0.90625 0.171875
vt 0.90625 0.1875
vt 0.78125 0.1875
vt 0.78125 0.171875
vt 0.71875 0.5
vt 0.671875 0.453125
vt 0.046875 0.453125
vt 0 0.5
vt 0 0.5
vt 0.046875 0.453125
vt 0.046875 0.046875
vt 0 0
vt 0 0
vt 0.046875 0.046875
vt 0.671875 0.046875
vt 0.71875 0
vt 0.71875 0
vt 0.671875 0.046875
vt 0.671875 0.453125
vt 0.71875 0.5
vt 0.671875 0.46875
vt 0.671875 0.453125
vt 0.046875 0.453125
vt 0.046875 0.46875
vt 0.046875 0.453125
vt 0.03125 0.453125
vt 0.03125 0.046875
vt 0.046875 0.046875
vt 0.046875 0.046875
vt 0.046875 0.03125
vt 0.671875 0.03125
vt 0.671875 0.046875
vt 0.6875 0.046875
vt 0.671875 0.046875
vt 0.671875 0.453125
vt 0.6875 0.453125
vt 1 0.25
vt 1 0.4375
vt 0.71875 0.4375
vt 0.71875 0.25
vt 1 0.4375
vt 0.71875 0.4375
vt 0.71875 0.421875
vt 1 0.421875
vt 1 0.265625
vt 0.71875 0.265625
vt 0.71875 0.25
vt 1 0.25
vt 1 0.25
vt 1 0.4375
vt 0.984375 0.4375
vt 0.984375 0.25
vt 0.734375 0.25
vt 0.734375 0.4375
vt 0.71875 0.4375
vt 0.71875 0.25
vt 0.671875 0.453125
vt 0.046875 0.453125
vt 0.046875 0.046875
vt 0.671875 0.046875
vt 0.046875 0.453125
vt 0.671875 0.453125
vt 0.71875 0.5
vt 0 0.5
vt 0.046875 0.046875
vt 0.046875 0.453125
vt 0 0.5
vt 0 0
vt 0.671875 0.046875
vt 0.046875 0.046875
vt 0 0
vt 0.71875 0
vt 0.671875 0.453125
vt 0.671875 0.046875
vt 0.71875 0
vt 0.71875 0.5
vt 0.046875 0.453125
vt 0.671875 0.453125
vt 0.671875 0.46875
vt 0.046875 0.46875
vt 0.03125 0.046875
vt 0.03125 0.453125
vt 0.046875 0.453125
vt 0.046875 0.046875
vt 0.671875 0.03125
vt 0.046875 0.03125
vt 0.046875 0.046875
vt 0.671875 0.046875
vt 0.671875 0.453125
vt 0.671875 0.046875
vt 0.6875 0.046875
vt 0.6875 0.453125
vt 0.71875 0.4375
vt 1 0.4375
vt 1 0.25
vt 0.71875 0.25
vt 0.71875 0.421875
vt 0.71875 0.4375
vt 1 0.4375
vt 1 0.421875
vt 0.71875 0.25
vt 0.71875 0.265625
vt 1 0.265625
vt 1 0.25
vt 0.984375 0.4375
vt 1 0.4375
vt 1 0.25
vt 0.984375 0.25
vt 0.71875 0.4375
vt 0.734375 0.4375
vt 0.734375 0.25
vt 0.71875 0.25
vt 0.046875 0.546875
vt 0.046875 0.953125
vt 0.671875 0.953125
vt 0.671875 0.546875
vt 0.71875 1
vt 0.671875 0.953125
vt 0.046875 0.953125
vt 0 1
vt 0 1
vt 0.046875 0.953125
vt 0.046875 0.546875
vt 0 0.5
vt 0 0.5
vt 0.046875 0.546875
vt 0.671875 0.546875
vt 0.71875 0.5
vt 0.71875 0.5
vt 0.671875 0.546875
vt 0.671875 0.953125
vt 0.71875 1
vt 0.671875 0.96875
vt 0.671875 0.953125
vt 0.046875 0.953125
vt 0.046875 0.96875
vt 0.046875 0.953125
vt 0.03125 0.953125
vt 0.03125 0.546875
vt 0.046875 0.546875
vt 0.046875 0.546875
vt 0.046875 0.53125
vt 0.671875 0.53125
vt 0.671875 0.546875
vt 0.6875 0.546875
vt 0.671875 0.546875
vt 0.671875 0.953125
vt 0.6875 0.953125
vt 0.0625 0.65625
vt 0.0625 0.859375
vt 0.078125 0.859375
vt 0.078125 0.65625
vt 0.046875 0.65625
vt 0.046875 0.859375
vt 0.078125 0.859375
vt 0.078125 0.65625
vt 0.078125 0.65625
vt 0.078125 0.671875
vt 0.640625 0.671875
vt 0.640625 0.65625
vt 0.078125 0.65625
vt 0.078125 0.671875
vt 0.640625 0.671875
vt 0.640625 0.65625
vt 0.078125 0.84375
vt 0.078125 0.859375
vt 0.640625 0.859375
vt 0.640625 0.84375
vt 0.078125 0.84375
vt 0.078125 0.859375
vt 0.640625 0.859375
vt 0.640625 0.84375
vt 0.640625 0.65625
vt 0.640625 0.859375
vt 0.65625 0.859375
vt 0.65625 0.65625
vt 0.640625 0.65625
vt 0.640625 0.859375
vt 0.671875 0.859375
vt 0.671875 0.65625
vt 0.671875 0.859375
vt 0.671875 0.84375
vt 0.046875 0.84375
vt 0.046875 0.859375
vt 0.046875 0.65625
vt 0.046875 0.671875
vt 0.671875 0.671875
vt 0.671875 0.65625
vt 0.671875 0.953125
vt 0.046875 0.953125
vt 0.046875 0.546875
vt 0.671875 0.546875
vt 0.046875 0.953125
vt 0.671875 0.953125
vt 0.71875 1
vt 0 1
vt 0.046875 0.546875
vt 0.046875 0.953125
vt 0 1
vt 0 0.5
vt 0.671875 0.546875
vt 0.046875 0.546875
vt 0 0.5
vt 0.71875 0.5
vt 0.671875 0.953125
vt 0.671875 0.546875
vt 0.71875 0.5
vt 0.71875 1
vt 0.046875 0.953125
vt 0.671875 0.953125
vt 0.671875 0.96875
vt 0.046875 0.96875
vt 0.03125 0.546875
vt 0.03125 0.953125
vt 0.046875 0.953125
vt 0.046875 0.546875
vt 0.671875 0.53125
vt 0.046875 0.53125
vt 0.046875 0.546875
vt 0.671875 0.546875
vt 0.671875 0.953125
vt 0.671875 0.546875
vt 0.6875 0.546875
vt 0.6875 0.953125
vt 0.078125 0.859375
vt 0.0625 0.859375
vt 0.0625 0.65625
vt 0.078125 0.65625
vt 0.078125 0.859375
vt 0.046875 0.859375
vt 0.046875 0.65625
vt 0.078125 0.65625
vt 0.640625 0.671875
vt 0.078125 0.671875
vt 0.078125 0.65625
vt 0.640625 0.65625
vt 0.640625 0.671875
vt 0.078125 0.671875
vt 0.078125 0.65625
vt 0.640625 0.65625
vt 0.640625 0.859375
vt 0.078125 0.859375
vt 0.078125 0.84375
vt 0.640625 0.84375
vt 0.640625 0.859375
vt 0.078125 0.859375
vt 0.078125 0.84375
vt 0.640625 0.84375
vt 0.65625 0.859375
vt 0.640625 0.859375
vt 0.640625 0.65625
vt 0.65625 0.65625
vt 0.671875 0.859375
vt 0.640625 0.859375
vt 0.640625 0.65625
vt 0.671875 0.65625
vt 0.046875 0.84375
vt 0.671875 0.84375
vt 0.671875 0.859375
vt 0.046875 0.859375
vt 0.671875 0.671875
vt 0.046875 0.671875
vt 0.046875 0.65625
vt 0.671875 0.65625
vn -1 0 0
vn 0 1 0
vn 0 1 0
vn 0 -1 0
vn 0 -1 0
vn 1 0 0
vn 0 1 0
vn 0 0 1
vn 0 0 -1
vn 0 1 0
vn 0 0 1
vn 0 0 -1
vn -1 0 0
vn 0 1 0
vn 0 0 1
vn 0 0 -1
vn 0 1 0
vn 0 0 1
vn 0 0 -1
vn 1 0 0
vn -1 0 0
vn 0 1 0
vn -1 0 0
vn 1 0 0
vn 0 1 0
vn 0 0 1
vn 0 0 -1
vn 1 0 0
vn 0 -1 0
vn 0 0 1
vn 0 0 -1
vn 0 -1 0
vn 0 0 1
vn 0 0 -1
vn -1 0 0
vn 0 -1 0
vn 0 0 1
vn 0 0 -1
vn 0 -1 0
vn 0 0 1
vn 0 0 -1
vn 1 0 0
vn -1 0 0
vn 0 -1 0
vn -1 0 0
vn 1 0 0
vn 0 -1 0
vn 0 0 1
vn 0 0 -1
vn -1 0 0
vn -1 0 0
vn -1 0 0
vn -1 0 0
vn 0 0 1
vn 0 -1 0
vn 0 0 -1
vn 0 1 0
vn -1 0 0
vn 0 1 0
vn 0 -1 0
vn 0 0 1
vn 0 0 -1
vn 1 0 0
vn 1 0 0
vn 1 0 0
vn 1 0 0
vn 1 0 0
vn 0 0 1
vn 0 -1 0
vn 0 0 -1
vn 0 1 0
vn 1 0 0
vn 0 1 0
vn 0 -1 0
vn 0 0 1
vn 0 0 -1
vn 0 0 1
vn 0 0 1
vn 0 0 1
vn 0 0 1
vn 0 0 1
vn 1 0 0
vn 0 -1 0
vn -1 0 0
vn 0 1 0
vn 0 -1 0
vn 0 0 1
vn -1 0 0
vn 0 0 1
vn 1 0 0
vn 0 0 1
vn 0 1 0
vn 0 0 1
vn -1 0 0
vn 1 0 0
vn 0 0 -1
vn 0 0 -1
vn 0 0 -1
vn 0 0 -1
vn 0 0 -1
vn 1 0 0
vn 0 -1 0
vn -1 0 0
vn 0 1 0
vn 0 -1 0
vn 0 0 -1
vn -1 0 0
vn 0 0 -1
vn 1 0 0
vn 0 0 -1
vn 0 1 0
vn 0 0 -1
vn -1 0 0
vn 1 0 0
usemtl container_energy
f 94/1/1 93/2/1 95/3/1
f 94/1/1 95/3/1 96/4/1
f 9/5/2 10/6/2 8/7/2
f 9/5/2 8/7/2 6/8/2
f 10/9/3 9/10/3 5/11/3
f 10/9/3 5/11/3 7/12/3
f 11/13/4 13/14/4 12/15/4
f 11/13/4 12/15/4 14/16/4
f 15/17/5 12/18/5 13/19/5
f 15/17/5 13/19/5 16/20/5
f 22/21/6 21/22/6 23/23/6
f 22/21/6 23/23/6 24/24/6
f 22/25/7 18/26/7 17/27/7
f 22/25/7 17/27/7 21/28/7
f 21/29/8 17/30/8 19/31/8
f 21/29/8 19/31/8 23/32/8
f 18/33/9 22/34/9 24/35/9
f 18/33/9 24/35/9 20/36/9
f 18/37/10 26/38/10 25/39/10
f 18/37/10 25/39/10 29/40/10
f 29/41/11 25/42/11 27/43/11
f 29/41/11 27/43/11 30/44/11
f 26/45/12 18/46/12 20/47/12
f 26/45/12 20/47/12 28/48/12
f 31/49/13 32/50/13 34/51/13
f 31/49/13 34/51/13 33/52/13
f 26/53/14 32/54/14 31/55/14
f 26/53/14 31/55/14 35/56/14
f 35/57/15 31/58/15 33/59/15
f 35/57/15 33/59/15 36/60/15
f 32/61/16 26/62/16 28/63/16
f 32/61/16 28/63/16 34/64/16
f 39/65/17 37/66/17 35/67/17
f 39/65/17 35/67/17 17/68/17
f 17/69/18 35/70/18 36/71/18
f 17/69/18 36/71/18 19/72/18
f 37/73/19 39/74/19 40/75/19
f 37/73/19 40/75/19 38/76/19
f 27/77/20 25/78/20 37/79/20
f 27/77/20 37/79/20 38/80/20
f 40/81/21 39/82/21 29/83/21
f 40/81/21 29/83/21 30/84/21
f 44/85/22 42/86/22 41/87/22
f 44/85/22 41/87/22 43/88/22
f 45/89/23 46/90/23 48/91/23
f 45/89/23 48/91/23 47/92/23
f 50/93/24 49/94/24 51/95/24
f 50/93/24 51/95/24 52/96/24
f 50/97/25 46/98/25 45/99/25
f 50/97/25 45/99/25 49/100/25
f 49/101/26 45/102/26 47/103/26
f 49/101/26 47/103/26 51/104/26
f 46/105/27 50/106/27 52/107/27
f 46/105/27 52/107/27 48/108/27
f 59/109/28 57/110/28 58/111/28
f 59/109/28 58/111/28 60/112/28
f 53/113/29 54/114/29 58/115/29
f 53/113/29 58/115/29 57/116/29
f 55/117/30 53/118/30 57/119/30
f 55/117/30 57/119/30 59/120/30
f 60/121/31 58/122/31 54/123/31
f 60/121/31 54/123/31 56/124/31
f 61/125/32 62/126/32 54/127/32
f 61/125/32 54/127/32 65/128/32
f 63/129/33 61/130/33 65/131/33
f 63/129/33 65/131/33 66/132/33
f 56/133/34 54/134/34 62/135/34
f 56/133/34 62/135/34 64/136/34
f 70/137/35 68/138/35 67/139/35
f 70/137/35 67/139/35 69/140/35
f 67/141/36 68/142/36 62/143/36
f 67/141/36 62/143/36 71/144/36
f 69/145/37 67/146/37 71/147/37
f 69/145/37 71/147/37 72/148/37
f 64/149/38 62/150/38 68/151/38
f 64/149/38 68/151/38 70/152/38
f 71/153/39 73/154/39 75/155/39
f 71/153/39 75/155/39 53/156/39
f 72/157/40 71/158/40 53/159/40
f 72/157/40 53/159/40 55/160/40
f 76/161/41 75/162/41 73/163/41
f 76/161/41 73/163/41 74/164/41
f 73/165/42 61/166/42 63/167/42
f 73/165/42 63/167/42 74/168/42
f 65/169/43 75/170/43 76/171/43
f 65/169/43 76/171/43 66/172/43
f 77/173/44 78/174/44 80/175/44
f 77/173/44 80/175/44 79/176/44
f 84/177/45 82/178/45 81/179/45
f 84/177/45 81/179/45 83/180/45
f 87/181/46 85/182/46 86/183/46
f 87/181/46 86/183/46 88/184/46
f 81/185/47 82/186/47 86/187/47
f 81/185/47 86/187/47 85/188/47
f 83/189/48 81/190/48 85/191/48
f 83/189/48 85/191/48 87/192/48
f 88/193/49 86/194/49 82/195/49
f 88/193/49 82/195/49 84/196/49
f 4/197/50 91/198/50 89/199/50
f 4/197/50 89/199/50 2/200/50
f 2/201/51 89/202/51 90/203/51
f 2/201/51 90/203/51 1/204/51
f 1/205/52 90/206/52 92/207/52
f 1/205/52 92/207/52 3/208/52
f 3/209/53 92/210/53 91/211/53
f 3/209/53 91/211/53 4/212/53
f 91/213/54 95/214/54 93/215/54
f 91/213/54 93/215/54 89/216/54
f 89/217/55 93/218/55 94/219/55
f 89/217/55 94/219/55 90/220/55
f 90/221/56 94/222/56 96/223/56
f 90/221/56 96/223/56 92/224/56
f 92/225/57 96/226/57 95/227/57
f 92/225/57 95/227/57 91/228/57
f 103/229/58 101/230/58 102/231/58
f 103/229/58 102/231/58 104/232/58
f 97/233/59 98/234/59 102/235/59
f 97/233/59 102/235/59 101/236/59
f 100/237/60 99/238/60 103/239/60
f 100/237/60 103/239/60 104/240/60
f 99/241/61 97/242/61 101/243/61
f 99/241/61 101/243/61 103/244/61
f 104/245/62 102/246/62 98/247/62
f 104/245/62 98/247/62 100/248/62
f 107/249/63 105/250/63 106/251/63
f 107/249/63 106/251/63 108/252/63
f 109/253/64 112/254/64 114/255/64
f 109/253/64 114/255/64 116/256/64
f 110/257/65 109/258/65 116/259/65
f 110/257/65 116/259/65 115/260/65
f 111/261/66 110/262/66 115/263/66
f 111/261/66 115/263/66 113/264/66
f 112/265/67 111/266/67 113/267/67
f 112/265/67 113/267/67 114/268/67
f 105/269/68 107/270/68 112/271/68
f 105/269/68 112/271/68 109/272/68
f 106/273/69 105/274/69 109/275/69
f 106/273/69 109/275/69 110/276/69
f 108/277/70 106/278/70 110/279/70
f 108/277/70 110/279/70 111/280/70
f 107/281/71 108/282/71 111/283/71
f 107/281/71 111/283/71 112/284/71
f 122/285/72 121/286/72 123/287/72
f 122/285/72 123/287/72 124/288/72
f 122/289/73 118/290/73 117/291/73
f 122/289/73 117/291/73 121/292/73
f 123/293/74 119/294/74 120/295/74
f 123/293/74 120/295/74 124/296/74
f 121/297/75 117/298/75 119/299/75
f 121/297/75 119/299/75 123/300/75
f 118/301/76 122/302/76 124/303/76
f 118/301/76 124/303/76 120/304/76
f 126/305/77 125/306/77 127/307/77
f 126/305/77 127/307/77 128/308/77
f 134/309/78 132/310/78 129/311/78
f 134/309/78 129/311/78 136/312/78
f 136/313/79 129/314/79 130/315/79
f 136/313/79 130/315/79 135/316/79
f 135/317/80 130/318/80 131/319/80
f 135/317/80 131/319/80 133/320/80
f 133/321/81 131/322/81 132/323/81
f 133/321/81 132/323/81 134/324/81
f 132/325/82 127/326/82 125/327/82
f 132/325/82 125/327/82 129/328/82
f 129/329/83 125/330/83 126/331/83
f 129/329/83 126/331/83 130/332/83
f 130/333/84 126/334/84 128/335/84
f 130/333/84 128/335/84 131/336/84
f 131/337/85 128/338/85 127/339/85
f 131/337/85 127/339/85 132/340/85
f 141/341/86 138/342/86 139/343/86
f 141/341/86 139/343/86 142/344/86
f 140/345/87 137/346/87 138/347/87
f 140/345/87 138/347/87 141/348/87
f 143/349/88 144/350/88 146/351/88
f 143/349/88 146/351/88 145/352/88
f 147/353/89 143/354/89 145/355/89
f 147/353/89 145/355/89 148/356/89
f 152/357/90 151/358/90 153/359/90
f 152/357/90 153/359/90 154/360/90
f 151/361/91 149/362/91 150/363/91
f 151/361/91 150/363/91 153/364/91
f 159/365/92 156/366/92 155/367/92
f 159/365/92 155/367/92 158/368/92
f 158/369/93 155/370/93 157/371/93
f 158/369/93 157/371/93 160/372/93
f 166/373/94 168/374/94 162/375/94
f 166/373/94 162/375/94 164/376/94
f 163/377/95 161/378/95 167/379/95
f 163/377/95 167/379/95 165/380/95
f 171/381/96 169/382/96 170/383/96
f 171/381/96 170/383/96 172/384/96
f 173/385/97 176/386/97 178/387/97
f 173/385/97 178/387/97 180/388/97
f 174/389/98 173/390/98 180/391/98
f 174/389/98 180/391/98 179/392/98
f 175/393/99 174/394/99 179/395/99
f 175/393/99 179/395/99 177/396/99
f 176/397/100 175/398/100 177/399/100
f 176/397/100 177/399/100 178/400/100
f 169/401/101 171/402/101 176/403/101
f 169/401/101 176/403/101 173/404/101
f 170/405/102 169/406/102 173/407/102
f 170/405/102 173/407/102 174/408/102
f 172/409/103 170/410/103 174/411/103
f 172/409/103 174/411/103 175/412/103
f 171/413/104 172/414/104 175/415/104
f 171/413/104 175/415/104 176/416/104
f 183/417/105 182/418/105 185/419/105
f 183/417/105 185/419/105 186/420/105
f 182/421/106 181/422/106 184/423/106
f 182/421/106 184/423/106 185/424/106
f 190/425/107 188/426/107 187/427/107
f 190/425/107 187/427/107 189/428/107
f 189/429/108 187/430/108 191/431/108
f 189/429/108 191/431/108 192/432/108
f 197/433/109 195/434/109 196/435/109
f 197/433/109 196/435/109 198/436/109
f 194/437/110 193/438/110 195/439/110
f 194/437/110 195/439/110 197/440/110
f 199/441/111 200/442/111 203/443/111
f 199/441/111 203/443/111 202/444/111
f 201/445/112 199/446/112 202/447/112
f 201/445/112 202/447/112 204/448/112
f 206/449/113 212/450/113 210/451/113
f 206/449/113 210/451/113 208/452/113
f 211/453/114 205/454/114 207/455/114
f 211/453/114 207/455/114 209/456/114
o energy_input
v -0.75 0.75 3
v -0.75 0.75 2.9375
v -0.75 0.25 3
v -0.75 0.25 2.9375
v -0.25 0.75 3
v -0.25 0.75 2.9375
v -0.25 0.25 3
v -0.25 0.25 2.9375
v -0.625 0.9375 3.009375
v -0.625 0.9375 2.9375
v -0.625 0.75 3.009375
v -0.625 0.75 2.9375
v -0.375 0.9375 3.009375
v -0.375 0.9375 2.9375
v -0.375 0.75 3.009375
v -0.375 0.75 2.9375
v -0.9999999999999982 1 3
v -1 1 2.75
v -0.9999999999999991 0 3
v -1 0 2.75
v 8.881784197001252e-16 1 3
v 0 1 2.75
v 8.881784197001252e-16 0 3
v 0 0 2.75
v -0.12499999999999933 0.875 3
v -0.874999999999996 0.875 2.999999999999999
v -0.874999999999996 0.125 2.999999999999999
v -0.12499999999999933 0.125 3
v -0.12499999999999956 0.125 2.9375000000000004
v -0.12499999999999956 0.875 2.9375000000000004
v -0.8749999999999962 0.125 2.9375000000000004
v -0.8749999999999962 0.875 2.9375000000000004
vt 0.609375 0.125
vt 0.625 0.125
vt 0.625 0
vt 0.609375 0
vt 0.5 0.125
vt 0.515625 0.125
vt 0.515625 0
vt 0.5 0
vt 0.5 0.125
vt 0.625 0.125
vt 0.625 0.109375
vt 0.5 0.109375
vt 0.5 0.015625
vt 0.625 0.015625
vt 0.625 0
vt 0.5 0
vt 0.5 0.125
vt 0.625 0.125
vt 0.625 0
vt 0.5 0
vt 0.046875 0.734375
vt 0.0625 0.734375
vt 0.0625 0.6875
vt 0.046875 0.6875
vt 0 0.734375
vt 0.015625 0.734375
vt 0.015625 0.6875
vt 0 0.6875
vt 0 0.734375
vt 0.0625 0.734375
vt 0.0625 0.71875
vt 0 0.71875
vt 0 0.734375
vt 0.0625 0.734375
vt 0.0625 0.6875
vt 0 0.6875
vt 0.5 0.25
vt 0.5 0.3125
vt 0.75 0.3125
vt 0.75 0.25
vt 0.5 0.3125
vt 0.5 0.25
vt 0.75 0.25
vt 0.75 0.3125
vt 0.75 0.3125
vt 0.5 0.3125
vt 0.5 0.25
vt 0.75 0.25
vt 0.75 0.25
vt 1 0.25
vt 1 0
vt 0.75 0
vt 0.96875 0.03125
vt 0.96875 0.21875
vt 0.78125 0.21875
vt 0.78125 0.03125
vt 0.96875 0.21875
vt 0.96875 0.03125
vt 1 0
vt 1 0.25
vt 0.78125 0.21875
vt 0.96875 0.21875
vt 1 0.25
vt 0.75 0.25
vt 0.78125 0.03125
vt 0.78125 0.21875
vt 0.75 0.25
vt 0.75 0
vt 0.96875 0.03125
vt 0.78125 0.03125
vt 0.75 0
vt 1 0
vt 0.984375 0.03125
vt 0.984375 0.21875
vt 0.96875 0.21875
vt 0.96875 0.03125
vt 0.78125 0.21875
vt 0.96875 0.21875
vt 0.96875 0.234375
vt 0.78125 0.234375
vt 0.78125 0.03125
vt 0.78125 0.21875
vt 0.765625 0.21875
vt 0.765625 0.03125
vt 0.96875 0.015625
vt 0.78125 0.015625
vt 0.78125 0.03125
vt 0.96875 0.03125
vn -1 0 0
vn 1 0 0
vn 0 1 0
vn 0 -1 0
vn 0 0 1
vn -1 0 0
vn 1 0 0
vn 0 1 0
vn 0 0 1
vn -1 0 7.105427357601002e-15
vn 1 0 -3.552713678800501e-15
vn 0 1 0
vn 0 0 -1
vn 0 0 1
vn 0 0 1
vn -1.1842378929335056e-15 1.1842378929335077e-15 1
vn 7.105427357600876e-15 0 1
vn -1.1842378929335056e-15 8.289665250534537e-15 1
vn -1 0 3.552713678800526e-15
vn 0 -1 0
vn 1 0 -3.552713678800577e-15
vn 0 1 0
usemtl common_thingies
f 213/457/115 214/458/115 216/459/115
f 213/457/115 216/459/115 215/460/115
f 218/461/116 217/462/116 219/463/116
f 218/461/116 219/463/116 220/464/116
f 218/465/117 214/466/117 213/467/117
f 218/465/117 213/467/117 217/468/117
f 219/469/118 215/470/118 216/471/118
f 219/469/118 216/471/118 220/472/118
f 217/473/119 213/474/119 215/475/119
f 217/473/119 215/475/119 219/476/119
f 221/477/120 222/478/120 224/479/120
f 221/477/120 224/479/120 223/480/120
f 226/481/121 225/482/121 227/483/121
f 226/481/121 227/483/121 228/484/121
f 226/485/122 222/486/122 221/487/122
f 226/485/122 221/487/122 225/488/122
f 225/489/123 221/490/123 223/491/123
f 225/489/123 223/491/123 227/492/123
usemtl packer
f 229/493/124 230/494/124 232/495/124
f 229/493/124 232/495/124 231/496/124
f 234/497/125 233/498/125 235/499/125
f 234/497/125 235/499/125 236/500/125
f 234/501/126 230/502/126 229/503/126
f 234/501/126 229/503/126 233/504/126
usemtl common_steel
f 230/505/127 234/506/127 236/507/127
f 230/505/127 236/507/127 232/508/127
f 241/509/128 242/510/128 244/511/128
f 241/509/128 244/511/128 243/512/128
f 237/513/129 240/514/129 235/515/129
f 237/513/129 235/515/129 233/516/129
f 238/517/130 237/518/130 233/519/130
f 238/517/130 233/519/130 229/520/130
f 239/521/131 238/522/131 229/523/131
f 239/521/131 229/523/131 231/524/131
f 240/525/132 239/526/132 231/527/132
f 240/525/132 231/527/132 235/528/132
f 242/529/133 241/530/133 240/531/133
f 242/529/133 240/531/133 237/532/133
f 244/533/134 242/534/134 237/535/134
f 244/533/134 237/535/134 238/536/134
f 243/537/135 244/538/135 238/539/135
f 243/537/135 238/539/135 239/540/135
f 241/541/136 243/542/136 239/543/136
f 241/541/136 239/543/136 240/544/136
o energy_output
v 2.0000000000000018 0.75 0.7499999999999982
v 2.0000000000000018 0.75 0.24999999999999822
v 2.0000000000000018 0.25 0.7499999999999982
v 2.0000000000000018 0.25 0.24999999999999822
v 1.9375000000000018 0.75 0.7499999999999982
v 1.9375000000000018 0.75 0.24999999999999822
v 1.9375000000000018 0.25 0.7499999999999982
v 1.9375000000000018 0.25 0.24999999999999822
vt 0.625 0
vt 0.625 0.125
vt 0.5 0.125
vt 0.5 0
vt 0.625 0
vt 0.625 0.125
vt 0.5 0.125
vt 0.5 0
vt 0.5 0.125
vt 0.625 0.125
vt 0.625 0.109375
vt 0.5 0.109375
vt 0.625 0.015625
vt 0.5 0.015625
vt 0.5 0
vt 0.625 0
vt 0.515625 0
vt 0.515625 0.125
vt 0.5 0.125
vt 0.5 0
vt 0.625 0
vt 0.625 0.125
vt 0.609375 0.125
vt 0.609375 0
vn 1 0 0
vn -1 0 0
vn 0 1 0
vn 0 -1 0
vn 0 0 1
vn 0 0 -1
usemtl common_thingies
f 248/545/137 246/546/137 245/547/137
f 248/545/137 245/547/137 247/548/137
f 251/549/138 249/550/138 250/551/138
f 251/549/138 250/551/138 252/552/138
f 245/553/139 246/554/139 250/555/139
f 245/553/139 250/555/139 249/556/139
f 248/557/140 247/558/140 251/559/140
f 248/557/140 251/559/140 252/560/140
f 247/561/141 245/562/141 249/563/141
f 247/561/141 249/563/141 251/564/141
f 252/565/142 250/566/142 246/567/142
f 252/565/142 246/567/142 248/568/142
o energy_back
v -1 1 2.125
v -1 1 1.9375
v -1 0 2.125
v -1 0 1.9375
v 0 1 2.125
v 0 1 1.9375
v 0 0 2.125
v 0 0 1.9375
vt 0.5 0.3125
vt 0.5 0.359375
vt 0.75 0.359375
vt 0.75 0.3125
vt 0.5 0.3125
vt 0.5 0.359375
vt 0.75 0.359375
vt 0.75 0.3125
vt 0.75 0.3125
vt 0.5 0.3125
vt 0.5 0.359375
vt 0.75 0.359375
vt 0.75 0.25
vt 1 0.25
vt 1 0
vt 0.75 0
vt 0.75 0.25
vt 1 0.25
vt 1 0
vt 0.75 0
vn -1 0 0
vn 1 0 0
vn 0 1 0
vn 0 0 1
vn 0 0 -1
usemtl packer
f 253/569/143 254/570/143 256/571/143
f 253/569/143 256/571/143 255/572/143
f 258/573/144 257/574/144 259/575/144
f 258/573/144 259/575/144 260/576/144
f 258/577/145 254/578/145 253/579/145
f 258/577/145 253/579/145 257/580/145
usemtl common_steel
f 257/581/146 253/582/146 255/583/146
f 257/581/146 255/583/146 259/584/146
f 254/585/147 258/586/147 260/587/147
f 254/585/147 260/587/147 256/588/147
o cable1
v -0.9375 0.875 2.75
v -0.9375 0.8125 2.5
v -0.9375 0.625 2.75
v -0.9375 0.625 2.5
v -0.6875 0.875 2.75
v -0.6875 0.8125 2.5
v -0.6875 0.625 2.75
v -0.6875 0.625 2.5
vt 1 0.75
vt 0.75 0.75
vt 0.75 0.5
vt 1 0.5
vt 0.75 0.75
vt 1 0.75
vt 1 0.5
vt 0.75 0.5
vt 0.25 0.74230625
vt 0 0.74230625
vt 0 1
vt 0.25 1
vt 0 0.9375
vt 0.25 0.9375
vt 0.25 0.75
vt 0 0.75
vt 0.75 0.75
vt 0.75 1
vt 1 1
vt 1 0.75
vt 1 1
vt 1 0.75
vt 0.75 0.75
vt 0.75 1
vn -1 0 0
vn 1 0 0
vn 0 0.9701425001453319 -0.24253562503633297
vn 0 0 -1
vn 0 0 1
vn 0 -1 0
usemtl common_copper_cable
f 261/589/148 262/590/148 264/591/148
f 261/589/148 264/591/148 263/592/148
f 266/593/149 265/594/149 267/595/149
f 266/593/149 267/595/149 268/596/149
f 266/597/150 262/598/150 261/599/150
f 266/597/150 261/599/150 265/600/150
f 262/601/151 266/602/151 268/603/151
f 262/601/151 268/603/151 264/604/151
f 267/605/152 265/606/152 261/607/152
f 267/605/152 261/607/152 263/608/152
f 263/609/153 264/610/153 268/611/153
f 263/609/153 268/611/153 267/612/153
o cable2
v -0.9375 0.625 2.75
v -0.9375 0.625 2.5
v -0.9375 0.25 2.75
v -0.9375 0.25 2.5
v -0.6875 0.625 2.75
v -0.6875 0.625 2.5
v -0.6875 0.25 2.75
v -0.6875 0.25 2.5
vt 0 0.8125
vt 0.25 0.8125
vt 0.25 0.4375
vt 0 0.4375
vt 0 0.8125
vt 0.25 0.8125
vt 0.25 0.4375
vt 0 0.4375
vt 0.75 1
vt 1 1
vt 1 0.75
vt 0.75 0.75
vt 0.75 1
vt 1 1
vt 1 0.75
vt 0.75 0.75
vt 0 0.8125
vt 0.25 0.8125
vt 0.25 0.4375
vt 0 0.4375
vt 0 0.8125
vt 0.25 0.8125
vt 0.25 0.4375
vt 0 0.4375
vn -1 0 0
vn 1 0 0
vn 0 1 0
vn 0 -1 0
vn 0 0 1
vn 0 0 -1
usemtl common_copper_cable
f 269/613/154 270/614/154 272/615/154
f 269/613/154 272/615/154 271/616/154
f 274/617/155 273/618/155 275/619/155
f 274/617/155 275/619/155 276/620/155
f 274/621/156 270/622/156 269/623/156
f 274/621/156 269/623/156 273/624/156
f 275/625/157 271/626/157 272/627/157
f 275/625/157 272/627/157 276/628/157
f 273/629/158 269/630/158 271/631/158
f 273/629/158 271/631/158 275/632/158
f 270/633/159 274/634/159 276/635/159
f 270/633/159 276/635/159 272/636/159
o cable3
v -0.9375 0.25 2.75
v -0.9375 0.25 2.5
v -0.9375 0.0625 2.75
v -0.9375 0 2.5
v -0.6875 0.25 2.75
v -0.6875 0.25 2.5
v -0.6875 0.0625 2.75
v -0.6875 0 2.5
vt 1 0.75
vt 1 0.5
vt 0.75 0.5
vt 0.75 0.75
vt 1 0.5
vt 0.75 0.5
vt 0.75 0.75
vt 1 0.75
vt 0.75 1
vt 1 1
vt 1 0.75
vt 0.75 0.75
vt 0 0.5625
vt 0.25 0.5625
vt 0.25 0.30480624999999995
vt 0 0.30480624999999995
vt 0 0.9375
vt 0.25 0.9375
vt 0.25 0.75
vt 0 0.75
vt 0.75 1
vt 1 1
vt 1 0.75
vt 0.75 0.75
vn -1 0 0
vn 1 0 0
vn 0 1 0
vn 0 -0.9701425001453319 0.24253562503633297
vn 0 0 1
vn 0 0 -1
usemtl common_copper_cable
f 277/637/160 278/638/160 280/639/160
f 277/637/160 280/639/160 279/640/160
f 282/641/161 281/642/161 283/643/161
f 282/641/161 283/643/161 284/644/161
f 282/645/162 278/646/162 277/647/162
f 282/645/162 277/647/162 281/648/162
f 283/649/163 279/650/163 280/651/163
f 283/649/163 280/651/163 284/652/163
f 281/653/164 277/654/164 279/655/164
f 281/653/164 279/655/164 283/656/164
f 278/657/165 282/658/165 284/659/165
f 278/657/165 284/659/165 280/660/165
o cable4
v -0.9375 0.25 2.5
v -0.9375 0.25 2.125
v -0.9375 0 2.5
v -0.9375 0 2.125
v -0.6875 0.25 2.5
v -0.6875 0.25 2.125
v -0.6875 0 2.5
v -0.6875 0 2.125
vt 0 0
vt 0 0.375
vt 0.25 0.375
vt 0.25 0
vt 0 0.375
vt 0 0
vt 0.25 0
vt 0.25 0.375
vt 0 0.375
vt 0.25 0.375
vt 0.25 0
vt 0 0
vt 0 0
vt 0.25 0
vt 0.25 0.375
vt 0 0.375
vt 0.75 1
vt 1 1
vt 1 0.75
vt 0.75 0.75
vt 0.75 1
vt 1 1
vt 1 0.75
vt 0.75 0.75
vn -1 0 0
vn 1 0 0
vn 0 1 0
vn 0 -1 0
vn 0 0 1
vn 0 0 -1
usemtl common_copper_cable
f 285/661/166 286/662/166 288/663/166
f 285/661/166 288/663/166 287/664/166
f 290/665/167 289/666/167 291/667/167
f 290/665/167 291/667/167 292/668/167
f 290/669/168 286/670/168 285/671/168
f 290/669/168 285/671/168 289/672/168
f 291/673/169 287/674/169 288/675/169
f 291/673/169 288/675/169 292/676/169
f 289/677/170 285/678/170 287/679/170
f 289/677/170 287/679/170 291/680/170
f 286/681/171 290/682/171 292/683/171
f 286/681/171 292/683/171 288/684/171
o cable5
v -0.3125 0.875 2.75
v -0.3125 0.8125 2.5
v -0.3125 0.625 2.75
v -0.3125 0.625 2.5
v -0.0625 0.875 2.75
v -0.0625 0.8125 2.5
v -0.0625 0.625 2.75
v -0.0625 0.625 2.5
vt 1 0.75
vt 0.75 0.75
vt 0.75 0.5
vt 1 0.5
vt 0.75 0.75
vt 1 0.75
vt 1 0.5
vt 0.75 0.5
vt 0.25 0.74230625
vt 0 0.74230625
vt 0 1
vt 0.25 1
vt 0 0.9375
vt 0.25 0.9375
vt 0.25 0.75
vt 0 0.75
vt 0.75 0.75
vt 0.75 1
vt 1 1
vt 1 0.75
vt 1 1
vt 1 0.75
vt 0.75 0.75
vt 0.75 1
vn -1 0 0
vn 1 0 0
vn 0 0.9701425001453319 -0.24253562503633297
vn 0 0 -1
vn 0 0 1
vn 0 -1 0
usemtl common_copper_cable
f 293/685/172 294/686/172 296/687/172
f 293/685/172 296/687/172 295/688/172
f 298/689/173 297/690/173 299/691/173
f 298/689/173 299/691/173 300/692/173
f 298/693/174 294/694/174 293/695/174
f 298/693/174 293/695/174 297/696/174
f 294/697/175 298/698/175 300/699/175
f 294/697/175 300/699/175 296/700/175
f 299/701/176 297/702/176 293/703/176
f 299/701/176 293/703/176 295/704/176
f 295/705/177 296/706/177 300/707/177
f 295/705/177 300/707/177 299/708/177
o cable6
v -0.3125 0.625 2.75
v -0.3125 0.625 2.5
v -0.3125 0.25 2.75
v -0.3125 0.25 2.5
v -0.0625 0.625 2.75
v -0.0625 0.625 2.5
v -0.0625 0.25 2.75
v -0.0625 0.25 2.5
vt 0 0.8125
vt 0.25 0.8125
vt 0.25 0.4375
vt 0 0.4375
vt 0 0.8125
vt 0.25 0.8125
vt 0.25 0.4375
vt 0 0.4375
vt 0.75 1
vt 1 1
vt 1 0.75
vt 0.75 0.75
vt 0.75 1
vt 1 1
vt 1 0.75
vt 0.75 0.75
vt 0 0.8125
vt 0.25 0.8125
vt 0.25 0.4375
vt 0 0.4375
vt 0 0.8125
vt 0.25 0.8125
vt 0.25 0.4375
vt 0 0.4375
vn -1 0 0
vn 1 0 0
vn 0 1 0
vn 0 -1 0
vn 0 0 1
vn 0 0 -1
usemtl common_copper_cable
f 301/709/178 302/710/178 304/711/178
f 301/709/178 304/711/178 303/712/178
f 306/713/179 305/714/179 307/715/179
f 306/713/179 307/715/179 308/716/179
f 306/717/180 302/718/180 301/719/180
f 306/717/180 301/719/180 305/720/180
f 307/721/181 303/722/181 304/723/181
f 307/721/181 304/723/181 308/724/181
f 305/725/182 301/726/182 303/727/182
f 305/725/182 303/727/182 307/728/182
f 302/729/183 306/730/183 308/731/183
f 302/729/183 308/731/183 304/732/183
o cable7
v -0.3125 0.25 2.75
v -0.3125 0.25 2.5
v -0.3125 0.0625 2.75
v -0.3125 0 2.5
v -0.0625 0.25 2.75
v -0.0625 0.25 2.5
v -0.0625 0.0625 2.75
v -0.0625 0 2.5
vt 1 0.75
vt 1 0.5
vt 0.75 0.5
vt 0.75 0.75
vt 1 0.5
vt 0.75 0.5
vt 0.75 0.75
vt 1 0.75
vt 0.75 1
vt 1 1
vt 1 0.75
vt 0.75 0.75
vt 0 0.5625
vt 0.25 0.5625
vt 0.25 0.30480624999999995
vt 0 0.30480624999999995
vt 0 0.9375
vt 0.25 0.9375
vt 0.25 0.75
vt 0 0.75
vt 0.75 1
vt 1 1
vt 1 0.75
vt 0.75 0.75
vn -1 0 0
vn 1 0 0
vn 0 1 0
vn 0 -0.9701425001453319 0.24253562503633297
vn 0 0 1
vn 0 0 -1
usemtl common_copper_cable
f 309/733/184 310/734/184 312/735/184
f 309/733/184 312/735/184 311/736/184
f 314/737/185 313/738/185 315/739/185
f 314/737/185 315/739/185 316/740/185
f 314/741/186 310/742/186 309/743/186
f 314/741/186 309/743/186 313/744/186
f 315/745/187 311/746/187 312/747/187
f 315/745/187 312/747/187 316/748/187
f 313/749/188 309/750/188 311/751/188
f 313/749/188 311/751/188 315/752/188
f 310/753/189 314/754/189 316/755/189
f 310/753/189 316/755/189 312/756/189
o cable8
v -0.3125 0.25 2.5
v -0.3125 0.25 2.125
v -0.3125 0 2.5
v -0.3125 0 2.125
v -0.0625 0.25 2.5
v -0.0625 0.25 2.125
v -0.0625 0 2.5
v -0.0625 0 2.125
vt 0 0
vt 0 0.375
vt 0.25 0.375
vt 0.25 0
vt 0 0.375
vt 0 0
vt 0.25 0
vt 0.25 0.375
vt 0 0.375
vt 0.25 0.375
vt 0.25 0
vt 0 0
vt 0 0
vt 0.25 0
vt 0.25 0.375
vt 0 0.375
vt 0.75 1
vt 1 1
vt 1 0.75
vt 0.75 0.75
vt 0.75 1
vt 1 1
vt 1 0.75
vt 0.75 0.75
vn -1 0 0
vn 1 0 0
vn 0 1 0
vn 0 -1 0
vn 0 0 1
vn 0 0 -1
usemtl common_copper_cable
f 317/757/190 318/758/190 320/759/190
f 317/757/190 320/759/190 319/760/190
f 322/761/191 321/762/191 323/763/191
f 322/761/191 323/763/191 324/764/191
f 322/765/192 318/766/192 317/767/192
f 322/765/192 317/767/192 321/768/192
f 323/769/193 319/770/193 320/771/193
f 323/769/193 320/771/193 324/772/193
f 321/773/194 317/774/194 319/775/194
f 321/773/194 319/775/194 323/776/194
f 318/777/195 322/778/195 324/779/195
f 318/777/195 324/779/195 320/780/195
o cable9
v -0.625 0.875 2.125
v -0.625 0.8125 2.375
v -0.625 0.625 2.125
v -0.625 0.625 2.375
v -0.375 0.875 2.125
v -0.375 0.8125 2.375
v -0.375 0.625 2.125
v -0.375 0.625 2.375
vt 0.75 0.5
vt 0.75 0.75
vt 1 0.75
vt 1 0.5
vt 1 0.5
vt 1 0.75
vt 0.75 0.75
vt 0.75 0.5
vt 0 1
vt 0 0.74230625
vt 0.25 0.74230625
vt 0.25 1
vt 0.25 0.75
vt 0.25 0.9375
vt 0 0.9375
vt 0 0.75
vt 1 1
vt 0.75 1
vt 0.75 0.75
vt 1 0.75
vt 0.75 0.75
vt 1 0.75
vt 1 1
vt 0.75 1
vn -1 0 0
vn 1 0 0
vn 0 0.9701425001453319 0.24253562503633297
vn 0 0 1
vn 0 0 -1
vn 0 -1 0
usemtl common_copper_cable
f 328/781/196 326/782/196 325/783/196
f 328/781/196 325/783/196 327/784/196
f 331/785/197 329/786/197 330/787/197
f 331/785/197 330/787/197 332/788/197
f 325/789/198 326/790/198 330/791/198
f 325/789/198 330/791/198 329/792/198
f 332/793/199 330/794/199 326/795/199
f 332/793/199 326/795/199 328/796/199
f 325/797/200 329/798/200 331/799/200
f 325/797/200 331/799/200 327/800/200
f 332/801/201 328/802/201 327/803/201
f 332/801/201 327/803/201 331/804/201
o cable10
v -0.625 0.625 2.125
v -0.625 0.625 2.375
v -0.625 0.25 2.125
v -0.625 0.25 2.375
v -0.375 0.625 2.125
v -0.375 0.625 2.375
v -0.375 0.25 2.125
v -0.375 0.25 2.375
vt 0.25 0.4375
vt 0.25 0.8125
vt 0 0.8125
vt 0 0.4375
vt 0.25 0.4375
vt 0.25 0.8125
vt 0 0.8125
vt 0 0.4375
vt 1 0.75
vt 1 1
vt 0.75 1
vt 0.75 0.75
vt 1 0.75
vt 1 1
vt 0.75 1
vt 0.75 0.75
vt 0.25 0.4375
vt 0.25 0.8125
vt 0 0.8125
vt 0 0.4375
vt 0.25 0.4375
vt 0.25 0.8125
vt 0 0.8125
vt 0 0.4375
vn -1 0 0
vn 1 0 0
vn 0 1 0
vn 0 -1 0
vn 0 0 -1
vn 0 0 1
usemtl common_copper_cable
f 336/805/202 334/806/202 333/807/202
f 336/805/202 333/807/202 335/808/202
f 339/809/203 337/810/203 338/811/203
f 339/809/203 338/811/203 340/812/203
f 333/813/204 334/814/204 338/815/204
f 333/813/204 338/815/204 337/816/204
f 336/817/205 335/818/205 339/819/205
f 336/817/205 339/819/205 340/820/205
f 335/821/206 333/822/206 337/823/206
f 335/821/206 337/823/206 339/824/206
f 340/825/207 338/826/207 334/827/207
f 340/825/207 334/827/207 336/828/207
o cable11
v -0.625 0.25 2.125
v -0.625 0.25 2.375
v -0.625 0.0625 2.125
v -0.625 0 2.375
v -0.375 0.25 2.125
v -0.375 0.25 2.375
v -0.375 0.0625 2.125
v -0.375 0 2.375
vt 0.75 0.5
vt 1 0.5
vt 1 0.75
vt 0.75 0.75
vt 0.75 0.75
vt 0.75 0.5
vt 1 0.5
vt 1 0.75
vt 1 0.75
vt 1 1
vt 0.75 1
vt 0.75 0.75
vt 0.25 0.30480624999999995
vt 0.25 0.5625
vt 0 0.5625
vt 0 0.30480624999999995
vt 0.25 0.75
vt 0.25 0.9375
vt 0 0.9375
vt 0 0.75
vt 1 0.75
vt 1 1
vt 0.75 1
vt 0.75 0.75
vn -1 0 0
vn 1 0 0
vn 0 1 0
vn 0 -0.9701425001453319 -0.24253562503633297
vn 0 0 -1
vn 0 0 1
usemtl common_copper_cable
f 344/829/208 342/830/208 341/831/208
f 344/829/208 341/831/208 343/832/208
f 347/833/209 345/834/209 346/835/209
f 347/833/209 346/835/209 348/836/209
f 341/837/210 342/838/210 346/839/210
f 341/837/210 346/839/210 345/840/210
f 344/841/211 343/842/211 347/843/211
f 344/841/211 347/843/211 348/844/211
f 343/845/212 341/846/212 345/847/212
f 343/845/212 345/847/212 347/848/212
f 348/849/213 346/850/213 342/851/213
f 348/849/213 342/851/213 344/852/213
o cable12
v -0.625 0.25 2.375
v -0.625 0.25 2.75
v -0.625 0 2.375
v -0.625 0 2.75
v -0.375 0.25 2.375
v -0.375 0.25 2.75
v -0.375 0 2.375
v -0.375 0 2.75
vt 0.25 0.375
vt 0 0.375
vt 0 0
vt 0.25 0
vt 0.25 0
vt 0 0
vt 0 0.375
vt 0.25 0.375
vt 0.25 0
vt 0.25 0.375
vt 0 0.375
vt 0 0
vt 0.25 0.375
vt 0.25 0
vt 0 0
vt 0 0.375
vt 1 0.75
vt 1 1
vt 0.75 1
vt 0.75 0.75
vt 1 0.75
vt 1 1
vt 0.75 1
vt 0.75 0.75
vn -1 0 0
vn 1 0 0
vn 0 1 0
vn 0 -1 0
vn 0 0 -1
vn 0 0 1
usemtl common_copper_cable
f 352/853/214 350/854/214 349/855/214
f 352/853/214 349/855/214 351/856/214
f 355/857/215 353/858/215 354/859/215
f 355/857/215 354/859/215 356/860/215
f 349/861/216 350/862/216 354/863/216
f 349/861/216 354/863/216 353/864/216
f 352/865/217 351/866/217 355/867/217
f 352/865/217 355/867/217 356/868/217
f 351/869/218 349/870/218 353/871/218
f 351/869/218 353/871/218 355/872/218
f 356/873/219 354/874/219 350/875/219
f 356/873/219 350/875/219 352/876/219