# Made by Pabilo8 with Blockbench
# Exported with IIToolkit Plugin
mtllib packer.mtl


o container_items
v 0 3.125 3
v 0 3.125 1
v 0 0.25 3
v 0 0.25 1
v 2 3.125 3
v 2 3.125 1
v 2 0.25 3
v 2 0.25 1
v 0 3.125 3
v 0 3.125 1
v 2 3.125 3
v 2 3.125 1
v 0 3.125 2
v 2 3.125 2
v 2 0.25 1
v 0 0.25 2
v 2 0.25 2
v 0 0.25 1
v 0 0.25 3
v 2 0.25 3
v 1.9375 2.6875 2.5625
v 1.9375 2.6875 1.4375
v 1.9375 0.6875 2.5625
v 1.9375 0.6875 1.4375
v 2 0.6875 1.4375
v 2 0.6875 2.5625
v 2 2.6875 1.4375
v 2 2.6875 2.5625
v 1.9375 2.6875 1.4375
v 1.9375 2.6875 2.5625
v 2 3.125 3
v 2 3.125 1
v 2 2.6875 3
v 2 2.6875 1
v 1.9375 2.6875 1.4375
v 1.9375 0.6875 1.4375
v 2 2.6875 1.4375
v 2 2.6875 1
v 2 0.6875 1.4375
v 2 0.6875 1
v 1.9375 2.6875 2.5625
v 1.9375 0.6875 2.5625
v 2 2.6875 3
v 2 2.6875 2.5625
v 2 0.6875 3
v 2 0.6875 2.5625
v 2 0.6875 3
v 2 0.6875 1
v 2 0.25 3
v 2 0.25 1
vt 0 0.5
vt 0 1
vt 0.71875 1
vt 0.71875 0.5
vt 0 0.5
vt 0 1
vt 0.71875 1
vt 0.71875 0.5
vt 0 0.5
vt 0 1
vt 0.71875 1
vt 0.71875 0.5
vt 0.984375 0.5
vt 0.984375 1
vt 0.734375 1
vt 0.734375 0.5
vt 0.984375 1
vt 0.984375 0.5
vt 0.734375 0.5
vt 0.734375 1
vt 0 0.5
vt 0.25 0.5
vt 0.25 0
vt 0 0
vt 0 0.5
vt 0.25 0.5
vt 0.25 0
vt 0 0
vt 0.109375 0.109375
vt 0.109375 0.390625
vt 0.609375 0.390625
vt 0.609375 0.109375
vt 0.609375 0.109375
vt 0.6171875 0.109375
vt 0.6171875 0.390625
vt 0.609375 0.390625
vt 0.1015625 0.109375
vt 0.109375 0.109375
vt 0.109375 0.390625
vt 0.1015625 0.390625
vt 0 0
vt 0 0.5
vt 0.109375 0.5
vt 0.109375 0
vt 0.109375 0
vt 0.109375 0.109375
vt 0.609375 0.109375
vt 0.609375 0
vt 0.109375 0.390625
vt 0.109375 0.5
vt 0.609375 0.5
vt 0.609375 0.390625
vt 0.6093750000000001 0.40624999999999967
vt 0.6093750000000001 0.39062499999999967
vt 0.109375 0.39062499999999967
vt 0.109375 0.40624999999999967
vt 0.609375 0
vt 0.609375 0.5
vt 0.71875 0.5
vt 0.71875 0
vt 0.10937500000000001 0.09374999999999967
vt 0.10937500000000001 0.10937499999999967
vt 0.609375 0.10937499999999967
vt 0.609375 0.09374999999999967
vn -1 0 0
vn 0 0 1
vn 0 0 -1
vn 0 1 0
vn 0 1 0
vn 0 -1 0
vn 0 -1 0
vn 1 0 0
vn 0 -1 0
vn 0 -1 0
vn 1 0 0
vn 1 0 0
vn 1 0 0
vn 0 0 -1
vn 1 0 0
vn 0 0 1
usemtl container_items
f 1/1/1 2/2/1 4/3/1
f 1/1/1 4/3/1 3/4/1
f 5/5/2 1/6/2 3/7/2
f 5/5/2 3/7/2 7/8/2
f 2/9/3 6/10/3 8/11/3
f 2/9/3 8/11/3 4/12/3
f 13/13/4 14/14/4 12/15/4
f 13/13/4 12/15/4 10/16/4
f 14/17/5 13/18/5 9/19/5
f 14/17/5 9/19/5 11/20/5
f 15/21/6 17/22/6 16/23/6
f 15/21/6 16/23/6 18/24/6
f 19/25/7 16/26/7 17/27/7
f 19/25/7 17/27/7 20/28/7
f 22/29/8 21/30/8 23/31/8
f 22/29/8 23/31/8 24/32/8
f 24/33/9 25/34/9 26/35/9
f 24/33/9 26/35/9 23/36/9
f 29/37/10 27/38/10 28/39/10
f 29/37/10 28/39/10 30/40/10
f 32/41/11 31/42/11 33/43/11
f 32/41/11 33/43/11 34/44/11
f 38/45/12 37/46/12 39/47/12
f 38/45/12 39/47/12 40/48/12
f 44/49/13 43/50/13 45/51/13
f 44/49/13 45/51/13 46/52/13
f 41/53/14 44/54/14 46/55/14
f 41/53/14 46/55/14 42/56/14
f 48/57/15 47/58/15 49/59/15
f 48/57/15 49/59/15 50/60/15
f 37/61/16 35/62/16 36/63/16
f 37/61/16 36/63/16 39/64/16
o item_input
v -0.0625 0.1875 3
v -0.0625 0.1875 1.9375
v -0.0625 0 3
v -0.0625 0 1.9375
v 0 0.1875 3
v 0 0.1875 1.9375
v 0 0 3
v 0 0 1.9375
v -0.9375 0.125 3
v -0.9375 0.125 1.9375
v -0.9375 0 3
v -0.0625 0.125 3
v -0.0625 0.125 1.9375
v -0.0625 0 3
v -1 0.1875 3
v -1 0.1875 1.9375
v -1 0 3
v -1 0 1.9375
v -0.9375 0.1875 3
v -0.9375 0.1875 1.9375
v -0.9375 0 3
v -0.9375 0 1.9375
v -0.9375 0.8125 2.1875
v -0.9375 0.75 2.1875
v -0.9375 0.75 1.9375
v -0.0625 0.8125 2.1875
v -0.0625 0.75 2.1875
v -0.0625 0.75 1.9375
v -0.0625 0.8125 2.1875
v -0.0625 0.8125 1.9375
v -0.0625 0.1875 2.1875
v -0.0625 0.1875 1.9375
v 0 0.8125 2.1875
v 0 0.8125 1.9375
v 0 0.1875 2.1875
v 0 0.1875 1.9375
v -1 0.8125 2.1875
v -1 0.8125 1.9375
v -1 0.1875 2.1875
v -1 0.1875 1.9375
v -0.9375 0.8125 2.1875
v -0.9375 0.8125 1.9375
v -0.9375 0.1875 2.1875
v -0.9375 0.1875 1.9375
v -0.625 1 2
v -0.625 1 1.9375
v -0.625 0.8125 2
v -0.625 0.8125 1.9375
v -0.375 1 2
v -0.375 1 1.9375
v -0.375 0.8125 2
v -0.375 0.8125 1.9375
vt 0.265625 0.296875
vt 0 0.296875
vt 0 0.25
vt 0.265625 0.25
vt 0 0.296875
vt 0.265625 0.296875
vt 0.265625 0.25
vt 0 0.25
vt 0 0.28125
vt 0 0.296875
vt 0.265625 0.296875
vt 0.265625 0.28125
vt 0.375 0.59375
vt 0.390625 0.59375
vt 0.390625 0.328125
vt 0.375 0.328125
vt 0.25 0.296875
vt 0.265625 0.296875
vt 0.265625 0.25
vt 0.25 0.25
vt 0.0625 1
vt 0.9375 1
vt 0.9375 0
vt 0.0625 0
vt 0.0625 0.125
vt 0.9375 0.125
vt 0.9375 0
vt 0.0625 0
vt 0.265625 0.296875
vt 0 0.296875
vt 0 0.25
vt 0.265625 0.25
vt 0 0.296875
vt 0.265625 0.296875
vt 0.265625 0.25
vt 0 0.25
vt 0 0.28125
vt 0 0.296875
vt 0.265625 0.296875
vt 0.265625 0.28125
vt 0.375 0.59375
vt 0.390625 0.59375
vt 0.390625 0.328125
vt 0.375 0.328125
vt 0.25 0.296875
vt 0.265625 0.296875
vt 0.265625 0.25
vt 0.25 0.25
vt 0.515625 0.3125
vt 0.734375 0.3125
vt 0.734375 0.25
vt 0.515625 0.25
vt 0.515625 0.265625
vt 0.734375 0.265625
vt 0.734375 0.25
vt 0.515625 0.25
vt 0.5 0.25
vt 0.5 0.3125
vt 0.65625 0.3125
vt 0.65625 0.25
vt 0.5 0.3125
vt 0.5 0.25
vt 0.65625 0.25
vt 0.65625 0.3125
vt 0.5 0.25
vt 0.5 0.265625
vt 0.65625 0.265625
vt 0.65625 0.25
vt 0.5 0.25
vt 0.5 0.3125
vt 0.65625 0.3125
vt 0.65625 0.25
vt 0.5 0.3125
vt 0.5 0.25
vt 0.65625 0.25
vt 0.65625 0.3125
vt 0.5 0.25
vt 0.5 0.265625
vt 0.65625 0.265625
vt 0.65625 0.25
vt 0.5 0.3125
vt 0.75 0.3125
vt 0.75 0.25
vt 0.5 0.25
vt 0.046875 0.734375
vt 0.0625 0.734375
vt 0.0625 0.6875
vt 0.046875 0.6875
vt 0 0.734375
vt 0.015625 0.734375
vt 0.015625 0.6875
vt 0 0.6875
vt 0 0.734375
vt 0.0625 0.734375
vt 0.0625 0.71875
vt 0 0.71875
vt 0 0.734375
vt 0.0625 0.734375
vt 0.0625 0.6875
vt 0 0.6875
vn -1 0 0
vn 1 0 0
vn 0 1 0
vn 0 -1 0
vn 0 0 1
vn 0 1 0
vn 0 0 1
vn -1 0 0
vn 1 0 0
vn 0 1 0
vn 0 -1 0
vn 0 0 1
vn 0 -1 0
vn 0 0 1
vn -1 0 0
vn 1 0 0
vn 0 0 1
vn -1 0 0
vn 1 0 0
vn 0 0 1
vn 0 1 0
vn -1 0 0
vn 1 0 0
vn 0 1 0
vn 0 0 1
usemtl packer
f 51/65/17 52/66/17 54/67/17
f 51/65/17 54/67/17 53/68/17
f 56/69/18 55/70/18 57/71/18
f 56/69/18 57/71/18 58/72/18
f 56/73/19 52/74/19 51/75/19
f 56/73/19 51/75/19 55/76/19
f 57/77/20 53/78/20 54/79/20
f 57/77/20 54/79/20 58/80/20
f 55/81/21 51/82/21 53/83/21
f 55/81/21 53/83/21 57/84/21
usemtl conveyor_off
f 63/85/22 60/86/22 59/87/22
f 63/85/22 59/87/22 62/88/22
f 62/89/23 59/90/23 61/91/23
f 62/89/23 61/91/23 64/92/23
usemtl packer
f 65/93/24 66/94/24 68/95/24
f 65/93/24 68/95/24 67/96/24
f 70/97/25 69/98/25 71/99/25
f 70/97/25 71/99/25 72/100/25
f 70/101/26 66/102/26 65/103/26
f 70/101/26 65/103/26 69/104/26
f 71/105/27 67/106/27 68/107/27
f 71/105/27 68/107/27 72/108/27
f 69/109/28 65/110/28 67/111/28
f 69/109/28 67/111/28 71/112/28
f 77/113/29 74/114/29 75/115/29
f 77/113/29 75/115/29 78/116/29
f 76/117/30 73/118/30 74/119/30
f 76/117/30 74/119/30 77/120/30
f 79/121/31 80/122/31 82/123/31
f 79/121/31 82/123/31 81/124/31
f 84/125/32 83/126/32 85/127/32
f 84/125/32 85/127/32 86/128/32
f 83/129/33 79/130/33 81/131/33
f 83/129/33 81/131/33 85/132/33
f 87/133/34 88/134/34 90/135/34
f 87/133/34 90/135/34 89/136/34
f 92/137/35 91/138/35 93/139/35
f 92/137/35 93/139/35 94/140/35
f 91/141/36 87/142/36 89/143/36
f 91/141/36 89/143/36 93/144/36
f 84/145/37 88/146/37 87/147/37
f 84/145/37 87/147/37 83/148/37
usemtl common_thingies
f 95/149/38 96/150/38 98/151/38
f 95/149/38 98/151/38 97/152/38
f 100/153/39 99/154/39 101/155/39
f 100/153/39 101/155/39 102/156/39
f 100/157/40 96/158/40 95/159/40
f 100/157/40 95/159/40 99/160/40
f 99/161/41 95/162/41 97/163/41
f 99/161/41 97/163/41 101/164/41
o item_output
v 2.0000000000000018 0.75 0.7499999999999982
v 2.0000000000000018 0.75 0.24999999999999822
v 2.0000000000000018 0.25 0.7499999999999982
v 2.0000000000000018 0.25 0.24999999999999822
v 1.9375000000000018 0.75 0.7499999999999982
v 1.9375000000000018 0.75 0.24999999999999822
v 1.9375000000000018 0.25 0.7499999999999982
v 1.9375000000000018 0.25 0.24999999999999822
vt 0.5 0.484375
vt 0.5 0.609375
vt 0.375 0.609375
vt 0.375 0.484375
vt 0.5 0.484375
vt 0.5 0.609375
vt 0.375 0.609375
vt 0.375 0.484375
vt 0.375 0.609375
vt 0.5 0.609375
vt 0.5 0.59375
vt 0.375 0.59375
vt 0.5 0.5
vt 0.375 0.5
vt 0.375 0.484375
vt 0.5 0.484375
vt 0.390625 0.484375
vt 0.390625 0.609375
vt 0.375 0.609375
vt 0.375 0.484375
vt 0.5 0.484375
vt 0.5 0.609375
vt 0.484375 0.609375
vt 0.484375 0.484375
vn 1 0 0
vn -1 0 0
vn 0 1 0
vn 0 -1 0
vn 0 0 1
vn 0 0 -1
usemtl common_thingies
f 106/165/42 104/166/42 103/167/42
f 106/165/42 103/167/42 105/168/42
f 109/169/43 107/170/43 108/171/43
f 109/169/43 108/171/43 110/172/43
f 103/173/44 104/174/44 108/175/44
f 103/173/44 108/175/44 107/176/44
f 106/177/45 105/178/45 109/179/45
f 106/177/45 109/179/45 110/180/45
f 105/181/46 103/182/46 107/183/46
f 105/181/46 107/183/46 109/184/46
f 110/185/47 108/186/47 104/187/47
f 110/185/47 104/187/47 106/188/47