# Made by Pabilo8 with Blockbench
# Exported with IIToolkit Plugin
mtllib packer.mtl


o railbed
v 0 -0.8359374999999997 -0.9375
v -1 -1 -0.0625
v -1 -1 -0.9375
v 0 -0.8359374999999997 -0.0625
v 1 -0.8359374999999997 -0.0625
v 1 -0.8359374999999997 -0.9375
v 2 -1 -0.0625
v 2 -1 -0.9375
v 1 -1 -0.9375
v 2 -1 -0.9375
v 1 -1 -0.0625
v 2 -1 -0.0625
v 1 -1 -0.9375
v 0 -1 -0.9375
v 0 -1 -0.0625
v 1 -1 -0.0625
v 0 -1 -0.9375
v -1 -1 -0.9375
v -1 -1 -0.0625
v 0 -1 -0.0625
vt 0.062499999999999944 0
vt 0.06250000000000006 1
vt 0.9375 1
vt 0.9375 0
vt 0.062499999999999944 0
vt 0.06250000000000006 1
vt 0.9375 1
vt 0.9375 0
vt 0.062499999999999944 0
vt 0.06250000000000006 1
vt 0.9375 1
vt 0.9375 0
vt 0.9375 1
vt 0.06250000000000006 1
vt 0.062499999999999944 0
vt 0.9375 0
vt 0.9375 1
vt 0.06250000000000006 1
vt 0.062499999999999944 0
vt 0.9375 0
vt 0.9375 1
vt 0.06250000000000006 1
vt 0.062499999999999944 0
vt 0.9375 0
vn -0.16189810234325724 0.9868074809493755 0
vn 0 1 0
vn 0.16189810234325724 0.9868074809493755 0
vn 0 -1 0
vn 0 -1 0
vn 0 -1 0
usemtl gravel
f 1/1/1 3/2/1 2/3/1
f 1/1/1 2/3/1 4/4/1
f 6/5/2 1/6/2 4/7/2
f 6/5/2 4/7/2 5/8/2
f 8/9/3 6/10/3 5/11/3
f 8/9/3 5/11/3 7/12/3
f 11/13/4 9/14/4 10/15/4
f 11/13/4 10/15/4 12/16/4
f 15/17/5 14/18/5 13/19/5
f 15/17/5 13/19/5 16/20/5
f 19/21/6 18/22/6 17/23/6
f 19/21/6 17/23/6 20/24/6
o finished
v -0.0004758892090712119 -0.818815306317332 -0.9375
v -0.9995241107909287 -0.9874346936826679 -0.9375
v -0.9995241107909287 -0.9874346936826679 -0.06250000000000028
v -0.0004758892090712119 -0.818815306317332 -0.06250000000000028
v 1.000475889209071 -0.818815306317332 -0.9375
v 1.000475889209071 -0.818815306317332 -0.06250000000000028
v 1.999524110790929 -0.9874346936826679 -0.9375
v 1.999524110790929 -0.9874346936826679 -0.06250000000000028
vt 0.062499999999999944 0
vt 0.06250000000000006 1
vt 0.9375 1
vt 0.9375 0
vt 0.062499999999999944 0
vt 0.06250000000000006 1
vt 0.9375 1
vt 0.9375 0
vt 0.062499999999999944 0
vt 0.06250000000000006 1
vt 0.9375 1
vt 0.9375 0
vn -0.16642620743241368 0.9860539120553518 0
vn 0 1 0
vn 0.16642620743241363 0.9860539120553518 0
usemtl rail_normal
f 21/25/7 22/26/7 23/27/7
f 21/25/7 23/27/7 24/28/7
f 25/29/8 21/30/8 24/31/8
f 25/29/8 24/31/8 26/32/8
f 27/33/9 25/34/9 26/35/9
f 27/33/9 26/35/9 28/36/9
o railway_selection
v -0.0004758892090712119 -0.8094403063173319 -0.875
v -0.9995241107909287 -0.9780596936826678 -0.875
v -0.9995241107909287 -0.9780596936826678 -0.7500000000000002
v -0.0004758892090712119 -0.8094403063173319 -0.7500000000000002
v 1.000475889209071 -0.8094403063173319 -0.875
v 1.000475889209071 -0.8094403063173319 -0.7500000000000002
v 1.999524110790929 -0.9780596936826678 -0.875
v 1.999524110790929 -0.9780596936826678 -0.7500000000000002
v -0.0004758892090712119 -0.8094403063173319 -0.25
v -0.9995241107909287 -0.9780596936826678 -0.25
v -0.9995241107909287 -0.9780596936826678 -0.12500000000000022
v -0.0004758892090712119 -0.8094403063173319 -0.12500000000000022
v 1.000475889209071 -0.8094403063173319 -0.25
v 1.000475889209071 -0.8094403063173319 -0.12500000000000022
v 1.999524110790929 -0.9780596936826678 -0.25
v 1.999524110790929 -0.9780596936826678 -0.12500000000000022
vt 0.75 0
vt 0.75 1
vt 0.8749999999999999 1
vt 0.8749999999999999 0
vt 0.75 0
vt 0.75 1
vt 0.8749999999999999 1
vt 0.8749999999999999 0
vt 0.75 0
vt 0.75 1
vt 0.8749999999999999 1
vt 0.8749999999999999 0
vt 0.75 0
vt 0.75 1
vt 0.8749999999999999 1
vt 0.8749999999999999 0
vt 0.75 0
vt 0.75 1
vt 0.8749999999999999 1
vt 0.8749999999999999 0
vt 0.75 0
vt 0.75 1
vt 0.8749999999999999 1
vt 0.8749999999999999 0
vn -0.16642620743241368 0.9860539120553518 0
vn 0 1 0
vn 0.1664262074324136 0.9860539120553519 0
vn -0.16642620743241368 0.9860539120553518 0
vn 0 1 0
vn 0.1664262074324136 0.9860539120553519 0
usemtl rail_normal
f 29/37/10 30/38/10 31/39/10
f 29/37/10 31/39/10 32/40/10
f 33/41/11 29/42/11 32/43/11
f 33/41/11 32/43/11 34/44/11
f 35/45/12 33/46/12 34/47/12
f 35/45/12 34/47/12 36/48/12
f 37/49/13 38/50/13 39/51/13
f 37/49/13 39/51/13 40/52/13
f 41/53/14 37/54/14 40/55/14
f 41/53/14 40/55/14 42/56/14
f 43/57/15 41/58/15 42/59/15
f 43/57/15 42/59/15 44/60/15
o railway_tracks1
v -0.9995241107909287 -0.9843096936826679 -0.9375
v -0.9995241107909287 -0.9843096936826679 -0.06250000000000022
v -0.5 -0.8999999999999999 -0.9375
v -0.5 -0.8999999999999999 -0.06250000000000022
v -0.5 -0.8999999999999999 -0.5000000000000001
v -0.9995241107909287 -0.9843096936826679 -0.5000000000000001
vt 0.25 1
vt 0.75 1
vt 0.75 0.5
vt 0.25 0.5
vt 0.75 0.5
vt 0.25 0.5
vt 0.25 1
vt 0.75 1
vn -0.16642620743241368 0.9860539120553518 0
vn -0.16642620743241368 0.9860539120553518 0
usemtl rail_normal
f 45/61/16 50/62/16 49/63/16
f 45/61/16 49/63/16 47/64/16
f 48/65/17 49/66/17 50/67/17
f 48/65/17 50/67/17 46/68/17
o railway_tracks2
v -0.0004758892090712119 -0.815690306317332 -0.9375
v -0.0004758892090712119 -0.815690306317332 -0.06250000000000022
v -0.5 -0.8999999999999999 -0.9375
v -0.5 -0.8999999999999999 -0.06250000000000022
v -0.5 -0.8999999999999999 -0.5000000000000001
v -0.0004758892090712119 -0.815690306317332 -0.5000000000000001
vt 0.75 0
vt 0.25 0
vt 0.25 0.5
vt 0.75 0.5
vt 0.25 0.5
vt 0.75 0.5
vt 0.75 0
vt 0.25 0
vn -0.16642620743241368 0.9860539120553518 0
vn -0.16642620743241368 0.9860539120553518 0
usemtl rail_normal
f 52/69/18 56/70/18 55/71/18
f 52/69/18 55/71/18 54/72/18
f 53/73/19 55/74/19 56/75/19
f 53/73/19 56/75/19 51/76/19
o railway_tracks3
v -0.0004758892090712119 -0.815690306317332 -0.9375
v -0.0004758892090712119 -0.815690306317332 -0.06250000000000022
v 0.49999999999999994 -0.815690306317332 -0.9375
v 0.49999999999999994 -0.815690306317332 -0.06250000000000022
v 0.49999999999999994 -0.815690306317332 -0.5000000000000001
v -0.0004758892090712119 -0.815690306317332 -0.5000000000000001
vt 0.25 1
vt 0.75 1
vt 0.75 0.5
vt 0.25 0.5
vt 0.75 0.5
vt 0.25 0.5
vt 0.25 1
vt 0.75 1
vn 0 1 0
vn 0 1 0
usemtl rail_normal
f 57/77/20 62/78/20 61/79/20
f 57/77/20 61/79/20 59/80/20
f 60/81/21 61/82/21 62/83/21
f 60/81/21 62/83/21 58/84/21
o railway_tracks4
v 1.000475889209071 -0.815690306317332 -0.9375
v 1.000475889209071 -0.815690306317332 -0.06250000000000022
v 0.49999999999999994 -0.815690306317332 -0.9375
v 0.49999999999999994 -0.815690306317332 -0.06250000000000022
v 0.49999999999999994 -0.815690306317332 -0.5000000000000001
v 1.000475889209071 -0.815690306317332 -0.5000000000000001
vt 0.75 0
vt 0.25 0
vt 0.25 0.5
vt 0.75 0.5
vt 0.25 0.5
vt 0.75 0.5
vt 0.75 0
vt 0.25 0
vn 0 1 0
vn 0 1 0
usemtl rail_normal
f 64/85/22 68/86/22 67/87/22
f 64/85/22 67/87/22 66/88/22
f 65/89/23 67/90/23 68/91/23
f 65/89/23 68/91/23 63/92/23
o railway_tracks5
v 1.000475889209071 -0.815690306317332 -0.9375
v 1.000475889209071 -0.815690306317332 -0.06250000000000022
v 1.5 -0.8999999999999999 -0.9375
v 1.5 -0.8999999999999999 -0.06250000000000022
v 1.5 -0.8999999999999999 -0.5000000000000001
v 1.000475889209071 -0.815690306317332 -0.5000000000000001
vt 0.25 1
vt 0.75 1
vt 0.75 0.5
vt 0.25 0.5
vt 0.75 0.5
vt 0.25 0.5
vt 0.25 1
vt 0.75 1
vn 0.16642620743241363 0.9860539120553518 0
vn 0.16642620743241363 0.9860539120553518 0
usemtl rail_normal
f 69/93/24 74/94/24 73/95/24
f 69/93/24 73/95/24 71/96/24
f 72/97/25 73/98/25 74/99/25
f 72/97/25 74/99/25 70/100/25
o railway_tracks6
v 1.999524110790929 -0.9843096936826679 -0.9375
v 1.999524110790929 -0.9843096936826679 -0.06250000000000022
v 1.5 -0.8999999999999999 -0.9375
v 1.5 -0.8999999999999999 -0.06250000000000022
v 1.5 -0.8999999999999999 -0.5000000000000001
v 1.999524110790929 -0.9843096936826679 -0.5000000000000001
vt 0.75 0
vt 0.25 0
vt 0.25 0.5
vt 0.75 0.5
vt 0.25 0.5
vt 0.75 0.5
vt 0.75 0
vt 0.25 0
vn 0.16642620743241363 0.9860539120553518 0
vn 0.16642620743241363 0.9860539120553518 0
usemtl rail_normal
f 76/101/26 80/102/26 79/103/26
f 76/101/26 79/103/26 78/104/26
f 77/105/27 79/106/27 80/107/27
f 77/105/27 80/107/27 75/108/27