# Made by Pabilo8 with Blockbench
# Exported with IIToolkit Plugin
mtllib packer.mtl


o container_fluids
v 0 3.125 3
v 0 3.125 1
v 0 0.25 3
v 0 0.25 1
v 2 3.125 3
v 2 3.125 1
v 2 0.25 3
v 2 0.25 1
v 0 3.125 3
v 0 3.125 1
v 2 3.125 3
v 2 3.125 1
v 0 3.125 2
v 2 3.125 2
v 2 0.25 1
v 0 0.25 2
v 2 0.25 2
v 0 0.25 1
v 0 0.25 3
v 2 0.25 3
v 1.3125 3.1875 2.5
v 1.3125 3.1875 1.5
v 1.3125 3.125 2.5
v 1.3125 3.125 1.5
v 1.5 3.1875 2.5
v 1.5 3.1875 1.5
v 1.5 3.125 2.5
v 1.5 3.125 1.5
v 0.6875 3.1875 1.6875
v 0.6875 3.1875 1.5
v 0.6875 3.125 1.6875
v 0.6875 3.125 1.5
v 1.3125 3.1875 1.6875
v 1.3125 3.125 1.6875
v 0.5 3.1875 2.5
v 0.5 3.1875 1.5
v 0.5 3.125 2.5
v 0.5 3.125 1.5
v 0.6875 3.1875 2.5
v 0.6875 3.125 2.5
v 0.6875 3.1875 2.3125
v 0.6875 3.125 2.3125
v 1.3125 3.1875 2.3125
v 1.3125 3.125 2.3125
v 0.6875 3.140625 1.6875
v 1.3125 3.140625 1.6875
v 0.6875 3.140625 2.3125
v 1.3125 3.140625 2.3125
v 0.75 3.1875 2.25
v 0.75 3.1875 1.75
v 0.75 3.125 2.25
v 0.75 3.125 1.75
v 1.25 3.1875 2.25
v 1.25 3.1875 1.75
v 1.25 3.125 2.25
v 1.25 3.125 1.75
v 1.3125 0.1875 2.5
v 1.3125 0.1875 1.5
v 1.3125 0.25 2.5
v 1.3125 0.25 1.5
v 1.5 0.1875 2.5
v 1.5 0.1875 1.5
v 1.5 0.25 2.5
v 1.5 0.25 1.5
v 0.6875 0.1875 1.6875
v 0.6875 0.1875 1.5
v 0.6875 0.25 1.6875
v 0.6875 0.25 1.5
v 1.3125 0.1875 1.6875
v 1.3125 0.25 1.6875
v 0.5 0.1875 2.5
v 0.5 0.1875 1.5
v 0.5 0.25 2.5
v 0.5 0.25 1.5
v 0.6875 0.1875 2.5
v 0.6875 0.25 2.5
v 0.6875 0.1875 2.3125
v 0.6875 0.25 2.3125
v 1.3125 0.1875 2.3125
v 1.3125 0.25 2.3125
v 0.6875 0.234375 1.6875
v 1.3125 0.234375 1.6875
v 0.6875 0.234375 2.3125
v 1.3125 0.234375 2.3125
v 0.75 0.1875 2.25
v 0.75 0.1875 1.75
v 0.75 0.25 2.25
v 0.75 0.25 1.75
v 1.25 0.1875 2.25
v 1.25 0.1875 1.75
v 1.25 0.25 2.25
v 1.25 0.25 1.75
vt 0.71875 0.5
vt 0.71875 0
vt 0 0
vt 0 0.5
vt 0.71875 0.5
vt 0.71875 1
vt 0 1
vt 0 0.5
vt 0.71875 1
vt 0.71875 0.5
vt 0 0.5
vt 0 1
vt 0.96875 0.5
vt 0.96875 1
vt 0.71875 1
vt 0.71875 0.5
vt 0.96875 1
vt 0.96875 0.5
vt 0.71875 0.5
vt 0.71875 1
vt 0.71875 1
vt 0.96875 1
vt 0.96875 0.5
vt 0.71875 0.5
vt 0.71875 1
vt 0.96875 1
vt 0.96875 0.5
vt 0.71875 0.5
vt 0 0.5
vt 0.71875 0.5
vt 0.71875 1
vt 0 1
vt 0.71875 0
vt 0.71875 0.25
vt 0.734375 0.25
vt 0.734375 0
vt 0.71875 0.25
vt 0.765625 0.25
vt 0.765625 0
vt 0.71875 0
vt 0.71875 0.015625
vt 0.765625 0.015625
vt 0.765625 0
vt 0.71875 0
vt 0.71875 0.25
vt 0.765625 0.25
vt 0.765625 0.234375
vt 0.71875 0.234375
vt 0.765625 0.25
vt 0.921875 0.25
vt 0.921875 0.203125
vt 0.765625 0.203125
vt 0.765625 0.21875
vt 0.921875 0.21875
vt 0.921875 0.203125
vt 0.765625 0.203125
vt 0.765625 0.25
vt 0.921875 0.25
vt 0.921875 0.234375
vt 0.765625 0.234375
vt 0.953125 0
vt 0.953125 0.25
vt 0.96875 0.25
vt 0.96875 0
vt 0.921875 0.25
vt 0.96875 0.25
vt 0.96875 0
vt 0.921875 0
vt 0.921875 0.015625
vt 0.96875 0.015625
vt 0.96875 0
vt 0.921875 0
vt 0.921875 0.25
vt 0.96875 0.25
vt 0.96875 0.234375
vt 0.921875 0.234375
vt 0.765625 0.046875
vt 0.921875 0.046875
vt 0.921875 0
vt 0.765625 0
vt 0.765625 0.015625
vt 0.921875 0.015625
vt 0.921875 0
vt 0.765625 0
vt 0.765625 0.046875
vt 0.921875 0.046875
vt 0.921875 0.03125
vt 0.765625 0.03125
vt 0.9375 0.046875
vt 0.921875 0.046875
vt 0.921875 0.203125
vt 0.9375 0.203125
vt 0.765625 0.046875
vt 0.75 0.046875
vt 0.75 0.203125
vt 0.765625 0.203125
vt 0.765625 0.046875
vt 0.765625 0.203125
vt 0.921875 0.203125
vt 0.921875 0.046875
vt 0.890625 0.0625
vt 0.890625 0.1875
vt 0.90625 0.1875
vt 0.90625 0.0625
vt 0.78125 0.0625
vt 0.78125 0.1875
vt 0.796875 0.1875
vt 0.796875 0.0625
vt 0.78125 0.1875
vt 0.90625 0.1875
vt 0.90625 0.0625
vt 0.78125 0.0625
vt 0.78125 0.078125
vt 0.90625 0.078125
vt 0.90625 0.0625
vt 0.78125 0.0625
vt 0.78125 0.1875
vt 0.90625 0.1875
vt 0.90625 0.171875
vt 0.78125 0.171875
vt 0.734375 0.25
vt 0.71875 0.25
vt 0.71875 0
vt 0.734375 0
vt 0.765625 0
vt 0.765625 0.25
vt 0.71875 0.25
vt 0.71875 0
vt 0.765625 0
vt 0.765625 0.015625
vt 0.71875 0.015625
vt 0.71875 0
vt 0.765625 0.234375
vt 0.765625 0.25
vt 0.71875 0.25
vt 0.71875 0.234375
vt 0.921875 0.203125
vt 0.921875 0.25
vt 0.765625 0.25
vt 0.765625 0.203125
vt 0.921875 0.203125
vt 0.921875 0.21875
vt 0.765625 0.21875
vt 0.765625 0.203125
vt 0.921875 0.234375
vt 0.921875 0.25
vt 0.765625 0.25
vt 0.765625 0.234375
vt 0.96875 0.25
vt 0.953125 0.25
vt 0.953125 0
vt 0.96875 0
vt 0.96875 0
vt 0.96875 0.25
vt 0.921875 0.25
vt 0.921875 0
vt 0.96875 0
vt 0.96875 0.015625
vt 0.921875 0.015625
vt 0.921875 0
vt 0.96875 0.234375
vt 0.96875 0.25
vt 0.921875 0.25
vt 0.921875 0.234375
vt 0.921875 0
vt 0.921875 0.046875
vt 0.765625 0.046875
vt 0.765625 0
vt 0.921875 0
vt 0.921875 0.015625
vt 0.765625 0.015625
vt 0.765625 0
vt 0.921875 0.03125
vt 0.921875 0.046875
vt 0.765625 0.046875
vt 0.765625 0.03125
vt 0.921875 0.203125
vt 0.921875 0.046875
vt 0.9375 0.046875
vt 0.9375 0.203125
vt 0.75 0.203125
vt 0.75 0.046875
vt 0.765625 0.046875
vt 0.765625 0.203125
vt 0.921875 0.203125
vt 0.765625 0.203125
vt 0.765625 0.046875
vt 0.921875 0.046875
vt 0.90625 0.1875
vt 0.890625 0.1875
vt 0.890625 0.0625
vt 0.90625 0.0625
vt 0.796875 0.1875
vt 0.78125 0.1875
vt 0.78125 0.0625
vt 0.796875 0.0625
vt 0.90625 0.0625
vt 0.90625 0.1875
vt 0.78125 0.1875
vt 0.78125 0.0625
vt 0.90625 0.0625
vt 0.90625 0.078125
vt 0.78125 0.078125
vt 0.78125 0.0625
vt 0.90625 0.171875
vt 0.90625 0.1875
vt 0.78125 0.1875
vt 0.78125 0.171875
vn -1 0 0
vn 0 0 1
vn 0 0 -1
vn 0 1 0
vn 0 1 0
vn 0 -1 0
vn 0 -1 0
vn 1 0 0
vn 1 0 0
vn 0 1 0
vn 0 0 1
vn 0 0 -1
vn 0 1 0
vn 0 0 1
vn 0 0 -1
vn -1 0 0
vn 0 1 0
vn 0 0 1
vn 0 0 -1
vn 0 1 0
vn 0 0 1
vn 0 0 -1
vn 1 0 0
vn -1 0 0
vn 0 1 0
vn -1 0 0
vn 1 0 0
vn 0 1 0
vn 0 0 1
vn 0 0 -1
vn 1 0 0
vn 0 -1 0
vn 0 0 1
vn 0 0 -1
vn 0 -1 0
vn 0 0 1
vn 0 0 -1
vn -1 0 0
vn 0 -1 0
vn 0 0 1
vn 0 0 -1
vn 0 -1 0
vn 0 0 1
vn 0 0 -1
vn 1 0 0
vn -1 0 0
vn 0 -1 0
vn -1 0 0
vn 1 0 0
vn 0 -1 0
vn 0 0 1
vn 0 0 -1
usemtl container_fluids
f 1/1/1 2/2/1 4/3/1
f 1/1/1 4/3/1 3/4/1
f 5/5/2 1/6/2 3/7/2
f 5/5/2 3/7/2 7/8/2
f 2/9/3 6/10/3 8/11/3
f 2/9/3 8/11/3 4/12/3
f 13/13/4 14/14/4 12/15/4
f 13/13/4 12/15/4 10/16/4
f 14/17/5 13/18/5 9/19/5
f 14/17/5 9/19/5 11/20/5
f 15/21/6 17/22/6 16/23/6
f 15/21/6 16/23/6 18/24/6
f 19/25/7 16/26/7 17/27/7
f 19/25/7 17/27/7 20/28/7
f 8/29/8 6/30/8 5/31/8
f 8/29/8 5/31/8 7/32/8
f 26/33/9 25/34/9 27/35/9
f 26/33/9 27/35/9 28/36/9
f 26/37/10 22/38/10 21/39/10
f 26/37/10 21/39/10 25/40/10
f 25/41/11 21/42/11 23/43/11
f 25/41/11 23/43/11 27/44/11
f 22/45/12 26/46/12 28/47/12
f 22/45/12 28/47/12 24/48/12
f 22/49/13 30/50/13 29/51/13
f 22/49/13 29/51/13 33/52/13
f 33/53/14 29/54/14 31/55/14
f 33/53/14 31/55/14 34/56/14
f 30/57/15 22/58/15 24/59/15
f 30/57/15 24/59/15 32/60/15
f 35/61/16 36/62/16 38/63/16
f 35/61/16 38/63/16 37/64/16
f 30/65/17 36/66/17 35/67/17
f 30/65/17 35/67/17 39/68/17
f 39/69/18 35/70/18 37/71/18
f 39/69/18 37/71/18 40/72/18
f 36/73/19 30/74/19 32/75/19
f 36/73/19 32/75/19 38/76/19
f 43/77/20 41/78/20 39/79/20
f 43/77/20 39/79/20 21/80/20
f 21/81/21 39/82/21 40/83/21
f 21/81/21 40/83/21 23/84/21
f 41/85/22 43/86/22 44/87/22
f 41/85/22 44/87/22 42/88/22
f 31/89/23 29/90/23 41/91/23
f 31/89/23 41/91/23 42/92/23
f 44/93/24 43/94/24 33/95/24
f 44/93/24 33/95/24 34/96/24
f 48/97/25 46/98/25 45/99/25
f 48/97/25 45/99/25 47/100/25
f 49/101/26 50/102/26 52/103/26
f 49/101/26 52/103/26 51/104/26
f 54/105/27 53/106/27 55/107/27
f 54/105/27 55/107/27 56/108/27
f 54/109/28 50/110/28 49/111/28
f 54/109/28 49/111/28 53/112/28
f 53/113/29 49/114/29 51/115/29
f 53/113/29 51/115/29 55/116/29
f 50/117/30 54/118/30 56/119/30
f 50/117/30 56/119/30 52/120/30
f 63/121/31 61/122/31 62/123/31
f 63/121/31 62/123/31 64/124/31
f 57/125/32 58/126/32 62/127/32
f 57/125/32 62/127/32 61/128/32
f 59/129/33 57/130/33 61/131/33
f 59/129/33 61/131/33 63/132/33
f 64/133/34 62/134/34 58/135/34
f 64/133/34 58/135/34 60/136/34
f 65/137/35 66/138/35 58/139/35
f 65/137/35 58/139/35 69/140/35
f 67/141/36 65/142/36 69/143/36
f 67/141/36 69/143/36 70/144/36
f 60/145/37 58/146/37 66/147/37
f 60/145/37 66/147/37 68/148/37
f 74/149/38 72/150/38 71/151/38
f 74/149/38 71/151/38 73/152/38
f 71/153/39 72/154/39 66/155/39
f 71/153/39 66/155/39 75/156/39
f 73/157/40 71/158/40 75/159/40
f 73/157/40 75/159/40 76/160/40
f 68/161/41 66/162/41 72/163/41
f 68/161/41 72/163/41 74/164/41
f 75/165/42 77/166/42 79/167/42
f 75/165/42 79/167/42 57/168/42
f 76/169/43 75/170/43 57/171/43
f 76/169/43 57/171/43 59/172/43
f 80/173/44 79/174/44 77/175/44
f 80/173/44 77/175/44 78/176/44
f 77/177/45 65/178/45 67/179/45
f 77/177/45 67/179/45 78/180/45
f 69/181/46 79/182/46 80/183/46
f 69/181/46 80/183/46 70/184/46
f 81/185/47 82/186/47 84/187/47
f 81/185/47 84/187/47 83/188/47
f 88/189/48 86/190/48 85/191/48
f 88/189/48 85/191/48 87/192/48
f 91/193/49 89/194/49 90/195/49
f 91/193/49 90/195/49 92/196/49
f 85/197/50 86/198/50 90/199/50
f 85/197/50 90/199/50 89/200/50
f 87/201/51 85/202/51 89/203/51
f 87/201/51 89/203/51 91/204/51
f 92/205/52 90/206/52 86/207/52
f 92/205/52 86/207/52 88/208/52
o fluid_input
v -0.75 0.75 3
v -0.75 0.75 2.9375
v -0.75 0.25 3
v -0.75 0.25 2.9375
v -0.25 0.75 3
v -0.25 0.75 2.9375
v -0.25 0.25 3
v -0.25 0.25 2.9375
v -0.625 0.9375 3.009375
v -0.625 0.9375 2.9375
v -0.625 0.75 3.009375
v -0.625 0.75 2.9375
v -0.375 0.9375 3.009375
v -0.375 0.9375 2.9375
v -0.375 0.75 3.009375
v -0.375 0.75 2.9375
v -0.9999999999999982 1 3
v -1 1 2.75
v -0.9999999999999991 0 3
v -1 0 2.75
v 8.881784197001252e-16 1 3
v 0 1 2.75
v 8.881784197001252e-16 0 3
v 0 0 2.75
v -0.12499999999999933 0.875 3
v -0.874999999999996 0.875 2.999999999999999
v -0.874999999999996 0.125 2.999999999999999
v -0.12499999999999933 0.125 3
v -0.12499999999999956 0.125 2.9375000000000004
v -0.12499999999999956 0.875 2.9375000000000004
v -0.8749999999999962 0.125 2.9375000000000004
v -0.8749999999999962 0.875 2.9375000000000004
vt 0.609375 0.609375
vt 0.625 0.609375
vt 0.625 0.484375
vt 0.609375 0.484375
vt 0.5 0.609375
vt 0.515625 0.609375
vt 0.515625 0.484375
vt 0.5 0.484375
vt 0.5 0.609375
vt 0.625 0.609375
vt 0.625 0.59375
vt 0.5 0.59375
vt 0.5 0.5
vt 0.625 0.5
vt 0.625 0.484375
vt 0.5 0.484375
vt 0.5 0.609375
vt 0.625 0.609375
vt 0.625 0.484375
vt 0.5 0.484375
vt 0.046875 0.734375
vt 0.0625 0.734375
vt 0.0625 0.6875
vt 0.046875 0.6875
vt 0 0.734375
vt 0.015625 0.734375
vt 0.015625 0.6875
vt 0 0.6875
vt 0 0.734375
vt 0.0625 0.734375
vt 0.0625 0.71875
vt 0 0.71875
vt 0 0.734375
vt 0.0625 0.734375
vt 0.0625 0.6875
vt 0 0.6875
vt 0.5 0.25
vt 0.5 0.3125
vt 0.75 0.3125
vt 0.75 0.25
vt 0.5 0.3125
vt 0.5 0.25
vt 0.75 0.25
vt 0.75 0.3125
vt 0.75 0.3125
vt 0.5 0.3125
vt 0.5 0.25
vt 0.75 0.25
vt 0.75 0.25
vt 1 0.25
vt 1 0
vt 0.75 0
vt 0.96875 0.03125
vt 0.96875 0.21875
vt 0.78125 0.21875
vt 0.78125 0.03125
vt 0.96875 0.21875
vt 0.96875 0.03125
vt 1 0
vt 1 0.25
vt 0.78125 0.21875
vt 0.96875 0.21875
vt 1 0.25
vt 0.75 0.25
vt 0.78125 0.03125
vt 0.78125 0.21875
vt 0.75 0.25
vt 0.75 0
vt 0.96875 0.03125
vt 0.78125 0.03125
vt 0.75 0
vt 1 0
vt 0.984375 0.03125
vt 0.984375 0.21875
vt 0.96875 0.21875
vt 0.96875 0.03125
vt 0.78125 0.21875
vt 0.96875 0.21875
vt 0.96875 0.234375
vt 0.78125 0.234375
vt 0.78125 0.03125
vt 0.78125 0.21875
vt 0.765625 0.21875
vt 0.765625 0.03125
vt 0.96875 0.015625
vt 0.78125 0.015625
vt 0.78125 0.03125
vt 0.96875 0.03125
vn -1 0 0
vn 1 0 0
vn 0 1 0
vn 0 -1 0
vn 0 0 1
vn -1 0 0
vn 1 0 0
vn 0 1 0
vn 0 0 1
vn -1 0 7.105427357601002e-15
vn 1 0 -3.552713678800501e-15
vn 0 1 0
vn 0 0 -1
vn 0 0 1
vn 0 0 1
vn -1.1842378929335056e-15 1.1842378929335077e-15 1
vn 7.105427357600876e-15 0 1
vn -1.1842378929335056e-15 8.289665250534537e-15 1
vn -1 0 3.552713678800526e-15
vn 0 -1 0
vn 1 0 -3.552713678800577e-15
vn 0 1 0
usemtl common_thingies
f 93/209/53 94/210/53 96/211/53
f 93/209/53 96/211/53 95/212/53
f 98/213/54 97/214/54 99/215/54
f 98/213/54 99/215/54 100/216/54
f 98/217/55 94/218/55 93/219/55
f 98/217/55 93/219/55 97/220/55
f 99/221/56 95/222/56 96/223/56
f 99/221/56 96/223/56 100/224/56
f 97/225/57 93/226/57 95/227/57
f 97/225/57 95/227/57 99/228/57
f 101/229/58 102/230/58 104/231/58
f 101/229/58 104/231/58 103/232/58
f 106/233/59 105/234/59 107/235/59
f 106/233/59 107/235/59 108/236/59
f 106/237/60 102/238/60 101/239/60
f 106/237/60 101/239/60 105/240/60
f 105/241/61 101/242/61 103/243/61
f 105/241/61 103/243/61 107/244/61
usemtl packer
f 109/245/62 110/246/62 112/247/62
f 109/245/62 112/247/62 111/248/62
f 114/249/63 113/250/63 115/251/63
f 114/249/63 115/251/63 116/252/63
f 114/253/64 110/254/64 109/255/64
f 114/253/64 109/255/64 113/256/64
usemtl common_steel
f 110/257/65 114/258/65 116/259/65
f 110/257/65 116/259/65 112/260/65
f 121/261/66 122/262/66 124/263/66
f 121/261/66 124/263/66 123/264/66
f 117/265/67 120/266/67 115/267/67
f 117/265/67 115/267/67 113/268/67
f 118/269/68 117/270/68 113/271/68
f 118/269/68 113/271/68 109/272/68
f 119/273/69 118/274/69 109/275/69
f 119/273/69 109/275/69 111/276/69
f 120/277/70 119/278/70 111/279/70
f 120/277/70 111/279/70 115/280/70
f 122/281/71 121/282/71 120/283/71
f 122/281/71 120/283/71 117/284/71
f 124/285/72 122/286/72 117/287/72
f 124/285/72 117/287/72 118/288/72
f 123/289/73 124/290/73 118/291/73
f 123/289/73 118/291/73 119/292/73
f 121/293/74 123/294/74 119/295/74
f 121/293/74 119/295/74 120/296/74
o fluid_output
v 2.0000000000000018 0.75 0.7499999999999982
v 2.0000000000000018 0.75 0.24999999999999822
v 2.0000000000000018 0.25 0.7499999999999982
v 2.0000000000000018 0.25 0.24999999999999822
v 1.9375000000000018 0.75 0.7499999999999982
v 1.9375000000000018 0.75 0.24999999999999822
v 1.9375000000000018 0.25 0.7499999999999982
v 1.9375000000000018 0.25 0.24999999999999822
vt 0.625 0.484375
vt 0.625 0.609375
vt 0.5 0.609375
vt 0.5 0.484375
vt 0.625 0.484375
vt 0.625 0.609375
vt 0.5 0.609375
vt 0.5 0.484375
vt 0.5 0.609375
vt 0.625 0.609375
vt 0.625 0.59375
vt 0.5 0.59375
vt 0.625 0.5
vt 0.5 0.5
vt 0.5 0.484375
vt 0.625 0.484375
vt 0.515625 0.484375
vt 0.515625 0.609375
vt 0.5 0.609375
vt 0.5 0.484375
vt 0.625 0.484375
vt 0.625 0.609375
vt 0.609375 0.609375
vt 0.609375 0.484375
vn 1 0 0
vn -1 0 0
vn 0 1 0
vn 0 -1 0
vn 0 0 1
vn 0 0 -1
usemtl common_thingies
f 128/297/75 126/298/75 125/299/75
f 128/297/75 125/299/75 127/300/75
f 131/301/76 129/302/76 130/303/76
f 131/301/76 130/303/76 132/304/76
f 125/305/77 126/306/77 130/307/77
f 125/305/77 130/307/77 129/308/77
f 128/309/78 127/310/78 131/311/78
f 128/309/78 131/311/78 132/312/78
f 127/313/79 125/314/79 129/315/79
f 127/313/79 129/315/79 131/316/79
f 132/317/80 130/318/80 126/319/80
f 132/317/80 126/319/80 128/320/80
o fluid_gauge
v -0.65625 0.9021998107671673 2.603573726983621
v -0.65625 0.9698371901228244 2.2984812247586417
v -0.65625 0.8411813103221715 2.5900462511124895
v -0.65625 0.9088186896778285 2.2849537488875105
v -0.34375 0.9021998107671673 2.603573726983621
v -0.34375 0.9698371901228244 2.2984812247586417
v -0.34375 0.8411813103221715 2.5900462511124895
v -0.34375 0.9088186896778285 2.2849537488875105
vt 0.0625 0.734375
vt 0.0625 0.8125
vt 0.078125 0.8125
vt 0.078125 0.734375
vt 0 0.734375
vt 0 0.8125
vt 0.015625 0.8125
vt 0.015625 0.734375
vt 0 0.8125
vt 0.078125 0.8125
vt 0.078125 0.734375
vt 0 0.734375
vt 0 0.8125
vt 0.078125 0.8125
vt 0.078125 0.734375
vt 0 0.734375
vt 0 0.75
vt 0.078125 0.75
vt 0.078125 0.734375
vt 0 0.734375
vt 0 0.8125
vt 0.078125 0.8125
vt 0.078125 0.796875
vt 0 0.796875
vn -1 0 0
vn 1 0 0
vn 0 0.9762960071199334 0.21643961393810288
vn 0 -0.9762960071199334 -0.21643961393810288
vn 0 -0.21643961393810288 0.9762960071199334
vn 0 0.21643961393810288 -0.9762960071199334
usemtl common_thingies
f 133/321/81 134/322/81 136/323/81
f 133/321/81 136/323/81 135/324/81
f 138/325/82 137/326/82 139/327/82
f 138/325/82 139/327/82 140/328/82
f 138/329/83 134/330/83 133/331/83
f 138/329/83 133/331/83 137/332/83
f 139/333/84 135/334/84 136/335/84
f 139/333/84 136/335/84 140/336/84
f 137/337/85 133/338/85 135/339/85
f 137/337/85 135/339/85 139/340/85
f 134/341/86 138/342/86 140/343/86
f 134/341/86 140/343/86 136/344/86
o fluid_pipe_holder
v -0.125 0.875 2.5
v -0.125 0.875 2.375
v -0.125 0 2.5
v -0.125 0 2.375
v -0.875 0.875 2.5
v -0.875 0.875 2.375
v -0.875 0 2.5
v -0.875 0 2.375
vt 0.8125 0.25
vt 0.8125 0.46875
vt 0.78125 0.46875
vt 0.78125 0.25
vt 0.78125 0.25
vt 0.78125 0.46875
vt 0.8125 0.46875
vt 0.8125 0.25
vt 0.75 0.5
vt 0.75 0.46875
vt 0.9375 0.46875
vt 0.9375 0.5
vt 0.75 0.46875
vt 0.75 0.5
vt 0.9375 0.5
vt 0.9375 0.46875
vt 0.8125 0.25
vt 0.8125 0.46875
vt 1 0.46875
vt 1 0.25
vt 0.8125 0.25
vt 0.8125 0.46875
vt 1 0.46875
vt 1 0.25
vn 1 0 0
vn -1 0 0
vn 0 1 0
vn 0 -1 0
vn 0 0 1
vn 0 0 -1
usemtl packer
f 144/345/87 142/346/87 141/347/87
f 144/345/87 141/347/87 143/348/87
f 147/349/88 145/350/88 146/351/88
f 147/349/88 146/351/88 148/352/88
f 141/353/89 142/354/89 146/355/89
f 141/353/89 146/355/89 145/356/89
f 144/357/90 143/358/90 147/359/90
f 144/357/90 147/359/90 148/360/90
f 143/361/91 141/362/91 145/363/91
f 143/361/91 145/363/91 147/364/91
f 148/365/92 146/366/92 142/367/92
f 148/365/92 142/367/92 144/368/92
o fluid_back
v -1 1 2.125
v -1 1 1.9375
v -1 0 2.125
v -1 0 1.9375
v 0 1 2.125
v 0 1 1.9375
v 0 0 2.125
v 0 0 1.9375
vt 0.5 0.3125
vt 0.5 0.359375
vt 0.75 0.359375
vt 0.75 0.3125
vt 0.5 0.3125
vt 0.5 0.359375
vt 0.75 0.359375
vt 0.75 0.3125
vt 0.75 0.3125
vt 0.5 0.3125
vt 0.5 0.359375
vt 0.75 0.359375
vt 0.75 0.25
vt 1 0.25
vt 1 0
vt 0.75 0
vt 0.75 0.25
vt 1 0.25
vt 1 0
vt 0.75 0
vn -1 0 0
vn 1 0 0
vn 0 1 0
vn 0 0 1
vn 0 0 -1
usemtl packer
f 149/369/93 150/370/93 152/371/93
f 149/369/93 152/371/93 151/372/93
f 154/373/94 153/374/94 155/375/94
f 154/373/94 155/375/94 156/376/94
f 154/377/95 150/378/95 149/379/95
f 154/377/95 149/379/95 153/380/95
usemtl common_steel
f 153/381/96 149/382/96 151/383/96
f 153/381/96 151/383/96 155/384/96
f 150/385/97 154/386/97 156/387/97
f 150/385/97 156/387/97 152/388/97
o fluid_pipe
v -0.75 0.75 2.75
v -0.75 0.75 2.125
v -0.75 0.25 2.75
v -0.75 0.25 2.125
v -0.25 0.75 2.75
v -0.25 0.75 2.125
v -0.25 0.25 2.75
v -0.25 0.25 2.125
vt 0.5 0.359375
vt 0.5 0.515625
vt 0.625 0.515625
vt 0.625 0.359375
vt 0.5 0.515625
vt 0.5 0.359375
vt 0.625 0.359375
vt 0.625 0.515625
vt 0.5 0.515625
vt 0.625 0.515625
vt 0.625 0.359375
vt 0.5 0.359375
vt 0.5 0.359375
vt 0.625 0.359375
vt 0.625 0.515625
vt 0.5 0.515625
vn -1 0 0
vn 1 0 0
vn 0 1 0
vn 0 -1 0
usemtl packer
f 157/389/98 158/390/98 160/391/98
f 157/389/98 160/391/98 159/392/98
f 162/393/99 161/394/99 163/395/99
f 162/393/99 163/395/99 164/396/99
f 162/397/100 158/398/100 157/399/100
f 162/397/100 157/399/100 161/400/100
f 163/401/101 159/402/101 160/403/101
f 163/401/101 160/403/101 164/404/101