# Made by Pabilo8 in Blockbench 4.2.0
mtllib alarm_siren.mtl

o Pole
v 0.5625 1 0.5625
v 0.5625 1 0.4375
v 0.625 0.9375 0.625
v 0.625 0.9375 0.375
v 0.4375 1 0.5625
v 0.4375 1 0.4375
v 0.375 0.9375 0.625
v 0.375 0.9375 0.375
v 0.625 0 0.625
v 0.625 0 0.375
v 0.375 0 0.625
v 0.375 0 0.375
vt 0.25 0.25
vt 0.125 0.25
vt 0.0625 0.375
vt 0.3125 0.375
vt 0.3125 0
vt 0.25 0.125
vt 0.125 0.125
vt 0.0625 0
vt 0.125 0.125
vt 0.25 0.125
vt 0.25 0.25
vt 0.125 0.25
vt 0.375 0.3125
vt 0.25 0.25
vt 0.25 0.125
vt 0.375 0.0625
vt 0.125 0.25
vt 0.125 0.125
vt 0 0.0625
vt 0 0.3125
vt 0.75 0.0625
vt 0.75 1
vt 1 1
vt 1 0.0625
vt 0.75 0.0625
vt 0.75 1
vt 1 1
vt 1 0.0625
vt 0.625 0.125
vt 0.625 0.375
vt 0.375 0.375
vt 0.375 0.125
vt 1 0.0625
vt 1 1
vt 0.75 1
vt 0.75 0.0625
vt 1 0.0625
vt 1 1
vt 0.75 1
vt 0.75 0.0625
vn 0.7071067811865476 0.7071067811865476 0
vn -0.7071067811865476 0.7071067811865476 0
vn 0 1 0
vn 0 0.7071067811865476 0.7071067811865476
vn 0 0.7071067811865476 -0.7071067811865476
vn 1 0 0
vn -1 0 0
vn 0 -1 0
vn 0 0 1
vn 0 0 -1
usemtl m_0
f 2/1/1 1/2/1 3/3/1 4/4/1
f 7/5/2 5/6/2 6/7/2 8/8/2
f 5/9/3 1/10/3 2/11/3 6/12/3
f 3/13/4 1/14/4 5/15/4 7/16/4
f 6/17/5 2/18/5 4/19/5 8/20/5
usemtl m_1
f 10/21/6 4/22/6 3/23/6 9/24/6
f 11/25/7 7/26/7 8/27/7 12/28/7
usemtl m_0
f 10/29/8 9/30/8 11/31/8 12/32/8
usemtl m_1
f 9/33/9 3/34/9 7/35/9 11/36/9
f 12/37/10 8/38/10 4/39/10 10/40/10
o Speaker
v 0.1875 0.8125 1
v 0.8125 0.8125 1
v 0.1875 0.1875 1
v 0.8125 0.1875 1
v 0.3125 0.6875 0.625
v 0.6875 0.6875 0.625
v 0.3125 0.3125 0.625
v 0.6875 0.3125 0.625
v 0.4375 0.5625 1.125
v 0.5625 0.5625 1.125
v 0.4375 0.4375 1.125
v 0.5625 0.4375 1.125
v 0.375 0.625 1
v 0.625 0.625 1
v 0.375 0.375 1
v 0.625 0.375 1
v 0.1875 0.8125 1.0625
v 0.25 0.8125 1.0625
v 0.1875 0.1875 1.0625
v 0.25 0.1875 1.0625
v 0.25 0.8125 1
v 0.25 0.1875 1
v 0.75 0.1875 1.0625
v 0.8125 0.1875 1.0625
v 0.75 0.8125 1.0625
v 0.8125 0.8125 1.0625
v 0.75 0.1875 1
v 0.75 0.8125 1
v 0.75 0.75 1.0625
v 0.25 0.75 1.0625
v 0.75 0.75 1
v 0.25 0.75 1
v 0.25 0.25 1.0625
v 0.75 0.25 1.0625
v 0.25 0.25 1
v 0.75 0.25 1
vt 0 1
vt 0.625 1
vt 0.625 0.375
vt 0 0.375
vt 0.625 0
vt 0.625 0.375
vt 1 0.375
vt 1 0
vt 1 0.5
vt 0.625 0.375
vt 0.625 1
vt 1 0.875
vt 0.625 1
vt 0.625 0.375
vt 1 0.5
vt 1 0.875
vt 0.625 0.375
vt 0.625 1
vt 1 0.875
vt 1 0.5
vt 1 0.875
vt 0.625 1
vt 0.625 0.375
vt 1 0.5
vt 0.125 0.25
vt 0.25 0.25
vt 0.25 0.125
vt 0.125 0.125
vt 0.3125 0.375
vt 0.25 0.25
vt 0.125 0.25
vt 0.0625 0.375
vt 0.125 0.125
vt 0.25 0.125
vt 0.3125 0
vt 0.0625 0
vt 0.25 0.125
vt 0.25 0.25
vt 0.375 0.3125
vt 0.375 0.0625
vt 0 0.3125
vt 0.125 0.25
vt 0.125 0.125
vt 0 0.0625
vt 0.6875 0.3125
vt 0.6875 0.9375
vt 0.625 0.9375
vt 0.625 0.3125
vt 0.625 0.25
vt 0.6875 0.25
vt 0.6875 0.3125
vt 0.625 0.3125
vt 0.6875 0.9375
vt 0.6875 1
vt 0.625 1
vt 0.625 0.9375
vt 0.6875 0.3125
vt 0.6875 0.9375
vt 0.625 0.9375
vt 0.625 0.3125
vt 0.6875 0.25
vt 0.6875 1
vt 0.625 1
vt 0.625 0.25
vt 0.625 0.9375
vt 0.6875 0.9375
vt 0.6875 0.3125
vt 0.625 0.3125
vt 0.625 0.3125
vt 0.6875 0.3125
vt 0.6875 0.25
vt 0.625 0.25
vt 0.625 1
vt 0.6875 1
vt 0.6875 0.9375
vt 0.625 0.9375
vt 0.625 0.9375
vt 0.6875 0.9375
vt 0.6875 0.3125
vt 0.625 0.3125
vt 0.625 0.9375
vt 0.6875 0.9375
vt 0.6875 0.3125
vt 0.625 0.3125
vt 0.6875 0.5
vt 0.6875 1
vt 0.75 1
vt 0.75 0.5
vt 0.6875 1
vt 0.75 1
vt 0.75 0.5
vt 0.6875 0.5
vt 0.6875 0.5
vt 0.75 0.5
vt 0.75 1
vt 0.6875 1
vt 0.75 1
vt 0.6875 1
vt 0.6875 0.5
vt 0.75 0.5
vt 0.75 0.5
vt 0.75 1
vt 0.6875 1
vt 0.6875 0.5
vt 0.75 1
vt 0.75 0.5
vt 0.6875 0.5
vt 0.6875 1
vn 0 0 1
vn 0 0 -1
vn 0 0.948683298050514 -0.316227766016838
vn 0 -0.948683298050514 -0.316227766016838
vn -0.948683298050514 0 -0.316227766016838
vn 0.948683298050514 0 -0.316227766016838
vn 0 0 1
vn 0 0.8944271909999161 0.44721359549995804
vn 0 -0.8944271909999161 0.44721359549995804
vn -0.8944271909999161 0 0.44721359549995804
vn 0.8944271909999161 0 0.44721359549995804
vn 0 0 1
vn 0 1 0
vn 0 -1 0
vn -1 0 0
vn 1 0 0
vn 0 0 1
vn 0 -1 0
vn 0 1 0
vn -1 0 0
vn 1 0 0
vn 0 0 1
vn 0 1 0
vn 0 -1 0
vn 0 0 1
vn 0 1 0
vn 0 -1 0
usemtl m_0
f 14/41/11 13/42/11 15/43/11 16/44/11
f 19/45/12 17/46/12 18/47/12 20/48/12
f 17/49/13 13/50/13 14/51/13 18/52/13
f 16/53/14 15/54/14 19/55/14 20/56/14
f 15/57/15 13/58/15 17/59/15 19/60/15
f 18/61/16 14/62/16 16/63/16 20/64/16
f 22/65/17 21/66/17 23/67/17 24/68/17
f 25/69/18 21/70/18 22/71/18 26/72/18
f 24/73/19 23/74/19 27/75/19 28/76/19
f 23/77/20 21/78/20 25/79/20 27/80/20
f 26/81/21 22/82/21 24/83/21 28/84/21
usemtl m_1
f 32/85/22 30/86/22 29/87/22 31/88/22
f 29/89/23 30/90/23 33/91/23 13/92/23
f 32/93/24 31/94/24 15/95/24 34/96/24
f 31/97/25 29/98/25 13/99/25 15/100/25
f 34/101/26 33/102/26 30/103/26 32/104/26
f 35/105/27 36/106/27 38/107/27 37/108/27
f 16/109/28 36/110/28 35/111/28 39/112/28
f 40/113/29 37/114/29 38/115/29 14/116/29
f 39/117/30 35/118/30 37/119/30 40/120/30
f 36/121/31 16/122/31 14/123/31 38/124/31
f 37/125/32 30/126/32 42/127/32 41/128/32
f 33/129/33 30/130/33 37/131/33 40/132/33
f 43/133/34 41/134/34 42/135/34 44/136/34
f 35/137/35 46/138/35 45/139/35 32/140/35
f 45/141/36 46/142/36 48/143/36 47/144/36
f 35/145/37 32/146/37 34/147/37 39/148/37
o Speaker
v 0.1875 0.8125 0
v 0.8125 0.8125 0
v 0.1875 0.1875 0
v 0.8125 0.1875 0
v 0.3125 0.6875 0.375
v 0.6875 0.6875 0.375
v 0.3125 0.3125 0.375
v 0.6875 0.3125 0.375
v 0.4375 0.5625 -0.125
v 0.5625 0.5625 -0.125
v 0.4375 0.4375 -0.125
v 0.5625 0.4375 -0.125
v 0.375 0.625 0
v 0.625 0.625 0
v 0.375 0.375 0
v 0.625 0.375 0
v 0.1875 0.8125 -0.0625
v 0.25 0.8125 -0.0625
v 0.1875 0.1875 -0.0625
v 0.25 0.1875 -0.0625
v 0.25 0.8125 0
v 0.25 0.1875 0
v 0.75 0.1875 -0.0625
v 0.8125 0.1875 -0.0625
v 0.75 0.8125 -0.0625
v 0.8125 0.8125 -0.0625
v 0.75 0.1875 0
v 0.75 0.8125 0
v 0.75 0.75 -0.0625
v 0.25 0.75 -0.0625
v 0.75 0.75 0
v 0.25 0.75 0
v 0.25 0.25 -0.0625
v 0.75 0.25 -0.0625
v 0.25 0.25 0
v 0.75 0.25 0
vt 0.625 0.375
vt 0.625 1
vt 0 1
vt 0 0.375
vt 1 0.375
vt 0.625 0.375
vt 0.625 0
vt 1 0
vt 0.625 1
vt 0.625 0.375
vt 1 0.5
vt 1 0.875
vt 1 0.5
vt 0.625 0.375
vt 0.625 1
vt 1 0.875
vt 1 0.875
vt 0.625 1
vt 0.625 0.375
vt 1 0.5
vt 0.625 0.375
vt 0.625 1
vt 1 0.875
vt 1 0.5
vt 0.25 0.125
vt 0.25 0.25
vt 0.125 0.25
vt 0.125 0.125
vt 0.125 0.25
vt 0.25 0.25
vt 0.3125 0.375
vt 0.0625 0.375
vt 0.3125 0
vt 0.25 0.125
vt 0.125 0.125
vt 0.0625 0
vt 0.375 0.3125
vt 0.25 0.25
vt 0.25 0.125
vt 0.375 0.0625
vt 0.125 0.125
vt 0.125 0.25
vt 0 0.3125
vt 0 0.0625
vt 0.625 0.9375
vt 0.6875 0.9375
vt 0.6875 0.3125
vt 0.625 0.3125
vt 0.6875 0.3125
vt 0.6875 0.25
vt 0.625 0.25
vt 0.625 0.3125
vt 0.625 1
vt 0.6875 1
vt 0.6875 0.9375
vt 0.625 0.9375
vt 0.625 0.9375
vt 0.6875 0.9375
vt 0.6875 0.3125
vt 0.625 0.3125
vt 0.625 1
vt 0.6875 1
vt 0.6875 0.25
vt 0.625 0.25
vt 0.6875 0.3125
vt 0.6875 0.9375
vt 0.625 0.9375
vt 0.625 0.3125
vt 0.6875 0.25
vt 0.6875 0.3125
vt 0.625 0.3125
vt 0.625 0.25
vt 0.6875 0.9375
vt 0.6875 1
vt 0.625 1
vt 0.625 0.9375
vt 0.6875 0.3125
vt 0.6875 0.9375
vt 0.625 0.9375
vt 0.625 0.3125
vt 0.6875 0.3125
vt 0.6875 0.9375
vt 0.625 0.9375
vt 0.625 0.3125
vt 0.75 1
vt 0.6875 1
vt 0.6875 0.5
vt 0.75 0.5
vt 0.75 0.5
vt 0.75 1
vt 0.6875 1
vt 0.6875 0.5
vt 0.75 1
vt 0.75 0.5
vt 0.6875 0.5
vt 0.6875 1
vt 0.6875 0.5
vt 0.6875 1
vt 0.75 1
vt 0.75 0.5
vt 0.6875 1
vt 0.75 1
vt 0.75 0.5
vt 0.6875 0.5
vt 0.6875 0.5
vt 0.75 0.5
vt 0.75 1
vt 0.6875 1
vn 0 0 -1
vn 0 0 1
vn 0 0.948683298050514 0.316227766016838
vn 0 -0.948683298050514 0.316227766016838
vn -0.948683298050514 0 0.316227766016838
vn 0.948683298050514 0 0.316227766016838
vn 0 0 -1
vn 0 0.8944271909999161 -0.44721359549995804
vn 0 -0.8944271909999161 -0.44721359549995804
vn -0.8944271909999161 0 -0.44721359549995804
vn 0.8944271909999161 0 -0.44721359549995804
vn 0 0 -1
vn 0 1 0
vn 0 -1 0
vn -1 0 0
vn 1 0 0
vn 0 0 -1
vn 0 -1 0
vn 0 1 0
vn -1 0 0
vn 1 0 0
vn 0 0 -1
vn 0 1 0
vn 0 -1 0
vn 0 0 -1
vn 0 1 0
vn 0 -1 0
usemtl m_0
f 51/149/38 49/150/38 50/151/38 52/152/38
f 54/153/39 53/154/39 55/155/39 56/156/39
f 50/157/40 49/158/40 53/159/40 54/160/40
f 55/161/41 51/162/41 52/163/41 56/164/41
f 53/165/42 49/166/42 51/167/42 55/168/42
f 52/169/43 50/170/43 54/171/43 56/172/43
f 59/173/44 57/174/44 58/175/44 60/176/44
f 58/177/45 57/178/45 61/179/45 62/180/45
f 63/181/46 59/182/46 60/183/46 64/184/46
f 61/185/47 57/186/47 59/187/47 63/188/47
f 60/189/48 58/190/48 62/191/48 64/192/48
usemtl m_1
f 65/193/49 66/194/49 68/195/49 67/196/49
f 69/197/50 66/198/50 65/199/50 49/200/50
f 51/201/51 67/202/51 68/203/51 70/204/51
f 49/205/52 65/206/52 67/207/52 51/208/52
f 66/209/53 69/210/53 70/211/53 68/212/53
f 74/213/54 72/214/54 71/215/54 73/216/54
f 71/217/55 72/218/55 52/219/55 75/220/55
f 74/221/56 73/222/56 76/223/56 50/224/56
f 73/225/57 71/226/57 75/227/57 76/228/57
f 50/229/58 52/230/58 72/231/58 74/232/58
f 78/233/59 66/234/59 73/235/59 77/236/59
f 73/237/60 66/238/60 69/239/60 76/240/60
f 78/241/61 77/242/61 79/243/61 80/244/61
f 81/245/62 82/246/62 71/247/62 68/248/62
f 84/249/63 82/250/63 81/251/63 83/252/63
f 70/253/64 68/254/64 71/255/64 75/256/64