# Made by Pabilo8 in Blockbench 4.2.0
mtllib programmable_speaker.mtl

o Pole
v 0.5625 1 0.5625
v 0.5625 1 0.4375
v 0.625 0.9375 0.625
v 0.625 0.9375 0.375
v 0.4375 1 0.5625
v 0.4375 1 0.4375
v 0.375 0.9375 0.625
v 0.375 0.9375 0.375
v 0.625 0 0.625
v 0.625 0 0.375
v 0.375 0 0.625
v 0.375 0 0.375
vt 0.25 0.25
vt 0.125 0.25
vt 0.0625 0.375
vt 0.3125 0.375
vt 0.3125 0
vt 0.25 0.125
vt 0.125 0.125
vt 0.0625 0
vt 0.125 0.125
vt 0.25 0.125
vt 0.25 0.25
vt 0.125 0.25
vt 0.375 0.3125
vt 0.25 0.25
vt 0.25 0.125
vt 0.375 0.0625
vt 0.125 0.25
vt 0.125 0.125
vt 0 0.0625
vt 0 0.3125
vt 0.75 0.0625
vt 0.75 1
vt 1 1
vt 1 0.0625
vt 0.75 0.0625
vt 0.75 1
vt 1 1
vt 1 0.0625
vt 0.625 0.125
vt 0.625 0.375
vt 0.375 0.375
vt 0.375 0.125
vt 1 0.0625
vt 1 1
vt 0.75 1
vt 0.75 0.0625
vt 1 0.0625
vt 1 1
vt 0.75 1
vt 0.75 0.0625
vn 0.7071067811865476 0.7071067811865476 0
vn -0.7071067811865476 0.7071067811865476 0
vn 0 1 0
vn 0 0.7071067811865476 0.7071067811865476
vn 0 0.7071067811865476 -0.7071067811865476
vn 1 0 0
vn -1 0 0
vn 0 -1 0
vn 0 0 1
vn 0 0 -1
usemtl m_0
f 2/1/1 1/2/1 3/3/1 4/4/1
f 7/5/2 5/6/2 6/7/2 8/8/2
f 5/9/3 1/10/3 2/11/3 6/12/3
f 3/13/4 1/14/4 5/15/4 7/16/4
f 6/17/5 2/18/5 4/19/5 8/20/5
usemtl m_1
f 10/21/6 4/22/6 3/23/6 9/24/6
f 11/25/7 7/26/7 8/27/7 12/28/7
usemtl m_0
f 10/29/8 9/30/8 11/31/8 12/32/8
usemtl m_1
f 9/33/9 3/34/9 7/35/9 11/36/9
f 12/37/10 8/38/10 4/39/10 10/40/10
o Speaker
v 0.1875 0.8125 0
v 0.8125 0.8125 0
v 0.1875 0.1875 0
v 0.8125 0.1875 0
v 0.3125 0.6875 0.375
v 0.6875 0.6875 0.375
v 0.3125 0.3125 0.375
v 0.6875 0.3125 0.375
v 0.4375 0.5625 -0.125
v 0.5625 0.5625 -0.125
v 0.4375 0.4375 -0.125
v 0.5625 0.4375 -0.125
v 0.375 0.625 0
v 0.625 0.625 0
v 0.375 0.375 0
v 0.625 0.375 0
v 0.1875 0.8125 -0.0625
v 0.25 0.8125 -0.0625
v 0.1875 0.1875 -0.0625
v 0.25 0.1875 -0.0625
v 0.25 0.8125 0
v 0.25 0.1875 0
v 0.75 0.1875 -0.0625
v 0.8125 0.1875 -0.0625
v 0.75 0.8125 -0.0625
v 0.8125 0.8125 -0.0625
v 0.75 0.1875 0
v 0.75 0.8125 0
v 0.75 0.75 -0.0625
v 0.25 0.75 -0.0625
v 0.75 0.75 0
v 0.25 0.75 0
v 0.25 0.25 -0.0625
v 0.75 0.25 -0.0625
v 0.25 0.25 0
v 0.75 0.25 0
vt 0.625 0.375
vt 0.625 1
vt 0 1
vt 0 0.375
vt 1 0.375
vt 0.625 0.375
vt 0.625 0
vt 1 0
vt 0.625 1
vt 0.625 0.375
vt 1 0.5
vt 1 0.875
vt 1 0.5
vt 0.625 0.375
vt 0.625 1
vt 1 0.875
vt 1 0.875
vt 0.625 1
vt 0.625 0.375
vt 1 0.5
vt 0.625 0.375
vt 0.625 1
vt 1 0.875
vt 1 0.5
vt 0.25 0.125
vt 0.25 0.25
vt 0.125 0.25
vt 0.125 0.125
vt 0.125 0.25
vt 0.25 0.25
vt 0.3125 0.375
vt 0.0625 0.375
vt 0.3125 0
vt 0.25 0.125
vt 0.125 0.125
vt 0.0625 0
vt 0.375 0.3125
vt 0.25 0.25
vt 0.25 0.125
vt 0.375 0.0625
vt 0.125 0.125
vt 0.125 0.25
vt 0 0.3125
vt 0 0.0625
vt 0.625 0.9375
vt 0.6875 0.9375
vt 0.6875 0.3125
vt 0.625 0.3125
vt 0.6875 0.3125
vt 0.6875 0.25
vt 0.625 0.25
vt 0.625 0.3125
vt 0.625 1
vt 0.6875 1
vt 0.6875 0.9375
vt 0.625 0.9375
vt 0.625 0.9375
vt 0.6875 0.9375
vt 0.6875 0.3125
vt 0.625 0.3125
vt 0.625 0.9375
vt 0.6875 0.9375
vt 0.6875 0.3125
vt 0.625 0.3125
vt 0.6875 0.3125
vt 0.6875 0.9375
vt 0.625 0.9375
vt 0.625 0.3125
vt 0.6875 0.25
vt 0.6875 0.3125
vt 0.625 0.3125
vt 0.625 0.25
vt 0.6875 0.9375
vt 0.6875 1
vt 0.625 1
vt 0.625 0.9375
vt 0.6875 0.3125
vt 0.6875 0.9375
vt 0.625 0.9375
vt 0.625 0.3125
vt 0.6875 0.3125
vt 0.6875 0.9375
vt 0.625 0.9375
vt 0.625 0.3125
vt 0.75 1
vt 0.6875 1
vt 0.6875 0.5
vt 0.75 0.5
vt 0.75 0.5
vt 0.75 1
vt 0.6875 1
vt 0.6875 0.5
vt 0.75 1
vt 0.75 0.5
vt 0.6875 0.5
vt 0.6875 1
vt 0.6875 0.5
vt 0.6875 1
vt 0.75 1
vt 0.75 0.5
vt 0.6875 1
vt 0.75 1
vt 0.75 0.5
vt 0.6875 0.5
vt 0.6875 0.5
vt 0.75 0.5
vt 0.75 1
vt 0.6875 1
vn 0 0 -1
vn 0 0 1
vn 0 0.948683298050514 0.316227766016838
vn 0 -0.948683298050514 0.316227766016838
vn -0.948683298050514 0 0.316227766016838
vn 0.948683298050514 0 0.316227766016838
vn 0 0 -1
vn 0 0.8944271909999161 -0.44721359549995804
vn 0 -0.8944271909999161 -0.44721359549995804
vn -0.8944271909999161 0 -0.44721359549995804
vn 0.8944271909999161 0 -0.44721359549995804
vn 0 0 -1
vn 0 1 0
vn 0 -1 0
vn -1 0 0
vn 1 0 0
vn 0 0 -1
vn 0 -1 0
vn 0 1 0
vn -1 0 0
vn 1 0 0
vn 0 0 -1
vn 0 1 0
vn 0 -1 0
vn 0 0 -1
vn 0 1 0
vn 0 -1 0
usemtl m_0
f 15/41/11 13/42/11 14/43/11 16/44/11
f 18/45/12 17/46/12 19/47/12 20/48/12
f 14/49/13 13/50/13 17/51/13 18/52/13
f 19/53/14 15/54/14 16/55/14 20/56/14
f 17/57/15 13/58/15 15/59/15 19/60/15
f 16/61/16 14/62/16 18/63/16 20/64/16
f 23/65/17 21/66/17 22/67/17 24/68/17
f 22/69/18 21/70/18 25/71/18 26/72/18
f 27/73/19 23/74/19 24/75/19 28/76/19
f 25/77/20 21/78/20 23/79/20 27/80/20
f 24/81/21 22/82/21 26/83/21 28/84/21
usemtl m_1
f 29/85/22 30/86/22 32/87/22 31/88/22
f 33/89/23 30/90/23 29/91/23 13/92/23
f 15/93/24 31/94/24 32/95/24 34/96/24
f 13/97/25 29/98/25 31/99/25 15/100/25
f 30/101/26 33/102/26 34/103/26 32/104/26
f 38/105/27 36/106/27 35/107/27 37/108/27
f 35/109/28 36/110/28 16/111/28 39/112/28
f 38/113/29 37/114/29 40/115/29 14/116/29
f 37/117/30 35/118/30 39/119/30 40/120/30
f 14/121/31 16/122/31 36/123/31 38/124/31
f 42/125/32 30/126/32 37/127/32 41/128/32
f 37/129/33 30/130/33 33/131/33 40/132/33
f 42/133/34 41/134/34 43/135/34 44/136/34
f 45/137/35 46/138/35 35/139/35 32/140/35
f 48/141/36 46/142/36 45/143/36 47/144/36
f 34/145/37 32/146/37 35/147/37 39/148/37
o Speaker
v 0.1875 0.8125 1
v 0.8125 0.8125 1
v 0.1875 0.1875 1
v 0.8125 0.1875 1
v 0.3125 0.6875 0.625
v 0.6875 0.6875 0.625
v 0.3125 0.3125 0.625
v 0.6875 0.3125 0.625
v 0.4375 0.5625 1.125
v 0.5625 0.5625 1.125
v 0.4375 0.4375 1.125
v 0.5625 0.4375 1.125
v 0.375 0.625 1
v 0.625 0.625 1
v 0.375 0.375 1
v 0.625 0.375 1
v 0.1875 0.8125 1.0625
v 0.25 0.8125 1.0625
v 0.1875 0.1875 1.0625
v 0.25 0.1875 1.0625
v 0.25 0.8125 1
v 0.25 0.1875 1
v 0.75 0.1875 1.0625
v 0.8125 0.1875 1.0625
v 0.75 0.8125 1.0625
v 0.8125 0.8125 1.0625
v 0.75 0.1875 1
v 0.75 0.8125 1
v 0.75 0.75 1.0625
v 0.25 0.75 1.0625
v 0.75 0.75 1
v 0.25 0.75 1
v 0.25 0.25 1.0625
v 0.75 0.25 1.0625
v 0.25 0.25 1
v 0.75 0.25 1
vt 0 1
vt 0.625 1
vt 0.625 0.375
vt 0 0.375
vt 0.625 0
vt 0.625 0.375
vt 1 0.375
vt 1 0
vt 1 0.5
vt 0.625 0.375
vt 0.625 1
vt 1 0.875
vt 0.625 1
vt 0.625 0.375
vt 1 0.5
vt 1 0.875
vt 0.625 0.375
vt 0.625 1
vt 1 0.875
vt 1 0.5
vt 1 0.875
vt 0.625 1
vt 0.625 0.375
vt 1 0.5
vt 0.125 0.25
vt 0.25 0.25
vt 0.25 0.125
vt 0.125 0.125
vt 0.3125 0.375
vt 0.25 0.25
vt 0.125 0.25
vt 0.0625 0.375
vt 0.125 0.125
vt 0.25 0.125
vt 0.3125 0
vt 0.0625 0
vt 0.25 0.125
vt 0.25 0.25
vt 0.375 0.3125
vt 0.375 0.0625
vt 0 0.3125
vt 0.125 0.25
vt 0.125 0.125
vt 0 0.0625
vt 0.6875 0.3125
vt 0.6875 0.9375
vt 0.625 0.9375
vt 0.625 0.3125
vt 0.625 0.25
vt 0.6875 0.25
vt 0.6875 0.3125
vt 0.625 0.3125
vt 0.6875 0.9375
vt 0.6875 1
vt 0.625 1
vt 0.625 0.9375
vt 0.6875 0.3125
vt 0.6875 0.9375
vt 0.625 0.9375
vt 0.625 0.3125
vt 0.6875 0.3125
vt 0.6875 0.9375
vt 0.625 0.9375
vt 0.625 0.3125
vt 0.625 0.9375
vt 0.6875 0.9375
vt 0.6875 0.3125
vt 0.625 0.3125
vt 0.625 0.3125
vt 0.6875 0.3125
vt 0.6875 0.25
vt 0.625 0.25
vt 0.625 1
vt 0.6875 1
vt 0.6875 0.9375
vt 0.625 0.9375
vt 0.625 0.9375
vt 0.6875 0.9375
vt 0.6875 0.3125
vt 0.625 0.3125
vt 0.625 0.9375
vt 0.6875 0.9375
vt 0.6875 0.3125
vt 0.625 0.3125
vt 0.6875 0.5
vt 0.6875 1
vt 0.75 1
vt 0.75 0.5
vt 0.6875 1
vt 0.75 1
vt 0.75 0.5
vt 0.6875 0.5
vt 0.6875 0.5
vt 0.75 0.5
vt 0.75 1
vt 0.6875 1
vt 0.75 1
vt 0.6875 1
vt 0.6875 0.5
vt 0.75 0.5
vt 0.75 0.5
vt 0.75 1
vt 0.6875 1
vt 0.6875 0.5
vt 0.75 1
vt 0.75 0.5
vt 0.6875 0.5
vt 0.6875 1
vn 0 0 1
vn 0 0 -1
vn 0 0.948683298050514 -0.316227766016838
vn 0 -0.948683298050514 -0.316227766016838
vn -0.948683298050514 0 -0.316227766016838
vn 0.948683298050514 0 -0.316227766016838
vn 0 0 1
vn 0 0.8944271909999161 0.44721359549995804
vn 0 -0.8944271909999161 0.44721359549995804
vn -0.8944271909999161 0 0.44721359549995804
vn 0.8944271909999161 0 0.44721359549995804
vn 0 0 1
vn 0 1 0
vn 0 -1 0
vn -1 0 0
vn 1 0 0
vn 0 0 1
vn 0 -1 0
vn 0 1 0
vn -1 0 0
vn 1 0 0
vn 0 0 1
vn 0 1 0
vn 0 -1 0
vn 0 0 1
vn 0 1 0
vn 0 -1 0
usemtl m_0
f 50/149/38 49/150/38 51/151/38 52/152/38
f 55/153/39 53/154/39 54/155/39 56/156/39
f 53/157/40 49/158/40 50/159/40 54/160/40
f 52/161/41 51/162/41 55/163/41 56/164/41
f 51/165/42 49/166/42 53/167/42 55/168/42
f 54/169/43 50/170/43 52/171/43 56/172/43
f 58/173/44 57/174/44 59/175/44 60/176/44
f 61/177/45 57/178/45 58/179/45 62/180/45
f 60/181/46 59/182/46 63/183/46 64/184/46
f 59/185/47 57/186/47 61/187/47 63/188/47
f 62/189/48 58/190/48 60/191/48 64/192/48
usemtl m_1
f 68/193/49 66/194/49 65/195/49 67/196/49
f 65/197/50 66/198/50 69/199/50 49/200/50
f 68/201/51 67/202/51 51/203/51 70/204/51
f 67/205/52 65/206/52 49/207/52 51/208/52
f 70/209/53 69/210/53 66/211/53 68/212/53
f 71/213/54 72/214/54 74/215/54 73/216/54
f 52/217/55 72/218/55 71/219/55 75/220/55
f 76/221/56 73/222/56 74/223/56 50/224/56
f 75/225/57 71/226/57 73/227/57 76/228/57
f 72/229/58 52/230/58 50/231/58 74/232/58
f 73/233/59 66/234/59 78/235/59 77/236/59
f 69/237/60 66/238/60 73/239/60 76/240/60
f 79/241/61 77/242/61 78/243/61 80/244/61
f 71/245/62 82/246/62 81/247/62 68/248/62
f 81/249/63 82/250/63 84/251/63 83/252/63
f 71/253/64 68/254/64 70/255/64 75/256/64
o Speaker
v 1 0.8125 0.1875
v 1 0.8125 0.8125
v 1 0.1875 0.1875
v 1 0.1875 0.8125
v 0.625 0.6875 0.3125
v 0.625 0.6875 0.6875
v 0.625 0.3125 0.3125
v 0.625 0.3125 0.6875
v 1.125 0.5625 0.4375
v 1.125 0.5625 0.5625
v 1.125 0.4375 0.4375
v 1.125 0.4375 0.5625
v 1 0.625 0.375
v 1 0.625 0.625
v 1 0.375 0.375
v 1 0.375 0.625
v 1.0625 0.8125 0.1875
v 1.0625 0.8125 0.25
v 1.0625 0.1875 0.1875
v 1.0625 0.1875 0.25
v 1 0.8125 0.25
v 1 0.1875 0.25
v 1.0625 0.1875 0.75
v 1.0625 0.1875 0.8125
v 1.0625 0.8125 0.75
v 1.0625 0.8125 0.8125
v 1 0.1875 0.75
v 1 0.8125 0.75
v 1.0625 0.75 0.75
v 1.0625 0.75 0.25
v 1 0.75 0.75
v 1 0.75 0.25
v 1.0625 0.25 0.25
v 1.0625 0.25 0.75
v 1 0.25 0.25
v 1 0.25 0.75
vt 0.625 0.375
vt 0.625 1
vt 0 1
vt 0 0.375
vt 1 0.375
vt 0.625 0.375
vt 0.625 0
vt 1 0
vt 0.625 1
vt 0.625 0.375
vt 1 0.5
vt 1 0.875
vt 1 0.5
vt 0.625 0.375
vt 0.625 1
vt 1 0.875
vt 1 0.875
vt 0.625 1
vt 0.625 0.375
vt 1 0.5
vt 0.625 0.375
vt 0.625 1
vt 1 0.875
vt 1 0.5
vt 0.25 0.125
vt 0.25 0.25
vt 0.125 0.25
vt 0.125 0.125
vt 0.125 0.25
vt 0.25 0.25
vt 0.3125 0.375
vt 0.0625 0.375
vt 0.3125 0
vt 0.25 0.125
vt 0.125 0.125
vt 0.0625 0
vt 0.375 0.3125
vt 0.25 0.25
vt 0.25 0.125
vt 0.375 0.0625
vt 0.125 0.125
vt 0.125 0.25
vt 0 0.3125
vt 0 0.0625
vt 0.625 0.9375
vt 0.6875 0.9375
vt 0.6875 0.3125
vt 0.625 0.3125
vt 0.6875 0.3125
vt 0.6875 0.25
vt 0.625 0.25
vt 0.625 0.3125
vt 0.625 1
vt 0.6875 1
vt 0.6875 0.9375
vt 0.625 0.9375
vt 0.625 0.9375
vt 0.6875 0.9375
vt 0.6875 0.3125
vt 0.625 0.3125
vt 0.625 0.9375
vt 0.6875 0.9375
vt 0.6875 0.3125
vt 0.625 0.3125
vt 0.6875 0.3125
vt 0.6875 0.9375
vt 0.625 0.9375
vt 0.625 0.3125
vt 0.6875 0.25
vt 0.6875 0.3125
vt 0.625 0.3125
vt 0.625 0.25
vt 0.6875 0.9375
vt 0.6875 1
vt 0.625 1
vt 0.625 0.9375
vt 0.6875 0.3125
vt 0.6875 0.9375
vt 0.625 0.9375
vt 0.625 0.3125
vt 0.6875 0.3125
vt 0.6875 0.9375
vt 0.625 0.9375
vt 0.625 0.3125
vt 0.75 1
vt 0.6875 1
vt 0.6875 0.5
vt 0.75 0.5
vt 0.75 0.5
vt 0.75 1
vt 0.6875 1
vt 0.6875 0.5
vt 0.75 1
vt 0.75 0.5
vt 0.6875 0.5
vt 0.6875 1
vt 0.6875 0.5
vt 0.6875 1
vt 0.75 1
vt 0.75 0.5
vt 0.6875 1
vt 0.75 1
vt 0.75 0.5
vt 0.6875 0.5
vt 0.6875 0.5
vt 0.75 0.5
vt 0.75 1
vt 0.6875 1
vn 1 0 0
vn -1 0 0
vn -0.316227766016838 0.948683298050514 0
vn -0.316227766016838 -0.948683298050514 0
vn -0.316227766016838 0 -0.948683298050514
vn -0.316227766016838 0 0.948683298050514
vn 1 0 0
vn 0.44721359549995804 0.8944271909999161 0
vn 0.44721359549995804 -0.8944271909999161 0
vn 0.44721359549995804 0 -0.8944271909999161
vn 0.44721359549995804 0 0.8944271909999161
vn 1 0 0
vn 0 1 0
vn 0 -1 0
vn 0 0 -1
vn 0 0 1
vn 1 0 0
vn 0 -1 0
vn 0 1 0
vn 0 0 -1
vn 0 0 1
vn 1 0 0
vn 0 1 0
vn 0 -1 0
vn 1 0 0
vn 0 1 0
vn 0 -1 0
usemtl m_0
f 87/257/65 85/258/65 86/259/65 88/260/65
f 90/261/66 89/262/66 91/263/66 92/264/66
f 86/265/67 85/266/67 89/267/67 90/268/67
f 91/269/68 87/270/68 88/271/68 92/272/68
f 89/273/69 85/274/69 87/275/69 91/276/69
f 88/277/70 86/278/70 90/279/70 92/280/70
f 95/281/71 93/282/71 94/283/71 96/284/71
f 94/285/72 93/286/72 97/287/72 98/288/72
f 99/289/73 95/290/73 96/291/73 100/292/73
f 97/293/74 93/294/74 95/295/74 99/296/74
f 96/297/75 94/298/75 98/299/75 100/300/75
usemtl m_1
f 101/301/76 102/302/76 104/303/76 103/304/76
f 105/305/77 102/306/77 101/307/77 85/308/77
f 87/309/78 103/310/78 104/311/78 106/312/78
f 85/313/79 101/314/79 103/315/79 87/316/79
f 102/317/80 105/318/80 106/319/80 104/320/80
f 110/321/81 108/322/81 107/323/81 109/324/81
f 107/325/82 108/326/82 88/327/82 111/328/82
f 110/329/83 109/330/83 112/331/83 86/332/83
f 109/333/84 107/334/84 111/335/84 112/336/84
f 86/337/85 88/338/85 108/339/85 110/340/85
f 114/341/86 102/342/86 109/343/86 113/344/86
f 109/345/87 102/346/87 105/347/87 112/348/87
f 114/349/88 113/350/88 115/351/88 116/352/88
f 117/353/89 118/354/89 107/355/89 104/356/89
f 120/357/90 118/358/90 117/359/90 119/360/90
f 106/361/91 104/362/91 107/363/91 111/364/91
o Speaker
v 0 0.8125 0.1875
v 0 0.8125 0.8125
v 0 0.1875 0.1875
v 0 0.1875 0.8125
v 0.375 0.6875 0.3125
v 0.375 0.6875 0.6875
v 0.375 0.3125 0.3125
v 0.375 0.3125 0.6875
v -0.125 0.5625 0.4375
v -0.125 0.5625 0.5625
v -0.125 0.4375 0.4375
v -0.125 0.4375 0.5625
v 0 0.625 0.375
v 0 0.625 0.625
v 0 0.375 0.375
v 0 0.375 0.625
v -0.0625 0.8125 0.1875
v -0.0625 0.8125 0.25
v -0.0625 0.1875 0.1875
v -0.0625 0.1875 0.25
v 0 0.8125 0.25
v 0 0.1875 0.25
v -0.0625 0.1875 0.75
v -0.0625 0.1875 0.8125
v -0.0625 0.8125 0.75
v -0.0625 0.8125 0.8125
v 0 0.1875 0.75
v 0 0.8125 0.75
v -0.0625 0.75 0.75
v -0.0625 0.75 0.25
v 0 0.75 0.75
v 0 0.75 0.25
v -0.0625 0.25 0.25
v -0.0625 0.25 0.75
v 0 0.25 0.25
v 0 0.25 0.75
vt 0 1
vt 0.625 1
vt 0.625 0.375
vt 0 0.375
vt 0.625 0
vt 0.625 0.375
vt 1 0.375
vt 1 0
vt 1 0.5
vt 0.625 0.375
vt 0.625 1
vt 1 0.875
vt 0.625 1
vt 0.625 0.375
vt 1 0.5
vt 1 0.875
vt 0.625 0.375
vt 0.625 1
vt 1 0.875
vt 1 0.5
vt 1 0.875
vt 0.625 1
vt 0.625 0.375
vt 1 0.5
vt 0.125 0.25
vt 0.25 0.25
vt 0.25 0.125
vt 0.125 0.125
vt 0.3125 0.375
vt 0.25 0.25
vt 0.125 0.25
vt 0.0625 0.375
vt 0.125 0.125
vt 0.25 0.125
vt 0.3125 0
vt 0.0625 0
vt 0.25 0.125
vt 0.25 0.25
vt 0.375 0.3125
vt 0.375 0.0625
vt 0 0.3125
vt 0.125 0.25
vt 0.125 0.125
vt 0 0.0625
vt 0.6875 0.3125
vt 0.6875 0.9375
vt 0.625 0.9375
vt 0.625 0.3125
vt 0.625 0.25
vt 0.6875 0.25
vt 0.6875 0.3125
vt 0.625 0.3125
vt 0.6875 0.9375
vt 0.6875 1
vt 0.625 1
vt 0.625 0.9375
vt 0.6875 0.3125
vt 0.6875 0.9375
vt 0.625 0.9375
vt 0.625 0.3125
vt 0.6875 0.3125
vt 0.6875 0.9375
vt 0.625 0.9375
vt 0.625 0.3125
vt 0.625 0.9375
vt 0.6875 0.9375
vt 0.6875 0.3125
vt 0.625 0.3125
vt 0.625 0.3125
vt 0.6875 0.3125
vt 0.6875 0.25
vt 0.625 0.25
vt 0.625 1
vt 0.6875 1
vt 0.6875 0.9375
vt 0.625 0.9375
vt 0.625 0.9375
vt 0.6875 0.9375
vt 0.6875 0.3125
vt 0.625 0.3125
vt 0.625 0.9375
vt 0.6875 0.9375
vt 0.6875 0.3125
vt 0.625 0.3125
vt 0.6875 0.5
vt 0.6875 1
vt 0.75 1
vt 0.75 0.5
vt 0.6875 1
vt 0.75 1
vt 0.75 0.5
vt 0.6875 0.5
vt 0.6875 0.5
vt 0.75 0.5
vt 0.75 1
vt 0.6875 1
vt 0.75 1
vt 0.6875 1
vt 0.6875 0.5
vt 0.75 0.5
vt 0.75 0.5
vt 0.75 1
vt 0.6875 1
vt 0.6875 0.5
vt 0.75 1
vt 0.75 0.5
vt 0.6875 0.5
vt 0.6875 1
vn -1 0 0
vn 1 0 0
vn 0.316227766016838 0.948683298050514 0
vn 0.316227766016838 -0.948683298050514 0
vn 0.316227766016838 0 -0.948683298050514
vn 0.316227766016838 0 0.948683298050514
vn -1 0 0
vn -0.44721359549995804 0.8944271909999161 0
vn -0.44721359549995804 -0.8944271909999161 0
vn -0.44721359549995804 0 -0.8944271909999161
vn -0.44721359549995804 0 0.8944271909999161
vn -1 0 0
vn 0 1 0
vn 0 -1 0
vn 0 0 -1
vn 0 0 1
vn -1 0 0
vn 0 -1 0
vn 0 1 0
vn 0 0 -1
vn 0 0 1
vn -1 0 0
vn 0 1 0
vn 0 -1 0
vn -1 0 0
vn 0 1 0
vn 0 -1 0
usemtl m_0
f 122/365/92 121/366/92 123/367/92 124/368/92
f 127/369/93 125/370/93 126/371/93 128/372/93
f 125/373/94 121/374/94 122/375/94 126/376/94
f 124/377/95 123/378/95 127/379/95 128/380/95
f 123/381/96 121/382/96 125/383/96 127/384/96
f 126/385/97 122/386/97 124/387/97 128/388/97
f 130/389/98 129/390/98 131/391/98 132/392/98
f 133/393/99 129/394/99 130/395/99 134/396/99
f 132/397/100 131/398/100 135/399/100 136/400/100
f 131/401/101 129/402/101 133/403/101 135/404/101
f 134/405/102 130/406/102 132/407/102 136/408/102
usemtl m_1
f 140/409/103 138/410/103 137/411/103 139/412/103
f 137/413/104 138/414/104 141/415/104 121/416/104
f 140/417/105 139/418/105 123/419/105 142/420/105
f 139/421/106 137/422/106 121/423/106 123/424/106
f 142/425/107 141/426/107 138/427/107 140/428/107
f 143/429/108 144/430/108 146/431/108 145/432/108
f 124/433/109 144/434/109 143/435/109 147/436/109
f 148/437/110 145/438/110 146/439/110 122/440/110
f 147/441/111 143/442/111 145/443/111 148/444/111
f 144/445/112 124/446/112 122/447/112 146/448/112
f 145/449/113 138/450/113 150/451/113 149/452/113
f 141/453/114 138/454/114 145/455/114 148/456/114
f 151/457/115 149/458/115 150/459/115 152/460/115
f 143/461/116 154/462/116 153/463/116 140/464/116
f 153/465/117 154/466/117 156/467/117 155/468/117
f 143/469/118 140/470/118 142/471/118 147/472/118