# Made by Pabilo8 in Blockbench 4.2.0
mtllib punchtape_reader.mtl

o block
v 1 1 1
v 1 1 0.125
v 1 0 1
v 1 0 0.125
v 0 1 1
v 0 1 0.125
v 0 0 1
v 0 0 0.125
vt 0.4375 0
vt 0.4375 0.5
vt 0 0.5
vt 0 0
vt 0.4375 0
vt 0.4375 0.5
vt 0 0.5
vt 0 0
vt 0.4375 0.5
vt 5.551115123125783e-17 0.5
vt 0 0
vt 0.4375 0
vt 0.4375 0.5
vt 5.551115123125783e-17 0.5
vt 0 0
vt 0.4375 0
vt 0.5 0.5
vt 0.5 1
vt 0 1
vt 0 0.5
vt 0.9375 0
vt 0.9375 0.5
vt 0.4375 0.5
vt 0.4375 0
vn 1 0 0
vn -1 0 0
vn 0 1 0
vn 0 -1 0
vn 0 0 1
vn 0 0 -1
usemtl m_0
f 4/1/1 2/2/1 1/3/1 3/4/1
f 7/5/2 5/6/2 6/7/2 8/8/2
f 1/9/3 2/10/3 6/11/3 5/12/3
f 4/13/4 3/14/4 7/15/4 8/16/4
f 3/17/5 1/18/5 5/19/5 7/20/5
f 8/21/6 6/22/6 2/23/6 4/24/6
o in
v 0.8125 0.8125 0.125
v 0.8125 0.8125 0.0625
v 0.8125 0.75 0.125
v 0.8125 0.75 0.0625
v 0.75 0.8125 0.125
v 0.75 0.8125 0.0625
v 0.75 0.75 0.125
v 0.75 0.75 0.0625
v 0.75 0.875 0.125
v 0.75 0.875 0.0625
v 0.25 0.875 0.125
v 0.25 0.875 0.0625
v 0.1875 0.8125 0.125
v 0.1875 0.8125 0.0625
v 0.8125 0.75 0
v 0.8125 0.6875 0.125
v 0.8125 0.6875 0
v 0.1875 0.75 0.125
v 0.1875 0.75 0
v 0.1875 0.6875 0.125
v 0.1875 0.6875 0
v 0.25 0.8125 0.125
v 0.25 0.8125 0.0625
v 0.25 0.75 0.125
v 0.25 0.75 0.0625
v 0.1875 0.75 0.0625
vt 0.53125 0.6875
vt 0.53125 0.71875
vt 0.5 0.71875
vt 0.5 0.6875
vt 0.53125 0.6875
vt 0.53125 0.71875
vt 0.5 0.71875
vt 0.5 0.6875
vt 0.53125 0.6875
vt 0.53125 0.71875
vt 0.5 0.71875
vt 0.5 0.6875
vt 0.78125 0.75
vt 0.78125 0.71875
vt 0.8125 0.71875
vt 0.8125 0.75
vt 0.53125 0.75
vt 0.5 0.75
vt 0.5 0.71875
vt 0.53125 0.71875
vt 0.53125 0.71875
vt 0.78125 0.71875
vt 0.78125 0.75
vt 0.53125 0.75
vt 0.8125 0.71875
vt 0.8125 0.75
vt 0.5 0.75
vt 0.5 0.71875
vt 0.78125 0.75
vt 0.53125 0.75
vt 0.5 0.71875
vt 0.8125 0.71875
vt 0.53125 0.6875
vt 0.5 0.6875
vt 0.5 0.625
vt 0.53125 0.625
vt 0.8125 0.6875
vt 0.78125 0.6875
vt 0.78125 0.625
vt 0.8125 0.625
vt 0.8125 0.625
vt 0.8125 0.6875
vt 0.5 0.6875
vt 0.5 0.625
vt 0.8125 0.6875
vt 0.8125 0.625
vt 0.5 0.625
vt 0.5 0.6875
vt 0.8125 0.65625
vt 0.8125 0.6875
vt 0.5 0.6875
vt 0.5 0.65625
vt 0.8125 0.6875
vt 0.8125 0.71875
vt 0.78125 0.71875
vt 0.78125 0.6875
vt 0.8125 0.6875
vt 0.8125 0.71875
vt 0.78125 0.71875
vt 0.78125 0.6875
vt 0.8125 0.6875
vt 0.8125 0.71875
vt 0.78125 0.71875
vt 0.78125 0.6875
vn 1 0 0
vn -1 0 0
vn 0 0 -1
vn 0.7071067811865476 0.7071067811865476 0
vn -0.7071067811865476 0.7071067811865476 0
vn 0 1 0
vn 0 -1 0
vn 0 0 -1
vn 1 0 0
vn -1 0 0
vn 0 1 0
vn 0 -1 0
vn 0 0 -1
vn 1 0 0
vn -1 0 0
vn 0 0 -1
usemtl m_0
f 12/25/7 10/26/7 9/27/7 11/28/7
f 15/29/8 13/30/8 14/31/8 16/32/8
f 16/33/9 14/34/9 10/35/9 12/36/9
f 18/37/10 17/38/10 9/39/10 10/40/10
f 21/41/11 19/42/11 20/43/11 22/44/11
f 19/45/12 17/46/12 18/47/12 20/48/12
f 10/49/13 9/50/13 21/51/13 22/52/13
f 20/53/14 18/54/14 10/55/14 22/56/14
f 25/57/15 23/58/15 11/59/15 24/60/15
f 28/61/16 26/62/16 27/63/16 29/64/16
f 11/65/17 23/66/17 27/67/17 26/68/17
f 25/69/18 24/70/18 28/71/18 29/72/18
f 29/73/19 27/74/19 23/75/19 25/76/19
f 33/77/20 31/78/20 30/79/20 32/80/20
f 26/81/21 21/82/21 22/83/21 34/84/21
f 34/85/22 22/86/22 31/87/22 33/88/22
o out
v 0.8125 0.4375 0.125
v 0.8125 0.4375 0.0625
v 0.8125 0.375 0.125
v 0.8125 0.375 0.0625
v 0.75 0.4375 0.125
v 0.75 0.4375 0.0625
v 0.75 0.375 0.125
v 0.75 0.375 0.0625
v 0.75 0.5 0.125
v 0.75 0.5 0.0625
v 0.25 0.5 0.125
v 0.25 0.5 0.0625
v 0.1875 0.4375 0.125
v 0.1875 0.4375 0.0625
v 0.8125 0.375 0
v 0.8125 0.3125 0.125
v 0.8125 0.3125 0
v 0.1875 0.375 0.125
v 0.1875 0.375 0
v 0.1875 0.3125 0.125
v 0.1875 0.3125 0
v 0.25 0.4375 0.125
v 0.25 0.4375 0.0625
v 0.25 0.375 0.125
v 0.25 0.375 0.0625
v 0.1875 0.375 0.0625
vt 0.53125 0.5625
vt 0.53125 0.59375
vt 0.5 0.59375
vt 0.5 0.5625
vt 0.53125 0.5625
vt 0.53125 0.59375
vt 0.5 0.59375
vt 0.5 0.5625
vt 0.53125 0.5625
vt 0.53125 0.59375
vt 0.5 0.59375
vt 0.5 0.5625
vt 0.78125 0.625
vt 0.78125 0.59375
vt 0.8125 0.59375
vt 0.8125 0.625
vt 0.53125 0.625
vt 0.5 0.625
vt 0.5 0.59375
vt 0.53125 0.59375
vt 0.53125 0.59375
vt 0.78125 0.59375
vt 0.78125 0.625
vt 0.53125 0.625
vt 0.8125 0.59375
vt 0.8125 0.625
vt 0.5 0.625
vt 0.5 0.59375
vt 0.78125 0.625
vt 0.53125 0.625
vt 0.5 0.59375
vt 0.8125 0.59375
vt 0.53125 0.5625
vt 0.5 0.5625
vt 0.5 0.5
vt 0.53125 0.5
vt 0.8125 0.5625
vt 0.78125 0.5625
vt 0.78125 0.5
vt 0.8125 0.5
vt 0.8125 0.5
vt 0.8125 0.5625
vt 0.5 0.5625
vt 0.5 0.5
vt 0.8125 0.5625
vt 0.8125 0.5
vt 0.5 0.5
vt 0.5 0.5625
vt 0.8125 0.53125
vt 0.8125 0.5625
vt 0.5 0.5625
vt 0.5 0.53125
vt 0.8125 0.5625
vt 0.8125 0.59375
vt 0.78125 0.59375
vt 0.78125 0.5625
vt 0.8125 0.5625
vt 0.8125 0.59375
vt 0.78125 0.59375
vt 0.78125 0.5625
vt 0.8125 0.5625
vt 0.8125 0.59375
vt 0.78125 0.59375
vt 0.78125 0.5625
vn 1 0 0
vn -1 0 0
vn 0 0 -1
vn 0.7071067811865476 0.7071067811865476 0
vn -0.7071067811865476 0.7071067811865476 0
vn 0 1 0
vn 0 -1 0
vn 0 0 -1
vn 1 0 0
vn -1 0 0
vn 0 1 0
vn 0 -1 0
vn 0 0 -1
vn 1 0 0
vn -1 0 0
vn 0 0 -1
usemtl m_0
f 38/89/23 36/90/23 35/91/23 37/92/23
f 41/93/24 39/94/24 40/95/24 42/96/24
f 42/97/25 40/98/25 36/99/25 38/100/25
f 44/101/26 43/102/26 35/103/26 36/104/26
f 47/105/27 45/106/27 46/107/27 48/108/27
f 45/109/28 43/110/28 44/111/28 46/112/28
f 36/113/29 35/114/29 47/115/29 48/116/29
f 46/117/30 44/118/30 36/119/30 48/120/30
f 51/121/31 49/122/31 37/123/31 50/124/31
f 54/125/32 52/126/32 53/127/32 55/128/32
f 37/129/33 49/130/33 53/131/33 52/132/33
f 51/133/34 50/134/34 54/135/34 55/136/34
f 55/137/35 53/138/35 49/139/35 51/140/35
f 59/141/36 57/142/36 56/143/36 58/144/36
f 52/145/37 47/146/37 48/147/37 60/148/37
f 60/149/38 48/150/38 57/151/38 59/152/38