# Made by Pabilo8 with Blockbench
# Exported with IIToolkit Plugin
mtllib arithmetic_logic_machine.mtl


o main
v 0.191667167679842 -0.3749999999999998 -0.15940824504115456
v 0.014157577239890362 -0.3749999999999998 -0.7586705793337752
v 0.191667167679842 -0.6874999999999998 -0.15940824504115456
v 0.014157577239890362 -0.6874999999999998 -0.7586705793337752
v -0.6473001003298269 -0.3749999999999998 0.08910518157477776
v -0.8248096907697785 -0.3749999999999998 -0.5101571527178429
v -0.6473001003298269 -0.6874999999999998 0.08910518157477776
v -0.8248096907697785 -0.6874999999999998 -0.5101571527178429
v -0.7500000000000001 0.234375 -1.1102230246251565e-16
v -0.75 0.234375 -0.06250000000000011
v -0.7500000000000001 0.109375 -1.1102230246251565e-16
v -0.75 0.109375 -0.06250000000000011
v -0.875 0.234375 -1.1102230246251565e-16
v -0.875 0.234375 -0.06250000000000011
v -0.875 0.109375 -1.1102230246251565e-16
v -0.875 0.109375 -0.06250000000000011
v 1 2 0.9999999999999998
v 0.9999999999999998 2 0
v -0.9999999999999999 2 1
v -1 2 -5.551115123125783e-17
v 0.9999999999999998 1.9375000000000002 0
v 0.9999999999999998 0 0
v 0.9375 1.9375000000000002 0.9374999999999998
v 0.9375 1.9375000000000002 0
v 0.9375 0 0.9374999999999998
v 0.9375 0 0
v -0.9375 1.9375000000000002 0.9375
v -0.9375 1.9375000000000002 -5.551115123125783e-17
v -0.9375 0 -5.551115123125783e-17
v -1 1.9375000000000002 -5.551115123125783e-17
v -1 0 -5.551115123125783e-17
v 1 0 0.9999999999999998
v -0.9999999999999999 0 1
v -0.9375 0 0.9375
v -0.9375 0.96875 0.9375
v 0.9375 0.96875 0.9374999999999998
v 0.9999999999999998 1.375 2
v 1 1.375 0.9999999999999998
v 0.9999999999999998 -0.375 2
v 1 -0.375 0.9999999999999998
v 1.1102230246251565e-16 1.375 1.9999999999999998
v 1.1102230246251565e-16 -0.375 1.9999999999999998
v 0.9999999999999998 1.9375000000000002 2
v 1 1.9375000000000002 1.8749999999999998
v 1 1.375 1.8749999999999998
v 0.875 1.9375000000000002 1.9999999999999998
v 0.9374999999999998 1.9375000000000002 1.9374999999999998
v 0.875 1.375 1.9999999999999998
v 0.9374999999999998 1.375 1.9374999999999998
v 0.125 1.9375000000000002 1.9999999999999998
v 0.12499999999999994 1.9375000000000002 1.9375000000000002
v 0.125 1.375 1.9999999999999998
v 0.12499999999999994 1.375 1.9375000000000002
v 1.1102230246251565e-16 1.9375000000000002 1.9999999999999998
v 1.0000000000000002 1.9375000000000002 1.125
v 1 1.9375000000000002 0.9999999999999998
v 1.0000000000000002 1.375 1.125
v 0.9375 1.9375000000000002 1.125
v 0.9375 1.375 1.125
v 1.0000000000000002 -0.375 1.125
v 1.0000000000000002 -0.6875 1.125
v 1 -0.6875 0.9999999999999998
v 0.9375 -0.375 1.125
v 0.9375 -0.6875 1.125
v 1 -0.375 1.8749999999999998
v 0.9999999999999998 -0.6875 2
v 1 -0.6875 1.8749999999999998
v 0.875 -0.375 1.9999999999999998
v 0.9374999999999998 -0.375 1.9374999999999998
v 0.875 -0.6875 1.9999999999999998
v 0.9374999999999998 -0.6875 1.9374999999999998
v 0.125 -0.375 1.9999999999999998
v 0.12499999999999994 -0.375 1.9375000000000002
v 0.125 -0.6875 1.9999999999999998
v 0.12499999999999994 -0.6875 1.9375000000000002
v 1.1102230246251565e-16 -0.6875 1.9999999999999998
v 0.9999999999999998 2 2
v 1.1102230246251565e-16 2 1.9999999999999998
v 0 2 1
v 0.9999999999999998 -1 2
v 1 -1 0.9999999999999998
v 1.1102230246251565e-16 -1 1.9999999999999998
v 0 -1 1
v 1.1102230246251565e-16 1 1.9999999999999998
v 0 1 1
v -1 1 2
v -0.9999999999999999 1 1
v -1 -1 2
v -0.9999999999999999 -1 1
v 0.9375 0.25 0.9374999999999998
v -0.9375 0.25 0.9375
v 0.9999999999999998 -1 0
v -1 -1 -5.551115123125783e-17
v 0 -1 -5.551115123125783e-17
v 0 0 -5.551115123125783e-17
v 1 -0.125 0.12499999999999989
v 1 -0.125 0.8749999999999998
v 1 -0.875 0.12499999999999989
v 1 -0.875 0.8749999999999998
v 0.9375 -0.125 0.125
v 0.9375 -0.125 0.875
v 0.9375 -0.875 0.125
v 0.9375 -0.875 0.875
v -0.9375 -0.125 0.12499999999999994
v -0.9374999999999998 -0.125 0.8749999999999998
v -0.9375 -0.875 0.12499999999999994
v -0.9374999999999998 -0.875 0.8749999999999998
v -1 -0.125 0.12499999999999994
v -0.9999999999999998 -0.125 0.8749999999999998
v -0.9999999999999998 -0.875 0.8749999999999998
v -1 -0.875 0.12499999999999994
v 0.9375 0.3125 0
v -0.9375 0.3125 -5.551115123125783e-17
v -0.1875 0.3125 -5.551115123125783e-17
v -0.18749999999999997 0 0
v 0.8129166666666665 0 -1.1102230246251565e-16
v 0.8131249999999999 0.3125 -1.1102230246251565e-16
v 0.9375 0.3125 0.9999999999999998
v -0.9374999999999998 0.3125 0.9999999999999998
v 0.8902016139535407 0.4375 0.8692964595104378
v 0.6785199553038316 0.4375 0.020287699018940786
v 0.8902016139535407 0.3125 0.8692964595104378
v 0.6785199553038316 0.3125 0.020287699018940786
v 0.7689146481690414 0.4375 0.8995366964603961
v 0.5572329895193321 0.4375 0.05052793596889915
v 0.7689146481690414 0.3125 0.8995366964603961
v 0.5572329895193321 0.3125 0.05052793596889915
v 0.6969310764205572 0.4375 0.869174202766188
v 0.48524941777084774 0.4375 0.02016544227469108
v 0.6969310764205572 0.3125 0.869174202766188
v 0.48524941777084774 0.3125 0.02016544227469108
v 0.5756441106360575 0.4375 0.8994144397161465
v 0.36396245198634825 0.4375 0.05040567922464967
v 0.5756441106360575 0.3125 0.8994144397161465
v 0.36396245198634825 0.3125 0.05040567922464967
v 0.5188214096106357 0.4375 0.8652719164031939
v 0.3071397509609264 0.4375 0.016263155911696803
v 0.5188214096106357 0.3125 0.8652719164031939
v 0.3071397509609264 0.3125 0.016263155911696803
v 0.39753444382613623 0.4375 0.895512153353152
v 0.185852785176427 0.4375 0.046503392861655335
v 0.39753444382613623 0.3125 0.895512153353152
v 0.185852785176427 0.3125 0.046503392861655335
v 0.3293309016963968 0.4375 0.8803105303820065
v 0.11764924304668756 0.4375 0.03130176989050959
v 0.3293309016963968 0.3125 0.8803105303820065
v 0.11764924304668756 0.3125 0.03130176989050959
v 0.2080439359118973 0.4375 0.9105507673319648
v -0.0036377227378119326 0.4375 0.0615420068404679
v 0.2080439359118973 0.3125 0.9105507673319648
v -0.0036377227378119326 0.3125 0.0615420068404679
v -0.0625 0.8125 0.9375000000000002
v -0.0625 0.8125 0.12499999999999994
v -0.0625 0.3125 0.9375000000000002
v -0.0625 0.3125 0.12499999999999994
v -0.8124999999999999 0.8125 0.9375
v -0.8125 0.8125 0.125
v -0.8124999999999999 0.3125 0.9375
v -0.8125 0.3125 0.125
v -0.0625 1.6250000000000002 0.9375000000000002
v -0.0625 1.6250000000000002 0.12499999999999994
v -0.0625 1.9375000000000002 0.9375000000000002
v -0.0625 1.9375000000000002 0.12499999999999994
v -0.8124999999999999 1.6250000000000002 0.9375
v -0.8125 1.6250000000000002 0.125
v -0.8124999999999999 1.9375000000000002 0.9375
v -0.8125 1.9375000000000002 0.125
v -0.125 0.75 0.12499999999999994
v -0.12499999999999997 0.75 0.0625
v -0.125 0.4375 0.12499999999999994
v -0.12499999999999997 0.4375 0.0625
v -0.4375 0.75 0.12499999999999989
v -0.4375 0.75 0.062499999999999944
v -0.4375 0.4375 0.12499999999999989
v -0.4375 0.4375 0.062499999999999944
v -0.5 0.125 -0.25000000000000006
v -0.49999999999999994 0.125 -0.4375
v -0.5 0.0625 -0.25000000000000006
v -0.49999999999999994 0.0625 -0.4375
v -0.8124999999999999 0.125 -0.25000000000000006
v -0.8125 0.125 -0.4375
v -0.8124999999999999 0.0625 -0.25000000000000006
v -0.8125 0.0625 -0.4375
v -0.515625 0.1875 -0.2656250000000001
v -0.515625 0.1875 -0.421875
v -0.515625 0.125 -0.2656250000000001
v -0.515625 0.125 -0.421875
v -0.796875 0.1875 -0.26562500000000006
v -0.796875 0.1875 -0.421875
v -0.796875 0.125 -0.26562500000000006
v -0.796875 0.125 -0.421875
v -0.9835101238910027 0.0625 -0.25214552797320866
v -0.36193393928583184 0.0625 -0.18681523843092526
v -0.9835101238910027 0 -0.25214552797320866
v -0.36193393928583184 0 -0.18681523843092526
v -0.9181798343487192 0.0625 -0.8737217125783798
v -0.2966036497435484 0.0625 -0.8083914230360962
v -0.9181798343487192 0 -0.8737217125783798
v -0.2966036497435484 0 -0.8083914230360962
v -0.18133713234113635 0.03125 0.008219519681331167
v 0.9374999999481712 0.03125 -0.10937500149477886
v -0.18133713234113635 -0.03125 0.008219519681331167
v 0.9374999999481712 -0.03125 -0.10937500149477886
v -0.2727995377003331 0.03125 -0.8619871387659082
v 0.8460375945889747 0.03125 -0.9795816599420184
v -0.2727995377003331 -0.03125 -0.8619871387659082
v 0.8460375945889747 -0.03125 -0.9795816599420184
v -0.9062499999999999 1.7609077566708955 0.7499047987151402
v -0.9062500000000001 1.7500000026475935 0.12499998924239564
v -0.90625 1.0110219853036022 0.7629941035431027
v -0.9062500000000001 1.0001142312803002 0.13808929407035814
v -0.96875 1.7609077566708955 0.7499047987151399
v -0.9687500000000001 1.7500000026475935 0.12499998924239564
v -0.96875 1.0110219853036022 0.7629941035431027
v -0.9687500000000001 1.0001142312803002 0.13808929407035814
v -0.1875 1.5000000000000002 0.84375
v -0.18750000000000003 1.5000000000000002 0.2187499999999999
v -0.1875 0.875 0.84375
v -0.18750000000000003 0.875 0.2187499999999999
v -0.25 1.5000000000000002 0.84375
v -0.25 1.5000000000000002 0.21875
v -0.25 0.875 0.84375
v -0.25 0.875 0.21875
v -0.125 1.3125 0.71875
v -0.12499999999999994 1.3125 0.53125
v -0.125 1.125 0.71875
v -0.12499999999999994 1.125 0.53125
v -0.18750000000000003 1.3125 0.71875
v -0.18749999999999997 1.3125 0.53125
v -0.18750000000000003 1.125 0.71875
v -0.18749999999999997 1.125 0.53125
v -0.12499999999999997 0.875 0.875
v -0.12499999999999997 0.875 0.1875
v -0.12499999999999997 0.8125 0.875
v -0.12499999999999997 0.8125 0.1875
v -0.3125 0.875 0.875
v -0.3125 0.875 0.1874999999999999
v -0.3125 0.8125 0.875
v -0.3125 0.8125 0.1874999999999999
v -0.4375 1.5000000000000002 0.84375
v -0.4375 1.5000000000000002 0.2187499999999999
v -0.4375 0.875 0.84375
v -0.4375 0.875 0.2187499999999999
v -0.49999999999999994 1.5000000000000002 0.84375
v -0.5 1.5000000000000002 0.2187499999999999
v -0.49999999999999994 0.875 0.84375
v -0.5 0.875 0.2187499999999999
v -0.375 1.3125 0.71875
v -0.375 1.3125 0.53125
v -0.375 1.125 0.71875
v -0.375 1.125 0.53125
v -0.4375 1.3125 0.7187499999999998
v -0.4375 1.3125 0.53125
v -0.4375 1.125 0.7187499999999998
v -0.4375 1.125 0.53125
v -0.375 0.875 0.8750000000000002
v -0.375 0.875 0.1874999999999999
v -0.375 0.8125 0.8750000000000002
v -0.375 0.8125 0.1874999999999999
v -0.5625 0.875 0.875
v -0.5625 0.875 0.1875
v -0.5625 0.8125 0.875
v -0.5625 0.8125 0.1875
v -0.59375 1.6250000000000002 0.875
v -0.59375 1.6250000000000002 0.6875
v -0.59375 1.5625000000000002 0.875
v -0.59375 1.5625000000000002 0.6875
v -0.78125 1.6250000000000002 0.8750000000000002
v -0.78125 1.6250000000000002 0.6875
v -0.78125 1.5625000000000002 0.8750000000000002
v -0.78125 1.5625000000000002 0.6875
v -0.59375 0.875 0.875
v -0.59375 0.875 0.6875
v -0.59375 0.8125 0.875
v -0.59375 0.8125 0.6875
v -0.78125 0.875 0.8750000000000002
v -0.78125 0.875 0.6875
v -0.78125 0.8125 0.8750000000000002
v -0.78125 0.8125 0.6875
v 0 1.9375000000000002 0.9375
v 0 1.9375000000000002 0.3124999999999999
v 0 1.8125000000000002 0.9375
v 0 1.8125000000000002 0.3124999999999999
v -0.06249999999999997 1.9375000000000002 0.3125
v -0.0625 1.8125000000000002 0.9375000000000002
v -0.06249999999999997 1.8125000000000002 0.3125
v 0.9375 0.375 0.9374999999999998
v 0.9375000000000002 0.375 0.3124999999999999
v 0.8125000000000002 0.375 0.9375
v 0.8125000000000002 0.375 0.3125
v 0.9375000000000002 0.3125 0.9374999999999998
v 0.9375000000000002 0.3125 0.3124999999999999
v 0.8125000000000002 0.3125 0.9375
v 0.8125000000000002 0.3125 0.3125
v 0.9375000000000002 -0.1875 -0.06250000000000006
v 0.9375000000000002 -0.1875 -0.25000000000000006
v 0.9375000000000002 -1 -0.06250000000000006
v 0.9375000000000002 -1 -0.25000000000000006
v 0.75 -0.1875 -0.0625
v 0.7500000000000002 -0.1875 -0.25000000000000006
v 0.75 -1 -0.0625
v 0.7500000000000002 -1 -0.25000000000000006
v 0.9375 -0.1875 -0.75
v 0.9375 -0.1875 -0.9375
v 0.9375 -1 -0.75
v 0.9375 -1 -0.9375
v 0.75 -0.1875 -0.75
v 0.75 -0.1875 -0.9375
v 0.75 -1 -0.75
v 0.75 -1 -0.9375
v -0.75 -0.1875 -0.7500000000000001
v -0.75 -0.1875 -0.9375000000000002
v -0.75 -1 -0.7500000000000001
v -0.75 -1 -0.9375000000000002
v -0.9375000000000001 -0.1875 -0.7500000000000001
v -0.9375 -0.1875 -0.9375000000000002
v -0.9375000000000001 -1 -0.7500000000000001
v -0.9375 -1 -0.9375000000000002
v -0.75 -0.1875 -0.06250000000000011
v -0.75 -0.1875 -0.2500000000000001
v -0.75 -1 -0.06250000000000011
v -0.75 -1 -0.2500000000000001
v -0.9374999999999999 -0.1875 -0.06250000000000011
v -0.9374999999999999 -0.1875 -0.2500000000000001
v -0.9374999999999999 -1 -0.06250000000000011
v -0.9374999999999999 -1 -0.2500000000000001
v 1.0000000000000002 0 -1
v 0.9999999999999998 -0.1875 0
v 1.0000000000000002 -0.1875 -1
v -1 0 -1
v -1 -0.1875 -5.551115123125783e-17
v -1 -0.1875 -1
v -0.059374999999999956 1.9375000000000002 0.44062499999999993
v -0.059374999999999956 1.9375000000000002 0.1187499999999998
v -0.5 1.9375000000000002 0.44062500000000004
v -0.5 1.9375000000000002 0.11874999999999986
v -0.125 1.8750000000000002 0.1218749999999999
v -0.125 1.8750000000000002 0.028124999999999845
v -0.125 1.8125000000000002 0.1218749999999999
v -0.125 1.8125000000000002 0.028124999999999845
v -0.1875 1.8750000000000002 0.12187499999999979
v -0.1875 1.8750000000000002 0.028124999999999845
v -0.1875 1.8125000000000002 0.12187499999999979
v -0.1875 1.8125000000000002 0.028124999999999845
v -0.21875 1.8750000000000002 0.12187499999999984
v -0.21875 1.8750000000000002 0.028124999999999845
v -0.21875 1.8125000000000002 0.12187499999999984
v -0.21875 1.8125000000000002 0.028124999999999845
v -0.28125 1.8750000000000002 0.12187499999999984
v -0.28125 1.8750000000000002 0.028124999999999845
v -0.28125 1.8125000000000002 0.12187499999999984
v -0.28125 1.8125000000000002 0.028124999999999845
v -0.3125 1.8750000000000002 0.12187499999999984
v -0.3125 1.8750000000000002 0.028124999999999956
v -0.3125 1.8125000000000002 0.12187499999999984
v -0.3125 1.8125000000000002 0.028124999999999956
v -0.375 1.8750000000000002 0.12187499999999984
v -0.375 1.8750000000000002 0.028124999999999845
v -0.375 1.8125000000000002 0.12187499999999984
v -0.375 1.8125000000000002 0.028124999999999845
v -0.40625 1.8750000000000002 0.1218749999999999
v -0.40625 1.8750000000000002 0.028124999999999845
v -0.40625 1.8125000000000002 0.1218749999999999
v -0.40625 1.8125000000000002 0.028124999999999845
v -0.46875 1.8750000000000002 0.12187499999999984
v -0.46875 1.8750000000000002 0.0281249999999999
v -0.46875 1.8125000000000002 0.12187499999999984
v -0.46875 1.8125000000000002 0.0281249999999999
v -0.515625 1.8437500000000002 0.12187500000000001
v -0.515625 1.8437500000000002 0.028125000000000067
v -0.515625 1.7187500000000002 0.12187500000000001
v -0.515625 1.7187500000000002 0.028125000000000067
v -0.640625 1.8437500000000002 0.12187499999999996
v -0.640625 1.8437500000000002 0.028124999999999956
v -0.640625 1.7187500000000002 0.12187499999999996
v -0.640625 1.7187500000000002 0.028124999999999956
v 0.8125 0 1
v -0.1875 0 0.9999999999999998
v -0.1875 0.3125 0.9999999999999998
v 0.8125 0.3125 1
v 5.551115123125783e-17 1.7500000000000002 1.0624999999999998
v 0 1.7500000000000002 1
v 5.551115123125783e-17 1.125 1.0624999999999998
v 0 1.125 1
v -0.875 1.7500000000000002 1.0625
v -0.875 1.7500000000000002 0.9999999999999998
v -0.875 1.125 1.0625
v -0.875 1.125 0.9999999999999998
v -1.0015625 -0.25 0.25
v -1.0015625 -0.25 0.75
v -1.0015625 -0.75 0.25
v -1.0015625 -0.75 0.75
v -0.9375 -0.25 0.2499999999999999
v -0.9374999999999999 -0.25 0.75
v -0.9375 -0.75 0.2499999999999999
v -0.9374999999999999 -0.75 0.75
v -1.0015625 -0.0625 0.3749999999999999
v -1.0015625 -0.0625 0.625
v -1.0015625 -0.25 0.3749999999999999
v -1.0015625 -0.25 0.625
v -0.9375 -0.0625 0.375
v -0.9374999999999999 -0.0625 0.625
v -0.9375 -0.25 0.375
v -0.9374999999999999 -0.25 0.625
v 1.0015625 -0.25 0.75
v 1.0015625 -0.25 0.25
v 1.0015625 -0.75 0.75
v 1.0015625 -0.75 0.25
v 0.9375 -0.25 0.7499999999999998
v 0.9375 -0.25 0.2499999999999999
v 0.9375 -0.75 0.7499999999999998
v 0.9375 -0.75 0.2499999999999999
v 1.0015625 -0.0625 0.625
v 1.0015625 -0.0625 0.375
v 1.0015625 -0.25 0.625
v 1.0015625 -0.25 0.375
v 0.9375000000000002 -0.0625 0.6249999999999999
v 0.9375 -0.0625 0.3749999999999998
v 0.9375000000000002 -0.25 0.6249999999999999
v 0.9375 -0.25 0.3749999999999998
v -0.625 1.5625000000000002 0.8124999999999998
v -0.6249999999999998 1.5625000000000002 0.7499999999999998
v -0.625 0.8125 0.8124999999999998
v -0.6249999999999998 0.8125 0.7499999999999998
v -0.75 1.5625000000000002 0.8125
v -0.7499999999999999 1.5625000000000002 0.7499999999999998
v -0.75 0.8125 0.8125
v -0.7499999999999999 0.8125 0.7499999999999998
v -0.9069103193718847 -0.6875 -0.2556356225311923
v -0.3124999966874136 -0.6875 -0.06250000104685005
v -0.9069103193718847 -1 -0.2556356225311923
v -0.3124999966874136 -1 -0.06250000104685005
v -0.6365204492938057 -0.6875 -1.0878100742894516
v -0.04211012660933455 -0.6875 -0.8946744528051097
v -0.6365204492938057 -1 -1.0878100742894516
v -0.04211012660933455 -1 -0.8946744528051097
v 0.5874985547395426 -0.6874999999999998 0.005751271084018461
v 0.8614805214827157 -0.6874999999999998 -0.5559950078529609
v 0.5874985547395426 -0.9999999999999998 0.005751271084018461
v 0.8614805214827157 -0.9999999999999998 -0.5559950078529609
v -0.19894623577222867 -0.6874999999999998 -0.37782348235642427
v 0.07503573097094474 -0.6874999999999998 -0.9395697612934036
v -0.19894623577222867 -0.9999999999999998 -0.37782348235642427
v 0.07503573097094474 -0.9999999999999998 -0.9395697612934036
v 5.551115123125783e-17 0.96875 0.9375
v 5.551115123125783e-17 1.9375000000000002 0.9375
v 0 1.9375000000000002 -5.551115123125783e-17
v 5.551115123125783e-17 0.25 0.9375
v -0.515625 0.1875 -0.2656250000000001
v -0.796875 0.1875 -0.26562500000000006
v -0.515625 0.125 -0.2656250000000001
v -0.796875 0.125 -0.26562500000000006
v -0.796875 0.1875 -0.421875
v -0.796875 0.125 -0.421875
v -0.515625 0.1875 -0.421875
v -0.515625 0.125 -0.421875
v 0.9375 1.9375000000000002 0.5624999999999998
v 0.9375 1.9375000000000002 0.3749999999999998
v 0.9375 1.8750000000000002 0.5624999999999998
v 0.9375 1.8750000000000002 0.3749999999999998
v 0 1.9375000000000002 0.5625
v 0 1.9375000000000002 0.3749999999999998
v 0 1.8750000000000002 0.5625
v 0 1.8750000000000002 0.3749999999999998
v 0.9375000000000002 0.875 0.5625
v 0.9375000000000002 0.875 0.375
v 0.8750000000000002 0.875 0.5624999999999998
v 0.8750000000000002 0.875 0.37499999999999956
v 0.875 1.8750000000000002 0.5624999999999999
v 0.875 1.8750000000000002 0.375
v 0.9375000000000004 0.3125 0.5624999999999997
v 0.9375000000000002 0.3125 0.375
v 0.8750000000000004 0.3125 0.5624999999999998
v 0.8750000000000002 0.3125 0.37499999999999956
v 0.9375 1.9375000000000002 0.7499999999999998
v 0.9375 1.8750000000000002 0.9374999999999998
v 0.9375 1.8750000000000002 0.7499999999999998
v 1.1102230246251565e-16 1.9375000000000002 0.7499999999999998
v 0 1.8750000000000002 0.9375
v 1.1102230246251565e-16 1.8750000000000002 0.7499999999999998
v 0.9375000000000002 0.875 0.75
v 0.8750000000000002 0.875 0.9374999999999998
v 0.8750000000000002 0.875 0.75
v 0.875 1.8750000000000002 0.9375
v 0.8750000000000002 1.8750000000000002 0.75
v 0.9375000000000002 0.3125 0.75
v 0.8750000000000002 0.3125 0.9374999999999998
v 0.8750000000000002 0.3125 0.75
v 0.75 -0.1875 5.551115123125783e-17
v 0.75 -0.1875 -0.875
v 0.75 -0.4375 5.551115123125783e-17
v 0.75 -0.4375 -0.875
v 0 -0.1875 -5.551115123125783e-17
v 5.551115123125783e-17 -0.1875 -0.875
v 0 -0.4375 -5.551115123125783e-17
v 5.551115123125783e-17 -0.4375 -0.875
v 1.1102230246251565e-16 2 1.9999999999999998
v 0 2 1
v 0.1250000000000009 1.937500000000001 1.125
v 0.12500000000000094 1.937500000000001 1.8750000000000002
v 0.8749999999999996 1.9375000000000002 1.1249999999999998
v 0.8749999999999996 1.9375000000000002 1.8749999999999998
v 0.125 1.9999999999999993 1.8749999999999998
v 0.125 1.9999999999999993 1.125
v 0.8749999999999991 2.000000000000001 1.125
v 0.9999999999999989 2 1
v 0.8749999999999991 2.000000000000001 1.8749999999999998
v 0.9999999999999991 2 2
v 0.75 2.0062499999999996 1.7500000000000002
v 0.75 2.0062499999999996 1.25
v 0.75 1.9437499999999999 1.7500000000000002
v 0.75 1.9437499999999999 1.25
v 0.2499999999999999 2.0062499999999996 1.7499999999999993
v 0.25 2.0062499999999996 1.2499999999999998
v 0.2499999999999999 1.9437499999999999 1.7499999999999993
v 0.25 1.9437499999999999 1.2499999999999998
vt 0 0.09375
vt 0 0.25
vt 0.3125 0.25
vt 0.3125 0.09375
vt 0 0.09375
vt 0 0.25
vt 0.3125 0.25
vt 0.3125 0.09375
vt 0.875 1
vt 0.875 0.6875
vt 0.4375 0.6875
vt 0.4375 1
vt 0.875 1
vt 0.875 0.6875
vt 0.4375 0.6875
vt 0.4375 1
vt 0.4375 0.53125
vt 0.4375 0.6875
vt 0.875 0.6875
vt 0.875 0.53125
vt 0.4375 0.375
vt 0.4375 0.53125
vt 0.875 0.53125
vt 0.875 0.375
vt 0.734375 0.609375
vt 0.734375 0.640625
vt 0.75 0.640625
vt 0.75 0.609375
vt 0.71875 0.609375
vt 0.71875 0.640625
vt 0.734375 0.640625
vt 0.734375 0.609375
vt 0.75 0.640625
vt 0.75 0.625
vt 0.71875 0.625
vt 0.71875 0.640625
vt 0.75 0.609375
vt 0.75 0.625
vt 0.71875 0.625
vt 0.71875 0.609375
vt 0.71875 0.609375
vt 0.71875 0.640625
vt 0.75 0.640625
vt 0.75 0.609375
vt 0 0.25
vt 0 0
vt 0.5 0
vt 0.5 0.25
vt 0.765625 0.515625
vt 0.765625 1
vt 1 1
vt 1 0.515625
vt 0.9999999999999991 0
vt 0.9999999999999991 0.484375
vt 0.9843749999999991 0.484375
vt 0.9843749999999991 0
vt 0.984375 0
vt 0.984375 0.484375
vt 1 0.484375
vt 1 0
vt 0 0
vt 0 0.015625
vt 0.5 0.015625
vt 0.5 0
vt 0.65625 0.6875
vt 0.65625 0.1875
vt 0.40625 0.1875
vt 0.40625 0.6875
vt 0.40625 0.6875
vt 0.65625 0.6875
vt 0.65625 0.1875
vt 0.40625 0.1875
vt 0.984375 0.515625
vt 0.984375 1
vt 0.75 1
vt 0.75 0.515625
vt 0.015625 0.015625
vt 0.25 0.015625
vt 0.25 0.25
vt 0.015625 0.25
vt 0.75 1
vt 0.515625 1
vt 0.515625 0.75
vt 0.75 0.75
vt 1 0.1875
vt 1 0.625
vt 0.75 0.625
vt 0.75 0.1875
vt 1 0.1875
vt 1 0.625
vt 0.75 0.625
vt 0.75 0.1875
vt 0.78125 0.625
vt 0.78125 0.765625
vt 0.75 0.765625
vt 0.75 0.625
vt 1 0.625
vt 1 0.765625
vt 0.96875 0.765625
vt 0.96875 0.625
vt 0.75 0.625
vt 0.75 0.765625
vt 0.78125 0.765625
vt 0.78125 0.625
vt 0.78125 0.625
vt 0.78125 0.765625
vt 0.75 0.765625
vt 0.75 0.625
vt 0.75 0.625
vt 0.75 0.765625
vt 0.78125 0.765625
vt 0.78125 0.625
vt 1 0.625
vt 1 0.765625
vt 0.96875 0.765625
vt 0.96875 0.625
vt 0.96875 0.625
vt 0.96875 0.765625
vt 1 0.765625
vt 1 0.625
vt 1 0.109375
vt 1 0.1875
vt 0.96875 0.1875
vt 0.96875 0.109375
vt 0.96875 0.109375
vt 0.96875 0.1875
vt 1 0.1875
vt 1 0.109375
vt 0.78125 0.109375
vt 0.78125 0.1875
vt 0.75 0.1875
vt 0.75 0.109375
vt 0.96875 0.109375
vt 0.96875 0.1875
vt 1 0.1875
vt 1 0.109375
vt 1 0.109375
vt 1 0.1875
vt 0.96875 0.1875
vt 0.96875 0.109375
vt 0.75 0.109375
vt 0.75 0.1875
vt 0.78125 0.1875
vt 0.78125 0.109375
vt 0.75 0.109375
vt 0.75 0.1875
vt 0.78125 0.1875
vt 0.78125 0.109375
vt 0.78125 0.109375
vt 0.78125 0.1875
vt 0.75 0.1875
vt 0.75 0.109375
vt 1 0.765625
vt 1 0.78125
vt 0.75 0.78125
vt 0.75 0.765625
vt 1 0.765625
vt 1 0.78125
vt 0.75 0.78125
vt 0.75 0.765625
vt 1 0.03125
vt 1 0.109375
vt 0.75 0.109375
vt 0.75 0.03125
vt 0 0.75
vt 0 1
vt 0.25 1
vt 0.25 0.75
vt 1 0.03125
vt 1 0.109375
vt 0.75 0.109375
vt 0.75 0.03125
vt 0.96875 0.765625
vt 0.78125 0.765625
vt 0.78125 0.625
vt 0.96875 0.625
vt 0.96875 0.765625
vt 0.96875 0.625
vt 0.78125 0.625
vt 0.78125 0.765625
vt 0.78125 0.609375
vt 0.96875 0.609375
vt 0.96875 0.625
vt 0.78125 0.625
vt 0.96875 0.78125
vt 0.78125 0.78125
vt 0.78125 0.765625
vt 0.96875 0.765625
vt 0.96875 0.765625
vt 0.78125 0.765625
vt 0.78125 0.78125
vt 0.96875 0.78125
vt 0.96875 0.625
vt 0.96875 0.765625
vt 1 0.765625
vt 1 0.625
vt 0.96875 0.640625
vt 0.78125 0.640625
vt 0.78125 0.625
vt 0.96875 0.625
vt 0.96875 0.1875
vt 0.78125 0.1875
vt 0.78125 0.109375
vt 0.96875 0.109375
vt 0.78125 0.109375
vt 0.96875 0.109375
vt 0.96875 0.1875
vt 0.78125 0.1875
vt 0.78125 0.1875
vt 0.96875 0.1875
vt 0.96875 0.203125
vt 0.78125 0.203125
vt 0.96875 0.203125
vt 0.78125 0.203125
vt 0.78125 0.1875
vt 0.96875 0.1875
vt 0.96875 0.109375
vt 0.78125 0.109375
vt 0.78125 0.09375
vt 0.96875 0.09375
vt 0.78125 0.09375
vt 0.96875 0.09375
vt 0.96875 0.109375
vt 0.78125 0.109375
vt 0.25 0.1875
vt 0.25 0.6875
vt 0 0.6875
vt 0 0.1875
vt 0.75 0
vt 0.75 0.25
vt 0.5 0.25
vt 0.5 0
vt 0.25 0.5
vt 1.3877787807814457e-17 0.5
vt 0 0.25
vt 0.25 0.25
vt 0.25 0.1875
vt 0.25 0.6875
vt 0 0.6875
vt 0 0.1875
vt 0.75 0.75
vt 0.75 1
vt 1 1
vt 1 0.75
vt 0 1
vt 0 0.75
vt 0.25 0.75
vt 0.25 1
vt 0.75 0.46875
vt 0.515625 0.46875
vt 0.515625 0.28125
vt 0.75 0.28125
vt 0.96875 0.03125
vt 0.96875 0.21875
vt 0.78125 0.21875
vt 0.78125 0.03125
vt 0.75 0.25
vt 0.75 0.5
vt 0.5 0.5
vt 0.5 0.25
vt 0.5 0.25
vt 0.25 0.25
vt 0.25 0
vt 0.5 0
vt 0 0
vt 0.25 0
vt 0.25 0.25
vt 0 0.25
vt 0.5 1
vt 0.5 0.75
vt 0.75 0.75
vt 0.75 1
vt 0.96875 0.21875
vt 0.96875 0.03125
vt 1 0
vt 1 0.25
vt 0.78125 0.21875
vt 0.96875 0.21875
vt 1 0.25
vt 0.75 0.25
vt 0.78125 0.03125
vt 0.78125 0.21875
vt 0.75 0.25
vt 0.75 0
vt 0.96875 0.03125
vt 0.78125 0.03125
vt 0.75 0
vt 1 0
vt 0.984375 0.03125
vt 0.984375 0.21875
vt 0.96875 0.21875
vt 0.96875 0.03125
vt 0.78125 0.21875
vt 0.96875 0.21875
vt 0.96875 0.234375
vt 0.78125 0.234375
vt 0.78125 0.03125
vt 0.78125 0.21875
vt 0.765625 0.21875
vt 0.765625 0.03125
vt 0.96875 0.015625
vt 0.78125 0.015625
vt 0.78125 0.03125
vt 0.96875 0.03125
vt 0.78125 0.21875
vt 0.96875 0.21875
vt 0.96875 0.03125
vt 0.78125 0.03125
vt 1 0
vt 0.96875 0.03125
vt 0.96875 0.21875
vt 1 0.25
vt 1 0.25
vt 0.96875 0.21875
vt 0.78125 0.21875
vt 0.75 0.25
vt 0.75 0.25
vt 0.78125 0.21875
vt 0.78125 0.03125
vt 0.75 0
vt 0.75 0
vt 0.78125 0.03125
vt 0.96875 0.03125
vt 1 0
vt 0.96875 0.21875
vt 0.984375 0.21875
vt 0.984375 0.03125
vt 0.96875 0.03125
vt 0.96875 0.234375
vt 0.96875 0.21875
vt 0.78125 0.21875
vt 0.78125 0.234375
vt 0.765625 0.21875
vt 0.78125 0.21875
vt 0.78125 0.03125
vt 0.765625 0.03125
vt 0.78125 0.03125
vt 0.78125 0.015625
vt 0.96875 0.015625
vt 0.96875 0.03125
vt 0.46875 0.765625
vt 0.28125 0.765625
vt 0.28125 0.6875
vt 0.46875 0.6875
vt 0 0.6875
vt 0.030937500000000007 0.6875
vt 0.030937500000000007 0.765625
vt 0 0.765625
vt 0 1
vt 0 0.75
vt 0.46875 0.75
vt 0.46875 1
vt 0.46875 0.78125
vt 0.5 0.78125
vt 0.5 1
vt 0.46875 1
vt 0.53125 1
vt 0.5 1
vt 0.5 0.78125
vt 0.53125 0.78125
vt 0.515625 0.78125
vt 0.515625 1
vt 0.484375 1
vt 0.484375 0.78125
vt 0.515625 0.765625
vt 0.515625 0.796875
vt 0.484375 0.796875
vt 0.484375 0.765625
vt 0.515625 0.765625
vt 0.515625 0.796875
vt 0.484375 0.796875
vt 0.484375 0.765625
vt 0.46875 0.78125
vt 0.5 0.78125
vt 0.5 1
vt 0.46875 1
vt 0.53125 1
vt 0.5 1
vt 0.5 0.78125
vt 0.53125 0.78125
vt 0.515625 0.78125
vt 0.515625 1
vt 0.484375 1
vt 0.484375 0.78125
vt 0.515625 0.765625
vt 0.515625 0.796875
vt 0.484375 0.796875
vt 0.484375 0.765625
vt 0.515625 0.765625
vt 0.515625 0.796875
vt 0.484375 0.796875
vt 0.484375 0.765625
vt 0.46875 0.78125
vt 0.5 0.78125
vt 0.5 1
vt 0.46875 1
vt 0.53125 1
vt 0.5 1
vt 0.5 0.78125
vt 0.53125 0.78125
vt 0.515625 0.78125
vt 0.515625 1
vt 0.484375 1
vt 0.484375 0.78125
vt 0.515625 0.765625
vt 0.515625 0.796875
vt 0.484375 0.796875
vt 0.484375 0.765625
vt 0.515625 0.765625
vt 0.515625 0.796875
vt 0.484375 0.796875
vt 0.484375 0.765625
vt 0.46875 0.78125
vt 0.5 0.78125
vt 0.5 1
vt 0.46875 1
vt 0.53125 1
vt 0.5 1
vt 0.5 0.78125
vt 0.53125 0.78125
vt 0.515625 0.78125
vt 0.515625 1
vt 0.484375 1
vt 0.484375 0.78125
vt 0.515625 0.765625
vt 0.515625 0.796875
vt 0.484375 0.796875
vt 0.484375 0.765625
vt 0.515625 0.765625
vt 0.515625 0.796875
vt 0.484375 0.796875
vt 0.484375 0.765625
vt 0.59375 0.0625
vt 0.59375 0.1875
vt 0.390625 0.1875
vt 0.390625 0.0625
vt 0.59375 0.0625
vt 0.59375 0.1875
vt 0.390625 0.1875
vt 0.390625 0.0625
vt 0.59375 0.1875
vt 0.390625 0.1875
vt 0.390625 0
vt 0.59375 0
vt 0.1875 0.0625
vt 0.1875 0.1875
vt 0 0.1875
vt 0 0.0625
vt 0.71875 0.703125
vt 0.515625 0.703125
vt 0.515625 0.78125
vt 0.71875 0.78125
vt 0.71875 0.703125
vt 0.515625 0.703125
vt 0.515625 0.78125
vt 0.71875 0.78125
vt 0.1875 0
vt 0.1875 0.1875
vt 0.390625 0.1875
vt 0.390625 0
vt 0.734375 0.203125
vt 0.734375 0.390625
vt 0.65625 0.390625
vt 0.65625 0.203125
vt 0.09375 0.734375
vt 0.09375 0.8125
vt 0.078125 0.8125
vt 0.078125 0.734375
vt 0.15625 0.734375
vt 0.15625 0.8125
vt 0.140625 0.8125
vt 0.140625 0.734375
vt 0.15625 0.796875
vt 0.15625 0.8125
vt 0.078125 0.8125
vt 0.078125 0.796875
vt 0.15625 0.734375
vt 0.15625 0.75
vt 0.078125 0.75
vt 0.078125 0.734375
vt 0.15625 0.734375
vt 0.15625 0.8125
vt 0.078125 0.8125
vt 0.078125 0.734375
vt 0.734375 0.703125
vt 0.71875 0.703125
vt 0.71875 0.65625
vt 0.734375 0.65625
vt 0.671875 0.65625
vt 0.65625 0.65625
vt 0.65625 0.703125
vt 0.671875 0.703125
vt 0.734375 0.65625
vt 0.734375 0.703125
vt 0.65625 0.703125
vt 0.65625 0.65625
vt 0.734375 0.65625
vt 0.734375 0.671875
vt 0.65625 0.671875
vt 0.65625 0.65625
vt 0.65625 0.6875
vt 0.65625 0.703125
vt 0.734375 0.703125
vt 0.734375 0.6875
vt 0.75 0.703125
vt 0.734375 0.703125
vt 0.734375 0.65625
vt 0.75 0.65625
vt 0.75 0.703125
vt 0.734375 0.703125
vt 0.734375 0.65625
vt 0.75 0.65625
vt 0.734375 0.640625
vt 0.734375 0.65625
vt 0.65625 0.65625
vt 0.65625 0.640625
vt 0.734375 0.640625
vt 0.734375 0.65625
vt 0.65625 0.65625
vt 0.65625 0.640625
vt 0.0625 0.3125
vt 0.125 0.3125
vt 0.125 0.9375
vt 0.0625 0.9375
vt 0.7500000000000022 0.9375
vt 0.7500000000000022 1
vt 0.12500000000000222 1
vt 0.12500000000000222 0.9375
vt 0.12499999999999667 0.9999999999999998
vt 0.12499999999999689 0.37500055100024277
vt 0.7499936747446632 0.3749981592481342
vt 0.7499994489997537 1
vt 0.6875 0.375
vt 0.75 0.375
vt 0.75 1
vt 0.6875 1
vt 0.0625 0.9375
vt 0.0625 0.875
vt 0.6875 0.875
vt 0.6875 0.9375
vt 0.71875 0.984375
vt 0.71875 1
vt 1 1
vt 1 0.984375
vt 1 0.78125
vt 1 0.796875
vt 0.71875 0.796875
vt 0.71875 0.78125
vt 1 1
vt 0.71875 1
vt 0.71875 0.78125
vt 1 0.78125
vt 1 1
vt 0.984375 1
vt 0.984375 0.78125
vt 1 0.78125
vt 0.734375 0.78125
vt 0.71875 0.78125
vt 0.71875 1
vt 0.734375 1
vt 0.40625 0.5
vt 0.40625 0.6875
vt 0.25 0.6875
vt 0.25 0.5
vt 0.40625 0.6875
vt 0.25 0.6875
vt 0.25 0.671875
vt 0.40625 0.671875
vt 0.40625 0.515625
vt 0.25 0.515625
vt 0.25 0.5
vt 0.40625 0.5
vt 0.265625 0.5
vt 0.265625 0.6875
vt 0.25 0.6875
vt 0.25 0.5
vt 0.40625 0.5
vt 0.40625 0.6875
vt 0.390625 0.6875
vt 0.390625 0.5
vt 0.40625 0.34375
vt 0.40625 0.5
vt 0.25 0.5
vt 0.25 0.34375
vt 0.40625 0.1875
vt 0.40625 0.34375
vt 0.25 0.34375
vt 0.25 0.1875
vt 0.25 0.5
vt 0.40625 0.5
vt 0.40625 0.484375
vt 0.25 0.484375
vt 0.265625 0.34375
vt 0.265625 0.5
vt 0.25 0.5
vt 0.25 0.34375
vt 0.40625 0.34375
vt 0.40625 0.5
vt 0.390625 0.5
vt 0.390625 0.34375
vt 0.328125 0.40625
vt 0.328125 0.453125
vt 0.28125 0.453125
vt 0.28125 0.40625
vt 0.28125 0.453125
vt 0.328125 0.453125
vt 0.328125 0.4375
vt 0.28125 0.4375
vt 0.296875 0.40625
vt 0.296875 0.453125
vt 0.28125 0.453125
vt 0.28125 0.40625
vt 0.328125 0.40625
vt 0.328125 0.453125
vt 0.3125 0.453125
vt 0.3125 0.40625
vt 0.28125 0.40625
vt 0.328125 0.40625
vt 0.328125 0.421875
vt 0.28125 0.421875
vt 0.71875 0.609375
vt 0.703125 0.609375
vt 0.703125 0.4375
vt 0.71875 0.4375
vt 0.75 0.609375
vt 0.734375 0.609375
vt 0.734375 0.4375
vt 0.75 0.4375
vt 0.703125 0.4375
vt 0.703125 0.609375
vt 0.75 0.609375
vt 0.75 0.4375
vt 0.75 0.59375
vt 0.75 0.609375
vt 0.703125 0.609375
vt 0.703125 0.59375
vt 0.75 0.4375
vt 0.75 0.453125
vt 0.703125 0.453125
vt 0.703125 0.4375
vt 0.40625 0.34375
vt 0.40625 0.5
vt 0.25 0.5
vt 0.25 0.34375
vt 0.40625 0.1875
vt 0.40625 0.34375
vt 0.25 0.34375
vt 0.25 0.1875
vt 0.25 0.5
vt 0.40625 0.5
vt 0.40625 0.484375
vt 0.25 0.484375
vt 0.265625 0.34375
vt 0.265625 0.5
vt 0.25 0.5
vt 0.25 0.34375
vt 0.40625 0.34375
vt 0.40625 0.5
vt 0.390625 0.5
vt 0.390625 0.34375
vt 0.328125 0.40625
vt 0.328125 0.453125
vt 0.28125 0.453125
vt 0.28125 0.40625
vt 0.28125 0.453125
vt 0.328125 0.453125
vt 0.328125 0.4375
vt 0.28125 0.4375
vt 0.296875 0.40625
vt 0.296875 0.453125
vt 0.28125 0.453125
vt 0.28125 0.40625
vt 0.328125 0.40625
vt 0.328125 0.453125
vt 0.3125 0.453125
vt 0.3125 0.40625
vt 0.28125 0.40625
vt 0.328125 0.40625
vt 0.328125 0.421875
vt 0.28125 0.421875
vt 0.71875 0.609375
vt 0.703125 0.609375
vt 0.703125 0.4375
vt 0.71875 0.4375
vt 0.75 0.609375
vt 0.734375 0.609375
vt 0.734375 0.4375
vt 0.75 0.4375
vt 0.703125 0.4375
vt 0.703125 0.609375
vt 0.75 0.609375
vt 0.75 0.4375
vt 0.75 0.59375
vt 0.75 0.609375
vt 0.703125 0.609375
vt 0.703125 0.59375
vt 0.75 0.4375
vt 0.75 0.453125
vt 0.703125 0.453125
vt 0.703125 0.4375
vt 0.515625 0.765625
vt 0.5 0.765625
vt 0.5 0.71875
vt 0.515625 0.71875
vt 0.484375 0.765625
vt 0.46875 0.765625
vt 0.46875 0.71875
vt 0.484375 0.71875
vt 0.515625 0.765625
vt 0.515625 0.71875
vt 0.46875 0.71875
vt 0.46875 0.765625
vt 0.515625 0.71875
vt 0.515625 0.734375
vt 0.46875 0.734375
vt 0.46875 0.71875
vt 0.46875 0.765625
vt 0.46875 0.75
vt 0.515625 0.75
vt 0.515625 0.765625
vt 0.515625 0.765625
vt 0.5 0.765625
vt 0.5 0.71875
vt 0.515625 0.71875
vt 0.484375 0.765625
vt 0.46875 0.765625
vt 0.46875 0.71875
vt 0.484375 0.71875
vt 0.515625 0.71875
vt 0.515625 0.734375
vt 0.46875 0.734375
vt 0.46875 0.71875
vt 0.46875 0.765625
vt 0.46875 0.75
vt 0.515625 0.75
vt 0.515625 0.765625
vt 0.515625 0.71875
vt 0.515625 0.765625
vt 0.46875 0.765625
vt 0.46875 0.71875
vt 0.515625 1
vt 0.484375 1
vt 0.484375 0.84375
vt 0.515625 0.84375
vt 0.5 0.84375
vt 0.5 1
vt 0.484375 1
vt 0.484375 0.84375
vt 0.515625 0.859375
vt 0.484375 0.859375
vt 0.484375 0.84375
vt 0.515625 0.84375
vt 0.515625 1
vt 0.484375 1
vt 0.484375 0.984375
vt 0.515625 0.984375
vt 0.484375 0.84375
vt 0.484375 1
vt 0.515625 1
vt 0.515625 0.84375
vt 0.484375 1
vt 0.5 1
vt 0.5 0.84375
vt 0.484375 0.84375
vt 0.484375 0.84375
vt 0.484375 0.859375
vt 0.515625 0.859375
vt 0.515625 0.84375
vt 0.484375 0.984375
vt 0.484375 1
vt 0.515625 1
vt 0.515625 0.984375
vt 0.890625 0.5
vt 0.890625 0.703125
vt 0.84375 0.703125
vt 0.84375 0.5
vt 0.890625 0.5
vt 0.890625 0.703125
vt 0.84375 0.703125
vt 0.84375 0.5
vt 0.890625 0.703125
vt 0.890625 0.75
vt 0.84375 0.75
vt 0.84375 0.703125
vt 0.890625 0.5
vt 0.890625 0.703125
vt 0.84375 0.703125
vt 0.84375 0.5
vt 0.890625 0.5
vt 0.890625 0.703125
vt 0.84375 0.703125
vt 0.84375 0.5
vt 0.890625 0.5
vt 0.890625 0.703125
vt 0.84375 0.703125
vt 0.84375 0.5
vt 0.890625 0.5
vt 0.890625 0.703125
vt 0.84375 0.703125
vt 0.84375 0.5
vt 0.890625 0.703125
vt 0.890625 0.75
vt 0.84375 0.75
vt 0.84375 0.703125
vt 0.890625 0.5
vt 0.890625 0.703125
vt 0.84375 0.703125
vt 0.84375 0.5
vt 0.890625 0.5
vt 0.890625 0.703125
vt 0.84375 0.703125
vt 0.84375 0.5
vt 0.890625 0.5
vt 0.890625 0.703125
vt 0.84375 0.703125
vt 0.84375 0.5
vt 0.890625 0.5
vt 0.890625 0.703125
vt 0.84375 0.703125
vt 0.84375 0.5
vt 0.890625 0.703125
vt 0.890625 0.75
vt 0.84375 0.75
vt 0.84375 0.703125
vt 0.890625 0.5
vt 0.890625 0.703125
vt 0.84375 0.703125
vt 0.84375 0.5
vt 0.890625 0.5
vt 0.890625 0.703125
vt 0.84375 0.703125
vt 0.84375 0.5
vt 0.890625 0.5
vt 0.890625 0.703125
vt 0.84375 0.703125
vt 0.84375 0.5
vt 0.890625 0.5
vt 0.890625 0.703125
vt 0.84375 0.703125
vt 0.84375 0.5
vt 0.890625 0.703125
vt 0.890625 0.75
vt 0.84375 0.75
vt 0.84375 0.703125
vt 0.890625 0.5
vt 0.890625 0.703125
vt 0.84375 0.703125
vt 0.84375 0.5
vt 0.890625 0.5
vt 0.890625 0.703125
vt 0.84375 0.703125
vt 0.84375 0.5
vt 0.84375 0.5
vt 0.796875 0.5
vt 0.796875 0.75
vt 0.84375 0.75
vt 0.84375 0.5
vt 0.796875 0.5
vt 0.796875 0.75
vt 0.84375 0.75
vt 0.796875 0.25
vt 0.75 0.25
vt 0.75 0.75
vt 0.796875 0.75
vt 0.796875 0.25
vt 0.75 0.25
vt 0.75 0.75
vt 0.796875 0.75
vt 0 0
vt 0.5 0
vt 0.5 0.25
vt 0 0.25
vt 0 0
vt 0.5 0
vt 0.5 0.25
vt 0 0.25
vt 0.75 0.09375
vt 0.75 0.171875
vt 0.640625 0.171875
vt 0.640625 0.09375
vt 0.671875 0.8125
vt 0.671875 0.8359375
vt 0.65625 0.8359375
vt 0.65625 0.8125
vt 0.671875 0.8125
vt 0.671875 0.8359375
vt 0.65625 0.8359375
vt 0.65625 0.8125
vt 0.671875 0.8125
vt 0.671875 0.8359375
vt 0.65625 0.8359375
vt 0.65625 0.8125
vt 0.671875 0.8125
vt 0.671875 0.8359375
vt 0.65625 0.8359375
vt 0.65625 0.8125
vt 0.671875 0.8125
vt 0.671875 0.828125
vt 0.65625 0.828125
vt 0.65625 0.8125
vt 0.671875 0.8125
vt 0.671875 0.8359375
vt 0.65625 0.8359375
vt 0.65625 0.8125
vt 0.671875 0.8125
vt 0.671875 0.8359375
vt 0.65625 0.8359375
vt 0.65625 0.8125
vt 0.671875 0.8125
vt 0.671875 0.8359375
vt 0.65625 0.8359375
vt 0.65625 0.8125
vt 0.671875 0.8125
vt 0.671875 0.8359375
vt 0.65625 0.8359375
vt 0.65625 0.8125
vt 0.671875 0.8125
vt 0.671875 0.828125
vt 0.65625 0.828125
vt 0.65625 0.8125
vt 0.671875 0.8125
vt 0.671875 0.8359375
vt 0.65625 0.8359375
vt 0.65625 0.8125
vt 0.671875 0.8125
vt 0.671875 0.8359375
vt 0.65625 0.8359375
vt 0.65625 0.8125
vt 0.671875 0.8125
vt 0.671875 0.8359375
vt 0.65625 0.8359375
vt 0.65625 0.8125
vt 0.671875 0.8125
vt 0.671875 0.8359375
vt 0.65625 0.8359375
vt 0.65625 0.8125
vt 0.671875 0.8125
vt 0.671875 0.828125
vt 0.65625 0.828125
vt 0.65625 0.8125
vt 0.671875 0.8125
vt 0.671875 0.8359375
vt 0.65625 0.8359375
vt 0.65625 0.8125
vt 0.671875 0.8125
vt 0.671875 0.8359375
vt 0.65625 0.8359375
vt 0.65625 0.8125
vt 0.671875 0.8125
vt 0.671875 0.8359375
vt 0.65625 0.8359375
vt 0.65625 0.8125
vt 0.671875 0.8125
vt 0.671875 0.8359375
vt 0.65625 0.8359375
vt 0.65625 0.8125
vt 0.671875 0.8125
vt 0.671875 0.828125
vt 0.65625 0.828125
vt 0.65625 0.8125
vt 0.7109375 0.78125
vt 0.7109375 0.8125
vt 0.6875 0.8125
vt 0.6875 0.78125
vt 0.71875 0.78125
vt 0.71875 0.8125
vt 0.6953125 0.8125
vt 0.6953125 0.78125
vt 0.71875 0.7890625
vt 0.71875 0.8125
vt 0.6875 0.8125
vt 0.6875 0.7890625
vt 0.71875 0.78125
vt 0.71875 0.8046875
vt 0.6875 0.8046875
vt 0.6875 0.78125
vt 0.71875 0.78125
vt 0.71875 0.8125
vt 0.6875 0.8125
vt 0.6875 0.78125
vt 0.75 0
vt 0.75 0.25
vt 0.5 0.25
vt 0.5 0
vt 0.75 0.25
vt 0.671875 0.25
vt 0.671875 0
vt 0.75 0
vt 0.75 0
vt 0.75 0.078125
vt 0.5 0.078125
vt 0.5 0
vt 0.578125 0.25
vt 0.5 0.25
vt 0.5 0
vt 0.578125 0
vt 1 0.71875
vt 1 0.875
vt 0.984375 0.875
vt 0.984375 0.71875
vt 0.796875 0.71875
vt 0.796875 0.875
vt 0.78125 0.875
vt 0.78125 0.71875
vt 1 0.859375
vt 1 0.875
vt 0.78125 0.875
vt 0.78125 0.859375
vt 1 0.71875
vt 1 0.734375
vt 0.78125 0.734375
vt 0.78125 0.71875
vt 1 0.71875
vt 1 0.875
vt 0.78125 0.875
vt 0.78125 0.71875
vt 0.875 0.484375
vt 0.875 0.609375
vt 0.75 0.609375
vt 0.75 0.484375
vt 0.75 0.609375
vt 0.875 0.609375
vt 0.875 0.59375
vt 0.75 0.59375
vt 0.875 0.5
vt 0.75 0.5
vt 0.75 0.484375
vt 0.875 0.484375
vt 0.766015625 0.484375
vt 0.766015625 0.609375
vt 0.75 0.609375
vt 0.75 0.484375
vt 0.875390625 0.484375
vt 0.875390625 0.609375
vt 0.859375 0.609375
vt 0.859375 0.484375
vt 0.125 0.6875
vt 0.125 0.734375
vt 0.0625 0.734375
vt 0.0625 0.6875
vt 0.07851562499999998 0.6875
vt 0.07851562499999998 0.734375
vt 0.0625 0.734375
vt 0.0625 0.6875
vt 0.12539062499999998 0.6875
vt 0.12539062499999998 0.734375
vt 0.109375 0.734375
vt 0.109375 0.6875
vt 0.75 0.609375
vt 0.875 0.609375
vt 0.875 0.59375
vt 0.75 0.59375
vt 0.875 0.5
vt 0.75 0.5
vt 0.75 0.484375
vt 0.875 0.484375
vt 0.766015625 0.484375
vt 0.766015625 0.609375
vt 0.75 0.609375
vt 0.75 0.484375
vt 0.875390625 0.484375
vt 0.875390625 0.609375
vt 0.859375 0.609375
vt 0.859375 0.484375
vt 0.0625 0.6875
vt 0.0625 0.734375
vt 0 0.734375
vt 0 0.6875
vt 0.016015624999999978 0.6875
vt 0.016015624999999978 0.734375
vt 0 0.734375
vt 0 0.6875
vt 0.06289062499999998 0.6875
vt 0.06289062499999998 0.734375
vt 0.046875 0.734375
vt 0.046875 0.6875
vt 0.625 0.25
vt 0.625 1
vt 0.5625 1
vt 0.5625 0.25
vt 0.6875 0.25
vt 0.6875 1
vt 0.625 1
vt 0.625 0.25
vt 0.6875 0.25
vt 0.6875 1
vt 0.5625 1
vt 0.5625 0.25
vt 0 0.09375
vt 0 0.25
vt 0.3125 0.25
vt 0.3125 0.09375
vt 0 0.09375
vt 0 0.25
vt 0.3125 0.25
vt 0.3125 0.09375
vt 0.875 1
vt 0.875 0.6875
vt 0.4375 0.6875
vt 0.4375 1
vt 0.875 1
vt 0.875 0.6875
vt 0.4375 0.6875
vt 0.4375 1
vt 0.4375 0.375
vt 0.4375 0.53125
vt 0.875 0.53125
vt 0.875 0.375
vt 0.4375 0.53125
vt 0.4375 0.6875
vt 0.875 0.6875
vt 0.875 0.53125
vt 0 0.09375
vt 0 0.25
vt 0.3125 0.25
vt 0.3125 0.09375
vt 0 0.09375
vt 0 0.25
vt 0.3125 0.25
vt 0.3125 0.09375
vt 0.875 1
vt 0.875 0.6875
vt 0.4375 0.6875
vt 0.4375 1
vt 0.875 1
vt 0.875 0.6875
vt 0.4375 0.6875
vt 0.4375 1
vt 0.4375 0.53125
vt 0.4375 0.6875
vt 0.875 0.6875
vt 0.875 0.53125
vt 0.4375 0.375
vt 0.4375 0.53125
vt 0.875 0.53125
vt 0.875 0.375
vt 0.875 0.484375
vt 0.875 0.609375
vt 0.75 0.609375
vt 0.75 0.484375
vt 0 0.75
vt 0.234375 0.75
vt 0.234375 1
vt 0 1
vt 0.484375 0.25
vt 0.25 0.25
vt 0.25 0.015625
vt 0.484375 0.015625
vt 0 0.28125
vt 0.234375 0.28125
vt 0.234375 0.46875
vt 0 0.46875
vt 0.734375 0.65625
vt 0.734375 0.703125
vt 0.75 0.703125
vt 0.75 0.65625
vt 0.734375 0.65625
vt 0.734375 0.703125
vt 0.75 0.703125
vt 0.75 0.65625
vt 0.65625 0.65625
vt 0.734375 0.65625
vt 0.734375 0.640625
vt 0.65625 0.640625
vt 0.65625 0.65625
vt 0.734375 0.65625
vt 0.734375 0.640625
vt 0.65625 0.640625
vt 0.3125 1
vt 0.5 1
vt 0.5 0.0625
vt 0.3125 0.0625
vt 0.5 1
vt 0.3125 1
vt 0.3125 0.0625
vt 0.5 0.0625
vt 0.5 1
vt 0.4375 1
vt 0.4375 0.0625
vt 0.5 0.0625
vt 0.375 0.0625
vt 0.3125 0.0625
vt 0.3125 1
vt 0.375 1
vt 0.3125 1
vt 0.5 1
vt 0.5 0
vt 0.3125 0
vt 0.5 1
vt 0.3125 1
vt 0.3125 0
vt 0.5 0
vt 0.5 1
vt 0.4375 1
vt 0.4375 0
vt 0.5 0
vt 0.375 0
vt 0.3125 0
vt 0.3125 1
vt 0.375 1
vt 0.3125 0.4375
vt 0.5 0.4375
vt 0.5 1
vt 0.3125 1
vt 0.5 0.4375
vt 0.3125 0.4375
vt 0.3125 1
vt 0.5 1
vt 0.5 0.4375
vt 0.4375 0.4375
vt 0.4375 1
vt 0.5 1
vt 0.375 1
vt 0.3125 1
vt 0.3125 0.4375
vt 0.375 0.4375
vt 0.5 1
vt 0.3125 1
vt 0.3125 0.0625
vt 0.5 0.0625
vt 0.375 0.0625
vt 0.3125 0.0625
vt 0.3125 1
vt 0.375 1
vt 0.5 1
vt 0.3125 1
vt 0.3125 0
vt 0.5 0
vt 0.375 0
vt 0.3125 0
vt 0.3125 1
vt 0.375 1
vt 0.5 0.4375
vt 0.3125 0.4375
vt 0.3125 1
vt 0.5 1
vt 0.375 1
vt 0.3125 1
vt 0.3125 0.4375
vt 0.375 0.4375
vt 0.984375 0
vt 0.984375 0.0625
vt 0.765625 0.0625
vt 0.765625 0
vt 1 0
vt 1 0.0625
vt 0.78125 0.0625
vt 0.78125 0
vt 0.984375 0.25
vt 0.765625 0.25
vt 0.765625 0.0625
vt 0.984375 0.0625
vt 0.984375 0.390625
vt 0.984375 0.453125
vt 0.796875 0.453125
vt 0.796875 0.390625
vt 0.96875 0.03125
vt 0.96875 0.21875
vt 0.78125 0.21875
vt 0.78125 0.03125
vt 0.71875 0.21875
vt 0.71875 0.03125
vt 0.75 0
vt 0.75 0.25
vt 0.53125 0.21875
vt 0.71875 0.21875
vt 0.75 0.25
vt 0.5 0.25
vt 0.53125 0.03125
vt 0.53125 0.21875
vt 0.5 0.25
vt 0.5 0
vt 0.71875 0.03125
vt 0.53125 0.03125
vt 0.5 0
vt 0.75 0
vt 0.109375 0.609375
vt 0.109375 0.484375
vt 0.125 0.484375
vt 0.125 0.609375
vt 0.015625 0.484375
vt 0 0.484375
vt 0 0.609375
vt 0.015625 0.609375
vt 0 0.484375
vt 0.125 0.484375
vt 0.125 0.609375
vt 0 0.609375
vt 0.125 0.484375
vt 0.125 0.5
vt 0 0.5
vt 0 0.484375
vt 0 0.609375
vt 0.125 0.609375
vt 0.125 0.59375
vt 0 0.59375
vt 0.078125 1
vt 0.078125 0.984375
vt 0.265625 0.984375
vt 0.265625 1
vt 0.25 1
vt 0.25 0.984375
vt 0.4375 0.984375
vt 0.4375 1
vt 0.140625 1
vt 0.140625 0.984375
vt 0.328125 0.984375
vt 0.328125 1
vt 0.171875 1
vt 0.171875 0.984375
vt 0.359375 0.984375
vt 0.359375 1
vn 0.958819734868193 0 -0.28401534470392265
vn -0.958819734868193 0 0.28401534470392265
vn 0 1 0
vn 0 -1 0
vn 0.28401534470392265 0 0.958819734868193
vn -0.28401534470392265 0 -0.958819734868193
vn 1 0 1.4988010832439613e-15
vn -1 0 -1.4988010832439613e-15
vn 0 1 0
vn 0 -1 0
vn -1.6653345369377348e-16 0 -1
vn 0 1 0
vn -1 0 0
vn -1.6653345369377348e-16 0 -1
vn -1.6653345369377348e-16 0 -1
vn 0 0 -1
vn -1 0 1.6653345369377348e-16
vn 1 0 0
vn 1 0 -1.1102230246251565e-16
vn 0 -1 0
vn -5.551115123125783e-17 0 -1
vn 1 0 0
vn 1.6653345369377348e-16 0 1
vn 1 0 -1.6653345369377348e-16
vn -1.5543122344752196e-15 0 1
vn -0.7071067811865469 0 -0.7071067811865481
vn 1.887379141862766e-15 0 1
vn 1 0 -1.6653345369377348e-16
vn 1 0 -1.6653345369377348e-16
vn 1.887379141862766e-15 0 1
vn 1 0 -1.6653345369377348e-16
vn 1.887379141862766e-15 0 1
vn 1 0 -1.6653345369377348e-16
vn -0.7071067811865471 0 -0.707106781186548
vn -1.5543122344752196e-15 0 1
vn -0.7071067811865469 0 -0.7071067811865482
vn 1 0 -1.6653345369377348e-16
vn 1.887379141862766e-15 0 1
vn 1 0 0
vn 1.6653345369377348e-16 0 1
vn 1 0 0
vn 0 -1 0
vn 1.6653345369377348e-16 0 1
vn 5.5511151231257815e-17 0 1
vn 1 0 1.1102230246251565e-16
vn 0 1 0
vn 0 -1 0
vn 0 -1 0
vn -0.7071067811865471 0 -0.707106781186548
vn 0 1 0
vn 1 0 1.1102230246251565e-16
vn 5.551115123125783e-17 0 1
vn 0 -1 0
vn 0 -1 0
vn 0 1 0
vn 0 1 0
vn -1 0 -2.220446049250313e-16
vn 0 1 0
vn 0 -1 0
vn -2.220446049250313e-16 0 1
vn -1 0 0
vn -5.551115123125783e-17 0 1
vn -5.551115123125783e-17 0 -1
vn 1 0 1.1102230246251565e-16
vn 0 -1 0
vn 0 0 -1
vn 0 0 -1
vn 0 -1 0
vn 1 0 -1.6653345369377348e-16
vn 1 2.9605947323337506e-16 5.551115123125783e-17
vn 1 0 -1.6653345369377348e-16
vn 1 2.9605947323337506e-16 5.551115123125783e-17
vn 1.6653345369377348e-16 0 1
vn 0 -1 0
vn 1.4988010832439613e-15 0 -1
vn 0 1 0
vn -1 0 1.6653345369377348e-16
vn -1 0 1.6653345369377348e-16
vn -1 0 1.6653345369377348e-16
vn -1 0 1.6653345369377348e-16
vn -1 0 1.6653345369377348e-16
vn 1.6653345369377348e-16 0 1
vn 0 -1 0
vn -1.6653345369377348e-16 0 -1
vn 0 1 0
vn 5.551115123125783e-17 -1.1842378929335003e-16 -1
vn 6.106226635438361e-16 -4.455744580435409e-17 -1
vn 0 1 0
vn 0.9702957262759966 0 -0.24192189559966765
vn -0.9702957262759966 0 0.24192189559966765
vn 0 1 0
vn 0.24192189559966787 0 0.9702957262759965
vn -0.241921895599667 0 -0.9702957262759968
vn 0.9702957262759965 0 -0.2419218955996679
vn -0.9702957262759965 0 0.24192189559966779
vn 0 1 0
vn 0.24192189559966787 0 0.9702957262759964
vn -0.24192189559966876 0 -0.9702957262759964
vn 0.9702957262759965 0 -0.24192189559966779
vn -0.9702957262759965 0 0.2419218955996677
vn 0 1 0
vn 0.24192189559966787 0 0.9702957262759965
vn -0.2419218955996687 0 -0.9702957262759963
vn 0.9702957262759965 0 -0.24192189559966779
vn -0.9702957262759965 0 0.24192189559966776
vn 0 1 0
vn 0.24192189559966618 0 0.970295726275997
vn -0.241921895599667 0 -0.9702957262759968
vn 1 0 0
vn -1 0 5.551115123125783e-17
vn 0 1 0
vn 0 0 -1
vn 1 0 -5.5511151231257815e-17
vn -1 0 5.551115123125783e-17
vn 0 -1 0
vn -5.551115123125783e-17 0 -1
vn 1 0 0
vn -1 0 1.6653345369377348e-16
vn 0 1 0
vn 0 -1 0
vn 1.1102230246251565e-16 0 -1
vn 1 0 2.220446049250313e-16
vn -1 0 4.996003610813204e-16
vn 0 1 0
vn 5.551115123125783e-17 0 1
vn 1.1102230246251565e-16 0 -1
vn 1 0 3.3306690738754686e-16
vn -1 0 -3.3306690738754686e-16
vn 0 0 1
vn 0 0 -1
vn -0.1045284632676535 0 0.9945218953682735
vn 0.10452846326765375 0 -0.9945218953682733
vn 0 1 0
vn -0.9945218953682733 0 -0.10452846326765364
vn 0.9945218953682734 0 0.10452846326765344
vn 0.10452846326765336 0 0.9945218953682734
vn -0.1045284632676535 0 -0.9945218953682734
vn 0 1 0
vn -0.9945218953682735 0 0.10452846326765344
vn 0.9945218953682735 0 -0.10452846326765336
vn 1 -2.3129646346357432e-17 -2.7755575615628914e-16
vn 1.0408340855860843e-17 0.9998476951563913 -0.01745240643728323
vn 1.214306433183765e-17 -0.9998476951563913 0.017452406437283234
vn -1.4432899320127039e-15 0.017452406437283366 0.9998476951563914
vn -1.6653345369377348e-16 -0.017452406437283366 -0.9998476951563914
vn 1 0 0
vn -1 0 0
vn 0 1 0
vn 1.887379141862766e-15 0 1
vn -1.887379141862766e-15 0 -1
vn 1 0 5.551115123125783e-17
vn 0 1 0
vn -1.4988010832439613e-15 0 1
vn -1.6653345369377348e-16 0 -1
vn 0 -1 0
vn 1 0 0
vn -1 0 0
vn 0 1 0
vn -3.3306690738754686e-16 0 1
vn 3.3306690738754696e-16 0 -1
vn 1 0 0
vn -1 0 0
vn 0 1 0
vn 2.1649348980190553e-15 0 1
vn -1.6653345369377348e-16 0 -1
vn 1 0 5.551115123125783e-17
vn 0 1 0
vn 1.6653345369377348e-16 0 1
vn -1.6653345369377348e-16 0 -1
vn 0 -1 0
vn 1 0 0
vn -1 0 -1.1102230246251565e-16
vn 0 1 0
vn -2.220446049250313e-16 0 1
vn -1.6653345369377348e-16 0 -1
vn 1 0 3.3306690738754696e-16
vn -1 0 -1.6653345369377348e-16
vn 0 -1 0
vn 7.771561172376098e-16 0 1
vn -1.6653345369377348e-16 0 -1
vn 1 0 3.3306690738754696e-16
vn -1 0 -1.6653345369377348e-16
vn 7.771561172376098e-16 0 1
vn -1.6653345369377348e-16 0 -1
vn 0 1 0
vn 1 0 0
vn 0 -1 0
vn 1.942890293094024e-15 0 1
vn -1.6653345369377348e-16 0 -1
vn 0 1 0
vn -1 0 -5.551115123125783e-17
vn 1.887379141862766e-15 -5.045126000594294e-16 1
vn -1.6653345369377348e-16 0 -1
vn 1 0 3.885780586188049e-16
vn -1 0 -3.885780586188049e-16
vn 0 -1 0
vn 1.6653345369377348e-16 0 1
vn -1.6653345369377348e-16 0 -1
vn 1 0 5.551115123125783e-16
vn -1 0 -3.885780586188049e-16
vn 0 -1 0
vn 1.6653345369377348e-16 0 1
vn 3.885780586188049e-16 0 -1
vn 1 0 1.1102230246251565e-16
vn -1 0 -3.885780586188049e-16
vn 0 -1 0
vn -2.7755575615628914e-16 0 1
vn 3.885780586188049e-16 0 -1
vn 1 0 1.1102230246251565e-16
vn -1 0 -3.885780586188049e-16
vn 0 -1 0
vn 1.6653345369377348e-16 0 1
vn -5.551115123125783e-17 0 -1
vn 1 0 1.6653345369377348e-16
vn -1 0 -5.551115123125783e-17
vn 0 0 1
vn 0 0 -1
vn 0 1 0
vn 0 -1 0
vn 0 1 0
vn 1 0 0
vn -1 0 0
vn 0 1 0
vn 0 -1 0
vn 6.661338147750939e-16 0 -1
vn 1 0 0
vn -1 0 1.6653345369377348e-16
vn 0 1 0
vn 0 -1 0
vn -1.6653345369377348e-16 0 -1
vn 1 0 0
vn -1 0 1.6653345369377348e-16
vn 0 1 0
vn 0 -1 0
vn 1.4988010832439613e-15 0 -1
vn 1 0 -1.6653345369377348e-16
vn -1 0 0
vn 0 1 0
vn 0 -1 0
vn -1.6653345369377348e-16 0 -1
vn 1 0 0
vn -1 0 3.3306690738754706e-16
vn 0 1 0
vn 0 -1 0
vn 6.661338147750939e-16 0 -1
vn 0 1 0
vn 1 5.045126000594328e-17 5.551115123125783e-17
vn 0 0 -1
vn -0.9999998046875573 0 -0.000624999877929744
vn 1 0 -1.6653345369377348e-16
vn -1 0 1.887379141862766e-15
vn 0 1 0
vn 0 -1 0
vn 0 0 1
vn -1 0 1.6653345369377348e-16
vn 0 1 0
vn 0 -1 0
vn -5.551115123125783e-17 0 -1
vn 5.551115123125783e-17 0 1
vn -1 0 1.6653345369377348e-16
vn -1.1102230246251565e-16 0 -1
vn 1.1102230246251565e-16 0 1
vn 0 1 0
vn 0 -1 0
vn -1.498801083243961e-15 0 1
vn -5.551115123125783e-17 0 -1
vn 1 0 -1.6653345369377348e-16
vn -1.4988010832439613e-15 0 1
vn 1.4988010832439613e-15 0 -1
vn 1 0 1.9984014443252814e-15
vn -1 0 -1.4988010832439613e-15
vn 6.106226635438361e-16 0 -1
vn -0.30901699437494756 0 0.9510565162951535
vn 0.3090169943749469 0 -0.9510565162951538
vn 0 1 0
vn 0 -1 0
vn -0.9510565162951536 0 -0.3090169943749477
vn 0.9510565162951536 0 0.30901699437494745
vn 0.8987940462991671 0 0.4383711467890775
vn -0.8987940462991671 0 -0.4383711467890775
vn 0 1 0
vn 0 -1 0
vn -0.4383711467890773 0 0.898794046299167
vn 0.4383711467890775 0 -0.898794046299167
vn 1 0 -1.6653345369377348e-16
vn -5.551115123125783e-17 0 -1
vn 0 -1 0
vn -5.551115123125783e-17 0 -1
vn -1 0 -3.3306690738754686e-16
vn 1 0 3.3306690738754686e-16
vn 0 0 -1
vn 0 0 1
vn 0 1 0
vn 0 -1 0
vn 5.551115123125783e-17 0 1
vn 0 0 -1
vn 1 2.7755575615628904e-16 3.3306690738754696e-16
vn -1 -2.1279274638648827e-16 -3.3306690738754696e-16
vn -4.884981308350688e-15 1.5265566588595875e-16 1
vn -1.887379141862766e-15 -1.4918621893400546e-16 -1
vn 1 0 -4.440892098500626e-16
vn -1 -3.782982157982016e-16 7.771561172376096e-16
vn -1.4432899320127039e-15 -4.934324553889583e-16 1
vn 4.8849813083506896e-15 0 -1
vn 0 -1 0
vn -5.551115123125783e-17 0 -1
vn -1 -1.5728159515523064e-16 -7.216449660063519e-16
vn -9.43689570931383e-16 -1.4918621893400598e-16 -1
vn -1 0 -7.216449660063518e-16
vn 1.4432899320127039e-15 0 -1
vn 1 0 5.551115123125783e-17
vn -1 0 -5.551115123125783e-17
vn 0 -1 0
vn 5.551115123125783e-17 0 -1
vn 1.1842378929335026e-15 1 -4.930380657631324e-32
vn -2.368475785867003e-15 1 -9.473903143468002e-15
vn 7.105427357601002e-15 1 3.944304526105059e-31
vn -2.3684757858670025e-15 1 -9.473903143467986e-15
vn 7.1054273576009995e-15 1 0
vn 1 0 0
vn -1 0 -1.1102230246251565e-16
vn 0 1 0
vn -6.661338147750939e-16 0 1
vn 2.220446049250313e-16 0 -1
vn -1 -6.812823975140101e-15 0
vn -2.7755575615628914e-16 2.0180504002377e-15 -1
vn 1 1.4792095353626024e-14 0
vn 0 -4.404965878830876e-16 1
usemtl metal
f 4/1/1 2/2/1 1/3/1
f 4/1/1 1/3/1 3/4/1
f 7/5/2 5/6/2 6/7/2
f 7/5/2 6/7/2 8/8/2
f 1/9/3 2/10/3 6/11/3
f 1/9/3 6/11/3 5/12/3
f 4/13/4 3/14/4 7/15/4
f 4/13/4 7/15/4 8/16/4
f 3/17/5 1/18/5 5/19/5
f 3/17/5 5/19/5 7/20/5
f 8/21/6 6/22/6 2/23/6
f 8/21/6 2/23/6 4/24/6
usemtl arithmetic_logic_machine
f 12/25/7 10/26/7 9/27/7
f 12/25/7 9/27/7 11/28/7
f 15/29/8 13/30/8 14/31/8
f 15/29/8 14/31/8 16/32/8
f 9/33/9 10/34/9 14/35/9
f 9/33/9 14/35/9 13/36/9
f 12/37/10 11/38/10 15/39/10
f 12/37/10 15/39/10 16/40/10
f 16/41/11 14/42/11 10/43/11
f 16/41/11 10/43/11 12/44/11
usemtl common_steel
f 17/45/12 18/46/12 20/47/12
f 17/45/12 20/47/12 19/48/12
f 25/49/13 23/50/13 24/51/13
f 25/49/13 24/51/13 26/52/13
f 26/53/14 24/54/14 21/55/14
f 26/53/14 21/55/14 22/56/14
f 31/57/15 30/58/15 28/59/15
f 31/57/15 28/59/15 29/60/15
f 30/61/16 20/62/16 18/63/16
f 30/61/16 18/63/16 21/64/16
usemtl arithmetic_logic_machine
f 20/65/17 31/66/17 33/67/17
f 20/65/17 33/67/17 19/68/17
f 18/69/18 17/70/18 32/71/18
f 18/69/18 32/71/18 22/72/18
usemtl common_steel
f 29/73/19 28/74/19 27/75/19
f 29/73/19 27/75/19 34/76/19
f 28/77/20 447/78/20 446/79/20
f 28/77/20 446/79/20 27/80/20
usemtl common_table
f 27/81/21 446/82/21 445/83/21
f 27/81/21 445/83/21 35/84/21
usemtl arithmetic_logic_machine
f 40/85/22 38/86/22 37/87/22
f 40/85/22 37/87/22 39/88/22
f 39/89/23 37/90/23 41/91/23
f 39/89/23 41/91/23 42/92/23
f 45/93/24 44/94/24 43/95/24
f 45/93/24 43/95/24 37/96/24
f 37/97/25 43/98/25 46/99/25
f 37/97/25 46/99/25 48/100/25
f 49/101/26 47/102/26 44/103/26
f 49/101/26 44/103/26 45/104/26
f 52/105/27 50/106/27 54/107/27
f 52/105/27 54/107/27 41/108/27
f 53/109/28 51/110/28 50/111/28
f 53/109/28 50/111/28 52/112/28
f 38/113/29 56/114/29 55/115/29
f 38/113/29 55/115/29 57/116/29
f 57/117/30 55/118/30 58/119/30
f 57/117/30 58/119/30 59/120/30
f 62/121/31 40/122/31 60/123/31
f 62/121/31 60/123/31 61/124/31
f 61/125/32 60/126/32 63/127/32
f 61/125/32 63/127/32 64/128/32
f 67/129/33 65/130/33 39/131/33
f 67/129/33 39/131/33 66/132/33
f 70/133/34 68/134/34 69/135/34
f 70/133/34 69/135/34 71/136/34
f 66/137/35 39/138/35 68/139/35
f 66/137/35 68/139/35 70/140/35
f 71/141/36 69/142/36 65/143/36
f 71/141/36 65/143/36 67/144/36
f 75/145/37 73/146/37 72/147/37
f 75/145/37 72/147/37 74/148/37
f 74/149/38 72/150/38 42/151/38
f 74/149/38 42/151/38 76/152/38
f 56/153/39 17/154/39 77/155/39
f 56/153/39 77/155/39 43/156/39
f 43/157/40 77/158/40 78/159/40
f 43/157/40 78/159/40 54/160/40
f 81/161/41 62/162/41 66/163/41
f 81/161/41 66/163/41 80/164/41
usemtl common_bottom
f 81/165/42 80/166/42 82/167/42
f 81/165/42 82/167/42 83/168/42
usemtl arithmetic_logic_machine
f 80/169/43 66/170/43 76/171/43
f 80/169/43 76/171/43 82/172/43
f 47/173/44 51/174/44 53/175/44
f 47/173/44 53/175/44 49/176/44
f 47/177/45 49/178/45 59/179/45
f 47/177/45 59/179/45 58/180/45
f 52/181/46 48/182/46 49/183/46
f 52/181/46 49/183/46 53/184/46
f 55/185/47 44/186/47 47/187/47
f 55/185/47 47/187/47 58/188/47
f 51/189/48 47/190/48 46/191/48
f 51/189/48 46/191/48 50/192/48
f 48/193/49 46/194/49 47/195/49
f 48/193/49 47/195/49 49/196/49
f 59/197/50 49/198/50 45/199/50
f 59/197/50 45/199/50 57/200/50
f 63/201/51 69/202/51 71/203/51
f 63/201/51 71/203/51 64/204/51
f 75/205/52 71/206/52 69/207/52
f 75/205/52 69/207/52 73/208/52
f 73/209/53 69/210/53 68/211/53
f 73/209/53 68/211/53 72/212/53
f 60/213/54 65/214/54 69/215/54
f 60/213/54 69/215/54 63/216/54
f 64/217/55 71/218/55 67/219/55
f 64/217/55 67/219/55 61/220/55
f 74/221/56 70/222/56 71/223/56
f 74/221/56 71/223/56 75/224/56
f 88/225/57 86/226/57 87/227/57
f 88/225/57 87/227/57 89/228/57
usemtl common_steel
f 84/229/58 85/230/58 87/231/58
f 84/229/58 87/231/58 86/232/58
usemtl common_bottom
f 83/233/59 82/234/59 88/235/59
f 83/233/59 88/235/59 89/236/59
usemtl arithmetic_logic_machine
f 82/237/60 84/238/60 86/239/60
f 82/237/60 86/239/60 88/240/60
usemtl common_steel
f 84/241/61 78/242/61 79/243/61
f 84/241/61 79/243/61 85/244/61
f 19/245/62 87/246/62 85/247/62
f 19/245/62 85/247/62 79/248/62
usemtl common_table
f 35/249/63 445/250/63 448/251/63
f 35/249/63 448/251/63 91/252/63
usemtl common_steel
f 102/253/64 100/254/64 101/255/64
f 102/253/64 101/255/64 103/256/64
usemtl common_bottom
f 93/257/65 94/258/65 83/259/65
f 93/257/65 83/259/65 89/260/65
usemtl common_steel
f 31/261/66 95/262/66 94/263/66
f 31/261/66 94/263/66 93/264/66
f 92/265/67 94/266/67 95/267/67
f 92/265/67 95/267/67 22/268/67
usemtl common_bottom
f 81/269/68 83/270/68 94/271/68
f 81/269/68 94/271/68 92/272/68
usemtl common_steel
f 96/273/69 98/274/69 92/275/69
f 96/273/69 92/275/69 22/276/69
f 97/277/70 96/278/70 22/279/70
f 97/277/70 22/279/70 32/280/70
f 99/281/71 97/282/71 32/283/71
f 99/281/71 32/283/71 81/284/71
f 98/285/72 99/286/72 81/287/72
f 98/285/72 81/287/72 92/288/72
f 100/289/73 102/290/73 98/291/73
f 100/289/73 98/291/73 96/292/73
f 101/293/74 100/294/74 96/295/74
f 101/293/74 96/295/74 97/296/74
f 103/297/75 101/298/75 97/299/75
f 103/297/75 97/299/75 99/300/75
f 102/301/76 103/302/76 99/303/76
f 102/301/76 99/303/76 98/304/76
f 105/305/77 104/306/77 106/307/77
f 105/305/77 106/307/77 107/308/77
f 93/309/78 111/310/78 108/311/78
f 93/309/78 108/311/78 31/312/78
f 31/313/79 108/314/79 109/315/79
f 31/313/79 109/315/79 33/316/79
f 33/317/80 109/318/80 110/319/80
f 33/317/80 110/319/80 89/320/80
f 89/321/81 110/322/81 111/323/81
f 89/321/81 111/323/81 93/324/81
f 111/325/82 106/326/82 104/327/82
f 111/325/82 104/327/82 108/328/82
f 108/329/83 104/330/83 105/331/83
f 108/329/83 105/331/83 109/332/83
f 109/333/84 105/334/84 107/335/84
f 109/333/84 107/335/84 110/336/84
f 110/337/85 107/338/85 106/339/85
f 110/337/85 106/339/85 111/340/85
usemtl arithmetic_logic_machine
f 113/341/86 114/342/86 115/343/86
f 113/341/86 115/343/86 29/344/86
f 26/345/87 116/346/87 117/347/87
f 26/345/87 117/347/87 112/348/87
f 118/349/88 112/350/88 113/351/88
f 118/349/88 113/351/88 119/352/88
f 123/353/89 121/354/89 120/355/89
f 123/353/89 120/355/89 122/356/89
f 126/357/90 124/358/90 125/359/90
f 126/357/90 125/359/90 127/360/90
f 120/361/91 121/362/91 125/363/91
f 120/361/91 125/363/91 124/364/91
f 122/365/92 120/366/92 124/367/92
f 122/365/92 124/367/92 126/368/92
f 127/369/93 125/370/93 121/371/93
f 127/369/93 121/371/93 123/372/93
f 131/373/94 129/374/94 128/375/94
f 131/373/94 128/375/94 130/376/94
f 134/377/95 132/378/95 133/379/95
f 134/377/95 133/379/95 135/380/95
f 128/381/96 129/382/96 133/383/96
f 128/381/96 133/383/96 132/384/96
f 130/385/97 128/386/97 132/387/97
f 130/385/97 132/387/97 134/388/97
f 135/389/98 133/390/98 129/391/98
f 135/389/98 129/391/98 131/392/98
f 139/393/99 137/394/99 136/395/99
f 139/393/99 136/395/99 138/396/99
f 142/397/100 140/398/100 141/399/100
f 142/397/100 141/399/100 143/400/100
f 136/401/101 137/402/101 141/403/101
f 136/401/101 141/403/101 140/404/101
f 138/405/102 136/406/102 140/407/102
f 138/405/102 140/407/102 142/408/102
f 143/409/103 141/410/103 137/411/103
f 143/409/103 137/411/103 139/412/103
f 147/413/104 145/414/104 144/415/104
f 147/413/104 144/415/104 146/416/104
f 150/417/105 148/418/105 149/419/105
f 150/417/105 149/419/105 151/420/105
f 144/421/106 145/422/106 149/423/106
f 144/421/106 149/423/106 148/424/106
f 146/425/107 144/426/107 148/427/107
f 146/425/107 148/427/107 150/428/107
f 151/429/108 149/430/108 145/431/108
f 151/429/108 145/431/108 147/432/108
f 155/433/109 153/434/109 152/435/109
f 155/433/109 152/435/109 154/436/109
f 158/437/110 156/438/110 157/439/110
f 158/437/110 157/439/110 159/440/110
f 152/441/111 153/442/111 157/443/111
f 152/441/111 157/443/111 156/444/111
f 159/445/112 157/446/112 153/447/112
f 159/445/112 153/447/112 155/448/112
f 160/449/113 161/450/113 163/451/113
f 160/449/113 163/451/113 162/452/113
f 165/453/114 164/454/114 166/455/114
f 165/453/114 166/455/114 167/456/114
f 165/457/115 161/458/115 160/459/115
f 165/457/115 160/459/115 164/460/115
f 161/461/116 165/462/116 167/463/116
f 161/461/116 167/463/116 163/464/116
usemtl common_thingies
f 171/465/117 169/466/117 168/467/117
f 171/465/117 168/467/117 170/468/117
f 174/469/118 172/470/118 173/471/118
f 174/469/118 173/471/118 175/472/118
f 168/473/119 169/474/119 173/475/119
f 168/473/119 173/475/119 172/476/119
f 171/477/120 170/478/120 174/479/120
f 171/477/120 174/479/120 175/480/120
f 175/481/121 173/482/121 169/483/121
f 175/481/121 169/483/121 171/484/121
usemtl arithmetic_logic_machine
f 179/485/122 177/486/122 176/487/122
f 179/485/122 176/487/122 178/488/122
f 182/489/123 180/490/123 181/491/123
f 182/489/123 181/491/123 183/492/123
f 176/493/124 177/494/124 181/495/124
f 176/493/124 181/495/124 180/496/124
f 178/497/125 176/498/125 180/499/125
f 178/497/125 180/499/125 182/500/125
f 183/501/126 181/502/126 177/503/126
f 183/501/126 177/503/126 179/504/126
f 187/505/127 185/506/127 184/507/127
f 187/505/127 184/507/127 186/508/127
f 190/509/128 188/510/128 189/511/128
f 190/509/128 189/511/128 191/512/128
f 186/513/129 184/514/129 188/515/129
f 186/513/129 188/515/129 190/516/129
f 191/517/130 189/518/130 185/519/130
f 191/517/130 185/519/130 187/520/130
usemtl circuit_basic
f 195/521/131 193/522/131 192/523/131
f 195/521/131 192/523/131 194/524/131
f 198/525/132 196/526/132 197/527/132
f 198/525/132 197/527/132 199/528/132
f 192/529/133 193/530/133 197/531/133
f 192/529/133 197/531/133 196/532/133
f 194/533/134 192/534/134 196/535/134
f 194/533/134 196/535/134 198/536/134
f 199/537/135 197/538/135 193/539/135
f 199/537/135 193/539/135 195/540/135
usemtl arithmetic_logic_machine
f 203/541/136 201/542/136 200/543/136
f 203/541/136 200/543/136 202/544/136
f 206/545/137 204/546/137 205/547/137
f 206/545/137 205/547/137 207/548/137
f 200/549/138 201/550/138 205/551/138
f 200/549/138 205/551/138 204/552/138
f 202/553/139 200/554/139 204/555/139
f 202/553/139 204/555/139 206/556/139
f 207/557/140 205/558/140 201/559/140
f 207/557/140 201/559/140 203/560/140
f 211/561/141 209/562/141 208/563/141
f 211/561/141 208/563/141 210/564/141
f 208/565/142 209/566/142 213/567/142
f 208/565/142 213/567/142 212/568/142
f 211/569/143 210/570/143 214/571/143
f 211/569/143 214/571/143 215/572/143
f 210/573/144 208/574/144 212/575/144
f 210/573/144 212/575/144 214/576/144
f 215/577/145 213/578/145 209/579/145
f 215/577/145 209/579/145 211/580/145
f 219/581/146 217/582/146 216/583/146
f 219/581/146 216/583/146 218/584/146
f 222/585/147 220/586/147 221/587/147
f 222/585/147 221/587/147 223/588/147
f 216/589/148 217/590/148 221/591/148
f 216/589/148 221/591/148 220/592/148
f 218/593/149 216/594/149 220/595/149
f 218/593/149 220/595/149 222/596/149
f 223/597/150 221/598/150 217/599/150
f 223/597/150 217/599/150 219/600/150
f 227/601/151 225/602/151 224/603/151
f 227/601/151 224/603/151 226/604/151
f 224/605/152 225/606/152 229/607/152
f 224/605/152 229/607/152 228/608/152
f 226/609/153 224/610/153 228/611/153
f 226/609/153 228/611/153 230/612/153
f 231/613/154 229/614/154 225/615/154
f 231/613/154 225/615/154 227/616/154
f 230/617/155 231/618/155 227/619/155
f 230/617/155 227/619/155 226/620/155
f 235/621/156 233/622/156 232/623/156
f 235/621/156 232/623/156 234/624/156
f 238/625/157 236/626/157 237/627/157
f 238/625/157 237/627/157 239/628/157
f 232/629/158 233/630/158 237/631/158
f 232/629/158 237/631/158 236/632/158
f 234/633/159 232/634/159 236/635/159
f 234/633/159 236/635/159 238/636/159
f 239/637/160 237/638/160 233/639/160
f 239/637/160 233/639/160 235/640/160
f 243/641/161 241/642/161 240/643/161
f 243/641/161 240/643/161 242/644/161
f 246/645/162 244/646/162 245/647/162
f 246/645/162 245/647/162 247/648/162
f 240/649/163 241/650/163 245/651/163
f 240/649/163 245/651/163 244/652/163
f 242/653/164 240/654/164 244/655/164
f 242/653/164 244/655/164 246/656/164
f 247/657/165 245/658/165 241/659/165
f 247/657/165 241/659/165 243/660/165
f 251/661/166 249/662/166 248/663/166
f 251/661/166 248/663/166 250/664/166
f 248/665/167 249/666/167 253/667/167
f 248/665/167 253/667/167 252/668/167
f 250/669/168 248/670/168 252/671/168
f 250/669/168 252/671/168 254/672/168
f 255/673/169 253/674/169 249/675/169
f 255/673/169 249/675/169 251/676/169
f 254/677/170 255/678/170 251/679/170
f 254/677/170 251/679/170 250/680/170
f 259/681/171 257/682/171 256/683/171
f 259/681/171 256/683/171 258/684/171
f 262/685/172 260/686/172 261/687/172
f 262/685/172 261/687/172 263/688/172
f 256/689/173 257/690/173 261/691/173
f 256/689/173 261/691/173 260/692/173
f 258/693/174 256/694/174 260/695/174
f 258/693/174 260/695/174 262/696/174
f 263/697/175 261/698/175 257/699/175
f 263/697/175 257/699/175 259/700/175
f 267/701/176 265/702/176 264/703/176
f 267/701/176 264/703/176 266/704/176
f 270/705/177 268/706/177 269/707/177
f 270/705/177 269/707/177 271/708/177
f 267/709/178 266/710/178 270/711/178
f 267/709/178 270/711/178 271/712/178
f 266/713/179 264/714/179 268/715/179
f 266/713/179 268/715/179 270/716/179
f 271/717/180 269/718/180 265/719/180
f 271/717/180 265/719/180 267/720/180
f 275/721/181 273/722/181 272/723/181
f 275/721/181 272/723/181 274/724/181
f 278/725/182 276/726/182 277/727/182
f 278/725/182 277/727/182 279/728/182
f 274/729/183 272/730/183 276/731/183
f 274/729/183 276/731/183 278/732/183
f 279/733/184 277/734/184 273/735/184
f 279/733/184 273/735/184 275/736/184
f 272/737/185 273/738/185 277/739/185
f 272/737/185 277/739/185 276/740/185
f 283/741/186 281/742/186 280/743/186
f 283/741/186 280/743/186 282/744/186
f 283/745/187 282/746/187 285/747/187
f 283/745/187 285/747/187 286/748/187
f 282/749/188 280/750/188 162/751/188
f 282/749/188 162/751/188 285/752/188
f 286/753/189 284/754/189 281/755/189
f 286/753/189 281/755/189 283/756/189
f 287/757/190 288/758/190 290/759/190
f 287/757/190 290/759/190 289/760/190
f 293/761/191 289/762/191 290/763/191
f 293/761/191 290/763/191 294/764/191
f 291/765/192 287/766/192 289/767/192
f 291/765/192 289/767/192 293/768/192
f 288/769/193 292/770/193 294/771/193
f 288/769/193 294/771/193 290/772/193
usemtl common_table
f 298/773/194 296/774/194 295/775/194
f 298/773/194 295/775/194 297/776/194
f 301/777/195 299/778/195 300/779/195
f 301/777/195 300/779/195 302/780/195
f 298/781/196 297/782/196 301/783/196
f 298/781/196 301/783/196 302/784/196
f 297/785/197 295/786/197 299/787/197
f 297/785/197 299/787/197 301/788/197
f 302/789/198 300/790/198 296/791/198
f 302/789/198 296/791/198 298/792/198
f 306/793/199 304/794/199 303/795/199
f 306/793/199 303/795/199 305/796/199
f 309/797/200 307/798/200 308/799/200
f 309/797/200 308/799/200 310/800/200
f 306/801/201 305/802/201 309/803/201
f 306/801/201 309/803/201 310/804/201
f 305/805/202 303/806/202 307/807/202
f 305/805/202 307/807/202 309/808/202
f 310/809/203 308/810/203 304/811/203
f 310/809/203 304/811/203 306/812/203
f 314/813/204 312/814/204 311/815/204
f 314/813/204 311/815/204 313/816/204
f 317/817/205 315/818/205 316/819/205
f 317/817/205 316/819/205 318/820/205
f 314/821/206 313/822/206 317/823/206
f 314/821/206 317/823/206 318/824/206
f 313/825/207 311/826/207 315/827/207
f 313/825/207 315/827/207 317/828/207
f 318/829/208 316/830/208 312/831/208
f 318/829/208 312/831/208 314/832/208
f 322/833/209 320/834/209 319/835/209
f 322/833/209 319/835/209 321/836/209
f 325/837/210 323/838/210 324/839/210
f 325/837/210 324/839/210 326/840/210
f 322/841/211 321/842/211 325/843/211
f 322/841/211 325/843/211 326/844/211
f 321/845/212 319/846/212 323/847/212
f 321/845/212 323/847/212 325/848/212
f 326/849/213 324/850/213 320/851/213
f 326/849/213 320/851/213 322/852/213
f 329/853/214 327/854/214 22/855/214
f 329/853/214 22/855/214 328/856/214
f 331/857/215 31/858/215 330/859/215
f 331/857/215 330/859/215 332/860/215
f 328/861/216 22/862/216 31/863/216
f 328/861/216 31/863/216 331/864/216
f 332/865/217 330/866/217 327/867/217
f 332/865/217 327/867/217 329/868/217
f 31/869/218 22/870/218 327/871/218
f 31/869/218 327/871/218 330/872/218
f 332/873/219 329/874/219 328/875/219
f 332/873/219 328/875/219 331/876/219
usemtl arithmetic_logic_machine
f 333/877/220 334/878/220 336/879/220
f 333/877/220 336/879/220 335/880/220
f 340/881/221 338/882/221 337/883/221
f 340/881/221 337/883/221 339/884/221
f 343/885/222 341/886/222 342/887/222
f 343/885/222 342/887/222 344/888/222
f 337/889/223 338/890/223 342/891/223
f 337/889/223 342/891/223 341/892/223
f 340/893/224 339/894/224 343/895/224
f 340/893/224 343/895/224 344/896/224
f 344/897/225 342/898/225 338/899/225
f 344/897/225 338/899/225 340/900/225
f 348/901/226 346/902/226 345/903/226
f 348/901/226 345/903/226 347/904/226
f 351/905/227 349/906/227 350/907/227
f 351/905/227 350/907/227 352/908/227
f 345/909/228 346/910/228 350/911/228
f 345/909/228 350/911/228 349/912/228
f 348/913/229 347/914/229 351/915/229
f 348/913/229 351/915/229 352/916/229
f 352/917/230 350/918/230 346/919/230
f 352/917/230 346/919/230 348/920/230
f 356/921/231 354/922/231 353/923/231
f 356/921/231 353/923/231 355/924/231
f 359/925/232 357/926/232 358/927/232
f 359/925/232 358/927/232 360/928/232
f 353/929/233 354/930/233 358/931/233
f 353/929/233 358/931/233 357/932/233
f 356/933/234 355/934/234 359/935/234
f 356/933/234 359/935/234 360/936/234
f 360/937/235 358/938/235 354/939/235
f 360/937/235 354/939/235 356/940/235
f 364/941/236 362/942/236 361/943/236
f 364/941/236 361/943/236 363/944/236
f 367/945/237 365/946/237 366/947/237
f 367/945/237 366/947/237 368/948/237
f 361/949/238 362/950/238 366/951/238
f 361/949/238 366/951/238 365/952/238
f 364/953/239 363/954/239 367/955/239
f 364/953/239 367/955/239 368/956/239
f 368/957/240 366/958/240 362/959/240
f 368/957/240 362/959/240 364/960/240
f 372/961/241 370/962/241 369/963/241
f 372/961/241 369/963/241 371/964/241
f 375/965/242 373/966/242 374/967/242
f 375/965/242 374/967/242 376/968/242
f 369/969/243 370/970/243 374/971/243
f 369/969/243 374/971/243 373/972/243
f 372/973/244 371/974/244 375/975/244
f 372/973/244 375/975/244 376/976/244
f 376/977/245 374/978/245 370/979/245
f 376/977/245 370/979/245 372/980/245
usemtl common_steel
f 377/981/246 116/982/246 115/983/246
f 377/981/246 115/983/246 378/984/246
f 115/985/247 114/986/247 379/987/247
f 115/985/247 379/987/247 378/988/247
f 378/989/248 379/990/248 380/991/248
f 378/989/248 380/991/248 377/992/248
f 377/993/249 380/994/249 117/995/249
f 377/993/249 117/995/249 116/996/249
usemtl common_thingies
f 384/997/250 382/998/250 381/999/250
f 384/997/250 381/999/250 383/1000/250
f 387/1001/251 385/1002/251 386/1003/251
f 387/1001/251 386/1003/251 388/1004/251
f 381/1005/252 382/1006/252 386/1007/252
f 381/1005/252 386/1007/252 385/1008/252
f 384/1009/253 383/1010/253 387/1011/253
f 384/1009/253 387/1011/253 388/1012/253
f 383/1013/254 381/1014/254 385/1015/254
f 383/1013/254 385/1015/254 387/1016/254
f 392/1017/255 390/1018/255 389/1019/255
f 392/1017/255 389/1019/255 391/1020/255
f 389/1021/256 390/1022/256 394/1023/256
f 389/1021/256 394/1023/256 393/1024/256
f 392/1025/257 391/1026/257 395/1027/257
f 392/1025/257 395/1027/257 396/1028/257
f 391/1029/258 389/1030/258 393/1031/258
f 391/1029/258 393/1031/258 395/1032/258
f 396/1033/259 394/1034/259 390/1035/259
f 396/1033/259 390/1035/259 392/1036/259
f 400/1037/260 398/1038/260 397/1039/260
f 400/1037/260 397/1039/260 399/1040/260
f 399/1041/261 397/1042/261 401/1043/261
f 399/1041/261 401/1043/261 403/1044/261
f 404/1045/262 402/1046/262 398/1047/262
f 404/1045/262 398/1047/262 400/1048/262
f 405/1049/263 406/1050/263 410/1051/263
f 405/1049/263 410/1051/263 409/1052/263
f 408/1053/264 407/1054/264 411/1055/264
f 408/1053/264 411/1055/264 412/1056/264
f 407/1057/265 405/1058/265 409/1059/265
f 407/1057/265 409/1059/265 411/1060/265
f 412/1061/266 410/1062/266 406/1063/266
f 412/1061/266 406/1063/266 408/1064/266
f 416/1065/267 414/1066/267 413/1067/267
f 416/1065/267 413/1067/267 415/1068/267
f 415/1069/268 413/1070/268 417/1071/268
f 415/1069/268 417/1071/268 419/1072/268
f 420/1073/269 418/1074/269 414/1075/269
f 420/1073/269 414/1075/269 416/1076/269
usemtl common_copper_cable
f 424/1077/270 422/1078/270 421/1079/270
f 424/1077/270 421/1079/270 423/1080/270
f 427/1081/271 425/1082/271 426/1083/271
f 427/1081/271 426/1083/271 428/1084/271
f 428/1085/272 426/1086/272 422/1087/272
f 428/1085/272 422/1087/272 424/1088/272
usemtl metal
f 432/1089/273 430/1090/273 429/1091/273
f 432/1089/273 429/1091/273 431/1092/273
f 435/1093/274 433/1094/274 434/1095/274
f 435/1093/274 434/1095/274 436/1096/274
f 429/1097/275 430/1098/275 434/1099/275
f 429/1097/275 434/1099/275 433/1100/275
f 432/1101/276 431/1102/276 435/1103/276
f 432/1101/276 435/1103/276 436/1104/276
f 431/1105/277 429/1106/277 433/1107/277
f 431/1105/277 433/1107/277 435/1108/277
f 436/1109/278 434/1110/278 430/1111/278
f 436/1109/278 430/1111/278 432/1112/278
usemtl wooden
f 440/1113/279 438/1114/279 437/1115/279
f 440/1113/279 437/1115/279 439/1116/279
f 443/1117/280 441/1118/280 442/1119/280
f 443/1117/280 442/1119/280 444/1120/280
f 437/1121/281 438/1122/281 442/1123/281
f 437/1121/281 442/1123/281 441/1124/281
f 440/1125/282 439/1126/282 443/1127/282
f 440/1125/282 443/1127/282 444/1128/282
f 439/1129/283 437/1130/283 441/1131/283
f 439/1129/283 441/1131/283 443/1132/283
f 444/1133/284 442/1134/284 438/1135/284
f 444/1133/284 438/1135/284 440/1136/284
usemtl common_thingies
f 408/1137/285 406/1138/285 405/1139/285
f 408/1137/285 405/1139/285 407/1140/285
usemtl common_table
f 36/1141/286 445/1142/286 446/1143/286
f 36/1141/286 446/1143/286 23/1144/286
usemtl common_steel
f 23/1145/287 446/1146/287 447/1147/287
f 23/1145/287 447/1147/287 24/1148/287
usemtl common_table
f 90/1149/288 448/1150/288 445/1151/288
f 90/1149/288 445/1151/288 36/1152/288
usemtl arithmetic_logic_machine
f 449/1153/289 455/1154/289 456/1155/289
f 449/1153/289 456/1155/289 451/1156/289
f 453/1157/290 450/1158/290 452/1159/290
f 453/1157/290 452/1159/290 454/1160/290
f 450/1161/291 449/1162/291 451/1163/291
f 450/1161/291 451/1163/291 452/1164/291
f 455/1165/292 453/1166/292 454/1167/292
f 455/1165/292 454/1167/292 456/1168/292
usemtl common_copper_cable
f 457/1169/293 458/1170/293 462/1171/293
f 457/1169/293 462/1171/293 461/1172/293
f 460/1173/294 459/1174/294 463/1175/294
f 460/1173/294 463/1175/294 464/1176/294
f 459/1177/295 457/1178/295 461/1179/295
f 459/1177/295 461/1179/295 463/1180/295
f 464/1181/296 462/1182/296 458/1183/296
f 464/1181/296 458/1183/296 460/1184/296
f 465/1185/297 466/1186/297 460/1187/297
f 465/1185/297 460/1187/297 459/1188/297
f 468/1189/298 467/1190/298 469/1191/298
f 468/1189/298 469/1191/298 470/1192/298
f 467/1193/299 465/1194/299 459/1195/299
f 467/1193/299 459/1195/299 469/1196/299
f 470/1197/300 460/1198/300 466/1199/300
f 470/1197/300 466/1199/300 468/1200/300
f 471/1201/301 472/1202/301 466/1203/301
f 471/1201/301 466/1203/301 465/1204/301
f 474/1205/302 473/1206/302 467/1207/302
f 474/1205/302 467/1207/302 468/1208/302
f 473/1209/303 471/1210/303 465/1211/303
f 473/1209/303 465/1211/303 467/1212/303
f 468/1213/304 466/1214/304 472/1215/304
f 468/1213/304 472/1215/304 474/1216/304
f 477/1217/305 476/1218/305 479/1219/305
f 477/1217/305 479/1219/305 480/1220/305
f 480/1221/306 478/1222/306 475/1223/306
f 480/1221/306 475/1223/306 477/1224/306
f 483/1225/307 482/1226/307 484/1227/307
f 483/1225/307 484/1227/307 485/1228/307
f 485/1229/308 477/1230/308 481/1231/308
f 485/1229/308 481/1231/308 483/1232/308
f 488/1233/309 487/1234/309 482/1235/309
f 488/1233/309 482/1235/309 483/1236/309
f 483/1237/310 481/1238/310 486/1239/310
f 483/1237/310 486/1239/310 488/1240/310
usemtl common_table
f 492/1241/311 490/1242/311 489/1243/311
f 492/1241/311 489/1243/311 491/1244/311
f 495/1245/312 493/1246/312 494/1247/312
f 495/1245/312 494/1247/312 496/1248/312
f 492/1249/313 491/1250/313 495/1251/313
f 492/1249/313 495/1251/313 496/1252/313
f 496/1253/314 494/1254/314 490/1255/314
f 496/1253/314 490/1255/314 492/1256/314
usemtl common_steel
f 501/1257/315 499/1258/315 500/1259/315
f 501/1257/315 500/1259/315 502/1260/315
f 504/1261/316 505/1262/316 506/1263/316
f 504/1261/316 506/1263/316 498/1264/316
f 503/1265/317 504/1266/317 498/1267/317
f 503/1265/317 498/1267/317 497/1268/317
f 507/1269/318 503/1270/318 497/1271/318
f 507/1269/318 497/1271/318 508/1272/318
f 505/1273/319 507/1274/319 508/1275/319
f 505/1273/319 508/1275/319 506/1276/319
usemtl common_thingies
f 510/1277/320 509/1278/320 511/1279/320
f 510/1277/320 511/1279/320 512/1280/320
f 515/1281/321 513/1282/321 514/1283/321
f 515/1281/321 514/1283/321 516/1284/321
f 513/1285/322 509/1286/322 510/1287/322
f 513/1285/322 510/1287/322 514/1288/322
f 511/1289/323 509/1290/323 513/1291/323
f 511/1289/323 513/1291/323 515/1292/323
f 514/1293/324 510/1294/324 512/1295/324
f 514/1293/324 512/1295/324 516/1296/324
usemtl common_steel
f 505/1297/325 501/1298/325 502/1299/325
f 505/1297/325 502/1299/325 507/1300/325
f 507/1301/326 502/1302/326 500/1303/326
f 507/1301/326 500/1303/326 503/1304/326
f 503/1305/327 500/1306/327 499/1307/327
f 503/1305/327 499/1307/327 504/1308/327
f 504/1309/328 499/1310/328 501/1311/328
f 504/1309/328 501/1311/328 505/1312/328