# Made by Pabilo8 with Blockbench
# Exported with IIToolkit Plugin on 03/06/2026
mtllib arithmetic_logic_machine.mtl

o keyboard_door
v 0.8125 0.3141 0.0625
v 0.8125 0.3141 0
v 0.8125 -0.0062 0.0625
v 0.8125 -0.0062 0
v -0.1875 0.3141 0.0625
v -0.1875 0.3141 0
v -0.1875 -0.0062 0.0625
v -0.1875 -0.0062 0
vt 0.0469 0.6875
vt 0.0469 0.7656
vt 0.0313 0.7656
vt 0.0313 0.6875
vt 0.2813 0.6875
vt 0.2813 0.7656
vt 0.2656 0.7656
vt 0.2656 0.6875
vt 0.2813 0.75
vt 0.2813 0.7656
vt 0.0313 0.7656
vt 0.0313 0.75
vt 0.2813 0.6875
vt 0.2813 0.7031
vt 0.0313 0.7031
vt 0.0313 0.6875
vt 0.2813 0.6875
vt 0.2813 0.7656
vt 0.0313 0.7656
vt 0.0313 0.6875
vt 0.0313 0.6875
vt 0.0313 0.7656
vt 0.2813 0.7656
vt 0.2813 0.6875
vn 1 0 0
vn -1 0 0
vn 0 1 0
vn 0 -1 0
vn 0 0 1
vn 0 0 -1
usemtl arithmetic_logic_machine
f 4/1/1 2/2/1 1/3/1 3/4/1
f 7/5/2 5/6/2 6/7/2 8/8/2
f 1/9/3 2/10/3 6/11/3 5/12/3
f 4/13/4 3/14/4 7/15/4 8/16/4
f 3/17/5 1/18/5 5/19/5 7/20/5
f 8/21/6 6/22/6 2/23/6 4/24/6
o keyboard
v 0.7188 0.2656 0.7813
v 0.7188 0.2656 0.4688
v 0.7188 0.2031 0.7813
v 0.7188 0.2031 0.4688
v 0.1563 0.2656 0.7813
v 0.1563 0.2656 0.4688
v 0.1563 0.2031 0.7813
v 0.1563 0.2031 0.4688
v 0.4375 0.2188 0.875
v 0.4375 0.2188 0.8125
v 0.4375 0.0313 0.875
v 0.4375 0.0313 0.8125
v 0.25 0.2188 0.875
v 0.25 0.2188 0.8125
v 0.25 0.0313 0.875
v 0.25 0.0313 0.8125
v 0.4063 0.1875 1.4375
v 0.4063 0.1875 0.875
v 0.4063 0.0625 1.4375
v 0.4063 0.0625 0.875
v 0.2813 0.1875 1.4375
v 0.2813 0.1875 0.875
v 0.2813 0.0625 1.4375
v 0.2813 0.0625 0.875
v 0.6875 0.2188 0.875
v 0.6875 0.2188 0.8125
v 0.6875 0.0313 0.875
v 0.6875 0.0313 0.8125
v 0.5 0.2188 0.875
v 0.5 0.2188 0.8125
v 0.5 0.0313 0.875
v 0.5 0.0313 0.8125
v 0.6563 0.1875 1.4375
v 0.6563 0.1875 0.875
v 0.6563 0.0625 1.4375
v 0.6563 0.0625 0.875
v 0.5313 0.1875 1.4375
v 0.5313 0.1875 0.875
v 0.5313 0.0625 1.4375
v 0.5313 0.0625 0.875
v 0.75 0.2789 0.4209
v 0.75 0.137 0.1425
v 0.75 0.2232 0.4493
v -0.125 0.2789 0.4209
v -0.125 0.137 0.1425
v -0.125 0.2232 0.4493
v -0.125 0.0813 0.1709
v 0.0625 0.137 0.1425
v 0.0625 0.0813 0.1709
v -0.125 0.137 0.1425
v -0.125 0.0813 0.1709
v 0.75 0.137 0.1425
v 0.75 0.1086 0.0868
v 0.75 0.0529 0.1152
v 0.0625 0.137 0.1425
v 0.0625 0.1086 0.0868
v 0.0625 0.0813 0.1709
v 0.0625 0.0529 0.1152
v 0.0625 0.1086 0.0868
v 0.0625 0.0803 0.0311
v 0.0625 0.0529 0.1152
v 0.0625 0.0246 0.0595
v -0.125 0.1086 0.0868
v -0.125 0.0803 0.0311
v -0.125 0.0529 0.1152
v -0.125 0.0246 0.0595
v 0 0.137 0.1425
v 0 0.1086 0.0868
v 0 0.0813 0.1709
v 0 0.0529 0.1152
v -0.0625 0.137 0.1425
v -0.0625 0.1086 0.0868
v -0.0625 0.0813 0.1709
v -0.0625 0.0529 0.1152
v 0.75 0.2188 0.8125
v 0.75 0.2188 0.4375
v 0.75 0.0313 0.8125
v 0.75 0.0313 0.0625
v -0.125 0.2188 0.8125
v -0.125 0.2188 0.4375
v -0.125 0.0313 0.8125
v -0.125 0.0313 0.0625
v 0.8125 0.1875 1.4375
v 0.8125 0.1875 0.4375
v 0.8125 0.0625 1.4375
v 0.8125 0.0625 0.4375
v 0.75 0.1875 1.4375
v 0.75 0.1875 0.4375
v 0.75 0.0625 1.4375
v 0.75 0.0625 0.4375
v -0.125 0.1875 1.4375
v -0.125 0.1875 0.4375
v -0.125 0.0625 1.4375
v -0.125 0.0625 0.4375
v -0.1875 0.1875 1.4375
v -0.1875 0.1875 0.4375
v -0.1875 0.0625 1.4375
v -0.1875 0.0625 0.4375
vt 0.5625 0.8438
vt 0.5938 0.8438
vt 0.5938 1
vt 0.5625 1
vt 0.8125 0.8438
vt 0.8438 0.8438
vt 0.8438 1
vt 0.8125 1
vt 0.8438 0.8438
vt 0.8438 1
vt 0.5625 1
vt 0.5625 0.8438
vt 0.8438 0.9688
vt 0.8438 1
vt 0.5625 1
vt 0.5625 0.9688
vt 0.8438 0.8438
vt 0.8438 0.875
vt 0.5625 0.875
vt 0.5625 0.8438
vt 0.5156 0.7188
vt 0.5156 0.7656
vt 0.5 0.7656
vt 0.5 0.7188
vt 0.4844 0.7188
vt 0.4844 0.7656
vt 0.4688 0.7656
vt 0.4688 0.7188
vt 0.5156 0.75
vt 0.5156 0.7656
vt 0.4688 0.7656
vt 0.4688 0.75
vt 0.5156 0.7188
vt 0.5156 0.7344
vt 0.4688 0.7344
vt 0.4688 0.7188
vt 0.5156 0.7188
vt 0.5156 0.7656
vt 0.4688 0.7656
vt 0.4688 0.7188
vt 0.5625 1
vt 0.6875 1
vt 0.6875 0.4375
vt 0.5625 0.4375
vt 0.6875 0.4375
vt 0.5625 0.4375
vt 0.5625 1
vt 0.6875 1
vt 0.6875 0.4375
vt 0.6875 1
vt 0.5625 1
vt 0.5625 0.4375
vt 0.5625 1
vt 0.5625 0.4375
vt 0.6875 0.4375
vt 0.6875 1
vt 0.5156 0.7188
vt 0.5156 0.7656
vt 0.5 0.7656
vt 0.5 0.7188
vt 0.4844 0.7188
vt 0.4844 0.7656
vt 0.4688 0.7656
vt 0.4688 0.7188
vt 0.5156 0.75
vt 0.5156 0.7656
vt 0.4688 0.7656
vt 0.4688 0.75
vt 0.5156 0.7188
vt 0.5156 0.7344
vt 0.4688 0.7344
vt 0.4688 0.7188
vt 0.5156 0.7188
vt 0.5156 0.7656
vt 0.4688 0.7656
vt 0.4688 0.7188
vt 0.5625 1
vt 0.6875 1
vt 0.6875 0.4375
vt 0.5625 0.4375
vt 0.6875 0.4375
vt 0.5625 0.4375
vt 0.5625 1
vt 0.6875 1
vt 0.6875 0.4375
vt 0.6875 1
vt 0.5625 1
vt 0.5625 0.4375
vt 0.5625 1
vt 0.5625 0.4375
vt 0.6875 0.4375
vt 0.6875 1
vt 0.7813 0.7188
vt 0.7813 0.6406
vt 1 0.6406
vt 1 0.7188
vt 0.7813 0.7031
vt 0.7813 0.7188
vt 1 0.7188
vt 1 0.7031
vt 1 0.7188
vt 0.9844 0.7188
vt 0.9844 0.6406
vt 1 0.6406
vt 1 0.6406
vt 1 0.6563
vt 0.9531 0.6563
vt 0.9531 0.6406
vt 0.9531 0.625
vt 0.9531 0.6406
vt 0.9375 0.6406
vt 0.9375 0.625
vt 0.7813 0.625
vt 0.7813 0.6406
vt 0.9531 0.6406
vt 0.9531 0.625
vt 0.9531 0.625
vt 0.9531 0.6406
vt 0.7813 0.6406
vt 0.7813 0.625
vt 0.9688 0.6094
vt 0.9688 0.625
vt 0.9531 0.625
vt 0.9531 0.6094
vt 1 0.6094
vt 1 0.625
vt 0.9531 0.625
vt 0.9531 0.6094
vt 1 0.6094
vt 1 0.625
vt 0.9531 0.625
vt 0.9531 0.6094
vt 1 0.6094
vt 1 0.625
vt 0.9531 0.625
vt 0.9531 0.6094
vt 1 0.625
vt 0.9844 0.625
vt 0.9844 0.6094
vt 1 0.6094
vt 0.9844 0.625
vt 0.9844 0.6406
vt 0.9688 0.6406
vt 0.9688 0.625
vt 0.9844 0.625
vt 0.9844 0.6406
vt 0.9688 0.6406
vt 0.9688 0.625
vt 0.9844 0.625
vt 0.9844 0.6406
vt 0.9688 0.6406
vt 0.9688 0.625
vt 0.7813 0.625
vt 0.7813 0.7188
vt 0.7969 0.7188
vt 0.7969 0.625
vt 0.4375 0.625
vt 0.5313 0.8125
vt 0.5313 1
vt 0.4375 1
vt 0.4375 1
vt 0.5313 1
vt 0.5313 0.8125
vt 0.4375 0.625
vt 0.4375 0.8125
vt 0.4375 1
vt 0 1
vt 0 0.8125
vt 0.4375 0.625
vt 0.4375 1
vt 0 1
vt 0 0.625
vt 0.4688 0.0313
vt 0.4688 0.125
vt 0.0313 0.125
vt 0.0313 0.0313
vt 0.4375 0.625
vt 0.4375 0.8438
vt 0 0.8438
vt 0 0.625
vt 0.875 0.5
vt 0.9375 0.5
vt 0.9375 1
vt 0.875 1
vt 0.875 0.5
vt 0.9375 0.5
vt 0.9375 1
vt 0.875 1
vt 0.9375 0.5
vt 0.9375 1
vt 0.9063 1
vt 0.9063 0.5
vt 0.9063 0.5
vt 0.9063 1
vt 0.875 1
vt 0.875 0.5
vt 0.875 0.9688
vt 0.9375 0.9688
vt 0.9375 1
vt 0.875 1
vt 0.875 0.9688
vt 0.9375 0.9688
vt 0.9375 1
vt 0.875 1
vt 0.875 0.5
vt 0.9375 0.5
vt 0.9375 1
vt 0.875 1
vt 0.875 0.5
vt 0.9375 0.5
vt 0.9375 1
vt 0.875 1
vt 0.9375 0.5
vt 0.9375 1
vt 0.9063 1
vt 0.9063 0.5
vt 0.9063 0.5
vt 0.9063 1
vt 0.875 1
vt 0.875 0.5
vt 0.875 0.5313
vt 0.9375 0.5313
vt 0.9375 0.5625
vt 0.875 0.5625
vt 0.875 0.9375
vt 0.9375 0.9375
vt 0.9375 0.9688
vt 0.875 0.9688
vn 1 0 0
vn -1 0 0
vn 0 1 0
vn 0 0 1
vn 0 0 -1
vn 1 0 0
vn -1 0 0
vn 0 1 0
vn 0 -1 0
vn 0 0 1
vn 1 0 0
vn -1 0 0
vn 0 1 0
vn 0 -1 0
vn 1 0 0
vn -1 0 0
vn 0 1 0
vn 0 -1 0
vn 0 0 1
vn 1 0 0
vn -1 0 0
vn 0 1 0
vn 0 -1 0
vn 0 0.89 -0.45
vn 0 0.45 0.89
vn -1 0 0
vn 0 -0.45 -0.89
vn -1 0 0
vn 0 0.89 -0.45
vn 0 -0.45 -0.89
vn 1 0 0
vn 0 0.89 -0.45
vn 0 0.45 0.89
vn 0 -0.45 -0.89
vn -1 0 0
vn 1 0 0
vn -1 0 0
vn 0 0.89 -0.45
vn 1 0 0
vn 1 0 0
vn -1 0 0
vn 0 1 0
vn 0 -1 0
vn 0 0 1
vn 0 0.89 -0.45
vn 1 0 0
vn -1 0 0
vn 0 1 0
vn 0 -1 0
vn 0 0 1
vn 0 0 -1
vn 1 0 0
vn -1 0 0
vn 0 1 0
vn 0 -1 0
vn 0 0 1
vn 0 0 -1
usemtl typewriter_red
f 12/25/7 10/26/7 9/27/7 11/28/7
f 15/29/8 13/30/8 14/31/8 16/32/8
f 9/33/9 10/34/9 14/35/9 13/36/9
f 11/37/10 9/38/10 13/39/10 15/40/10
f 16/41/11 14/42/11 10/43/11 12/44/11
usemtl arithmetic_logic_machine
f 20/45/12 18/46/12 17/47/12 19/48/12
f 23/49/13 21/50/13 22/51/13 24/52/13
f 17/53/14 18/54/14 22/55/14 21/56/14
f 20/57/15 19/58/15 23/59/15 24/60/15
f 19/61/16 17/62/16 21/63/16 23/64/16
usemtl common_copper_cable
f 28/65/17 26/66/17 25/67/17 27/68/17
f 31/69/18 29/70/18 30/71/18 32/72/18
f 25/73/19 26/74/19 30/75/19 29/76/19
f 28/77/20 27/78/20 31/79/20 32/80/20
usemtl arithmetic_logic_machine
f 36/81/21 34/82/21 33/83/21 35/84/21
f 39/85/22 37/86/22 38/87/22 40/88/22
f 33/89/23 34/90/23 38/91/23 37/92/23
f 36/93/24 35/94/24 39/95/24 40/96/24
f 35/97/25 33/98/25 37/99/25 39/100/25
usemtl common_copper_cable
f 44/101/26 42/102/26 41/103/26 43/104/26
f 47/105/27 45/106/27 46/107/27 48/108/27
f 41/109/28 42/110/28 46/111/28 45/112/28
f 44/113/29 43/114/29 47/115/29 48/116/29
usemtl common_thingies
f 49/117/30 50/118/30 53/119/30 52/120/30
f 51/121/31 49/122/31 52/123/31 54/124/31
f 54/125/32 52/126/32 53/127/32 55/128/32
f 59/129/33 58/130/33 56/131/33 57/132/33
f 65/133/34 63/134/34 64/135/34 66/136/34
f 60/137/35 61/138/35 64/139/35 63/140/35
f 66/141/36 64/142/36 61/143/36 62/144/36
f 70/145/37 68/146/37 67/147/37 69/148/37
f 67/149/38 68/150/38 72/151/38 71/152/38
f 69/153/39 67/154/39 71/155/39 73/156/39
f 74/157/40 72/158/40 68/159/40 70/160/40
f 71/161/41 72/162/41 74/163/41 73/164/41
f 78/165/42 76/166/42 75/167/42 77/168/42
f 81/169/43 79/170/43 80/171/43 82/172/43
f 75/173/44 76/174/44 80/175/44 79/176/44
f 61/177/45 49/178/45 51/179/45 62/180/45
usemtl typewriter_red
f 86/181/46 84/182/46 83/183/46 85/184/46
f 89/185/47 87/186/47 88/187/47 90/188/47
f 83/189/48 84/190/48 88/191/48 87/192/48
f 86/193/49 85/194/49 89/195/49 90/196/49
f 85/197/50 83/198/50 87/199/50 89/200/50
f 90/201/51 88/202/51 84/203/51 86/204/51
f 94/205/52 92/206/52 91/207/52 93/208/52
f 97/209/53 95/210/53 96/211/53 98/212/53
f 91/213/54 92/214/54 96/215/54 95/216/54
f 94/217/55 93/218/55 97/219/55 98/220/55
f 93/221/56 91/222/56 95/223/56 97/224/56
f 98/225/57 96/226/57 92/227/57 94/228/57
f 102/229/58 100/230/58 99/231/58 101/232/58
f 105/233/59 103/234/59 104/235/59 106/236/59
f 99/237/60 100/238/60 104/239/60 103/240/60
f 102/241/61 101/242/61 105/243/61 106/244/61
f 101/245/62 99/246/62 103/247/62 105/248/62
f 106/249/63 104/250/63 100/251/63 102/252/63
o keyboard_button
v -0.5625 0.2344 0
v -0.5625 0.2344 -0.0625
v -0.5625 0.1094 0
v -0.5625 0.1094 -0.0625
v -0.6875 0.2344 0
v -0.6875 0.2344 -0.0625
v -0.6875 0.1094 0
v -0.6875 0.1094 -0.0625
vt 0.7344 0.6094
vt 0.7344 0.6406
vt 0.75 0.6406
vt 0.75 0.6094
vt 0.7188 0.6094
vt 0.7188 0.6406
vt 0.7344 0.6406
vt 0.7344 0.6094
vt 0.75 0.6406
vt 0.75 0.625
vt 0.7188 0.625
vt 0.7188 0.6406
vt 0.75 0.6094
vt 0.75 0.625
vt 0.7188 0.625
vt 0.7188 0.6094
vt 0.7188 0.6094
vt 0.7188 0.6406
vt 0.75 0.6406
vt 0.75 0.6094
vn 1 0 0
vn -1 0 0
vn 0 1 0
vn 0 -1 0
vn 0 0 -1
usemtl arithmetic_logic_machine
f 110/253/64 108/254/64 107/255/64 109/256/64
f 113/257/65 111/258/65 112/259/65 114/260/65
f 107/261/66 108/262/66 112/263/66 111/264/66
f 110/265/67 109/266/67 113/267/67 114/268/67
f 114/269/68 112/270/68 108/271/68 110/272/68
o drawer
v 0.4375 -0.25 -0.9375
v 0.4375 -0.25 -1
v 0.4375 -0.375 -0.9375
v 0.4375 -0.375 -1
v 0.3125 -0.25 -0.9375
v 0.3125 -0.25 -1
v 0.3125 -0.375 -0.9375
v 0.3125 -0.375 -1
v 0.75 -0.1875 -0.875
v 0.75 -0.1875 -0.9375
v 0.75 -0.4375 -0.875
v 0.75 -0.4375 -0.9375
v 0 -0.1875 -0.875
v 0 -0.1875 -0.9375
v 0 -0.4375 -0.875
v 0 -0.4375 -0.9375
v 0.7188 -0.3437 -0.375
v 0.7188 -0.3437 -0.875
v 0.7188 -0.4062 -0.375
v 0.7188 -0.4062 -0.875
v 0.0313 -0.3437 -0.375
v 0.0313 -0.3437 -0.875
v 0.0313 -0.4062 -0.375
v 0.0313 -0.4062 -0.875
v 0.0938 -0.2187 -0.375
v 0.0938 -0.2187 -0.875
v 0.0938 -0.3437 -0.375
v 0.0938 -0.3437 -0.875
v 0.0313 -0.2187 -0.375
v 0.0313 -0.2187 -0.875
v 0.0313 -0.3437 -0.375
v 0.0313 -0.3437 -0.875
v 0.7188 -0.2187 -0.375
v 0.7188 -0.2187 -0.875
v 0.7188 -0.3437 -0.375
v 0.7188 -0.3437 -0.875
v 0.6563 -0.2187 -0.375
v 0.6563 -0.2187 -0.875
v 0.6563 -0.3437 -0.375
v 0.6563 -0.3437 -0.875
vt 0.9844 0.2813
vt 0.9844 0.3125
vt 1 0.3125
vt 1 0.2813
vt 0.9688 0.2813
vt 0.9688 0.3125
vt 0.9844 0.3125
vt 0.9844 0.2813
vt 1 0.3125
vt 1 0.2969
vt 0.9688 0.2969
vt 0.9688 0.3125
vt 1 0.2813
vt 1 0.2969
vt 0.9688 0.2969
vt 0.9688 0.2813
vt 0.9688 0.2813
vt 0.9688 0.3125
vt 1 0.3125
vt 1 0.2813
vt 0.8125 0.3906
vt 0.8125 0.4531
vt 0.7969 0.4531
vt 0.7969 0.3906
vt 0.9844 0.3906
vt 0.9844 0.4531
vt 0.9688 0.4531
vt 0.9688 0.3906
vt 0.7813 0.25
vt 0.7656 0.25
vt 0.7656 0.0625
vt 0.7813 0.0625
vt 1 0.25
vt 0.9844 0.25
vt 0.9844 0.0625
vt 1 0.0625
vt 0.9844 0.3906
vt 0.9844 0.4531
vt 0.7969 0.4531
vt 0.7969 0.3906
vt 0.9844 0.3906
vt 0.9844 0.4531
vt 0.7969 0.4531
vt 0.7969 0.3906
vt 0.9688 0.25
vt 0.9531 0.25
vt 0.9531 0.125
vt 0.9688 0.125
vt 0.8125 0.125
vt 0.7969 0.125
vt 0.7969 0.25
vt 0.8125 0.25
vt 0.9688 0.25
vt 0.9688 0.375
vt 0.7969 0.375
vt 0.7969 0.25
vt 0.9688 0.25
vt 0.9688 0.125
vt 0.7969 0.125
vt 0.7969 0.25
vt 0.9375 0.0781
vt 0.9375 0.0938
vt 0.7656 0.0938
vt 0.7656 0.0781
vt 0.8281 0.375
vt 0.7969 0.375
vt 0.7969 0.25
vt 0.8281 0.25
vt 0.8281 0.375
vt 0.7969 0.375
vt 0.7969 0.25
vt 0.8281 0.25
vt 0.7969 0.375
vt 0.7969 0.25
vt 0.8125 0.25
vt 0.8125 0.375
vt 0.9375 0.375
vt 0.9688 0.375
vt 0.9688 0.25
vt 0.9375 0.25
vt 0.9375 0.375
vt 0.9688 0.375
vt 0.9688 0.25
vt 0.9375 0.25
vt 0.9531 0.375
vt 0.9531 0.25
vt 0.9375 0.25
vt 0.9375 0.375
vn 1 0 0
vn -1 0 0
vn 0 1 0
vn 0 -1 0
vn 0 0 -1
vn 1 0 0
vn -1 0 0
vn 0 1 0
vn 0 -1 0
vn 0 0 1
vn 0 0 -1
vn 1 0 0
vn -1 0 0
vn 0 1 0
vn 0 -1 0
vn 0 0 -1
vn 1 0 0
vn -1 0 0
vn 0 1 0
vn 1 0 0
vn -1 0 0
vn 0 1 0
usemtl common_table
f 118/273/69 116/274/69 115/275/69 117/276/69
f 121/277/70 119/278/70 120/279/70 122/280/70
f 115/281/71 116/282/71 120/283/71 119/284/71
f 118/285/72 117/286/72 121/287/72 122/288/72
f 122/289/73 120/290/73 116/291/73 118/292/73
f 126/293/74 124/294/74 123/295/74 125/296/74
f 129/297/75 127/298/75 128/299/75 130/300/75
f 123/301/76 124/302/76 128/303/76 127/304/76
f 126/305/77 125/306/77 129/307/77 130/308/77
f 125/309/78 123/310/78 127/311/78 129/312/78
f 130/313/79 128/314/79 124/315/79 126/316/79
f 134/317/80 132/318/80 131/319/80 133/320/80
f 137/321/81 135/322/81 136/323/81 138/324/81
f 131/325/82 132/326/82 136/327/82 135/328/82
f 134/329/83 133/330/83 137/331/83 138/332/83
f 138/333/84 136/334/84 132/335/84 134/336/84
f 142/337/85 140/338/85 139/339/85 141/340/85
f 145/341/86 143/342/86 144/343/86 146/344/86
f 139/345/87 140/346/87 144/347/87 143/348/87
f 150/349/88 148/350/88 147/351/88 149/352/88
f 153/353/89 151/354/89 152/355/89 154/356/89
f 147/357/90 148/358/90 152/359/90 151/360/90
o activity_lamp
v -0.5094 1.85 0.1281
v -0.5094 1.85 0.0219
v -0.5094 1.7125 0.1281
v -0.5094 1.7125 0.0219
v -0.6469 1.85 0.1281
v -0.6469 1.85 0.0219
v -0.6469 1.7125 0.1281
v -0.6469 1.7125 0.0219
vt 0.6797 0.7813
vt 0.6797 0.8125
vt 0.6563 0.8125
vt 0.6563 0.7813
vt 0.6875 0.7813
vt 0.6875 0.8125
vt 0.6641 0.8125
vt 0.6641 0.7813
vt 0.6875 0.7891
vt 0.6875 0.8125
vt 0.6563 0.8125
vt 0.6563 0.7891
vt 0.6875 0.7813
vt 0.6875 0.8047
vt 0.6563 0.8047
vt 0.6563 0.7813
vt 0.6875 0.7813
vt 0.6875 0.8125
vt 0.6563 0.8125
vt 0.6563 0.7813
vn 1 0 0
vn -1 0 0
vn 0 1 0
vn 0 -1 0
vn 0 0 -1
usemtl arithmetic_logic_machine
f 158/361/91 156/362/91 155/363/91 157/364/91
f 161/365/92 159/366/92 160/367/92 162/368/92
f 155/369/93 156/370/93 160/371/93 159/372/93
f 158/373/94 157/374/94 161/375/94 162/376/94
f 162/377/95 160/378/95 156/379/95 158/380/95
o preview
v -1.3217 1.9375 -0.8711
v -1.1782 1.9375 -0.5246
v -1.3217 1.625 -0.8711
v -1.1782 1.625 -0.5246
v -1.3756 0.25 -0.9171
v -0.9929 0.25 0.0067
v -1.3178 1.625 -0.9411
v -0.9351 1.625 -0.0172
v -1.3178 0.25 -0.9411
v -0.9351 0.25 -0.0172
v -1.2081 2 -0.5129
v -0.9929 2 0.0067
v -1.2081 1.625 -0.5129
v -0.9929 1.625 0.0067
v -1.1504 2 -0.5369
v -0.9351 2 -0.0172
v -1.1504 1.625 -0.5369
v -1.3756 2 -0.9171
v -1.3517 2 -0.8594
v -1.3756 1.625 -0.9171
v -1.3517 1.625 -0.8594
v -1.3178 2 -0.9411
v -1.2939 2 -0.8833
v -1.2939 1.625 -0.8833
v -1.3517 1.9375 -0.8594
v -1.2081 1.9375 -0.5129
v -1.2939 1.9375 -0.8833
v -1.1504 1.9375 -0.5369
v -0.9929 0.9375 0.0067
v -1.3756 0.9375 -0.9171
v 0.9732 2 0.0128
v 1.4349 2 -0.8743
v 0.9732 0.25 0.0128
v 1.4349 0.25 -0.8743
v 0.9178 2 -0.0161
v 1.3795 2 -0.9031
v 0.9178 0.25 -0.0161
v 1.3795 0.25 -0.9031
v 1.4349 1.125 -0.8743
v 0.9732 1.125 0.0128
v 0.9178 1.125 -0.0161
v 1.3795 1.125 -0.9031
vt 0.6719 0
vt 0.5938 0
vt 0.5938 0.0938
vt 0.6719 0.0938
vt 0.6719 0.0938
vt 0.5938 0.0938
vt 0.5938 0
vt 0.6719 0
vt 1 0.25
vt 1 0.5938
vt 0.75 0.5938
vt 0.75 0.25
vt 1 0.9063
vt 1 1
vt 0.8594 1
vt 0.8594 0.9063
vt 0.8594 0.9063
vt 0.8594 1
vt 1 1
vt 1 0.9063
vt 0.875 0.9063
vt 0.875 1
vt 0.8594 1
vt 0.8594 0.9063
vt 0.7656 0.8438
vt 0.7656 0.9375
vt 0.75 0.9375
vt 0.75 0.8438
vt 0.7656 0.9063
vt 0.7656 1
vt 0.75 1
vt 0.75 0.9063
vt 0.7656 0.9063
vt 0.7656 1
vt 0.75 1
vt 0.75 0.9063
vt 0.8594 0.9844
vt 0.8594 1
vt 0.7656 1
vt 0.7656 0.9844
vt 0.8594 0.9844
vt 0.8594 1
vt 0.7656 1
vt 0.7656 0.9844
vt 0.7656 1
vt 0.8594 1
vt 0.8594 0.9844
vt 0.7656 0.9844
vt 0.875 0.9031
vt 0.875 0.9188
vt 0.8594 0.9188
vt 0.8594 0.9031
vt 0.7656 0.5
vt 0.7656 0.9375
vt 0.75 0.9375
vt 0.75 0.5
vt 0.8594 0.9219
vt 0.7656 0.9219
vt 0.7656 0.9063
vt 0.8594 0.9063
vt 1 0.5
vt 1 0.9375
vt 0.9844 0.9375
vt 0.9844 0.5
vt 0.75 1
vt 1 1
vt 1 0.9844
vt 0.75 0.9844
vt 1 0.5156
vt 0.75 0.5156
vt 0.75 0.5
vt 1 0.5
vt 0.75 0.6094
vt 0.75 0.4375
vt 1 0.4375
vt 1 0.6094
vt 1 0.25
vt 1 0.4219
vt 0.75 0.4219
vt 0.75 0.25
vt 0.75 1
vt 0.75 0.7813
vt 1 0.7813
vt 1 1
vt 0.75 1
vt 0.75 0.7813
vt 1 0.7813
vt 1 1
vt 1 1
vt 0.75 1
vt 0.75 0.9844
vt 1 0.9844
vt 1 0.2656
vt 0.75 0.2656
vt 0.75 0.25
vt 1 0.25
vt 0.75 1
vt 0.75 0.7813
vt 0.7656 0.7813
vt 0.7656 1
vt 0.9844 1
vt 0.9844 0.7813
vt 1 0.7813
vt 1 1
vt 1 0.25
vt 1 0.4688
vt 0.75 0.4688
vt 0.75 0.25
vt 0.7656 0.25
vt 0.7656 0.4688
vt 0.75 0.4688
vt 0.75 0.25
vt 1 0.25
vt 1 0.4688
vt 0.75 0.4688
vt 0.75 0.25
vt 1 0.25
vt 1 0.4688
vt 0.9844 0.4688
vt 0.9844 0.25
vn -0.92 0 0.38
vn 0.92 0 -0.38
vn 0.92 0 -0.38
vn -0.92 0 0.38
vn 0.92 0 -0.38
vn -0.38 0 -0.92
vn -0.92 0 0.38
vn 0.92 0 -0.38
vn 0.38 0 0.92
vn -0.92 0 0.38
vn 0.92 0 -0.38
vn 0 -1 0
vn 0.38 0 0.92
vn -0.38 0 -0.92
vn 0 1 0
vn 0.38 0 0.92
vn 0 1 0
vn 0 -1 0
vn -0.92 0 0.38
vn -0.92 0 0.38
vn 0.89 0 0.46
vn -0.89 0 -0.46
vn 0 1 0
vn 0 -1 0
vn -0.46 0 0.89
vn 0.46 0 -0.89
vn 0.89 0 0.46
vn -0.46 0 0.89
vn -0.89 0 -0.46
vn 0.46 0 -0.89
usemtl arithmetic_logic_machine
f 166/381/96 164/382/96 163/383/96 165/384/96
f 165/385/97 163/386/97 164/387/97 166/388/97
usemtl common_steel
f 171/389/98 169/390/98 170/391/98 172/392/98
f 176/393/99 174/394/99 173/395/99 175/396/99
f 179/397/100 177/398/100 178/399/100 170/400/100
f 175/401/101 173/402/101 177/403/101 179/404/101
f 183/405/102 181/406/102 180/407/102 182/408/102
f 169/409/103 184/410/103 185/411/103 186/412/103
f 186/413/104 185/414/104 181/415/104 183/416/104
f 188/417/105 173/418/105 181/419/105 187/420/105
f 189/421/106 185/422/106 177/423/106 190/424/106
f 188/425/107 187/426/107 189/427/107 190/428/107
f 190/429/108 177/430/108 173/431/108 188/432/108
f 167/433/109 180/434/109 184/435/109 171/436/109
f 183/437/110 175/438/110 179/439/110 186/440/110
f 172/441/111 178/442/111 174/443/111 168/444/111
f 180/445/112 174/446/112 178/447/112 184/448/112
f 168/449/113 167/450/113 171/451/113 172/452/113
f 182/453/114 192/454/114 191/455/114 176/456/114
f 168/457/115 191/458/115 192/459/115 167/460/115
f 193/461/116 202/462/116 201/463/116 194/464/116
f 198/465/117 204/466/117 203/467/117 197/468/117
f 193/469/118 194/470/118 198/471/118 197/472/118
f 196/473/119 195/474/119 199/475/119 200/476/119
f 197/477/120 203/478/120 202/479/120 193/480/120
f 194/481/121 201/482/121 204/483/121 198/484/121
f 196/485/122 201/486/122 202/487/122 195/488/122
f 195/489/123 202/490/123 203/491/123 199/492/123
f 199/493/124 203/494/124 204/495/124 200/496/124
f 200/497/125 204/498/125 201/499/125 196/500/125
o flipped
v 0.1917 -0.375 -0.1594
v 0.0142 -0.375 -0.7587
v 0.1917 -0.6875 -0.1594
v 0.0142 -0.6875 -0.7587
v -0.6473 -0.375 0.0891
v -0.8248 -0.375 -0.5102
v -0.6473 -0.6875 0.0891
v -0.8248 -0.6875 -0.5102
v -0.75 0.2344 0
v -0.75 0.2344 -0.0625
v -0.75 0.1094 0
v -0.75 0.1094 -0.0625
v -0.875 0.2344 0
v -0.875 0.2344 -0.0625
v -0.875 0.1094 0
v -0.875 0.1094 -0.0625
v 1 2 1
v 1 2 0
v -1 2 1
v -1 2 0
v 1 1.9375 0
v 1 0 0
v 0.9375 1.9375 0.9375
v 0.9375 1.9375 0
v 0.9375 0 0.9375
v 0.9375 0 0
v -0.9375 1.9375 0.9375
v -0.9375 1.9375 0
v -0.9375 0 0
v -1 1.9375 0
v -1 0 0
v 1 0 1
v -1 0 1
v -0.9375 0 0.9375
v -0.9375 0.9688 0.9375
v 0.9375 0.9688 0.9375
v 1 1.375 2
v 1 1.375 1
v 1 -0.375 2
v 1 -0.375 1
v 0 1.375 2
v 0 -0.375 2
v 1 1.9375 2
v 1 1.9375 1.875
v 1 1.375 1.875
v 0.875 1.9375 2
v 0.9375 1.9375 1.9375
v 0.875 1.375 2
v 0.9375 1.375 1.9375
v 0.125 1.9375 2
v 0.125 1.9375 1.9375
v 0.125 1.375 2
v 0.125 1.375 1.9375
v 0 1.9375 2
v 1 1.9375 1.125
v 1 1.9375 1
v 1 1.375 1.125
v 0.9375 1.9375 1.125
v 0.9375 1.375 1.125
v 1 -0.375 1.125
v 1 -0.6875 1.125
v 1 -0.6875 1
v 0.9375 -0.375 1.125
v 0.9375 -0.6875 1.125
v 1 -0.375 1.875
v 1 -0.6875 2
v 1 -0.6875 1.875
v 0.875 -0.375 2
v 0.9375 -0.375 1.9375
v 0.875 -0.6875 2
v 0.9375 -0.6875 1.9375
v 0.125 -0.375 2
v 0.125 -0.375 1.9375
v 0.125 -0.6875 2
v 0.125 -0.6875 1.9375
v 0 -0.6875 2
v 1 2 2
v 0 2 2
v 0 2 1
v 1 -1 2
v 1 -1 1
v 0 -1 2
v 0 -1 1
v 0 1 2
v 0 1 1
v -1 1 2
v -1 1 1
v -1 -1 2
v -1 -1 1
v 0.9375 0.25 0.9375
v -0.9375 0.25 0.9375
v 1 -1 0
v -1 -1 0
v 0 -1 0
v 0 0 0
v 1 -0.125 0.125
v 1 -0.125 0.875
v 1 -0.875 0.125
v 1 -0.875 0.875
v 0.9375 -0.125 0.125
v 0.9375 -0.125 0.875
v 0.9375 -0.875 0.125
v 0.9375 -0.875 0.875
v -0.9375 -0.125 0.125
v -0.9375 -0.125 0.875
v -0.9375 -0.875 0.125
v -0.9375 -0.875 0.875
v -1 -0.125 0.125
v -1 -0.125 0.875
v -1 -0.875 0.875
v -1 -0.875 0.125
v 0.9375 0.3125 0
v -0.9375 0.3125 0
v -0.1875 0.3125 0
v -0.1875 0 0
v 0.8129 0 0
v 0.8131 0.3125 0
v 0.9375 0.3125 1
v -0.9375 0.3125 1
v 0.8902 0.4375 0.8693
v 0.6785 0.4375 0.0203
v 0.8902 0.3125 0.8693
v 0.6785 0.3125 0.0203
v 0.7689 0.4375 0.8995
v 0.5572 0.4375 0.0505
v 0.7689 0.3125 0.8995
v 0.5572 0.3125 0.0505
v 0.6969 0.4375 0.8692
v 0.4852 0.4375 0.0202
v 0.6969 0.3125 0.8692
v 0.4852 0.3125 0.0202
v 0.5756 0.4375 0.8994
v 0.364 0.4375 0.0504
v 0.5756 0.3125 0.8994
v 0.364 0.3125 0.0504
v 0.5188 0.4375 0.8653
v 0.3071 0.4375 0.0163
v 0.5188 0.3125 0.8653
v 0.3071 0.3125 0.0163
v 0.3975 0.4375 0.8955
v 0.1859 0.4375 0.0465
v 0.3975 0.3125 0.8955
v 0.1859 0.3125 0.0465
v 0.3293 0.4375 0.8803
v 0.1176 0.4375 0.0313
v 0.3293 0.3125 0.8803
v 0.1176 0.3125 0.0313
v 0.208 0.4375 0.9106
v -0.0036 0.4375 0.0615
v 0.208 0.3125 0.9106
v -0.0036 0.3125 0.0615
v -0.0625 0.8125 0.9375
v -0.0625 0.8125 0.125
v -0.0625 0.3125 0.9375
v -0.0625 0.3125 0.125
v -0.8125 0.8125 0.9375
v -0.8125 0.8125 0.125
v -0.8125 0.3125 0.9375
v -0.8125 0.3125 0.125
v -0.0625 1.625 0.9375
v -0.0625 1.625 0.125
v -0.0625 1.9375 0.9375
v -0.0625 1.9375 0.125
v -0.8125 1.625 0.9375
v -0.8125 1.625 0.125
v -0.8125 1.9375 0.9375
v -0.8125 1.9375 0.125
v -0.125 0.75 0.125
v -0.125 0.75 0.0625
v -0.125 0.4375 0.125
v -0.125 0.4375 0.0625
v -0.4375 0.75 0.125
v -0.4375 0.75 0.0625
v -0.4375 0.4375 0.125
v -0.4375 0.4375 0.0625
v -0.5 0.125 -0.25
v -0.5 0.125 -0.4375
v -0.5 0.0625 -0.25
v -0.5 0.0625 -0.4375
v -0.8125 0.125 -0.25
v -0.8125 0.125 -0.4375
v -0.8125 0.0625 -0.25
v -0.8125 0.0625 -0.4375
v -0.5156 0.1875 -0.2656
v -0.5156 0.1875 -0.4219
v -0.5156 0.125 -0.2656
v -0.5156 0.125 -0.4219
v -0.7969 0.1875 -0.2656
v -0.7969 0.1875 -0.4219
v -0.7969 0.125 -0.2656
v -0.7969 0.125 -0.4219
v -0.9835 0.0625 -0.2521
v -0.3619 0.0625 -0.1868
v -0.9835 0 -0.2521
v -0.3619 0 -0.1868
v -0.9182 0.0625 -0.8737
v -0.2966 0.0625 -0.8084
v -0.9182 0 -0.8737
v -0.2966 0 -0.8084
v -0.1813 0.0313 0.0082
v 0.9375 0.0313 -0.1094
v -0.1813 -0.0312 0.0082
v 0.9375 -0.0312 -0.1094
v -0.2728 0.0313 -0.862
v 0.846 0.0313 -0.9796
v -0.2728 -0.0312 -0.862
v 0.846 -0.0312 -0.9796
v -0.9063 1.7609 0.7499
v -0.9063 1.75 0.125
v -0.9063 1.011 0.763
v -0.9063 1.0001 0.1381
v -0.9688 1.7609 0.7499
v -0.9687 1.75 0.125
v -0.9688 1.011 0.763
v -0.9688 1.0001 0.1381
v -0.1875 1.5 0.8437
v -0.1875 1.5 0.2187
v -0.1875 0.875 0.8437
v -0.1875 0.875 0.2187
v -0.25 1.5 0.8437
v -0.25 1.5 0.2188
v -0.25 0.875 0.8437
v -0.25 0.875 0.2188
v -0.125 1.3125 0.7187
v -0.125 1.3125 0.5312
v -0.125 1.125 0.7187
v -0.125 1.125 0.5312
v -0.1875 1.3125 0.7187
v -0.1875 1.3125 0.5312
v -0.1875 1.125 0.7187
v -0.1875 1.125 0.5312
v -0.125 0.875 0.875
v -0.125 0.875 0.1875
v -0.125 0.8125 0.875
v -0.125 0.8125 0.1875
v -0.3125 0.875 0.875
v -0.3125 0.875 0.1875
v -0.3125 0.8125 0.875
v -0.3125 0.8125 0.1875
v -0.4375 1.5 0.8437
v -0.4375 1.5 0.2187
v -0.4375 0.875 0.8437
v -0.4375 0.875 0.2187
v -0.5 1.5 0.8437
v -0.5 1.5 0.2187
v -0.5 0.875 0.8437
v -0.5 0.875 0.2187
v -0.375 1.3125 0.7187
v -0.375 1.3125 0.5312
v -0.375 1.125 0.7187
v -0.375 1.125 0.5312
v -0.4375 1.3125 0.7187
v -0.4375 1.3125 0.5312
v -0.4375 1.125 0.7187
v -0.4375 1.125 0.5312
v -0.375 0.875 0.875
v -0.375 0.875 0.1875
v -0.375 0.8125 0.875
v -0.375 0.8125 0.1875
v -0.5625 0.875 0.875
v -0.5625 0.875 0.1875
v -0.5625 0.8125 0.875
v -0.5625 0.8125 0.1875
v -0.5938 1.625 0.875
v -0.5937 1.625 0.6875
v -0.5938 1.5625 0.875
v -0.5937 1.5625 0.6875
v -0.7813 1.625 0.875
v -0.7813 1.625 0.6875
v -0.7813 1.5625 0.875
v -0.7813 1.5625 0.6875
v -0.5938 0.875 0.875
v -0.5937 0.875 0.6875
v -0.5938 0.8125 0.875
v -0.5937 0.8125 0.6875
v -0.7813 0.875 0.875
v -0.7813 0.875 0.6875
v -0.7813 0.8125 0.875
v -0.7813 0.8125 0.6875
v 0 1.9375 0.9375
v 0 1.9375 0.3125
v 0 1.8125 0.9375
v 0 1.8125 0.3125
v -0.0625 1.9375 0.3125
v -0.0625 1.8125 0.9375
v -0.0625 1.8125 0.3125
v 0.9375 0.375 0.9375
v 0.9375 0.375 0.3125
v 0.8125 0.375 0.9375
v 0.8125 0.375 0.3125
v 0.9375 0.3125 0.9375
v 0.9375 0.3125 0.3125
v 0.8125 0.3125 0.9375
v 0.8125 0.3125 0.3125
v 0.9375 -0.1875 -0.0625
v 0.9375 -0.1875 -0.25
v 0.9375 -1 -0.0625
v 0.9375 -1 -0.25
v 0.75 -0.1875 -0.0625
v 0.75 -0.1875 -0.25
v 0.75 -1 -0.0625
v 0.75 -1 -0.25
v 0.9375 -0.1875 -0.75
v 0.9375 -0.1875 -0.9375
v 0.9375 -1 -0.75
v 0.9375 -1 -0.9375
v 0.75 -0.1875 -0.75
v 0.75 -0.1875 -0.9375
v 0.75 -1 -0.75
v 0.75 -1 -0.9375
v -0.75 -0.1875 -0.75
v -0.75 -0.1875 -0.9375
v -0.75 -1 -0.75
v -0.75 -1 -0.9375
v -0.9375 -0.1875 -0.75
v -0.9375 -0.1875 -0.9375
v -0.9375 -1 -0.75
v -0.9375 -1 -0.9375
v -0.75 -0.1875 -0.0625
v -0.75 -0.1875 -0.25
v -0.75 -1 -0.0625
v -0.75 -1 -0.25
v -0.9375 -0.1875 -0.0625
v -0.9375 -0.1875 -0.25
v -0.9375 -1 -0.0625
v -0.9375 -1 -0.25
v 1 0 -1
v 1 -0.1875 0
v 1 -0.1875 -1
v -1 0 -1
v -1 -0.1875 0
v -1 -0.1875 -1
v -0.0594 1.9375 0.4406
v -0.0594 1.9375 0.1187
v -0.5 1.9375 0.4406
v -0.5 1.9375 0.1187
v -0.125 1.875 0.1219
v -0.125 1.875 0.0281
v -0.125 1.8125 0.1219
v -0.125 1.8125 0.0281
v -0.1875 1.875 0.1219
v -0.1875 1.875 0.0281
v -0.1875 1.8125 0.1219
v -0.1875 1.8125 0.0281
v -0.2188 1.875 0.1219
v -0.2188 1.875 0.0281
v -0.2188 1.8125 0.1219
v -0.2188 1.8125 0.0281
v -0.2813 1.875 0.1219
v -0.2813 1.875 0.0281
v -0.2813 1.8125 0.1219
v -0.2813 1.8125 0.0281
v -0.3125 1.875 0.1219
v -0.3125 1.875 0.0281
v -0.3125 1.8125 0.1219
v -0.3125 1.8125 0.0281
v -0.375 1.875 0.1219
v -0.375 1.875 0.0281
v -0.375 1.8125 0.1219
v -0.375 1.8125 0.0281
v -0.4063 1.875 0.1219
v -0.4063 1.875 0.0281
v -0.4063 1.8125 0.1219
v -0.4063 1.8125 0.0281
v -0.4688 1.875 0.1219
v -0.4688 1.875 0.0281
v -0.4688 1.8125 0.1219
v -0.4688 1.8125 0.0281
v -0.5156 1.8438 0.1219
v -0.5156 1.8438 0.0281
v -0.5156 1.7188 0.1219
v -0.5156 1.7188 0.0281
v -0.6406 1.8438 0.1219
v -0.6406 1.8438 0.0281
v -0.6406 1.7188 0.1219
v -0.6406 1.7188 0.0281
v 0.8125 0 1
v -0.1875 0 1
v -0.1875 0.3125 1
v 0.8125 0.3125 1
v 0 1.75 1.0625
v 0 1.75 1
v 0 1.125 1.0625
v 0 1.125 1
v -0.875 1.75 1.0625
v -0.875 1.75 1
v -0.875 1.125 1.0625
v -0.875 1.125 1
v -1.0016 -0.25 0.25
v -1.0016 -0.25 0.75
v -1.0016 -0.75 0.25
v -1.0016 -0.75 0.75
v -0.9375 -0.25 0.25
v -0.9375 -0.25 0.75
v -0.9375 -0.75 0.25
v -0.9375 -0.75 0.75
v -1.0016 -0.0625 0.375
v -1.0016 -0.0625 0.625
v -1.0016 -0.25 0.375
v -1.0016 -0.25 0.625
v -0.9375 -0.0625 0.375
v -0.9375 -0.0625 0.625
v -0.9375 -0.25 0.375
v -0.9375 -0.25 0.625
v 1.0016 -0.25 0.75
v 1.0016 -0.25 0.25
v 1.0016 -0.75 0.75
v 1.0016 -0.75 0.25
v 0.9375 -0.25 0.75
v 0.9375 -0.25 0.25
v 0.9375 -0.75 0.75
v 0.9375 -0.75 0.25
v 1.0016 -0.0625 0.625
v 1.0016 -0.0625 0.375
v 1.0016 -0.25 0.625
v 1.0016 -0.25 0.375
v 0.9375 -0.0625 0.625
v 0.9375 -0.0625 0.375
v 0.9375 -0.25 0.625
v 0.9375 -0.25 0.375
v -0.625 1.5625 0.8125
v -0.625 1.5625 0.75
v -0.625 0.8125 0.8125
v -0.625 0.8125 0.75
v -0.75 1.5625 0.8125
v -0.75 1.5625 0.75
v -0.75 0.8125 0.8125
v -0.75 0.8125 0.75
v -0.9069 -0.6875 -0.2556
v -0.3125 -0.6875 -0.0625
v -0.9069 -1 -0.2556
v -0.3125 -1 -0.0625
v -0.6365 -0.6875 -1.0878
v -0.0421 -0.6875 -0.8947
v -0.6365 -1 -1.0878
v -0.0421 -1 -0.8947
v 0.5875 -0.6875 0.0058
v 0.8615 -0.6875 -0.556
v 0.5875 -1 0.0058
v 0.8615 -1 -0.556
v -0.1989 -0.6875 -0.3778
v 0.075 -0.6875 -0.9396
v -0.1989 -1 -0.3778
v 0.075 -1 -0.9396
v 0 0.9688 0.9375
v 0 1.9375 0.9375
v 0 1.9375 0
v 0 0.25 0.9375
v -0.5156 0.1875 -0.2656
v -0.7969 0.1875 -0.2656
v -0.5156 0.125 -0.2656
v -0.7969 0.125 -0.2656
v -0.7969 0.1875 -0.4219
v -0.7969 0.125 -0.4219
v -0.5156 0.1875 -0.4219
v -0.5156 0.125 -0.4219
v 0.9375 1.9375 0.5625
v 0.9375 1.9375 0.375
v 0.9375 1.875 0.5625
v 0.9375 1.875 0.375
v 0 1.9375 0.5625
v 0 1.9375 0.375
v 0 1.875 0.5625
v 0 1.875 0.375
v 0.9375 0.875 0.5625
v 0.9375 0.875 0.375
v 0.875 0.875 0.5625
v 0.875 0.875 0.375
v 0.875 1.875 0.5625
v 0.875 1.875 0.375
v 0.9375 0.3125 0.5625
v 0.9375 0.3125 0.375
v 0.875 0.3125 0.5625
v 0.875 0.3125 0.375
v 0.9375 1.9375 0.75
v 0.9375 1.875 0.9375
v 0.9375 1.875 0.75
v 0 1.9375 0.75
v 0 1.875 0.9375
v 0 1.875 0.75
v 0.9375 0.875 0.75
v 0.875 0.875 0.9375
v 0.875 0.875 0.75
v 0.875 1.875 0.9375
v 0.875 1.875 0.75
v 0.9375 0.3125 0.75
v 0.875 0.3125 0.9375
v 0.875 0.3125 0.75
v 0.75 -0.1875 0
v 0.75 -0.1875 -0.875
v 0.75 -0.4375 0
v 0.75 -0.4375 -0.875
v 0 -0.1875 0
v 0 -0.1875 -0.875
v 0 -0.4375 0
v 0 -0.4375 -0.875
v 0 2 2
v 0 2 1
v 0.125 1.9375 1.125
v 0.125 1.9375 1.875
v 0.875 1.9375 1.125
v 0.875 1.9375 1.875
v 0.125 2 1.875
v 0.125 2 1.125
v 0.875 2 1.125
v 1 2 1
v 0.875 2 1.875
v 1 2 2
v 0.75 2.0063 1.75
v 0.75 2.0063 1.25
v 0.75 1.9438 1.75
v 0.75 1.9438 1.25
v 0.25 2.0063 1.75
v 0.25 2.0063 1.25
v 0.25 1.9438 1.75
v 0.25 1.9438 1.25
vt 0 0.0938
vt 0 0.25
vt 0.3125 0.25
vt 0.3125 0.0938
vt 0 0.0938
vt 0 0.25
vt 0.3125 0.25
vt 0.3125 0.0938
vt 0.875 1
vt 0.875 0.6875
vt 0.4375 0.6875
vt 0.4375 1
vt 0.875 1
vt 0.875 0.6875
vt 0.4375 0.6875
vt 0.4375 1
vt 0.4375 0.5313
vt 0.4375 0.6875
vt 0.875 0.6875
vt 0.875 0.5313
vt 0.4375 0.375
vt 0.4375 0.5313
vt 0.875 0.5313
vt 0.875 0.375
vt 0.7344 0.6094
vt 0.7344 0.6406
vt 0.75 0.6406
vt 0.75 0.6094
vt 0.7188 0.6094
vt 0.7188 0.6406
vt 0.7344 0.6406
vt 0.7344 0.6094
vt 0.75 0.6406
vt 0.75 0.625
vt 0.7188 0.625
vt 0.7188 0.6406
vt 0.75 0.6094
vt 0.75 0.625
vt 0.7188 0.625
vt 0.7188 0.6094
vt 0.7188 0.6094
vt 0.7188 0.6406
vt 0.75 0.6406
vt 0.75 0.6094
vt 0 0.25
vt 0 0
vt 0.5 0
vt 0.5 0.25
vt 0.7656 0.5156
vt 0.7656 1
vt 1 1
vt 1 0.5156
vt 1 0
vt 1 0.4844
vt 0.9844 0.4844
vt 0.9844 0
vt 0.9844 0
vt 0.9844 0.4844
vt 1 0.4844
vt 1 0
vt 0 0
vt 0 0.0156
vt 0.5 0.0156
vt 0.5 0
vt 0.6563 0.6875
vt 0.6563 0.1875
vt 0.4063 0.1875
vt 0.4063 0.6875
vt 0.4063 0.6875
vt 0.6563 0.6875
vt 0.6563 0.1875
vt 0.4063 0.1875
vt 0.9844 0.5156
vt 0.9844 1
vt 0.75 1
vt 0.75 0.5156
vt 0.0156 0.0156
vt 0.25 0.0156
vt 0.25 0.25
vt 0.0156 0.25
vt 0.75 1
vt 0.5156 1
vt 0.5156 0.75
vt 0.75 0.75
vt 1 0.1875
vt 1 0.625
vt 0.75 0.625
vt 0.75 0.1875
vt 1 0.1875
vt 1 0.625
vt 0.75 0.625
vt 0.75 0.1875
vt 0.7813 0.625
vt 0.7813 0.7656
vt 0.75 0.7656
vt 0.75 0.625
vt 1 0.625
vt 1 0.7656
vt 0.9688 0.7656
vt 0.9688 0.625
vt 0.75 0.625
vt 0.75 0.7656
vt 0.7813 0.7656
vt 0.7813 0.625
vt 0.7813 0.625
vt 0.7813 0.7656
vt 0.75 0.7656
vt 0.75 0.625
vt 0.75 0.625
vt 0.75 0.7656
vt 0.7813 0.7656
vt 0.7813 0.625
vt 1 0.625
vt 1 0.7656
vt 0.9688 0.7656
vt 0.9688 0.625
vt 0.9688 0.625
vt 0.9688 0.7656
vt 1 0.7656
vt 1 0.625
vt 1 0.1094
vt 1 0.1875
vt 0.9688 0.1875
vt 0.9688 0.1094
vt 0.9688 0.1094
vt 0.9688 0.1875
vt 1 0.1875
vt 1 0.1094
vt 0.7813 0.1094
vt 0.7813 0.1875
vt 0.75 0.1875
vt 0.75 0.1094
vt 0.9688 0.1094
vt 0.9688 0.1875
vt 1 0.1875
vt 1 0.1094
vt 1 0.1094
vt 1 0.1875
vt 0.9688 0.1875
vt 0.9688 0.1094
vt 0.75 0.1094
vt 0.75 0.1875
vt 0.7813 0.1875
vt 0.7813 0.1094
vt 0.75 0.1094
vt 0.75 0.1875
vt 0.7813 0.1875
vt 0.7813 0.1094
vt 0.7813 0.1094
vt 0.7813 0.1875
vt 0.75 0.1875
vt 0.75 0.1094
vt 1 0.7656
vt 1 0.7813
vt 0.75 0.7813
vt 0.75 0.7656
vt 1 0.7656
vt 1 0.7813
vt 0.75 0.7813
vt 0.75 0.7656
vt 1 0.0313
vt 1 0.1094
vt 0.75 0.1094
vt 0.75 0.0313
vt 0 0.75
vt 0 1
vt 0.25 1
vt 0.25 0.75
vt 1 0.0313
vt 1 0.1094
vt 0.75 0.1094
vt 0.75 0.0313
vt 0.9688 0.7656
vt 0.7813 0.7656
vt 0.7813 0.625
vt 0.9688 0.625
vt 0.9688 0.7656
vt 0.9688 0.625
vt 0.7813 0.625
vt 0.7813 0.7656
vt 0.7813 0.6094
vt 0.9688 0.6094
vt 0.9688 0.625
vt 0.7813 0.625
vt 0.9688 0.7813
vt 0.7813 0.7813
vt 0.7813 0.7656
vt 0.9688 0.7656
vt 0.9688 0.7656
vt 0.7813 0.7656
vt 0.7813 0.7813
vt 0.9688 0.7813
vt 0.9688 0.625
vt 0.9688 0.7656
vt 1 0.7656
vt 1 0.625
vt 0.9688 0.6406
vt 0.7813 0.6406
vt 0.7813 0.625
vt 0.9688 0.625
vt 0.9688 0.1875
vt 0.7813 0.1875
vt 0.7813 0.1094
vt 0.9688 0.1094
vt 0.7813 0.1094
vt 0.9688 0.1094
vt 0.9688 0.1875
vt 0.7813 0.1875
vt 0.7813 0.1875
vt 0.9688 0.1875
vt 0.9688 0.2031
vt 0.7813 0.2031
vt 0.9688 0.2031
vt 0.7813 0.2031
vt 0.7813 0.1875
vt 0.9688 0.1875
vt 0.9688 0.1094
vt 0.7813 0.1094
vt 0.7813 0.0938
vt 0.9688 0.0938
vt 0.7813 0.0938
vt 0.9688 0.0938
vt 0.9688 0.1094
vt 0.7813 0.1094
vt 0.25 0.1875
vt 0.25 0.6875
vt 0 0.6875
vt 0 0.1875
vt 0.75 0
vt 0.75 0.25
vt 0.5 0.25
vt 0.5 0
vt 0.25 0.5
vt 0 0.5
vt 0 0.25
vt 0.25 0.25
vt 0.25 0.1875
vt 0.25 0.6875
vt 0 0.6875
vt 0 0.1875
vt 0.75 0.75
vt 0.75 1
vt 1 1
vt 1 0.75
vt 0 1
vt 0 0.75
vt 0.25 0.75
vt 0.25 1
vt 0.75 0.4688
vt 0.5156 0.4688
vt 0.5156 0.2813
vt 0.75 0.2813
vt 0.9688 0.0313
vt 0.9688 0.2188
vt 0.7813 0.2188
vt 0.7813 0.0313
vt 0.75 0.25
vt 0.75 0.5
vt 0.5 0.5
vt 0.5 0.25
vt 0.5 0.25
vt 0.25 0.25
vt 0.25 0
vt 0.5 0
vt 0 0
vt 0.25 0
vt 0.25 0.25
vt 0 0.25
vt 0.5 1
vt 0.5 0.75
vt 0.75 0.75
vt 0.75 1
vt 0.9688 0.2188
vt 0.9688 0.0313
vt 1 0
vt 1 0.25
vt 0.7813 0.2188
vt 0.9688 0.2188
vt 1 0.25
vt 0.75 0.25
vt 0.7813 0.0313
vt 0.7813 0.2188
vt 0.75 0.25
vt 0.75 0
vt 0.9688 0.0313
vt 0.7813 0.0313
vt 0.75 0
vt 1 0
vt 0.9844 0.0313
vt 0.9844 0.2188
vt 0.9688 0.2188
vt 0.9688 0.0313
vt 0.7813 0.2188
vt 0.9688 0.2188
vt 0.9688 0.2344
vt 0.7813 0.2344
vt 0.7813 0.0313
vt 0.7813 0.2188
vt 0.7656 0.2188
vt 0.7656 0.0313
vt 0.9688 0.0156
vt 0.7813 0.0156
vt 0.7813 0.0313
vt 0.9688 0.0313
vt 0.7813 0.2188
vt 0.9688 0.2188
vt 0.9688 0.0313
vt 0.7813 0.0313
vt 1 0
vt 0.9688 0.0313
vt 0.9688 0.2188
vt 1 0.25
vt 1 0.25
vt 0.9688 0.2188
vt 0.7813 0.2188
vt 0.75 0.25
vt 0.75 0.25
vt 0.7813 0.2188
vt 0.7813 0.0313
vt 0.75 0
vt 0.75 0
vt 0.7813 0.0313
vt 0.9688 0.0313
vt 1 0
vt 0.9688 0.2188
vt 0.9844 0.2188
vt 0.9844 0.0313
vt 0.9688 0.0313
vt 0.9688 0.2344
vt 0.9688 0.2188
vt 0.7813 0.2188
vt 0.7813 0.2344
vt 0.7656 0.2188
vt 0.7813 0.2188
vt 0.7813 0.0313
vt 0.7656 0.0313
vt 0.7813 0.0313
vt 0.7813 0.0156
vt 0.9688 0.0156
vt 0.9688 0.0313
vt 0.4688 0.7656
vt 0.2813 0.7656
vt 0.2813 0.6875
vt 0.4688 0.6875
vt 0 0.6875
vt 0.0309 0.6875
vt 0.0309 0.7656
vt 0 0.7656
vt 0 1
vt 0 0.75
vt 0.4688 0.75
vt 0.4688 1
vt 0.4688 0.7813
vt 0.5 0.7813
vt 0.5 1
vt 0.4688 1
vt 0.5313 1
vt 0.5 1
vt 0.5 0.7813
vt 0.5313 0.7813
vt 0.5156 0.7813
vt 0.5156 1
vt 0.4844 1
vt 0.4844 0.7813
vt 0.5156 0.7656
vt 0.5156 0.7969
vt 0.4844 0.7969
vt 0.4844 0.7656
vt 0.5156 0.7656
vt 0.5156 0.7969
vt 0.4844 0.7969
vt 0.4844 0.7656
vt 0.4688 0.7813
vt 0.5 0.7813
vt 0.5 1
vt 0.4688 1
vt 0.5313 1
vt 0.5 1
vt 0.5 0.7813
vt 0.5313 0.7813
vt 0.5156 0.7813
vt 0.5156 1
vt 0.4844 1
vt 0.4844 0.7813
vt 0.5156 0.7656
vt 0.5156 0.7969
vt 0.4844 0.7969
vt 0.4844 0.7656
vt 0.5156 0.7656
vt 0.5156 0.7969
vt 0.4844 0.7969
vt 0.4844 0.7656
vt 0.4688 0.7813
vt 0.5 0.7813
vt 0.5 1
vt 0.4688 1
vt 0.5313 1
vt 0.5 1
vt 0.5 0.7813
vt 0.5313 0.7813
vt 0.5156 0.7813
vt 0.5156 1
vt 0.4844 1
vt 0.4844 0.7813
vt 0.5156 0.7656
vt 0.5156 0.7969
vt 0.4844 0.7969
vt 0.4844 0.7656
vt 0.5156 0.7656
vt 0.5156 0.7969
vt 0.4844 0.7969
vt 0.4844 0.7656
vt 0.4688 0.7813
vt 0.5 0.7813
vt 0.5 1
vt 0.4688 1
vt 0.5313 1
vt 0.5 1
vt 0.5 0.7813
vt 0.5313 0.7813
vt 0.5156 0.7813
vt 0.5156 1
vt 0.4844 1
vt 0.4844 0.7813
vt 0.5156 0.7656
vt 0.5156 0.7969
vt 0.4844 0.7969
vt 0.4844 0.7656
vt 0.5156 0.7656
vt 0.5156 0.7969
vt 0.4844 0.7969
vt 0.4844 0.7656
vt 0.5938 0.0625
vt 0.5938 0.1875
vt 0.3906 0.1875
vt 0.3906 0.0625
vt 0.5938 0.0625
vt 0.5938 0.1875
vt 0.3906 0.1875
vt 0.3906 0.0625
vt 0.5938 0.1875
vt 0.3906 0.1875
vt 0.3906 0
vt 0.5938 0
vt 0.1875 0.0625
vt 0.1875 0.1875
vt 0 0.1875
vt 0 0.0625
vt 0.7188 0.7031
vt 0.5156 0.7031
vt 0.5156 0.7813
vt 0.7188 0.7813
vt 0.7188 0.7031
vt 0.5156 0.7031
vt 0.5156 0.7813
vt 0.7188 0.7813
vt 0.1875 0
vt 0.1875 0.1875
vt 0.3906 0.1875
vt 0.3906 0
vt 0.7344 0.2031
vt 0.7344 0.3906
vt 0.6563 0.3906
vt 0.6563 0.2031
vt 0.0938 0.7344
vt 0.0938 0.8125
vt 0.0781 0.8125
vt 0.0781 0.7344
vt 0.1563 0.7344
vt 0.1563 0.8125
vt 0.1406 0.8125
vt 0.1406 0.7344
vt 0.1563 0.7969
vt 0.1563 0.8125
vt 0.0781 0.8125
vt 0.0781 0.7969
vt 0.1563 0.7344
vt 0.1563 0.75
vt 0.0781 0.75
vt 0.0781 0.7344
vt 0.1563 0.7344
vt 0.1563 0.8125
vt 0.0781 0.8125
vt 0.0781 0.7344
vt 0.7344 0.7031
vt 0.7188 0.7031
vt 0.7188 0.6563
vt 0.7344 0.6563
vt 0.6719 0.6563
vt 0.6563 0.6563
vt 0.6563 0.7031
vt 0.6719 0.7031
vt 0.7344 0.6563
vt 0.7344 0.7031
vt 0.6563 0.7031
vt 0.6563 0.6563
vt 0.7344 0.6563
vt 0.7344 0.6719
vt 0.6563 0.6719
vt 0.6563 0.6563
vt 0.6563 0.6875
vt 0.6563 0.7031
vt 0.7344 0.7031
vt 0.7344 0.6875
vt 0.75 0.7031
vt 0.7344 0.7031
vt 0.7344 0.6563
vt 0.75 0.6563
vt 0.75 0.7031
vt 0.7344 0.7031
vt 0.7344 0.6563
vt 0.75 0.6563
vt 0.7344 0.6406
vt 0.7344 0.6563
vt 0.6563 0.6563
vt 0.6563 0.6406
vt 0.7344 0.6406
vt 0.7344 0.6563
vt 0.6563 0.6563
vt 0.6563 0.6406
vt 0.0625 0.3125
vt 0.125 0.3125
vt 0.125 0.9375
vt 0.0625 0.9375
vt 0.75 0.9375
vt 0.75 1
vt 0.125 1
vt 0.125 0.9375
vt 0.125 1
vt 0.125 0.375
vt 0.75 0.375
vt 0.75 1
vt 0.6875 0.375
vt 0.75 0.375
vt 0.75 1
vt 0.6875 1
vt 0.0625 0.9375
vt 0.0625 0.875
vt 0.6875 0.875
vt 0.6875 0.9375
vt 0.7188 0.9844
vt 0.7188 1
vt 1 1
vt 1 0.9844
vt 1 0.7813
vt 1 0.7969
vt 0.7188 0.7969
vt 0.7188 0.7813
vt 1 1
vt 0.7188 1
vt 0.7188 0.7813
vt 1 0.7813
vt 1 1
vt 0.9844 1
vt 0.9844 0.7813
vt 1 0.7813
vt 0.7344 0.7813
vt 0.7188 0.7813
vt 0.7188 1
vt 0.7344 1
vt 0.4063 0.5
vt 0.4063 0.6875
vt 0.25 0.6875
vt 0.25 0.5
vt 0.4063 0.6875
vt 0.25 0.6875
vt 0.25 0.6719
vt 0.4063 0.6719
vt 0.4063 0.5156
vt 0.25 0.5156
vt 0.25 0.5
vt 0.4063 0.5
vt 0.2656 0.5
vt 0.2656 0.6875
vt 0.25 0.6875
vt 0.25 0.5
vt 0.4063 0.5
vt 0.4063 0.6875
vt 0.3906 0.6875
vt 0.3906 0.5
vt 0.4063 0.3438
vt 0.4063 0.5
vt 0.25 0.5
vt 0.25 0.3438
vt 0.4063 0.1875
vt 0.4063 0.3438
vt 0.25 0.3438
vt 0.25 0.1875
vt 0.25 0.5
vt 0.4063 0.5
vt 0.4063 0.4844
vt 0.25 0.4844
vt 0.2656 0.3438
vt 0.2656 0.5
vt 0.25 0.5
vt 0.25 0.3438
vt 0.4063 0.3438
vt 0.4063 0.5
vt 0.3906 0.5
vt 0.3906 0.3438
vt 0.3281 0.4063
vt 0.3281 0.4531
vt 0.2813 0.4531
vt 0.2813 0.4063
vt 0.2813 0.4531
vt 0.3281 0.4531
vt 0.3281 0.4375
vt 0.2813 0.4375
vt 0.2969 0.4063
vt 0.2969 0.4531
vt 0.2813 0.4531
vt 0.2813 0.4063
vt 0.3281 0.4063
vt 0.3281 0.4531
vt 0.3125 0.4531
vt 0.3125 0.4063
vt 0.2813 0.4063
vt 0.3281 0.4063
vt 0.3281 0.4219
vt 0.2813 0.4219
vt 0.7188 0.6094
vt 0.7031 0.6094
vt 0.7031 0.4375
vt 0.7188 0.4375
vt 0.75 0.6094
vt 0.7344 0.6094
vt 0.7344 0.4375
vt 0.75 0.4375
vt 0.7031 0.4375
vt 0.7031 0.6094
vt 0.75 0.6094
vt 0.75 0.4375
vt 0.75 0.5938
vt 0.75 0.6094
vt 0.7031 0.6094
vt 0.7031 0.5938
vt 0.75 0.4375
vt 0.75 0.4531
vt 0.7031 0.4531
vt 0.7031 0.4375
vt 0.4063 0.3438
vt 0.4063 0.5
vt 0.25 0.5
vt 0.25 0.3438
vt 0.4063 0.1875
vt 0.4063 0.3438
vt 0.25 0.3438
vt 0.25 0.1875
vt 0.25 0.5
vt 0.4063 0.5
vt 0.4063 0.4844
vt 0.25 0.4844
vt 0.2656 0.3438
vt 0.2656 0.5
vt 0.25 0.5
vt 0.25 0.3438
vt 0.4063 0.3438
vt 0.4063 0.5
vt 0.3906 0.5
vt 0.3906 0.3438
vt 0.3281 0.4063
vt 0.3281 0.4531
vt 0.2813 0.4531
vt 0.2813 0.4063
vt 0.2813 0.4531
vt 0.3281 0.4531
vt 0.3281 0.4375
vt 0.2813 0.4375
vt 0.2969 0.4063
vt 0.2969 0.4531
vt 0.2813 0.4531
vt 0.2813 0.4063
vt 0.3281 0.4063
vt 0.3281 0.4531
vt 0.3125 0.4531
vt 0.3125 0.4063
vt 0.2813 0.4063
vt 0.3281 0.4063
vt 0.3281 0.4219
vt 0.2813 0.4219
vt 0.7188 0.6094
vt 0.7031 0.6094
vt 0.7031 0.4375
vt 0.7188 0.4375
vt 0.75 0.6094
vt 0.7344 0.6094
vt 0.7344 0.4375
vt 0.75 0.4375
vt 0.7031 0.4375
vt 0.7031 0.6094
vt 0.75 0.6094
vt 0.75 0.4375
vt 0.75 0.5938
vt 0.75 0.6094
vt 0.7031 0.6094
vt 0.7031 0.5938
vt 0.75 0.4375
vt 0.75 0.4531
vt 0.7031 0.4531
vt 0.7031 0.4375
vt 0.5156 0.7656
vt 0.5 0.7656
vt 0.5 0.7188
vt 0.5156 0.7188
vt 0.4844 0.7656
vt 0.4688 0.7656
vt 0.4688 0.7188
vt 0.4844 0.7188
vt 0.5156 0.7656
vt 0.5156 0.7188
vt 0.4688 0.7188
vt 0.4688 0.7656
vt 0.5156 0.7188
vt 0.5156 0.7344
vt 0.4688 0.7344
vt 0.4688 0.7188
vt 0.4688 0.7656
vt 0.4688 0.75
vt 0.5156 0.75
vt 0.5156 0.7656
vt 0.5156 0.7656
vt 0.5 0.7656
vt 0.5 0.7188
vt 0.5156 0.7188
vt 0.4844 0.7656
vt 0.4688 0.7656
vt 0.4688 0.7188
vt 0.4844 0.7188
vt 0.5156 0.7188
vt 0.5156 0.7344
vt 0.4688 0.7344
vt 0.4688 0.7188
vt 0.4688 0.7656
vt 0.4688 0.75
vt 0.5156 0.75
vt 0.5156 0.7656
vt 0.5156 0.7188
vt 0.5156 0.7656
vt 0.4688 0.7656
vt 0.4688 0.7188
vt 0.5156 1
vt 0.4844 1
vt 0.4844 0.8438
vt 0.5156 0.8438
vt 0.5 0.8438
vt 0.5 1
vt 0.4844 1
vt 0.4844 0.8438
vt 0.5156 0.8594
vt 0.4844 0.8594
vt 0.4844 0.8438
vt 0.5156 0.8438
vt 0.5156 1
vt 0.4844 1
vt 0.4844 0.9844
vt 0.5156 0.9844
vt 0.4844 0.8438
vt 0.4844 1
vt 0.5156 1
vt 0.5156 0.8438
vt 0.4844 1
vt 0.5 1
vt 0.5 0.8438
vt 0.4844 0.8438
vt 0.4844 0.8438
vt 0.4844 0.8594
vt 0.5156 0.8594
vt 0.5156 0.8438
vt 0.4844 0.9844
vt 0.4844 1
vt 0.5156 1
vt 0.5156 0.9844
vt 0.8906 0.5
vt 0.8906 0.7031
vt 0.8438 0.7031
vt 0.8438 0.5
vt 0.8906 0.5
vt 0.8906 0.7031
vt 0.8438 0.7031
vt 0.8438 0.5
vt 0.8906 0.7031
vt 0.8906 0.75
vt 0.8438 0.75
vt 0.8438 0.7031
vt 0.8906 0.5
vt 0.8906 0.7031
vt 0.8438 0.7031
vt 0.8438 0.5
vt 0.8906 0.5
vt 0.8906 0.7031
vt 0.8438 0.7031
vt 0.8438 0.5
vt 0.8906 0.5
vt 0.8906 0.7031
vt 0.8438 0.7031
vt 0.8438 0.5
vt 0.8906 0.5
vt 0.8906 0.7031
vt 0.8438 0.7031
vt 0.8438 0.5
vt 0.8906 0.7031
vt 0.8906 0.75
vt 0.8438 0.75
vt 0.8438 0.7031
vt 0.8906 0.5
vt 0.8906 0.7031
vt 0.8438 0.7031
vt 0.8438 0.5
vt 0.8906 0.5
vt 0.8906 0.7031
vt 0.8438 0.7031
vt 0.8438 0.5
vt 0.8906 0.5
vt 0.8906 0.7031
vt 0.8438 0.7031
vt 0.8438 0.5
vt 0.8906 0.5
vt 0.8906 0.7031
vt 0.8438 0.7031
vt 0.8438 0.5
vt 0.8906 0.7031
vt 0.8906 0.75
vt 0.8438 0.75
vt 0.8438 0.7031
vt 0.8906 0.5
vt 0.8906 0.7031
vt 0.8438 0.7031
vt 0.8438 0.5
vt 0.8906 0.5
vt 0.8906 0.7031
vt 0.8438 0.7031
vt 0.8438 0.5
vt 0.8906 0.5
vt 0.8906 0.7031
vt 0.8438 0.7031
vt 0.8438 0.5
vt 0.8906 0.5
vt 0.8906 0.7031
vt 0.8438 0.7031
vt 0.8438 0.5
vt 0.8906 0.7031
vt 0.8906 0.75
vt 0.8438 0.75
vt 0.8438 0.7031
vt 0.8906 0.5
vt 0.8906 0.7031
vt 0.8438 0.7031
vt 0.8438 0.5
vt 0.8906 0.5
vt 0.8906 0.7031
vt 0.8438 0.7031
vt 0.8438 0.5
vt 0.8438 0.5
vt 0.7969 0.5
vt 0.7969 0.75
vt 0.8438 0.75
vt 0.8438 0.5
vt 0.7969 0.5
vt 0.7969 0.75
vt 0.8438 0.75
vt 0.7969 0.25
vt 0.75 0.25
vt 0.75 0.75
vt 0.7969 0.75
vt 0.7969 0.25
vt 0.75 0.25
vt 0.75 0.75
vt 0.7969 0.75
vt 0 0
vt 0.5 0
vt 0.5 0.25
vt 0 0.25
vt 0 0
vt 0.5 0
vt 0.5 0.25
vt 0 0.25
vt 0.75 0.0938
vt 0.75 0.1719
vt 0.6406 0.1719
vt 0.6406 0.0938
vt 0.6719 0.8125
vt 0.6719 0.8359
vt 0.6563 0.8359
vt 0.6563 0.8125
vt 0.6719 0.8125
vt 0.6719 0.8359
vt 0.6563 0.8359
vt 0.6563 0.8125
vt 0.6719 0.8125
vt 0.6719 0.8359
vt 0.6563 0.8359
vt 0.6563 0.8125
vt 0.6719 0.8125
vt 0.6719 0.8359
vt 0.6563 0.8359
vt 0.6563 0.8125
vt 0.6719 0.8125
vt 0.6719 0.8281
vt 0.6563 0.8281
vt 0.6563 0.8125
vt 0.6719 0.8125
vt 0.6719 0.8359
vt 0.6563 0.8359
vt 0.6563 0.8125
vt 0.6719 0.8125
vt 0.6719 0.8359
vt 0.6563 0.8359
vt 0.6563 0.8125
vt 0.6719 0.8125
vt 0.6719 0.8359
vt 0.6563 0.8359
vt 0.6563 0.8125
vt 0.6719 0.8125
vt 0.6719 0.8359
vt 0.6563 0.8359
vt 0.6563 0.8125
vt 0.6719 0.8125
vt 0.6719 0.8281
vt 0.6563 0.8281
vt 0.6563 0.8125
vt 0.6719 0.8125
vt 0.6719 0.8359
vt 0.6563 0.8359
vt 0.6563 0.8125
vt 0.6719 0.8125
vt 0.6719 0.8359
vt 0.6563 0.8359
vt 0.6563 0.8125
vt 0.6719 0.8125
vt 0.6719 0.8359
vt 0.6563 0.8359
vt 0.6563 0.8125
vt 0.6719 0.8125
vt 0.6719 0.8359
vt 0.6563 0.8359
vt 0.6563 0.8125
vt 0.6719 0.8125
vt 0.6719 0.8281
vt 0.6563 0.8281
vt 0.6563 0.8125
vt 0.6719 0.8125
vt 0.6719 0.8359
vt 0.6563 0.8359
vt 0.6563 0.8125
vt 0.6719 0.8125
vt 0.6719 0.8359
vt 0.6563 0.8359
vt 0.6563 0.8125
vt 0.6719 0.8125
vt 0.6719 0.8359
vt 0.6563 0.8359
vt 0.6563 0.8125
vt 0.6719 0.8125
vt 0.6719 0.8359
vt 0.6563 0.8359
vt 0.6563 0.8125
vt 0.6719 0.8125
vt 0.6719 0.8281
vt 0.6563 0.8281
vt 0.6563 0.8125
vt 0.7109 0.7813
vt 0.7109 0.8125
vt 0.6875 0.8125
vt 0.6875 0.7813
vt 0.7188 0.7813
vt 0.7188 0.8125
vt 0.6953 0.8125
vt 0.6953 0.7813
vt 0.7188 0.7891
vt 0.7188 0.8125
vt 0.6875 0.8125
vt 0.6875 0.7891
vt 0.7188 0.7813
vt 0.7188 0.8047
vt 0.6875 0.8047
vt 0.6875 0.7813
vt 0.7188 0.7813
vt 0.7188 0.8125
vt 0.6875 0.8125
vt 0.6875 0.7813
vt 0.75 0
vt 0.75 0.25
vt 0.5 0.25
vt 0.5 0
vt 0.75 0.25
vt 0.6719 0.25
vt 0.6719 0
vt 0.75 0
vt 0.75 0
vt 0.75 0.0781
vt 0.5 0.0781
vt 0.5 0
vt 0.5781 0.25
vt 0.5 0.25
vt 0.5 0
vt 0.5781 0
vt 1 0.7188
vt 1 0.875
vt 0.9844 0.875
vt 0.9844 0.7188
vt 0.7969 0.7188
vt 0.7969 0.875
vt 0.7813 0.875
vt 0.7813 0.7188
vt 1 0.8594
vt 1 0.875
vt 0.7813 0.875
vt 0.7813 0.8594
vt 1 0.7188
vt 1 0.7344
vt 0.7813 0.7344
vt 0.7813 0.7188
vt 1 0.7188
vt 1 0.875
vt 0.7813 0.875
vt 0.7813 0.7188
vt 0.875 0.4844
vt 0.875 0.6094
vt 0.75 0.6094
vt 0.75 0.4844
vt 0.75 0.6094
vt 0.875 0.6094
vt 0.875 0.5938
vt 0.75 0.5938
vt 0.875 0.5
vt 0.75 0.5
vt 0.75 0.4844
vt 0.875 0.4844
vt 0.766 0.4844
vt 0.766 0.6094
vt 0.75 0.6094
vt 0.75 0.4844
vt 0.8754 0.4844
vt 0.8754 0.6094
vt 0.8594 0.6094
vt 0.8594 0.4844
vt 0.125 0.6875
vt 0.125 0.7344
vt 0.0625 0.7344
vt 0.0625 0.6875
vt 0.0785 0.6875
vt 0.0785 0.7344
vt 0.0625 0.7344
vt 0.0625 0.6875
vt 0.1254 0.6875
vt 0.1254 0.7344
vt 0.1094 0.7344
vt 0.1094 0.6875
vt 0.75 0.6094
vt 0.875 0.6094
vt 0.875 0.5938
vt 0.75 0.5938
vt 0.875 0.5
vt 0.75 0.5
vt 0.75 0.4844
vt 0.875 0.4844
vt 0.766 0.4844
vt 0.766 0.6094
vt 0.75 0.6094
vt 0.75 0.4844
vt 0.8754 0.4844
vt 0.8754 0.6094
vt 0.8594 0.6094
vt 0.8594 0.4844
vt 0.0625 0.6875
vt 0.0625 0.7344
vt 0 0.7344
vt 0 0.6875
vt 0.016 0.6875
vt 0.016 0.7344
vt 0 0.7344
vt 0 0.6875
vt 0.0629 0.6875
vt 0.0629 0.7344
vt 0.0469 0.7344
vt 0.0469 0.6875
vt 0.625 0.25
vt 0.625 1
vt 0.5625 1
vt 0.5625 0.25
vt 0.6875 0.25
vt 0.6875 1
vt 0.625 1
vt 0.625 0.25
vt 0.6875 0.25
vt 0.6875 1
vt 0.5625 1
vt 0.5625 0.25
vt 0 0.0938
vt 0 0.25
vt 0.3125 0.25
vt 0.3125 0.0938
vt 0 0.0938
vt 0 0.25
vt 0.3125 0.25
vt 0.3125 0.0938
vt 0.875 1
vt 0.875 0.6875
vt 0.4375 0.6875
vt 0.4375 1
vt 0.875 1
vt 0.875 0.6875
vt 0.4375 0.6875
vt 0.4375 1
vt 0.4375 0.375
vt 0.4375 0.5313
vt 0.875 0.5313
vt 0.875 0.375
vt 0.4375 0.5313
vt 0.4375 0.6875
vt 0.875 0.6875
vt 0.875 0.5313
vt 0 0.0938
vt 0 0.25
vt 0.3125 0.25
vt 0.3125 0.0938
vt 0 0.0938
vt 0 0.25
vt 0.3125 0.25
vt 0.3125 0.0938
vt 0.875 1
vt 0.875 0.6875
vt 0.4375 0.6875
vt 0.4375 1
vt 0.875 1
vt 0.875 0.6875
vt 0.4375 0.6875
vt 0.4375 1
vt 0.4375 0.5313
vt 0.4375 0.6875
vt 0.875 0.6875
vt 0.875 0.5313
vt 0.4375 0.375
vt 0.4375 0.5313
vt 0.875 0.5313
vt 0.875 0.375
vt 0.875 0.4844
vt 0.875 0.6094
vt 0.75 0.6094
vt 0.75 0.4844
vt 0 0.75
vt 0.2344 0.75
vt 0.2344 1
vt 0 1
vt 0.4844 0.25
vt 0.25 0.25
vt 0.25 0.0156
vt 0.4844 0.0156
vt 0 0.2813
vt 0.2344 0.2813
vt 0.2344 0.4688
vt 0 0.4688
vt 0.7344 0.6563
vt 0.7344 0.7031
vt 0.75 0.7031
vt 0.75 0.6563
vt 0.7344 0.6563
vt 0.7344 0.7031
vt 0.75 0.7031
vt 0.75 0.6563
vt 0.6563 0.6563
vt 0.7344 0.6563
vt 0.7344 0.6406
vt 0.6563 0.6406
vt 0.6563 0.6563
vt 0.7344 0.6563
vt 0.7344 0.6406
vt 0.6563 0.6406
vt 0.3125 1
vt 0.5 1
vt 0.5 0.0625
vt 0.3125 0.0625
vt 0.5 1
vt 0.3125 1
vt 0.3125 0.0625
vt 0.5 0.0625
vt 0.5 1
vt 0.4375 1
vt 0.4375 0.0625
vt 0.5 0.0625
vt 0.375 0.0625
vt 0.3125 0.0625
vt 0.3125 1
vt 0.375 1
vt 0.3125 1
vt 0.5 1
vt 0.5 0
vt 0.3125 0
vt 0.5 1
vt 0.3125 1
vt 0.3125 0
vt 0.5 0
vt 0.5 1
vt 0.4375 1
vt 0.4375 0
vt 0.5 0
vt 0.375 0
vt 0.3125 0
vt 0.3125 1
vt 0.375 1
vt 0.3125 0.4375
vt 0.5 0.4375
vt 0.5 1
vt 0.3125 1
vt 0.5 0.4375
vt 0.3125 0.4375
vt 0.3125 1
vt 0.5 1
vt 0.5 0.4375
vt 0.4375 0.4375
vt 0.4375 1
vt 0.5 1
vt 0.375 1
vt 0.3125 1
vt 0.3125 0.4375
vt 0.375 0.4375
vt 0.5 1
vt 0.3125 1
vt 0.3125 0.0625
vt 0.5 0.0625
vt 0.375 0.0625
vt 0.3125 0.0625
vt 0.3125 1
vt 0.375 1
vt 0.5 1
vt 0.3125 1
vt 0.3125 0
vt 0.5 0
vt 0.375 0
vt 0.3125 0
vt 0.3125 1
vt 0.375 1
vt 0.5 0.4375
vt 0.3125 0.4375
vt 0.3125 1
vt 0.5 1
vt 0.375 1
vt 0.3125 1
vt 0.3125 0.4375
vt 0.375 0.4375
vt 0.9844 0
vt 0.9844 0.0625
vt 0.7656 0.0625
vt 0.7656 0
vt 1 0
vt 1 0.0625
vt 0.7813 0.0625
vt 0.7813 0
vt 0.9844 0.25
vt 0.7656 0.25
vt 0.7656 0.0625
vt 0.9844 0.0625
vt 0.9844 0.3906
vt 0.9844 0.4531
vt 0.7969 0.4531
vt 0.7969 0.3906
vt 0.9688 0.0313
vt 0.9688 0.2188
vt 0.7813 0.2188
vt 0.7813 0.0313
vt 0.7188 0.2188
vt 0.7188 0.0313
vt 0.75 0
vt 0.75 0.25
vt 0.5313 0.2188
vt 0.7188 0.2188
vt 0.75 0.25
vt 0.5 0.25
vt 0.5313 0.0313
vt 0.5313 0.2188
vt 0.5 0.25
vt 0.5 0
vt 0.7188 0.0313
vt 0.5313 0.0313
vt 0.5 0
vt 0.75 0
vt 0.1094 0.6094
vt 0.1094 0.4844
vt 0.125 0.4844
vt 0.125 0.6094
vt 0.0156 0.4844
vt 0 0.4844
vt 0 0.6094
vt 0.0156 0.6094
vt 0 0.4844
vt 0.125 0.4844
vt 0.125 0.6094
vt 0 0.6094
vt 0.125 0.4844
vt 0.125 0.5
vt 0 0.5
vt 0 0.4844
vt 0 0.6094
vt 0.125 0.6094
vt 0.125 0.5938
vt 0 0.5938
vt 0.0781 1
vt 0.0781 0.9844
vt 0.2656 0.9844
vt 0.2656 1
vt 0.25 1
vt 0.25 0.9844
vt 0.4375 0.9844
vt 0.4375 1
vt 0.1406 1
vt 0.1406 0.9844
vt 0.3281 0.9844
vt 0.3281 1
vt 0.1719 1
vt 0.1719 0.9844
vt 0.3594 0.9844
vt 0.3594 1
vn 0.96 0 -0.28
vn -0.96 0 0.28
vn 0 1 0
vn 0 -1 0
vn 0.28 0 0.96
vn -0.28 0 -0.96
vn 1 0 0
vn -1 0 0
vn 0 1 0
vn 0 -1 0
vn 0 0 -1
vn 0 1 0
vn -1 0 0
vn 0 0 -1
vn 0 0 -1
vn 0 0 -1
vn -1 0 0
vn 1 0 0
vn 1 0 0
vn 0 -1 0
vn 0 0 -1
vn 1 0 0
vn 0 0 1
vn 1 0 0
vn 0 0 1
vn -0.71 0 -0.71
vn 0 0 1
vn 1 0 0
vn 1 0 0
vn 0 0 1
vn 1 0 0
vn 0 0 1
vn 1 0 0
vn -0.71 0 -0.71
vn 0 0 1
vn -0.71 0 -0.71
vn 1 0 0
vn 0 0 1
vn 1 0 0
vn 0 0 1
vn 1 0 0
vn 0 -1 0
vn 0 0 1
vn 0 0 1
vn 1 0 0
vn 0 1 0
vn 0 -1 0
vn 0 -1 0
vn -0.71 0 -0.71
vn 0 1 0
vn 1 0 0
vn 0 0 1
vn 0 -1 0
vn 0 -1 0
vn 0 1 0
vn 0 1 0
vn -1 0 0
vn 0 1 0
vn 0 -1 0
vn 0 0 1
vn -1 0 0
vn 0 0 1
vn 0 0 -1
vn 1 0 0
vn 0 -1 0
vn 0 0 -1
vn 0 0 -1
vn 0 -1 0
vn 1 0 0
vn 1 0 0
vn 1 0 0
vn 1 0 0
vn 0 0 1
vn 0 -1 0
vn 0 0 -1
vn 0 1 0
vn -1 0 0
vn -1 0 0
vn -1 0 0
vn -1 0 0
vn -1 0 0
vn 0 0 1
vn 0 -1 0
vn 0 0 -1
vn 0 1 0
vn 0 0 -1
vn 0 0 -1
vn 0 1 0
vn 0.97 0 -0.24
vn -0.97 0 0.24
vn 0 1 0
vn 0.24 0 0.97
vn -0.24 0 -0.97
vn 0.97 0 -0.24
vn -0.97 0 0.24
vn 0 1 0
vn 0.24 0 0.97
vn -0.24 0 -0.97
vn 0.97 0 -0.24
vn -0.97 0 0.24
vn 0 1 0
vn 0.24 0 0.97
vn -0.24 0 -0.97
vn 0.97 0 -0.24
vn -0.97 0 0.24
vn 0 1 0
vn 0.24 0 0.97
vn -0.24 0 -0.97
vn 1 0 0
vn -1 0 0
vn 0 1 0
vn 0 0 -1
vn 1 0 0
vn -1 0 0
vn 0 -1 0
vn 0 0 -1
vn 1 0 0
vn -1 0 0
vn 0 1 0
vn 0 -1 0
vn 0 0 -1
vn 1 0 0
vn -1 0 0
vn 0 1 0
vn 0 0 1
vn 0 0 -1
vn 1 0 0
vn -1 0 0
vn 0 0 1
vn 0 0 -1
vn -0.1 0 0.99
vn 0.1 0 -0.99
vn 0 1 0
vn -0.99 0 -0.1
vn 0.99 0 0.1
vn 0.1 0 0.99
vn -0.1 0 -0.99
vn 0 1 0
vn -0.99 0 0.1
vn 0.99 0 -0.1
vn 1 0 0
vn 0 1 -0.02
vn 0 -1 0.02
vn 0 0.02 1
vn 0 -0.02 -1
vn 1 0 0
vn -1 0 0
vn 0 1 0
vn 0 0 1
vn 0 0 -1
vn 1 0 0
vn 0 1 0
vn 0 0 1
vn 0 0 -1
vn 0 -1 0
vn 1 0 0
vn -1 0 0
vn 0 1 0
vn 0 0 1
vn 0 0 -1
vn 1 0 0
vn -1 0 0
vn 0 1 0
vn 0 0 1
vn 0 0 -1
vn 1 0 0
vn 0 1 0
vn 0 0 1
vn 0 0 -1
vn 0 -1 0
vn 1 0 0
vn -1 0 0
vn 0 1 0
vn 0 0 1
vn 0 0 -1
vn 1 0 0
vn -1 0 0
vn 0 -1 0
vn 0 0 1
vn 0 0 -1
vn 1 0 0
vn -1 0 0
vn 0 0 1
vn 0 0 -1
vn 0 1 0
vn 1 0 0
vn 0 -1 0
vn 0 0 1
vn 0 0 -1
vn 0 1 0
vn -1 0 0
vn 0 0 1
vn 0 0 -1
vn 1 0 0
vn -1 0 0
vn 0 -1 0
vn 0 0 1
vn 0 0 -1
vn 1 0 0
vn -1 0 0
vn 0 -1 0
vn 0 0 1
vn 0 0 -1
vn 1 0 0
vn -1 0 0
vn 0 -1 0
vn 0 0 1
vn 0 0 -1
vn 1 0 0
vn -1 0 0
vn 0 -1 0
vn 0 0 1
vn 0 0 -1
vn 1 0 0
vn -1 0 0
vn 0 0 1
vn 0 0 -1
vn 0 1 0
vn 0 -1 0
vn 0 1 0
vn 1 0 0
vn -1 0 0
vn 0 1 0
vn 0 -1 0
vn 0 0 -1
vn 1 0 0
vn -1 0 0
vn 0 1 0
vn 0 -1 0
vn 0 0 -1
vn 1 0 0
vn -1 0 0
vn 0 1 0
vn 0 -1 0
vn 0 0 -1
vn 1 0 0
vn -1 0 0
vn 0 1 0
vn 0 -1 0
vn 0 0 -1
vn 1 0 0
vn -1 0 0
vn 0 1 0
vn 0 -1 0
vn 0 0 -1
vn 0 1 0
vn 1 0 0
vn 0 0 -1
vn -1 0 0
vn 1 0 0
vn -1 0 0
vn 0 1 0
vn 0 -1 0
vn 0 0 1
vn -1 0 0
vn 0 1 0
vn 0 -1 0
vn 0 0 -1
vn 0 0 1
vn -1 0 0
vn 0 0 -1
vn 0 0 1
vn 0 1 0
vn 0 -1 0
vn 0 0 1
vn 0 0 -1
vn 1 0 0
vn 0 0 1
vn 0 0 -1
vn 1 0 0
vn -1 0 0
vn 0 0 -1
vn -0.31 0 0.95
vn 0.31 0 -0.95
vn 0 1 0
vn 0 -1 0
vn -0.95 0 -0.31
vn 0.95 0 0.31
vn 0.9 0 0.44
vn -0.9 0 -0.44
vn 0 1 0
vn 0 -1 0
vn -0.44 0 0.9
vn 0.44 0 -0.9
vn 1 0 0
vn 0 0 -1
vn 0 -1 0
vn 0 0 -1
vn -1 0 0
vn 1 0 0
vn 0 0 -1
vn 0 0 1
vn 0 1 0
vn 0 -1 0
vn 0 0 1
vn 0 0 -1
vn 1 0 0
vn -1 0 0
vn 0 0 1
vn 0 0 -1
vn 1 0 0
vn -1 0 0
vn 0 0 1
vn 0 0 -1
vn 0 -1 0
vn 0 0 -1
vn -1 0 0
vn 0 0 -1
vn -1 0 0
vn 0 0 -1
vn 1 0 0
vn -1 0 0
vn 0 -1 0
vn 0 0 -1
vn 0 1 0
vn 0 1 0
vn 0 1 0
vn 0 1 0
vn 0 1 0
vn 1 0 0
vn -1 0 0
vn 0 1 0
vn 0 0 1
vn 0 0 -1
vn -1 0 0
vn 0 0 -1
vn 1 0 0
vn 0 0 1
usemtl metal
f 208/501/126 206/502/126 205/503/126 207/504/126
f 211/505/127 209/506/127 210/507/127 212/508/127
f 205/509/128 206/510/128 210/511/128 209/512/128
f 208/513/129 207/514/129 211/515/129 212/516/129
f 207/517/130 205/518/130 209/519/130 211/520/130
f 212/521/131 210/522/131 206/523/131 208/524/131
usemtl arithmetic_logic_machine
f 216/525/132 214/526/132 213/527/132 215/528/132
f 219/529/133 217/530/133 218/531/133 220/532/133
f 213/533/134 214/534/134 218/535/134 217/536/134
f 216/537/135 215/538/135 219/539/135 220/540/135
f 220/541/136 218/542/136 214/543/136 216/544/136
usemtl common_steel
f 221/545/137 222/546/137 224/547/137 223/548/137
f 229/549/138 227/550/138 228/551/138 230/552/138
f 230/553/139 228/554/139 225/555/139 226/556/139
f 235/557/140 234/558/140 232/559/140 233/560/140
f 234/561/141 224/562/141 222/563/141 225/564/141
usemtl arithmetic_logic_machine
f 224/565/142 235/566/142 237/567/142 223/568/142
f 222/569/143 221/570/143 236/571/143 226/572/143
usemtl common_steel
f 233/573/144 232/574/144 231/575/144 238/576/144
f 232/577/145 651/578/145 650/579/145 231/580/145
usemtl common_table
f 231/581/146 650/582/146 649/583/146 239/584/146
usemtl arithmetic_logic_machine
f 244/585/147 242/586/147 241/587/147 243/588/147
f 243/589/148 241/590/148 245/591/148 246/592/148
f 249/593/149 248/594/149 247/595/149 241/596/149
f 241/597/150 247/598/150 250/599/150 252/600/150
f 253/601/151 251/602/151 248/603/151 249/604/151
f 256/605/152 254/606/152 258/607/152 245/608/152
f 257/609/153 255/610/153 254/611/153 256/612/153
f 242/613/154 260/614/154 259/615/154 261/616/154
f 261/617/155 259/618/155 262/619/155 263/620/155
f 266/621/156 244/622/156 264/623/156 265/624/156
f 265/625/157 264/626/157 267/627/157 268/628/157
f 271/629/158 269/630/158 243/631/158 270/632/158
f 274/633/159 272/634/159 273/635/159 275/636/159
f 270/637/160 243/638/160 272/639/160 274/640/160
f 275/641/161 273/642/161 269/643/161 271/644/161
f 279/645/162 277/646/162 276/647/162 278/648/162
f 278/649/163 276/650/163 246/651/163 280/652/163
f 260/653/164 221/654/164 281/655/164 247/656/164
f 247/657/165 281/658/165 282/659/165 258/660/165
f 285/661/166 266/662/166 270/663/166 284/664/166
usemtl common_bottom
f 285/665/167 284/666/167 286/667/167 287/668/167
usemtl arithmetic_logic_machine
f 284/669/168 270/670/168 280/671/168 286/672/168
f 251/673/169 255/674/169 257/675/169 253/676/169
f 251/677/170 253/678/170 263/679/170 262/680/170
f 256/681/171 252/682/171 253/683/171 257/684/171
f 259/685/172 248/686/172 251/687/172 262/688/172
f 255/689/173 251/690/173 250/691/173 254/692/173
f 252/693/174 250/694/174 251/695/174 253/696/174
f 263/697/175 253/698/175 249/699/175 261/700/175
f 267/701/176 273/702/176 275/703/176 268/704/176
f 279/705/177 275/706/177 273/707/177 277/708/177
f 277/709/178 273/710/178 272/711/178 276/712/178
f 264/713/179 269/714/179 273/715/179 267/716/179
f 268/717/180 275/718/180 271/719/180 265/720/180
f 278/721/181 274/722/181 275/723/181 279/724/181
f 292/725/182 290/726/182 291/727/182 293/728/182
usemtl common_steel
f 288/729/183 289/730/183 291/731/183 290/732/183
usemtl common_bottom
f 287/733/184 286/734/184 292/735/184 293/736/184
usemtl arithmetic_logic_machine
f 286/737/185 288/738/185 290/739/185 292/740/185
usemtl common_steel
f 288/741/186 282/742/186 283/743/186 289/744/186
f 223/745/187 291/746/187 289/747/187 283/748/187
usemtl common_table
f 239/749/188 649/750/188 652/751/188 295/752/188
usemtl common_steel
f 306/753/189 304/754/189 305/755/189 307/756/189
usemtl common_bottom
f 297/757/190 298/758/190 287/759/190 293/760/190
usemtl common_steel
f 235/761/191 299/762/191 298/763/191 297/764/191
f 296/765/192 298/766/192 299/767/192 226/768/192
usemtl common_bottom
f 285/769/193 287/770/193 298/771/193 296/772/193
usemtl common_steel
f 300/773/194 302/774/194 296/775/194 226/776/194
f 301/777/195 300/778/195 226/779/195 236/780/195
f 303/781/196 301/782/196 236/783/196 285/784/196
f 302/785/197 303/786/197 285/787/197 296/788/197
f 304/789/198 306/790/198 302/791/198 300/792/198
f 305/793/199 304/794/199 300/795/199 301/796/199
f 307/797/200 305/798/200 301/799/200 303/800/200
f 306/801/201 307/802/201 303/803/201 302/804/201
f 309/805/202 308/806/202 310/807/202 311/808/202
f 297/809/203 315/810/203 312/811/203 235/812/203
f 235/813/204 312/814/204 313/815/204 237/816/204
f 237/817/205 313/818/205 314/819/205 293/820/205
f 293/821/206 314/822/206 315/823/206 297/824/206
f 315/825/207 310/826/207 308/827/207 312/828/207
f 312/829/208 308/830/208 309/831/208 313/832/208
f 313/833/209 309/834/209 311/835/209 314/836/209
f 314/837/210 311/838/210 310/839/210 315/840/210
usemtl arithmetic_logic_machine
f 317/841/211 318/842/211 319/843/211 233/844/211
f 230/845/212 320/846/212 321/847/212 316/848/212
f 322/849/213 316/850/213 317/851/213 323/852/213
f 327/853/214 325/854/214 324/855/214 326/856/214
f 330/857/215 328/858/215 329/859/215 331/860/215
f 324/861/216 325/862/216 329/863/216 328/864/216
f 326/865/217 324/866/217 328/867/217 330/868/217
f 331/869/218 329/870/218 325/871/218 327/872/218
f 335/873/219 333/874/219 332/875/219 334/876/219
f 338/877/220 336/878/220 337/879/220 339/880/220
f 332/881/221 333/882/221 337/883/221 336/884/221
f 334/885/222 332/886/222 336/887/222 338/888/222
f 339/889/223 337/890/223 333/891/223 335/892/223
f 343/893/224 341/894/224 340/895/224 342/896/224
f 346/897/225 344/898/225 345/899/225 347/900/225
f 340/901/226 341/902/226 345/903/226 344/904/226
f 342/905/227 340/906/227 344/907/227 346/908/227
f 347/909/228 345/910/228 341/911/228 343/912/228
f 351/913/229 349/914/229 348/915/229 350/916/229
f 354/917/230 352/918/230 353/919/230 355/920/230
f 348/921/231 349/922/231 353/923/231 352/924/231
f 350/925/232 348/926/232 352/927/232 354/928/232
f 355/929/233 353/930/233 349/931/233 351/932/233
f 359/933/234 357/934/234 356/935/234 358/936/234
f 362/937/235 360/938/235 361/939/235 363/940/235
f 356/941/236 357/942/236 361/943/236 360/944/236
f 363/945/237 361/946/237 357/947/237 359/948/237
f 364/949/238 365/950/238 367/951/238 366/952/238
f 369/953/239 368/954/239 370/955/239 371/956/239
f 369/957/240 365/958/240 364/959/240 368/960/240
f 365/961/241 369/962/241 371/963/241 367/964/241
usemtl common_thingies
f 375/965/242 373/966/242 372/967/242 374/968/242
f 378/969/243 376/970/243 377/971/243 379/972/243
f 372/973/244 373/974/244 377/975/244 376/976/244
f 375/977/245 374/978/245 378/979/245 379/980/245
f 379/981/246 377/982/246 373/983/246 375/984/246
usemtl arithmetic_logic_machine
f 383/985/247 381/986/247 380/987/247 382/988/247
f 386/989/248 384/990/248 385/991/248 387/992/248
f 380/993/249 381/994/249 385/995/249 384/996/249
f 382/997/250 380/998/250 384/999/250 386/1000/250
f 387/1001/251 385/1002/251 381/1003/251 383/1004/251
f 391/1005/252 389/1006/252 388/1007/252 390/1008/252
f 394/1009/253 392/1010/253 393/1011/253 395/1012/253
f 390/1013/254 388/1014/254 392/1015/254 394/1016/254
f 395/1017/255 393/1018/255 389/1019/255 391/1020/255
usemtl circuit_basic
f 399/1021/256 397/1022/256 396/1023/256 398/1024/256
f 402/1025/257 400/1026/257 401/1027/257 403/1028/257
f 396/1029/258 397/1030/258 401/1031/258 400/1032/258
f 398/1033/259 396/1034/259 400/1035/259 402/1036/259
f 403/1037/260 401/1038/260 397/1039/260 399/1040/260
usemtl arithmetic_logic_machine
f 407/1041/261 405/1042/261 404/1043/261 406/1044/261
f 410/1045/262 408/1046/262 409/1047/262 411/1048/262
f 404/1049/263 405/1050/263 409/1051/263 408/1052/263
f 406/1053/264 404/1054/264 408/1055/264 410/1056/264
f 411/1057/265 409/1058/265 405/1059/265 407/1060/265
f 415/1061/266 413/1062/266 412/1063/266 414/1064/266
f 412/1065/267 413/1066/267 417/1067/267 416/1068/267
f 415/1069/268 414/1070/268 418/1071/268 419/1072/268
f 414/1073/269 412/1074/269 416/1075/269 418/1076/269
f 419/1077/270 417/1078/270 413/1079/270 415/1080/270
f 423/1081/271 421/1082/271 420/1083/271 422/1084/271
f 426/1085/272 424/1086/272 425/1087/272 427/1088/272
f 420/1089/273 421/1090/273 425/1091/273 424/1092/273
f 422/1093/274 420/1094/274 424/1095/274 426/1096/274
f 427/1097/275 425/1098/275 421/1099/275 423/1100/275
f 431/1101/276 429/1102/276 428/1103/276 430/1104/276
f 428/1105/277 429/1106/277 433/1107/277 432/1108/277
f 430/1109/278 428/1110/278 432/1111/278 434/1112/278
f 435/1113/279 433/1114/279 429/1115/279 431/1116/279
f 434/1117/280 435/1118/280 431/1119/280 430/1120/280
f 439/1121/281 437/1122/281 436/1123/281 438/1124/281
f 442/1125/282 440/1126/282 441/1127/282 443/1128/282
f 436/1129/283 437/1130/283 441/1131/283 440/1132/283
f 438/1133/284 436/1134/284 440/1135/284 442/1136/284
f 443/1137/285 441/1138/285 437/1139/285 439/1140/285
f 447/1141/286 445/1142/286 444/1143/286 446/1144/286
f 450/1145/287 448/1146/287 449/1147/287 451/1148/287
f 444/1149/288 445/1150/288 449/1151/288 448/1152/288
f 446/1153/289 444/1154/289 448/1155/289 450/1156/289
f 451/1157/290 449/1158/290 445/1159/290 447/1160/290
f 455/1161/291 453/1162/291 452/1163/291 454/1164/291
f 452/1165/292 453/1166/292 457/1167/292 456/1168/292
f 454/1169/293 452/1170/293 456/1171/293 458/1172/293
f 459/1173/294 457/1174/294 453/1175/294 455/1176/294
f 458/1177/295 459/1178/295 455/1179/295 454/1180/295
f 463/1181/296 461/1182/296 460/1183/296 462/1184/296
f 466/1185/297 464/1186/297 465/1187/297 467/1188/297
f 460/1189/298 461/1190/298 465/1191/298 464/1192/298
f 462/1193/299 460/1194/299 464/1195/299 466/1196/299
f 467/1197/300 465/1198/300 461/1199/300 463/1200/300
f 471/1201/301 469/1202/301 468/1203/301 470/1204/301
f 474/1205/302 472/1206/302 473/1207/302 475/1208/302
f 471/1209/303 470/1210/303 474/1211/303 475/1212/303
f 470/1213/304 468/1214/304 472/1215/304 474/1216/304
f 475/1217/305 473/1218/305 469/1219/305 471/1220/305
f 479/1221/306 477/1222/306 476/1223/306 478/1224/306
f 482/1225/307 480/1226/307 481/1227/307 483/1228/307
f 478/1229/308 476/1230/308 480/1231/308 482/1232/308
f 483/1233/309 481/1234/309 477/1235/309 479/1236/309
f 476/1237/310 477/1238/310 481/1239/310 480/1240/310
f 487/1241/311 485/1242/311 484/1243/311 486/1244/311
f 487/1245/312 486/1246/312 489/1247/312 490/1248/312
f 486/1249/313 484/1250/313 366/1251/313 489/1252/313
f 490/1253/314 488/1254/314 485/1255/314 487/1256/314
f 491/1257/315 492/1258/315 494/1259/315 493/1260/315
f 497/1261/316 493/1262/316 494/1263/316 498/1264/316
f 495/1265/317 491/1266/317 493/1267/317 497/1268/317
f 492/1269/318 496/1270/318 498/1271/318 494/1272/318
usemtl common_table
f 502/1273/319 500/1274/319 499/1275/319 501/1276/319
f 505/1277/320 503/1278/320 504/1279/320 506/1280/320
f 502/1281/321 501/1282/321 505/1283/321 506/1284/321
f 501/1285/322 499/1286/322 503/1287/322 505/1288/322
f 506/1289/323 504/1290/323 500/1291/323 502/1292/323
f 510/1293/324 508/1294/324 507/1295/324 509/1296/324
f 513/1297/325 511/1298/325 512/1299/325 514/1300/325
f 510/1301/326 509/1302/326 513/1303/326 514/1304/326
f 509/1305/327 507/1306/327 511/1307/327 513/1308/327
f 514/1309/328 512/1310/328 508/1311/328 510/1312/328
f 518/1313/329 516/1314/329 515/1315/329 517/1316/329
f 521/1317/330 519/1318/330 520/1319/330 522/1320/330
f 518/1321/331 517/1322/331 521/1323/331 522/1324/331
f 517/1325/332 515/1326/332 519/1327/332 521/1328/332
f 522/1329/333 520/1330/333 516/1331/333 518/1332/333
f 526/1333/334 524/1334/334 523/1335/334 525/1336/334
f 529/1337/335 527/1338/335 528/1339/335 530/1340/335
f 526/1341/336 525/1342/336 529/1343/336 530/1344/336
f 525/1345/337 523/1346/337 527/1347/337 529/1348/337
f 530/1349/338 528/1350/338 524/1351/338 526/1352/338
f 533/1353/339 531/1354/339 226/1355/339 532/1356/339
f 535/1357/340 235/1358/340 534/1359/340 536/1360/340
f 532/1361/341 226/1362/341 235/1363/341 535/1364/341
f 536/1365/342 534/1366/342 531/1367/342 533/1368/342
f 235/1369/343 226/1370/343 531/1371/343 534/1372/343
f 536/1373/344 533/1374/344 532/1375/344 535/1376/344
usemtl arithmetic_logic_machine
f 537/1377/345 538/1378/345 540/1379/345 539/1380/345
f 544/1381/346 542/1382/346 541/1383/346 543/1384/346
f 547/1385/347 545/1386/347 546/1387/347 548/1388/347
f 541/1389/348 542/1390/348 546/1391/348 545/1392/348
f 544/1393/349 543/1394/349 547/1395/349 548/1396/349
f 548/1397/350 546/1398/350 542/1399/350 544/1400/350
f 552/1401/351 550/1402/351 549/1403/351 551/1404/351
f 555/1405/352 553/1406/352 554/1407/352 556/1408/352
f 549/1409/353 550/1410/353 554/1411/353 553/1412/353
f 552/1413/354 551/1414/354 555/1415/354 556/1416/354
f 556/1417/355 554/1418/355 550/1419/355 552/1420/355
f 560/1421/356 558/1422/356 557/1423/356 559/1424/356
f 563/1425/357 561/1426/357 562/1427/357 564/1428/357
f 557/1429/358 558/1430/358 562/1431/358 561/1432/358
f 560/1433/359 559/1434/359 563/1435/359 564/1436/359
f 564/1437/360 562/1438/360 558/1439/360 560/1440/360
f 568/1441/361 566/1442/361 565/1443/361 567/1444/361
f 571/1445/362 569/1446/362 570/1447/362 572/1448/362
f 565/1449/363 566/1450/363 570/1451/363 569/1452/363
f 568/1453/364 567/1454/364 571/1455/364 572/1456/364
f 572/1457/365 570/1458/365 566/1459/365 568/1460/365
f 576/1461/366 574/1462/366 573/1463/366 575/1464/366
f 579/1465/367 577/1466/367 578/1467/367 580/1468/367
f 573/1469/368 574/1470/368 578/1471/368 577/1472/368
f 576/1473/369 575/1474/369 579/1475/369 580/1476/369
f 580/1477/370 578/1478/370 574/1479/370 576/1480/370
usemtl common_steel
f 581/1481/371 320/1482/371 319/1483/371 582/1484/371
f 319/1485/372 318/1486/372 583/1487/372 582/1488/372
f 582/1489/373 583/1490/373 584/1491/373 581/1492/373
f 581/1493/374 584/1494/374 321/1495/374 320/1496/374
usemtl common_thingies
f 588/1497/375 586/1498/375 585/1499/375 587/1500/375
f 591/1501/376 589/1502/376 590/1503/376 592/1504/376
f 585/1505/377 586/1506/377 590/1507/377 589/1508/377
f 588/1509/378 587/1510/378 591/1511/378 592/1512/378
f 587/1513/379 585/1514/379 589/1515/379 591/1516/379
f 596/1517/380 594/1518/380 593/1519/380 595/1520/380
f 593/1521/381 594/1522/381 598/1523/381 597/1524/381
f 596/1525/382 595/1526/382 599/1527/382 600/1528/382
f 595/1529/383 593/1530/383 597/1531/383 599/1532/383
f 600/1533/384 598/1534/384 594/1535/384 596/1536/384
f 604/1537/385 602/1538/385 601/1539/385 603/1540/385
f 603/1541/386 601/1542/386 605/1543/386 607/1544/386
f 608/1545/387 606/1546/387 602/1547/387 604/1548/387
f 609/1549/388 610/1550/388 614/1551/388 613/1552/388
f 612/1553/389 611/1554/389 615/1555/389 616/1556/389
f 611/1557/390 609/1558/390 613/1559/390 615/1560/390
f 616/1561/391 614/1562/391 610/1563/391 612/1564/391
f 620/1565/392 618/1566/392 617/1567/392 619/1568/392
f 619/1569/393 617/1570/393 621/1571/393 623/1572/393
f 624/1573/394 622/1574/394 618/1575/394 620/1576/394
usemtl common_copper_cable
f 628/1577/395 626/1578/395 625/1579/395 627/1580/395
f 631/1581/396 629/1582/396 630/1583/396 632/1584/396
f 632/1585/397 630/1586/397 626/1587/397 628/1588/397
usemtl metal
f 636/1589/398 634/1590/398 633/1591/398 635/1592/398
f 639/1593/399 637/1594/399 638/1595/399 640/1596/399
f 633/1597/400 634/1598/400 638/1599/400 637/1600/400
f 636/1601/401 635/1602/401 639/1603/401 640/1604/401
f 635/1605/402 633/1606/402 637/1607/402 639/1608/402
f 640/1609/403 638/1610/403 634/1611/403 636/1612/403
usemtl wooden
f 644/1613/404 642/1614/404 641/1615/404 643/1616/404
f 647/1617/405 645/1618/405 646/1619/405 648/1620/405
f 641/1621/406 642/1622/406 646/1623/406 645/1624/406
f 644/1625/407 643/1626/407 647/1627/407 648/1628/407
f 643/1629/408 641/1630/408 645/1631/408 647/1632/408
f 648/1633/409 646/1634/409 642/1635/409 644/1636/409
usemtl common_thingies
f 612/1637/410 610/1638/410 609/1639/410 611/1640/410
usemtl common_table
f 240/1641/411 649/1642/411 650/1643/411 227/1644/411
usemtl common_steel
f 227/1645/412 650/1646/412 651/1647/412 228/1648/412
usemtl common_table
f 294/1649/413 652/1650/413 649/1651/413 240/1652/413
usemtl arithmetic_logic_machine
f 653/1653/414 659/1654/414 660/1655/414 655/1656/414
f 657/1657/415 654/1658/415 656/1659/415 658/1660/415
f 654/1661/416 653/1662/416 655/1663/416 656/1664/416
f 659/1665/417 657/1666/417 658/1667/417 660/1668/417
usemtl common_copper_cable
f 661/1669/418 662/1670/418 666/1671/418 665/1672/418
f 664/1673/419 663/1674/419 667/1675/419 668/1676/419
f 663/1677/420 661/1678/420 665/1679/420 667/1680/420
f 668/1681/421 666/1682/421 662/1683/421 664/1684/421
f 669/1685/422 670/1686/422 664/1687/422 663/1688/422
f 672/1689/423 671/1690/423 673/1691/423 674/1692/423
f 671/1693/424 669/1694/424 663/1695/424 673/1696/424
f 674/1697/425 664/1698/425 670/1699/425 672/1700/425
f 675/1701/426 676/1702/426 670/1703/426 669/1704/426
f 678/1705/427 677/1706/427 671/1707/427 672/1708/427
f 677/1709/428 675/1710/428 669/1711/428 671/1712/428
f 672/1713/429 670/1714/429 676/1715/429 678/1716/429
f 681/1717/430 680/1718/430 683/1719/430 684/1720/430
f 684/1721/431 682/1722/431 679/1723/431 681/1724/431
f 687/1725/432 686/1726/432 688/1727/432 689/1728/432
f 689/1729/433 681/1730/433 685/1731/433 687/1732/433
f 692/1733/434 691/1734/434 686/1735/434 687/1736/434
f 687/1737/435 685/1738/435 690/1739/435 692/1740/435
usemtl common_table
f 696/1741/436 694/1742/436 693/1743/436 695/1744/436
f 699/1745/437 697/1746/437 698/1747/437 700/1748/437
f 696/1749/438 695/1750/438 699/1751/438 700/1752/438
f 700/1753/439 698/1754/439 694/1755/439 696/1756/439
usemtl common_steel
f 705/1757/440 703/1758/440 704/1759/440 706/1760/440
f 708/1761/441 709/1762/441 710/1763/441 702/1764/441
f 707/1765/442 708/1766/442 702/1767/442 701/1768/442
f 711/1769/443 707/1770/443 701/1771/443 712/1772/443
f 709/1773/444 711/1774/444 712/1775/444 710/1776/444
usemtl common_thingies
f 714/1777/445 713/1778/445 715/1779/445 716/1780/445
f 719/1781/446 717/1782/446 718/1783/446 720/1784/446
f 717/1785/447 713/1786/447 714/1787/447 718/1788/447
f 715/1789/448 713/1790/448 717/1791/448 719/1792/448
f 718/1793/449 714/1794/449 716/1795/449 720/1796/449
usemtl common_steel
f 709/1797/450 705/1798/450 706/1799/450 711/1800/450
f 711/1801/451 706/1802/451 704/1803/451 707/1804/451
f 707/1805/452 704/1806/452 703/1807/452 708/1808/452
f 708/1809/453 703/1810/453 705/1811/453 709/1812/453