# Made by Pabilo8 with Blockbench
# Exported with IIToolkit Plugin
mtllib arithmetic_logic_machine.mtl


o main
v 0.808332832320158 -0.3749999999999998 -0.15940824504115456
v 0.9858424227601097 -0.3749999999999998 -0.7586705793337752
v 0.808332832320158 -0.6874999999999998 -0.15940824504115456
v 0.9858424227601097 -0.6874999999999998 -0.7586705793337752
v 1.6473001003298269 -0.3749999999999998 0.08910518157477776
v 1.8248096907697784 -0.3749999999999998 -0.5101571527178429
v 1.6473001003298269 -0.6874999999999998 0.08910518157477776
v 1.8248096907697784 -0.6874999999999998 -0.5101571527178429
v 1.75 0.234375 -1.1102230246251565e-16
v 1.75 0.234375 -0.06250000000000011
v 1.75 0.109375 -1.1102230246251565e-16
v 1.75 0.109375 -0.06250000000000011
v 1.875 0.234375 -1.1102230246251565e-16
v 1.875 0.234375 -0.06250000000000011
v 1.875 0.109375 -1.1102230246251565e-16
v 1.875 0.109375 -0.06250000000000011
v 0 2 0.9999999999999998
v 2.220446049250313e-16 2 0
v 2 2 1
v 2 2 -5.551115123125783e-17
v 2.220446049250313e-16 1.9375000000000002 0
v 2.220446049250313e-16 0 0
v 0.0625 1.9375000000000002 0.9374999999999998
v 0.0625 1.9375000000000002 0
v 0.0625 0 0.9374999999999998
v 0.0625 0 0
v 1.9375 1.9375000000000002 0.9375
v 1.9375 1.9375000000000002 -5.551115123125783e-17
v 1.9375 0 -5.551115123125783e-17
v 2 1.9375000000000002 -5.551115123125783e-17
v 2 0 -5.551115123125783e-17
v 0 0 0.9999999999999998
v 2 0 1
v 1.9375 0 0.9375
v 1.9375 0.96875 0.9375
v 0.0625 0.96875 0.9374999999999998
v 2.220446049250313e-16 1.375 2
v 0 1.375 0.9999999999999998
v 2.220446049250313e-16 -0.375 2
v 0 -0.375 0.9999999999999998
v 0.9999999999999999 1.375 1.9999999999999998
v 0.9999999999999999 -0.375 1.9999999999999998
v 2.220446049250313e-16 1.9375000000000002 2
v 0 1.9375000000000002 1.8749999999999998
v 0 1.375 1.8749999999999998
v 0.125 1.9375000000000002 1.9999999999999998
v 0.06250000000000022 1.9375000000000002 1.9374999999999998
v 0.125 1.375 1.9999999999999998
v 0.06250000000000022 1.375 1.9374999999999998
v 0.875 1.9375000000000002 1.9999999999999998
v 0.875 1.9375000000000002 1.9375000000000002
v 0.875 1.375 1.9999999999999998
v 0.875 1.375 1.9375000000000002
v 0.9999999999999999 1.9375000000000002 1.9999999999999998
v -2.220446049250313e-16 1.9375000000000002 1.125
v 0 1.9375000000000002 0.9999999999999998
v -2.220446049250313e-16 1.375 1.125
v 0.0625 1.9375000000000002 1.125
v 0.0625 1.375 1.125
v -2.220446049250313e-16 -0.375 1.125
v -2.220446049250313e-16 -0.6875 1.125
v 0 -0.6875 0.9999999999999998
v 0.0625 -0.375 1.125
v 0.0625 -0.6875 1.125
v 0 -0.375 1.8749999999999998
v 2.220446049250313e-16 -0.6875 2
v 0 -0.6875 1.8749999999999998
v 0.125 -0.375 1.9999999999999998
v 0.06250000000000022 -0.375 1.9374999999999998
v 0.125 -0.6875 1.9999999999999998
v 0.06250000000000022 -0.6875 1.9374999999999998
v 0.875 -0.375 1.9999999999999998
v 0.875 -0.375 1.9375000000000002
v 0.875 -0.6875 1.9999999999999998
v 0.875 -0.6875 1.9375000000000002
v 0.9999999999999999 -0.6875 1.9999999999999998
v 2.220446049250313e-16 2 2
v 0.9999999999999999 2 1.9999999999999998
v 1 2 1
v 2.220446049250313e-16 -1 2
v 0 -1 0.9999999999999998
v 0.9999999999999999 -1 1.9999999999999998
v 1 -1 1
v 0.9999999999999999 1 1.9999999999999998
v 1 1 1
v 2 1 2
v 2 1 1
v 2 -1 2
v 2 -1 1
v 0.0625 0.25 0.9374999999999998
v 1.9375 0.25 0.9375
v 2.220446049250313e-16 -1 0
v 2 -1 -5.551115123125783e-17
v 1 -1 -5.551115123125783e-17
v 1 0 -5.551115123125783e-17
v 0 -0.125 0.12499999999999989
v 0 -0.125 0.8749999999999998
v 0 -0.875 0.12499999999999989
v 0 -0.875 0.8749999999999998
v 0.0625 -0.125 0.125
v 0.0625 -0.125 0.875
v 0.0625 -0.875 0.125
v 0.0625 -0.875 0.875
v 1.9375 -0.125 0.12499999999999994
v 1.9374999999999998 -0.125 0.8749999999999998
v 1.9375 -0.875 0.12499999999999994
v 1.9374999999999998 -0.875 0.8749999999999998
v 2 -0.125 0.12499999999999994
v 1.9999999999999998 -0.125 0.8749999999999998
v 1.9999999999999998 -0.875 0.8749999999999998
v 2 -0.875 0.12499999999999994
v 0.0625 0.3125 0
v 1.9375 0.3125 -5.551115123125783e-17
v 1.1875 0.3125 -5.551115123125783e-17
v 1.1875 0 0
v 0.1870833333333335 0 -1.1102230246251565e-16
v 0.18687500000000012 0.3125 -1.1102230246251565e-16
v 0.0625 0.3125 0.9999999999999998
v 1.9374999999999998 0.3125 0.9999999999999998
v 0.1097983860464593 0.4375 0.8692964595104378
v 0.3214800446961684 0.4375 0.020287699018940786
v 0.1097983860464593 0.3125 0.8692964595104378
v 0.3214800446961684 0.3125 0.020287699018940786
v 0.23108535183095857 0.4375 0.8995366964603961
v 0.4427670104806679 0.4375 0.05052793596889915
v 0.23108535183095857 0.3125 0.8995366964603961
v 0.4427670104806679 0.3125 0.05052793596889915
v 0.3030689235794428 0.4375 0.869174202766188
v 0.5147505822291523 0.4375 0.02016544227469108
v 0.3030689235794428 0.3125 0.869174202766188
v 0.5147505822291523 0.3125 0.02016544227469108
v 0.42435588936394253 0.4375 0.8994144397161465
v 0.6360375480136518 0.4375 0.05040567922464967
v 0.42435588936394253 0.3125 0.8994144397161465
v 0.6360375480136518 0.3125 0.05040567922464967
v 0.4811785903893643 0.4375 0.8652719164031939
v 0.6928602490390736 0.4375 0.016263155911696803
v 0.4811785903893643 0.3125 0.8652719164031939
v 0.6928602490390736 0.3125 0.016263155911696803
v 0.6024655561738638 0.4375 0.895512153353152
v 0.814147214823573 0.4375 0.046503392861655335
v 0.6024655561738638 0.3125 0.895512153353152
v 0.814147214823573 0.3125 0.046503392861655335
v 0.6706690983036032 0.4375 0.8803105303820065
v 0.8823507569533124 0.4375 0.03130176989050959
v 0.6706690983036032 0.3125 0.8803105303820065
v 0.8823507569533124 0.3125 0.03130176989050959
v 0.7919560640881027 0.4375 0.9105507673319648
v 1.003637722737812 0.4375 0.0615420068404679
v 0.7919560640881027 0.3125 0.9105507673319648
v 1.003637722737812 0.3125 0.0615420068404679
v 1.0625 0.8125 0.9375000000000002
v 1.0625 0.8125 0.12499999999999994
v 1.0625 0.3125 0.9375000000000002
v 1.0625 0.3125 0.12499999999999994
v 1.8125 0.8125 0.9375
v 1.8125 0.8125 0.125
v 1.8125 0.3125 0.9375
v 1.8125 0.3125 0.125
v 1.0625 1.6250000000000002 0.9375000000000002
v 1.0625 1.6250000000000002 0.12499999999999994
v 1.0625 1.9375000000000002 0.9375000000000002
v 1.0625 1.9375000000000002 0.12499999999999994
v 1.8125 1.6250000000000002 0.9375
v 1.8125 1.6250000000000002 0.125
v 1.8125 1.9375000000000002 0.9375
v 1.8125 1.9375000000000002 0.125
v 1.125 0.75 0.12499999999999994
v 1.125 0.75 0.0625
v 1.125 0.4375 0.12499999999999994
v 1.125 0.4375 0.0625
v 1.4375 0.75 0.12499999999999989
v 1.4375 0.75 0.062499999999999944
v 1.4375 0.4375 0.12499999999999989
v 1.4375 0.4375 0.062499999999999944
v 1.5 0.125 -0.25000000000000006
v 1.5 0.125 -0.4375
v 1.5 0.0625 -0.25000000000000006
v 1.5 0.0625 -0.4375
v 1.8125 0.125 -0.25000000000000006
v 1.8125 0.125 -0.4375
v 1.8125 0.0625 -0.25000000000000006
v 1.8125 0.0625 -0.4375
v 1.515625 0.1875 -0.2656250000000001
v 1.515625 0.1875 -0.421875
v 1.515625 0.125 -0.2656250000000001
v 1.515625 0.125 -0.421875
v 1.796875 0.1875 -0.26562500000000006
v 1.796875 0.1875 -0.421875
v 1.796875 0.125 -0.26562500000000006
v 1.796875 0.125 -0.421875
v 1.9835101238910027 0.0625 -0.25214552797320866
v 1.3619339392858318 0.0625 -0.18681523843092526
v 1.9835101238910027 0 -0.25214552797320866
v 1.3619339392858318 0 -0.18681523843092526
v 1.9181798343487193 0.0625 -0.8737217125783798
v 1.2966036497435485 0.0625 -0.8083914230360962
v 1.9181798343487193 0 -0.8737217125783798
v 1.2966036497435485 0 -0.8083914230360962
v 1.1813371323411364 0.03125 0.008219519681331167
v 0.06250000005182876 0.03125 -0.10937500149477886
v 1.1813371323411364 -0.03125 0.008219519681331167
v 0.06250000005182876 -0.03125 -0.10937500149477886
v 1.2727995377003332 0.03125 -0.8619871387659082
v 0.15396240541102535 0.03125 -0.9795816599420184
v 1.2727995377003332 -0.03125 -0.8619871387659082
v 0.15396240541102535 -0.03125 -0.9795816599420184
v 1.90625 1.7609077566708955 0.7499047987151402
v 1.90625 1.7500000026475935 0.12499998924239564
v 1.90625 1.0110219853036022 0.7629941035431027
v 1.90625 1.0001142312803002 0.13808929407035814
v 1.96875 1.7609077566708955 0.7499047987151399
v 1.96875 1.7500000026475935 0.12499998924239564
v 1.96875 1.0110219853036022 0.7629941035431027
v 1.96875 1.0001142312803002 0.13808929407035814
v 1.1875 1.5000000000000002 0.84375
v 1.1875 1.5000000000000002 0.2187499999999999
v 1.1875 0.875 0.84375
v 1.1875 0.875 0.2187499999999999
v 1.25 1.5000000000000002 0.84375
v 1.25 1.5000000000000002 0.21875
v 1.25 0.875 0.84375
v 1.25 0.875 0.21875
v 1.125 1.3125 0.71875
v 1.125 1.3125 0.53125
v 1.125 1.125 0.71875
v 1.125 1.125 0.53125
v 1.1875 1.3125 0.71875
v 1.1875 1.3125 0.53125
v 1.1875 1.125 0.71875
v 1.1875 1.125 0.53125
v 1.125 0.875 0.875
v 1.125 0.875 0.1875
v 1.125 0.8125 0.875
v 1.125 0.8125 0.1875
v 1.3125 0.875 0.875
v 1.3125 0.875 0.1874999999999999
v 1.3125 0.8125 0.875
v 1.3125 0.8125 0.1874999999999999
v 1.4375 1.5000000000000002 0.84375
v 1.4375 1.5000000000000002 0.2187499999999999
v 1.4375 0.875 0.84375
v 1.4375 0.875 0.2187499999999999
v 1.5 1.5000000000000002 0.84375
v 1.5 1.5000000000000002 0.2187499999999999
v 1.5 0.875 0.84375
v 1.5 0.875 0.2187499999999999
v 1.375 1.3125 0.71875
v 1.375 1.3125 0.53125
v 1.375 1.125 0.71875
v 1.375 1.125 0.53125
v 1.4375 1.3125 0.7187499999999998
v 1.4375 1.3125 0.53125
v 1.4375 1.125 0.7187499999999998
v 1.4375 1.125 0.53125
v 1.375 0.875 0.8750000000000002
v 1.375 0.875 0.1874999999999999
v 1.375 0.8125 0.8750000000000002
v 1.375 0.8125 0.1874999999999999
v 1.5625 0.875 0.875
v 1.5625 0.875 0.1875
v 1.5625 0.8125 0.875
v 1.5625 0.8125 0.1875
v 1.59375 1.6250000000000002 0.875
v 1.59375 1.6250000000000002 0.6875
v 1.59375 1.5625000000000002 0.875
v 1.59375 1.5625000000000002 0.6875
v 1.78125 1.6250000000000002 0.8750000000000002
v 1.78125 1.6250000000000002 0.6875
v 1.78125 1.5625000000000002 0.8750000000000002
v 1.78125 1.5625000000000002 0.6875
v 1.59375 0.875 0.875
v 1.59375 0.875 0.6875
v 1.59375 0.8125 0.875
v 1.59375 0.8125 0.6875
v 1.78125 0.875 0.8750000000000002
v 1.78125 0.875 0.6875
v 1.78125 0.8125 0.8750000000000002
v 1.78125 0.8125 0.6875
v 1 1.9375000000000002 0.9375
v 1 1.9375000000000002 0.3124999999999999
v 1 1.8125000000000002 0.9375
v 1 1.8125000000000002 0.3124999999999999
v 1.0625 1.9375000000000002 0.3125
v 1.0625 1.8125000000000002 0.9375000000000002
v 1.0625 1.8125000000000002 0.3125
v 0.0625 0.375 0.9374999999999998
v 0.06249999999999978 0.375 0.3124999999999999
v 0.18749999999999978 0.375 0.9375
v 0.18749999999999978 0.375 0.3125
v 0.06249999999999978 0.3125 0.9374999999999998
v 0.06249999999999978 0.3125 0.3124999999999999
v 0.18749999999999978 0.3125 0.9375
v 0.18749999999999978 0.3125 0.3125
v 0.06249999999999978 -0.1875 -0.06250000000000006
v 0.06249999999999978 -0.1875 -0.25000000000000006
v 0.06249999999999978 -1 -0.06250000000000006
v 0.06249999999999978 -1 -0.25000000000000006
v 0.25 -0.1875 -0.0625
v 0.24999999999999978 -0.1875 -0.25000000000000006
v 0.25 -1 -0.0625
v 0.24999999999999978 -1 -0.25000000000000006
v 0.0625 -0.1875 -0.75
v 0.0625 -0.1875 -0.9375
v 0.0625 -1 -0.75
v 0.0625 -1 -0.9375
v 0.25 -0.1875 -0.75
v 0.25 -0.1875 -0.9375
v 0.25 -1 -0.75
v 0.25 -1 -0.9375
v 1.75 -0.1875 -0.7500000000000001
v 1.75 -0.1875 -0.9375000000000002
v 1.75 -1 -0.7500000000000001
v 1.75 -1 -0.9375000000000002
v 1.9375 -0.1875 -0.7500000000000001
v 1.9375 -0.1875 -0.9375000000000002
v 1.9375 -1 -0.7500000000000001
v 1.9375 -1 -0.9375000000000002
v 1.75 -0.1875 -0.06250000000000011
v 1.75 -0.1875 -0.2500000000000001
v 1.75 -1 -0.06250000000000011
v 1.75 -1 -0.2500000000000001
v 1.9375 -0.1875 -0.06250000000000011
v 1.9375 -0.1875 -0.2500000000000001
v 1.9375 -1 -0.06250000000000011
v 1.9375 -1 -0.2500000000000001
v -2.220446049250313e-16 0 -1
v 2.220446049250313e-16 -0.1875 0
v -2.220446049250313e-16 -0.1875 -1
v 2 0 -1
v 2 -0.1875 -5.551115123125783e-17
v 2 -0.1875 -1
v 1.059375 1.9375000000000002 0.44062499999999993
v 1.059375 1.9375000000000002 0.1187499999999998
v 1.5 1.9375000000000002 0.44062500000000004
v 1.5 1.9375000000000002 0.11874999999999986
v 1.125 1.8750000000000002 0.1218749999999999
v 1.125 1.8750000000000002 0.028124999999999845
v 1.125 1.8125000000000002 0.1218749999999999
v 1.125 1.8125000000000002 0.028124999999999845
v 1.1875 1.8750000000000002 0.12187499999999979
v 1.1875 1.8750000000000002 0.028124999999999845
v 1.1875 1.8125000000000002 0.12187499999999979
v 1.1875 1.8125000000000002 0.028124999999999845
v 1.21875 1.8750000000000002 0.12187499999999984
v 1.21875 1.8750000000000002 0.028124999999999845
v 1.21875 1.8125000000000002 0.12187499999999984
v 1.21875 1.8125000000000002 0.028124999999999845
v 1.28125 1.8750000000000002 0.12187499999999984
v 1.28125 1.8750000000000002 0.028124999999999845
v 1.28125 1.8125000000000002 0.12187499999999984
v 1.28125 1.8125000000000002 0.028124999999999845
v 1.3125 1.8750000000000002 0.12187499999999984
v 1.3125 1.8750000000000002 0.028124999999999956
v 1.3125 1.8125000000000002 0.12187499999999984
v 1.3125 1.8125000000000002 0.028124999999999956
v 1.375 1.8750000000000002 0.12187499999999984
v 1.375 1.8750000000000002 0.028124999999999845
v 1.375 1.8125000000000002 0.12187499999999984
v 1.375 1.8125000000000002 0.028124999999999845
v 1.40625 1.8750000000000002 0.1218749999999999
v 1.40625 1.8750000000000002 0.028124999999999845
v 1.40625 1.8125000000000002 0.1218749999999999
v 1.40625 1.8125000000000002 0.028124999999999845
v 1.46875 1.8750000000000002 0.12187499999999984
v 1.46875 1.8750000000000002 0.0281249999999999
v 1.46875 1.8125000000000002 0.12187499999999984
v 1.46875 1.8125000000000002 0.0281249999999999
v 1.515625 1.8437500000000002 0.12187500000000001
v 1.515625 1.8437500000000002 0.028125000000000067
v 1.515625 1.7187500000000002 0.12187500000000001
v 1.515625 1.7187500000000002 0.028125000000000067
v 1.640625 1.8437500000000002 0.12187499999999996
v 1.640625 1.8437500000000002 0.028124999999999956
v 1.640625 1.7187500000000002 0.12187499999999996
v 1.640625 1.7187500000000002 0.028124999999999956
v 0.1875 0 1
v 1.1875 0 0.9999999999999998
v 1.1875 0.3125 0.9999999999999998
v 0.1875 0.3125 1
v 1 1.7500000000000002 1.0624999999999998
v 1 1.7500000000000002 1
v 1 1.125 1.0624999999999998
v 1 1.125 1
v 1.875 1.7500000000000002 1.0625
v 1.875 1.7500000000000002 0.9999999999999998
v 1.875 1.125 1.0625
v 1.875 1.125 0.9999999999999998
v 2.0015625 -0.25 0.25
v 2.0015625 -0.25 0.75
v 2.0015625 -0.75 0.25
v 2.0015625 -0.75 0.75
v 1.9375 -0.25 0.2499999999999999
v 1.9375 -0.25 0.75
v 1.9375 -0.75 0.2499999999999999
v 1.9375 -0.75 0.75
v 2.0015625 -0.0625 0.3749999999999999
v 2.0015625 -0.0625 0.625
v 2.0015625 -0.25 0.3749999999999999
v 2.0015625 -0.25 0.625
v 1.9375 -0.0625 0.375
v 1.9375 -0.0625 0.625
v 1.9375 -0.25 0.375
v 1.9375 -0.25 0.625
v -0.0015624999999999112 -0.25 0.75
v -0.0015624999999999112 -0.25 0.25
v -0.0015624999999999112 -0.75 0.75
v -0.0015624999999999112 -0.75 0.25
v 0.0625 -0.25 0.7499999999999998
v 0.0625 -0.25 0.2499999999999999
v 0.0625 -0.75 0.7499999999999998
v 0.0625 -0.75 0.2499999999999999
v -0.0015624999999999112 -0.0625 0.625
v -0.0015624999999999112 -0.0625 0.375
v -0.0015624999999999112 -0.25 0.625
v -0.0015624999999999112 -0.25 0.375
v 0.06249999999999978 -0.0625 0.6249999999999999
v 0.0625 -0.0625 0.3749999999999998
v 0.06249999999999978 -0.25 0.6249999999999999
v 0.0625 -0.25 0.3749999999999998
v 1.625 1.5625000000000002 0.8124999999999998
v 1.6249999999999998 1.5625000000000002 0.7499999999999998
v 1.625 0.8125 0.8124999999999998
v 1.6249999999999998 0.8125 0.7499999999999998
v 1.75 1.5625000000000002 0.8125
v 1.75 1.5625000000000002 0.7499999999999998
v 1.75 0.8125 0.8125
v 1.75 0.8125 0.7499999999999998
v 1.9069103193718848 -0.6875 -0.2556356225311923
v 1.3124999966874136 -0.6875 -0.06250000104685005
v 1.9069103193718848 -1 -0.2556356225311923
v 1.3124999966874136 -1 -0.06250000104685005
v 1.6365204492938057 -0.6875 -1.0878100742894516
v 1.0421101266093347 -0.6875 -0.8946744528051097
v 1.6365204492938057 -1 -1.0878100742894516
v 1.0421101266093347 -1 -0.8946744528051097
v 0.4125014452604574 -0.6874999999999998 0.005751271084018461
v 0.1385194785172843 -0.6874999999999998 -0.5559950078529609
v 0.4125014452604574 -0.9999999999999998 0.005751271084018461
v 0.1385194785172843 -0.9999999999999998 -0.5559950078529609
v 1.1989462357722287 -0.6874999999999998 -0.37782348235642427
v 0.9249642690290553 -0.6874999999999998 -0.9395697612934036
v 1.1989462357722287 -0.9999999999999998 -0.37782348235642427
v 0.9249642690290553 -0.9999999999999998 -0.9395697612934036
v 1 0.96875 0.9375
v 1 1.9375000000000002 0.9375
v 1 1.9375000000000002 -5.551115123125783e-17
v 1 0.25 0.9375
v 1.515625 0.1875 -0.2656250000000001
v 1.796875 0.1875 -0.26562500000000006
v 1.515625 0.125 -0.2656250000000001
v 1.796875 0.125 -0.26562500000000006
v 1.796875 0.1875 -0.421875
v 1.796875 0.125 -0.421875
v 1.515625 0.1875 -0.421875
v 1.515625 0.125 -0.421875
v 0.0625 1.9375000000000002 0.5624999999999998
v 0.0625 1.9375000000000002 0.3749999999999998
v 0.0625 1.8750000000000002 0.5624999999999998
v 0.0625 1.8750000000000002 0.3749999999999998
v 1 1.9375000000000002 0.5625
v 1 1.9375000000000002 0.3749999999999998
v 1 1.8750000000000002 0.5625
v 1 1.8750000000000002 0.3749999999999998
v 0.06249999999999978 0.875 0.5625
v 0.06249999999999978 0.875 0.375
v 0.12499999999999978 0.875 0.5624999999999998
v 0.12499999999999978 0.875 0.37499999999999956
v 0.125 1.8750000000000002 0.5624999999999999
v 0.125 1.8750000000000002 0.375
v 0.062499999999999556 0.3125 0.5624999999999997
v 0.06249999999999978 0.3125 0.375
v 0.12499999999999956 0.3125 0.5624999999999998
v 0.12499999999999978 0.3125 0.37499999999999956
v 0.0625 1.9375000000000002 0.7499999999999998
v 0.0625 1.8750000000000002 0.9374999999999998
v 0.0625 1.8750000000000002 0.7499999999999998
v 0.9999999999999999 1.9375000000000002 0.7499999999999998
v 1 1.8750000000000002 0.9375
v 0.9999999999999999 1.8750000000000002 0.7499999999999998
v 0.06249999999999978 0.875 0.75
v 0.12499999999999978 0.875 0.9374999999999998
v 0.12499999999999978 0.875 0.75
v 0.125 1.8750000000000002 0.9375
v 0.12499999999999978 1.8750000000000002 0.75
v 0.06249999999999978 0.3125 0.75
v 0.12499999999999978 0.3125 0.9374999999999998
v 0.12499999999999978 0.3125 0.75
v 0.25 -0.1875 5.551115123125783e-17
v 0.25 -0.1875 -0.875
v 0.25 -0.4375 5.551115123125783e-17
v 0.25 -0.4375 -0.875
v 1 -0.1875 -5.551115123125783e-17
v 1 -0.1875 -0.875
v 1 -0.4375 -5.551115123125783e-17
v 1 -0.4375 -0.875
v 0.9999999999999999 2 1.9999999999999998
v 1 2 1
v 0.8749999999999991 1.937500000000001 1.125
v 0.8749999999999991 1.937500000000001 1.8750000000000002
v 0.12500000000000044 1.9375000000000002 1.1249999999999998
v 0.12500000000000044 1.9375000000000002 1.8749999999999998
v 0.875 1.9999999999999993 1.8749999999999998
v 0.875 1.9999999999999993 1.125
v 0.1250000000000009 2.000000000000001 1.125
v 1.1102230246251565e-15 2 1
v 0.1250000000000009 2.000000000000001 1.8749999999999998
v 8.881784197001252e-16 2 2
v 0.25 2.0062499999999996 1.7500000000000002
v 0.25 2.0062499999999996 1.25
v 0.25 1.9437499999999999 1.7500000000000002
v 0.25 1.9437499999999999 1.25
v 0.7500000000000001 2.0062499999999996 1.7499999999999993
v 0.75 2.0062499999999996 1.2499999999999998
v 0.7500000000000001 1.9437499999999999 1.7499999999999993
v 0.75 1.9437499999999999 1.2499999999999998
vt 0.3125 0.25
vt 0 0.25
vt 0 0.09375
vt 0.3125 0.09375
vt 0.3125 0.25
vt 0 0.25
vt 0 0.09375
vt 0.3125 0.09375
vt 0.4375 0.6875
vt 0.875 0.6875
vt 0.875 1
vt 0.4375 1
vt 0.4375 0.6875
vt 0.875 0.6875
vt 0.875 1
vt 0.4375 1
vt 0.875 0.6875
vt 0.4375 0.6875
vt 0.4375 0.53125
vt 0.875 0.53125
vt 0.875 0.53125
vt 0.4375 0.53125
vt 0.4375 0.375
vt 0.875 0.375
vt 0.75 0.640625
vt 0.734375 0.640625
vt 0.734375 0.609375
vt 0.75 0.609375
vt 0.734375 0.640625
vt 0.71875 0.640625
vt 0.71875 0.609375
vt 0.734375 0.609375
vt 0.71875 0.625
vt 0.75 0.625
vt 0.75 0.640625
vt 0.71875 0.640625
vt 0.71875 0.625
vt 0.75 0.625
vt 0.75 0.609375
vt 0.71875 0.609375
vt 0.75 0.640625
vt 0.71875 0.640625
vt 0.71875 0.609375
vt 0.75 0.609375
vt 0.5 0
vt 0 0
vt 0 0.25
vt 0.5 0.25
vt 1 1
vt 0.765625 1
vt 0.765625 0.515625
vt 1 0.515625
vt 0.9843749999999991 0.484375
vt 0.9999999999999991 0.484375
vt 0.9999999999999991 0
vt 0.9843749999999991 0
vt 1 0.484375
vt 0.984375 0.484375
vt 0.984375 0
vt 1 0
vt 0.5 0.015625
vt 0 0.015625
vt 0 0
vt 0.5 0
vt 0.40625 0.1875
vt 0.65625 0.1875
vt 0.65625 0.6875
vt 0.40625 0.6875
vt 0.65625 0.1875
vt 0.65625 0.6875
vt 0.40625 0.6875
vt 0.40625 0.1875
vt 0.75 1
vt 0.984375 1
vt 0.984375 0.515625
vt 0.75 0.515625
vt 0.25 0.25
vt 0.25 0.015625
vt 0.015625 0.015625
vt 0.015625 0.25
vt 0.515625 0.75
vt 0.515625 1
vt 0.75 1
vt 0.75 0.75
vt 0.75 0.625
vt 1 0.625
vt 1 0.1875
vt 0.75 0.1875
vt 0.75 0.625
vt 1 0.625
vt 1 0.1875
vt 0.75 0.1875
vt 0.75 0.765625
vt 0.78125 0.765625
vt 0.78125 0.625
vt 0.75 0.625
vt 0.96875 0.765625
vt 1 0.765625
vt 1 0.625
vt 0.96875 0.625
vt 0.78125 0.765625
vt 0.75 0.765625
vt 0.75 0.625
vt 0.78125 0.625
vt 0.75 0.765625
vt 0.78125 0.765625
vt 0.78125 0.625
vt 0.75 0.625
vt 0.78125 0.765625
vt 0.75 0.765625
vt 0.75 0.625
vt 0.78125 0.625
vt 0.96875 0.765625
vt 1 0.765625
vt 1 0.625
vt 0.96875 0.625
vt 1 0.765625
vt 0.96875 0.765625
vt 0.96875 0.625
vt 1 0.625
vt 0.96875 0.1875
vt 1 0.1875
vt 1 0.109375
vt 0.96875 0.109375
vt 1 0.1875
vt 0.96875 0.1875
vt 0.96875 0.109375
vt 1 0.109375
vt 0.75 0.1875
vt 0.78125 0.1875
vt 0.78125 0.109375
vt 0.75 0.109375
vt 1 0.1875
vt 0.96875 0.1875
vt 0.96875 0.109375
vt 1 0.109375
vt 0.96875 0.1875
vt 1 0.1875
vt 1 0.109375
vt 0.96875 0.109375
vt 0.78125 0.1875
vt 0.75 0.1875
vt 0.75 0.109375
vt 0.78125 0.109375
vt 0.78125 0.1875
vt 0.75 0.1875
vt 0.75 0.109375
vt 0.78125 0.109375
vt 0.75 0.1875
vt 0.78125 0.1875
vt 0.78125 0.109375
vt 0.75 0.109375
vt 0.75 0.78125
vt 1 0.78125
vt 1 0.765625
vt 0.75 0.765625
vt 0.75 0.78125
vt 1 0.78125
vt 1 0.765625
vt 0.75 0.765625
vt 0.75 0.109375
vt 1 0.109375
vt 1 0.03125
vt 0.75 0.03125
vt 0.25 1
vt 0 1
vt 0 0.75
vt 0.25 0.75
vt 0.75 0.109375
vt 1 0.109375
vt 1 0.03125
vt 0.75 0.03125
vt 0.78125 0.625
vt 0.78125 0.765625
vt 0.96875 0.765625
vt 0.96875 0.625
vt 0.78125 0.625
vt 0.96875 0.625
vt 0.96875 0.765625
vt 0.78125 0.765625
vt 0.96875 0.625
vt 0.96875 0.609375
vt 0.78125 0.609375
vt 0.78125 0.625
vt 0.78125 0.765625
vt 0.78125 0.78125
vt 0.96875 0.78125
vt 0.96875 0.765625
vt 0.78125 0.78125
vt 0.78125 0.765625
vt 0.96875 0.765625
vt 0.96875 0.78125
vt 1 0.765625
vt 0.96875 0.765625
vt 0.96875 0.625
vt 1 0.625
vt 0.78125 0.625
vt 0.78125 0.640625
vt 0.96875 0.640625
vt 0.96875 0.625
vt 0.78125 0.109375
vt 0.78125 0.1875
vt 0.96875 0.1875
vt 0.96875 0.109375
vt 0.96875 0.1875
vt 0.96875 0.109375
vt 0.78125 0.109375
vt 0.78125 0.1875
vt 0.96875 0.203125
vt 0.96875 0.1875
vt 0.78125 0.1875
vt 0.78125 0.203125
vt 0.78125 0.1875
vt 0.78125 0.203125
vt 0.96875 0.203125
vt 0.96875 0.1875
vt 0.78125 0.09375
vt 0.78125 0.109375
vt 0.96875 0.109375
vt 0.96875 0.09375
vt 0.96875 0.109375
vt 0.96875 0.09375
vt 0.78125 0.09375
vt 0.78125 0.109375
vt 0 0.6875
vt 0.25 0.6875
vt 0.25 0.1875
vt 0 0.1875
vt 0.5 0.25
vt 0.75 0.25
vt 0.75 0
vt 0.5 0
vt 0 0.25
vt 1.3877787807814457e-17 0.5
vt 0.25 0.5
vt 0.25 0.25
vt 0 0.6875
vt 0.25 0.6875
vt 0.25 0.1875
vt 0 0.1875
vt 1 1
vt 0.75 1
vt 0.75 0.75
vt 1 0.75
vt 0.25 0.75
vt 0 0.75
vt 0 1
vt 0.25 1
vt 0.515625 0.28125
vt 0.515625 0.46875
vt 0.75 0.46875
vt 0.75 0.28125
vt 0.78125 0.21875
vt 0.96875 0.21875
vt 0.96875 0.03125
vt 0.78125 0.03125
vt 0.5 0.5
vt 0.75 0.5
vt 0.75 0.25
vt 0.5 0.25
vt 0.25 0
vt 0.25 0.25
vt 0.5 0.25
vt 0.5 0
vt 0.25 0.25
vt 0.25 0
vt 0 0
vt 0 0.25
vt 0.75 0.75
vt 0.5 0.75
vt 0.5 1
vt 0.75 1
vt 1 0
vt 0.96875 0.03125
vt 0.96875 0.21875
vt 1 0.25
vt 1 0.25
vt 0.96875 0.21875
vt 0.78125 0.21875
vt 0.75 0.25
vt 0.75 0.25
vt 0.78125 0.21875
vt 0.78125 0.03125
vt 0.75 0
vt 0.75 0
vt 0.78125 0.03125
vt 0.96875 0.03125
vt 1 0
vt 0.96875 0.21875
vt 0.984375 0.21875
vt 0.984375 0.03125
vt 0.96875 0.03125
vt 0.96875 0.234375
vt 0.96875 0.21875
vt 0.78125 0.21875
vt 0.78125 0.234375
vt 0.765625 0.21875
vt 0.78125 0.21875
vt 0.78125 0.03125
vt 0.765625 0.03125
vt 0.78125 0.03125
vt 0.78125 0.015625
vt 0.96875 0.015625
vt 0.96875 0.03125
vt 0.96875 0.03125
vt 0.96875 0.21875
vt 0.78125 0.21875
vt 0.78125 0.03125
vt 0.96875 0.21875
vt 0.96875 0.03125
vt 1 0
vt 1 0.25
vt 0.78125 0.21875
vt 0.96875 0.21875
vt 1 0.25
vt 0.75 0.25
vt 0.78125 0.03125
vt 0.78125 0.21875
vt 0.75 0.25
vt 0.75 0
vt 0.96875 0.03125
vt 0.78125 0.03125
vt 0.75 0
vt 1 0
vt 0.984375 0.03125
vt 0.984375 0.21875
vt 0.96875 0.21875
vt 0.96875 0.03125
vt 0.78125 0.21875
vt 0.96875 0.21875
vt 0.96875 0.234375
vt 0.78125 0.234375
vt 0.78125 0.03125
vt 0.78125 0.21875
vt 0.765625 0.21875
vt 0.765625 0.03125
vt 0.96875 0.015625
vt 0.78125 0.015625
vt 0.78125 0.03125
vt 0.96875 0.03125
vt 0.28125 0.6875
vt 0.28125 0.765625
vt 0.46875 0.765625
vt 0.46875 0.6875
vt 0.030937500000000007 0.765625
vt 0.030937500000000007 0.6875
vt 0 0.6875
vt 0 0.765625
vt 0.46875 0.75
vt 0 0.75
vt 0 1
vt 0.46875 1
vt 0.5 1
vt 0.5 0.78125
vt 0.46875 0.78125
vt 0.46875 1
vt 0.5 0.78125
vt 0.5 1
vt 0.53125 1
vt 0.53125 0.78125
vt 0.484375 1
vt 0.515625 1
vt 0.515625 0.78125
vt 0.484375 0.78125
vt 0.484375 0.796875
vt 0.515625 0.796875
vt 0.515625 0.765625
vt 0.484375 0.765625
vt 0.484375 0.796875
vt 0.515625 0.796875
vt 0.515625 0.765625
vt 0.484375 0.765625
vt 0.5 1
vt 0.5 0.78125
vt 0.46875 0.78125
vt 0.46875 1
vt 0.5 0.78125
vt 0.5 1
vt 0.53125 1
vt 0.53125 0.78125
vt 0.484375 1
vt 0.515625 1
vt 0.515625 0.78125
vt 0.484375 0.78125
vt 0.484375 0.796875
vt 0.515625 0.796875
vt 0.515625 0.765625
vt 0.484375 0.765625
vt 0.484375 0.796875
vt 0.515625 0.796875
vt 0.515625 0.765625
vt 0.484375 0.765625
vt 0.5 1
vt 0.5 0.78125
vt 0.46875 0.78125
vt 0.46875 1
vt 0.5 0.78125
vt 0.5 1
vt 0.53125 1
vt 0.53125 0.78125
vt 0.484375 1
vt 0.515625 1
vt 0.515625 0.78125
vt 0.484375 0.78125
vt 0.484375 0.796875
vt 0.515625 0.796875
vt 0.515625 0.765625
vt 0.484375 0.765625
vt 0.484375 0.796875
vt 0.515625 0.796875
vt 0.515625 0.765625
vt 0.484375 0.765625
vt 0.5 1
vt 0.5 0.78125
vt 0.46875 0.78125
vt 0.46875 1
vt 0.5 0.78125
vt 0.5 1
vt 0.53125 1
vt 0.53125 0.78125
vt 0.484375 1
vt 0.515625 1
vt 0.515625 0.78125
vt 0.484375 0.78125
vt 0.484375 0.796875
vt 0.515625 0.796875
vt 0.515625 0.765625
vt 0.484375 0.765625
vt 0.484375 0.796875
vt 0.515625 0.796875
vt 0.515625 0.765625
vt 0.484375 0.765625
vt 0.390625 0.1875
vt 0.59375 0.1875
vt 0.59375 0.0625
vt 0.390625 0.0625
vt 0.390625 0.1875
vt 0.59375 0.1875
vt 0.59375 0.0625
vt 0.390625 0.0625
vt 0.390625 0
vt 0.390625 0.1875
vt 0.59375 0.1875
vt 0.59375 0
vt 0 0.1875
vt 0.1875 0.1875
vt 0.1875 0.0625
vt 0 0.0625
vt 0.515625 0.78125
vt 0.515625 0.703125
vt 0.71875 0.703125
vt 0.71875 0.78125
vt 0.515625 0.78125
vt 0.515625 0.703125
vt 0.71875 0.703125
vt 0.71875 0.78125
vt 0.390625 0.1875
vt 0.1875 0.1875
vt 0.1875 0
vt 0.390625 0
vt 0.65625 0.390625
vt 0.734375 0.390625
vt 0.734375 0.203125
vt 0.65625 0.203125
vt 0.078125 0.8125
vt 0.09375 0.8125
vt 0.09375 0.734375
vt 0.078125 0.734375
vt 0.140625 0.8125
vt 0.15625 0.8125
vt 0.15625 0.734375
vt 0.140625 0.734375
vt 0.078125 0.8125
vt 0.15625 0.8125
vt 0.15625 0.796875
vt 0.078125 0.796875
vt 0.078125 0.75
vt 0.15625 0.75
vt 0.15625 0.734375
vt 0.078125 0.734375
vt 0.078125 0.8125
vt 0.15625 0.8125
vt 0.15625 0.734375
vt 0.078125 0.734375
vt 0.71875 0.65625
vt 0.71875 0.703125
vt 0.734375 0.703125
vt 0.734375 0.65625
vt 0.65625 0.703125
vt 0.65625 0.65625
vt 0.671875 0.65625
vt 0.671875 0.703125
vt 0.65625 0.703125
vt 0.734375 0.703125
vt 0.734375 0.65625
vt 0.65625 0.65625
vt 0.65625 0.671875
vt 0.734375 0.671875
vt 0.734375 0.65625
vt 0.65625 0.65625
vt 0.734375 0.703125
vt 0.65625 0.703125
vt 0.65625 0.6875
vt 0.734375 0.6875
vt 0.734375 0.65625
vt 0.734375 0.703125
vt 0.75 0.703125
vt 0.75 0.65625
vt 0.734375 0.65625
vt 0.734375 0.703125
vt 0.75 0.703125
vt 0.75 0.65625
vt 0.65625 0.65625
vt 0.734375 0.65625
vt 0.734375 0.640625
vt 0.65625 0.640625
vt 0.65625 0.65625
vt 0.734375 0.65625
vt 0.734375 0.640625
vt 0.65625 0.640625
vt 0.125 0.9375
vt 0.125 0.3125
vt 0.0625 0.3125
vt 0.0625 0.9375
vt 0.12500000000000222 1
vt 0.7500000000000022 1
vt 0.7500000000000022 0.9375
vt 0.12500000000000222 0.9375
vt 0.7499936747446632 0.3749981592481342
vt 0.12499999999999689 0.37500055100024277
vt 0.12499999999999667 0.9999999999999998
vt 0.7499994489997537 1
vt 0.75 1
vt 0.75 0.375
vt 0.6875 0.375
vt 0.6875 1
vt 0.6875 0.875
vt 0.0625 0.875
vt 0.0625 0.9375
vt 0.6875 0.9375
vt 1 1
vt 0.71875 1
vt 0.71875 0.984375
vt 1 0.984375
vt 0.71875 0.796875
vt 1 0.796875
vt 1 0.78125
vt 0.71875 0.78125
vt 0.71875 0.78125
vt 0.71875 1
vt 1 1
vt 1 0.78125
vt 0.984375 0.78125
vt 0.984375 1
vt 1 1
vt 1 0.78125
vt 0.71875 1
vt 0.71875 0.78125
vt 0.734375 0.78125
vt 0.734375 1
vt 0.25 0.6875
vt 0.40625 0.6875
vt 0.40625 0.5
vt 0.25 0.5
vt 0.25 0.671875
vt 0.25 0.6875
vt 0.40625 0.6875
vt 0.40625 0.671875
vt 0.25 0.5
vt 0.25 0.515625
vt 0.40625 0.515625
vt 0.40625 0.5
vt 0.25 0.6875
vt 0.265625 0.6875
vt 0.265625 0.5
vt 0.25 0.5
vt 0.390625 0.6875
vt 0.40625 0.6875
vt 0.40625 0.5
vt 0.390625 0.5
vt 0.25 0.5
vt 0.40625 0.5
vt 0.40625 0.34375
vt 0.25 0.34375
vt 0.25 0.34375
vt 0.40625 0.34375
vt 0.40625 0.1875
vt 0.25 0.1875
vt 0.40625 0.484375
vt 0.40625 0.5
vt 0.25 0.5
vt 0.25 0.484375
vt 0.25 0.5
vt 0.265625 0.5
vt 0.265625 0.34375
vt 0.25 0.34375
vt 0.390625 0.5
vt 0.40625 0.5
vt 0.40625 0.34375
vt 0.390625 0.34375
vt 0.28125 0.453125
vt 0.328125 0.453125
vt 0.328125 0.40625
vt 0.28125 0.40625
vt 0.328125 0.4375
vt 0.328125 0.453125
vt 0.28125 0.453125
vt 0.28125 0.4375
vt 0.28125 0.453125
vt 0.296875 0.453125
vt 0.296875 0.40625
vt 0.28125 0.40625
vt 0.3125 0.453125
vt 0.328125 0.453125
vt 0.328125 0.40625
vt 0.3125 0.40625
vt 0.328125 0.421875
vt 0.328125 0.40625
vt 0.28125 0.40625
vt 0.28125 0.421875
vt 0.703125 0.4375
vt 0.703125 0.609375
vt 0.71875 0.609375
vt 0.71875 0.4375
vt 0.734375 0.4375
vt 0.734375 0.609375
vt 0.75 0.609375
vt 0.75 0.4375
vt 0.75 0.609375
vt 0.703125 0.609375
vt 0.703125 0.4375
vt 0.75 0.4375
vt 0.703125 0.609375
vt 0.75 0.609375
vt 0.75 0.59375
vt 0.703125 0.59375
vt 0.703125 0.453125
vt 0.75 0.453125
vt 0.75 0.4375
vt 0.703125 0.4375
vt 0.25 0.5
vt 0.40625 0.5
vt 0.40625 0.34375
vt 0.25 0.34375
vt 0.25 0.34375
vt 0.40625 0.34375
vt 0.40625 0.1875
vt 0.25 0.1875
vt 0.40625 0.484375
vt 0.40625 0.5
vt 0.25 0.5
vt 0.25 0.484375
vt 0.25 0.5
vt 0.265625 0.5
vt 0.265625 0.34375
vt 0.25 0.34375
vt 0.390625 0.5
vt 0.40625 0.5
vt 0.40625 0.34375
vt 0.390625 0.34375
vt 0.28125 0.453125
vt 0.328125 0.453125
vt 0.328125 0.40625
vt 0.28125 0.40625
vt 0.328125 0.4375
vt 0.328125 0.453125
vt 0.28125 0.453125
vt 0.28125 0.4375
vt 0.28125 0.453125
vt 0.296875 0.453125
vt 0.296875 0.40625
vt 0.28125 0.40625
vt 0.3125 0.453125
vt 0.328125 0.453125
vt 0.328125 0.40625
vt 0.3125 0.40625
vt 0.328125 0.421875
vt 0.328125 0.40625
vt 0.28125 0.40625
vt 0.28125 0.421875
vt 0.703125 0.4375
vt 0.703125 0.609375
vt 0.71875 0.609375
vt 0.71875 0.4375
vt 0.734375 0.4375
vt 0.734375 0.609375
vt 0.75 0.609375
vt 0.75 0.4375
vt 0.75 0.609375
vt 0.703125 0.609375
vt 0.703125 0.4375
vt 0.75 0.4375
vt 0.703125 0.609375
vt 0.75 0.609375
vt 0.75 0.59375
vt 0.703125 0.59375
vt 0.703125 0.453125
vt 0.75 0.453125
vt 0.75 0.4375
vt 0.703125 0.4375
vt 0.5 0.71875
vt 0.5 0.765625
vt 0.515625 0.765625
vt 0.515625 0.71875
vt 0.46875 0.71875
vt 0.46875 0.765625
vt 0.484375 0.765625
vt 0.484375 0.71875
vt 0.46875 0.71875
vt 0.515625 0.71875
vt 0.515625 0.765625
vt 0.46875 0.765625
vt 0.46875 0.734375
vt 0.515625 0.734375
vt 0.515625 0.71875
vt 0.46875 0.71875
vt 0.515625 0.75
vt 0.46875 0.75
vt 0.46875 0.765625
vt 0.515625 0.765625
vt 0.5 0.71875
vt 0.5 0.765625
vt 0.515625 0.765625
vt 0.515625 0.71875
vt 0.46875 0.71875
vt 0.46875 0.765625
vt 0.484375 0.765625
vt 0.484375 0.71875
vt 0.46875 0.734375
vt 0.515625 0.734375
vt 0.515625 0.71875
vt 0.46875 0.71875
vt 0.515625 0.75
vt 0.46875 0.75
vt 0.46875 0.765625
vt 0.515625 0.765625
vt 0.46875 0.765625
vt 0.515625 0.765625
vt 0.515625 0.71875
vt 0.46875 0.71875
vt 0.484375 0.84375
vt 0.484375 1
vt 0.515625 1
vt 0.515625 0.84375
vt 0.484375 1
vt 0.5 1
vt 0.5 0.84375
vt 0.484375 0.84375
vt 0.484375 0.84375
vt 0.484375 0.859375
vt 0.515625 0.859375
vt 0.515625 0.84375
vt 0.484375 0.984375
vt 0.484375 1
vt 0.515625 1
vt 0.515625 0.984375
vt 0.515625 1
vt 0.484375 1
vt 0.484375 0.84375
vt 0.515625 0.84375
vt 0.5 0.84375
vt 0.5 1
vt 0.484375 1
vt 0.484375 0.84375
vt 0.515625 0.859375
vt 0.484375 0.859375
vt 0.484375 0.84375
vt 0.515625 0.84375
vt 0.515625 1
vt 0.484375 1
vt 0.484375 0.984375
vt 0.515625 0.984375
vt 0.84375 0.703125
vt 0.890625 0.703125
vt 0.890625 0.5
vt 0.84375 0.5
vt 0.84375 0.703125
vt 0.890625 0.703125
vt 0.890625 0.5
vt 0.84375 0.5
vt 0.84375 0.75
vt 0.890625 0.75
vt 0.890625 0.703125
vt 0.84375 0.703125
vt 0.84375 0.703125
vt 0.890625 0.703125
vt 0.890625 0.5
vt 0.84375 0.5
vt 0.84375 0.703125
vt 0.890625 0.703125
vt 0.890625 0.5
vt 0.84375 0.5
vt 0.84375 0.703125
vt 0.890625 0.703125
vt 0.890625 0.5
vt 0.84375 0.5
vt 0.84375 0.703125
vt 0.890625 0.703125
vt 0.890625 0.5
vt 0.84375 0.5
vt 0.84375 0.75
vt 0.890625 0.75
vt 0.890625 0.703125
vt 0.84375 0.703125
vt 0.84375 0.703125
vt 0.890625 0.703125
vt 0.890625 0.5
vt 0.84375 0.5
vt 0.84375 0.703125
vt 0.890625 0.703125
vt 0.890625 0.5
vt 0.84375 0.5
vt 0.84375 0.703125
vt 0.890625 0.703125
vt 0.890625 0.5
vt 0.84375 0.5
vt 0.84375 0.703125
vt 0.890625 0.703125
vt 0.890625 0.5
vt 0.84375 0.5
vt 0.84375 0.75
vt 0.890625 0.75
vt 0.890625 0.703125
vt 0.84375 0.703125
vt 0.84375 0.703125
vt 0.890625 0.703125
vt 0.890625 0.5
vt 0.84375 0.5
vt 0.84375 0.703125
vt 0.890625 0.703125
vt 0.890625 0.5
vt 0.84375 0.5
vt 0.84375 0.703125
vt 0.890625 0.703125
vt 0.890625 0.5
vt 0.84375 0.5
vt 0.84375 0.703125
vt 0.890625 0.703125
vt 0.890625 0.5
vt 0.84375 0.5
vt 0.84375 0.75
vt 0.890625 0.75
vt 0.890625 0.703125
vt 0.84375 0.703125
vt 0.84375 0.703125
vt 0.890625 0.703125
vt 0.890625 0.5
vt 0.84375 0.5
vt 0.84375 0.703125
vt 0.890625 0.703125
vt 0.890625 0.5
vt 0.84375 0.5
vt 0.796875 0.75
vt 0.796875 0.5
vt 0.84375 0.5
vt 0.84375 0.75
vt 0.796875 0.75
vt 0.796875 0.5
vt 0.84375 0.5
vt 0.84375 0.75
vt 0.75 0.75
vt 0.75 0.25
vt 0.796875 0.25
vt 0.796875 0.75
vt 0.75 0.75
vt 0.75 0.25
vt 0.796875 0.25
vt 0.796875 0.75
vt 0.5 0.25
vt 0.5 0
vt 0 0
vt 0 0.25
vt 0.5 0.25
vt 0.5 0
vt 0 0
vt 0 0.25
vt 0.640625 0.171875
vt 0.75 0.171875
vt 0.75 0.09375
vt 0.640625 0.09375
vt 0.65625 0.8359375
vt 0.671875 0.8359375
vt 0.671875 0.8125
vt 0.65625 0.8125
vt 0.65625 0.8359375
vt 0.671875 0.8359375
vt 0.671875 0.8125
vt 0.65625 0.8125
vt 0.65625 0.8359375
vt 0.671875 0.8359375
vt 0.671875 0.8125
vt 0.65625 0.8125
vt 0.65625 0.8359375
vt 0.671875 0.8359375
vt 0.671875 0.8125
vt 0.65625 0.8125
vt 0.65625 0.828125
vt 0.671875 0.828125
vt 0.671875 0.8125
vt 0.65625 0.8125
vt 0.65625 0.8359375
vt 0.671875 0.8359375
vt 0.671875 0.8125
vt 0.65625 0.8125
vt 0.65625 0.8359375
vt 0.671875 0.8359375
vt 0.671875 0.8125
vt 0.65625 0.8125
vt 0.65625 0.8359375
vt 0.671875 0.8359375
vt 0.671875 0.8125
vt 0.65625 0.8125
vt 0.65625 0.8359375
vt 0.671875 0.8359375
vt 0.671875 0.8125
vt 0.65625 0.8125
vt 0.65625 0.828125
vt 0.671875 0.828125
vt 0.671875 0.8125
vt 0.65625 0.8125
vt 0.65625 0.8359375
vt 0.671875 0.8359375
vt 0.671875 0.8125
vt 0.65625 0.8125
vt 0.65625 0.8359375
vt 0.671875 0.8359375
vt 0.671875 0.8125
vt 0.65625 0.8125
vt 0.65625 0.8359375
vt 0.671875 0.8359375
vt 0.671875 0.8125
vt 0.65625 0.8125
vt 0.65625 0.8359375
vt 0.671875 0.8359375
vt 0.671875 0.8125
vt 0.65625 0.8125
vt 0.65625 0.828125
vt 0.671875 0.828125
vt 0.671875 0.8125
vt 0.65625 0.8125
vt 0.65625 0.8359375
vt 0.671875 0.8359375
vt 0.671875 0.8125
vt 0.65625 0.8125
vt 0.65625 0.8359375
vt 0.671875 0.8359375
vt 0.671875 0.8125
vt 0.65625 0.8125
vt 0.65625 0.8359375
vt 0.671875 0.8359375
vt 0.671875 0.8125
vt 0.65625 0.8125
vt 0.65625 0.8359375
vt 0.671875 0.8359375
vt 0.671875 0.8125
vt 0.65625 0.8125
vt 0.65625 0.828125
vt 0.671875 0.828125
vt 0.671875 0.8125
vt 0.65625 0.8125
vt 0.6875 0.8125
vt 0.7109375 0.8125
vt 0.7109375 0.78125
vt 0.6875 0.78125
vt 0.6953125 0.8125
vt 0.71875 0.8125
vt 0.71875 0.78125
vt 0.6953125 0.78125
vt 0.6875 0.8125
vt 0.71875 0.8125
vt 0.71875 0.7890625
vt 0.6875 0.7890625
vt 0.6875 0.8046875
vt 0.71875 0.8046875
vt 0.71875 0.78125
vt 0.6875 0.78125
vt 0.6875 0.8125
vt 0.71875 0.8125
vt 0.71875 0.78125
vt 0.6875 0.78125
vt 0.5 0.25
vt 0.75 0.25
vt 0.75 0
vt 0.5 0
vt 0.671875 0
vt 0.671875 0.25
vt 0.75 0.25
vt 0.75 0
vt 0.5 0.078125
vt 0.75 0.078125
vt 0.75 0
vt 0.5 0
vt 0.5 0
vt 0.5 0.25
vt 0.578125 0.25
vt 0.578125 0
vt 0.984375 0.875
vt 1 0.875
vt 1 0.71875
vt 0.984375 0.71875
vt 0.78125 0.875
vt 0.796875 0.875
vt 0.796875 0.71875
vt 0.78125 0.71875
vt 0.78125 0.875
vt 1 0.875
vt 1 0.859375
vt 0.78125 0.859375
vt 0.78125 0.734375
vt 1 0.734375
vt 1 0.71875
vt 0.78125 0.71875
vt 0.78125 0.875
vt 1 0.875
vt 1 0.71875
vt 0.78125 0.71875
vt 0.75 0.609375
vt 0.875 0.609375
vt 0.875 0.484375
vt 0.75 0.484375
vt 0.875 0.59375
vt 0.875 0.609375
vt 0.75 0.609375
vt 0.75 0.59375
vt 0.75 0.484375
vt 0.75 0.5
vt 0.875 0.5
vt 0.875 0.484375
vt 0.75 0.609375
vt 0.766015625 0.609375
vt 0.766015625 0.484375
vt 0.75 0.484375
vt 0.859375 0.609375
vt 0.875390625 0.609375
vt 0.875390625 0.484375
vt 0.859375 0.484375
vt 0.0625 0.734375
vt 0.125 0.734375
vt 0.125 0.6875
vt 0.0625 0.6875
vt 0.0625 0.734375
vt 0.07851562499999998 0.734375
vt 0.07851562499999998 0.6875
vt 0.0625 0.6875
vt 0.109375 0.734375
vt 0.12539062499999998 0.734375
vt 0.12539062499999998 0.6875
vt 0.109375 0.6875
vt 0.875 0.59375
vt 0.875 0.609375
vt 0.75 0.609375
vt 0.75 0.59375
vt 0.75 0.484375
vt 0.75 0.5
vt 0.875 0.5
vt 0.875 0.484375
vt 0.75 0.609375
vt 0.766015625 0.609375
vt 0.766015625 0.484375
vt 0.75 0.484375
vt 0.859375 0.609375
vt 0.875390625 0.609375
vt 0.875390625 0.484375
vt 0.859375 0.484375
vt 0 0.734375
vt 0.0625 0.734375
vt 0.0625 0.6875
vt 0 0.6875
vt 0 0.734375
vt 0.016015624999999978 0.734375
vt 0.016015624999999978 0.6875
vt 0 0.6875
vt 0.046875 0.734375
vt 0.06289062499999998 0.734375
vt 0.06289062499999998 0.6875
vt 0.046875 0.6875
vt 0.5625 1
vt 0.625 1
vt 0.625 0.25
vt 0.5625 0.25
vt 0.625 1
vt 0.6875 1
vt 0.6875 0.25
vt 0.625 0.25
vt 0.5625 1
vt 0.6875 1
vt 0.6875 0.25
vt 0.5625 0.25
vt 0.3125 0.25
vt 0 0.25
vt 0 0.09375
vt 0.3125 0.09375
vt 0.3125 0.25
vt 0 0.25
vt 0 0.09375
vt 0.3125 0.09375
vt 0.4375 0.6875
vt 0.875 0.6875
vt 0.875 1
vt 0.4375 1
vt 0.4375 0.6875
vt 0.875 0.6875
vt 0.875 1
vt 0.4375 1
vt 0.875 0.53125
vt 0.4375 0.53125
vt 0.4375 0.375
vt 0.875 0.375
vt 0.875 0.6875
vt 0.4375 0.6875
vt 0.4375 0.53125
vt 0.875 0.53125
vt 0.3125 0.25
vt 0 0.25
vt 0 0.09375
vt 0.3125 0.09375
vt 0.3125 0.25
vt 0 0.25
vt 0 0.09375
vt 0.3125 0.09375
vt 0.4375 0.6875
vt 0.875 0.6875
vt 0.875 1
vt 0.4375 1
vt 0.4375 0.6875
vt 0.875 0.6875
vt 0.875 1
vt 0.4375 1
vt 0.875 0.6875
vt 0.4375 0.6875
vt 0.4375 0.53125
vt 0.875 0.53125
vt 0.875 0.53125
vt 0.4375 0.53125
vt 0.4375 0.375
vt 0.875 0.375
vt 0.75 0.609375
vt 0.875 0.609375
vt 0.875 0.484375
vt 0.75 0.484375
vt 0.234375 1
vt 0.234375 0.75
vt 0 0.75
vt 0 1
vt 0.25 0.015625
vt 0.25 0.25
vt 0.484375 0.25
vt 0.484375 0.015625
vt 0.234375 0.46875
vt 0.234375 0.28125
vt 0 0.28125
vt 0 0.46875
vt 0.75 0.703125
vt 0.734375 0.703125
vt 0.734375 0.65625
vt 0.75 0.65625
vt 0.75 0.703125
vt 0.734375 0.703125
vt 0.734375 0.65625
vt 0.75 0.65625
vt 0.734375 0.640625
vt 0.734375 0.65625
vt 0.65625 0.65625
vt 0.65625 0.640625
vt 0.734375 0.640625
vt 0.734375 0.65625
vt 0.65625 0.65625
vt 0.65625 0.640625
vt 0.5 0.0625
vt 0.5 1
vt 0.3125 1
vt 0.3125 0.0625
vt 0.3125 0.0625
vt 0.3125 1
vt 0.5 1
vt 0.5 0.0625
vt 0.4375 0.0625
vt 0.4375 1
vt 0.5 1
vt 0.5 0.0625
vt 0.3125 1
vt 0.3125 0.0625
vt 0.375 0.0625
vt 0.375 1
vt 0.5 0
vt 0.5 1
vt 0.3125 1
vt 0.3125 0
vt 0.3125 0
vt 0.3125 1
vt 0.5 1
vt 0.5 0
vt 0.4375 0
vt 0.4375 1
vt 0.5 1
vt 0.5 0
vt 0.3125 1
vt 0.3125 0
vt 0.375 0
vt 0.375 1
vt 0.5 1
vt 0.5 0.4375
vt 0.3125 0.4375
vt 0.3125 1
vt 0.3125 1
vt 0.3125 0.4375
vt 0.5 0.4375
vt 0.5 1
vt 0.4375 1
vt 0.4375 0.4375
vt 0.5 0.4375
vt 0.5 1
vt 0.3125 0.4375
vt 0.3125 1
vt 0.375 1
vt 0.375 0.4375
vt 0.3125 0.0625
vt 0.3125 1
vt 0.5 1
vt 0.5 0.0625
vt 0.3125 1
vt 0.3125 0.0625
vt 0.375 0.0625
vt 0.375 1
vt 0.3125 0
vt 0.3125 1
vt 0.5 1
vt 0.5 0
vt 0.3125 1
vt 0.3125 0
vt 0.375 0
vt 0.375 1
vt 0.3125 1
vt 0.3125 0.4375
vt 0.5 0.4375
vt 0.5 1
vt 0.3125 0.4375
vt 0.3125 1
vt 0.375 1
vt 0.375 0.4375
vt 0.765625 0.0625
vt 0.984375 0.0625
vt 0.984375 0
vt 0.765625 0
vt 0.78125 0.0625
vt 1 0.0625
vt 1 0
vt 0.78125 0
vt 0.765625 0.0625
vt 0.765625 0.25
vt 0.984375 0.25
vt 0.984375 0.0625
vt 0.796875 0.453125
vt 0.984375 0.453125
vt 0.984375 0.390625
vt 0.796875 0.390625
vt 0.78125 0.21875
vt 0.96875 0.21875
vt 0.96875 0.03125
vt 0.78125 0.03125
vt 0.75 0
vt 0.71875 0.03125
vt 0.71875 0.21875
vt 0.75 0.25
vt 0.75 0.25
vt 0.71875 0.21875
vt 0.53125 0.21875
vt 0.5 0.25
vt 0.5 0.25
vt 0.53125 0.21875
vt 0.53125 0.03125
vt 0.5 0
vt 0.5 0
vt 0.53125 0.03125
vt 0.71875 0.03125
vt 0.75 0
vt 0.125 0.484375
vt 0.109375 0.484375
vt 0.109375 0.609375
vt 0.125 0.609375
vt 0 0.609375
vt 0 0.484375
vt 0.015625 0.484375
vt 0.015625 0.609375
vt 0.125 0.609375
vt 0.125 0.484375
vt 0 0.484375
vt 0 0.609375
vt 0 0.5
vt 0.125 0.5
vt 0.125 0.484375
vt 0 0.484375
vt 0.125 0.59375
vt 0.125 0.609375
vt 0 0.609375
vt 0 0.59375
vt 0.265625 0.984375
vt 0.078125 0.984375
vt 0.078125 1
vt 0.265625 1
vt 0.4375 0.984375
vt 0.25 0.984375
vt 0.25 1
vt 0.4375 1
vt 0.328125 0.984375
vt 0.140625 0.984375
vt 0.140625 1
vt 0.328125 1
vt 0.359375 0.984375
vt 0.171875 0.984375
vt 0.171875 1
vt 0.359375 1
vn -0.958819734868193 0 -0.28401534470392265
vn 0.958819734868193 0 0.28401534470392265
vn 0 1 0
vn 0 -1 0
vn -0.28401534470392265 0 0.958819734868193
vn 0.28401534470392265 0 -0.958819734868193
vn -1 0 1.4988010832439613e-15
vn 1 0 -1.4988010832439613e-15
vn 0 1 0
vn 0 -1 0
vn 1.6653345369377348e-16 0 -1
vn 0 1 0
vn 1 0 0
vn 1.6653345369377348e-16 0 -1
vn 1.6653345369377348e-16 0 -1
vn 0 0 -1
vn 1 0 1.6653345369377348e-16
vn -1 0 0
vn -1 0 -1.1102230246251565e-16
vn 0 -1 0
vn 5.551115123125783e-17 0 -1
vn -1 0 0
vn -1.6653345369377348e-16 0 1
vn -1 0 -1.6653345369377348e-16
vn 1.5543122344752196e-15 0 1
vn 0.7071067811865469 0 -0.7071067811865481
vn -1.887379141862766e-15 0 1
vn -1 0 -1.6653345369377348e-16
vn -1 0 -1.6653345369377348e-16
vn -1.887379141862766e-15 0 1
vn -1 0 -1.6653345369377348e-16
vn -1.887379141862766e-15 0 1
vn -1 0 -1.6653345369377348e-16
vn 0.7071067811865471 0 -0.707106781186548
vn 1.5543122344752196e-15 0 1
vn 0.7071067811865469 0 -0.7071067811865482
vn -1 0 -1.6653345369377348e-16
vn -1.887379141862766e-15 0 1
vn -1 0 0
vn -1.6653345369377348e-16 0 1
vn -1 0 0
vn 0 -1 0
vn -1.6653345369377348e-16 0 1
vn -5.5511151231257815e-17 0 1
vn -1 0 1.1102230246251565e-16
vn 0 1 0
vn 0 -1 0
vn 0 -1 0
vn 0.7071067811865471 0 -0.707106781186548
vn 0 1 0
vn -1 0 1.1102230246251565e-16
vn -5.551115123125783e-17 0 1
vn 0 -1 0
vn 0 -1 0
vn 0 1 0
vn 0 1 0
vn 1 0 -2.220446049250313e-16
vn 0 1 0
vn 0 -1 0
vn 2.220446049250313e-16 0 1
vn 1 0 0
vn 5.551115123125783e-17 0 1
vn 5.551115123125783e-17 0 -1
vn -1 0 1.1102230246251565e-16
vn 0 -1 0
vn 0 0 -1
vn 0 0 -1
vn 0 -1 0
vn -1 0 -1.6653345369377348e-16
vn -1 2.9605947323337506e-16 5.551115123125783e-17
vn -1 0 -1.6653345369377348e-16
vn -1 2.9605947323337506e-16 5.551115123125783e-17
vn -1.6653345369377348e-16 0 1
vn 0 -1 0
vn -1.4988010832439613e-15 0 -1
vn 0 1 0
vn 1 0 1.6653345369377348e-16
vn 1 0 1.6653345369377348e-16
vn 1 0 1.6653345369377348e-16
vn 1 0 1.6653345369377348e-16
vn 1 0 1.6653345369377348e-16
vn -1.6653345369377348e-16 0 1
vn 0 -1 0
vn 1.6653345369377348e-16 0 -1
vn 0 1 0
vn -5.551115123125783e-17 -1.7032059937850495e-16 -1
vn -6.106226635438361e-16 -5.208521740997251e-17 -1
vn 0 1 0
vn -0.9702957262759966 0 -0.24192189559966765
vn 0.9702957262759966 0 0.24192189559966765
vn 0 1 0
vn -0.24192189559966787 0 0.9702957262759965
vn 0.241921895599667 0 -0.9702957262759968
vn -0.9702957262759965 0 -0.2419218955996679
vn 0.9702957262759965 0 0.24192189559966779
vn 0 1 0
vn -0.24192189559966787 0 0.9702957262759964
vn 0.24192189559966876 0 -0.9702957262759964
vn -0.9702957262759965 0 -0.24192189559966779
vn 0.9702957262759965 0 0.2419218955996677
vn 0 1 0
vn -0.24192189559966787 0 0.9702957262759965
vn 0.2419218955996687 0 -0.9702957262759963
vn -0.9702957262759965 0 -0.24192189559966779
vn 0.9702957262759965 0 0.24192189559966776
vn 0 1 0
vn -0.24192189559966618 0 0.970295726275997
vn 0.241921895599667 0 -0.9702957262759968
vn -1 0 0
vn 1 0 5.551115123125783e-17
vn 0 1 0
vn 0 0 -1
vn -1 0 -5.5511151231257815e-17
vn 1 0 5.551115123125783e-17
vn 0 -1 0
vn 5.551115123125783e-17 0 -1
vn -1 0 0
vn 1 0 1.6653345369377348e-16
vn 0 1 0
vn 0 -1 0
vn -1.1102230246251565e-16 0 -1
vn -1 0 2.220446049250313e-16
vn 1 0 4.996003610813204e-16
vn 0 1 0
vn -5.551115123125783e-17 0 1
vn -1.1102230246251565e-16 0 -1
vn -1 0 3.3306690738754686e-16
vn 1 0 -3.3306690738754686e-16
vn 0 0 1
vn 0 0 -1
vn 0.1045284632676535 0 0.9945218953682735
vn -0.10452846326765375 0 -0.9945218953682733
vn 0 1 0
vn 0.9945218953682733 0 -0.10452846326765364
vn -0.9945218953682734 0 0.10452846326765344
vn -0.10452846326765336 0 0.9945218953682734
vn 0.1045284632676535 0 -0.9945218953682734
vn 0 1 0
vn 0.9945218953682735 0 0.10452846326765344
vn -0.9945218953682735 0 -0.10452846326765336
vn -1 0 -3.3306690738754696e-16
vn 3.469446951953614e-18 0.9998476951563913 -0.01745240643728323
vn -3.469446951953614e-18 -0.9998476951563913 0.01745240643728323
vn 1.4432899320127039e-15 0.017452406437283366 0.9998476951563914
vn 2.775557561562892e-16 -0.017452406437283362 -0.9998476951563914
vn -1 0 0
vn 1 0 0
vn 0 1 0
vn -1.887379141862766e-15 0 1
vn 1.887379141862766e-15 0 -1
vn -1 0 5.551115123125783e-17
vn 0 1 0
vn 1.4988010832439613e-15 0 1
vn 1.6653345369377348e-16 0 -1
vn 0 -1 0
vn -1 0 0
vn 1 0 0
vn 0 1 0
vn 3.3306690738754686e-16 0 1
vn -3.3306690738754696e-16 0 -1
vn -1 0 0
vn 1 0 0
vn 0 1 0
vn -2.1649348980190553e-15 0 1
vn 1.6653345369377348e-16 0 -1
vn -1 0 5.551115123125783e-17
vn 0 1 0
vn -1.6653345369377348e-16 0 1
vn 1.6653345369377348e-16 0 -1
vn 0 -1 0
vn -1 0 0
vn 1 0 -1.1102230246251565e-16
vn 0 1 0
vn 2.220446049250313e-16 0 1
vn 1.6653345369377348e-16 0 -1
vn -1 0 3.3306690738754696e-16
vn 1 0 -1.6653345369377348e-16
vn 0 -1 0
vn -7.771561172376098e-16 0 1
vn 1.6653345369377348e-16 0 -1
vn -1 0 3.3306690738754696e-16
vn 1 0 -1.6653345369377348e-16
vn -7.771561172376098e-16 0 1
vn 1.6653345369377348e-16 0 -1
vn 0 1 0
vn -1 0 0
vn 0 -1 0
vn -1.942890293094024e-15 0 1
vn 1.6653345369377348e-16 0 -1
vn 0 1 0
vn 1 0 -5.551115123125783e-17
vn -1.887379141862766e-15 -5.551115123125786e-16 1
vn 1.6653345369377348e-16 0 -1
vn -1 0 3.885780586188049e-16
vn 1 0 -3.885780586188049e-16
vn 0 -1 0
vn -1.6653345369377348e-16 0 1
vn 1.6653345369377348e-16 0 -1
vn -1 0 5.551115123125783e-16
vn 1 0 -3.885780586188049e-16
vn 0 -1 0
vn -1.6653345369377348e-16 0 1
vn -3.885780586188049e-16 0 -1
vn -1 0 1.1102230246251565e-16
vn 1 0 -3.885780586188049e-16
vn 0 -1 0
vn 2.7755575615628914e-16 0 1
vn -3.885780586188049e-16 0 -1
vn -1 0 1.1102230246251565e-16
vn 1 0 -3.885780586188049e-16
vn 0 -1 0
vn -1.6653345369377348e-16 0 1
vn 5.551115123125783e-17 0 -1
vn -1 0 1.6653345369377348e-16
vn 1 0 -5.551115123125783e-17
vn 0 0 1
vn 0 0 -1
vn 0 1 0
vn 0 -1 0
vn 0 1 0
vn -1 0 0
vn 1 0 0
vn 0 1 0
vn 0 -1 0
vn -6.661338147750939e-16 0 -1
vn -1 0 0
vn 1 0 1.6653345369377348e-16
vn 0 1 0
vn 0 -1 0
vn 1.6653345369377348e-16 0 -1
vn -1 0 0
vn 1 0 1.6653345369377348e-16
vn 0 1 0
vn 0 -1 0
vn -1.4988010832439613e-15 0 -1
vn -1 0 -1.6653345369377348e-16
vn 1 0 0
vn 0 1 0
vn 0 -1 0
vn 1.6653345369377348e-16 0 -1
vn -1 0 0
vn 1 0 3.3306690738754706e-16
vn 0 1 0
vn 0 -1 0
vn -6.661338147750939e-16 0 -1
vn 0 1 0
vn -1 1.7763568394002508e-16 5.551115123125783e-17
vn 0 0 -1
vn 0.9999998046875573 0 -0.000624999877929744
vn -1 0 -1.6653345369377348e-16
vn 1 0 1.887379141862766e-15
vn 0 1 0
vn 0 -1 0
vn 0 0 1
vn 1 0 1.6653345369377348e-16
vn 0 1 0
vn 0 -1 0
vn 5.551115123125783e-17 0 -1
vn -5.551115123125783e-17 0 1
vn 1 0 1.6653345369377348e-16
vn 1.1102230246251565e-16 0 -1
vn -1.1102230246251565e-16 0 1
vn 0 1 0
vn 0 -1 0
vn 1.498801083243961e-15 0 1
vn 5.551115123125783e-17 0 -1
vn -1 0 -1.6653345369377348e-16
vn 1.4988010832439613e-15 0 1
vn -1.4988010832439613e-15 0 -1
vn -1 0 1.9984014443252814e-15
vn 1 0 -1.4988010832439613e-15
vn -6.106226635438361e-16 0 -1
vn 0.30901699437494756 0 0.9510565162951535
vn -0.3090169943749469 0 -0.9510565162951538
vn 0 1 0
vn 0 -1 0
vn 0.9510565162951536 0 -0.3090169943749477
vn -0.9510565162951536 0 0.30901699437494745
vn -0.8987940462991671 0 0.4383711467890775
vn 0.8987940462991671 0 -0.4383711467890775
vn 0 1 0
vn 0 -1 0
vn 0.4383711467890773 0 0.898794046299167
vn -0.4383711467890775 0 -0.898794046299167
vn -1 0 -1.6653345369377348e-16
vn 5.551115123125783e-17 0 -1
vn 0 -1 0
vn 5.551115123125783e-17 0 -1
vn 1 0 -3.3306690738754686e-16
vn -1 0 3.3306690738754686e-16
vn 0 0 -1
vn 0 0 1
vn 0 1 0
vn 0 -1 0
vn -5.551115123125783e-17 0 1
vn 0 0 -1
vn -1 2.759648242305603e-16 3.3306690738754696e-16
vn 1 -2.1290074922313112e-16 -3.3306690738754696e-16
vn 4.884981308350688e-15 1.4983667421570072e-16 1
vn 1.887379141862766e-15 -1.498366742157026e-16 -1
vn -1 0 -4.440892098500626e-16
vn 1 -3.784902208411222e-16 7.771561172376096e-16
vn 1.4432899320127039e-15 -4.906041319654409e-16 1
vn -4.8849813083506896e-15 0 -1
vn 0 -1 0
vn 5.551115123125783e-17 0 -1
vn 1 -1.4983667421570188e-16 -7.216449660063519e-16
vn 9.43689570931383e-16 -1.4983667421570233e-16 -1
vn 1 0 -7.216449660063518e-16
vn -1.4432899320127039e-15 0 -1
vn -1 0 5.551115123125783e-17
vn 1 0 -5.551115123125783e-17
vn 0 -1 0
vn -5.551115123125783e-17 0 -1
vn -1.1842378929335026e-15 1 -4.930380657631324e-32
vn 2.368475785867002e-15 1 -9.473903143468e-15
vn -7.105427357601002e-15 1 3.944304526105059e-31
vn 2.3684757858670025e-15 1 -9.473903143467986e-15
vn -7.1054273576009995e-15 1 0
vn -1 0 0
vn 1 0 -1.1102230246251565e-16
vn 0 1 0
vn 6.661338147750939e-16 0 1
vn -2.220446049250313e-16 0 -1
vn 1 -6.513308411134159e-15 0
vn 2.7755575615628914e-16 1.7763568394002286e-15 -1
vn -1 1.480297366166917e-14 0
vn 0 -5.921189464667682e-16 1
usemtl metal
f 1/1/1 2/2/1 4/3/1
f 1/1/1 4/3/1 3/4/1
f 6/5/2 5/6/2 7/7/2
f 6/5/2 7/7/2 8/8/2
f 6/9/3 2/10/3 1/11/3
f 6/9/3 1/11/3 5/12/3
f 7/13/4 3/14/4 4/15/4
f 7/13/4 4/15/4 8/16/4
f 5/17/5 1/18/5 3/19/5
f 5/17/5 3/19/5 7/20/5
f 2/21/6 6/22/6 8/23/6
f 2/21/6 8/23/6 4/24/6
usemtl arithmetic_logic_machine
f 9/25/7 10/26/7 12/27/7
f 9/25/7 12/27/7 11/28/7
f 14/29/8 13/30/8 15/31/8
f 14/29/8 15/31/8 16/32/8
f 14/33/9 10/34/9 9/35/9
f 14/33/9 9/35/9 13/36/9
f 15/37/10 11/38/10 12/39/10
f 15/37/10 12/39/10 16/40/10
f 10/41/11 14/42/11 16/43/11
f 10/41/11 16/43/11 12/44/11
usemtl common_steel
f 20/45/12 18/46/12 17/47/12
f 20/45/12 17/47/12 19/48/12
f 24/49/13 23/50/13 25/51/13
f 24/49/13 25/51/13 26/52/13
f 21/53/14 24/54/14 26/55/14
f 21/53/14 26/55/14 22/56/14
f 28/57/15 30/58/15 31/59/15
f 28/57/15 31/59/15 29/60/15
f 18/61/16 20/62/16 30/63/16
f 18/61/16 30/63/16 21/64/16
usemtl arithmetic_logic_machine
f 33/65/17 31/66/17 20/67/17
f 33/65/17 20/67/17 19/68/17
f 32/69/18 17/70/18 18/71/18
f 32/69/18 18/71/18 22/72/18
usemtl common_steel
f 27/73/19 28/74/19 29/75/19
f 27/73/19 29/75/19 34/76/19
f 446/77/20 447/78/20 28/79/20
f 446/77/20 28/79/20 27/80/20
usemtl common_table
f 445/81/21 446/82/21 27/83/21
f 445/81/21 27/83/21 35/84/21
usemtl arithmetic_logic_machine
f 37/85/22 38/86/22 40/87/22
f 37/85/22 40/87/22 39/88/22
f 41/89/23 37/90/23 39/91/23
f 41/89/23 39/91/23 42/92/23
f 43/93/24 44/94/24 45/95/24
f 43/93/24 45/95/24 37/96/24
f 46/97/25 43/98/25 37/99/25
f 46/97/25 37/99/25 48/100/25
f 44/101/26 47/102/26 49/103/26
f 44/101/26 49/103/26 45/104/26
f 54/105/27 50/106/27 52/107/27
f 54/105/27 52/107/27 41/108/27
f 50/109/28 51/110/28 53/111/28
f 50/109/28 53/111/28 52/112/28
f 55/113/29 56/114/29 38/115/29
f 55/113/29 38/115/29 57/116/29
f 58/117/30 55/118/30 57/119/30
f 58/117/30 57/119/30 59/120/30
f 60/121/31 40/122/31 62/123/31
f 60/121/31 62/123/31 61/124/31
f 63/125/32 60/126/32 61/127/32
f 63/125/32 61/127/32 64/128/32
f 39/129/33 65/130/33 67/131/33
f 39/129/33 67/131/33 66/132/33
f 69/133/34 68/134/34 70/135/34
f 69/133/34 70/135/34 71/136/34
f 68/137/35 39/138/35 66/139/35
f 68/137/35 66/139/35 70/140/35
f 65/141/36 69/142/36 71/143/36
f 65/141/36 71/143/36 67/144/36
f 72/145/37 73/146/37 75/147/37
f 72/145/37 75/147/37 74/148/37
f 42/149/38 72/150/38 74/151/38
f 42/149/38 74/151/38 76/152/38
f 77/153/39 17/154/39 56/155/39
f 77/153/39 56/155/39 43/156/39
f 78/157/40 77/158/40 43/159/40
f 78/157/40 43/159/40 54/160/40
f 66/161/41 62/162/41 81/163/41
f 66/161/41 81/163/41 80/164/41
usemtl common_bottom
f 82/165/42 80/166/42 81/167/42
f 82/165/42 81/167/42 83/168/42
usemtl arithmetic_logic_machine
f 76/169/43 66/170/43 80/171/43
f 76/169/43 80/171/43 82/172/43
f 53/173/44 51/174/44 47/175/44
f 53/173/44 47/175/44 49/176/44
f 59/177/45 49/178/45 47/179/45
f 59/177/45 47/179/45 58/180/45
f 49/181/46 48/182/46 52/183/46
f 49/181/46 52/183/46 53/184/46
f 47/185/47 44/186/47 55/187/47
f 47/185/47 55/187/47 58/188/47
f 46/189/48 47/190/48 51/191/48
f 46/189/48 51/191/48 50/192/48
f 47/193/49 46/194/49 48/195/49
f 47/193/49 48/195/49 49/196/49
f 45/197/50 49/198/50 59/199/50
f 45/197/50 59/199/50 57/200/50
f 71/201/51 69/202/51 63/203/51
f 71/201/51 63/203/51 64/204/51
f 69/205/52 71/206/52 75/207/52
f 69/205/52 75/207/52 73/208/52
f 68/209/53 69/210/53 73/211/53
f 68/209/53 73/211/53 72/212/53
f 69/213/54 65/214/54 60/215/54
f 69/213/54 60/215/54 63/216/54
f 67/217/55 71/218/55 64/219/55
f 67/217/55 64/219/55 61/220/55
f 71/221/56 70/222/56 74/223/56
f 71/221/56 74/223/56 75/224/56
f 87/225/57 86/226/57 88/227/57
f 87/225/57 88/227/57 89/228/57
usemtl common_steel
f 87/229/58 85/230/58 84/231/58
f 87/229/58 84/231/58 86/232/58
usemtl common_bottom
f 88/233/59 82/234/59 83/235/59
f 88/233/59 83/235/59 89/236/59
usemtl arithmetic_logic_machine
f 86/237/60 84/238/60 82/239/60
f 86/237/60 82/239/60 88/240/60
usemtl common_steel
f 79/241/61 78/242/61 84/243/61
f 79/241/61 84/243/61 85/244/61
f 85/245/62 87/246/62 19/247/62
f 85/245/62 19/247/62 79/248/62
usemtl common_table
f 448/249/63 445/250/63 35/251/63
f 448/249/63 35/251/63 91/252/63
usemtl common_steel
f 101/253/64 100/254/64 102/255/64
f 101/253/64 102/255/64 103/256/64
usemtl common_bottom
f 83/257/65 94/258/65 93/259/65
f 83/257/65 93/259/65 89/260/65
usemtl common_steel
f 94/261/66 95/262/66 31/263/66
f 94/261/66 31/263/66 93/264/66
f 95/265/67 94/266/67 92/267/67
f 95/265/67 92/267/67 22/268/67
usemtl common_bottom
f 94/269/68 83/270/68 81/271/68
f 94/269/68 81/271/68 92/272/68
usemtl common_steel
f 92/273/69 98/274/69 96/275/69
f 92/273/69 96/275/69 22/276/69
f 22/277/70 96/278/70 97/279/70
f 22/277/70 97/279/70 32/280/70
f 32/281/71 97/282/71 99/283/71
f 32/281/71 99/283/71 81/284/71
f 81/285/72 99/286/72 98/287/72
f 81/285/72 98/287/72 92/288/72
f 98/289/73 102/290/73 100/291/73
f 98/289/73 100/291/73 96/292/73
f 96/293/74 100/294/74 101/295/74
f 96/293/74 101/295/74 97/296/74
f 97/297/75 101/298/75 103/299/75
f 97/297/75 103/299/75 99/300/75
f 99/301/76 103/302/76 102/303/76
f 99/301/76 102/303/76 98/304/76
f 106/305/77 104/306/77 105/307/77
f 106/305/77 105/307/77 107/308/77
f 108/309/78 111/310/78 93/311/78
f 108/309/78 93/311/78 31/312/78
f 109/313/79 108/314/79 31/315/79
f 109/313/79 31/315/79 33/316/79
f 110/317/80 109/318/80 33/319/80
f 110/317/80 33/319/80 89/320/80
f 111/321/81 110/322/81 89/323/81
f 111/321/81 89/323/81 93/324/81
f 104/325/82 106/326/82 111/327/82
f 104/325/82 111/327/82 108/328/82
f 105/329/83 104/330/83 108/331/83
f 105/329/83 108/331/83 109/332/83
f 107/333/84 105/334/84 109/335/84
f 107/333/84 109/335/84 110/336/84
f 106/337/85 107/338/85 110/339/85
f 106/337/85 110/339/85 111/340/85
usemtl arithmetic_logic_machine
f 115/341/86 114/342/86 113/343/86
f 115/341/86 113/343/86 29/344/86
f 117/345/87 116/346/87 26/347/87
f 117/345/87 26/347/87 112/348/87
f 113/349/88 112/350/88 118/351/88
f 113/349/88 118/351/88 119/352/88
f 120/353/89 121/354/89 123/355/89
f 120/353/89 123/355/89 122/356/89
f 125/357/90 124/358/90 126/359/90
f 125/357/90 126/359/90 127/360/90
f 125/361/91 121/362/91 120/363/91
f 125/361/91 120/363/91 124/364/91
f 124/365/92 120/366/92 122/367/92
f 124/365/92 122/367/92 126/368/92
f 121/369/93 125/370/93 127/371/93
f 121/369/93 127/371/93 123/372/93
f 128/373/94 129/374/94 131/375/94
f 128/373/94 131/375/94 130/376/94
f 133/377/95 132/378/95 134/379/95
f 133/377/95 134/379/95 135/380/95
f 133/381/96 129/382/96 128/383/96
f 133/381/96 128/383/96 132/384/96
f 132/385/97 128/386/97 130/387/97
f 132/385/97 130/387/97 134/388/97
f 129/389/98 133/390/98 135/391/98
f 129/389/98 135/391/98 131/392/98
f 136/393/99 137/394/99 139/395/99
f 136/393/99 139/395/99 138/396/99
f 141/397/100 140/398/100 142/399/100
f 141/397/100 142/399/100 143/400/100
f 141/401/101 137/402/101 136/403/101
f 141/401/101 136/403/101 140/404/101
f 140/405/102 136/406/102 138/407/102
f 140/405/102 138/407/102 142/408/102
f 137/409/103 141/410/103 143/411/103
f 137/409/103 143/411/103 139/412/103
f 144/413/104 145/414/104 147/415/104
f 144/413/104 147/415/104 146/416/104
f 149/417/105 148/418/105 150/419/105
f 149/417/105 150/419/105 151/420/105
f 149/421/106 145/422/106 144/423/106
f 149/421/106 144/423/106 148/424/106
f 148/425/107 144/426/107 146/427/107
f 148/425/107 146/427/107 150/428/107
f 145/429/108 149/430/108 151/431/108
f 145/429/108 151/431/108 147/432/108
f 152/433/109 153/434/109 155/435/109
f 152/433/109 155/435/109 154/436/109
f 157/437/110 156/438/110 158/439/110
f 157/437/110 158/439/110 159/440/110
f 157/441/111 153/442/111 152/443/111
f 157/441/111 152/443/111 156/444/111
f 153/445/112 157/446/112 159/447/112
f 153/445/112 159/447/112 155/448/112
f 163/449/113 161/450/113 160/451/113
f 163/449/113 160/451/113 162/452/113
f 166/453/114 164/454/114 165/455/114
f 166/453/114 165/455/114 167/456/114
f 160/457/115 161/458/115 165/459/115
f 160/457/115 165/459/115 164/460/115
f 167/461/116 165/462/116 161/463/116
f 167/461/116 161/463/116 163/464/116
usemtl common_thingies
f 168/465/117 169/466/117 171/467/117
f 168/465/117 171/467/117 170/468/117
f 173/469/118 172/470/118 174/471/118
f 173/469/118 174/471/118 175/472/118
f 173/473/119 169/474/119 168/475/119
f 173/473/119 168/475/119 172/476/119
f 174/477/120 170/478/120 171/479/120
f 174/477/120 171/479/120 175/480/120
f 169/481/121 173/482/121 175/483/121
f 169/481/121 175/483/121 171/484/121
usemtl arithmetic_logic_machine
f 176/485/122 177/486/122 179/487/122
f 176/485/122 179/487/122 178/488/122
f 181/489/123 180/490/123 182/491/123
f 181/489/123 182/491/123 183/492/123
f 181/493/124 177/494/124 176/495/124
f 181/493/124 176/495/124 180/496/124
f 180/497/125 176/498/125 178/499/125
f 180/497/125 178/499/125 182/500/125
f 177/501/126 181/502/126 183/503/126
f 177/501/126 183/503/126 179/504/126
f 184/505/127 185/506/127 187/507/127
f 184/505/127 187/507/127 186/508/127
f 189/509/128 188/510/128 190/511/128
f 189/509/128 190/511/128 191/512/128
f 188/513/129 184/514/129 186/515/129
f 188/513/129 186/515/129 190/516/129
f 185/517/130 189/518/130 191/519/130
f 185/517/130 191/519/130 187/520/130
usemtl circuit_basic
f 192/521/131 193/522/131 195/523/131
f 192/521/131 195/523/131 194/524/131
f 197/525/132 196/526/132 198/527/132
f 197/525/132 198/527/132 199/528/132
f 197/529/133 193/530/133 192/531/133
f 197/529/133 192/531/133 196/532/133
f 196/533/134 192/534/134 194/535/134
f 196/533/134 194/535/134 198/536/134
f 193/537/135 197/538/135 199/539/135
f 193/537/135 199/539/135 195/540/135
usemtl arithmetic_logic_machine
f 200/541/136 201/542/136 203/543/136
f 200/541/136 203/543/136 202/544/136
f 205/545/137 204/546/137 206/547/137
f 205/545/137 206/547/137 207/548/137
f 205/549/138 201/550/138 200/551/138
f 205/549/138 200/551/138 204/552/138
f 204/553/139 200/554/139 202/555/139
f 204/553/139 202/555/139 206/556/139
f 201/557/140 205/558/140 207/559/140
f 201/557/140 207/559/140 203/560/140
f 208/561/141 209/562/141 211/563/141
f 208/561/141 211/563/141 210/564/141
f 213/565/142 209/566/142 208/567/142
f 213/565/142 208/567/142 212/568/142
f 214/569/143 210/570/143 211/571/143
f 214/569/143 211/571/143 215/572/143
f 212/573/144 208/574/144 210/575/144
f 212/573/144 210/575/144 214/576/144
f 209/577/145 213/578/145 215/579/145
f 209/577/145 215/579/145 211/580/145
f 216/581/146 217/582/146 219/583/146
f 216/581/146 219/583/146 218/584/146
f 221/585/147 220/586/147 222/587/147
f 221/585/147 222/587/147 223/588/147
f 221/589/148 217/590/148 216/591/148
f 221/589/148 216/591/148 220/592/148
f 220/593/149 216/594/149 218/595/149
f 220/593/149 218/595/149 222/596/149
f 217/597/150 221/598/150 223/599/150
f 217/597/150 223/599/150 219/600/150
f 224/601/151 225/602/151 227/603/151
f 224/601/151 227/603/151 226/604/151
f 229/605/152 225/606/152 224/607/152
f 229/605/152 224/607/152 228/608/152
f 228/609/153 224/610/153 226/611/153
f 228/609/153 226/611/153 230/612/153
f 225/613/154 229/614/154 231/615/154
f 225/613/154 231/615/154 227/616/154
f 227/617/155 231/618/155 230/619/155
f 227/617/155 230/619/155 226/620/155
f 232/621/156 233/622/156 235/623/156
f 232/621/156 235/623/156 234/624/156
f 237/625/157 236/626/157 238/627/157
f 237/625/157 238/627/157 239/628/157
f 237/629/158 233/630/158 232/631/158
f 237/629/158 232/631/158 236/632/158
f 236/633/159 232/634/159 234/635/159
f 236/633/159 234/635/159 238/636/159
f 233/637/160 237/638/160 239/639/160
f 233/637/160 239/639/160 235/640/160
f 240/641/161 241/642/161 243/643/161
f 240/641/161 243/643/161 242/644/161
f 245/645/162 244/646/162 246/647/162
f 245/645/162 246/647/162 247/648/162
f 245/649/163 241/650/163 240/651/163
f 245/649/163 240/651/163 244/652/163
f 244/653/164 240/654/164 242/655/164
f 244/653/164 242/655/164 246/656/164
f 241/657/165 245/658/165 247/659/165
f 241/657/165 247/659/165 243/660/165
f 248/661/166 249/662/166 251/663/166
f 248/661/166 251/663/166 250/664/166
f 253/665/167 249/666/167 248/667/167
f 253/665/167 248/667/167 252/668/167
f 252/669/168 248/670/168 250/671/168
f 252/669/168 250/671/168 254/672/168
f 249/673/169 253/674/169 255/675/169
f 249/673/169 255/675/169 251/676/169
f 251/677/170 255/678/170 254/679/170
f 251/677/170 254/679/170 250/680/170
f 256/681/171 257/682/171 259/683/171
f 256/681/171 259/683/171 258/684/171
f 261/685/172 260/686/172 262/687/172
f 261/685/172 262/687/172 263/688/172
f 261/689/173 257/690/173 256/691/173
f 261/689/173 256/691/173 260/692/173
f 260/693/174 256/694/174 258/695/174
f 260/693/174 258/695/174 262/696/174
f 257/697/175 261/698/175 263/699/175
f 257/697/175 263/699/175 259/700/175
f 264/701/176 265/702/176 267/703/176
f 264/701/176 267/703/176 266/704/176
f 269/705/177 268/706/177 270/707/177
f 269/705/177 270/707/177 271/708/177
f 270/709/178 266/710/178 267/711/178
f 270/709/178 267/711/178 271/712/178
f 268/713/179 264/714/179 266/715/179
f 268/713/179 266/715/179 270/716/179
f 265/717/180 269/718/180 271/719/180
f 265/717/180 271/719/180 267/720/180
f 272/721/181 273/722/181 275/723/181
f 272/721/181 275/723/181 274/724/181
f 277/725/182 276/726/182 278/727/182
f 277/725/182 278/727/182 279/728/182
f 276/729/183 272/730/183 274/731/183
f 276/729/183 274/731/183 278/732/183
f 273/733/184 277/734/184 279/735/184
f 273/733/184 279/735/184 275/736/184
f 277/737/185 273/738/185 272/739/185
f 277/737/185 272/739/185 276/740/185
f 280/741/186 281/742/186 283/743/186
f 280/741/186 283/743/186 282/744/186
f 285/745/187 282/746/187 283/747/187
f 285/745/187 283/747/187 286/748/187
f 162/749/188 280/750/188 282/751/188
f 162/749/188 282/751/188 285/752/188
f 281/753/189 284/754/189 286/755/189
f 281/753/189 286/755/189 283/756/189
f 290/757/190 288/758/190 287/759/190
f 290/757/190 287/759/190 289/760/190
f 290/761/191 289/762/191 293/763/191
f 290/761/191 293/763/191 294/764/191
f 289/765/192 287/766/192 291/767/192
f 289/765/192 291/767/192 293/768/192
f 294/769/193 292/770/193 288/771/193
f 294/769/193 288/771/193 290/772/193
usemtl common_table
f 295/773/194 296/774/194 298/775/194
f 295/773/194 298/775/194 297/776/194
f 300/777/195 299/778/195 301/779/195
f 300/777/195 301/779/195 302/780/195
f 301/781/196 297/782/196 298/783/196
f 301/781/196 298/783/196 302/784/196
f 299/785/197 295/786/197 297/787/197
f 299/785/197 297/787/197 301/788/197
f 296/789/198 300/790/198 302/791/198
f 296/789/198 302/791/198 298/792/198
f 303/793/199 304/794/199 306/795/199
f 303/793/199 306/795/199 305/796/199
f 308/797/200 307/798/200 309/799/200
f 308/797/200 309/799/200 310/800/200
f 309/801/201 305/802/201 306/803/201
f 309/801/201 306/803/201 310/804/201
f 307/805/202 303/806/202 305/807/202
f 307/805/202 305/807/202 309/808/202
f 304/809/203 308/810/203 310/811/203
f 304/809/203 310/811/203 306/812/203
f 311/813/204 312/814/204 314/815/204
f 311/813/204 314/815/204 313/816/204
f 316/817/205 315/818/205 317/819/205
f 316/817/205 317/819/205 318/820/205
f 317/821/206 313/822/206 314/823/206
f 317/821/206 314/823/206 318/824/206
f 315/825/207 311/826/207 313/827/207
f 315/825/207 313/827/207 317/828/207
f 312/829/208 316/830/208 318/831/208
f 312/829/208 318/831/208 314/832/208
f 319/833/209 320/834/209 322/835/209
f 319/833/209 322/835/209 321/836/209
f 324/837/210 323/838/210 325/839/210
f 324/837/210 325/839/210 326/840/210
f 325/841/211 321/842/211 322/843/211
f 325/841/211 322/843/211 326/844/211
f 323/845/212 319/846/212 321/847/212
f 323/845/212 321/847/212 325/848/212
f 320/849/213 324/850/213 326/851/213
f 320/849/213 326/851/213 322/852/213
f 22/853/214 327/854/214 329/855/214
f 22/853/214 329/855/214 328/856/214
f 330/857/215 31/858/215 331/859/215
f 330/857/215 331/859/215 332/860/215
f 31/861/216 22/862/216 328/863/216
f 31/861/216 328/863/216 331/864/216
f 327/865/217 330/866/217 332/867/217
f 327/865/217 332/867/217 329/868/217
f 327/869/218 22/870/218 31/871/218
f 327/869/218 31/871/218 330/872/218
f 328/873/219 329/874/219 332/875/219
f 328/873/219 332/875/219 331/876/219
usemtl arithmetic_logic_machine
f 336/877/220 334/878/220 333/879/220
f 336/877/220 333/879/220 335/880/220
f 337/881/221 338/882/221 340/883/221
f 337/881/221 340/883/221 339/884/221
f 342/885/222 341/886/222 343/887/222
f 342/885/222 343/887/222 344/888/222
f 342/889/223 338/890/223 337/891/223
f 342/889/223 337/891/223 341/892/223
f 343/893/224 339/894/224 340/895/224
f 343/893/224 340/895/224 344/896/224
f 338/897/225 342/898/225 344/899/225
f 338/897/225 344/899/225 340/900/225
f 345/901/226 346/902/226 348/903/226
f 345/901/226 348/903/226 347/904/226
f 350/905/227 349/906/227 351/907/227
f 350/905/227 351/907/227 352/908/227
f 350/909/228 346/910/228 345/911/228
f 350/909/228 345/911/228 349/912/228
f 351/913/229 347/914/229 348/915/229
f 351/913/229 348/915/229 352/916/229
f 346/917/230 350/918/230 352/919/230
f 346/917/230 352/919/230 348/920/230
f 353/921/231 354/922/231 356/923/231
f 353/921/231 356/923/231 355/924/231
f 358/925/232 357/926/232 359/927/232
f 358/925/232 359/927/232 360/928/232
f 358/929/233 354/930/233 353/931/233
f 358/929/233 353/931/233 357/932/233
f 359/933/234 355/934/234 356/935/234
f 359/933/234 356/935/234 360/936/234
f 354/937/235 358/938/235 360/939/235
f 354/937/235 360/939/235 356/940/235
f 361/941/236 362/942/236 364/943/236
f 361/941/236 364/943/236 363/944/236
f 366/945/237 365/946/237 367/947/237
f 366/945/237 367/947/237 368/948/237
f 366/949/238 362/950/238 361/951/238
f 366/949/238 361/951/238 365/952/238
f 367/953/239 363/954/239 364/955/239
f 367/953/239 364/955/239 368/956/239
f 362/957/240 366/958/240 368/959/240
f 362/957/240 368/959/240 364/960/240
f 369/961/241 370/962/241 372/963/241
f 369/961/241 372/963/241 371/964/241
f 374/965/242 373/966/242 375/967/242
f 374/965/242 375/967/242 376/968/242
f 374/969/243 370/970/243 369/971/243
f 374/969/243 369/971/243 373/972/243
f 375/973/244 371/974/244 372/975/244
f 375/973/244 372/975/244 376/976/244
f 370/977/245 374/978/245 376/979/245
f 370/977/245 376/979/245 372/980/245
usemtl common_steel
f 115/981/246 116/982/246 377/983/246
f 115/981/246 377/983/246 378/984/246
f 379/985/247 114/986/247 115/987/247
f 379/985/247 115/987/247 378/988/247
f 380/989/248 379/990/248 378/991/248
f 380/989/248 378/991/248 377/992/248
f 117/993/249 380/994/249 377/995/249
f 117/993/249 377/995/249 116/996/249
usemtl common_thingies
f 381/997/250 382/998/250 384/999/250
f 381/997/250 384/999/250 383/1000/250
f 386/1001/251 385/1002/251 387/1003/251
f 386/1001/251 387/1003/251 388/1004/251
f 386/1005/252 382/1006/252 381/1007/252
f 386/1005/252 381/1007/252 385/1008/252
f 387/1009/253 383/1010/253 384/1011/253
f 387/1009/253 384/1011/253 388/1012/253
f 385/1013/254 381/1014/254 383/1015/254
f 385/1013/254 383/1015/254 387/1016/254
f 389/1017/255 390/1018/255 392/1019/255
f 389/1017/255 392/1019/255 391/1020/255
f 394/1021/256 390/1022/256 389/1023/256
f 394/1021/256 389/1023/256 393/1024/256
f 395/1025/257 391/1026/257 392/1027/257
f 395/1025/257 392/1027/257 396/1028/257
f 393/1029/258 389/1030/258 391/1031/258
f 393/1029/258 391/1031/258 395/1032/258
f 390/1033/259 394/1034/259 396/1035/259
f 390/1033/259 396/1035/259 392/1036/259
f 397/1037/260 398/1038/260 400/1039/260
f 397/1037/260 400/1039/260 399/1040/260
f 401/1041/261 397/1042/261 399/1043/261
f 401/1041/261 399/1043/261 403/1044/261
f 398/1045/262 402/1046/262 404/1047/262
f 398/1045/262 404/1047/262 400/1048/262
f 410/1049/263 406/1050/263 405/1051/263
f 410/1049/263 405/1051/263 409/1052/263
f 411/1053/264 407/1054/264 408/1055/264
f 411/1053/264 408/1055/264 412/1056/264
f 409/1057/265 405/1058/265 407/1059/265
f 409/1057/265 407/1059/265 411/1060/265
f 406/1061/266 410/1062/266 412/1063/266
f 406/1061/266 412/1063/266 408/1064/266
f 413/1065/267 414/1066/267 416/1067/267
f 413/1065/267 416/1067/267 415/1068/267
f 417/1069/268 413/1070/268 415/1071/268
f 417/1069/268 415/1071/268 419/1072/268
f 414/1073/269 418/1074/269 420/1075/269
f 414/1073/269 420/1075/269 416/1076/269
usemtl common_copper_cable
f 421/1077/270 422/1078/270 424/1079/270
f 421/1077/270 424/1079/270 423/1080/270
f 426/1081/271 425/1082/271 427/1083/271
f 426/1081/271 427/1083/271 428/1084/271
f 422/1085/272 426/1086/272 428/1087/272
f 422/1085/272 428/1087/272 424/1088/272
usemtl metal
f 429/1089/273 430/1090/273 432/1091/273
f 429/1089/273 432/1091/273 431/1092/273
f 434/1093/274 433/1094/274 435/1095/274
f 434/1093/274 435/1095/274 436/1096/274
f 434/1097/275 430/1098/275 429/1099/275
f 434/1097/275 429/1099/275 433/1100/275
f 435/1101/276 431/1102/276 432/1103/276
f 435/1101/276 432/1103/276 436/1104/276
f 433/1105/277 429/1106/277 431/1107/277
f 433/1105/277 431/1107/277 435/1108/277
f 430/1109/278 434/1110/278 436/1111/278
f 430/1109/278 436/1111/278 432/1112/278
usemtl wooden
f 437/1113/279 438/1114/279 440/1115/279
f 437/1113/279 440/1115/279 439/1116/279
f 442/1117/280 441/1118/280 443/1119/280
f 442/1117/280 443/1119/280 444/1120/280
f 442/1121/281 438/1122/281 437/1123/281
f 442/1121/281 437/1123/281 441/1124/281
f 443/1125/282 439/1126/282 440/1127/282
f 443/1125/282 440/1127/282 444/1128/282
f 441/1129/283 437/1130/283 439/1131/283
f 441/1129/283 439/1131/283 443/1132/283
f 438/1133/284 442/1134/284 444/1135/284
f 438/1133/284 444/1135/284 440/1136/284
usemtl common_thingies
f 405/1137/285 406/1138/285 408/1139/285
f 405/1137/285 408/1139/285 407/1140/285
usemtl common_table
f 446/1141/286 445/1142/286 36/1143/286
f 446/1141/286 36/1143/286 23/1144/286
usemtl common_steel
f 447/1145/287 446/1146/287 23/1147/287
f 447/1145/287 23/1147/287 24/1148/287
usemtl common_table
f 445/1149/288 448/1150/288 90/1151/288
f 445/1149/288 90/1151/288 36/1152/288
usemtl arithmetic_logic_machine
f 456/1153/289 455/1154/289 449/1155/289
f 456/1153/289 449/1155/289 451/1156/289
f 452/1157/290 450/1158/290 453/1159/290
f 452/1157/290 453/1159/290 454/1160/290
f 451/1161/291 449/1162/291 450/1163/291
f 451/1161/291 450/1163/291 452/1164/291
f 454/1165/292 453/1166/292 455/1167/292
f 454/1165/292 455/1167/292 456/1168/292
usemtl common_copper_cable
f 462/1169/293 458/1170/293 457/1171/293
f 462/1169/293 457/1171/293 461/1172/293
f 463/1173/294 459/1174/294 460/1175/294
f 463/1173/294 460/1175/294 464/1176/294
f 461/1177/295 457/1178/295 459/1179/295
f 461/1177/295 459/1179/295 463/1180/295
f 458/1181/296 462/1182/296 464/1183/296
f 458/1181/296 464/1183/296 460/1184/296
f 460/1185/297 466/1186/297 465/1187/297
f 460/1185/297 465/1187/297 459/1188/297
f 469/1189/298 467/1190/298 468/1191/298
f 469/1189/298 468/1191/298 470/1192/298
f 459/1193/299 465/1194/299 467/1195/299
f 459/1193/299 467/1195/299 469/1196/299
f 466/1197/300 460/1198/300 470/1199/300
f 466/1197/300 470/1199/300 468/1200/300
f 466/1201/301 472/1202/301 471/1203/301
f 466/1201/301 471/1203/301 465/1204/301
f 467/1205/302 473/1206/302 474/1207/302
f 467/1205/302 474/1207/302 468/1208/302
f 465/1209/303 471/1210/303 473/1211/303
f 465/1209/303 473/1211/303 467/1212/303
f 472/1213/304 466/1214/304 468/1215/304
f 472/1213/304 468/1215/304 474/1216/304
f 479/1217/305 476/1218/305 477/1219/305
f 479/1217/305 477/1219/305 480/1220/305
f 475/1221/306 478/1222/306 480/1223/306
f 475/1221/306 480/1223/306 477/1224/306
f 484/1225/307 482/1226/307 483/1227/307
f 484/1225/307 483/1227/307 485/1228/307
f 481/1229/308 477/1230/308 485/1231/308
f 481/1229/308 485/1231/308 483/1232/308
f 482/1233/309 487/1234/309 488/1235/309
f 482/1233/309 488/1235/309 483/1236/309
f 486/1237/310 481/1238/310 483/1239/310
f 486/1237/310 483/1239/310 488/1240/310
usemtl common_table
f 489/1241/311 490/1242/311 492/1243/311
f 489/1241/311 492/1243/311 491/1244/311
f 494/1245/312 493/1246/312 495/1247/312
f 494/1245/312 495/1247/312 496/1248/312
f 495/1249/313 491/1250/313 492/1251/313
f 495/1249/313 492/1251/313 496/1252/313
f 490/1253/314 494/1254/314 496/1255/314
f 490/1253/314 496/1255/314 492/1256/314
usemtl common_steel
f 500/1257/315 499/1258/315 501/1259/315
f 500/1257/315 501/1259/315 502/1260/315
f 506/1261/316 505/1262/316 504/1263/316
f 506/1261/316 504/1263/316 498/1264/316
f 498/1265/317 504/1266/317 503/1267/317
f 498/1265/317 503/1267/317 497/1268/317
f 497/1269/318 503/1270/318 507/1271/318
f 497/1269/318 507/1271/318 508/1272/318
f 508/1273/319 507/1274/319 505/1275/319
f 508/1273/319 505/1275/319 506/1276/319
usemtl common_thingies
f 511/1277/320 509/1278/320 510/1279/320
f 511/1277/320 510/1279/320 512/1280/320
f 514/1281/321 513/1282/321 515/1283/321
f 514/1281/321 515/1283/321 516/1284/321
f 510/1285/322 509/1286/322 513/1287/322
f 510/1285/322 513/1287/322 514/1288/322
f 513/1289/323 509/1290/323 511/1291/323
f 513/1289/323 511/1291/323 515/1292/323
f 512/1293/324 510/1294/324 514/1295/324
f 512/1293/324 514/1295/324 516/1296/324
usemtl common_steel
f 502/1297/325 501/1298/325 505/1299/325
f 502/1297/325 505/1299/325 507/1300/325
f 500/1301/326 502/1302/326 507/1303/326
f 500/1301/326 507/1303/326 503/1304/326
f 499/1305/327 500/1306/327 503/1307/327
f 499/1305/327 503/1307/327 504/1308/327
f 501/1309/328 499/1310/328 504/1311/328
f 501/1309/328 504/1311/328 505/1312/328