# Made by Pabilo8 with Blockbench
# Exported with IIToolkit Plugin
mtllib arithmetic_logic_machine.mtl


o light1
v -0.11875 1.88125 0.12187500000000001
v -0.11875 1.88125 0.0234375
v -0.11875 1.80625 0.12187500000000001
v -0.11875 1.80625 0.0234375
v -0.19375 1.88125 0.12187500000000001
v -0.19375 1.88125 0.0234375
v -0.19375 1.80625 0.12187500000000001
v -0.19375 1.80625 0.0234375
vt 0.6875 0.8125
vt 0.6875 0.8359375
vt 0.671875 0.8359375
vt 0.671875 0.8125
vt 0.6875 0.8125
vt 0.6875 0.8359375
vt 0.671875 0.8359375
vt 0.671875 0.8125
vt 0.6875 0.8125
vt 0.6875 0.8359375
vt 0.671875 0.8359375
vt 0.671875 0.8125
vt 0.6875 0.8125
vt 0.6875 0.8359375
vt 0.671875 0.8359375
vt 0.671875 0.8125
vt 0.6875 0.8125
vt 0.6875 0.828125
vt 0.671875 0.828125
vt 0.671875 0.8125
vn 1 0 0
vn -1 0 0
vn 0 1 0
vn 0 -1 0
vn 0 0 -1
usemtl arithmetic_logic_machine
f 4/1/1 2/2/1 1/3/1
f 4/1/1 1/3/1 3/4/1
f 7/5/2 5/6/2 6/7/2
f 7/5/2 6/7/2 8/8/2
f 1/9/3 2/10/3 6/11/3
f 1/9/3 6/11/3 5/12/3
f 4/13/4 3/14/4 7/15/4
f 4/13/4 7/15/4 8/16/4
f 8/17/5 6/18/5 2/19/5
f 8/17/5 2/19/5 4/20/5
o circuit1
v 0.6669181527418385 1.1875 0.10879829028903781
v 0.8483595744415893 1.1875 0.8365200849960353
v 0.6669181527418385 0.4375 0.10879829028903781
v 0.8483595744415893 0.4375 0.8365200849960353
v 0.6062746698495888 1.1875 0.12391840876401705
v 0.7877160915493395 1.1875 0.8516402034710144
v 0.6062746698495888 0.4375 0.12391840876401705
v 0.7877160915493395 0.4375 0.8516402034710144
v 0.8031622280089845 1.125 0.3968955862753075
v 0.8938829388588598 1.125 0.7607564836288061
v 0.8031622280089836 0.9062499999999999 0.39689558627530774
v 0.8938829388588589 0.9062499999999998 0.7607564836288061
v 0.7425187451167347 1.125 0.4120157047502867
v 0.8332394559666101 1.1249999999999998 0.7758766021037853
v 0.7425187451167347 0.90625 0.4120157047502867
v 0.8332394559666095 0.90625 0.7758766021037853
v 0.8031622280089841 0.8749999999999999 0.39689558627530763
v 0.8938829388588594 0.8749999999999999 0.7607564836288061
v 0.8031622280089841 0.65625 0.39689558627530763
v 0.8938829388588594 0.65625 0.7607564836288061
v 0.7425187451167347 0.875 0.4120157047502867
v 0.83323945596661 0.8749999999999999 0.7758766021037852
v 0.7425187451167342 0.65625 0.4120157047502868
v 0.8332394559666092 0.65625 0.7758766021037854
v 0.8636427019089005 0.625 0.6394695178443066
v 0.8938829388588589 0.625 0.7607564836288061
v 0.8636427019089005 0.5 0.6394695178443066
v 0.8938829388588589 0.5 0.7607564836288061
v 0.8029992190166512 0.625 0.6545896363192858
v 0.8332394559666095 0.625 0.7758766021037853
v 0.8029992190166507 0.5 0.6545896363192858
v 0.8332394559666092 0.5 0.7758766021037854
v 0.7729219910590251 0.625 0.27560862049080803
v 0.8031622280089836 0.625 0.39689558627530763
v 0.7729219910590251 0.5 0.2756086204908081
v 0.8031622280089836 0.5 0.39689558627530763
v 0.7122785081667757 0.625 0.2907287389657872
v 0.7425187451167342 0.625 0.4120157047502868
v 0.7122785081667754 0.5 0.2907287389657873
v 0.7425187451167338 0.5 0.4120157047502868
v 0.8182823464839628 0.625 0.4575390691675575
v 0.8485225834339213 0.625 0.5788260349520569
v 0.8182823464839628 0.5 0.4575390691675575
v 0.8485225834339213 0.5 0.5788260349520569
v 0.7576388635917135 0.625 0.47265918764253656
v 0.7878791005416719 0.625 0.5939461534270359
v 0.7576388635917131 0.5 0.4726591876425366
v 0.7878791005416714 0.5 0.593946153427036
vt 0 1
vt 0.75 1
vt 0.75 0.25
vt 0 0.25
vt 0 1
vt 0.75 1
vt 0.75 0.25
vt 0 0.25
vt 0.6875 1
vt 0.75 1
vt 0.75 0.25
vt 0.6875 0.25
vt 0.6875 1
vt 0.75 1
vt 0.75 0.25
vt 0.6875 0.25
vt 0 1
vt 0.0625 1
vt 0.0625 0.25
vt 0 0.25
vt 0.6875 1
vt 0.75 1
vt 0.75 0.25
vt 0.6875 0.25
vt 1 1
vt 1 0.625
vt 0.75 0.625
vt 0.75 1
vt 0.9375 1
vt 1 1
vt 1 0.625
vt 0.9375 0.625
vt 0.7499626249251723 0.9999938349366541
vt 0.8124630096199245 1
vt 0.8125 0.6249976918314881
vt 0.7500006421907992 0.6249976918314881
vt 1 1
vt 1 0.9375
vt 0.75 0.9375
vt 0.75 1
vt 1 0.6875
vt 1 0.625
vt 0.75 0.625
vt 0.75 0.6875
vt 1 1
vt 1 0.625
vt 0.75 0.625
vt 0.75 1
vt 0.9375 1
vt 1 1
vt 1 0.625
vt 0.9375 0.625
vt 0.7499626249251723 0.9999938349366541
vt 0.8124630096199245 1
vt 0.8125 0.6249976918314881
vt 0.7500006421907992 0.6249976918314881
vt 1 1
vt 1 0.9375
vt 0.75 0.9375
vt 0.75 1
vt 1 0.6875
vt 1 0.625
vt 0.75 0.625
vt 0.75 0.6875
vt 0.875 0.25
vt 1 0.25
vt 1 0.125
vt 0.875 0.125
vt 0.9375 0.125
vt 0.875 0.125
vt 0.875 0.25
vt 0.9375 0.25
vt 0.875 0.25
vt 0.9375 0.25
vt 0.9375 0.125
vt 0.875 0.125
vt 0.9375 0.25
vt 1 0.25
vt 1 0.125
vt 0.9375 0.125
vt 0.9375 0.25
vt 1 0.25
vt 1 0.125
vt 0.9375 0.125
vt 0.75 0.25
vt 0.875 0.25
vt 0.875 0.125
vt 0.75 0.125
vt 0.8125 0.125
vt 0.75 0.125
vt 0.75 0.25
vt 0.8125 0.25
vt 0.75 0.25
vt 0.8125 0.25
vt 0.8125 0.125
vt 0.75 0.125
vt 0.8125 0.25
vt 0.875 0.25
vt 0.875 0.125
vt 0.8125 0.125
vt 0.8125 0.25
vt 0.875 0.25
vt 0.875 0.125
vt 0.8125 0.125
vt 0.625 0.25
vt 0.75 0.25
vt 0.75 0.125
vt 0.625 0.125
vt 0.6875 0.125
vt 0.625 0.125
vt 0.625 0.25
vt 0.6875 0.25
vt 0.625 0.25
vt 0.6875 0.25
vt 0.6875 0.125
vt 0.625 0.125
vt 0.6875 0.25
vt 0.75 0.25
vt 0.75 0.125
vt 0.6875 0.125
vt 0.6875 0.25
vt 0.75 0.25
vt 0.75 0.125
vt 0.6875 0.125
vn 0.9702957262759965 0 -0.24192189559966765
vn -0.9702957262759965 0 0.24192189559966765
vn 0 1 0
vn 0 -1 0
vn -0.24192189559966765 0 -0.9702957262759965
vn 0.24192189559966765 0 0.9702957262759965
vn 0.9702957262759965 -4.060244204343428e-15 -0.24192189559966765
vn -1.7235914496111997e-15 1 4.29739613849143e-16
vn -1.7952147185860814e-15 -1 1.4247437224728232e-16
vn -0.24192189559966765 0 -0.9702957262759965
vn 0.24192189559966765 -5.075305255429293e-16 0.9702957262759965
vn 0.9702957262759965 0 -0.24192189559966765
vn 0 1 0
vn 0 -1 0
vn -0.24192189559966765 0 -0.9702957262759965
vn 0.24192189559966765 0 0.9702957262759965
vn 0.9702957262759965 0 -0.24192189559966765
vn 0 1 0
vn 0 -1 0
vn -0.24192189559966765 0 -0.9702957262759965
vn 0.24192189559966765 0 0.9702957262759965
vn 0.9702957262759965 0 -0.24192189559966765
vn 0 1 0
vn 0 -1 0
vn -0.2419218955996681 -2.220446049250313e-16 -0.9702957262759964
vn 0.24192189559966765 -4.440892098500626e-16 0.9702957262759965
vn 0.9702957262759965 0 -0.24192189559966765
vn 0 1 0
vn 0 -1 0
vn -0.24192189559966765 0 -0.9702957262759965
vn 0.24192189559966765 0 0.9702957262759965
usemtl circuit1
f 9/21/6 10/22/6 12/23/6
f 9/21/6 12/23/6 11/24/6
f 14/25/7 13/26/7 15/27/7
f 14/25/7 15/27/7 16/28/7
f 14/29/8 10/30/8 9/31/8
f 14/29/8 9/31/8 13/32/8
f 15/33/9 11/34/9 12/35/9
f 15/33/9 12/35/9 16/36/9
f 13/37/10 9/38/10 11/39/10
f 13/37/10 11/39/10 15/40/10
f 10/41/11 14/42/11 16/43/11
f 10/41/11 16/43/11 12/44/11
f 17/45/12 18/46/12 20/47/12
f 17/45/12 20/47/12 19/48/12
f 22/49/13 18/50/13 17/51/13
f 22/49/13 17/51/13 21/52/13
f 23/53/14 19/54/14 20/55/14
f 23/53/14 20/55/14 24/56/14
f 21/57/15 17/58/15 19/59/15
f 21/57/15 19/59/15 23/60/15
f 18/61/16 22/62/16 24/63/16
f 18/61/16 24/63/16 20/64/16
f 25/65/17 26/66/17 28/67/17
f 25/65/17 28/67/17 27/68/17
f 30/69/18 26/70/18 25/71/18
f 30/69/18 25/71/18 29/72/18
f 31/73/19 27/74/19 28/75/19
f 31/73/19 28/75/19 32/76/19
f 29/77/20 25/78/20 27/79/20
f 29/77/20 27/79/20 31/80/20
f 26/81/21 30/82/21 32/83/21
f 26/81/21 32/83/21 28/84/21
f 33/85/22 34/86/22 36/87/22
f 33/85/22 36/87/22 35/88/22
f 38/89/23 34/90/23 33/91/23
f 38/89/23 33/91/23 37/92/23
f 39/93/24 35/94/24 36/95/24
f 39/93/24 36/95/24 40/96/24
f 37/97/25 33/98/25 35/99/25
f 37/97/25 35/99/25 39/100/25
f 34/101/26 38/102/26 40/103/26
f 34/101/26 40/103/26 36/104/26
f 41/105/27 42/106/27 44/107/27
f 41/105/27 44/107/27 43/108/27
f 46/109/28 42/110/28 41/111/28
f 46/109/28 41/111/28 45/112/28
f 47/113/29 43/114/29 44/115/29
f 47/113/29 44/115/29 48/116/29
f 45/117/30 41/118/30 43/119/30
f 45/117/30 43/119/30 47/120/30
f 42/121/31 46/122/31 48/123/31
f 42/121/31 48/123/31 44/124/31
f 49/125/32 50/126/32 52/127/32
f 49/125/32 52/127/32 51/128/32
f 54/129/33 50/130/33 49/131/33
f 54/129/33 49/131/33 53/132/33
f 55/133/34 51/134/34 52/135/34
f 55/133/34 52/135/34 56/136/34
f 53/137/35 49/138/35 51/139/35
f 53/137/35 51/139/35 55/140/35
f 50/141/36 54/142/36 56/143/36
f 50/141/36 56/143/36 52/144/36
o light2
v -0.2125 1.88125 0.12187500000000001
v -0.2125 1.88125 0.0234375
v -0.2125 1.80625 0.12187500000000001
v -0.2125 1.80625 0.0234375
v -0.2875 1.88125 0.12187500000000001
v -0.2875 1.88125 0.0234375
v -0.2875 1.80625 0.12187500000000001
v -0.2875 1.80625 0.0234375
vt 0.6875 0.8125
vt 0.6875 0.8359375
vt 0.671875 0.8359375
vt 0.671875 0.8125
vt 0.6875 0.8125
vt 0.6875 0.8359375
vt 0.671875 0.8359375
vt 0.671875 0.8125
vt 0.6875 0.8125
vt 0.6875 0.8359375
vt 0.671875 0.8359375
vt 0.671875 0.8125
vt 0.6875 0.8125
vt 0.6875 0.8359375
vt 0.671875 0.8359375
vt 0.671875 0.8125
vt 0.6875 0.8125
vt 0.6875 0.828125
vt 0.671875 0.828125
vt 0.671875 0.8125
vn 1 0 0
vn -1 0 0
vn 0 1 0
vn 0 -1 0
vn 0 0 -1
usemtl arithmetic_logic_machine
f 60/145/37 58/146/37 57/147/37
f 60/145/37 57/147/37 59/148/37
f 63/149/38 61/150/38 62/151/38
f 63/149/38 62/151/38 64/152/38
f 57/153/39 58/154/39 62/155/39
f 57/153/39 62/155/39 61/156/39
f 60/157/40 59/158/40 63/159/40
f 60/157/40 63/159/40 64/160/40
f 64/161/41 62/162/41 58/163/41
f 64/161/41 58/163/41 60/164/41
o circuit2
v 0.4794181527418384 1.1875 0.10879829028903781
v 0.6608595744415892 1.1875 0.8365200849960353
v 0.4794181527418384 0.4375 0.10879829028903781
v 0.6608595744415892 0.4375 0.8365200849960353
v 0.41877466984958867 1.1875 0.12391840876401705
v 0.6002160915493394 1.1875 0.8516402034710144
v 0.41877466984958867 0.4375 0.12391840876401705
v 0.6002160915493394 0.4375 0.8516402034710144
v 0.6156622280089844 1.125 0.3968955862753075
v 0.7063829388588597 1.125 0.7607564836288061
v 0.6156622280089835 0.9062499999999999 0.39689558627530774
v 0.7063829388588588 0.9062499999999998 0.7607564836288061
v 0.5550187451167345 1.125 0.4120157047502867
v 0.6457394559666099 1.1249999999999998 0.7758766021037853
v 0.5550187451167345 0.90625 0.4120157047502867
v 0.6457394559666094 0.90625 0.7758766021037853
v 0.615662228008984 0.8749999999999999 0.39689558627530763
v 0.7063829388588593 0.8749999999999999 0.7607564836288061
v 0.615662228008984 0.65625 0.39689558627530763
v 0.7063829388588593 0.65625 0.7607564836288061
v 0.5550187451167345 0.875 0.4120157047502867
v 0.6457394559666099 0.8749999999999999 0.7758766021037852
v 0.5550187451167341 0.65625 0.4120157047502868
v 0.645739455966609 0.65625 0.7758766021037854
v 0.6761427019089004 0.625 0.6394695178443066
v 0.7063829388588588 0.625 0.7607564836288061
v 0.6761427019089004 0.5 0.6394695178443066
v 0.7063829388588588 0.5 0.7607564836288061
v 0.6154992190166511 0.625 0.6545896363192858
v 0.6457394559666094 0.625 0.7758766021037853
v 0.6154992190166506 0.5 0.6545896363192858
v 0.645739455966609 0.5 0.7758766021037854
v 0.585421991059025 0.625 0.27560862049080803
v 0.6156622280089835 0.625 0.39689558627530763
v 0.585421991059025 0.5 0.2756086204908081
v 0.6156622280089835 0.5 0.39689558627530763
v 0.5247785081667757 0.625 0.2907287389657872
v 0.5550187451167341 0.625 0.4120157047502868
v 0.5247785081667753 0.5 0.2907287389657873
v 0.5550187451167337 0.5 0.4120157047502868
v 0.6307823464839627 0.625 0.4575390691675575
v 0.6610225834339212 0.625 0.5788260349520569
v 0.6307823464839627 0.5 0.4575390691675575
v 0.6610225834339212 0.5 0.5788260349520569
v 0.5701388635917134 0.625 0.47265918764253656
v 0.6003791005416718 0.625 0.5939461534270359
v 0.570138863591713 0.5 0.4726591876425366
v 0.6003791005416713 0.5 0.593946153427036
vt 0 1
vt 0.75 1
vt 0.75 0.25
vt 0 0.25
vt 0 1
vt 0.75 1
vt 0.75 0.25
vt 0 0.25
vt 0.6875 1
vt 0.75 1
vt 0.75 0.25
vt 0.6875 0.25
vt 0.6875 1
vt 0.75 1
vt 0.75 0.25
vt 0.6875 0.25
vt 0 1
vt 0.0625 1
vt 0.0625 0.25
vt 0 0.25
vt 0.6875 1
vt 0.75 1
vt 0.75 0.25
vt 0.6875 0.25
vt 1 1
vt 1 0.625
vt 0.75 0.625
vt 0.75 1
vt 0.9375 1
vt 1 1
vt 1 0.625
vt 0.9375 0.625
vt 0.7499626249251723 0.9999938349366541
vt 0.8124630096199245 1
vt 0.8125 0.6249976918314881
vt 0.7500006421907992 0.6249976918314881
vt 1 1
vt 1 0.9375
vt 0.75 0.9375
vt 0.75 1
vt 1 0.6875
vt 1 0.625
vt 0.75 0.625
vt 0.75 0.6875
vt 1 1
vt 1 0.625
vt 0.75 0.625
vt 0.75 1
vt 0.9375 1
vt 1 1
vt 1 0.625
vt 0.9375 0.625
vt 0.7499626249251723 0.9999938349366541
vt 0.8124630096199245 1
vt 0.8125 0.6249976918314881
vt 0.7500006421907992 0.6249976918314881
vt 1 1
vt 1 0.9375
vt 0.75 0.9375
vt 0.75 1
vt 1 0.6875
vt 1 0.625
vt 0.75 0.625
vt 0.75 0.6875
vt 0.875 0.25
vt 1 0.25
vt 1 0.125
vt 0.875 0.125
vt 0.9375 0.125
vt 0.875 0.125
vt 0.875 0.25
vt 0.9375 0.25
vt 0.875 0.25
vt 0.9375 0.25
vt 0.9375 0.125
vt 0.875 0.125
vt 0.9375 0.25
vt 1 0.25
vt 1 0.125
vt 0.9375 0.125
vt 0.9375 0.25
vt 1 0.25
vt 1 0.125
vt 0.9375 0.125
vt 0.75 0.25
vt 0.875 0.25
vt 0.875 0.125
vt 0.75 0.125
vt 0.8125 0.125
vt 0.75 0.125
vt 0.75 0.25
vt 0.8125 0.25
vt 0.75 0.25
vt 0.8125 0.25
vt 0.8125 0.125
vt 0.75 0.125
vt 0.8125 0.25
vt 0.875 0.25
vt 0.875 0.125
vt 0.8125 0.125
vt 0.8125 0.25
vt 0.875 0.25
vt 0.875 0.125
vt 0.8125 0.125
vt 0.625 0.25
vt 0.75 0.25
vt 0.75 0.125
vt 0.625 0.125
vt 0.6875 0.125
vt 0.625 0.125
vt 0.625 0.25
vt 0.6875 0.25
vt 0.625 0.25
vt 0.6875 0.25
vt 0.6875 0.125
vt 0.625 0.125
vt 0.6875 0.25
vt 0.75 0.25
vt 0.75 0.125
vt 0.6875 0.125
vt 0.6875 0.25
vt 0.75 0.25
vt 0.75 0.125
vt 0.6875 0.125
vn 0.9702957262759965 0 -0.24192189559966765
vn -0.9702957262759965 0 0.24192189559966765
vn 0 1 0
vn 0 -1 0
vn -0.24192189559966765 0 -0.9702957262759965
vn 0.24192189559966765 0 0.9702957262759965
vn 0.9702957262759965 -4.060244204343428e-15 -0.24192189559966765
vn -1.7235914496111997e-15 1 4.29739613849143e-16
vn -1.7952147185860814e-15 -1 1.4247437224728232e-16
vn -0.24192189559966765 0 -0.9702957262759965
vn 0.24192189559966765 -5.075305255429293e-16 0.9702957262759965
vn 0.9702957262759965 0 -0.24192189559966765
vn 0 1 0
vn 0 -1 0
vn -0.24192189559966765 0 -0.9702957262759965
vn 0.24192189559966765 0 0.9702957262759965
vn 0.9702957262759965 0 -0.24192189559966765
vn 0 1 0
vn 0 -1 0
vn -0.24192189559966765 0 -0.9702957262759965
vn 0.24192189559966765 0 0.9702957262759965
vn 0.9702957262759965 0 -0.24192189559966765
vn 0 1 0
vn 0 -1 0
vn -0.2419218955996681 -2.220446049250313e-16 -0.9702957262759964
vn 0.24192189559966765 -4.440892098500626e-16 0.9702957262759965
vn 0.9702957262759965 0 -0.24192189559966765
vn 0 1 0
vn 0 -1 0
vn -0.24192189559966765 0 -0.9702957262759965
vn 0.24192189559966765 0 0.9702957262759965
usemtl circuit2
f 65/165/42 66/166/42 68/167/42
f 65/165/42 68/167/42 67/168/42
f 70/169/43 69/170/43 71/171/43
f 70/169/43 71/171/43 72/172/43
f 70/173/44 66/174/44 65/175/44
f 70/173/44 65/175/44 69/176/44
f 71/177/45 67/178/45 68/179/45
f 71/177/45 68/179/45 72/180/45
f 69/181/46 65/182/46 67/183/46
f 69/181/46 67/183/46 71/184/46
f 66/185/47 70/186/47 72/187/47
f 66/185/47 72/187/47 68/188/47
f 73/189/48 74/190/48 76/191/48
f 73/189/48 76/191/48 75/192/48
f 78/193/49 74/194/49 73/195/49
f 78/193/49 73/195/49 77/196/49
f 79/197/50 75/198/50 76/199/50
f 79/197/50 76/199/50 80/200/50
f 77/201/51 73/202/51 75/203/51
f 77/201/51 75/203/51 79/204/51
f 74/205/52 78/206/52 80/207/52
f 74/205/52 80/207/52 76/208/52
f 81/209/53 82/210/53 84/211/53
f 81/209/53 84/211/53 83/212/53
f 86/213/54 82/214/54 81/215/54
f 86/213/54 81/215/54 85/216/54
f 87/217/55 83/218/55 84/219/55
f 87/217/55 84/219/55 88/220/55
f 85/221/56 81/222/56 83/223/56
f 85/221/56 83/223/56 87/224/56
f 82/225/57 86/226/57 88/227/57
f 82/225/57 88/227/57 84/228/57
f 89/229/58 90/230/58 92/231/58
f 89/229/58 92/231/58 91/232/58
f 94/233/59 90/234/59 89/235/59
f 94/233/59 89/235/59 93/236/59
f 95/237/60 91/238/60 92/239/60
f 95/237/60 92/239/60 96/240/60
f 93/241/61 89/242/61 91/243/61
f 93/241/61 91/243/61 95/244/61
f 90/245/62 94/246/62 96/247/62
f 90/245/62 96/247/62 92/248/62
f 97/249/63 98/250/63 100/251/63
f 97/249/63 100/251/63 99/252/63
f 102/253/64 98/254/64 97/255/64
f 102/253/64 97/255/64 101/256/64
f 103/257/65 99/258/65 100/259/65
f 103/257/65 100/259/65 104/260/65
f 101/261/66 97/262/66 99/263/66
f 101/261/66 99/263/66 103/264/66
f 98/265/67 102/266/67 104/267/67
f 98/265/67 104/267/67 100/268/67
f 105/269/68 106/270/68 108/271/68
f 105/269/68 108/271/68 107/272/68
f 110/273/69 106/274/69 105/275/69
f 110/273/69 105/275/69 109/276/69
f 111/277/70 107/278/70 108/279/70
f 111/277/70 108/279/70 112/280/70
f 109/281/71 105/282/71 107/283/71
f 109/281/71 107/283/71 111/284/71
f 106/285/72 110/286/72 112/287/72
f 106/285/72 112/287/72 108/288/72
o light3
v -0.30625 1.88125 0.12187500000000001
v -0.30625 1.88125 0.0234375
v -0.30625 1.80625 0.12187500000000001
v -0.30625 1.80625 0.0234375
v -0.38125 1.88125 0.12187500000000001
v -0.38125 1.88125 0.0234375
v -0.38125 1.80625 0.12187500000000001
v -0.38125 1.80625 0.0234375
vt 0.6875 0.8125
vt 0.6875 0.8359375
vt 0.671875 0.8359375
vt 0.671875 0.8125
vt 0.6875 0.8125
vt 0.6875 0.8359375
vt 0.671875 0.8359375
vt 0.671875 0.8125
vt 0.6875 0.8125
vt 0.6875 0.8359375
vt 0.671875 0.8359375
vt 0.671875 0.8125
vt 0.6875 0.8125
vt 0.6875 0.8359375
vt 0.671875 0.8359375
vt 0.671875 0.8125
vt 0.6875 0.8125
vt 0.6875 0.828125
vt 0.671875 0.828125
vt 0.671875 0.8125
vn 1 0 0
vn -1 0 0
vn 0 1 0
vn 0 -1 0
vn 0 0 -1
usemtl arithmetic_logic_machine
f 116/289/73 114/290/73 113/291/73
f 116/289/73 113/291/73 115/292/73
f 119/293/74 117/294/74 118/295/74
f 119/293/74 118/295/74 120/296/74
f 113/297/75 114/298/75 118/299/75
f 113/297/75 118/299/75 117/300/75
f 116/301/76 115/302/76 119/303/76
f 116/301/76 119/303/76 120/304/76
f 120/305/77 118/306/77 114/307/77
f 120/305/77 114/307/77 116/308/77
o circuit3
v 0.2919181527418384 1.1875 0.10879829028903781
v 0.47335957444158916 1.1875 0.8365200849960353
v 0.2919181527418384 0.4375 0.10879829028903781
v 0.47335957444158916 0.4375 0.8365200849960353
v 0.23127466984958867 1.1875 0.12391840876401705
v 0.4127160915493394 1.1875 0.8516402034710144
v 0.23127466984958867 0.4375 0.12391840876401705
v 0.4127160915493394 0.4375 0.8516402034710144
v 0.42816222800898435 1.125 0.3968955862753075
v 0.5188829388588597 1.125 0.7607564836288061
v 0.4281622280089835 0.9062499999999999 0.39689558627530774
v 0.5188829388588588 0.9062499999999998 0.7607564836288061
v 0.3675187451167346 1.125 0.4120157047502867
v 0.4582394559666099 1.1249999999999998 0.7758766021037853
v 0.3675187451167346 0.90625 0.4120157047502867
v 0.4582394559666095 0.90625 0.7758766021037853
v 0.42816222800898396 0.8749999999999999 0.39689558627530763
v 0.5188829388588593 0.8749999999999999 0.7607564836288061
v 0.42816222800898396 0.65625 0.39689558627530763
v 0.5188829388588593 0.65625 0.7607564836288061
v 0.3675187451167346 0.875 0.4120157047502867
v 0.45823945596660987 0.8749999999999999 0.7758766021037852
v 0.36751874511673416 0.65625 0.4120157047502868
v 0.45823945596660903 0.65625 0.7758766021037854
v 0.48864270190890036 0.625 0.6394695178443066
v 0.5188829388588588 0.625 0.7607564836288061
v 0.48864270190890036 0.5 0.6394695178443066
v 0.5188829388588588 0.5 0.7607564836288061
v 0.427999219016651 0.625 0.6545896363192858
v 0.4582394559666095 0.625 0.7758766021037853
v 0.4279992190166506 0.5 0.6545896363192858
v 0.45823945596660903 0.5 0.7758766021037854
v 0.39792199105902504 0.625 0.27560862049080803
v 0.4281622280089835 0.625 0.39689558627530763
v 0.39792199105902504 0.5 0.2756086204908081
v 0.42816222800898346 0.5 0.39689558627530763
v 0.3372785081667757 0.625 0.2907287389657872
v 0.36751874511673416 0.625 0.4120157047502868
v 0.33727850816677524 0.5 0.2907287389657873
v 0.3675187451167337 0.5 0.4120157047502868
v 0.4432823464839627 0.625 0.4575390691675575
v 0.4735225834339211 0.625 0.5788260349520569
v 0.4432823464839627 0.5 0.4575390691675575
v 0.4735225834339211 0.5 0.5788260349520569
v 0.3826388635917134 0.625 0.47265918764253656
v 0.41287910054167176 0.625 0.5939461534270359
v 0.38263886359171295 0.5 0.4726591876425366
v 0.4128791005416713 0.5 0.593946153427036
vt 0 1
vt 0.75 1
vt 0.75 0.25
vt 0 0.25
vt 0 1
vt 0.75 1
vt 0.75 0.25
vt 0 0.25
vt 0.6875 1
vt 0.75 1
vt 0.75 0.25
vt 0.6875 0.25
vt 0.6875 1
vt 0.75 1
vt 0.75 0.25
vt 0.6875 0.25
vt 0 1
vt 0.0625 1
vt 0.0625 0.25
vt 0 0.25
vt 0.6875 1
vt 0.75 1
vt 0.75 0.25
vt 0.6875 0.25
vt 1 1
vt 1 0.625
vt 0.75 0.625
vt 0.75 1
vt 0.9375 1
vt 1 1
vt 1 0.625
vt 0.9375 0.625
vt 0.7499626249251723 0.9999938349366541
vt 0.8124630096199245 1
vt 0.8125 0.6249976918314881
vt 0.7500006421907992 0.6249976918314881
vt 1 1
vt 1 0.9375
vt 0.75 0.9375
vt 0.75 1
vt 1 0.6875
vt 1 0.625
vt 0.75 0.625
vt 0.75 0.6875
vt 1 1
vt 1 0.625
vt 0.75 0.625
vt 0.75 1
vt 0.9375 1
vt 1 1
vt 1 0.625
vt 0.9375 0.625
vt 0.7499626249251723 0.9999938349366541
vt 0.8124630096199245 1
vt 0.8125 0.6249976918314881
vt 0.7500006421907992 0.6249976918314881
vt 1 1
vt 1 0.9375
vt 0.75 0.9375
vt 0.75 1
vt 1 0.6875
vt 1 0.625
vt 0.75 0.625
vt 0.75 0.6875
vt 0.875 0.25
vt 1 0.25
vt 1 0.125
vt 0.875 0.125
vt 0.9375 0.125
vt 0.875 0.125
vt 0.875 0.25
vt 0.9375 0.25
vt 0.875 0.25
vt 0.9375 0.25
vt 0.9375 0.125
vt 0.875 0.125
vt 0.9375 0.25
vt 1 0.25
vt 1 0.125
vt 0.9375 0.125
vt 0.9375 0.25
vt 1 0.25
vt 1 0.125
vt 0.9375 0.125
vt 0.75 0.25
vt 0.875 0.25
vt 0.875 0.125
vt 0.75 0.125
vt 0.8125 0.125
vt 0.75 0.125
vt 0.75 0.25
vt 0.8125 0.25
vt 0.75 0.25
vt 0.8125 0.25
vt 0.8125 0.125
vt 0.75 0.125
vt 0.8125 0.25
vt 0.875 0.25
vt 0.875 0.125
vt 0.8125 0.125
vt 0.8125 0.25
vt 0.875 0.25
vt 0.875 0.125
vt 0.8125 0.125
vt 0.625 0.25
vt 0.75 0.25
vt 0.75 0.125
vt 0.625 0.125
vt 0.6875 0.125
vt 0.625 0.125
vt 0.625 0.25
vt 0.6875 0.25
vt 0.625 0.25
vt 0.6875 0.25
vt 0.6875 0.125
vt 0.625 0.125
vt 0.6875 0.25
vt 0.75 0.25
vt 0.75 0.125
vt 0.6875 0.125
vt 0.6875 0.25
vt 0.75 0.25
vt 0.75 0.125
vt 0.6875 0.125
vn 0.9702957262759965 0 -0.24192189559966765
vn -0.9702957262759965 0 0.24192189559966765
vn 0 1 0
vn 0 -1 0
vn -0.24192189559966765 0 -0.9702957262759965
vn 0.24192189559966765 0 0.9702957262759965
vn 0.9702957262759965 -4.060244204343428e-15 -0.24192189559966765
vn -1.7235914496111997e-15 1 4.29739613849143e-16
vn -1.7952147185860814e-15 -1 1.4247437224728232e-16
vn -0.24192189559966765 0 -0.9702957262759965
vn 0.24192189559966765 -5.075305255429293e-16 0.9702957262759965
vn 0.9702957262759965 0 -0.24192189559966765
vn 0 1 0
vn 0 -1 0
vn -0.24192189559966765 0 -0.9702957262759965
vn 0.24192189559966765 0 0.9702957262759965
vn 0.9702957262759965 0 -0.24192189559966765
vn 0 1 0
vn 0 -1 0
vn -0.24192189559966765 0 -0.9702957262759965
vn 0.24192189559966765 0 0.9702957262759965
vn 0.9702957262759965 0 -0.24192189559966765
vn 0 1 0
vn 0 -1 0
vn -0.2419218955996681 -2.220446049250313e-16 -0.9702957262759964
vn 0.24192189559966765 -4.440892098500626e-16 0.9702957262759965
vn 0.9702957262759965 0 -0.24192189559966765
vn 0 1 0
vn 0 -1 0
vn -0.24192189559966765 0 -0.9702957262759965
vn 0.24192189559966765 0 0.9702957262759965
usemtl circuit3
f 121/309/78 122/310/78 124/311/78
f 121/309/78 124/311/78 123/312/78
f 126/313/79 125/314/79 127/315/79
f 126/313/79 127/315/79 128/316/79
f 126/317/80 122/318/80 121/319/80
f 126/317/80 121/319/80 125/320/80
f 127/321/81 123/322/81 124/323/81
f 127/321/81 124/323/81 128/324/81
f 125/325/82 121/326/82 123/327/82
f 125/325/82 123/327/82 127/328/82
f 122/329/83 126/330/83 128/331/83
f 122/329/83 128/331/83 124/332/83
f 129/333/84 130/334/84 132/335/84
f 129/333/84 132/335/84 131/336/84
f 134/337/85 130/338/85 129/339/85
f 134/337/85 129/339/85 133/340/85
f 135/341/86 131/342/86 132/343/86
f 135/341/86 132/343/86 136/344/86
f 133/345/87 129/346/87 131/347/87
f 133/345/87 131/347/87 135/348/87
f 130/349/88 134/350/88 136/351/88
f 130/349/88 136/351/88 132/352/88
f 137/353/89 138/354/89 140/355/89
f 137/353/89 140/355/89 139/356/89
f 142/357/90 138/358/90 137/359/90
f 142/357/90 137/359/90 141/360/90
f 143/361/91 139/362/91 140/363/91
f 143/361/91 140/363/91 144/364/91
f 141/365/92 137/366/92 139/367/92
f 141/365/92 139/367/92 143/368/92
f 138/369/93 142/370/93 144/371/93
f 138/369/93 144/371/93 140/372/93
f 145/373/94 146/374/94 148/375/94
f 145/373/94 148/375/94 147/376/94
f 150/377/95 146/378/95 145/379/95
f 150/377/95 145/379/95 149/380/95
f 151/381/96 147/382/96 148/383/96
f 151/381/96 148/383/96 152/384/96
f 149/385/97 145/386/97 147/387/97
f 149/385/97 147/387/97 151/388/97
f 146/389/98 150/390/98 152/391/98
f 146/389/98 152/391/98 148/392/98
f 153/393/99 154/394/99 156/395/99
f 153/393/99 156/395/99 155/396/99
f 158/397/100 154/398/100 153/399/100
f 158/397/100 153/399/100 157/400/100
f 159/401/101 155/402/101 156/403/101
f 159/401/101 156/403/101 160/404/101
f 157/405/102 153/406/102 155/407/102
f 157/405/102 155/407/102 159/408/102
f 154/409/103 158/410/103 160/411/103
f 154/409/103 160/411/103 156/412/103
f 161/413/104 162/414/104 164/415/104
f 161/413/104 164/415/104 163/416/104
f 166/417/105 162/418/105 161/419/105
f 166/417/105 161/419/105 165/420/105
f 167/421/106 163/422/106 164/423/106
f 167/421/106 164/423/106 168/424/106
f 165/425/107 161/426/107 163/427/107
f 165/425/107 163/427/107 167/428/107
f 162/429/108 166/430/108 168/431/108
f 162/429/108 168/431/108 164/432/108
o light4
v -0.4 1.88125 0.12187500000000001
v -0.4 1.88125 0.0234375
v -0.4 1.80625 0.12187500000000001
v -0.4 1.80625 0.0234375
v -0.475 1.88125 0.12187500000000001
v -0.475 1.88125 0.0234375
v -0.475 1.80625 0.12187500000000001
v -0.475 1.80625 0.0234375
vt 0.6875 0.8125
vt 0.6875 0.8359375
vt 0.671875 0.8359375
vt 0.671875 0.8125
vt 0.6875 0.8125
vt 0.6875 0.8359375
vt 0.671875 0.8359375
vt 0.671875 0.8125
vt 0.6875 0.8125
vt 0.6875 0.8359375
vt 0.671875 0.8359375
vt 0.671875 0.8125
vt 0.6875 0.8125
vt 0.6875 0.8359375
vt 0.671875 0.8359375
vt 0.671875 0.8125
vt 0.6875 0.8125
vt 0.6875 0.828125
vt 0.671875 0.828125
vt 0.671875 0.8125
vn 1 0 0
vn -1 0 0
vn 0 1 0
vn 0 -1 0
vn 0 0 -1
usemtl arithmetic_logic_machine
f 172/433/109 170/434/109 169/435/109
f 172/433/109 169/435/109 171/436/109
f 175/437/110 173/438/110 174/439/110
f 175/437/110 174/439/110 176/440/110
f 169/441/111 170/442/111 174/443/111
f 169/441/111 174/443/111 173/444/111
f 172/445/112 171/446/112 175/447/112
f 172/445/112 175/447/112 176/448/112
f 176/449/113 174/450/113 170/451/113
f 176/449/113 170/451/113 172/452/113
o circuit4
v 0.10441815274183855 1.1875 0.10879829028903781
v 0.28585957444158927 1.1875 0.8365200849960353
v 0.10441815274183855 0.4375 0.10879829028903781
v 0.28585957444158927 0.4375 0.8365200849960353
v 0.043774669849588776 1.1875 0.12391840876401705
v 0.22521609154933953 1.1875 0.8516402034710144
v 0.043774669849588776 0.4375 0.12391840876401705
v 0.22521609154933953 0.4375 0.8516402034710144
v 0.24066222800898449 1.125 0.3968955862753075
v 0.33138293885885983 1.125 0.7607564836288061
v 0.24066222800898363 0.9062499999999999 0.39689558627530774
v 0.33138293885885894 0.9062499999999998 0.7607564836288061
v 0.18001874511673469 1.125 0.4120157047502867
v 0.27073945596661003 1.1249999999999998 0.7758766021037853
v 0.18001874511673469 0.90625 0.4120157047502867
v 0.2707394559666096 0.90625 0.7758766021037853
v 0.24066222800898404 0.8749999999999999 0.39689558627530763
v 0.3313829388588594 0.8749999999999999 0.7607564836288061
v 0.24066222800898404 0.65625 0.39689558627530763
v 0.3313829388588594 0.65625 0.7607564836288061
v 0.18001874511673469 0.875 0.4120157047502867
v 0.27073945596661 0.8749999999999999 0.7758766021037852
v 0.18001874511673427 0.65625 0.4120157047502868
v 0.27073945596660914 0.65625 0.7758766021037854
v 0.30114270190890047 0.625 0.6394695178443066
v 0.33138293885885894 0.625 0.7607564836288061
v 0.30114270190890047 0.5 0.6394695178443066
v 0.33138293885885894 0.5 0.7607564836288061
v 0.2404992190166511 0.625 0.6545896363192858
v 0.2707394559666096 0.625 0.7758766021037853
v 0.2404992190166507 0.5 0.6545896363192858
v 0.27073945596660914 0.5 0.7758766021037854
v 0.21042199105902512 0.625 0.27560862049080803
v 0.2406622280089836 0.625 0.39689558627530763
v 0.21042199105902515 0.5 0.2756086204908081
v 0.2406622280089836 0.5 0.39689558627530763
v 0.1497785081667758 0.625 0.2907287389657872
v 0.18001874511673424 0.625 0.4120157047502868
v 0.14977850816677535 0.5 0.2907287389657873
v 0.1800187451167338 0.5 0.4120157047502868
v 0.2557823464839628 0.625 0.4575390691675575
v 0.28602258343392123 0.625 0.5788260349520569
v 0.2557823464839628 0.5 0.4575390691675575
v 0.28602258343392123 0.5 0.5788260349520569
v 0.19513886359171348 0.625 0.47265918764253656
v 0.22537910054167187 0.625 0.5939461534270359
v 0.19513886359171304 0.5 0.4726591876425366
v 0.22537910054167146 0.5 0.593946153427036
vt 0 1
vt 0.75 1
vt 0.75 0.25
vt 0 0.25
vt 0 1
vt 0.75 1
vt 0.75 0.25
vt 0 0.25
vt 0.6875 1
vt 0.75 1
vt 0.75 0.25
vt 0.6875 0.25
vt 0.6875 1
vt 0.75 1
vt 0.75 0.25
vt 0.6875 0.25
vt 0 1
vt 0.0625 1
vt 0.0625 0.25
vt 0 0.25
vt 0.6875 1
vt 0.75 1
vt 0.75 0.25
vt 0.6875 0.25
vt 1 1
vt 1 0.625
vt 0.75 0.625
vt 0.75 1
vt 0.9375 1
vt 1 1
vt 1 0.625
vt 0.9375 0.625
vt 0.7499626249251723 0.9999938349366541
vt 0.8124630096199245 1
vt 0.8125 0.6249976918314881
vt 0.7500006421907992 0.6249976918314881
vt 1 1
vt 1 0.9375
vt 0.75 0.9375
vt 0.75 1
vt 1 0.6875
vt 1 0.625
vt 0.75 0.625
vt 0.75 0.6875
vt 1 1
vt 1 0.625
vt 0.75 0.625
vt 0.75 1
vt 0.9375 1
vt 1 1
vt 1 0.625
vt 0.9375 0.625
vt 0.7499626249251723 0.9999938349366541
vt 0.8124630096199245 1
vt 0.8125 0.6249976918314881
vt 0.7500006421907992 0.6249976918314881
vt 1 1
vt 1 0.9375
vt 0.75 0.9375
vt 0.75 1
vt 1 0.6875
vt 1 0.625
vt 0.75 0.625
vt 0.75 0.6875
vt 0.875 0.25
vt 1 0.25
vt 1 0.125
vt 0.875 0.125
vt 0.9375 0.125
vt 0.875 0.125
vt 0.875 0.25
vt 0.9375 0.25
vt 0.875 0.25
vt 0.9375 0.25
vt 0.9375 0.125
vt 0.875 0.125
vt 0.9375 0.25
vt 1 0.25
vt 1 0.125
vt 0.9375 0.125
vt 0.9375 0.25
vt 1 0.25
vt 1 0.125
vt 0.9375 0.125
vt 0.75 0.25
vt 0.875 0.25
vt 0.875 0.125
vt 0.75 0.125
vt 0.8125 0.125
vt 0.75 0.125
vt 0.75 0.25
vt 0.8125 0.25
vt 0.75 0.25
vt 0.8125 0.25
vt 0.8125 0.125
vt 0.75 0.125
vt 0.8125 0.25
vt 0.875 0.25
vt 0.875 0.125
vt 0.8125 0.125
vt 0.8125 0.25
vt 0.875 0.25
vt 0.875 0.125
vt 0.8125 0.125
vt 0.625 0.25
vt 0.75 0.25
vt 0.75 0.125
vt 0.625 0.125
vt 0.6875 0.125
vt 0.625 0.125
vt 0.625 0.25
vt 0.6875 0.25
vt 0.625 0.25
vt 0.6875 0.25
vt 0.6875 0.125
vt 0.625 0.125
vt 0.6875 0.25
vt 0.75 0.25
vt 0.75 0.125
vt 0.6875 0.125
vt 0.6875 0.25
vt 0.75 0.25
vt 0.75 0.125
vt 0.6875 0.125
vn 0.9702957262759965 0 -0.24192189559966765
vn -0.9702957262759965 0 0.24192189559966765
vn 0 1 0
vn 0 -1 0
vn -0.24192189559966765 0 -0.9702957262759965
vn 0.24192189559966765 0 0.9702957262759965
vn 0.9702957262759965 -4.060244204343428e-15 -0.24192189559966765
vn -1.7235914496111997e-15 1 4.29739613849143e-16
vn -1.7952147185860814e-15 -1 1.4247437224728232e-16
vn -0.24192189559966765 0 -0.9702957262759965
vn 0.24192189559966765 -5.075305255429293e-16 0.9702957262759965
vn 0.9702957262759965 0 -0.24192189559966765
vn 0 1 0
vn 0 -1 0
vn -0.24192189559966765 0 -0.9702957262759965
vn 0.24192189559966765 0 0.9702957262759965
vn 0.9702957262759965 0 -0.24192189559966765
vn 0 1 0
vn 0 -1 0
vn -0.24192189559966765 0 -0.9702957262759965
vn 0.24192189559966765 0 0.9702957262759965
vn 0.9702957262759965 0 -0.24192189559966765
vn 0 1 0
vn 0 -1 0
vn -0.2419218955996681 -2.220446049250313e-16 -0.9702957262759964
vn 0.24192189559966765 -4.440892098500626e-16 0.9702957262759965
vn 0.9702957262759965 0 -0.24192189559966765
vn 0 1 0
vn 0 -1 0
vn -0.24192189559966765 0 -0.9702957262759965
vn 0.24192189559966765 0 0.9702957262759965
usemtl circuit4
f 177/453/114 178/454/114 180/455/114
f 177/453/114 180/455/114 179/456/114
f 182/457/115 181/458/115 183/459/115
f 182/457/115 183/459/115 184/460/115
f 182/461/116 178/462/116 177/463/116
f 182/461/116 177/463/116 181/464/116
f 183/465/117 179/466/117 180/467/117
f 183/465/117 180/467/117 184/468/117
f 181/469/118 177/470/118 179/471/118
f 181/469/118 179/471/118 183/472/118
f 178/473/119 182/474/119 184/475/119
f 178/473/119 184/475/119 180/476/119
f 185/477/120 186/478/120 188/479/120
f 185/477/120 188/479/120 187/480/120
f 190/481/121 186/482/121 185/483/121
f 190/481/121 185/483/121 189/484/121
f 191/485/122 187/486/122 188/487/122
f 191/485/122 188/487/122 192/488/122
f 189/489/123 185/490/123 187/491/123
f 189/489/123 187/491/123 191/492/123
f 186/493/124 190/494/124 192/495/124
f 186/493/124 192/495/124 188/496/124
f 193/497/125 194/498/125 196/499/125
f 193/497/125 196/499/125 195/500/125
f 198/501/126 194/502/126 193/503/126
f 198/501/126 193/503/126 197/504/126
f 199/505/127 195/506/127 196/507/127
f 199/505/127 196/507/127 200/508/127
f 197/509/128 193/510/128 195/511/128
f 197/509/128 195/511/128 199/512/128
f 194/513/129 198/514/129 200/515/129
f 194/513/129 200/515/129 196/516/129
f 201/517/130 202/518/130 204/519/130
f 201/517/130 204/519/130 203/520/130
f 206/521/131 202/522/131 201/523/131
f 206/521/131 201/523/131 205/524/131
f 207/525/132 203/526/132 204/527/132
f 207/525/132 204/527/132 208/528/132
f 205/529/133 201/530/133 203/531/133
f 205/529/133 203/531/133 207/532/133
f 202/533/134 206/534/134 208/535/134
f 202/533/134 208/535/134 204/536/134
f 209/537/135 210/538/135 212/539/135
f 209/537/135 212/539/135 211/540/135
f 214/541/136 210/542/136 209/543/136
f 214/541/136 209/543/136 213/544/136
f 215/545/137 211/546/137 212/547/137
f 215/545/137 212/547/137 216/548/137
f 213/549/138 209/550/138 211/551/138
f 213/549/138 211/551/138 215/552/138
f 210/553/139 214/554/139 216/555/139
f 210/553/139 216/555/139 212/556/139
f 217/557/140 218/558/140 220/559/140
f 217/557/140 220/559/140 219/560/140
f 222/561/141 218/562/141 217/563/141
f 222/561/141 217/563/141 221/564/141
f 223/565/142 219/566/142 220/567/142
f 223/565/142 220/567/142 224/568/142
f 221/569/143 217/570/143 219/571/143
f 221/569/143 219/571/143 223/572/143
f 218/573/144 222/574/144 224/575/144
f 218/573/144 224/575/144 220/576/144