# Made by Pabilo8 with Blockbench
# Exported with IIToolkit Plugin on 05/07/2026
mtllib fence_gate.mtl

o main
v 0.4063 3 0.4063
v 0.5938 3 0.4063
v 0.5938 2.1875 0.4063
v 0.4063 2.1875 0.4063
v 0.5938 3 0.5938
v 0.4063 3 0.5938
v 0.5938 2.1875 0.5938
v 0.4063 2.1875 0.5938
v 0.5938 1.1875 0.4063
v 0.4063 1.1875 0.4063
v 0.5938 1.1875 0.5938
v 0.5938 0.0625 0.5938
v 0.5938 0.0625 0.4063
v 0.4063 0.0625 0.4063
v 0.4063 1.1875 0.5938
v 0.4063 0.0625 0.5938
v 0.5938 -0.875 0.5938
v 0.5938 -0.875 0.4063
v 0.4063 -0.875 0.5938
v 0.4063 -0.875 0.4063
v 7.4063 3 0.4062
v 7.5938 3 0.4062
v 7.5938 2.1875 0.4062
v 7.4063 2.1875 0.4062
v 7.5938 3 0.5937
v 7.4063 3 0.5937
v 7.5938 2.1875 0.5937
v 7.4063 2.1875 0.5937
v 7.5938 1.1875 0.4062
v 7.4063 1.1875 0.4062
v 7.5938 1.1875 0.5937
v 7.5938 0.0625 0.5937
v 7.5938 0.0625 0.4062
v 7.4063 0.0625 0.4062
v 7.4063 1.1875 0.5937
v 7.4063 0.0625 0.5937
v 7.5938 -0.875 0.5937
v 7.5938 -0.875 0.4062
v 7.4063 -0.875 0.5937
v 7.4063 -0.875 0.4062
vt 1 0.4375
vt 0.8125 0.4375
vt 0.8125 0.25
vt 1 0.25
vt 0 0.625
vt 0 0.4375
vt 0.8125 0.4375
vt 0.8125 0.625
vt 0 0.625
vt 0 0.4375
vt 0.8125 0.4375
vt 0.8125 0.625
vt 0 0.4375
vt 0 0.625
vt 0.8125 0.625
vt 0.8125 0.4375
vt 0 0.4375
vt 0 0.625
vt 0.8125 0.625
vt 0.8125 0.4375
vt 0 0.25
vt 0 0.0625
vt 0.8125 0.0625
vt 0.8125 0.25
vt 0 0.0625
vt 0 0.25
vt 0.8125 0.25
vt 0.8125 0.0625
vt 0 0.25
vt 0 0.0625
vt 0.8125 0.0625
vt 0.8125 0.25
vt 0 0.25
vt 0 0.0625
vt 0.8125 0.0625
vt 0.8125 0.25
vt 0 0.0625
vt 0 0.25
vt 0.8125 0.25
vt 0.8125 0.0625
vt 0 0.0625
vt 0 0.25
vt 0.8125 0.25
vt 0.8125 0.0625
vt 1 0.625
vt 0.8125 0.625
vt 0.8125 0.4375
vt 1 0.4375
vt 0 0.4375
vt 0 0.25
vt 0.8125 0.25
vt 0.8125 0.4375
vt 0 0.4375
vt 0 0.25
vt 0.8125 0.25
vt 0.8125 0.4375
vt 0 0.25
vt 0 0.4375
vt 0.8125 0.4375
vt 0.8125 0.25
vt 0 0.25
vt 0 0.4375
vt 0.8125 0.4375
vt 0.8125 0.25
vt 0 0.0625
vt 0 0.25
vt 0.8125 0.25
vt 0.8125 0.0625
vt 0 0.25
vt 0 0.0625
vt 0.8125 0.0625
vt 0.8125 0.25
vt 1 0.4375
vt 0.8125 0.4375
vt 0.8125 0.25
vt 1 0.25
vt 0 0.625
vt 0 0.4375
vt 0.8125 0.4375
vt 0.8125 0.625
vt 0 0.625
vt 0 0.4375
vt 0.8125 0.4375
vt 0.8125 0.625
vt 0 0.4375
vt 0 0.625
vt 0.8125 0.625
vt 0.8125 0.4375
vt 0 0.4375
vt 0 0.625
vt 0.8125 0.625
vt 0.8125 0.4375
vt 0 0.25
vt 0 0.0625
vt 0.8125 0.0625
vt 0.8125 0.25
vt 0 0.0625
vt 0 0.25
vt 0.8125 0.25
vt 0.8125 0.0625
vt 0 0.25
vt 0 0.0625
vt 0.8125 0.0625
vt 0.8125 0.25
vt 0 0.25
vt 0 0.0625
vt 0.8125 0.0625
vt 0.8125 0.25
vt 0 0.0625
vt 0 0.25
vt 0.8125 0.25
vt 0.8125 0.0625
vt 0 0.0625
vt 0 0.25
vt 0.8125 0.25
vt 0.8125 0.0625
vt 1 0.625
vt 0.8125 0.625
vt 0.8125 0.4375
vt 1 0.4375
vt 0 0.4375
vt 0 0.25
vt 0.8125 0.25
vt 0.8125 0.4375
vt 0 0.4375
vt 0 0.25
vt 0.8125 0.25
vt 0.8125 0.4375
vt 0 0.25
vt 0 0.4375
vt 0.8125 0.4375
vt 0.8125 0.25
vt 0 0.25
vt 0 0.4375
vt 0.8125 0.4375
vt 0.8125 0.25
vt 0 0.0625
vt 0 0.25
vt 0.8125 0.25
vt 0.8125 0.0625
vt 0 0.25
vt 0 0.0625
vt 0.8125 0.0625
vt 0.8125 0.25
vn 0 1 0
vn 1 0 0
vn -1 0 0
vn 0 0 -1
vn 0 0 1
vn 1 0 0
vn 0 0 -1
vn 1 0 0
vn -1 0 0
vn 0 0 -1
vn 0 0 1
vn 0 -1 0
vn 1 0 0
vn -1 0 0
vn 0 0 -1
vn 0 0 1
vn 0 0 1
vn -1 0 0
vn 0 1 0
vn 1 0 0
vn -1 0 0
vn 0 0 -1
vn 0 0 1
vn 1 0 0
vn 0 0 -1
vn 1 0 0
vn -1 0 0
vn 0 0 -1
vn 0 0 1
vn 0 -1 0
vn 1 0 0
vn -1 0 0
vn 0 0 -1
vn 0 0 1
vn 0 0 1
vn -1 0 0
usemtl wooden_gate
f 5/1/1 2/2/1 1/3/1
f 5/1/1 1/3/1 6/4/1
f 2/5/2 5/6/2 7/7/2
f 2/5/2 7/7/2 3/8/2
f 6/9/3 1/10/3 4/11/3
f 6/9/3 4/11/3 8/12/3
f 1/13/4 2/14/4 3/15/4
f 1/13/4 3/15/4 4/16/4
f 5/17/5 6/18/5 8/19/5
f 5/17/5 8/19/5 7/20/5
f 3/21/6 7/22/6 11/23/6
f 3/21/6 11/23/6 9/24/6
f 4/25/7 3/26/7 9/27/7
f 4/25/7 9/27/7 10/28/7
f 9/29/8 11/30/8 12/31/8
f 9/29/8 12/31/8 13/32/8
f 15/33/9 10/34/9 14/35/9
f 15/33/9 14/35/9 16/36/9
f 10/37/10 9/38/10 13/39/10
f 10/37/10 13/39/10 14/40/10
f 11/41/11 15/42/11 16/43/11
f 11/41/11 16/43/11 12/44/11
f 19/45/12 20/46/12 18/47/12
f 19/45/12 18/47/12 17/48/12
f 13/49/13 12/50/13 17/51/13
f 13/49/13 17/51/13 18/52/13
f 16/53/14 14/54/14 20/55/14
f 16/53/14 20/55/14 19/56/14
f 14/57/15 13/58/15 18/59/15
f 14/57/15 18/59/15 20/60/15
f 12/61/16 16/62/16 19/63/16
f 12/61/16 19/63/16 17/64/16
f 7/65/17 8/66/17 15/67/17
f 7/65/17 15/67/17 11/68/17
f 8/69/18 4/70/18 10/71/18
f 8/69/18 10/71/18 15/72/18
f 25/73/19 22/74/19 21/75/19
f 25/73/19 21/75/19 26/76/19
f 22/77/20 25/78/20 27/79/20
f 22/77/20 27/79/20 23/80/20
f 26/81/21 21/82/21 24/83/21
f 26/81/21 24/83/21 28/84/21
f 21/85/22 22/86/22 23/87/22
f 21/85/22 23/87/22 24/88/22
f 25/89/23 26/90/23 28/91/23
f 25/89/23 28/91/23 27/92/23
f 23/93/24 27/94/24 31/95/24
f 23/93/24 31/95/24 29/96/24
f 24/97/25 23/98/25 29/99/25
f 24/97/25 29/99/25 30/100/25
f 29/101/26 31/102/26 32/103/26
f 29/101/26 32/103/26 33/104/26
f 35/105/27 30/106/27 34/107/27
f 35/105/27 34/107/27 36/108/27
f 30/109/28 29/110/28 33/111/28
f 30/109/28 33/111/28 34/112/28
f 31/113/29 35/114/29 36/115/29
f 31/113/29 36/115/29 32/116/29
f 39/117/30 40/118/30 38/119/30
f 39/117/30 38/119/30 37/120/30
f 33/121/31 32/122/31 37/123/31
f 33/121/31 37/123/31 38/124/31
f 36/125/32 34/126/32 40/127/32
f 36/125/32 40/127/32 39/128/32
f 34/129/33 33/130/33 38/131/33
f 34/129/33 38/131/33 40/132/33
f 32/133/34 36/134/34 39/135/34
f 32/133/34 39/135/34 37/136/34
f 27/137/35 28/138/35 35/139/35
f 27/137/35 35/139/35 31/140/35
f 28/141/36 24/142/36 30/143/36
f 28/141/36 30/143/36 35/144/36
o right
v 0.852 2.8202 0.5625
v 0.8438 3 0.4063
v 0.8438 3 0.5938
v 0.6563 3 0.5938
v 0.6563 3 0.4063
v 0.6563 2.1875 0.4063
v 0.6563 2.1875 0.5938
v 0.8438 2.1875 0.5938
v 0.8438 2.1875 0.4063
v 0.6563 1.1875 0.5938
v 0.8438 1.1875 0.5938
v 0.8438 1.1875 0.4063
v 0.6563 1.1875 0.4063
v 0.6563 0.0625 0.4063
v 0.6563 0.0625 0.5938
v 0.8438 0.0625 0.5938
v 0.8438 0.0625 0.4063
v 0.6563 -0.875 0.4063
v 0.6563 -0.875 0.5938
v 0.8438 -0.875 0.5938
v 0.8438 -0.875 0.4063
v 0.9063 2.5625 0.3438
v 0.9063 2.5625 0.6563
v 0.8438 2.5625 0.6563
v 0.8438 2.5625 0.3438
v 0.8438 2.4375 0.3438
v 0.8438 2.4375 0.6563
v 0.9063 2.4375 0.6563
v 0.9063 2.4375 0.3438
v 0.4063 2.5625 0.3438
v 0.4063 2.5625 0.6563
v 0.3438 2.5625 0.6563
v 0.3438 2.5625 0.3438
v 0.3438 2.4375 0.3438
v 0.3438 2.4375 0.6563
v 0.4063 2.4375 0.6563
v 0.4063 2.4375 0.3438
v 0.8438 2.4375 0.4063
v 0.8438 2.5625 0.4063
v 0.4063 2.5625 0.4063
v 0.4063 2.4375 0.4063
v 0.8438 2.4375 0.5938
v 0.8438 2.5625 0.5938
v 0.4063 2.5625 0.5938
v 0.4063 2.4375 0.5938
v 0.9063 -0.3125 0.3438
v 0.9063 -0.3125 0.6563
v 0.8438 -0.3125 0.6563
v 0.8438 -0.3125 0.3438
v 0.8438 -0.4375 0.3438
v 0.8438 -0.4375 0.6563
v 0.9063 -0.4375 0.6563
v 0.9063 -0.4375 0.3438
v 0.4063 -0.3125 0.3438
v 0.4063 -0.3125 0.6563
v 0.3438 -0.3125 0.6563
v 0.3438 -0.3125 0.3438
v 0.3438 -0.4375 0.3438
v 0.3438 -0.4375 0.6563
v 0.4063 -0.4375 0.6563
v 0.4063 -0.4375 0.3438
v 0.8438 -0.4375 0.4063
v 0.8438 -0.3125 0.4063
v 0.4063 -0.3125 0.4063
v 0.4063 -0.4375 0.4063
v 0.8438 -0.4375 0.5938
v 0.8438 -0.3125 0.5938
v 0.4063 -0.3125 0.5938
v 0.4063 -0.4375 0.5938
v 0.9063 1.1875 0.3438
v 0.9063 1.1875 0.6563
v 0.8438 1.1875 0.6563
v 0.8438 1.1875 0.3438
v 0.8438 1.0625 0.3438
v 0.8438 1.0625 0.6563
v 0.9063 1.0625 0.6563
v 0.9063 1.0625 0.3438
v 0.4063 1.1875 0.3438
v 0.4063 1.1875 0.6563
v 0.3438 1.1875 0.6563
v 0.3438 1.1875 0.3438
v 0.3438 1.0625 0.3438
v 0.3438 1.0625 0.6563
v 0.4063 1.0625 0.6563
v 0.4063 1.0625 0.3438
v 0.8438 1.0625 0.4063
v 0.4063 1.1875 0.4063
v 0.4063 1.0625 0.4063
v 0.8438 1.0625 0.5938
v 0.4063 1.1875 0.5938
v 0.4063 1.0625 0.5938
v 2.4063 3 0.4063
v 2.4063 3 0.5938
v 2.2188 3 0.5938
v 2.2188 3 0.4063
v 2.2188 2.1875 0.4063
v 2.2188 2.1875 0.5938
v 2.4063 2.1875 0.5938
v 2.4063 2.1875 0.4063
v 2.2188 1.0625 0.4063
v 2.2188 1.0625 0.5938
v 2.4063 1.0625 0.5938
v 2.4063 1.0625 0.4063
v 2.2188 0.0625 0.4063
v 2.2188 0.0625 0.5938
v 2.4063 0.0625 0.5938
v 2.4063 0.0625 0.4063
v 2.2188 -0.875 0.4063
v 2.2188 -0.875 0.5938
v 2.4063 -0.875 0.5938
v 2.4063 -0.875 0.4063
v 4 3 0.4063
v 4 3 0.5938
v 3.8125 3 0.5938
v 3.8125 3 0.4063
v 3.8125 2.1875 0.4063
v 3.8125 2.1875 0.5938
v 4 2.1875 0.5938
v 4 2.1875 0.4063
v 3.8125 1.1875 0.4063
v 3.8125 1.1875 0.5938
v 4 1.1875 0.5938
v 4 1.1875 0.4063
v 3.8125 0.0625 0.4063
v 3.8125 0.0625 0.5938
v 4 0.0625 0.5938
v 4 0.0625 0.4063
v 3.8125 -0.875 0.4063
v 3.8125 -0.875 0.5938
v 4 -0.875 0.5938
v 4 -0.875 0.4063
v 3.8125 2.8125 0.4375
v 3.8125 2.8125 0.5625
v 3.8125 2.9375 0.5625
v 3.8125 2.9375 0.4375
v 2.8125 2.9375 0.4375
v 2.8125 2.9375 0.5625
v 2.8125 2.8125 0.5625
v 2.8125 2.8125 0.4375
v 1.8125 2.9375 0.4375
v 1.8125 2.9375 0.5625
v 1.8125 2.8125 0.5625
v 1.8125 2.8125 0.4375
v 0.8125 2.9375 0.4375
v 0.8125 2.9375 0.5625
v 0.8125 2.8125 0.5625
v 0.8125 2.8125 0.4375
v 3.8125 -0.8125 0.4375
v 3.8125 -0.8125 0.5625
v 3.8125 -0.6875 0.5625
v 3.8125 -0.6875 0.4375
v 2.8125 -0.6875 0.4375
v 2.8125 -0.6875 0.5625
v 2.8125 -0.8125 0.5625
v 2.8125 -0.8125 0.4375
v 1.8125 -0.6875 0.4375
v 1.8125 -0.6875 0.5625
v 1.8125 -0.8125 0.5625
v 1.8125 -0.8125 0.4375
v 0.8125 -0.6875 0.4375
v 0.8125 -0.6875 0.5625
v 0.8125 -0.8125 0.5625
v 0.8125 -0.8125 0.4375
v 3.8125 -0.5625 0.5313
v 3.8125 -0.1875 0.5313
v 3.8125 -0.1875 0.4688
v 3.8125 -0.5625 0.4688
v 2.8125 -0.5625 0.4688
v 2.8125 -0.1875 0.4688
v 2.8125 -0.1875 0.5313
v 2.8125 -0.5625 0.5313
v 1.8125 -0.5625 0.4688
v 1.8125 -0.1875 0.4688
v 1.8125 -0.1875 0.5313
v 1.8125 -0.5625 0.5313
v 0.8125 -0.5625 0.4688
v 0.8125 -0.1875 0.4688
v 0.8125 -0.1875 0.5313
v 0.8125 -0.5625 0.5313
v 3.8125 -0.0625 0.5313
v 3.8125 0.3125 0.5313
v 3.8125 0.3125 0.4688
v 3.8125 -0.0625 0.4688
v 2.8125 -0.0625 0.4688
v 2.8125 0.3125 0.4688
v 2.8125 0.3125 0.5313
v 2.8125 -0.0625 0.5313
v 1.8125 -0.0625 0.4688
v 1.8125 0.3125 0.4688
v 1.8125 0.3125 0.5313
v 1.8125 -0.0625 0.5313
v 0.8125 -0.0625 0.4688
v 0.8125 0.3125 0.4688
v 0.8125 0.3125 0.5313
v 0.8125 -0.0625 0.5313
v 3.8125 0.4375 0.5313
v 3.8125 0.8125 0.5313
v 3.8125 0.8125 0.4688
v 3.8125 0.4375 0.4688
v 2.8125 0.4375 0.4688
v 2.8125 0.8125 0.4688
v 2.8125 0.8125 0.5313
v 2.8125 0.4375 0.5313
v 1.8125 0.4375 0.4688
v 1.8125 0.8125 0.4688
v 1.8125 0.8125 0.5313
v 1.8125 0.4375 0.5313
v 0.8125 0.4375 0.4688
v 0.8125 0.8125 0.4688
v 0.8125 0.8125 0.5313
v 0.8125 0.4375 0.5313
v 3.8125 0.9375 0.5313
v 3.8125 1.3125 0.5313
v 3.8125 1.3125 0.4688
v 3.8125 0.9375 0.4688
v 2.8125 0.9375 0.4688
v 2.8125 1.3125 0.4688
v 2.8125 1.3125 0.5313
v 2.8125 0.9375 0.5313
v 1.8125 0.9375 0.4688
v 1.8125 1.3125 0.4688
v 1.8125 1.3125 0.5313
v 1.8125 0.9375 0.5313
v 0.8125 0.9375 0.4688
v 0.8125 1.3125 0.4688
v 0.8125 1.3125 0.5313
v 0.8125 0.9375 0.5313
v 3.8125 1.4375 0.5313
v 3.8125 1.8125 0.5313
v 3.8125 1.8125 0.4688
v 3.8125 1.4375 0.4688
v 2.8125 1.4375 0.4688
v 2.8125 1.8125 0.4688
v 2.8125 1.8125 0.5313
v 2.8125 1.4375 0.5313
v 1.8125 1.4375 0.4688
v 1.8125 1.8125 0.4688
v 1.8125 1.8125 0.5313
v 1.8125 1.4375 0.5313
v 0.8125 1.4375 0.4688
v 0.8125 1.8125 0.4688
v 0.8125 1.8125 0.5313
v 0.8125 1.4375 0.5313
v 3.9065 2.7572 0.4375
v 3.9065 2.7572 0.5625
v 3.8136 2.8408 0.5625
v 3.8136 2.8408 0.4375
v 3.1445 2.0977 0.4375
v 3.1445 2.0977 0.5625
v 3.2374 2.014 0.5625
v 3.2374 2.014 0.4375
v 2.4753 1.3545 0.4375
v 2.4753 1.3545 0.5625
v 2.5682 1.2709 0.5625
v 2.5682 1.2709 0.4375
v 1.8062 0.6114 0.4375
v 1.8062 0.6114 0.5625
v 1.8991 0.5277 0.5625
v 1.8991 0.5277 0.4375
v 1.1371 -0.1318 0.4375
v 1.1371 -0.1318 0.5625
v 1.23 -0.2154 0.5625
v 1.23 -0.2154 0.4375
v 0.7189 -0.5962 0.4375
v 0.7189 -0.5962 0.5625
v 0.8118 -0.6799 0.5625
v 0.8118 -0.6799 0.4375
v 3.823 -0.7266 0.4375
v 3.823 -0.7266 0.5625
v 3.9167 -0.6438 0.5625
v 3.9167 -0.6438 0.4375
v 3.254 0.1052 0.4375
v 3.254 0.1052 0.5625
v 3.1604 0.0224 0.5625
v 3.1604 0.0224 0.4375
v 2.5914 0.8541 0.4375
v 2.5914 0.8541 0.5625
v 2.4978 0.7713 0.5625
v 2.4978 0.7713 0.4375
v 1.9288 1.6031 0.4375
v 1.9288 1.6031 0.5625
v 1.8352 1.5203 0.5625
v 1.8352 1.5203 0.4375
v 1.2662 2.3521 0.4375
v 1.2662 2.3521 0.5625
v 1.1726 2.2692 0.5625
v 1.1726 2.2692 0.4375
v 0.852 2.8202 0.4375
v 0.7584 2.7373 0.5625
v 0.7584 2.7373 0.4375
vt 0.8125 0.25
vt 0.8125 0.4375
vt 1 0.4375
vt 1 0.25
vt 0.8125 0.4375
vt 0 0.4375
vt 0 0.625
vt 0.8125 0.625
vt 0.8125 0.4375
vt 0 0.4375
vt 0 0.625
vt 0.8125 0.625
vt 0.8125 0.625
vt 0 0.625
vt 0 0.4375
vt 0.8125 0.4375
vt 0.8125 0.625
vt 0 0.625
vt 0 0.4375
vt 0.8125 0.4375
vt 0.8125 0.0625
vt 0 0.0625
vt 0 0.25
vt 0.8125 0.25
vt 0.8125 0.25
vt 0 0.25
vt 0 0.0625
vt 0.8125 0.0625
vt 0.8125 0.0625
vt 0 0.0625
vt 0 0.25
vt 0.8125 0.25
vt 0.8125 0.0625
vt 0 0.0625
vt 0 0.25
vt 0.8125 0.25
vt 0.8125 0.25
vt 0 0.25
vt 0 0.0625
vt 0.8125 0.0625
vt 0.8125 0.25
vt 0 0.25
vt 0 0.0625
vt 0.8125 0.0625
vt 0.8125 0.4375
vt 0.8125 0.625
vt 1 0.625
vt 1 0.4375
vt 0.8125 0.25
vt 0 0.25
vt 0 0.4375
vt 0.8125 0.4375
vt 0.8125 0.25
vt 0 0.25
vt 0 0.4375
vt 0.8125 0.4375
vt 0.8125 0.4375
vt 0 0.4375
vt 0 0.25
vt 0.8125 0.25
vt 0.8125 0.4375
vt 0 0.4375
vt 0 0.25
vt 0.8125 0.25
vt 0.4375 0
vt 0.4375 0.0625
vt 0.75 0.0625
vt 0.75 0
vt 0.4375 0
vt 0.4375 0.0625
vt 0.75 0.0625
vt 0.75 0
vt 0.75 0.0625
vt 0.75 0
vt 0.4375 0
vt 0.4375 0.0625
vt 0.5 0.0625
vt 0.5 0
vt 0.4375 0
vt 0.4375 0.0625
vt 0.75 0.0625
vt 0.75 0
vt 0.6875 0
vt 0.6875 0.0625
vt 0.75 0.0625
vt 0.75 0
vt 0.4375 0
vt 0.4375 0.0625
vt 0.75 0.0625
vt 0.75 0
vt 0.4375 0
vt 0.4375 0.0625
vt 0.75 0.0625
vt 0.75 0
vt 0.4375 0
vt 0.4375 0.0625
vt 0.75 0.0625
vt 0.75 0
vt 0.4375 0
vt 0.4375 0.0625
vt 0.75 0.0625
vt 0.75 0
vt 0.6875 0
vt 0.6875 0.0625
vt 0.5 0.0625
vt 0.5 0
vt 0.4375 0
vt 0.4375 0.0625
vt 0.4375 0
vt 0 0
vt 0 0.0625
vt 0.4375 0.0625
vt 0.4375 0
vt 0 0
vt 0 0.0625
vt 0.4375 0.0625
vt 0.4375 0
vt 0 0
vt 0 0.0625
vt 0.4375 0.0625
vt 0.4375 0
vt 0 0
vt 0 0.0625
vt 0.4375 0.0625
vt 0 0.0625
vt 0.4375 0.0625
vt 0.4375 0
vt 0 0
vt 0 0.0625
vt 0.4375 0.0625
vt 0.4375 0
vt 0 0
vt 0 0.0625
vt 0.4375 0.0625
vt 0.4375 0
vt 0 0
vt 0 0.0625
vt 0.4375 0.0625
vt 0.4375 0
vt 0 0
vt 0.4375 0
vt 0.4375 0.0625
vt 0.75 0.0625
vt 0.75 0
vt 0.4375 0
vt 0.4375 0.0625
vt 0.75 0.0625
vt 0.75 0
vt 0.75 0.0625
vt 0.75 0
vt 0.4375 0
vt 0.4375 0.0625
vt 0.5 0.0625
vt 0.5 0
vt 0.4375 0
vt 0.4375 0.0625
vt 0.75 0.0625
vt 0.75 0
vt 0.6875 0
vt 0.6875 0.0625
vt 0.75 0.0625
vt 0.75 0
vt 0.4375 0
vt 0.4375 0.0625
vt 0.75 0.0625
vt 0.75 0
vt 0.4375 0
vt 0.4375 0.0625
vt 0.75 0.0625
vt 0.75 0
vt 0.4375 0
vt 0.4375 0.0625
vt 0.75 0.0625
vt 0.75 0
vt 0.4375 0
vt 0.4375 0.0625
vt 0.75 0.0625
vt 0.75 0
vt 0.6875 0
vt 0.6875 0.0625
vt 0.5 0.0625
vt 0.5 0
vt 0.4375 0
vt 0.4375 0.0625
vt 0.4375 0
vt 0 0
vt 0 0.0625
vt 0.4375 0.0625
vt 0.4375 0
vt 0 0
vt 0 0.0625
vt 0.4375 0.0625
vt 0.4375 0
vt 0 0
vt 0 0.0625
vt 0.4375 0.0625
vt 0.4375 0
vt 0 0
vt 0 0.0625
vt 0.4375 0.0625
vt 0 0.0625
vt 0.4375 0.0625
vt 0.4375 0
vt 0 0
vt 0 0.0625
vt 0.4375 0.0625
vt 0.4375 0
vt 0 0
vt 0 0.0625
vt 0.4375 0.0625
vt 0.4375 0
vt 0 0
vt 0 0.0625
vt 0.4375 0.0625
vt 0.4375 0
vt 0 0
vt 0.4375 0
vt 0.4375 0.0625
vt 0.75 0.0625
vt 0.75 0
vt 0.4375 0
vt 0.4375 0.0625
vt 0.75 0.0625
vt 0.75 0
vt 0.75 0.0625
vt 0.75 0
vt 0.4375 0
vt 0.4375 0.0625
vt 0.5 0.0625
vt 0.5 0
vt 0.4375 0
vt 0.4375 0.0625
vt 0.75 0.0625
vt 0.75 0
vt 0.6875 0
vt 0.6875 0.0625
vt 0.75 0.0625
vt 0.75 0
vt 0.4375 0
vt 0.4375 0.0625
vt 0.75 0.0625
vt 0.75 0
vt 0.4375 0
vt 0.4375 0.0625
vt 0.75 0.0625
vt 0.75 0
vt 0.4375 0
vt 0.4375 0.0625
vt 0.75 0.0625
vt 0.75 0
vt 0.4375 0
vt 0.4375 0.0625
vt 0.75 0.0625
vt 0.75 0
vt 0.6875 0
vt 0.6875 0.0625
vt 0.5 0.0625
vt 0.5 0
vt 0.4375 0
vt 0.4375 0.0625
vt 0.4375 0
vt 0 0
vt 0 0.0625
vt 0.4375 0.0625
vt 0.4375 0
vt 0 0
vt 0 0.0625
vt 0.4375 0.0625
vt 0.4375 0
vt 0 0
vt 0 0.0625
vt 0.4375 0.0625
vt 0.4375 0
vt 0 0
vt 0 0.0625
vt 0.4375 0.0625
vt 0 0.0625
vt 0.4375 0.0625
vt 0.4375 0
vt 0 0
vt 0 0.0625
vt 0.4375 0.0625
vt 0.4375 0
vt 0 0
vt 0 0.0625
vt 0.4375 0.0625
vt 0.4375 0
vt 0 0
vt 0 0.0625
vt 0.4375 0.0625
vt 0.4375 0
vt 0 0
vt 0.8125 0.25
vt 0.8125 0.4375
vt 1 0.4375
vt 1 0.25
vt 0.8125 0.4375
vt 0 0.4375
vt 0 0.625
vt 0.8125 0.625
vt 0.8125 0.4375
vt 0 0.4375
vt 0 0.625
vt 0.8125 0.625
vt 0.8125 0.625
vt 0 0.625
vt 0 0.4375
vt 0.8125 0.4375
vt 0.8125 0.625
vt 0 0.625
vt 0 0.4375
vt 0.8125 0.4375
vt 0.8125 0.0625
vt 0 0.0625
vt 0 0.25
vt 0.8125 0.25
vt 0.8125 0.0625
vt 0 0.0625
vt 0 0.25
vt 0.8125 0.25
vt 0.8125 0.25
vt 0 0.25
vt 0 0.0625
vt 0.8125 0.0625
vt 0.8125 0.25
vt 0 0.25
vt 0 0.0625
vt 0.8125 0.0625
vt 0.8125 0.0625
vt 0 0.0625
vt 0 0.25
vt 0.8125 0.25
vt 0.8125 0.0625
vt 0 0.0625
vt 0 0.25
vt 0.8125 0.25
vt 0.8125 0.25
vt 0 0.25
vt 0 0.0625
vt 0.8125 0.0625
vt 0.8125 0.25
vt 0 0.25
vt 0 0.0625
vt 0.8125 0.0625
vt 0.8125 0.4375
vt 0.8125 0.625
vt 1 0.625
vt 1 0.4375
vt 0.8125 0.25
vt 0 0.25
vt 0 0.4375
vt 0.8125 0.4375
vt 0.8125 0.25
vt 0 0.25
vt 0 0.4375
vt 0.8125 0.4375
vt 0.8125 0.4375
vt 0 0.4375
vt 0 0.25
vt 0.8125 0.25
vt 0.8125 0.4375
vt 0 0.4375
vt 0 0.25
vt 0.8125 0.25
vt 0.8125 0.25
vt 0.8125 0.4375
vt 1 0.4375
vt 1 0.25
vt 0.8125 0.4375
vt 0 0.4375
vt 0 0.625
vt 0.8125 0.625
vt 0.8125 0.4375
vt 0 0.4375
vt 0 0.625
vt 0.8125 0.625
vt 0.8125 0.625
vt 0 0.625
vt 0 0.4375
vt 0.8125 0.4375
vt 0.8125 0.625
vt 0 0.625
vt 0 0.4375
vt 0.8125 0.4375
vt 0.8125 0.0625
vt 0 0.0625
vt 0 0.25
vt 0.8125 0.25
vt 0.8125 0.0625
vt 0 0.0625
vt 0 0.25
vt 0.8125 0.25
vt 0.8125 0.25
vt 0 0.25
vt 0 0.0625
vt 0.8125 0.0625
vt 0.8125 0.25
vt 0 0.25
vt 0 0.0625
vt 0.8125 0.0625
vt 0.8125 0.0625
vt 0 0.0625
vt 0 0.25
vt 0.8125 0.25
vt 0.8125 0.0625
vt 0 0.0625
vt 0 0.25
vt 0.8125 0.25
vt 0.8125 0.25
vt 0 0.25
vt 0 0.0625
vt 0.8125 0.0625
vt 0.8125 0.25
vt 0 0.25
vt 0 0.0625
vt 0.8125 0.0625
vt 0.8125 0.4375
vt 0.8125 0.625
vt 1 0.625
vt 1 0.4375
vt 0.8125 0.25
vt 0 0.25
vt 0 0.4375
vt 0.8125 0.4375
vt 0.8125 0.25
vt 0 0.25
vt 0 0.4375
vt 0.8125 0.4375
vt 0.8125 0.4375
vt 0 0.4375
vt 0 0.25
vt 0.8125 0.25
vt 0.8125 0.4375
vt 0 0.4375
vt 0 0.25
vt 0.8125 0.25
vt 1 0.875
vt 0 0.875
vt 0 1
vt 1 1
vt 1 0.875
vt 0 0.875
vt 0 1
vt 1 1
vt 1 1
vt 0 1
vt 0 0.875
vt 1 0.875
vt 1 1
vt 0 1
vt 0 0.875
vt 1 0.875
vt 1 0.875
vt 0 0.875
vt 0 1
vt 1 1
vt 1 0.875
vt 0 0.875
vt 0 1
vt 1 1
vt 1 1
vt 0 1
vt 0 0.875
vt 1 0.875
vt 1 1
vt 0 1
vt 0 0.875
vt 1 0.875
vt 1 0.875
vt 0 0.875
vt 0 1
vt 1 1
vt 1 0.875
vt 0 0.875
vt 0 1
vt 1 1
vt 1 1
vt 0 1
vt 0 0.875
vt 1 0.875
vt 1 1
vt 0 1
vt 0 0.875
vt 1 0.875
vt 1 0.875
vt 0 0.875
vt 0 1
vt 1 1
vt 1 0.875
vt 0 0.875
vt 0 1
vt 1 1
vt 1 1
vt 0 1
vt 0 0.875
vt 1 0.875
vt 1 1
vt 0 1
vt 0 0.875
vt 1 0.875
vt 1 0.875
vt 0 0.875
vt 0 1
vt 1 1
vt 1 0.875
vt 0 0.875
vt 0 1
vt 1 1
vt 1 1
vt 0 1
vt 0 0.875
vt 1 0.875
vt 1 1
vt 0 1
vt 0 0.875
vt 1 0.875
vt 1 0.875
vt 0 0.875
vt 0 1
vt 1 1
vt 1 0.875
vt 0 0.875
vt 0 1
vt 1 1
vt 1 1
vt 0 1
vt 0 0.875
vt 1 0.875
vt 1 1
vt 0 1
vt 0 0.875
vt 1 0.875
vt 1 1
vt 0 1
vt 0 0.625
vt 1 0.625
vt 1 1
vt 0 1
vt 0 0.625
vt 1 0.625
vt 1 1
vt 0 1
vt 0 0.9375
vt 1 0.9375
vt 1 0.625
vt 0 0.625
vt 0 0.6875
vt 1 0.6875
vt 1 1
vt 0 1
vt 0 0.625
vt 1 0.625
vt 1 1
vt 0 1
vt 0 0.625
vt 1 0.625
vt 1 1
vt 0 1
vt 0 0.9375
vt 1 0.9375
vt 1 0.625
vt 0 0.625
vt 0 0.6875
vt 1 0.6875
vt 1 1
vt 0 1
vt 0 0.625
vt 1 0.625
vt 1 1
vt 0 1
vt 0 0.625
vt 1 0.625
vt 1 1
vt 0 1
vt 0 0.9375
vt 1 0.9375
vt 1 0.625
vt 0 0.625
vt 0 0.6875
vt 1 0.6875
vt 1 1
vt 0 1
vt 0 0.625
vt 1 0.625
vt 1 1
vt 0 1
vt 0 0.625
vt 1 0.625
vt 1 1
vt 0 1
vt 0 0.9375
vt 1 0.9375
vt 1 0.625
vt 0 0.625
vt 0 0.6875
vt 1 0.6875
vt 1 1
vt 0 1
vt 0 0.625
vt 1 0.625
vt 1 1
vt 0 1
vt 0 0.625
vt 1 0.625
vt 1 1
vt 0 1
vt 0 0.9375
vt 1 0.9375
vt 1 0.625
vt 0 0.625
vt 0 0.6875
vt 1 0.6875
vt 1 1
vt 0 1
vt 0 0.625
vt 1 0.625
vt 1 1
vt 0 1
vt 0 0.625
vt 1 0.625
vt 1 1
vt 0 1
vt 0 0.9375
vt 1 0.9375
vt 1 0.625
vt 0 0.625
vt 0 0.6875
vt 1 0.6875
vt 1 1
vt 0 1
vt 0 0.625
vt 1 0.625
vt 1 1
vt 0 1
vt 0 0.625
vt 1 0.625
vt 1 1
vt 0 1
vt 0 0.9375
vt 1 0.9375
vt 1 0.625
vt 0 0.625
vt 0 0.6875
vt 1 0.6875
vt 1 1
vt 0 1
vt 0 0.625
vt 1 0.625
vt 1 1
vt 0 1
vt 0 0.625
vt 1 0.625
vt 1 1
vt 0 1
vt 0 0.9375
vt 1 0.9375
vt 1 0.625
vt 0 0.625
vt 0 0.6875
vt 1 0.6875
vt 1 1
vt 0 1
vt 0 0.625
vt 1 0.625
vt 1 1
vt 0 1
vt 0 0.625
vt 1 0.625
vt 1 1
vt 0 1
vt 0 0.9375
vt 1 0.9375
vt 1 0.625
vt 0 0.625
vt 0 0.6875
vt 1 0.6875
vt 1 1
vt 0 1
vt 0 0.625
vt 1 0.625
vt 1 1
vt 0 1
vt 0 0.625
vt 1 0.625
vt 1 1
vt 0 1
vt 0 0.9375
vt 1 0.9375
vt 1 0.625
vt 0 0.625
vt 0 0.6875
vt 1 0.6875
vt 1 1
vt 0 1
vt 0 0.625
vt 1 0.625
vt 1 1
vt 0 1
vt 0 0.625
vt 1 0.625
vt 1 1
vt 0 1
vt 0 0.9375
vt 1 0.9375
vt 1 0.625
vt 0 0.625
vt 0 0.6875
vt 1 0.6875
vt 1 1
vt 0 1
vt 0 0.625
vt 1 0.625
vt 1 1
vt 0 1
vt 0 0.625
vt 1 0.625
vt 1 1
vt 0 1
vt 0 0.9375
vt 1 0.9375
vt 1 0.625
vt 0 0.625
vt 0 0.6875
vt 1 0.6875
vt 1 1
vt 0 1
vt 0 0.625
vt 1 0.625
vt 1 1
vt 0 1
vt 0 0.625
vt 1 0.625
vt 1 1
vt 0 1
vt 0 0.9375
vt 1 0.9375
vt 1 0.625
vt 0 0.625
vt 0 0.6875
vt 1 0.6875
vt 1 1
vt 0 1
vt 0 0.625
vt 1 0.625
vt 1 1
vt 0 1
vt 0 0.625
vt 1 0.625
vt 1 1
vt 0 1
vt 0 0.9375
vt 1 0.9375
vt 1 0.625
vt 0 0.625
vt 0 0.6875
vt 1 0.6875
vt 1 1
vt 0 1
vt 0 0.625
vt 1 0.625
vt 1 1
vt 0 1
vt 0 0.625
vt 1 0.625
vt 1 1
vt 0 1
vt 0 0.9375
vt 1 0.9375
vt 1 0.625
vt 0 0.625
vt 0 0.6875
vt 1 0.6875
vt 0 0.4375
vt 0.8125 0.4375
vt 0.8125 0.3125
vt 0 0.3125
vt 0 0.3125
vt 0.8125 0.3125
vt 0.8125 0.4375
vt 0 0.4375
vt 0.8125 0.4375
vt 0 0.4375
vt 0 0.3125
vt 0.8125 0.3125
vt 0.8125 0.4375
vt 0 0.4375
vt 0 0.3125
vt 0.8125 0.3125
vt 0 0.3125
vt 0.8125 0.3125
vt 0.8125 0.4375
vt 0 0.4375
vt 0 0.3125
vt 0.8125 0.3125
vt 0.8125 0.4375
vt 0 0.4375
vt 0 0.4375
vt 0.8125 0.4375
vt 0.8125 0.3125
vt 0 0.3125
vt 0 0.4375
vt 0.8125 0.4375
vt 0.8125 0.3125
vt 0 0.3125
vt 0 0.4375
vt 0.8125 0.4375
vt 0.8125 0.3125
vt 0 0.3125
vt 0 0.3125
vt 0.8125 0.3125
vt 0.8125 0.4375
vt 0 0.4375
vt 0.8125 0.4375
vt 0 0.4375
vt 0 0.3125
vt 0.8125 0.3125
vt 0.8125 0.4375
vt 0 0.4375
vt 0 0.3125
vt 0.8125 0.3125
vt 0 0.3125
vt 0.8125 0.3125
vt 0.8125 0.4375
vt 0 0.4375
vt 0 0.3125
vt 0.8125 0.3125
vt 0.8125 0.4375
vt 0 0.4375
vt 0 0.4375
vt 0.8125 0.4375
vt 0.8125 0.3125
vt 0 0.3125
vt 0 0.4375
vt 0.8125 0.4375
vt 0.8125 0.3125
vt 0 0.3125
vt 0 0.3125
vt 0.625 0.3125
vt 0.625 0.4375
vt 0 0.4375
vt 0 0.3125
vt 0.625 0.3125
vt 0.625 0.4375
vt 0 0.4375
vt 0.625 0.4375
vt 0 0.4375
vt 0 0.3125
vt 0.625 0.3125
vt 0.625 0.4375
vt 0 0.4375
vt 0 0.3125
vt 0.625 0.3125
vt 0 0.4375
vt 0.8125 0.4375
vt 0.8125 0.3125
vt 0 0.3125
vt 0 0.3125
vt 0.8125 0.3125
vt 0.8125 0.4375
vt 0 0.4375
vt 0.8125 0.4375
vt 0 0.4375
vt 0 0.3125
vt 0.8125 0.3125
vt 0.8125 0.4375
vt 0 0.4375
vt 0 0.3125
vt 0.8125 0.3125
vt 0 0.3125
vt 0.8125 0.3125
vt 0.8125 0.4375
vt 0 0.4375
vt 0 0.3125
vt 0.8125 0.3125
vt 0.8125 0.4375
vt 0 0.4375
vt 0 0.4375
vt 0.8125 0.4375
vt 0.8125 0.3125
vt 0 0.3125
vt 0 0.4375
vt 0.8125 0.4375
vt 0.8125 0.3125
vt 0 0.3125
vt 0 0.4375
vt 0.8125 0.4375
vt 0.8125 0.3125
vt 0 0.3125
vt 0 0.3125
vt 0.8125 0.3125
vt 0.8125 0.4375
vt 0 0.4375
vt 0.8125 0.4375
vt 0 0.4375
vt 0 0.3125
vt 0.8125 0.3125
vt 0.8125 0.4375
vt 0 0.4375
vt 0 0.3125
vt 0.8125 0.3125
vt 0 0.3125
vt 0.8125 0.3125
vt 0.8125 0.4375
vt 0 0.4375
vt 0 0.3125
vt 0.8125 0.3125
vt 0.8125 0.4375
vt 0 0.4375
vt 0 0.4375
vt 0.8125 0.4375
vt 0.8125 0.3125
vt 0 0.3125
vt 0 0.4375
vt 0.8125 0.4375
vt 0.8125 0.3125
vt 0 0.3125
vt 0 0.3125
vt 0.625 0.3125
vt 0.625 0.4375
vt 0 0.4375
vt 0 0.3125
vt 0.625 0.3125
vt 0.625 0.4375
vt 0 0.4375
vt 0.625 0.4375
vt 0 0.4375
vt 0 0.3125
vt 0.625 0.3125
vt 0.625 0.4375
vt 0 0.4375
vt 0 0.3125
vt 0.625 0.3125
vt 0.8125 0.25
vt 0 0.25
vt 0 0.0625
vt 0.8125 0.0625
vt 0.8125 0.0625
vt 0 0.0625
vt 0 0.25
vt 0.8125 0.25
vn 0 1 0
vn 1 0 0
vn -1 0 0
vn 0 0 1
vn 0 0 -1
vn 1 0 0
vn 0 0 1
vn 1 0 0
vn -1 0 0
vn 0 0 1
vn 0 0 -1
vn 0 -1 0
vn 1 0 0
vn -1 0 0
vn 0 0 1
vn 0 0 -1
vn 0 1 0
vn 0 -1 0
vn 1 0 0
vn 0 0 1
vn 0 0 -1
vn 0 1 0
vn 0 -1 0
vn 1 0 0
vn -1 0 0
vn 0 0 1
vn 0 0 -1
vn 0 -1 0
vn 0 1 0
vn 0 0 1
vn 0 0 -1
vn 0 -1 0
vn 0 1 0
vn 0 0 1
vn 0 0 -1
vn 0 1 0
vn 0 -1 0
vn 1 0 0
vn 0 0 1
vn 0 0 -1
vn 0 1 0
vn 0 -1 0
vn 1 0 0
vn -1 0 0
vn 0 0 1
vn 0 0 -1
vn 0 -1 0
vn 0 1 0
vn 0 0 1
vn 0 0 -1
vn 0 -1 0
vn 0 1 0
vn 0 0 1
vn 0 0 -1
vn 0 1 0
vn 0 -1 0
vn 1 0 0
vn 0 0 1
vn 0 0 -1
vn 0 1 0
vn 0 -1 0
vn 1 0 0
vn -1 0 0
vn 0 0 1
vn 0 0 -1
vn 0 -1 0
vn 0 1 0
vn 0 0 1
vn 0 0 -1
vn 0 -1 0
vn 0 1 0
vn 0 0 1
vn 0 0 -1
vn 0 1 0
vn 1 0 0
vn -1 0 0
vn 0 0 1
vn 0 0 -1
vn 1 0 0
vn -1 0 0
vn 0 0 1
vn 0 0 -1
vn 1 0 0
vn -1 0 0
vn 0 0 1
vn 0 0 -1
vn 0 -1 0
vn 1 0 0
vn -1 0 0
vn 0 0 1
vn 0 0 -1
vn 0 1 0
vn 1 0 0
vn -1 0 0
vn 0 0 1
vn 0 0 -1
vn 1 0 0
vn -1 0 0
vn 0 0 1
vn 0 0 -1
vn 1 0 0
vn -1 0 0
vn 0 0 1
vn 0 0 -1
vn 0 -1 0
vn 1 0 0
vn -1 0 0
vn 0 0 1
vn 0 0 -1
vn 0 -1 0
vn 0 1 0
vn 0 0 1
vn 0 0 -1
vn 0 -1 0
vn 0 1 0
vn 0 0 1
vn 0 0 -1
vn 0 -1 0
vn 0 1 0
vn 0 0 1
vn 0 0 -1
vn 0 -1 0
vn 0 1 0
vn 0 0 1
vn 0 0 -1
vn 0 -1 0
vn 0 1 0
vn 0 0 1
vn 0 0 -1
vn 0 -1 0
vn 0 1 0
vn 0 0 1
vn 0 0 -1
vn 0 0 1
vn 0 0 -1
vn 0 1 0
vn 0 -1 0
vn 0 0 1
vn 0 0 -1
vn 0 1 0
vn 0 -1 0
vn 0 0 1
vn 0 0 -1
vn 0 1 0
vn 0 -1 0
vn 0 0 1
vn 0 0 -1
vn 0 1 0
vn 0 -1 0
vn 0 0 1
vn 0 0 -1
vn 0 1 0
vn 0 -1 0
vn 0 0 1
vn 0 0 -1
vn 0 1 0
vn 0 -1 0
vn 0 0 1
vn 0 0 -1
vn 0 1 0
vn 0 -1 0
vn 0 0 1
vn 0 0 -1
vn 0 1 0
vn 0 -1 0
vn 0 0 1
vn 0 0 -1
vn 0 1 0
vn 0 -1 0
vn 0 0 1
vn 0 0 -1
vn 0 1 0
vn 0 -1 0
vn 0 0 1
vn 0 0 -1
vn 0 1 0
vn 0 -1 0
vn 0 0 1
vn 0 0 -1
vn 0 1 0
vn 0 -1 0
vn 0 0 1
vn 0 0 -1
vn 0 1 0
vn 0 -1 0
vn 0 0 1
vn 0 0 -1
vn 0 1 0
vn 0 -1 0
vn 0 0 1
vn 0 0 -1
vn 0 1 0
vn 0 -1 0
vn 0.74 -0.67 0
vn -0.74 0.67 0
vn 0 0 1
vn 0 0 -1
vn 0.74 -0.67 0
vn -0.74 0.67 0
vn 0 0 1
vn 0 0 -1
vn 0.74 -0.67 0
vn -0.74 0.67 0
vn 0 0 1
vn 0 0 -1
vn 0.74 -0.67 0
vn -0.74 0.67 0
vn 0 0 1
vn 0 0 -1
vn 0.74 -0.67 0
vn -0.74 0.67 0
vn 0 0 1
vn 0 0 -1
vn -0.75 -0.66 0
vn 0.75 0.66 0
vn 0 0 1
vn 0 0 -1
vn -0.75 -0.66 0
vn 0.75 0.66 0
vn 0 0 1
vn 0 0 -1
vn -0.75 -0.66 0
vn 0.75 0.66 0
vn 0 0 1
vn 0 0 -1
vn -0.75 -0.66 0
vn 0.75 0.66 0
vn 0 0 1
vn 0 0 -1
vn -0.75 -0.66 0
vn 0.75 0.66 0
vn 0 0 1
vn 0 0 -1
vn 0 0 -1
vn -1 0 0
usemtl wooden_gate
f 44/145/37 43/146/37 42/147/37
f 44/145/37 42/147/37 45/148/37
f 49/149/38 42/150/38 43/151/38
f 49/149/38 43/151/38 48/152/38
f 47/153/39 44/154/39 45/155/39
f 47/153/39 45/155/39 46/156/39
f 48/157/40 43/158/40 44/159/40
f 48/157/40 44/159/40 47/160/40
f 46/161/41 45/162/41 42/163/41
f 46/161/41 42/163/41 49/164/41
f 52/165/42 49/166/42 48/167/42
f 52/165/42 48/167/42 51/168/42
f 51/169/43 48/170/43 47/171/43
f 51/169/43 47/171/43 50/172/43
f 57/173/44 52/174/44 51/175/44
f 57/173/44 51/175/44 56/176/44
f 55/177/45 50/178/45 53/179/45
f 55/177/45 53/179/45 54/180/45
f 56/181/46 51/182/46 50/183/46
f 56/181/46 50/183/46 55/184/46
f 54/185/47 53/186/47 52/187/47
f 54/185/47 52/187/47 57/188/47
f 60/189/48 59/190/48 58/191/48
f 60/189/48 58/191/48 61/192/48
f 61/193/49 57/194/49 56/195/49
f 61/193/49 56/195/49 60/196/49
f 59/197/50 55/198/50 54/199/50
f 59/197/50 54/199/50 58/200/50
f 60/201/51 56/202/51 55/203/51
f 60/201/51 55/203/51 59/204/51
f 58/205/52 54/206/52 57/207/52
f 58/205/52 57/207/52 61/208/52
f 64/209/53 63/210/53 62/211/53
f 64/209/53 62/211/53 65/212/53
f 68/213/54 67/214/54 66/215/54
f 68/213/54 66/215/54 69/216/54
f 69/217/55 62/218/55 63/219/55
f 69/217/55 63/219/55 68/220/55
f 68/221/56 63/222/56 64/223/56
f 68/221/56 64/223/56 67/224/56
f 66/225/57 65/226/57 62/227/57
f 66/225/57 62/227/57 69/228/57
f 72/229/58 71/230/58 70/231/58
f 72/229/58 70/231/58 73/232/58
f 76/233/59 75/234/59 74/235/59
f 76/233/59 74/235/59 77/236/59
f 77/237/60 70/238/60 71/239/60
f 77/237/60 71/239/60 76/240/60
f 75/241/61 72/242/61 73/243/61
f 75/241/61 73/243/61 74/244/61
f 76/245/62 71/246/62 72/247/62
f 76/245/62 72/247/62 75/248/62
f 74/249/63 73/250/63 70/251/63
f 74/249/63 70/251/63 77/252/63
f 77/253/64 66/254/64 78/255/64
f 77/253/64 78/255/64 81/256/64
f 80/257/65 79/258/65 65/259/65
f 80/257/65 65/259/65 70/260/65
f 81/261/66 78/262/66 79/263/66
f 81/261/66 79/263/66 80/264/66
f 70/265/67 65/266/67 66/267/67
f 70/265/67 66/267/67 77/268/67
f 85/269/68 82/270/68 67/271/68
f 85/269/68 67/271/68 76/272/68
f 71/273/69 64/274/69 83/275/69
f 71/273/69 83/275/69 84/276/69
f 76/277/70 67/278/70 64/279/70
f 76/277/70 64/279/70 71/280/70
f 84/281/71 83/282/71 82/283/71
f 84/281/71 82/283/71 85/284/71
f 88/285/72 87/286/72 86/287/72
f 88/285/72 86/287/72 89/288/72
f 92/289/73 91/290/73 90/291/73
f 92/289/73 90/291/73 93/292/73
f 93/293/74 86/294/74 87/295/74
f 93/293/74 87/295/74 92/296/74
f 92/297/75 87/298/75 88/299/75
f 92/297/75 88/299/75 91/300/75
f 90/301/76 89/302/76 86/303/76
f 90/301/76 86/303/76 93/304/76
f 96/305/77 95/306/77 94/307/77
f 96/305/77 94/307/77 97/308/77
f 100/309/78 99/310/78 98/311/78
f 100/309/78 98/311/78 101/312/78
f 101/313/79 94/314/79 95/315/79
f 101/313/79 95/315/79 100/316/79
f 99/317/80 96/318/80 97/319/80
f 99/317/80 97/319/80 98/320/80
f 100/321/81 95/322/81 96/323/81
f 100/321/81 96/323/81 99/324/81
f 98/325/82 97/326/82 94/327/82
f 98/325/82 94/327/82 101/328/82
f 101/329/83 90/330/83 102/331/83
f 101/329/83 102/331/83 105/332/83
f 104/333/84 103/334/84 89/335/84
f 104/333/84 89/335/84 94/336/84
f 105/337/85 102/338/85 103/339/85
f 105/337/85 103/339/85 104/340/85
f 94/341/86 89/342/86 90/343/86
f 94/341/86 90/343/86 101/344/86
f 109/345/87 106/346/87 91/347/87
f 109/345/87 91/347/87 100/348/87
f 95/349/88 88/350/88 107/351/88
f 95/349/88 107/351/88 108/352/88
f 100/353/89 91/354/89 88/355/89
f 100/353/89 88/355/89 95/356/89
f 108/357/90 107/358/90 106/359/90
f 108/357/90 106/359/90 109/360/90
f 112/361/91 111/362/91 110/363/91
f 112/361/91 110/363/91 113/364/91
f 116/365/92 115/366/92 114/367/92
f 116/365/92 114/367/92 117/368/92
f 117/369/93 110/370/93 111/371/93
f 117/369/93 111/371/93 116/372/93
f 116/373/94 111/374/94 112/375/94
f 116/373/94 112/375/94 115/376/94
f 114/377/95 113/378/95 110/379/95
f 114/377/95 110/379/95 117/380/95
f 120/381/96 119/382/96 118/383/96
f 120/381/96 118/383/96 121/384/96
f 124/385/97 123/386/97 122/387/97
f 124/385/97 122/387/97 125/388/97
f 125/389/98 118/390/98 119/391/98
f 125/389/98 119/391/98 124/392/98
f 123/393/99 120/394/99 121/395/99
f 123/393/99 121/395/99 122/396/99
f 124/397/100 119/398/100 120/399/100
f 124/397/100 120/399/100 123/400/100
f 122/401/101 121/402/101 118/403/101
f 122/401/101 118/403/101 125/404/101
f 125/405/102 114/406/102 126/407/102
f 125/405/102 126/407/102 128/408/102
f 127/409/103 52/410/103 113/411/103
f 127/409/103 113/411/103 118/412/103
f 128/413/104 126/414/104 52/415/104
f 128/413/104 52/415/104 127/416/104
f 118/417/105 113/418/105 114/419/105
f 118/417/105 114/419/105 125/420/105
f 131/421/106 129/422/106 115/423/106
f 131/421/106 115/423/106 124/424/106
f 119/425/107 112/426/107 51/427/107
f 119/425/107 51/427/107 130/428/107
f 124/429/108 115/430/108 112/431/108
f 124/429/108 112/431/108 119/432/108
f 130/433/109 51/434/109 129/435/109
f 130/433/109 129/435/109 131/436/109
f 134/437/110 133/438/110 132/439/110
f 134/437/110 132/439/110 135/440/110
f 139/441/111 132/442/111 133/443/111
f 139/441/111 133/443/111 138/444/111
f 137/445/112 134/446/112 135/447/112
f 137/445/112 135/447/112 136/448/112
f 138/449/113 133/450/113 134/451/113
f 138/449/113 134/451/113 137/452/113
f 136/453/114 135/454/114 132/455/114
f 136/453/114 132/455/114 139/456/114
f 143/457/115 139/458/115 138/459/115
f 143/457/115 138/459/115 142/460/115
f 141/461/116 137/462/116 136/463/116
f 141/461/116 136/463/116 140/464/116
f 142/465/117 138/466/117 137/467/117
f 142/465/117 137/467/117 141/468/117
f 140/469/118 136/470/118 139/471/118
f 140/469/118 139/471/118 143/472/118
f 147/473/119 143/474/119 142/475/119
f 147/473/119 142/475/119 146/476/119
f 145/477/120 141/478/120 140/479/120
f 145/477/120 140/479/120 144/480/120
f 146/481/121 142/482/121 141/483/121
f 146/481/121 141/483/121 145/484/121
f 144/485/122 140/486/122 143/487/122
f 144/485/122 143/487/122 147/488/122
f 150/489/123 149/490/123 148/491/123
f 150/489/123 148/491/123 151/492/123
f 151/493/124 147/494/124 146/495/124
f 151/493/124 146/495/124 150/496/124
f 149/497/125 145/498/125 144/499/125
f 149/497/125 144/499/125 148/500/125
f 150/501/126 146/502/126 145/503/126
f 150/501/126 145/503/126 149/504/126
f 148/505/127 144/506/127 147/507/127
f 148/505/127 147/507/127 151/508/127
f 154/509/128 153/510/128 152/511/128
f 154/509/128 152/511/128 155/512/128
f 159/513/129 152/514/129 153/515/129
f 159/513/129 153/515/129 158/516/129
f 157/517/130 154/518/130 155/519/130
f 157/517/130 155/519/130 156/520/130
f 158/521/131 153/522/131 154/523/131
f 158/521/131 154/523/131 157/524/131
f 156/525/132 155/526/132 152/527/132
f 156/525/132 152/527/132 159/528/132
f 163/529/133 159/530/133 158/531/133
f 163/529/133 158/531/133 162/532/133
f 161/533/134 157/534/134 156/535/134
f 161/533/134 156/535/134 160/536/134
f 162/537/135 158/538/135 157/539/135
f 162/537/135 157/539/135 161/540/135
f 160/541/136 156/542/136 159/543/136
f 160/541/136 159/543/136 163/544/136
f 167/545/137 163/546/137 162/547/137
f 167/545/137 162/547/137 166/548/137
f 165/549/138 161/550/138 160/551/138
f 165/549/138 160/551/138 164/552/138
f 166/553/139 162/554/139 161/555/139
f 166/553/139 161/555/139 165/556/139
f 164/557/140 160/558/140 163/559/140
f 164/557/140 163/559/140 167/560/140
f 170/561/141 169/562/141 168/563/141
f 170/561/141 168/563/141 171/564/141
f 171/565/142 167/566/142 166/567/142
f 171/565/142 166/567/142 170/568/142
f 169/569/143 165/570/143 164/571/143
f 169/569/143 164/571/143 168/572/143
f 170/573/144 166/574/144 165/575/144
f 170/573/144 165/575/144 169/576/144
f 168/577/145 164/578/145 167/579/145
f 168/577/145 167/579/145 171/580/145
f 179/581/146 172/582/146 173/583/146
f 179/581/146 173/583/146 178/584/146
f 177/585/147 174/586/147 175/587/147
f 177/585/147 175/587/147 176/588/147
f 178/589/148 173/590/148 174/591/148
f 178/589/148 174/591/148 177/592/148
f 176/593/149 175/594/149 172/595/149
f 176/593/149 172/595/149 179/596/149
f 183/597/150 179/598/150 178/599/150
f 183/597/150 178/599/150 182/600/150
f 181/601/151 177/602/151 176/603/151
f 181/601/151 176/603/151 180/604/151
f 182/605/152 178/606/152 177/607/152
f 182/605/152 177/607/152 181/608/152
f 180/609/153 176/610/153 179/611/153
f 180/609/153 179/611/153 183/612/153
f 187/613/154 183/614/154 182/615/154
f 187/613/154 182/615/154 186/616/154
f 185/617/155 181/618/155 180/619/155
f 185/617/155 180/619/155 184/620/155
f 186/621/156 182/622/156 181/623/156
f 186/621/156 181/623/156 185/624/156
f 184/625/157 180/626/157 183/627/157
f 184/625/157 183/627/157 187/628/157
f 195/629/158 188/630/158 189/631/158
f 195/629/158 189/631/158 194/632/158
f 193/633/159 190/634/159 191/635/159
f 193/633/159 191/635/159 192/636/159
f 194/637/160 189/638/160 190/639/160
f 194/637/160 190/639/160 193/640/160
f 192/641/161 191/642/161 188/643/161
f 192/641/161 188/643/161 195/644/161
f 199/645/162 195/646/162 194/647/162
f 199/645/162 194/647/162 198/648/162
f 197/649/163 193/650/163 192/651/163
f 197/649/163 192/651/163 196/652/163
f 198/653/164 194/654/164 193/655/164
f 198/653/164 193/655/164 197/656/164
f 196/657/165 192/658/165 195/659/165
f 196/657/165 195/659/165 199/660/165
f 203/661/166 199/662/166 198/663/166
f 203/661/166 198/663/166 202/664/166
f 201/665/167 197/666/167 196/667/167
f 201/665/167 196/667/167 200/668/167
f 202/669/168 198/670/168 197/671/168
f 202/669/168 197/671/168 201/672/168
f 200/673/169 196/674/169 199/675/169
f 200/673/169 199/675/169 203/676/169
f 211/677/170 204/678/170 205/679/170
f 211/677/170 205/679/170 210/680/170
f 209/681/171 206/682/171 207/683/171
f 209/681/171 207/683/171 208/684/171
f 210/685/172 205/686/172 206/687/172
f 210/685/172 206/687/172 209/688/172
f 208/689/173 207/690/173 204/691/173
f 208/689/173 204/691/173 211/692/173
f 215/693/174 211/694/174 210/695/174
f 215/693/174 210/695/174 214/696/174
f 213/697/175 209/698/175 208/699/175
f 213/697/175 208/699/175 212/700/175
f 214/701/176 210/702/176 209/703/176
f 214/701/176 209/703/176 213/704/176
f 212/705/177 208/706/177 211/707/177
f 212/705/177 211/707/177 215/708/177
f 219/709/178 215/710/178 214/711/178
f 219/709/178 214/711/178 218/712/178
f 217/713/179 213/714/179 212/715/179
f 217/713/179 212/715/179 216/716/179
f 218/717/180 214/718/180 213/719/180
f 218/717/180 213/719/180 217/720/180
f 216/721/181 212/722/181 215/723/181
f 216/721/181 215/723/181 219/724/181
f 227/725/182 220/726/182 221/727/182
f 227/725/182 221/727/182 226/728/182
f 225/729/183 222/730/183 223/731/183
f 225/729/183 223/731/183 224/732/183
f 226/733/184 221/734/184 222/735/184
f 226/733/184 222/735/184 225/736/184
f 224/737/185 223/738/185 220/739/185
f 224/737/185 220/739/185 227/740/185
f 231/741/186 227/742/186 226/743/186
f 231/741/186 226/743/186 230/744/186
f 229/745/187 225/746/187 224/747/187
f 229/745/187 224/747/187 228/748/187
f 230/749/188 226/750/188 225/751/188
f 230/749/188 225/751/188 229/752/188
f 228/753/189 224/754/189 227/755/189
f 228/753/189 227/755/189 231/756/189
f 235/757/190 231/758/190 230/759/190
f 235/757/190 230/759/190 234/760/190
f 233/761/191 229/762/191 228/763/191
f 233/761/191 228/763/191 232/764/191
f 234/765/192 230/766/192 229/767/192
f 234/765/192 229/767/192 233/768/192
f 232/769/193 228/770/193 231/771/193
f 232/769/193 231/771/193 235/772/193
f 243/773/194 236/774/194 237/775/194
f 243/773/194 237/775/194 242/776/194
f 241/777/195 238/778/195 239/779/195
f 241/777/195 239/779/195 240/780/195
f 242/781/196 237/782/196 238/783/196
f 242/781/196 238/783/196 241/784/196
f 240/785/197 239/786/197 236/787/197
f 240/785/197 236/787/197 243/788/197
f 247/789/198 243/790/198 242/791/198
f 247/789/198 242/791/198 246/792/198
f 245/793/199 241/794/199 240/795/199
f 245/793/199 240/795/199 244/796/199
f 246/797/200 242/798/200 241/799/200
f 246/797/200 241/799/200 245/800/200
f 244/801/201 240/802/201 243/803/201
f 244/801/201 243/803/201 247/804/201
f 251/805/202 247/806/202 246/807/202
f 251/805/202 246/807/202 250/808/202
f 249/809/203 245/810/203 244/811/203
f 249/809/203 244/811/203 248/812/203
f 250/813/204 246/814/204 245/815/204
f 250/813/204 245/815/204 249/816/204
f 248/817/205 244/818/205 247/819/205
f 248/817/205 247/819/205 251/820/205
f 259/821/206 252/822/206 253/823/206
f 259/821/206 253/823/206 258/824/206
f 257/825/207 254/826/207 255/827/207
f 257/825/207 255/827/207 256/828/207
f 258/829/208 253/830/208 254/831/208
f 258/829/208 254/831/208 257/832/208
f 256/833/209 255/834/209 252/835/209
f 256/833/209 252/835/209 259/836/209
f 263/837/210 259/838/210 258/839/210
f 263/837/210 258/839/210 262/840/210
f 261/841/211 257/842/211 256/843/211
f 261/841/211 256/843/211 260/844/211
f 262/845/212 258/846/212 257/847/212
f 262/845/212 257/847/212 261/848/212
f 260/849/213 256/850/213 259/851/213
f 260/849/213 259/851/213 263/852/213
f 267/853/214 263/854/214 262/855/214
f 267/853/214 262/855/214 266/856/214
f 265/857/215 261/858/215 260/859/215
f 265/857/215 260/859/215 264/860/215
f 266/861/216 262/862/216 261/863/216
f 266/861/216 261/863/216 265/864/216
f 264/865/217 260/866/217 263/867/217
f 264/865/217 263/867/217 267/868/217
f 275/869/218 268/870/218 269/871/218
f 275/869/218 269/871/218 274/872/218
f 273/873/219 270/874/219 271/875/219
f 273/873/219 271/875/219 272/876/219
f 274/877/220 269/878/220 270/879/220
f 274/877/220 270/879/220 273/880/220
f 272/881/221 271/882/221 268/883/221
f 272/881/221 268/883/221 275/884/221
f 279/885/222 275/886/222 274/887/222
f 279/885/222 274/887/222 278/888/222
f 277/889/223 273/890/223 272/891/223
f 277/889/223 272/891/223 276/892/223
f 278/893/224 274/894/224 273/895/224
f 278/893/224 273/895/224 277/896/224
f 276/897/225 272/898/225 275/899/225
f 276/897/225 275/899/225 279/900/225
f 283/901/226 279/902/226 278/903/226
f 283/901/226 278/903/226 282/904/226
f 281/905/227 277/906/227 276/907/227
f 281/905/227 276/907/227 280/908/227
f 282/909/228 278/910/228 277/911/228
f 282/909/228 277/911/228 281/912/228
f 280/913/229 276/914/229 279/915/229
f 280/913/229 279/915/229 283/916/229
f 291/917/230 284/918/230 285/919/230
f 291/917/230 285/919/230 290/920/230
f 289/921/231 286/922/231 287/923/231
f 289/921/231 287/923/231 288/924/231
f 290/925/232 285/926/232 286/927/232
f 290/925/232 286/927/232 289/928/232
f 288/929/233 287/930/233 284/931/233
f 288/929/233 284/931/233 291/932/233
f 295/933/234 291/934/234 290/935/234
f 295/933/234 290/935/234 294/936/234
f 293/937/235 289/938/235 288/939/235
f 293/937/235 288/939/235 292/940/235
f 294/941/236 290/942/236 289/943/236
f 294/941/236 289/943/236 293/944/236
f 292/945/237 288/946/237 291/947/237
f 292/945/237 291/947/237 295/948/237
f 299/949/238 295/950/238 294/951/238
f 299/949/238 294/951/238 298/952/238
f 297/953/239 293/954/239 292/955/239
f 297/953/239 292/955/239 296/956/239
f 298/957/240 294/958/240 293/959/240
f 298/957/240 293/959/240 297/960/240
f 296/961/241 292/962/241 295/963/241
f 296/961/241 295/963/241 299/964/241
f 303/965/242 299/966/242 298/967/242
f 303/965/242 298/967/242 302/968/242
f 301/969/243 297/970/243 296/971/243
f 301/969/243 296/971/243 300/972/243
f 302/973/244 298/974/244 297/975/244
f 302/973/244 297/975/244 301/976/244
f 300/977/245 296/978/245 299/979/245
f 300/977/245 299/979/245 303/980/245
f 307/981/246 303/982/246 302/983/246
f 307/981/246 302/983/246 306/984/246
f 305/985/247 301/986/247 300/987/247
f 305/985/247 300/987/247 304/988/247
f 306/989/248 302/990/248 301/991/248
f 306/989/248 301/991/248 305/992/248
f 304/993/249 300/994/249 303/995/249
f 304/993/249 303/995/249 307/996/249
f 315/997/250 308/998/250 309/999/250
f 315/997/250 309/999/250 314/1000/250
f 313/1001/251 310/1002/251 311/1003/251
f 313/1001/251 311/1003/251 312/1004/251
f 314/1005/252 309/1006/252 310/1007/252
f 314/1005/252 310/1007/252 313/1008/252
f 312/1009/253 311/1010/253 308/1011/253
f 312/1009/253 308/1011/253 315/1012/253
f 319/1013/254 315/1014/254 314/1015/254
f 319/1013/254 314/1015/254 318/1016/254
f 317/1017/255 313/1018/255 312/1019/255
f 317/1017/255 312/1019/255 316/1020/255
f 318/1021/256 314/1022/256 313/1023/256
f 318/1021/256 313/1023/256 317/1024/256
f 316/1025/257 312/1026/257 315/1027/257
f 316/1025/257 315/1027/257 319/1028/257
f 323/1029/258 319/1030/258 318/1031/258
f 323/1029/258 318/1031/258 322/1032/258
f 321/1033/259 317/1034/259 316/1035/259
f 321/1033/259 316/1035/259 320/1036/259
f 322/1037/260 318/1038/260 317/1039/260
f 322/1037/260 317/1039/260 321/1040/260
f 320/1041/261 316/1042/261 319/1043/261
f 320/1041/261 319/1043/261 323/1044/261
f 327/1045/262 323/1046/262 322/1047/262
f 327/1045/262 322/1047/262 326/1048/262
f 325/1049/263 321/1050/263 320/1051/263
f 325/1049/263 320/1051/263 324/1052/263
f 326/1053/264 322/1054/264 321/1055/264
f 326/1053/264 321/1055/264 325/1056/264
f 324/1057/265 320/1058/265 323/1059/265
f 324/1057/265 323/1059/265 327/1060/265
f 330/1061/266 327/1062/266 326/1063/266
f 330/1061/266 326/1063/266 329/1064/266
f 41/1065/267 325/1066/267 324/1067/267
f 41/1065/267 324/1067/267 328/1068/267
f 329/1069/268 326/1070/268 325/1071/268
f 329/1069/268 325/1071/268 41/1072/268
f 328/1073/269 324/1074/269 327/1075/269
f 328/1073/269 327/1075/269 330/1076/269
f 53/1077/270 46/1078/270 49/1079/270
f 53/1077/270 49/1079/270 52/1080/270
f 50/1081/271 47/1082/271 46/1083/271
f 50/1081/271 46/1083/271 53/1084/271
o left
v 7.148 2.8202 0.5625
v 7.1563 3 0.4062
v 7.1563 3 0.5937
v 7.3438 3 0.5937
v 7.3438 3 0.4062
v 7.3438 2.1875 0.4062
v 7.3438 2.1875 0.5937
v 7.1563 2.1875 0.5937
v 7.1563 2.1875 0.4062
v 7.3438 1.1875 0.5937
v 7.1563 1.1875 0.5937
v 7.1563 1.1875 0.4062
v 7.3438 1.1875 0.4062
v 7.3438 0.0625 0.4062
v 7.3438 0.0625 0.5937
v 7.1563 0.0625 0.5937
v 7.1563 0.0625 0.4062
v 7.3438 -0.875 0.4062
v 7.3438 -0.875 0.5937
v 7.1563 -0.875 0.5937
v 7.1563 -0.875 0.4062
v 7.0938 2.5625 0.3437
v 7.0938 2.5625 0.6562
v 7.1563 2.5625 0.6562
v 7.1563 2.5625 0.3437
v 7.1563 2.4375 0.3437
v 7.1563 2.4375 0.6562
v 7.0938 2.4375 0.6562
v 7.0938 2.4375 0.3437
v 7.5938 2.5625 0.3437
v 7.5938 2.5625 0.6562
v 7.6563 2.5625 0.6562
v 7.6563 2.5625 0.3437
v 7.6563 2.4375 0.3437
v 7.6563 2.4375 0.6562
v 7.5938 2.4375 0.6562
v 7.5938 2.4375 0.3437
v 7.1563 2.4375 0.4062
v 7.1563 2.5625 0.4062
v 7.5938 2.5625 0.4062
v 7.5938 2.4375 0.4062
v 7.1563 2.4375 0.5937
v 7.1563 2.5625 0.5937
v 7.5938 2.5625 0.5937
v 7.5938 2.4375 0.5937
v 7.0938 -0.3125 0.3437
v 7.0938 -0.3125 0.6562
v 7.1563 -0.3125 0.6562
v 7.1563 -0.3125 0.3437
v 7.1563 -0.4375 0.3437
v 7.1563 -0.4375 0.6562
v 7.0938 -0.4375 0.6562
v 7.0938 -0.4375 0.3437
v 7.5938 -0.3125 0.3437
v 7.5938 -0.3125 0.6562
v 7.6563 -0.3125 0.6562
v 7.6563 -0.3125 0.3437
v 7.6563 -0.4375 0.3437
v 7.6563 -0.4375 0.6562
v 7.5938 -0.4375 0.6562
v 7.5938 -0.4375 0.3437
v 7.1563 -0.4375 0.4062
v 7.1563 -0.3125 0.4062
v 7.5938 -0.3125 0.4062
v 7.5938 -0.4375 0.4062
v 7.1563 -0.4375 0.5937
v 7.1563 -0.3125 0.5937
v 7.5938 -0.3125 0.5937
v 7.5938 -0.4375 0.5937
v 7.0938 1.1875 0.3437
v 7.0938 1.1875 0.6562
v 7.1563 1.1875 0.6562
v 7.1563 1.1875 0.3437
v 7.1563 1.0625 0.3437
v 7.1563 1.0625 0.6562
v 7.0938 1.0625 0.6562
v 7.0938 1.0625 0.3437
v 7.5938 1.1875 0.3437
v 7.5938 1.1875 0.6562
v 7.6563 1.1875 0.6562
v 7.6563 1.1875 0.3437
v 7.6563 1.0625 0.3437
v 7.6563 1.0625 0.6562
v 7.5938 1.0625 0.6562
v 7.5938 1.0625 0.3437
v 7.1563 1.0625 0.4062
v 7.5938 1.1875 0.4062
v 7.5938 1.0625 0.4062
v 7.1563 1.0625 0.5937
v 7.5938 1.1875 0.5937
v 7.5938 1.0625 0.5937
v 5.5938 3 0.4062
v 5.5938 3 0.5937
v 5.7813 3 0.5937
v 5.7813 3 0.4062
v 5.7813 2.1875 0.4062
v 5.7813 2.1875 0.5937
v 5.5938 2.1875 0.5937
v 5.5938 2.1875 0.4062
v 5.7813 1.0625 0.4062
v 5.7813 1.0625 0.5937
v 5.5938 1.0625 0.5937
v 5.5938 1.0625 0.4062
v 5.7813 0.0625 0.4062
v 5.7813 0.0625 0.5937
v 5.5938 0.0625 0.5937
v 5.5938 0.0625 0.4062
v 5.7813 -0.875 0.4062
v 5.7813 -0.875 0.5937
v 5.5938 -0.875 0.5937
v 5.5938 -0.875 0.4062
v 4 3 0.4062
v 4 3 0.5937
v 4.1875 3 0.5937
v 4.1875 3 0.4062
v 4.1875 2.1875 0.4062
v 4.1875 2.1875 0.5937
v 4 2.1875 0.5937
v 4 2.1875 0.4062
v 4.1875 1.1875 0.4062
v 4.1875 1.1875 0.5937
v 4 1.1875 0.5937
v 4 1.1875 0.4062
v 4.1875 0.0625 0.4062
v 4.1875 0.0625 0.5937
v 4 0.0625 0.5937
v 4 0.0625 0.4062
v 4.1875 -0.875 0.4062
v 4.1875 -0.875 0.5937
v 4 -0.875 0.5937
v 4 -0.875 0.4062
v 4.1875 2.8125 0.4375
v 4.1875 2.8125 0.5625
v 4.1875 2.9375 0.5625
v 4.1875 2.9375 0.4375
v 5.1875 2.9375 0.4375
v 5.1875 2.9375 0.5625
v 5.1875 2.8125 0.5625
v 5.1875 2.8125 0.4375
v 6.1875 2.9375 0.4375
v 6.1875 2.9375 0.5625
v 6.1875 2.8125 0.5625
v 6.1875 2.8125 0.4375
v 7.1875 2.9375 0.4375
v 7.1875 2.9375 0.5625
v 7.1875 2.8125 0.5625
v 7.1875 2.8125 0.4375
v 4.1875 -0.8125 0.4375
v 4.1875 -0.8125 0.5625
v 4.1875 -0.6875 0.5625
v 4.1875 -0.6875 0.4375
v 5.1875 -0.6875 0.4375
v 5.1875 -0.6875 0.5625
v 5.1875 -0.8125 0.5625
v 5.1875 -0.8125 0.4375
v 6.1875 -0.6875 0.4375
v 6.1875 -0.6875 0.5625
v 6.1875 -0.8125 0.5625
v 6.1875 -0.8125 0.4375
v 7.1875 -0.6875 0.4375
v 7.1875 -0.6875 0.5625
v 7.1875 -0.8125 0.5625
v 7.1875 -0.8125 0.4375
v 4.1875 -0.5625 0.5312
v 4.1875 -0.1875 0.5312
v 4.1875 -0.1875 0.4687
v 4.1875 -0.5625 0.4687
v 5.1875 -0.5625 0.4687
v 5.1875 -0.1875 0.4687
v 5.1875 -0.1875 0.5312
v 5.1875 -0.5625 0.5312
v 6.1875 -0.5625 0.4687
v 6.1875 -0.1875 0.4687
v 6.1875 -0.1875 0.5312
v 6.1875 -0.5625 0.5312
v 7.1875 -0.5625 0.4687
v 7.1875 -0.1875 0.4687
v 7.1875 -0.1875 0.5312
v 7.1875 -0.5625 0.5312
v 4.1875 -0.0625 0.5312
v 4.1875 0.3125 0.5312
v 4.1875 0.3125 0.4687
v 4.1875 -0.0625 0.4687
v 5.1875 -0.0625 0.4687
v 5.1875 0.3125 0.4687
v 5.1875 0.3125 0.5312
v 5.1875 -0.0625 0.5312
v 6.1875 -0.0625 0.4687
v 6.1875 0.3125 0.4687
v 6.1875 0.3125 0.5312
v 6.1875 -0.0625 0.5312
v 7.1875 -0.0625 0.4687
v 7.1875 0.3125 0.4687
v 7.1875 0.3125 0.5312
v 7.1875 -0.0625 0.5312
v 4.1875 0.4375 0.5312
v 4.1875 0.8125 0.5312
v 4.1875 0.8125 0.4687
v 4.1875 0.4375 0.4687
v 5.1875 0.4375 0.4687
v 5.1875 0.8125 0.4687
v 5.1875 0.8125 0.5312
v 5.1875 0.4375 0.5312
v 6.1875 0.4375 0.4687
v 6.1875 0.8125 0.4687
v 6.1875 0.8125 0.5312
v 6.1875 0.4375 0.5312
v 7.1875 0.4375 0.4687
v 7.1875 0.8125 0.4687
v 7.1875 0.8125 0.5312
v 7.1875 0.4375 0.5312
v 4.1875 0.9375 0.5312
v 4.1875 1.3125 0.5312
v 4.1875 1.3125 0.4687
v 4.1875 0.9375 0.4687
v 5.1875 0.9375 0.4687
v 5.1875 1.3125 0.4687
v 5.1875 1.3125 0.5312
v 5.1875 0.9375 0.5312
v 6.1875 0.9375 0.4687
v 6.1875 1.3125 0.4687
v 6.1875 1.3125 0.5312
v 6.1875 0.9375 0.5312
v 7.1875 0.9375 0.4687
v 7.1875 1.3125 0.4687
v 7.1875 1.3125 0.5312
v 7.1875 0.9375 0.5312
v 4.1875 1.4375 0.5312
v 4.1875 1.8125 0.5312
v 4.1875 1.8125 0.4687
v 4.1875 1.4375 0.4687
v 5.1875 1.4375 0.4687
v 5.1875 1.8125 0.4687
v 5.1875 1.8125 0.5312
v 5.1875 1.4375 0.5312
v 6.1875 1.4375 0.4687
v 6.1875 1.8125 0.4687
v 6.1875 1.8125 0.5312
v 6.1875 1.4375 0.5312
v 7.1875 1.4375 0.4687
v 7.1875 1.8125 0.4687
v 7.1875 1.8125 0.5312
v 7.1875 1.4375 0.5312
v 4.0935 2.7572 0.4375
v 4.0935 2.7572 0.5625
v 4.1864 2.8408 0.5625
v 4.1864 2.8408 0.4375
v 4.8555 2.0977 0.4375
v 4.8555 2.0977 0.5625
v 4.7626 2.014 0.5625
v 4.7626 2.014 0.4375
v 5.5247 1.3545 0.4375
v 5.5247 1.3545 0.5625
v 5.4318 1.2709 0.5625
v 5.4318 1.2709 0.4375
v 6.1938 0.6114 0.4375
v 6.1938 0.6114 0.5625
v 6.1009 0.5277 0.5625
v 6.1009 0.5277 0.4375
v 6.8629 -0.1318 0.4375
v 6.8629 -0.1318 0.5625
v 6.77 -0.2154 0.5625
v 6.77 -0.2154 0.4375
v 7.2811 -0.5962 0.4375
v 7.2811 -0.5962 0.5625
v 7.1882 -0.6799 0.5625
v 7.1882 -0.6799 0.4375
v 4.177 -0.7266 0.4375
v 4.177 -0.7266 0.5625
v 4.0833 -0.6438 0.5625
v 4.0833 -0.6438 0.4375
v 4.746 0.1052 0.4375
v 4.746 0.1052 0.5625
v 4.8396 0.0224 0.5625
v 4.8396 0.0224 0.4375
v 5.4086 0.8541 0.4375
v 5.4086 0.8541 0.5625
v 5.5022 0.7713 0.5625
v 5.5022 0.7713 0.4375
v 6.0712 1.6031 0.4375
v 6.0712 1.6031 0.5625
v 6.1648 1.5203 0.5625
v 6.1648 1.5203 0.4375
v 6.7338 2.3521 0.4375
v 6.7338 2.3521 0.5625
v 6.8274 2.2692 0.5625
v 6.8274 2.2692 0.4375
v 7.148 2.8202 0.4375
v 7.2416 2.7373 0.5625
v 7.2416 2.7373 0.4375
vt 1 0.4375
vt 0.8125 0.4375
vt 0.8125 0.25
vt 1 0.25
vt 0 0.625
vt 0 0.4375
vt 0.8125 0.4375
vt 0.8125 0.625
vt 0 0.625
vt 0 0.4375
vt 0.8125 0.4375
vt 0.8125 0.625
vt 0 0.4375
vt 0 0.625
vt 0.8125 0.625
vt 0.8125 0.4375
vt 0 0.4375
vt 0 0.625
vt 0.8125 0.625
vt 0.8125 0.4375
vt 0 0.25
vt 0 0.0625
vt 0.8125 0.0625
vt 0.8125 0.25
vt 0 0.0625
vt 0 0.25
vt 0.8125 0.25
vt 0.8125 0.0625
vt 0 0.25
vt 0 0.0625
vt 0.8125 0.0625
vt 0.8125 0.25
vt 0 0.25
vt 0 0.0625
vt 0.8125 0.0625
vt 0.8125 0.25
vt 0 0.0625
vt 0 0.25
vt 0.8125 0.25
vt 0.8125 0.0625
vt 0 0.0625
vt 0 0.25
vt 0.8125 0.25
vt 0.8125 0.0625
vt 1 0.625
vt 0.8125 0.625
vt 0.8125 0.4375
vt 1 0.4375
vt 0 0.4375
vt 0 0.25
vt 0.8125 0.25
vt 0.8125 0.4375
vt 0 0.4375
vt 0 0.25
vt 0.8125 0.25
vt 0.8125 0.4375
vt 0 0.25
vt 0 0.4375
vt 0.8125 0.4375
vt 0.8125 0.25
vt 0 0.25
vt 0 0.4375
vt 0.8125 0.4375
vt 0.8125 0.25
vt 0.75 0.0625
vt 0.4375 0.0625
vt 0.4375 0
vt 0.75 0
vt 0.75 0.0625
vt 0.4375 0.0625
vt 0.4375 0
vt 0.75 0
vt 0.4375 0
vt 0.75 0
vt 0.75 0.0625
vt 0.4375 0.0625
vt 0.4375 0
vt 0.5 0
vt 0.5 0.0625
vt 0.4375 0.0625
vt 0.6875 0
vt 0.75 0
vt 0.75 0.0625
vt 0.6875 0.0625
vt 0.4375 0
vt 0.75 0
vt 0.75 0.0625
vt 0.4375 0.0625
vt 0.4375 0
vt 0.75 0
vt 0.75 0.0625
vt 0.4375 0.0625
vt 0.4375 0
vt 0.75 0
vt 0.75 0.0625
vt 0.4375 0.0625
vt 0.4375 0
vt 0.75 0
vt 0.75 0.0625
vt 0.4375 0.0625
vt 0.6875 0
vt 0.75 0
vt 0.75 0.0625
vt 0.6875 0.0625
vt 0.4375 0
vt 0.5 0
vt 0.5 0.0625
vt 0.4375 0.0625
vt 0 0.0625
vt 0 0
vt 0.4375 0
vt 0.4375 0.0625
vt 0 0.0625
vt 0 0
vt 0.4375 0
vt 0.4375 0.0625
vt 0 0.0625
vt 0 0
vt 0.4375 0
vt 0.4375 0.0625
vt 0 0.0625
vt 0 0
vt 0.4375 0
vt 0.4375 0.0625
vt 0.4375 0
vt 0.4375 0.0625
vt 0 0.0625
vt 0 0
vt 0.4375 0
vt 0.4375 0.0625
vt 0 0.0625
vt 0 0
vt 0.4375 0
vt 0.4375 0.0625
vt 0 0.0625
vt 0 0
vt 0.4375 0
vt 0.4375 0.0625
vt 0 0.0625
vt 0 0
vt 0.75 0.0625
vt 0.4375 0.0625
vt 0.4375 0
vt 0.75 0
vt 0.75 0.0625
vt 0.4375 0.0625
vt 0.4375 0
vt 0.75 0
vt 0.4375 0
vt 0.75 0
vt 0.75 0.0625
vt 0.4375 0.0625
vt 0.4375 0
vt 0.5 0
vt 0.5 0.0625
vt 0.4375 0.0625
vt 0.6875 0
vt 0.75 0
vt 0.75 0.0625
vt 0.6875 0.0625
vt 0.4375 0
vt 0.75 0
vt 0.75 0.0625
vt 0.4375 0.0625
vt 0.4375 0
vt 0.75 0
vt 0.75 0.0625
vt 0.4375 0.0625
vt 0.4375 0
vt 0.75 0
vt 0.75 0.0625
vt 0.4375 0.0625
vt 0.4375 0
vt 0.75 0
vt 0.75 0.0625
vt 0.4375 0.0625
vt 0.6875 0
vt 0.75 0
vt 0.75 0.0625
vt 0.6875 0.0625
vt 0.4375 0
vt 0.5 0
vt 0.5 0.0625
vt 0.4375 0.0625
vt 0 0.0625
vt 0 0
vt 0.4375 0
vt 0.4375 0.0625
vt 0 0.0625
vt 0 0
vt 0.4375 0
vt 0.4375 0.0625
vt 0 0.0625
vt 0 0
vt 0.4375 0
vt 0.4375 0.0625
vt 0 0.0625
vt 0 0
vt 0.4375 0
vt 0.4375 0.0625
vt 0.4375 0
vt 0.4375 0.0625
vt 0 0.0625
vt 0 0
vt 0.4375 0
vt 0.4375 0.0625
vt 0 0.0625
vt 0 0
vt 0.4375 0
vt 0.4375 0.0625
vt 0 0.0625
vt 0 0
vt 0.4375 0
vt 0.4375 0.0625
vt 0 0.0625
vt 0 0
vt 0.75 0.0625
vt 0.4375 0.0625
vt 0.4375 0
vt 0.75 0
vt 0.75 0.0625
vt 0.4375 0.0625
vt 0.4375 0
vt 0.75 0
vt 0.4375 0
vt 0.75 0
vt 0.75 0.0625
vt 0.4375 0.0625
vt 0.4375 0
vt 0.5 0
vt 0.5 0.0625
vt 0.4375 0.0625
vt 0.6875 0
vt 0.75 0
vt 0.75 0.0625
vt 0.6875 0.0625
vt 0.4375 0
vt 0.75 0
vt 0.75 0.0625
vt 0.4375 0.0625
vt 0.4375 0
vt 0.75 0
vt 0.75 0.0625
vt 0.4375 0.0625
vt 0.4375 0
vt 0.75 0
vt 0.75 0.0625
vt 0.4375 0.0625
vt 0.4375 0
vt 0.75 0
vt 0.75 0.0625
vt 0.4375 0.0625
vt 0.6875 0
vt 0.75 0
vt 0.75 0.0625
vt 0.6875 0.0625
vt 0.4375 0
vt 0.5 0
vt 0.5 0.0625
vt 0.4375 0.0625
vt 0 0.0625
vt 0 0
vt 0.4375 0
vt 0.4375 0.0625
vt 0 0.0625
vt 0 0
vt 0.4375 0
vt 0.4375 0.0625
vt 0 0.0625
vt 0 0
vt 0.4375 0
vt 0.4375 0.0625
vt 0 0.0625
vt 0 0
vt 0.4375 0
vt 0.4375 0.0625
vt 0.4375 0
vt 0.4375 0.0625
vt 0 0.0625
vt 0 0
vt 0.4375 0
vt 0.4375 0.0625
vt 0 0.0625
vt 0 0
vt 0.4375 0
vt 0.4375 0.0625
vt 0 0.0625
vt 0 0
vt 0.4375 0
vt 0.4375 0.0625
vt 0 0.0625
vt 0 0
vt 1 0.4375
vt 0.8125 0.4375
vt 0.8125 0.25
vt 1 0.25
vt 0 0.625
vt 0 0.4375
vt 0.8125 0.4375
vt 0.8125 0.625
vt 0 0.625
vt 0 0.4375
vt 0.8125 0.4375
vt 0.8125 0.625
vt 0 0.4375
vt 0 0.625
vt 0.8125 0.625
vt 0.8125 0.4375
vt 0 0.4375
vt 0 0.625
vt 0.8125 0.625
vt 0.8125 0.4375
vt 0 0.25
vt 0 0.0625
vt 0.8125 0.0625
vt 0.8125 0.25
vt 0 0.25
vt 0 0.0625
vt 0.8125 0.0625
vt 0.8125 0.25
vt 0 0.0625
vt 0 0.25
vt 0.8125 0.25
vt 0.8125 0.0625
vt 0 0.0625
vt 0 0.25
vt 0.8125 0.25
vt 0.8125 0.0625
vt 0 0.25
vt 0 0.0625
vt 0.8125 0.0625
vt 0.8125 0.25
vt 0 0.25
vt 0 0.0625
vt 0.8125 0.0625
vt 0.8125 0.25
vt 0 0.0625
vt 0 0.25
vt 0.8125 0.25
vt 0.8125 0.0625
vt 0 0.0625
vt 0 0.25
vt 0.8125 0.25
vt 0.8125 0.0625
vt 1 0.625
vt 0.8125 0.625
vt 0.8125 0.4375
vt 1 0.4375
vt 0 0.4375
vt 0 0.25
vt 0.8125 0.25
vt 0.8125 0.4375
vt 0 0.4375
vt 0 0.25
vt 0.8125 0.25
vt 0.8125 0.4375
vt 0 0.25
vt 0 0.4375
vt 0.8125 0.4375
vt 0.8125 0.25
vt 0 0.25
vt 0 0.4375
vt 0.8125 0.4375
vt 0.8125 0.25
vt 1 0.4375
vt 0.8125 0.4375
vt 0.8125 0.25
vt 1 0.25
vt 0 0.625
vt 0 0.4375
vt 0.8125 0.4375
vt 0.8125 0.625
vt 0 0.625
vt 0 0.4375
vt 0.8125 0.4375
vt 0.8125 0.625
vt 0 0.4375
vt 0 0.625
vt 0.8125 0.625
vt 0.8125 0.4375
vt 0 0.4375
vt 0 0.625
vt 0.8125 0.625
vt 0.8125 0.4375
vt 0 0.25
vt 0 0.0625
vt 0.8125 0.0625
vt 0.8125 0.25
vt 0 0.25
vt 0 0.0625
vt 0.8125 0.0625
vt 0.8125 0.25
vt 0 0.0625
vt 0 0.25
vt 0.8125 0.25
vt 0.8125 0.0625
vt 0 0.0625
vt 0 0.25
vt 0.8125 0.25
vt 0.8125 0.0625
vt 0 0.25
vt 0 0.0625
vt 0.8125 0.0625
vt 0.8125 0.25
vt 0 0.25
vt 0 0.0625
vt 0.8125 0.0625
vt 0.8125 0.25
vt 0 0.0625
vt 0 0.25
vt 0.8125 0.25
vt 0.8125 0.0625
vt 0 0.0625
vt 0 0.25
vt 0.8125 0.25
vt 0.8125 0.0625
vt 1 0.625
vt 0.8125 0.625
vt 0.8125 0.4375
vt 1 0.4375
vt 0 0.4375
vt 0 0.25
vt 0.8125 0.25
vt 0.8125 0.4375
vt 0 0.4375
vt 0 0.25
vt 0.8125 0.25
vt 0.8125 0.4375
vt 0 0.25
vt 0 0.4375
vt 0.8125 0.4375
vt 0.8125 0.25
vt 0 0.25
vt 0 0.4375
vt 0.8125 0.4375
vt 0.8125 0.25
vt 0 1
vt 0 0.875
vt 1 0.875
vt 1 1
vt 0 1
vt 0 0.875
vt 1 0.875
vt 1 1
vt 0 0.875
vt 0 1
vt 1 1
vt 1 0.875
vt 0 0.875
vt 0 1
vt 1 1
vt 1 0.875
vt 0 1
vt 0 0.875
vt 1 0.875
vt 1 1
vt 0 1
vt 0 0.875
vt 1 0.875
vt 1 1
vt 0 0.875
vt 0 1
vt 1 1
vt 1 0.875
vt 0 0.875
vt 0 1
vt 1 1
vt 1 0.875
vt 0 1
vt 0 0.875
vt 1 0.875
vt 1 1
vt 0 1
vt 0 0.875
vt 1 0.875
vt 1 1
vt 0 0.875
vt 0 1
vt 1 1
vt 1 0.875
vt 0 0.875
vt 0 1
vt 1 1
vt 1 0.875
vt 0 1
vt 0 0.875
vt 1 0.875
vt 1 1
vt 0 1
vt 0 0.875
vt 1 0.875
vt 1 1
vt 0 0.875
vt 0 1
vt 1 1
vt 1 0.875
vt 0 0.875
vt 0 1
vt 1 1
vt 1 0.875
vt 0 1
vt 0 0.875
vt 1 0.875
vt 1 1
vt 0 1
vt 0 0.875
vt 1 0.875
vt 1 1
vt 0 0.875
vt 0 1
vt 1 1
vt 1 0.875
vt 0 0.875
vt 0 1
vt 1 1
vt 1 0.875
vt 0 1
vt 0 0.875
vt 1 0.875
vt 1 1
vt 0 1
vt 0 0.875
vt 1 0.875
vt 1 1
vt 0 0.875
vt 0 1
vt 1 1
vt 1 0.875
vt 0 0.875
vt 0 1
vt 1 1
vt 1 0.875
vt 0 0.625
vt 0 1
vt 1 1
vt 1 0.625
vt 0 0.625
vt 0 1
vt 1 1
vt 1 0.625
vt 0 0.9375
vt 0 1
vt 1 1
vt 1 0.9375
vt 0 0.6875
vt 0 0.625
vt 1 0.625
vt 1 0.6875
vt 0 0.625
vt 0 1
vt 1 1
vt 1 0.625
vt 0 0.625
vt 0 1
vt 1 1
vt 1 0.625
vt 0 0.9375
vt 0 1
vt 1 1
vt 1 0.9375
vt 0 0.6875
vt 0 0.625
vt 1 0.625
vt 1 0.6875
vt 0 0.625
vt 0 1
vt 1 1
vt 1 0.625
vt 0 0.625
vt 0 1
vt 1 1
vt 1 0.625
vt 0 0.9375
vt 0 1
vt 1 1
vt 1 0.9375
vt 0 0.6875
vt 0 0.625
vt 1 0.625
vt 1 0.6875
vt 0 0.625
vt 0 1
vt 1 1
vt 1 0.625
vt 0 0.625
vt 0 1
vt 1 1
vt 1 0.625
vt 0 0.9375
vt 0 1
vt 1 1
vt 1 0.9375
vt 0 0.6875
vt 0 0.625
vt 1 0.625
vt 1 0.6875
vt 0 0.625
vt 0 1
vt 1 1
vt 1 0.625
vt 0 0.625
vt 0 1
vt 1 1
vt 1 0.625
vt 0 0.9375
vt 0 1
vt 1 1
vt 1 0.9375
vt 0 0.6875
vt 0 0.625
vt 1 0.625
vt 1 0.6875
vt 0 0.625
vt 0 1
vt 1 1
vt 1 0.625
vt 0 0.625
vt 0 1
vt 1 1
vt 1 0.625
vt 0 0.9375
vt 0 1
vt 1 1
vt 1 0.9375
vt 0 0.6875
vt 0 0.625
vt 1 0.625
vt 1 0.6875
vt 0 0.625
vt 0 1
vt 1 1
vt 1 0.625
vt 0 0.625
vt 0 1
vt 1 1
vt 1 0.625
vt 0 0.9375
vt 0 1
vt 1 1
vt 1 0.9375
vt 0 0.6875
vt 0 0.625
vt 1 0.625
vt 1 0.6875
vt 0 0.625
vt 0 1
vt 1 1
vt 1 0.625
vt 0 0.625
vt 0 1
vt 1 1
vt 1 0.625
vt 0 0.9375
vt 0 1
vt 1 1
vt 1 0.9375
vt 0 0.6875
vt 0 0.625
vt 1 0.625
vt 1 0.6875
vt 0 0.625
vt 0 1
vt 1 1
vt 1 0.625
vt 0 0.625
vt 0 1
vt 1 1
vt 1 0.625
vt 0 0.9375
vt 0 1
vt 1 1
vt 1 0.9375
vt 0 0.6875
vt 0 0.625
vt 1 0.625
vt 1 0.6875
vt 0 0.625
vt 0 1
vt 1 1
vt 1 0.625
vt 0 0.625
vt 0 1
vt 1 1
vt 1 0.625
vt 0 0.9375
vt 0 1
vt 1 1
vt 1 0.9375
vt 0 0.6875
vt 0 0.625
vt 1 0.625
vt 1 0.6875
vt 0 0.625
vt 0 1
vt 1 1
vt 1 0.625
vt 0 0.625
vt 0 1
vt 1 1
vt 1 0.625
vt 0 0.9375
vt 0 1
vt 1 1
vt 1 0.9375
vt 0 0.6875
vt 0 0.625
vt 1 0.625
vt 1 0.6875
vt 0 0.625
vt 0 1
vt 1 1
vt 1 0.625
vt 0 0.625
vt 0 1
vt 1 1
vt 1 0.625
vt 0 0.9375
vt 0 1
vt 1 1
vt 1 0.9375
vt 0 0.6875
vt 0 0.625
vt 1 0.625
vt 1 0.6875
vt 0 0.625
vt 0 1
vt 1 1
vt 1 0.625
vt 0 0.625
vt 0 1
vt 1 1
vt 1 0.625
vt 0 0.9375
vt 0 1
vt 1 1
vt 1 0.9375
vt 0 0.6875
vt 0 0.625
vt 1 0.625
vt 1 0.6875
vt 0 0.625
vt 0 1
vt 1 1
vt 1 0.625
vt 0 0.625
vt 0 1
vt 1 1
vt 1 0.625
vt 0 0.9375
vt 0 1
vt 1 1
vt 1 0.9375
vt 0 0.6875
vt 0 0.625
vt 1 0.625
vt 1 0.6875
vt 0 0.625
vt 0 1
vt 1 1
vt 1 0.625
vt 0 0.625
vt 0 1
vt 1 1
vt 1 0.625
vt 0 0.9375
vt 0 1
vt 1 1
vt 1 0.9375
vt 0 0.6875
vt 0 0.625
vt 1 0.625
vt 1 0.6875
vt 0.8125 0.3125
vt 0.8125 0.4375
vt 0 0.4375
vt 0 0.3125
vt 0.8125 0.4375
vt 0.8125 0.3125
vt 0 0.3125
vt 0 0.4375
vt 0 0.3125
vt 0 0.4375
vt 0.8125 0.4375
vt 0.8125 0.3125
vt 0 0.3125
vt 0 0.4375
vt 0.8125 0.4375
vt 0.8125 0.3125
vt 0.8125 0.4375
vt 0.8125 0.3125
vt 0 0.3125
vt 0 0.4375
vt 0.8125 0.4375
vt 0.8125 0.3125
vt 0 0.3125
vt 0 0.4375
vt 0.8125 0.3125
vt 0.8125 0.4375
vt 0 0.4375
vt 0 0.3125
vt 0.8125 0.3125
vt 0.8125 0.4375
vt 0 0.4375
vt 0 0.3125
vt 0.8125 0.3125
vt 0.8125 0.4375
vt 0 0.4375
vt 0 0.3125
vt 0.8125 0.4375
vt 0.8125 0.3125
vt 0 0.3125
vt 0 0.4375
vt 0 0.3125
vt 0 0.4375
vt 0.8125 0.4375
vt 0.8125 0.3125
vt 0 0.3125
vt 0 0.4375
vt 0.8125 0.4375
vt 0.8125 0.3125
vt 0.8125 0.4375
vt 0.8125 0.3125
vt 0 0.3125
vt 0 0.4375
vt 0.8125 0.4375
vt 0.8125 0.3125
vt 0 0.3125
vt 0 0.4375
vt 0.8125 0.3125
vt 0.8125 0.4375
vt 0 0.4375
vt 0 0.3125
vt 0.8125 0.3125
vt 0.8125 0.4375
vt 0 0.4375
vt 0 0.3125
vt 0.625 0.4375
vt 0.625 0.3125
vt 0 0.3125
vt 0 0.4375
vt 0.625 0.4375
vt 0.625 0.3125
vt 0 0.3125
vt 0 0.4375
vt 0 0.3125
vt 0 0.4375
vt 0.625 0.4375
vt 0.625 0.3125
vt 0 0.3125
vt 0 0.4375
vt 0.625 0.4375
vt 0.625 0.3125
vt 0.8125 0.3125
vt 0.8125 0.4375
vt 0 0.4375
vt 0 0.3125
vt 0.8125 0.4375
vt 0.8125 0.3125
vt 0 0.3125
vt 0 0.4375
vt 0 0.3125
vt 0 0.4375
vt 0.8125 0.4375
vt 0.8125 0.3125
vt 0 0.3125
vt 0 0.4375
vt 0.8125 0.4375
vt 0.8125 0.3125
vt 0.8125 0.4375
vt 0.8125 0.3125
vt 0 0.3125
vt 0 0.4375
vt 0.8125 0.4375
vt 0.8125 0.3125
vt 0 0.3125
vt 0 0.4375
vt 0.8125 0.3125
vt 0.8125 0.4375
vt 0 0.4375
vt 0 0.3125
vt 0.8125 0.3125
vt 0.8125 0.4375
vt 0 0.4375
vt 0 0.3125
vt 0.8125 0.3125
vt 0.8125 0.4375
vt 0 0.4375
vt 0 0.3125
vt 0.8125 0.4375
vt 0.8125 0.3125
vt 0 0.3125
vt 0 0.4375
vt 0 0.3125
vt 0 0.4375
vt 0.8125 0.4375
vt 0.8125 0.3125
vt 0 0.3125
vt 0 0.4375
vt 0.8125 0.4375
vt 0.8125 0.3125
vt 0.8125 0.4375
vt 0.8125 0.3125
vt 0 0.3125
vt 0 0.4375
vt 0.8125 0.4375
vt 0.8125 0.3125
vt 0 0.3125
vt 0 0.4375
vt 0.8125 0.3125
vt 0.8125 0.4375
vt 0 0.4375
vt 0 0.3125
vt 0.8125 0.3125
vt 0.8125 0.4375
vt 0 0.4375
vt 0 0.3125
vt 0.625 0.4375
vt 0.625 0.3125
vt 0 0.3125
vt 0 0.4375
vt 0.625 0.4375
vt 0.625 0.3125
vt 0 0.3125
vt 0 0.4375
vt 0 0.3125
vt 0 0.4375
vt 0.625 0.4375
vt 0.625 0.3125
vt 0 0.3125
vt 0 0.4375
vt 0.625 0.4375
vt 0.625 0.3125
vt 0 0.0625
vt 0 0.25
vt 0.8125 0.25
vt 0.8125 0.0625
vt 0 0.25
vt 0 0.0625
vt 0.8125 0.0625
vt 0.8125 0.25
vn 0 1 0
vn -1 0 0
vn 1 0 0
vn 0 0 1
vn 0 0 -1
vn -1 0 0
vn 0 0 1
vn -1 0 0
vn 1 0 0
vn 0 0 1
vn 0 0 -1
vn 0 -1 0
vn -1 0 0
vn 1 0 0
vn 0 0 1
vn 0 0 -1
vn 0 1 0
vn 0 -1 0
vn -1 0 0
vn 0 0 1
vn 0 0 -1
vn 0 1 0
vn 0 -1 0
vn -1 0 0
vn 1 0 0
vn 0 0 1
vn 0 0 -1
vn 0 -1 0
vn 0 1 0
vn 0 0 1
vn 0 0 -1
vn 0 -1 0
vn 0 1 0
vn 0 0 1
vn 0 0 -1
vn 0 1 0
vn 0 -1 0
vn -1 0 0
vn 0 0 1
vn 0 0 -1
vn 0 1 0
vn 0 -1 0
vn -1 0 0
vn 1 0 0
vn 0 0 1
vn 0 0 -1
vn 0 -1 0
vn 0 1 0
vn 0 0 1
vn 0 0 -1
vn 0 -1 0
vn 0 1 0
vn 0 0 1
vn 0 0 -1
vn 0 1 0
vn 0 -1 0
vn -1 0 0
vn 0 0 1
vn 0 0 -1
vn 0 1 0
vn 0 -1 0
vn -1 0 0
vn 1 0 0
vn 0 0 1
vn 0 0 -1
vn 0 -1 0
vn 0 1 0
vn 0 0 1
vn 0 0 -1
vn 0 -1 0
vn 0 1 0
vn 0 0 1
vn 0 0 -1
vn 0 1 0
vn -1 0 0
vn 1 0 0
vn 0 0 1
vn 0 0 -1
vn -1 0 0
vn 1 0 0
vn 0 0 1
vn 0 0 -1
vn -1 0 0
vn 1 0 0
vn 0 0 1
vn 0 0 -1
vn 0 -1 0
vn -1 0 0
vn 1 0 0
vn 0 0 1
vn 0 0 -1
vn 0 1 0
vn -1 0 0
vn 1 0 0
vn 0 0 1
vn 0 0 -1
vn -1 0 0
vn 1 0 0
vn 0 0 1
vn 0 0 -1
vn -1 0 0
vn 1 0 0
vn 0 0 1
vn 0 0 -1
vn 0 -1 0
vn -1 0 0
vn 1 0 0
vn 0 0 1
vn 0 0 -1
vn 0 -1 0
vn 0 1 0
vn 0 0 1
vn 0 0 -1
vn 0 -1 0
vn 0 1 0
vn 0 0 1
vn 0 0 -1
vn 0 -1 0
vn 0 1 0
vn 0 0 1
vn 0 0 -1
vn 0 -1 0
vn 0 1 0
vn 0 0 1
vn 0 0 -1
vn 0 -1 0
vn 0 1 0
vn 0 0 1
vn 0 0 -1
vn 0 -1 0
vn 0 1 0
vn 0 0 1
vn 0 0 -1
vn 0 0 1
vn 0 0 -1
vn 0 1 0
vn 0 -1 0
vn 0 0 1
vn 0 0 -1
vn 0 1 0
vn 0 -1 0
vn 0 0 1
vn 0 0 -1
vn 0 1 0
vn 0 -1 0
vn 0 0 1
vn 0 0 -1
vn 0 1 0
vn 0 -1 0
vn 0 0 1
vn 0 0 -1
vn 0 1 0
vn 0 -1 0
vn 0 0 1
vn 0 0 -1
vn 0 1 0
vn 0 -1 0
vn 0 0 1
vn 0 0 -1
vn 0 1 0
vn 0 -1 0
vn 0 0 1
vn 0 0 -1
vn 0 1 0
vn 0 -1 0
vn 0 0 1
vn 0 0 -1
vn 0 1 0
vn 0 -1 0
vn 0 0 1
vn 0 0 -1
vn 0 1 0
vn 0 -1 0
vn 0 0 1
vn 0 0 -1
vn 0 1 0
vn 0 -1 0
vn 0 0 1
vn 0 0 -1
vn 0 1 0
vn 0 -1 0
vn 0 0 1
vn 0 0 -1
vn 0 1 0
vn 0 -1 0
vn 0 0 1
vn 0 0 -1
vn 0 1 0
vn 0 -1 0
vn 0 0 1
vn 0 0 -1
vn 0 1 0
vn 0 -1 0
vn -0.74 -0.67 0
vn 0.74 0.67 0
vn 0 0 1
vn 0 0 -1
vn -0.74 -0.67 0
vn 0.74 0.67 0
vn 0 0 1
vn 0 0 -1
vn -0.74 -0.67 0
vn 0.74 0.67 0
vn 0 0 1
vn 0 0 -1
vn -0.74 -0.67 0
vn 0.74 0.67 0
vn 0 0 1
vn 0 0 -1
vn -0.74 -0.67 0
vn 0.74 0.67 0
vn 0 0 1
vn 0 0 -1
vn 0.75 -0.66 0
vn -0.75 0.66 0
vn 0 0 1
vn 0 0 -1
vn 0.75 -0.66 0
vn -0.75 0.66 0
vn 0 0 1
vn 0 0 -1
vn 0.75 -0.66 0
vn -0.75 0.66 0
vn 0 0 1
vn 0 0 -1
vn 0.75 -0.66 0
vn -0.75 0.66 0
vn 0 0 1
vn 0 0 -1
vn 0.75 -0.66 0
vn -0.75 0.66 0
vn 0 0 1
vn 0 0 -1
vn 0 0 -1
vn 1 0 0
usemtl wooden_gate
f 332/1085/272 333/1086/272 334/1087/272
f 332/1085/272 334/1087/272 335/1088/272
f 333/1089/273 332/1090/273 339/1091/273
f 333/1089/273 339/1091/273 338/1092/273
f 335/1093/274 334/1094/274 337/1095/274
f 335/1093/274 337/1095/274 336/1096/274
f 334/1097/275 333/1098/275 338/1099/275
f 334/1097/275 338/1099/275 337/1100/275
f 332/1101/276 335/1102/276 336/1103/276
f 332/1101/276 336/1103/276 339/1104/276
f 338/1105/277 339/1106/277 342/1107/277
f 338/1105/277 342/1107/277 341/1108/277
f 337/1109/278 338/1110/278 341/1111/278
f 337/1109/278 341/1111/278 340/1112/278
f 341/1113/279 342/1114/279 347/1115/279
f 341/1113/279 347/1115/279 346/1116/279
f 343/1117/280 340/1118/280 345/1119/280
f 343/1117/280 345/1119/280 344/1120/280
f 340/1121/281 341/1122/281 346/1123/281
f 340/1121/281 346/1123/281 345/1124/281
f 342/1125/282 343/1126/282 344/1127/282
f 342/1125/282 344/1127/282 347/1128/282
f 348/1129/283 349/1130/283 350/1131/283
f 348/1129/283 350/1131/283 351/1132/283
f 346/1133/284 347/1134/284 351/1135/284
f 346/1133/284 351/1135/284 350/1136/284
f 344/1137/285 345/1138/285 349/1139/285
f 344/1137/285 349/1139/285 348/1140/285
f 345/1141/286 346/1142/286 350/1143/286
f 345/1141/286 350/1143/286 349/1144/286
f 347/1145/287 344/1146/287 348/1147/287
f 347/1145/287 348/1147/287 351/1148/287
f 352/1149/288 353/1150/288 354/1151/288
f 352/1149/288 354/1151/288 355/1152/288
f 356/1153/289 357/1154/289 358/1155/289
f 356/1153/289 358/1155/289 359/1156/289
f 353/1157/290 352/1158/290 359/1159/290
f 353/1157/290 359/1159/290 358/1160/290
f 354/1161/291 353/1162/291 358/1163/291
f 354/1161/291 358/1163/291 357/1164/291
f 352/1165/292 355/1166/292 356/1167/292
f 352/1165/292 356/1167/292 359/1168/292
f 360/1169/293 361/1170/293 362/1171/293
f 360/1169/293 362/1171/293 363/1172/293
f 364/1173/294 365/1174/294 366/1175/294
f 364/1173/294 366/1175/294 367/1176/294
f 361/1177/295 360/1178/295 367/1179/295
f 361/1177/295 367/1179/295 366/1180/295
f 363/1181/296 362/1182/296 365/1183/296
f 363/1181/296 365/1183/296 364/1184/296
f 362/1185/297 361/1186/297 366/1187/297
f 362/1185/297 366/1187/297 365/1188/297
f 360/1189/298 363/1190/298 364/1191/298
f 360/1189/298 364/1191/298 367/1192/298
f 368/1193/299 356/1194/299 367/1195/299
f 368/1193/299 367/1195/299 371/1196/299
f 355/1197/300 369/1198/300 370/1199/300
f 355/1197/300 370/1199/300 360/1200/300
f 369/1201/301 368/1202/301 371/1203/301
f 369/1201/301 371/1203/301 370/1204/301
f 356/1205/302 355/1206/302 360/1207/302
f 356/1205/302 360/1207/302 367/1208/302
f 357/1209/303 372/1210/303 375/1211/303
f 357/1209/303 375/1211/303 366/1212/303
f 373/1213/304 354/1214/304 361/1215/304
f 373/1213/304 361/1215/304 374/1216/304
f 354/1217/305 357/1218/305 366/1219/305
f 354/1217/305 366/1219/305 361/1220/305
f 372/1221/306 373/1222/306 374/1223/306
f 372/1221/306 374/1223/306 375/1224/306
f 376/1225/307 377/1226/307 378/1227/307
f 376/1225/307 378/1227/307 379/1228/307
f 380/1229/308 381/1230/308 382/1231/308
f 380/1229/308 382/1231/308 383/1232/308
f 377/1233/309 376/1234/309 383/1235/309
f 377/1233/309 383/1235/309 382/1236/309
f 378/1237/310 377/1238/310 382/1239/310
f 378/1237/310 382/1239/310 381/1240/310
f 376/1241/311 379/1242/311 380/1243/311
f 376/1241/311 380/1243/311 383/1244/311
f 384/1245/312 385/1246/312 386/1247/312
f 384/1245/312 386/1247/312 387/1248/312
f 388/1249/313 389/1250/313 390/1251/313
f 388/1249/313 390/1251/313 391/1252/313
f 385/1253/314 384/1254/314 391/1255/314
f 385/1253/314 391/1255/314 390/1256/314
f 387/1257/315 386/1258/315 389/1259/315
f 387/1257/315 389/1259/315 388/1260/315
f 386/1261/316 385/1262/316 390/1263/316
f 386/1261/316 390/1263/316 389/1264/316
f 384/1265/317 387/1266/317 388/1267/317
f 384/1265/317 388/1267/317 391/1268/317
f 392/1269/318 380/1270/318 391/1271/318
f 392/1269/318 391/1271/318 395/1272/318
f 379/1273/319 393/1274/319 394/1275/319
f 379/1273/319 394/1275/319 384/1276/319
f 393/1277/320 392/1278/320 395/1279/320
f 393/1277/320 395/1279/320 394/1280/320
f 380/1281/321 379/1282/321 384/1283/321
f 380/1281/321 384/1283/321 391/1284/321
f 381/1285/322 396/1286/322 399/1287/322
f 381/1285/322 399/1287/322 390/1288/322
f 397/1289/323 378/1290/323 385/1291/323
f 397/1289/323 385/1291/323 398/1292/323
f 378/1293/324 381/1294/324 390/1295/324
f 378/1293/324 390/1295/324 385/1296/324
f 396/1297/325 397/1298/325 398/1299/325
f 396/1297/325 398/1299/325 399/1300/325
f 400/1301/326 401/1302/326 402/1303/326
f 400/1301/326 402/1303/326 403/1304/326
f 404/1305/327 405/1306/327 406/1307/327
f 404/1305/327 406/1307/327 407/1308/327
f 401/1309/328 400/1310/328 407/1311/328
f 401/1309/328 407/1311/328 406/1312/328
f 402/1313/329 401/1314/329 406/1315/329
f 402/1313/329 406/1315/329 405/1316/329
f 400/1317/330 403/1318/330 404/1319/330
f 400/1317/330 404/1319/330 407/1320/330
f 408/1321/331 409/1322/331 410/1323/331
f 408/1321/331 410/1323/331 411/1324/331
f 412/1325/332 413/1326/332 414/1327/332
f 412/1325/332 414/1327/332 415/1328/332
f 409/1329/333 408/1330/333 415/1331/333
f 409/1329/333 415/1331/333 414/1332/333
f 411/1333/334 410/1334/334 413/1335/334
f 411/1333/334 413/1335/334 412/1336/334
f 410/1337/335 409/1338/335 414/1339/335
f 410/1337/335 414/1339/335 413/1340/335
f 408/1341/336 411/1342/336 412/1343/336
f 408/1341/336 412/1343/336 415/1344/336
f 416/1345/337 404/1346/337 415/1347/337
f 416/1345/337 415/1347/337 418/1348/337
f 403/1349/338 342/1350/338 417/1351/338
f 403/1349/338 417/1351/338 408/1352/338
f 342/1353/339 416/1354/339 418/1355/339
f 342/1353/339 418/1355/339 417/1356/339
f 404/1357/340 403/1358/340 408/1359/340
f 404/1357/340 408/1359/340 415/1360/340
f 405/1361/341 419/1362/341 421/1363/341
f 405/1361/341 421/1363/341 414/1364/341
f 341/1365/342 402/1366/342 409/1367/342
f 341/1365/342 409/1367/342 420/1368/342
f 402/1369/343 405/1370/343 414/1371/343
f 402/1369/343 414/1371/343 409/1372/343
f 419/1373/344 341/1374/344 420/1375/344
f 419/1373/344 420/1375/344 421/1376/344
f 422/1377/345 423/1378/345 424/1379/345
f 422/1377/345 424/1379/345 425/1380/345
f 423/1381/346 422/1382/346 429/1383/346
f 423/1381/346 429/1383/346 428/1384/346
f 425/1385/347 424/1386/347 427/1387/347
f 425/1385/347 427/1387/347 426/1388/347
f 424/1389/348 423/1390/348 428/1391/348
f 424/1389/348 428/1391/348 427/1392/348
f 422/1393/349 425/1394/349 426/1395/349
f 422/1393/349 426/1395/349 429/1396/349
f 428/1397/350 429/1398/350 433/1399/350
f 428/1397/350 433/1399/350 432/1400/350
f 426/1401/351 427/1402/351 431/1403/351
f 426/1401/351 431/1403/351 430/1404/351
f 427/1405/352 428/1406/352 432/1407/352
f 427/1405/352 432/1407/352 431/1408/352
f 429/1409/353 426/1410/353 430/1411/353
f 429/1409/353 430/1411/353 433/1412/353
f 432/1413/354 433/1414/354 437/1415/354
f 432/1413/354 437/1415/354 436/1416/354
f 430/1417/355 431/1418/355 435/1419/355
f 430/1417/355 435/1419/355 434/1420/355
f 431/1421/356 432/1422/356 436/1423/356
f 431/1421/356 436/1423/356 435/1424/356
f 433/1425/357 430/1426/357 434/1427/357
f 433/1425/357 434/1427/357 437/1428/357
f 438/1429/358 439/1430/358 440/1431/358
f 438/1429/358 440/1431/358 441/1432/358
f 436/1433/359 437/1434/359 441/1435/359
f 436/1433/359 441/1435/359 440/1436/359
f 434/1437/360 435/1438/360 439/1439/360
f 434/1437/360 439/1439/360 438/1440/360
f 435/1441/361 436/1442/361 440/1443/361
f 435/1441/361 440/1443/361 439/1444/361
f 437/1445/362 434/1446/362 438/1447/362
f 437/1445/362 438/1447/362 441/1448/362
f 442/1449/363 443/1450/363 444/1451/363
f 442/1449/363 444/1451/363 445/1452/363
f 443/1453/364 442/1454/364 449/1455/364
f 443/1453/364 449/1455/364 448/1456/364
f 445/1457/365 444/1458/365 447/1459/365
f 445/1457/365 447/1459/365 446/1460/365
f 444/1461/366 443/1462/366 448/1463/366
f 444/1461/366 448/1463/366 447/1464/366
f 442/1465/367 445/1466/367 446/1467/367
f 442/1465/367 446/1467/367 449/1468/367
f 448/1469/368 449/1470/368 453/1471/368
f 448/1469/368 453/1471/368 452/1472/368
f 446/1473/369 447/1474/369 451/1475/369
f 446/1473/369 451/1475/369 450/1476/369
f 447/1477/370 448/1478/370 452/1479/370
f 447/1477/370 452/1479/370 451/1480/370
f 449/1481/371 446/1482/371 450/1483/371
f 449/1481/371 450/1483/371 453/1484/371
f 452/1485/372 453/1486/372 457/1487/372
f 452/1485/372 457/1487/372 456/1488/372
f 450/1489/373 451/1490/373 455/1491/373
f 450/1489/373 455/1491/373 454/1492/373
f 451/1493/374 452/1494/374 456/1495/374
f 451/1493/374 456/1495/374 455/1496/374
f 453/1497/375 450/1498/375 454/1499/375
f 453/1497/375 454/1499/375 457/1500/375
f 458/1501/376 459/1502/376 460/1503/376
f 458/1501/376 460/1503/376 461/1504/376
f 456/1505/377 457/1506/377 461/1507/377
f 456/1505/377 461/1507/377 460/1508/377
f 454/1509/378 455/1510/378 459/1511/378
f 454/1509/378 459/1511/378 458/1512/378
f 455/1513/379 456/1514/379 460/1515/379
f 455/1513/379 460/1515/379 459/1516/379
f 457/1517/380 454/1518/380 458/1519/380
f 457/1517/380 458/1519/380 461/1520/380
f 463/1521/381 462/1522/381 469/1523/381
f 463/1521/381 469/1523/381 468/1524/381
f 465/1525/382 464/1526/382 467/1527/382
f 465/1525/382 467/1527/382 466/1528/382
f 464/1529/383 463/1530/383 468/1531/383
f 464/1529/383 468/1531/383 467/1532/383
f 462/1533/384 465/1534/384 466/1535/384
f 462/1533/384 466/1535/384 469/1536/384
f 468/1537/385 469/1538/385 473/1539/385
f 468/1537/385 473/1539/385 472/1540/385
f 466/1541/386 467/1542/386 471/1543/386
f 466/1541/386 471/1543/386 470/1544/386
f 467/1545/387 468/1546/387 472/1547/387
f 467/1545/387 472/1547/387 471/1548/387
f 469/1549/388 466/1550/388 470/1551/388
f 469/1549/388 470/1551/388 473/1552/388
f 472/1553/389 473/1554/389 477/1555/389
f 472/1553/389 477/1555/389 476/1556/389
f 470/1557/390 471/1558/390 475/1559/390
f 470/1557/390 475/1559/390 474/1560/390
f 471/1561/391 472/1562/391 476/1563/391
f 471/1561/391 476/1563/391 475/1564/391
f 473/1565/392 470/1566/392 474/1567/392
f 473/1565/392 474/1567/392 477/1568/392
f 479/1569/393 478/1570/393 485/1571/393
f 479/1569/393 485/1571/393 484/1572/393
f 481/1573/394 480/1574/394 483/1575/394
f 481/1573/394 483/1575/394 482/1576/394
f 480/1577/395 479/1578/395 484/1579/395
f 480/1577/395 484/1579/395 483/1580/395
f 478/1581/396 481/1582/396 482/1583/396
f 478/1581/396 482/1583/396 485/1584/396
f 484/1585/397 485/1586/397 489/1587/397
f 484/1585/397 489/1587/397 488/1588/397
f 482/1589/398 483/1590/398 487/1591/398
f 482/1589/398 487/1591/398 486/1592/398
f 483/1593/399 484/1594/399 488/1595/399
f 483/1593/399 488/1595/399 487/1596/399
f 485/1597/400 482/1598/400 486/1599/400
f 485/1597/400 486/1599/400 489/1600/400
f 488/1601/401 489/1602/401 493/1603/401
f 488/1601/401 493/1603/401 492/1604/401
f 486/1605/402 487/1606/402 491/1607/402
f 486/1605/402 491/1607/402 490/1608/402
f 487/1609/403 488/1610/403 492/1611/403
f 487/1609/403 492/1611/403 491/1612/403
f 489/1613/404 486/1614/404 490/1615/404
f 489/1613/404 490/1615/404 493/1616/404
f 495/1617/405 494/1618/405 501/1619/405
f 495/1617/405 501/1619/405 500/1620/405
f 497/1621/406 496/1622/406 499/1623/406
f 497/1621/406 499/1623/406 498/1624/406
f 496/1625/407 495/1626/407 500/1627/407
f 496/1625/407 500/1627/407 499/1628/407
f 494/1629/408 497/1630/408 498/1631/408
f 494/1629/408 498/1631/408 501/1632/408
f 500/1633/409 501/1634/409 505/1635/409
f 500/1633/409 505/1635/409 504/1636/409
f 498/1637/410 499/1638/410 503/1639/410
f 498/1637/410 503/1639/410 502/1640/410
f 499/1641/411 500/1642/411 504/1643/411
f 499/1641/411 504/1643/411 503/1644/411
f 501/1645/412 498/1646/412 502/1647/412
f 501/1645/412 502/1647/412 505/1648/412
f 504/1649/413 505/1650/413 509/1651/413
f 504/1649/413 509/1651/413 508/1652/413
f 502/1653/414 503/1654/414 507/1655/414
f 502/1653/414 507/1655/414 506/1656/414
f 503/1657/415 504/1658/415 508/1659/415
f 503/1657/415 508/1659/415 507/1660/415
f 505/1661/416 502/1662/416 506/1663/416
f 505/1661/416 506/1663/416 509/1664/416
f 511/1665/417 510/1666/417 517/1667/417
f 511/1665/417 517/1667/417 516/1668/417
f 513/1669/418 512/1670/418 515/1671/418
f 513/1669/418 515/1671/418 514/1672/418
f 512/1673/419 511/1674/419 516/1675/419
f 512/1673/419 516/1675/419 515/1676/419
f 510/1677/420 513/1678/420 514/1679/420
f 510/1677/420 514/1679/420 517/1680/420
f 516/1681/421 517/1682/421 521/1683/421
f 516/1681/421 521/1683/421 520/1684/421
f 514/1685/422 515/1686/422 519/1687/422
f 514/1685/422 519/1687/422 518/1688/422
f 515/1689/423 516/1690/423 520/1691/423
f 515/1689/423 520/1691/423 519/1692/423
f 517/1693/424 514/1694/424 518/1695/424
f 517/1693/424 518/1695/424 521/1696/424
f 520/1697/425 521/1698/425 525/1699/425
f 520/1697/425 525/1699/425 524/1700/425
f 518/1701/426 519/1702/426 523/1703/426
f 518/1701/426 523/1703/426 522/1704/426
f 519/1705/427 520/1706/427 524/1707/427
f 519/1705/427 524/1707/427 523/1708/427
f 521/1709/428 518/1710/428 522/1711/428
f 521/1709/428 522/1711/428 525/1712/428
f 527/1713/429 526/1714/429 533/1715/429
f 527/1713/429 533/1715/429 532/1716/429
f 529/1717/430 528/1718/430 531/1719/430
f 529/1717/430 531/1719/430 530/1720/430
f 528/1721/431 527/1722/431 532/1723/431
f 528/1721/431 532/1723/431 531/1724/431
f 526/1725/432 529/1726/432 530/1727/432
f 526/1725/432 530/1727/432 533/1728/432
f 532/1729/433 533/1730/433 537/1731/433
f 532/1729/433 537/1731/433 536/1732/433
f 530/1733/434 531/1734/434 535/1735/434
f 530/1733/434 535/1735/434 534/1736/434
f 531/1737/435 532/1738/435 536/1739/435
f 531/1737/435 536/1739/435 535/1740/435
f 533/1741/436 530/1742/436 534/1743/436
f 533/1741/436 534/1743/436 537/1744/436
f 536/1745/437 537/1746/437 541/1747/437
f 536/1745/437 541/1747/437 540/1748/437
f 534/1749/438 535/1750/438 539/1751/438
f 534/1749/438 539/1751/438 538/1752/438
f 535/1753/439 536/1754/439 540/1755/439
f 535/1753/439 540/1755/439 539/1756/439
f 537/1757/440 534/1758/440 538/1759/440
f 537/1757/440 538/1759/440 541/1760/440
f 543/1761/441 542/1762/441 549/1763/441
f 543/1761/441 549/1763/441 548/1764/441
f 545/1765/442 544/1766/442 547/1767/442
f 545/1765/442 547/1767/442 546/1768/442
f 544/1769/443 543/1770/443 548/1771/443
f 544/1769/443 548/1771/443 547/1772/443
f 542/1773/444 545/1774/444 546/1775/444
f 542/1773/444 546/1775/444 549/1776/444
f 548/1777/445 549/1778/445 553/1779/445
f 548/1777/445 553/1779/445 552/1780/445
f 546/1781/446 547/1782/446 551/1783/446
f 546/1781/446 551/1783/446 550/1784/446
f 547/1785/447 548/1786/447 552/1787/447
f 547/1785/447 552/1787/447 551/1788/447
f 549/1789/448 546/1790/448 550/1791/448
f 549/1789/448 550/1791/448 553/1792/448
f 552/1793/449 553/1794/449 557/1795/449
f 552/1793/449 557/1795/449 556/1796/449
f 550/1797/450 551/1798/450 555/1799/450
f 550/1797/450 555/1799/450 554/1800/450
f 551/1801/451 552/1802/451 556/1803/451
f 551/1801/451 556/1803/451 555/1804/451
f 553/1805/452 550/1806/452 554/1807/452
f 553/1805/452 554/1807/452 557/1808/452
f 559/1809/453 558/1810/453 565/1811/453
f 559/1809/453 565/1811/453 564/1812/453
f 561/1813/454 560/1814/454 563/1815/454
f 561/1813/454 563/1815/454 562/1816/454
f 560/1817/455 559/1818/455 564/1819/455
f 560/1817/455 564/1819/455 563/1820/455
f 558/1821/456 561/1822/456 562/1823/456
f 558/1821/456 562/1823/456 565/1824/456
f 564/1825/457 565/1826/457 569/1827/457
f 564/1825/457 569/1827/457 568/1828/457
f 562/1829/458 563/1830/458 567/1831/458
f 562/1829/458 567/1831/458 566/1832/458
f 563/1833/459 564/1834/459 568/1835/459
f 563/1833/459 568/1835/459 567/1836/459
f 565/1837/460 562/1838/460 566/1839/460
f 565/1837/460 566/1839/460 569/1840/460
f 568/1841/461 569/1842/461 573/1843/461
f 568/1841/461 573/1843/461 572/1844/461
f 566/1845/462 567/1846/462 571/1847/462
f 566/1845/462 571/1847/462 570/1848/462
f 567/1849/463 568/1850/463 572/1851/463
f 567/1849/463 572/1851/463 571/1852/463
f 569/1853/464 566/1854/464 570/1855/464
f 569/1853/464 570/1855/464 573/1856/464
f 575/1857/465 574/1858/465 581/1859/465
f 575/1857/465 581/1859/465 580/1860/465
f 577/1861/466 576/1862/466 579/1863/466
f 577/1861/466 579/1863/466 578/1864/466
f 576/1865/467 575/1866/467 580/1867/467
f 576/1865/467 580/1867/467 579/1868/467
f 574/1869/468 577/1870/468 578/1871/468
f 574/1869/468 578/1871/468 581/1872/468
f 580/1873/469 581/1874/469 585/1875/469
f 580/1873/469 585/1875/469 584/1876/469
f 578/1877/470 579/1878/470 583/1879/470
f 578/1877/470 583/1879/470 582/1880/470
f 579/1881/471 580/1882/471 584/1883/471
f 579/1881/471 584/1883/471 583/1884/471
f 581/1885/472 578/1886/472 582/1887/472
f 581/1885/472 582/1887/472 585/1888/472
f 584/1889/473 585/1890/473 589/1891/473
f 584/1889/473 589/1891/473 588/1892/473
f 582/1893/474 583/1894/474 587/1895/474
f 582/1893/474 587/1895/474 586/1896/474
f 583/1897/475 584/1898/475 588/1899/475
f 583/1897/475 588/1899/475 587/1900/475
f 585/1901/476 582/1902/476 586/1903/476
f 585/1901/476 586/1903/476 589/1904/476
f 588/1905/477 589/1906/477 593/1907/477
f 588/1905/477 593/1907/477 592/1908/477
f 586/1909/478 587/1910/478 591/1911/478
f 586/1909/478 591/1911/478 590/1912/478
f 587/1913/479 588/1914/479 592/1915/479
f 587/1913/479 592/1915/479 591/1916/479
f 589/1917/480 586/1918/480 590/1919/480
f 589/1917/480 590/1919/480 593/1920/480
f 592/1921/481 593/1922/481 597/1923/481
f 592/1921/481 597/1923/481 596/1924/481
f 590/1925/482 591/1926/482 595/1927/482
f 590/1925/482 595/1927/482 594/1928/482
f 591/1929/483 592/1930/483 596/1931/483
f 591/1929/483 596/1931/483 595/1932/483
f 593/1933/484 590/1934/484 594/1935/484
f 593/1933/484 594/1935/484 597/1936/484
f 599/1937/485 598/1938/485 605/1939/485
f 599/1937/485 605/1939/485 604/1940/485
f 601/1941/486 600/1942/486 603/1943/486
f 601/1941/486 603/1943/486 602/1944/486
f 600/1945/487 599/1946/487 604/1947/487
f 600/1945/487 604/1947/487 603/1948/487
f 598/1949/488 601/1950/488 602/1951/488
f 598/1949/488 602/1951/488 605/1952/488
f 604/1953/489 605/1954/489 609/1955/489
f 604/1953/489 609/1955/489 608/1956/489
f 602/1957/490 603/1958/490 607/1959/490
f 602/1957/490 607/1959/490 606/1960/490
f 603/1961/491 604/1962/491 608/1963/491
f 603/1961/491 608/1963/491 607/1964/491
f 605/1965/492 602/1966/492 606/1967/492
f 605/1965/492 606/1967/492 609/1968/492
f 608/1969/493 609/1970/493 613/1971/493
f 608/1969/493 613/1971/493 612/1972/493
f 606/1973/494 607/1974/494 611/1975/494
f 606/1973/494 611/1975/494 610/1976/494
f 607/1977/495 608/1978/495 612/1979/495
f 607/1977/495 612/1979/495 611/1980/495
f 609/1981/496 606/1982/496 610/1983/496
f 609/1981/496 610/1983/496 613/1984/496
f 612/1985/497 613/1986/497 617/1987/497
f 612/1985/497 617/1987/497 616/1988/497
f 610/1989/498 611/1990/498 615/1991/498
f 610/1989/498 615/1991/498 614/1992/498
f 611/1993/499 612/1994/499 616/1995/499
f 611/1993/499 616/1995/499 615/1996/499
f 613/1997/500 610/1998/500 614/1999/500
f 613/1997/500 614/1999/500 617/2000/500
f 616/2001/501 617/2002/501 620/2003/501
f 616/2001/501 620/2003/501 619/2004/501
f 614/2005/502 615/2006/502 331/2007/502
f 614/2005/502 331/2007/502 618/2008/502
f 615/2009/503 616/2010/503 619/2011/503
f 615/2009/503 619/2011/503 331/2012/503
f 617/2013/504 614/2014/504 618/2015/504
f 617/2013/504 618/2015/504 620/2016/504
f 339/2017/505 336/2018/505 343/2019/505
f 339/2017/505 343/2019/505 342/2020/505
f 336/2021/506 337/2022/506 340/2023/506
f 336/2021/506 340/2023/506 343/2024/506