# Made by Pabilo8 with Blockbench
# Exported with IIToolkit Plugin on 05/07/2026
mtllib fence_gate.mtl

o redstone_main
v 0.4422 2.5938 0.2813
v 0.5578 2.5938 0.2813
v 0.4422 1.9063 0.2813
v 0.5578 1.9063 0.2813
v 0.4422 2.5938 0.1563
v 0.5578 2.5938 0.1563
v 0.4422 1.9063 0.1563
v 0.5578 1.9063 0.1563
v 0.4422 2.5938 0.3438
v 0.5578 2.5938 0.3438
v 0.4422 2.7188 0.3438
v 0.5578 2.7188 0.3438
v 0.4422 2.7188 0.2813
v 0.5578 2.7188 0.2813
v 0.375 1.9688 0.4063
v 0.625 1.9688 0.4063
v 0.375 1.4063 0.4063
v 0.625 1.4063 0.4063
v 0.375 1.9688 0.2813
v 0.625 1.9688 0.2813
v 0.375 1.4063 0.2813
v 0.625 1.4063 0.2813
v 0.4422 2.6875 0.1563
v 0.5578 2.6875 0.1563
v 0.3438 2.9688 0.6563
v 0.6563 2.9688 0.6563
v 0.3438 2.5938 0.6563
v 0.6563 2.5938 0.6563
v 0.3438 2.9688 0.3438
v 0.6563 2.9688 0.3437
v 0.3438 2.5938 0.3438
v 0.6563 2.5938 0.3437
v 7.6563 2.9688 0.6562
v 7.3438 2.9688 0.6562
v 7.6563 2.5938 0.6562
v 7.3438 2.5938 0.6562
v 7.6563 2.9688 0.3437
v 7.3438 2.9688 0.3437
v 7.6563 2.5938 0.3437
v 7.3438 2.5938 0.3437
v 0.3125 1.9063 0.2813
v 0.6875 1.9063 0.2812
v 0.3125 1.5313 0.2813
v 0.6875 1.5313 0.2812
v 0.3125 1.9063 0.1563
v 0.6875 1.9063 0.1562
v 0.3125 1.5313 0.1563
v 0.6875 1.5313 0.1562
v 0.375 1.8438 0.1563
v 0.625 1.8438 0.1562
v 0.375 1.5938 0.1563
v 0.625 1.5938 0.1562
v 0.375 1.8438 0.0938
v 0.625 1.8438 0.0937
v 0.375 1.5938 0.0938
v 0.625 1.5938 0.0937
v 0.3125 1.9063 0.0938
v 0.6875 1.9063 0.0937
v 0.3125 1.5313 0.0938
v 0.6875 1.5313 0.0937
v 0.3125 1.9063 -0.0312
v 0.6875 1.9063 -0.0313
v 0.3125 1.5313 -0.0312
v 0.6875 1.5313 -0.0313
v 0.375 1.8438 -0.0312
v 0.625 1.8438 -0.0313
v 0.375 1.5938 -0.0312
v 0.625 1.5938 -0.0313
v 0.375 1.8438 -0.2812
v 0.625 1.8438 -0.2812
v 0.375 1.5938 -0.2812
v 0.625 1.5938 -0.2812
vt 0.6875 0.3125
vt 0.6875 1
vt 0.5625 1
vt 0.5625 0.3125
vt 0.6875 0.3125
vt 0.6875 1
vt 0.5625 1
vt 0.5625 0.3125
vt 1 0
vt 1 0.125
vt 0.875 0.125
vt 0.875 0
vt 1 0
vt 1 0.125
vt 0.875 0.125
vt 0.875 0
vt 0.5625 0.3125
vt 0.5625 1
vt 0.6875 1
vt 0.6875 0.3125
vt 0.5625 0.3125
vt 0.5625 1
vt 0.6875 1
vt 0.6875 0.3125
vt 0.6875 0.125
vt 0.6875 0.1875
vt 0.5625 0.1875
vt 0.5625 0.125
vt 0.6875 0.125
vt 0.6875 0.1875
vt 0.5625 0.1875
vt 0.5625 0.125
vt 1 0
vt 1 0.125
vt 0.875 0.125
vt 0.875 0
vt 1 0
vt 1 0.125
vt 0.875 0.125
vt 0.875 0
vt 0.5625 0.125
vt 0.5625 0.1875
vt 0.6875 0.1875
vt 0.6875 0.125
vt 0.5625 0.1875
vt 0.5625 0.125
vt 0.6875 0.125
vt 0.6875 0.1875
vt 0.6875 0.125
vt 0.6875 0.6875
vt 0.9375 0.6875
vt 0.9375 0.125
vt 0.9375 0.125
vt 0.9375 0.6875
vt 0.6875 0.6875
vt 0.6875 0.125
vt 0.5 0.625
vt 0.5 0.375
vt 0.625 0.375
vt 0.625 0.625
vt 0.5 0.375
vt 0.5 0.125
vt 0.625 0.125
vt 0.625 0.375
vt 0.875 0.125
vt 0.875 0.6875
vt 1 0.6875
vt 1 0.125
vt 0.625 0.125
vt 0.625 0.6875
vt 0.75 0.6875
vt 0.75 0.125
vt 1 0
vt 1 0.125
vt 0.875 0.125
vt 0.875 0
vt 0.6875 0
vt 0.6875 0.125
vt 0.5625 0.125
vt 0.5625 0
vt 0.6875 0.125
vt 0.5625 0.125
vt 0.5625 0
vt 0.6875 0
vt 0.875 0.125
vt 0.875 0
vt 1 0
vt 1 0.125
vt 1 0.5
vt 1 0.625
vt 0.875 0.625
vt 0.875 0.5
vt 0.75 0
vt 0.75 0.125
vt 0.875 0.125
vt 0.875 0
vt 0.3125 0.625
vt 0.3125 1
vt 0.625 1
vt 0.625 0.625
vt 0.625 0.625
vt 0.625 1
vt 0.3125 1
vt 0.3125 0.625
vt 1 0.6875
vt 1 1
vt 0.6875 1
vt 0.6875 0.6875
vt 1 0.6875
vt 1 1
vt 0.6875 1
vt 0.6875 0.6875
vt 0 0.25
vt 0 0.625
vt 0.3125 0.625
vt 0.3125 0.25
vt 0 0.625
vt 0 1
vt 0.3125 1
vt 0.3125 0.625
vt 0.625 1
vt 0.3125 1
vt 0.3125 0.625
vt 0.625 0.625
vt 0.3125 1
vt 0.625 1
vt 0.625 0.625
vt 0.3125 0.625
vt 0.6875 1
vt 1 1
vt 1 0.6875
vt 0.6875 0.6875
vt 0.6875 1
vt 1 1
vt 1 0.6875
vt 0.6875 0.6875
vt 0.3125 0.625
vt 0 0.625
vt 0 0.25
vt 0.3125 0.25
vt 0.3125 1
vt 0 1
vt 0 0.625
vt 0.3125 0.625
vt 0.6875 0
vt 0.6875 0.375
vt 0.3125 0.375
vt 0.3125 0
vt 0.6875 0
vt 0.6875 0.375
vt 0.3125 0.375
vt 0.3125 0
vt 0.75 0
vt 0.75 0.375
vt 0.625 0.375
vt 0.625 0
vt 0.25 0
vt 0.25 0.375
vt 0.375 0.375
vt 0.375 0
vt 0.25 0
vt 0.25 0.375
vt 0.375 0.375
vt 0.375 0
vt 0.625 0
vt 0.625 0.375
vt 0.75 0.375
vt 0.75 0
vt 0.125 0.5625
vt 0.375 0.5625
vt 0.375 0.5
vt 0.125 0.5
vt 0.125 0.5625
vt 0.375 0.5625
vt 0.375 0.5
vt 0.125 0.5
vt 0.375 0.5625
vt 0.125 0.5625
vt 0.125 0.5
vt 0.375 0.5
vt 0.125 0.5625
vt 0.375 0.5625
vt 0.375 0.5
vt 0.125 0.5
vt 0.6875 0
vt 0.6875 0.375
vt 0.3125 0.375
vt 0.3125 0
vt 0.6875 0
vt 0.6875 0.375
vt 0.3125 0.375
vt 0.3125 0
vt 0.75 0
vt 0.75 0.375
vt 0.625 0.375
vt 0.625 0
vt 0.25 0
vt 0.25 0.375
vt 0.375 0.375
vt 0.375 0
vt 0.25 0
vt 0.25 0.375
vt 0.375 0.375
vt 0.375 0
vt 0.625 0
vt 0.625 0.375
vt 0.75 0.375
vt 0.75 0
vt 0.625 0.6875
vt 0.625 0.9375
vt 0.375 0.9375
vt 0.375 0.6875
vt 0.625 0.6875
vt 0.625 0.9375
vt 0.375 0.9375
vt 0.375 0.6875
vt 0.625 0.6875
vt 0.625 0.9375
vt 0.375 0.9375
vt 0.375 0.6875
vt 0.625 0.6875
vt 0.625 0.9375
vt 0.375 0.9375
vt 0.375 0.6875
vt 0.625 0.6875
vt 0.625 0.9375
vt 0.375 0.9375
vt 0.375 0.6875
vt 0.625 0.6875
vt 0.625 0.9375
vt 0.375 0.9375
vt 0.375 0.6875
vn 0 0 1
vn 0 0 -1
vn 0 1 0
vn 0 -1 0
vn -1 0 0
vn 1 0 0
vn 0 -1 0
vn 0 1 0
vn 0 0 1
vn 0 0 -1
vn -1 0 0
vn 1 0 0
vn 0 0 1
vn 0 0 -1
vn 0 1 0
vn 0 -1 0
vn -1 0 0
vn 1 0 0
vn 0 0 1
vn 0 0 -1
vn 0 0.97 -0.24
vn 0 -1 0
vn -1 0 0
vn 1 0 0
vn 0 0 1
vn 0 0 -1
vn 0 1 0
vn 0 -1 0
vn -1 0 0
vn 1 0 0
vn 0 0 1
vn 0 0 -1
vn 0 1 0
vn 0 -1 0
vn 1 0 0
vn -1 0 0
vn 0 0 1
vn 0 0 -1
vn 0 1 0
vn 0 -1 0
vn -1 0 0
vn 1 0 0
vn 0 1 0
vn 0 -1 0
vn -1 0 0
vn 1 0 0
vn 0 0 1
vn 0 0 -1
vn 0 1 0
vn 0 -1 0
vn -1 0 0
vn 1 0 0
vn 0 0 1
vn 0 0 -1
vn 0 1 0
vn 0 -1 0
vn -1 0 0
vn 1 0 0
usemtl common_copper_cable
f 4/1/1 2/2/1 1/3/1
f 4/1/1 1/3/1 3/4/1
f 7/5/2 5/6/2 6/7/2
f 7/5/2 6/7/2 8/8/2
f 1/9/3 2/10/3 6/11/3
f 1/9/3 6/11/3 5/12/3
f 4/13/4 3/14/4 7/15/4
f 4/13/4 7/15/4 8/16/4
f 3/17/5 1/18/5 5/19/5
f 3/17/5 5/19/5 7/20/5
f 8/21/6 6/22/6 2/23/6
f 8/21/6 2/23/6 4/24/6
f 2/25/7 10/26/7 9/27/7
f 2/25/7 9/27/7 1/28/7
f 13/29/8 11/30/8 12/31/8
f 13/29/8 12/31/8 14/32/8
f 9/33/9 10/34/9 12/35/9
f 9/33/9 12/35/9 11/36/9
f 2/37/10 1/38/10 13/39/10
f 2/37/10 13/39/10 14/40/10
f 1/41/11 9/42/11 11/43/11
f 1/41/11 11/43/11 13/44/11
f 14/45/12 12/46/12 10/47/12
f 14/45/12 10/47/12 2/48/12
usemtl gate_misc
f 18/49/13 16/50/13 15/51/13
f 18/49/13 15/51/13 17/52/13
f 21/53/14 19/54/14 20/55/14
f 21/53/14 20/55/14 22/56/14
f 15/57/15 16/58/15 20/59/15
f 15/57/15 20/59/15 19/60/15
f 18/61/16 17/62/16 21/63/16
f 18/61/16 21/63/16 22/64/16
f 17/65/17 15/66/17 19/67/17
f 17/65/17 19/67/17 21/68/17
f 22/69/18 20/70/18 16/71/18
f 22/69/18 16/71/18 18/72/18
usemtl common_copper_cable
f 2/73/19 14/74/19 13/75/19
f 2/73/19 13/75/19 1/76/19
f 5/77/20 23/78/20 24/79/20
f 5/77/20 24/79/20 6/80/20
f 13/81/21 14/82/21 24/83/21
f 13/81/21 24/83/21 23/84/21
f 2/85/22 1/86/22 5/87/22
f 2/85/22 5/87/22 6/88/22
f 1/89/23 13/90/23 23/91/23
f 1/89/23 23/91/23 5/92/23
f 6/93/24 24/94/24 14/95/24
f 6/93/24 14/95/24 2/96/24
usemtl gate_misc
f 28/97/25 26/98/25 25/99/25
f 28/97/25 25/99/25 27/100/25
f 31/101/26 29/102/26 30/103/26
f 31/101/26 30/103/26 32/104/26
f 25/105/27 26/106/27 30/107/27
f 25/105/27 30/107/27 29/108/27
f 28/109/28 27/110/28 31/111/28
f 28/109/28 31/111/28 32/112/28
f 27/113/29 25/114/29 29/115/29
f 27/113/29 29/115/29 31/116/29
f 32/117/30 30/118/30 26/119/30
f 32/117/30 26/119/30 28/120/30
f 33/121/31 34/122/31 36/123/31
f 33/121/31 36/123/31 35/124/31
f 38/125/32 37/126/32 39/127/32
f 38/125/32 39/127/32 40/128/32
f 38/129/33 34/130/33 33/131/33
f 38/129/33 33/131/33 37/132/33
f 39/133/34 35/134/34 36/135/34
f 39/133/34 36/135/34 40/136/34
f 37/137/35 33/138/35 35/139/35
f 37/137/35 35/139/35 39/140/35
f 34/141/36 38/142/36 40/143/36
f 34/141/36 40/143/36 36/144/36
usemtl connector_connector_redstone
f 44/145/37 42/146/37 41/147/37
f 44/145/37 41/147/37 43/148/37
f 47/149/38 45/150/38 46/151/38
f 47/149/38 46/151/38 48/152/38
f 41/153/39 42/154/39 46/155/39
f 41/153/39 46/155/39 45/156/39
f 44/157/40 43/158/40 47/159/40
f 44/157/40 47/159/40 48/160/40
f 43/161/41 41/162/41 45/163/41
f 43/161/41 45/163/41 47/164/41
f 48/165/42 46/166/42 42/167/42
f 48/165/42 42/167/42 44/168/42
f 49/169/43 50/170/43 54/171/43
f 49/169/43 54/171/43 53/172/43
f 52/173/44 51/174/44 55/175/44
f 52/173/44 55/175/44 56/176/44
f 51/177/45 49/178/45 53/179/45
f 51/177/45 53/179/45 55/180/45
f 56/181/46 54/182/46 50/183/46
f 56/181/46 50/183/46 52/184/46
f 60/185/47 58/186/47 57/187/47
f 60/185/47 57/187/47 59/188/47
f 63/189/48 61/190/48 62/191/48
f 63/189/48 62/191/48 64/192/48
f 57/193/49 58/194/49 62/195/49
f 57/193/49 62/195/49 61/196/49
f 60/197/50 59/198/50 63/199/50
f 60/197/50 63/199/50 64/200/50
f 59/201/51 57/202/51 61/203/51
f 59/201/51 61/203/51 63/204/51
f 64/205/52 62/206/52 58/207/52
f 64/205/52 58/207/52 60/208/52
f 68/209/53 66/210/53 65/211/53
f 68/209/53 65/211/53 67/212/53
f 71/213/54 69/214/54 70/215/54
f 71/213/54 70/215/54 72/216/54
f 65/217/55 66/218/55 70/219/55
f 65/217/55 70/219/55 69/220/55
f 68/221/56 67/222/56 71/223/56
f 68/221/56 71/223/56 72/224/56
f 67/225/57 65/226/57 69/227/57
f 67/225/57 69/227/57 71/228/57
f 72/229/58 70/230/58 66/231/58
f 72/229/58 66/231/58 68/232/58
o redstone_right
v 0.6875 2.9375 0.4375
v 1.6875 2.9375 0.4375
v 0.6875 2.8125 0.4375
v 1.6875 2.8125 0.4375
v 0.6875 2.9375 0.3125
v 1.6875 2.9375 0.3125
v 0.6875 2.8125 0.3125
v 1.6875 2.8125 0.3125
v 2.6875 2.9375 0.4375
v 2.6875 2.8125 0.4375
v 2.6875 2.9375 0.3125
v 2.6875 2.8125 0.3125
v 3.6875 2.9375 0.4375
v 3.6875 2.8125 0.4375
v 3.6875 2.9375 0.3125
v 3.6875 2.8125 0.3125
v 4 2.9375 0.4375
v 4 2.8125 0.4375
v 4 2.9375 0.3125
v 4 2.8125 0.3125
v 0.6609 2.9688 0.4062
v 0.8391 2.9688 0.4062
v 0.6609 2.5938 0.4062
v 0.8391 2.5938 0.4062
v 0.6609 2.9688 0.2812
v 0.8391 2.9688 0.2812
v 0.6609 2.5938 0.2812
v 0.8391 2.5938 0.2812
v 0.6849 2.745 0.4375
v 1.6839 2.7887 0.4375
v 0.6903 2.6202 0.4375
v 1.6894 2.6638 0.4375
v 0.6849 2.745 0.3078
v 1.6839 2.7887 0.3078
v 0.6903 2.6202 0.3078
v 1.6894 2.6638 0.3078
v 2.683 2.8323 0.4375
v 2.6884 2.7074 0.4375
v 2.683 2.8323 0.3078
v 2.6884 2.7074 0.3078
v 3.682 2.8759 0.4375
v 3.6875 2.751 0.4375
v 3.682 2.8759 0.3078
v 3.6875 2.751 0.3078
v 3.9942 2.8895 0.4375
v 3.9997 2.7646 0.4375
v 3.9942 2.8895 0.3078
v 3.9997 2.7646 0.3078
v 0.5359 2.875 0.5984
v 0.6672 2.875 0.5984
v 0.5359 2.75 0.5984
v 0.6672 2.75 0.5984
v 0.5359 2.875 0.3391
v 0.6672 2.875 0.3391
v 0.5359 2.75 0.3391
v 0.6672 2.75 0.3391
vt 1 0.125
vt 1 0
vt 0 0
vt 0 0.125
vt 1 0
vt 1 0.125
vt 0 0.125
vt 0 0
vt 1 0
vt 0 0
vt 0 0.125
vt 1 0.125
vt 1 0.125
vt 0 0.125
vt 0 0
vt 1 0
vt 0.125 0.125
vt 0.125 0.25
vt 0 0.25
vt 0 0.125
vt 1 0.125
vt 1 0
vt 0 0
vt 0 0.125
vt 1 0
vt 1 0.125
vt 0 0.125
vt 0 0
vt 1 0
vt 0 0
vt 0 0.125
vt 1 0.125
vt 1 0.125
vt 0 0.125
vt 0 0
vt 1 0
vt 1 0.125
vt 1 0
vt 0 0
vt 0 0.125
vt 1 0
vt 1 0.125
vt 0 0.125
vt 0 0
vt 1 0
vt 0 0
vt 0 0.125
vt 1 0.125
vt 1 0.125
vt 0 0.125
vt 0 0
vt 1 0
vt 0 0.125
vt 0.3125 0.125
vt 0.3125 0
vt 0 0
vt 1 0.125
vt 0.6875 0.125
vt 0.6875 0
vt 1 0
vt 1 0
vt 0.6875 0
vt 0.6875 0.125
vt 1 0.125
vt 0 0
vt 0.3125 0
vt 0.3125 0.125
vt 0 0.125
vt 0.125 0.125
vt 0.125 0.25
vt 0 0.25
vt 0 0.125
vt 0.125 0.25
vt 0 0.25
vt 0 0.125
vt 0.125 0.125
vt 0.5 0.25
vt 0.5 0.625
vt 0.3125 0.625
vt 0.3125 0.25
vt 0.5 0.25
vt 0.5 0.625
vt 0.3125 0.625
vt 0.3125 0.25
vt 0.75 0.4375
vt 0.75 0.625
vt 0.625 0.625
vt 0.625 0.4375
vt 0.75 0.4375
vt 0.75 0.625
vt 0.625 0.625
vt 0.625 0.4375
vt 0.4375 0.25
vt 0.4375 0.625
vt 0.3125 0.625
vt 0.3125 0.25
vt 0.5 0.25
vt 0.5 0.625
vt 0.375 0.625
vt 0.375 0.25
vt 1 0.125
vt 1 0
vt 0 0
vt 0 0.125
vt 1 0
vt 1 0.125
vt 0 0.125
vt 0 0
vt 1 0
vt 0 0
vt 0 0.125
vt 1 0.125
vt 1 0.125
vt 0 0.125
vt 0 0
vt 1 0
vt 0.125 0.125
vt 0.125 0.25
vt 0 0.25
vt 0 0.125
vt 1 0.125
vt 1 0
vt 0 0
vt 0 0.125
vt 1 0
vt 1 0.125
vt 0 0.125
vt 0 0
vt 1 0
vt 0 0
vt 0 0.125
vt 1 0.125
vt 1 0.125
vt 0 0.125
vt 0 0
vt 1 0
vt 1 0.125
vt 1 0
vt 0 0
vt 0 0.125
vt 1 0
vt 1 0.125
vt 0 0.125
vt 0 0
vt 1 0
vt 0 0
vt 0 0.125
vt 1 0.125
vt 1 0.125
vt 0 0.125
vt 0 0
vt 1 0
vt 0 0.125
vt 0.3125 0.125
vt 0.3125 0
vt 0 0
vt 1 0.125
vt 0.6875 0.125
vt 0.6875 0
vt 1 0
vt 1 0
vt 0.6875 0
vt 0.6875 0.125
vt 1 0.125
vt 0 0
vt 0.3125 0
vt 0.3125 0.125
vt 0 0.125
vt 0.125 0.125
vt 0.125 0.25
vt 0 0.25
vt 0 0.125
vt 0.125 0.25
vt 0 0.25
vt 0 0.125
vt 0.125 0.125
vt 0.375 0.125
vt 0.375 0.25
vt 0.5 0.25
vt 0.5 0.125
vt 0.5 0.125
vt 0.5 0.25
vt 0.375 0.25
vt 0.375 0.125
vt 0.375 0.125
vt 0.375 0.25
vt 0.125 0.25
vt 0.125 0.125
vt 0.375 0.125
vt 0.375 0.25
vt 0.125 0.25
vt 0.125 0.125
vt 0.125 0.25
vt 0.125 0.125
vt 0.375 0.125
vt 0.375 0.25
vt 0.375 0.125
vt 0.375 0.25
vt 0.125 0.25
vt 0.125 0.125
vn 0 0 1
vn 0 0 -1
vn 0 1 0
vn 0 -1 0
vn -1 0 0
vn 0 0 1
vn 0 0 -1
vn 0 1 0
vn 0 -1 0
vn 0 0 1
vn 0 0 -1
vn 0 1 0
vn 0 -1 0
vn 0 0 1
vn 0 0 -1
vn 0 1 0
vn 0 -1 0
vn -1 0 0
vn 1 0 0
vn 0 0 1
vn 0 0 -1
vn 0 1 0
vn 0 -1 0
vn -1 0 0
vn 1 0 0
vn 0 0 1
vn 0 0 -1
vn -0.04 1 0
vn 0.04 -1 0
vn -1 -0.04 0
vn 0 0 1
vn 0 0 -1
vn -0.04 1 0
vn 0.04 -1 0
vn 0 0 1
vn 0 0 -1
vn -0.04 1 0
vn 0.04 -1 0
vn 0 0 1
vn 0 0 -1
vn -0.04 1 0
vn 0.04 -1 0
vn -1 -0.04 0
vn 1 0.04 0
vn 0 0 1
vn 0 0 -1
vn 0 1 0
vn 0 -1 0
vn -1 0 0
vn 1 0 0
usemtl gate_misc
f 76/233/59 74/234/59 73/235/59
f 76/233/59 73/235/59 75/236/59
f 79/237/60 77/238/60 78/239/60
f 79/237/60 78/239/60 80/240/60
f 73/241/61 74/242/61 78/243/61
f 73/241/61 78/243/61 77/244/61
f 76/245/62 75/246/62 79/247/62
f 76/245/62 79/247/62 80/248/62
f 75/249/63 73/250/63 77/251/63
f 75/249/63 77/251/63 79/252/63
f 82/253/64 81/254/64 74/255/64
f 82/253/64 74/255/64 76/256/64
f 80/257/65 78/258/65 83/259/65
f 80/257/65 83/259/65 84/260/65
f 74/261/66 81/262/66 83/263/66
f 74/261/66 83/263/66 78/264/66
f 82/265/67 76/266/67 80/267/67
f 82/265/67 80/267/67 84/268/67
f 86/269/68 85/270/68 81/271/68
f 86/269/68 81/271/68 82/272/68
f 84/273/69 83/274/69 87/275/69
f 84/273/69 87/275/69 88/276/69
f 81/277/70 85/278/70 87/279/70
f 81/277/70 87/279/70 83/280/70
f 86/281/71 82/282/71 84/283/71
f 86/281/71 84/283/71 88/284/71
f 86/285/72 90/286/72 89/287/72
f 86/285/72 89/287/72 85/288/72
f 87/289/73 91/290/73 92/291/73
f 87/289/73 92/291/73 88/292/73
f 85/293/74 89/294/74 91/295/74
f 85/293/74 91/295/74 87/296/74
f 88/297/75 92/298/75 90/299/75
f 88/297/75 90/299/75 86/300/75
f 86/301/76 85/302/76 87/303/76
f 86/301/76 87/303/76 88/304/76
f 92/305/77 91/306/77 89/307/77
f 92/305/77 89/307/77 90/308/77
f 96/309/78 94/310/78 93/311/78
f 96/309/78 93/311/78 95/312/78
f 99/313/79 97/314/79 98/315/79
f 99/313/79 98/315/79 100/316/79
f 93/317/80 94/318/80 98/319/80
f 93/317/80 98/319/80 97/320/80
f 96/321/81 95/322/81 99/323/81
f 96/321/81 99/323/81 100/324/81
f 95/325/82 93/326/82 97/327/82
f 95/325/82 97/327/82 99/328/82
f 100/329/83 98/330/83 94/331/83
f 100/329/83 94/331/83 96/332/83
f 104/333/84 102/334/84 101/335/84
f 104/333/84 101/335/84 103/336/84
f 107/337/85 105/338/85 106/339/85
f 107/337/85 106/339/85 108/340/85
f 101/341/86 102/342/86 106/343/86
f 101/341/86 106/343/86 105/344/86
f 104/345/87 103/346/87 107/347/87
f 104/345/87 107/347/87 108/348/87
f 103/349/88 101/350/88 105/351/88
f 103/349/88 105/351/88 107/352/88
f 110/353/89 109/354/89 102/355/89
f 110/353/89 102/355/89 104/356/89
f 108/357/90 106/358/90 111/359/90
f 108/357/90 111/359/90 112/360/90
f 102/361/91 109/362/91 111/363/91
f 102/361/91 111/363/91 106/364/91
f 110/365/92 104/366/92 108/367/92
f 110/365/92 108/367/92 112/368/92
f 114/369/93 113/370/93 109/371/93
f 114/369/93 109/371/93 110/372/93
f 112/373/94 111/374/94 115/375/94
f 112/373/94 115/375/94 116/376/94
f 109/377/95 113/378/95 115/379/95
f 109/377/95 115/379/95 111/380/95
f 114/381/96 110/382/96 112/383/96
f 114/381/96 112/383/96 116/384/96
f 114/385/97 118/386/97 117/387/97
f 114/385/97 117/387/97 113/388/97
f 115/389/98 119/390/98 120/391/98
f 115/389/98 120/391/98 116/392/98
f 113/393/99 117/394/99 119/395/99
f 113/393/99 119/395/99 115/396/99
f 116/397/100 120/398/100 118/399/100
f 116/397/100 118/399/100 114/400/100
f 114/401/101 113/402/101 115/403/101
f 114/401/101 115/403/101 116/404/101
f 120/405/102 119/406/102 117/407/102
f 120/405/102 117/407/102 118/408/102
f 124/409/103 122/410/103 121/411/103
f 124/409/103 121/411/103 123/412/103
f 127/413/104 125/414/104 126/415/104
f 127/413/104 126/415/104 128/416/104
f 121/417/105 122/418/105 126/419/105
f 121/417/105 126/419/105 125/420/105
f 124/421/106 123/422/106 127/423/106
f 124/421/106 127/423/106 128/424/106
f 123/425/107 121/426/107 125/427/107
f 123/425/107 125/427/107 127/428/107
f 128/429/108 126/430/108 122/431/108
f 128/429/108 122/431/108 124/432/108
o redstone_left
v 7.3125 2.9375 0.4375
v 6.3125 2.9375 0.4375
v 7.3125 2.8125 0.4375
v 6.3125 2.8125 0.4375
v 7.3125 2.9375 0.3125
v 6.3125 2.9375 0.3125
v 7.3125 2.8125 0.3125
v 6.3125 2.8125 0.3125
v 5.3125 2.9375 0.4375
v 5.3125 2.8125 0.4375
v 5.3125 2.9375 0.3125
v 5.3125 2.8125 0.3125
v 4.3125 2.9375 0.4375
v 4.3125 2.8125 0.4375
v 4.3125 2.9375 0.3125
v 4.3125 2.8125 0.3125
v 4 2.9375 0.4375
v 4 2.8125 0.4375
v 4 2.9375 0.3125
v 4 2.8125 0.3125
v 7.3391 2.9688 0.4062
v 7.1609 2.9688 0.4062
v 7.3391 2.5938 0.4062
v 7.1609 2.5938 0.4062
v 7.3391 2.9688 0.2812
v 7.1609 2.9688 0.2812
v 7.3391 2.5938 0.2812
v 7.1609 2.5938 0.2812
v 7.3151 2.745 0.4375
v 6.3161 2.7887 0.4375
v 7.3097 2.6202 0.4375
v 6.3106 2.6638 0.4375
v 7.3151 2.745 0.3078
v 6.3161 2.7887 0.3078
v 7.3097 2.6202 0.3078
v 6.3106 2.6638 0.3078
v 5.317 2.8323 0.4375
v 5.3116 2.7074 0.4375
v 5.317 2.8323 0.3078
v 5.3116 2.7074 0.3078
v 4.318 2.8759 0.4375
v 4.3125 2.751 0.4375
v 4.318 2.8759 0.3078
v 4.3125 2.751 0.3078
v 4.0058 2.8895 0.4375
v 4.0003 2.7646 0.4375
v 4.0058 2.8895 0.3078
v 4.0003 2.7646 0.3078
v 7.4641 2.875 0.5984
v 7.3328 2.875 0.5984
v 7.4641 2.75 0.5984
v 7.3328 2.75 0.5984
v 7.4641 2.875 0.3391
v 7.3328 2.875 0.3391
v 7.4641 2.75 0.3391
v 7.3328 2.75 0.3391
vt 0 0
vt 1 0
vt 1 0.125
vt 0 0.125
vt 0 0.125
vt 1 0.125
vt 1 0
vt 0 0
vt 0 0.125
vt 0 0
vt 1 0
vt 1 0.125
vt 0 0
vt 0 0.125
vt 1 0.125
vt 1 0
vt 0 0.25
vt 0.125 0.25
vt 0.125 0.125
vt 0 0.125
vt 0 0
vt 1 0
vt 1 0.125
vt 0 0.125
vt 0 0.125
vt 1 0.125
vt 1 0
vt 0 0
vt 0 0.125
vt 0 0
vt 1 0
vt 1 0.125
vt 0 0
vt 0 0.125
vt 1 0.125
vt 1 0
vt 0 0
vt 1 0
vt 1 0.125
vt 0 0.125
vt 0 0.125
vt 1 0.125
vt 1 0
vt 0 0
vt 0 0.125
vt 0 0
vt 1 0
vt 1 0.125
vt 0 0
vt 0 0.125
vt 1 0.125
vt 1 0
vt 0.3125 0
vt 0.3125 0.125
vt 0 0.125
vt 0 0
vt 0.6875 0
vt 0.6875 0.125
vt 1 0.125
vt 1 0
vt 0.6875 0.125
vt 0.6875 0
vt 1 0
vt 1 0.125
vt 0.3125 0.125
vt 0.3125 0
vt 0 0
vt 0 0.125
vt 0 0.25
vt 0.125 0.25
vt 0.125 0.125
vt 0 0.125
vt 0 0.125
vt 0 0.25
vt 0.125 0.25
vt 0.125 0.125
vt 0.3125 0.625
vt 0.5 0.625
vt 0.5 0.25
vt 0.3125 0.25
vt 0.3125 0.625
vt 0.5 0.625
vt 0.5 0.25
vt 0.3125 0.25
vt 0.625 0.625
vt 0.75 0.625
vt 0.75 0.4375
vt 0.625 0.4375
vt 0.625 0.625
vt 0.75 0.625
vt 0.75 0.4375
vt 0.625 0.4375
vt 0.3125 0.625
vt 0.4375 0.625
vt 0.4375 0.25
vt 0.3125 0.25
vt 0.375 0.625
vt 0.5 0.625
vt 0.5 0.25
vt 0.375 0.25
vt 0 0
vt 1 0
vt 1 0.125
vt 0 0.125
vt 0 0.125
vt 1 0.125
vt 1 0
vt 0 0
vt 0 0.125
vt 0 0
vt 1 0
vt 1 0.125
vt 0 0
vt 0 0.125
vt 1 0.125
vt 1 0
vt 0 0.25
vt 0.125 0.25
vt 0.125 0.125
vt 0 0.125
vt 0 0
vt 1 0
vt 1 0.125
vt 0 0.125
vt 0 0.125
vt 1 0.125
vt 1 0
vt 0 0
vt 0 0.125
vt 0 0
vt 1 0
vt 1 0.125
vt 0 0
vt 0 0.125
vt 1 0.125
vt 1 0
vt 0 0
vt 1 0
vt 1 0.125
vt 0 0.125
vt 0 0.125
vt 1 0.125
vt 1 0
vt 0 0
vt 0 0.125
vt 0 0
vt 1 0
vt 1 0.125
vt 0 0
vt 0 0.125
vt 1 0.125
vt 1 0
vt 0.3125 0
vt 0.3125 0.125
vt 0 0.125
vt 0 0
vt 0.6875 0
vt 0.6875 0.125
vt 1 0.125
vt 1 0
vt 0.6875 0.125
vt 0.6875 0
vt 1 0
vt 1 0.125
vt 0.3125 0.125
vt 0.3125 0
vt 0 0
vt 0 0.125
vt 0 0.25
vt 0.125 0.25
vt 0.125 0.125
vt 0 0.125
vt 0 0.125
vt 0 0.25
vt 0.125 0.25
vt 0.125 0.125
vt 0.5 0.25
vt 0.375 0.25
vt 0.375 0.125
vt 0.5 0.125
vt 0.375 0.25
vt 0.5 0.25
vt 0.5 0.125
vt 0.375 0.125
vt 0.125 0.25
vt 0.375 0.25
vt 0.375 0.125
vt 0.125 0.125
vt 0.125 0.25
vt 0.375 0.25
vt 0.375 0.125
vt 0.125 0.125
vt 0.375 0.125
vt 0.125 0.125
vt 0.125 0.25
vt 0.375 0.25
vt 0.125 0.25
vt 0.375 0.25
vt 0.375 0.125
vt 0.125 0.125
vn 0 0 1
vn 0 0 -1
vn 0 1 0
vn 0 -1 0
vn 1 0 0
vn 0 0 1
vn 0 0 -1
vn 0 1 0
vn 0 -1 0
vn 0 0 1
vn 0 0 -1
vn 0 1 0
vn 0 -1 0
vn 0 0 1
vn 0 0 -1
vn 0 1 0
vn 0 -1 0
vn 1 0 0
vn -1 0 0
vn 0 0 1
vn 0 0 -1
vn 0 1 0
vn 0 -1 0
vn 1 0 0
vn -1 0 0
vn 0 0 1
vn 0 0 -1
vn 0.04 1 0
vn -0.04 -1 0
vn 1 -0.04 0
vn 0 0 1
vn 0 0 -1
vn 0.04 1 0
vn -0.04 -1 0
vn 0 0 1
vn 0 0 -1
vn 0.04 1 0
vn -0.04 -1 0
vn 0 0 1
vn 0 0 -1
vn 0.04 1 0
vn -0.04 -1 0
vn 1 -0.04 0
vn -1 0.04 0
vn 0 0 1
vn 0 0 -1
vn 0 1 0
vn 0 -1 0
vn 1 0 0
vn -1 0 0
usemtl gate_misc
f 129/433/109 130/434/109 132/435/109
f 129/433/109 132/435/109 131/436/109
f 134/437/110 133/438/110 135/439/110
f 134/437/110 135/439/110 136/440/110
f 134/441/111 130/442/111 129/443/111
f 134/441/111 129/443/111 133/444/111
f 135/445/112 131/446/112 132/447/112
f 135/445/112 132/447/112 136/448/112
f 133/449/113 129/450/113 131/451/113
f 133/449/113 131/451/113 135/452/113
f 130/453/114 137/454/114 138/455/114
f 130/453/114 138/455/114 132/456/114
f 139/457/115 134/458/115 136/459/115
f 139/457/115 136/459/115 140/460/115
f 139/461/116 137/462/116 130/463/116
f 139/461/116 130/463/116 134/464/116
f 136/465/117 132/466/117 138/467/117
f 136/465/117 138/467/117 140/468/117
f 137/469/118 141/470/118 142/471/118
f 137/469/118 142/471/118 138/472/118
f 143/473/119 139/474/119 140/475/119
f 143/473/119 140/475/119 144/476/119
f 143/477/120 141/478/120 137/479/120
f 143/477/120 137/479/120 139/480/120
f 140/481/121 138/482/121 142/483/121
f 140/481/121 142/483/121 144/484/121
f 145/485/122 146/486/122 142/487/122
f 145/485/122 142/487/122 141/488/122
f 148/489/123 147/490/123 143/491/123
f 148/489/123 143/491/123 144/492/123
f 147/493/124 145/494/124 141/495/124
f 147/493/124 141/495/124 143/496/124
f 146/497/125 148/498/125 144/499/125
f 146/497/125 144/499/125 142/500/125
f 143/501/126 141/502/126 142/503/126
f 143/501/126 142/503/126 144/504/126
f 145/505/127 147/506/127 148/507/127
f 145/505/127 148/507/127 146/508/127
f 149/509/128 150/510/128 152/511/128
f 149/509/128 152/511/128 151/512/128
f 154/513/129 153/514/129 155/515/129
f 154/513/129 155/515/129 156/516/129
f 154/517/130 150/518/130 149/519/130
f 154/517/130 149/519/130 153/520/130
f 155/521/131 151/522/131 152/523/131
f 155/521/131 152/523/131 156/524/131
f 153/525/132 149/526/132 151/527/132
f 153/525/132 151/527/132 155/528/132
f 150/529/133 154/530/133 156/531/133
f 150/529/133 156/531/133 152/532/133
f 157/533/134 158/534/134 160/535/134
f 157/533/134 160/535/134 159/536/134
f 162/537/135 161/538/135 163/539/135
f 162/537/135 163/539/135 164/540/135
f 162/541/136 158/542/136 157/543/136
f 162/541/136 157/543/136 161/544/136
f 163/545/137 159/546/137 160/547/137
f 163/545/137 160/547/137 164/548/137
f 161/549/138 157/550/138 159/551/138
f 161/549/138 159/551/138 163/552/138
f 158/553/139 165/554/139 166/555/139
f 158/553/139 166/555/139 160/556/139
f 167/557/140 162/558/140 164/559/140
f 167/557/140 164/559/140 168/560/140
f 167/561/141 165/562/141 158/563/141
f 167/561/141 158/563/141 162/564/141
f 164/565/142 160/566/142 166/567/142
f 164/565/142 166/567/142 168/568/142
f 165/569/143 169/570/143 170/571/143
f 165/569/143 170/571/143 166/572/143
f 171/573/144 167/574/144 168/575/144
f 171/573/144 168/575/144 172/576/144
f 171/577/145 169/578/145 165/579/145
f 171/577/145 165/579/145 167/580/145
f 168/581/146 166/582/146 170/583/146
f 168/581/146 170/583/146 172/584/146
f 173/585/147 174/586/147 170/587/147
f 173/585/147 170/587/147 169/588/147
f 176/589/148 175/590/148 171/591/148
f 176/589/148 171/591/148 172/592/148
f 175/593/149 173/594/149 169/595/149
f 175/593/149 169/595/149 171/596/149
f 174/597/150 176/598/150 172/599/150
f 174/597/150 172/599/150 170/600/150
f 171/601/151 169/602/151 170/603/151
f 171/601/151 170/603/151 172/604/151
f 173/605/152 175/606/152 176/607/152
f 173/605/152 176/607/152 174/608/152
f 177/609/153 178/610/153 180/611/153
f 177/609/153 180/611/153 179/612/153
f 182/613/154 181/614/154 183/615/154
f 182/613/154 183/615/154 184/616/154
f 182/617/155 178/618/155 177/619/155
f 182/617/155 177/619/155 181/620/155
f 183/621/156 179/622/156 180/623/156
f 183/621/156 180/623/156 184/624/156
f 181/625/157 177/626/157 179/627/157
f 181/625/157 179/627/157 183/628/157
f 178/629/158 182/630/158 184/631/158
f 178/629/158 184/631/158 180/632/158