# Made in Blockbench 4.8.1
mtllib upgrades.mtl

o energy_upgrade
v -0.15625 1.84375 0.265625
v -0.15625 1.84375 0.015625
v -0.15625 1.59375 0.265625
v -0.15625 1.59375 0.015625
v -0.25 1.84375 0.265625
v -0.25 1.84375 0.015625
v -0.25 1.59375 0.265625
v -0.25 1.59375 0.015625
vt 0.0625 0.3984375
vt 0.0625 0.4609375
vt 0 0.4609375
vt 0 0.3984375
vt 0.125 0.484375
vt 0.0625 0.484375
vt 0.0625 0.4609375
vt 0.125 0.4609375
vt 0.1875 0.484375
vt 0.25 0.484375
vt 0.25 0.4609375
vt 0.1875 0.4609375
vt 0.1875 0.484375
vt 0.125 0.484375
vt 0.125 0.4609375
vt 0.1875 0.4609375
vt 0 0.4609375
vt 0.0625 0.4609375
vt 0.0625 0.484375
vt 0 0.484375
vn -1 0 0
vn 0 1 0
vn 0 -1 0
vn 0 0 1
vn 0 0 -1
usemtl m_0
f 7/1/1 5/2/1 6/3/1 8/4/1
f 1/5/2 2/6/2 6/7/2 5/8/2
f 4/9/3 3/10/3 7/11/3 8/12/3
f 3/13/4 1/14/4 5/15/4 7/16/4
f 8/17/5 6/18/5 2/19/5 4/20/5
o energy_upgrade_lower
v 0.05624999999999988 1.609375 -0.45624999999999993
v 0.05624999999999988 1.609375 -0.7218749999999999
v 0.05624999999999988 1.546875 -0.45624999999999993
v 0.05624999999999988 1.546875 -0.7218749999999999
v -0.08437500000000012 1.609375 -0.45624999999999993
v -0.08437500000000012 1.609375 -0.7218749999999999
v -0.08437500000000012 1.546875 -0.45624999999999993
v -0.08437500000000012 1.546875 -0.7218749999999999
v -0.05312499917681948 1.5625 -0.6906249999999999
v 0.025000001646361146 1.5624999983536385 -0.6906249999999999
v -0.05312499917681948 1.5625 -0.6124999999999999
v 0.025000001646361146 1.5624999983536385 -0.6124999999999999
v -0.05312500000000012 1.4843750000000002 -0.6906249999999999
v 0.009374999999999873 1.484374998682911 -0.6906249999999999
v -0.05312500000000012 1.4843750000000002 -0.6124999999999999
v 0.009374999999999866 1.484374998682911 -0.6124999999999999
v -0.13125000000000012 1.5625000000000002 -0.6124999999999999
v -0.1312500000000001 1.5625000000000002 -0.6906249999999999
v -0.13125000000000012 1.4843750000000007 -0.6124999999999998
v -0.13125000000000012 1.4843750000000004 -0.6906249999999998
v -0.2093750000000001 1.5625 -0.6124999999999998
v -0.2093750000000001 1.5625 -0.6749999999999998
v -0.2093750000000001 1.4843750000000002 -0.6124999999999998
v -0.2093750000000001 1.4843750000000002 -0.6749999999999998
v -0.13125000000000012 1.5625000000000002 0.028125000000000067
v -0.13125000000000014 1.4843750000000004 0.028125000000000067
v -0.2093750000000001 1.5625 0.028125000000000067
v -0.2093750000000001 1.4843750000000002 0.028125000000000067
v -0.13125000000000014 1.5625000000000002 0.10625000000000007
v -0.13125000000000014 1.4843750000000004 0.09062500000000007
v -0.2093750000000001 1.5625 0.10625000000000007
v -0.2093750000000001 1.4843750000000002 0.10625000000000007
v -0.24062500000000014 1.5625000000000004 0.10625000000000007
v -0.2406250000000001 1.5625000000000004 0.028125000000000067
v -0.22500000000000014 1.4843750000000002 0.10625000000000007
v -0.2250000000000001 1.4843750000000002 0.028125000000000067
v -0.16250000000000014 1.5937500000000007 0.10625000000000007
v -0.16250000000000014 1.5937500000000007 0.028125000000000067
v -0.16250000000000014 1.5625000000000007 0.10625000000000007
v -0.16250000000000014 1.5625000000000007 0.028125000000000067
v -0.24062500000000014 1.5937500000000007 0.10625000000000007
v -0.24062500000000014 1.5937500000000007 0.028125000000000067
v 0.024999999999999883 1.5468750000000002 -0.48749999999999993
v 0.024999999999999883 1.5468750000000002 -0.5656249999999999
v 0.024999999670727618 1.4531249991768198 -0.48749999999999993
v 0.024999999670727618 1.4531249991768198 -0.5656249999999999
v -0.05312500000000012 1.5468750000000002 -0.4874999999999999
v -0.053125000000000124 1.5468750000000002 -0.5656249999999999
v -0.05312500098781689 1.4531250000000007 -0.4874999999999999
v -0.053125000987816896 1.4531250000000007 -0.5656249999999999
v -0.053125002304905924 1.3750000000000004 -0.5656249999999999
v 0.009374997695094082 1.3749999986829111 -0.5656249999999999
v -0.05312500230490591 1.3750000000000004 -0.4874999999999999
v 0.009374997695094072 1.3749999986829111 -0.4874999999999999
v -0.13125000153660396 1.4531250000000007 -0.4875
v -0.1312500023049059 1.4531250000000004 -0.5656249999999998
v -0.13125000153660396 1.3750000000000007 -0.4874999999999998
v -0.1312500023049059 1.3750000000000007 -0.5656249999999997
v -0.209375001152453 1.4531250000000002 -0.48749999999999993
v -0.2093750023049058 1.4531250000000002 -0.5499999999999998
v -0.209375001152453 1.3750000000000004 -0.48749999999999993
v -0.2093750023049059 1.3750000000000004 -0.5499999999999998
v -0.13125000000000012 1.4531250000000007 0.15312500000000007
v -0.13125000000000014 1.3750000000000004 0.15312500000000007
v -0.2093750000000001 1.4531250000000002 0.15312500000000007
v -0.2093750000000001 1.3750000000000002 0.15312500000000007
v -0.13125000000000014 1.4531250000000004 0.23125000000000007
v -0.13125000000000014 1.3750000000000004 0.21562500000000007
v -0.2093750000000001 1.4531250000000002 0.23125000000000018
v -0.2093750000000001 1.3750000000000002 0.21562500000000018
v -0.16250000000000014 1.5937500000000002 0.23125000000000007
v -0.16250000000000014 1.5937500000000002 0.15312500000000007
v -0.2406250000000001 1.5937500000000002 0.23125000000000018
v -0.2406250000000001 1.5937500000000002 0.15312500000000007
v 0.17187500000000008 1.7500000000000004 -0.375
v 0.17187500000000008 1.7500000000000004 -0.91875
v 0.17187500000000008 1.5937500000000004 -0.375
v 0.17187500000000008 1.5937500000000004 -0.91875
v -0.21875000000000008 1.7500000000000004 -0.375
v -0.21875000000000008 1.7500000000000004 -0.91875
v -0.21875000000000008 1.5937500000000004 -0.375
v -0.21875000000000008 1.5937500000000004 -0.91875
v 0.28125 1.875 -0.4375
v 0.28125 1.875 -1.0625
v 0.28125 1.4375 -0.4375
v 0.28125 1.4375 -1.0625
v 0.1562500000000001 1.875 -0.4375
v 0.1562500000000001 1.875 -1.0625
v 0.1562500000000001 1.4375 -0.4375
v 0.1562500000000001 1.4375 -1.0625
vt 0.328125 0.359375
vt 0.3125 0.359375
vt 0.3125 0.296875
vt 0.328125 0.296875
vt 0.34375 0.359375
vt 0.359375 0.359375
vt 0.359375 0.296875
vt 0.34375 0.296875
vt 0.3515625 0.296875
vt 0.3515625 0.359375
vt 0.3203125 0.359375
vt 0.3203125 0.296875
vt 0.3515625 0.3046875
vt 0.3515625 0.2890625
vt 0.3203125 0.2890625
vt 0.3203125 0.3046875
vt 0.3515625 0.3515625
vt 0.3515625 0.3671875
vt 0.3203125 0.3671875
vt 0.3203125 0.3515625
vt 0.6875 0.375
vt 0.5625 0.375
vt 0.5625 0.25
vt 0.6875 0.25
vt 0.875 0
vt 0.875 0.125
vt 0.75 0.125
vt 0.75 0
vt 0.875 0.125
vt 1 0.125
vt 1 0.25
vt 0.875 0.25
vt 0.6875 0.375
vt 0.5625 0.375
vt 0.5625 0.25
vt 0.6875 0.25
vt 0.5625 0
vt 0.6875 0
vt 0.6875 0.125
vt 0.5625 0.125
vt 0.5625 0
vt 0.6875 0
vt 0.6875 0.125
vt 0.5625 0.125
vt 0.6875 0
vt 0.5625 0
vt 0.5625 0.125
vt 0.6875 0.125
vt 0.5625 0.125
vt 0.6875 0.125
vt 0.6875 0
vt 0.5625 0
vt 0.5625 0.25
vt 0.6875 0.25
vt 0.6875 0.375
vt 0.5625 0.375
vt 0.15625 0.84375
vt 0.15625 1
vt 0 1
vt 0 0.84375
vt 0.75 0
vt 0.875 0
vt 0.875 0.125
vt 0.75 0.125
vt 0.5625 0.25
vt 0.6875 0.25
vt 0.6875 0.375
vt 0.5625 0.375
vt 0.6875 0
vt 0.5625 0
vt 0.5625 1
vt 0.6875 1
vt 0.5625 1
vt 0.6875 1
vt 0.6875 0
vt 0.5625 0
vt 0.5625 1
vt 0.5625 0
vt 0.6875 0
vt 0.6875 1
vt 0.6875 0
vt 0.6875 1
vt 0.5625 1
vt 0.5625 0
vt 0.5625 0.5625
vt 0.6875 0.5625
vt 0.6875 0.6875
vt 0.5625 0.6875
vt 0.875 0.125
vt 0.75 0.125
vt 0.75 0
vt 0.875 0
vt 1 0.125
vt 1 0.25
vt 0.875 0.25
vt 0.875 0.125
vt 0.5625 0.5625
vt 0.5625 0.6875
vt 0.6875 0.6875
vt 0.6875 0.5625
vt 0.6875 0.625
vt 0.5625 0.625
vt 0.5625 0.5625
vt 0.6875 0.5625
vt 0.625 0.5625
vt 0.625 0.6875
vt 0.5625 0.6875
vt 0.5625 0.5625
vt 0.6875 0.5625
vt 0.6875 0.6875
vt 0.625 0.6875
vt 0.625 0.5625
vt 0.5625 0.8125
vt 0.5625 0.875
vt 0.6875 0.875
vt 0.6875 0.8125
vt 0.5625 0.8125
vt 0.5625 0.875
vt 0.6875 0.875
vt 0.6875 0.8125
vt 0.6875 0.8125
vt 0.6875 0.875
vt 0.5625 0.875
vt 0.5625 0.8125
vt 0.6875 0.8125
vt 0.6875 0.875
vt 0.5625 0.875
vt 0.5625 0.8125
vt 0.5625 0.6875
vt 0.5625 0.875
vt 0.6875 0.875
vt 0.6875 0.6875
vt 0.5625 0.6875
vt 0.5625 0.875
vt 0.6875 0.875
vt 0.6875 0.6875
vt 0.6875 0.6875
vt 0.6875 0.875
vt 0.5625 0.875
vt 0.5625 0.6875
vt 0.6875 0.6875
vt 0.6875 0.875
vt 0.5625 0.875
vt 0.5625 0.6875
vt 0.6875 0.375
vt 0.5625 0.375
vt 0.5625 0.25
vt 0.6875 0.25
vt 0.875 0
vt 0.875 0.125
vt 0.75 0.125
vt 0.75 0
vt 0.875 0.125
vt 1 0.125
vt 1 0.25
vt 0.875 0.25
vt 0.6875 0.375
vt 0.5625 0.375
vt 0.5625 0.25
vt 0.6875 0.25
vt 0.5625 0
vt 0.6875 0
vt 0.6875 0.125
vt 0.5625 0.125
vt 0.5625 0
vt 0.6875 0
vt 0.6875 0.125
vt 0.5625 0.125
vt 0.6875 0
vt 0.5625 0
vt 0.5625 0.125
vt 0.6875 0.125
vt 0.5625 0.125
vt 0.6875 0.125
vt 0.6875 0
vt 0.5625 0
vt 0.5625 0.25
vt 0.6875 0.25
vt 0.6875 0.375
vt 0.5625 0.375
vt 0.15625 0.84375
vt 0.15625 1
vt 0 1
vt 0 0.84375
vt 0.75 0
vt 0.875 0
vt 0.875 0.125
vt 0.75 0.125
vt 0.5625 0.25
vt 0.6875 0.25
vt 0.6875 0.375
vt 0.5625 0.375
vt 0.6875 0
vt 0.5625 0
vt 0.5625 1
vt 0.6875 1
vt 0.5625 1
vt 0.6875 1
vt 0.6875 0
vt 0.5625 0
vt 0.5625 1
vt 0.5625 0
vt 0.6875 0
vt 0.6875 1
vt 0.6875 0
vt 0.6875 1
vt 0.5625 1
vt 0.5625 0
vt 1 0.625
vt 1 0.5
vt 0.875 0.5
vt 0.875 0.625
vt 0.75 0.125
vt 0.75 0
vt 0.875 0
vt 0.875 0.125
vt 0.6875 0.875
vt 0.6875 1
vt 0.5625 1
vt 0.5625 0.875
vt 0.6875 0.875
vt 0.6875 1
vt 0.5625 1
vt 0.5625 0.875
vt 0.5625 0.3125
vt 0.5625 0.5625
vt 0.6875 0.5625
vt 0.6875 0.3125
vt 0.5625 0.3125
vt 0.5625 0.5625
vt 0.6875 0.5625
vt 0.6875 0.3125
vt 0.6875 0.3125
vt 0.6875 0.5625
vt 0.5625 0.5625
vt 0.5625 0.3125
vt 0.6875 0.3125
vt 0.6875 0.5625
vt 0.5625 0.5625
vt 0.5625 0.3125
vt 0.3125 0.3203125
vt 0.3125 0.3515625
vt 0.1875 0.3515625
vt 0.1875 0.3203125
vt 0.3125 0.3203125
vt 0.3125 0.3515625
vt 0.1875 0.3515625
vt 0.1875 0.3203125
vt 0.3125 0.3203125
vt 0.1875 0.3203125
vt 0.1875 0.2265625
vt 0.3125 0.2265625
vt 0.3125 0.3203125
vt 0.1875 0.3203125
vt 0.1875 0.2265625
vt 0.3125 0.2265625
vt 0.3125 0.3203125
vt 0.3125 0.3515625
vt 0.21875 0.3515625
vt 0.21875 0.3203125
vt 0.21875 0.3203125
vt 0.21875 0.3515625
vt 0.3125 0.3515625
vt 0.3125 0.3203125
vt 0.1875 0.2109375
vt 0.1875 0.3203125
vt 0.03125 0.3203125
vt 0.03125 0.2109375
vt 0.1875 0.2109375
vt 0.1875 0.3203125
vt 0.03125 0.3203125
vt 0.03125 0.2109375
vt 0.1875 0.3515625
vt 0.03125 0.3515625
vt 0.03125 0.3203125
vt 0.1875 0.3203125
vt 0.1875 0.2109375
vt 0.03125 0.2109375
vt 0.03125 0.1796875
vt 0.1875 0.1796875
vt 0.03125 0.2109375
vt 0.03125 0.3203125
vt 0 0.3203125
vt 0 0.2109375
vt 0.03125 0.2109375
vt 0.03125 0.3203125
vt 0 0.3203125
vt 0 0.2109375
vn 1 0 0
vn -1 0 0
vn 0 -1 0
vn 0 0 1
vn 0 0 -1
vn -2.107342922386124e-8 -0.9999999999999998 0
vn 0 0 -1
vn 0 0 1
vn 0.9805806715580814 -0.19611615580237696 8.709305912529442e-17
vn 2.842170913093265e-15 1 0
vn -5.684341886080802e-15 -1 0
vn 0 0 1
vn -4.0389677921741525e-30 -1.4210854715202044e-15 -1
vn -1 0 0
vn -2.842170943040401e-15 1 -1.0097419586828951e-30
vn 5.684341886080803e-15 -1 2.8421709430404005e-15
vn -0.1961161351381854 0 -0.98058067569092
vn 1 0 0
vn -1 0 0
vn -2.842170943040402e-15 1 0
vn 2.842170943040403e-15 -1 -3.466062125659025e-16
vn 1 -3.552713678800511e-16 3.552713678800501e-16
vn 2.842170943040403e-15 -1 0
vn 5.573955807511332e-16 -0.1961161351381846 0.9805806756909202
vn -0.9805806756909203 -0.19611613513818352 -6.9674447593891215e-16
vn 0 -1 0
vn 0 0 1
vn 0 0 -1
vn 1 0 0
vn -1 0 0
vn 0 0 1
vn 0 0 -1
vn 1 -3.5122374699961035e-9 0
vn -1 1.0536712243454884e-8 8.881784197001289e-17
vn 7.105427357601002e-16 -2.495594820570164e-24 1
vn 0 0 -1
vn -2.1073429223861236e-8 -0.9999999999999998 3.743393013142299e-24
vn 0 0 -1
vn 7.105427297706726e-16 -1.1978854764290749e-23 1
vn 0.9805806711606933 -0.1961161577893173 1.306395886349988e-16
vn -2.8421708951249824e-15 1 2.524354854149795e-31
vn -2.8421709709910633e-15 -1 5.048709843064823e-31
vn -1.4210854615378218e-15 2.3957709562239575e-23 1
vn -1.421085447562487e-15 -1.4210854715202046e-15 -1
vn -1 0 1.843924479771889e-8
vn -3.4106051249403283e-15 1 -2.8421709094996125e-15
vn 2.8421709570157317e-15 -1 -2.795066224702857e-23
vn -0.1961161351381843 2.7869779037556674e-16 -0.9805806756909201
vn 1 -5.112925810948073e-24 -2.398601122599868e-9
vn -1 0 1.7989508852756776e-9
vn -5.684341914031463e-15 1 1.3634468896237348e-23
vn 2.8421709430404025e-15 -1 -3.4660621938313687e-16
vn 1 -3.552713678800491e-16 3.552713678800491e-16
vn -1 0 0
vn 2.842170943040403e-15 -1 0
vn 1.950884532628961e-15 -0.19611613513818407 0.9805806756909203
vn 0.9761870601839526 0.21693045781865702 0
vn -0.9761870601839527 -0.21693045781865616 0
vn 1.4210854715202012e-15 3.157967714489341e-16 1
vn 0 0 -1
vn 1 0 0
vn -1 0 0
vn 0 1 0
vn 0 -1 0
vn 0 0 1
vn 0 0 -1
vn 1 0 0
vn -1 0 0
vn 0 1 0
vn 0 -1 0
vn 0 0 1
vn 0 0 -1
usemtl m_0
f 12/21/6 10/22/6 9/23/6 11/24/6
f 15/25/7 13/26/7 14/27/7 16/28/7
f 12/29/8 11/30/8 15/31/8 16/32/8
f 11/33/9 9/34/9 13/35/9 15/36/9
f 16/37/10 14/38/10 10/39/10 12/40/10
usemtl m_1
f 23/41/11 21/42/11 22/43/11 24/44/11
f 17/45/12 18/46/12 22/47/12 21/48/12
f 20/49/13 19/50/13 23/51/13 24/52/13
f 24/53/14 22/54/14 18/55/14 20/56/14
f 19/57/15 17/58/15 26/59/15 25/60/15
f 21/61/16 23/62/16 27/63/16 28/64/16
f 23/65/17 19/66/17 25/67/17 27/68/17
f 28/69/18 26/70/18 17/71/18 21/72/18
f 31/73/19 29/74/19 30/75/19 32/76/19
f 25/77/20 26/78/20 30/79/20 29/80/20
f 28/81/21 27/82/21 31/83/21 32/84/21
f 32/85/22 30/86/22 26/87/22 28/88/22
f 27/89/23 25/90/23 33/91/23 34/92/23
f 36/93/24 35/94/24 29/95/24 31/96/24
f 33/97/25 25/98/25 29/99/25 35/100/25
f 27/101/26 34/102/26 36/103/26 31/104/26
f 34/105/27 33/106/27 37/107/27 38/108/27
f 34/109/28 38/110/28 40/111/28 36/112/28
f 38/113/29 37/114/29 39/115/29 40/116/29
f 43/117/30 41/118/30 42/119/30 44/120/30
f 36/121/31 40/122/31 43/123/31 44/124/31
f 40/125/32 39/126/32 41/127/32 43/128/32
f 44/129/33 42/130/33 35/131/33 36/132/33
f 48/133/34 46/134/34 45/135/34 47/136/34
f 41/137/35 49/138/35 50/139/35 42/140/35
f 47/141/36 45/142/36 49/143/36 41/144/36
f 42/145/37 50/146/37 46/147/37 48/148/37
f 54/149/38 52/150/38 51/151/38 53/152/38
f 57/153/39 55/154/39 56/155/39 58/156/39
f 53/157/40 51/158/40 55/159/40 57/160/40
f 58/161/41 56/162/41 52/163/41 54/164/41
f 61/165/42 59/166/42 60/167/42 62/168/42
f 58/169/43 54/170/43 60/171/43 59/172/43
f 53/173/44 57/174/44 61/175/44 62/176/44
f 62/177/45 60/178/45 54/179/45 53/180/45
f 57/181/46 58/182/46 64/183/46 63/184/46
f 59/185/47 61/186/47 65/187/47 66/188/47
f 61/189/48 57/190/48 63/191/48 65/192/48
f 66/193/49 64/194/49 58/195/49 59/196/49
f 69/197/50 67/198/50 68/199/50 70/200/50
f 63/201/51 64/202/51 68/203/51 67/204/51
f 66/205/52 65/206/52 69/207/52 70/208/52
f 70/209/53 68/210/53 64/211/53 66/212/53
f 65/213/54 63/214/54 71/215/54 72/216/54
f 74/217/55 73/218/55 67/219/55 69/220/55
f 71/221/56 63/222/56 67/223/56 73/224/56
f 65/225/57 72/226/57 74/227/57 69/228/57
f 72/229/58 71/230/58 75/231/58 76/232/58
f 78/233/59 77/234/59 73/235/59 74/236/59
f 72/237/60 76/238/60 78/239/60 74/240/60
f 76/241/61 75/242/61 77/243/61 78/244/61
f 71/245/62 80/246/62 79/247/62 75/248/62
f 77/249/63 81/250/63 82/251/63 73/252/63
f 75/253/64 79/254/64 81/255/64 77/256/64
f 73/257/65 82/258/65 80/259/65 71/260/65
usemtl m_0
f 86/261/66 84/262/66 83/263/66 85/264/66
f 89/265/67 87/266/67 88/267/67 90/268/67
f 83/269/68 84/270/68 88/271/68 87/272/68
f 86/273/69 85/274/69 89/275/69 90/276/69
f 85/277/70 83/278/70 87/279/70 89/280/70
f 90/281/71 88/282/71 84/283/71 86/284/71
f 94/285/72 92/286/72 91/287/72 93/288/72
f 97/289/73 95/290/73 96/291/73 98/292/73
f 91/293/74 92/294/74 96/295/74 95/296/74
f 94/297/75 93/298/75 97/299/75 98/300/75
f 93/301/76 91/302/76 95/303/76 97/304/76
f 98/305/77 96/306/77 92/307/77 94/308/77
o nixie_base
v -0.25 1.6734375000000001 0.49375
v -0.25 1.6734375000000001 0.38125
v -0.25 1.5609375000000003 0.49375
v -0.25 1.5609375000000003 0.38125
v -0.265625 1.6734375000000001 0.49375
v -0.265625 1.6734375000000001 0.38125
v -0.265625 1.5609375000000003 0.49375
v -0.265625 1.5609375000000003 0.38125
v -0.25 1.8296875000000001 0.49375
v -0.25 1.8296875000000001 0.38125
v -0.25 1.7171875000000003 0.49375
v -0.25 1.7171875000000003 0.38125
v -0.265625 1.8296875000000001 0.49375
v -0.265625 1.8296875000000001 0.38125
v -0.265625 1.7171875000000003 0.49375
v -0.265625 1.7171875000000003 0.38125
v -0.125 1.8874999999999988 0.515625
v -0.125 1.8874999999999988 0.265625
v -0.125 1.518749999999999 0.515625
v -0.125 1.518749999999999 0.265625
v -0.24999999999999992 1.8874999999999988 0.515625
v -0.24999999999999992 1.8874999999999988 0.265625
v -0.24999999999999992 1.518749999999999 0.515625
v -0.24999999999999992 1.518749999999999 0.265625
vt 0.53125 0.390625
vt 0.53125 0.421875
vt 0.5 0.421875
vt 0.5 0.390625
vt 0.5311523437500001 0.42158203125000004
vt 0.50009765625 0.42158203125000004
vt 0.50009765625 0.41455078125
vt 0.5311523437500001 0.41455078125
vt 0.53076171875 0.39794921875
vt 0.49970703125000004 0.39794921875
vt 0.49970703125000004 0.39091796874999996
vt 0.53076171875 0.39091796874999996
vt 0.5310546875000002 0.39082031250000004
vt 0.5310546875000002 0.421875
vt 0.5240234375000001 0.421875
vt 0.5240234375000001 0.39082031250000004
vt 0.50703125 0.39082031250000004
vt 0.50703125 0.421875
vt 0.5 0.421875
vt 0.5 0.39082031250000004
vt 0.53125 0.390625
vt 0.53125 0.421875
vt 0.5 0.421875
vt 0.5 0.390625
vt 0.5311523437500001 0.42158203125000004
vt 0.50009765625 0.42158203125000004
vt 0.50009765625 0.41455078125
vt 0.5311523437500001 0.41455078125
vt 0.53076171875 0.39794921875
vt 0.49970703125000004 0.39794921875
vt 0.49970703125000004 0.39091796874999996
vt 0.53076171875 0.39091796874999996
vt 0.5310546875000002 0.39082031250000004
vt 0.5310546875000002 0.421875
vt 0.5240234375000001 0.421875
vt 0.5240234375000001 0.39082031250000004
vt 0.50703125 0.39082031250000004
vt 0.50703125 0.421875
vt 0.5 0.421875
vt 0.5 0.39082031250000004
vt 0.421875 0.2984375
vt 0.421875 0.390625
vt 0.359375 0.390625
vt 0.359375 0.2984375
vt 0.421875 0.421875
vt 0.359375 0.421875
vt 0.359375 0.390625
vt 0.421875 0.390625
vt 0.421875 0.390625
vt 0.359375 0.390625
vt 0.359375 0.421875
vt 0.421875 0.421875
vt 0.453125 0.2984375
vt 0.453125 0.390625
vt 0.421875 0.390625
vt 0.421875 0.2984375
vt 0.453125 0.2984375
vt 0.453125 0.390625
vt 0.421875 0.390625
vt 0.421875 0.2984375
vn -1 0 0
vn 0 1 0
vn 0 -1 0
vn 0 0 1
vn 0 0 -1
vn -1 0 0
vn 0 1 0
vn 0 -1 0
vn 0 0 1
vn 0 0 -1
vn -1 0 0
vn 0 1 0
vn 0 -1 0
vn 0 0 1
vn 0 0 -1
usemtl m_0
f 105/309/78 103/310/78 104/311/78 106/312/78
f 99/313/79 100/314/79 104/315/79 103/316/79
f 102/317/80 101/318/80 105/319/80 106/320/80
f 101/321/81 99/322/81 103/323/81 105/324/81
f 106/325/82 104/326/82 100/327/82 102/328/82
f 113/329/83 111/330/83 112/331/83 114/332/83
f 107/333/84 108/334/84 112/335/84 111/336/84
f 110/337/85 109/338/85 113/339/85 114/340/85
f 109/341/86 107/342/86 111/343/86 113/344/86
f 114/345/87 112/346/87 108/347/87 110/348/87
f 121/349/88 119/350/88 120/351/88 122/352/88
f 115/353/89 116/354/89 120/355/89 119/356/89
f 118/357/90 117/358/90 121/359/90 122/360/90
f 117/361/91 115/362/91 119/363/91 121/364/91
f 122/365/92 120/366/92 116/367/92 118/368/92
o nixie_display
v -0.24687499999999996 1.6812499999999986 0.5
v -0.24687499999999996 1.6812499999999986 0.375
v -0.24687499999999996 1.5562499999999986 0.5
v -0.24687499999999996 1.5562499999999986 0.375
v -0.428125 1.6812499999999986 0.5
v -0.428125 1.6812499999999986 0.375
v -0.428125 1.5562499999999986 0.5
v -0.428125 1.5562499999999986 0.375
v -0.428125 1.6656249999999986 0.484375
v -0.428125 1.6656249999999986 0.390625
v -0.428125 1.5718749999999986 0.484375
v -0.428125 1.5718749999999986 0.390625
v -0.459375 1.6656249999999986 0.484375
v -0.459375 1.6656249999999986 0.390625
v -0.459375 1.5718749999999986 0.484375
v -0.459375 1.5718749999999986 0.390625
v -0.24687499999999996 1.8374999999999986 0.5
v -0.24687499999999996 1.8374999999999986 0.375
v -0.24687499999999996 1.7124999999999986 0.5
v -0.24687499999999996 1.7124999999999986 0.375
v -0.428125 1.8374999999999986 0.5
v -0.428125 1.8374999999999986 0.375
v -0.428125 1.7124999999999986 0.5
v -0.428125 1.7124999999999986 0.375
v -0.428125 1.8218749999999986 0.484375
v -0.428125 1.8218749999999986 0.390625
v -0.428125 1.7281249999999986 0.484375
v -0.428125 1.7281249999999986 0.390625
v -0.459375 1.8218749999999986 0.484375
v -0.459375 1.8218749999999986 0.390625
v -0.459375 1.7281249999999986 0.484375
v -0.459375 1.7281249999999986 0.390625
vt 0.5 0.390625
vt 0.5 0.421875
vt 0.46875 0.421875
vt 0.46875 0.390625
vt 0.46875 0.390625
vt 0.46875 0.421875
vt 0.421875 0.421875
vt 0.421875 0.390625
vt 0.46875 0.390625
vt 0.46875 0.421875
vt 0.421875 0.421875
vt 0.421875 0.390625
vt 0.46875 0.390625
vt 0.46875 0.421875
vt 0.421875 0.421875
vt 0.421875 0.390625
vt 0.46875 0.390625
vt 0.46875 0.421875
vt 0.421875 0.421875
vt 0.421875 0.390625
vt 0.498046875 0.39453125
vt 0.498046875 0.41796875
vt 0.474609375 0.41796875
vt 0.474609375 0.39453125
vt 0.498046875 0.41796875
vt 0.474609375 0.41796875
vt 0.474609375 0.41015625
vt 0.498046875 0.41015625
vt 0.498046875 0.40234375
vt 0.474609375 0.40234375
vt 0.474609375 0.39453125
vt 0.498046875 0.39453125
vt 0.498046875 0.39453125
vt 0.498046875 0.41796875
vt 0.490234375 0.41796875
vt 0.490234375 0.39453125
vt 0.482421875 0.39453125
vt 0.482421875 0.41796875
vt 0.474609375 0.41796875
vt 0.474609375 0.39453125
vt 0.5 0.390625
vt 0.5 0.421875
vt 0.46875 0.421875
vt 0.46875 0.390625
vt 0.46875 0.390625
vt 0.46875 0.421875
vt 0.421875 0.421875
vt 0.421875 0.390625
vt 0.46875 0.390625
vt 0.46875 0.421875
vt 0.421875 0.421875
vt 0.421875 0.390625
vt 0.46875 0.390625
vt 0.46875 0.421875
vt 0.421875 0.421875
vt 0.421875 0.390625
vt 0.46875 0.390625
vt 0.46875 0.421875
vt 0.421875 0.421875
vt 0.421875 0.390625
vt 0.498046875 0.39453125
vt 0.498046875 0.41796875
vt 0.474609375 0.41796875
vt 0.474609375 0.39453125
vt 0.498046875 0.41796875
vt 0.474609375 0.41796875
vt 0.474609375 0.41015625
vt 0.498046875 0.41015625
vt 0.498046875 0.40234375
vt 0.474609375 0.40234375
vt 0.474609375 0.39453125
vt 0.498046875 0.39453125
vt 0.498046875 0.39453125
vt 0.498046875 0.41796875
vt 0.490234375 0.41796875
vt 0.490234375 0.39453125
vt 0.482421875 0.39453125
vt 0.482421875 0.41796875
vt 0.474609375 0.41796875
vt 0.474609375 0.39453125
vn -1 0 0
vn 0 -1 0
vn 0 0 1
vn 0 0 -1
vn 0 1 0
vn -1 0 0
vn 0 1 0
vn 0 -1 0
vn 0 0 1
vn 0 0 -1
vn -1 0 0
vn 0 -1 0
vn 0 0 1
vn 0 0 -1
vn 0 1 0
vn -1 0 0
vn 0 1 0
vn 0 -1 0
vn 0 0 1
vn 0 0 -1
usemtl m_0
f 129/369/93 127/370/93 128/371/93 130/372/93
f 126/373/94 125/374/94 129/375/94 130/376/94
f 125/377/95 123/378/95 127/379/95 129/380/95
f 130/381/96 128/382/96 124/383/96 126/384/96
f 123/385/97 124/386/97 128/387/97 127/388/97
f 137/389/98 135/390/98 136/391/98 138/392/98
f 131/393/99 132/394/99 136/395/99 135/396/99
f 134/397/100 133/398/100 137/399/100 138/400/100
f 133/401/101 131/402/101 135/403/101 137/404/101
f 138/405/102 136/406/102 132/407/102 134/408/102
f 145/409/103 143/410/103 144/411/103 146/412/103
f 142/413/104 141/414/104 145/415/104 146/416/104
f 141/417/105 139/418/105 143/419/105 145/420/105
f 146/421/106 144/422/106 140/423/106 142/424/106
f 139/425/107 140/426/107 144/427/107 143/428/107
f 153/429/108 151/430/108 152/431/108 154/432/108
f 147/433/109 148/434/109 152/435/109 151/436/109
f 150/437/110 149/438/110 153/439/110 154/440/110
f 149/441/111 147/442/111 151/443/111 153/444/111
f 154/445/112 152/446/112 148/447/112 150/448/112