# Made in Blockbench 4.6.5
mtllib upgrades.mtl

o stabilizer_rotato
v -0.3906249999999999 1.78125 -0.6875
v -0.3906249999999999 1.78125 -0.8125
v -0.3906249999999999 1.65625 -0.6875
v -0.3906249999999999 1.65625 -0.8125
v -0.328125 1.78125 -0.6875
v -0.328125 1.78125 -0.8125
v -0.328125 1.65625 -0.6875
v -0.328125 1.65625 -0.8125
v -0.3906249999999999 1.78125 -0.6875
v -0.3906249999999999 1.78125 -0.8125
v -0.3906249999999999 1.65625 -0.6875
v -0.3906249999999999 1.65625 -0.8125
vt 0.4140625 0.2578125
vt 0.4140625 0.2890625
vt 0.3828125 0.2890625
vt 0.3828125 0.2578125
vt 0.4140625 0.296875
vt 0.3828125 0.296875
vt 0.3828125 0.28125
vt 0.4140625 0.28125
vt 0.4140625 0.25
vt 0.3828125 0.25
vt 0.3828125 0.265625
vt 0.4140625 0.265625
vt 0.421875 0.2578125
vt 0.421875 0.2890625
vt 0.40625 0.2890625
vt 0.40625 0.2578125
vt 0.390625 0.2578125
vt 0.390625 0.2890625
vt 0.375 0.2890625
vt 0.375 0.2578125
vn -1 0 0
vn 0 1 0
vn 0 -1 0
vn 0 0 1
vn 0 0 -1
usemtl m_0
f 3/1/1 1/2/1 2/3/1 4/4/1
f 5/5/2 6/6/2 10/7/2 9/8/2
f 8/9/3 7/10/3 11/11/3 12/12/3
f 7/13/4 5/14/4 9/15/4 11/16/4
f 12/17/5 10/18/5 6/19/5 8/20/5
o stabilizer
v -0.15625000000000003 1.875 -0.5625
v -0.15625000000000003 1.875 -0.9375
v -0.15625000000000003 1.5625 -0.5625
v -0.15625000000000003 1.5625 -0.9375
v -0.3437499999999999 1.875 -0.5625
v -0.3437499999999999 1.875 -0.9375
v -0.3437499999999999 1.5625 -0.5625
v -0.3437499999999999 1.5625 -0.9375
v -0.15625000000000003 1.75 -0.5
v -0.15625000000000003 1.75 -0.5625
v -0.15625000000000003 1.5625 -0.5
v -0.15625000000000003 1.5625 -0.5625
v -0.3437499999999999 1.75 -0.5
v -0.3437499999999999 1.75 -0.5625
v -0.3437499999999999 1.5625 -0.5
v -0.3437499999999999 1.5625 -0.5625
v -0.15625000000000003 1.875 -0.5625
v -0.15625000000000003 1.75 -0.5625
v -0.3437499999999999 1.875 -0.5625
v -0.3437499999999999 1.75 -0.5625
v -0.15625 1.5625 -0.5625
v -0.15625 1.5625 -0.9375
v -0.15625 1.5 -0.5625
v -0.15625 1.5 -0.9375
v -0.3124999999999999 1.5625 -0.5625
v -0.3124999999999999 1.5625 -0.9375
v -0.3124999999999999 1.5 -0.5625
v -0.3124999999999999 1.5 -0.9375
v -0.341567227041093 1.5743278998275918 -0.79375
v -0.341567227041093 1.5743278998275918 -0.91875
v -0.22608228547718218 1.5264924707819556 -0.79375
v -0.22608228547718218 1.5264924707819556 -0.91875
v -0.36548494156391115 1.5165854290456364 -0.79375
v -0.36548494156391115 1.5165854290456364 -0.91875
v -0.2500000000000003 1.4687500000000002 -0.79375
v -0.2500000000000003 1.4687500000000002 -0.91875
v -0.36548494156391115 1.5165854290456364 -0.79375
v -0.36548494156391115 1.5165854290456364 -0.91875
v -0.2500000000000003 1.4687500000000002 -0.79375
v -0.2500000000000003 1.4687500000000002 -0.91875
v -0.341567227041093 1.5743278998275918 -0.91875
v -0.341567227041093 1.5743278998275918 -0.79375
v -0.22608228547718218 1.5264924707819556 -0.79375
v -0.22608228547718218 1.5264924707819556 -0.91875
v -0.341567227041093 1.5743278998275918 -0.6375
v -0.341567227041093 1.5743278998275918 -0.7625
v -0.22608228547718218 1.5264924707819556 -0.6375
v -0.22608228547718218 1.5264924707819556 -0.7625
v -0.36548494156391115 1.5165854290456364 -0.6375
v -0.36548494156391115 1.5165854290456364 -0.7625
v -0.2500000000000003 1.4687500000000002 -0.6375
v -0.2500000000000003 1.4687500000000002 -0.7625
v -0.36548494156391115 1.5165854290456364 -0.6375
v -0.36548494156391115 1.5165854290456364 -0.7625
v -0.2500000000000003 1.4687500000000002 -0.6375
v -0.2500000000000003 1.4687500000000002 -0.7625
v -0.341567227041093 1.5743278998275918 -0.7625
v -0.341567227041093 1.5743278998275918 -0.6375
v -0.22608228547718218 1.5264924707819556 -0.6375
v -0.22608228547718218 1.5264924707819556 -0.7625
v -0.34375 1.8125 -0.65625
v -0.34375 1.8125 -0.84375
v -0.34375 1.625 -0.65625
v -0.34375 1.625 -0.84375
v -0.4062499999999999 1.8046875 -0.6640625
v -0.4062499999999999 1.8046875 -0.8359375
v -0.4062499999999999 1.6328125 -0.6640625
v -0.4062499999999999 1.6328125 -0.8359375
vt 0.28125 0.1484375
vt 0.28125 0.2265625
vt 0.1875 0.2265625
vt 0.1875 0.1484375
vt 0.28125 0.1484375
vt 0.28125 0.2265625
vt 0.1875 0.2265625
vt 0.1875 0.1484375
vt 0.375 0.1328125
vt 0.375 0.2265625
vt 0.328125 0.2265625
vt 0.328125 0.1328125
vt 0.375 0.1328125
vt 0.375 0.2265625
vt 0.328125 0.2265625
vt 0.328125 0.1328125
vt 0.328125 0.1484375
vt 0.328125 0.2265625
vt 0.28125 0.2265625
vt 0.28125 0.1484375
vt 0.515625 0.2734375
vt 0.515625 0.3203125
vt 0.5 0.3203125
vt 0.5 0.2734375
vt 0.46875 0.2734375
vt 0.46875 0.3203125
vt 0.453125 0.3203125
vt 0.453125 0.2734375
vt 0.5078125 0.3125
vt 0.5078125 0.328125
vt 0.4609375 0.328125
vt 0.4609375 0.3125
vt 0.5078125 0.265625
vt 0.5078125 0.28125
vt 0.4609375 0.28125
vt 0.4609375 0.265625
vt 0.5078125 0.2734375
vt 0.5078125 0.3203125
vt 0.4609375 0.3203125
vt 0.4609375 0.2734375
vt 0.5078125 0.2734375
vt 0.5078125 0.3203125
vt 0.4609375 0.3203125
vt 0.4609375 0.2734375
vt 0.421875 0.171875
vt 0.421875 0.203125
vt 0.375 0.203125
vt 0.375 0.171875
vt 0.1640625 0.1640625
vt 0.1640625 0.1796875
vt 0.0703125 0.1796875
vt 0.0703125 0.1640625
vt 0.1640625 0.1640625
vt 0.1640625 0.1796875
vt 0.0703125 0.1796875
vt 0.0703125 0.1640625
vt 0.125 0.125
vt 0.03125 0.125
vt 0.03125 0.1640625
vt 0.125 0.1640625
vt 0.03125 0.1640625
vt 0.03125 0.1796875
vt 0.0703125 0.1796875
vt 0.0703125 0.1640625
vt 0.0703125 0.1640625
vt 0.0703125 0.1796875
vt 0.03125 0.1796875
vt 0.03125 0.1640625
vt 0.4140625 0.2109375
vt 0.4140625 0.2421875
vt 0.3828125 0.2421875
vt 0.3828125 0.2109375
vt 0.4140625 0.25
vt 0.3828125 0.25
vt 0.3828125 0.234375
vt 0.4140625 0.234375
vt 0.3828125 0.203125
vt 0.4140625 0.203125
vt 0.4140625 0.21875
vt 0.3828125 0.21875
vt 0.421875 0.2109375
vt 0.421875 0.2421875
vt 0.40625 0.2421875
vt 0.40625 0.2109375
vt 0.390625 0.2109375
vt 0.390625 0.2421875
vt 0.375 0.2421875
vt 0.375 0.2109375
vt 0.4609375 0.2109375
vt 0.4609375 0.2421875
vt 0.4296875 0.2421875
vt 0.4296875 0.2109375
vt 0.4609375 0.25
vt 0.4296875 0.25
vt 0.4296875 0.234375
vt 0.4609375 0.234375
vt 0.4296875 0.203125
vt 0.4609375 0.203125
vt 0.4609375 0.21875
vt 0.4296875 0.21875
vt 0.46875 0.2109375
vt 0.46875 0.2421875
vt 0.453125 0.2421875
vt 0.453125 0.2109375
vt 0.4375 0.2109375
vt 0.4375 0.2421875
vt 0.421875 0.2421875
vt 0.421875 0.2109375
vt 0.3671875 0.234375
vt 0.3671875 0.28125
vt 0.3203125 0.28125
vt 0.3203125 0.234375
vt 0.3671875 0.2890625
vt 0.3203125 0.2890625
vt 0.3203125 0.2734375
vt 0.3671875 0.2734375
vt 0.3671875 0.2265625
vt 0.3203125 0.2265625
vt 0.3203125 0.2421875
vt 0.3671875 0.2421875
vt 0.375 0.234375
vt 0.375 0.28125
vt 0.359375 0.28125
vt 0.359375 0.234375
vt 0.328125 0.234375
vt 0.328125 0.28125
vt 0.3125 0.28125
vt 0.3125 0.234375
vn 1 0 0
vn -1 0 0
vn 0 1 0
vn 0 -1 0
vn 0 0 -1
vn 1 0 0
vn -1 0 0
vn 0 1 0
vn 0 -1 0
vn 0 0 1
vn 0 0 -1
vn 0 0 1
vn 1 0 0
vn -1 0 0
vn 0 -1 0
vn 0 0 1
vn 0 0 -1
vn -0.3826834323650896 -0.923879532511287 0
vn -0.9238795325112864 0.3826834323650906 0
vn 0.9238795325112867 -0.3826834323650899 0
vn 0 0 1
vn 0 0 -1
vn -0.3826834323650896 -0.923879532511287 0
vn -0.9238795325112864 0.3826834323650906 0
vn 0.9238795325112867 -0.3826834323650899 0
vn 0 0 1
vn 0 0 -1
vn -1 0 0
vn -0.12403473458920869 0.9922778767136677 0
vn -0.12403473458920869 -0.9922778767136677 0
vn -0.12403473458920869 0 0.9922778767136677
vn -0.12403473458920869 0 -0.9922778767136677
usemtl m_0
f 16/21/6 14/22/6 13/23/6 15/24/6
f 19/25/7 17/26/7 18/27/7 20/28/7
f 13/29/8 14/30/8 18/31/8 17/32/8
f 16/33/9 15/34/9 19/35/9 20/36/9
f 20/37/10 18/38/10 14/39/10 16/40/10
f 24/41/11 22/42/11 21/43/11 23/44/11
f 27/45/12 25/46/12 26/47/12 28/48/12
f 21/49/13 22/50/13 26/51/13 25/52/13
f 24/53/14 23/54/14 27/55/14 28/56/14
f 23/57/15 21/58/15 25/59/15 27/60/15
f 28/61/16 26/62/16 22/63/16 24/64/16
f 30/65/17 29/66/17 31/67/17 32/68/17
f 36/69/18 34/70/18 33/71/18 35/72/18
f 39/73/19 37/74/19 38/75/19 40/76/19
f 36/77/20 35/78/20 39/79/20 40/80/20
f 35/81/21 33/82/21 37/83/21 39/84/21
f 40/85/22 38/86/22 34/87/22 36/88/22
f 47/89/23 45/90/23 46/91/23 48/92/23
f 41/93/24 42/94/24 46/95/24 45/96/24
f 44/97/25 43/98/25 47/99/25 48/100/25
f 43/101/26 41/102/26 45/103/26 47/104/26
f 48/105/27 46/106/27 42/107/27 44/108/27
f 63/109/28 61/110/28 62/111/28 64/112/28
f 57/113/29 58/114/29 62/115/29 61/116/29
f 60/117/30 59/118/30 63/119/30 64/120/30
f 59/121/31 57/122/31 61/123/31 63/124/31
f 64/125/32 62/126/32 58/127/32 60/128/32
f 79/129/33 77/130/33 78/131/33 80/132/33
f 73/133/34 74/134/34 78/135/34 77/136/34
f 76/137/35 75/138/35 79/139/35 80/140/35
f 75/141/36 73/142/36 77/143/36 79/144/36
f 80/145/37 78/146/37 74/147/37 76/148/37