# Made by Pabilo8 with Blockbench
# Exported with IIToolkit Plugin on 09/10/2026
mtllib output_belt.mtl

o output1
v 2.75 0.9375 2.5625
v 2.75 0.9375 2.1875
v 2.75 0.75 2.5625
v 2.75 0.75 2.1875
v -0.125 0.9375 2.5625
v -0.125 0.9375 2.1875
v -0.125 0.75 2.5625
v -0.125 0.75 2.1875
v 2.75 1.875 2.5625
v 2.75 1.875 2.1875
v 2.75 1.6875 2.5625
v 2.75 1.6875 2.1875
v -0.125 1.875 2.5625
v -0.125 1.875 2.1875
v -0.125 1.6875 2.5625
v -0.125 1.6875 2.1875
vt 0.5 0
vt 0.5 1
vt 0.1875 1
vt 0.1875 0
vt 0.5 0
vt 0.5 1
vt 0.1875 1
vt 0.1875 0
vt 0.8125 0.6875
vt 0.8125 1
vt 0.1875 1
vt 0.1875 0.6875
vt 0.8125 0.6875
vt 0.8125 1
vt 0.1875 1
vt 0.1875 0.6875
vt 0.8125 0
vt 0.8125 1
vt 0.1875 1
vt 0.1875 0
vt 0.8125 0
vt 0.8125 1
vt 0.1875 1
vt 0.1875 0
vt 0.5 0
vt 0.5 1
vt 0.1875 1
vt 0.1875 0
vt 0.5 0
vt 0.5 1
vt 0.1875 1
vt 0.1875 0
vt 0.8125 0.6875
vt 0.8125 1
vt 0.1875 1
vt 0.1875 0.6875
vt 0.8125 0.6875
vt 0.8125 1
vt 0.1875 1
vt 0.1875 0.6875
vt 0.8125 0
vt 0.8125 1
vt 0.1875 1
vt 0.1875 0
vt 0.8125 0
vt 0.8125 1
vt 0.1875 1
vt 0.1875 0
vn 1 0 0
vn -1 0 0
vn 0 1 0
vn 0 -1 0
vn 0 0 1
vn 0 0 -1
vn 1 0 0
vn -1 0 0
vn 0 1 0
vn 0 -1 0
vn 0 0 1
vn 0 0 -1
usemtl rubber_strip
f 4/1/1 2/2/1 1/3/1
f 4/1/1 1/3/1 3/4/1
f 7/5/2 5/6/2 6/7/2
f 7/5/2 6/7/2 8/8/2
f 1/9/3 2/10/3 6/11/3
f 1/9/3 6/11/3 5/12/3
f 4/13/4 3/14/4 7/15/4
f 4/13/4 7/15/4 8/16/4
f 3/17/5 1/18/5 5/19/5
f 3/17/5 5/19/5 7/20/5
f 8/21/6 6/22/6 2/23/6
f 8/21/6 2/23/6 4/24/6
f 12/25/7 10/26/7 9/27/7
f 12/25/7 9/27/7 11/28/7
f 15/29/8 13/30/8 14/31/8
f 15/29/8 14/31/8 16/32/8
f 9/33/9 10/34/9 14/35/9
f 9/33/9 14/35/9 13/36/9
f 12/37/10 11/38/10 15/39/10
f 12/37/10 15/39/10 16/40/10
f 11/41/11 9/42/11 13/43/11
f 11/41/11 13/43/11 15/44/11
f 16/45/12 14/46/12 10/47/12
f 16/45/12 10/47/12 12/48/12
o output2
v 2.75 1.5625 2.5625
v 2.75 1.5625 2.1875
v 2.75 1.375 2.5625
v 2.75 1.375 2.1875
v -0.125 1.5625 2.5625
v -0.125 1.5625 2.1875
v -0.125 1.375 2.5625
v -0.125 1.375 2.1875
vt 0.5 0
vt 0.5 1
vt 0.1875 1
vt 0.1875 0
vt 0.5 0
vt 0.5 1
vt 0.1875 1
vt 0.1875 0
vt 0.8125 0.6875
vt 0.8125 1
vt 0.1875 1
vt 0.1875 0.6875
vt 0.8125 0.6875
vt 0.8125 1
vt 0.1875 1
vt 0.1875 0.6875
vt 0.8125 0
vt 0.8125 1
vt 0.1875 1
vt 0.1875 0
vt 0.8125 0
vt 0.8125 1
vt 0.1875 1
vt 0.1875 0
vn 1 0 0
vn -1 0 0
vn 0 1 0
vn 0 -1 0
vn 0 0 1
vn 0 0 -1
usemtl rubber_strip
f 20/49/13 18/50/13 17/51/13
f 20/49/13 17/51/13 19/52/13
f 23/53/14 21/54/14 22/55/14
f 23/53/14 22/55/14 24/56/14
f 17/57/15 18/58/15 22/59/15
f 17/57/15 22/59/15 21/60/15
f 20/61/16 19/62/16 23/63/16
f 20/61/16 23/63/16 24/64/16
f 19/65/17 17/66/17 21/67/17
f 19/65/17 21/67/17 23/68/17
f 24/69/18 22/70/18 18/71/18
f 24/69/18 18/71/18 20/72/18
o output3
v 2.75 1.25 2.5625
v 2.75 1.25 2.1875
v 2.75 1.0625 2.5625
v 2.75 1.0625 2.1875
v -0.125 1.25 2.5625
v -0.125 1.25 2.1875
v -0.125 1.0625 2.5625
v -0.125 1.0625 2.1875
vt 0.5 0
vt 0.5 1
vt 0.1875 1
vt 0.1875 0
vt 0.5 0
vt 0.5 1
vt 0.1875 1
vt 0.1875 0
vt 0.8125 0.6875
vt 0.8125 1
vt 0.1875 1
vt 0.1875 0.6875
vt 0.8125 0.6875
vt 0.8125 1
vt 0.1875 1
vt 0.1875 0.6875
vt 0.8125 0
vt 0.8125 1
vt 0.1875 1
vt 0.1875 0
vt 0.8125 0
vt 0.8125 1
vt 0.1875 1
vt 0.1875 0
vn 1 0 0
vn -1 0 0
vn 0 1 0
vn 0 -1 0
vn 0 0 1
vn 0 0 -1
usemtl rubber_strip
f 28/73/19 26/74/19 25/75/19
f 28/73/19 25/75/19 27/76/19
f 31/77/20 29/78/20 30/79/20
f 31/77/20 30/79/20 32/80/20
f 25/81/21 26/82/21 30/83/21
f 25/81/21 30/83/21 29/84/21
f 28/85/22 27/86/22 31/87/22
f 28/85/22 31/87/22 32/88/22
f 27/89/23 25/90/23 29/91/23
f 27/89/23 29/91/23 31/92/23
f 32/93/24 30/94/24 26/95/24
f 32/93/24 26/95/24 28/96/24
o form
v 0.8056 0.75 2.4913
v 0.8056 0.75 1.9288
v 0.8056 0.625 2.4913
v 0.8056 0.625 1.9288
v -0.1319 0.75 2.4913
v -0.1319 0.75 1.9288
v -0.1319 0.625 2.4913
v -0.1319 0.625 1.9288
v 2.7431 1.9375 1.9288
v 2.7431 1.9375 1.8038
v 2.7431 1.625 1.9288
v 2.7431 1.625 1.8038
v -0.1319 1.9375 1.9288
v -0.1319 1.9375 1.8038
v -0.1319 1.625 1.9288
v -0.1319 1.625 1.8038
v 2.7431 1.9375 2.4913
v 2.7431 1.875 2.4913
v 2.7431 1.875 1.9288
v -0.1319 1.9375 2.4913
v -0.1319 1.875 2.4913
v -0.1319 1.875 1.9288
v 2.7431 1.6875 2.4913
v 2.7431 1.6875 1.9288
v 2.7431 1.625 2.4913
v -0.1319 1.6875 2.4913
v -0.1319 1.6875 1.9288
v -0.1319 1.625 2.4913
v 2.7431 1.3125 1.9288
v 2.7431 1.3125 1.8038
v -0.1319 1.3125 1.9288
v -0.1319 1.3125 1.8038
v -0.1319 1.3125 2.4913
v 2.7431 1.375 2.4913
v 2.7431 1.375 1.9288
v 2.7431 1.3125 2.4913
v -0.1319 1.375 2.4913
v -0.1319 1.375 1.9288
v 2.7431 1.0625 2.4913
v 2.7431 1.0625 1.9288
v 2.7431 1 2.4913
v 2.7431 1 1.9288
v -0.1319 1.0625 2.4913
v -0.1319 1.0625 1.9288
v -0.1319 1 2.4913
v -0.1319 1 1.9288
v 2.7431 1 1.8038
v -0.1319 1 1.8038
v 2.7431 0.6875 1.9288
v 2.7431 0.6875 1.8038
v -0.1319 0.6875 1.9288
v -0.1319 0.6875 1.8038
v 2.7431 0.75 2.4913
v 2.7431 0.75 1.9288
v 2.7431 0.625 2.4913
v 2.7431 0.625 1.9288
vt 0.2344 0.8594
vt 0.2344 1
vt 0 1
vt 0 0.8594
vt 0.2344 0.8281
vt 0.2344 0.9688
vt 0 0.9688
vt 0 0.8281
vt 0.2344 0.9688
vt 0.2344 1
vt 0 1
vt 0 0.9688
vt 0.7188 0.9688
vt 0.7188 1
vt 0.4844 1
vt 0.4844 0.9688
vt 0.0313 0.9219
vt 0.0313 1
vt 0 1
vt 0 0.9219
vt 0.0313 0.9219
vt 0.0313 1
vt 0 1
vt 0 0.9219
vt 0.7188 0.9688
vt 0.7188 1
vt 0 1
vt 0 0.9688
vt 0.7188 0.9219
vt 0.7188 1
vt 0 1
vt 0 0.9219
vt 0.7188 0.9219
vt 0.7188 1
vt 0 1
vt 0 0.9219
vt 0.1719 0.9844
vt 0.1719 1
vt 0.0313 1
vt 0.0313 0.9844
vt 0.1406 0.9844
vt 0.1406 1
vt 0 1
vt 0 0.9844
vt 0.7188 0.8594
vt 0.7188 1
vt 0 1
vt 0 0.8594
vt 0.7188 0.8281
vt 0.7188 0.9688
vt 0 0.9688
vt 0 0.8281
vt 0.7188 0.9844
vt 0.7188 1
vt 0 1
vt 0 0.9844
vt 0.1719 0.9844
vt 0.1719 1
vt 0.0313 1
vt 0.0313 0.9844
vt 0.1406 0.9844
vt 0.1406 1
vt 0 1
vt 0 0.9844
vt 0.7188 0.8594
vt 0.7188 1
vt 0 1
vt 0 0.8594
vt 0.7188 0.8281
vt 0.7188 0.9688
vt 0 0.9688
vt 0 0.8281
vt 0.7188 0.9844
vt 0.7188 1
vt 0 1
vt 0 0.9844
vt 0.0313 0.9219
vt 0.0313 1
vt 0 1
vt 0 0.9219
vt 0.0313 0.9219
vt 0.0313 1
vt 0 1
vt 0 0.9219
vt 0.7188 0.9219
vt 0.7188 1
vt 0 1
vt 0 0.9219
vt 0.7188 0.9219
vt 0.7188 1
vt 0 1
vt 0 0.9219
vt 0.1719 0.9844
vt 0.1719 1
vt 0.0313 1
vt 0.0313 0.9844
vt 0.1406 0.9844
vt 0.1406 1
vt 0 1
vt 0 0.9844
vt 0.7188 0.8594
vt 0.7188 1
vt 0 1
vt 0 0.8594
vt 0.7188 0.8281
vt 0.7188 0.9688
vt 0 0.9688
vt 0 0.8281
vt 0.7188 0.9844
vt 0.7188 1
vt 0 1
vt 0 0.9844
vt 0.1719 0.9844
vt 0.1719 1
vt 0.0313 1
vt 0.0313 0.9844
vt 0.1406 0.9844
vt 0.1406 1
vt 0 1
vt 0 0.9844
vt 0.7188 0.8594
vt 0.7188 1
vt 0 1
vt 0 0.8594
vt 0.7188 0.8281
vt 0.7188 0.9688
vt 0 0.9688
vt 0 0.8281
vt 0.7188 0.9844
vt 0.7188 1
vt 0 1
vt 0 0.9844
vt 0.0313 0.9219
vt 0.0313 1
vt 0 1
vt 0 0.9219
vt 0.0313 0.9219
vt 0.0313 1
vt 0 1
vt 0 0.9219
vt 0.7188 0.9219
vt 0.7188 1
vt 0 1
vt 0 0.9219
vt 0.7188 0.9219
vt 0.7188 1
vt 0 1
vt 0 0.9219
vt 0.0313 0.9219
vt 0.0313 1
vt 0 1
vt 0 0.9219
vt 0.0313 0.9219
vt 0.0313 1
vt 0 1
vt 0 0.9219
vt 0.7188 0.9688
vt 0.7188 1
vt 0 1
vt 0 0.9688
vt 0.7188 0.9219
vt 0.7188 1
vt 0 1
vt 0 0.9219
vt 0.7188 0.9219
vt 0.7188 1
vt 0 1
vt 0 0.9219
vt 0.1719 0.9688
vt 0.1719 1
vt 0.0313 1
vt 0.0313 0.9688
vt 0.1406 0.9688
vt 0.1406 1
vt 0 1
vt 0 0.9688
vt 0.7188 0.8594
vt 0.7188 1
vt 0 1
vt 0 0.8594
vt 0.7188 0.8281
vt 0.7188 0.9688
vt 0 0.9688
vt 0 0.8281
vt 0.7188 0.9688
vt 0.7188 1
vt 0 1
vt 0 0.9688
vt 0.7188 0.9688
vt 0.7188 1
vt 0 1
vt 0 0.9688
vn 0 1 0
vn 0 -1 0
vn 0 0 1
vn 0 0 -1
vn 1 0 0
vn -1 0 0
vn 0 1 0
vn 0 0 1
vn 0 0 -1
vn 1 0 0
vn -1 0 0
vn 0 1 0
vn 0 -1 0
vn 0 0 1
vn 1 0 0
vn -1 0 0
vn 0 1 0
vn 0 -1 0
vn 0 0 1
vn 1 0 0
vn -1 0 0
vn 0 0 1
vn 0 0 -1
vn 1 0 0
vn -1 0 0
vn 0 1 0
vn 0 -1 0
vn 0 0 1
vn 1 0 0
vn -1 0 0
vn 0 1 0
vn 0 -1 0
vn 0 0 1
vn 1 0 0
vn -1 0 0
vn 0 0 1
vn 0 0 -1
vn 1 0 0
vn -1 0 0
vn 0 -1 0
vn 0 0 1
vn 0 0 -1
vn 1 0 0
vn -1 0 0
vn 0 1 0
vn 0 -1 0
vn 0 0 1
vn 0 0 -1
usemtl common_steel
f 33/97/25 34/98/25 38/99/25
f 33/97/25 38/99/25 37/100/25
f 36/101/26 35/102/26 39/103/26
f 36/101/26 39/103/26 40/104/26
f 35/105/27 33/106/27 37/107/27
f 35/105/27 37/107/27 39/108/27
f 40/109/28 38/110/28 34/111/28
f 40/109/28 34/111/28 36/112/28
f 44/113/29 42/114/29 41/115/29
f 44/113/29 41/115/29 43/116/29
f 47/117/30 45/118/30 46/119/30
f 47/117/30 46/119/30 48/120/30
f 41/121/31 42/122/31 46/123/31
f 41/121/31 46/123/31 45/124/31
f 43/125/32 41/126/32 45/127/32
f 43/125/32 45/127/32 47/128/32
f 48/129/33 46/130/33 42/131/33
f 48/129/33 42/131/33 44/132/33
f 51/133/34 41/134/34 49/135/34
f 51/133/34 49/135/34 50/136/34
f 53/137/35 52/138/35 45/139/35
f 53/137/35 45/139/35 54/140/35
f 49/141/36 41/142/36 45/143/36
f 49/141/36 45/143/36 52/144/36
f 51/145/37 50/146/37 53/147/37
f 51/145/37 53/147/37 54/148/37
f 50/149/38 49/150/38 52/151/38
f 50/149/38 52/151/38 53/152/38
f 43/153/39 56/154/39 55/155/39
f 43/153/39 55/155/39 57/156/39
f 60/157/40 58/158/40 59/159/40
f 60/157/40 59/159/40 47/160/40
f 55/161/41 56/162/41 59/163/41
f 55/161/41 59/163/41 58/164/41
f 43/165/42 57/166/42 60/167/42
f 43/165/42 60/167/42 47/168/42
f 57/169/43 55/170/43 58/171/43
f 57/169/43 58/171/43 60/172/43
f 62/173/44 44/174/44 43/175/44
f 62/173/44 43/175/44 61/176/44
f 63/177/45 47/178/45 48/179/45
f 63/177/45 48/179/45 64/180/45
f 61/181/46 43/182/46 47/183/46
f 61/181/46 47/183/46 63/184/46
f 64/185/47 48/186/47 44/187/47
f 64/185/47 44/187/47 62/188/47
f 61/189/48 67/190/48 66/191/48
f 61/189/48 66/191/48 68/192/48
f 65/193/49 69/194/49 70/195/49
f 65/193/49 70/195/49 63/196/49
f 66/197/50 67/198/50 70/199/50
f 66/197/50 70/199/50 69/200/50
f 61/201/51 68/202/51 65/203/51
f 61/201/51 65/203/51 63/204/51
f 68/205/52 66/206/52 69/207/52
f 68/205/52 69/207/52 65/208/52
f 74/209/53 72/210/53 71/211/53
f 74/209/53 71/211/53 73/212/53
f 77/213/54 75/214/54 76/215/54
f 77/213/54 76/215/54 78/216/54
f 71/217/55 72/218/55 76/219/55
f 71/217/55 76/219/55 75/220/55
f 74/221/56 73/222/56 77/223/56
f 74/221/56 77/223/56 78/224/56
f 73/225/57 71/226/57 75/227/57
f 73/225/57 75/227/57 77/228/57
f 79/229/58 62/230/58 61/231/58
f 79/229/58 61/231/58 74/232/58
f 78/233/59 63/234/59 64/235/59
f 78/233/59 64/235/59 80/236/59
f 74/237/60 61/238/60 63/239/60
f 74/237/60 63/239/60 78/240/60
f 80/241/61 64/242/61 62/243/61
f 80/241/61 62/243/61 79/244/61
f 82/245/62 79/246/62 74/247/62
f 82/245/62 74/247/62 81/248/62
f 83/249/63 78/250/63 80/251/63
f 83/249/63 80/251/63 84/252/63
f 82/253/64 81/254/64 83/255/64
f 82/253/64 83/255/64 84/256/64
f 81/257/65 74/258/65 78/259/65
f 81/257/65 78/259/65 83/260/65
f 84/261/66 80/262/66 79/263/66
f 84/261/66 79/263/66 82/264/66
f 88/265/67 86/266/67 85/267/67
f 88/265/67 85/267/67 87/268/67
f 39/269/68 37/270/68 38/271/68
f 39/269/68 38/271/68 40/272/68
f 85/273/69 86/274/69 38/275/69
f 85/273/69 38/275/69 37/276/69
f 88/277/70 87/278/70 39/279/70
f 88/277/70 39/279/70 40/280/70
f 87/281/71 85/282/71 37/283/71
f 87/281/71 37/283/71 39/284/71
f 40/285/72 38/286/72 86/287/72
f 40/285/72 86/287/72 88/288/72