# Made by Pabilo8 with Blockbench
# Exported with IIToolkit Plugin on 09/10/2026
mtllib output_tire.mtl

o output1
v 0.5625 1.8092 2.4219
v 0.5625 1.8092 2.1719
v 0.8125 1.5592 2.1719
v 0.1875 1.8092 2.4219
v 0.1875 1.8092 2.1719
v -0.0625 1.5592 2.4219
v -0.0625 1.5592 2.1719
v 0.5625 0.9342 2.4219
v 0.5625 0.9342 2.1719
v 0.8125 1.1842 2.1719
v 0.1875 0.9342 2.4219
v 0.1875 0.9342 2.1719
v -0.0625 1.1842 2.4219
v -0.0625 1.1842 2.1719
v 0.1875 1.5592 2.4219
v 0.1875 1.5592 2.1719
v 0.5625 1.5592 2.1719
v 0.8125 1.1842 2.4219
v 0.8125 1.5592 2.4219
v 0.5625 1.5592 2.4219
v 0.1875 1.1842 2.4219
v 0.1875 1.1842 2.1719
v 0.5625 1.1842 2.4219
v 0.5625 1.1842 2.1719
vt 0.8438 0.5625
vt 0.8438 0.7188
vt 0.7188 0.7188
vt 0.7188 0.5625
vt 0.2813 0.5625
vt 0.2813 0.7188
vt 0.1563 0.7188
vt 0.1563 0.5625
vt 0.4063 0.7188
vt 0.4063 0.8438
vt 0.5938 0.8438
vt 0.5938 0.7188
vt 0.7188 0.5938
vt 0.5938 0.7188
vt 0.4063 0.7188
vt 0.2813 0.5938
vt 0.2813 0.5938
vt 0.4063 0.7188
vt 0.5938 0.7188
vt 0.7188 0.5938
vt 0.7188 0.2813
vt 0.8438 0.2813
vt 0.8438 0.4375
vt 0.7188 0.4375
vt 0.1563 0.2813
vt 0.2813 0.2813
vt 0.2813 0.4375
vt 0.1563 0.4375
vt 0.4063 0.1563
vt 0.5938 0.1563
vt 0.5938 0.2813
vt 0.4063 0.2813
vt 0.4063 0.2813
vt 0.5938 0.2813
vt 0.7188 0.4063
vt 0.2813 0.4063
vt 0.5938 0.2813
vt 0.4063 0.2813
vt 0.2813 0.4063
vt 0.7188 0.4063
vt 0.8438 0.4063
vt 0.8438 0.5938
vt 0.7188 0.5938
vt 0.7188 0.4063
vt 0.2813 0.4063
vt 0.2813 0.5938
vt 0.1563 0.5938
vt 0.1563 0.4063
vt 0.1563 0.5938
vt 0.2813 0.5938
vt 0.2813 0.4063
vt 0.1563 0.4063
vt 0.2813 0.4063
vt 0.2813 0.5938
vt 0.1563 0.5938
vt 0.1563 0.4063
vt 0.2813 0.4063
vt 0.4063 0.4063
vt 0.4063 0.5938
vt 0.2813 0.5938
vt 0.2813 0.4063
vt 0.4063 0.4063
vt 0.4063 0.5938
vt 0.2813 0.5938
vt 0.5938 0.7188
vt 0.4063 0.7188
vt 0.4063 0.5938
vt 0.5938 0.5938
vt 0.4063 0.5938
vt 0.4063 0.7188
vt 0.5938 0.7188
vt 0.5938 0.5938
vn 0.71 0.71 0
vn -0.71 0.71 0
vn 0 1 0
vn 0 0 1
vn 0 0 -1
vn 0.71 -0.71 0
vn -0.71 -0.71 0
vn 0 -1 0
vn 0 0 1
vn 0 0 -1
vn 1 0 0
vn -1 0 0
vn 1 0 0
vn -1 0 0
vn 0 0 1
vn 0 0 1
vn 0 -1 0
vn 0 1 0
usemtl wheel_12
f 3/1/1 2/2/1 1/3/1
f 3/1/1 1/3/1 19/4/1
f 6/5/2 4/6/2 5/7/2
f 6/5/2 5/7/2 7/8/2
f 1/9/3 2/10/3 5/11/3
f 1/9/3 5/11/3 4/12/3
f 19/13/4 1/14/4 4/15/4
f 19/13/4 4/15/4 6/16/4
f 7/17/5 5/18/5 2/19/5
f 7/17/5 2/19/5 3/20/5
f 8/21/6 9/22/6 10/23/6
f 8/21/6 10/23/6 18/24/6
f 12/25/7 11/26/7 13/27/7
f 12/25/7 13/27/7 14/28/7
f 12/29/8 9/30/8 8/31/8
f 12/29/8 8/31/8 11/32/8
f 11/33/9 8/34/9 18/35/9
f 11/33/9 18/35/9 13/36/9
f 9/37/10 12/38/10 14/39/10
f 9/37/10 14/39/10 10/40/10
f 10/41/11 3/42/11 19/43/11
f 10/41/11 19/43/11 18/44/11
f 13/45/12 6/46/12 7/47/12
f 13/45/12 7/47/12 14/48/12
f 16/49/13 15/50/13 21/51/13
f 16/49/13 21/51/13 22/52/13
f 23/53/14 20/54/14 17/55/14
f 23/53/14 17/55/14 24/56/14
f 13/57/15 21/58/15 15/59/15
f 13/57/15 15/59/15 6/60/15
f 23/61/16 18/62/16 19/63/16
f 23/61/16 19/63/16 20/64/16
f 20/65/17 15/66/17 16/67/17
f 20/65/17 16/67/17 17/68/17
f 22/69/18 21/70/18 23/71/18
f 22/69/18 23/71/18 24/72/18
o output2
v 1.5 1.8092 2.4219
v 1.5 1.8092 2.1719
v 1.75 1.5592 2.1719
v 1.125 1.8092 2.4219
v 1.125 1.8092 2.1719
v 0.875 1.5592 2.4219
v 0.875 1.5592 2.1719
v 1.5 0.9342 2.4219
v 1.5 0.9342 2.1719
v 1.75 1.1842 2.1719
v 1.125 0.9342 2.4219
v 1.125 0.9342 2.1719
v 0.875 1.1842 2.4219
v 0.875 1.1842 2.1719
v 1.125 1.5592 2.4219
v 1.125 1.5592 2.1719
v 1.5 1.5592 2.1719
v 1.75 1.1842 2.4219
v 1.75 1.5592 2.4219
v 1.5 1.5592 2.4219
v 1.125 1.1842 2.4219
v 1.125 1.1842 2.1719
v 1.5 1.1842 2.4219
v 1.5 1.1842 2.1719
vt 0.8438 0.5625
vt 0.8438 0.7188
vt 0.7188 0.7188
vt 0.7188 0.5625
vt 0.2813 0.5625
vt 0.2813 0.7188
vt 0.1563 0.7188
vt 0.1563 0.5625
vt 0.4063 0.7188
vt 0.4063 0.8438
vt 0.5938 0.8438
vt 0.5938 0.7188
vt 0.7188 0.5938
vt 0.5938 0.7188
vt 0.4063 0.7188
vt 0.2813 0.5938
vt 0.2813 0.5938
vt 0.4063 0.7188
vt 0.5938 0.7188
vt 0.7188 0.5938
vt 0.7188 0.2813
vt 0.8438 0.2813
vt 0.8438 0.4375
vt 0.7188 0.4375
vt 0.1563 0.2813
vt 0.2813 0.2813
vt 0.2813 0.4375
vt 0.1563 0.4375
vt 0.4063 0.1563
vt 0.5938 0.1563
vt 0.5938 0.2813
vt 0.4063 0.2813
vt 0.4063 0.2813
vt 0.5938 0.2813
vt 0.7188 0.4063
vt 0.2813 0.4063
vt 0.5938 0.2813
vt 0.4063 0.2813
vt 0.2813 0.4063
vt 0.7188 0.4063
vt 0.8438 0.4063
vt 0.8438 0.5938
vt 0.7188 0.5938
vt 0.7188 0.4063
vt 0.2813 0.4063
vt 0.2813 0.5938
vt 0.1563 0.5938
vt 0.1563 0.4063
vt 0.1563 0.5938
vt 0.2813 0.5938
vt 0.2813 0.4063
vt 0.1563 0.4063
vt 0.2813 0.4063
vt 0.2813 0.5938
vt 0.1563 0.5938
vt 0.1563 0.4063
vt 0.2813 0.4063
vt 0.4063 0.4063
vt 0.4063 0.5938
vt 0.2813 0.5938
vt 0.2813 0.4063
vt 0.4063 0.4063
vt 0.4063 0.5938
vt 0.2813 0.5938
vt 0.5938 0.7188
vt 0.4063 0.7188
vt 0.4063 0.5938
vt 0.5938 0.5938
vt 0.4063 0.5938
vt 0.4063 0.7188
vt 0.5938 0.7188
vt 0.5938 0.5938
vn 0.71 0.71 0
vn -0.71 0.71 0
vn 0 1 0
vn 0 0 1
vn 0 0 -1
vn 0.71 -0.71 0
vn -0.71 -0.71 0
vn 0 -1 0
vn 0 0 1
vn 0 0 -1
vn 1 0 0
vn -1 0 0
vn 1 0 0
vn -1 0 0
vn 0 0 1
vn 0 0 1
vn 0 -1 0
vn 0 1 0
usemtl wheel_12
f 27/73/19 26/74/19 25/75/19
f 27/73/19 25/75/19 43/76/19
f 30/77/20 28/78/20 29/79/20
f 30/77/20 29/79/20 31/80/20
f 25/81/21 26/82/21 29/83/21
f 25/81/21 29/83/21 28/84/21
f 43/85/22 25/86/22 28/87/22
f 43/85/22 28/87/22 30/88/22
f 31/89/23 29/90/23 26/91/23
f 31/89/23 26/91/23 27/92/23
f 32/93/24 33/94/24 34/95/24
f 32/93/24 34/95/24 42/96/24
f 36/97/25 35/98/25 37/99/25
f 36/97/25 37/99/25 38/100/25
f 36/101/26 33/102/26 32/103/26
f 36/101/26 32/103/26 35/104/26
f 35/105/27 32/106/27 42/107/27
f 35/105/27 42/107/27 37/108/27
f 33/109/28 36/110/28 38/111/28
f 33/109/28 38/111/28 34/112/28
f 34/113/29 27/114/29 43/115/29
f 34/113/29 43/115/29 42/116/29
f 37/117/30 30/118/30 31/119/30
f 37/117/30 31/119/30 38/120/30
f 40/121/31 39/122/31 45/123/31
f 40/121/31 45/123/31 46/124/31
f 47/125/32 44/126/32 41/127/32
f 47/125/32 41/127/32 48/128/32
f 37/129/33 45/130/33 39/131/33
f 37/129/33 39/131/33 30/132/33
f 47/133/34 42/134/34 43/135/34
f 47/133/34 43/135/34 44/136/34
f 44/137/35 39/138/35 40/139/35
f 44/137/35 40/139/35 41/140/35
f 46/141/36 45/142/36 47/143/36
f 46/141/36 47/143/36 48/144/36
o output3
v 2.4375 1.8092 2.4219
v 2.4375 1.8092 2.1719
v 2.6875 1.5592 2.1719
v 2.0625 1.8092 2.4219
v 2.0625 1.8092 2.1719
v 1.8125 1.5592 2.4219
v 1.8125 1.5592 2.1719
v 2.4375 0.9342 2.4219
v 2.4375 0.9342 2.1719
v 2.6875 1.1842 2.1719
v 2.0625 0.9342 2.4219
v 2.0625 0.9342 2.1719
v 1.8125 1.1842 2.4219
v 1.8125 1.1842 2.1719
v 2.0625 1.5592 2.4219
v 2.0625 1.5592 2.1719
v 2.4375 1.5592 2.1719
v 2.6875 1.1842 2.4219
v 2.6875 1.5592 2.4219
v 2.4375 1.5592 2.4219
v 2.0625 1.1842 2.4219
v 2.0625 1.1842 2.1719
v 2.4375 1.1842 2.4219
v 2.4375 1.1842 2.1719
vt 0.8438 0.5625
vt 0.8438 0.7188
vt 0.7188 0.7188
vt 0.7188 0.5625
vt 0.2813 0.5625
vt 0.2813 0.7188
vt 0.1563 0.7188
vt 0.1563 0.5625
vt 0.4063 0.7188
vt 0.4063 0.8438
vt 0.5938 0.8438
vt 0.5938 0.7188
vt 0.7188 0.5938
vt 0.5938 0.7188
vt 0.4063 0.7188
vt 0.2813 0.5938
vt 0.2813 0.5938
vt 0.4063 0.7188
vt 0.5938 0.7188
vt 0.7188 0.5938
vt 0.7188 0.2813
vt 0.8438 0.2813
vt 0.8438 0.4375
vt 0.7188 0.4375
vt 0.1563 0.2813
vt 0.2813 0.2813
vt 0.2813 0.4375
vt 0.1563 0.4375
vt 0.4063 0.1563
vt 0.5938 0.1563
vt 0.5938 0.2813
vt 0.4063 0.2813
vt 0.4063 0.2813
vt 0.5938 0.2813
vt 0.7188 0.4063
vt 0.2813 0.4063
vt 0.5938 0.2813
vt 0.4063 0.2813
vt 0.2813 0.4063
vt 0.7188 0.4063
vt 0.8438 0.4063
vt 0.8438 0.5938
vt 0.7188 0.5938
vt 0.7188 0.4063
vt 0.2813 0.4063
vt 0.2813 0.5938
vt 0.1563 0.5938
vt 0.1563 0.4063
vt 0.1563 0.5938
vt 0.2813 0.5938
vt 0.2813 0.4063
vt 0.1563 0.4063
vt 0.2813 0.4063
vt 0.2813 0.5938
vt 0.1563 0.5938
vt 0.1563 0.4063
vt 0.2813 0.4063
vt 0.4063 0.4063
vt 0.4063 0.5938
vt 0.2813 0.5938
vt 0.2813 0.4063
vt 0.4063 0.4063
vt 0.4063 0.5938
vt 0.2813 0.5938
vt 0.5938 0.7188
vt 0.4063 0.7188
vt 0.4063 0.5938
vt 0.5938 0.5938
vt 0.4063 0.5938
vt 0.4063 0.7188
vt 0.5938 0.7188
vt 0.5938 0.5938
vn 0.71 0.71 0
vn -0.71 0.71 0
vn 0 1 0
vn 0 0 1
vn 0 0 -1
vn 0.71 -0.71 0
vn -0.71 -0.71 0
vn 0 -1 0
vn 0 0 1
vn 0 0 -1
vn 1 0 0
vn -1 0 0
vn 1 0 0
vn -1 0 0
vn 0 0 1
vn 0 0 1
vn 0 -1 0
vn 0 1 0
usemtl wheel_12
f 51/145/37 50/146/37 49/147/37
f 51/145/37 49/147/37 67/148/37
f 54/149/38 52/150/38 53/151/38
f 54/149/38 53/151/38 55/152/38
f 49/153/39 50/154/39 53/155/39
f 49/153/39 53/155/39 52/156/39
f 67/157/40 49/158/40 52/159/40
f 67/157/40 52/159/40 54/160/40
f 55/161/41 53/162/41 50/163/41
f 55/161/41 50/163/41 51/164/41
f 56/165/42 57/166/42 58/167/42
f 56/165/42 58/167/42 66/168/42
f 60/169/43 59/170/43 61/171/43
f 60/169/43 61/171/43 62/172/43
f 60/173/44 57/174/44 56/175/44
f 60/173/44 56/175/44 59/176/44
f 59/177/45 56/178/45 66/179/45
f 59/177/45 66/179/45 61/180/45
f 57/181/46 60/182/46 62/183/46
f 57/181/46 62/183/46 58/184/46
f 58/185/47 51/186/47 67/187/47
f 58/185/47 67/187/47 66/188/47
f 61/189/48 54/190/48 55/191/48
f 61/189/48 55/191/48 62/192/48
f 64/193/49 63/194/49 69/195/49
f 64/193/49 69/195/49 70/196/49
f 71/197/50 68/198/50 65/199/50
f 71/197/50 65/199/50 72/200/50
f 61/201/51 69/202/51 63/203/51
f 61/201/51 63/203/51 54/204/51
f 71/205/52 66/206/52 67/207/52
f 71/205/52 67/207/52 68/208/52
f 68/209/53 63/210/53 64/211/53
f 68/209/53 64/211/53 65/212/53
f 70/213/54 69/214/54 71/215/54
f 70/213/54 71/215/54 72/216/54
o form
v 2.7431 1.9375 2.4913
v 2.7431 1.8125 2.4913
v -0.1319 1.9375 2.4913
v -0.1319 1.8125 2.4913
v 2.7431 0.9375 2.4913
v 2.7431 0.625 2.4913
v -0.1319 0.9375 2.4913
v -0.1319 0.625 2.4913
v 2.6806 1.8125 1.8038
v 2.6806 0.9375 1.8038
v -0.0694 1.8125 1.8038
v -0.0694 0.9375 1.8038
v 2.6806 1.8125 2.4913
v 2.6806 0.9375 2.4913
v -0.0694 1.8125 2.4913
v -0.0694 0.9375 2.4913
v -0.0694 1.1875 2.4913
v -0.0694 1.1875 2.2413
v 0.1806 0.9375 2.4913
v 0.1806 0.9375 2.2413
v 0.1806 1.8125 2.4913
v 0.1806 1.8125 2.2413
v -0.0694 1.5625 2.4913
v -0.0694 1.5625 2.2413
v 0.8681 1.1875 2.4913
v 0.8681 1.1875 2.2413
v 1.1181 0.9375 2.4913
v 1.1181 0.9375 2.2413
v 0.8681 0.9375 2.4913
v 0.8681 0.9375 2.2413
v 1.1181 1.8125 2.4913
v 1.1181 1.8125 2.2413
v 0.8681 1.5625 2.4913
v 0.8681 1.5625 2.2413
v 0.8681 1.8125 2.4913
v 0.8681 1.8125 2.2413
v 2.0556 1.8125 2.4913
v 2.0556 1.8125 2.2413
v 1.8056 1.5625 2.4913
v 1.8056 1.5625 2.2413
v 1.8056 1.8125 2.4913
v 1.8056 1.8125 2.2413
v 1.8056 1.1875 2.4913
v 1.8056 1.1875 2.2413
v 2.0556 0.9375 2.4913
v 2.0556 0.9375 2.2413
v 1.8056 0.9375 2.4913
v 1.8056 0.9375 2.2413
v 2.6944 1.1875 2.4913
v 2.6944 1.1875 2.2413
v 2.4444 0.9375 2.4913
v 2.4444 0.9375 2.2413
v 2.6944 0.9375 2.4913
v 2.6944 0.9375 2.2413
v 2.4444 1.8125 2.4913
v 2.4444 1.8125 2.2413
v 2.6944 1.5625 2.4913
v 2.6944 1.5625 2.2413
v 2.6944 1.8125 2.4913
v 2.6944 1.8125 2.2413
v 1.5069 1.8125 2.4913
v 1.5069 1.8125 2.2413
v 1.7569 1.5625 2.4913
v 1.7569 1.5625 2.2413
v 1.7569 1.8125 2.4913
v 1.7569 1.8125 2.2413
v 1.7569 1.1875 2.4913
v 1.7569 1.1875 2.2413
v 1.5069 0.9375 2.4913
v 1.5069 0.9375 2.2413
v 1.7569 0.9375 2.4913
v 1.7569 0.9375 2.2413
v 0.8194 1.1875 2.4913
v 0.8194 1.1875 2.2413
v 0.5694 0.9375 2.4913
v 0.5694 0.9375 2.2413
v 0.8194 0.9375 2.4913
v 0.8194 0.9375 2.2413
v 0.5694 1.8125 2.4913
v 0.5694 1.8125 2.2413
v 0.8194 1.5625 2.4913
v 0.8194 1.5625 2.2413
v 0.8194 1.8125 2.4913
v 0.8194 1.8125 2.2413
v 0.8681 1.8125 1.8038
v 0.8681 0.9375 1.8038
v 0.8056 1.8125 2.4913
v 0.8056 1.8125 1.8038
v 0.8056 0.9375 2.4913
v 0.8056 0.9375 1.8038
v 1.8056 1.8125 1.8038
v 1.8056 0.9375 1.8038
v 1.7431 1.8125 2.4913
v 1.7431 1.8125 1.8038
v 1.7431 0.9375 2.4913
v 1.7431 0.9375 1.8038
v 2.6806 1.8125 2.2413
v 2.6806 0.9375 2.2413
v -0.0694 1.8125 2.2413
v -0.0694 0.9375 2.2413
v 1.7639 1.8125 2.2413
v 1.7639 0.9375 2.2413
v 0.8472 1.8125 2.2413
v 0.8472 0.9375 2.2413
v 2.7431 1.8125 2.4913
v 2.7431 1.8125 1.8038
v -0.1319 1.8125 2.4913
v -0.1319 1.8125 1.8038
v 2.7431 0.9375 2.4913
v 2.7431 0.9375 1.8038
v -0.1319 0.9375 2.4913
v -0.1319 0.9375 1.8038
v 1.3056 0.9375 2.4913
v 1.3056 0.9375 1.8038
v 1.3056 1.8125 1.8038
v 1.3056 1.8125 2.4913
v 0.5625 1.5592 2.3594
v 0.5625 1.5592 2.2344
v 0.5625 1.1842 2.3594
v 0.5625 1.1842 2.2344
v 0.1875 1.5592 2.3594
v 0.1875 1.5592 2.2344
v 0.1875 1.1842 2.3594
v 0.1875 1.1842 2.2344
v 1.5 1.5592 2.3594
v 1.5 1.5592 2.2344
v 1.5 1.1842 2.3594
v 1.5 1.1842 2.2344
v 1.125 1.5592 2.3594
v 1.125 1.5592 2.2344
v 1.125 1.1842 2.3594
v 1.125 1.1842 2.2344
v 2.4375 1.5592 2.3594
v 2.4375 1.5592 2.2344
v 2.4375 1.1842 2.3594
v 2.4375 1.1842 2.2344
v 2.0625 1.5592 2.3594
v 2.0625 1.5592 2.2344
v 2.0625 1.1842 2.3594
v 2.0625 1.1842 2.2344
vt 0.7188 0.9688
vt 0.7188 1
vt 0 1
vt 0 0.9688
vt 0.7188 0.25
vt 0.7188 0.3281
vt 0 0.3281
vt 0 0.25
vt 0.0156 0.4531
vt 0.0156 0.6719
vt 0 0.6719
vt 0 0.4531
vt 0.1719 0.7813
vt 0.1719 1
vt 0 1
vt 0 0.7813
vt 0.0156 0.4531
vt 0.0156 0.6719
vt 0 0.6719
vt 0 0.4531
vt 0.0625 0.7813
vt 0.0625 0.8438
vt 0 0.8438
vt 0 0.7813
vt 0.6875 0.25
vt 0.75 0.3125
vt 0.75 0.25
vt 0.0625 0.7813
vt 0.0625 0.8438
vt 0 0.8438
vt 0 0.7813
vt 0.75 0.3125
vt 0.6875 0.25
vt 0.75 0.25
vt 0.0625 0.7813
vt 0.0625 0.8438
vt 0 0.8438
vt 0 0.7813
vt 0.6875 0.25
vt 0.75 0.3125
vt 0.75 0.25
vt 0.0625 0.7813
vt 0.0625 0.8438
vt 0 0.8438
vt 0 0.7813
vt 0.75 0.3125
vt 0.6875 0.25
vt 0.75 0.25
vt 0.0625 0.7813
vt 0.0625 0.8438
vt 0 0.8438
vt 0 0.7813
vt 0.75 0.3125
vt 0.6875 0.25
vt 0.75 0.25
vt 0.0625 0.7813
vt 0.0625 0.8438
vt 0 0.8438
vt 0 0.7813
vt 0.6875 0.25
vt 0.75 0.3125
vt 0.75 0.25
vt 0 0.8438
vt 0.0625 0.8438
vt 0.0625 0.7813
vt 0 0.7813
vt 0.75 0.3125
vt 0.6875 0.25
vt 0.75 0.25
vt 0 0.8438
vt 0.0625 0.8438
vt 0.0625 0.7813
vt 0 0.7813
vt 0.75 0.3125
vt 0.6875 0.25
vt 0.75 0.25
vt 0 0.8438
vt 0.0625 0.8438
vt 0.0625 0.7813
vt 0 0.7813
vt 0.75 0.3125
vt 0.6875 0.25
vt 0.75 0.25
vt 0 0.8438
vt 0.0625 0.8438
vt 0.0625 0.7813
vt 0 0.7813
vt 0.75 0.3125
vt 0.6875 0.25
vt 0.75 0.25
vt 0 0.8438
vt 0.0625 0.8438
vt 0.0625 0.7813
vt 0 0.7813
vt 0.75 0.3125
vt 0.6875 0.25
vt 0.75 0.25
vt 0 0.8438
vt 0.0625 0.8438
vt 0.0625 0.7813
vt 0 0.7813
vt 0.75 0.3125
vt 0.6875 0.25
vt 0.75 0.25
vt 0.1719 0.4531
vt 0.1719 0.6719
vt 0 0.6719
vt 0 0.4531
vt 0 0.4531
vt 0 0.6719
vt 0.1719 0.6719
vt 0.1719 0.4531
vt 0.0156 0.4531
vt 0.0156 0.6719
vt 0 0.6719
vt 0 0.4531
vt 0.75 0.7813
vt 0.75 1
vt 0.7344 1
vt 0.7344 0.7813
vt 0.1719 0.7813
vt 0.1719 1
vt 0 1
vt 0 0.7813
vt 0.1719 0.7813
vt 0.1719 1
vt 0 1
vt 0 0.7813
vt 0.0156 0.4531
vt 0.0156 0.6719
vt 0 0.6719
vt 0 0.4531
vt 0.75 0.7813
vt 0.75 1
vt 0.7344 1
vt 0.7344 0.7813
vt 0.5156 0.0156
vt 0.7344 0.0156
vt 0.7344 0.2344
vt 0.5156 0.2344
vt 0.7344 0.2344
vt 0.5156 0.2344
vt 0.5156 0.0156
vt 0.7344 0.0156
vt 0.7344 0.2344
vt 0.5156 0.2344
vt 0.5156 0.0156
vt 0.7344 0.0156
vt 0 0.7813
vt 0 1
vt 0.1719 1
vt 0.1719 0.7813
vt 0.75 0.8281
vt 0.3906 0.8281
vt 0.3906 1
vt 0.75 1
vt 0.75 1
vt 0.3906 1
vt 0.3906 0.8281
vt 0.75 0.8281
vt 0 1
vt 0.3594 1
vt 0.3594 0.8281
vt 0 0.8281
vt 0 0.8281
vt 0.3594 0.8281
vt 0.3594 1
vt 0 1
vt 0.3438 0.3906
vt 0.3438 0.4844
vt 0.375 0.4844
vt 0.375 0.3906
vt 0.2813 0.3906
vt 0.2813 0.4844
vt 0.3125 0.4844
vt 0.3125 0.3906
vt 0.375 0.4844
vt 0.375 0.4531
vt 0.2813 0.4531
vt 0.2813 0.4844
vt 0.375 0.4219
vt 0.375 0.3906
vt 0.2813 0.3906
vt 0.2813 0.4219
vt 0.375 0.3906
vt 0.375 0.4844
vt 0.2813 0.4844
vt 0.2813 0.3906
vt 0.3438 0.3906
vt 0.3438 0.4844
vt 0.375 0.4844
vt 0.375 0.3906
vt 0.2813 0.3906
vt 0.2813 0.4844
vt 0.3125 0.4844
vt 0.3125 0.3906
vt 0.375 0.4844
vt 0.375 0.4531
vt 0.2813 0.4531
vt 0.2813 0.4844
vt 0.375 0.4219
vt 0.375 0.3906
vt 0.2813 0.3906
vt 0.2813 0.4219
vt 0.375 0.3906
vt 0.375 0.4844
vt 0.2813 0.4844
vt 0.2813 0.3906
vt 0.3438 0.3906
vt 0.3438 0.4844
vt 0.375 0.4844
vt 0.375 0.3906
vt 0.2813 0.3906
vt 0.2813 0.4844
vt 0.3125 0.4844
vt 0.3125 0.3906
vt 0.375 0.4844
vt 0.375 0.4531
vt 0.2813 0.4531
vt 0.2813 0.4844
vt 0.375 0.4219
vt 0.375 0.3906
vt 0.2813 0.3906
vt 0.2813 0.4219
vt 0.375 0.3906
vt 0.375 0.4844
vt 0.2813 0.4844
vt 0.2813 0.3906
vn 0 0 1
vn 0 0 1
vn 0 0 1
vn 1 0 0
vn 0 0 1
vn 0.71 0.71 0
vn 0 0 1
vn 0.71 -0.71 0
vn 0 0 1
vn 0.71 0.71 0
vn 0 0 1
vn 0.71 -0.71 0
vn 0 0 1
vn 0.71 -0.71 0
vn 0 0 1
vn 0.71 0.71 0
vn 0 0 1
vn -0.71 0.71 0
vn 0 0 1
vn -0.71 -0.71 0
vn 0 0 1
vn -0.71 -0.71 0
vn 0 0 1
vn -0.71 0.71 0
vn 0 0 1
vn -0.71 0.71 0
vn 0 0 1
vn -0.71 -0.71 0
vn 0 0 1
vn 1 0 0
vn -1 0 0
vn 0 0 1
vn 0 0 -1
vn 1 0 0
vn -1 0 0
vn 0 0 1
vn 0 0 -1
vn 0 0 1
vn 0 0 1
vn 0 0 1
vn -1 0 0
vn 0 1 0
vn 0 -1 0
vn 0 1 0
vn 0 -1 0
vn 1 0 0
vn -1 0 0
vn 0 1 0
vn 0 -1 0
vn 0 0 1
vn 1 0 0
vn -1 0 0
vn 0 1 0
vn 0 -1 0
vn 0 0 1
vn 1 0 0
vn -1 0 0
vn 0 1 0
vn 0 -1 0
vn 0 0 1
usemtl common_steel
f 74/217/55 73/218/55 75/219/55
f 74/217/55 75/219/55 76/220/55
f 78/221/56 77/222/56 79/223/56
f 78/221/56 79/223/56 80/224/56
f 77/225/57 74/226/57 85/227/57
f 77/225/57 85/227/57 86/228/57
f 84/229/58 83/230/58 87/231/58
f 84/229/58 87/231/58 88/232/58
f 88/233/59 87/234/59 76/235/59
f 88/233/59 76/235/59 79/236/59
f 92/237/60 90/238/60 89/239/60
f 92/237/60 89/239/60 91/240/60
f 91/241/61 89/242/61 88/243/61
f 96/244/62 94/245/62 93/246/62
f 96/244/62 93/246/62 95/247/62
f 95/248/63 93/249/63 87/250/63
f 100/251/64 98/252/64 97/253/64
f 100/251/64 97/253/64 99/254/64
f 99/255/65 97/256/65 101/257/65
f 106/258/66 104/259/66 103/260/66
f 106/258/66 103/260/66 105/261/66
f 105/262/67 103/263/67 107/264/67
f 112/265/68 110/266/68 109/267/68
f 112/265/68 109/267/68 111/268/68
f 111/269/69 109/270/69 113/271/69
f 118/272/70 116/273/70 115/274/70
f 118/272/70 115/274/70 117/275/70
f 117/276/71 115/277/71 119/278/71
f 121/279/72 122/280/72 124/281/72
f 121/279/72 124/281/72 123/282/72
f 121/283/73 123/284/73 125/285/73
f 127/286/74 128/287/74 130/288/74
f 127/286/74 130/288/74 129/289/74
f 127/290/75 129/291/75 131/292/75
f 133/293/76 134/294/76 136/295/76
f 133/293/76 136/295/76 135/296/76
f 133/297/77 135/298/77 137/299/77
f 139/300/78 140/301/78 142/302/78
f 139/300/78 142/302/78 141/303/78
f 139/304/79 141/305/79 143/306/79
f 145/307/80 146/308/80 148/309/80
f 145/307/80 148/309/80 147/310/80
f 145/311/81 147/312/81 149/313/81
f 151/314/82 152/315/82 154/316/82
f 151/314/82 154/316/82 153/317/82
f 151/318/83 153/319/83 155/320/83
f 158/321/84 157/322/84 107/323/84
f 158/321/84 107/323/84 101/324/84
f 161/325/85 159/326/85 160/327/85
f 161/325/85 160/327/85 162/328/85
f 101/329/86 107/330/86 159/331/86
f 101/329/86 159/331/86 161/332/86
f 162/333/87 160/334/87 157/335/87
f 162/333/87 157/335/87 158/336/87
f 164/337/88 163/338/88 113/339/88
f 164/337/88 113/339/88 119/340/88
f 167/341/89 165/342/89 166/343/89
f 167/341/89 166/343/89 168/344/89
f 119/345/90 113/346/90 165/347/90
f 119/345/90 165/347/90 167/348/90
f 168/349/91 166/350/91 163/351/91
f 168/349/91 163/351/91 164/352/91
usemtl common_bottom
f 172/353/92 176/354/92 175/355/92
f 172/353/92 175/355/92 171/356/92
f 169/357/93 173/358/93 174/359/93
f 169/357/93 174/359/93 170/360/93
f 173/361/94 175/362/94 176/363/94
f 173/361/94 176/363/94 174/364/94
usemtl common_steel
f 86/365/95 85/366/95 81/367/95
f 86/365/95 81/367/95 82/368/95
usemtl common_rough_steel
f 182/369/96 186/370/96 185/371/96
f 182/369/96 185/371/96 181/372/96
f 177/373/97 188/374/97 187/375/97
f 177/373/97 187/375/97 178/376/97
f 183/377/98 185/378/98 186/379/98
f 183/377/98 186/379/98 184/380/98
f 180/381/99 187/382/99 188/383/99
f 180/381/99 188/383/99 179/384/99
usemtl common_thingies
f 192/385/100 190/386/100 189/387/100
f 192/385/100 189/387/100 191/388/100
f 195/389/101 193/390/101 194/391/101
f 195/389/101 194/391/101 196/392/101
f 189/393/102 190/394/102 194/395/102
f 189/393/102 194/395/102 193/396/102
f 192/397/103 191/398/103 195/399/103
f 192/397/103 195/399/103 196/400/103
f 191/401/104 189/402/104 193/403/104
f 191/401/104 193/403/104 195/404/104
f 200/405/105 198/406/105 197/407/105
f 200/405/105 197/407/105 199/408/105
f 203/409/106 201/410/106 202/411/106
f 203/409/106 202/411/106 204/412/106
f 197/413/107 198/414/107 202/415/107
f 197/413/107 202/415/107 201/416/107
f 200/417/108 199/418/108 203/419/108
f 200/417/108 203/419/108 204/420/108
f 199/421/109 197/422/109 201/423/109
f 199/421/109 201/423/109 203/424/109
f 208/425/110 206/426/110 205/427/110
f 208/425/110 205/427/110 207/428/110
f 211/429/111 209/430/111 210/431/111
f 211/429/111 210/431/111 212/432/111
f 205/433/112 206/434/112 210/435/112
f 205/433/112 210/435/112 209/436/112
f 208/437/113 207/438/113 211/439/113
f 208/437/113 211/439/113 212/440/113
f 207/441/114 205/442/114 209/443/114
f 207/441/114 209/443/114 211/444/114