# Made by Pabilo8 with Blockbench
# Exported with IIToolkit Plugin on 09/10/2026
mtllib vulcanizer.mtl

o main
v -0.9375 0.5625 3
v 0.625 0.5 0.3125
v 2 0.5 0.3125
v 0.625 0 0.3125
v 2 0 0.3125
v 0.625 0.5 1.6875
v 2 0.5 1.6875
v 0.625 0 1.6875
v 2 0 1.6875
v 1.3125 0.5 0.3125
v 1.3125 0.5 1.6875
v 1.3125 0 1.6875
v 1.3125 0 0.3125
v 1.3125 0.5 1
v 0.625 0.5 1
v 0.625 0 1
v 2 0.5 1
v 2 0 1
v 1.9375 0.5625 0.375
v 2.125 0.5625 0.375
v 1.9375 0.375 0.375
v 2.125 0.375 0.375
v 1.9375 0.5625 1.625
v 2.125 0.5625 1.625
v 1.9375 0.375 1.625
v 2.125 0.375 1.625
v 0.5 0.5625 0.375
v 0.6875 0.5625 0.375
v 0.5 0.375 0.375
v 0.6875 0.375 0.375
v 0.5 0.5625 1.625
v 0.6875 0.5625 1.625
v 0.5 0.375 1.625
v 0.6875 0.375 1.625
v 0.5 0.5625 0.1875
v 2.125 0.5625 0.1875
v 0.5 0.375 0.1875
v 2.125 0.375 0.1875
v 0.5 0.375 1.8125
v 2.125 0.375 1.8125
v 0.5 0.5625 1.8125
v 2.125 0.5625 1.8125
v 0.75 0.5625 0.4375
v 1.875 0.5625 0.4375
v 0.75 0.5 0.4375
v 1.875 0.5 0.4375
v 0.75 0.5625 1.5625
v 1.875 0.5625 1.5625
v 0.75 0.5 1.5625
v 1.875 0.5 1.5625
v 1.3125 0.5625 0.4375
v 1.3125 0.5625 1.5625
v 1.3125 0.5 1.5625
v 1.3125 0.5 0.4375
v 1.3125 0.5625 1
v 0.75 0.5625 1
v 0.75 0.5 1
v 1.875 0.5 1
v 1.875 0.5625 1
v 0.9375 0.25 2.4375
v 1.1875 0.25 2.4375
v 0.9375 0 2.4375
v 1.0625 0.25 2.6875
v 1.1875 0.25 2.6875
v 1.0625 0 2.6875
v 1.1875 0 2.6875
v 2.4375 0.25 0.5625
v 2.6875 0.125 0.5625
v 2.4375 0 0.5625
v 2.6875 0 0.5625
v 2.4375 0.25 0.8125
v 2.6875 0.125 0.8125
v 2.4375 0 0.8125
v 2.6875 0 0.8125
v 2.0625 0.25 0.5625
v 2.0625 0 0.5625
v 2.0625 0.25 0.8125
v 2.0625 0 0.8125
v 1.4375 0.25 1.6875
v 1.6875 0.25 1.6875
v 1.4375 0 1.6875
v 1.6875 0 1.6875
v 1.4375 0.25 1.9375
v 1.6875 0.25 1.9375
v 1.4375 0 1.9375
v 1.6875 0 1.9375
v 0.9375 0.25 1.6875
v 1.1875 0.25 1.6875
v 0.9375 0 1.6875
v 1.1875 0 1.6875
v 1.1875 0 2.4375
v 2.0625 0.25 1.1875
v 2.4375 0.25 1.1875
v 2.0625 0 1.1875
v 2.4375 0 1.1875
v 2.0625 0.25 1.4375
v 2.4375 0.25 1.4375
v 2.0625 0 1.4375
v 2.4375 0 1.4375
v 2.6875 0.125 1.1875
v 2.6875 0 1.1875
v 2.6875 0.125 1.4375
v 2.6875 0 1.4375
v 2.0625 0.25 1.9375
v 2.4375 0.25 1.9375
v 2.0625 0 1.9375
v 2.4375 0 1.9375
v 2.0625 0.25 2.1875
v 2.4375 0.25 2.1875
v 2.0625 0 2.1875
v 2.4375 0 2.1875
v 2.6875 0.125 1.9375
v 2.6875 0 1.9375
v 2.6875 0.125 2.1875
v 2.6875 0 2.1875
v 1.75 0.25 2.4375
v 2.125 0.25 2.4375
v 1.75 0 2.4375
v 2.125 0 2.4375
v 1.75 0.25 2.6875
v 2.125 0.25 2.6875
v 1.75 0 2.6875
v 2.125 0 2.6875
v 2.375 0.125 2.4375
v 2.375 0 2.4375
v 2.375 0.125 2.6875
v 2.375 0 2.6875
v 1.6875 0.25 2.1875
v 1.6875 0 2.1875
v 1.5625 0.25 2.4375
v 1.5625 0 2.4375
v 1.5625 0.25 2.6875
v 1.5625 0 2.6875
v 1.5625 0.25 2.1875
v 1.5625 0 2.1875
v -3 -0.5 1
v -2 -0.5 1
v -3 -1 1
v -2 -1 1
v -3 -0.5 3
v -2 -0.5 3
v -3 -1 3
v -2 -1 3
v 2.875 -0.0625 -1
v 3 -0.0625 -1
v 2.875 -0.5 -1
v 3 -0.5 -1
v 2.875 -0.0625 -0.875
v 3 -0.0625 -0.875
v 2.875 -0.5 -0.875
v 3 -0.5 -0.875
v 1 -0.5 1
v 3 -0.5 1
v 1 -1 1
v 3 -1 1
v 1 -0.5 3
v 3 -0.5 3
v 1 -1 3
v 3 -1 3
v 1 -0.5 -1
v 1 -1 -1
v 3 -1 -1
v -1 -0.5 -1
v -1 -1 -1
v -1 -0.5 1
v -1 -1 1
v -1 -0.5 3
v -1 -1 3
v 2 0 -1
v 3 0 -1
v 2 -0.0625 -1
v 3 0 1
v 2 -0.0625 1
v 3 -0.0625 1
v -1 0 -1
v 0 0 -1
v -1 -0.0625 -1
v 0 -0.0625 -1
v -1 0 1
v 0 0 1
v -1 -0.0625 1
v 0 -0.0625 1
v 1 0 -1
v 1 -0.0625 -1
v 1 0 1
v 1 -0.0625 1
v -1 0 3
v 0 0 3
v -1 -0.0625 3
v 0 -0.0625 3
v 1 0 3
v 1 -0.0625 3
v 2 0 3
v 2 -0.0625 3
v 3 0 3
v 3 -0.0625 3
v 1 -0.0625 -0.9375
v 2.9375 -0.0625 -0.9375
v 1 -0.5 -0.9375
v 2.9375 -0.5 -0.9375
v 2.9375 -0.0625 1
v 2.9375 -0.5 1
v -1 -0.0625 -0.9375
v -1 -0.5 -0.9375
v 1 -0.0625 2.9375
v 2.9375 -0.0625 2.9375
v 1 -0.5 2.9375
v 2.9375 -0.5 2.9375
v -1 -0.0625 2.9375
v -1 -0.5 2.9375
v 2.875 -0.0625 2.875
v 3 -0.0625 2.875
v 2.875 -0.5 2.875
v 3 -0.5 2.875
v 2.875 -0.0625 3
v 2.875 -0.5 3
v -2 -0.0625 2.9375
v -2 -1 2.9375
v -1 -1 2.9375
v -1.75 -0.3125 2.9375
v -1.25 -0.3125 2.9375
v -1.75 -0.8125 2.9375
v -1.25 -0.8125 2.9375
v -1.75 -0.3125 3
v -1.25 -0.3125 3
v -1.75 -0.8125 3
v -1.25 -0.8125 3
v -2 0 1
v -2 -0.0625 1
v -2 0 3
v -2 -0.0625 3
v -3 0 1
v -3 -0.0625 1
v -3 0 3
v -3 -0.0625 3
v -3 0 -1
v -2 0 -1
v -3 -0.0625 -1
v -2 -0.0625 -1
v -2.9375 -0.0625 1
v -2.9375 -0.5 1
v -2.9375 -0.0625 2.9375
v -2.9375 -0.5 2.9375
v -2 -0.5 2.9375
v -2.9375 -0.0625 -0.9375
v -2 -0.0625 -0.9375
v -2.9375 -0.5 -0.9375
v -2 -0.5 -0.9375
v -3 -0.0625 2.875
v -2.875 -0.0625 2.875
v -3 -0.5 2.875
v -2.875 -0.5 2.875
v -2.875 -0.0625 3
v -2.875 -0.5 3
v -2.875 -0.0625 -1
v -3 -0.5 -1
v -2.875 -0.5 -1
v -3 -0.0625 -0.875
v -2.875 -0.0625 -0.875
v -3 -0.5 -0.875
v -2.875 -0.5 -0.875
v -1.75 -0.3125 -1
v -1.25 -0.3125 -1
v -1.75 -0.8125 -1
v -1.25 -0.8125 -1
v -1.75 -0.3125 -0.9375
v -1.25 -0.3125 -0.9375
v -1.75 -0.8125 -0.9375
v -1.25 -0.8125 -0.9375
v -2 -1 -0.9375
v -1 -1 -0.9375
v -2.875 0.1875 2.8125
v -2.75 0.1875 2.8125
v -2.875 0 2.8125
v -2.75 0 2.8125
v -2.875 0.1875 2.9375
v -2.75 0.1875 2.9375
v -2.875 0 2.9375
v -2.75 0 2.9375
v -2.9375 2.8125 2
v -1.9375 2.8125 2
v -2.9375 0.1875 2
v -1.9375 0.1875 2
v -2.9375 2.8125 3
v -1.9375 2.8125 3
v -2.9375 0.1875 3
v -1.9375 0.1875 3
v -3 1.9375 2.375
v -2.9375 1.9375 2.375
v -3 1.75 2.375
v -2.9375 1.75 2.375
v -3 1.9375 2.625
v -2.9375 1.9375 2.625
v -3 1.75 2.625
v -2.9375 1.75 2.625
v -3 1.75 2.25
v -2.9375 1.75 2.25
v -3 1.25 2.25
v -2.9375 1.25 2.25
v -3 1.75 2.75
v -2.9375 1.75 2.75
v -3 1.25 2.75
v -2.9375 1.25 2.75
v -2.875 0.1875 2.0625
v -2.75 0.1875 2.0625
v -2.875 0 2.0625
v -2.75 0 2.0625
v -2.875 0.1875 2.1875
v -2.75 0.1875 2.1875
v -2.875 0 2.1875
v -2.75 0 2.1875
v -1.9375 2.4375 2.0625
v -0.9375 2.4375 2.0625
v -0.9375 2.8125 3
v -1.9375 2.4375 3
v -0.9375 2.4375 3
v -0.9375 2.8125 2
v -0.9375 2.8125 2.0625
v -0.9375 0.1875 2
v -1.9375 2.8125 2.0625
v -0.9375 2.3125 2.9375
v -0.9375 2.3125 3
v -0.9375 1.9375 2.9375
v -0.9375 1.9375 3
v -1.9375 2.3125 2.9375
v -1.9375 2.3125 3
v -1.9375 1.9375 2.9375
v -1.9375 1.9375 3
v -1.3125 1.75 2.1875
v -1.0625 1.75 2.1875
v -1.3125 1.6875 2.1875
v -1.0625 1.6875 2.1875
v -1.3125 1.75 2.9375
v -1.0625 1.75 2.9375
v -1.3125 1.6875 2.9375
v -1.0625 1.6875 2.9375
v -1.875 1.3125 2.1875
v -1.625 1.3125 2.1875
v -1.875 1.25 2.1875
v -1.625 1.25 2.1875
v -1.875 1.3125 2.9375
v -1.625 1.3125 2.9375
v -1.875 1.25 2.9375
v -1.625 1.25 2.9375
v -1.9375 1.6875 2.0625
v -0.9375 1.6875 2.0625
v -1.9375 1.3125 2.0625
v -0.9375 1.3125 2.0625
v -1.9375 1.6875 3
v -0.9375 1.6875 3
v -1.9375 1.3125 3
v -0.9375 1.3125 3
v -1.9375 0.5625 2.0625
v -0.9375 0.5625 2.0625
v -1.9375 0.1875 2.0625
v -0.9375 0.1875 2.0625
v -1.9375 0.5625 3
v -0.9375 0.1875 3
v -1.3125 0.625 2.1875
v -1.0625 0.625 2.1875
v -1.3125 0.5625 2.1875
v -1.0625 0.5625 2.1875
v -1.3125 0.625 2.9375
v -1.0625 0.625 2.9375
v -1.3125 0.5625 2.9375
v -1.0625 0.5625 2.9375
v -0.9375 1.0625 2.9375
v -0.9375 1.0625 3
v -0.9375 0.6875 2.9375
v -0.9375 0.6875 3
v -1.9375 1.0625 2.9375
v -1.9375 1.0625 3
v -1.9375 0.6875 2.9375
v -1.9375 0.6875 3
v -1.625 0.1875 2.125
v -1.375 0.1875 2.125
v -1.625 0 2.125
v -1.375 0 2.125
v -1.625 0.1875 2.875
v -1.375 0.1875 2.875
v -1.625 0 2.875
v -1.375 0 2.875
v -1.1875 0.1875 2.8125
v -1.0625 0.1875 2.8125
v -1.1875 0 2.8125
v -1.0625 0 2.8125
v -1.1875 0.1875 2.9375
v -1.0625 0.1875 2.9375
v -1.1875 0 2.9375
v -1.0625 0 2.9375
v -1.1875 0.1875 2.0625
v -1.0625 0.1875 2.0625
v -1.1875 0 2.0625
v -1.0625 0 2.0625
v -1.1875 0.1875 2.1875
v -1.0625 0.1875 2.1875
v -1.1875 0 2.1875
v -1.0625 0 2.1875
v -2.9375 2.8125 -0.9375
v -1.0625 2.8125 -0.9375
v -2.9375 0.1875 -0.9375
v -1.0625 0.1875 -0.9375
v -2.9375 2.8125 0.9375
v -1.0625 2.8125 0.9375
v -2.9375 0.1875 0.9375
v -1.0625 0.1875 0.9375
v -3 1.75 -0.75
v -2.9375 1.75 -0.75
v -3 1.25 -0.75
v -2.9375 1.25 -0.75
v -3 1.75 -0.25
v -2.9375 1.75 -0.25
v -3 1.25 -0.25
v -2.9375 1.25 -0.25
v -3 1.9375 -0.625
v -2.9375 1.9375 -0.625
v -3 1.75 -0.625
v -2.9375 1.75 -0.625
v -3 1.9375 -0.375
v -2.9375 1.9375 -0.375
v -3 1.75 -0.375
v -2.9375 1.75 -0.375
v -1.25 0.1875 -0.875
v -1.125 0.1875 -0.875
v -1.25 0 -0.875
v -1.125 0 -0.875
v -1.25 0.1875 -0.75
v -1.125 0.1875 -0.75
v -1.25 0 -0.75
v -1.125 0 -0.75
v -2.875 0.1875 -0.875
v -2.75 0.1875 -0.875
v -2.875 0 -0.875
v -2.75 0 -0.875
v -2.875 0.1875 -0.75
v -2.75 0.1875 -0.75
v -2.875 0 -0.75
v -2.75 0 -0.75
v -2.875 0.1875 0.75
v -2.75 0.1875 0.75
v -2.875 0 0.75
v -2.75 0 0.75
v -2.875 0.1875 0.875
v -2.75 0.1875 0.875
v -2.875 0 0.875
v -2.75 0 0.875
v -1.25 0.1875 0.75
v -1.125 0.1875 0.75
v -1.25 0 0.75
v -1.125 0 0.75
v -1.25 0.1875 0.875
v -1.125 0.1875 0.875
v -1.25 0 0.875
v -1.125 0 0.875
v -2.5 0.1875 -0.5
v -1.5 0.1875 -0.5
v -2.5 0 -0.5
v -1.5 0 -0.5
v -2.5 0.1875 0.5
v -1.5 0.1875 0.5
v -2.5 0 0.5
v -1.5 0 0.5
v -2 -0.5 -1
v -3 -1 -1
v -2 -1 -1
v -1.25 2.125 -1
v -1.25 2.125 -0.9375
v -1.25 1.125 -1
v -1.25 1.125 -0.9375
v -2.75 2.125 -1
v -2.75 2.125 -0.9375
v -2.75 1.125 -1
v -2.75 1.125 -0.9375
v -3 2.5625 2.125
v -2.9375 2.5625 2.125
v -3 2.3125 2.125
v -2.9375 2.3125 2.125
v -3 2.5625 2.875
v -2.9375 2.5625 2.875
v -3 2.3125 2.875
v -2.9375 2.3125 2.875
v -3 2.75 2.375
v -2.9375 2.75 2.375
v -3 2.5625 2.375
v -2.9375 2.5625 2.375
v -3 2.75 2.625
v -2.9375 2.75 2.625
v -3 2.5625 2.625
v -2.9375 2.5625 2.625
v -2 0.25 1.3125
v -1.625 0.375 1.3125
v -2 0 1.3125
v -1.625 0 1.3125
v -2 0.25 1.6875
v -1.625 0.375 1.6875
v -2 0 1.6875
v -1.625 0 1.6875
v 0.125 0.375 0.6875
v 0.625 0.375 0.6875
v 0.125 0 0.6875
v 0.625 0 0.6875
v 0.125 0.375 1.0625
v 0.625 0.375 1.0625
v 0.125 0 1.0625
v 0.625 0 1.0625
v -0.3125 0.375 0.6875
v -0.3125 0 0.6875
v -0.3125 0.375 1.0625
v -0.3125 0 1.0625
v -0.6875 0.375 1.0625
v -0.6875 0 1.0625
v -0.625 0.375 0.6875
v -0.625 0 0.6875
v -0.6875 0.375 1.3125
v -0.3125 0.375 1.3125
v -0.6875 0 1.3125
v -0.3125 0 1.3125
v -0.6875 0.375 1.6875
v -0.375 0.375 1.6875
v -0.6875 0 1.6875
v -0.375 0 1.6875
v -1.125 0.375 1.3125
v -1.125 0 1.3125
v -1.125 0.375 1.6875
v -1.125 0 1.6875
v -1.625 2.375 2.1875
v -1.875 2.375 2.1875
v -1.625 2.4375 2.1875
v -1.875 2.4375 2.1875
v -1.625 2.375 2.9375
v -1.875 2.375 2.9375
v -1.625 2.4375 2.9375
v -1.875 2.4375 2.9375
vt 0.1875 0.2344
vt 0.1875 0.3594
vt 0.3594 0.3594
vt 0.3594 0.2344
vt 0.1875 0.2344
vt 0.1875 0.1094
vt 0.0156 0.1094
vt 0.0156 0.2344
vt 0.9219 1
vt 0.9219 0.8281
vt 0.75 0.8281
vt 0.75 1
vt 0.5313 0.3594
vt 0.5313 0.2344
vt 0.3594 0.2344
vt 0.3594 0.3594
vt 0.5313 0.1094
vt 0.5313 0.2344
vt 0.7031 0.2344
vt 0.7031 0.1094
vt 0.9219 0.4219
vt 0.9219 0.25
vt 0.75 0.25
vt 0.75 0.4219
vt 0.1875 0.1094
vt 0.1875 0.2344
vt 0.3594 0.2344
vt 0.3594 0.1094
vt 0.1875 0.3594
vt 0.1875 0.2344
vt 0.0156 0.2344
vt 0.0156 0.3594
vt 0.8281 0.25
vt 0.8281 0.4219
vt 1 0.4219
vt 1 0.25
vt 0.5313 0.2344
vt 0.5313 0.3594
vt 0.7031 0.3594
vt 0.7031 0.2344
vt 0.8281 0.8281
vt 0.8281 1
vt 1 1
vt 1 0.8281
vt 0.5313 0.2344
vt 0.5313 0.1094
vt 0.3594 0.1094
vt 0.3594 0.2344
vt 0.1094 0.9375
vt 0.1094 0.625
vt 0.0625 0.625
vt 0.0625 0.9375
vt 0.1094 0.9375
vt 0.1094 0.625
vt 0.0625 0.625
vt 0.0625 0.9375
vt 0.1094 0.9391
vt 0.1094 0.6266
vt 0.0625 0.6266
vt 0.0625 0.9391
vt 0.1094 0.9375
vt 0.1094 0.625
vt 0.0625 0.625
vt 0.0625 0.9375
vt 0.1094 0.9375
vt 0.1094 0.625
vt 0.0625 0.625
vt 0.0625 0.9375
vt 0.1094 0.9375
vt 0.1094 0.625
vt 0.0625 0.625
vt 0.0625 0.9375
vt 0.1094 0.9391
vt 0.1094 0.6266
vt 0.0625 0.6266
vt 0.0625 0.9391
vt 0.1094 0.9375
vt 0.1094 0.625
vt 0.0625 0.625
vt 0.0625 0.9375
vt 0.1094 0.9766
vt 0.1094 0.5703
vt 0.0625 0.5703
vt 0.0625 0.9766
vt 0.1094 0.9781
vt 0.1094 0.5719
vt 0.0625 0.5719
vt 0.0625 0.9781
vt 0 1
vt 0.0469 1
vt 0.0469 0.5938
vt 0 0.5938
vt 0 1
vt 0.0469 1
vt 0.0469 0.5938
vt 0 0.5938
vt 0.0625 0.6094
vt 0.0625 0.6563
vt 0.1094 0.6563
vt 0.1094 0.6094
vt 0.0625 0.6406
vt 0.0625 0.6875
vt 0.1094 0.6875
vt 0.1094 0.6406
vt 0.1094 0.9766
vt 0.1094 0.5703
vt 0.0625 0.5703
vt 0.0625 0.9766
vt 0.1094 0.9781
vt 0.1094 0.5719
vt 0.0625 0.5719
vt 0.0625 0.9781
vt 0 1
vt 0.0469 1
vt 0.0469 0.5938
vt 0 0.5938
vt 0 1
vt 0.0469 1
vt 0.0469 0.5938
vt 0 0.5938
vt 0.0625 0.6094
vt 0.0625 0.6563
vt 0.1094 0.6563
vt 0.1094 0.6094
vt 0.0625 0.6406
vt 0.0625 0.6875
vt 0.1094 0.6875
vt 0.1094 0.6406
vt 0.2969 0.25
vt 0.2969 0.2656
vt 0.4375 0.2656
vt 0.4375 0.25
vt 0.2656 0.25
vt 0.2656 0.2344
vt 0.125 0.2344
vt 0.125 0.25
vt 0.8906 1
vt 0.8906 0.8594
vt 0.75 0.8594
vt 0.75 1
vt 0.2188 0.2656
vt 0.2188 0.25
vt 0.0781 0.25
vt 0.0781 0.2656
vt 0.25 0.25
vt 0.25 0.2656
vt 0.3906 0.2656
vt 0.3906 0.25
vt 0.8906 0.3906
vt 0.8906 0.25
vt 0.75 0.25
vt 0.75 0.3906
vt 0.2656 0.2344
vt 0.2656 0.25
vt 0.4063 0.25
vt 0.4063 0.2344
vt 0.2969 0.2656
vt 0.2969 0.25
vt 0.1563 0.25
vt 0.1563 0.2656
vt 0.8594 0.25
vt 0.8594 0.3906
vt 1 0.3906
vt 1 0.25
vt 0.2188 0.25
vt 0.2188 0.2656
vt 0.3594 0.2656
vt 0.3594 0.25
vt 0.25 0.2656
vt 0.25 0.25
vt 0.1094 0.25
vt 0.1094 0.2656
vt 0.8594 0.8594
vt 0.8594 1
vt 1 1
vt 1 0.8594
vt 0.0625 0.4688
vt 0.0625 0.4375
vt 0 0.4375
vt 0 0.4688
vt 0.1875 0.375
vt 0.25 0.375
vt 0.25 0.4375
vt 0.1875 0.4063
vt 0.0625 0.499
vt 0.0625 0.4385
vt 0 0.4385
vt 0 0.499
vt 0.25 0.4375
vt 0.1875 0.4063
vt 0.1875 0.375
vt 0.25 0.375
vt 0.1875 0.4063
vt 0.25 0.4375
vt 0.25 0.375
vt 0.1875 0.375
vt 0.0625 0.4379
vt 0 0.4379
vt 0 0.5
vt 0.0625 0.5
vt 0 0.4688
vt 0.0625 0.4688
vt 0.0625 0.4375
vt 0 0.4375
vt 0.0625 0.375
vt 0.0625 0.4688
vt 0 0.4688
vt 0 0.375
vt 0.0625 0.4688
vt 0.0625 0.375
vt 0 0.375
vt 0 0.4688
vt 0 0.4688
vt 0.0625 0.4688
vt 0.0625 0.375
vt 0 0.375
vt 0.063 0.4994
vt 0.0619 0.437
vt 0 0.4381
vt 0.0006 0.5005
vt 0.063 0.4994
vt 0.0619 0.437
vt 0 0.4381
vt 0.0006 0.5005
vt 0.063 0.4994
vt 0.0619 0.437
vt 0 0.4381
vt 0.0006 0.5005
vt 0.0625 0.4531
vt 0.0625 0.2656
vt 0 0.2656
vt 0 0.4531
vt 0.0625 0.4531
vt 0.0625 0.2656
vt 0 0.2656
vt 0 0.4531
vt 0.0625 0.4531
vt 0.0625 0.2656
vt 0 0.2656
vt 0 0.4531
vt 0.0625 0.375
vt 0.0625 0.4688
vt 0 0.4688
vt 0 0.375
vt 0.0625 0.4688
vt 0.0625 0.375
vt 0 0.375
vt 0 0.4688
vt 0 0.4688
vt 0.0625 0.4688
vt 0.0625 0.375
vt 0 0.375
vt 0.25 0.4375
vt 0.1875 0.4063
vt 0.1875 0.375
vt 0.25 0.375
vt 0.1875 0.4063
vt 0.25 0.4375
vt 0.25 0.375
vt 0.1875 0.375
vt 0.0625 0.4379
vt 0 0.4379
vt 0 0.5
vt 0.0625 0.5
vt 0 0.4688
vt 0.0625 0.4688
vt 0.0625 0.4375
vt 0 0.4375
vt 0.0625 0.375
vt 0.0625 0.4688
vt 0 0.4688
vt 0 0.375
vt 0.0625 0.4688
vt 0.0625 0.375
vt 0 0.375
vt 0 0.4688
vt 0 0.4688
vt 0.0625 0.4688
vt 0.0625 0.375
vt 0 0.375
vt 0.25 0.4375
vt 0.1875 0.4063
vt 0.1875 0.375
vt 0.25 0.375
vt 0.1875 0.4063
vt 0.25 0.4375
vt 0.25 0.375
vt 0.1875 0.375
vt 0.0625 0.4379
vt 0 0.4379
vt 0 0.5
vt 0.0625 0.5
vt 0 0.4688
vt 0.0625 0.4688
vt 0.0625 0.4375
vt 0 0.4375
vt 0.0625 0.375
vt 0.0625 0.4688
vt 0 0.4688
vt 0 0.375
vt 0.0625 0.4688
vt 0.0625 0.375
vt 0 0.375
vt 0 0.4688
vt 0 0.4688
vt 0.0625 0.4688
vt 0.0625 0.375
vt 0 0.375
vt 0.25 0.4375
vt 0.1875 0.4063
vt 0.1875 0.375
vt 0.25 0.375
vt 0.1875 0.4063
vt 0.25 0.4375
vt 0.25 0.375
vt 0.1875 0.375
vt 0.0625 0.4379
vt 0 0.4379
vt 0 0.5
vt 0.0625 0.5
vt 0 0.4688
vt 0.0625 0.4688
vt 0.0625 0.4375
vt 0 0.4375
vt 0.0625 0.375
vt 0.0625 0.4688
vt 0 0.4688
vt 0 0.375
vt 0.0625 0.4688
vt 0.0625 0.375
vt 0 0.375
vt 0 0.4688
vt 0 0.4688
vt 0.0625 0.4688
vt 0.0625 0.375
vt 0 0.375
vt 0.0625 0.375
vt 0.0625 0.4688
vt 0 0.4688
vt 0 0.375
vt 0.0625 0.4688
vt 0.0625 0.375
vt 0 0.375
vt 0 0.4688
vt 0 0.4688
vt 0.0625 0.4688
vt 0.0625 0.375
vt 0 0.375
vt 0.0625 0.4688
vt 0.0625 0.4375
vt 0 0.4375
vt 0 0.4688
vt 0.1875 0.375
vt 0.25 0.375
vt 0.25 0.4375
vt 0.1875 0.4063
vt 0.0625 0.499
vt 0.0625 0.4385
vt 0 0.4385
vt 0 0.499
vt 0.0625 0.5
vt 0.0625 0.4531
vt 0 0.4531
vt 0 0.5
vt 0.0625 0.5
vt 0.0625 0.4531
vt 0 0.4531
vt 0 0.5
vt 0 0.5
vt 0.0625 0.5
vt 0.0625 0.4531
vt 0 0.4531
vt 0.75 0.875
vt 1 0.875
vt 1 0.75
vt 0.75 0.75
vt 0 0.5
vt 0.5 0.5
vt 0.5 0.25
vt 0 0.25
vt 0 1
vt 0.5 1
vt 0.5 0.75
vt 0 0.75
vt 0 1
vt 0.5 1
vt 0.5 0.875
vt 0 0.875
vt 0.5 1
vt 1 1
vt 1 0.875
vt 0.5 0.875
vt 0.7344 1
vt 0.7656 1
vt 0.7656 0.8906
vt 0.7344 0.8906
vt 0.7344 1
vt 0.7656 1
vt 0.7656 0.8906
vt 0.7344 0.8906
vt 0.7344 1
vt 0.7656 1
vt 0.7656 0.8906
vt 0.7344 0.8906
vt 0.7344 1
vt 0.7656 1
vt 0.7656 0.8906
vt 0.7344 0.8906
vt 0 1
vt 0.5 1
vt 0.5 0.875
vt 0 0.875
vt 0 1
vt 0.5 1
vt 0.5 0.5
vt 0 0.5
vt 0 0.75
vt 0.5 0.75
vt 0.5 0.25
vt 0 0.25
vt 0.5 1
vt 1 1
vt 1 0.875
vt 0.5 0.875
vt 0.5 1
vt 1 1
vt 1 0.875
vt 0.5 0.875
vt 0.25 1
vt 0.75 1
vt 0.75 0.5
vt 0.25 0.5
vt 0.25 0.75
vt 0.75 0.75
vt 0.75 0.25
vt 0.25 0.25
vt 0 1
vt 0.5 1
vt 0.5 0.875
vt 0 0.875
vt 0 1
vt 0.5 1
vt 0.5 0.875
vt 0 0.875
vt 0.25 0.75
vt 0.75 0.75
vt 0.75 0.25
vt 0.25 0.25
vt 0.25 1
vt 0.75 1
vt 0.75 0.5
vt 0.25 0.5
vt 0.5 1
vt 1 1
vt 1 0.875
vt 0.5 0.875
vt 0.5 1
vt 1 1
vt 1 0.875
vt 0.5 0.875
vt 0 0.75
vt 0.5 0.75
vt 0.5 0.25
vt 0 0.25
vt 0 1
vt 0.5 1
vt 0.5 0.5
vt 0 0.5
vt 0 1
vt 0.5 1
vt 0.5 0.875
vt 0 0.875
vt 0 1
vt 0.25 1
vt 0.25 0.9844
vt 0 0.9844
vt 0.25 1
vt 0.75 1
vt 0.75 0.75
vt 0.25 0.75
vt 0 1
vt 0.5 1
vt 0.5 0.75
vt 0 0.75
vt 0 1
vt 0.5 1
vt 0.5 0.9844
vt 0 0.9844
vt 0 1
vt 0.25 1
vt 0.25 0.9844
vt 0 0.9844
vt 0.25 0.5
vt 0.75 0.5
vt 0.75 0.25
vt 0.25 0.25
vt 0 1
vt 0.5 1
vt 0.5 0.75
vt 0 0.75
vt 0 1
vt 0.25 1
vt 0.25 0.9844
vt 0 0.9844
vt 0.2656 0.5781
vt 0.7656 0.5781
vt 0.7656 0.3281
vt 0.2656 0.3281
vt 0 1
vt 0.5 1
vt 0.5 0.75
vt 0 0.75
vt 0 1
vt 0.5 1
vt 0.5 0.9844
vt 0 0.9844
vt 0 1
vt 0.25 1
vt 0.25 0.9844
vt 0 0.9844
vt 0.2656 0.5781
vt 0.7656 0.5781
vt 0.7656 0.3281
vt 0.2656 0.3281
vt 0 1
vt 0.5 1
vt 0.5 0.75
vt 0 0.75
vt 0 1
vt 0.5 1
vt 0.5 0.9844
vt 0 0.9844
vt 0 1
vt 0.5 1
vt 0.5 0.9844
vt 0 0.9844
vt 0 1
vt 0.25 1
vt 0.25 0.9844
vt 0 0.9844
vt 0 1
vt 0.25 1
vt 0.25 0.9844
vt 0 0.9844
vt 0 0.5
vt 0.5 0.5
vt 0.5 0.25
vt 0 0.25
vt 0 1
vt 0.5 1
vt 0.5 0.75
vt 0 0.75
vt 0 1
vt 0.25 1
vt 0.25 0.9844
vt 0 0.9844
vt 0 1
vt 0.25 1
vt 0.25 0.9844
vt 0 0.9844
vt 0 0.625
vt 0.5 0.625
vt 0.5 0.375
vt 0 0.375
vt 0 1
vt 0.5 1
vt 0.5 0.75
vt 0 0.75
vt 0 1
vt 0.5 1
vt 0.5 0.9844
vt 0 0.9844
vt 0 1
vt 0.25 1
vt 0.25 0.9844
vt 0 0.9844
vt 0 1
vt 0.25 1
vt 0.25 0.9844
vt 0 0.9844
vt 0 0.625
vt 0.5 0.625
vt 0.5 0.375
vt 0 0.375
vt 0 1
vt 0.5 1
vt 0.5 0.75
vt 0 0.75
vt 0 1
vt 0.5 1
vt 0.5 0.9844
vt 0 0.9844
vt 0 1
vt 0.25 1
vt 0.25 0.9844
vt 0 0.9844
vt 0 1
vt 0.25 1
vt 0.25 0.9844
vt 0 0.9844
vt 0 1
vt 0.5 1
vt 0.5 0.75
vt 0 0.75
vt 0 1
vt 0.5 1
vt 0.5 0.75
vt 0 0.75
vt 0 1
vt 0.5 1
vt 0.5 0.9844
vt 0 0.9844
vt 0 1
vt 0.5 1
vt 0.5 0.9844
vt 0 0.9844
vt 0.25 1
vt 0.7344 1
vt 0.7344 0.8906
vt 0.25 0.8906
vt 0.0156 1
vt 0.5 1
vt 0.5 0.8906
vt 0.0156 0.8906
vt 0.0156 1
vt 0.5156 1
vt 0.5156 0.8906
vt 0.0156 0.8906
vt 0.2656 1
vt 0.75 1
vt 0.75 0.8906
vt 0.2656 0.8906
vt 0.0156 1
vt 0.5 1
vt 0.5 0.8906
vt 0.0156 0.8906
vt 0.25 1
vt 0.7344 1
vt 0.7344 0.8906
vt 0.25 0.8906
vt 0.2344 1
vt 0.7344 1
vt 0.7344 0.8906
vt 0.2344 0.8906
vt 0 1
vt 0.4844 1
vt 0.4844 0.8906
vt 0 0.8906
vt 0.7344 1
vt 0.7656 1
vt 0.7656 0.8906
vt 0.7344 0.8906
vt 0.7344 1
vt 0.7656 1
vt 0.7656 0.8906
vt 0.7344 0.8906
vt 0.7344 1
vt 0.7656 1
vt 0.7656 0.8906
vt 0.7344 0.8906
vt 0.7344 1
vt 0.7656 1
vt 0.7656 0.8906
vt 0.7344 0.8906
vt 0.75 0.25
vt 0.5 0.25
vt 0.5 0.0156
vt 0.75 0.0156
vt 0.0156 0.5
vt 0.5 0.5
vt 0.5 0.25
vt 0.0156 0.25
vt 0 0.6094
vt 0.125 0.6094
vt 0.125 0.4844
vt 0 0.4844
vt 0.75 0.5938
vt 0.75 0.6094
vt 0.625 0.6094
vt 0.625 0.5938
vt 0.625 0.5
vt 0.625 0.4844
vt 0.75 0.4844
vt 0.75 0.5
vt 0.625 0.6094
vt 0.6406 0.6094
vt 0.6406 0.4844
vt 0.625 0.4844
vt 0.7344 0.6094
vt 0.75 0.6094
vt 0.75 0.4844
vt 0.7344 0.4844
vt 0 1
vt 0.25 1
vt 0.25 0.9844
vt 0 0.9844
vt 0 1
vt 0.5 1
vt 0.5 0.75
vt 0 0.75
vt 0 1
vt 0.5 1
vt 0.5 0.75
vt 0 0.75
vt 0 1
vt 0.5 1
vt 0.5 0.9844
vt 0 0.9844
vt 0 1
vt 0.25 1
vt 0.25 0.9844
vt 0 0.9844
vt 0 0.5
vt 0.5 0.5
vt 0.5 0.25
vt 0 0.25
vt 0 1
vt 0.5 1
vt 0.5 0.75
vt 0 0.75
vt 0 1
vt 0.5 1
vt 0.5 0.9844
vt 0 0.9844
vt 0 1
vt 0.5 1
vt 0.5 0.9844
vt 0 0.9844
vt 0 1
vt 0.25 1
vt 0.25 0.9844
vt 0 0.9844
vt 0 1
vt 0.25 1
vt 0.25 0.9844
vt 0 0.9844
vt 0.25 0.5
vt 0.75 0.5
vt 0.75 0.25
vt 0.25 0.25
vt 0 1
vt 0.5 1
vt 0.5 0.75
vt 0 0.75
vt 0 1
vt 0.5 1
vt 0.5 0.9844
vt 0 0.9844
vt 0 1
vt 0.25 1
vt 0.25 0.9844
vt 0 0.9844
vt 0 1
vt 0.25 1
vt 0.25 0.9844
vt 0 0.9844
vt 0.25 1
vt 0.75 1
vt 0.75 0.75
vt 0.25 0.75
vt 0 1
vt 0.5 1
vt 0.5 0.75
vt 0 0.75
vt 0 1
vt 0.5 1
vt 0.5 0.9844
vt 0 0.9844
vt 0 1
vt 0.5 1
vt 0.5 0.9844
vt 0 0.9844
vt 0.5 1
vt 0.7344 1
vt 0.7344 0.8906
vt 0.5 0.8906
vt 0.0156 1
vt 0.5 1
vt 0.5 0.8906
vt 0.0156 0.8906
vt 0.0156 1
vt 0.25 1
vt 0.25 0.8906
vt 0.0156 0.8906
vt 0.25 1
vt 0.7344 1
vt 0.7344 0.8906
vt 0.25 0.8906
vt 0.7344 1
vt 0.7656 1
vt 0.7656 0.8906
vt 0.7344 0.8906
vt 0.7344 1
vt 0.7656 1
vt 0.7656 0.8906
vt 0.7344 0.8906
vt 0.7344 1
vt 0.7656 1
vt 0.7656 0.8906
vt 0.7344 0.8906
vt 0.7344 1
vt 0.7656 1
vt 0.7656 0.8906
vt 0.7344 0.8906
vt 0.7344 1
vt 0.7656 1
vt 0.7656 0.8906
vt 0.7344 0.8906
vt 0.7344 1
vt 0.7656 1
vt 0.7656 0.8906
vt 0.7344 0.8906
vt 0.7344 1
vt 0.7656 1
vt 0.7656 0.8906
vt 0.7344 0.8906
vt 0.7344 1
vt 0.7656 1
vt 0.7656 0.8906
vt 0.7344 0.8906
vt 0.625 0.6094
vt 0.75 0.6094
vt 0.75 0.4844
vt 0.625 0.4844
vt 0.75 0.5938
vt 0.75 0.6094
vt 0.625 0.6094
vt 0.625 0.5938
vt 0.625 0.5
vt 0.625 0.4844
vt 0.75 0.4844
vt 0.75 0.5
vt 0.625 0.6094
vt 0.6406 0.6094
vt 0.6406 0.4844
vt 0.625 0.4844
vt 0.7344 0.6094
vt 0.75 0.6094
vt 0.75 0.4844
vt 0.7344 0.4844
vt 0.75 0.25
vt 0.5 0.25
vt 0.5 0.0156
vt 0.75 0.0156
vt 0.25 0.5
vt 0.7344 0.5
vt 0.7344 0.25
vt 0.25 0.25
vt 0.7344 0.6406
vt 0.7656 0.6406
vt 0.7656 0.5938
vt 0.7344 0.5938
vt 0.7344 0.6406
vt 0.7656 0.6406
vt 0.7656 0.5938
vt 0.7344 0.5938
vt 0.7344 0.625
vt 0.7656 0.625
vt 0.7656 0.5938
vt 0.7344 0.5938
vt 0.7344 0.625
vt 0.7656 0.625
vt 0.7656 0.5938
vt 0.7344 0.5938
vt 0.7344 0.6406
vt 0.7656 0.6406
vt 0.7656 0.5938
vt 0.7344 0.5938
vt 0.7344 0.6406
vt 0.7656 0.6406
vt 0.7656 0.5938
vt 0.7344 0.5938
vt 0 0.9063
vt 0.25 0.9063
vt 0.25 0.25
vt 0 0.25
vt 0 0.9063
vt 0.25 0.9063
vt 0.25 0.25
vt 0 0.25
vt 0 0.25
vt 0.25 0.25
vt 0.25 0
vt 0 0
vt 0 0.25
vt 0.25 0.25
vt 0.25 0
vt 0 0
vt 0 0.9063
vt 0.25 0.9063
vt 0.25 0.25
vt 0 0.25
vt 0 0.9063
vt 0.25 0.9063
vt 0.25 0.25
vt 0 0.25
vt 0.3594 0.7344
vt 0.375 0.7344
vt 0.375 0.6875
vt 0.3594 0.6875
vt 0.3125 0.7344
vt 0.3281 0.7344
vt 0.3281 0.6875
vt 0.3125 0.6875
vt 0.3125 0.7344
vt 0.375 0.7344
vt 0.375 0.7188
vt 0.3125 0.7188
vt 0.3125 0.7344
vt 0.375 0.7344
vt 0.375 0.6875
vt 0.3125 0.6875
vt 0.4844 0.6094
vt 0.5 0.6094
vt 0.5 0.4844
vt 0.4844 0.4844
vt 0.375 0.6094
vt 0.3906 0.6094
vt 0.3906 0.4844
vt 0.375 0.4844
vt 0.375 0.6094
vt 0.5 0.6094
vt 0.5 0.5938
vt 0.375 0.5938
vt 0.375 0.5
vt 0.5 0.5
vt 0.5 0.4844
vt 0.375 0.4844
vt 0.375 0.6094
vt 0.5 0.6094
vt 0.5 0.4844
vt 0.375 0.4844
vt 0.7344 0.6406
vt 0.7656 0.6406
vt 0.7656 0.5938
vt 0.7344 0.5938
vt 0.7344 0.6406
vt 0.7656 0.6406
vt 0.7656 0.5938
vt 0.7344 0.5938
vt 0.7344 0.625
vt 0.7656 0.625
vt 0.7656 0.5938
vt 0.7344 0.5938
vt 0.7344 0.625
vt 0.7656 0.625
vt 0.7656 0.5938
vt 0.7344 0.5938
vt 0.7344 0.6406
vt 0.7656 0.6406
vt 0.7656 0.5938
vt 0.7344 0.5938
vt 0.7344 0.6406
vt 0.7656 0.6406
vt 0.7656 0.5938
vt 0.7344 0.5938
vt 0 1
vt 0.25 1
vt 0.25 0.9063
vt 0 0.9063
vt 0.7656 0.9219
vt 1 0.9219
vt 1 0.6719
vt 0.7656 0.6719
vt 0.7656 0.9219
vt 1 0.9219
vt 1 0.6719
vt 0.7656 0.6719
vt 0.2344 1
vt 0 1
vt 0 0.9063
vt 0.2344 0.9063
vt 0.9844 0.6563
vt 1 0.6563
vt 1 0
vt 0.9844 0
vt 0.75 0.0156
vt 1 0.0156
vt 1 0
vt 0.75 0
vt 0.75 0.0156
vt 1 0.0156
vt 1 0
vt 0.75 0
vt 0.75 0.6563
vt 1 0.6563
vt 1 0
vt 0.75 0
vt 0.75 0.6563
vt 1 0.6563
vt 1 0
vt 0.75 0
vt 0 1
vt 0.0156 1
vt 0.0156 0.9063
vt 0 0.9063
vt 0 1
vt 0.25 1
vt 0.25 0.9844
vt 0 0.9844
vt 0 1
vt 0.25 1
vt 0.25 0.9844
vt 0 0.9844
vt 0 1
vt 0.25 1
vt 0.25 0.9063
vt 0 0.9063
vt 0 1
vt 0.25 1
vt 0.25 0.9063
vt 0 0.9063
vt 0.3125 0.1875
vt 0.375 0.1875
vt 0.375 0.1719
vt 0.3125 0.1719
vt 0.3109 0.1875
vt 0.3734 0.1875
vt 0.3734 0.1719
vt 0.3109 0.1719
vt 0.25 0.1875
vt 0.4375 0.1875
vt 0.4375 0.125
vt 0.25 0.125
vt 0.25 0.1875
vt 0.4375 0.1875
vt 0.4375 0.1719
vt 0.25 0.1719
vt 0.25 0.1875
vt 0.4375 0.1875
vt 0.4375 0.1719
vt 0.25 0.1719
vt 0.3438 0.1875
vt 0.4063 0.1875
vt 0.4063 0.1719
vt 0.3438 0.1719
vt 0.3109 0.1875
vt 0.3734 0.1875
vt 0.3734 0.1719
vt 0.3109 0.1719
vt 0.25 0.1875
vt 0.4375 0.1875
vt 0.4375 0.125
vt 0.25 0.125
vt 0.25 0.1875
vt 0.4375 0.1875
vt 0.4375 0.1719
vt 0.25 0.1719
vt 0.25 0.1875
vt 0.4375 0.1875
vt 0.4375 0.1719
vt 0.25 0.1719
vt 0 1
vt 0.25 1
vt 0.25 0.9063
vt 0 0.9063
vt 0.7656 0.9219
vt 1 0.9219
vt 1 0.6719
vt 0.7656 0.6719
vt 0.7656 0.9219
vt 1 0.9219
vt 1 0.6719
vt 0.7656 0.6719
vt 0.2344 1
vt 0 1
vt 0 0.9063
vt 0.2344 0.9063
vt 0 1
vt 0.25 1
vt 0.25 0.9063
vt 0 0.9063
vt 0.7656 0.9219
vt 1 0.9219
vt 1 0.6719
vt 0.7656 0.6719
vt 0.7656 0.9219
vt 1 0.9219
vt 1 0.6719
vt 0.7656 0.6719
vt 0.2344 1
vt 0 1
vt 0 0.9063
vt 0.2344 0.9063
vt 0.2969 0.1875
vt 0.3594 0.1875
vt 0.3594 0.1719
vt 0.2969 0.1719
vt 0.3109 0.1875
vt 0.3734 0.1875
vt 0.3734 0.1719
vt 0.3109 0.1719
vt 0.25 0.1875
vt 0.4375 0.1875
vt 0.4375 0.125
vt 0.25 0.125
vt 0.25 0.1875
vt 0.4375 0.1875
vt 0.4375 0.1719
vt 0.25 0.1719
vt 0.25 0.1875
vt 0.4375 0.1875
vt 0.4375 0.1719
vt 0.25 0.1719
vt 0 1
vt 0.0156 1
vt 0.0156 0.9063
vt 0 0.9063
vt 0 1
vt 0.25 1
vt 0.25 0.9844
vt 0 0.9844
vt 0 1
vt 0.25 1
vt 0.25 0.9844
vt 0 0.9844
vt 0 1
vt 0.25 1
vt 0.25 0.9063
vt 0 0.9063
vt 0 1
vt 0.25 1
vt 0.25 0.9063
vt 0 0.9063
vt 0.5313 1
vt 0.5938 1
vt 0.5938 0.9531
vt 0.5313 0.9531
vt 0.4063 1
vt 0.4688 1
vt 0.4688 0.9531
vt 0.4063 0.9531
vt 0.2188 1
vt 0.4063 1
vt 0.4063 0.9531
vt 0.2188 0.9531
vt 0.2188 0.9844
vt 0.4063 0.9844
vt 0.4063 0.9375
vt 0.2188 0.9375
vt 0.7344 0.6406
vt 0.7656 0.6406
vt 0.7656 0.5938
vt 0.7344 0.5938
vt 0.7344 0.6406
vt 0.7656 0.6406
vt 0.7656 0.5938
vt 0.7344 0.5938
vt 0.7344 0.6406
vt 0.7656 0.6406
vt 0.7656 0.5938
vt 0.7344 0.5938
vt 0.7344 0.6406
vt 0.7656 0.6406
vt 0.7656 0.5938
vt 0.7344 0.5938
vt 0.7344 0.6406
vt 0.7656 0.6406
vt 0.7656 0.5938
vt 0.7344 0.5938
vt 0.7344 0.6406
vt 0.7656 0.6406
vt 0.7656 0.5938
vt 0.7344 0.5938
vt 0.7344 0.6406
vt 0.7656 0.6406
vt 0.7656 0.5938
vt 0.7344 0.5938
vt 0.7344 0.6406
vt 0.7656 0.6406
vt 0.7656 0.5938
vt 0.7344 0.5938
vt 0.25 1
vt 0.7188 1
vt 0.7188 0.3438
vt 0.25 0.3438
vt 0.25 1
vt 0.7188 1
vt 0.7188 0.3438
vt 0.25 0.3438
vt 0 1
vt 0.4688 1
vt 0.4688 0.5313
vt 0 0.5313
vt 0 1
vt 0.4688 1
vt 0.4688 0.5313
vt 0 0.5313
vt 0.25 1
vt 0.7188 1
vt 0.7188 0.3438
vt 0.25 0.3438
vt 0.25 1
vt 0.7188 1
vt 0.7188 0.3438
vt 0.25 0.3438
vt 0.4844 0.6094
vt 0.5 0.6094
vt 0.5 0.4844
vt 0.4844 0.4844
vt 0.375 0.6094
vt 0.3906 0.6094
vt 0.3906 0.4844
vt 0.375 0.4844
vt 0.375 0.6094
vt 0.5 0.6094
vt 0.5 0.5938
vt 0.375 0.5938
vt 0.375 0.5
vt 0.5 0.5
vt 0.5 0.4844
vt 0.375 0.4844
vt 0.375 0.6094
vt 0.5 0.6094
vt 0.5 0.4844
vt 0.375 0.4844
vt 0.4844 0.7344
vt 0.5 0.7344
vt 0.5 0.6875
vt 0.4844 0.6875
vt 0.4375 0.7344
vt 0.4531 0.7344
vt 0.4531 0.6875
vt 0.4375 0.6875
vt 0.4375 0.7344
vt 0.5 0.7344
vt 0.5 0.7188
vt 0.4375 0.7188
vt 0.4375 0.7344
vt 0.5 0.7344
vt 0.5 0.6875
vt 0.4375 0.6875
vt 0.7344 0.6406
vt 0.7656 0.6406
vt 0.7656 0.5938
vt 0.7344 0.5938
vt 0.7344 0.6406
vt 0.7656 0.6406
vt 0.7656 0.5938
vt 0.7344 0.5938
vt 0.7344 0.6406
vt 0.7656 0.6406
vt 0.7656 0.5938
vt 0.7344 0.5938
vt 0.7344 0.6406
vt 0.7656 0.6406
vt 0.7656 0.5938
vt 0.7344 0.5938
vt 0.7344 0.6406
vt 0.7656 0.6406
vt 0.7656 0.5938
vt 0.7344 0.5938
vt 0.7344 0.6406
vt 0.7656 0.6406
vt 0.7656 0.5938
vt 0.7344 0.5938
vt 0.7344 0.6406
vt 0.7656 0.6406
vt 0.7656 0.5938
vt 0.7344 0.5938
vt 0.7344 0.6406
vt 0.7656 0.6406
vt 0.7656 0.5938
vt 0.7344 0.5938
vt 0.7344 0.6406
vt 0.7656 0.6406
vt 0.7656 0.5938
vt 0.7344 0.5938
vt 0.7344 0.6406
vt 0.7656 0.6406
vt 0.7656 0.5938
vt 0.7344 0.5938
vt 0.7344 0.6406
vt 0.7656 0.6406
vt 0.7656 0.5938
vt 0.7344 0.5938
vt 0.7344 0.6406
vt 0.7656 0.6406
vt 0.7656 0.5938
vt 0.7344 0.5938
vt 0.7344 0.6406
vt 0.7656 0.6406
vt 0.7656 0.5938
vt 0.7344 0.5938
vt 0.7344 0.6406
vt 0.7656 0.6406
vt 0.7656 0.5938
vt 0.7344 0.5938
vt 0.7344 0.6406
vt 0.7656 0.6406
vt 0.7656 0.5938
vt 0.7344 0.5938
vt 0.7344 0.6406
vt 0.7656 0.6406
vt 0.7656 0.5938
vt 0.7344 0.5938
vt 0 0.3906
vt 0.25 0.3906
vt 0.25 0.3438
vt 0 0.3438
vt 0 0.3906
vt 0.25 0.3906
vt 0.25 0.3438
vt 0 0.3438
vt 0 0.3906
vt 0.25 0.3906
vt 0.25 0.3438
vt 0 0.3438
vt 0 0.3906
vt 0.25 0.3906
vt 0.25 0.3438
vt 0 0.3438
vt 0.75 0.875
vt 1 0.875
vt 1 0.75
vt 0.75 0.75
vt 0.25 0.5
vt 0.75 0.5
vt 0.75 0.25
vt 0.25 0.25
vt 0.25 1
vt 0.75 1
vt 0.75 0.75
vt 0.25 0.75
vt 0.5 1
vt 1 1
vt 1 0.875
vt 0.5 0.875
vt 0 1
vt 0.5 1
vt 0.5 0.875
vt 0 0.875
vt 0.6094 0.3438
vt 0.625 0.3438
vt 0.625 0.0938
vt 0.6094 0.0938
vt 0.25 0.3438
vt 0.2656 0.3438
vt 0.2656 0.0938
vt 0.25 0.0938
vt 0.25 0.3438
vt 0.625 0.3438
vt 0.625 0.3281
vt 0.25 0.3281
vt 0.25 0.1094
vt 0.625 0.1094
vt 0.625 0.0938
vt 0.25 0.0938
vt 0.25 0.3438
vt 0.625 0.3438
vt 0.625 0.0938
vt 0.25 0.0938
vt 0.4219 0.1875
vt 0.4375 0.1875
vt 0.4375 0.125
vt 0.4219 0.125
vt 0.25 0.1875
vt 0.2656 0.1875
vt 0.2656 0.125
vt 0.25 0.125
vt 0.25 0.1875
vt 0.4375 0.1875
vt 0.4375 0.1719
vt 0.25 0.1719
vt 0.25 0.1406
vt 0.4375 0.1406
vt 0.4375 0.125
vt 0.25 0.125
vt 0.25 0.1875
vt 0.4375 0.1875
vt 0.4375 0.125
vt 0.25 0.125
vt 0.0469 0.7344
vt 0.0625 0.7344
vt 0.0625 0.6875
vt 0.0469 0.6875
vt 0 0.7344
vt 0.0156 0.7344
vt 0.0156 0.6875
vt 0 0.6875
vt 0 0.7344
vt 0.0625 0.7344
vt 0.0625 0.7188
vt 0 0.7188
vt 0 0.7344
vt 0.0625 0.7344
vt 0.0625 0.6875
vt 0 0.6875
vt 0.1094 0.8281
vt 0.0156 0.8594
vt 0.0156 0.7656
vt 0.1094 0.7656
vt 0.0156 0.8594
vt 0.1094 0.8281
vt 0.1094 0.7656
vt 0.0156 0.7656
vt 0.1406 0.7031
vt 0.2344 0.7031
vt 0.2344 0.6043
vt 0.1406 0.6043
vt 0.1406 0.7031
vt 0.2344 0.7031
vt 0.2344 0.6406
vt 0.1406 0.6406
vt 0.2344 0.7344
vt 0.2344 0.6094
vt 0.1406 0.6094
vt 0.1406 0.7344
vt 0.2344 0.7344
vt 0.2344 0.6094
vt 0.1406 0.6094
vt 0.1406 0.7344
vt 0.1406 0.7344
vt 0.2344 0.7344
vt 0.2344 0.6094
vt 0.1406 0.6094
vt 0.1094 0.7031
vt 0.1094 0.5938
vt 0.0156 0.5938
vt 0.0156 0.7031
vt 0.0156 0.5938
vt 0.0156 0.7031
vt 0.1094 0.7031
vt 0.1094 0.5938
vt 0.0156 0.6563
vt 0.1094 0.6563
vt 0.1094 0.5469
vt 0.0156 0.5469
vt 0.1406 0.6328
vt 0.1406 0.6797
vt 0.2344 0.6797
vt 0.2344 0.6328
vt 0.1094 0.8438
vt 0.0156 0.8594
vt 0.0156 0.7656
vt 0.1094 0.7656
vt 0.2352 0.7087
vt 0.2352 0.6038
vt 0.1415 0.6038
vt 0.1415 0.7087
vt 0.1094 0.6563
vt 0.1094 0.5938
vt 0.0156 0.5938
vt 0.0156 0.6563
vt 0.1094 0.6563
vt 0.1094 0.5938
vt 0.0156 0.5938
vt 0.0156 0.6563
vt 0.0156 0.5938
vt 0.0156 0.6563
vt 0.1094 0.6563
vt 0.1094 0.5938
vt 0.1406 0.6328
vt 0.1406 0.6797
vt 0.2344 0.6797
vt 0.2344 0.6328
vt 0.1094 0.8438
vt 0.0156 0.8594
vt 0.0156 0.7656
vt 0.1094 0.7656
vt 0.2352 0.7087
vt 0.2352 0.6038
vt 0.1415 0.6038
vt 0.1415 0.7087
vt 0.2344 0.7188
vt 0.2344 0.6094
vt 0.1406 0.6094
vt 0.1406 0.7188
vt 0.1406 0.6094
vt 0.1406 0.7188
vt 0.2344 0.7188
vt 0.2344 0.6094
vt 0.1406 0.7188
vt 0.2344 0.7188
vt 0.2344 0.6094
vt 0.1406 0.6094
vt 0.1094 0.6875
vt 0.1094 0.5625
vt 0.0156 0.5625
vt 0.0156 0.6875
vt 0.1094 0.6875
vt 0.1094 0.5625
vt 0.0156 0.5625
vt 0.0156 0.6875
vt 0.0156 0.6875
vt 0.1094 0.6875
vt 0.1094 0.5625
vt 0.0156 0.5625
vt 0.2969 0.1875
vt 0.3594 0.1875
vt 0.3594 0.1719
vt 0.2969 0.1719
vt 0.3109 0.1875
vt 0.3734 0.1875
vt 0.3734 0.1719
vt 0.3109 0.1719
vt 0.25 0.1875
vt 0.4375 0.1875
vt 0.4375 0.125
vt 0.25 0.125
vt 0.25 0.1875
vt 0.4375 0.1875
vt 0.4375 0.1719
vt 0.25 0.1719
vt 0.25 0.1875
vt 0.4375 0.1875
vt 0.4375 0.1719
vt 0.25 0.1719
vn 0 0 -1
vn 0 0 1
vn 0 1 0
vn -1 0 0
vn 1 0 0
vn 0 1 0
vn 0 0 1
vn 0 0 -1
vn 0 1 0
vn -1 0 0
vn 0 1 0
vn 1 0 0
vn 0 1 0
vn 0 -1 0
vn -1 0 0
vn 1 0 0
vn 0 1 0
vn 0 -1 0
vn -1 0 0
vn 1 0 0
vn 0 0 -1
vn 0 0 1
vn 0 1 0
vn 0 -1 0
vn -1 0 0
vn 1 0 0
vn 0 0 1
vn 0 0 -1
vn 0 -1 0
vn 0 1 0
vn -1 0 0
vn 1 0 0
vn 0 0 -1
vn 0 0 1
vn 0 1 0
vn -1 0 0
vn 1 0 0
vn 0 1 0
vn 0 0 1
vn 0 0 -1
vn 0 1 0
vn -1 0 0
vn 1 0 0
vn 0 1 0
vn 0 0 1
vn 0 1 0
vn -0.89 0 0.45
vn 0 0 -1
vn 0 0 1
vn 0.45 0.89 0
vn 1 0 0
vn 0 0 -1
vn 0 0 1
vn 0 1 0
vn 0 1 0
vn -1 0 0
vn 1 0 0
vn 0 1 0
vn -1 0 0
vn 1 0 0
vn 0 0 -1
vn 0 0 1
vn 0 1 0
vn 0 0 -1
vn 0 0 1
vn 0.45 0.89 0
vn 1 0 0
vn 0 0 -1
vn 0 0 1
vn 0 1 0
vn 0 0 -1
vn 0 0 1
vn 0.45 0.89 0
vn 1 0 0
vn 0 0 -1
vn 0 0 1
vn 0 1 0
vn 0 0 -1
vn 0 0 1
vn 0.45 0.89 0
vn 1 0 0
vn 0 0 -1
vn 0 0 1
vn 0 1 0
vn 0 0 -1
vn 0 0 1
vn 0 1 0
vn 0 0 1
vn 0 1 0
vn -0.89 0 0.45
vn 0 0 -1
vn 0 0 1
vn 0 1 0
vn 0 0 1
vn 0 1 0
vn 0 -1 0
vn -1 0 0
vn 1 0 0
vn 0 0 -1
vn 0 0 1
vn -1 0 0
vn 1 0 0
vn 0 0 1
vn 0 1 0
vn 0 -1 0
vn 1 0 0
vn 0 0 -1
vn 0 1 0
vn 0 -1 0
vn 1 0 0
vn 0 0 -1
vn 0 1 0
vn 0 -1 0
vn -1 0 0
vn 0 0 1
vn 0 1 0
vn 0 -1 0
vn -1 0 0
vn 0 0 -1
vn 0 1 0
vn 0 -1 0
vn 1 0 0
vn 0 0 -1
vn 0 1 0
vn 0 -1 0
vn 0 0 -1
vn 0 1 0
vn 0 -1 0
vn -1 0 0
vn 0 0 -1
vn 0 1 0
vn 0 -1 0
vn -1 0 0
vn 1 0 0
vn 0 0 -1
vn 0 0 1
vn 0 1 0
vn 0 -1 0
vn 0 0 -1
vn 0 0 1
vn 0 1 0
vn 0 -1 0
vn -1 0 0
vn 0 0 -1
vn 0 0 1
vn 0 1 0
vn 0 -1 0
vn -1 0 0
vn 0 0 -1
vn 0 0 1
vn 0 1 0
vn 0 -1 0
vn -1 0 0
vn 1 0 0
vn 0 0 -1
vn 1 0 0
vn 0 0 -1
vn -1 0 0
vn 0 0 1
vn 1 0 0
vn 0 0 1
vn -1 0 0
vn 0 0 -1
vn 0 0 1
vn -1 0 0
vn 1 0 0
vn 0 0 1
vn 0 -1 0
vn 0 0 1
vn 0 1 0
vn 0 -1 0
vn -1 0 0
vn 1 0 0
vn 0 0 1
vn 0 1 0
vn 0 -1 0
vn 1 0 0
vn 0 0 1
vn 0 1 0
vn 0 -1 0
vn -1 0 0
vn 1 0 0
vn 0 0 -1
vn 0 0 1
vn 0 1 0
vn 0 -1 0
vn -1 0 0
vn 0 0 -1
vn 0 0 1
vn 0 1 0
vn 0 -1 0
vn -1 0 0
vn 1 0 0
vn 0 0 1
vn -1 0 0
vn 0 0 -1
vn -1 0 0
vn 0 0 -1
vn 0 0 1
vn -1 0 0
vn 1 0 0
vn 0 0 -1
vn 0 0 1
vn -1 0 0
vn 1 0 0
vn 0 0 -1
vn 0 1 0
vn 0 -1 0
vn -1 0 0
vn 1 0 0
vn 0 0 -1
vn 0 -1 0
vn 0 0 -1
vn 0 0 1
vn 0 1 0
vn 0 -1 0
vn -1 0 0
vn 1 0 0
vn 0 0 -1
vn 0 0 1
vn 0 1 0
vn 0 -1 0
vn -1 0 0
vn 1 0 0
vn 0 0 -1
vn 0 0 1
vn 0 1 0
vn -1 0 0
vn 0 0 -1
vn 0 0 1
vn 0 1 0
vn 0 -1 0
vn -1 0 0
vn 0 0 -1
vn 0 0 1
vn 0 1 0
vn 0 -1 0
vn -1 0 0
vn 1 0 0
vn 0 0 1
vn 0 1 0
vn 0 -1 0
vn 1 0 0
vn 1 0 0
vn 0 1 0
vn 0 -1 0
vn 0 0 -1
vn 0 0 1
vn 1 0 0
vn 0 1 0
vn 0 -1 0
vn 0 0 -1
vn 0 0 1
vn 0 0 -1
vn 0 0 1
vn 0 1 0
vn -1 0 0
vn 1 0 0
vn 0 0 -1
vn 0 0 1
vn 0 -1 0
vn -1 0 0
vn 1 0 0
vn 0 0 1
vn 0 1 0
vn 0 -1 0
vn 1 0 0
vn 0 0 1
vn 0 1 0
vn 0 -1 0
vn 1 0 0
vn 0 0 -1
vn 0 0 1
vn 0 1 0
vn -1 0 0
vn 1 0 0
vn 1 0 0
vn 0 1 0
vn 0 -1 0
vn 0 0 -1
vn 0 0 1
vn 0 0 -1
vn 0 0 1
vn -1 0 0
vn 1 0 0
vn 0 0 -1
vn 0 0 1
vn -1 0 0
vn 1 0 0
vn 0 0 -1
vn 0 0 1
vn -1 0 0
vn 1 0 0
vn 0 0 -1
vn 0 0 1
vn 0 1 0
vn 0 -1 0
vn -1 0 0
vn 1 0 0
vn 0 0 -1
vn 0 0 1
vn 0 1 0
vn 0 -1 0
vn -1 0 0
vn 0 0 -1
vn 0 0 1
vn 0 1 0
vn -1 0 0
vn 0 0 -1
vn 0 0 1
vn -1 0 0
vn 1 0 0
vn 0 0 -1
vn 0 0 1
vn -1 0 0
vn 1 0 0
vn 0 0 -1
vn 0 0 1
vn -1 0 0
vn 1 0 0
vn 0 0 -1
vn 0 0 1
vn -1 0 0
vn 1 0 0
vn 0 0 -1
vn 0 0 1
vn -1 0 0
vn 1 0 0
vn 0 0 -1
vn 0 1 0
vn 0 -1 0
vn -1 0 0
vn 1 0 0
vn 1 0 0
vn -1 0 0
vn 0 1 0
vn 0 -1 0
vn 0 0 -1
vn 0 0 -1
vn 0 0 1
vn 0 1 0
vn 0 -1 0
vn -1 0 0
vn 0 0 -1
vn 0 0 1
vn 0 1 0
vn -1 0 0
vn 0 0 -1
vn 0 0 1
vn -0.32 0.95 0
vn -1 0 0
vn 0 0 -1
vn 0 0 1
vn 0 1 0
vn 0 0 -1
vn 0 0 1
vn 0 1 0
vn 0 0 -1
vn 0 1 0
vn -0.99 0 -0.16
vn 0 1 0
vn -1 0 0
vn 1 0 0
vn 0 0 1
vn 0 1 0
vn 0.99 0 0.16
vn 0 0 -1
vn 0 0 1
vn 0 1 0
vn 0 0 -1
vn 0 0 1
vn 0 1 0
vn 0 0 -1
vn 0 0 1
vn 0 -1 0
vn 1 0 0
vn -1 0 0
usemtl vulcanizer_base1
f 13/1/1 10/2/1 3/3/1
f 13/1/1 3/3/1 5/4/1
f 11/5/2 12/6/2 9/7/2
f 11/5/2 9/7/2 7/8/2
usemtl common_rough_steel
f 17/9/3 14/10/3 11/11/3
f 17/9/3 11/11/3 7/12/3
usemtl vulcanizer_base1
f 15/13/4 16/14/4 8/15/4
f 15/13/4 8/15/4 6/16/4
f 18/17/5 17/18/5 7/19/5
f 18/17/5 7/19/5 9/20/5
usemtl common_rough_steel
f 14/21/6 15/22/6 6/23/6
f 14/21/6 6/23/6 11/24/6
usemtl vulcanizer_base1
f 12/25/7 11/26/7 6/27/7
f 12/25/7 6/27/7 8/28/7
f 10/29/8 13/30/8 4/31/8
f 10/29/8 4/31/8 2/32/8
usemtl common_rough_steel
f 15/33/9 14/34/9 10/35/9
f 15/33/9 10/35/9 2/36/9
usemtl vulcanizer_base1
f 16/37/10 15/38/10 2/39/10
f 16/37/10 2/39/10 4/40/10
usemtl common_rough_steel
f 14/41/11 17/42/11 3/43/11
f 14/41/11 3/43/11 10/44/11
usemtl vulcanizer_base1
f 17/45/12 18/46/12 5/47/12
f 17/45/12 5/47/12 3/48/12
f 24/49/13 20/50/13 19/51/13
f 24/49/13 19/51/13 23/52/13
f 25/53/14 21/54/14 22/55/14
f 25/53/14 22/55/14 26/56/14
f 23/57/15 19/58/15 21/59/15
f 23/57/15 21/59/15 25/60/15
f 20/61/16 24/62/16 26/63/16
f 20/61/16 26/63/16 22/64/16
f 32/65/17 28/66/17 27/67/17
f 32/65/17 27/67/17 31/68/17
f 33/69/18 29/70/18 30/71/18
f 33/69/18 30/71/18 34/72/18
f 31/73/19 27/74/19 29/75/19
f 31/73/19 29/75/19 33/76/19
f 28/77/20 32/78/20 34/79/20
f 28/77/20 34/79/20 30/80/20
f 35/81/21 36/82/21 38/83/21
f 35/81/21 38/83/21 37/84/21
f 20/85/22 27/86/22 29/87/22
f 20/85/22 29/87/22 22/88/22
f 20/89/23 36/90/23 35/91/23
f 20/89/23 35/91/23 27/92/23
f 29/93/24 37/94/24 38/95/24
f 29/93/24 38/95/24 22/96/24
f 27/97/25 35/98/25 37/99/25
f 27/97/25 37/99/25 29/100/25
f 36/101/26 20/102/26 22/103/26
f 36/101/26 22/103/26 38/104/26
f 39/105/27 40/106/27 42/107/27
f 39/105/27 42/107/27 41/108/27
f 26/109/28 33/110/28 31/111/28
f 26/109/28 31/111/28 24/112/28
f 26/113/29 40/114/29 39/115/29
f 26/113/29 39/115/29 33/116/29
f 31/117/30 41/118/30 42/119/30
f 31/117/30 42/119/30 24/120/30
f 33/121/31 39/122/31 41/123/31
f 33/121/31 41/123/31 31/124/31
f 40/125/32 26/126/32 24/127/32
f 40/125/32 24/127/32 42/128/32
usemtl common_steel_norivets
f 54/129/33 51/130/33 44/131/33
f 54/129/33 44/131/33 46/132/33
f 52/133/34 53/134/34 50/135/34
f 52/133/34 50/135/34 48/136/34
f 59/137/35 55/138/35 52/139/35
f 59/137/35 52/139/35 48/140/35
f 56/141/36 57/142/36 49/143/36
f 56/141/36 49/143/36 47/144/36
f 58/145/37 59/146/37 48/147/37
f 58/145/37 48/147/37 50/148/37
f 55/149/38 56/150/38 47/151/38
f 55/149/38 47/151/38 52/152/38
f 53/153/39 52/154/39 47/155/39
f 53/153/39 47/155/39 49/156/39
f 51/157/40 54/158/40 45/159/40
f 51/157/40 45/159/40 43/160/40
f 56/161/41 55/162/41 51/163/41
f 56/161/41 51/163/41 43/164/41
f 57/165/42 56/166/42 43/167/42
f 57/165/42 43/167/42 45/168/42
f 59/169/43 58/170/43 46/171/43
f 59/169/43 46/171/43 44/172/43
f 55/173/44 59/174/44 44/175/44
f 55/173/44 44/175/44 51/176/44
usemtl common_cable_and_pipe
f 64/177/45 63/178/45 65/179/45
f 64/177/45 65/179/45 66/180/45
f 64/181/46 61/182/46 60/183/46
f 64/181/46 60/183/46 63/184/46
f 63/185/47 60/186/47 62/187/47
f 63/185/47 62/187/47 65/188/47
f 67/189/48 68/190/48 70/191/48
f 67/189/48 70/191/48 69/192/48
f 72/193/49 71/194/49 73/195/49
f 72/193/49 73/195/49 74/196/49
f 72/197/50 68/198/50 67/199/50
f 72/197/50 67/199/50 71/200/50
f 68/201/51 72/202/51 74/203/51
f 68/201/51 74/203/51 70/204/51
f 75/205/52 67/206/52 69/207/52
f 75/205/52 69/207/52 76/208/52
f 71/209/53 77/210/53 78/211/53
f 71/209/53 78/211/53 73/212/53
f 71/213/54 67/214/54 75/215/54
f 71/213/54 75/215/54 77/216/54
f 84/217/55 80/218/55 79/219/55
f 84/217/55 79/219/55 83/220/55
f 83/221/56 79/222/56 81/223/56
f 83/221/56 81/223/56 85/224/56
f 80/225/57 84/226/57 86/227/57
f 80/225/57 86/227/57 82/228/57
f 61/229/58 88/230/58 87/231/58
f 61/229/58 87/231/58 60/232/58
f 60/233/59 87/234/59 89/235/59
f 60/233/59 89/235/59 62/236/59
f 88/237/60 61/238/60 91/239/60
f 88/237/60 91/239/60 90/240/60
f 92/241/61 93/242/61 95/243/61
f 92/241/61 95/243/61 94/244/61
f 97/245/62 96/246/62 98/247/62
f 97/245/62 98/247/62 99/248/62
f 97/249/63 93/250/63 92/251/63
f 97/249/63 92/251/63 96/252/63
f 93/253/64 100/254/64 101/255/64
f 93/253/64 101/255/64 95/256/64
f 102/257/65 97/258/65 99/259/65
f 102/257/65 99/259/65 103/260/65
f 102/261/66 100/262/66 93/263/66
f 102/261/66 93/263/66 97/264/66
f 100/265/67 102/266/67 103/267/67
f 100/265/67 103/267/67 101/268/67
f 104/269/68 105/270/68 107/271/68
f 104/269/68 107/271/68 106/272/68
f 109/273/69 108/274/69 110/275/69
f 109/273/69 110/275/69 111/276/69
f 109/277/70 105/278/70 104/279/70
f 109/277/70 104/279/70 108/280/70
f 105/281/71 112/282/71 113/283/71
f 105/281/71 113/283/71 107/284/71
f 114/285/72 109/286/72 111/287/72
f 114/285/72 111/287/72 115/288/72
f 114/289/73 112/290/73 105/291/73
f 114/289/73 105/291/73 109/292/73
f 112/293/74 114/294/74 115/295/74
f 112/293/74 115/295/74 113/296/74
f 116/297/75 117/298/75 119/299/75
f 116/297/75 119/299/75 118/300/75
f 121/301/76 120/302/76 122/303/76
f 121/301/76 122/303/76 123/304/76
f 121/305/77 117/306/77 116/307/77
f 121/305/77 116/307/77 120/308/77
f 117/309/78 124/310/78 125/311/78
f 117/309/78 125/311/78 119/312/78
f 126/313/79 121/314/79 123/315/79
f 126/313/79 123/315/79 127/316/79
f 126/317/80 124/318/80 117/319/80
f 126/317/80 117/319/80 121/320/80
f 124/321/81 126/322/81 127/323/81
f 124/321/81 127/323/81 125/324/81
f 84/325/82 104/326/82 106/327/82
f 84/325/82 106/327/82 86/328/82
f 108/329/83 128/330/83 129/331/83
f 108/329/83 129/331/83 110/332/83
f 108/333/84 104/334/84 84/335/84
f 108/333/84 84/335/84 128/336/84
f 61/337/85 130/338/85 131/339/85
f 61/337/85 131/339/85 91/340/85
f 132/341/86 64/342/86 66/343/86
f 132/341/86 66/343/86 133/344/86
f 132/345/87 130/346/87 61/347/87
f 132/345/87 61/347/87 64/348/87
f 128/349/88 134/350/88 135/351/88
f 128/349/88 135/351/88 129/352/88
f 128/353/89 84/354/89 83/355/89
f 128/353/89 83/355/89 134/356/89
f 134/357/90 83/358/90 85/359/90
f 134/357/90 85/359/90 135/360/90
f 130/361/91 116/362/91 118/363/91
f 130/361/91 118/363/91 131/364/91
f 120/365/92 132/366/92 133/367/92
f 120/365/92 133/367/92 122/368/92
f 120/369/93 116/370/93 130/371/93
f 120/369/93 130/371/93 132/372/93
usemtl common_machinebase
f 141/373/94 140/374/94 142/375/94
f 141/373/94 142/375/94 143/376/94
usemtl common_steel
f 141/377/95 137/378/95 136/379/95
f 141/377/95 136/379/95 140/380/95
usemtl common_bottom
f 142/381/96 138/382/96 139/383/96
f 142/381/96 139/383/96 143/384/96
usemtl common_machinebase
f 140/385/97 136/386/97 138/387/97
f 140/385/97 138/387/97 142/388/97
f 137/389/98 141/390/98 143/391/98
f 137/389/98 143/391/98 139/392/98
usemtl common_steel_norivets
f 144/393/99 145/394/99 147/395/99
f 144/393/99 147/395/99 146/396/99
f 149/397/100 148/398/100 150/399/100
f 149/397/100 150/399/100 151/400/100
f 148/401/101 144/402/101 146/403/101
f 148/401/101 146/403/101 150/404/101
f 145/405/102 149/406/102 151/407/102
f 145/405/102 151/407/102 147/408/102
usemtl common_machinebase
f 157/409/103 156/410/103 158/411/103
f 157/409/103 158/411/103 159/412/103
usemtl common_rough_steel
f 157/413/104 153/414/104 152/415/104
f 157/413/104 152/415/104 156/416/104
usemtl common_bottom
f 158/417/105 154/418/105 155/419/105
f 158/417/105 155/419/105 159/420/105
usemtl common_machinebase
f 153/421/106 157/422/106 159/423/106
f 153/421/106 159/423/106 155/424/106
f 160/425/107 147/426/107 162/427/107
f 160/425/107 162/427/107 161/428/107
usemtl common_rough_steel
f 153/429/108 147/430/108 160/431/108
f 153/429/108 160/431/108 152/432/108
usemtl common_bottom
f 154/433/109 161/434/109 162/435/109
f 154/433/109 162/435/109 155/436/109
usemtl common_machinebase
f 147/437/110 153/438/110 155/439/110
f 147/437/110 155/439/110 162/440/110
f 163/441/111 160/442/111 161/443/111
f 163/441/111 161/443/111 164/444/111
usemtl common_rough_steel
f 152/445/112 160/446/112 163/447/112
f 152/445/112 163/447/112 165/448/112
usemtl common_bottom
f 166/449/113 164/450/113 161/451/113
f 166/449/113 161/451/113 154/452/113
usemtl common_machinebase
f 165/453/114 163/454/114 164/455/114
f 165/453/114 164/455/114 166/456/114
f 156/457/115 167/458/115 168/459/115
f 156/457/115 168/459/115 158/460/115
usemtl common_rough_steel
f 156/461/116 152/462/116 165/463/116
f 156/461/116 165/463/116 167/464/116
usemtl common_bottom
f 168/465/117 166/466/117 154/467/117
f 168/465/117 154/467/117 158/468/117
usemtl common_machinebase
f 167/469/118 165/470/118 166/471/118
f 167/469/118 166/471/118 168/472/118
usemtl common_rough_steel
f 169/473/119 170/474/119 145/475/119
f 169/473/119 145/475/119 171/476/119
f 172/477/120 170/478/120 169/479/120
f 172/477/120 169/479/120 18/480/120
f 173/481/121 171/482/121 145/483/121
f 173/481/121 145/483/121 174/484/121
f 170/485/122 172/486/122 174/487/122
f 170/485/122 174/487/122 145/488/122
f 175/489/123 176/490/123 178/491/123
f 175/489/123 178/491/123 177/492/123
f 180/493/124 176/494/124 175/495/124
f 180/493/124 175/495/124 179/496/124
f 181/497/125 177/498/125 178/499/125
f 181/497/125 178/499/125 182/500/125
f 176/501/126 183/502/126 184/503/126
f 176/501/126 184/503/126 178/504/126
f 185/505/127 183/506/127 176/507/127
f 185/505/127 176/507/127 180/508/127
f 182/509/128 178/510/128 184/511/128
f 182/509/128 184/511/128 186/512/128
f 180/513/129 176/514/129 178/515/129
f 180/513/129 178/515/129 182/516/129
f 183/517/130 169/518/130 171/519/130
f 183/517/130 171/519/130 184/520/130
f 18/521/131 169/522/131 183/523/131
f 18/521/131 183/523/131 185/524/131
f 186/525/132 184/526/132 171/527/132
f 186/525/132 171/527/132 173/528/132
f 185/529/133 183/530/133 184/531/133
f 185/529/133 184/531/133 186/532/133
f 169/533/134 18/534/134 173/535/134
f 169/533/134 173/535/134 171/536/134
f 179/537/135 180/538/135 182/539/135
f 179/537/135 182/539/135 181/540/135
f 188/541/136 187/542/136 189/543/136
f 188/541/136 189/543/136 190/544/136
f 188/545/137 180/546/137 179/547/137
f 188/545/137 179/547/137 187/548/137
f 189/549/138 181/550/138 182/551/138
f 189/549/138 182/551/138 190/552/138
f 180/553/139 185/554/139 186/555/139
f 180/553/139 186/555/139 182/556/139
f 191/557/140 188/558/140 190/559/140
f 191/557/140 190/559/140 192/560/140
f 191/561/141 185/562/141 180/563/141
f 191/561/141 180/563/141 188/564/141
f 190/565/142 182/566/142 186/567/142
f 190/565/142 186/567/142 192/568/142
f 188/569/143 180/570/143 182/571/143
f 188/569/143 182/571/143 190/572/143
f 185/573/144 18/574/144 173/575/144
f 185/573/144 173/575/144 186/576/144
f 193/577/145 191/578/145 192/579/145
f 193/577/145 192/579/145 194/580/145
f 193/581/146 18/582/146 185/583/146
f 193/581/146 185/583/146 191/584/146
f 192/585/147 186/586/147 173/587/147
f 192/585/147 173/587/147 194/588/147
f 191/589/148 185/590/148 186/591/148
f 191/589/148 186/591/148 192/592/148
f 18/593/149 172/594/149 174/595/149
f 18/593/149 174/595/149 173/596/149
f 195/597/150 193/598/150 194/599/150
f 195/597/150 194/599/150 196/600/150
f 195/601/151 172/602/151 18/603/151
f 195/601/151 18/603/151 193/604/151
f 194/605/152 173/606/152 174/607/152
f 194/605/152 174/607/152 196/608/152
f 193/609/153 18/610/153 173/611/153
f 193/609/153 173/611/153 194/612/153
f 172/613/154 195/614/154 196/615/154
f 172/613/154 196/615/154 174/616/154
usemtl common_steel
f 197/617/155 198/618/155 200/619/155
f 197/617/155 200/619/155 199/620/155
f 198/621/156 201/622/156 202/623/156
f 198/621/156 202/623/156 200/624/156
f 203/625/157 197/626/157 199/627/157
f 203/625/157 199/627/157 204/628/157
f 181/629/158 203/630/158 204/631/158
f 181/629/158 204/631/158 165/632/158
f 206/633/159 205/634/159 207/635/159
f 206/633/159 207/635/159 208/636/159
f 201/637/160 206/638/160 208/639/160
f 201/637/160 208/639/160 202/640/160
f 205/641/161 209/642/161 210/643/161
f 205/641/161 210/643/161 207/644/161
f 209/645/162 181/646/162 165/647/162
f 209/645/162 165/647/162 210/648/162
usemtl common_steel_norivets
f 211/649/163 212/650/163 214/651/163
f 211/649/163 214/651/163 213/652/163
f 196/653/164 215/654/164 216/655/164
f 196/653/164 216/655/164 157/656/164
f 215/657/165 211/658/165 213/659/165
f 215/657/165 213/659/165 216/660/165
f 212/661/166 196/662/166 157/663/166
f 212/661/166 157/663/166 214/664/166
usemtl common_steel
f 209/665/167 217/666/167 218/667/167
f 209/665/167 218/667/167 219/668/167
usemtl common_bottom
f 218/669/168 139/670/168 166/671/168
f 218/669/168 166/671/168 219/672/168
usemtl common_thingies
f 225/673/169 224/674/169 226/675/169
f 225/673/169 226/675/169 227/676/169
f 225/677/170 221/678/170 220/679/170
f 225/677/170 220/679/170 224/680/170
f 226/681/171 222/682/171 223/683/171
f 226/681/171 223/683/171 227/684/171
f 224/685/172 220/686/172 222/687/172
f 224/685/172 222/687/172 226/688/172
f 221/689/173 225/690/173 227/691/173
f 221/689/173 227/691/173 223/692/173
usemtl common_rough_steel
f 187/693/174 230/694/174 231/695/174
f 187/693/174 231/695/174 189/696/174
f 187/697/175 179/698/175 228/699/175
f 187/697/175 228/699/175 230/700/175
f 231/701/176 229/702/176 181/703/176
f 231/701/176 181/703/176 189/704/176
f 179/705/177 187/706/177 189/707/177
f 179/705/177 189/707/177 181/708/177
f 230/709/178 234/710/178 235/711/178
f 230/709/178 235/711/178 231/712/178
f 230/713/179 228/714/179 232/715/179
f 230/713/179 232/715/179 234/716/179
f 235/717/180 233/718/180 229/719/180
f 235/717/180 229/719/180 231/720/180
f 234/721/181 232/722/181 233/723/181
f 234/721/181 233/723/181 235/724/181
f 228/725/182 230/726/182 231/727/182
f 228/725/182 231/727/182 229/728/182
f 236/729/183 237/730/183 239/731/183
f 236/729/183 239/731/183 238/732/183
f 228/733/184 232/734/184 233/735/184
f 228/733/184 233/735/184 229/736/184
f 228/737/185 237/738/185 236/739/185
f 228/737/185 236/739/185 232/740/185
f 233/741/186 238/742/186 239/743/186
f 233/741/186 239/743/186 229/744/186
f 232/745/187 236/746/187 238/747/187
f 232/745/187 238/747/187 233/748/187
f 237/749/188 175/750/188 177/751/188
f 237/749/188 177/751/188 239/752/188
f 179/753/189 228/754/189 229/755/189
f 179/753/189 229/755/189 181/756/189
f 179/757/190 175/758/190 237/759/190
f 179/757/190 237/759/190 228/760/190
f 229/761/191 239/762/191 177/763/191
f 229/761/191 177/763/191 181/764/191
f 228/765/192 237/766/192 239/767/192
f 228/765/192 239/767/192 229/768/192
f 175/769/193 179/770/193 181/771/193
f 175/769/193 181/771/193 177/772/193
usemtl common_steel
f 217/773/194 242/774/194 243/775/194
f 217/773/194 243/775/194 244/776/194
f 242/777/195 240/778/195 241/779/195
f 242/777/195 241/779/195 243/780/195
f 245/781/196 246/782/196 248/783/196
f 245/781/196 248/783/196 247/784/196
f 240/785/197 245/786/197 247/787/197
f 240/785/197 247/787/197 241/788/197
usemtl common_steel_norivets
f 249/789/198 250/790/198 252/791/198
f 249/789/198 252/791/198 251/792/198
f 253/793/199 235/794/199 140/795/199
f 253/793/199 140/795/199 254/796/199
f 235/797/200 249/798/200 251/799/200
f 235/797/200 251/799/200 140/800/200
f 250/801/201 253/802/201 254/803/201
f 250/801/201 254/803/201 252/804/201
f 238/805/202 255/806/202 257/807/202
f 238/805/202 257/807/202 256/808/202
f 259/809/203 258/810/203 260/811/203
f 259/809/203 260/811/203 261/812/203
f 258/813/204 238/814/204 256/815/204
f 258/813/204 256/815/204 260/816/204
f 255/817/205 259/818/205 261/819/205
f 255/817/205 261/819/205 257/820/205
usemtl common_thingies
f 262/821/206 263/822/206 265/823/206
f 262/821/206 265/823/206 264/824/206
f 267/825/207 263/826/207 262/827/207
f 267/825/207 262/827/207 266/828/207
f 268/829/208 264/830/208 265/831/208
f 268/829/208 265/831/208 269/832/208
f 266/833/209 262/834/209 264/835/209
f 266/833/209 264/835/209 268/836/209
f 263/837/210 267/838/210 269/839/210
f 263/837/210 269/839/210 265/840/210
usemtl common_steel
f 246/841/211 203/842/211 271/843/211
f 246/841/211 271/843/211 270/844/211
usemtl common_bottom
f 139/845/212 270/846/212 271/847/212
f 139/845/212 271/847/212 166/848/212
usemtl common_steel_norivets
f 272/849/213 273/850/213 275/851/213
f 272/849/213 275/851/213 274/852/213
f 277/853/214 276/854/214 278/855/214
f 277/853/214 278/855/214 279/856/214
f 277/857/215 273/858/215 272/859/215
f 277/857/215 272/859/215 276/860/215
f 278/861/216 274/862/216 275/863/216
f 278/861/216 275/863/216 279/864/216
f 276/865/217 272/866/217 274/867/217
f 276/865/217 274/867/217 278/868/217
f 273/869/218 277/870/218 279/871/218
f 273/869/218 279/871/218 275/872/218
usemtl vulcanizer_base2
f 280/873/219 281/874/219 283/875/219
f 280/873/219 283/875/219 282/876/219
f 285/877/220 284/878/220 286/879/220
f 285/877/220 286/879/220 287/880/220
f 285/881/221 281/882/221 280/883/221
f 285/881/221 280/883/221 284/884/221
f 286/885/222 282/886/222 283/887/222
f 286/885/222 283/887/222 287/888/222
f 284/889/223 280/890/223 282/891/223
f 284/889/223 282/891/223 286/892/223
f 281/893/224 285/894/224 287/895/224
f 281/893/224 287/895/224 283/896/224
usemtl common_thingies
f 288/897/225 289/898/225 291/899/225
f 288/897/225 291/899/225 290/900/225
f 293/901/226 292/902/226 294/903/226
f 293/901/226 294/903/226 295/904/226
f 293/905/227 289/906/227 288/907/227
f 293/905/227 288/907/227 292/908/227
f 292/909/228 288/910/228 290/911/228
f 292/909/228 290/911/228 294/912/228
f 296/913/229 297/914/229 299/915/229
f 296/913/229 299/915/229 298/916/229
f 301/917/230 300/918/230 302/919/230
f 301/917/230 302/919/230 303/920/230
f 301/921/231 297/922/231 296/923/231
f 301/921/231 296/923/231 300/924/231
f 302/925/232 298/926/232 299/927/232
f 302/925/232 299/927/232 303/928/232
f 300/929/233 296/930/233 298/931/233
f 300/929/233 298/931/233 302/932/233
usemtl common_steel_norivets
f 304/933/234 305/934/234 307/935/234
f 304/933/234 307/935/234 306/936/234
f 309/937/235 308/938/235 310/939/235
f 309/937/235 310/939/235 311/940/235
f 309/941/236 305/942/236 304/943/236
f 309/941/236 304/943/236 308/944/236
f 310/945/237 306/946/237 307/947/237
f 310/945/237 307/947/237 311/948/237
f 308/949/238 304/950/238 306/951/238
f 308/949/238 306/951/238 310/952/238
f 305/953/239 309/954/239 311/955/239
f 305/953/239 311/955/239 307/956/239
usemtl vulcanizer_base2
f 314/957/240 285/958/240 315/959/240
f 314/957/240 315/959/240 316/960/240
usemtl vulcanizer_base3
f 314/961/241 318/962/241 320/963/241
f 314/961/241 320/963/241 285/964/241
f 315/965/242 312/966/242 313/967/242
f 315/965/242 313/967/242 316/968/242
usemtl vulcanizer_base2
f 318/969/243 314/970/243 316/971/243
f 318/969/243 316/971/243 313/972/243
usemtl vulcanizer_base3
f 317/973/244 318/974/244 356/975/244
f 317/973/244 356/975/244 319/976/244
f 320/977/245 318/978/245 317/979/245
f 320/977/245 317/979/245 281/980/245
f 283/981/246 319/982/246 356/983/246
f 283/981/246 356/983/246 355/984/246
f 281/985/247 317/986/247 319/987/247
f 281/985/247 319/987/247 283/988/247
f 318/989/248 320/990/248 355/991/248
f 318/989/248 355/991/248 356/992/248
usemtl vulcanizer_base2
f 321/993/249 322/994/249 324/995/249
f 321/993/249 324/995/249 323/996/249
f 326/997/250 322/998/250 321/999/250
f 326/997/250 321/999/250 325/1000/250
f 327/1001/251 323/1002/251 324/1003/251
f 327/1001/251 324/1003/251 328/1004/251
f 325/1005/252 321/1006/252 323/1007/252
f 325/1005/252 323/1007/252 327/1008/252
f 322/1009/253 326/1010/253 328/1011/253
f 322/1009/253 328/1011/253 324/1012/253
usemtl common_thingies
f 329/1013/254 330/1014/254 332/1015/254
f 329/1013/254 332/1015/254 331/1016/254
f 334/1017/255 333/1018/255 335/1019/255
f 334/1017/255 335/1019/255 336/1020/255
f 334/1021/256 330/1022/256 329/1023/256
f 334/1021/256 329/1023/256 333/1024/256
f 333/1025/257 329/1026/257 331/1027/257
f 333/1025/257 331/1027/257 335/1028/257
f 330/1029/258 334/1030/258 336/1031/258
f 330/1029/258 336/1031/258 332/1032/258
f 337/1033/259 338/1034/259 340/1035/259
f 337/1033/259 340/1035/259 339/1036/259
f 342/1037/260 341/1038/260 343/1039/260
f 342/1037/260 343/1039/260 344/1040/260
f 343/1041/261 339/1042/261 340/1043/261
f 343/1041/261 340/1043/261 344/1044/261
f 341/1045/262 337/1046/262 339/1047/262
f 341/1045/262 339/1047/262 343/1048/262
f 338/1049/263 342/1050/263 344/1051/263
f 338/1049/263 344/1051/263 340/1052/263
usemtl vulcanizer_base2
f 350/1053/264 349/1054/264 351/1055/264
f 350/1053/264 351/1055/264 352/1056/264
usemtl vulcanizer_base3
f 350/1057/265 346/1058/265 345/1059/265
f 350/1057/265 345/1059/265 349/1060/265
f 351/1061/266 347/1062/266 348/1063/266
f 351/1061/266 348/1063/266 352/1064/266
usemtl vulcanizer_base2
f 346/1065/267 350/1066/267 352/1067/267
f 346/1065/267 352/1067/267 348/1068/267
f 1/1069/268 357/1070/268 287/1071/268
f 1/1069/268 287/1071/268 358/1072/268
usemtl vulcanizer_base3
f 1/1073/269 354/1074/269 353/1075/269
f 1/1073/269 353/1075/269 357/1076/269
f 287/1077/270 355/1078/270 356/1079/270
f 287/1077/270 356/1079/270 358/1080/270
usemtl vulcanizer_base2
f 354/1081/271 1/1082/271 358/1083/271
f 354/1081/271 358/1083/271 356/1084/271
usemtl common_thingies
f 359/1085/272 360/1086/272 362/1087/272
f 359/1085/272 362/1087/272 361/1088/272
f 364/1089/273 363/1090/273 365/1091/273
f 364/1089/273 365/1091/273 366/1092/273
f 364/1093/274 360/1094/274 359/1095/274
f 364/1093/274 359/1095/274 363/1096/274
f 363/1097/275 359/1098/275 361/1099/275
f 363/1097/275 361/1099/275 365/1100/275
f 360/1101/276 364/1102/276 366/1103/276
f 360/1101/276 366/1103/276 362/1104/276
usemtl vulcanizer_base2
f 367/1105/277 368/1106/277 370/1107/277
f 367/1105/277 370/1107/277 369/1108/277
f 372/1109/278 368/1110/278 367/1111/278
f 372/1109/278 367/1111/278 371/1112/278
f 373/1113/279 369/1114/279 370/1115/279
f 373/1113/279 370/1115/279 374/1116/279
f 371/1117/280 367/1118/280 369/1119/280
f 371/1117/280 369/1119/280 373/1120/280
f 368/1121/281 372/1122/281 374/1123/281
f 368/1121/281 374/1123/281 370/1124/281
usemtl common_steel_norivets
f 375/1125/282 376/1126/282 378/1127/282
f 375/1125/282 378/1127/282 377/1128/282
f 380/1129/283 379/1130/283 381/1131/283
f 380/1129/283 381/1131/283 382/1132/283
f 379/1133/284 375/1134/284 377/1135/284
f 379/1133/284 377/1135/284 381/1136/284
f 376/1137/285 380/1138/285 382/1139/285
f 376/1137/285 382/1139/285 378/1140/285
f 383/1141/286 384/1142/286 386/1143/286
f 383/1141/286 386/1143/286 385/1144/286
f 388/1145/287 387/1146/287 389/1147/287
f 388/1145/287 389/1147/287 390/1148/287
f 387/1149/288 383/1150/288 385/1151/288
f 387/1149/288 385/1151/288 389/1152/288
f 384/1153/289 388/1154/289 390/1155/289
f 384/1153/289 390/1155/289 386/1156/289
f 391/1157/290 392/1158/290 394/1159/290
f 391/1157/290 394/1159/290 393/1160/290
f 396/1161/291 395/1162/291 397/1163/291
f 396/1161/291 397/1163/291 398/1164/291
f 395/1165/292 391/1166/292 393/1167/292
f 395/1165/292 393/1167/292 397/1168/292
f 392/1169/293 396/1170/293 398/1171/293
f 392/1169/293 398/1171/293 394/1172/293
usemtl vulcanizer_base2
f 399/1173/294 400/1174/294 402/1175/294
f 399/1173/294 402/1175/294 401/1176/294
f 404/1177/295 403/1178/295 405/1179/295
f 404/1177/295 405/1179/295 406/1180/295
usemtl vulcanizer_base4
f 404/1181/296 400/1182/296 399/1183/296
f 404/1181/296 399/1183/296 403/1184/296
f 405/1185/297 401/1186/297 402/1187/297
f 405/1185/297 402/1187/297 406/1188/297
usemtl vulcanizer_base2
f 403/1189/298 399/1190/298 401/1191/298
f 403/1189/298 401/1191/298 405/1192/298
f 400/1193/299 404/1194/299 406/1195/299
f 400/1193/299 406/1195/299 402/1196/299
usemtl common_thingies
f 407/1197/300 408/1198/300 410/1199/300
f 407/1197/300 410/1199/300 409/1200/300
f 412/1201/301 411/1202/301 413/1203/301
f 412/1201/301 413/1203/301 414/1204/301
f 412/1205/302 408/1206/302 407/1207/302
f 412/1205/302 407/1207/302 411/1208/302
f 413/1209/303 409/1210/303 410/1211/303
f 413/1209/303 410/1211/303 414/1212/303
f 411/1213/304 407/1214/304 409/1215/304
f 411/1213/304 409/1215/304 413/1216/304
f 415/1217/305 416/1218/305 418/1219/305
f 415/1217/305 418/1219/305 417/1220/305
f 420/1221/306 419/1222/306 421/1223/306
f 420/1221/306 421/1223/306 422/1224/306
f 420/1225/307 416/1226/307 415/1227/307
f 420/1225/307 415/1227/307 419/1228/307
f 419/1229/308 415/1230/308 417/1231/308
f 419/1229/308 417/1231/308 421/1232/308
usemtl common_steel_norivets
f 423/1233/309 424/1234/309 426/1235/309
f 423/1233/309 426/1235/309 425/1236/309
f 428/1237/310 427/1238/310 429/1239/310
f 428/1237/310 429/1239/310 430/1240/310
f 427/1241/311 423/1242/311 425/1243/311
f 427/1241/311 425/1243/311 429/1244/311
f 424/1245/312 428/1246/312 430/1247/312
f 424/1245/312 430/1247/312 426/1248/312
f 431/1249/313 432/1250/313 434/1251/313
f 431/1249/313 434/1251/313 433/1252/313
f 436/1253/314 435/1254/314 437/1255/314
f 436/1253/314 437/1255/314 438/1256/314
f 435/1257/315 431/1258/315 433/1259/315
f 435/1257/315 433/1259/315 437/1260/315
f 432/1261/316 436/1262/316 438/1263/316
f 432/1261/316 438/1263/316 434/1264/316
f 439/1265/317 440/1266/317 442/1267/317
f 439/1265/317 442/1267/317 441/1268/317
f 444/1269/318 443/1270/318 445/1271/318
f 444/1269/318 445/1271/318 446/1272/318
f 443/1273/319 439/1274/319 441/1275/319
f 443/1273/319 441/1275/319 445/1276/319
f 440/1277/320 444/1278/320 446/1279/320
f 440/1277/320 446/1279/320 442/1280/320
f 447/1281/321 448/1282/321 450/1283/321
f 447/1281/321 450/1283/321 449/1284/321
f 452/1285/322 451/1286/322 453/1287/322
f 452/1285/322 453/1287/322 454/1288/322
f 451/1289/323 447/1290/323 449/1291/323
f 451/1289/323 449/1291/323 453/1292/323
f 448/1293/324 452/1294/324 454/1295/324
f 448/1293/324 454/1295/324 450/1296/324
usemtl common_thingies
f 455/1297/325 456/1298/325 458/1299/325
f 455/1297/325 458/1299/325 457/1300/325
f 460/1301/326 459/1302/326 461/1303/326
f 460/1301/326 461/1303/326 462/1304/326
f 459/1305/327 455/1306/327 457/1307/327
f 459/1305/327 457/1307/327 461/1308/327
f 456/1309/328 460/1310/328 462/1311/328
f 456/1309/328 462/1311/328 458/1312/328
usemtl common_machinebase
f 256/1313/329 463/1314/329 465/1315/329
f 256/1313/329 465/1315/329 464/1316/329
usemtl common_steel
f 137/1317/330 463/1318/330 256/1319/330
f 137/1317/330 256/1319/330 136/1320/330
usemtl common_bottom
f 138/1321/331 464/1322/331 465/1323/331
f 138/1321/331 465/1323/331 139/1324/331
usemtl common_machinebase
f 136/1325/332 256/1326/332 464/1327/332
f 136/1325/332 464/1327/332 138/1328/332
f 463/1329/333 137/1330/333 139/1331/333
f 463/1329/333 139/1331/333 465/1332/333
usemtl vulcanizer_base2
f 466/1333/334 467/1334/334 469/1335/334
f 466/1333/334 469/1335/334 468/1336/334
f 471/1337/335 470/1338/335 472/1339/335
f 471/1337/335 472/1339/335 473/1340/335
f 471/1341/336 467/1342/336 466/1343/336
f 471/1341/336 466/1343/336 470/1344/336
f 472/1345/337 468/1346/337 469/1347/337
f 472/1345/337 469/1347/337 473/1348/337
f 470/1349/338 466/1350/338 468/1351/338
f 470/1349/338 468/1351/338 472/1352/338
usemtl common_thingies
f 474/1353/339 475/1354/339 477/1355/339
f 474/1353/339 477/1355/339 476/1356/339
f 479/1357/340 478/1358/340 480/1359/340
f 479/1357/340 480/1359/340 481/1360/340
f 479/1361/341 475/1362/341 474/1363/341
f 479/1361/341 474/1363/341 478/1364/341
f 480/1365/342 476/1366/342 477/1367/342
f 480/1365/342 477/1367/342 481/1368/342
f 478/1369/343 474/1370/343 476/1371/343
f 478/1369/343 476/1371/343 480/1372/343
f 482/1373/344 483/1374/344 485/1375/344
f 482/1373/344 485/1375/344 484/1376/344
f 487/1377/345 486/1378/345 488/1379/345
f 487/1377/345 488/1379/345 489/1380/345
f 487/1381/346 483/1382/346 482/1383/346
f 487/1381/346 482/1383/346 486/1384/346
f 486/1385/347 482/1386/347 484/1387/347
f 486/1385/347 484/1387/347 488/1388/347
usemtl common_cable_and_pipe
f 490/1389/348 491/1390/348 493/1391/348
f 490/1389/348 493/1391/348 492/1392/348
f 495/1393/349 494/1394/349 496/1395/349
f 495/1393/349 496/1395/349 497/1396/349
f 495/1397/350 491/1398/350 490/1399/350
f 495/1397/350 490/1399/350 494/1400/350
f 494/1401/351 490/1402/351 492/1403/351
f 494/1401/351 492/1403/351 496/1404/351
f 498/1405/352 499/1406/352 501/1407/352
f 498/1405/352 501/1407/352 500/1408/352
f 503/1409/353 502/1410/353 504/1411/353
f 503/1409/353 504/1411/353 505/1412/353
f 503/1413/354 499/1414/354 498/1415/354
f 503/1413/354 498/1415/354 502/1416/354
f 506/1417/355 498/1418/355 500/1419/355
f 506/1417/355 500/1419/355 507/1420/355
f 502/1421/356 508/1422/356 509/1423/356
f 502/1421/356 509/1423/356 504/1424/356
f 502/1425/357 498/1426/357 506/1427/357
f 502/1425/357 506/1427/357 508/1428/357
f 512/1429/358 506/1430/358 507/1431/358
f 512/1429/358 507/1431/358 513/1432/358
f 512/1433/359 510/1434/359 508/1435/359
f 512/1433/359 508/1435/359 506/1436/359
f 510/1437/360 512/1438/360 513/1439/360
f 510/1437/360 513/1439/360 511/1440/360
f 515/1441/361 508/1442/361 510/1443/361
f 515/1441/361 510/1443/361 514/1444/361
f 514/1445/362 510/1446/362 511/1447/362
f 514/1445/362 511/1447/362 516/1448/362
f 508/1449/363 515/1450/363 517/1451/363
f 508/1449/363 517/1451/363 509/1452/363
f 519/1453/364 518/1454/364 520/1455/364
f 519/1453/364 520/1455/364 521/1456/364
f 519/1457/365 515/1458/365 514/1459/365
f 519/1457/365 514/1459/365 518/1460/365
f 515/1461/366 519/1462/366 521/1463/366
f 515/1461/366 521/1463/366 517/1464/366
f 522/1465/367 514/1466/367 516/1467/367
f 522/1465/367 516/1467/367 523/1468/367
f 518/1469/368 524/1470/368 525/1471/368
f 518/1469/368 525/1471/368 520/1472/368
f 518/1473/369 514/1474/369 522/1475/369
f 518/1473/369 522/1475/369 524/1476/369
f 491/1477/370 522/1478/370 523/1479/370
f 491/1477/370 523/1479/370 493/1480/370
f 524/1481/371 495/1482/371 497/1483/371
f 524/1481/371 497/1483/371 525/1484/371
f 524/1485/372 522/1486/372 491/1487/372
f 524/1485/372 491/1487/372 495/1488/372
usemtl common_thingies
f 526/1489/373 527/1490/373 529/1491/373
f 526/1489/373 529/1491/373 528/1492/373
f 531/1493/374 530/1494/374 532/1495/374
f 531/1493/374 532/1495/374 533/1496/374
f 531/1497/375 527/1498/375 526/1499/375
f 531/1497/375 526/1499/375 530/1500/375
f 530/1501/376 526/1502/376 528/1503/376
f 530/1501/376 528/1503/376 532/1504/376
f 527/1505/377 531/1506/377 533/1507/377
f 527/1505/377 533/1507/377 529/1508/377