# Made by Pabilo8 with Blockbench
# Exported with IIToolkit Plugin on 09/10/2026
mtllib vulcanizer.mtl

o main
v 1.9375 0.5625 3
v 0.375 0.5 0.3125
v -1 0.5 0.3125
v 0.375 0 0.3125
v -1 0 0.3125
v 0.375 0.5 1.6875
v -1 0.5 1.6875
v 0.375 0 1.6875
v -1 0 1.6875
v -0.3125 0.5 0.3125
v -0.3125 0.5 1.6875
v -0.3125 0 1.6875
v -0.3125 0 0.3125
v -0.3125 0.5 1
v 0.375 0.5 1
v 0.375 0 1
v -1 0.5 1
v -1 0 1
v -0.9375 0.5625 0.375
v -1.125 0.5625 0.375
v -0.9375 0.375 0.375
v -1.125 0.375 0.375
v -0.9375 0.5625 1.625
v -1.125 0.5625 1.625
v -0.9375 0.375 1.625
v -1.125 0.375 1.625
v 0.5 0.5625 0.375
v 0.3125 0.5625 0.375
v 0.5 0.375 0.375
v 0.3125 0.375 0.375
v 0.5 0.5625 1.625
v 0.3125 0.5625 1.625
v 0.5 0.375 1.625
v 0.3125 0.375 1.625
v 0.5 0.5625 0.1875
v -1.125 0.5625 0.1875
v 0.5 0.375 0.1875
v -1.125 0.375 0.1875
v 0.5 0.375 1.8125
v -1.125 0.375 1.8125
v 0.5 0.5625 1.8125
v -1.125 0.5625 1.8125
v 0.25 0.5625 0.4375
v -0.875 0.5625 0.4375
v 0.25 0.5 0.4375
v -0.875 0.5 0.4375
v 0.25 0.5625 1.5625
v -0.875 0.5625 1.5625
v 0.25 0.5 1.5625
v -0.875 0.5 1.5625
v -0.3125 0.5625 0.4375
v -0.3125 0.5625 1.5625
v -0.3125 0.5 1.5625
v -0.3125 0.5 0.4375
v -0.3125 0.5625 1
v 0.25 0.5625 1
v 0.25 0.5 1
v -0.875 0.5 1
v -0.875 0.5625 1
v 0.0625 0.25 2.4375
v -0.1875 0.25 2.4375
v 0.0625 0 2.4375
v -0.0625 0.25 2.6875
v -0.1875 0.25 2.6875
v -0.0625 0 2.6875
v -0.1875 0 2.6875
v -1.4375 0.25 0.5625
v -1.6875 0.125 0.5625
v -1.4375 0 0.5625
v -1.6875 0 0.5625
v -1.4375 0.25 0.8125
v -1.6875 0.125 0.8125
v -1.4375 0 0.8125
v -1.6875 0 0.8125
v -1.0625 0.25 0.5625
v -1.0625 0 0.5625
v -1.0625 0.25 0.8125
v -1.0625 0 0.8125
v -0.4375 0.25 1.6875
v -0.6875 0.25 1.6875
v -0.4375 0 1.6875
v -0.6875 0 1.6875
v -0.4375 0.25 1.9375
v -0.6875 0.25 1.9375
v -0.4375 0 1.9375
v -0.6875 0 1.9375
v 0.0625 0.25 1.6875
v -0.1875 0.25 1.6875
v 0.0625 0 1.6875
v -0.1875 0 1.6875
v -0.1875 0 2.4375
v -1.0625 0.25 1.1875
v -1.4375 0.25 1.1875
v -1.0625 0 1.1875
v -1.4375 0 1.1875
v -1.0625 0.25 1.4375
v -1.4375 0.25 1.4375
v -1.0625 0 1.4375
v -1.4375 0 1.4375
v -1.6875 0.125 1.1875
v -1.6875 0 1.1875
v -1.6875 0.125 1.4375
v -1.6875 0 1.4375
v -1.0625 0.25 1.9375
v -1.4375 0.25 1.9375
v -1.0625 0 1.9375
v -1.4375 0 1.9375
v -1.0625 0.25 2.1875
v -1.4375 0.25 2.1875
v -1.0625 0 2.1875
v -1.4375 0 2.1875
v -1.6875 0.125 1.9375
v -1.6875 0 1.9375
v -1.6875 0.125 2.1875
v -1.6875 0 2.1875
v -0.75 0.25 2.4375
v -1.125 0.25 2.4375
v -0.75 0 2.4375
v -1.125 0 2.4375
v -0.75 0.25 2.6875
v -1.125 0.25 2.6875
v -0.75 0 2.6875
v -1.125 0 2.6875
v -1.375 0.125 2.4375
v -1.375 0 2.4375
v -1.375 0.125 2.6875
v -1.375 0 2.6875
v -0.6875 0.25 2.1875
v -0.6875 0 2.1875
v -0.5625 0.25 2.4375
v -0.5625 0 2.4375
v -0.5625 0.25 2.6875
v -0.5625 0 2.6875
v -0.5625 0.25 2.1875
v -0.5625 0 2.1875
v 4 -0.5 1
v 3 -0.5 1
v 4 -1 1
v 3 -1 1
v 4 -0.5 3
v 3 -0.5 3
v 4 -1 3
v 3 -1 3
v -1.875 -0.0625 -1
v -2 -0.0625 -1
v -1.875 -0.5 -1
v -2 -0.5 -1
v -1.875 -0.0625 -0.875
v -2 -0.0625 -0.875
v -1.875 -0.5 -0.875
v -2 -0.5 -0.875
v 0 -0.5 1
v -2 -0.5 1
v 0 -1 1
v -2 -1 1
v 0 -0.5 3
v -2 -0.5 3
v 0 -1 3
v -2 -1 3
v 0 -0.5 -1
v 0 -1 -1
v -2 -1 -1
v 2 -0.5 -1
v 2 -1 -1
v 2 -0.5 1
v 2 -1 1
v 2 -0.5 3
v 2 -1 3
v -1 0 -1
v -2 0 -1
v -1 -0.0625 -1
v -2 0 1
v -1 -0.0625 1
v -2 -0.0625 1
v 2 0 -1
v 1 0 -1
v 2 -0.0625 -1
v 1 -0.0625 -1
v 2 0 1
v 1 0 1
v 2 -0.0625 1
v 1 -0.0625 1
v 0 0 -1
v 0 -0.0625 -1
v 0 0 1
v 0 -0.0625 1
v 2 0 3
v 1 0 3
v 2 -0.0625 3
v 1 -0.0625 3
v 0 0 3
v 0 -0.0625 3
v -1 0 3
v -1 -0.0625 3
v -2 0 3
v -2 -0.0625 3
v 0 -0.0625 -0.9375
v -1.9375 -0.0625 -0.9375
v 0 -0.5 -0.9375
v -1.9375 -0.5 -0.9375
v -1.9375 -0.0625 1
v -1.9375 -0.5 1
v 2 -0.0625 -0.9375
v 2 -0.5 -0.9375
v 0 -0.0625 2.9375
v -1.9375 -0.0625 2.9375
v 0 -0.5 2.9375
v -1.9375 -0.5 2.9375
v 2 -0.0625 2.9375
v 2 -0.5 2.9375
v -1.875 -0.0625 2.875
v -2 -0.0625 2.875
v -1.875 -0.5 2.875
v -2 -0.5 2.875
v -1.875 -0.0625 3
v -1.875 -0.5 3
v 3 -0.0625 2.9375
v 3 -1 2.9375
v 2 -1 2.9375
v 2.75 -0.3125 2.9375
v 2.25 -0.3125 2.9375
v 2.75 -0.8125 2.9375
v 2.25 -0.8125 2.9375
v 2.75 -0.3125 3
v 2.25 -0.3125 3
v 2.75 -0.8125 3
v 2.25 -0.8125 3
v 3 0 1
v 3 -0.0625 1
v 3 0 3
v 3 -0.0625 3
v 4 0 1
v 4 -0.0625 1
v 4 0 3
v 4 -0.0625 3
v 4 0 -1
v 3 0 -1
v 4 -0.0625 -1
v 3 -0.0625 -1
v 3.9375 -0.0625 1
v 3.9375 -0.5 1
v 3.9375 -0.0625 2.9375
v 3.9375 -0.5 2.9375
v 3 -0.5 2.9375
v 3.9375 -0.0625 -0.9375
v 3 -0.0625 -0.9375
v 3.9375 -0.5 -0.9375
v 3 -0.5 -0.9375
v 4 -0.0625 2.875
v 3.875 -0.0625 2.875
v 4 -0.5 2.875
v 3.875 -0.5 2.875
v 3.875 -0.0625 3
v 3.875 -0.5 3
v 3.875 -0.0625 -1
v 4 -0.5 -1
v 3.875 -0.5 -1
v 4 -0.0625 -0.875
v 3.875 -0.0625 -0.875
v 4 -0.5 -0.875
v 3.875 -0.5 -0.875
v 2.75 -0.3125 -1
v 2.25 -0.3125 -1
v 2.75 -0.8125 -1
v 2.25 -0.8125 -1
v 2.75 -0.3125 -0.9375
v 2.25 -0.3125 -0.9375
v 2.75 -0.8125 -0.9375
v 2.25 -0.8125 -0.9375
v 3 -1 -0.9375
v 2 -1 -0.9375
v 3.875 0.1875 2.8125
v 3.75 0.1875 2.8125
v 3.875 0 2.8125
v 3.75 0 2.8125
v 3.875 0.1875 2.9375
v 3.75 0.1875 2.9375
v 3.875 0 2.9375
v 3.75 0 2.9375
v 3.9375 2.8125 2
v 2.9375 2.8125 2
v 3.9375 0.1875 2
v 2.9375 0.1875 2
v 3.9375 2.8125 3
v 2.9375 2.8125 3
v 3.9375 0.1875 3
v 2.9375 0.1875 3
v 4 1.9375 2.375
v 3.9375 1.9375 2.375
v 4 1.75 2.375
v 3.9375 1.75 2.375
v 4 1.9375 2.625
v 3.9375 1.9375 2.625
v 4 1.75 2.625
v 3.9375 1.75 2.625
v 4 1.75 2.25
v 3.9375 1.75 2.25
v 4 1.25 2.25
v 3.9375 1.25 2.25
v 4 1.75 2.75
v 3.9375 1.75 2.75
v 4 1.25 2.75
v 3.9375 1.25 2.75
v 3.875 0.1875 2.0625
v 3.75 0.1875 2.0625
v 3.875 0 2.0625
v 3.75 0 2.0625
v 3.875 0.1875 2.1875
v 3.75 0.1875 2.1875
v 3.875 0 2.1875
v 3.75 0 2.1875
v 2.9375 2.4375 2.0625
v 1.9375 2.4375 2.0625
v 1.9375 2.8125 3
v 2.9375 2.4375 3
v 1.9375 2.4375 3
v 1.9375 2.8125 2
v 1.9375 2.8125 2.0625
v 1.9375 0.1875 2
v 2.9375 2.8125 2.0625
v 1.9375 2.3125 2.9375
v 1.9375 2.3125 3
v 1.9375 1.9375 2.9375
v 1.9375 1.9375 3
v 2.9375 2.3125 2.9375
v 2.9375 2.3125 3
v 2.9375 1.9375 2.9375
v 2.9375 1.9375 3
v 2.3125 1.75 2.1875
v 2.0625 1.75 2.1875
v 2.3125 1.6875 2.1875
v 2.0625 1.6875 2.1875
v 2.3125 1.75 2.9375
v 2.0625 1.75 2.9375
v 2.3125 1.6875 2.9375
v 2.0625 1.6875 2.9375
v 2.875 1.3125 2.1875
v 2.625 1.3125 2.1875
v 2.875 1.25 2.1875
v 2.625 1.25 2.1875
v 2.875 1.3125 2.9375
v 2.625 1.3125 2.9375
v 2.875 1.25 2.9375
v 2.625 1.25 2.9375
v 2.9375 1.6875 2.0625
v 1.9375 1.6875 2.0625
v 2.9375 1.3125 2.0625
v 1.9375 1.3125 2.0625
v 2.9375 1.6875 3
v 1.9375 1.6875 3
v 2.9375 1.3125 3
v 1.9375 1.3125 3
v 2.9375 0.5625 2.0625
v 1.9375 0.5625 2.0625
v 2.9375 0.1875 2.0625
v 1.9375 0.1875 2.0625
v 2.9375 0.5625 3
v 1.9375 0.1875 3
v 2.3125 0.625 2.1875
v 2.0625 0.625 2.1875
v 2.3125 0.5625 2.1875
v 2.0625 0.5625 2.1875
v 2.3125 0.625 2.9375
v 2.0625 0.625 2.9375
v 2.3125 0.5625 2.9375
v 2.0625 0.5625 2.9375
v 1.9375 1.0625 2.9375
v 1.9375 1.0625 3
v 1.9375 0.6875 2.9375
v 1.9375 0.6875 3
v 2.9375 1.0625 2.9375
v 2.9375 1.0625 3
v 2.9375 0.6875 2.9375
v 2.9375 0.6875 3
v 2.625 0.1875 2.125
v 2.375 0.1875 2.125
v 2.625 0 2.125
v 2.375 0 2.125
v 2.625 0.1875 2.875
v 2.375 0.1875 2.875
v 2.625 0 2.875
v 2.375 0 2.875
v 2.1875 0.1875 2.8125
v 2.0625 0.1875 2.8125
v 2.1875 0 2.8125
v 2.0625 0 2.8125
v 2.1875 0.1875 2.9375
v 2.0625 0.1875 2.9375
v 2.1875 0 2.9375
v 2.0625 0 2.9375
v 2.1875 0.1875 2.0625
v 2.0625 0.1875 2.0625
v 2.1875 0 2.0625
v 2.0625 0 2.0625
v 2.1875 0.1875 2.1875
v 2.0625 0.1875 2.1875
v 2.1875 0 2.1875
v 2.0625 0 2.1875
v 3.9375 2.8125 -0.9375
v 2.0625 2.8125 -0.9375
v 3.9375 0.1875 -0.9375
v 2.0625 0.1875 -0.9375
v 3.9375 2.8125 0.9375
v 2.0625 2.8125 0.9375
v 3.9375 0.1875 0.9375
v 2.0625 0.1875 0.9375
v 4 1.75 -0.75
v 3.9375 1.75 -0.75
v 4 1.25 -0.75
v 3.9375 1.25 -0.75
v 4 1.75 -0.25
v 3.9375 1.75 -0.25
v 4 1.25 -0.25
v 3.9375 1.25 -0.25
v 4 1.9375 -0.625
v 3.9375 1.9375 -0.625
v 4 1.75 -0.625
v 3.9375 1.75 -0.625
v 4 1.9375 -0.375
v 3.9375 1.9375 -0.375
v 4 1.75 -0.375
v 3.9375 1.75 -0.375
v 2.25 0.1875 -0.875
v 2.125 0.1875 -0.875
v 2.25 0 -0.875
v 2.125 0 -0.875
v 2.25 0.1875 -0.75
v 2.125 0.1875 -0.75
v 2.25 0 -0.75
v 2.125 0 -0.75
v 3.875 0.1875 -0.875
v 3.75 0.1875 -0.875
v 3.875 0 -0.875
v 3.75 0 -0.875
v 3.875 0.1875 -0.75
v 3.75 0.1875 -0.75
v 3.875 0 -0.75
v 3.75 0 -0.75
v 3.875 0.1875 0.75
v 3.75 0.1875 0.75
v 3.875 0 0.75
v 3.75 0 0.75
v 3.875 0.1875 0.875
v 3.75 0.1875 0.875
v 3.875 0 0.875
v 3.75 0 0.875
v 2.25 0.1875 0.75
v 2.125 0.1875 0.75
v 2.25 0 0.75
v 2.125 0 0.75
v 2.25 0.1875 0.875
v 2.125 0.1875 0.875
v 2.25 0 0.875
v 2.125 0 0.875
v 3.5 0.1875 -0.5
v 2.5 0.1875 -0.5
v 3.5 0 -0.5
v 2.5 0 -0.5
v 3.5 0.1875 0.5
v 2.5 0.1875 0.5
v 3.5 0 0.5
v 2.5 0 0.5
v 3 -0.5 -1
v 4 -1 -1
v 3 -1 -1
v 2.25 2.125 -1
v 2.25 2.125 -0.9375
v 2.25 1.125 -1
v 2.25 1.125 -0.9375
v 3.75 2.125 -1
v 3.75 2.125 -0.9375
v 3.75 1.125 -1
v 3.75 1.125 -0.9375
v 4 2.5625 2.125
v 3.9375 2.5625 2.125
v 4 2.3125 2.125
v 3.9375 2.3125 2.125
v 4 2.5625 2.875
v 3.9375 2.5625 2.875
v 4 2.3125 2.875
v 3.9375 2.3125 2.875
v 4 2.75 2.375
v 3.9375 2.75 2.375
v 4 2.5625 2.375
v 3.9375 2.5625 2.375
v 4 2.75 2.625
v 3.9375 2.75 2.625
v 4 2.5625 2.625
v 3.9375 2.5625 2.625
v 3 0.25 1.3125
v 2.625 0.375 1.3125
v 3 0 1.3125
v 2.625 0 1.3125
v 3 0.25 1.6875
v 2.625 0.375 1.6875
v 3 0 1.6875
v 2.625 0 1.6875
v 0.875 0.375 0.6875
v 0.375 0.375 0.6875
v 0.875 0 0.6875
v 0.375 0 0.6875
v 0.875 0.375 1.0625
v 0.375 0.375 1.0625
v 0.875 0 1.0625
v 0.375 0 1.0625
v 1.3125 0.375 0.6875
v 1.3125 0 0.6875
v 1.3125 0.375 1.0625
v 1.3125 0 1.0625
v 1.6875 0.375 1.0625
v 1.6875 0 1.0625
v 1.625 0.375 0.6875
v 1.625 0 0.6875
v 1.6875 0.375 1.3125
v 1.3125 0.375 1.3125
v 1.6875 0 1.3125
v 1.3125 0 1.3125
v 1.6875 0.375 1.6875
v 1.375 0.375 1.6875
v 1.6875 0 1.6875
v 1.375 0 1.6875
v 2.125 0.375 1.3125
v 2.125 0 1.3125
v 2.125 0.375 1.6875
v 2.125 0 1.6875
v 2.625 2.375 2.1875
v 2.875 2.375 2.1875
v 2.625 2.4375 2.1875
v 2.875 2.4375 2.1875
v 2.625 2.375 2.9375
v 2.875 2.375 2.9375
v 2.625 2.4375 2.9375
v 2.875 2.4375 2.9375
vt 0.1875 0.2344
vt 0.1875 0.3594
vt 0.3594 0.3594
vt 0.3594 0.2344
vt 0.1875 0.2344
vt 0.1875 0.1094
vt 0.0156 0.1094
vt 0.0156 0.2344
vt 0.9219 1
vt 0.9219 0.8281
vt 0.75 0.8281
vt 0.75 1
vt 0.5313 0.3594
vt 0.5313 0.2344
vt 0.3594 0.2344
vt 0.3594 0.3594
vt 0.5313 0.1094
vt 0.5313 0.2344
vt 0.7031 0.2344
vt 0.7031 0.1094
vt 0.9219 0.4219
vt 0.9219 0.25
vt 0.75 0.25
vt 0.75 0.4219
vt 0.1875 0.1094
vt 0.1875 0.2344
vt 0.3594 0.2344
vt 0.3594 0.1094
vt 0.1875 0.3594
vt 0.1875 0.2344
vt 0.0156 0.2344
vt 0.0156 0.3594
vt 0.8281 0.25
vt 0.8281 0.4219
vt 1 0.4219
vt 1 0.25
vt 0.5313 0.2344
vt 0.5313 0.3594
vt 0.7031 0.3594
vt 0.7031 0.2344
vt 0.8281 0.8281
vt 0.8281 1
vt 1 1
vt 1 0.8281
vt 0.5313 0.2344
vt 0.5313 0.1094
vt 0.3594 0.1094
vt 0.3594 0.2344
vt 0.1094 0.9375
vt 0.1094 0.625
vt 0.0625 0.625
vt 0.0625 0.9375
vt 0.1094 0.9375
vt 0.1094 0.625
vt 0.0625 0.625
vt 0.0625 0.9375
vt 0.1094 0.9391
vt 0.1094 0.6266
vt 0.0625 0.6266
vt 0.0625 0.9391
vt 0.1094 0.9375
vt 0.1094 0.625
vt 0.0625 0.625
vt 0.0625 0.9375
vt 0.1094 0.9375
vt 0.1094 0.625
vt 0.0625 0.625
vt 0.0625 0.9375
vt 0.1094 0.9375
vt 0.1094 0.625
vt 0.0625 0.625
vt 0.0625 0.9375
vt 0.1094 0.9391
vt 0.1094 0.6266
vt 0.0625 0.6266
vt 0.0625 0.9391
vt 0.1094 0.9375
vt 0.1094 0.625
vt 0.0625 0.625
vt 0.0625 0.9375
vt 0.1094 0.9766
vt 0.1094 0.5703
vt 0.0625 0.5703
vt 0.0625 0.9766
vt 0.1094 0.9781
vt 0.1094 0.5719
vt 0.0625 0.5719
vt 0.0625 0.9781
vt 0 1
vt 0.0469 1
vt 0.0469 0.5938
vt 0 0.5938
vt 0 1
vt 0.0469 1
vt 0.0469 0.5938
vt 0 0.5938
vt 0.0625 0.6094
vt 0.0625 0.6563
vt 0.1094 0.6563
vt 0.1094 0.6094
vt 0.0625 0.6406
vt 0.0625 0.6875
vt 0.1094 0.6875
vt 0.1094 0.6406
vt 0.1094 0.9766
vt 0.1094 0.5703
vt 0.0625 0.5703
vt 0.0625 0.9766
vt 0.1094 0.9781
vt 0.1094 0.5719
vt 0.0625 0.5719
vt 0.0625 0.9781
vt 0 1
vt 0.0469 1
vt 0.0469 0.5938
vt 0 0.5938
vt 0 1
vt 0.0469 1
vt 0.0469 0.5938
vt 0 0.5938
vt 0.0625 0.6094
vt 0.0625 0.6563
vt 0.1094 0.6563
vt 0.1094 0.6094
vt 0.0625 0.6406
vt 0.0625 0.6875
vt 0.1094 0.6875
vt 0.1094 0.6406
vt 0.2969 0.25
vt 0.2969 0.2656
vt 0.4375 0.2656
vt 0.4375 0.25
vt 0.2656 0.25
vt 0.2656 0.2344
vt 0.125 0.2344
vt 0.125 0.25
vt 0.8906 1
vt 0.8906 0.8594
vt 0.75 0.8594
vt 0.75 1
vt 0.2188 0.2656
vt 0.2188 0.25
vt 0.0781 0.25
vt 0.0781 0.2656
vt 0.25 0.25
vt 0.25 0.2656
vt 0.3906 0.2656
vt 0.3906 0.25
vt 0.8906 0.3906
vt 0.8906 0.25
vt 0.75 0.25
vt 0.75 0.3906
vt 0.2656 0.2344
vt 0.2656 0.25
vt 0.4063 0.25
vt 0.4063 0.2344
vt 0.2969 0.2656
vt 0.2969 0.25
vt 0.1563 0.25
vt 0.1563 0.2656
vt 0.8594 0.25
vt 0.8594 0.3906
vt 1 0.3906
vt 1 0.25
vt 0.2188 0.25
vt 0.2188 0.2656
vt 0.3594 0.2656
vt 0.3594 0.25
vt 0.25 0.2656
vt 0.25 0.25
vt 0.1094 0.25
vt 0.1094 0.2656
vt 0.8594 0.8594
vt 0.8594 1
vt 1 1
vt 1 0.8594
vt 0.0625 0.4688
vt 0.0625 0.4375
vt 0 0.4375
vt 0 0.4688
vt 0.1875 0.375
vt 0.25 0.375
vt 0.25 0.4375
vt 0.1875 0.4063
vt 0.0625 0.499
vt 0.0625 0.4385
vt 0 0.4385
vt 0 0.499
vt 0.25 0.4375
vt 0.1875 0.4063
vt 0.1875 0.375
vt 0.25 0.375
vt 0.1875 0.4063
vt 0.25 0.4375
vt 0.25 0.375
vt 0.1875 0.375
vt 0.0625 0.4379
vt 0 0.4379
vt 0 0.5
vt 0.0625 0.5
vt 0 0.4688
vt 0.0625 0.4688
vt 0.0625 0.4375
vt 0 0.4375
vt 0.0625 0.375
vt 0.0625 0.4688
vt 0 0.4688
vt 0 0.375
vt 0.0625 0.4688
vt 0.0625 0.375
vt 0 0.375
vt 0 0.4688
vt 0 0.4688
vt 0.0625 0.4688
vt 0.0625 0.375
vt 0 0.375
vt 0.063 0.4994
vt 0.0619 0.437
vt 0 0.4381
vt 0.0006 0.5005
vt 0.063 0.4994
vt 0.0619 0.437
vt 0 0.4381
vt 0.0006 0.5005
vt 0.063 0.4994
vt 0.0619 0.437
vt 0 0.4381
vt 0.0006 0.5005
vt 0.0625 0.4531
vt 0.0625 0.2656
vt 0 0.2656
vt 0 0.4531
vt 0.0625 0.4531
vt 0.0625 0.2656
vt 0 0.2656
vt 0 0.4531
vt 0.0625 0.4531
vt 0.0625 0.2656
vt 0 0.2656
vt 0 0.4531
vt 0.0625 0.375
vt 0.0625 0.4688
vt 0 0.4688
vt 0 0.375
vt 0.0625 0.4688
vt 0.0625 0.375
vt 0 0.375
vt 0 0.4688
vt 0 0.4688
vt 0.0625 0.4688
vt 0.0625 0.375
vt 0 0.375
vt 0.25 0.4375
vt 0.1875 0.4063
vt 0.1875 0.375
vt 0.25 0.375
vt 0.1875 0.4063
vt 0.25 0.4375
vt 0.25 0.375
vt 0.1875 0.375
vt 0.0625 0.4379
vt 0 0.4379
vt 0 0.5
vt 0.0625 0.5
vt 0 0.4688
vt 0.0625 0.4688
vt 0.0625 0.4375
vt 0 0.4375
vt 0.0625 0.375
vt 0.0625 0.4688
vt 0 0.4688
vt 0 0.375
vt 0.0625 0.4688
vt 0.0625 0.375
vt 0 0.375
vt 0 0.4688
vt 0 0.4688
vt 0.0625 0.4688
vt 0.0625 0.375
vt 0 0.375
vt 0.25 0.4375
vt 0.1875 0.4063
vt 0.1875 0.375
vt 0.25 0.375
vt 0.1875 0.4063
vt 0.25 0.4375
vt 0.25 0.375
vt 0.1875 0.375
vt 0.0625 0.4379
vt 0 0.4379
vt 0 0.5
vt 0.0625 0.5
vt 0 0.4688
vt 0.0625 0.4688
vt 0.0625 0.4375
vt 0 0.4375
vt 0.0625 0.375
vt 0.0625 0.4688
vt 0 0.4688
vt 0 0.375
vt 0.0625 0.4688
vt 0.0625 0.375
vt 0 0.375
vt 0 0.4688
vt 0 0.4688
vt 0.0625 0.4688
vt 0.0625 0.375
vt 0 0.375
vt 0.25 0.4375
vt 0.1875 0.4063
vt 0.1875 0.375
vt 0.25 0.375
vt 0.1875 0.4063
vt 0.25 0.4375
vt 0.25 0.375
vt 0.1875 0.375
vt 0.0625 0.4379
vt 0 0.4379
vt 0 0.5
vt 0.0625 0.5
vt 0 0.4688
vt 0.0625 0.4688
vt 0.0625 0.4375
vt 0 0.4375
vt 0.0625 0.375
vt 0.0625 0.4688
vt 0 0.4688
vt 0 0.375
vt 0.0625 0.4688
vt 0.0625 0.375
vt 0 0.375
vt 0 0.4688
vt 0 0.4688
vt 0.0625 0.4688
vt 0.0625 0.375
vt 0 0.375
vt 0.0625 0.375
vt 0.0625 0.4688
vt 0 0.4688
vt 0 0.375
vt 0.0625 0.4688
vt 0.0625 0.375
vt 0 0.375
vt 0 0.4688
vt 0 0.4688
vt 0.0625 0.4688
vt 0.0625 0.375
vt 0 0.375
vt 0.0625 0.4688
vt 0.0625 0.4375
vt 0 0.4375
vt 0 0.4688
vt 0.1875 0.375
vt 0.25 0.375
vt 0.25 0.4375
vt 0.1875 0.4063
vt 0.0625 0.499
vt 0.0625 0.4385
vt 0 0.4385
vt 0 0.499
vt 0.0625 0.5
vt 0.0625 0.4531
vt 0 0.4531
vt 0 0.5
vt 0.0625 0.5
vt 0.0625 0.4531
vt 0 0.4531
vt 0 0.5
vt 0 0.5
vt 0.0625 0.5
vt 0.0625 0.4531
vt 0 0.4531
vt 0.75 0.875
vt 1 0.875
vt 1 0.75
vt 0.75 0.75
vt 0 0.5
vt 0.5 0.5
vt 0.5 0.25
vt 0 0.25
vt 0 1
vt 0.5 1
vt 0.5 0.75
vt 0 0.75
vt 0 1
vt 0.5 1
vt 0.5 0.875
vt 0 0.875
vt 0.5 1
vt 1 1
vt 1 0.875
vt 0.5 0.875
vt 0.7344 1
vt 0.7656 1
vt 0.7656 0.8906
vt 0.7344 0.8906
vt 0.7344 1
vt 0.7656 1
vt 0.7656 0.8906
vt 0.7344 0.8906
vt 0.7344 1
vt 0.7656 1
vt 0.7656 0.8906
vt 0.7344 0.8906
vt 0.7344 1
vt 0.7656 1
vt 0.7656 0.8906
vt 0.7344 0.8906
vt 0 1
vt 0.5 1
vt 0.5 0.875
vt 0 0.875
vt 0 1
vt 0.5 1
vt 0.5 0.5
vt 0 0.5
vt 0 0.75
vt 0.5 0.75
vt 0.5 0.25
vt 0 0.25
vt 0.5 1
vt 1 1
vt 1 0.875
vt 0.5 0.875
vt 0.5 1
vt 1 1
vt 1 0.875
vt 0.5 0.875
vt 0.25 1
vt 0.75 1
vt 0.75 0.5
vt 0.25 0.5
vt 0.25 0.75
vt 0.75 0.75
vt 0.75 0.25
vt 0.25 0.25
vt 0 1
vt 0.5 1
vt 0.5 0.875
vt 0 0.875
vt 0 1
vt 0.5 1
vt 0.5 0.875
vt 0 0.875
vt 0.25 0.75
vt 0.75 0.75
vt 0.75 0.25
vt 0.25 0.25
vt 0.25 1
vt 0.75 1
vt 0.75 0.5
vt 0.25 0.5
vt 0.5 1
vt 1 1
vt 1 0.875
vt 0.5 0.875
vt 0.5 1
vt 1 1
vt 1 0.875
vt 0.5 0.875
vt 0 0.75
vt 0.5 0.75
vt 0.5 0.25
vt 0 0.25
vt 0 1
vt 0.5 1
vt 0.5 0.5
vt 0 0.5
vt 0 1
vt 0.5 1
vt 0.5 0.875
vt 0 0.875
vt 0 1
vt 0.25 1
vt 0.25 0.9844
vt 0 0.9844
vt 0.25 1
vt 0.75 1
vt 0.75 0.75
vt 0.25 0.75
vt 0 1
vt 0.5 1
vt 0.5 0.75
vt 0 0.75
vt 0 1
vt 0.5 1
vt 0.5 0.9844
vt 0 0.9844
vt 0 1
vt 0.25 1
vt 0.25 0.9844
vt 0 0.9844
vt 0.25 0.5
vt 0.75 0.5
vt 0.75 0.25
vt 0.25 0.25
vt 0 1
vt 0.5 1
vt 0.5 0.75
vt 0 0.75
vt 0 1
vt 0.25 1
vt 0.25 0.9844
vt 0 0.9844
vt 0.2656 0.5781
vt 0.7656 0.5781
vt 0.7656 0.3281
vt 0.2656 0.3281
vt 0 1
vt 0.5 1
vt 0.5 0.75
vt 0 0.75
vt 0 1
vt 0.5 1
vt 0.5 0.9844
vt 0 0.9844
vt 0 1
vt 0.25 1
vt 0.25 0.9844
vt 0 0.9844
vt 0.2656 0.5781
vt 0.7656 0.5781
vt 0.7656 0.3281
vt 0.2656 0.3281
vt 0 1
vt 0.5 1
vt 0.5 0.75
vt 0 0.75
vt 0 1
vt 0.5 1
vt 0.5 0.9844
vt 0 0.9844
vt 0 1
vt 0.5 1
vt 0.5 0.9844
vt 0 0.9844
vt 0 1
vt 0.25 1
vt 0.25 0.9844
vt 0 0.9844
vt 0 1
vt 0.25 1
vt 0.25 0.9844
vt 0 0.9844
vt 0 0.5
vt 0.5 0.5
vt 0.5 0.25
vt 0 0.25
vt 0 1
vt 0.5 1
vt 0.5 0.75
vt 0 0.75
vt 0 1
vt 0.25 1
vt 0.25 0.9844
vt 0 0.9844
vt 0 1
vt 0.25 1
vt 0.25 0.9844
vt 0 0.9844
vt 0 0.625
vt 0.5 0.625
vt 0.5 0.375
vt 0 0.375
vt 0 1
vt 0.5 1
vt 0.5 0.75
vt 0 0.75
vt 0 1
vt 0.5 1
vt 0.5 0.9844
vt 0 0.9844
vt 0 1
vt 0.25 1
vt 0.25 0.9844
vt 0 0.9844
vt 0 1
vt 0.25 1
vt 0.25 0.9844
vt 0 0.9844
vt 0 0.625
vt 0.5 0.625
vt 0.5 0.375
vt 0 0.375
vt 0 1
vt 0.5 1
vt 0.5 0.75
vt 0 0.75
vt 0 1
vt 0.5 1
vt 0.5 0.9844
vt 0 0.9844
vt 0 1
vt 0.25 1
vt 0.25 0.9844
vt 0 0.9844
vt 0 1
vt 0.25 1
vt 0.25 0.9844
vt 0 0.9844
vt 0 1
vt 0.5 1
vt 0.5 0.75
vt 0 0.75
vt 0 1
vt 0.5 1
vt 0.5 0.75
vt 0 0.75
vt 0 1
vt 0.5 1
vt 0.5 0.9844
vt 0 0.9844
vt 0 1
vt 0.5 1
vt 0.5 0.9844
vt 0 0.9844
vt 0.25 1
vt 0.7344 1
vt 0.7344 0.8906
vt 0.25 0.8906
vt 0.0156 1
vt 0.5 1
vt 0.5 0.8906
vt 0.0156 0.8906
vt 0.0156 1
vt 0.5156 1
vt 0.5156 0.8906
vt 0.0156 0.8906
vt 0.2656 1
vt 0.75 1
vt 0.75 0.8906
vt 0.2656 0.8906
vt 0.0156 1
vt 0.5 1
vt 0.5 0.8906
vt 0.0156 0.8906
vt 0.25 1
vt 0.7344 1
vt 0.7344 0.8906
vt 0.25 0.8906
vt 0.2344 1
vt 0.7344 1
vt 0.7344 0.8906
vt 0.2344 0.8906
vt 0 1
vt 0.4844 1
vt 0.4844 0.8906
vt 0 0.8906
vt 0.7344 1
vt 0.7656 1
vt 0.7656 0.8906
vt 0.7344 0.8906
vt 0.7344 1
vt 0.7656 1
vt 0.7656 0.8906
vt 0.7344 0.8906
vt 0.7344 1
vt 0.7656 1
vt 0.7656 0.8906
vt 0.7344 0.8906
vt 0.7344 1
vt 0.7656 1
vt 0.7656 0.8906
vt 0.7344 0.8906
vt 0.75 0.25
vt 0.5 0.25
vt 0.5 0.0156
vt 0.75 0.0156
vt 0.0156 0.5
vt 0.5 0.5
vt 0.5 0.25
vt 0.0156 0.25
vt 0 0.6094
vt 0.125 0.6094
vt 0.125 0.4844
vt 0 0.4844
vt 0.75 0.5938
vt 0.75 0.6094
vt 0.625 0.6094
vt 0.625 0.5938
vt 0.625 0.5
vt 0.625 0.4844
vt 0.75 0.4844
vt 0.75 0.5
vt 0.625 0.6094
vt 0.6406 0.6094
vt 0.6406 0.4844
vt 0.625 0.4844
vt 0.7344 0.6094
vt 0.75 0.6094
vt 0.75 0.4844
vt 0.7344 0.4844
vt 0 1
vt 0.25 1
vt 0.25 0.9844
vt 0 0.9844
vt 0 1
vt 0.5 1
vt 0.5 0.75
vt 0 0.75
vt 0 1
vt 0.5 1
vt 0.5 0.75
vt 0 0.75
vt 0 1
vt 0.5 1
vt 0.5 0.9844
vt 0 0.9844
vt 0 1
vt 0.25 1
vt 0.25 0.9844
vt 0 0.9844
vt 0 0.5
vt 0.5 0.5
vt 0.5 0.25
vt 0 0.25
vt 0 1
vt 0.5 1
vt 0.5 0.75
vt 0 0.75
vt 0 1
vt 0.5 1
vt 0.5 0.9844
vt 0 0.9844
vt 0 1
vt 0.5 1
vt 0.5 0.9844
vt 0 0.9844
vt 0 1
vt 0.25 1
vt 0.25 0.9844
vt 0 0.9844
vt 0 1
vt 0.25 1
vt 0.25 0.9844
vt 0 0.9844
vt 0.25 0.5
vt 0.75 0.5
vt 0.75 0.25
vt 0.25 0.25
vt 0 1
vt 0.5 1
vt 0.5 0.75
vt 0 0.75
vt 0 1
vt 0.5 1
vt 0.5 0.9844
vt 0 0.9844
vt 0 1
vt 0.25 1
vt 0.25 0.9844
vt 0 0.9844
vt 0 1
vt 0.25 1
vt 0.25 0.9844
vt 0 0.9844
vt 0.25 1
vt 0.75 1
vt 0.75 0.75
vt 0.25 0.75
vt 0 1
vt 0.5 1
vt 0.5 0.75
vt 0 0.75
vt 0 1
vt 0.5 1
vt 0.5 0.9844
vt 0 0.9844
vt 0 1
vt 0.5 1
vt 0.5 0.9844
vt 0 0.9844
vt 0.5 1
vt 0.7344 1
vt 0.7344 0.8906
vt 0.5 0.8906
vt 0.0156 1
vt 0.5 1
vt 0.5 0.8906
vt 0.0156 0.8906
vt 0.0156 1
vt 0.25 1
vt 0.25 0.8906
vt 0.0156 0.8906
vt 0.25 1
vt 0.7344 1
vt 0.7344 0.8906
vt 0.25 0.8906
vt 0.7344 1
vt 0.7656 1
vt 0.7656 0.8906
vt 0.7344 0.8906
vt 0.7344 1
vt 0.7656 1
vt 0.7656 0.8906
vt 0.7344 0.8906
vt 0.7344 1
vt 0.7656 1
vt 0.7656 0.8906
vt 0.7344 0.8906
vt 0.7344 1
vt 0.7656 1
vt 0.7656 0.8906
vt 0.7344 0.8906
vt 0.7344 1
vt 0.7656 1
vt 0.7656 0.8906
vt 0.7344 0.8906
vt 0.7344 1
vt 0.7656 1
vt 0.7656 0.8906
vt 0.7344 0.8906
vt 0.7344 1
vt 0.7656 1
vt 0.7656 0.8906
vt 0.7344 0.8906
vt 0.7344 1
vt 0.7656 1
vt 0.7656 0.8906
vt 0.7344 0.8906
vt 0.625 0.6094
vt 0.75 0.6094
vt 0.75 0.4844
vt 0.625 0.4844
vt 0.75 0.5938
vt 0.75 0.6094
vt 0.625 0.6094
vt 0.625 0.5938
vt 0.625 0.5
vt 0.625 0.4844
vt 0.75 0.4844
vt 0.75 0.5
vt 0.625 0.6094
vt 0.6406 0.6094
vt 0.6406 0.4844
vt 0.625 0.4844
vt 0.7344 0.6094
vt 0.75 0.6094
vt 0.75 0.4844
vt 0.7344 0.4844
vt 0.75 0.25
vt 0.5 0.25
vt 0.5 0.0156
vt 0.75 0.0156
vt 0.25 0.5
vt 0.7344 0.5
vt 0.7344 0.25
vt 0.25 0.25
vt 0.7344 0.6406
vt 0.7656 0.6406
vt 0.7656 0.5938
vt 0.7344 0.5938
vt 0.7344 0.6406
vt 0.7656 0.6406
vt 0.7656 0.5938
vt 0.7344 0.5938
vt 0.7344 0.625
vt 0.7656 0.625
vt 0.7656 0.5938
vt 0.7344 0.5938
vt 0.7344 0.625
vt 0.7656 0.625
vt 0.7656 0.5938
vt 0.7344 0.5938
vt 0.7344 0.6406
vt 0.7656 0.6406
vt 0.7656 0.5938
vt 0.7344 0.5938
vt 0.7344 0.6406
vt 0.7656 0.6406
vt 0.7656 0.5938
vt 0.7344 0.5938
vt 0 0.9063
vt 0.25 0.9063
vt 0.25 0.25
vt 0 0.25
vt 0 0.9063
vt 0.25 0.9063
vt 0.25 0.25
vt 0 0.25
vt 0 0.25
vt 0.25 0.25
vt 0.25 0
vt 0 0
vt 0 0.25
vt 0.25 0.25
vt 0.25 0
vt 0 0
vt 0 0.9063
vt 0.25 0.9063
vt 0.25 0.25
vt 0 0.25
vt 0 0.9063
vt 0.25 0.9063
vt 0.25 0.25
vt 0 0.25
vt 0.3594 0.7344
vt 0.375 0.7344
vt 0.375 0.6875
vt 0.3594 0.6875
vt 0.3125 0.7344
vt 0.3281 0.7344
vt 0.3281 0.6875
vt 0.3125 0.6875
vt 0.3125 0.7344
vt 0.375 0.7344
vt 0.375 0.7188
vt 0.3125 0.7188
vt 0.3125 0.7344
vt 0.375 0.7344
vt 0.375 0.6875
vt 0.3125 0.6875
vt 0.4844 0.6094
vt 0.5 0.6094
vt 0.5 0.4844
vt 0.4844 0.4844
vt 0.375 0.6094
vt 0.3906 0.6094
vt 0.3906 0.4844
vt 0.375 0.4844
vt 0.375 0.6094
vt 0.5 0.6094
vt 0.5 0.5938
vt 0.375 0.5938
vt 0.375 0.5
vt 0.5 0.5
vt 0.5 0.4844
vt 0.375 0.4844
vt 0.375 0.6094
vt 0.5 0.6094
vt 0.5 0.4844
vt 0.375 0.4844
vt 0.7344 0.6406
vt 0.7656 0.6406
vt 0.7656 0.5938
vt 0.7344 0.5938
vt 0.7344 0.6406
vt 0.7656 0.6406
vt 0.7656 0.5938
vt 0.7344 0.5938
vt 0.7344 0.625
vt 0.7656 0.625
vt 0.7656 0.5938
vt 0.7344 0.5938
vt 0.7344 0.625
vt 0.7656 0.625
vt 0.7656 0.5938
vt 0.7344 0.5938
vt 0.7344 0.6406
vt 0.7656 0.6406
vt 0.7656 0.5938
vt 0.7344 0.5938
vt 0.7344 0.6406
vt 0.7656 0.6406
vt 0.7656 0.5938
vt 0.7344 0.5938
vt 0 1
vt 0.25 1
vt 0.25 0.9063
vt 0 0.9063
vt 0.7656 0.9219
vt 1 0.9219
vt 1 0.6719
vt 0.7656 0.6719
vt 0.7656 0.9219
vt 1 0.9219
vt 1 0.6719
vt 0.7656 0.6719
vt 0.2344 1
vt 0 1
vt 0 0.9063
vt 0.2344 0.9063
vt 0.9844 0.6563
vt 1 0.6563
vt 1 0
vt 0.9844 0
vt 0.75 0.0156
vt 1 0.0156
vt 1 0
vt 0.75 0
vt 0.75 0.0156
vt 1 0.0156
vt 1 0
vt 0.75 0
vt 0.75 0.6563
vt 1 0.6563
vt 1 0
vt 0.75 0
vt 0.75 0.6563
vt 1 0.6563
vt 1 0
vt 0.75 0
vt 0 1
vt 0.0156 1
vt 0.0156 0.9063
vt 0 0.9063
vt 0 1
vt 0.25 1
vt 0.25 0.9844
vt 0 0.9844
vt 0 1
vt 0.25 1
vt 0.25 0.9844
vt 0 0.9844
vt 0 1
vt 0.25 1
vt 0.25 0.9063
vt 0 0.9063
vt 0 1
vt 0.25 1
vt 0.25 0.9063
vt 0 0.9063
vt 0.3125 0.1875
vt 0.375 0.1875
vt 0.375 0.1719
vt 0.3125 0.1719
vt 0.3109 0.1875
vt 0.3734 0.1875
vt 0.3734 0.1719
vt 0.3109 0.1719
vt 0.25 0.1875
vt 0.4375 0.1875
vt 0.4375 0.125
vt 0.25 0.125
vt 0.25 0.1875
vt 0.4375 0.1875
vt 0.4375 0.1719
vt 0.25 0.1719
vt 0.25 0.1875
vt 0.4375 0.1875
vt 0.4375 0.1719
vt 0.25 0.1719
vt 0.3438 0.1875
vt 0.4063 0.1875
vt 0.4063 0.1719
vt 0.3438 0.1719
vt 0.3109 0.1875
vt 0.3734 0.1875
vt 0.3734 0.1719
vt 0.3109 0.1719
vt 0.25 0.1875
vt 0.4375 0.1875
vt 0.4375 0.125
vt 0.25 0.125
vt 0.25 0.1875
vt 0.4375 0.1875
vt 0.4375 0.1719
vt 0.25 0.1719
vt 0.25 0.1875
vt 0.4375 0.1875
vt 0.4375 0.1719
vt 0.25 0.1719
vt 0 1
vt 0.25 1
vt 0.25 0.9063
vt 0 0.9063
vt 0.7656 0.9219
vt 1 0.9219
vt 1 0.6719
vt 0.7656 0.6719
vt 0.7656 0.9219
vt 1 0.9219
vt 1 0.6719
vt 0.7656 0.6719
vt 0.2344 1
vt 0 1
vt 0 0.9063
vt 0.2344 0.9063
vt 0 1
vt 0.25 1
vt 0.25 0.9063
vt 0 0.9063
vt 0.7656 0.9219
vt 1 0.9219
vt 1 0.6719
vt 0.7656 0.6719
vt 0.7656 0.9219
vt 1 0.9219
vt 1 0.6719
vt 0.7656 0.6719
vt 0.2344 1
vt 0 1
vt 0 0.9063
vt 0.2344 0.9063
vt 0.2969 0.1875
vt 0.3594 0.1875
vt 0.3594 0.1719
vt 0.2969 0.1719
vt 0.3109 0.1875
vt 0.3734 0.1875
vt 0.3734 0.1719
vt 0.3109 0.1719
vt 0.25 0.1875
vt 0.4375 0.1875
vt 0.4375 0.125
vt 0.25 0.125
vt 0.25 0.1875
vt 0.4375 0.1875
vt 0.4375 0.1719
vt 0.25 0.1719
vt 0.25 0.1875
vt 0.4375 0.1875
vt 0.4375 0.1719
vt 0.25 0.1719
vt 0 1
vt 0.0156 1
vt 0.0156 0.9063
vt 0 0.9063
vt 0 1
vt 0.25 1
vt 0.25 0.9844
vt 0 0.9844
vt 0 1
vt 0.25 1
vt 0.25 0.9844
vt 0 0.9844
vt 0 1
vt 0.25 1
vt 0.25 0.9063
vt 0 0.9063
vt 0 1
vt 0.25 1
vt 0.25 0.9063
vt 0 0.9063
vt 0.5313 1
vt 0.5938 1
vt 0.5938 0.9531
vt 0.5313 0.9531
vt 0.4063 1
vt 0.4688 1
vt 0.4688 0.9531
vt 0.4063 0.9531
vt 0.2188 1
vt 0.4063 1
vt 0.4063 0.9531
vt 0.2188 0.9531
vt 0.2188 0.9844
vt 0.4063 0.9844
vt 0.4063 0.9375
vt 0.2188 0.9375
vt 0.7344 0.6406
vt 0.7656 0.6406
vt 0.7656 0.5938
vt 0.7344 0.5938
vt 0.7344 0.6406
vt 0.7656 0.6406
vt 0.7656 0.5938
vt 0.7344 0.5938
vt 0.7344 0.6406
vt 0.7656 0.6406
vt 0.7656 0.5938
vt 0.7344 0.5938
vt 0.7344 0.6406
vt 0.7656 0.6406
vt 0.7656 0.5938
vt 0.7344 0.5938
vt 0.7344 0.6406
vt 0.7656 0.6406
vt 0.7656 0.5938
vt 0.7344 0.5938
vt 0.7344 0.6406
vt 0.7656 0.6406
vt 0.7656 0.5938
vt 0.7344 0.5938
vt 0.7344 0.6406
vt 0.7656 0.6406
vt 0.7656 0.5938
vt 0.7344 0.5938
vt 0.7344 0.6406
vt 0.7656 0.6406
vt 0.7656 0.5938
vt 0.7344 0.5938
vt 0.25 1
vt 0.7188 1
vt 0.7188 0.3438
vt 0.25 0.3438
vt 0.25 1
vt 0.7188 1
vt 0.7188 0.3438
vt 0.25 0.3438
vt 0 1
vt 0.4688 1
vt 0.4688 0.5313
vt 0 0.5313
vt 0 1
vt 0.4688 1
vt 0.4688 0.5313
vt 0 0.5313
vt 0.25 1
vt 0.7188 1
vt 0.7188 0.3438
vt 0.25 0.3438
vt 0.25 1
vt 0.7188 1
vt 0.7188 0.3438
vt 0.25 0.3438
vt 0.4844 0.6094
vt 0.5 0.6094
vt 0.5 0.4844
vt 0.4844 0.4844
vt 0.375 0.6094
vt 0.3906 0.6094
vt 0.3906 0.4844
vt 0.375 0.4844
vt 0.375 0.6094
vt 0.5 0.6094
vt 0.5 0.5938
vt 0.375 0.5938
vt 0.375 0.5
vt 0.5 0.5
vt 0.5 0.4844
vt 0.375 0.4844
vt 0.375 0.6094
vt 0.5 0.6094
vt 0.5 0.4844
vt 0.375 0.4844
vt 0.4844 0.7344
vt 0.5 0.7344
vt 0.5 0.6875
vt 0.4844 0.6875
vt 0.4375 0.7344
vt 0.4531 0.7344
vt 0.4531 0.6875
vt 0.4375 0.6875
vt 0.4375 0.7344
vt 0.5 0.7344
vt 0.5 0.7188
vt 0.4375 0.7188
vt 0.4375 0.7344
vt 0.5 0.7344
vt 0.5 0.6875
vt 0.4375 0.6875
vt 0.7344 0.6406
vt 0.7656 0.6406
vt 0.7656 0.5938
vt 0.7344 0.5938
vt 0.7344 0.6406
vt 0.7656 0.6406
vt 0.7656 0.5938
vt 0.7344 0.5938
vt 0.7344 0.6406
vt 0.7656 0.6406
vt 0.7656 0.5938
vt 0.7344 0.5938
vt 0.7344 0.6406
vt 0.7656 0.6406
vt 0.7656 0.5938
vt 0.7344 0.5938
vt 0.7344 0.6406
vt 0.7656 0.6406
vt 0.7656 0.5938
vt 0.7344 0.5938
vt 0.7344 0.6406
vt 0.7656 0.6406
vt 0.7656 0.5938
vt 0.7344 0.5938
vt 0.7344 0.6406
vt 0.7656 0.6406
vt 0.7656 0.5938
vt 0.7344 0.5938
vt 0.7344 0.6406
vt 0.7656 0.6406
vt 0.7656 0.5938
vt 0.7344 0.5938
vt 0.7344 0.6406
vt 0.7656 0.6406
vt 0.7656 0.5938
vt 0.7344 0.5938
vt 0.7344 0.6406
vt 0.7656 0.6406
vt 0.7656 0.5938
vt 0.7344 0.5938
vt 0.7344 0.6406
vt 0.7656 0.6406
vt 0.7656 0.5938
vt 0.7344 0.5938
vt 0.7344 0.6406
vt 0.7656 0.6406
vt 0.7656 0.5938
vt 0.7344 0.5938
vt 0.7344 0.6406
vt 0.7656 0.6406
vt 0.7656 0.5938
vt 0.7344 0.5938
vt 0.7344 0.6406
vt 0.7656 0.6406
vt 0.7656 0.5938
vt 0.7344 0.5938
vt 0.7344 0.6406
vt 0.7656 0.6406
vt 0.7656 0.5938
vt 0.7344 0.5938
vt 0.7344 0.6406
vt 0.7656 0.6406
vt 0.7656 0.5938
vt 0.7344 0.5938
vt 0 0.3906
vt 0.25 0.3906
vt 0.25 0.3438
vt 0 0.3438
vt 0 0.3906
vt 0.25 0.3906
vt 0.25 0.3438
vt 0 0.3438
vt 0 0.3906
vt 0.25 0.3906
vt 0.25 0.3438
vt 0 0.3438
vt 0 0.3906
vt 0.25 0.3906
vt 0.25 0.3438
vt 0 0.3438
vt 0.75 0.875
vt 1 0.875
vt 1 0.75
vt 0.75 0.75
vt 0.25 0.5
vt 0.75 0.5
vt 0.75 0.25
vt 0.25 0.25
vt 0.25 1
vt 0.75 1
vt 0.75 0.75
vt 0.25 0.75
vt 0.5 1
vt 1 1
vt 1 0.875
vt 0.5 0.875
vt 0 1
vt 0.5 1
vt 0.5 0.875
vt 0 0.875
vt 0.6094 0.3438
vt 0.625 0.3438
vt 0.625 0.0938
vt 0.6094 0.0938
vt 0.25 0.3438
vt 0.2656 0.3438
vt 0.2656 0.0938
vt 0.25 0.0938
vt 0.25 0.3438
vt 0.625 0.3438
vt 0.625 0.3281
vt 0.25 0.3281
vt 0.25 0.1094
vt 0.625 0.1094
vt 0.625 0.0938
vt 0.25 0.0938
vt 0.25 0.3438
vt 0.625 0.3438
vt 0.625 0.0938
vt 0.25 0.0938
vt 0.4219 0.1875
vt 0.4375 0.1875
vt 0.4375 0.125
vt 0.4219 0.125
vt 0.25 0.1875
vt 0.2656 0.1875
vt 0.2656 0.125
vt 0.25 0.125
vt 0.25 0.1875
vt 0.4375 0.1875
vt 0.4375 0.1719
vt 0.25 0.1719
vt 0.25 0.1406
vt 0.4375 0.1406
vt 0.4375 0.125
vt 0.25 0.125
vt 0.25 0.1875
vt 0.4375 0.1875
vt 0.4375 0.125
vt 0.25 0.125
vt 0.0469 0.7344
vt 0.0625 0.7344
vt 0.0625 0.6875
vt 0.0469 0.6875
vt 0 0.7344
vt 0.0156 0.7344
vt 0.0156 0.6875
vt 0 0.6875
vt 0 0.7344
vt 0.0625 0.7344
vt 0.0625 0.7188
vt 0 0.7188
vt 0 0.7344
vt 0.0625 0.7344
vt 0.0625 0.6875
vt 0 0.6875
vt 0.1094 0.8281
vt 0.0156 0.8594
vt 0.0156 0.7656
vt 0.1094 0.7656
vt 0.0156 0.8594
vt 0.1094 0.8281
vt 0.1094 0.7656
vt 0.0156 0.7656
vt 0.1406 0.7031
vt 0.2344 0.7031
vt 0.2344 0.6043
vt 0.1406 0.6043
vt 0.1406 0.7031
vt 0.2344 0.7031
vt 0.2344 0.6406
vt 0.1406 0.6406
vt 0.2344 0.7344
vt 0.2344 0.6094
vt 0.1406 0.6094
vt 0.1406 0.7344
vt 0.2344 0.7344
vt 0.2344 0.6094
vt 0.1406 0.6094
vt 0.1406 0.7344
vt 0.1406 0.7344
vt 0.2344 0.7344
vt 0.2344 0.6094
vt 0.1406 0.6094
vt 0.1094 0.7031
vt 0.1094 0.5938
vt 0.0156 0.5938
vt 0.0156 0.7031
vt 0.0156 0.5938
vt 0.0156 0.7031
vt 0.1094 0.7031
vt 0.1094 0.5938
vt 0.0156 0.6563
vt 0.1094 0.6563
vt 0.1094 0.5469
vt 0.0156 0.5469
vt 0.1406 0.6328
vt 0.1406 0.6797
vt 0.2344 0.6797
vt 0.2344 0.6328
vt 0.1094 0.8438
vt 0.0156 0.8594
vt 0.0156 0.7656
vt 0.1094 0.7656
vt 0.2352 0.7087
vt 0.2352 0.6038
vt 0.1415 0.6038
vt 0.1415 0.7087
vt 0.1094 0.6563
vt 0.1094 0.5938
vt 0.0156 0.5938
vt 0.0156 0.6563
vt 0.1094 0.6563
vt 0.1094 0.5938
vt 0.0156 0.5938
vt 0.0156 0.6563
vt 0.0156 0.5938
vt 0.0156 0.6563
vt 0.1094 0.6563
vt 0.1094 0.5938
vt 0.1406 0.6328
vt 0.1406 0.6797
vt 0.2344 0.6797
vt 0.2344 0.6328
vt 0.1094 0.8438
vt 0.0156 0.8594
vt 0.0156 0.7656
vt 0.1094 0.7656
vt 0.2352 0.7087
vt 0.2352 0.6038
vt 0.1415 0.6038
vt 0.1415 0.7087
vt 0.2344 0.7188
vt 0.2344 0.6094
vt 0.1406 0.6094
vt 0.1406 0.7188
vt 0.1406 0.6094
vt 0.1406 0.7188
vt 0.2344 0.7188
vt 0.2344 0.6094
vt 0.1406 0.7188
vt 0.2344 0.7188
vt 0.2344 0.6094
vt 0.1406 0.6094
vt 0.1094 0.6875
vt 0.1094 0.5625
vt 0.0156 0.5625
vt 0.0156 0.6875
vt 0.1094 0.6875
vt 0.1094 0.5625
vt 0.0156 0.5625
vt 0.0156 0.6875
vt 0.0156 0.6875
vt 0.1094 0.6875
vt 0.1094 0.5625
vt 0.0156 0.5625
vt 0.2969 0.1875
vt 0.3594 0.1875
vt 0.3594 0.1719
vt 0.2969 0.1719
vt 0.3109 0.1875
vt 0.3734 0.1875
vt 0.3734 0.1719
vt 0.3109 0.1719
vt 0.25 0.1875
vt 0.4375 0.1875
vt 0.4375 0.125
vt 0.25 0.125
vt 0.25 0.1875
vt 0.4375 0.1875
vt 0.4375 0.1719
vt 0.25 0.1719
vt 0.25 0.1875
vt 0.4375 0.1875
vt 0.4375 0.1719
vt 0.25 0.1719
vn 0 0 -1
vn 0 0 1
vn 0 1 0
vn 1 0 0
vn -1 0 0
vn 0 1 0
vn 0 0 1
vn 0 0 -1
vn 0 1 0
vn 1 0 0
vn 0 1 0
vn -1 0 0
vn 0 1 0
vn 0 -1 0
vn 1 0 0
vn -1 0 0
vn 0 1 0
vn 0 -1 0
vn 1 0 0
vn -1 0 0
vn 0 0 -1
vn 0 0 1
vn 0 1 0
vn 0 -1 0
vn 1 0 0
vn -1 0 0
vn 0 0 1
vn 0 0 -1
vn 0 -1 0
vn 0 1 0
vn 1 0 0
vn -1 0 0
vn 0 0 -1
vn 0 0 1
vn 0 1 0
vn 1 0 0
vn -1 0 0
vn 0 1 0
vn 0 0 1
vn 0 0 -1
vn 0 1 0
vn 1 0 0
vn -1 0 0
vn 0 1 0
vn 0 0 1
vn 0 1 0
vn 0.89 0 0.45
vn 0 0 -1
vn 0 0 1
vn -0.45 0.89 0
vn -1 0 0
vn 0 0 -1
vn 0 0 1
vn 0 1 0
vn 0 1 0
vn 1 0 0
vn -1 0 0
vn 0 1 0
vn 1 0 0
vn -1 0 0
vn 0 0 -1
vn 0 0 1
vn 0 1 0
vn 0 0 -1
vn 0 0 1
vn -0.45 0.89 0
vn -1 0 0
vn 0 0 -1
vn 0 0 1
vn 0 1 0
vn 0 0 -1
vn 0 0 1
vn -0.45 0.89 0
vn -1 0 0
vn 0 0 -1
vn 0 0 1
vn 0 1 0
vn 0 0 -1
vn 0 0 1
vn -0.45 0.89 0
vn -1 0 0
vn 0 0 -1
vn 0 0 1
vn 0 1 0
vn 0 0 -1
vn 0 0 1
vn 0 1 0
vn 0 0 1
vn 0 1 0
vn 0.89 0 0.45
vn 0 0 -1
vn 0 0 1
vn 0 1 0
vn 0 0 1
vn 0 1 0
vn 0 -1 0
vn 1 0 0
vn -1 0 0
vn 0 0 -1
vn 0 0 1
vn 1 0 0
vn -1 0 0
vn 0 0 1
vn 0 1 0
vn 0 -1 0
vn -1 0 0
vn 0 0 -1
vn 0 1 0
vn 0 -1 0
vn -1 0 0
vn 0 0 -1
vn 0 1 0
vn 0 -1 0
vn 1 0 0
vn 0 0 1
vn 0 1 0
vn 0 -1 0
vn 1 0 0
vn 0 0 -1
vn 0 1 0
vn 0 -1 0
vn -1 0 0
vn 0 0 -1
vn 0 1 0
vn 0 -1 0
vn 0 0 -1
vn 0 1 0
vn 0 -1 0
vn 1 0 0
vn 0 0 -1
vn 0 1 0
vn 0 -1 0
vn 1 0 0
vn -1 0 0
vn 0 0 -1
vn 0 0 1
vn 0 1 0
vn 0 -1 0
vn 0 0 -1
vn 0 0 1
vn 0 1 0
vn 0 -1 0
vn 1 0 0
vn 0 0 -1
vn 0 0 1
vn 0 1 0
vn 0 -1 0
vn 1 0 0
vn 0 0 -1
vn 0 0 1
vn 0 1 0
vn 0 -1 0
vn 1 0 0
vn -1 0 0
vn 0 0 -1
vn -1 0 0
vn 0 0 -1
vn 1 0 0
vn 0 0 1
vn -1 0 0
vn 0 0 1
vn 1 0 0
vn 0 0 -1
vn 0 0 1
vn 1 0 0
vn -1 0 0
vn 0 0 1
vn 0 -1 0
vn 0 0 1
vn 0 1 0
vn 0 -1 0
vn 1 0 0
vn -1 0 0
vn 0 0 1
vn 0 1 0
vn 0 -1 0
vn -1 0 0
vn 0 0 1
vn 0 1 0
vn 0 -1 0
vn 1 0 0
vn -1 0 0
vn 0 0 -1
vn 0 0 1
vn 0 1 0
vn 0 -1 0
vn 1 0 0
vn 0 0 -1
vn 0 0 1
vn 0 1 0
vn 0 -1 0
vn 1 0 0
vn -1 0 0
vn 0 0 1
vn 1 0 0
vn 0 0 -1
vn 1 0 0
vn 0 0 -1
vn 0 0 1
vn 1 0 0
vn -1 0 0
vn 0 0 -1
vn 0 0 1
vn 1 0 0
vn -1 0 0
vn 0 0 -1
vn 0 1 0
vn 0 -1 0
vn 1 0 0
vn -1 0 0
vn 0 0 -1
vn 0 -1 0
vn 0 0 -1
vn 0 0 1
vn 0 1 0
vn 0 -1 0
vn 1 0 0
vn -1 0 0
vn 0 0 -1
vn 0 0 1
vn 0 1 0
vn 0 -1 0
vn 1 0 0
vn -1 0 0
vn 0 0 -1
vn 0 0 1
vn 0 1 0
vn 1 0 0
vn 0 0 -1
vn 0 0 1
vn 0 1 0
vn 0 -1 0
vn 1 0 0
vn 0 0 -1
vn 0 0 1
vn 0 1 0
vn 0 -1 0
vn 1 0 0
vn -1 0 0
vn 0 0 1
vn 0 1 0
vn 0 -1 0
vn -1 0 0
vn -1 0 0
vn 0 1 0
vn 0 -1 0
vn 0 0 -1
vn 0 0 1
vn -1 0 0
vn 0 1 0
vn 0 -1 0
vn 0 0 -1
vn 0 0 1
vn 0 0 -1
vn 0 0 1
vn 0 1 0
vn 1 0 0
vn -1 0 0
vn 0 0 -1
vn 0 0 1
vn 0 -1 0
vn 1 0 0
vn -1 0 0
vn 0 0 1
vn 0 1 0
vn 0 -1 0
vn -1 0 0
vn 0 0 1
vn 0 1 0
vn 0 -1 0
vn -1 0 0
vn 0 0 -1
vn 0 0 1
vn 0 1 0
vn 1 0 0
vn -1 0 0
vn -1 0 0
vn 0 1 0
vn 0 -1 0
vn 0 0 -1
vn 0 0 1
vn 0 0 -1
vn 0 0 1
vn 1 0 0
vn -1 0 0
vn 0 0 -1
vn 0 0 1
vn 1 0 0
vn -1 0 0
vn 0 0 -1
vn 0 0 1
vn 1 0 0
vn -1 0 0
vn 0 0 -1
vn 0 0 1
vn 0 1 0
vn 0 -1 0
vn 1 0 0
vn -1 0 0
vn 0 0 -1
vn 0 0 1
vn 0 1 0
vn 0 -1 0
vn 1 0 0
vn 0 0 -1
vn 0 0 1
vn 0 1 0
vn 1 0 0
vn 0 0 -1
vn 0 0 1
vn 1 0 0
vn -1 0 0
vn 0 0 -1
vn 0 0 1
vn 1 0 0
vn -1 0 0
vn 0 0 -1
vn 0 0 1
vn 1 0 0
vn -1 0 0
vn 0 0 -1
vn 0 0 1
vn 1 0 0
vn -1 0 0
vn 0 0 -1
vn 0 0 1
vn 1 0 0
vn -1 0 0
vn 0 0 -1
vn 0 1 0
vn 0 -1 0
vn 1 0 0
vn -1 0 0
vn -1 0 0
vn 1 0 0
vn 0 1 0
vn 0 -1 0
vn 0 0 -1
vn 0 0 -1
vn 0 0 1
vn 0 1 0
vn 0 -1 0
vn 1 0 0
vn 0 0 -1
vn 0 0 1
vn 0 1 0
vn 1 0 0
vn 0 0 -1
vn 0 0 1
vn 0.32 0.95 0
vn 1 0 0
vn 0 0 -1
vn 0 0 1
vn 0 1 0
vn 0 0 -1
vn 0 0 1
vn 0 1 0
vn 0 0 -1
vn 0 1 0
vn 0.99 0 -0.16
vn 0 1 0
vn 1 0 0
vn -1 0 0
vn 0 0 1
vn 0 1 0
vn -0.99 0 0.16
vn 0 0 -1
vn 0 0 1
vn 0 1 0
vn 0 0 -1
vn 0 0 1
vn 0 1 0
vn 0 0 -1
vn 0 0 1
vn 0 -1 0
vn -1 0 0
vn 1 0 0
usemtl vulcanizer_base1
f 3/3/1 10/2/1 13/1/1
f 5/4/1 3/3/1 13/1/1
f 9/7/2 12/6/2 11/5/2
f 7/8/2 9/7/2 11/5/2
usemtl common_rough_steel
f 11/11/3 14/10/3 17/9/3
f 7/12/3 11/11/3 17/9/3
usemtl vulcanizer_base1
f 8/15/4 16/14/4 15/13/4
f 6/16/4 8/15/4 15/13/4
f 7/19/5 17/18/5 18/17/5
f 9/20/5 7/19/5 18/17/5
usemtl common_rough_steel
f 6/23/6 15/22/6 14/21/6
f 11/24/6 6/23/6 14/21/6
usemtl vulcanizer_base1
f 6/27/7 11/26/7 12/25/7
f 8/28/7 6/27/7 12/25/7
f 4/31/8 13/30/8 10/29/8
f 2/32/8 4/31/8 10/29/8
usemtl common_rough_steel
f 10/35/9 14/34/9 15/33/9
f 2/36/9 10/35/9 15/33/9
usemtl vulcanizer_base1
f 2/39/10 15/38/10 16/37/10
f 4/40/10 2/39/10 16/37/10
usemtl common_rough_steel
f 3/43/11 17/42/11 14/41/11
f 10/44/11 3/43/11 14/41/11
usemtl vulcanizer_base1
f 5/47/12 18/46/12 17/45/12
f 3/48/12 5/47/12 17/45/12
f 19/51/13 20/50/13 24/49/13
f 23/52/13 19/51/13 24/49/13
f 22/55/14 21/54/14 25/53/14
f 26/56/14 22/55/14 25/53/14
f 21/59/15 19/58/15 23/57/15
f 25/60/15 21/59/15 23/57/15
f 26/63/16 24/62/16 20/61/16
f 22/64/16 26/63/16 20/61/16
f 27/67/17 28/66/17 32/65/17
f 31/68/17 27/67/17 32/65/17
f 30/71/18 29/70/18 33/69/18
f 34/72/18 30/71/18 33/69/18
f 29/75/19 27/74/19 31/73/19
f 33/76/19 29/75/19 31/73/19
f 34/79/20 32/78/20 28/77/20
f 30/80/20 34/79/20 28/77/20
f 38/83/21 36/82/21 35/81/21
f 37/84/21 38/83/21 35/81/21
f 29/87/22 27/86/22 20/85/22
f 22/88/22 29/87/22 20/85/22
f 35/91/23 36/90/23 20/89/23
f 27/92/23 35/91/23 20/89/23
f 38/95/24 37/94/24 29/93/24
f 22/96/24 38/95/24 29/93/24
f 37/99/25 35/98/25 27/97/25
f 29/100/25 37/99/25 27/97/25
f 22/103/26 20/102/26 36/101/26
f 38/104/26 22/103/26 36/101/26
f 42/107/27 40/106/27 39/105/27
f 41/108/27 42/107/27 39/105/27
f 31/111/28 33/110/28 26/109/28
f 24/112/28 31/111/28 26/109/28
f 39/115/29 40/114/29 26/113/29
f 33/116/29 39/115/29 26/113/29
f 42/119/30 41/118/30 31/117/30
f 24/120/30 42/119/30 31/117/30
f 41/123/31 39/122/31 33/121/31
f 31/124/31 41/123/31 33/121/31
f 24/127/32 26/126/32 40/125/32
f 42/128/32 24/127/32 40/125/32
usemtl common_steel_norivets
f 44/131/33 51/130/33 54/129/33
f 46/132/33 44/131/33 54/129/33
f 50/135/34 53/134/34 52/133/34
f 48/136/34 50/135/34 52/133/34
f 52/139/35 55/138/35 59/137/35
f 48/140/35 52/139/35 59/137/35
f 49/143/36 57/142/36 56/141/36
f 47/144/36 49/143/36 56/141/36
f 48/147/37 59/146/37 58/145/37
f 50/148/37 48/147/37 58/145/37
f 47/151/38 56/150/38 55/149/38
f 52/152/38 47/151/38 55/149/38
f 47/155/39 52/154/39 53/153/39
f 49/156/39 47/155/39 53/153/39
f 45/159/40 54/158/40 51/157/40
f 43/160/40 45/159/40 51/157/40
f 51/163/41 55/162/41 56/161/41
f 43/164/41 51/163/41 56/161/41
f 43/167/42 56/166/42 57/165/42
f 45/168/42 43/167/42 57/165/42
f 46/171/43 58/170/43 59/169/43
f 44/172/43 46/171/43 59/169/43
f 44/175/44 59/174/44 55/173/44
f 51/176/44 44/175/44 55/173/44
usemtl common_cable_and_pipe
f 65/179/45 63/178/45 64/177/45
f 66/180/45 65/179/45 64/177/45
f 60/183/46 61/182/46 64/181/46
f 63/184/46 60/183/46 64/181/46
f 62/187/47 60/186/47 63/185/47
f 65/188/47 62/187/47 63/185/47
f 70/191/48 68/190/48 67/189/48
f 69/192/48 70/191/48 67/189/48
f 73/195/49 71/194/49 72/193/49
f 74/196/49 73/195/49 72/193/49
f 67/199/50 68/198/50 72/197/50
f 71/200/50 67/199/50 72/197/50
f 74/203/51 72/202/51 68/201/51
f 70/204/51 74/203/51 68/201/51
f 69/207/52 67/206/52 75/205/52
f 76/208/52 69/207/52 75/205/52
f 78/211/53 77/210/53 71/209/53
f 73/212/53 78/211/53 71/209/53
f 75/215/54 67/214/54 71/213/54
f 77/216/54 75/215/54 71/213/54
f 79/219/55 80/218/55 84/217/55
f 83/220/55 79/219/55 84/217/55
f 81/223/56 79/222/56 83/221/56
f 85/224/56 81/223/56 83/221/56
f 86/227/57 84/226/57 80/225/57
f 82/228/57 86/227/57 80/225/57
f 87/231/58 88/230/58 61/229/58
f 60/232/58 87/231/58 61/229/58
f 89/235/59 87/234/59 60/233/59
f 62/236/59 89/235/59 60/233/59
f 91/239/60 61/238/60 88/237/60
f 90/240/60 91/239/60 88/237/60
f 95/243/61 93/242/61 92/241/61
f 94/244/61 95/243/61 92/241/61
f 98/247/62 96/246/62 97/245/62
f 99/248/62 98/247/62 97/245/62
f 92/251/63 93/250/63 97/249/63
f 96/252/63 92/251/63 97/249/63
f 101/255/64 100/254/64 93/253/64
f 95/256/64 101/255/64 93/253/64
f 99/259/65 97/258/65 102/257/65
f 103/260/65 99/259/65 102/257/65
f 93/263/66 100/262/66 102/261/66
f 97/264/66 93/263/66 102/261/66
f 103/267/67 102/266/67 100/265/67
f 101/268/67 103/267/67 100/265/67
f 107/271/68 105/270/68 104/269/68
f 106/272/68 107/271/68 104/269/68
f 110/275/69 108/274/69 109/273/69
f 111/276/69 110/275/69 109/273/69
f 104/279/70 105/278/70 109/277/70
f 108/280/70 104/279/70 109/277/70
f 113/283/71 112/282/71 105/281/71
f 107/284/71 113/283/71 105/281/71
f 111/287/72 109/286/72 114/285/72
f 115/288/72 111/287/72 114/285/72
f 105/291/73 112/290/73 114/289/73
f 109/292/73 105/291/73 114/289/73
f 115/295/74 114/294/74 112/293/74
f 113/296/74 115/295/74 112/293/74
f 119/299/75 117/298/75 116/297/75
f 118/300/75 119/299/75 116/297/75
f 122/303/76 120/302/76 121/301/76
f 123/304/76 122/303/76 121/301/76
f 116/307/77 117/306/77 121/305/77
f 120/308/77 116/307/77 121/305/77
f 125/311/78 124/310/78 117/309/78
f 119/312/78 125/311/78 117/309/78
f 123/315/79 121/314/79 126/313/79
f 127/316/79 123/315/79 126/313/79
f 117/319/80 124/318/80 126/317/80
f 121/320/80 117/319/80 126/317/80
f 127/323/81 126/322/81 124/321/81
f 125/324/81 127/323/81 124/321/81
f 106/327/82 104/326/82 84/325/82
f 86/328/82 106/327/82 84/325/82
f 129/331/83 128/330/83 108/329/83
f 110/332/83 129/331/83 108/329/83
f 84/335/84 104/334/84 108/333/84
f 128/336/84 84/335/84 108/333/84
f 131/339/85 130/338/85 61/337/85
f 91/340/85 131/339/85 61/337/85
f 66/343/86 64/342/86 132/341/86
f 133/344/86 66/343/86 132/341/86
f 61/347/87 130/346/87 132/345/87
f 64/348/87 61/347/87 132/345/87
f 135/351/88 134/350/88 128/349/88
f 129/352/88 135/351/88 128/349/88
f 83/355/89 84/354/89 128/353/89
f 134/356/89 83/355/89 128/353/89
f 85/359/90 83/358/90 134/357/90
f 135/360/90 85/359/90 134/357/90
f 118/363/91 116/362/91 130/361/91
f 131/364/91 118/363/91 130/361/91
f 133/367/92 132/366/92 120/365/92
f 122/368/92 133/367/92 120/365/92
f 130/371/93 116/370/93 120/369/93
f 132/372/93 130/371/93 120/369/93
usemtl common_machinebase
f 142/375/94 140/374/94 141/373/94
f 143/376/94 142/375/94 141/373/94
usemtl common_steel
f 136/379/95 137/378/95 141/377/95
f 140/380/95 136/379/95 141/377/95
usemtl common_bottom
f 139/383/96 138/382/96 142/381/96
f 143/384/96 139/383/96 142/381/96
usemtl common_machinebase
f 138/387/97 136/386/97 140/385/97
f 142/388/97 138/387/97 140/385/97
f 143/391/98 141/390/98 137/389/98
f 139/392/98 143/391/98 137/389/98
usemtl common_steel_norivets
f 147/395/99 145/394/99 144/393/99
f 146/396/99 147/395/99 144/393/99
f 150/399/100 148/398/100 149/397/100
f 151/400/100 150/399/100 149/397/100
f 146/403/101 144/402/101 148/401/101
f 150/404/101 146/403/101 148/401/101
f 151/407/102 149/406/102 145/405/102
f 147/408/102 151/407/102 145/405/102
usemtl common_machinebase
f 158/411/103 156/410/103 157/409/103
f 159/412/103 158/411/103 157/409/103
usemtl common_rough_steel
f 152/415/104 153/414/104 157/413/104
f 156/416/104 152/415/104 157/413/104
usemtl common_bottom
f 155/419/105 154/418/105 158/417/105
f 159/420/105 155/419/105 158/417/105
usemtl common_machinebase
f 159/423/106 157/422/106 153/421/106
f 155/424/106 159/423/106 153/421/106
f 162/427/107 147/426/107 160/425/107
f 161/428/107 162/427/107 160/425/107
usemtl common_rough_steel
f 160/431/108 147/430/108 153/429/108
f 152/432/108 160/431/108 153/429/108
usemtl common_bottom
f 162/435/109 161/434/109 154/433/109
f 155/436/109 162/435/109 154/433/109
usemtl common_machinebase
f 155/439/110 153/438/110 147/437/110
f 162/440/110 155/439/110 147/437/110
f 161/443/111 160/442/111 163/441/111
f 164/444/111 161/443/111 163/441/111
usemtl common_rough_steel
f 163/447/112 160/446/112 152/445/112
f 165/448/112 163/447/112 152/445/112
usemtl common_bottom
f 161/451/113 164/450/113 166/449/113
f 154/452/113 161/451/113 166/449/113
usemtl common_machinebase
f 164/455/114 163/454/114 165/453/114
f 166/456/114 164/455/114 165/453/114
f 168/459/115 167/458/115 156/457/115
f 158/460/115 168/459/115 156/457/115
usemtl common_rough_steel
f 165/463/116 152/462/116 156/461/116
f 167/464/116 165/463/116 156/461/116
usemtl common_bottom
f 154/467/117 166/466/117 168/465/117
f 158/468/117 154/467/117 168/465/117
usemtl common_machinebase
f 166/471/118 165/470/118 167/469/118
f 168/472/118 166/471/118 167/469/118
usemtl common_rough_steel
f 145/475/119 170/474/119 169/473/119
f 171/476/119 145/475/119 169/473/119
f 169/479/120 170/478/120 172/477/120
f 18/480/120 169/479/120 172/477/120
f 145/483/121 171/482/121 173/481/121
f 174/484/121 145/483/121 173/481/121
f 174/487/122 172/486/122 170/485/122
f 145/488/122 174/487/122 170/485/122
f 178/491/123 176/490/123 175/489/123
f 177/492/123 178/491/123 175/489/123
f 175/495/124 176/494/124 180/493/124
f 179/496/124 175/495/124 180/493/124
f 178/499/125 177/498/125 181/497/125
f 182/500/125 178/499/125 181/497/125
f 184/503/126 183/502/126 176/501/126
f 178/504/126 184/503/126 176/501/126
f 176/507/127 183/506/127 185/505/127
f 180/508/127 176/507/127 185/505/127
f 184/511/128 178/510/128 182/509/128
f 186/512/128 184/511/128 182/509/128
f 178/515/129 176/514/129 180/513/129
f 182/516/129 178/515/129 180/513/129
f 171/519/130 169/518/130 183/517/130
f 184/520/130 171/519/130 183/517/130
f 183/523/131 169/522/131 18/521/131
f 185/524/131 183/523/131 18/521/131
f 171/527/132 184/526/132 186/525/132
f 173/528/132 171/527/132 186/525/132
f 184/531/133 183/530/133 185/529/133
f 186/532/133 184/531/133 185/529/133
f 173/535/134 18/534/134 169/533/134
f 171/536/134 173/535/134 169/533/134
f 182/539/135 180/538/135 179/537/135
f 181/540/135 182/539/135 179/537/135
f 189/543/136 187/542/136 188/541/136
f 190/544/136 189/543/136 188/541/136
f 179/547/137 180/546/137 188/545/137
f 187/548/137 179/547/137 188/545/137
f 182/551/138 181/550/138 189/549/138
f 190/552/138 182/551/138 189/549/138
f 186/555/139 185/554/139 180/553/139
f 182/556/139 186/555/139 180/553/139
f 190/559/140 188/558/140 191/557/140
f 192/560/140 190/559/140 191/557/140
f 180/563/141 185/562/141 191/561/141
f 188/564/141 180/563/141 191/561/141
f 186/567/142 182/566/142 190/565/142
f 192/568/142 186/567/142 190/565/142
f 182/571/143 180/570/143 188/569/143
f 190/572/143 182/571/143 188/569/143
f 173/575/144 18/574/144 185/573/144
f 186/576/144 173/575/144 185/573/144
f 192/579/145 191/578/145 193/577/145
f 194/580/145 192/579/145 193/577/145
f 185/583/146 18/582/146 193/581/146
f 191/584/146 185/583/146 193/581/146
f 173/587/147 186/586/147 192/585/147
f 194/588/147 173/587/147 192/585/147
f 186/591/148 185/590/148 191/589/148
f 192/592/148 186/591/148 191/589/148
f 174/595/149 172/594/149 18/593/149
f 173/596/149 174/595/149 18/593/149
f 194/599/150 193/598/150 195/597/150
f 196/600/150 194/599/150 195/597/150
f 18/603/151 172/602/151 195/601/151
f 193/604/151 18/603/151 195/601/151
f 174/607/152 173/606/152 194/605/152
f 196/608/152 174/607/152 194/605/152
f 173/611/153 18/610/153 193/609/153
f 194/612/153 173/611/153 193/609/153
f 196/615/154 195/614/154 172/613/154
f 174/616/154 196/615/154 172/613/154
usemtl common_steel
f 200/619/155 198/618/155 197/617/155
f 199/620/155 200/619/155 197/617/155
f 202/623/156 201/622/156 198/621/156
f 200/624/156 202/623/156 198/621/156
f 199/627/157 197/626/157 203/625/157
f 204/628/157 199/627/157 203/625/157
f 204/631/158 203/630/158 181/629/158
f 165/632/158 204/631/158 181/629/158
f 207/635/159 205/634/159 206/633/159
f 208/636/159 207/635/159 206/633/159
f 208/639/160 206/638/160 201/637/160
f 202/640/160 208/639/160 201/637/160
f 210/643/161 209/642/161 205/641/161
f 207/644/161 210/643/161 205/641/161
f 165/647/162 181/646/162 209/645/162
f 210/648/162 165/647/162 209/645/162
usemtl common_steel_norivets
f 214/651/163 212/650/163 211/649/163
f 213/652/163 214/651/163 211/649/163
f 216/655/164 215/654/164 196/653/164
f 157/656/164 216/655/164 196/653/164
f 213/659/165 211/658/165 215/657/165
f 216/660/165 213/659/165 215/657/165
f 157/663/166 196/662/166 212/661/166
f 214/664/166 157/663/166 212/661/166
usemtl common_steel
f 218/667/167 217/666/167 209/665/167
f 219/668/167 218/667/167 209/665/167
usemtl common_bottom
f 166/671/168 139/670/168 218/669/168
f 219/672/168 166/671/168 218/669/168
usemtl common_thingies
f 226/675/169 224/674/169 225/673/169
f 227/676/169 226/675/169 225/673/169
f 220/679/170 221/678/170 225/677/170
f 224/680/170 220/679/170 225/677/170
f 223/683/171 222/682/171 226/681/171
f 227/684/171 223/683/171 226/681/171
f 222/687/172 220/686/172 224/685/172
f 226/688/172 222/687/172 224/685/172
f 227/691/173 225/690/173 221/689/173
f 223/692/173 227/691/173 221/689/173
usemtl common_rough_steel
f 231/695/174 230/694/174 187/693/174
f 189/696/174 231/695/174 187/693/174
f 228/699/175 179/698/175 187/697/175
f 230/700/175 228/699/175 187/697/175
f 181/703/176 229/702/176 231/701/176
f 189/704/176 181/703/176 231/701/176
f 189/707/177 187/706/177 179/705/177
f 181/708/177 189/707/177 179/705/177
f 235/711/178 234/710/178 230/709/178
f 231/712/178 235/711/178 230/709/178
f 232/715/179 228/714/179 230/713/179
f 234/716/179 232/715/179 230/713/179
f 229/719/180 233/718/180 235/717/180
f 231/720/180 229/719/180 235/717/180
f 233/723/181 232/722/181 234/721/181
f 235/724/181 233/723/181 234/721/181
f 231/727/182 230/726/182 228/725/182
f 229/728/182 231/727/182 228/725/182
f 239/731/183 237/730/183 236/729/183
f 238/732/183 239/731/183 236/729/183
f 233/735/184 232/734/184 228/733/184
f 229/736/184 233/735/184 228/733/184
f 236/739/185 237/738/185 228/737/185
f 232/740/185 236/739/185 228/737/185
f 239/743/186 238/742/186 233/741/186
f 229/744/186 239/743/186 233/741/186
f 238/747/187 236/746/187 232/745/187
f 233/748/187 238/747/187 232/745/187
f 177/751/188 175/750/188 237/749/188
f 239/752/188 177/751/188 237/749/188
f 229/755/189 228/754/189 179/753/189
f 181/756/189 229/755/189 179/753/189
f 237/759/190 175/758/190 179/757/190
f 228/760/190 237/759/190 179/757/190
f 177/763/191 239/762/191 229/761/191
f 181/764/191 177/763/191 229/761/191
f 239/767/192 237/766/192 228/765/192
f 229/768/192 239/767/192 228/765/192
f 181/771/193 179/770/193 175/769/193
f 177/772/193 181/771/193 175/769/193
usemtl common_steel
f 243/775/194 242/774/194 217/773/194
f 244/776/194 243/775/194 217/773/194
f 241/779/195 240/778/195 242/777/195
f 243/780/195 241/779/195 242/777/195
f 248/783/196 246/782/196 245/781/196
f 247/784/196 248/783/196 245/781/196
f 247/787/197 245/786/197 240/785/197
f 241/788/197 247/787/197 240/785/197
usemtl common_steel_norivets
f 252/791/198 250/790/198 249/789/198
f 251/792/198 252/791/198 249/789/198
f 140/795/199 235/794/199 253/793/199
f 254/796/199 140/795/199 253/793/199
f 251/799/200 249/798/200 235/797/200
f 140/800/200 251/799/200 235/797/200
f 254/803/201 253/802/201 250/801/201
f 252/804/201 254/803/201 250/801/201
f 257/807/202 255/806/202 238/805/202
f 256/808/202 257/807/202 238/805/202
f 260/811/203 258/810/203 259/809/203
f 261/812/203 260/811/203 259/809/203
f 256/815/204 238/814/204 258/813/204
f 260/816/204 256/815/204 258/813/204
f 261/819/205 259/818/205 255/817/205
f 257/820/205 261/819/205 255/817/205
usemtl common_thingies
f 265/823/206 263/822/206 262/821/206
f 264/824/206 265/823/206 262/821/206
f 262/827/207 263/826/207 267/825/207
f 266/828/207 262/827/207 267/825/207
f 265/831/208 264/830/208 268/829/208
f 269/832/208 265/831/208 268/829/208
f 264/835/209 262/834/209 266/833/209
f 268/836/209 264/835/209 266/833/209
f 269/839/210 267/838/210 263/837/210
f 265/840/210 269/839/210 263/837/210
usemtl common_steel
f 271/843/211 203/842/211 246/841/211
f 270/844/211 271/843/211 246/841/211
usemtl common_bottom
f 271/847/212 270/846/212 139/845/212
f 166/848/212 271/847/212 139/845/212
usemtl common_steel_norivets
f 275/851/213 273/850/213 272/849/213
f 274/852/213 275/851/213 272/849/213
f 278/855/214 276/854/214 277/853/214
f 279/856/214 278/855/214 277/853/214
f 272/859/215 273/858/215 277/857/215
f 276/860/215 272/859/215 277/857/215
f 275/863/216 274/862/216 278/861/216
f 279/864/216 275/863/216 278/861/216
f 274/867/217 272/866/217 276/865/217
f 278/868/217 274/867/217 276/865/217
f 279/871/218 277/870/218 273/869/218
f 275/872/218 279/871/218 273/869/218
usemtl vulcanizer_base2
f 283/875/219 281/874/219 280/873/219
f 282/876/219 283/875/219 280/873/219
f 286/879/220 284/878/220 285/877/220
f 287/880/220 286/879/220 285/877/220
f 280/883/221 281/882/221 285/881/221
f 284/884/221 280/883/221 285/881/221
f 283/887/222 282/886/222 286/885/222
f 287/888/222 283/887/222 286/885/222
f 282/891/223 280/890/223 284/889/223
f 286/892/223 282/891/223 284/889/223
f 287/895/224 285/894/224 281/893/224
f 283/896/224 287/895/224 281/893/224
usemtl common_thingies
f 291/899/225 289/898/225 288/897/225
f 290/900/225 291/899/225 288/897/225
f 294/903/226 292/902/226 293/901/226
f 295/904/226 294/903/226 293/901/226
f 288/907/227 289/906/227 293/905/227
f 292/908/227 288/907/227 293/905/227
f 290/911/228 288/910/228 292/909/228
f 294/912/228 290/911/228 292/909/228
f 299/915/229 297/914/229 296/913/229
f 298/916/229 299/915/229 296/913/229
f 302/919/230 300/918/230 301/917/230
f 303/920/230 302/919/230 301/917/230
f 296/923/231 297/922/231 301/921/231
f 300/924/231 296/923/231 301/921/231
f 299/927/232 298/926/232 302/925/232
f 303/928/232 299/927/232 302/925/232
f 298/931/233 296/930/233 300/929/233
f 302/932/233 298/931/233 300/929/233
usemtl common_steel_norivets
f 307/935/234 305/934/234 304/933/234
f 306/936/234 307/935/234 304/933/234
f 310/939/235 308/938/235 309/937/235
f 311/940/235 310/939/235 309/937/235
f 304/943/236 305/942/236 309/941/236
f 308/944/236 304/943/236 309/941/236
f 307/947/237 306/946/237 310/945/237
f 311/948/237 307/947/237 310/945/237
f 306/951/238 304/950/238 308/949/238
f 310/952/238 306/951/238 308/949/238
f 311/955/239 309/954/239 305/953/239
f 307/956/239 311/955/239 305/953/239
usemtl vulcanizer_base2
f 315/959/240 285/958/240 314/957/240
f 316/960/240 315/959/240 314/957/240
usemtl vulcanizer_base3
f 320/963/241 318/962/241 314/961/241
f 285/964/241 320/963/241 314/961/241
f 313/967/242 312/966/242 315/965/242
f 316/968/242 313/967/242 315/965/242
usemtl vulcanizer_base2
f 316/971/243 314/970/243 318/969/243
f 313/972/243 316/971/243 318/969/243
usemtl vulcanizer_base3
f 356/975/244 318/974/244 317/973/244
f 319/976/244 356/975/244 317/973/244
f 317/979/245 318/978/245 320/977/245
f 281/980/245 317/979/245 320/977/245
f 356/983/246 319/982/246 283/981/246
f 355/984/246 356/983/246 283/981/246
f 319/987/247 317/986/247 281/985/247
f 283/988/247 319/987/247 281/985/247
f 355/991/248 320/990/248 318/989/248
f 356/992/248 355/991/248 318/989/248
usemtl vulcanizer_base2
f 324/995/249 322/994/249 321/993/249
f 323/996/249 324/995/249 321/993/249
f 321/999/250 322/998/250 326/997/250
f 325/1000/250 321/999/250 326/997/250
f 324/1003/251 323/1002/251 327/1001/251
f 328/1004/251 324/1003/251 327/1001/251
f 323/1007/252 321/1006/252 325/1005/252
f 327/1008/252 323/1007/252 325/1005/252
f 328/1011/253 326/1010/253 322/1009/253
f 324/1012/253 328/1011/253 322/1009/253
usemtl common_thingies
f 332/1015/254 330/1014/254 329/1013/254
f 331/1016/254 332/1015/254 329/1013/254
f 335/1019/255 333/1018/255 334/1017/255
f 336/1020/255 335/1019/255 334/1017/255
f 329/1023/256 330/1022/256 334/1021/256
f 333/1024/256 329/1023/256 334/1021/256
f 331/1027/257 329/1026/257 333/1025/257
f 335/1028/257 331/1027/257 333/1025/257
f 336/1031/258 334/1030/258 330/1029/258
f 332/1032/258 336/1031/258 330/1029/258
f 340/1035/259 338/1034/259 337/1033/259
f 339/1036/259 340/1035/259 337/1033/259
f 343/1039/260 341/1038/260 342/1037/260
f 344/1040/260 343/1039/260 342/1037/260
f 340/1043/261 339/1042/261 343/1041/261
f 344/1044/261 340/1043/261 343/1041/261
f 339/1047/262 337/1046/262 341/1045/262
f 343/1048/262 339/1047/262 341/1045/262
f 344/1051/263 342/1050/263 338/1049/263
f 340/1052/263 344/1051/263 338/1049/263
usemtl vulcanizer_base2
f 351/1055/264 349/1054/264 350/1053/264
f 352/1056/264 351/1055/264 350/1053/264
usemtl vulcanizer_base3
f 345/1059/265 346/1058/265 350/1057/265
f 349/1060/265 345/1059/265 350/1057/265
f 348/1063/266 347/1062/266 351/1061/266
f 352/1064/266 348/1063/266 351/1061/266
usemtl vulcanizer_base2
f 352/1067/267 350/1066/267 346/1065/267
f 348/1068/267 352/1067/267 346/1065/267
f 287/1071/268 357/1070/268 1/1069/268
f 358/1072/268 287/1071/268 1/1069/268
usemtl vulcanizer_base3
f 353/1075/269 354/1074/269 1/1073/269
f 357/1076/269 353/1075/269 1/1073/269
f 356/1079/270 355/1078/270 287/1077/270
f 358/1080/270 356/1079/270 287/1077/270
usemtl vulcanizer_base2
f 358/1083/271 1/1082/271 354/1081/271
f 356/1084/271 358/1083/271 354/1081/271
usemtl common_thingies
f 362/1087/272 360/1086/272 359/1085/272
f 361/1088/272 362/1087/272 359/1085/272
f 365/1091/273 363/1090/273 364/1089/273
f 366/1092/273 365/1091/273 364/1089/273
f 359/1095/274 360/1094/274 364/1093/274
f 363/1096/274 359/1095/274 364/1093/274
f 361/1099/275 359/1098/275 363/1097/275
f 365/1100/275 361/1099/275 363/1097/275
f 366/1103/276 364/1102/276 360/1101/276
f 362/1104/276 366/1103/276 360/1101/276
usemtl vulcanizer_base2
f 370/1107/277 368/1106/277 367/1105/277
f 369/1108/277 370/1107/277 367/1105/277
f 367/1111/278 368/1110/278 372/1109/278
f 371/1112/278 367/1111/278 372/1109/278
f 370/1115/279 369/1114/279 373/1113/279
f 374/1116/279 370/1115/279 373/1113/279
f 369/1119/280 367/1118/280 371/1117/280
f 373/1120/280 369/1119/280 371/1117/280
f 374/1123/281 372/1122/281 368/1121/281
f 370/1124/281 374/1123/281 368/1121/281
usemtl common_steel_norivets
f 378/1127/282 376/1126/282 375/1125/282
f 377/1128/282 378/1127/282 375/1125/282
f 381/1131/283 379/1130/283 380/1129/283
f 382/1132/283 381/1131/283 380/1129/283
f 377/1135/284 375/1134/284 379/1133/284
f 381/1136/284 377/1135/284 379/1133/284
f 382/1139/285 380/1138/285 376/1137/285
f 378/1140/285 382/1139/285 376/1137/285
f 386/1143/286 384/1142/286 383/1141/286
f 385/1144/286 386/1143/286 383/1141/286
f 389/1147/287 387/1146/287 388/1145/287
f 390/1148/287 389/1147/287 388/1145/287
f 385/1151/288 383/1150/288 387/1149/288
f 389/1152/288 385/1151/288 387/1149/288
f 390/1155/289 388/1154/289 384/1153/289
f 386/1156/289 390/1155/289 384/1153/289
f 394/1159/290 392/1158/290 391/1157/290
f 393/1160/290 394/1159/290 391/1157/290
f 397/1163/291 395/1162/291 396/1161/291
f 398/1164/291 397/1163/291 396/1161/291
f 393/1167/292 391/1166/292 395/1165/292
f 397/1168/292 393/1167/292 395/1165/292
f 398/1171/293 396/1170/293 392/1169/293
f 394/1172/293 398/1171/293 392/1169/293
usemtl vulcanizer_base2
f 402/1175/294 400/1174/294 399/1173/294
f 401/1176/294 402/1175/294 399/1173/294
f 405/1179/295 403/1178/295 404/1177/295
f 406/1180/295 405/1179/295 404/1177/295
usemtl vulcanizer_base4
f 399/1183/296 400/1182/296 404/1181/296
f 403/1184/296 399/1183/296 404/1181/296
f 402/1187/297 401/1186/297 405/1185/297
f 406/1188/297 402/1187/297 405/1185/297
usemtl vulcanizer_base2
f 401/1191/298 399/1190/298 403/1189/298
f 405/1192/298 401/1191/298 403/1189/298
f 406/1195/299 404/1194/299 400/1193/299
f 402/1196/299 406/1195/299 400/1193/299
usemtl common_thingies
f 410/1199/300 408/1198/300 407/1197/300
f 409/1200/300 410/1199/300 407/1197/300
f 413/1203/301 411/1202/301 412/1201/301
f 414/1204/301 413/1203/301 412/1201/301
f 407/1207/302 408/1206/302 412/1205/302
f 411/1208/302 407/1207/302 412/1205/302
f 410/1211/303 409/1210/303 413/1209/303
f 414/1212/303 410/1211/303 413/1209/303
f 409/1215/304 407/1214/304 411/1213/304
f 413/1216/304 409/1215/304 411/1213/304
f 418/1219/305 416/1218/305 415/1217/305
f 417/1220/305 418/1219/305 415/1217/305
f 421/1223/306 419/1222/306 420/1221/306
f 422/1224/306 421/1223/306 420/1221/306
f 415/1227/307 416/1226/307 420/1225/307
f 419/1228/307 415/1227/307 420/1225/307
f 417/1231/308 415/1230/308 419/1229/308
f 421/1232/308 417/1231/308 419/1229/308
usemtl common_steel_norivets
f 426/1235/309 424/1234/309 423/1233/309
f 425/1236/309 426/1235/309 423/1233/309
f 429/1239/310 427/1238/310 428/1237/310
f 430/1240/310 429/1239/310 428/1237/310
f 425/1243/311 423/1242/311 427/1241/311
f 429/1244/311 425/1243/311 427/1241/311
f 430/1247/312 428/1246/312 424/1245/312
f 426/1248/312 430/1247/312 424/1245/312
f 434/1251/313 432/1250/313 431/1249/313
f 433/1252/313 434/1251/313 431/1249/313
f 437/1255/314 435/1254/314 436/1253/314
f 438/1256/314 437/1255/314 436/1253/314
f 433/1259/315 431/1258/315 435/1257/315
f 437/1260/315 433/1259/315 435/1257/315
f 438/1263/316 436/1262/316 432/1261/316
f 434/1264/316 438/1263/316 432/1261/316
f 442/1267/317 440/1266/317 439/1265/317
f 441/1268/317 442/1267/317 439/1265/317
f 445/1271/318 443/1270/318 444/1269/318
f 446/1272/318 445/1271/318 444/1269/318
f 441/1275/319 439/1274/319 443/1273/319
f 445/1276/319 441/1275/319 443/1273/319
f 446/1279/320 444/1278/320 440/1277/320
f 442/1280/320 446/1279/320 440/1277/320
f 450/1283/321 448/1282/321 447/1281/321
f 449/1284/321 450/1283/321 447/1281/321
f 453/1287/322 451/1286/322 452/1285/322
f 454/1288/322 453/1287/322 452/1285/322
f 449/1291/323 447/1290/323 451/1289/323
f 453/1292/323 449/1291/323 451/1289/323
f 454/1295/324 452/1294/324 448/1293/324
f 450/1296/324 454/1295/324 448/1293/324
usemtl common_thingies
f 458/1299/325 456/1298/325 455/1297/325
f 457/1300/325 458/1299/325 455/1297/325
f 461/1303/326 459/1302/326 460/1301/326
f 462/1304/326 461/1303/326 460/1301/326
f 457/1307/327 455/1306/327 459/1305/327
f 461/1308/327 457/1307/327 459/1305/327
f 462/1311/328 460/1310/328 456/1309/328
f 458/1312/328 462/1311/328 456/1309/328
usemtl common_machinebase
f 465/1315/329 463/1314/329 256/1313/329
f 464/1316/329 465/1315/329 256/1313/329
usemtl common_steel
f 256/1319/330 463/1318/330 137/1317/330
f 136/1320/330 256/1319/330 137/1317/330
usemtl common_bottom
f 465/1323/331 464/1322/331 138/1321/331
f 139/1324/331 465/1323/331 138/1321/331
usemtl common_machinebase
f 464/1327/332 256/1326/332 136/1325/332
f 138/1328/332 464/1327/332 136/1325/332
f 139/1331/333 137/1330/333 463/1329/333
f 465/1332/333 139/1331/333 463/1329/333
usemtl vulcanizer_base2
f 469/1335/334 467/1334/334 466/1333/334
f 468/1336/334 469/1335/334 466/1333/334
f 472/1339/335 470/1338/335 471/1337/335
f 473/1340/335 472/1339/335 471/1337/335
f 466/1343/336 467/1342/336 471/1341/336
f 470/1344/336 466/1343/336 471/1341/336
f 469/1347/337 468/1346/337 472/1345/337
f 473/1348/337 469/1347/337 472/1345/337
f 468/1351/338 466/1350/338 470/1349/338
f 472/1352/338 468/1351/338 470/1349/338
usemtl common_thingies
f 477/1355/339 475/1354/339 474/1353/339
f 476/1356/339 477/1355/339 474/1353/339
f 480/1359/340 478/1358/340 479/1357/340
f 481/1360/340 480/1359/340 479/1357/340
f 474/1363/341 475/1362/341 479/1361/341
f 478/1364/341 474/1363/341 479/1361/341
f 477/1367/342 476/1366/342 480/1365/342
f 481/1368/342 477/1367/342 480/1365/342
f 476/1371/343 474/1370/343 478/1369/343
f 480/1372/343 476/1371/343 478/1369/343
f 485/1375/344 483/1374/344 482/1373/344
f 484/1376/344 485/1375/344 482/1373/344
f 488/1379/345 486/1378/345 487/1377/345
f 489/1380/345 488/1379/345 487/1377/345
f 482/1383/346 483/1382/346 487/1381/346
f 486/1384/346 482/1383/346 487/1381/346
f 484/1387/347 482/1386/347 486/1385/347
f 488/1388/347 484/1387/347 486/1385/347
usemtl common_cable_and_pipe
f 493/1391/348 491/1390/348 490/1389/348
f 492/1392/348 493/1391/348 490/1389/348
f 496/1395/349 494/1394/349 495/1393/349
f 497/1396/349 496/1395/349 495/1393/349
f 490/1399/350 491/1398/350 495/1397/350
f 494/1400/350 490/1399/350 495/1397/350
f 492/1403/351 490/1402/351 494/1401/351
f 496/1404/351 492/1403/351 494/1401/351
f 501/1407/352 499/1406/352 498/1405/352
f 500/1408/352 501/1407/352 498/1405/352
f 504/1411/353 502/1410/353 503/1409/353
f 505/1412/353 504/1411/353 503/1409/353
f 498/1415/354 499/1414/354 503/1413/354
f 502/1416/354 498/1415/354 503/1413/354
f 500/1419/355 498/1418/355 506/1417/355
f 507/1420/355 500/1419/355 506/1417/355
f 509/1423/356 508/1422/356 502/1421/356
f 504/1424/356 509/1423/356 502/1421/356
f 506/1427/357 498/1426/357 502/1425/357
f 508/1428/357 506/1427/357 502/1425/357
f 507/1431/358 506/1430/358 512/1429/358
f 513/1432/358 507/1431/358 512/1429/358
f 508/1435/359 510/1434/359 512/1433/359
f 506/1436/359 508/1435/359 512/1433/359
f 513/1439/360 512/1438/360 510/1437/360
f 511/1440/360 513/1439/360 510/1437/360
f 510/1443/361 508/1442/361 515/1441/361
f 514/1444/361 510/1443/361 515/1441/361
f 511/1447/362 510/1446/362 514/1445/362
f 516/1448/362 511/1447/362 514/1445/362
f 517/1451/363 515/1450/363 508/1449/363
f 509/1452/363 517/1451/363 508/1449/363
f 520/1455/364 518/1454/364 519/1453/364
f 521/1456/364 520/1455/364 519/1453/364
f 514/1459/365 515/1458/365 519/1457/365
f 518/1460/365 514/1459/365 519/1457/365
f 521/1463/366 519/1462/366 515/1461/366
f 517/1464/366 521/1463/366 515/1461/366
f 516/1467/367 514/1466/367 522/1465/367
f 523/1468/367 516/1467/367 522/1465/367
f 525/1471/368 524/1470/368 518/1469/368
f 520/1472/368 525/1471/368 518/1469/368
f 522/1475/369 514/1474/369 518/1473/369
f 524/1476/369 522/1475/369 518/1473/369
f 523/1479/370 522/1478/370 491/1477/370
f 493/1480/370 523/1479/370 491/1477/370
f 497/1483/371 495/1482/371 524/1481/371
f 525/1484/371 497/1483/371 524/1481/371
f 491/1487/372 522/1486/372 524/1485/372
f 495/1488/372 491/1487/372 524/1485/372
usemtl common_thingies
f 529/1491/373 527/1490/373 526/1489/373
f 528/1492/373 529/1491/373 526/1489/373
f 532/1495/374 530/1494/374 531/1493/374
f 533/1496/374 532/1495/374 531/1493/374
f 526/1499/375 527/1498/375 531/1497/375
f 530/1500/375 526/1499/375 531/1497/375
f 528/1503/376 526/1502/376 530/1501/376
f 532/1504/376 528/1503/376 530/1501/376
f 533/1507/377 531/1506/377 527/1505/377
f 529/1508/377 533/1507/377 527/1505/377