# Made by Pabilo8 with Blockbench
# Exported with IIToolkit Plugin
mtllib chemical_dispenser.mtl


o main
v -0.0625 0.34375 1
v -0.0625 0.34375 0
v -0.0625 0.09375 1
v -0.0625 0.09375 0
v -0.3125 0.34375 1
v -0.3125 0.34375 0
v -0.3125 0.09375 1
v -0.3125 0.09375 0
v 1 0.375 1
v 1 0.375 0
v 1 0.0625 1
v 1 0.0625 0
v 0 0.375 1
v 0 0.375 0
v 0 0.0625 1
v 0 0.0625 0
v 0.875 0.5 0.875
v 0.875 0.5 0.125
v 0.125 0.5 0.875
v 0.125 0.5 0.125
v 0.75 0.5015625 0.75
v 0.75 0.5 0.25
v 0.75 0.5625 0.75
v 0.75 0.5625 0.25
v 0.25 0.5 0.75
v 0.25 0.5015625 0.25
v 0.25 0.5625 0.75
v 0.25 0.5625 0.25
v 1.3125 0.34375 1
v 1.3125 0.34375 0
v 1.3125 0.09375 1
v 1.3125 0.09375 0
v 1.0625 0.34375 1
v 1.0625 0.34375 0
v 1.0625 0.09375 1
v 1.0625 0.09375 0
v 0.75 0.0625 0.75
v 0.75 0.0625 0.25
v 0.75 0 0.75
v 0.75 0 0.25
v 0.25 0.0625 0.75
v 0.25 0.0625 0.25
v 0.25 0 0.75
v 0.25 0 0.25
v 0 0.1875 0.9375
v 0 0.1875 0.875
v 0 0.125 0.9375
v 0 0.125 0.875
v -0.0625 0.1875 0.9375
v -0.0625 0.1875 0.875
v -0.0625 0.125 0.9375
v -0.0625 0.125 0.875
v 0 0.3125 0.9375
v 0 0.3125 0.875
v 0 0.25 0.9375
v 0 0.25 0.875
v -0.0625 0.3125 0.9375
v -0.0625 0.3125 0.875
v -0.0625 0.25 0.9375
v -0.0625 0.25 0.875
v 0 0.3125 0.125
v 0 0.3125 0.0625
v 0 0.25 0.125
v 0 0.25 0.0625
v -0.0625 0.3125 0.125
v -0.0625 0.3125 0.0625
v -0.0625 0.25 0.125
v -0.0625 0.25 0.0625
v 0 0.1875 0.125
v 0 0.1875 0.0625
v 0 0.125 0.125
v 0 0.125 0.0625
v -0.0625 0.1875 0.125
v -0.0625 0.1875 0.0625
v -0.0625 0.125 0.125
v -0.0625 0.125 0.0625
v 1.0625 0.3125 0.125
v 1.0625 0.3125 0.0625
v 1.0625 0.25 0.125
v 1.0625 0.25 0.0625
v 1 0.3125 0.125
v 1 0.3125 0.0625
v 1 0.25 0.125
v 1 0.25 0.0625
v 1.0625 0.1875 0.125
v 1.0625 0.1875 0.0625
v 1.0625 0.125 0.125
v 1.0625 0.125 0.0625
v 1 0.1875 0.125
v 1 0.1875 0.0625
v 1 0.125 0.125
v 1 0.125 0.0625
v 1.0625 0.3125 0.9375
v 1.0625 0.3125 0.875
v 1.0625 0.25 0.9375
v 1.0625 0.25 0.875
v 1 0.3125 0.9375
v 1 0.3125 0.875
v 1 0.25 0.9375
v 1 0.25 0.875
v 1.0625 0.1875 0.9375
v 1.0625 0.1875 0.875
v 1.0625 0.125 0.9375
v 1.0625 0.125 0.875
v 1 0.1875 0.9375
v 1 0.1875 0.875
v 1 0.125 0.9375
v 1 0.125 0.875
v 0.25 0.375 0.25
v 0 0.625 0
v 0 0.625 0.25
v 0 0.5625 0
v 0 0.5625 0.25
v 0.25 0.625 0
v 0.25 0.625 0.25
v 0.25 0.5625 0
v 0.03125 0.6875 0.03125
v 0.03125 0.6875 0.21875
v 0.03125 0.5 0.03125
v 0.03125 0.5 0.21875
v 0.21875 0.6875 0.03125
v 0.21875 0.6875 0.21875
v 0.21875 0.5 0.03125
v 0.21875 0.5 0.21875
v 0 0.503125 0
v 0 0.503125 0.25
v 0 0.375 0.25
v 0.25 0.503125 0
v 0.25 0.375 0
v 0.75 0.375 0.75
v 0.75 0.503125 1
v 0.75 0.375 1
v 1 0.503125 0.75
v 1 0.503125 1
v 1 0.375 0.75
v 0.78125 0.5625 0.78125
v 0.78125 0.5625 0.96875
v 0.78125 0.5 0.78125
v 0.78125 0.5 0.96875
v 0.96875 0.5625 0.78125
v 0.96875 0.5625 0.96875
v 0.96875 0.5 0.78125
v 0.96875 0.5 0.96875
v 0.75 0.625 0.75
v 0.75 0.625 1
v 0.75 0.5625 1
v 1 0.625 0.75
v 1 0.625 1
v 1 0.5625 0.75
v 1 0.5625 1
v 0.78125 0.6875 0.78125
v 0.78125 0.6875 0.96875
v 0.78125 0.625 0.78125
v 0.78125 0.625 0.96875
v 0.96875 0.6875 0.78125
v 0.96875 0.6875 0.96875
v 0.96875 0.625 0.78125
v 0.96875 0.625 0.96875
vt 0 0.5
vt 0.125 0.5
vt 0.125 0
vt 0 0
vt 0.125 0.5
vt 0 0.5
vt 0 0
vt 0.125 0
vt 0.125 0
vt 0.125 0.5
vt 0 0.5
vt 0 0
vt 0 0
vt 0 0.5
vt 0.125 0.5
vt 0.125 0
vt 0.375 0.5
vt 0.25 0.5
vt 0.25 0.375
vt 0.375 0.375
vt 0.375 0.375
vt 0.375 0.5
vt 0.25 0.5
vt 0.25 0.375
vt 1 0.34375
vt 1 0.5
vt 0.5 0.5
vt 0.5 0.34375
vt 1 0.34375
vt 1 0.5
vt 0.5 0.5
vt 0.5 0.34375
vt 1 0.5
vt 1 1
vt 0.5 1
vt 0.5 0.5
vt 1 0.1875
vt 1 0.34375
vt 0.5 0.34375
vt 0.5 0.1875
vt 1 0.1875
vt 1 0.34375
vt 0.5 0.34375
vt 0.5 0.1875
vt 0.4375 0.59375
vt 0.0625 0.59375
vt 0 0.5053624999999999
vt 0.5 0.5053624999999999
vt 0.5 1
vt 0.4375 0.9116124999999999
vt 0.0625 0.9116124999999999
vt 0 1
vt 0.5625 0.5625
vt 0.9375 0.5625
vt 0.9375 0.9375
vt 0.5625 0.9375
vt 0 0.5
vt 0.08838750000000006 0.5625
vt 0.08838750000000006 0.9375
vt 1.1102230246251565e-16 1
vt 0.41674374999999997 0.9375
vt 0.41674374999999997 0.5625
vt 0.5051312499999999 0.5
vt 0.50513125 1
vt 0.609375 0.609375
vt 0.609375 0.484375
vt 0.625 0.484375
vt 0.625 0.609375
vt 0.5 0.484375
vt 0.5 0.609375
vt 0.515625 0.609375
vt 0.515625 0.484375
vt 0.5 0.609375
vt 0.625 0.609375
vt 0.625 0.484375
vt 0.5 0.484375
vt 0.5 0.609375
vt 0.625 0.609375
vt 0.625 0.59375
vt 0.5 0.59375
vt 0.625 0.5
vt 0.5 0.5
vt 0.5 0.484375
vt 0.625 0.484375
vt 0.125 0.5
vt 0.25 0.5
vt 0.25 0
vt 0.125 0
vt 0.25 0.5
vt 0.125 0.5
vt 0.125 0
vt 0.25 0
vt 0.25 0
vt 0.25 0.5
vt 0.125 0.5
vt 0.125 0
vt 0.125 0
vt 0.125 0.5
vt 0.25 0.5
vt 0.25 0
vt 0.375 0.375
vt 0.25 0.375
vt 0.25 0.25
vt 0.375 0.25
vt 0.375 0.25
vt 0.375 0.375
vt 0.25 0.375
vt 0.25 0.25
vt 0.625 0.484375
vt 0.609375 0.484375
vt 0.609375 0.609375
vt 0.625 0.609375
vt 0.515625 0.609375
vt 0.5 0.609375
vt 0.5 0.484375
vt 0.515625 0.484375
vt 0.625 0.484375
vt 0.625 0.609375
vt 0.5 0.609375
vt 0.5 0.484375
vt 0.625 0.59375
vt 0.625 0.609375
vt 0.5 0.609375
vt 0.5 0.59375
vt 0.5 0.484375
vt 0.5 0.5
vt 0.625 0.5
vt 0.625 0.484375
vt 0.46875 0.03125
vt 0.46875 0.0625
vt 0.4375 0.0625
vt 0.4375 0.03125
vt 0.46875 0.03125
vt 0.46875 0.0625
vt 0.4375 0.0625
vt 0.4375 0.03125
vt 0.46875 0.03125
vt 0.46875 0.0625
vt 0.4375 0.0625
vt 0.4375 0.03125
vt 0.46875 0.03125
vt 0.46875 0.0625
vt 0.4375 0.0625
vt 0.4375 0.03125
vt 0.46875 0
vt 0.46875 0.03125
vt 0.4375 0.03125
vt 0.4375 0
vt 0.46875 0
vt 0.46875 0.03125
vt 0.4375 0.03125
vt 0.4375 0
vt 0.46875 0
vt 0.46875 0.03125
vt 0.4375 0.03125
vt 0.4375 0
vt 0.46875 0
vt 0.46875 0.03125
vt 0.4375 0.03125
vt 0.4375 0
vt 0.5 0
vt 0.5 0.03125
vt 0.46875 0.03125
vt 0.46875 0
vt 0.5 0
vt 0.5 0.03125
vt 0.46875 0.03125
vt 0.46875 0
vt 0.5 0
vt 0.5 0.03125
vt 0.46875 0.03125
vt 0.46875 0
vt 0.5 0
vt 0.5 0.03125
vt 0.46875 0.03125
vt 0.46875 0
vt 0.5 0.03125
vt 0.5 0.0625
vt 0.46875 0.0625
vt 0.46875 0.03125
vt 0.5 0.03125
vt 0.5 0.0625
vt 0.46875 0.0625
vt 0.46875 0.03125
vt 0.5 0.03125
vt 0.5 0.0625
vt 0.46875 0.0625
vt 0.46875 0.03125
vt 0.5 0.03125
vt 0.5 0.0625
vt 0.46875 0.0625
vt 0.46875 0.03125
vt 0.5 0
vt 0.5 0.03125
vt 0.46875 0.03125
vt 0.46875 0
vt 0.5 0
vt 0.5 0.03125
vt 0.46875 0.03125
vt 0.46875 0
vt 0.5 0
vt 0.5 0.03125
vt 0.46875 0.03125
vt 0.46875 0
vt 0.5 0
vt 0.5 0.03125
vt 0.46875 0.03125
vt 0.46875 0
vt 0.5 0.03125
vt 0.5 0.0625
vt 0.46875 0.0625
vt 0.46875 0.03125
vt 0.5 0.03125
vt 0.5 0.0625
vt 0.46875 0.0625
vt 0.46875 0.03125
vt 0.5 0.03125
vt 0.5 0.0625
vt 0.46875 0.0625
vt 0.46875 0.03125
vt 0.5 0.03125
vt 0.5 0.0625
vt 0.46875 0.0625
vt 0.46875 0.03125
vt 0.46875 0
vt 0.46875 0.03125
vt 0.4375 0.03125
vt 0.4375 0
vt 0.46875 0
vt 0.46875 0.03125
vt 0.4375 0.03125
vt 0.4375 0
vt 0.46875 0
vt 0.46875 0.03125
vt 0.4375 0.03125
vt 0.4375 0
vt 0.46875 0
vt 0.46875 0.03125
vt 0.4375 0.03125
vt 0.4375 0
vt 0.46875 0.03125
vt 0.46875 0.0625
vt 0.4375 0.0625
vt 0.4375 0.03125
vt 0.46875 0.03125
vt 0.46875 0.0625
vt 0.4375 0.0625
vt 0.4375 0.03125
vt 0.46875 0.03125
vt 0.46875 0.0625
vt 0.4375 0.0625
vt 0.4375 0.03125
vt 0.46875 0.03125
vt 0.46875 0.0625
vt 0.4375 0.0625
vt 0.4375 0.03125
vt 0.25 0.9375
vt 0.25 1
vt 0 1
vt 0 0.9375
vt 0.25 0.9375
vt 0.25 1
vt 0 1
vt 0 0.9375
vt 0.375 0.1875
vt 0.375 0.4375
vt 0.125 0.4375
vt 0.125 0.1875
vt 0.375 0.1875
vt 0.375 0.4375
vt 0.125 0.4375
vt 0.125 0.1875
vt 0.375 0.375
vt 0.375 0.4375
vt 0.125 0.4375
vt 0.125 0.375
vt 0.25 0.9375
vt 0.25 1
vt 0 1
vt 0 0.9375
vt 0.75 0.125
vt 0.75 0.3125
vt 0.5625 0.3125
vt 0.5625 0.125
vt 0.75 0.125
vt 0.75 0.3125
vt 0.5625 0.3125
vt 0.5625 0.125
vt 0.875 0.5625
vt 0.875 0.75
vt 0.6875 0.75
vt 0.6875 0.5625
vt 0.75 0.125
vt 0.75 0.3125
vt 0.5625 0.3125
vt 0.5625 0.125
vt 0.5625 0.125
vt 0.5625 0.3125
vt 0.75 0.3125
vt 0.75 0.125
vt 0.5 0.875
vt 0.375 0.875
vt 0.375 0.625
vt 0.5 0.625
vt 0 0.875
vt 0.125 0.875
vt 0.125 0.625
vt 0 0.625
vt 0.375 0.1875
vt 0.375 0.4375
vt 0.125 0.4375
vt 0.125 0.1875
vt 0.375 0.5
vt 0.375 0.625
vt 0.125 0.625
vt 0.125 0.5
vt 0.125 1
vt 0.125 0.875
vt 0.375 0.875
vt 0.375 1
vt 0.3125 0.75
vt 0.1875 0.75
vt 0.1875 0.5
vt 0.3125 0.5
vt 0.3125 0.75
vt 0.1875 0.75
vt 0.1875 0.5
vt 0.3125 0.5
vt 0.25 0.5
vt 0.25 0.75
vt 0 0.75
vt 0 0.5
vt 0.3125 0.75
vt 0.1875 0.75
vt 0.1875 0.5
vt 0.3125 0.5
vt 0.3125 0.75
vt 0.1875 0.75
vt 0.1875 0.5
vt 0.3125 0.5
vt 0.5625 0.75
vt 0.5625 0.8125
vt 0.375 0.8125
vt 0.375 0.75
vt 0.375 0.75
vt 0.375 0.8125
vt 0.1875 0.8125
vt 0.1875 0.75
vt 0.1875 0.75
vt 0.1875 0.8125
vt 0 0.8125
vt 0 0.75
vt 0.75 0.75
vt 0.75 0.8125
vt 0.5625 0.8125
vt 0.5625 0.75
vt 0.25 0.75
vt 0.1875 0.75
vt 0.1875 0.5
vt 0.25 0.5
vt 0.0625 0.75
vt 0 0.75
vt 0 0.5
vt 0.0625 0.5
vt 0.25 0.25
vt 0.25 0.5
vt 0 0.5
vt 0 0.25
vt 0.25 0.5
vt 0.25 0.75
vt 0 0.75
vt 0 0.5
vt 0.25 0.5
vt 0.25 0.5625
vt 0 0.5625
vt 0 0.5
vt 0.25 0.6875
vt 0.25 0.75
vt 0 0.75
vt 0 0.6875
vt 0.5625 0.75
vt 0.5625 0.8125
vt 0.375 0.8125
vt 0.375 0.75
vt 0.375 0.75
vt 0.375 0.8125
vt 0.1875 0.8125
vt 0.1875 0.75
vt 0.375 0.8125
vt 0.375 1
vt 0.1875 1
vt 0.1875 0.8125
vt 0.1875 0.75
vt 0.1875 0.8125
vt 0 0.8125
vt 0 0.75
vt 0.75 0.75
vt 0.75 0.8125
vt 0.5625 0.8125
vt 0.5625 0.75
vn 1 0 0
vn -1 0 0
vn 0 1 0
vn 0 -1 0
vn 0 0 1
vn 0 0 -1
vn 1 0 0
vn -1 0 0
vn 0 -1 0
vn 0 0 1
vn 0 0 -1
vn 0.7071067811865476 0.7071067811865476 0
vn -0.7071067811865476 0.7071067811865476 0
vn 0 1 0
vn 0 0.7071067811865476 0.7071067811865476
vn 0 0.7071067811865476 -0.7071067811865476
vn 1 0 0
vn -1 0 0
vn 0 1 0
vn 0 0 1
vn 0 0 -1
vn 1 0 0
vn -1 0 0
vn 0 1 0
vn 0 -1 0
vn 0 0 1
vn 0 0 -1
vn 1 0 0
vn -1 0 0
vn 0 -1 0
vn 0 0 1
vn 0 0 -1
vn 0 1 0
vn 0 -1 0
vn 0 0 1
vn 0 0 -1
vn 0 1 0
vn 0 -1 0
vn 0 0 1
vn 0 0 -1
vn 0 1 0
vn 0 -1 0
vn 0 0 1
vn 0 0 -1
vn 0 1 0
vn 0 -1 0
vn 0 0 1
vn 0 0 -1
vn 0 1 0
vn 0 -1 0
vn 0 0 1
vn 0 0 -1
vn 0 1 0
vn 0 -1 0
vn 0 0 1
vn 0 0 -1
vn 0 1 0
vn 0 -1 0
vn 0 0 1
vn 0 0 -1
vn 0 1 0
vn 0 -1 0
vn 0 0 1
vn 0 0 -1
vn -1 0 0
vn 1 0 0
vn 0 1 0
vn 0 -1 0
vn 0 0 -1
vn 0 0 1
vn -1 0 0
vn 1 0 0
vn 0 1 0
vn 0 0 -1
vn 0 0 1
vn -1 0 0
vn 1 0 0
vn 0.006249877933263752 0.9999804693221861 0
vn 0 0 -1
vn 0 0 1
vn -1 0 0
vn 1 0 0
vn 0 0.9999804693221861 -0.006249877933263752
vn 0 0 -1
vn 0 0 1
vn -1 0 0
vn 1 0 0
vn 0 0 -1
vn 0 0 1
vn -1 0 0
vn 1 0 0
vn 0 1 0
vn 0 -1 0
vn 0 0 -1
vn 0 0 1
vn -1 0 0
vn 1 0 0
vn 0 1 0
vn 0 0 -1
vn 0 0 1
usemtl chemical_dispenser
f 4/1/1 2/2/1 1/3/1
f 4/1/1 1/3/1 3/4/1
f 7/5/2 5/6/2 6/7/2
f 7/5/2 6/7/2 8/8/2
f 1/9/3 2/10/3 6/11/3
f 1/9/3 6/11/3 5/12/3
f 4/13/4 3/14/4 7/15/4
f 4/13/4 7/15/4 8/16/4
f 3/17/5 1/18/5 5/19/5
f 3/17/5 5/19/5 7/20/5
f 8/21/6 6/22/6 2/23/6
f 8/21/6 2/23/6 4/24/6
f 12/25/7 10/26/7 9/27/7
f 12/25/7 9/27/7 11/28/7
f 15/29/8 13/30/8 14/31/8
f 15/29/8 14/31/8 16/32/8
f 12/33/9 11/34/9 15/35/9
f 12/33/9 15/35/9 16/36/9
f 11/37/10 9/38/10 13/39/10
f 11/37/10 13/39/10 15/40/10
f 16/41/11 14/42/11 10/43/11
f 16/41/11 10/43/11 12/44/11
f 18/45/12 17/46/12 9/47/12
f 18/45/12 9/47/12 10/48/12
f 13/49/13 19/50/13 20/51/13
f 13/49/13 20/51/13 14/52/13
f 19/53/14 17/54/14 18/55/14
f 19/53/14 18/55/14 20/56/14
f 9/57/15 17/58/15 19/59/15
f 9/57/15 19/59/15 13/60/15
f 20/61/16 18/62/16 10/63/16
f 20/61/16 10/63/16 14/64/16
usemtl common_thingies
f 21/65/17 22/66/17 24/67/17
f 21/65/17 24/67/17 23/68/17
f 26/69/18 25/70/18 27/71/18
f 26/69/18 27/71/18 28/72/18
f 27/73/19 23/74/19 24/75/19
f 27/73/19 24/75/19 28/76/19
f 25/77/20 21/78/20 23/79/20
f 25/77/20 23/79/20 27/80/20
f 22/81/21 26/82/21 28/83/21
f 22/81/21 28/83/21 24/84/21
usemtl chemical_dispenser
f 32/85/22 30/86/22 29/87/22
f 32/85/22 29/87/22 31/88/22
f 35/89/23 33/90/23 34/91/23
f 35/89/23 34/91/23 36/92/23
f 29/93/24 30/94/24 34/95/24
f 29/93/24 34/95/24 33/96/24
f 32/97/25 31/98/25 35/99/25
f 32/97/25 35/99/25 36/100/25
f 31/101/26 29/102/26 33/103/26
f 31/101/26 33/103/26 35/104/26
f 36/105/27 34/106/27 30/107/27
f 36/105/27 30/107/27 32/108/27
usemtl common_thingies
f 40/109/28 38/110/28 37/111/28
f 40/109/28 37/111/28 39/112/28
f 43/113/29 41/114/29 42/115/29
f 43/113/29 42/115/29 44/116/29
f 40/117/30 39/118/30 43/119/30
f 40/117/30 43/119/30 44/120/30
f 39/121/31 37/122/31 41/123/31
f 39/121/31 41/123/31 43/124/31
f 44/125/32 42/126/32 38/127/32
f 44/125/32 38/127/32 40/128/32
usemtl chemical_dispenser
f 45/129/33 46/130/33 50/131/33
f 45/129/33 50/131/33 49/132/33
f 48/133/34 47/134/34 51/135/34
f 48/133/34 51/135/34 52/136/34
f 47/137/35 45/138/35 49/139/35
f 47/137/35 49/139/35 51/140/35
f 52/141/36 50/142/36 46/143/36
f 52/141/36 46/143/36 48/144/36
f 53/145/37 54/146/37 58/147/37
f 53/145/37 58/147/37 57/148/37
f 56/149/38 55/150/38 59/151/38
f 56/149/38 59/151/38 60/152/38
f 55/153/39 53/154/39 57/155/39
f 55/153/39 57/155/39 59/156/39
f 60/157/40 58/158/40 54/159/40
f 60/157/40 54/159/40 56/160/40
f 61/161/41 62/162/41 66/163/41
f 61/161/41 66/163/41 65/164/41
f 64/165/42 63/166/42 67/167/42
f 64/165/42 67/167/42 68/168/42
f 63/169/43 61/170/43 65/171/43
f 63/169/43 65/171/43 67/172/43
f 68/173/44 66/174/44 62/175/44
f 68/173/44 62/175/44 64/176/44
f 69/177/45 70/178/45 74/179/45
f 69/177/45 74/179/45 73/180/45
f 72/181/46 71/182/46 75/183/46
f 72/181/46 75/183/46 76/184/46
f 71/185/47 69/186/47 73/187/47
f 71/185/47 73/187/47 75/188/47
f 76/189/48 74/190/48 70/191/48
f 76/189/48 70/191/48 72/192/48
f 77/193/49 78/194/49 82/195/49
f 77/193/49 82/195/49 81/196/49
f 80/197/50 79/198/50 83/199/50
f 80/197/50 83/199/50 84/200/50
f 79/201/51 77/202/51 81/203/51
f 79/201/51 81/203/51 83/204/51
f 84/205/52 82/206/52 78/207/52
f 84/205/52 78/207/52 80/208/52
f 85/209/53 86/210/53 90/211/53
f 85/209/53 90/211/53 89/212/53
f 88/213/54 87/214/54 91/215/54
f 88/213/54 91/215/54 92/216/54
f 87/217/55 85/218/55 89/219/55
f 87/217/55 89/219/55 91/220/55
f 92/221/56 90/222/56 86/223/56
f 92/221/56 86/223/56 88/224/56
f 93/225/57 94/226/57 98/227/57
f 93/225/57 98/227/57 97/228/57
f 96/229/58 95/230/58 99/231/58
f 96/229/58 99/231/58 100/232/58
f 95/233/59 93/234/59 97/235/59
f 95/233/59 97/235/59 99/236/59
f 100/237/60 98/238/60 94/239/60
f 100/237/60 94/239/60 96/240/60
f 101/241/61 102/242/61 106/243/61
f 101/241/61 106/243/61 105/244/61
f 104/245/62 103/246/62 107/247/62
f 104/245/62 107/247/62 108/248/62
f 103/249/63 101/250/63 105/251/63
f 103/249/63 105/251/63 107/252/63
f 108/253/64 106/254/64 102/255/64
f 108/253/64 102/255/64 104/256/64
usemtl data_connector
f 113/257/65 111/258/65 110/259/65
f 113/257/65 110/259/65 112/260/65
f 116/261/66 114/262/66 115/263/66
f 116/261/66 115/263/66 28/264/66
f 110/265/67 111/266/67 115/267/67
f 110/265/67 115/267/67 114/268/67
f 113/269/68 112/270/68 116/271/68
f 113/269/68 116/271/68 28/272/68
f 112/273/69 110/274/69 114/275/69
f 112/273/69 114/275/69 116/276/69
f 28/277/70 115/278/70 111/279/70
f 28/277/70 111/279/70 113/280/70
f 120/281/71 118/282/71 117/283/71
f 120/281/71 117/283/71 119/284/71
f 123/285/72 121/286/72 122/287/72
f 123/285/72 122/287/72 124/288/72
f 117/289/73 118/290/73 122/291/73
f 117/289/73 122/291/73 121/292/73
f 119/293/74 117/294/74 121/295/74
f 119/293/74 121/295/74 123/296/74
f 124/297/75 122/298/75 118/299/75
f 124/297/75 118/299/75 120/300/75
f 127/301/76 126/302/76 125/303/76
f 127/301/76 125/303/76 14/304/76
f 129/305/77 128/306/77 26/307/77
f 129/305/77 26/307/77 109/308/77
f 125/309/78 126/310/78 26/311/78
f 125/309/78 26/311/78 128/312/78
f 14/313/79 125/314/79 128/315/79
f 14/313/79 128/315/79 129/316/79
f 109/317/80 26/318/80 126/319/80
f 109/317/80 126/319/80 127/320/80
usemtl connector_connector_lv
f 132/321/81 131/322/81 21/323/81
f 132/321/81 21/323/81 130/324/81
f 135/325/82 133/326/82 134/327/82
f 135/325/82 134/327/82 9/328/82
f 21/329/83 131/330/83 134/331/83
f 21/329/83 134/331/83 133/332/83
f 130/333/84 21/334/84 133/335/84
f 130/333/84 133/335/84 135/336/84
f 9/337/85 134/338/85 131/339/85
f 9/337/85 131/339/85 132/340/85
f 139/341/86 137/342/86 136/343/86
f 139/341/86 136/343/86 138/344/86
f 142/345/87 140/346/87 141/347/87
f 142/345/87 141/347/87 143/348/87
f 138/349/88 136/350/88 140/351/88
f 138/349/88 140/351/88 142/352/88
f 143/353/89 141/354/89 137/355/89
f 143/353/89 137/355/89 139/356/89
f 146/357/90 145/358/90 144/359/90
f 146/357/90 144/359/90 23/360/90
f 149/361/91 147/362/91 148/363/91
f 149/361/91 148/363/91 150/364/91
f 144/365/92 145/366/92 148/367/92
f 144/365/92 148/367/92 147/368/92
f 146/369/93 23/370/93 149/371/93
f 146/369/93 149/371/93 150/372/93
f 23/373/94 144/374/94 147/375/94
f 23/373/94 147/375/94 149/376/94
f 150/377/95 148/378/95 145/379/95
f 150/377/95 145/379/95 146/380/95
f 154/381/96 152/382/96 151/383/96
f 154/381/96 151/383/96 153/384/96
f 157/385/97 155/386/97 156/387/97
f 157/385/97 156/387/97 158/388/97
f 151/389/98 152/390/98 156/391/98
f 151/389/98 156/391/98 155/392/98
f 153/393/99 151/394/99 155/395/99
f 153/393/99 155/395/99 157/396/99
f 158/397/100 156/398/100 152/399/100
f 158/397/100 152/399/100 154/400/100