# Made by Pabilo8 with Blockbench
# Exported with IIToolkit Plugin
mtllib steel_wheel.mtl


o base
v 0.7395833333333333 0.75 0.9999999999999999
v 0.23958333333333334 0.75 1
v 0.7395833333333333 0.25 0.9999999999999999
v 0.23958333333333334 0.25 1
v 0.7395833333333333 0.75 0.9374999999999999
v 0.23958333333333331 0.75 0.9375
v 0.7395833333333333 0.25 0.9374999999999999
v 0.23958333333333331 0.25 0.9375
v 0.7395833333333333 0.75 0.8124999999999999
v 0.23958333333333334 0.75 0.8125
v 0.23958333333333334 0.25 0.8125
v 0.7395833333333333 0.25 0.8124999999999999
v 0.23958333333333331 0.75 0.75
v 0.7395833333333333 0.75 0.7499999999999999
v 0.7395833333333333 0.25 0.7499999999999999
v 0.23958333333333331 0.25 0.75
vt 0.25 0.609375
vt 0.125 0.609375
vt 0.125 0.484375
vt 0.25 0.484375
vt 0.125 0.609375
vt 0.25 0.609375
vt 0.25 0.484375
vt 0.125 0.484375
vt 0.125 0.59375
vt 0.125 0.609375
vt 0.25 0.609375
vt 0.25 0.59375
vt 0.25 0.484375
vt 0.25 0.5
vt 0.125 0.5
vt 0.125 0.484375
vt 0.234375 0.609375
vt 0.25 0.609375
vt 0.25 0.484375
vt 0.234375 0.484375
vt 0.125 0.609375
vt 0.140625 0.609375
vt 0.140625 0.484375
vt 0.125 0.484375
vt 0.25 0.609375
vt 0.125 0.609375
vt 0.125 0.484375
vt 0.25 0.484375
vt 0.125 0.609375
vt 0.25 0.609375
vt 0.25 0.484375
vt 0.125 0.484375
vt 0.125 0.59375
vt 0.125 0.609375
vt 0.25 0.609375
vt 0.25 0.59375
vt 0.25 0.484375
vt 0.25 0.5
vt 0.125 0.5
vt 0.125 0.484375
vt 0.234375 0.609375
vt 0.25 0.609375
vt 0.25 0.484375
vt 0.234375 0.484375
vt 0.125 0.609375
vt 0.140625 0.609375
vt 0.140625 0.484375
vt 0.125 0.484375
vn 1.1102230246251565e-16 0 1
vn -1.942890293094024e-16 0 -1
vn 0 1 0
vn 0 -1 0
vn 1 0 0
vn -1 0 4.44089209850063e-16
vn 1.1102230246251565e-16 0 1
vn -1.942890293094024e-16 0 -1
vn 0 1 0
vn 0 -1 0
vn 1 0 0
vn -1 0 4.44089209850063e-16
usemtl common_thingies
f 1/1/1 2/2/1 4/3/1 3/4/1
f 6/5/2 5/6/2 7/7/2 8/8/2
f 6/9/3 2/10/3 1/11/3 5/12/3
f 7/13/4 3/14/4 4/15/4 8/16/4
f 5/17/5 1/18/5 3/19/5 7/20/5
f 2/21/6 6/22/6 8/23/6 4/24/6
f 9/25/7 10/26/7 11/27/7 12/28/7
f 13/29/8 14/30/8 15/31/8 16/32/8
f 13/33/9 10/34/9 9/35/9 14/36/9
f 15/37/10 12/38/10 11/39/10 16/40/10
f 14/41/11 9/42/11 12/43/11 15/44/11
f 10/45/12 13/46/12 16/47/12 11/48/12