# Made by Pabilo8 with Blockbench
# Exported with IIToolkit Plugin on 28/06/2026
mtllib latex_drip.mtl

o drip
v 0.0625 -0.0068 0.0148
v 0.0625 -0.1742 -0.3894
v -0.0625 -0.0068 0.0148
v -0.0625 -0.1742 -0.3894
v -0.0625 -0.1742 -0.3894
v 0.0625 -0.1742 -0.3894
v 0.0625 -0.6694 -0.3655
v -0.0625 -0.6694 -0.3655
v -0.0625 0.0484 -0.0213
v 0.0625 0.0484 -0.0213
vt 0.0625 0.9375
vt 0.1875 0.9375
vt 0.1875 0.5
vt 0.0625 0.5
vt 0.0625 0.5
vt 0.1875 0.5
vt 0.1875 0
vt 0.0625 0
vt 0.0625 1
vt 0.0625 0.9375
vt 0.1875 0.9375
vt 0.1875 1
vn 0 0.92 -0.38
vn 0 -0.05 -1
vn 0 -0.55 -0.84
usemtl fluid_drip_00
f 3/1/1 1/2/1 2/3/1
f 3/1/1 2/3/1 4/4/1
f 5/5/2 6/6/2 7/7/2
f 5/5/2 7/7/2 8/8/2
f 3/9/3 9/10/3 10/11/3
f 3/9/3 10/11/3 1/12/3