# Made by Pabilo8 with Blockbench
# Exported with IIToolkit Plugin on 31/08/2026
mtllib filler.mtl

o main
v -1 0.1875 -0.0625
v 2 0.1875 -0.0625
v -1 0 -0.0625
v 2 0 -0.0625
v -1 0.1875 0
v 2 0.1875 0
v -1 0 0
v 2 0 0
v -0.25 0.75 0.1875
v 0 0.75 0.1875
v -0.25 0.25 0.1875
v 0 0.25 0.1875
v -0.25 0.75 0.4375
v 0 0.75 0.4375
v -0.25 0.25 0.4375
v 0 0.25 0.4375
v 0 0 0.1875
v 0.625 0 0.1875
v 0.625 0.25 0.1875
v 0 0 0.4375
v 0.625 0 0.4375
v 0.625 0.25 0.4375
v 0 0 0.5625
v 0 0.25 0.5625
v 0.8125 0 0.5625
v 0.8125 0.25 0.5625
v 0 0 0.8125
v 0 0.25 0.8125
v 0.8125 0 0.8125
v 0.8125 0.25 0.8125
v -0.25 0.75 0.5625
v 0 0.75 0.5625
v -0.25 0.25 0.5625
v -0.25 0.75 0.8125
v 0 0.75 0.8125
v -0.25 0.25 0.8125
v -0.5625 1.0625 0.1875
v -0.3125 1.0625 0.1875
v -0.5625 1.0625 0.4375
v -0.3125 1.0625 0.4375
v -0.3125 1 0.1875
v -0.5625 1 0.1875
v -0.5625 1 0.4375
v -0.3125 1 0.4375
v -0.3125 0.75 0.1875
v -0.3125 0.75 0.4375
v -0.25 1 0.1875
v -0.25 1 0.4375
v 0 0.9375 0.1875
v 0 0.9375 0.4375
v -0.375 0.75 0.5625
v -0.375 1 0.5625
v -0.375 0.75 0.8125
v -0.375 1 0.8125
v -0.25 1 0.5625
v -0.25 1 0.8125
v 0 0.9375 0.5625
v 0 0.9375 0.8125
v 0.875 0.25 0.375
v 0.875 0.25 0.1875
v 0.875 0 0.375
v 0.875 0 0.1875
v 1.0625 0.1875 0.5625
v 1.0625 0 0.5625
v 1.0625 0.1875 0.8125
v 1.0625 0 0.8125
v -0.25 0.0625 0.4375
v -0.25 0.0625 0.1875
v -0.25 0.0625 0.8125
v -0.25 0.0625 0.5625
v -0.5625 0.8125 0.4375
v -0.5625 0.8125 0.1875
v -0.625 1.0625 0.5625
v -0.375 1.0625 0.5625
v -0.625 1.0625 0.8125
v -0.375 1.0625 0.8125
v -0.625 1 0.5625
v -0.625 1 0.8125
v -0.625 0.8125 0.8125
v -0.625 0.8125 0.5625
v -1 -0.0625 0
v 2 -0.0625 0
v -1 0 2
v -1 -0.0625 2
v 2 0 1
v -1 0 1
v -1 -0.0625 1
v 2 -0.0625 1
v -0.9375 -0.0625 0
v 1.9375 -0.0625 0
v -0.9375 -0.5 0
v 1.9375 -0.5 0
v -0.9375 -0.0625 1.9375
v 1.9375 -0.0625 1.9375
v -0.9375 -0.5 1.9375
v 1.9375 -0.5 1.9375
v -0.9375 -0.0625 0.9688
v -0.9375 -0.5 0.9688
v 0.5 -0.0625 1.9375
v 0.5 -0.5 1.9375
v 1.9375 -0.0625 0.9688
v 1.9375 -0.5 0.9688
v -0.9375 -0.0625 -0.9375
v 1.9375 -0.0625 -0.9375
v -0.9375 -0.5 -0.9375
v 1.9375 -0.5 -0.9375
v 1.9375 -0.0625 -0.4687
v 1.9375 -0.5 -0.4687
v -0.9375 -0.0625 -0.4687
v -0.9375 -0.5 -0.4687
v 0.5 -0.0625 -0.9375
v 0.5 -0.5 -0.9375
v 2 0 -1
v 2 -0.0625 -1
v -1 0 -1
v -1 -0.0625 -1
v 0.0625 0 -1
v 0.0625 0 0
v 0.0625 -0.0625 0
v 0.0625 -0.0625 -1
v -1 -0.5 -1
v 2 -0.5 -1
v -1 -1 -1
v 2 -1 -1
v -1 -0.5 2
v -1 -1 2
v 1.875 -0.0625 1.875
v 2 -0.0625 1.875
v 1.875 -0.5 1.875
v 2 -0.5 1.875
v 1.9375 -0.0625 -0.0625
v 2 -0.0625 -0.0625
v 1.9375 -0.5 -0.0625
v 2 -0.5 -0.0625
v 1.9375 -0.0625 0.0625
v 2 -0.0625 0.0625
v 1.9375 -0.5 0.0625
v 2 -0.5 0.0625
v 1.875 -0.0625 -1
v 1.875 -0.5 -1
v 1.875 -0.0625 -0.875
v 2 -0.0625 -0.875
v 1.875 -0.5 -0.875
v 2 -0.5 -0.875
v -1 -0.0625 1.875
v -0.875 -0.0625 1.875
v -1 -0.5 1.875
v -0.875 -0.5 1.875
v -0.875 -0.0625 2
v -0.875 -0.5 2
v -1 -0.0625 -0.0625
v -0.9375 -0.0625 -0.0625
v -1 -0.5 -0.0625
v -0.9375 -0.5 -0.0625
v -1 -0.0625 0.0625
v -0.9375 -0.0625 0.0625
v -1 -0.5 0.0625
v -0.9375 -0.5 0.0625
v -0.875 -0.0625 -1
v -0.875 -0.5 -1
v -1 -0.0625 -0.875
v -0.875 -0.0625 -0.875
v -1 -0.5 -0.875
v -0.875 -0.5 -0.875
v 0.5625 1.375 -0.0625
v 0.5625 0.5 0
v 0.9375 0.5 0
v 0.5625 0 0
v 0.9375 0 0
v 0.5625 0.5 0.1875
v 0.9375 0.5 0.1875
v 0.5625 0 0.1875
v 0.9375 0 0.1875
v 0.5625 1 -0.0625
v 0.9375 1 -0.0625
v 0.5625 1 0
v 0.9375 1 0
v 0.9375 0.1875 -0.0625
v 0.5625 0.1875 -0.0625
v 0.5625 0.1875 0
v 0.9375 0.1875 0
v 0.25 1.9375 -0.75
v 0.75 1.9375 -0.75
v 0.25 1.1875 -0.75
v 0.75 1.1875 -0.75
v 0.25 1.9375 -0.25
v 0.75 1.9375 -0.25
v 0.25 1.1875 -0.25
v 0.75 1.1875 -0.25
v 0.3125 1.1875 -0.6875
v 0.6875 1.1875 -0.6875
v 0.3125 1.125 -0.6875
v 0.6875 1.125 -0.6875
v 0.3125 1.1875 -0.3125
v 0.6875 1.1875 -0.3125
v 0.3125 1.125 -0.3125
v 0.6875 1.125 -0.3125
v 0.5625 1.375 -0.25
v 0.6875 1.375 -0.25
v 0.5625 1.25 -0.25
v 0.6875 1.25 -0.25
v 0.6875 1.375 -0.0625
v 0.5625 1.25 -0.0625
v 0.6875 1.25 -0.0625
v 0.3125 1.375 -0.25
v 0.4375 1.375 -0.25
v 0.3125 1.25 -0.25
v 0.4375 1.25 -0.25
v 0.3125 1.375 -0.0625
v 0.4375 1.375 -0.0625
v 0.3125 1.25 -0.0625
v 0.4375 1.25 -0.0625
v 0.5625 1.875 -0.25
v 0.6875 1.875 -0.25
v 0.5625 1.75 -0.25
v 0.6875 1.75 -0.25
v 0.5625 1.875 -0.0625
v 0.6875 1.875 -0.0625
v 0.5625 1.75 -0.0625
v 0.6875 1.75 -0.0625
v 0.3125 1.875 -0.25
v 0.4375 1.875 -0.25
v 0.3125 1.75 -0.25
v 0.4375 1.75 -0.25
v 0.3125 1.875 -0.0625
v 0.4375 1.875 -0.0625
v 0.3125 1.75 -0.0625
v 0.4375 1.75 -0.0625
v 0.1875 2 -0.0625
v 0.9375 2 -0.0625
v 0.1875 1 -0.0625
v 0.1875 2 0
v 0.9375 2 0
v 0.1875 1 0
v 0.5625 2 -0.0625
v 0.5625 2 0
v 0.75 0.25 0.75
v 1.25 0.25 0.75
v 0.75 0 0.75
v 1.25 0 0.75
v 0.75 0.25 1.25
v 1.25 0.25 1.25
v 0.75 0 1.25
v 1.25 0 1.25
v -0.9375 2 2
v -0.9375 2 1.9375
v -0.9375 1.375 2
v -0.938 1.3761 1.9375
v -0.0625 2 2
v -0.0625 2 1.9375
v -0.0625 1.375 2
v -0.0625 1.375 1.9375
v -0.5625 1 2
v -0.562 1.0003 1.9375
v -0.0625 1 2
v -0.0625 1 1.9375
v -0.9375 2 1.0625
v -0.875 2 1.0625
v -0.938 1.3761 1.0625
v -0.875 1.375 1.0625
v -0.875 2 1.9375
v -0.875 1.375 1.9375
v -0.8829 1.405 1.0625
v -0.5294 1.0515 1.0625
v -0.562 1.0003 1.0625
v -0.8829 1.405 1.9375
v -0.5294 1.0515 1.9375
v -0.9375 2 1
v -0.9375 1.375 1
v -0.0625 2 1.0625
v -0.0625 2 1
v -0.0625 1.375 1.0625
v -0.0625 1.375 1
v -0.5625 1 1
v -0.0625 1 1.0625
v -0.0625 1 1
v -0.5625 1.0625 1.0625
v -0.0625 1.0625 1.0625
v -0.5625 1.0625 1.9375
v -0.0625 1.0625 1.9375
v 0 2 1
v 0 1 1
v 0 2 2
v 0 1 2
v 0 2 0
v 2 2 0
v 0 0.5 0
v 2 0.5 0
v 2 2 2
v 0 0.5 2
v 2 0.5 2
v 0.25 0.25 0.25
v 1.75 0.25 0.25
v 0.25 0.25 1.75
v 1.75 0.25 1.75
v -0.75 1.9375 0.25
v -0.25 1.9375 0.25
v -0.75 1.625 0.25
v -0.25 1.625 0.25
v -0.75 1.9375 0.75
v -0.25 1.9375 0.75
v -0.75 1.625 0.75
v -0.25 1.625 0.75
v -0.75 2 0.25
v -0.25 2 0.25
v -0.75 2 0.75
v -0.25 2 0.75
v -0.7812 1.5625 0.4375
v -0.7812 1.1875 0.4375
v -0.7812 1.5625 0.8125
v -0.7812 1.1875 0.8125
v -0.8125 1.625 0.125
v -0.6875 1.625 0.125
v -0.8125 1.5625 0.125
v -0.6875 1.5625 0.125
v -0.8125 1.625 0.875
v -0.6875 1.625 0.875
v -0.8125 1.5625 0.875
v -0.6875 1.5625 0.875
v -0.8125 1.625 0.4375
v -0.6875 1.625 0.4375
v -0.6875 1.5625 0.4375
v -0.8125 1.5625 0.4375
v -0.8125 1.1875 0.125
v -0.6875 1.1875 0.125
v -0.8125 1.1875 0.4375
v -0.6875 1.1875 0.4375
v -0.8125 1.375 0.125
v -0.6875 1.375 0.125
v -0.6875 1.375 0.4375
v -0.8125 1.375 0.4375
v -0.8125 1.125 0.125
v -0.6875 1.125 0.125
v -0.8125 1.1875 0.875
v -0.6875 1.1875 0.875
v -0.8125 1.125 0.875
v -0.6875 1.125 0.875
v -0.8125 1.125 0.4375
v -0.6875 1.125 0.4375
v 0 1.625 0.125
v 0 1.125 0.125
v 0 1.625 0.875
v 0 1.125 0.875
v 0 1.375 0.125
v -0.6875 1.375 0.875
v 0 1.375 0.875
v 0 1.625 0.5
v 0 1.125 0.5
v 0 1.375 0.5
v -0.3437 1.625 0.875
v -0.3437 1.375 0.875
v -0.3437 1.125 0.875
v -0.3437 1.125 0.5
v -0.3437 1.125 0.125
v -0.3437 1.375 0.125
v -0.3437 1.625 0.125
v -0.3437 1.625 0.5
v -0.8125 1.5625 0.8125
v -0.6875 1.5625 0.8125
v -0.8125 1.1875 0.8125
v -0.6875 1.1875 0.8125
v -0.625 1.125 0.125
v -0.25 1.125 0.125
v -0.625 1.0625 0.125
v -0.25 1.0625 0.125
v -0.625 1.125 0.5
v -0.25 1.125 0.5
v -0.625 1.0625 0.5
v -0.25 1.0625 0.5
v -0.6875 1.125 0.5
v -0.3125 1.125 0.5
v -0.6875 1.0625 0.5
v -0.3125 1.0625 0.5
v -0.3125 1.125 0.875
v -0.6875 1.0625 0.875
v -0.3125 1.0625 0.875
v 0.0625 0.5 1.8125
v 0.1875 0.5 1.8125
v 0.0625 0 1.8125
v 0.1875 0 1.8125
v 0.0625 0.5 1.9375
v 0.1875 0.5 1.9375
v 0.0625 0 1.9375
v 0.1875 0 1.9375
v 1.8125 0.5 1.8125
v 1.9375 0.5 1.8125
v 1.8125 0 1.8125
v 1.9375 0 1.8125
v 1.8125 0.5 1.9375
v 1.9375 0.5 1.9375
v 1.8125 0 1.9375
v 1.9375 0 1.9375
v 1.8125 0.5 0.0625
v 1.9375 0.5 0.0625
v 1.8125 0 0.0625
v 1.9375 0 0.0625
v 1.8125 0.5 0.1875
v 1.9375 0.5 0.1875
v 1.8125 0 0.1875
v 1.9375 0 0.1875
v 0.0625 0.5 0.0625
v 0.1875 0.5 0.0625
v 0.0625 0 0.0625
v 0.1875 0 0.0625
v 0.0625 0.5 0.1875
v 0.1875 0.5 0.1875
v 0.0625 0 0.1875
v 0.1875 0 0.1875
v -1 0.1875 -1
v 2 0.1875 -1
v -1 0.1875 -0.9375
v 2 0.1875 -0.9375
v -1 0 -0.9375
v 2 0 -0.9375
v 0.5625 1.5 -0.0625
v 0.1875 1.5 -0.0625
v 0.1875 1.5 0
v 0.9375 1.5 -0.0625
v 0.9375 1.5 0
v 0.75 0.1875 -0.0625
v 0.75 1 -0.0625
v 0.75 1.5 -0.0625
v 0.75 2 -0.0625
v 0.75 2 0
v 0.75 1.0625 -0.0625
v 0.5625 1.0625 -0.0625
v 0.1875 1.0625 -0.0625
v 0.1875 1.0625 0
v 0.9375 1.0625 -0.0625
v 0.9375 1.0625 0
v 2 -0.0625 1.9375
v 2 -0.5 1.9375
v 1.875 -0.5 1.9375
v 1.875 -0.0625 1.9375
v 2 -1 1.9375
v -1 -1 1.9375
v -1 -0.5 1.9375
v -1 0 1.9375
v 2 0 1.9375
v -1 -0.0625 1.9375
v 1 0 1.9375
v 1 0 2
v 1 -0.0625 2
v 1 -0.0625 1.9375
v 1 -0.0625 1
v 1 -0.0625 0
v 1 0 0
v 1 0 1
v 1 -1 1.9375
v 1 -1 2
v 1 -0.5 2
v 1 -0.5 1.9375
v 1 -0.5 -1
v 1 -1 -1
v 1.125 -0.125 2
v 1.125 0 2
v 1.125 -0.125 1.9375
v 1.125 0 1.9375
v 1.875 -0.125 2
v 1.875 0 2
v 1.875 -0.125 1.9375
v 1.875 0 1.9375
v 1.125 -1 2
v 1.125 -1 1.9375
v 1.125 -0.875 2
v 1.125 -0.875 1.9375
v 1.875 -0.875 2
v 1.875 -1 2
v 1.875 -0.875 1.9375
v 1.875 -1 1.9375
v 2 -1 2
v 2 0 2
v 1.25 -0.75 2
v 1.25 -0.25 2
v 1.25 -0.75 1.9375
v 1.25 -0.25 1.9375
v 1.75 -0.75 2
v 1.75 -0.25 2
v 1.75 -0.75 1.9375
v 1.75 -0.25 1.9375
vt 0.7969 1
vt 0.75 1
vt 0.75 0.25
vt 0.7969 0.25
vt 0.7969 1
vt 0.75 1
vt 0.75 0.25
vt 0.7969 0.25
vt 0.7656 0.25
vt 0.7656 1
vt 0.75 1
vt 0.75 0.25
vt 0.0156 0.9531
vt 0.0156 1
vt 0 1
vt 0 0.9531
vt 0.0156 0.9531
vt 0.0156 1
vt 0 1
vt 0 0.9531
vt 0.5 0.0625
vt 0.5 0.1875
vt 0.5625 0.1875
vt 0.5625 0.0625
vt 0.5 0.0625
vt 0.5 0.1875
vt 0.5625 0.1875
vt 0.5625 0.0625
vt 0.5625 0.0625
vt 0.5625 0.1875
vt 0.5 0.1875
vt 0.5 0.0625
vt 0.5625 0.0625
vt 0.5625 0.1875
vt 0.5 0.1875
vt 0.5 0.0625
vt 0.5 0
vt 0.5 0.1563
vt 0.5625 0.1563
vt 0.5625 0
vt 0.5 0
vt 0.5 0.1563
vt 0.5625 0.1563
vt 0.5625 0
vt 0.5625 0
vt 0.5625 0.1563
vt 0.5 0.1563
vt 0.5 0
vt 0.5 0.0469
vt 0.5 0.25
vt 0.5625 0.25
vt 0.5625 0.0469
vt 0.5 0.0469
vt 0.5 0.25
vt 0.5625 0.25
vt 0.5625 0.0469
vt 0.5625 0.0469
vt 0.5625 0.25
vt 0.5 0.25
vt 0.5 0.0469
vt 0.5 0.0625
vt 0.5 0.1875
vt 0.5625 0.1875
vt 0.5625 0.0625
vt 0.5 0.0625
vt 0.5 0.1875
vt 0.5625 0.1875
vt 0.5625 0.0625
vt 0.5625 0.0625
vt 0.5625 0.1875
vt 0.5 0.1875
vt 0.5 0.0625
vt 0.5625 0.0625
vt 0.5625 0.1875
vt 0.5 0.1875
vt 0.5 0.0625
vt 0.5625 0.1875
vt 0.5625 0.1719
vt 0.5 0.1719
vt 0.5 0.1875
vt 0.5625 0.1875
vt 0.5625 0.1719
vt 0.5 0.1719
vt 0.5 0.1875
vt 0.5 0.1875
vt 0.5 0.1719
vt 0.5625 0.1719
vt 0.5625 0.1875
vt 0.5 0.1875
vt 0.5 0.1719
vt 0.5625 0.1719
vt 0.5625 0.1875
vt 0.5625 0.1875
vt 0.5625 0.1719
vt 0.5 0.1719
vt 0.5 0.1875
vt 0.5625 0.1875
vt 0.5625 0.1719
vt 0.5 0.1719
vt 0.5 0.1875
vt 0.5 0.1875
vt 0.5 0.1719
vt 0.5625 0.1719
vt 0.5625 0.1875
vt 0.5 0.1875
vt 0.5 0.1719
vt 0.5625 0.1719
vt 0.5625 0.1875
vt 0.6875 0.2344
vt 0.625 0.25
vt 0.625 0.1875
vt 0.6875 0.1875
vt 0.625 0.0625
vt 0.625 0.125
vt 0.6875 0.1094
vt 0.6875 0.0625
vt 0.625 0.25
vt 0.5625 0.25
vt 0.5625 0.1875
vt 0.625 0.1875
vt 0.625 0.2344
vt 0.5625 0.2344
vt 0.5625 0.1875
vt 0.625 0.1875
vt 0.5625 0.1875
vt 0.5625 0.1563
vt 0.5 0.1563
vt 0.5 0.1875
vt 0.5625 0.1875
vt 0.5625 0.1563
vt 0.5 0.1563
vt 0.5 0.1875
vt 0.5 0.1875
vt 0.5 0.1563
vt 0.5625 0.1563
vt 0.5625 0.1875
vt 0.5 0.1875
vt 0.5 0.1563
vt 0.5625 0.1563
vt 0.5625 0.1875
vt 0.6875 0.2344
vt 0.625 0.25
vt 0.625 0.1875
vt 0.6875 0.1875
vt 0.625 0.0625
vt 0.625 0.125
vt 0.6875 0.1094
vt 0.6875 0.0625
vt 0.625 0.25
vt 0.5625 0.25
vt 0.5625 0.1875
vt 0.625 0.1875
vt 0.625 0.2344
vt 0.5625 0.2344
vt 0.5625 0.1875
vt 0.625 0.1875
vt 0.625 0.0625
vt 0.625 0.125
vt 0.6875 0.1094
vt 0.6875 0.0625
vt 0.625 0.25
vt 0.5625 0.25
vt 0.5625 0.1875
vt 0.625 0.1875
vt 0.625 0.2344
vt 0.5625 0.2344
vt 0.5625 0.1875
vt 0.625 0.1875
vt 0.6875 0.2344
vt 0.625 0.25
vt 0.625 0.1875
vt 0.6875 0.1875
vt 0.625 0.25
vt 0.5625 0.25
vt 0.5625 0.1875
vt 0.625 0.1875
vt 0.625 0.2344
vt 0.5625 0.2344
vt 0.5625 0.1875
vt 0.625 0.1875
vt 0.625 0.1875
vt 0.625 0.25
vt 0.6875 0.2344
vt 0.6875 0.1875
vt 0.6875 0.1094
vt 0.625 0.125
vt 0.625 0.0625
vt 0.6875 0.0625
vt 0.5625 0.1875
vt 0.5625 0.25
vt 0.625 0.25
vt 0.625 0.1875
vt 0.5625 0.1875
vt 0.5625 0.2344
vt 0.625 0.2344
vt 0.625 0.1875
vt 0.625 0.1875
vt 0.625 0.25
vt 0.6875 0.2344
vt 0.6875 0.1875
vt 0.6875 0.1094
vt 0.625 0.125
vt 0.625 0.0625
vt 0.6875 0.0625
vt 0.5625 0.1875
vt 0.5625 0.25
vt 0.625 0.25
vt 0.625 0.1875
vt 0.5625 0.1875
vt 0.5625 0.2344
vt 0.625 0.2344
vt 0.625 0.1875
vt 0.625 0.1875
vt 0.625 0.25
vt 0.6875 0.2344
vt 0.6875 0.1875
vt 0.6875 0.1094
vt 0.625 0.125
vt 0.625 0.0625
vt 0.6875 0.0625
vt 0.5625 0.1875
vt 0.5625 0.25
vt 0.625 0.25
vt 0.625 0.1875
vt 0.5625 0.1875
vt 0.5625 0.2344
vt 0.625 0.2344
vt 0.625 0.1875
vt 0.5625 0.1875
vt 0.5625 0.1719
vt 0.5 0.1719
vt 0.5 0.1875
vt 0.5625 0.1875
vt 0.5625 0.1719
vt 0.5 0.1719
vt 0.5 0.1875
vt 0.5 0.1875
vt 0.5 0.1719
vt 0.5625 0.1719
vt 0.5625 0.1875
vt 0.5 0.1875
vt 0.5 0.1719
vt 0.5625 0.1719
vt 0.5625 0.1875
vt 0.625 0.1875
vt 0.625 0.25
vt 0.6875 0.2344
vt 0.6875 0.1875
vt 0.6875 0.1094
vt 0.625 0.125
vt 0.625 0.0625
vt 0.6875 0.0625
vt 0.5625 0.1875
vt 0.5625 0.25
vt 0.625 0.25
vt 0.625 0.1875
vt 0.5625 0.1875
vt 0.5625 0.2344
vt 0.625 0.2344
vt 0.625 0.1875
vt 0.0156 0.25
vt 0.0156 0.5
vt 0.25 0.5
vt 0.25 0.25
vt 0.25 0.2656
vt 0.0156 0.2656
vt 0.0156 0.25
vt 0.25 0.25
vt 0.5469 0
vt 0.3125 0
vt 0.3125 0.0156
vt 0.5469 0.0156
vt 0.5 0.25
vt 0.5 0.5
vt 0.75 0.5
vt 0.75 0.25
vt 0.4844 0.2656
vt 0.2344 0.2656
vt 0.2344 0.25
vt 0.4844 0.25
vt 0.3594 0
vt 0.1094 0
vt 0.1094 0.0156
vt 0.3594 0.0156
vt 0.75 1
vt 0.5 1
vt 0.5 0.9844
vt 0.75 0.9844
vt 0.25 0.25
vt 0.25 0.5
vt 0.0156 0.5
vt 0.0156 0.25
vt 0.5 0.25
vt 0.5 0.5
vt 0.25 0.5
vt 0.25 0.25
vt 0.3906 1
vt 0.5156 1
vt 0.5156 0.8906
vt 0.3906 0.8906
vt 0.75 0.8906
vt 0.5078 0.8906
vt 0.5078 1
vt 0.75 1
vt 0.75 0.8906
vt 0.5078 0.8906
vt 0.5078 1
vt 0.75 1
vt 0 1
vt 0.2422 1
vt 0.2422 0.8906
vt 0 0.8906
vt 0 1
vt 0.3594 1
vt 0.3594 0.8906
vt 0 0.8906
vt 0 1
vt 0.2422 1
vt 0.2422 0.8906
vt 0 0.8906
vt 0.75 0.8906
vt 0.3906 0.8906
vt 0.3906 1
vt 0.75 1
vt 0.75 0.8906
vt 0.6328 0.8906
vt 0.6328 1
vt 0.75 1
vt 0.75 0.8906
vt 0.6328 0.8906
vt 0.6328 1
vt 0.75 1
vt 0.75 1
vt 0.8672 1
vt 0.8672 0.8906
vt 0.75 0.8906
vt 0 1
vt 0.1172 1
vt 0.1172 0.8906
vt 0 0.8906
vt 0 1
vt 0.3594 1
vt 0.3594 0.8906
vt 0 0.8906
vt 0.75 0.75
vt 0.75 0.2656
vt 0.7656 0.2656
vt 0.7656 0.75
vt 0.6719 0.25
vt 0.6719 0.2656
vt 0.4219 0.2656
vt 0.4219 0.25
vt 0.3906 0.2344
vt 0.3906 0.25
vt 0.1406 0.25
vt 0.1406 0.2344
vt 1 0.25
vt 1 0.2445
vt 0.25 0.2445
vt 0.25 0.25
vt 0.75 0.2813
vt 0.75 0.5469
vt 0.7344 0.5469
vt 0.7344 0.2813
vt 0.25 0.2344
vt 0.25 0.2445
vt 1 0.2445
vt 1 0.2344
vt 0.5 0.25
vt 0.2344 0.25
vt 0.2344 0
vt 0.5 0
vt 0.5 0.25
vt 0.2344 0.25
vt 0.2344 0
vt 0.5 0
vt 0 0.75
vt 0.5 0.75
vt 0.5 0.875
vt 0 0.875
vt 0.5 0.75
vt 0 0.75
vt 0 0.625
vt 0.5 0.625
vt 0.75 1
vt 0.75 0.5
vt 0.0156 0.5
vt 0.0156 1
vt 0.7344 0.25
vt 0.7344 0.75
vt 0 0.75
vt 0 0.25
vt 0 0.875
vt 0.7344 0.875
vt 0.7344 0.75
vt 0 0.75
vt 0.75 0.75
vt 0.0156 0.75
vt 0.0156 0.875
vt 0.75 0.875
vt 0.7656 0.6406
vt 0.7656 0.75
vt 0.7344 0.75
vt 0.7344 0.6406
vt 0.7656 0.4375
vt 0.75 0.4375
vt 0.75 0.4688
vt 0.7656 0.4688
vt 0.7344 0.5938
vt 0.75 0.5938
vt 0.75 0.4844
vt 0.7344 0.4844
vt 0.7813 0.5625
vt 0.7656 0.5625
vt 0.7656 0.6719
vt 0.7813 0.6719
vt 0.7344 0.5938
vt 0.7344 0.7031
vt 0.75 0.7031
vt 0.75 0.5938
vt 0.7656 0.5313
vt 0.7656 0.6406
vt 0.7813 0.6406
vt 0.7813 0.5313
vt 0.7656 0.5156
vt 0.7656 0.5
vt 0.7344 0.5
vt 0.7344 0.5156
vt 0.7656 0.5156
vt 0.7656 0.5313
vt 0.7344 0.5313
vt 0.7344 0.5156
vt 0.7344 0.5469
vt 0.7344 0.6563
vt 0.7656 0.6563
vt 0.7656 0.5469
vt 0.7031 0.7031
vt 0.7031 0.8125
vt 0.7344 0.8125
vt 0.7344 0.7031
vt 0.75 0.7656
vt 0.75 0.875
vt 0.7188 0.875
vt 0.7188 0.7656
vt 0.75 0.5
vt 0.75 0.6094
vt 0.7188 0.6094
vt 0.7188 0.5
vt 0.7656 0.4844
vt 0.7656 0.4531
vt 0.7344 0.4531
vt 0.7344 0.4844
vt 0.7656 0.5938
vt 0.7656 0.625
vt 0.7344 0.625
vt 0.7344 0.5938
vt 0.7188 0.7031
vt 0.7188 0.8125
vt 0.75 0.8125
vt 0.75 0.7031
vt 0.7188 0.3594
vt 0.7188 0.4688
vt 0.75 0.4688
vt 0.75 0.3594
vt 0.7656 0.7344
vt 0.7656 0.8438
vt 0.7344 0.8438
vt 0.7344 0.7344
vt 0.75 0.6719
vt 0.75 0.7813
vt 0.7188 0.7813
vt 0.7188 0.6719
vt 0.7656 0.5313
vt 0.7656 0.5
vt 0.7344 0.5
vt 0.7344 0.5313
vt 0.7656 0.4531
vt 0.7656 0.4844
vt 0.7344 0.4844
vt 0.7344 0.4531
vt 0.7188 0.6094
vt 0.7188 0.7188
vt 0.75 0.7188
vt 0.75 0.6094
vt 0.7188 0.5313
vt 0.7188 0.6406
vt 0.75 0.6406
vt 0.75 0.5313
vt 0.7344 0.6875
vt 0.7344 0.7969
vt 0.75 0.7969
vt 0.75 0.6875
vt 0.7344 0.5781
vt 0.7344 0.6875
vt 0.75 0.6875
vt 0.75 0.5781
vt 0.7656 0.5313
vt 0.7656 0.5156
vt 0.7344 0.5156
vt 0.7344 0.5313
vt 0.7656 0.5469
vt 0.7656 0.5625
vt 0.7344 0.5625
vt 0.7344 0.5469
vt 0.75 0.625
vt 0.75 0.7344
vt 0.7813 0.7344
vt 0.7813 0.625
vt 0.7344 0.625
vt 0.7344 0.7344
vt 0.7656 0.7344
vt 0.7656 0.625
vt 0.7188 0.6563
vt 0.7188 0.7656
vt 0.75 0.7656
vt 0.75 0.6563
vt 0.7656 0.625
vt 0.7656 0.7344
vt 0.7344 0.7344
vt 0.7344 0.625
vt 0.7656 0.4531
vt 0.7656 0.4219
vt 0.7344 0.4219
vt 0.7344 0.4531
vt 0.7656 0.4688
vt 0.7656 0.5
vt 0.7344 0.5
vt 0.7344 0.4688
vt 0.75 0.5625
vt 0.75 0.6719
vt 0.7188 0.6719
vt 0.7188 0.5625
vt 0.75 0.5469
vt 0.75 0.6563
vt 0.7188 0.6563
vt 0.7188 0.5469
vt 0.3594 0.25
vt 0.3594 0.375
vt 0.2656 0.375
vt 0.2656 0.25
vt 0.2969 0
vt 0.2969 0.125
vt 0.25 0.125
vt 0.25 0
vt 0.25 0
vt 0.25 0.125
vt 0.2969 0.125
vt 0.2969 0
vt 0.75 0.4688
vt 0.7031 0.4688
vt 0.7031 0.2656
vt 0.75 0.2656
vt 0.7656 0.5781
vt 0.7656 0.375
vt 0.75 0.375
vt 0.75 0.5781
vt 0.75 0.5781
vt 0.75 0.375
vt 0.7344 0.375
vt 0.7344 0.5781
vt 0.375 0.3125
vt 0.375 0.5
vt 0.5 0.5
vt 0.5 0.3125
vt 0.375 0.3125
vt 0.375 0.5
vt 0.5 0.5
vt 0.5 0.3125
vt 0.25 0.5
vt 0.25 0.375
vt 0.375 0.375
vt 0.375 0.5
vt 0.375 0.375
vt 0.375 0.5
vt 0.25 0.5
vt 0.25 0.375
vt 0.5 0.3125
vt 0.5 0.5
vt 0.375 0.5
vt 0.375 0.3125
vt 0.5 0.3125
vt 0.5 0.5
vt 0.375 0.5
vt 0.375 0.3125
vt 0.375 0.3906
vt 0.3594 0.3906
vt 0.3594 0.4844
vt 0.375 0.4844
vt 0.2813 0.4844
vt 0.2969 0.4844
vt 0.2969 0.3906
vt 0.2813 0.3906
vt 0.375 0.3906
vt 0.375 0.4844
vt 0.2813 0.4844
vt 0.2813 0.3906
vt 0.375 0.4688
vt 0.375 0.4844
vt 0.2813 0.4844
vt 0.2813 0.4688
vt 0.2813 0.4063
vt 0.2813 0.3906
vt 0.375 0.3906
vt 0.375 0.4063
vt 0.0469 0.2656
vt 0.0469 0.2344
vt 0 0.2344
vt 0 0.2656
vt 0.0469 0.2344
vt 0.0469 0.2656
vt 0 0.2656
vt 0 0.2344
vt 0.0469 0.2344
vt 0.0469 0.2656
vt 0 0.2656
vt 0 0.2344
vt 0 0.2656
vt 0 0.2344
vt 0.0469 0.2344
vt 0.0469 0.2656
vt 0.0469 0.2656
vt 0.0469 0.2344
vt 0 0.2344
vt 0 0.2656
vt 0.0469 0.2344
vt 0.0469 0.2656
vt 0 0.2656
vt 0 0.2344
vt 0.0469 0.2344
vt 0.0469 0.2656
vt 0 0.2656
vt 0 0.2344
vt 0 0.2656
vt 0 0.2344
vt 0.0469 0.2344
vt 0.0469 0.2656
vt 0.0469 0.2656
vt 0.0469 0.2344
vt 0 0.2344
vt 0 0.2656
vt 0.0469 0.2344
vt 0.0469 0.2656
vt 0 0.2656
vt 0 0.2344
vt 0.0469 0.2344
vt 0.0469 0.2656
vt 0 0.2656
vt 0 0.2344
vt 0 0.2656
vt 0 0.2344
vt 0.0469 0.2344
vt 0.0469 0.2656
vt 0.0469 0.2656
vt 0.0469 0.2344
vt 0 0.2344
vt 0 0.2656
vt 0.0469 0.2344
vt 0.0469 0.2656
vt 0 0.2656
vt 0 0.2344
vt 0.0469 0.2344
vt 0.0469 0.2656
vt 0 0.2656
vt 0 0.2344
vt 0 0.2656
vt 0 0.2344
vt 0.0469 0.2344
vt 0.0469 0.2656
vt 1 1
vt 1 0.875
vt 0.9063 0.875
vt 0.9063 1
vt 0.5 0.1094
vt 0.5 0.2031
vt 0.4844 0.2031
vt 0.4844 0.1094
vt 0.4844 0.1719
vt 0.4844 0.0781
vt 0.5 0.0781
vt 0.5 0.1719
vt 0.5 0.25
vt 0.5 0.125
vt 0.4844 0.125
vt 0.4844 0.25
vt 0.5156 0.25
vt 0.5156 0.125
vt 0.5 0.125
vt 0.5 0.25
vt 0.75 1
vt 0.7969 1
vt 0.7969 0.875
vt 0.75 0.875
vt 0.5 0.2344
vt 0.5 0.1875
vt 0.5156 0.1875
vt 0.5156 0.2344
vt 0.4688 0.1875
vt 0.4688 0.25
vt 0.3438 0.25
vt 0.3438 0.1875
vt 0.4688 0.1875
vt 0.4688 0.25
vt 0.3438 0.25
vt 0.3438 0.1875
vt 0.4688 0.1875
vt 0.4688 0.25
vt 0.3438 0.25
vt 0.3438 0.1875
vt 0.3438 0.1875
vt 0.3438 0.25
vt 0.4688 0.25
vt 0.4688 0.1875
vt 0 0.4063
vt 0 0.25
vt 0.0156 0.25
vt 0.0156 0.4063
vt 0.2188 0.2656
vt 0.2188 0.25
vt 0 0.25
vt 0 0.2656
vt 0.2188 0.4063
vt 0.2188 0.25
vt 0 0.25
vt 0 0.4063
vt 0 0.4063
vt 0 0.25
vt 0.2188 0.25
vt 0.2188 0.4063
vt 0 0.5
vt 0 0.4844
vt 0.0938 0.4844
vt 0.0938 0.5
vt 0 0.4844
vt 0 0.5
vt 0.125 0.5
vt 0.125 0.4844
vt 0.125 0.5
vt 0.2188 0.4063
vt 0 0.4063
vt 0 0.5
vt 0 0.4063
vt 0.2188 0.4063
vt 0.125 0.5
vt 0 0.5
vt 0 0.2656
vt 0 0.25
vt 0.2188 0.25
vt 0.2188 0.2656
vt 1 0.4688
vt 1 0.4844
vt 0.7813 0.4844
vt 0.7813 0.4688
vt 0 0.4063
vt 0 0.25
vt 0.2188 0.25
vt 0.2188 0.4063
vt 0.2188 0.25
vt 0.2188 0.4063
vt 0 0.4063
vt 0 0.25
vt 0 0.25
vt 0 0.375
vt 0.2188 0.375
vt 0.2188 0.25
vt 0 0.25
vt 0 0.375
vt 0.2188 0.375
vt 0.2188 0.25
vt 0 0.4063
vt 0 0.25
vt 0.0156 0.25
vt 0.0156 0.4063
vt 0.2188 0.2656
vt 0.2188 0.25
vt 0 0.25
vt 0 0.2656
vt 0.2188 0.4063
vt 0.2188 0.25
vt 0 0.25
vt 0 0.4063
vt 0 0.4063
vt 0 0.25
vt 0.2188 0.25
vt 0.2188 0.4063
vt 0 0.5
vt 0 0.4844
vt 0.0938 0.4844
vt 0.0938 0.5
vt 0 0.4844
vt 0 0.5
vt 0.125 0.5
vt 0.125 0.4844
vt 0.125 0.5
vt 0.2188 0.4063
vt 0 0.4063
vt 0 0.5
vt 0 0.4063
vt 0.2188 0.4063
vt 0.125 0.5
vt 0 0.5
vt 0 0.2656
vt 0 0.3906
vt 0.2188 0.3906
vt 0.2188 0.2656
vt 0 0.25
vt 0 0.375
vt 0.2188 0.375
vt 0.2188 0.25
vt 0.7813 0.75
vt 0.7813 0.7656
vt 1 0.7656
vt 1 0.75
vt 0.2344 0
vt 0.2344 0.25
vt 0.25 0.25
vt 0.25 0
vt 0 0
vt 0 0.25
vt 0.0156 0.25
vt 0.0156 0
vt 0.25 0.25
vt 0.25 0.2344
vt 0 0.2344
vt 0 0.25
vt 0.25 0
vt 0.25 0.0156
vt 0 0.0156
vt 0 0
vt 0.25 0
vt 0.25 0.25
vt 0 0.25
vt 0 0
vt 0.5 0.625
vt 0.5 1
vt 1 1
vt 1 0.625
vt 1 0.25
vt 1 0.625
vt 0.5 0.625
vt 0.5 0.25
vt 0.5 1
vt 0.5 0.5
vt 0 0.5
vt 0 1
vt 0.5 0.625
vt 0.5 1
vt 1 1
vt 1 0.625
vt 0.5 0.625
vt 0.5 1
vt 1 1
vt 1 0.625
vt 0.5 0.625
vt 1 0.625
vt 0.9375 0.7188
vt 0.5625 0.7188
vt 0.9375 0.7188
vt 1 0.625
vt 0.5 0.625
vt 0.5625 0.7188
vt 0.4375 0.5625
vt 0.4375 0.9375
vt 0.0625 0.9375
vt 0.0625 0.5625
vt 0.5625 0.7188
vt 0.5 0.625
vt 1 0.625
vt 0.9375 0.7188
vt 0.5 0.625
vt 1 0.625
vt 0.9375 0.7188
vt 0.5625 0.7188
vt 0.3438 0.25
vt 0.3438 0.3281
vt 0.2188 0.3281
vt 0.2188 0.25
vt 0.2188 0.25
vt 0.2188 0.3281
vt 0.3438 0.3281
vt 0.3438 0.25
vt 0.3438 0.25
vt 0.3438 0.3281
vt 0.2188 0.3281
vt 0.2188 0.25
vt 0.2188 0.25
vt 0.2188 0.3281
vt 0.3438 0.3281
vt 0.3438 0.25
vt 0.1094 0.4844
vt 0.125 0.4844
vt 0.125 0.6094
vt 0.1094 0.6094
vt 0 0.5938
vt 0 0.6094
vt 0.125 0.6094
vt 0.125 0.5938
vt 0.125 0.6094
vt 0.125 0.4844
vt 0 0.4844
vt 0 0.6094
vt 0.125 0.5938
vt 0.125 0.6094
vt 0 0.6094
vt 0 0.5938
vt 0.1094 0.6094
vt 0.125 0.6094
vt 0.125 0.4844
vt 0.1094 0.4844
vt 0.25 0.25
vt 0.3438 0.25
vt 0.3438 0.1563
vt 0.25 0.1563
vt 0.0313 0.9844
vt 0 0.9844
vt 0 1
vt 0.0313 1
vt 0.7656 0.4531
vt 0.7656 0.4844
vt 0.75 0.4844
vt 0.75 0.4531
vt 0.7344 0.9688
vt 0.6563 0.9688
vt 0.6563 1
vt 0.7344 1
vt 0.1719 1
vt 0.0938 1
vt 0.0938 0.9844
vt 0.1719 0.9844
vt 0.7813 0.4219
vt 0.6875 0.4219
vt 0.6875 0.4375
vt 0.7813 0.4375
vt 0 1
vt 0.1094 1
vt 0.1094 0.9688
vt 0 0.9688
vt 0.5938 0.4375
vt 0.6875 0.4375
vt 0.6875 0.4219
vt 0.5938 0.4219
vt 0.5938 0.4531
vt 0.6875 0.4531
vt 0.6875 0.4219
vt 0.5938 0.4219
vt 0 0.9844
vt 0.1094 0.9844
vt 0.1094 1
vt 0 1
vt 0.0313 0.8906
vt 0.0313 0.9375
vt 0 0.9375
vt 0 0.8906
vt 0.2188 0.5781
vt 0.2188 0.625
vt 0.25 0.625
vt 0.25 0.5781
vt 0.3281 0.7031
vt 0.3281 0.6719
vt 0.25 0.6719
vt 0.25 0.7031
vt 0.4063 0.6719
vt 0.4063 0.7031
vt 0.3281 0.7031
vt 0.3281 0.6719
vt 0 0.9844
vt 0 0.9375
vt 0.0781 0.9375
vt 0.0781 0.9844
vt 0 0.9844
vt 0 0.9375
vt 0.0313 0.9375
vt 0.0313 0.9844
vt 0.25 0.6719
vt 0.25 0.625
vt 0.2188 0.625
vt 0.2188 0.6719
vt 0.0781 0.9844
vt 0.0781 0.9375
vt 0 0.9375
vt 0 0.9844
vt 0.0314 0.9841
vt 0.0001 0.9841
vt 0.0001 0.9997
vt 0.0314 0.9997
vt 0.0003 0.9838
vt 0.0315 0.9838
vt 0.0315 0.9995
vt 0.0003 0.9995
vt 0.5938 0.4531
vt 0.6875 0.4531
vt 0.6875 0.4219
vt 0.5938 0.4219
vt 0 0.9688
vt 0.1094 0.9688
vt 0.1094 1
vt 0 1
vt 0 0.9844
vt 0.1094 0.9844
vt 0.1094 1
vt 0 1
vt 0.5938 0.4375
vt 0.6875 0.4375
vt 0.6875 0.4219
vt 0.5938 0.4219
vt 0.7344 1
vt 0.6563 1
vt 0.6563 0.9688
vt 0.7344 0.9688
vt 0.7813 0.4219
vt 0.6875 0.4219
vt 0.6875 0.4375
vt 0.7813 0.4375
vt 0.1719 1
vt 0.0938 1
vt 0.0938 0.9844
vt 0.1719 0.9844
vt 0 1
vt 0.0859 1
vt 0.0859 0.9375
vt 0 0.9375
vt 0.2188 0.9375
vt 0.1328 0.9375
vt 0.1328 1
vt 0.2188 1
vt 0.75 0.25
vt 0.75 0.3359
vt 0.6563 0.3359
vt 0.6563 0.25
vt 0.0938 0.25
vt 0.0938 0.3359
vt 0 0.3359
vt 0 0.25
vt 0 1
vt 0.0938 1
vt 0.0938 0.9375
vt 0 0.9375
vt 0 0.3125
vt 0.0859 0.3125
vt 0.0859 0.25
vt 0 0.25
vt 0.4375 1
vt 0.3516 1
vt 0.3516 0.9375
vt 0.4375 0.9375
vt 0 0.3125
vt 0.0938 0.3125
vt 0.0938 0.25
vt 0 0.25
vt 0.0938 0.25
vt 0.0938 0.3359
vt 0 0.3359
vt 0 0.25
vt 0.75 0.25
vt 0.75 0.3359
vt 0.6563 0.3359
vt 0.6563 0.25
vt 0.75 0.25
vt 0.6563 0.25
vt 0.6563 0.3125
vt 0.75 0.3125
vt 0.75 0.9375
vt 0.6563 0.9375
vt 0.6563 1
vt 0.75 1
vt 0.0469 1
vt 0.1328 1
vt 0.1328 0.9375
vt 0.0469 0.9375
vt 0.2656 0.9375
vt 0.3516 0.9375
vt 0.3516 1
vt 0.2656 1
vt 0 0.4219
vt 0 0.3359
vt 0.0938 0.3359
vt 0.0938 0.4219
vt 0.6563 0.4219
vt 0.6563 0.3359
vt 0.75 0.3359
vt 0.75 0.4219
vt 0.1719 0.25
vt 0.0859 0.25
vt 0.0859 0.3125
vt 0.1719 0.3125
vt 0.1719 0.9375
vt 0.0859 0.9375
vt 0.0859 1
vt 0.1719 1
vt 0 0.4219
vt 0 0.3359
vt 0.0938 0.3359
vt 0.0938 0.4219
vt 0.6563 0.4219
vt 0.6563 0.3359
vt 0.75 0.3359
vt 0.75 0.4219
vt 0.5469 0.5469
vt 0.5469 0.6406
vt 0.5781 0.6406
vt 0.5781 0.5469
vt 0 0.8906
vt 0 0.9844
vt 0.0313 0.9844
vt 0.0313 0.8906
vt 0.5469 0.6719
vt 0.5469 0.6406
vt 0.5313 0.6406
vt 0.5313 0.6719
vt 0.5625 0.6406
vt 0.5625 0.6719
vt 0.5469 0.6719
vt 0.5469 0.6406
vt 0 0.6875
vt 0 0.7813
vt 0.0156 0.7813
vt 0.0156 0.6875
vt 0.5313 0.5469
vt 0.5313 0.6406
vt 0.5469 0.6406
vt 0.5469 0.5469
vt 0.375 0.4844
vt 0.375 0.3906
vt 0.4688 0.3906
vt 0.4688 0.4844
vt 0.4688 0.3906
vt 0.4531 0.3906
vt 0.4531 0.4844
vt 0.4688 0.4844
vt 0.3906 0.4844
vt 0.375 0.4844
vt 0.375 0.3906
vt 0.3906 0.3906
vt 0.4688 0.3906
vt 0.4688 0.4844
vt 0.375 0.4844
vt 0.375 0.3906
vt 0.4688 0.4688
vt 0.4688 0.4844
vt 0.375 0.4844
vt 0.375 0.4688
vt 0.375 0.3906
vt 0.375 0.4063
vt 0.4688 0.4063
vt 0.4688 0.3906
vt 0.4688 0.3906
vt 0.4531 0.3906
vt 0.4531 0.4844
vt 0.4688 0.4844
vt 0.375 0.4688
vt 0.375 0.4844
vt 0.4688 0.4844
vt 0.4688 0.4688
vt 0.4688 0.3906
vt 0.4688 0.4844
vt 0.375 0.4844
vt 0.375 0.3906
vt 0.4688 0.4688
vt 0.4688 0.4844
vt 0.375 0.4844
vt 0.375 0.4688
vt 0.375 0.3906
vt 0.375 0.4063
vt 0.4688 0.4063
vt 0.4688 0.3906
vt 0.75 0.5781
vt 0.75 0.7031
vt 0.7188 0.7031
vt 0.7188 0.5781
vt 0.75 0.4688
vt 0.75 0.5938
vt 0.7188 0.5938
vt 0.7188 0.4688
vt 0.7188 0.3438
vt 0.7188 0.4688
vt 0.75 0.4688
vt 0.75 0.3438
vt 0.7188 0.6563
vt 0.7188 0.7813
vt 0.75 0.7813
vt 0.75 0.6563
vt 0.75 0.5781
vt 0.75 0.7031
vt 0.7188 0.7031
vt 0.7188 0.5781
vt 0.75 0.4688
vt 0.75 0.5938
vt 0.7188 0.5938
vt 0.7188 0.4688
vt 0.7188 0.3438
vt 0.7188 0.4688
vt 0.75 0.4688
vt 0.75 0.3438
vt 0.7188 0.6563
vt 0.7188 0.7813
vt 0.75 0.7813
vt 0.75 0.6563
vt 0.75 0.5781
vt 0.75 0.7031
vt 0.7188 0.7031
vt 0.7188 0.5781
vt 0.75 0.4688
vt 0.75 0.5938
vt 0.7188 0.5938
vt 0.7188 0.4688
vt 0.7188 0.3438
vt 0.7188 0.4688
vt 0.75 0.4688
vt 0.75 0.3438
vt 0.7188 0.6563
vt 0.7188 0.7813
vt 0.75 0.7813
vt 0.75 0.6563
vt 0.75 0.5781
vt 0.75 0.7031
vt 0.7188 0.7031
vt 0.7188 0.5781
vt 0.75 0.4688
vt 0.75 0.5938
vt 0.7188 0.5938
vt 0.7188 0.4688
vt 0.7188 0.3438
vt 0.7188 0.4688
vt 0.75 0.4688
vt 0.75 0.3438
vt 0.7188 0.6563
vt 0.7188 0.7813
vt 0.75 0.7813
vt 0.75 0.6563
vt 0.7969 1
vt 0.75 1
vt 0.75 0.25
vt 0.7969 0.25
vt 0.75 1
vt 0.7969 1
vt 0.7969 0.25
vt 0.75 0.25
vt 0.7656 0.25
vt 0.7656 1
vt 0.75 1
vt 0.75 0.25
vt 0.0156 0.9531
vt 0.0156 1
vt 0 1
vt 0 0.9531
vt 0.0156 0.9531
vt 0.0156 1
vt 0 1
vt 0 0.9531
vt 0 0
vt 0.4844 0
vt 0.4844 0.25
vt 0 0.25
vt 0 0
vt 0.4844 0
vt 0.4844 0.25
vt 0 0.25
vt 1 0.375
vt 1 0.2656
vt 0.9063 0.2656
vt 0.9063 0.375
vt 0.5 0.125
vt 0.5 0.0156
vt 0.4844 0.0156
vt 0.4844 0.125
vt 0.7969 0.875
vt 0.7969 0.7656
vt 0.75 0.7656
vt 0.75 0.875
vt 0.5156 0.125
vt 0.5156 0.0156
vt 0.5 0.0156
vt 0.5 0.125
vt 0.75 0.2656
vt 0.7031 0.2656
vt 0.7031 0.4688
vt 0.75 0.4688
vt 0.8438 0.875
vt 0.8438 0.7656
vt 0.7969 0.7656
vt 0.7969 0.875
vt 0.8438 0.875
vt 0.7969 0.875
vt 0.7969 1
vt 0.8438 1
vt 0.5156 0.1406
vt 0.5156 0.1875
vt 0.5 0.1875
vt 0.5 0.1406
vt 0.8125 0.75
vt 0.8125 0.7656
vt 0.7656 0.7656
vt 0.7656 0.75
vt 0.9063 0.25
vt 0.9063 0.2656
vt 1 0.2656
vt 1 0.25
vt 0.4844 0
vt 0.4844 0.0156
vt 0.5 0.0156
vt 0.5 0
vt 0.75 0.75
vt 0.75 0.7656
vt 0.7969 0.7656
vt 0.7969 0.75
vt 0.5 0
vt 0.5 0.0156
vt 0.5156 0.0156
vt 0.5156 0
vt 0.75 0.25
vt 0.75 0.75
vt 0.7344 0.75
vt 0.7344 0.25
vt 0.75 0.75
vt 0.7344 0.75
vt 0.7344 0.875
vt 0.75 0.875
vt 0.0156 1
vt 0.0156 0.5
vt 0 0.5
vt 0 1
vt 0 0.25
vt 0.0156 0.25
vt 0.0156 0.2656
vt 0 0.2656
vt 0.0156 1
vt 0.0156 0.5
vt 0 0.5
vt 0 1
vt 0.75 1
vt 0.25 1
vt 0.25 0.9844
vt 0.75 0.9844
vt 0 1
vt 0 0.5
vt 0.0156 0.5
vt 0.0156 1
vt 0.0156 1
vt 0.0156 0.5
vt 0.25 0.5
vt 0.25 1
vt 0.25 1
vt 0.25 0.5
vt 0.5 0.5
vt 0.5 1
vt 0 0.9844
vt 0.5 0.9844
vt 0.5 1
vt 0 1
vt 0.75 1
vt 0.75 0.5
vt 0.5 0.5
vt 0.5 1
vt 0.25 1
vt 0.25 0.5
vt 0.0156 0.5
vt 0.0156 1
vt 0.0156 0.25
vt 0.0156 0.5
vt 0.75 0.5
vt 0.75 0.25
vt 0.75 0.875
vt 0.5 0.875
vt 0.5 0.75
vt 0.75 0.75
vt 0 1
vt 0 0.75
vt 0.7344 0.75
vt 0.7344 1
vt 0.9688 0.2188
vt 0.9688 0.25
vt 0.7813 0.25
vt 0.7813 0.2188
vt 0.9688 0.2188
vt 0.9688 0.2344
vt 0.7813 0.2344
vt 0.7813 0.2188
vt 0.9688 0.2344
vt 0.9688 0.25
vt 0.7813 0.25
vt 0.7813 0.2344
vt 0.75 0
vt 0.7656 0
vt 0.7656 0.25
vt 0.75 0.25
vt 0.7656 0
vt 0.7813 0
vt 0.7813 0.25
vt 0.7656 0.25
vt 0.75 0.25
vt 0.75 0
vt 0.7813 0
vt 0.7813 0.25
vt 0.0313 0.9844
vt 0.0313 1
vt 0 1
vt 0 0.9844
vt 0.0313 0.9844
vt 0.0313 1
vt 0 1
vt 0 0.9844
vt 0.7813 0.25
vt 0.9688 0.25
vt 0.9688 0.2188
vt 0.7813 0.2188
vt 0.7813 0.2344
vt 0.9688 0.2344
vt 0.9688 0.2188
vt 0.7813 0.2188
vt 0.7813 0.25
vt 0.9688 0.25
vt 0.9688 0.2344
vt 0.7813 0.2344
vt 0.7656 0.25
vt 0.7656 0
vt 0.75 0
vt 0.75 0.25
vt 0.7813 0.25
vt 0.7813 0
vt 0.7656 0
vt 0.7656 0.25
vt 0.7813 0
vt 0.75 0
vt 0.75 0.25
vt 0.7813 0.25
vt 0 1
vt 0.0313 1
vt 0.0313 0.9844
vt 0 0.9844
vt 0 1
vt 0.0313 1
vt 0.0313 0.9844
vt 0 0.9844
vt 0.625 0.4844
vt 0.625 0.5
vt 0.75 0.5
vt 0.75 0.4844
vt 0.75 0.5938
vt 0.75 0.6094
vt 0.625 0.6094
vt 0.625 0.5938
vt 0.75 0.4844
vt 0.75 0.6094
vt 0.625 0.6094
vt 0.625 0.4844
vt 0.75 0.4844
vt 0.75 0.5
vt 0.625 0.5
vt 0.625 0.4844
vt 0.625 0.5938
vt 0.625 0.6094
vt 0.75 0.6094
vt 0.75 0.5938
vt 0.7813 0
vt 0.9688 0
vt 0.9688 0.25
vt 0.7813 0.25
vn 0 0 -1
vn 0 0 1
vn 0 1 0
vn -1 0 0
vn 1 0 0
vn 0 0 -1
vn 0 0 1
vn -1 0 0
vn 1 0 0
vn 0 0 -1
vn 0 0 1
vn 0 1 0
vn 0 0 -1
vn 0 0 1
vn 0 1 0
vn 0 0 -1
vn 0 0 1
vn -1 0 0
vn 1 0 0
vn 0 0 -1
vn 0 0 1
vn -1 0 0
vn 1 0 0
vn 0 0 -1
vn 0 0 1
vn 0 -1 0
vn 0 1 0
vn 0 0 -1
vn 0 0 1
vn 0.24 0.97 0
vn 1 0 0
vn 0 0 -1
vn 0 0 1
vn 0 -1 0
vn 0 1 0
vn 0 0 -1
vn 0 0 1
vn 0.24 0.97 0
vn 1 0 0
vn 0 -1 0
vn 0.24 0 0.97
vn 1 0 0
vn 0 0 -1
vn 0.24 0.97 0
vn 1 0 0
vn 0 0 1
vn 0 0 -1
vn -0.24 -0.97 0
vn -1 0 0
vn 0 0 1
vn 0 0 -1
vn -0.24 -0.97 0
vn -1 0 0
vn 0 0 1
vn 0 0 -1
vn -0.24 -0.97 0
vn -1 0 0
vn 0 0 -1
vn 0 0 1
vn -1 0 0
vn 1 0 0
vn 0 0 1
vn 0 0 -1
vn -0.24 -0.97 0
vn -1 0 0
vn 0 1 0
vn -1 0 0
vn 1 0 0
vn 0 1 0
vn -1 0 0
vn 1 0 0
vn 0 0 -1
vn 0 -1 0
vn 0 -1 0
vn 0 0 1
vn -1 0 0
vn 1 0 0
vn -1 0 0
vn 0 0 1
vn 1 0 0
vn 0 0 -1
vn -1 0 0
vn 1 0 0
vn 1 0 0
vn -1 0 0
vn 0 0 -1
vn 0 0 -1
vn 1 0 0
vn -1 0 0
vn 0 0 1
vn 0 0 -1
vn 0 0 1
vn 0 -1 0
vn 0 1 0
vn 0 0 -1
vn 0 0 1
vn 0 1 0
vn 0 -1 0
vn -1 0 0
vn 1 0 0
vn 0 0 -1
vn 0 1 0
vn -1 0 0
vn 1 0 0
vn 0 0 -1
vn 0 0 1
vn 0 1 0
vn 0 -1 0
vn -1 0 0
vn 1 0 0
vn 0 0 -1
vn 0 0 1
vn 0 1 0
vn 0 -1 0
vn -1 0 0
vn 1 0 0
vn 0 0 -1
vn 0 0 1
vn 0 1 0
vn 0 -1 0
vn -1 0 0
vn 1 0 0
vn 0 0 -1
vn 0 0 1
vn 0 1 0
vn 0 -1 0
vn -1 0 0
vn 1 0 0
vn 0 0 -1
vn 0 0 1
vn 0 1 0
vn 0 -1 0
vn -1 0 0
vn 1 0 0
vn 0 0 1
vn -1 0 0
vn 1 0 0
vn 0 0 -1
vn -1 0 0
vn 1 0 0
vn 0 0 -1
vn 0 0 1
vn 0 1 0
vn 0 -1 0
vn -1 0 0
vn 1 0 0
vn 0 0 -1
vn 0 0 1
vn 0 -1 0
vn -1 0 0
vn 1 0 0
vn 0 1 0
vn 0 -1 0
vn -1 0 0
vn 1 0 0
vn 0 1 0
vn 0 -1 0
vn -1 0 0
vn 1 0 0
vn 0 1 0
vn 0 -1 0
vn -1 0 0
vn 1 0 0
vn 0 1 0
vn 0 -1 0
vn -1 0 0
vn 1 0 0
vn 0 0 -1
vn 0 1 0
vn 0 -1 0
vn -1 0 0
vn 1 0 0
vn 0 0 -1
vn 0 1 0
vn 0 0 -1
vn 0 0 1
vn -1 0 0
vn 1 0 0
vn -1 0 0
vn 0 1 0
vn 0 0 1
vn 0 0 -1
vn -0.71 -0.71 -0.01
vn 0 -1 -0.01
vn 0 0 1
vn 0 0 -1
vn 0 1 0
vn -0.02 -1 0
vn -1 0 0
vn 1 0 0
vn 0.71 0.71 0
vn -0.71 -0.71 0
vn -1 0 0
vn 0 1 0
vn 0 0 1
vn 0 0 -1
vn -0.71 -0.71 0.01
vn 0 -1 0.01
vn 0 0 1
vn 0 0 -1
vn 0 1 0
vn 0 -1 0
vn 1 0 0
vn 0 0 -1
vn 0 0 1
vn 0 1 0
vn 0 -1 0
vn -1 0 0
vn 0 0 -1
vn 0 0 1
vn 0 1 0
vn -1 0 0
vn 1 0 0
vn 0 -0.71 -0.71
vn 0 -0.71 0.71
vn 0 -1 0
vn -0.71 -0.71 0
vn 0.71 -0.71 0
vn 0 0 -1
vn 0 0 1
vn -1 0 0
vn 1 0 0
vn 0 0 -1
vn 0 0 1
vn 0 1 0
vn -1 0 0
vn 1 0 0
vn -1 0 0
vn 0 0 -1
vn 0 0 1
vn 0 1 0
vn -1 0 0
vn 1 0 0
vn 0 1 0
vn 1 0 0
vn 0 -1 0
vn -1 0 0
vn 0 0 -1
vn 0 0 1
vn 0 1 0
vn 0 -1 0
vn -1 0 0
vn 0 0 -1
vn 0 0 1
vn -1 0 0
vn 0 0 -1
vn 0 0 1
vn 0 1 0
vn 0 -1 0
vn -1 0 0
vn 1 0 0
vn 0 -1 0
vn 1 0 0
vn -1 0 0
vn 0 0 -1
vn 0 0 1
vn 0 1 0
vn 0 -1 0
vn 1 0 0
vn 0 0 -1
vn 0 0 1
vn 1 0 0
vn 0 1 0
vn 0 -1 0
vn 1 0 0
vn 1 0 0
vn 0 0 1
vn 0 0 1
vn 0 -1 0
vn 0 -1 0
vn 0 0 -1
vn 0 0 -1
vn 0 1 0
vn 0 1 0
vn 0 0 -1
vn 0 0 1
vn 0 1 0
vn 0 -1 0
vn -1 0 0
vn 1 0 0
vn -1 0 0
vn 0 0 -1
vn 0 0 1
vn 0 -1 0
vn -1 0 0
vn 1 0 0
vn 0 0 -1
vn 0 0 1
vn 0 -1 0
vn -1 0 0
vn 1 0 0
vn 0 0 -1
vn 0 0 1
vn -1 0 0
vn 1 0 0
vn 0 0 -1
vn 0 0 1
vn -1 0 0
vn 1 0 0
vn 0 0 -1
vn 0 0 1
vn -1 0 0
vn 1 0 0
vn 0 0 -1
vn 0 0 1
vn -1 0 0
vn 1 0 0
vn 0 0 -1
vn 0 0 1
vn 0 1 0
vn -1 0 0
vn 1 0 0
vn 0 -1 0
vn 0 1 0
vn 0 0 -1
vn -1 0 0
vn 0 0 -1
vn 1 0 0
vn 0 0 -1
vn 0 0 -1
vn 0 0 -1
vn 0 1 0
vn 0 0 -1
vn 0 0 -1
vn -1 0 0
vn 0 0 -1
vn 1 0 0
vn 0 -1 0
vn -1 0 0
vn 0 1 0
vn -1 0 0
vn 0 1 0
vn 0 0 1
vn 0 -1 0
vn 0 -1 0
vn 0 -1 0
vn 0 0 -1
vn 0 1 0
vn 0 1 0
vn 0 1 0
vn 0 0 -1
vn 0 -1 0
vn 0 0 1
vn 0 -1 0
vn 0 1 0
vn -1 0 0
vn 1 0 0
vn 0 0 1
vn 0 -1 0
vn 0 1 0
vn 0 0 1
vn 0 1 0
vn 0 -1 0
vn 1 0 0
vn -1 0 0
vn 0 0 1
vn 0 -1 0
vn 0 1 0
vn -1 0 0
vn 1 0 0
vn 0 0 1
vn 0 -1 0
vn 0 1 0
vn 0 0 1
usemtl common_steel_norivets
f 1/3/1 2/2/1 4/1/1
f 3/4/1 1/3/1 4/1/1
f 6/7/2 5/6/2 7/5/2
f 8/8/2 6/7/2 7/5/2
f 6/11/3 2/10/3 1/9/3
f 5/12/3 6/11/3 1/9/3
f 5/15/4 1/14/4 3/13/4
f 7/16/4 5/15/4 3/13/4
f 2/19/5 6/18/5 8/17/5
f 4/20/5 2/19/5 8/17/5
usemtl common_cable_and_pipe
f 9/23/6 10/22/6 12/21/6
f 11/24/6 9/23/6 12/21/6
f 14/27/7 13/26/7 15/25/7
f 16/28/7 14/27/7 15/25/7
f 13/31/8 9/30/8 11/29/8
f 15/32/8 13/31/8 11/29/8
f 10/35/9 14/34/9 16/33/9
f 12/36/9 10/35/9 16/33/9
f 17/39/10 12/38/10 19/37/10
f 18/40/10 17/39/10 19/37/10
f 16/43/11 20/42/11 21/41/11
f 22/44/11 16/43/11 21/41/11
f 12/47/12 16/46/12 22/45/12
f 19/48/12 12/47/12 22/45/12
f 23/51/13 24/50/13 26/49/13
f 25/52/13 23/51/13 26/49/13
f 28/55/14 27/54/14 29/53/14
f 30/56/14 28/55/14 29/53/14
f 24/59/15 28/58/15 30/57/15
f 26/60/15 24/59/15 30/57/15
f 31/63/16 32/62/16 24/61/16
f 33/64/16 31/63/16 24/61/16
f 35/67/17 34/66/17 36/65/17
f 28/68/17 35/67/17 36/65/17
f 34/71/18 31/70/18 33/69/18
f 36/72/18 34/71/18 33/69/18
f 32/75/19 35/74/19 28/73/19
f 24/76/19 32/75/19 28/73/19
f 41/79/20 42/78/20 37/77/20
f 38/80/20 41/79/20 37/77/20
f 43/83/21 44/82/21 40/81/21
f 39/84/21 43/83/21 40/81/21
f 42/87/22 43/86/22 39/85/22
f 37/88/22 42/87/22 39/85/22
f 44/91/23 41/90/23 38/89/23
f 40/92/23 44/91/23 38/89/23
f 47/95/24 9/94/24 45/93/24
f 41/96/24 47/95/24 45/93/24
f 13/99/25 48/98/25 44/97/25
f 46/100/25 13/99/25 44/97/25
f 9/103/26 13/102/26 46/101/26
f 45/104/26 9/103/26 46/101/26
f 48/107/27 47/106/27 41/105/27
f 44/108/27 48/107/27 41/105/27
f 9/111/28 47/110/28 49/109/28
f 10/112/28 9/111/28 49/109/28
f 50/115/29 48/114/29 13/113/29
f 14/116/29 50/115/29 13/113/29
f 49/119/30 47/118/30 48/117/30
f 50/120/30 49/119/30 48/117/30
f 10/123/31 49/122/31 50/121/31
f 14/124/31 10/123/31 50/121/31
f 55/127/32 31/126/32 51/125/32
f 52/128/32 55/127/32 51/125/32
f 34/131/33 56/130/33 54/129/33
f 53/132/33 34/131/33 54/129/33
f 31/135/34 34/134/34 53/133/34
f 51/136/34 31/135/34 53/133/34
f 56/139/35 55/138/35 52/137/35
f 54/140/35 56/139/35 52/137/35
f 31/143/36 55/142/36 57/141/36
f 32/144/36 31/143/36 57/141/36
f 58/147/37 56/146/37 34/145/37
f 35/148/37 58/147/37 34/145/37
f 57/151/38 55/150/38 56/149/38
f 58/152/38 57/151/38 56/149/38
f 32/155/39 57/154/39 58/153/39
f 35/156/39 32/155/39 58/153/39
f 61/159/40 21/158/40 18/157/40
f 62/160/40 61/159/40 18/157/40
f 59/163/41 22/162/41 21/161/41
f 61/164/41 59/163/41 21/161/41
f 60/167/42 59/166/42 61/165/42
f 62/168/42 60/167/42 61/165/42
f 25/171/43 26/170/43 63/169/43
f 64/172/43 25/171/43 63/169/43
f 63/175/44 26/174/44 30/173/44
f 65/176/44 63/175/44 30/173/44
f 64/179/45 63/178/45 65/177/45
f 66/180/45 64/179/45 65/177/45
f 67/183/46 20/182/46 16/181/46
f 15/184/46 67/183/46 16/181/46
f 12/187/47 17/186/47 68/185/47
f 11/188/47 12/187/47 68/185/47
f 17/191/48 20/190/48 67/189/48
f 68/192/48 17/191/48 67/189/48
f 68/195/49 67/194/49 15/193/49
f 11/196/49 68/195/49 15/193/49
f 69/199/50 27/198/50 28/197/50
f 36/200/50 69/199/50 28/197/50
f 24/203/51 23/202/51 70/201/51
f 33/204/51 24/203/51 70/201/51
f 23/207/52 27/206/52 69/205/52
f 70/208/52 23/207/52 69/205/52
f 70/211/53 69/210/53 36/209/53
f 33/212/53 70/211/53 36/209/53
f 71/215/54 46/214/54 44/213/54
f 43/216/54 71/215/54 44/213/54
f 41/219/55 45/218/55 72/217/55
f 42/220/55 41/219/55 72/217/55
f 45/223/56 46/222/56 71/221/56
f 72/224/56 45/223/56 71/221/56
f 72/227/57 71/226/57 43/225/57
f 42/228/57 72/227/57 43/225/57
f 52/231/58 77/230/58 73/229/58
f 74/232/58 52/231/58 73/229/58
f 78/235/59 54/234/59 76/233/59
f 75/236/59 78/235/59 76/233/59
f 77/239/60 78/238/60 75/237/60
f 73/240/60 77/239/60 75/237/60
f 54/243/61 52/242/61 74/241/61
f 76/244/61 54/243/61 74/241/61
f 79/247/62 53/246/62 54/245/62
f 78/248/62 79/247/62 54/245/62
f 52/251/63 51/250/63 80/249/63
f 77/252/63 52/251/63 80/249/63
f 51/255/64 53/254/64 79/253/64
f 80/256/64 51/255/64 79/253/64
f 80/259/65 79/258/65 78/257/65
f 77/260/65 80/259/65 78/257/65
usemtl common_rough_steel
f 448/263/66 441/262/66 439/261/66
f 85/264/66 448/263/66 439/261/66
f 440/267/67 438/266/67 86/265/67
f 87/268/67 440/267/67 86/265/67
f 439/271/68 431/270/68 88/269/68
f 85/272/68 439/271/68 88/269/68
f 447/275/69 448/274/69 85/273/69
f 8/276/69 447/275/69 85/273/69
f 87/279/70 86/278/70 7/277/70
f 81/280/70 87/279/70 7/277/70
f 85/283/71 88/282/71 82/281/71
f 8/284/71 85/283/71 82/281/71
f 446/287/72 447/286/72 8/285/72
f 82/288/72 446/287/72 8/285/72
f 444/291/73 445/290/73 88/289/73
f 431/292/73 444/291/73 88/289/73
f 445/295/74 446/294/74 82/293/74
f 88/296/74 445/295/74 82/293/74
usemtl common_steel
f 452/299/75 444/298/75 99/297/75
f 100/300/75 452/299/75 99/297/75
f 97/303/76 98/302/76 95/301/76
f 93/304/76 97/303/76 95/301/76
f 101/307/77 102/306/77 92/305/77
f 90/308/77 101/307/77 92/305/77
f 98/311/78 97/310/78 89/309/78
f 91/312/78 98/311/78 89/309/78
f 100/315/79 99/314/79 93/313/79
f 95/316/79 100/315/79 93/313/79
f 102/319/80 101/318/80 94/317/80
f 96/320/80 102/319/80 94/317/80
f 111/323/81 112/322/81 105/321/81
f 103/324/81 111/323/81 105/321/81
f 109/327/82 110/326/82 91/325/82
f 89/328/82 109/327/82 91/325/82
f 107/331/83 108/330/83 106/329/83
f 104/332/83 107/331/83 106/329/83
f 108/335/84 107/334/84 90/333/84
f 92/336/84 108/335/84 90/333/84
f 110/339/85 109/338/85 103/337/85
f 105/340/85 110/339/85 103/337/85
f 112/343/86 111/342/86 104/341/86
f 106/344/86 112/343/86 104/341/86
f 120/347/87 117/346/87 113/345/87
f 114/348/87 120/347/87 113/345/87
f 82/351/88 114/350/88 113/349/88
f 8/352/88 82/351/88 113/349/88
f 7/355/89 115/354/89 116/353/89
f 81/356/89 7/355/89 116/353/89
f 119/359/90 118/358/90 7/357/90
f 81/360/90 119/359/90 7/357/90
f 117/363/91 120/362/91 116/361/91
f 115/364/91 117/363/91 116/361/91
f 118/367/92 119/366/92 82/365/92
f 8/368/92 118/367/92 82/365/92
f 120/371/93 119/370/93 81/369/93
f 116/372/93 120/371/93 81/369/93
f 118/375/94 117/374/94 115/373/94
f 7/376/94 118/375/94 115/373/94
usemtl common_machinebase
f 453/379/95 454/378/95 123/377/95
f 121/380/95 453/379/95 123/377/95
f 450/383/96 451/382/96 125/381/96
f 126/384/96 450/383/96 125/381/96
usemtl common_bottom
f 452/387/97 453/386/97 121/385/97
f 437/388/97 452/387/97 121/385/97
f 454/391/98 449/390/98 436/389/98
f 123/392/98 454/391/98 436/389/98
usemtl common_machinebase
f 436/395/99 437/394/99 121/393/99
f 123/396/99 436/395/99 121/393/99
f 432/399/100 435/398/100 124/397/100
f 122/400/100 432/399/100 124/397/100
usemtl common_steel
f 127/403/101 128/402/101 130/401/101
f 129/404/101 127/403/101 130/401/101
f 434/407/102 431/406/102 128/405/102
f 127/408/102 434/407/102 128/405/102
f 433/411/103 434/410/103 127/409/103
f 129/412/103 433/411/103 127/409/103
f 431/415/104 432/414/104 130/413/104
f 128/416/104 431/415/104 130/413/104
f 131/419/105 132/418/105 134/417/105
f 133/420/105 131/419/105 134/417/105
f 136/423/106 135/422/106 137/421/106
f 138/424/106 136/423/106 137/421/106
f 136/427/107 132/426/107 131/425/107
f 135/428/107 136/427/107 131/425/107
f 137/431/108 133/430/108 134/429/108
f 138/432/108 137/431/108 134/429/108
f 135/435/109 131/434/109 133/433/109
f 137/436/109 135/435/109 133/433/109
f 132/439/110 136/438/110 138/437/110
f 134/440/110 132/439/110 138/437/110
f 139/443/111 114/442/111 122/441/111
f 140/444/111 139/443/111 122/441/111
f 142/447/112 141/446/112 143/445/112
f 144/448/112 142/447/112 143/445/112
f 142/451/113 114/450/113 139/449/113
f 141/452/113 142/451/113 139/449/113
f 143/455/114 140/454/114 122/453/114
f 144/456/114 143/455/114 122/453/114
f 141/459/115 139/458/115 140/457/115
f 143/460/115 141/459/115 140/457/115
f 114/463/116 142/462/116 144/461/116
f 122/464/116 114/463/116 144/461/116
f 145/467/117 146/466/117 148/465/117
f 147/468/117 145/467/117 148/465/117
f 149/471/118 84/470/118 125/469/118
f 150/472/118 149/471/118 125/469/118
f 149/475/119 146/474/119 145/473/119
f 84/476/119 149/475/119 145/473/119
f 125/479/120 147/478/120 148/477/120
f 150/480/120 125/479/120 148/477/120
f 84/483/121 145/482/121 147/481/121
f 125/484/121 84/483/121 147/481/121
f 146/487/122 149/486/122 150/485/122
f 148/488/122 146/487/122 150/485/122
f 151/491/123 152/490/123 154/489/123
f 153/492/123 151/491/123 154/489/123
f 156/495/124 155/494/124 157/493/124
f 158/496/124 156/495/124 157/493/124
f 156/499/125 152/498/125 151/497/125
f 155/500/125 156/499/125 151/497/125
f 157/503/126 153/502/126 154/501/126
f 158/504/126 157/503/126 154/501/126
f 155/507/127 151/506/127 153/505/127
f 157/508/127 155/507/127 153/505/127
f 152/511/128 156/510/128 158/509/128
f 154/512/128 152/511/128 158/509/128
f 116/515/129 159/514/129 160/513/129
f 121/516/129 116/515/129 160/513/129
f 162/519/130 161/518/130 163/517/130
f 164/520/130 162/519/130 163/517/130
f 162/523/131 159/522/131 116/521/131
f 161/524/131 162/523/131 116/521/131
f 163/527/132 121/526/132 160/525/132
f 164/528/132 163/527/132 160/525/132
f 161/531/133 116/530/133 121/529/133
f 163/532/133 161/531/133 121/529/133
f 159/535/134 162/534/134 164/533/134
f 160/536/134 159/535/134 164/533/134
usemtl common_steel_norivets
f 171/539/135 170/538/135 172/537/135
f 173/540/135 171/539/135 172/537/135
usemtl filler
f 170/543/136 166/542/136 168/541/136
f 172/544/136 170/543/136 168/541/136
f 167/547/137 171/546/137 173/545/137
f 169/548/137 167/547/137 173/545/137
usemtl common_steel_norivets
f 420/551/138 421/550/138 175/549/138
f 178/552/138 420/551/138 175/549/138
f 179/555/139 180/554/139 176/553/139
f 174/556/139 179/555/139 176/553/139
f 181/559/140 178/558/140 175/557/140
f 177/560/140 181/559/140 175/557/140
usemtl filler
f 182/563/141 183/562/141 185/561/141
f 184/564/141 182/563/141 185/561/141
f 187/567/142 186/566/142 188/565/142
f 189/568/142 187/567/142 188/565/142
f 187/571/143 183/570/143 182/569/143
f 186/572/143 187/571/143 182/569/143
f 188/575/144 184/574/144 185/573/144
f 189/576/144 188/575/144 185/573/144
f 186/579/145 182/578/145 184/577/145
f 188/580/145 186/579/145 184/577/145
f 183/583/146 187/582/146 189/581/146
f 185/584/146 183/583/146 189/581/146
usemtl common_thingies
f 190/587/147 191/586/147 193/585/147
f 192/588/147 190/587/147 193/585/147
f 195/591/148 194/590/148 196/589/148
f 197/592/148 195/591/148 196/589/148
f 196/595/149 192/594/149 193/593/149
f 197/596/149 196/595/149 193/593/149
f 194/599/150 190/598/150 192/597/150
f 196/600/150 194/599/150 192/597/150
f 191/603/151 195/602/151 197/601/151
f 193/604/151 191/603/151 197/601/151
usemtl common_steel_norivets
f 202/607/152 199/606/152 198/605/152
f 165/608/152 202/607/152 198/605/152
f 203/611/153 200/610/153 201/609/153
f 204/612/153 203/611/153 201/609/153
f 165/615/154 198/614/154 200/613/154
f 203/616/154 165/615/154 200/613/154
f 199/619/155 202/618/155 204/617/155
f 201/620/155 199/619/155 204/617/155
f 210/623/156 206/622/156 205/621/156
f 209/624/156 210/623/156 205/621/156
f 211/627/157 207/626/157 208/625/157
f 212/628/157 211/627/157 208/625/157
f 209/631/158 205/630/158 207/629/158
f 211/632/158 209/631/158 207/629/158
f 206/635/159 210/634/159 212/633/159
f 208/636/159 206/635/159 212/633/159
f 218/639/160 214/638/160 213/637/160
f 217/640/160 218/639/160 213/637/160
f 219/643/161 215/642/161 216/641/161
f 220/644/161 219/643/161 216/641/161
f 217/647/162 213/646/162 215/645/162
f 219/648/162 217/647/162 215/645/162
f 214/651/163 218/650/163 220/649/163
f 216/652/163 214/651/163 220/649/163
f 226/655/164 222/654/164 221/653/164
f 225/656/164 226/655/164 221/653/164
f 227/659/165 223/658/165 224/657/165
f 228/660/165 227/659/165 224/657/165
f 225/663/166 221/662/166 223/661/166
f 227/664/166 225/663/166 223/661/166
f 222/667/167 226/666/167 228/665/167
f 224/668/167 222/667/167 228/665/167
f 415/671/168 416/670/168 229/669/168
f 235/672/168 415/671/168 229/669/168
f 236/675/169 235/674/169 229/673/169
f 232/676/169 236/675/169 229/673/169
f 174/679/170 176/678/170 234/677/170
f 231/680/170 174/679/170 234/677/170
f 416/683/171 417/682/171 232/681/171
f 229/684/171 416/683/171 232/681/171
f 419/687/172 418/686/172 230/685/172
f 233/688/172 419/687/172 230/685/172
f 422/691/173 423/690/173 230/689/173
f 418/692/173 422/691/173 230/689/173
f 423/695/174 424/694/174 233/693/174
f 230/696/174 423/695/174 233/693/174
usemtl filler
f 237/699/175 238/698/175 240/697/175
f 239/700/175 237/699/175 240/697/175
f 242/703/176 241/702/176 243/701/176
f 244/704/176 242/703/176 243/701/176
f 241/707/177 237/706/177 239/705/177
f 243/708/177 241/707/177 239/705/177
f 238/711/178 242/710/178 244/709/178
f 240/712/178 238/711/178 244/709/178
f 245/715/179 246/714/179 248/713/179
f 247/716/179 245/715/179 248/713/179
f 250/719/180 246/718/180 245/717/180
f 249/720/180 250/719/180 245/717/180
f 249/723/181 245/722/181 247/721/181
f 251/724/181 249/723/181 247/721/181
f 246/727/182 250/726/182 252/725/182
f 248/728/182 246/727/182 252/725/182
f 253/731/183 247/730/183 248/729/183
f 254/732/183 253/731/183 248/729/183
f 255/735/184 253/734/184 254/733/184
f 256/736/184 255/735/184 254/733/184
f 251/739/185 247/738/185 253/737/185
f 255/740/185 251/739/185 253/737/185
f 254/743/186 248/742/186 252/741/186
f 256/744/186 254/743/186 252/741/186
f 261/747/187 258/746/187 257/745/187
f 246/748/187 261/747/187 257/745/187
f 248/751/188 259/750/188 260/749/188
f 262/752/188 248/751/188 260/749/188
f 246/755/189 257/754/189 259/753/189
f 248/756/189 246/755/189 259/753/189
f 258/759/190 261/758/190 262/757/190
f 260/760/190 258/759/190 262/757/190
f 267/763/191 264/762/191 263/761/191
f 266/764/191 267/763/191 263/761/191
f 248/767/192 259/766/192 265/765/192
f 254/768/192 248/767/192 265/765/192
f 257/771/193 268/770/193 269/769/193
f 259/772/193 257/771/193 269/769/193
f 271/775/194 268/774/194 257/773/194
f 270/776/194 271/775/194 257/773/194
f 270/779/195 257/778/195 259/777/195
f 272/780/195 270/779/195 259/777/195
f 268/783/196 271/782/196 273/781/196
f 269/784/196 268/783/196 273/781/196
f 265/787/197 259/786/197 269/785/197
f 274/788/197 265/787/197 269/785/197
f 275/791/198 265/790/198 274/789/198
f 276/792/198 275/791/198 274/789/198
f 272/795/199 259/794/199 265/793/199
f 275/796/199 272/795/199 265/793/199
f 274/799/200 269/798/200 273/797/200
f 276/800/200 274/799/200 273/797/200
f 280/803/201 278/802/201 277/801/201
f 279/804/201 280/803/201 277/801/201
f 254/807/202 265/806/202 275/805/202
f 256/808/202 254/807/202 275/805/202
f 278/811/203 280/810/203 256/809/203
f 275/812/203 278/811/203 256/809/203
f 271/815/204 281/814/204 282/813/204
f 276/816/204 271/815/204 282/813/204
f 283/819/205 249/818/205 255/817/205
f 284/820/205 283/819/205 255/817/205
f 283/823/206 281/822/206 271/821/206
f 249/824/206 283/823/206 271/821/206
f 255/827/207 276/826/207 282/825/207
f 284/828/207 255/827/207 282/825/207
f 249/831/208 271/830/208 276/829/208
f 255/832/208 249/831/208 276/829/208
f 285/835/209 286/834/209 288/833/209
f 287/836/209 285/835/209 288/833/209
f 289/839/210 283/838/210 290/837/210
f 291/840/210 289/839/210 290/837/210
f 289/843/211 286/842/211 285/841/211
f 283/844/211 289/843/211 285/841/211
f 283/847/212 285/846/212 287/845/212
f 290/848/212 283/847/212 287/845/212
f 286/851/213 289/850/213 291/849/213
f 288/852/213 286/851/213 291/849/213
f 292/855/214 287/854/214 288/853/214
f 293/856/214 292/855/214 288/853/214
f 291/859/215 290/858/215 294/857/215
f 295/860/215 291/859/215 294/857/215
f 294/863/216 292/862/216 293/861/216
f 295/864/216 294/863/216 293/861/216
f 290/867/217 287/866/217 292/865/217
f 294/868/217 290/867/217 292/865/217
f 293/871/218 288/870/218 291/869/218
f 295/872/218 293/871/218 291/869/218
f 296/875/219 297/874/219 299/873/219
f 298/876/219 296/875/219 299/873/219
f 301/879/220 300/878/220 302/877/220
f 303/880/220 301/879/220 302/877/220
f 300/883/221 296/882/221 298/881/221
f 302/884/221 300/883/221 298/881/221
f 297/887/222 301/886/222 303/885/222
f 299/888/222 297/887/222 303/885/222
usemtl common_thingies
f 304/891/223 305/890/223 297/889/223
f 296/892/223 304/891/223 297/889/223
f 307/895/224 306/894/224 300/893/224
f 301/896/224 307/895/224 300/893/224
f 307/899/225 305/898/225 304/897/225
f 306/900/225 307/899/225 304/897/225
f 306/903/226 304/902/226 296/901/226
f 300/904/226 306/903/226 296/901/226
f 305/907/227 307/906/227 301/905/227
f 297/908/227 305/907/227 301/905/227
usemtl filler
f 311/911/228 310/910/228 308/909/228
f 309/912/228 311/911/228 308/909/228
usemtl common_steel_norivets
f 312/915/229 313/914/229 315/913/229
f 314/916/229 312/915/229 315/913/229
f 317/919/230 316/918/230 318/917/230
f 319/920/230 317/919/230 318/917/230
f 320/923/231 321/922/231 313/921/231
f 312/924/231 320/923/231 313/921/231
f 323/927/232 320/926/232 312/925/232
f 314/928/232 323/927/232 312/925/232
f 321/931/233 322/930/233 315/929/233
f 313/932/233 321/931/233 315/929/233
f 321/935/234 320/934/234 316/933/234
f 317/936/234 321/935/234 316/933/234
f 322/939/235 321/938/235 317/937/235
f 319/940/235 322/939/235 317/937/235
f 323/943/236 322/942/236 319/941/236
f 318/944/236 323/943/236 319/941/236
f 320/947/237 323/946/237 318/945/237
f 316/948/237 320/947/237 318/945/237
f 328/951/238 329/950/238 325/949/238
f 324/952/238 328/951/238 325/949/238
f 330/955/239 331/954/239 326/953/239
f 327/956/239 330/955/239 326/953/239
f 322/959/240 315/958/240 314/957/240
f 323/960/240 322/959/240 314/957/240
f 326/963/241 324/962/241 325/961/241
f 327/964/241 326/963/241 325/961/241
f 331/967/242 328/966/242 324/965/242
f 326/968/242 331/967/242 324/965/242
f 329/971/243 328/970/243 314/969/243
f 315/972/243 329/971/243 314/969/243
f 331/975/244 330/974/244 322/973/244
f 323/976/244 331/975/244 322/973/244
f 328/979/245 331/978/245 323/977/245
f 314/980/245 328/979/245 323/977/245
f 324/983/246 325/982/246 333/981/246
f 332/984/246 324/983/246 333/981/246
f 335/987/247 334/986/247 336/985/247
f 337/988/247 335/987/247 336/985/247
f 327/991/248 326/990/248 334/989/248
f 335/992/248 327/991/248 334/989/248
f 338/995/249 339/994/249 337/993/249
f 336/996/249 338/995/249 337/993/249
f 326/999/250 338/998/250 336/997/250
f 334/1000/250 326/999/250 336/997/250
f 339/1003/251 327/1002/251 335/1001/251
f 337/1004/251 339/1003/251 335/1001/251
f 339/1007/252 338/1006/252 332/1005/252
f 333/1008/252 339/1007/252 332/1005/252
f 327/1011/253 339/1010/253 333/1009/253
f 325/1012/253 327/1011/253 333/1009/253
f 338/1015/254 326/1014/254 324/1013/254
f 332/1016/254 338/1015/254 324/1013/254
f 355/1019/255 356/1018/255 340/1017/255
f 344/1020/255 355/1019/255 340/1017/255
f 350/1023/256 351/1022/256 346/1021/256
f 342/1024/256 350/1023/256 346/1021/256
f 357/1027/257 350/1026/257 342/1025/257
f 347/1028/257 357/1027/257 342/1025/257
f 352/1031/258 353/1030/258 348/1029/258
f 343/1032/258 352/1031/258 348/1029/258
f 349/1035/259 347/1034/259 342/1033/259
f 346/1036/259 349/1035/259 342/1033/259
f 354/1039/260 355/1038/260 344/1037/260
f 341/1040/260 354/1039/260 344/1037/260
f 351/1043/261 352/1042/261 343/1041/261
f 346/1044/261 351/1043/261 343/1041/261
f 348/1047/262 349/1046/262 346/1045/262
f 343/1048/262 348/1047/262 346/1045/262
f 356/1051/263 357/1050/263 347/1049/263
f 340/1052/263 356/1051/263 347/1049/263
f 353/1055/264 354/1054/264 341/1053/264
f 348/1056/264 353/1055/264 341/1053/264
f 349/1059/265 348/1058/265 341/1057/265
f 344/1060/265 349/1059/265 341/1057/265
f 347/1063/266 349/1062/266 344/1061/266
f 340/1064/266 347/1063/266 344/1061/266
f 351/1067/267 350/1066/267 317/1065/267
f 345/1068/267 351/1067/267 317/1065/267
f 352/1071/268 351/1070/268 345/1069/268
f 337/1072/268 352/1071/268 345/1069/268
f 353/1075/269 352/1074/269 337/1073/269
f 339/1076/269 353/1075/269 337/1073/269
f 354/1079/270 353/1078/270 339/1077/270
f 333/1080/270 354/1079/270 339/1077/270
f 355/1083/271 354/1082/271 333/1081/271
f 329/1084/271 355/1083/271 333/1081/271
f 356/1087/272 355/1086/272 329/1085/272
f 313/1088/272 356/1087/272 329/1085/272
f 357/1091/273 356/1090/273 313/1089/273
f 321/1092/273 357/1091/273 313/1089/273
f 350/1095/274 357/1094/274 321/1093/274
f 317/1096/274 350/1095/274 321/1093/274
f 358/1099/275 359/1098/275 361/1097/275
f 360/1100/275 358/1099/275 361/1097/275
f 319/1103/276 318/1102/276 334/1101/276
f 335/1104/276 319/1103/276 334/1101/276
f 319/1107/277 359/1106/277 358/1105/277
f 318/1108/277 319/1107/277 358/1105/277
f 334/1111/278 360/1110/278 361/1109/278
f 335/1112/278 334/1111/278 361/1109/278
f 318/1115/279 358/1114/279 360/1113/279
f 334/1116/279 318/1115/279 360/1113/279
f 359/1119/280 319/1118/280 335/1117/280
f 361/1120/280 359/1119/280 335/1117/280
usemtl common_thingies
f 327/1123/281 361/1122/281 359/1121/281
f 322/1124/281 327/1123/281 359/1121/281
f 362/1127/282 363/1126/282 365/1125/282
f 364/1128/282 362/1127/282 365/1125/282
f 367/1131/283 366/1130/283 368/1129/283
f 369/1132/283 367/1131/283 368/1129/283
f 368/1135/284 364/1134/284 365/1133/284
f 369/1136/284 368/1135/284 365/1133/284
f 366/1139/285 362/1138/285 364/1137/285
f 368/1140/285 366/1139/285 364/1137/285
f 363/1143/286 367/1142/286 369/1141/286
f 365/1144/286 363/1143/286 369/1141/286
f 370/1147/287 371/1146/287 373/1145/287
f 372/1148/287 370/1147/287 373/1145/287
f 374/1151/288 337/1150/288 375/1149/288
f 376/1152/288 374/1151/288 375/1149/288
f 375/1155/289 372/1154/289 373/1153/289
f 376/1156/289 375/1155/289 373/1153/289
f 337/1159/290 370/1158/290 372/1157/290
f 375/1160/290 337/1159/290 372/1157/290
f 371/1163/291 374/1162/291 376/1161/291
f 373/1164/291 371/1163/291 376/1161/291
usemtl common_steel_norivets
f 377/1167/292 378/1166/292 380/1165/292
f 379/1168/292 377/1167/292 380/1165/292
f 382/1171/293 381/1170/293 383/1169/293
f 384/1172/293 382/1171/293 383/1169/293
f 381/1175/294 377/1174/294 379/1173/294
f 383/1176/294 381/1175/294 379/1173/294
f 378/1179/295 382/1178/295 384/1177/295
f 380/1180/295 378/1179/295 384/1177/295
f 385/1183/296 386/1182/296 388/1181/296
f 387/1184/296 385/1183/296 388/1181/296
f 390/1187/297 389/1186/297 391/1185/297
f 392/1188/297 390/1187/297 391/1185/297
f 389/1191/298 385/1190/298 387/1189/298
f 391/1192/298 389/1191/298 387/1189/298
f 386/1195/299 390/1194/299 392/1193/299
f 388/1196/299 386/1195/299 392/1193/299
f 393/1199/300 394/1198/300 396/1197/300
f 395/1200/300 393/1199/300 396/1197/300
f 398/1203/301 397/1202/301 399/1201/301
f 400/1204/301 398/1203/301 399/1201/301
f 397/1207/302 393/1206/302 395/1205/302
f 399/1208/302 397/1207/302 395/1205/302
f 394/1211/303 398/1210/303 400/1209/303
f 396/1212/303 394/1211/303 400/1209/303
f 401/1215/304 402/1214/304 404/1213/304
f 403/1216/304 401/1215/304 404/1213/304
f 406/1219/305 405/1218/305 407/1217/305
f 408/1220/305 406/1219/305 407/1217/305
f 405/1223/306 401/1222/306 403/1221/306
f 407/1224/306 405/1223/306 403/1221/306
f 402/1227/307 406/1226/307 408/1225/307
f 404/1228/307 402/1227/307 408/1225/307
f 409/1231/308 410/1230/308 113/1229/308
f 115/1232/308 409/1231/308 113/1229/308
f 412/1235/309 411/1234/309 413/1233/309
f 414/1236/309 412/1235/309 413/1233/309
f 412/1239/310 410/1238/310 409/1237/310
f 411/1240/310 412/1239/310 409/1237/310
f 411/1243/311 409/1242/311 115/1241/311
f 413/1244/311 411/1243/311 115/1241/311
f 410/1247/312 412/1246/312 414/1245/312
f 113/1248/312 410/1247/312 414/1245/312
usemtl common_steel
f 119/1251/313 120/1250/313 114/1249/313
f 82/1252/313 119/1251/313 114/1249/313
f 117/1255/314 118/1254/314 8/1253/314
f 113/1256/314 117/1255/314 8/1253/314
usemtl common_steel_norivets
f 426/1259/315 427/1258/315 416/1257/315
f 415/1260/315 426/1259/315 416/1257/315
f 427/1263/316 428/1262/316 417/1261/316
f 416/1264/316 427/1263/316 417/1261/316
f 429/1267/317 425/1266/317 422/1265/317
f 418/1268/317 429/1267/317 422/1265/317
f 430/1271/318 429/1270/318 418/1269/318
f 419/1272/318 430/1271/318 418/1269/318
f 421/1275/319 420/1274/319 179/1273/319
f 174/1276/319 421/1275/319 179/1273/319
f 425/1279/320 426/1278/320 415/1277/320
f 422/1280/320 425/1279/320 415/1277/320
f 423/1283/321 422/1282/321 415/1281/321
f 235/1284/321 423/1283/321 415/1281/321
f 424/1287/322 423/1286/322 235/1285/322
f 236/1288/322 424/1287/322 235/1285/322
f 426/1291/323 425/1290/323 421/1289/323
f 174/1292/323 426/1291/323 421/1289/323
f 427/1295/324 426/1294/324 174/1293/324
f 231/1296/324 427/1295/324 174/1293/324
f 428/1299/325 427/1298/325 231/1297/325
f 234/1300/325 428/1299/325 231/1297/325
f 425/1303/326 429/1302/326 175/1301/326
f 421/1304/326 425/1303/326 175/1301/326
f 429/1307/327 430/1306/327 177/1305/327
f 175/1308/327 429/1307/327 177/1305/327
usemtl common_bottom
f 449/1311/328 450/1310/328 126/1309/328
f 436/1312/328 449/1311/328 126/1309/328
usemtl common_machinebase
f 437/1315/329 436/1314/329 126/1313/329
f 125/1316/329 437/1315/329 126/1313/329
usemtl common_bottom
f 451/1319/330 452/1318/330 437/1317/330
f 125/1320/330 451/1319/330 437/1317/330
usemtl common_rough_steel
f 438/1323/331 440/1322/331 84/1321/331
f 83/1324/331 438/1323/331 84/1321/331
f 442/1327/332 441/1326/332 438/1325/332
f 83/1328/332 442/1327/332 438/1325/332
f 443/1331/333 442/1330/333 83/1329/333
f 84/1332/333 443/1331/333 83/1329/333
f 444/1335/334 443/1334/334 84/1333/334
f 440/1336/334 444/1335/334 84/1333/334
f 445/1339/335 444/1338/335 440/1337/335
f 87/1340/335 445/1339/335 440/1337/335
f 446/1343/336 445/1342/336 87/1341/336
f 81/1344/336 446/1343/336 87/1341/336
f 447/1347/337 446/1346/337 81/1345/337
f 7/1348/337 447/1347/337 81/1345/337
f 448/1351/338 447/1350/338 7/1349/338
f 86/1352/338 448/1351/338 7/1349/338
f 441/1355/339 448/1354/339 86/1353/339
f 438/1356/339 441/1355/339 86/1353/339
usemtl common_bottom
f 453/1359/340 452/1358/340 432/1357/340
f 122/1360/340 453/1359/340 432/1357/340
usemtl common_machinebase
f 454/1363/341 453/1362/341 122/1361/341
f 124/1364/341 454/1363/341 122/1361/341
usemtl common_bottom
f 449/1367/342 454/1366/342 124/1365/342
f 435/1368/342 449/1367/342 124/1365/342
f 460/1371/343 456/1370/343 455/1369/343
f 459/1372/343 460/1371/343 455/1369/343
f 459/1375/344 455/1374/344 457/1373/344
f 461/1376/344 459/1375/344 457/1373/344
f 456/1379/345 460/1378/345 462/1377/345
f 458/1380/345 456/1379/345 462/1377/345
f 450/1383/346 442/1382/346 441/1381/346
f 449/1384/346 450/1383/346 441/1381/346
f 456/1387/347 463/1386/347 464/1385/347
f 458/1388/347 456/1387/347 464/1385/347
f 456/1391/348 442/1390/348 450/1389/348
f 463/1392/348 456/1391/348 450/1389/348
f 463/1395/349 450/1394/349 449/1393/349
f 464/1396/349 463/1395/349 449/1393/349
f 442/1399/350 456/1398/350 458/1397/350
f 441/1400/350 442/1399/350 458/1397/350
f 465/1403/351 463/1402/351 468/1401/351
f 467/1404/351 465/1403/351 468/1401/351
f 466/1407/352 465/1406/352 467/1405/352
f 469/1408/352 466/1407/352 467/1405/352
f 470/1411/353 468/1410/353 463/1409/353
f 464/1412/353 470/1411/353 463/1409/353
f 439/1415/354 472/1414/354 471/1413/354
f 435/1416/354 439/1415/354 471/1413/354
f 470/1419/355 468/1418/355 460/1417/355
f 462/1420/355 470/1419/355 460/1417/355
f 471/1423/356 472/1422/356 460/1421/356
f 468/1424/356 471/1423/356 460/1421/356
f 435/1427/357 471/1426/357 468/1425/357
f 470/1428/357 435/1427/357 468/1425/357
f 462/1431/358 460/1430/358 472/1429/358
f 439/1432/358 462/1431/358 472/1429/358
usemtl common_thingies
f 473/1435/359 474/1434/359 476/1433/359
f 475/1436/359 473/1435/359 476/1433/359
f 478/1439/360 477/1438/360 479/1437/360
f 480/1440/360 478/1439/360 479/1437/360
f 478/1443/361 474/1442/361 473/1441/361
f 477/1444/361 478/1443/361 473/1441/361
f 477/1447/362 473/1446/362 475/1445/362
f 479/1448/362 477/1447/362 475/1445/362
f 474/1451/363 478/1450/363 480/1449/363
f 476/1452/363 474/1451/363 480/1449/363
usemtl common_steel_norivets
f 458/1455/364 464/1454/364 470/1453/364
f 462/1456/364 458/1455/364 470/1453/364