# Made by Pabilo8 with Blockbench
# Exported with IIToolkit Plugin
mtllib buzzsaw.mtl


o inserter
v 0.75 0.375 0.75
v 0.75 0.375 0.25
v 0.75 0.3125 0.75
v 0.75 0.3125 0.25
v 0.25 0.375 0.75
v 0.25 0.375 0.25
v 0.25 0.3125 0.75
v 0.25 0.3125 0.25
v 0.625 0.3125 0.625
v 0.625 0.3125 0.375
v 0.625 0.25 0.625
v 0.625 0.25 0.375
v 0.375 0.3125 0.625
v 0.375 0.3125 0.375
v 0.375 0.25 0.625
v 0.375 0.25 0.375
v 0.3125 0.5625 0.625
v 0.3125 0.5625 0.375
v 0.3125 0.375 0.625
v 0.3125 0.375 0.375
v 0.25 0.5625 0.625
v 0.25 0.5625 0.375
v 0.25 0.375 0.625
v 0.25 0.375 0.375
v 0.75 0.5625 0.625
v 0.75 0.5625 0.375
v 0.75 0.375 0.625
v 0.75 0.375 0.375
v 0.6875 0.5625 0.625
v 0.6875 0.5625 0.375
v 0.6875 0.375 0.625
v 0.6875 0.375 0.375
v 0.3125 0.625 0.5625
v 0.3125 0.625 0.4375
v 0.25 0.625 0.5625
v 0.25 0.625 0.4375
v 0.75 0.625 0.5625
v 0.75 0.625 0.4375
v 0.6875 0.625 0.5625
v 0.6875 0.625 0.4375
vt 0.5 1
vt 0.4375 1
vt 0.4375 0.5
vt 0.5 0.5
vt 0.0625 1
vt 0 1
vt 0 0.5
vt 0.0625 0.5
vt 0.5 0.5
vt 0.5 1
vt 0 1
vt 0 0.5
vt 0.5 0.5
vt 0.5 1
vt 0 1
vt 0 0.5
vt 0.5 0.9375
vt 0.5 1
vt 0 1
vt 0 0.9375
vt 0 0.5
vt 0 0.5625
vt 0.5 0.5625
vt 0.5 0.5
vt 0.75 0.4375
vt 0.75 0.5
vt 0.5 0.5
vt 0.5 0.4375
vt 0.75 0.375
vt 0.75 0.4375
vt 0.5 0.4375
vt 0.5 0.375
vt 0.75 0.375
vt 0.75 0.4375
vt 0.5 0.4375
vt 0.5 0.375
vt 0.75 0.4375
vt 0.75 0.5
vt 0.5 0.5
vt 0.5 0.4375
vt 0.375 0.5
vt 0.375 0.6875
vt 0.125 0.6875
vt 0.125 0.5
vt 0.375 0.5
vt 0.375 0.6875
vt 0.125 0.6875
vt 0.125 0.5
vt 0.375 0.5
vt 0.375 0.6875
vt 0.3125 0.6875
vt 0.3125 0.5
vt 0.1875 0.5
vt 0.1875 0.6875
vt 0.125 0.6875
vt 0.125 0.5
vt 0.375 0.5
vt 0.375 0.6875
vt 0.125 0.6875
vt 0.125 0.5
vt 0.375 0.5
vt 0.375 0.6875
vt 0.125 0.6875
vt 0.125 0.5
vt 0.375 0.5
vt 0.375 0.6875
vt 0.3125 0.6875
vt 0.3125 0.5
vt 0.1875 0.5
vt 0.1875 0.6875
vt 0.125 0.6875
vt 0.125 0.5
vt 0.3125 0.5625
vt 0.28125 0.5
vt 0.21875 0.5
vt 0.1875 0.5625
vt 0.1875 0.5625
vt 0.21875 0.5
vt 0.28125 0.5
vt 0.3125 0.5625
vt 0.28125 0.5625
vt 0.21875 0.5625
vt 0.21875 0.5
vt 0.28125 0.5
vt 0.3125 0.5
vt 0.3125 0.5625
vt 0.28125 0.5625
vt 0.28125 0.5
vt 0.21875 0.5
vt 0.21875 0.5625
vt 0.1875 0.5625
vt 0.1875 0.5
vt 0.3125 0.5625
vt 0.28125 0.5
vt 0.21875 0.5
vt 0.1875 0.5625
vt 0.1875 0.5625
vt 0.21875 0.5
vt 0.28125 0.5
vt 0.3125 0.5625
vt 0.28125 0.5625
vt 0.21875 0.5625
vt 0.21875 0.5
vt 0.28125 0.5
vt 0.3125 0.5
vt 0.3125 0.5625
vt 0.28125 0.5625
vt 0.28125 0.5
vt 0.21875 0.5
vt 0.21875 0.5625
vt 0.1875 0.5625
vt 0.1875 0.5
vn 1 0 0
vn -1 0 0
vn 0 1 0
vn 0 -1 0
vn 0 0 1
vn 0 0 -1
vn 1 0 0
vn -1 0 0
vn 0 0 1
vn 0 0 -1
vn 1 0 0
vn -1 0 0
vn 0 0 1
vn 0 0 -1
vn 1 0 0
vn -1 0 0
vn 0 0 1
vn 0 0 -1
vn 1 0 0
vn -1 0 0
vn 0 1 0
vn 0 0.7071067811865476 0.7071067811865476
vn 0 0.7071067811865476 -0.7071067811865476
vn 1 0 0
vn -1 0 0
vn 0 1 0
vn 0 0.7071067811865476 0.7071067811865476
vn 0 0.7071067811865476 -0.7071067811865476
usemtl advanced_inserter
f 4/1/1 2/2/1 1/3/1
f 4/1/1 1/3/1 3/4/1
f 7/5/2 5/6/2 6/7/2
f 7/5/2 6/7/2 8/8/2
f 1/9/3 2/10/3 6/11/3
f 1/9/3 6/11/3 5/12/3
f 4/13/4 3/14/4 7/15/4
f 4/13/4 7/15/4 8/16/4
f 3/17/5 1/18/5 5/19/5
f 3/17/5 5/19/5 7/20/5
f 8/21/6 6/22/6 2/23/6
f 8/21/6 2/23/6 4/24/6
usemtl inserter_base2
f 12/25/7 10/26/7 9/27/7
f 12/25/7 9/27/7 11/28/7
f 15/29/8 13/30/8 14/31/8
f 15/29/8 14/31/8 16/32/8
f 11/33/9 9/34/9 13/35/9
f 11/33/9 13/35/9 15/36/9
f 16/37/10 14/38/10 10/39/10
f 16/37/10 10/39/10 12/40/10
usemtl advanced_inserter
f 20/41/11 18/42/11 17/43/11
f 20/41/11 17/43/11 19/44/11
f 23/45/12 21/46/12 22/47/12
f 23/45/12 22/47/12 24/48/12
f 19/49/13 17/50/13 21/51/13
f 19/49/13 21/51/13 23/52/13
f 24/53/14 22/54/14 18/55/14
f 24/53/14 18/55/14 20/56/14
f 28/57/15 26/58/15 25/59/15
f 28/57/15 25/59/15 27/60/15
f 31/61/16 29/62/16 30/63/16
f 31/61/16 30/63/16 32/64/16
f 27/65/17 25/66/17 29/67/17
f 27/65/17 29/67/17 31/68/17
f 32/69/18 30/70/18 26/71/18
f 32/69/18 26/71/18 28/72/18
f 18/73/19 34/74/19 33/75/19
f 18/73/19 33/75/19 17/76/19
f 21/77/20 35/78/20 36/79/20
f 21/77/20 36/79/20 22/80/20
f 33/81/21 34/82/21 36/83/21
f 33/81/21 36/83/21 35/84/21
f 17/85/22 33/86/22 35/87/22
f 17/85/22 35/87/22 21/88/22
f 22/89/23 36/90/23 34/91/23
f 22/89/23 34/91/23 18/92/23
f 26/93/24 38/94/24 37/95/24
f 26/93/24 37/95/24 25/96/24
f 29/97/25 39/98/25 40/99/25
f 29/97/25 40/99/25 30/100/25
f 37/101/26 38/102/26 40/103/26
f 37/101/26 40/103/26 39/104/26
f 25/105/27 37/106/27 39/107/27
f 25/105/27 39/107/27 29/108/27
f 30/109/28 40/110/28 38/111/28
f 30/109/28 38/111/28 26/112/28
o lower
v 0.459375 1.4375 0.59375
v 0.459375 1.4375 0.40625
v 0.459375 1.25 0.59375
v 0.459375 1.25 0.40625
v 0.271875 1.4375 0.59375
v 0.271875 1.4375 0.40625
v 0.271875 1.25 0.59375
v 0.271875 1.25 0.40625
v 0.540625 1.4375 0.59375
v 0.540625 1.4375 0.40625
v 0.540625 1.25 0.59375
v 0.540625 1.25 0.40625
v 0.728125 1.4375 0.59375
v 0.728125 1.4375 0.40625
v 0.728125 1.25 0.59375
v 0.728125 1.25 0.40625
v 0.6875 0.5625 0.5625
v 0.6875 0.5625 0.4375
v 0.6875 0.4375 0.5625
v 0.6875 0.4375 0.4375
v 0.3125 0.5625 0.5625
v 0.3125 0.5625 0.4375
v 0.3125 0.4375 0.5625
v 0.3125 0.4375 0.4375
v 0.6875 1.1875 0.46875
v 0.6875 1.1875 0.40625
v 0.6875 0.6875 0.46875
v 0.6875 0.6875 0.40625
v 0.3125 1.1875 0.46875
v 0.3125 1.1875 0.40625
v 0.3125 0.6875 0.46875
v 0.3125 0.6875 0.40625
v 0.65625 1.1562499999999996 0.40625
v 0.65625 1.1562499999999996 0.375
v 0.65625 0.96875 0.40625
v 0.65625 0.96875 0.375
v 0.34375 1.1562499999999996 0.40625
v 0.34375 1.1562499999999996 0.375
v 0.34375 0.96875 0.40625
v 0.34375 0.96875 0.375
v 0.65625 0.9374999999999996 0.40625
v 0.65625 0.9374999999999996 0.375
v 0.65625 0.75 0.40625
v 0.65625 0.75 0.375
v 0.34375 0.9374999999999996 0.40625
v 0.34375 0.9374999999999996 0.375
v 0.34375 0.75 0.40625
v 0.34375 0.75 0.375
v 0.65625 1.25 0.546875
v 0.65625 1.25 0.453125
v 0.65625 0.625 0.546875
v 0.65625 0.625 0.45312500000000006
v 0.5625 1.25 0.546875
v 0.5625 1.25 0.453125
v 0.5625 0.625 0.546875
v 0.5625 0.625 0.45312500000000006
v 0.65625 0.9375 0.453125
v 0.65625 0.9375 0.546875
v 0.5625 0.9375 0.546875
v 0.5625 0.9375 0.453125
v 0.4375 1.25 0.546875
v 0.4375 1.25 0.453125
v 0.4375 0.625 0.546875
v 0.4375 0.625 0.45312500000000006
v 0.34375 1.25 0.546875
v 0.34375 1.25 0.453125
v 0.34375 0.625 0.546875
v 0.34375 0.625 0.45312500000000006
v 0.4375 0.9375 0.453125
v 0.4375 0.9375 0.546875
v 0.34375 0.9375 0.546875
v 0.34375 0.9375 0.453125
v 0.4375 0.5625 0.421875
v 0.4375 0.5625 0.359375
v 0.4375 0.4375 0.421875
v 0.4375 0.4375 0.359375
v 0.34375 0.5625 0.421875
v 0.34375 0.5625 0.359375
v 0.34375 0.4375 0.421875
v 0.34375 0.4375 0.359375
v 0.4375 0.5625 0.640625
v 0.4375 0.5625 0.578125
v 0.4375 0.4375 0.640625
v 0.4375 0.4375 0.578125
v 0.34375 0.5625 0.640625
v 0.34375 0.5625 0.578125
v 0.34375 0.4375 0.640625
v 0.34375 0.4375 0.578125
v 0.65625 0.5625 0.421875
v 0.65625 0.5625 0.359375
v 0.65625 0.4375 0.421875
v 0.65625 0.4375 0.359375
v 0.5625 0.5625 0.421875
v 0.5625 0.5625 0.359375
v 0.5625 0.4375 0.421875
v 0.5625 0.4375 0.359375
v 0.65625 0.5625 0.640625
v 0.65625 0.5625 0.578125
v 0.65625 0.4375 0.640625
v 0.65625 0.4375 0.578125
v 0.5625 0.5625 0.640625
v 0.5625 0.5625 0.578125
v 0.5625 0.4375 0.640625
v 0.5625 0.4375 0.578125
vt 0.09375 0.8125
vt 0.09375 1
vt 0 1
vt 0 0.8125
vt 0.8125 0.8125
vt 0.8125 0.625
vt 0.625 0.625
vt 0.625 0.8125
vt 0.8125 0.625
vt 0.8125 0.8125
vt 1 0.8125
vt 1 0.625
vt 0.8125 0.8125
vt 0.8125 0.625
vt 1 0.625
vt 1 0.8125
vt 0.8125 0.625
vt 0.8125 0.8125
vt 1 0.8125
vt 1 0.625
vt 1 0.625
vt 1 0.8125
vt 0.8125 0.8125
vt 0.8125 0.625
vt 0 1
vt 0.09375 1
vt 0.09375 0.8125
vt 0 0.8125
vt 0.625 0.625
vt 0.8125 0.625
vt 0.8125 0.8125
vt 0.625 0.8125
vt 1 0.8125
vt 0.8125 0.8125
vt 0.8125 0.625
vt 1 0.625
vt 1 0.625
vt 0.8125 0.625
vt 0.8125 0.8125
vt 1 0.8125
vt 1 0.8125
vt 0.8125 0.8125
vt 0.8125 0.625
vt 1 0.625
vt 0.8125 0.8125
vt 1 0.8125
vt 1 0.625
vt 0.8125 0.625
vt 0.0625 0.875
vt 0.0625 1
vt 0 1
vt 0 0.875
vt 0.0625 0.875
vt 0.0625 1
vt 0 1
vt 0 0.875
vt 0.5 0.625
vt 0.625 0.625
vt 0.625 1
vt 0.5 1
vt 0.625 0.625
vt 0.5 0.625
vt 0.5 1
vt 0.625 1
vt 0.625 0.625
vt 0.49999999999999994 0.625
vt 0.49999999999999994 1
vt 0.625 1
vt 0.5 1
vt 0.625 1
vt 0.625 0.625
vt 0.5 0.625
vt 0 0.5
vt 0 0
vt 0.03125 0
vt 0.03125 0.5
vt 0.34375 0
vt 0.34375 0.5
vt 0.375 0.5
vt 0.375 0
vt 0 0.0625
vt 0 0
vt 0.375 0
vt 0.375 0.0625
vt 0 0.5
vt 0 0.4375
vt 0.375 0.4375
vt 0.375 0.5
vt 0.375 0.5
vt 0.375 0
vt 0 0
vt 0 0.5
vt 0.375 0.5
vt 0.375 0
vt 0 0
vt 0 0.5
vt 0.71875 0.8125000000000004
vt 0.71875 1
vt 0.6875 1
vt 0.6875 0.8125000000000004
vt 1 0.8125000000000004
vt 1 1
vt 0.96875 1
vt 0.96875 0.8125000000000004
vt 0.6875 0.9375
vt 0.6875 1
vt 1 1
vt 1 0.9375
vt 0.6875 0.8125
vt 0.6875 0.875
vt 1 0.875
vt 1 0.8125
vt 1 0.8125000000000004
vt 1 1
vt 0.6875 1
vt 0.6875 0.8125000000000004
vt 0.71875 0.8125000000000004
vt 0.71875 1
vt 0.6875 1
vt 0.6875 0.8125000000000004
vt 1 0.8125000000000004
vt 1 1
vt 0.96875 1
vt 0.96875 0.8125000000000004
vt 0.6875 0.9375
vt 0.6875 1
vt 1 1
vt 1 0.9375
vt 0.6875 0.8125
vt 0.6875 0.875
vt 1 0.875
vt 1 0.8125
vt 1 0.8125000000000004
vt 1 1
vt 0.6875 1
vt 0.6875 0.8125000000000004
vt 0.375 0.5
vt 0.375 0.1875
vt 0.5 0.1875
vt 0.5 0.5
vt 0.375 0.5
vt 0.375 0.1875
vt 0.5 0.1875
vt 0.5 0.5
vt 0.046875 0.90625
vt 0.046875 1
vt 0 1
vt 0 0.90625
vt 0.046875 0.90625
vt 0.046875 1
vt 0 1
vt 0 0.90625
vt 0.5 0.5
vt 0.5 0.1875
vt 0.375 0.1875
vt 0.375 0.5
vt 0.375 0.5
vt 0.375 0.1875
vt 0.5 0.1875
vt 0.5 0.5
vt 0.5 0.5
vt 0.5 0.1875
vt 0.375 0.1875
vt 0.375 0.5
vt 0.375 0.5
vt 0.375 0.1875
vt 0.5 0.1875
vt 0.5 0.5
vt 0.5 0.5
vt 0.5 0.1875
vt 0.375 0.1875
vt 0.375 0.5
vt 0.375 0.5
vt 0.375 0.1875
vt 0.5 0.1875
vt 0.5 0.5
vt 0.375 0.5
vt 0.375 0.1875
vt 0.5 0.1875
vt 0.5 0.5
vt 0.375 0.5
vt 0.375 0.1875
vt 0.5 0.1875
vt 0.5 0.5
vt 0.046875 0.90625
vt 0.046875 1
vt 0 1
vt 0 0.90625
vt 0.046875 0.90625
vt 0.046875 1
vt 0 1
vt 0 0.90625
vt 0.5 0.5
vt 0.5 0.1875
vt 0.375 0.1875
vt 0.375 0.5
vt 0.375 0.5
vt 0.375 0.1875
vt 0.5 0.1875
vt 0.5 0.5
vt 0.5 0.5
vt 0.5 0.1875
vt 0.375 0.1875
vt 0.375 0.5
vt 0.375 0.5
vt 0.375 0.1875
vt 0.5 0.1875
vt 0.5 0.5
vt 0.5 0.5
vt 0.5 0.1875
vt 0.375 0.1875
vt 0.375 0.5
vt 0.375 0.5
vt 0.375 0.1875
vt 0.5 0.1875
vt 0.5 0.5
vt 0.4375 0.375
vt 0.4375 0.125
vt 0.375 0.125
vt 0.375 0.375
vt 0.5 0.375
vt 0.5 0.125
vt 0.4375 0.125
vt 0.4375 0.375
vt 0.375 0.25
vt 0.375 0.375
vt 0.5 0.375
vt 0.5 0.25
vt 0.375 0.125
vt 0.375 0.375
vt 0.5 0.375
vt 0.5 0.125
vt 0.5 0.375
vt 0.5 0.125
vt 0.375 0.125
vt 0.375 0.375
vt 0.4375 0.375
vt 0.4375 0.125
vt 0.375 0.125
vt 0.375 0.375
vt 0.5 0.375
vt 0.5 0.125
vt 0.4375 0.125
vt 0.4375 0.375
vt 0.046875 0.9375
vt 0.046875 1
vt 0 1
vt 0 0.9375
vt 0.375 0.125
vt 0.375 0.375
vt 0.5 0.375
vt 0.5 0.125
vt 0.375 0.125
vt 0.375 0.375
vt 0.5 0.375
vt 0.5 0.125
vt 0.3773437500000002 0
vt 0.43515625 0.09999999999999998
vt 0.43671875000000016 0.1875
vt 0.3773437500000002 0.28437500000000004
vt 0.4984375 0
vt 0.44062500000000016 0.09999999999999998
vt 0.4390625 0.1875
vt 0.4984375 0.28437500000000004
vt 0.375 0.375
vt 0.375 0.125
vt 0.5 0.125
vt 0.5 0.375
vt 0.375 0.375
vt 0.375 0
vt 0.5 0
vt 0.5 0.375
vt 0.5 0.375
vt 0.5 0
vt 0.375 0
vt 0.375 0.375
vt 0.4375 0.375
vt 0.4375 0.125
vt 0.375 0.125
vt 0.375 0.375
vt 0.5 0.375
vt 0.5 0.125
vt 0.4375 0.125
vt 0.4375 0.375
vt 0.375 0.25
vt 0.375 0.375
vt 0.5 0.375
vt 0.5 0.25
vt 0.375 0.125
vt 0.375 0.375
vt 0.5 0.375
vt 0.5 0.125
vt 0.5 0.375
vt 0.5 0.125
vt 0.375 0.125
vt 0.375 0.375
vt 0.4375 0.375
vt 0.4375 0.125
vt 0.375 0.125
vt 0.375 0.375
vt 0.5 0.375
vt 0.5 0.125
vt 0.4375 0.125
vt 0.4375 0.375
vt 0.046875 0.9375
vt 0.046875 1
vt 0 1
vt 0 0.9375
vt 0.375 0.125
vt 0.375 0.375
vt 0.5 0.375
vt 0.5 0.125
vt 0.375 0.125
vt 0.375 0.375
vt 0.5 0.375
vt 0.5 0.125
vt 0.3773437500000002 0
vt 0.43515625 0.09999999999999998
vt 0.43671875000000016 0.1875
vt 0.3773437500000002 0.28437500000000004
vt 0.4984375 0
vt 0.44062500000000016 0.09999999999999998
vt 0.4390625 0.1875
vt 0.4984375 0.28437500000000004
vt 0.375 0.375
vt 0.375 0.125
vt 0.5 0.125
vt 0.5 0.375
vt 0.375 0.375
vt 0.375 0
vt 0.5 0
vt 0.5 0.375
vt 0.5 0.375
vt 0.5 0
vt 0.375 0
vt 0.375 0.375
vn 1 0 0
vn -1 0 0
vn 0 1 0
vn 0 -1 0
vn 0 0 1
vn 0 0 -1
vn -1 0 0
vn 1 0 0
vn 0 1 0
vn 0 -1 0
vn 0 0 1
vn 0 0 -1
vn 1 0 0
vn -1 0 0
vn 0 1 0
vn 0 -1 0
vn 0 0 1
vn 0 0 -1
vn 1 0 0
vn -1 0 0
vn 0 1 0
vn 0 -1 0
vn 0 0 1
vn 0 0 -1
vn 1 0 0
vn -1 0 0
vn 0 1 0
vn 0 -1 0
vn 0 0 -1
vn 1 0 0
vn -1 0 0
vn 0 1 0
vn 0 -1 0
vn 0 0 -1
vn 1 0 0
vn -1 0 0
vn 0 1 0
vn 0 -1 0
vn 0 0 1
vn 0 0 -1
vn 1 0 0
vn 0 0 1
vn -1 -2.2204460492503132e-17 0
vn 0 -1.1102230246251565e-16 -1
vn 1 0 0
vn -1 0 0
vn 0 1 0
vn 0 -1 0
vn 0 0 1
vn 0 0 -1
vn 1 0 0
vn 0 0 1
vn -1 0 0
vn 0 -1.1102230246251565e-16 -1
vn 1 0 0
vn -1 0 0
vn 0 -1 0
vn 0 0 1
vn 0 0 -1
vn 1 0 0
vn -1 0 0
vn 0 -1 0
vn 0 0 1
vn 0 0 -1
vn 1 0 0
vn -1 0 0
vn 0 1 0
vn 0 0.8320502943378438 0.5547001962252291
vn 0 0.8320502943378438 -0.554700196225229
vn 1 0 0
vn -1 0 0
vn 0 -1 0
vn 0 0 1
vn 0 0 -1
vn 1 0 0
vn -1 0 0
vn 0 -1 0
vn 0 0 1
vn 0 0 -1
vn 1 0 0
vn -1 0 0
vn 0 1 0
vn 0 0.8320502943378438 0.5547001962252291
vn 0 0.8320502943378438 -0.554700196225229
usemtl advanced_inserter
f 44/113/29 42/114/29 41/115/29
f 44/113/29 41/115/29 43/116/29
f 47/117/30 45/118/30 46/119/30
f 47/117/30 46/119/30 48/120/30
f 41/121/31 42/122/31 46/123/31
f 41/121/31 46/123/31 45/124/31
f 44/125/32 43/126/32 47/127/32
f 44/125/32 47/127/32 48/128/32
f 43/129/33 41/130/33 45/131/33
f 43/129/33 45/131/33 47/132/33
f 48/133/34 46/134/34 42/135/34
f 48/133/34 42/135/34 44/136/34
f 49/137/35 50/138/35 52/139/35
f 49/137/35 52/139/35 51/140/35
f 54/141/36 53/142/36 55/143/36
f 54/141/36 55/143/36 56/144/36
f 54/145/37 50/146/37 49/147/37
f 54/145/37 49/147/37 53/148/37
f 55/149/38 51/150/38 52/151/38
f 55/149/38 52/151/38 56/152/38
f 53/153/39 49/154/39 51/155/39
f 53/153/39 51/155/39 55/156/39
f 50/157/40 54/158/40 56/159/40
f 50/157/40 56/159/40 52/160/40
f 60/161/41 58/162/41 57/163/41
f 60/161/41 57/163/41 59/164/41
f 63/165/42 61/166/42 62/167/42
f 63/165/42 62/167/42 64/168/42
f 57/169/43 58/170/43 62/171/43
f 57/169/43 62/171/43 61/172/43
f 60/173/44 59/174/44 63/175/44
f 60/173/44 63/175/44 64/176/44
f 59/177/45 57/178/45 61/179/45
f 59/177/45 61/179/45 63/180/45
f 64/181/46 62/182/46 58/183/46
f 64/181/46 58/183/46 60/184/46
f 68/185/47 66/186/47 65/187/47
f 68/185/47 65/187/47 67/188/47
f 71/189/48 69/190/48 70/191/48
f 71/189/48 70/191/48 72/192/48
f 65/193/49 66/194/49 70/195/49
f 65/193/49 70/195/49 69/196/49
f 68/197/50 67/198/50 71/199/50
f 68/197/50 71/199/50 72/200/50
f 67/201/51 65/202/51 69/203/51
f 67/201/51 69/203/51 71/204/51
f 72/205/52 70/206/52 66/207/52
f 72/205/52 66/207/52 68/208/52
f 76/209/53 74/210/53 73/211/53
f 76/209/53 73/211/53 75/212/53
f 79/213/54 77/214/54 78/215/54
f 79/213/54 78/215/54 80/216/54
f 73/217/55 74/218/55 78/219/55
f 73/217/55 78/219/55 77/220/55
f 76/221/56 75/222/56 79/223/56
f 76/221/56 79/223/56 80/224/56
f 80/225/57 78/226/57 74/227/57
f 80/225/57 74/227/57 76/228/57
f 84/229/58 82/230/58 81/231/58
f 84/229/58 81/231/58 83/232/58
f 87/233/59 85/234/59 86/235/59
f 87/233/59 86/235/59 88/236/59
f 81/237/60 82/238/60 86/239/60
f 81/237/60 86/239/60 85/240/60
f 84/241/61 83/242/61 87/243/61
f 84/241/61 87/243/61 88/244/61
f 88/245/62 86/246/62 82/247/62
f 88/245/62 82/247/62 84/248/62
f 89/249/63 98/250/63 97/251/63
f 89/249/63 97/251/63 90/252/63
f 94/253/64 100/254/64 99/255/64
f 94/253/64 99/255/64 93/256/64
f 89/257/65 90/258/65 94/259/65
f 89/257/65 94/259/65 93/260/65
f 92/261/66 91/262/66 95/263/66
f 92/261/66 95/263/66 96/264/66
f 93/265/67 99/266/67 98/267/67
f 93/265/67 98/267/67 89/268/67
f 90/269/68 97/270/68 100/271/68
f 90/269/68 100/271/68 94/272/68
f 92/273/69 97/274/69 98/275/69
f 92/273/69 98/275/69 91/276/69
f 91/277/70 98/278/70 99/279/70
f 91/277/70 99/279/70 95/280/70
f 95/281/71 99/282/71 100/283/71
f 95/281/71 100/283/71 96/284/71
f 96/285/72 100/286/72 97/287/72
f 96/285/72 97/287/72 92/288/72
f 101/289/73 110/290/73 109/291/73
f 101/289/73 109/291/73 102/292/73
f 106/293/74 112/294/74 111/295/74
f 106/293/74 111/295/74 105/296/74
f 101/297/75 102/298/75 106/299/75
f 101/297/75 106/299/75 105/300/75
f 104/301/76 103/302/76 107/303/76
f 104/301/76 107/303/76 108/304/76
f 105/305/77 111/306/77 110/307/77
f 105/305/77 110/307/77 101/308/77
f 102/309/78 109/310/78 112/311/78
f 102/309/78 112/311/78 106/312/78
f 104/313/79 109/314/79 110/315/79
f 104/313/79 110/315/79 103/316/79
f 103/317/80 110/318/80 111/319/80
f 103/317/80 111/319/80 107/320/80
f 107/321/81 111/322/81 112/323/81
f 107/321/81 112/323/81 108/324/81
f 108/325/82 112/326/82 109/327/82
f 108/325/82 109/327/82 104/328/82
f 116/329/83 114/330/83 113/331/83
f 116/329/83 113/331/83 115/332/83
f 119/333/84 117/334/84 118/335/84
f 119/333/84 118/335/84 120/336/84
f 116/337/85 115/338/85 119/339/85
f 116/337/85 119/339/85 120/340/85
f 115/341/86 113/342/86 117/343/86
f 115/341/86 117/343/86 119/344/86
f 120/345/87 118/346/87 114/347/87
f 120/345/87 114/347/87 116/348/87
f 124/349/88 122/350/88 121/351/88
f 124/349/88 121/351/88 123/352/88
f 127/353/89 125/354/89 126/355/89
f 127/353/89 126/355/89 128/356/89
f 124/357/90 123/358/90 127/359/90
f 124/357/90 127/359/90 128/360/90
f 123/361/91 121/362/91 125/363/91
f 123/361/91 125/363/91 127/364/91
f 128/365/92 126/366/92 122/367/92
f 128/365/92 122/367/92 124/368/92
f 114/369/93 104/370/93 103/371/93
f 114/369/93 103/371/93 121/372/93
f 125/373/94 107/374/94 108/375/94
f 125/373/94 108/375/94 118/376/94
f 103/377/95 104/378/95 108/379/95
f 103/377/95 108/379/95 107/380/95
f 121/381/96 103/382/96 107/383/96
f 121/381/96 107/383/96 125/384/96
f 118/385/97 108/386/97 104/387/97
f 118/385/97 104/387/97 114/388/97
f 132/389/98 130/390/98 129/391/98
f 132/389/98 129/391/98 131/392/98
f 135/393/99 133/394/99 134/395/99
f 135/393/99 134/395/99 136/396/99
f 132/397/100 131/398/100 135/399/100
f 132/397/100 135/399/100 136/400/100
f 131/401/101 129/402/101 133/403/101
f 131/401/101 133/403/101 135/404/101
f 136/405/102 134/406/102 130/407/102
f 136/405/102 130/407/102 132/408/102
f 140/409/103 138/410/103 137/411/103
f 140/409/103 137/411/103 139/412/103
f 143/413/104 141/414/104 142/415/104
f 143/413/104 142/415/104 144/416/104
f 140/417/105 139/418/105 143/419/105
f 140/417/105 143/419/105 144/420/105
f 139/421/106 137/422/106 141/423/106
f 139/421/106 141/423/106 143/424/106
f 144/425/107 142/426/107 138/427/107
f 144/425/107 138/427/107 140/428/107
f 130/429/108 92/430/108 91/431/108
f 130/429/108 91/431/108 137/432/108
f 141/433/109 95/434/109 96/435/109
f 141/433/109 96/435/109 134/436/109
f 91/437/110 92/438/110 96/439/110
f 91/437/110 96/439/110 95/440/110
f 137/441/111 91/442/111 95/443/111
f 137/441/111 95/443/111 141/444/111
f 134/445/112 96/446/112 92/447/112
f 134/445/112 92/447/112 130/448/112
o upper
v 0.46875 1.9375 0.53125
v 0.53125 1.9375 0.53125
v 0.53125 1.9375 0.46875
v 0.46875 1.9375 0.46875
v 0.46875 1.375 0.46875
v 0.53125 1.375 0.46875
v 0.53125 1.375 0.53125
v 0.46875 1.375 0.53125
v 0.5625 1.40625 0.5625
v 0.5625 1.40625 0.4375
v 0.5625 1.28125 0.5625
v 0.5625 1.28125 0.4375
v 0.4375 1.40625 0.5625
v 0.4375 1.40625 0.4375
v 0.4375 1.28125 0.5625
v 0.4375 1.28125 0.4375
v 0.534375 2.75 0.59375
v 0.534375 2.75 0.40625
v 0.534375 2.5625 0.59375
v 0.534375 2.5625 0.40625
v 0.465625 2.75 0.59375
v 0.465625 2.75 0.40625
v 0.465625 2.5625 0.59375
v 0.465625 2.5625 0.40625
v 0.59375 1.90625 0.46875
v 0.59375 1.90625 0.28125
v 0.59375 1.53125 0.46875
v 0.59375 1.53125 0.28125
v 0.40625 1.90625 0.46875
v 0.40625 1.90625 0.28125
v 0.40625 1.53125 0.46875
v 0.40625 1.53125 0.28125
v 0.5625 2.21875 0.40625
v 0.5625 2.21875 0.375
v 0.5625 2.15625 0.40625
v 0.5625 2.15625 0.34375
v 0.4375 2.21875 0.40625
v 0.4375 2.21875 0.375
v 0.4375 2.15625 0.40625
v 0.4375 2.15625 0.34375
v 0.5625 1.90625 0.40625
v 0.5625 1.90625 0.34375
v 0.4375 1.90625 0.40625
v 0.4375 1.90625 0.34375
v 0.59375 1.84375 0.59375
v 0.59375 1.84375 0.46875
v 0.59375 1.78125 0.59375
v 0.59375 1.78125 0.46875
v 0.40625 1.84375 0.59375
v 0.40625 1.84375 0.46875
v 0.40625 1.78125 0.59375
v 0.40625 1.78125 0.46875
v 0.59375 1.71875 0.59375
v 0.59375 1.71875 0.46875
v 0.59375 1.65625 0.59375
v 0.59375 1.65625 0.46875
v 0.40625 1.71875 0.59375
v 0.40625 1.71875 0.46875
v 0.40625 1.65625 0.59375
v 0.40625 1.65625 0.46875
v 0.65625 2.75 0.59375
v 0.65625 2.75 0.40625
v 0.65625 2.5625 0.59375
v 0.65625 2.5625 0.40625
v 0.59375 2.75 0.59375
v 0.59375 2.75 0.40625
v 0.59375 2.5625 0.59375
v 0.59375 2.5625 0.40625
v 0.65625 2.5625 0.5625
v 0.65625 2.5625 0.4375
v 0.65625 2.125 0.5625
v 0.65625 2.125 0.4375
v 0.59375 2.5625 0.5625
v 0.59375 2.5625 0.4375
v 0.59375 2.125 0.5625
v 0.59375 2.125 0.4375
v 0.40625 2.5625 0.5625
v 0.40625 2.5625 0.4375
v 0.40625 2.125 0.5625
v 0.40625 2.125 0.4375
v 0.34375 2.5625 0.5625
v 0.34375 2.5625 0.4375
v 0.34375 2.125 0.5625
v 0.34375 2.125 0.4375
v 0.40625 2.75 0.59375
v 0.40625 2.75 0.40625
v 0.40625 2.5625 0.59375
v 0.40625 2.5625 0.40625
v 0.34375 2.75 0.59375
v 0.34375 2.75 0.40625
v 0.34375 2.5625 0.59375
v 0.34375 2.5625 0.40625
v 0.59375 2.25 0.59375
v 0.59375 2.25 0.40625
v 0.59375 2.0625 0.59375
v 0.59375 2.0625 0.40625
v 0.40625 2.25 0.59375
v 0.40625 2.25 0.40625
v 0.40625 2.0625 0.59375
v 0.40625 2.0625 0.40625
v 0.5625 2.0625 0.5625
v 0.5625 2.0625 0.4375
v 0.5625 1.9375 0.5625
v 0.5625 1.9375 0.4375
v 0.4375 2.0625 0.5625
v 0.4375 2.0625 0.4375
v 0.4375 1.9375 0.5625
v 0.4375 1.9375 0.4375
vt 1 0.375
vt 0.9375 0.375
vt 0.9375 0.4375
vt 1 0.4375
vt 0.4375 0.5
vt 0.5 0.5
vt 0.5 0
vt 0.4375 0
vt 0.4375 0.5
vt 0.5 0.5
vt 0.5 0.1875
vt 0.4375 0.1875
vt 0.4375 0.5
vt 0.5 0.5
vt 0.5 0
vt 0.4375 0
vt 0.4375 0.5
vt 0.5 0.5
vt 0.5 0
vt 0.4375 0
vt 0.625 1
vt 0.625 0.875
vt 0.5 0.875
vt 0.5 1
vt 0.625 1
vt 0.625 0.875
vt 0.5 0.875
vt 0.5 1
vt 0.625 0.875
vt 0.625 1
vt 0.5 1
vt 0.5 0.875
vt 0.5 1
vt 0.5 0.875
vt 0.625 0.875
vt 0.625 1
vt 0.625 0.625
vt 0.625 0.8125
vt 0.8125 0.8125
vt 0.8125 0.625
vt 0.8125 0.625
vt 0.8125 0.8125
vt 0.625 0.8125
vt 0.625 0.625
vt 0.8125 0.8125
vt 0.625 0.8125
vt 0.625 0.75
vt 0.8125 0.75
vt 0.625 0.6875
vt 0.8125 0.6875
vt 0.8125 0.625
vt 0.625 0.625
vt 0.8125 0.625
vt 0.8125 0.8125
vt 0.75 0.8125
vt 0.75 0.625
vt 0.6875 0.625
vt 0.6875 0.8125
vt 0.625 0.8125
vt 0.625 0.625
vt 0.5 0.5625
vt 0.125 0.5625
vt 0.125 0.75
vt 0.5 0.75
vt 0.5 0.5625
vt 0.125 0.5625
vt 0.125 0.75
vt 0.5 0.75
vt 1 0.9375
vt 1 0.75
vt 0.8125 0.75
vt 0.8125 0.9375
vt 1 0.75
vt 1 0.9375
vt 0.8125 0.9375
vt 0.8125 0.75
vt 0.5 0.75
vt 0.125 0.75
vt 0.125 0.5625
vt 0.5 0.5625
vt 0.5 0.75
vt 0.125 0.75
vt 0.125 0.5625
vt 0.5 0.5625
vt 0.625 0.5625
vt 0.625 0.625
vt 0.5625 0.625
vt 0.5625 0.5625
vt 0.6875 0.5625
vt 0.6875 0.625
vt 0.625 0.625
vt 0.625 0.5625
vt 0.5625 0.5625
vt 0.5625 0.625
vt 0.6875 0.625
vt 0.6875 0.5625
vt 0.6875 0.5625
vt 0.6875 0.625
vt 0.5625 0.625
vt 0.5625 0.5625
vt 0.6875 0.0625
vt 0.6875 0.3125
vt 0.625 0.3125
vt 0.625 0.0625
vt 0.625 0.0625
vt 0.625 0.3125
vt 0.5625 0.3125
vt 0.5625 0.0625
vt 0.5625 0.0625
vt 0.5625 0.3125
vt 0.6875 0.3125
vt 0.6875 0.0625
vt 0.6875 0.0625
vt 0.6875 0.3125
vt 0.5625 0.3125
vt 0.5625 0.0625
vt 0.6875 1
vt 0.625 1
vt 0.625 0.875
vt 0.6875 0.875
vt 0.5625 0.875
vt 0.5 0.875
vt 0.5 1
vt 0.5625 1
vt 0.6875 0.875
vt 0.6875 1
vt 0.5 1
vt 0.5 0.875
vt 0.5 0.875
vt 0.5 1
vt 0.6875 1
vt 0.6875 0.875
vt 0.6875 0.875
vt 0.6875 0.9375
vt 0.5 0.9375
vt 0.5 0.875
vt 0.6875 1
vt 0.625 1
vt 0.625 0.875
vt 0.6875 0.875
vt 0.5625 0.875
vt 0.5 0.875
vt 0.5 1
vt 0.5625 1
vt 0.6875 0.875
vt 0.6875 1
vt 0.5 1
vt 0.5 0.875
vt 0.5 0.875
vt 0.5 1
vt 0.6875 1
vt 0.6875 0.875
vt 0.6875 0.875
vt 0.6875 0.9375
vt 0.5 0.9375
vt 0.5 0.875
vt 0.625 0.625
vt 0.625 0.8125
vt 0.8125 0.8125
vt 0.8125 0.625
vt 0.8125 0.625
vt 0.8125 0.8125
vt 0.625 0.8125
vt 0.625 0.625
vt 0.8125 0.8125
vt 0.625 0.8125
vt 0.625 0.75
vt 0.8125 0.75
vt 0.625 0.6875
vt 0.8125 0.6875
vt 0.8125 0.625
vt 0.625 0.625
vt 0.8125 0.625
vt 0.8125 0.8125
vt 0.75 0.8125
vt 0.75 0.625
vt 0.6875 0.625
vt 0.6875 0.8125
vt 0.625 0.8125
vt 0.625 0.625
vt 0.5 0
vt 0.5 0.4375
vt 0.375 0.4375
vt 0.375 0
vt 0.375 0
vt 0.375 0.4375
vt 0.5 0.4375
vt 0.5 0
vt 0.5 0.0625
vt 0.375 0.0625
vt 0.375 0
vt 0.5 0
vt 0.4375 0
vt 0.4375 0.4375
vt 0.375 0.4375
vt 0.375 0
vt 0.5 0
vt 0.5 0.4375
vt 0.4375 0.4375
vt 0.4375 0
vt 0.5 0
vt 0.5 0.4375
vt 0.375 0.4375
vt 0.375 0
vt 0.375 0
vt 0.375 0.4375
vt 0.5 0.4375
vt 0.5 0
vt 0.5 0.0625
vt 0.375 0.0625
vt 0.375 0
vt 0.5 0
vt 0.4375 0
vt 0.4375 0.4375
vt 0.375 0.4375
vt 0.375 0
vt 0.5 0
vt 0.5 0.4375
vt 0.4375 0.4375
vt 0.4375 0
vt 0.625 0.625
vt 0.625 0.8125
vt 0.8125 0.8125
vt 0.8125 0.625
vt 0.8125 0.625
vt 0.8125 0.8125
vt 0.625 0.8125
vt 0.625 0.625
vt 0.8125 0.8125
vt 0.625 0.8125
vt 0.625 0.75
vt 0.8125 0.75
vt 0.625 0.6875
vt 0.8125 0.6875
vt 0.8125 0.625
vt 0.625 0.625
vt 0.8125 0.625
vt 0.8125 0.8125
vt 0.75 0.8125
vt 0.75 0.625
vt 0.6875 0.625
vt 0.6875 0.8125
vt 0.625 0.8125
vt 0.625 0.625
vt 0.8125 0.75
vt 0.8125 0.5625
vt 0.625 0.5625
vt 0.625 0.75
vt 0.8125 0.75
vt 0.8125 0.5625
vt 0.625 0.5625
vt 0.625 0.75
vt 1 0.75
vt 1 0.5625
vt 0.8125 0.5625
vt 0.8125 0.75
vt 1 0.75
vt 1 0.5625
vt 0.8125 0.5625
vt 0.8125 0.75
vt 0.8125 0.75
vt 0.8125 0.5625
vt 0.625 0.5625
vt 0.625 0.75
vt 0.8125 0.75
vt 0.8125 0.5625
vt 0.625 0.5625
vt 0.625 0.75
vt 0.625 0.625
vt 0.625 0.75
vt 0.5 0.75
vt 0.5 0.625
vt 0.625 0.625
vt 0.625 0.75
vt 0.5 0.75
vt 0.5 0.625
vt 0.625 0.625
vt 0.625 0.75
vt 0.5 0.75
vt 0.5 0.625
vt 0.5 0.625
vt 0.5 0.75
vt 0.625 0.75
vt 0.625 0.625
vt 0.5 0.625
vt 0.5 0.75
vt 0.625 0.75
vt 0.625 0.625
vn 0 -1 0
vn 0 0 1
vn 0 0 -1
vn 1 0 0
vn -1 0 0
vn 0 1 0
vn 0 -1 0
vn 0 0 1
vn 0 0 -1
vn 1 0 0
vn -1 0 0
vn 0 1 0
vn 0 -1 0
vn 0 0 1
vn 0 0 -1
vn 1 0 0
vn -1 0 0
vn 0 1 0
vn 0 -1 0
vn 0 0 1
vn 0 0 -1
vn 1 0 0
vn -1 0 0
vn 0 1 0
vn 0 0.44721359549995804 -0.8944271909999161
vn 1 0 0
vn -1 0 0
vn 0 0 1
vn 0 0 -1
vn 1 0 0
vn -1 0 0
vn 0 1 0
vn 0 -1 0
vn 0 0 1
vn 1 0 0
vn -1 0 0
vn 0 1 0
vn 0 -1 0
vn 0 0 1
vn 1 0 0
vn -1 0 0
vn 0 1 0
vn 0 -1 0
vn 0 0 1
vn 0 0 -1
vn 1 0 0
vn -1 0 0
vn 0 -1 0
vn 0 0 1
vn 0 0 -1
vn 1 0 0
vn -1 0 0
vn 0 -1 0
vn 0 0 1
vn 0 0 -1
vn 1 0 0
vn -1 0 0
vn 0 1 0
vn 0 -1 0
vn 0 0 1
vn 0 0 -1
vn 1 0 0
vn -1 0 0
vn 0 1 0
vn 0 -1 0
vn 0 0 1
vn 0 0 -1
vn 1 0 0
vn -1 0 0
vn 0 -1 0
vn 0 0 1
vn 0 0 -1
usemtl advanced_inserter
f 149/449/113 150/450/113 151/451/113
f 149/449/113 151/451/113 152/452/113
f 146/453/114 145/454/114 152/455/114
f 146/453/114 152/455/114 151/456/114
f 148/457/115 147/458/115 150/459/115
f 148/457/115 150/459/115 149/460/115
f 147/461/116 146/462/116 151/463/116
f 147/461/116 151/463/116 150/464/116
f 145/465/117 148/466/117 149/467/117
f 145/465/117 149/467/117 152/468/117
f 153/469/118 154/470/118 158/471/118
f 153/469/118 158/471/118 157/472/118
f 156/473/119 155/474/119 159/475/119
f 156/473/119 159/475/119 160/476/119
f 155/477/120 153/478/120 157/479/120
f 155/477/120 157/479/120 159/480/120
f 160/481/121 158/482/121 154/483/121
f 160/481/121 154/483/121 156/484/121
f 164/485/122 162/486/122 161/487/122
f 164/485/122 161/487/122 163/488/122
f 167/489/123 165/490/123 166/491/123
f 167/489/123 166/491/123 168/492/123
f 161/493/124 162/494/124 166/495/124
f 161/493/124 166/495/124 165/496/124
f 164/497/125 163/498/125 167/499/125
f 164/497/125 167/499/125 168/500/125
f 163/501/126 161/502/126 165/503/126
f 163/501/126 165/503/126 167/504/126
f 168/505/127 166/506/127 162/507/127
f 168/505/127 162/507/127 164/508/127
usemtl tool_red
f 172/509/128 170/510/128 169/511/128
f 172/509/128 169/511/128 171/512/128
f 175/513/129 173/514/129 174/515/129
f 175/513/129 174/515/129 176/516/129
f 169/517/130 170/518/130 174/519/130
f 169/517/130 174/519/130 173/520/130
f 172/521/131 171/522/131 175/523/131
f 172/521/131 175/523/131 176/524/131
f 171/525/132 169/526/132 173/527/132
f 171/525/132 173/527/132 175/528/132
f 176/529/133 174/530/133 170/531/133
f 176/529/133 170/531/133 172/532/133
usemtl common_copper_cable
f 180/533/134 178/534/134 177/535/134
f 180/533/134 177/535/134 179/536/134
f 183/537/135 181/538/135 182/539/135
f 183/537/135 182/539/135 184/540/135
f 177/541/136 178/542/136 182/543/136
f 177/541/136 182/543/136 181/544/136
f 184/545/137 182/546/137 178/547/137
f 184/545/137 178/547/137 180/548/137
f 186/549/138 180/550/138 179/551/138
f 186/549/138 179/551/138 185/552/138
f 187/553/139 183/554/139 184/555/139
f 187/553/139 184/555/139 188/556/139
f 185/557/140 179/558/140 183/559/140
f 185/557/140 183/559/140 187/560/140
f 188/561/141 184/562/141 180/563/141
f 188/561/141 180/563/141 186/564/141
usemtl tool_red
f 192/565/142 190/566/142 189/567/142
f 192/565/142 189/567/142 191/568/142
f 195/569/143 193/570/143 194/571/143
f 195/569/143 194/571/143 196/572/143
f 189/573/144 190/574/144 194/575/144
f 189/573/144 194/575/144 193/576/144
f 192/577/145 191/578/145 195/579/145
f 192/577/145 195/579/145 196/580/145
f 191/581/146 189/582/146 193/583/146
f 191/581/146 193/583/146 195/584/146
f 200/585/147 198/586/147 197/587/147
f 200/585/147 197/587/147 199/588/147
f 203/589/148 201/590/148 202/591/148
f 203/589/148 202/591/148 204/592/148
f 197/593/149 198/594/149 202/595/149
f 197/593/149 202/595/149 201/596/149
f 200/597/150 199/598/150 203/599/150
f 200/597/150 203/599/150 204/600/150
f 199/601/151 197/602/151 201/603/151
f 199/601/151 201/603/151 203/604/151
usemtl advanced_inserter
f 208/605/152 206/606/152 205/607/152
f 208/605/152 205/607/152 207/608/152
f 211/609/153 209/610/153 210/611/153
f 211/609/153 210/611/153 212/612/153
f 205/613/154 206/614/154 210/615/154
f 205/613/154 210/615/154 209/616/154
f 208/617/155 207/618/155 211/619/155
f 208/617/155 211/619/155 212/620/155
f 207/621/156 205/622/156 209/623/156
f 207/621/156 209/623/156 211/624/156
f 212/625/157 210/626/157 206/627/157
f 212/625/157 206/627/157 208/628/157
f 216/629/158 214/630/158 213/631/158
f 216/629/158 213/631/158 215/632/158
f 219/633/159 217/634/159 218/635/159
f 219/633/159 218/635/159 220/636/159
f 216/637/160 215/638/160 219/639/160
f 216/637/160 219/639/160 220/640/160
f 215/641/161 213/642/161 217/643/161
f 215/641/161 217/643/161 219/644/161
f 220/645/162 218/646/162 214/647/162
f 220/645/162 214/647/162 216/648/162
f 224/649/163 222/650/163 221/651/163
f 224/649/163 221/651/163 223/652/163
f 227/653/164 225/654/164 226/655/164
f 227/653/164 226/655/164 228/656/164
f 224/657/165 223/658/165 227/659/165
f 224/657/165 227/659/165 228/660/165
f 223/661/166 221/662/166 225/663/166
f 223/661/166 225/663/166 227/664/166
f 228/665/167 226/666/167 222/667/167
f 228/665/167 222/667/167 224/668/167
f 232/669/168 230/670/168 229/671/168
f 232/669/168 229/671/168 231/672/168
f 235/673/169 233/674/169 234/675/169
f 235/673/169 234/675/169 236/676/169
f 229/677/170 230/678/170 234/679/170
f 229/677/170 234/679/170 233/680/170
f 232/681/171 231/682/171 235/683/171
f 232/681/171 235/683/171 236/684/171
f 231/685/172 229/686/172 233/687/172
f 231/685/172 233/687/172 235/688/172
f 236/689/173 234/690/173 230/691/173
f 236/689/173 230/691/173 232/692/173
usemtl tool_red
f 240/693/174 238/694/174 237/695/174
f 240/693/174 237/695/174 239/696/174
f 243/697/175 241/698/175 242/699/175
f 243/697/175 242/699/175 244/700/175
f 237/701/176 238/702/176 242/703/176
f 237/701/176 242/703/176 241/704/176
f 240/705/177 239/706/177 243/707/177
f 240/705/177 243/707/177 244/708/177
f 239/709/178 237/710/178 241/711/178
f 239/709/178 241/711/178 243/712/178
f 244/713/179 242/714/179 238/715/179
f 244/713/179 238/715/179 240/716/179
f 248/717/180 246/718/180 245/719/180
f 248/717/180 245/719/180 247/720/180
f 251/721/181 249/722/181 250/723/181
f 251/721/181 250/723/181 252/724/181
f 248/725/182 247/726/182 251/727/182
f 248/725/182 251/727/182 252/728/182
f 247/729/183 245/730/183 249/731/183
f 247/729/183 249/731/183 251/732/183
f 252/733/184 250/734/184 246/735/184
f 252/733/184 246/735/184 248/736/184
o saw
v 0.53125 3.03125 0.640625
v 0.53125 3.03125 0.359375
v 0.53125 2.28125 0.640625
v 0.53125 2.28125 0.359375
v 0.46875 3.03125 0.640625
v 0.46875 3.03125 0.359375
v 0.46875 2.28125 0.640625
v 0.46875 2.28125 0.359375
v 0.53125 2.984375 0.359375
v 0.53125 2.984375 0.265625
v 0.53125 2.328125 0.359375
v 0.53125 2.328125 0.265625
v 0.46875 2.984375 0.359375
v 0.46875 2.984375 0.265625
v 0.46875 2.328125 0.359375
v 0.46875 2.328125 0.265625
v 0.53125 2.9375 0.265625
v 0.53125 2.9375 0.21875
v 0.53125 2.375 0.265625
v 0.53125 2.375 0.21875
v 0.46875 2.9375 0.265625
v 0.46875 2.9375 0.21875
v 0.46875 2.375 0.265625
v 0.46875 2.375 0.21875
v 0.53125 2.890625 0.21875
v 0.53125 2.890625 0.171875
v 0.53125 2.421875 0.21875
v 0.53125 2.421875 0.171875
v 0.46875 2.890625 0.21875
v 0.46875 2.890625 0.171875
v 0.46875 2.421875 0.21875
v 0.46875 2.421875 0.171875
v 0.53125 2.796875 0.171875
v 0.53125 2.796875 0.125
v 0.53125 2.515625 0.171875
v 0.53125 2.515625 0.125
v 0.46875 2.796875 0.171875
v 0.46875 2.796875 0.125
v 0.46875 2.515625 0.171875
v 0.46875 2.515625 0.125
v 0.53125 2.984375 0.640625
v 0.53125 2.984375 0.734375
v 0.53125 2.328125 0.640625
v 0.53125 2.328125 0.734375
v 0.46875 2.984375 0.640625
v 0.46875 2.984375 0.734375
v 0.46875 2.328125 0.640625
v 0.46875 2.328125 0.734375
v 0.53125 2.9375 0.734375
v 0.53125 2.9375 0.78125
v 0.53125 2.375 0.734375
v 0.53125 2.375 0.78125
v 0.46875 2.9375 0.734375
v 0.46875 2.9375 0.78125
v 0.46875 2.375 0.734375
v 0.46875 2.375 0.78125
v 0.53125 2.890625 0.78125
v 0.53125 2.890625 0.828125
v 0.53125 2.421875 0.78125
v 0.53125 2.421875 0.828125
v 0.46875 2.890625 0.78125
v 0.46875 2.890625 0.828125
v 0.46875 2.421875 0.78125
v 0.46875 2.421875 0.828125
v 0.53125 2.796875 0.828125
v 0.53125 2.796875 0.875
v 0.53125 2.515625 0.828125
v 0.53125 2.515625 0.875
v 0.46875 2.796875 0.828125
v 0.46875 2.796875 0.875
v 0.46875 2.515625 0.828125
v 0.46875 2.515625 0.875
v 0.59375 2.71875 0.5625
v 0.59375 2.71875 0.4375
v 0.59375 2.59375 0.5625
v 0.59375 2.59375 0.4375
v 0.40625 2.71875 0.5625
v 0.40625 2.71875 0.4375
v 0.40625 2.59375 0.5625
v 0.40625 2.59375 0.4375
vt 0.3125 0
vt 0.3125 1
vt 0.6875 1
vt 0.6875 0
vt 0.6875 0
vt 0.6875 1
vt 0.3125 1
vt 0.3125 0
vt 0.6875 1
vt 0.3125 1
vt 0.3125 0.9375
vt 0.6875 0.9375
vt 0.3125 0.0625
vt 0.6875 0.0625
vt 0.6875 0
vt 0.3125 0
vt 0.1875 0.0625
vt 0.1875 0.9375
vt 0.3125 0.9375
vt 0.3125 0.0625
vt 0.3125 0.0625
vt 0.3125 0.9375
vt 0.1875 0.9375
vt 0.1875 0.0625
vt 0.3125 0.9375
vt 0.1875 0.9375
vt 0.1875 0.875
vt 0.3125 0.875
vt 0.3125 0.125
vt 0.1875 0.125
vt 0.1875 0.0625
vt 0.3125 0.0625
vt 0.125 0.125
vt 0.125 0.875
vt 0.1875 0.875
vt 0.1875 0.125
vt 0.1875 0.125
vt 0.1875 0.875
vt 0.125 0.875
vt 0.125 0.125
vt 0.1875 0.875
vt 0.125 0.875
vt 0.125 0.8125
vt 0.1875 0.8125
vt 0.1875 0.1875
vt 0.125 0.1875
vt 0.125 0.125
vt 0.1875 0.125
vt 0.0625 0.1875
vt 0.0625 0.8125
vt 0.125 0.8125
vt 0.125 0.1875
vt 0.125 0.1875
vt 0.125 0.8125
vt 0.0625 0.8125
vt 0.0625 0.1875
vt 0.125 0.8125
vt 0.0625 0.8125
vt 0.0625 0.75
vt 0.125 0.75
vt 0.125 0.25
vt 0.0625 0.25
vt 0.0625 0.1875
vt 0.125 0.1875
vt 0 0.3125
vt 0 0.6875
vt 0.0625 0.6875
vt 0.0625 0.3125
vt 0.0625 0.3125
vt 0.0625 0.6875
vt 0 0.6875
vt 0 0.3125
vt 0.0625 0.6875
vt 0 0.6875
vt 0 0.625
vt 0.0625 0.625
vt 0.0625 0.375
vt 0 0.375
vt 0 0.3125
vt 0.0625 0.3125
vt 0 0.3125
vt 0.0625 0.3125
vt 0.0625 0.6875
vt 0 0.6875
vt 0.0625 0.8125
vt 0.0625 0.6875
vt 0.125 0.6875
vt 0.125 0.8125
vt 0.0625 0.1875
vt 0.0625 0.3125
vt 0.125 0.3125
vt 0.125 0.1875
vt 0.1875 0.125
vt 0.1875 0.1875
vt 0.125 0.1875
vt 0.125 0.125
vt 0.1875 0.8125
vt 0.1875 0.875
vt 0.125 0.875
vt 0.125 0.8125
vt 0.25 0.875
vt 0.25 0.9375
vt 0.1875 0.9375
vt 0.1875 0.875
vt 0.25 0.0625
vt 0.25 0.125
vt 0.1875 0.125
vt 0.1875 0.0625
vt 0.6875 0.9375
vt 0.8125 0.9375
vt 0.8125 0.0625
vt 0.6875 0.0625
vt 0.8125 0.9375
vt 0.6875 0.9375
vt 0.6875 0.0625
vt 0.8125 0.0625
vt 0.8125 0.875
vt 0.8125 0.9375
vt 0.6875 0.9375
vt 0.6875 0.875
vt 0.6875 0.0625
vt 0.6875 0.125
vt 0.8125 0.125
vt 0.8125 0.0625
vt 0.875 0.875
vt 0.8125 0.875
vt 0.8125 0.125
vt 0.875 0.125
vt 0.8125 0.875
vt 0.875 0.875
vt 0.875 0.125
vt 0.8125 0.125
vt 0.8125 0.8125
vt 0.8125 0.875
vt 0.875 0.875
vt 0.875 0.8125
vt 0.8125 0.125
vt 0.8125 0.1875
vt 0.875 0.1875
vt 0.875 0.125
vt 0.9375 0.8125
vt 0.875 0.8125
vt 0.875 0.1875
vt 0.9375 0.1875
vt 0.875 0.8125
vt 0.9375 0.8125
vt 0.9375 0.1875
vt 0.875 0.1875
vt 0.875 0.75
vt 0.875 0.8125
vt 0.9375 0.8125
vt 0.9375 0.75
vt 0.875 0.1875
vt 0.875 0.25
vt 0.9375 0.25
vt 0.9375 0.1875
vt 1 0.6875
vt 0.9375 0.6875
vt 0.9375 0.3125
vt 1 0.3125
vt 0.9375 0.6875
vt 1 0.6875
vt 1 0.3125
vt 0.9375 0.3125
vt 0.9375 0.625
vt 0.9375 0.6875
vt 1 0.6875
vt 1 0.625
vt 0.9375 0.3125
vt 0.9375 0.375
vt 1 0.375
vt 1 0.3125
vt 0.8125 0.875
vt 0.8125 0.9375
vt 0.75 0.9375
vt 0.75 0.875
vt 0.875 0.8125
vt 0.875 0.875
vt 0.8125 0.875
vt 0.8125 0.8125
vt 0.8125 0.0625
vt 0.8125 0.125
vt 0.75 0.125
vt 0.75 0.0625
vt 0.875 0.125
vt 0.875 0.1875
vt 0.8125 0.1875
vt 0.8125 0.125
vt 0.6875 0.9375
vt 0.6875 1
vt 0.625 1
vt 0.625 0.9375
vt 0.375 0.9375
vt 0.375 1
vt 0.3125 1
vt 0.3125 0.9375
vt 0.375 0
vt 0.375 0.0625
vt 0.3125 0.0625
vt 0.3125 0
vt 0.875 0.8125
vt 0.875 0.6875
vt 0.9375 0.6875
vt 0.9375 0.8125
vt 1 0.3125
vt 1 0.6875
vt 0.9375 0.6875
vt 0.9375 0.3125
vt 0.875 0.1875
vt 0.875 0.3125
vt 0.9375 0.3125
vt 0.9375 0.1875
vt 0.6875 0
vt 0.6875 0.0625
vt 0.625 0.0625
vt 0.625 0
vt 0.5 0.4375
vt 0.5 0.5625
vt 0.6875 0.5625
vt 0.6875 0.4375
vt 0.5 0.4375
vt 0.5 0.5625
vt 0.6875 0.5625
vt 0.6875 0.4375
vt 0.5 0.5625
vt 0.5 0.4375
vt 0.6875 0.4375
vt 0.6875 0.5625
vt 0.6875 0.4375
vt 0.6875 0.5625
vt 0.5 0.5625
vt 0.5 0.4375
vn 1 0 0
vn -1 0 0
vn 0 1 0
vn 0 -1 0
vn 1 0 0
vn -1 0 0
vn 0 1 0
vn 0 -1 0
vn 1 0 0
vn -1 0 0
vn 0 1 0
vn 0 -1 0
vn 1 0 0
vn -1 0 0
vn 0 1 0
vn 0 -1 0
vn 1 0 0
vn -1 0 0
vn 0 1 0
vn 0 -1 0
vn 0 0 -1
vn 0 0 -1
vn 0 0 -1
vn 0 0 -1
vn 0 0 -1
vn 0 0 -1
vn 0 0 -1
vn 1 0 0
vn -1 0 0
vn 0 1 0
vn 0 -1 0
vn 1 0 0
vn -1 0 0
vn 0 1 0
vn 0 -1 0
vn 1 0 0
vn -1 0 0
vn 0 1 0
vn 0 -1 0
vn 1 0 0
vn -1 0 0
vn 0 1 0
vn 0 -1 0
vn 0 0 1
vn 0 0 1
vn 0 0 1
vn 0 0 1
vn 0 0 1
vn 0 0 -1
vn 0 0 -1
vn 0 0 1
vn 0 0 1
vn 0 0 1
vn 0 0 1
vn 0 1 0
vn 0 -1 0
vn 0 0 1
vn 0 0 -1
usemtl buzzsaw
f 256/737/185 254/738/185 253/739/185
f 256/737/185 253/739/185 255/740/185
f 259/741/186 257/742/186 258/743/186
f 259/741/186 258/743/186 260/744/186
f 253/745/187 254/746/187 258/747/187
f 253/745/187 258/747/187 257/748/187
f 256/749/188 255/750/188 259/751/188
f 256/749/188 259/751/188 260/752/188
f 264/753/189 262/754/189 261/755/189
f 264/753/189 261/755/189 263/756/189
f 267/757/190 265/758/190 266/759/190
f 267/757/190 266/759/190 268/760/190
f 261/761/191 262/762/191 266/763/191
f 261/761/191 266/763/191 265/764/191
f 264/765/192 263/766/192 267/767/192
f 264/765/192 267/767/192 268/768/192
f 272/769/193 270/770/193 269/771/193
f 272/769/193 269/771/193 271/772/193
f 275/773/194 273/774/194 274/775/194
f 275/773/194 274/775/194 276/776/194
f 269/777/195 270/778/195 274/779/195
f 269/777/195 274/779/195 273/780/195
f 272/781/196 271/782/196 275/783/196
f 272/781/196 275/783/196 276/784/196
f 280/785/197 278/786/197 277/787/197
f 280/785/197 277/787/197 279/788/197
f 283/789/198 281/790/198 282/791/198
f 283/789/198 282/791/198 284/792/198
f 277/793/199 278/794/199 282/795/199
f 277/793/199 282/795/199 281/796/199
f 280/797/200 279/798/200 283/799/200
f 280/797/200 283/799/200 284/800/200
f 288/801/201 286/802/201 285/803/201
f 288/801/201 285/803/201 287/804/201
f 291/805/202 289/806/202 290/807/202
f 291/805/202 290/807/202 292/808/202
f 285/809/203 286/810/203 290/811/203
f 285/809/203 290/811/203 289/812/203
f 288/813/204 287/814/204 291/815/204
f 288/813/204 291/815/204 292/816/204
f 288/817/205 292/818/205 290/819/205
f 288/817/205 290/819/205 286/820/205
f 278/821/206 285/822/206 289/823/206
f 278/821/206 289/823/206 282/824/206
f 284/825/207 291/826/207 287/827/207
f 284/825/207 287/827/207 280/828/207
f 276/829/208 283/830/208 279/831/208
f 276/829/208 279/831/208 272/832/208
f 270/833/209 277/834/209 281/835/209
f 270/833/209 281/835/209 274/836/209
f 262/837/210 269/838/210 273/839/210
f 262/837/210 273/839/210 266/840/210
f 268/841/211 275/842/211 271/843/211
f 268/841/211 271/843/211 264/844/211
f 293/845/212 294/846/212 296/847/212
f 293/845/212 296/847/212 295/848/212
f 298/849/213 297/850/213 299/851/213
f 298/849/213 299/851/213 300/852/213
f 298/853/214 294/854/214 293/855/214
f 298/853/214 293/855/214 297/856/214
f 299/857/215 295/858/215 296/859/215
f 299/857/215 296/859/215 300/860/215
f 301/861/216 302/862/216 304/863/216
f 301/861/216 304/863/216 303/864/216
f 306/865/217 305/866/217 307/867/217
f 306/865/217 307/867/217 308/868/217
f 306/869/218 302/870/218 301/871/218
f 306/869/218 301/871/218 305/872/218
f 307/873/219 303/874/219 304/875/219
f 307/873/219 304/875/219 308/876/219
f 309/877/220 310/878/220 312/879/220
f 309/877/220 312/879/220 311/880/220
f 314/881/221 313/882/221 315/883/221
f 314/881/221 315/883/221 316/884/221
f 314/885/222 310/886/222 309/887/222
f 314/885/222 309/887/222 313/888/222
f 315/889/223 311/890/223 312/891/223
f 315/889/223 312/891/223 316/892/223
f 317/893/224 318/894/224 320/895/224
f 317/893/224 320/895/224 319/896/224
f 322/897/225 321/898/225 323/899/225
f 322/897/225 323/899/225 324/900/225
f 322/901/226 318/902/226 317/903/226
f 322/901/226 317/903/226 321/904/226
f 323/905/227 319/906/227 320/907/227
f 323/905/227 320/907/227 324/908/227
f 298/909/228 305/910/228 301/911/228
f 298/909/228 301/911/228 294/912/228
f 306/913/229 313/914/229 309/915/229
f 306/913/229 309/915/229 302/916/229
f 307/917/230 300/918/230 296/919/230
f 307/917/230 296/919/230 303/920/230
f 315/921/231 308/922/231 304/923/231
f 315/921/231 304/923/231 311/924/231
f 257/925/232 297/926/232 293/927/232
f 257/925/232 293/927/232 253/928/232
f 254/929/233 261/930/233 265/931/233
f 254/929/233 265/931/233 258/932/233
f 260/933/234 267/934/234 263/935/234
f 260/933/234 263/935/234 256/936/234
f 314/937/235 321/938/235 317/939/235
f 314/937/235 317/939/235 310/940/235
f 320/941/236 318/942/236 322/943/236
f 320/941/236 322/943/236 324/944/236
f 312/945/237 319/946/237 323/947/237
f 312/945/237 323/947/237 316/948/237
f 255/949/238 295/950/238 299/951/238
f 255/949/238 299/951/238 259/952/238
usemtl tool_red
f 325/953/239 326/954/239 330/955/239
f 325/953/239 330/955/239 329/956/239
f 328/957/240 327/958/240 331/959/240
f 328/957/240 331/959/240 332/960/240
f 327/961/241 325/962/241 329/963/241
f 327/961/241 329/963/241 331/964/241
f 332/965/242 330/966/242 326/967/242
f 332/965/242 326/967/242 328/968/242