# Made by Pabilo8 with Blockbench
# Exported with IIToolkit Plugin
mtllib drill.mtl


o inserter
v 0.75 0.375 0.75
v 0.75 0.375 0.25
v 0.75 0.3125 0.75
v 0.75 0.3125 0.25
v 0.25 0.375 0.75
v 0.25 0.375 0.25
v 0.25 0.3125 0.75
v 0.25 0.3125 0.25
v 0.625 0.3125 0.625
v 0.625 0.3125 0.375
v 0.625 0.25 0.625
v 0.625 0.25 0.375
v 0.375 0.3125 0.625
v 0.375 0.3125 0.375
v 0.375 0.25 0.625
v 0.375 0.25 0.375
v 0.3125 0.5625 0.625
v 0.3125 0.5625 0.375
v 0.3125 0.375 0.625
v 0.3125 0.375 0.375
v 0.25 0.5625 0.625
v 0.25 0.5625 0.375
v 0.25 0.375 0.625
v 0.25 0.375 0.375
v 0.75 0.5625 0.625
v 0.75 0.5625 0.375
v 0.75 0.375 0.625
v 0.75 0.375 0.375
v 0.6875 0.5625 0.625
v 0.6875 0.5625 0.375
v 0.6875 0.375 0.625
v 0.6875 0.375 0.375
v 0.3125 0.625 0.5625
v 0.3125 0.625 0.4375
v 0.25 0.625 0.5625
v 0.25 0.625 0.4375
v 0.75 0.625 0.5625
v 0.75 0.625 0.4375
v 0.6875 0.625 0.5625
v 0.6875 0.625 0.4375
vt 0.5 1
vt 0.4375 1
vt 0.4375 0.5
vt 0.5 0.5
vt 0.0625 1
vt 0 1
vt 0 0.5
vt 0.0625 0.5
vt 0.5 0.5
vt 0.5 1
vt 0 1
vt 0 0.5
vt 0.5 0.5
vt 0.5 1
vt 0 1
vt 0 0.5
vt 0.5 0.9375
vt 0.5 1
vt 0 1
vt 0 0.9375
vt 0 0.5
vt 0 0.5625
vt 0.5 0.5625
vt 0.5 0.5
vt 0.75 0.4375
vt 0.75 0.5
vt 0.5 0.5
vt 0.5 0.4375
vt 0.75 0.375
vt 0.75 0.4375
vt 0.5 0.4375
vt 0.5 0.375
vt 0.75 0.375
vt 0.75 0.4375
vt 0.5 0.4375
vt 0.5 0.375
vt 0.75 0.4375
vt 0.75 0.5
vt 0.5 0.5
vt 0.5 0.4375
vt 0.375 0.5
vt 0.375 0.6875
vt 0.125 0.6875
vt 0.125 0.5
vt 0.375 0.5
vt 0.375 0.6875
vt 0.125 0.6875
vt 0.125 0.5
vt 0.375 0.5
vt 0.375 0.6875
vt 0.3125 0.6875
vt 0.3125 0.5
vt 0.1875 0.5
vt 0.1875 0.6875
vt 0.125 0.6875
vt 0.125 0.5
vt 0.375 0.5
vt 0.375 0.6875
vt 0.125 0.6875
vt 0.125 0.5
vt 0.375 0.5
vt 0.375 0.6875
vt 0.125 0.6875
vt 0.125 0.5
vt 0.375 0.5
vt 0.375 0.6875
vt 0.3125 0.6875
vt 0.3125 0.5
vt 0.1875 0.5
vt 0.1875 0.6875
vt 0.125 0.6875
vt 0.125 0.5
vt 0.3125 0.5625
vt 0.28125 0.5
vt 0.21875 0.5
vt 0.1875 0.5625
vt 0.1875 0.5625
vt 0.21875 0.5
vt 0.28125 0.5
vt 0.3125 0.5625
vt 0.28125 0.5625
vt 0.21875 0.5625
vt 0.21875 0.5
vt 0.28125 0.5
vt 0.3125 0.5
vt 0.3125 0.5625
vt 0.28125 0.5625
vt 0.28125 0.5
vt 0.21875 0.5
vt 0.21875 0.5625
vt 0.1875 0.5625
vt 0.1875 0.5
vt 0.3125 0.5625
vt 0.28125 0.5
vt 0.21875 0.5
vt 0.1875 0.5625
vt 0.1875 0.5625
vt 0.21875 0.5
vt 0.28125 0.5
vt 0.3125 0.5625
vt 0.28125 0.5625
vt 0.21875 0.5625
vt 0.21875 0.5
vt 0.28125 0.5
vt 0.3125 0.5
vt 0.3125 0.5625
vt 0.28125 0.5625
vt 0.28125 0.5
vt 0.21875 0.5
vt 0.21875 0.5625
vt 0.1875 0.5625
vt 0.1875 0.5
vn 1 0 0
vn -1 0 0
vn 0 1 0
vn 0 -1 0
vn 0 0 1
vn 0 0 -1
vn 1 0 0
vn -1 0 0
vn 0 0 1
vn 0 0 -1
vn 1 0 0
vn -1 0 0
vn 0 0 1
vn 0 0 -1
vn 1 0 0
vn -1 0 0
vn 0 0 1
vn 0 0 -1
vn 1 0 0
vn -1 0 0
vn 0 1 0
vn 0 0.7071067811865476 0.7071067811865476
vn 0 0.7071067811865476 -0.7071067811865476
vn 1 0 0
vn -1 0 0
vn 0 1 0
vn 0 0.7071067811865476 0.7071067811865476
vn 0 0.7071067811865476 -0.7071067811865476
usemtl advanced_inserter
f 4/1/1 2/2/1 1/3/1
f 4/1/1 1/3/1 3/4/1
f 7/5/2 5/6/2 6/7/2
f 7/5/2 6/7/2 8/8/2
f 1/9/3 2/10/3 6/11/3
f 1/9/3 6/11/3 5/12/3
f 4/13/4 3/14/4 7/15/4
f 4/13/4 7/15/4 8/16/4
f 3/17/5 1/18/5 5/19/5
f 3/17/5 5/19/5 7/20/5
f 8/21/6 6/22/6 2/23/6
f 8/21/6 2/23/6 4/24/6
usemtl inserter_base2
f 12/25/7 10/26/7 9/27/7
f 12/25/7 9/27/7 11/28/7
f 15/29/8 13/30/8 14/31/8
f 15/29/8 14/31/8 16/32/8
f 11/33/9 9/34/9 13/35/9
f 11/33/9 13/35/9 15/36/9
f 16/37/10 14/38/10 10/39/10
f 16/37/10 10/39/10 12/40/10
usemtl advanced_inserter
f 20/41/11 18/42/11 17/43/11
f 20/41/11 17/43/11 19/44/11
f 23/45/12 21/46/12 22/47/12
f 23/45/12 22/47/12 24/48/12
f 19/49/13 17/50/13 21/51/13
f 19/49/13 21/51/13 23/52/13
f 24/53/14 22/54/14 18/55/14
f 24/53/14 18/55/14 20/56/14
f 28/57/15 26/58/15 25/59/15
f 28/57/15 25/59/15 27/60/15
f 31/61/16 29/62/16 30/63/16
f 31/61/16 30/63/16 32/64/16
f 27/65/17 25/66/17 29/67/17
f 27/65/17 29/67/17 31/68/17
f 32/69/18 30/70/18 26/71/18
f 32/69/18 26/71/18 28/72/18
f 18/73/19 34/74/19 33/75/19
f 18/73/19 33/75/19 17/76/19
f 21/77/20 35/78/20 36/79/20
f 21/77/20 36/79/20 22/80/20
f 33/81/21 34/82/21 36/83/21
f 33/81/21 36/83/21 35/84/21
f 17/85/22 33/86/22 35/87/22
f 17/85/22 35/87/22 21/88/22
f 22/89/23 36/90/23 34/91/23
f 22/89/23 34/91/23 18/92/23
f 26/93/24 38/94/24 37/95/24
f 26/93/24 37/95/24 25/96/24
f 29/97/25 39/98/25 40/99/25
f 29/97/25 40/99/25 30/100/25
f 37/101/26 38/102/26 40/103/26
f 37/101/26 40/103/26 39/104/26
f 25/105/27 37/106/27 39/107/27
f 25/105/27 39/107/27 29/108/27
f 30/109/28 40/110/28 38/111/28
f 30/109/28 38/111/28 26/112/28
o lower
v 0.459375 1.4375 0.59375
v 0.459375 1.4375 0.40625
v 0.459375 1.25 0.59375
v 0.459375 1.25 0.40625
v 0.271875 1.4375 0.59375
v 0.271875 1.4375 0.40625
v 0.271875 1.25 0.59375
v 0.271875 1.25 0.40625
v 0.540625 1.4375 0.59375
v 0.540625 1.4375 0.40625
v 0.540625 1.25 0.59375
v 0.540625 1.25 0.40625
v 0.728125 1.4375 0.59375
v 0.728125 1.4375 0.40625
v 0.728125 1.25 0.59375
v 0.728125 1.25 0.40625
v 0.6875 0.5625 0.5625
v 0.6875 0.5625 0.4375
v 0.6875 0.4375 0.5625
v 0.6875 0.4375 0.4375
v 0.3125 0.5625 0.5625
v 0.3125 0.5625 0.4375
v 0.3125 0.4375 0.5625
v 0.3125 0.4375 0.4375
v 0.6875 1.1875 0.46875
v 0.6875 1.1875 0.40625
v 0.6875 0.6875 0.46875
v 0.6875 0.6875 0.40625
v 0.3125 1.1875 0.46875
v 0.3125 1.1875 0.40625
v 0.3125 0.6875 0.46875
v 0.3125 0.6875 0.40625
v 0.65625 1.1562499999999996 0.40625
v 0.65625 1.1562499999999996 0.375
v 0.65625 0.96875 0.40625
v 0.65625 0.96875 0.375
v 0.34375 1.1562499999999996 0.40625
v 0.34375 1.1562499999999996 0.375
v 0.34375 0.96875 0.40625
v 0.34375 0.96875 0.375
v 0.65625 0.9374999999999996 0.40625
v 0.65625 0.9374999999999996 0.375
v 0.65625 0.75 0.40625
v 0.65625 0.75 0.375
v 0.34375 0.9374999999999996 0.40625
v 0.34375 0.9374999999999996 0.375
v 0.34375 0.75 0.40625
v 0.34375 0.75 0.375
v 0.65625 1.25 0.546875
v 0.65625 1.25 0.453125
v 0.65625 0.625 0.546875
v 0.65625 0.625 0.45312500000000006
v 0.5625 1.25 0.546875
v 0.5625 1.25 0.453125
v 0.5625 0.625 0.546875
v 0.5625 0.625 0.45312500000000006
v 0.65625 0.9375 0.453125
v 0.65625 0.9375 0.546875
v 0.5625 0.9375 0.546875
v 0.5625 0.9375 0.453125
v 0.4375 1.25 0.546875
v 0.4375 1.25 0.453125
v 0.4375 0.625 0.546875
v 0.4375 0.625 0.45312500000000006
v 0.34375 1.25 0.546875
v 0.34375 1.25 0.453125
v 0.34375 0.625 0.546875
v 0.34375 0.625 0.45312500000000006
v 0.4375 0.9375 0.453125
v 0.4375 0.9375 0.546875
v 0.34375 0.9375 0.546875
v 0.34375 0.9375 0.453125
v 0.4375 0.5625 0.421875
v 0.4375 0.5625 0.359375
v 0.4375 0.4375 0.421875
v 0.4375 0.4375 0.359375
v 0.34375 0.5625 0.421875
v 0.34375 0.5625 0.359375
v 0.34375 0.4375 0.421875
v 0.34375 0.4375 0.359375
v 0.4375 0.5625 0.640625
v 0.4375 0.5625 0.578125
v 0.4375 0.4375 0.640625
v 0.4375 0.4375 0.578125
v 0.34375 0.5625 0.640625
v 0.34375 0.5625 0.578125
v 0.34375 0.4375 0.640625
v 0.34375 0.4375 0.578125
v 0.65625 0.5625 0.421875
v 0.65625 0.5625 0.359375
v 0.65625 0.4375 0.421875
v 0.65625 0.4375 0.359375
v 0.5625 0.5625 0.421875
v 0.5625 0.5625 0.359375
v 0.5625 0.4375 0.421875
v 0.5625 0.4375 0.359375
v 0.65625 0.5625 0.640625
v 0.65625 0.5625 0.578125
v 0.65625 0.4375 0.640625
v 0.65625 0.4375 0.578125
v 0.5625 0.5625 0.640625
v 0.5625 0.5625 0.578125
v 0.5625 0.4375 0.640625
v 0.5625 0.4375 0.578125
vt 0.09375 0.8125
vt 0.09375 1
vt 0 1
vt 0 0.8125
vt 0.8125 0.8125
vt 0.8125 0.625
vt 0.625 0.625
vt 0.625 0.8125
vt 0.8125 0.625
vt 0.8125 0.8125
vt 1 0.8125
vt 1 0.625
vt 0.8125 0.8125
vt 0.8125 0.625
vt 1 0.625
vt 1 0.8125
vt 0.8125 0.625
vt 0.8125 0.8125
vt 1 0.8125
vt 1 0.625
vt 1 0.625
vt 1 0.8125
vt 0.8125 0.8125
vt 0.8125 0.625
vt 0 1
vt 0.09375 1
vt 0.09375 0.8125
vt 0 0.8125
vt 0.625 0.625
vt 0.8125 0.625
vt 0.8125 0.8125
vt 0.625 0.8125
vt 1 0.8125
vt 0.8125 0.8125
vt 0.8125 0.625
vt 1 0.625
vt 1 0.625
vt 0.8125 0.625
vt 0.8125 0.8125
vt 1 0.8125
vt 1 0.8125
vt 0.8125 0.8125
vt 0.8125 0.625
vt 1 0.625
vt 0.8125 0.8125
vt 1 0.8125
vt 1 0.625
vt 0.8125 0.625
vt 0.0625 0.875
vt 0.0625 1
vt 0 1
vt 0 0.875
vt 0.0625 0.875
vt 0.0625 1
vt 0 1
vt 0 0.875
vt 0.5 0.625
vt 0.625 0.625
vt 0.625 1
vt 0.5 1
vt 0.625 0.625
vt 0.5 0.625
vt 0.5 1
vt 0.625 1
vt 0.625 0.625
vt 0.49999999999999994 0.625
vt 0.49999999999999994 1
vt 0.625 1
vt 0.5 1
vt 0.625 1
vt 0.625 0.625
vt 0.5 0.625
vt 0 0.5
vt 0 0
vt 0.03125 0
vt 0.03125 0.5
vt 0.34375 0
vt 0.34375 0.5
vt 0.375 0.5
vt 0.375 0
vt 0 0.0625
vt 0 0
vt 0.375 0
vt 0.375 0.0625
vt 0 0.5
vt 0 0.4375
vt 0.375 0.4375
vt 0.375 0.5
vt 0.375 0.5
vt 0.375 0
vt 0 0
vt 0 0.5
vt 0.375 0.5
vt 0.375 0
vt 0 0
vt 0 0.5
vt 0.71875 0.8125000000000004
vt 0.71875 1
vt 0.6875 1
vt 0.6875 0.8125000000000004
vt 1 0.8125000000000004
vt 1 1
vt 0.96875 1
vt 0.96875 0.8125000000000004
vt 0.6875 0.9375
vt 0.6875 1
vt 1 1
vt 1 0.9375
vt 0.6875 0.8125
vt 0.6875 0.875
vt 1 0.875
vt 1 0.8125
vt 1 0.8125000000000004
vt 1 1
vt 0.6875 1
vt 0.6875 0.8125000000000004
vt 0.71875 0.8125000000000004
vt 0.71875 1
vt 0.6875 1
vt 0.6875 0.8125000000000004
vt 1 0.8125000000000004
vt 1 1
vt 0.96875 1
vt 0.96875 0.8125000000000004
vt 0.6875 0.9375
vt 0.6875 1
vt 1 1
vt 1 0.9375
vt 0.6875 0.8125
vt 0.6875 0.875
vt 1 0.875
vt 1 0.8125
vt 1 0.8125000000000004
vt 1 1
vt 0.6875 1
vt 0.6875 0.8125000000000004
vt 0.375 0.5
vt 0.375 0.1875
vt 0.5 0.1875
vt 0.5 0.5
vt 0.375 0.5
vt 0.375 0.1875
vt 0.5 0.1875
vt 0.5 0.5
vt 0.046875 0.90625
vt 0.046875 1
vt 0 1
vt 0 0.90625
vt 0.046875 0.90625
vt 0.046875 1
vt 0 1
vt 0 0.90625
vt 0.5 0.5
vt 0.5 0.1875
vt 0.375 0.1875
vt 0.375 0.5
vt 0.375 0.5
vt 0.375 0.1875
vt 0.5 0.1875
vt 0.5 0.5
vt 0.5 0.5
vt 0.5 0.1875
vt 0.375 0.1875
vt 0.375 0.5
vt 0.375 0.5
vt 0.375 0.1875
vt 0.5 0.1875
vt 0.5 0.5
vt 0.5 0.5
vt 0.5 0.1875
vt 0.375 0.1875
vt 0.375 0.5
vt 0.375 0.5
vt 0.375 0.1875
vt 0.5 0.1875
vt 0.5 0.5
vt 0.375 0.5
vt 0.375 0.1875
vt 0.5 0.1875
vt 0.5 0.5
vt 0.375 0.5
vt 0.375 0.1875
vt 0.5 0.1875
vt 0.5 0.5
vt 0.046875 0.90625
vt 0.046875 1
vt 0 1
vt 0 0.90625
vt 0.046875 0.90625
vt 0.046875 1
vt 0 1
vt 0 0.90625
vt 0.5 0.5
vt 0.5 0.1875
vt 0.375 0.1875
vt 0.375 0.5
vt 0.375 0.5
vt 0.375 0.1875
vt 0.5 0.1875
vt 0.5 0.5
vt 0.5 0.5
vt 0.5 0.1875
vt 0.375 0.1875
vt 0.375 0.5
vt 0.375 0.5
vt 0.375 0.1875
vt 0.5 0.1875
vt 0.5 0.5
vt 0.5 0.5
vt 0.5 0.1875
vt 0.375 0.1875
vt 0.375 0.5
vt 0.375 0.5
vt 0.375 0.1875
vt 0.5 0.1875
vt 0.5 0.5
vt 0.4375 0.375
vt 0.4375 0.125
vt 0.375 0.125
vt 0.375 0.375
vt 0.5 0.375
vt 0.5 0.125
vt 0.4375 0.125
vt 0.4375 0.375
vt 0.375 0.25
vt 0.375 0.375
vt 0.5 0.375
vt 0.5 0.25
vt 0.375 0.125
vt 0.375 0.375
vt 0.5 0.375
vt 0.5 0.125
vt 0.5 0.375
vt 0.5 0.125
vt 0.375 0.125
vt 0.375 0.375
vt 0.4375 0.375
vt 0.4375 0.125
vt 0.375 0.125
vt 0.375 0.375
vt 0.5 0.375
vt 0.5 0.125
vt 0.4375 0.125
vt 0.4375 0.375
vt 0.046875 0.9375
vt 0.046875 1
vt 0 1
vt 0 0.9375
vt 0.375 0.125
vt 0.375 0.375
vt 0.5 0.375
vt 0.5 0.125
vt 0.375 0.125
vt 0.375 0.375
vt 0.5 0.375
vt 0.5 0.125
vt 0.3773437500000002 0
vt 0.43515625 0.09999999999999998
vt 0.43671875000000016 0.1875
vt 0.3773437500000002 0.28437500000000004
vt 0.4984375 0
vt 0.44062500000000016 0.09999999999999998
vt 0.4390625 0.1875
vt 0.4984375 0.28437500000000004
vt 0.375 0.375
vt 0.375 0.125
vt 0.5 0.125
vt 0.5 0.375
vt 0.375 0.375
vt 0.375 0
vt 0.5 0
vt 0.5 0.375
vt 0.5 0.375
vt 0.5 0
vt 0.375 0
vt 0.375 0.375
vt 0.4375 0.375
vt 0.4375 0.125
vt 0.375 0.125
vt 0.375 0.375
vt 0.5 0.375
vt 0.5 0.125
vt 0.4375 0.125
vt 0.4375 0.375
vt 0.375 0.25
vt 0.375 0.375
vt 0.5 0.375
vt 0.5 0.25
vt 0.375 0.125
vt 0.375 0.375
vt 0.5 0.375
vt 0.5 0.125
vt 0.5 0.375
vt 0.5 0.125
vt 0.375 0.125
vt 0.375 0.375
vt 0.4375 0.375
vt 0.4375 0.125
vt 0.375 0.125
vt 0.375 0.375
vt 0.5 0.375
vt 0.5 0.125
vt 0.4375 0.125
vt 0.4375 0.375
vt 0.046875 0.9375
vt 0.046875 1
vt 0 1
vt 0 0.9375
vt 0.375 0.125
vt 0.375 0.375
vt 0.5 0.375
vt 0.5 0.125
vt 0.375 0.125
vt 0.375 0.375
vt 0.5 0.375
vt 0.5 0.125
vt 0.3773437500000002 0
vt 0.43515625 0.09999999999999998
vt 0.43671875000000016 0.1875
vt 0.3773437500000002 0.28437500000000004
vt 0.4984375 0
vt 0.44062500000000016 0.09999999999999998
vt 0.4390625 0.1875
vt 0.4984375 0.28437500000000004
vt 0.375 0.375
vt 0.375 0.125
vt 0.5 0.125
vt 0.5 0.375
vt 0.375 0.375
vt 0.375 0
vt 0.5 0
vt 0.5 0.375
vt 0.5 0.375
vt 0.5 0
vt 0.375 0
vt 0.375 0.375
vn 1 0 0
vn -1 0 0
vn 0 1 0
vn 0 -1 0
vn 0 0 1
vn 0 0 -1
vn -1 0 0
vn 1 0 0
vn 0 1 0
vn 0 -1 0
vn 0 0 1
vn 0 0 -1
vn 1 0 0
vn -1 0 0
vn 0 1 0
vn 0 -1 0
vn 0 0 1
vn 0 0 -1
vn 1 0 0
vn -1 0 0
vn 0 1 0
vn 0 -1 0
vn 0 0 1
vn 0 0 -1
vn 1 0 0
vn -1 0 0
vn 0 1 0
vn 0 -1 0
vn 0 0 -1
vn 1 0 0
vn -1 0 0
vn 0 1 0
vn 0 -1 0
vn 0 0 -1
vn 1 0 0
vn -1 0 0
vn 0 1 0
vn 0 -1 0
vn 0 0 1
vn 0 0 -1
vn 1 0 0
vn 0 0 1
vn -1 -2.2204460492503132e-17 0
vn 0 -1.1102230246251565e-16 -1
vn 1 0 0
vn -1 0 0
vn 0 1 0
vn 0 -1 0
vn 0 0 1
vn 0 0 -1
vn 1 0 0
vn 0 0 1
vn -1 0 0
vn 0 -1.1102230246251565e-16 -1
vn 1 0 0
vn -1 0 0
vn 0 -1 0
vn 0 0 1
vn 0 0 -1
vn 1 0 0
vn -1 0 0
vn 0 -1 0
vn 0 0 1
vn 0 0 -1
vn 1 0 0
vn -1 0 0
vn 0 1 0
vn 0 0.8320502943378438 0.5547001962252291
vn 0 0.8320502943378438 -0.554700196225229
vn 1 0 0
vn -1 0 0
vn 0 -1 0
vn 0 0 1
vn 0 0 -1
vn 1 0 0
vn -1 0 0
vn 0 -1 0
vn 0 0 1
vn 0 0 -1
vn 1 0 0
vn -1 0 0
vn 0 1 0
vn 0 0.8320502943378438 0.5547001962252291
vn 0 0.8320502943378438 -0.554700196225229
usemtl advanced_inserter
f 44/113/29 42/114/29 41/115/29
f 44/113/29 41/115/29 43/116/29
f 47/117/30 45/118/30 46/119/30
f 47/117/30 46/119/30 48/120/30
f 41/121/31 42/122/31 46/123/31
f 41/121/31 46/123/31 45/124/31
f 44/125/32 43/126/32 47/127/32
f 44/125/32 47/127/32 48/128/32
f 43/129/33 41/130/33 45/131/33
f 43/129/33 45/131/33 47/132/33
f 48/133/34 46/134/34 42/135/34
f 48/133/34 42/135/34 44/136/34
f 49/137/35 50/138/35 52/139/35
f 49/137/35 52/139/35 51/140/35
f 54/141/36 53/142/36 55/143/36
f 54/141/36 55/143/36 56/144/36
f 54/145/37 50/146/37 49/147/37
f 54/145/37 49/147/37 53/148/37
f 55/149/38 51/150/38 52/151/38
f 55/149/38 52/151/38 56/152/38
f 53/153/39 49/154/39 51/155/39
f 53/153/39 51/155/39 55/156/39
f 50/157/40 54/158/40 56/159/40
f 50/157/40 56/159/40 52/160/40
f 60/161/41 58/162/41 57/163/41
f 60/161/41 57/163/41 59/164/41
f 63/165/42 61/166/42 62/167/42
f 63/165/42 62/167/42 64/168/42
f 57/169/43 58/170/43 62/171/43
f 57/169/43 62/171/43 61/172/43
f 60/173/44 59/174/44 63/175/44
f 60/173/44 63/175/44 64/176/44
f 59/177/45 57/178/45 61/179/45
f 59/177/45 61/179/45 63/180/45
f 64/181/46 62/182/46 58/183/46
f 64/181/46 58/183/46 60/184/46
f 68/185/47 66/186/47 65/187/47
f 68/185/47 65/187/47 67/188/47
f 71/189/48 69/190/48 70/191/48
f 71/189/48 70/191/48 72/192/48
f 65/193/49 66/194/49 70/195/49
f 65/193/49 70/195/49 69/196/49
f 68/197/50 67/198/50 71/199/50
f 68/197/50 71/199/50 72/200/50
f 67/201/51 65/202/51 69/203/51
f 67/201/51 69/203/51 71/204/51
f 72/205/52 70/206/52 66/207/52
f 72/205/52 66/207/52 68/208/52
f 76/209/53 74/210/53 73/211/53
f 76/209/53 73/211/53 75/212/53
f 79/213/54 77/214/54 78/215/54
f 79/213/54 78/215/54 80/216/54
f 73/217/55 74/218/55 78/219/55
f 73/217/55 78/219/55 77/220/55
f 76/221/56 75/222/56 79/223/56
f 76/221/56 79/223/56 80/224/56
f 80/225/57 78/226/57 74/227/57
f 80/225/57 74/227/57 76/228/57
f 84/229/58 82/230/58 81/231/58
f 84/229/58 81/231/58 83/232/58
f 87/233/59 85/234/59 86/235/59
f 87/233/59 86/235/59 88/236/59
f 81/237/60 82/238/60 86/239/60
f 81/237/60 86/239/60 85/240/60
f 84/241/61 83/242/61 87/243/61
f 84/241/61 87/243/61 88/244/61
f 88/245/62 86/246/62 82/247/62
f 88/245/62 82/247/62 84/248/62
f 89/249/63 98/250/63 97/251/63
f 89/249/63 97/251/63 90/252/63
f 94/253/64 100/254/64 99/255/64
f 94/253/64 99/255/64 93/256/64
f 89/257/65 90/258/65 94/259/65
f 89/257/65 94/259/65 93/260/65
f 92/261/66 91/262/66 95/263/66
f 92/261/66 95/263/66 96/264/66
f 93/265/67 99/266/67 98/267/67
f 93/265/67 98/267/67 89/268/67
f 90/269/68 97/270/68 100/271/68
f 90/269/68 100/271/68 94/272/68
f 92/273/69 97/274/69 98/275/69
f 92/273/69 98/275/69 91/276/69
f 91/277/70 98/278/70 99/279/70
f 91/277/70 99/279/70 95/280/70
f 95/281/71 99/282/71 100/283/71
f 95/281/71 100/283/71 96/284/71
f 96/285/72 100/286/72 97/287/72
f 96/285/72 97/287/72 92/288/72
f 101/289/73 110/290/73 109/291/73
f 101/289/73 109/291/73 102/292/73
f 106/293/74 112/294/74 111/295/74
f 106/293/74 111/295/74 105/296/74
f 101/297/75 102/298/75 106/299/75
f 101/297/75 106/299/75 105/300/75
f 104/301/76 103/302/76 107/303/76
f 104/301/76 107/303/76 108/304/76
f 105/305/77 111/306/77 110/307/77
f 105/305/77 110/307/77 101/308/77
f 102/309/78 109/310/78 112/311/78
f 102/309/78 112/311/78 106/312/78
f 104/313/79 109/314/79 110/315/79
f 104/313/79 110/315/79 103/316/79
f 103/317/80 110/318/80 111/319/80
f 103/317/80 111/319/80 107/320/80
f 107/321/81 111/322/81 112/323/81
f 107/321/81 112/323/81 108/324/81
f 108/325/82 112/326/82 109/327/82
f 108/325/82 109/327/82 104/328/82
f 116/329/83 114/330/83 113/331/83
f 116/329/83 113/331/83 115/332/83
f 119/333/84 117/334/84 118/335/84
f 119/333/84 118/335/84 120/336/84
f 116/337/85 115/338/85 119/339/85
f 116/337/85 119/339/85 120/340/85
f 115/341/86 113/342/86 117/343/86
f 115/341/86 117/343/86 119/344/86
f 120/345/87 118/346/87 114/347/87
f 120/345/87 114/347/87 116/348/87
f 124/349/88 122/350/88 121/351/88
f 124/349/88 121/351/88 123/352/88
f 127/353/89 125/354/89 126/355/89
f 127/353/89 126/355/89 128/356/89
f 124/357/90 123/358/90 127/359/90
f 124/357/90 127/359/90 128/360/90
f 123/361/91 121/362/91 125/363/91
f 123/361/91 125/363/91 127/364/91
f 128/365/92 126/366/92 122/367/92
f 128/365/92 122/367/92 124/368/92
f 114/369/93 104/370/93 103/371/93
f 114/369/93 103/371/93 121/372/93
f 125/373/94 107/374/94 108/375/94
f 125/373/94 108/375/94 118/376/94
f 103/377/95 104/378/95 108/379/95
f 103/377/95 108/379/95 107/380/95
f 121/381/96 103/382/96 107/383/96
f 121/381/96 107/383/96 125/384/96
f 118/385/97 108/386/97 104/387/97
f 118/385/97 104/387/97 114/388/97
f 132/389/98 130/390/98 129/391/98
f 132/389/98 129/391/98 131/392/98
f 135/393/99 133/394/99 134/395/99
f 135/393/99 134/395/99 136/396/99
f 132/397/100 131/398/100 135/399/100
f 132/397/100 135/399/100 136/400/100
f 131/401/101 129/402/101 133/403/101
f 131/401/101 133/403/101 135/404/101
f 136/405/102 134/406/102 130/407/102
f 136/405/102 130/407/102 132/408/102
f 140/409/103 138/410/103 137/411/103
f 140/409/103 137/411/103 139/412/103
f 143/413/104 141/414/104 142/415/104
f 143/413/104 142/415/104 144/416/104
f 140/417/105 139/418/105 143/419/105
f 140/417/105 143/419/105 144/420/105
f 139/421/106 137/422/106 141/423/106
f 139/421/106 141/423/106 143/424/106
f 144/425/107 142/426/107 138/427/107
f 144/425/107 138/427/107 140/428/107
f 130/429/108 92/430/108 91/431/108
f 130/429/108 91/431/108 137/432/108
f 141/433/109 95/434/109 96/435/109
f 141/433/109 96/435/109 134/436/109
f 91/437/110 92/438/110 96/439/110
f 91/437/110 96/439/110 95/440/110
f 137/441/111 91/442/111 95/443/111
f 137/441/111 95/443/111 141/444/111
f 134/445/112 96/446/112 92/447/112
f 134/445/112 92/447/112 130/448/112
o upper
v 0.46875 1.9375 0.53125
v 0.53125 1.9375 0.53125
v 0.53125 1.9375 0.46875
v 0.46875 1.9375 0.46875
v 0.46875 1.375 0.46875
v 0.53125 1.375 0.46875
v 0.53125 1.375 0.53125
v 0.46875 1.375 0.53125
v 0.5625 1.40625 0.5625
v 0.5625 1.40625 0.4375
v 0.5625 1.28125 0.5625
v 0.5625 1.28125 0.4375
v 0.4375 1.40625 0.5625
v 0.4375 1.40625 0.4375
v 0.4375 1.28125 0.5625
v 0.4375 1.28125 0.4375
v 0.46875 2.0625 0.53125
v 0.53125 2.0625 0.53125
v 0.53125 2.0625 0.46875
v 0.46875 2.0625 0.46875
v 0.5625 2.203125 0.671875
v 0.5625 2.203125 0.609375
v 0.5625 2.078125 0.671875
v 0.5625 2.078125 0.609375
v 0.4375 2.203125 0.671875
v 0.4375 2.203125 0.609375
v 0.4375 2.078125 0.671875
v 0.4375 2.078125 0.609375
v 0.59375 2.046875 0.609375
v 0.59375 2.234375 0.609375
v 0.59375 2.046875 0.421875
v 0.59375 2.234375 0.421875
v 0.40625 2.046875 0.609375
v 0.40625 2.234375 0.609375
v 0.40625 2.046875 0.421875
v 0.40625 2.234375 0.421875
v 0.5625 2.078125 0.421875
v 0.5625 2.203125 0.421875
v 0.5625 2.078125 0.296875
v 0.5625 2.203125 0.296875
v 0.4375 2.078125 0.421875
v 0.4375 2.203125 0.421875
v 0.4375 2.078125 0.296875
v 0.4375 2.203125 0.296875
v 0.78125 2.328125 0.625
v 0.78125 2.328125 0.375
v 0.78125 1.953125 0.625
v 0.78125 1.953125 0.375
v 0.59375 2.328125 0.625
v 0.59375 2.328125 0.375
v 0.59375 1.953125 0.625
v 0.59375 1.953125 0.375
v 0.84375 2.296875 0.5625
v 0.84375 2.296875 0.4375
v 0.84375 2.171875 0.5625
v 0.84375 2.171875 0.4375
v 0.78125 2.296875 0.5625
v 0.78125 2.296875 0.4375
v 0.78125 2.171875 0.5625
v 0.78125 2.171875 0.4375
v 0.84375 2.109375 0.5625
v 0.84375 2.109375 0.4375
v 0.84375 1.984375 0.5625
v 0.84375 1.984375 0.4375
v 0.78125 2.109375 0.5625
v 0.78125 2.109375 0.4375
v 0.78125 1.984375 0.5625
v 0.78125 1.984375 0.4375
v 0.59375 1.71875 0.40625
v 0.46875 1.71875 0.40625
v 0.59375 1.65625 0.40625
v 0.46875 1.65625 0.40625
v 0.59375 1.71875 0.59375
v 0.46875 1.71875 0.59375
v 0.59375 1.65625 0.59375
v 0.46875 1.65625 0.59375
v 0.59375 1.84375 0.40625
v 0.46875 1.84375 0.40625
v 0.59375 1.78125 0.40625
v 0.46875 1.78125 0.40625
v 0.59375 1.84375 0.59375
v 0.46875 1.84375 0.59375
v 0.59375 1.78125 0.59375
v 0.46875 1.78125 0.59375
v 0.46875 1.90625 0.40625
v 0.28125 1.90625 0.40625
v 0.46875 1.53125 0.40625
v 0.28125 1.53125 0.40625
v 0.46875 1.90625 0.59375
v 0.28125 1.90625 0.59375
v 0.46875 1.53125 0.59375
v 0.28125 1.53125 0.59375
v 0.40625 2.21875 0.4375
v 0.375 2.21875 0.4375
v 0.40625 2.15625 0.4375
v 0.34375 2.15625 0.4375
v 0.40625 2.21875 0.5625
v 0.375 2.21875 0.5625
v 0.40625 2.15625 0.5625
v 0.34375 2.15625 0.5625
v 0.40625 1.90625 0.4375
v 0.34375 1.90625 0.4375
v 0.40625 1.90625 0.5625
v 0.34375 1.90625 0.5625
v 0.28125 1.90625 0.40625
v 0.46875 1.90625 0.40625
v 0.28125 1.53125 0.40625
v 0.46875 1.53125 0.40625
v 0.46875 1.90625 0.59375
v 0.46875 1.53125 0.59375
v 0.46875 1.84375 0.40625
v 0.46875 1.84375 0.59375
v 0.59375 1.84375 0.40625
v 0.59375 1.84375 0.59375
v 0.59375 1.78125 0.40625
v 0.59375 1.78125 0.59375
v 0.46875 1.78125 0.40625
v 0.46875 1.71875 0.40625
v 0.59375 1.71875 0.40625
v 0.46875 1.65625 0.40625
v 0.59375 1.65625 0.40625
v 0.59375 1.71875 0.59375
v 0.59375 1.65625 0.59375
v 0.46875 1.71875 0.59375
v 0.46875 1.78125 0.59375
v 0.46875 1.65625 0.59375
v 0.28125 1.90625 0.59375
v 0.28125 1.53125 0.59375
vt 1 0.375
vt 0.9375 0.375
vt 0.9375 0.4375
vt 1 0.4375
vt 0.4375 0.5
vt 0.5 0.5
vt 0.5 0
vt 0.4375 0
vt 0.4375 0.5
vt 0.5 0.5
vt 0.5 0.1875
vt 0.4375 0.1875
vt 0.4375 0.5
vt 0.5 0.5
vt 0.5 0
vt 0.4375 0
vt 0.4375 0.5
vt 0.5 0.5
vt 0.5 0
vt 0.4375 0
vt 0.625 1
vt 0.625 0.875
vt 0.5 0.875
vt 0.5 1
vt 0.625 1
vt 0.625 0.875
vt 0.5 0.875
vt 0.5 1
vt 0.625 0.875
vt 0.625 1
vt 0.5 1
vt 0.5 0.875
vt 0.5 1
vt 0.5 0.875
vt 0.625 0.875
vt 0.625 1
vt 0.4375 0.5
vt 0.5 0.5
vt 0.5 0.375
vt 0.4375 0.375
vt 0.4375 0.5
vt 0.5 0.5
vt 0.5 0.375
vt 0.4375 0.375
vt 0.4375 0.5
vt 0.5 0.5
vt 0.5 0.375
vt 0.4375 0.375
vt 0.4375 0.5
vt 0.5 0.5
vt 0.5 0.375
vt 0.4375 0.375
vt 1 0.1875
vt 1 0.3125
vt 0.9375 0.3125
vt 0.9375 0.1875
vt 0.9375 0.1875
vt 0.9375 0.3125
vt 0.875 0.3125
vt 0.875 0.1875
vt 1 0.25
vt 1 0.3125
vt 0.875 0.3125
vt 0.875 0.25
vt 1 0.1875
vt 1 0.25
vt 0.875 0.25
vt 0.875 0.1875
vt 0.8125 0.75
vt 0.8125 0.5625
vt 0.625 0.5625
vt 0.625 0.75
vt 0.8125 0.75
vt 0.8125 0.5625
vt 0.625 0.5625
vt 0.625 0.75
vt 1 0.75
vt 1 0.5625
vt 0.8125 0.5625
vt 0.8125 0.75
vt 1 0.75
vt 1 0.5625
vt 0.8125 0.5625
vt 0.8125 0.75
vt 0.8125 0.75
vt 0.8125 0.5625
vt 0.625 0.5625
vt 0.625 0.75
vt 0.8125 0.75
vt 0.8125 0.5625
vt 0.625 0.5625
vt 0.625 0.75
vt 0.625 0.625
vt 0.625 0.75
vt 0.5 0.75
vt 0.5 0.625
vt 0.625 0.625
vt 0.625 0.75
vt 0.5 0.75
vt 0.5 0.625
vt 0.625 0.625
vt 0.625 0.75
vt 0.5 0.75
vt 0.5 0.625
vt 0.5 0.625
vt 0.5 0.75
vt 0.625 0.75
vt 0.625 0.625
vt 0.5 0.625
vt 0.5 0.75
vt 0.625 0.75
vt 0.625 0.625
vt 0.8125 1
vt 0.4375 1
vt 0.4375 0.75
vt 0.8125 0.75
vt 0.8125 1
vt 0.4375 1
vt 0.4375 0.75
vt 0.8125 0.75
vt 1 0.75
vt 1 1
vt 0.8125 1
vt 0.8125 0.75
vt 1 0.75
vt 1 1
vt 0.8125 1
vt 0.8125 0.75
vt 0.125 0.5625
vt 0.5 0.5625
vt 0.5 0.75
vt 0.125 0.75
vt 0.5 0.5625
vt 0.125 0.5625
vt 0.125 0.75
vt 0.5 0.75
vt 1 0.1875
vt 1 0.3125
vt 0.875 0.3125
vt 0.875 0.1875
vt 0.875 0.3125
vt 1 0.3125
vt 1 0.25
vt 0.875 0.25
vt 1 0.25
vt 0.875 0.25
vt 0.875 0.1875
vt 1 0.1875
vt 0.9375 0.1875
vt 0.9375 0.3125
vt 0.875 0.3125
vt 0.875 0.1875
vt 1 0.1875
vt 1 0.3125
vt 0.9375 0.3125
vt 0.9375 0.1875
vt 1 0.1875
vt 1 0.3125
vt 0.875 0.3125
vt 0.875 0.1875
vt 0.875 0.3125
vt 1 0.3125
vt 1 0.25
vt 0.875 0.25
vt 1 0.25
vt 0.875 0.25
vt 0.875 0.1875
vt 1 0.1875
vt 0.9375 0.1875
vt 0.9375 0.3125
vt 0.875 0.3125
vt 0.875 0.1875
vt 1 0.1875
vt 1 0.3125
vt 0.9375 0.3125
vt 0.9375 0.1875
vt 0.6875 1
vt 0.625 1
vt 0.625 0.875
vt 0.6875 0.875
vt 0.5625 0.875
vt 0.5 0.875
vt 0.5 1
vt 0.5625 1
vt 0.6875 0.875
vt 0.6875 1
vt 0.5 1
vt 0.5 0.875
vt 0.5 0.875
vt 0.5 1
vt 0.6875 1
vt 0.6875 0.875
vt 0.6875 0.875
vt 0.6875 0.9375
vt 0.5 0.9375
vt 0.5 0.875
vt 0.6875 1
vt 0.625 1
vt 0.625 0.875
vt 0.6875 0.875
vt 0.5625 0.875
vt 0.5 0.875
vt 0.5 1
vt 0.5625 1
vt 0.6875 0.875
vt 0.6875 1
vt 0.5 1
vt 0.5 0.875
vt 0.5 0.875
vt 0.5 1
vt 0.6875 1
vt 0.6875 0.875
vt 0.6875 0.875
vt 0.6875 0.9375
vt 0.5 0.9375
vt 0.5 0.875
vt 0.5 0.5625
vt 0.125 0.5625
vt 0.125 0.75
vt 0.5 0.75
vt 0.5 0.5625
vt 0.125 0.5625
vt 0.125 0.75
vt 0.5 0.75
vt 1 0.9375
vt 1 0.75
vt 0.8125 0.75
vt 0.8125 0.9375
vt 1 0.75
vt 1 0.9375
vt 0.8125 0.9375
vt 0.8125 0.75
vt 0.5 0.75
vt 0.125 0.75
vt 0.125 0.5625
vt 0.5 0.5625
vt 0.5 0.75
vt 0.125 0.75
vt 0.125 0.5625
vt 0.5 0.5625
vt 0.625 0.5625
vt 0.625 0.625
vt 0.5625 0.625
vt 0.5625 0.5625
vt 0.6875 0.5625
vt 0.6875 0.625
vt 0.625 0.625
vt 0.625 0.5625
vt 0.5625 0.5625
vt 0.5625 0.625
vt 0.6875 0.625
vt 0.6875 0.5625
vt 0.6875 0.5625
vt 0.6875 0.625
vt 0.5625 0.625
vt 0.5625 0.5625
vt 0.6875 0.0625
vt 0.6875 0.3125
vt 0.625 0.3125
vt 0.625 0.0625
vt 0.625 0.0625
vt 0.625 0.3125
vt 0.5625 0.3125
vt 0.5625 0.0625
vt 0.5625 0.0625
vt 0.5625 0.3125
vt 0.6875 0.3125
vt 0.6875 0.0625
vt 0.6875 0.0625
vt 0.6875 0.3125
vt 0.5625 0.3125
vt 0.5625 0.0625
vt 0.6875 1
vt 0.625 1
vt 0.625 0.875
vt 0.6875 0.875
vt 0.5625 0.875
vt 0.5 0.875
vt 0.5 1
vt 0.5625 1
vt 0.6875 0.875
vt 0.6875 1
vt 0.5 1
vt 0.5 0.875
vt 0.5 0.875
vt 0.5 1
vt 0.6875 1
vt 0.6875 0.875
vt 0.6875 0.875
vt 0.6875 0.9375
vt 0.5 0.9375
vt 0.5 0.875
vt 0.6875 1
vt 0.625 1
vt 0.625 0.875
vt 0.6875 0.875
vt 0.5625 0.875
vt 0.5 0.875
vt 0.5 1
vt 0.5625 1
vt 0.6875 0.875
vt 0.6875 1
vt 0.5 1
vt 0.5 0.875
vt 0.5 0.875
vt 0.5 1
vt 0.6875 1
vt 0.6875 0.875
vt 0.6875 0.875
vt 0.6875 0.9375
vt 0.5 0.9375
vt 0.5 0.875
vt 0.5 0.5625
vt 0.125 0.5625
vt 0.125 0.75
vt 0.5 0.75
vt 0.5 0.5625
vt 0.125 0.5625
vt 0.125 0.75
vt 0.5 0.75
vt 1 0.9375
vt 1 0.75
vt 0.8125 0.75
vt 0.8125 0.9375
vt 1 0.75
vt 1 0.9375
vt 0.8125 0.9375
vt 0.8125 0.75
vt 0.5 0.75
vt 0.125 0.75
vt 0.125 0.5625
vt 0.5 0.5625
vt 0.5 0.75
vt 0.125 0.75
vt 0.125 0.5625
vt 0.5 0.5625
vn 0 -1 0
vn 0 0 1
vn 0 0 -1
vn 1 0 0
vn -1 0 0
vn 0 1 0
vn 0 -1 0
vn 0 0 1
vn 0 0 -1
vn 0 0 1
vn 0 0 -1
vn 1 0 0
vn -1 0 0
vn 1 0 0
vn -1 0 0
vn 0 1 0
vn 0 -1 0
vn 1 0 0
vn -1 0 0
vn 0 0 1
vn 0 0 -1
vn 0 -1 0
vn 0 1 0
vn 1 0 0
vn -1 0 0
vn 0 0 -1
vn 0 -1 0
vn 0 1 0
vn 1 0 0
vn -1 0 0
vn 0 1 0
vn 0 -1 0
vn 0 0 1
vn 0 0 -1
vn 1 0 0
vn 0 1 0
vn 0 -1 0
vn 0 0 1
vn 0 0 -1
vn 1 0 0
vn 0 1 0
vn 0 -1 0
vn 0 0 1
vn 0 0 -1
vn 0 0 -1
vn 0 0 1
vn 0 1 0
vn 0 -1 0
vn 1 0 0
vn 0 0 -1
vn 0 0 1
vn 0 1 0
vn 0 -1 0
vn 1 0 0
vn 0 0 -1
vn 0 0 1
vn 0 1 0
vn 0 -1 0
vn 1 0 0
vn -1 0 0
vn 0 0 -1
vn 0 0 1
vn 0 1 0
vn -0.8944271909999161 0.44721359549995804 0
vn 0 0 -1
vn 0 0 1
vn 1 0 0
vn -1 0 0
vn 0 0 -1
vn 0 0 1
vn 0 1 0
vn 0 -1 0
vn 1 0 0
vn 0 0 -1
vn 0 0 1
vn 0 1 0
vn 0 -1 0
vn 1 0 0
vn 0 0 -1
vn 0 0 1
vn 0 1 0
vn 0 -1 0
vn 1 0 0
vn -1 0 0
usemtl advanced_inserter
f 149/449/113 150/450/113 151/451/113
f 149/449/113 151/451/113 152/452/113
f 146/453/114 145/454/114 152/455/114
f 146/453/114 152/455/114 151/456/114
f 148/457/115 147/458/115 150/459/115
f 148/457/115 150/459/115 149/460/115
f 147/461/116 146/462/116 151/463/116
f 147/461/116 151/463/116 150/464/116
f 145/465/117 148/466/117 149/467/117
f 145/465/117 149/467/117 152/468/117
f 153/469/118 154/470/118 158/471/118
f 153/469/118 158/471/118 157/472/118
f 156/473/119 155/474/119 159/475/119
f 156/473/119 159/475/119 160/476/119
f 155/477/120 153/478/120 157/479/120
f 155/477/120 157/479/120 159/480/120
f 160/481/121 158/482/121 154/483/121
f 160/481/121 154/483/121 156/484/121
f 162/485/122 161/486/122 145/487/122
f 162/485/122 145/487/122 146/488/122
f 164/489/123 163/490/123 147/491/123
f 164/489/123 147/491/123 148/492/123
f 163/493/124 162/494/124 146/495/124
f 163/493/124 146/495/124 147/496/124
f 161/497/125 164/498/125 148/499/125
f 161/497/125 148/499/125 145/500/125
usemtl tool_red
f 168/501/126 166/502/126 165/503/126
f 168/501/126 165/503/126 167/504/126
f 171/505/127 169/506/127 170/507/127
f 171/505/127 170/507/127 172/508/127
f 165/509/128 166/510/128 170/511/128
f 165/509/128 170/511/128 169/512/128
f 168/513/129 167/514/129 171/515/129
f 168/513/129 171/515/129 172/516/129
f 176/517/130 174/518/130 173/519/130
f 176/517/130 173/519/130 175/520/130
f 179/521/131 177/522/131 178/523/131
f 179/521/131 178/523/131 180/524/131
f 173/525/132 174/526/132 178/527/132
f 173/525/132 178/527/132 177/528/132
f 176/529/133 175/530/133 179/531/133
f 176/529/133 179/531/133 180/532/133
f 175/533/134 173/534/134 177/535/134
f 175/533/134 177/535/134 179/536/134
f 180/537/135 178/538/135 174/539/135
f 180/537/135 174/539/135 176/540/135
f 184/541/136 182/542/136 181/543/136
f 184/541/136 181/543/136 183/544/136
f 187/545/137 185/546/137 186/547/137
f 187/545/137 186/547/137 188/548/137
f 184/549/138 183/550/138 187/551/138
f 184/549/138 187/551/138 188/552/138
f 183/553/139 181/554/139 185/555/139
f 183/553/139 185/555/139 187/556/139
f 188/557/140 186/558/140 182/559/140
f 188/557/140 182/559/140 184/560/140
f 192/561/141 190/562/141 189/563/141
f 192/561/141 189/563/141 191/564/141
f 195/565/142 193/566/142 194/567/142
f 195/565/142 194/567/142 196/568/142
f 189/569/143 190/570/143 194/571/143
f 189/569/143 194/571/143 193/572/143
f 192/573/144 191/574/144 195/575/144
f 192/573/144 195/575/144 196/576/144
f 191/577/145 189/578/145 193/579/145
f 191/577/145 193/579/145 195/580/145
f 196/581/146 194/582/146 190/583/146
f 196/581/146 190/583/146 192/584/146
f 200/585/147 198/586/147 197/587/147
f 200/585/147 197/587/147 199/588/147
f 197/589/148 198/590/148 202/591/148
f 197/589/148 202/591/148 201/592/148
f 200/593/149 199/594/149 203/595/149
f 200/593/149 203/595/149 204/596/149
f 199/597/150 197/598/150 201/599/150
f 199/597/150 201/599/150 203/600/150
f 204/601/151 202/602/151 198/603/151
f 204/601/151 198/603/151 200/604/151
f 208/605/152 206/606/152 205/607/152
f 208/605/152 205/607/152 207/608/152
f 205/609/153 206/610/153 210/611/153
f 205/609/153 210/611/153 209/612/153
f 208/613/154 207/614/154 211/615/154
f 208/613/154 211/615/154 212/616/154
f 207/617/155 205/618/155 209/619/155
f 207/617/155 209/619/155 211/620/155
f 212/621/156 210/622/156 206/623/156
f 212/621/156 206/623/156 208/624/156
f 216/625/157 214/626/157 213/627/157
f 216/625/157 213/627/157 215/628/157
f 219/629/158 217/630/158 218/631/158
f 219/629/158 218/631/158 220/632/158
f 213/633/159 214/634/159 218/635/159
f 213/633/159 218/635/159 217/636/159
f 216/637/160 215/638/160 219/639/160
f 216/637/160 219/639/160 220/640/160
f 215/641/161 213/642/161 217/643/161
f 215/641/161 217/643/161 219/644/161
f 224/645/162 222/646/162 221/647/162
f 224/645/162 221/647/162 223/648/162
f 227/649/163 225/650/163 226/651/163
f 227/649/163 226/651/163 228/652/163
f 221/653/164 222/654/164 226/655/164
f 221/653/164 226/655/164 225/656/164
f 224/657/165 223/658/165 227/659/165
f 224/657/165 227/659/165 228/660/165
f 223/661/166 221/662/166 225/663/166
f 223/661/166 225/663/166 227/664/166
f 232/665/167 230/666/167 229/667/167
f 232/665/167 229/667/167 231/668/167
f 235/669/168 233/670/168 234/671/168
f 235/669/168 234/671/168 236/672/168
f 229/673/169 230/674/169 234/675/169
f 229/673/169 234/675/169 233/676/169
f 232/677/170 231/678/170 235/679/170
f 232/677/170 235/679/170 236/680/170
f 231/681/171 229/682/171 233/683/171
f 231/681/171 233/683/171 235/684/171
f 236/685/172 234/686/172 230/687/172
f 236/685/172 230/687/172 232/688/172
usemtl common_copper_cable
f 240/689/173 238/690/173 237/691/173
f 240/689/173 237/691/173 239/692/173
f 243/693/174 241/694/174 242/695/174
f 243/693/174 242/695/174 244/696/174
f 237/697/175 238/698/175 242/699/175
f 237/697/175 242/699/175 241/700/175
f 244/701/176 242/702/176 238/703/176
f 244/701/176 238/703/176 240/704/176
f 246/705/177 240/706/177 239/707/177
f 246/705/177 239/707/177 245/708/177
f 247/709/178 243/710/178 244/711/178
f 247/709/178 244/711/178 248/712/178
f 245/713/179 239/714/179 243/715/179
f 245/713/179 243/715/179 247/716/179
f 248/717/180 244/718/180 240/719/180
f 248/717/180 240/719/180 246/720/180
usemtl tool_red
f 264/721/181 262/722/181 263/723/181
f 264/721/181 263/723/181 265/724/181
f 267/725/182 266/726/182 268/727/182
f 267/725/182 268/727/182 270/728/182
f 263/729/183 262/730/183 268/731/183
f 263/729/183 268/731/183 266/732/183
f 264/733/184 265/734/184 267/735/184
f 264/733/184 267/735/184 270/736/184
f 265/737/185 263/738/185 266/739/185
f 265/737/185 266/739/185 267/740/185
f 261/741/186 255/742/186 257/743/186
f 261/741/186 257/743/186 259/744/186
f 260/745/187 258/746/187 256/747/187
f 260/745/187 256/747/187 269/748/187
f 257/749/188 255/750/188 256/751/188
f 257/749/188 256/751/188 258/752/188
f 261/753/189 259/754/189 260/755/189
f 261/753/189 260/755/189 269/756/189
f 259/757/190 257/758/190 258/759/190
f 259/757/190 258/759/190 260/760/190
f 251/761/191 249/762/191 250/763/191
f 251/761/191 250/763/191 252/764/191
f 254/765/192 253/766/192 271/767/192
f 254/765/192 271/767/192 272/768/192
f 250/769/193 249/770/193 271/771/193
f 250/769/193 271/771/193 253/772/193
f 251/773/194 252/774/194 254/775/194
f 251/773/194 254/775/194 272/776/194
f 252/777/195 250/778/195 253/779/195
f 252/777/195 253/779/195 254/780/195
f 272/781/196 271/782/196 249/783/196
f 272/781/196 249/783/196 251/784/196
o drill
v 0.5773398041922786 2.006668529691545 0.71875
v 0.633956470308455 2.217964804192279 0.71875
v 0.5883883476483185 1.9875318910760513 0.65625
v 0.6530931089239487 2.2290133476483183 0.65625
v 0.36604352969154497 2.063285195807721 0.71875
v 0.42266019580772135 2.2745814703084553 0.71875
v 0.3469068910760514 2.0522366523516817 0.65625
v 0.41161165235168157 2.2937181089239487 0.65625
v 0.5809922409230043 2.0596327590769956 0.7812499999999999
v 0.5809922409230043 2.221617240923005 0.7812499999999999
v 0.59375 2.046875 0.7187499999999999
v 0.59375 2.2343750000000004 0.7187499999999999
v 0.4190077590769957 2.0596327590769956 0.7812499999999999
v 0.4190077590769957 2.2216172409230044 0.7812499999999999
v 0.40625 2.046875 0.7187499999999999
v 0.40625 2.234375 0.7187499999999999
v 0.5657275314207814 2.109975748746866 0.8437499999999999
v 0.5306492512531338 2.2063525314207815 0.8437499999999999
v 0.5801070477569734 2.103270470158735 0.7812499999999999
v 0.5373545298412651 2.2207320477569734 0.7812499999999999
v 0.46935074874686633 2.074897468579219 0.8437499999999999
v 0.4342724685792185 2.1712742512531342 0.8437499999999999
v 0.4626454701587351 2.060517952243027 0.7812499999999999
v 0.4198929522430264 2.177979529841265 0.7812499999999999
v 0.5282203359148311 2.138156040526559 0.9062499999999999
v 0.5024689594734412 2.168845335914831 0.9062499999999999
v 0.5440260016501725 2.1367732239552364 0.8437499999999999
v 0.5038517760447637 2.1846510016501726 0.8437499999999999
v 0.49753104052655883 2.1124046640851692 0.9062499999999999
v 0.47177966408516886 2.143093959473441 0.9062499999999999
v 0.4961482239552363 2.096598998349828 0.8437499999999999
v 0.4559739983498275 2.1444767760447636 0.8437499999999999
vt 0.6875 0.25
vt 0.625 0.25
vt 0.625 0
vt 0.6875 0
vt 0.5 0.25
vt 0.4375 0.25
vt 0.4375 0
vt 0.5 0
vt 0.6875 0
vt 0.6875 0.25
vt 0.4375 0.25
vt 0.4375 0
vt 0.6875 0
vt 0.6875 0.25
vt 0.4375 0.25
vt 0.4375 0
vt 0.4375 0
vt 0.4375 0.0625
vt 0.6875 0.0625
vt 0.6875 0
vt 0.6875 0.1875
vt 0.6875 0.25
vt 0.4375 0.25
vt 0.4375 0.1875
vt 0.875 0.1875
vt 0.8125 0.1875
vt 0.8125 0
vt 0.875 0
vt 0.75 0.1875
vt 0.6875 0.1875
vt 0.6875 0
vt 0.75 0
vt 0.875 0
vt 0.875 0.1875
vt 0.6875 0.1875
vt 0.6875 0
vt 0.875 0
vt 0.875 0.0625
vt 0.6875 0.0625
vt 0.6875 0
vt 0.875 0.125
vt 0.875 0.1875
vt 0.6875 0.1875
vt 0.6875 0.125
vt 1 0.125
vt 0.9375 0.125
vt 0.9375 0
vt 1 0
vt 0.9375 0.125
vt 0.875 0.125
vt 0.875 0
vt 0.9375 0
vt 1 0
vt 1 0.125
vt 0.875 0.125
vt 0.875 0
vt 1 0
vt 1 0.0625
vt 0.875 0.0625
vt 0.875 0
vt 1 0.0625
vt 1 0.125
vt 0.875 0.125
vt 0.875 0.0625
vt 1 0.125
vt 1 0.1875
vt 0.9375 0.1875
vt 0.9375 0.125
vt 1 0.125
vt 1 0.1875
vt 0.9375 0.1875
vt 0.9375 0.125
vt 1 0.125
vt 1 0.1875
vt 0.9375 0.1875
vt 0.9375 0.125
vt 1 0.125
vt 1 0.1875
vt 0.9375 0.1875
vt 0.9375 0.125
vt 1 0.125
vt 1 0.1875
vt 0.9375 0.1875
vt 0.9375 0.125
vn 0.9370856960710223 -0.2510913555009868 0.24253562503633302
vn -0.9370856960710223 0.25109135550098693 0.2425356250363329
vn 0 2.220446049250313e-16 1
vn 0 -2.220446049250313e-16 -1
vn -0.2510913555009869 -0.9370856960710223 0.24253562503633316
vn 0.2510913555009869 0.9370856960710223 0.24253562503633277
vn 0.9797958971132713 -3.3306690738754696e-16 0.19999999999999968
vn -0.9797958971132712 -1.6653345369377348e-16 0.20000000000000023
vn 0 2.220446049250313e-16 1
vn -6.938893903907228e-16 -0.9797958971132712 0.20000000000000048
vn -1.4988010832439613e-15 0.9797958971132713 0.19999999999999962
vn 0.9249097232068764 0.336639608630693 0.1766798738350057
vn -0.9249097232068753 -0.3366396086306958 0.17667987383500608
vn 0 2.220446049250313e-16 1
vn 0.3366396086306898 -0.9249097232068773 0.17667987383500647
vn -0.3366396086306918 0.9249097232068768 0.17667987383500536
vn 0.753993314597671 0.63267551218904 0.17667987383500547
vn -0.7539933145976672 -0.6326755121890442 0.17667987383500702
vn 0 2.220446049250313e-16 1
vn 0.6326755121890401 -0.7539933145976709 0.17667987383500605
vn -0.6326755121890432 0.7539933145976684 0.17667987383500527
usemtl tool_red
f 276/785/197 274/786/197 273/787/197
f 276/785/197 273/787/197 275/788/197
f 279/789/198 277/790/198 278/791/198
f 279/789/198 278/791/198 280/792/198
f 273/793/199 274/794/199 278/795/199
f 273/793/199 278/795/199 277/796/199
f 276/797/200 275/798/200 279/799/200
f 276/797/200 279/799/200 280/800/200
f 275/801/201 273/802/201 277/803/201
f 275/801/201 277/803/201 279/804/201
f 280/805/202 278/806/202 274/807/202
f 280/805/202 274/807/202 276/808/202
f 284/809/203 282/810/203 281/811/203
f 284/809/203 281/811/203 283/812/203
f 287/813/204 285/814/204 286/815/204
f 287/813/204 286/815/204 288/816/204
f 281/817/205 282/818/205 286/819/205
f 281/817/205 286/819/205 285/820/205
f 283/821/206 281/822/206 285/823/206
f 283/821/206 285/823/206 287/824/206
f 288/825/207 286/826/207 282/827/207
f 288/825/207 282/827/207 284/828/207
f 292/829/208 290/830/208 289/831/208
f 292/829/208 289/831/208 291/832/208
f 295/833/209 293/834/209 294/835/209
f 295/833/209 294/835/209 296/836/209
f 289/837/210 290/838/210 294/839/210
f 289/837/210 294/839/210 293/840/210
f 291/841/211 289/842/211 293/843/211
f 291/841/211 293/843/211 295/844/211
f 296/845/212 294/846/212 290/847/212
f 296/845/212 290/847/212 292/848/212
f 300/849/213 298/850/213 297/851/213
f 300/849/213 297/851/213 299/852/213
f 303/853/214 301/854/214 302/855/214
f 303/853/214 302/855/214 304/856/214
f 297/857/215 298/858/215 302/859/215
f 297/857/215 302/859/215 301/860/215
f 299/861/216 297/862/216 301/863/216
f 299/861/216 301/863/216 303/864/216
f 304/865/217 302/866/217 298/867/217
f 304/865/217 298/867/217 300/868/217