# Made by Pabilo8 with Blockbench
# Exported with IIToolkit Plugin
mtllib hammer.mtl


o inserter
v 0.75 0.375 0.75
v 0.75 0.375 0.25
v 0.75 0.3125 0.75
v 0.75 0.3125 0.25
v 0.25 0.375 0.75
v 0.25 0.375 0.25
v 0.25 0.3125 0.75
v 0.25 0.3125 0.25
v 0.625 0.3125 0.625
v 0.625 0.3125 0.375
v 0.625 0.25 0.625
v 0.625 0.25 0.375
v 0.375 0.3125 0.625
v 0.375 0.3125 0.375
v 0.375 0.25 0.625
v 0.375 0.25 0.375
v 0.3125 0.5625 0.625
v 0.3125 0.5625 0.375
v 0.3125 0.375 0.625
v 0.3125 0.375 0.375
v 0.25 0.5625 0.625
v 0.25 0.5625 0.375
v 0.25 0.375 0.625
v 0.25 0.375 0.375
v 0.75 0.5625 0.625
v 0.75 0.5625 0.375
v 0.75 0.375 0.625
v 0.75 0.375 0.375
v 0.6875 0.5625 0.625
v 0.6875 0.5625 0.375
v 0.6875 0.375 0.625
v 0.6875 0.375 0.375
v 0.3125 0.625 0.5625
v 0.3125 0.625 0.4375
v 0.25 0.625 0.5625
v 0.25 0.625 0.4375
v 0.75 0.625 0.5625
v 0.75 0.625 0.4375
v 0.6875 0.625 0.5625
v 0.6875 0.625 0.4375
vt 0.5 1
vt 0.4375 1
vt 0.4375 0.5
vt 0.5 0.5
vt 0.0625 1
vt 0 1
vt 0 0.5
vt 0.0625 0.5
vt 0.5 0.5
vt 0.5 1
vt 0 1
vt 0 0.5
vt 0.5 0.5
vt 0.5 1
vt 0 1
vt 0 0.5
vt 0.5 0.9375
vt 0.5 1
vt 0 1
vt 0 0.9375
vt 0 0.5
vt 0 0.5625
vt 0.5 0.5625
vt 0.5 0.5
vt 0.75 0.4375
vt 0.75 0.5
vt 0.5 0.5
vt 0.5 0.4375
vt 0.75 0.375
vt 0.75 0.4375
vt 0.5 0.4375
vt 0.5 0.375
vt 0.75 0.375
vt 0.75 0.4375
vt 0.5 0.4375
vt 0.5 0.375
vt 0.75 0.4375
vt 0.75 0.5
vt 0.5 0.5
vt 0.5 0.4375
vt 0.375 0.5
vt 0.375 0.6875
vt 0.125 0.6875
vt 0.125 0.5
vt 0.375 0.5
vt 0.375 0.6875
vt 0.125 0.6875
vt 0.125 0.5
vt 0.375 0.5
vt 0.375 0.6875
vt 0.3125 0.6875
vt 0.3125 0.5
vt 0.1875 0.5
vt 0.1875 0.6875
vt 0.125 0.6875
vt 0.125 0.5
vt 0.375 0.5
vt 0.375 0.6875
vt 0.125 0.6875
vt 0.125 0.5
vt 0.375 0.5
vt 0.375 0.6875
vt 0.125 0.6875
vt 0.125 0.5
vt 0.375 0.5
vt 0.375 0.6875
vt 0.3125 0.6875
vt 0.3125 0.5
vt 0.1875 0.5
vt 0.1875 0.6875
vt 0.125 0.6875
vt 0.125 0.5
vt 0.3125 0.5625
vt 0.28125 0.5
vt 0.21875 0.5
vt 0.1875 0.5625
vt 0.1875 0.5625
vt 0.21875 0.5
vt 0.28125 0.5
vt 0.3125 0.5625
vt 0.28125 0.5625
vt 0.21875 0.5625
vt 0.21875 0.5
vt 0.28125 0.5
vt 0.3125 0.5
vt 0.3125 0.5625
vt 0.28125 0.5625
vt 0.28125 0.5
vt 0.21875 0.5
vt 0.21875 0.5625
vt 0.1875 0.5625
vt 0.1875 0.5
vt 0.3125 0.5625
vt 0.28125 0.5
vt 0.21875 0.5
vt 0.1875 0.5625
vt 0.1875 0.5625
vt 0.21875 0.5
vt 0.28125 0.5
vt 0.3125 0.5625
vt 0.28125 0.5625
vt 0.21875 0.5625
vt 0.21875 0.5
vt 0.28125 0.5
vt 0.3125 0.5
vt 0.3125 0.5625
vt 0.28125 0.5625
vt 0.28125 0.5
vt 0.21875 0.5
vt 0.21875 0.5625
vt 0.1875 0.5625
vt 0.1875 0.5
vn 1 0 0
vn -1 0 0
vn 0 1 0
vn 0 -1 0
vn 0 0 1
vn 0 0 -1
vn 1 0 0
vn -1 0 0
vn 0 0 1
vn 0 0 -1
vn 1 0 0
vn -1 0 0
vn 0 0 1
vn 0 0 -1
vn 1 0 0
vn -1 0 0
vn 0 0 1
vn 0 0 -1
vn 1 0 0
vn -1 0 0
vn 0 1 0
vn 0 0.7071067811865476 0.7071067811865476
vn 0 0.7071067811865476 -0.7071067811865476
vn 1 0 0
vn -1 0 0
vn 0 1 0
vn 0 0.7071067811865476 0.7071067811865476
vn 0 0.7071067811865476 -0.7071067811865476
usemtl advanced_inserter
f 4/1/1 2/2/1 1/3/1
f 4/1/1 1/3/1 3/4/1
f 7/5/2 5/6/2 6/7/2
f 7/5/2 6/7/2 8/8/2
f 1/9/3 2/10/3 6/11/3
f 1/9/3 6/11/3 5/12/3
f 4/13/4 3/14/4 7/15/4
f 4/13/4 7/15/4 8/16/4
f 3/17/5 1/18/5 5/19/5
f 3/17/5 5/19/5 7/20/5
f 8/21/6 6/22/6 2/23/6
f 8/21/6 2/23/6 4/24/6
usemtl inserter_base2
f 12/25/7 10/26/7 9/27/7
f 12/25/7 9/27/7 11/28/7
f 15/29/8 13/30/8 14/31/8
f 15/29/8 14/31/8 16/32/8
f 11/33/9 9/34/9 13/35/9
f 11/33/9 13/35/9 15/36/9
f 16/37/10 14/38/10 10/39/10
f 16/37/10 10/39/10 12/40/10
usemtl advanced_inserter
f 20/41/11 18/42/11 17/43/11
f 20/41/11 17/43/11 19/44/11
f 23/45/12 21/46/12 22/47/12
f 23/45/12 22/47/12 24/48/12
f 19/49/13 17/50/13 21/51/13
f 19/49/13 21/51/13 23/52/13
f 24/53/14 22/54/14 18/55/14
f 24/53/14 18/55/14 20/56/14
f 28/57/15 26/58/15 25/59/15
f 28/57/15 25/59/15 27/60/15
f 31/61/16 29/62/16 30/63/16
f 31/61/16 30/63/16 32/64/16
f 27/65/17 25/66/17 29/67/17
f 27/65/17 29/67/17 31/68/17
f 32/69/18 30/70/18 26/71/18
f 32/69/18 26/71/18 28/72/18
f 18/73/19 34/74/19 33/75/19
f 18/73/19 33/75/19 17/76/19
f 21/77/20 35/78/20 36/79/20
f 21/77/20 36/79/20 22/80/20
f 33/81/21 34/82/21 36/83/21
f 33/81/21 36/83/21 35/84/21
f 17/85/22 33/86/22 35/87/22
f 17/85/22 35/87/22 21/88/22
f 22/89/23 36/90/23 34/91/23
f 22/89/23 34/91/23 18/92/23
f 26/93/24 38/94/24 37/95/24
f 26/93/24 37/95/24 25/96/24
f 29/97/25 39/98/25 40/99/25
f 29/97/25 40/99/25 30/100/25
f 37/101/26 38/102/26 40/103/26
f 37/101/26 40/103/26 39/104/26
f 25/105/27 37/106/27 39/107/27
f 25/105/27 39/107/27 29/108/27
f 30/109/28 40/110/28 38/111/28
f 30/109/28 38/111/28 26/112/28
o lower
v 0.459375 1.4375 0.59375
v 0.459375 1.4375 0.40625
v 0.459375 1.25 0.59375
v 0.459375 1.25 0.40625
v 0.271875 1.4375 0.59375
v 0.271875 1.4375 0.40625
v 0.271875 1.25 0.59375
v 0.271875 1.25 0.40625
v 0.540625 1.4375 0.59375
v 0.540625 1.4375 0.40625
v 0.540625 1.25 0.59375
v 0.540625 1.25 0.40625
v 0.728125 1.4375 0.59375
v 0.728125 1.4375 0.40625
v 0.728125 1.25 0.59375
v 0.728125 1.25 0.40625
v 0.6875 0.5625 0.5625
v 0.6875 0.5625 0.4375
v 0.6875 0.4375 0.5625
v 0.6875 0.4375 0.4375
v 0.3125 0.5625 0.5625
v 0.3125 0.5625 0.4375
v 0.3125 0.4375 0.5625
v 0.3125 0.4375 0.4375
v 0.6875 1.1875 0.46875
v 0.6875 1.1875 0.40625
v 0.6875 0.6875 0.46875
v 0.6875 0.6875 0.40625
v 0.3125 1.1875 0.46875
v 0.3125 1.1875 0.40625
v 0.3125 0.6875 0.46875
v 0.3125 0.6875 0.40625
v 0.65625 1.1562499999999996 0.40625
v 0.65625 1.1562499999999996 0.375
v 0.65625 0.96875 0.40625
v 0.65625 0.96875 0.375
v 0.34375 1.1562499999999996 0.40625
v 0.34375 1.1562499999999996 0.375
v 0.34375 0.96875 0.40625
v 0.34375 0.96875 0.375
v 0.65625 0.9374999999999996 0.40625
v 0.65625 0.9374999999999996 0.375
v 0.65625 0.75 0.40625
v 0.65625 0.75 0.375
v 0.34375 0.9374999999999996 0.40625
v 0.34375 0.9374999999999996 0.375
v 0.34375 0.75 0.40625
v 0.34375 0.75 0.375
v 0.65625 1.25 0.546875
v 0.65625 1.25 0.453125
v 0.65625 0.625 0.546875
v 0.65625 0.625 0.45312500000000006
v 0.5625 1.25 0.546875
v 0.5625 1.25 0.453125
v 0.5625 0.625 0.546875
v 0.5625 0.625 0.45312500000000006
v 0.65625 0.9375 0.453125
v 0.65625 0.9375 0.546875
v 0.5625 0.9375 0.546875
v 0.5625 0.9375 0.453125
v 0.4375 1.25 0.546875
v 0.4375 1.25 0.453125
v 0.4375 0.625 0.546875
v 0.4375 0.625 0.45312500000000006
v 0.34375 1.25 0.546875
v 0.34375 1.25 0.453125
v 0.34375 0.625 0.546875
v 0.34375 0.625 0.45312500000000006
v 0.4375 0.9375 0.453125
v 0.4375 0.9375 0.546875
v 0.34375 0.9375 0.546875
v 0.34375 0.9375 0.453125
v 0.4375 0.5625 0.421875
v 0.4375 0.5625 0.359375
v 0.4375 0.4375 0.421875
v 0.4375 0.4375 0.359375
v 0.34375 0.5625 0.421875
v 0.34375 0.5625 0.359375
v 0.34375 0.4375 0.421875
v 0.34375 0.4375 0.359375
v 0.4375 0.5625 0.640625
v 0.4375 0.5625 0.578125
v 0.4375 0.4375 0.640625
v 0.4375 0.4375 0.578125
v 0.34375 0.5625 0.640625
v 0.34375 0.5625 0.578125
v 0.34375 0.4375 0.640625
v 0.34375 0.4375 0.578125
v 0.65625 0.5625 0.421875
v 0.65625 0.5625 0.359375
v 0.65625 0.4375 0.421875
v 0.65625 0.4375 0.359375
v 0.5625 0.5625 0.421875
v 0.5625 0.5625 0.359375
v 0.5625 0.4375 0.421875
v 0.5625 0.4375 0.359375
v 0.65625 0.5625 0.640625
v 0.65625 0.5625 0.578125
v 0.65625 0.4375 0.640625
v 0.65625 0.4375 0.578125
v 0.5625 0.5625 0.640625
v 0.5625 0.5625 0.578125
v 0.5625 0.4375 0.640625
v 0.5625 0.4375 0.578125
vt 0.09375 0.8125
vt 0.09375 1
vt 0 1
vt 0 0.8125
vt 0.8125 0.8125
vt 0.8125 0.625
vt 0.625 0.625
vt 0.625 0.8125
vt 0.8125 0.625
vt 0.8125 0.8125
vt 1 0.8125
vt 1 0.625
vt 0.8125 0.8125
vt 0.8125 0.625
vt 1 0.625
vt 1 0.8125
vt 0.8125 0.625
vt 0.8125 0.8125
vt 1 0.8125
vt 1 0.625
vt 1 0.625
vt 1 0.8125
vt 0.8125 0.8125
vt 0.8125 0.625
vt 0 1
vt 0.09375 1
vt 0.09375 0.8125
vt 0 0.8125
vt 0.625 0.625
vt 0.8125 0.625
vt 0.8125 0.8125
vt 0.625 0.8125
vt 1 0.8125
vt 0.8125 0.8125
vt 0.8125 0.625
vt 1 0.625
vt 1 0.625
vt 0.8125 0.625
vt 0.8125 0.8125
vt 1 0.8125
vt 1 0.8125
vt 0.8125 0.8125
vt 0.8125 0.625
vt 1 0.625
vt 0.8125 0.8125
vt 1 0.8125
vt 1 0.625
vt 0.8125 0.625
vt 0.0625 0.875
vt 0.0625 1
vt 0 1
vt 0 0.875
vt 0.0625 0.875
vt 0.0625 1
vt 0 1
vt 0 0.875
vt 0.5 0.625
vt 0.625 0.625
vt 0.625 1
vt 0.5 1
vt 0.625 0.625
vt 0.5 0.625
vt 0.5 1
vt 0.625 1
vt 0.625 0.625
vt 0.49999999999999994 0.625
vt 0.49999999999999994 1
vt 0.625 1
vt 0.5 1
vt 0.625 1
vt 0.625 0.625
vt 0.5 0.625
vt 0 0.5
vt 0 0
vt 0.03125 0
vt 0.03125 0.5
vt 0.34375 0
vt 0.34375 0.5
vt 0.375 0.5
vt 0.375 0
vt 0 0.0625
vt 0 0
vt 0.375 0
vt 0.375 0.0625
vt 0 0.5
vt 0 0.4375
vt 0.375 0.4375
vt 0.375 0.5
vt 0.375 0.5
vt 0.375 0
vt 0 0
vt 0 0.5
vt 0.375 0.5
vt 0.375 0
vt 0 0
vt 0 0.5
vt 0.71875 0.8125000000000004
vt 0.71875 1
vt 0.6875 1
vt 0.6875 0.8125000000000004
vt 1 0.8125000000000004
vt 1 1
vt 0.96875 1
vt 0.96875 0.8125000000000004
vt 0.6875 0.9375
vt 0.6875 1
vt 1 1
vt 1 0.9375
vt 0.6875 0.8125
vt 0.6875 0.875
vt 1 0.875
vt 1 0.8125
vt 1 0.8125000000000004
vt 1 1
vt 0.6875 1
vt 0.6875 0.8125000000000004
vt 0.71875 0.8125000000000004
vt 0.71875 1
vt 0.6875 1
vt 0.6875 0.8125000000000004
vt 1 0.8125000000000004
vt 1 1
vt 0.96875 1
vt 0.96875 0.8125000000000004
vt 0.6875 0.9375
vt 0.6875 1
vt 1 1
vt 1 0.9375
vt 0.6875 0.8125
vt 0.6875 0.875
vt 1 0.875
vt 1 0.8125
vt 1 0.8125000000000004
vt 1 1
vt 0.6875 1
vt 0.6875 0.8125000000000004
vt 0.375 0.5
vt 0.375 0.1875
vt 0.5 0.1875
vt 0.5 0.5
vt 0.375 0.5
vt 0.375 0.1875
vt 0.5 0.1875
vt 0.5 0.5
vt 0.046875 0.90625
vt 0.046875 1
vt 0 1
vt 0 0.90625
vt 0.046875 0.90625
vt 0.046875 1
vt 0 1
vt 0 0.90625
vt 0.5 0.5
vt 0.5 0.1875
vt 0.375 0.1875
vt 0.375 0.5
vt 0.375 0.5
vt 0.375 0.1875
vt 0.5 0.1875
vt 0.5 0.5
vt 0.5 0.5
vt 0.5 0.1875
vt 0.375 0.1875
vt 0.375 0.5
vt 0.375 0.5
vt 0.375 0.1875
vt 0.5 0.1875
vt 0.5 0.5
vt 0.5 0.5
vt 0.5 0.1875
vt 0.375 0.1875
vt 0.375 0.5
vt 0.375 0.5
vt 0.375 0.1875
vt 0.5 0.1875
vt 0.5 0.5
vt 0.375 0.5
vt 0.375 0.1875
vt 0.5 0.1875
vt 0.5 0.5
vt 0.375 0.5
vt 0.375 0.1875
vt 0.5 0.1875
vt 0.5 0.5
vt 0.046875 0.90625
vt 0.046875 1
vt 0 1
vt 0 0.90625
vt 0.046875 0.90625
vt 0.046875 1
vt 0 1
vt 0 0.90625
vt 0.5 0.5
vt 0.5 0.1875
vt 0.375 0.1875
vt 0.375 0.5
vt 0.375 0.5
vt 0.375 0.1875
vt 0.5 0.1875
vt 0.5 0.5
vt 0.5 0.5
vt 0.5 0.1875
vt 0.375 0.1875
vt 0.375 0.5
vt 0.375 0.5
vt 0.375 0.1875
vt 0.5 0.1875
vt 0.5 0.5
vt 0.5 0.5
vt 0.5 0.1875
vt 0.375 0.1875
vt 0.375 0.5
vt 0.375 0.5
vt 0.375 0.1875
vt 0.5 0.1875
vt 0.5 0.5
vt 0.4375 0.375
vt 0.4375 0.125
vt 0.375 0.125
vt 0.375 0.375
vt 0.5 0.375
vt 0.5 0.125
vt 0.4375 0.125
vt 0.4375 0.375
vt 0.375 0.25
vt 0.375 0.375
vt 0.5 0.375
vt 0.5 0.25
vt 0.375 0.125
vt 0.375 0.375
vt 0.5 0.375
vt 0.5 0.125
vt 0.5 0.375
vt 0.5 0.125
vt 0.375 0.125
vt 0.375 0.375
vt 0.4375 0.375
vt 0.4375 0.125
vt 0.375 0.125
vt 0.375 0.375
vt 0.5 0.375
vt 0.5 0.125
vt 0.4375 0.125
vt 0.4375 0.375
vt 0.046875 0.9375
vt 0.046875 1
vt 0 1
vt 0 0.9375
vt 0.375 0.125
vt 0.375 0.375
vt 0.5 0.375
vt 0.5 0.125
vt 0.375 0.125
vt 0.375 0.375
vt 0.5 0.375
vt 0.5 0.125
vt 0.3773437500000002 0
vt 0.43515625 0.09999999999999998
vt 0.43671875000000016 0.1875
vt 0.3773437500000002 0.28437500000000004
vt 0.4984375 0
vt 0.44062500000000016 0.09999999999999998
vt 0.4390625 0.1875
vt 0.4984375 0.28437500000000004
vt 0.375 0.375
vt 0.375 0.125
vt 0.5 0.125
vt 0.5 0.375
vt 0.375 0.375
vt 0.375 0
vt 0.5 0
vt 0.5 0.375
vt 0.5 0.375
vt 0.5 0
vt 0.375 0
vt 0.375 0.375
vt 0.4375 0.375
vt 0.4375 0.125
vt 0.375 0.125
vt 0.375 0.375
vt 0.5 0.375
vt 0.5 0.125
vt 0.4375 0.125
vt 0.4375 0.375
vt 0.375 0.25
vt 0.375 0.375
vt 0.5 0.375
vt 0.5 0.25
vt 0.375 0.125
vt 0.375 0.375
vt 0.5 0.375
vt 0.5 0.125
vt 0.5 0.375
vt 0.5 0.125
vt 0.375 0.125
vt 0.375 0.375
vt 0.4375 0.375
vt 0.4375 0.125
vt 0.375 0.125
vt 0.375 0.375
vt 0.5 0.375
vt 0.5 0.125
vt 0.4375 0.125
vt 0.4375 0.375
vt 0.046875 0.9375
vt 0.046875 1
vt 0 1
vt 0 0.9375
vt 0.375 0.125
vt 0.375 0.375
vt 0.5 0.375
vt 0.5 0.125
vt 0.375 0.125
vt 0.375 0.375
vt 0.5 0.375
vt 0.5 0.125
vt 0.3773437500000002 0
vt 0.43515625 0.09999999999999998
vt 0.43671875000000016 0.1875
vt 0.3773437500000002 0.28437500000000004
vt 0.4984375 0
vt 0.44062500000000016 0.09999999999999998
vt 0.4390625 0.1875
vt 0.4984375 0.28437500000000004
vt 0.375 0.375
vt 0.375 0.125
vt 0.5 0.125
vt 0.5 0.375
vt 0.375 0.375
vt 0.375 0
vt 0.5 0
vt 0.5 0.375
vt 0.5 0.375
vt 0.5 0
vt 0.375 0
vt 0.375 0.375
vn 1 0 0
vn -1 0 0
vn 0 1 0
vn 0 -1 0
vn 0 0 1
vn 0 0 -1
vn -1 0 0
vn 1 0 0
vn 0 1 0
vn 0 -1 0
vn 0 0 1
vn 0 0 -1
vn 1 0 0
vn -1 0 0
vn 0 1 0
vn 0 -1 0
vn 0 0 1
vn 0 0 -1
vn 1 0 0
vn -1 0 0
vn 0 1 0
vn 0 -1 0
vn 0 0 1
vn 0 0 -1
vn 1 0 0
vn -1 0 0
vn 0 1 0
vn 0 -1 0
vn 0 0 -1
vn 1 0 0
vn -1 0 0
vn 0 1 0
vn 0 -1 0
vn 0 0 -1
vn 1 0 0
vn -1 0 0
vn 0 1 0
vn 0 -1 0
vn 0 0 1
vn 0 0 -1
vn 1 0 0
vn 0 0 1
vn -1 -2.2204460492503132e-17 0
vn 0 -1.1102230246251565e-16 -1
vn 1 0 0
vn -1 0 0
vn 0 1 0
vn 0 -1 0
vn 0 0 1
vn 0 0 -1
vn 1 0 0
vn 0 0 1
vn -1 0 0
vn 0 -1.1102230246251565e-16 -1
vn 1 0 0
vn -1 0 0
vn 0 -1 0
vn 0 0 1
vn 0 0 -1
vn 1 0 0
vn -1 0 0
vn 0 -1 0
vn 0 0 1
vn 0 0 -1
vn 1 0 0
vn -1 0 0
vn 0 1 0
vn 0 0.8320502943378438 0.5547001962252291
vn 0 0.8320502943378438 -0.554700196225229
vn 1 0 0
vn -1 0 0
vn 0 -1 0
vn 0 0 1
vn 0 0 -1
vn 1 0 0
vn -1 0 0
vn 0 -1 0
vn 0 0 1
vn 0 0 -1
vn 1 0 0
vn -1 0 0
vn 0 1 0
vn 0 0.8320502943378438 0.5547001962252291
vn 0 0.8320502943378438 -0.554700196225229
usemtl advanced_inserter
f 44/113/29 42/114/29 41/115/29
f 44/113/29 41/115/29 43/116/29
f 47/117/30 45/118/30 46/119/30
f 47/117/30 46/119/30 48/120/30
f 41/121/31 42/122/31 46/123/31
f 41/121/31 46/123/31 45/124/31
f 44/125/32 43/126/32 47/127/32
f 44/125/32 47/127/32 48/128/32
f 43/129/33 41/130/33 45/131/33
f 43/129/33 45/131/33 47/132/33
f 48/133/34 46/134/34 42/135/34
f 48/133/34 42/135/34 44/136/34
f 49/137/35 50/138/35 52/139/35
f 49/137/35 52/139/35 51/140/35
f 54/141/36 53/142/36 55/143/36
f 54/141/36 55/143/36 56/144/36
f 54/145/37 50/146/37 49/147/37
f 54/145/37 49/147/37 53/148/37
f 55/149/38 51/150/38 52/151/38
f 55/149/38 52/151/38 56/152/38
f 53/153/39 49/154/39 51/155/39
f 53/153/39 51/155/39 55/156/39
f 50/157/40 54/158/40 56/159/40
f 50/157/40 56/159/40 52/160/40
f 60/161/41 58/162/41 57/163/41
f 60/161/41 57/163/41 59/164/41
f 63/165/42 61/166/42 62/167/42
f 63/165/42 62/167/42 64/168/42
f 57/169/43 58/170/43 62/171/43
f 57/169/43 62/171/43 61/172/43
f 60/173/44 59/174/44 63/175/44
f 60/173/44 63/175/44 64/176/44
f 59/177/45 57/178/45 61/179/45
f 59/177/45 61/179/45 63/180/45
f 64/181/46 62/182/46 58/183/46
f 64/181/46 58/183/46 60/184/46
f 68/185/47 66/186/47 65/187/47
f 68/185/47 65/187/47 67/188/47
f 71/189/48 69/190/48 70/191/48
f 71/189/48 70/191/48 72/192/48
f 65/193/49 66/194/49 70/195/49
f 65/193/49 70/195/49 69/196/49
f 68/197/50 67/198/50 71/199/50
f 68/197/50 71/199/50 72/200/50
f 67/201/51 65/202/51 69/203/51
f 67/201/51 69/203/51 71/204/51
f 72/205/52 70/206/52 66/207/52
f 72/205/52 66/207/52 68/208/52
f 76/209/53 74/210/53 73/211/53
f 76/209/53 73/211/53 75/212/53
f 79/213/54 77/214/54 78/215/54
f 79/213/54 78/215/54 80/216/54
f 73/217/55 74/218/55 78/219/55
f 73/217/55 78/219/55 77/220/55
f 76/221/56 75/222/56 79/223/56
f 76/221/56 79/223/56 80/224/56
f 80/225/57 78/226/57 74/227/57
f 80/225/57 74/227/57 76/228/57
f 84/229/58 82/230/58 81/231/58
f 84/229/58 81/231/58 83/232/58
f 87/233/59 85/234/59 86/235/59
f 87/233/59 86/235/59 88/236/59
f 81/237/60 82/238/60 86/239/60
f 81/237/60 86/239/60 85/240/60
f 84/241/61 83/242/61 87/243/61
f 84/241/61 87/243/61 88/244/61
f 88/245/62 86/246/62 82/247/62
f 88/245/62 82/247/62 84/248/62
f 89/249/63 98/250/63 97/251/63
f 89/249/63 97/251/63 90/252/63
f 94/253/64 100/254/64 99/255/64
f 94/253/64 99/255/64 93/256/64
f 89/257/65 90/258/65 94/259/65
f 89/257/65 94/259/65 93/260/65
f 92/261/66 91/262/66 95/263/66
f 92/261/66 95/263/66 96/264/66
f 93/265/67 99/266/67 98/267/67
f 93/265/67 98/267/67 89/268/67
f 90/269/68 97/270/68 100/271/68
f 90/269/68 100/271/68 94/272/68
f 92/273/69 97/274/69 98/275/69
f 92/273/69 98/275/69 91/276/69
f 91/277/70 98/278/70 99/279/70
f 91/277/70 99/279/70 95/280/70
f 95/281/71 99/282/71 100/283/71
f 95/281/71 100/283/71 96/284/71
f 96/285/72 100/286/72 97/287/72
f 96/285/72 97/287/72 92/288/72
f 101/289/73 110/290/73 109/291/73
f 101/289/73 109/291/73 102/292/73
f 106/293/74 112/294/74 111/295/74
f 106/293/74 111/295/74 105/296/74
f 101/297/75 102/298/75 106/299/75
f 101/297/75 106/299/75 105/300/75
f 104/301/76 103/302/76 107/303/76
f 104/301/76 107/303/76 108/304/76
f 105/305/77 111/306/77 110/307/77
f 105/305/77 110/307/77 101/308/77
f 102/309/78 109/310/78 112/311/78
f 102/309/78 112/311/78 106/312/78
f 104/313/79 109/314/79 110/315/79
f 104/313/79 110/315/79 103/316/79
f 103/317/80 110/318/80 111/319/80
f 103/317/80 111/319/80 107/320/80
f 107/321/81 111/322/81 112/323/81
f 107/321/81 112/323/81 108/324/81
f 108/325/82 112/326/82 109/327/82
f 108/325/82 109/327/82 104/328/82
f 116/329/83 114/330/83 113/331/83
f 116/329/83 113/331/83 115/332/83
f 119/333/84 117/334/84 118/335/84
f 119/333/84 118/335/84 120/336/84
f 116/337/85 115/338/85 119/339/85
f 116/337/85 119/339/85 120/340/85
f 115/341/86 113/342/86 117/343/86
f 115/341/86 117/343/86 119/344/86
f 120/345/87 118/346/87 114/347/87
f 120/345/87 114/347/87 116/348/87
f 124/349/88 122/350/88 121/351/88
f 124/349/88 121/351/88 123/352/88
f 127/353/89 125/354/89 126/355/89
f 127/353/89 126/355/89 128/356/89
f 124/357/90 123/358/90 127/359/90
f 124/357/90 127/359/90 128/360/90
f 123/361/91 121/362/91 125/363/91
f 123/361/91 125/363/91 127/364/91
f 128/365/92 126/366/92 122/367/92
f 128/365/92 122/367/92 124/368/92
f 114/369/93 104/370/93 103/371/93
f 114/369/93 103/371/93 121/372/93
f 125/373/94 107/374/94 108/375/94
f 125/373/94 108/375/94 118/376/94
f 103/377/95 104/378/95 108/379/95
f 103/377/95 108/379/95 107/380/95
f 121/381/96 103/382/96 107/383/96
f 121/381/96 107/383/96 125/384/96
f 118/385/97 108/386/97 104/387/97
f 118/385/97 104/387/97 114/388/97
f 132/389/98 130/390/98 129/391/98
f 132/389/98 129/391/98 131/392/98
f 135/393/99 133/394/99 134/395/99
f 135/393/99 134/395/99 136/396/99
f 132/397/100 131/398/100 135/399/100
f 132/397/100 135/399/100 136/400/100
f 131/401/101 129/402/101 133/403/101
f 131/401/101 133/403/101 135/404/101
f 136/405/102 134/406/102 130/407/102
f 136/405/102 130/407/102 132/408/102
f 140/409/103 138/410/103 137/411/103
f 140/409/103 137/411/103 139/412/103
f 143/413/104 141/414/104 142/415/104
f 143/413/104 142/415/104 144/416/104
f 140/417/105 139/418/105 143/419/105
f 140/417/105 143/419/105 144/420/105
f 139/421/106 137/422/106 141/423/106
f 139/421/106 141/423/106 143/424/106
f 144/425/107 142/426/107 138/427/107
f 144/425/107 138/427/107 140/428/107
f 130/429/108 92/430/108 91/431/108
f 130/429/108 91/431/108 137/432/108
f 141/433/109 95/434/109 96/435/109
f 141/433/109 96/435/109 134/436/109
f 91/437/110 92/438/110 96/439/110
f 91/437/110 96/439/110 95/440/110
f 137/441/111 91/442/111 95/443/111
f 137/441/111 95/443/111 141/444/111
f 134/445/112 96/446/112 92/447/112
f 134/445/112 92/447/112 130/448/112
o upper
v 0.46875 1.9375 0.53125
v 0.53125 1.9375 0.53125
v 0.53125 1.9375 0.46875
v 0.46875 1.9375 0.46875
v 0.46875 1.375 0.46875
v 0.53125 1.375 0.46875
v 0.53125 1.375 0.53125
v 0.46875 1.375 0.53125
v 0.5625 1.40625 0.5625
v 0.5625 1.40625 0.4375
v 0.5625 1.28125 0.5625
v 0.5625 1.28125 0.4375
v 0.4375 1.40625 0.5625
v 0.4375 1.40625 0.4375
v 0.4375 1.28125 0.5625
v 0.4375 1.28125 0.4375
v 0.59375 2.25 0.59375
v 0.59375 2.25 0.40625
v 0.59375 2.0625 0.59375
v 0.59375 2.0625 0.40625
v 0.40625 2.25 0.59375
v 0.40625 2.25 0.40625
v 0.40625 2.0625 0.59375
v 0.40625 2.0625 0.40625
v 0.5625 2.0625 0.5625
v 0.5625 2.0625 0.4375
v 0.5625 1.9375 0.5625
v 0.5625 1.9375 0.4375
v 0.4375 2.0625 0.5625
v 0.4375 2.0625 0.4375
v 0.4375 1.9375 0.5625
v 0.4375 1.9375 0.4375
v 0.59375 2.4375 0.59375
v 0.59375 2.4375 0.40625
v 0.59375 2.25 0.59375
v 0.59375 2.25 0.40625
v 0.40625 2.4375 0.59375
v 0.40625 2.4375 0.40625
v 0.40625 2.25 0.59375
v 0.40625 2.25 0.40625
v 0.21875 2.328125 0.375
v 0.21875 2.328125 0.625
v 0.21875 1.953125 0.375
v 0.21875 1.953125 0.625
v 0.40625 2.328125 0.375
v 0.40625 2.328125 0.625
v 0.40625 1.953125 0.375
v 0.40625 1.953125 0.625
v 0.15625 2.296875 0.4375
v 0.15625 2.296875 0.5625
v 0.15625 2.171875 0.4375
v 0.15625 2.171875 0.5625
v 0.21875 2.296875 0.4375
v 0.21875 2.296875 0.5625
v 0.21875 2.171875 0.4375
v 0.21875 2.171875 0.5625
v 0.15625 2.109375 0.4375
v 0.15625 2.109375 0.5625
v 0.15625 1.984375 0.4375
v 0.15625 1.984375 0.5625
v 0.21875 2.109375 0.4375
v 0.21875 2.109375 0.5625
v 0.21875 1.984375 0.4375
v 0.21875 1.984375 0.5625
v 0.78125 2.328125 0.625
v 0.78125 2.328125 0.375
v 0.78125 1.953125 0.625
v 0.78125 1.953125 0.375
v 0.59375 2.328125 0.625
v 0.59375 2.328125 0.375
v 0.59375 1.953125 0.625
v 0.59375 1.953125 0.375
v 0.84375 2.296875 0.5625
v 0.84375 2.296875 0.4375
v 0.84375 2.171875 0.5625
v 0.84375 2.171875 0.4375
v 0.78125 2.296875 0.5625
v 0.78125 2.296875 0.4375
v 0.78125 2.171875 0.5625
v 0.78125 2.171875 0.4375
v 0.84375 2.109375 0.5625
v 0.84375 2.109375 0.4375
v 0.84375 1.984375 0.5625
v 0.84375 1.984375 0.4375
v 0.78125 2.109375 0.5625
v 0.78125 2.109375 0.4375
v 0.78125 1.984375 0.5625
v 0.78125 1.984375 0.4375
vt 1 0.375
vt 0.9375 0.375
vt 0.9375 0.4375
vt 1 0.4375
vt 0.4375 0.5
vt 0.5 0.5
vt 0.5 0
vt 0.4375 0
vt 0.4375 0.5
vt 0.5 0.5
vt 0.5 0.1875
vt 0.4375 0.1875
vt 0.4375 0.5
vt 0.5 0.5
vt 0.5 0
vt 0.4375 0
vt 0.4375 0.5
vt 0.5 0.5
vt 0.5 0
vt 0.4375 0
vt 0.625 1
vt 0.625 0.875
vt 0.5 0.875
vt 0.5 1
vt 0.625 1
vt 0.625 0.875
vt 0.5 0.875
vt 0.5 1
vt 0.625 0.875
vt 0.625 1
vt 0.5 1
vt 0.5 0.875
vt 0.5 1
vt 0.5 0.875
vt 0.625 0.875
vt 0.625 1
vt 0.8125 0.75
vt 0.8125 0.5625
vt 0.625 0.5625
vt 0.625 0.75
vt 0.8125 0.75
vt 0.8125 0.5625
vt 0.625 0.5625
vt 0.625 0.75
vt 1 0.75
vt 1 0.5625
vt 0.8125 0.5625
vt 0.8125 0.75
vt 0.8125 0.75
vt 0.8125 0.5625
vt 0.625 0.5625
vt 0.625 0.75
vt 0.8125 0.75
vt 0.8125 0.5625
vt 0.625 0.5625
vt 0.625 0.75
vt 0.625 0.625
vt 0.625 0.75
vt 0.5 0.75
vt 0.5 0.625
vt 0.625 0.625
vt 0.625 0.75
vt 0.5 0.75
vt 0.5 0.625
vt 0.625 0.625
vt 0.625 0.75
vt 0.5 0.75
vt 0.5 0.625
vt 0.5 0.625
vt 0.5 0.75
vt 0.625 0.75
vt 0.625 0.625
vt 0.5 0.625
vt 0.5 0.75
vt 0.625 0.75
vt 0.625 0.625
vt 0.8125 0.625
vt 1 0.625
vt 1 0.8125
vt 0.8125 0.8125
vt 0.8125 0.625
vt 1 0.625
vt 1 0.8125
vt 0.8125 0.8125
vt 0.625 0.625
vt 0.625 0.8125
vt 0.8125 0.8125
vt 0.8125 0.625
vt 0.8125 0.8125
vt 1 0.8125
vt 1 0.625
vt 0.8125 0.625
vt 0.8125 0.8125
vt 1 0.8125
vt 1 0.625
vt 0.8125 0.625
vt 0.8125 1
vt 0.4375 1
vt 0.4375 0.75
vt 0.8125 0.75
vt 0.8125 1
vt 0.4375 1
vt 0.4375 0.75
vt 0.8125 0.75
vt 1 0.75
vt 1 1
vt 0.8125 1
vt 0.8125 0.75
vt 1 0.75
vt 1 1
vt 0.8125 1
vt 0.8125 0.75
vt 0.125 0.5625
vt 0.5 0.5625
vt 0.5 0.75
vt 0.125 0.75
vt 0.5 0.5625
vt 0.125 0.5625
vt 0.125 0.75
vt 0.5 0.75
vt 1 0.1875
vt 1 0.3125
vt 0.875 0.3125
vt 0.875 0.1875
vt 0.875 0.3125
vt 1 0.3125
vt 1 0.25
vt 0.875 0.25
vt 1 0.25
vt 0.875 0.25
vt 0.875 0.1875
vt 1 0.1875
vt 0.9375 0.1875
vt 0.9375 0.3125
vt 0.875 0.3125
vt 0.875 0.1875
vt 1 0.1875
vt 1 0.3125
vt 0.9375 0.3125
vt 0.9375 0.1875
vt 1 0.1875
vt 1 0.3125
vt 0.875 0.3125
vt 0.875 0.1875
vt 0.875 0.3125
vt 1 0.3125
vt 1 0.25
vt 0.875 0.25
vt 1 0.25
vt 0.875 0.25
vt 0.875 0.1875
vt 1 0.1875
vt 0.9375 0.1875
vt 0.9375 0.3125
vt 0.875 0.3125
vt 0.875 0.1875
vt 1 0.1875
vt 1 0.3125
vt 0.9375 0.3125
vt 0.9375 0.1875
vt 0.8125 1
vt 0.4375 1
vt 0.4375 0.75
vt 0.8125 0.75
vt 0.8125 1
vt 0.4375 1
vt 0.4375 0.75
vt 0.8125 0.75
vt 1 0.75
vt 1 1
vt 0.8125 1
vt 0.8125 0.75
vt 1 0.75
vt 1 1
vt 0.8125 1
vt 0.8125 0.75
vt 0.125 0.5625
vt 0.5 0.5625
vt 0.5 0.75
vt 0.125 0.75
vt 0.5 0.5625
vt 0.125 0.5625
vt 0.125 0.75
vt 0.5 0.75
vt 1 0.1875
vt 1 0.3125
vt 0.875 0.3125
vt 0.875 0.1875
vt 0.875 0.3125
vt 1 0.3125
vt 1 0.25
vt 0.875 0.25
vt 1 0.25
vt 0.875 0.25
vt 0.875 0.1875
vt 1 0.1875
vt 0.9375 0.1875
vt 0.9375 0.3125
vt 0.875 0.3125
vt 0.875 0.1875
vt 1 0.1875
vt 1 0.3125
vt 0.9375 0.3125
vt 0.9375 0.1875
vt 1 0.1875
vt 1 0.3125
vt 0.875 0.3125
vt 0.875 0.1875
vt 0.875 0.3125
vt 1 0.3125
vt 1 0.25
vt 0.875 0.25
vt 1 0.25
vt 0.875 0.25
vt 0.875 0.1875
vt 1 0.1875
vt 0.9375 0.1875
vt 0.9375 0.3125
vt 0.875 0.3125
vt 0.875 0.1875
vt 1 0.1875
vt 1 0.3125
vt 0.9375 0.3125
vt 0.9375 0.1875
vn 0 -1 0
vn 0 0 1
vn 0 0 -1
vn 1 0 0
vn -1 0 0
vn 0 1 0
vn 0 -1 0
vn 0 0 1
vn 0 0 -1
vn 1 0 0
vn -1 0 0
vn 0 -1 0
vn 0 0 1
vn 0 0 -1
vn 1 0 0
vn -1 0 0
vn 0 -1 0
vn 0 0 1
vn 0 0 -1
vn 1 0 0
vn -1 0 0
vn 0 1 0
vn 0 0 1
vn 0 0 -1
vn -1 0 0
vn 1 0 0
vn 0 1 0
vn 0 -1 0
vn 0 0 -1
vn 0 0 1
vn -1 0 0
vn 0 1 0
vn 0 -1 0
vn 0 0 -1
vn 0 0 1
vn -1 0 0
vn 0 1 0
vn 0 -1 0
vn 0 0 -1
vn 0 0 1
vn 1 0 0
vn -1 0 0
vn 0 1 0
vn 0 -1 0
vn 0 0 1
vn 0 0 -1
vn 1 0 0
vn 0 1 0
vn 0 -1 0
vn 0 0 1
vn 0 0 -1
vn 1 0 0
vn 0 1 0
vn 0 -1 0
vn 0 0 1
vn 0 0 -1
usemtl advanced_inserter
f 149/449/113 150/450/113 151/451/113
f 149/449/113 151/451/113 152/452/113
f 146/453/114 145/454/114 152/455/114
f 146/453/114 152/455/114 151/456/114
f 148/457/115 147/458/115 150/459/115
f 148/457/115 150/459/115 149/460/115
f 147/461/116 146/462/116 151/463/116
f 147/461/116 151/463/116 150/464/116
f 145/465/117 148/466/117 149/467/117
f 145/465/117 149/467/117 152/468/117
f 153/469/118 154/470/118 158/471/118
f 153/469/118 158/471/118 157/472/118
f 156/473/119 155/474/119 159/475/119
f 156/473/119 159/475/119 160/476/119
f 155/477/120 153/478/120 157/479/120
f 155/477/120 157/479/120 159/480/120
f 160/481/121 158/482/121 154/483/121
f 160/481/121 154/483/121 156/484/121
usemtl tool_red
f 164/485/122 162/486/122 161/487/122
f 164/485/122 161/487/122 163/488/122
f 167/489/123 165/490/123 166/491/123
f 167/489/123 166/491/123 168/492/123
f 164/493/124 163/494/124 167/495/124
f 164/493/124 167/495/124 168/496/124
f 163/497/125 161/498/125 165/499/125
f 163/497/125 165/499/125 167/500/125
f 168/501/126 166/502/126 162/503/126
f 168/501/126 162/503/126 164/504/126
f 172/505/127 170/506/127 169/507/127
f 172/505/127 169/507/127 171/508/127
f 175/509/128 173/510/128 174/511/128
f 175/509/128 174/511/128 176/512/128
f 172/513/129 171/514/129 175/515/129
f 172/513/129 175/515/129 176/516/129
f 171/517/130 169/518/130 173/519/130
f 171/517/130 173/519/130 175/520/130
f 176/521/131 174/522/131 170/523/131
f 176/521/131 170/523/131 172/524/131
usemtl advanced_inserter
f 180/525/132 178/526/132 177/527/132
f 180/525/132 177/527/132 179/528/132
f 183/529/133 181/530/133 182/531/133
f 183/529/133 182/531/133 184/532/133
f 177/533/134 178/534/134 182/535/134
f 177/533/134 182/535/134 181/536/134
f 179/537/135 177/538/135 181/539/135
f 179/537/135 181/539/135 183/540/135
f 184/541/136 182/542/136 178/543/136
f 184/541/136 178/543/136 180/544/136
usemtl tool_red
f 188/545/137 186/546/137 185/547/137
f 188/545/137 185/547/137 187/548/137
f 191/549/138 189/550/138 190/551/138
f 191/549/138 190/551/138 192/552/138
f 185/553/139 186/554/139 190/555/139
f 185/553/139 190/555/139 189/556/139
f 188/557/140 187/558/140 191/559/140
f 188/557/140 191/559/140 192/560/140
f 187/561/141 185/562/141 189/563/141
f 187/561/141 189/563/141 191/564/141
f 192/565/142 190/566/142 186/567/142
f 192/565/142 186/567/142 188/568/142
f 196/569/143 194/570/143 193/571/143
f 196/569/143 193/571/143 195/572/143
f 193/573/144 194/574/144 198/575/144
f 193/573/144 198/575/144 197/576/144
f 196/577/145 195/578/145 199/579/145
f 196/577/145 199/579/145 200/580/145
f 195/581/146 193/582/146 197/583/146
f 195/581/146 197/583/146 199/584/146
f 200/585/147 198/586/147 194/587/147
f 200/585/147 194/587/147 196/588/147
f 204/589/148 202/590/148 201/591/148
f 204/589/148 201/591/148 203/592/148
f 201/593/149 202/594/149 206/595/149
f 201/593/149 206/595/149 205/596/149
f 204/597/150 203/598/150 207/599/150
f 204/597/150 207/599/150 208/600/150
f 203/601/151 201/602/151 205/603/151
f 203/601/151 205/603/151 207/604/151
f 208/605/152 206/606/152 202/607/152
f 208/605/152 202/607/152 204/608/152
f 212/609/153 210/610/153 209/611/153
f 212/609/153 209/611/153 211/612/153
f 215/613/154 213/614/154 214/615/154
f 215/613/154 214/615/154 216/616/154
f 209/617/155 210/618/155 214/619/155
f 209/617/155 214/619/155 213/620/155
f 212/621/156 211/622/156 215/623/156
f 212/621/156 215/623/156 216/624/156
f 211/625/157 209/626/157 213/627/157
f 211/625/157 213/627/157 215/628/157
f 216/629/158 214/630/158 210/631/158
f 216/629/158 210/631/158 212/632/158
f 220/633/159 218/634/159 217/635/159
f 220/633/159 217/635/159 219/636/159
f 217/637/160 218/638/160 222/639/160
f 217/637/160 222/639/160 221/640/160
f 220/641/161 219/642/161 223/643/161
f 220/641/161 223/643/161 224/644/161
f 219/645/162 217/646/162 221/647/162
f 219/645/162 221/647/162 223/648/162
f 224/649/163 222/650/163 218/651/163
f 224/649/163 218/651/163 220/652/163
f 228/653/164 226/654/164 225/655/164
f 228/653/164 225/655/164 227/656/164
f 225/657/165 226/658/165 230/659/165
f 225/657/165 230/659/165 229/660/165
f 228/661/166 227/662/166 231/663/166
f 228/661/166 231/663/166 232/664/166
f 227/665/167 225/666/167 229/667/167
f 227/665/167 229/667/167 231/668/167
f 232/669/168 230/670/168 226/671/168
f 232/669/168 226/671/168 228/672/168
o hammer
v 0.5625 2.4375 0.5625
v 0.5625 2.4375 0.4375
v 0.5625 2.25 0.5625
v 0.5625 2.25 0.4375
v 0.4375 2.4375 0.5625
v 0.4375 2.4375 0.4375
v 0.4375 2.25 0.5625
v 0.4375 2.25 0.4375
v 0.625 2.8125 0.625
v 0.625 2.8125 0.375
v 0.625 2.4375 0.625
v 0.625 2.4375 0.375
v 0.375 2.8125 0.625
v 0.375 2.8125 0.375
v 0.375 2.4375 0.625
v 0.375 2.4375 0.375
v 0.6875 2.265625 0.6875
v 0.75 2.265625 0.625
v 0.6875 2.140625 0.6875
v 0.75 2.140625 0.625
v 0.3125 2.265625 0.6875
v 0.25 2.265625 0.625
v 0.3125 2.140625 0.6875
v 0.25 2.140625 0.625
v 0.6875 2.140625 0.3125
v 0.75 2.140625 0.375
v 0.6875 2.015625 0.3125
v 0.75 2.015625 0.375
v 0.3125 2.140625 0.3125
v 0.25 2.140625 0.375
v 0.3125 2.015625 0.3125
v 0.25 2.015625 0.375
vt 0.625 0.375
vt 0.625 0.5625
vt 0.5 0.5625
vt 0.5 0.375
vt 0.625 0.375
vt 0.625 0.5625
vt 0.5 0.5625
vt 0.5 0.375
vt 0.625 0.375
vt 0.625 0.5625
vt 0.5 0.5625
vt 0.5 0.375
vt 0.625 0.375
vt 0.625 0.5625
vt 0.5 0.5625
vt 0.5 0.375
vt 1 0.5625
vt 0.625 0.5625
vt 0.625 0.3125
vt 1 0.3125
vt 1 0.5625
vt 0.625 0.5625
vt 0.625 0.3125
vt 1 0.3125
vt 0.4375 0.75
vt 0.4375 1
vt 0.1875 1
vt 0.1875 0.75
vt 0.1875 0.75
vt 0.1875 1
vt 0.4375 1
vt 0.4375 0.75
vt 1 0.3125
vt 0.625 0.3125
vt 0.625 0.5625
vt 1 0.5625
vt 1 0.3125
vt 0.625 0.3125
vt 0.625 0.5625
vt 1 0.5625
vt 0.6875 0.5625
vt 0.5625 0.5625
vt 0.5625 0.5
vt 0.6875 0.5
vt 0.6875 1
vt 0.5625 1
vt 0.5625 0.875
vt 0.6875 0.875
vt 0.5625 0.5625
vt 0.625 0.5
vt 0.625 1
vt 0.5625 0.9375
vt 0.625 0.5
vt 0.6875 0.5625
vt 0.6875 0.9375
vt 0.625 1
vt 0.6875 1
vt 0.5625 1
vt 0.5625 0.625
vt 0.6875 0.625
vt 0.6875 1
vt 0.5625 1
vt 0.5625 0.5
vt 0.6875 0.5
vt 0.5625 0.5
vt 0.5625 0.5625
vt 0.6875 0.5625
vt 0.6875 0.5
vt 0.5625 0.875
vt 0.5625 1
vt 0.6875 1
vt 0.6875 0.875
vt 0.625 1
vt 0.625 0.5
vt 0.5625 0.5625
vt 0.5625 0.9375
vt 0.6875 0.9375
vt 0.6875 0.5625
vt 0.625 0.5
vt 0.625 1
vt 0.5625 0.625
vt 0.5625 1
vt 0.6875 1
vt 0.6875 0.625
vt 0.5625 0.5
vt 0.5625 1
vt 0.6875 1
vt 0.6875 0.5
vn 1 0 0
vn -1 0 0
vn 0 0 1
vn 0 0 -1
vn 1 0 0
vn -1 0 0
vn 0 1 0
vn 0 -1 0
vn 0 0 1
vn 0 0 -1
vn 0.7071067811865476 0 0.7071067811865476
vn -0.7071067811865476 0 0.7071067811865476
vn 0 1 0
vn 0 -1 0
vn 0 0 1
vn 0 0 -1
vn 0.7071067811865476 0 -0.7071067811865476
vn -0.7071067811865476 0 -0.7071067811865476
vn 0 1 0
vn 0 -1 0
vn 0 0 -1
vn 0 0 1
usemtl tool_red
f 236/673/169 234/674/169 233/675/169
f 236/673/169 233/675/169 235/676/169
f 239/677/170 237/678/170 238/679/170
f 239/677/170 238/679/170 240/680/170
f 235/681/171 233/682/171 237/683/171
f 235/681/171 237/683/171 239/684/171
f 240/685/172 238/686/172 234/687/172
f 240/685/172 234/687/172 236/688/172
f 244/689/173 242/690/173 241/691/173
f 244/689/173 241/691/173 243/692/173
f 247/693/174 245/694/174 246/695/174
f 247/693/174 246/695/174 248/696/174
f 241/697/175 242/698/175 246/699/175
f 241/697/175 246/699/175 245/700/175
f 244/701/176 243/702/176 247/703/176
f 244/701/176 247/703/176 248/704/176
f 243/705/177 241/706/177 245/707/177
f 243/705/177 245/707/177 247/708/177
f 248/709/178 246/710/178 242/711/178
f 248/709/178 242/711/178 244/712/178
usemtl common_copper_cable
f 252/713/179 250/714/179 249/715/179
f 252/713/179 249/715/179 251/716/179
f 255/717/180 253/718/180 254/719/180
f 255/717/180 254/719/180 256/720/180
f 249/721/181 250/722/181 254/723/181
f 249/721/181 254/723/181 253/724/181
f 252/725/182 251/726/182 255/727/182
f 252/725/182 255/727/182 256/728/182
f 251/729/183 249/730/183 253/731/183
f 251/729/183 253/731/183 255/732/183
f 256/733/184 254/734/184 250/735/184
f 256/733/184 250/735/184 252/736/184
f 257/737/185 258/738/185 260/739/185
f 257/737/185 260/739/185 259/740/185
f 262/741/186 261/742/186 263/743/186
f 262/741/186 263/743/186 264/744/186
f 262/745/187 258/746/187 257/747/187
f 262/745/187 257/747/187 261/748/187
f 263/749/188 259/750/188 260/751/188
f 263/749/188 260/751/188 264/752/188
f 261/753/189 257/754/189 259/755/189
f 261/753/189 259/755/189 263/756/189
f 258/757/190 262/758/190 264/759/190
f 258/757/190 264/759/190 260/760/190