# Made by Pabilo8 with Blockbench
# Exported with IIToolkit Plugin
mtllib inserter.mtl


o pickerLeft2
v 0.65625 2.375 0.53125
v 0.65625 2.375 0.46875
v 0.65625 2.1875 0.53125
v 0.65625 2.1875 0.46875
v 0.59375 2.375 0.46875
v 0.59375 2.375 0.53125
v 0.59375 2.1875 0.46875
v 0.59375 2.1875 0.53125
vt 0.625 1
vt 0.6875 1
vt 0.6875 0.8125
vt 0.625 0.8125
vt 0.625 1
vt 0.6875 1
vt 0.6875 0.8125
vt 0.625 0.8125
vt 0.625 1
vt 0.6875 1
vt 0.6875 0.8125
vt 0.625 0.8125
vt 0.625 1
vt 0.6875 1
vt 0.6875 0.8125
vt 0.625 0.8125
vt 0.625 1
vt 0.6875 1
vt 0.6875 0.9375
vt 0.625 0.9375
vt 0.625 0.875
vt 0.6875 0.875
vt 0.6875 0.8125
vt 0.625 0.8125
vn 0 0 -1
vn 1 0 0
vn 0 0 1
vn -1 0 0
vn 0 1 0
vn 0 -1 0
usemtl inserter
f 7/3/1 5/2/1 2/1/1
f 4/4/1 7/3/1 2/1/1
f 4/7/2 2/6/2 1/5/2
f 3/8/2 4/7/2 1/5/2
f 3/11/3 1/10/3 6/9/3
f 8/12/3 3/11/3 6/9/3
f 8/15/4 6/14/4 5/13/4
f 7/16/4 8/15/4 5/13/4
f 1/19/5 2/18/5 5/17/5
f 6/20/5 1/19/5 5/17/5
f 4/23/6 3/22/6 8/21/6
f 7/24/6 4/23/6 8/21/6
o pickerLeft
v 0.65625 2.1875 0.53125
v 0.65625 2.1875 0.46875
v 0.65625 2 0.53125
v 0.65625 2 0.46875
v 0.59375 2.1875 0.46875
v 0.59375 2.1875 0.53125
v 0.59375 2 0.46875
v 0.59375 2 0.53125
vt 0.625 1
vt 0.6875 1
vt 0.6875 0.8125
vt 0.625 0.8125
vt 0.625 1
vt 0.6875 1
vt 0.6875 0.8125
vt 0.625 0.8125
vt 0.625 1
vt 0.6875 1
vt 0.6875 0.8125
vt 0.625 0.8125
vt 0.625 1
vt 0.6875 1
vt 0.6875 0.8125
vt 0.625 0.8125
vt 0.625 1
vt 0.6875 1
vt 0.6875 0.9375
vt 0.625 0.9375
vt 0.625 0.875
vt 0.6875 0.875
vt 0.6875 0.8125
vt 0.625 0.8125
vn 0 0 -1
vn 1 0 0
vn 0 0 1
vn -1 0 0
vn 0 1 0
vn 0 -1 0
usemtl inserter
f 15/27/7 13/26/7 10/25/7
f 12/28/7 15/27/7 10/25/7
f 12/31/8 10/30/8 9/29/8
f 11/32/8 12/31/8 9/29/8
f 11/35/9 9/34/9 14/33/9
f 16/36/9 11/35/9 14/33/9
f 16/39/10 14/38/10 13/37/10
f 15/40/10 16/39/10 13/37/10
f 9/43/11 10/42/11 13/41/11
f 14/44/11 9/43/11 13/41/11
f 12/47/12 11/46/12 16/45/12
f 15/48/12 12/47/12 16/45/12
o pickerRight2
v 0.40625 2.375 0.53125
v 0.40625 2.375 0.46875
v 0.40625 2.1875 0.53125
v 0.40625 2.1875 0.46875
v 0.34375 2.375 0.46875
v 0.34375 2.375 0.53125
v 0.34375 2.1875 0.46875
v 0.34375 2.1875 0.53125
vt 0.625 1
vt 0.6875 1
vt 0.6875 0.8125
vt 0.625 0.8125
vt 0.625 1
vt 0.6875 1
vt 0.6875 0.8125
vt 0.625 0.8125
vt 0.625 1
vt 0.6875 1
vt 0.6875 0.8125
vt 0.625 0.8125
vt 0.625 1
vt 0.6875 1
vt 0.6875 0.8125
vt 0.625 0.8125
vt 0.625 1
vt 0.6875 1
vt 0.6875 0.9375
vt 0.625 0.9375
vt 0.625 0.875
vt 0.6875 0.875
vt 0.6875 0.8125
vt 0.625 0.8125
vn 0 0 -1
vn 1 0 0
vn 0 0 1
vn -1 0 0
vn 0 1 0
vn 0 -1 0
usemtl inserter
f 23/51/13 21/50/13 18/49/13
f 20/52/13 23/51/13 18/49/13
f 20/55/14 18/54/14 17/53/14
f 19/56/14 20/55/14 17/53/14
f 19/59/15 17/58/15 22/57/15
f 24/60/15 19/59/15 22/57/15
f 24/63/16 22/62/16 21/61/16
f 23/64/16 24/63/16 21/61/16
f 17/67/17 18/66/17 21/65/17
f 22/68/17 17/67/17 21/65/17
f 20/71/18 19/70/18 24/69/18
f 23/72/18 20/71/18 24/69/18
o pickerRight
v 0.40625 2.1875 0.53125
v 0.40625 2.1875 0.46875
v 0.40625 2 0.53125
v 0.40625 2 0.46875
v 0.34375 2.1875 0.46875
v 0.34375 2.1875 0.53125
v 0.34375 2 0.46875
v 0.34375 2 0.53125
vt 0.625 1
vt 0.6875 1
vt 0.6875 0.8125
vt 0.625 0.8125
vt 0.625 1
vt 0.6875 1
vt 0.6875 0.8125
vt 0.625 0.8125
vt 0.625 1
vt 0.6875 1
vt 0.6875 0.8125
vt 0.625 0.8125
vt 0.625 1
vt 0.6875 1
vt 0.6875 0.8125
vt 0.625 0.8125
vt 0.625 1
vt 0.6875 1
vt 0.6875 0.9375
vt 0.625 0.9375
vt 0.625 0.875
vt 0.6875 0.875
vt 0.6875 0.8125
vt 0.625 0.8125
vn 0 0 -1
vn 1 0 0
vn 0 0 1
vn -1 0 0
vn 0 1 0
vn 0 -1 0
usemtl inserter
f 31/75/19 29/74/19 26/73/19
f 28/76/19 31/75/19 26/73/19
f 28/79/20 26/78/20 25/77/20
f 27/80/20 28/79/20 25/77/20
f 27/83/21 25/82/21 30/81/21
f 32/84/21 27/83/21 30/81/21
f 32/87/22 30/86/22 29/85/22
f 31/88/22 32/87/22 29/85/22
f 25/91/23 26/90/23 29/89/23
f 30/92/23 25/91/23 29/89/23
f 28/95/24 27/94/24 32/93/24
f 31/96/24 28/95/24 32/93/24
o upper
v 0.46875 1.9375 0.53125
v 0.53125 1.9375 0.53125
v 0.53125 1.9375 0.46875
v 0.46875 1.9375 0.46875
v 0.46875 1.375 0.46875
v 0.53125 1.375 0.46875
v 0.53125 1.375 0.53125
v 0.46875 1.375 0.53125
v 0.34375 2 0.53125
v 0.65625 2 0.53125
v 0.65625 2 0.46875
v 0.34375 2 0.46875
v 0.40625 1.9375 0.46875
v 0.59375 1.9375 0.46875
v 0.59375 1.9375 0.53125
v 0.40625 1.9375 0.53125
v 0.5625 1.40625 0.5625
v 0.5625 1.40625 0.4375
v 0.5625 1.28125 0.5625
v 0.5625 1.28125 0.4375
v 0.4375 1.40625 0.5625
v 0.4375 1.40625 0.4375
v 0.4375 1.28125 0.5625
v 0.4375 1.28125 0.4375
vt 1 0.25
vt 0.9375 0.25
vt 0.9375 0.3125
vt 1 0.3125
vt 1 0.375
vt 0.9375 0.375
vt 0.9375 0.4375
vt 1 0.4375
vt 0.4375 0.5
vt 0.5 0.5
vt 0.5 0
vt 0.4375 0
vt 0.4375 0.5
vt 0.5 0.5
vt 0.5 0.1875
vt 0.4375 0.1875
vt 0.4375 0.5
vt 0.5 0.5
vt 0.5 0
vt 0.4375 0
vt 0.4375 0.5
vt 0.5 0.5
vt 0.5 0
vt 0.4375 0
vt 0.5 0.5
vt 0.5 0.1875
vt 0.4375 0.1875
vt 0.4375 0.5
vt 0.4375 0.5
vt 0.4375 0.3125
vt 0.375 0.3125
vt 0.375 0.5
vt 0.43750000000000006 0
vt 0.4375 0.5
vt 0.5 0.375
vt 0.5 0.125
vt 0.43750000000000006 0
vt 0.4375 0.5
vt 0.5 0.4375
vt 0.5 0.125
vt 0.4375 0.5
vt 0.5 0.5
vt 0.5 0.375
vt 0.4375 0.375
vt 0.4375 0.5
vt 0.5 0.5
vt 0.5 0.375
vt 0.4375 0.375
vt 0.625 1
vt 0.625 0.875
vt 0.5 0.875
vt 0.5 1
vt 0.625 1
vt 0.625 0.875
vt 0.5 0.875
vt 0.5 1
vt 0.625 0.875
vt 0.625 1
vt 0.5 1
vt 0.5 0.875
vt 0.5 1
vt 0.5 0.875
vt 0.625 0.875
vt 0.625 1
vn 0 1 0
vn 0 -1 0
vn 0 0 1
vn 0 0 -1
vn 1 0 0
vn -1 0 0
vn 0 1 0
vn 0 -1 0
vn 0 0 1
vn 0 0 -1
vn 0.7071067811865476 -0.7071067811865476 0
vn -0.7071067811865476 -0.7071067811865476 0
vn 0 1 0
vn 0 -1 0
vn 0 0 1
vn 0 0 -1
usemtl inserter
f 33/97/25 34/98/25 35/99/25
f 33/97/25 35/99/25 36/100/25
f 37/101/26 38/102/26 39/103/26
f 37/101/26 39/103/26 40/104/26
f 34/105/27 33/106/27 40/107/27
f 34/105/27 40/107/27 39/108/27
f 36/109/28 35/110/28 38/111/28
f 36/109/28 38/111/28 37/112/28
f 35/113/29 34/114/29 39/115/29
f 35/113/29 39/115/29 38/116/29
f 33/117/30 36/118/30 37/119/30
f 33/117/30 37/119/30 40/120/30
f 41/121/31 42/122/31 43/123/31
f 41/121/31 43/123/31 44/124/31
f 45/125/32 46/126/32 47/127/32
f 45/125/32 47/127/32 48/128/32
f 42/129/33 41/130/33 48/131/33
f 42/129/33 48/131/33 47/132/33
f 44/133/34 43/134/34 46/135/34
f 44/133/34 46/135/34 45/136/34
f 43/137/35 42/138/35 47/139/35
f 43/137/35 47/139/35 46/140/35
f 41/141/36 44/142/36 45/143/36
f 41/141/36 45/143/36 48/144/36
f 49/145/37 50/146/37 54/147/37
f 49/145/37 54/147/37 53/148/37
f 52/149/38 51/150/38 55/151/38
f 52/149/38 55/151/38 56/152/38
f 51/153/39 49/154/39 53/155/39
f 51/153/39 53/155/39 55/156/39
f 56/157/40 54/158/40 50/159/40
f 56/157/40 50/159/40 52/160/40
o lower
v 0.459375 1.4375 0.59375
v 0.459375 1.4375 0.40625
v 0.459375 1.25 0.59375
v 0.459375 1.25 0.40625
v 0.271875 1.4375 0.59375
v 0.271875 1.4375 0.40625
v 0.271875 1.25 0.59375
v 0.271875 1.25 0.40625
v 0.540625 1.4375 0.59375
v 0.540625 1.4375 0.40625
v 0.540625 1.25 0.59375
v 0.540625 1.25 0.40625
v 0.728125 1.4375 0.59375
v 0.728125 1.4375 0.40625
v 0.728125 1.25 0.59375
v 0.728125 1.25 0.40625
v 0.6875 0.5625 0.5625
v 0.6875 0.5625 0.4375
v 0.6875 0.4375 0.5625
v 0.6875 0.4375 0.4375
v 0.3125 0.5625 0.5625
v 0.3125 0.5625 0.4375
v 0.3125 0.4375 0.5625
v 0.3125 0.4375 0.4375
v 0.6875 1.1875 0.46875
v 0.6875 1.1875 0.40625
v 0.6875 0.6875 0.46875
v 0.6875 0.6875 0.40625
v 0.3125 1.1875 0.46875
v 0.3125 1.1875 0.40625
v 0.3125 0.6875 0.46875
v 0.3125 0.6875 0.40625
v 0.65625 1.1562499999999996 0.40625
v 0.65625 1.1562499999999996 0.375
v 0.65625 0.96875 0.40625
v 0.65625 0.96875 0.375
v 0.34375 1.1562499999999996 0.40625
v 0.34375 1.1562499999999996 0.375
v 0.34375 0.96875 0.40625
v 0.34375 0.96875 0.375
v 0.65625 0.9374999999999996 0.40625
v 0.65625 0.9374999999999996 0.375
v 0.65625 0.75 0.40625
v 0.65625 0.75 0.375
v 0.34375 0.9374999999999996 0.40625
v 0.34375 0.9374999999999996 0.375
v 0.34375 0.75 0.40625
v 0.34375 0.75 0.375
v 0.65625 1.25 0.546875
v 0.65625 1.25 0.453125
v 0.65625 0.625 0.546875
v 0.65625 0.625 0.45312500000000006
v 0.5625 1.25 0.546875
v 0.5625 1.25 0.453125
v 0.5625 0.625 0.546875
v 0.5625 0.625 0.45312500000000006
v 0.65625 0.9375 0.453125
v 0.65625 0.9375 0.546875
v 0.5625 0.9375 0.546875
v 0.5625 0.9375 0.453125
v 0.4375 1.25 0.546875
v 0.4375 1.25 0.453125
v 0.4375 0.625 0.546875
v 0.4375 0.625 0.45312500000000006
v 0.34375 1.25 0.546875
v 0.34375 1.25 0.453125
v 0.34375 0.625 0.546875
v 0.34375 0.625 0.45312500000000006
v 0.4375 0.9375 0.453125
v 0.4375 0.9375 0.546875
v 0.34375 0.9375 0.546875
v 0.34375 0.9375 0.453125
v 0.4375 0.5625 0.421875
v 0.4375 0.5625 0.359375
v 0.4375 0.4375 0.421875
v 0.4375 0.4375 0.359375
v 0.34375 0.5625 0.421875
v 0.34375 0.5625 0.359375
v 0.34375 0.4375 0.421875
v 0.34375 0.4375 0.359375
v 0.4375 0.5625 0.640625
v 0.4375 0.5625 0.578125
v 0.4375 0.4375 0.640625
v 0.4375 0.4375 0.578125
v 0.34375 0.5625 0.640625
v 0.34375 0.5625 0.578125
v 0.34375 0.4375 0.640625
v 0.34375 0.4375 0.578125
v 0.65625 0.5625 0.421875
v 0.65625 0.5625 0.359375
v 0.65625 0.4375 0.421875
v 0.65625 0.4375 0.359375
v 0.5625 0.5625 0.421875
v 0.5625 0.5625 0.359375
v 0.5625 0.4375 0.421875
v 0.5625 0.4375 0.359375
v 0.65625 0.5625 0.640625
v 0.65625 0.5625 0.578125
v 0.65625 0.4375 0.640625
v 0.65625 0.4375 0.578125
v 0.5625 0.5625 0.640625
v 0.5625 0.5625 0.578125
v 0.5625 0.4375 0.640625
v 0.5625 0.4375 0.578125
vt 0.09375 0.8125
vt 0.09375 1
vt 0 1
vt 0 0.8125
vt 0.8125 0.8125
vt 0.8125 0.625
vt 0.625 0.625
vt 0.625 0.8125
vt 0.8125 0.625
vt 0.8125 0.8125
vt 1 0.8125
vt 1 0.625
vt 0.8125 0.8125
vt 0.8125 0.625
vt 1 0.625
vt 1 0.8125
vt 0.8125 0.625
vt 0.8125 0.8125
vt 1 0.8125
vt 1 0.625
vt 1 0.625
vt 1 0.8125
vt 0.8125 0.8125
vt 0.8125 0.625
vt 0 1
vt 0.09375 1
vt 0.09375 0.8125
vt 0 0.8125
vt 0.625 0.625
vt 0.8125 0.625
vt 0.8125 0.8125
vt 0.625 0.8125
vt 1 0.8125
vt 0.8125 0.8125
vt 0.8125 0.625
vt 1 0.625
vt 1 0.625
vt 0.8125 0.625
vt 0.8125 0.8125
vt 1 0.8125
vt 1 0.8125
vt 0.8125 0.8125
vt 0.8125 0.625
vt 1 0.625
vt 0.8125 0.8125
vt 1 0.8125
vt 1 0.625
vt 0.8125 0.625
vt 0.0625 0.875
vt 0.0625 1
vt 0 1
vt 0 0.875
vt 0.0625 0.875
vt 0.0625 1
vt 0 1
vt 0 0.875
vt 0.5 0.625
vt 0.625 0.625
vt 0.625 1
vt 0.5 1
vt 0.625 0.625
vt 0.5 0.625
vt 0.5 1
vt 0.625 1
vt 0.625 0.625
vt 0.49999999999999994 0.625
vt 0.49999999999999994 1
vt 0.625 1
vt 0.5 1
vt 0.625 1
vt 0.625 0.625
vt 0.5 0.625
vt 0 0.5
vt 0 0
vt 0.03125 0
vt 0.03125 0.5
vt 0.34375 0
vt 0.34375 0.5
vt 0.375 0.5
vt 0.375 0
vt 0 0.0625
vt 0 0
vt 0.375 0
vt 0.375 0.0625
vt 0 0.5
vt 0 0.4375
vt 0.375 0.4375
vt 0.375 0.5
vt 0.375 0.5
vt 0.375 0
vt 0 0
vt 0 0.5
vt 0.375 0.5
vt 0.375 0
vt 0 0
vt 0 0.5
vt 0.71875 0.8125000000000004
vt 0.71875 1
vt 0.6875 1
vt 0.6875 0.8125000000000004
vt 1 0.8125000000000004
vt 1 1
vt 0.96875 1
vt 0.96875 0.8125000000000004
vt 0.6875 0.9375
vt 0.6875 1
vt 1 1
vt 1 0.9375
vt 0.6875 0.8125
vt 0.6875 0.875
vt 1 0.875
vt 1 0.8125
vt 1 0.8125000000000004
vt 1 1
vt 0.6875 1
vt 0.6875 0.8125000000000004
vt 0.71875 0.8125000000000004
vt 0.71875 1
vt 0.6875 1
vt 0.6875 0.8125000000000004
vt 1 0.8125000000000004
vt 1 1
vt 0.96875 1
vt 0.96875 0.8125000000000004
vt 0.6875 0.9375
vt 0.6875 1
vt 1 1
vt 1 0.9375
vt 0.6875 0.8125
vt 0.6875 0.875
vt 1 0.875
vt 1 0.8125
vt 1 0.8125000000000004
vt 1 1
vt 0.6875 1
vt 0.6875 0.8125000000000004
vt 0.375 0.5
vt 0.375 0.1875
vt 0.5 0.1875
vt 0.5 0.5
vt 0.375 0.5
vt 0.375 0.1875
vt 0.5 0.1875
vt 0.5 0.5
vt 0.046875 0.90625
vt 0.046875 1
vt 0 1
vt 0 0.90625
vt 0.046875 0.90625
vt 0.046875 1
vt 0 1
vt 0 0.90625
vt 0.5 0.5
vt 0.5 0.1875
vt 0.375 0.1875
vt 0.375 0.5
vt 0.375 0.5
vt 0.375 0.1875
vt 0.5 0.1875
vt 0.5 0.5
vt 0.5 0.5
vt 0.5 0.1875
vt 0.375 0.1875
vt 0.375 0.5
vt 0.375 0.5
vt 0.375 0.1875
vt 0.5 0.1875
vt 0.5 0.5
vt 0.5 0.5
vt 0.5 0.1875
vt 0.375 0.1875
vt 0.375 0.5
vt 0.375 0.5
vt 0.375 0.1875
vt 0.5 0.1875
vt 0.5 0.5
vt 0.375 0.5
vt 0.375 0.1875
vt 0.5 0.1875
vt 0.5 0.5
vt 0.375 0.5
vt 0.375 0.1875
vt 0.5 0.1875
vt 0.5 0.5
vt 0.046875 0.90625
vt 0.046875 1
vt 0 1
vt 0 0.90625
vt 0.046875 0.90625
vt 0.046875 1
vt 0 1
vt 0 0.90625
vt 0.5 0.5
vt 0.5 0.1875
vt 0.375 0.1875
vt 0.375 0.5
vt 0.375 0.5
vt 0.375 0.1875
vt 0.5 0.1875
vt 0.5 0.5
vt 0.5 0.5
vt 0.5 0.1875
vt 0.375 0.1875
vt 0.375 0.5
vt 0.375 0.5
vt 0.375 0.1875
vt 0.5 0.1875
vt 0.5 0.5
vt 0.5 0.5
vt 0.5 0.1875
vt 0.375 0.1875
vt 0.375 0.5
vt 0.375 0.5
vt 0.375 0.1875
vt 0.5 0.1875
vt 0.5 0.5
vt 0.4375 0.375
vt 0.4375 0.125
vt 0.375 0.125
vt 0.375 0.375
vt 0.5 0.375
vt 0.5 0.125
vt 0.4375 0.125
vt 0.4375 0.375
vt 0.375 0.25
vt 0.375 0.375
vt 0.5 0.375
vt 0.5 0.25
vt 0.375 0.125
vt 0.375 0.375
vt 0.5 0.375
vt 0.5 0.125
vt 0.5 0.375
vt 0.5 0.125
vt 0.375 0.125
vt 0.375 0.375
vt 0.4375 0.375
vt 0.4375 0.125
vt 0.375 0.125
vt 0.375 0.375
vt 0.5 0.375
vt 0.5 0.125
vt 0.4375 0.125
vt 0.4375 0.375
vt 0.046875 0.9375
vt 0.046875 1
vt 0 1
vt 0 0.9375
vt 0.375 0.125
vt 0.375 0.375
vt 0.5 0.375
vt 0.5 0.125
vt 0.375 0.125
vt 0.375 0.375
vt 0.5 0.375
vt 0.5 0.125
vt 0.3773437500000002 0
vt 0.43515625 0.09999999999999998
vt 0.43671875000000016 0.1875
vt 0.3773437500000002 0.28437500000000004
vt 0.4984375 0
vt 0.44062500000000016 0.09999999999999998
vt 0.4390625 0.1875
vt 0.4984375 0.28437500000000004
vt 0.375 0.375
vt 0.375 0.125
vt 0.5 0.125
vt 0.5 0.375
vt 0.375 0.375
vt 0.375 0
vt 0.5 0
vt 0.5 0.375
vt 0.5 0.375
vt 0.5 0
vt 0.375 0
vt 0.375 0.375
vt 0.4375 0.375
vt 0.4375 0.125
vt 0.375 0.125
vt 0.375 0.375
vt 0.5 0.375
vt 0.5 0.125
vt 0.4375 0.125
vt 0.4375 0.375
vt 0.375 0.25
vt 0.375 0.375
vt 0.5 0.375
vt 0.5 0.25
vt 0.375 0.125
vt 0.375 0.375
vt 0.5 0.375
vt 0.5 0.125
vt 0.5 0.375
vt 0.5 0.125
vt 0.375 0.125
vt 0.375 0.375
vt 0.4375 0.375
vt 0.4375 0.125
vt 0.375 0.125
vt 0.375 0.375
vt 0.5 0.375
vt 0.5 0.125
vt 0.4375 0.125
vt 0.4375 0.375
vt 0.046875 0.9375
vt 0.046875 1
vt 0 1
vt 0 0.9375
vt 0.375 0.125
vt 0.375 0.375
vt 0.5 0.375
vt 0.5 0.125
vt 0.375 0.125
vt 0.375 0.375
vt 0.5 0.375
vt 0.5 0.125
vt 0.3773437500000002 0
vt 0.43515625 0.09999999999999998
vt 0.43671875000000016 0.1875
vt 0.3773437500000002 0.28437500000000004
vt 0.4984375 0
vt 0.44062500000000016 0.09999999999999998
vt 0.4390625 0.1875
vt 0.4984375 0.28437500000000004
vt 0.375 0.375
vt 0.375 0.125
vt 0.5 0.125
vt 0.5 0.375
vt 0.375 0.375
vt 0.375 0
vt 0.5 0
vt 0.5 0.375
vt 0.5 0.375
vt 0.5 0
vt 0.375 0
vt 0.375 0.375
vn 1 0 0
vn -1 0 0
vn 0 1 0
vn 0 -1 0
vn 0 0 1
vn 0 0 -1
vn -1 0 0
vn 1 0 0
vn 0 1 0
vn 0 -1 0
vn 0 0 1
vn 0 0 -1
vn 1 0 0
vn -1 0 0
vn 0 1 0
vn 0 -1 0
vn 0 0 1
vn 0 0 -1
vn 1 0 0
vn -1 0 0
vn 0 1 0
vn 0 -1 0
vn 0 0 1
vn 0 0 -1
vn 1 0 0
vn -1 0 0
vn 0 1 0
vn 0 -1 0
vn 0 0 -1
vn 1 0 0
vn -1 0 0
vn 0 1 0
vn 0 -1 0
vn 0 0 -1
vn 1 0 0
vn -1 0 0
vn 0 1 0
vn 0 -1 0
vn 0 0 1
vn 0 0 -1
vn 1 0 0
vn 0 0 1
vn -1 -2.2204460492503132e-17 0
vn 0 -1.1102230246251565e-16 -1
vn 1 0 0
vn -1 0 0
vn 0 1 0
vn 0 -1 0
vn 0 0 1
vn 0 0 -1
vn 1 0 0
vn 0 0 1
vn -1 0 0
vn 0 -1.1102230246251565e-16 -1
vn 1 0 0
vn -1 0 0
vn 0 -1 0
vn 0 0 1
vn 0 0 -1
vn 1 0 0
vn -1 0 0
vn 0 -1 0
vn 0 0 1
vn 0 0 -1
vn 1 0 0
vn -1 0 0
vn 0 1 0
vn 0 0.8320502943378438 0.5547001962252291
vn 0 0.8320502943378438 -0.554700196225229
vn 1 0 0
vn -1 0 0
vn 0 -1 0
vn 0 0 1
vn 0 0 -1
vn 1 0 0
vn -1 0 0
vn 0 -1 0
vn 0 0 1
vn 0 0 -1
vn 1 0 0
vn -1 0 0
vn 0 1 0
vn 0 0.8320502943378438 0.5547001962252291
vn 0 0.8320502943378438 -0.554700196225229
usemtl inserter
f 60/161/41 58/162/41 57/163/41
f 60/161/41 57/163/41 59/164/41
f 63/165/42 61/166/42 62/167/42
f 63/165/42 62/167/42 64/168/42
f 57/169/43 58/170/43 62/171/43
f 57/169/43 62/171/43 61/172/43
f 60/173/44 59/174/44 63/175/44
f 60/173/44 63/175/44 64/176/44
f 59/177/45 57/178/45 61/179/45
f 59/177/45 61/179/45 63/180/45
f 64/181/46 62/182/46 58/183/46
f 64/181/46 58/183/46 60/184/46
f 65/185/47 66/186/47 68/187/47
f 65/185/47 68/187/47 67/188/47
f 70/189/48 69/190/48 71/191/48
f 70/189/48 71/191/48 72/192/48
f 70/193/49 66/194/49 65/195/49
f 70/193/49 65/195/49 69/196/49
f 71/197/50 67/198/50 68/199/50
f 71/197/50 68/199/50 72/200/50
f 69/201/51 65/202/51 67/203/51
f 69/201/51 67/203/51 71/204/51
f 66/205/52 70/206/52 72/207/52
f 66/205/52 72/207/52 68/208/52
f 76/209/53 74/210/53 73/211/53
f 76/209/53 73/211/53 75/212/53
f 79/213/54 77/214/54 78/215/54
f 79/213/54 78/215/54 80/216/54
f 73/217/55 74/218/55 78/219/55
f 73/217/55 78/219/55 77/220/55
f 76/221/56 75/222/56 79/223/56
f 76/221/56 79/223/56 80/224/56
f 75/225/57 73/226/57 77/227/57
f 75/225/57 77/227/57 79/228/57
f 80/229/58 78/230/58 74/231/58
f 80/229/58 74/231/58 76/232/58
f 84/233/59 82/234/59 81/235/59
f 84/233/59 81/235/59 83/236/59
f 87/237/60 85/238/60 86/239/60
f 87/237/60 86/239/60 88/240/60
f 81/241/61 82/242/61 86/243/61
f 81/241/61 86/243/61 85/244/61
f 84/245/62 83/246/62 87/247/62
f 84/245/62 87/247/62 88/248/62
f 83/249/63 81/250/63 85/251/63
f 83/249/63 85/251/63 87/252/63
f 88/253/64 86/254/64 82/255/64
f 88/253/64 82/255/64 84/256/64
f 92/257/65 90/258/65 89/259/65
f 92/257/65 89/259/65 91/260/65
f 95/261/66 93/262/66 94/263/66
f 95/261/66 94/263/66 96/264/66
f 89/265/67 90/266/67 94/267/67
f 89/265/67 94/267/67 93/268/67
f 92/269/68 91/270/68 95/271/68
f 92/269/68 95/271/68 96/272/68
f 96/273/69 94/274/69 90/275/69
f 96/273/69 90/275/69 92/276/69
f 100/277/70 98/278/70 97/279/70
f 100/277/70 97/279/70 99/280/70
f 103/281/71 101/282/71 102/283/71
f 103/281/71 102/283/71 104/284/71
f 97/285/72 98/286/72 102/287/72
f 97/285/72 102/287/72 101/288/72
f 100/289/73 99/290/73 103/291/73
f 100/289/73 103/291/73 104/292/73
f 104/293/74 102/294/74 98/295/74
f 104/293/74 98/295/74 100/296/74
f 105/297/75 114/298/75 113/299/75
f 105/297/75 113/299/75 106/300/75
f 110/301/76 116/302/76 115/303/76
f 110/301/76 115/303/76 109/304/76
f 105/305/77 106/306/77 110/307/77
f 105/305/77 110/307/77 109/308/77
f 108/309/78 107/310/78 111/311/78
f 108/309/78 111/311/78 112/312/78
f 109/313/79 115/314/79 114/315/79
f 109/313/79 114/315/79 105/316/79
f 106/317/80 113/318/80 116/319/80
f 106/317/80 116/319/80 110/320/80
f 108/321/81 113/322/81 114/323/81
f 108/321/81 114/323/81 107/324/81
f 107/325/82 114/326/82 115/327/82
f 107/325/82 115/327/82 111/328/82
f 111/329/83 115/330/83 116/331/83
f 111/329/83 116/331/83 112/332/83
f 112/333/84 116/334/84 113/335/84
f 112/333/84 113/335/84 108/336/84
f 117/337/85 126/338/85 125/339/85
f 117/337/85 125/339/85 118/340/85
f 122/341/86 128/342/86 127/343/86
f 122/341/86 127/343/86 121/344/86
f 117/345/87 118/346/87 122/347/87
f 117/345/87 122/347/87 121/348/87
f 120/349/88 119/350/88 123/351/88
f 120/349/88 123/351/88 124/352/88
f 121/353/89 127/354/89 126/355/89
f 121/353/89 126/355/89 117/356/89
f 118/357/90 125/358/90 128/359/90
f 118/357/90 128/359/90 122/360/90
f 120/361/91 125/362/91 126/363/91
f 120/361/91 126/363/91 119/364/91
f 119/365/92 126/366/92 127/367/92
f 119/365/92 127/367/92 123/368/92
f 123/369/93 127/370/93 128/371/93
f 123/369/93 128/371/93 124/372/93
f 124/373/94 128/374/94 125/375/94
f 124/373/94 125/375/94 120/376/94
f 132/377/95 130/378/95 129/379/95
f 132/377/95 129/379/95 131/380/95
f 135/381/96 133/382/96 134/383/96
f 135/381/96 134/383/96 136/384/96
f 132/385/97 131/386/97 135/387/97
f 132/385/97 135/387/97 136/388/97
f 131/389/98 129/390/98 133/391/98
f 131/389/98 133/391/98 135/392/98
f 136/393/99 134/394/99 130/395/99
f 136/393/99 130/395/99 132/396/99
f 140/397/100 138/398/100 137/399/100
f 140/397/100 137/399/100 139/400/100
f 143/401/101 141/402/101 142/403/101
f 143/401/101 142/403/101 144/404/101
f 140/405/102 139/406/102 143/407/102
f 140/405/102 143/407/102 144/408/102
f 139/409/103 137/410/103 141/411/103
f 139/409/103 141/411/103 143/412/103
f 144/413/104 142/414/104 138/415/104
f 144/413/104 138/415/104 140/416/104
f 130/417/105 120/418/105 119/419/105
f 130/417/105 119/419/105 137/420/105
f 141/421/106 123/422/106 124/423/106
f 141/421/106 124/423/106 134/424/106
f 119/425/107 120/426/107 124/427/107
f 119/425/107 124/427/107 123/428/107
f 137/429/108 119/430/108 123/431/108
f 137/429/108 123/431/108 141/432/108
f 134/433/109 124/434/109 120/435/109
f 134/433/109 120/435/109 130/436/109
f 148/437/110 146/438/110 145/439/110
f 148/437/110 145/439/110 147/440/110
f 151/441/111 149/442/111 150/443/111
f 151/441/111 150/443/111 152/444/111
f 148/445/112 147/446/112 151/447/112
f 148/445/112 151/447/112 152/448/112
f 147/449/113 145/450/113 149/451/113
f 147/449/113 149/451/113 151/452/113
f 152/453/114 150/454/114 146/455/114
f 152/453/114 146/455/114 148/456/114
f 156/457/115 154/458/115 153/459/115
f 156/457/115 153/459/115 155/460/115
f 159/461/116 157/462/116 158/463/116
f 159/461/116 158/463/116 160/464/116
f 156/465/117 155/466/117 159/467/117
f 156/465/117 159/467/117 160/468/117
f 155/469/118 153/470/118 157/471/118
f 155/469/118 157/471/118 159/472/118
f 160/473/119 158/474/119 154/475/119
f 160/473/119 154/475/119 156/476/119
f 146/477/120 108/478/120 107/479/120
f 146/477/120 107/479/120 153/480/120
f 157/481/121 111/482/121 112/483/121
f 157/481/121 112/483/121 150/484/121
f 107/485/122 108/486/122 112/487/122
f 107/485/122 112/487/122 111/488/122
f 153/489/123 107/490/123 111/491/123
f 153/489/123 111/491/123 157/492/123
f 150/493/124 112/494/124 108/495/124
f 150/493/124 108/495/124 146/496/124
o inserter
v 0.75 0.375 0.75
v 0.75 0.375 0.25
v 0.75 0.3125 0.75
v 0.75 0.3125 0.25
v 0.25 0.375 0.75
v 0.25 0.375 0.25
v 0.25 0.3125 0.75
v 0.25 0.3125 0.25
v 0.625 0.3125 0.625
v 0.625 0.3125 0.375
v 0.625 0.25 0.625
v 0.625 0.25 0.375
v 0.375 0.3125 0.625
v 0.375 0.3125 0.375
v 0.375 0.25 0.625
v 0.375 0.25 0.375
v 0.3125 0.5625 0.625
v 0.3125 0.5625 0.375
v 0.3125 0.375 0.625
v 0.3125 0.375 0.375
v 0.25 0.5625 0.625
v 0.25 0.5625 0.375
v 0.25 0.375 0.625
v 0.25 0.375 0.375
v 0.75 0.5625 0.625
v 0.75 0.5625 0.375
v 0.75 0.375 0.625
v 0.75 0.375 0.375
v 0.6875 0.5625 0.625
v 0.6875 0.5625 0.375
v 0.6875 0.375 0.625
v 0.6875 0.375 0.375
v 0.3125 0.625 0.5625
v 0.3125 0.625 0.4375
v 0.25 0.625 0.5625
v 0.25 0.625 0.4375
v 0.75 0.625 0.5625
v 0.75 0.625 0.4375
v 0.6875 0.625 0.5625
v 0.6875 0.625 0.4375
vt 0.5 1
vt 0.4375 1
vt 0.4375 0.5
vt 0.5 0.5
vt 0.0625 1
vt 0 1
vt 0 0.5
vt 0.0625 0.5
vt 0.5 0.5
vt 0.5 1
vt 0 1
vt 0 0.5
vt 0.5 0.5
vt 0.5 1
vt 0 1
vt 0 0.5
vt 0.5 0.9375
vt 0.5 1
vt 0 1
vt 0 0.9375
vt 0 0.5
vt 0 0.5625
vt 0.5 0.5625
vt 0.5 0.5
vt 0.75 0.4375
vt 0.75 0.5
vt 0.5 0.5
vt 0.5 0.4375
vt 0.75 0.375
vt 0.75 0.4375
vt 0.5 0.4375
vt 0.5 0.375
vt 0.75 0.375
vt 0.75 0.4375
vt 0.5 0.4375
vt 0.5 0.375
vt 0.75 0.4375
vt 0.75 0.5
vt 0.5 0.5
vt 0.5 0.4375
vt 0.375 0.5
vt 0.375 0.6875
vt 0.125 0.6875
vt 0.125 0.5
vt 0.375 0.5
vt 0.375 0.6875
vt 0.125 0.6875
vt 0.125 0.5
vt 0.375 0.5
vt 0.375 0.6875
vt 0.3125 0.6875
vt 0.3125 0.5
vt 0.1875 0.5
vt 0.1875 0.6875
vt 0.125 0.6875
vt 0.125 0.5
vt 0.375 0.5
vt 0.375 0.6875
vt 0.125 0.6875
vt 0.125 0.5
vt 0.375 0.5
vt 0.375 0.6875
vt 0.125 0.6875
vt 0.125 0.5
vt 0.375 0.5
vt 0.375 0.6875
vt 0.3125 0.6875
vt 0.3125 0.5
vt 0.1875 0.5
vt 0.1875 0.6875
vt 0.125 0.6875
vt 0.125 0.5
vt 0.3125 0.5625
vt 0.28125 0.5
vt 0.21875 0.5
vt 0.1875 0.5625
vt 0.1875 0.5625
vt 0.21875 0.5
vt 0.28125 0.5
vt 0.3125 0.5625
vt 0.28125 0.5625
vt 0.21875 0.5625
vt 0.21875 0.5
vt 0.28125 0.5
vt 0.3125 0.5
vt 0.3125 0.5625
vt 0.28125 0.5625
vt 0.28125 0.5
vt 0.21875 0.5
vt 0.21875 0.5625
vt 0.1875 0.5625
vt 0.1875 0.5
vt 0.3125 0.5625
vt 0.28125 0.5
vt 0.21875 0.5
vt 0.1875 0.5625
vt 0.1875 0.5625
vt 0.21875 0.5
vt 0.28125 0.5
vt 0.3125 0.5625
vt 0.28125 0.5625
vt 0.21875 0.5625
vt 0.21875 0.5
vt 0.28125 0.5
vt 0.3125 0.5
vt 0.3125 0.5625
vt 0.28125 0.5625
vt 0.28125 0.5
vt 0.21875 0.5
vt 0.21875 0.5625
vt 0.1875 0.5625
vt 0.1875 0.5
vn 1 0 0
vn -1 0 0
vn 0 1 0
vn 0 -1 0
vn 0 0 1
vn 0 0 -1
vn 1 0 0
vn -1 0 0
vn 0 0 1
vn 0 0 -1
vn 1 0 0
vn -1 0 0
vn 0 0 1
vn 0 0 -1
vn 1 0 0
vn -1 0 0
vn 0 0 1
vn 0 0 -1
vn 1 0 0
vn -1 0 0
vn 0 1 0
vn 0 0.7071067811865476 0.7071067811865476
vn 0 0.7071067811865476 -0.7071067811865476
vn 1 0 0
vn -1 0 0
vn 0 1 0
vn 0 0.7071067811865476 0.7071067811865476
vn 0 0.7071067811865476 -0.7071067811865476
usemtl inserter
f 164/497/125 162/498/125 161/499/125
f 164/497/125 161/499/125 163/500/125
f 167/501/126 165/502/126 166/503/126
f 167/501/126 166/503/126 168/504/126
f 161/505/127 162/506/127 166/507/127
f 161/505/127 166/507/127 165/508/127
f 164/509/128 163/510/128 167/511/128
f 164/509/128 167/511/128 168/512/128
f 163/513/129 161/514/129 165/515/129
f 163/513/129 165/515/129 167/516/129
f 168/517/130 166/518/130 162/519/130
f 168/517/130 162/519/130 164/520/130
usemtl inserter_base2
f 172/521/131 170/522/131 169/523/131
f 172/521/131 169/523/131 171/524/131
f 175/525/132 173/526/132 174/527/132
f 175/525/132 174/527/132 176/528/132
f 171/529/133 169/530/133 173/531/133
f 171/529/133 173/531/133 175/532/133
f 176/533/134 174/534/134 170/535/134
f 176/533/134 170/535/134 172/536/134
usemtl inserter
f 180/537/135 178/538/135 177/539/135
f 180/537/135 177/539/135 179/540/135
f 183/541/136 181/542/136 182/543/136
f 183/541/136 182/543/136 184/544/136
f 179/545/137 177/546/137 181/547/137
f 179/545/137 181/547/137 183/548/137
f 184/549/138 182/550/138 178/551/138
f 184/549/138 178/551/138 180/552/138
f 188/553/139 186/554/139 185/555/139
f 188/553/139 185/555/139 187/556/139
f 191/557/140 189/558/140 190/559/140
f 191/557/140 190/559/140 192/560/140
f 187/561/141 185/562/141 189/563/141
f 187/561/141 189/563/141 191/564/141
f 192/565/142 190/566/142 186/567/142
f 192/565/142 186/567/142 188/568/142
f 178/569/143 194/570/143 193/571/143
f 178/569/143 193/571/143 177/572/143
f 181/573/144 195/574/144 196/575/144
f 181/573/144 196/575/144 182/576/144
f 193/577/145 194/578/145 196/579/145
f 193/577/145 196/579/145 195/580/145
f 177/581/146 193/582/146 195/583/146
f 177/581/146 195/583/146 181/584/146
f 182/585/147 196/586/147 194/587/147
f 182/585/147 194/587/147 178/588/147
f 186/589/148 198/590/148 197/591/148
f 186/589/148 197/591/148 185/592/148
f 189/593/149 199/594/149 200/595/149
f 189/593/149 200/595/149 190/596/149
f 197/597/150 198/598/150 200/599/150
f 197/597/150 200/599/150 199/600/150
f 185/601/151 197/602/151 199/603/151
f 185/601/151 199/603/151 189/604/151
f 190/605/152 200/606/152 198/607/152
f 190/605/152 198/607/152 186/608/152