# Made by Pabilo8 with Blockbench
# Exported with IIToolkit Plugin
mtllib solderer.mtl


o lower
v 0.459375 1.4375 0.59375
v 0.459375 1.4375 0.40625
v 0.459375 1.25 0.59375
v 0.459375 1.25 0.40625
v 0.271875 1.4375 0.59375
v 0.271875 1.4375 0.40625
v 0.271875 1.25 0.59375
v 0.271875 1.25 0.40625
v 0.540625 1.4375 0.59375
v 0.540625 1.4375 0.40625
v 0.540625 1.25 0.59375
v 0.540625 1.25 0.40625
v 0.728125 1.4375 0.59375
v 0.728125 1.4375 0.40625
v 0.728125 1.25 0.59375
v 0.728125 1.25 0.40625
v 0.6875 0.5625 0.5625
v 0.6875 0.5625 0.4375
v 0.6875 0.4375 0.5625
v 0.6875 0.4375 0.4375
v 0.3125 0.5625 0.5625
v 0.3125 0.5625 0.4375
v 0.3125 0.4375 0.5625
v 0.3125 0.4375 0.4375
v 0.6875 1.1875 0.46875
v 0.6875 1.1875 0.40625
v 0.6875 0.6875 0.46875
v 0.6875 0.6875 0.40625
v 0.3125 1.1875 0.46875
v 0.3125 1.1875 0.40625
v 0.3125 0.6875 0.46875
v 0.3125 0.6875 0.40625
v 0.65625 1.1562499999999996 0.40625
v 0.65625 1.1562499999999996 0.375
v 0.65625 0.96875 0.40625
v 0.65625 0.96875 0.375
v 0.34375 1.1562499999999996 0.40625
v 0.34375 1.1562499999999996 0.375
v 0.34375 0.96875 0.40625
v 0.34375 0.96875 0.375
v 0.65625 0.9374999999999996 0.40625
v 0.65625 0.9374999999999996 0.375
v 0.65625 0.75 0.40625
v 0.65625 0.75 0.375
v 0.34375 0.9374999999999996 0.40625
v 0.34375 0.9374999999999996 0.375
v 0.34375 0.75 0.40625
v 0.34375 0.75 0.375
v 0.65625 1.25 0.546875
v 0.65625 1.25 0.453125
v 0.65625 0.625 0.546875
v 0.65625 0.625 0.45312500000000006
v 0.5625 1.25 0.546875
v 0.5625 1.25 0.453125
v 0.5625 0.625 0.546875
v 0.5625 0.625 0.45312500000000006
v 0.65625 0.9375 0.453125
v 0.65625 0.9375 0.546875
v 0.5625 0.9375 0.546875
v 0.5625 0.9375 0.453125
v 0.4375 1.25 0.546875
v 0.4375 1.25 0.453125
v 0.4375 0.625 0.546875
v 0.4375 0.625 0.45312500000000006
v 0.34375 1.25 0.546875
v 0.34375 1.25 0.453125
v 0.34375 0.625 0.546875
v 0.34375 0.625 0.45312500000000006
v 0.4375 0.9375 0.453125
v 0.4375 0.9375 0.546875
v 0.34375 0.9375 0.546875
v 0.34375 0.9375 0.453125
v 0.4375 0.5625 0.421875
v 0.4375 0.5625 0.359375
v 0.4375 0.4375 0.421875
v 0.4375 0.4375 0.359375
v 0.34375 0.5625 0.421875
v 0.34375 0.5625 0.359375
v 0.34375 0.4375 0.421875
v 0.34375 0.4375 0.359375
v 0.4375 0.5625 0.640625
v 0.4375 0.5625 0.578125
v 0.4375 0.4375 0.640625
v 0.4375 0.4375 0.578125
v 0.34375 0.5625 0.640625
v 0.34375 0.5625 0.578125
v 0.34375 0.4375 0.640625
v 0.34375 0.4375 0.578125
v 0.65625 0.5625 0.421875
v 0.65625 0.5625 0.359375
v 0.65625 0.4375 0.421875
v 0.65625 0.4375 0.359375
v 0.5625 0.5625 0.421875
v 0.5625 0.5625 0.359375
v 0.5625 0.4375 0.421875
v 0.5625 0.4375 0.359375
v 0.65625 0.5625 0.640625
v 0.65625 0.5625 0.578125
v 0.65625 0.4375 0.640625
v 0.65625 0.4375 0.578125
v 0.5625 0.5625 0.640625
v 0.5625 0.5625 0.578125
v 0.5625 0.4375 0.640625
v 0.5625 0.4375 0.578125
vt 0.09375 0.8125
vt 0.09375 1
vt 0 1
vt 0 0.8125
vt 0.8125 0.8125
vt 0.8125 0.625
vt 0.625 0.625
vt 0.625 0.8125
vt 0.8125 0.625
vt 0.8125 0.8125
vt 1 0.8125
vt 1 0.625
vt 0.8125 0.8125
vt 0.8125 0.625
vt 1 0.625
vt 1 0.8125
vt 0.8125 0.625
vt 0.8125 0.8125
vt 1 0.8125
vt 1 0.625
vt 1 0.625
vt 1 0.8125
vt 0.8125 0.8125
vt 0.8125 0.625
vt 0 1
vt 0.09375 1
vt 0.09375 0.8125
vt 0 0.8125
vt 0.625 0.625
vt 0.8125 0.625
vt 0.8125 0.8125
vt 0.625 0.8125
vt 1 0.8125
vt 0.8125 0.8125
vt 0.8125 0.625
vt 1 0.625
vt 1 0.625
vt 0.8125 0.625
vt 0.8125 0.8125
vt 1 0.8125
vt 1 0.8125
vt 0.8125 0.8125
vt 0.8125 0.625
vt 1 0.625
vt 0.8125 0.8125
vt 1 0.8125
vt 1 0.625
vt 0.8125 0.625
vt 0.0625 0.875
vt 0.0625 1
vt 0 1
vt 0 0.875
vt 0.0625 0.875
vt 0.0625 1
vt 0 1
vt 0 0.875
vt 0.5 0.625
vt 0.625 0.625
vt 0.625 1
vt 0.5 1
vt 0.625 0.625
vt 0.5 0.625
vt 0.5 1
vt 0.625 1
vt 0.625 0.625
vt 0.49999999999999994 0.625
vt 0.49999999999999994 1
vt 0.625 1
vt 0.5 1
vt 0.625 1
vt 0.625 0.625
vt 0.5 0.625
vt 0 0.5
vt 0 0
vt 0.03125 0
vt 0.03125 0.5
vt 0.34375 0
vt 0.34375 0.5
vt 0.375 0.5
vt 0.375 0
vt 0 0.0625
vt 0 0
vt 0.375 0
vt 0.375 0.0625
vt 0 0.5
vt 0 0.4375
vt 0.375 0.4375
vt 0.375 0.5
vt 0.375 0.5
vt 0.375 0
vt 0 0
vt 0 0.5
vt 0.375 0.5
vt 0.375 0
vt 0 0
vt 0 0.5
vt 0.71875 0.8125000000000004
vt 0.71875 1
vt 0.6875 1
vt 0.6875 0.8125000000000004
vt 1 0.8125000000000004
vt 1 1
vt 0.96875 1
vt 0.96875 0.8125000000000004
vt 0.6875 0.9375
vt 0.6875 1
vt 1 1
vt 1 0.9375
vt 0.6875 0.8125
vt 0.6875 0.875
vt 1 0.875
vt 1 0.8125
vt 1 0.8125000000000004
vt 1 1
vt 0.6875 1
vt 0.6875 0.8125000000000004
vt 0.71875 0.8125000000000004
vt 0.71875 1
vt 0.6875 1
vt 0.6875 0.8125000000000004
vt 1 0.8125000000000004
vt 1 1
vt 0.96875 1
vt 0.96875 0.8125000000000004
vt 0.6875 0.9375
vt 0.6875 1
vt 1 1
vt 1 0.9375
vt 0.6875 0.8125
vt 0.6875 0.875
vt 1 0.875
vt 1 0.8125
vt 1 0.8125000000000004
vt 1 1
vt 0.6875 1
vt 0.6875 0.8125000000000004
vt 0.375 0.5
vt 0.375 0.1875
vt 0.5 0.1875
vt 0.5 0.5
vt 0.375 0.5
vt 0.375 0.1875
vt 0.5 0.1875
vt 0.5 0.5
vt 0.046875 0.90625
vt 0.046875 1
vt 0 1
vt 0 0.90625
vt 0.046875 0.90625
vt 0.046875 1
vt 0 1
vt 0 0.90625
vt 0.5 0.5
vt 0.5 0.1875
vt 0.375 0.1875
vt 0.375 0.5
vt 0.375 0.5
vt 0.375 0.1875
vt 0.5 0.1875
vt 0.5 0.5
vt 0.5 0.5
vt 0.5 0.1875
vt 0.375 0.1875
vt 0.375 0.5
vt 0.375 0.5
vt 0.375 0.1875
vt 0.5 0.1875
vt 0.5 0.5
vt 0.5 0.5
vt 0.5 0.1875
vt 0.375 0.1875
vt 0.375 0.5
vt 0.375 0.5
vt 0.375 0.1875
vt 0.5 0.1875
vt 0.5 0.5
vt 0.375 0.5
vt 0.375 0.1875
vt 0.5 0.1875
vt 0.5 0.5
vt 0.375 0.5
vt 0.375 0.1875
vt 0.5 0.1875
vt 0.5 0.5
vt 0.046875 0.90625
vt 0.046875 1
vt 0 1
vt 0 0.90625
vt 0.046875 0.90625
vt 0.046875 1
vt 0 1
vt 0 0.90625
vt 0.5 0.5
vt 0.5 0.1875
vt 0.375 0.1875
vt 0.375 0.5
vt 0.375 0.5
vt 0.375 0.1875
vt 0.5 0.1875
vt 0.5 0.5
vt 0.5 0.5
vt 0.5 0.1875
vt 0.375 0.1875
vt 0.375 0.5
vt 0.375 0.5
vt 0.375 0.1875
vt 0.5 0.1875
vt 0.5 0.5
vt 0.5 0.5
vt 0.5 0.1875
vt 0.375 0.1875
vt 0.375 0.5
vt 0.375 0.5
vt 0.375 0.1875
vt 0.5 0.1875
vt 0.5 0.5
vt 0.4375 0.375
vt 0.4375 0.125
vt 0.375 0.125
vt 0.375 0.375
vt 0.5 0.375
vt 0.5 0.125
vt 0.4375 0.125
vt 0.4375 0.375
vt 0.375 0.25
vt 0.375 0.375
vt 0.5 0.375
vt 0.5 0.25
vt 0.375 0.125
vt 0.375 0.375
vt 0.5 0.375
vt 0.5 0.125
vt 0.5 0.375
vt 0.5 0.125
vt 0.375 0.125
vt 0.375 0.375
vt 0.4375 0.375
vt 0.4375 0.125
vt 0.375 0.125
vt 0.375 0.375
vt 0.5 0.375
vt 0.5 0.125
vt 0.4375 0.125
vt 0.4375 0.375
vt 0.046875 0.9375
vt 0.046875 1
vt 0 1
vt 0 0.9375
vt 0.375 0.125
vt 0.375 0.375
vt 0.5 0.375
vt 0.5 0.125
vt 0.375 0.125
vt 0.375 0.375
vt 0.5 0.375
vt 0.5 0.125
vt 0.3773437500000002 0
vt 0.43515625 0.09999999999999998
vt 0.43671875000000016 0.1875
vt 0.3773437500000002 0.28437500000000004
vt 0.4984375 0
vt 0.44062500000000016 0.09999999999999998
vt 0.4390625 0.1875
vt 0.4984375 0.28437500000000004
vt 0.375 0.375
vt 0.375 0.125
vt 0.5 0.125
vt 0.5 0.375
vt 0.375 0.375
vt 0.375 0
vt 0.5 0
vt 0.5 0.375
vt 0.5 0.375
vt 0.5 0
vt 0.375 0
vt 0.375 0.375
vt 0.4375 0.375
vt 0.4375 0.125
vt 0.375 0.125
vt 0.375 0.375
vt 0.5 0.375
vt 0.5 0.125
vt 0.4375 0.125
vt 0.4375 0.375
vt 0.375 0.25
vt 0.375 0.375
vt 0.5 0.375
vt 0.5 0.25
vt 0.375 0.125
vt 0.375 0.375
vt 0.5 0.375
vt 0.5 0.125
vt 0.5 0.375
vt 0.5 0.125
vt 0.375 0.125
vt 0.375 0.375
vt 0.4375 0.375
vt 0.4375 0.125
vt 0.375 0.125
vt 0.375 0.375
vt 0.5 0.375
vt 0.5 0.125
vt 0.4375 0.125
vt 0.4375 0.375
vt 0.046875 0.9375
vt 0.046875 1
vt 0 1
vt 0 0.9375
vt 0.375 0.125
vt 0.375 0.375
vt 0.5 0.375
vt 0.5 0.125
vt 0.375 0.125
vt 0.375 0.375
vt 0.5 0.375
vt 0.5 0.125
vt 0.3773437500000002 0
vt 0.43515625 0.09999999999999998
vt 0.43671875000000016 0.1875
vt 0.3773437500000002 0.28437500000000004
vt 0.4984375 0
vt 0.44062500000000016 0.09999999999999998
vt 0.4390625 0.1875
vt 0.4984375 0.28437500000000004
vt 0.375 0.375
vt 0.375 0.125
vt 0.5 0.125
vt 0.5 0.375
vt 0.375 0.375
vt 0.375 0
vt 0.5 0
vt 0.5 0.375
vt 0.5 0.375
vt 0.5 0
vt 0.375 0
vt 0.375 0.375
vn 1 0 0
vn -1 0 0
vn 0 1 0
vn 0 -1 0
vn 0 0 1
vn 0 0 -1
vn -1 0 0
vn 1 0 0
vn 0 1 0
vn 0 -1 0
vn 0 0 1
vn 0 0 -1
vn 1 0 0
vn -1 0 0
vn 0 1 0
vn 0 -1 0
vn 0 0 1
vn 0 0 -1
vn 1 0 0
vn -1 0 0
vn 0 1 0
vn 0 -1 0
vn 0 0 1
vn 0 0 -1
vn 1 0 0
vn -1 0 0
vn 0 1 0
vn 0 -1 0
vn 0 0 -1
vn 1 0 0
vn -1 0 0
vn 0 1 0
vn 0 -1 0
vn 0 0 -1
vn 1 0 0
vn -1 0 0
vn 0 1 0
vn 0 -1 0
vn 0 0 1
vn 0 0 -1
vn 1 0 0
vn 0 0 1
vn -1 -2.2204460492503132e-17 0
vn 0 -1.1102230246251565e-16 -1
vn 1 0 0
vn -1 0 0
vn 0 1 0
vn 0 -1 0
vn 0 0 1
vn 0 0 -1
vn 1 0 0
vn 0 0 1
vn -1 0 0
vn 0 -1.1102230246251565e-16 -1
vn 1 0 0
vn -1 0 0
vn 0 -1 0
vn 0 0 1
vn 0 0 -1
vn 1 0 0
vn -1 0 0
vn 0 -1 0
vn 0 0 1
vn 0 0 -1
vn 1 0 0
vn -1 0 0
vn 0 1 0
vn 0 0.8320502943378438 0.5547001962252291
vn 0 0.8320502943378438 -0.554700196225229
vn 1 0 0
vn -1 0 0
vn 0 -1 0
vn 0 0 1
vn 0 0 -1
vn 1 0 0
vn -1 0 0
vn 0 -1 0
vn 0 0 1
vn 0 0 -1
vn 1 0 0
vn -1 0 0
vn 0 1 0
vn 0 0.8320502943378438 0.5547001962252291
vn 0 0.8320502943378438 -0.554700196225229
usemtl advanced_inserter
f 4/1/1 2/2/1 1/3/1
f 4/1/1 1/3/1 3/4/1
f 7/5/2 5/6/2 6/7/2
f 7/5/2 6/7/2 8/8/2
f 1/9/3 2/10/3 6/11/3
f 1/9/3 6/11/3 5/12/3
f 4/13/4 3/14/4 7/15/4
f 4/13/4 7/15/4 8/16/4
f 3/17/5 1/18/5 5/19/5
f 3/17/5 5/19/5 7/20/5
f 8/21/6 6/22/6 2/23/6
f 8/21/6 2/23/6 4/24/6
f 9/25/7 10/26/7 12/27/7
f 9/25/7 12/27/7 11/28/7
f 14/29/8 13/30/8 15/31/8
f 14/29/8 15/31/8 16/32/8
f 14/33/9 10/34/9 9/35/9
f 14/33/9 9/35/9 13/36/9
f 15/37/10 11/38/10 12/39/10
f 15/37/10 12/39/10 16/40/10
f 13/41/11 9/42/11 11/43/11
f 13/41/11 11/43/11 15/44/11
f 10/45/12 14/46/12 16/47/12
f 10/45/12 16/47/12 12/48/12
f 20/49/13 18/50/13 17/51/13
f 20/49/13 17/51/13 19/52/13
f 23/53/14 21/54/14 22/55/14
f 23/53/14 22/55/14 24/56/14
f 17/57/15 18/58/15 22/59/15
f 17/57/15 22/59/15 21/60/15
f 20/61/16 19/62/16 23/63/16
f 20/61/16 23/63/16 24/64/16
f 19/65/17 17/66/17 21/67/17
f 19/65/17 21/67/17 23/68/17
f 24/69/18 22/70/18 18/71/18
f 24/69/18 18/71/18 20/72/18
f 28/73/19 26/74/19 25/75/19
f 28/73/19 25/75/19 27/76/19
f 31/77/20 29/78/20 30/79/20
f 31/77/20 30/79/20 32/80/20
f 25/81/21 26/82/21 30/83/21
f 25/81/21 30/83/21 29/84/21
f 28/85/22 27/86/22 31/87/22
f 28/85/22 31/87/22 32/88/22
f 27/89/23 25/90/23 29/91/23
f 27/89/23 29/91/23 31/92/23
f 32/93/24 30/94/24 26/95/24
f 32/93/24 26/95/24 28/96/24
f 36/97/25 34/98/25 33/99/25
f 36/97/25 33/99/25 35/100/25
f 39/101/26 37/102/26 38/103/26
f 39/101/26 38/103/26 40/104/26
f 33/105/27 34/106/27 38/107/27
f 33/105/27 38/107/27 37/108/27
f 36/109/28 35/110/28 39/111/28
f 36/109/28 39/111/28 40/112/28
f 40/113/29 38/114/29 34/115/29
f 40/113/29 34/115/29 36/116/29
f 44/117/30 42/118/30 41/119/30
f 44/117/30 41/119/30 43/120/30
f 47/121/31 45/122/31 46/123/31
f 47/121/31 46/123/31 48/124/31
f 41/125/32 42/126/32 46/127/32
f 41/125/32 46/127/32 45/128/32
f 44/129/33 43/130/33 47/131/33
f 44/129/33 47/131/33 48/132/33
f 48/133/34 46/134/34 42/135/34
f 48/133/34 42/135/34 44/136/34
f 49/137/35 58/138/35 57/139/35
f 49/137/35 57/139/35 50/140/35
f 54/141/36 60/142/36 59/143/36
f 54/141/36 59/143/36 53/144/36
f 49/145/37 50/146/37 54/147/37
f 49/145/37 54/147/37 53/148/37
f 52/149/38 51/150/38 55/151/38
f 52/149/38 55/151/38 56/152/38
f 53/153/39 59/154/39 58/155/39
f 53/153/39 58/155/39 49/156/39
f 50/157/40 57/158/40 60/159/40
f 50/157/40 60/159/40 54/160/40
f 52/161/41 57/162/41 58/163/41
f 52/161/41 58/163/41 51/164/41
f 51/165/42 58/166/42 59/167/42
f 51/165/42 59/167/42 55/168/42
f 55/169/43 59/170/43 60/171/43
f 55/169/43 60/171/43 56/172/43
f 56/173/44 60/174/44 57/175/44
f 56/173/44 57/175/44 52/176/44
f 61/177/45 70/178/45 69/179/45
f 61/177/45 69/179/45 62/180/45
f 66/181/46 72/182/46 71/183/46
f 66/181/46 71/183/46 65/184/46
f 61/185/47 62/186/47 66/187/47
f 61/185/47 66/187/47 65/188/47
f 64/189/48 63/190/48 67/191/48
f 64/189/48 67/191/48 68/192/48
f 65/193/49 71/194/49 70/195/49
f 65/193/49 70/195/49 61/196/49
f 62/197/50 69/198/50 72/199/50
f 62/197/50 72/199/50 66/200/50
f 64/201/51 69/202/51 70/203/51
f 64/201/51 70/203/51 63/204/51
f 63/205/52 70/206/52 71/207/52
f 63/205/52 71/207/52 67/208/52
f 67/209/53 71/210/53 72/211/53
f 67/209/53 72/211/53 68/212/53
f 68/213/54 72/214/54 69/215/54
f 68/213/54 69/215/54 64/216/54
f 76/217/55 74/218/55 73/219/55
f 76/217/55 73/219/55 75/220/55
f 79/221/56 77/222/56 78/223/56
f 79/221/56 78/223/56 80/224/56
f 76/225/57 75/226/57 79/227/57
f 76/225/57 79/227/57 80/228/57
f 75/229/58 73/230/58 77/231/58
f 75/229/58 77/231/58 79/232/58
f 80/233/59 78/234/59 74/235/59
f 80/233/59 74/235/59 76/236/59
f 84/237/60 82/238/60 81/239/60
f 84/237/60 81/239/60 83/240/60
f 87/241/61 85/242/61 86/243/61
f 87/241/61 86/243/61 88/244/61
f 84/245/62 83/246/62 87/247/62
f 84/245/62 87/247/62 88/248/62
f 83/249/63 81/250/63 85/251/63
f 83/249/63 85/251/63 87/252/63
f 88/253/64 86/254/64 82/255/64
f 88/253/64 82/255/64 84/256/64
f 74/257/65 64/258/65 63/259/65
f 74/257/65 63/259/65 81/260/65
f 85/261/66 67/262/66 68/263/66
f 85/261/66 68/263/66 78/264/66
f 63/265/67 64/266/67 68/267/67
f 63/265/67 68/267/67 67/268/67
f 81/269/68 63/270/68 67/271/68
f 81/269/68 67/271/68 85/272/68
f 78/273/69 68/274/69 64/275/69
f 78/273/69 64/275/69 74/276/69
f 92/277/70 90/278/70 89/279/70
f 92/277/70 89/279/70 91/280/70
f 95/281/71 93/282/71 94/283/71
f 95/281/71 94/283/71 96/284/71
f 92/285/72 91/286/72 95/287/72
f 92/285/72 95/287/72 96/288/72
f 91/289/73 89/290/73 93/291/73
f 91/289/73 93/291/73 95/292/73
f 96/293/74 94/294/74 90/295/74
f 96/293/74 90/295/74 92/296/74
f 100/297/75 98/298/75 97/299/75
f 100/297/75 97/299/75 99/300/75
f 103/301/76 101/302/76 102/303/76
f 103/301/76 102/303/76 104/304/76
f 100/305/77 99/306/77 103/307/77
f 100/305/77 103/307/77 104/308/77
f 99/309/78 97/310/78 101/311/78
f 99/309/78 101/311/78 103/312/78
f 104/313/79 102/314/79 98/315/79
f 104/313/79 98/315/79 100/316/79
f 90/317/80 52/318/80 51/319/80
f 90/317/80 51/319/80 97/320/80
f 101/321/81 55/322/81 56/323/81
f 101/321/81 56/323/81 94/324/81
f 51/325/82 52/326/82 56/327/82
f 51/325/82 56/327/82 55/328/82
f 97/329/83 51/330/83 55/331/83
f 97/329/83 55/331/83 101/332/83
f 94/333/84 56/334/84 52/335/84
f 94/333/84 52/335/84 90/336/84
o upper
v 0.46875 1.9375 0.53125
v 0.53125 1.9375 0.53125
v 0.53125 1.9375 0.46875
v 0.46875 1.9375 0.46875
v 0.46875 1.375 0.46875
v 0.53125 1.375 0.46875
v 0.53125 1.375 0.53125
v 0.46875 1.375 0.53125
v 0.5625 1.40625 0.5625
v 0.5625 1.40625 0.4375
v 0.5625 1.28125 0.5625
v 0.5625 1.28125 0.4375
v 0.4375 1.40625 0.5625
v 0.4375 1.40625 0.4375
v 0.4375 1.28125 0.5625
v 0.4375 1.28125 0.4375
v 0.59375 2.25 0.59375
v 0.59375 2.25 0.40625
v 0.59375 2.0625 0.59375
v 0.59375 2.0625 0.40625
v 0.40625 2.25 0.59375
v 0.40625 2.25 0.40625
v 0.40625 2.0625 0.59375
v 0.40625 2.0625 0.40625
v 0.5625 2.0625 0.5625
v 0.5625 2.0625 0.4375
v 0.5625 1.9375 0.5625
v 0.5625 1.9375 0.4375
v 0.4375 2.0625 0.5625
v 0.4375 2.0625 0.4375
v 0.4375 1.9375 0.5625
v 0.4375 1.9375 0.4375
v 0.53125 2.6875 0.53125
v 0.53125 2.6875 0.46875
v 0.546875 2.25 0.546875
v 0.546875 2.25 0.453125
v 0.46875 2.6875 0.53125
v 0.46875 2.6875 0.46875
v 0.453125 2.25 0.546875
v 0.453125 2.25 0.453125
v 0.53125 1.90625 0.59375
v 0.71875 1.90625 0.59375
v 0.53125 1.53125 0.59375
v 0.71875 1.53125 0.59375
v 0.53125 1.90625 0.40625
v 0.71875 1.90625 0.40625
v 0.53125 1.53125 0.40625
v 0.71875 1.53125 0.40625
v 0.59375 2.21875 0.5625
v 0.625 2.21875 0.5625
v 0.59375 2.15625 0.5625
v 0.65625 2.15625 0.5625
v 0.59375 2.21875 0.4375
v 0.625 2.21875 0.4375
v 0.59375 2.15625 0.4375
v 0.65625 2.15625 0.4375
v 0.59375 1.90625 0.5625
v 0.65625 1.90625 0.5625
v 0.59375 1.90625 0.4375
v 0.65625 1.90625 0.4375
v 0.46875 1.90625 0.40625
v 0.28125 1.90625 0.40625
v 0.46875 1.53125 0.40625
v 0.28125 1.53125 0.40625
v 0.46875 1.90625 0.59375
v 0.28125 1.90625 0.59375
v 0.46875 1.53125 0.59375
v 0.28125 1.53125 0.59375
v 0.40625 2.21875 0.4375
v 0.375 2.21875 0.4375
v 0.40625 2.15625 0.4375
v 0.34375 2.15625 0.4375
v 0.40625 2.21875 0.5625
v 0.375 2.21875 0.5625
v 0.40625 2.15625 0.5625
v 0.34375 2.15625 0.5625
v 0.40625 1.90625 0.4375
v 0.34375 1.90625 0.4375
v 0.40625 1.90625 0.5625
v 0.34375 1.90625 0.5625
v 0.53125 1.84375 0.40625
v 0.46875 1.84375 0.40625
v 0.53125 1.78125 0.40625
v 0.46875 1.78125 0.40625
v 0.53125 1.84375 0.59375
v 0.46875 1.84375 0.59375
v 0.53125 1.78125 0.59375
v 0.46875 1.78125 0.59375
v 0.53125 1.65625 0.40625
v 0.46875 1.65625 0.40625
v 0.53125 1.59375 0.40625
v 0.46875 1.59375 0.40625
v 0.53125 1.65625 0.59375
v 0.46875 1.65625 0.59375
v 0.53125 1.59375 0.59375
v 0.46875 1.59375 0.59375
vt 1 0.375
vt 0.9375 0.375
vt 0.9375 0.4375
vt 1 0.4375
vt 0.4375 0.5
vt 0.5 0.5
vt 0.5 0
vt 0.4375 0
vt 0.4375 0.5
vt 0.5 0.5
vt 0.5 0.1875
vt 0.4375 0.1875
vt 0.4375 0.5
vt 0.5 0.5
vt 0.5 0
vt 0.4375 0
vt 0.4375 0.5
vt 0.5 0.5
vt 0.5 0
vt 0.4375 0
vt 0.625 1
vt 0.625 0.875
vt 0.5 0.875
vt 0.5 1
vt 0.625 1
vt 0.625 0.875
vt 0.5 0.875
vt 0.5 1
vt 0.625 0.875
vt 0.625 1
vt 0.5 1
vt 0.5 0.875
vt 0.5 1
vt 0.5 0.875
vt 0.625 0.875
vt 0.625 1
vt 0.8125 0.75
vt 0.8125 0.5625
vt 0.625 0.5625
vt 0.625 0.75
vt 0.8125 0.75
vt 0.8125 0.5625
vt 0.625 0.5625
vt 0.625 0.75
vt 1 0.75
vt 1 0.5625
vt 0.8125 0.5625
vt 0.8125 0.75
vt 1 0.75
vt 1 0.5625
vt 0.8125 0.5625
vt 0.8125 0.75
vt 0.8125 0.75
vt 0.8125 0.5625
vt 0.625 0.5625
vt 0.625 0.75
vt 0.8125 0.75
vt 0.8125 0.5625
vt 0.625 0.5625
vt 0.625 0.75
vt 0.625 0.625
vt 0.625 0.75
vt 0.5 0.75
vt 0.5 0.625
vt 0.625 0.625
vt 0.625 0.75
vt 0.5 0.75
vt 0.5 0.625
vt 0.625 0.625
vt 0.625 0.75
vt 0.5 0.75
vt 0.5 0.625
vt 0.5 0.625
vt 0.5 0.75
vt 0.625 0.75
vt 0.625 0.625
vt 0.5 0.625
vt 0.5 0.75
vt 0.625 0.75
vt 0.625 0.625
vt 0.234375 0.12467499999999998
vt 0.21875 0.5
vt 0.15625 0.5
vt 0.140625 0.12467499999999998
vt 0.234375 0.12467499999999998
vt 0.21875 0.5
vt 0.15625 0.5
vt 0.140625 0.12467499999999998
vt 0.21875 0.5
vt 0.21875 0.5625
vt 0.15625 0.5625
vt 0.15625 0.5
vt 0.125 0
vt 0.125 0.125
vt 0 0.125
vt 0 0
vt 0.234375 0.12467499999999998
vt 0.21875 0.5
vt 0.15625 0.5
vt 0.140625 0.12467499999999998
vt 0.234375 0.12467499999999998
vt 0.21875 0.5
vt 0.15625 0.5
vt 0.140625 0.12467499999999998
vt 0.5 0.5625
vt 0.125 0.5625
vt 0.125 0.75
vt 0.5 0.75
vt 0.5 0.5625
vt 0.125 0.5625
vt 0.125 0.75
vt 0.5 0.75
vt 1 0.9375
vt 1 0.75
vt 0.8125 0.75
vt 0.8125 0.9375
vt 1 0.75
vt 1 0.9375
vt 0.8125 0.9375
vt 0.8125 0.75
vt 0.5 0.75
vt 0.125 0.75
vt 0.125 0.5625
vt 0.5 0.5625
vt 0.5 0.75
vt 0.125 0.75
vt 0.125 0.5625
vt 0.5 0.5625
vt 0.625 0.5625
vt 0.625 0.625
vt 0.5625 0.625
vt 0.5625 0.5625
vt 0.6875 0.5625
vt 0.6875 0.625
vt 0.625 0.625
vt 0.625 0.5625
vt 0.5625 0.5625
vt 0.5625 0.625
vt 0.6875 0.625
vt 0.6875 0.5625
vt 0.6875 0.5625
vt 0.6875 0.625
vt 0.5625 0.625
vt 0.5625 0.5625
vt 0.6875 0.0625
vt 0.6875 0.3125
vt 0.625 0.3125
vt 0.625 0.0625
vt 0.625 0.0625
vt 0.625 0.3125
vt 0.5625 0.3125
vt 0.5625 0.0625
vt 0.5625 0.0625
vt 0.5625 0.3125
vt 0.6875 0.3125
vt 0.6875 0.0625
vt 0.6875 0.0625
vt 0.6875 0.3125
vt 0.5625 0.3125
vt 0.5625 0.0625
vt 0.5 0.5625
vt 0.125 0.5625
vt 0.125 0.75
vt 0.5 0.75
vt 0.5 0.5625
vt 0.125 0.5625
vt 0.125 0.75
vt 0.5 0.75
vt 1 0.9375
vt 1 0.75
vt 0.8125 0.75
vt 0.8125 0.9375
vt 1 0.75
vt 1 0.9375
vt 0.8125 0.9375
vt 0.8125 0.75
vt 0.5 0.75
vt 0.125 0.75
vt 0.125 0.5625
vt 0.5 0.5625
vt 0.5 0.75
vt 0.125 0.75
vt 0.125 0.5625
vt 0.5 0.5625
vt 0.625 0.5625
vt 0.625 0.625
vt 0.5625 0.625
vt 0.5625 0.5625
vt 0.6875 0.5625
vt 0.6875 0.625
vt 0.625 0.625
vt 0.625 0.5625
vt 0.5625 0.5625
vt 0.5625 0.625
vt 0.6875 0.625
vt 0.6875 0.5625
vt 0.6875 0.5625
vt 0.6875 0.625
vt 0.5625 0.625
vt 0.5625 0.5625
vt 0.6875 0.0625
vt 0.6875 0.3125
vt 0.625 0.3125
vt 0.625 0.0625
vt 0.625 0.0625
vt 0.625 0.3125
vt 0.5625 0.3125
vt 0.5625 0.0625
vt 0.5625 0.0625
vt 0.5625 0.3125
vt 0.6875 0.3125
vt 0.6875 0.0625
vt 0.6875 0.0625
vt 0.6875 0.3125
vt 0.5625 0.3125
vt 0.5625 0.0625
vt 0.6875 0.75
vt 0.6875 0.8125
vt 0.625 0.8125
vt 0.625 0.75
vt 0.5625 0.75
vt 0.5625 0.8125
vt 0.5 0.8125
vt 0.5 0.75
vt 0.6875 0.75
vt 0.6875 0.8125
vt 0.5 0.8125
vt 0.5 0.75
vt 0.6875 0.75
vt 0.6875 0.8125
vt 0.5 0.8125
vt 0.5 0.75
vt 0.6875 0.75
vt 0.6875 0.8125
vt 0.625 0.8125
vt 0.625 0.75
vt 0.5625 0.75
vt 0.5625 0.8125
vt 0.5 0.8125
vt 0.5 0.75
vt 0.6875 0.75
vt 0.6875 0.8125
vt 0.5 0.8125
vt 0.5 0.75
vt 0.6875 0.75
vt 0.6875 0.8125
vt 0.5 0.8125
vt 0.5 0.75
vn 0 -1 0
vn 0 0 1
vn 0 0 -1
vn 1 0 0
vn -1 0 0
vn 0 1 0
vn 0 -1 0
vn 0 0 1
vn 0 0 -1
vn 1 0 0
vn -1 0 0
vn 0 1 0
vn 0 -1 0
vn 0 0 1
vn 0 0 -1
vn 1 0 0
vn -1 0 0
vn 0 -1 0
vn 0 0 1
vn 0 0 -1
vn 0.9993628543475496 0.03569153051241249 0
vn -0.9993628543475496 0.03569153051241249 0
vn 0 1 0
vn 0 -1 0
vn 0 0.03569153051241249 0.9993628543475496
vn 0 0.03569153051241249 -0.9993628543475496
vn 0 0 1
vn 0 0 -1
vn 0 1 0
vn 0 -1 0
vn -1 0 0
vn 1 0 0
vn 0 0 1
vn 0 0 -1
vn 0 1 0
vn 0.8944271909999161 0.44721359549995804 0
vn 0 0 1
vn 0 0 -1
vn -1 0 0
vn 1 0 0
vn 0 0 -1
vn 0 0 1
vn 0 1 0
vn 0 -1 0
vn 1 0 0
vn -1 0 0
vn 0 0 -1
vn 0 0 1
vn 0 1 0
vn -0.8944271909999161 0.44721359549995804 0
vn 0 0 -1
vn 0 0 1
vn 1 0 0
vn -1 0 0
vn 0 0 -1
vn 0 0 1
vn 0 1 0
vn 0 -1 0
vn 0 0 -1
vn 0 0 1
vn 0 1 0
vn 0 -1 0
usemtl advanced_inserter
f 109/337/85 110/338/85 111/339/85
f 109/337/85 111/339/85 112/340/85
f 106/341/86 105/342/86 112/343/86
f 106/341/86 112/343/86 111/344/86
f 108/345/87 107/346/87 110/347/87
f 108/345/87 110/347/87 109/348/87
f 107/349/88 106/350/88 111/351/88
f 107/349/88 111/351/88 110/352/88
f 105/353/89 108/354/89 109/355/89
f 105/353/89 109/355/89 112/356/89
f 113/357/90 114/358/90 118/359/90
f 113/357/90 118/359/90 117/360/90
f 116/361/91 115/362/91 119/363/91
f 116/361/91 119/363/91 120/364/91
f 115/365/92 113/366/92 117/367/92
f 115/365/92 117/367/92 119/368/92
f 120/369/93 118/370/93 114/371/93
f 120/369/93 114/371/93 116/372/93
usemtl tool_red
f 124/373/94 122/374/94 121/375/94
f 124/373/94 121/375/94 123/376/94
f 127/377/95 125/378/95 126/379/95
f 127/377/95 126/379/95 128/380/95
f 121/381/96 122/382/96 126/383/96
f 121/381/96 126/383/96 125/384/96
f 124/385/97 123/386/97 127/387/97
f 124/385/97 127/387/97 128/388/97
f 123/389/98 121/390/98 125/391/98
f 123/389/98 125/391/98 127/392/98
f 128/393/99 126/394/99 122/395/99
f 128/393/99 122/395/99 124/396/99
f 132/397/100 130/398/100 129/399/100
f 132/397/100 129/399/100 131/400/100
f 135/401/101 133/402/101 134/403/101
f 135/401/101 134/403/101 136/404/101
f 132/405/102 131/406/102 135/407/102
f 132/405/102 135/407/102 136/408/102
f 131/409/103 129/410/103 133/411/103
f 131/409/103 133/411/103 135/412/103
f 136/413/104 134/414/104 130/415/104
f 136/413/104 130/415/104 132/416/104
f 140/417/105 138/418/105 137/419/105
f 140/417/105 137/419/105 139/420/105
f 143/421/106 141/422/106 142/423/106
f 143/421/106 142/423/106 144/424/106
f 137/425/107 138/426/107 142/427/107
f 137/425/107 142/427/107 141/428/107
f 140/429/108 139/430/108 143/431/108
f 140/429/108 143/431/108 144/432/108
f 139/433/109 137/434/109 141/435/109
f 139/433/109 141/435/109 143/436/109
f 144/437/110 142/438/110 138/439/110
f 144/437/110 138/439/110 140/440/110
f 148/441/111 146/442/111 145/443/111
f 148/441/111 145/443/111 147/444/111
f 151/445/112 149/446/112 150/447/112
f 151/445/112 150/447/112 152/448/112
f 145/449/113 146/450/113 150/451/113
f 145/449/113 150/451/113 149/452/113
f 148/453/114 147/454/114 151/455/114
f 148/453/114 151/455/114 152/456/114
f 147/457/115 145/458/115 149/459/115
f 147/457/115 149/459/115 151/460/115
f 152/461/116 150/462/116 146/463/116
f 152/461/116 146/463/116 148/464/116
usemtl common_copper_cable
f 156/465/117 154/466/117 153/467/117
f 156/465/117 153/467/117 155/468/117
f 159/469/118 157/470/118 158/471/118
f 159/469/118 158/471/118 160/472/118
f 153/473/119 154/474/119 158/475/119
f 153/473/119 158/475/119 157/476/119
f 160/477/120 158/478/120 154/479/120
f 160/477/120 154/479/120 156/480/120
f 162/481/121 156/482/121 155/483/121
f 162/481/121 155/483/121 161/484/121
f 163/485/122 159/486/122 160/487/122
f 163/485/122 160/487/122 164/488/122
f 161/489/123 155/490/123 159/491/123
f 161/489/123 159/491/123 163/492/123
f 164/493/124 160/494/124 156/495/124
f 164/493/124 156/495/124 162/496/124
usemtl tool_red
f 168/497/125 166/498/125 165/499/125
f 168/497/125 165/499/125 167/500/125
f 171/501/126 169/502/126 170/503/126
f 171/501/126 170/503/126 172/504/126
f 165/505/127 166/506/127 170/507/127
f 165/505/127 170/507/127 169/508/127
f 168/509/128 167/510/128 171/511/128
f 168/509/128 171/511/128 172/512/128
f 167/513/129 165/514/129 169/515/129
f 167/513/129 169/515/129 171/516/129
f 172/517/130 170/518/130 166/519/130
f 172/517/130 166/519/130 168/520/130
usemtl common_copper_cable
f 176/521/131 174/522/131 173/523/131
f 176/521/131 173/523/131 175/524/131
f 179/525/132 177/526/132 178/527/132
f 179/525/132 178/527/132 180/528/132
f 173/529/133 174/530/133 178/531/133
f 173/529/133 178/531/133 177/532/133
f 180/533/134 178/534/134 174/535/134
f 180/533/134 174/535/134 176/536/134
f 182/537/135 176/538/135 175/539/135
f 182/537/135 175/539/135 181/540/135
f 183/541/136 179/542/136 180/543/136
f 183/541/136 180/543/136 184/544/136
f 181/545/137 175/546/137 179/547/137
f 181/545/137 179/547/137 183/548/137
f 184/549/138 180/550/138 176/551/138
f 184/549/138 176/551/138 182/552/138
usemtl tool_red
f 188/553/139 186/554/139 185/555/139
f 188/553/139 185/555/139 187/556/139
f 191/557/140 189/558/140 190/559/140
f 191/557/140 190/559/140 192/560/140
f 185/561/141 186/562/141 190/563/141
f 185/561/141 190/563/141 189/564/141
f 188/565/142 187/566/142 191/567/142
f 188/565/142 191/567/142 192/568/142
f 196/569/143 194/570/143 193/571/143
f 196/569/143 193/571/143 195/572/143
f 199/573/144 197/574/144 198/575/144
f 199/573/144 198/575/144 200/576/144
f 193/577/145 194/578/145 198/579/145
f 193/577/145 198/579/145 197/580/145
f 196/581/146 195/582/146 199/583/146
f 196/581/146 199/583/146 200/584/146
o inserter
v 0.75 0.375 0.75
v 0.75 0.375 0.25
v 0.75 0.3125 0.75
v 0.75 0.3125 0.25
v 0.25 0.375 0.75
v 0.25 0.375 0.25
v 0.25 0.3125 0.75
v 0.25 0.3125 0.25
v 0.625 0.3125 0.625
v 0.625 0.3125 0.375
v 0.625 0.25 0.625
v 0.625 0.25 0.375
v 0.375 0.3125 0.625
v 0.375 0.3125 0.375
v 0.375 0.25 0.625
v 0.375 0.25 0.375
v 0.3125 0.5625 0.625
v 0.3125 0.5625 0.375
v 0.3125 0.375 0.625
v 0.3125 0.375 0.375
v 0.25 0.5625 0.625
v 0.25 0.5625 0.375
v 0.25 0.375 0.625
v 0.25 0.375 0.375
v 0.75 0.5625 0.625
v 0.75 0.5625 0.375
v 0.75 0.375 0.625
v 0.75 0.375 0.375
v 0.6875 0.5625 0.625
v 0.6875 0.5625 0.375
v 0.6875 0.375 0.625
v 0.6875 0.375 0.375
v 0.3125 0.625 0.5625
v 0.3125 0.625 0.4375
v 0.25 0.625 0.5625
v 0.25 0.625 0.4375
v 0.75 0.625 0.5625
v 0.75 0.625 0.4375
v 0.6875 0.625 0.5625
v 0.6875 0.625 0.4375
vt 0.5 1
vt 0.4375 1
vt 0.4375 0.5
vt 0.5 0.5
vt 0.0625 1
vt 0 1
vt 0 0.5
vt 0.0625 0.5
vt 0.5 0.5
vt 0.5 1
vt 0 1
vt 0 0.5
vt 0.5 0.5
vt 0.5 1
vt 0 1
vt 0 0.5
vt 0.5 0.9375
vt 0.5 1
vt 0 1
vt 0 0.9375
vt 0 0.5
vt 0 0.5625
vt 0.5 0.5625
vt 0.5 0.5
vt 0.75 0.4375
vt 0.75 0.5
vt 0.5 0.5
vt 0.5 0.4375
vt 0.75 0.375
vt 0.75 0.4375
vt 0.5 0.4375
vt 0.5 0.375
vt 0.75 0.375
vt 0.75 0.4375
vt 0.5 0.4375
vt 0.5 0.375
vt 0.75 0.4375
vt 0.75 0.5
vt 0.5 0.5
vt 0.5 0.4375
vt 0.375 0.5
vt 0.375 0.6875
vt 0.125 0.6875
vt 0.125 0.5
vt 0.375 0.5
vt 0.375 0.6875
vt 0.125 0.6875
vt 0.125 0.5
vt 0.375 0.5
vt 0.375 0.6875
vt 0.3125 0.6875
vt 0.3125 0.5
vt 0.1875 0.5
vt 0.1875 0.6875
vt 0.125 0.6875
vt 0.125 0.5
vt 0.375 0.5
vt 0.375 0.6875
vt 0.125 0.6875
vt 0.125 0.5
vt 0.375 0.5
vt 0.375 0.6875
vt 0.125 0.6875
vt 0.125 0.5
vt 0.375 0.5
vt 0.375 0.6875
vt 0.3125 0.6875
vt 0.3125 0.5
vt 0.1875 0.5
vt 0.1875 0.6875
vt 0.125 0.6875
vt 0.125 0.5
vt 0.3125 0.5625
vt 0.28125 0.5
vt 0.21875 0.5
vt 0.1875 0.5625
vt 0.1875 0.5625
vt 0.21875 0.5
vt 0.28125 0.5
vt 0.3125 0.5625
vt 0.28125 0.5625
vt 0.21875 0.5625
vt 0.21875 0.5
vt 0.28125 0.5
vt 0.3125 0.5
vt 0.3125 0.5625
vt 0.28125 0.5625
vt 0.28125 0.5
vt 0.21875 0.5
vt 0.21875 0.5625
vt 0.1875 0.5625
vt 0.1875 0.5
vt 0.3125 0.5625
vt 0.28125 0.5
vt 0.21875 0.5
vt 0.1875 0.5625
vt 0.1875 0.5625
vt 0.21875 0.5
vt 0.28125 0.5
vt 0.3125 0.5625
vt 0.28125 0.5625
vt 0.21875 0.5625
vt 0.21875 0.5
vt 0.28125 0.5
vt 0.3125 0.5
vt 0.3125 0.5625
vt 0.28125 0.5625
vt 0.28125 0.5
vt 0.21875 0.5
vt 0.21875 0.5625
vt 0.1875 0.5625
vt 0.1875 0.5
vn 1 0 0
vn -1 0 0
vn 0 1 0
vn 0 -1 0
vn 0 0 1
vn 0 0 -1
vn 1 0 0
vn -1 0 0
vn 0 0 1
vn 0 0 -1
vn 1 0 0
vn -1 0 0
vn 0 0 1
vn 0 0 -1
vn 1 0 0
vn -1 0 0
vn 0 0 1
vn 0 0 -1
vn 1 0 0
vn -1 0 0
vn 0 1 0
vn 0 0.7071067811865476 0.7071067811865476
vn 0 0.7071067811865476 -0.7071067811865476
vn 1 0 0
vn -1 0 0
vn 0 1 0
vn 0 0.7071067811865476 0.7071067811865476
vn 0 0.7071067811865476 -0.7071067811865476
usemtl advanced_inserter
f 204/585/147 202/586/147 201/587/147
f 204/585/147 201/587/147 203/588/147
f 207/589/148 205/590/148 206/591/148
f 207/589/148 206/591/148 208/592/148
f 201/593/149 202/594/149 206/595/149
f 201/593/149 206/595/149 205/596/149
f 204/597/150 203/598/150 207/599/150
f 204/597/150 207/599/150 208/600/150
f 203/601/151 201/602/151 205/603/151
f 203/601/151 205/603/151 207/604/151
f 208/605/152 206/606/152 202/607/152
f 208/605/152 202/607/152 204/608/152
usemtl inserter_base2
f 212/609/153 210/610/153 209/611/153
f 212/609/153 209/611/153 211/612/153
f 215/613/154 213/614/154 214/615/154
f 215/613/154 214/615/154 216/616/154
f 211/617/155 209/618/155 213/619/155
f 211/617/155 213/619/155 215/620/155
f 216/621/156 214/622/156 210/623/156
f 216/621/156 210/623/156 212/624/156
usemtl advanced_inserter
f 220/625/157 218/626/157 217/627/157
f 220/625/157 217/627/157 219/628/157
f 223/629/158 221/630/158 222/631/158
f 223/629/158 222/631/158 224/632/158
f 219/633/159 217/634/159 221/635/159
f 219/633/159 221/635/159 223/636/159
f 224/637/160 222/638/160 218/639/160
f 224/637/160 218/639/160 220/640/160
f 228/641/161 226/642/161 225/643/161
f 228/641/161 225/643/161 227/644/161
f 231/645/162 229/646/162 230/647/162
f 231/645/162 230/647/162 232/648/162
f 227/649/163 225/650/163 229/651/163
f 227/649/163 229/651/163 231/652/163
f 232/653/164 230/654/164 226/655/164
f 232/653/164 226/655/164 228/656/164
f 218/657/165 234/658/165 233/659/165
f 218/657/165 233/659/165 217/660/165
f 221/661/166 235/662/166 236/663/166
f 221/661/166 236/663/166 222/664/166
f 233/665/167 234/666/167 236/667/167
f 233/665/167 236/667/167 235/668/167
f 217/669/168 233/670/168 235/671/168
f 217/669/168 235/671/168 221/672/168
f 222/673/169 236/674/169 234/675/169
f 222/673/169 234/675/169 218/676/169
f 226/677/170 238/678/170 237/679/170
f 226/677/170 237/679/170 225/680/170
f 229/681/171 239/682/171 240/683/171
f 229/681/171 240/683/171 230/684/171
f 237/685/172 238/686/172 240/687/172
f 237/685/172 240/687/172 239/688/172
f 225/689/173 237/690/173 239/691/173
f 225/689/173 239/691/173 229/692/173
f 230/693/174 240/694/174 238/695/174
f 230/693/174 238/695/174 226/696/174