# Made by Pabilo8 with Blockbench
# Exported with IIToolkit Plugin
mtllib syringe.mtl


o syringe
v 0.5625 2.3125 0.5625
v 0.5625 2.3125 0.4375
v 0.5625 2.25 0.5625
v 0.5625 2.25 0.4375
v 0.4375 2.3125 0.5625
v 0.4375 2.3125 0.4375
v 0.4375 2.25 0.5625
v 0.4375 2.25 0.4375
v 0.59375 2.375 0.59375
v 0.59375 2.375 0.40625
v 0.59375 2.3125 0.59375
v 0.59375 2.3125 0.40625
v 0.40625 2.375 0.59375
v 0.40625 2.375 0.40625
v 0.40625 2.3125 0.59375
v 0.40625 2.3125 0.40625
v 0.53125 2.78125 0.53125
v 0.53125 2.78125 0.46875
v 0.53125 2.59375 0.53125
v 0.53125 2.59375 0.46875
v 0.46875 2.78125 0.53125
v 0.46875 2.78125 0.46875
v 0.46875 2.59375 0.53125
v 0.46875 2.59375 0.46875
v 0.5625 2.625 0.5625
v 0.5625 2.625 0.4375
v 0.5625 2.375 0.5625
v 0.5625 2.375 0.4375
v 0.4375 2.625 0.5625
v 0.4375 2.625 0.4375
v 0.4375 2.375 0.5625
v 0.4375 2.375 0.4375
v 0.5625 2.4375 0.4375
v 0.5625 2.375 0.34375
v 0.5625 2.4375 0.34375
v 0.4375 2.4375 0.4375
v 0.4375 2.375 0.34375
v 0.4375 2.4375 0.34375
v 0.5625 2.375 0.40625
v 0.5625 2.1875 0.40625
v 0.5625 2.1875 0.34375
v 0.4375 2.375 0.40625
v 0.4375 2.1875 0.40625
v 0.4375 2.1875 0.34375
vt 0.375 0.4375
vt 0.375 0.5
vt 0.25 0.5
vt 0.25 0.4375
vt 0.375 0.4375
vt 0.375 0.5
vt 0.25 0.5
vt 0.25 0.4375
vt 0.375 0.4375
vt 0.375 0.5625
vt 0.25 0.5625
vt 0.25 0.4375
vt 0.375 0.4375
vt 0.375 0.5625
vt 0.25 0.5625
vt 0.25 0.4375
vt 0.375 0.5625
vt 0.3125 0.5625
vt 0.3125 0.4375
vt 0.375 0.4375
vt 0.3125 0.4375
vt 0.25 0.4375
vt 0.25 0.5625
vt 0.3125 0.5625
vt 0.3125 0.1875
vt 0.25 0.1875
vt 0.25 0
vt 0.3125 0
vt 0.4375 0.1875
vt 0.375 0.1875
vt 0.375 0
vt 0.4375 0
vt 0.25 0.1875
vt 0.25 0
vt 0.4375 0
vt 0.4375 0.1875
vt 0.4375 0
vt 0.4375 0.1875
vt 0.25 0.1875
vt 0.25 0
vt 0.4375 0.125
vt 0.4375 0.1875
vt 0.25 0.1875
vt 0.25 0.125
vt 0.4375 0
vt 0.4375 0.0625
vt 0.25 0.0625
vt 0.25 0
vt 0.4375 0.1875
vt 0.4375 0.375
vt 0.375 0.375
vt 0.375 0.1875
vt 0.4375 0.1875
vt 0.4375 0.375
vt 0.375 0.375
vt 0.375 0.1875
vt 0.4375 0.3125
vt 0.4375 0.375
vt 0.375 0.375
vt 0.375 0.3125
vt 0.4375 0.1875
vt 0.4375 0.25
vt 0.375 0.25
vt 0.375 0.1875
vt 0.4375 0.1875
vt 0.4375 0.375
vt 0.375 0.375
vt 0.375 0.1875
vt 0.4375 0.1875
vt 0.4375 0.375
vt 0.375 0.375
vt 0.375 0.1875
vt 0.375 0.1875
vt 0.375 0.4375
vt 0.25 0.4375
vt 0.25 0.1875
vt 0.375 0.1875
vt 0.375 0.4375
vt 0.25 0.4375
vt 0.25 0.1875
vt 0.375 0.3125
vt 0.375 0.4375
vt 0.25 0.4375
vt 0.25 0.3125
vt 0.375 0.1875
vt 0.375 0.4375
vt 0.25 0.4375
vt 0.25 0.1875
vt 0.375 0.1875
vt 0.375 0.4375
vt 0.25 0.4375
vt 0.25 0.1875
vt 0.875 0.9375
vt 0.875 1
vt 0.8125 1
vt 0.8125 0.9375
vt 0.9375 1
vt 0.875 1
vt 0.875 0.9375
vt 0.9375 0.9375
vt 0.9375 0.9375
vt 0.9375 1
vt 0.8125 1
vt 0.8125 0.9375
vt 0.8125 1
vt 0.8125 0.90625
vt 0.9375 0.90625
vt 0.9375 1
vt 0.9375 1
vt 0.8125 1
vt 0.8125 0.9375
vt 0.9375 0.9375
vt 0.875 0.75
vt 0.875 0.9375
vt 0.8125 0.9375
vt 0.8125 0.75
vt 0.9375 0.75
vt 0.9375 0.9375
vt 0.875 0.9375
vt 0.875 0.75
vt 0.8125 0.75
vt 0.8125 0.9375
vt 0.9375 0.9375
vt 0.9375 0.75
vt 0.9375 0.75
vt 0.9375 0.9375
vt 0.8125 0.9375
vt 0.8125 0.75
vn 1 0 0
vn -1 0 0
vn 0 1 0
vn 0 -1 0
vn 0 0 1
vn 0 0 -1
vn 1 0 0
vn -1 0 0
vn 0 1 0
vn 0 -1 0
vn 0 0 1
vn 0 0 -1
vn 1 0 0
vn -1 0 0
vn 0 1 0
vn 0 -1 0
vn 0 0 1
vn 0 0 -1
vn 1 0 0
vn -1 0 0
vn 0 1 0
vn 0 0 1
vn 0 0 -1
vn 1 0 0
vn -1 0 0
vn 0 0 1
vn 0 1 0
vn 0 0 -1
vn 1 0 0
vn -1 0 0
vn 0 0 1
vn 0 0 -1
usemtl tool_red
f 4/1/1 2/2/1 1/3/1
f 4/1/1 1/3/1 3/4/1
f 7/5/2 5/6/2 6/7/2
f 7/5/2 6/7/2 8/8/2
f 1/9/3 2/10/3 6/11/3
f 1/9/3 6/11/3 5/12/3
f 4/13/4 3/14/4 7/15/4
f 4/13/4 7/15/4 8/16/4
f 3/17/5 1/18/5 5/19/5
f 3/17/5 5/19/5 7/20/5
f 8/21/6 6/22/6 2/23/6
f 8/21/6 2/23/6 4/24/6
f 12/25/7 10/26/7 9/27/7
f 12/25/7 9/27/7 11/28/7
f 15/29/8 13/30/8 14/31/8
f 15/29/8 14/31/8 16/32/8
f 9/33/9 10/34/9 14/35/9
f 9/33/9 14/35/9 13/36/9
f 12/37/10 11/38/10 15/39/10
f 12/37/10 15/39/10 16/40/10
f 11/41/11 9/42/11 13/43/11
f 11/41/11 13/43/11 15/44/11
f 16/45/12 14/46/12 10/47/12
f 16/45/12 10/47/12 12/48/12
f 20/49/13 18/50/13 17/51/13
f 20/49/13 17/51/13 19/52/13
f 23/53/14 21/54/14 22/55/14
f 23/53/14 22/55/14 24/56/14
f 17/57/15 18/58/15 22/59/15
f 17/57/15 22/59/15 21/60/15
f 20/61/16 19/62/16 23/63/16
f 20/61/16 23/63/16 24/64/16
f 19/65/17 17/66/17 21/67/17
f 19/65/17 21/67/17 23/68/17
f 24/69/18 22/70/18 18/71/18
f 24/69/18 18/71/18 20/72/18
f 28/73/19 26/74/19 25/75/19
f 28/73/19 25/75/19 27/76/19
f 31/77/20 29/78/20 30/79/20
f 31/77/20 30/79/20 32/80/20
f 25/81/21 26/82/21 30/83/21
f 25/81/21 30/83/21 29/84/21
f 27/85/22 25/86/22 29/87/22
f 27/85/22 29/87/22 31/88/22
f 32/89/23 30/90/23 26/91/23
f 32/89/23 26/91/23 28/92/23
f 35/93/24 33/94/24 28/95/24
f 35/93/24 28/95/24 34/96/24
f 37/97/25 32/98/25 36/99/25
f 37/97/25 36/99/25 38/100/25
f 28/101/26 33/102/26 36/103/26
f 28/101/26 36/103/26 32/104/26
f 38/105/27 36/106/27 33/107/27
f 38/105/27 33/107/27 35/108/27
f 34/109/28 37/110/28 38/111/28
f 34/109/28 38/111/28 35/112/28
f 41/113/29 34/114/29 39/115/29
f 41/113/29 39/115/29 40/116/29
f 43/117/30 42/118/30 37/119/30
f 43/117/30 37/119/30 44/120/30
f 40/121/31 39/122/31 42/123/31
f 40/121/31 42/123/31 43/124/31
f 44/125/32 37/126/32 34/127/32
f 44/125/32 34/127/32 41/128/32
o upper
v 0.59375 2.3125 0.59375
v 0.59375 2.3125 0.40625
v 0.59375 2.25 0.59375
v 0.59375 2.25 0.40625
v 0.40625 2.3125 0.59375
v 0.40625 2.3125 0.40625
v 0.40625 2.25 0.59375
v 0.40625 2.25 0.40625
v 0.46875 1.9375 0.53125
v 0.53125 1.9375 0.53125
v 0.53125 1.9375 0.46875
v 0.46875 1.9375 0.46875
v 0.46875 1.375 0.46875
v 0.53125 1.375 0.46875
v 0.53125 1.375 0.53125
v 0.46875 1.375 0.53125
v 0.5625 1.40625 0.5625
v 0.5625 1.40625 0.4375
v 0.5625 1.28125 0.5625
v 0.5625 1.28125 0.4375
v 0.4375 1.40625 0.5625
v 0.4375 1.40625 0.4375
v 0.4375 1.28125 0.5625
v 0.4375 1.28125 0.4375
v 0.59375 2.0625 0.59375
v 0.59375 2.0625 0.40625
v 0.40625 2.0625 0.59375
v 0.40625 2.0625 0.40625
v 0.5625 2.0625 0.5625
v 0.5625 2.0625 0.4375
v 0.5625 1.9375 0.5625
v 0.5625 1.9375 0.4375
v 0.4375 2.0625 0.5625
v 0.4375 2.0625 0.4375
v 0.4375 1.9375 0.5625
v 0.4375 1.9375 0.4375
v 0.59375 2.25 0.28125
v 0.59375 2.0625 0.28125
v 0.40625 2.25 0.28125
v 0.40625 2.0625 0.28125
v 0.46875 1.90625 0.40625
v 0.28125 1.90625 0.40624999999999994
v 0.46875 1.53125 0.40625
v 0.28125 1.53125 0.40624999999999994
v 0.46875 1.90625 0.59375
v 0.28125 1.90625 0.59375
v 0.46875 1.53125 0.59375
v 0.28125 1.53125 0.59375
v 0.40625 2.21875 0.4375
v 0.375 2.21875 0.4375
v 0.40625 2.15625 0.4375
v 0.34375 2.15625 0.4375
v 0.40625 2.21875 0.5625
v 0.375 2.21875 0.5625
v 0.40625 2.15625 0.5625
v 0.34375 2.15625 0.5625
v 0.40625 1.90625 0.4375
v 0.34375 1.90625 0.4375
v 0.40625 1.90625 0.5625
v 0.34375 1.90625 0.5625
v 0.59375 1.84375 0.40625
v 0.46875 1.84375 0.40625
v 0.59375 1.78125 0.40625
v 0.46875 1.78125 0.40625
v 0.59375 1.84375 0.59375
v 0.46875 1.84375 0.59375
v 0.59375 1.78125 0.59375
v 0.46875 1.78125 0.59375
v 0.59375 1.71875 0.40625
v 0.46875 1.71875 0.40625
v 0.59375 1.65625 0.40625
v 0.46875 1.65625 0.40625
v 0.59375 1.71875 0.59375
v 0.46875 1.71875 0.59375
v 0.59375 1.65625 0.59375
v 0.46875 1.65625 0.59375
vt 0.3125 0.1875
vt 0.25 0.1875
vt 0.25 0
vt 0.3125 0
vt 0.4375 0.1875
vt 0.375 0.1875
vt 0.375 0
vt 0.4375 0
vt 0.25 0.1875
vt 0.25 0
vt 0.4375 0
vt 0.4375 0.1875
vt 0.4375 0.125
vt 0.4375 0.1875
vt 0.25 0.1875
vt 0.25 0.125
vt 0.4375 0
vt 0.4375 0.0625
vt 0.25 0.0625
vt 0.25 0
vt 1 0.375
vt 0.9375 0.375
vt 0.9375 0.4375
vt 1 0.4375
vt 0.4375 0.5
vt 0.5 0.5
vt 0.5 0
vt 0.4375 0
vt 0.4375 0.5
vt 0.5 0.5
vt 0.5 0.1875
vt 0.4375 0.1875
vt 0.4375 0.5
vt 0.5 0.5
vt 0.5 0
vt 0.4375 0
vt 0.4375 0.5
vt 0.5 0.5
vt 0.5 0
vt 0.4375 0
vt 0.625 1
vt 0.625 0.875
vt 0.5 0.875
vt 0.5 1
vt 0.625 1
vt 0.625 0.875
vt 0.5 0.875
vt 0.5 1
vt 0.625 0.875
vt 0.625 1
vt 0.5 1
vt 0.5 0.875
vt 0.5 1
vt 0.5 0.875
vt 0.625 0.875
vt 0.625 1
vt 0.8125 0.75
vt 0.8125 0.5625
vt 0.625 0.5625
vt 0.625 0.75
vt 0.8125 0.75
vt 0.8125 0.5625
vt 0.625 0.5625
vt 0.625 0.75
vt 1 0.75
vt 1 0.5625
vt 0.8125 0.5625
vt 0.8125 0.75
vt 1 0.75
vt 1 0.5625
vt 0.8125 0.5625
vt 0.8125 0.75
vt 0.8125 0.75
vt 0.8125 0.5625
vt 0.625 0.5625
vt 0.625 0.75
vt 0.8125 0.75
vt 0.8125 0.5625
vt 0.625 0.5625
vt 0.625 0.75
vt 0.625 0.625
vt 0.625 0.75
vt 0.5 0.75
vt 0.5 0.625
vt 0.625 0.625
vt 0.625 0.75
vt 0.5 0.75
vt 0.5 0.625
vt 0.625 0.625
vt 0.625 0.75
vt 0.5 0.75
vt 0.5 0.625
vt 0.5 0.625
vt 0.5 0.75
vt 0.625 0.75
vt 0.625 0.625
vt 0.5 0.625
vt 0.5 0.75
vt 0.625 0.75
vt 0.625 0.625
vt 0.8125 0.8125
vt 0.8125 0.625
vt 0.9375 0.625
vt 0.9375 0.8125
vt 0.9375 0.625
vt 0.9375 0.8125
vt 0.8125 0.8125
vt 0.8125 0.625
vt 0.9375 0.625
vt 0.8125 0.625
vt 0.8125 0.8125
vt 0.9375 0.8125
vt 0.8125 0.8125
vt 0.9375 0.8125
vt 0.9375 0.625
vt 0.8125 0.625
vt 0.8125 0.625
vt 0.8125 0.8125
vt 0.625 0.8125
vt 0.625 0.625
vt 0.5 0.5625
vt 0.125 0.5625
vt 0.125 0.75
vt 0.5 0.75
vt 0.5 0.5625
vt 0.125 0.5625
vt 0.125 0.75
vt 0.5 0.75
vt 1 0.9375
vt 1 0.75
vt 0.8125 0.75
vt 0.8125 0.9375
vt 1 0.75
vt 1 0.9375
vt 0.8125 0.9375
vt 0.8125 0.75
vt 0.5 0.75
vt 0.125 0.75
vt 0.125 0.5625
vt 0.5 0.5625
vt 0.5 0.75
vt 0.125 0.75
vt 0.125 0.5625
vt 0.5 0.5625
vt 0.625 0.5625
vt 0.625 0.625
vt 0.5625 0.625
vt 0.5625 0.5625
vt 0.6875 0.5625
vt 0.6875 0.625
vt 0.625 0.625
vt 0.625 0.5625
vt 0.5625 0.5625
vt 0.5625 0.625
vt 0.6875 0.625
vt 0.6875 0.5625
vt 0.6875 0.5625
vt 0.6875 0.625
vt 0.5625 0.625
vt 0.5625 0.5625
vt 0.6875 0.0625
vt 0.6875 0.3125
vt 0.625 0.3125
vt 0.625 0.0625
vt 0.625 0.0625
vt 0.625 0.3125
vt 0.5625 0.3125
vt 0.5625 0.0625
vt 0.5625 0.0625
vt 0.5625 0.3125
vt 0.6875 0.3125
vt 0.6875 0.0625
vt 0.6875 0.0625
vt 0.6875 0.3125
vt 0.5625 0.3125
vt 0.5625 0.0625
vt 0.6875 1
vt 0.625 1
vt 0.625 0.875
vt 0.6875 0.875
vt 0.5625 0.875
vt 0.5 0.875
vt 0.5 1
vt 0.5625 1
vt 0.6875 0.875
vt 0.6875 1
vt 0.5 1
vt 0.5 0.875
vt 0.5 0.875
vt 0.5 1
vt 0.6875 1
vt 0.6875 0.875
vt 0.6875 0.875
vt 0.6875 0.9375
vt 0.5 0.9375
vt 0.5 0.875
vt 0.6875 1
vt 0.625 1
vt 0.625 0.875
vt 0.6875 0.875
vt 0.5625 0.875
vt 0.5 0.875
vt 0.5 1
vt 0.5625 1
vt 0.6875 0.875
vt 0.6875 1
vt 0.5 1
vt 0.5 0.875
vt 0.5 0.875
vt 0.5 1
vt 0.6875 1
vt 0.6875 0.875
vt 0.6875 0.875
vt 0.6875 0.9375
vt 0.5 0.9375
vt 0.5 0.875
vn 1 0 0
vn -1 0 0
vn 0 1 0
vn 0 0 1
vn 0 0 -1
vn 0 -1 0
vn 0 0 1
vn 0 0 -1
vn 1 0 0
vn -1 0 0
vn 0 1 0
vn 0 -1 0
vn 0 0 1
vn 0 0 -1
vn 1 0 0
vn -1 0 0
vn 0 1 0
vn 0 -1 0
vn 0 0 1
vn 0 0 -1
vn 1 0 0
vn -1 0 0
vn 0 -1 0
vn 0 0 1
vn 0 0 -1
vn 1 0 0
vn -1 0 0
vn 0 1 0
vn 0 -1 0
vn 0 0 -1
vn 2.9605947323337506e-16 0 -1
vn 0 0 1
vn 0 1 0
vn 0 -1 0
vn 1 0 0
vn -1 0 0
vn 0 0 -1
vn 0 0 1
vn 0 1 0
vn -0.8944271909999161 0.44721359549995804 0
vn 0 0 -1
vn 0 0 1
vn 1 0 0
vn -1 0 0
vn 0 0 -1
vn 0 0 1
vn 0 1 0
vn 0 -1 0
vn 1 0 0
vn 0 0 -1
vn 0 0 1
vn 0 1 0
vn 0 -1 0
vn 1 0 0
usemtl tool_red
f 48/129/33 46/130/33 45/131/33
f 48/129/33 45/131/33 47/132/33
f 51/133/34 49/134/34 50/135/34
f 51/133/34 50/135/34 52/136/34
f 45/137/35 46/138/35 50/139/35
f 45/137/35 50/139/35 49/140/35
f 47/141/36 45/142/36 49/143/36
f 47/141/36 49/143/36 51/144/36
f 52/145/37 50/146/37 46/147/37
f 52/145/37 46/147/37 48/148/37
usemtl advanced_inserter
f 57/149/38 58/150/38 59/151/38
f 57/149/38 59/151/38 60/152/38
f 54/153/39 53/154/39 60/155/39
f 54/153/39 60/155/39 59/156/39
f 56/157/40 55/158/40 58/159/40
f 56/157/40 58/159/40 57/160/40
f 55/161/41 54/162/41 59/163/41
f 55/161/41 59/163/41 58/164/41
f 53/165/42 56/166/42 57/167/42
f 53/165/42 57/167/42 60/168/42
f 61/169/43 62/170/43 66/171/43
f 61/169/43 66/171/43 65/172/43
f 64/173/44 63/174/44 67/175/44
f 64/173/44 67/175/44 68/176/44
f 63/177/45 61/178/45 65/179/45
f 63/177/45 65/179/45 67/180/45
f 68/181/46 66/182/46 62/183/46
f 68/181/46 62/183/46 64/184/46
usemtl tool_red
f 70/185/47 48/186/47 47/187/47
f 70/185/47 47/187/47 69/188/47
f 71/189/48 51/190/48 52/191/48
f 71/189/48 52/191/48 72/192/48
f 47/193/49 48/194/49 52/195/49
f 47/193/49 52/195/49 51/196/49
f 70/197/50 69/198/50 71/199/50
f 70/197/50 71/199/50 72/200/50
f 69/201/51 47/202/51 51/203/51
f 69/201/51 51/203/51 71/204/51
f 72/205/52 52/206/52 48/207/52
f 72/205/52 48/207/52 70/208/52
f 76/209/53 74/210/53 73/211/53
f 76/209/53 73/211/53 75/212/53
f 79/213/54 77/214/54 78/215/54
f 79/213/54 78/215/54 80/216/54
f 76/217/55 75/218/55 79/219/55
f 76/217/55 79/219/55 80/220/55
f 75/221/56 73/222/56 77/223/56
f 75/221/56 77/223/56 79/224/56
f 80/225/57 78/226/57 74/227/57
f 80/225/57 74/227/57 76/228/57
usemtl advanced_inserter
f 82/229/58 81/230/58 48/231/58
f 82/229/58 48/231/58 70/232/58
f 72/233/59 52/234/59 83/235/59
f 72/233/59 83/235/59 84/236/59
f 48/237/60 81/238/60 83/239/60
f 48/237/60 83/239/60 52/240/60
f 82/241/61 70/242/61 72/243/61
f 82/241/61 72/243/61 84/244/61
f 84/245/62 83/246/62 81/247/62
f 84/245/62 81/247/62 82/248/62
usemtl tool_red
f 88/249/63 86/250/63 85/251/63
f 88/249/63 85/251/63 87/252/63
f 91/253/64 89/254/64 90/255/64
f 91/253/64 90/255/64 92/256/64
f 85/257/65 86/258/65 90/259/65
f 85/257/65 90/259/65 89/260/65
f 88/261/66 87/262/66 91/263/66
f 88/261/66 91/263/66 92/264/66
f 87/265/67 85/266/67 89/267/67
f 87/265/67 89/267/67 91/268/67
f 92/269/68 90/270/68 86/271/68
f 92/269/68 86/271/68 88/272/68
usemtl common_copper_cable
f 96/273/69 94/274/69 93/275/69
f 96/273/69 93/275/69 95/276/69
f 99/277/70 97/278/70 98/279/70
f 99/277/70 98/279/70 100/280/70
f 93/281/71 94/282/71 98/283/71
f 93/281/71 98/283/71 97/284/71
f 100/285/72 98/286/72 94/287/72
f 100/285/72 94/287/72 96/288/72
f 102/289/73 96/290/73 95/291/73
f 102/289/73 95/291/73 101/292/73
f 103/293/74 99/294/74 100/295/74
f 103/293/74 100/295/74 104/296/74
f 101/297/75 95/298/75 99/299/75
f 101/297/75 99/299/75 103/300/75
f 104/301/76 100/302/76 96/303/76
f 104/301/76 96/303/76 102/304/76
usemtl tool_red
f 108/305/77 106/306/77 105/307/77
f 108/305/77 105/307/77 107/308/77
f 111/309/78 109/310/78 110/311/78
f 111/309/78 110/311/78 112/312/78
f 105/313/79 106/314/79 110/315/79
f 105/313/79 110/315/79 109/316/79
f 108/317/80 107/318/80 111/319/80
f 108/317/80 111/319/80 112/320/80
f 107/321/81 105/322/81 109/323/81
f 107/321/81 109/323/81 111/324/81
f 116/325/82 114/326/82 113/327/82
f 116/325/82 113/327/82 115/328/82
f 119/329/83 117/330/83 118/331/83
f 119/329/83 118/331/83 120/332/83
f 113/333/84 114/334/84 118/335/84
f 113/333/84 118/335/84 117/336/84
f 116/337/85 115/338/85 119/339/85
f 116/337/85 119/339/85 120/340/85
f 115/341/86 113/342/86 117/343/86
f 115/341/86 117/343/86 119/344/86
o lower
v 0.459375 1.4375 0.59375
v 0.459375 1.4375 0.40625
v 0.459375 1.25 0.59375
v 0.459375 1.25 0.40625
v 0.271875 1.4375 0.59375
v 0.271875 1.4375 0.40625
v 0.271875 1.25 0.59375
v 0.271875 1.25 0.40625
v 0.540625 1.4375 0.59375
v 0.540625 1.4375 0.40625
v 0.540625 1.25 0.59375
v 0.540625 1.25 0.40625
v 0.728125 1.4375 0.59375
v 0.728125 1.4375 0.40625
v 0.728125 1.25 0.59375
v 0.728125 1.25 0.40625
v 0.6875 0.5625 0.5625
v 0.6875 0.5625 0.4375
v 0.6875 0.4375 0.5625
v 0.6875 0.4375 0.4375
v 0.3125 0.5625 0.5625
v 0.3125 0.5625 0.4375
v 0.3125 0.4375 0.5625
v 0.3125 0.4375 0.4375
v 0.6875 1.1875 0.46875
v 0.6875 1.1875 0.40625
v 0.6875 0.6875 0.46875
v 0.6875 0.6875 0.40625
v 0.3125 1.1875 0.46875
v 0.3125 1.1875 0.40625
v 0.3125 0.6875 0.46875
v 0.3125 0.6875 0.40625
v 0.65625 1.1562499999999996 0.40625
v 0.65625 1.1562499999999996 0.375
v 0.65625 0.96875 0.40625
v 0.65625 0.96875 0.375
v 0.34375 1.1562499999999996 0.40625
v 0.34375 1.1562499999999996 0.375
v 0.34375 0.96875 0.40625
v 0.34375 0.96875 0.375
v 0.65625 0.9374999999999996 0.40625
v 0.65625 0.9374999999999996 0.375
v 0.65625 0.75 0.40625
v 0.65625 0.75 0.375
v 0.34375 0.9374999999999996 0.40625
v 0.34375 0.9374999999999996 0.375
v 0.34375 0.75 0.40625
v 0.34375 0.75 0.375
v 0.65625 1.25 0.546875
v 0.65625 1.25 0.453125
v 0.65625 0.625 0.546875
v 0.65625 0.625 0.45312500000000006
v 0.5625 1.25 0.546875
v 0.5625 1.25 0.453125
v 0.5625 0.625 0.546875
v 0.5625 0.625 0.45312500000000006
v 0.65625 0.9375 0.453125
v 0.65625 0.9375 0.546875
v 0.5625 0.9375 0.546875
v 0.5625 0.9375 0.453125
v 0.4375 1.25 0.546875
v 0.4375 1.25 0.453125
v 0.4375 0.625 0.546875
v 0.4375 0.625 0.45312500000000006
v 0.34375 1.25 0.546875
v 0.34375 1.25 0.453125
v 0.34375 0.625 0.546875
v 0.34375 0.625 0.45312500000000006
v 0.4375 0.9375 0.453125
v 0.4375 0.9375 0.546875
v 0.34375 0.9375 0.546875
v 0.34375 0.9375 0.453125
v 0.4375 0.5625 0.421875
v 0.4375 0.5625 0.359375
v 0.4375 0.4375 0.421875
v 0.4375 0.4375 0.359375
v 0.34375 0.5625 0.421875
v 0.34375 0.5625 0.359375
v 0.34375 0.4375 0.421875
v 0.34375 0.4375 0.359375
v 0.4375 0.5625 0.640625
v 0.4375 0.5625 0.578125
v 0.4375 0.4375 0.640625
v 0.4375 0.4375 0.578125
v 0.34375 0.5625 0.640625
v 0.34375 0.5625 0.578125
v 0.34375 0.4375 0.640625
v 0.34375 0.4375 0.578125
v 0.65625 0.5625 0.421875
v 0.65625 0.5625 0.359375
v 0.65625 0.4375 0.421875
v 0.65625 0.4375 0.359375
v 0.5625 0.5625 0.421875
v 0.5625 0.5625 0.359375
v 0.5625 0.4375 0.421875
v 0.5625 0.4375 0.359375
v 0.65625 0.5625 0.640625
v 0.65625 0.5625 0.578125
v 0.65625 0.4375 0.640625
v 0.65625 0.4375 0.578125
v 0.5625 0.5625 0.640625
v 0.5625 0.5625 0.578125
v 0.5625 0.4375 0.640625
v 0.5625 0.4375 0.578125
vt 0.09375 0.8125
vt 0.09375 1
vt 0 1
vt 0 0.8125
vt 0.8125 0.8125
vt 0.8125 0.625
vt 0.625 0.625
vt 0.625 0.8125
vt 0.8125 0.625
vt 0.8125 0.8125
vt 1 0.8125
vt 1 0.625
vt 0.8125 0.8125
vt 0.8125 0.625
vt 1 0.625
vt 1 0.8125
vt 0.8125 0.625
vt 0.8125 0.8125
vt 1 0.8125
vt 1 0.625
vt 1 0.625
vt 1 0.8125
vt 0.8125 0.8125
vt 0.8125 0.625
vt 0 1
vt 0.09375 1
vt 0.09375 0.8125
vt 0 0.8125
vt 0.625 0.625
vt 0.8125 0.625
vt 0.8125 0.8125
vt 0.625 0.8125
vt 1 0.8125
vt 0.8125 0.8125
vt 0.8125 0.625
vt 1 0.625
vt 1 0.625
vt 0.8125 0.625
vt 0.8125 0.8125
vt 1 0.8125
vt 1 0.8125
vt 0.8125 0.8125
vt 0.8125 0.625
vt 1 0.625
vt 0.8125 0.8125
vt 1 0.8125
vt 1 0.625
vt 0.8125 0.625
vt 0.0625 0.875
vt 0.0625 1
vt 0 1
vt 0 0.875
vt 0.0625 0.875
vt 0.0625 1
vt 0 1
vt 0 0.875
vt 0.5 0.625
vt 0.625 0.625
vt 0.625 1
vt 0.5 1
vt 0.625 0.625
vt 0.5 0.625
vt 0.5 1
vt 0.625 1
vt 0.625 0.625
vt 0.49999999999999994 0.625
vt 0.49999999999999994 1
vt 0.625 1
vt 0.5 1
vt 0.625 1
vt 0.625 0.625
vt 0.5 0.625
vt 0 0.5
vt 0 0
vt 0.03125 0
vt 0.03125 0.5
vt 0.34375 0
vt 0.34375 0.5
vt 0.375 0.5
vt 0.375 0
vt 0 0.0625
vt 0 0
vt 0.375 0
vt 0.375 0.0625
vt 0 0.5
vt 0 0.4375
vt 0.375 0.4375
vt 0.375 0.5
vt 0.375 0.5
vt 0.375 0
vt 0 0
vt 0 0.5
vt 0.375 0.5
vt 0.375 0
vt 0 0
vt 0 0.5
vt 0.71875 0.8125000000000004
vt 0.71875 1
vt 0.6875 1
vt 0.6875 0.8125000000000004
vt 1 0.8125000000000004
vt 1 1
vt 0.96875 1
vt 0.96875 0.8125000000000004
vt 0.6875 0.9375
vt 0.6875 1
vt 1 1
vt 1 0.9375
vt 0.6875 0.8125
vt 0.6875 0.875
vt 1 0.875
vt 1 0.8125
vt 1 0.8125000000000004
vt 1 1
vt 0.6875 1
vt 0.6875 0.8125000000000004
vt 0.71875 0.8125000000000004
vt 0.71875 1
vt 0.6875 1
vt 0.6875 0.8125000000000004
vt 1 0.8125000000000004
vt 1 1
vt 0.96875 1
vt 0.96875 0.8125000000000004
vt 0.6875 0.9375
vt 0.6875 1
vt 1 1
vt 1 0.9375
vt 0.6875 0.8125
vt 0.6875 0.875
vt 1 0.875
vt 1 0.8125
vt 1 0.8125000000000004
vt 1 1
vt 0.6875 1
vt 0.6875 0.8125000000000004
vt 0.375 0.5
vt 0.375 0.1875
vt 0.5 0.1875
vt 0.5 0.5
vt 0.375 0.5
vt 0.375 0.1875
vt 0.5 0.1875
vt 0.5 0.5
vt 0.046875 0.90625
vt 0.046875 1
vt 0 1
vt 0 0.90625
vt 0.046875 0.90625
vt 0.046875 1
vt 0 1
vt 0 0.90625
vt 0.5 0.5
vt 0.5 0.1875
vt 0.375 0.1875
vt 0.375 0.5
vt 0.375 0.5
vt 0.375 0.1875
vt 0.5 0.1875
vt 0.5 0.5
vt 0.5 0.5
vt 0.5 0.1875
vt 0.375 0.1875
vt 0.375 0.5
vt 0.375 0.5
vt 0.375 0.1875
vt 0.5 0.1875
vt 0.5 0.5
vt 0.5 0.5
vt 0.5 0.1875
vt 0.375 0.1875
vt 0.375 0.5
vt 0.375 0.5
vt 0.375 0.1875
vt 0.5 0.1875
vt 0.5 0.5
vt 0.375 0.5
vt 0.375 0.1875
vt 0.5 0.1875
vt 0.5 0.5
vt 0.375 0.5
vt 0.375 0.1875
vt 0.5 0.1875
vt 0.5 0.5
vt 0.046875 0.90625
vt 0.046875 1
vt 0 1
vt 0 0.90625
vt 0.046875 0.90625
vt 0.046875 1
vt 0 1
vt 0 0.90625
vt 0.5 0.5
vt 0.5 0.1875
vt 0.375 0.1875
vt 0.375 0.5
vt 0.375 0.5
vt 0.375 0.1875
vt 0.5 0.1875
vt 0.5 0.5
vt 0.5 0.5
vt 0.5 0.1875
vt 0.375 0.1875
vt 0.375 0.5
vt 0.375 0.5
vt 0.375 0.1875
vt 0.5 0.1875
vt 0.5 0.5
vt 0.5 0.5
vt 0.5 0.1875
vt 0.375 0.1875
vt 0.375 0.5
vt 0.375 0.5
vt 0.375 0.1875
vt 0.5 0.1875
vt 0.5 0.5
vt 0.4375 0.375
vt 0.4375 0.125
vt 0.375 0.125
vt 0.375 0.375
vt 0.5 0.375
vt 0.5 0.125
vt 0.4375 0.125
vt 0.4375 0.375
vt 0.375 0.25
vt 0.375 0.375
vt 0.5 0.375
vt 0.5 0.25
vt 0.375 0.125
vt 0.375 0.375
vt 0.5 0.375
vt 0.5 0.125
vt 0.5 0.375
vt 0.5 0.125
vt 0.375 0.125
vt 0.375 0.375
vt 0.4375 0.375
vt 0.4375 0.125
vt 0.375 0.125
vt 0.375 0.375
vt 0.5 0.375
vt 0.5 0.125
vt 0.4375 0.125
vt 0.4375 0.375
vt 0.046875 0.9375
vt 0.046875 1
vt 0 1
vt 0 0.9375
vt 0.375 0.125
vt 0.375 0.375
vt 0.5 0.375
vt 0.5 0.125
vt 0.375 0.125
vt 0.375 0.375
vt 0.5 0.375
vt 0.5 0.125
vt 0.3773437500000002 0
vt 0.43515625 0.09999999999999998
vt 0.43671875000000016 0.1875
vt 0.3773437500000002 0.28437500000000004
vt 0.4984375 0
vt 0.44062500000000016 0.09999999999999998
vt 0.4390625 0.1875
vt 0.4984375 0.28437500000000004
vt 0.375 0.375
vt 0.375 0.125
vt 0.5 0.125
vt 0.5 0.375
vt 0.375 0.375
vt 0.375 0
vt 0.5 0
vt 0.5 0.375
vt 0.5 0.375
vt 0.5 0
vt 0.375 0
vt 0.375 0.375
vt 0.4375 0.375
vt 0.4375 0.125
vt 0.375 0.125
vt 0.375 0.375
vt 0.5 0.375
vt 0.5 0.125
vt 0.4375 0.125
vt 0.4375 0.375
vt 0.375 0.25
vt 0.375 0.375
vt 0.5 0.375
vt 0.5 0.25
vt 0.375 0.125
vt 0.375 0.375
vt 0.5 0.375
vt 0.5 0.125
vt 0.5 0.375
vt 0.5 0.125
vt 0.375 0.125
vt 0.375 0.375
vt 0.4375 0.375
vt 0.4375 0.125
vt 0.375 0.125
vt 0.375 0.375
vt 0.5 0.375
vt 0.5 0.125
vt 0.4375 0.125
vt 0.4375 0.375
vt 0.046875 0.9375
vt 0.046875 1
vt 0 1
vt 0 0.9375
vt 0.375 0.125
vt 0.375 0.375
vt 0.5 0.375
vt 0.5 0.125
vt 0.375 0.125
vt 0.375 0.375
vt 0.5 0.375
vt 0.5 0.125
vt 0.3773437500000002 0
vt 0.43515625 0.09999999999999998
vt 0.43671875000000016 0.1875
vt 0.3773437500000002 0.28437500000000004
vt 0.4984375 0
vt 0.44062500000000016 0.09999999999999998
vt 0.4390625 0.1875
vt 0.4984375 0.28437500000000004
vt 0.375 0.375
vt 0.375 0.125
vt 0.5 0.125
vt 0.5 0.375
vt 0.375 0.375
vt 0.375 0
vt 0.5 0
vt 0.5 0.375
vt 0.5 0.375
vt 0.5 0
vt 0.375 0
vt 0.375 0.375
vn 1 0 0
vn -1 0 0
vn 0 1 0
vn 0 -1 0
vn 0 0 1
vn 0 0 -1
vn -1 0 0
vn 1 0 0
vn 0 1 0
vn 0 -1 0
vn 0 0 1
vn 0 0 -1
vn 1 0 0
vn -1 0 0
vn 0 1 0
vn 0 -1 0
vn 0 0 1
vn 0 0 -1
vn 1 0 0
vn -1 0 0
vn 0 1 0
vn 0 -1 0
vn 0 0 1
vn 0 0 -1
vn 1 0 0
vn -1 0 0
vn 0 1 0
vn 0 -1 0
vn 0 0 -1
vn 1 0 0
vn -1 0 0
vn 0 1 0
vn 0 -1 0
vn 0 0 -1
vn 1 0 0
vn -1 0 0
vn 0 1 0
vn 0 -1 0
vn 0 0 1
vn 0 0 -1
vn 1 0 0
vn 0 0 1
vn -1 -2.2204460492503132e-17 0
vn 0 -1.1102230246251565e-16 -1
vn 1 0 0
vn -1 0 0
vn 0 1 0
vn 0 -1 0
vn 0 0 1
vn 0 0 -1
vn 1 0 0
vn 0 0 1
vn -1 0 0
vn 0 -1.1102230246251565e-16 -1
vn 1 0 0
vn -1 0 0
vn 0 -1 0
vn 0 0 1
vn 0 0 -1
vn 1 0 0
vn -1 0 0
vn 0 -1 0
vn 0 0 1
vn 0 0 -1
vn 1 0 0
vn -1 0 0
vn 0 1 0
vn 0 0.8320502943378438 0.5547001962252291
vn 0 0.8320502943378438 -0.554700196225229
vn 1 0 0
vn -1 0 0
vn 0 -1 0
vn 0 0 1
vn 0 0 -1
vn 1 0 0
vn -1 0 0
vn 0 -1 0
vn 0 0 1
vn 0 0 -1
vn 1 0 0
vn -1 0 0
vn 0 1 0
vn 0 0.8320502943378438 0.5547001962252291
vn 0 0.8320502943378438 -0.554700196225229
usemtl advanced_inserter
f 124/345/87 122/346/87 121/347/87
f 124/345/87 121/347/87 123/348/87
f 127/349/88 125/350/88 126/351/88
f 127/349/88 126/351/88 128/352/88
f 121/353/89 122/354/89 126/355/89
f 121/353/89 126/355/89 125/356/89
f 124/357/90 123/358/90 127/359/90
f 124/357/90 127/359/90 128/360/90
f 123/361/91 121/362/91 125/363/91
f 123/361/91 125/363/91 127/364/91
f 128/365/92 126/366/92 122/367/92
f 128/365/92 122/367/92 124/368/92
f 129/369/93 130/370/93 132/371/93
f 129/369/93 132/371/93 131/372/93
f 134/373/94 133/374/94 135/375/94
f 134/373/94 135/375/94 136/376/94
f 134/377/95 130/378/95 129/379/95
f 134/377/95 129/379/95 133/380/95
f 135/381/96 131/382/96 132/383/96
f 135/381/96 132/383/96 136/384/96
f 133/385/97 129/386/97 131/387/97
f 133/385/97 131/387/97 135/388/97
f 130/389/98 134/390/98 136/391/98
f 130/389/98 136/391/98 132/392/98
f 140/393/99 138/394/99 137/395/99
f 140/393/99 137/395/99 139/396/99
f 143/397/100 141/398/100 142/399/100
f 143/397/100 142/399/100 144/400/100
f 137/401/101 138/402/101 142/403/101
f 137/401/101 142/403/101 141/404/101
f 140/405/102 139/406/102 143/407/102
f 140/405/102 143/407/102 144/408/102
f 139/409/103 137/410/103 141/411/103
f 139/409/103 141/411/103 143/412/103
f 144/413/104 142/414/104 138/415/104
f 144/413/104 138/415/104 140/416/104
f 148/417/105 146/418/105 145/419/105
f 148/417/105 145/419/105 147/420/105
f 151/421/106 149/422/106 150/423/106
f 151/421/106 150/423/106 152/424/106
f 145/425/107 146/426/107 150/427/107
f 145/425/107 150/427/107 149/428/107
f 148/429/108 147/430/108 151/431/108
f 148/429/108 151/431/108 152/432/108
f 147/433/109 145/434/109 149/435/109
f 147/433/109 149/435/109 151/436/109
f 152/437/110 150/438/110 146/439/110
f 152/437/110 146/439/110 148/440/110
f 156/441/111 154/442/111 153/443/111
f 156/441/111 153/443/111 155/444/111
f 159/445/112 157/446/112 158/447/112
f 159/445/112 158/447/112 160/448/112
f 153/449/113 154/450/113 158/451/113
f 153/449/113 158/451/113 157/452/113
f 156/453/114 155/454/114 159/455/114
f 156/453/114 159/455/114 160/456/114
f 160/457/115 158/458/115 154/459/115
f 160/457/115 154/459/115 156/460/115
f 164/461/116 162/462/116 161/463/116
f 164/461/116 161/463/116 163/464/116
f 167/465/117 165/466/117 166/467/117
f 167/465/117 166/467/117 168/468/117
f 161/469/118 162/470/118 166/471/118
f 161/469/118 166/471/118 165/472/118
f 164/473/119 163/474/119 167/475/119
f 164/473/119 167/475/119 168/476/119
f 168/477/120 166/478/120 162/479/120
f 168/477/120 162/479/120 164/480/120
f 169/481/121 178/482/121 177/483/121
f 169/481/121 177/483/121 170/484/121
f 174/485/122 180/486/122 179/487/122
f 174/485/122 179/487/122 173/488/122
f 169/489/123 170/490/123 174/491/123
f 169/489/123 174/491/123 173/492/123
f 172/493/124 171/494/124 175/495/124
f 172/493/124 175/495/124 176/496/124
f 173/497/125 179/498/125 178/499/125
f 173/497/125 178/499/125 169/500/125
f 170/501/126 177/502/126 180/503/126
f 170/501/126 180/503/126 174/504/126
f 172/505/127 177/506/127 178/507/127
f 172/505/127 178/507/127 171/508/127
f 171/509/128 178/510/128 179/511/128
f 171/509/128 179/511/128 175/512/128
f 175/513/129 179/514/129 180/515/129
f 175/513/129 180/515/129 176/516/129
f 176/517/130 180/518/130 177/519/130
f 176/517/130 177/519/130 172/520/130
f 181/521/131 190/522/131 189/523/131
f 181/521/131 189/523/131 182/524/131
f 186/525/132 192/526/132 191/527/132
f 186/525/132 191/527/132 185/528/132
f 181/529/133 182/530/133 186/531/133
f 181/529/133 186/531/133 185/532/133
f 184/533/134 183/534/134 187/535/134
f 184/533/134 187/535/134 188/536/134
f 185/537/135 191/538/135 190/539/135
f 185/537/135 190/539/135 181/540/135
f 182/541/136 189/542/136 192/543/136
f 182/541/136 192/543/136 186/544/136
f 184/545/137 189/546/137 190/547/137
f 184/545/137 190/547/137 183/548/137
f 183/549/138 190/550/138 191/551/138
f 183/549/138 191/551/138 187/552/138
f 187/553/139 191/554/139 192/555/139
f 187/553/139 192/555/139 188/556/139
f 188/557/140 192/558/140 189/559/140
f 188/557/140 189/559/140 184/560/140
f 196/561/141 194/562/141 193/563/141
f 196/561/141 193/563/141 195/564/141
f 199/565/142 197/566/142 198/567/142
f 199/565/142 198/567/142 200/568/142
f 196/569/143 195/570/143 199/571/143
f 196/569/143 199/571/143 200/572/143
f 195/573/144 193/574/144 197/575/144
f 195/573/144 197/575/144 199/576/144
f 200/577/145 198/578/145 194/579/145
f 200/577/145 194/579/145 196/580/145
f 204/581/146 202/582/146 201/583/146
f 204/581/146 201/583/146 203/584/146
f 207/585/147 205/586/147 206/587/147
f 207/585/147 206/587/147 208/588/147
f 204/589/148 203/590/148 207/591/148
f 204/589/148 207/591/148 208/592/148
f 203/593/149 201/594/149 205/595/149
f 203/593/149 205/595/149 207/596/149
f 208/597/150 206/598/150 202/599/150
f 208/597/150 202/599/150 204/600/150
f 194/601/151 184/602/151 183/603/151
f 194/601/151 183/603/151 201/604/151
f 205/605/152 187/606/152 188/607/152
f 205/605/152 188/607/152 198/608/152
f 183/609/153 184/610/153 188/611/153
f 183/609/153 188/611/153 187/612/153
f 201/613/154 183/614/154 187/615/154
f 201/613/154 187/615/154 205/616/154
f 198/617/155 188/618/155 184/619/155
f 198/617/155 184/619/155 194/620/155
f 212/621/156 210/622/156 209/623/156
f 212/621/156 209/623/156 211/624/156
f 215/625/157 213/626/157 214/627/157
f 215/625/157 214/627/157 216/628/157
f 212/629/158 211/630/158 215/631/158
f 212/629/158 215/631/158 216/632/158
f 211/633/159 209/634/159 213/635/159
f 211/633/159 213/635/159 215/636/159
f 216/637/160 214/638/160 210/639/160
f 216/637/160 210/639/160 212/640/160
f 220/641/161 218/642/161 217/643/161
f 220/641/161 217/643/161 219/644/161
f 223/645/162 221/646/162 222/647/162
f 223/645/162 222/647/162 224/648/162
f 220/649/163 219/650/163 223/651/163
f 220/649/163 223/651/163 224/652/163
f 219/653/164 217/654/164 221/655/164
f 219/653/164 221/655/164 223/656/164
f 224/657/165 222/658/165 218/659/165
f 224/657/165 218/659/165 220/660/165
f 210/661/166 172/662/166 171/663/166
f 210/661/166 171/663/166 217/664/166
f 221/665/167 175/666/167 176/667/167
f 221/665/167 176/667/167 214/668/167
f 171/669/168 172/670/168 176/671/168
f 171/669/168 176/671/168 175/672/168
f 217/673/169 171/674/169 175/675/169
f 217/673/169 175/675/169 221/676/169
f 214/677/170 176/678/170 172/679/170
f 214/677/170 172/679/170 210/680/170
o inserter
v 0.75 0.375 0.75
v 0.75 0.375 0.25
v 0.75 0.3125 0.75
v 0.75 0.3125 0.25
v 0.25 0.375 0.75
v 0.25 0.375 0.25
v 0.25 0.3125 0.75
v 0.25 0.3125 0.25
v 0.625 0.3125 0.625
v 0.625 0.3125 0.375
v 0.625 0.25 0.625
v 0.625 0.25 0.375
v 0.375 0.3125 0.625
v 0.375 0.3125 0.375
v 0.375 0.25 0.625
v 0.375 0.25 0.375
v 0.3125 0.5625 0.625
v 0.3125 0.5625 0.375
v 0.3125 0.375 0.625
v 0.3125 0.375 0.375
v 0.25 0.5625 0.625
v 0.25 0.5625 0.375
v 0.25 0.375 0.625
v 0.25 0.375 0.375
v 0.75 0.5625 0.625
v 0.75 0.5625 0.375
v 0.75 0.375 0.625
v 0.75 0.375 0.375
v 0.6875 0.5625 0.625
v 0.6875 0.5625 0.375
v 0.6875 0.375 0.625
v 0.6875 0.375 0.375
v 0.3125 0.625 0.5625
v 0.3125 0.625 0.4375
v 0.25 0.625 0.5625
v 0.25 0.625 0.4375
v 0.75 0.625 0.5625
v 0.75 0.625 0.4375
v 0.6875 0.625 0.5625
v 0.6875 0.625 0.4375
vt 0.5 1
vt 0.4375 1
vt 0.4375 0.5
vt 0.5 0.5
vt 0.0625 1
vt 0 1
vt 0 0.5
vt 0.0625 0.5
vt 0.5 0.5
vt 0.5 1
vt 0 1
vt 0 0.5
vt 0.5 0.5
vt 0.5 1
vt 0 1
vt 0 0.5
vt 0.5 0.9375
vt 0.5 1
vt 0 1
vt 0 0.9375
vt 0 0.5
vt 0 0.5625
vt 0.5 0.5625
vt 0.5 0.5
vt 0.75 0.4375
vt 0.75 0.5
vt 0.5 0.5
vt 0.5 0.4375
vt 0.75 0.375
vt 0.75 0.4375
vt 0.5 0.4375
vt 0.5 0.375
vt 0.75 0.375
vt 0.75 0.4375
vt 0.5 0.4375
vt 0.5 0.375
vt 0.75 0.4375
vt 0.75 0.5
vt 0.5 0.5
vt 0.5 0.4375
vt 0.375 0.5
vt 0.375 0.6875
vt 0.125 0.6875
vt 0.125 0.5
vt 0.375 0.5
vt 0.375 0.6875
vt 0.125 0.6875
vt 0.125 0.5
vt 0.375 0.5
vt 0.375 0.6875
vt 0.3125 0.6875
vt 0.3125 0.5
vt 0.1875 0.5
vt 0.1875 0.6875
vt 0.125 0.6875
vt 0.125 0.5
vt 0.375 0.5
vt 0.375 0.6875
vt 0.125 0.6875
vt 0.125 0.5
vt 0.375 0.5
vt 0.375 0.6875
vt 0.125 0.6875
vt 0.125 0.5
vt 0.375 0.5
vt 0.375 0.6875
vt 0.3125 0.6875
vt 0.3125 0.5
vt 0.1875 0.5
vt 0.1875 0.6875
vt 0.125 0.6875
vt 0.125 0.5
vt 0.3125 0.5625
vt 0.28125 0.5
vt 0.21875 0.5
vt 0.1875 0.5625
vt 0.1875 0.5625
vt 0.21875 0.5
vt 0.28125 0.5
vt 0.3125 0.5625
vt 0.28125 0.5625
vt 0.21875 0.5625
vt 0.21875 0.5
vt 0.28125 0.5
vt 0.3125 0.5
vt 0.3125 0.5625
vt 0.28125 0.5625
vt 0.28125 0.5
vt 0.21875 0.5
vt 0.21875 0.5625
vt 0.1875 0.5625
vt 0.1875 0.5
vt 0.3125 0.5625
vt 0.28125 0.5
vt 0.21875 0.5
vt 0.1875 0.5625
vt 0.1875 0.5625
vt 0.21875 0.5
vt 0.28125 0.5
vt 0.3125 0.5625
vt 0.28125 0.5625
vt 0.21875 0.5625
vt 0.21875 0.5
vt 0.28125 0.5
vt 0.3125 0.5
vt 0.3125 0.5625
vt 0.28125 0.5625
vt 0.28125 0.5
vt 0.21875 0.5
vt 0.21875 0.5625
vt 0.1875 0.5625
vt 0.1875 0.5
vn 1 0 0
vn -1 0 0
vn 0 1 0
vn 0 -1 0
vn 0 0 1
vn 0 0 -1
vn 1 0 0
vn -1 0 0
vn 0 0 1
vn 0 0 -1
vn 1 0 0
vn -1 0 0
vn 0 0 1
vn 0 0 -1
vn 1 0 0
vn -1 0 0
vn 0 0 1
vn 0 0 -1
vn 1 0 0
vn -1 0 0
vn 0 1 0
vn 0 0.7071067811865476 0.7071067811865476
vn 0 0.7071067811865476 -0.7071067811865476
vn 1 0 0
vn -1 0 0
vn 0 1 0
vn 0 0.7071067811865476 0.7071067811865476
vn 0 0.7071067811865476 -0.7071067811865476
usemtl advanced_inserter
f 228/681/171 226/682/171 225/683/171
f 228/681/171 225/683/171 227/684/171
f 231/685/172 229/686/172 230/687/172
f 231/685/172 230/687/172 232/688/172
f 225/689/173 226/690/173 230/691/173
f 225/689/173 230/691/173 229/692/173
f 228/693/174 227/694/174 231/695/174
f 228/693/174 231/695/174 232/696/174
f 227/697/175 225/698/175 229/699/175
f 227/697/175 229/699/175 231/700/175
f 232/701/176 230/702/176 226/703/176
f 232/701/176 226/703/176 228/704/176
usemtl inserter_base2
f 236/705/177 234/706/177 233/707/177
f 236/705/177 233/707/177 235/708/177
f 239/709/178 237/710/178 238/711/178
f 239/709/178 238/711/178 240/712/178
f 235/713/179 233/714/179 237/715/179
f 235/713/179 237/715/179 239/716/179
f 240/717/180 238/718/180 234/719/180
f 240/717/180 234/719/180 236/720/180
usemtl advanced_inserter
f 244/721/181 242/722/181 241/723/181
f 244/721/181 241/723/181 243/724/181
f 247/725/182 245/726/182 246/727/182
f 247/725/182 246/727/182 248/728/182
f 243/729/183 241/730/183 245/731/183
f 243/729/183 245/731/183 247/732/183
f 248/733/184 246/734/184 242/735/184
f 248/733/184 242/735/184 244/736/184
f 252/737/185 250/738/185 249/739/185
f 252/737/185 249/739/185 251/740/185
f 255/741/186 253/742/186 254/743/186
f 255/741/186 254/743/186 256/744/186
f 251/745/187 249/746/187 253/747/187
f 251/745/187 253/747/187 255/748/187
f 256/749/188 254/750/188 250/751/188
f 256/749/188 250/751/188 252/752/188
f 242/753/189 258/754/189 257/755/189
f 242/753/189 257/755/189 241/756/189
f 245/757/190 259/758/190 260/759/190
f 245/757/190 260/759/190 246/760/190
f 257/761/191 258/762/191 260/763/191
f 257/761/191 260/763/191 259/764/191
f 241/765/192 257/766/192 259/767/192
f 241/765/192 259/767/192 245/768/192
f 246/769/193 260/770/193 258/771/193
f 246/769/193 258/771/193 242/772/193
f 250/773/194 262/774/194 261/775/194
f 250/773/194 261/775/194 249/776/194
f 253/777/195 263/778/195 264/779/195
f 253/777/195 264/779/195 254/780/195
f 261/781/196 262/782/196 264/783/196
f 261/781/196 264/783/196 263/784/196
f 249/785/197 261/786/197 263/787/197
f 249/785/197 263/787/197 253/788/197
f 254/789/198 264/790/198 262/791/198
f 254/789/198 262/791/198 250/792/198