# Made by Pabilo8 with Blockbench
# Exported with IIToolkit Plugin
mtllib welder.mtl


o upper
v 0.46875 1.9375 0.53125
v 0.53125 1.9375 0.53125
v 0.53125 1.9375 0.46875
v 0.46875 1.9375 0.46875
v 0.46875 1.375 0.46875
v 0.53125 1.375 0.46875
v 0.53125 1.375 0.53125
v 0.46875 1.375 0.53125
v 0.5625 1.40625 0.5625
v 0.5625 1.40625 0.4375
v 0.5625 1.28125 0.5625
v 0.5625 1.28125 0.4375
v 0.4375 1.40625 0.5625
v 0.4375 1.40625 0.4375
v 0.4375 1.28125 0.5625
v 0.4375 1.28125 0.4375
v 0.59375 2.25 0.59375
v 0.59375 2.25 0.40625
v 0.59375 2.0625 0.59375
v 0.59375 2.0625 0.40625
v 0.40625 2.25 0.59375
v 0.40625 2.25 0.40625
v 0.40625 2.0625 0.59375
v 0.40625 2.0625 0.40625
v 0.5625 2.0625 0.5625
v 0.5625 2.0625 0.4375
v 0.5625 1.9375 0.5625
v 0.5625 1.9375 0.4375
v 0.4375 2.0625 0.5625
v 0.4375 2.0625 0.4375
v 0.4375 1.9375 0.5625
v 0.4375 1.9375 0.4375
v 0.78125 2.390625 0.625
v 0.78125 2.390625 0.375
v 0.78125 2.015625 0.625
v 0.78125 2.015625 0.375
v 0.59375 2.390625 0.625
v 0.59375 2.390625 0.375
v 0.59375 2.015625 0.625
v 0.59375 2.015625 0.375
v 0.84375 2.359375 0.5625
v 0.84375 2.359375 0.4375
v 0.84375 2.234375 0.5625
v 0.84375 2.234375 0.4375
v 0.78125 2.359375 0.5625
v 0.78125 2.359375 0.4375
v 0.78125 2.234375 0.5625
v 0.78125 2.234375 0.4375
v 0.84375 2.171875 0.5625
v 0.84375 2.171875 0.4375
v 0.84375 2.046875 0.5625
v 0.84375 2.046875 0.4375
v 0.78125 2.171875 0.5625
v 0.78125 2.171875 0.4375
v 0.78125 2.046875 0.5625
v 0.78125 2.046875 0.4375
v 0.46875 2.4375 0.4375
v 0.40625 2.4375 0.4375
v 0.46875 2.25 0.4375
v 0.40625 2.25 0.4375
v 0.46875 2.4375 0.5625
v 0.40625 2.4375 0.5625
v 0.46875 2.25 0.5625
v 0.40625 2.25 0.5625
v 0.59375 2.4375 0.4375
v 0.53125 2.4375 0.4375
v 0.59375 2.25 0.4375
v 0.53125 2.25 0.4375
v 0.59375 2.4375 0.5625
v 0.53125 2.4375 0.5625
v 0.59375 2.25 0.5625
v 0.53125 2.25 0.5625
v 0.53125 2.6875 0.53125
v 0.53125 2.6875 0.46875
v 0.546875 2.3125 0.546875
v 0.546875 2.3125 0.453125
v 0.46875 2.6875 0.53125
v 0.46875 2.6875 0.46875
v 0.453125 2.3125 0.546875
v 0.453125 2.3125 0.453125
vt 1 0.375
vt 0.9375 0.375
vt 0.9375 0.4375
vt 1 0.4375
vt 0.4375 0.5
vt 0.5 0.5
vt 0.5 0
vt 0.4375 0
vt 0.4375 0.5
vt 0.5 0.5
vt 0.5 0.1875
vt 0.4375 0.1875
vt 0.4375 0.5
vt 0.5 0.5
vt 0.5 0
vt 0.4375 0
vt 0.4375 0.5
vt 0.5 0.5
vt 0.5 0
vt 0.4375 0
vt 0.625 1
vt 0.625 0.875
vt 0.5 0.875
vt 0.5 1
vt 0.625 1
vt 0.625 0.875
vt 0.5 0.875
vt 0.5 1
vt 0.625 0.875
vt 0.625 1
vt 0.5 1
vt 0.5 0.875
vt 0.5 1
vt 0.5 0.875
vt 0.625 0.875
vt 0.625 1
vt 0.8125 0.75
vt 0.8125 0.5625
vt 0.625 0.5625
vt 0.625 0.75
vt 0.8125 0.75
vt 0.8125 0.5625
vt 0.625 0.5625
vt 0.625 0.75
vt 1 0.75
vt 1 0.5625
vt 0.8125 0.5625
vt 0.8125 0.75
vt 1 0.75
vt 1 0.5625
vt 0.8125 0.5625
vt 0.8125 0.75
vt 0.8125 0.75
vt 0.8125 0.5625
vt 0.625 0.5625
vt 0.625 0.75
vt 0.8125 0.75
vt 0.8125 0.5625
vt 0.625 0.5625
vt 0.625 0.75
vt 0.625 0.625
vt 0.625 0.75
vt 0.5 0.75
vt 0.5 0.625
vt 0.625 0.625
vt 0.625 0.75
vt 0.5 0.75
vt 0.5 0.625
vt 0.625 0.625
vt 0.625 0.75
vt 0.5 0.75
vt 0.5 0.625
vt 0.5 0.625
vt 0.5 0.75
vt 0.625 0.75
vt 0.625 0.625
vt 0.5 0.625
vt 0.5 0.75
vt 0.625 0.75
vt 0.625 0.625
vt 0.8125 1
vt 0.4375 1
vt 0.4375 0.75
vt 0.8125 0.75
vt 0.8125 1
vt 0.4375 1
vt 0.4375 0.75
vt 0.8125 0.75
vt 1 0.75
vt 1 1
vt 0.8125 1
vt 0.8125 0.75
vt 1 0.75
vt 1 1
vt 0.8125 1
vt 0.8125 0.75
vt 0.125 0.5625
vt 0.5 0.5625
vt 0.5 0.75
vt 0.125 0.75
vt 0.5 0.5625
vt 0.125 0.5625
vt 0.125 0.75
vt 0.5 0.75
vt 1 0.1875
vt 1 0.3125
vt 0.875 0.3125
vt 0.875 0.1875
vt 0.875 0.3125
vt 1 0.3125
vt 1 0.25
vt 0.875 0.25
vt 1 0.25
vt 0.875 0.25
vt 0.875 0.1875
vt 1 0.1875
vt 0.9375 0.1875
vt 0.9375 0.3125
vt 0.875 0.3125
vt 0.875 0.1875
vt 1 0.1875
vt 1 0.3125
vt 0.9375 0.3125
vt 0.9375 0.1875
vt 1 0.1875
vt 1 0.3125
vt 0.875 0.3125
vt 0.875 0.1875
vt 0.875 0.3125
vt 1 0.3125
vt 1 0.25
vt 0.875 0.25
vt 1 0.25
vt 0.875 0.25
vt 0.875 0.1875
vt 1 0.1875
vt 0.9375 0.1875
vt 0.9375 0.3125
vt 0.875 0.3125
vt 0.875 0.1875
vt 1 0.1875
vt 1 0.3125
vt 0.9375 0.3125
vt 0.9375 0.1875
vt 0.1875 0.9375
vt 0 0.9375
vt 0 0.875
vt 0.1875 0.875
vt 0.1875 1
vt 0 1
vt 0 0.9375
vt 0.1875 0.9375
vt 0.0625 0.875
vt 0 0.875
vt 0 1
vt 0.0625 1
vt 0.1875 0.875
vt 0.125 0.875
vt 0.125 1
vt 0.1875 1
vt 0.1875 0.875
vt 0 0.875
vt 0 1
vt 0.1875 1
vt 0.1875 1
vt 0 1
vt 0 0.875
vt 0.1875 0.875
vt 0.1875 0.8125
vt 0 0.8125
vt 0 0.75
vt 0.1875 0.75
vt 0.1875 0.875
vt 0 0.875
vt 0 0.8125
vt 0.1875 0.8125
vt 0.0625 0.75
vt 0 0.75
vt 0 0.875
vt 0.0625 0.875
vt 0.1875 0.75
vt 0.125 0.75
vt 0.125 0.875
vt 0.1875 0.875
vt 0.1875 0.75
vt 0 0.75
vt 0 0.875
vt 0.1875 0.875
vt 0.1875 0.875
vt 0 0.875
vt 0 0.75
vt 0.1875 0.75
vt 0.109375 0.12467499999999998
vt 0.09375 0.5
vt 0.03125 0.5
vt 0.015625 0.12467499999999998
vt 0.109375 0.12467499999999998
vt 0.09375 0.5
vt 0.03125 0.5
vt 0.015625 0.12467499999999998
vt 0.09375 0.5
vt 0.09375 0.5625
vt 0.03125 0.5625
vt 0.03125 0.5
vt 0.125 0
vt 0.125 0.125
vt 0 0.125
vt 0 0
vt 0.109375 0.12467499999999998
vt 0.09375 0.5
vt 0.03125 0.5
vt 0.015625 0.12467499999999998
vt 0.109375 0.12467499999999998
vt 0.09375 0.5
vt 0.03125 0.5
vt 0.015625 0.12467499999999998
vn 0 -1 0
vn 0 0 1
vn 0 0 -1
vn 1 0 0
vn -1 0 0
vn 0 1 0
vn 0 -1 0
vn 0 0 1
vn 0 0 -1
vn 1 0 0
vn -1 0 0
vn 0 1 0
vn 0 -1 0
vn 0 0 1
vn 0 0 -1
vn 1 0 0
vn -1 0 0
vn 0 -1 0
vn 0 0 1
vn 0 0 -1
vn 1 0 0
vn -1 0 0
vn 0 1 0
vn 0 -1 0
vn 0 0 1
vn 0 0 -1
vn 1 0 0
vn 0 1 0
vn 0 -1 0
vn 0 0 1
vn 0 0 -1
vn 1 0 0
vn 0 1 0
vn 0 -1 0
vn 0 0 1
vn 0 0 -1
vn 0 0 -1
vn 0 0 1
vn 0 1 0
vn 0 -1 0
vn 1 0 0
vn -1 0 0
vn 0 0 -1
vn 0 0 1
vn 0 1 0
vn 0 -1 0
vn 1 0 0
vn -1 0 0
vn 0.999133073092352 0.04163054471218133 0
vn -0.999133073092352 0.04163054471218133 0
vn 0 1 0
vn 0 -1 0
vn 0 0.04163054471218133 0.999133073092352
vn 0 0.04163054471218133 -0.999133073092352
usemtl advanced_inserter
f 5/1/1 6/2/1 7/3/1
f 5/1/1 7/3/1 8/4/1
f 2/5/2 1/6/2 8/7/2
f 2/5/2 8/7/2 7/8/2
f 4/9/3 3/10/3 6/11/3
f 4/9/3 6/11/3 5/12/3
f 3/13/4 2/14/4 7/15/4
f 3/13/4 7/15/4 6/16/4
f 1/17/5 4/18/5 5/19/5
f 1/17/5 5/19/5 8/20/5
f 9/21/6 10/22/6 14/23/6
f 9/21/6 14/23/6 13/24/6
f 12/25/7 11/26/7 15/27/7
f 12/25/7 15/27/7 16/28/7
f 11/29/8 9/30/8 13/31/8
f 11/29/8 13/31/8 15/32/8
f 16/33/9 14/34/9 10/35/9
f 16/33/9 10/35/9 12/36/9
usemtl tool_red
f 20/37/10 18/38/10 17/39/10
f 20/37/10 17/39/10 19/40/10
f 23/41/11 21/42/11 22/43/11
f 23/41/11 22/43/11 24/44/11
f 17/45/12 18/46/12 22/47/12
f 17/45/12 22/47/12 21/48/12
f 20/49/13 19/50/13 23/51/13
f 20/49/13 23/51/13 24/52/13
f 19/53/14 17/54/14 21/55/14
f 19/53/14 21/55/14 23/56/14
f 24/57/15 22/58/15 18/59/15
f 24/57/15 18/59/15 20/60/15
f 28/61/16 26/62/16 25/63/16
f 28/61/16 25/63/16 27/64/16
f 31/65/17 29/66/17 30/67/17
f 31/65/17 30/67/17 32/68/17
f 28/69/18 27/70/18 31/71/18
f 28/69/18 31/71/18 32/72/18
f 27/73/19 25/74/19 29/75/19
f 27/73/19 29/75/19 31/76/19
f 32/77/20 30/78/20 26/79/20
f 32/77/20 26/79/20 28/80/20
f 36/81/21 34/82/21 33/83/21
f 36/81/21 33/83/21 35/84/21
f 39/85/22 37/86/22 38/87/22
f 39/85/22 38/87/22 40/88/22
f 33/89/23 34/90/23 38/91/23
f 33/89/23 38/91/23 37/92/23
f 36/93/24 35/94/24 39/95/24
f 36/93/24 39/95/24 40/96/24
f 35/97/25 33/98/25 37/99/25
f 35/97/25 37/99/25 39/100/25
f 40/101/26 38/102/26 34/103/26
f 40/101/26 34/103/26 36/104/26
f 44/105/27 42/106/27 41/107/27
f 44/105/27 41/107/27 43/108/27
f 41/109/28 42/110/28 46/111/28
f 41/109/28 46/111/28 45/112/28
f 44/113/29 43/114/29 47/115/29
f 44/113/29 47/115/29 48/116/29
f 43/117/30 41/118/30 45/119/30
f 43/117/30 45/119/30 47/120/30
f 48/121/31 46/122/31 42/123/31
f 48/121/31 42/123/31 44/124/31
f 52/125/32 50/126/32 49/127/32
f 52/125/32 49/127/32 51/128/32
f 49/129/33 50/130/33 54/131/33
f 49/129/33 54/131/33 53/132/33
f 52/133/34 51/134/34 55/135/34
f 52/133/34 55/135/34 56/136/34
f 51/137/35 49/138/35 53/139/35
f 51/137/35 53/139/35 55/140/35
f 56/141/36 54/142/36 50/143/36
f 56/141/36 50/143/36 52/144/36
f 60/145/37 58/146/37 57/147/37
f 60/145/37 57/147/37 59/148/37
f 63/149/38 61/150/38 62/151/38
f 63/149/38 62/151/38 64/152/38
f 57/153/39 58/154/39 62/155/39
f 57/153/39 62/155/39 61/156/39
f 60/157/40 59/158/40 63/159/40
f 60/157/40 63/159/40 64/160/40
f 59/161/41 57/162/41 61/163/41
f 59/161/41 61/163/41 63/164/41
f 64/165/42 62/166/42 58/167/42
f 64/165/42 58/167/42 60/168/42
f 68/169/43 66/170/43 65/171/43
f 68/169/43 65/171/43 67/172/43
f 71/173/44 69/174/44 70/175/44
f 71/173/44 70/175/44 72/176/44
f 65/177/45 66/178/45 70/179/45
f 65/177/45 70/179/45 69/180/45
f 68/181/46 67/182/46 71/183/46
f 68/181/46 71/183/46 72/184/46
f 67/185/47 65/186/47 69/187/47
f 67/185/47 69/187/47 71/188/47
f 72/189/48 70/190/48 66/191/48
f 72/189/48 66/191/48 68/192/48
f 76/193/49 74/194/49 73/195/49
f 76/193/49 73/195/49 75/196/49
f 79/197/50 77/198/50 78/199/50
f 79/197/50 78/199/50 80/200/50
f 73/201/51 74/202/51 78/203/51
f 73/201/51 78/203/51 77/204/51
f 76/205/52 75/206/52 79/207/52
f 76/205/52 79/207/52 80/208/52
f 75/209/53 73/210/53 77/211/53
f 75/209/53 77/211/53 79/212/53
f 80/213/54 78/214/54 74/215/54
f 80/213/54 74/215/54 76/216/54
o lower
v 0.459375 1.4375 0.59375
v 0.459375 1.4375 0.40625
v 0.459375 1.25 0.59375
v 0.459375 1.25 0.40625
v 0.271875 1.4375 0.59375
v 0.271875 1.4375 0.40625
v 0.271875 1.25 0.59375
v 0.271875 1.25 0.40625
v 0.540625 1.4375 0.59375
v 0.540625 1.4375 0.40625
v 0.540625 1.25 0.59375
v 0.540625 1.25 0.40625
v 0.728125 1.4375 0.59375
v 0.728125 1.4375 0.40625
v 0.728125 1.25 0.59375
v 0.728125 1.25 0.40625
v 0.6875 0.5625 0.5625
v 0.6875 0.5625 0.4375
v 0.6875 0.4375 0.5625
v 0.6875 0.4375 0.4375
v 0.3125 0.5625 0.5625
v 0.3125 0.5625 0.4375
v 0.3125 0.4375 0.5625
v 0.3125 0.4375 0.4375
v 0.6875 1.1875 0.46875
v 0.6875 1.1875 0.40625
v 0.6875 0.6875 0.46875
v 0.6875 0.6875 0.40625
v 0.3125 1.1875 0.46875
v 0.3125 1.1875 0.40625
v 0.3125 0.6875 0.46875
v 0.3125 0.6875 0.40625
v 0.65625 1.1562499999999996 0.40625
v 0.65625 1.1562499999999996 0.375
v 0.65625 0.96875 0.40625
v 0.65625 0.96875 0.375
v 0.34375 1.1562499999999996 0.40625
v 0.34375 1.1562499999999996 0.375
v 0.34375 0.96875 0.40625
v 0.34375 0.96875 0.375
v 0.65625 0.9374999999999996 0.40625
v 0.65625 0.9374999999999996 0.375
v 0.65625 0.75 0.40625
v 0.65625 0.75 0.375
v 0.34375 0.9374999999999996 0.40625
v 0.34375 0.9374999999999996 0.375
v 0.34375 0.75 0.40625
v 0.34375 0.75 0.375
v 0.65625 1.25 0.546875
v 0.65625 1.25 0.453125
v 0.65625 0.625 0.546875
v 0.65625 0.625 0.45312500000000006
v 0.5625 1.25 0.546875
v 0.5625 1.25 0.453125
v 0.5625 0.625 0.546875
v 0.5625 0.625 0.45312500000000006
v 0.65625 0.9375 0.453125
v 0.65625 0.9375 0.546875
v 0.5625 0.9375 0.546875
v 0.5625 0.9375 0.453125
v 0.4375 1.25 0.546875
v 0.4375 1.25 0.453125
v 0.4375 0.625 0.546875
v 0.4375 0.625 0.45312500000000006
v 0.34375 1.25 0.546875
v 0.34375 1.25 0.453125
v 0.34375 0.625 0.546875
v 0.34375 0.625 0.45312500000000006
v 0.4375 0.9375 0.453125
v 0.4375 0.9375 0.546875
v 0.34375 0.9375 0.546875
v 0.34375 0.9375 0.453125
v 0.4375 0.5625 0.421875
v 0.4375 0.5625 0.359375
v 0.4375 0.4375 0.421875
v 0.4375 0.4375 0.359375
v 0.34375 0.5625 0.421875
v 0.34375 0.5625 0.359375
v 0.34375 0.4375 0.421875
v 0.34375 0.4375 0.359375
v 0.4375 0.5625 0.640625
v 0.4375 0.5625 0.578125
v 0.4375 0.4375 0.640625
v 0.4375 0.4375 0.578125
v 0.34375 0.5625 0.640625
v 0.34375 0.5625 0.578125
v 0.34375 0.4375 0.640625
v 0.34375 0.4375 0.578125
v 0.65625 0.5625 0.421875
v 0.65625 0.5625 0.359375
v 0.65625 0.4375 0.421875
v 0.65625 0.4375 0.359375
v 0.5625 0.5625 0.421875
v 0.5625 0.5625 0.359375
v 0.5625 0.4375 0.421875
v 0.5625 0.4375 0.359375
v 0.65625 0.5625 0.640625
v 0.65625 0.5625 0.578125
v 0.65625 0.4375 0.640625
v 0.65625 0.4375 0.578125
v 0.5625 0.5625 0.640625
v 0.5625 0.5625 0.578125
v 0.5625 0.4375 0.640625
v 0.5625 0.4375 0.578125
vt 0.09375 0.8125
vt 0.09375 1
vt 0 1
vt 0 0.8125
vt 0.8125 0.8125
vt 0.8125 0.625
vt 0.625 0.625
vt 0.625 0.8125
vt 0.8125 0.625
vt 0.8125 0.8125
vt 1 0.8125
vt 1 0.625
vt 0.8125 0.8125
vt 0.8125 0.625
vt 1 0.625
vt 1 0.8125
vt 0.8125 0.625
vt 0.8125 0.8125
vt 1 0.8125
vt 1 0.625
vt 1 0.625
vt 1 0.8125
vt 0.8125 0.8125
vt 0.8125 0.625
vt 0 1
vt 0.09375 1
vt 0.09375 0.8125
vt 0 0.8125
vt 0.625 0.625
vt 0.8125 0.625
vt 0.8125 0.8125
vt 0.625 0.8125
vt 1 0.8125
vt 0.8125 0.8125
vt 0.8125 0.625
vt 1 0.625
vt 1 0.625
vt 0.8125 0.625
vt 0.8125 0.8125
vt 1 0.8125
vt 1 0.8125
vt 0.8125 0.8125
vt 0.8125 0.625
vt 1 0.625
vt 0.8125 0.8125
vt 1 0.8125
vt 1 0.625
vt 0.8125 0.625
vt 0.0625 0.875
vt 0.0625 1
vt 0 1
vt 0 0.875
vt 0.0625 0.875
vt 0.0625 1
vt 0 1
vt 0 0.875
vt 0.5 0.625
vt 0.625 0.625
vt 0.625 1
vt 0.5 1
vt 0.625 0.625
vt 0.5 0.625
vt 0.5 1
vt 0.625 1
vt 0.625 0.625
vt 0.49999999999999994 0.625
vt 0.49999999999999994 1
vt 0.625 1
vt 0.5 1
vt 0.625 1
vt 0.625 0.625
vt 0.5 0.625
vt 0 0.5
vt 0 0
vt 0.03125 0
vt 0.03125 0.5
vt 0.34375 0
vt 0.34375 0.5
vt 0.375 0.5
vt 0.375 0
vt 0 0.0625
vt 0 0
vt 0.375 0
vt 0.375 0.0625
vt 0 0.5
vt 0 0.4375
vt 0.375 0.4375
vt 0.375 0.5
vt 0.375 0.5
vt 0.375 0
vt 0 0
vt 0 0.5
vt 0.375 0.5
vt 0.375 0
vt 0 0
vt 0 0.5
vt 0.71875 0.8125000000000004
vt 0.71875 1
vt 0.6875 1
vt 0.6875 0.8125000000000004
vt 1 0.8125000000000004
vt 1 1
vt 0.96875 1
vt 0.96875 0.8125000000000004
vt 0.6875 0.9375
vt 0.6875 1
vt 1 1
vt 1 0.9375
vt 0.6875 0.8125
vt 0.6875 0.875
vt 1 0.875
vt 1 0.8125
vt 1 0.8125000000000004
vt 1 1
vt 0.6875 1
vt 0.6875 0.8125000000000004
vt 0.71875 0.8125000000000004
vt 0.71875 1
vt 0.6875 1
vt 0.6875 0.8125000000000004
vt 1 0.8125000000000004
vt 1 1
vt 0.96875 1
vt 0.96875 0.8125000000000004
vt 0.6875 0.9375
vt 0.6875 1
vt 1 1
vt 1 0.9375
vt 0.6875 0.8125
vt 0.6875 0.875
vt 1 0.875
vt 1 0.8125
vt 1 0.8125000000000004
vt 1 1
vt 0.6875 1
vt 0.6875 0.8125000000000004
vt 0.375 0.5
vt 0.375 0.1875
vt 0.5 0.1875
vt 0.5 0.5
vt 0.375 0.5
vt 0.375 0.1875
vt 0.5 0.1875
vt 0.5 0.5
vt 0.046875 0.90625
vt 0.046875 1
vt 0 1
vt 0 0.90625
vt 0.046875 0.90625
vt 0.046875 1
vt 0 1
vt 0 0.90625
vt 0.5 0.5
vt 0.5 0.1875
vt 0.375 0.1875
vt 0.375 0.5
vt 0.375 0.5
vt 0.375 0.1875
vt 0.5 0.1875
vt 0.5 0.5
vt 0.5 0.5
vt 0.5 0.1875
vt 0.375 0.1875
vt 0.375 0.5
vt 0.375 0.5
vt 0.375 0.1875
vt 0.5 0.1875
vt 0.5 0.5
vt 0.5 0.5
vt 0.5 0.1875
vt 0.375 0.1875
vt 0.375 0.5
vt 0.375 0.5
vt 0.375 0.1875
vt 0.5 0.1875
vt 0.5 0.5
vt 0.375 0.5
vt 0.375 0.1875
vt 0.5 0.1875
vt 0.5 0.5
vt 0.375 0.5
vt 0.375 0.1875
vt 0.5 0.1875
vt 0.5 0.5
vt 0.046875 0.90625
vt 0.046875 1
vt 0 1
vt 0 0.90625
vt 0.046875 0.90625
vt 0.046875 1
vt 0 1
vt 0 0.90625
vt 0.5 0.5
vt 0.5 0.1875
vt 0.375 0.1875
vt 0.375 0.5
vt 0.375 0.5
vt 0.375 0.1875
vt 0.5 0.1875
vt 0.5 0.5
vt 0.5 0.5
vt 0.5 0.1875
vt 0.375 0.1875
vt 0.375 0.5
vt 0.375 0.5
vt 0.375 0.1875
vt 0.5 0.1875
vt 0.5 0.5
vt 0.5 0.5
vt 0.5 0.1875
vt 0.375 0.1875
vt 0.375 0.5
vt 0.375 0.5
vt 0.375 0.1875
vt 0.5 0.1875
vt 0.5 0.5
vt 0.4375 0.375
vt 0.4375 0.125
vt 0.375 0.125
vt 0.375 0.375
vt 0.5 0.375
vt 0.5 0.125
vt 0.4375 0.125
vt 0.4375 0.375
vt 0.375 0.25
vt 0.375 0.375
vt 0.5 0.375
vt 0.5 0.25
vt 0.375 0.125
vt 0.375 0.375
vt 0.5 0.375
vt 0.5 0.125
vt 0.5 0.375
vt 0.5 0.125
vt 0.375 0.125
vt 0.375 0.375
vt 0.4375 0.375
vt 0.4375 0.125
vt 0.375 0.125
vt 0.375 0.375
vt 0.5 0.375
vt 0.5 0.125
vt 0.4375 0.125
vt 0.4375 0.375
vt 0.046875 0.9375
vt 0.046875 1
vt 0 1
vt 0 0.9375
vt 0.375 0.125
vt 0.375 0.375
vt 0.5 0.375
vt 0.5 0.125
vt 0.375 0.125
vt 0.375 0.375
vt 0.5 0.375
vt 0.5 0.125
vt 0.3773437500000002 0
vt 0.43515625 0.09999999999999998
vt 0.43671875000000016 0.1875
vt 0.3773437500000002 0.28437500000000004
vt 0.4984375 0
vt 0.44062500000000016 0.09999999999999998
vt 0.4390625 0.1875
vt 0.4984375 0.28437500000000004
vt 0.375 0.375
vt 0.375 0.125
vt 0.5 0.125
vt 0.5 0.375
vt 0.375 0.375
vt 0.375 0
vt 0.5 0
vt 0.5 0.375
vt 0.5 0.375
vt 0.5 0
vt 0.375 0
vt 0.375 0.375
vt 0.4375 0.375
vt 0.4375 0.125
vt 0.375 0.125
vt 0.375 0.375
vt 0.5 0.375
vt 0.5 0.125
vt 0.4375 0.125
vt 0.4375 0.375
vt 0.375 0.25
vt 0.375 0.375
vt 0.5 0.375
vt 0.5 0.25
vt 0.375 0.125
vt 0.375 0.375
vt 0.5 0.375
vt 0.5 0.125
vt 0.5 0.375
vt 0.5 0.125
vt 0.375 0.125
vt 0.375 0.375
vt 0.4375 0.375
vt 0.4375 0.125
vt 0.375 0.125
vt 0.375 0.375
vt 0.5 0.375
vt 0.5 0.125
vt 0.4375 0.125
vt 0.4375 0.375
vt 0.046875 0.9375
vt 0.046875 1
vt 0 1
vt 0 0.9375
vt 0.375 0.125
vt 0.375 0.375
vt 0.5 0.375
vt 0.5 0.125
vt 0.375 0.125
vt 0.375 0.375
vt 0.5 0.375
vt 0.5 0.125
vt 0.3773437500000002 0
vt 0.43515625 0.09999999999999998
vt 0.43671875000000016 0.1875
vt 0.3773437500000002 0.28437500000000004
vt 0.4984375 0
vt 0.44062500000000016 0.09999999999999998
vt 0.4390625 0.1875
vt 0.4984375 0.28437500000000004
vt 0.375 0.375
vt 0.375 0.125
vt 0.5 0.125
vt 0.5 0.375
vt 0.375 0.375
vt 0.375 0
vt 0.5 0
vt 0.5 0.375
vt 0.5 0.375
vt 0.5 0
vt 0.375 0
vt 0.375 0.375
vn 1 0 0
vn -1 0 0
vn 0 1 0
vn 0 -1 0
vn 0 0 1
vn 0 0 -1
vn -1 0 0
vn 1 0 0
vn 0 1 0
vn 0 -1 0
vn 0 0 1
vn 0 0 -1
vn 1 0 0
vn -1 0 0
vn 0 1 0
vn 0 -1 0
vn 0 0 1
vn 0 0 -1
vn 1 0 0
vn -1 0 0
vn 0 1 0
vn 0 -1 0
vn 0 0 1
vn 0 0 -1
vn 1 0 0
vn -1 0 0
vn 0 1 0
vn 0 -1 0
vn 0 0 -1
vn 1 0 0
vn -1 0 0
vn 0 1 0
vn 0 -1 0
vn 0 0 -1
vn 1 0 0
vn -1 0 0
vn 0 1 0
vn 0 -1 0
vn 0 0 1
vn 0 0 -1
vn 1 0 0
vn 0 0 1
vn -1 -2.2204460492503132e-17 0
vn 0 -1.1102230246251565e-16 -1
vn 1 0 0
vn -1 0 0
vn 0 1 0
vn 0 -1 0
vn 0 0 1
vn 0 0 -1
vn 1 0 0
vn 0 0 1
vn -1 0 0
vn 0 -1.1102230246251565e-16 -1
vn 1 0 0
vn -1 0 0
vn 0 -1 0
vn 0 0 1
vn 0 0 -1
vn 1 0 0
vn -1 0 0
vn 0 -1 0
vn 0 0 1
vn 0 0 -1
vn 1 0 0
vn -1 0 0
vn 0 1 0
vn 0 0.8320502943378438 0.5547001962252291
vn 0 0.8320502943378438 -0.554700196225229
vn 1 0 0
vn -1 0 0
vn 0 -1 0
vn 0 0 1
vn 0 0 -1
vn 1 0 0
vn -1 0 0
vn 0 -1 0
vn 0 0 1
vn 0 0 -1
vn 1 0 0
vn -1 0 0
vn 0 1 0
vn 0 0.8320502943378438 0.5547001962252291
vn 0 0.8320502943378438 -0.554700196225229
usemtl advanced_inserter
f 84/217/55 82/218/55 81/219/55
f 84/217/55 81/219/55 83/220/55
f 87/221/56 85/222/56 86/223/56
f 87/221/56 86/223/56 88/224/56
f 81/225/57 82/226/57 86/227/57
f 81/225/57 86/227/57 85/228/57
f 84/229/58 83/230/58 87/231/58
f 84/229/58 87/231/58 88/232/58
f 83/233/59 81/234/59 85/235/59
f 83/233/59 85/235/59 87/236/59
f 88/237/60 86/238/60 82/239/60
f 88/237/60 82/239/60 84/240/60
f 89/241/61 90/242/61 92/243/61
f 89/241/61 92/243/61 91/244/61
f 94/245/62 93/246/62 95/247/62
f 94/245/62 95/247/62 96/248/62
f 94/249/63 90/250/63 89/251/63
f 94/249/63 89/251/63 93/252/63
f 95/253/64 91/254/64 92/255/64
f 95/253/64 92/255/64 96/256/64
f 93/257/65 89/258/65 91/259/65
f 93/257/65 91/259/65 95/260/65
f 90/261/66 94/262/66 96/263/66
f 90/261/66 96/263/66 92/264/66
f 100/265/67 98/266/67 97/267/67
f 100/265/67 97/267/67 99/268/67
f 103/269/68 101/270/68 102/271/68
f 103/269/68 102/271/68 104/272/68
f 97/273/69 98/274/69 102/275/69
f 97/273/69 102/275/69 101/276/69
f 100/277/70 99/278/70 103/279/70
f 100/277/70 103/279/70 104/280/70
f 99/281/71 97/282/71 101/283/71
f 99/281/71 101/283/71 103/284/71
f 104/285/72 102/286/72 98/287/72
f 104/285/72 98/287/72 100/288/72
f 108/289/73 106/290/73 105/291/73
f 108/289/73 105/291/73 107/292/73
f 111/293/74 109/294/74 110/295/74
f 111/293/74 110/295/74 112/296/74
f 105/297/75 106/298/75 110/299/75
f 105/297/75 110/299/75 109/300/75
f 108/301/76 107/302/76 111/303/76
f 108/301/76 111/303/76 112/304/76
f 107/305/77 105/306/77 109/307/77
f 107/305/77 109/307/77 111/308/77
f 112/309/78 110/310/78 106/311/78
f 112/309/78 106/311/78 108/312/78
f 116/313/79 114/314/79 113/315/79
f 116/313/79 113/315/79 115/316/79
f 119/317/80 117/318/80 118/319/80
f 119/317/80 118/319/80 120/320/80
f 113/321/81 114/322/81 118/323/81
f 113/321/81 118/323/81 117/324/81
f 116/325/82 115/326/82 119/327/82
f 116/325/82 119/327/82 120/328/82
f 120/329/83 118/330/83 114/331/83
f 120/329/83 114/331/83 116/332/83
f 124/333/84 122/334/84 121/335/84
f 124/333/84 121/335/84 123/336/84
f 127/337/85 125/338/85 126/339/85
f 127/337/85 126/339/85 128/340/85
f 121/341/86 122/342/86 126/343/86
f 121/341/86 126/343/86 125/344/86
f 124/345/87 123/346/87 127/347/87
f 124/345/87 127/347/87 128/348/87
f 128/349/88 126/350/88 122/351/88
f 128/349/88 122/351/88 124/352/88
f 129/353/89 138/354/89 137/355/89
f 129/353/89 137/355/89 130/356/89
f 134/357/90 140/358/90 139/359/90
f 134/357/90 139/359/90 133/360/90
f 129/361/91 130/362/91 134/363/91
f 129/361/91 134/363/91 133/364/91
f 132/365/92 131/366/92 135/367/92
f 132/365/92 135/367/92 136/368/92
f 133/369/93 139/370/93 138/371/93
f 133/369/93 138/371/93 129/372/93
f 130/373/94 137/374/94 140/375/94
f 130/373/94 140/375/94 134/376/94
f 132/377/95 137/378/95 138/379/95
f 132/377/95 138/379/95 131/380/95
f 131/381/96 138/382/96 139/383/96
f 131/381/96 139/383/96 135/384/96
f 135/385/97 139/386/97 140/387/97
f 135/385/97 140/387/97 136/388/97
f 136/389/98 140/390/98 137/391/98
f 136/389/98 137/391/98 132/392/98
f 141/393/99 150/394/99 149/395/99
f 141/393/99 149/395/99 142/396/99
f 146/397/100 152/398/100 151/399/100
f 146/397/100 151/399/100 145/400/100
f 141/401/101 142/402/101 146/403/101
f 141/401/101 146/403/101 145/404/101
f 144/405/102 143/406/102 147/407/102
f 144/405/102 147/407/102 148/408/102
f 145/409/103 151/410/103 150/411/103
f 145/409/103 150/411/103 141/412/103
f 142/413/104 149/414/104 152/415/104
f 142/413/104 152/415/104 146/416/104
f 144/417/105 149/418/105 150/419/105
f 144/417/105 150/419/105 143/420/105
f 143/421/106 150/422/106 151/423/106
f 143/421/106 151/423/106 147/424/106
f 147/425/107 151/426/107 152/427/107
f 147/425/107 152/427/107 148/428/107
f 148/429/108 152/430/108 149/431/108
f 148/429/108 149/431/108 144/432/108
f 156/433/109 154/434/109 153/435/109
f 156/433/109 153/435/109 155/436/109
f 159/437/110 157/438/110 158/439/110
f 159/437/110 158/439/110 160/440/110
f 156/441/111 155/442/111 159/443/111
f 156/441/111 159/443/111 160/444/111
f 155/445/112 153/446/112 157/447/112
f 155/445/112 157/447/112 159/448/112
f 160/449/113 158/450/113 154/451/113
f 160/449/113 154/451/113 156/452/113
f 164/453/114 162/454/114 161/455/114
f 164/453/114 161/455/114 163/456/114
f 167/457/115 165/458/115 166/459/115
f 167/457/115 166/459/115 168/460/115
f 164/461/116 163/462/116 167/463/116
f 164/461/116 167/463/116 168/464/116
f 163/465/117 161/466/117 165/467/117
f 163/465/117 165/467/117 167/468/117
f 168/469/118 166/470/118 162/471/118
f 168/469/118 162/471/118 164/472/118
f 154/473/119 144/474/119 143/475/119
f 154/473/119 143/475/119 161/476/119
f 165/477/120 147/478/120 148/479/120
f 165/477/120 148/479/120 158/480/120
f 143/481/121 144/482/121 148/483/121
f 143/481/121 148/483/121 147/484/121
f 161/485/122 143/486/122 147/487/122
f 161/485/122 147/487/122 165/488/122
f 158/489/123 148/490/123 144/491/123
f 158/489/123 144/491/123 154/492/123
f 172/493/124 170/494/124 169/495/124
f 172/493/124 169/495/124 171/496/124
f 175/497/125 173/498/125 174/499/125
f 175/497/125 174/499/125 176/500/125
f 172/501/126 171/502/126 175/503/126
f 172/501/126 175/503/126 176/504/126
f 171/505/127 169/506/127 173/507/127
f 171/505/127 173/507/127 175/508/127
f 176/509/128 174/510/128 170/511/128
f 176/509/128 170/511/128 172/512/128
f 180/513/129 178/514/129 177/515/129
f 180/513/129 177/515/129 179/516/129
f 183/517/130 181/518/130 182/519/130
f 183/517/130 182/519/130 184/520/130
f 180/521/131 179/522/131 183/523/131
f 180/521/131 183/523/131 184/524/131
f 179/525/132 177/526/132 181/527/132
f 179/525/132 181/527/132 183/528/132
f 184/529/133 182/530/133 178/531/133
f 184/529/133 178/531/133 180/532/133
f 170/533/134 132/534/134 131/535/134
f 170/533/134 131/535/134 177/536/134
f 181/537/135 135/538/135 136/539/135
f 181/537/135 136/539/135 174/540/135
f 131/541/136 132/542/136 136/543/136
f 131/541/136 136/543/136 135/544/136
f 177/545/137 131/546/137 135/547/137
f 177/545/137 135/547/137 181/548/137
f 174/549/138 136/550/138 132/551/138
f 174/549/138 132/551/138 170/552/138
o inserter
v 0.75 0.375 0.75
v 0.75 0.375 0.25
v 0.75 0.3125 0.75
v 0.75 0.3125 0.25
v 0.25 0.375 0.75
v 0.25 0.375 0.25
v 0.25 0.3125 0.75
v 0.25 0.3125 0.25
v 0.625 0.3125 0.625
v 0.625 0.3125 0.375
v 0.625 0.25 0.625
v 0.625 0.25 0.375
v 0.375 0.3125 0.625
v 0.375 0.3125 0.375
v 0.375 0.25 0.625
v 0.375 0.25 0.375
v 0.3125 0.5625 0.625
v 0.3125 0.5625 0.375
v 0.3125 0.375 0.625
v 0.3125 0.375 0.375
v 0.25 0.5625 0.625
v 0.25 0.5625 0.375
v 0.25 0.375 0.625
v 0.25 0.375 0.375
v 0.75 0.5625 0.625
v 0.75 0.5625 0.375
v 0.75 0.375 0.625
v 0.75 0.375 0.375
v 0.6875 0.5625 0.625
v 0.6875 0.5625 0.375
v 0.6875 0.375 0.625
v 0.6875 0.375 0.375
v 0.3125 0.625 0.5625
v 0.3125 0.625 0.4375
v 0.25 0.625 0.5625
v 0.25 0.625 0.4375
v 0.75 0.625 0.5625
v 0.75 0.625 0.4375
v 0.6875 0.625 0.5625
v 0.6875 0.625 0.4375
vt 0.5 1
vt 0.4375 1
vt 0.4375 0.5
vt 0.5 0.5
vt 0.0625 1
vt 0 1
vt 0 0.5
vt 0.0625 0.5
vt 0.5 0.5
vt 0.5 1
vt 0 1
vt 0 0.5
vt 0.5 0.5
vt 0.5 1
vt 0 1
vt 0 0.5
vt 0.5 0.9375
vt 0.5 1
vt 0 1
vt 0 0.9375
vt 0 0.5
vt 0 0.5625
vt 0.5 0.5625
vt 0.5 0.5
vt 0.75 0.4375
vt 0.75 0.5
vt 0.5 0.5
vt 0.5 0.4375
vt 0.75 0.375
vt 0.75 0.4375
vt 0.5 0.4375
vt 0.5 0.375
vt 0.75 0.375
vt 0.75 0.4375
vt 0.5 0.4375
vt 0.5 0.375
vt 0.75 0.4375
vt 0.75 0.5
vt 0.5 0.5
vt 0.5 0.4375
vt 0.375 0.5
vt 0.375 0.6875
vt 0.125 0.6875
vt 0.125 0.5
vt 0.375 0.5
vt 0.375 0.6875
vt 0.125 0.6875
vt 0.125 0.5
vt 0.375 0.5
vt 0.375 0.6875
vt 0.3125 0.6875
vt 0.3125 0.5
vt 0.1875 0.5
vt 0.1875 0.6875
vt 0.125 0.6875
vt 0.125 0.5
vt 0.375 0.5
vt 0.375 0.6875
vt 0.125 0.6875
vt 0.125 0.5
vt 0.375 0.5
vt 0.375 0.6875
vt 0.125 0.6875
vt 0.125 0.5
vt 0.375 0.5
vt 0.375 0.6875
vt 0.3125 0.6875
vt 0.3125 0.5
vt 0.1875 0.5
vt 0.1875 0.6875
vt 0.125 0.6875
vt 0.125 0.5
vt 0.3125 0.5625
vt 0.28125 0.5
vt 0.21875 0.5
vt 0.1875 0.5625
vt 0.1875 0.5625
vt 0.21875 0.5
vt 0.28125 0.5
vt 0.3125 0.5625
vt 0.28125 0.5625
vt 0.21875 0.5625
vt 0.21875 0.5
vt 0.28125 0.5
vt 0.3125 0.5
vt 0.3125 0.5625
vt 0.28125 0.5625
vt 0.28125 0.5
vt 0.21875 0.5
vt 0.21875 0.5625
vt 0.1875 0.5625
vt 0.1875 0.5
vt 0.3125 0.5625
vt 0.28125 0.5
vt 0.21875 0.5
vt 0.1875 0.5625
vt 0.1875 0.5625
vt 0.21875 0.5
vt 0.28125 0.5
vt 0.3125 0.5625
vt 0.28125 0.5625
vt 0.21875 0.5625
vt 0.21875 0.5
vt 0.28125 0.5
vt 0.3125 0.5
vt 0.3125 0.5625
vt 0.28125 0.5625
vt 0.28125 0.5
vt 0.21875 0.5
vt 0.21875 0.5625
vt 0.1875 0.5625
vt 0.1875 0.5
vn 1 0 0
vn -1 0 0
vn 0 1 0
vn 0 -1 0
vn 0 0 1
vn 0 0 -1
vn 1 0 0
vn -1 0 0
vn 0 0 1
vn 0 0 -1
vn 1 0 0
vn -1 0 0
vn 0 0 1
vn 0 0 -1
vn 1 0 0
vn -1 0 0
vn 0 0 1
vn 0 0 -1
vn 1 0 0
vn -1 0 0
vn 0 1 0
vn 0 0.7071067811865476 0.7071067811865476
vn 0 0.7071067811865476 -0.7071067811865476
vn 1 0 0
vn -1 0 0
vn 0 1 0
vn 0 0.7071067811865476 0.7071067811865476
vn 0 0.7071067811865476 -0.7071067811865476
usemtl advanced_inserter
f 188/553/139 186/554/139 185/555/139
f 188/553/139 185/555/139 187/556/139
f 191/557/140 189/558/140 190/559/140
f 191/557/140 190/559/140 192/560/140
f 185/561/141 186/562/141 190/563/141
f 185/561/141 190/563/141 189/564/141
f 188/565/142 187/566/142 191/567/142
f 188/565/142 191/567/142 192/568/142
f 187/569/143 185/570/143 189/571/143
f 187/569/143 189/571/143 191/572/143
f 192/573/144 190/574/144 186/575/144
f 192/573/144 186/575/144 188/576/144
usemtl inserter_base2
f 196/577/145 194/578/145 193/579/145
f 196/577/145 193/579/145 195/580/145
f 199/581/146 197/582/146 198/583/146
f 199/581/146 198/583/146 200/584/146
f 195/585/147 193/586/147 197/587/147
f 195/585/147 197/587/147 199/588/147
f 200/589/148 198/590/148 194/591/148
f 200/589/148 194/591/148 196/592/148
usemtl advanced_inserter
f 204/593/149 202/594/149 201/595/149
f 204/593/149 201/595/149 203/596/149
f 207/597/150 205/598/150 206/599/150
f 207/597/150 206/599/150 208/600/150
f 203/601/151 201/602/151 205/603/151
f 203/601/151 205/603/151 207/604/151
f 208/605/152 206/606/152 202/607/152
f 208/605/152 202/607/152 204/608/152
f 212/609/153 210/610/153 209/611/153
f 212/609/153 209/611/153 211/612/153
f 215/613/154 213/614/154 214/615/154
f 215/613/154 214/615/154 216/616/154
f 211/617/155 209/618/155 213/619/155
f 211/617/155 213/619/155 215/620/155
f 216/621/156 214/622/156 210/623/156
f 216/621/156 210/623/156 212/624/156
f 202/625/157 218/626/157 217/627/157
f 202/625/157 217/627/157 201/628/157
f 205/629/158 219/630/158 220/631/158
f 205/629/158 220/631/158 206/632/158
f 217/633/159 218/634/159 220/635/159
f 217/633/159 220/635/159 219/636/159
f 201/637/160 217/638/160 219/639/160
f 201/637/160 219/639/160 205/640/160
f 206/641/161 220/642/161 218/643/161
f 206/641/161 218/643/161 202/644/161
f 210/645/162 222/646/162 221/647/162
f 210/645/162 221/647/162 209/648/162
f 213/649/163 223/650/163 224/651/163
f 213/649/163 224/651/163 214/652/163
f 221/653/164 222/654/164 224/655/164
f 221/653/164 224/655/164 223/656/164
f 209/657/165 221/658/165 223/659/165
f 209/657/165 223/659/165 213/660/165
f 214/661/166 224/662/166 222/663/166
f 214/661/166 222/663/166 210/664/166