# Made by Pabilo8 with Blockbench
# Exported with IIToolkit Plugin
mtllib emplacement.mtl


o main
v 0.1875 1.125 0.3125
v 0.1875 1.125 0.0625
v 0.1875 0.875 0.3125
v 0.1875 0.875 0.0625
v -0.1875 1.125 0.3125
v -0.1875 1.125 0.0625
v -0.1875 0.875 0.3125
v -0.1875 0.875 0.0625
v 1.1875 1.125 0.3125
v 1.1875 1.125 0.0625
v 1.1875 0.875 0.3125
v 1.1875 0.875 0.0625
v 0.8125 1.125 0.3125
v 0.8125 1.125 0.0625
v 0.8125 0.875 0.3125
v 0.8125 0.875 0.0625
v 1.1875 1.125 2.6875
v 1.1875 1.125 2.9375
v 1.1875 0.875 2.6875
v 1.1875 0.875 2.9375
v 0.8125 1.125 2.6875
v 0.8125 1.125 2.9375
v 0.8125 0.875 2.6875
v 0.8125 0.875 2.9375
v 0.1875 1.125 2.6875
v 0.1875 1.125 2.9375
v 0.1875 0.875 2.6875
v 0.1875 0.875 2.9375
v -0.1875 1.125 2.6875
v -0.1875 1.125 2.9375
v -0.1875 0.875 2.6875
v -0.1875 0.875 2.9375
v 1.75 0.875 2.75
v 1.75 0.875 0.25
v 1.75 -3.75 2.75
v 1.75 -3.75 0.25
v -0.75 0.875 2.75
v -0.75 0.875 0.25
v -0.75 -3.75 2.75
v -0.75 -3.75 0.25
v 1.75 -3.75 1.5
v -0.75 -3.75 1.5
v -0.75 0.875 1.5
v 1.75 0.875 1.5
v 1.75 -1.4375 1.5
v 1.75 -1.4375 2.75
v -0.75 -1.4375 2.75
v -0.75 -1.4375 1.5
v -0.75 -1.4375 0.25
v 1.75 -1.4375 0.25
v 0.5 -3.75 1.5
v 0.5 -3.75 2.75
v 0.5 -1.4375 2.75
v 0.5 0.875 2.75
v 0.5 -3.75 0.25
v 0.5 -1.4375 0.25
v 0.5 0.875 0.25
v 1 -3.625 2
v 1 -3.625 1
v 1 -3.75 2
v 1 -3.75 1
v 0 -3.625 2
v 0 -3.625 1
v 0 -3.75 2
v 0 -3.75 1
v 1.75 -3.625 2.75
v 1.75 -3.625 0.25
v -0.75 -3.625 2.75
v -0.75 -3.625 0.25
v 1.5625 -3.625 0.4375
v -0.5625 -3.625 0.4375
v 1.5625 -3.625 2.5625
v -0.5625 -3.625 2.5625
v 1.75 -3.625 1.5
v 1.5625 -3.625 1.5
v -0.5625 -3.625 1.5
v -0.75 -3.625 1.5
v 0.5 -3.625 2.5625
v 0.5 -3.625 2.75
v 0.5 -3.625 0.4375
v 0.5 -3.625 0.25
v 0.5 -3.6875 2.5625
v -0.5625 -3.6875 2.5625
v 1.5625 -3.6875 2.5625
v -0.5625 -3.6875 1.5
v -0.5625 -3.6875 0.4375
v 0.5 -3.6875 0.4375
v 1.5625 -3.6875 0.4375
v 1.5625 -3.6875 1.5
v 1.75 0.875 2.75
v 1.75 0.875 0.25
v -0.75 0.875 2.75
v -0.75 0.875 0.25
v 1.5625 0.875 0.4375
v -0.5625 0.875 0.4375
v 1.5625 0.875 2.5625
v -0.5625 0.875 2.5625
v 1.75 0.875 1.5
v 1.5625 0.875 1.5
v -0.5625 0.875 1.5
v -0.75 0.875 1.5
v 0.5 0.875 2.5625
v 0.5 0.875 2.75
v 0.5 0.875 0.4375
v 0.5 0.875 0.25
v 1.5625 0.8125 2.5625
v 0.5 0.8125 2.5625
v 0.5 0.8125 2.75
v 1.75 0.8125 2.75
v 1.75 0.8125 1.5
v 1.5625 0.8125 1.5
v 1.5625 0.8125 0.4375
v 1.75 0.8125 0.25
v 0.5 0.8125 0.4375
v 0.5 0.8125 0.25
v -0.5625 0.8125 0.4375
v -0.75 0.8125 0.25
v -0.5625 0.8125 1.5
v -0.75 0.8125 1.5
v -0.5625 0.8125 2.5625
v -0.75 0.8125 2.75
v 0.000690625 -3.5 3.002055625
v -1 -3.5 3
v 2 -3.5 3
v 0.99710375 -3.5 3.000635
v 2 -3.5 2
v 2 -3.5 1
v 0 -4 3
v -1 -4 3
v 2 -4 3
v 1 -4 3
v 1 -4 0
v 0 -4 0
v 2 -4 2
v 2 -4 1
v -1 -3.5 0
v -1 -4 0
v 0 -3.5 -0.004823125000000011
v 1 -3.5 0
v 0 -3.5 2.938213125
v -0.9375 -3.5 2.9375
v 2 -3.5 2.9375
v 0.99962875 -3.5 2.937861875
v -0.9375 -3.5 0
v 0.00138125 -3.5 0.060361250000000005
v 1 -3.5 0.0625
v -1 -3 3
v -0.5 -3 3
v -0.5 -3.5 3
v 2 -3 3
v 1.5 -3 3
v 1.5 -3.5 3
v -1 -3 0.5
v -1 -3.5 0.5
v -1 -3 0
v -1 -3 2.5
v -1 -3.5 2.5
v 2 -3 1
v 1.9375 -3 1
v 1.9375 -3.5 1
v 2 -3 2
v 1.9375 -3 2
v 1.9375 -3.5 2
v 0.991445 -3 -0.00552625000000001
v 0.994208125 -3 0.05751937500000001
v 0.994208125 -3.5 0.05751937500000001
v 0.991445 -3.5 -0.00552625000000001
v 0 -3 -0.004823125000000011
v 0.002763125 -3 0.05822250000000001
v 2 -4 0
v 1.937500625 -3.25 2.375
v -0.125 -3.125 0.0625
v -0.875 -3.125 0.062499374999999996
v -0.875 -3.875 0.062499374999999996
v -0.125 -3.875 0.0625
v -0.125 -3.875 0
v -0.875000625 -3.875 0
v -0.125 -3.125 0
v -0.875000625 -3.125 0
v -0.25 -3.25 -0.0015624999999999944
v -0.75 -3.25 -0.0015624999999999944
v -0.75 -3.75 -0.0015624999999999944
v -0.25 -3.75 -0.0015624999999999944
v -0.75 -3.25 0.062499374999999996
v -0.250000625 -3.25 0.0625
v -0.250000625 -3.75 0.0625
v -0.75 -3.75 0.062499374999999996
v 1.9375 -3.125 2.875
v 1.937500625 -3.125 2.125
v 1.937500625 -3.875 2.125
v 1.9375 -3.875 2.875
v 2 -3.875 2.875
v 2 -3.875 2.124999375
v 2 -3.125 2.875
v 2 -3.125 2.124999375
v 2.0015625 -3.25 2.75
v 2.0015625 -3.25 2.25
v 2.0015625 -3.75 2.25
v 2.0015625 -3.75 2.75
v 1.937500625 -3.25 2.25
v 1.9375 -3.25 2.749999375
v 1.9375 -3.75 2.749999375
v 1.937500625 -3.75 2.25
v 2.0015625 -3.0625 2.625
v 2.0015625 -3.0625 2.375
v 2.0015625 -3.25 2.375
v 2.0015625 -3.25 2.625
v 1.9375 -3.0625 2.625
v 1.9375 -3.25 2.625
v 1.937500625 -3.0625 2.375
v 1.9375 -3.125 0.875
v 1.937500625 -3.125 0.125
v 1.937500625 -3.875 0.125
v 1.9375 -3.875 0.875
v 2 -3.875 0.875
v 2 -3.875 0.124999375
v 2 -3.125 0.875
v 2 -3.125 0.124999375
v 2 -3 0
v 2.0015625 -3.25 0.75
v 2.0015625 -3.25 0.25
v 2.0015625 -3.75 0.25
v 2.0015625 -3.75 0.75
v 1.937500625 -3.25 0.25
v 1.9375 -3.25 0.749999375
v 1.9375 -3.75 0.749999375
v 1.937500625 -3.75 0.25
v 2.0015625 -3.0625 0.625
v 2.0015625 -3.0625 0.375
v 2.0015625 -3.25 0.375
v 2.0015625 -3.25 0.625
v 1.9375 -3.0625 0.625
v 1.9375 -3.25 0.625
v 1.937500625 -3.0625 0.375
v 1.937500625 -3.25 0.375
v 1.875 -3.125 0.0625
v 1.125 -3.125 0.062499374999999996
v 1.125 -3.875 0.062499374999999996
v 1.875 -3.875 0.0625
v 1.875 -3.875 0
v 1.124999375 -3.875 0
v 1.875 -3.125 0
v 1.124999375 -3.125 0
v 0.999999375 -3 0
v 1.75 -3.25 -0.0015624999999999944
v 1.25 -3.25 -0.0015624999999999944
v 1.25 -3.75 -0.0015624999999999944
v 1.75 -3.75 -0.0015624999999999944
v 1.25 -3.25 0.062499374999999996
v 1.749999375 -3.25 0.0625
v 1.749999375 -3.75 0.0625
v 1.25 -3.75 0.062499374999999996
v 1.625 -3.0625 -0.0015624999999999944
v 1.375 -3.0625 -0.0015624999999999944
v 1.375 -3.25 -0.0015624999999999944
v 1.625 -3.25 -0.0015624999999999944
v 1.625 -3.0625 0.0625
v 1.625 -3.25 0.0625
v 1.375 -3.0625 0.062499374999999996
v 1.375 -3.25 0.062499374999999996
v 0.875 -3.125 2.9375
v 0.125 -3.125 2.937500625
v 0.125 -3.875 2.937500625
v 0.875 -3.875 2.9375
v 0.875 -3.875 3
v 0.124999375 -3.875 3
v 0.875 -3.125 3
v 0.99710375 -3 3.000635
v 0.124999375 -3.125 3
v 0.00138125 -3 3.00098625
v 0.75 -3.25 3.0015625
v 0.25 -3.25 3.0015625
v 0.25 -3.75 3.0015625
v 0.75 -3.75 3.0015625
v 0.25 -3.25 2.937500625
v 0.749999375 -3.25 2.9375
v 0.749999375 -3.75 2.9375
v 0.25 -3.75 2.937500625
v 0.991445 -3 2.93822375
v 0 -3 2.938926875
vt 0.906250 0.000000
vt 0.906250 0.062500
vt 0.843750 0.062500
vt 0.843750 0.000000
vt 0.906250 0.000000
vt 0.906250 0.062500
vt 0.843750 0.062500
vt 0.843750 0.000000
vt 0.781250 0.000000
vt 0.843750 0.000000
vt 0.843750 0.093750
vt 0.781250 0.093750
vt 0.781250 0.000000
vt 0.843750 0.000000
vt 0.843750 0.093750
vt 0.781250 0.093750
vt 0.843750 0.000000
vt 0.781250 0.000000
vt 0.781250 0.093750
vt 0.843750 0.093750
vt 0.781250 0.093750
vt 0.843750 0.093750
vt 0.843750 0.000000
vt 0.781250 0.000000
vt 0.906250 0.000000
vt 0.906250 0.062500
vt 0.843750 0.062500
vt 0.843750 0.000000
vt 0.906250 0.000000
vt 0.906250 0.062500
vt 0.843750 0.062500
vt 0.843750 0.000000
vt 0.781250 0.000000
vt 0.843750 0.000000
vt 0.843750 0.093750
vt 0.781250 0.093750
vt 0.781250 0.000000
vt 0.843750 0.000000
vt 0.843750 0.093750
vt 0.781250 0.093750
vt 0.843750 0.000000
vt 0.781250 0.000000
vt 0.781250 0.093750
vt 0.843750 0.093750
vt 0.781250 0.093750
vt 0.843750 0.093750
vt 0.843750 0.000000
vt 0.781250 0.000000
vt 0.843750 0.062500
vt 0.906250 0.062500
vt 0.906250 0.000000
vt 0.843750 0.000000
vt 0.843750 0.062500
vt 0.906250 0.062500
vt 0.906250 0.000000
vt 0.843750 0.000000
vt 0.843750 0.093750
vt 0.843750 0.000000
vt 0.781250 0.000000
vt 0.781250 0.093750
vt 0.843750 0.093750
vt 0.843750 0.000000
vt 0.781250 0.000000
vt 0.781250 0.093750
vt 0.781250 0.093750
vt 0.781250 0.000000
vt 0.843750 0.000000
vt 0.843750 0.093750
vt 0.843750 0.000000
vt 0.843750 0.093750
vt 0.781250 0.093750
vt 0.781250 0.000000
vt 0.843750 0.062500
vt 0.906250 0.062500
vt 0.906250 0.000000
vt 0.843750 0.000000
vt 0.843750 0.062500
vt 0.906250 0.062500
vt 0.906250 0.000000
vt 0.843750 0.000000
vt 0.843750 0.093750
vt 0.843750 0.000000
vt 0.781250 0.000000
vt 0.781250 0.093750
vt 0.843750 0.093750
vt 0.843750 0.000000
vt 0.781250 0.000000
vt 0.781250 0.093750
vt 0.781250 0.093750
vt 0.781250 0.000000
vt 0.843750 0.000000
vt 0.843750 0.093750
vt 0.843750 0.000000
vt 0.843750 0.093750
vt 0.781250 0.093750
vt 0.781250 0.000000
vt 0.437500 0.421875
vt 0.750000 0.421875
vt 0.750000 1.000000
vt 0.437500 1.000000
vt 0.000000 0.828125
vt 0.312500 0.828125
vt 0.312500 0.250000
vt 0.000000 0.250000
vt 0.343750 1.000000
vt 0.031250 1.000000
vt 0.031250 0.687500
vt 0.343750 0.687500
vt 0.750000 1.000000
vt 0.437500 1.000000
vt 0.437500 0.421875
vt 0.750000 0.421875
vt 0.000000 0.421875
vt 0.312500 0.421875
vt 0.312500 1.000000
vt 0.000000 1.000000
vt 0.312500 0.687500
vt 0.312500 1.000000
vt 0.000000 1.000000
vt 0.000000 0.687500
vt 0.437500 0.421875
vt 0.750000 0.421875
vt 0.750000 1.000000
vt 0.437500 1.000000
vt 0.000000 0.421875
vt 0.312500 0.421875
vt 0.312500 1.000000
vt 0.000000 1.000000
vt 0.750000 0.828125
vt 0.437500 0.828125
vt 0.437500 0.250000
vt 0.750000 0.250000
vt 0.750000 0.828125
vt 0.437500 0.828125
vt 0.437500 0.250000
vt 0.750000 0.250000
vt 0.312500 0.828125
vt 0.000000 0.828125
vt 0.000000 0.250000
vt 0.312500 0.250000
vt 0.750000 0.828125
vt 0.437500 0.828125
vt 0.437500 0.250000
vt 0.750000 0.250000
vt 0.000000 1.000000
vt 0.312500 1.000000
vt 0.312500 0.421875
vt 0.000000 0.421875
vt 0.312500 0.828125
vt 0.000000 0.828125
vt 0.000000 0.250000
vt 0.312500 0.250000
vt 0.000000 0.968750
vt 0.312500 0.968750
vt 0.312500 0.656250
vt 0.000000 0.656250
vt 0.000000 0.250000
vt 0.312500 0.250000
vt 0.312500 0.828125
vt 0.000000 0.828125
vt 0.000000 0.421875
vt 0.312500 0.421875
vt 0.312500 1.000000
vt 0.000000 1.000000
vt 0.000000 0.687500
vt 0.312500 0.687500
vt 0.312500 1.000000
vt 0.000000 1.000000
vt 0.750000 0.828125
vt 0.437500 0.828125
vt 0.437500 0.250000
vt 0.750000 0.250000
vt 0.765625 1.000000
vt 0.453125 1.000000
vt 0.453125 0.421875
vt 0.765625 0.421875
vt 0.500000 0.000000
vt 0.500000 0.031250
vt 0.781250 0.031250
vt 0.781250 0.000000
vt 0.781250 0.000000
vt 0.781250 0.031250
vt 0.500000 0.031250
vt 0.500000 0.000000
vt 0.781250 0.031250
vt 0.781250 0.312500
vt 0.500000 0.312500
vt 0.500000 0.031250
vt 0.781250 0.000000
vt 0.781250 0.031250
vt 0.500000 0.031250
vt 0.500000 0.000000
vt 0.500000 0.000000
vt 0.500000 0.031250
vt 0.781250 0.031250
vt 0.781250 0.000000
vt 0.828125 0.453125
vt 0.828125 0.187500
vt 0.875000 0.187500
vt 0.875000 0.500000
vt 0.875000 0.500000
vt 0.875000 0.187500
vt 0.828125 0.187500
vt 0.828125 0.453125
vt 0.828125 0.453125
vt 0.828125 0.187500
vt 0.875000 0.187500
vt 0.875000 0.500000
vt 0.828125 0.453125
vt 0.828125 0.187500
vt 0.875000 0.187500
vt 0.875000 0.500000
vt 0.828125 0.453125
vt 0.828125 0.187500
vt 0.875000 0.187500
vt 0.875000 0.500000
vt 0.828125 0.453125
vt 0.828125 0.187500
vt 0.875000 0.187500
vt 0.875000 0.500000
vt 0.828125 0.453125
vt 0.828125 0.187500
vt 0.875000 0.187500
vt 0.875000 0.500000
vt 0.828125 0.453125
vt 0.828125 0.187500
vt 0.875000 0.187500
vt 0.875000 0.500000
vt 0.828125 0.187500
vt 0.843750 0.187500
vt 0.843750 0.453125
vt 0.828125 0.453125
vt 0.828125 0.453125
vt 0.843750 0.453125
vt 0.843750 0.187500
vt 0.828125 0.187500
vt 0.828125 0.453125
vt 0.843750 0.453125
vt 0.843750 0.187500
vt 0.828125 0.187500
vt 0.828125 0.187500
vt 0.843750 0.187500
vt 0.843750 0.453125
vt 0.828125 0.453125
vt 0.828125 0.453125
vt 0.843750 0.453125
vt 0.843750 0.187500
vt 0.828125 0.187500
vt 0.828125 0.187500
vt 0.843750 0.187500
vt 0.843750 0.453125
vt 0.828125 0.453125
vt 0.828125 0.187500
vt 0.843750 0.187500
vt 0.843750 0.453125
vt 0.828125 0.453125
vt 0.828125 0.187500
vt 0.843750 0.187500
vt 0.843750 0.453125
vt 0.828125 0.453125
vt 0.390625 0.703125
vt 0.656250 0.703125
vt 0.656250 0.750000
vt 0.343750 0.750000
vt 0.343750 0.750000
vt 0.656250 0.750000
vt 0.656250 0.703125
vt 0.390625 0.703125
vt 0.390625 0.703125
vt 0.656250 0.703125
vt 0.656250 0.750000
vt 0.343750 0.750000
vt 0.390625 0.750000
vt 0.656250 0.750000
vt 0.656250 0.703125
vt 0.343750 0.703125
vt 0.390625 0.703125
vt 0.656250 0.703125
vt 0.656250 0.750000
vt 0.343750 0.750000
vt 0.390625 0.703125
vt 0.656250 0.703125
vt 0.656250 0.750000
vt 0.343750 0.750000
vt 0.390625 0.703125
vt 0.656250 0.703125
vt 0.656250 0.750000
vt 0.343750 0.750000
vt 0.390625 0.703125
vt 0.656250 0.703125
vt 0.656250 0.750000
vt 0.343750 0.750000
vt 0.343750 0.750000
vt 0.343750 0.734375
vt 0.609375 0.734375
vt 0.609375 0.750000
vt 0.609375 0.750000
vt 0.609375 0.734375
vt 0.343750 0.734375
vt 0.343750 0.750000
vt 0.609375 0.750000
vt 0.609375 0.734375
vt 0.343750 0.734375
vt 0.343750 0.750000
vt 0.343750 0.750000
vt 0.343750 0.734375
vt 0.609375 0.734375
vt 0.609375 0.750000
vt 0.609375 0.750000
vt 0.609375 0.734375
vt 0.343750 0.734375
vt 0.343750 0.750000
vt 0.343750 0.750000
vt 0.343750 0.734375
vt 0.609375 0.734375
vt 0.609375 0.750000
vt 0.609375 0.734375
vt 0.343750 0.734375
vt 0.343750 0.750000
vt 0.609375 0.750000
vt 0.343750 0.750000
vt 0.343750 0.734375
vt 0.609375 0.734375
vt 0.609375 0.750000
vt 0.656250 0.750000
vt 0.656250 0.703125
vt 0.390625 0.703125
vt 0.343750 0.750000
vt 0.656250 0.703125
vt 0.656250 0.750000
vt 0.343750 0.750000
vt 0.390625 0.703125
vt 0.656250 0.750000
vt 0.656250 0.703125
vt 0.390625 0.703125
vt 0.343750 0.750000
vt 0.656250 0.703125
vt 0.656250 0.750000
vt 0.390625 0.750000
vt 0.343750 0.703125
vt 0.656250 0.750000
vt 0.656250 0.703125
vt 0.390625 0.703125
vt 0.343750 0.750000
vt 0.656250 0.750000
vt 0.656250 0.703125
vt 0.390625 0.703125
vt 0.343750 0.750000
vt 0.656250 0.750000
vt 0.656250 0.703125
vt 0.390625 0.703125
vt 0.343750 0.750000
vt 0.656250 0.750000
vt 0.656250 0.703125
vt 0.390625 0.703125
vt 0.343750 0.750000
vt 0.750000 0.750000
vt 0.875000 0.750000
vt 0.875000 1.000000
vt 0.750000 1.000000
vt 0.750000 0.500000
vt 0.875000 0.500000
vt 0.875000 0.750000
vt 0.750000 0.750000
vt 0.750000 1.000000
vt 0.875000 1.000000
vt 0.875000 0.750000
vt 0.750000 0.750000
vt 0.750000 1.000000
vt 0.875000 1.000000
vt 0.875000 0.750000
vt 0.750000 0.750000
vt 0.875000 1.000000
vt 1.000000 1.000000
vt 1.000000 0.250000
vt 0.875000 0.250000
vt 0.890625 1.000000
vt 0.875000 1.000000
vt 0.875000 0.750000
vt 0.890625 0.765625
vt 0.890625 1.000000
vt 0.875000 1.000000
vt 0.875000 0.750000
vt 0.890625 0.750000
vt 0.984375 1.000000
vt 1.000000 1.000000
vt 1.000000 0.250000
vt 0.984375 0.250000
vt 0.875000 0.750000
vt 0.859375 0.750000
vt 0.859375 0.500000
vt 0.875000 0.500000
vt 0.875000 1.000000
vt 0.859375 1.000000
vt 0.859375 0.750000
vt 0.875000 0.750000
vt 0.546875 0.343750
vt 0.546875 0.468750
vt 0.671875 0.468750
vt 0.671875 0.343750
vt 0.671875 0.593750
vt 0.671875 0.468750
vt 0.546875 0.468750
vt 0.546875 0.593750
vt 0.546875 0.343750
vt 0.546875 0.468750
vt 0.671875 0.468750
vt 0.671875 0.343750
vt 0.671875 0.593750
vt 0.671875 0.468750
vt 0.546875 0.468750
vt 0.546875 0.593750
vt 0.562500 0.593750
vt 0.562500 0.468750
vt 0.546875 0.468750
vt 0.546875 0.593750
vt 0.546875 0.468750
vt 0.562500 0.468750
vt 0.562500 0.593750
vt 0.546875 0.593750
vt 0.562500 0.593750
vt 0.562500 0.468750
vt 0.546875 0.468750
vt 0.546875 0.593750
vt 0.546875 0.468750
vt 0.562500 0.468750
vt 0.562500 0.593750
vt 0.546875 0.593750
vt 0.000000 0.250000
vt 0.750000 0.250000
vt 0.750000 1.000000
vt 0.000000 1.000000
vt 0.968750 0.031250
vt 0.968750 0.218750
vt 0.781250 0.218750
vt 0.781250 0.031250
vt 0.968750 0.218750
vt 0.968750 0.031250
vt 1.000000 0.000000
vt 1.000000 0.250000
vt 0.781250 0.218750
vt 0.968750 0.218750
vt 1.000000 0.250000
vt 0.750000 0.250000
vt 0.781250 0.031250
vt 0.781250 0.218750
vt 0.750000 0.250000
vt 0.750000 0.000000
vt 0.968750 0.031250
vt 0.781250 0.031250
vt 0.750000 0.000000
vt 1.000000 0.000000
vt 0.984375 0.031250
vt 0.984375 0.218750
vt 0.968750 0.218750
vt 0.968750 0.031250
vt 0.781250 0.218750
vt 0.968750 0.218750
vt 0.968750 0.234375
vt 0.781250 0.234375
vt 0.781250 0.031250
vt 0.781250 0.218750
vt 0.765625 0.218750
vt 0.765625 0.031250
vt 0.968750 0.015625
vt 0.781250 0.015625
vt 0.781250 0.031250
vt 0.968750 0.031250
vt 0.625000 0.609375
vt 0.750000 0.609375
vt 0.750000 0.593750
vt 0.625000 0.593750
vt 0.750000 0.500000
vt 0.625000 0.500000
vt 0.625000 0.484375
vt 0.750000 0.484375
vt 0.641016 0.484375
vt 0.641016 0.609375
vt 0.625000 0.609375
vt 0.625000 0.484375
vt 0.750391 0.484375
vt 0.750391 0.609375
vt 0.734375 0.609375
vt 0.734375 0.484375
vt 0.750000 0.484375
vt 0.750000 0.609375
vt 0.625000 0.609375
vt 0.625000 0.484375
vt 0.968750 0.031250
vt 0.968750 0.218750
vt 0.781250 0.218750
vt 0.781250 0.031250
vt 0.968750 0.218750
vt 0.968750 0.031250
vt 1.000000 0.000000
vt 1.000000 0.250000
vt 0.781250 0.218750
vt 0.968750 0.218750
vt 1.000000 0.250000
vt 0.750000 0.250000
vt 0.781250 0.031250
vt 0.781250 0.218750
vt 0.750000 0.250000
vt 0.750000 0.000000
vt 0.968750 0.031250
vt 0.781250 0.031250
vt 0.750000 0.000000
vt 1.000000 0.000000
vt 0.984375 0.031250
vt 0.984375 0.218750
vt 0.968750 0.218750
vt 0.968750 0.031250
vt 0.781250 0.218750
vt 0.968750 0.218750
vt 0.968750 0.234375
vt 0.781250 0.234375
vt 0.781250 0.031250
vt 0.781250 0.218750
vt 0.765625 0.218750
vt 0.765625 0.031250
vt 0.968750 0.015625
vt 0.781250 0.015625
vt 0.781250 0.031250
vt 0.968750 0.031250
vt 0.375000 0.609375
vt 0.500000 0.609375
vt 0.500000 0.593750
vt 0.375000 0.593750
vt 0.500000 0.500000
vt 0.375000 0.500000
vt 0.375000 0.484375
vt 0.500000 0.484375
vt 0.391016 0.484375
vt 0.391016 0.609375
vt 0.375000 0.609375
vt 0.375000 0.484375
vt 0.500391 0.484375
vt 0.500391 0.609375
vt 0.484375 0.609375
vt 0.484375 0.484375
vt 0.062500 0.687500
vt 0.062500 0.734375
vt 0.000000 0.734375
vt 0.000000 0.687500
vt 0.016016 0.687500
vt 0.016016 0.734375
vt 0.000000 0.734375
vt 0.000000 0.687500
vt 0.062891 0.687500
vt 0.062891 0.734375
vt 0.046875 0.734375
vt 0.046875 0.687500
vt 0.500000 0.484375
vt 0.500000 0.609375
vt 0.375000 0.609375
vt 0.375000 0.484375
vt 0.968750 0.031250
vt 0.968750 0.218750
vt 0.781250 0.218750
vt 0.781250 0.031250
vt 0.968750 0.218750
vt 0.968750 0.031250
vt 1.000000 0.000000
vt 1.000000 0.250000
vt 0.781250 0.218750
vt 0.968750 0.218750
vt 1.000000 0.250000
vt 0.750000 0.250000
vt 0.781250 0.031250
vt 0.781250 0.218750
vt 0.750000 0.250000
vt 0.750000 0.000000
vt 0.968750 0.031250
vt 0.781250 0.031250
vt 0.750000 0.000000
vt 1.000000 0.000000
vt 0.984375 0.031250
vt 0.984375 0.218750
vt 0.968750 0.218750
vt 0.968750 0.031250
vt 0.781250 0.218750
vt 0.968750 0.218750
vt 0.968750 0.234375
vt 0.781250 0.234375
vt 0.781250 0.031250
vt 0.781250 0.218750
vt 0.765625 0.218750
vt 0.765625 0.031250
vt 0.968750 0.015625
vt 0.781250 0.015625
vt 0.781250 0.031250
vt 0.968750 0.031250
vt 0.375000 0.609375
vt 0.500000 0.609375
vt 0.500000 0.593750
vt 0.375000 0.593750
vt 0.500000 0.500000
vt 0.375000 0.500000
vt 0.375000 0.484375
vt 0.500000 0.484375
vt 0.391016 0.484375
vt 0.391016 0.609375
vt 0.375000 0.609375
vt 0.375000 0.484375
vt 0.500391 0.484375
vt 0.500391 0.609375
vt 0.484375 0.609375
vt 0.484375 0.484375
vt 0.125000 0.687500
vt 0.125000 0.734375
vt 0.062500 0.734375
vt 0.062500 0.687500
vt 0.078516 0.687500
vt 0.078516 0.734375
vt 0.062500 0.734375
vt 0.062500 0.687500
vt 0.125391 0.687500
vt 0.125391 0.734375
vt 0.109375 0.734375
vt 0.109375 0.687500
vt 0.500000 0.484375
vt 0.500000 0.609375
vt 0.375000 0.609375
vt 0.375000 0.484375
vt 0.968750 0.031250
vt 0.968750 0.218750
vt 0.781250 0.218750
vt 0.781250 0.031250
vt 0.968750 0.218750
vt 0.968750 0.031250
vt 1.000000 0.000000
vt 1.000000 0.250000
vt 0.781250 0.218750
vt 0.968750 0.218750
vt 1.000000 0.250000
vt 0.750000 0.250000
vt 0.781250 0.031250
vt 0.781250 0.218750
vt 0.750000 0.250000
vt 0.750000 0.000000
vt 0.968750 0.031250
vt 0.781250 0.031250
vt 0.750000 0.000000
vt 1.000000 0.000000
vt 0.984375 0.031250
vt 0.984375 0.218750
vt 0.968750 0.218750
vt 0.968750 0.031250
vt 0.781250 0.218750
vt 0.968750 0.218750
vt 0.968750 0.234375
vt 0.781250 0.234375
vt 0.781250 0.031250
vt 0.781250 0.218750
vt 0.765625 0.218750
vt 0.765625 0.031250
vt 0.968750 0.015625
vt 0.781250 0.015625
vt 0.781250 0.031250
vt 0.968750 0.031250
vt 0.750000 0.609375
vt 0.875000 0.609375
vt 0.875000 0.593750
vt 0.750000 0.593750
vt 0.875000 0.500000
vt 0.750000 0.500000
vt 0.750000 0.484375
vt 0.875000 0.484375
vt 0.766016 0.484375
vt 0.766016 0.609375
vt 0.750000 0.609375
vt 0.750000 0.484375
vt 0.875391 0.484375
vt 0.875391 0.609375
vt 0.859375 0.609375
vt 0.859375 0.484375
vt 0.187500 0.687500
vt 0.187500 0.734375
vt 0.125000 0.734375
vt 0.125000 0.687500
vt 0.141016 0.687500
vt 0.141016 0.734375
vt 0.125000 0.734375
vt 0.125000 0.687500
vt 0.187891 0.687500
vt 0.187891 0.734375
vt 0.171875 0.734375
vt 0.171875 0.687500
vt 0.875000 0.484375
vt 0.875000 0.609375
vt 0.750000 0.609375
vt 0.750000 0.484375
vt 0.781250 0.218750
vt 0.968750 0.218750
vt 0.968750 0.031250
vt 0.781250 0.031250
vt 1.000000 0.000000
vt 0.968750 0.031250
vt 0.968750 0.218750
vt 1.000000 0.250000
vt 1.000000 0.250000
vt 0.968750 0.218750
vt 0.781250 0.218750
vt 0.750000 0.250000
vt 0.750000 0.250000
vt 0.781250 0.218750
vt 0.781250 0.031250
vt 0.750000 0.000000
vt 0.750000 0.000000
vt 0.781250 0.031250
vt 0.968750 0.031250
vt 1.000000 0.000000
vt 0.968750 0.218750
vt 0.984375 0.218750
vt 0.984375 0.031250
vt 0.968750 0.031250
vt 0.968750 0.234375
vt 0.968750 0.218750
vt 0.781250 0.218750
vt 0.781250 0.234375
vt 0.765625 0.218750
vt 0.781250 0.218750
vt 0.781250 0.031250
vt 0.765625 0.031250
vt 0.781250 0.031250
vt 0.781250 0.015625
vt 0.968750 0.015625
vt 0.968750 0.031250
vt 0.125000 0.593750
vt 0.125000 0.609375
vt 0.000000 0.609375
vt 0.000000 0.593750
vt 0.000000 0.484375
vt 0.000000 0.500000
vt 0.125000 0.500000
vt 0.125000 0.484375
vt 0.000000 0.609375
vt 0.016016 0.609375
vt 0.016016 0.484375
vt 0.000000 0.484375
vt 0.109375 0.609375
vt 0.125391 0.609375
vt 0.125391 0.484375
vt 0.109375 0.484375
vt 0.000000 0.609375
vt 0.125000 0.609375
vt 0.125000 0.484375
vt 0.000000 0.484375
vt 0.562500 0.468750
vt 0.546875 0.468750
vt 0.546875 0.593750
vt 0.562500 0.593750
vt 0.546875 0.593750
vt 0.546875 0.468750
vt 0.562500 0.468750
vt 0.562500 0.593750
vn 1 0 0
vn -1 0 0
vn 0 1 0
vn 0 -1 0
vn 0 0 1
vn 0 0 -1
vn 1 0 0
vn -1 0 0
vn 0 1 0
vn 0 -1 0
vn 0 0 1
vn 0 0 -1
vn 1 0 0
vn -1 0 0
vn 0 1 0
vn 0 -1 0
vn 0 0 -1
vn 0 0 1
vn 1 0 0
vn -1 0 0
vn 0 1 0
vn 0 -1 0
vn 0 0 -1
vn 0 0 1
vn -1 0 0
vn 1 0 0
vn 0 1 0
vn 0 0 -1
vn 0 0 1
vn 0 1 0
vn 1 0 0
vn -1 0 0
vn -1 0 0
vn 0 0 -1
vn 1 0 0
vn 1 0 0
vn 0 0 1
vn -1 0 0
vn 0 1 0
vn 0 0 -1
vn 0 0 -1
vn 0 1 0
vn 0 0 1
vn 0 0 1
vn 1 0 0
vn -1 0 0
vn 0 1 0
vn 0 0 1
vn 0 0 -1
vn 0 1 0
vn 0 1 0
vn 0 1 0
vn 0 1 0
vn 0 1 0
vn 0 1 0
vn 0 1 0
vn 0 1 0
vn 0 0 -1
vn 0 0 -1
vn 1 0 0
vn 1 0 0
vn 0 0 1
vn 0 0 1
vn 1 0 0
vn -1 0 0
vn 0 1 0
vn 0 1 0
vn 0 1 0
vn 0 1 0
vn 0 1 0
vn 0 1 0
vn 0 1 0
vn 0 1 0
vn 0 0 -1
vn 0 0 -1
vn 1 0 0
vn 1 0 0
vn 0 0 1
vn 0 0 1
vn -1 0 0
vn -1 0 0
vn 0 -1 0
vn 0 -1 0
vn 0 -1 0
vn 0 -1 0
vn 0 -1 0
vn 0 -1 0
vn 0 -1 0
vn 0 -1 0
vn 0.004822844529184029 -0.009645689058368058 -0.9999418487358336
vn 1 0 0
vn -0.0020541846434451163 -0.004108369286890233 0.9999894507579834
vn 0.0006331660654972151 0 0.9999997995503468
vn -1 0 0
vn 0 1 0
vn 0 1 0
vn 0 1 0
vn 0 1 0
vn 0 1 0
vn 0 0 1
vn 0 0 1
vn -1 0 0
vn -1 0 0
vn 0 0 1
vn 0 0 -1
vn 0.9990366191679452 -0.0029483784971508107 -0.04378516444778567
vn -0.9990409614768332 0 0.04378535475983704
vn 0 -1 0
vn 8.333333333385033e-7 0 -0.9999999999996528
vn 0 0 -1
vn 0 0 -1
vn -0.03855630931516918 0 -0.999256429057123
vn 0 0 -1
vn 0.999999999949999 0 -0.000010000100000121415
vn 0 -1 0
vn -1 0 0
vn 0 1 0
vn 0 1 0
vn 0 -1 0
vn 0.9999999999524094 0 0.000009756097560141968
vn -1 0 0
vn 0 0 -1
vn 0.9999999999996528 0 8.333333333014959e-7
vn 1 0 0
vn 1 0 0
vn 1 0 0
vn 1 0 0
vn 0.000010000100000121411 0 0.999999999949999
vn 0 -1 0
vn 0 0 -1
vn 0 1 0
vn 0 1 0
vn 0 -1 0
vn -0.000009756097563608044 0 0.9999999999524094
vn 0 0 -1
vn 1 0 0
vn 0 0 1
vn 0 0 -1
vn 1 0 0
vn 0.9999999999996528 0 8.333333333014959e-7
vn 1 0 0
vn 1 0 0
vn 1 0 0
vn 1 0 0
vn 0.000010000100000565504 0 0.999999999949999
vn 0 -1 0
vn 0 0 -1
vn 0 1 0
vn 0 1 0
vn 0 -1 0
vn -0.000009756097560141981 0 0.9999999999524094
vn 0 0 -1
vn 1 0 0
vn 0 0 1
vn 0 0 -1
vn 1 0 0
vn 8.333333333385033e-7 0 -0.9999999999996528
vn 0 0 -1
vn 0 0 -1
vn 0 0 -1
vn 0 0 -1
vn 0.999999999949999 0 -0.000010000100000121415
vn 0 -1 0
vn -1 0 0
vn 0 1 0
vn 0 1 0
vn 0 -1 0
vn 0.9999999999524094 0 0.000009756097560141968
vn -1 0 0
vn 0 0 -1
vn 1 0 0
vn -1 0 0
vn 0 0 -1
vn 8.333333335975554e-7 0 0.9999999999996528
vn 0 0 1
vn 0 -0.007889754426930752 0.9999688754031711
vn -0.00520042515760538 0 0.9999864776976639
vn 0 0 1
vn 0.999999999949999 0 0.00001000010000056554
vn 0 -1 0
vn -1 0 0
vn 0 1 0
vn 0 1 0
vn 0 -1 0
vn 0.9999999999524094 0 -0.000009756097560141981
vn -1 0 0
vn 0 0 1
vn -0.9997513868858693 0.001428496737543 0.022251377864119747
vn 0.9959147597609201 0 -0.09029834600007305
usemtl emplacement
f 4/1/1 2/2/1 1/3/1
f 4/1/1 1/3/1 3/4/1
f 7/5/2 5/6/2 6/7/2
f 7/5/2 6/7/2 8/8/2
f 1/9/3 2/10/3 6/11/3
f 1/9/3 6/11/3 5/12/3
f 4/13/4 3/14/4 7/15/4
f 4/13/4 7/15/4 8/16/4
f 3/17/5 1/18/5 5/19/5
f 3/17/5 5/19/5 7/20/5
f 8/21/6 6/22/6 2/23/6
f 8/21/6 2/23/6 4/24/6
f 12/25/7 10/26/7 9/27/7
f 12/25/7 9/27/7 11/28/7
f 15/29/8 13/30/8 14/31/8
f 15/29/8 14/31/8 16/32/8
f 9/33/9 10/34/9 14/35/9
f 9/33/9 14/35/9 13/36/9
f 12/37/10 11/38/10 15/39/10
f 12/37/10 15/39/10 16/40/10
f 11/41/11 9/42/11 13/43/11
f 11/41/11 13/43/11 15/44/11
f 16/45/12 14/46/12 10/47/12
f 16/45/12 10/47/12 12/48/12
f 17/49/13 18/50/13 20/51/13
f 17/49/13 20/51/13 19/52/13
f 22/53/14 21/54/14 23/55/14
f 22/53/14 23/55/14 24/56/14
f 22/57/15 18/58/15 17/59/15
f 22/57/15 17/59/15 21/60/15
f 23/61/16 19/62/16 20/63/16
f 23/61/16 20/63/16 24/64/16
f 21/65/17 17/66/17 19/67/17
f 21/65/17 19/67/17 23/68/17
f 18/69/18 22/70/18 24/71/18
f 18/69/18 24/71/18 20/72/18
f 25/73/19 26/74/19 28/75/19
f 25/73/19 28/75/19 27/76/19
f 30/77/20 29/78/20 31/79/20
f 30/77/20 31/79/20 32/80/20
f 30/81/21 26/82/21 25/83/21
f 30/81/21 25/83/21 29/84/21
f 31/85/22 27/86/22 28/87/22
f 31/85/22 28/87/22 32/88/22
f 29/89/23 25/90/23 27/91/23
f 29/89/23 27/91/23 31/92/23
f 26/93/24 30/94/24 32/95/24
f 26/93/24 32/95/24 28/96/24
usemtl common_rough_steel
f 45/97/25 46/98/25 33/99/25
f 45/97/25 33/99/25 44/100/25
f 47/101/26 48/102/26 43/103/26
f 47/101/26 43/103/26 37/104/26
usemtl emplacement
f 39/105/27 52/106/27 51/107/27
f 39/105/27 51/107/27 42/108/27
usemtl common_rough_steel
f 37/109/28 54/110/28 53/111/28
f 37/109/28 53/111/28 47/112/28
f 49/113/29 56/114/29 57/115/29
f 49/113/29 57/115/29 38/116/29
usemtl emplacement
f 42/117/30 51/118/30 55/119/30
f 42/117/30 55/119/30 40/120/30
usemtl common_rough_steel
f 48/121/31 49/122/31 38/123/31
f 48/121/31 38/123/31 43/124/31
f 50/125/32 45/126/32 44/127/32
f 50/125/32 44/127/32 34/128/32
f 46/129/33 45/130/33 41/131/33
f 46/129/33 41/131/33 35/132/33
f 47/133/34 53/134/34 52/135/34
f 47/133/34 52/135/34 39/136/34
f 48/137/35 47/138/35 39/139/35
f 48/137/35 39/139/35 42/140/35
f 49/141/36 48/142/36 42/143/36
f 49/141/36 42/143/36 40/144/36
f 40/145/37 55/146/37 56/147/37
f 40/145/37 56/147/37 49/148/37
f 45/149/38 50/150/38 36/151/38
f 45/149/38 36/151/38 41/152/38
usemtl emplacement
f 41/153/39 51/154/39 52/155/39
f 41/153/39 52/155/39 35/156/39
usemtl common_rough_steel
f 35/157/40 52/158/40 53/159/40
f 35/157/40 53/159/40 46/160/40
f 46/161/41 53/162/41 54/163/41
f 46/161/41 54/163/41 33/164/41
usemtl emplacement
f 36/165/42 55/166/42 51/167/42
f 36/165/42 51/167/42 41/168/42
usemtl common_rough_steel
f 50/169/43 56/170/43 55/171/43
f 50/169/43 55/171/43 36/172/43
f 34/173/44 57/174/44 56/175/44
f 34/173/44 56/175/44 50/176/44
usemtl emplacement
f 61/177/45 59/178/45 58/179/45
f 61/177/45 58/179/45 60/180/45
f 64/181/46 62/182/46 63/183/46
f 64/181/46 63/183/46 65/184/46
f 58/185/47 59/186/47 63/187/47
f 58/185/47 63/187/47 62/188/47
f 60/189/48 58/190/48 62/191/48
f 60/189/48 62/191/48 64/192/48
f 65/193/49 63/194/49 59/195/49
f 65/193/49 59/195/49 61/196/49
f 70/197/50 75/198/50 74/199/50
f 70/197/50 74/199/50 67/200/50
f 67/201/51 81/202/51 80/203/51
f 67/201/51 80/203/51 70/204/51
f 69/205/52 77/206/52 76/207/52
f 69/205/52 76/207/52 71/208/52
f 68/209/53 79/210/53 78/211/53
f 68/209/53 78/211/53 73/212/53
f 66/213/54 74/214/54 75/215/54
f 66/213/54 75/215/54 72/216/54
f 73/217/55 76/218/55 77/219/55
f 73/217/55 77/219/55 68/220/55
f 72/221/56 78/222/56 79/223/56
f 72/221/56 79/223/56 66/224/56
f 71/225/57 80/226/57 81/227/57
f 71/225/57 81/227/57 69/228/57
f 78/229/58 82/230/58 83/231/58
f 78/229/58 83/231/58 73/232/58
f 72/233/59 84/234/59 82/235/59
f 72/233/59 82/235/59 78/236/59
f 73/237/60 83/238/60 85/239/60
f 73/237/60 85/239/60 76/240/60
f 76/241/61 85/242/61 86/243/61
f 76/241/61 86/243/61 71/244/61
f 71/245/62 86/246/62 87/247/62
f 71/245/62 87/247/62 80/248/62
f 80/249/63 87/250/63 88/251/63
f 80/249/63 88/251/63 70/252/63
f 75/253/64 89/254/64 88/255/64
f 75/253/64 88/255/64 70/256/64
f 75/257/65 89/258/65 84/259/65
f 75/257/65 84/259/65 72/260/65
f 94/261/66 99/262/66 98/263/66
f 94/261/66 98/263/66 91/264/66
f 91/265/67 105/266/67 104/267/67
f 91/265/67 104/267/67 94/268/67
f 93/269/68 101/270/68 100/271/68
f 93/269/68 100/271/68 95/272/68
f 92/273/69 103/274/69 102/275/69
f 92/273/69 102/275/69 97/276/69
f 90/277/70 98/278/70 99/279/70
f 90/277/70 99/279/70 96/280/70
f 97/281/71 100/282/71 101/283/71
f 97/281/71 101/283/71 92/284/71
f 96/285/72 102/286/72 103/287/72
f 96/285/72 103/287/72 90/288/72
f 95/289/73 104/290/73 105/291/73
f 95/289/73 105/291/73 93/292/73
f 102/293/74 107/294/74 120/295/74
f 102/293/74 120/295/74 97/296/74
f 96/297/75 106/298/75 107/299/75
f 96/297/75 107/299/75 102/300/75
f 97/301/76 120/302/76 118/303/76
f 97/301/76 118/303/76 100/304/76
f 100/305/77 118/306/77 116/307/77
f 100/305/77 116/307/77 95/308/77
f 95/309/78 116/310/78 114/311/78
f 95/309/78 114/311/78 104/312/78
f 104/313/79 114/314/79 112/315/79
f 104/313/79 112/315/79 94/316/79
f 112/317/80 111/318/80 99/319/80
f 112/317/80 99/319/80 94/320/80
f 99/321/81 111/322/81 106/323/81
f 99/321/81 106/323/81 96/324/81
f 110/325/82 111/326/82 112/327/82
f 110/325/82 112/327/82 113/328/82
f 114/329/83 115/330/83 113/331/83
f 114/329/83 113/331/83 112/332/83
f 118/333/84 119/334/84 117/335/84
f 118/333/84 117/335/84 116/336/84
f 107/337/85 108/338/85 121/339/85
f 107/337/85 121/339/85 120/340/85
f 111/341/86 110/342/86 109/343/86
f 111/341/86 109/343/86 106/344/86
f 119/345/87 118/346/87 120/347/87
f 119/345/87 120/347/87 121/348/87
f 108/349/88 107/350/88 106/351/88
f 108/349/88 106/351/88 109/352/88
f 115/353/89 114/354/89 116/355/89
f 115/353/89 116/355/89 117/356/89
f 133/357/90 138/358/90 139/359/90
f 133/357/90 139/359/90 132/360/90
f 135/361/91 127/362/91 126/363/91
f 135/361/91 126/363/91 134/364/91
f 128/365/92 122/366/92 123/367/92
f 128/365/92 123/367/92 129/368/92
f 130/369/93 124/370/93 125/371/93
f 130/369/93 125/371/93 131/372/93
f 129/373/94 123/374/94 136/375/94
f 129/373/94 136/375/94 137/376/94
f 122/377/95 140/378/95 141/379/95
f 122/377/95 141/379/95 123/380/95
f 124/381/96 142/382/96 143/383/96
f 124/381/96 143/383/96 125/384/96
f 123/385/97 141/386/97 144/387/97
f 123/385/97 144/387/97 136/388/97
f 127/389/98 160/390/98 163/391/98
f 127/389/98 163/391/98 126/392/98
f 138/393/99 145/394/99 146/395/99
f 138/393/99 146/395/99 139/396/99
f 123/397/100 149/398/100 148/399/100
f 123/397/100 148/399/100 147/400/100
f 150/401/101 151/402/101 152/403/101
f 150/401/101 152/403/101 124/404/101
f 136/405/102 154/406/102 153/407/102
f 136/405/102 153/407/102 155/408/102
f 147/409/103 156/410/103 157/411/103
f 147/409/103 157/411/103 123/412/103
f 158/413/104 159/414/104 160/415/104
f 158/413/104 160/415/104 127/416/104
f 163/417/105 162/418/105 161/419/105
f 163/417/105 161/419/105 126/420/105
f 168/421/106 169/422/106 145/423/106
f 168/421/106 145/423/106 138/424/106
f 166/425/107 165/426/107 164/427/107
f 166/425/107 164/427/107 167/428/107
usemtl common_bottom
f 137/429/108 170/430/108 130/431/108
f 137/429/108 130/431/108 129/432/108
usemtl common_steel
f 174/433/109 173/434/109 172/435/109
f 174/433/109 172/435/109 175/436/109
f 179/437/110 177/438/110 137/439/110
f 179/437/110 137/439/110 155/440/110
f 178/441/111 179/442/111 155/443/111
f 178/441/111 155/443/111 168/444/111
f 176/445/112 178/446/112 168/447/112
f 176/445/112 168/447/112 133/448/112
f 177/449/113 176/450/113 133/451/113
f 177/449/113 133/451/113 137/452/113
f 173/453/114 174/454/114 177/455/114
f 173/453/114 177/455/114 179/456/114
f 172/457/115 173/458/115 179/459/115
f 172/457/115 179/459/115 178/460/115
f 175/461/116 172/462/116 178/463/116
f 175/461/116 178/463/116 176/464/116
f 174/465/117 175/466/117 176/467/117
f 174/465/117 176/467/117 177/468/117
usemtl common_thingies
f 180/469/118 181/470/118 184/471/118
f 180/469/118 184/471/118 185/472/118
f 182/473/119 183/474/119 186/475/119
f 182/473/119 186/475/119 187/476/119
f 183/477/120 180/478/120 185/479/120
f 183/477/120 185/479/120 186/480/120
f 187/481/121 184/482/121 181/483/121
f 187/481/121 181/483/121 182/484/121
f 182/485/122 181/486/122 180/487/122
f 182/485/122 180/487/122 183/488/122
usemtl common_steel
f 190/489/123 189/490/123 188/491/123
f 190/489/123 188/491/123 191/492/123
f 195/493/124 193/494/124 134/495/124
f 195/493/124 134/495/124 161/496/124
f 194/497/125 195/498/125 161/499/125
f 194/497/125 161/499/125 150/500/125
f 192/501/126 194/502/126 150/503/126
f 192/501/126 150/503/126 130/504/126
f 193/505/127 192/506/127 130/507/127
f 193/505/127 130/507/127 134/508/127
f 189/509/128 190/510/128 193/511/128
f 189/509/128 193/511/128 195/512/128
f 188/513/129 189/514/129 195/515/129
f 188/513/129 195/515/129 194/516/129
f 191/517/130 188/518/130 194/519/130
f 191/517/130 194/519/130 192/520/130
f 190/521/131 191/522/131 192/523/131
f 190/521/131 192/523/131 193/524/131
usemtl common_thingies
f 196/525/132 197/526/132 200/527/132
f 196/525/132 200/527/132 201/528/132
f 198/529/133 199/530/133 202/531/133
f 198/529/133 202/531/133 203/532/133
f 199/533/134 196/534/134 201/535/134
f 199/533/134 201/535/134 202/536/134
f 203/537/135 200/538/135 197/539/135
f 203/537/135 197/539/135 198/540/135
f 206/541/136 205/542/136 204/543/136
f 206/541/136 204/543/136 207/544/136
f 207/545/137 204/546/137 208/547/137
f 207/545/137 208/547/137 209/548/137
f 171/549/138 210/550/138 205/551/138
f 171/549/138 205/551/138 206/552/138
f 198/553/139 197/554/139 196/555/139
f 198/553/139 196/555/139 199/556/139
usemtl common_steel
f 213/557/140 212/558/140 211/559/140
f 213/557/140 211/559/140 214/560/140
f 218/561/141 216/562/141 170/563/141
f 218/561/141 170/563/141 219/564/141
f 217/565/142 218/566/142 219/567/142
f 217/565/142 219/567/142 158/568/142
f 215/569/143 217/570/143 158/571/143
f 215/569/143 158/571/143 135/572/143
f 216/573/144 215/574/144 135/575/144
f 216/573/144 135/575/144 170/576/144
f 212/577/145 213/578/145 216/579/145
f 212/577/145 216/579/145 218/580/145
f 211/581/146 212/582/146 218/583/146
f 211/581/146 218/583/146 217/584/146
f 214/585/147 211/586/147 217/587/147
f 214/585/147 217/587/147 215/588/147
f 213/589/148 214/590/148 215/591/148
f 213/589/148 215/591/148 216/592/148
usemtl common_thingies
f 220/593/149 221/594/149 224/595/149
f 220/593/149 224/595/149 225/596/149
f 222/597/150 223/598/150 226/599/150
f 222/597/150 226/599/150 227/600/150
f 223/601/151 220/602/151 225/603/151
f 223/601/151 225/603/151 226/604/151
f 227/605/152 224/606/152 221/607/152
f 227/605/152 221/607/152 222/608/152
f 230/609/153 229/610/153 228/611/153
f 230/609/153 228/611/153 231/612/153
f 231/613/154 228/614/154 232/615/154
f 231/613/154 232/615/154 233/616/154
f 235/617/155 234/618/155 229/619/155
f 235/617/155 229/619/155 230/620/155
f 222/621/156 221/622/156 220/623/156
f 222/621/156 220/623/156 223/624/156
usemtl common_steel
f 238/625/157 237/626/157 236/627/157
f 238/625/157 236/627/157 239/628/157
f 243/629/158 241/630/158 132/631/158
f 243/629/158 132/631/158 244/632/158
f 242/633/159 243/634/159 244/635/159
f 242/633/159 244/635/159 219/636/159
f 240/637/160 242/638/160 219/639/160
f 240/637/160 219/639/160 170/640/160
f 241/641/161 240/642/161 170/643/161
f 241/641/161 170/643/161 132/644/161
f 237/645/162 238/646/162 241/647/162
f 237/645/162 241/647/162 243/648/162
f 236/649/163 237/650/163 243/651/163
f 236/649/163 243/651/163 242/652/163
f 239/653/164 236/654/164 242/655/164
f 239/653/164 242/655/164 240/656/164
f 238/657/165 239/658/165 240/659/165
f 238/657/165 240/659/165 241/660/165
usemtl common_thingies
f 245/661/166 246/662/166 249/663/166
f 245/661/166 249/663/166 250/664/166
f 247/665/167 248/666/167 251/667/167
f 247/665/167 251/667/167 252/668/167
f 248/669/168 245/670/168 250/671/168
f 248/669/168 250/671/168 251/672/168
f 252/673/169 249/674/169 246/675/169
f 252/673/169 246/675/169 247/676/169
f 255/677/170 254/678/170 253/679/170
f 255/677/170 253/679/170 256/680/170
f 256/681/171 253/682/171 257/683/171
f 256/681/171 257/683/171 258/684/171
f 260/685/172 259/686/172 254/687/172
f 260/685/172 254/687/172 255/688/172
f 247/689/173 246/690/173 245/691/173
f 247/689/173 245/691/173 248/692/173
usemtl common_steel
f 261/693/174 262/694/174 263/695/174
f 261/693/174 263/695/174 264/696/174
f 128/697/175 266/698/175 269/699/175
f 128/697/175 269/699/175 270/700/175
f 270/701/176 269/702/176 267/703/176
f 270/701/176 267/703/176 268/704/176
f 268/705/177 267/706/177 265/707/177
f 268/705/177 265/707/177 131/708/177
f 131/709/178 265/710/178 266/711/178
f 131/709/178 266/711/178 128/712/178
f 266/713/179 263/714/179 262/715/179
f 266/713/179 262/715/179 269/716/179
f 269/717/180 262/718/180 261/719/180
f 269/717/180 261/719/180 267/720/180
f 267/721/181 261/722/181 264/723/181
f 267/721/181 264/723/181 265/724/181
f 265/725/182 264/726/182 263/727/182
f 265/725/182 263/727/182 266/728/182
usemtl common_thingies
f 275/729/183 272/730/183 271/731/183
f 275/729/183 271/731/183 276/732/183
f 277/733/184 274/734/184 273/735/184
f 277/733/184 273/735/184 278/736/184
f 276/737/185 271/738/185 274/739/185
f 276/737/185 274/739/185 277/740/185
f 272/741/186 275/742/186 278/743/186
f 272/741/186 278/743/186 273/744/186
f 271/745/187 272/746/187 273/747/187
f 271/745/187 273/747/187 274/748/187
usemtl emplacement
f 122/749/188 270/750/188 280/751/188
f 122/749/188 280/751/188 140/752/188
f 279/753/189 268/754/189 125/755/189
f 279/753/189 125/755/189 143/756/189
o variant_sandbags
v 2 -3 3
v 2 -3 0
v 2 -0.125 3
v 2 -0.125 0
v -1 -3 3
v -1 -3 0
v -1 -0.125 3
v -1 -0.125 0
v -0.7450000000000001 -0.125 2.745
v 1.745 -0.125 2.745
v 1.745 -0.125 0.2549999999999999
v -0.7450000000000001 -0.125 0.2549999999999999
v 0 -3 3
v 1 -3 3
v 1 -3 0
v 0 -3 0
v 2 -3 2
v 2 -3 1
v 0 -3.5 2.9375
v -1 -3.5 2.9375
v 2 -3.5 2.9375
v 1 -3.5 2.9375
v 1.9375 -3.5 2
v 1.9375 -3.5 1
v 1 -3.5 0.0625
v 0 -3.5 0.0625
v -0.9375 -3.5 3
v -0.9375 -3.5 0
v -0.65799125 1.125 2.7255281250000003
v -0.8125 1.125 2.25
v -0.65799125 0.875 2.7255281250000003
v -0.8125 0.875 2.25
v -0.895755625 1.125 2.8027825
v -1.050264375 1.125 2.327254375
v -0.895755625 0.875 2.8027825
v -1.050264375 0.875 2.327254375
v -0.75 1.125 1.875
v -0.75 1.125 0.875
v -0.75 0.875 1.875
v -0.75 0.875 0.875
v -1 1.125 1.875
v -1 1.125 0.875
v -1 0.875 1.875
v -1 0.875 0.875
v -0.81958625 1.125 0.87013375
v -0.75 1.125 0.375
v -0.81958625 0.875 0.87013375
v -0.75 0.875 0.375
v -1.06715375 1.125 0.835340625
v -0.997566875 1.125 0.340206875
v -1.06715375 0.875 0.835340625
v -0.997566875 0.875 0.340206875
v 1.7804675 1.125 2.93563625
v 1.75 1.125 2.6875
v 1.7804675 0.875 2.93563625
v 1.75 0.875 2.6875
v 1.284194375 1.125 2.9965712499999997
v 1.253726875 1.125 2.748434375
v 1.284194375 0.875 2.9965712499999997
v 1.253726875 0.875 2.748434375
v 1.75 0.125 3.0625
v 1.75 0.125 3
v 1.75 -0.125 3.0625
v 1.75 -0.125 3
v 1.25 0.125 3.0625
v 1.25 0.125 3
v 1.25 -0.125 3.0625
v 1.25 -0.125 3
v 1.5 0.625 3.0625
v 1.5 0.625 3
v 1.5 0.375 3.0625
v 1.5 0.375 3
v 0.5 0.625 3.0625
v 0.5 0.625 3
v 0.5 0.375 3.0625
v 0.5 0.375 3
v 0.9375 0.375 3.0625
v 0.9375 0.375 3
v 0.9375 0.125 3.0625
v 0.9375 0.125 3
v -0.0625 0.375 3.0625
v -0.0625 0.375 3
v -0.0625 0.125 3.0625
v -0.0625 0.125 3
v -0.0625 -0.125 3.0625
v -0.0625 -0.125 3
v -0.5625 0.125 3.0625
v -0.5625 0.125 3
v -0.5625 -0.125 3.0625
v -0.5625 -0.125 3
v -0.5 0.625 3.0625
v -0.5 0.625 3
v -0.5 0.375 3.0625
v -0.5 0.375 3
v -1 0.625 3.0625
v -1 0.625 3
v -1 0.375 3.0625
v -1 0.375 3
v 1.75 0.875 3
v 1.75 0.875 2.75
v -0.75 0.875 3
v -0.75 0.875 2.75
v -0.75 -0.125 3
v 0.5 0.8687499999999999 3.0625
v 0.5 0.8687499999999999 3
v 0.5 0.6187499999999999 3.0625
v 0.5 0.6187499999999999 3
v -0.5 0.8687499999999999 3.0625
v -0.5 0.8687499999999999 3
v -0.5 0.6187499999999999 3.0625
v -0.5 0.6187499999999999 3
v -0.27178875 1.125 3.06154875
v -0.25 1.125 2.8125
v -0.27178875 0.875 3.06154875
v -0.25 0.875 2.8125
v -0.7698862500000001 1.125 3.0179706250000002
v -0.7480975000000001 1.125 2.768921875
v -0.7698862500000001 0.875 3.0179706250000002
v -0.7480975000000001 0.875 2.768921875
v 2 1.125 2.6875
v 2 1.125 1.6875
v 2 0.875 2.6875
v 2 0.875 1.6875
v 1.75 1.125 1.6875
v 1.75 0.875 1.6875
v 2.034878125 1.125 1.248781875
v 2 1.125 0.75
v 2.034878125 0.875 1.248781875
v 2 0.875 0.75
v 1.7854875 1.125 1.26622125
v 1.75060875 1.125 0.767439375
v 1.7854875 0.875 1.26622125
v 1.75060875 0.875 0.767439375
v 2.0625 0.125 0.5
v 2 0.125 0.5
v 2.0625 -0.125 0.5
v 2 -0.125 0.5
v 2.0625 0.125 1.5
v 2 0.125 1.5
v 2.0625 -0.125 1.5
v 2 -0.125 1.5
v 2.0625 0.875 2.5
v 2.0625 0.875 2
v 2.0625 0.625 2.5
v 2.0625 0.625 2
v 2 0.875 2.5
v 2 0.875 2
v 2 0.625 2.5
v 2 0.625 2
v 2.0625 0.375 3
v 2.0625 0.375 2.5
v 2.0625 0.125 3
v 2.0625 0.125 2.5
v 2 0.375 3
v 2 0.375 2.5
v 2 0.125 3
v 2 0.125 2.5
v 2 0.875 3
v 2 0.875 0
v 2 -0.125 3
v 2 -0.125 0
v 1.75 0.875 0
v 1.75 -0.125 0
v 2.0625 0.125 2
v 2.0625 -0.125 2.5
v 2.0625 -0.125 2
v 2 0.125 2
v 2 -0.125 2.5
v 2 -0.125 2
v 2.0625 0.375 1
v 2 0.375 1
v 2.0625 0.125 1
v 2 0.125 1
v 2.0625 0.375 2
v 2 0.375 2
v 2.0625 0.625 0.5
v 2 0.625 0.5
v 2.0625 0.375 0.5
v 2 0.375 0.5
v 2.0625 0.625 1.5
v 2 0.625 1.5
v 2.0625 0.375 1.5
v 2 0.375 1.5
v 1.75 0.875 -0.0625
v 1.75 0.625 0
v 1.75 0.625 -0.0625
v 1.25 0.875 0
v 1.25 0.875 -0.0625
v 1.25 0.625 0
v 1.25 0.625 -0.0625
v 1.75 0.125 0
v 1.75 0.125 -0.0625
v 1.75 -0.125 -0.0625
v 1.25 0.125 0
v 1.25 0.125 -0.0625
v 1.25 -0.125 0
v 1.25 -0.125 -0.0625
v 0.6875 0.125 0
v 0.6875 0.125 -0.0625
v 0.6875 -0.125 0
v 0.6875 -0.125 -0.0625
v 0.1875 0.125 0
v 0.1875 0.125 -0.0625
v 0.1875 -0.125 0
v 0.1875 -0.125 -0.0625
v 1.4375 0.375 0
v 1.4375 0.375 -0.0625
v 1.4375 0.125 0
v 1.4375 0.125 -0.0625
v 0.4375 0.375 0
v 0.4375 0.375 -0.0625
v 0.4375 0.125 0
v 0.4375 0.125 -0.0625
v 0.75 0.625 0
v 0.75 0.625 -0.0625
v 0.75 0.375 0
v 0.75 0.375 -0.0625
v -0.25 0.625 0
v -0.25 0.625 -0.0625
v -0.25 0.375 0
v -0.25 0.375 -0.0625
v -0.5 0.875 0
v -0.5 0.875 -0.0625
v -0.5 0.625 0
v -0.5 0.625 -0.0625
v -1 0.875 0
v -1 0.875 -0.0625
v -1 0.625 0
v -1 0.625 -0.0625
v 1.75 0.875 0.25
v -0.75 0.875 0.25
v -0.75 0.875 0
v -0.75 -0.125 0
v -0.25 0.125 0
v -0.25 0.125 -0.0625
v -0.75 0.375 0
v -0.75 0.375 -0.0625
v -0.75 0.125 0
v -0.75 0.125 -0.0625
v -1 0.125 2.375
v -1 0.125 1.875
v -1 -0.125 2.375
v -1 -0.125 1.875
v -1.0625 0.125 2.375
v -1.0625 0.125 1.875
v -1.0625 -0.125 2.375
v -1.0625 -0.125 1.875
v -1 0.625 2.75
v -1 0.625 2.25
v -1 0.375 2.75
v -1 0.375 2.25
v -1.0625 0.625 2.75
v -1.0625 0.625 2.25
v -1.0625 0.375 2.75
v -1.0625 0.375 2.25
v -1 0.625 0.875
v -1.0625 0.625 0.875
v -1 0.375 0.875
v -1.0625 0.375 0.875
v -1 0.625 1.875
v -1.0625 0.625 1.875
v -1 0.375 1.875
v -1.0625 0.375 1.875
v -0.98255 0.375 1.124695625
v -1 0.375 0.625
v -0.98255 0.125 1.124695625
v -1 0.125 0.625
v -1.045011875 0.375 1.126876875
v -1.062461875 0.375 0.62718125
v -1.045011875 0.125 1.126876875
v -1.062461875 0.125 0.62718125
v -1 0.625 0.5
v -1 0.375 0.5
v -1 0.375 0
v -1.0625 0.625 0.5
v -1.0625 0.625 0
v -1.0625 0.375 0.5
v -1.0625 0.375 0
v -1 0.875 3
v -1 -0.125 3
v -1 -0.125 0
v -0.20928875000000002 1.125 0.24904875000000004
v -0.1875 1.125 0
v -0.20928875000000002 0.875 0.24904875000000004
v -0.1875 0.875 0
v -0.5206 1.125 0.22181249999999997
v -0.49881062499999995 1.125 -0.027236250000000073
v -0.5206 0.875 0.22181249999999997
v -0.49881062499999995 0.875 -0.027236250000000073
v 1.78770875 1.125 0.62132875
v 2.0335225 1.125 0.575769375
v 1.69659125 1.125 0.1297012500000001
v 1.942405 1.125 0.08414250000000001
v 1.78770875 0.875 0.62132875
v 1.69659125 0.875 0.1297012500000001
v 1.942405 0.875 0.08414250000000001
v 2.0335225 0.875 0.575769375
v 1.1984287500000002 1.125 0.19162687500000009
v 1.69652625 1.125 0.2352043749999999
v 1.2202181250000002 1.125 -0.057421874999999956
v 1.718315 1.125 -0.013844374999999909
v 1.1984287500000002 0.875 0.19162687500000009
v 1.2202181250000002 0.875 -0.057421874999999956
v 1.718315 0.875 -0.013844374999999909
v 1.69652625 0.875 0.2352043749999999
vt 0.000000 0.000000
vt 0.750000 0.000000
vt 0.750000 0.718750
vt 0.000000 0.718750
vt 0.000000 0.000000
vt 0.750000 0.000000
vt 0.750000 0.718750
vt 0.000000 0.718750
vt 0.000000 0.000000
vt 0.750000 0.000000
vt 0.750000 0.718750
vt 0.000000 0.718750
vt 0.000000 0.000000
vt 0.750000 0.000000
vt 0.750000 0.718750
vt 0.000000 0.718750
vt 0.686250 0.750000
vt 0.063750 0.750000
vt 0.000000 0.686250
vt 0.750000 0.686250
vt 0.063750 0.686250
vt 0.686250 0.686250
vt 0.750000 0.750000
vt 0.000000 0.750000
vt 0.063750 0.686250
vt 0.686250 0.686250
vt 0.750000 0.750000
vt 0.000000 0.750000
vt 0.686250 0.750000
vt 0.063750 0.750000
vt 0.000000 0.686250
vt 0.750000 0.686250
vt 0.000000 0.000000
vt 0.000000 0.125000
vt 0.250000 0.125000
vt 0.250000 0.000000
vt 0.000000 0.000000
vt 0.000000 0.125000
vt 0.250000 0.125000
vt 0.250000 0.000000
vt 0.250000 0.000000
vt 0.250000 0.125000
vt 0.000000 0.125000
vt 0.000000 0.000000
vt 0.250000 0.000000
vt 0.250000 0.125000
vt 0.000000 0.125000
vt 0.000000 0.000000
vt 0.000000 0.000000
vt 0.000000 0.125000
vt 0.750000 0.125000
vt 0.750000 0.000000
vt 0.390625 0.937500
vt 0.390625 1.000000
vt 0.265625 1.000000
vt 0.265625 0.937500
vt 0.468750 0.937500
vt 0.468750 1.000000
vt 0.343750 1.000000
vt 0.343750 0.937500
vt 0.125000 0.937500
vt 0.000000 0.937500
vt 0.000000 0.875000
vt 0.125000 0.875000
vt 0.390625 0.812500
vt 0.390625 0.875000
vt 0.328125 0.875000
vt 0.328125 0.812500
vt 0.062500 0.875000
vt 0.062500 0.937500
vt 0.000000 0.937500
vt 0.000000 0.875000
vt 0.593750 0.937500
vt 0.593750 1.000000
vt 0.343750 1.000000
vt 0.343750 0.937500
vt 0.562500 0.937500
vt 0.562500 1.000000
vt 0.312500 1.000000
vt 0.312500 0.937500
vt 0.578125 1.000000
vt 0.328125 1.000000
vt 0.328125 0.937500
vt 0.578125 0.937500
vt 0.531250 0.937500
vt 0.531250 1.000000
vt 0.468750 1.000000
vt 0.468750 0.937500
vt 0.062500 0.937500
vt 0.062500 1.000000
vt 0.000000 1.000000
vt 0.000000 0.937500
vt 0.500000 0.937500
vt 0.500000 1.000000
vt 0.375000 1.000000
vt 0.375000 0.937500
vt 0.421875 0.812500
vt 0.421875 0.875000
vt 0.296875 0.875000
vt 0.296875 0.812500
vt 0.500000 1.000000
vt 0.375000 1.000000
vt 0.375000 0.937500
vt 0.500000 0.937500
vt 0.453125 0.812500
vt 0.453125 0.875000
vt 0.390625 0.875000
vt 0.390625 0.812500
vt 0.375000 0.937500
vt 0.375000 1.000000
vt 0.312500 1.000000
vt 0.312500 0.937500
vt 0.421875 0.812500
vt 0.421875 0.875000
vt 0.359375 0.875000
vt 0.359375 0.812500
vt 0.515625 0.812500
vt 0.515625 0.875000
vt 0.453125 0.875000
vt 0.453125 0.812500
vt 0.531250 0.812500
vt 0.531250 0.875000
vt 0.406250 0.875000
vt 0.406250 0.812500
vt 0.484375 0.812500
vt 0.484375 0.875000
vt 0.359375 0.875000
vt 0.359375 0.812500
vt 0.406250 0.937500
vt 0.406250 1.000000
vt 0.281250 1.000000
vt 0.281250 0.937500
vt 0.343750 0.796875
vt 0.343750 0.859375
vt 0.328125 0.859375
vt 0.328125 0.796875
vt 0.312500 0.828125
vt 0.312500 0.890625
vt 0.296875 0.890625
vt 0.296875 0.828125
vt 0.390625 0.875000
vt 0.390625 0.890625
vt 0.265625 0.890625
vt 0.265625 0.875000
vt 0.406250 0.859375
vt 0.406250 0.875000
vt 0.281250 0.875000
vt 0.281250 0.859375
vt 0.703125 0.812500
vt 0.703125 0.875000
vt 0.578125 0.875000
vt 0.578125 0.812500
vt 0.312500 0.843750
vt 0.312500 0.906250
vt 0.296875 0.906250
vt 0.296875 0.843750
vt 0.328125 0.859375
vt 0.328125 0.921875
vt 0.312500 0.921875
vt 0.312500 0.859375
vt 0.593750 0.843750
vt 0.593750 0.859375
vt 0.343750 0.859375
vt 0.343750 0.843750
vt 0.593750 0.859375
vt 0.593750 0.875000
vt 0.343750 0.875000
vt 0.343750 0.859375
vt 0.468750 0.812500
vt 0.468750 0.875000
vt 0.218750 0.875000
vt 0.218750 0.812500
vt 0.343750 0.828125
vt 0.343750 0.859375
vt 0.328125 0.859375
vt 0.328125 0.828125
vt 0.312500 0.828125
vt 0.312500 0.859375
vt 0.296875 0.859375
vt 0.296875 0.828125
vt 0.343750 0.859375
vt 0.343750 0.875000
vt 0.250000 0.875000
vt 0.250000 0.859375
vt 0.343750 0.843750
vt 0.343750 0.859375
vt 0.250000 0.859375
vt 0.250000 0.843750
vt 0.484375 0.812500
vt 0.484375 0.875000
vt 0.234375 0.875000
vt 0.234375 0.812500
vt 0.296875 0.796875
vt 0.250000 0.796875
vt 0.250000 0.781250
vt 0.296875 0.781250
vt 0.250000 0.781250
vt 0.250000 0.812500
vt 0.234375 0.812500
vt 0.234375 0.781250
vt 0.296875 0.796875
vt 0.296875 0.812500
vt 0.250000 0.812500
vt 0.250000 0.796875
vt 0.296875 0.796875
vt 0.296875 0.812500
vt 0.234375 0.812500
vt 0.234375 0.796875
vt 0.343750 0.750000
vt 0.343750 0.812500
vt 0.218750 0.812500
vt 0.218750 0.750000
vt 0.437500 0.843750
vt 0.484375 0.843750
vt 0.484375 0.859375
vt 0.437500 0.859375
vt 0.437500 0.828125
vt 0.437500 0.859375
vt 0.421875 0.859375
vt 0.421875 0.828125
vt 0.484375 0.875000
vt 0.484375 0.859375
vt 0.406250 0.859375
vt 0.406250 0.875000
vt 0.484375 0.843750
vt 0.484375 0.859375
vt 0.406250 0.859375
vt 0.406250 0.843750
vt 0.515625 0.812500
vt 0.515625 0.875000
vt 0.390625 0.875000
vt 0.390625 0.812500
vt 0.640625 0.828125
vt 0.640625 0.890625
vt 0.015625 0.890625
vt 0.015625 0.828125
vt 0.687500 0.750000
vt 0.687500 1.000000
vt 0.062500 1.000000
vt 0.062500 0.750000
vt 0.453125 0.812500
vt 0.453125 0.843750
vt 0.437500 0.843750
vt 0.437500 0.812500
vt 0.343750 0.812500
vt 0.343750 0.843750
vt 0.343750 0.843750
vt 0.343750 0.812500
vt 0.453125 0.828125
vt 0.453125 0.843750
vt 0.343750 0.843750
vt 0.343750 0.828125
vt 0.453125 0.812500
vt 0.453125 0.828125
vt 0.343750 0.828125
vt 0.343750 0.812500
vt 0.531250 0.812500
vt 0.531250 0.875000
vt 0.281250 0.875000
vt 0.281250 0.812500
vt 1.000000 1.000000
vt 1.000000 1.000000
vt 1.000000 1.000000
vt 1.000000 1.000000
vt 0.437500 0.812500
vt 0.437500 0.875000
vt 0.375000 0.875000
vt 0.375000 0.812500
vt 0.390625 0.812500
vt 0.390625 0.875000
vt 0.328125 0.875000
vt 0.328125 0.812500
vt 0.343750 0.812500
vt 0.343750 0.875000
vt 0.218750 0.875000
vt 0.218750 0.812500
vt 0.421875 0.812500
vt 0.421875 0.875000
vt 0.296875 0.875000
vt 0.296875 0.812500
vt 0.421875 0.937500
vt 0.421875 1.000000
vt 0.296875 1.000000
vt 0.296875 0.937500
vt 0.500000 0.937500
vt 0.500000 1.000000
vt 0.250000 1.000000
vt 0.250000 0.937500
vt 0.531250 0.937500
vt 0.531250 1.000000
vt 0.281250 1.000000
vt 0.281250 0.937500
vt 0.562500 1.000000
vt 0.312500 1.000000
vt 0.312500 0.937500
vt 0.562500 0.937500
vt 0.421875 0.937500
vt 0.421875 1.000000
vt 0.359375 1.000000
vt 0.359375 0.937500
vt 0.500000 0.937500
vt 0.500000 1.000000
vt 0.437500 1.000000
vt 0.437500 0.937500
vt 0.484375 0.937500
vt 0.484375 1.000000
vt 0.359375 1.000000
vt 0.359375 0.937500
vt 0.406250 0.937500
vt 0.406250 1.000000
vt 0.281250 1.000000
vt 0.281250 0.937500
vt 0.343750 0.937500
vt 0.468750 0.937500
vt 0.468750 1.000000
vt 0.343750 1.000000
vt 0.296875 0.937500
vt 0.296875 1.000000
vt 0.234375 1.000000
vt 0.234375 0.937500
vt 0.140625 0.875000
vt 0.140625 0.937500
vt 0.078125 0.937500
vt 0.078125 0.875000
vt 0.484375 0.812500
vt 0.484375 0.875000
vt 0.468750 0.875000
vt 0.468750 0.812500
vt 0.312500 0.875000
vt 0.312500 0.937500
vt 0.296875 0.937500
vt 0.296875 0.875000
vt 0.484375 0.906250
vt 0.484375 0.921875
vt 0.234375 0.921875
vt 0.234375 0.906250
vt 0.484375 0.890625
vt 0.484375 0.906250
vt 0.234375 0.906250
vt 0.234375 0.890625
vt 0.562500 0.750000
vt 0.562500 0.812500
vt 0.312500 0.812500
vt 0.312500 0.750000
vt 0.265625 0.937500
vt 0.265625 1.000000
vt 0.140625 1.000000
vt 0.140625 0.937500
vt 0.468750 0.765625
vt 0.468750 0.890625
vt 0.453125 0.890625
vt 0.453125 0.765625
vt 0.453125 0.765625
vt 0.453125 0.890625
vt 0.437500 0.890625
vt 0.437500 0.765625
vt 0.546875 0.796875
vt 0.546875 0.859375
vt 0.531250 0.859375
vt 0.531250 0.796875
vt 0.390625 0.796875
vt 0.390625 0.859375
vt 0.375000 0.859375
vt 0.375000 0.796875
vt 0.125000 0.812500
vt 0.125000 0.875000
vt 0.000000 0.875000
vt 0.000000 0.812500
vt 0.375000 0.796875
vt 0.375000 0.921875
vt 0.359375 0.921875
vt 0.359375 0.796875
vt 0.328125 0.796875
vt 0.328125 0.921875
vt 0.312500 0.921875
vt 0.312500 0.796875
vt 0.406250 0.812500
vt 0.406250 0.875000
vt 0.390625 0.875000
vt 0.390625 0.812500
vt 0.437500 0.828125
vt 0.437500 0.890625
vt 0.421875 0.890625
vt 0.421875 0.828125
vt 0.750000 0.750000
vt 0.750000 1.000000
vt 0.000000 1.000000
vt 0.000000 0.750000
vt 0.750000 1.000000
vt 0.000000 1.000000
vt 0.000000 0.937500
vt 0.750000 0.937500
vt 0.750000 0.750000
vt 0.750000 1.000000
vt 0.687500 1.000000
vt 0.687500 0.750000
vt 0.062500 0.750000
vt 0.062500 1.000000
vt 0.000000 1.000000
vt 0.000000 0.750000
vt 0.328125 0.750000
vt 0.328125 0.812500
vt 0.203125 0.812500
vt 0.203125 0.750000
vt 0.406250 0.812500
vt 0.406250 0.937500
vt 0.390625 0.937500
vt 0.390625 0.812500
vt 0.468750 0.812500
vt 0.468750 0.937500
vt 0.453125 0.937500
vt 0.453125 0.812500
vt 0.453125 0.843750
vt 0.453125 0.906250
vt 0.437500 0.906250
vt 0.437500 0.843750
vt 0.468750 0.843750
vt 0.468750 0.906250
vt 0.453125 0.906250
vt 0.453125 0.843750
vt 0.500000 0.781250
vt 0.500000 0.843750
vt 0.484375 0.843750
vt 0.484375 0.781250
vt 0.390625 0.781250
vt 0.390625 0.843750
vt 0.375000 0.843750
vt 0.375000 0.781250
vt 0.546875 0.828125
vt 0.546875 0.843750
vt 0.296875 0.843750
vt 0.296875 0.828125
vt 0.578125 0.828125
vt 0.578125 0.843750
vt 0.328125 0.843750
vt 0.328125 0.828125
vt 0.359375 0.921875
vt 0.359375 0.984375
vt 0.109375 0.984375
vt 0.109375 0.921875
vt 0.343750 0.796875
vt 0.343750 0.859375
vt 0.328125 0.859375
vt 0.328125 0.796875
vt 0.453125 0.796875
vt 0.453125 0.859375
vt 0.437500 0.859375
vt 0.437500 0.796875
vt 0.531250 0.828125
vt 0.531250 0.843750
vt 0.281250 0.843750
vt 0.281250 0.828125
vt 0.515625 0.812500
vt 0.515625 0.828125
vt 0.265625 0.828125
vt 0.265625 0.812500
vt 0.578125 0.875000
vt 0.578125 0.937500
vt 0.328125 0.937500
vt 0.328125 0.875000
vt 0.281250 0.843750
vt 0.281250 0.875000
vt 0.296875 0.875000
vt 0.296875 0.843750
vt 0.234375 0.843750
vt 0.234375 0.875000
vt 0.250000 0.875000
vt 0.250000 0.843750
vt 0.296875 0.875000
vt 0.296875 0.859375
vt 0.234375 0.859375
vt 0.234375 0.875000
vt 0.296875 0.843750
vt 0.296875 0.859375
vt 0.234375 0.859375
vt 0.234375 0.843750
vt 0.375000 0.812500
vt 0.375000 0.875000
vt 0.250000 0.875000
vt 0.250000 0.812500
vt 0.453125 0.750000
vt 0.453125 0.781250
vt 0.437500 0.781250
vt 0.437500 0.750000
vt 0.500000 0.750000
vt 0.500000 0.781250
vt 0.484375 0.781250
vt 0.484375 0.750000
vt 0.515625 0.765625
vt 0.515625 0.781250
vt 0.453125 0.781250
vt 0.453125 0.765625
vt 0.484375 0.765625
vt 0.484375 0.781250
vt 0.421875 0.781250
vt 0.421875 0.765625
vt 0.343750 0.750000
vt 0.343750 0.812500
vt 0.218750 0.812500
vt 0.218750 0.750000
vt 0.375000 0.796875
vt 0.375000 0.843750
vt 0.359375 0.843750
vt 0.359375 0.796875
vt 0.343750 0.796875
vt 0.343750 0.843750
vt 0.328125 0.843750
vt 0.328125 0.796875
vt 0.390625 0.828125
vt 0.390625 0.843750
vt 0.343750 0.843750
vt 0.343750 0.828125
vt 0.390625 0.812500
vt 0.390625 0.828125
vt 0.328125 0.828125
vt 0.328125 0.812500
vt 0.500000 0.875000
vt 0.500000 0.937500
vt 0.375000 0.937500
vt 0.375000 0.875000
vt 0.593750 0.843750
vt 0.593750 0.859375
vt 0.578125 0.859375
vt 0.578125 0.843750
vt 0.531250 0.843750
vt 0.531250 0.875000
vt 0.515625 0.875000
vt 0.515625 0.843750
vt 0.593750 0.859375
vt 0.593750 0.875000
vt 0.515625 0.875000
vt 0.515625 0.859375
vt 0.593750 0.843750
vt 0.593750 0.859375
vt 0.515625 0.859375
vt 0.515625 0.843750
vt 0.687500 0.812500
vt 0.687500 0.875000
vt 0.437500 0.875000
vt 0.437500 0.812500
vt 0.343750 0.812500
vt 0.343750 0.843750
vt 0.328125 0.843750
vt 0.328125 0.812500
vt 0.437500 0.812500
vt 0.437500 0.843750
vt 0.421875 0.843750
vt 0.421875 0.812500
vt 0.437500 0.828125
vt 0.437500 0.843750
vt 0.328125 0.843750
vt 0.328125 0.828125
vt 0.437500 0.828125
vt 0.437500 0.828125
vt 0.328125 0.828125
vt 0.328125 0.828125
vt 0.484375 0.937500
vt 0.484375 1.000000
vt 0.234375 1.000000
vt 0.234375 0.937500
vt 0.453125 0.781250
vt 0.453125 0.812500
vt 0.437500 0.812500
vt 0.437500 0.781250
vt 0.421875 0.781250
vt 0.421875 0.812500
vt 0.437500 0.812500
vt 0.437500 0.781250
vt 0.484375 0.812500
vt 0.484375 0.796875
vt 0.421875 0.796875
vt 0.421875 0.812500
vt 0.484375 0.781250
vt 0.484375 0.796875
vt 0.421875 0.796875
vt 0.421875 0.781250
vt 0.562500 0.812500
vt 0.562500 0.875000
vt 0.437500 0.875000
vt 0.437500 0.812500
vt 0.687500 0.812500
vt 0.687500 0.875000
vt 0.062500 0.875000
vt 0.062500 0.812500
vt 0.687500 0.750000
vt 0.687500 1.000000
vt 0.062500 1.000000
vt 0.062500 0.750000
vt 0.531250 0.843750
vt 0.531250 0.875000
vt 0.515625 0.875000
vt 0.515625 0.843750
vt 0.515625 0.843750
vt 0.515625 0.875000
vt 0.515625 0.875000
vt 0.515625 0.843750
vt 0.578125 0.843750
vt 0.578125 0.859375
vt 0.515625 0.859375
vt 0.515625 0.843750
vt 0.578125 0.859375
vt 0.578125 0.875000
vt 0.531250 0.875000
vt 0.531250 0.859375
vt 0.718750 0.937500
vt 0.718750 1.000000
vt 0.593750 1.000000
vt 0.593750 0.937500
vt 0.125000 0.875000
vt 0.125000 0.937500
vt 0.000000 0.937500
vt 0.000000 0.875000
vt 0.429688 0.820312
vt 0.367188 0.820312
vt 0.367188 0.835938
vt 0.429688 0.835938
vt 0.414062 0.835938
vt 0.367188 0.835938
vt 0.367188 0.820312
vt 0.414062 0.820312
vt 0.375000 0.812500
vt 0.375000 0.843750
vt 0.390625 0.843750
vt 0.390625 0.812500
vt 0.390625 0.812500
vt 0.390625 0.843750
vt 0.406250 0.843750
vt 0.406250 0.812500
vt 0.328125 0.750000
vt 0.328125 0.812500
vt 0.203125 0.812500
vt 0.203125 0.750000
vt 0.257812 0.789062
vt 0.304688 0.789062
vt 0.304688 0.804688
vt 0.257812 0.804688
vt 0.257812 0.789062
vt 0.304688 0.789062
vt 0.304688 0.804688
vt 0.257812 0.804688
vt 0.312500 0.781250
vt 0.312500 0.812500
vt 0.296875 0.812500
vt 0.296875 0.781250
vt 0.257812 0.789062
vt 0.320312 0.789062
vt 0.320312 0.804688
vt 0.257812 0.804688
vt 0.500000 0.765625
vt 0.500000 0.812500
vt 0.484375 0.812500
vt 0.484375 0.765625
vt 0.500000 0.765625
vt 0.500000 0.796875
vt 0.484375 0.796875
vt 0.484375 0.765625
vt 0.500000 0.796875
vt 0.500000 0.812500
vt 0.375000 0.812500
vt 0.375000 0.796875
vt 0.500000 0.781250
vt 0.500000 0.796875
vt 0.375000 0.796875
vt 0.375000 0.781250
vt 0.562500 0.875000
vt 0.562500 0.937500
vt 0.312500 0.937500
vt 0.312500 0.875000
vt 0.531250 0.812500
vt 0.531250 0.875000
vt 0.406250 0.875000
vt 0.406250 0.812500
vt 0.500000 0.796875
vt 0.500000 0.828125
vt 0.468750 0.828125
vt 0.468750 0.796875
vt 0.562500 0.796875
vt 0.562500 0.859375
vt 0.546875 0.859375
vt 0.546875 0.796875
vt 0.406250 0.812500
vt 0.406250 0.875000
vt 0.390625 0.875000
vt 0.390625 0.812500
vt 0.453125 0.781250
vt 0.453125 0.843750
vt 0.437500 0.843750
vt 0.437500 0.781250
vt 0.406250 0.812500
vt 0.406250 0.875000
vt 0.281250 0.875000
vt 0.281250 0.812500
vt 0.343750 0.828125
vt 0.343750 0.875000
vt 0.328125 0.875000
vt 0.328125 0.828125
vt 0.375000 0.812500
vt 0.375000 0.875000
vt 0.359375 0.875000
vt 0.359375 0.812500
vt 0.437500 0.796875
vt 0.437500 0.859375
vt 0.421875 0.859375
vt 0.421875 0.796875
vt 0.343750 0.812500
vt 0.343750 0.875000
vt 0.328125 0.875000
vt 0.328125 0.812500
vt 0.750000 0.750000
vt 0.750000 1.000000
vt 0.000000 1.000000
vt 0.000000 0.750000
vt 0.750000 0.937500
vt 0.000000 0.937500
vt 0.000000 0.875000
vt 0.750000 0.875000
vt 0.062500 0.750000
vt 0.062500 1.000000
vt 0.000000 1.000000
vt 0.000000 0.750000
vt 0.750000 0.750000
vt 0.750000 1.000000
vt 0.687500 1.000000
vt 0.687500 0.750000
vt 0.515625 0.812500
vt 0.515625 0.875000
vt 0.453125 0.875000
vt 0.453125 0.812500
vt 0.531250 0.812500
vt 0.531250 0.875000
vt 0.468750 0.875000
vt 0.468750 0.812500
vt 0.453125 0.812500
vt 0.453125 0.875000
vt 0.375000 0.875000
vt 0.375000 0.812500
vt 0.515625 0.812500
vt 0.515625 0.875000
vt 0.437500 0.875000
vt 0.437500 0.812500
vt 0.515625 0.812500
vt 0.515625 0.875000
vt 0.437500 0.875000
vt 0.437500 0.812500
vt 0.390625 0.937500
vt 0.390625 1.000000
vt 0.265625 1.000000
vt 0.265625 0.937500
vt 0.468750 0.937500
vt 0.468750 1.000000
vt 0.343750 1.000000
vt 0.343750 0.937500
vt 0.125000 0.937500
vt 0.000000 0.937500
vt 0.000000 0.875000
vt 0.125000 0.875000
vt 0.390625 0.812500
vt 0.390625 0.875000
vt 0.328125 0.875000
vt 0.328125 0.812500
vt 0.062500 0.875000
vt 0.062500 0.937500
vt 0.000000 0.937500
vt 0.000000 0.875000
vt 0.437500 0.812500
vt 0.437500 0.875000
vt 0.375000 0.875000
vt 0.375000 0.812500
vt 0.390625 0.812500
vt 0.390625 0.875000
vt 0.328125 0.875000
vt 0.328125 0.812500
vt 0.343750 0.812500
vt 0.343750 0.875000
vt 0.218750 0.875000
vt 0.218750 0.812500
vt 0.421875 0.812500
vt 0.421875 0.875000
vt 0.296875 0.875000
vt 0.296875 0.812500
vt 0.421875 0.937500
vt 0.421875 1.000000
vt 0.296875 1.000000
vt 0.296875 0.937500
vn 1 0 0
vn -1 0 0
vn 0 0 1
vn 0 0 -1
vn 0 1 0
vn 0 1 0
vn 0 1 0
vn 0 1 0
vn 0 -0.12403473458920847 0.9922778767136677
vn 0 -0.12403473458920847 0.9922778767136677
vn 0.9922778767136677 -0.12403473458920847 0
vn 0 -0.12403473458920847 -0.9922778767136677
vn -0.9922778767136677 -0.12403473458920847 0
vn 0.9510563422665871 0 -0.3090175299792888
vn -0.9510563422665871 0 0.30901752997928883
vn 0 1 0
vn 0.3090171626133142 0 0.9510564616311782
vn -0.3090171626133146 0 -0.951056461631178
vn 1 0 0
vn -1 0 0
vn 0 1 0
vn 0 0 1
vn 0 0 -1
vn 0.9902681405489647 0 0.13917259002294907
vn -0.9902679682753972 0 -0.1391738158121598
vn 0 1 0
vn -0.13917224547811638 0 0.9902681889713407
vn 0.1391725900229491 0 -0.9902681405489647
vn 0.992546055114238 0 -0.12187012955258711
vn -0.9925460922449604 0 0.1218698271487191
vn 0 1 0
vn 0.12186997835046666 0 0.9925460736796338
vn -0.12186874691576863 0 -0.9925462248808267
vn 1 0 0
vn -1 0 0
vn 0 1 0
vn 0 -1 0
vn 0 0 1
vn 1 0 0
vn -1 0 0
vn 0 1 0
vn 0 -1 0
vn 0 0 1
vn 1 0 0
vn -1 0 0
vn 0 1 0
vn 0 -1 0
vn 0 0 1
vn 1 0 0
vn -1 0 0
vn 0 1 0
vn 0 -1 0
vn 0 0 1
vn 1 0 0
vn -1 0 0
vn 0 1 0
vn 0 -1 0
vn 0 0 1
vn 0 1 0
vn 0 0 1
vn 1 0 0
vn -1 0 0
vn 0 1 0
vn 0 -1 0
vn 0 0 1
vn 0 0 -1
vn 0.9961947648731585 0 0.08715497942924849
vn -0.9961947648731585 0 -0.08715497942924849
vn 0 1 0
vn -0.08715621993376488 0 0.9961946563432557
vn 0.08715621993376488 0 -0.9961946563432557
vn 1 0 0
vn -1 0 0
vn 0 1 0
vn 0 0 1
vn 0 0 -1
vn 0.9975640643683362 0 -0.06975627198271182
vn -0.9975639773846032 0 0.0697575159005188
vn 0 1 0
vn 0.06975760288512835 0 0.9975639713019515
vn -0.06975742891612634 0 -0.9975639834672319
vn 0 0 -1
vn 0 0 1
vn 0 1 0
vn 0 -1 0
vn 1 0 0
vn 1 0 0
vn 0 1 0
vn 0 -1 0
vn 0 0 1
vn 0 0 -1
vn 1 0 0
vn 0 1 0
vn 0 -1 0
vn 0 0 1
vn 0 0 -1
vn 1 0 0
vn 0 1 0
vn 0 0 1
vn 0 0 -1
vn 1 0 0
vn 0 1 0
vn 0 -1 0
vn 0 0 1
vn 0 0 -1
vn 0 0 -1
vn 0 0 1
vn 0 1 0
vn 0 -1 0
vn 1 0 0
vn 0 0 -1
vn 0 0 1
vn 0 1 0
vn 0 -1 0
vn 1 0 0
vn 1 0 0
vn -1 0 0
vn 0 1 0
vn 0 -1 0
vn 0 0 -1
vn 1 0 0
vn -1 0 0
vn 0 1 0
vn 0 -1 0
vn 0 0 -1
vn 1 0 0
vn -1 0 0
vn 0 1 0
vn 0 -1 0
vn 0 0 -1
vn 1 0 0
vn -1 0 0
vn 0 1 0
vn 0 -1 0
vn 0 0 -1
vn 1 0 0
vn -1 0 0
vn 0 1 0
vn 0 -1 0
vn 0 0 -1
vn 1 0 0
vn -1 0 0
vn 0 1 0
vn 0 -1 0
vn 0 0 -1
vn 0 1 0
vn 0 0 -1
vn 1 0 0
vn -1 0 0
vn 0 1 0
vn 0 -1 0
vn 0 0 -1
vn -1 0 0
vn 0 1 0
vn 0 -1 0
vn 0 0 1
vn 0 0 -1
vn -1 0 0
vn 0 1 0
vn 0 -1 0
vn 0 0 1
vn 0 0 -1
vn 0 0 -1
vn 0 0 1
vn 0 1 0
vn 0 -1 0
vn -1 0 0
vn -0.9993908099800349 0 0.03489998463394907
vn 0 1 0
vn 0 -1 0
vn 0.034900028232389704 0 0.9993908084575217
vn -0.034900028232389704 0 -0.9993908084575217
vn -1 0 0
vn 0 1 0
vn 0 -1 0
vn 0 0 1
vn 0 0 -1
vn -1 0 0
vn 0 1 0
vn 0 0 1
vn 0 0 -1
vn 0.9961947648731585 0 0.08715497942924849
vn -0.9961945478118319 0 -0.08715746043787584
vn 0 1 0
vn -0.08715588500869317 0 0.9961946856455076
vn 0.08715605865726764 0 -0.9961946704531855
vn -0.9832550047933682 0 0.18223500088839562
vn 0.9832549632812971 0 -0.18223522486801305
vn 0 1 0
vn -0.18223500088839603 0 -0.9832550047933681
vn 0.1822374178627667 0 0.9832545568319078
vn -0.9961945478118319 0 -0.08715746043787584
vn 0.9961947648731584 0 0.08715497942924856
vn 0 1 0
vn 0.0871550879585253 0 -0.9961947553781548
vn -0.08715497942924808 0 0.9961947648731584
usemtl base_sandbags
f 281/757/190 282/758/190 284/759/190
f 281/757/190 284/759/190 283/760/190
f 286/761/191 285/762/191 287/763/191
f 286/761/191 287/763/191 288/764/191
f 285/765/192 281/766/192 283/767/192
f 285/765/192 283/767/192 287/768/192
f 282/769/193 286/770/193 288/771/193
f 282/769/193 288/771/193 284/772/193
f 290/773/194 289/774/194 287/775/194
f 290/773/194 287/775/194 283/776/194
f 291/777/195 290/778/195 283/779/195
f 291/777/195 283/779/195 284/780/195
f 292/781/196 291/782/196 284/783/196
f 292/781/196 284/783/196 288/784/196
f 289/785/197 292/786/197 288/787/197
f 289/785/197 288/787/197 287/788/197
f 285/789/198 300/790/198 299/791/198
f 285/789/198 299/791/198 293/792/198
f 294/793/199 302/794/199 301/795/199
f 294/793/199 301/795/199 281/796/199
f 297/797/200 303/798/200 304/799/200
f 297/797/200 304/799/200 298/800/200
f 295/801/201 305/802/201 306/803/201
f 295/801/201 306/803/201 296/804/201
f 286/805/202 308/806/202 307/807/202
f 286/805/202 307/807/202 285/808/202
f 312/809/203 310/810/203 309/811/203
f 312/809/203 309/811/203 311/812/203
f 315/813/204 313/814/204 314/815/204
f 315/813/204 314/815/204 316/816/204
f 309/817/205 310/818/205 314/819/205
f 309/817/205 314/819/205 313/820/205
f 311/821/206 309/822/206 313/823/206
f 311/821/206 313/823/206 315/824/206
f 316/825/207 314/826/207 310/827/207
f 316/825/207 310/827/207 312/828/207
f 320/829/208 318/830/208 317/831/208
f 320/829/208 317/831/208 319/832/208
f 323/833/209 321/834/209 322/835/209
f 323/833/209 322/835/209 324/836/209
f 317/837/210 318/838/210 322/839/210
f 317/837/210 322/839/210 321/840/210
f 319/841/211 317/842/211 321/843/211
f 319/841/211 321/843/211 323/844/211
f 324/845/212 322/846/212 318/847/212
f 324/845/212 318/847/212 320/848/212
f 328/849/213 326/850/213 325/851/213
f 328/849/213 325/851/213 327/852/213
f 331/853/214 329/854/214 330/855/214
f 331/853/214 330/855/214 332/856/214
f 325/857/215 326/858/215 330/859/215
f 325/857/215 330/859/215 329/860/215
f 327/861/216 325/862/216 329/863/216
f 327/861/216 329/863/216 331/864/216
f 332/865/217 330/866/217 326/867/217
f 332/865/217 326/867/217 328/868/217
f 336/869/218 334/870/218 333/871/218
f 336/869/218 333/871/218 335/872/218
f 339/873/219 337/874/219 338/875/219
f 339/873/219 338/875/219 340/876/219
f 333/877/220 334/878/220 338/879/220
f 333/877/220 338/879/220 337/880/220
f 335/881/221 333/882/221 337/883/221
f 335/881/221 337/883/221 339/884/221
f 340/885/222 338/886/222 334/887/222
f 340/885/222 334/887/222 336/888/222
f 344/889/223 342/890/223 341/891/223
f 344/889/223 341/891/223 343/892/223
f 347/893/224 345/894/224 346/895/224
f 347/893/224 346/895/224 348/896/224
f 341/897/225 342/898/225 346/899/225
f 341/897/225 346/899/225 345/900/225
f 344/901/226 343/902/226 347/903/226
f 344/901/226 347/903/226 348/904/226
f 343/905/227 341/906/227 345/907/227
f 343/905/227 345/907/227 347/908/227
f 352/909/228 350/910/228 349/911/228
f 352/909/228 349/911/228 351/912/228
f 355/913/229 353/914/229 354/915/229
f 355/913/229 354/915/229 356/916/229
f 349/917/230 350/918/230 354/919/230
f 349/917/230 354/919/230 353/920/230
f 352/921/231 351/922/231 355/923/231
f 352/921/231 355/923/231 356/924/231
f 351/925/232 349/926/232 353/927/232
f 351/925/232 353/927/232 355/928/232
f 360/929/233 358/930/233 357/931/233
f 360/929/233 357/931/233 359/932/233
f 363/933/234 361/934/234 362/935/234
f 363/933/234 362/935/234 364/936/234
f 357/937/235 358/938/235 362/939/235
f 357/937/235 362/939/235 361/940/235
f 360/941/236 359/942/236 363/943/236
f 360/941/236 363/943/236 364/944/236
f 359/945/237 357/946/237 361/947/237
f 359/945/237 361/947/237 363/948/237
f 366/949/238 364/950/238 363/951/238
f 366/949/238 363/951/238 365/952/238
f 369/953/239 367/954/239 368/955/239
f 369/953/239 368/955/239 370/956/239
f 363/957/240 364/958/240 368/959/240
f 363/957/240 368/959/240 367/960/240
f 366/961/241 365/962/241 369/963/241
f 366/961/241 369/963/241 370/964/241
f 365/965/242 363/966/242 367/967/242
f 365/965/242 367/967/242 369/968/242
f 374/969/243 372/970/243 371/971/243
f 374/969/243 371/971/243 373/972/243
f 377/973/244 375/974/244 376/975/244
f 377/973/244 376/975/244 378/976/244
f 371/977/245 372/978/245 376/979/245
f 371/977/245 376/979/245 375/980/245
f 374/981/246 373/982/246 377/983/246
f 374/981/246 377/983/246 378/984/246
f 373/985/247 371/986/247 375/987/247
f 373/985/247 375/987/247 377/988/247
f 379/989/248 380/990/248 382/991/248
f 379/989/248 382/991/248 381/992/248
f 344/993/249 379/994/249 381/995/249
f 344/993/249 381/995/249 383/996/249
f 387/997/250 385/998/250 384/999/250
f 387/997/250 384/999/250 386/1000/250
f 390/1001/251 388/1002/251 389/1003/251
f 390/1001/251 389/1003/251 391/1004/251
f 384/1005/252 385/1006/252 389/1007/252
f 384/1005/252 389/1007/252 388/1008/252
f 387/1009/253 386/1010/253 390/1011/253
f 387/1009/253 390/1011/253 391/1012/253
f 386/1013/254 384/1014/254 388/1015/254
f 386/1013/254 388/1015/254 390/1016/254
f 391/1017/255 389/1018/255 385/1019/255
f 391/1017/255 385/1019/255 387/1020/255
f 395/1021/256 393/1022/256 392/1023/256
f 395/1021/256 392/1023/256 394/1024/256
f 398/1025/257 396/1026/257 397/1027/257
f 398/1025/257 397/1027/257 399/1028/257
f 392/1029/258 393/1030/258 397/1031/258
f 392/1029/258 397/1031/258 396/1032/258
f 394/1033/259 392/1034/259 396/1035/259
f 394/1033/259 396/1035/259 398/1036/259
f 399/1037/260 397/1038/260 393/1039/260
f 399/1037/260 393/1039/260 395/1040/260
f 403/1041/261 401/1042/261 400/1043/261
f 403/1041/261 400/1043/261 402/1044/261
f 336/1045/262 334/1046/262 404/1047/262
f 336/1045/262 404/1047/262 405/1048/262
f 400/1049/263 401/1050/263 404/1051/263
f 400/1049/263 404/1051/263 334/1052/263
f 402/1053/264 400/1054/264 334/1055/264
f 402/1053/264 334/1055/264 336/1056/264
f 405/1057/265 404/1058/265 401/1059/265
f 405/1057/265 401/1059/265 403/1060/265
f 409/1061/266 407/1062/266 406/1063/266
f 409/1061/266 406/1063/266 408/1064/266
f 412/1065/267 410/1066/267 411/1067/267
f 412/1065/267 411/1067/267 413/1068/267
f 406/1069/268 407/1070/268 411/1071/268
f 406/1069/268 411/1071/268 410/1072/268
f 408/1073/269 406/1074/269 410/1075/269
f 408/1073/269 410/1075/269 412/1076/269
f 413/1077/270 411/1078/270 407/1079/270
f 413/1077/270 407/1079/270 409/1080/270
f 417/1081/271 415/1082/271 414/1083/271
f 417/1081/271 414/1083/271 416/1084/271
f 420/1085/272 418/1086/272 419/1087/272
f 420/1085/272 419/1087/272 421/1088/272
f 414/1089/273 415/1090/273 419/1091/273
f 414/1089/273 419/1091/273 418/1092/273
f 417/1093/274 416/1094/274 420/1095/274
f 417/1093/274 420/1095/274 421/1096/274
f 416/1097/275 414/1098/275 418/1099/275
f 416/1097/275 418/1099/275 420/1100/275
f 425/1101/276 423/1102/276 422/1103/276
f 425/1101/276 422/1103/276 424/1104/276
f 422/1105/277 423/1106/277 427/1107/277
f 422/1105/277 427/1107/277 426/1108/277
f 425/1109/278 424/1110/278 428/1111/278
f 425/1109/278 428/1111/278 429/1112/278
f 424/1113/279 422/1114/279 426/1115/279
f 424/1113/279 426/1115/279 428/1116/279
f 429/1117/280 427/1118/280 423/1119/280
f 429/1117/280 423/1119/280 425/1120/280
f 433/1121/281 431/1122/281 430/1123/281
f 433/1121/281 430/1123/281 432/1124/281
f 430/1125/282 431/1126/282 435/1127/282
f 430/1125/282 435/1127/282 434/1128/282
f 433/1129/283 432/1130/283 436/1131/283
f 433/1129/283 436/1131/283 437/1132/283
f 432/1133/284 430/1134/284 434/1135/284
f 432/1133/284 434/1135/284 436/1136/284
f 437/1137/285 435/1138/285 431/1139/285
f 437/1137/285 431/1139/285 433/1140/285
f 441/1141/286 439/1142/286 438/1143/286
f 441/1141/286 438/1143/286 440/1144/286
f 438/1145/287 439/1146/287 442/1147/287
f 438/1145/287 442/1147/287 379/1148/287
f 440/1149/288 438/1150/288 379/1151/288
f 440/1149/288 379/1151/288 344/1152/288
f 443/1153/289 442/1154/289 439/1155/289
f 443/1153/289 439/1155/289 441/1156/289
f 446/1157/290 444/1158/290 433/1159/290
f 446/1157/290 433/1159/290 445/1160/290
f 433/1161/291 444/1162/291 447/1163/291
f 433/1161/291 447/1163/291 437/1164/291
f 446/1165/292 445/1166/292 448/1167/292
f 446/1165/292 448/1167/292 449/1168/292
f 445/1169/293 433/1170/293 437/1171/293
f 445/1169/293 437/1171/293 448/1172/293
f 449/1173/294 447/1174/294 444/1175/294
f 449/1173/294 444/1175/294 446/1176/294
f 453/1177/295 451/1178/295 450/1179/295
f 453/1177/295 450/1179/295 452/1180/295
f 444/1181/296 454/1182/296 455/1183/296
f 444/1181/296 455/1183/296 447/1184/296
f 450/1185/297 451/1186/297 455/1187/297
f 450/1185/297 455/1187/297 454/1188/297
f 453/1189/298 452/1190/298 444/1191/298
f 453/1189/298 444/1191/298 447/1192/298
f 452/1193/299 450/1194/299 454/1195/299
f 452/1193/299 454/1195/299 444/1196/299
f 459/1197/300 457/1198/300 456/1199/300
f 459/1197/300 456/1199/300 458/1200/300
f 462/1201/301 460/1202/301 461/1203/301
f 462/1201/301 461/1203/301 463/1204/301
f 456/1205/302 457/1206/302 461/1207/302
f 456/1205/302 461/1207/302 460/1208/302
f 459/1209/303 458/1210/303 462/1211/303
f 459/1209/303 462/1211/303 463/1212/303
f 458/1213/304 456/1214/304 460/1215/304
f 458/1213/304 460/1215/304 462/1216/304
f 466/1217/305 464/1218/305 442/1219/305
f 466/1217/305 442/1219/305 465/1220/305
f 469/1221/306 467/1222/306 468/1223/306
f 469/1221/306 468/1223/306 470/1224/306
f 442/1225/307 464/1226/307 468/1227/307
f 442/1225/307 468/1227/307 467/1228/307
f 466/1229/308 465/1230/308 469/1231/308
f 466/1229/308 469/1231/308 470/1232/308
f 470/1233/309 468/1234/309 464/1235/309
f 470/1233/309 464/1235/309 466/1236/309
f 473/1237/310 472/1238/310 471/1239/310
f 473/1237/310 471/1239/310 443/1240/310
f 476/1241/311 474/1242/311 475/1243/311
f 476/1241/311 475/1243/311 477/1244/311
f 471/1245/312 472/1246/312 475/1247/312
f 471/1245/312 475/1247/312 474/1248/312
f 473/1249/313 443/1250/313 476/1251/313
f 473/1249/313 476/1251/313 477/1252/313
f 477/1253/314 475/1254/314 472/1255/314
f 477/1253/314 472/1255/314 473/1256/314
f 481/1257/315 479/1258/315 478/1259/315
f 481/1257/315 478/1259/315 480/1260/315
f 484/1261/316 482/1262/316 483/1263/316
f 484/1261/316 483/1263/316 485/1264/316
f 478/1265/317 479/1266/317 483/1267/317
f 478/1265/317 483/1267/317 482/1268/317
f 481/1269/318 480/1270/318 484/1271/318
f 481/1269/318 484/1271/318 485/1272/318
f 485/1273/319 483/1274/319 479/1275/319
f 485/1273/319 479/1275/319 481/1276/319
f 489/1277/320 487/1278/320 486/1279/320
f 489/1277/320 486/1279/320 488/1280/320
f 492/1281/321 490/1282/321 491/1283/321
f 492/1281/321 491/1283/321 493/1284/321
f 486/1285/322 487/1286/322 491/1287/322
f 486/1285/322 491/1287/322 490/1288/322
f 489/1289/323 488/1290/323 492/1291/323
f 489/1289/323 492/1291/323 493/1292/323
f 493/1293/324 491/1294/324 487/1295/324
f 493/1293/324 487/1295/324 489/1296/324
f 497/1297/325 495/1298/325 494/1299/325
f 497/1297/325 494/1299/325 496/1300/325
f 500/1301/326 498/1302/326 499/1303/326
f 500/1301/326 499/1303/326 501/1304/326
f 494/1305/327 495/1306/327 499/1307/327
f 494/1305/327 499/1307/327 498/1308/327
f 497/1309/328 496/1310/328 500/1311/328
f 497/1309/328 500/1311/328 501/1312/328
f 501/1313/329 499/1314/329 495/1315/329
f 501/1313/329 495/1315/329 497/1316/329
f 505/1317/330 503/1318/330 502/1319/330
f 505/1317/330 502/1319/330 504/1320/330
f 508/1321/331 506/1322/331 507/1323/331
f 508/1321/331 507/1323/331 509/1324/331
f 502/1325/332 503/1326/332 507/1327/332
f 502/1325/332 507/1327/332 506/1328/332
f 505/1329/333 504/1330/333 508/1331/333
f 505/1329/333 508/1331/333 509/1332/333
f 509/1333/334 507/1334/334 503/1335/334
f 509/1333/334 503/1335/334 505/1336/334
f 510/1337/335 442/1338/335 512/1339/335
f 510/1337/335 512/1339/335 511/1340/335
f 513/1341/336 512/1342/336 442/1343/336
f 513/1341/336 442/1343/336 443/1344/336
f 515/1345/337 501/1346/337 500/1347/337
f 515/1345/337 500/1347/337 514/1348/337
f 518/1349/338 516/1350/338 517/1351/338
f 518/1349/338 517/1351/338 519/1352/338
f 500/1353/339 501/1354/339 517/1355/339
f 500/1353/339 517/1355/339 516/1356/339
f 515/1357/340 514/1358/340 518/1359/340
f 515/1357/340 518/1359/340 519/1360/340
f 519/1361/341 517/1362/341 501/1363/341
f 519/1361/341 501/1363/341 515/1364/341
f 526/1365/342 524/1366/342 525/1367/342
f 526/1365/342 525/1367/342 527/1368/342
f 520/1369/343 521/1370/343 525/1371/343
f 520/1369/343 525/1371/343 524/1372/343
f 523/1373/344 522/1374/344 526/1375/344
f 523/1373/344 526/1375/344 527/1376/344
f 522/1377/345 520/1378/345 524/1379/345
f 522/1377/345 524/1379/345 526/1380/345
f 527/1381/346 525/1382/346 521/1383/346
f 527/1381/346 521/1383/346 523/1384/346
f 534/1385/347 532/1386/347 533/1387/347
f 534/1385/347 533/1387/347 535/1388/347
f 528/1389/348 529/1390/348 533/1391/348
f 528/1389/348 533/1391/348 532/1392/348
f 531/1393/349 530/1394/349 534/1395/349
f 531/1393/349 534/1395/349 535/1396/349
f 530/1397/350 528/1398/350 532/1399/350
f 530/1397/350 532/1399/350 534/1400/350
f 535/1401/351 533/1402/351 529/1403/351
f 535/1401/351 529/1403/351 531/1404/351
f 539/1405/352 537/1406/352 536/1407/352
f 539/1405/352 536/1407/352 538/1408/352
f 542/1409/353 540/1410/353 541/1411/353
f 542/1409/353 541/1411/353 543/1412/353
f 536/1413/354 537/1414/354 541/1415/354
f 536/1413/354 541/1415/354 540/1416/354
f 539/1417/355 538/1418/355 542/1419/355
f 539/1417/355 542/1419/355 543/1420/355
f 543/1421/356 541/1422/356 537/1423/356
f 543/1421/356 537/1423/356 539/1424/356
f 550/1425/357 548/1426/357 549/1427/357
f 550/1425/357 549/1427/357 551/1428/357
f 544/1429/358 545/1430/358 549/1431/358
f 544/1429/358 549/1431/358 548/1432/358
f 547/1433/359 546/1434/359 550/1435/359
f 547/1433/359 550/1435/359 551/1436/359
f 546/1437/360 544/1438/360 548/1439/360
f 546/1437/360 548/1439/360 550/1440/360
f 551/1441/361 549/1442/361 545/1443/361
f 551/1441/361 545/1443/361 547/1444/361
f 557/1445/362 555/1446/362 556/1447/362
f 557/1445/362 556/1447/362 558/1448/362
f 552/1449/363 508/1450/363 556/1451/363
f 552/1449/363 556/1451/363 555/1452/363
f 554/1453/364 553/1454/364 557/1455/364
f 554/1453/364 557/1455/364 558/1456/364
f 553/1457/365 552/1458/365 555/1459/365
f 553/1457/365 555/1459/365 557/1460/365
f 558/1461/366 556/1462/366 508/1463/366
f 558/1461/366 508/1463/366 554/1464/366
f 560/1465/367 559/1466/367 506/1467/367
f 560/1465/367 506/1467/367 561/1468/367
f 381/1469/368 512/1470/368 506/1471/368
f 381/1469/368 506/1471/368 559/1472/368
f 383/1473/369 381/1474/369 559/1475/369
f 383/1473/369 559/1475/369 560/1476/369
f 561/1477/370 506/1478/370 512/1479/370
f 561/1477/370 512/1479/370 513/1480/370
f 565/1481/371 563/1482/371 562/1483/371
f 565/1481/371 562/1483/371 564/1484/371
f 568/1485/372 566/1486/372 567/1487/372
f 568/1485/372 567/1487/372 569/1488/372
f 562/1489/373 563/1490/373 567/1491/373
f 562/1489/373 567/1491/373 566/1492/373
f 564/1493/374 562/1494/374 566/1495/374
f 564/1493/374 566/1495/374 568/1496/374
f 569/1497/375 567/1498/375 563/1499/375
f 569/1497/375 563/1499/375 565/1500/375
f 574/1501/376 570/1502/376 572/1503/376
f 574/1501/376 572/1503/376 575/1504/376
f 576/1505/377 573/1506/377 571/1507/377
f 576/1505/377 571/1507/377 577/1508/377
f 572/1509/378 570/1510/378 571/1511/378
f 572/1509/378 571/1511/378 573/1512/378
f 575/1513/379 572/1514/379 573/1515/379
f 575/1513/379 573/1515/379 576/1516/379
f 577/1517/380 571/1518/380 570/1519/380
f 577/1517/380 570/1519/380 574/1520/380
f 582/1521/381 578/1522/381 580/1523/381
f 582/1521/381 580/1523/381 583/1524/381
f 584/1525/382 581/1526/382 579/1527/382
f 584/1525/382 579/1527/382 585/1528/382
f 580/1529/383 578/1530/383 579/1531/383
f 580/1529/383 579/1531/383 581/1532/383
f 583/1533/384 580/1534/384 581/1535/384
f 583/1533/384 581/1535/384 584/1536/384
f 585/1537/385 579/1538/385 578/1539/385
f 585/1537/385 578/1539/385 582/1540/385
o door1
v 1.6875 0.9375 0.3125
v 1.6875 0.9375 1.1875
v 1.6875 0.875 0.3125
v 1.6875 0.875 1.1875
v -0.6875 0.9375 0.3125
v -0.6875 0.9375 1.1875
v -0.6875 0.875 0.3125
v -0.6875 0.875 1.1875
v 0.1875 0.9375 1.1875
v 0.1875 0.9375 1.5
v 0.1875 0.875 1.1875
v 0.1875 0.875 1.5
v -0.6875 0.9375 1.5
v -0.6875 0.875 1.5
v 1.6875 0.9375 1.5
v 1.6875 0.875 1.5
v 0.8125 0.9375 1.1875
v 0.8125 0.9375 1.5
v 0.8125 0.875 1.1875
v 0.8125 0.875 1.5
v 0.8125 1.09375 0.28125
v 0.8125 1.09375 0.09375
v 0.8125 0.90625 0.28125
v 0.8125 0.90625 0.09375
v 0.1875 1.09375 0.28125
v 0.1875 1.09375 0.09375
v 0.1875 0.90625 0.28125
v 0.1875 0.90625 0.09375
v 0.75 1.03125 0.65625
v 0.75 1.03125 0.28125
v 0.75 0.90625 0.65625
v 0.75 0.90625 0.28125
v 0.625 1.03125 0.65625
v 0.625 1.03125 0.28125
v 0.625 0.90625 0.65625
v 0.625 0.90625 0.28125
v 0.8125 1.03125 0.90625
v 0.8125 1.03125 0.65625
v 0.8125 0.90625 0.90625
v 0.8125 0.90625 0.65625
v 0.5625 1.03125 0.90625
v 0.5625 1.03125 0.65625
v 0.5625 0.90625 0.90625
v 0.5625 0.90625 0.65625
v 0.375 1.03125 0.65625
v 0.375 1.03125 0.28125
v 0.375 0.90625 0.65625
v 0.375 0.90625 0.28125
v 0.25 1.03125 0.65625
v 0.25 1.03125 0.28125
v 0.25 0.90625 0.65625
v 0.25 0.90625 0.28125
v 0.4375 1.03125 0.90625
v 0.4375 1.03125 0.65625
v 0.4375 0.90625 0.90625
v 0.4375 0.90625 0.65625
v 0.1875 1.03125 0.90625
v 0.1875 1.03125 0.65625
v 0.1875 0.90625 0.90625
v 0.1875 0.90625 0.65625
vt 0.250000 0.015625
vt 0.468750 0.015625
vt 0.468750 0.000000
vt 0.250000 0.000000
vt 0.250000 0.593750
vt 0.468750 0.593750
vt 0.468750 0.578125
vt 0.250000 0.578125
vt 0.468750 0.000000
vt 0.468750 0.593750
vt 0.250000 0.593750
vt 0.250000 0.000000
vt 0.250000 0.000000
vt 0.250000 0.593750
vt 0.468750 0.593750
vt 0.468750 0.000000
vt 0.250000 0.000000
vt 0.250000 0.593750
vt 0.265625 0.593750
vt 0.265625 0.000000
vt 0.468750 0.390625
vt 0.546875 0.390625
vt 0.546875 0.375000
vt 0.468750 0.375000
vt 0.468750 0.593750
vt 0.546875 0.593750
vt 0.546875 0.578125
vt 0.468750 0.578125
vt 0.468750 0.593750
vt 0.468750 0.375000
vt 0.546875 0.375000
vt 0.546875 0.593750
vt 0.468750 0.593750
vt 0.468750 0.375000
vt 0.546875 0.375000
vt 0.546875 0.593750
vt 0.531250 0.375000
vt 0.531250 0.593750
vt 0.546875 0.593750
vt 0.546875 0.375000
vt 0.468750 0.593750
vt 0.546875 0.593750
vt 0.546875 0.578125
vt 0.468750 0.578125
vt 0.468750 0.390625
vt 0.546875 0.390625
vt 0.546875 0.375000
vt 0.468750 0.375000
vt 0.468750 0.375000
vt 0.468750 0.593750
vt 0.546875 0.593750
vt 0.546875 0.375000
vt 0.468750 0.375000
vt 0.468750 0.593750
vt 0.546875 0.593750
vt 0.546875 0.375000
vt 0.531250 0.593750
vt 0.531250 0.375000
vt 0.546875 0.375000
vt 0.546875 0.593750
vt 0.468750 0.203125
vt 0.453125 0.203125
vt 0.453125 0.359375
vt 0.468750 0.359375
vt 0.828125 0.250000
vt 0.781250 0.250000
vt 0.781250 0.093750
vt 0.828125 0.093750
vt 0.828125 0.250000
vt 0.781250 0.250000
vt 0.781250 0.093750
vt 0.828125 0.093750
vt 0.828125 0.250000
vt 0.781250 0.250000
vt 0.781250 0.093750
vt 0.828125 0.093750
vt 0.828125 0.250000
vt 0.781250 0.250000
vt 0.781250 0.093750
vt 0.828125 0.093750
vt 0.828125 0.187500
vt 0.859375 0.187500
vt 0.859375 0.093750
vt 0.828125 0.093750
vt 0.859375 0.093750
vt 0.828125 0.093750
vt 0.828125 0.187500
vt 0.859375 0.187500
vt 0.859375 0.093750
vt 0.859375 0.187500
vt 0.828125 0.187500
vt 0.828125 0.093750
vt 0.843750 0.093750
vt 0.843750 0.062500
vt 0.906250 0.062500
vt 0.906250 0.093750
vt 0.843750 0.093750
vt 0.843750 0.062500
vt 0.906250 0.062500
vt 0.906250 0.093750
vt 0.843750 0.000000
vt 0.906250 0.000000
vt 0.906250 0.062500
vt 0.843750 0.062500
vt 0.906250 0.093750
vt 0.906250 0.062500
vt 0.843750 0.062500
vt 0.843750 0.093750
vt 0.906250 0.093750
vt 0.906250 0.062500
vt 0.843750 0.062500
vt 0.843750 0.093750
vt 0.828125 0.187500
vt 0.859375 0.187500
vt 0.859375 0.093750
vt 0.828125 0.093750
vt 0.859375 0.093750
vt 0.828125 0.093750
vt 0.828125 0.187500
vt 0.859375 0.187500
vt 0.859375 0.093750
vt 0.859375 0.187500
vt 0.828125 0.187500
vt 0.828125 0.093750
vt 0.843750 0.093750
vt 0.843750 0.062500
vt 0.906250 0.062500
vt 0.906250 0.093750
vt 0.843750 0.093750
vt 0.843750 0.062500
vt 0.906250 0.062500
vt 0.906250 0.093750
vt 0.843750 0.000000
vt 0.906250 0.000000
vt 0.906250 0.062500
vt 0.843750 0.062500
vt 0.906250 0.093750
vt 0.906250 0.062500
vt 0.843750 0.062500
vt 0.843750 0.093750
vt 0.906250 0.093750
vt 0.906250 0.062500
vt 0.843750 0.062500
vt 0.843750 0.093750
vn 1 0 0
vn -1 0 0
vn 0 1 0
vn 0 -1 0
vn 0 0 -1
vn 1 0 0
vn -1 0 0
vn 0 1 0
vn 0 -1 0
vn 0 0 1
vn 1 0 0
vn -1 0 0
vn 0 1 0
vn 0 -1 0
vn 0 0 1
vn 0 0 1
vn 0 1 0
vn 0 -1 0
vn 0 0 1
vn 0 0 -1
vn 1 0 0
vn -1 0 0
vn 0 1 0
vn 1 0 0
vn -1 0 0
vn 0 1 0
vn 0 0 1
vn 0 0 -1
vn 1 0 0
vn -1 0 0
vn 0 1 0
vn 1 0 0
vn -1 0 0
vn 0 1 0
vn 0 0 1
vn 0 0 -1
usemtl emplacement
f 586/1541/386 587/1542/386 589/1543/386
f 586/1541/386 589/1543/386 588/1544/386
f 591/1545/387 590/1546/387 592/1547/387
f 591/1545/387 592/1547/387 593/1548/387
f 591/1549/388 587/1550/388 586/1551/388
f 591/1549/388 586/1551/388 590/1552/388
f 592/1553/389 588/1554/389 589/1555/389
f 592/1553/389 589/1555/389 593/1556/389
f 590/1557/390 586/1558/390 588/1559/390
f 590/1557/390 588/1559/390 592/1560/390
f 594/1561/391 595/1562/391 597/1563/391
f 594/1561/391 597/1563/391 596/1564/391
f 598/1565/392 591/1566/392 593/1567/392
f 598/1565/392 593/1567/392 599/1568/392
f 598/1569/393 595/1570/393 594/1571/393
f 598/1569/393 594/1571/393 591/1572/393
f 593/1573/394 596/1574/394 597/1575/394
f 593/1573/394 597/1575/394 599/1576/394
f 595/1577/395 598/1578/395 599/1579/395
f 595/1577/395 599/1579/395 597/1580/395
f 587/1581/396 600/1582/396 601/1583/396
f 587/1581/396 601/1583/396 589/1584/396
f 603/1585/397 602/1586/397 604/1587/397
f 603/1585/397 604/1587/397 605/1588/397
f 603/1589/398 600/1590/398 587/1591/398
f 603/1589/398 587/1591/398 602/1592/398
f 604/1593/399 589/1594/399 601/1595/399
f 604/1593/399 601/1595/399 605/1596/399
f 600/1597/400 603/1598/400 605/1599/400
f 600/1597/400 605/1599/400 601/1600/400
f 604/1601/401 602/1602/401 594/1603/401
f 604/1601/401 594/1603/401 596/1604/401
f 606/1605/402 607/1606/402 611/1607/402
f 606/1605/402 611/1607/402 610/1608/402
f 609/1609/403 608/1610/403 612/1611/403
f 609/1609/403 612/1611/403 613/1612/403
f 608/1613/404 606/1614/404 610/1615/404
f 608/1613/404 610/1615/404 612/1616/404
f 613/1617/405 611/1618/405 607/1619/405
f 613/1617/405 607/1619/405 609/1620/405
f 617/1621/406 615/1622/406 614/1623/406
f 617/1621/406 614/1623/406 616/1624/406
f 620/1625/407 618/1626/407 619/1627/407
f 620/1625/407 619/1627/407 621/1628/407
f 614/1629/408 615/1630/408 619/1631/408
f 614/1629/408 619/1631/408 618/1632/408
f 625/1633/409 623/1634/409 622/1635/409
f 625/1633/409 622/1635/409 624/1636/409
f 628/1637/410 626/1638/410 627/1639/410
f 628/1637/410 627/1639/410 629/1640/410
f 622/1641/411 623/1642/411 627/1643/411
f 622/1641/411 627/1643/411 626/1644/411
f 624/1645/412 622/1646/412 626/1647/412
f 624/1645/412 626/1647/412 628/1648/412
f 629/1649/413 627/1650/413 623/1651/413
f 629/1649/413 623/1651/413 625/1652/413
f 633/1653/414 631/1654/414 630/1655/414
f 633/1653/414 630/1655/414 632/1656/414
f 636/1657/415 634/1658/415 635/1659/415
f 636/1657/415 635/1659/415 637/1660/415
f 630/1661/416 631/1662/416 635/1663/416
f 630/1661/416 635/1663/416 634/1664/416
f 641/1665/417 639/1666/417 638/1667/417
f 641/1665/417 638/1667/417 640/1668/417
f 644/1669/418 642/1670/418 643/1671/418
f 644/1669/418 643/1671/418 645/1672/418
f 638/1673/419 639/1674/419 643/1675/419
f 638/1673/419 643/1675/419 642/1676/419
f 640/1677/420 638/1678/420 642/1679/420
f 640/1677/420 642/1679/420 644/1680/420
f 645/1681/421 643/1682/421 639/1683/421
f 645/1681/421 639/1683/421 641/1684/421
o door2
v 1.6875 0.9375 2.6875
v 1.6875 0.9375 1.8125
v 1.6875 0.875 2.6875
v 1.6875 0.875 1.8125
v -0.6875 0.9375 2.6875
v -0.6875 0.9375 1.8125
v -0.6875 0.875 2.6875
v -0.6875 0.875 1.8125
v 0.1875 0.9375 1.8125
v 0.1875 0.9375 1.5
v 0.1875 0.875 1.8125
v 0.1875 0.875 1.5
v -0.6875 0.9375 1.5
v -0.6875 0.875 1.5
v 1.6875 0.9375 1.5
v 1.6875 0.875 1.5
v 0.8125 0.9375 1.8125
v 0.8125 0.9375 1.5
v 0.8125 0.875 1.8125
v 0.8125 0.875 1.5
v 0.8125 1.09375 2.71875
v 0.8125 1.09375 2.90625
v 0.8125 0.90625 2.71875
v 0.8125 0.90625 2.90625
v 0.1875 1.09375 2.71875
v 0.1875 1.09375 2.90625
v 0.1875 0.90625 2.71875
v 0.1875 0.90625 2.90625
v 0.75 1.03125 2.34375
v 0.75 1.03125 2.71875
v 0.75 0.90625 2.34375
v 0.75 0.90625 2.71875
v 0.625 1.03125 2.34375
v 0.625 1.03125 2.71875
v 0.625 0.90625 2.34375
v 0.625 0.90625 2.71875
v 0.8125 1.03125 2.09375
v 0.8125 1.03125 2.34375
v 0.8125 0.90625 2.09375
v 0.8125 0.90625 2.34375
v 0.5625 1.03125 2.09375
v 0.5625 1.03125 2.34375
v 0.5625 0.90625 2.09375
v 0.5625 0.90625 2.34375
v 0.375 1.03125 2.34375
v 0.375 1.03125 2.71875
v 0.375 0.90625 2.34375
v 0.375 0.90625 2.71875
v 0.25 1.03125 2.34375
v 0.25 1.03125 2.71875
v 0.25 0.90625 2.34375
v 0.25 0.90625 2.71875
v 0.4375 1.03125 2.09375
v 0.4375 1.03125 2.34375
v 0.4375 0.90625 2.09375
v 0.4375 0.90625 2.34375
v 0.1875 1.03125 2.09375
v 0.1875 1.03125 2.34375
v 0.1875 0.90625 2.09375
v 0.1875 0.90625 2.34375
vt 0.468750 0.000000
vt 0.468750 0.015625
vt 0.250000 0.015625
vt 0.250000 0.000000
vt 0.468750 0.578125
vt 0.468750 0.593750
vt 0.250000 0.593750
vt 0.250000 0.578125
vt 0.250000 0.593750
vt 0.468750 0.593750
vt 0.468750 0.000000
vt 0.250000 0.000000
vt 0.468750 0.593750
vt 0.250000 0.593750
vt 0.250000 0.000000
vt 0.468750 0.000000
vt 0.265625 0.593750
vt 0.250000 0.593750
vt 0.250000 0.000000
vt 0.265625 0.000000
vt 0.546875 0.375000
vt 0.546875 0.390625
vt 0.468750 0.390625
vt 0.468750 0.375000
vt 0.546875 0.578125
vt 0.546875 0.593750
vt 0.468750 0.593750
vt 0.468750 0.578125
vt 0.546875 0.375000
vt 0.468750 0.375000
vt 0.468750 0.593750
vt 0.546875 0.593750
vt 0.546875 0.375000
vt 0.468750 0.375000
vt 0.468750 0.593750
vt 0.546875 0.593750
vt 0.546875 0.593750
vt 0.531250 0.593750
vt 0.531250 0.375000
vt 0.546875 0.375000
vt 0.546875 0.578125
vt 0.546875 0.593750
vt 0.468750 0.593750
vt 0.468750 0.578125
vt 0.546875 0.375000
vt 0.546875 0.390625
vt 0.468750 0.390625
vt 0.468750 0.375000
vt 0.546875 0.593750
vt 0.468750 0.593750
vt 0.468750 0.375000
vt 0.546875 0.375000
vt 0.546875 0.593750
vt 0.468750 0.593750
vt 0.468750 0.375000
vt 0.546875 0.375000
vt 0.546875 0.375000
vt 0.531250 0.375000
vt 0.531250 0.593750
vt 0.546875 0.593750
vt 0.453125 0.359375
vt 0.453125 0.203125
vt 0.468750 0.203125
vt 0.468750 0.359375
vt 0.781250 0.093750
vt 0.781250 0.250000
vt 0.828125 0.250000
vt 0.828125 0.093750
vt 0.781250 0.093750
vt 0.781250 0.250000
vt 0.828125 0.250000
vt 0.828125 0.093750
vt 0.781250 0.093750
vt 0.781250 0.250000
vt 0.828125 0.250000
vt 0.828125 0.093750
vt 0.781250 0.093750
vt 0.781250 0.250000
vt 0.828125 0.250000
vt 0.828125 0.093750
vt 0.859375 0.093750
vt 0.859375 0.187500
vt 0.828125 0.187500
vt 0.828125 0.093750
vt 0.828125 0.187500
vt 0.828125 0.093750
vt 0.859375 0.093750
vt 0.859375 0.187500
vt 0.828125 0.187500
vt 0.859375 0.187500
vt 0.859375 0.093750
vt 0.828125 0.093750
vt 0.906250 0.062500
vt 0.843750 0.062500
vt 0.843750 0.093750
vt 0.906250 0.093750
vt 0.906250 0.062500
vt 0.843750 0.062500
vt 0.843750 0.093750
vt 0.906250 0.093750
vt 0.906250 0.062500
vt 0.906250 0.000000
vt 0.843750 0.000000
vt 0.843750 0.062500
vt 0.843750 0.062500
vt 0.906250 0.062500
vt 0.906250 0.093750
vt 0.843750 0.093750
vt 0.843750 0.062500
vt 0.906250 0.062500
vt 0.906250 0.093750
vt 0.843750 0.093750
vt 0.859375 0.093750
vt 0.859375 0.187500
vt 0.828125 0.187500
vt 0.828125 0.093750
vt 0.828125 0.187500
vt 0.828125 0.093750
vt 0.859375 0.093750
vt 0.859375 0.187500
vt 0.828125 0.187500
vt 0.859375 0.187500
vt 0.859375 0.093750
vt 0.828125 0.093750
vt 0.906250 0.062500
vt 0.843750 0.062500
vt 0.843750 0.093750
vt 0.906250 0.093750
vt 0.906250 0.062500
vt 0.843750 0.062500
vt 0.843750 0.093750
vt 0.906250 0.093750
vt 0.906250 0.062500
vt 0.906250 0.000000
vt 0.843750 0.000000
vt 0.843750 0.062500
vt 0.843750 0.062500
vt 0.906250 0.062500
vt 0.906250 0.093750
vt 0.843750 0.093750
vt 0.843750 0.062500
vt 0.906250 0.062500
vt 0.906250 0.093750
vt 0.843750 0.093750
vn 1 0 0
vn -1 0 0
vn 0 1 0
vn 0 -1 0
vn 0 0 1
vn 1 0 0
vn -1 0 0
vn 0 1 0
vn 0 -1 0
vn 0 0 -1
vn 1 0 0
vn -1 0 0
vn 0 1 0
vn 0 -1 0
vn 0 0 -1
vn 0 0 -1
vn 0 1 0
vn 0 -1 0
vn 0 0 -1
vn 0 0 1
vn 1 0 0
vn -1 0 0
vn 0 1 0
vn 1 0 0
vn -1 0 0
vn 0 1 0
vn 0 0 -1
vn 0 0 1
vn 1 0 0
vn -1 0 0
vn 0 1 0
vn 1 0 0
vn -1 0 0
vn 0 1 0
vn 0 0 -1
vn 0 0 1
usemtl emplacement
f 649/1685/422 647/1686/422 646/1687/422
f 649/1685/422 646/1687/422 648/1688/422
f 652/1689/423 650/1690/423 651/1691/423
f 652/1689/423 651/1691/423 653/1692/423
f 646/1693/424 647/1694/424 651/1695/424
f 646/1693/424 651/1695/424 650/1696/424
f 649/1697/425 648/1698/425 652/1699/425
f 649/1697/425 652/1699/425 653/1700/425
f 648/1701/426 646/1702/426 650/1703/426
f 648/1701/426 650/1703/426 652/1704/426
f 657/1705/427 655/1706/427 654/1707/427
f 657/1705/427 654/1707/427 656/1708/427
f 653/1709/428 651/1710/428 658/1711/428
f 653/1709/428 658/1711/428 659/1712/428
f 654/1713/429 655/1714/429 658/1715/429
f 654/1713/429 658/1715/429 651/1716/429
f 657/1717/430 656/1718/430 653/1719/430
f 657/1717/430 653/1719/430 659/1720/430
f 659/1721/431 658/1722/431 655/1723/431
f 659/1721/431 655/1723/431 657/1724/431
f 661/1725/432 660/1726/432 647/1727/432
f 661/1725/432 647/1727/432 649/1728/432
f 664/1729/433 662/1730/433 663/1731/433
f 664/1729/433 663/1731/433 665/1732/433
f 647/1733/434 660/1734/434 663/1735/434
f 647/1733/434 663/1735/434 662/1736/434
f 661/1737/435 649/1738/435 664/1739/435
f 661/1737/435 664/1739/435 665/1740/435
f 665/1741/436 663/1742/436 660/1743/436
f 665/1741/436 660/1743/436 661/1744/436
f 654/1745/437 662/1746/437 664/1747/437
f 654/1745/437 664/1747/437 656/1748/437
f 671/1749/438 667/1750/438 666/1751/438
f 671/1749/438 666/1751/438 670/1752/438
f 672/1753/439 668/1754/439 669/1755/439
f 672/1753/439 669/1755/439 673/1756/439
f 670/1757/440 666/1758/440 668/1759/440
f 670/1757/440 668/1759/440 672/1760/440
f 667/1761/441 671/1762/441 673/1763/441
f 667/1761/441 673/1763/441 669/1764/441
f 674/1765/442 675/1766/442 677/1767/442
f 674/1765/442 677/1767/442 676/1768/442
f 679/1769/443 678/1770/443 680/1771/443
f 679/1769/443 680/1771/443 681/1772/443
f 679/1773/444 675/1774/444 674/1775/444
f 679/1773/444 674/1775/444 678/1776/444
f 682/1777/445 683/1778/445 685/1779/445
f 682/1777/445 685/1779/445 684/1780/445
f 687/1781/446 686/1782/446 688/1783/446
f 687/1781/446 688/1783/446 689/1784/446
f 687/1785/447 683/1786/447 682/1787/447
f 687/1785/447 682/1787/447 686/1788/447
f 686/1789/448 682/1790/448 684/1791/448
f 686/1789/448 684/1791/448 688/1792/448
f 683/1793/449 687/1794/449 689/1795/449
f 683/1793/449 689/1795/449 685/1796/449
f 690/1797/450 691/1798/450 693/1799/450
f 690/1797/450 693/1799/450 692/1800/450
f 695/1801/451 694/1802/451 696/1803/451
f 695/1801/451 696/1803/451 697/1804/451
f 695/1805/452 691/1806/452 690/1807/452
f 695/1805/452 690/1807/452 694/1808/452
f 698/1809/453 699/1810/453 701/1811/453
f 698/1809/453 701/1811/453 700/1812/453
f 703/1813/454 702/1814/454 704/1815/454
f 703/1813/454 704/1815/454 705/1816/454
f 703/1817/455 699/1818/455 698/1819/455
f 703/1817/455 698/1819/455 702/1820/455
f 702/1821/456 698/1822/456 700/1823/456
f 702/1821/456 700/1823/456 704/1824/456
f 699/1825/457 703/1826/457 705/1827/457
f 699/1825/457 705/1827/457 701/1828/457