# Made by Pabilo8 with Blockbench
# Exported with IIToolkit Plugin
mtllib emplacement.mtl


o main
v 0.1875 1.125 0.3125
v 0.1875 1.125 0.0625
v 0.1875 0.875 0.3125
v 0.1875 0.875 0.0625
v -0.1875 1.125 0.3125
v -0.1875 1.125 0.0625
v -0.1875 0.875 0.3125
v -0.1875 0.875 0.0625
v 1.1875 1.125 0.3125
v 1.1875 1.125 0.0625
v 1.1875 0.875 0.3125
v 1.1875 0.875 0.0625
v 0.8125 1.125 0.3125
v 0.8125 1.125 0.0625
v 0.8125 0.875 0.3125
v 0.8125 0.875 0.0625
v 1.1875 1.125 2.6875
v 1.1875 1.125 2.9375
v 1.1875 0.875 2.6875
v 1.1875 0.875 2.9375
v 0.8125 1.125 2.6875
v 0.8125 1.125 2.9375
v 0.8125 0.875 2.6875
v 0.8125 0.875 2.9375
v 0.1875 1.125 2.6875
v 0.1875 1.125 2.9375
v 0.1875 0.875 2.6875
v 0.1875 0.875 2.9375
v -0.1875 1.125 2.6875
v -0.1875 1.125 2.9375
v -0.1875 0.875 2.6875
v -0.1875 0.875 2.9375
v 1.75 0.875 2.75
v 1.75 0.875 0.25
v 1.75 -3.75 2.75
v 1.75 -3.75 0.25
v -0.75 0.875 2.75
v -0.75 0.875 0.25
v -0.75 -3.75 2.75
v -0.75 -3.75 0.25
v 1.75 -3.75 1.5
v -0.75 -3.75 1.5
v -0.75 0.875 1.5
v 1.75 0.875 1.5
v 1.75 -1.4375 1.5
v 1.75 -1.4375 2.75
v -0.75 -1.4375 2.75
v -0.75 -1.4375 1.5
v -0.75 -1.4375 0.25
v 1.75 -1.4375 0.25
v 0.5 -3.75 1.5
v 0.5 -3.75 2.75
v 0.5 -1.4375 2.75
v 0.5 0.875 2.75
v 0.5 -3.75 0.25
v 0.5 -1.4375 0.25
v 0.5 0.875 0.25
v 1 -3.625 2
v 1 -3.625 1
v 1 -3.75 2
v 1 -3.75 1
v 0 -3.625 2
v 0 -3.625 1
v 0 -3.75 2
v 0 -3.75 1
v 1.75 -3.625 2.75
v 1.75 -3.625 0.25
v -0.75 -3.625 2.75
v -0.75 -3.625 0.25
v 1.5625 -3.625 0.4375
v -0.5625 -3.625 0.4375
v 1.5625 -3.625 2.5625
v -0.5625 -3.625 2.5625
v 1.75 -3.625 1.5
v 1.5625 -3.625 1.5
v -0.5625 -3.625 1.5
v -0.75 -3.625 1.5
v 0.5 -3.625 2.5625
v 0.5 -3.625 2.75
v 0.5 -3.625 0.4375
v 0.5 -3.625 0.25
v 0.5 -3.6875 2.5625
v -0.5625 -3.6875 2.5625
v 1.5625 -3.6875 2.5625
v -0.5625 -3.6875 1.5
v -0.5625 -3.6875 0.4375
v 0.5 -3.6875 0.4375
v 1.5625 -3.6875 0.4375
v 1.5625 -3.6875 1.5
v 1.75 0.875 2.75
v 1.75 0.875 0.25
v -0.75 0.875 2.75
v -0.75 0.875 0.25
v 1.5625 0.875 0.4375
v -0.5625 0.875 0.4375
v 1.5625 0.875 2.5625
v -0.5625 0.875 2.5625
v 1.75 0.875 1.5
v 1.5625 0.875 1.5
v -0.5625 0.875 1.5
v -0.75 0.875 1.5
v 0.5 0.875 2.5625
v 0.5 0.875 2.75
v 0.5 0.875 0.4375
v 0.5 0.875 0.25
v 1.5625 0.8125 2.5625
v 0.5 0.8125 2.5625
v 0.5 0.8125 2.75
v 1.75 0.8125 2.75
v 1.75 0.8125 1.5
v 1.5625 0.8125 1.5
v 1.5625 0.8125 0.4375
v 1.75 0.8125 0.25
v 0.5 0.8125 0.4375
v 0.5 0.8125 0.25
v -0.5625 0.8125 0.4375
v -0.75 0.8125 0.25
v -0.5625 0.8125 1.5
v -0.75 0.8125 1.5
v -0.5625 0.8125 2.5625
v -0.75 0.8125 2.75
v 0.000690625 -3.5 3.002055625
v -1 -3.5 3
v 2 -3.5 3
v 0.99710375 -3.5 3.000635
v 2 -3.5 2
v 2 -3.5 1
v 0 -4 3
v -1 -4 3
v 2 -4 3
v 1 -4 3
v 1 -4 0
v 0 -4 0
v 2 -4 2
v 2 -4 1
v -1 -3.5 0
v -1 -4 0
v 0 -3.5 -0.004823125000000011
v 1 -3.5 0
v 0 -3.5 2.938213125
v -0.9375 -3.5 2.9375
v 2 -3.5 2.9375
v 0.99962875 -3.5 2.937861875
v -0.9375 -3.5 0
v 0.00138125 -3.5 0.060361250000000005
v 1 -3.5 0.0625
v -1 -3 3
v -0.5 -3 3
v -0.5 -3.5 3
v 2 -3 3
v 1.5 -3 3
v 1.5 -3.5 3
v -1 -3 0.5
v -1 -3.5 0.5
v -1 -3 0
v -1 -3 2.5
v -1 -3.5 2.5
v 2 -3 1
v 1.9375 -3 1
v 1.9375 -3.5 1
v 2 -3 2
v 1.9375 -3 2
v 1.9375 -3.5 2
v 0.991445 -3 -0.00552625000000001
v 0.994208125 -3 0.05751937500000001
v 0.994208125 -3.5 0.05751937500000001
v 0.991445 -3.5 -0.00552625000000001
v 0 -3 -0.004823125000000011
v 0.002763125 -3 0.05822250000000001
v 2 -4 0
v 1.937500625 -3.25 2.375
v -0.125 -3.125 0.0625
v -0.875 -3.125 0.062499374999999996
v -0.875 -3.875 0.062499374999999996
v -0.125 -3.875 0.0625
v -0.125 -3.875 0
v -0.875000625 -3.875 0
v -0.125 -3.125 0
v -0.875000625 -3.125 0
v -0.25 -3.25 -0.0015624999999999944
v -0.75 -3.25 -0.0015624999999999944
v -0.75 -3.75 -0.0015624999999999944
v -0.25 -3.75 -0.0015624999999999944
v -0.75 -3.25 0.062499374999999996
v -0.250000625 -3.25 0.0625
v -0.250000625 -3.75 0.0625
v -0.75 -3.75 0.062499374999999996
v 1.9375 -3.125 2.875
v 1.937500625 -3.125 2.125
v 1.937500625 -3.875 2.125
v 1.9375 -3.875 2.875
v 2 -3.875 2.875
v 2 -3.875 2.124999375
v 2 -3.125 2.875
v 2 -3.125 2.124999375
v 2.0015625 -3.25 2.75
v 2.0015625 -3.25 2.25
v 2.0015625 -3.75 2.25
v 2.0015625 -3.75 2.75
v 1.937500625 -3.25 2.25
v 1.9375 -3.25 2.749999375
v 1.9375 -3.75 2.749999375
v 1.937500625 -3.75 2.25
v 2.0015625 -3.0625 2.625
v 2.0015625 -3.0625 2.375
v 2.0015625 -3.25 2.375
v 2.0015625 -3.25 2.625
v 1.9375 -3.0625 2.625
v 1.9375 -3.25 2.625
v 1.937500625 -3.0625 2.375
v 1.9375 -3.125 0.875
v 1.937500625 -3.125 0.125
v 1.937500625 -3.875 0.125
v 1.9375 -3.875 0.875
v 2 -3.875 0.875
v 2 -3.875 0.124999375
v 2 -3.125 0.875
v 2 -3.125 0.124999375
v 2 -3 0
v 2.0015625 -3.25 0.75
v 2.0015625 -3.25 0.25
v 2.0015625 -3.75 0.25
v 2.0015625 -3.75 0.75
v 1.937500625 -3.25 0.25
v 1.9375 -3.25 0.749999375
v 1.9375 -3.75 0.749999375
v 1.937500625 -3.75 0.25
v 2.0015625 -3.0625 0.625
v 2.0015625 -3.0625 0.375
v 2.0015625 -3.25 0.375
v 2.0015625 -3.25 0.625
v 1.9375 -3.0625 0.625
v 1.9375 -3.25 0.625
v 1.937500625 -3.0625 0.375
v 1.937500625 -3.25 0.375
v 1.875 -3.125 0.0625
v 1.125 -3.125 0.062499374999999996
v 1.125 -3.875 0.062499374999999996
v 1.875 -3.875 0.0625
v 1.875 -3.875 0
v 1.124999375 -3.875 0
v 1.875 -3.125 0
v 1.124999375 -3.125 0
v 0.999999375 -3 0
v 1.75 -3.25 -0.0015624999999999944
v 1.25 -3.25 -0.0015624999999999944
v 1.25 -3.75 -0.0015624999999999944
v 1.75 -3.75 -0.0015624999999999944
v 1.25 -3.25 0.062499374999999996
v 1.749999375 -3.25 0.0625
v 1.749999375 -3.75 0.0625
v 1.25 -3.75 0.062499374999999996
v 1.625 -3.0625 -0.0015624999999999944
v 1.375 -3.0625 -0.0015624999999999944
v 1.375 -3.25 -0.0015624999999999944
v 1.625 -3.25 -0.0015624999999999944
v 1.625 -3.0625 0.0625
v 1.625 -3.25 0.0625
v 1.375 -3.0625 0.062499374999999996
v 1.375 -3.25 0.062499374999999996
v 0.875 -3.125 2.9375
v 0.125 -3.125 2.937500625
v 0.125 -3.875 2.937500625
v 0.875 -3.875 2.9375
v 0.875 -3.875 3
v 0.124999375 -3.875 3
v 0.875 -3.125 3
v 0.99710375 -3 3.000635
v 0.124999375 -3.125 3
v 0.00138125 -3 3.00098625
v 0.75 -3.25 3.0015625
v 0.25 -3.25 3.0015625
v 0.25 -3.75 3.0015625
v 0.75 -3.75 3.0015625
v 0.25 -3.25 2.937500625
v 0.749999375 -3.25 2.9375
v 0.749999375 -3.75 2.9375
v 0.25 -3.75 2.937500625
v 0.991445 -3 2.93822375
v 0 -3 2.938926875
vt 0.90625 0
vt 0.90625 0.0625
vt 0.84375 0.0625
vt 0.84375 0
vt 0.90625 0
vt 0.90625 0.0625
vt 0.84375 0.0625
vt 0.84375 0
vt 0.78125 0
vt 0.84375 0
vt 0.84375 0.09375
vt 0.78125 0.09375
vt 0.78125 0
vt 0.84375 0
vt 0.84375 0.09375
vt 0.78125 0.09375
vt 0.84375 0
vt 0.78125 0
vt 0.78125 0.09375
vt 0.84375 0.09375
vt 0.78125 0.09375
vt 0.84375 0.09375
vt 0.84375 0
vt 0.78125 0
vt 0.90625 0
vt 0.90625 0.0625
vt 0.84375 0.0625
vt 0.84375 0
vt 0.90625 0
vt 0.90625 0.0625
vt 0.84375 0.0625
vt 0.84375 0
vt 0.78125 0
vt 0.84375 0
vt 0.84375 0.09375
vt 0.78125 0.09375
vt 0.78125 0
vt 0.84375 0
vt 0.84375 0.09375
vt 0.78125 0.09375
vt 0.84375 0
vt 0.78125 0
vt 0.78125 0.09375
vt 0.84375 0.09375
vt 0.78125 0.09375
vt 0.84375 0.09375
vt 0.84375 0
vt 0.78125 0
vt 0.84375 0.0625
vt 0.90625 0.0625
vt 0.90625 0
vt 0.84375 0
vt 0.84375 0.0625
vt 0.90625 0.0625
vt 0.90625 0
vt 0.84375 0
vt 0.84375 0.09375
vt 0.84375 0
vt 0.78125 0
vt 0.78125 0.09375
vt 0.84375 0.09375
vt 0.84375 0
vt 0.78125 0
vt 0.78125 0.09375
vt 0.78125 0.09375
vt 0.78125 0
vt 0.84375 0
vt 0.84375 0.09375
vt 0.84375 0
vt 0.84375 0.09375
vt 0.78125 0.09375
vt 0.78125 0
vt 0.84375 0.0625
vt 0.90625 0.0625
vt 0.90625 0
vt 0.84375 0
vt 0.84375 0.0625
vt 0.90625 0.0625
vt 0.90625 0
vt 0.84375 0
vt 0.84375 0.09375
vt 0.84375 0
vt 0.78125 0
vt 0.78125 0.09375
vt 0.84375 0.09375
vt 0.84375 0
vt 0.78125 0
vt 0.78125 0.09375
vt 0.78125 0.09375
vt 0.78125 0
vt 0.84375 0
vt 0.84375 0.09375
vt 0.84375 0
vt 0.84375 0.09375
vt 0.78125 0.09375
vt 0.78125 0
vt 0.4375 0.421875
vt 0.75 0.421875
vt 0.75 1
vt 0.4375 1
vt 0 0.828125
vt 0.3125 0.828125
vt 0.3125 0.25
vt 0 0.25
vt 0.34375 1
vt 0.03125 1
vt 0.03125 0.6875
vt 0.34375 0.6875
vt 0.75 1
vt 0.4375 1
vt 0.4375 0.421875
vt 0.75 0.421875
vt 0 0.421875
vt 0.3125 0.421875
vt 0.3125 1
vt 0 1
vt 0.3125 0.6875
vt 0.3125 1
vt 0 1
vt 0 0.6875
vt 0.4375 0.421875
vt 0.75 0.421875
vt 0.75 1
vt 0.4375 1
vt 0 0.421875
vt 0.3125 0.421875
vt 0.3125 1
vt 0 1
vt 0.75 0.828125
vt 0.4375 0.828125
vt 0.4375 0.25
vt 0.75 0.25
vt 0.75 0.828125
vt 0.4375 0.828125
vt 0.4375 0.25
vt 0.75 0.25
vt 0.3125 0.828125
vt 0 0.828125
vt 0 0.25
vt 0.3125 0.25
vt 0.75 0.828125
vt 0.4375 0.828125
vt 0.4375 0.25
vt 0.75 0.25
vt 0 1
vt 0.3125 1
vt 0.3125 0.421875
vt 0 0.421875
vt 0.3125 0.828125
vt 0 0.828125
vt 0 0.25
vt 0.3125 0.25
vt 0 0.96875
vt 0.3125 0.96875
vt 0.3125 0.65625
vt 0 0.65625
vt 0 0.25
vt 0.3125 0.25
vt 0.3125 0.828125
vt 0 0.828125
vt 0 0.421875
vt 0.3125 0.421875
vt 0.3125 1
vt 0 1
vt 0 0.6875
vt 0.3125 0.6875
vt 0.3125 1
vt 0 1
vt 0.75 0.828125
vt 0.4375 0.828125
vt 0.4375 0.25
vt 0.75 0.25
vt 0.765625 1
vt 0.453125 1
vt 0.453125 0.421875
vt 0.765625 0.421875
vt 0.5 0
vt 0.5 0.03125
vt 0.78125 0.03125
vt 0.78125 0
vt 0.78125 0
vt 0.78125 0.03125
vt 0.5 0.03125
vt 0.5 0
vt 0.78125 0.03125
vt 0.78125 0.3125
vt 0.5 0.3125
vt 0.5 0.03125
vt 0.78125 0
vt 0.78125 0.03125
vt 0.5 0.03125
vt 0.5 0
vt 0.5 0
vt 0.5 0.03125
vt 0.78125 0.03125
vt 0.78125 0
vt 0.828125 0.453125
vt 0.828125 0.1875
vt 0.875 0.1875
vt 0.875 0.5
vt 0.875 0.5
vt 0.875 0.1875
vt 0.828125 0.1875
vt 0.828125 0.453125
vt 0.828125 0.453125
vt 0.828125 0.1875
vt 0.875 0.1875
vt 0.875 0.5
vt 0.828125 0.453125
vt 0.828125 0.1875
vt 0.875 0.1875
vt 0.875 0.5
vt 0.828125 0.453125
vt 0.828125 0.1875
vt 0.875 0.1875
vt 0.875 0.5
vt 0.828125 0.453125
vt 0.828125 0.1875
vt 0.875 0.1875
vt 0.875 0.5
vt 0.828125 0.453125
vt 0.828125 0.1875
vt 0.875 0.1875
vt 0.875 0.5
vt 0.828125 0.453125
vt 0.828125 0.1875
vt 0.875 0.1875
vt 0.875 0.5
vt 0.828125 0.1875
vt 0.84375 0.1875
vt 0.84375 0.453125
vt 0.828125 0.453125
vt 0.828125 0.453125
vt 0.84375 0.453125
vt 0.84375 0.1875
vt 0.828125 0.1875
vt 0.828125 0.453125
vt 0.84375 0.453125
vt 0.84375 0.1875
vt 0.828125 0.1875
vt 0.828125 0.1875
vt 0.84375 0.1875
vt 0.84375 0.453125
vt 0.828125 0.453125
vt 0.828125 0.453125
vt 0.84375 0.453125
vt 0.84375 0.1875
vt 0.828125 0.1875
vt 0.828125 0.1875
vt 0.84375 0.1875
vt 0.84375 0.453125
vt 0.828125 0.453125
vt 0.828125 0.1875
vt 0.84375 0.1875
vt 0.84375 0.453125
vt 0.828125 0.453125
vt 0.828125 0.1875
vt 0.84375 0.1875
vt 0.84375 0.453125
vt 0.828125 0.453125
vt 0.390625 0.703125
vt 0.65625 0.703125
vt 0.65625 0.75
vt 0.34375 0.75
vt 0.34375 0.75
vt 0.65625 0.75
vt 0.65625 0.703125
vt 0.390625 0.703125
vt 0.390625 0.703125
vt 0.65625 0.703125
vt 0.65625 0.75
vt 0.34375 0.75
vt 0.390625 0.75
vt 0.65625 0.75
vt 0.65625 0.703125
vt 0.34375 0.703125
vt 0.390625 0.703125
vt 0.65625 0.703125
vt 0.65625 0.75
vt 0.34375 0.75
vt 0.390625 0.703125
vt 0.65625 0.703125
vt 0.65625 0.75
vt 0.34375 0.75
vt 0.390625 0.703125
vt 0.65625 0.703125
vt 0.65625 0.75
vt 0.34375 0.75
vt 0.390625 0.703125
vt 0.65625 0.703125
vt 0.65625 0.75
vt 0.34375 0.75
vt 0.34375 0.75
vt 0.34375 0.734375
vt 0.609375 0.734375
vt 0.609375 0.75
vt 0.609375 0.75
vt 0.609375 0.734375
vt 0.34375 0.734375
vt 0.34375 0.75
vt 0.609375 0.75
vt 0.609375 0.734375
vt 0.34375 0.734375
vt 0.34375 0.75
vt 0.34375 0.75
vt 0.34375 0.734375
vt 0.609375 0.734375
vt 0.609375 0.75
vt 0.609375 0.75
vt 0.609375 0.734375
vt 0.34375 0.734375
vt 0.34375 0.75
vt 0.34375 0.75
vt 0.34375 0.734375
vt 0.609375 0.734375
vt 0.609375 0.75
vt 0.609375 0.734375
vt 0.34375 0.734375
vt 0.34375 0.75
vt 0.609375 0.75
vt 0.34375 0.75
vt 0.34375 0.734375
vt 0.609375 0.734375
vt 0.609375 0.75
vt 0.65625 0.75
vt 0.65625 0.703125
vt 0.390625 0.703125
vt 0.34375 0.75
vt 0.65625 0.703125
vt 0.65625 0.75
vt 0.34375 0.75
vt 0.390625 0.703125
vt 0.65625 0.75
vt 0.65625 0.703125
vt 0.390625 0.703125
vt 0.34375 0.75
vt 0.65625 0.703125
vt 0.65625 0.75
vt 0.390625 0.75
vt 0.34375 0.703125
vt 0.65625 0.75
vt 0.65625 0.703125
vt 0.390625 0.703125
vt 0.34375 0.75
vt 0.65625 0.75
vt 0.65625 0.703125
vt 0.390625 0.703125
vt 0.34375 0.75
vt 0.65625 0.75
vt 0.65625 0.703125
vt 0.390625 0.703125
vt 0.34375 0.75
vt 0.65625 0.75
vt 0.65625 0.703125
vt 0.390625 0.703125
vt 0.34375 0.75
vt 0.75 0.75
vt 0.875 0.75
vt 0.875 1
vt 0.75 1
vt 0.75 0.5
vt 0.875 0.5
vt 0.875 0.75
vt 0.75 0.75
vt 0.75 1
vt 0.875 1
vt 0.875 0.75
vt 0.75 0.75
vt 0.75 1
vt 0.875 1
vt 0.875 0.75
vt 0.75 0.75
vt 0.875 1
vt 1 1
vt 1 0.25
vt 0.875 0.25
vt 0.890625 1
vt 0.875 1
vt 0.875 0.75
vt 0.890625 0.765625
vt 0.890625 1
vt 0.875 1
vt 0.875 0.75
vt 0.890625 0.75
vt 0.984375 1
vt 1 1
vt 1 0.25
vt 0.984375 0.25
vt 0.875 0.75
vt 0.859375 0.75
vt 0.859375 0.5
vt 0.875 0.5
vt 0.875 1
vt 0.859375 1
vt 0.859375 0.75
vt 0.875 0.75
vt 0.546875 0.34375
vt 0.546875 0.46875
vt 0.671875 0.46875
vt 0.671875 0.34375
vt 0.671875 0.59375
vt 0.671875 0.46875
vt 0.546875 0.46875
vt 0.546875 0.59375
vt 0.546875 0.34375
vt 0.546875 0.46875
vt 0.671875 0.46875
vt 0.671875 0.34375
vt 0.671875 0.59375
vt 0.671875 0.46875
vt 0.546875 0.46875
vt 0.546875 0.59375
vt 0.5625 0.59375
vt 0.5625 0.46875
vt 0.546875 0.46875
vt 0.546875 0.59375
vt 0.546875 0.46875
vt 0.5625 0.46875
vt 0.5625 0.59375
vt 0.546875 0.59375
vt 0.5625 0.59375
vt 0.5625 0.46875
vt 0.546875 0.46875
vt 0.546875 0.59375
vt 0.546875 0.46875
vt 0.5625 0.46875
vt 0.5625 0.59375
vt 0.546875 0.59375
vt 0 0.25
vt 0.75 0.25
vt 0.75 1
vt 0 1
vt 0.96875 0.03125
vt 0.96875 0.21875
vt 0.78125 0.21875
vt 0.78125 0.03125
vt 0.96875 0.21875
vt 0.96875 0.03125
vt 1 0
vt 1 0.25
vt 0.78125 0.21875
vt 0.96875 0.21875
vt 1 0.25
vt 0.75 0.25
vt 0.78125 0.03125
vt 0.78125 0.21875
vt 0.75 0.25
vt 0.75 0
vt 0.96875 0.03125
vt 0.78125 0.03125
vt 0.75 0
vt 1 0
vt 0.984375 0.03125
vt 0.984375 0.21875
vt 0.96875 0.21875
vt 0.96875 0.03125
vt 0.78125 0.21875
vt 0.96875 0.21875
vt 0.96875 0.234375
vt 0.78125 0.234375
vt 0.78125 0.03125
vt 0.78125 0.21875
vt 0.765625 0.21875
vt 0.765625 0.03125
vt 0.96875 0.015625
vt 0.78125 0.015625
vt 0.78125 0.03125
vt 0.96875 0.03125
vt 0.625 0.609375
vt 0.75 0.609375
vt 0.75 0.59375
vt 0.625 0.59375
vt 0.75 0.5
vt 0.625 0.5
vt 0.625 0.484375
vt 0.75 0.484375
vt 0.641015625 0.484375
vt 0.641015625 0.609375
vt 0.625 0.609375
vt 0.625 0.484375
vt 0.750390625 0.484375
vt 0.750390625 0.609375
vt 0.734375 0.609375
vt 0.734375 0.484375
vt 0.75 0.484375
vt 0.75 0.609375
vt 0.625 0.609375
vt 0.625 0.484375
vt 0.96875 0.03125
vt 0.96875 0.21875
vt 0.78125 0.21875
vt 0.78125 0.03125
vt 0.96875 0.21875
vt 0.96875 0.03125
vt 1 0
vt 1 0.25
vt 0.78125 0.21875
vt 0.96875 0.21875
vt 1 0.25
vt 0.75 0.25
vt 0.78125 0.03125
vt 0.78125 0.21875
vt 0.75 0.25
vt 0.75 0
vt 0.96875 0.03125
vt 0.78125 0.03125
vt 0.75 0
vt 1 0
vt 0.984375 0.03125
vt 0.984375 0.21875
vt 0.96875 0.21875
vt 0.96875 0.03125
vt 0.78125 0.21875
vt 0.96875 0.21875
vt 0.96875 0.234375
vt 0.78125 0.234375
vt 0.78125 0.03125
vt 0.78125 0.21875
vt 0.765625 0.21875
vt 0.765625 0.03125
vt 0.96875 0.015625
vt 0.78125 0.015625
vt 0.78125 0.03125
vt 0.96875 0.03125
vt 0.375 0.609375
vt 0.5 0.609375
vt 0.5 0.59375
vt 0.375 0.59375
vt 0.5 0.5
vt 0.375 0.5
vt 0.375 0.484375
vt 0.5 0.484375
vt 0.391015625 0.484375
vt 0.391015625 0.609375
vt 0.375 0.609375
vt 0.375 0.484375
vt 0.500390625 0.484375
vt 0.500390625 0.609375
vt 0.484375 0.609375
vt 0.484375 0.484375
vt 0.0625 0.6875
vt 0.0625 0.734375
vt 0 0.734375
vt 0 0.6875
vt 0.016015625 0.6875
vt 0.016015625 0.734375
vt 0 0.734375
vt 0 0.6875
vt 0.062890625 0.6875
vt 0.062890625 0.734375
vt 0.046875 0.734375
vt 0.046875 0.6875
vt 0.5 0.484375
vt 0.5 0.609375
vt 0.375 0.609375
vt 0.375 0.484375
vt 0.96875 0.03125
vt 0.96875 0.21875
vt 0.78125 0.21875
vt 0.78125 0.03125
vt 0.96875 0.21875
vt 0.96875 0.03125
vt 1 0
vt 1 0.25
vt 0.78125 0.21875
vt 0.96875 0.21875
vt 1 0.25
vt 0.75 0.25
vt 0.78125 0.03125
vt 0.78125 0.21875
vt 0.75 0.25
vt 0.75 0
vt 0.96875 0.03125
vt 0.78125 0.03125
vt 0.75 0
vt 1 0
vt 0.984375 0.03125
vt 0.984375 0.21875
vt 0.96875 0.21875
vt 0.96875 0.03125
vt 0.78125 0.21875
vt 0.96875 0.21875
vt 0.96875 0.234375
vt 0.78125 0.234375
vt 0.78125 0.03125
vt 0.78125 0.21875
vt 0.765625 0.21875
vt 0.765625 0.03125
vt 0.96875 0.015625
vt 0.78125 0.015625
vt 0.78125 0.03125
vt 0.96875 0.03125
vt 0.375 0.609375
vt 0.5 0.609375
vt 0.5 0.59375
vt 0.375 0.59375
vt 0.5 0.5
vt 0.375 0.5
vt 0.375 0.484375
vt 0.5 0.484375
vt 0.391015625 0.484375
vt 0.391015625 0.609375
vt 0.375 0.609375
vt 0.375 0.484375
vt 0.500390625 0.484375
vt 0.500390625 0.609375
vt 0.484375 0.609375
vt 0.484375 0.484375
vt 0.125 0.6875
vt 0.125 0.734375
vt 0.0625 0.734375
vt 0.0625 0.6875
vt 0.078515625 0.6875
vt 0.078515625 0.734375
vt 0.0625 0.734375
vt 0.0625 0.6875
vt 0.125390625 0.6875
vt 0.125390625 0.734375
vt 0.109375 0.734375
vt 0.109375 0.6875
vt 0.5 0.484375
vt 0.5 0.609375
vt 0.375 0.609375
vt 0.375 0.484375
vt 0.96875 0.03125
vt 0.96875 0.21875
vt 0.78125 0.21875
vt 0.78125 0.03125
vt 0.96875 0.21875
vt 0.96875 0.03125
vt 1 0
vt 1 0.25
vt 0.78125 0.21875
vt 0.96875 0.21875
vt 1 0.25
vt 0.75 0.25
vt 0.78125 0.03125
vt 0.78125 0.21875
vt 0.75 0.25
vt 0.75 0
vt 0.96875 0.03125
vt 0.78125 0.03125
vt 0.75 0
vt 1 0
vt 0.984375 0.03125
vt 0.984375 0.21875
vt 0.96875 0.21875
vt 0.96875 0.03125
vt 0.78125 0.21875
vt 0.96875 0.21875
vt 0.96875 0.234375
vt 0.78125 0.234375
vt 0.78125 0.03125
vt 0.78125 0.21875
vt 0.765625 0.21875
vt 0.765625 0.03125
vt 0.96875 0.015625
vt 0.78125 0.015625
vt 0.78125 0.03125
vt 0.96875 0.03125
vt 0.75 0.609375
vt 0.875 0.609375
vt 0.875 0.59375
vt 0.75 0.59375
vt 0.875 0.5
vt 0.75 0.5
vt 0.75 0.484375
vt 0.875 0.484375
vt 0.766015625 0.484375
vt 0.766015625 0.609375
vt 0.75 0.609375
vt 0.75 0.484375
vt 0.875390625 0.484375
vt 0.875390625 0.609375
vt 0.859375 0.609375
vt 0.859375 0.484375
vt 0.1875 0.6875
vt 0.1875 0.734375
vt 0.125 0.734375
vt 0.125 0.6875
vt 0.141015625 0.6875
vt 0.141015625 0.734375
vt 0.125 0.734375
vt 0.125 0.6875
vt 0.187890625 0.6875
vt 0.187890625 0.734375
vt 0.171875 0.734375
vt 0.171875 0.6875
vt 0.875 0.484375
vt 0.875 0.609375
vt 0.75 0.609375
vt 0.75 0.484375
vt 0.78125 0.21875
vt 0.96875 0.21875
vt 0.96875 0.03125
vt 0.78125 0.03125
vt 1 0
vt 0.96875 0.03125
vt 0.96875 0.21875
vt 1 0.25
vt 1 0.25
vt 0.96875 0.21875
vt 0.78125 0.21875
vt 0.75 0.25
vt 0.75 0.25
vt 0.78125 0.21875
vt 0.78125 0.03125
vt 0.75 0
vt 0.75 0
vt 0.78125 0.03125
vt 0.96875 0.03125
vt 1 0
vt 0.96875 0.21875
vt 0.984375 0.21875
vt 0.984375 0.03125
vt 0.96875 0.03125
vt 0.96875 0.234375
vt 0.96875 0.21875
vt 0.78125 0.21875
vt 0.78125 0.234375
vt 0.765625 0.21875
vt 0.78125 0.21875
vt 0.78125 0.03125
vt 0.765625 0.03125
vt 0.78125 0.03125
vt 0.78125 0.015625
vt 0.96875 0.015625
vt 0.96875 0.03125
vt 0.125 0.59375
vt 0.125 0.609375
vt 0 0.609375
vt 0 0.59375
vt 0 0.484375
vt 0 0.5
vt 0.125 0.5
vt 0.125 0.484375
vt 0 0.609375
vt 0.016015625 0.609375
vt 0.016015625 0.484375
vt 0 0.484375
vt 0.109375 0.609375
vt 0.125390625 0.609375
vt 0.125390625 0.484375
vt 0.109375 0.484375
vt 0 0.609375
vt 0.125 0.609375
vt 0.125 0.484375
vt 0 0.484375
vt 0.5625 0.46875
vt 0.546875 0.46875
vt 0.546875 0.59375
vt 0.5625 0.59375
vt 0.546875 0.59375
vt 0.546875 0.46875
vt 0.5625 0.46875
vt 0.5625 0.59375
vn 1 0 0
vn -1 0 0
vn 0 1 0
vn 0 -1 0
vn 0 0 1
vn 0 0 -1
vn 1 0 0
vn -1 0 0
vn 0 1 0
vn 0 -1 0
vn 0 0 1
vn 0 0 -1
vn 1 0 0
vn -1 0 0
vn 0 1 0
vn 0 -1 0
vn 0 0 -1
vn 0 0 1
vn 1 0 0
vn -1 0 0
vn 0 1 0
vn 0 -1 0
vn 0 0 -1
vn 0 0 1
vn -1 0 0
vn 1 0 0
vn 0 1 0
vn 0 0 -1
vn 0 0 1
vn 0 1 0
vn 1 0 0
vn -1 0 0
vn -1 0 0
vn 0 0 -1
vn 1 0 0
vn 1 0 0
vn 0 0 1
vn -1 0 0
vn 0 1 0
vn 0 0 -1
vn 0 0 -1
vn 0 1 0
vn 0 0 1
vn 0 0 1
vn 1 0 0
vn -1 0 0
vn 0 1 0
vn 0 0 1
vn 0 0 -1
vn 0 1 0
vn 0 1 0
vn 0 1 0
vn 0 1 0
vn 0 1 0
vn 0 1 0
vn 0 1 0
vn 0 1 0
vn 0 0 -1
vn 0 0 -1
vn 1 0 0
vn 1 0 0
vn 0 0 1
vn 0 0 1
vn 1 0 0
vn -1 0 0
vn 0 1 0
vn 0 1 0
vn 0 1 0
vn 0 1 0
vn 0 1 0
vn 0 1 0
vn 0 1 0
vn 0 1 0
vn 0 0 -1
vn 0 0 -1
vn 1 0 0
vn 1 0 0
vn 0 0 1
vn 0 0 1
vn -1 0 0
vn -1 0 0
vn 0 -1 0
vn 0 -1 0
vn 0 -1 0
vn 0 -1 0
vn 0 -1 0
vn 0 -1 0
vn 0 -1 0
vn 0 -1 0
vn 0.004822844529184029 -0.009645689058368058 -0.9999418487358336
vn 1 0 0
vn -0.0020541846434451163 -0.004108369286890233 0.9999894507579834
vn 0.0006331660654972151 0 0.9999997995503468
vn -1 0 0
vn 0 1 0
vn 0 1 0
vn 0 1 0
vn 0 1 0
vn 0 1 0
vn 0 0 1
vn 0 0 1
vn -1 0 0
vn -1 0 0
vn 0 0 1
vn 0 0 -1
vn 0.9990366191679452 -0.0029483784971508107 -0.04378516444778567
vn -0.9990409614768332 0 0.04378535475983704
vn 0 -1 0
vn 8.333333333385033e-7 0 -0.9999999999996528
vn 0 0 -1
vn 0 0 -1
vn -0.03855630931516918 0 -0.999256429057123
vn 0 0 -1
vn 0.999999999949999 0 -0.000010000100000121415
vn 0 -1 0
vn -1 0 0
vn 0 1 0
vn 0 1 0
vn 0 -1 0
vn 0.9999999999524094 0 0.000009756097560141968
vn -1 0 0
vn 0 0 -1
vn 0.9999999999996528 0 8.333333333014959e-7
vn 1 0 0
vn 1 0 0
vn 1 0 0
vn 1 0 0
vn 0.000010000100000121411 0 0.999999999949999
vn 0 -1 0
vn 0 0 -1
vn 0 1 0
vn 0 1 0
vn 0 -1 0
vn -0.000009756097563608044 0 0.9999999999524094
vn 0 0 -1
vn 1 0 0
vn 0 0 1
vn 0 0 -1
vn 1 0 0
vn 0.9999999999996528 0 8.333333333014959e-7
vn 1 0 0
vn 1 0 0
vn 1 0 0
vn 1 0 0
vn 0.000010000100000565504 0 0.999999999949999
vn 0 -1 0
vn 0 0 -1
vn 0 1 0
vn 0 1 0
vn 0 -1 0
vn -0.000009756097560141981 0 0.9999999999524094
vn 0 0 -1
vn 1 0 0
vn 0 0 1
vn 0 0 -1
vn 1 0 0
vn 8.333333333385033e-7 0 -0.9999999999996528
vn 0 0 -1
vn 0 0 -1
vn 0 0 -1
vn 0 0 -1
vn 0.999999999949999 0 -0.000010000100000121415
vn 0 -1 0
vn -1 0 0
vn 0 1 0
vn 0 1 0
vn 0 -1 0
vn 0.9999999999524094 0 0.000009756097560141968
vn -1 0 0
vn 0 0 -1
vn 1 0 0
vn -1 0 0
vn 0 0 -1
vn 8.333333335975554e-7 0 0.9999999999996528
vn 0 0 1
vn 0 -0.007889754426930752 0.9999688754031711
vn -0.00520042515760538 0 0.9999864776976639
vn 0 0 1
vn 0.999999999949999 0 0.00001000010000056554
vn 0 -1 0
vn -1 0 0
vn 0 1 0
vn 0 1 0
vn 0 -1 0
vn 0.9999999999524094 0 -0.000009756097560141981
vn -1 0 0
vn 0 0 1
vn -0.9997513868858693 0.001428496737543 0.022251377864119747
vn 0.9959147597609201 0 -0.09029834600007305
usemtl emplacement
f 4/1/1 2/2/1 1/3/1
f 4/1/1 1/3/1 3/4/1
f 7/5/2 5/6/2 6/7/2
f 7/5/2 6/7/2 8/8/2
f 1/9/3 2/10/3 6/11/3
f 1/9/3 6/11/3 5/12/3
f 4/13/4 3/14/4 7/15/4
f 4/13/4 7/15/4 8/16/4
f 3/17/5 1/18/5 5/19/5
f 3/17/5 5/19/5 7/20/5
f 8/21/6 6/22/6 2/23/6
f 8/21/6 2/23/6 4/24/6
f 12/25/7 10/26/7 9/27/7
f 12/25/7 9/27/7 11/28/7
f 15/29/8 13/30/8 14/31/8
f 15/29/8 14/31/8 16/32/8
f 9/33/9 10/34/9 14/35/9
f 9/33/9 14/35/9 13/36/9
f 12/37/10 11/38/10 15/39/10
f 12/37/10 15/39/10 16/40/10
f 11/41/11 9/42/11 13/43/11
f 11/41/11 13/43/11 15/44/11
f 16/45/12 14/46/12 10/47/12
f 16/45/12 10/47/12 12/48/12
f 17/49/13 18/50/13 20/51/13
f 17/49/13 20/51/13 19/52/13
f 22/53/14 21/54/14 23/55/14
f 22/53/14 23/55/14 24/56/14
f 22/57/15 18/58/15 17/59/15
f 22/57/15 17/59/15 21/60/15
f 23/61/16 19/62/16 20/63/16
f 23/61/16 20/63/16 24/64/16
f 21/65/17 17/66/17 19/67/17
f 21/65/17 19/67/17 23/68/17
f 18/69/18 22/70/18 24/71/18
f 18/69/18 24/71/18 20/72/18
f 25/73/19 26/74/19 28/75/19
f 25/73/19 28/75/19 27/76/19
f 30/77/20 29/78/20 31/79/20
f 30/77/20 31/79/20 32/80/20
f 30/81/21 26/82/21 25/83/21
f 30/81/21 25/83/21 29/84/21
f 31/85/22 27/86/22 28/87/22
f 31/85/22 28/87/22 32/88/22
f 29/89/23 25/90/23 27/91/23
f 29/89/23 27/91/23 31/92/23
f 26/93/24 30/94/24 32/95/24
f 26/93/24 32/95/24 28/96/24
usemtl common_rough_steel
f 45/97/25 46/98/25 33/99/25
f 45/97/25 33/99/25 44/100/25
f 47/101/26 48/102/26 43/103/26
f 47/101/26 43/103/26 37/104/26
usemtl emplacement
f 39/105/27 52/106/27 51/107/27
f 39/105/27 51/107/27 42/108/27
usemtl common_rough_steel
f 37/109/28 54/110/28 53/111/28
f 37/109/28 53/111/28 47/112/28
f 49/113/29 56/114/29 57/115/29
f 49/113/29 57/115/29 38/116/29
usemtl emplacement
f 42/117/30 51/118/30 55/119/30
f 42/117/30 55/119/30 40/120/30
usemtl common_rough_steel
f 48/121/31 49/122/31 38/123/31
f 48/121/31 38/123/31 43/124/31
f 50/125/32 45/126/32 44/127/32
f 50/125/32 44/127/32 34/128/32
f 46/129/33 45/130/33 41/131/33
f 46/129/33 41/131/33 35/132/33
f 47/133/34 53/134/34 52/135/34
f 47/133/34 52/135/34 39/136/34
f 48/137/35 47/138/35 39/139/35
f 48/137/35 39/139/35 42/140/35
f 49/141/36 48/142/36 42/143/36
f 49/141/36 42/143/36 40/144/36
f 40/145/37 55/146/37 56/147/37
f 40/145/37 56/147/37 49/148/37
f 45/149/38 50/150/38 36/151/38
f 45/149/38 36/151/38 41/152/38
usemtl emplacement
f 41/153/39 51/154/39 52/155/39
f 41/153/39 52/155/39 35/156/39
usemtl common_rough_steel
f 35/157/40 52/158/40 53/159/40
f 35/157/40 53/159/40 46/160/40
f 46/161/41 53/162/41 54/163/41
f 46/161/41 54/163/41 33/164/41
usemtl emplacement
f 36/165/42 55/166/42 51/167/42
f 36/165/42 51/167/42 41/168/42
usemtl common_rough_steel
f 50/169/43 56/170/43 55/171/43
f 50/169/43 55/171/43 36/172/43
f 34/173/44 57/174/44 56/175/44
f 34/173/44 56/175/44 50/176/44
usemtl emplacement
f 61/177/45 59/178/45 58/179/45
f 61/177/45 58/179/45 60/180/45
f 64/181/46 62/182/46 63/183/46
f 64/181/46 63/183/46 65/184/46
f 58/185/47 59/186/47 63/187/47
f 58/185/47 63/187/47 62/188/47
f 60/189/48 58/190/48 62/191/48
f 60/189/48 62/191/48 64/192/48
f 65/193/49 63/194/49 59/195/49
f 65/193/49 59/195/49 61/196/49
f 70/197/50 75/198/50 74/199/50
f 70/197/50 74/199/50 67/200/50
f 67/201/51 81/202/51 80/203/51
f 67/201/51 80/203/51 70/204/51
f 69/205/52 77/206/52 76/207/52
f 69/205/52 76/207/52 71/208/52
f 68/209/53 79/210/53 78/211/53
f 68/209/53 78/211/53 73/212/53
f 66/213/54 74/214/54 75/215/54
f 66/213/54 75/215/54 72/216/54
f 73/217/55 76/218/55 77/219/55
f 73/217/55 77/219/55 68/220/55
f 72/221/56 78/222/56 79/223/56
f 72/221/56 79/223/56 66/224/56
f 71/225/57 80/226/57 81/227/57
f 71/225/57 81/227/57 69/228/57
f 78/229/58 82/230/58 83/231/58
f 78/229/58 83/231/58 73/232/58
f 72/233/59 84/234/59 82/235/59
f 72/233/59 82/235/59 78/236/59
f 73/237/60 83/238/60 85/239/60
f 73/237/60 85/239/60 76/240/60
f 76/241/61 85/242/61 86/243/61
f 76/241/61 86/243/61 71/244/61
f 71/245/62 86/246/62 87/247/62
f 71/245/62 87/247/62 80/248/62
f 80/249/63 87/250/63 88/251/63
f 80/249/63 88/251/63 70/252/63
f 75/253/64 89/254/64 88/255/64
f 75/253/64 88/255/64 70/256/64
f 75/257/65 89/258/65 84/259/65
f 75/257/65 84/259/65 72/260/65
f 94/261/66 99/262/66 98/263/66
f 94/261/66 98/263/66 91/264/66
f 91/265/67 105/266/67 104/267/67
f 91/265/67 104/267/67 94/268/67
f 93/269/68 101/270/68 100/271/68
f 93/269/68 100/271/68 95/272/68
f 92/273/69 103/274/69 102/275/69
f 92/273/69 102/275/69 97/276/69
f 90/277/70 98/278/70 99/279/70
f 90/277/70 99/279/70 96/280/70
f 97/281/71 100/282/71 101/283/71
f 97/281/71 101/283/71 92/284/71
f 96/285/72 102/286/72 103/287/72
f 96/285/72 103/287/72 90/288/72
f 95/289/73 104/290/73 105/291/73
f 95/289/73 105/291/73 93/292/73
f 102/293/74 107/294/74 120/295/74
f 102/293/74 120/295/74 97/296/74
f 96/297/75 106/298/75 107/299/75
f 96/297/75 107/299/75 102/300/75
f 97/301/76 120/302/76 118/303/76
f 97/301/76 118/303/76 100/304/76
f 100/305/77 118/306/77 116/307/77
f 100/305/77 116/307/77 95/308/77
f 95/309/78 116/310/78 114/311/78
f 95/309/78 114/311/78 104/312/78
f 104/313/79 114/314/79 112/315/79
f 104/313/79 112/315/79 94/316/79
f 112/317/80 111/318/80 99/319/80
f 112/317/80 99/319/80 94/320/80
f 99/321/81 111/322/81 106/323/81
f 99/321/81 106/323/81 96/324/81
f 110/325/82 111/326/82 112/327/82
f 110/325/82 112/327/82 113/328/82
f 114/329/83 115/330/83 113/331/83
f 114/329/83 113/331/83 112/332/83
f 118/333/84 119/334/84 117/335/84
f 118/333/84 117/335/84 116/336/84
f 107/337/85 108/338/85 121/339/85
f 107/337/85 121/339/85 120/340/85
f 111/341/86 110/342/86 109/343/86
f 111/341/86 109/343/86 106/344/86
f 119/345/87 118/346/87 120/347/87
f 119/345/87 120/347/87 121/348/87
f 108/349/88 107/350/88 106/351/88
f 108/349/88 106/351/88 109/352/88
f 115/353/89 114/354/89 116/355/89
f 115/353/89 116/355/89 117/356/89
f 133/357/90 138/358/90 139/359/90
f 133/357/90 139/359/90 132/360/90
f 135/361/91 127/362/91 126/363/91
f 135/361/91 126/363/91 134/364/91
f 128/365/92 122/366/92 123/367/92
f 128/365/92 123/367/92 129/368/92
f 130/369/93 124/370/93 125/371/93
f 130/369/93 125/371/93 131/372/93
f 129/373/94 123/374/94 136/375/94
f 129/373/94 136/375/94 137/376/94
f 122/377/95 140/378/95 141/379/95
f 122/377/95 141/379/95 123/380/95
f 124/381/96 142/382/96 143/383/96
f 124/381/96 143/383/96 125/384/96
f 123/385/97 141/386/97 144/387/97
f 123/385/97 144/387/97 136/388/97
f 127/389/98 160/390/98 163/391/98
f 127/389/98 163/391/98 126/392/98
f 138/393/99 145/394/99 146/395/99
f 138/393/99 146/395/99 139/396/99
f 123/397/100 149/398/100 148/399/100
f 123/397/100 148/399/100 147/400/100
f 150/401/101 151/402/101 152/403/101
f 150/401/101 152/403/101 124/404/101
f 136/405/102 154/406/102 153/407/102
f 136/405/102 153/407/102 155/408/102
f 147/409/103 156/410/103 157/411/103
f 147/409/103 157/411/103 123/412/103
f 158/413/104 159/414/104 160/415/104
f 158/413/104 160/415/104 127/416/104
f 163/417/105 162/418/105 161/419/105
f 163/417/105 161/419/105 126/420/105
f 168/421/106 169/422/106 145/423/106
f 168/421/106 145/423/106 138/424/106
f 166/425/107 165/426/107 164/427/107
f 166/425/107 164/427/107 167/428/107
usemtl common_bottom
f 137/429/108 170/430/108 130/431/108
f 137/429/108 130/431/108 129/432/108
usemtl common_steel
f 174/433/109 173/434/109 172/435/109
f 174/433/109 172/435/109 175/436/109
f 179/437/110 177/438/110 137/439/110
f 179/437/110 137/439/110 155/440/110
f 178/441/111 179/442/111 155/443/111
f 178/441/111 155/443/111 168/444/111
f 176/445/112 178/446/112 168/447/112
f 176/445/112 168/447/112 133/448/112
f 177/449/113 176/450/113 133/451/113
f 177/449/113 133/451/113 137/452/113
f 173/453/114 174/454/114 177/455/114
f 173/453/114 177/455/114 179/456/114
f 172/457/115 173/458/115 179/459/115
f 172/457/115 179/459/115 178/460/115
f 175/461/116 172/462/116 178/463/116
f 175/461/116 178/463/116 176/464/116
f 174/465/117 175/466/117 176/467/117
f 174/465/117 176/467/117 177/468/117
usemtl common_thingies
f 180/469/118 181/470/118 184/471/118
f 180/469/118 184/471/118 185/472/118
f 182/473/119 183/474/119 186/475/119
f 182/473/119 186/475/119 187/476/119
f 183/477/120 180/478/120 185/479/120
f 183/477/120 185/479/120 186/480/120
f 187/481/121 184/482/121 181/483/121
f 187/481/121 181/483/121 182/484/121
f 182/485/122 181/486/122 180/487/122
f 182/485/122 180/487/122 183/488/122
usemtl common_steel
f 190/489/123 189/490/123 188/491/123
f 190/489/123 188/491/123 191/492/123
f 195/493/124 193/494/124 134/495/124
f 195/493/124 134/495/124 161/496/124
f 194/497/125 195/498/125 161/499/125
f 194/497/125 161/499/125 150/500/125
f 192/501/126 194/502/126 150/503/126
f 192/501/126 150/503/126 130/504/126
f 193/505/127 192/506/127 130/507/127
f 193/505/127 130/507/127 134/508/127
f 189/509/128 190/510/128 193/511/128
f 189/509/128 193/511/128 195/512/128
f 188/513/129 189/514/129 195/515/129
f 188/513/129 195/515/129 194/516/129
f 191/517/130 188/518/130 194/519/130
f 191/517/130 194/519/130 192/520/130
f 190/521/131 191/522/131 192/523/131
f 190/521/131 192/523/131 193/524/131
usemtl common_thingies
f 196/525/132 197/526/132 200/527/132
f 196/525/132 200/527/132 201/528/132
f 198/529/133 199/530/133 202/531/133
f 198/529/133 202/531/133 203/532/133
f 199/533/134 196/534/134 201/535/134
f 199/533/134 201/535/134 202/536/134
f 203/537/135 200/538/135 197/539/135
f 203/537/135 197/539/135 198/540/135
f 206/541/136 205/542/136 204/543/136
f 206/541/136 204/543/136 207/544/136
f 207/545/137 204/546/137 208/547/137
f 207/545/137 208/547/137 209/548/137
f 171/549/138 210/550/138 205/551/138
f 171/549/138 205/551/138 206/552/138
f 198/553/139 197/554/139 196/555/139
f 198/553/139 196/555/139 199/556/139
usemtl common_steel
f 213/557/140 212/558/140 211/559/140
f 213/557/140 211/559/140 214/560/140
f 218/561/141 216/562/141 170/563/141
f 218/561/141 170/563/141 219/564/141
f 217/565/142 218/566/142 219/567/142
f 217/565/142 219/567/142 158/568/142
f 215/569/143 217/570/143 158/571/143
f 215/569/143 158/571/143 135/572/143
f 216/573/144 215/574/144 135/575/144
f 216/573/144 135/575/144 170/576/144
f 212/577/145 213/578/145 216/579/145
f 212/577/145 216/579/145 218/580/145
f 211/581/146 212/582/146 218/583/146
f 211/581/146 218/583/146 217/584/146
f 214/585/147 211/586/147 217/587/147
f 214/585/147 217/587/147 215/588/147
f 213/589/148 214/590/148 215/591/148
f 213/589/148 215/591/148 216/592/148
usemtl common_thingies
f 220/593/149 221/594/149 224/595/149
f 220/593/149 224/595/149 225/596/149
f 222/597/150 223/598/150 226/599/150
f 222/597/150 226/599/150 227/600/150
f 223/601/151 220/602/151 225/603/151
f 223/601/151 225/603/151 226/604/151
f 227/605/152 224/606/152 221/607/152
f 227/605/152 221/607/152 222/608/152
f 230/609/153 229/610/153 228/611/153
f 230/609/153 228/611/153 231/612/153
f 231/613/154 228/614/154 232/615/154
f 231/613/154 232/615/154 233/616/154
f 235/617/155 234/618/155 229/619/155
f 235/617/155 229/619/155 230/620/155
f 222/621/156 221/622/156 220/623/156
f 222/621/156 220/623/156 223/624/156
usemtl common_steel
f 238/625/157 237/626/157 236/627/157
f 238/625/157 236/627/157 239/628/157
f 243/629/158 241/630/158 132/631/158
f 243/629/158 132/631/158 244/632/158
f 242/633/159 243/634/159 244/635/159
f 242/633/159 244/635/159 219/636/159
f 240/637/160 242/638/160 219/639/160
f 240/637/160 219/639/160 170/640/160
f 241/641/161 240/642/161 170/643/161
f 241/641/161 170/643/161 132/644/161
f 237/645/162 238/646/162 241/647/162
f 237/645/162 241/647/162 243/648/162
f 236/649/163 237/650/163 243/651/163
f 236/649/163 243/651/163 242/652/163
f 239/653/164 236/654/164 242/655/164
f 239/653/164 242/655/164 240/656/164
f 238/657/165 239/658/165 240/659/165
f 238/657/165 240/659/165 241/660/165
usemtl common_thingies
f 245/661/166 246/662/166 249/663/166
f 245/661/166 249/663/166 250/664/166
f 247/665/167 248/666/167 251/667/167
f 247/665/167 251/667/167 252/668/167
f 248/669/168 245/670/168 250/671/168
f 248/669/168 250/671/168 251/672/168
f 252/673/169 249/674/169 246/675/169
f 252/673/169 246/675/169 247/676/169
f 255/677/170 254/678/170 253/679/170
f 255/677/170 253/679/170 256/680/170
f 256/681/171 253/682/171 257/683/171
f 256/681/171 257/683/171 258/684/171
f 260/685/172 259/686/172 254/687/172
f 260/685/172 254/687/172 255/688/172
f 247/689/173 246/690/173 245/691/173
f 247/689/173 245/691/173 248/692/173
usemtl common_steel
f 261/693/174 262/694/174 263/695/174
f 261/693/174 263/695/174 264/696/174
f 128/697/175 266/698/175 269/699/175
f 128/697/175 269/699/175 270/700/175
f 270/701/176 269/702/176 267/703/176
f 270/701/176 267/703/176 268/704/176
f 268/705/177 267/706/177 265/707/177
f 268/705/177 265/707/177 131/708/177
f 131/709/178 265/710/178 266/711/178
f 131/709/178 266/711/178 128/712/178
f 266/713/179 263/714/179 262/715/179
f 266/713/179 262/715/179 269/716/179
f 269/717/180 262/718/180 261/719/180
f 269/717/180 261/719/180 267/720/180
f 267/721/181 261/722/181 264/723/181
f 267/721/181 264/723/181 265/724/181
f 265/725/182 264/726/182 263/727/182
f 265/725/182 263/727/182 266/728/182
usemtl common_thingies
f 275/729/183 272/730/183 271/731/183
f 275/729/183 271/731/183 276/732/183
f 277/733/184 274/734/184 273/735/184
f 277/733/184 273/735/184 278/736/184
f 276/737/185 271/738/185 274/739/185
f 276/737/185 274/739/185 277/740/185
f 272/741/186 275/742/186 278/743/186
f 272/741/186 278/743/186 273/744/186
f 271/745/187 272/746/187 273/747/187
f 271/745/187 273/747/187 274/748/187
usemtl emplacement
f 122/749/188 270/750/188 280/751/188
f 122/749/188 280/751/188 140/752/188
f 279/753/189 268/754/189 125/755/189
f 279/753/189 125/755/189 143/756/189