# Made by Pabilo8 with Blockbench
# Exported with IIToolkit Plugin
mtllib emplacement.mtl


o upgrade_preview_base
v 0.6875 -3 1.6875
v 0.6875 -3 1.3125
v 0.6875 -3.5 1.6875
v 0.6875 -3.5 1.3125
v 0.3125 -3 1.6875
v 0.3125 -3 1.3125
v 0.3125 -3.5 1.6875
v 0.3125 -3.5 1.3125
v 1.5 -2.75 2.5
v 1.5 -2.75 0.5
v 1.5 -2.8125 2.5
v 1.5 -2.8125 0.5
v -0.5 -2.75 2.5
v -0.5 -2.75 0.5
v -0.5 -2.8125 2.5
v -0.5 -2.8125 0.5
v 0.75 -2.8125 1.75
v 0.75 -2.8125 1.25
v 0.75 -2.9375 1.75
v 0.75 -2.9375 1.25
v 0.25 -2.8125 1.75
v 0.25 -2.8125 1.25
v 0.25 -2.9375 1.75
v 0.25 -2.9375 1.25
v 0.5 -2.75 0.5
v 0.5 -2.75 2.5
v 0.5 -2.8125 2.5
v 0.5 -2.8125 0.5
vt 0.390625 0.75
vt 0.390625 0.875
vt 0.484375 0.875
vt 0.484375 0.75
vt 0.390625 0.75
vt 0.390625 0.875
vt 0.484375 0.875
vt 0.484375 0.75
vt 0.484375 0.75
vt 0.484375 0.875
vt 0.390625 0.875
vt 0.390625 0.75
vt 0.484375 0.75
vt 0.484375 0.875
vt 0.390625 0.875
vt 0.390625 0.75
vt 0 0.5
vt 0 0
vt 0.015625 0
vt 0.015625 0.5
vt 0 0.5
vt 0 0
vt 0.015625 0
vt 0.015625 0.5
vt 0 0
vt 0.25 0
vt 0.25 0.5
vt 0 0.5
vt 0 0
vt 0.25 0
vt 0.25 0.5
vt 0 0.5
vt 0.65625 0.78125
vt 0.65625 0.8125
vt 0.53125 0.8125
vt 0.53125 0.78125
vt 0.65625 0.78125
vt 0.65625 0.8125
vt 0.53125 0.8125
vt 0.53125 0.78125
vt 0.53125 0.78125
vt 0.53125 0.8125
vt 0.65625 0.8125
vt 0.65625 0.78125
vt 0.65625 0.78125
vt 0.65625 0.8125
vt 0.53125 0.8125
vt 0.53125 0.78125
vt 0.65625 0.78125
vt 0.53125 0.78125
vt 0.546875 0.765625
vt 0.640625 0.765625
vt 0.640625 0.765625
vt 0.65625 0.78125
vt 0.53125 0.78125
vt 0.546875 0.765625
vt 0.546875 0.765625
vt 0.53125 0.78125
vt 0.65625 0.78125
vt 0.640625 0.765625
vt 0.53125 0.78125
vt 0.65625 0.78125
vt 0.640625 0.765625
vt 0.546875 0.765625
vt 0 0
vt 0.25 0
vt 0.25 0.5
vt 0 0.5
vt 0 0
vt 0.25 0
vt 0.25 0.5
vt 0 0.5
vt 0 0.5
vt 0 0
vt 0.015625 0
vt 0.015625 0.5
vt 0.015625 0
vt 0.015625 0.5
vt 0 0.5
vt 0 0
vn 1 0 0
vn -1 0 0
vn 0 0 1
vn 0 0 -1
vn 1 0 0
vn -1 0 0
vn 0 1 0
vn 0 -1 0
vn 1 0 0
vn -1 0 0
vn 0 0 1
vn 0 0 -1
vn 0.7071067811865476 -0.7071067811865476 0
vn -0.7071067811865476 -0.7071067811865476 0
vn 0 -0.7071067811865476 0.7071067811865476
vn 0 -0.7071067811865476 -0.7071067811865476
vn 0 1 0
vn 0 -1 0
vn 0 0 -1
vn 0 0 1
usemtl emplacement
f 4/1/1 2/2/1 1/3/1
f 4/1/1 1/3/1 3/4/1
f 7/5/2 5/6/2 6/7/2
f 7/5/2 6/7/2 8/8/2
f 3/9/3 1/10/3 5/11/3
f 3/9/3 5/11/3 7/12/3
f 8/13/4 6/14/4 2/15/4
f 8/13/4 2/15/4 4/16/4
f 12/17/5 10/18/5 9/19/5
f 12/17/5 9/19/5 11/20/5
f 15/21/6 13/22/6 14/23/6
f 15/21/6 14/23/6 16/24/6
f 13/25/7 26/26/7 25/27/7
f 13/25/7 25/27/7 14/28/7
f 16/29/8 28/30/8 27/31/8
f 16/29/8 27/31/8 15/32/8
f 20/33/9 18/34/9 17/35/9
f 20/33/9 17/35/9 19/36/9
f 23/37/10 21/38/10 22/39/10
f 23/37/10 22/39/10 24/40/10
f 19/41/11 17/42/11 21/43/11
f 19/41/11 21/43/11 23/44/11
f 24/45/12 22/46/12 18/47/12
f 24/45/12 18/47/12 20/48/12
f 20/49/13 19/50/13 1/51/13
f 20/49/13 1/51/13 2/52/13
f 5/53/14 23/54/14 24/55/14
f 5/53/14 24/55/14 6/56/14
f 1/57/15 19/58/15 23/59/15
f 1/57/15 23/59/15 5/60/15
f 24/61/16 20/62/16 2/63/16
f 24/61/16 2/63/16 6/64/16
f 10/65/17 25/66/17 26/67/17
f 10/65/17 26/67/17 9/68/17
f 11/69/18 27/70/18 28/71/18
f 11/69/18 28/71/18 12/72/18
f 14/73/19 10/74/19 12/75/19
f 14/73/19 12/75/19 16/76/19
f 15/77/20 11/78/20 9/79/20
f 15/77/20 9/79/20 13/80/20