# Made by Pabilo8 with Blockbench
# Exported with IIToolkit Plugin
mtllib emplacement.mtl


o variant_steel
v 1.3125 0.854564537967226 0.24897274478088186
v 1.3125 0.9192692992428562 0.007491288208614777
v 1.3125 0.2508608965365583 0.08721084159180639
v 1.3125 0.3155656578121885 -0.15427061498046069
v -0.3125 0.854564537967226 0.24897274478088186
v -0.3125 0.9192692992428562 0.007491288208614777
v -0.3125 0.2508608965365583 0.08721084159180639
v -0.3125 0.3155656578121885 -0.15427061498046069
v 0.5 0.2508608965365583 0.08721084159180639
v 0.5 0.3155656578121885 -0.15427061498046069
v 0.5 0.9192692992428562 0.007491288208614777
v 0.5 0.854564537967226 0.24897274478088186
v 1.3125 0.8545644744099904 2.751027553518248
v 1.3125 0.9192692618123963 2.992508912584061
v 1.3125 0.2508610767454587 2.912789522024263
v 1.3125 0.3155658641478646 3.1542708810900755
v -0.3125 0.8545644744099904 2.751027553518248
v -0.3125 0.9192692618123963 2.992508912584061
v -0.3125 0.2508610767454587 2.912789522024263
v -0.3125 0.3155658641478646 3.1542708810900755
v 0.5 0.2508610767454587 2.912789522024263
v 0.5 0.3155658641478646 3.1542708810900755
v 0.5 0.9192692618123963 2.992508912584061
v 0.5 0.8545644744099904 2.751027553518248
v 1.75 0.8750001392339992 0.3749998883697848
v 1.75 0.8750000070737975 0.1874996898282698
v 2 -0.625000050327233 0.1874998632264071
v 2 -0.6250001824874349 -3.3531510795770103e-7
v 1.5625 0.8750001392339992 0.3749998883697848
v 1.5625 0.8750000070737975 0.1874996898282698
v 1.8125 -0.625000050327233 0.1874998632264071
v 1.8125 -0.6250001824874349 -3.3531510795770103e-7
v 1.8125 0.8750002259330678 1.1249999170703
v 1.8125 0.8750000937728661 0.9374997185287851
v 2 -0.6249998314679626 1.1250000904684374
v 2 -0.6249999636281642 0.9374998919269224
v 1.625 0.8750002259330678 1.1249999170703
v 1.625 0.8750000937728661 0.9374997185287851
v 1.8125 -0.6249998314679626 1.1250000904684374
v 1.8125 -0.6249999636281642 0.9374998919269224
v 1.8125 0.8749999277877654 2.812500011250943
v 1.8125 0.8749997956275637 2.624999812709427
v 2 -0.6249998356911604 2.999999779486953
v 2 -0.6250001296132652 2.8125001846490796
v 1.625 0.8749999277877654 2.812500011250943
v 1.625 0.8749997956275637 2.624999812709427
v 1.8125 -0.6249998356911604 2.999999779486953
v 1.8125 -0.6250001296132652 2.8125001846490796
v 1.8125 0.8749998312214629 2.1250002499654794
v 1.8125 0.8749996990612612 1.9375000514239644
v 2 -0.6250000644176645 2.1249998196599753
v 2 -0.6250003583397694 1.9375002248221014
v 1.625 0.8749998312214629 2.1250002499654794
v 1.625 0.8749996990612612 1.9375000514239644
v 1.8125 -0.6250000644176645 2.1249998196599753
v 1.8125 -0.6250003583397694 1.9375002248221014
v -0.625 0.8750002259330678 1.1249999170703
v -0.625 0.8750000937728661 0.9374997185287851
v -0.8125 -0.6249998314679626 1.1250000904684374
v -0.8125 -0.6249999636281642 0.9374998919269224
v -0.8125 0.8750002259330678 1.1249999170703
v -0.8125 0.8750000937728661 0.9374997185287851
v -1 -0.6249998314679626 1.1250000904684374
v -1 -0.6249999636281642 0.9374998919269224
v -0.625 0.8749998312214629 2.1250002499654794
v -0.625 0.8749996990612612 1.9375000514239644
v -0.8125 -0.6250000644176645 2.1249998196599753
v -0.8125 -0.6250003583397694 1.9375002248221014
v -0.8125 0.8749998312214629 2.1250002499654794
v -0.8125 0.8749996990612612 1.9375000514239644
v -1 -0.6250000644176645 2.1249998196599753
v -1 -0.6250003583397694 1.9375002248221014
v -0.625 0.8749999277877654 2.812500011250943
v -0.625 0.8749997956275637 2.624999812709427
v -0.8125 -0.6249998356911604 2.999999779486953
v -0.8125 -0.6250001296132652 2.8125001846490796
v -0.8125 0.8749999277877654 2.812500011250943
v -0.8125 0.8749997956275637 2.624999812709427
v -1 -0.6249998356911604 2.999999779486953
v -1 -0.6250001296132652 2.8125001846490796
v -0.625 0.8750001392339992 0.3749998883697848
v -0.625 0.8750000070737975 0.1874996898282698
v -0.8125 -0.625000050327233 0.1874998632264071
v -0.8125 -0.6250001824874349 -3.3531510795770103e-7
v -0.8125 0.8750001392339992 0.3749998883697848
v -0.8125 0.8750000070737975 0.1874996898282698
v -1 -0.625000050327233 0.1874998632264071
v -1 -0.6250001824874349 -3.3531510795770103e-7
v 0.125 0.8750001392339992 0.3749998883697848
v 0.125 0.8750000070737975 0.1874996898282698
v 0.125 -0.625000050327233 0.1874998632264071
v 0.125 -0.6250001824874349 -3.3531510795770103e-7
v -0.0625 0.8750001392339992 0.3749998883697848
v -0.0625 0.8750000070737975 0.1874996898282698
v -0.0625 -0.625000050327233 0.1874998632264071
v -0.0625 -0.6250001824874349 -3.3531510795770103e-7
v 1.0625 0.8750001392339992 0.3749998883697848
v 1.0625 0.8750000070737975 0.1874996898282698
v 1.0625 -0.625000050327233 0.1874998632264071
v 1.0625 -0.6250001824874349 -3.3531510795770103e-7
v 0.875 0.8750001392339992 0.3749998883697848
v 0.875 0.8750000070737975 0.1874996898282698
v 0.875 -0.625000050327233 0.1874998632264071
v 0.875 -0.6250001824874349 -3.3531510795770103e-7
v 1.0625 0.8749999277877654 2.812500011250943
v 1.0625 0.8749997956275637 2.624999812709427
v 1.0625 -0.6249998356911604 2.999999779486953
v 1.0625 -0.6250001296132652 2.8125001846490796
v 0.875 0.8749999277877654 2.812500011250943
v 0.875 0.8749997956275637 2.624999812709427
v 0.875 -0.6249998356911604 2.999999779486953
v 0.875 -0.6250001296132652 2.8125001846490796
v 0.125 0.8749999277877654 2.812500011250943
v 0.125 0.8749997956275637 2.624999812709427
v 0.125 -0.6249998356911604 2.999999779486953
v 0.125 -0.6250001296132652 2.8125001846490796
v -0.0625 0.8749999277877654 2.812500011250943
v -0.0625 0.8749997956275637 2.624999812709427
v -0.0625 -0.6249998356911604 2.999999779486953
v -0.0625 -0.6250001296132652 2.8125001846490796
v 0.875 0.12500003124745174 3.000000296491526
v 1.0625 0.12500003124745174 3.000000296491526
v 1.0625 0.12499989908725007 2.812500097950011
v 0.875 0.12499989908725007 2.812500097950011
v 0.125 0.12500003124745174 3.000000296491526
v -0.0625 0.12500003124745174 3.000000296491526
v -0.0625 0.12499989908725007 2.812500097950011
v 0.125 0.12499989908725007 2.812500097950011
v -1 0.12499996428285087 2.124999732960907
v -1 0.12499967036074588 1.937500138123033
v -0.8125 0.12499967036074588 1.937500138123033
v -0.8125 0.12499996428285087 2.124999732960907
v -1 0.1250001972325525 1.1250000037693688
v -1 0.12500006507235084 0.9374998052278537
v -0.8125 0.12500006507235084 0.9374998052278537
v -0.8125 0.1250001972325525 1.1250000037693688
v -0.0625 0.12499968445117737 1.8168946486207815e-7
v 0.125 0.12499968445117737 1.8168946486207815e-7
v 0.125 0.12499997837328225 0.18749977652733843
v -0.0625 0.12499997837328225 0.18749977652733843
v 0.875 0.12499968445117737 1.8168946486207815e-7
v 1.0625 0.12499968445117737 1.8168946486207815e-7
v 1.0625 0.12499997837328225 0.18749977652733843
v 0.875 0.12499997837328225 0.18749977652733843
v 2 0.12500006507235084 0.9374998052278537
v 2 0.1250001972325525 1.1250000037693688
v 1.8125 0.1250001972325525 1.1250000037693688
v 1.8125 0.12500006507235084 0.9374998052278537
v 2 0.12499967036074588 1.937500138123033
v 2 0.12499996428285087 2.124999732960907
v 1.8125 0.12499996428285087 2.124999732960907
v 1.8125 0.12499967036074588 1.937500138123033
v 2 0.12499989908725007 2.812500097950011
v 2 0.12500003124745174 3.000000296491526
v 1.8125 0.12500003124745174 3.000000296491526
v 1.8125 0.12499989908725007 2.812500097950011
v -0.8125 0.12500003124745174 3.000000296491526
v -1 0.12500003124745174 3.000000296491526
v -1 0.12499989908725007 2.812500097950011
v -0.8125 0.12499989908725007 2.812500097950011
v 1.96875 0.12499968445117737 1.8168946486207815e-7
v 1.96875 0.12499997837328225 0.18749977652733843
v 1.78125 0.12499997837328225 0.18749977652733843
v 1.78125 0.12499968445117737 1.8168946486207815e-7
v -0.8125 0.12499968445117737 1.8168946486207815e-7
v -0.8125 0.12499997837328225 0.18749977652733843
v -1 0.12499997837328225 0.18749977652733843
v -1 0.12499968445117737 1.8168946486207815e-7
v -0.74619375 0.8749997759300944 1.9789065899040201
v -0.74619375 0.8749998155150835 1.020572792876393
v -0.93369375 -0.6250002418859468 1.0205729662745304
v -0.7468468749999999 0.8749997794294322 0.2506527699313865
v -0.9343468749999999 -0.6249998064281586 0.06315290654991196
v -0.7468468749999999 0.87500016537842 2.7496076940008667
v -0.9343468749999999 -0.6250002018041472 2.9371073004749744
v -0.93369375 -0.6250001197090329 1.978906159598516
v -0.9343468749999999 0.12500022227235674 0.06315281985084338
v -0.93369375 0.12499978681456825 1.0205728795754616
v -0.9343468749999999 0.12499982689636813 2.937107213775906
v -0.93369375 0.12499990899148228 1.9789060728994474
v 1.751715 0.8749997759300944 1.9789065899040201
v 1.751715 0.8749998155150835 1.020572792876393
v 1.939215 -0.6250002418859468 1.0205729662745304
v 1.7521075 0.8749997794294322 0.2506527699313865
v 1.9396075 -0.6249998064281586 0.06315290654991196
v 1.7521075 0.87500016537842 2.7496076940008667
v 1.9396075 -0.6250002018041472 2.9371073004749744
v 1.939215 -0.6250001197090329 1.978906159598516
v 1.9396075 0.12500022227235674 0.06315281985084338
v 1.939215 0.12499978681456825 1.0205728795754616
v 1.9396075 0.12499982689636813 2.937107213775906
v 1.939215 0.12499990899148228 1.9789060728994474
v 0.023854374999999983 0.8749999412138132 2.7489541158472575
v 0.9821875 0.8749999412138132 2.7489541158472575
v 0.9821875 -0.6249999840270157 2.93645448778691
v 0.023854374999999983 -0.6249999840270157 2.93645448778691
v 0.9821875 0.1250000446734998 2.936454401087841
v 0.023854374999999983 0.1250000446734998 2.936454401087841
v 0.023854374999999983 0.8749999936477496 0.25104558523195475
v 0.9821875 0.8749999936477496 0.25104558523195475
v 0.9821875 -0.6250001959134828 0.06354556008857704
v 0.023854374999999983 -0.6250001959134828 0.06354556008857704
v 0.9821875 0.12499983278703253 0.0635454733895084
v 0.023854374999999983 0.12499983278703253 0.0635454733895084
v 2 -3.011574228459066 3.0000001362407254
v 2 -3.011573971551699 1.8320056760501302e-7
v 2 -0.6249998356911604 2.999999779486953
v 2 -0.6250001824874349 -3.3531510795770103e-7
v -1 -3.011574228459066 3.0000001362407254
v -1 -3.011573971551699 1.8320056760501302e-7
v -1 -0.6249998356911604 2.999999779486953
v -1 -0.6250001824874349 -3.3531510795770103e-7
v -0.7450000000000001 -0.6249998520578508 2.7450002520570913
v 1.745 -0.6249998520578508 2.7450002520570913
v 1.745 -0.624999724179006 0.25499995758029853
v -0.7450000000000001 -0.624999724179006 0.25499995758029853
v 0 -3.011574228459066 3.0000001362407254
v 1 -3.011574228459066 3.0000001362407254
v 1 -3.011573971551699 1.8320056760501302e-7
v 0 -3.011573971551699 1.8320056760501302e-7
v 2 -3.011573833747461 1.9999998033455466
v 2 -3.0115742045014007 0.9999999123921054
v 0 -3.5000000094995247 2.93749971684074
v -1 -3.5000000094995247 2.93749971684074
v 2 -3.5000000094995247 2.93749971684074
v 1 -3.5000000094995247 2.93749971684074
v 1.9375 -3.4999997864170567 2.000000255064254
v 1.9375 -3.499999995409093 0.999999760407172
v 1 -3.4999997723266256 0.06250029863068629
v 0 -3.4999997723266256 0.06250029863068629
v -0.9375 -3.500000019366759 2.9999999842557923
v -0.9375 -3.4999997624593915 3.121563429964169e-8
v -0.25599625000000004 0.8596946507036167 2.973828990722101
v -1.00599625 0.8596946507036167 2.973828990722101
v -0.25599625000000004 0.6785839332560778 3.022357662154857
v -1.00599625 0.6785839332560778 3.022357662154857
v -0.25599625000000004 0.8111661410327639 2.792717669570921
v -1.00599625 0.8111661410327639 2.792717669570921
v -0.25599625000000004 0.6300554235852249 2.841246341003677
v -1.00599625 0.6300554235852249 2.841246341003677
v -1.0097875 0.8631583992329052 3.00000036785977
v -1.0097875 0.8631581902408687 1.9999998732026878
v -1.058315625 0.682047192442715 3.000000337216835
v -1.058315625 0.6820469834506784 1.9999998425597527
v -0.82867625 0.8146298589191174 3.00000025349878
v -0.82867625 0.8146296499270809 1.9999997588416978
v -0.877205 0.6335186521289272 3.000000222855845
v -0.877205 0.6335184431368907 1.999999728198763
v -1.0097875 0.8631584231905705 1.0000001440111501
v -1.058315625 0.6820472164003801 1.0000001133682153
v -0.82867625 0.8146298828767827 1.00000002965016
v -0.877205 0.6335186760865924 0.9999999990072251
v -1.0097875 0.8631580524366307 2.530577090098518e-7
v -1.058315625 0.6820468456464405 2.2241477409812305e-7
v -0.82867625 0.814629512122843 1.386967190264432e-7
v -0.877205 0.6335183053326527 1.0805378414247002e-7
v -0.25599625000000004 0.8596946166424163 0.02617122930345886
v -1.00599625 0.8596946166424163 0.02617122930345886
v -0.25599625000000004 0.678583524213216 -0.02235734165326378
v -1.00599625 0.678583524213216 -0.02235734165326378
v -0.25599625000000004 0.8111660456856936 0.20728232173265917
v -1.00599625 0.8111660456856936 0.20728232173265917
v -0.25599625000000004 0.6300549532564933 0.15875375077593654
v -1.00599625 0.6300549532564933 0.15875375077593654
v -0.25599625000000004 0.8214216546424271 2.9517315069269197
v -1.00599625 0.8214216546424271 2.9517315069269197
v -0.25599625000000004 0.7006809751095209 2.9840839006281232
v -1.00599625 0.7006809751095209 2.9840839006281232
v -0.25599625000000004 0.7890692609412241 2.8309908273940136
v -1.00599625 0.7890692609412241 2.8309908273940136
v -0.25599625000000004 0.6683285814083179 2.8633432210952168
v -1.00599625 0.6683285814083179 2.8633432210952168
v -0.98769 0.8248849607349962 3.0000000885372673
v -0.98769 0.8248845899810564 2.0000001975838266
v -1.0200425 0.7041439549736555 3.0000000141880103
v -1.0200425 0.7041441879233572 2.0000002849964726
v -0.8669493749999999 0.7925326544464387 2.999999811062061
v -0.8669493749999999 0.7925322836924991 1.9999999201086196
v -0.8993018749999999 0.671791648685098 2.999999736712803
v -0.8993018749999999 0.6717918816347999 2.0000000075212654
v -0.98769 0.8248849846926614 0.9999998646886475
v -1.0200425 0.7041439789313206 0.9999997903393899
v -0.8669493749999999 0.7925325166422007 1.000000190917082
v -0.8993018749999999 0.6717915108808601 1.0000001165678243
v -0.98769 0.8248846139387217 -2.6264793340224912e-8
v -1.0200425 0.7041442118810224 6.114785217059548e-8
v -0.8669493749999999 0.7925323076501642 -3.0374000045685356e-7
v -0.8993018749999999 0.671791905592465 -2.1632735494603317e-7
v -0.25599625000000004 0.8214213394114291 0.04826831621553848
v -1.00599625 0.8214213394114291 0.04826831621553848
v -0.25599625000000004 0.7006806111252956 0.01591593557772339
v -1.00599625 0.7006806111252956 0.01591593557772339
v -0.25599625000000004 0.789068958773614 0.169009044501672
v -1.00599625 0.789068958773614 0.169009044501672
v -0.25599625000000004 0.6683282304874805 0.13665666386385691
v -1.00599625 0.6683282304874805 0.13665666386385691
v 1.25599625 0.8596946507036167 2.973828990722101
v 2.00599625 0.8596946507036167 2.973828990722101
v 1.25599625 0.6785839332560778 3.022357662154857
v 2.00599625 0.6785839332560778 3.022357662154857
v 1.25599625 0.8111661410327639 2.792717669570921
v 2.00599625 0.8111661410327639 2.792717669570921
v 1.25599625 0.6300554235852249 2.841246341003677
v 2.00599625 0.6300554235852249 2.841246341003677
v 2.0097875 0.8631583992329052 3.00000036785977
v 2.0097875 0.8631581902408687 1.9999998732026878
v 2.058315625 0.682047192442715 3.000000337216835
v 2.058315625 0.6820469834506784 1.9999998425597527
v 1.82867625 0.8146298589191174 3.00000025349878
v 1.82867625 0.8146296499270809 1.9999997588416978
v 1.877205 0.6335186521289272 3.000000222855845
v 1.877205 0.6335184431368907 1.999999728198763
v 2.0097875 0.8631584231905705 1.0000001440111501
v 2.058315625 0.6820472164003801 1.0000001133682153
v 1.82867625 0.8146298828767827 1.00000002965016
v 1.877205 0.6335186760865924 0.9999999990072251
v 2.0097875 0.8631580524366307 2.530577090098518e-7
v 2.058315625 0.6820468456464405 2.2241477409812305e-7
v 1.82867625 0.814629512122843 1.386967190264432e-7
v 1.877205 0.6335183053326527 1.0805378414247002e-7
v 1.25599625 0.8596946166424163 0.02617122930345886
v 2.00599625 0.8596946166424163 0.02617122930345886
v 1.25599625 0.678583524213216 -0.02235734165326378
v 2.00599625 0.678583524213216 -0.02235734165326378
v 1.25599625 0.8111660456856936 0.20728232173265917
v 2.00599625 0.8111660456856936 0.20728232173265917
v 1.25599625 0.6300549532564933 0.15875375077593654
v 2.00599625 0.6300549532564933 0.15875375077593654
v 1.25599625 0.8214216546424271 2.9517315069269197
v 2.00599625 0.8214216546424271 2.9517315069269197
v 1.25599625 0.7006809751095209 2.9840839006281232
v 2.00599625 0.7006809751095209 2.9840839006281232
v 1.25599625 0.7890692609412241 2.8309908273940136
v 2.00599625 0.7890692609412241 2.8309908273940136
v 1.25599625 0.6683285814083179 2.8633432210952168
v 2.00599625 0.6683285814083179 2.8633432210952168
v 1.98769 0.8248849607349962 3.0000000885372673
v 1.98769 0.8248845899810564 2.0000001975838266
v 2.0200424999999997 0.7041439549736555 3.0000000141880103
v 2.0200424999999997 0.7041441879233572 2.0000002849964726
v 1.866949375 0.7925326544464387 2.999999811062061
v 1.866949375 0.7925322836924991 1.9999999201086196
v 1.899301875 0.671791648685098 2.999999736712803
v 1.899301875 0.6717918816347999 2.0000000075212654
v 1.98769 0.8248849846926614 0.9999998646886475
v 2.0200424999999997 0.7041439789313206 0.9999997903393899
v 1.866949375 0.7925325166422007 1.000000190917082
v 1.899301875 0.6717915108808601 1.0000001165678243
v 1.98769 0.8248846139387217 -2.6264793340224912e-8
v 2.0200424999999997 0.7041442118810224 6.114785217059548e-8
v 1.866949375 0.7925323076501642 -3.0374000045685356e-7
v 1.899301875 0.671791905592465 -2.1632735494603317e-7
v 1.25599625 0.8214213394114291 0.04826831621553848
v 2.00599625 0.8214213394114291 0.04826831621553848
v 1.25599625 0.7006806111252956 0.01591593557772339
v 2.00599625 0.7006806111252956 0.01591593557772339
v 1.25599625 0.789068958773614 0.169009044501672
v 2.00599625 0.789068958773614 0.169009044501672
v 1.25599625 0.6683282304874805 0.13665666386385691
v 2.00599625 0.6683282304874805 0.13665666386385691
vt 0 0.84375
vt 0 1
vt 0.0625 1
vt 0.0625 0.84375
vt 0.0625 0.84375
vt 0.0625 1
vt 0 1
vt 0 0.84375
vt 0.0625 0.625
vt 0.0625 0.828125
vt 0 0.828125
vt 0 0.625
vt 0.0625 0.625
vt 0.0625 0.828125
vt 0 0.828125
vt 0 0.625
vt 0.9375 0.25
vt 0.9375 0.453125
vt 0.78125 0.453125
vt 0.78125 0.25
vt 0.78125 0.65625
vt 0.78125 0.453125
vt 0.9375 0.453125
vt 0.9375 0.65625
vt 0 1
vt 0 0.796875
vt 0.0625 0.796875
vt 0.0625 1
vt 0.9375 0.25
vt 0.9375 0.453125
vt 0.78125 0.453125
vt 0.78125 0.25
vt 0 1
vt 0 0.796875
vt 0.0625 0.796875
vt 0.0625 1
vt 0.78125 0.65625
vt 0.78125 0.453125
vt 0.9375 0.453125
vt 0.9375 0.65625
vt 0.0625 1
vt 0 1
vt 0 0.84375
vt 0.0625 0.84375
vt 0 1
vt 0.0625 1
vt 0.0625 0.84375
vt 0 0.84375
vt 0 0.828125
vt 0.0625 0.828125
vt 0.0625 0.625
vt 0 0.625
vt 0 0.828125
vt 0.0625 0.828125
vt 0.0625 0.625
vt 0 0.625
vt 0.78125 0.453125
vt 0.9375 0.453125
vt 0.9375 0.25
vt 0.78125 0.25
vt 0.9375 0.453125
vt 0.78125 0.453125
vt 0.78125 0.65625
vt 0.9375 0.65625
vt 0.0625 0.796875
vt 0 0.796875
vt 0 1
vt 0.0625 1
vt 0.78125 0.453125
vt 0.9375 0.453125
vt 0.9375 0.25
vt 0.78125 0.25
vt 0.0625 0.796875
vt 0 0.796875
vt 0 1
vt 0.0625 1
vt 0.9375 0.453125
vt 0.78125 0.453125
vt 0.78125 0.65625
vt 0.9375 0.65625
vt 0.75 0.609375
vt 0.75 0.8046875
vt 0.703125 0.8046875
vt 0.703125 0.609375
vt 0.75 0.609375
vt 0.75 0.8046875
vt 0.703125 0.8046875
vt 0.703125 0.609375
vt 0.75 1
vt 0.75 0.953125
vt 0.796875 0.953125
vt 0.796875 1
vt 0.703125 0.609375
vt 0.703125 0.8046875
vt 0.75 0.8046875
vt 0.75 0.609375
vt 0.703125 0.609375
vt 0.703125 0.8046875
vt 0.75 0.8046875
vt 0.75 0.609375
vt 0.75 0.609375
vt 0.75 0.8046875
vt 0.703125 0.8046875
vt 0.703125 0.609375
vt 0.75 0.609375
vt 0.75 0.8046875
vt 0.703125 0.8046875
vt 0.703125 0.609375
vt 0.75 1
vt 0.75 0.953125
vt 0.796875 0.953125
vt 0.796875 1
vt 0.703125 0.609375
vt 0.703125 0.8046875
vt 0.75 0.8046875
vt 0.75 0.609375
vt 0.703125 0.609375
vt 0.703125 0.8046875
vt 0.75 0.8046875
vt 0.75 0.609375
vt 0.75 0.609375
vt 0.75 0.8046875
vt 0.703125 0.8046875
vt 0.703125 0.609375
vt 0.75 0.609375
vt 0.75 0.8046875
vt 0.703125 0.8046875
vt 0.703125 0.609375
vt 0.75 1
vt 0.75 0.953125
vt 0.796875 0.953125
vt 0.796875 1
vt 0.703125 0.609375
vt 0.703125 0.8046875
vt 0.75 0.8046875
vt 0.75 0.609375
vt 0.703125 0.609375
vt 0.703125 0.8046875
vt 0.75 0.8046875
vt 0.75 0.609375
vt 0.75 0.609375
vt 0.75 0.8046875
vt 0.703125 0.8046875
vt 0.703125 0.609375
vt 0.75 0.609375
vt 0.75 0.8046875
vt 0.703125 0.8046875
vt 0.703125 0.609375
vt 0.75 1
vt 0.75 0.953125
vt 0.796875 0.953125
vt 0.796875 1
vt 0.703125 0.609375
vt 0.703125 0.8046875
vt 0.75 0.8046875
vt 0.75 0.609375
vt 0.703125 0.609375
vt 0.703125 0.8046875
vt 0.75 0.8046875
vt 0.75 0.609375
vt 0.75 0.609375
vt 0.75 0.8046875
vt 0.703125 0.8046875
vt 0.703125 0.609375
vt 0.75 0.609375
vt 0.75 0.8046875
vt 0.703125 0.8046875
vt 0.703125 0.609375
vt 0.75 1
vt 0.75 0.953125
vt 0.796875 0.953125
vt 0.796875 1
vt 0.703125 0.609375
vt 0.703125 0.8046875
vt 0.75 0.8046875
vt 0.75 0.609375
vt 0.703125 0.609375
vt 0.703125 0.8046875
vt 0.75 0.8046875
vt 0.75 0.609375
vt 0.75 0.609375
vt 0.75 0.8046875
vt 0.703125 0.8046875
vt 0.703125 0.609375
vt 0.75 0.609375
vt 0.75 0.8046875
vt 0.703125 0.8046875
vt 0.703125 0.609375
vt 0.75 1
vt 0.75 0.953125
vt 0.796875 0.953125
vt 0.796875 1
vt 0.703125 0.609375
vt 0.703125 0.8046875
vt 0.75 0.8046875
vt 0.75 0.609375
vt 0.703125 0.609375
vt 0.703125 0.8046875
vt 0.75 0.8046875
vt 0.75 0.609375
vt 0.75 0.609375
vt 0.75 0.8046875
vt 0.703125 0.8046875
vt 0.703125 0.609375
vt 0.75 0.609375
vt 0.75 0.8046875
vt 0.703125 0.8046875
vt 0.703125 0.609375
vt 0.75 1
vt 0.75 0.953125
vt 0.796875 0.953125
vt 0.796875 1
vt 0.703125 0.609375
vt 0.703125 0.8046875
vt 0.75 0.8046875
vt 0.75 0.609375
vt 0.703125 0.609375
vt 0.703125 0.8046875
vt 0.75 0.8046875
vt 0.75 0.609375
vt 0.75 0.609375
vt 0.75 0.8046875
vt 0.703125 0.8046875
vt 0.703125 0.609375
vt 0.75 0.609375
vt 0.75 0.8046875
vt 0.703125 0.8046875
vt 0.703125 0.609375
vt 0.75 1
vt 0.75 0.953125
vt 0.796875 0.953125
vt 0.796875 1
vt 0.703125 0.609375
vt 0.703125 0.8046875
vt 0.75 0.8046875
vt 0.75 0.609375
vt 0.703125 0.609375
vt 0.703125 0.8046875
vt 0.75 0.8046875
vt 0.75 0.609375
vt 0.75 0.609375
vt 0.75 0.8046875
vt 0.703125 0.8046875
vt 0.703125 0.609375
vt 0.75 0.609375
vt 0.75 0.8046875
vt 0.703125 0.8046875
vt 0.703125 0.609375
vt 0.75 1
vt 0.75 0.953125
vt 0.796875 0.953125
vt 0.796875 1
vt 0.703125 0.609375
vt 0.703125 0.8046875
vt 0.75 0.8046875
vt 0.75 0.609375
vt 0.703125 0.609375
vt 0.703125 0.8046875
vt 0.75 0.8046875
vt 0.75 0.609375
vt 0.75 0.609375
vt 0.75 0.8046875
vt 0.703125 0.8046875
vt 0.703125 0.609375
vt 0.75 0.609375
vt 0.75 0.8046875
vt 0.703125 0.8046875
vt 0.703125 0.609375
vt 0.75 1
vt 0.75 0.953125
vt 0.796875 0.953125
vt 0.796875 1
vt 0.703125 0.609375
vt 0.703125 0.8046875
vt 0.75 0.8046875
vt 0.75 0.609375
vt 0.703125 0.609375
vt 0.703125 0.8046875
vt 0.75 0.8046875
vt 0.75 0.609375
vt 0.703125 1
vt 0.703125 0.8046875
vt 0.75 0.8046875
vt 0.75 1
vt 0.703125 1
vt 0.703125 0.8046875
vt 0.75 0.8046875
vt 0.75 1
vt 0.75 1
vt 0.75 0.953125
vt 0.796875 0.953125
vt 0.796875 1
vt 0.75 1
vt 0.75 0.8046875
vt 0.703125 0.8046875
vt 0.703125 1
vt 0.75 1
vt 0.75 0.8046875
vt 0.703125 0.8046875
vt 0.703125 1
vt 0.75 0.609375
vt 0.75 0.8046875
vt 0.703125 0.8046875
vt 0.703125 0.609375
vt 0.75 0.609375
vt 0.75 0.8046875
vt 0.703125 0.8046875
vt 0.703125 0.609375
vt 0.75 1
vt 0.75 0.953125
vt 0.796875 0.953125
vt 0.796875 1
vt 0.703125 0.609375
vt 0.703125 0.8046875
vt 0.75 0.8046875
vt 0.75 0.609375
vt 0.703125 0.609375
vt 0.703125 0.8046875
vt 0.75 0.8046875
vt 0.75 0.609375
vt 0.703125 0.609375
vt 0.703125 0.8046875
vt 0.75 0.8046875
vt 0.75 0.609375
vt 0.75 0.609375
vt 0.75 0.8046875
vt 0.703125 0.8046875
vt 0.703125 0.609375
vt 0.703125 0.609375
vt 0.703125 0.8046875
vt 0.75 0.8046875
vt 0.75 0.609375
vt 0.75 0.609375
vt 0.75 0.8046875
vt 0.703125 0.8046875
vt 0.703125 0.609375
vt 0.75 1
vt 0.75 0.8046875
vt 0.703125 0.8046875
vt 0.703125 1
vt 0.703125 1
vt 0.703125 0.8046875
vt 0.75 0.8046875
vt 0.75 1
vt 0.75 1
vt 0.75 0.8046875
vt 0.703125 0.8046875
vt 0.703125 1
vt 0.703125 1
vt 0.703125 0.8046875
vt 0.75 0.8046875
vt 0.75 1
vt 0.703125 1
vt 0.703125 0.8046875
vt 0.75 0.8046875
vt 0.75 1
vt 0.75 1
vt 0.75 0.8046875
vt 0.703125 0.8046875
vt 0.703125 1
vt 0.703125 1
vt 0.703125 0.8046875
vt 0.75 0.8046875
vt 0.75 1
vt 0.75 1
vt 0.75 0.8046875
vt 0.703125 0.8046875
vt 0.703125 1
vt 0.703125 1
vt 0.703125 0.8046875
vt 0.75 0.8046875
vt 0.75 1
vt 0.75 1
vt 0.75 0.8046875
vt 0.703125 0.8046875
vt 0.703125 1
vt 0.703125 1
vt 0.703125 0.8046875
vt 0.75 0.8046875
vt 0.75 1
vt 0.75 1
vt 0.75 0.8046875
vt 0.703125 0.8046875
vt 0.703125 1
vt 0.75 1
vt 0.75 0.8046875
vt 0.703125 0.8046875
vt 0.703125 1
vt 0.703125 1
vt 0.703125 0.8046875
vt 0.75 0.8046875
vt 0.75 1
vt 0.75 1
vt 0.75 0.8046875
vt 0.703125 0.8046875
vt 0.703125 1
vt 0.703125 1
vt 0.703125 0.8046875
vt 0.75 0.8046875
vt 0.75 1
vt 0.75 1
vt 0.75 0.8046875
vt 0.703125 0.8046875
vt 0.703125 1
vt 0.703125 1
vt 0.703125 0.8046875
vt 0.75 0.8046875
vt 0.75 1
vt 0.75 1
vt 0.75 0.8046875
vt 0.703125 0.8046875
vt 0.703125 1
vt 0.703125 1
vt 0.703125 0.8046875
vt 0.75 0.8046875
vt 0.75 1
vt 0.703125 1
vt 0.703125 0.8046875
vt 0.75 0.8046875
vt 0.75 1
vt 0.75 1
vt 0.75 0.8046875
vt 0.703125 0.8046875
vt 0.703125 1
vt 0.703125 1
vt 0.703125 0.8046875
vt 0.75 0.8046875
vt 0.75 1
vt 0.75 1
vt 0.75 0.8046875
vt 0.703125 0.8046875
vt 0.703125 1
vt 0.703125 1
vt 0.703125 0.8046875
vt 0.75 0.8046875
vt 0.75 1
vt 0.75 1
vt 0.75 0.8046875
vt 0.703125 0.8046875
vt 0.703125 1
vt 0.703125 1
vt 0.703125 0.8046875
vt 0.75 0.8046875
vt 0.75 1
vt 0.75 1
vt 0.75 0.8046875
vt 0.703125 0.8046875
vt 0.703125 1
vt 0.703125 1
vt 0.703125 0.8046875
vt 0.75 0.8046875
vt 0.75 1
vt 0.75 1
vt 0.75 0.8046875
vt 0.703125 0.8046875
vt 0.703125 1
vt 0.703125 1
vt 0.703125 0.8046875
vt 0.75 0.8046875
vt 0.75 1
vt 0.75 1
vt 0.75 0.8046875
vt 0.703125 0.8046875
vt 0.703125 1
vt 0.75 1
vt 0.75 0.8046875
vt 0.703125 0.8046875
vt 0.703125 1
vt 0.703125 1
vt 0.703125 0.8046875
vt 0.75 0.8046875
vt 0.75 1
vt 0.75 1
vt 0.75 0.8046875
vt 0.703125 0.8046875
vt 0.703125 1
vt 0.703125 1
vt 0.703125 0.8046875
vt 0.75 0.8046875
vt 0.75 1
vt 0.703125 1
vt 0.703125 0.8046875
vt 0.75 0.8046875
vt 0.75 1
vt 0.75 1
vt 0.75 0.8046875
vt 0.703125 0.8046875
vt 0.703125 1
vt 0.703125 1
vt 0.703125 0.8046875
vt 0.75 0.8046875
vt 0.75 1
vt 0.75 1
vt 0.75 0.8046875
vt 0.703125 0.8046875
vt 0.703125 1
vt 0.703125 1
vt 0.703125 0.8046875
vt 0.75 0.8046875
vt 0.75 1
vt 0.75 1
vt 0.75 0.8046875
vt 0.703125 0.8046875
vt 0.703125 1
vt 0.703125 1
vt 0.703125 0.8046875
vt 0.75 0.8046875
vt 0.75 1
vt 0.75 1
vt 0.75 0.8046875
vt 0.703125 0.8046875
vt 0.703125 1
vt 0.625 1
vt 0.671875 0.8125
vt 0.4375 0.8125
vt 0.4375 1
vt 0.3125 1
vt 0.3125 0.8125
vt 0.078125 0.8125
vt 0.125 1
vt 0.4375 0.625
vt 0.4375 0.8125
vt 0.671875 0.8125
vt 0.671875 0.625
vt 0.078125 0.625
vt 0.078125 0.8125
vt 0.3125 0.8125
vt 0.3125 0.625
vt 0.484375 1
vt 0.484375 0.8125
vt 0.25 0.8125
vt 0.25 1
vt 0.25 0.625
vt 0.25 0.8125
vt 0.484375 0.8125
vt 0.484375 0.625
vt 0.4375 0.8125
vt 0.671875 0.8125
vt 0.625 1
vt 0.4375 1
vt 0.078125 0.8125
vt 0.3125 0.8125
vt 0.3125 1
vt 0.125 1
vt 0.671875 0.8125
vt 0.4375 0.8125
vt 0.4375 0.625
vt 0.671875 0.625
vt 0.3125 0.8125
vt 0.078125 0.8125
vt 0.078125 0.625
vt 0.3125 0.625
vt 0.25 0.8125
vt 0.484375 0.8125
vt 0.484375 1
vt 0.25 1
vt 0.484375 0.8125
vt 0.25 0.8125
vt 0.25 0.625
vt 0.484375 0.625
vt 0.4375 0.8125
vt 0.671875 0.8125
vt 0.625 1
vt 0.4375 1
vt 0.078125 0.8125
vt 0.3125 0.8125
vt 0.3125 1
vt 0.125 1
vt 0.671875 0.8125
vt 0.4375 0.8125
vt 0.4375 0.625
vt 0.671875 0.625
vt 0.3125 0.8125
vt 0.078125 0.8125
vt 0.078125 0.625
vt 0.3125 0.625
vt 0.25 0.8125
vt 0.484375 0.8125
vt 0.484375 1
vt 0.25 1
vt 0.484375 0.8125
vt 0.25 0.8125
vt 0.25 0.625
vt 0.484375 0.625
vt 0.625 1
vt 0.671875 0.8125
vt 0.4375 0.8125
vt 0.4375 1
vt 0.3125 1
vt 0.3125 0.8125
vt 0.078125 0.8125
vt 0.125 1
vt 0.4375 0.625
vt 0.4375 0.8125
vt 0.671875 0.8125
vt 0.671875 0.625
vt 0.078125 0.625
vt 0.078125 0.8125
vt 0.3125 0.8125
vt 0.3125 0.625
vt 0.484375 1
vt 0.484375 0.8125
vt 0.25 0.8125
vt 0.25 1
vt 0.25 0.625
vt 0.25 0.8125
vt 0.484375 0.8125
vt 0.484375 0.625
vt 0 0
vt 0.75 0
vt 0.75 0.6122687499999999
vt 0 0.6122687499999999
vt 0 0
vt 0.75 0
vt 0.75 0.6122687499999999
vt 0 0.6122687499999999
vt 0 0
vt 0.75 0
vt 0.75 0.6122687499999999
vt 0 0.6122687499999999
vt 0 0
vt 0.75 0
vt 0.75 0.6122687499999999
vt 0 0.6122687499999999
vt 0.9375 0.9375
vt 0.9375 0.3125
vt 1 0.25
vt 1 1
vt 0.9375 0.3125
vt 0.9375 0.9375
vt 1 1
vt 1 0.25
vt 0.9375 0.3125
vt 0.9375 0.9375
vt 1 1
vt 1 0.25
vt 0.9375 0.9375
vt 0.9375 0.3125
vt 1 0.25
vt 1 1
vt 0 0
vt 0 0.125
vt 0.25 0.125
vt 0.25 0
vt 0 0
vt 0 0.125
vt 0.25 0.125
vt 0.25 0
vt 0.25 0
vt 0.25 0.125
vt 0 0.125
vt 0 0
vt 0.25 0
vt 0.25 0.125
vt 0 0.125
vt 0 0
vt 0 0
vt 0 0.125
vt 0.75 0.125
vt 0.75 0
vt 0.890625 0.65625
vt 0.890625 0.84375
vt 0.9375 0.84375
vt 0.9375 0.65625
vt 0.890625 0.84375
vt 0.890625 0.65625
vt 0.9375 0.65625
vt 0.9375 0.84375
vt 0.890625 0.84375
vt 0.9375 0.84375
vt 0.9375 0.65625
vt 0.890625 0.65625
vt 0.890625 0.84375
vt 0.9375 0.84375
vt 0.9375 0.65625
vt 0.890625 0.65625
vt 0.890625 0.65625
vt 0.890625 0.90625
vt 0.9375 0.90625
vt 0.9375 0.65625
vt 0.890625 0.90625
vt 0.890625 0.65625
vt 0.9375 0.65625
vt 0.9375 0.90625
vt 0.890625 0.90625
vt 0.9375 0.90625
vt 0.9375 0.65625
vt 0.890625 0.65625
vt 0.890625 0.90625
vt 0.9375 0.90625
vt 0.9375 0.65625
vt 0.890625 0.65625
vt 0.890625 0.6875
vt 0.890625 0.9375
vt 0.9375 0.9375
vt 0.9375 0.6875
vt 0.890625 0.9375
vt 0.890625 0.6875
vt 0.9375 0.6875
vt 0.9375 0.9375
vt 0.890625 0.9375
vt 0.9375 0.9375
vt 0.9375 0.6875
vt 0.890625 0.6875
vt 0.890625 0.9375
vt 0.9375 0.9375
vt 0.9375 0.6875
vt 0.890625 0.6875
vt 0.890625 0.71875
vt 0.890625 0.96875
vt 0.9375 0.96875
vt 0.9375 0.71875
vt 0.890625 0.96875
vt 0.890625 0.71875
vt 0.9375 0.71875
vt 0.9375 0.96875
vt 0.890625 0.96875
vt 0.9375 0.96875
vt 0.9375 0.71875
vt 0.890625 0.71875
vt 0.890625 0.96875
vt 0.9375 0.96875
vt 0.9375 0.71875
vt 0.890625 0.71875
vt 0.9375 0.84375
vt 0.890625 0.84375
vt 0.890625 0.65625
vt 0.9375 0.65625
vt 0.9375 0.65625
vt 0.890625 0.65625
vt 0.890625 0.84375
vt 0.9375 0.84375
vt 0.9375 0.65625
vt 0.9375 0.84375
vt 0.890625 0.84375
vt 0.890625 0.65625
vt 0.9375 0.65625
vt 0.9375 0.84375
vt 0.890625 0.84375
vt 0.890625 0.65625
vt 0.859375 0.65625
vt 0.859375 0.84375
vt 0.890625 0.84375
vt 0.890625 0.65625
vt 0.859375 0.84375
vt 0.859375 0.65625
vt 0.890625 0.65625
vt 0.890625 0.84375
vt 0.859375 0.84375
vt 0.890625 0.84375
vt 0.890625 0.65625
vt 0.859375 0.65625
vt 0.859375 0.84375
vt 0.890625 0.84375
vt 0.890625 0.65625
vt 0.859375 0.65625
vt 0.859375 0.65625
vt 0.859375 0.90625
vt 0.890625 0.90625
vt 0.890625 0.65625
vt 0.859375 0.90625
vt 0.859375 0.65625
vt 0.890625 0.65625
vt 0.890625 0.90625
vt 0.859375 0.90625
vt 0.890625 0.90625
vt 0.890625 0.65625
vt 0.859375 0.65625
vt 0.859375 0.90625
vt 0.890625 0.90625
vt 0.890625 0.65625
vt 0.859375 0.65625
vt 0.859375 0.6875
vt 0.859375 0.9375
vt 0.890625 0.9375
vt 0.890625 0.6875
vt 0.859375 0.9375
vt 0.859375 0.6875
vt 0.890625 0.6875
vt 0.890625 0.9375
vt 0.859375 0.9375
vt 0.890625 0.9375
vt 0.890625 0.6875
vt 0.859375 0.6875
vt 0.859375 0.9375
vt 0.890625 0.9375
vt 0.890625 0.6875
vt 0.859375 0.6875
vt 0.859375 0.71875
vt 0.859375 0.96875
vt 0.890625 0.96875
vt 0.890625 0.71875
vt 0.859375 0.96875
vt 0.859375 0.71875
vt 0.890625 0.71875
vt 0.890625 0.96875
vt 0.859375 0.96875
vt 0.890625 0.96875
vt 0.890625 0.71875
vt 0.859375 0.71875
vt 0.859375 0.96875
vt 0.890625 0.96875
vt 0.890625 0.71875
vt 0.859375 0.71875
vt 0.890625 0.84375
vt 0.859375 0.84375
vt 0.859375 0.65625
vt 0.890625 0.65625
vt 0.890625 0.65625
vt 0.859375 0.65625
vt 0.859375 0.84375
vt 0.890625 0.84375
vt 0.890625 0.65625
vt 0.890625 0.84375
vt 0.859375 0.84375
vt 0.859375 0.65625
vt 0.890625 0.65625
vt 0.890625 0.84375
vt 0.859375 0.84375
vt 0.859375 0.65625
vt 0.9375 0.84375
vt 0.890625 0.84375
vt 0.890625 0.65625
vt 0.9375 0.65625
vt 0.9375 0.65625
vt 0.890625 0.65625
vt 0.890625 0.84375
vt 0.9375 0.84375
vt 0.9375 0.65625
vt 0.9375 0.84375
vt 0.890625 0.84375
vt 0.890625 0.65625
vt 0.9375 0.65625
vt 0.9375 0.84375
vt 0.890625 0.84375
vt 0.890625 0.65625
vt 0.9375 0.90625
vt 0.890625 0.90625
vt 0.890625 0.65625
vt 0.9375 0.65625
vt 0.9375 0.65625
vt 0.890625 0.65625
vt 0.890625 0.90625
vt 0.9375 0.90625
vt 0.9375 0.65625
vt 0.9375 0.90625
vt 0.890625 0.90625
vt 0.890625 0.65625
vt 0.9375 0.65625
vt 0.9375 0.90625
vt 0.890625 0.90625
vt 0.890625 0.65625
vt 0.9375 0.9375
vt 0.890625 0.9375
vt 0.890625 0.6875
vt 0.9375 0.6875
vt 0.9375 0.6875
vt 0.890625 0.6875
vt 0.890625 0.9375
vt 0.9375 0.9375
vt 0.9375 0.6875
vt 0.9375 0.9375
vt 0.890625 0.9375
vt 0.890625 0.6875
vt 0.9375 0.6875
vt 0.9375 0.9375
vt 0.890625 0.9375
vt 0.890625 0.6875
vt 0.9375 0.96875
vt 0.890625 0.96875
vt 0.890625 0.71875
vt 0.9375 0.71875
vt 0.9375 0.71875
vt 0.890625 0.71875
vt 0.890625 0.96875
vt 0.9375 0.96875
vt 0.9375 0.71875
vt 0.9375 0.96875
vt 0.890625 0.96875
vt 0.890625 0.71875
vt 0.9375 0.71875
vt 0.9375 0.96875
vt 0.890625 0.96875
vt 0.890625 0.71875
vt 0.890625 0.65625
vt 0.890625 0.84375
vt 0.9375 0.84375
vt 0.9375 0.65625
vt 0.890625 0.84375
vt 0.890625 0.65625
vt 0.9375 0.65625
vt 0.9375 0.84375
vt 0.890625 0.84375
vt 0.9375 0.84375
vt 0.9375 0.65625
vt 0.890625 0.65625
vt 0.890625 0.84375
vt 0.9375 0.84375
vt 0.9375 0.65625
vt 0.890625 0.65625
vt 0.890625 0.84375
vt 0.859375 0.84375
vt 0.859375 0.65625
vt 0.890625 0.65625
vt 0.890625 0.65625
vt 0.859375 0.65625
vt 0.859375 0.84375
vt 0.890625 0.84375
vt 0.890625 0.65625
vt 0.890625 0.84375
vt 0.859375 0.84375
vt 0.859375 0.65625
vt 0.890625 0.65625
vt 0.890625 0.84375
vt 0.859375 0.84375
vt 0.859375 0.65625
vt 0.890625 0.90625
vt 0.859375 0.90625
vt 0.859375 0.65625
vt 0.890625 0.65625
vt 0.890625 0.65625
vt 0.859375 0.65625
vt 0.859375 0.90625
vt 0.890625 0.90625
vt 0.890625 0.65625
vt 0.890625 0.90625
vt 0.859375 0.90625
vt 0.859375 0.65625
vt 0.890625 0.65625
vt 0.890625 0.90625
vt 0.859375 0.90625
vt 0.859375 0.65625
vt 0.890625 0.9375
vt 0.859375 0.9375
vt 0.859375 0.6875
vt 0.890625 0.6875
vt 0.890625 0.6875
vt 0.859375 0.6875
vt 0.859375 0.9375
vt 0.890625 0.9375
vt 0.890625 0.6875
vt 0.890625 0.9375
vt 0.859375 0.9375
vt 0.859375 0.6875
vt 0.890625 0.6875
vt 0.890625 0.9375
vt 0.859375 0.9375
vt 0.859375 0.6875
vt 0.890625 0.96875
vt 0.859375 0.96875
vt 0.859375 0.71875
vt 0.890625 0.71875
vt 0.890625 0.71875
vt 0.859375 0.71875
vt 0.859375 0.96875
vt 0.890625 0.96875
vt 0.890625 0.71875
vt 0.890625 0.96875
vt 0.859375 0.96875
vt 0.859375 0.71875
vt 0.890625 0.71875
vt 0.890625 0.96875
vt 0.859375 0.96875
vt 0.859375 0.71875
vt 0.859375 0.65625
vt 0.859375 0.84375
vt 0.890625 0.84375
vt 0.890625 0.65625
vt 0.859375 0.84375
vt 0.859375 0.65625
vt 0.890625 0.65625
vt 0.890625 0.84375
vt 0.859375 0.84375
vt 0.890625 0.84375
vt 0.890625 0.65625
vt 0.859375 0.65625
vt 0.859375 0.84375
vt 0.890625 0.84375
vt 0.890625 0.65625
vt 0.859375 0.65625
vn 1 0 0
vn -1 0 0
vn 0 0.9659258262890683 0.25881904510252074
vn 0 -0.9659258262890683 -0.25881904510252074
vn 0 -0.25881904510252074 0.9659258262890683
vn 0 0.25881904510252074 -0.9659258262890683
vn 0 -0.9659258262890683 -0.25881904510252074
vn 0 0.25881904510252074 -0.9659258262890683
vn 0 0.9659258262890683 0.25881904510252074
vn 0 -0.25881904510252074 0.9659258262890683
vn 1 0 0
vn -1 0 0
vn 0 0.965925774035479 -0.2588192401154923
vn 0 -0.9659257740354791 0.2588192401154921
vn 0 -0.2588192401154925 -0.965925774035479
vn 0 0.2588192401154925 0.965925774035479
vn 0 -0.9659257740354791 0.2588192401154921
vn 0 0.2588192401154925 0.965925774035479
vn 0 0.965925774035479 -0.2588192401154923
vn 0 -0.2588192401154925 -0.965925774035479
vn 0.9599999866468466 0.28000004578189236 -4.389246969077609e-7
vn -0.9600000028800753 -0.2799999901251125 4.389246096581091e-7
vn 0 0.9999999999997518 -7.048536628251334e-7
vn 0 -0.24253571223776207 0.9701424783449706
vn 0 0.24253492803512317 -0.9701426743953683
vn 0.9701425023291333 0.24253561630106735 -1.7095211749668107e-7
vn -0.9701425023291333 -0.2425356163010673 1.7095211751055886e-7
vn 0 0.9999999999997518 -7.048536628806445e-7
vn 0 1.1559875384703489e-7 0.9999999999999933
vn 0 -1.1559875368050143e-7 -0.9999999999999933
vn 0.9701425023291333 0.2425356163010674 -1.7095211742035324e-7
vn -0.9701425023291333 -0.24253561630106735 1.7095211742729213e-7
vn 0 0.9999999999997518 -7.048536624365554e-7
vn 0 0.24253600378666415 0.9701424054576706
vn 0 -0.24253600378666415 -0.9701424054576706
vn 0.9701424900206088 0.24253566553492398 -3.801959859509041e-7
vn -0.970142502329083 -0.24253561630103057 3.801959087765261e-7
vn 0 0.9999999999997516 -7.048536627696222e-7
vn 0 -6.893395526341717e-7 0.9999999999997625
vn 0 -1.1559875384703489e-7 -0.9999999999999933
vn 0.9701425023291333 -0.24253561630106735 1.7095211749668107e-7
vn -0.9701425023291333 0.2425356163010673 -1.7095211751055886e-7
vn 0 0.9999999999997518 -7.048536628806445e-7
vn 0 1.1559875384703489e-7 0.9999999999999933
vn 0 -1.1559875368050143e-7 -0.9999999999999933
vn 0.9701424900206088 -0.24253566553492398 3.801959859509041e-7
vn -0.970142502329083 0.24253561630103057 -3.801959087765261e-7
vn 0 0.9999999999997516 -7.048536627696222e-7
vn 0 -6.893395526341717e-7 0.9999999999997625
vn 0 -1.1559875384703489e-7 -0.9999999999999933
vn 0.9701425023291333 -0.2425356163010674 1.7095211742035324e-7
vn -0.9701425023291333 0.24253561630106735 -1.7095211742729213e-7
vn 0 0.9999999999997518 -7.048536624365554e-7
vn 0 0.24253600378666415 0.9701424054576706
vn 0 -0.24253600378666415 -0.9701424054576706
vn 0.9701424900206088 -0.24253566553492392 3.8019598599253746e-7
vn -0.9701425023290831 0.2425356163010306 -3.8019590881122067e-7
vn 0 0.9999999999997518 -7.048536628251334e-7
vn 0 -0.24253571223776207 0.9701424783449706
vn 0 0.24253492803512317 -0.9701426743953683
vn 1 0 0
vn -1 0 0
vn 0 0.9999999999997518 -7.048536628251334e-7
vn 0 -0.24253571223776207 0.9701424783449706
vn 0 0.24253492803512317 -0.9701426743953683
vn 1 0 0
vn -1 0 0
vn 0 0.9999999999997518 -7.048536628251334e-7
vn 0 -0.24253571223776207 0.9701424783449706
vn 0 0.24253492803512317 -0.9701426743953683
vn 1 0 0
vn -1 0 0
vn 0 0.9999999999997518 -7.048536624365554e-7
vn 0 -6.893395531615276e-7 0.9999999999997624
vn 0 -1.1559875356947916e-7 -0.9999999999999934
vn 1 0 0
vn -1 0 0
vn 0 0.9999999999997518 -7.048536624365554e-7
vn 0 0.24253600378666415 0.9701424054576706
vn 0 -0.24253600378666415 -0.9701424054576706
vn 0 0.24253600378666415 0.9701424054576706
vn 1 0 0
vn 0 -0.24253600378666415 -0.9701424054576706
vn -1 0 0
vn 0 -6.893395531615276e-7 0.9999999999997624
vn -1 0 0
vn 0 -1.1559875356947916e-7 -0.9999999999999934
vn 1 0 0
vn -1 0 0
vn 0 -1.1559875356947916e-7 -0.9999999999999934
vn 1 0 0
vn 0 1.1559875356947916e-7 0.9999999999999934
vn -1 0 0
vn 0 -1.1559875384703489e-7 -0.9999999999999933
vn 1 0 0
vn 0 1.1559875390254604e-7 0.9999999999999933
vn 0 6.89339552745194e-7 -0.9999999999997625
vn 1 0 0
vn 0 1.1559875379152373e-7 0.9999999999999933
vn -1 0 0
vn 0 6.89339552745194e-7 -0.9999999999997625
vn 1 0 0
vn 0 1.1559875379152373e-7 0.9999999999999933
vn -1 0 0
vn 1 0 0
vn 0 1.1559875390254604e-7 0.9999999999999933
vn -1 0 0
vn 0 -1.1559875384703489e-7 -0.9999999999999933
vn 1 0 0
vn 0 1.1559875356947916e-7 0.9999999999999934
vn -1 0 0
vn 0 -1.1559875356947916e-7 -0.9999999999999934
vn 1 0 0
vn 0 -6.893395531615276e-7 0.9999999999997624
vn -1 0 0
vn 0 -1.1559875356947916e-7 -0.9999999999999934
vn 0 -6.893395531615276e-7 0.9999999999997624
vn -1 0 0
vn 0 -1.1559875356947916e-7 -0.9999999999999934
vn 1 0 0
vn 0.9991330727851357 0.04163055208531769 -6.525955166883368e-8
vn 0 1.1559875379152373e-7 0.9999999999999933
vn -0.9991330731586139 -0.04163054312184397 6.525953761930825e-8
vn 0 6.89339552745194e-7 -0.9999999999997625
vn 1 0 0
vn 0 1.1559875379152373e-7 0.9999999999999933
vn -1 0 0
vn 0 6.89339552745194e-7 -0.9999999999997625
vn -0.9701811791160887 0.2423799528089499 0.0006619405165070453
vn -0.9701422778194834 0.24253561294019235 -0.000661243487596372
vn -0.9999997673208743 7.885819579799003e-11 0.0006821716773087657
vn -0.9999997677000582 -7.879391407459962e-11 -0.0006816156028384816
vn -0.9701425023291431 0.24253561630108603 -3.0920616483909313e-8
vn -1 0 0
vn 0.9701657872651014 0.24244213113078555 0.0003978354547170826
vn 0.9701424133618796 0.24253564664389948 -0.0003973706250283704
vn 0.9999999159680916 4.739038694345603e-11 0.0004099558631875844
vn 0.9999999161050337 -4.7351756332159405e-11 -0.0004096216862278323
vn 0.9701425023291431 0.24253561630108597 -3.0920616483909313e-8
vn 1 0 0
vn -0.0006614588316871538 0.2423792438385057 0.9701813565661259
vn 0.0006608928076623543 0.24253595081930457 0.9701421935885858
vn -0.0006818455184653125 1.155987272016823e-7 0.9999997675433108
vn 0.0006812895897771083 1.1559872670208193e-7 0.9999997679222139
vn 0 0.2425360037866637 0.9701424054576708
vn 0 1.1559875406907949e-7 0.9999999999999933
vn -0.0003979794304953895 0.24244203643789025 -0.9701658108695759
vn 0.000397645391412038 0.24253569306266262 -0.9701424016446022
vn -0.0004101162557693752 -1.1559874404931669e-7 -0.9999999159023182
vn 0.0004097818758351409 -1.1559874402156114e-7 -0.9999999160393971
vn 0 0.242535712237762 -0.9701424783449705
vn 0 -1.1559875376376816e-7 -0.9999999999999934
vn 1 0 0
vn -1 0 0
vn 0 1.4948361701239143e-7 0.9999999999999889
vn 0 -2.172636262010031e-7 -0.9999999999999765
vn 0 0.9999999999999981 -6.418321921164428e-8
vn -1.1553996507173282e-7 0.9999999999999921 5.135695979596734e-8
vn 0 0.9999999999983851 -0.0000017972858920856098
vn -0.0000018486449755606771 0.9999999999982899 5.135695976821175e-8
vn 0 -0.12692800862987963 0.9919119318897486
vn 0 -0.12692800862987963 0.9919119318897486
vn 0.9919120447389818 -0.1269271267370832 2.6526745564026122e-8
vn 0 -0.12692739621687896 -0.9919120102557503
vn -0.9919120394464926 -0.12692716809690432 -1.086950834894296e-8
vn 0 0.25882004505527223 0.9659255583519814
vn 0 -0.25882004505527223 -0.9659255583519814
vn 0 0.9659259897176831 -0.2588184351778571
vn 0 -0.9659259897176831 0.2588184351778571
vn -0.9659264617523801 0.25881667350950377 -5.4090596904310395e-8
vn 0.9659256284218247 -0.25881978355199303 5.4091246884380175e-8
vn 0.2588186825269379 0.9659259234408091 -2.0187072602428918e-7
vn -0.25881951586113316 -0.9659257001495343 2.0187067936716652e-7
vn -0.9659264617523846 0.2588166735094857 6.029128320206302e-8
vn 0.9659256284218292 -0.2588197835519748 -6.029200769197553e-8
vn 0.25881868252718787 0.9659259234407369 2.2501221669246618e-7
vn -0.2588195158613834 -0.9659257001494622 -2.2501216467851753e-7
vn -0.9659264617523752 0.25881667350950965 -9.595731181866185e-8
vn 0.9659256284218198 -0.2588197835519988 9.595846488241746e-8
vn 0.2588186825268344 0.9659259234407914 -3.5812088058917446e-7
vn -0.25881951586102964 -0.9659257001495167 3.58120797822048e-7
vn 0 0.25881904510252074 -0.9659258262890683
vn 0 -0.25881904510252074 0.9659258262890683
vn 0 0.9659258262890683 0.25881904510252074
vn 0 -0.9659258262890683 -0.25881904510252074
vn 0 0.25881924011549273 0.965925774035479
vn 0 -0.25881924011549273 -0.965925774035479
vn 0 0.9659257740354791 -0.25881924011549234
vn 0 -0.9659257740354791 0.25881924011549234
vn -0.9659254127372471 0.2588205884939794 -9.595876333812203e-8
vn 0.9659257362633515 -0.2588193810828185 9.595831566844295e-8
vn 0.2588186967232407 0.9659259196368813 -3.5812087922915126e-7
vn -0.25881869672450153 -0.9659259196365837 -2.2501221580428776e-7
vn -0.9659257362633815 0.2588193810827046 1.021589792760125e-7
vn 0.9659254127372214 -0.2588205884940856 -6.029219520864437e-8
vn 0.2588199041311044 0.9659255961125686 3.8126191534426656e-7
vn -0.25881869672358704 -0.9659259196368339 2.0187072521937743e-7
vn -0.9659254127372471 0.2588205884939795 -9.595876335199982e-8
vn 0.9659257362633609 -0.25881938108279534 5.409116277110826e-8
vn 0.2588186967232406 0.9659259196368816 -3.581208792846625e-7
vn -0.2588199041315105 -0.9659255961125086 -2.2501214044789997e-7
vn 0 0.25881904510252074 -0.9659258262890683
vn 0 -0.25881904510252074 0.9659258262890683
vn 0 0.9659258262890683 0.25881904510252074
vn 0 -0.9659258262890683 -0.25881904510252074
vn 0 0.25882004505527223 0.9659255583519814
vn 0 -0.25882004505527223 -0.9659255583519814
vn 0 0.9659259897176831 -0.2588184351778571
vn 0 -0.9659259897176831 0.2588184351778571
vn 0.9659264617523801 0.2588166735095038 -5.409059690431041e-8
vn -0.9659256284218247 -0.25881978355199303 5.4091246884380175e-8
vn -0.2588186825269377 0.9659259234408089 -2.0187072596877792e-7
vn 0.25881951586113316 -0.9659257001495343 2.0187067936716652e-7
vn 0.9659264617523845 0.2588166735094857 6.029128318818522e-8
vn -0.9659256284218292 -0.25881978355197477 -6.029200769197553e-8
vn -0.2588186825271878 0.9659259234407368 2.2501221663695503e-7
vn 0.2588195158613834 -0.9659257001494622 -2.2501216467851753e-7
vn 0.9659264617523752 0.2588166735095096 -9.595731183253964e-8
vn -0.9659256284218197 -0.25881978355199875 9.595846488241744e-8
vn -0.2588186825268344 0.9659259234407914 -3.5812088058917446e-7
vn 0.2588195158610295 -0.9659257001495167 3.581207977665368e-7
vn 0 0.25881904510252074 -0.9659258262890683
vn 0 -0.25881904510252074 0.9659258262890683
vn 0 0.9659258262890683 0.25881904510252074
vn 0 -0.9659258262890683 -0.25881904510252074
vn 0 0.25881924011549273 0.965925774035479
vn 0 -0.25881924011549273 -0.965925774035479
vn 0 0.9659257740354791 -0.25881924011549234
vn 0 -0.9659257740354791 0.25881924011549234
vn 0.965925412737247 0.25882058849397943 -9.595876332424425e-8
vn -0.9659257362633515 -0.2588193810828185 9.595831566844295e-8
vn -0.2588186967232406 0.9659259196368816 -3.5812087922915136e-7
vn 0.2588186967245016 -0.9659259196365838 -2.2501221580428782e-7
vn 0.9659257362633815 0.2588193810827045 1.0215897926213471e-7
vn -0.9659254127372214 -0.2588205884940857 -6.029219522252216e-8
vn -0.2588199041311043 0.9659255961125686 3.8126191534426656e-7
vn 0.2588186967235869 -0.9659259196368339 2.0187072521937743e-7
vn 0.965925412737247 0.25882058849397954 -9.595876332424425e-8
vn -0.965925736263361 -0.25881938108279534 5.409116277110827e-8
vn -0.25881869672324037 0.9659259196368816 -3.581208792846625e-7
vn 0.25881990413151057 -0.9659255961125086 -2.2501214044789997e-7
vn 0 0.25881904510252074 -0.9659258262890683
vn 0 -0.25881904510252074 0.9659258262890683
vn 0 0.9659258262890683 0.25881904510252074
vn 0 -0.9659258262890683 -0.25881904510252074
usemtl base_steel
f 4/1/1 2/2/1 1/3/1
f 4/1/1 1/3/1 3/4/1
f 7/5/2 5/6/2 6/7/2
f 7/5/2 6/7/2 8/8/2
f 5/9/3 12/10/3 11/11/3
f 5/9/3 11/11/3 6/12/3
f 8/13/4 10/14/4 9/15/4
f 8/13/4 9/15/4 7/16/4
f 7/17/5 9/18/5 12/19/5
f 7/17/5 12/19/5 5/20/5
f 6/21/6 11/22/6 10/23/6
f 6/21/6 10/23/6 8/24/6
f 3/25/7 9/26/7 10/27/7
f 3/25/7 10/27/7 4/28/7
f 4/29/8 10/30/8 11/31/8
f 4/29/8 11/31/8 2/32/8
f 2/33/9 11/34/9 12/35/9
f 2/33/9 12/35/9 1/36/9
f 1/37/10 12/38/10 9/39/10
f 1/37/10 9/39/10 3/40/10
f 13/41/11 14/42/11 16/43/11
f 13/41/11 16/43/11 15/44/11
f 18/45/12 17/46/12 19/47/12
f 18/45/12 19/47/12 20/48/12
f 23/49/13 24/50/13 17/51/13
f 23/49/13 17/51/13 18/52/13
f 21/53/14 22/54/14 20/55/14
f 21/53/14 20/55/14 19/56/14
f 24/57/15 21/58/15 19/59/15
f 24/57/15 19/59/15 17/60/15
f 22/61/16 23/62/16 18/63/16
f 22/61/16 18/63/16 20/64/16
f 22/65/17 21/66/17 15/67/17
f 22/65/17 15/67/17 16/68/17
f 23/69/18 22/70/18 16/71/18
f 23/69/18 16/71/18 14/72/18
f 24/73/19 23/74/19 14/75/19
f 24/73/19 14/75/19 13/76/19
f 21/77/20 24/78/20 13/79/20
f 21/77/20 13/79/20 15/80/20
f 25/81/21 162/82/21 161/83/21
f 25/81/21 161/83/21 26/84/21
f 30/85/22 164/86/22 163/87/22
f 30/85/22 163/87/22 29/88/22
f 25/89/23 26/90/23 30/91/23
f 25/89/23 30/91/23 29/92/23
f 29/93/24 163/94/24 162/95/24
f 29/93/24 162/95/24 25/96/24
f 26/97/25 161/98/25 164/99/25
f 26/97/25 164/99/25 30/100/25
f 33/101/26 146/102/26 145/103/26
f 33/101/26 145/103/26 34/104/26
f 38/105/27 148/106/27 147/107/27
f 38/105/27 147/107/27 37/108/27
f 33/109/28 34/110/28 38/111/28
f 33/109/28 38/111/28 37/112/28
f 37/113/29 147/114/29 146/115/29
f 37/113/29 146/115/29 33/116/29
f 34/117/30 145/118/30 148/119/30
f 34/117/30 148/119/30 38/120/30
f 41/121/31 154/122/31 153/123/31
f 41/121/31 153/123/31 42/124/31
f 46/125/32 156/126/32 155/127/32
f 46/125/32 155/127/32 45/128/32
f 41/129/33 42/130/33 46/131/33
f 41/129/33 46/131/33 45/132/33
f 45/133/34 155/134/34 154/135/34
f 45/133/34 154/135/34 41/136/34
f 42/137/35 153/138/35 156/139/35
f 42/137/35 156/139/35 46/140/35
f 49/141/36 150/142/36 149/143/36
f 49/141/36 149/143/36 50/144/36
f 54/145/37 152/146/37 151/147/37
f 54/145/37 151/147/37 53/148/37
f 49/149/38 50/150/38 54/151/38
f 49/149/38 54/151/38 53/152/38
f 53/153/39 151/154/39 150/155/39
f 53/153/39 150/155/39 49/156/39
f 50/157/40 149/158/40 152/159/40
f 50/157/40 152/159/40 54/160/40
f 57/161/41 136/162/41 135/163/41
f 57/161/41 135/163/41 58/164/41
f 62/165/42 134/166/42 133/167/42
f 62/165/42 133/167/42 61/168/42
f 57/169/43 58/170/43 62/171/43
f 57/169/43 62/171/43 61/172/43
f 61/173/44 133/174/44 136/175/44
f 61/173/44 136/175/44 57/176/44
f 58/177/45 135/178/45 134/179/45
f 58/177/45 134/179/45 62/180/45
f 65/181/46 132/182/46 131/183/46
f 65/181/46 131/183/46 66/184/46
f 70/185/47 130/186/47 129/187/47
f 70/185/47 129/187/47 69/188/47
f 65/189/48 66/190/48 70/191/48
f 65/189/48 70/191/48 69/192/48
f 69/193/49 129/194/49 132/195/49
f 69/193/49 132/195/49 65/196/49
f 66/197/50 131/198/50 130/199/50
f 66/197/50 130/199/50 70/200/50
f 73/201/51 157/202/51 160/203/51
f 73/201/51 160/203/51 74/204/51
f 78/205/52 159/206/52 158/207/52
f 78/205/52 158/207/52 77/208/52
f 73/209/53 74/210/53 78/211/53
f 73/209/53 78/211/53 77/212/53
f 77/213/54 158/214/54 157/215/54
f 77/213/54 157/215/54 73/216/54
f 74/217/55 160/218/55 159/219/55
f 74/217/55 159/219/55 78/220/55
f 81/221/56 166/222/56 165/223/56
f 81/221/56 165/223/56 82/224/56
f 86/225/57 168/226/57 167/227/57
f 86/225/57 167/227/57 85/228/57
f 81/229/58 82/230/58 86/231/58
f 81/229/58 86/231/58 85/232/58
f 85/233/59 167/234/59 166/235/59
f 85/233/59 166/235/59 81/236/59
f 82/237/60 165/238/60 168/239/60
f 82/237/60 168/239/60 86/240/60
f 89/241/61 139/242/61 138/243/61
f 89/241/61 138/243/61 90/244/61
f 94/245/62 137/246/62 140/247/62
f 94/245/62 140/247/62 93/248/62
f 89/249/63 90/250/63 94/251/63
f 89/249/63 94/251/63 93/252/63
f 93/253/64 140/254/64 139/255/64
f 93/253/64 139/255/64 89/256/64
f 90/257/65 138/258/65 137/259/65
f 90/257/65 137/259/65 94/260/65
f 97/261/66 143/262/66 142/263/66
f 97/261/66 142/263/66 98/264/66
f 102/265/67 141/266/67 144/267/67
f 102/265/67 144/267/67 101/268/67
f 97/269/68 98/270/68 102/271/68
f 97/269/68 102/271/68 101/272/68
f 101/273/69 144/274/69 143/275/69
f 101/273/69 143/275/69 97/276/69
f 98/277/70 142/278/70 141/279/70
f 98/277/70 141/279/70 102/280/70
f 108/281/71 123/282/71 122/283/71
f 108/281/71 122/283/71 107/284/71
f 111/285/72 121/286/72 124/287/72
f 111/285/72 124/287/72 112/288/72
f 105/289/73 106/290/73 110/291/73
f 105/289/73 110/291/73 109/292/73
f 107/293/74 122/294/74 121/295/74
f 107/293/74 121/295/74 111/296/74
f 112/297/75 124/298/75 123/299/75
f 112/297/75 123/299/75 108/300/75
f 113/301/76 125/302/76 128/303/76
f 113/301/76 128/303/76 114/304/76
f 118/305/77 127/306/77 126/307/77
f 118/305/77 126/307/77 117/308/77
f 113/309/78 114/310/78 118/311/78
f 113/309/78 118/311/78 117/312/78
f 117/313/79 126/314/79 125/315/79
f 117/313/79 125/315/79 113/316/79
f 114/317/80 128/318/80 127/319/80
f 114/317/80 127/319/80 118/320/80
f 109/321/81 121/322/81 122/323/81
f 109/321/81 122/323/81 105/324/81
f 105/325/82 122/326/82 123/327/82
f 105/325/82 123/327/82 106/328/82
f 106/329/83 123/330/83 124/331/83
f 106/329/83 124/331/83 110/332/83
f 110/333/84 124/334/84 121/335/84
f 110/333/84 121/335/84 109/336/84
f 115/337/85 125/338/85 126/339/85
f 115/337/85 126/339/85 119/340/85
f 119/341/86 126/342/86 127/343/86
f 119/341/86 127/343/86 120/344/86
f 120/345/87 127/346/87 128/347/87
f 120/345/87 128/347/87 116/348/87
f 116/349/88 128/350/88 125/351/88
f 116/349/88 125/351/88 115/352/88
f 71/353/89 129/354/89 130/355/89
f 71/353/89 130/355/89 72/356/89
f 72/357/90 130/358/90 131/359/90
f 72/357/90 131/359/90 68/360/90
f 68/361/91 131/362/91 132/363/91
f 68/361/91 132/363/91 67/364/91
f 67/365/92 132/366/92 129/367/92
f 67/365/92 129/367/92 71/368/92
f 63/369/93 133/370/93 134/371/93
f 63/369/93 134/371/93 64/372/93
f 64/373/94 134/374/94 135/375/94
f 64/373/94 135/375/94 60/376/94
f 60/377/95 135/378/95 136/379/95
f 60/377/95 136/379/95 59/380/95
f 59/381/96 136/382/96 133/383/96
f 59/381/96 133/383/96 63/384/96
f 96/385/97 137/386/97 138/387/97
f 96/385/97 138/387/97 92/388/97
f 92/389/98 138/390/98 139/391/98
f 92/389/98 139/391/98 91/392/98
f 91/393/99 139/394/99 140/395/99
f 91/393/99 140/395/99 95/396/99
f 95/397/100 140/398/100 137/399/100
f 95/397/100 137/399/100 96/400/100
f 104/401/101 141/402/101 142/403/101
f 104/401/101 142/403/101 100/404/101
f 100/405/102 142/406/102 143/407/102
f 100/405/102 143/407/102 99/408/102
f 99/409/103 143/410/103 144/411/103
f 99/409/103 144/411/103 103/412/103
f 103/413/104 144/414/104 141/415/104
f 103/413/104 141/415/104 104/416/104
f 36/417/105 145/418/105 146/419/105
f 36/417/105 146/419/105 35/420/105
f 35/421/106 146/422/106 147/423/106
f 35/421/106 147/423/106 39/424/106
f 39/425/107 147/426/107 148/427/107
f 39/425/107 148/427/107 40/428/107
f 40/429/108 148/430/108 145/431/108
f 40/429/108 145/431/108 36/432/108
f 52/433/109 149/434/109 150/435/109
f 52/433/109 150/435/109 51/436/109
f 51/437/110 150/438/110 151/439/110
f 51/437/110 151/439/110 55/440/110
f 55/441/111 151/442/111 152/443/111
f 55/441/111 152/443/111 56/444/111
f 56/445/112 152/446/112 149/447/112
f 56/445/112 149/447/112 52/448/112
f 44/449/113 153/450/113 154/451/113
f 44/449/113 154/451/113 43/452/113
f 43/453/114 154/454/114 155/455/114
f 43/453/114 155/455/114 47/456/114
f 47/457/115 155/458/115 156/459/115
f 47/457/115 156/459/115 48/460/115
f 48/461/116 156/462/116 153/463/116
f 48/461/116 153/463/116 44/464/116
f 75/465/117 157/466/117 158/467/117
f 75/465/117 158/467/117 79/468/117
f 79/469/118 158/470/118 159/471/118
f 79/469/118 159/471/118 80/472/118
f 80/473/119 159/474/119 160/475/119
f 80/473/119 160/475/119 76/476/119
f 76/477/120 160/478/120 157/479/120
f 76/477/120 157/479/120 75/480/120
f 28/481/121 161/482/121 162/483/121
f 28/481/121 162/483/121 27/484/121
f 27/485/122 162/486/122 163/487/122
f 27/485/122 163/487/122 31/488/122
f 31/489/123 163/490/123 164/491/123
f 31/489/123 164/491/123 32/492/123
f 32/493/124 164/494/124 161/495/124
f 32/493/124 161/495/124 28/496/124
f 84/497/125 165/498/125 166/499/125
f 84/497/125 166/499/125 83/500/125
f 83/501/126 166/502/126 167/503/126
f 83/501/126 167/503/126 87/504/126
f 87/505/127 167/506/127 168/507/127
f 87/505/127 168/507/127 88/508/127
f 88/509/128 168/510/128 165/511/128
f 88/509/128 165/511/128 84/512/128
f 172/513/129 177/514/129 178/515/129
f 172/513/129 178/515/129 170/516/129
f 169/517/130 180/518/130 179/519/130
f 169/517/130 179/519/130 174/520/130
f 171/521/131 178/522/131 177/523/131
f 171/521/131 177/523/131 173/524/131
f 175/525/132 179/526/132 180/527/132
f 175/525/132 180/527/132 176/528/132
f 170/529/133 178/530/133 180/531/133
f 170/529/133 180/531/133 169/532/133
f 176/533/134 180/534/134 178/535/134
f 176/533/134 178/535/134 171/536/134
f 190/537/135 189/538/135 184/539/135
f 190/537/135 184/539/135 182/540/135
f 191/541/136 192/542/136 181/543/136
f 191/541/136 181/543/136 186/544/136
f 189/545/137 190/546/137 183/547/137
f 189/545/137 183/547/137 185/548/137
f 192/549/138 191/550/138 187/551/138
f 192/549/138 187/551/138 188/552/138
f 192/553/139 190/554/139 182/555/139
f 192/553/139 182/555/139 181/556/139
f 190/557/140 192/558/140 188/559/140
f 190/557/140 188/559/140 183/560/140
f 197/561/141 191/562/141 186/563/141
f 197/561/141 186/563/141 194/564/141
f 179/565/142 198/566/142 193/567/142
f 179/565/142 193/567/142 174/568/142
f 191/569/143 197/570/143 195/571/143
f 191/569/143 195/571/143 187/572/143
f 198/573/144 179/574/144 175/575/144
f 198/573/144 175/575/144 196/576/144
f 198/577/145 197/578/145 194/579/145
f 198/577/145 194/579/145 193/580/145
f 197/581/146 198/582/146 196/583/146
f 197/581/146 196/583/146 195/584/146
f 184/585/147 189/586/147 203/587/147
f 184/585/147 203/587/147 200/588/147
f 199/589/148 204/590/148 177/591/148
f 199/589/148 177/591/148 172/592/148
f 201/593/149 203/594/149 189/595/149
f 201/593/149 189/595/149 185/596/149
f 173/597/150 177/598/150 204/599/150
f 173/597/150 204/599/150 202/600/150
f 200/601/151 203/602/151 204/603/151
f 200/601/151 204/603/151 199/604/151
f 202/605/152 204/606/152 203/607/152
f 202/605/152 203/607/152 201/608/152
f 205/609/153 206/610/153 208/611/153
f 205/609/153 208/611/153 207/612/153
f 210/613/154 209/614/154 211/615/154
f 210/613/154 211/615/154 212/616/154
f 209/617/155 205/618/155 207/619/155
f 209/617/155 207/619/155 211/620/155
f 206/621/156 210/622/156 212/623/156
f 206/621/156 212/623/156 208/624/156
f 214/625/157 213/626/157 211/627/157
f 214/625/157 211/627/157 207/628/157
f 215/629/158 214/630/158 207/631/158
f 215/629/158 207/631/158 208/632/158
f 216/633/159 215/634/159 208/635/159
f 216/633/159 208/635/159 212/636/159
f 213/637/160 216/638/160 212/639/160
f 213/637/160 212/639/160 211/640/160
f 209/641/161 224/642/161 223/643/161
f 209/641/161 223/643/161 217/644/161
f 218/645/162 226/646/162 225/647/162
f 218/645/162 225/647/162 205/648/162
f 221/649/163 227/650/163 228/651/163
f 221/649/163 228/651/163 222/652/163
f 219/653/164 229/654/164 230/655/164
f 219/653/164 230/655/164 220/656/164
f 210/657/165 232/658/165 231/659/165
f 210/657/165 231/659/165 209/660/165
f 233/661/166 234/662/166 236/663/166
f 233/661/166 236/663/166 235/664/166
f 238/665/167 237/666/167 239/667/167
f 238/665/167 239/667/167 240/668/167
f 238/669/168 234/670/168 233/671/168
f 238/669/168 233/671/168 237/672/168
f 239/673/169 235/674/169 236/675/169
f 239/673/169 236/675/169 240/676/169
f 241/677/170 242/678/170 244/679/170
f 241/677/170 244/679/170 243/680/170
f 246/681/171 245/682/171 247/683/171
f 246/681/171 247/683/171 248/684/171
f 246/685/172 242/686/172 241/687/172
f 246/685/172 241/687/172 245/688/172
f 247/689/173 243/690/173 244/691/173
f 247/689/173 244/691/173 248/692/173
f 242/693/174 249/694/174 250/695/174
f 242/693/174 250/695/174 244/696/174
f 251/697/175 246/698/175 248/699/175
f 251/697/175 248/699/175 252/700/175
f 251/701/176 249/702/176 242/703/176
f 251/701/176 242/703/176 246/704/176
f 248/705/177 244/706/177 250/707/177
f 248/705/177 250/707/177 252/708/177
f 249/709/178 253/710/178 254/711/178
f 249/709/178 254/711/178 250/712/178
f 255/713/179 251/714/179 252/715/179
f 255/713/179 252/715/179 256/716/179
f 255/717/180 253/718/180 249/719/180
f 255/717/180 249/719/180 251/720/180
f 252/721/181 250/722/181 254/723/181
f 252/721/181 254/723/181 256/724/181
f 260/725/182 258/726/182 257/727/182
f 260/725/182 257/727/182 259/728/182
f 263/729/183 261/730/183 262/731/183
f 263/729/183 262/731/183 264/732/183
f 257/733/184 258/734/184 262/735/184
f 257/733/184 262/735/184 261/736/184
f 260/737/185 259/738/185 263/739/185
f 260/737/185 263/739/185 264/740/185
f 265/741/186 266/742/186 268/743/186
f 265/741/186 268/743/186 267/744/186
f 270/745/187 269/746/187 271/747/187
f 270/745/187 271/747/187 272/748/187
f 270/749/188 266/750/188 265/751/188
f 270/749/188 265/751/188 269/752/188
f 271/753/189 267/754/189 268/755/189
f 271/753/189 268/755/189 272/756/189
f 273/757/190 274/758/190 276/759/190
f 273/757/190 276/759/190 275/760/190
f 278/761/191 277/762/191 279/763/191
f 278/761/191 279/763/191 280/764/191
f 278/765/192 274/766/192 273/767/192
f 278/765/192 273/767/192 277/768/192
f 279/769/193 275/770/193 276/771/193
f 279/769/193 276/771/193 280/772/193
f 274/773/194 281/774/194 282/775/194
f 274/773/194 282/775/194 276/776/194
f 283/777/195 278/778/195 280/779/195
f 283/777/195 280/779/195 284/780/195
f 283/781/196 281/782/196 274/783/196
f 283/781/196 274/783/196 278/784/196
f 280/785/197 276/786/197 282/787/197
f 280/785/197 282/787/197 284/788/197
f 281/789/198 285/790/198 286/791/198
f 281/789/198 286/791/198 282/792/198
f 287/793/199 283/794/199 284/795/199
f 287/793/199 284/795/199 288/796/199
f 287/797/200 285/798/200 281/799/200
f 287/797/200 281/799/200 283/800/200
f 284/801/201 282/802/201 286/803/201
f 284/801/201 286/803/201 288/804/201
f 292/805/202 290/806/202 289/807/202
f 292/805/202 289/807/202 291/808/202
f 295/809/203 293/810/203 294/811/203
f 295/809/203 294/811/203 296/812/203
f 289/813/204 290/814/204 294/815/204
f 289/813/204 294/815/204 293/816/204
f 292/817/205 291/818/205 295/819/205
f 292/817/205 295/819/205 296/820/205
f 300/821/206 298/822/206 297/823/206
f 300/821/206 297/823/206 299/824/206
f 303/825/207 301/826/207 302/827/207
f 303/825/207 302/827/207 304/828/207
f 297/829/208 298/830/208 302/831/208
f 297/829/208 302/831/208 301/832/208
f 300/833/209 299/834/209 303/835/209
f 300/833/209 303/835/209 304/836/209
f 308/837/210 306/838/210 305/839/210
f 308/837/210 305/839/210 307/840/210
f 311/841/211 309/842/211 310/843/211
f 311/841/211 310/843/211 312/844/211
f 305/845/212 306/846/212 310/847/212
f 305/845/212 310/847/212 309/848/212
f 308/849/213 307/850/213 311/851/213
f 308/849/213 311/851/213 312/852/213
f 314/853/214 313/854/214 306/855/214
f 314/853/214 306/855/214 308/856/214
f 312/857/215 310/858/215 315/859/215
f 312/857/215 315/859/215 316/860/215
f 306/861/216 313/862/216 315/863/216
f 306/861/216 315/863/216 310/864/216
f 314/865/217 308/866/217 312/867/217
f 314/865/217 312/867/217 316/868/217
f 318/869/218 317/870/218 313/871/218
f 318/869/218 313/871/218 314/872/218
f 316/873/219 315/874/219 319/875/219
f 316/873/219 319/875/219 320/876/219
f 313/877/220 317/878/220 319/879/220
f 313/877/220 319/879/220 315/880/220
f 318/881/221 314/882/221 316/883/221
f 318/881/221 316/883/221 320/884/221
f 321/885/222 322/886/222 324/887/222
f 321/885/222 324/887/222 323/888/222
f 326/889/223 325/890/223 327/891/223
f 326/889/223 327/891/223 328/892/223
f 326/893/224 322/894/224 321/895/224
f 326/893/224 321/895/224 325/896/224
f 327/897/225 323/898/225 324/899/225
f 327/897/225 324/899/225 328/900/225
f 332/901/226 330/902/226 329/903/226
f 332/901/226 329/903/226 331/904/226
f 335/905/227 333/906/227 334/907/227
f 335/905/227 334/907/227 336/908/227
f 329/909/228 330/910/228 334/911/228
f 329/909/228 334/911/228 333/912/228
f 332/913/229 331/914/229 335/915/229
f 332/913/229 335/915/229 336/916/229
f 340/917/230 338/918/230 337/919/230
f 340/917/230 337/919/230 339/920/230
f 343/921/231 341/922/231 342/923/231
f 343/921/231 342/923/231 344/924/231
f 337/925/232 338/926/232 342/927/232
f 337/925/232 342/927/232 341/928/232
f 340/929/233 339/930/233 343/931/233
f 340/929/233 343/931/233 344/932/233
f 346/933/234 345/934/234 338/935/234
f 346/933/234 338/935/234 340/936/234
f 344/937/235 342/938/235 347/939/235
f 344/937/235 347/939/235 348/940/235
f 338/941/236 345/942/236 347/943/236
f 338/941/236 347/943/236 342/944/236
f 346/945/237 340/946/237 344/947/237
f 346/945/237 344/947/237 348/948/237
f 350/949/238 349/950/238 345/951/238
f 350/949/238 345/951/238 346/952/238
f 348/953/239 347/954/239 351/955/239
f 348/953/239 351/955/239 352/956/239
f 345/957/240 349/958/240 351/959/240
f 345/957/240 351/959/240 347/960/240
f 350/961/241 346/962/241 348/963/241
f 350/961/241 348/963/241 352/964/241
f 353/965/242 354/966/242 356/967/242
f 353/965/242 356/967/242 355/968/242
f 358/969/243 357/970/243 359/971/243
f 358/969/243 359/971/243 360/972/243
f 358/973/244 354/974/244 353/975/244
f 358/973/244 353/975/244 357/976/244
f 359/977/245 355/978/245 356/979/245
f 359/977/245 356/979/245 360/980/245