# Made by Pabilo8 with Blockbench
# Exported with IIToolkit Plugin
mtllib emplacement.mtl


o variant_wooden
v 1.9375 -0.34953687499999997 2.9375
v 1.9375 -0.34953687499999997 0.0625
v 1.9375 0.89375 0.0625
v 1.9375 0.89375 2.9375
v -0.9375 -0.34953687499999997 0.0625
v -0.9375 -0.34953687499999997 2.9375
v -0.9375 0.89375 2.9375
v -0.9375 0.89375 0.0625
v 1.693125 0.89375 2.693125
v -0.693125 0.89375 2.693125
v 1.693125 0.89375 0.306875
v -0.693125 0.89375 0.306875
v 1.993166875 1.1875 1.3065125
v 1.944095 1.1875 0.18258312500000007
v 1.993166875 0.9375 1.3065125
v 1.944095 0.9375 0.18258312500000007
v 1.743405 1.1875 1.317416875
v 1.694333125 1.1875 0.19348750000000003
v 1.743405 0.9375 1.317416875
v 1.694333125 0.9375 0.19348750000000003
v 1.898075625 1.1875 2.9500731250000003
v 2.012285625 1.1875 2.08255875
v 1.898075625 0.9375 2.9500731250000003
v 2.012285625 0.9375 2.08255875
v 1.650214375 1.1875 2.91744125
v 1.764424375 1.1875 2.049926875
v 1.650214375 0.9375 2.91744125
v 1.764424375 0.9375 2.049926875
v -0.19527125 1.1875 0.013666249999999991
v -0.8859049999999999 1.1875 0.06273812500000009
v -0.19527125 0.9375 0.013666249999999991
v -0.8859049999999999 0.9375 0.06273812500000009
v -0.188570625 1.1875 0.2634281249999999
v -0.879204375 1.1875 0.3125
v -0.188570625 0.9375 0.2634281249999999
v -0.879204375 0.9375 0.3125
v -0.15952062499999997 1.1875 2.7448562499999998
v -1.031190625 1.1875 2.668595
v -0.15952062499999997 0.9375 2.7448562499999998
v -1.031190625 0.9375 2.668595
v -0.181309375 1.1875 2.993905
v -1.052979375 1.1875 2.91764375
v -0.181309375 0.9375 2.993905
v -1.052979375 0.9375 2.91764375
v -0.694333125 1.1875 1.4940125
v -0.7434050000000001 1.1875 0.37008312500000007
v -0.694333125 0.9375 1.4940125
v -0.7434050000000001 0.9375 0.37008312500000007
v -0.9440949999999999 1.1875 1.504916875
v -0.993166875 1.1875 0.38098750000000003
v -0.9440949999999999 0.9375 1.504916875
v -0.993166875 0.9375 0.38098750000000003
v -0.6875 1.125 1.625
v -0.875 1.125 1.625
v -0.6875 0.9375 1.625
v -0.875 0.9375 1.625
v -0.6875 1.125 2.5
v -0.875 1.125 2.5
v -0.6875 0.9375 2.5
v -0.875 0.9375 2.5
v -0.9375 0.624678125 2.9415843749999997
v -0.9375 0.7500837499999999 0.06932062500000002
v -0.9375 0.37491625000000006 2.930679375
v -0.9375 0.500321875 0.05841562500000008
v -1 0.624678125 2.9415843749999997
v -1 0.7500837499999999 0.06932062500000002
v -1 0.37491625000000006 2.930679375
v -1.0020425 0.5004824999999999 0.05841562500000008
v -1 0.68738125 1.5054525
v -1 0.43761874999999995 1.4945475
v -0.9375 0.43761874999999995 1.4945475
v -0.9375 0.68738125 1.5054525
v -0.9375 0.3125 2.9375
v -0.9375 0.3125 0.0625
v -0.9375 0.0625 2.9375
v -0.9375 0.0625 0.0625
v -1 0.3125 2.9375
v -1 0.3125 0.0625
v -1 0.0625 2.9375
v -1 0.0625 0.0625
v -1 0.3125 1.5
v -1 0.0625 1.5
v -0.9375 0.0625 1.5
v -0.9375 0.3125 1.5
v 2 0.37491625000000006 0.06932062500000002
v 2 0.624678125 0.05841562500000008
v 2 0.37491625000000006 0.006820625000000025
v -1.004084375 0.50064375 -0.004084374999999918
v 2 0.624678125 -0.004084374999999918
v -1 0.7500837499999999 0.006820625000000025
v 0.43204750000000003 0.437940625 -0.004084374999999918
v 0.44295249999999997 0.6877031250000001 -0.004084374999999918
v 0.44295249999999997 0.6877031250000001 0.05841562500000008
v 0.43204750000000003 0.437940625 0.05841562500000008
v 2 0.0625 0.0625
v 2 0.3125 0.0625
v 2 0.0625 0
v -1 0.0625 0
v 2 0.3125 0
v -1 0.3125 0
v 0.4375 0.0625 0
v 0.4375 0.3125 0
v 0.4375 0.3125 0.0625
v 0.4375 0.0625 0.0625
v 1.9375 0.624678125 0.05841562500000008
v 1.9375 0.7500837499999999 2.930679375
v 1.9375 0.37491625000000006 0.06932062500000002
v 1.9375 0.500321875 2.9415843749999997
v 2 0.7500837499999999 2.930679375
v 2 0.500321875 2.9415843749999997
v 2 0.68738125 1.4945475
v 2 0.43761874999999995 1.5054525
v 1.9375 0.43761874999999995 1.5054525
v 1.9375 0.68738125 1.4945475
v 1.9375 0.3125 0.0625
v 1.9375 0.3125 2.9375
v 1.9375 0.0625 0.0625
v 1.9375 0.0625 2.9375
v 2 0.3125 2.9375
v 2 0.0625 2.9375
v 2 0.3125 1.5
v 2 0.0625 1.5
v 1.9375 0.0625 1.5
v 1.9375 0.3125 1.5
v 2 0.7500837499999999 2.993179375
v -1 0.624678125 3.0040843749999997
v 2 0.500321875 3.0040843749999997
v -1 0.37491625000000006 2.993179375
v 0.436131875 0.68738125 3.0040843749999997
v 0.447036875 0.43761874999999995 3.0040843749999997
v 0.447036875 0.43761874999999995 2.9415843749999997
v 0.436131875 0.68738125 2.9415843749999997
v 2 0.3125 3
v -1 0.3125 3
v 2 0.0625 3
v -1 0.0625 3
v 0.4375 0.3125 3
v 0.4375 0.0625 3
v 0.4375 0.0625 2.9375
v 0.4375 0.3125 2.9375
v -0.9375 -0.12532187500000003 2.9415843749999997
v -0.9375 0.00008374999999993804 0.06932062500000002
v -0.9375 -0.375 2.9375
v -0.9375 -0.24967812499999997 0.05841562500000008
v -1.0020425 -0.12548312500000003 2.9415843749999997
v -1 0.00008374999999993804 0.06932062500000002
v -1 -0.375 2.9375
v -1 -0.24967812499999997 0.05841562500000008
v -1 -0.06261874999999995 1.5054525
v -1 -0.31238125000000005 1.4945475
v -0.9375 -0.31238125000000005 1.4945475
v -0.9375 -0.06261874999999995 1.5054525
v 2 -0.37508375000000005 0.06932062500000002
v 2 -0.12532187500000003 0.05841562500000008
v 2 -0.37508375000000005 0.006820625000000025
v -1 -0.24967812499999997 -0.004084374999999918
v 2 -0.12532187500000003 -0.004084374999999918
v -1 0.00008374999999993804 0.006820625000000025
v 0.436131875 -0.31238125000000005 -0.004084374999999918
v 0.447036875 -0.06261874999999995 -0.004084374999999918
v 0.447036875 -0.06261874999999995 0.05841562500000008
v 0.436131875 -0.31238125000000005 0.05841562500000008
v 1.9375 -0.12532187500000003 0.05841562500000008
v 1.9375 0.00008374999999993804 2.930679375
v 1.9375 -0.375 0.0625
v 1.9375 -0.24967812499999997 2.9415843749999997
v 2 0.00008374999999993804 2.930679375
v 2 -0.375 0.0625
v 2 -0.24967812499999997 2.9415843749999997
v 2 -0.06261874999999995 1.4945475
v 2 -0.31238125000000005 1.5054525
v 1.9375 -0.31238125000000005 1.5054525
v 1.9375 -0.06261874999999995 1.4945475
v 2.003965 -0.24454750000000003 2.9415843749999997
v 2 0.00008374999999993804 2.993179375
v -1.004084375 -0.12564375000000005 3.0040843749999997
v 2.003965 -0.24454750000000003 3.0040843749999997
v -1 -0.375 3
v 0.43204750000000003 -0.06294062499999997 3.0040843749999997
v 0.44295249999999997 -0.31270312499999997 3.0040843749999997
v 0.44295249999999997 -0.31270312499999997 2.9415843749999997
v 0.43204750000000003 -0.06294062499999997 2.9415843749999997
v -1 0.940625 0.0625
v -1 0.75 0.0625
v -1 0.940625 2.9375
v -1 0.75 2.9375
v 2 0.940625 2.9375
v 2 0.940625 0.0625
v 2 0.75 2.9375
v 2 0.75 0.0625
v 1.9375 0.940625 2.9375
v -0.9375 0.940625 2.9375
v 1.9375 0.75 2.9375
v -0.9375 0.75 2.9375
v -0.9375 0.940625 0.0625
v 1.9375 0.940625 0.0625
v -0.9375 0.75 0.0625
v 1.9375 0.75 0.0625
v -1 0.940625 3
v -1 0.940625 0
v -1 0.75 3
v -1 0.75 0
v 2 0.940625 0
v 2 0.940625 3
v 2 0.75 0
v 2 0.75 3
v -0.9437500000000001 0.7251749999999999 0.34124687499999995
v -1.00625 0.7251749999999999 0.34124687499999995
v -0.9437500000000001 -0.38273375 0.53660125
v -1.00625 -0.38273375 0.53660125
v -0.9437500000000001 0.7577337500000001 0.52589875
v -1.00625 0.7577337500000001 0.52589875
v -0.9437500000000001 -0.350175 0.721253125
v -1.00625 -0.350175 0.721253125
v -0.9437500000000001 0.7521568750000001 1.23598625
v -1.00625 0.7521568750000001 1.23598625
v -0.9437500000000001 -0.32077437499999994 0.897691875
v -1.00625 -0.32077437499999994 0.897691875
v -0.9437500000000001 0.6957743750000001 1.414808125
v -1.00625 0.6957743750000001 1.414808125
v -0.9437500000000001 -0.37715687499999995 1.07651375
v -1.00625 -0.37715687499999995 1.07651375
v -0.9437500000000001 0.757424375 1.824223125
v -1.00625 0.757424375 1.824223125
v -0.9437500000000001 -0.35795062499999997 1.67738125
v -1.00625 -0.35795062499999997 1.67738125
v -0.9437500000000001 0.732950625 2.01011875
v -1.00625 0.732950625 2.01011875
v -0.9437500000000001 -0.38242437500000004 1.863276875
v -1.00625 -0.38242437500000004 1.863276875
v -0.9437500000000001 0.732950625 2.30238125
v -1.00625 0.732950625 2.30238125
v -0.9437500000000001 -0.38242437500000004 2.449223125
v -1.00625 -0.38242437500000004 2.449223125
v -0.9437500000000001 0.757424375 2.488276875
v -1.00625 0.757424375 2.488276875
v -0.9437500000000001 -0.35795062499999997 2.63511875
v -1.00625 -0.35795062499999997 2.63511875
v 1.94375 0.7251749999999999 0.34124687499999995
v 2.00625 0.7251749999999999 0.34124687499999995
v 1.94375 -0.38273375 0.53660125
v 2.00625 -0.38273375 0.53660125
v 1.94375 0.7577337500000001 0.52589875
v 2.00625 0.7577337500000001 0.52589875
v 1.94375 -0.350175 0.721253125
v 2.00625 -0.350175 0.721253125
v 1.94375 0.7521568750000001 1.23598625
v 2.00625 0.7521568750000001 1.23598625
v 1.94375 -0.32077437499999994 0.897691875
v 2.00625 -0.32077437499999994 0.897691875
v 1.94375 0.6957743750000001 1.414808125
v 2.00625 0.6957743750000001 1.414808125
v 1.94375 -0.37715687499999995 1.07651375
v 2.00625 -0.37715687499999995 1.07651375
v 1.94375 0.757424375 1.824223125
v 2.00625 0.757424375 1.824223125
v 1.94375 -0.35795062499999997 1.67738125
v 2.00625 -0.35795062499999997 1.67738125
v 1.94375 0.732950625 2.01011875
v 2.00625 0.732950625 2.01011875
v 1.94375 -0.38242437500000004 1.863276875
v 2.00625 -0.38242437500000004 1.863276875
v 1.94375 0.732950625 2.30238125
v 2.00625 0.732950625 2.30238125
v 1.94375 -0.38242437500000004 2.449223125
v 2.00625 -0.38242437500000004 2.449223125
v 1.94375 0.757424375 2.488276875
v 2.00625 0.757424375 2.488276875
v 1.94375 -0.35795062499999997 2.63511875
v 2.00625 -0.35795062499999997 2.63511875
v 1.783753125 0.7251749999999999 0.05624999999999991
v 1.783753125 0.7251749999999999 -0.006250000000000089
v 1.58839875 -0.38273375 0.05624999999999991
v 1.58839875 -0.38273375 -0.006250000000000089
v 1.59910125 0.7577337500000001 0.05624999999999991
v 1.59910125 0.7577337500000001 -0.006250000000000089
v 1.403746875 -0.350175 0.05624999999999991
v 1.403746875 -0.350175 -0.006250000000000089
v 0.8890137499999999 0.7521568750000001 0.05624999999999991
v 0.8890137499999999 0.7521568750000001 -0.006250000000000089
v 1.227308125 -0.32077437499999994 0.05624999999999991
v 1.227308125 -0.32077437499999994 -0.006250000000000089
v 0.710191875 0.6957743750000001 0.05624999999999991
v 0.710191875 0.6957743750000001 -0.006250000000000089
v 1.0484862499999998 -0.37715687499999995 0.05624999999999991
v 1.0484862499999998 -0.37715687499999995 -0.006250000000000089
v 0.300776875 0.757424375 0.05624999999999991
v 0.300776875 0.757424375 -0.006250000000000089
v 0.44761875 -0.35795062499999997 0.05624999999999991
v 0.44761875 -0.35795062499999997 -0.006250000000000089
v 0.11488124999999999 0.732950625 0.05624999999999991
v 0.11488124999999999 0.732950625 -0.006250000000000089
v 0.261723125 -0.38242437500000004 0.05624999999999991
v 0.261723125 -0.38242437500000004 -0.006250000000000089
v -0.17738125000000005 0.732950625 0.05624999999999991
v -0.17738125000000005 0.732950625 -0.006250000000000089
v -0.32422312499999995 -0.38242437500000004 0.05624999999999991
v -0.32422312499999995 -0.38242437500000004 -0.006250000000000089
v -0.36327687500000005 0.757424375 0.05624999999999991
v -0.36327687500000005 0.757424375 -0.006250000000000089
v -0.51011875 -0.35795062499999997 0.05624999999999991
v -0.51011875 -0.35795062499999997 -0.006250000000000089
v 1.783753125 0.7251749999999999 2.94375
v 1.783753125 0.7251749999999999 3.00625
v 1.58839875 -0.38273375 2.94375
v 1.58839875 -0.38273375 3.00625
v 1.59910125 0.7577337500000001 2.94375
v 1.59910125 0.7577337500000001 3.00625
v 1.403746875 -0.350175 2.94375
v 1.403746875 -0.350175 3.00625
v 0.8890137499999999 0.7521568750000001 2.94375
v 0.8890137499999999 0.7521568750000001 3.00625
v 1.227308125 -0.32077437499999994 2.94375
v 1.227308125 -0.32077437499999994 3.00625
v 0.710191875 0.6957743750000001 2.94375
v 0.710191875 0.6957743750000001 3.00625
v 1.0484862499999998 -0.37715687499999995 2.94375
v 1.0484862499999998 -0.37715687499999995 3.00625
v 0.300776875 0.757424375 2.94375
v 0.300776875 0.757424375 3.00625
v 0.44761875 -0.35795062499999997 2.94375
v 0.44761875 -0.35795062499999997 3.00625
v 0.11488124999999999 0.732950625 2.94375
v 0.11488124999999999 0.732950625 3.00625
v 0.261723125 -0.38242437500000004 2.94375
v 0.261723125 -0.38242437500000004 3.00625
v -0.17738125000000005 0.732950625 2.94375
v -0.17738125000000005 0.732950625 3.00625
v -0.32422312499999995 -0.38242437500000004 2.94375
v -0.32422312499999995 -0.38242437500000004 3.00625
v -0.36327687500000005 0.757424375 2.94375
v -0.36327687500000005 0.757424375 3.00625
v -0.51011875 -0.35795062499999997 2.94375
v -0.51011875 -0.35795062499999997 3.00625
v 2 -3 3
v 2 -3 0
v 2 -0.375 3
v 2 -0.375 0
v -1 -3 3
v -1 -3 0
v -1 -0.375 0
v -0.7450000000000001 -0.375 2.745
v 1.745 -0.375 2.745
v 1.745 -0.375 0.2549999999999999
v -0.7450000000000001 -0.375 0.2549999999999999
v 0 -3 3
v 1 -3 3
v 1 -3 0
v 0 -3 0
v 2 -3 2
v 2 -3 1
v 0 -3.5 2.9375
v -1 -3.5 2.9375
v 2 -3.5 2.9375
v 1 -3.5 2.9375
v 1.9375 -3.5 2
v 1.9375 -3.5 1
v 1 -3.5 0.0625
v 0 -3.5 0.0625
v -0.9375 -3.5 3
v -0.9375 -3.5 0
v 2 -1.6875 0
v 2 -1.6875 3
v -1 -1.6875 3
v -1 -1.6875 0
vt 0.015625 0.625
vt 0.734375 0.625
vt 0.734375 0.9375
vt 0.015625 0.9375
vt 0.015625 0.625
vt 0.734375 0.625
vt 0.734375 0.9375
vt 0.015625 0.9375
vt 0.015625 0.625
vt 0.734375 0.625
vt 0.734375 0.9375
vt 0.015625 0.9375
vt 0.015625 0.625
vt 0.734375 0.625
vt 0.734375 0.9375
vt 0.015625 0.9375
vt 0.0625 1
vt 0.6875 1
vt 0.75 0.9375
vt 0 0.9375
vt 0.6875 1
vt 0.0625 1
vt 0 0.9375
vt 0.75 0.9375
vt 0.0625 1
vt 0.6875 1
vt 0.75 0.9375
vt 0 0.9375
vt 0.6875 1
vt 0.0625 1
vt 0 0.9375
vt 0.75 0.9375
vt 0.8125 0.9375
vt 0.8125 1
vt 0.53125 1
vt 0.53125 0.9375
vt 0.8125 0.9375
vt 0.8125 1
vt 0.53125 1
vt 0.53125 0.9375
vt 0.8125 1
vt 0.53125 1
vt 0.53125 0.9375
vt 0.8125 0.9375
vt 0.8125 1
vt 0.53125 1
vt 0.53125 0.9375
vt 0.8125 0.9375
vt 0.8125 0.9375
vt 0.8125 1
vt 0.75 1
vt 0.75 0.9375
vt 0.8125 0.9375
vt 0.8125 1
vt 0.75 1
vt 0.75 0.9375
vt 0.75 0.9375
vt 0.75 1
vt 0.53125 1
vt 0.53125 0.9375
vt 0.75 0.9375
vt 0.75 1
vt 0.53125 1
vt 0.53125 0.9375
vt 0.75 1
vt 0.53125 1
vt 0.53125 0.9375
vt 0.75 0.9375
vt 0.75 1
vt 0.53125 1
vt 0.53125 0.9375
vt 0.75 0.9375
vt 0.8125 0.9375
vt 0.8125 1
vt 0.75 1
vt 0.75 0.9375
vt 0.8125 0.9375
vt 0.8125 1
vt 0.75 1
vt 0.75 0.9375
vt 0.640625 0.9375
vt 0.640625 1
vt 0.359375 1
vt 0.359375 0.9375
vt 0.640625 0.9375
vt 0.640625 1
vt 0.359375 1
vt 0.359375 0.9375
vt 0.640625 1
vt 0.359375 1
vt 0.359375 0.9375
vt 0.640625 0.9375
vt 0.640625 1
vt 0.359375 1
vt 0.359375 0.9375
vt 0.640625 0.9375
vt 0.8125 0.9375
vt 0.8125 1
vt 0.75 1
vt 0.75 0.9375
vt 0.8125 0.9375
vt 0.8125 1
vt 0.75 1
vt 0.75 0.9375
vt 0.375 0.9375
vt 0.375 1
vt 0.15625 1
vt 0.15625 0.9375
vt 0.375 0.9375
vt 0.375 1
vt 0.15625 1
vt 0.15625 0.9375
vt 0.375 1
vt 0.15625 1
vt 0.15625 0.9375
vt 0.375 0.9375
vt 0.375 1
vt 0.15625 1
vt 0.15625 0.9375
vt 0.375 0.9375
vt 0.8125 0.9375
vt 0.8125 1
vt 0.75 1
vt 0.75 0.9375
vt 0.8125 0.9375
vt 0.8125 1
vt 0.75 1
vt 0.75 0.9375
vt 0.28125 0.9375
vt 0.28125 1
vt 0 1
vt 0 0.9375
vt 0.28125 0.9375
vt 0.28125 1
vt 0 1
vt 0 0.9375
vt 0.28125 1
vt 0 1
vt 0 0.9375
vt 0.28125 0.9375
vt 0.28125 1
vt 0 1
vt 0 0.9375
vt 0.28125 0.9375
vt 0.8125 0.9375
vt 0.8125 1
vt 0.75 1
vt 0.75 0.9375
vt 0.8125 0.9375
vt 0.8125 1
vt 0.75 1
vt 0.75 0.9375
vt 0.953125 1
vt 0.90625 1
vt 0.90625 0.953125
vt 0.953125 0.953125
vt 0.953125 1
vt 0.90625 1
vt 0.90625 0.953125
vt 0.953125 0.953125
vt 1 0.90625
vt 0.953125 0.90625
vt 0.953125 0.6875
vt 1 0.6875
vt 1 0.90625
vt 0.953125 0.90625
vt 0.953125 0.6875
vt 1 0.6875
vt 1 0.90625
vt 0.953125 0.90625
vt 0.953125 0.6875
vt 1 0.6875
vt 1 0.90625
vt 0.953125 0.90625
vt 0.953125 0.6875
vt 1 0.6875
vt 0 0.9375
vt 0.359375 0.9375
vt 0.359375 1
vt 0 1
vt 0 0.984375
vt 0.359375 0.984375
vt 0.359375 1
vt 0 1
vt 0.640625 1
vt 0.28125 1
vt 0.28125 0.984375
vt 0.640625 0.984375
vt 0.75 1
vt 0.390625 1
vt 0.390625 0.9375
vt 0.75 0.9375
vt 0.109375 0.984375
vt 0.46875 0.984375
vt 0.46875 1
vt 0.109375 1
vt 0.75 1
vt 0.390625 1
vt 0.390625 0.984375
vt 0.75 0.984375
vt 0 0.9375
vt 0.359375 0.9375
vt 0.359375 1
vt 0 1
vt 0 0.984375
vt 0.359375 0.984375
vt 0.359375 1
vt 0 1
vt 0.640625 1
vt 0.28125 1
vt 0.28125 0.984375
vt 0.640625 0.984375
vt 0.75 1
vt 0.390625 1
vt 0.390625 0.9375
vt 0.75 0.9375
vt 0.109375 0.984375
vt 0.46875 0.984375
vt 0.46875 1
vt 0.109375 1
vt 0.75 1
vt 0.390625 1
vt 0.390625 0.984375
vt 0.75 0.984375
vt 0 0.9375
vt 0.359375 0.9375
vt 0.359375 1
vt 0 1
vt 0 0.984375
vt 0.359375 0.984375
vt 0.359375 1
vt 0 1
vt 0.578125 1
vt 0.21879390625 1
vt 0.21875 0.984375
vt 0.57808109375 0.984375
vt 0.015625 0.9375
vt 0.015625 1
vt 0 1
vt 0 0.9375
vt 0.015625 0.9375
vt 0.015625 1
vt 0 1
vt 0 0.9375
vt 0.75 1
vt 0.390625 1
vt 0.390625 0.9375
vt 0.75 0.9375
vt 0.140625 0.984375
vt 0.5 0.984375
vt 0.5 1
vt 0.140625 1
vt 0.359375 0.984375
vt 0.71875 0.984375
vt 0.71875 1
vt 0.359375 1
vt 0 0.9375
vt 0.359375 0.9375
vt 0.359375 1
vt 0 1
vt 0 0.984375
vt 0.359375 0.984375
vt 0.359375 1
vt 0 1
vt 0.578125 1
vt 0.21879390625 1
vt 0.21875 0.984375
vt 0.57808109375 0.984375
vt 0.015625 0.9375
vt 0.015625 1
vt 0 1
vt 0 0.9375
vt 0.015625 0.9375
vt 0.015625 1
vt 0 1
vt 0 0.9375
vt 0.75 1
vt 0.390625 1
vt 0.390625 0.9375
vt 0.75 0.9375
vt 0.140625 0.984375
vt 0.5 0.984375
vt 0.5 1
vt 0.140625 1
vt 0.359375 0.984375
vt 0.71875 0.984375
vt 0.71875 1
vt 0.359375 1
vt 0 0.9375
vt 0.359375 0.9375
vt 0.359375 1
vt 0 1
vt 0 0.984375
vt 0.359375 0.984375
vt 0.359375 1
vt 0 1
vt 0.640625 1
vt 0.28125 1
vt 0.28125 0.984375
vt 0.640625 0.984375
vt 0.75 1
vt 0.390625 1
vt 0.390625 0.9375
vt 0.75 0.9375
vt 0.109375 0.984375
vt 0.46875 0.984375
vt 0.46875 1
vt 0.109375 1
vt 0.75 1
vt 0.390625 1
vt 0.390625 0.984375
vt 0.75 0.984375
vt 0 0.9375
vt 0.359375 0.9375
vt 0.359375 1
vt 0 1
vt 0 0.984375
vt 0.359375 0.984375
vt 0.359375 1
vt 0 1
vt 0.640625 1
vt 0.28125 1
vt 0.28125 0.984375
vt 0.640625 0.984375
vt 0.75 1
vt 0.390625 1
vt 0.390625 0.9375
vt 0.75 0.9375
vt 0.109375 0.984375
vt 0.46875 0.984375
vt 0.46875 1
vt 0.109375 1
vt 0.75 1
vt 0.390625 1
vt 0.390625 0.984375
vt 0.75 0.984375
vt 0 0.9375
vt 0.359375 0.9375
vt 0.359375 1
vt 0 1
vt 0 0.984375
vt 0.359375 0.984375
vt 0.359375 1
vt 0 1
vt 0.578125 1
vt 0.21879390625 1
vt 0.21875 0.984375
vt 0.57808109375 0.984375
vt 0.015625 0.9375
vt 0.015625 1
vt 0 1
vt 0 0.9375
vt 0.015625 0.9375
vt 0.015625 1
vt 0 1
vt 0 0.9375
vt 0.75 1
vt 0.390625 1
vt 0.390625 0.9375
vt 0.75 0.9375
vt 0.140625 0.984375
vt 0.5 0.984375
vt 0.5 1
vt 0.140625 1
vt 0.359375 0.984375
vt 0.71875 0.984375
vt 0.71875 1
vt 0.359375 1
vt 0 0.9375
vt 0.359375 0.9375
vt 0.359375 1
vt 0 1
vt 0 0.984375
vt 0.359375 0.984375
vt 0.359375 1
vt 0 1
vt 0.578125 1
vt 0.21879390625 1
vt 0.21875 0.984375
vt 0.57808109375 0.984375
vt 0.015625 0.9375
vt 0.015625 1
vt 0 1
vt 0 0.9375
vt 0.015625 0.9375
vt 0.015625 1
vt 0 1
vt 0 0.9375
vt 0.75 1
vt 0.390625 1
vt 0.390625 0.9375
vt 0.75 0.9375
vt 0.140625 0.984375
vt 0.5 0.984375
vt 0.5 1
vt 0.140625 1
vt 0.359375 0.984375
vt 0.71875 0.984375
vt 0.71875 1
vt 0.359375 1
vt 0 0.9375
vt 0.359375 0.9375
vt 0.359375 1
vt 0 1
vt 0 0.984375
vt 0.359375 0.984375
vt 0.359375 1
vt 0 1
vt 0.640625 1
vt 0.28125 1
vt 0.28125 0.984375
vt 0.640625 0.984375
vt 0.75 1
vt 0.390625 1
vt 0.390625 0.9375
vt 0.75 0.9375
vt 0.109375 0.984375
vt 0.46875 0.984375
vt 0.46875 1
vt 0.109375 1
vt 0.75 1
vt 0.390625 1
vt 0.390625 0.984375
vt 0.75 0.984375
vt 0 0.9375
vt 0.359375 0.9375
vt 0.359375 1
vt 0 1
vt 0 0.984375
vt 0.359375 0.984375
vt 0.359375 1
vt 0 1
vt 0.578125 1
vt 0.21879390625 1
vt 0.21875 0.984375
vt 0.57808109375 0.984375
vt 0.015625 0.9375
vt 0.015625 1
vt 0 1
vt 0 0.9375
vt 0.015625 0.9375
vt 0.015625 1
vt 0 1
vt 0 0.9375
vt 0.75 1
vt 0.390625 1
vt 0.390625 0.9375
vt 0.75 0.9375
vt 0.140625 0.984375
vt 0.5 0.984375
vt 0.5 1
vt 0.140625 1
vt 0.359375 0.984375
vt 0.71875 0.984375
vt 0.71875 1
vt 0.359375 1
vt 0 0.9375
vt 0.359375 0.9375
vt 0.359375 1
vt 0 1
vt 0 0.984375
vt 0.359375 0.984375
vt 0.359375 1
vt 0 1
vt 0.640625 1
vt 0.28125 1
vt 0.28125 0.984375
vt 0.640625 0.984375
vt 0.75 1
vt 0.390625 1
vt 0.390625 0.9375
vt 0.75 0.9375
vt 0.109375 0.984375
vt 0.46875 0.984375
vt 0.46875 1
vt 0.109375 1
vt 0.75 1
vt 0.390625 1
vt 0.390625 0.984375
vt 0.75 0.984375
vt 0 0.9375
vt 0.359375 0.9375
vt 0.359375 1
vt 0 1
vt 0 0.984375
vt 0.359375 0.984375
vt 0.359375 1
vt 0 1
vt 0.578125 1
vt 0.21879390625 1
vt 0.21875 0.984375
vt 0.57808109375 0.984375
vt 0.015625 0.9375
vt 0.015625 1
vt 0 1
vt 0 0.9375
vt 0.015625 0.9375
vt 0.015625 1
vt 0 1
vt 0 0.9375
vt 0.75 1
vt 0.390625 1
vt 0.390625 0.9375
vt 0.75 0.9375
vt 0.140625 0.984375
vt 0.5 0.984375
vt 0.5 1
vt 0.140625 1
vt 0.359375 0.984375
vt 0.71875 0.984375
vt 0.71875 1
vt 0.359375 1
vt 0.984375 1
vt 0.984375 0.28125
vt 1 0.28125
vt 1 1
vt 0.953125 0.28125
vt 0.953125 1
vt 0.96875 1
vt 0.96875 0.28125
vt 1 1
vt 0.953125 1
vt 0.953125 0.25
vt 1 0.25
vt 0.984375 1
vt 0.984375 0.25
vt 1 0.25
vt 1 1
vt 0.953125 0.25
vt 0.953125 1
vt 0.96875 1
vt 0.96875 0.25
vt 0.984375 1
vt 0.984375 0.28125
vt 1 0.28125
vt 1 1
vt 0.953125 0.28125
vt 0.953125 1
vt 0.96875 1
vt 0.96875 0.28125
vt 1 1
vt 0.953125 1
vt 0.953125 0.25
vt 1 0.25
vt 0.984375 1
vt 0.984375 0.25
vt 1 0.25
vt 1 1
vt 0.953125 0.25
vt 0.953125 1
vt 0.96875 1
vt 0.96875 0.25
vt 0.953125 0.28125
vt 0.953125 1
vt 1 1
vt 1 0.28125
vt 0.953125 0.28125
vt 0.953125 1
vt 1 1
vt 1 0.28125
vt 0.953125 0.28125
vt 0.953125 1
vt 1 1
vt 1 0.28125
vt 0.953125 0.28125
vt 0.953125 1
vt 1 1
vt 1 0.28125
vt 1 1
vt 0.953125 1
vt 0.953125 0.25
vt 1 0.25
vt 1 1
vt 0.953125 1
vt 0.953125 0.25
vt 1 0.25
vt 0.96875 0.609375
vt 0.96875 0.890625
vt 0.953125 0.890625
vt 0.953125 0.609375
vt 0.96875 0.609375
vt 0.96875 0.890625
vt 0.953125 0.890625
vt 0.953125 0.609375
vt 1 0.875
vt 1 0.890625
vt 0.953125 0.890625
vt 0.953125 0.875
vt 1 0.875
vt 1 0.890625
vt 0.953125 0.890625
vt 0.953125 0.875
vt 1 0.609375
vt 1 0.890625
vt 0.953125 0.890625
vt 0.953125 0.609375
vt 0.96875 0.71875
vt 0.96875 1
vt 0.953125 1
vt 0.953125 0.71875
vt 0.96875 0.71875
vt 0.96875 1
vt 0.953125 1
vt 0.953125 0.71875
vt 1 0.984375
vt 1 1
vt 0.953125 1
vt 0.953125 0.984375
vt 1 0.984375
vt 1 1
vt 0.953125 1
vt 0.953125 0.984375
vt 1 0.71875
vt 1 1
vt 0.953125 1
vt 0.953125 0.71875
vt 0.96875 0.4375
vt 0.96875 0.71875
vt 0.953125 0.71875
vt 0.953125 0.4375
vt 0.96875 0.4375
vt 0.96875 0.71875
vt 0.953125 0.71875
vt 0.953125 0.4375
vt 1 0.703125
vt 1 0.71875
vt 0.953125 0.71875
vt 0.953125 0.703125
vt 1 0.703125
vt 1 0.71875
vt 0.953125 0.71875
vt 0.953125 0.703125
vt 1 0.4375
vt 1 0.71875
vt 0.953125 0.71875
vt 0.953125 0.4375
vt 0.96875 0.4375
vt 0.96875 0.71875
vt 0.953125 0.71875
vt 0.953125 0.4375
vt 0.96875 0.4375
vt 0.96875 0.71875
vt 0.953125 0.71875
vt 0.953125 0.4375
vt 1 0.703125
vt 1 0.71875
vt 0.953125 0.71875
vt 0.953125 0.703125
vt 1 0.703125
vt 1 0.71875
vt 0.953125 0.71875
vt 0.953125 0.703125
vt 1 0.4375
vt 1 0.71875
vt 0.953125 0.71875
vt 0.953125 0.4375
vt 0.953125 0.90625
vt 0.96875 0.90625
vt 0.96875 0.625
vt 0.953125 0.625
vt 0.953125 0.90625
vt 0.96875 0.90625
vt 0.96875 0.625
vt 0.953125 0.625
vt 0.953125 0.90625
vt 1 0.90625
vt 1 0.890625
vt 0.953125 0.890625
vt 0.953125 0.90625
vt 1 0.90625
vt 1 0.890625
vt 0.953125 0.890625
vt 0.953125 0.90625
vt 1 0.90625
vt 1 0.625
vt 0.953125 0.625
vt 0.953125 1
vt 0.96875 1
vt 0.96875 0.71875
vt 0.953125 0.71875
vt 0.953125 1
vt 0.96875 1
vt 0.96875 0.71875
vt 0.953125 0.71875
vt 0.953125 1
vt 1 1
vt 1 0.984375
vt 0.953125 0.984375
vt 0.953125 1
vt 1 1
vt 1 0.984375
vt 0.953125 0.984375
vt 0.953125 1
vt 1 1
vt 1 0.71875
vt 0.953125 0.71875
vt 0.953125 0.5625
vt 0.96875 0.5625
vt 0.96875 0.28125
vt 0.953125 0.28125
vt 0.953125 0.5625
vt 0.96875 0.5625
vt 0.96875 0.28125
vt 0.953125 0.28125
vt 0.953125 0.5625
vt 1 0.5625
vt 1 0.546875
vt 0.953125 0.546875
vt 0.953125 0.5625
vt 1 0.5625
vt 1 0.546875
vt 0.953125 0.546875
vt 0.953125 0.5625
vt 1 0.5625
vt 1 0.28125
vt 0.953125 0.28125
vt 0.953125 0.734375
vt 0.96875 0.734375
vt 0.96875 0.453125
vt 0.953125 0.453125
vt 0.953125 0.734375
vt 0.96875 0.734375
vt 0.96875 0.453125
vt 0.953125 0.453125
vt 0.953125 0.734375
vt 1 0.734375
vt 1 0.71875
vt 0.953125 0.71875
vt 0.953125 0.734375
vt 1 0.734375
vt 1 0.71875
vt 0.953125 0.71875
vt 0.953125 0.734375
vt 1 0.734375
vt 1 0.453125
vt 0.953125 0.453125
vt 0.96875 0.3125
vt 0.96875 0.59375
vt 0.953125 0.59375
vt 0.953125 0.3125
vt 0.96875 0.3125
vt 0.96875 0.59375
vt 0.953125 0.59375
vt 0.953125 0.3125
vt 1 0.578125
vt 1 0.59375
vt 0.953125 0.59375
vt 0.953125 0.578125
vt 1 0.578125
vt 1 0.59375
vt 0.953125 0.59375
vt 0.953125 0.578125
vt 1 0.3125
vt 1 0.59375
vt 0.953125 0.59375
vt 0.953125 0.3125
vt 0.96875 0.71875
vt 0.96875 1
vt 0.953125 1
vt 0.953125 0.71875
vt 0.96875 0.71875
vt 0.96875 1
vt 0.953125 1
vt 0.953125 0.71875
vt 1 0.984375
vt 1 1
vt 0.953125 1
vt 0.953125 0.984375
vt 1 0.984375
vt 1 1
vt 0.953125 1
vt 0.953125 0.984375
vt 1 0.71875
vt 1 1
vt 0.953125 1
vt 0.953125 0.71875
vt 0.96875 0.515625
vt 0.96875 0.796875
vt 0.953125 0.796875
vt 0.953125 0.515625
vt 0.96875 0.515625
vt 0.96875 0.796875
vt 0.953125 0.796875
vt 0.953125 0.515625
vt 1 0.78125
vt 1 0.796875
vt 0.953125 0.796875
vt 0.953125 0.78125
vt 1 0.78125
vt 1 0.796875
vt 0.953125 0.796875
vt 0.953125 0.78125
vt 1 0.515625
vt 1 0.796875
vt 0.953125 0.796875
vt 0.953125 0.515625
vt 0.96875 0.71875
vt 0.96875 1
vt 0.953125 1
vt 0.953125 0.71875
vt 0.96875 0.71875
vt 0.96875 1
vt 0.953125 1
vt 0.953125 0.71875
vt 1 0.984375
vt 1 1
vt 0.953125 1
vt 0.953125 0.984375
vt 1 0.984375
vt 1 1
vt 0.953125 1
vt 0.953125 0.984375
vt 1 0.71875
vt 1 1
vt 0.953125 1
vt 0.953125 0.71875
vt 0.953125 1
vt 0.96875 1
vt 0.96875 0.71875
vt 0.953125 0.71875
vt 0.953125 1
vt 0.96875 1
vt 0.96875 0.71875
vt 0.953125 0.71875
vt 0.953125 1
vt 1 1
vt 1 0.984375
vt 0.953125 0.984375
vt 0.953125 1
vt 1 1
vt 1 0.984375
vt 0.953125 0.984375
vt 0.953125 1
vt 1 1
vt 1 0.71875
vt 0.953125 0.71875
vt 0.953125 0.734375
vt 0.96875 0.734375
vt 0.96875 0.453125
vt 0.953125 0.453125
vt 0.953125 0.734375
vt 0.96875 0.734375
vt 0.96875 0.453125
vt 0.953125 0.453125
vt 0.953125 0.734375
vt 1 0.734375
vt 1 0.71875
vt 0.953125 0.71875
vt 0.953125 0.734375
vt 1 0.734375
vt 1 0.71875
vt 0.953125 0.71875
vt 0.953125 0.734375
vt 1 0.734375
vt 1 0.453125
vt 0.953125 0.453125
vt 0.953125 0.53125
vt 0.96875 0.53125
vt 0.96875 0.25
vt 0.953125 0.25
vt 0.953125 0.53125
vt 0.96875 0.53125
vt 0.96875 0.25
vt 0.953125 0.25
vt 0.953125 0.53125
vt 1 0.53125
vt 1 0.515625
vt 0.953125 0.515625
vt 0.953125 0.53125
vt 1 0.53125
vt 1 0.515625
vt 0.953125 0.515625
vt 0.953125 0.53125
vt 1 0.53125
vt 1 0.25
vt 0.953125 0.25
vt 0.953125 1
vt 0.96875 1
vt 0.96875 0.71875
vt 0.953125 0.71875
vt 0.953125 1
vt 0.96875 1
vt 0.96875 0.71875
vt 0.953125 0.71875
vt 0.953125 1
vt 1 1
vt 1 0.984375
vt 0.953125 0.984375
vt 0.953125 1
vt 1 1
vt 1 0.984375
vt 0.953125 0.984375
vt 0.953125 1
vt 1 1
vt 1 0.71875
vt 0.953125 0.71875
vt 0 0.625
vt 0 0.265625
vt 0.75 0.265625
vt 0.75 0.625
vt 0 0.625
vt 0 0.265625
vt 0.75 0.265625
vt 0.75 0.625
vt 0 0.625
vt 0 0.265625
vt 0.75 0.265625
vt 0.75 0.625
vt 0 0.625
vt 0 0.265625
vt 0.75 0.265625
vt 0.75 0.625
vt 0.68625 1
vt 0.06375 1
vt 0 0.93625
vt 0.75 0.93625
vt 0.06375 1
vt 0.68625 1
vt 0.75 0.93625
vt 0 0.93625
vt 0.06375 1
vt 0.68625 1
vt 0.75 0.93625
vt 0 0.93625
vt 0.68625 1
vt 0.06375 1
vt 0 0.93625
vt 0.75 0.93625
vt 0 0
vt 0 0.125
vt 0.25 0.125
vt 0.25 0
vt 0 0
vt 0 0.125
vt 0.25 0.125
vt 0.25 0
vt 0.25 0
vt 0.25 0.125
vt 0 0.125
vt 0 0
vt 0.25 0
vt 0.25 0.125
vt 0 0.125
vt 0 0
vt 0 0
vt 0 0.125
vt 0.75 0.125
vt 0.75 0
vt 0.75 0
vt 0.75 0.359375
vt 0 0.359375
vt 0 0
vt 0.75 0
vt 0.75 0.359375
vt 0 0.359375
vt 0 0
vt 0.75 0
vt 0.75 0.359375
vt 0 0.359375
vt 0 0
vt 0.75 0
vt 0.75 0.359375
vt 0 0.359375
vt 0 0
vn 1 0 0
vn -1 0 0
vn 0 0 1
vn 0 0 -1
vn 0 1 0
vn 0 1 0
vn 0 1 0
vn 0 1 0
vn 0.9990482193070948 0 -0.043619439465945486
vn -0.9990482193070948 0 0.043619439465945486
vn 0 1 0
vn 0 -1 0
vn 0.04361753503443603 0 0.9990483024546509
vn -0.04361753503443592 0 -0.9990483024546509
vn 0.9914449255847266 0 0.13052570448879508
vn -0.9914449255847266 0 -0.13052570448879486
vn 0 1 0
vn 0 -1 0
vn -0.13052745977919356 0 0.9914446944956592
vn 0.130527459779193 0 -0.9914446944956594
vn -0.07087471513203947 0 -0.9974852253316601
vn 0.07087471513203945 0 0.9974852253316601
vn 0 1 0
vn 0 -1 0
vn 0.999640321912361 0 -0.026818404258111977
vn -0.999640321912361 0 0.026818404258111533
vn 0.08715575030621499 0 -0.9961946974304576
vn -0.08715575030621499 0 0.9961946974304576
vn 0 1 0
vn 0 -1 0
vn 0.9961947648731585 0 0.08715497942924849
vn -0.9961947648731585 0 -0.08715497942924849
vn 0.9990482193070948 0 -0.043619439465945486
vn -0.9990482193070948 0 0.043619439465945486
vn 0 1 0
vn 0 -1 0
vn 0.04361753503443606 0 0.9990483024546509
vn -0.04361753503443592 0 -0.9990483024546509
vn 0 0 -1
vn 0 0 1
vn 0 1 0
vn 0 -1 0
vn 1 0 0
vn -1 0 0
vn -0.9999989905763027 -0.00006197785110124907 0.0014195087607221859
vn 0 0.9990482328530615 0.04361912921156281
vn 0 -0.9990482139061796 -0.04361956316691738
vn -1 0 0
vn 0 -0.9990482328530615 -0.04361912921156281
vn 0 0.9990482139061796 0.04361956316691738
vn -1 0 0
vn 0 1 0
vn 0 -1 0
vn -1 0 0
vn 0 -1 0
vn 0 1 0
vn -0.007542968267981913 0.00032933714613821055 -0.9999714971771709
vn -0.04361956316691738 -0.9990482139061796 0
vn 0.043190897661373656 0.9990668377837415 0
vn 1 0 0
vn -0.999354036648103 0.014934574429450053 0.03268742757932106
vn 0.00694257800360221 -0.00030312321957573724 -0.9999758540719761
vn 0.04044413098115064 0.9991818014101237 0
vn -0.04016290255959466 -0.9991931451215968 0
vn 0 0 -1
vn 0 -1 0
vn 0 1 0
vn 1 0 0
vn -1 0 0
vn 0 0 -1
vn 0 1 0
vn 0 -1 0
vn 1 0 0
vn 0 0.9990482328530615 -0.04361912921156281
vn 0 -0.9990482139061796 0.04361956316691738
vn 1 0 0
vn 0 -0.9990482328530615 0.04361912921156281
vn 0 0.9990482139061796 -0.04361956316691738
vn 1 0 0
vn 0 1 0
vn 0 -1 0
vn 1 0 0
vn 0 -1 0
vn 0 1 0
vn -0.0075216459448492765 -0.0003284061819872167 0.9999716580941982
vn -0.043619563166917376 0.9990482139061796 0
vn 0.043291029920515915 -0.9990625039147556 0
vn 1 0 0
vn -1 0 0
vn 0.006960739739119257 0.000303916187798794 0.9999757275740424
vn 0.04034356984678055 -0.9991858667795587 0
vn -0.04006230474544756 0.9991971836121651 0
vn 0 0 1
vn 0 1 0
vn 0 -1 0
vn 1 0 0
vn -1 0 0
vn 0 0 1
vn 0 -1 0
vn 0 1 0
vn -1 0 0
vn 0 0.9990482328530615 0.04361912921156281
vn 0 -0.9990482139061796 -0.04361956316691738
vn -0.9999989905763409 0.00006197784992583595 -0.0014195087338011295
vn 0 -0.9990597099468668 -0.043355460565912815
vn 0 0.9990482139061796 0.04361956316691738
vn -0.0075216459448492765 0.0003284061819872167 -0.9999716580941982
vn -0.043619563166917376 -0.9990482139061796 0
vn 0.043291029920515915 0.9990625039147556 0
vn 1 0 0
vn -1 0 0
vn 0.006960739739119257 -0.0003039161877987939 -0.9999757275740422
vn 0.04034356984678055 0.9991858667795587 0
vn -0.04006230474544763 -0.9991971836121651 0
vn 1 0 0
vn 0 0.9990482328530615 -0.04361912921156281
vn 0 -0.9990482139061796 0.04361956316691738
vn 1 0 0
vn 0 -0.9990597099468668 0.043355460565912815
vn 0 0.9990482139061796 -0.04361956316691738
vn -0.002825230986066821 -0.00012335376168583749 0.9999960014188681
vn -0.04361956316691738 0.9990482139061796 0
vn 0.04313301905808004 -0.9990693382678378 0
vn 0.9998686751354029 0.016205939743642192 0
vn -0.9993401437567191 -0.01583343195237043 -0.03268913441664914
vn 0.0069425780036022075 0.00030312321957573734 0.999975854071976
vn 0.043619609251542096 -0.9990482118940721 0
vn -0.04016290255959466 0.9991931451215968 0
vn 0 1 0
vn 0 -1 0
vn 0 0 -1
vn 0 1 0
vn 0 -1 0
vn 0 1 0
vn 0 -1 0
vn 0 0 1
vn 0 1 0
vn 0 -1 0
vn -1 0 0
vn 1 0 0
vn 0 0 -1
vn 0 0 1
vn -1 0 0
vn 1 0 0
vn 0 -0.17364832440424569 -0.9848077271384491
vn 0 0.17364832440424569 0.9848077271384491
vn 0 0.9848080791610705 -0.17364632797465873
vn 0 -0.9848080791610708 0.1736463279746576
vn -1 0 0
vn 0 0.3007061644056685 -0.9537168356951823
vn 0 -0.30070616440566855 0.9537168356951823
vn 0 0.9537166763680847 0.3007066697255218
vn 0 -0.9537166763680847 -0.30070666972552185
vn -1 0 0
vn 0 0.1305261664475904 -0.991444864766819
vn 0 -0.13052616644759035 0.991444864766819
vn 0 0.9914447739421927 0.13052685632740316
vn 0 -0.9914447739421927 -0.13052685632740313
vn -1 0 0
vn 0 -0.1305261664475903 -0.991444864766819
vn 0 0.1305261664475903 0.991444864766819
vn 0 0.9914447739421927 -0.13052685632740313
vn 0 -0.9914447739421927 0.13052685632740313
vn -1 0 0
vn 0 -0.17364832440424569 -0.9848077271384491
vn 0 0.17364832440424569 0.9848077271384491
vn 0 0.9848080791610705 -0.17364632797465873
vn 0 -0.9848080791610708 0.1736463279746576
vn 1 0 0
vn 0 0.3007061644056685 -0.9537168356951823
vn 0 -0.30070616440566855 0.9537168356951823
vn 0 0.9537166763680847 0.3007066697255218
vn 0 -0.9537166763680847 -0.30070666972552185
vn 1 0 0
vn 0 0.1305261664475904 -0.991444864766819
vn 0 -0.13052616644759035 0.991444864766819
vn 0 0.9914447739421927 0.13052685632740316
vn 0 -0.9914447739421927 -0.13052685632740313
vn 1 0 0
vn 0 -0.1305261664475903 -0.991444864766819
vn 0 0.1305261664475903 0.991444864766819
vn 0 0.9914447739421927 -0.13052685632740313
vn 0 -0.9914447739421927 0.13052685632740313
vn 1 0 0
vn 0.9848077271384491 -0.17364832440424557 0
vn -0.9848077271384491 0.17364832440424557 0
vn 0.17364632797465865 0.9848080791610706 0
vn -0.1736463279746575 -0.9848080791610707 0
vn 0 0 -1
vn 0.9537168356951823 0.3007061644056685 0
vn -0.9537168356951823 -0.30070616440566844 0
vn -0.3007066697255218 0.9537166763680847 0
vn 0.3007066697255218 -0.9537166763680849 0
vn 0 0 -1
vn 0.991444864766819 0.1305261664475904 0
vn -0.991444864766819 -0.1305261664475904 0
vn -0.13052685632740313 0.9914447739421927 0
vn 0.13052685632740313 -0.9914447739421927 0
vn 0 0 -1
vn 0.991444864766819 -0.1305261664475903 0
vn -0.991444864766819 0.1305261664475903 0
vn 0.13052685632740313 0.9914447739421927 0
vn -0.13052685632740313 -0.9914447739421927 0
vn 0 0 -1
vn 0.9848077271384491 -0.17364832440424557 0
vn -0.9848077271384491 0.17364832440424557 0
vn 0.17364632797465865 0.9848080791610706 0
vn -0.1736463279746575 -0.9848080791610707 0
vn 0 0 1
vn 0.9537168356951823 0.3007061644056685 0
vn -0.9537168356951823 -0.30070616440566844 0
vn -0.3007066697255218 0.9537166763680847 0
vn 0.3007066697255218 -0.9537166763680849 0
vn 0 0 1
vn 0.991444864766819 0.1305261664475904 0
vn -0.991444864766819 -0.1305261664475904 0
vn -0.13052685632740313 0.9914447739421927 0
vn 0.13052685632740313 -0.9914447739421927 0
vn 0 0 1
vn 0.991444864766819 -0.1305261664475903 0
vn -0.991444864766819 0.1305261664475903 0
vn 0.13052685632740313 0.9914447739421927 0
vn -0.13052685632740313 -0.9914447739421927 0
vn 0 0 1
vn 1 0 0
vn -1 0 0
vn 0 0 1
vn 0 0 -1
vn 0 1 0
vn 0 1 0
vn 0 1 0
vn 0 1 0
vn 0 -0.12403473458920847 0.9922778767136677
vn 0 -0.12403473458920847 0.9922778767136677
vn 0.9922778767136677 -0.12403473458920847 0
vn 0 -0.12403473458920847 -0.9922778767136677
vn -0.9922778767136677 -0.12403473458920847 0
vn 1 0 0
vn 0 0 1
vn -1 0 0
vn 0 0 -1
usemtl base_wooden
f 1/1/1 2/2/1 3/3/1
f 1/1/1 3/3/1 4/4/1
f 5/5/2 6/6/2 7/7/2
f 5/5/2 7/7/2 8/8/2
f 6/9/3 1/10/3 4/11/3
f 6/9/3 4/11/3 7/12/3
f 2/13/4 5/14/4 8/15/4
f 2/13/4 8/15/4 3/16/4
f 9/17/5 10/18/5 7/19/5
f 9/17/5 7/19/5 4/20/5
f 11/21/6 9/22/6 4/23/6
f 11/21/6 4/23/6 3/24/6
f 12/25/7 11/26/7 3/27/7
f 12/25/7 3/27/7 8/28/7
f 10/29/8 12/30/8 8/31/8
f 10/29/8 8/31/8 7/32/8
f 16/33/9 14/34/9 13/35/9
f 16/33/9 13/35/9 15/36/9
f 19/37/10 17/38/10 18/39/10
f 19/37/10 18/39/10 20/40/10
f 13/41/11 14/42/11 18/43/11
f 13/41/11 18/43/11 17/44/11
f 16/45/12 15/46/12 19/47/12
f 16/45/12 19/47/12 20/48/12
f 15/49/13 13/50/13 17/51/13
f 15/49/13 17/51/13 19/52/13
f 20/53/14 18/54/14 14/55/14
f 20/53/14 14/55/14 16/56/14
f 24/57/15 22/58/15 21/59/15
f 24/57/15 21/59/15 23/60/15
f 27/61/16 25/62/16 26/63/16
f 27/61/16 26/63/16 28/64/16
f 21/65/17 22/66/17 26/67/17
f 21/65/17 26/67/17 25/68/17
f 24/69/18 23/70/18 27/71/18
f 24/69/18 27/71/18 28/72/18
f 23/73/19 21/74/19 25/75/19
f 23/73/19 25/75/19 27/76/19
f 28/77/20 26/78/20 22/79/20
f 28/77/20 22/79/20 24/80/20
f 32/81/21 30/82/21 29/83/21
f 32/81/21 29/83/21 31/84/21
f 35/85/22 33/86/22 34/87/22
f 35/85/22 34/87/22 36/88/22
f 29/89/23 30/90/23 34/91/23
f 29/89/23 34/91/23 33/92/23
f 32/93/24 31/94/24 35/95/24
f 32/93/24 35/95/24 36/96/24
f 31/97/25 29/98/25 33/99/25
f 31/97/25 33/99/25 35/100/25
f 36/101/26 34/102/26 30/103/26
f 36/101/26 30/103/26 32/104/26
f 40/105/27 38/106/27 37/107/27
f 40/105/27 37/107/27 39/108/27
f 43/109/28 41/110/28 42/111/28
f 43/109/28 42/111/28 44/112/28
f 37/113/29 38/114/29 42/115/29
f 37/113/29 42/115/29 41/116/29
f 40/117/30 39/118/30 43/119/30
f 40/117/30 43/119/30 44/120/30
f 39/121/31 37/122/31 41/123/31
f 39/121/31 41/123/31 43/124/31
f 44/125/32 42/126/32 38/127/32
f 44/125/32 38/127/32 40/128/32
f 48/129/33 46/130/33 45/131/33
f 48/129/33 45/131/33 47/132/33
f 51/133/34 49/134/34 50/135/34
f 51/133/34 50/135/34 52/136/34
f 45/137/35 46/138/35 50/139/35
f 45/137/35 50/139/35 49/140/35
f 48/141/36 47/142/36 51/143/36
f 48/141/36 51/143/36 52/144/36
f 47/145/37 45/146/37 49/147/37
f 47/145/37 49/147/37 51/148/37
f 52/149/38 50/150/38 46/151/38
f 52/149/38 46/151/38 48/152/38
f 56/153/39 54/154/39 53/155/39
f 56/153/39 53/155/39 55/156/39
f 59/157/40 57/158/40 58/159/40
f 59/157/40 58/159/40 60/160/40
f 53/161/41 54/162/41 58/163/41
f 53/161/41 58/163/41 57/164/41
f 56/165/42 55/166/42 59/167/42
f 56/165/42 59/167/42 60/168/42
f 55/169/43 53/170/43 57/171/43
f 55/169/43 57/171/43 59/172/43
f 60/173/44 58/174/44 54/175/44
f 60/173/44 54/175/44 56/176/44
f 68/177/45 70/178/45 69/179/45
f 68/177/45 69/179/45 66/180/45
f 66/181/46 69/182/46 72/183/46
f 66/181/46 72/183/46 62/184/46
f 64/185/47 71/186/47 70/187/47
f 64/185/47 70/187/47 68/188/47
f 65/189/48 69/190/48 70/191/48
f 65/189/48 70/191/48 67/192/48
f 67/193/49 70/194/49 71/195/49
f 67/193/49 71/195/49 63/196/49
f 61/197/50 72/198/50 69/199/50
f 61/197/50 69/199/50 65/200/50
f 80/201/51 82/202/51 81/203/51
f 80/201/51 81/203/51 78/204/51
f 78/205/52 81/206/52 84/207/52
f 78/205/52 84/207/52 74/208/52
f 76/209/53 83/210/53 82/211/53
f 76/209/53 82/211/53 80/212/53
f 77/213/54 81/214/54 82/215/54
f 77/213/54 82/215/54 79/216/54
f 79/217/55 82/218/55 83/219/55
f 79/217/55 83/219/55 75/220/55
f 73/221/56 84/222/56 81/223/56
f 73/221/56 81/223/56 77/224/56
f 90/225/57 92/226/57 91/227/57
f 90/225/57 91/227/57 88/228/57
f 88/229/58 91/230/58 94/231/58
f 88/229/58 94/231/58 68/232/58
f 66/233/59 93/234/59 92/235/59
f 66/233/59 92/235/59 90/236/59
f 86/237/60 85/238/60 87/239/60
f 86/237/60 87/239/60 89/240/60
f 90/241/61 88/242/61 68/243/61
f 90/241/61 68/243/61 66/244/61
f 87/245/62 91/246/62 92/247/62
f 87/245/62 92/247/62 89/248/62
f 89/249/63 92/250/63 93/251/63
f 89/249/63 93/251/63 86/252/63
f 85/253/64 94/254/64 91/255/64
f 85/253/64 91/255/64 87/256/64
f 100/257/65 102/258/65 101/259/65
f 100/257/65 101/259/65 98/260/65
f 98/261/66 101/262/66 104/263/66
f 98/261/66 104/263/66 80/264/66
f 78/265/67 103/266/67 102/267/67
f 78/265/67 102/267/67 100/268/67
f 96/269/68 95/270/68 97/271/68
f 96/269/68 97/271/68 99/272/68
f 100/273/69 98/274/69 80/275/69
f 100/273/69 80/275/69 78/276/69
f 97/277/70 101/278/70 102/279/70
f 97/277/70 102/279/70 99/280/70
f 99/281/71 102/282/71 103/283/71
f 99/281/71 103/283/71 96/284/71
f 95/285/72 104/286/72 101/287/72
f 95/285/72 101/287/72 97/288/72
f 110/289/73 112/290/73 111/291/73
f 110/289/73 111/291/73 109/292/73
f 109/293/74 111/294/74 114/295/74
f 109/293/74 114/295/74 106/296/74
f 108/297/75 113/298/75 112/299/75
f 108/297/75 112/299/75 110/300/75
f 86/301/76 111/302/76 112/303/76
f 86/301/76 112/303/76 85/304/76
f 85/305/77 112/306/77 113/307/77
f 85/305/77 113/307/77 107/308/77
f 105/309/78 114/310/78 111/311/78
f 105/309/78 111/311/78 86/312/78
f 120/313/79 122/314/79 121/315/79
f 120/313/79 121/315/79 119/316/79
f 119/317/80 121/318/80 124/319/80
f 119/317/80 124/319/80 116/320/80
f 118/321/81 123/322/81 122/323/81
f 118/321/81 122/323/81 120/324/81
f 96/325/82 121/326/82 122/327/82
f 96/325/82 122/327/82 95/328/82
f 95/329/83 122/330/83 123/331/83
f 95/329/83 123/331/83 117/332/83
f 115/333/84 124/334/84 121/335/84
f 115/333/84 121/335/84 96/336/84
f 128/337/85 130/338/85 129/339/85
f 128/337/85 129/339/85 126/340/85
f 126/341/86 129/342/86 132/343/86
f 126/341/86 132/343/86 65/344/86
f 67/345/87 131/346/87 130/347/87
f 67/345/87 130/347/87 128/348/87
f 110/349/88 109/350/88 125/351/88
f 110/349/88 125/351/88 127/352/88
f 128/353/89 126/354/89 65/355/89
f 128/353/89 65/355/89 67/356/89
f 125/357/90 129/358/90 130/359/90
f 125/357/90 130/359/90 127/360/90
f 127/361/91 130/362/91 131/363/91
f 127/361/91 131/363/91 110/364/91
f 109/365/92 132/366/92 129/367/92
f 109/365/92 129/367/92 125/368/92
f 136/369/93 138/370/93 137/371/93
f 136/369/93 137/371/93 134/372/93
f 134/373/94 137/374/94 140/375/94
f 134/373/94 140/375/94 77/376/94
f 79/377/95 139/378/95 138/379/95
f 79/377/95 138/379/95 136/380/95
f 120/381/96 119/382/96 133/383/96
f 120/381/96 133/383/96 135/384/96
f 136/385/97 134/386/97 77/387/97
f 136/385/97 77/387/97 79/388/97
f 133/389/98 137/390/98 138/391/98
f 133/389/98 138/391/98 135/392/98
f 135/393/99 138/394/99 139/395/99
f 135/393/99 139/395/99 120/396/99
f 119/397/100 140/398/100 137/399/100
f 119/397/100 137/399/100 133/400/100
f 148/401/101 150/402/101 149/403/101
f 148/401/101 149/403/101 146/404/101
f 146/405/102 149/406/102 152/407/102
f 146/405/102 152/407/102 142/408/102
f 144/409/103 151/410/103 150/411/103
f 144/409/103 150/411/103 148/412/103
f 145/413/104 149/414/104 150/415/104
f 145/413/104 150/415/104 147/416/104
f 147/417/105 150/418/105 151/419/105
f 147/417/105 151/419/105 143/420/105
f 141/421/106 152/422/106 149/423/106
f 141/421/106 149/423/106 145/424/106
f 158/425/107 160/426/107 159/427/107
f 158/425/107 159/427/107 156/428/107
f 156/429/108 159/430/108 162/431/108
f 156/429/108 162/431/108 148/432/108
f 146/433/109 161/434/109 160/435/109
f 146/433/109 160/435/109 158/436/109
f 154/437/110 153/438/110 155/439/110
f 154/437/110 155/439/110 157/440/110
f 158/441/111 156/442/111 148/443/111
f 158/441/111 148/443/111 146/444/111
f 155/445/112 159/446/112 160/447/112
f 155/445/112 160/447/112 157/448/112
f 157/449/113 160/450/113 161/451/113
f 157/449/113 161/451/113 154/452/113
f 153/453/114 162/454/114 159/455/114
f 153/453/114 159/455/114 155/456/114
f 169/457/115 171/458/115 170/459/115
f 169/457/115 170/459/115 167/460/115
f 167/461/116 170/462/116 173/463/116
f 167/461/116 173/463/116 164/464/116
f 166/465/117 172/466/117 171/467/117
f 166/465/117 171/467/117 169/468/117
f 154/469/118 170/470/118 171/471/118
f 154/469/118 171/471/118 168/472/118
f 168/473/119 171/474/119 172/475/119
f 168/473/119 172/475/119 165/476/119
f 163/477/120 173/478/120 170/479/120
f 163/477/120 170/479/120 154/480/120
f 178/481/121 180/482/121 179/483/121
f 178/481/121 179/483/121 176/484/121
f 176/485/122 179/486/122 182/487/122
f 176/485/122 182/487/122 145/488/122
f 147/489/123 181/490/123 180/491/123
f 147/489/123 180/491/123 178/492/123
f 174/493/124 167/494/124 175/495/124
f 174/493/124 175/495/124 177/496/124
f 178/497/125 176/498/125 145/499/125
f 178/497/125 145/499/125 147/500/125
f 175/501/126 179/502/126 180/503/126
f 175/501/126 180/503/126 177/504/126
f 177/505/127 180/506/127 181/507/127
f 177/505/127 181/507/127 174/508/127
f 167/509/128 182/510/128 179/511/128
f 167/509/128 179/511/128 175/512/128
f 187/513/129 188/514/129 196/515/129
f 187/513/129 196/515/129 191/516/129
f 190/517/130 189/518/130 193/519/130
f 190/517/130 193/519/130 198/520/130
f 202/521/131 200/522/131 203/523/131
f 202/521/131 203/523/131 205/524/131
f 183/525/132 188/526/132 203/527/132
f 183/525/132 203/527/132 200/528/132
f 190/529/133 184/530/133 202/531/133
f 190/529/133 202/531/133 205/532/133
f 192/533/134 195/534/134 183/535/134
f 192/533/134 183/535/134 185/536/134
f 197/537/135 194/538/135 186/539/135
f 197/537/135 186/539/135 184/540/135
f 206/541/136 204/542/136 199/543/136
f 206/541/136 199/543/136 201/544/136
f 199/545/137 204/546/137 187/547/137
f 199/545/137 187/547/137 185/548/137
f 206/549/138 201/550/138 186/551/138
f 206/549/138 186/551/138 189/552/138
f 191/553/139 196/554/139 198/555/139
f 191/553/139 198/555/139 193/556/139
f 195/557/140 192/558/140 194/559/140
f 195/557/140 194/559/140 197/560/140
f 192/561/141 191/562/141 193/563/141
f 192/561/141 193/563/141 194/564/141
f 196/565/142 195/566/142 197/567/142
f 196/565/142 197/567/142 198/568/142
f 201/569/143 199/570/143 200/571/143
f 201/569/143 200/571/143 202/572/143
f 205/573/144 203/574/144 204/575/144
f 205/573/144 204/575/144 206/576/144
f 210/577/145 208/578/145 207/579/145
f 210/577/145 207/579/145 209/580/145
f 213/581/146 211/582/146 212/583/146
f 213/581/146 212/583/146 214/584/146
f 207/585/147 208/586/147 212/587/147
f 207/585/147 212/587/147 211/588/147
f 210/589/148 209/590/148 213/591/148
f 210/589/148 213/591/148 214/592/148
f 214/593/149 212/594/149 208/595/149
f 214/593/149 208/595/149 210/596/149
f 218/597/150 216/598/150 215/599/150
f 218/597/150 215/599/150 217/600/150
f 221/601/151 219/602/151 220/603/151
f 221/601/151 220/603/151 222/604/151
f 215/605/152 216/606/152 220/607/152
f 215/605/152 220/607/152 219/608/152
f 218/609/153 217/610/153 221/611/153
f 218/609/153 221/611/153 222/612/153
f 222/613/154 220/614/154 216/615/154
f 222/613/154 216/615/154 218/616/154
f 226/617/155 224/618/155 223/619/155
f 226/617/155 223/619/155 225/620/155
f 229/621/156 227/622/156 228/623/156
f 229/621/156 228/623/156 230/624/156
f 223/625/157 224/626/157 228/627/157
f 223/625/157 228/627/157 227/628/157
f 226/629/158 225/630/158 229/631/158
f 226/629/158 229/631/158 230/632/158
f 230/633/159 228/634/159 224/635/159
f 230/633/159 224/635/159 226/636/159
f 234/637/160 232/638/160 231/639/160
f 234/637/160 231/639/160 233/640/160
f 237/641/161 235/642/161 236/643/161
f 237/641/161 236/643/161 238/644/161
f 231/645/162 232/646/162 236/647/162
f 231/645/162 236/647/162 235/648/162
f 234/649/163 233/650/163 237/651/163
f 234/649/163 237/651/163 238/652/163
f 238/653/164 236/654/164 232/655/164
f 238/653/164 232/655/164 234/656/164
f 239/657/165 240/658/165 242/659/165
f 239/657/165 242/659/165 241/660/165
f 244/661/166 243/662/166 245/663/166
f 244/661/166 245/663/166 246/664/166
f 244/665/167 240/666/167 239/667/167
f 244/665/167 239/667/167 243/668/167
f 245/669/168 241/670/168 242/671/168
f 245/669/168 242/671/168 246/672/168
f 240/673/169 244/674/169 246/675/169
f 240/673/169 246/675/169 242/676/169
f 247/677/170 248/678/170 250/679/170
f 247/677/170 250/679/170 249/680/170
f 252/681/171 251/682/171 253/683/171
f 252/681/171 253/683/171 254/684/171
f 252/685/172 248/686/172 247/687/172
f 252/685/172 247/687/172 251/688/172
f 253/689/173 249/690/173 250/691/173
f 253/689/173 250/691/173 254/692/173
f 248/693/174 252/694/174 254/695/174
f 248/693/174 254/695/174 250/696/174
f 255/697/175 256/698/175 258/699/175
f 255/697/175 258/699/175 257/700/175
f 260/701/176 259/702/176 261/703/176
f 260/701/176 261/703/176 262/704/176
f 260/705/177 256/706/177 255/707/177
f 260/705/177 255/707/177 259/708/177
f 261/709/178 257/710/178 258/711/178
f 261/709/178 258/711/178 262/712/178
f 256/713/179 260/714/179 262/715/179
f 256/713/179 262/715/179 258/716/179
f 263/717/180 264/718/180 266/719/180
f 263/717/180 266/719/180 265/720/180
f 268/721/181 267/722/181 269/723/181
f 268/721/181 269/723/181 270/724/181
f 268/725/182 264/726/182 263/727/182
f 268/725/182 263/727/182 267/728/182
f 269/729/183 265/730/183 266/731/183
f 269/729/183 266/731/183 270/732/183
f 264/733/184 268/734/184 270/735/184
f 264/733/184 270/735/184 266/736/184
f 274/737/185 272/738/185 271/739/185
f 274/737/185 271/739/185 273/740/185
f 277/741/186 275/742/186 276/743/186
f 277/741/186 276/743/186 278/744/186
f 271/745/187 272/746/187 276/747/187
f 271/745/187 276/747/187 275/748/187
f 274/749/188 273/750/188 277/751/188
f 274/749/188 277/751/188 278/752/188
f 278/753/189 276/754/189 272/755/189
f 278/753/189 272/755/189 274/756/189
f 282/757/190 280/758/190 279/759/190
f 282/757/190 279/759/190 281/760/190
f 285/761/191 283/762/191 284/763/191
f 285/761/191 284/763/191 286/764/191
f 279/765/192 280/766/192 284/767/192
f 279/765/192 284/767/192 283/768/192
f 282/769/193 281/770/193 285/771/193
f 282/769/193 285/771/193 286/772/193
f 286/773/194 284/774/194 280/775/194
f 286/773/194 280/775/194 282/776/194
f 290/777/195 288/778/195 287/779/195
f 290/777/195 287/779/195 289/780/195
f 293/781/196 291/782/196 292/783/196
f 293/781/196 292/783/196 294/784/196
f 287/785/197 288/786/197 292/787/197
f 287/785/197 292/787/197 291/788/197
f 290/789/198 289/790/198 293/791/198
f 290/789/198 293/791/198 294/792/198
f 294/793/199 292/794/199 288/795/199
f 294/793/199 288/795/199 290/796/199
f 298/797/200 296/798/200 295/799/200
f 298/797/200 295/799/200 297/800/200
f 301/801/201 299/802/201 300/803/201
f 301/801/201 300/803/201 302/804/201
f 295/805/202 296/806/202 300/807/202
f 295/805/202 300/807/202 299/808/202
f 298/809/203 297/810/203 301/811/203
f 298/809/203 301/811/203 302/812/203
f 302/813/204 300/814/204 296/815/204
f 302/813/204 296/815/204 298/816/204
f 303/817/205 304/818/205 306/819/205
f 303/817/205 306/819/205 305/820/205
f 308/821/206 307/822/206 309/823/206
f 308/821/206 309/823/206 310/824/206
f 308/825/207 304/826/207 303/827/207
f 308/825/207 303/827/207 307/828/207
f 309/829/208 305/830/208 306/831/208
f 309/829/208 306/831/208 310/832/208
f 304/833/209 308/834/209 310/835/209
f 304/833/209 310/835/209 306/836/209
f 311/837/210 312/838/210 314/839/210
f 311/837/210 314/839/210 313/840/210
f 316/841/211 315/842/211 317/843/211
f 316/841/211 317/843/211 318/844/211
f 316/845/212 312/846/212 311/847/212
f 316/845/212 311/847/212 315/848/212
f 317/849/213 313/850/213 314/851/213
f 317/849/213 314/851/213 318/852/213
f 312/853/214 316/854/214 318/855/214
f 312/853/214 318/855/214 314/856/214
f 319/857/215 320/858/215 322/859/215
f 319/857/215 322/859/215 321/860/215
f 324/861/216 323/862/216 325/863/216
f 324/861/216 325/863/216 326/864/216
f 324/865/217 320/866/217 319/867/217
f 324/865/217 319/867/217 323/868/217
f 325/869/218 321/870/218 322/871/218
f 325/869/218 322/871/218 326/872/218
f 320/873/219 324/874/219 326/875/219
f 320/873/219 326/875/219 322/876/219
f 327/877/220 328/878/220 330/879/220
f 327/877/220 330/879/220 329/880/220
f 332/881/221 331/882/221 333/883/221
f 332/881/221 333/883/221 334/884/221
f 332/885/222 328/886/222 327/887/222
f 332/885/222 327/887/222 331/888/222
f 333/889/223 329/890/223 330/891/223
f 333/889/223 330/891/223 334/892/223
f 328/893/224 332/894/224 334/895/224
f 328/893/224 334/895/224 330/896/224
f 337/897/225 363/898/225 362/899/225
f 337/897/225 362/899/225 338/900/225
f 341/901/226 365/902/226 364/903/226
f 341/901/226 364/903/226 178/904/226
f 178/905/227 364/906/227 363/907/227
f 178/905/227 363/907/227 337/908/227
f 338/909/228 362/910/228 365/911/228
f 338/909/228 365/911/228 341/912/228
f 343/913/229 342/914/229 178/915/229
f 343/913/229 178/915/229 337/916/229
f 344/917/230 343/918/230 337/919/230
f 344/917/230 337/919/230 338/920/230
f 345/921/231 344/922/231 338/923/231
f 345/921/231 338/923/231 341/924/231
f 342/925/232 345/926/232 341/927/232
f 342/925/232 341/927/232 178/928/232
f 339/929/233 353/930/233 352/931/233
f 339/929/233 352/931/233 346/932/233
f 347/933/234 355/934/234 354/935/234
f 347/933/234 354/935/234 335/936/234
f 350/937/235 356/938/235 357/939/235
f 350/937/235 357/939/235 351/940/235
f 348/941/236 358/942/236 359/943/236
f 348/941/236 359/943/236 349/944/236
f 340/945/237 361/946/237 360/947/237
f 340/945/237 360/947/237 339/948/237
f 336/949/238 362/950/238 363/951/238
f 336/949/238 363/951/238 335/952/238
f 335/953/239 363/954/239 364/955/239
f 335/953/239 364/955/239 339/956/239
f 339/957/240 364/958/240 365/959/240
f 339/957/240 365/959/240 340/960/240
f 340/961/241 365/962/241 362/963/241
f 340/961/241 362/963/241 336/964/241