# Made by Pabilo8 with Blockbench
# Exported with IIToolkit Plugin
mtllib emplacement.mtl


o variant_sandbags
v 2 -3 3
v 2 -3 0
v 2 -0.125 3
v 2 -0.125 0
v -1 -3 3
v -1 -3 0
v -1 -0.125 3
v -1 -0.125 0
v -0.7450000000000001 -0.125 2.745
v 1.745 -0.125 2.745
v 1.745 -0.125 0.2549999999999999
v -0.7450000000000001 -0.125 0.2549999999999999
v 0 -3 3
v 1 -3 3
v 1 -3 0
v 0 -3 0
v 2 -3 2
v 2 -3 1
v 0 -3.5 2.9375
v -1 -3.5 2.9375
v 2 -3.5 2.9375
v 1 -3.5 2.9375
v 1.9375 -3.5 2
v 1.9375 -3.5 1
v 1 -3.5 0.0625
v 0 -3.5 0.0625
v -0.9375 -3.5 3
v -0.9375 -3.5 0
v -0.65799125 1.125 2.7255281250000003
v -0.8125 1.125 2.25
v -0.65799125 0.875 2.7255281250000003
v -0.8125 0.875 2.25
v -0.895755625 1.125 2.8027825
v -1.050264375 1.125 2.327254375
v -0.895755625 0.875 2.8027825
v -1.050264375 0.875 2.327254375
v -0.75 1.125 1.875
v -0.75 1.125 0.875
v -0.75 0.875 1.875
v -0.75 0.875 0.875
v -1 1.125 1.875
v -1 1.125 0.875
v -1 0.875 1.875
v -1 0.875 0.875
v -0.81958625 1.125 0.87013375
v -0.75 1.125 0.375
v -0.81958625 0.875 0.87013375
v -0.75 0.875 0.375
v -1.06715375 1.125 0.835340625
v -0.997566875 1.125 0.340206875
v -1.06715375 0.875 0.835340625
v -0.997566875 0.875 0.340206875
v 1.7804675 1.125 2.93563625
v 1.75 1.125 2.6875
v 1.7804675 0.875 2.93563625
v 1.75 0.875 2.6875
v 1.284194375 1.125 2.9965712499999997
v 1.253726875 1.125 2.748434375
v 1.284194375 0.875 2.9965712499999997
v 1.253726875 0.875 2.748434375
v 1.75 0.125 3.0625
v 1.75 0.125 3
v 1.75 -0.125 3.0625
v 1.75 -0.125 3
v 1.25 0.125 3.0625
v 1.25 0.125 3
v 1.25 -0.125 3.0625
v 1.25 -0.125 3
v 1.5 0.625 3.0625
v 1.5 0.625 3
v 1.5 0.375 3.0625
v 1.5 0.375 3
v 0.5 0.625 3.0625
v 0.5 0.625 3
v 0.5 0.375 3.0625
v 0.5 0.375 3
v 0.9375 0.375 3.0625
v 0.9375 0.375 3
v 0.9375 0.125 3.0625
v 0.9375 0.125 3
v -0.0625 0.375 3.0625
v -0.0625 0.375 3
v -0.0625 0.125 3.0625
v -0.0625 0.125 3
v -0.0625 -0.125 3.0625
v -0.0625 -0.125 3
v -0.5625 0.125 3.0625
v -0.5625 0.125 3
v -0.5625 -0.125 3.0625
v -0.5625 -0.125 3
v -0.5 0.625 3.0625
v -0.5 0.625 3
v -0.5 0.375 3.0625
v -0.5 0.375 3
v -1 0.625 3.0625
v -1 0.625 3
v -1 0.375 3.0625
v -1 0.375 3
v 1.75 0.875 3
v 1.75 0.875 2.75
v -0.75 0.875 3
v -0.75 0.875 2.75
v -0.75 -0.125 3
v 0.5 0.8687499999999999 3.0625
v 0.5 0.8687499999999999 3
v 0.5 0.6187499999999999 3.0625
v 0.5 0.6187499999999999 3
v -0.5 0.8687499999999999 3.0625
v -0.5 0.8687499999999999 3
v -0.5 0.6187499999999999 3.0625
v -0.5 0.6187499999999999 3
v -0.27178875 1.125 3.06154875
v -0.25 1.125 2.8125
v -0.27178875 0.875 3.06154875
v -0.25 0.875 2.8125
v -0.7698862500000001 1.125 3.0179706250000002
v -0.7480975000000001 1.125 2.768921875
v -0.7698862500000001 0.875 3.0179706250000002
v -0.7480975000000001 0.875 2.768921875
v 2 1.125 2.6875
v 2 1.125 1.6875
v 2 0.875 2.6875
v 2 0.875 1.6875
v 1.75 1.125 1.6875
v 1.75 0.875 1.6875
v 2.034878125 1.125 1.248781875
v 2 1.125 0.75
v 2.034878125 0.875 1.248781875
v 2 0.875 0.75
v 1.7854875 1.125 1.26622125
v 1.75060875 1.125 0.767439375
v 1.7854875 0.875 1.26622125
v 1.75060875 0.875 0.767439375
v 2.0625 0.125 0.5
v 2 0.125 0.5
v 2.0625 -0.125 0.5
v 2 -0.125 0.5
v 2.0625 0.125 1.5
v 2 0.125 1.5
v 2.0625 -0.125 1.5
v 2 -0.125 1.5
v 2.0625 0.875 2.5
v 2.0625 0.875 2
v 2.0625 0.625 2.5
v 2.0625 0.625 2
v 2 0.875 2.5
v 2 0.875 2
v 2 0.625 2.5
v 2 0.625 2
v 2.0625 0.375 3
v 2.0625 0.375 2.5
v 2.0625 0.125 3
v 2.0625 0.125 2.5
v 2 0.375 3
v 2 0.375 2.5
v 2 0.125 3
v 2 0.125 2.5
v 2 0.875 3
v 2 0.875 0
v 2 -0.125 3
v 2 -0.125 0
v 1.75 0.875 0
v 1.75 -0.125 0
v 2.0625 0.125 2
v 2.0625 -0.125 2.5
v 2.0625 -0.125 2
v 2 0.125 2
v 2 -0.125 2.5
v 2 -0.125 2
v 2.0625 0.375 1
v 2 0.375 1
v 2.0625 0.125 1
v 2 0.125 1
v 2.0625 0.375 2
v 2 0.375 2
v 2.0625 0.625 0.5
v 2 0.625 0.5
v 2.0625 0.375 0.5
v 2 0.375 0.5
v 2.0625 0.625 1.5
v 2 0.625 1.5
v 2.0625 0.375 1.5
v 2 0.375 1.5
v 1.75 0.875 -0.0625
v 1.75 0.625 0
v 1.75 0.625 -0.0625
v 1.25 0.875 0
v 1.25 0.875 -0.0625
v 1.25 0.625 0
v 1.25 0.625 -0.0625
v 1.75 0.125 0
v 1.75 0.125 -0.0625
v 1.75 -0.125 -0.0625
v 1.25 0.125 0
v 1.25 0.125 -0.0625
v 1.25 -0.125 0
v 1.25 -0.125 -0.0625
v 0.6875 0.125 0
v 0.6875 0.125 -0.0625
v 0.6875 -0.125 0
v 0.6875 -0.125 -0.0625
v 0.1875 0.125 0
v 0.1875 0.125 -0.0625
v 0.1875 -0.125 0
v 0.1875 -0.125 -0.0625
v 1.4375 0.375 0
v 1.4375 0.375 -0.0625
v 1.4375 0.125 0
v 1.4375 0.125 -0.0625
v 0.4375 0.375 0
v 0.4375 0.375 -0.0625
v 0.4375 0.125 0
v 0.4375 0.125 -0.0625
v 0.75 0.625 0
v 0.75 0.625 -0.0625
v 0.75 0.375 0
v 0.75 0.375 -0.0625
v -0.25 0.625 0
v -0.25 0.625 -0.0625
v -0.25 0.375 0
v -0.25 0.375 -0.0625
v -0.5 0.875 0
v -0.5 0.875 -0.0625
v -0.5 0.625 0
v -0.5 0.625 -0.0625
v -1 0.875 0
v -1 0.875 -0.0625
v -1 0.625 0
v -1 0.625 -0.0625
v 1.75 0.875 0.25
v -0.75 0.875 0.25
v -0.75 0.875 0
v -0.75 -0.125 0
v -0.25 0.125 0
v -0.25 0.125 -0.0625
v -0.75 0.375 0
v -0.75 0.375 -0.0625
v -0.75 0.125 0
v -0.75 0.125 -0.0625
v -1 0.125 2.375
v -1 0.125 1.875
v -1 -0.125 2.375
v -1 -0.125 1.875
v -1.0625 0.125 2.375
v -1.0625 0.125 1.875
v -1.0625 -0.125 2.375
v -1.0625 -0.125 1.875
v -1 0.625 2.75
v -1 0.625 2.25
v -1 0.375 2.75
v -1 0.375 2.25
v -1.0625 0.625 2.75
v -1.0625 0.625 2.25
v -1.0625 0.375 2.75
v -1.0625 0.375 2.25
v -1 0.625 0.875
v -1.0625 0.625 0.875
v -1 0.375 0.875
v -1.0625 0.375 0.875
v -1 0.625 1.875
v -1.0625 0.625 1.875
v -1 0.375 1.875
v -1.0625 0.375 1.875
v -0.98255 0.375 1.124695625
v -1 0.375 0.625
v -0.98255 0.125 1.124695625
v -1 0.125 0.625
v -1.045011875 0.375 1.126876875
v -1.062461875 0.375 0.62718125
v -1.045011875 0.125 1.126876875
v -1.062461875 0.125 0.62718125
v -1 0.625 0.5
v -1 0.375 0.5
v -1 0.375 0
v -1.0625 0.625 0.5
v -1.0625 0.625 0
v -1.0625 0.375 0.5
v -1.0625 0.375 0
v -1 0.875 3
v -1 -0.125 3
v -1 -0.125 0
v -0.20928875000000002 1.125 0.24904875000000004
v -0.1875 1.125 0
v -0.20928875000000002 0.875 0.24904875000000004
v -0.1875 0.875 0
v -0.5206 1.125 0.22181249999999997
v -0.49881062499999995 1.125 -0.027236250000000073
v -0.5206 0.875 0.22181249999999997
v -0.49881062499999995 0.875 -0.027236250000000073
v 1.78770875 1.125 0.62132875
v 2.0335225 1.125 0.575769375
v 1.69659125 1.125 0.1297012500000001
v 1.942405 1.125 0.08414250000000001
v 1.78770875 0.875 0.62132875
v 1.69659125 0.875 0.1297012500000001
v 1.942405 0.875 0.08414250000000001
v 2.0335225 0.875 0.575769375
v 1.1984287500000002 1.125 0.19162687500000009
v 1.69652625 1.125 0.2352043749999999
v 1.2202181250000002 1.125 -0.057421874999999956
v 1.718315 1.125 -0.013844374999999909
v 1.1984287500000002 0.875 0.19162687500000009
v 1.2202181250000002 0.875 -0.057421874999999956
v 1.718315 0.875 -0.013844374999999909
v 1.69652625 0.875 0.2352043749999999
vt 0.000000 0.000000
vt 0.750000 0.000000
vt 0.750000 0.718750
vt 0.000000 0.718750
vt 0.000000 0.000000
vt 0.750000 0.000000
vt 0.750000 0.718750
vt 0.000000 0.718750
vt 0.000000 0.000000
vt 0.750000 0.000000
vt 0.750000 0.718750
vt 0.000000 0.718750
vt 0.000000 0.000000
vt 0.750000 0.000000
vt 0.750000 0.718750
vt 0.000000 0.718750
vt 0.686250 0.750000
vt 0.063750 0.750000
vt 0.000000 0.686250
vt 0.750000 0.686250
vt 0.063750 0.686250
vt 0.686250 0.686250
vt 0.750000 0.750000
vt 0.000000 0.750000
vt 0.063750 0.686250
vt 0.686250 0.686250
vt 0.750000 0.750000
vt 0.000000 0.750000
vt 0.686250 0.750000
vt 0.063750 0.750000
vt 0.000000 0.686250
vt 0.750000 0.686250
vt 0.000000 0.000000
vt 0.000000 0.125000
vt 0.250000 0.125000
vt 0.250000 0.000000
vt 0.000000 0.000000
vt 0.000000 0.125000
vt 0.250000 0.125000
vt 0.250000 0.000000
vt 0.250000 0.000000
vt 0.250000 0.125000
vt 0.000000 0.125000
vt 0.000000 0.000000
vt 0.250000 0.000000
vt 0.250000 0.125000
vt 0.000000 0.125000
vt 0.000000 0.000000
vt 0.000000 0.000000
vt 0.000000 0.125000
vt 0.750000 0.125000
vt 0.750000 0.000000
vt 0.390625 0.937500
vt 0.390625 1.000000
vt 0.265625 1.000000
vt 0.265625 0.937500
vt 0.468750 0.937500
vt 0.468750 1.000000
vt 0.343750 1.000000
vt 0.343750 0.937500
vt 0.125000 0.937500
vt 0.000000 0.937500
vt 0.000000 0.875000
vt 0.125000 0.875000
vt 0.390625 0.812500
vt 0.390625 0.875000
vt 0.328125 0.875000
vt 0.328125 0.812500
vt 0.062500 0.875000
vt 0.062500 0.937500
vt 0.000000 0.937500
vt 0.000000 0.875000
vt 0.593750 0.937500
vt 0.593750 1.000000
vt 0.343750 1.000000
vt 0.343750 0.937500
vt 0.562500 0.937500
vt 0.562500 1.000000
vt 0.312500 1.000000
vt 0.312500 0.937500
vt 0.578125 1.000000
vt 0.328125 1.000000
vt 0.328125 0.937500
vt 0.578125 0.937500
vt 0.531250 0.937500
vt 0.531250 1.000000
vt 0.468750 1.000000
vt 0.468750 0.937500
vt 0.062500 0.937500
vt 0.062500 1.000000
vt 0.000000 1.000000
vt 0.000000 0.937500
vt 0.500000 0.937500
vt 0.500000 1.000000
vt 0.375000 1.000000
vt 0.375000 0.937500
vt 0.421875 0.812500
vt 0.421875 0.875000
vt 0.296875 0.875000
vt 0.296875 0.812500
vt 0.500000 1.000000
vt 0.375000 1.000000
vt 0.375000 0.937500
vt 0.500000 0.937500
vt 0.453125 0.812500
vt 0.453125 0.875000
vt 0.390625 0.875000
vt 0.390625 0.812500
vt 0.375000 0.937500
vt 0.375000 1.000000
vt 0.312500 1.000000
vt 0.312500 0.937500
vt 0.421875 0.812500
vt 0.421875 0.875000
vt 0.359375 0.875000
vt 0.359375 0.812500
vt 0.515625 0.812500
vt 0.515625 0.875000
vt 0.453125 0.875000
vt 0.453125 0.812500
vt 0.531250 0.812500
vt 0.531250 0.875000
vt 0.406250 0.875000
vt 0.406250 0.812500
vt 0.484375 0.812500
vt 0.484375 0.875000
vt 0.359375 0.875000
vt 0.359375 0.812500
vt 0.406250 0.937500
vt 0.406250 1.000000
vt 0.281250 1.000000
vt 0.281250 0.937500
vt 0.343750 0.796875
vt 0.343750 0.859375
vt 0.328125 0.859375
vt 0.328125 0.796875
vt 0.312500 0.828125
vt 0.312500 0.890625
vt 0.296875 0.890625
vt 0.296875 0.828125
vt 0.390625 0.875000
vt 0.390625 0.890625
vt 0.265625 0.890625
vt 0.265625 0.875000
vt 0.406250 0.859375
vt 0.406250 0.875000
vt 0.281250 0.875000
vt 0.281250 0.859375
vt 0.703125 0.812500
vt 0.703125 0.875000
vt 0.578125 0.875000
vt 0.578125 0.812500
vt 0.312500 0.843750
vt 0.312500 0.906250
vt 0.296875 0.906250
vt 0.296875 0.843750
vt 0.328125 0.859375
vt 0.328125 0.921875
vt 0.312500 0.921875
vt 0.312500 0.859375
vt 0.593750 0.843750
vt 0.593750 0.859375
vt 0.343750 0.859375
vt 0.343750 0.843750
vt 0.593750 0.859375
vt 0.593750 0.875000
vt 0.343750 0.875000
vt 0.343750 0.859375
vt 0.468750 0.812500
vt 0.468750 0.875000
vt 0.218750 0.875000
vt 0.218750 0.812500
vt 0.343750 0.828125
vt 0.343750 0.859375
vt 0.328125 0.859375
vt 0.328125 0.828125
vt 0.312500 0.828125
vt 0.312500 0.859375
vt 0.296875 0.859375
vt 0.296875 0.828125
vt 0.343750 0.859375
vt 0.343750 0.875000
vt 0.250000 0.875000
vt 0.250000 0.859375
vt 0.343750 0.843750
vt 0.343750 0.859375
vt 0.250000 0.859375
vt 0.250000 0.843750
vt 0.484375 0.812500
vt 0.484375 0.875000
vt 0.234375 0.875000
vt 0.234375 0.812500
vt 0.296875 0.796875
vt 0.250000 0.796875
vt 0.250000 0.781250
vt 0.296875 0.781250
vt 0.250000 0.781250
vt 0.250000 0.812500
vt 0.234375 0.812500
vt 0.234375 0.781250
vt 0.296875 0.796875
vt 0.296875 0.812500
vt 0.250000 0.812500
vt 0.250000 0.796875
vt 0.296875 0.796875
vt 0.296875 0.812500
vt 0.234375 0.812500
vt 0.234375 0.796875
vt 0.343750 0.750000
vt 0.343750 0.812500
vt 0.218750 0.812500
vt 0.218750 0.750000
vt 0.437500 0.843750
vt 0.484375 0.843750
vt 0.484375 0.859375
vt 0.437500 0.859375
vt 0.437500 0.828125
vt 0.437500 0.859375
vt 0.421875 0.859375
vt 0.421875 0.828125
vt 0.484375 0.875000
vt 0.484375 0.859375
vt 0.406250 0.859375
vt 0.406250 0.875000
vt 0.484375 0.843750
vt 0.484375 0.859375
vt 0.406250 0.859375
vt 0.406250 0.843750
vt 0.515625 0.812500
vt 0.515625 0.875000
vt 0.390625 0.875000
vt 0.390625 0.812500
vt 0.640625 0.828125
vt 0.640625 0.890625
vt 0.015625 0.890625
vt 0.015625 0.828125
vt 0.687500 0.750000
vt 0.687500 1.000000
vt 0.062500 1.000000
vt 0.062500 0.750000
vt 0.453125 0.812500
vt 0.453125 0.843750
vt 0.437500 0.843750
vt 0.437500 0.812500
vt 0.343750 0.812500
vt 0.343750 0.843750
vt 0.343750 0.843750
vt 0.343750 0.812500
vt 0.453125 0.828125
vt 0.453125 0.843750
vt 0.343750 0.843750
vt 0.343750 0.828125
vt 0.453125 0.812500
vt 0.453125 0.828125
vt 0.343750 0.828125
vt 0.343750 0.812500
vt 0.531250 0.812500
vt 0.531250 0.875000
vt 0.281250 0.875000
vt 0.281250 0.812500
vt 1.000000 1.000000
vt 1.000000 1.000000
vt 1.000000 1.000000
vt 1.000000 1.000000
vt 0.437500 0.812500
vt 0.437500 0.875000
vt 0.375000 0.875000
vt 0.375000 0.812500
vt 0.390625 0.812500
vt 0.390625 0.875000
vt 0.328125 0.875000
vt 0.328125 0.812500
vt 0.343750 0.812500
vt 0.343750 0.875000
vt 0.218750 0.875000
vt 0.218750 0.812500
vt 0.421875 0.812500
vt 0.421875 0.875000
vt 0.296875 0.875000
vt 0.296875 0.812500
vt 0.421875 0.937500
vt 0.421875 1.000000
vt 0.296875 1.000000
vt 0.296875 0.937500
vt 0.500000 0.937500
vt 0.500000 1.000000
vt 0.250000 1.000000
vt 0.250000 0.937500
vt 0.531250 0.937500
vt 0.531250 1.000000
vt 0.281250 1.000000
vt 0.281250 0.937500
vt 0.562500 1.000000
vt 0.312500 1.000000
vt 0.312500 0.937500
vt 0.562500 0.937500
vt 0.421875 0.937500
vt 0.421875 1.000000
vt 0.359375 1.000000
vt 0.359375 0.937500
vt 0.500000 0.937500
vt 0.500000 1.000000
vt 0.437500 1.000000
vt 0.437500 0.937500
vt 0.484375 0.937500
vt 0.484375 1.000000
vt 0.359375 1.000000
vt 0.359375 0.937500
vt 0.406250 0.937500
vt 0.406250 1.000000
vt 0.281250 1.000000
vt 0.281250 0.937500
vt 0.343750 0.937500
vt 0.468750 0.937500
vt 0.468750 1.000000
vt 0.343750 1.000000
vt 0.296875 0.937500
vt 0.296875 1.000000
vt 0.234375 1.000000
vt 0.234375 0.937500
vt 0.140625 0.875000
vt 0.140625 0.937500
vt 0.078125 0.937500
vt 0.078125 0.875000
vt 0.484375 0.812500
vt 0.484375 0.875000
vt 0.468750 0.875000
vt 0.468750 0.812500
vt 0.312500 0.875000
vt 0.312500 0.937500
vt 0.296875 0.937500
vt 0.296875 0.875000
vt 0.484375 0.906250
vt 0.484375 0.921875
vt 0.234375 0.921875
vt 0.234375 0.906250
vt 0.484375 0.890625
vt 0.484375 0.906250
vt 0.234375 0.906250
vt 0.234375 0.890625
vt 0.562500 0.750000
vt 0.562500 0.812500
vt 0.312500 0.812500
vt 0.312500 0.750000
vt 0.265625 0.937500
vt 0.265625 1.000000
vt 0.140625 1.000000
vt 0.140625 0.937500
vt 0.468750 0.765625
vt 0.468750 0.890625
vt 0.453125 0.890625
vt 0.453125 0.765625
vt 0.453125 0.765625
vt 0.453125 0.890625
vt 0.437500 0.890625
vt 0.437500 0.765625
vt 0.546875 0.796875
vt 0.546875 0.859375
vt 0.531250 0.859375
vt 0.531250 0.796875
vt 0.390625 0.796875
vt 0.390625 0.859375
vt 0.375000 0.859375
vt 0.375000 0.796875
vt 0.125000 0.812500
vt 0.125000 0.875000
vt 0.000000 0.875000
vt 0.000000 0.812500
vt 0.375000 0.796875
vt 0.375000 0.921875
vt 0.359375 0.921875
vt 0.359375 0.796875
vt 0.328125 0.796875
vt 0.328125 0.921875
vt 0.312500 0.921875
vt 0.312500 0.796875
vt 0.406250 0.812500
vt 0.406250 0.875000
vt 0.390625 0.875000
vt 0.390625 0.812500
vt 0.437500 0.828125
vt 0.437500 0.890625
vt 0.421875 0.890625
vt 0.421875 0.828125
vt 0.750000 0.750000
vt 0.750000 1.000000
vt 0.000000 1.000000
vt 0.000000 0.750000
vt 0.750000 1.000000
vt 0.000000 1.000000
vt 0.000000 0.937500
vt 0.750000 0.937500
vt 0.750000 0.750000
vt 0.750000 1.000000
vt 0.687500 1.000000
vt 0.687500 0.750000
vt 0.062500 0.750000
vt 0.062500 1.000000
vt 0.000000 1.000000
vt 0.000000 0.750000
vt 0.328125 0.750000
vt 0.328125 0.812500
vt 0.203125 0.812500
vt 0.203125 0.750000
vt 0.406250 0.812500
vt 0.406250 0.937500
vt 0.390625 0.937500
vt 0.390625 0.812500
vt 0.468750 0.812500
vt 0.468750 0.937500
vt 0.453125 0.937500
vt 0.453125 0.812500
vt 0.453125 0.843750
vt 0.453125 0.906250
vt 0.437500 0.906250
vt 0.437500 0.843750
vt 0.468750 0.843750
vt 0.468750 0.906250
vt 0.453125 0.906250
vt 0.453125 0.843750
vt 0.500000 0.781250
vt 0.500000 0.843750
vt 0.484375 0.843750
vt 0.484375 0.781250
vt 0.390625 0.781250
vt 0.390625 0.843750
vt 0.375000 0.843750
vt 0.375000 0.781250
vt 0.546875 0.828125
vt 0.546875 0.843750
vt 0.296875 0.843750
vt 0.296875 0.828125
vt 0.578125 0.828125
vt 0.578125 0.843750
vt 0.328125 0.843750
vt 0.328125 0.828125
vt 0.359375 0.921875
vt 0.359375 0.984375
vt 0.109375 0.984375
vt 0.109375 0.921875
vt 0.343750 0.796875
vt 0.343750 0.859375
vt 0.328125 0.859375
vt 0.328125 0.796875
vt 0.453125 0.796875
vt 0.453125 0.859375
vt 0.437500 0.859375
vt 0.437500 0.796875
vt 0.531250 0.828125
vt 0.531250 0.843750
vt 0.281250 0.843750
vt 0.281250 0.828125
vt 0.515625 0.812500
vt 0.515625 0.828125
vt 0.265625 0.828125
vt 0.265625 0.812500
vt 0.578125 0.875000
vt 0.578125 0.937500
vt 0.328125 0.937500
vt 0.328125 0.875000
vt 0.281250 0.843750
vt 0.281250 0.875000
vt 0.296875 0.875000
vt 0.296875 0.843750
vt 0.234375 0.843750
vt 0.234375 0.875000
vt 0.250000 0.875000
vt 0.250000 0.843750
vt 0.296875 0.875000
vt 0.296875 0.859375
vt 0.234375 0.859375
vt 0.234375 0.875000
vt 0.296875 0.843750
vt 0.296875 0.859375
vt 0.234375 0.859375
vt 0.234375 0.843750
vt 0.375000 0.812500
vt 0.375000 0.875000
vt 0.250000 0.875000
vt 0.250000 0.812500
vt 0.453125 0.750000
vt 0.453125 0.781250
vt 0.437500 0.781250
vt 0.437500 0.750000
vt 0.500000 0.750000
vt 0.500000 0.781250
vt 0.484375 0.781250
vt 0.484375 0.750000
vt 0.515625 0.765625
vt 0.515625 0.781250
vt 0.453125 0.781250
vt 0.453125 0.765625
vt 0.484375 0.765625
vt 0.484375 0.781250
vt 0.421875 0.781250
vt 0.421875 0.765625
vt 0.343750 0.750000
vt 0.343750 0.812500
vt 0.218750 0.812500
vt 0.218750 0.750000
vt 0.375000 0.796875
vt 0.375000 0.843750
vt 0.359375 0.843750
vt 0.359375 0.796875
vt 0.343750 0.796875
vt 0.343750 0.843750
vt 0.328125 0.843750
vt 0.328125 0.796875
vt 0.390625 0.828125
vt 0.390625 0.843750
vt 0.343750 0.843750
vt 0.343750 0.828125
vt 0.390625 0.812500
vt 0.390625 0.828125
vt 0.328125 0.828125
vt 0.328125 0.812500
vt 0.500000 0.875000
vt 0.500000 0.937500
vt 0.375000 0.937500
vt 0.375000 0.875000
vt 0.593750 0.843750
vt 0.593750 0.859375
vt 0.578125 0.859375
vt 0.578125 0.843750
vt 0.531250 0.843750
vt 0.531250 0.875000
vt 0.515625 0.875000
vt 0.515625 0.843750
vt 0.593750 0.859375
vt 0.593750 0.875000
vt 0.515625 0.875000
vt 0.515625 0.859375
vt 0.593750 0.843750
vt 0.593750 0.859375
vt 0.515625 0.859375
vt 0.515625 0.843750
vt 0.687500 0.812500
vt 0.687500 0.875000
vt 0.437500 0.875000
vt 0.437500 0.812500
vt 0.343750 0.812500
vt 0.343750 0.843750
vt 0.328125 0.843750
vt 0.328125 0.812500
vt 0.437500 0.812500
vt 0.437500 0.843750
vt 0.421875 0.843750
vt 0.421875 0.812500
vt 0.437500 0.828125
vt 0.437500 0.843750
vt 0.328125 0.843750
vt 0.328125 0.828125
vt 0.437500 0.828125
vt 0.437500 0.828125
vt 0.328125 0.828125
vt 0.328125 0.828125
vt 0.484375 0.937500
vt 0.484375 1.000000
vt 0.234375 1.000000
vt 0.234375 0.937500
vt 0.453125 0.781250
vt 0.453125 0.812500
vt 0.437500 0.812500
vt 0.437500 0.781250
vt 0.421875 0.781250
vt 0.421875 0.812500
vt 0.437500 0.812500
vt 0.437500 0.781250
vt 0.484375 0.812500
vt 0.484375 0.796875
vt 0.421875 0.796875
vt 0.421875 0.812500
vt 0.484375 0.781250
vt 0.484375 0.796875
vt 0.421875 0.796875
vt 0.421875 0.781250
vt 0.562500 0.812500
vt 0.562500 0.875000
vt 0.437500 0.875000
vt 0.437500 0.812500
vt 0.687500 0.812500
vt 0.687500 0.875000
vt 0.062500 0.875000
vt 0.062500 0.812500
vt 0.687500 0.750000
vt 0.687500 1.000000
vt 0.062500 1.000000
vt 0.062500 0.750000
vt 0.531250 0.843750
vt 0.531250 0.875000
vt 0.515625 0.875000
vt 0.515625 0.843750
vt 0.515625 0.843750
vt 0.515625 0.875000
vt 0.515625 0.875000
vt 0.515625 0.843750
vt 0.578125 0.843750
vt 0.578125 0.859375
vt 0.515625 0.859375
vt 0.515625 0.843750
vt 0.578125 0.859375
vt 0.578125 0.875000
vt 0.531250 0.875000
vt 0.531250 0.859375
vt 0.718750 0.937500
vt 0.718750 1.000000
vt 0.593750 1.000000
vt 0.593750 0.937500
vt 0.125000 0.875000
vt 0.125000 0.937500
vt 0.000000 0.937500
vt 0.000000 0.875000
vt 0.429688 0.820312
vt 0.367188 0.820312
vt 0.367188 0.835938
vt 0.429688 0.835938
vt 0.414062 0.835938
vt 0.367188 0.835938
vt 0.367188 0.820312
vt 0.414062 0.820312
vt 0.375000 0.812500
vt 0.375000 0.843750
vt 0.390625 0.843750
vt 0.390625 0.812500
vt 0.390625 0.812500
vt 0.390625 0.843750
vt 0.406250 0.843750
vt 0.406250 0.812500
vt 0.328125 0.750000
vt 0.328125 0.812500
vt 0.203125 0.812500
vt 0.203125 0.750000
vt 0.257812 0.789062
vt 0.304688 0.789062
vt 0.304688 0.804688
vt 0.257812 0.804688
vt 0.257812 0.789062
vt 0.304688 0.789062
vt 0.304688 0.804688
vt 0.257812 0.804688
vt 0.312500 0.781250
vt 0.312500 0.812500
vt 0.296875 0.812500
vt 0.296875 0.781250
vt 0.257812 0.789062
vt 0.320312 0.789062
vt 0.320312 0.804688
vt 0.257812 0.804688
vt 0.500000 0.765625
vt 0.500000 0.812500
vt 0.484375 0.812500
vt 0.484375 0.765625
vt 0.500000 0.765625
vt 0.500000 0.796875
vt 0.484375 0.796875
vt 0.484375 0.765625
vt 0.500000 0.796875
vt 0.500000 0.812500
vt 0.375000 0.812500
vt 0.375000 0.796875
vt 0.500000 0.781250
vt 0.500000 0.796875
vt 0.375000 0.796875
vt 0.375000 0.781250
vt 0.562500 0.875000
vt 0.562500 0.937500
vt 0.312500 0.937500
vt 0.312500 0.875000
vt 0.531250 0.812500
vt 0.531250 0.875000
vt 0.406250 0.875000
vt 0.406250 0.812500
vt 0.500000 0.796875
vt 0.500000 0.828125
vt 0.468750 0.828125
vt 0.468750 0.796875
vt 0.562500 0.796875
vt 0.562500 0.859375
vt 0.546875 0.859375
vt 0.546875 0.796875
vt 0.406250 0.812500
vt 0.406250 0.875000
vt 0.390625 0.875000
vt 0.390625 0.812500
vt 0.453125 0.781250
vt 0.453125 0.843750
vt 0.437500 0.843750
vt 0.437500 0.781250
vt 0.406250 0.812500
vt 0.406250 0.875000
vt 0.281250 0.875000
vt 0.281250 0.812500
vt 0.343750 0.828125
vt 0.343750 0.875000
vt 0.328125 0.875000
vt 0.328125 0.828125
vt 0.375000 0.812500
vt 0.375000 0.875000
vt 0.359375 0.875000
vt 0.359375 0.812500
vt 0.437500 0.796875
vt 0.437500 0.859375
vt 0.421875 0.859375
vt 0.421875 0.796875
vt 0.343750 0.812500
vt 0.343750 0.875000
vt 0.328125 0.875000
vt 0.328125 0.812500
vt 0.750000 0.750000
vt 0.750000 1.000000
vt 0.000000 1.000000
vt 0.000000 0.750000
vt 0.750000 0.937500
vt 0.000000 0.937500
vt 0.000000 0.875000
vt 0.750000 0.875000
vt 0.062500 0.750000
vt 0.062500 1.000000
vt 0.000000 1.000000
vt 0.000000 0.750000
vt 0.750000 0.750000
vt 0.750000 1.000000
vt 0.687500 1.000000
vt 0.687500 0.750000
vt 0.515625 0.812500
vt 0.515625 0.875000
vt 0.453125 0.875000
vt 0.453125 0.812500
vt 0.531250 0.812500
vt 0.531250 0.875000
vt 0.468750 0.875000
vt 0.468750 0.812500
vt 0.453125 0.812500
vt 0.453125 0.875000
vt 0.375000 0.875000
vt 0.375000 0.812500
vt 0.515625 0.812500
vt 0.515625 0.875000
vt 0.437500 0.875000
vt 0.437500 0.812500
vt 0.515625 0.812500
vt 0.515625 0.875000
vt 0.437500 0.875000
vt 0.437500 0.812500
vt 0.390625 0.937500
vt 0.390625 1.000000
vt 0.265625 1.000000
vt 0.265625 0.937500
vt 0.468750 0.937500
vt 0.468750 1.000000
vt 0.343750 1.000000
vt 0.343750 0.937500
vt 0.125000 0.937500
vt 0.000000 0.937500
vt 0.000000 0.875000
vt 0.125000 0.875000
vt 0.390625 0.812500
vt 0.390625 0.875000
vt 0.328125 0.875000
vt 0.328125 0.812500
vt 0.062500 0.875000
vt 0.062500 0.937500
vt 0.000000 0.937500
vt 0.000000 0.875000
vt 0.437500 0.812500
vt 0.437500 0.875000
vt 0.375000 0.875000
vt 0.375000 0.812500
vt 0.390625 0.812500
vt 0.390625 0.875000
vt 0.328125 0.875000
vt 0.328125 0.812500
vt 0.343750 0.812500
vt 0.343750 0.875000
vt 0.218750 0.875000
vt 0.218750 0.812500
vt 0.421875 0.812500
vt 0.421875 0.875000
vt 0.296875 0.875000
vt 0.296875 0.812500
vt 0.421875 0.937500
vt 0.421875 1.000000
vt 0.296875 1.000000
vt 0.296875 0.937500
vn 1 0 0
vn -1 0 0
vn 0 0 1
vn 0 0 -1
vn 0 1 0
vn 0 1 0
vn 0 1 0
vn 0 1 0
vn 0 -0.12403473458920847 0.9922778767136677
vn 0 -0.12403473458920847 0.9922778767136677
vn 0.9922778767136677 -0.12403473458920847 0
vn 0 -0.12403473458920847 -0.9922778767136677
vn -0.9922778767136677 -0.12403473458920847 0
vn 0.9510563422665871 0 -0.3090175299792888
vn -0.9510563422665871 0 0.30901752997928883
vn 0 1 0
vn 0.3090171626133142 0 0.9510564616311782
vn -0.3090171626133146 0 -0.951056461631178
vn 1 0 0
vn -1 0 0
vn 0 1 0
vn 0 0 1
vn 0 0 -1
vn 0.9902681405489647 0 0.13917259002294907
vn -0.9902679682753972 0 -0.1391738158121598
vn 0 1 0
vn -0.13917224547811638 0 0.9902681889713407
vn 0.1391725900229491 0 -0.9902681405489647
vn 0.992546055114238 0 -0.12187012955258711
vn -0.9925460922449604 0 0.1218698271487191
vn 0 1 0
vn 0.12186997835046666 0 0.9925460736796338
vn -0.12186874691576863 0 -0.9925462248808267
vn 1 0 0
vn -1 0 0
vn 0 1 0
vn 0 -1 0
vn 0 0 1
vn 1 0 0
vn -1 0 0
vn 0 1 0
vn 0 -1 0
vn 0 0 1
vn 1 0 0
vn -1 0 0
vn 0 1 0
vn 0 -1 0
vn 0 0 1
vn 1 0 0
vn -1 0 0
vn 0 1 0
vn 0 -1 0
vn 0 0 1
vn 1 0 0
vn -1 0 0
vn 0 1 0
vn 0 -1 0
vn 0 0 1
vn 0 1 0
vn 0 0 1
vn 1 0 0
vn -1 0 0
vn 0 1 0
vn 0 -1 0
vn 0 0 1
vn 0 0 -1
vn 0.9961947648731585 0 0.08715497942924849
vn -0.9961947648731585 0 -0.08715497942924849
vn 0 1 0
vn -0.08715621993376488 0 0.9961946563432557
vn 0.08715621993376488 0 -0.9961946563432557
vn 1 0 0
vn -1 0 0
vn 0 1 0
vn 0 0 1
vn 0 0 -1
vn 0.9975640643683362 0 -0.06975627198271182
vn -0.9975639773846032 0 0.0697575159005188
vn 0 1 0
vn 0.06975760288512835 0 0.9975639713019515
vn -0.06975742891612634 0 -0.9975639834672319
vn 0 0 -1
vn 0 0 1
vn 0 1 0
vn 0 -1 0
vn 1 0 0
vn 1 0 0
vn 0 1 0
vn 0 -1 0
vn 0 0 1
vn 0 0 -1
vn 1 0 0
vn 0 1 0
vn 0 -1 0
vn 0 0 1
vn 0 0 -1
vn 1 0 0
vn 0 1 0
vn 0 0 1
vn 0 0 -1
vn 1 0 0
vn 0 1 0
vn 0 -1 0
vn 0 0 1
vn 0 0 -1
vn 0 0 -1
vn 0 0 1
vn 0 1 0
vn 0 -1 0
vn 1 0 0
vn 0 0 -1
vn 0 0 1
vn 0 1 0
vn 0 -1 0
vn 1 0 0
vn 1 0 0
vn -1 0 0
vn 0 1 0
vn 0 -1 0
vn 0 0 -1
vn 1 0 0
vn -1 0 0
vn 0 1 0
vn 0 -1 0
vn 0 0 -1
vn 1 0 0
vn -1 0 0
vn 0 1 0
vn 0 -1 0
vn 0 0 -1
vn 1 0 0
vn -1 0 0
vn 0 1 0
vn 0 -1 0
vn 0 0 -1
vn 1 0 0
vn -1 0 0
vn 0 1 0
vn 0 -1 0
vn 0 0 -1
vn 1 0 0
vn -1 0 0
vn 0 1 0
vn 0 -1 0
vn 0 0 -1
vn 0 1 0
vn 0 0 -1
vn 1 0 0
vn -1 0 0
vn 0 1 0
vn 0 -1 0
vn 0 0 -1
vn -1 0 0
vn 0 1 0
vn 0 -1 0
vn 0 0 1
vn 0 0 -1
vn -1 0 0
vn 0 1 0
vn 0 -1 0
vn 0 0 1
vn 0 0 -1
vn 0 0 -1
vn 0 0 1
vn 0 1 0
vn 0 -1 0
vn -1 0 0
vn -0.9993908099800349 0 0.03489998463394907
vn 0 1 0
vn 0 -1 0
vn 0.034900028232389704 0 0.9993908084575217
vn -0.034900028232389704 0 -0.9993908084575217
vn -1 0 0
vn 0 1 0
vn 0 -1 0
vn 0 0 1
vn 0 0 -1
vn -1 0 0
vn 0 1 0
vn 0 0 1
vn 0 0 -1
vn 0.9961947648731585 0 0.08715497942924849
vn -0.9961945478118319 0 -0.08715746043787584
vn 0 1 0
vn -0.08715588500869317 0 0.9961946856455076
vn 0.08715605865726764 0 -0.9961946704531855
vn -0.9832550047933682 0 0.18223500088839562
vn 0.9832549632812971 0 -0.18223522486801305
vn 0 1 0
vn -0.18223500088839603 0 -0.9832550047933681
vn 0.1822374178627667 0 0.9832545568319078
vn -0.9961945478118319 0 -0.08715746043787584
vn 0.9961947648731584 0 0.08715497942924856
vn 0 1 0
vn 0.0871550879585253 0 -0.9961947553781548
vn -0.08715497942924808 0 0.9961947648731584
usemtl base_sandbags
f 1/1/1 2/2/1 4/3/1
f 1/1/1 4/3/1 3/4/1
f 6/5/2 5/6/2 7/7/2
f 6/5/2 7/7/2 8/8/2
f 5/9/3 1/10/3 3/11/3
f 5/9/3 3/11/3 7/12/3
f 2/13/4 6/14/4 8/15/4
f 2/13/4 8/15/4 4/16/4
f 10/17/5 9/18/5 7/19/5
f 10/17/5 7/19/5 3/20/5
f 11/21/6 10/22/6 3/23/6
f 11/21/6 3/23/6 4/24/6
f 12/25/7 11/26/7 4/27/7
f 12/25/7 4/27/7 8/28/7
f 9/29/8 12/30/8 8/31/8
f 9/29/8 8/31/8 7/32/8
f 5/33/9 20/34/9 19/35/9
f 5/33/9 19/35/9 13/36/9
f 14/37/10 22/38/10 21/39/10
f 14/37/10 21/39/10 1/40/10
f 17/41/11 23/42/11 24/43/11
f 17/41/11 24/43/11 18/44/11
f 15/45/12 25/46/12 26/47/12
f 15/45/12 26/47/12 16/48/12
f 6/49/13 28/50/13 27/51/13
f 6/49/13 27/51/13 5/52/13
f 32/53/14 30/54/14 29/55/14
f 32/53/14 29/55/14 31/56/14
f 35/57/15 33/58/15 34/59/15
f 35/57/15 34/59/15 36/60/15
f 29/61/16 30/62/16 34/63/16
f 29/61/16 34/63/16 33/64/16
f 31/65/17 29/66/17 33/67/17
f 31/65/17 33/67/17 35/68/17
f 36/69/18 34/70/18 30/71/18
f 36/69/18 30/71/18 32/72/18
f 40/73/19 38/74/19 37/75/19
f 40/73/19 37/75/19 39/76/19
f 43/77/20 41/78/20 42/79/20
f 43/77/20 42/79/20 44/80/20
f 37/81/21 38/82/21 42/83/21
f 37/81/21 42/83/21 41/84/21
f 39/85/22 37/86/22 41/87/22
f 39/85/22 41/87/22 43/88/22
f 44/89/23 42/90/23 38/91/23
f 44/89/23 38/91/23 40/92/23
f 48/93/24 46/94/24 45/95/24
f 48/93/24 45/95/24 47/96/24
f 51/97/25 49/98/25 50/99/25
f 51/97/25 50/99/25 52/100/25
f 45/101/26 46/102/26 50/103/26
f 45/101/26 50/103/26 49/104/26
f 47/105/27 45/106/27 49/107/27
f 47/105/27 49/107/27 51/108/27
f 52/109/28 50/110/28 46/111/28
f 52/109/28 46/111/28 48/112/28
f 56/113/29 54/114/29 53/115/29
f 56/113/29 53/115/29 55/116/29
f 59/117/30 57/118/30 58/119/30
f 59/117/30 58/119/30 60/120/30
f 53/121/31 54/122/31 58/123/31
f 53/121/31 58/123/31 57/124/31
f 55/125/32 53/126/32 57/127/32
f 55/125/32 57/127/32 59/128/32
f 60/129/33 58/130/33 54/131/33
f 60/129/33 54/131/33 56/132/33
f 64/133/34 62/134/34 61/135/34
f 64/133/34 61/135/34 63/136/34
f 67/137/35 65/138/35 66/139/35
f 67/137/35 66/139/35 68/140/35
f 61/141/36 62/142/36 66/143/36
f 61/141/36 66/143/36 65/144/36
f 64/145/37 63/146/37 67/147/37
f 64/145/37 67/147/37 68/148/37
f 63/149/38 61/150/38 65/151/38
f 63/149/38 65/151/38 67/152/38
f 72/153/39 70/154/39 69/155/39
f 72/153/39 69/155/39 71/156/39
f 75/157/40 73/158/40 74/159/40
f 75/157/40 74/159/40 76/160/40
f 69/161/41 70/162/41 74/163/41
f 69/161/41 74/163/41 73/164/41
f 72/165/42 71/166/42 75/167/42
f 72/165/42 75/167/42 76/168/42
f 71/169/43 69/170/43 73/171/43
f 71/169/43 73/171/43 75/172/43
f 80/173/44 78/174/44 77/175/44
f 80/173/44 77/175/44 79/176/44
f 83/177/45 81/178/45 82/179/45
f 83/177/45 82/179/45 84/180/45
f 77/181/46 78/182/46 82/183/46
f 77/181/46 82/183/46 81/184/46
f 80/185/47 79/186/47 83/187/47
f 80/185/47 83/187/47 84/188/47
f 79/189/48 77/190/48 81/191/48
f 79/189/48 81/191/48 83/192/48
f 86/193/49 84/194/49 83/195/49
f 86/193/49 83/195/49 85/196/49
f 89/197/50 87/198/50 88/199/50
f 89/197/50 88/199/50 90/200/50
f 83/201/51 84/202/51 88/203/51
f 83/201/51 88/203/51 87/204/51
f 86/205/52 85/206/52 89/207/52
f 86/205/52 89/207/52 90/208/52
f 85/209/53 83/210/53 87/211/53
f 85/209/53 87/211/53 89/212/53
f 94/213/54 92/214/54 91/215/54
f 94/213/54 91/215/54 93/216/54
f 97/217/55 95/218/55 96/219/55
f 97/217/55 96/219/55 98/220/55
f 91/221/56 92/222/56 96/223/56
f 91/221/56 96/223/56 95/224/56
f 94/225/57 93/226/57 97/227/57
f 94/225/57 97/227/57 98/228/57
f 93/229/58 91/230/58 95/231/58
f 93/229/58 95/231/58 97/232/58
f 99/233/59 100/234/59 102/235/59
f 99/233/59 102/235/59 101/236/59
f 64/237/60 99/238/60 101/239/60
f 64/237/60 101/239/60 103/240/60
f 107/241/61 105/242/61 104/243/61
f 107/241/61 104/243/61 106/244/61
f 110/245/62 108/246/62 109/247/62
f 110/245/62 109/247/62 111/248/62
f 104/249/63 105/250/63 109/251/63
f 104/249/63 109/251/63 108/252/63
f 107/253/64 106/254/64 110/255/64
f 107/253/64 110/255/64 111/256/64
f 106/257/65 104/258/65 108/259/65
f 106/257/65 108/259/65 110/260/65
f 111/261/66 109/262/66 105/263/66
f 111/261/66 105/263/66 107/264/66
f 115/265/67 113/266/67 112/267/67
f 115/265/67 112/267/67 114/268/67
f 118/269/68 116/270/68 117/271/68
f 118/269/68 117/271/68 119/272/68
f 112/273/69 113/274/69 117/275/69
f 112/273/69 117/275/69 116/276/69
f 114/277/70 112/278/70 116/279/70
f 114/277/70 116/279/70 118/280/70
f 119/281/71 117/282/71 113/283/71
f 119/281/71 113/283/71 115/284/71
f 123/285/72 121/286/72 120/287/72
f 123/285/72 120/287/72 122/288/72
f 56/289/73 54/290/73 124/291/73
f 56/289/73 124/291/73 125/292/73
f 120/293/74 121/294/74 124/295/74
f 120/293/74 124/295/74 54/296/74
f 122/297/75 120/298/75 54/299/75
f 122/297/75 54/299/75 56/300/75
f 125/301/76 124/302/76 121/303/76
f 125/301/76 121/303/76 123/304/76
f 129/305/77 127/306/77 126/307/77
f 129/305/77 126/307/77 128/308/77
f 132/309/78 130/310/78 131/311/78
f 132/309/78 131/311/78 133/312/78
f 126/313/79 127/314/79 131/315/79
f 126/313/79 131/315/79 130/316/79
f 128/317/80 126/318/80 130/319/80
f 128/317/80 130/319/80 132/320/80
f 133/321/81 131/322/81 127/323/81
f 133/321/81 127/323/81 129/324/81
f 137/325/82 135/326/82 134/327/82
f 137/325/82 134/327/82 136/328/82
f 140/329/83 138/330/83 139/331/83
f 140/329/83 139/331/83 141/332/83
f 134/333/84 135/334/84 139/335/84
f 134/333/84 139/335/84 138/336/84
f 137/337/85 136/338/85 140/339/85
f 137/337/85 140/339/85 141/340/85
f 136/341/86 134/342/86 138/343/86
f 136/341/86 138/343/86 140/344/86
f 145/345/87 143/346/87 142/347/87
f 145/345/87 142/347/87 144/348/87
f 142/349/88 143/350/88 147/351/88
f 142/349/88 147/351/88 146/352/88
f 145/353/89 144/354/89 148/355/89
f 145/353/89 148/355/89 149/356/89
f 144/357/90 142/358/90 146/359/90
f 144/357/90 146/359/90 148/360/90
f 149/361/91 147/362/91 143/363/91
f 149/361/91 143/363/91 145/364/91
f 153/365/92 151/366/92 150/367/92
f 153/365/92 150/367/92 152/368/92
f 150/369/93 151/370/93 155/371/93
f 150/369/93 155/371/93 154/372/93
f 153/373/94 152/374/94 156/375/94
f 153/373/94 156/375/94 157/376/94
f 152/377/95 150/378/95 154/379/95
f 152/377/95 154/379/95 156/380/95
f 157/381/96 155/382/96 151/383/96
f 157/381/96 151/383/96 153/384/96
f 161/385/97 159/386/97 158/387/97
f 161/385/97 158/387/97 160/388/97
f 158/389/98 159/390/98 162/391/98
f 158/389/98 162/391/98 99/392/98
f 160/393/99 158/394/99 99/395/99
f 160/393/99 99/395/99 64/396/99
f 163/397/100 162/398/100 159/399/100
f 163/397/100 159/399/100 161/400/100
f 166/401/101 164/402/101 153/403/101
f 166/401/101 153/403/101 165/404/101
f 153/405/102 164/406/102 167/407/102
f 153/405/102 167/407/102 157/408/102
f 166/409/103 165/410/103 168/411/103
f 166/409/103 168/411/103 169/412/103
f 165/413/104 153/414/104 157/415/104
f 165/413/104 157/415/104 168/416/104
f 169/417/105 167/418/105 164/419/105
f 169/417/105 164/419/105 166/420/105
f 173/421/106 171/422/106 170/423/106
f 173/421/106 170/423/106 172/424/106
f 164/425/107 174/426/107 175/427/107
f 164/425/107 175/427/107 167/428/107
f 170/429/108 171/430/108 175/431/108
f 170/429/108 175/431/108 174/432/108
f 173/433/109 172/434/109 164/435/109
f 173/433/109 164/435/109 167/436/109
f 172/437/110 170/438/110 174/439/110
f 172/437/110 174/439/110 164/440/110
f 179/441/111 177/442/111 176/443/111
f 179/441/111 176/443/111 178/444/111
f 182/445/112 180/446/112 181/447/112
f 182/445/112 181/447/112 183/448/112
f 176/449/113 177/450/113 181/451/113
f 176/449/113 181/451/113 180/452/113
f 179/453/114 178/454/114 182/455/114
f 179/453/114 182/455/114 183/456/114
f 178/457/115 176/458/115 180/459/115
f 178/457/115 180/459/115 182/460/115
f 186/461/116 184/462/116 162/463/116
f 186/461/116 162/463/116 185/464/116
f 189/465/117 187/466/117 188/467/117
f 189/465/117 188/467/117 190/468/117
f 162/469/118 184/470/118 188/471/118
f 162/469/118 188/471/118 187/472/118
f 186/473/119 185/474/119 189/475/119
f 186/473/119 189/475/119 190/476/119
f 190/477/120 188/478/120 184/479/120
f 190/477/120 184/479/120 186/480/120
f 193/481/121 192/482/121 191/483/121
f 193/481/121 191/483/121 163/484/121
f 196/485/122 194/486/122 195/487/122
f 196/485/122 195/487/122 197/488/122
f 191/489/123 192/490/123 195/491/123
f 191/489/123 195/491/123 194/492/123
f 193/493/124 163/494/124 196/495/124
f 193/493/124 196/495/124 197/496/124
f 197/497/125 195/498/125 192/499/125
f 197/497/125 192/499/125 193/500/125
f 201/501/126 199/502/126 198/503/126
f 201/501/126 198/503/126 200/504/126
f 204/505/127 202/506/127 203/507/127
f 204/505/127 203/507/127 205/508/127
f 198/509/128 199/510/128 203/511/128
f 198/509/128 203/511/128 202/512/128
f 201/513/129 200/514/129 204/515/129
f 201/513/129 204/515/129 205/516/129
f 205/517/130 203/518/130 199/519/130
f 205/517/130 199/519/130 201/520/130
f 209/521/131 207/522/131 206/523/131
f 209/521/131 206/523/131 208/524/131
f 212/525/132 210/526/132 211/527/132
f 212/525/132 211/527/132 213/528/132
f 206/529/133 207/530/133 211/531/133
f 206/529/133 211/531/133 210/532/133
f 209/533/134 208/534/134 212/535/134
f 209/533/134 212/535/134 213/536/134
f 213/537/135 211/538/135 207/539/135
f 213/537/135 207/539/135 209/540/135
f 217/541/136 215/542/136 214/543/136
f 217/541/136 214/543/136 216/544/136
f 220/545/137 218/546/137 219/547/137
f 220/545/137 219/547/137 221/548/137
f 214/549/138 215/550/138 219/551/138
f 214/549/138 219/551/138 218/552/138
f 217/553/139 216/554/139 220/555/139
f 217/553/139 220/555/139 221/556/139
f 221/557/140 219/558/140 215/559/140
f 221/557/140 215/559/140 217/560/140
f 225/561/141 223/562/141 222/563/141
f 225/561/141 222/563/141 224/564/141
f 228/565/142 226/566/142 227/567/142
f 228/565/142 227/567/142 229/568/142
f 222/569/143 223/570/143 227/571/143
f 222/569/143 227/571/143 226/572/143
f 225/573/144 224/574/144 228/575/144
f 225/573/144 228/575/144 229/576/144
f 229/577/145 227/578/145 223/579/145
f 229/577/145 223/579/145 225/580/145
f 230/581/146 162/582/146 232/583/146
f 230/581/146 232/583/146 231/584/146
f 233/585/147 232/586/147 162/587/147
f 233/585/147 162/587/147 163/588/147
f 235/589/148 221/590/148 220/591/148
f 235/589/148 220/591/148 234/592/148
f 238/593/149 236/594/149 237/595/149
f 238/593/149 237/595/149 239/596/149
f 220/597/150 221/598/150 237/599/150
f 220/597/150 237/599/150 236/600/150
f 235/601/151 234/602/151 238/603/151
f 235/601/151 238/603/151 239/604/151
f 239/605/152 237/606/152 221/607/152
f 239/605/152 221/607/152 235/608/152
f 246/609/153 244/610/153 245/611/153
f 246/609/153 245/611/153 247/612/153
f 240/613/154 241/614/154 245/615/154
f 240/613/154 245/615/154 244/616/154
f 243/617/155 242/618/155 246/619/155
f 243/617/155 246/619/155 247/620/155
f 242/621/156 240/622/156 244/623/156
f 242/621/156 244/623/156 246/624/156
f 247/625/157 245/626/157 241/627/157
f 247/625/157 241/627/157 243/628/157
f 254/629/158 252/630/158 253/631/158
f 254/629/158 253/631/158 255/632/158
f 248/633/159 249/634/159 253/635/159
f 248/633/159 253/635/159 252/636/159
f 251/637/160 250/638/160 254/639/160
f 251/637/160 254/639/160 255/640/160
f 250/641/161 248/642/161 252/643/161
f 250/641/161 252/643/161 254/644/161
f 255/645/162 253/646/162 249/647/162
f 255/645/162 249/647/162 251/648/162
f 259/649/163 257/650/163 256/651/163
f 259/649/163 256/651/163 258/652/163
f 262/653/164 260/654/164 261/655/164
f 262/653/164 261/655/164 263/656/164
f 256/657/165 257/658/165 261/659/165
f 256/657/165 261/659/165 260/660/165
f 259/661/166 258/662/166 262/663/166
f 259/661/166 262/663/166 263/664/166
f 263/665/167 261/666/167 257/667/167
f 263/665/167 257/667/167 259/668/167
f 270/669/168 268/670/168 269/671/168
f 270/669/168 269/671/168 271/672/168
f 264/673/169 265/674/169 269/675/169
f 264/673/169 269/675/169 268/676/169
f 267/677/170 266/678/170 270/679/170
f 267/677/170 270/679/170 271/680/170
f 266/681/171 264/682/171 268/683/171
f 266/681/171 268/683/171 270/684/171
f 271/685/172 269/686/172 265/687/172
f 271/685/172 265/687/172 267/688/172
f 277/689/173 275/690/173 276/691/173
f 277/689/173 276/691/173 278/692/173
f 272/693/174 228/694/174 276/695/174
f 272/693/174 276/695/174 275/696/174
f 274/697/175 273/698/175 277/699/175
f 274/697/175 277/699/175 278/700/175
f 273/701/176 272/702/176 275/703/176
f 273/701/176 275/703/176 277/704/176
f 278/705/177 276/706/177 228/707/177
f 278/705/177 228/707/177 274/708/177
f 280/709/178 279/710/178 226/711/178
f 280/709/178 226/711/178 281/712/178
f 101/713/179 232/714/179 226/715/179
f 101/713/179 226/715/179 279/716/179
f 103/717/180 101/718/180 279/719/180
f 103/717/180 279/719/180 280/720/180
f 281/721/181 226/722/181 232/723/181
f 281/721/181 232/723/181 233/724/181
f 285/725/182 283/726/182 282/727/182
f 285/725/182 282/727/182 284/728/182
f 288/729/183 286/730/183 287/731/183
f 288/729/183 287/731/183 289/732/183
f 282/733/184 283/734/184 287/735/184
f 282/733/184 287/735/184 286/736/184
f 284/737/185 282/738/185 286/739/185
f 284/737/185 286/739/185 288/740/185
f 289/741/186 287/742/186 283/743/186
f 289/741/186 283/743/186 285/744/186
f 294/745/187 290/746/187 292/747/187
f 294/745/187 292/747/187 295/748/187
f 296/749/188 293/750/188 291/751/188
f 296/749/188 291/751/188 297/752/188
f 292/753/189 290/754/189 291/755/189
f 292/753/189 291/755/189 293/756/189
f 295/757/190 292/758/190 293/759/190
f 295/757/190 293/759/190 296/760/190
f 297/761/191 291/762/191 290/763/191
f 297/761/191 290/763/191 294/764/191
f 302/765/192 298/766/192 300/767/192
f 302/765/192 300/767/192 303/768/192
f 304/769/193 301/770/193 299/771/193
f 304/769/193 299/771/193 305/772/193
f 300/773/194 298/774/194 299/775/194
f 300/773/194 299/775/194 301/776/194
f 303/777/195 300/778/195 301/779/195
f 303/777/195 301/779/195 304/780/195
f 305/781/196 299/782/196 298/783/196
f 305/781/196 298/783/196 302/784/196