# Made by Pabilo8 with Blockbench
# Exported with IIToolkit Plugin
mtllib emplacement.mtl


o variant_bricks
v 2 -3 3
v 2 -3 0
v 2 -0.125 3
v 2 -0.125 0
v -1 -3 3
v -1 -3 0
v -1 -0.125 3
v -1 -0.125 0
v -0.7450000000000001 -0.125 2.745
v 1.745 -0.125 2.745
v 1.745 -0.125 0.2549999999999999
v -0.7450000000000001 -0.125 0.2549999999999999
v 0 -3 3
v 1 -3 3
v 1 -3 0
v 0 -3 0
v 2 -3 2
v 2 -3 1
v 0 -3.5 2.9375
v -1 -3.5 2.9375
v 2 -3.5 2.9375
v 1 -3.5 2.9375
v 1.9375 -3.5 2
v 1.9375 -3.5 1
v 1 -3.5 0.0625
v 0 -3.5 0.0625
v -0.9375 -3.5 3
v -0.9375 -3.5 0
v -0.65799125 1.125 2.7255281250000003
v -0.8125 1.125 2.25
v -0.65799125 0.875 2.7255281250000003
v -0.8125 0.875 2.25
v -0.895755625 1.125 2.8027825
v -1.050264375 1.125 2.327254375
v -0.895755625 0.875 2.8027825
v -1.050264375 0.875 2.327254375
v -0.75 1.125 1.875
v -0.75 1.125 0.875
v -0.75 0.875 1.875
v -0.75 0.875 0.875
v -1 1.125 1.875
v -1 1.125 0.875
v -1 0.875 1.875
v -1 0.875 0.875
v -0.81958625 1.125 0.87013375
v -0.75 1.125 0.375
v -0.81958625 0.875 0.87013375
v -0.75 0.875 0.375
v -1.06715375 1.125 0.835340625
v -0.997566875 1.125 0.340206875
v -1.06715375 0.875 0.835340625
v -0.997566875 0.875 0.340206875
v 1.7804675 1.125 2.93563625
v 1.75 1.125 2.6875
v 1.7804675 0.875 2.93563625
v 1.75 0.875 2.6875
v 1.284194375 1.125 2.9965712499999997
v 1.253726875 1.125 2.748434375
v 1.284194375 0.875 2.9965712499999997
v 1.253726875 0.875 2.748434375
v 1.75 0.875 3
v 1.75 0.875 2.75
v -0.75 0.875 3
v -0.75 0.875 2.75
v -0.27178875 1.125 3.06154875
v -0.25 1.125 2.8125
v -0.27178875 0.875 3.06154875
v -0.25 0.875 2.8125
v -0.7698862500000001 1.125 3.0179706250000002
v -0.7480975000000001 1.125 2.768921875
v -0.7698862500000001 0.875 3.0179706250000002
v -0.7480975000000001 0.875 2.768921875
v 2 1.125 2.6875
v 2 1.125 1.6875
v 2 0.875 2.6875
v 2 0.875 1.6875
v 1.75 1.125 1.6875
v 1.75 0.875 1.6875
v 2.034878125 1.125 1.248781875
v 2 1.125 0.75
v 2.034878125 0.875 1.248781875
v 2 0.875 0.75
v 1.7854875 1.125 1.26622125
v 1.75060875 1.125 0.767439375
v 1.7854875 0.875 1.26622125
v 1.75060875 0.875 0.767439375
v 2 0.875 3
v 2 0.875 0
v 1.75 0.875 0
v -1 0.875 0
v 1.75 0.875 0.25
v -0.75 0.875 0.25
v -0.75 0.875 0
v -1 0.875 3
v -0.20928875000000002 1.125 0.24904875000000004
v -0.1875 1.125 0
v -0.20928875000000002 0.875 0.24904875000000004
v -0.1875 0.875 0
v -0.5206 1.125 0.22181249999999997
v -0.49881062499999995 1.125 -0.027236250000000073
v -0.5206 0.875 0.22181249999999997
v -0.49881062499999995 0.875 -0.027236250000000073
v 1.78770875 1.125 0.62132875
v 2.0335225 1.125 0.575769375
v 1.69659125 1.125 0.1297012500000001
v 1.942405 1.125 0.08414250000000001
v 1.78770875 0.875 0.62132875
v 1.69659125 0.875 0.1297012500000001
v 1.942405 0.875 0.08414250000000001
v 2.0335225 0.875 0.575769375
v 1.1984287500000002 1.125 0.19162687500000009
v 1.69652625 1.125 0.2352043749999999
v 1.2202181250000002 1.125 -0.057421874999999956
v 1.718315 1.125 -0.013844374999999909
v 1.1984287500000002 0.875 0.19162687500000009
v 1.2202181250000002 0.875 -0.057421874999999956
v 1.718315 0.875 -0.013844374999999909
v 1.69652625 0.875 0.2352043749999999
v 1.75 -0.125 3
v -0.75 -0.125 3
v 1.75 -0.125 0
v -0.75 -0.125 0
v 1.9375 0.25 3.0625
v 1.9375 0.25 3
v 1.9375 0 3.0625
v 1.9375 0 3
v 1.4375 0.25 3.0625
v 1.4375 0.25 3
v 1.4375 0 3.0625
v 1.4375 0 3
v 1.75 0.125 0
v 1.75 0.125 -0.0625
v 1.75 -0.125 -0.0625
v 1.25 0.125 0
v 1.25 0.125 -0.0625
v 1.25 -0.125 0
v 1.25 -0.125 -0.0625
v -1 0.625 0
v -1 0.625 0.5
v -1 0.375 0.5
v -1 0.375 0
v -1.0625 0.625 0.5
v -1.0625 0.625 0
v -1.0625 0.375 0.5
v -1.0625 0.375 0
v -0.5 0.875 0
v -0.5 0.875 -0.0625
v -0.5 0.625 0
v -0.5 0.625 -0.0625
v -1 0.875 -0.0625
v -1 0.625 -0.0625
v 0.5 0.8687499999999999 3.0625
v 0.5 0.8687499999999999 3
v 0.5 0.6187499999999999 3.0625
v 0.5 0.6187499999999999 3
v -0.5 0.8687499999999999 3.0625
v -0.5 0.8687499999999999 3
v -0.5 0.6187499999999999 3.0625
v -0.5 0.6187499999999999 3
v -1 0.625 2.75
v -1 0.625 2.25
v -1 0.375 2.75
v -1 0.375 2.25
v -1.0625 0.625 2.75
v -1.0625 0.625 2.25
v -1.0625 0.375 2.75
v -1.0625 0.375 2.25
v 1.5 0.5625 3.0625
v 1.5 0.5625 3
v 1.5 0.3125 3.0625
v 1.5 0.3125 3
v 0.5 0.5625 3.0625
v 0.5 0.5625 3
v 0.5 0.3125 3.0625
v 0.5 0.3125 3
v 0.9375 0.25 3.0625
v 0.9375 0.25 3
v 0.9375 0 3.0625
v 0.9375 0 3
v -0.0625 0.25 3.0625
v -0.0625 0.25 3
v -0.0625 0 3.0625
v -0.0625 0 3
v -0.0625 -0.25 3.0625
v -0.0625 -0.25 3
v -0.5625 0 3.0625
v -0.5625 0 3
v -0.5625 -0.25 3.0625
v -0.5625 -0.25 3
v -0.5 0.5625 3.0625
v -0.5 0.5625 3
v -0.5 0.3125 3.0625
v -0.5 0.3125 3
v -1 0.5625 3.0625
v -1 0.5625 3
v -1 0.3125 3.0625
v -1 0.3125 3
v -1 0.125 2.375
v -1 0.125 1.875
v -1 -0.125 2.375
v -1 -0.125 1.875
v -1.0625 0.125 2.375
v -1.0625 0.125 1.875
v -1.0625 -0.125 2.375
v -1.0625 -0.125 1.875
v -1 0.625 0.875
v -1.0625 0.625 0.875
v -1 0.375 0.875
v -1.0625 0.375 0.875
v -1 0.625 1.875
v -1.0625 0.625 1.875
v -1 0.375 1.875
v -1.0625 0.375 1.875
v -0.98255 0.375 1.124695625
v -1 0.375 0.625
v -0.98255 0.125 1.124695625
v -1 0.125 0.625
v -1.045011875 0.375 1.126876875
v -1.062461875 0.375 0.62718125
v -1.045011875 0.125 1.126876875
v -1.062461875 0.125 0.62718125
v 2.0625 0.125 0.5
v 2 0.125 0.5
v 2.0625 -0.125 0.5
v 2 -0.125 0.5
v 2.0625 0.125 1.5
v 2 0.125 1.5
v 2.0625 -0.125 1.5
v 2 -0.125 1.5
v 2.0625 0.875 2.5
v 2.0625 0.875 2
v 2.0625 0.625 2.5
v 2.0625 0.625 2
v 2 0.875 2.5
v 2 0.875 2
v 2 0.625 2.5
v 2 0.625 2
v 2.0625 0.375 3
v 2.0625 0.375 2.5
v 2.0625 0.125 3
v 2.0625 0.125 2.5
v 2 0.375 3
v 2 0.375 2.5
v 2 0.125 3
v 2 0.125 2.5
v 2.0625 0.125 2
v 2.0625 -0.125 2.5
v 2.0625 -0.125 2
v 2 0.125 2
v 2 -0.125 2.5
v 2 -0.125 2
v 2.0625 0.375 1
v 2 0.375 1
v 2.0625 0.125 1
v 2 0.125 1
v 2.0625 0.375 2
v 2 0.375 2
v 2.0625 0.625 0.5
v 2 0.625 0.5
v 2.0625 0.375 0.5
v 2 0.375 0.5
v 2.0625 0.625 1.5
v 2 0.625 1.5
v 2.0625 0.375 1.5
v 2 0.375 1.5
v 0.6875 0.125 0
v 0.6875 0.125 -0.0625
v 0.6875 -0.125 0
v 0.6875 -0.125 -0.0625
v 0.1875 0.125 0
v 0.1875 0.125 -0.0625
v 0.1875 -0.125 0
v 0.1875 -0.125 -0.0625
v 1.4375 0.375 0
v 1.4375 0.375 -0.0625
v 1.4375 0.125 0
v 1.4375 0.125 -0.0625
v 0.4375 0.375 0
v 0.4375 0.375 -0.0625
v 0.4375 0.125 0
v 0.4375 0.125 -0.0625
v 0.75 0.625 0
v 0.75 0.625 -0.0625
v 0.75 0.375 0
v 0.75 0.375 -0.0625
v -0.25 0.625 0
v -0.25 0.625 -0.0625
v -0.25 0.375 0
v -0.25 0.375 -0.0625
v -0.25 0.125 0
v -0.25 0.125 -0.0625
v -0.75 0.375 0
v -0.75 0.375 -0.0625
v -0.75 0.125 0
v -0.75 0.125 -0.0625
v 1.75 0.875 -0.0625
v 1.75 0.625 0
v 1.75 0.625 -0.0625
v 1.25 0.875 0
v 1.25 0.875 -0.0625
v 1.25 0.625 0
v 1.25 0.625 -0.0625
vt 0 0
vt 0.75 0
vt 0.75 0.71875
vt 0 0.71875
vt 0 0
vt 0.75 0
vt 0.75 0.71875
vt 0 0.71875
vt 0 0
vt 0.75 0
vt 0.75 0.71875
vt 0 0.71875
vt 0 0
vt 0.75 0
vt 0.75 0.71875
vt 0 0.71875
vt 0.68625 0.75
vt 0.06375 0.75
vt 0 0.68625
vt 0.75 0.68625
vt 0.06375 0.68625
vt 0.68625 0.68625
vt 0.75 0.75
vt 0 0.75
vt 0.06375 0.68625
vt 0.68625 0.68625
vt 0.75 0.75
vt 0 0.75
vt 0.68625 0.75
vt 0.06375 0.75
vt 0 0.68625
vt 0.75 0.68625
vt 0 0
vt 0 0.125
vt 0.25 0.125
vt 0.25 0
vt 0 0
vt 0 0.125
vt 0.25 0.125
vt 0.25 0
vt 0.25 0
vt 0.25 0.125
vt 0 0.125
vt 0 0
vt 0.25 0
vt 0.25 0.125
vt 0 0.125
vt 0 0
vt 0 0
vt 0 0.125
vt 0.75 0.125
vt 0.75 0
vt 0.875 0.671875
vt 0.8125 0.671875
vt 0.8125 0.546875
vt 0.875 0.546875
vt 0.875 0.75
vt 0.8125 0.75
vt 0.8125 0.625
vt 0.875 0.625
vt 0.875 0.40625
vt 0.875 0.28125
vt 0.9375 0.28125
vt 0.9375 0.40625
vt 1 0.671875
vt 0.9375 0.671875
vt 0.9375 0.609375
vt 1 0.609375
vt 0.9375 0.34375
vt 0.875 0.34375
vt 0.875 0.28125
vt 0.9375 0.28125
vt 0.875 0.875
vt 0.8125 0.875
vt 0.8125 0.625
vt 0.875 0.625
vt 0.875 0.84375
vt 0.8125 0.84375
vt 0.8125 0.59375
vt 0.875 0.59375
vt 0.8125 0.859375
vt 0.8125 0.609375
vt 0.875 0.609375
vt 0.875 0.859375
vt 0.875 0.8125
vt 0.8125 0.8125
vt 0.8125 0.75
vt 0.875 0.75
vt 0.875 0.34375
vt 0.8125 0.34375
vt 0.8125 0.28125
vt 0.875 0.28125
vt 0.875 0.78125
vt 0.8125 0.78125
vt 0.8125 0.65625
vt 0.875 0.65625
vt 1 0.703125
vt 0.9375 0.703125
vt 0.9375 0.578125
vt 1 0.578125
vt 0.8125 0.78125
vt 0.8125 0.65625
vt 0.875 0.65625
vt 0.875 0.78125
vt 1 0.734375
vt 0.9375 0.734375
vt 0.9375 0.671875
vt 1 0.671875
vt 0.875 0.65625
vt 0.8125 0.65625
vt 0.8125 0.59375
vt 0.875 0.59375
vt 1 0.703125
vt 0.9375 0.703125
vt 0.9375 0.640625
vt 1 0.640625
vt 1 0.796875
vt 0.9375 0.796875
vt 0.9375 0.734375
vt 1 0.734375
vt 1 0.8125
vt 0.9375 0.8125
vt 0.9375 0.6875
vt 1 0.6875
vt 1 0.765625
vt 0.9375 0.765625
vt 0.9375 0.640625
vt 1 0.640625
vt 0.875 0.6875
vt 0.8125 0.6875
vt 0.8125 0.5625
vt 0.875 0.5625
vt 0.640625 0.828125
vt 0.640625 0.890625
vt 0.015625 0.890625
vt 0.015625 0.828125
vt 1 0.71875
vt 0.9375 0.71875
vt 0.9375 0.65625
vt 1 0.65625
vt 1 0.671875
vt 0.9375 0.671875
vt 0.9375 0.609375
vt 1 0.609375
vt 1 0.625
vt 0.9375 0.625
vt 0.9375 0.5
vt 1 0.5
vt 1 0.703125
vt 0.9375 0.703125
vt 0.9375 0.578125
vt 1 0.578125
vt 0.875 0.703125
vt 0.8125 0.703125
vt 0.8125 0.578125
vt 0.875 0.578125
vt 0.875 0.828125
vt 0.8125 0.828125
vt 0.8125 0.578125
vt 0.875 0.578125
vt 0.875 0.8125
vt 0.8125 0.8125
vt 0.8125 0.5625
vt 0.875 0.5625
vt 0.875 0.59375
vt 0.875 0.84375
vt 0.8125 0.84375
vt 0.8125 0.59375
vt 0.875 0.703125
vt 0.8125 0.703125
vt 0.8125 0.640625
vt 0.875 0.640625
vt 0.875 0.78125
vt 0.8125 0.78125
vt 0.8125 0.71875
vt 0.875 0.71875
vt 0.875 0.765625
vt 0.8125 0.765625
vt 0.8125 0.640625
vt 0.875 0.640625
vt 0.875 0.6875
vt 0.8125 0.6875
vt 0.8125 0.5625
vt 0.875 0.5625
vt 0.875 0.625
vt 0.875 0.75
vt 0.8125 0.75
vt 0.8125 0.625
vt 0.875 0.578125
vt 0.8125 0.578125
vt 0.8125 0.515625
vt 0.875 0.515625
vt 0.9375 0.421875
vt 0.875 0.421875
vt 0.875 0.359375
vt 0.9375 0.359375
vt 0.75 1
vt 0 1
vt 0 0.9375
vt 0.75 0.9375
vt 0.6875 0.8125
vt 0.6875 0.875
vt 0.0625 0.875
vt 0.0625 0.8125
vt 0.75 0.9375
vt 0 0.9375
vt 0 0.875
vt 0.75 0.875
vt 1 0.796875
vt 0.9375 0.796875
vt 0.9375 0.734375
vt 1 0.734375
vt 1 0.8125
vt 0.9375 0.8125
vt 0.9375 0.75
vt 1 0.75
vt 1 0.734375
vt 0.9375 0.734375
vt 0.9375 0.65625
vt 1 0.65625
vt 1 0.796875
vt 0.9375 0.796875
vt 0.9375 0.71875
vt 1 0.71875
vt 1 0.796875
vt 0.9375 0.796875
vt 0.9375 0.71875
vt 1 0.71875
vt 0.875 0.671875
vt 0.8125 0.671875
vt 0.8125 0.546875
vt 0.875 0.546875
vt 0.875 0.75
vt 0.8125 0.75
vt 0.8125 0.625
vt 0.875 0.625
vt 0.875 0.40625
vt 0.875 0.28125
vt 0.9375 0.28125
vt 0.9375 0.40625
vt 1 0.671875
vt 0.9375 0.671875
vt 0.9375 0.609375
vt 1 0.609375
vt 0.9375 0.34375
vt 0.875 0.34375
vt 0.875 0.28125
vt 0.9375 0.28125
vt 0.8125 0.5
vt 0.875 0.5
vt 0.875 0.5625
vt 0.8125 0.5625
vt 0.8125 0.546875
vt 0.875 0.546875
vt 0.875 0.609375
vt 0.8125 0.609375
vt 0.8125 0.59375
vt 0.875 0.59375
vt 0.875 0.71875
vt 0.8125 0.71875
vt 0.8125 0.515625
vt 0.875 0.515625
vt 0.875 0.640625
vt 0.8125 0.640625
vt 0.9375 0.515625
vt 1 0.515625
vt 1 0.640625
vt 0.9375 0.640625
vt 0.6875 0.75
vt 0.6875 1
vt 0.0625 1
vt 0.0625 0.75
vt 0.75 0.75
vt 0.75 1
vt 0 1
vt 0 0.75
vt 0.75 0.75
vt 0.75 1
vt 0.6875 1
vt 0.6875 0.75
vt 0.0625 0.75
vt 0.0625 1
vt 0 1
vt 0 0.75
vt 0.6875 0.75
vt 0.6875 1
vt 0.0625 1
vt 0.0625 0.75
vt 0.75 0.75
vt 0.75 1
vt 0 1
vt 0 0.75
vt 0.0625 0.75
vt 0.0625 1
vt 0 1
vt 0 0.75
vt 0.75 0.75
vt 0.75 1
vt 0.6875 1
vt 0.6875 0.75
vt 0.796875 0.65625
vt 0.859375 0.65625
vt 0.859375 0.671875
vt 0.796875 0.671875
vt 0.828125 0.6875
vt 0.890625 0.6875
vt 0.890625 0.703125
vt 0.828125 0.703125
vt 0.875 0.609375
vt 0.890625 0.609375
vt 0.890625 0.734375
vt 0.875 0.734375
vt 0.859375 0.59375
vt 0.875 0.59375
vt 0.875 0.71875
vt 0.859375 0.71875
vt 0.8125 0.296875
vt 0.875 0.296875
vt 0.875 0.421875
vt 0.8125 0.421875
vt 0.75 0.546875
vt 0.78125 0.546875
vt 0.78125 0.5625
vt 0.75 0.5625
vt 0.75 0.5
vt 0.78125 0.5
vt 0.78125 0.515625
vt 0.75 0.515625
vt 0.765625 0.484375
vt 0.78125 0.484375
vt 0.78125 0.546875
vt 0.765625 0.546875
vt 0.765625 0.515625
vt 0.78125 0.515625
vt 0.78125 0.578125
vt 0.765625 0.578125
vt 0.75 0.65625
vt 0.8125 0.65625
vt 0.8125 0.78125
vt 0.75 0.78125
vt 0.8125 0.59375
vt 0.875 0.59375
vt 0.875 0.71875
vt 0.8125 0.71875
vt 0.828125 0.65625
vt 0.875 0.65625
vt 0.875 0.671875
vt 0.828125 0.671875
vt 0.8125 0.625
vt 0.875 0.625
vt 0.875 0.640625
vt 0.8125 0.640625
vt 0.796875 0.5625
vt 0.859375 0.5625
vt 0.859375 0.578125
vt 0.796875 0.578125
vt 0.8125 0.65625
vt 0.875 0.65625
vt 0.875 0.671875
vt 0.8125 0.671875
vt 0.78125 0.546875
vt 0.8125 0.546875
vt 0.8125 0.5625
vt 0.78125 0.5625
vt 0.78125 0.578125
vt 0.8125 0.578125
vt 0.8125 0.5625
vt 0.78125 0.5625
vt 0.8125 0.515625
vt 0.796875 0.515625
vt 0.796875 0.578125
vt 0.8125 0.578125
vt 0.78125 0.515625
vt 0.796875 0.515625
vt 0.796875 0.578125
vt 0.78125 0.578125
vt 0.8125 0.4375
vt 0.875 0.4375
vt 0.875 0.5625
vt 0.8125 0.5625
vt 0.8125 0.546875
vt 0.84375 0.546875
vt 0.84375 0.5625
vt 0.8125 0.5625
vt 0.8125 0.65625
vt 0.84375 0.65625
vt 0.84375 0.65625
vt 0.8125 0.65625
vt 0.828125 0.546875
vt 0.84375 0.546875
vt 0.84375 0.65625
vt 0.828125 0.65625
vt 0.8125 0.546875
vt 0.828125 0.546875
vt 0.828125 0.65625
vt 0.8125 0.65625
vt 0.8125 0.46875
vt 0.875 0.46875
vt 0.875 0.71875
vt 0.8125 0.71875
vt 0.9375 0.5
vt 1 0.5
vt 1 0.25
vt 0.9375 0.25
vt 0.75 0.671875
vt 0.8125 0.671875
vt 0.8125 0.796875
vt 0.75 0.796875
vt 0.796875 0.734375
vt 0.796875 0.6875
vt 0.8125 0.6875
vt 0.8125 0.734375
vt 0.796875 0.734375
vt 0.796875 0.6875
vt 0.8125 0.6875
vt 0.8125 0.734375
vt 0.78125 0.6875
vt 0.8125 0.6875
vt 0.8125 0.703125
vt 0.78125 0.703125
vt 0.796875 0.734375
vt 0.796875 0.671875
vt 0.8125 0.671875
vt 0.8125 0.734375
vt 0.84375 0.6875
vt 0.90625 0.6875
vt 0.90625 0.703125
vt 0.84375 0.703125
vt 0.859375 0.671875
vt 0.921875 0.671875
vt 0.921875 0.6875
vt 0.859375 0.6875
vt 0.84375 0.40625
vt 0.859375 0.40625
vt 0.859375 0.65625
vt 0.84375 0.65625
vt 0.859375 0.40625
vt 0.875 0.40625
vt 0.875 0.65625
vt 0.859375 0.65625
vt 0.8125 0.53125
vt 0.875 0.53125
vt 0.875 0.78125
vt 0.8125 0.78125
vt 0.828125 0.65625
vt 0.859375 0.65625
vt 0.859375 0.671875
vt 0.828125 0.671875
vt 0.828125 0.6875
vt 0.859375 0.6875
vt 0.859375 0.703125
vt 0.828125 0.703125
vt 0.859375 0.65625
vt 0.875 0.65625
vt 0.875 0.75
vt 0.859375 0.75
vt 0.84375 0.65625
vt 0.859375 0.65625
vt 0.859375 0.75
vt 0.84375 0.75
vt 0.8125 0.515625
vt 0.875 0.515625
vt 0.875 0.765625
vt 0.8125 0.765625
vt 0.796875 0.703125
vt 0.796875 0.75
vt 0.78125 0.75
vt 0.78125 0.703125
vt 0.78125 0.75
vt 0.8125 0.75
vt 0.8125 0.765625
vt 0.78125 0.765625
vt 0.796875 0.703125
vt 0.8125 0.703125
vt 0.8125 0.75
vt 0.796875 0.75
vt 0.796875 0.703125
vt 0.8125 0.703125
vt 0.8125 0.765625
vt 0.796875 0.765625
vt 0.75 0.65625
vt 0.8125 0.65625
vt 0.8125 0.78125
vt 0.75 0.78125
vt 0.84375 0.5625
vt 0.84375 0.515625
vt 0.859375 0.515625
vt 0.859375 0.5625
vt 0.828125 0.5625
vt 0.859375 0.5625
vt 0.859375 0.578125
vt 0.828125 0.578125
vt 0.875 0.515625
vt 0.859375 0.515625
vt 0.859375 0.59375
vt 0.875 0.59375
vt 0.84375 0.515625
vt 0.859375 0.515625
vt 0.859375 0.59375
vt 0.84375 0.59375
vt 0.8125 0.484375
vt 0.875 0.484375
vt 0.875 0.609375
vt 0.8125 0.609375
vt 0.875 0.875
vt 0.9375 0.875
vt 0.9375 1
vt 0.875 1
vt 0.828125 0.5625
vt 0.828125 0.625
vt 0.84375 0.625
vt 0.84375 0.5625
vt 0.84375 0.578125
vt 0.84375 0.625
vt 0.828125 0.625
vt 0.828125 0.578125
vt 0.8125 0.625
vt 0.84375 0.625
vt 0.84375 0.609375
vt 0.8125 0.609375
vt 0.8125 0.609375
vt 0.84375 0.609375
vt 0.84375 0.59375
vt 0.8125 0.59375
vt 0.765625 0.5
vt 0.8125 0.5
vt 0.8125 0.515625
vt 0.765625 0.515625
vt 0.765625 0.5
vt 0.796875 0.5
vt 0.796875 0.515625
vt 0.765625 0.515625
vt 0.796875 0.5
vt 0.8125 0.5
vt 0.8125 0.625
vt 0.796875 0.625
vt 0.78125 0.5
vt 0.796875 0.5
vt 0.796875 0.625
vt 0.78125 0.625
vt 0.875 0.4375
vt 0.9375 0.4375
vt 0.9375 0.6875
vt 0.875 0.6875
vt 0.8125 0.46875
vt 0.875 0.46875
vt 0.875 0.59375
vt 0.8125 0.59375
vt 0.796875 0.5
vt 0.828125 0.5
vt 0.828125 0.53125
vt 0.796875 0.53125
vt 0.796875 0.4375
vt 0.859375 0.4375
vt 0.859375 0.453125
vt 0.796875 0.453125
vt 0.8125 0.59375
vt 0.875 0.59375
vt 0.875 0.609375
vt 0.8125 0.609375
vt 0.78125 0.546875
vt 0.84375 0.546875
vt 0.84375 0.5625
vt 0.78125 0.5625
vt 0.8125 0.515625
vt 0.875 0.515625
vt 0.875 0.53125
vt 0.8125 0.53125
vt 0.875 0.6875
vt 0.9375 0.6875
vt 0.9375 0.703125
vt 0.875 0.703125
vt 0.90625 0.515625
vt 0.921875 0.515625
vt 0.921875 0.765625
vt 0.90625 0.765625
vt 0.890625 0.515625
vt 0.90625 0.515625
vt 0.90625 0.765625
vt 0.890625 0.765625
vt 0.75 0.4375
vt 0.8125 0.4375
vt 0.8125 0.6875
vt 0.75 0.6875
vt 0.9375 0.734375
vt 1 0.734375
vt 1 0.859375
vt 0.9375 0.859375
vt 0.765625 0.53125
vt 0.890625 0.53125
vt 0.890625 0.546875
vt 0.765625 0.546875
vt 0.765625 0.546875
vt 0.890625 0.546875
vt 0.890625 0.5625
vt 0.765625 0.5625
vt 0.796875 0.453125
vt 0.859375 0.453125
vt 0.859375 0.46875
vt 0.796875 0.46875
vt 0.796875 0.609375
vt 0.859375 0.609375
vt 0.859375 0.625
vt 0.796875 0.625
vt 0.8125 0.875
vt 0.875 0.875
vt 0.875 1
vt 0.8125 1
vt 0.796875 0.625
vt 0.921875 0.625
vt 0.921875 0.640625
vt 0.796875 0.640625
vt 0.796875 0.671875
vt 0.921875 0.671875
vt 0.921875 0.6875
vt 0.796875 0.6875
vt 0.8125 0.59375
vt 0.875 0.59375
vt 0.875 0.609375
vt 0.8125 0.609375
vt 0.828125 0.5625
vt 0.890625 0.5625
vt 0.890625 0.578125
vt 0.828125 0.578125
vt 0.75 0.671875
vt 0.8125 0.671875
vt 0.8125 0.796875
vt 0.75 0.796875
vt 0.8125 0.59375
vt 0.9375 0.59375
vt 0.9375 0.609375
vt 0.8125 0.609375
vt 0.8125 0.53125
vt 0.9375 0.53125
vt 0.9375 0.546875
vt 0.8125 0.546875
vt 0.84375 0.546875
vt 0.90625 0.546875
vt 0.90625 0.5625
vt 0.84375 0.5625
vt 0.84375 0.53125
vt 0.90625 0.53125
vt 0.90625 0.546875
vt 0.84375 0.546875
vt 0.78125 0.5
vt 0.84375 0.5
vt 0.84375 0.515625
vt 0.78125 0.515625
vt 0.78125 0.609375
vt 0.84375 0.609375
vt 0.84375 0.625
vt 0.78125 0.625
vt 0.828125 0.453125
vt 0.84375 0.453125
vt 0.84375 0.703125
vt 0.828125 0.703125
vt 0.828125 0.421875
vt 0.84375 0.421875
vt 0.84375 0.671875
vt 0.828125 0.671875
vt 0.921875 0.640625
vt 0.984375 0.640625
vt 0.984375 0.890625
vt 0.921875 0.890625
vt 0.796875 0.65625
vt 0.859375 0.65625
vt 0.859375 0.671875
vt 0.796875 0.671875
vt 0.796875 0.546875
vt 0.859375 0.546875
vt 0.859375 0.5625
vt 0.796875 0.5625
vt 0.828125 0.46875
vt 0.84375 0.46875
vt 0.84375 0.71875
vt 0.828125 0.71875
vt 0.8125 0.484375
vt 0.828125 0.484375
vt 0.828125 0.734375
vt 0.8125 0.734375
vt 0.875 0.421875
vt 0.9375 0.421875
vt 0.9375 0.671875
vt 0.875 0.671875
vt 0.796875 0.625
vt 0.84375 0.625
vt 0.84375 0.640625
vt 0.796875 0.640625
vt 0.796875 0.65625
vt 0.84375 0.65625
vt 0.84375 0.671875
vt 0.796875 0.671875
vt 0.828125 0.609375
vt 0.84375 0.609375
vt 0.84375 0.65625
vt 0.828125 0.65625
vt 0.8125 0.609375
vt 0.828125 0.609375
vt 0.828125 0.671875
vt 0.8125 0.671875
vt 0.875 0.5
vt 0.9375 0.5
vt 0.9375 0.625
vt 0.875 0.625
vt 0.84375 0.40625
vt 0.859375 0.40625
vt 0.859375 0.421875
vt 0.84375 0.421875
vt 0.84375 0.46875
vt 0.875 0.46875
vt 0.875 0.484375
vt 0.84375 0.484375
vt 0.859375 0.40625
vt 0.875 0.40625
vt 0.875 0.484375
vt 0.859375 0.484375
vt 0.84375 0.40625
vt 0.859375 0.40625
vt 0.859375 0.484375
vt 0.84375 0.484375
vt 0.8125 0.3125
vt 0.875 0.3125
vt 0.875 0.5625
vt 0.8125 0.5625
vt 0.8125 0.65625
vt 0.84375 0.65625
vt 0.84375 0.671875
vt 0.8125 0.671875
vt 0.8125 0.5625
vt 0.84375 0.5625
vt 0.84375 0.578125
vt 0.8125 0.578125
vt 0.828125 0.5625
vt 0.84375 0.5625
vt 0.84375 0.671875
vt 0.828125 0.671875
vt 0.828125 0.5625
vt 0.828125 0.5625
vt 0.828125 0.671875
vt 0.828125 0.671875
vt 0.9375 0.515625
vt 1 0.515625
vt 1 0.765625
vt 0.9375 0.765625
vt 0.84375 0.46875
vt 0.875 0.46875
vt 0.875 0.484375
vt 0.84375 0.484375
vt 0.84375 0.484375
vt 0.875 0.484375
vt 0.875 0.484375
vt 0.84375 0.484375
vt 0.84375 0.421875
vt 0.859375 0.421875
vt 0.859375 0.484375
vt 0.84375 0.484375
vt 0.859375 0.421875
vt 0.875 0.421875
vt 0.875 0.46875
vt 0.859375 0.46875
vt 0.9375 0.28125
vt 1 0.28125
vt 1 0.40625
vt 0.9375 0.40625
vt 0.859375 0.71875
vt 0.890625 0.71875
vt 0.890625 0.703125
vt 0.859375 0.703125
vt 0.859375 0.765625
vt 0.890625 0.765625
vt 0.890625 0.75
vt 0.859375 0.75
vt 0.890625 0.703125
vt 0.875 0.703125
vt 0.875 0.765625
vt 0.890625 0.765625
vt 0.859375 0.703125
vt 0.875 0.703125
vt 0.875 0.765625
vt 0.859375 0.765625
vt 0.828125 0.625
vt 0.890625 0.625
vt 0.890625 0.75
vt 0.828125 0.75
vn 1 0 0
vn -1 0 0
vn 0 0 1
vn 0 0 -1
vn 0 1 0
vn 0 1 0
vn 0 1 0
vn 0 1 0
vn 0 -0.12403473458920847 0.9922778767136677
vn 0 -0.12403473458920847 0.9922778767136677
vn 0.9922778767136677 -0.12403473458920847 0
vn 0 -0.12403473458920847 -0.9922778767136677
vn -0.9922778767136677 -0.12403473458920847 0
vn 0.9510563422665871 0 -0.3090175299792888
vn -0.9510563422665871 0 0.30901752997928883
vn 0 1 0
vn 0.3090171626133142 0 0.9510564616311782
vn -0.3090171626133146 0 -0.951056461631178
vn 1 0 0
vn -1 0 0
vn 0 1 0
vn 0 0 1
vn 0 0 -1
vn 0.9902681405489647 0 0.13917259002294907
vn -0.9902679682753972 0 -0.1391738158121598
vn 0 1 0
vn -0.13917224547811638 0 0.9902681889713407
vn 0.1391725900229491 0 -0.9902681405489647
vn 0.992546055114238 0 -0.12187012955258711
vn -0.9925460922449604 0 0.1218698271487191
vn 0 1 0
vn 0.12186997835046666 0 0.9925460736796338
vn -0.12186874691576863 0 -0.9925462248808267
vn 0 1 0
vn 0.9961947648731585 0 0.08715497942924849
vn -0.9961947648731585 0 -0.08715497942924849
vn 0 1 0
vn -0.08715621993376488 0 0.9961946563432557
vn 0.08715621993376488 0 -0.9961946563432557
vn 1 0 0
vn -1 0 0
vn 0 1 0
vn 0 0 1
vn 0 0 -1
vn 0.9975640643683362 0 -0.06975627198271182
vn -0.9975639773846032 0 0.0697575159005188
vn 0 1 0
vn 0.06975760288512835 0 0.9975639713019515
vn -0.06975742891612634 0 -0.9975639834672319
vn 0 1 0
vn 0 1 0
vn 0 1 0
vn 0.9961947648731585 0 0.08715497942924849
vn -0.9961945478118319 0 -0.08715746043787584
vn 0 1 0
vn -0.08715588500869317 0 0.9961946856455076
vn 0.08715605865726764 0 -0.9961946704531855
vn -0.9832550047933682 0 0.18223500088839562
vn 0.9832549632812971 0 -0.18223522486801305
vn 0 1 0
vn -0.18223500088839603 0 -0.9832550047933681
vn 0.1822374178627667 0 0.9832545568319078
vn -0.9961945478118319 0 -0.08715746043787584
vn 0.9961947648731584 0 0.08715497942924856
vn 0 1 0
vn 0.0871550879585253 0 -0.9961947553781548
vn -0.08715497942924808 0 0.9961947648731584
vn 0 0 1
vn 1 0 0
vn 0 0 1
vn 0 0 -1
vn 0 0 -1
vn -1 0 0
vn 0 0 1
vn 0 0 -1
vn 1 0 0
vn -1 0 0
vn 0 1 0
vn 0 -1 0
vn 0 0 1
vn 1 0 0
vn -1 0 0
vn 0 1 0
vn 0 -1 0
vn 0 0 -1
vn -1 0 0
vn 0 1 0
vn 0 -1 0
vn 0 0 1
vn 0 0 -1
vn 1 0 0
vn -1 0 0
vn 0 1 0
vn 0 -1 0
vn 0 0 -1
vn 1 0 0
vn -1 0 0
vn 0 1 0
vn 0 -1 0
vn 0 0 1
vn 0 0 -1
vn -1 0 0
vn 0 1 0
vn 0 -1 0
vn 0 0 1
vn 0 0 -1
vn 1 0 0
vn -1 0 0
vn 0 1 0
vn 0 -1 0
vn 0 0 1
vn 1 0 0
vn -1 0 0
vn 0 1 0
vn 0 -1 0
vn 0 0 1
vn 1 0 0
vn -1 0 0
vn 0 1 0
vn 0 -1 0
vn 0 0 1
vn 1 0 0
vn -1 0 0
vn 0 1 0
vn 0 -1 0
vn 0 0 1
vn -1 0 0
vn 0 1 0
vn 0 -1 0
vn 0 0 1
vn 0 0 -1
vn 0 0 -1
vn 0 0 1
vn 0 1 0
vn 0 -1 0
vn -1 0 0
vn -0.9993908099800349 0 0.03489998463394907
vn 0 1 0
vn 0 -1 0
vn 0.034900028232389704 0 0.9993908084575217
vn -0.034900028232389704 0 -0.9993908084575217
vn 0 0 -1
vn 0 0 1
vn 0 1 0
vn 0 -1 0
vn 1 0 0
vn 1 0 0
vn 0 1 0
vn 0 -1 0
vn 0 0 1
vn 0 0 -1
vn 1 0 0
vn 0 1 0
vn 0 -1 0
vn 0 0 1
vn 0 0 -1
vn 1 0 0
vn 0 1 0
vn 0 -1 0
vn 0 0 1
vn 0 0 -1
vn 0 0 -1
vn 0 0 1
vn 0 1 0
vn 0 -1 0
vn 1 0 0
vn 0 0 -1
vn 0 0 1
vn 0 1 0
vn 0 -1 0
vn 1 0 0
vn 1 0 0
vn -1 0 0
vn 0 1 0
vn 0 -1 0
vn 0 0 -1
vn 1 0 0
vn -1 0 0
vn 0 1 0
vn 0 -1 0
vn 0 0 -1
vn 1 0 0
vn -1 0 0
vn 0 1 0
vn 0 -1 0
vn 0 0 -1
vn 1 0 0
vn -1 0 0
vn 0 1 0
vn 0 -1 0
vn 0 0 -1
vn 1 0 0
vn -1 0 0
vn 0 1 0
vn 0 -1 0
vn 0 0 -1
usemtl base_bricks
f 1/1/1 2/2/1 4/3/1
f 1/1/1 4/3/1 3/4/1
f 6/5/2 5/6/2 7/7/2
f 6/5/2 7/7/2 8/8/2
f 5/9/3 1/10/3 3/11/3
f 5/9/3 3/11/3 7/12/3
f 2/13/4 6/14/4 8/15/4
f 2/13/4 8/15/4 4/16/4
f 10/17/5 9/18/5 7/19/5
f 10/17/5 7/19/5 3/20/5
f 11/21/6 10/22/6 3/23/6
f 11/21/6 3/23/6 4/24/6
f 12/25/7 11/26/7 4/27/7
f 12/25/7 4/27/7 8/28/7
f 9/29/8 12/30/8 8/31/8
f 9/29/8 8/31/8 7/32/8
f 5/33/9 20/34/9 19/35/9
f 5/33/9 19/35/9 13/36/9
f 14/37/10 22/38/10 21/39/10
f 14/37/10 21/39/10 1/40/10
f 17/41/11 23/42/11 24/43/11
f 17/41/11 24/43/11 18/44/11
f 15/45/12 25/46/12 26/47/12
f 15/45/12 26/47/12 16/48/12
f 6/49/13 28/50/13 27/51/13
f 6/49/13 27/51/13 5/52/13
f 32/53/14 30/54/14 29/55/14
f 32/53/14 29/55/14 31/56/14
f 35/57/15 33/58/15 34/59/15
f 35/57/15 34/59/15 36/60/15
f 29/61/16 30/62/16 34/63/16
f 29/61/16 34/63/16 33/64/16
f 31/65/17 29/66/17 33/67/17
f 31/65/17 33/67/17 35/68/17
f 36/69/18 34/70/18 30/71/18
f 36/69/18 30/71/18 32/72/18
f 40/73/19 38/74/19 37/75/19
f 40/73/19 37/75/19 39/76/19
f 43/77/20 41/78/20 42/79/20
f 43/77/20 42/79/20 44/80/20
f 37/81/21 38/82/21 42/83/21
f 37/81/21 42/83/21 41/84/21
f 39/85/22 37/86/22 41/87/22
f 39/85/22 41/87/22 43/88/22
f 44/89/23 42/90/23 38/91/23
f 44/89/23 38/91/23 40/92/23
f 48/93/24 46/94/24 45/95/24
f 48/93/24 45/95/24 47/96/24
f 51/97/25 49/98/25 50/99/25
f 51/97/25 50/99/25 52/100/25
f 45/101/26 46/102/26 50/103/26
f 45/101/26 50/103/26 49/104/26
f 47/105/27 45/106/27 49/107/27
f 47/105/27 49/107/27 51/108/27
f 52/109/28 50/110/28 46/111/28
f 52/109/28 46/111/28 48/112/28
f 56/113/29 54/114/29 53/115/29
f 56/113/29 53/115/29 55/116/29
f 59/117/30 57/118/30 58/119/30
f 59/117/30 58/119/30 60/120/30
f 53/121/31 54/122/31 58/123/31
f 53/121/31 58/123/31 57/124/31
f 55/125/32 53/126/32 57/127/32
f 55/125/32 57/127/32 59/128/32
f 60/129/33 58/130/33 54/131/33
f 60/129/33 54/131/33 56/132/33
f 61/133/34 62/134/34 64/135/34
f 61/133/34 64/135/34 63/136/34
f 68/137/35 66/138/35 65/139/35
f 68/137/35 65/139/35 67/140/35
f 71/141/36 69/142/36 70/143/36
f 71/141/36 70/143/36 72/144/36
f 65/145/37 66/146/37 70/147/37
f 65/145/37 70/147/37 69/148/37
f 67/149/38 65/150/38 69/151/38
f 67/149/38 69/151/38 71/152/38
f 72/153/39 70/154/39 66/155/39
f 72/153/39 66/155/39 68/156/39
f 76/157/40 74/158/40 73/159/40
f 76/157/40 73/159/40 75/160/40
f 56/161/41 54/162/41 77/163/41
f 56/161/41 77/163/41 78/164/41
f 73/165/42 74/166/42 77/167/42
f 73/165/42 77/167/42 54/168/42
f 75/169/43 73/170/43 54/171/43
f 75/169/43 54/171/43 56/172/43
f 78/173/44 77/174/44 74/175/44
f 78/173/44 74/175/44 76/176/44
f 82/177/45 80/178/45 79/179/45
f 82/177/45 79/179/45 81/180/45
f 85/181/46 83/182/46 84/183/46
f 85/181/46 84/183/46 86/184/46
f 79/185/47 80/186/47 84/187/47
f 79/185/47 84/187/47 83/188/47
f 81/189/48 79/190/48 83/191/48
f 81/189/48 83/191/48 85/192/48
f 86/193/49 84/194/49 80/195/49
f 86/193/49 80/195/49 82/196/49
f 87/197/50 88/198/50 89/199/50
f 87/197/50 89/199/50 61/200/50
f 91/201/51 89/202/51 93/203/51
f 91/201/51 93/203/51 92/204/51
f 63/205/52 93/206/52 90/207/52
f 63/205/52 90/207/52 94/208/52
f 98/209/53 96/210/53 95/211/53
f 98/209/53 95/211/53 97/212/53
f 101/213/54 99/214/54 100/215/54
f 101/213/54 100/215/54 102/216/54
f 95/217/55 96/218/55 100/219/55
f 95/217/55 100/219/55 99/220/55
f 97/221/56 95/222/56 99/223/56
f 97/221/56 99/223/56 101/224/56
f 102/225/57 100/226/57 96/227/57
f 102/225/57 96/227/57 98/228/57
f 107/229/58 103/230/58 105/231/58
f 107/229/58 105/231/58 108/232/58
f 109/233/59 106/234/59 104/235/59
f 109/233/59 104/235/59 110/236/59
f 105/237/60 103/238/60 104/239/60
f 105/237/60 104/239/60 106/240/60
f 108/241/61 105/242/61 106/243/61
f 108/241/61 106/243/61 109/244/61
f 110/245/62 104/246/62 103/247/62
f 110/245/62 103/247/62 107/248/62
f 115/249/63 111/250/63 113/251/63
f 115/249/63 113/251/63 116/252/63
f 117/253/64 114/254/64 112/255/64
f 117/253/64 112/255/64 118/256/64
f 113/257/65 111/258/65 112/259/65
f 113/257/65 112/259/65 114/260/65
f 116/261/66 113/262/66 114/263/66
f 116/261/66 114/263/66 117/264/66
f 118/265/67 112/266/67 111/267/67
f 118/265/67 111/267/67 115/268/67
f 119/269/68 61/270/68 63/271/68
f 119/269/68 63/271/68 120/272/68
f 4/273/69 88/274/69 87/275/69
f 4/273/69 87/275/69 3/276/69
f 3/277/70 87/278/70 61/279/70
f 3/277/70 61/279/70 119/280/70
f 121/281/71 89/282/71 88/283/71
f 121/281/71 88/283/71 4/284/71
f 122/285/72 93/286/72 89/287/72
f 122/285/72 89/287/72 121/288/72
f 7/289/73 94/290/73 90/291/73
f 7/289/73 90/291/73 8/292/73
f 120/293/74 63/294/74 94/295/74
f 120/293/74 94/295/74 7/296/74
f 8/297/75 90/298/75 93/299/75
f 8/297/75 93/299/75 122/300/75
f 126/301/76 124/302/76 123/303/76
f 126/301/76 123/303/76 125/304/76
f 129/305/77 127/306/77 128/307/77
f 129/305/77 128/307/77 130/308/77
f 123/309/78 124/310/78 128/311/78
f 123/309/78 128/311/78 127/312/78
f 126/313/79 125/314/79 129/315/79
f 126/313/79 129/315/79 130/316/79
f 125/317/80 123/318/80 127/319/80
f 125/317/80 127/319/80 129/320/80
f 133/321/81 132/322/81 131/323/81
f 133/321/81 131/323/81 121/324/81
f 136/325/82 134/326/82 135/327/82
f 136/325/82 135/327/82 137/328/82
f 131/329/83 132/330/83 135/331/83
f 131/329/83 135/331/83 134/332/83
f 133/333/84 121/334/84 136/335/84
f 133/333/84 136/335/84 137/336/84
f 137/337/85 135/338/85 132/339/85
f 137/337/85 132/339/85 133/340/85
f 144/341/86 142/342/86 143/343/86
f 144/341/86 143/343/86 145/344/86
f 139/345/87 138/346/87 143/347/87
f 139/345/87 143/347/87 142/348/87
f 141/349/88 140/350/88 144/351/88
f 141/349/88 144/351/88 145/352/88
f 140/353/89 139/354/89 142/355/89
f 140/353/89 142/355/89 144/356/89
f 145/357/90 143/358/90 138/359/90
f 145/357/90 138/359/90 141/360/90
f 149/361/91 147/362/91 146/363/91
f 149/361/91 146/363/91 148/364/91
f 138/365/92 90/366/92 150/367/92
f 138/365/92 150/367/92 151/368/92
f 146/369/93 147/370/93 150/371/93
f 146/369/93 150/371/93 90/372/93
f 149/373/94 148/374/94 138/375/94
f 149/373/94 138/375/94 151/376/94
f 151/377/95 150/378/95 147/379/95
f 151/377/95 147/379/95 149/380/95
f 155/381/96 153/382/96 152/383/96
f 155/381/96 152/383/96 154/384/96
f 158/385/97 156/386/97 157/387/97
f 158/385/97 157/387/97 159/388/97
f 152/389/98 153/390/98 157/391/98
f 152/389/98 157/391/98 156/392/98
f 155/393/99 154/394/99 158/395/99
f 155/393/99 158/395/99 159/396/99
f 154/397/100 152/398/100 156/399/100
f 154/397/100 156/399/100 158/400/100
f 159/401/101 157/402/101 153/403/101
f 159/401/101 153/403/101 155/404/101
f 166/405/102 164/406/102 165/407/102
f 166/405/102 165/407/102 167/408/102
f 160/409/103 161/410/103 165/411/103
f 160/409/103 165/411/103 164/412/103
f 163/413/104 162/414/104 166/415/104
f 163/413/104 166/415/104 167/416/104
f 162/417/105 160/418/105 164/419/105
f 162/417/105 164/419/105 166/420/105
f 167/421/106 165/422/106 161/423/106
f 167/421/106 161/423/106 163/424/106
f 171/425/107 169/426/107 168/427/107
f 171/425/107 168/427/107 170/428/107
f 174/429/108 172/430/108 173/431/108
f 174/429/108 173/431/108 175/432/108
f 168/433/109 169/434/109 173/435/109
f 168/433/109 173/435/109 172/436/109
f 171/437/110 170/438/110 174/439/110
f 171/437/110 174/439/110 175/440/110
f 170/441/111 168/442/111 172/443/111
f 170/441/111 172/443/111 174/444/111
f 179/445/112 177/446/112 176/447/112
f 179/445/112 176/447/112 178/448/112
f 182/449/113 180/450/113 181/451/113
f 182/449/113 181/451/113 183/452/113
f 176/453/114 177/454/114 181/455/114
f 176/453/114 181/455/114 180/456/114
f 179/457/115 178/458/115 182/459/115
f 179/457/115 182/459/115 183/460/115
f 178/461/116 176/462/116 180/463/116
f 178/461/116 180/463/116 182/464/116
f 185/465/117 183/466/117 182/467/117
f 185/465/117 182/467/117 184/468/117
f 188/469/118 186/470/118 187/471/118
f 188/469/118 187/471/118 189/472/118
f 182/473/119 183/474/119 187/475/119
f 182/473/119 187/475/119 186/476/119
f 185/477/120 184/478/120 188/479/120
f 185/477/120 188/479/120 189/480/120
f 184/481/121 182/482/121 186/483/121
f 184/481/121 186/483/121 188/484/121
f 193/485/122 191/486/122 190/487/122
f 193/485/122 190/487/122 192/488/122
f 196/489/123 194/490/123 195/491/123
f 196/489/123 195/491/123 197/492/123
f 190/493/124 191/494/124 195/495/124
f 190/493/124 195/495/124 194/496/124
f 193/497/125 192/498/125 196/499/125
f 193/497/125 196/499/125 197/500/125
f 192/501/126 190/502/126 194/503/126
f 192/501/126 194/503/126 196/504/126
f 204/505/127 202/506/127 203/507/127
f 204/505/127 203/507/127 205/508/127
f 198/509/128 199/510/128 203/511/128
f 198/509/128 203/511/128 202/512/128
f 201/513/129 200/514/129 204/515/129
f 201/513/129 204/515/129 205/516/129
f 200/517/130 198/518/130 202/519/130
f 200/517/130 202/519/130 204/520/130
f 205/521/131 203/522/131 199/523/131
f 205/521/131 199/523/131 201/524/131
f 209/525/132 207/526/132 206/527/132
f 209/525/132 206/527/132 208/528/132
f 212/529/133 210/530/133 211/531/133
f 212/529/133 211/531/133 213/532/133
f 206/533/134 207/534/134 211/535/134
f 206/533/134 211/535/134 210/536/134
f 209/537/135 208/538/135 212/539/135
f 209/537/135 212/539/135 213/540/135
f 213/541/136 211/542/136 207/543/136
f 213/541/136 207/543/136 209/544/136
f 220/545/137 218/546/137 219/547/137
f 220/545/137 219/547/137 221/548/137
f 214/549/138 215/550/138 219/551/138
f 214/549/138 219/551/138 218/552/138
f 217/553/139 216/554/139 220/555/139
f 217/553/139 220/555/139 221/556/139
f 216/557/140 214/558/140 218/559/140
f 216/557/140 218/559/140 220/560/140
f 221/561/141 219/562/141 215/563/141
f 221/561/141 215/563/141 217/564/141
f 225/565/142 223/566/142 222/567/142
f 225/565/142 222/567/142 224/568/142
f 228/569/143 226/570/143 227/571/143
f 228/569/143 227/571/143 229/572/143
f 222/573/144 223/574/144 227/575/144
f 222/573/144 227/575/144 226/576/144
f 225/577/145 224/578/145 228/579/145
f 225/577/145 228/579/145 229/580/145
f 224/581/146 222/582/146 226/583/146
f 224/581/146 226/583/146 228/584/146
f 233/585/147 231/586/147 230/587/147
f 233/585/147 230/587/147 232/588/147
f 230/589/148 231/590/148 235/591/148
f 230/589/148 235/591/148 234/592/148
f 233/593/149 232/594/149 236/595/149
f 233/593/149 236/595/149 237/596/149
f 232/597/150 230/598/150 234/599/150
f 232/597/150 234/599/150 236/600/150
f 237/601/151 235/602/151 231/603/151
f 237/601/151 231/603/151 233/604/151
f 241/605/152 239/606/152 238/607/152
f 241/605/152 238/607/152 240/608/152
f 238/609/153 239/610/153 243/611/153
f 238/609/153 243/611/153 242/612/153
f 241/613/154 240/614/154 244/615/154
f 241/613/154 244/615/154 245/616/154
f 240/617/155 238/618/155 242/619/155
f 240/617/155 242/619/155 244/620/155
f 245/621/156 243/622/156 239/623/156
f 245/621/156 239/623/156 241/624/156
f 248/625/157 246/626/157 241/627/157
f 248/625/157 241/627/157 247/628/157
f 241/629/158 246/630/158 249/631/158
f 241/629/158 249/631/158 245/632/158
f 248/633/159 247/634/159 250/635/159
f 248/633/159 250/635/159 251/636/159
f 247/637/160 241/638/160 245/639/160
f 247/637/160 245/639/160 250/640/160
f 251/641/161 249/642/161 246/643/161
f 251/641/161 246/643/161 248/644/161
f 255/645/162 253/646/162 252/647/162
f 255/645/162 252/647/162 254/648/162
f 246/649/163 256/650/163 257/651/163
f 246/649/163 257/651/163 249/652/163
f 252/653/164 253/654/164 257/655/164
f 252/653/164 257/655/164 256/656/164
f 255/657/165 254/658/165 246/659/165
f 255/657/165 246/659/165 249/660/165
f 254/661/166 252/662/166 256/663/166
f 254/661/166 256/663/166 246/664/166
f 261/665/167 259/666/167 258/667/167
f 261/665/167 258/667/167 260/668/167
f 264/669/168 262/670/168 263/671/168
f 264/669/168 263/671/168 265/672/168
f 258/673/169 259/674/169 263/675/169
f 258/673/169 263/675/169 262/676/169
f 261/677/170 260/678/170 264/679/170
f 261/677/170 264/679/170 265/680/170
f 260/681/171 258/682/171 262/683/171
f 260/681/171 262/683/171 264/684/171
f 269/685/172 267/686/172 266/687/172
f 269/685/172 266/687/172 268/688/172
f 272/689/173 270/690/173 271/691/173
f 272/689/173 271/691/173 273/692/173
f 266/693/174 267/694/174 271/695/174
f 266/693/174 271/695/174 270/696/174
f 269/697/175 268/698/175 272/699/175
f 269/697/175 272/699/175 273/700/175
f 273/701/176 271/702/176 267/703/176
f 273/701/176 267/703/176 269/704/176
f 277/705/177 275/706/177 274/707/177
f 277/705/177 274/707/177 276/708/177
f 280/709/178 278/710/178 279/711/178
f 280/709/178 279/711/178 281/712/178
f 274/713/179 275/714/179 279/715/179
f 274/713/179 279/715/179 278/716/179
f 277/717/180 276/718/180 280/719/180
f 277/717/180 280/719/180 281/720/180
f 281/721/181 279/722/181 275/723/181
f 281/721/181 275/723/181 277/724/181
f 285/725/182 283/726/182 282/727/182
f 285/725/182 282/727/182 284/728/182
f 288/729/183 286/730/183 287/731/183
f 288/729/183 287/731/183 289/732/183
f 282/733/184 283/734/184 287/735/184
f 282/733/184 287/735/184 286/736/184
f 285/737/185 284/738/185 288/739/185
f 285/737/185 288/739/185 289/740/185
f 289/741/186 287/742/186 283/743/186
f 289/741/186 283/743/186 285/744/186
f 291/745/187 289/746/187 288/747/187
f 291/745/187 288/747/187 290/748/187
f 294/749/188 292/750/188 293/751/188
f 294/749/188 293/751/188 295/752/188
f 288/753/189 289/754/189 293/755/189
f 288/753/189 293/755/189 292/756/189
f 291/757/190 290/758/190 294/759/190
f 291/757/190 294/759/190 295/760/190
f 295/761/191 293/762/191 289/763/191
f 295/761/191 289/763/191 291/764/191
f 298/765/192 296/766/192 89/767/192
f 298/765/192 89/767/192 297/768/192
f 301/769/193 299/770/193 300/771/193
f 301/769/193 300/771/193 302/772/193
f 89/773/194 296/774/194 300/775/194
f 89/773/194 300/775/194 299/776/194
f 298/777/195 297/778/195 301/779/195
f 298/777/195 301/779/195 302/780/195
f 302/781/196 300/782/196 296/783/196
f 302/781/196 296/783/196 298/784/196