# Made by Pabilo8 with Blockbench
# Exported with IIToolkit Plugin
mtllib rivet.mtl


o cube
v 0.03125 0.3125 0.03125
v 0.03125 0.3125 -0.03125
v 0.03125 0.25 0.03125
v 0.03125 0.25 -0.03125
v -0.03125 0.3125 0.03125
v -0.03125 0.3125 -0.03125
v -0.03125 0.25 0.03125
v -0.03125 0.25 -0.03125
v 0.03125 0.25 0.03125
v 0.03125 0.25 -0.03125
v 0.03125 0.1875 0.03125
v 0.03125 0.1875 -0.03125
v -0.03125 0.25 0.03125
v -0.03125 0.25 -0.03125
v -0.03125 0.1875 0.03125
v -0.03125 0.1875 -0.03125
v 0.031249999999999972 0.4000000000000001 0.03125
v 0.031249999999999972 0.4000000000000001 -0.03125
v 0.0625 0.37500000000000006 0.0625
v 0.0625 0.37500000000000006 -0.0625
v -0.031249999999999972 0.4000000000000001 0.03125
v -0.031249999999999972 0.4000000000000001 -0.03125
v -0.0625 0.37500000000000006 0.0625
v -0.0625 0.37500000000000006 -0.0625
v 0.0625 0.375 0.0625
v 0.0625 0.375 -0.0625
v 0.0625 0.3125 0.0625
v 0.0625 0.3125 -0.0625
v -0.0625 0.375 0.0625
v -0.0625 0.375 -0.0625
v -0.0625 0.3125 0.0625
v -0.0625 0.3125 -0.0625
vt 0.125 0.625
vt 0.125 0.6875
vt 0.0625 0.6875
vt 0.0625 0.625
vt 0.125 0.625
vt 0.125 0.6875
vt 0.0625 0.6875
vt 0.0625 0.625
vt 0.125 0.625
vt 0.125 0.6875
vt 0.0625 0.6875
vt 0.0625 0.625
vt 0.125 0.625
vt 0.125 0.6875
vt 0.0625 0.6875
vt 0.0625 0.625
vt 0.1875 0.8125
vt 0.1875 0.875
vt 0.125 0.875
vt 0.125 0.8125
vt 0.1875 0.8125
vt 0.1875 0.875
vt 0.125 0.875
vt 0.125 0.8125
vt 0.25 0.8125
vt 0.25 0.875
vt 0.1875 0.875
vt 0.1875 0.8125
vt 0.1875 0.8125
vt 0.1875 0.875
vt 0.125 0.875
vt 0.125 0.8125
vt 0.1875 0.8125
vt 0.1875 0.875
vt 0.125 0.875
vt 0.125 0.8125
vt 0.25 0.83498125
vt 0.21875 0.875
vt 0.15625 0.875
vt 0.125 0.83498125
vt 0.125 0.77248125
vt 0.15625 0.8125
vt 0.21875 0.8125
vt 0.25 0.77248125
vt 0.25 0.75
vt 0.25 0.875
vt 0.125 0.875
vt 0.125 0.75
vt 0.25 0.77248125
vt 0.21875 0.8125
vt 0.15625 0.8125
vt 0.125 0.77248125
vt 0.25 0.77248125
vt 0.21875 0.8125
vt 0.15625 0.8125
vt 0.125 0.77248125
vt 0.25 0.8125
vt 0.25 0.875
vt 0.125 0.875
vt 0.125 0.8125
vt 0.125 0.8125
vt 0.125 0.875
vt 0.25 0.875
vt 0.25 0.8125
vt 0.25 0.75
vt 0.25 0.875
vt 0.125 0.875
vt 0.125 0.75
vt 0.25 0.75
vt 0.25 0.8125
vt 0.125 0.8125
vt 0.125 0.75
vt 0.25 0.8125
vt 0.25 0.875
vt 0.125 0.875
vt 0.125 0.8125
vn 1 0 0
vn -1 0 0
vn 0 0 1
vn 0 0 -1
vn 1 0 0
vn -1 0 0
vn 0 -1 0
vn 0 0 1
vn 0 0 -1
vn 0.6246950475544244 0.7808688094430305 0
vn -0.6246950475544244 0.7808688094430305 0
vn 0 1 0
vn 0 0.7808688094430302 0.6246950475544246
vn 0 0.7808688094430302 -0.6246950475544246
vn 1 0 0
vn -1 0 0
vn 0 -1 0
vn 0 0 1
vn 0 0 -1
usemtl storage_steel
f 4/1/1 2/2/1 1/3/1 3/4/1
f 7/5/2 5/6/2 6/7/2 8/8/2
f 3/9/3 1/10/3 5/11/3 7/12/3
f 8/13/4 6/14/4 2/15/4 4/16/4
f 12/17/5 10/18/5 9/19/5 11/20/5
f 15/21/6 13/22/6 14/23/6 16/24/6
f 12/25/7 11/26/7 15/27/7 16/28/7
f 11/29/8 9/30/8 13/31/8 15/32/8
f 16/33/9 14/34/9 10/35/9 12/36/9
f 20/37/10 18/38/10 17/39/10 19/40/10
f 23/41/11 21/42/11 22/43/11 24/44/11
f 17/45/12 18/46/12 22/47/12 21/48/12
f 19/49/13 17/50/13 21/51/13 23/52/13
f 24/53/14 22/54/14 18/55/14 20/56/14
f 28/57/15 26/58/15 25/59/15 27/60/15
f 31/61/16 29/62/16 30/63/16 32/64/16
f 28/65/17 27/66/17 31/67/17 32/68/17
f 27/69/18 25/70/18 29/71/18 31/72/18
f 32/73/19 30/74/19 26/75/19 28/76/19