# Made by Pabilo8 with Blockbench
# Exported with IIToolkit Plugin on 27/08/2026
mtllib hit_spark.mtl

o cone
v 0.1875 -0.1875 0.0313
v 0.1875 0.1875 0.0312
v -0.1875 -0.1875 0.0313
v -0.1875 0.1875 0.0312
v 0.1875 0 0.0313
v -0.1875 0 0.0313
v 0 -0.375 0.75
v 0 -0.1875 0
v 0 0.375 0.75
v 0 0.1875 0
v 0.2652 -0.2652 0.75
v 0.1326 -0.1326 0
v -0.2652 0.2652 0.75
v -0.1326 0.1326 0
v -0.2601 -0.2702 0.75
v -0.1275 -0.1376 0
v 0.2702 0.2601 0.75
v 0.1376 0.1275 0
v 0.375 0 0.75
v 0.1875 0 0
v -0.375 0 0.75
v -0.1875 0 0
vt 0.3125 0.1875
vt 0.3125 0
vt 0.75 0
vt 0.75 0.1875
vt 0.75 0.1875
vt 0.75 0
vt 0.3125 0
vt 0.3125 0.1875
vt 0.25 0
vt 0 1
vt 1 1
vt 0.75 0
vt 0.25 0
vt 0 1
vt 1 1
vt 0.75 0
vt 0.75 0
vt 1 1
vt 0 1
vt 0.25 0
vt 0.75 0
vt 1 1
vt 0 1
vt 0.25 0
vn 0 0 1
vn 0 0 1
vn 1 0 0
vn 0.71 0.71 0
vn 0.71 -0.71 0
vn 0 1 0
usemtl spark0
f 4/1/1 6/2/1 5/3/1
f 4/1/1 5/3/1 2/4/1
f 1/5/2 5/6/2 6/7/2
f 1/5/2 6/7/2 3/8/2
f 10/9/3 9/10/3 7/11/3
f 10/9/3 7/11/3 8/12/3
f 14/13/4 13/14/4 11/15/4
f 14/13/4 11/15/4 12/16/4
f 18/17/5 17/18/5 15/19/5
f 18/17/5 15/19/5 16/20/5
f 22/21/6 21/22/6 19/23/6
f 22/21/6 19/23/6 20/24/6