# Made by Pabilo8 in Blockbench 4.1.0
mtllib sandbags.mtl

o sandbag
v 0 0.25 -0.25
v 0 0.25 -0.5625
v 0 0 -0.25
v 0 0 -0.5625
v -0.5 0.25 -0.5625
v -0.5 0.25 -0.25
v -0.5 0 -0.5625
v -0.5 0 -0.25
vt 0 0.9375
vt 0.5 0.9375
vt 0.5 0.6875
vt 0 0.6875
vt 0.3125 0.25
vt 0.625 0.25
vt 0.625 0
vt 0.3125 0
vt 0.3125 0.25
vt 0.625 0.25
vt 0.625 0
vt 0.3125 0
vt 0 1
vt 0.5 1
vt 0.5 0.6875
vt 0 0.6875
vt 0 1
vt 0.5 1
vt 0.5 0.6875
vt 0 0.6875
vn 0 0 -1
vn 1 0 0
vn -1 0 0
vn 0 1 0
vn 0 -1 0
usemtl m_0
f 4/4/1 7/3/1 5/2/1 2/1/1
f 3/8/2 4/7/2 2/6/2 1/5/2
f 7/12/3 8/11/3 6/10/3 5/9/3
f 6/16/4 1/15/4 2/14/4 5/13/4
f 7/20/5 4/19/5 3/18/5 8/17/5
o sandbag
v 0.5 0.25 -0.25
v 0.5 0.25 -0.5
v 0.5 0 -0.25
v 0.5 0 -0.5
v 0 0.25 -0.5
v 0 0.25 -0.25
v 0 0 -0.5
v 0 0 -0.25
vt 0 0.6875
vt 0.5 0.6875
vt 0.5 0.4375
vt 0 0.4375
vt 0.3125 0.25
vt 0.5625 0.25
vt 0.5625 0
vt 0.3125 0
vt 0 0.6875
vt 0.5 0.6875
vt 0.5 0.4375
vt 0 0.4375
vt 0 0.625
vt 0.5 0.625
vt 0.5 0.375
vt 0 0.375
vn 0 0 -1
vn 1 0 0
vn 0 1 0
vn 0 -1 0
usemtl m_0
f 12/24/6 15/23/6 13/22/6 10/21/6
f 11/28/7 12/27/7 10/26/7 9/25/7
f 14/32/8 9/31/8 10/30/8 13/29/8
f 15/36/9 12/35/9 11/34/9 16/33/9
o sandbag
v 0.25 0.5 -0.25
v 0.25 0.5 -0.5
v 0.25 0.25 -0.25
v 0.25 0.25 -0.5
v -0.25 0.5 -0.5
v -0.25 0.5 -0.25
v -0.25 0.25 -0.5
v -0.25 0.25 -0.25
vt 0 1
vt 0.5 1
vt 0.5 0.75
vt 0 0.75
vt 0.375 0.25
vt 0.625 0.25
vt 0.625 0
vt 0.375 0
vn 0 0 -1
vn 1 0 0
usemtl m_0
f 20/40/10 23/39/10 21/38/10 18/37/10
f 19/44/11 20/43/11 18/42/11 17/41/11
o sandbag
v 0 0.75 -0.25
v 0 0.75 -0.5
v 0 0.5 -0.25
v 0 0.5 -0.5
v -0.5 0.75 -0.5
v -0.5 0.75 -0.25
v -0.5 0.5 -0.5
v -0.5 0.5 -0.25
vt 0 0.6875
vt 0.5 0.6875
vt 0.5 0.4375
vt 0 0.4375
vt 0.3125 0.25
vt 0.5625 0.25
vt 0.5625 0
vt 0.3125 0
vt 0 0.625
vt 0.5 0.625
vt 0.5 0.375
vt 0 0.375
vn 0 0 -1
vn -1 0 0
vn 0 1 0
usemtl m_0
f 28/48/12 31/47/12 29/46/12 26/45/12
f 31/52/13 32/51/13 30/50/13 29/49/13
f 30/56/14 25/55/14 26/54/14 29/53/14
o sandbag
v 0.25 1 -0.25
v 0.25 1 -0.5
v 0.25 0.75 -0.25
v 0.25 0.75 -0.5
v -0.25 1 -0.5
v -0.25 1 -0.25
v -0.25 0.75 -0.5
v -0.25 0.75 -0.25
vt 0 1
vt 0.5 1
vt 0.5 0.75
vt 0 0.75
vt 0.375 0.25
vt 0.625 0.25
vt 0.625 0
vt 0.375 0
vt 0.3125 0.25
vt 0.5625 0.25
vt 0.5625 0
vt 0.3125 0
vt 0 0.9375
vt 0.5 0.9375
vt 0.5 0.6875
vt 0 0.6875
vn 0 0 -1
vn 1 0 0
vn -1 0 0
vn 0 1 0
usemtl m_0
f 36/60/15 39/59/15 37/58/15 34/57/15
f 35/64/16 36/63/16 34/62/16 33/61/16
f 39/68/17 40/67/17 38/66/17 37/65/17
f 38/72/18 33/71/18 34/70/18 37/69/18
o sandbag
v 0.5 0.75 -0.25
v 0.5 0.75 -0.5625
v 0.5 0.5 -0.25
v 0.5 0.5 -0.5625
v 0 0.75 -0.5625
v 0 0.75 -0.25
v 0 0.5 -0.5625
v 0 0.5 -0.25
vt 0 1
vt 0.5 1
vt 0.5 0.75
vt 0 0.75
vt 0.3125 0.25
vt 0.625 0.25
vt 0.625 0
vt 0.3125 0
vt 0.3125 0.25
vt 0.625 0.25
vt 0.625 0
vt 0.3125 0
vt 0 1
vt 0.5 1
vt 0.5 0.6875
vt 0 0.6875
vt 0 1
vt 0.5 1
vt 0.5 0.6875
vt 0 0.6875
vn 0 0 -1
vn 1 0 0
vn -1 0 0
vn 0 1 0
vn 0 -1 0
usemtl m_0
f 44/76/19 47/75/19 45/74/19 42/73/19
f 43/80/20 44/79/20 42/78/20 41/77/20
f 47/84/21 48/83/21 46/82/21 45/81/21
f 46/88/22 41/87/22 42/86/22 45/85/22
f 47/92/23 44/91/23 43/90/23 48/89/23
o sandbag
v 0 0.25 0
v 0 0.25 -0.25
v 0 0 0
v 0 0 -0.25
v -0.5 0.25 -0.25
v -0.5 0.25 0
v -0.5 0 -0.25
v -0.5 0 0
vt 0.0625 0.6875
vt 0.5625 0.6875
vt 0.5625 0.4375
vt 0.0625 0.4375
vt 0.6875 0.25
vt 0.9375 0.25
vt 0.9375 0
vt 0.6875 0
vt 0.0625 0.6875
vt 0.5625 0.6875
vt 0.5625 0.4375
vt 0.0625 0.4375
vt 0.0625 0.6875
vt 0.5625 0.6875
vt 0.5625 0.4375
vt 0.0625 0.4375
vn 0 0 1
vn -1 0 0
vn 0 1 0
vn 0 -1 0
usemtl m_0
f 56/96/24 51/95/24 49/94/24 54/93/24
f 55/100/25 56/99/25 54/98/25 53/97/25
f 54/104/26 49/103/26 50/102/26 53/101/26
f 55/108/27 52/107/27 51/106/27 56/105/27
o sandbag
v 0.5 0.75 0
v 0.5 0.75 -0.25
v 0.5 0.5 0
v 0.5 0.5 -0.25
v 0 0.75 -0.25
v 0 0.75 0
v 0 0.5 -0.25
v 0 0.5 0
vt 0.625 0.25
vt 0.875 0.25
vt 0.875 0
vt 0.625 0
vt 0.0625 0.6875
vt 0.5625 0.6875
vt 0.5625 0.4375
vt 0.0625 0.4375
vt 0.0625 0.6875
vt 0.5625 0.6875
vt 0.5625 0.4375
vt 0.0625 0.4375
vt 0.0625 0.625
vt 0.5625 0.625
vt 0.5625 0.375
vt 0.0625 0.375
vn 1 0 0
vn 0 0 1
vn 0 1 0
vn 0 -1 0
usemtl m_0
f 59/112/28 60/111/28 58/110/28 57/109/28
f 64/116/29 59/115/29 57/114/29 62/113/29
f 62/120/30 57/119/30 58/118/30 61/117/30
f 63/124/31 60/123/31 59/122/31 64/121/31
o sandbag
v 0.25 1 0
v 0.25 1 -0.25
v 0.25 0.75 0
v 0.25 0.75 -0.25
v -0.25 1 -0.25
v -0.25 1 0
v -0.25 0.75 -0.25
v -0.25 0.75 0
vt 0.0625 0.25
vt 0.3125 0.25
vt 0.3125 0
vt 0.0625 0
vt 0.5 1
vt 1 1
vt 1 0.75
vt 0.5 0.75
vt 0.5 1
vt 1 1
vt 1 0.75
vt 0.5 0.75
vn 1 0 0
vn 0 0 1
vn 0 1 0
usemtl m_0
f 67/128/32 68/127/32 66/126/32 65/125/32
f 72/132/33 67/131/33 65/130/33 70/129/33
f 70/136/34 65/135/34 66/134/34 69/133/34
o sandbag
v 0 0.75 0.0625
v 0 0.75 -0.25
v 0 0.5 0.0625
v 0 0.5 -0.25
v -0.5 0.75 -0.25
v -0.5 0.75 0.0625
v -0.5 0.5 -0.25
v -0.5 0.5 0.0625
vt 0 0.25
vt 0.3125 0.25
vt 0.3125 0
vt 0 0
vt 0.5 0.9375
vt 1 0.9375
vt 1 0.6875
vt 0.5 0.6875
vt 0 0.25
vt 0.3125 0.25
vt 0.3125 0
vt 0 0
vt 0.5 1
vt 1 1
vt 1 0.6875
vt 0.5 0.6875
vt 0.5 1
vt 1 1
vt 1 0.6875
vt 0.5 0.6875
vn 1 0 0
vn 0 0 1
vn -1 0 0
vn 0 1 0
vn 0 -1 0
usemtl m_0
f 75/140/35 76/139/35 74/138/35 73/137/35
f 80/144/36 75/143/36 73/142/36 78/141/36
f 79/148/37 80/147/37 78/146/37 77/145/37
f 78/152/38 73/151/38 74/150/38 77/149/38
f 79/156/39 76/155/39 75/154/39 80/153/39
o sandbag
v 0.25 0.5 0
v 0.25 0.5 -0.25
v 0.25 0.25 0
v 0.25 0.25 -0.25
v -0.25 0.5 -0.25
v -0.25 0.5 0
v -0.25 0.25 -0.25
v -0.25 0.25 0
vt 0.375 0.25
vt 0.625 0.25
vt 0.625 0
vt 0.375 0
vt 0 0.9375
vt 0.5 0.9375
vt 0.5 0.6875
vt 0 0.6875
vt 0.3125 0.25
vt 0.5625 0.25
vt 0.5625 0
vt 0.3125 0
vn 1 0 0
vn 0 0 1
vn -1 0 0
usemtl m_0
f 83/160/40 84/159/40 82/158/40 81/157/40
f 88/164/41 83/163/41 81/162/41 86/161/41
f 87/168/42 88/167/42 86/166/42 85/165/42
o sandbag
v 0.5 0.25 0.0625
v 0.5 0.25 -0.25
v 0.5 0 0.0625
v 0.5 0 -0.25
v 0 0.25 -0.25
v 0 0.25 0.0625
v 0 0 -0.25
v 0 0 0.0625
vt 0 0.25
vt 0.3125 0.25
vt 0.3125 0
vt 0 0
vt 0.5 0.9375
vt 1 0.9375
vt 1 0.6875
vt 0.5 0.6875
vt 0 0.25
vt 0.3125 0.25
vt 0.3125 0
vt 0 0
vt 0.5 1
vt 1 1
vt 1 0.6875
vt 0.5 0.6875
vt 0.5 1
vt 1 1
vt 1 0.6875
vt 0.5 0.6875
vn 1 0 0
vn 0 0 1
vn -1 0 0
vn 0 1 0
vn 0 -1 0
usemtl m_0
f 91/172/43 92/171/43 90/170/43 89/169/43
f 96/176/44 91/175/44 89/174/44 94/173/44
f 95/180/45 96/179/45 94/178/45 93/177/45
f 94/184/46 89/183/46 90/182/46 93/181/46
f 95/188/47 92/187/47 91/186/47 96/185/47