# Made by Pabilo8 in Blockbench 4.1.0
mtllib sandbags.mtl

o sandbag
v -0.25 1 0.0625
v -0.25 1 -0.25
v -0.25 0.75 0.0625
v -0.25 0.75 -0.25
v -0.75 1 -0.25
v -0.75 1 0.0625
v -0.75 0.75 -0.25
v -0.75 0.75 0.0625
vt 0 1
vt 0.5 1
vt 0.5 0.75
vt 0 0.75
vt 0.3125 0.25
vt 0.625 0.25
vt 0.625 0
vt 0.3125 0
vt 0 1
vt 0.5 1
vt 0.5 0.75
vt 0 0.75
vt 0.3125 0.25
vt 0.625 0.25
vt 0.625 0
vt 0.3125 0
vt 0 1
vt 0.5 1
vt 0.5 0.6875
vt 0 0.6875
vt 0 1
vt 0.5 1
vt 0.5 0.6875
vt 0 0.6875
vn 0 0 -1
vn 1 0 0
vn 0 0 1
vn -1 0 0
vn 0 1 0
vn 0 -1 0
usemtl m_0
f 4/4/1 7/3/1 5/2/1 2/1/1
f 3/8/2 4/7/2 2/6/2 1/5/2
f 8/12/3 3/11/3 1/10/3 6/9/3
f 7/16/4 8/15/4 6/14/4 5/13/4
f 6/20/5 1/19/5 2/18/5 5/17/5
f 7/24/6 4/23/6 3/22/6 8/21/6
o sandbag
v -0.2618457933205209 1.015625 -0.22868672705161724
v -0.24005685763360635 1.015625 -0.47773540157455363
v -0.2618457933205209 0.75 -0.22868672705161724
v -0.24005685763360635 0.75 -0.47773540157455363
v -0.7381542066794791 1.015625 -0.5213132729483827
v -0.7599431423663936 1.015625 -0.27226459842544637
v -0.7381542066794791 0.75 -0.5213132729483827
v -0.7599431423663936 0.75 -0.27226459842544637
vt 0.0625 0.6875
vt 0.5625 0.6875
vt 0.5625 0.4375
vt 0.0625 0.4375
vt 0.6875 0.25
vt 0.9375 0.25
vt 0.9375 0
vt 0.6875 0
vt 0.0625 0.6875
vt 0.5625 0.6875
vt 0.5625 0.4375
vt 0.0625 0.4375
vt 0.625 0.25
vt 0.875 0.25
vt 0.875 0
vt 0.625 0
vt 0.0625 0.6875
vt 0.5625 0.6875
vt 0.5625 0.4375
vt 0.0625 0.4375
vt 0.0625 0.6875
vt 0.5625 0.6875
vt 0.5625 0.4375
vt 0.0625 0.4375
vn 0.0871557427476582 0 -0.9961946980917455
vn 0.9961946980917455 0 0.0871557427476582
vn -0.0871557427476582 0 0.9961946980917455
vn -0.9961946980917455 0 -0.0871557427476582
vn 0 1 0
vn 0 -1 0
usemtl m_0
f 12/28/7 15/27/7 13/26/7 10/25/7
f 11/32/8 12/31/8 10/30/8 9/29/8
f 16/36/9 11/35/9 9/34/9 14/33/9
f 15/40/10 16/39/10 14/38/10 13/37/10
f 14/44/11 9/43/11 10/42/11 13/41/11
f 15/48/12 12/47/12 11/46/12 16/45/12
o sandbag
v -0.25 0.5 -0.25
v -0.25 0.5 -0.5625
v -0.25 0.25 -0.25
v -0.25 0.25 -0.5625
v -0.75 0.5 -0.5625
v -0.75 0.5 -0.25
v -0.75 0.25 -0.5625
v -0.75 0.25 -0.25
vt 0.5 1
vt 1 1
vt 1 0.75
vt 0.5 0.75
vt 0 0.25
vt 0.3125 0.25
vt 0.3125 0
vt 0 0
vt 0.5 0.9375
vt 1 0.9375
vt 1 0.6875
vt 0.5 0.6875
vt 0 0.25
vt 0.3125 0.25
vt 0.3125 0
vt 0 0
vt 0.5 1
vt 1 1
vt 1 0.6875
vt 0.5 0.6875
vt 0.5 1
vt 1 1
vt 1 0.6875
vt 0.5 0.6875
vn 0 0 -1
vn 1 0 0
vn 0 0 1
vn -1 0 0
vn 0 1 0
vn 0 -1 0
usemtl m_0
f 20/52/13 23/51/13 21/50/13 18/49/13
f 19/56/14 20/55/14 18/54/14 17/53/14
f 24/60/15 19/59/15 17/58/15 22/57/15
f 23/64/16 24/63/16 22/62/16 21/61/16
f 22/68/17 17/67/17 18/66/17 21/65/17
f 23/72/18 20/71/18 19/70/18 24/69/18
o sandbag
v -0.23582301062904099 0.5 -0.033700940383286596
v -0.2684545586840539 0.5 -0.2815621557267392
v -0.23582301062904099 0.25 -0.033700940383286596
v -0.2684545586840539 0.25 -0.2815621557267392
v -0.764176989370959 0.5 -0.21629905961671342
v -0.7315454413159461 0.5 0.031562155726739205
v -0.764176989370959 0.25 -0.21629905961671342
v -0.7315454413159461 0.25 0.031562155726739205
vt 0 0.625
vt 0.5 0.625
vt 0.5 0.375
vt 0 0.375
vt 0 0.625
vt 0.5 0.625
vt 0.5 0.375
vt 0 0.375
vt 0.6875 0.25
vt 0.9375 0.25
vt 0.9375 0
vt 0.6875 0
vt 0 0.625
vt 0.5 0.625
vt 0.5 0.375
vt 0 0.375
vt 0 0.625
vt 0.5 0.625
vt 0.5 0.375
vt 0 0.375
vn -0.13052619222005157 0 -0.9914448613738104
vn 0.13052619222005157 0 0.9914448613738104
vn -0.9914448613738104 0 0.13052619222005157
vn 0 1 0
vn 0 -1 0
usemtl m_0
f 28/76/19 31/75/19 29/74/19 26/73/19
f 32/80/20 27/79/20 25/78/20 30/77/20
f 31/84/21 32/83/21 30/82/21 29/81/21
f 30/88/22 25/87/22 26/86/22 29/85/22
f 31/92/23 28/91/23 27/90/23 32/89/23