# Made by Pabilo8 in Blockbench 4.1.1
mtllib sandbags.mtl

o sandbag
v 0.5 0.25 -0.25
v 0.5 0.25 -0.5625
v 0.5 0 -0.25
v 0.5 0 -0.5625
v 0 0.25 -0.5625
v 0 0.25 -0.25
v 0 0 -0.5625
v 0 0 -0.25
vt 0.5 0.6875
vt 0 0.6875
vt 0 0.4375
vt 0.5 0.4375
vt 0.9375 0.25
vt 0.625 0.25
vt 0.625 0
vt 0.9375 0
vt 0.9375 0.25
vt 0.625 0.25
vt 0.625 0
vt 0.9375 0
vt 0.5 0.6875
vt 0 0.6875
vt 0 0.375
vt 0.5 0.375
vt 0.5 0.6875
vt 0 0.6875
vt 0 0.375
vt 0.5 0.375
vn 0 0 -1
vn 1 0 0
vn -1 0 0
vn 0 1 0
vn 0 -1 0
usemtl m_0
f 4/4/1 7/3/1 5/2/1 2/1/1
f 3/8/2 4/7/2 2/6/2 1/5/2
f 7/12/3 8/11/3 6/10/3 5/9/3
f 6/16/4 1/15/4 2/14/4 5/13/4
f 7/20/5 4/19/5 3/18/5 8/17/5
o sandbag
v 0 0.25 -0.25
v 0 0.25 -0.5
v 0 0 -0.25
v 0 0 -0.5
v -0.5 0.25 -0.5
v -0.5 0.25 -0.25
v -0.5 0 -0.5
v -0.5 0 -0.25
vt 1 1
vt 0.5 1
vt 0.5 0.75
vt 1 0.75
vt 0.3125 0.25
vt 0.0625 0.25
vt 0.0625 0
vt 0.3125 0
vt 0.5 1
vt 0 1
vt 0 0.75
vt 0.5 0.75
vt 1 1
vt 0.5 1
vt 0.5 0.75
vt 1 0.75
vn 0 0 -1
vn -1 0 0
vn 0 1 0
vn 0 -1 0
usemtl m_0
f 12/24/6 15/23/6 13/22/6 10/21/6
f 15/28/7 16/27/7 14/26/7 13/25/7
f 14/32/8 9/31/8 10/30/8 13/29/8
f 15/36/9 12/35/9 11/34/9 16/33/9
o sandbag
v 0.25 0.5 -0.25
v 0.25 0.5 -0.5
v 0.25 0.25 -0.25
v 0.25 0.25 -0.5
v -0.25 0.5 -0.5
v -0.25 0.5 -0.25
v -0.25 0.25 -0.5
v -0.25 0.25 -0.25
vt 1 1
vt 0.5 1
vt 0.5 0.75
vt 1 0.75
vt 0.25 0.25
vt 0 0.25
vt 0 0
vt 0.25 0
vt 1 1
vt 0.5 1
vt 0.5 0.75
vt 1 0.75
vt 0.25 0.25
vt 0 0.25
vt 0 0
vt 0.25 0
vt 1 1
vt 0.5 1
vt 0.5 0.75
vt 1 0.75
vt 1 1
vt 0.5 1
vt 0.5 0.75
vt 1 0.75
vn 0 0 -1
vn 1 0 0
vn 0 0 1
vn -1 0 0
vn 0 1 0
vn 0 -1 0
usemtl m_0
f 20/40/10 23/39/10 21/38/10 18/37/10
f 19/44/11 20/43/11 18/42/11 17/41/11
f 24/48/12 19/47/12 17/46/12 22/45/12
f 23/52/13 24/51/13 22/50/13 21/49/13
f 22/56/14 17/55/14 18/54/14 21/53/14
f 23/60/15 20/59/15 19/58/15 24/57/15
o sandbag
v 0.5 0.75 -0.25
v 0.5 0.75 -0.5
v 0.5 0.5 -0.25
v 0.5 0.5 -0.5
v 0 0.75 -0.5
v 0 0.75 -0.25
v 0 0.5 -0.5
v 0 0.5 -0.25
vt 0.5 0.9375
vt 0 0.9375
vt 0 0.6875
vt 0.5 0.6875
vt 0.3125 0.25
vt 0.0625 0.25
vt 0.0625 0
vt 0.3125 0
vt 0.5 1
vt 0 1
vt 0 0.75
vt 0.5 0.75
vt 0.25 0.25
vt 0 0.25
vt 0 0
vt 0.25 0
vt 0.5 1
vt 0 1
vt 0 0.75
vt 0.5 0.75
vt 0.5 1
vt 0 1
vt 0 0.75
vt 0.5 0.75
vn 0 0 -1
vn 1 0 0
vn 0 0 1
vn -1 0 0
vn 0 1 0
vn 0 -1 0
usemtl m_0
f 28/64/16 31/63/16 29/62/16 26/61/16
f 27/68/17 28/67/17 26/66/17 25/65/17
f 32/72/18 27/71/18 25/70/18 30/69/18
f 31/76/19 32/75/19 30/74/19 29/73/19
f 30/80/20 25/79/20 26/78/20 29/77/20
f 31/84/21 28/83/21 27/82/21 32/81/21
o sandbag
v 0.25 1 -0.25
v 0.25 1 -0.5
v 0.25 0.75 -0.25
v 0.25 0.75 -0.5
v -0.25 1 -0.5
v -0.25 1 -0.25
v -0.25 0.75 -0.5
v -0.25 0.75 -0.25
vt 0.5 0.6875
vt 0 0.6875
vt 0 0.4375
vt 0.5 0.4375
vt 0.9375 0.25
vt 0.6875 0.25
vt 0.6875 0
vt 0.9375 0
vt 0.5 0.625
vt 0 0.625
vt 0 0.375
vt 0.5 0.375
vt 0.875 0.25
vt 0.625 0.25
vt 0.625 0
vt 0.875 0
vt 0.5 0.625
vt 0 0.625
vt 0 0.375
vt 0.5 0.375
vt 0.5 0.6875
vt 0 0.6875
vt 0 0.4375
vt 0.5 0.4375
vn 0 0 -1
vn 1 0 0
vn 0 0 1
vn -1 0 0
vn 0 1 0
vn 0 -1 0
usemtl m_0
f 36/88/22 39/87/22 37/86/22 34/85/22
f 35/92/23 36/91/23 34/90/23 33/89/23
f 40/96/24 35/95/24 33/94/24 38/93/24
f 39/100/25 40/99/25 38/98/25 37/97/25
f 38/104/26 33/103/26 34/102/26 37/101/26
f 39/108/27 36/107/27 35/106/27 40/105/27
o sandbag
v 0 0.75 -0.25
v 0 0.75 -0.5625
v 0 0.5 -0.25
v 0 0.5 -0.5625
v -0.5 0.75 -0.5625
v -0.5 0.75 -0.25
v -0.5 0.5 -0.5625
v -0.5 0.5 -0.25
vt 0.5 0.625
vt 0 0.625
vt 0 0.375
vt 0.5 0.375
vt 0.9375 0.25
vt 0.625 0.25
vt 0.625 0
vt 0.9375 0
vt 0.5 0.625
vt 0 0.625
vt 0 0.375
vt 0.5 0.375
vt 0.9375 0.25
vt 0.625 0.25
vt 0.625 0
vt 0.9375 0
vt 0.5 0.6875
vt 0 0.6875
vt 0 0.375
vt 0.5 0.375
vt 0.5 0.6875
vt 0 0.6875
vt 0 0.375
vt 0.5 0.375
vn 0 0 -1
vn 1 0 0
vn 0 0 1
vn -1 0 0
vn 0 1 0
vn 0 -1 0
usemtl m_0
f 44/112/28 47/111/28 45/110/28 42/109/28
f 43/116/29 44/115/29 42/114/29 41/113/29
f 48/120/30 43/119/30 41/118/30 46/117/30
f 47/124/31 48/123/31 46/122/31 45/121/31
f 46/128/32 41/127/32 42/126/32 45/125/32
f 47/132/33 44/131/33 43/130/33 48/129/33
o sandbag
v 0.5 0.25 0
v 0.5 0.25 -0.25
v 0.5 0 0
v 0.5 0 -0.25
v 0 0.25 -0.25
v 0 0.25 0
v 0 0 -0.25
v 0 0 0
vt 0.5 0.6875
vt 0 0.6875
vt 0 0.4375
vt 0.5 0.4375
vt 0.9375 0.25
vt 0.6875 0.25
vt 0.6875 0
vt 0.9375 0
vt 0.5 0.6875
vt 0 0.6875
vt 0 0.4375
vt 0.5 0.4375
vt 0.9375 0.25
vt 0.6875 0.25
vt 0.6875 0
vt 0.9375 0
vt 0.5 0.6875
vt 0 0.6875
vt 0 0.4375
vt 0.5 0.4375
vt 0.5 0.6875
vt 0 0.6875
vt 0 0.4375
vt 0.5 0.4375
vn 0 0 -1
vn 1 0 0
vn 0 0 1
vn -1 0 0
vn 0 1 0
vn 0 -1 0
usemtl m_0
f 52/136/34 55/135/34 53/134/34 50/133/34
f 51/140/35 52/139/35 50/138/35 49/137/35
f 56/144/36 51/143/36 49/142/36 54/141/36
f 55/148/37 56/147/37 54/146/37 53/145/37
f 54/152/38 49/151/38 50/150/38 53/149/38
f 55/156/39 52/155/39 51/154/39 56/153/39
o sandbag
v 0 0.75 0
v 0 0.75 -0.25
v 0 0.5 0
v 0 0.5 -0.25
v -0.5 0.75 -0.25
v -0.5 0.75 0
v -0.5 0.5 -0.25
v -0.5 0.5 0
vt 1 1
vt 0.5 1
vt 0.5 0.75
vt 1 0.75
vt 0.625 0.25
vt 0.375 0.25
vt 0.375 0
vt 0.625 0
vt 1 0.9375
vt 0.5 0.9375
vt 0.5 0.6875
vt 1 0.6875
vt 0.5625 0.25
vt 0.3125 0.25
vt 0.3125 0
vt 0.5625 0
vt 1 0.9375
vt 0.5 0.9375
vt 0.5 0.6875
vt 1 0.6875
vt 1 1
vt 0.5 1
vt 0.5 0.75
vt 1 0.75
vn 0 0 -1
vn 1 0 0
vn 0 0 1
vn -1 0 0
vn 0 1 0
vn 0 -1 0
usemtl m_0
f 60/160/40 63/159/40 61/158/40 58/157/40
f 59/164/41 60/163/41 58/162/41 57/161/41
f 64/168/42 59/167/42 57/166/42 62/165/42
f 63/172/43 64/171/43 62/170/43 61/169/43
f 62/176/44 57/175/44 58/174/44 61/173/44
f 63/180/45 60/179/45 59/178/45 64/177/45
o sandbag
v 0.25 1 0
v 0.25 1 -0.25
v 0.25 0.75 0
v 0.25 0.75 -0.25
v -0.25 1 -0.25
v -0.25 1 0
v -0.25 0.75 -0.25
v -0.25 0.75 0
vt 0.5 1
vt 0 1
vt 0 0.75
vt 0.5 0.75
vt 0.25 0.25
vt 0 0.25
vt 0 0
vt 0.25 0
vt 0.5 1
vt 0 1
vt 0 0.75
vt 0.5 0.75
vt 0.3125 0.25
vt 0.0625 0.25
vt 0.0625 0
vt 0.3125 0
vt 0.5 0.9375
vt 0 0.9375
vt 0 0.6875
vt 0.5 0.6875
vt 0.5 1
vt 0 1
vt 0 0.75
vt 0.5 0.75
vn 0 0 -1
vn 1 0 0
vn 0 0 1
vn -1 0 0
vn 0 1 0
vn 0 -1 0
usemtl m_0
f 68/184/46 71/183/46 69/182/46 66/181/46
f 67/188/47 68/187/47 66/186/47 65/185/47
f 72/192/48 67/191/48 65/190/48 70/189/48
f 71/196/49 72/195/49 70/194/49 69/193/49
f 70/200/50 65/199/50 66/198/50 69/197/50
f 71/204/51 68/203/51 67/202/51 72/201/51
o sandbag
v 0.5 0.75 0.0625
v 0.5 0.75 -0.25
v 0.5 0.5 0.0625
v 0.5 0.5 -0.25
v 0 0.75 -0.25
v 0 0.75 0.0625
v 0 0.5 -0.25
v 0 0.5 0.0625
vt 1 0.9375
vt 0.5 0.9375
vt 0.5 0.6875
vt 1 0.6875
vt 0.625 0.25
vt 0.3125 0.25
vt 0.3125 0
vt 0.625 0
vt 1 1
vt 0.5 1
vt 0.5 0.75
vt 1 0.75
vt 0.625 0.25
vt 0.3125 0.25
vt 0.3125 0
vt 0.625 0
vt 1 1
vt 0.5 1
vt 0.5 0.6875
vt 1 0.6875
vt 1 1
vt 0.5 1
vt 0.5 0.6875
vt 1 0.6875
vn 0 0 -1
vn 1 0 0
vn 0 0 1
vn -1 0 0
vn 0 1 0
vn 0 -1 0
usemtl m_0
f 76/208/52 79/207/52 77/206/52 74/205/52
f 75/212/53 76/211/53 74/210/53 73/209/53
f 80/216/54 75/215/54 73/214/54 78/213/54
f 79/220/55 80/219/55 78/218/55 77/217/55
f 78/224/56 73/223/56 74/222/56 77/221/56
f 79/228/57 76/227/57 75/226/57 80/225/57
o sandbag
v 0.25 0.5 0
v 0.25 0.5 -0.25
v 0.25 0.25 0
v 0.25 0.25 -0.25
v -0.25 0.5 -0.25
v -0.25 0.5 0
v -0.25 0.25 -0.25
v -0.25 0.25 0
vt 0.5 0.625
vt 0 0.625
vt 0 0.375
vt 0.5 0.375
vt 0.9375 0.25
vt 0.6875 0.25
vt 0.6875 0
vt 0.9375 0
vt 0.5 0.6875
vt 0 0.6875
vt 0 0.4375
vt 0.5 0.4375
vt 0.875 0.25
vt 0.625 0.25
vt 0.625 0
vt 0.875 0
vt 0.5 0.6875
vt 0 0.6875
vt 0 0.4375
vt 0.5 0.4375
vt 0.5 0.625
vt 0 0.625
vt 0 0.375
vt 0.5 0.375
vn 0 0 -1
vn 1 0 0
vn 0 0 1
vn -1 0 0
vn 0 1 0
vn 0 -1 0
usemtl m_0
f 84/232/58 87/231/58 85/230/58 82/229/58
f 83/236/59 84/235/59 82/234/59 81/233/59
f 88/240/60 83/239/60 81/238/60 86/237/60
f 87/244/61 88/243/61 86/242/61 85/241/61
f 86/248/62 81/247/62 82/246/62 85/245/62
f 87/252/63 84/251/63 83/250/63 88/249/63
o sandbag
v -0.25 0.25 0.25
v -0.25 0.25 -0.25
v -0.25 0 0.25
v -0.25 0 -0.25
v -0.5625 0.25 -0.25
v -0.5625 0.25 0.25
v -0.5625 0 -0.25
v -0.5625 0 0.25
vt 0.625 0.25
vt 0.3125 0.25
vt 0.3125 0
vt 0.625 0
vt 0.625 0.25
vt 0.3125 0.25
vt 0.3125 0
vt 0.625 0
vt 0.5 1
vt 0 1
vt 0 0.75
vt 0.5 0.75
vt 0 1
vt 0 0.6875
vt 0.5 0.6875
vt 0.5 1
vt 0 1
vt 0 0.6875
vt 0.5 0.6875
vt 0.5 1
vn 0 0 -1
vn 0 0 1
vn -1 0 0
vn 0 1 0
vn 0 -1 0
usemtl m_0
f 92/256/64 95/255/64 93/254/64 90/253/64
f 96/260/65 91/259/65 89/258/65 94/257/65
f 95/264/66 96/263/66 94/262/66 93/261/66
f 94/268/67 89/267/67 90/266/67 93/265/67
f 95/272/68 92/271/68 91/270/68 96/269/68
o sandbag
v 0 0.25 0.25
v 0 0.25 -0.25
v 0 0 0.25
v 0 0 -0.25
v -0.25 0.25 -0.25
v -0.25 0.25 0.25
v -0.25 0 -0.25
v -0.25 0 0.25
vt 0.625 0.25
vt 0.375 0.25
vt 0.375 0
vt 0.625 0
vt 1 1
vt 0.5 1
vt 0.5 0.75
vt 1 0.75
vt 0.625 0.25
vt 0.375 0.25
vt 0.375 0
vt 0.625 0
vt 1 1
vt 0.5 1
vt 0.5 0.75
vt 1 0.75
vt 0.5 1
vt 0.5 0.75
vt 1 0.75
vt 1 1
vt 0.5 1
vt 0.5 0.75
vt 1 0.75
vt 1 1
vn 0 0 -1
vn 1 0 0
vn 0 0 1
vn -1 0 0
vn 0 1 0
vn 0 -1 0
usemtl m_0
f 100/276/69 103/275/69 101/274/69 98/273/69
f 99/280/70 100/279/70 98/278/70 97/277/70
f 104/284/71 99/283/71 97/282/71 102/281/71
f 103/288/72 104/287/72 102/286/72 101/285/72
f 102/292/73 97/291/73 98/290/73 101/289/73
f 103/296/74 100/295/74 99/294/74 104/293/74
o sandbag
v 0 0.25 0.5
v 0 0.25 0.25
v 0 0 0.5
v 0 0 0.25
v -0.5 0.25 0.25
v -0.5 0.25 0.5
v -0.5 0 0.25
v -0.5 0 0.5
vt 0.5 0.625
vt 0 0.625
vt 0 0.375
vt 0.5 0.375
vt 0.875 0.25
vt 0.625 0.25
vt 0.625 0
vt 0.875 0
vt 0.5 0.625
vt 0 0.625
vt 0 0.375
vt 0.5 0.375
vt 0.875 0.25
vt 0.625 0.25
vt 0.625 0
vt 0.875 0
vt 0.5 0.625
vt 0 0.625
vt 0 0.375
vt 0.5 0.375
vt 0.5 0.625
vt 0 0.625
vt 0 0.375
vt 0.5 0.375
vn 0 0 -1
vn 1 0 0
vn 0 0 1
vn -1 0 0
vn 0 1 0
vn 0 -1 0
usemtl m_0
f 108/300/75 111/299/75 109/298/75 106/297/75
f 107/304/76 108/303/76 106/302/76 105/301/76
f 112/308/77 107/307/77 105/306/77 110/305/77
f 111/312/78 112/311/78 110/310/78 109/309/78
f 110/316/79 105/315/79 106/314/79 109/313/79
f 111/320/80 108/319/80 107/318/80 112/317/80
o sandbag
v -0.2905434444149124 0.5 0.02809955573525459
v -0.20371935558144727 0.5 -0.4643043207708494
v -0.2905434444149124 0.25 0.02809955573525459
v -0.20371935558144727 0.25 -0.4643043207708494
v -0.44992129383449925 0.5 -0.507716365187582
v -0.5367453826679645 0.5 -0.015312488681477998
v -0.44992129383449925 0.25 -0.507716365187582
v -0.5367453826679645 0.25 -0.015312488681477998
vt 0.875 0.25
vt 0.625 0.25
vt 0.625 0
vt 0.875 0
vt 0.5 0.6875
vt 0 0.6875
vt 0 0.4375
vt 0.5 0.4375
vt 0.875 0.25
vt 0.625 0.25
vt 0.625 0
vt 0.875 0
vt 0.5 0.6875
vt 0 0.6875
vt 0 0.4375
vt 0.5 0.4375
vt 0 0.6875
vt 0 0.4375
vt 0.5 0.4375
vt 0.5 0.6875
vt 0 0.6875
vt 0 0.4375
vt 0.5 0.4375
vt 0.5 0.6875
vn 0.17364817766693033 0 -0.984807753012208
vn 0.984807753012208 0 0.17364817766693033
vn -0.17364817766693033 0 0.984807753012208
vn -0.984807753012208 0 -0.17364817766693033
vn 0 1 0
vn 0 -1 0
usemtl m_0
f 116/324/81 119/323/81 117/322/81 114/321/81
f 115/328/82 116/327/82 114/326/82 113/325/82
f 120/332/83 115/331/83 113/330/83 118/329/83
f 119/336/84 120/335/84 118/334/84 117/333/84
f 118/340/85 113/339/85 114/338/85 117/337/85
f 119/344/86 116/343/86 115/342/86 120/341/86
o sandbag
v 0.75 1 -0.25
v 0.75 1 -0.5625
v 0.75 0.75 -0.25
v 0.75 0.75 -0.5625
v 0.25 1 -0.5625
v 0.25 1 -0.25
v 0.25 0.75 -0.5625
v 0.25 0.75 -0.25
vt 0.5 1
vt 0 1
vt 0 0.75
vt 0.5 0.75
vt 0.3125 0.25
vt 0 0.25
vt 0 0
vt 0.3125 0
vt 0.5 1
vt 0 1
vt 0 0.75
vt 0.5 0.75
vt 0.3125 0.25
vt 0 0.25
vt 0 0
vt 0.3125 0
vt 0.5 1
vt 0 1
vt 0 0.6875
vt 0.5 0.6875
vt 0.5 1
vt 0 1
vt 0 0.6875
vt 0.5 0.6875
vn 0 0 -1
vn 1 0 0
vn 0 0 1
vn -1 0 0
vn 0 1 0
vn 0 -1 0
usemtl m_0
f 124/348/87 127/347/87 125/346/87 122/345/87
f 123/352/88 124/351/88 122/350/88 121/349/88
f 128/356/89 123/355/89 121/354/89 126/353/89
f 127/360/90 128/359/90 126/358/90 125/357/90
f 126/364/91 121/363/91 122/362/91 125/361/91
f 127/368/92 124/367/92 123/366/92 128/365/92
o sandbag
v 0.764176989370959 1 -0.033700940383286596
v 0.7315454413159461 1 -0.2815621557267392
v 0.764176989370959 0.75 -0.033700940383286596
v 0.7315454413159461 0.75 -0.2815621557267392
v 0.23582301062904099 1 -0.21629905961671342
v 0.2684545586840539 1 0.031562155726739205
v 0.23582301062904099 0.75 -0.21629905961671342
v 0.2684545586840539 0.75 0.031562155726739205
vt 0.5 0.625
vt 0 0.625
vt 0 0.375
vt 0.5 0.375
vt 0.875 0.25
vt 0.625 0.25
vt 0.625 0
vt 0.875 0
vt 0.5 0.6875
vt 0 0.6875
vt 0 0.4375
vt 0.5 0.4375
vt 0.9375 0.25
vt 0.6875 0.25
vt 0.6875 0
vt 0.9375 0
vt 0.5 0.6875
vt 0 0.6875
vt 0 0.4375
vt 0.5 0.4375
vt 0.5 0.625
vt 0 0.625
vt 0 0.375
vt 0.5 0.375
vn -0.13052619222005157 0 -0.9914448613738104
vn 0.9914448613738104 0 -0.13052619222005157
vn 0.13052619222005157 0 0.9914448613738104
vn -0.9914448613738104 0 0.13052619222005157
vn 0 1 0
vn 0 -1 0
usemtl m_0
f 132/372/93 135/371/93 133/370/93 130/369/93
f 131/376/94 132/375/94 130/374/94 129/373/94
f 136/380/95 131/379/95 129/378/95 134/377/95
f 135/384/96 136/383/96 134/382/96 133/381/96
f 134/388/97 129/387/97 130/386/97 133/385/97
f 135/392/98 132/391/98 131/390/98 136/389/98
o sandbag
v -0.25 1 0.0625
v -0.25 1 -0.4375
v -0.25 0.75 0.0625
v -0.25 0.75 -0.4375
v -0.5625 1 -0.4375
v -0.5625 1 0.0625
v -0.5625 0.75 -0.4375
v -0.5625 0.75 0.0625
vt 0.9375 0.25
vt 0.625 0.25
vt 0.625 0
vt 0.9375 0
vt 1 1
vt 0.5 1
vt 0.5 0.75
vt 1 0.75
vt 0.625 0.25
vt 0.3125 0.25
vt 0.3125 0
vt 0.625 0
vt 0.5 0.75
vt 1 0.75
vt 1 1
vt 0.5 1
vt 0.5 1
vt 0.5 0.6875
vt 1 0.6875
vt 1 1
vt 0.5 1
vt 0.5 0.6875
vt 1 0.6875
vt 1 1
vn 0 0 -1
vn 1 0 0
vn 0 0 1
vn -1 0 0
vn 0 1 0
vn 0 -1 0
usemtl m_0
f 140/396/99 143/395/99 141/394/99 138/393/99
f 139/400/100 140/399/100 138/398/100 137/397/100
f 144/404/101 139/403/101 137/402/101 142/401/101
f 143/408/102 144/407/102 142/406/102 141/405/102
f 142/412/103 137/411/103 138/410/103 141/409/103
f 143/416/104 140/415/104 139/414/104 144/413/104
o sandbag
v 0 0.5 0.25
v 0 0.5 0
v 0 0.25 0.25
v 0 0.25 0
v -0.5 0.5 0
v -0.5 0.5 0.25
v -0.5 0.25 0
v -0.5 0.25 0.25
vt 0.5 1
vt 0 1
vt 0 0.75
vt 0.5 0.75
vt 0.3125 0.25
vt 0.0625 0.25
vt 0.0625 0
vt 0.3125 0
vt 0.5 1
vt 0 1
vt 0 0.75
vt 0.5 0.75
vt 0.3125 0.25
vt 0.0625 0.25
vt 0.0625 0
vt 0.3125 0
vt 0.5 1
vt 0 1
vt 0 0.75
vt 0.5 0.75
vt 0.5 1
vt 0 1
vt 0 0.75
vt 0.5 0.75
vn 0 0 -1
vn 1 0 0
vn 0 0 1
vn -1 0 0
vn 0 1 0
vn 0 -1 0
usemtl m_0
f 148/420/105 151/419/105 149/418/105 146/417/105
f 147/424/106 148/423/106 146/422/106 145/421/106
f 152/428/107 147/427/107 145/426/107 150/425/107
f 151/432/108 152/431/108 150/430/108 149/429/108
f 150/436/109 145/435/109 146/434/109 149/433/109
f 151/440/110 148/439/110 147/438/110 152/437/110
o sandbag
v 0.7170190500377205 0.5 0.05114690437451738
v 0.7711289535222462 0.5 -0.19292709740546596
v 0.7170190500377205 0.25 0.05114690437451738
v 0.7711289535222462 0.25 -0.19292709740546596
v 0.2829809499622795 0.5 -0.3011469043745174
v 0.2288710464777538 0.5 -0.05707290259453404
v 0.2829809499622795 0.25 -0.3011469043745174
v 0.2288710464777538 0.25 -0.05707290259453404
vt 0.5 1
vt 0 1
vt 0 0.75
vt 0.5 0.75
vt 0.3125 0.25
vt 0.0625 0.25
vt 0.0625 0
vt 0.3125 0
vt 0.5 1
vt 0 1
vt 0 0.75
vt 0.5 0.75
vt 0.3125 0.25
vt 0.0625 0.25
vt 0.0625 0
vt 0.3125 0
vt 0.5 1
vt 0 1
vt 0 0.75
vt 0.5 0.75
vt 0.5 1
vt 0 1
vt 0 0.75
vt 0.5 0.75
vn 0.21643961393810288 0 -0.9762960071199334
vn 0.9762960071199334 0 0.21643961393810288
vn -0.21643961393810288 0 0.9762960071199334
vn -0.9762960071199334 0 -0.21643961393810288
vn 0 1 0
vn 0 -1 0
usemtl m_0
f 156/444/111 159/443/111 157/442/111 154/441/111
f 155/448/112 156/447/112 154/446/112 153/445/112
f 160/452/113 155/451/113 153/450/113 158/449/113
f 159/456/114 160/455/114 158/454/114 157/453/114
f 158/460/115 153/459/115 154/458/115 157/457/115
f 159/464/116 156/463/116 155/462/116 160/461/116
o sandbag
v 0.75 0.5 -0.25
v 0.75 0.5 -0.5625
v 0.75 0.25 -0.25
v 0.75 0.25 -0.5625
v 0.25 0.5 -0.5625
v 0.25 0.5 -0.25
v 0.25 0.25 -0.5625
v 0.25 0.25 -0.25
vt 0.5 0.625
vt 0 0.625
vt 0 0.375
vt 0.5 0.375
vt 0.9375 0.25
vt 0.625 0.25
vt 0.625 0
vt 0.9375 0
vt 0.5 0.625
vt 0 0.625
vt 0 0.375
vt 0.5 0.375
vt 0.9375 0.25
vt 0.625 0.25
vt 0.625 0
vt 0.9375 0
vt 0.5 0.6875
vt 0 0.6875
vt 0 0.375
vt 0.5 0.375
vt 0.5 0.6875
vt 0 0.6875
vt 0 0.375
vt 0.5 0.375
vn 0 0 -1
vn 1 0 0
vn 0 0 1
vn -1 0 0
vn 0 1 0
vn 0 -1 0
usemtl m_0
f 164/468/117 167/467/117 165/466/117 162/465/117
f 163/472/118 164/471/118 162/470/118 161/469/118
f 168/476/119 163/475/119 161/474/119 166/473/119
f 167/480/120 168/479/120 166/478/120 165/477/120
f 166/484/121 161/483/121 162/482/121 165/481/121
f 167/488/122 164/487/122 163/486/122 168/485/122
o sandbag
v 0 0.75 0.5
v 0 0.75 0
v 0 0.5 0.5
v 0 0.5 0
v -0.25 0.75 0
v -0.25 0.75 0.5
v -0.25 0.5 0
v -0.25 0.5 0.5
vt 0.9375 0.25
vt 0.6875 0.25
vt 0.6875 0
vt 0.9375 0
vt 0.5 0.6875
vt 0 0.6875
vt 0 0.4375
vt 0.5 0.4375
vt 0.9375 0.25
vt 0.6875 0.25
vt 0.6875 0
vt 0.9375 0
vt 0.5 0.6875
vt 0 0.6875
vt 0 0.4375
vt 0.5 0.4375
vt 0 0.625
vt 0 0.375
vt 0.5 0.375
vt 0.5 0.625
vt 0 0.625
vt 0 0.375
vt 0.5 0.375
vt 0.5 0.625
vn 0 0 -1
vn 1 0 0
vn 0 0 1
vn -1 0 0
vn 0 1 0
vn 0 -1 0
usemtl m_0
f 172/492/123 175/491/123 173/490/123 170/489/123
f 171/496/124 172/495/124 170/494/124 169/493/124
f 176/500/125 171/499/125 169/498/125 174/497/125
f 175/504/126 176/503/126 174/502/126 173/501/126
f 174/508/127 169/507/127 170/506/127 173/505/127
f 175/512/128 172/511/128 171/510/128 176/509/128
o sandbag
v -0.25 0.75 0.5
v -0.25 0.75 0
v -0.25 0.5 0.5
v -0.25 0.5 0
v -0.5625 0.75 0
v -0.5625 0.75 0.5
v -0.5625 0.5 0
v -0.5625 0.5 0.5
vt 0.625 0.25
vt 0.3125 0.25
vt 0.3125 0
vt 0.625 0
vt 0.5 1
vt 0 1
vt 0 0.75
vt 0.5 0.75
vt 0.625 0.25
vt 0.3125 0.25
vt 0.3125 0
vt 0.625 0
vt 0.5 1
vt 0 1
vt 0 0.75
vt 0.5 0.75
vt 0 1
vt 0 0.6875
vt 0.5 0.6875
vt 0.5 1
vt 0 1
vt 0 0.6875
vt 0.5 0.6875
vt 0.5 1
vn 0 0 -1
vn 1 0 0
vn 0 0 1
vn -1 0 0
vn 0 1 0
vn 0 -1 0
usemtl m_0
f 180/516/129 183/515/129 181/514/129 178/513/129
f 179/520/130 180/519/130 178/518/130 177/517/130
f 184/524/131 179/523/131 177/522/131 182/521/131
f 183/528/132 184/527/132 182/526/132 181/525/132
f 182/532/133 177/531/133 178/530/133 181/529/133
f 183/536/134 180/535/134 179/534/134 184/533/134
o sandbag
v -0.03125 1.015625 0.25
v -0.03125 1.015625 0
v -0.03125 0.75 0.25
v -0.03125 0.75 0
v -0.53125 1.015625 0
v -0.53125 1.015625 0.25
v -0.53125 0.75 0
v -0.53125 0.75 0.25
vt 1 1
vt 0.5 1
vt 0.5 0.75
vt 1 0.75
vt 0.5625 0.25
vt 0.3125 0.25
vt 0.3125 0
vt 0.5625 0
vt 1 1
vt 0.5 1
vt 0.5 0.75
vt 1 0.75
vt 0.5625 0.25
vt 0.3125 0.25
vt 0.3125 0
vt 0.5625 0
vt 1 1
vt 0.5 1
vt 0.5 0.75
vt 1 0.75
vt 1 1
vt 0.5 1
vt 0.5 0.75
vt 1 0.75
vn 0 0 -1
vn 1 0 0
vn 0 0 1
vn -1 0 0
vn 0 1 0
vn 0 -1 0
usemtl m_0
f 188/540/135 191/539/135 189/538/135 186/537/135
f 187/544/136 188/543/136 186/542/136 185/541/136
f 192/548/137 187/547/137 185/546/137 190/545/137
f 191/552/138 192/551/138 190/550/138 189/549/138
f 190/556/139 185/555/139 186/554/139 189/553/139
f 191/560/140 188/559/140 187/558/140 192/557/140
o sandbag
v -0.25 1 -0.4375
v -0.25 1 -0.5625
v -0.25 0.75 -0.4375
v -0.25 0.75 -0.5625
v -0.5625 1 -0.5625
v -0.5625 1 -0.4375
v -0.5625 0.75 -0.5625
v -0.5625 0.75 -0.4375
vt 0.9375 0.25
vt 0.625 0.25
vt 0.625 0
vt 0.9375 0
vt 1 1
vt 0.875 1
vt 0.875 0.75
vt 1 0.75
vt 0.625 0.25
vt 0.3125 0.25
vt 0.3125 0
vt 0.625 0
vt 0.875 0.75
vt 1 0.75
vt 1 1
vt 0.875 1
vt 0.875 1
vt 0.875 0.6875
vt 1 0.6875
vt 1 1
vt 0.875 1
vt 0.875 0.6875
vt 1 0.6875
vt 1 1
vn 0 0 -1
vn 1 0 0
vn 0 0 1
vn -1 0 0
vn 0 1 0
vn 0 -1 0
usemtl m_0
f 196/564/141 199/563/141 197/562/141 194/561/141
f 195/568/142 196/567/142 194/566/142 193/565/142
f 200/572/143 195/571/143 193/570/143 198/569/143
f 199/576/144 200/575/144 198/574/144 197/573/144
f 198/580/145 193/579/145 194/578/145 197/577/145
f 199/584/146 196/583/146 195/582/146 200/581/146