# Made by Pabilo8 with Blockbench
# Exported with IIToolkit Plugin on 23/09/2026
mtllib clipboard.mtl

o clipboard
v 0.3125 0.5625 0.3125
v 0.3125 0.5625 -0.375
v 0.3125 0.5 0.3125
v 0.3125 0.5 -0.375
v -0.25 0.5625 0.3125
v -0.25 0.5625 -0.375
v -0.25 0.5 0.3125
v -0.25 0.5 -0.375
v 0.3396 0.5218 0.0313
v 0.3728 0.5339 -0.0312
v 0.3343 0.5104 0.0313
v 0.3464 0.4772 -0.0312
v 0.3282 0.5271 0.0313
v 0.3161 0.5603 -0.0312
v 0.3229 0.5157 0.0313
v 0.2897 0.5036 -0.0312
v 0.3728 0.5339 -0.0312
v 0.3728 0.5339 -0.3437
v 0.3464 0.4772 -0.0312
v 0.3464 0.4772 -0.3437
v 0.3161 0.5603 -0.0312
v 0.3161 0.5603 -0.3437
v 0.2897 0.5036 -0.0312
v 0.2897 0.5036 -0.3437
v 0.3811 0.5369 -0.0937
v 0.3811 0.5369 -0.1562
v 0.3494 0.4689 -0.0937
v 0.3494 0.4689 -0.1562
v 0.3131 0.5686 -0.0937
v 0.3131 0.5686 -0.1562
v 0.2814 0.5006 -0.0937
v 0.2814 0.5006 -0.1562
v 0.3811 0.5369 -0.2187
v 0.3811 0.5369 -0.2812
v 0.3494 0.4689 -0.2187
v 0.3494 0.4689 -0.2812
v 0.3131 0.5686 -0.2187
v 0.3131 0.5686 -0.2812
v 0.2814 0.5006 -0.2187
v 0.2814 0.5006 -0.2812
v 0.1875 0.6615 0.342
v 0.1875 0.648 0.281
v 0.1875 0.5395 0.369
v 0.1875 0.526 0.308
v -0.125 0.6615 0.342
v -0.125 0.648 0.281
v -0.125 0.5395 0.369
v -0.125 0.526 0.308
vt 0.6875 0.3125
vt 0.625 0.3125
vt 0.625 1
vt 0.6875 1
vt 0.6875 1
vt 0.625 1
vt 0.625 0.3125
vt 0.6875 0.3125
vt 0.5625 0.3125
vt 0.5625 1
vt 0 1
vt 0 0.3125
vt 0.5625 0.3125
vt 0.5625 1
vt 0 1
vt 0 0.3125
vt 0.5625 0.2813
vt 0.5625 0.3438
vt 0 0.3438
vt 0 0.2813
vt 0.5625 0.2813
vt 0.5625 0.3438
vt 0 0.3438
vt 0 0.2813
vt 0.8125 0.9375
vt 0.875 0.9375
vt 0.85 1
vt 0.8375 1
vt 0.8375 1
vt 0.85 1
vt 0.875 0.9375
vt 0.8125 0.9375
vt 0.85 1
vt 0.875 0.9375
vt 0.8125 0.9375
vt 0.8375 1
vt 0.875 0.9375
vt 0.85 1
vt 0.8375 1
vt 0.8125 0.9375
vt 0.825 0.9875
vt 0.825 1
vt 0.8125 1
vt 0.8125 0.9875
vt 0.5625 0.6875
vt 0.625 0.6875
vt 0.625 1
vt 0.5625 1
vt 0.5625 1
vt 0.625 1
vt 0.625 0.6875
vt 0.5625 0.6875
vt 0.625 1
vt 0.625 0.6875
vt 0.5625 0.6875
vt 0.5625 1
vt 0.625 0.6875
vt 0.625 1
vt 0.5625 1
vt 0.5625 0.6875
vt 0.625 0.6875
vt 0.625 0.75
vt 0.5625 0.75
vt 0.5625 0.6875
vt 0.6875 0.7813
vt 0.75 0.7813
vt 0.75 0.8438
vt 0.6875 0.8438
vt 0.75 0.8438
vt 0.6875 0.8438
vt 0.6875 0.7813
vt 0.75 0.7813
vt 0.75 0.8438
vt 0.75 0.7813
vt 0.6875 0.7813
vt 0.6875 0.8438
vt 0.6875 0.8438
vt 0.6875 0.7813
vt 0.75 0.7813
vt 0.75 0.8438
vt 0.6875 0.7813
vt 0.75 0.7813
vt 0.75 0.8438
vt 0.6875 0.8438
vt 0.75 0.8438
vt 0.6875 0.8438
vt 0.6875 0.7813
vt 0.75 0.7813
vt 0.75 0.8438
vt 0.75 0.7813
vt 0.6875 0.7813
vt 0.6875 0.8438
vt 0.6875 0.8438
vt 0.6875 0.7813
vt 0.75 0.7813
vt 0.75 0.8438
vt 0.6875 0.9375
vt 0.8125 0.9375
vt 0.8125 1
vt 0.6875 1
vt 0.6875 1
vt 0.8125 1
vt 0.8125 0.9375
vt 0.6875 0.9375
vt 0.8125 1
vt 0.75 1
vt 0.75 0.6875
vt 0.8125 0.6875
vt 0.6875 0.6875
vt 0.75 0.6875
vt 0.75 1
vt 0.6875 1
vt 0.6875 1
vt 0.8125 1
vt 0.8125 0.6875
vt 0.6875 0.6875
vt 0.6875 0.6875
vt 0.8125 0.6875
vt 0.8125 1
vt 0.6875 1
vn 1 0 0
vn -1 0 0
vn 0 1 0
vn 0 -1 0
vn 0 0 1
vn 0 0 -1
vn 0.84 -0.39 0.37
vn -0.84 0.39 0.37
vn 0.39 0.84 0.37
vn -0.39 -0.84 0.37
vn 0 0 1
vn 0.91 -0.42 0
vn -0.91 0.42 0
vn 0.42 0.91 0
vn -0.42 -0.91 0
vn 0 0 -1
vn 0.91 -0.42 0
vn -0.91 0.42 0
vn 0.42 0.91 0
vn -0.42 -0.91 0
vn 0.91 -0.42 0
vn -0.91 0.42 0
vn 0.42 0.91 0
vn -0.42 -0.91 0
vn 1 0 0
vn -1 0 0
vn 0 0.98 -0.22
vn 0 -0.98 0.22
vn 0 0.22 0.98
vn 0 -0.22 -0.98
usemtl clipboard1
f 4/1/1 2/2/1 1/3/1
f 4/1/1 1/3/1 3/4/1
f 7/5/2 5/6/2 6/7/2
f 7/5/2 6/7/2 8/8/2
f 1/9/3 2/10/3 6/11/3
f 1/9/3 6/11/3 5/12/3
f 4/13/4 3/14/4 7/15/4
f 4/13/4 7/15/4 8/16/4
f 3/17/5 1/18/5 5/19/5
f 3/17/5 5/19/5 7/20/5
f 8/21/6 6/22/6 2/23/6
f 8/21/6 2/23/6 4/24/6
f 12/25/7 10/26/7 9/27/7
f 12/25/7 9/27/7 11/28/7
f 15/29/8 13/30/8 14/31/8
f 15/29/8 14/31/8 16/32/8
f 9/33/9 10/34/9 14/35/9
f 9/33/9 14/35/9 13/36/9
f 12/37/10 11/38/10 15/39/10
f 12/37/10 15/39/10 16/40/10
f 11/41/11 9/42/11 13/43/11
f 11/41/11 13/43/11 15/44/11
f 20/45/12 18/46/12 17/47/12
f 20/45/12 17/47/12 19/48/12
f 23/49/13 21/50/13 22/51/13
f 23/49/13 22/51/13 24/52/13
f 17/53/14 18/54/14 22/55/14
f 17/53/14 22/55/14 21/56/14
f 20/57/15 19/58/15 23/59/15
f 20/57/15 23/59/15 24/60/15
f 24/61/16 22/62/16 18/63/16
f 24/61/16 18/63/16 20/64/16
f 28/65/17 26/66/17 25/67/17
f 28/65/17 25/67/17 27/68/17
f 31/69/18 29/70/18 30/71/18
f 31/69/18 30/71/18 32/72/18
f 25/73/19 26/74/19 30/75/19
f 25/73/19 30/75/19 29/76/19
f 28/77/20 27/78/20 31/79/20
f 28/77/20 31/79/20 32/80/20
f 36/81/21 34/82/21 33/83/21
f 36/81/21 33/83/21 35/84/21
f 39/85/22 37/86/22 38/87/22
f 39/85/22 38/87/22 40/88/22
f 33/89/23 34/90/23 38/91/23
f 33/89/23 38/91/23 37/92/23
f 36/93/24 35/94/24 39/95/24
f 36/93/24 39/95/24 40/96/24
f 44/97/25 42/98/25 41/99/25
f 44/97/25 41/99/25 43/100/25
f 47/101/26 45/102/26 46/103/26
f 47/101/26 46/103/26 48/104/26
f 41/105/27 42/106/27 46/107/27
f 41/105/27 46/107/27 45/108/27
f 44/109/28 43/110/28 47/111/28
f 44/109/28 47/111/28 48/112/28
f 43/113/29 41/114/29 45/115/29
f 43/113/29 45/115/29 47/116/29
f 48/117/30 46/118/30 42/119/30
f 48/117/30 42/119/30 44/120/30
o page1
v 0.25 0.625 0.3125
v 0.25 0.625 -0.3437
v -0.1875 0.625 0.3125
v -0.1875 0.625 -0.3437
v -0.1875 0.5938 0.3125
v -0.1875 0.5938 -0.3437
v 0.25 0.5938 -0.3437
v 0.25 0.5938 0.3125
v 0.3421 0.6007 0.2552
v 0.3288 0.6034 0.1942
v 0.2205 0.6116 0.2822
v 0.2072 0.6143 0.2211
vt 0.4063 1
vt 0.4375 1
vt 0.4375 0.3438
vt 0.4063 0.3438
vt 0.4063 0.3438
vt 0.4375 0.3438
vt 0.4375 1
vt 0.4063 1
vt 0.4375 0.3438
vt 0.4375 1
vt 0 1
vt 0 0.3438
vt 0 0.3438
vt 0 0.3125
vt 0.4375 0.3125
vt 0.4375 0.3438
vt 0 0.3438
vt 0 0.3125
vt 0.4375 0.3125
vt 0.4375 0.3438
vt 0 1
vt 0 0.3438
vt 0.4375 0.3438
vt 0.4375 1
vt 0.9375 0.8125
vt 0.9375 0.875
vt 0.8125 0.875
vt 0.8125 0.8125
vn 1 0 0
vn -1 0 0
vn 0 1 0
vn 0 0 1
vn 0 0 -1
vn 0 -1 0
vn 0.09 1 0.02
usemtl clipboard2
f 49/121/31 56/122/31 55/123/31
f 49/121/31 55/123/31 50/124/31
f 52/125/32 54/126/32 53/127/32
f 52/125/32 53/127/32 51/128/32
f 49/129/33 50/130/33 52/131/33
f 49/129/33 52/131/33 51/132/33
f 51/133/34 53/134/34 56/135/34
f 51/133/34 56/135/34 49/136/34
f 50/137/35 55/138/35 54/139/35
f 50/137/35 54/139/35 52/140/35
f 53/141/36 54/142/36 55/143/36
f 53/141/36 55/143/36 56/144/36
usemtl clipboard1
f 57/145/37 58/146/37 60/147/37
f 57/145/37 60/147/37 59/148/37
o page2
v 0.25 0.5938 0.3125
v 0.25 0.5938 -0.3437
v -0.1875 0.5938 0.3125
v -0.1875 0.5938 -0.3437
v -0.1875 0.5625 0.3125
v -0.1875 0.5625 -0.3437
v 0.25 0.5625 -0.3437
v 0.25 0.5625 0.3125
v 0.3048 0.584 0.1831
v 0.3103 0.584 0.1208
v 0.1804 0.5785 0.1722
v 0.1858 0.5785 0.1099
v 0.3427 0.6079 0.0791
v 0.3378 0.6046 0.0169
v 0.2187 0.5966 0.0896
v 0.2137 0.5933 0.0274
vt 0.4375 1
vt 0.4688 1
vt 0.4688 0.3438
vt 0.4375 0.3438
vt 0.4375 0.3438
vt 0.4688 0.3438
vt 0.4688 1
vt 0.4375 1
vt 0.4375 0.3438
vt 0.4375 1
vt 0 1
vt 0 0.3438
vt 0 0.3125
vt 0 0.2813
vt 0.4375 0.2813
vt 0.4375 0.3125
vt 0 0.3125
vt 0 0.2813
vt 0.4375 0.2813
vt 0.4375 0.3125
vt 0 1
vt 0 0.3438
vt 0.4375 0.3438
vt 0.4375 1
vt 0.9375 0.6875
vt 0.9375 0.75
vt 0.8125 0.75
vt 0.8125 0.6875
vt 0.9375 0.75
vt 0.9375 0.8125
vt 0.8125 0.8125
vt 0.8125 0.75
vn 1 0 0
vn -1 0 0
vn 0 1 0
vn 0 0 1
vn 0 0 -1
vn 0 -1 0
vn -0.04 1 0
vn -0.09 0.99 -0.04
usemtl clipboard2
f 61/149/38 68/150/38 67/151/38
f 61/149/38 67/151/38 62/152/38
f 64/153/39 66/154/39 65/155/39
f 64/153/39 65/155/39 63/156/39
f 61/157/40 62/158/40 64/159/40
f 61/157/40 64/159/40 63/160/40
f 63/161/41 65/162/41 68/163/41
f 63/161/41 68/163/41 61/164/41
f 62/165/42 67/166/42 66/167/42
f 62/165/42 66/167/42 64/168/42
f 65/169/43 66/170/43 67/171/43
f 65/169/43 67/171/43 68/172/43
usemtl clipboard1
f 69/173/44 70/174/44 72/175/44
f 69/173/44 72/175/44 71/176/44
f 73/177/45 74/178/45 76/179/45
f 73/177/45 76/179/45 75/180/45