# Made by Pabilo8 with Blockbench
# Exported with IIToolkit Plugin on 05/07/2026
mtllib electric_wrench.mtl

o base
v 0.0625 0.3632 -0.1349
v -0.0625 0.3632 -0.1349
v 0.0625 -0.0061 -0.0698
v -0.0625 -0.0061 -0.0698
v 0.0625 0.3849 -0.0118
v -0.0625 0.3849 -0.0118
v 0.0625 0.0156 0.0533
v -0.0625 0.0156 0.0533
v 0.125 0.375 -0.1875
v -0.125 0.375 -0.1875
v 0.125 0.3125 -0.1875
v -0.125 0.3125 -0.1875
v 0.125 0.375 0.0625
v -0.125 0.375 0.0625
v 0.125 0.3125 0.0625
v -0.125 0.3125 0.0625
v 0.0313 0.375 -0.3438
v -0.0312 0.375 -0.3438
v 0.0313 0.2813 -0.3437
v -0.0312 0.2813 -0.3437
v 0.0313 0.375 -0.2813
v -0.0312 0.375 -0.2813
v 0.0313 0.2188 -0.2813
v -0.0312 0.2188 -0.2813
v 0.0313 0.2813 -0.2813
v -0.0312 0.2813 -0.2813
v 0.0313 0.2813 -0.0938
v -0.0312 0.2813 -0.0938
v 0.0313 0.2188 -0.0938
v -0.0312 0.2188 -0.0938
v 0.125 0.625 -0.5625
v -0.125 0.625 -0.5625
v 0.125 0.375 -0.5625
v -0.125 0.375 -0.5625
v 0.125 0.625 0.0625
v -0.125 0.625 0.0625
v 0.125 0.625 0.125
v -0.125 0.625 0.125
v 0.125 0.375 0.125
v -0.125 0.375 0.125
v 0.125 0.625 0.25
v -0.125 0.625 0.25
v 0.125 0.375 0.25
v -0.125 0.375 0.25
v 0.0625 0.5625 0.0625
v -0.0625 0.5625 0.0625
v 0.0625 0.4375 0.0625
v -0.0625 0.4375 0.0625
v 0.0625 0.625 0.125
v -0.0625 0.625 0.125
v 0.0625 0.375 0.125
v -0.0625 0.375 0.125
v 0.0625 0.625 0.0625
v 0.125 0.5625 0.0625
v 0.125 0.5625 0.125
v 0.0625 0.5625 0.125
v -0.0625 0.625 0.0625
v -0.125 0.5625 0.0625
v -0.0625 0.5625 0.125
v -0.125 0.5625 0.125
v -0.125 0.4375 0.0625
v -0.0625 0.375 0.0625
v -0.0625 0.4375 0.125
v -0.125 0.4375 0.125
v 0.125 0.4375 0.0625
v 0.0625 0.375 0.0625
v 0.125 0.4375 0.125
v 0.0625 0.4375 0.125
v 0.0313 0.4002 -0.1898
v -0.0312 0.4002 -0.1898
v 0.0313 0.3311 -0.2532
v -0.0312 0.3311 -0.2532
v 0.0313 0.358 -0.1438
v -0.0312 0.358 -0.1438
v 0.0313 0.2889 -0.2071
v -0.0312 0.2889 -0.2071
v 0.0625 0.4068 0.0792
v -0.0625 0.4068 0.0792
v 0.0625 0.3111 -0.0011
v -0.0625 0.3111 -0.0011
v 0.0625 0.3667 0.1271
v -0.0625 0.3667 0.1271
v 0.0625 0.2709 0.0468
v -0.0625 0.2709 0.0468
vt 0 0.125
vt 0 0.5
vt 0.125 0.5
vt 0.125 0.125
vt 0.25 0.125
vt 0.25 0.5
vt 0.125 0.5
vt 0.125 0.125
vt 0 0.125
vt 0 0
vt 0.125 0
vt 0.125 0.125
vt 0.125 0.125
vt 0.125 0.5
vt 0.25 0.5
vt 0.25 0.125
vt 0.125 0.125
vt 0.125 0.5
vt 0 0.5
vt 0 0.125
vt 0.9375 0.25
vt 1 0.25
vt 1 0.5
vt 0.9375 0.5
vt 0.6875 0.5
vt 0.75 0.5
vt 0.75 0.25
vt 0.6875 0.25
vt 0.6875 0.25
vt 0.6875 0.5
vt 0.4375 0.5
vt 0.4375 0.25
vt 0.75 0.5
vt 0.8125 0.5
vt 0.8125 0.25
vt 0.75 0.25
vt 0.75 0.25
vt 0.8125 0.25
vt 0.8125 0.5
vt 0.75 0.5
vt 0.2813 0.6563
vt 0.2813 0.75
vt 0.2188 0.75
vt 0.2188 0.6563
vt 0.125 0.875
vt 0.125 1
vt 0 1
vt 0 0.875
vt 0.0625 0.875
vt 0.0625 1
vt 0 1
vt 0 0.875
vt 0.2813 0.6562
vt 0.2188 0.6562
vt 0.2188 0.5679
vt 0.2813 0.5679
vt 0.25 0.6563
vt 0.25 0.75
vt 0.1875 0.75
vt 0.1875 0.5938
vt 0.3125 0.5938
vt 0.3125 0.75
vt 0.25 0.75
vt 0.25 0.6563
vt 0.0625 0.9375
vt 0.0625 1
vt 0 1
vt 0 0.9375
vt 0.0625 0.9375
vt 0.0625 1
vt 0 1
vt 0 0.9375
vt 0.2813 0.5625
vt 0.2188 0.5625
vt 0.2188 0.75
vt 0.2813 0.75
vt 0.2188 0.5625
vt 0.2813 0.5625
vt 0.2813 0.75
vt 0.2188 0.75
vt 0.1875 0.5625
vt 0.25 0.5625
vt 0.25 0.75
vt 0.1875 0.75
vt 0.3125 0.75
vt 0.25 0.75
vt 0.25 0.5625
vt 0.3125 0.5625
vt 0.875 0.75
vt 0.875 1
vt 0.625 1
vt 0.625 0.75
vt 0.875 0.75
vt 0.875 1
vt 0.625 1
vt 0.625 0.75
vt 0.25 0
vt 0.25 0.25
vt 0.875 0.25
vt 0.875 0
vt 0.25 0
vt 0.25 0.25
vt 0.875 0.25
vt 0.875 0
vt 0.25 0.25
vt 0.25 0
vt 0.875 0
vt 0.875 0.25
vt 0.625 0.75
vt 0.625 1
vt 0 1
vt 0 0.75
vt 0.75 0.5
vt 0.75 0.75
vt 0.5 0.75
vt 0.5 0.5
vt 0.75 0.5
vt 0.75 0.75
vt 0.5 0.75
vt 0.5 0.5
vt 1 0
vt 1 0.25
vt 0.875 0.25
vt 0.875 0
vt 0.9375 0.25
vt 0.9375 0.5
vt 0.8125 0.5
vt 0.8125 0.25
vt 0.875 0.5
vt 0.875 0.75
vt 0.75 0.75
vt 0.75 0.5
vt 0.75 0.5
vt 0.75 0.75
vt 0.875 0.75
vt 0.875 0.5
vt 0.875 0.6875
vt 0.875 0.5625
vt 0.9375 0.5625
vt 0.9375 0.6875
vt 0.875 0.6875
vt 0.875 0.5625
vt 0.9375 0.5625
vt 0.9375 0.6875
vt 0.9375 0.5625
vt 0.9375 0.6875
vt 0.875 0.75
vt 0.875 0.5
vt 0.9375 0.5
vt 0.9375 0.75
vt 0.875 0.6875
vt 0.875 0.5625
vt 0.9375 0.75
vt 0.9375 0.6875
vt 0.875 0.6875
vt 0.875 0.75
vt 0.9375 0.6875
vt 0.9375 0.75
vt 0.875 0.75
vt 0.875 0.6875
vt 0.9375 0.6875
vt 0.9375 0.75
vt 0.875 0.75
vt 0.875 0.6875
vt 0.875 0.75
vt 0.875 0.6875
vt 0.9375 0.6875
vt 0.9375 0.75
vt 0.9375 0.6875
vt 0.9375 0.75
vt 0.875 0.75
vt 0.875 0.6875
vt 0.9375 0.6875
vt 0.9375 0.75
vt 0.875 0.75
vt 0.875 0.6875
vt 0.9375 0.6875
vt 0.9375 0.75
vt 0.875 0.75
vt 0.875 0.6875
vt 0.875 0.6875
vt 0.875 0.75
vt 0.9375 0.75
vt 0.9375 0.6875
vt 0.9375 0.5
vt 0.9375 0.5625
vt 0.875 0.5625
vt 0.875 0.5
vt 0.9375 0.5
vt 0.9375 0.5625
vt 0.875 0.5625
vt 0.875 0.5
vt 0.9375 0.5
vt 0.9375 0.5625
vt 0.875 0.5625
vt 0.875 0.5
vt 0.875 0.5
vt 0.9375 0.5
vt 0.9375 0.5625
vt 0.875 0.5625
vt 0.9375 0.5
vt 0.9375 0.5625
vt 0.875 0.5625
vt 0.875 0.5
vt 0.9375 0.5
vt 0.9375 0.5625
vt 0.875 0.5625
vt 0.875 0.5
vt 0.9375 0.5
vt 0.9375 0.5625
vt 0.875 0.5625
vt 0.875 0.5
vt 0.875 0.5625
vt 0.875 0.5
vt 0.9375 0.5
vt 0.9375 0.5625
vt 0.3125 0.6563
vt 0.3125 0.75
vt 0.375 0.75
vt 0.375 0.6563
vt 0.3125 0.6563
vt 0.3125 0.75
vt 0.375 0.75
vt 0.375 0.6563
vt 0.375 0.5938
vt 0.375 0.6563
vt 0.3125 0.6563
vt 0.3125 0.5938
vt 0.375 0.6563
vt 0.375 0.75
vt 0.3125 0.75
vt 0.3125 0.6563
vt 0.375 0.6563
vt 0.375 0.75
vt 0.3125 0.75
vt 0.3125 0.6563
vt 0.1563 0.5938
vt 0.1563 0.7188
vt 0.0313 0.7188
vt 0.0313 0.5938
vt 0.1563 0.5938
vt 0.1563 0.7188
vt 0.0313 0.7188
vt 0.0313 0.5938
vt 0.1563 0.75
vt 0.0313 0.75
vt 0.0313 0.6875
vt 0.1563 0.6875
vt 0.0313 0.5625
vt 0.1563 0.5625
vt 0.1563 0.625
vt 0.0313 0.625
vt 0.1875 0.5938
vt 0.1875 0.7188
vt 0.125 0.7188
vt 0.125 0.5938
vt 0.0625 0.5938
vt 0.0625 0.7188
vt 0 0.7188
vt 0 0.5938
vn 0 -0.17 -0.98
vn 0 0.17 0.98
vn 0 -0.98 0.17
vn 1 0 0
vn -1 0 0
vn 0 0 -1
vn 0 0 1
vn 0 -1 0
vn 1 0 0
vn -1 0 0
vn 0 0 -1
vn 0 0 1
vn 0 1 0
vn 0 -0.71 -0.71
vn 1 0 0
vn -1 0 0
vn 0 0 -1
vn 0 0 1
vn 0 1 0
vn 0 -1 0
vn 1 0 0
vn -1 0 0
vn 0 0 -1
vn 0 0 1
vn 0 1 0
vn 0 -1 0
vn 1 0 0
vn -1 0 0
vn 0 0 -1
vn 0 0 1
vn 0 1 0
vn 0 -1 0
vn 1 0 0
vn -1 0 0
vn 0 0.71 -0.71
vn 0 -0.71 -0.71
vn 1 0 0
vn -1 0 0
vn 0 1 0
vn 0 -1 0
vn 1 0 0
vn -1 0 0
vn 0 1 0
vn 0 -1 0
vn 1 0 0
vn -1 0 0
vn 0 1 0
vn 0 -1 0
vn 1 0 0
vn -1 0 0
vn 0 1 0
vn 0 -1 0
vn 1 0 0
vn -1 0 0
vn 0 0.68 -0.74
vn 0 -0.68 0.74
vn 0 -0.74 -0.68
vn 1 0 0
vn -1 0 0
vn 0 0.64 -0.77
vn 0 -0.64 0.77
vn 0 0.77 0.64
vn 0 -0.77 -0.64
vn 1 0 0
vn -1 0 0
usemtl electric_tool_base
f 4/1/1 2/2/1 1/3/1
f 4/1/1 1/3/1 3/4/1
f 7/5/2 5/6/2 6/7/2
f 7/5/2 6/7/2 8/8/2
f 4/9/3 3/10/3 7/11/3
f 4/9/3 7/11/3 8/12/3
f 3/13/4 1/14/4 5/15/4
f 3/13/4 5/15/4 7/16/4
f 8/17/5 6/18/5 2/19/5
f 8/17/5 2/19/5 4/20/5
f 12/21/6 10/22/6 9/23/6
f 12/21/6 9/23/6 11/24/6
f 15/25/7 13/26/7 14/27/7
f 15/25/7 14/27/7 16/28/7
f 12/29/8 11/30/8 15/31/8
f 12/29/8 15/31/8 16/32/8
f 11/33/9 9/34/9 13/35/9
f 11/33/9 13/35/9 15/36/9
f 16/37/10 14/38/10 10/39/10
f 16/37/10 10/39/10 12/40/10
f 20/41/11 18/42/11 17/43/11
f 20/41/11 17/43/11 19/44/11
f 23/45/12 21/46/12 22/47/12
f 23/45/12 22/47/12 24/48/12
f 17/49/13 18/50/13 22/51/13
f 17/49/13 22/51/13 21/52/13
f 20/53/14 19/54/14 23/55/14
f 20/53/14 23/55/14 24/56/14
f 19/57/15 17/58/15 21/59/15
f 19/57/15 21/59/15 23/60/15
f 24/61/16 22/62/16 18/63/16
f 24/61/16 18/63/16 20/64/16
f 24/65/17 26/66/17 25/67/17
f 24/65/17 25/67/17 23/68/17
f 29/69/18 27/70/18 28/71/18
f 29/69/18 28/71/18 30/72/18
f 25/73/19 26/74/19 28/75/19
f 25/73/19 28/75/19 27/76/19
f 24/77/20 23/78/20 29/79/20
f 24/77/20 29/79/20 30/80/20
f 23/81/21 25/82/21 27/83/21
f 23/81/21 27/83/21 29/84/21
f 30/85/22 28/86/22 26/87/22
f 30/85/22 26/87/22 24/88/22
f 34/89/23 32/90/23 31/91/23
f 34/89/23 31/91/23 33/92/23
f 13/93/24 35/94/24 36/95/24
f 13/93/24 36/95/24 14/96/24
f 31/97/25 32/98/25 36/99/25
f 31/97/25 36/99/25 35/100/25
f 34/101/26 33/102/26 13/103/26
f 34/101/26 13/103/26 14/104/26
f 33/105/27 31/106/27 35/107/27
f 33/105/27 35/107/27 13/108/27
f 14/109/28 36/110/28 32/111/28
f 14/109/28 32/111/28 34/112/28
f 40/113/29 38/114/29 37/115/29
f 40/113/29 37/115/29 39/116/29
f 43/117/30 41/118/30 42/119/30
f 43/117/30 42/119/30 44/120/30
f 37/121/31 38/122/31 42/123/31
f 37/121/31 42/123/31 41/124/31
f 40/125/32 39/126/32 43/127/32
f 40/125/32 43/127/32 44/128/32
f 39/129/33 37/130/33 41/131/33
f 39/129/33 41/131/33 43/132/33
f 44/133/34 42/134/34 38/135/34
f 44/133/34 38/135/34 40/136/34
f 45/137/35 46/138/35 50/139/35
f 45/137/35 50/139/35 49/140/35
f 48/141/36 47/142/36 51/143/36
f 48/141/36 51/143/36 52/144/36
f 47/145/37 45/146/37 49/147/37
f 47/145/37 49/147/37 51/148/37
f 52/149/38 50/150/38 46/151/38
f 52/149/38 46/151/38 48/152/38
f 35/153/39 53/154/39 49/155/39
f 35/153/39 49/155/39 37/156/39
f 45/157/40 54/158/40 55/159/40
f 45/157/40 55/159/40 56/160/40
f 54/161/41 35/162/41 37/163/41
f 54/161/41 37/163/41 55/164/41
f 56/165/42 49/166/42 53/167/42
f 56/165/42 53/167/42 45/168/42
f 57/169/43 36/170/43 38/171/43
f 57/169/43 38/171/43 50/172/43
f 58/173/44 46/174/44 59/175/44
f 58/173/44 59/175/44 60/176/44
f 46/177/45 57/178/45 50/179/45
f 46/177/45 50/179/45 59/180/45
f 60/181/46 38/182/46 36/183/46
f 60/181/46 36/183/46 58/184/46
f 48/185/47 61/186/47 64/187/47
f 48/185/47 64/187/47 63/188/47
f 14/189/48 62/190/48 52/191/48
f 14/189/48 52/191/48 40/192/48
f 62/193/49 48/194/49 63/195/49
f 62/193/49 63/195/49 52/196/49
f 40/197/50 64/198/50 61/199/50
f 40/197/50 61/199/50 14/200/50
f 65/201/51 47/202/51 68/203/51
f 65/201/51 68/203/51 67/204/51
f 66/205/52 13/206/52 39/207/52
f 66/205/52 39/207/52 51/208/52
f 13/209/53 65/210/53 67/211/53
f 13/209/53 67/211/53 39/212/53
f 51/213/54 68/214/54 47/215/54
f 51/213/54 47/215/54 66/216/54
f 72/217/55 70/218/55 69/219/55
f 72/217/55 69/219/55 71/220/55
f 75/221/56 73/222/56 74/223/56
f 75/221/56 74/223/56 76/224/56
f 72/225/57 71/226/57 75/227/57
f 72/225/57 75/227/57 76/228/57
f 71/229/58 69/230/58 73/231/58
f 71/229/58 73/231/58 75/232/58
f 76/233/59 74/234/59 70/235/59
f 76/233/59 70/235/59 72/236/59
f 80/237/60 78/238/60 77/239/60
f 80/237/60 77/239/60 79/240/60
f 83/241/61 81/242/61 82/243/61
f 83/241/61 82/243/61 84/244/61
f 77/245/62 78/246/62 82/247/62
f 77/245/62 82/247/62 81/248/62
f 80/249/63 79/250/63 83/251/63
f 80/249/63 83/251/63 84/252/63
f 79/253/64 77/254/64 81/255/64
f 79/253/64 81/255/64 83/256/64
f 84/257/65 82/258/65 78/259/65
f 84/257/65 78/259/65 80/260/65
o wrench
v 0.0625 0.5625 -0.625
v -0.0625 0.5625 -0.625
v 0.0625 0.4375 -0.625
v -0.0625 0.4375 -0.625
v 0.0625 0.5625 -0.5625
v -0.0625 0.5625 -0.5625
v 0.0625 0.4375 -0.5625
v -0.0625 0.4375 -0.5625
v 0.125 0.5938 -0.6875
v -0.125 0.5938 -0.6875
v 0.125 0.4063 -0.6875
v -0.125 0.4063 -0.6875
v 0.0625 0.5938 -0.625
v -0.0625 0.5938 -0.625
v 0.0625 0.4063 -0.625
v -0.0625 0.4063 -0.625
v 0.125 0.5938 -0.875
v 0.0625 0.5938 -0.875
v 0.125 0.4063 -0.875
v 0.0625 0.4063 -0.875
v 0.0625 0.5938 -0.6875
v 0.0625 0.4063 -0.6875
v -0.0625 0.5938 -0.875
v -0.125 0.5938 -0.875
v -0.0625 0.4063 -0.875
v -0.125 0.4063 -0.875
v -0.0625 0.5938 -0.6875
v -0.0625 0.4063 -0.6875
vt 0.125 0.25
vt 0.125 0.5
vt 0 0.5
vt 0 0.25
vt 0.125 0.25
vt 0.125 0.5
vt 0 0.5
vt 0 0.25
vt 0.125 0.5
vt 0.125 0.25
vt 0 0.25
vt 0 0.5
vt 0 0.25
vt 0 0.5
vt 0.125 0.5
vt 0.125 0.25
vt 1 0.625
vt 0.625 0.625
vt 0.625 0.125
vt 1 0.125
vt 0.625 0.5
vt 0.25 0.5
vt 0.25 0.25
vt 0.625 0.25
vt 0.5 0
vt 1 0
vt 0.875 0.125
vt 0.625 0.125
vt 0.25 0.125
vt 0.25 0.625
vt 0.125 0.5
vt 0.125 0.25
vt 0.3125 0.625
vt 0.3125 1
vt 0.125 1
vt 0.125 0.625
vt 0.125 0.625
vt 0.125 1
vt 0.3125 1
vt 0.3125 0.625
vt 1 0.625
vt 0.625 0.625
vt 0.625 0.5
vt 1 0.5
vt 0 0.625
vt 0.125 0.625
vt 0.125 1
vt 0 1
vt 0.625 0.25
vt 0.625 0.125
vt 0.25 0.125
vt 0.25 0.25
vt 0.625 0.625
vt 0.625 1
vt 0.25 1
vt 0.25 0.625
vt 0.625 0.625
vt 0.625 1
vt 1 1
vt 1 0.625
vt 1 0.25
vt 0.625 0.25
vt 0.625 0.125
vt 1 0.125
vt 0.125 0.625
vt 0 0.625
vt 0 1
vt 0.125 1
vt 0.625 0.625
vt 0.625 0.5
vt 0.25 0.5
vt 0.25 0.625
vt 1 0.625
vt 1 1
vt 0.625 1
vt 0.625 0.625
vt 0.25 0.625
vt 0.25 1
vt 0.625 1
vt 0.625 0.625
vn 0 1 0
vn 0 -1 0
vn 1 0 0
vn -1 0 0
vn 0 0 -1
vn 0 0 1
vn 0 1 0
vn 0 -1 0
vn 0.71 0 0.71
vn -0.71 0 0.71
vn 0 0 -1
vn 0 1 0
vn 0 -1 0
vn 1 0 0
vn -1 0 0
vn 0 0 -1
vn 0 1 0
vn 0 -1 0
vn 1 0 0
vn -1 0 0
usemtl electric_wrench_model
f 85/261/66 86/262/66 90/263/66
f 85/261/66 90/263/66 89/264/66
f 88/265/67 87/266/67 91/267/67
f 88/265/67 91/267/67 92/268/67
f 87/269/68 85/270/68 89/271/68
f 87/269/68 89/271/68 91/272/68
f 92/273/69 90/274/69 86/275/69
f 92/273/69 86/275/69 88/276/69
f 96/277/70 94/278/70 93/279/70
f 96/277/70 93/279/70 95/280/70
f 99/281/71 97/282/71 98/283/71
f 99/281/71 98/283/71 100/284/71
f 93/285/72 94/286/72 98/287/72
f 93/285/72 98/287/72 97/288/72
f 96/289/73 95/290/73 99/291/73
f 96/289/73 99/291/73 100/292/73
f 95/293/74 93/294/74 97/295/74
f 95/293/74 97/295/74 99/296/74
f 100/297/75 98/298/75 94/299/75
f 100/297/75 94/299/75 96/300/75
f 104/301/76 102/302/76 101/303/76
f 104/301/76 101/303/76 103/304/76
f 101/305/77 102/306/77 105/307/77
f 101/305/77 105/307/77 93/308/77
f 104/309/78 103/310/78 95/311/78
f 104/309/78 95/311/78 106/312/78
f 103/313/79 101/314/79 93/315/79
f 103/313/79 93/315/79 95/316/79
f 106/317/80 105/318/80 102/319/80
f 106/317/80 102/319/80 104/320/80
f 110/321/81 108/322/81 107/323/81
f 110/321/81 107/323/81 109/324/81
f 107/325/82 108/326/82 94/327/82
f 107/325/82 94/327/82 111/328/82
f 110/329/83 109/330/83 112/331/83
f 110/329/83 112/331/83 96/332/83
f 109/333/84 107/334/84 111/335/84
f 109/333/84 111/335/84 112/336/84
f 96/337/85 94/338/85 108/339/85
f 96/337/85 108/339/85 110/340/85
o switch
v 0.1875 0.5938 -0.25
v 0.125 0.5938 -0.25
v 0.1875 0.4688 -0.25
v 0.125 0.4688 -0.25
v 0.1875 0.5938 -0.125
v 0.125 0.5938 -0.125
v 0.1875 0.4688 -0.125
v 0.125 0.4688 -0.125
v 0.1875 0.6563 -0.2188
v 0.125 0.6563 -0.2188
v 0.1875 0.6563 -0.1563
v 0.125 0.6563 -0.1563
vt 0.9375 0.625
vt 0.9375 0.75
vt 1 0.75
vt 1 0.625
vt 1 0.625
vt 1 0.75
vt 0.9375 0.75
vt 0.9375 0.625
vt 0.9375 0.625
vt 1 0.625
vt 1 0.5
vt 0.9375 0.5
vt 1 0.75
vt 1 0.875
vt 0.875 0.875
vt 0.875 0.75
vt 1 1
vt 0.9375 1
vt 0.9375 0.9375
vt 1 0.9375
vt 0.875 0.9375
vt 0.9375 0.9375
vt 0.9375 1
vt 0.875 1
vt 0.9688 0.9375
vt 0.9688 1
vt 0.9063 1
vt 0.9063 0.9375
vt 1 0.875
vt 0.9688 0.9375
vt 0.9063 0.9375
vt 0.875 0.875
vt 1 0.875
vt 0.9688 0.9375
vt 0.9063 0.9375
vt 0.875 0.875
vn 0 0 -1
vn 0 0 1
vn 0 -1 0
vn 1 0 0
vn 0 0.45 -0.89
vn 0 0.45 0.89
vn 0 1 0
vn 1 0 0
vn -1 0 0
usemtl electric_tool_base
f 116/341/86 114/342/86 113/343/86
f 116/341/86 113/343/86 115/344/86
f 119/345/87 117/346/87 118/347/87
f 119/345/87 118/347/87 120/348/87
f 116/349/88 115/350/88 119/351/88
f 116/349/88 119/351/88 120/352/88
f 115/353/89 113/354/89 117/355/89
f 115/353/89 117/355/89 119/356/89
f 114/357/90 122/358/90 121/359/90
f 114/357/90 121/359/90 113/360/90
f 117/361/91 123/362/91 124/363/91
f 117/361/91 124/363/91 118/364/91
f 121/365/92 122/366/92 124/367/92
f 121/365/92 124/367/92 123/368/92
f 113/369/93 121/370/93 123/371/93
f 113/369/93 123/371/93 117/372/93
f 118/373/94 124/374/94 122/375/94
f 118/373/94 122/375/94 114/376/94