# Made by Pabilo8 with Blockbench
# Exported with IIToolkit Plugin on 05/07/2026
mtllib electric_wirecutter.mtl

o base
v 0.0625 0.875 0.25
v 0.0625 0.875 -0.0625
v 0.0625 0.5 0.25
v 0.0625 0.5 -0.0625
v -0.0625 0.875 0.25
v -0.0625 0.875 -0.0625
v -0.0625 0.5 0.25
v -0.0625 0.5 -0.0625
v 0.0625 0.5 0.2188
v 0.0625 0.5 -0.0312
v 0.0625 0.4375 0.2188
v 0.0625 0.4375 -0.0312
v -0.0625 0.5 0.2188
v -0.0625 0.5 -0.0312
v -0.0625 0.4375 0.2188
v -0.0625 0.4375 -0.0312
v 0.25 0.5625 0.3125
v 0.25 0.5625 0.25
v 0.25 0.5 0.3125
v 0.25 0.5 0.25
v -0.0312 0.5625 0.3125
v -0.0312 0.5625 0.25
v -0.0312 0.5 0.3125
v -0.0312 0.5 0.25
v 0.25 0.5625 0.25
v 0.25 0.5625 -0.0625
v 0.25 0.5 0.25
v 0.25 0.5 -0.0625
v 0.1875 0.5625 0.25
v 0.1875 0.5625 -0.0625
v 0.1875 0.5 0.25
v 0.1875 0.5 -0.0625
v 0.25 0.6875 0.3125
v 0.25 0.6875 0.25
v 0.25 0.625 0.3125
v 0.25 0.625 0.25
v -0.0312 0.6875 0.3125
v -0.0312 0.6875 0.25
v -0.0312 0.625 0.3125
v -0.0312 0.625 0.25
v 0.25 0.6875 0.25
v 0.25 0.6875 -0.0625
v 0.25 0.625 0.25
v 0.25 0.625 -0.0625
v 0.1875 0.6875 0.25
v 0.1875 0.6875 -0.0625
v 0.1875 0.625 0.25
v 0.1875 0.625 -0.0625
v 0.1875 0.75 0.25
v 0.1875 0.75 -0.0625
v 0.1875 0.4375 0.25
v 0.1875 0.4375 -0.0625
v 0.0625 0.75 0.25
v 0.0625 0.75 -0.0625
v 0.0625 0.4375 0.25
v 0.0625 0.4375 -0.0625
vt 1 0.5
vt 1 0.875
vt 0.6875 0.875
vt 0.6875 0.5
vt 1 0.5
vt 1 0.875
vt 0.6875 0.875
vt 0.6875 0.5
vt 1 1
vt 0.6875 1
vt 0.6875 0.875
vt 1 0.875
vt 0.8125 0.5938
vt 0.8125 0.9063
vt 0.6875 0.9063
vt 0.6875 0.5938
vt 0.6875 0.4375
vt 0.6875 0.8125
vt 0.5625 0.8125
vt 0.5625 0.4375
vt 0.6875 0.4375
vt 0.6875 0.8125
vt 0.5625 0.8125
vt 0.5625 0.4375
vt 0.5 0.9375
vt 0.5 1
vt 0.25 1
vt 0.25 0.9375
vt 0.5 0.9375
vt 0.5 1
vt 0.25 1
vt 0.25 0.9375
vt 0.5 0.9375
vt 0.25 0.9375
vt 0.25 0.8125
vt 0.5 0.8125
vt 0.375 0.75
vt 0.375 0.8125
vt 0.25 0.8125
vt 0.25 0.75
vt 0.375 0.75
vt 0.375 0.8125
vt 0.25 0.8125
vt 0.25 0.75
vt 0.375 0.4688
vt 0.375 0.5313
vt 0.4375 0.5313
vt 0.4375 0.4688
vt 0.5 0.4688
vt 0.5 0.5313
vt 0.4375 0.5313
vt 0.4375 0.4688
vt 0.4375 0.5313
vt 0.5 0.5313
vt 0.5 0.8125
vt 0.4375 0.8125
vt 0.375 0.4688
vt 0.4375 0.4688
vt 0.4375 0.1875
vt 0.375 0.1875
vt 0.4375 0.8125
vt 0.375 0.8125
vt 0.375 0.5313
vt 0.4375 0.5313
vt 0.5 0.4688
vt 0.4375 0.4688
vt 0.4375 0.1563
vt 0.5 0.1563
vt 0.4375 0.1563
vt 0.4375 0.4688
vt 0.5 0.4688
vt 0.5 0.1563
vt 0.5 0.1563
vt 0.5 0.4688
vt 0.4375 0.4688
vt 0.4375 0.1563
vt 0.5625 0.3125
vt 0.5625 0.375
vt 0.5 0.375
vt 0.5 0.3125
vt 0.375 0.4688
vt 0.375 0.5313
vt 0.4375 0.5313
vt 0.4375 0.4688
vt 0.5 0.4688
vt 0.5 0.5313
vt 0.4375 0.5313
vt 0.4375 0.4688
vt 0.4375 0.5313
vt 0.5 0.5313
vt 0.5 0.8125
vt 0.4375 0.8125
vt 0.375 0.4688
vt 0.4375 0.4688
vt 0.4375 0.1875
vt 0.375 0.1875
vt 0.4375 0.8125
vt 0.375 0.8125
vt 0.375 0.5313
vt 0.4375 0.5313
vt 0.5 0.4688
vt 0.4375 0.4688
vt 0.4375 0.1563
vt 0.5 0.1563
vt 0.4375 0.1563
vt 0.4375 0.4688
vt 0.5 0.4688
vt 0.5 0.1563
vt 0.5 0.1563
vt 0.5 0.4688
vt 0.4375 0.4688
vt 0.4375 0.1563
vt 0.5625 0.3125
vt 0.5625 0.375
vt 0.5 0.375
vt 0.5 0.3125
vt 1 0.1875
vt 1 0.5
vt 0.6875 0.5
vt 0.6875 0.1875
vt 0.6875 0.1875
vt 0.6875 0.5
vt 1 0.5
vt 1 0.1875
vt 0.5625 0.4375
vt 0.5625 0.125
vt 0.6875 0.125
vt 0.6875 0.4375
vt 1 0.0625
vt 0.6875 0.0625
vt 0.6875 0.1875
vt 1 0.1875
vt 0.375 0.125
vt 0.6875 0.125
vt 0.6875 0
vt 0.375 0
vt 0.375 0.125
vt 0.6875 0.125
vt 0.6875 0
vt 0.375 0
vn 1 0 0
vn -1 0 0
vn 0 1 0
vn 0 -1 0
vn 0 0 1
vn 0 0 -1
vn 1 0 0
vn -1 0 0
vn 0 -1 0
vn 0 0 1
vn 0 0 -1
vn 1 0 0
vn -1 0 0
vn 0 1 0
vn 0 -1 0
vn 0 0 1
vn 1 0 0
vn 0 1 0
vn 0 -1 0
vn 0 0 -1
vn 1 0 0
vn -1 0 0
vn 0 1 0
vn 0 -1 0
vn 0 0 1
vn 1 0 0
vn 0 1 0
vn 0 -1 0
vn 0 0 -1
vn 1 0 0
vn -1 0 0
vn 0 1 0
vn 0 -1 0
vn 0 0 1
vn 0 0 -1
usemtl electric_wirecutter_model
f 4/1/1 2/2/1 1/3/1
f 4/1/1 1/3/1 3/4/1
f 7/5/2 5/6/2 6/7/2
f 7/5/2 6/7/2 8/8/2
f 1/9/3 2/10/3 6/11/3
f 1/9/3 6/11/3 5/12/3
f 4/13/4 3/14/4 7/15/4
f 4/13/4 7/15/4 8/16/4
f 3/17/5 1/18/5 5/19/5
f 3/17/5 5/19/5 7/20/5
f 8/21/6 6/22/6 2/23/6
f 8/21/6 2/23/6 4/24/6
f 12/25/7 10/26/7 9/27/7
f 12/25/7 9/27/7 11/28/7
f 15/29/8 13/30/8 14/31/8
f 15/29/8 14/31/8 16/32/8
f 12/33/9 11/34/9 15/35/9
f 12/33/9 15/35/9 16/36/9
f 11/37/10 9/38/10 13/39/10
f 11/37/10 13/39/10 15/40/10
f 16/41/11 14/42/11 10/43/11
f 16/41/11 10/43/11 12/44/11
f 20/45/12 18/46/12 17/47/12
f 20/45/12 17/47/12 19/48/12
f 23/49/13 21/50/13 22/51/13
f 23/49/13 22/51/13 24/52/13
f 17/53/14 18/54/14 22/55/14
f 17/53/14 22/55/14 21/56/14
f 20/57/15 19/58/15 23/59/15
f 20/57/15 23/59/15 24/60/15
f 19/61/16 17/62/16 21/63/16
f 19/61/16 21/63/16 23/64/16
f 28/65/17 26/66/17 25/67/17
f 28/65/17 25/67/17 27/68/17
f 25/69/18 26/70/18 30/71/18
f 25/69/18 30/71/18 29/72/18
f 28/73/19 27/74/19 31/75/19
f 28/73/19 31/75/19 32/76/19
f 32/77/20 30/78/20 26/79/20
f 32/77/20 26/79/20 28/80/20
f 36/81/21 34/82/21 33/83/21
f 36/81/21 33/83/21 35/84/21
f 39/85/22 37/86/22 38/87/22
f 39/85/22 38/87/22 40/88/22
f 33/89/23 34/90/23 38/91/23
f 33/89/23 38/91/23 37/92/23
f 36/93/24 35/94/24 39/95/24
f 36/93/24 39/95/24 40/96/24
f 35/97/25 33/98/25 37/99/25
f 35/97/25 37/99/25 39/100/25
f 44/101/26 42/102/26 41/103/26
f 44/101/26 41/103/26 43/104/26
f 41/105/27 42/106/27 46/107/27
f 41/105/27 46/107/27 45/108/27
f 44/109/28 43/110/28 47/111/28
f 44/109/28 47/111/28 48/112/28
f 48/113/29 46/114/29 42/115/29
f 48/113/29 42/115/29 44/116/29
f 52/117/30 50/118/30 49/119/30
f 52/117/30 49/119/30 51/120/30
f 55/121/31 53/122/31 54/123/31
f 55/121/31 54/123/31 56/124/31
f 49/125/32 50/126/32 54/127/32
f 49/125/32 54/127/32 53/128/32
f 52/129/33 51/130/33 55/131/33
f 52/129/33 55/131/33 56/132/33
f 51/133/34 49/134/34 53/135/34
f 51/133/34 53/135/34 55/136/34
f 56/137/35 54/138/35 50/139/35
f 56/137/35 50/139/35 52/140/35
o lock
v 0.0338 0.7692 -0.0625
v 0.0338 0.7692 -0.125
v 0.0817 0.6537 -0.0625
v 0.0817 0.6537 -0.125
v -0.0817 0.7213 -0.0625
v -0.0817 0.7213 -0.125
v -0.0338 0.6058 -0.0625
v -0.0338 0.6058 -0.125
v 0.0169 0.7283 0.0625
v 0.0169 0.7283 -0.0625
v 0.0408 0.6706 0.0625
v 0.0408 0.6706 -0.0625
v -0.0408 0.7044 0.0625
v -0.0408 0.7044 -0.0625
v -0.0169 0.6467 0.0625
v -0.0169 0.6467 -0.0625
vt 0.5625 0.8438
vt 0.5625 0.9688
vt 0.5 0.9688
vt 0.5 0.8438
vt 0.6875 0.8438
vt 0.6875 0.9688
vt 0.625 0.9688
vt 0.625 0.8438
vt 0.5313 1
vt 0.5313 0.9375
vt 0.6563 0.9375
vt 0.6563 1
vt 0.6563 0.875
vt 0.6563 0.8125
vt 0.5313 0.8125
vt 0.5313 0.875
vt 0.6563 0.8438
vt 0.6563 0.9688
vt 0.5313 0.9688
vt 0.5313 0.8438
vt 0.6563 0.8438
vt 0.6563 0.9688
vt 0.5313 0.9688
vt 0.5313 0.8438
vt 0.375 0.75
vt 0.375 0.6875
vt 0.25 0.6875
vt 0.25 0.75
vt 0.375 0.6875
vt 0.375 0.75
vt 0.25 0.75
vt 0.25 0.6875
vt 0.375 0.6875
vt 0.25 0.6875
vt 0.25 0.75
vt 0.375 0.75
vt 0.375 0.75
vt 0.25 0.75
vt 0.25 0.6875
vt 0.375 0.6875
vn 0.92 0.38 0
vn -0.92 -0.38 0
vn -0.38 0.92 0
vn 0.38 -0.92 0
vn 0 0 1
vn 0 0 -1
vn 0.92 0.38 0
vn -0.92 -0.38 0
vn -0.38 0.92 0
vn 0.38 -0.92 0
usemtl electric_wirecutter_model
f 60/141/36 58/142/36 57/143/36
f 60/141/36 57/143/36 59/144/36
f 63/145/37 61/146/37 62/147/37
f 63/145/37 62/147/37 64/148/37
f 57/149/38 58/150/38 62/151/38
f 57/149/38 62/151/38 61/152/38
f 60/153/39 59/154/39 63/155/39
f 60/153/39 63/155/39 64/156/39
f 59/157/40 57/158/40 61/159/40
f 59/157/40 61/159/40 63/160/40
f 64/161/41 62/162/41 58/163/41
f 64/161/41 58/163/41 60/164/41
f 68/165/42 66/166/42 65/167/42
f 68/165/42 65/167/42 67/168/42
f 71/169/43 69/170/43 70/171/43
f 71/169/43 70/171/43 72/172/43
f 65/173/44 66/174/44 70/175/44
f 65/173/44 70/175/44 69/176/44
f 68/177/45 67/178/45 71/179/45
f 68/177/45 71/179/45 72/180/45
o blade_right
v 0.0313 1.25 0.2188
v 0.0313 1.25 0.0938
v 0.0313 0.875 0.2188
v 0.0313 0.875 0.0938
v -0.0312 1.25 0.2188
v -0.0312 1.25 0.0938
v -0.0312 0.875 0.2188
v -0.0312 0.875 0.0938
v 0.0313 1.3125 0.1563
v -0.0312 1.3125 0.1563
v 0.0313 1.25 0.1875
v -0.0312 1.25 0.1875
v 0.0313 1.2813 0.1563
v -0.0312 1.2813 0.1563
v 0.0313 1.2813 0.1875
v -0.0312 1.2813 0.1875
v 0.0313 1.3438 0.125
v -0.0312 1.3438 0.125
v 0.0313 1.3125 0.125
v -0.0312 1.3125 0.125
v 0.0313 1.3438 0.0938
v -0.0312 1.3438 0.0938
v 0.0313 1.3125 0.0938
v -0.0312 1.3125 0.0938
vt 0.125 0
vt 0.125 0.375
vt 0 0.375
vt 0 0
vt 0.3125 0
vt 0.3125 0.375
vt 0.1875 0.375
vt 0.1875 0
vt 0.125 0.875
vt 0.125 1
vt 0 1
vt 0 0.875
vt 0.375 0
vt 0.375 0.375
vt 0.3125 0.375
vt 0.3125 0
vt 0.125 0.4375
vt 0.0625 0.4375
vt 0 0.375
vt 0.125 0.375
vt 0.25 0.4375
vt 0.1875 0.4375
vt 0.1875 0.375
vt 0.3125 0.375
vt 0.375 0.3438
vt 0.375 0.375
vt 0.3125 0.375
vt 0.3125 0.3438
vt 0.375 0.4063
vt 0.375 0.4375
vt 0.3125 0.4375
vt 0.3125 0.4063
vt 0.375 0.375
vt 0.375 0.4063
vt 0.3125 0.4063
vt 0.3125 0.375
vt 0.375 0.375
vt 0.375 0.4063
vt 0.3125 0.4063
vt 0.3125 0.375
vt 0.375 0.4375
vt 0.375 0.4688
vt 0.3125 0.4688
vt 0.3125 0.4375
vt 0.375 0.4375
vt 0.375 0.4688
vt 0.3125 0.4688
vt 0.3125 0.4375
vt 0.1875 0
vt 0.1875 0.4375
vt 0.125 0.4375
vt 0.125 0
vt 0.3125 0.4688
vt 0.375 0.4688
vt 0.375 0.4375
vt 0.3125 0.4375
vt 0.375 0.4688
vt 0.3438 0.4688
vt 0.3438 0.4375
vt 0.375 0.4375
vt 0.375 0.4688
vt 0.3438 0.4688
vt 0.3438 0.4375
vt 0.375 0.4375
vt 0.375 0.4063
vt 0.375 0.4375
vt 0.3125 0.4375
vt 0.3125 0.4063
vn 1 0 0
vn -1 0 0
vn 0 -1 0
vn 0 0 1
vn 1 0 0
vn -1 0 0
vn 0 1 0
vn 0 0 1
vn 0 1 0
vn 0 0 1
vn 0 1 0
vn 0 0 1
vn 0 0 -1
vn 0 0 -1
vn -1 0 0
vn 1 0 0
vn 0 1 0
usemtl electric_wirecutter_model
f 76/181/46 74/182/46 73/183/46
f 76/181/46 73/183/46 75/184/46
f 79/185/47 77/186/47 78/187/47
f 79/185/47 78/187/47 80/188/47
f 76/189/48 75/190/48 79/191/48
f 76/189/48 79/191/48 80/192/48
f 75/193/49 73/194/49 77/195/49
f 75/193/49 77/195/49 79/196/49
f 95/197/50 81/198/50 73/199/50
f 95/197/50 73/199/50 74/200/50
f 82/201/51 96/202/51 78/203/51
f 82/201/51 78/203/51 77/204/51
f 73/205/52 83/206/52 84/207/52
f 73/205/52 84/207/52 77/208/52
f 85/209/53 81/210/53 82/211/53
f 85/209/53 82/211/53 86/212/53
f 87/213/54 85/214/54 86/215/54
f 87/213/54 86/215/54 88/216/54
f 83/217/55 87/218/55 88/219/55
f 83/217/55 88/219/55 84/220/55
f 89/221/56 93/222/56 94/223/56
f 89/221/56 94/223/56 90/224/56
f 91/225/57 89/226/57 90/227/57
f 91/225/57 90/227/57 92/228/57
f 80/229/58 96/230/58 95/231/58
f 80/229/58 95/231/58 76/232/58
f 94/233/59 93/234/59 95/235/59
f 94/233/59 95/235/59 96/236/59
f 90/237/60 94/238/60 96/239/60
f 90/237/60 96/239/60 92/240/60
f 93/241/61 89/242/61 91/243/61
f 93/241/61 91/243/61 95/244/61
f 81/245/62 91/246/62 92/247/62
f 81/245/62 92/247/62 82/248/62
o blade_left
v -0.0312 1.25 -0.0312
v -0.0312 1.25 0.0938
v -0.0312 0.875 -0.0312
v -0.0312 0.875 0.0938
v 0.0313 1.25 -0.0312
v 0.0313 1.25 0.0938
v 0.0313 0.875 -0.0312
v 0.0313 0.875 0.0938
v -0.0312 1.3125 0.0313
v 0.0313 1.3125 0.0313
v -0.0312 1.25 0
v 0.0313 1.25 0
v -0.0312 1.2813 0.0313
v 0.0313 1.2813 0.0313
v -0.0312 1.2813 0
v 0.0313 1.2813 0
v -0.0312 1.3438 0.0625
v 0.0313 1.3438 0.0625
v -0.0312 1.3125 0.0625
v 0.0313 1.3125 0.0625
v -0.0312 1.3438 0.0938
v 0.0313 1.3438 0.0938
v -0.0312 1.3125 0.0938
v 0.0313 1.3125 0.0938
vt 0.125 0
vt 0.125 0.375
vt 0 0.375
vt 0 0
vt 0.3125 0
vt 0.3125 0.375
vt 0.1875 0.375
vt 0.1875 0
vt 0.125 0.875
vt 0.125 1
vt 0 1
vt 0 0.875
vt 0.375 0
vt 0.375 0.375
vt 0.3125 0.375
vt 0.3125 0
vt 0.125 0.4375
vt 0.0625 0.4375
vt 0 0.375
vt 0.125 0.375
vt 0.25 0.4375
vt 0.1875 0.4375
vt 0.1875 0.375
vt 0.3125 0.375
vt 0.375 0.3438
vt 0.375 0.375
vt 0.3125 0.375
vt 0.3125 0.3438
vt 0.375 0.4063
vt 0.375 0.4375
vt 0.3125 0.4375
vt 0.3125 0.4063
vt 0.375 0.375
vt 0.375 0.4063
vt 0.3125 0.4063
vt 0.3125 0.375
vt 0.375 0.375
vt 0.375 0.4063
vt 0.3125 0.4063
vt 0.3125 0.375
vt 0.375 0.4375
vt 0.375 0.4688
vt 0.3125 0.4688
vt 0.3125 0.4375
vt 0.375 0.4375
vt 0.375 0.4688
vt 0.3125 0.4688
vt 0.3125 0.4375
vt 0.1875 0
vt 0.1875 0.4375
vt 0.125 0.4375
vt 0.125 0
vt 0.3125 0.4688
vt 0.375 0.4688
vt 0.375 0.4375
vt 0.3125 0.4375
vt 0.375 0.4688
vt 0.3438 0.4688
vt 0.3438 0.4375
vt 0.375 0.4375
vt 0.375 0.4688
vt 0.3438 0.4688
vt 0.3438 0.4375
vt 0.375 0.4375
vt 0.375 0.4063
vt 0.375 0.4375
vt 0.3125 0.4375
vt 0.3125 0.4063
vn -1 0 0
vn 1 0 0
vn 0 -1 0
vn 0 0 -1
vn -1 0 0
vn 1 0 0
vn 0 1 0
vn 0 0 -1
vn 0 1 0
vn 0 0 -1
vn 0 1 0
vn 0 0 -1
vn 0 0 1
vn 0 0 1
vn 1 0 0
vn -1 0 0
vn 0 1 0
usemtl electric_wirecutter_model
f 100/249/63 98/250/63 97/251/63
f 100/249/63 97/251/63 99/252/63
f 103/253/64 101/254/64 102/255/64
f 103/253/64 102/255/64 104/256/64
f 100/257/65 99/258/65 103/259/65
f 100/257/65 103/259/65 104/260/65
f 99/261/66 97/262/66 101/263/66
f 99/261/66 101/263/66 103/264/66
f 119/265/67 105/266/67 97/267/67
f 119/265/67 97/267/67 98/268/67
f 106/269/68 120/270/68 102/271/68
f 106/269/68 102/271/68 101/272/68
f 97/273/69 107/274/69 108/275/69
f 97/273/69 108/275/69 101/276/69
f 109/277/70 105/278/70 106/279/70
f 109/277/70 106/279/70 110/280/70
f 111/281/71 109/282/71 110/283/71
f 111/281/71 110/283/71 112/284/71
f 107/285/72 111/286/72 112/287/72
f 107/285/72 112/287/72 108/288/72
f 113/289/73 117/290/73 118/291/73
f 113/289/73 118/291/73 114/292/73
f 115/293/74 113/294/74 114/295/74
f 115/293/74 114/295/74 116/296/74
f 104/297/75 120/298/75 119/299/75
f 104/297/75 119/299/75 100/300/75
f 118/301/76 117/302/76 119/303/76
f 118/301/76 119/303/76 120/304/76
f 114/305/77 118/306/77 120/307/77
f 114/305/77 120/307/77 116/308/77
f 117/309/78 113/310/78 115/311/78
f 117/309/78 115/311/78 119/312/78
f 105/313/79 115/314/79 116/315/79
f 105/313/79 116/315/79 106/316/79
o handle_right
v 0.0625 0.4457 0.2495
v 0.0625 0.4293 0.1255
v 0.0625 0.0119 0.3066
v 0.0625 -0.0044 0.1826
v -0.0625 0.4457 0.2495
v -0.0625 0.4293 0.1255
v -0.0625 0.0119 0.3066
v -0.0625 -0.0044 0.1826
vt 0.125 0.5625
vt 0.125 1
vt 0.25 1
vt 0.25 0.5625
vt 0.125 0.5625
vt 0.125 1
vt 0 1
vt 0 0.5625
vt 0.25 0.4375
vt 0.25 0.5625
vt 0.125 0.5625
vt 0.125 0.4375
vt 0 0.4375
vt 0.125 0.4375
vt 0.125 0.5625
vt 0 0.5625
vt 0.25 0.5625
vt 0.25 1
vt 0.125 1
vt 0.125 0.5625
vt 0 0.5625
vt 0 1
vt 0.125 1
vt 0.125 0.5625
vn 1 0 0
vn -1 0 0
vn 0 0.99 -0.13
vn 0 -0.99 0.13
vn 0 0.13 0.99
vn 0 -0.13 -0.99
usemtl electric_wirecutter_model
f 124/317/80 122/318/80 121/319/80
f 124/317/80 121/319/80 123/320/80
f 127/321/81 125/322/81 126/323/81
f 127/321/81 126/323/81 128/324/81
f 121/325/82 122/326/82 126/327/82
f 121/325/82 126/327/82 125/328/82
f 124/329/83 123/330/83 127/331/83
f 124/329/83 127/331/83 128/332/83
f 123/333/84 121/334/84 125/335/84
f 123/333/84 125/335/84 127/336/84
f 128/337/85 126/338/85 122/339/85
f 128/337/85 122/339/85 124/340/85
o lever
v 0.0312 0.3674 0.1337
v 0.0312 0.3592 0.0717
v 0.0312 0.0576 0.1745
v 0.0312 0.0494 0.1125
v -0.0312 0.3674 0.1337
v -0.0312 0.3592 0.0717
v -0.0312 0.0576 0.1745
v -0.0312 0.0494 0.1125
vt 0.5625 0.4375
vt 0.5625 0.75
vt 0.5 0.75
vt 0.5 0.4375
vt 0.5625 0.4375
vt 0.5625 0.75
vt 0.5 0.75
vt 0.5 0.4375
vt 0.5 0.75
vt 0.5 0.8125
vt 0.5625 0.8125
vt 0.5625 0.75
vt 0.5 0.375
vt 0.5 0.4375
vt 0.5625 0.4375
vt 0.5625 0.375
vt 0.5625 0.4375
vt 0.5625 0.75
vt 0.5 0.75
vt 0.5 0.4375
vn 1 0 0
vn -1 0 0
vn 0 0.99 -0.13
vn 0 -0.99 0.13
vn 0 -0.13 -0.99
usemtl electric_wirecutter_model
f 132/341/86 130/342/86 129/343/86
f 132/341/86 129/343/86 131/344/86
f 135/345/87 133/346/87 134/347/87
f 135/345/87 134/347/87 136/348/87
f 129/349/88 130/350/88 134/351/88
f 129/349/88 134/351/88 133/352/88
f 132/353/89 131/354/89 135/355/89
f 132/353/89 135/355/89 136/356/89
f 136/357/90 134/358/90 130/359/90
f 136/357/90 130/359/90 132/360/90
o handle_left
v 0.0625 0.4293 0.062
v 0.0625 0.4457 -0.062
v 0.0625 -0.0044 0.0049
v 0.0625 0.0119 -0.1191
v -0.0625 0.4293 0.062
v -0.0625 0.4457 -0.062
v -0.0625 -0.0044 0.0049
v -0.0625 0.0119 -0.1191
vt 0.125 0.5625
vt 0.125 1
vt 0.25 1
vt 0.25 0.5625
vt 0.125 0.5625
vt 0.125 1
vt 0 1
vt 0 0.5625
vt 0 0.4375
vt 0.125 0.4375
vt 0.125 0.5625
vt 0 0.5625
vt 0.25 0.5625
vt 0.25 1
vt 0.125 1
vt 0.125 0.5625
vt 0 0.5625
vt 0 1
vt 0.125 1
vt 0.125 0.5625
vt 0.25 0.4375
vt 0.25 0.5625
vt 0.125 0.5625
vt 0.125 0.4375
vn 1 0 0
vn -1 0 0
vn 0 -0.99 -0.13
vn 0 -0.13 0.99
vn 0 0.13 -0.99
vn 0 0.99 0.13
usemtl electric_wirecutter_model
f 140/361/91 138/362/91 137/363/91
f 140/361/91 137/363/91 139/364/91
f 143/365/92 141/366/92 142/367/92
f 143/365/92 142/367/92 144/368/92
f 140/369/93 139/370/93 143/371/93
f 140/369/93 143/371/93 144/372/93
f 139/373/94 137/374/94 141/375/94
f 139/373/94 141/375/94 143/376/94
f 144/377/95 142/378/95 138/379/95
f 144/377/95 138/379/95 140/380/95
f 137/381/96 138/382/96 142/383/96
f 137/381/96 142/383/96 141/384/96