# Made by Pabilo8 with Blockbench
# Exported with IIToolkit Plugin
mtllib radio_tuner.mtl


o main
v 0.3125 0.625 0.0625
v 0.3125 0.625 -0.0625
v 0.3125 0 0.0625
v 0.3125 0 -0.0625
v -0.375 0.625 0.0625
v -0.375 0.625 -0.0625
v -0.375 0 0.0625
v -0.375 0 -0.0625
v -0.4375 0.5625 0.0625
v -0.4375 0.5625 -0.0625
v -0.4375 0.0625 0.0625
v -0.4375 0.0625 -0.0625
v 0.25 0.28125 0.09375
v 0.25 0.28125 0.03125
v 0.25 0.09375 0.09375
v 0.25 0.09375 0.03125
v -0.1875 0.28125 0.09375
v -0.1875 0.28125 0.03125
v -0.1875 0.09375 0.09375
v -0.1875 0.09375 0.03125
v 0.25 0.53125 0.09375
v 0.25 0.53125 0.03125
v 0.25 0.34375 0.09375
v 0.25 0.34375 0.03125
v -0.1875 0.53125 0.09375
v -0.1875 0.53125 0.03125
v -0.1875 0.34375 0.09375
v -0.1875 0.34375 0.03125
v 0.1875 0.71875 -0.125
v 0.1875 0.71875 -0.1875
v 0.25 0.65625 -0.0625
v 0.25 0.65625 -0.25
v 0.125 0.71875 -0.125
v 0.125 0.71875 -0.1875
v 0.0625 0.65625 -0.0625
v 0.0625 0.65625 -0.25
v 0.1875 1.28125 -0.125
v 0.1875 1.28125 -0.1875
v 0.125 1.28125 -0.125
v 0.125 1.28125 -0.1875
v 0.2 1.3624999999999998 -0.10625000000000001
v 0.2 1.3624999999999998 -0.20625
v 0.2 1.2781250000000002 -0.10625000000000001
v 0.2 1.2781250000000002 -0.20625
v 0.11249999999999999 1.3624999999999998 -0.10625000000000001
v 0.11249999999999999 1.3624999999999998 -0.20625
v 0.11249999999999999 1.2781250000000002 -0.10625000000000001
v 0.11249999999999999 1.2781250000000002 -0.20625
v 0.53125 0.59375 0.0625
v 0.53125 0.59375 -0.0625
v 0.53125 0.03125 0.0625
v 0.53125 0.03125 -0.0625
v 0.40625 0.59375 0.0625
v 0.40625 0.59375 -0.0625
v 0.40625 0.03125 0.0625
v 0.40625 0.03125 -0.0625
v 0.40625 0.5 0.03125
v 0.40625 0.5 -0.03125
v 0.40625 0.4375 0.03125
v 0.40625 0.4375 -0.03125
v 0.34375 0.5 0.03125
v 0.34375 0.5 -0.03125
v 0.34375 0.4375 0.03125
v 0.34375 0.4375 -0.03125
v 0.40625 0.1875 0.03125
v 0.40625 0.1875 -0.03125
v 0.40625 0.125 0.03125
v 0.40625 0.125 -0.03125
v 0.34375 0.1875 0.03125
v 0.34375 0.1875 -0.03125
v 0.34375 0.125 0.03125
v 0.34375 0.125 -0.03125
v 0.34375 0.5625 0.03125
v 0.34375 0.5625 -0.03125
v 0.34375 0.0625 0.03125
v 0.34375 0.0625 -0.03125
v 0.28125 0.5625 0.03125
v 0.28125 0.5625 -0.03125
v 0.28125 0.0625 0.03125
v 0.28125 0.0625 -0.03125
v 0.0625 0.21875 -0.125
v 0.0625 0.21875 -0.1875
v 0.0625 0.15625 -0.125
v 0.0625 0.15625 -0.1875
v -0.25 0.21875 -0.125
v -0.25 0.21875 -0.1875
v -0.25 0.15625 -0.125
v -0.25 0.15625 -0.1875
v -0.3125 0.21875 -0.125
v -0.3125 0.21875 -0.1875
v -0.28125 0.15625 -0.125
v -0.28125 0.15625 -0.1875
v -0.25 0.46875 -0.125
v -0.25 0.46875 -0.15625
v -0.25 0.40625 -0.125
v -0.25 0.40625 -0.1875
v -0.3125 0.46875 -0.125
v -0.3125 0.46875 -0.15625
v -0.3125 0.40625 -0.125
v -0.3125 0.40625 -0.1875
v 0.0625 0.46875 -0.125
v 0.0625 0.46875 -0.1875
v 0.0625 0.40625 -0.125
v 0.0625 0.40625 -0.1875
v -0.125 0.46875 -0.125
v -0.125 0.46875 -0.1875
v -0.125 0.40625 -0.125
v -0.125 0.40625 -0.1875
v -0.1875 0.46875 -0.125
v -0.1875 0.46875 -0.15625
v -0.1875 0.40625 -0.125
v -0.1875 0.40625 -0.15625
v 0.0625 0.34375 -0.125
v 0.0625 0.34375 -0.1875
v 0.0625 0.28125 -0.125
v 0.0625 0.28125 -0.1875
v -0.125 0.34375 -0.125
v -0.125 0.34375 -0.1875
v -0.125 0.28125 -0.125
v -0.125 0.28125 -0.1875
v -0.1875 0.34375 -0.125
v -0.1875 0.34375 -0.15625
v -0.1875 0.28125 -0.125
v -0.1875 0.28125 -0.15625
v 0 0.59375 -0.0625
v 0 0.59375 -0.09375
v 0 0.53125 -0.0625
v 0 0.53125 -0.125
v -0.125 0.59375 -0.0625
v -0.125 0.59375 -0.09375
v -0.125 0.53125 -0.0625
v -0.125 0.53125 -0.125
v -0.1875 0.59375 -0.0625
v -0.1875 0.59375 -0.09375
v -0.1875 0.53125 -0.0625
v -0.1875 0.53125 -0.125
v -0.3125 0.59375 -0.0625
v -0.3125 0.59375 -0.09375
v -0.3125 0.53125 -0.0625
v -0.3125 0.53125 -0.125
v 0.0625 0.53125 -0.0625
v 0.0625 0.53125 -0.125
v 0.0625 0.09375 -0.0625
v 0.0625 0.09375 -0.125
v -0.375 0.53125 -0.0625
v -0.375 0.53125 -0.125
v -0.375 0.09375 -0.0625
v -0.375 0.09375 -0.125
v 0.25 0.09375 -0.0625
v 0.25 0.09375 -0.25
v 0.0625 0.09375 -0.25
vt 0.4375 0.65625
vt 0.4375 0.96875
vt 0.375 0.96875
vt 0.375 0.65625
vt 0.40625 0.9375
vt 0.40625 1
vt 0.0625 1
vt 0.0625 0.9375
vt 0.40625 0.625
vt 0.40625 0.6875
vt 0.0625 0.6875
vt 0.0625 0.625
vt 0.40625 0.65625
vt 0.40625 0.96875
vt 0.0625 0.96875
vt 0.0625 0.65625
vt 0.75 0.65625
vt 0.75 0.96875
vt 0.40625 0.96875
vt 0.40625 0.65625
vt 0.0625 0.6875
vt 0.0625 0.9375
vt 0 0.9375
vt 0 0.6875
vt 0.0625 0.92455625
vt 0.0625 0.96875
vt 0 0.96875
vt 0 0.92455625
vt 0 0.65893125
vt 0.0625 0.65893125
vt 0.0625 0.703125
vt 0 0.703125
vt 0.0625 0.65625
vt 0.0625 0.96875
vt 0.03125 0.9375
vt 0.03125 0.6875
vt 0.78125 0.9375
vt 0.75 0.96875
vt 0.75 0.65625
vt 0.78125 0.6875
vt 0.1875 0.53125
vt 0.1875 0.625
vt 0.21875 0.625
vt 0.21875 0.53125
vt 0 0.53125
vt 0 0.625
vt 0.03125 0.625
vt 0.03125 0.53125
vt 0.21875 0.625
vt 0.21875 0.59375
vt 0 0.59375
vt 0 0.625
vt 0.21875 0.53125
vt 0.21875 0.5625
vt 0 0.5625
vt 0 0.53125
vt 0.21875 0.53125
vt 0.21875 0.625
vt 0 0.625
vt 0 0.53125
vt 0.1875 0.53125
vt 0.1875 0.625
vt 0.21875 0.625
vt 0.21875 0.53125
vt 0 0.53125
vt 0 0.625
vt 0.03125 0.625
vt 0.03125 0.53125
vt 0.21875 0.625
vt 0.21875 0.59375
vt 0 0.59375
vt 0 0.625
vt 0.21875 0.53125
vt 0.21875 0.5625
vt 0 0.5625
vt 0 0.53125
vt 0.21875 0.53125
vt 0.21875 0.625
vt 0 0.625
vt 0 0.53125
vt 0.53125 0.625
vt 0.5 0.625
vt 0.46875 0.5964301452131797
vt 0.5625 0.5964301452131797
vt 0.5625 0.596428125
vt 0.53125 0.625
vt 0.5 0.625
vt 0.46875 0.596428125
vt 0.5625 0.5964301452131797
vt 0.53125 0.625
vt 0.5 0.625
vt 0.46875 0.5964301452131797
vt 0.53125 0.625
vt 0.5 0.625
vt 0.46875 0.5964301452131797
vt 0.5625 0.5964301452131797
vt 0.4375 0.34375
vt 0.4375 0.625
vt 0.46875 0.625
vt 0.46875 0.34375
vt 0.4375 0.34375
vt 0.4375 0.625
vt 0.46875 0.625
vt 0.46875 0.34375
vt 0.4375 0.34375
vt 0.4375 0.625
vt 0.46875 0.625
vt 0.46875 0.34375
vt 0.4375 0.34375
vt 0.4375 0.625
vt 0.46875 0.625
vt 0.46875 0.34375
vt 0.15625 0.53125
vt 0.09375 0.53125
vt 0.09375 0.46875
vt 0.15625 0.46875
vt 0.15625 0.46875
vt 0.15625 0.53125
vt 0.09375 0.53125
vt 0.09375 0.46875
vt 0.09375 0.46875
vt 0.15625 0.46875
vt 0.15625 0.53125
vt 0.09375 0.53125
vt 0.15625 0.46875
vt 0.15625 0.53125
vt 0.09375 0.53125
vt 0.09375 0.46875
vt 0.15625 0.46875
vt 0.15625 0.53125
vt 0.09375 0.53125
vt 0.09375 0.46875
vt 0.15625 0.53125
vt 0.09375 0.53125
vt 0.09375 0.46875
vt 0.15625 0.46875
vt 0.84375 0.6875
vt 0.84375 0.96875
vt 0.90625 0.96875
vt 0.90625 0.6875
vt 0.84375 0.6875
vt 0.84375 0.96875
vt 0.90625 0.96875
vt 0.90625 0.6875
vt 0.96875 1
vt 0.96875 0.9375
vt 0.90625 0.9375
vt 0.90625 1
vt 0.96875 0.9375
vt 0.96875 1
vt 0.90625 1
vt 0.90625 0.9375
vt 0.84375 0.6875
vt 0.84375 0.96875
vt 0.90625 0.96875
vt 0.90625 0.6875
vt 0.84375 0.6875
vt 0.84375 0.96875
vt 0.90625 0.96875
vt 0.90625 0.6875
vt 0.84375 0.90625
vt 0.84375 0.875
vt 0.8125 0.875
vt 0.8125 0.90625
vt 0.84375 0.875
vt 0.84375 0.90625
vt 0.8125 0.90625
vt 0.8125 0.875
vt 0.8125 0.875
vt 0.8125 0.90625
vt 0.84375 0.90625
vt 0.84375 0.875
vt 0.8125 0.875
vt 0.8125 0.90625
vt 0.84375 0.90625
vt 0.84375 0.875
vt 0.84375 0.78125
vt 0.84375 0.75
vt 0.8125 0.75
vt 0.8125 0.78125
vt 0.84375 0.75
vt 0.84375 0.78125
vt 0.8125 0.78125
vt 0.8125 0.75
vt 0.8125 0.75
vt 0.8125 0.78125
vt 0.84375 0.78125
vt 0.84375 0.75
vt 0.8125 0.75
vt 0.8125 0.78125
vt 0.84375 0.78125
vt 0.84375 0.75
vt 0.78125 0.6875
vt 0.78125 0.9375
vt 0.8125 0.9375
vt 0.8125 0.6875
vt 0.8125 0.9375
vt 0.8125 0.90625
vt 0.78125 0.90625
vt 0.78125 0.9375
vt 0.8125 0.6875
vt 0.8125 0.71875
vt 0.78125 0.71875
vt 0.78125 0.6875
vt 0.78125 0.6875
vt 0.78125 0.9375
vt 0.8125 0.9375
vt 0.8125 0.6875
vt 0.78125 0.6875
vt 0.78125 0.9375
vt 0.8125 0.9375
vt 0.8125 0.6875
vt 0.375 0.4375
vt 0.375 0.40625
vt 0.21875 0.40625
vt 0.21875 0.4375
vt 0.375 0.40625
vt 0.375 0.4375
vt 0.21875 0.4375
vt 0.21875 0.40625
vt 0.21875 0.40625
vt 0.21875 0.4375
vt 0.375 0.4375
vt 0.375 0.40625
vt 0.40625 0.40625
vt 0.40625 0.4375
vt 0.375 0.4375
vt 0.375 0.40625
vt 0.40625 0.421875
vt 0.375 0.421875
vt 0.375 0.40625
vt 0.40625 0.40625
vt 0.40625 0.4375
vt 0.375 0.4375
vt 0.375 0.40625
vt 0.390625 0.40625
vt 0.390625 0.5625
vt 0.375 0.5625
vt 0.375 0.53125
vt 0.40625 0.53125
vt 0.40625 0.53125
vt 0.40625 0.5625
vt 0.390625 0.5625
vt 0.375 0.53125
vt 0.375 0.546875
vt 0.40625 0.546875
vt 0.40625 0.5625
vt 0.375 0.5625
vt 0.40625 0.5625
vt 0.375 0.5625
vt 0.375 0.5275624999999999
vt 0.40625 0.5275624999999999
vt 0.375 0.4375
vt 0.375 0.53125
vt 0.40625 0.53125
vt 0.40625 0.4375
vt 0.375 0.4375
vt 0.375 0.53125
vt 0.40625 0.53125
vt 0.40625 0.4375
vt 0.375 0.4375
vt 0.375 0.53125
vt 0.40625 0.53125
vt 0.40625 0.4375
vt 0.3125 0.5625
vt 0.3125 0.53125
vt 0.21875 0.53125
vt 0.21875 0.5625
vt 0.3125 0.53125
vt 0.3125 0.5625
vt 0.21875 0.5625
vt 0.21875 0.53125
vt 0.21875 0.53125
vt 0.21875 0.5625
vt 0.3125 0.5625
vt 0.3125 0.53125
vt 0.34375 0.53125
vt 0.34375 0.5625
vt 0.3125 0.5625
vt 0.3125 0.53125
vt 0.34375 0.5625
vt 0.3125 0.5625
vt 0.3125 0.53125
vt 0.34375 0.546875
vt 0.3125 0.5625
vt 0.3125 0.53125
vt 0.34375 0.53125
vt 0.34375 0.546875
vt 0.34375 0.5625
vt 0.3125 0.5625
vt 0.3125 0.53125
vt 0.34375 0.53125
vt 0.3125 0.5
vt 0.3125 0.46875
vt 0.21875 0.46875
vt 0.21875 0.5
vt 0.3125 0.46875
vt 0.3125 0.5
vt 0.21875 0.5
vt 0.21875 0.46875
vt 0.21875 0.46875
vt 0.21875 0.5
vt 0.3125 0.5
vt 0.3125 0.46875
vt 0.34375 0.46875
vt 0.34375 0.5
vt 0.3125 0.5
vt 0.3125 0.46875
vt 0.34375 0.5
vt 0.3125 0.5
vt 0.3125 0.46875
vt 0.34375 0.484375
vt 0.3125 0.5
vt 0.3125 0.46875
vt 0.34375 0.46875
vt 0.34375 0.484375
vt 0.34375 0.5
vt 0.3125 0.5
vt 0.3125 0.46875
vt 0.34375 0.46875
vt 0.28125 0.625
vt 0.25 0.625
vt 0.25 0.59375
vt 0.28125 0.59375
vt 0.3125 0.59375
vt 0.3125 0.625
vt 0.296875 0.625
vt 0.28125 0.59375
vt 0.25 0.59375
vt 0.3125 0.59375
vt 0.3125 0.625
vt 0.25 0.625
vt 0.3125 0.625
vt 0.25 0.625
vt 0.25 0.59375
vt 0.3125 0.59375
vt 0.375 0.625
vt 0.34375 0.625
vt 0.34375 0.59375
vt 0.375 0.59375
vt 0.40625 0.59375
vt 0.40625 0.625
vt 0.390625 0.625
vt 0.375 0.59375
vt 0.34375 0.59375
vt 0.40625 0.59375
vt 0.40625 0.625
vt 0.34375 0.625
vt 0.40625 0.625
vt 0.34375 0.625
vt 0.34375 0.59375
vt 0.40625 0.59375
vt 0.4375 0.375
vt 0.4375 0.59375
vt 0.40625 0.59375
vt 0.40625 0.375
vt 0.21875 0.59375
vt 0.21875 0.5625
vt 0.4375 0.5625
vt 0.4375 0.59375
vt 0.21875 0.375
vt 0.21875 0.40625
vt 0.4375 0.40625
vt 0.4375 0.375
vt 0.4375 0.375
vt 0.4375 0.59375
vt 0.21875 0.59375
vt 0.21875 0.375
vt 0.46875 0.34375
vt 0.46875 0.625
vt 0.5625 0.625
vt 0.5625 0.34375
vt 0.46875 0.34375
vt 0.46875 0.625
vt 0.5625 0.625
vt 0.5625 0.34375
vt 0.65625 0.53125
vt 0.65625 0.625
vt 0.5625 0.625
vt 0.5625 0.53125
vt 0.46875 0.34375
vt 0.46875 0.625
vt 0.5625 0.625
vt 0.5625 0.34375
vt 0.46875 0.34375
vt 0.46875 0.625
vt 0.5625 0.625
vt 0.5625 0.34375
vn 1 0 0
vn 0 1 0
vn 0 -1 0
vn 0 0 1
vn 0 0 -1
vn -1 0 0
vn -0.7071067811865476 0.7071067811865476 0
vn -0.7071067811865476 -0.7071067811865476 0
vn 0 0 1
vn 0 0 -1
vn 1 0 0
vn -1 0 0
vn 0 1 0
vn 0 -1 0
vn 0 0 1
vn 1 0 0
vn -1 0 0
vn 0 1 0
vn 0 -1 0
vn 0 0 1
vn 0.7071067811865476 0.7071067811865476 0
vn -0.7071067811865476 0.7071067811865476 0
vn 0 0.7071067811865476 0.7071067811865476
vn 0 0.7071067811865476 -0.7071067811865476
vn 1 0 0
vn -1 0 0
vn 0 0 1
vn 0 0 -1
vn 1 0 0
vn -1 0 0
vn 0 1 0
vn 0 -1 0
vn 0 0 1
vn 0 0 -1
vn 1 0 0
vn -1 0 0
vn 0 1 0
vn 0 -1 0
vn 0 0 1
vn 0 0 -1
vn 0 1 0
vn 0 -1 0
vn 0 0 1
vn 0 0 -1
vn 0 1 0
vn 0 -1 0
vn 0 0 1
vn 0 0 -1
vn 1 0 0
vn 0 1 0
vn 0 -1 0
vn 0 0 1
vn 0 0 -1
vn 0 1 0
vn 0 -1 0
vn 0 0 -1
vn -0.8944271909999161 -0.44721359549995804 0
vn 0 -1 0
vn 0 0 -1
vn 1 0 0
vn -1 0 0
vn 0 1 0
vn 0 0.44721359549995804 -0.8944271909999161
vn 1 0 0
vn -1 0 0
vn 0 0 -1
vn 0 1 0
vn 0 -1 0
vn 0 0 -1
vn -1 0 0
vn 0 1 0
vn 0 -1 0
vn -0.44721359549995804 0 -0.8944271909999161
vn 0 1 0
vn 0 -1 0
vn 0 0 -1
vn -1 0 0
vn 0 1 0
vn 0 -1 0
vn -0.44721359549995804 0 -0.8944271909999161
vn 1 0 0
vn -1 0 0
vn 0 1 0
vn 0 0.44721359549995804 -0.8944271909999161
vn 1 0 0
vn -1 0 0
vn 0 1 0
vn 0 0.44721359549995804 -0.8944271909999161
vn -1 0 0
vn 0 1 0
vn 0 -1 0
vn 0 0 -1
vn 1 0 0
vn -1 0 0
vn 0 -1 0
vn 0 0 1
vn 0 0 -1
usemtl radio_configurator
f 4/1/1 2/2/1 1/3/1 3/4/1
f 1/5/2 2/6/2 6/7/2 5/8/2
f 4/9/3 3/10/3 7/11/3 8/12/3
f 3/13/4 1/14/4 5/15/4 7/16/4
f 8/17/5 6/18/5 2/19/5 4/20/5
f 11/21/6 9/22/6 10/23/6 12/24/6
f 9/25/7 5/26/7 6/27/7 10/28/7
f 8/29/8 7/30/8 11/31/8 12/32/8
f 7/33/9 5/34/9 9/35/9 11/36/9
f 10/37/10 6/38/10 8/39/10 12/40/10
f 16/41/11 14/42/11 13/43/11 15/44/11
f 19/45/12 17/46/12 18/47/12 20/48/12
f 13/49/13 14/50/13 18/51/13 17/52/13
f 16/53/14 15/54/14 19/55/14 20/56/14
f 15/57/15 13/58/15 17/59/15 19/60/15
f 24/61/16 22/62/16 21/63/16 23/64/16
f 27/65/17 25/66/17 26/67/17 28/68/17
f 21/69/18 22/70/18 26/71/18 25/72/18
f 24/73/19 23/74/19 27/75/19 28/76/19
f 23/77/20 21/78/20 25/79/20 27/80/20
f 30/81/21 29/82/21 31/83/21 32/84/21
f 35/85/22 33/86/22 34/87/22 36/88/22
f 31/89/23 29/90/23 33/91/23 35/92/23
f 34/93/24 30/94/24 32/95/24 36/96/24
f 30/97/25 38/98/25 37/99/25 29/100/25
f 33/101/26 39/102/26 40/103/26 34/104/26
f 29/105/27 37/106/27 39/107/27 33/108/27
f 34/109/28 40/110/28 38/111/28 30/112/28
f 42/113/29 41/114/29 43/115/29 44/116/29
f 47/117/30 45/118/30 46/119/30 48/120/30
f 45/121/31 41/122/31 42/123/31 46/124/31
f 44/125/32 43/126/32 47/127/32 48/128/32
f 43/129/33 41/130/33 45/131/33 47/132/33
f 46/133/34 42/134/34 44/135/34 48/136/34
f 52/137/35 50/138/35 49/139/35 51/140/35
f 55/141/36 53/142/36 54/143/36 56/144/36
f 49/145/37 50/146/37 54/147/37 53/148/37
f 52/149/38 51/150/38 55/151/38 56/152/38
f 51/153/39 49/154/39 53/155/39 55/156/39
f 56/157/40 54/158/40 50/159/40 52/160/40
f 57/161/41 58/162/41 62/163/41 61/164/41
f 60/165/42 59/166/42 63/167/42 64/168/42
f 59/169/43 57/170/43 61/171/43 63/172/43
f 64/173/44 62/174/44 58/175/44 60/176/44
f 65/177/45 66/178/45 70/179/45 69/180/45
f 68/181/46 67/182/46 71/183/46 72/184/46
f 67/185/47 65/186/47 69/187/47 71/188/47
f 72/189/48 70/190/48 66/191/48 68/192/48
f 76/193/49 74/194/49 73/195/49 75/196/49
f 73/197/50 74/198/50 78/199/50 77/200/50
f 76/201/51 75/202/51 79/203/51 80/204/51
f 75/205/52 73/206/52 77/207/52 79/208/52
f 80/209/53 78/210/53 74/211/53 76/212/53
f 81/213/54 82/214/54 86/215/54 85/216/54
f 84/217/55 83/218/55 87/219/55 88/220/55
f 88/221/56 86/222/56 82/223/56 84/224/56
f 91/225/57 89/226/57 90/227/57 92/228/57
f 88/229/58 87/230/58 91/231/58 92/232/58
f 90/233/59 86/234/59 88/235/59 92/236/59
f 94/237/60 93/238/60 95/239/60 96/240/60
f 99/241/61 97/242/61 98/243/61 100/244/61
f 97/245/62 93/246/62 94/247/62 98/248/62
f 98/249/63 94/250/63 96/251/63 100/252/63
f 86/253/64 96/254/64 95/255/64 85/256/64
f 89/257/65 99/258/65 100/259/65 90/260/65
f 90/261/66 100/262/66 96/263/66 86/264/66
f 101/265/67 102/266/67 106/267/67 105/268/67
f 104/269/68 103/270/68 107/271/68 108/272/68
f 108/273/69 106/274/69 102/275/69 104/276/69
f 111/277/70 109/278/70 110/279/70 112/280/70
f 109/281/71 105/282/71 106/283/71 110/284/71
f 108/285/72 107/286/72 111/287/72 112/288/72
f 110/289/73 106/290/73 108/291/73 112/292/73
f 113/293/74 114/294/74 118/295/74 117/296/74
f 116/297/75 115/298/75 119/299/75 120/300/75
f 120/301/76 118/302/76 114/303/76 116/304/76
f 123/305/77 121/306/77 122/307/77 124/308/77
f 121/309/78 117/310/78 118/311/78 122/312/78
f 120/313/79 119/314/79 123/315/79 124/316/79
f 122/317/80 118/318/80 120/319/80 124/320/80
f 126/321/81 125/322/81 127/323/81 128/324/81
f 131/325/82 129/326/82 130/327/82 132/328/82
f 129/329/83 125/330/83 126/331/83 130/332/83
f 130/333/84 126/334/84 128/335/84 132/336/84
f 134/337/85 133/338/85 135/339/85 136/340/85
f 139/341/86 137/342/86 138/343/86 140/344/86
f 137/345/87 133/346/87 134/347/87 138/348/87
f 138/349/88 134/350/88 136/351/88 140/352/88
f 147/353/89 145/354/89 146/355/89 148/356/89
f 141/357/90 142/358/90 146/359/90 145/360/90
f 144/361/91 143/362/91 147/363/91 148/364/91
f 148/365/92 146/366/92 142/367/92 144/368/92
f 150/369/93 32/370/93 31/371/93 149/372/93
f 143/373/94 35/374/94 36/375/94 151/376/94
f 150/377/95 149/378/95 143/379/95 151/380/95
f 149/381/96 31/382/96 35/383/96 143/384/96
f 151/385/97 36/386/97 32/387/97 150/388/97
o knob1
v -0.0625 0.53125 0.15625
v -0.0625 0.53125 0.09375
v -0.0625 0.34375 0.15625
v -0.0625 0.34375 0.09375
v -0.125 0.53125 0.15625
v -0.125 0.53125 0.09375
v -0.125 0.34375 0.15625
v -0.125 0.34375 0.09375
vt 0.09375 0.4375
vt 0.09375 0.53125
vt 0.0625 0.53125
vt 0.0625 0.4375
vt 0.03125 0.4375
vt 0.03125 0.53125
vt 0 0.53125
vt 0 0.4375
vt 0.0625 0.5
vt 0.0625 0.53125
vt 0.03125 0.53125
vt 0.03125 0.5
vt 0.0625 0.4375
vt 0.0625 0.46875
vt 0.03125 0.46875
vt 0.03125 0.4375
vt 0.0625 0.4375
vt 0.0625 0.53125
vt 0.03125 0.53125
vt 0.03125 0.4375
vn 1 0 0
vn -1 0 0
vn 0 1 0
vn 0 -1 0
vn 0 0 1
usemtl radio_configurator
f 155/389/98 153/390/98 152/391/98 154/392/98
f 158/393/99 156/394/99 157/395/99 159/396/99
f 152/397/100 153/398/100 157/399/100 156/400/100
f 155/401/101 154/402/101 158/403/101 159/404/101
f 154/405/102 152/406/102 156/407/102 158/408/102
o knob2
v -0.0625 0.28125 0.15625
v -0.0625 0.28125 0.09375
v -0.0625 0.09375 0.15625
v -0.0625 0.09375 0.09375
v -0.125 0.28125 0.15625
v -0.125 0.28125 0.09375
v -0.125 0.09375 0.15625
v -0.125 0.09375 0.09375
vt 0.09375 0.4375
vt 0.09375 0.53125
vt 0.0625 0.53125
vt 0.0625 0.4375
vt 0.03125 0.4375
vt 0.03125 0.53125
vt 0 0.53125
vt 0 0.4375
vt 0.0625 0.5
vt 0.0625 0.53125
vt 0.03125 0.53125
vt 0.03125 0.5
vt 0.0625 0.4375
vt 0.0625 0.46875
vt 0.03125 0.46875
vt 0.03125 0.4375
vt 0.0625 0.4375
vt 0.0625 0.53125
vt 0.03125 0.53125
vt 0.03125 0.4375
vn 1 0 0
vn -1 0 0
vn 0 1 0
vn 0 -1 0
vn 0 0 1
usemtl radio_configurator
f 163/409/103 161/410/103 160/411/103 162/412/103
f 166/413/104 164/414/104 165/415/104 167/416/104
f 160/417/105 161/418/105 165/419/105 164/420/105
f 163/421/106 162/422/106 166/423/106 167/424/106
f 162/425/107 160/426/107 164/427/107 166/428/107