# Made by Pabilo8 with Blockbench
# Exported with IIToolkit Plugin
mtllib tachometer.mtl


o main
v 0.1875 0.53125 0.1875
v 0.1875 0.53125 0.125
v 0.1875 0.09375 0.1875
v 0.1875 0.09375 0.125
v -0.25 0.53125 0.1875
v -0.25 0.53125 0.125
v -0.25 0.09375 0.1875
v -0.25 0.09375 0.125
v -0.25 0.625 0.125
v -0.25 0.625 0
v -0.25 0 0.125
v -0.25 0 0
v -0.375 0.5 0.125
v -0.375 0.5 0
v -0.375 0.125 0.125
v -0.375 0.125 0
v -0.25 0.3125 0.125
v -0.375 0.3125 0.125
v -0.375 0.3125 0
v -0.25 0.3125 0
v 0.25 0.625 0.125
v 0.25 0.625 0
v 0.25 0 0.125
v 0.25 0 0
v 0.28125 0.5625 0.09375
v 0.28125 0.5625 0.03125
v 0.28125 0.0625 0.09375
v 0.28125 0.0625 0.03125
v 0.21875 0.5625 0.09375
v 0.21875 0.5625 0.03125
v 0.21875 0.0625 0.09375
v 0.21875 0.0625 0.03125
v 0.34375 0.5 0.09375
v 0.34375 0.5 0.03125
v 0.34375 0.4375 0.09375
v 0.34375 0.4375 0.03125
v 0.28125 0.5 0.09375
v 0.28125 0.5 0.03125
v 0.28125 0.4375 0.09375
v 0.28125 0.4375 0.03125
v 0.46875 0.59375 0.125
v 0.46875 0.59375 0
v 0.46875 0.03125 0.125
v 0.46875 0.03125 0
v 0.34375 0.59375 0.125
v 0.34375 0.59375 0
v 0.34375 0.03125 0.125
v 0.34375 0.03125 0
v 0.34375 0.1875 0.09375
v 0.34375 0.1875 0.03125
v 0.34375 0.125 0.09375
v 0.34375 0.125 0.03125
v 0.28125 0.1875 0.09375
v 0.28125 0.1875 0.03125
v 0.28125 0.125 0.09375
v 0.28125 0.125 0.03125
v 0.3125 0.375 -0.09375
v 0.3125 0.375 -0.15625
v 0.3125 0.3125 -0.09375
v 0.3125 0.3125 -0.15625
v -0.375 0.375 -0.09375
v -0.375 0.375 -0.15625
v -0.375 0.3125 -0.09375
v -0.375 0.3125 -0.15625
v 0.1875 0.40625 -0.0625
v 0.1875 0.40625 -0.1875
v 0.1875 0.28125 -0.0625
v 0.1875 0.28125 -0.1875
v 0.125 0.40625 -0.0625
v 0.125 0.40625 -0.1875
v 0.125 0.28125 -0.0625
v 0.125 0.28125 -0.1875
v -0.1875 0.40625 -0.0625
v -0.1875 0.40625 -0.1875
v -0.1875 0.28125 -0.0625
v -0.1875 0.28125 -0.1875
v -0.25 0.40625 -0.0625
v -0.25 0.40625 -0.1875
v -0.25 0.28125 -0.0625
v -0.25 0.28125 -0.1875
v 0.0625 0.40625 -0.0625
v 0.0625 0.40625 -0.1875
v 0.0625 0.28125 -0.0625
v 0.0625 0.28125 -0.1875
v -0.125 0.40625 -0.0625
v -0.125 0.40625 -0.1875
v -0.125 0.28125 -0.0625
v -0.125 0.28125 -0.1875
v 0.1875 0.53125 0
v 0.1875 0.53125 -0.0625
v 0.1875 0.09375 0
v 0.1875 0.09375 -0.0625
v -0.25 0.53125 0
v -0.25 0.53125 -0.0625
v -0.25 0.09375 0
v -0.25 0.09375 -0.0625
v 0.125 0.59375 0
v 0.125 0.59375 -0.0625
v 0.125 0.53125 0
v 0.125 0.53125 -0.0625
v 0 0.59375 0
v 0 0.59375 -0.0625
v 0 0.53125 0
v 0 0.53125 -0.0625
v -0.0625 0.59375 0
v -0.0625 0.59375 -0.0625
v -0.0625 0.53125 0
v -0.0625 0.53125 -0.0625
v -0.1875 0.59375 0
v -0.1875 0.59375 -0.0625
v -0.1875 0.53125 0
v -0.1875 0.53125 -0.0625
vt 0.375 0.5625
vt 0.375 1
vt 0.4375 1
vt 0.4375 0.5625
vt 0 0.5625
vt 0 1
vt 0.0625 1
vt 0.0625 0.5625
vt 0.4375 1
vt 0.4375 0.9375
vt 0 0.9375
vt 0 1
vt 0.4375 0.5625
vt 0.4375 0.625
vt 0 0.625
vt 0 0.5625
vt 0.125 0.125
vt 0.3125 0.125
vt 0.3125 0.25
vt 0.125 0.25
vt 0.125 0.13035937499999994
vt 0.125 0.25
vt 0 0.25
vt 0 0.13035937499999994
vt 0 0.13036250000000005
vt 0.125 0.13036250000000005
vt 0.125 0.25
vt 0 0.25
vt 0 0.875
vt 0 0.6875
vt 0.125 0.6875
vt 0.125 1
vt 0.12500000000000008 0.375
vt 0.12500000000000003 0.6875
vt 2.7755575615628914e-17 0.6875
vt 5.551115123125783e-17 0.5
vt 0.125 0.375
vt 0.125 0.6875
vt 0 0.6875
vt 0 0.5
vt 0.5 0.25
vt 0.3125 0.25
vt 0.3125 0.125
vt 0.5 0.125
vt 0 0.875
vt 2.7755575615628914e-17 0.6875
vt 0.12500000000000003 0.6875
vt 0.12499999999999997 1
vt 0.125 0.125
vt 0.125 0.25
vt 0.75 0.25
vt 0.75 0.125
vt 0.6875 0.25
vt 0.6875 0.125
vt 0.1875 0.125
vt 0.1875 0.25
vt 0.75 0.125
vt 0.75 0.25
vt 0.25 0.25
vt 0.25 0.125
vt 0.125 0.375
vt 0.125 1
vt 0.625 1
vt 0.625 0.375
vt 0.125 0.375
vt 0.125 1
vt 0.625 1
vt 0.625 0.375
vt 0.6875 0.4375
vt 0.6875 0.9375
vt 0.625 0.9375
vt 0.625 0.4375
vt 0.6875 0.9375
vt 0.6875 1
vt 0.625 1
vt 0.625 0.9375
vt 0.6875 0.875
vt 0.6875 0.9375
vt 0.625 0.9375
vt 0.625 0.875
vt 0.6875 0.4375
vt 0.6875 0.9375
vt 0.625 0.9375
vt 0.625 0.4375
vt 0.6875 0.4375
vt 0.6875 0.9375
vt 0.625 0.9375
vt 0.625 0.4375
vt 0.4375 0.3125
vt 0.4375 0.25
vt 0.375 0.25
vt 0.375 0.3125
vt 0.375 0.25
vt 0.375 0.3125
vt 0.3125 0.3125
vt 0.3125 0.25
vt 0.375 0.25
vt 0.375 0.3125
vt 0.4375 0.3125
vt 0.4375 0.25
vt 0.4375 0.25
vt 0.4375 0.3125
vt 0.5 0.3125
vt 0.5 0.25
vt 0.6875 0.4375
vt 0.6875 1
vt 0.8125 1
vt 0.8125 0.4375
vt 0.6875 0.4375
vt 0.6875 1
vt 0.8125 1
vt 0.8125 0.4375
vt 0.8125 0.4375
vt 0.8125 0.3125
vt 0.6875 0.3125
vt 0.6875 0.4375
vt 0.8125 0.3125
vt 0.8125 0.4375
vt 0.6875 0.4375
vt 0.6875 0.3125
vt 0.6875 0.4375
vt 0.6875 1
vt 0.8125 1
vt 0.8125 0.4375
vt 0.6875 0.4375
vt 0.6875 1
vt 0.8125 1
vt 0.8125 0.4375
vt 0.4375 0.3125
vt 0.4375 0.25
vt 0.375 0.25
vt 0.375 0.3125
vt 0.375 0.25
vt 0.375 0.3125
vt 0.3125 0.3125
vt 0.3125 0.25
vt 0.375 0.25
vt 0.375 0.3125
vt 0.4375 0.3125
vt 0.4375 0.25
vt 0.4375 0.25
vt 0.4375 0.3125
vt 0.5 0.3125
vt 0.5 0.25
vt 0.625 0.25
vt 0.625 0.3125
vt 0.6875 0.3125
vt 0.6875 0.25
vt 0 0.25
vt 0 0.3125
vt 0.0625 0.3125
vt 0.0625 0.25
vt 0.6875 0.3125
vt 0.6875 0.25
vt 0 0.25
vt 0 0.3125
vt 0.6875 0.25
vt 0.6875 0.3125
vt 0 0.3125
vt 0 0.25
vt 0 0.25
vt 0 0.3125
vt 0.6875 0.3125
vt 0.6875 0.25
vt 0 0.25
vt 0 0.3125
vt 0.6875 0.3125
vt 0.6875 0.25
vt 0.4375 0.5625
vt 0.3125 0.5625
vt 0.3125 0.4375
vt 0.4375 0.4375
vt 0.4375 0.4375
vt 0.4375 0.5625
vt 0.3125 0.5625
vt 0.3125 0.4375
vt 0.0625 0.4375
vt 0.0625 0.5625
vt 0 0.5625
vt 0 0.4375
vt 0.0625 0.375
vt 0.0625 0.5
vt 0 0.5
vt 0 0.375
vt 0.0625 0.375
vt 0.0625 0.5
vt 0 0.5
vt 0 0.375
vt 0.4375 0.5625
vt 0.3125 0.5625
vt 0.3125 0.4375
vt 0.4375 0.4375
vt 0.4375 0.4375
vt 0.4375 0.5625
vt 0.3125 0.5625
vt 0.3125 0.4375
vt 0.3125 0.4375
vt 0.3125 0.5625
vt 0.25 0.5625
vt 0.25 0.4375
vt 0.3125 0.375
vt 0.3125 0.5
vt 0.25 0.5
vt 0.25 0.375
vt 0.3125 0.375
vt 0.3125 0.5
vt 0.25 0.5
vt 0.25 0.375
vt 0.4375 0.5625
vt 0.3125 0.5625
vt 0.3125 0.4375
vt 0.4375 0.4375
vt 0.4375 0.4375
vt 0.4375 0.5625
vt 0.3125 0.5625
vt 0.3125 0.4375
vt 0.25 0.4375
vt 0.25 0.5625
vt 0.0625 0.5625
vt 0.0625 0.4375
vt 0.25 0.375
vt 0.25 0.5
vt 0.0625 0.5
vt 0.0625 0.375
vt 0.25 0.375
vt 0.25 0.5
vt 0.0625 0.5
vt 0.0625 0.375
vt 0.4375 0.5625
vt 0.4375 1
vt 0.5 1
vt 0.5 0.5625
vt 0.8125 0.5625
vt 0.8125 1
vt 0.875 1
vt 0.875 0.5625
vt 0.875 1
vt 0.875 0.9375
vt 0.4375 0.9375
vt 0.4375 1
vt 0.875 0.5625
vt 0.875 0.625
vt 0.4375 0.625
vt 0.4375 0.5625
vt 0.4375 0.5625
vt 0.4375 1
vt 0.875 1
vt 0.875 0.5625
vt 0.375 0.3125
vt 0.375 0.375
vt 0.4375 0.375
vt 0.4375 0.3125
vt 0.375 0.3125
vt 0.375 0.375
vt 0.4375 0.375
vt 0.4375 0.3125
vt 0.4375 0.375
vt 0.4375 0.3125
vt 0.3125 0.3125
vt 0.3125 0.375
vt 0.3125 0.3125
vt 0.3125 0.375
vt 0.4375 0.375
vt 0.4375 0.3125
vt 0.375 0.3125
vt 0.375 0.375
vt 0.4375 0.375
vt 0.4375 0.3125
vt 0.375 0.3125
vt 0.375 0.375
vt 0.4375 0.375
vt 0.4375 0.3125
vt 0.4375 0.375
vt 0.4375 0.3125
vt 0.3125 0.3125
vt 0.3125 0.375
vt 0.3125 0.3125
vt 0.3125 0.375
vt 0.4375 0.375
vt 0.4375 0.3125
vt 0.4375 0.5625
vt 0.4375 1
vt 0 1
vt 0 0.5625
vn 1 0 0
vn -1 0 0
vn 0 1 0
vn 0 -1 0
vn -1 0 0
vn -0.7071067811865476 0.7071067811865476 0
vn -0.7071067811865476 -0.7071067811865476 0
vn 0 0 1
vn 0 0 -1
vn 0 0 1
vn -1 0 0
vn 0 0 -1
vn 1 0 0
vn 0 1 0
vn 0 -1 0
vn 0 0 1
vn 0 0 -1
vn 1 0 0
vn 0 1 0
vn 0 -1 0
vn 0 0 1
vn 0 0 -1
vn 0 1 0
vn 0 -1 0
vn 0 0 1
vn 0 0 -1
vn 1 0 0
vn -1 0 0
vn 0 1 0
vn 0 -1 0
vn 0 0 1
vn 0 0 -1
vn 0 1 0
vn 0 -1 0
vn 0 0 1
vn 0 0 -1
vn 1 0 0
vn -1 0 0
vn 0 1 0
vn 0 -1 0
vn 0 0 1
vn 0 0 -1
vn 1 0 0
vn -1 0 0
vn 0 1 0
vn 0 -1 0
vn 0 0 -1
vn 1 0 0
vn -1 0 0
vn 0 1 0
vn 0 -1 0
vn 0 0 -1
vn 1 0 0
vn -1 0 0
vn 0 1 0
vn 0 -1 0
vn 0 0 -1
vn 1 0 0
vn -1 0 0
vn 0 1 0
vn 0 -1 0
vn 0 0 -1
vn 1 0 0
vn -1 0 0
vn 0 1 0
vn 0 0 -1
vn 1 0 0
vn -1 0 0
vn 0 1 0
vn 0 0 -1
vn 0 0 1
usemtl tachometer2
f 4/1/1 2/2/1 1/3/1 3/4/1
f 7/5/2 5/6/2 6/7/2 8/8/2
f 1/9/3 2/10/3 6/11/3 5/12/3
f 4/13/4 3/14/4 7/15/4 8/16/4
usemtl tachometer
f 14/17/5 19/18/5 18/19/5 13/20/5
f 13/21/6 9/22/6 10/23/6 14/24/6
f 12/25/7 11/26/7 15/27/7 16/28/7
f 13/29/8 18/30/8 17/31/8 9/32/8
f 10/33/9 20/34/9 19/35/9 14/36/9
f 11/37/10 17/38/10 18/39/10 15/40/10
f 15/41/11 18/42/11 19/43/11 16/44/11
f 16/45/12 19/46/12 20/47/12 12/48/12
f 24/49/13 22/50/13 21/51/13 23/52/13
f 21/53/14 22/54/14 10/55/14 9/56/14
f 24/57/15 23/58/15 11/59/15 12/60/15
f 23/61/16 21/62/16 9/63/16 11/64/16
f 12/65/17 10/66/17 22/67/17 24/68/17
f 28/69/18 26/70/18 25/71/18 27/72/18
f 25/73/19 26/74/19 30/75/19 29/76/19
f 28/77/20 27/78/20 31/79/20 32/80/20
f 27/81/21 25/82/21 29/83/21 31/84/21
f 32/85/22 30/86/22 26/87/22 28/88/22
f 33/89/23 34/90/23 38/91/23 37/92/23
f 36/93/24 35/94/24 39/95/24 40/96/24
f 35/97/25 33/98/25 37/99/25 39/100/25
f 40/101/26 38/102/26 34/103/26 36/104/26
f 44/105/27 42/106/27 41/107/27 43/108/27
f 47/109/28 45/110/28 46/111/28 48/112/28
f 41/113/29 42/114/29 46/115/29 45/116/29
f 44/117/30 43/118/30 47/119/30 48/120/30
f 43/121/31 41/122/31 45/123/31 47/124/31
f 48/125/32 46/126/32 42/127/32 44/128/32
f 49/129/33 50/130/33 54/131/33 53/132/33
f 52/133/34 51/134/34 55/135/34 56/136/34
f 51/137/35 49/138/35 53/139/35 55/140/35
f 56/141/36 54/142/36 50/143/36 52/144/36
f 60/145/37 58/146/37 57/147/37 59/148/37
f 63/149/38 61/150/38 62/151/38 64/152/38
f 57/153/39 58/154/39 62/155/39 61/156/39
f 60/157/40 59/158/40 63/159/40 64/160/40
f 59/161/41 57/162/41 61/163/41 63/164/41
f 64/165/42 62/166/42 58/167/42 60/168/42
usemtl tachometer2
f 68/169/43 66/170/43 65/171/43 67/172/43
f 71/173/44 69/174/44 70/175/44 72/176/44
f 65/177/45 66/178/45 70/179/45 69/180/45
f 68/181/46 67/182/46 71/183/46 72/184/46
f 72/185/47 70/186/47 66/187/47 68/188/47
f 76/189/48 74/190/48 73/191/48 75/192/48
f 79/193/49 77/194/49 78/195/49 80/196/49
f 73/197/50 74/198/50 78/199/50 77/200/50
f 76/201/51 75/202/51 79/203/51 80/204/51
f 80/205/52 78/206/52 74/207/52 76/208/52
f 84/209/53 82/210/53 81/211/53 83/212/53
f 87/213/54 85/214/54 86/215/54 88/216/54
f 81/217/55 82/218/55 86/219/55 85/220/55
f 84/221/56 83/222/56 87/223/56 88/224/56
f 88/225/57 86/226/57 82/227/57 84/228/57
f 92/229/58 90/230/58 89/231/58 91/232/58
f 95/233/59 93/234/59 94/235/59 96/236/59
f 89/237/60 90/238/60 94/239/60 93/240/60
f 92/241/61 91/242/61 95/243/61 96/244/61
f 96/245/62 94/246/62 90/247/62 92/248/62
usemtl tachometer
f 100/249/63 98/250/63 97/251/63 99/252/63
f 103/253/64 101/254/64 102/255/64 104/256/64
f 97/257/65 98/258/65 102/259/65 101/260/65
f 104/261/66 102/262/66 98/263/66 100/264/66
f 108/265/67 106/266/67 105/267/67 107/268/67
f 111/269/68 109/270/68 110/271/68 112/272/68
f 105/273/69 106/274/69 110/275/69 109/276/69
f 112/277/70 110/278/70 106/279/70 108/280/70
usemtl tachometer2
f 3/281/71 1/282/71 5/283/71 7/284/71
o gauge
v -0.030478705277486043 0.325437442836749 0.21875000000000008
v -0.030478705277486043 0.325437442836749 0.15625000000000008
v 0.012937442836749774 0.2804787052774854 0.21875000000000008
v 0.012937442836749774 0.2804787052774854 0.15625000000000008
v -0.21031365551454026 0.15177285037980592 0.21875000000000008
v -0.21031365551454026 0.15177285037980592 0.15625000000000008
v -0.16689750740030446 0.10681411282054233 0.21875000000000008
v -0.16689750740030446 0.10681411282054233 0.15625000000000008
vt 0.25 0.3125
vt 0.25 0.375
vt 0.3125 0.375
vt 0.3125 0.3125
vt 0.0625 0.3125
vt 0.0625 0.375
vt 0.125 0.375
vt 0.125 0.3125
vt 0.0625 0.375
vt 0.0625 0.3125
vt 0.3125 0.3125
vt 0.3125 0.375
vt 0.3125 0.3125
vt 0.3125 0.375
vt 0.0625 0.375
vt 0.0625 0.3125
vt 0.0625 0.3125
vt 0.0625 0.375
vt 0.3125 0.375
vt 0.3125 0.3125
vn 0.7193398009482175 0.694658369827773 0
vn -0.7193398009482175 -0.694658369827773 0
vn -0.694658369827773 0.7193398009482175 0
vn 0.694658369827773 -0.7193398009482175 0
vn 0 0 1
usemtl tachometer
f 116/285/72 114/286/72 113/287/72 115/288/72
f 119/289/73 117/290/73 118/291/73 120/292/73
f 113/293/74 114/294/74 118/295/74 117/296/74
f 116/297/75 115/298/75 119/299/75 120/300/75
f 115/301/76 113/302/76 117/303/76 119/304/76