# Made by Pabilo8 with Blockbench
# Exported with IIToolkit Plugin
mtllib fuel_station.mtl


o upper
v -0.34375000000000044 2.25 0.8125
v -0.34375000000000044 2.25 0.3125
v -0.34375000000000044 1.625 0.8125
v -0.34375000000000044 1.625 0.3125
v -0.7187500000000004 2.25 0.8125
v -0.7187500000000004 2.25 0.3125
v -0.7187500000000004 1.625 0.8125
v -0.7187500000000004 1.625 0.3125
v -0.15625000000000044 2.1875 0.5625
v -0.15625000000000044 2.1875 0.4375
v -0.15625000000000044 1.5625 0.5625
v -0.15625000000000044 1.5625 0.4375
v -0.28125000000000044 2.1875 0.5625
v -0.28125000000000044 2.1875 0.4375
v -0.28125000000000044 1.5625 0.5625
v -0.28125000000000044 1.5625 0.4375
v -0.7187500000000004 1.5625 0.4375
v -0.7187500000000004 1.5625 0.5625
v -0.7187500000000004 2.375 0.4375
v -0.7187500000000004 2.375 0.5625
v -0.8437500000000004 1.5625 0.4375
v -0.8437500000000004 1.5625 0.5625
v -0.8437500000000004 2.375 0.4375
v -0.8437500000000004 2.375 0.5625
v -0.12500000000000033 2.3125 0.59375
v -0.12500000000000033 2.3125 0.40624999999999956
v -0.12500000000000033 2.0625 0.59375
v -0.12500000000000033 2.0625 0.40624999999999956
v -0.31250000000000033 2.3125 0.59375
v -0.31250000000000033 2.3125 0.40624999999999956
v -0.31250000000000033 2.0625 0.59375
v -0.31250000000000033 2.0625 0.40624999999999956
v -0.09375000000000044 2.375 0.625
v -0.09375000000000044 2.375 0.375
v -0.09375000000000044 2.3125 0.625
v -0.09375000000000044 2.3125 0.375
v -0.34375000000000044 2.375 0.625
v -0.34375000000000044 2.375 0.375
v -0.34375000000000044 2.3125 0.625
v -0.34375000000000044 2.3125 0.375
v -0.09375000000000044 2.0625 0.625
v -0.09375000000000044 2.0625 0.375
v -0.09375000000000044 2 0.625
v -0.09375000000000044 2 0.375
v -0.34375000000000044 2.0625 0.625
v -0.34375000000000044 2.0625 0.375
v -0.34375000000000044 2 0.625
v -0.34375000000000044 2 0.375
v -0.0625 2.5 0.5625
v -0.0625 2.5 0.4375
v -0.0625 2.375 0.5625
v -0.0625 2.375 0.4375
v -0.9375 2.5 0.5625
v -0.9375 2.5 0.4375
v -0.9375 2.375 0.5625
v -0.9375 2.375 0.4375
v -0.40625 1.9375 0.75
v -0.65625 2.1875 0.75
v -0.65625 2.1875 0.875
v -0.65625 1.9375 0.875
v -0.65625 1.9375 0.75
v -0.40625 2.1875 0.875
v -0.40625 1.9375 0.875
v -0.40625 2.1875 0.75
v -0.625 2.15625 0.9375
v -0.625 1.96875 0.9375
v -0.625 2.15625 0.875
v -0.625 1.96875 0.875
v -0.4375 2.15625 0.9375
v -0.4375 1.96875 0.9375
v -0.4375 2.15625 0.875
v -0.4375 1.96875 0.875
v -0.65625 2.1875 1
v -0.65625 1.9375 1
v -0.65625 2.1875 0.9375
v -0.65625 1.9375 0.9375
v -0.40625 2.1875 1
v -0.40625 1.9375 1
v -0.40625 2.1875 0.9375
v -0.40625 1.9375 0.9375
v -0.625 2.15625 1.0625
v -0.625 1.96875 1.0625
v -0.625 2.15625 1
v -0.625 1.96875 1
v -0.4375 2.15625 1.0625
v -0.4375 1.96875 1.0625
v -0.4375 2.15625 1
v -0.4375 1.96875 1
v -0.7187500000000009 1.9375 0.6875
v -0.7187500000000009 2.0625 0.6875
v -0.7187500000000009 1.9375 0.5625
v -0.7187500000000009 2.0625 0.5625
v -0.8437500000000004 1.9375 0.625
v -0.8437500000000004 2.0625 0.625
v -0.8437500000000004 1.9375 0.5625
v -0.8437500000000004 2.0625 0.5625
v -0.7187500000000009 1.75 0.6875
v -0.7187500000000009 1.875 0.6875
v -0.7187500000000009 1.75 0.5625
v -0.7187500000000009 1.875 0.5625
v -0.8437500000000004 1.75 0.625
v -0.8437500000000004 1.875 0.625
v -0.8437500000000004 1.75 0.5625
v -0.8437500000000004 1.875 0.5625
v -0.5312500000000002 2.3125000000000004 0.5625
v -0.5312500000000002 2.3125000000000004 0.6875
v -0.6562500000000003 2.3125 0.5625
v -0.6562500000000003 2.3125 0.6875
v -0.5937500000000002 2.4375 0.5625
v -0.5937500000000002 2.4375 0.6875
v -0.6562500000000003 2.4375 0.5625
v -0.6562500000000003 2.4375 0.6875
v -0.7187500000000004 2.4375 0.6875
v -0.7187500000000004 2.4375 0.5625
v -0.7187500000000004 2.3125 0.6875
v -0.7187500000000004 2.3125 0.5625
v -0.8437500000000004 2.4375 0.6875
v -0.8437500000000004 2.4375 0.5625
v -0.7812500000000004 2.3125 0.6875
v -0.7812500000000004 2.3125 0.5625
v -0.7187500000000003 2.625 0.6875
v -0.7187500000000003 2.625 0.5625
v -0.84375 2.625 0.6875
v -0.84375 2.625 0.5625
v -0.7187500000000002 2.75 0.6875
v -0.7187500000000002 2.75 0.5625
v -0.8437499999999996 2.6875 0.6875
v -0.8437499999999996 2.6875 0.5625
v -0.31250000000000044 2.875 0.75
v -0.31250000000000044 2.875 0.375
v -0.31250000000000044 2.5 0.75
v -0.31250000000000044 2.5 0.375
v -0.6875000000000009 2.875 0.75
v -0.6875000000000009 2.875 0.375
v -0.6875000000000009 2.5 0.75
v -0.6875000000000009 2.5 0.375
v -0.09375000000000044 1.6508883476483183 0.5
v -0.09375000000000044 1.5625 0.4116116523516815
v -0.09375000000000044 1.5625 0.5883883476483185
v -0.09375000000000044 1.4741116523516817 0.5
v -0.9062500000000004 1.6508883476483183 0.5
v -0.9062500000000004 1.5625 0.4116116523516815
v -0.9062500000000004 1.5625 0.5883883476483185
v -0.9062500000000004 1.4741116523516817 0.5
v -0.46875000000000056 2.3125 0.75
v -0.46875000000000056 2.3125 0.5
v -0.46875000000000056 2.25 0.75
v -0.46875000000000056 2.25 0.5
v -0.7187500000000004 2.3125 0.75
v -0.7187500000000004 2.3125 0.5
v -0.7187500000000004 2.25 0.75
v -0.7187500000000004 2.25 0.5
v -0.6562500000000004 2.625 0.6875
v -0.6562500000000004 2.625 0.5625
v -0.6562500000000004 2.75 0.6875
v -0.6562500000000004 2.75 0.5625
v -0.4375000000000009 3.0625 0.625
v -0.4375000000000009 3.0625 0.5
v -0.4375000000000009 2.875 0.625
v -0.4375000000000009 2.875 0.5
v -0.5625000000000009 3.0625 0.625
v -0.5625000000000009 3.0625 0.5
v -0.5625000000000009 2.875 0.625
v -0.5625000000000009 2.875 0.5
vt 0.25 0.1875
vt 0.25 0.5
vt 0 0.5
vt 0 0.1875
vt 0.25 0.1875
vt 0.25 0.5
vt 0 0.5
vt 0 0.1875
vt 0.4375 0.21875
vt 0.4375 0.46875
vt 0.25 0.46875
vt 0.25 0.21875
vt 0.4375 0.21875
vt 0.4375 0.46875
vt 0.25 0.46875
vt 0.25 0.21875
vt 0.4375 0.1875
vt 0.4375 0.5
vt 0.25 0.5
vt 0.25 0.1875
vt 0.4375 0.1875
vt 0.4375 0.5
vt 0.25 0.5
vt 0.25 0.1875
vt 0.9375 0.53125
vt 0.9375 0.84375
vt 1 0.84375
vt 1 0.53125
vt 0.9375 0.53125
vt 0.9375 0.84375
vt 1 0.84375
vt 1 0.53125
vt 1 0.53125
vt 1 0.84375
vt 0.9375 0.84375
vt 0.9375 0.53125
vt 1 0.53125
vt 1 0.84375
vt 0.9375 0.84375
vt 0.9375 0.53125
vt 1 0.9375
vt 1 1
vt 0.9375 1
vt 0.9375 0.9375
vt 0.9375 0.4375
vt 0.9375 0.84375
vt 1 0.84375
vt 1 0.4375
vt 0.9375 0.4375
vt 0.9375 0.84375
vt 1 0.84375
vt 1 0.4375
vt 1 0.4375
vt 1 0.84375
vt 0.9375 0.84375
vt 0.9375 0.4375
vt 1 0.4375
vt 1 0.84375
vt 0.9375 0.84375
vt 0.9375 0.4375
vt 1 0.9375
vt 1 1
vt 0.9375 1
vt 0.9375 0.9375
vt 0.09375000000000028 0.78125
vt 0.09375000000000028 0.90625
vt 0 0.90625
vt 0 0.78125
vt 0.09375000000000028 0.78125
vt 0.09375000000000028 0.90625
vt 0 0.90625
vt 0 0.78125
vt 0 0.78125
vt 0 0.90625
vt 0.09375 0.90625
vt 0.09375 0.78125
vt 0 0.78125
vt 0 0.90625
vt 0.09375 0.90625
vt 0.09375 0.78125
vt 0.53125 0.53125
vt 0.53125 0.5625
vt 0.65625 0.5625
vt 0.65625 0.53125
vt 0.65625 0.625
vt 0.65625 0.65625
vt 0.53125 0.65625
vt 0.53125 0.625
vt 0.65625 0.53125
vt 0.65625 0.65625
vt 0.53125 0.65625
vt 0.53125 0.53125
vt 0.65625 0.65625
vt 0.65625 0.53125
vt 0.53125 0.53125
vt 0.53125 0.65625
vt 0.65625 0.53125
vt 0.65625 0.5625
vt 0.53125 0.5625
vt 0.53125 0.53125
vt 0.53125 0.625
vt 0.53125 0.65625
vt 0.65625 0.65625
vt 0.65625 0.625
vt 0.53125 0.53125
vt 0.53125 0.5625
vt 0.65625 0.5625
vt 0.65625 0.53125
vt 0.65625 0.625
vt 0.65625 0.65625
vt 0.53125 0.65625
vt 0.53125 0.625
vt 0.65625 0.53125
vt 0.65625 0.65625
vt 0.53125 0.65625
vt 0.53125 0.53125
vt 0.65625 0.65625
vt 0.65625 0.53125
vt 0.53125 0.53125
vt 0.53125 0.65625
vt 0.65625 0.53125
vt 0.65625 0.5625
vt 0.53125 0.5625
vt 0.53125 0.53125
vt 0.53125 0.625
vt 0.53125 0.65625
vt 0.65625 0.65625
vt 0.65625 0.625
vt 0.46875 0
vt 0.46875 0.0625
vt 0.53125 0.0625
vt 0.53125 0
vt 0.53125 0
vt 0.53125 0.0625
vt 0.46875 0.0625
vt 0.46875 0
vt 0.4375 0
vt 0.4375 0.0625
vt 0 0.0625
vt 0 0
vt 0.4375 0
vt 0.4375 0.0625
vt 0 0.0625
vt 0 0
vt 0.4375 0.0625
vt 0.4375 0
vt 0 0
vt 0 0.0625
vt 0.4375 0
vt 0.4375 0.0625
vt 0 0.0625
vt 0 0
vt 0.65625 0.375
vt 0.59375 0.375
vt 0.59375 0.25
vt 0.65625 0.25
vt 0.65625 0.375
vt 0.59375 0.375
vt 0.59375 0.25
vt 0.65625 0.25
vt 0.625 0.25
vt 0.625 0.375
vt 0.5 0.375
vt 0.5 0.25
vt 0.65625 0.375
vt 0.59375 0.375
vt 0.59375 0.25
vt 0.65625 0.25
vt 0.65625 0.375
vt 0.59375 0.375
vt 0.59375 0.25
vt 0.65625 0.25
vt 0.78125 0.375
vt 0.78125 0.40625
vt 0.6875 0.40625
vt 0.6875 0.375
vt 0.6875 0.375
vt 0.6875 0.40625
vt 0.59375 0.40625
vt 0.59375 0.375
vt 0.59375 0.375
vt 0.59375 0.40625
vt 0.5 0.40625
vt 0.5 0.375
vt 0.875 0.375
vt 0.875 0.40625
vt 0.78125 0.40625
vt 0.78125 0.375
vt 0.625 0.375
vt 0.59375 0.375
vt 0.59375 0.25
vt 0.625 0.25
vt 0.53125 0.375
vt 0.5 0.375
vt 0.5 0.25
vt 0.53125 0.25
vt 0.625 0.125
vt 0.625 0.25
vt 0.5 0.25
vt 0.5 0.125
vt 0.625 0.25
vt 0.625 0.375
vt 0.5 0.375
vt 0.5 0.25
vt 0.625 0.25
vt 0.625 0.28125
vt 0.5 0.28125
vt 0.5 0.25
vt 0.625 0.34375
vt 0.625 0.375
vt 0.5 0.375
vt 0.5 0.34375
vt 0.78125 0.375
vt 0.78125 0.40625
vt 0.6875 0.40625
vt 0.6875 0.375
vt 0.6875 0.375
vt 0.6875 0.40625
vt 0.59375 0.40625
vt 0.59375 0.375
vt 0.6875 0.40625
vt 0.6875 0.5
vt 0.59375 0.5
vt 0.59375 0.40625
vt 0.59375 0.375
vt 0.59375 0.40625
vt 0.5 0.40625
vt 0.5 0.375
vt 0.875 0.375
vt 0.875 0.40625
vt 0.78125 0.40625
vt 0.78125 0.375
vt 0.125 0.875
vt 0.125 0.9375
vt 0 0.9375
vt 0 0.875
vt 0.125 0.9999999999999992
vt 0 0.9999999999999992
vt 0 0.8602437499999992
vt 0.125 0.8602437499999992
vt 1 0.5
vt 1 0.625
vt 0.875 0.5625
vt 0.875 0.5
vt 0.75 0
vt 0.75 0.0625
vt 0.875 0.125
vt 0.875 0
vt 0.125 0.875
vt 0.125 0.9375
vt 0 0.9375
vt 0 0.875
vt 0.125 0.9999999999999992
vt 0 0.9999999999999992
vt 0 0.8602437499999992
vt 0.125 0.8602437499999992
vt 1 0.5
vt 1 0.625
vt 0.875 0.5625
vt 0.875 0.5
vt 0.75 0
vt 0.75 0.0625
vt 0.875 0.125
vt 0.875 0
vt 0 0.9375
vt 0.125 0.9375
vt 0.125 0.875
vt 0 0.875
vt 0 0.8602437499999992
vt 0 0.9999999999999992
vt 0.125 0.9999999999999992
vt 0.125 0.8602437499999992
vt 0.875 0.5625
vt 1 0.625
vt 1 0.5
vt 0.875 0.5
vt 0.875 0.125
vt 0.75 0.0625
vt 0.75 0
vt 0.875 0
vt 0.5625 0.9375
vt 0.6875 0.9375
vt 0.6875 1
vt 0.5625 1
vt 0.5625 0.9375
vt 0.6875 0.9375
vt 0.6875 1
vt 0.5625 1
vt 0.6875 0.9375
vt 0.5625 0.9375
vt 0.5625 1
vt 0.6875 1
vt 0.5625 0.9375
vt 0.6875 0.9375
vt 0.6875 1
vt 0.5625 1
vt 0.125 0.875
vt 0.125 0.9375
vt 0 0.9375
vt 0 0.875
vt 0.125 0.9999999999999992
vt 0 0.9999999999999992
vt 0 0.8602437499999992
vt 0.125 0.8602437499999992
vt 1 0.5
vt 1 0.625
vt 0.875 0.5625
vt 0.875 0.5
vt 0.75 0
vt 0.75 0.0625
vt 0.875 0.125
vt 0.875 0
vt 0.6875 0.6875
vt 0.6875 0.875
vt 0.5625 0.875
vt 0.5625 0.6875
vt 0.6875 0.6875
vt 0.6875 0.875
vt 0.5625 0.875
vt 0.5625 0.6875
vt 0.5625 0.6875
vt 0.5625 0.875
vt 0.6875 0.875
vt 0.6875 0.6875
vt 0.5625 0.6875
vt 0.5625 0.875
vt 0.6875 0.875
vt 0.6875 0.6875
vt 0.125 0.875
vt 0.125 0.9375
vt 0 0.9375
vt 0 0.875
vt 0.125 0.9999999999999992
vt 0 0.9999999999999992
vt 0 0.8602437499999992
vt 0.125 0.8602437499999992
vt 1 0.5
vt 1 0.625
vt 0.875 0.5625
vt 0.875 0.5
vt 0.75 0
vt 0.75 0.0625
vt 0.875 0.125
vt 0.875 0
vt 0.28125 0.75
vt 0.28125 0.9375
vt 0.09375 0.9375
vt 0.09375 0.75
vt 0.28125 0.75
vt 0.28125 0.9375
vt 0.09375 0.9375
vt 0.09375 0.75
vt 0.4687500000000003 0.75
vt 0.4687500000000003 0.9375
vt 0.28125 0.9375
vt 0.28125 0.75
vt 0.9062500000000002 0.8125
vt 0.9062500000000002 1
vt 0.71875 1
vt 0.71875 0.8125
vt 0.2812500000000003 0.75
vt 0.2812500000000003 0.9375
vt 0.09375 0.9375
vt 0.09375 0.75
vt 0.2812500000000003 0.75
vt 0.2812500000000003 0.9375
vt 0.09375 0.9375
vt 0.09375 0.75
vt 0 0.9375
vt 0 1
vt 0.0625 1
vt 0.0625 0.9375
vt 0.0625 0.9375
vt 0.0625 1
vt 0 1
vt 0 0.9375
vt 0.46875 1
vt 0.46875 0.9375
vt 0.0625 0.9375
vt 0.0625 1
vt 0.46875 1
vt 0.46875 0.9375
vt 0.0625 0.9375
vt 0.0625 1
vt 0.46875 0.9375
vt 0.46875 1
vt 0.0625 1
vt 0.0625 0.9375
vt 0.46875 1
vt 0.46875 0.9375
vt 0.0625 0.9375
vt 0.0625 1
vt 0.53125 0.53125
vt 0.53125 0.5625
vt 0.65625 0.5625
vt 0.65625 0.53125
vt 0.65625 0.625
vt 0.65625 0.65625
vt 0.53125 0.65625
vt 0.53125 0.625
vt 0.65625 0.53125
vt 0.65625 0.65625
vt 0.53125 0.65625
vt 0.53125 0.53125
vt 0.65625 0.53125
vt 0.65625 0.5625
vt 0.53125 0.5625
vt 0.53125 0.53125
vt 0.53125 0.625
vt 0.53125 0.65625
vt 0.65625 0.65625
vt 0.65625 0.625
vt 0.6875 1
vt 0.6875 0.9375
vt 0.5625 0.9375
vt 0.5625 1
vt 0.6875 1
vt 0.6875 0.9375
vt 0.5625 0.9375
vt 0.5625 1
vt 0.5625 1
vt 0.5625 0.9375
vt 0.6875 0.9375
vt 0.6875 1
vt 0.6875 1
vt 0.6875 0.9375
vt 0.5625 0.9375
vt 0.5625 1
vt 0.8125 0.46875
vt 0.8125 0.5625
vt 0.875 0.5625
vt 0.875 0.46875
vt 0.8125 0.46875
vt 0.8125 0.5625
vt 0.875 0.5625
vt 0.875 0.46875
vt 0.875 0.5625
vt 0.875 0.625
vt 0.8125 0.625
vt 0.8125 0.5625
vt 0.875 0.5
vt 0.875 0.5625
vt 0.8125 0.5625
vt 0.8125 0.5
vt 0.875 0.46875
vt 0.875 0.5625
vt 0.8125 0.5625
vt 0.8125 0.46875
vt 0.875 0.46875
vt 0.875 0.5625
vt 0.8125 0.5625
vt 0.8125 0.46875
vn 1 0 0
vn -1 0 0
vn 0 1 0
vn 0 -1 0
vn 0 0 1
vn 0 0 -1
vn 1 0 0
vn -1 0 0
vn 0 0 1
vn 0 0 -1
vn 0 1 0
vn 1 0 0
vn -1 0 0
vn 0 0 -1
vn 0 0 1
vn 0 -1 0
vn 1 0 0
vn -1 0 0
vn 0 0 1
vn 0 0 -1
vn 1 0 0
vn -1 0 0
vn 0 1 0
vn 0 -1 0
vn 0 0 1
vn 0 0 -1
vn 1 0 0
vn -1 0 0
vn 0 1 0
vn 0 -1 0
vn 0 0 1
vn 0 0 -1
vn 1 0 0
vn -1 0 0
vn 0 1 0
vn 0 -1 0
vn 0 0 1
vn 0 0 -1
vn -1 0 0
vn 1 0 0
vn 0 0 1
vn 0 1 0
vn 0 -1 0
vn -1 0 0
vn 1 0 0
vn 0 1 0
vn 0 -1 0
vn -1 0 0
vn 1 0 0
vn 0 0 1
vn 0 0 -1
vn 0 1 0
vn 0 -1 0
vn -1 0 0
vn 1 0 0
vn 0 0 1
vn 0 1 0
vn 0 -1 0
vn -1 0 0
vn -0.44721359549995926 0 0.8944271909999153
vn 0 -1 0
vn 0 1 0
vn -1 0 0
vn -0.44721359549995926 0 0.8944271909999153
vn 0 -1 0
vn 0 1 0
vn -3.5527136788004946e-15 1 0
vn 0.8944271909999153 0.44721359549995926 0
vn 0 0 -1
vn 0 0 1
vn 8.881784197001229e-16 1 0
vn 0 -1 0
vn 0 0 1
vn 0 0 -1
vn 0 -1 0
vn -0.8944271909999161 -0.44721359549995804 0
vn 0 0 1
vn 0 0 -1
vn 1 -8.881784197001244e-16 0
vn -1 2.3684757858670005e-15 0
vn 0 0 1
vn 0 0 -1
vn -1 7.105427357601002e-15 0
vn -0.44721359549995987 0.894427190999915 0
vn 0 0 1
vn 0 0 -1
vn 1 0 0
vn -1 0 0
vn 0 1 0
vn 0 -1 0
vn 0 0 1
vn 0 0 -1
vn 1 0 0
vn -1 0 0
vn 0 0.7071067811865485 -0.7071067811865467
vn 0 -0.7071067811865485 0.7071067811865467
vn 0 0.7071067811865485 0.7071067811865467
vn 0 -0.7071067811865485 -0.7071067811865467
vn 1 0 0
vn -1 0 0
vn 0 1 0
vn 0 0 1
vn 0 0 -1
vn 0 -1 0
vn 0 1 0
vn 0 0 1
vn 0 0 -1
vn 1 0 0
vn -1 0 0
vn 0 1 0
vn 0 -1 0
vn 0 0 1
vn 0 0 -1
usemtl heavy_inserter
f 4/1/1 2/2/1 1/3/1
f 4/1/1 1/3/1 3/4/1
f 7/5/2 5/6/2 6/7/2
f 7/5/2 6/7/2 8/8/2
f 1/9/3 2/10/3 6/11/3
f 1/9/3 6/11/3 5/12/3
f 4/13/4 3/14/4 7/15/4
f 4/13/4 7/15/4 8/16/4
f 3/17/5 1/18/5 5/19/5
f 3/17/5 5/19/5 7/20/5
f 8/21/6 6/22/6 2/23/6
f 8/21/6 2/23/6 4/24/6
f 12/25/7 10/26/7 9/27/7
f 12/25/7 9/27/7 11/28/7
f 15/29/8 13/30/8 14/31/8
f 15/29/8 14/31/8 16/32/8
f 11/33/9 9/34/9 13/35/9
f 11/33/9 13/35/9 15/36/9
f 16/37/10 14/38/10 10/39/10
f 16/37/10 10/39/10 12/40/10
f 9/41/11 10/42/11 14/43/11
f 9/41/11 14/43/11 13/44/11
f 20/45/12 18/46/12 17/47/12
f 20/45/12 17/47/12 19/48/12
f 23/49/13 21/50/13 22/51/13
f 23/49/13 22/51/13 24/52/13
f 19/53/14 17/54/14 21/55/14
f 19/53/14 21/55/14 23/56/14
f 24/57/15 22/58/15 18/59/15
f 24/57/15 18/59/15 20/60/15
f 17/61/16 18/62/16 22/63/16
f 17/61/16 22/63/16 21/64/16
f 28/65/17 26/66/17 25/67/17
f 28/65/17 25/67/17 27/68/17
f 31/69/18 29/70/18 30/71/18
f 31/69/18 30/71/18 32/72/18
f 27/73/19 25/74/19 29/75/19
f 27/73/19 29/75/19 31/76/19
f 32/77/20 30/78/20 26/79/20
f 32/77/20 26/79/20 28/80/20
f 36/81/21 34/82/21 33/83/21
f 36/81/21 33/83/21 35/84/21
f 39/85/22 37/86/22 38/87/22
f 39/85/22 38/87/22 40/88/22
f 33/89/23 34/90/23 38/91/23
f 33/89/23 38/91/23 37/92/23
f 36/93/24 35/94/24 39/95/24
f 36/93/24 39/95/24 40/96/24
f 35/97/25 33/98/25 37/99/25
f 35/97/25 37/99/25 39/100/25
f 40/101/26 38/102/26 34/103/26
f 40/101/26 34/103/26 36/104/26
f 44/105/27 42/106/27 41/107/27
f 44/105/27 41/107/27 43/108/27
f 47/109/28 45/110/28 46/111/28
f 47/109/28 46/111/28 48/112/28
f 41/113/29 42/114/29 46/115/29
f 41/113/29 46/115/29 45/116/29
f 44/117/30 43/118/30 47/119/30
f 44/117/30 47/119/30 48/120/30
f 43/121/31 41/122/31 45/123/31
f 43/121/31 45/123/31 47/124/31
f 48/125/32 46/126/32 42/127/32
f 48/125/32 42/127/32 44/128/32
f 52/129/33 50/130/33 49/131/33
f 52/129/33 49/131/33 51/132/33
f 55/133/34 53/134/34 54/135/34
f 55/133/34 54/135/34 56/136/34
f 49/137/35 50/138/35 54/139/35
f 49/137/35 54/139/35 53/140/35
f 52/141/36 51/142/36 55/143/36
f 52/141/36 55/143/36 56/144/36
f 51/145/37 49/146/37 53/147/37
f 51/145/37 53/147/37 55/148/37
f 56/149/38 54/150/38 50/151/38
f 56/149/38 50/151/38 52/152/38
f 61/153/39 60/154/39 59/155/39
f 61/153/39 59/155/39 58/156/39
f 64/157/40 62/158/40 63/159/40
f 64/157/40 63/159/40 57/160/40
f 59/161/41 60/162/41 63/163/41
f 59/161/41 63/163/41 62/164/41
f 58/165/42 59/166/42 62/167/42
f 58/165/42 62/167/42 64/168/42
f 57/169/43 63/170/43 60/171/43
f 57/169/43 60/171/43 61/172/43
f 68/173/44 66/174/44 65/175/44
f 68/173/44 65/175/44 67/176/44
f 71/177/45 69/178/45 70/179/45
f 71/177/45 70/179/45 72/180/45
f 67/181/46 65/182/46 69/183/46
f 67/181/46 69/183/46 71/184/46
f 72/185/47 70/186/47 66/187/47
f 72/185/47 66/187/47 68/188/47
f 76/189/48 74/190/48 73/191/48
f 76/189/48 73/191/48 75/192/48
f 79/193/49 77/194/49 78/195/49
f 79/193/49 78/195/49 80/196/49
f 73/197/50 74/198/50 78/199/50
f 73/197/50 78/199/50 77/200/50
f 76/201/51 75/202/51 79/203/51
f 76/201/51 79/203/51 80/204/51
f 75/205/52 73/206/52 77/207/52
f 75/205/52 77/207/52 79/208/52
f 80/209/53 78/210/53 74/211/53
f 80/209/53 74/211/53 76/212/53
f 84/213/54 82/214/54 81/215/54
f 84/213/54 81/215/54 83/216/54
f 87/217/55 85/218/55 86/219/55
f 87/217/55 86/219/55 88/220/55
f 81/221/56 82/222/56 86/223/56
f 81/221/56 86/223/56 85/224/56
f 83/225/57 81/226/57 85/227/57
f 83/225/57 85/227/57 87/228/57
f 88/229/58 86/230/58 82/231/58
f 88/229/58 82/231/58 84/232/58
usemtl common_copper_cable
f 95/233/59 93/234/59 94/235/59
f 95/233/59 94/235/59 96/236/59
f 89/237/60 90/238/60 94/239/60
f 89/237/60 94/239/60 93/240/60
f 91/241/61 89/242/61 93/243/61
f 91/241/61 93/243/61 95/244/61
f 96/245/62 94/246/62 90/247/62
f 96/245/62 90/247/62 92/248/62
f 103/249/63 101/250/63 102/251/63
f 103/249/63 102/251/63 104/252/63
f 97/253/64 98/254/64 102/255/64
f 97/253/64 102/255/64 101/256/64
f 99/257/65 97/258/65 101/259/65
f 99/257/65 101/259/65 103/260/65
f 104/261/66 102/262/66 98/263/66
f 104/261/66 98/263/66 100/264/66
f 110/265/67 109/266/67 111/267/67
f 110/265/67 111/267/67 112/268/67
f 110/269/68 106/270/68 105/271/68
f 110/269/68 105/271/68 109/272/68
f 109/273/69 105/274/69 107/275/69
f 109/273/69 107/275/69 111/276/69
f 106/277/70 110/278/70 112/279/70
f 106/277/70 112/279/70 108/280/70
f 112/281/71 111/282/71 114/283/71
f 112/281/71 114/283/71 113/284/71
f 107/285/72 108/286/72 115/287/72
f 107/285/72 115/287/72 116/288/72
f 108/289/73 112/290/73 113/291/73
f 108/289/73 113/291/73 115/292/73
f 116/293/74 114/294/74 111/295/74
f 116/293/74 111/295/74 107/296/74
f 115/297/75 119/298/75 120/299/75
f 115/297/75 120/299/75 116/300/75
f 117/301/76 118/302/76 120/303/76
f 117/301/76 120/303/76 119/304/76
f 113/305/77 117/306/77 119/307/77
f 113/305/77 119/307/77 115/308/77
f 116/309/78 120/310/78 118/311/78
f 116/309/78 118/311/78 114/312/78
f 114/313/79 122/314/79 121/315/79
f 114/313/79 121/315/79 113/316/79
f 117/317/80 123/318/80 124/319/80
f 117/317/80 124/319/80 118/320/80
f 113/321/81 121/322/81 123/323/81
f 113/321/81 123/323/81 117/324/81
f 118/325/82 124/326/82 122/327/82
f 118/325/82 122/327/82 114/328/82
f 123/329/83 127/330/83 128/331/83
f 123/329/83 128/331/83 124/332/83
f 125/333/84 126/334/84 128/335/84
f 125/333/84 128/335/84 127/336/84
f 121/337/85 125/338/85 127/339/85
f 121/337/85 127/339/85 123/340/85
f 124/341/86 128/342/86 126/343/86
f 124/341/86 126/343/86 122/344/86
usemtl heavy_inserter
f 132/345/87 130/346/87 129/347/87
f 132/345/87 129/347/87 131/348/87
f 135/349/88 133/350/88 134/351/88
f 135/349/88 134/351/88 136/352/88
f 129/353/89 130/354/89 134/355/89
f 129/353/89 134/355/89 133/356/89
f 132/357/90 131/358/90 135/359/90
f 132/357/90 135/359/90 136/360/90
f 131/361/91 129/362/91 133/363/91
f 131/361/91 133/363/91 135/364/91
f 136/365/92 134/366/92 130/367/92
f 136/365/92 130/367/92 132/368/92
f 140/369/93 138/370/93 137/371/93
f 140/369/93 137/371/93 139/372/93
f 143/373/94 141/374/94 142/375/94
f 143/373/94 142/375/94 144/376/94
f 137/377/95 138/378/95 142/379/95
f 137/377/95 142/379/95 141/380/95
f 140/381/96 139/382/96 143/383/96
f 140/381/96 143/383/96 144/384/96
f 139/385/97 137/386/97 141/387/97
f 139/385/97 141/387/97 143/388/97
f 144/389/98 142/390/98 138/391/98
f 144/389/98 138/391/98 140/392/98
f 148/393/99 146/394/99 145/395/99
f 148/393/99 145/395/99 147/396/99
f 151/397/100 149/398/100 150/399/100
f 151/397/100 150/399/100 152/400/100
f 145/401/101 146/402/101 150/403/101
f 145/401/101 150/403/101 149/404/101
f 147/405/102 145/406/102 149/407/102
f 147/405/102 149/407/102 151/408/102
f 152/409/103 150/410/103 146/411/103
f 152/409/103 146/411/103 148/412/103
usemtl common_copper_cable
f 122/413/104 154/414/104 153/415/104
f 122/413/104 153/415/104 121/416/104
f 125/417/105 155/418/105 156/419/105
f 125/417/105 156/419/105 126/420/105
f 121/421/106 153/422/106 155/423/106
f 121/421/106 155/423/106 125/424/106
f 154/425/107 122/426/107 126/427/107
f 154/425/107 126/427/107 156/428/107
usemtl heavy_inserter
f 160/429/108 158/430/108 157/431/108
f 160/429/108 157/431/108 159/432/108
f 163/433/109 161/434/109 162/435/109
f 163/433/109 162/435/109 164/436/109
f 157/437/110 158/438/110 162/439/110
f 157/437/110 162/439/110 161/440/110
f 160/441/111 159/442/111 163/443/111
f 160/441/111 163/443/111 164/444/111
f 159/445/112 157/446/112 161/447/112
f 159/445/112 161/447/112 163/448/112
f 164/449/113 162/450/113 158/451/113
f 164/449/113 158/451/113 160/452/113
o lower_glass
v -0.15624999999999956 1.7425367570890007 0.8704384624320705
v -0.15624999999999956 1.6707836135205463 0.6972110500862042
v -0.15624999999999956 1.62705181552509 0.9182738914777067
v -0.15624999999999956 1.5552986719566355 0.7450464791318404
v -0.28124999999999956 1.7425367570890007 0.8704384624320705
v -0.28124999999999956 1.6707836135205463 0.6972110500862042
v -0.28124999999999956 1.62705181552509 0.9182738914777067
v -0.28124999999999956 1.5552986719566355 0.7450464791318404
v -0.15624999999999956 1.49794818447491 0.9182738914777067
v -0.15624999999999956 1.5697013280433647 0.7450464791318403
v -0.15624999999999956 1.3824632429109995 0.8704384624320703
v -0.15624999999999956 1.4542163864794535 0.6972110500862041
v -0.28124999999999956 1.49794818447491 0.9182738914777067
v -0.28124999999999956 1.5697013280433647 0.7450464791318403
v -0.28124999999999956 1.3824632429109995 0.8704384624320703
v -0.28124999999999956 1.4542163864794535 0.6972110500862041
vt 0.75 0.625
vt 0.6875 0.625
vt 0.6875 0.53125
vt 0.75 0.53125
vt 0.75 0.625
vt 0.6875 0.625
vt 0.6875 0.53125
vt 0.75 0.53125
vt 0.75 0.53125
vt 0.75 0.625
vt 0.6875 0.625
vt 0.6875 0.53125
vt 0.75 0.53125
vt 0.75 0.625
vt 0.6875 0.625
vt 0.6875 0.53125
vt 0.8125 0.5625
vt 0.8125 0.625
vt 0.75 0.625
vt 0.75 0.5625
vt 0.75 0.625
vt 0.6875 0.625
vt 0.6875 0.53125
vt 0.75 0.53125
vt 0.75 0.625
vt 0.6875 0.625
vt 0.6875 0.53125
vt 0.75 0.53125
vt 0.75 0.53125
vt 0.75 0.625
vt 0.6875 0.625
vt 0.6875 0.53125
vt 0.75 0.53125
vt 0.75 0.625
vt 0.6875 0.625
vt 0.6875 0.53125
vt 0.8125 0.5625
vt 0.8125 0.625
vt 0.75 0.625
vt 0.75 0.5625
vn 1 0 0
vn -1 0 0
vn 0 0.9238795325112867 -0.3826834323650897
vn 0 -0.9238795325112867 0.3826834323650897
vn 0 0.3826834323650897 0.9238795325112867
vn 1 0 0
vn -1 0 0
vn 0 0.9238795325112866 0.38268343236509034
vn 0 -0.9238795325112874 -0.3826834323650888
vn 0 -0.38268343236509095 0.9238795325112863
usemtl heavy_inserter
f 168/453/114 166/454/114 165/455/114
f 168/453/114 165/455/114 167/456/114
f 171/457/115 169/458/115 170/459/115
f 171/457/115 170/459/115 172/460/115
f 165/461/116 166/462/116 170/463/116
f 165/461/116 170/463/116 169/464/116
f 168/465/117 167/466/117 171/467/117
f 168/465/117 171/467/117 172/468/117
f 167/469/118 165/470/118 169/471/118
f 167/469/118 169/471/118 171/472/118
f 176/473/119 174/474/119 173/475/119
f 176/473/119 173/475/119 175/476/119
f 179/477/120 177/478/120 178/479/120
f 179/477/120 178/479/120 180/480/120
f 173/481/121 174/482/121 178/483/121
f 173/481/121 178/483/121 177/484/121
f 176/485/122 175/486/122 179/487/122
f 176/485/122 179/487/122 180/488/122
f 175/489/123 173/490/123 177/491/123
f 175/489/123 177/491/123 179/492/123
o lower
v -0.0625 0.625 0.5625
v -0.0625 0.625 0.4375
v -0.0625 0.5 0.5625
v -0.0625 0.5 0.4375
v -0.9375 0.625 0.5625
v -0.9375 0.625 0.4375
v -0.9375 0.5 0.5625
v -0.9375 0.5 0.4375
v -0.125 0.9687499999999996 0.59375
v -0.125 0.9687499999999996 0.40624999999999956
v -0.125 0.46874999999999956 0.59375
v -0.125 0.46874999999999956 0.40624999999999956
v -0.3125 0.9687499999999996 0.59375
v -0.3125 0.9687499999999996 0.40624999999999956
v -0.3125 0.46874999999999956 0.59375
v -0.3125 0.46874999999999956 0.40624999999999956
v -0.15625000000000044 1.5625 0.5625
v -0.15625000000000044 1.5625 0.4375
v -0.15625000000000044 0.9375 0.5625
v -0.15625000000000044 0.9375 0.4375
v -0.28125000000000044 1.5625 0.5625
v -0.28125000000000044 1.5625 0.4375
v -0.28125000000000044 0.9375 0.5625
v -0.28125000000000044 0.9375 0.4375
v -0.0625 0.9375 0.5625
v -0.0625 0.9375 0.4375
v -0.0625 0.8125 0.5625
v -0.0625 0.8125 0.4375
v -0.9375 0.9375 0.5625
v -0.9375 0.9375 0.4375
v -0.9375 0.8125 0.5625
v -0.9375 0.8125 0.4375
v -0.6875 0.9687499999999996 0.59375
v -0.6875 0.9687499999999996 0.40624999999999956
v -0.6875 0.46874999999999956 0.59375
v -0.6875 0.46874999999999956 0.40624999999999956
v -0.875 0.9687499999999996 0.59375
v -0.875 0.9687499999999996 0.40624999999999956
v -0.875 0.46874999999999956 0.59375
v -0.875 0.46874999999999956 0.40624999999999956
v -0.7187500000000004 1.5625 0.5625
v -0.7187500000000004 1.5625 0.4375
v -0.7187500000000004 0.9375 0.5625
v -0.7187500000000004 0.9375 0.4375
v -0.84375 1.5625 0.5625
v -0.8437500000000004 1.5625 0.4375
v -0.8437500000000004 0.9375 0.5625
v -0.8437500000000004 0.9375 0.4375
v -0.5937499999999996 1.4375 0.625
v -0.5937499999999996 1.4375 0.5625
v -0.5937499999999996 1.3125 0.625
v -0.5937499999999996 1.3125 0.5625
v -0.9687499999999996 1.4375 0.625
v -0.9687499999999996 1.4375 0.5625
v -0.9687499999999996 1.3125 0.625
v -0.9687499999999996 1.3125 0.5625
v -0.5937499999999996 1.4375 0.6875
v -0.5937499999999996 0.9375 0.6875
v -0.5937499999999996 0.9375 0.625
v -0.9687499999999996 1.4375 0.6875
v -0.9687499999999996 0.9375 0.6875
v -0.9687499999999996 0.9375 0.625
v -0.6562499999999996 1.3875000000000002 0.75
v -0.6562499999999996 1.3875000000000002 0.6875
v -0.6562499999999996 1.2000000000000002 0.75
v -0.6562499999999996 1.2000000000000002 0.6875
v -0.9062499999999996 1.3875000000000002 0.75
v -0.9062499999999996 1.3875000000000002 0.6875
v -0.9062499999999996 1.2000000000000002 0.75
v -0.9062499999999996 1.2000000000000002 0.6875
v -0.6562499999999996 1.1687500000000006 0.75
v -0.6562499999999996 1.1687500000000006 0.6875
v -0.6562499999999996 0.9812500000000006 0.75
v -0.6562499999999996 0.9812500000000006 0.6875
v -0.9062499999999996 1.1687500000000006 0.75
v -0.9062499999999996 1.1687500000000006 0.6875
v -0.9062499999999996 0.9812500000000006 0.75
v -0.9062499999999996 0.9812500000000006 0.6875
v -0.6562499999999996 1.5 0.6875
v -0.6562499999999996 1.5 0.5625
v -0.6562499999999996 1.4375 0.6875
v -0.6562499999999996 1.4375 0.5625
v -0.9062499999999996 1.5 0.6875
v -0.9062499999999996 1.5 0.5625
v -0.9062499999999996 1.4375 0.6875
v -0.9062499999999996 1.4375 0.5625
v -0.7187499999999998 1.625 0.6875
v -0.7187499999999998 1.625 0.5625
v -0.7187499999999998 1.5 0.6875
v -0.7187499999999998 1.5 0.5625
v -0.8437499999999996 1.5625 0.6875
v -0.8437499999999996 1.5 0.6875
v -0.8437499999999996 1.5 0.5625
v -0.34375 1.625 0.6875
v -0.34375 1.625 0.5625
v -0.34375 1.5 0.6875
v -0.34375 1.5 0.5625
v -0.09374999999999956 1.6875 0.75
v -0.09374999999999956 1.6875 0.5625
v -0.09374999999999956 1.4375 0.75
v -0.09374999999999956 1.4375 0.5625
v -0.34374999999999956 1.6875 0.75
v -0.34374999999999956 1.6875 0.5625
v -0.34374999999999956 1.4375 0.75
v -0.34374999999999956 1.4375 0.5625
v -0.15624999999999956 1.4375000000000004 0.6875
v -0.28124999999999956 1.4375000000000004 0.6875
v -0.15624999999999956 1.4375 0.5625
v -0.28124999999999956 1.4375 0.5625
v -0.15624999999999956 1.3125000000000009 0.625
v -0.28124999999999956 1.3125000000000009 0.625
v -0.15624999999999956 1.3125000000000004 0.5625
v -0.28124999999999956 1.3125000000000004 0.5625
v -0.18749999999999956 1.689747807175205 0.8246548489115241
v -0.18749999999999956 1.6419123781295686 0.7091699073476132
v -0.18749999999999956 1.6320053363932496 0.8485725634343422
v -0.18749999999999956 1.5841699073476132 0.7330876218704313
v -0.24999999999999956 1.689747807175205 0.8246548489115241
v -0.24999999999999956 1.6419123781295686 0.7091699073476132
v -0.24999999999999956 1.6320053363932496 0.8485725634343422
v -0.24999999999999956 1.5841699073476132 0.7330876218704313
v -0.18749999999999956 1.4929946636067504 0.8485725634343422
v -0.18749999999999956 1.5408300926523868 0.7330876218704313
v -0.18749999999999956 1.435252192824795 0.8246548489115241
v -0.18749999999999956 1.4830876218704314 0.7091699073476132
v -0.24999999999999956 1.4929946636067504 0.8485725634343422
v -0.24999999999999956 1.5408300926523868 0.7330876218704313
v -0.24999999999999956 1.435252192824795 0.8246548489115241
v -0.24999999999999956 1.4830876218704314 0.7091699073476132
vt 0.46875 0
vt 0.46875 0.0625
vt 0.53125 0.0625
vt 0.53125 0
vt 0.53125 0
vt 0.53125 0.0625
vt 0.46875 0.0625
vt 0.46875 0
vt 0.4375 0
vt 0.4375 0.0625
vt 0 0.0625
vt 0 0
vt 0.4375 0
vt 0.4375 0.0625
vt 0 0.0625
vt 0 0
vt 0.4375 0.0625
vt 0.4375 0
vt 0 0
vt 0 0.0625
vt 0.4375 0
vt 0.4375 0.0625
vt 0 0.0625
vt 0 0
vt 0.1875 0.5
vt 0.1875 0.75
vt 0.2812500000000003 0.75
vt 0.2812500000000003 0.5
vt 0.1875 0.5
vt 0.1875 0.75
vt 0.2812500000000003 0.75
vt 0.2812500000000003 0.5
vt 0.375 0.6562499999999998
vt 0.375 0.75
vt 0.28125 0.75
vt 0.28125 0.6562499999999998
vt 0.28125 0.6562499999999998
vt 0.28125 0.75
vt 0.375 0.75
vt 0.375 0.6562499999999998
vt 0.28125 0.5
vt 0.28125 0.75
vt 0.1875 0.75
vt 0.1875 0.5
vt 0.28125 0.5
vt 0.28125 0.75
vt 0.1875 0.75
vt 0.1875 0.5
vt 0.9375 0.53125
vt 0.9375 0.84375
vt 1 0.84375
vt 1 0.53125
vt 0.9375 0.53125
vt 0.9375 0.84375
vt 1 0.84375
vt 1 0.53125
vt 1 0.53125
vt 1 0.84375
vt 0.9375 0.84375
vt 0.9375 0.53125
vt 1 0.53125
vt 1 0.84375
vt 0.9375 0.84375
vt 0.9375 0.53125
vt 1 0.9375
vt 1 1
vt 0.9375 1
vt 0.9375 0.9375
vt 0.46875 0
vt 0.46875 0.0625
vt 0.53125 0.0625
vt 0.53125 0
vt 0.53125 0
vt 0.53125 0.0625
vt 0.46875 0.0625
vt 0.46875 0
vt 0.4375 0
vt 0.4375 0.0625
vt 0 0.0625
vt 0 0
vt 0.4375 0
vt 0.4375 0.0625
vt 0 0.0625
vt 0 0
vt 0.4375 0.0625
vt 0.4375 0
vt 0 0
vt 0 0.0625
vt 0.4375 0
vt 0.4375 0.0625
vt 0 0.0625
vt 0 0
vt 0.1875 0.5
vt 0.1875 0.75
vt 0.2812500000000003 0.75
vt 0.2812500000000003 0.5
vt 0.1875 0.5
vt 0.1875 0.75
vt 0.2812500000000003 0.75
vt 0.2812500000000003 0.5
vt 0.375 0.6562499999999998
vt 0.375 0.75
vt 0.28125 0.75
vt 0.28125 0.6562499999999998
vt 0.28125 0.6562499999999998
vt 0.28125 0.75
vt 0.375 0.75
vt 0.375 0.6562499999999998
vt 0.28125 0.5
vt 0.28125 0.75
vt 0.1875 0.75
vt 0.1875 0.5
vt 0.28125 0.5
vt 0.28125 0.75
vt 0.1875 0.75
vt 0.1875 0.5
vt 0.9375 0.53125
vt 0.9375 0.84375
vt 1 0.84375
vt 1 0.53125
vt 0.9375 0.53125
vt 0.9375 0.84375
vt 1 0.84375
vt 1 0.53125
vt 1 0.53125
vt 1 0.84375
vt 0.9375 0.84375
vt 0.9375 0.53125
vt 1 0.53125
vt 1 0.84375
vt 0.9375 0.84375
vt 0.9375 0.53125
vt 1 0.9375
vt 1 1
vt 0.9375 1
vt 0.9375 0.9375
vt 0.0625 0.4375
vt 0.0625 0.5
vt 0.03125 0.5
vt 0.03125 0.4375
vt 0.0625 0.4375
vt 0.0625 0.5
vt 0.03125 0.5
vt 0.03125 0.4375
vt 0.21875 0.46875
vt 0.21875 0.5
vt 0.03125 0.5
vt 0.03125 0.46875
vt 0.21875 0.46875
vt 0.21875 0.5
vt 0.03125 0.5
vt 0.03125 0.46875
vt 0.21875 0.4375
vt 0.21875 0.5
vt 0.03125 0.5
vt 0.03125 0.4375
vt 0.03125 0.5
vt 0.03125 0.75
vt 0 0.75
vt 0 0.5
vt 0.03125 0.5
vt 0.03125 0.75
vt 0 0.75
vt 0 0.5
vt 0.1875 0.71875
vt 0.1875 0.75
vt 0 0.75
vt 0 0.71875
vt 0.1875 0.71875
vt 0.1875 0.75
vt 0 0.75
vt 0 0.71875
vt 0.1875 0.5
vt 0.1875 0.75
vt 0 0.75
vt 0 0.5
vt 0.1875 0.5
vt 0.1875 0.75
vt 0 0.75
vt 0 0.5
vt 0.4375 0.5625
vt 0.4375 0.65625
vt 0.40625 0.65625
vt 0.40625 0.5625
vt 0.4375 0.5625
vt 0.4375 0.65625
vt 0.40625 0.65625
vt 0.40625 0.5625
vt 0.53125 0.625
vt 0.53125 0.65625
vt 0.40625 0.65625
vt 0.40625 0.625
vt 0.53125 0.625
vt 0.53125 0.65625
vt 0.40625 0.65625
vt 0.40625 0.625
vt 0.53125 0.5625
vt 0.53125 0.65625
vt 0.40625 0.65625
vt 0.40625 0.5625
vt 0.4375 0.5625
vt 0.4375 0.65625
vt 0.40625 0.65625
vt 0.40625 0.5625
vt 0.4375 0.5625
vt 0.4375 0.65625
vt 0.40625 0.65625
vt 0.40625 0.5625
vt 0.53125 0.625
vt 0.53125 0.65625
vt 0.40625 0.65625
vt 0.40625 0.625
vt 0.53125 0.625
vt 0.53125 0.65625
vt 0.40625 0.65625
vt 0.40625 0.625
vt 0.53125 0.5625
vt 0.53125 0.65625
vt 0.40625 0.65625
vt 0.40625 0.5625
vt 0.8125 0.75
vt 0.8125 0.78125
vt 0.75 0.78125
vt 0.75 0.75
vt 0.8125 0.75
vt 0.8125 0.78125
vt 0.75 0.78125
vt 0.75 0.75
vt 0.875 0.71875
vt 0.875 0.78125
vt 0.75 0.78125
vt 0.75 0.71875
vt 0.875 0.75
vt 0.875 0.78125
vt 0.75 0.78125
vt 0.75 0.75
vt 0.875 0.75
vt 0.875 0.78125
vt 0.75 0.78125
vt 0.75 0.75
vt 0.125 0.875
vt 0.125 0.9375
vt 0 0.9375
vt 0 0.875
vt 0.125 0.9999999999999992
vt 0 0.9999999999999992
vt 0 0.8602437499999992
vt 0.125 0.8602437499999992
vt 1 0.5
vt 1 0.625
vt 0.875 0.5625
vt 0.875 0.5
vt 0.75 0
vt 0.75 0.0625
vt 0.875 0.125
vt 0.875 0
vt 0.6874999999999998 0.9999999999999998
vt 0.5624999999999998 0.9999999999999998
vt 0.5624999999999998 0.6250000000000002
vt 0.6874999999999998 0.6250000000000002
vt 0.6874999999999998 0.9999999999999998
vt 0.5624999999999998 0.9999999999999998
vt 0.5624999999999998 0.6250000000000002
vt 0.6874999999999998 0.6250000000000002
vt 0.5624999999999998 0.9999999999999998
vt 0.6874999999999998 0.9999999999999998
vt 0.6874999999999998 0.6250000000000002
vt 0.5624999999999998 0.6250000000000002
vt 0.5624999999999998 0.6250000000000002
vt 0.6874999999999998 0.6250000000000002
vt 0.6874999999999998 0.9999999999999998
vt 0.5624999999999998 0.9999999999999998
vt 0.5 0.75
vt 0.375 0.75
vt 0.375 0.65625
vt 0.5 0.65625
vt 0.5 0.75
vt 0.375 0.75
vt 0.375 0.65625
vt 0.5 0.65625
vt 0.5 0.65625
vt 0.5 0.75
vt 0.375 0.75
vt 0.375 0.65625
vt 0.5 0.65625
vt 0.5 0.75
vt 0.375 0.75
vt 0.375 0.65625
vt 0.40625 0.53125
vt 0.40625 0.65625
vt 0.28125 0.65625
vt 0.28125 0.53125
vt 0.40625 0.53125
vt 0.40625 0.65625
vt 0.28125 0.65625
vt 0.28125 0.53125
vt 0.125 0.875
vt 0.125 0.9375
vt 0 0.9375
vt 0 0.875
vt 0.125 0.9999999999999992
vt 0 0.9999999999999992
vt 0 0.8602437499999992
vt 0.125 0.8602437499999992
vt 1 0.5
vt 1 0.625
vt 0.875 0.5625
vt 0.875 0.5
vt 0.75 0
vt 0.75 0.0625
vt 0.875 0.125
vt 0.875 0
vt 0.6875 0.625
vt 0.65625 0.625
vt 0.65625 0.53125
vt 0.6875 0.53125
vt 0.6875 0.625
vt 0.65625 0.625
vt 0.65625 0.53125
vt 0.6875 0.53125
vt 0.6875 0.53125
vt 0.6875 0.625
vt 0.65625 0.625
vt 0.65625 0.53125
vt 0.6875 0.53125
vt 0.6875 0.625
vt 0.65625 0.625
vt 0.65625 0.53125
vt 0.6875 0.59375
vt 0.6875 0.625
vt 0.65625 0.625
vt 0.65625 0.59375
vt 0.6875 0.625
vt 0.65625 0.625
vt 0.65625 0.53125
vt 0.6875 0.53125
vt 0.6875 0.625
vt 0.65625 0.625
vt 0.65625 0.53125
vt 0.6875 0.53125
vt 0.6875 0.53125
vt 0.6875 0.625
vt 0.65625 0.625
vt 0.65625 0.53125
vt 0.6875 0.53125
vt 0.6875 0.625
vt 0.65625 0.625
vt 0.65625 0.53125
vt 0.6875 0.59375
vt 0.6875 0.625
vt 0.65625 0.625
vt 0.65625 0.59375
vn 1 0 0
vn -1 0 0
vn 0 1 0
vn 0 -1 0
vn 0 0 1
vn 0 0 -1
vn 1 0 0
vn -1 0 0
vn 0 1 0
vn 0 -1 0
vn 0 0 1
vn 0 0 -1
vn 1 0 0
vn -1 0 0
vn 0 0 1
vn 0 0 -1
vn 0 1 0
vn 1 0 0
vn -1 0 0
vn 0 1 0
vn 0 -1 0
vn 0 0 1
vn 0 0 -1
vn 1 0 0
vn -1 0 0
vn 0 1 0
vn 0 -1 0
vn 0 0 1
vn 0 0 -1
vn 1 0 0
vn -1 7.105427357601002e-16 3.552713678800501e-15
vn 0 0 1
vn 0 0 -1
vn 0 1 0
vn 1 0 0
vn -1 0 0
vn 0 1 0
vn 0 -1 0
vn 0 0 -1
vn 1 0 0
vn -1 0 0
vn 0 1 0
vn 0 -1 0
vn 0 0 1
vn 0 0 -1
vn 1 0 0
vn -1 0 0
vn 0 1 0
vn 0 -1 0
vn 0 0 1
vn 1 0 0
vn -1 0 0
vn 0 1 0
vn 0 -1 0
vn 0 0 1
vn 1 0 0
vn -1 0 0
vn 0 1 0
vn 0 0 1
vn 0 0 -1
vn -1 0 3.552713678800501e-15
vn -0.4472135954999573 0.8944271909999162 0
vn 0 0 1
vn 0 0 -1
vn 0 1 0
vn 0 -1 0
vn 0 0 1
vn 0 0 -1
vn 1 0 0
vn -1 0 0
vn 0 1 0
vn 0 -1 0
vn 0 0 1
vn 0 0 -1
vn 0 -1 7.105427357601002e-15
vn 0 -0.44721359549995926 0.8944271909999153
vn 1 0 0
vn -1 0 0
vn 1 0 0
vn -1 0 0
vn 0 0.9238795325112862 -0.38268343236509106
vn 0 -0.9238795325112862 0.38268343236509106
vn 0 0.3826834323650899 0.9238795325112867
vn 1 0 0
vn -1 0 0
vn 0 0.9238795325112862 0.38268343236509106
vn 0 -0.9238795325112862 -0.38268343236509106
vn 0 -0.3826834323650899 0.9238795325112867
usemtl heavy_inserter
f 184/493/124 182/494/124 181/495/124
f 184/493/124 181/495/124 183/496/124
f 187/497/125 185/498/125 186/499/125
f 187/497/125 186/499/125 188/500/125
f 181/501/126 182/502/126 186/503/126
f 181/501/126 186/503/126 185/504/126
f 184/505/127 183/506/127 187/507/127
f 184/505/127 187/507/127 188/508/127
f 183/509/128 181/510/128 185/511/128
f 183/509/128 185/511/128 187/512/128
f 188/513/129 186/514/129 182/515/129
f 188/513/129 182/515/129 184/516/129
f 192/517/130 190/518/130 189/519/130
f 192/517/130 189/519/130 191/520/130
f 195/521/131 193/522/131 194/523/131
f 195/521/131 194/523/131 196/524/131
f 189/525/132 190/526/132 194/527/132
f 189/525/132 194/527/132 193/528/132
f 192/529/133 191/530/133 195/531/133
f 192/529/133 195/531/133 196/532/133
f 191/533/134 189/534/134 193/535/134
f 191/533/134 193/535/134 195/536/134
f 196/537/135 194/538/135 190/539/135
f 196/537/135 190/539/135 192/540/135
f 200/541/136 198/542/136 197/543/136
f 200/541/136 197/543/136 199/544/136
f 203/545/137 201/546/137 202/547/137
f 203/545/137 202/547/137 204/548/137
f 199/549/138 197/550/138 201/551/138
f 199/549/138 201/551/138 203/552/138
f 204/553/139 202/554/139 198/555/139
f 204/553/139 198/555/139 200/556/139
f 197/557/140 198/558/140 202/559/140
f 197/557/140 202/559/140 201/560/140
f 208/561/141 206/562/141 205/563/141
f 208/561/141 205/563/141 207/564/141
f 211/565/142 209/566/142 210/567/142
f 211/565/142 210/567/142 212/568/142
f 205/569/143 206/570/143 210/571/143
f 205/569/143 210/571/143 209/572/143
f 208/573/144 207/574/144 211/575/144
f 208/573/144 211/575/144 212/576/144
f 207/577/145 205/578/145 209/579/145
f 207/577/145 209/579/145 211/580/145
f 212/581/146 210/582/146 206/583/146
f 212/581/146 206/583/146 208/584/146
f 216/585/147 214/586/147 213/587/147
f 216/585/147 213/587/147 215/588/147
f 219/589/148 217/590/148 218/591/148
f 219/589/148 218/591/148 220/592/148
f 213/593/149 214/594/149 218/595/149
f 213/593/149 218/595/149 217/596/149
f 216/597/150 215/598/150 219/599/150
f 216/597/150 219/599/150 220/600/150
f 215/601/151 213/602/151 217/603/151
f 215/601/151 217/603/151 219/604/151
f 220/605/152 218/606/152 214/607/152
f 220/605/152 214/607/152 216/608/152
f 224/609/153 222/610/153 221/611/153
f 224/609/153 221/611/153 223/612/153
f 227/613/154 225/614/154 226/615/154
f 227/613/154 226/615/154 228/616/154
f 223/617/155 221/618/155 225/619/155
f 223/617/155 225/619/155 227/620/155
f 228/621/156 226/622/156 222/623/156
f 228/621/156 222/623/156 224/624/156
f 221/625/157 222/626/157 226/627/157
f 221/625/157 226/627/157 225/628/157
f 232/629/158 230/630/158 229/631/158
f 232/629/158 229/631/158 231/632/158
f 235/633/159 233/634/159 234/635/159
f 235/633/159 234/635/159 236/636/159
f 229/637/160 230/638/160 234/639/160
f 229/637/160 234/639/160 233/640/160
f 232/641/161 231/642/161 235/643/161
f 232/641/161 235/643/161 236/644/161
f 236/645/162 234/646/162 230/647/162
f 236/645/162 230/647/162 232/648/162
f 239/649/163 229/650/163 237/651/163
f 239/649/163 237/651/163 238/652/163
f 241/653/164 240/654/164 233/655/164
f 241/653/164 233/655/164 242/656/164
f 237/657/165 229/658/165 233/659/165
f 237/657/165 233/659/165 240/660/165
f 239/661/166 238/662/166 241/663/166
f 239/661/166 241/663/166 242/664/166
f 238/665/167 237/666/167 240/667/167
f 238/665/167 240/667/167 241/668/167
f 242/669/168 233/670/168 229/671/168
f 242/669/168 229/671/168 239/672/168
f 246/673/169 244/674/169 243/675/169
f 246/673/169 243/675/169 245/676/169
f 249/677/170 247/678/170 248/679/170
f 249/677/170 248/679/170 250/680/170
f 243/681/171 244/682/171 248/683/171
f 243/681/171 248/683/171 247/684/171
f 246/685/172 245/686/172 249/687/172
f 246/685/172 249/687/172 250/688/172
f 245/689/173 243/690/173 247/691/173
f 245/689/173 247/691/173 249/692/173
f 254/693/174 252/694/174 251/695/174
f 254/693/174 251/695/174 253/696/174
f 257/697/175 255/698/175 256/699/175
f 257/697/175 256/699/175 258/700/175
f 251/701/176 252/702/176 256/703/176
f 251/701/176 256/703/176 255/704/176
f 254/705/177 253/706/177 257/707/177
f 254/705/177 257/707/177 258/708/177
f 253/709/178 251/710/178 255/711/178
f 253/709/178 255/711/178 257/712/178
f 262/713/179 260/714/179 259/715/179
f 262/713/179 259/715/179 261/716/179
f 265/717/180 263/718/180 264/719/180
f 265/717/180 264/719/180 266/720/180
f 259/721/181 260/722/181 264/723/181
f 259/721/181 264/723/181 263/724/181
f 261/725/182 259/726/182 263/727/182
f 261/725/182 263/727/182 265/728/182
f 266/729/183 264/730/183 260/731/183
f 266/729/183 260/731/183 262/732/183
usemtl common_copper_cable
f 272/733/184 271/734/184 225/735/184
f 272/733/184 225/735/184 273/736/184
f 267/737/185 268/738/185 225/739/185
f 267/737/185 225/739/185 271/740/185
f 269/741/186 267/742/186 271/743/186
f 269/741/186 271/743/186 272/744/186
f 273/745/187 225/746/187 268/747/187
f 273/745/187 268/747/187 270/748/187
f 274/749/188 275/750/188 268/751/188
f 274/749/188 268/751/188 267/752/188
f 277/753/189 276/754/189 269/755/189
f 277/753/189 269/755/189 270/756/189
f 276/757/190 274/758/190 267/759/190
f 276/757/190 267/759/190 269/760/190
f 270/761/191 268/762/191 275/763/191
f 270/761/191 275/763/191 277/764/191
usemtl heavy_inserter
f 281/765/192 279/766/192 278/767/192
f 281/765/192 278/767/192 280/768/192
f 284/769/193 282/770/193 283/771/193
f 284/769/193 283/771/193 285/772/193
f 278/773/194 279/774/194 283/775/194
f 278/773/194 283/775/194 282/776/194
f 281/777/195 280/778/195 284/779/195
f 281/777/195 284/779/195 285/780/195
f 280/781/196 278/782/196 282/783/196
f 280/781/196 282/783/196 284/784/196
f 285/785/197 283/786/197 279/787/197
f 285/785/197 279/787/197 281/788/197
usemtl common_copper_cable
f 292/789/198 290/790/198 291/791/198
f 292/789/198 291/791/198 293/792/198
f 286/793/199 287/794/199 291/795/199
f 286/793/199 291/795/199 290/796/199
f 288/797/200 286/798/200 290/799/200
f 288/797/200 290/799/200 292/800/200
f 293/801/201 291/802/201 287/803/201
f 293/801/201 287/803/201 289/804/201
usemtl heavy_inserter
f 297/805/202 295/806/202 294/807/202
f 297/805/202 294/807/202 296/808/202
f 300/809/203 298/810/203 299/811/203
f 300/809/203 299/811/203 301/812/203
f 294/813/204 295/814/204 299/815/204
f 294/813/204 299/815/204 298/816/204
f 297/817/205 296/818/205 300/819/205
f 297/817/205 300/819/205 301/820/205
f 296/821/206 294/822/206 298/823/206
f 296/821/206 298/823/206 300/824/206
f 305/825/207 303/826/207 302/827/207
f 305/825/207 302/827/207 304/828/207
f 308/829/208 306/830/208 307/831/208
f 308/829/208 307/831/208 309/832/208
f 302/833/209 303/834/209 307/835/209
f 302/833/209 307/835/209 306/836/209
f 305/837/210 304/838/210 308/839/210
f 305/837/210 308/839/210 309/840/210
f 304/841/211 302/842/211 306/843/211
f 304/841/211 306/843/211 308/844/211
o inserter
v -0.3125 0.4375 0.6875
v -0.3125 0.4375 0.3125
v -0.3125 0.25 0.6875
v -0.3125 0.25 0.3125
v -0.6875 0.4375 0.6875
v -0.6875 0.4375 0.3125
v -0.6875 0.25 0.6875
v -0.6875 0.25 0.3125
v -0.625 0.75 0.6875
v -0.625 0.75 0.3125
v -0.625 0.4375 0.6875
v -0.625 0.4375 0.3125
v -0.6875 0.75 0.6875
v -0.6875 0.75 0.3125
v -0.3125 0.75 0.6875
v -0.3125 0.75 0.3125
v -0.375 0.75 0.6875
v -0.375 0.75 0.3125
v -0.375 0.4375 0.6875
v -0.375 0.4375 0.3125
vt 0.6875 0.65625
vt 0.6875 0.75
vt 0.5 0.75
vt 0.5 0.65625
vt 0.6875 0.65625
vt 0.6875 0.75
vt 0.5 0.75
vt 0.5 0.65625
vt 0.90625 0.625
vt 0.90625 0.8125
vt 0.71875 0.8125
vt 0.71875 0.625
vt 0.6875 0.65625
vt 0.6875 0.75
vt 0.5 0.75
vt 0.5 0.65625
vt 0.6875 0.65625
vt 0.6875 0.75
vt 0.5 0.75
vt 0.5 0.65625
vt 0.4375 0.34375
vt 0.4375 0.5
vt 0.25 0.5
vt 0.25 0.34375
vt 0.4375 0.34375
vt 0.4375 0.5
vt 0.25 0.5
vt 0.25 0.34375
vt 0.25 0.46875
vt 0.4375 0.46875
vt 0.4375 0.5
vt 0.25 0.5
vt 0.28125 0.34375
vt 0.28125 0.5
vt 0.25 0.5
vt 0.25 0.34375
vt 0.28125 0.34375
vt 0.28125 0.5
vt 0.25 0.5
vt 0.25 0.34375
vt 0.4375 0.34375
vt 0.4375 0.5
vt 0.25 0.5
vt 0.25 0.34375
vt 0.4375 0.34375
vt 0.4375 0.5
vt 0.25 0.5
vt 0.25 0.34375
vt 0.25 0.46875
vt 0.4375 0.46875
vt 0.4375 0.5
vt 0.25 0.5
vt 0.28125 0.34375
vt 0.28125 0.5
vt 0.25 0.5
vt 0.25 0.34375
vt 0.28125 0.34375
vt 0.28125 0.5
vt 0.25 0.5
vt 0.25 0.34375
vn 1 0 0
vn -1 0 0
vn 0 1 0
vn 0 0 1
vn 0 0 -1
vn 1 0 0
vn -1 0 0
vn 0 1 0
vn 0 0 1
vn 0 0 -1
vn 1 0 0
vn -1 0 0
vn 0 1 0
vn 0 0 1
vn 0 0 -1
usemtl heavy_inserter
f 313/845/212 311/846/212 310/847/212
f 313/845/212 310/847/212 312/848/212
f 316/849/213 314/850/213 315/851/213
f 316/849/213 315/851/213 317/852/213
f 310/853/214 311/854/214 315/855/214
f 310/853/214 315/855/214 314/856/214
f 312/857/215 310/858/215 314/859/215
f 312/857/215 314/859/215 316/860/215
f 317/861/216 315/862/216 311/863/216
f 317/861/216 311/863/216 313/864/216
f 321/865/217 319/866/217 318/867/217
f 321/865/217 318/867/217 320/868/217
f 314/869/218 322/870/218 323/871/218
f 314/869/218 323/871/218 315/872/218
f 318/873/219 319/874/219 323/875/219
f 318/873/219 323/875/219 322/876/219
f 320/877/220 318/878/220 322/879/220
f 320/877/220 322/879/220 314/880/220
f 315/881/221 323/882/221 319/883/221
f 315/881/221 319/883/221 321/884/221
f 311/885/222 325/886/222 324/887/222
f 311/885/222 324/887/222 310/888/222
f 328/889/223 326/890/223 327/891/223
f 328/889/223 327/891/223 329/892/223
f 324/893/224 325/894/224 327/895/224
f 324/893/224 327/895/224 326/896/224
f 310/897/225 324/898/225 326/899/225
f 310/897/225 326/899/225 328/900/225
f 329/901/226 327/902/226 325/903/226
f 329/901/226 325/903/226 311/904/226