# Made by Pabilo8 with Blockbench
# Exported with IIToolkit Plugin
mtllib fuel_station.mtl


o main
v 1.9999999999999998 -0.7500000000000001 1
v 0 0.9375000000000001 2.38125
v 0.0625 0.9375000000000001 2.38125
v 0 0.7500000000000001 2.38125
v 0.0625 0.7500000000000001 2.38125
v 0 0.9375 2.63125
v 0.0625 0.9375 2.63125
v 0 0.75 2.63125
v 0.0625 0.75 2.63125
v -1.1102230246251565e-16 0.7499999999999997 2.2562500000000005
v 0.06249999999999989 0.7499999999999997 2.2562500000000005
v -1.1102230246251565e-16 0.2499999999999997 2.2562499999999996
v 0.06249999999999989 0.2499999999999997 2.2562499999999996
v 0 0.75 2.7562500000000005
v 0.0625 0.75 2.75625
v 0 0.25 2.7562499999999996
v 0.0625 0.25 2.7562499999999996
v 0.0625 1.875 2.9375
v 0.0625 1.8749999999999996 1.1875
v 0.0625 -0.375 2.9375
v 0.0625 -0.37500000000000006 1.1875
v 1.8125 1.875 2.9375
v 1.8125 1.8749999999999996 1.1875
v 1.8125 -0.375 2.9375
v 1.8125 -0.37500000000000006 1.1875
v 0.375 0.9375 3
v 0.375 0.9375 2.9375
v 0.375 0.75 3
v 0.375 0.75 2.9375
v 0.625 0.9375 3
v 0.625 0.9375 2.9375
v 0.625 0.75 3
v 0.625 0.75 2.9375
v 0.25 0.75 3
v 0.25 0.75 2.9375
v 0.25 0.24999999999999997 3
v 0.25 0.24999999999999997 2.9375
v 0.75 0.75 3
v 0.75 0.75 2.9375
v 0.75 0.24999999999999997 3
v 0.75 0.24999999999999997 2.9375
v 0.125 -0.375 2.875
v 0.12499999999999989 -0.375 2.75
v 0.125 -0.7500000000000002 2.875
v 0.12499999999999989 -0.7500000000000002 2.75
v 0.25 -0.375 2.875
v 0.2499999999999999 -0.375 2.75
v 0.25 -0.7500000000000002 2.875
v 0.2499999999999999 -0.7500000000000002 2.75
v 0.125 -0.3750000000000001 1.375
v 0.125 -0.37500000000000006 1.25
v 0.125 -0.7500000000000001 1.375
v 0.125 -0.7500000000000002 1.25
v 0.25 -0.3750000000000001 1.375
v 0.25 -0.37500000000000006 1.25
v 0.25 -0.7500000000000001 1.375
v 0.25 -0.7500000000000002 1.25
v 1.625 -0.3750000000000001 1.375
v 1.625 -0.37500000000000006 1.25
v 1.625 -0.7500000000000001 1.375
v 1.625 -0.7500000000000002 1.25
v 1.75 -0.3750000000000001 1.375
v 1.75 -0.37500000000000006 1.25
v 1.75 -0.7500000000000001 1.375
v 1.75 -0.7500000000000002 1.25
v 1.625 -0.375 2.875
v 1.625 -0.375 2.75
v 1.625 -0.7500000000000002 2.875
v 1.625 -0.7500000000000002 2.75
v 1.75 -0.375 2.875
v 1.75 -0.375 2.75
v 1.75 -0.7500000000000002 2.875
v 1.75 -0.7500000000000002 2.75
v 1.6249999999999998 -0.3750000000000003 2.1875
v 1.6249999999999998 -0.3750000000000002 1.9375
v 1.6874999999999998 -0.5625000000000003 2.1875
v 1.6874999999999998 -0.5625000000000002 1.9375
v 1.8124999999999998 -0.3750000000000003 2.1875
v 1.8124999999999998 -0.3750000000000002 1.9375
v 1.8124999999999998 -0.5625000000000003 2.1875
v 1.8124999999999998 -0.5625000000000002 1.9375
v 1.125 -4.0245584642661925e-16 0.8749999999999999
v 1.125 -2.220446049250313e-16 0.12499999999999989
v 1.125 -0.06250000000000042 0.8749999999999999
v 1.125 -0.06250000000000022 0.12499999999999989
v 1.875 -4.0245584642661925e-16 0.8750000000000002
v 1.8750000000000002 -2.220446049250313e-16 0.12500000000000022
v 1.875 -0.06250000000000042 0.8750000000000002
v 1.8750000000000002 -0.06250000000000022 0.12500000000000022
v 1.125 0.06249999999999961 0.8125
v 1.125 0.062499999999999764 0.1874999999999999
v 1.125 -3.885780586188048e-16 0.8124999999999999
v 1.125 -2.3592239273284576e-16 0.1874999999999999
v 1.25 0.06249999999999961 0.8124999999999999
v 1.25 0.062499999999999764 0.1874999999999999
v 1.25 -3.885780586188048e-16 0.8124999999999999
v 1.25 -2.3592239273284576e-16 0.1874999999999999
v 0.9374999999999999 0.09374999999999971 0.40625
v 0.9375 0.09374999999999975 0.21875
v 0.9374999999999999 0.03124999999999971 0.40625
v 0.9375 0.03124999999999975 0.21875
v 1.125 0.21874999999999972 0.4062499999999999
v 1.125 0.21874999999999975 0.2187499999999999
v 1.125 0.03124999999999971 0.4062499999999999
v 1.125 0.03124999999999975 0.2187499999999999
v 1.125 0.2499999999999997 0.4374999999999999
v 1.125 0.24999999999999975 0.1874999999999999
v 1.125 0.0624999999999997 0.4374999999999999
v 1.1875 0.2499999999999997 0.4374999999999999
v 1.1875 0.24999999999999975 0.1874999999999999
v 1.1875 0.0624999999999997 0.4374999999999999
v 1.1875 0.062499999999999764 0.1874999999999999
v 0.34375 0.28124999999999967 0.4375000000000001
v 0.34375000000000006 0.2812499999999998 0.1875000000000001
v 0.34375 0.21874999999999972 0.4375000000000001
v 0.34375000000000006 0.21874999999999978 0.1875000000000001
v 0.5937499999999999 0.28124999999999967 0.4375
v 0.59375 0.2812499999999998 0.1875
v 0.5937499999999999 0.21874999999999972 0.4375
v 0.59375 0.21874999999999978 0.1875
v 0.37499999999999994 0.21874999999999972 0.4062500000000001
v 0.37500000000000006 0.21874999999999975 0.2187500000000001
v 0.37499999999999994 0.09374999999999971 0.4062500000000001
v 0.37500000000000006 0.09374999999999975 0.2187500000000001
v 0.5624999999999998 0.21874999999999972 0.4062500000000001
v 0.5625 0.21874999999999975 0.2187500000000001
v 0.5624999999999998 0.09374999999999971 0.4062500000000001
v 0.5625 0.09374999999999975 0.2187500000000001
v 0.37499999999999994 0.03124999999999971 0.4062500000000001
v 0.37500000000000006 0.03124999999999975 0.2187500000000001
v 0.5624999999999998 -0.09375000000000028 0.4062500000000001
v 0.5625 -0.09375000000000025 0.2187500000000001
v 0.9374999999999999 -0.09375000000000028 0.40625
v 0.9375 -0.09375000000000025 0.21875
v 1.125 -0.03125000000000028 0.4062499999999999
v 1.125 -0.03125000000000025 0.2187499999999999
v 0.9375 0.09374999999999961 0.78125
v 0.9374999999999999 0.09374999999999967 0.59375
v 0.9375 0.03124999999999961 0.78125
v 0.9374999999999999 0.031249999999999667 0.59375
v 1.125 0.2187499999999996 0.78125
v 1.125 0.21874999999999967 0.59375
v 1.125 0.03124999999999961 0.78125
v 1.125 0.031249999999999667 0.59375
v 1.125 0.2499999999999996 0.8125
v 1.125 0.24999999999999967 0.5625
v 1.125 0.062499999999999674 0.5625
v 1.1875 0.2499999999999996 0.8125
v 1.1875 0.24999999999999967 0.5625
v 1.1875 0.06249999999999961 0.8124999999999999
v 1.1875 0.062499999999999674 0.5625
v 0.37499999999999994 0.2187499999999996 0.7812500000000001
v 0.375 0.21874999999999967 0.5937500000000001
v 0.37499999999999994 0.09374999999999961 0.7812500000000001
v 0.375 0.09374999999999967 0.5937500000000001
v 0.5625 0.2187499999999996 0.78125
v 0.5624999999999999 0.21874999999999967 0.59375
v 0.5625 0.09374999999999961 0.78125
v 0.5624999999999999 0.09374999999999967 0.59375
v 0.37499999999999994 0.03124999999999961 0.7812500000000001
v 0.375 0.031249999999999667 0.5937500000000001
v 0.5625 -0.09375000000000039 0.78125
v 0.5624999999999999 -0.09375000000000033 0.59375
v 0.9375 -0.09375000000000039 0.78125
v 0.9374999999999999 -0.09375000000000033 0.59375
v 1.125 -0.03125000000000039 0.7812499999999999
v 1.125 -0.03125000000000033 0.5937499999999999
v 0.6875 0.30197792264591783 0.8695369001958905
v 0.6875 0.27598896132295947 0.7472684500979453
v 0.6875 -0.06482742764791813 0.9475037841647667
v 0.6875 -0.09081638897087702 0.825235334066821
v 0.8125 0.30197792264591783 0.8695369001958904
v 0.8124999999999999 0.27598896132295947 0.7472684500979452
v 0.8125 -0.06482742764791813 0.9475037841647667
v 0.8125 -0.09081638897087702 0.825235334066821
v 0.125 0.3749999999999996 0.8749999999999998
v 0.125 0.3749999999999998 0.12499999999999978
v 0.125 0.25 0.8749999999999998
v 0.125 0.25000000000000067 0.12499999999999967
v 0.875 0.3749999999999996 0.8749999999999996
v 0.875 0.3749999999999998 0.1250000000000001
v 0.875 0.25 0.875
v 0.875 0.25000000000000067 0.125
v 0.1875 0.2500000000000011 0.24999999999999967
v 0.1875 0.2759889613229596 0.1277315499020545
v 0.1875 -0.11680535029383532 0.1720331160311237
v 0.1875 -0.09081638897087638 0.04976466593317863
v 0.3125 0.2500000000000011 0.24999999999999967
v 0.3125 0.2759889613229596 0.1277315499020545
v 0.3125 -0.11680535029383532 0.1720331160311237
v 0.3125 -0.09081638897087638 0.04976466593317863
v 0.1875 0.3019779226459183 0.8695369001958906
v 0.1874999999999999 0.2759889613229599 0.747268450097945
v 0.1875 -0.06482742764791902 0.9475037841647663
v 0.1875 -0.09081638897087657 0.8252353340668211
v 0.3125 0.3019779226459183 0.8695369001958906
v 0.3124999999999999 0.2759889613229599 0.7472684500979454
v 0.3125 -0.06482742764791902 0.9475037841647663
v 0.3125 -0.09081638897087657 0.825235334066821
v 0.6874999999999998 0.25000000000000155 0.25
v 0.6875 0.27598896132296 0.12773154990205482
v 0.6875 -0.11680535029383576 0.17203311603112403
v 0.6875 -0.09081638897087593 0.04976466593317852
v 0.8124999999999998 0.25000000000000155 0.25
v 0.8125 0.27598896132296 0.12773154990205482
v 0.8125 -0.11680535029383576 0.17203311603112403
v 0.8125 -0.09081638897087593 0.04976466593317852
v 0.2499999999999999 0.8749999999999997 0.7499999999999998
v 0.25 0.8749999999999998 0.2499999999999999
v 0.2499999999999999 0.3749999999999996 0.7499999999999998
v 0.25 0.3749999999999997 0.2500000000000002
v 0.7499999999999999 0.8749999999999997 0.7499999999999998
v 0.75 0.8749999999999998 0.24999999999999978
v 0.7499999999999999 0.3749999999999996 0.75
v 0.75 0.3749999999999997 0.2500000000000001
v 0.2499999999999999 0.9999999999999997 0.7499999999999999
v 0.25 0.9999999999999998 0.2499999999999999
v 0.2499999999999999 0.9374999999999997 0.7499999999999999
v 0.25 0.9374999999999998 0.2499999999999999
v 0.7499999999999999 0.9999999999999997 0.7499999999999998
v 0.75 0.9999999999999998 0.24999999999999978
v 0.7499999999999999 0.9374999999999997 0.7499999999999998
v 0.75 0.9374999999999998 0.24999999999999978
v 0.43747500000010703 0.9375000012499989 0.6874999999999999
v 0.4374750000001071 0.9375000012499989 0.5624999999999999
v 0.43747500000010703 0.8750000012499989 0.6874999999999998
v 0.4374750000001071 0.8750000012499989 0.5624999999999998
v 0.5624750000001071 0.9375000012499989 0.6874999999999998
v 0.562475000000107 0.9375000012499989 0.5624999999999998
v 0.5624750000001071 0.8750000012499989 0.6874999999999998
v 0.562475000000107 0.8750000012499989 0.5624999999999998
v 0.4374750000001071 0.9375000012499989 0.4374999999999999
v 0.43747500000010714 0.937500001249999 0.3124999999999999
v 0.4374750000001071 0.8750000012499989 0.4374999999999999
v 0.43747500000010714 0.875000001249999 0.3124999999999999
v 0.562475000000107 0.9375000012499989 0.4374999999999999
v 0.5624750000001069 0.937500001249999 0.3124999999999999
v 0.562475000000107 0.8750000012499989 0.4374999999999999
v 0.5624750000001069 0.875000001249999 0.3124999999999999
v 1.25 0.2500000000000001 0.75
v 1.25 0.2500000000000002 0.2499999999999999
v 1.25 0.18750000000000006 0.75
v 1.25 0.1875000000000002 0.2499999999999999
v 1.75 0.2500000000000001 0.75
v 1.75 0.2500000000000002 0.25
v 1.75 0.18750000000000006 0.75
v 1.75 0.1875000000000002 0.25
v 1.4375 -0.7499999999999999 1.6875
v 1.4375 -0.7499999999999999 1.5625
v 1.4375 -0.5625 1.75
v 1.4375 -0.5624999999999999 1.5625
v 1.625 -0.7499999999999999 1.6875
v 1.625 -0.7499999999999999 1.5625
v 1.625 -0.5625 1.75
v 1.625 -0.5624999999999999 1.5625
v 1.4375 -0.3124999999999999 1.5625
v 1.4375 -0.31249999999999983 1.75
v 1.625 -0.3124999999999999 1.5625
v 1.625 -0.31249999999999983 1.75
v 1.4375 -0.5624999999999998 1.1875
v 1.4375 -0.7499999999999999 1.1875
v 1.625 -0.5624999999999998 1.1875
v 1.625 -0.7499999999999999 1.1875
v 1.4375 -0.7499999999999999 1.0625
v 1.4375 -0.5624999999999999 0.9999999999999999
v 1.625 -0.7499999999999999 1.0624999999999998
v 1.625 -0.5624999999999999 0.9999999999999999
v 1.4375 1.3877787807814457e-17 1
v 1.4375 6.938893903907228e-17 1.1875
v 1.625 1.3877787807814457e-17 1
v 1.625 6.938893903907228e-17 1.1875
v 1.4375 0.1875000000000002 1.125
v 1.4375 0.1875 1
v 1.625 0.1875000000000002 1.125
v 1.625 0.1875 1
v 1.4375 0.18750000000000006 0.75
v 1.4375 -4.163336342344337e-17 0.75
v 1.625 0.18750000000000006 0.75
v 1.625 -4.163336342344337e-17 0.75
v 1.1875 -0.7499999999999999 1.6875
v 1.1875 -0.7499999999999999 1.5625
v 1.1875 -0.5625 1.75
v 1.1875 -0.5624999999999999 1.5625
v 1.375 -0.7499999999999999 1.6875
v 1.375 -0.7499999999999999 1.5625
v 1.375 -0.5625 1.75
v 1.375 -0.5624999999999999 1.5625
v 1.1875 -0.3124999999999999 1.5625
v 1.1875 -0.31249999999999983 1.75
v 1.375 -0.3124999999999999 1.5625
v 1.375 -0.31249999999999983 1.75
v 1.1875 -0.5624999999999998 1.1875
v 1.1875 -0.7499999999999999 1.1875
v 1.375 -0.5624999999999998 1.1875
v 1.375 -0.7499999999999999 1.1875
v 1.1875 -0.7499999999999999 1.0625
v 1.1875 -0.5624999999999999 0.9999999999999999
v 1.375 -0.7499999999999999 1.0624999999999998
v 1.375 -0.5624999999999999 0.9999999999999999
v 1.1875 1.3877787807814457e-17 1
v 1.1875 6.938893903907228e-17 1.1875
v 1.375 1.3877787807814457e-17 1
v 1.375 6.938893903907228e-17 1.1875
v 1.1875 0.1875000000000002 1.125
v 1.1875 0.1875 1
v 1.375 0.1875000000000002 1.125
v 1.375 0.1875 1
v 1.375 0.18750000000000006 0.75
v 1.375 -4.163336342344337e-17 0.75
v 1.8125 1.2499999999999998 2.5625
v 1.8124999999999996 1.25 1.5625
v 1.8125 0.6249999999999997 2.5625
v 1.8124999999999996 0.6250000000000001 1.5625
v 1.8750000000000002 1.2499999999999998 2.5625
v 1.875 1.25 1.5625
v 1.8750000000000002 0.6249999999999997 2.5625
v 1.875 0.6250000000000001 1.5625
v 1.8124999999999996 -0.25000000000000006 2.25
v 1.8125 -0.2500000000000001 1.875
v 1.8124999999999996 -0.6250000000000003 2.25
v 1.8125 -0.6250000000000001 1.875
v 1.8749999999999996 -0.25000000000000006 2.25
v 1.875 -0.2500000000000001 1.875
v 1.8749999999999996 -0.6250000000000003 2.25
v 1.875 -0.6250000000000001 1.875
v 0 -0.75 3
v 0 -0.7500000000000001 1
v 0 -0.9999999999999998 3
v 0 -1.0000000000000004 0.9999999999999999
v 1.9999999999999998 -0.75 3
v 1.9999999999999998 -0.9999999999999998 3
v 2 -1.0000000000000004 0.9999999999999999
v 0 -0.7500000000000001 2
v 2 -0.7500000000000001 2
v 1 -0.7500000000000001 2
v 1 -0.75 3
v 1 -0.7500000000000001 1
v 1 -1 2
v 1 -1 3
v 2 -1 2
v 0 -1 2
v 1 -1.0000000000000002 0.9999999999999999
v 1.125 0.062499999999999764 0.1874999999999999
v 0.37499999999999994 0.09374999999999971 0.4062500000000001
v 0.37500000000000006 0.09374999999999975 0.2187500000000001
v 0.5624999999999998 0.09374999999999971 0.4062500000000001
v 0.5625 0.09374999999999975 0.2187500000000001
v 0.5624999999999998 0.09374999999999971 0.4062500000000001
v 0.5625 0.09374999999999975 0.2187500000000001
v 0.5624999999999998 -0.09375000000000028 0.4062500000000001
v 0.5625 -0.09375000000000025 0.2187500000000001
v 0.9374999999999999 0.09374999999999971 0.40625
v 0.9375 0.09374999999999975 0.21875
v 0.9374999999999999 0.03124999999999971 0.40625
v 0.9375 0.03124999999999975 0.21875
v 0.9374999999999999 -0.09375000000000028 0.40625
v 0.9375 -0.09375000000000025 0.21875
v 1.125 0.03124999999999971 0.4062499999999999
v 1.125 0.03124999999999975 0.2187499999999999
v 1.125 0.06249999999999961 0.8125
v 0.37499999999999994 0.09374999999999961 0.7812500000000001
v 0.375 0.09374999999999967 0.5937500000000001
v 0.5625 0.09374999999999961 0.78125
v 0.5624999999999999 0.09374999999999967 0.59375
v 0.5625 0.09374999999999961 0.78125
v 0.5624999999999999 0.09374999999999967 0.59375
v 0.5625 -0.09375000000000039 0.78125
v 0.5624999999999999 -0.09375000000000033 0.59375
v 0.9375 0.09374999999999961 0.78125
v 0.9374999999999999 0.09374999999999967 0.59375
v 0.9375 0.03124999999999961 0.78125
v 0.9374999999999999 0.031249999999999667 0.59375
v 0.9375 -0.09375000000000039 0.78125
v 0.9374999999999999 -0.09375000000000033 0.59375
v 1.125 0.03124999999999961 0.78125
v 1.125 0.031249999999999667 0.59375
v 1.4375 -0.5624999999999999 1.5625
v 1.4375 -0.5625 1.75
v 1.625 -0.5624999999999999 1.5625
v 1.625 -0.5625 1.75
v 1.4375 -0.5624999999999999 1.5625
v 1.4375 -0.7499999999999999 1.5625
v 1.625 -0.5624999999999999 1.5625
v 1.625 -0.7499999999999999 1.5625
v 1.4375 -0.7499999999999999 1.1875
v 1.4375 -0.5624999999999998 1.1875
v 1.625 -0.7499999999999999 1.1875
v 1.625 -0.5624999999999998 1.1875
v 1.4375 -0.5624999999999999 0.9999999999999999
v 1.4375 -0.5624999999999998 1.1875
v 1.625 -0.5624999999999999 0.9999999999999999
v 1.625 -0.5624999999999998 1.1875
v 1.4375 6.938893903907228e-17 1.1875
v 1.4375 1.3877787807814457e-17 1
v 1.625 6.938893903907228e-17 1.1875
v 1.625 1.3877787807814457e-17 1
v 1.4375 0.1875 1
v 1.4375 1.3877787807814457e-17 1
v 1.625 0.1875 1
v 1.625 1.3877787807814457e-17 1
v 1.1875 -0.5624999999999999 1.5625
v 1.1875 -0.5625 1.75
v 1.375 -0.5624999999999999 1.5625
v 1.375 -0.5625 1.75
v 1.1875 -0.5624999999999999 1.5625
v 1.1875 -0.7499999999999999 1.5625
v 1.375 -0.5624999999999999 1.5625
v 1.375 -0.7499999999999999 1.5625
v 1.1875 -0.7499999999999999 1.1875
v 1.1875 -0.5624999999999998 1.1875
v 1.375 -0.7499999999999999 1.1875
v 1.375 -0.5624999999999998 1.1875
v 1.1875 -0.5624999999999999 0.9999999999999999
v 1.1875 -0.5624999999999998 1.1875
v 1.375 -0.5624999999999999 0.9999999999999999
v 1.375 -0.5624999999999998 1.1875
v 1.1875 6.938893903907228e-17 1.1875
v 1.1875 1.3877787807814457e-17 1
v 1.375 6.938893903907228e-17 1.1875
v 1.375 1.3877787807814457e-17 1
v 1.1875 0.1875 1
v 1.1875 0.18750000000000006 0.75
v 1.1875 1.3877787807814457e-17 1
v 1.1875 -4.163336342344337e-17 0.75
v 1.375 0.1875 1
v 1.375 1.3877787807814457e-17 1
v 0 -0.75 3
v 0 -0.7500000000000001 1
v 1.9999999999999998 -0.75 3
v 1.9999999999999998 -0.7500000000000001 1
v 1.9999999999999998 -1 3
v 0 -1 3
v 0 -1.0000000000000002 0.9999999999999999
v 2 -1.0000000000000002 0.9999999999999999
v 1.1875 0.18750000000000028 0.75
v 1.1875 0.18750000000000042 0.2499999999999999
v 1.1875 2.914335439641036e-16 0.75
v 1.1875 3.0531133177191805e-16 0.2500000000000001
v 1.8125 0.18750000000000028 0.75
v 1.8125 0.18750000000000042 0.25
v 1.8125 2.914335439641036e-16 0.75
v 1.8125 3.0531133177191805e-16 0.25
v 2.0624999999999996 -0.5000000000000018 2.1249999999999982
v 2.0624999999999996 -0.37500000000000194 2.124999999999999
v 1.8749999999999996 -0.5000000000000018 2.1249999999999982
v 1.8749999999999996 -0.37500000000000194 2.124999999999999
v 2.0625 -0.500000000000001 1.9999999999999982
v 2.0625 -0.375000000000001 1.9999999999999991
v 1.875 -0.500000000000001 1.9999999999999982
v 1.875 -0.375000000000001 1.9999999999999991
v 1.9999999999999996 -0.3698504874817275 2.2258203706095463
v 1.9999999999999991 -0.25436554591781696 2.2736557996551836
v 1.9374999999999996 -0.36985048748172794 2.2258203706095463
v 1.9374999999999991 -0.25436554591781707 2.2736557996551827
v 1.9999999999999996 -0.2741796293904536 1.9948504874817252
v 1.9999999999999991 -0.15869468782654306 2.042685916527362
v 1.9374999999999996 -0.2741796293904536 1.994850487481725
v 1.9374999999999991 -0.15869468782654306 2.042685916527362
v 2 -0.6486557996551857 2.245634454082183
v 1.9999999999999996 -0.41768591652736453 2.3413053121734566
v 1.9375 -0.6486557996551859 2.245634454082183
v 1.9374999999999996 -0.417685916527365 2.3413053121734566
v 2.0000000000000004 -0.7163053121734593 2.0823140834726352
v 1.9375000000000004 -0.7163053121734595 2.0823140834726352
v 2 -0.6008203706095485 2.130149512518272
v 1.9375 -0.6008203706095487 2.130149512518272
v 2.0000000000000004 -0.6206344540821853 1.8513442003448142
v 2 -0.5051495125182747 1.8991796293904515
v 1.9375000000000004 -0.6206344540821855 1.8513442003448142
v 1.9375 -0.5051495125182749 1.8991796293904515
v 2 -0.4573140834726377 1.7836946878265407
v 1.9999999999999996 -0.22634420034481684 1.8793655459178145
v 1.9375 -0.4573140834726379 1.7836946878265407
v 1.9374999999999996 -0.22634420034481684 1.8793655459178145
v 1.9999999999999996 -0.42759295826368293 2.2019026560867276
v 1.9999999999999996 -0.4036752437408644 2.1441601853047727
v 1.9374999999999996 -0.42759295826368315 2.2019026560867276
v 1.9374999999999996 -0.4036752437408646 2.1441601853047723
v 2 -0.5430778998275934 2.1540672270410908
v 2 -0.5191601853047747 2.0963247562591354
v 1.9375 -0.5430778998275936 2.1540672270410908
v 1.9375 -0.5191601853047751 2.0963247562591354
v 1.9999999999999996 -0.3459327729589092 2.168077899827591
v 1.9374999999999996 -0.3459327729589094 2.1680778998275905
v 1.9999999999999996 -0.3558398146952274 2.028675243740862
v 1.9999999999999996 -0.29809734391327214 2.0525929582636806
v 1.9374999999999996 -0.35583981469522763 2.028675243740862
v 1.9374999999999996 -0.29809734391327214 2.0525929582636806
v 2 -0.5769026560867302 2.0724070417363167
v 1.9375 -0.5769026560867304 2.0724070417363167
v 2 -0.5290672270410932 1.9569221001724064
v 2 -0.47132475625913783 1.980839814695225
v 1.9375 -0.5290672270410934 1.9569221001724064
v 1.9375 -0.4713247562591383 1.9808398146952249
v 1.9999999999999996 -0.33192210017240875 1.9709327729589066
v 1.9374999999999996 -0.3319221001724092 1.9709327729589066
v 2 -0.4474070417363194 1.9230973439132697
v 1.9375 -0.44740704173631973 1.9230973439132697
v 0.3437500000000001 0.21874999999999967 0.5625000000000001
v 0.3437500000000001 0.28124999999999967 0.5625000000000002
v 0.34375000000000006 0.2812499999999996 0.8125000000000001
v 0.34375000000000006 0.2187499999999996 0.8125000000000001
v 0.59375 0.2187499999999996 0.8125000000000001
v 0.5937500000000001 0.21874999999999967 0.5625
v 0.59375 0.2812499999999996 0.8125000000000001
v 0.5937500000000001 0.28124999999999967 0.5625000000000001
vt 0.046875 0.734375
vt 0.0625 0.734375
vt 0.0625 0.6875
vt 0.046875 0.6875
vt 0 0.734375
vt 0.015625 0.734375
vt 0.015625 0.6875
vt 0 0.6875
vt 0 0.734375
vt 0.0625 0.734375
vt 0.0625 0.71875
vt 0 0.71875
vt 0 0.734375
vt 0.0625 0.734375
vt 0.0625 0.6875
vt 0 0.6875
vt 0.609375 0.609375
vt 0.625 0.609375
vt 0.625 0.484375
vt 0.609375 0.484375
vt 0.5 0.609375
vt 0.515625 0.609375
vt 0.515625 0.484375
vt 0.5 0.484375
vt 0.5 0.609375
vt 0.625 0.609375
vt 0.625 0.59375
vt 0.5 0.59375
vt 0.5 0.5
vt 0.625 0.5
vt 0.625 0.484375
vt 0.5 0.484375
vt 0.5 0.609375
vt 0.625 0.609375
vt 0.625 0.484375
vt 0.5 0.484375
vt 1 0.5625
vt 0.5625 0.5625
vt 0.5625 0
vt 1 0
vt 1 0.5625
vt 0.5625 0.5625
vt 0.5625 0
vt 1 0
vt 0.125 0.5625
vt 0.5625 0.5625
vt 0.5625 1
vt 0.125 1
vt 0.5625 1
vt 1 1
vt 1 0.5625
vt 0.5625 0.5625
vt 1 0.5625
vt 0.5625 0.5625
vt 0.5625 0
vt 1 0
vt 1 0.5625
vt 0.5625 0.5625
vt 0.5625 0
vt 1 0
vt 0.046875 0.734375
vt 0.0625 0.734375
vt 0.0625 0.6875
vt 0.046875 0.6875
vt 0 0.734375
vt 0.015625 0.734375
vt 0.015625 0.6875
vt 0 0.6875
vt 0 0.734375
vt 0.0625 0.734375
vt 0.0625 0.71875
vt 0 0.71875
vt 0 0.734375
vt 0.0625 0.734375
vt 0.0625 0.6875
vt 0 0.6875
vt 0.609375 0.609375
vt 0.625 0.609375
vt 0.625 0.484375
vt 0.609375 0.484375
vt 0.5 0.609375
vt 0.515625 0.609375
vt 0.515625 0.484375
vt 0.5 0.484375
vt 0.5 0.609375
vt 0.625 0.609375
vt 0.625 0.59375
vt 0.5 0.59375
vt 0.5 0.5
vt 0.625 0.5
vt 0.625 0.484375
vt 0.5 0.484375
vt 0.5 0.609375
vt 0.625 0.609375
vt 0.625 0.484375
vt 0.5 0.484375
vt 0.03125 0.15625
vt 0 0.15625
vt 0 0.0625
vt 0.03125 0.0625
vt 0.03125 0.15625
vt 0 0.15625
vt 0 0.0625
vt 0.03125 0.0625
vt 0.0625 0.15625
vt 0.03125 0.15625
vt 0.03125 0.0625
vt 0.0625 0.0625
vt 0.0625 0.15625
vt 0.03125 0.15625
vt 0.03125 0.0625
vt 0.0625 0.0625
vt 0.03125 0.15625
vt 0 0.15625
vt 0 0.0625
vt 0.03125 0.0625
vt 0.03125 0.15625
vt 0 0.15625
vt 0 0.0625
vt 0.03125 0.0625
vt 0.0625 0.15625
vt 0.03125 0.15625
vt 0.03125 0.0625
vt 0.0625 0.0625
vt 0.0625 0.15625
vt 0.03125 0.15625
vt 0.03125 0.0625
vt 0.0625 0.0625
vt 0.03125 0.15625
vt 0 0.15625
vt 0 0.0625
vt 0.03125 0.0625
vt 0.03125 0.15625
vt 0 0.15625
vt 0 0.0625
vt 0.03125 0.0625
vt 0.0625 0.15625
vt 0.03125 0.15625
vt 0.03125 0.0625
vt 0.0625 0.0625
vt 0.0625 0.15625
vt 0.03125 0.15625
vt 0.03125 0.0625
vt 0.0625 0.0625
vt 0.03125 0.15625
vt 0 0.15625
vt 0 0.0625
vt 0.03125 0.0625
vt 0.03125 0.15625
vt 0 0.15625
vt 0 0.0625
vt 0.03125 0.0625
vt 0.0625 0.15625
vt 0.03125 0.15625
vt 0.03125 0.0625
vt 0.0625 0.0625
vt 0.0625 0.15625
vt 0.03125 0.15625
vt 0.03125 0.0625
vt 0.0625 0.0625
vt 0.796875 0.140625
vt 0.796875 0.1875
vt 0.859375 0.1875
vt 0.859375 0.140625
vt 0.796875 0.17187500000000033
vt 0.796875 0.20312500000000033
vt 0.859375 0.20312500000000033
vt 0.859375 0.17187500000000033
vt 0.8281250000000002 0.453125000000001
vt 0.8750000000000002 0.453125000000001
vt 0.8593750000000002 0.500000000000001
vt 0.8281250000000002 0.500000000000001
vt 0.9062500000000004 0.500000000000001
vt 0.9218750000000004 0.453125000000001
vt 0.8750000000000004 0.453125000000001
vt 0.8750000000000004 0.500000000000001
vt 0.125 0.390625
vt 0.3125 0.390625
vt 0.3125 0.375
vt 0.125 0.375
vt 0.125 0.390625
vt 0.3125 0.390625
vt 0.3125 0.375
vt 0.125 0.375
vt 0.125 0.5625
vt 0.3125 0.5625
vt 0.3125 0.375
vt 0.125 0.375
vt 0.125 0.390625
vt 0.3125 0.390625
vt 0.3125 0.375
vt 0.125 0.375
vt 0.125 0.390625
vt 0.3125 0.390625
vt 0.3125 0.375
vt 0.125 0.375
vt 0.296875 0.3750000000000001
vt 0.296875 0.53125
vt 0.3125 0.53125
vt 0.3125 0.3750000000000001
vt 0.296875 0.4062500000000001
vt 0.296875 0.5625
vt 0.3125 0.5625
vt 0.3125 0.4062500000000001
vt 0.28125 0.5625
vt 0.3125 0.5625
vt 0.3125 0.4062500000000001
vt 0.28125 0.4062500000000001
vt 0.28125 0.4531250000000001
vt 0.3125 0.4531250000000001
vt 0.3125 0.4375000000000001
vt 0.28125 0.4375000000000001
vt 0.28125 0.4531250000000001
vt 0.3125 0.4531250000000001
vt 0.3125 0.4375000000000001
vt 0.28125 0.4375000000000001
vt 0.3125 0.6875
vt 0.3125 0.75
vt 0.5 0.75
vt 0.5 0.6875
vt 0.5 0.33715000000000006
vt 0.3125 0.33715000000000006
vt 0.3125 0.5625
vt 0.5 0.5625
vt 0.8125 0.125
vt 0.8125 0.3125
vt 1 0.3125
vt 1 0.125
vt 0.8125 0.125
vt 0.8125 0.3125
vt 1 0.3125
vt 1 0.125
vt 0.34375 0.859375
vt 0.40625 0.859375
vt 0.40625 0.8125
vt 0.34375 0.8125
vt 0.34375 0.859375
vt 0.40625 0.859375
vt 0.40625 0.8125
vt 0.34375 0.8125
vt 0.390625 0.859375
vt 0.40625 0.859375
vt 0.40625 0.796875
vt 0.390625 0.796875
vt 0.34375 0.859375
vt 0.359375 0.859375
vt 0.359375 0.8125
vt 0.34375 0.8125
vt 0.390625 0.859375
vt 0.40625 0.859375
vt 0.40625 0.8125
vt 0.390625 0.8125
vt 0.03125 0.5
vt 0.09375 0.5
vt 0.09375 0.484375
vt 0.03125 0.484375
vt 0.03125 0.5
vt 0.09375 0.5
vt 0.09375 0.484375
vt 0.03125 0.484375
vt 0.03125 0.578125
vt 0.09375 0.578125
vt 0.09375 0.515625
vt 0.03125 0.515625
vt 0.03125 0.5
vt 0.09375 0.5
vt 0.09375 0.484375
vt 0.03125 0.484375
vt 0.03125 0.5
vt 0.09375 0.5
vt 0.09375 0.484375
vt 0.03125 0.484375
vt 0.3125 0.9375
vt 0.5 0.9375
vt 0.5 0.8125
vt 0.3125 0.8125
vt 0.3125 0.9375
vt 0.5 0.9375
vt 0.5 0.8125
vt 0.3125 0.8125
vt 0.3125 0.9375
vt 0.5 0.9375
vt 0.5 0.8125
vt 0.3125 0.8125
vt 0.3125 0.9375
vt 0.5 0.9375
vt 0.5 0.8125
vt 0.3125 0.8125
vt 0.3125 0.5
vt 0.3125 0.5625
vt 0.5 0.5625
vt 0.5 0.5
vt 0.3125 0.33714999999999995
vt 0.3125 0.5625
vt 0.5 0.5625
vt 0.5 0.33714999999999995
vt 1 0.12665044168258366
vt 0.8141504416825837 0.12337811547559296
vt 0.810878115475593 0.31084955831741634
vt 0.9983495583174163 0.31412188452440704
vt 0.810878115475593 0.31084955831741634
vt 0.9983495583174163 0.31412188452440704
vt 1 0.12665044168258366
vt 0.8141504416825837 0.12337811547559296
vt 0.8125 0.5
vt 1 0.5
vt 1 0.3125
vt 0.8125 0.3125
vt 0.3125 0.5
vt 0.3125 0.875
vt 0.5 0.875
vt 0.5 0.5
vt 0.3125 0.5
vt 0.3125 0.875
vt 0.5 0.875
vt 0.5 0.5
vt 0.3125 0.4375
vt 0.3125 0.8125
vt 0.5 0.8125
vt 0.5 0.4375
vt 0.3125 0.8125
vt 0.5 0.8125
vt 0.5 0.75
vt 0.3125 0.75
vt 0.5 0.5625
vt 0.5 0.3648625
vt 0.3125 0.3648625
vt 0.3125 0.5625
vt 0.8119617925772991 0.2499953031349782
vt 0.9994617925772991 0.24999530313497842
vt 0.9994617925772992 0.12499530313497842
vt 0.8130381254448606 0.12501409059506585
vt 0.9988949460185814 0.25162664405076984
vt 1 0.12664568215622096
vt 0.8136050539814186 0.12337335594923016
vt 0.811423503176758 0.24835431784377904
vt 0.3125 0.6875
vt 0.3125 0.75
vt 0.5 0.75
vt 0.5 0.6875
vt 0.5 0.33715000000000006
vt 0.3125 0.33715000000000006
vt 0.3125 0.5625
vt 0.5 0.5625
vt 0.8125 0.125
vt 0.8125 0.3125
vt 1 0.3125
vt 1 0.125
vt 0.8125 0.125
vt 0.8125 0.3125
vt 1 0.3125
vt 1 0.125
vt 0.34375 0.859375
vt 0.40625 0.859375
vt 0.40625 0.8125
vt 0.34375 0.8125
vt 0.34375 0.859375
vt 0.40625 0.859375
vt 0.40625 0.8125
vt 0.34375 0.8125
vt 0.390625 0.859375
vt 0.40625 0.859375
vt 0.40625 0.796875
vt 0.390625 0.796875
vt 0.34375 0.859375
vt 0.359375 0.859375
vt 0.359375 0.8125
vt 0.34375 0.8125
vt 0.390625 0.859375
vt 0.40625 0.859375
vt 0.40625 0.8125
vt 0.390625 0.8125
vt 0.3125 0.9375
vt 0.5 0.9375
vt 0.5 0.8125
vt 0.3125 0.8125
vt 0.3125 0.9375
vt 0.5 0.9375
vt 0.5 0.8125
vt 0.3125 0.8125
vt 0.3125 0.9375
vt 0.5 0.9375
vt 0.5 0.8125
vt 0.3125 0.8125
vt 0.3125 0.9375
vt 0.5 0.9375
vt 0.5 0.8125
vt 0.3125 0.8125
vt 0.3125 0.5
vt 0.3125 0.5625
vt 0.5 0.5625
vt 0.5 0.5
vt 0.3125 0.33714999999999995
vt 0.3125 0.5625
vt 0.5 0.5625
vt 0.5 0.33714999999999995
vt 1 0.12665044168258366
vt 0.8141504416825837 0.12337811547559296
vt 0.810878115475593 0.31084955831741634
vt 0.9983495583174163 0.31412188452440704
vt 0.810878115475593 0.31084955831741634
vt 0.9983495583174163 0.31412188452440704
vt 1 0.12665044168258366
vt 0.8141504416825837 0.12337811547559296
vt 0.8125 0.5
vt 1 0.5
vt 1 0.3125
vt 0.8125 0.3125
vt 0.3125 0.5
vt 0.3125 0.875
vt 0.5 0.875
vt 0.5 0.5
vt 0.3125 0.5
vt 0.3125 0.875
vt 0.5 0.875
vt 0.5 0.5
vt 0.3125 0.4375
vt 0.3125 0.8125
vt 0.5 0.8125
vt 0.5 0.4375
vt 0.3125 0.8125
vt 0.5 0.8125
vt 0.5 0.75
vt 0.3125 0.75
vt 0.5 0.5625
vt 0.5 0.3648625
vt 0.3125 0.3648625
vt 0.3125 0.5625
vt 0.8119617925772991 0.2499953031349782
vt 0.9994617925772991 0.24999530313497842
vt 0.9994617925772992 0.12499530313497842
vt 0.8130381254448606 0.12501409059506585
vt 0.9988949460185814 0.25162664405076984
vt 1 0.12664568215622096
vt 0.8136050539814186 0.12337335594923016
vt 0.811423503176758 0.24835431784377904
vt 0.03125 0.15625
vt 0 0.15625
vt 0 0.0625
vt 0.03125 0.0625
vt 0.03125 0.15625
vt 0 0.15625
vt 0 0.0625
vt 0.03125 0.0625
vt 0.0625 0.15625
vt 0.03125 0.15625
vt 0.03125 0.0625
vt 0.0625 0.0625
vt 0.0625 0.15625
vt 0.03125 0.15625
vt 0.03125 0.0625
vt 0.0625 0.0625
vt 0.5625 0.21875
vt 0.375 0.21875
vt 0.375 0.1875
vt 0.5625 0.1875
vt 0.5625 0.21875
vt 0.375 0.21875
vt 0.375 0.1875
vt 0.5625 0.1875
vt 0.375 0.21875
vt 0.5625 0.21875
vt 0.5625 0.40625
vt 0.375 0.40625
vt 0.375 0.40625
vt 0.5625 0.40625
vt 0.5625 0.21875
vt 0.375 0.21875
vt 0.5625 0.21875
vt 0.375 0.21875
vt 0.375 0.1875
vt 0.5625 0.1875
vt 0.5625 0.21875
vt 0.375 0.21875
vt 0.375 0.1875
vt 0.5625 0.1875
vt 0.03125 0.171875
vt 0 0.171875
vt 0 0.078125
vt 0.03125 0.078125
vt 0.03125 0.171875
vt 0 0.171875
vt 0 0.078125
vt 0.03125 0.078125
vt 0 0.0625
vt 0.03125 0.0625
vt 0.03125 0.15625
vt 0 0.15625
vt 0 0.078125
vt 0.03125 0.078125
vt 0.03125 0.171875
vt 0 0.171875
vt 0.03125 0.15625
vt 0 0.15625
vt 0 0.0625
vt 0.03125 0.0625
vt 0.03125 0.15625
vt 0 0.15625
vt 0 0.0625
vt 0.03125 0.0625
vt 0.0625 0.15625
vt 0.03125 0.15625
vt 0.03125 0.0625
vt 0.0625 0.0625
vt 0.0625 0.15625
vt 0.03125 0.15625
vt 0.03125 0.0625
vt 0.0625 0.0625
vt 0.03125 0.171875
vt 0 0.171875
vt 0 0.078125
vt 0.03125 0.078125
vt 0.03125 0.171875
vt 0 0.171875
vt 0 0.078125
vt 0.03125 0.078125
vt 0 0.0625
vt 0.03125 0.0625
vt 0.03125 0.15625
vt 0 0.15625
vt 0 0.078125
vt 0.03125 0.078125
vt 0.03125 0.171875
vt 0 0.171875
vt 0 0.828125
vt 0.125 0.828125
vt 0.125 0.703125
vt 0 0.703125
vt 0 0.828125
vt 0.125 0.828125
vt 0.125 0.703125
vt 0 0.703125
vt 0 0.703125
vt 0.125 0.703125
vt 0.125 0.578125
vt 0 0.578125
vt 0 0.828125
vt 0.125 0.828125
vt 0.125 0.703125
vt 0 0.703125
vt 0 0.828125
vt 0.125 0.828125
vt 0.125 0.703125
vt 0 0.703125
vt 0.125 0.484375
vt 0 0.484375
vt 0 0.5
vt 0.125 0.5
vt 0 0.609375
vt 0.125 0.609375
vt 0.125 0.59375
vt 0 0.59375
vt 0 0.609375
vt 0.125 0.609375
vt 0.125 0.484375
vt 0 0.484375
vt 0 0.484375
vt 0.125 0.484375
vt 0.125 0.609375
vt 0 0.609375
vt 0 0.5
vt 0.125 0.5
vt 0.125 0.484375
vt 0 0.484375
vt 0.125 0.59375
vt 0 0.59375
vt 0 0.609375
vt 0.125 0.609375
vt 0 1
vt 0.03125 1
vt 0.03125 0.984375
vt 0 0.984375
vt 0 1
vt 0.03125 1
vt 0.03125 0.984375
vt 0 0.984375
vt 0.03125 0.984375
vt 0 0.984375
vt 0 1
vt 0.03125 1
vt 0.03125 0.984375
vt 0 0.984375
vt 0 1
vt 0.03125 1
vt 0 1
vt 0.03125 1
vt 0.03125 0.984375
vt 0 0.984375
vt 0 1
vt 0.03125 1
vt 0.03125 0.984375
vt 0 0.984375
vt 0.03125 0.984375
vt 0 0.984375
vt 0 1
vt 0.03125 1
vt 0.03125 0.984375
vt 0 0.984375
vt 0 1
vt 0.03125 1
vt 0.6875 0.75
vt 0.6875 1
vt 0.71875 1
vt 0.71875 0.75
vt 0.5 1
vt 0.5 0.75
vt 0.46875 0.75
vt 0.46875 1
vt 0.46875 1
vt 0.71875 1
vt 0.71875 0.75
vt 0.46875 0.75
vt 0.71875 1
vt 0.46875 1
vt 0.46875 0.96875
vt 0.71875 0.96875
vt 0.46875 0.78125
vt 0.71875 0.78125
vt 0.71875 0.75
vt 0.46875 0.75
vt 0.828125 0.40625
vt 0.828125 0.453125
vt 0.875 0.453125
vt 0.875 0.40625
vt 0.875 0.40625
vt 0.875 0.453125
vt 0.828125 0.453125
vt 0.828125 0.40625
vt 0.78125 0.46875
vt 0.78125 0.5
vt 0.734375 0.5
vt 0.734375 0.46875
vt 0.78125 0.453125
vt 0.78125 0.5
vt 0.734375 0.5
vt 0.734375 0.453125
vt 0.734375 0.5
vt 0.734375 0.4375
vt 0.78125 0.4375
vt 0.78125 0.5
vt 0.734375 0.4375
vt 0.734375 0.5
vt 0.78125 0.5
vt 0.78125 0.4375
vt 0.78125 0.4375
vt 0.734375 0.4375
vt 0.734375 0.5
vt 0.78125 0.5
vt 0.734375 0.5
vt 0.78125 0.5
vt 0.78125 0.4375
vt 0.734375 0.4375
vt 0.734375 0.5
vt 0.734375 0.40625
vt 0.78125 0.40625
vt 0.78125 0.5
vt 0.734375 0.40625
vt 0.734375 0.5
vt 0.78125 0.5
vt 0.78125 0.40625
vt 0.78125 0.40625
vt 0.734375 0.40625
vt 0.734375 0.5
vt 0.78125 0.5
vt 0.734375 0.5
vt 0.78125 0.5
vt 0.78125 0.40625
vt 0.734375 0.40625
vt 0.921875 0.453125
vt 0.875 0.453125
vt 0.875 0.40625
vt 0.921875 0.40625
vt 0.875 0.453125
vt 0.921875 0.453125
vt 0.921875 0.40625
vt 0.875 0.40625
vt 0.734375 0.5
vt 0.78125 0.5
vt 0.78125 0.46875
vt 0.734375 0.46875
vt 0.734375 0.5
vt 0.78125 0.5
vt 0.78125 0.453125
vt 0.734375 0.453125
vt 0.78125 0.5
vt 0.78125 0.359375
vt 0.828125 0.359375
vt 0.828125 0.5
vt 0.78125 0.359375
vt 0.78125 0.5
vt 0.828125 0.5
vt 0.828125 0.359375
vt 0.828125 0.359375
vt 0.78125 0.359375
vt 0.78125 0.5
vt 0.828125 0.5
vt 0.78125 0.5
vt 0.828125 0.5
vt 0.828125 0.359375
vt 0.78125 0.359375
vt 0.875 0.453125
vt 0.828125 0.453125
vt 0.828125 0.40625
vt 0.875 0.40625
vt 0.828125 0.453125
vt 0.875 0.453125
vt 0.875 0.40625
vt 0.828125 0.40625
vt 0.734375 0.5
vt 0.78125 0.5
vt 0.78125 0.46875
vt 0.734375 0.46875
vt 0.734375 0.5
vt 0.78125 0.5
vt 0.78125 0.453125
vt 0.734375 0.453125
vt 0.734375 0.5
vt 0.734375 0.4375
vt 0.78125 0.4375
vt 0.78125 0.5
vt 0.734375 0.4375
vt 0.734375 0.5
vt 0.78125 0.5
vt 0.78125 0.4375
vt 0.78125 0.4375
vt 0.734375 0.4375
vt 0.734375 0.5
vt 0.78125 0.5
vt 0.734375 0.5
vt 0.78125 0.5
vt 0.78125 0.4375
vt 0.734375 0.4375
vt 0.828125 0.40625
vt 0.828125 0.453125
vt 0.875 0.453125
vt 0.875 0.40625
vt 0.875 0.40625
vt 0.875 0.453125
vt 0.828125 0.453125
vt 0.828125 0.40625
vt 0.78125 0.46875
vt 0.78125 0.5
vt 0.734375 0.5
vt 0.734375 0.46875
vt 0.78125 0.453125
vt 0.78125 0.5
vt 0.734375 0.5
vt 0.734375 0.453125
vt 0.734375 0.5
vt 0.734375 0.4375
vt 0.78125 0.4375
vt 0.78125 0.5
vt 0.734375 0.4375
vt 0.734375 0.5
vt 0.78125 0.5
vt 0.78125 0.4375
vt 0.78125 0.4375
vt 0.734375 0.4375
vt 0.734375 0.5
vt 0.78125 0.5
vt 0.734375 0.5
vt 0.78125 0.5
vt 0.78125 0.4375
vt 0.734375 0.4375
vt 0.734375 0.5
vt 0.734375 0.40625
vt 0.78125 0.40625
vt 0.78125 0.5
vt 0.734375 0.40625
vt 0.734375 0.5
vt 0.78125 0.5
vt 0.78125 0.40625
vt 0.78125 0.40625
vt 0.734375 0.40625
vt 0.734375 0.5
vt 0.78125 0.5
vt 0.734375 0.5
vt 0.78125 0.5
vt 0.78125 0.40625
vt 0.734375 0.40625
vt 0.921875 0.453125
vt 0.875 0.453125
vt 0.875 0.40625
vt 0.921875 0.40625
vt 0.875 0.453125
vt 0.921875 0.453125
vt 0.921875 0.40625
vt 0.875 0.40625
vt 0.734375 0.5
vt 0.78125 0.5
vt 0.78125 0.46875
vt 0.734375 0.46875
vt 0.734375 0.5
vt 0.78125 0.5
vt 0.78125 0.453125
vt 0.734375 0.453125
vt 0.78125 0.5
vt 0.78125 0.359375
vt 0.828125 0.359375
vt 0.828125 0.5
vt 0.78125 0.359375
vt 0.78125 0.5
vt 0.828125 0.5
vt 0.828125 0.359375
vt 0.828125 0.359375
vt 0.78125 0.359375
vt 0.78125 0.5
vt 0.828125 0.5
vt 0.78125 0.5
vt 0.828125 0.5
vt 0.828125 0.359375
vt 0.78125 0.359375
vt 0.875 0.453125
vt 0.828125 0.453125
vt 0.828125 0.40625
vt 0.875 0.40625
vt 0.828125 0.453125
vt 0.875 0.453125
vt 0.875 0.40625
vt 0.828125 0.40625
vt 0.734375 0.5
vt 0.78125 0.5
vt 0.78125 0.46875
vt 0.734375 0.46875
vt 0.734375 0.5
vt 0.78125 0.5
vt 0.78125 0.453125
vt 0.734375 0.453125
vt 0.734375 0.5
vt 0.734375 0.4375
vt 0.78125 0.4375
vt 0.78125 0.5
vt 0.734375 0.4375
vt 0.734375 0.5
vt 0.78125 0.5
vt 0.78125 0.4375
vt 0.78125 0.4375
vt 0.734375 0.4375
vt 0.734375 0.5
vt 0.78125 0.5
vt 0.734375 0.5
vt 0.78125 0.5
vt 0.78125 0.4375
vt 0.734375 0.4375
vt 0.5625 0.5625
vt 0.3125 0.5625
vt 0.3125 0.40625
vt 0.5625 0.40625
vt 0.5625 0.546875
vt 0.5625 0.5625
vt 0.3125 0.5625
vt 0.3125 0.546875
vt 0.3125 0.40625
vt 0.3125 0.421875
vt 0.5625 0.421875
vt 0.5625 0.40625
vt 0.328125 0.5625
vt 0.3125 0.5625
vt 0.3125 0.40625
vt 0.328125 0.40625
vt 0.5625 0.5625
vt 0.546875 0.5625
vt 0.546875 0.40625
vt 0.5625 0.40625
vt 0.03125 1
vt 0.125 1
vt 0.125 0.90625
vt 0.03125 0.90625
vt 0.125 1
vt 0.03125 1
vt 0.03125 0.90625
vt 0.125 0.90625
vt 0.125 0.984375
vt 0.125 1
vt 0.03125 1
vt 0.03125 0.984375
vt 0.03125 0.90625
vt 0.03125 0.921875
vt 0.125 0.921875
vt 0.125 0.90625
vt 0.046875 1
vt 0.03125 1
vt 0.03125 0.90625
vt 0.046875 0.90625
vt 0.125 1
vt 0.109375 1
vt 0.109375 0.90625
vt 0.125 0.90625
vt 0.5 0.0625
vt 0 0.0625
vt 0 0.125
vt 0.5 0.125
vt 0.5 0.125
vt 0 0.125
vt 0 0.0625
vt 0.5 0.0625
vt 0.5 0.125
vt 0 0.125
vt 0 0.0625
vt 0.5 0.0625
vt 0 0.0625
vt 0.5 0.0625
vt 0.5 0.125
vt 0 0.125
vt 0.25 0.25
vt 0.25 0.5
vt 0 0.5
vt 0 0.25
vt 0.25 0.75
vt 0.25 1
vt 0 1
vt 0 0.75
vt 0.5 1
vt 0.5 0.75
vt 0.75 0.75
vt 0.75 1
vt 0.5 0.5
vt 0.5 0.25
vt 0.75 0.25
vt 0.75 0.5
vt 0 0.5
vt 0.25 0.5
vt 0.25 0.25
vt 0 0.25
vt 0 1
vt 0.25 1
vt 0.25 0.75
vt 0 0.75
vt 0.75 0.75
vt 0.5 0.75
vt 0.5 1
vt 0.75 1
vt 0.75 0.25
vt 0.5 0.25
vt 0.5 0.5
vt 0.75 0.5
vt 0.109375 0.25
vt 0.109375 0.375
vt 0.15625 0.375
vt 0.15625 0.25
vt 0.109375 0.25
vt 0.109375 0.375
vt 0.15625 0.375
vt 0.15625 0.25
vt 0.15625 0.375
vt 0.3125 0.375
vt 0.3125 0.25
vt 0.15625 0.25
vt 0.3125 0.25
vt 0.3125 0.40625
vt 0.359375 0.40625
vt 0.359375 0.25
vt 0.3125 0.25
vt 0.3125 0.40625
vt 0.359375 0.40625
vt 0.359375 0.25
vt 0.078125 0.453125
vt 0.046875 0.453125
vt 0.046875 0.40625
vt 0.078125 0.40625
vt 0.046875 0.453125
vt 0.078125 0.453125
vt 0.078125 0.40625
vt 0.046875 0.40625
vt 0.046875 0.453125
vt 0.078125 0.453125
vt 0.078125 0.40625
vt 0.046875 0.40625
vt 0.078125 0.453125
vt 0.046875 0.453125
vt 0.046875 0.40625
vt 0.078125 0.40625
vt 0.046875 0.40625
vt 0.078125 0.40625
vt 0.078125 0.375
vt 0.046875 0.375
vt 0 0.484375
vt 0 0.546875
vt 0.03125 0.546875
vt 0.03125 0.484375
vt 0.03125 0.484375
vt 0.03125 0.546875
vt 0 0.546875
vt 0 0.484375
vt 0.015625 0.484375
vt 0.015625 0.546875
vt 0.03125 0.546875
vt 0.03125 0.484375
vt 0 0.484375
vt 0 0.546875
vt 0.015625 0.546875
vt 0.015625 0.484375
vt 0.03125 0.453125
vt 0.09375 0.453125
vt 0.09375 0.46875
vt 0.03125 0.46875
vt 0 0.484375
vt 0.03125 0.453125
vt 0.09375 0.453125
vt 0.125 0.484375
vt 0 0.546875
vt 0.03125 0.578125
vt 0.09375 0.578125
vt 0.125 0.546875
vt 0.09375 0.453125
vt 0.09375 0.484375
vt 0.109375 0.484375
vt 0.109375 0.453125
vt 0.09375 0.546875
vt 0.09375 0.578125
vt 0.109375 0.578125
vt 0.109375 0.546875
vt 0.09375 0.484375
vt 0.09375 0.546875
vt 0.125 0.546875
vt 0.125 0.484375
vt 0.125 0.484375
vt 0.125 0.546875
vt 0.09375 0.546875
vt 0.09375 0.484375
vt 0.109375 0.484375
vt 0.109375 0.546875
vt 0.125 0.546875
vt 0.125 0.484375
vt 0.09375 0.484375
vt 0.09375 0.546875
vt 0.109375 0.546875
vt 0.109375 0.484375
vt 0.09375 0.5625
vt 0.09375 0.578125
vt 0.03125 0.578125
vt 0.03125 0.5625
vt 0.09375 0.578125
vt 0.03125 0.578125
vt 0 0.546875
vt 0.125 0.546875
vt 0.09375 0.578125
vt 0.03125 0.578125
vt 0 0.546875
vt 0.125 0.546875
vt 0.03125 0.484375
vt 0.015625 0.484375
vt 0.015625 0.453125
vt 0.03125 0.453125
vt 0.015625 0.53125
vt 0 0.53125
vt 0 0.5625
vt 0.015625 0.5625
vt 0.078125 0.515625
vt 0.078125 0.5
vt 0.09375 0.5
vt 0.09375 0.515625
vt 0.078125 0.53125
vt 0.078125 0.515625
vt 0.09375 0.515625
vt 0.09375 0.53125
vt 0.078125 0.53125
vt 0.078125 0.5
vt 0.09375 0.5
vt 0.09375 0.53125
vt 0.078125 0.53125
vt 0.078125 0.5
vt 0.09375 0.5
vt 0.09375 0.53125
vt 0.0625 0.546875
vt 0.046875 0.546875
vt 0.046875 0.53125
vt 0.0625 0.53125
vt 0.078125 0.546875
vt 0.0625 0.546875
vt 0.0625 0.53125
vt 0.078125 0.53125
vt 0.078125 0.546875
vt 0.046875 0.546875
vt 0.046875 0.53125
vt 0.078125 0.53125
vt 0.078125 0.546875
vt 0.046875 0.546875
vt 0.046875 0.53125
vt 0.078125 0.53125
vt 0.0625 0.5
vt 0.078125 0.5
vt 0.078125 0.484375
vt 0.0625 0.484375
vt 0.046875 0.5
vt 0.0625 0.5
vt 0.0625 0.484375
vt 0.046875 0.484375
vt 0.046875 0.5
vt 0.078125 0.5
vt 0.078125 0.484375
vt 0.046875 0.484375
vt 0.046875 0.5
vt 0.078125 0.5
vt 0.078125 0.484375
vt 0.046875 0.484375
vt 0.03125 0.515625
vt 0.03125 0.5
vt 0.046875 0.5
vt 0.046875 0.515625
vt 0.03125 0.53125
vt 0.03125 0.515625
vt 0.046875 0.515625
vt 0.046875 0.53125
vt 0.03125 0.53125
vt 0.03125 0.5
vt 0.046875 0.5
vt 0.046875 0.53125
vt 0.03125 0.53125
vt 0.03125 0.5
vt 0.046875 0.5
vt 0.046875 0.53125
vt 0.03125 0.5
vt 0.09375 0.5
vt 0.09375 0.484375
vt 0.03125 0.484375
vt 0.03125 0.5
vt 0.09375 0.5
vt 0.09375 0.484375
vt 0.03125 0.484375
vt 0.03125 0.578125
vt 0.09375 0.578125
vt 0.09375 0.515625
vt 0.03125 0.515625
vt 0.03125 0.5
vt 0.09375 0.5
vt 0.09375 0.484375
vt 0.03125 0.484375
vt 0.03125 0.5
vt 0.09375 0.5
vt 0.09375 0.484375
vt 0.03125 0.484375
vn -2.220446049250313e-16 2.448128005901431e-16 -1
vn 2.220446049250313e-16 -2.448128005901431e-16 1
vn 5.055555011315561e-33 1 2.448128005901431e-16
vn -1 -5.43593615876288e-32 2.220446049250313e-16
vn -2.220446049250313e-16 1.1329912202902683e-15 -1
vn 7.327471962526033e-15 -1.1329912202902683e-15 1
vn -1.9215967129393757e-31 1 -6.433656191099829e-16
vn 1.921596712939374e-31 -1 6.433656191099821e-16
vn -1 -5.43593615876288e-32 2.220446049250313e-16
vn -1 -6.736398693710178e-32 -3.172065784643298e-17
vn 1 9.240719027745136e-32 3.172065784643308e-17
vn 2.1154757158683145e-32 1 -2.6271772495278556e-16
vn -1.3105156084999353e-32 -1 8.952462181321225e-18
vn 2.220446049250313e-16 -4.743981843455974e-17 1
vn 3.172065784643303e-17 4.743981843455969e-17 -1
vn -1 -5.43593615876288e-32 2.220446049250313e-16
vn 1 5.43593615876288e-32 -2.220446049250313e-16
vn 5.055555011315561e-33 1 2.448128005901431e-16
vn 2.220446049250313e-16 -2.448128005901431e-16 1
vn -1 -5.43593615876288e-32 2.220446049250313e-16
vn 1 5.43593615876288e-32 -2.220446049250313e-16
vn 5.055555011315561e-33 1 2.448128005901431e-16
vn -5.055555011315561e-33 -1 -2.448128005901431e-16
vn 2.220446049250313e-16 -2.448128005901431e-16 1
vn -1 -5.43593615876288e-32 2.220446049250313e-16
vn 1 5.43593615876288e-32 -2.220446049250313e-16
vn 2.220446049250313e-16 -2.448128005901431e-16 1
vn -2.220446049250313e-16 2.448128005901431e-16 -1
vn -1 1.630780847628864e-31 -6.661338147750939e-16
vn 1 -1.630780847628864e-31 6.661338147750939e-16
vn 2.220446049250313e-16 -2.448128005901431e-16 1
vn -2.220446049250313e-16 2.448128005901431e-16 -1
vn -1 -5.43593615876288e-32 2.220446049250313e-16
vn 1 5.43593615876288e-32 -2.220446049250313e-16
vn 2.220446049250313e-16 3.47306145876607e-16 1
vn -2.220446049250313e-16 -3.473061458766067e-16 -1
vn -1 -5.43593615876288e-32 2.220446049250313e-16
vn 1 5.43593615876288e-32 -2.220446049250313e-16
vn 2.220446049250313e-16 -2.448128005901431e-16 1
vn -2.220446049250313e-16 2.448128005901431e-16 -1
vn -0.948683298050514 -0.316227766016838 1.332334030916555e-16
vn -5.055555011315561e-33 -1 -2.448128005901431e-16
vn 2.220446049250313e-16 -2.448128005901431e-16 1
vn -2.220446049250313e-16 -9.394250923433571e-16 -1
vn -1 1.8119787195876263e-32 -7.401486830834375e-17
vn 1 -9.059893597938132e-32 3.700743415417188e-16
vn 5.055555011315561e-33 1 2.448128005901431e-16
vn -3.700743415417188e-16 -2.448128005901431e-16 1
vn 3.700743415417187e-16 2.448128005901431e-16 -1
vn -1 3.261561695257728e-32 -1.332267629550188e-16
vn 1 -3.261561695257728e-32 1.332267629550188e-16
vn 5.055555011315561e-33 1 2.448128005901431e-16
vn 2.220446049250313e-16 -2.448128005901431e-16 1
vn -2.220446049250313e-16 2.448128005901431e-16 -1
vn -1 2.3555723354639145e-31 -9.62193288008469e-16
vn -0.5547001962252287 0.8320502943378442 -3.3003224287619524e-16
vn 2.220446049250313e-16 -2.448128005901431e-16 1
vn -2.220446049250313e-16 2.448128005901431e-16 -1
vn -1 -5.43593615876288e-32 2.220446049250313e-16
vn 1 5.43593615876288e-32 -2.220446049250313e-16
vn 5.055555011315561e-33 1 2.448128005901431e-16
vn 2.220446049250313e-16 -2.448128005901431e-16 1
vn -2.220446049250313e-16 2.448128005901431e-16 -1
vn -1 5.43593615876288e-32 -2.220446049250313e-16
vn 1 -1.630780847628864e-31 6.661338147750939e-16
vn -5.055555011315561e-33 -1 -2.448128005901431e-16
vn 2.220446049250313e-16 -2.448128005901431e-16 1
vn -2.220446049250313e-16 2.448128005901431e-16 -1
vn -1 9.059893597938132e-32 -3.700743415417188e-16
vn 2.220446049250313e-16 -2.448128005901431e-16 1
vn -2.220446049250313e-16 2.448128005901431e-16 -1
vn 1 -2.3555723354639145e-31 9.62193288008469e-16
vn -1 9.059893597938132e-32 -3.700743415417188e-16
vn -0.5547001962252294 -0.8320502943378435 -4.089768726598143e-16
vn 2.220446049250313e-16 -2.448128005901431e-16 1
vn -2.220446049250313e-16 2.448128005901431e-16 -1
vn -1 2.3555723354639145e-31 -9.62193288008469e-16
vn 5.055555011315561e-33 1 2.448128005901431e-16
vn 2.220446049250313e-16 -2.448128005901431e-16 1
vn -2.220446049250313e-16 2.448128005901431e-16 -1
vn 1 5.43593615876288e-32 -2.220446049250313e-16
vn 0.3162277660168376 -0.9486832980505141 7.202241887447402e-17
vn 2.220446049250313e-16 -2.448128005901431e-16 1
vn -2.220446049250313e-16 2.448128005901431e-16 -1
vn -1 -5.43593615876288e-32 2.220446049250313e-16
vn -0.5547001962252291 0.8320502943378438 3.2686474871136877e-16
vn 2.220446049250313e-16 -2.448128005901431e-16 1
vn -2.220446049250313e-16 2.448128005901431e-16 -1
vn -1 -5.43593615876288e-32 2.220446049250313e-16
vn 1 5.43593615876288e-32 -2.220446049250313e-16
vn 5.055555011315561e-33 1 2.448128005901431e-16
vn 2.220446049250313e-16 -2.448128005901431e-16 1
vn -2.220446049250313e-16 2.448128005901431e-16 -1
vn -1 9.059893597938132e-32 -3.700743415417188e-16
vn 2.220446049250313e-16 -2.448128005901431e-16 1
vn -2.220446049250313e-16 2.448128005901431e-16 -1
vn 1 5.43593615876288e-32 -2.220446049250313e-16
vn -1 9.059893597938132e-32 -3.700743415417188e-16
vn -0.5547001962252291 -0.8320502943378438 -4.089768726598144e-16
vn 2.220446049250313e-16 -2.448128005901431e-16 1
vn -2.220446049250313e-16 2.448128005901431e-16 -1
vn -1 -5.43593615876288e-32 2.220446049250313e-16
vn 5.055555011315561e-33 1 2.448128005901431e-16
vn 2.220446049250313e-16 -2.448128005901431e-16 1
vn -2.220446049250313e-16 2.448128005901431e-16 -1
vn 1 5.43593615876288e-32 -2.220446049250313e-16
vn 0.316227766016838 -0.948683298050514 -3.024664844403738e-16
vn 2.220446049250313e-16 -2.448128005901431e-16 1
vn -2.220446049250313e-16 2.448128005901431e-16 -1
vn -1 -5.43593615876288e-32 2.220446049250313e-16
vn 1 5.43593615876288e-32 -2.220446049250313e-16
vn 2.171923975743535e-16 0.20791169058366996 0.978147600783563
vn -2.1719239757435356e-16 -0.2079116905836686 -0.9781476007835633
vn -1 1.8119787195876263e-32 -7.401486830834375e-17
vn 1 1.0336947530988104e-30 7.401486830834395e-17
vn 5.055555011315561e-33 1 2.448128005901431e-16
vn 2.1407247421674324e-31 -1 -8.369317470568932e-16
vn 2.220446049250313e-16 -2.448128005901431e-16 1
vn 3.700743415417188e-16 2.448128005901431e-16 -1
vn -1 -5.43593615876288e-32 2.220446049250313e-16
vn 1 5.43593615876288e-32 -2.220446049250313e-16
vn 2.1719239757435351e-16 -0.20791169058366904 0.9781476007835631
vn -2.1719239757435351e-16 0.2079116905836693 -0.9781476007835631
vn -1 -5.43593615876288e-32 2.220446049250313e-16
vn 1 5.43593615876288e-32 -2.220446049250313e-16
vn 2.1719239757435356e-16 0.2079116905836681 0.9781476007835633
vn 3.2578859636153035e-15 -0.2079116905836686 -0.9781476007835633
vn -1 3.6932535355957226e-16 -1.5154945756697996e-15
vn 1 2.0985437330537208e-16 1.6386030268563223e-15
vn 2.1719239757435356e-16 -0.2079116905836686 0.9781476007835633
vn -2.1719239757435344e-16 0.2079116905836704 -0.9781476007835628
vn -1 -3.400710910228771e-31 -2.220446049250313e-16
vn 1 3.400710910228771e-31 2.220446049250313e-16
vn 5.055555011315561e-33 1 2.448128005901431e-16
vn 2.220446049250313e-16 -2.448128005901431e-16 1
vn -2.220446049250313e-16 -6.433656191099821e-16 -1
vn -1 5.43593615876288e-32 -2.220446049250313e-16
vn 1 -5.43593615876288e-32 2.220446049250313e-16
vn 5.055555011315561e-33 1 2.448128005901431e-16
vn -5.055555011315561e-33 -1 -2.448128005901431e-16
vn 2.220446049250313e-16 -2.448128005901431e-16 1
vn -2.220446049250313e-16 2.448128005901431e-16 -1
vn -1 1.630780847628864e-31 -6.661338147750939e-16
vn 1 5.43593615876288e-32 -2.220446049250313e-16
vn 2.220446049250313e-16 -2.448128005901431e-16 1
vn -2.220446049250313e-16 2.448128005901431e-16 -1
vn -1 1.630780847628864e-31 -6.661338147750939e-16
vn 1 5.43593615876288e-32 -2.220446049250313e-16
vn 2.220446049250313e-16 -2.448128005901431e-16 1
vn -2.220446049250313e-16 2.448128005901431e-16 -1
vn -1 -5.43593615876288e-32 2.220446049250313e-16
vn 1 5.43593615876288e-32 -2.220446049250313e-16
vn 5.055555011315561e-33 1 2.448128005901431e-16
vn 0 -2.448128005901431e-16 1
vn 2.220446049250313e-16 2.448128005901431e-16 -1
vn -1 -5.43593615876288e-32 2.220446049250313e-16
vn 1 5.43593615876288e-32 -2.220446049250313e-16
vn -5.055555011315561e-33 -1 -2.448128005901431e-16
vn -3.510833468576702e-16 -0.3162277660168382 0.9486832980505139
vn -1 -5.43593615876288e-32 2.220446049250313e-16
vn 1 5.43593615876288e-32 -2.220446049250313e-16
vn -2.220446049250313e-16 2.448128005901431e-16 -1
vn 2.220446049250313e-16 -2.448128005901431e-16 1
vn -1 -6.953142449534722e-32 -7.401486830834375e-17
vn 1 5.43593615876288e-32 -2.220446049250313e-16
vn 5.055555011315561e-33 1 2.448128005901431e-16
vn -1.1461956962534498e-31 -1 5.124667264323195e-17
vn -1 -5.43593615876288e-32 2.220446049250313e-16
vn 1 -1.1842378929335002e-15 -2.220446049250316e-16
vn -5.055555011315561e-33 -1 -2.448128005901431e-16
vn -2.1065000811460205e-16 -0.316227766016838 -0.9486832980505139
vn -1 -5.43593615876288e-32 2.220446049250313e-16
vn 1 3.9474596431116695e-16 -2.2204460492503146e-16
vn 7.40148683083436e-17 2.448128005901431e-16 -1
vn -7.401486830834395e-17 -1.461263095123514e-16 1
vn -1 -5.43593615876288e-32 2.220446049250313e-16
vn 1 5.43593615876288e-32 -2.220446049250313e-16
vn 6.624396426954924e-31 1 -1.5315440388101066e-15
vn 2.106500081146021e-16 0.31622776601683755 0.9486832980505141
vn -1 -2.0859427348604166e-31 -2.220446049250313e-16
vn 1 -1.630780847628864e-31 6.661338147750939e-16
vn 5.055555011315561e-33 1 2.448128005901431e-16
vn 9.355205814131091e-32 -1 1.992764092599195e-16
vn -1 -5.43593615876288e-32 2.220446049250313e-16
vn 1 5.921189464667502e-16 -2.2204460492503116e-16
vn -5.055555011315561e-33 -1 -2.448128005901431e-16
vn 2.106500081146021e-16 -0.3162277660168382 0.9486832980505139
vn -1 -5.43593615876288e-32 2.220446049250313e-16
vn 1 -9.059893597938132e-32 3.700743415417188e-16
vn -2.220446049250313e-16 2.448128005901431e-16 -1
vn 2.220446049250313e-16 -2.448128005901431e-16 1
vn -1 -6.953142449534721e-32 -7.401486830834385e-17
vn 1 1.5718263618657085e-31 7.40148683083439e-17
vn 5.055555011315561e-33 1 2.448128005901431e-16
vn 6.068285375710209e-32 -1 5.124667264323195e-17
vn -1 -5.43593615876288e-32 2.220446049250313e-16
vn 1 5.43593615876288e-32 -2.220446049250313e-16
vn -5.055555011315561e-33 -1 -2.448128005901431e-16
vn -2.1065000811460203e-16 -0.3162277660168382 -0.9486832980505138
vn -1 -5.43593615876288e-32 2.220446049250313e-16
vn 1 5.43593615876288e-32 -2.220446049250313e-16
vn 3.700743415417189e-16 2.448128005901431e-16 -1
vn -7.40148683083438e-17 -1.4612630951235138e-16 1
vn -1 -5.43593615876288e-32 2.220446049250313e-16
vn 1 5.43593615876288e-32 -2.220446049250313e-16
vn -3.8937489759919034e-31 1 -1.5315440388101074e-15
vn 2.106500081146021e-16 0.3162277660168376 0.9486832980505141
vn -1 5.43593615876288e-32 -2.220446049250313e-16
vn 1 2.085942734860418e-31 2.220446049250313e-16
vn 5.055555011315561e-33 1 2.448128005901431e-16
vn -1.6940157693235967e-31 -1 1.992764092599195e-16
vn 1 5.43593615876288e-32 -2.220446049250313e-16
vn 5.055555011315561e-33 1 2.448128005901431e-16
vn -5.435936158762879e-32 -1 -4.668574055151744e-16
vn 2.220446049250313e-16 1.1045856728990685e-16 1
vn -2.220446049250313e-16 2.448128005901431e-16 -1
vn -1 -2.6000591078551264e-31 -3.700743415417184e-16
vn 1 -2.3555723354639127e-31 9.621932880084681e-16
vn -6.068285375710205e-32 1 -5.12466726432318e-17
vn -7.079396377973321e-32 -1 -5.408722738235181e-16
vn 2.220446049250313e-16 -2.448128005901431e-16 1
vn -2.220446049250313e-16 -3.47306145876607e-16 -1
vn -1 0 0
vn 1 0 0
vn -4.930380657631324e-32 6.433656191099829e-16 1
vn 2.775557561562896e-17 4.668574055151744e-16 -1
vn 5.055555011315561e-33 1 2.2768195665111805e-17
vn 2.9707458299472213e-32 1 -8.82541067974038e-17
vn 2.970745829947218e-32 1 -8.825410679740385e-17
vn 5.055555011315561e-33 1 2.2768195665111805e-17
vn -5.055555011315561e-33 -1 1.992764092599194e-16
vn -5.055555011315572e-33 -1 -2.2768195665111854e-17
vn -5.055555011315561e-33 -1 -2.2768195665111854e-17
vn -5.055555011315561e-33 -1 1.992764092599194e-16
vn -1 -5.43593615876288e-32 2.220446049250313e-16
vn 1 5.43593615876288e-32 -2.220446049250313e-16
vn 5.055555011315561e-33 1 2.448128005901431e-16
vn 4.440892098500625e-17 -2.448128005901431e-16 1
vn 1.332267629550188e-16 2.448128005901431e-16 -1
vn 2.220446049250313e-16 -7.35024015819115e-15 1
vn -2.220446049250313e-16 6.46206173849102e-15 -1
vn -1.3855621391480863e-30 -1 -6.46206173849102e-15
vn 1.5827773654533376e-30 1 7.350240158191138e-15
vn 1 -2.605893939088681e-29 3.3306690738754665e-15
vn 1 3.282279452716653e-15 1.1375200598887696e-15
vn -1 -3.282279452716645e-15 -1.1375200598887732e-15
vn 7.908632985750262e-15 -0.9238795325112844 -0.3826834323650955
vn 8.497279155086251e-17 0.9238795325112846 0.38268343236509544
vn 2.8696777248951664e-15 -0.38268343236509517 0.9238795325112846
vn 1 2.3209220587652263e-15 -1.1834019988764586e-15
vn -1 -9.613573939514285e-16 -2.098877453840192e-15
vn 3.3821669547867847e-15 -0.9238795325112893 0.38268343236508384
vn -7.017282844150575e-15 0.38268343236508306 0.9238795325112897
vn 1 3.2822794527166467e-15 1.1375200598887696e-15
vn -1 -3.282279452716647e-15 -1.1375200598887706e-15
vn 3.245696282324608e-15 -0.9238795325112841 -0.38268343236509617
vn -3.245696282324611e-15 0.9238795325112843 0.38268343236509605
vn 1.4359972605635352e-15 0.38268343236509644 -0.9238795325112842
vn 1 9.61357393951425e-16 2.0988774538401958e-15
vn -1 -2.320922058765226e-15 1.1834019988764527e-15
vn 1.1544221990189707e-15 -0.38268343236508445 -0.9238795325112892
vn -8.497279155086025e-17 0.9238795325112888 -0.38268343236508484
vn -4.5779639118748045e-15 0.9238795325112844 0.382683432365096
vn 3.1901851310933403e-15 -0.9238795325112835 -0.3826834323650977
vn 1 3.282279452716656e-15 1.1375200598887732e-15
vn -1 -3.2822794527166542e-15 -1.137520059888767e-15
vn -1.6822366760679762e-15 -0.3826834323650953 0.9238795325112845
vn 7.24132903614985e-17 0.3826834323650922 -0.9238795325112857
vn 1 5.43593615876288e-32 -2.220446049250313e-16
vn -1 -5.43593615876288e-32 2.220446049250313e-16
vn 2.9251888761264168e-15 -0.38268343236509406 0.9238795325112851
vn -1.537410095344977e-15 0.38268343236509467 -0.9238795325112847
vn 1 5.43593615876288e-32 -2.220446049250313e-16
vn -1 -5.43593615876288e-32 2.220446049250313e-16
vn -6.465343053737543e-15 0.9238795325112835 0.3826834323650977
vn 7.186988019743915e-15 -0.9238795325112845 -0.3826834323650953
vn 1 3.282279452716646e-15 1.1375200598887765e-15
vn -1 -3.2822794527166487e-15 -1.1375200598887674e-15
vn -1 5.43593615876288e-32 -2.220446049250313e-16
vn 1 -1.630780847628864e-31 6.661338147750939e-16
vn -5.055555011315561e-33 -1 -2.448128005901431e-16
vn 2.220446049250313e-16 -2.448128005901431e-16 1
vn -2.220446049250313e-16 2.448128005901431e-16 -1
usemtl common_thingies
f 2/1/1 3/2/1 5/3/1
f 2/1/1 5/3/1 4/4/1
f 7/5/2 6/6/2 8/7/2
f 7/5/2 8/7/2 9/8/2
f 7/9/3 3/10/3 2/11/3
f 7/9/3 2/11/3 6/12/3
f 6/13/4 2/14/4 4/15/4
f 6/13/4 4/15/4 8/16/4
f 10/17/5 11/18/5 13/19/5
f 10/17/5 13/19/5 12/20/5
f 15/21/6 14/22/6 16/23/6
f 15/21/6 16/23/6 17/24/6
f 15/25/7 11/26/7 10/27/7
f 15/25/7 10/27/7 14/28/7
f 16/29/8 12/30/8 13/31/8
f 16/29/8 13/31/8 17/32/8
f 14/33/9 10/34/9 12/35/9
f 14/33/9 12/35/9 16/36/9
usemtl fuel_station
f 18/37/10 19/38/10 21/39/10
f 18/37/10 21/39/10 20/40/10
f 23/41/11 22/42/11 24/43/11
f 23/41/11 24/43/11 25/44/11
f 23/45/12 19/46/12 18/47/12
f 23/45/12 18/47/12 22/48/12
f 24/49/13 20/50/13 21/51/13
f 24/49/13 21/51/13 25/52/13
f 22/53/14 18/54/14 20/55/14
f 22/53/14 20/55/14 24/56/14
f 19/57/15 23/58/15 25/59/15
f 19/57/15 25/59/15 21/60/15
usemtl common_thingies
f 26/61/16 27/62/16 29/63/16
f 26/61/16 29/63/16 28/64/16
f 31/65/17 30/66/17 32/67/17
f 31/65/17 32/67/17 33/68/17
f 31/69/18 27/70/18 26/71/18
f 31/69/18 26/71/18 30/72/18
f 30/73/19 26/74/19 28/75/19
f 30/73/19 28/75/19 32/76/19
f 34/77/20 35/78/20 37/79/20
f 34/77/20 37/79/20 36/80/20
f 39/81/21 38/82/21 40/83/21
f 39/81/21 40/83/21 41/84/21
f 39/85/22 35/86/22 34/87/22
f 39/85/22 34/87/22 38/88/22
f 40/89/23 36/90/23 37/91/23
f 40/89/23 37/91/23 41/92/23
f 38/93/24 34/94/24 36/95/24
f 38/93/24 36/95/24 40/96/24
usemtl fuel_station
f 42/97/25 43/98/25 45/99/25
f 42/97/25 45/99/25 44/100/25
f 47/101/26 46/102/26 48/103/26
f 47/101/26 48/103/26 49/104/26
f 46/105/27 42/106/27 44/107/27
f 46/105/27 44/107/27 48/108/27
f 43/109/28 47/110/28 49/111/28
f 43/109/28 49/111/28 45/112/28
f 50/113/29 51/114/29 53/115/29
f 50/113/29 53/115/29 52/116/29
f 55/117/30 54/118/30 56/119/30
f 55/117/30 56/119/30 57/120/30
f 54/121/31 50/122/31 52/123/31
f 54/121/31 52/123/31 56/124/31
f 51/125/32 55/126/32 57/127/32
f 51/125/32 57/127/32 53/128/32
f 58/129/33 59/130/33 61/131/33
f 58/129/33 61/131/33 60/132/33
f 63/133/34 62/134/34 64/135/34
f 63/133/34 64/135/34 65/136/34
f 62/137/35 58/138/35 60/139/35
f 62/137/35 60/139/35 64/140/35
f 59/141/36 63/142/36 65/143/36
f 59/141/36 65/143/36 61/144/36
f 66/145/37 67/146/37 69/147/37
f 66/145/37 69/147/37 68/148/37
f 71/149/38 70/150/38 72/151/38
f 71/149/38 72/151/38 73/152/38
f 70/153/39 66/154/39 68/155/39
f 70/153/39 68/155/39 72/156/39
f 67/157/40 71/158/40 73/159/40
f 67/157/40 73/159/40 69/160/40
usemtl common_cable_and_pipe
f 76/161/41 74/162/41 75/163/41
f 76/161/41 75/163/41 77/164/41
f 80/165/42 76/166/42 77/167/42
f 80/165/42 77/167/42 81/168/42
f 78/169/43 74/170/43 76/171/43
f 78/169/43 76/171/43 80/172/43
f 77/173/44 75/174/44 79/175/44
f 77/173/44 79/175/44 81/176/44
usemtl fuel_station
f 82/177/45 83/178/45 85/179/45
f 82/177/45 85/179/45 84/180/45
f 87/181/46 86/182/46 88/183/46
f 87/181/46 88/183/46 89/184/46
f 87/185/47 83/186/47 82/187/47
f 87/185/47 82/187/47 86/188/47
f 86/189/48 82/190/48 84/191/48
f 86/189/48 84/191/48 88/192/48
f 83/193/49 87/194/49 89/195/49
f 83/193/49 89/195/49 85/196/49
f 90/197/50 91/198/50 93/199/50
f 90/197/50 93/199/50 92/200/50
f 95/201/51 94/202/51 96/203/51
f 95/201/51 96/203/51 97/204/51
f 95/205/52 91/206/52 90/207/52
f 95/205/52 90/207/52 94/208/52
f 94/209/53 90/210/53 92/211/53
f 94/209/53 92/211/53 96/212/53
f 91/213/54 95/214/54 97/215/54
f 91/213/54 97/215/54 93/216/54
usemtl common_copper_cable
f 100/217/55 98/218/55 99/219/55
f 100/217/55 99/219/55 101/220/55
f 99/221/56 98/222/56 102/223/56
f 99/221/56 102/223/56 103/224/56
f 102/225/57 98/226/57 100/227/57
f 102/225/57 100/227/57 104/228/57
f 101/229/58 99/230/58 103/231/58
f 101/229/58 103/231/58 105/232/58
usemtl fuel_station
f 106/233/59 107/234/59 343/235/59
f 106/233/59 343/235/59 108/236/59
f 110/237/60 109/238/60 111/239/60
f 110/237/60 111/239/60 112/240/60
f 110/241/61 107/242/61 106/243/61
f 110/241/61 106/243/61 109/244/61
f 109/245/62 106/246/62 108/247/62
f 109/245/62 108/247/62 111/248/62
f 107/249/63 110/250/63 112/251/63
f 107/249/63 112/251/63 343/252/63
usemtl common_thingies
f 113/253/64 114/254/64 116/255/64
f 113/253/64 116/255/64 115/256/64
f 118/257/65 117/258/65 119/259/65
f 118/257/65 119/259/65 120/260/65
f 119/261/66 115/262/66 116/263/66
f 119/261/66 116/263/66 120/264/66
f 117/265/67 113/266/67 115/267/67
f 117/265/67 115/267/67 119/268/67
f 114/269/68 118/270/68 120/271/68
f 114/269/68 120/271/68 116/272/68
usemtl common_copper_cable
f 121/273/69 122/274/69 124/275/69
f 121/273/69 124/275/69 123/276/69
f 125/277/70 121/278/70 123/279/70
f 125/277/70 123/279/70 127/280/70
f 122/281/71 126/282/71 128/283/71
f 122/281/71 128/283/71 124/284/71
f 126/285/72 125/286/72 127/287/72
f 126/285/72 127/287/72 128/288/72
f 129/289/73 344/290/73 345/291/73
f 129/289/73 345/291/73 130/292/73
f 131/293/74 129/294/74 130/295/74
f 131/293/74 130/295/74 132/296/74
f 346/297/75 344/298/75 129/299/75
f 346/297/75 129/299/75 131/300/75
f 130/301/76 345/302/76 347/303/76
f 130/301/76 347/303/76 132/304/76
f 348/305/77 349/306/77 351/307/77
f 348/305/77 351/307/77 350/308/77
f 353/309/78 349/310/78 348/311/78
f 353/309/78 348/311/78 352/312/78
f 352/313/79 348/314/79 350/315/79
f 352/313/79 350/315/79 133/316/79
f 349/317/80 353/318/80 134/319/80
f 349/317/80 134/319/80 351/320/80
f 359/321/81 358/322/81 135/323/81
f 359/321/81 135/323/81 136/324/81
f 135/325/82 356/326/82 357/327/82
f 135/325/82 357/327/82 136/328/82
f 358/329/83 354/330/83 356/331/83
f 358/329/83 356/331/83 135/332/83
f 357/333/84 355/334/84 359/335/84
f 357/333/84 359/335/84 136/336/84
f 139/337/85 137/338/85 138/339/85
f 139/337/85 138/339/85 140/340/85
f 138/341/86 137/342/86 141/343/86
f 138/341/86 141/343/86 142/344/86
f 141/345/87 137/346/87 139/347/87
f 141/345/87 139/347/87 143/348/87
f 140/349/88 138/350/88 142/351/88
f 140/349/88 142/351/88 144/352/88
usemtl fuel_station
f 145/353/89 146/354/89 147/355/89
f 145/353/89 147/355/89 360/356/89
f 149/357/90 148/358/90 150/359/90
f 149/357/90 150/359/90 151/360/90
f 149/361/91 146/362/91 145/363/91
f 149/361/91 145/363/91 148/364/91
f 148/365/92 145/366/92 360/367/92
f 148/365/92 360/367/92 150/368/92
f 146/369/93 149/370/93 151/371/93
f 146/369/93 151/371/93 147/372/93
usemtl common_copper_cable
f 152/373/94 153/374/94 155/375/94
f 152/373/94 155/375/94 154/376/94
f 156/377/95 152/378/95 154/379/95
f 156/377/95 154/379/95 158/380/95
f 153/381/96 157/382/96 159/383/96
f 153/381/96 159/383/96 155/384/96
f 157/385/97 156/386/97 158/387/97
f 157/385/97 158/387/97 159/388/97
f 160/389/98 361/390/98 362/391/98
f 160/389/98 362/391/98 161/392/98
f 162/393/99 160/394/99 161/395/99
f 162/393/99 161/395/99 163/396/99
f 363/397/100 361/398/100 160/399/100
f 363/397/100 160/399/100 162/400/100
f 161/401/101 362/402/101 364/403/101
f 161/401/101 364/403/101 163/404/101
f 365/405/102 366/406/102 368/407/102
f 365/405/102 368/407/102 367/408/102
f 370/409/103 366/410/103 365/411/103
f 370/409/103 365/411/103 369/412/103
f 369/413/104 365/414/104 367/415/104
f 369/413/104 367/415/104 164/416/104
f 366/417/105 370/418/105 165/419/105
f 366/417/105 165/419/105 368/420/105
f 376/421/106 375/422/106 166/423/106
f 376/421/106 166/423/106 167/424/106
f 166/425/107 373/426/107 374/427/107
f 166/425/107 374/427/107 167/428/107
f 375/429/108 371/430/108 373/431/108
f 375/429/108 373/431/108 166/432/108
f 374/433/109 372/434/109 376/435/109
f 374/433/109 376/435/109 167/436/109
usemtl fuel_station
f 168/437/110 169/438/110 171/439/110
f 168/437/110 171/439/110 170/440/110
f 173/441/111 172/442/111 174/443/111
f 173/441/111 174/443/111 175/444/111
f 172/445/112 168/446/112 170/447/112
f 172/445/112 170/447/112 174/448/112
f 169/449/113 173/450/113 175/451/113
f 169/449/113 175/451/113 171/452/113
f 176/453/114 177/454/114 179/455/114
f 176/453/114 179/455/114 178/456/114
f 181/457/115 180/458/115 182/459/115
f 181/457/115 182/459/115 183/460/115
f 181/461/116 177/462/116 176/463/116
f 181/461/116 176/463/116 180/464/116
f 182/465/117 178/466/117 179/467/117
f 182/465/117 179/467/117 183/468/117
f 180/469/118 176/470/118 178/471/118
f 180/469/118 178/471/118 182/472/118
f 177/473/119 181/474/119 183/475/119
f 177/473/119 183/475/119 179/476/119
f 184/477/120 185/478/120 187/479/120
f 184/477/120 187/479/120 186/480/120
f 189/481/121 188/482/121 190/483/121
f 189/481/121 190/483/121 191/484/121
f 188/485/122 184/486/122 186/487/122
f 188/485/122 186/487/122 190/488/122
f 185/489/123 189/490/123 191/491/123
f 185/489/123 191/491/123 187/492/123
f 192/493/124 193/494/124 195/495/124
f 192/493/124 195/495/124 194/496/124
f 197/497/125 196/498/125 198/499/125
f 197/497/125 198/499/125 199/500/125
f 196/501/126 192/502/126 194/503/126
f 196/501/126 194/503/126 198/504/126
f 193/505/127 197/506/127 199/507/127
f 193/505/127 199/507/127 195/508/127
f 200/509/128 201/510/128 203/511/128
f 200/509/128 203/511/128 202/512/128
f 205/513/129 204/514/129 206/515/129
f 205/513/129 206/515/129 207/516/129
f 204/517/130 200/518/130 202/519/130
f 204/517/130 202/519/130 206/520/130
f 201/521/131 205/522/131 207/523/131
f 201/521/131 207/523/131 203/524/131
f 208/525/132 209/526/132 211/527/132
f 208/525/132 211/527/132 210/528/132
f 213/529/133 212/530/133 214/531/133
f 213/529/133 214/531/133 215/532/133
f 213/533/134 209/534/134 208/535/134
f 213/533/134 208/535/134 212/536/134
f 212/537/135 208/538/135 210/539/135
f 212/537/135 210/539/135 214/540/135
f 209/541/136 213/542/136 215/543/136
f 209/541/136 215/543/136 211/544/136
usemtl common_thingies
f 216/545/137 217/546/137 219/547/137
f 216/545/137 219/547/137 218/548/137
f 221/549/138 220/550/138 222/551/138
f 221/549/138 222/551/138 223/552/138
f 221/553/139 217/554/139 216/555/139
f 221/553/139 216/555/139 220/556/139
f 222/557/140 218/558/140 219/559/140
f 222/557/140 219/559/140 223/560/140
f 220/561/141 216/562/141 218/563/141
f 220/561/141 218/563/141 222/564/141
f 217/565/142 221/566/142 223/567/142
f 217/565/142 223/567/142 219/568/142
usemtl fuel_station
f 224/569/143 225/570/143 227/571/143
f 224/569/143 227/571/143 226/572/143
f 229/573/144 228/574/144 230/575/144
f 229/573/144 230/575/144 231/576/144
f 228/577/145 224/578/145 226/579/145
f 228/577/145 226/579/145 230/580/145
f 225/581/146 229/582/146 231/583/146
f 225/581/146 231/583/146 227/584/146
f 232/585/147 233/586/147 235/587/147
f 232/585/147 235/587/147 234/588/147
f 237/589/148 236/590/148 238/591/148
f 237/589/148 238/591/148 239/592/148
f 236/593/149 232/594/149 234/595/149
f 236/593/149 234/595/149 238/596/149
f 233/597/150 237/598/150 239/599/150
f 233/597/150 239/599/150 235/600/150
usemtl heavy_inserter
f 240/601/151 241/602/151 243/603/151
f 240/601/151 243/603/151 242/604/151
f 245/605/152 244/606/152 246/607/152
f 245/605/152 246/607/152 247/608/152
f 245/609/153 241/610/153 240/611/153
f 245/609/153 240/611/153 244/612/153
f 244/613/154 240/614/154 242/615/154
f 244/613/154 242/615/154 246/616/154
f 241/617/155 245/618/155 247/619/155
f 241/617/155 247/619/155 243/620/155
usemtl common_cable_and_pipe
f 251/621/156 249/622/156 248/623/156
f 251/621/156 248/623/156 250/624/156
f 254/625/157 252/626/157 253/627/157
f 254/625/157 253/627/157 255/628/157
f 248/629/158 249/630/158 253/631/158
f 248/629/158 253/631/158 252/632/158
f 250/633/159 248/634/159 252/635/159
f 250/633/159 252/635/159 254/636/159
f 256/637/160 377/638/160 378/639/160
f 256/637/160 378/639/160 257/640/160
f 379/641/161 258/642/161 259/643/161
f 379/641/161 259/643/161 380/644/161
f 379/645/162 377/646/162 256/647/162
f 379/645/162 256/647/162 258/648/162
f 259/649/163 257/650/163 378/651/163
f 259/649/163 378/651/163 380/652/163
f 381/653/164 260/654/164 261/655/164
f 381/653/164 261/655/164 382/656/164
f 262/657/165 383/658/165 384/659/165
f 262/657/165 384/659/165 263/660/165
f 262/661/166 260/662/166 381/663/166
f 262/661/166 381/663/166 383/664/166
f 384/665/167 382/666/167 261/667/167
f 384/665/167 261/667/167 263/668/167
f 264/669/168 385/670/168 386/671/168
f 264/669/168 386/671/168 265/672/168
f 387/673/169 266/674/169 267/675/169
f 387/673/169 267/675/169 388/676/169
f 387/677/170 385/678/170 264/679/170
f 387/677/170 264/679/170 266/680/170
f 266/681/171 264/682/171 265/683/171
f 266/681/171 265/683/171 267/684/171
f 268/685/172 389/686/172 390/687/172
f 268/685/172 390/687/172 269/688/172
f 391/689/173 270/690/173 271/691/173
f 391/689/173 271/691/173 392/692/173
f 391/693/174 389/694/174 268/695/174
f 391/693/174 268/695/174 270/696/174
f 271/697/175 269/698/175 390/699/175
f 271/697/175 390/699/175 392/700/175
f 272/701/176 273/702/176 394/703/176
f 272/701/176 394/703/176 393/704/176
f 275/705/177 274/706/177 395/707/177
f 275/705/177 395/707/177 396/708/177
f 275/709/178 273/710/178 272/711/178
f 275/709/178 272/711/178 274/712/178
f 274/713/179 272/714/179 393/715/179
f 274/713/179 393/715/179 395/716/179
f 397/717/180 276/718/180 277/719/180
f 397/717/180 277/719/180 398/720/180
f 278/721/181 399/722/181 400/723/181
f 278/721/181 400/723/181 279/724/181
f 278/725/182 276/726/182 397/727/182
f 278/725/182 397/727/182 399/728/182
f 400/729/183 398/730/183 277/731/183
f 400/729/183 277/731/183 279/732/183
f 283/733/184 281/734/184 280/735/184
f 283/733/184 280/735/184 282/736/184
f 286/737/185 284/738/185 285/739/185
f 286/737/185 285/739/185 287/740/185
f 280/741/186 281/742/186 285/743/186
f 280/741/186 285/743/186 284/744/186
f 282/745/187 280/746/187 284/747/187
f 282/745/187 284/747/187 286/748/187
f 288/749/188 401/750/188 402/751/188
f 288/749/188 402/751/188 289/752/188
f 403/753/189 290/754/189 291/755/189
f 403/753/189 291/755/189 404/756/189
f 403/757/190 401/758/190 288/759/190
f 403/757/190 288/759/190 290/760/190
f 291/761/191 289/762/191 402/763/191
f 291/761/191 402/763/191 404/764/191
f 405/765/192 292/766/192 293/767/192
f 405/765/192 293/767/192 406/768/192
f 294/769/193 407/770/193 408/771/193
f 294/769/193 408/771/193 295/772/193
f 294/773/194 292/774/194 405/775/194
f 294/773/194 405/775/194 407/776/194
f 408/777/195 406/778/195 293/779/195
f 408/777/195 293/779/195 295/780/195
f 296/781/196 409/782/196 410/783/196
f 296/781/196 410/783/196 297/784/196
f 411/785/197 298/786/197 299/787/197
f 411/785/197 299/787/197 412/788/197
f 411/789/198 409/790/198 296/791/198
f 411/789/198 296/791/198 298/792/198
f 298/793/199 296/794/199 297/795/199
f 298/793/199 297/795/199 299/796/199
f 300/797/200 413/798/200 414/799/200
f 300/797/200 414/799/200 301/800/200
f 415/801/201 302/802/201 303/803/201
f 415/801/201 303/803/201 416/804/201
f 415/805/202 413/806/202 300/807/202
f 415/805/202 300/807/202 302/808/202
f 303/809/203 301/810/203 414/811/203
f 303/809/203 414/811/203 416/812/203
f 304/813/204 305/814/204 418/815/204
f 304/813/204 418/815/204 417/816/204
f 307/817/205 306/818/205 419/819/205
f 307/817/205 419/819/205 420/820/205
f 307/821/206 305/822/206 304/823/206
f 307/821/206 304/823/206 306/824/206
f 306/825/207 304/826/207 417/827/207
f 306/825/207 417/827/207 419/828/207
f 421/829/208 422/830/208 424/831/208
f 421/829/208 424/831/208 423/832/208
f 308/833/209 425/834/209 426/835/209
f 308/833/209 426/835/209 309/836/209
f 308/837/210 422/838/210 421/839/210
f 308/837/210 421/839/210 425/840/210
f 426/841/211 423/842/211 424/843/211
f 426/841/211 424/843/211 309/844/211
usemtl fuel_station
f 315/845/212 314/846/212 316/847/212
f 315/845/212 316/847/212 317/848/212
f 315/849/213 311/850/213 310/851/213
f 315/849/213 310/851/213 314/852/213
f 316/853/214 312/854/214 313/855/214
f 316/853/214 313/855/214 317/856/214
f 314/857/215 310/858/215 312/859/215
f 314/857/215 312/859/215 316/860/215
f 311/861/216 315/862/216 317/863/216
f 311/861/216 317/863/216 313/864/216
f 318/865/217 319/866/217 321/867/217
f 318/865/217 321/867/217 320/868/217
f 323/869/218 322/870/218 324/871/218
f 323/869/218 324/871/218 325/872/218
f 323/873/219 319/874/219 318/875/219
f 323/873/219 318/875/219 322/876/219
f 324/877/220 320/878/220 321/879/220
f 324/877/220 321/879/220 325/880/220
f 322/881/221 318/882/221 320/883/221
f 322/881/221 320/883/221 324/884/221
f 319/885/222 323/886/222 325/887/222
f 319/885/222 325/887/222 321/888/222
usemtl common_concrete
f 326/889/223 327/890/223 329/891/223
f 326/889/223 329/891/223 328/892/223
f 1/893/224 330/894/224 331/895/224
f 1/893/224 331/895/224 332/896/224
f 330/897/225 326/898/225 328/899/225
f 330/897/225 328/899/225 331/900/225
f 327/901/226 1/902/226 332/903/226
f 327/901/226 332/903/226 329/904/226
f 337/905/227 335/906/227 334/907/227
f 337/905/227 334/907/227 430/908/227
f 335/909/228 336/910/228 429/911/228
f 335/909/228 429/911/228 334/912/228
f 336/913/229 335/914/229 333/915/229
f 336/913/229 333/915/229 427/916/229
f 335/917/230 337/918/230 428/919/230
f 335/917/230 428/919/230 333/920/230
f 340/921/231 338/922/231 342/923/231
f 340/921/231 342/923/231 434/924/231
f 431/925/232 339/926/232 338/927/232
f 431/925/232 338/927/232 340/928/232
f 341/929/233 338/930/233 339/931/233
f 341/929/233 339/931/233 432/932/233
f 433/933/234 342/934/234 338/935/234
f 433/933/234 338/935/234 341/936/234
usemtl fuel_station
f 435/937/235 436/938/235 438/939/235
f 435/937/235 438/939/235 437/940/235
f 440/941/236 439/942/236 441/943/236
f 440/941/236 441/943/236 442/944/236
f 440/945/237 436/946/237 435/947/237
f 440/945/237 435/947/237 439/948/237
f 439/949/238 435/950/238 437/951/238
f 439/949/238 437/951/238 441/952/238
f 436/953/239 440/954/239 442/955/239
f 436/953/239 442/955/239 438/956/239
f 443/957/240 444/958/240 446/959/240
f 443/957/240 446/959/240 445/960/240
f 448/961/241 447/962/241 449/963/241
f 448/961/241 449/963/241 450/964/241
f 447/965/242 443/966/242 445/967/242
f 447/965/242 445/967/242 449/968/242
f 444/969/243 448/970/243 450/971/243
f 444/969/243 450/971/243 446/972/243
f 448/973/244 444/974/244 443/975/244
f 448/973/244 443/975/244 447/976/244
f 456/977/245 452/978/245 451/979/245
f 456/977/245 451/979/245 455/980/245
f 457/981/246 453/982/246 454/983/246
f 457/981/246 454/983/246 458/984/246
f 455/985/247 451/986/247 453/987/247
f 455/985/247 453/987/247 457/988/247
f 452/989/248 456/990/248 458/991/248
f 452/989/248 458/991/248 454/992/248
f 459/993/249 460/994/249 462/995/249
f 459/993/249 462/995/249 461/996/249
f 452/997/250 460/998/250 459/999/250
f 452/997/250 459/999/250 463/1000/250
f 464/1001/251 461/1002/251 462/1003/251
f 464/1001/251 462/1003/251 454/1004/251
f 463/1005/252 459/1006/252 461/1007/252
f 463/1005/252 461/1007/252 464/1008/252
f 460/1009/253 452/1010/253 454/1011/253
f 460/1009/253 454/1011/253 462/1012/253
f 468/1013/254 465/1014/254 463/1015/254
f 468/1013/254 463/1015/254 467/1016/254
f 469/1017/255 464/1018/255 466/1019/255
f 469/1017/255 466/1019/255 470/1020/255
f 467/1021/256 463/1022/256 464/1023/256
f 467/1021/256 464/1023/256 469/1024/256
f 465/1025/257 468/1026/257 470/1027/257
f 465/1025/257 470/1027/257 466/1028/257
f 474/1029/258 472/1030/258 471/1031/258
f 474/1029/258 471/1031/258 473/1032/258
f 471/1033/259 472/1034/259 456/1035/259
f 471/1033/259 456/1035/259 467/1036/259
f 474/1037/260 473/1038/260 469/1039/260
f 474/1037/260 469/1039/260 458/1040/260
f 473/1041/261 471/1042/261 467/1043/261
f 473/1041/261 467/1043/261 469/1044/261
f 458/1045/262 456/1046/262 472/1047/262
f 458/1045/262 472/1047/262 474/1048/262
f 475/1049/263 476/1050/263 478/1051/263
f 475/1049/263 478/1051/263 477/1052/263
f 480/1053/264 479/1054/264 481/1055/264
f 480/1053/264 481/1055/264 482/1056/264
f 480/1057/265 476/1058/265 475/1059/265
f 480/1057/265 475/1059/265 479/1060/265
f 481/1061/266 477/1062/266 478/1063/266
f 481/1061/266 478/1063/266 482/1064/266
f 476/1065/267 483/1066/267 484/1067/267
f 476/1065/267 484/1067/267 478/1068/267
f 486/1069/268 485/1070/268 487/1071/268
f 486/1069/268 487/1071/268 488/1072/268
f 486/1073/269 483/1074/269 476/1075/269
f 486/1073/269 476/1075/269 485/1076/269
f 487/1077/270 478/1078/270 484/1079/270
f 487/1077/270 484/1079/270 488/1080/270
f 489/1081/271 480/1082/271 482/1083/271
f 489/1081/271 482/1083/271 490/1084/271
f 492/1085/272 491/1086/272 493/1087/272
f 492/1085/272 493/1087/272 494/1088/272
f 492/1089/273 480/1090/273 489/1091/273
f 492/1089/273 489/1091/273 491/1092/273
f 493/1093/274 490/1094/274 482/1095/274
f 493/1093/274 482/1095/274 494/1096/274
f 485/1097/275 495/1098/275 496/1099/275
f 485/1097/275 496/1099/275 487/1100/275
f 497/1101/276 492/1102/276 494/1103/276
f 497/1101/276 494/1103/276 498/1104/276
f 497/1105/277 495/1106/277 485/1107/277
f 497/1105/277 485/1107/277 492/1108/277
f 494/1109/278 487/1110/278 496/1111/278
f 494/1109/278 496/1111/278 498/1112/278
usemtl common_thingies
f 501/1113/279 500/1114/279 499/1115/279
f 501/1113/279 499/1115/279 502/1116/279
f 506/1117/280 505/1118/280 503/1119/280
f 506/1117/280 503/1119/280 504/1120/280
f 503/1121/281 502/1122/281 499/1123/281
f 503/1121/281 499/1123/281 504/1124/281
f 505/1125/282 501/1126/282 502/1127/282
f 505/1125/282 502/1127/282 503/1128/282
f 500/1129/283 506/1130/283 504/1131/283
f 500/1129/283 504/1131/283 499/1132/283