# Made by Pabilo8 with Blockbench
# Exported with IIToolkit Plugin
mtllib fuel_station.mtl


o variant_steel
v 0.9375 -0.25 0.7500000000000002
v 0.9375 -0.25 0.9375000000000002
v 0.9375 -1 0.7500000000000002
v 0.9375 -1 0.9375000000000002
v 0.75 -0.25 0.7500000000000002
v 0.75 -0.25 0.9375000000000002
v 0.75 -1 0.7500000000000002
v 0.75 -1 0.9375000000000002
v 0.9375 -0.25 0.06250000000000022
v 0.9375 -0.25 0.2500000000000002
v 0.9375 -1 0.06250000000000022
v 0.9375 -1 0.2500000000000002
v 0.75 -0.25 0.06250000000000022
v 0.75 -0.25 0.2500000000000002
v 0.75 -1 0.06250000000000022
v 0.75 -1 0.2500000000000002
v -0.75 -0.25 0.7500000000000002
v -0.75 -0.25 0.9375000000000002
v -0.75 -1 0.7500000000000002
v -0.75 -1 0.9375000000000002
v -0.9375 -0.25 0.7500000000000002
v -0.9375 -0.25 0.9375000000000002
v -0.9375 -1 0.7500000000000002
v -0.9375 -1 0.9375000000000002
v -0.75 -0.25 0.06250000000000022
v -0.75 -0.25 0.2500000000000002
v -0.75 -1 0.06250000000000022
v -0.75 -1 0.2500000000000002
v -0.9375 -0.25 0.06250000000000022
v -0.9375 -0.25 0.2500000000000002
v -0.9375 -1 0.06250000000000022
v -0.9375 -1 0.2500000000000002
v 1 -0.0625 2.220446049250313e-16
v 1 -0.25 2.220446049250313e-16
v -1 -0.0625 2.220446049250313e-16
v -1 -0.25 2.220446049250313e-16
v -1 -0.0625 1.0000000000000002
v 1 -0.0625 1.0000000000000002
v 1 -0.25 1.0000000000000002
v -1 -0.25 1.0000000000000002
v 0.9312499999999999 0.4375 1
v 0.9312499999999999 0.4375 0
v 0.9312499999999999 -0.0625 1
v 0.9312499999999999 -0.0625 0
v 0.11874999999999991 0.4375 1
v 0.11874999999999991 0.4375 0
v 0.11874999999999991 -0.0625 1
v 0.11874999999999991 -0.0625 0
vt 0.796875 0.6875
vt 0.84375 0.6875
vt 0.84375 0.5
vt 0.796875 0.5
vt 0.796875 0.6875
vt 0.84375 0.6875
vt 0.84375 0.5
vt 0.796875 0.5
vt 0.84375 0.75
vt 0.890625 0.75
vt 0.890625 0.703125
vt 0.84375 0.703125
vt 0.84375 0.6875
vt 0.890625 0.6875
vt 0.890625 0.5
vt 0.84375 0.5
vt 0.84375 0.6875
vt 0.890625 0.6875
vt 0.890625 0.5
vt 0.84375 0.5
vt 0.84375 0.6875
vt 0.890625 0.6875
vt 0.890625 0.5
vt 0.84375 0.5
vt 0.84375 0.6875
vt 0.890625 0.6875
vt 0.890625 0.5
vt 0.84375 0.5
vt 0.84375 0.75
vt 0.890625 0.75
vt 0.890625 0.703125
vt 0.84375 0.703125
vt 0.796875 0.6875
vt 0.84375 0.6875
vt 0.84375 0.5
vt 0.796875 0.5
vt 0.796875 0.6875
vt 0.84375 0.6875
vt 0.84375 0.5
vt 0.796875 0.5
vt 0.796875 0.6875
vt 0.84375 0.6875
vt 0.84375 0.5
vt 0.796875 0.5
vt 0.796875 0.6875
vt 0.84375 0.6875
vt 0.84375 0.5
vt 0.796875 0.5
vt 0.84375 0.75
vt 0.890625 0.75
vt 0.890625 0.703125
vt 0.84375 0.703125
vt 0.84375 0.6875
vt 0.890625 0.6875
vt 0.890625 0.5
vt 0.84375 0.5
vt 0.84375 0.6875
vt 0.890625 0.6875
vt 0.890625 0.5
vt 0.84375 0.5
vt 0.796875 0.6875
vt 0.84375 0.6875
vt 0.84375 0.5
vt 0.796875 0.5
vt 0.796875 0.6875
vt 0.84375 0.6875
vt 0.84375 0.5
vt 0.796875 0.5
vt 0.84375 0.75
vt 0.890625 0.75
vt 0.890625 0.703125
vt 0.84375 0.703125
vt 0.84375 0.6875
vt 0.890625 0.6875
vt 0.890625 0.5
vt 0.84375 0.5
vt 0.84375 0.6875
vt 0.890625 0.6875
vt 0.890625 0.5
vt 0.84375 0.5
vt 0.796875 0.5
vt 0.796875 0.75
vt 0.84375 0.75
vt 0.84375 0.5
vt 0.796875 0.5
vt 0.796875 0.75
vt 0.84375 0.75
vt 0.84375 0.5
vt 0.5 0
vt 0 0
vt 0 0.25
vt 0.5 0.25
vt 0.5 0.25
vt 0 0.25
vt 0 0
vt 0.5 0
vt 0.75 0.25
vt 0.75 0.75
vt 0.796875 0.75
vt 0.796875 0.25
vt 0.796875 0.75
vt 0.75 0.75
vt 0.75 0.25
vt 0.796875 0.25
vt 0.359375 0.125
vt 0.359375 0.25
vt 0.109375 0.25
vt 0.109375 0.125
vt 0.359375 0.125
vt 0.359375 0.25
vt 0.109375 0.25
vt 0.109375 0.125
vt 0.734375 0
vt 0.734375 0.25
vt 0.515625 0.25
vt 0.515625 0
vt 0.5625 0.0625
vt 0.5625 0.1875
vt 0.359375 0.1875
vt 0.359375 0.0625
vt 0.5625 0.0625
vt 0.5625 0.1875
vt 0.359375 0.1875
vt 0.359375 0.0625
vn 1 0 0
vn -1 0 0
vn 0 -1 0
vn 0 0 -1
vn 0 0 1
vn 1 0 0
vn -1 0 0
vn 0 -1 0
vn 0 0 -1
vn 0 0 1
vn 1 0 0
vn -1 0 0
vn 0 -1 0
vn 0 0 -1
vn 0 0 1
vn 1 0 0
vn -1 0 0
vn 0 -1 0
vn 0 0 -1
vn 0 0 1
vn 1 0 0
vn -1 0 0
vn 0 1 0
vn 0 -1 0
vn 0 0 -1
vn 0 0 1
vn 1 0 0
vn -1 0 0
vn 0 1 0
vn 0 0 1
vn 0 0 -1
usemtl common_table_steel
f 1/1/1 2/2/1 4/3/1
f 1/1/1 4/3/1 3/4/1
f 6/5/2 5/6/2 7/7/2
f 6/5/2 7/7/2 8/8/2
f 7/9/3 3/10/3 4/11/3
f 7/9/3 4/11/3 8/12/3
f 5/13/4 1/14/4 3/15/4
f 5/13/4 3/15/4 7/16/4
f 2/17/5 6/18/5 8/19/5
f 2/17/5 8/19/5 4/20/5
f 9/21/6 10/22/6 12/23/6
f 9/21/6 12/23/6 11/24/6
f 14/25/7 13/26/7 15/27/7
f 14/25/7 15/27/7 16/28/7
f 15/29/8 11/30/8 12/31/8
f 15/29/8 12/31/8 16/32/8
f 13/33/9 9/34/9 11/35/9
f 13/33/9 11/35/9 15/36/9
f 10/37/10 14/38/10 16/39/10
f 10/37/10 16/39/10 12/40/10
f 17/41/11 18/42/11 20/43/11
f 17/41/11 20/43/11 19/44/11
f 22/45/12 21/46/12 23/47/12
f 22/45/12 23/47/12 24/48/12
f 23/49/13 19/50/13 20/51/13
f 23/49/13 20/51/13 24/52/13
f 21/53/14 17/54/14 19/55/14
f 21/53/14 19/55/14 23/56/14
f 18/57/15 22/58/15 24/59/15
f 18/57/15 24/59/15 20/60/15
f 25/61/16 26/62/16 28/63/16
f 25/61/16 28/63/16 27/64/16
f 30/65/17 29/66/17 31/67/17
f 30/65/17 31/67/17 32/68/17
f 31/69/18 27/70/18 28/71/18
f 31/69/18 28/71/18 32/72/18
f 29/73/19 25/74/19 27/75/19
f 29/73/19 27/75/19 31/76/19
f 26/77/20 30/78/20 32/79/20
f 26/77/20 32/79/20 28/80/20
f 33/81/21 38/82/21 39/83/21
f 33/81/21 39/83/21 34/84/21
f 37/85/22 35/86/22 36/87/22
f 37/85/22 36/87/22 40/88/22
f 37/89/23 38/90/23 33/91/23
f 37/89/23 33/91/23 35/92/23
f 36/93/24 34/94/24 39/95/24
f 36/93/24 39/95/24 40/96/24
f 35/97/25 33/98/25 34/99/25
f 35/97/25 34/99/25 36/100/25
f 39/101/26 38/102/26 37/103/26
f 39/101/26 37/103/26 40/104/26
usemtl fuel_station
f 44/105/27 42/106/27 41/107/27
f 44/105/27 41/107/27 43/108/27
f 47/109/28 45/110/28 46/111/28
f 47/109/28 46/111/28 48/112/28
usemtl common_steel_norivets
f 41/113/29 42/114/29 46/115/29
f 41/113/29 46/115/29 45/116/29
usemtl fuel_station
f 43/117/30 41/118/30 45/119/30
f 43/117/30 45/119/30 47/120/30
f 48/121/31 46/122/31 42/123/31
f 48/121/31 42/123/31 44/124/31