# Made by Pabilo8 with Blockbench
# Exported with IIToolkit Plugin
mtllib fuel_station.mtl


o variant_naval
v 0.125 -0.25 1
v 0.125 -0.5 1
v -0.125 -0.25 1
v -0.125 -0.5 1
v -0.75 -0.25 1
v -0.75 -0.5 1
v -1 -0.25 1
v -1 -0.5 1
v 1 -0.25 1
v 1 -0.5 1
v 0.75 -0.25 1
v 0.75 -0.5 1
v 1 -0.25 0
v 1 -0.5 0
v 0.75 -0.25 0
v 0.75 -0.5 0
v 0.125 -0.25 0
v 0.125 -0.5 0
v -0.125 -0.25 0
v -0.125 -0.5 0
v -0.75 -0.25 0
v -0.75 -0.5 0
v -1 -0.25 0
v -1 -0.5 0
v 1.0062500000000003 -0.25 0.5000000000000002
v -1.0062499999999999 -0.25 0.4999999999999998
v 1.0062500000000003 -0.5 0.5000000000000002
v -1.0031249999999998 -0.5 0.5
v 1.0062500000000003 -0.25 0.7500000000000002
v -1.0062499999999999 -0.25 0.7499999999999998
v 1.0062500000000003 -0.5 0.7500000000000002
v -1.0062499999999999 -0.5 0.7499999999999998
v 1 0 1
v 1 0 0
v -1 0 1
v -1 0 0
v 0 0 0
v 0 0 1
v 0 -0.25 0
v 0 -0.25 1
v -0.9375 0 0.0625
v -0.0625 0 0.0625
v -0.0625 0 0.9375
v -0.9375 0 0.9375
v -0.0625 -0.0625 0.0625
v -0.9375 -0.0625 0.0625
v -0.0625 -0.0625 0.9375
v -0.9375 -0.0625 0.9375
v 1 -0.5 0.5
v 1 -1 1
v 1 -1 0.5
v -1 -1 1
v -1 -1 0.5
vt 0.8125 0.125
vt 0.75 0.125
vt 0.75 0.0625
vt 0.8125 0.0625
vt 0.8125 0.1875
vt 0.75 0.1875
vt 0.75 0.125
vt 0.8125 0.125
vt 0.8125 0.0625
vt 0.75 0.0625
vt 0.75 0
vt 0.8125 0
vt 0.75 0.0625
vt 0.5 0.0625
vt 0.5 0
vt 0.75 0
vt 0 0.0625
vt 0.25 0.0625
vt 0.25 0
vt 0 0
vt 0 0
vt 0.25 0
vt 0.25 0.0625
vt 0 0.0625
vt 0.75 0
vt 0.5 0
vt 0.5 0.0625
vt 0.75 0.0625
vt 0.8125 0
vt 0.8125 0.0625
vt 0.75 0.0625
vt 0.75 0
vt 0.75 0.125
vt 0.5 0.125
vt 0.5 0.0625
vt 0.75 0.0625
vt 0 0.125
vt 0.25 0.125
vt 0.25 0.0625
vt 0 0.0625
vt 0 0.0625
vt 0.25 0.0625
vt 0.25 0.125
vt 0 0.125
vt 0.75 0.0625
vt 0.5 0.0625
vt 0.5 0.125
vt 0.75 0.125
vt 0.8125 0.0625
vt 0.8125 0.125
vt 0.75 0.125
vt 0.75 0.0625
vt 0.75 0.1875
vt 0.5 0.1875
vt 0.5 0.125
vt 0.75 0.125
vt 0 0.1875
vt 0.25 0.1875
vt 0.25 0.125
vt 0 0.125
vt 0 0.125
vt 0.25 0.125
vt 0.25 0.1875
vt 0 0.1875
vt 0.75 0.125
vt 0.5 0.125
vt 0.5 0.1875
vt 0.75 0.1875
vt 0.8125 0.125
vt 0.8125 0.1875
vt 0.75 0.1875
vt 0.75 0.125
vt 0.75 0.0625
vt 0.25 0.0625
vt 0.25 0
vt 0.75 0
vt 0.75 0
vt 0.25 0
vt 0.25 0.0625
vt 0.75 0.0625
vt 0 0.0625
vt 0.5 0.0625
vt 0.5 0
vt 0 0
vt 0 0
vt 0.5 0
vt 0.5 0.0625
vt 0 0.0625
vt 1 0.25
vt 0.75 0.25
vt 0.75 0.1875
vt 1 0.1875
vt 0.25 0.1875
vt 0.5 0.1875
vt 0.5 0.25
vt 0.25 0.25
vt 0.875 1
vt 0.625 1
vt 0.625 0.75
vt 0.875 0.75
vt 1 0.25
vt 0.75 0.25
vt 0.75 0.1875
vt 1 0.1875
vt 0.25 0.1875
vt 0.5 0.1875
vt 0.5 0.25
vt 0.25 0.25
vt 0.75 0.25
vt 0.5 0.25
vt 0.5 0.1875
vt 0.75 0.1875
vt 0.5 0.1875
vt 0.75 0.1875
vt 0.75 0.25
vt 0.5 0.25
vt 0.625 0.75
vt 0.625 1
vt 0.875 1
vt 0.875 0.75
vt 0.875 1
vt 0.875 0.75
vt 0.625 0.75
vt 0.625 1
vt 0.625 0.75
vt 0.875 0.75
vt 0.859375 0.765625
vt 0.640625 0.765625
vt 0.875 0.75
vt 0.875 1
vt 0.859375 0.984375
vt 0.859375 0.765625
vt 0.875 1
vt 0.625 1
vt 0.640625 0.984375
vt 0.859375 0.984375
vt 0.640625 0.984375
vt 0.625 1
vt 0.625 0.75
vt 0.640625 0.765625
vt 0.859375 0.765625
vt 0.859375 0.984375
vt 0.640625 0.984375
vt 0.640625 0.765625
vt 0.6484375 0.7578125
vt 0.6484375 0.9765625
vt 0.6328125 0.9765625
vt 0.6328125 0.7578125
vt 0.640625 0.96875
vt 0.859375 0.96875
vt 0.859375 0.984375
vt 0.640625 0.984375
vt 0.828125 0.75
vt 0.828125 0.96875
vt 0.8125 0.96875
vt 0.8125 0.75
vt 0.640625 0.96875
vt 0.859375 0.96875
vt 0.859375 0.984375
vt 0.640625 0.984375
vt 0.3125 0.375
vt 0.3125 0.5
vt 0.1875 0.5
vt 0.1875 0.375
vt 0.3125 0.375
vt 0.3125 0.5
vt 0.1875 0.5
vt 0.1875 0.375
vt 0.5 0.5
vt 0.5 1
vt 0 1
vt 0 0.5
vt 0.5 0.625
vt 0.5 0.5
vt 0 0.5
vt 0 0.625
vt 0.5 0.375
vt 0.5 0.5
vt 0 0.5
vt 0 0.375
vt 0.5 0.375
vt 0.5 0.5
vt 0 0.5
vt 0 0.375
vn 0 0 1
vn 0 0 1
vn 0 0 1
vn 1 0 0
vn -1 0 0
vn 0 1 0
vn 0 -1 0
vn 0 0 -1
vn 1 0 0
vn -1 0 0
vn 0 1 0
vn 0 -1 0
vn 0 0 -1
vn 1 0 0
vn -1 0 0
vn 0 1 0
vn 0 -1 0
vn 0 0 -1
vn 0 1 0
vn -2.2066544588822984e-16 0 1
vn 0 -1 0
vn 1.1050431349301712e-16 -8.867971157814626e-16 -1
vn 1 0 0
vn -1 0 0
vn 0 1 0
vn 0 0 1
vn 0 0 -1
vn 0 0 -1
vn 0 0 1
vn 0 -1 0
vn 0 -1 0
vn 0 1 0
vn 0 1 0
vn 0 1 0
vn 0 1 0
vn 0 1 0
vn -1 0 0
vn 0 0 1
vn 1 0 0
vn 0 0 -1
vn 1 0 0
vn -0.9999804693221861 0 0.006249877933263308
vn 0 1 0
vn 0 -1 0
vn 0 0 1
vn 0 0 -1
usemtl common_wooden_pier
f 2/1/1 1/2/1 3/3/1
f 2/1/1 3/3/1 4/4/1
f 6/5/2 5/6/2 7/7/2
f 6/5/2 7/7/2 8/8/2
f 10/9/3 9/10/3 11/11/3
f 10/9/3 11/11/3 12/12/3
f 13/13/4 9/14/4 10/15/4
f 13/13/4 10/15/4 14/16/4
f 16/17/5 12/18/5 11/19/5
f 16/17/5 11/19/5 15/20/5
f 15/21/6 11/22/6 9/23/6
f 15/21/6 9/23/6 13/24/6
f 14/25/7 10/26/7 12/27/7
f 14/25/7 12/27/7 16/28/7
f 16/29/8 15/30/8 13/31/8
f 16/29/8 13/31/8 14/32/8
f 17/33/9 1/34/9 2/35/9
f 17/33/9 2/35/9 18/36/9
f 20/37/10 4/38/10 3/39/10
f 20/37/10 3/39/10 19/40/10
f 19/41/11 3/42/11 1/43/11
f 19/41/11 1/43/11 17/44/11
f 18/45/12 2/46/12 4/47/12
f 18/45/12 4/47/12 20/48/12
f 20/49/13 19/50/13 17/51/13
f 20/49/13 17/51/13 18/52/13
f 21/53/14 5/54/14 6/55/14
f 21/53/14 6/55/14 22/56/14
f 24/57/15 8/58/15 7/59/15
f 24/57/15 7/59/15 23/60/15
f 23/61/16 7/62/16 5/63/16
f 23/61/16 5/63/16 21/64/16
f 22/65/17 6/66/17 8/67/17
f 22/65/17 8/67/17 24/68/17
f 24/69/18 23/70/18 21/71/18
f 24/69/18 21/71/18 22/72/18
f 25/73/19 26/74/19 30/75/19
f 25/73/19 30/75/19 29/76/19
f 29/77/20 30/78/20 32/79/20
f 29/77/20 32/79/20 31/80/20
f 31/81/21 32/82/21 28/83/21
f 31/81/21 28/83/21 27/84/21
f 27/85/22 28/86/22 26/87/22
f 27/85/22 26/87/22 25/88/22
f 34/89/23 33/90/23 9/91/23
f 34/89/23 9/91/23 13/92/23
f 23/93/24 7/94/24 35/95/24
f 23/93/24 35/95/24 36/96/24
f 34/97/25 37/98/25 38/99/25
f 34/97/25 38/99/25 33/100/25
f 33/101/26 38/102/26 40/103/26
f 33/101/26 40/103/26 9/104/26
f 13/105/27 39/106/27 37/107/27
f 13/105/27 37/107/27 34/108/27
f 36/109/28 37/110/28 39/111/28
f 36/109/28 39/111/28 23/112/28
f 7/113/29 40/114/29 38/115/29
f 7/113/29 38/115/29 35/116/29
f 40/117/30 39/118/30 13/119/30
f 40/117/30 13/119/30 9/120/30
f 39/121/31 40/122/31 7/123/31
f 39/121/31 7/123/31 23/124/31
f 35/125/32 38/126/32 43/127/32
f 35/125/32 43/127/32 44/128/32
f 38/129/33 37/130/33 42/131/33
f 38/129/33 42/131/33 43/132/33
f 37/133/34 36/134/34 41/135/34
f 37/133/34 41/135/34 42/136/34
f 41/137/35 36/138/35 35/139/35
f 41/137/35 35/139/35 44/140/35
f 47/141/36 45/142/36 46/143/36
f 47/141/36 46/143/36 48/144/36
f 45/145/37 47/146/37 43/147/37
f 45/145/37 43/147/37 42/148/37
f 46/149/38 45/150/38 42/151/38
f 46/149/38 42/151/38 41/152/38
f 48/153/39 46/154/39 41/155/39
f 48/153/39 41/155/39 44/156/39
f 47/157/40 48/158/40 44/159/40
f 47/157/40 44/159/40 43/160/40
f 51/161/41 49/162/41 10/163/41
f 51/161/41 10/163/41 50/164/41
f 52/165/42 8/166/42 28/167/42
f 52/165/42 28/167/42 53/168/42
f 10/169/43 49/170/43 28/171/43
f 10/169/43 28/171/43 8/172/43
f 51/173/44 50/174/44 52/175/44
f 51/173/44 52/175/44 53/176/44
f 50/177/45 10/178/45 8/179/45
f 50/177/45 8/179/45 52/180/45
f 53/181/46 28/182/46 49/183/46
f 53/181/46 49/183/46 51/184/46