# Made by Pabilo8 with Blockbench
# Exported with IIToolkit Plugin
mtllib data_input_machine.mtl


o main
v 0 -0.1875 0.125
v 0 -0.1875 1
v 0 -0.4375 0.125
v 0 -0.4375 1
v -0.75 -0.1875 0.125
v -0.75 -0.1875 1
v -0.75 -0.4375 0.125
v -0.75 -0.4375 1
v 1 0 1
v -1 0 1
v 1 1 1
v 1 1 2
v 1 0 2
v -1 1 1
v -1 1 2
v -1 0 2
v 1 -1 1
v 1 -1 2
v -1 -1 1
v -1 -1 2
v 0 1 2
v 0 0 2
v 0 1 1
v 0 0 1
v 0 -1 1
v 0 -1 2
v 0.0625 2 1
v 0.0625 2 2
v 0.0625 1 1
v 0.0625 1 2
v -1 2 1
v -1 2 2
v 1 -0.125 1.125
v 1 -0.125 1.875
v 1 -0.875 1.125
v 1 -0.875 1.875
v 0.9375 -0.875 1.875
v 0.9375 -0.875 1.125
v 0.9375 -0.125 1.125
v 0.9375 -0.125 1.875
v -0.9375 -0.125 1.875
v -0.9375 -0.125 1.125
v -0.9375 -0.875 1.875
v -0.9375 -0.875 1.125
v -1 -0.125 1.125
v -1 -0.125 1.875
v -1 -0.875 1.875
v -1 -0.875 1.125
v -0.8749999999999991 1.9375000000000009 1.875
v -0.8749999999999991 1.9375000000000009 1.125
v -0.12500000000000044 1.9375 1.875
v -0.12500000000000044 1.9375 1.125
v -0.875 1.9999999999999991 1.125
v -0.875 1.9999999999999991 1.875
v -0.1250000000000009 2.000000000000001 1.875
v -8.881784197001252e-16 2 2
v -0.1250000000000009 2.000000000000001 1.125
v -8.881784197001252e-16 2 1
v 0.9375 2 1
v 0.9375 1.9375 1
v 0.9375 1.9375 2
v 0.0625 1.9375 1
v 0.0625 1.9375 2
v 0.9375 1.9375 1.9375
v 0.9375 1 1.9375
v 0.0625 1.9375 1.9375
v 0.0625 1 1.9375
v 1 2 1
v 1 2 2
v 0.9375 2 2
v 0.9375 1 1
v 0.9375 1 2
v -1 1.5 1.21875
v -1 1.5 1.78125
v -1 1.125 1.21875
v -1 1.125 1.78125
v -1.0625 1.5 1.21875
v -1.0625 1.5 1.78125
v -1.0625 1.125 1.21875
v -1.0625 1.125 1.78125
v 1.00625 -0.75 1.25
v 1.00625 -0.75 1.75
v 0.9437500000000001 -0.75 1.25
v 0.9437500000000001 -0.75 1.75
v 1.00625 -0.25 1.25
v 0.9437500000000001 -0.25 1.25
v 1.00625 -0.25 1.75
v 0.9437500000000001 -0.25 1.75
v -0.9437500000000001 -0.25 1.25
v -0.9437500000000001 -0.25 1.75
v -0.9437500000000001 -0.75 1.25
v -0.9437500000000001 -0.75 1.75
v -1.00625 -0.25 1.25
v -1.00625 -0.25 1.75
v -1.00625 -0.75 1.25
v -1.00625 -0.75 1.75
v 1.0046874999999993 -0.0625 1.375
v 0.9406249999999994 -0.0625 1.375
v 1.0046874999999993 -0.25 1.375
v 0.9406249999999994 -0.25 1.375
v 1.0046874999999993 -0.0625 1.625
v 1.0046874999999993 -0.25 1.625
v 0.9406249999999994 -0.0625 1.625
v 0.9406249999999994 -0.25 1.625
v -1.0046874999999995 -0.0625 1.375
v -0.9406249999999996 -0.0625 1.375
v -1.0046874999999995 -0.25 1.375
v -0.9406249999999996 -0.25 1.375
v -1.0046874999999995 -0.0625 1.625
v -1.0046874999999995 -0.25 1.625
v -0.9406249999999996 -0.0625 1.625
v -0.9406249999999996 -0.25 1.625
v 0.4375 0.625 0.9375
v 0.4375 0.5625 0.9375
v 0.4375 0.5625 1
v -0.0625 0.625 0.9375
v -0.0625 0.5625 0.9375
v -0.0625 0.5625 1
v 0.375 0.75 0.9375
v 0.375 0.75 1
v 0.4375 0.6875 0.9375
v 0.4375 0.6875 1
v 0 0.75 0.9375
v 0 0.75 1
v -0.0625 0.6875 0.9375
v -0.0625 0.6875 1
v 0 0.6875 0.9375
v 0 0.6875 1
v 0 0.625 0.9375
v 0 0.625 1
v 0.375 0.6875 0.9375
v 0.375 0.6875 1
v 0.375 0.625 0.9375
v 0.375 0.625 1
v 0.4375 0.625 0.9921875
v -0.0625 0.625 0.9921875
v 0.4375 0.6875 0.9921875
v -0.0625 0.6875 0.9921875
v 0.4375 0.375 0.9375
v 0.4375 0.3125 0.9375
v 0.4375 0.3125 1
v -0.0625 0.375 0.9375
v -0.0625 0.3125 0.9375
v -0.0625 0.3125 1
v 0.375 0.5 0.9375
v 0.375 0.5 1
v 0.4375 0.4375 0.9375
v 0.4375 0.4375 1
v 0 0.5 0.9375
v 0 0.5 1
v -0.0625 0.4375 0.9375
v -0.0625 0.4375 1
v 0 0.4375 0.9375
v 0 0.4375 1
v 0 0.375 0.9375
v 0 0.375 1
v 0.375 0.4375 0.9375
v 0.375 0.4375 1
v 0.375 0.375 0.9375
v 0.375 0.375 1
v 0.4375 0.375 0.9921875
v -0.0625 0.375 0.9921875
v 0.4375 0.4375 0.9921875
v -0.0625 0.4375 0.9921875
v 0.9375 0.9076131058551669 0.9687797430755669
v 0.9375 0.9048868941448331 1.031220256924433
v 0.9375 0.15832693966877365 0.936065202551565
v 0.9375 0.15560072795843993 0.9985057164004311
v 0.4375 0.9076131058551669 0.9687797430755669
v 0.4375 0.9048868941448331 1.031220256924433
v 0.4375 0.15832693966877365 0.936065202551565
v 0.4375 0.15560072795843993 0.9985057164004311
v 0.5937499999999996 1.8437499999999982 1.9375
v 0.625 1.8125 1.8125
v 0.5937499999999996 1.0312499999999996 1.9375
v 0.625 1.0625 1.8125
v 0.7187499999999996 1.8437499999999982 1.9375
v 0.6875 1.8125 1.8125
v 0.7187499999999996 1.0312499999999996 1.9375
v 0.6875 1.0625 1.8125
v 0.7812499999999996 1.8437499999999982 1.9375
v 0.8125 1.8125 1.8125
v 0.7812499999999996 1.0312499999999996 1.9375
v 0.8125 1.0625 1.8125
v 0.9062499999999996 1.8437499999999982 1.9375
v 0.875 1.8125 1.8125
v 0.9062499999999996 1.0312499999999996 1.9375
v 0.875 1.0625 1.8125
v 0.40624999999999956 1.8437499999999982 1.9375
v 0.4375 1.8125 1.8125
v 0.40624999999999956 1.0312499999999996 1.9375
v 0.4375 1.0625 1.8125
v 0.5312499999999996 1.8437499999999982 1.9375
v 0.5 1.8125 1.8125
v 0.5312499999999996 1.0312499999999996 1.9375
v 0.5 1.0625 1.8125
v 0.37547723993867144 1.7539392513184664 1.6963940795856933
v 0.41995917078798106 1.0650387811285293 1.1338940795856929
v 0.43959188201888577 1.8147817748601973 1.1338940795856933
v 0.41995917078798106 1.065038781128529 1.8838940795856929
v 0.43959188201888577 1.8147817748601964 1.8838940795856933
v 0.482437753598953 1.063402721859287 1.1338940795856929
v 0.5020704648298582 1.813145715590954 1.1338940795856933
v 0.482437753598953 1.063402721859287 1.8838940795856929
v 0.5020704648298582 1.813145715590954 1.8838940795856933
v 0.36566088432321897 1.3790677544526329 1.1963940795856933
v 0.37547723993867144 1.7539392513184664 1.1963940795856933
v 0.36566088432321897 1.3790677544526329 1.415144079585693
v 0.37547723993867144 1.7539392513184664 1.4151440795856933
v 0.4281394671341914 1.377431695183391 1.1963940795856933
v 0.4379558227496436 1.752303192049224 1.1963940795856933
v 0.4281394671341914 1.3774316951833905 1.415144079585693
v 0.4379558227496436 1.752303192049224 1.4151440795856933
v 0.36566088432321897 1.3790677544526329 1.446394079585693
v 0.37547723993867144 1.7539392513184664 1.4463940795856933
v 0.36566088432321897 1.3790677544526329 1.665144079585693
v 0.37547723993867144 1.7539392513184664 1.6651440795856933
v 0.4281394671341914 1.3774316951833905 1.446394079585693
v 0.4379558227496436 1.752303192049224 1.4463940795856933
v 0.4281394671341914 1.3774316951833905 1.665144079585693
v 0.4379558227496436 1.752303192049224 1.6651440795856933
v 0.3623887657847349 1.2541105888306876 1.696394079585693
v 0.36566088432321897 1.3790677544526329 1.696394079585693
v 0.3623887657847349 1.2541105888306876 1.8213940795856929
v 0.36566088432321897 1.3790677544526329 1.821394079585693
v 0.42486734859570685 1.2524745295614457 1.696394079585693
v 0.4281394671341914 1.3774316951833905 1.696394079585693
v 0.42486734859570685 1.2524745295614457 1.8213940795856929
v 0.4281394671341914 1.3774316951833905 1.821394079585693
v 0.3672969435924611 1.4415463372636044 1.696394079585693
v 0.3705690621309452 1.5665035028855492 1.6963940795856933
v 0.3672969435924611 1.4415463372636044 1.821394079585693
v 0.3705690621309452 1.5665035028855492 1.8213940795856933
v 0.4297755264034335 1.4399102779943624 1.696394079585693
v 0.4330476449419174 1.5648674436163077 1.6963940795856933
v 0.4297755264034335 1.4399102779943624 1.821394079585693
v 0.4330476449419174 1.5648674436163077 1.8213940795856933
v 0.37220512140018713 1.6289820856965216 1.6963940795856933
v 0.37220512140018713 1.6289820856965216 1.8213940795856933
v 0.37547723993867144 1.7539392513184655 1.8213940795856933
v 0.4346837042111593 1.6273460264272792 1.6963940795856933
v 0.4379558227496436 1.752303192049224 1.6963940795856933
v 0.4346837042111593 1.6273460264272792 1.8213940795856933
v 0.4379558227496436 1.752303192049224 1.8213940795856933
v 0.5627987814852697 1.7457606161874661 1.6963940795856933
v 0.6072807123345794 1.056860145997529 1.1338940795856929
v 0.6269134235654841 1.8066031397291962 1.1338940795856933
v 0.6072807123345794 1.0568601459975286 1.8838940795856929
v 0.6269134235654841 1.8066031397291962 1.8838940795856933
v 0.6697592951455513 1.0552240867282867 1.1338940795856929
v 0.6893920063764565 1.8049670804599538 1.1338940795856933
v 0.6697592951455513 1.0552240867282863 1.8838940795856929
v 0.6893920063764565 1.804967080459953 1.8838940795856933
v 0.5420775790284833 1.1211270639261683 1.1963940795856929
v 0.5518939346439358 1.4959985607920014 1.1963940795856933
v 0.5420775790284833 1.121127063926168 1.4151440795856929
v 0.5518939346439358 1.4959985607920014 1.415144079585693
v 0.6045561618394557 1.119491004656926 1.1963940795856929
v 0.614372517454908 1.4943625015227595 1.1963940795856933
v 0.6045561618394557 1.119491004656926 1.4151440795856929
v 0.614372517454908 1.4943625015227595 1.415144079585693
v 0.5420775790284833 1.121127063926168 1.4463940795856929
v 0.5518939346439358 1.4959985607920014 1.446394079585693
v 0.5420775790284833 1.121127063926168 1.6651440795856929
v 0.5518939346439358 1.4959985607920014 1.6651440795856933
v 0.6045561618394557 1.119491004656926 1.4463940795856929
v 0.614372517454908 1.4943625015227595 1.446394079585693
v 0.6045561618394557 1.1194910046569255 1.6651440795856929
v 0.614372517454908 1.494362501522759 1.6651440795856933
v 0.5497103073313332 1.2459319536996873 1.696394079585693
v 0.5529824258698173 1.3708891193216322 1.696394079585693
v 0.5497103073313332 1.245931953699687 1.8213940795856929
v 0.5529824258698173 1.3708891193216322 1.821394079585693
v 0.6121888901423054 1.2442958944304454 1.696394079585693
v 0.6154610086807897 1.3692530600523902 1.696394079585693
v 0.6121888901423054 1.2442958944304454 1.8213940795856929
v 0.6154610086807897 1.3692530600523898 1.821394079585693
v 0.5546184851390594 1.4333677021326041 1.696394079585693
v 0.5578906036775435 1.5583248677545498 1.6963940795856933
v 0.5546184851390594 1.4333677021326041 1.821394079585693
v 0.5578906036775435 1.558324867754549 1.821394079585693
v 0.6170970679500316 1.4317316428633622 1.696394079585693
v 0.6203691864885159 1.5566888084853074 1.6963940795856933
v 0.6170970679500316 1.4317316428633622 1.821394079585693
v 0.6203691864885159 1.5566888084853066 1.8213940795856933
v 0.5595266629467854 1.6208034505655213 1.6963940795856933
v 0.5595266629467854 1.6208034505655213 1.8213940795856933
v 0.5627987814852697 1.7457606161874661 1.8213940795856933
v 0.6220052457577576 1.619167391296279 1.6963940795856933
v 0.6252773642962419 1.7441245569182229 1.6963940795856933
v 0.6220052457577576 1.619167391296279 1.8213940795856933
v 0.6252773642962419 1.7441245569182229 1.8213940795856933
v 0.750120323031868 1.753206981056465 1.6963940795856933
v 0.7946022538811777 1.0643065108665284 1.1338940795856929
v 0.8142349651120824 1.814049504598196 1.1338940795856933
v 0.7946022538811777 1.064306510866528 1.8838940795856929
v 0.8142349651120824 1.814049504598195 1.8838940795856933
v 0.8570808366921496 1.062670451597286 1.1338940795856929
v 0.8767135479230546 1.8124134453289535 1.1338940795856933
v 0.8570808366921496 1.0626704515972856 1.8838940795856929
v 0.8767135479230546 1.8124134453289535 1.8838940795856933
v 0.7403039674164156 1.378335484190632 1.1963940795856933
v 0.750120323031868 1.753206981056465 1.1963940795856933
v 0.7403039674164156 1.378335484190632 1.415144079585693
v 0.750120323031868 1.753206981056465 1.4151440795856933
v 0.802782550227388 1.37669942492139 1.1963940795856933
v 0.8125989058428402 1.7515709217872235 1.1963940795856933
v 0.802782550227388 1.37669942492139 1.415144079585693
v 0.8125989058428402 1.7515709217872235 1.4151440795856933
v 0.7321253322854151 1.1910139426440338 1.4463940795856929
v 0.7419416879008676 1.5658854395098665 1.4463940795856933
v 0.7321253322854151 1.1910139426440334 1.665144079585693
v 0.7419416879008676 1.5658854395098665 1.6651440795856933
v 0.7946039150963875 1.1893778833747914 1.4463940795856929
v 0.8044202707118397 1.564249380240625 1.4463940795856933
v 0.7946039150963875 1.1893778833747914 1.665144079585693
v 0.8044202707118397 1.564249380240625 1.6651440795856933
v 0.7370318488779315 1.2533783185686866 1.696394079585693
v 0.7403039674164156 1.378335484190632 1.696394079585693
v 0.7370318488779315 1.2533783185686866 1.8213940795856929
v 0.7403039674164156 1.3783354841906315 1.821394079585693
v 0.7995104316889035 1.2517422592994447 1.696394079585693
v 0.802782550227388 1.3766994249213895 1.696394079585693
v 0.7995104316889035 1.2517422592994447 1.8213940795856929
v 0.802782550227388 1.3766994249213895 1.821394079585693
v 0.7419400266856577 1.4408140670016034 1.696394079585693
v 0.7452121452241418 1.5657712326235487 1.6963940795856933
v 0.7419400266856577 1.4408140670016034 1.821394079585693
v 0.7452121452241418 1.5657712326235487 1.821394079585693
v 0.8044186094966301 1.4391780077323615 1.696394079585693
v 0.8076907280351142 1.5641351733543072 1.6963940795856933
v 0.8044186094966301 1.4391780077323615 1.821394079585693
v 0.8076907280351142 1.5641351733543072 1.821394079585693
v 0.7468482044933837 1.6282498154345202 1.6963940795856933
v 0.7468482044933837 1.6282498154345202 1.8213940795856933
v 0.750120323031868 1.753206981056465 1.8213940795856933
v 0.8093267873043559 1.6266137561652787 1.6963940795856933
v 0.8125989058428402 1.7515709217872235 1.6963940795856933
v 0.8093267873043559 1.6266137561652787 1.8213940795856933
v 0.8125989058428402 1.7515709217872235 1.8213940795856933
v 0.125 1.8125 1.375
v 0.125 1.8125 1.875
v 0.125 1.6875 1.375
v 0.125 1.6875 1.875
v 0.0625 1.8125 1.375
v 0.0625 1.8125 1.875
v 0.0625 1.6875 1.375
v 0.0625 1.6875 1.875
v 0.4375 1.8125 1.875
v 0.4375 1.8125 1.9375
v 0.4375 1.6875 1.875
v 0.4375 1.6875 1.9375
v 0.0625 1.8125 1.9375
v 0.0625 1.6875 1.9375
v 0.125 1.625 1.375
v 0.125 1.625 1.875
v 0.125 1.5 1.375
v 0.125 1.5 1.875
v 0.0625 1.625 1.375
v 0.0625 1.625 1.875
v 0.0625 1.5 1.375
v 0.0625 1.5 1.875
v 0.4375 1.625 1.875
v 0.4375 1.625 1.9375
v 0.4375 1.5 1.875
v 0.4375 1.5 1.9375
v 0.0625 1.625 1.9375
v 0.0625 1.5 1.9375
v 0.125 1.4375 1.375
v 0.125 1.4375 1.875
v 0.125 1.3125 1.375
v 0.125 1.3125 1.875
v 0.0625 1.4375 1.375
v 0.0625 1.4375 1.875
v 0.0625 1.3125 1.375
v 0.0625 1.3125 1.875
v 0.4375 1.4375 1.875
v 0.4375 1.4375 1.9375
v 0.4375 1.3125 1.875
v 0.4375 1.3125 1.9375
v 0.0625 1.4375 1.9375
v 0.0625 1.3125 1.9375
v 0.03125 1.875 0.940625
v 0.03125 1.875 1.003125
v 0.03125 1.75 0.940625
v 0.03125 1.75 1.003125
v -0.03125 1.875 0.940625
v -0.03125 1.875 1.003125
v -0.03125 1.75 0.940625
v -0.03125 1.75 1.003125
v 0.9375 -0.1875 0.75
v 0.9375 -0.1875 0.9375
v 0.9375 -1 0.75
v 0.9375 -1 0.9375
v 0.75 -0.1875 0.75
v 0.75 -0.1875 0.9375
v 0.75 -1 0.75
v 0.75 -1 0.9375
v 0.9375 -0.1875 0.125
v 0.9375 -0.1875 0.3125
v 0.9375 -1 0.125
v 0.9375 -1 0.3125
v 0.75 -0.1875 0.125
v 0.75 -0.1875 0.3125
v 0.75 -1 0.125
v 0.75 -1 0.3125
v -0.75 -0.1875 0.75
v -0.75 -0.1875 0.9375
v -0.75 -1 0.75
v -0.75 -1 0.9375
v -0.9375 -0.1875 0.75
v -0.9375 -0.1875 0.9375
v -0.9375 -1 0.75
v -0.9375 -1 0.9375
v -0.75 -0.1875 0.0625
v -0.75 -0.1875 0.25
v -0.75 -1 0.0625
v -0.75 -1 0.25
v -0.9375 -0.1875 0.0625
v -0.9375 -0.1875 0.25
v -0.9375 -1 0.0625
v -0.9375 -1 0.25
v 1 0 0
v 1 -0.1875 0
v 1 -0.1875 1
v -1 0 0
v -1 -0.1875 0
v -1 -0.1875 1
v -0.03125 1.25 0.940625
v -0.03125 1.25 1.003125
v -0.03125 1.125 0.940625
v -0.03125 1.125 1.003125
v 0.03125 1.25 1.003125
v 0.03125 1.25 0.940625
v 0.03125 1.125 1.003125
v 0.03125 1.125 0.940625
v -0.71875 1 0.878125
v -0.71875 1 1.003125
v -0.71875 0.875 0.878125
v -0.71875 0.875 1.003125
v -0.65625 1 1.003125
v -0.65625 1 0.878125
v -0.65625 0.875 1.003125
v -0.65625 0.875 0.878125
v -0.46875 1 0.878125
v -0.46875 1 1.003125
v -0.46875 0.875 0.878125
v -0.46875 0.875 1.003125
v -0.40625 1 1.003125
v -0.40625 1 0.878125
v -0.40625 0.875 1.003125
v -0.40625 0.875 0.878125
v -0.453125 1.203125 0.9375
v -0.453125 1.203125 1
v -0.453125 1.015625 0.9375
v -0.453125 1.015625 1
v -0.640625 1.203125 0.9375
v -0.640625 1.203125 1
v -0.640625 1.015625 0.9375
v -0.640625 1.015625 1
v -0.6122721845404853 1.0430171570076756 0.7690256106845439
v -0.6122721845404855 1.1680171570076756 0.8002756106845433
v -0.48727218454048526 1.0430171570076756 0.7690256106845439
v -0.48727218454048526 1.168017157007676 0.8002756106845433
v -0.4868912175582889 1.1673845943266343 0.8940256106845434
v -0.6118912175582889 1.1673845943266343 0.8940256106845434
v -0.6118912175582889 1.0423845943266343 0.8940256106845439
v -0.4868912175582889 1.0423845943266343 0.8940256106845439
v -0.6115102505760925 1.041752031645593 0.9565256106845439
v -0.48651025057609243 1.166752031645593 0.9565256106845434
v -0.6115102505760925 1.166752031645593 0.9565256106845434
v -0.48651025057609243 1.041752031645593 0.9565256106845439
v -0.375 0.979212388907416 0.9465100433653757
v -0.375 0.7961568875724288 0.9059276157519814
v -0.375 1.0603772441342043 0.5803990406954005
v -0.375 0.877321742799217 0.5398166130820063
v -0.75 0.979212388907416 0.9465100433653757
v -0.75 0.7961568875724288 0.9059276157519814
v -0.75 1.0603772441342043 0.5803990406954005
v -0.75 0.877321742799217 0.5398166130820063
v -0.6875 0.8096843634435595 0.8449091153069856
v -0.4375 0.8096843634435595 0.8449091153069856
v -0.6875 0.8637942669280854 0.6008351135270023
v -0.4375 0.8637942669280854 0.6008351135270023
v -0.6875 0.8707028638885559 0.8584365911781171
v -0.4375 0.8707028638885559 0.8584365911781171
v -0.6875 0.9248127673730817 0.6143625893981337
v -0.4375 0.9248127673730817 0.6143625893981337
v -0.4375 1.0537583652235436 0.8990190187915114
v -0.4375 1.1078682687080694 0.6549450170115279
v -0.6875 1.0537583652235436 0.8990190187915114
v -0.6875 1.1078682687080694 0.6549450170115279
v -0.6875 0.8401936136660577 0.8516728532425514
v -0.4375 0.8401936136660577 0.8516728532425514
v -0.6875 0.8943035171505835 0.607598851462568
v -0.4375 0.8943035171505835 0.607598851462568
v -1 2 1
v -1 2 2
v -0.8749999999999991 1.9375000000000009 1.875
v -0.8749999999999991 1.9375000000000009 1.125
v -0.12500000000000044 1.9375 1.875
v -0.12500000000000044 1.9375 1.125
v -0.875 1.9999999999999991 1.125
v -0.875 1.9999999999999991 1.875
v -0.1250000000000009 2.000000000000001 1.875
v -8.881784197001252e-16 2 2
v -0.1250000000000009 2.000000000000001 1.125
v -8.881784197001252e-16 2 1
v -0.25 2.0062499999999996 1.25
v -0.25 2.0062499999999996 1.75
v -0.25 1.9437499999999996 1.25
v -0.25 1.9437499999999996 1.75
v -0.75 2.0062499999999996 1.25
v -0.75 2.0062499999999996 1.75
v -0.75 1.9437499999999996 1.25
v -0.75 1.9437499999999996 1.75
v -0.0625 0.9999999999999996 1
v -0.0625 2 1
v 0.125 0.25 0.9375
v 0.125 0.25 1
v 0.125 0.0625 0.9375
v 0.125 0.0625 1
v -0.0625 0.25 0.9375
v -0.0625 0.25 1
v -0.0625 0.0625 0.9375
v -0.0625 0.0625 1
v 0.125 0.25 0.6875
v 0.125 0.25 0.9375
v 0.125 0.0625 0.6875
v 0.125 0.0625 0.9375
v -0.0625 0.25 0.6875
v -0.0625 0.25 0.9375
v -0.0625 0.0625 0.6875
v -0.0625 0.0625 0.9375
v 0.125 0.1875 0.6875
v -0.0625 0.1875 0.6875
v 0 0.0625 0.6875
v 0 0.1875 0.6875
vt 0.765625 0.0625
vt 0.984375 0.0625
vt 0.984375 0
vt 0.765625 0
vt 0.78125 0.0625
vt 1 0.0625
vt 1 0
vt 0.78125 0
vt 0.765625 0.0625
vt 0.765625 0.25
vt 0.984375 0.25
vt 0.984375 0.0625
vt 0.796875 0.453125
vt 0.984375 0.453125
vt 0.984375 0.390625
vt 0.796875 0.390625
vt 0.75 0.5
vt 1 0.5
vt 1 0.25
vt 0.75 0.25
vt 0.75 0.5
vt 1 0.5
vt 1 0.25
vt 0.75 0.25
vt 0.25 0.5
vt 0.25 0.25
vt 0 0.25
vt 0 0.5
vt 0.75 0.25
vt 0.5 0.25
vt 0.5 0.5
vt 0.75 0.5
vt 1 0.5
vt 0.75 0.5
vt 0.75 0.25
vt 1 0.25
vt 0.5 0
vt 0.25 0
vt 0.25 0.25
vt 0.5 0.25
vt 0.25 0.25
vt 0.25 0
vt 0 0
vt 0 0.25
vt 0 0.5
vt 0.25 0.5
vt 0.25 0.25
vt 0 0.25
vt 1 0.25
vt 1 0
vt 0.75 0
vt 0.75 0.25
vt 0.5 0.25
vt 0.5 0.5
vt 0.75 0.5
vt 0.75 0.25
vt 1.3877787807814457e-17 0.25
vt 0.25 0.25
vt 0.25 0
vt 0 0
vt 0.75 0.75
vt 1 0.75
vt 1 1
vt 0.75 1
vt 0.25 0
vt 0.25 0.25
vt 0.5 0.25
vt 0.5 0
vt 0.75 0.25
vt 1 0.25
vt 1 0
vt 0.75 0
vt 0.75 1
vt 1 1
vt 1 0.75
vt 0.75 0.75
vt 0.484375 1
vt 0.75 1
vt 0.75 0.75
vt 0.484375 0.75
vt 0.78125 0.21875
vt 0.96875 0.21875
vt 0.96875 0.03125
vt 0.78125 0.03125
vt 1 0
vt 0.96875 0.03125
vt 0.96875 0.21875
vt 1 0.25
vt 1 0.25
vt 0.96875 0.21875
vt 0.78125 0.21875
vt 0.75 0.25
vt 0.75 0.25
vt 0.78125 0.21875
vt 0.78125 0.03125
vt 0.75 0
vt 0.75 0
vt 0.78125 0.03125
vt 0.96875 0.03125
vt 1 0
vt 0.96875 0.21875
vt 0.984375 0.21875
vt 0.984375 0.03125
vt 0.96875 0.03125
vt 0.96875 0.234375
vt 0.96875 0.21875
vt 0.78125 0.21875
vt 0.78125 0.234375
vt 0.765625 0.21875
vt 0.78125 0.21875
vt 0.78125 0.03125
vt 0.765625 0.03125
vt 0.78125 0.03125
vt 0.78125 0.015625
vt 0.96875 0.015625
vt 0.96875 0.03125
vt 0.96875 0.03125
vt 0.96875 0.21875
vt 0.78125 0.21875
vt 0.78125 0.03125
vt 0.96875 0.21875
vt 0.96875 0.03125
vt 1 0
vt 1 0.25
vt 0.78125 0.21875
vt 0.96875 0.21875
vt 1 0.25
vt 0.75 0.25
vt 0.78125 0.03125
vt 0.78125 0.21875
vt 0.75 0.25
vt 0.75 0
vt 0.96875 0.03125
vt 0.78125 0.03125
vt 0.75 0
vt 1 0
vt 0.984375 0.03125
vt 0.984375 0.21875
vt 0.96875 0.21875
vt 0.96875 0.03125
vt 0.78125 0.21875
vt 0.96875 0.21875
vt 0.96875 0.234375
vt 0.78125 0.234375
vt 0.78125 0.03125
vt 0.78125 0.21875
vt 0.765625 0.21875
vt 0.765625 0.03125
vt 0.96875 0.015625
vt 0.78125 0.015625
vt 0.78125 0.03125
vt 0.96875 0.03125
vt 0.71875 0.21875
vt 0.734375 0.21875
vt 0.734375 0.03125
vt 0.71875 0.03125
vt 0.71875 0.234375
vt 0.71875 0.21875
vt 0.53125 0.21875
vt 0.53125 0.234375
vt 0.515625 0.21875
vt 0.53125 0.21875
vt 0.53125 0.03125
vt 0.515625 0.03125
vt 0.53125 0.03125
vt 0.53125 0.015625
vt 0.71875 0.015625
vt 0.71875 0.03125
vt 0.75 0.25
vt 1 0.25
vt 1 0
vt 0.75 0
vt 0.78125 1
vt 1 1
vt 1 0.984375
vt 0.78125 0.984375
vt 0.75 0.25
vt 1 0.25
vt 1 0
vt 0.75 0
vt 0.75 1
vt 1 1
vt 1 0.75
vt 0.75 0.75
vt 0.984375 1
vt 1 1
vt 1 0.75
vt 0.984375 0.75
vt 0.75 0.25
vt 1 0.25
vt 1 0
vt 0.75 0
vt 0.234375 1
vt 0.234375 0.75
vt 0 0.75
vt 0 1
vt 0 0
vt 0 0.25
vt 0.25 0.25
vt 0.25 0
vt 0 0.34375
vt 0 0.375
vt 0.28125 0.375
vt 0.28125 0.34375
vt 0 0.1875
vt 0 0.21875
vt 0.28125 0.21875
vt 0.28125 0.1875
vt 0.25 0.375
vt 0.28125 0.375
vt 0.28125 0.1875
vt 0.25 0.1875
vt 0 0.375
vt 0.03125 0.375
vt 0.03125 0.1875
vt 0 0.1875
vt 0.734375 0.609375
vt 0.75 0.609375
vt 0.75 0.484375
vt 0.734375 0.484375
vt 0.734375 0.609375
vt 0.75 0.609375
vt 0.75 0.484375
vt 0.734375 0.484375
vt 0.640625 0.609375
vt 0.640625 0.484375
vt 0.625 0.484375
vt 0.625 0.609375
vt 0.625 0.484375
vt 0.625 0.609375
vt 0.640625 0.609375
vt 0.640625 0.484375
vt 0.75 0.484375
vt 0.75 0.609375
vt 0.875 0.609375
vt 0.875 0.484375
vt 0.625 0.609375
vt 0.75 0.609375
vt 0.75 0.484375
vt 0.625 0.484375
vt 0.765625 0.609375
vt 0.765625 0.484375
vt 0.75 0.484375
vt 0.75 0.609375
vt 0.75 0.609375
vt 0.765625 0.609375
vt 0.765625 0.484375
vt 0.75 0.484375
vt 0.75 0.609375
vt 0.765625 0.609375
vt 0.765625 0.484375
vt 0.75 0.484375
vt 0.75 0.484375
vt 0.75 0.609375
vt 0.765625 0.609375
vt 0.765625 0.484375
vt 0.0625 0.734375
vt 0.125 0.734375
vt 0.125 0.6875
vt 0.0625 0.6875
vt 0.0625 0.734375
vt 0.07851562499999998 0.734375
vt 0.07851562499999998 0.6875
vt 0.0625 0.6875
vt 0.109375 0.734375
vt 0.12539062499999998 0.734375
vt 0.12539062499999998 0.6875
vt 0.109375 0.6875
vt 0.0625 0.6875
vt 0.0625 0.734375
vt 0 0.734375
vt 0 0.6875
vt 0.016015624999999978 0.6875
vt 0.016015624999999978 0.734375
vt 0 0.734375
vt 0 0.6875
vt 0.06289062499999998 0.6875
vt 0.06289062499999998 0.734375
vt 0.046875 0.734375
vt 0.046875 0.6875
vt 0.625 0.09375
vt 0.75 0.09375
vt 0.75 0.078125
vt 0.625 0.078125
vt 0.625 0.09375
vt 0.75 0.09375
vt 0.75 0.078125
vt 0.625 0.078125
vt 0.734375 0.125
vt 0.75 0.125
vt 0.75 0.109375
vt 0.734375 0.109375
vt 0.625 0.125
vt 0.640625 0.125
vt 0.640625 0.109375
vt 0.625 0.109375
vt 0.640625 0.125
vt 0.734375 0.125
vt 0.734375 0.109375
vt 0.640625 0.109375
vt 0.640625 0.125
vt 0.734375 0.125
vt 0.75 0.109375
vt 0.625 0.109375
vt 0.625 0.125
vt 0.640625 0.125
vt 0.640625 0.109375
vt 0.625 0.109375
vt 0.625 0.109375
vt 0.640625 0.109375
vt 0.640625 0.09375
vt 0.625 0.09375
vt 0.625 0.125
vt 0.640625 0.125
vt 0.640625 0.109375
vt 0.625 0.109375
vt 0.734375 0.109375
vt 0.75 0.109375
vt 0.75 0.09375
vt 0.734375 0.09375
vt 0.625 0.109375
vt 0.640625 0.109375
vt 0.640625 0.078125
vt 0.625 0.078125
vt 0.625 0.125
vt 0.640625 0.125
vt 0.640625 0.09375
vt 0.625 0.09375
vt 0.640625 0.078125
vt 0.640625 0.09375
vt 0.734375 0.09375
vt 0.734375 0.078125
vt 0.734375 0.125
vt 0.734375 0.109375
vt 0.640625 0.109375
vt 0.640625 0.125
vt 0.625 0.09375
vt 0.625 0.109375
vt 0.75 0.109375
vt 0.75 0.09375
vt 0.5 0.09375
vt 0.625 0.09375
vt 0.625 0.078125
vt 0.5 0.078125
vt 0.5 0.09375
vt 0.625 0.09375
vt 0.625 0.078125
vt 0.5 0.078125
vt 0.609375 0.125
vt 0.625 0.125
vt 0.625 0.109375
vt 0.609375 0.109375
vt 0.5 0.125
vt 0.515625 0.125
vt 0.515625 0.109375
vt 0.5 0.109375
vt 0.515625 0.125
vt 0.609375 0.125
vt 0.609375 0.109375
vt 0.515625 0.109375
vt 0.515625 0.125
vt 0.609375 0.125
vt 0.625 0.109375
vt 0.5 0.109375
vt 0.5 0.125
vt 0.515625 0.125
vt 0.515625 0.109375
vt 0.5 0.109375
vt 0.5 0.109375
vt 0.515625 0.109375
vt 0.515625 0.09375
vt 0.5 0.09375
vt 0.5 0.125
vt 0.515625 0.125
vt 0.515625 0.109375
vt 0.5 0.109375
vt 0.609375 0.109375
vt 0.625 0.109375
vt 0.625 0.09375
vt 0.609375 0.09375
vt 0.5 0.109375
vt 0.515625 0.109375
vt 0.515625 0.078125
vt 0.5 0.078125
vt 0.5 0.125
vt 0.515625 0.125
vt 0.515625 0.09375
vt 0.5 0.09375
vt 0.515625 0.078125
vt 0.515625 0.09375
vt 0.609375 0.09375
vt 0.609375 0.078125
vt 0.609375 0.125
vt 0.609375 0.109375
vt 0.515625 0.109375
vt 0.515625 0.125
vt 0.5 0.09375
vt 0.5 0.109375
vt 0.625 0.109375
vt 0.625 0.09375
vt 0 1
vt 0.03125 1
vt 0.03125 0.625
vt 0 0.625
vt 0.28125 1
vt 0.3125 1
vt 0.3125 0.625
vt 0.28125 0.625
vt 0.03125 1
vt 0.28125 1
vt 0.28125 0.96875
vt 0.03125 0.96875
vt 0.03125 0.65625
vt 0.28125 0.65625
vt 0.28125 0.625
vt 0.03125 0.625
vt 0 1
vt 0.3125 1
vt 0.3125 0.625
vt 0 0.625
vt 0.03125 1
vt 0.28125 1
vt 0.28125 0.625
vt 0.03125 0.625
vt 0.75 1
vt 0.7822125 0.9921875
vt 0.7822125 0.8046875
vt 0.75 0.796875
vt 0.75 0.9921875
vt 0.7822109375 1
vt 0.7822109375 0.796875
vt 0.75 0.8046875
vt 0.7734375 0.9677890625000001
vt 0.7578125 0.9677890625000001
vt 0.75 1
vt 0.78125 1
vt 0.78125 0.9677875
vt 0.75 0.9677875
vt 0.7578125 1
vt 0.7734375 1
vt 0.75 1
vt 0.7822125 0.9921875
vt 0.7822125 0.8046875
vt 0.75 0.796875
vt 0.75 0.9921875
vt 0.7822125 1
vt 0.7822125 0.796875
vt 0.75 0.8046875
vt 0.7734375 0.9677890625000001
vt 0.7578125 0.9677890625000001
vt 0.75 1
vt 0.78125 1
vt 0.78125 0.9677875
vt 0.75 0.9677875
vt 0.7578125 1
vt 0.7734375 1
vt 0.75 1
vt 0.7822125 0.9921875
vt 0.7822125 0.8046875
vt 0.75 0.796875
vt 0.75 0.9921875
vt 0.7822109375 1
vt 0.7822109375 0.796875
vt 0.75 0.8046875
vt 0.7734375 0.9677890625000001
vt 0.7578125 0.9677890625000001
vt 0.75 1
vt 0.78125 1
vt 0.78125 0.9677875
vt 0.75 0.9677875
vt 0.7578125 1
vt 0.7734375 1
vt 0.75 0.25
vt 0.75 1
vt 0 1
vt 0 0.25
vt 0 0.25
vt 0 1
vt 0.75 1
vt 0.75 0.25
vt 0 1
vt 0.75 1
vt 0.75 0.9375
vt 0 0.9375
vt 0.75 0.3125
vt 0 0.3125
vt 0 0.25
vt 0.75 0.25
vt 0.046875000000000444 0.25
vt 0.046875000000000444 1
vt 0 1
vt 0 0.25
vt 0.75 0.25
vt 0.75 1
vt 0.7031249999999996 1
vt 0.7031249999999996 0.25
vt 1 0.625
vt 0.75 0.625
vt 0.75 1
vt 1 1
vt 0.7500000000000001 1
vt 0.7500000000000001 0.625
vt 0.8125000000000001 0.625
vt 0.8125000000000001 1
vt 1 0.625
vt 1 1
vt 0.9375 1
vt 0.9375 0.625
vt 1 0.9375
vt 0.75 0.9375
vt 0.75 1
vt 1 1
vt 1 0.625
vt 0.75 0.625
vt 0.75 0.6875
vt 1 0.6875
vt 1 0.25
vt 0.75 0.25
vt 0.75 0.625
vt 1 0.625
vt 0.8125 0.625
vt 0.8125 0.25
vt 0.75 0.25
vt 0.75 0.625
vt 1 0.25
vt 1 0.625
vt 0.9375 0.625
vt 0.9375 0.25
vt 1 0.5625
vt 0.75 0.5625
vt 0.75 0.625
vt 1 0.625
vt 1 0.25
vt 0.75 0.25
vt 0.75 0.3125
vt 1 0.3125
vt 0.75 0.125
vt 0.75 0.25
vt 0.625 0.25
vt 0.625 0.125
vt 0.625 0.25
vt 0.75 0.25
vt 0.75 0.1875
vt 0.625 0.1875
vt 0.75 0.1875
vt 0.625 0.1875
vt 0.625 0.125
vt 0.75 0.125
vt 0.625 0.125
vt 0.625 0.25
vt 0.6875 0.25
vt 0.6875 0.125
vt 0.6875 0.125
vt 0.6875 0.25
vt 0.75 0.25
vt 0.75 0.125
vt 0.875 0.125
vt 0.875 0.25
vt 0.75 0.25
vt 0.75 0.125
vt 0.75 0.25
vt 0.875 0.25
vt 0.875 0.1875
vt 0.75 0.1875
vt 0.875 0.1875
vt 0.75 0.1875
vt 0.75 0.125
vt 0.875 0.125
vt 0.75 0.125
vt 0.75 0.25
vt 0.8125 0.25
vt 0.8125 0.125
vt 0.8125 0.125
vt 0.8125 0.25
vt 0.875 0.25
vt 0.875 0.125
vt 1 0.125
vt 1 0.25
vt 0.875 0.25
vt 0.875 0.125
vt 0.875 0.25
vt 1 0.25
vt 1 0.1875
vt 0.875 0.1875
vt 1 0.1875
vt 0.875 0.1875
vt 0.875 0.125
vt 1 0.125
vt 0.875 0.125
vt 0.875 0.25
vt 0.9375 0.25
vt 0.9375 0.125
vt 0.9375 0.125
vt 0.9375 0.25
vt 1 0.25
vt 1 0.125
vt 0.75 0.25
vt 0.75 1
vt 0 1
vt 0 0.25
vt 0 0.25
vt 0 1
vt 0.75 1
vt 0.75 0.25
vt 0 1
vt 0.75 1
vt 0.75 0.9375
vt 0 0.9375
vt 0.75 0.3125
vt 0 0.3125
vt 0 0.25
vt 0.75 0.25
vt 0.046875000000000444 0.25
vt 0.046875000000000444 1
vt 0 1
vt 0 0.25
vt 0.75 0.25
vt 0.75 1
vt 0.7031249999999996 1
vt 0.7031249999999996 0.25
vt 1 0.625
vt 0.75 0.625
vt 0.75 1
vt 1 1
vt 0.7500000000000001 1
vt 0.7500000000000001 0.625
vt 0.8125000000000001 0.625
vt 0.8125000000000001 1
vt 1 0.625
vt 1 1
vt 0.9375 1
vt 0.9375 0.625
vt 1 0.9375
vt 0.75 0.9375
vt 0.75 1
vt 1 1
vt 1 0.625
vt 0.75 0.625
vt 0.75 0.6875
vt 1 0.6875
vt 1 0.25
vt 0.75 0.25
vt 0.75 0.625
vt 1 0.625
vt 0.8125 0.625
vt 0.8125 0.25
vt 0.75 0.25
vt 0.75 0.625
vt 1 0.25
vt 1 0.625
vt 0.9375 0.625
vt 0.9375 0.25
vt 1 0.5625
vt 0.75 0.5625
vt 0.75 0.625
vt 1 0.625
vt 1 0.25
vt 0.75 0.25
vt 0.75 0.3125
vt 1 0.3125
vt 0.75 0.125
vt 0.75 0.25
vt 0.625 0.25
vt 0.625 0.125
vt 0.625 0.25
vt 0.75 0.25
vt 0.75 0.1875
vt 0.625 0.1875
vt 0.75 0.1875
vt 0.625 0.1875
vt 0.625 0.125
vt 0.75 0.125
vt 0.625 0.125
vt 0.625 0.25
vt 0.6875 0.25
vt 0.6875 0.125
vt 0.6875 0.125
vt 0.6875 0.25
vt 0.75 0.25
vt 0.75 0.125
vt 0.875 0.125
vt 0.875 0.25
vt 0.75 0.25
vt 0.75 0.125
vt 0.75 0.25
vt 0.875 0.25
vt 0.875 0.1875
vt 0.75 0.1875
vt 0.875 0.1875
vt 0.75 0.1875
vt 0.75 0.125
vt 0.875 0.125
vt 0.75 0.125
vt 0.75 0.25
vt 0.8125 0.25
vt 0.8125 0.125
vt 0.8125 0.125
vt 0.8125 0.25
vt 0.875 0.25
vt 0.875 0.125
vt 1 0.125
vt 1 0.25
vt 0.875 0.25
vt 0.875 0.125
vt 0.875 0.25
vt 1 0.25
vt 1 0.1875
vt 0.875 0.1875
vt 1 0.1875
vt 0.875 0.1875
vt 0.875 0.125
vt 1 0.125
vt 0.875 0.125
vt 0.875 0.25
vt 0.9375 0.25
vt 0.9375 0.125
vt 0.9375 0.125
vt 0.9375 0.25
vt 1 0.25
vt 1 0.125
vt 0.75 0.25
vt 0.75 1
vt 0 1
vt 0 0.25
vt 0 0.25
vt 0 1
vt 0.75 1
vt 0.75 0.25
vt 0 1
vt 0.75 1
vt 0.75 0.9375
vt 0 0.9375
vt 0.75 0.3125
vt 0 0.3125
vt 0 0.25
vt 0.75 0.25
vt 0.046875000000000444 0.25
vt 0.046875000000000444 1
vt 0 1
vt 0 0.25
vt 0.75 0.25
vt 0.75 1
vt 0.7031249999999996 1
vt 0.7031249999999996 0.25
vt 1 0.625
vt 0.75 0.625
vt 0.75 1
vt 1 1
vt 0.7500000000000001 1
vt 0.7500000000000001 0.625
vt 0.8125000000000001 0.625
vt 0.8125000000000001 1
vt 1 0.625
vt 1 1
vt 0.9375 1
vt 0.9375 0.625
vt 1 0.9375
vt 0.75 0.9375
vt 0.75 1
vt 1 1
vt 1 0.625
vt 0.75 0.625
vt 0.75 0.6875
vt 1 0.6875
vt 1 0.25
vt 0.75 0.25
vt 0.75 0.625
vt 1 0.625
vt 0.8125 0.625
vt 0.8125 0.25
vt 0.75 0.25
vt 0.75 0.625
vt 1 0.25
vt 1 0.625
vt 0.9375 0.625
vt 0.9375 0.25
vt 1 0.5625
vt 0.75 0.5625
vt 0.75 0.625
vt 1 0.625
vt 1 0.25
vt 0.75 0.25
vt 0.75 0.3125
vt 1 0.3125
vt 0.75 0.125
vt 0.75 0.25
vt 0.625 0.25
vt 0.625 0.125
vt 0.625 0.25
vt 0.75 0.25
vt 0.75 0.1875
vt 0.625 0.1875
vt 0.75 0.1875
vt 0.625 0.1875
vt 0.625 0.125
vt 0.75 0.125
vt 0.625 0.125
vt 0.625 0.25
vt 0.6875 0.25
vt 0.6875 0.125
vt 0.6875 0.125
vt 0.6875 0.25
vt 0.75 0.25
vt 0.75 0.125
vt 0.875 0.125
vt 0.875 0.25
vt 0.75 0.25
vt 0.75 0.125
vt 0.75 0.25
vt 0.875 0.25
vt 0.875 0.1875
vt 0.75 0.1875
vt 0.875 0.1875
vt 0.75 0.1875
vt 0.75 0.125
vt 0.875 0.125
vt 0.75 0.125
vt 0.75 0.25
vt 0.8125 0.25
vt 0.8125 0.125
vt 0.8125 0.125
vt 0.8125 0.25
vt 0.875 0.25
vt 0.875 0.125
vt 1 0.125
vt 1 0.25
vt 0.875 0.25
vt 0.875 0.125
vt 0.875 0.25
vt 1 0.25
vt 1 0.1875
vt 0.875 0.1875
vt 1 0.1875
vt 0.875 0.1875
vt 0.875 0.125
vt 1 0.125
vt 0.875 0.125
vt 0.875 0.25
vt 0.9375 0.25
vt 0.9375 0.125
vt 0.9375 0.125
vt 0.9375 0.25
vt 1 0.25
vt 1 0.125
vt 0.5625 0.0625
vt 0.5625 0.5625
vt 0.6875 0.5625
vt 0.6875 0.0625
vt 0.5625 0.5625
vt 0.625 0.5625
vt 0.625 0.0625
vt 0.5625 0.0625
vt 0.5625 0.0625
vt 0.625 0.0625
vt 0.625 0.5625
vt 0.5625 0.5625
vt 0.5625 0.0625
vt 0.5625 0.125
vt 0.6875 0.125
vt 0.6875 0.0625
vt 0.5625 0.875
vt 0.5625 0.9375
vt 0.6875 0.9375
vt 0.6875 0.875
vt 0.5625 0.5625
vt 0.5625 0.9375
vt 0.625 0.9375
vt 0.625 0.5625
vt 0.5625 0.5625
vt 0.5625 0.9375
vt 0.625 0.9375
vt 0.625 0.5625
vt 0.5625 0.5625
vt 0.5625 0.9375
vt 0.6875 0.9375
vt 0.6875 0.5625
vt 0.5625 0.0625
vt 0.5625 0.5625
vt 0.6875 0.5625
vt 0.6875 0.0625
vt 0.5625 0.5625
vt 0.625 0.5625
vt 0.625 0.0625
vt 0.5625 0.0625
vt 0.5625 0.0625
vt 0.625 0.0625
vt 0.625 0.5625
vt 0.5625 0.5625
vt 0.5625 0.0625
vt 0.5625 0.125
vt 0.6875 0.125
vt 0.6875 0.0625
vt 0.5625 0.875
vt 0.5625 0.9375
vt 0.6875 0.9375
vt 0.6875 0.875
vt 0.5625 0.5625
vt 0.5625 0.9375
vt 0.625 0.9375
vt 0.625 0.5625
vt 0.5625 0.5625
vt 0.5625 0.9375
vt 0.625 0.9375
vt 0.625 0.5625
vt 0.5625 0.5625
vt 0.5625 0.9375
vt 0.6875 0.9375
vt 0.6875 0.5625
vt 0.5625 0.0625
vt 0.5625 0.5625
vt 0.6875 0.5625
vt 0.6875 0.0625
vt 0.5625 0.5625
vt 0.625 0.5625
vt 0.625 0.0625
vt 0.5625 0.0625
vt 0.5625 0.0625
vt 0.625 0.0625
vt 0.625 0.5625
vt 0.5625 0.5625
vt 0.5625 0.0625
vt 0.5625 0.125
vt 0.6875 0.125
vt 0.6875 0.0625
vt 0.5625 0.875
vt 0.5625 0.9375
vt 0.6875 0.9375
vt 0.6875 0.875
vt 0.5625 0.5625
vt 0.5625 0.9375
vt 0.625 0.9375
vt 0.625 0.5625
vt 0.5625 0.5625
vt 0.5625 0.9375
vt 0.625 0.9375
vt 0.625 0.5625
vt 0.5625 0.5625
vt 0.5625 0.9375
vt 0.6875 0.9375
vt 0.6875 0.5625
vt 0.6875 0.21875
vt 0.703125 0.21875
vt 0.703125 0.1875
vt 0.6875 0.1875
vt 0.6875 0.21875
vt 0.703125 0.21875
vt 0.703125 0.1875
vt 0.6875 0.1875
vt 0.6875 0.21875
vt 0.703125 0.21875
vt 0.703125 0.203125
vt 0.6875 0.203125
vt 0.6875 0.203125
vt 0.703125 0.203125
vt 0.703125 0.1875
vt 0.6875 0.1875
vt 0.6875 0.21875
vt 0.703125 0.21875
vt 0.703125 0.1875
vt 0.6875 0.1875
vt 0.796875 0.703125
vt 0.84375 0.703125
vt 0.84375 0.5
vt 0.796875 0.5
vt 0.796875 0.703125
vt 0.84375 0.703125
vt 0.84375 0.5
vt 0.796875 0.5
vt 0.84375 0.75
vt 0.890625 0.75
vt 0.890625 0.703125
vt 0.84375 0.703125
vt 0.84375 0.703125
vt 0.890625 0.703125
vt 0.890625 0.5
vt 0.84375 0.5
vt 0.84375 0.703125
vt 0.890625 0.703125
vt 0.890625 0.5
vt 0.84375 0.5
vt 0.84375 0.703125
vt 0.890625 0.703125
vt 0.890625 0.5
vt 0.84375 0.5
vt 0.84375 0.703125
vt 0.890625 0.703125
vt 0.890625 0.5
vt 0.84375 0.5
vt 0.84375 0.75
vt 0.890625 0.75
vt 0.890625 0.703125
vt 0.84375 0.703125
vt 0.796875 0.703125
vt 0.84375 0.703125
vt 0.84375 0.5
vt 0.796875 0.5
vt 0.796875 0.703125
vt 0.84375 0.703125
vt 0.84375 0.5
vt 0.796875 0.5
vt 0.796875 0.703125
vt 0.84375 0.703125
vt 0.84375 0.5
vt 0.796875 0.5
vt 0.796875 0.703125
vt 0.84375 0.703125
vt 0.84375 0.5
vt 0.796875 0.5
vt 0.84375 0.75
vt 0.890625 0.75
vt 0.890625 0.703125
vt 0.84375 0.703125
vt 0.84375 0.703125
vt 0.890625 0.703125
vt 0.890625 0.5
vt 0.84375 0.5
vt 0.84375 0.703125
vt 0.890625 0.703125
vt 0.890625 0.5
vt 0.84375 0.5
vt 0.796875 0.703125
vt 0.84375 0.703125
vt 0.84375 0.5
vt 0.796875 0.5
vt 0.796875 0.703125
vt 0.84375 0.703125
vt 0.84375 0.5
vt 0.796875 0.5
vt 0.84375 0.75
vt 0.890625 0.75
vt 0.890625 0.703125
vt 0.84375 0.703125
vt 0.84375 0.703125
vt 0.890625 0.703125
vt 0.890625 0.5
vt 0.84375 0.5
vt 0.84375 0.703125
vt 0.890625 0.703125
vt 0.890625 0.5
vt 0.84375 0.5
vt 0.796875 0.5
vt 0.796875 0.75
vt 0.84375 0.75
vt 0.84375 0.5
vt 0.796875 0.5
vt 0.796875 0.75
vt 0.84375 0.75
vt 0.84375 0.5
vt 0.5 0
vt 0 0
vt 0 0.25
vt 0.5 0.25
vt 0.5 0.25
vt 0 0.25
vt 0 0
vt 0.5 0
vt 0.75 0.25
vt 0.75 0.75
vt 0.796875 0.75
vt 0.796875 0.25
vt 0 0.1875
vt 0 0.375
vt 0.28125 0.375
vt 0.28125 0.1875
vt 0.6875 0.21875
vt 0.703125 0.21875
vt 0.703125 0.1875
vt 0.6875 0.1875
vt 0.6875 0.21875
vt 0.703125 0.21875
vt 0.703125 0.1875
vt 0.6875 0.1875
vt 0.6875 0.21875
vt 0.703125 0.21875
vt 0.703125 0.203125
vt 0.6875 0.203125
vt 0.6875 0.203125
vt 0.703125 0.203125
vt 0.703125 0.1875
vt 0.6875 0.1875
vt 0.6875 0.21875
vt 0.703125 0.21875
vt 0.703125 0.1875
vt 0.6875 0.1875
vt 0.6875 0.21875
vt 0.703125 0.21875
vt 0.703125 0.1875
vt 0.6875 0.1875
vt 0.6875 0.21875
vt 0.703125 0.21875
vt 0.703125 0.1875
vt 0.6875 0.1875
vt 0.6875 0.21875
vt 0.703125 0.21875
vt 0.703125 0.203125
vt 0.6875 0.203125
vt 0.6875 0.203125
vt 0.703125 0.203125
vt 0.703125 0.1875
vt 0.6875 0.1875
vt 0.6875 0.21875
vt 0.703125 0.21875
vt 0.703125 0.1875
vt 0.6875 0.1875
vt 0.6875 0.21875
vt 0.703125 0.21875
vt 0.703125 0.1875
vt 0.6875 0.1875
vt 0.6875 0.21875
vt 0.703125 0.21875
vt 0.703125 0.1875
vt 0.6875 0.1875
vt 0.6875 0.21875
vt 0.703125 0.21875
vt 0.703125 0.203125
vt 0.6875 0.203125
vt 0.6875 0.203125
vt 0.703125 0.203125
vt 0.703125 0.1875
vt 0.6875 0.1875
vt 0.6875 0.21875
vt 0.703125 0.21875
vt 0.703125 0.1875
vt 0.6875 0.1875
vt 0.71875 0.265625
vt 0.734375 0.265625
vt 0.734375 0.21875
vt 0.71875 0.21875
vt 0.6875 0.265625
vt 0.703125 0.265625
vt 0.703125 0.21875
vt 0.6875 0.21875
vt 0.6875 0.265625
vt 0.734375 0.265625
vt 0.734375 0.25
vt 0.6875 0.25
vt 0.6875 0.234375
vt 0.734375 0.234375
vt 0.734375 0.21875
vt 0.6875 0.21875
vt 0.6875 0.265625
vt 0.734375 0.265625
vt 0.734375 0.21875
vt 0.6875 0.21875
vt 0.6875 0.875
vt 0.6875 1
vt 0.5625 1
vt 0.5625 0.875
vt 0.6875 1
vt 0.5625 1
vt 0.5625 0.875
vt 0.6875 0.875
vt 1 0.125
vt 1 0.25
vt 0.875 0.25
vt 0.875 0.125
vt 0.875 0.125
vt 0.75 0.125
vt 0.75 0
vt 0.875 0
vt 0.6875 0.6875
vt 0.5625 0.6875
vt 0.5625 0.625
vt 0.6875 0.625
vt 0.6875 0.6875
vt 0.5625 0.6875
vt 0.5625 0.625
vt 0.6875 0.625
vt 0.5625 0.6875
vt 0.6875 0.6875
vt 0.6875 0.625
vt 0.5625 0.625
vt 0.5625 0.6875
vt 0.6875 0.6875
vt 0.6875 0.625
vt 0.5625 0.625
vt 0.6875 0.46875
vt 0.6875 0.375
vt 0.875 0.375
vt 0.875 0.46875
vt 0.375 0.375
vt 0.375 0.46875
vt 0.5625 0.46875
vt 0.5625 0.375
vt 0.53125 0.375
vt 0.71875 0.375
vt 0.71875 0.46875
vt 0.53125 0.46875
vt 0.53125 0.46875
vt 0.71875 0.46875
vt 0.71875 0.375
vt 0.53125 0.375
vt 0.71875 0.375
vt 0.84375 0.375
vt 0.84375 0.25
vt 0.71875 0.25
vt 0.71875 0.1875
vt 0.6875 0.21875
vt 0.6875 0.34375
vt 0.71875 0.375
vt 0.71875 0.375
vt 0.6875 0.34375
vt 0.5625 0.34375
vt 0.53125 0.375
vt 0.53125 0.375
vt 0.5625 0.34375
vt 0.5625 0.21875
vt 0.53125 0.1875
vt 0.53125 0.1875
vt 0.5625 0.21875
vt 0.6875 0.21875
vt 0.71875 0.1875
vt 0.6875 0.21875
vt 0.65625 0.21875
vt 0.65625 0.34375
vt 0.6875 0.34375
vt 0.5625 0.3125
vt 0.5625 0.34375
vt 0.6875 0.34375
vt 0.6875 0.3125
vt 0.5625 0.34375
vt 0.59375 0.34375
vt 0.59375 0.21875
vt 0.5625 0.21875
vt 0.6875 0.25
vt 0.6875 0.21875
vt 0.5625 0.21875
vt 0.5625 0.25
vt 0.717409375 0.498659375
vt 0.686159375 0.454465625
vt 0.873659375 0.454465625
vt 0.842409375 0.498659375
vt 0.3736593749999999 0.4544656250000001
vt 0.4049093749999999 0.498659375
vt 0.5299093749999999 0.4986593749999999
vt 0.5611593749999999 0.454465625
vt 0.53125 0.4558062500000002
vt 0.71875 0.4558062500000002
vt 0.6875 0.5
vt 0.5625 0.5
vt 0.5625 0.5
vt 0.6875 0.5
vt 0.71875 0.45580624999999997
vt 0.53125 0.45580624999999997
vt 0.5625 0.34375
vt 0.6875 0.34375
vt 0.6875 0.21875
vt 0.5625 0.21875
vt 0.71875 0.25
vt 0.84375 0.25
vt 0.84375 0.125
vt 0.71875 0.125
vt 0.53125 0.21875
vt 0.71875 0.21875
vt 0.71875 0.03125
vt 0.53125 0.03125
vt 0.75 0
vt 0.71875 0.03125
vt 0.71875 0.21875
vt 0.75 0.25
vt 0.75 0.25
vt 0.71875 0.21875
vt 0.53125 0.21875
vt 0.5 0.25
vt 0.5 0.25
vt 0.53125 0.21875
vt 0.53125 0.03125
vt 0.5 0
vt 0.5 0
vt 0.53125 0.03125
vt 0.71875 0.03125
vt 0.75 0
vt 0.125 0.484375
vt 0.109375 0.484375
vt 0.109375 0.609375
vt 0.125 0.609375
vt 0 0.609375
vt 0 0.484375
vt 0.015625 0.484375
vt 0.015625 0.609375
vt 0.125 0.609375
vt 0.125 0.484375
vt 0 0.484375
vt 0 0.609375
vt 0 0.5
vt 0.125 0.5
vt 0.125 0.484375
vt 0 0.484375
vt 0.125 0.59375
vt 0.125 0.609375
vt 0 0.609375
vt 0 0.59375
vt 0.71875 1
vt 0.75 1
vt 0.75 0.75
vt 0.71875 0.7499999999999999
vt 0 0.75
vt 0 1
vt 0.234375 1
vt 0.234375 0.7499999999999999
vt 0.828125 0.359375
vt 0.828125 0.34375
vt 0.78125 0.34375
vt 0.78125 0.359375
vt 0.828125 0.359375
vt 0.828125 0.34375
vt 0.78125 0.34375
vt 0.78125 0.359375
vt 0.78125 0.359375
vt 0.828125 0.359375
vt 0.828125 0.34375
vt 0.78125 0.34375
vt 0.78125 0.359375
vt 0.828125 0.359375
vt 0.828125 0.34375
vt 0.78125 0.34375
vt 0.78125 0.28125
vt 0.828125 0.28125
vt 0.828125 0.234375
vt 0.78125 0.234375
vt 0.78125 0.28125
vt 0.828125 0.28125
vt 0.828125 0.234375
vt 0.78125 0.234375
vt 0.875 0.875
vt 0.875 1
vt 0.96875 1
vt 0.96875 0.875
vt 0.875 0.875
vt 0.875 1
vt 0.96875 1
vt 0.96875 0.875
vt 0.875 1
vt 0.96875 1
vt 0.96875 0.875
vt 0.875 0.875
vt 0.875 1
vt 0.96875 1
vt 0.96875 0.875
vt 0.875 0.875
vt 0.875 0.875
vt 0.96875 0.875
vt 0.96875 0.78125
vt 0.875 0.78125
vt 0.59375 0.46875
vt 0.640625 0.46875
vt 0.640625 0.453125
vt 0.59375 0.453125
vt 0.640625 0.4375
vt 0.640625 0.40625
vt 0.609375 0.40625
vt 0.609375 0.4375
vt 0.59375 0.40625
vt 0.578125 0.40625
vt 0.578125 0.4375
vt 0.59375 0.4375
vn 1 0 0
vn -1 0 6.344131569286608e-17
vn 0 -1 0
vn 0 0 1
vn 1 0 0
vn -1 0 0
vn 0 0 -1
vn 0 0 1
vn 0 -1 0
vn 0 0 -1
vn 0 0 1
vn 0 0 1
vn 0 1 0
vn 0 0 -1
vn 0 0 -1
vn 0 -1 0
vn 0 0 1
vn 1 0 0
vn -1 0 0
vn 0 0 1
vn 1 0 0
vn 1 0 0
vn 1 0 0
vn 1 0 0
vn 1 0 0
vn 0 0 -1
vn 0 -1 0
vn 0 0 1
vn 0 1 0
vn -1 0 0
vn -1 0 0
vn -1 0 0
vn -1 0 0
vn -1 0 0
vn 0 0 -1
vn 0 -1 0
vn 0 0 1
vn 0 1 0
vn 0 0 -1
vn 1 1.4210854715202408e-14 0
vn 0 0 1
vn -1 -7.105427357600901e-15 0
vn 0 -1 0
vn 0 0 -1
vn 0 0 -1
vn 1 0 0
vn 0 0 -1
vn -1 0 0
vn 0 0 1
vn 0 1 0
vn 0 1 0
vn 0 -1 0
vn 0 0 -1
vn 0 0 1
vn 0 -1 0
vn 0 0 -1
vn 0 1 0
vn 0 0 1
vn 1 0 0
vn -1 0 0
vn 0 1 0
vn 0 -1 0
vn 0 0 -1
vn 0 0 1
vn 1 0 0
vn 0 0 -1
vn 0 0 1
vn -1 0 0
vn 0 0 -1
vn 0 0 1
vn 0 -1 0
vn 0 0 -1
vn 0.7071067811865476 0.7071067811865476 0
vn -0.7071067811865476 0.7071067811865476 0
vn 0 1 0
vn 0 0 -1
vn 1 0 0
vn 0 0 -1
vn -1 0 0
vn 0 0 -1
vn -1 0 0
vn 1 0 0
vn 0 1 0
vn 0 -1 0
vn 0 0 -1
vn 0 -1 0
vn 0 0 -1
vn 0.7071067811865476 0.7071067811865476 0
vn -0.7071067811865476 0.7071067811865476 0
vn 0 1 0
vn 0 0 -1
vn 1 0 0
vn 0 0 -1
vn -1 0 0
vn 0 0 -1
vn -1 0 0
vn 1 0 0
vn 0 1 0
vn 0 -1 0
vn 0 0 -1
vn 1 0 0
vn -1 0 0
vn 0 0.9990482215818577 0.043619387365339386
vn 0 -0.9990482215818576 -0.043619387365339456
vn 0 0.04361938736533589 -0.9990482215818578
vn 0 -0.043619387365336035 0.9990482215818578
vn -0.9701425001453311 0 -0.24253562503633622
vn 0.9701425001453329 0 -0.24253562503632978
vn 0 0.9701425001453352 -0.24253562503632
vn 0 -0.9701425001453311 -0.24253562503633622
vn -0.9701425001453311 0 -0.24253562503633622
vn 0.9701425001453329 0 -0.24253562503632978
vn 0 0.9701425001453352 -0.24253562503632
vn 0 -0.9701425001453311 -0.24253562503633622
vn -0.9701425001453311 0 -0.24253562503633622
vn 0.9701425001453329 0 -0.24253562503632978
vn 0 0.9701425001453352 -0.24253562503632
vn 0 -0.9701425001453311 -0.24253562503633622
vn -0.9996573249755575 0.02617694830787295 3.099973410754462e-17
vn 0.9996573249755573 -0.02617694830787357 0
vn 1.5499867053783675e-17 5.919160420922965e-16 -1
vn -1.549986705377118e-17 -5.91916042092297e-16 1
vn -0.02617694830787813 -0.9996573249755571 -5.919160420922966e-16
vn 0.026176948307892148 0.9996573249755568 0
vn -0.9996573249755575 0.02617694830787328 0
vn 0 0 -1
vn -1.5499867053775284e-17 -5.919160420922972e-16 1
vn -0.026176948307870842 -0.9996573249755574 0
vn 0.02617694830787804 0.9996573249755573 0
vn -0.9996573249755575 0.02617694830787328 0
vn 1.5499867053775336e-17 5.919160420922972e-16 -1
vn -1.5499867053775284e-17 -5.919160420922972e-16 1
vn -0.026176948307877947 -0.9996573249755573 0
vn 0.02617694830787804 0.9996573249755573 0
vn -0.9996573249755574 0.026176948307872528 0
vn 0 0 -1
vn -4.6499601161313294e-17 -1.7757481262768817e-15 1
vn -0.026176948307871033 -0.9996573249755574 0
vn 0.026176948307877944 0.9996573249755571 0
vn -0.9996573249755574 0.02617694830787262 0
vn 4.6499601161300685e-17 1.7757481262768884e-15 -1
vn -4.6499601161313134e-17 -1.7757481262768882e-15 1
vn -0.026176948307870845 -0.9996573249755574 0
vn 0.026176948307863837 0.9996573249755576 0
vn -0.9996573249755574 0.026176948307874398 1.85998404645278e-16
vn 0 0 -1
vn 0 0 1
vn -0.026176948307878038 -0.9996573249755571 0
vn 0.026176948307878038 0.9996573249755571 0
vn -0.9996573249755575 0.026176948307872983 0
vn 0.9996573249755573 -0.02617694830787357 -1.5499867053772677e-17
vn 1.5499867053775284e-17 5.919160420922972e-16 -1
vn -1.5499867053775385e-17 -5.919160420922969e-16 1
vn -0.02617694830787813 -0.9996573249755571 -5.919160420922966e-16
vn 0.026176948307877944 0.9996573249755571 1.1838320841845931e-15
vn -0.9996573249755575 0.026176948307873312 0
vn 3.09997341075423e-17 1.183832084184596e-15 -1
vn -1.549986705377108e-17 -5.919160420922973e-16 1
vn -0.026176948307877947 -0.9996573249755573 -2.0294264300307314e-15
vn 0.026176948307870936 0.9996573249755574 0
vn -0.9996573249755575 0.02617694830787328 0
vn 1.5499867053771136e-17 5.919160420922973e-16 -1
vn -3.099973410755057e-17 -1.1838320841845945e-15 1
vn -0.026176948307870842 -0.9996573249755574 0
vn 0.02617694830787094 0.9996573249755574 2.0294264300307295e-15
vn -0.9996573249755574 0.02617694830787262 0
vn 0 0 -1
vn -4.649960116130051e-17 -1.7757481262768819e-15 1
vn -0.02617694830787094 -0.9996573249755574 -3.5514962525537866e-15
vn 0.026176948307870845 0.9996573249755574 3.5514962525537803e-15
vn -0.9996573249755574 0.026176948307872434 1.8599840464526437e-16
vn 4.6499601161325417e-17 1.7757481262768752e-15 -1
vn 0 0 1
vn -0.026176948307870936 -0.9996573249755574 0
vn 0.026176948307877944 0.9996573249755571 7.102992505107559e-15
vn -0.9996573249755574 0.026176948307874398 0
vn 0 0 -1
vn 0 0 1
vn -0.026176948307878038 -0.9996573249755571 0
vn 0.026176948307892238 0.9996573249755568 0
vn -0.9996573249755575 0.02617694830787297 3.099973410754464e-17
vn 0.9996573249755575 -0.026176948307873264 -1.5499867053772495e-17
vn 1.549986705377533e-17 5.919160420922969e-16 -1
vn -1.5499867053775392e-17 -5.919160420922972e-16 1
vn -0.02617694830787813 -0.9996573249755571 -5.919160420922966e-16
vn 0.026176948307878038 0.9996573249755571 0
vn -0.9996573249755575 0.026176948307873312 0
vn 0 0 -1
vn -1.54998670537711e-17 -5.91916042092298e-16 1
vn -0.026176948307870842 -0.9996573249755574 0
vn 0.026176948307863837 0.9996573249755576 0
vn -0.9996573249755575 0.02617694830787334 0
vn 3.099973410753394e-17 1.1838320841845978e-15 -1
vn -1.54998670537711e-17 -5.91916042092298e-16 1
vn -0.02617694830787795 -0.9996573249755573 -2.0294264300307295e-15
vn 0.026176948307863837 0.9996573249755576 0
vn -0.9996573249755574 0.026176948307872528 9.299920232263236e-17
vn 0 0 -1
vn -4.649960116131346e-17 -1.775748126276888e-15 1
vn -0.026176948307871033 -0.9996573249755574 0
vn 0.026176948307877944 0.9996573249755571 0
vn -0.9996573249755574 0.026176948307872528 0
vn 4.649960116130036e-17 1.7757481262768823e-15 -1
vn 0 0 1
vn -0.026176948307870845 -0.9996573249755574 0
vn 0.026176948307863747 0.9996573249755576 0
vn -0.9996573249755574 0.026176948307874398 0
vn 0 0 -1
vn 0 0 1
vn -0.026176948307863837 -0.9996573249755576 0
vn 0.026176948307863837 0.9996573249755576 0
vn 1 0 0
vn 0 1 0
vn 0 -1 0
vn 0 0 -1
vn 1 0 0
vn 0 1 0
vn 0 -1 0
vn 0 0 -1
vn 1 0 0
vn 0 1 0
vn 0 -1 0
vn 0 0 -1
vn 1 0 0
vn 0 1 0
vn 0 -1 0
vn 0 0 -1
vn 1 0 0
vn 0 1 0
vn 0 -1 0
vn 0 0 -1
vn 1 0 0
vn 0 1 0
vn 0 -1 0
vn 0 0 -1
vn 1 0 0
vn -1 0 0
vn 0 1 0
vn 0 -1 0
vn 0 0 -1
vn 1 0 0
vn -1 0 0
vn 0 -1 0
vn 0 0 -1
vn 0 0 1
vn 1 0 0
vn -1 0 0
vn 0 -1 0
vn 0 0 -1
vn 0 0 1
vn 1 0 0
vn -1 0 0
vn 0 -1 0
vn 0 0 -1
vn 0 0 1
vn 1 0 0
vn -1 0 0
vn 0 -1 0
vn 0 0 -1
vn 0 0 1
vn 1 0 0
vn -1 0 0
vn 0 1 0
vn 0 -1 0
vn 0 0 -1
vn -1 0 0
vn 1 0 0
vn -1 0 0
vn 0 1 0
vn 0 -1 0
vn 0 0 -1
vn 1 0 0
vn -1 0 0
vn 0 1 0
vn 0 -1 0
vn 0 0 -1
vn 1 0 0
vn -1 0 0
vn 0 1 0
vn 0 -1 0
vn 0 0 -1
vn 1 0 0
vn -1 0 0
vn 0 1 0
vn 0 -1 0
vn 0 0 -1
vn -3.5526328101931603e-15 0.9999772375106347 0.0067471816782978845
vn 0 0.24253562503632892 -0.970142500145333
vn 0.9999950778798974 0.0007609674947848529 -0.0030438699791394764
vn -0.999991256980658 -0.0010141922965251305 0.0040567691860970406
vn 0 0.9999487865846725 0.010120484565535636
vn 0 -0.9999487865846725 -0.010120484565535636
vn 0.9999814231299481 -2.1655063450359143e-17 -0.006095358480357618
vn -0.9999814231299481 -4.224258966121638e-16 0.006095358480356725
vn 1 0 0
vn -1 0 0
vn 0 -0.21643961393810301 0.9762960071199335
vn 0 0.2164396139381024 -0.9762960071199335
vn 0 -0.9762960071199334 -0.21643961393810324
vn -3.275157922644211e-15 -0.9762960071199334 -0.21643961393810324
vn 0 -0.9762960071199355 -0.21643961393809327
vn 1.0214051826551439e-14 -0.9762960071199334 -0.21643961393810324
vn 0 -0.9762960071199327 -0.21643961393810646
vn 1 0 0
vn 0 0.21643961393810157 -0.9762960071199338
vn -1 0 0
vn 0 -0.21643961393810157 0.9762960071199338
vn 0.7071067811865497 0.6903455270798529 0.1530459187330299
vn -0.7071067811865493 0.690345527079853 0.15304591873303075
vn 0 0.5372996083468217 0.843391445812887
vn 0 0.8433914458128826 -0.5372996083468291
vn 0 0.9762960071199334 0.21643961393810315
vn 0 -0.9762960071199334 -0.21643961393810324
vn 1.1842378929335024e-15 1 0
vn -2.3684757858670032e-15 1 9.473903143468005e-15
vn 7.105427357601002e-15 1 0
vn -2.3684757858670032e-15 1 9.473903143468005e-15
vn 7.105427357601002e-15 1 0
vn 1 0 0
vn -1 0 0
vn 0 1 0
vn 0 0 -1
vn 0 0 1
vn 0 0 -1
vn 0 0 -1
vn 1 0 0
vn -1 0 0
vn 0 1 0
vn 0 -1 0
vn 0 0 -1
vn 0 0 1
vn 1 0 0
vn -1 0 0
vn 0 1 0
vn 0 -1 0
vn 0 0 1
vn 0 0 -1
vn 0 0 -1
vn 0 0 -1
usemtl common_table
f 1/1/1 2/2/1 4/3/1 3/4/1
f 6/5/2 5/6/2 7/7/2 8/8/2
f 7/9/3 3/10/3 4/11/3 8/12/3
f 2/13/4 6/14/4 8/15/4 4/16/4
usemtl common_steel
f 11/17/5 12/18/5 13/19/5 9/20/5
f 15/21/6 14/22/6 10/23/6 16/24/6
f 23/25/7 24/26/7 10/27/7 14/28/7
f 16/29/8 22/30/8 21/31/8 15/32/8
usemtl common_bottom
f 25/33/9 26/34/9 20/35/9 19/36/9
usemtl common_steel
f 17/37/10 25/38/10 24/39/10 9/40/10
f 26/41/11 22/42/11 16/43/11 20/44/11
f 12/45/12 21/46/12 22/47/12 13/48/12
usemtl common_wooden_base_light
f 23/49/13 21/50/13 12/51/13 11/52/13
usemtl common_steel
f 24/53/14 23/54/14 11/55/14 9/56/14
f 10/57/15 24/58/15 25/59/15 19/60/15
usemtl common_bottom
f 26/61/16 25/62/16 17/63/16 18/64/16
usemtl common_steel
f 22/65/17 26/66/17 18/67/17 13/68/17
f 27/69/18 28/70/18 30/71/18 29/72/18
f 32/73/19 31/74/19 14/75/19 15/76/19
f 28/77/20 32/78/20 15/79/20 30/80/20
f 39/81/21 40/82/21 37/83/21 38/84/21
f 18/85/22 36/86/22 34/87/22 13/88/22
f 13/89/23 34/90/23 33/91/23 9/92/23
f 9/93/24 33/94/24 35/95/24 17/96/24
f 17/97/25 35/98/25 36/99/25 18/100/25
f 36/101/26 37/102/26 40/103/26 34/104/26
f 34/105/27 40/106/27 39/107/27 33/108/27
f 33/109/28 39/110/28 38/111/28 35/112/28
f 35/113/29 38/114/29 37/115/29 36/116/29
f 43/117/30 41/118/30 42/119/30 44/120/30
f 46/121/31 47/122/31 20/123/31 16/124/31
f 45/125/32 46/126/32 16/127/32 10/128/32
f 48/129/33 45/130/33 10/131/33 19/132/33
f 47/133/34 48/134/34 19/135/34 20/136/34
f 41/137/35 43/138/35 47/139/35 46/140/35
f 42/141/36 41/142/36 46/143/36 45/144/36
f 44/145/37 42/146/37 45/147/37 48/148/37
f 43/149/38 44/150/38 48/151/38 47/152/38
usemtl common_bottom
f 55/153/39 51/154/39 49/155/39 54/156/39
f 54/157/40 49/158/40 50/159/40 53/160/40
f 53/161/41 50/162/41 52/163/41 57/164/41
f 57/165/42 52/166/42 51/167/42 55/168/42
usemtl common_wooden_base_light
f 62/169/43 60/170/43 61/171/43 63/172/43
usemtl common_steel
f 27/173/44 59/174/44 60/175/44 62/176/44
f 66/177/45 64/178/45 65/179/45 67/180/45
f 68/181/46 69/182/46 12/183/46 11/184/46
f 59/185/47 68/186/47 11/187/47 71/188/47
usemtl common_wooden_base_light
f 70/189/48 59/190/48 71/191/48 72/192/48
usemtl common_steel
f 28/193/49 30/194/49 12/195/49 69/196/49
f 69/197/50 68/198/50 58/199/50 56/200/50
usemtl data_input_machine
f 78/201/51 74/202/51 73/203/51 77/204/51
f 79/205/52 75/206/52 76/207/52 80/208/52
f 77/209/53 73/210/53 75/211/53 79/212/53
f 74/213/54 78/214/54 80/215/54 76/216/54
usemtl common_thingies
f 83/217/55 81/218/55 82/219/55 84/220/55
f 86/221/56 85/222/56 81/223/56 83/224/56
f 87/225/57 85/226/57 86/227/57 88/228/57
f 82/229/58 87/230/58 88/231/58 84/232/58
f 81/233/59 85/234/59 87/235/59 82/236/59
f 94/237/60 93/238/60 95/239/60 96/240/60
f 90/241/61 89/242/61 93/243/61 94/244/61
f 95/245/62 91/246/62 92/247/62 96/248/62
f 93/249/63 89/250/63 91/251/63 95/252/63
f 92/253/64 90/254/64 94/255/64 96/256/64
f 97/257/65 101/258/65 102/259/65 99/260/65
f 98/261/66 97/262/66 99/263/66 100/264/66
f 101/265/67 103/266/67 104/267/67 102/268/67
f 110/269/68 109/270/68 105/271/68 107/272/68
f 107/273/69 105/274/69 106/275/69 108/276/69
f 112/277/70 111/278/70 109/279/70 110/280/70
f 117/281/71 114/282/71 115/283/71 118/284/71
f 116/285/72 113/286/72 114/287/72 117/288/72
f 119/289/73 120/290/73 122/291/73 121/292/73
f 124/293/74 123/294/74 125/295/74 126/296/74
f 124/297/75 120/298/75 119/299/75 123/300/75
f 123/301/76 119/302/76 121/303/76 125/304/76
f 127/305/77 128/306/77 130/307/77 129/308/77
f 125/309/78 127/310/78 129/311/78 116/312/78
f 132/313/79 131/314/79 133/315/79 134/316/79
f 131/317/80 121/318/80 113/319/80 133/320/80
f 126/321/81 125/322/81 117/323/81 118/324/81
f 121/325/82 122/326/82 115/327/82 114/328/82
f 129/329/83 130/330/83 134/331/83 133/332/83
f 131/333/84 132/334/84 128/335/84 127/336/84
f 136/337/85 138/338/85 137/339/85 135/340/85
f 143/341/86 140/342/86 141/343/86 144/344/86
f 142/345/87 139/346/87 140/347/87 143/348/87
f 145/349/88 146/350/88 148/351/88 147/352/88
f 150/353/89 149/354/89 151/355/89 152/356/89
f 150/357/90 146/358/90 145/359/90 149/360/90
f 149/361/91 145/362/91 147/363/91 151/364/91
f 153/365/92 154/366/92 156/367/92 155/368/92
f 151/369/93 153/370/93 155/371/93 142/372/93
f 158/373/94 157/374/94 159/375/94 160/376/94
f 157/377/95 147/378/95 139/379/95 159/380/95
f 152/381/96 151/382/96 143/383/96 144/384/96
f 147/385/97 148/386/97 141/387/97 140/388/97
f 155/389/98 156/390/98 160/391/98 159/392/98
f 157/393/99 158/394/99 154/395/99 153/396/99
f 162/397/100 164/398/100 163/399/100 161/400/100
usemtl data_input_machine
f 165/401/101 166/402/101 168/403/101 167/404/101
f 170/405/102 169/406/102 171/407/102 172/408/102
f 170/409/103 166/410/103 165/411/103 169/412/103
f 171/413/104 167/414/104 168/415/104 172/416/104
f 169/417/105 165/418/105 167/419/105 171/420/105
f 166/421/106 170/422/106 172/423/106 168/424/106
usemtl circuit_basic
f 173/425/107 174/426/107 176/427/107 175/428/107
f 178/429/108 177/430/108 179/431/108 180/432/108
f 178/433/109 174/434/109 173/435/109 177/436/109
f 179/437/110 175/438/110 176/439/110 180/440/110
f 181/441/111 182/442/111 184/443/111 183/444/111
f 186/445/112 185/446/112 187/447/112 188/448/112
f 186/449/113 182/450/113 181/451/113 185/452/113
f 187/453/114 183/454/114 184/455/114 188/456/114
f 189/457/115 190/458/115 192/459/115 191/460/115
f 194/461/116 193/462/116 195/463/116 196/464/116
f 194/465/117 190/466/117 189/467/117 193/468/117
f 195/469/118 191/470/118 192/471/118 196/472/118
f 201/473/119 199/474/119 198/475/119 200/476/119
f 204/477/120 202/478/120 203/479/120 205/480/120
f 198/481/121 199/482/121 203/483/121 202/484/121
f 201/485/122 200/486/122 204/487/122 205/488/122
f 200/489/123 198/490/123 202/491/123 204/492/123
f 205/493/124 203/494/124 199/495/124 201/496/124
f 209/497/125 207/498/125 206/499/125 208/500/125
f 206/501/126 207/502/126 211/503/126 210/504/126
f 209/505/127 208/506/127 212/507/127 213/508/127
f 208/509/128 206/510/128 210/511/128 212/512/128
f 213/513/129 211/514/129 207/515/129 209/516/129
f 217/517/130 215/518/130 214/519/130 216/520/130
f 214/521/131 215/522/131 219/523/131 218/524/131
f 217/525/132 216/526/132 220/527/132 221/528/132
f 216/529/133 214/530/133 218/531/133 220/532/133
f 221/533/134 219/534/134 215/535/134 217/536/134
f 225/537/135 223/538/135 222/539/135 224/540/135
f 222/541/136 223/542/136 227/543/136 226/544/136
f 225/545/137 224/546/137 228/547/137 229/548/137
f 224/549/138 222/550/138 226/551/138 228/552/138
f 229/553/139 227/554/139 223/555/139 225/556/139
f 233/557/140 231/558/140 230/559/140 232/560/140
f 230/561/141 231/562/141 235/563/141 234/564/141
f 233/565/142 232/566/142 236/567/142 237/568/142
f 232/569/143 230/570/143 234/571/143 236/572/143
f 237/573/144 235/574/144 231/575/144 233/576/144
f 240/577/145 197/578/145 238/579/145 239/580/145
f 238/581/146 197/582/146 242/583/146 241/584/146
f 240/585/147 239/586/147 243/587/147 244/588/147
f 239/589/148 238/590/148 241/591/148 243/592/148
f 244/593/149 242/594/149 197/595/149 240/596/149
f 249/597/150 247/598/150 246/599/150 248/600/150
f 252/601/151 250/602/151 251/603/151 253/604/151
f 246/605/152 247/606/152 251/607/152 250/608/152
f 249/609/153 248/610/153 252/611/153 253/612/153
f 248/613/154 246/614/154 250/615/154 252/616/154
f 253/617/155 251/618/155 247/619/155 249/620/155
f 257/621/156 255/622/156 254/623/156 256/624/156
f 254/625/157 255/626/157 259/627/157 258/628/157
f 257/629/158 256/630/158 260/631/158 261/632/158
f 256/633/159 254/634/159 258/635/159 260/636/159
f 261/637/160 259/638/160 255/639/160 257/640/160
f 265/641/161 263/642/161 262/643/161 264/644/161
f 262/645/162 263/646/162 267/647/162 266/648/162
f 265/649/163 264/650/163 268/651/163 269/652/163
f 264/653/164 262/654/164 266/655/164 268/656/164
f 269/657/165 267/658/165 263/659/165 265/660/165
f 273/661/166 271/662/166 270/663/166 272/664/166
f 270/665/167 271/666/167 275/667/167 274/668/167
f 273/669/168 272/670/168 276/671/168 277/672/168
f 272/673/169 270/674/169 274/675/169 276/676/169
f 277/677/170 275/678/170 271/679/170 273/680/170
f 281/681/171 279/682/171 278/683/171 280/684/171
f 278/685/172 279/686/172 283/687/172 282/688/172
f 281/689/173 280/690/173 284/691/173 285/692/173
f 280/693/174 278/694/174 282/695/174 284/696/174
f 285/697/175 283/698/175 279/699/175 281/700/175
f 288/701/176 245/702/176 286/703/176 287/704/176
f 286/705/177 245/706/177 290/707/177 289/708/177
f 288/709/178 287/710/178 291/711/178 292/712/178
f 287/713/179 286/714/179 289/715/179 291/716/179
f 292/717/180 290/718/180 245/719/180 288/720/180
f 297/721/181 295/722/181 294/723/181 296/724/181
f 300/725/182 298/726/182 299/727/182 301/728/182
f 294/729/183 295/730/183 299/731/183 298/732/183
f 297/733/184 296/734/184 300/735/184 301/736/184
f 296/737/185 294/738/185 298/739/185 300/740/185
f 301/741/186 299/742/186 295/743/186 297/744/186
f 305/745/187 303/746/187 302/747/187 304/748/187
f 302/749/188 303/750/188 307/751/188 306/752/188
f 305/753/189 304/754/189 308/755/189 309/756/189
f 304/757/190 302/758/190 306/759/190 308/760/190
f 309/761/191 307/762/191 303/763/191 305/764/191
f 313/765/192 311/766/192 310/767/192 312/768/192
f 310/769/193 311/770/193 315/771/193 314/772/193
f 313/773/194 312/774/194 316/775/194 317/776/194
f 312/777/195 310/778/195 314/779/195 316/780/195
f 317/781/196 315/782/196 311/783/196 313/784/196
f 321/785/197 319/786/197 318/787/197 320/788/197
f 318/789/198 319/790/198 323/791/198 322/792/198
f 321/793/199 320/794/199 324/795/199 325/796/199
f 320/797/200 318/798/200 322/799/200 324/800/200
f 325/801/201 323/802/201 319/803/201 321/804/201
f 329/805/202 327/806/202 326/807/202 328/808/202
f 326/809/203 327/810/203 331/811/203 330/812/203
f 329/813/204 328/814/204 332/815/204 333/816/204
f 328/817/205 326/818/205 330/819/205 332/820/205
f 333/821/206 331/822/206 327/823/206 329/824/206
f 336/825/207 293/826/207 334/827/207 335/828/207
f 334/829/208 293/830/208 338/831/208 337/832/208
f 336/833/209 335/834/209 339/835/209 340/836/209
f 335/837/210 334/838/210 337/839/210 339/840/210
f 340/841/211 338/842/211 293/843/211 336/844/211
usemtl common_copper_cable
f 341/845/212 342/846/212 344/847/212 343/848/212
f 346/849/213 342/850/213 341/851/213 345/852/213
f 347/853/214 343/854/214 344/855/214 348/856/214
f 345/857/215 341/858/215 343/859/215 347/860/215
f 349/861/216 350/862/216 352/863/216 351/864/216
f 353/865/217 350/866/217 349/867/217 346/868/217
f 348/869/218 351/870/218 352/871/218 354/872/218
f 346/873/219 349/874/219 351/875/219 348/876/219
f 355/877/220 356/878/220 358/879/220 357/880/220
f 360/881/221 356/882/221 355/883/221 359/884/221
f 361/885/222 357/886/222 358/887/222 362/888/222
f 359/889/223 355/890/223 357/891/223 361/892/223
f 363/893/224 364/894/224 366/895/224 365/896/224
f 367/897/225 364/898/225 363/899/225 360/900/225
f 362/901/226 365/902/226 366/903/226 368/904/226
f 360/905/227 363/906/227 365/907/227 362/908/227
f 369/909/228 370/910/228 372/911/228 371/912/228
f 374/913/229 370/914/229 369/915/229 373/916/229
f 375/917/230 371/918/230 372/919/230 376/920/230
f 373/921/231 369/922/231 371/923/231 375/924/231
f 377/925/232 378/926/232 380/927/232 379/928/232
f 381/929/233 378/930/233 377/931/233 374/932/233
f 376/933/234 379/934/234 380/935/234 382/936/234
f 374/937/235 377/938/235 379/939/235 376/940/235
usemtl common_steel
f 383/941/236 384/942/236 386/943/236 385/944/236
f 388/945/237 387/946/237 389/947/237 390/948/237
f 388/949/238 384/950/238 383/951/238 387/952/238
f 389/953/239 385/954/239 386/955/239 390/956/239
f 387/957/240 383/958/240 385/959/240 389/960/240
usemtl common_table
f 391/961/241 392/962/241 394/963/241 393/964/241
f 396/965/242 395/966/242 397/967/242 398/968/242
f 397/969/243 393/970/243 394/971/243 398/972/243
f 395/973/244 391/974/244 393/975/244 397/976/244
f 392/977/245 396/978/245 398/979/245 394/980/245
f 399/981/246 400/982/246 402/983/246 401/984/246
f 404/985/247 403/986/247 405/987/247 406/988/247
f 405/989/248 401/990/248 402/991/248 406/992/248
f 403/993/249 399/994/249 401/995/249 405/996/249
f 400/997/250 404/998/250 406/999/250 402/1000/250
f 407/1001/251 408/1002/251 410/1003/251 409/1004/251
f 412/1005/252 411/1006/252 413/1007/252 414/1008/252
f 413/1009/253 409/1010/253 410/1011/253 414/1012/253
f 411/1013/254 407/1014/254 409/1015/254 413/1016/254
f 408/1017/255 412/1018/255 414/1019/255 410/1020/255
f 415/1021/256 416/1022/256 418/1023/256 417/1024/256
f 420/1025/257 419/1026/257 421/1027/257 422/1028/257
f 421/1029/258 417/1030/258 418/1031/258 422/1032/258
f 419/1033/259 415/1034/259 417/1035/259 421/1036/259
f 416/1037/260 420/1038/260 422/1039/260 418/1040/260
f 423/1041/261 9/1042/261 425/1043/261 424/1044/261
f 10/1045/262 426/1046/262 427/1047/262 428/1048/262
f 10/1049/263 9/1050/263 423/1051/263 426/1052/263
f 427/1053/264 424/1054/264 425/1055/264 428/1056/264
f 426/1057/265 423/1058/265 424/1059/265 427/1060/265
usemtl data_input_machine
f 80/1061/266 78/1062/266 77/1063/266 79/1064/266
usemtl common_steel
f 434/1065/267 433/1066/267 435/1067/267 436/1068/267
f 430/1069/268 429/1070/268 431/1071/268 432/1072/268
f 430/1073/269 433/1074/269 434/1075/269 429/1076/269
f 431/1077/270 436/1078/270 435/1079/270 432/1080/270
f 429/1081/271 434/1082/271 436/1083/271 431/1084/271
f 442/1085/272 441/1086/272 443/1087/272 444/1088/272
f 438/1089/273 437/1090/273 439/1091/273 440/1092/273
f 438/1093/274 441/1094/274 442/1095/274 437/1096/274
f 439/1097/275 444/1098/275 443/1099/275 440/1100/275
f 437/1101/276 442/1102/276 444/1103/276 439/1104/276
f 450/1105/277 449/1106/277 451/1107/277 452/1108/277
f 446/1109/278 445/1110/278 447/1111/278 448/1112/278
f 446/1113/279 449/1114/279 450/1115/279 445/1116/279
f 447/1117/280 452/1118/280 451/1119/280 448/1120/280
f 445/1121/281 450/1122/281 452/1123/281 447/1124/281
usemtl common_thingies
f 453/1125/282 454/1126/282 456/1127/282 455/1128/282
f 458/1129/283 457/1130/283 459/1131/283 460/1132/283
f 458/1133/284 454/1134/284 453/1135/284 457/1136/284
f 459/1137/285 455/1138/285 456/1139/285 460/1140/285
f 457/1141/286 453/1142/286 455/1143/286 459/1144/286
usemtl common_copper_cable
f 465/1145/287 464/1146/287 462/1147/287 466/1148/287
f 463/1149/288 461/1150/288 462/1151/288 464/1152/288
f 468/1153/289 463/1154/289 464/1155/289 465/1156/289
f 466/1157/290 462/1158/290 461/1159/290 467/1160/290
f 465/1161/291 466/1162/291 471/1163/291 470/1164/291
f 467/1165/292 468/1166/292 472/1167/292 469/1168/292
f 468/1169/293 465/1170/293 470/1171/293 472/1172/293
f 466/1173/294 467/1174/294 469/1175/294 471/1176/294
usemtl data_input_machine
f 473/1177/295 474/1178/295 476/1179/295 475/1180/295
f 478/1181/296 477/1182/296 479/1183/296 480/1184/296
f 478/1185/297 474/1186/297 473/1187/297 477/1188/297
f 479/1189/298 475/1190/298 476/1191/298 480/1192/298
f 486/1193/299 485/1194/299 487/1195/299 488/1196/299
f 480/1197/300 483/1198/300 481/1199/300 478/1200/300
f 478/1201/301 481/1202/301 482/1203/301 474/1204/301
f 474/1205/302 482/1206/302 484/1207/302 476/1208/302
f 476/1209/303 484/1210/303 483/1211/303 480/1212/303
f 483/1213/304 487/1214/304 485/1215/304 481/1216/304
f 481/1217/305 485/1218/305 486/1219/305 482/1220/305
f 482/1221/306 486/1222/306 488/1223/306 484/1224/306
f 484/1225/307 488/1226/307 487/1227/307 483/1228/307
f 489/1229/308 473/1230/308 475/1231/308 490/1232/308
f 477/1233/309 491/1234/309 492/1235/309 479/1236/309
f 477/1237/310 473/1238/310 489/1239/310 491/1240/310
f 492/1241/311 490/1242/311 475/1243/311 479/1244/311
f 491/1245/312 489/1246/312 490/1247/312 492/1248/312
f 494/1249/313 493/1250/313 495/1251/313 496/1252/313
usemtl common_bottom
f 500/1253/314 499/1254/314 501/1255/314 502/1256/314
f 506/1257/315 505/1258/315 504/1259/315 498/1260/315
f 498/1261/316 504/1262/316 503/1263/316 497/1264/316
f 497/1265/317 503/1266/317 507/1267/317 508/1268/317
f 508/1269/318 507/1270/318 505/1271/318 506/1272/318
usemtl common_thingies
f 511/1273/319 509/1274/319 510/1275/319 512/1276/319
f 514/1277/320 513/1278/320 515/1279/320 516/1280/320
f 510/1281/321 509/1282/321 513/1283/321 514/1284/321
f 513/1285/322 509/1286/322 511/1287/322 515/1288/322
f 512/1289/323 510/1290/323 514/1291/323 516/1292/323
usemtl common_steel
f 518/1293/324 27/1294/324 29/1295/324 517/1296/324
f 14/1297/325 31/1298/325 518/1299/325 517/1300/325
usemtl common_thingies
f 519/1301/326 520/1302/326 522/1303/326 521/1304/326
f 524/1305/327 523/1306/327 525/1307/327 526/1308/327
f 524/1309/328 520/1310/328 519/1311/328 523/1312/328
f 525/1313/329 521/1314/329 522/1315/329 526/1316/329
f 523/1317/330 519/1318/330 521/1319/330 525/1320/330
f 520/1321/331 524/1322/331 526/1323/331 522/1324/331
usemtl data_input_machine
f 527/1325/332 528/1326/332 530/1327/332 529/1328/332
f 532/1329/333 531/1330/333 533/1331/333 534/1332/333
f 532/1333/334 528/1334/334 527/1335/334 531/1336/334
f 533/1337/335 529/1338/335 530/1339/335 534/1340/335
f 528/1341/336 532/1342/336 534/1343/336 530/1344/336
usemtl common_thingies
f 531/1345/337 527/1346/337 535/1347/337 536/1348/337
f 535/1349/338 529/1350/338 537/1351/338 538/1352/338
f 537/1353/339 533/1354/339 536/1355/339 538/1356/339