# Made by Pabilo8 with Blockbench
# Exported with IIToolkit Plugin on 03/06/2026
mtllib data_input_machine.mtl

o main
v 0 -0.1875 0.125
v 0 -0.1875 1
v 0 -0.4375 0.125
v 0 -0.4375 1
v -0.75 -0.1875 0.125
v -0.75 -0.1875 1
v -0.75 -0.4375 0.125
v -0.75 -0.4375 1
v 1 0 1
v -1 0 1
v 1 1 1
v 1 1 2
v 1 0 2
v -1 1 1
v -1 1 2
v -1 0 2
v 1 -1 1
v 1 -1 2
v -1 -1 1
v -1 -1 2
v 0 1 2
v 0 0 2
v 0 1 1
v 0 0 1
v 0 -1 1
v 0 -1 2
v 0.0625 2 1
v 0.0625 2 2
v 0.0625 1 1
v 0.0625 1 2
v -1 2 1
v -1 2 2
v 1 -0.125 1.125
v 1 -0.125 1.875
v 1 -0.875 1.125
v 1 -0.875 1.875
v 0.9375 -0.875 1.875
v 0.9375 -0.875 1.125
v 0.9375 -0.125 1.125
v 0.9375 -0.125 1.875
v -0.9375 -0.125 1.875
v -0.9375 -0.125 1.125
v -0.9375 -0.875 1.875
v -0.9375 -0.875 1.125
v -1 -0.125 1.125
v -1 -0.125 1.875
v -1 -0.875 1.875
v -1 -0.875 1.125
v -0.875 1.9375 1.875
v -0.875 1.9375 1.125
v -0.125 1.9375 1.875
v -0.125 1.9375 1.125
v -0.875 2 1.125
v -0.875 2 1.875
v -0.125 2 1.875
v 0 2 2
v -0.125 2 1.125
v 0 2 1
v 0.9375 2 1
v 0.9375 1.9375 1
v 0.9375 1.9375 2
v 0.0625 1.9375 1
v 0.0625 1.9375 2
v 0.9375 1.9375 1.9375
v 0.9375 1 1.9375
v 0.0625 1.9375 1.9375
v 0.0625 1 1.9375
v 1 2 1
v 1 2 2
v 0.9375 2 2
v 0.9375 1 1
v 0.9375 1 2
v -1 1.5 1.2188
v -1 1.5 1.7813
v -1 1.125 1.2188
v -1 1.125 1.7813
v -1.0625 1.5 1.2188
v -1.0625 1.5 1.7813
v -1.0625 1.125 1.2188
v -1.0625 1.125 1.7813
v 0.4375 0.625 0.9375
v 0.4375 0.5625 0.9375
v 0.4375 0.5625 1
v -0.0625 0.625 0.9375
v -0.0625 0.5625 0.9375
v -0.0625 0.5625 1
v 0.375 0.75 0.9375
v 0.375 0.75 1
v 0.4375 0.6875 0.9375
v 0.4375 0.6875 1
v 0 0.75 0.9375
v 0 0.75 1
v -0.0625 0.6875 0.9375
v -0.0625 0.6875 1
v 0 0.6875 0.9375
v 0 0.6875 1
v 0 0.625 0.9375
v 0 0.625 1
v 0.375 0.6875 0.9375
v 0.375 0.6875 1
v 0.375 0.625 0.9375
v 0.375 0.625 1
v 0.4375 0.625 0.9922
v -0.0625 0.625 0.9922
v 0.4375 0.6875 0.9922
v -0.0625 0.6875 0.9922
v 0.4375 0.375 0.9375
v 0.4375 0.3125 0.9375
v 0.4375 0.3125 1
v -0.0625 0.375 0.9375
v -0.0625 0.3125 0.9375
v -0.0625 0.3125 1
v 0.375 0.5 0.9375
v 0.375 0.5 1
v 0.4375 0.4375 0.9375
v 0.4375 0.4375 1
v 0 0.5 0.9375
v 0 0.5 1
v -0.0625 0.4375 0.9375
v -0.0625 0.4375 1
v 0 0.4375 0.9375
v 0 0.4375 1
v 0 0.375 0.9375
v 0 0.375 1
v 0.375 0.4375 0.9375
v 0.375 0.4375 1
v 0.375 0.375 0.9375
v 0.375 0.375 1
v 0.4375 0.375 0.9922
v -0.0625 0.375 0.9922
v 0.4375 0.4375 0.9922
v -0.0625 0.4375 0.9922
v 0.9375 0.9076 0.9688
v 0.9375 0.9049 1.0312
v 0.9375 0.1583 0.9361
v 0.9375 0.1556 0.9985
v 0.4375 0.9076 0.9688
v 0.4375 0.9049 1.0312
v 0.4375 0.1583 0.9361
v 0.4375 0.1556 0.9985
v 0.5938 1.8438 1.9375
v 0.625 1.8125 1.8125
v 0.5938 1.0313 1.9375
v 0.625 1.0625 1.8125
v 0.7188 1.8438 1.9375
v 0.6875 1.8125 1.8125
v 0.7188 1.0313 1.9375
v 0.6875 1.0625 1.8125
v 0.7813 1.8438 1.9375
v 0.8125 1.8125 1.8125
v 0.7813 1.0313 1.9375
v 0.8125 1.0625 1.8125
v 0.9063 1.8438 1.9375
v 0.875 1.8125 1.8125
v 0.9063 1.0313 1.9375
v 0.875 1.0625 1.8125
v 0.4063 1.8438 1.9375
v 0.4375 1.8125 1.8125
v 0.4063 1.0313 1.9375
v 0.4375 1.0625 1.8125
v 0.5313 1.8438 1.9375
v 0.5 1.8125 1.8125
v 0.5313 1.0313 1.9375
v 0.5 1.0625 1.8125
v 0.3755 1.7539 1.6964
v 0.42 1.065 1.1339
v 0.4396 1.8148 1.1339
v 0.42 1.065 1.8839
v 0.4396 1.8148 1.8839
v 0.4824 1.0634 1.1339
v 0.5021 1.8131 1.1339
v 0.4824 1.0634 1.8839
v 0.5021 1.8131 1.8839
v 0.3657 1.3791 1.1964
v 0.3755 1.7539 1.1964
v 0.3657 1.3791 1.4151
v 0.3755 1.7539 1.4151
v 0.4281 1.3774 1.1964
v 0.438 1.7523 1.1964
v 0.4281 1.3774 1.4151
v 0.438 1.7523 1.4151
v 0.3657 1.3791 1.4464
v 0.3755 1.7539 1.4464
v 0.3657 1.3791 1.6651
v 0.3755 1.7539 1.6651
v 0.4281 1.3774 1.4464
v 0.438 1.7523 1.4464
v 0.4281 1.3774 1.6651
v 0.438 1.7523 1.6651
v 0.3624 1.2541 1.6964
v 0.3657 1.3791 1.6964
v 0.3624 1.2541 1.8214
v 0.3657 1.3791 1.8214
v 0.4249 1.2525 1.6964
v 0.4281 1.3774 1.6964
v 0.4249 1.2525 1.8214
v 0.4281 1.3774 1.8214
v 0.3673 1.4415 1.6964
v 0.3706 1.5665 1.6964
v 0.3673 1.4415 1.8214
v 0.3706 1.5665 1.8214
v 0.4298 1.4399 1.6964
v 0.433 1.5649 1.6964
v 0.4298 1.4399 1.8214
v 0.433 1.5649 1.8214
v 0.3722 1.629 1.6964
v 0.3722 1.629 1.8214
v 0.3755 1.7539 1.8214
v 0.4347 1.6273 1.6964
v 0.438 1.7523 1.6964
v 0.4347 1.6273 1.8214
v 0.438 1.7523 1.8214
v 0.5628 1.7458 1.6964
v 0.6073 1.0569 1.1339
v 0.6269 1.8066 1.1339
v 0.6073 1.0569 1.8839
v 0.6269 1.8066 1.8839
v 0.6698 1.0552 1.1339
v 0.6894 1.805 1.1339
v 0.6698 1.0552 1.8839
v 0.6894 1.805 1.8839
v 0.5421 1.1211 1.1964
v 0.5519 1.496 1.1964
v 0.5421 1.1211 1.4151
v 0.5519 1.496 1.4151
v 0.6046 1.1195 1.1964
v 0.6144 1.4944 1.1964
v 0.6046 1.1195 1.4151
v 0.6144 1.4944 1.4151
v 0.5421 1.1211 1.4464
v 0.5519 1.496 1.4464
v 0.5421 1.1211 1.6651
v 0.5519 1.496 1.6651
v 0.6046 1.1195 1.4464
v 0.6144 1.4944 1.4464
v 0.6046 1.1195 1.6651
v 0.6144 1.4944 1.6651
v 0.5497 1.2459 1.6964
v 0.553 1.3709 1.6964
v 0.5497 1.2459 1.8214
v 0.553 1.3709 1.8214
v 0.6122 1.2443 1.6964
v 0.6155 1.3693 1.6964
v 0.6122 1.2443 1.8214
v 0.6155 1.3693 1.8214
v 0.5546 1.4334 1.6964
v 0.5579 1.5583 1.6964
v 0.5546 1.4334 1.8214
v 0.5579 1.5583 1.8214
v 0.6171 1.4317 1.6964
v 0.6204 1.5567 1.6964
v 0.6171 1.4317 1.8214
v 0.6204 1.5567 1.8214
v 0.5595 1.6208 1.6964
v 0.5595 1.6208 1.8214
v 0.5628 1.7458 1.8214
v 0.622 1.6192 1.6964
v 0.6253 1.7441 1.6964
v 0.622 1.6192 1.8214
v 0.6253 1.7441 1.8214
v 0.7501 1.7532 1.6964
v 0.7946 1.0643 1.1339
v 0.8142 1.814 1.1339
v 0.7946 1.0643 1.8839
v 0.8142 1.814 1.8839
v 0.8571 1.0627 1.1339
v 0.8767 1.8124 1.1339
v 0.8571 1.0627 1.8839
v 0.8767 1.8124 1.8839
v 0.7403 1.3783 1.1964
v 0.7501 1.7532 1.1964
v 0.7403 1.3783 1.4151
v 0.7501 1.7532 1.4151
v 0.8028 1.3767 1.1964
v 0.8126 1.7516 1.1964
v 0.8028 1.3767 1.4151
v 0.8126 1.7516 1.4151
v 0.7321 1.191 1.4464
v 0.7419 1.5659 1.4464
v 0.7321 1.191 1.6651
v 0.7419 1.5659 1.6651
v 0.7946 1.1894 1.4464
v 0.8044 1.5642 1.4464
v 0.7946 1.1894 1.6651
v 0.8044 1.5642 1.6651
v 0.737 1.2534 1.6964
v 0.7403 1.3783 1.6964
v 0.737 1.2534 1.8214
v 0.7403 1.3783 1.8214
v 0.7995 1.2517 1.6964
v 0.8028 1.3767 1.6964
v 0.7995 1.2517 1.8214
v 0.8028 1.3767 1.8214
v 0.7419 1.4408 1.6964
v 0.7452 1.5658 1.6964
v 0.7419 1.4408 1.8214
v 0.7452 1.5658 1.8214
v 0.8044 1.4392 1.6964
v 0.8077 1.5641 1.6964
v 0.8044 1.4392 1.8214
v 0.8077 1.5641 1.8214
v 0.7468 1.6283 1.6964
v 0.7468 1.6283 1.8214
v 0.7501 1.7532 1.8214
v 0.8093 1.6266 1.6964
v 0.8126 1.7516 1.6964
v 0.8093 1.6266 1.8214
v 0.8126 1.7516 1.8214
v 0.125 1.8125 1.375
v 0.125 1.8125 1.875
v 0.125 1.6875 1.375
v 0.125 1.6875 1.875
v 0.0625 1.8125 1.375
v 0.0625 1.8125 1.875
v 0.0625 1.6875 1.375
v 0.0625 1.6875 1.875
v 0.4375 1.8125 1.875
v 0.4375 1.8125 1.9375
v 0.4375 1.6875 1.875
v 0.4375 1.6875 1.9375
v 0.0625 1.8125 1.9375
v 0.0625 1.6875 1.9375
v 0.125 1.625 1.375
v 0.125 1.625 1.875
v 0.125 1.5 1.375
v 0.125 1.5 1.875
v 0.0625 1.625 1.375
v 0.0625 1.625 1.875
v 0.0625 1.5 1.375
v 0.0625 1.5 1.875
v 0.4375 1.625 1.875
v 0.4375 1.625 1.9375
v 0.4375 1.5 1.875
v 0.4375 1.5 1.9375
v 0.0625 1.625 1.9375
v 0.0625 1.5 1.9375
v 0.125 1.4375 1.375
v 0.125 1.4375 1.875
v 0.125 1.3125 1.375
v 0.125 1.3125 1.875
v 0.0625 1.4375 1.375
v 0.0625 1.4375 1.875
v 0.0625 1.3125 1.375
v 0.0625 1.3125 1.875
v 0.4375 1.4375 1.875
v 0.4375 1.4375 1.9375
v 0.4375 1.3125 1.875
v 0.4375 1.3125 1.9375
v 0.0625 1.4375 1.9375
v 0.0625 1.3125 1.9375
v 0.0313 1.875 0.9406
v 0.0313 1.875 1.0031
v 0.0313 1.75 0.9406
v 0.0313 1.75 1.0031
v -0.0312 1.875 0.9406
v -0.0312 1.875 1.0031
v -0.0312 1.75 0.9406
v -0.0312 1.75 1.0031
v 0.9375 -0.1875 0.75
v 0.9375 -0.1875 0.9375
v 0.9375 -1 0.75
v 0.9375 -1 0.9375
v 0.75 -0.1875 0.75
v 0.75 -0.1875 0.9375
v 0.75 -1 0.75
v 0.75 -1 0.9375
v 0.9375 -0.1875 0.125
v 0.9375 -0.1875 0.3125
v 0.9375 -1 0.125
v 0.9375 -1 0.3125
v 0.75 -0.1875 0.125
v 0.75 -0.1875 0.3125
v 0.75 -1 0.125
v 0.75 -1 0.3125
v -0.75 -0.1875 0.75
v -0.75 -0.1875 0.9375
v -0.75 -1 0.75
v -0.75 -1 0.9375
v -0.9375 -0.1875 0.75
v -0.9375 -0.1875 0.9375
v -0.9375 -1 0.75
v -0.9375 -1 0.9375
v -0.75 -0.1875 0.0625
v -0.75 -0.1875 0.25
v -0.75 -1 0.0625
v -0.75 -1 0.25
v -0.9375 -0.1875 0.0625
v -0.9375 -0.1875 0.25
v -0.9375 -1 0.0625
v -0.9375 -1 0.25
v 1 0 0
v 1 -0.1875 0
v 1 -0.1875 1
v -1 0 0
v -1 -0.1875 0
v -1 -0.1875 1
v -0.0312 1.25 0.9406
v -0.0312 1.25 1.0031
v -0.0312 1.125 0.9406
v -0.0312 1.125 1.0031
v 0.0313 1.25 1.0031
v 0.0313 1.25 0.9406
v 0.0313 1.125 1.0031
v 0.0313 1.125 0.9406
v -0.7187 1 0.8781
v -0.7187 1 1.0031
v -0.7187 0.875 0.8781
v -0.7187 0.875 1.0031
v -0.6562 1 1.0031
v -0.6562 1 0.8781
v -0.6562 0.875 1.0031
v -0.6562 0.875 0.8781
v -0.4687 1 0.8781
v -0.4687 1 1.0031
v -0.4687 0.875 0.8781
v -0.4687 0.875 1.0031
v -0.4062 1 1.0031
v -0.4062 1 0.8781
v -0.4062 0.875 1.0031
v -0.4062 0.875 0.8781
v -0.4531 1.2031 0.9375
v -0.4531 1.2031 1
v -0.4531 1.0156 0.9375
v -0.4531 1.0156 1
v -0.6406 1.2031 0.9375
v -0.6406 1.2031 1
v -0.6406 1.0156 0.9375
v -0.6406 1.0156 1
v -0.6123 1.043 0.769
v -0.6123 1.168 0.8003
v -0.4873 1.043 0.769
v -0.4873 1.168 0.8003
v -0.4869 1.1674 0.894
v -0.6119 1.1674 0.894
v -0.6119 1.0424 0.894
v -0.4869 1.0424 0.894
v -0.6115 1.0418 0.9565
v -0.4865 1.1668 0.9565
v -0.6115 1.1668 0.9565
v -0.4865 1.0418 0.9565
v -0.375 0.9792 0.9465
v -0.375 0.7962 0.9059
v -0.375 1.0604 0.5804
v -0.375 0.8773 0.5398
v -0.75 0.9792 0.9465
v -0.75 0.7962 0.9059
v -0.75 1.0604 0.5804
v -0.75 0.8773 0.5398
v -0.6875 0.8097 0.8449
v -0.4375 0.8097 0.8449
v -0.6875 0.8638 0.6008
v -0.4375 0.8638 0.6008
v -0.6875 0.8707 0.8584
v -0.4375 0.8707 0.8584
v -0.6875 0.9248 0.6144
v -0.4375 0.9248 0.6144
v -0.4375 1.0538 0.899
v -0.4375 1.1079 0.6549
v -0.6875 1.0538 0.899
v -0.6875 1.1079 0.6549
v -0.6875 0.8402 0.8517
v -0.4375 0.8402 0.8517
v -0.6875 0.8943 0.6076
v -0.4375 0.8943 0.6076
v -1 2 1
v -1 2 2
v -0.875 1.9375 1.875
v -0.875 1.9375 1.125
v -0.125 1.9375 1.875
v -0.125 1.9375 1.125
v -0.875 2 1.125
v -0.875 2 1.875
v -0.125 2 1.875
v 0 2 2
v -0.125 2 1.125
v 0 2 1
v -0.25 2.0062 1.25
v -0.25 2.0062 1.75
v -0.25 1.9437 1.25
v -0.25 1.9437 1.75
v -0.75 2.0062 1.25
v -0.75 2.0062 1.75
v -0.75 1.9437 1.25
v -0.75 1.9437 1.75
v -0.0625 1 1
v -0.0625 2 1
v 0.125 0.25 0.9375
v 0.125 0.25 1
v 0.125 0.0625 0.9375
v 0.125 0.0625 1
v -0.0625 0.25 0.9375
v -0.0625 0.25 1
v -0.0625 0.0625 0.9375
v -0.0625 0.0625 1
v 0.125 0.25 0.6875
v 0.125 0.25 0.9375
v 0.125 0.0625 0.6875
v 0.125 0.0625 0.9375
v -0.0625 0.25 0.6875
v -0.0625 0.25 0.9375
v -0.0625 0.0625 0.6875
v -0.0625 0.0625 0.9375
v 0.125 0.1875 0.6875
v -0.0625 0.1875 0.6875
v 0 0.0625 0.6875
v 0 0.1875 0.6875
v -1.0062 -0.75 1.25
v -1.0062 -0.75 1.75
v -0.9437 -0.75 1.25
v -0.9437 -0.75 1.75
v -1.0062 -0.25 1.25
v -0.9437 -0.25 1.25
v -1.0062 -0.25 1.75
v -0.9437 -0.25 1.75
v 0.9438 -0.25 1.25
v 0.9438 -0.25 1.75
v 0.9438 -0.75 1.25
v 0.9438 -0.75 1.75
v 1.0063 -0.25 1.25
v 1.0063 -0.25 1.75
v 1.0063 -0.75 1.25
v 1.0063 -0.75 1.75
v -1.0047 -0.0625 1.375
v -0.9406 -0.0625 1.375
v -1.0047 -0.25 1.375
v -0.9406 -0.25 1.375
v -1.0047 -0.0625 1.625
v -1.0047 -0.25 1.625
v -0.9406 -0.0625 1.625
v -0.9406 -0.25 1.625
v 1.0047 -0.0625 1.375
v 0.9406 -0.0625 1.375
v 1.0047 -0.25 1.375
v 0.9406 -0.25 1.375
v 1.0047 -0.0625 1.625
v 1.0047 -0.25 1.625
v 0.9406 -0.0625 1.625
v 0.9406 -0.25 1.625
vt 0.7656 0.0625
vt 0.9844 0.0625
vt 0.9844 0
vt 0.7656 0
vt 0.7813 0.0625
vt 1 0.0625
vt 1 0
vt 0.7813 0
vt 0.7656 0.0625
vt 0.7656 0.25
vt 0.9844 0.25
vt 0.9844 0.0625
vt 0.7969 0.4531
vt 0.9844 0.4531
vt 0.9844 0.3906
vt 0.7969 0.3906
vt 0.75 0.5
vt 1 0.5
vt 1 0.25
vt 0.75 0.25
vt 0.75 0.5
vt 1 0.5
vt 1 0.25
vt 0.75 0.25
vt 0.25 0.5
vt 0.25 0.25
vt 0 0.25
vt 0 0.5
vt 0.75 0.25
vt 0.5 0.25
vt 0.5 0.5
vt 0.75 0.5
vt 1 0.5
vt 0.75 0.5
vt 0.75 0.25
vt 1 0.25
vt 0.5 0
vt 0.25 0
vt 0.25 0.25
vt 0.5 0.25
vt 0.25 0.25
vt 0.25 0
vt 0 0
vt 0 0.25
vt 0 0.5
vt 0.25 0.5
vt 0.25 0.25
vt 0 0.25
vt 1 0.25
vt 1 0
vt 0.75 0
vt 0.75 0.25
vt 0.5 0.25
vt 0.5 0.5
vt 0.75 0.5
vt 0.75 0.25
vt 0 0.25
vt 0.25 0.25
vt 0.25 0
vt 0 0
vt 0.75 0.75
vt 1 0.75
vt 1 1
vt 0.75 1
vt 0.25 0
vt 0.25 0.25
vt 0.5 0.25
vt 0.5 0
vt 0.75 0.25
vt 1 0.25
vt 1 0
vt 0.75 0
vt 0.75 1
vt 1 1
vt 1 0.75
vt 0.75 0.75
vt 0.4844 1
vt 0.75 1
vt 0.75 0.75
vt 0.4844 0.75
vt 0.7813 0.2188
vt 0.9688 0.2188
vt 0.9688 0.0313
vt 0.7813 0.0313
vt 1 0
vt 0.9688 0.0313
vt 0.9688 0.2188
vt 1 0.25
vt 1 0.25
vt 0.9688 0.2188
vt 0.7813 0.2188
vt 0.75 0.25
vt 0.75 0.25
vt 0.7813 0.2188
vt 0.7813 0.0313
vt 0.75 0
vt 0.75 0
vt 0.7813 0.0313
vt 0.9688 0.0313
vt 1 0
vt 0.9688 0.2188
vt 0.9844 0.2188
vt 0.9844 0.0313
vt 0.9688 0.0313
vt 0.9688 0.2344
vt 0.9688 0.2188
vt 0.7813 0.2188
vt 0.7813 0.2344
vt 0.7656 0.2188
vt 0.7813 0.2188
vt 0.7813 0.0313
vt 0.7656 0.0313
vt 0.7813 0.0313
vt 0.7813 0.0156
vt 0.9688 0.0156
vt 0.9688 0.0313
vt 0.9688 0.0313
vt 0.9688 0.2188
vt 0.7813 0.2188
vt 0.7813 0.0313
vt 0.9688 0.2188
vt 0.9688 0.0313
vt 1 0
vt 1 0.25
vt 0.7813 0.2188
vt 0.9688 0.2188
vt 1 0.25
vt 0.75 0.25
vt 0.7813 0.0313
vt 0.7813 0.2188
vt 0.75 0.25
vt 0.75 0
vt 0.9688 0.0313
vt 0.7813 0.0313
vt 0.75 0
vt 1 0
vt 0.9844 0.0313
vt 0.9844 0.2188
vt 0.9688 0.2188
vt 0.9688 0.0313
vt 0.7813 0.2188
vt 0.9688 0.2188
vt 0.9688 0.2344
vt 0.7813 0.2344
vt 0.7813 0.0313
vt 0.7813 0.2188
vt 0.7656 0.2188
vt 0.7656 0.0313
vt 0.9688 0.0156
vt 0.7813 0.0156
vt 0.7813 0.0313
vt 0.9688 0.0313
vt 0.7188 0.2188
vt 0.7344 0.2188
vt 0.7344 0.0313
vt 0.7188 0.0313
vt 0.7188 0.2344
vt 0.7188 0.2188
vt 0.5313 0.2188
vt 0.5313 0.2344
vt 0.5156 0.2188
vt 0.5313 0.2188
vt 0.5313 0.0313
vt 0.5156 0.0313
vt 0.5313 0.0313
vt 0.5313 0.0156
vt 0.7188 0.0156
vt 0.7188 0.0313
vt 0.75 0.25
vt 1 0.25
vt 1 0
vt 0.75 0
vt 0.7813 1
vt 1 1
vt 1 0.9844
vt 0.7813 0.9844
vt 0.75 0.25
vt 1 0.25
vt 1 0
vt 0.75 0
vt 0.75 1
vt 1 1
vt 1 0.75
vt 0.75 0.75
vt 0.9844 1
vt 1 1
vt 1 0.75
vt 0.9844 0.75
vt 0.75 0.25
vt 1 0.25
vt 1 0
vt 0.75 0
vt 0.2344 1
vt 0.2344 0.75
vt 0 0.75
vt 0 1
vt 0 0
vt 0 0.25
vt 0.25 0.25
vt 0.25 0
vt 0 0.3438
vt 0 0.375
vt 0.2813 0.375
vt 0.2813 0.3438
vt 0 0.1875
vt 0 0.2188
vt 0.2813 0.2188
vt 0.2813 0.1875
vt 0.25 0.375
vt 0.2813 0.375
vt 0.2813 0.1875
vt 0.25 0.1875
vt 0 0.375
vt 0.0313 0.375
vt 0.0313 0.1875
vt 0 0.1875
vt 0.625 0.0938
vt 0.75 0.0938
vt 0.75 0.0781
vt 0.625 0.0781
vt 0.625 0.0938
vt 0.75 0.0938
vt 0.75 0.0781
vt 0.625 0.0781
vt 0.7344 0.125
vt 0.75 0.125
vt 0.75 0.1094
vt 0.7344 0.1094
vt 0.625 0.125
vt 0.6406 0.125
vt 0.6406 0.1094
vt 0.625 0.1094
vt 0.6406 0.125
vt 0.7344 0.125
vt 0.7344 0.1094
vt 0.6406 0.1094
vt 0.6406 0.125
vt 0.7344 0.125
vt 0.75 0.1094
vt 0.625 0.1094
vt 0.625 0.125
vt 0.6406 0.125
vt 0.6406 0.1094
vt 0.625 0.1094
vt 0.625 0.1094
vt 0.6406 0.1094
vt 0.6406 0.0938
vt 0.625 0.0938
vt 0.625 0.125
vt 0.6406 0.125
vt 0.6406 0.1094
vt 0.625 0.1094
vt 0.7344 0.1094
vt 0.75 0.1094
vt 0.75 0.0938
vt 0.7344 0.0938
vt 0.625 0.1094
vt 0.6406 0.1094
vt 0.6406 0.0781
vt 0.625 0.0781
vt 0.625 0.125
vt 0.6406 0.125
vt 0.6406 0.0938
vt 0.625 0.0938
vt 0.6406 0.0781
vt 0.6406 0.0938
vt 0.7344 0.0938
vt 0.7344 0.0781
vt 0.7344 0.125
vt 0.7344 0.1094
vt 0.6406 0.1094
vt 0.6406 0.125
vt 0.625 0.0938
vt 0.625 0.1094
vt 0.75 0.1094
vt 0.75 0.0938
vt 0.5 0.0938
vt 0.625 0.0938
vt 0.625 0.0781
vt 0.5 0.0781
vt 0.5 0.0938
vt 0.625 0.0938
vt 0.625 0.0781
vt 0.5 0.0781
vt 0.6094 0.125
vt 0.625 0.125
vt 0.625 0.1094
vt 0.6094 0.1094
vt 0.5 0.125
vt 0.5156 0.125
vt 0.5156 0.1094
vt 0.5 0.1094
vt 0.5156 0.125
vt 0.6094 0.125
vt 0.6094 0.1094
vt 0.5156 0.1094
vt 0.5156 0.125
vt 0.6094 0.125
vt 0.625 0.1094
vt 0.5 0.1094
vt 0.5 0.125
vt 0.5156 0.125
vt 0.5156 0.1094
vt 0.5 0.1094
vt 0.5 0.1094
vt 0.5156 0.1094
vt 0.5156 0.0938
vt 0.5 0.0938
vt 0.5 0.125
vt 0.5156 0.125
vt 0.5156 0.1094
vt 0.5 0.1094
vt 0.6094 0.1094
vt 0.625 0.1094
vt 0.625 0.0938
vt 0.6094 0.0938
vt 0.5 0.1094
vt 0.5156 0.1094
vt 0.5156 0.0781
vt 0.5 0.0781
vt 0.5 0.125
vt 0.5156 0.125
vt 0.5156 0.0938
vt 0.5 0.0938
vt 0.5156 0.0781
vt 0.5156 0.0938
vt 0.6094 0.0938
vt 0.6094 0.0781
vt 0.6094 0.125
vt 0.6094 0.1094
vt 0.5156 0.1094
vt 0.5156 0.125
vt 0.5 0.0938
vt 0.5 0.1094
vt 0.625 0.1094
vt 0.625 0.0938
vt 0 1
vt 0.0313 1
vt 0.0313 0.625
vt 0 0.625
vt 0.2813 1
vt 0.3125 1
vt 0.3125 0.625
vt 0.2813 0.625
vt 0.0313 1
vt 0.2813 1
vt 0.2813 0.9688
vt 0.0313 0.9688
vt 0.0313 0.6563
vt 0.2813 0.6563
vt 0.2813 0.625
vt 0.0313 0.625
vt 0 1
vt 0.3125 1
vt 0.3125 0.625
vt 0 0.625
vt 0.0313 1
vt 0.2813 1
vt 0.2813 0.625
vt 0.0313 0.625
vt 0.75 1
vt 0.8125 1
vt 0.8125 0.8125
vt 0.75 0.8125
vt 0.75 1
vt 0.8125 1
vt 0.8125 0.8125
vt 0.75 0.8125
vt 0.75 0.9375
vt 0.75 0.9375
vt 0.75 1
vt 0.8125 1
vt 0.8125 0.9375
vt 0.75 0.9375
vt 0.75 1
vt 0.75 1
vt 0.75 1
vt 0.8125 1
vt 0.8125 0.8125
vt 0.75 0.8125
vt 0.75 1
vt 0.8125 1
vt 0.8125 0.8125
vt 0.75 0.8125
vt 0.75 0.9375
vt 0.75 0.9375
vt 0.75 1
vt 0.8125 1
vt 0.8125 0.9375
vt 0.75 0.9375
vt 0.75 1
vt 0.75 1
vt 0.75 1
vt 0.8125 1
vt 0.8125 0.8125
vt 0.75 0.8125
vt 0.75 1
vt 0.8125 1
vt 0.8125 0.8125
vt 0.75 0.8125
vt 0.75 0.9375
vt 0.75 0.9375
vt 0.75 1
vt 0.8125 1
vt 0.8125 0.9375
vt 0.75 0.9375
vt 0.75 1
vt 0.75 1
vt 0.75 0.25
vt 0.75 1
vt 0 1
vt 0 0.25
vt 0 0.25
vt 0 1
vt 0.75 1
vt 0.75 0.25
vt 0 1
vt 0.75 1
vt 0.75 0.9375
vt 0 0.9375
vt 0.75 0.3125
vt 0 0.3125
vt 0 0.25
vt 0.75 0.25
vt 0.0625 0.25
vt 0.0625 1
vt 0 1
vt 0 0.25
vt 0.75 0.25
vt 0.75 1
vt 0.6875 1
vt 0.6875 0.25
vt 1 0.625
vt 0.75 0.625
vt 0.75 1
vt 1 1
vt 0.75 1
vt 0.75 0.625
vt 0.8125 0.625
vt 0.8125 1
vt 1 0.625
vt 1 1
vt 0.9375 1
vt 0.9375 0.625
vt 1 0.9375
vt 0.75 0.9375
vt 0.75 1
vt 1 1
vt 1 0.625
vt 0.75 0.625
vt 0.75 0.6875
vt 1 0.6875
vt 1 0.25
vt 0.75 0.25
vt 0.75 0.625
vt 1 0.625
vt 0.8125 0.625
vt 0.8125 0.25
vt 0.75 0.25
vt 0.75 0.625
vt 1 0.25
vt 1 0.625
vt 0.9375 0.625
vt 0.9375 0.25
vt 1 0.5625
vt 0.75 0.5625
vt 0.75 0.625
vt 1 0.625
vt 1 0.25
vt 0.75 0.25
vt 0.75 0.3125
vt 1 0.3125
vt 0.75 0.125
vt 0.75 0.25
vt 0.625 0.25
vt 0.625 0.125
vt 0.625 0.25
vt 0.75 0.25
vt 0.75 0.1875
vt 0.625 0.1875
vt 0.75 0.1875
vt 0.625 0.1875
vt 0.625 0.125
vt 0.75 0.125
vt 0.625 0.125
vt 0.625 0.25
vt 0.6875 0.25
vt 0.6875 0.125
vt 0.6875 0.125
vt 0.6875 0.25
vt 0.75 0.25
vt 0.75 0.125
vt 0.875 0.125
vt 0.875 0.25
vt 0.75 0.25
vt 0.75 0.125
vt 0.75 0.25
vt 0.875 0.25
vt 0.875 0.1875
vt 0.75 0.1875
vt 0.875 0.1875
vt 0.75 0.1875
vt 0.75 0.125
vt 0.875 0.125
vt 0.75 0.125
vt 0.75 0.25
vt 0.8125 0.25
vt 0.8125 0.125
vt 0.8125 0.125
vt 0.8125 0.25
vt 0.875 0.25
vt 0.875 0.125
vt 1 0.125
vt 1 0.25
vt 0.875 0.25
vt 0.875 0.125
vt 0.875 0.25
vt 1 0.25
vt 1 0.1875
vt 0.875 0.1875
vt 1 0.1875
vt 0.875 0.1875
vt 0.875 0.125
vt 1 0.125
vt 0.875 0.125
vt 0.875 0.25
vt 0.9375 0.25
vt 0.9375 0.125
vt 0.9375 0.125
vt 0.9375 0.25
vt 1 0.25
vt 1 0.125
vt 0.75 0.25
vt 0.75 1
vt 0 1
vt 0 0.25
vt 0 0.25
vt 0 1
vt 0.75 1
vt 0.75 0.25
vt 0 1
vt 0.75 1
vt 0.75 0.9375
vt 0 0.9375
vt 0.75 0.3125
vt 0 0.3125
vt 0 0.25
vt 0.75 0.25
vt 0.0625 0.25
vt 0.0625 1
vt 0 1
vt 0 0.25
vt 0.75 0.25
vt 0.75 1
vt 0.6875 1
vt 0.6875 0.25
vt 1 0.625
vt 0.75 0.625
vt 0.75 1
vt 1 1
vt 0.75 1
vt 0.75 0.625
vt 0.8125 0.625
vt 0.8125 1
vt 1 0.625
vt 1 1
vt 0.9375 1
vt 0.9375 0.625
vt 1 0.9375
vt 0.75 0.9375
vt 0.75 1
vt 1 1
vt 1 0.625
vt 0.75 0.625
vt 0.75 0.6875
vt 1 0.6875
vt 1 0.25
vt 0.75 0.25
vt 0.75 0.625
vt 1 0.625
vt 0.8125 0.625
vt 0.8125 0.25
vt 0.75 0.25
vt 0.75 0.625
vt 1 0.25
vt 1 0.625
vt 0.9375 0.625
vt 0.9375 0.25
vt 1 0.5625
vt 0.75 0.5625
vt 0.75 0.625
vt 1 0.625
vt 1 0.25
vt 0.75 0.25
vt 0.75 0.3125
vt 1 0.3125
vt 0.75 0.125
vt 0.75 0.25
vt 0.625 0.25
vt 0.625 0.125
vt 0.625 0.25
vt 0.75 0.25
vt 0.75 0.1875
vt 0.625 0.1875
vt 0.75 0.1875
vt 0.625 0.1875
vt 0.625 0.125
vt 0.75 0.125
vt 0.625 0.125
vt 0.625 0.25
vt 0.6875 0.25
vt 0.6875 0.125
vt 0.6875 0.125
vt 0.6875 0.25
vt 0.75 0.25
vt 0.75 0.125
vt 0.875 0.125
vt 0.875 0.25
vt 0.75 0.25
vt 0.75 0.125
vt 0.75 0.25
vt 0.875 0.25
vt 0.875 0.1875
vt 0.75 0.1875
vt 0.875 0.1875
vt 0.75 0.1875
vt 0.75 0.125
vt 0.875 0.125
vt 0.75 0.125
vt 0.75 0.25
vt 0.8125 0.25
vt 0.8125 0.125
vt 0.8125 0.125
vt 0.8125 0.25
vt 0.875 0.25
vt 0.875 0.125
vt 1 0.125
vt 1 0.25
vt 0.875 0.25
vt 0.875 0.125
vt 0.875 0.25
vt 1 0.25
vt 1 0.1875
vt 0.875 0.1875
vt 1 0.1875
vt 0.875 0.1875
vt 0.875 0.125
vt 1 0.125
vt 0.875 0.125
vt 0.875 0.25
vt 0.9375 0.25
vt 0.9375 0.125
vt 0.9375 0.125
vt 0.9375 0.25
vt 1 0.25
vt 1 0.125
vt 0.75 0.25
vt 0.75 1
vt 0 1
vt 0 0.25
vt 0 0.25
vt 0 1
vt 0.75 1
vt 0.75 0.25
vt 0 1
vt 0.75 1
vt 0.75 0.9375
vt 0 0.9375
vt 0.75 0.3125
vt 0 0.3125
vt 0 0.25
vt 0.75 0.25
vt 0.0625 0.25
vt 0.0625 1
vt 0 1
vt 0 0.25
vt 0.75 0.25
vt 0.75 1
vt 0.6875 1
vt 0.6875 0.25
vt 1 0.625
vt 0.75 0.625
vt 0.75 1
vt 1 1
vt 0.75 1
vt 0.75 0.625
vt 0.8125 0.625
vt 0.8125 1
vt 1 0.625
vt 1 1
vt 0.9375 1
vt 0.9375 0.625
vt 1 0.9375
vt 0.75 0.9375
vt 0.75 1
vt 1 1
vt 1 0.625
vt 0.75 0.625
vt 0.75 0.6875
vt 1 0.6875
vt 1 0.25
vt 0.75 0.25
vt 0.75 0.625
vt 1 0.625
vt 0.8125 0.625
vt 0.8125 0.25
vt 0.75 0.25
vt 0.75 0.625
vt 1 0.25
vt 1 0.625
vt 0.9375 0.625
vt 0.9375 0.25
vt 1 0.5625
vt 0.75 0.5625
vt 0.75 0.625
vt 1 0.625
vt 1 0.25
vt 0.75 0.25
vt 0.75 0.3125
vt 1 0.3125
vt 0.75 0.125
vt 0.75 0.25
vt 0.625 0.25
vt 0.625 0.125
vt 0.625 0.25
vt 0.75 0.25
vt 0.75 0.1875
vt 0.625 0.1875
vt 0.75 0.1875
vt 0.625 0.1875
vt 0.625 0.125
vt 0.75 0.125
vt 0.625 0.125
vt 0.625 0.25
vt 0.6875 0.25
vt 0.6875 0.125
vt 0.6875 0.125
vt 0.6875 0.25
vt 0.75 0.25
vt 0.75 0.125
vt 0.875 0.125
vt 0.875 0.25
vt 0.75 0.25
vt 0.75 0.125
vt 0.75 0.25
vt 0.875 0.25
vt 0.875 0.1875
vt 0.75 0.1875
vt 0.875 0.1875
vt 0.75 0.1875
vt 0.75 0.125
vt 0.875 0.125
vt 0.75 0.125
vt 0.75 0.25
vt 0.8125 0.25
vt 0.8125 0.125
vt 0.8125 0.125
vt 0.8125 0.25
vt 0.875 0.25
vt 0.875 0.125
vt 1 0.125
vt 1 0.25
vt 0.875 0.25
vt 0.875 0.125
vt 0.875 0.25
vt 1 0.25
vt 1 0.1875
vt 0.875 0.1875
vt 1 0.1875
vt 0.875 0.1875
vt 0.875 0.125
vt 1 0.125
vt 0.875 0.125
vt 0.875 0.25
vt 0.9375 0.25
vt 0.9375 0.125
vt 0.9375 0.125
vt 0.9375 0.25
vt 1 0.25
vt 1 0.125
vt 0.5625 0.0625
vt 0.5625 0.5625
vt 0.6875 0.5625
vt 0.6875 0.0625
vt 0.5625 0.5625
vt 0.625 0.5625
vt 0.625 0.0625
vt 0.5625 0.0625
vt 0.5625 0.0625
vt 0.625 0.0625
vt 0.625 0.5625
vt 0.5625 0.5625
vt 0.5625 0.0625
vt 0.5625 0.125
vt 0.6875 0.125
vt 0.6875 0.0625
vt 0.5625 0.875
vt 0.5625 0.9375
vt 0.6875 0.9375
vt 0.6875 0.875
vt 0.5625 0.5625
vt 0.5625 0.9375
vt 0.625 0.9375
vt 0.625 0.5625
vt 0.5625 0.5625
vt 0.5625 0.9375
vt 0.625 0.9375
vt 0.625 0.5625
vt 0.5625 0.5625
vt 0.5625 0.9375
vt 0.6875 0.9375
vt 0.6875 0.5625
vt 0.5625 0.0625
vt 0.5625 0.5625
vt 0.6875 0.5625
vt 0.6875 0.0625
vt 0.5625 0.5625
vt 0.625 0.5625
vt 0.625 0.0625
vt 0.5625 0.0625
vt 0.5625 0.0625
vt 0.625 0.0625
vt 0.625 0.5625
vt 0.5625 0.5625
vt 0.5625 0.0625
vt 0.5625 0.125
vt 0.6875 0.125
vt 0.6875 0.0625
vt 0.5625 0.875
vt 0.5625 0.9375
vt 0.6875 0.9375
vt 0.6875 0.875
vt 0.5625 0.5625
vt 0.5625 0.9375
vt 0.625 0.9375
vt 0.625 0.5625
vt 0.5625 0.5625
vt 0.5625 0.9375
vt 0.625 0.9375
vt 0.625 0.5625
vt 0.5625 0.5625
vt 0.5625 0.9375
vt 0.6875 0.9375
vt 0.6875 0.5625
vt 0.5625 0.0625
vt 0.5625 0.5625
vt 0.6875 0.5625
vt 0.6875 0.0625
vt 0.5625 0.5625
vt 0.625 0.5625
vt 0.625 0.0625
vt 0.5625 0.0625
vt 0.5625 0.0625
vt 0.625 0.0625
vt 0.625 0.5625
vt 0.5625 0.5625
vt 0.5625 0.0625
vt 0.5625 0.125
vt 0.6875 0.125
vt 0.6875 0.0625
vt 0.5625 0.875
vt 0.5625 0.9375
vt 0.6875 0.9375
vt 0.6875 0.875
vt 0.5625 0.5625
vt 0.5625 0.9375
vt 0.625 0.9375
vt 0.625 0.5625
vt 0.5625 0.5625
vt 0.5625 0.9375
vt 0.625 0.9375
vt 0.625 0.5625
vt 0.5625 0.5625
vt 0.5625 0.9375
vt 0.6875 0.9375
vt 0.6875 0.5625
vt 0.6875 0.2188
vt 0.7031 0.2188
vt 0.7031 0.1875
vt 0.6875 0.1875
vt 0.6875 0.2188
vt 0.7031 0.2188
vt 0.7031 0.1875
vt 0.6875 0.1875
vt 0.6875 0.2188
vt 0.7031 0.2188
vt 0.7031 0.2031
vt 0.6875 0.2031
vt 0.6875 0.2031
vt 0.7031 0.2031
vt 0.7031 0.1875
vt 0.6875 0.1875
vt 0.6875 0.2188
vt 0.7031 0.2188
vt 0.7031 0.1875
vt 0.6875 0.1875
vt 0.7969 0.7031
vt 0.8438 0.7031
vt 0.8438 0.5
vt 0.7969 0.5
vt 0.7969 0.7031
vt 0.8438 0.7031
vt 0.8438 0.5
vt 0.7969 0.5
vt 0.8438 0.75
vt 0.8906 0.75
vt 0.8906 0.7031
vt 0.8438 0.7031
vt 0.8438 0.7031
vt 0.8906 0.7031
vt 0.8906 0.5
vt 0.8438 0.5
vt 0.8438 0.7031
vt 0.8906 0.7031
vt 0.8906 0.5
vt 0.8438 0.5
vt 0.8438 0.7031
vt 0.8906 0.7031
vt 0.8906 0.5
vt 0.8438 0.5
vt 0.8438 0.7031
vt 0.8906 0.7031
vt 0.8906 0.5
vt 0.8438 0.5
vt 0.8438 0.75
vt 0.8906 0.75
vt 0.8906 0.7031
vt 0.8438 0.7031
vt 0.7969 0.7031
vt 0.8438 0.7031
vt 0.8438 0.5
vt 0.7969 0.5
vt 0.7969 0.7031
vt 0.8438 0.7031
vt 0.8438 0.5
vt 0.7969 0.5
vt 0.7969 0.7031
vt 0.8438 0.7031
vt 0.8438 0.5
vt 0.7969 0.5
vt 0.7969 0.7031
vt 0.8438 0.7031
vt 0.8438 0.5
vt 0.7969 0.5
vt 0.8438 0.75
vt 0.8906 0.75
vt 0.8906 0.7031
vt 0.8438 0.7031
vt 0.8438 0.7031
vt 0.8906 0.7031
vt 0.8906 0.5
vt 0.8438 0.5
vt 0.8438 0.7031
vt 0.8906 0.7031
vt 0.8906 0.5
vt 0.8438 0.5
vt 0.7969 0.7031
vt 0.8438 0.7031
vt 0.8438 0.5
vt 0.7969 0.5
vt 0.7969 0.7031
vt 0.8438 0.7031
vt 0.8438 0.5
vt 0.7969 0.5
vt 0.8438 0.75
vt 0.8906 0.75
vt 0.8906 0.7031
vt 0.8438 0.7031
vt 0.8438 0.7031
vt 0.8906 0.7031
vt 0.8906 0.5
vt 0.8438 0.5
vt 0.8438 0.7031
vt 0.8906 0.7031
vt 0.8906 0.5
vt 0.8438 0.5
vt 0.7969 0.5
vt 0.7969 0.75
vt 0.8438 0.75
vt 0.8438 0.5
vt 0.7969 0.5
vt 0.7969 0.75
vt 0.8438 0.75
vt 0.8438 0.5
vt 0.5 0
vt 0 0
vt 0 0.25
vt 0.5 0.25
vt 0.5 0.25
vt 0 0.25
vt 0 0
vt 0.5 0
vt 0.75 0.25
vt 0.75 0.75
vt 0.7969 0.75
vt 0.7969 0.25
vt 0 0.1875
vt 0 0.375
vt 0.2813 0.375
vt 0.2813 0.1875
vt 0.6875 0.2188
vt 0.7031 0.2188
vt 0.7031 0.1875
vt 0.6875 0.1875
vt 0.6875 0.2188
vt 0.7031 0.2188
vt 0.7031 0.1875
vt 0.6875 0.1875
vt 0.6875 0.2188
vt 0.7031 0.2188
vt 0.7031 0.2031
vt 0.6875 0.2031
vt 0.6875 0.2031
vt 0.7031 0.2031
vt 0.7031 0.1875
vt 0.6875 0.1875
vt 0.6875 0.2188
vt 0.7031 0.2188
vt 0.7031 0.1875
vt 0.6875 0.1875
vt 0.6875 0.2188
vt 0.7031 0.2188
vt 0.7031 0.1875
vt 0.6875 0.1875
vt 0.6875 0.2188
vt 0.7031 0.2188
vt 0.7031 0.1875
vt 0.6875 0.1875
vt 0.6875 0.2188
vt 0.7031 0.2188
vt 0.7031 0.2031
vt 0.6875 0.2031
vt 0.6875 0.2031
vt 0.7031 0.2031
vt 0.7031 0.1875
vt 0.6875 0.1875
vt 0.6875 0.2188
vt 0.7031 0.2188
vt 0.7031 0.1875
vt 0.6875 0.1875
vt 0.6875 0.2188
vt 0.7031 0.2188
vt 0.7031 0.1875
vt 0.6875 0.1875
vt 0.6875 0.2188
vt 0.7031 0.2188
vt 0.7031 0.1875
vt 0.6875 0.1875
vt 0.6875 0.2188
vt 0.7031 0.2188
vt 0.7031 0.2031
vt 0.6875 0.2031
vt 0.6875 0.2031
vt 0.7031 0.2031
vt 0.7031 0.1875
vt 0.6875 0.1875
vt 0.6875 0.2188
vt 0.7031 0.2188
vt 0.7031 0.1875
vt 0.6875 0.1875
vt 0.7188 0.2656
vt 0.7344 0.2656
vt 0.7344 0.2188
vt 0.7188 0.2188
vt 0.6875 0.2656
vt 0.7031 0.2656
vt 0.7031 0.2188
vt 0.6875 0.2188
vt 0.6875 0.2656
vt 0.7344 0.2656
vt 0.7344 0.25
vt 0.6875 0.25
vt 0.6875 0.2344
vt 0.7344 0.2344
vt 0.7344 0.2188
vt 0.6875 0.2188
vt 0.6875 0.2656
vt 0.7344 0.2656
vt 0.7344 0.2188
vt 0.6875 0.2188
vt 0.6875 0.875
vt 0.6875 1
vt 0.5625 1
vt 0.5625 0.875
vt 0.6875 1
vt 0.5625 1
vt 0.5625 0.875
vt 0.6875 0.875
vt 1 0.125
vt 1 0.25
vt 0.875 0.25
vt 0.875 0.125
vt 0.875 0.125
vt 0.75 0.125
vt 0.75 0
vt 0.875 0
vt 0.6875 0.6875
vt 0.5625 0.6875
vt 0.5625 0.625
vt 0.6875 0.625
vt 0.6875 0.6875
vt 0.5625 0.6875
vt 0.5625 0.625
vt 0.6875 0.625
vt 0.5625 0.6875
vt 0.6875 0.6875
vt 0.6875 0.625
vt 0.5625 0.625
vt 0.5625 0.6875
vt 0.6875 0.6875
vt 0.6875 0.625
vt 0.5625 0.625
vt 0.6875 0.4688
vt 0.6875 0.375
vt 0.875 0.375
vt 0.875 0.4688
vt 0.375 0.375
vt 0.375 0.4688
vt 0.5625 0.4688
vt 0.5625 0.375
vt 0.5313 0.375
vt 0.7188 0.375
vt 0.7188 0.4688
vt 0.5313 0.4688
vt 0.5313 0.4688
vt 0.7188 0.4688
vt 0.7188 0.375
vt 0.5313 0.375
vt 0.7188 0.375
vt 0.8438 0.375
vt 0.8438 0.25
vt 0.7188 0.25
vt 0.7188 0.1875
vt 0.6875 0.2188
vt 0.6875 0.3438
vt 0.7188 0.375
vt 0.7188 0.375
vt 0.6875 0.3438
vt 0.5625 0.3438
vt 0.5313 0.375
vt 0.5313 0.375
vt 0.5625 0.3438
vt 0.5625 0.2188
vt 0.5313 0.1875
vt 0.5313 0.1875
vt 0.5625 0.2188
vt 0.6875 0.2188
vt 0.7188 0.1875
vt 0.6875 0.2188
vt 0.6563 0.2188
vt 0.6563 0.3438
vt 0.6875 0.3438
vt 0.5625 0.3125
vt 0.5625 0.3438
vt 0.6875 0.3438
vt 0.6875 0.3125
vt 0.5625 0.3438
vt 0.5938 0.3438
vt 0.5938 0.2188
vt 0.5625 0.2188
vt 0.6875 0.25
vt 0.6875 0.2188
vt 0.5625 0.2188
vt 0.5625 0.25
vt 0.7188 0.5
vt 0.6875 0.4688
vt 0.875 0.4688
vt 0.8438 0.5
vt 0.375 0.4688
vt 0.4063 0.5
vt 0.5313 0.5
vt 0.5625 0.4688
vt 0.5313 0.4688
vt 0.7188 0.4688
vt 0.6875 0.5
vt 0.5625 0.5
vt 0.5625 0.5
vt 0.6875 0.5
vt 0.7188 0.4688
vt 0.5313 0.4688
vt 0.5625 0.3438
vt 0.6875 0.3438
vt 0.6875 0.2188
vt 0.5625 0.2188
vt 0.7188 0.25
vt 0.8438 0.25
vt 0.8438 0.125
vt 0.7188 0.125
vt 0.5313 0.2188
vt 0.7188 0.2188
vt 0.7188 0.0313
vt 0.5313 0.0313
vt 0.75 0
vt 0.7188 0.0313
vt 0.7188 0.2188
vt 0.75 0.25
vt 0.75 0.25
vt 0.7188 0.2188
vt 0.5313 0.2188
vt 0.5 0.25
vt 0.5 0.25
vt 0.5313 0.2188
vt 0.5313 0.0313
vt 0.5 0
vt 0.5 0
vt 0.5313 0.0313
vt 0.7188 0.0313
vt 0.75 0
vt 0.125 0.4844
vt 0.1094 0.4844
vt 0.1094 0.6094
vt 0.125 0.6094
vt 0 0.6094
vt 0 0.4844
vt 0.0156 0.4844
vt 0.0156 0.6094
vt 0.125 0.6094
vt 0.125 0.4844
vt 0 0.4844
vt 0 0.6094
vt 0 0.5
vt 0.125 0.5
vt 0.125 0.4844
vt 0 0.4844
vt 0.125 0.5938
vt 0.125 0.6094
vt 0 0.6094
vt 0 0.5938
vt 0.7188 1
vt 0.75 1
vt 0.75 0.75
vt 0.7188 0.75
vt 0 0.75
vt 0 1
vt 0.2344 1
vt 0.2344 0.75
vt 0.8281 0.3594
vt 0.8281 0.3438
vt 0.7813 0.3438
vt 0.7813 0.3594
vt 0.8281 0.3594
vt 0.8281 0.3438
vt 0.7813 0.3438
vt 0.7813 0.3594
vt 0.7813 0.3594
vt 0.8281 0.3594
vt 0.8281 0.3438
vt 0.7813 0.3438
vt 0.7813 0.3594
vt 0.8281 0.3594
vt 0.8281 0.3438
vt 0.7813 0.3438
vt 0.7813 0.2813
vt 0.8281 0.2813
vt 0.8281 0.2344
vt 0.7813 0.2344
vt 0.7813 0.2813
vt 0.8281 0.2813
vt 0.8281 0.2344
vt 0.7813 0.2344
vt 0.875 0.875
vt 0.875 1
vt 0.9688 1
vt 0.9688 0.875
vt 0.875 0.875
vt 0.875 1
vt 0.9688 1
vt 0.9688 0.875
vt 0.875 1
vt 0.9688 1
vt 0.9688 0.875
vt 0.875 0.875
vt 0.875 1
vt 0.9688 1
vt 0.9688 0.875
vt 0.875 0.875
vt 0.875 0.875
vt 0.9688 0.875
vt 0.9688 0.7813
vt 0.875 0.7813
vt 0.5938 0.4688
vt 0.6406 0.4688
vt 0.6406 0.4531
vt 0.5938 0.4531
vt 0.6406 0.4375
vt 0.6406 0.4063
vt 0.6094 0.4063
vt 0.6094 0.4375
vt 0.5938 0.4063
vt 0.5781 0.4063
vt 0.5781 0.4375
vt 0.5938 0.4375
vt 0.75 0.4844
vt 0.75 0.6094
vt 0.7344 0.6094
vt 0.7344 0.4844
vt 0.75 0.4844
vt 0.75 0.6094
vt 0.7344 0.6094
vt 0.7344 0.4844
vt 0.625 0.4844
vt 0.6406 0.4844
vt 0.6406 0.6094
vt 0.625 0.6094
vt 0.6406 0.6094
vt 0.625 0.6094
vt 0.625 0.4844
vt 0.6406 0.4844
vt 0.875 0.6094
vt 0.75 0.6094
vt 0.75 0.4844
vt 0.875 0.4844
vt 0.75 0.4844
vt 0.75 0.6094
vt 0.625 0.6094
vt 0.625 0.4844
vt 0.75 0.4844
vt 0.7656 0.4844
vt 0.7656 0.6094
vt 0.75 0.6094
vt 0.7656 0.4844
vt 0.7656 0.6094
vt 0.75 0.6094
vt 0.75 0.4844
vt 0.7656 0.4844
vt 0.7656 0.6094
vt 0.75 0.6094
vt 0.75 0.4844
vt 0.7656 0.6094
vt 0.75 0.6094
vt 0.75 0.4844
vt 0.7656 0.4844
vt 0.125 0.6875
vt 0.125 0.7344
vt 0.0625 0.7344
vt 0.0625 0.6875
vt 0.0781 0.6875
vt 0.0781 0.7344
vt 0.0625 0.7344
vt 0.0625 0.6875
vt 0.125 0.6875
vt 0.125 0.7344
vt 0.1094 0.7344
vt 0.1094 0.6875
vt 0 0.7344
vt 0.0625 0.7344
vt 0.0625 0.6875
vt 0 0.6875
vt 0 0.7344
vt 0.0156 0.7344
vt 0.0156 0.6875
vt 0 0.6875
vt 0.0469 0.7344
vt 0.0625 0.7344
vt 0.0625 0.6875
vt 0.0469 0.6875
vn 1 0 0
vn -1 0 0
vn 0 -1 0
vn 0 0 1
vn 1 0 0
vn -1 0 0
vn 0 0 -1
vn 0 0 1
vn 0 -1 0
vn 0 0 -1
vn 0 0 1
vn 0 0 1
vn 0 1 0
vn 0 0 -1
vn 0 0 -1
vn 0 -1 0
vn 0 0 1
vn 1 0 0
vn -1 0 0
vn 0 0 1
vn 1 0 0
vn 1 0 0
vn 1 0 0
vn 1 0 0
vn 1 0 0
vn 0 0 -1
vn 0 -1 0
vn 0 0 1
vn 0 1 0
vn -1 0 0
vn -1 0 0
vn -1 0 0
vn -1 0 0
vn -1 0 0
vn 0 0 -1
vn 0 -1 0
vn 0 0 1
vn 0 1 0
vn 0 0 -1
vn 1 0 0
vn 0 0 1
vn -1 0 0
vn 0 -1 0
vn 0 0 -1
vn 0 0 -1
vn 1 0 0
vn 0 0 -1
vn -1 0 0
vn 0 0 1
vn 0 1 0
vn 0 1 0
vn 0 -1 0
vn 0 0 -1
vn 0 0 1
vn 0 -1 0
vn 0 0 -1
vn 0.71 0.71 0
vn -0.71 0.71 0
vn 0 1 0
vn 0 0 -1
vn 1 0 0
vn 0 0 -1
vn -1 0 0
vn 0 0 -1
vn -1 0 0
vn 1 0 0
vn 0 1 0
vn 0 -1 0
vn 0 0 -1
vn 0 -1 0
vn 0 0 -1
vn 0.71 0.71 0
vn -0.71 0.71 0
vn 0 1 0
vn 0 0 -1
vn 1 0 0
vn 0 0 -1
vn -1 0 0
vn 0 0 -1
vn -1 0 0
vn 1 0 0
vn 0 1 0
vn 0 -1 0
vn 0 0 -1
vn 1 0 0
vn -1 0 0
vn 0 1 0.04
vn 0 -1 -0.04
vn 0 0.04 -1
vn 0 -0.04 1
vn -0.97 0 -0.24
vn 0.97 0 -0.24
vn 0 0.97 -0.24
vn 0 -0.97 -0.24
vn -0.97 0 -0.24
vn 0.97 0 -0.24
vn 0 0.97 -0.24
vn 0 -0.97 -0.24
vn -0.97 0 -0.24
vn 0.97 0 -0.24
vn 0 0.97 -0.24
vn 0 -0.97 -0.24
vn -1 0.03 0
vn 1 -0.03 0
vn 0 0 -1
vn 0 0 1
vn -0.03 -1 0
vn 0.03 1 0
vn -1 0.03 0
vn 0 0 -1
vn 0 0 1
vn -0.03 -1 0
vn 0.03 1 0
vn -1 0.03 0
vn 0 0 -1
vn 0 0 1
vn -0.03 -1 0
vn 0.03 1 0
vn -1 0.03 0
vn 0 0 -1
vn 0 0 1
vn -0.03 -1 0
vn 0.03 1 0
vn -1 0.03 0
vn 0 0 -1
vn 0 0 1
vn -0.03 -1 0
vn 0.03 1 0
vn -1 0.03 0
vn 0 0 -1
vn 0 0 1
vn -0.03 -1 0
vn 0.03 1 0
vn -1 0.03 0
vn 1 -0.03 0
vn 0 0 -1
vn 0 0 1
vn -0.03 -1 0
vn 0.03 1 0
vn -1 0.03 0
vn 0 0 -1
vn 0 0 1
vn -0.03 -1 0
vn 0.03 1 0
vn -1 0.03 0
vn 0 0 -1
vn 0 0 1
vn -0.03 -1 0
vn 0.03 1 0
vn -1 0.03 0
vn 0 0 -1
vn 0 0 1
vn -0.03 -1 0
vn 0.03 1 0
vn -1 0.03 0
vn 0 0 -1
vn 0 0 1
vn -0.03 -1 0
vn 0.03 1 0
vn -1 0.03 0
vn 0 0 -1
vn 0 0 1
vn -0.03 -1 0
vn 0.03 1 0
vn -1 0.03 0
vn 1 -0.03 0
vn 0 0 -1
vn 0 0 1
vn -0.03 -1 0
vn 0.03 1 0
vn -1 0.03 0
vn 0 0 -1
vn 0 0 1
vn -0.03 -1 0
vn 0.03 1 0
vn -1 0.03 0
vn 0 0 -1
vn 0 0 1
vn -0.03 -1 0
vn 0.03 1 0
vn -1 0.03 0
vn 0 0 -1
vn 0 0 1
vn -0.03 -1 0
vn 0.03 1 0
vn -1 0.03 0
vn 0 0 -1
vn 0 0 1
vn -0.03 -1 0
vn 0.03 1 0
vn -1 0.03 0
vn 0 0 -1
vn 0 0 1
vn -0.03 -1 0
vn 0.03 1 0
vn 1 0 0
vn 0 1 0
vn 0 -1 0
vn 0 0 -1
vn 1 0 0
vn 0 1 0
vn 0 -1 0
vn 0 0 -1
vn 1 0 0
vn 0 1 0
vn 0 -1 0
vn 0 0 -1
vn 1 0 0
vn 0 1 0
vn 0 -1 0
vn 0 0 -1
vn 1 0 0
vn 0 1 0
vn 0 -1 0
vn 0 0 -1
vn 1 0 0
vn 0 1 0
vn 0 -1 0
vn 0 0 -1
vn 1 0 0
vn -1 0 0
vn 0 1 0
vn 0 -1 0
vn 0 0 -1
vn 1 0 0
vn -1 0 0
vn 0 -1 0
vn 0 0 -1
vn 0 0 1
vn 1 0 0
vn -1 0 0
vn 0 -1 0
vn 0 0 -1
vn 0 0 1
vn 1 0 0
vn -1 0 0
vn 0 -1 0
vn 0 0 -1
vn 0 0 1
vn 1 0 0
vn -1 0 0
vn 0 -1 0
vn 0 0 -1
vn 0 0 1
vn 1 0 0
vn -1 0 0
vn 0 1 0
vn 0 -1 0
vn 0 0 -1
vn -1 0 0
vn 1 0 0
vn -1 0 0
vn 0 1 0
vn 0 -1 0
vn 0 0 -1
vn 1 0 0
vn -1 0 0
vn 0 1 0
vn 0 -1 0
vn 0 0 -1
vn 1 0 0
vn -1 0 0
vn 0 1 0
vn 0 -1 0
vn 0 0 -1
vn 1 0 0
vn -1 0 0
vn 0 1 0
vn 0 -1 0
vn 0 0 -1
vn 0 1 0.01
vn 0 0.24 -0.97
vn 1 0 0
vn -1 0 0
vn 0 1 0.01
vn 0 -1 -0.01
vn 1 0 -0.01
vn -1 0 0.01
vn 1 0 0
vn -1 0 0
vn 0 -0.22 0.98
vn 0 0.22 -0.98
vn 0 -0.98 -0.22
vn 0 -0.98 -0.22
vn 0 -0.98 -0.22
vn 0 -0.98 -0.22
vn 0 -0.98 -0.22
vn 1 0 0
vn 0 0.22 -0.98
vn -1 0 0
vn 0 -0.22 0.98
vn 0.71 0.69 0.15
vn -0.71 0.69 0.15
vn 0 0.54 0.84
vn 0 0.84 -0.54
vn 0 0.98 0.22
vn 0 -0.98 -0.22
vn 0 1 0
vn 0 1 0
vn 0 1 0
vn 0 1 0
vn 0 1 0
vn 1 0 0
vn -1 0 0
vn 0 1 0
vn 0 0 -1
vn 0 0 1
vn 0 0 -1
vn 0 0 -1
vn 1 0 0
vn -1 0 0
vn 0 1 0
vn 0 -1 0
vn 0 0 -1
vn 0 0 1
vn 1 0 0
vn -1 0 0
vn 0 1 0
vn 0 -1 0
vn 0 0 1
vn 0 0 -1
vn 0 0 -1
vn 0 0 -1
vn 0 -1 0
vn 0 0 -1
vn 0 1 0
vn 0 0 1
vn -1 0 0
vn 1 0 0
vn 0 1 0
vn 0 -1 0
vn 0 0 -1
vn 0 0 1
vn -1 0 0
vn 0 0 -1
vn 0 0 1
vn 1 0 0
vn 0 0 -1
vn 0 0 1
usemtl common_table
f 1/1/1 2/2/1 4/3/1 3/4/1
f 6/5/2 5/6/2 7/7/2 8/8/2
f 7/9/3 3/10/3 4/11/3 8/12/3
f 2/13/4 6/14/4 8/15/4 4/16/4
usemtl common_steel
f 11/17/5 12/18/5 13/19/5 9/20/5
f 15/21/6 14/22/6 10/23/6 16/24/6
f 23/25/7 24/26/7 10/27/7 14/28/7
f 16/29/8 22/30/8 21/31/8 15/32/8
usemtl common_bottom
f 25/33/9 26/34/9 20/35/9 19/36/9
usemtl common_steel
f 17/37/10 25/38/10 24/39/10 9/40/10
f 26/41/11 22/42/11 16/43/11 20/44/11
f 12/45/12 21/46/12 22/47/12 13/48/12
usemtl common_wooden_base_light
f 23/49/13 21/50/13 12/51/13 11/52/13
usemtl common_steel
f 24/53/14 23/54/14 11/55/14 9/56/14
f 10/57/15 24/58/15 25/59/15 19/60/15
usemtl common_bottom
f 26/61/16 25/62/16 17/63/16 18/64/16
usemtl common_steel
f 22/65/17 26/66/17 18/67/17 13/68/17
f 27/69/18 28/70/18 30/71/18 29/72/18
f 32/73/19 31/74/19 14/75/19 15/76/19
f 28/77/20 32/78/20 15/79/20 30/80/20
f 39/81/21 40/82/21 37/83/21 38/84/21
f 18/85/22 36/86/22 34/87/22 13/88/22
f 13/89/23 34/90/23 33/91/23 9/92/23
f 9/93/24 33/94/24 35/95/24 17/96/24
f 17/97/25 35/98/25 36/99/25 18/100/25
f 36/101/26 37/102/26 40/103/26 34/104/26
f 34/105/27 40/106/27 39/107/27 33/108/27
f 33/109/28 39/110/28 38/111/28 35/112/28
f 35/113/29 38/114/29 37/115/29 36/116/29
f 43/117/30 41/118/30 42/119/30 44/120/30
f 46/121/31 47/122/31 20/123/31 16/124/31
f 45/125/32 46/126/32 16/127/32 10/128/32
f 48/129/33 45/130/33 10/131/33 19/132/33
f 47/133/34 48/134/34 19/135/34 20/136/34
f 41/137/35 43/138/35 47/139/35 46/140/35
f 42/141/36 41/142/36 46/143/36 45/144/36
f 44/145/37 42/146/37 45/147/37 48/148/37
f 43/149/38 44/150/38 48/151/38 47/152/38
usemtl common_bottom
f 55/153/39 51/154/39 49/155/39 54/156/39
f 54/157/40 49/158/40 50/159/40 53/160/40
f 53/161/41 50/162/41 52/163/41 57/164/41
f 57/165/42 52/166/42 51/167/42 55/168/42
usemtl common_wooden_base_light
f 62/169/43 60/170/43 61/171/43 63/172/43
usemtl common_steel
f 27/173/44 59/174/44 60/175/44 62/176/44
f 66/177/45 64/178/45 65/179/45 67/180/45
f 68/181/46 69/182/46 12/183/46 11/184/46
f 59/185/47 68/186/47 11/187/47 71/188/47
usemtl common_wooden_base_light
f 70/189/48 59/190/48 71/191/48 72/192/48
usemtl common_steel
f 28/193/49 30/194/49 12/195/49 69/196/49
f 69/197/50 68/198/50 58/199/50 56/200/50
usemtl data_input_machine
f 78/201/51 74/202/51 73/203/51 77/204/51
f 79/205/52 75/206/52 76/207/52 80/208/52
f 77/209/53 73/210/53 75/211/53 79/212/53
f 74/213/54 78/214/54 80/215/54 76/216/54
usemtl common_thingies
f 85/217/55 82/218/55 83/219/55 86/220/55
f 84/221/56 81/222/56 82/223/56 85/224/56
f 87/225/57 88/226/57 90/227/57 89/228/57
f 92/229/58 91/230/58 93/231/58 94/232/58
f 92/233/59 88/234/59 87/235/59 91/236/59
f 91/237/60 87/238/60 89/239/60 93/240/60
f 95/241/61 96/242/61 98/243/61 97/244/61
f 93/245/62 95/246/62 97/247/62 84/248/62
f 100/249/63 99/250/63 101/251/63 102/252/63
f 99/253/64 89/254/64 81/255/64 101/256/64
f 94/257/65 93/258/65 85/259/65 86/260/65
f 89/261/66 90/262/66 83/263/66 82/264/66
f 97/265/67 98/266/67 102/267/67 101/268/67
f 99/269/68 100/270/68 96/271/68 95/272/68
f 104/273/69 106/274/69 105/275/69 103/276/69
f 111/277/70 108/278/70 109/279/70 112/280/70
f 110/281/71 107/282/71 108/283/71 111/284/71
f 113/285/72 114/286/72 116/287/72 115/288/72
f 118/289/73 117/290/73 119/291/73 120/292/73
f 118/293/74 114/294/74 113/295/74 117/296/74
f 117/297/75 113/298/75 115/299/75 119/300/75
f 121/301/76 122/302/76 124/303/76 123/304/76
f 119/305/77 121/306/77 123/307/77 110/308/77
f 126/309/78 125/310/78 127/311/78 128/312/78
f 125/313/79 115/314/79 107/315/79 127/316/79
f 120/317/80 119/318/80 111/319/80 112/320/80
f 115/321/81 116/322/81 109/323/81 108/324/81
f 123/325/82 124/326/82 128/327/82 127/328/82
f 125/329/83 126/330/83 122/331/83 121/332/83
f 130/333/84 132/334/84 131/335/84 129/336/84
usemtl data_input_machine
f 133/337/85 134/338/85 136/339/85 135/340/85
f 138/341/86 137/342/86 139/343/86 140/344/86
f 138/345/87 134/346/87 133/347/87 137/348/87
f 139/349/88 135/350/88 136/351/88 140/352/88
f 137/353/89 133/354/89 135/355/89 139/356/89
f 134/357/90 138/358/90 140/359/90 136/360/90
usemtl circuit_basic
f 141/361/91 142/362/91 144/363/91 143/364/91
f 146/365/92 145/366/92 147/367/92 148/368/92
f 146/369/93 142/370/93 141/371/93 145/372/93
f 147/373/94 143/374/94 144/375/94 148/376/94
f 149/377/95 150/378/95 152/379/95 151/380/95
f 154/381/96 153/382/96 155/383/96 156/384/96
f 154/385/97 150/386/97 149/387/97 153/388/97
f 155/389/98 151/390/98 152/391/98 156/392/98
f 157/393/99 158/394/99 160/395/99 159/396/99
f 162/397/100 161/398/100 163/399/100 164/400/100
f 162/401/101 158/402/101 157/403/101 161/404/101
f 163/405/102 159/406/102 160/407/102 164/408/102
f 169/409/103 167/410/103 166/411/103 168/412/103
f 172/413/104 170/414/104 171/415/104 173/416/104
f 166/417/105 167/418/105 171/419/105 170/420/105
f 169/421/106 168/422/106 172/423/106 173/424/106
f 168/425/107 166/426/107 170/427/107 172/428/107
f 173/429/108 171/430/108 167/431/108 169/432/108
f 177/433/109 175/434/109 174/435/109 176/436/109
f 174/437/110 175/438/110 179/439/110 178/440/110
f 177/441/111 176/442/111 180/443/111 181/444/111
f 176/445/112 174/446/112 178/447/112 180/448/112
f 181/449/113 179/450/113 175/451/113 177/452/113
f 185/453/114 183/454/114 182/455/114 184/456/114
f 182/457/115 183/458/115 187/459/115 186/460/115
f 185/461/116 184/462/116 188/463/116 189/464/116
f 184/465/117 182/466/117 186/467/117 188/468/117
f 189/469/118 187/470/118 183/471/118 185/472/118
f 193/473/119 191/474/119 190/475/119 192/476/119
f 190/477/120 191/478/120 195/479/120 194/480/120
f 193/481/121 192/482/121 196/483/121 197/484/121
f 192/485/122 190/486/122 194/487/122 196/488/122
f 197/489/123 195/490/123 191/491/123 193/492/123
f 201/493/124 199/494/124 198/495/124 200/496/124
f 198/497/125 199/498/125 203/499/125 202/500/125
f 201/501/126 200/502/126 204/503/126 205/504/126
f 200/505/127 198/506/127 202/507/127 204/508/127
f 205/509/128 203/510/128 199/511/128 201/512/128
f 208/513/129 165/514/129 206/515/129 207/516/129
f 206/517/130 165/518/130 210/519/130 209/520/130
f 208/521/131 207/522/131 211/523/131 212/524/131
f 207/525/132 206/526/132 209/527/132 211/528/132
f 212/529/133 210/530/133 165/531/133 208/532/133
f 217/533/134 215/534/134 214/535/134 216/536/134
f 220/537/135 218/538/135 219/539/135 221/540/135
f 214/541/136 215/542/136 219/543/136 218/544/136
f 217/545/137 216/546/137 220/547/137 221/548/137
f 216/549/138 214/550/138 218/551/138 220/552/138
f 221/553/139 219/554/139 215/555/139 217/556/139
f 225/557/140 223/558/140 222/559/140 224/560/140
f 222/561/141 223/562/141 227/563/141 226/564/141
f 225/565/142 224/566/142 228/567/142 229/568/142
f 224/569/143 222/570/143 226/571/143 228/572/143
f 229/573/144 227/574/144 223/575/144 225/576/144
f 233/577/145 231/578/145 230/579/145 232/580/145
f 230/581/146 231/582/146 235/583/146 234/584/146
f 233/585/147 232/586/147 236/587/147 237/588/147
f 232/589/148 230/590/148 234/591/148 236/592/148
f 237/593/149 235/594/149 231/595/149 233/596/149
f 241/597/150 239/598/150 238/599/150 240/600/150
f 238/601/151 239/602/151 243/603/151 242/604/151
f 241/605/152 240/606/152 244/607/152 245/608/152
f 240/609/153 238/610/153 242/611/153 244/612/153
f 245/613/154 243/614/154 239/615/154 241/616/154
f 249/617/155 247/618/155 246/619/155 248/620/155
f 246/621/156 247/622/156 251/623/156 250/624/156
f 249/625/157 248/626/157 252/627/157 253/628/157
f 248/629/158 246/630/158 250/631/158 252/632/158
f 253/633/159 251/634/159 247/635/159 249/636/159
f 256/637/160 213/638/160 254/639/160 255/640/160
f 254/641/161 213/642/161 258/643/161 257/644/161
f 256/645/162 255/646/162 259/647/162 260/648/162
f 255/649/163 254/650/163 257/651/163 259/652/163
f 260/653/164 258/654/164 213/655/164 256/656/164
f 265/657/165 263/658/165 262/659/165 264/660/165
f 268/661/166 266/662/166 267/663/166 269/664/166
f 262/665/167 263/666/167 267/667/167 266/668/167
f 265/669/168 264/670/168 268/671/168 269/672/168
f 264/673/169 262/674/169 266/675/169 268/676/169
f 269/677/170 267/678/170 263/679/170 265/680/170
f 273/681/171 271/682/171 270/683/171 272/684/171
f 270/685/172 271/686/172 275/687/172 274/688/172
f 273/689/173 272/690/173 276/691/173 277/692/173
f 272/693/174 270/694/174 274/695/174 276/696/174
f 277/697/175 275/698/175 271/699/175 273/700/175
f 281/701/176 279/702/176 278/703/176 280/704/176
f 278/705/177 279/706/177 283/707/177 282/708/177
f 281/709/178 280/710/178 284/711/178 285/712/178
f 280/713/179 278/714/179 282/715/179 284/716/179
f 285/717/180 283/718/180 279/719/180 281/720/180
f 289/721/181 287/722/181 286/723/181 288/724/181
f 286/725/182 287/726/182 291/727/182 290/728/182
f 289/729/183 288/730/183 292/731/183 293/732/183
f 288/733/184 286/734/184 290/735/184 292/736/184
f 293/737/185 291/738/185 287/739/185 289/740/185
f 297/741/186 295/742/186 294/743/186 296/744/186
f 294/745/187 295/746/187 299/747/187 298/748/187
f 297/749/188 296/750/188 300/751/188 301/752/188
f 296/753/189 294/754/189 298/755/189 300/756/189
f 301/757/190 299/758/190 295/759/190 297/760/190
f 304/761/191 261/762/191 302/763/191 303/764/191
f 302/765/192 261/766/192 306/767/192 305/768/192
f 304/769/193 303/770/193 307/771/193 308/772/193
f 303/773/194 302/774/194 305/775/194 307/776/194
f 308/777/195 306/778/195 261/779/195 304/780/195
usemtl common_copper_cable
f 309/781/196 310/782/196 312/783/196 311/784/196
f 314/785/197 310/786/197 309/787/197 313/788/197
f 315/789/198 311/790/198 312/791/198 316/792/198
f 313/793/199 309/794/199 311/795/199 315/796/199
f 317/797/200 318/798/200 320/799/200 319/800/200
f 321/801/201 318/802/201 317/803/201 314/804/201
f 316/805/202 319/806/202 320/807/202 322/808/202
f 314/809/203 317/810/203 319/811/203 316/812/203
f 323/813/204 324/814/204 326/815/204 325/816/204
f 328/817/205 324/818/205 323/819/205 327/820/205
f 329/821/206 325/822/206 326/823/206 330/824/206
f 327/825/207 323/826/207 325/827/207 329/828/207
f 331/829/208 332/830/208 334/831/208 333/832/208
f 335/833/209 332/834/209 331/835/209 328/836/209
f 330/837/210 333/838/210 334/839/210 336/840/210
f 328/841/211 331/842/211 333/843/211 330/844/211
f 337/845/212 338/846/212 340/847/212 339/848/212
f 342/849/213 338/850/213 337/851/213 341/852/213
f 343/853/214 339/854/214 340/855/214 344/856/214
f 341/857/215 337/858/215 339/859/215 343/860/215
f 345/861/216 346/862/216 348/863/216 347/864/216
f 349/865/217 346/866/217 345/867/217 342/868/217
f 344/869/218 347/870/218 348/871/218 350/872/218
f 342/873/219 345/874/219 347/875/219 344/876/219
usemtl common_steel
f 351/877/220 352/878/220 354/879/220 353/880/220
f 356/881/221 355/882/221 357/883/221 358/884/221
f 356/885/222 352/886/222 351/887/222 355/888/222
f 357/889/223 353/890/223 354/891/223 358/892/223
f 355/893/224 351/894/224 353/895/224 357/896/224
usemtl common_table
f 359/897/225 360/898/225 362/899/225 361/900/225
f 364/901/226 363/902/226 365/903/226 366/904/226
f 365/905/227 361/906/227 362/907/227 366/908/227
f 363/909/228 359/910/228 361/911/228 365/912/228
f 360/913/229 364/914/229 366/915/229 362/916/229
f 367/917/230 368/918/230 370/919/230 369/920/230
f 372/921/231 371/922/231 373/923/231 374/924/231
f 373/925/232 369/926/232 370/927/232 374/928/232
f 371/929/233 367/930/233 369/931/233 373/932/233
f 368/933/234 372/934/234 374/935/234 370/936/234
f 375/937/235 376/938/235 378/939/235 377/940/235
f 380/941/236 379/942/236 381/943/236 382/944/236
f 381/945/237 377/946/237 378/947/237 382/948/237
f 379/949/238 375/950/238 377/951/238 381/952/238
f 376/953/239 380/954/239 382/955/239 378/956/239
f 383/957/240 384/958/240 386/959/240 385/960/240
f 388/961/241 387/962/241 389/963/241 390/964/241
f 389/965/242 385/966/242 386/967/242 390/968/242
f 387/969/243 383/970/243 385/971/243 389/972/243
f 384/973/244 388/974/244 390/975/244 386/976/244
f 391/977/245 9/978/245 393/979/245 392/980/245
f 10/981/246 394/982/246 395/983/246 396/984/246
f 10/985/247 9/986/247 391/987/247 394/988/247
f 395/989/248 392/990/248 393/991/248 396/992/248
f 394/993/249 391/994/249 392/995/249 395/996/249
usemtl data_input_machine
f 80/997/250 78/998/250 77/999/250 79/1000/250
usemtl common_steel
f 402/1001/251 401/1002/251 403/1003/251 404/1004/251
f 398/1005/252 397/1006/252 399/1007/252 400/1008/252
f 398/1009/253 401/1010/253 402/1011/253 397/1012/253
f 399/1013/254 404/1014/254 403/1015/254 400/1016/254
f 397/1017/255 402/1018/255 404/1019/255 399/1020/255
f 410/1021/256 409/1022/256 411/1023/256 412/1024/256
f 406/1025/257 405/1026/257 407/1027/257 408/1028/257
f 406/1029/258 409/1030/258 410/1031/258 405/1032/258
f 407/1033/259 412/1034/259 411/1035/259 408/1036/259
f 405/1037/260 410/1038/260 412/1039/260 407/1040/260
f 418/1041/261 417/1042/261 419/1043/261 420/1044/261
f 414/1045/262 413/1046/262 415/1047/262 416/1048/262
f 414/1049/263 417/1050/263 418/1051/263 413/1052/263
f 415/1053/264 420/1054/264 419/1055/264 416/1056/264
f 413/1057/265 418/1058/265 420/1059/265 415/1060/265
usemtl common_thingies
f 421/1061/266 422/1062/266 424/1063/266 423/1064/266
f 426/1065/267 425/1066/267 427/1067/267 428/1068/267
f 426/1069/268 422/1070/268 421/1071/268 425/1072/268
f 427/1073/269 423/1074/269 424/1075/269 428/1076/269
f 425/1077/270 421/1078/270 423/1079/270 427/1080/270
usemtl common_copper_cable
f 433/1081/271 432/1082/271 430/1083/271 434/1084/271
f 431/1085/272 429/1086/272 430/1087/272 432/1088/272
f 436/1089/273 431/1090/273 432/1091/273 433/1092/273
f 434/1093/274 430/1094/274 429/1095/274 435/1096/274
f 433/1097/275 434/1098/275 439/1099/275 438/1100/275
f 435/1101/276 436/1102/276 440/1103/276 437/1104/276
f 436/1105/277 433/1106/277 438/1107/277 440/1108/277
f 434/1109/278 435/1110/278 437/1111/278 439/1112/278
usemtl data_input_machine
f 441/1113/279 442/1114/279 444/1115/279 443/1116/279
f 446/1117/280 445/1118/280 447/1119/280 448/1120/280
f 446/1121/281 442/1122/281 441/1123/281 445/1124/281
f 447/1125/282 443/1126/282 444/1127/282 448/1128/282
f 454/1129/283 453/1130/283 455/1131/283 456/1132/283
f 448/1133/284 451/1134/284 449/1135/284 446/1136/284
f 446/1137/285 449/1138/285 450/1139/285 442/1140/285
f 442/1141/286 450/1142/286 452/1143/286 444/1144/286
f 444/1145/287 452/1146/287 451/1147/287 448/1148/287
f 451/1149/288 455/1150/288 453/1151/288 449/1152/288
f 449/1153/289 453/1154/289 454/1155/289 450/1156/289
f 450/1157/290 454/1158/290 456/1159/290 452/1160/290
f 452/1161/291 456/1162/291 455/1163/291 451/1164/291
f 457/1165/292 441/1166/292 443/1167/292 458/1168/292
f 445/1169/293 459/1170/293 460/1171/293 447/1172/293
f 445/1173/294 441/1174/294 457/1175/294 459/1176/294
f 460/1177/295 458/1178/295 443/1179/295 447/1180/295
f 459/1181/296 457/1182/296 458/1183/296 460/1184/296
f 462/1185/297 461/1186/297 463/1187/297 464/1188/297
usemtl common_bottom
f 468/1189/298 467/1190/298 469/1191/298 470/1192/298
f 474/1193/299 473/1194/299 472/1195/299 466/1196/299
f 466/1197/300 472/1198/300 471/1199/300 465/1200/300
f 465/1201/301 471/1202/301 475/1203/301 476/1204/301
f 476/1205/302 475/1206/302 473/1207/302 474/1208/302
usemtl common_thingies
f 479/1209/303 477/1210/303 478/1211/303 480/1212/303
f 482/1213/304 481/1214/304 483/1215/304 484/1216/304
f 478/1217/305 477/1218/305 481/1219/305 482/1220/305
f 481/1221/306 477/1222/306 479/1223/306 483/1224/306
f 480/1225/307 478/1226/307 482/1227/307 484/1228/307
usemtl common_steel
f 486/1229/308 27/1230/308 29/1231/308 485/1232/308
f 14/1233/309 31/1234/309 486/1235/309 485/1236/309
usemtl common_thingies
f 487/1237/310 488/1238/310 490/1239/310 489/1240/310
f 492/1241/311 491/1242/311 493/1243/311 494/1244/311
f 492/1245/312 488/1246/312 487/1247/312 491/1248/312
f 493/1249/313 489/1250/313 490/1251/313 494/1252/313
f 491/1253/314 487/1254/314 489/1255/314 493/1256/314
f 488/1257/315 492/1258/315 494/1259/315 490/1260/315
usemtl data_input_machine
f 495/1261/316 496/1262/316 498/1263/316 497/1264/316
f 500/1265/317 499/1266/317 501/1267/317 502/1268/317
f 500/1269/318 496/1270/318 495/1271/318 499/1272/318
f 501/1273/319 497/1274/319 498/1275/319 502/1276/319
f 496/1277/320 500/1278/320 502/1279/320 498/1280/320
usemtl common_thingies
f 499/1281/321 495/1282/321 503/1283/321 504/1284/321
f 503/1285/322 497/1286/322 505/1287/322 506/1288/322
f 505/1289/323 501/1290/323 504/1291/323 506/1292/323
f 508/1293/324 507/1294/324 509/1295/324 510/1296/324
f 507/1297/325 511/1298/325 512/1299/325 509/1300/325
f 512/1301/326 511/1302/326 513/1303/326 514/1304/326
f 514/1305/327 513/1306/327 508/1307/327 510/1308/327
f 513/1309/328 511/1310/328 507/1311/328 508/1312/328
f 521/1313/329 519/1314/329 520/1315/329 522/1316/329
f 519/1317/330 515/1318/330 516/1319/330 520/1320/330
f 518/1321/331 517/1322/331 521/1323/331 522/1324/331
f 517/1325/332 515/1326/332 519/1327/332 521/1328/332
f 520/1329/333 516/1330/333 518/1331/333 522/1332/333
f 528/1333/334 527/1334/334 523/1335/334 525/1336/334
f 525/1337/335 523/1338/335 524/1339/335 526/1340/335
f 530/1341/336 529/1342/336 527/1343/336 528/1344/336
f 531/1345/337 535/1346/337 536/1347/337 533/1348/337
f 532/1349/338 531/1350/338 533/1351/338 534/1352/338
f 535/1353/339 537/1354/339 538/1355/339 536/1356/339
o mess_basic
v -0.1562 0.1875 1
v -0.1562 0.1875 0.9375
v -0.1562 0 1
v -0.1562 0 0.9375
v -0.3437 0.1875 1
v -0.3437 0.1875 0.9375
v -0.3437 0 1
v -0.3437 0 0.9375
v -0.4062 0.1875 1
v -0.4062 0.1875 0.9375
v -0.4062 0 1
v -0.4062 0 0.9375
v -0.5937 0.1875 1
v -0.5937 0.1875 0.9375
v -0.5937 0 1
v -0.5937 0 0.9375
v -0.9687 0.2476 0.5459
v -0.9687 0.1057 0.2675
v -0.9687 0.1919 0.5743
v -0.0937 0.2476 0.5459
v -0.0937 0.1057 0.2675
v -0.0937 0.1919 0.5743
v -0.0937 0.0501 0.2959
v -0.2812 0.1057 0.2675
v -0.2812 0.0501 0.2959
v -0.0937 0.1057 0.2675
v -0.0937 0.0501 0.2959
v -0.9687 0.1057 0.2675
v -0.9687 0.0774 0.2118
v -0.9687 0.0217 0.2402
v -0.2812 0.1057 0.2675
v -0.2812 0.0774 0.2118
v -0.2812 0.0501 0.2959
v -0.2812 0.0217 0.2402
v -0.2812 0.0774 0.2118
v -0.2812 0.049 0.1561
v -0.2812 0.0217 0.2402
v -0.2812 -0.0067 0.1845
v -0.0937 0.0774 0.2118
v -0.0937 0.049 0.1561
v -0.0937 0.0217 0.2402
v -0.0937 -0.0067 0.1845
v -0.2187 0.1057 0.2675
v -0.2187 0.0774 0.2118
v -0.2187 0.0501 0.2959
v -0.2187 0.0217 0.2402
v -0.1562 0.1057 0.2675
v -0.1562 0.0774 0.2118
v -0.1562 0.0501 0.2959
v -0.1562 0.0217 0.2402
v -0.0937 0.1875 0.9375
v -0.0937 0.1875 0.5625
v -0.0937 0 0.9375
v -0.0937 0 0.1875
v -0.9687 0.1875 0.9375
v -0.9687 0.1875 0.5625
v -0.9687 0 0.9375
v -0.9687 0 0.1875
v -0.1562 0.25 0.625
v -0.1562 0.25 0.8125
v -0.1562 0.1875 0.625
v -0.1562 0.1875 0.8125
v -0.9062 0.25 0.625
v -0.9062 0.25 0.8125
v -0.9062 0.1875 0.625
v -0.9062 0.1875 0.8125
vt 0.0156 0.9531
vt 0.0156 1
vt 0 1
vt 0 0.9531
vt 0.0156 0.9531
vt 0.0156 1
vt 0 1
vt 0 0.9531
vt 0.0469 0.9844
vt 0.0469 1
vt 0 1
vt 0 0.9844
vt 0.5156 0.7188
vt 0.5156 0.7344
vt 0.4688 0.7344
vt 0.4688 0.7188
vt 0.5156 0.7188
vt 0.5156 0.7656
vt 0.4688 0.7656
vt 0.4688 0.7188
vt 0.0156 0.9531
vt 0.0156 1
vt 0 1
vt 0 0.9531
vt 0.0156 0.9531
vt 0.0156 1
vt 0 1
vt 0 0.9531
vt 0.0469 0.9844
vt 0.0469 1
vt 0 1
vt 0 0.9844
vt 0.5156 0.7188
vt 0.5156 0.7344
vt 0.4688 0.7344
vt 0.4688 0.7188
vt 0.5156 0.7188
vt 0.5156 0.7656
vt 0.4688 0.7656
vt 0.4688 0.7188
vt 1 0.6406
vt 0.7813 0.6406
vt 0.7813 0.7188
vt 1 0.7188
vt 1 0.7188
vt 0.7813 0.7188
vt 0.7813 0.7031
vt 1 0.7031
vt 0.9844 0.6406
vt 0.9844 0.7188
vt 1 0.7188
vt 1 0.6406
vt 0.9531 0.6563
vt 1 0.6563
vt 1 0.6406
vt 0.9531 0.6406
vt 0.9375 0.6406
vt 0.9531 0.6406
vt 0.9531 0.625
vt 0.9375 0.625
vt 0.9531 0.6406
vt 0.7813 0.6406
vt 0.7813 0.625
vt 0.9531 0.625
vt 0.7813 0.6406
vt 0.9531 0.6406
vt 0.9531 0.625
vt 0.7813 0.625
vt 0.9531 0.625
vt 0.9688 0.625
vt 0.9688 0.6094
vt 0.9531 0.6094
vt 0.9531 0.625
vt 1 0.625
vt 1 0.6094
vt 0.9531 0.6094
vt 0.9531 0.625
vt 1 0.625
vt 1 0.6094
vt 0.9531 0.6094
vt 0.9531 0.625
vt 1 0.625
vt 1 0.6094
vt 0.9531 0.6094
vt 0.9844 0.6094
vt 0.9844 0.625
vt 1 0.625
vt 1 0.6094
vt 0.9688 0.6406
vt 0.9844 0.6406
vt 0.9844 0.625
vt 0.9688 0.625
vt 0.9688 0.6406
vt 0.9844 0.6406
vt 0.9844 0.625
vt 0.9688 0.625
vt 0.9688 0.6406
vt 0.9844 0.6406
vt 0.9844 0.625
vt 0.9688 0.625
vt 0.7969 0.7188
vt 0.7813 0.7188
vt 0.7813 0.625
vt 0.7969 0.625
vt 0.4375 0.625
vt 0.5313 0.8125
vt 0.5313 1
vt 0.4375 1
vt 0.4375 1
vt 0.5313 1
vt 0.5313 0.8125
vt 0.4375 0.625
vt 0.4375 1
vt 0.4375 0.8125
vt 0 0.8125
vt 0 1
vt 0 0.5
vt 0 0.5938
vt 0.4375 0.5938
vt 0.4375 0.5
vt 0 0.5938
vt 0 0.8125
vt 0.4375 0.8125
vt 0.4375 0.5938
vt 0.6094 0.2188
vt 0.6094 0.2656
vt 0.625 0.2656
vt 0.625 0.2188
vt 0.4375 0.2188
vt 0.4375 0.2656
vt 0.4531 0.2656
vt 0.4531 0.2188
vt 0.4375 0.2656
vt 0.625 0.2656
vt 0.625 0.2188
vt 0.4375 0.2188
vt 0.4375 0.2344
vt 0.625 0.2344
vt 0.625 0.2188
vt 0.4375 0.2188
vt 0.625 0.2656
vt 0.4375 0.2656
vt 0.4375 0.25
vt 0.625 0.25
vn 1 0 0
vn -1 0 0
vn 0 1 0
vn 0 -1 0
vn 0 0 1
vn 1 0 0
vn -1 0 0
vn 0 1 0
vn 0 -1 0
vn 0 0 1
vn 0 0.89 -0.45
vn 0 0.45 0.89
vn 1 0 0
vn 0 -0.45 -0.89
vn 1 0 0
vn 0 0.89 -0.45
vn 0 -0.45 -0.89
vn -1 0 0
vn 0 0.89 -0.45
vn 0 0.45 0.89
vn 0 -0.45 -0.89
vn 1 0 0
vn -1 0 0
vn 1 0 0
vn 0 0.89 -0.45
vn -1 0 0
vn 1 0 0
vn -1 0 0
vn 0 1 0
vn 0 0 1
vn 0 0.89 -0.45
vn 1 0 0
vn -1 0 0
vn 0 1 0
vn 0 0 -1
vn 0 0 1
usemtl common_thingies
f 542/1357/340 540/1358/340 539/1359/340 541/1360/340
f 545/1361/341 543/1362/341 544/1363/341 546/1364/341
f 539/1365/342 540/1366/342 544/1367/342 543/1368/342
usemtl common_copper_cable
f 542/1369/343 541/1370/343 545/1371/343 546/1372/343
f 541/1373/344 539/1374/344 543/1375/344 545/1376/344
usemtl common_thingies
f 550/1377/345 548/1378/345 547/1379/345 549/1380/345
f 553/1381/346 551/1382/346 552/1383/346 554/1384/346
f 547/1385/347 548/1386/347 552/1387/347 551/1388/347
usemtl common_copper_cable
f 550/1389/348 549/1390/348 553/1391/348 554/1392/348
f 549/1393/349 547/1394/349 551/1395/349 553/1396/349
usemtl common_thingies
f 559/1397/350 556/1398/350 555/1399/350 558/1400/350
f 558/1401/351 555/1402/351 557/1403/351 560/1404/351
f 559/1405/352 558/1406/352 560/1407/352 561/1408/352
f 562/1409/353 564/1410/353 565/1411/353 563/1412/353
f 570/1413/354 569/1414/354 571/1415/354 572/1416/354
f 570/1417/355 567/1418/355 566/1419/355 569/1420/355
f 567/1421/356 570/1422/356 572/1423/356 568/1424/356
f 573/1425/357 574/1426/357 576/1427/357 575/1428/357
f 578/1429/358 574/1430/358 573/1431/358 577/1432/358
f 577/1433/359 573/1434/359 575/1435/359 579/1436/359
f 574/1437/360 578/1438/360 580/1439/360 576/1440/360
f 580/1441/361 578/1442/361 577/1443/361 579/1444/361
f 581/1445/362 582/1446/362 584/1447/362 583/1448/362
f 586/1449/363 585/1450/363 587/1451/363 588/1452/363
f 586/1453/364 582/1454/364 581/1455/364 585/1456/364
f 557/1457/365 555/1458/365 567/1459/365 568/1460/365
usemtl typewriter_red
f 592/1461/366 590/1462/366 589/1463/366 591/1464/366
f 595/1465/367 593/1466/367 594/1467/367 596/1468/367
f 589/1469/368 590/1470/368 594/1471/368 593/1472/368
f 591/1473/369 589/1474/369 593/1475/369 595/1476/369
f 596/1477/370 594/1478/370 590/1479/370 592/1480/370
usemtl common_thingies
f 597/1481/371 598/1482/371 600/1483/371 599/1484/371
f 602/1485/372 601/1486/372 603/1487/372 604/1488/372
f 602/1489/373 598/1490/373 597/1491/373 601/1492/373
f 601/1493/374 597/1494/374 599/1495/374 603/1496/374
f 598/1497/375 602/1498/375 604/1499/375 600/1500/375
o mb_book_holder
v -0.4687 0.3125 0.75
v -0.4687 0.3125 1.1875
v -0.4687 0.25 0.75
v -0.4687 0.25 1.1875
v -0.5937 0.3125 0.75
v -0.5937 0.3125 1.1875
v -0.5937 0.25 0.75
v -0.5937 0.25 1.1875
v -0.4687 0.4375 0.6875
v -0.4687 0.4375 0.75
v -0.4687 0.25 0.6875
v -0.4687 0.25 0.75
v -0.5937 0.4375 0.6875
v -0.5937 0.4375 0.75
v -0.5937 0.25 0.6875
v -0.5937 0.25 0.75
vt 0.9063 0.7813
vt 0.9063 1
vt 0.9375 1
vt 0.9375 0.7813
vt 0.875 0.7813
vt 0.875 1
vt 0.9063 1
vt 0.9063 0.7813
vt 0.875 1
vt 0.9375 1
vt 0.9375 0.7813
vt 0.875 0.7813
vt 0.875 1
vt 0.9375 1
vt 0.9375 0.7813
vt 0.875 0.7813
vt 0.875 1
vt 0.9375 1
vt 0.9375 0.9688
vt 0.875 0.9688
vt 0.9063 1
vt 0.9375 1
vt 0.9375 0.9063
vt 0.9063 0.9063
vt 0.875 1
vt 0.9063 1
vt 0.9063 0.9063
vt 0.875 0.9063
vt 0.875 1
vt 0.9375 1
vt 0.9375 0.9688
vt 0.875 0.9688
vt 0.875 1
vt 0.9375 1
vt 0.9375 0.9063
vt 0.875 0.9063
vt 0.9375 1
vt 0.875 1
vt 0.875 0.9063
vt 0.9375 0.9063
vn 1 0 0
vn -1 0 0
vn 0 1 0
vn 0 -1 0
vn 0 0 1
vn 1 0 0
vn -1 0 0
vn 0 1 0
vn 0 0 -1
vn 0 0 1
usemtl typewriter_red
f 605/1501/376 606/1502/376 608/1503/376 607/1504/376
f 610/1505/377 609/1506/377 611/1507/377 612/1508/377
f 610/1509/378 606/1510/378 605/1511/378 609/1512/378
f 611/1513/379 607/1514/379 608/1515/379 612/1516/379
f 606/1517/380 610/1518/380 612/1519/380 608/1520/380
f 613/1521/381 614/1522/381 616/1523/381 615/1524/381
f 618/1525/382 617/1526/382 619/1527/382 620/1528/382
f 618/1529/383 614/1530/383 613/1531/383 617/1532/383
f 617/1533/384 613/1534/384 615/1535/384 619/1536/384
f 614/1537/385 618/1538/385 620/1539/385 616/1540/385
o mb_book_left
v -0.5312 0.375 0.75
v -0.5312 0.375 1.25
v -0.5312 0.3125 0.75
v -0.5312 0.3125 1.25
v -0.9062 0.375 0.75
v -0.9062 0.375 1.25
v -0.9062 0.3125 0.75
v -0.9062 0.3125 1.25
vt 0.9688 0.0313
vt 0.7188 0.0313
vt 0.7188 0.0625
vt 0.9688 0.0625
vt 0.625 0.75
vt 0.625 1
vt 0.6563 1
vt 0.6563 0.75
vt 0.625 1
vt 0.8125 1
vt 0.8125 0.75
vt 0.625 0.75
vt 0.0313 0.1875
vt 0.0313 0
vt 0.2813 0
vt 0.2813 0.1875
vt 0.625 0.7813
vt 0.8125 0.7813
vt 0.8125 0.75
vt 0.625 0.75
vt 0.625 1
vt 0.8125 1
vt 0.8125 0.9688
vt 0.625 0.9688
vn 1 0 0
vn -1 0 0
vn 0 1 0
vn 0 -1 0
vn 0 0 -1
vn 0 0 1
usemtl data_input_machine
f 621/1541/386 622/1542/386 624/1543/386 623/1544/386
f 626/1545/387 625/1546/387 627/1547/387 628/1548/387
f 626/1549/388 622/1550/388 621/1551/388 625/1552/388
f 627/1553/389 623/1554/389 624/1555/389 628/1556/389
f 625/1557/390 621/1558/390 623/1559/390 627/1560/390
f 622/1561/391 626/1562/391 628/1563/391 624/1564/391
o mb_book_right
v -0.5312 0.375 0.75
v -0.5312 0.375 1.25
v -0.5312 0.3125 0.75
v -0.5312 0.3125 1.25
v -0.1562 0.375 0.75
v -0.1562 0.375 1.25
v -0.1562 0.3125 0.75
v -0.1562 0.3125 1.25
v -0.2812 0.286 0.6391
v -0.2812 0.3438 0.75
v -0.2812 0.286 0.6391
v -0.2812 0.3438 0.75
v -0.4062 0.286 0.6391
v -0.4062 0.3438 0.75
v -0.4062 0.286 0.6391
v -0.4062 0.3438 0.75
vt 0.7188 0.0625
vt 0.7188 0.0313
vt 0.9688 0.0313
vt 0.9688 0.0625
vt 0.7813 0.75
vt 0.8125 0.75
vt 0.8125 1
vt 0.7813 1
vt 0.625 1
vt 0.625 0.75
vt 0.8125 0.75
vt 0.8125 1
vt 0.7188 0
vt 0.4688 0
vt 0.4688 0.1875
vt 0.7188 0.1875
vt 0.625 1
vt 0.625 0.9688
vt 0.8125 0.9688
vt 0.8125 1
vt 0.625 0.7813
vt 0.625 0.75
vt 0.8125 0.75
vt 0.8125 0.7813
vt 0.8438 0.1875
vt 0.9063 0.1875
vt 0.9063 0.1875
vt 0.8438 0.1875
vt 0.8438 0.1875
vt 0.9063 0.1875
vt 0.9063 0.1875
vt 0.8438 0.1875
vt 0.8438 0.1875
vt 0.9063 0.1875
vt 0.9063 0.125
vt 0.8438 0.125
vt 0.8438 0.1875
vt 0.9063 0.1875
vt 0.9063 0.125
vt 0.8438 0.125
vt 0.8438 0.1875
vt 0.9063 0.1875
vt 0.9063 0.1875
vt 0.8438 0.1875
vt 0.8438 0.1875
vt 0.9063 0.1875
vt 0.9063 0.1875
vt 0.8438 0.1875
vn -1 0 0
vn 1 0 0
vn 0 1 0
vn 0 -1 0
vn 0 0 -1
vn 0 0 1
vn 0 0 0
vn 0 0 0
vn 0 0.89 -0.46
vn 0 -0.89 0.46
vn 0 0 0
vn 0 0 0
usemtl data_input_machine
f 632/1565/392 630/1566/392 629/1567/392 631/1568/392
f 635/1569/393 633/1570/393 634/1571/393 636/1572/393
f 629/1573/394 630/1574/394 634/1575/394 633/1576/394
f 632/1577/395 631/1578/395 635/1579/395 636/1580/395
f 631/1581/396 629/1582/396 633/1583/396 635/1584/396
f 636/1585/397 634/1586/397 630/1587/397 632/1588/397
f 637/1589/398 638/1590/398 640/1591/398 639/1592/398
f 642/1593/399 641/1594/399 643/1595/399 644/1596/399
f 642/1597/400 638/1598/400 637/1599/400 641/1600/400
f 643/1601/401 639/1602/401 640/1603/401 644/1604/401
f 641/1605/402 637/1606/402 639/1607/402 643/1608/402
f 638/1609/403 642/1610/403 644/1611/403 640/1612/403
o mb_cup
v 0.202 0.3125 0.1184
v 0.3454 0.3125 0.3232
v 0.202 0.0625 0.1184
v 0.3454 0.0625 0.3232
v 0.1508 0.3125 0.1543
v 0.2942 0.3125 0.3591
v 0.2584 0.3125 0.3079
v 0.2584 0.0625 0.3079
v 0.156 0.3125 0.3796
v 0.1918 0.3125 0.4308
v 0.156 0.0625 0.3796
v 0.0485 0.3125 0.226
v -0.0027 0.3125 0.2618
v 0.1407 0.3125 0.4666
v -0.0027 0.0625 0.2618
v 0.1407 0.0625 0.4666
v 0.1867 0.3125 0.2055
v 0.0843 0.3125 0.2772
v 0.1867 0.0625 0.2055
v 0.0843 0.0625 0.2772
v 0.202 0 0.1184
v 0.3454 0 0.3232
v -0.0027 0 0.2618
v 0.1407 0 0.4666
v 0.051 0.2813 0.3386
v 0.0869 0.2813 0.3898
v 0.051 0.2188 0.3386
v 0.0869 0.2188 0.3898
v -0.0002 0.2813 0.3745
v 0.0357 0.2813 0.4257
v -0.0002 0.2188 0.3745
v 0.0357 0.2188 0.4257
v -0.0514 0.2188 0.4103
v -0.0155 0.2188 0.4615
v -0.0002 0.0938 0.3745
v 0.0357 0.0938 0.4257
v -0.0514 0.0938 0.4103
v -0.0155 0.0938 0.4615
v -0.0002 0.0313 0.3745
v 0.0357 0.0313 0.4257
v 0.051 0.0938 0.3386
v 0.0869 0.0938 0.3898
v 0.051 0.0313 0.3386
v 0.0869 0.0313 0.3898
vt 0 0.625
vt 0.125 0.625
vt 0.125 0.5
vt 0 0.5
vt 0 0.5313
vt 0 0.5625
vt 0.125 0.5625
vt 0.125 0.5313
vt 0.0313 0.625
vt 0.0938 0.625
vt 0.0938 0.5937
vt 0.0313 0.5938
vt 0.0313 0.625
vt 0.0938 0.625
vt 0.0938 0.5
vt 0.0313 0.5
vt 0 0.625
vt 0.125 0.625
vt 0.125 0.5
vt 0 0.5
vt 0.0313 0.625
vt 0.0625 0.625
vt 0.0625 0.5
vt 0.0313 0.5
vt 0.0625 0.5938
vt 0 0.5938
vt 0 0.625
vt 0.0625 0.625
vt 0 0.625
vt 0.125 0.625
vt 0.125 0.5
vt 0 0.5
vt 0 0.625
vt 0.125 0.625
vt 0.125 0.5
vt 0 0.5
vt 0 0.625
vt 0.0625 0.625
vt 0.0625 0.5
vt 0 0.5
vt 0.0625 0.5
vt 0 0.5
vt 0 0.625
vt 0.0625 0.625
vt 0.0313 0.5
vt 0.0313 0.625
vt 0.0938 0.625
vt 0.0938 0.5
vt 0 0.5938
vt 0.125 0.5938
vt 0.125 0.5625
vt 0 0.5625
vt 0 0.5938
vt 0.125 0.5938
vt 0.125 0.5625
vt 0 0.5625
vt 0 0.5
vt 0 0.625
vt 0.125 0.625
vt 0.125 0.5
vt 0 0.5938
vt 0.125 0.5938
vt 0.125 0.5625
vt 0 0.5625
vt 0 0.625
vt 0.125 0.625
vt 0.125 0.5938
vt 0 0.5938
vt 0.125 0.5938
vt 0.125 0.625
vt 0.1563 0.625
vt 0.1563 0.5938
vt 0.0313 0.5938
vt 0.0313 0.625
vt 0.0625 0.625
vt 0.0625 0.5938
vt 0.125 0.625
vt 0.1563 0.625
vt 0.1563 0.5938
vt 0.125 0.5938
vt 0.125 0.625
vt 0.1563 0.625
vt 0.1563 0.5938
vt 0.125 0.5938
vt 0.1563 0.5938
vt 0.1563 0.625
vt 0.1875 0.625
vt 0.1875 0.5938
vt 0.1563 0.5938
vt 0.1875 0.5938
vt 0.1875 0.5313
vt 0.1563 0.5313
vt 0.1563 0.5938
vt 0.1875 0.5938
vt 0.1875 0.5313
vt 0.1563 0.5313
vt 0.1563 0.5938
vt 0.1875 0.5938
vt 0.1875 0.5313
vt 0.1563 0.5313
vt 0.1563 0.5938
vt 0.1875 0.5938
vt 0.1875 0.5313
vt 0.1563 0.5313
vt 0.1875 0.5313
vt 0.1875 0.5027
vt 0.1563 0.5027
vt 0.1563 0.5313
vt 0.125 0.5313
vt 0.1563 0.5313
vt 0.1563 0.5
vt 0.125 0.5
vt 0.125 0.5313
vt 0.1563 0.5313
vt 0.1563 0.5
vt 0.125 0.5
vt 0.125 0.5313
vt 0.1563 0.5313
vt 0.1563 0.5
vt 0.125 0.5
vt 0.125 0.5313
vt 0.1563 0.5313
vt 0.1563 0.5
vt 0.125 0.5
vt 0.1875 0.625
vt 0.1875 0.5938
vt 0.1563 0.5938
vt 0.1563 0.5313
vt 0.1875 0.5313
vt 0.1875 0.5
vt 0.1875 0.5938
vt 0.1563 0.5938
vt 0.1563 0.625
vt 0.0313 0.5625
vt 0.0625 0.5625
vt 0.0313 0.5313
vn 0.82 0 -0.57
vn 0 1 0
vn 0 1 0
vn -0.57 0 -0.82
vn -0.82 0 0.57
vn 0 1 0
vn 0 1 0
vn 0.57 0 0.82
vn -0.57 0 -0.82
vn 0.57 0 0.82
vn -0.82 0 0.57
vn 0.82 0 -0.57
vn 0.82 0 -0.57
vn -0.82 0 0.57
vn 0 1 0
vn -0.57 0 -0.82
vn 0.57 0 0.82
vn 0 1 0
vn 0 -1 0
vn -0.57 0 -0.82
vn 0.57 0 0.82
vn -0.58 0.71 0.41
vn 0.82 0 -0.57
vn -0.82 0 0.57
vn -0.57 0 -0.82
vn 0.57 0 0.82
vn -0.58 -0.71 0.41
vn 0 1 0
vn 0 -1 0
vn -0.57 0 -0.82
vn 0.57 0 0.82
vn -0.57 0 -0.82
vn -0.57 0 -0.82
vn 0.57 0 0.82
vn 0.57 0 0.82
usemtl data_input_machine
f 645/1613/404 646/1614/404 648/1615/404 647/1616/404
f 650/1617/405 646/1618/405 645/1619/405 649/1620/405
f 654/1621/406 650/1622/406 651/1623/406 653/1624/406
f 653/1625/407 651/1626/407 652/1627/407 655/1628/407
f 658/1629/408 657/1630/408 659/1631/408 660/1632/408
f 658/1633/409 654/1634/409 656/1635/409 657/1636/409
f 662/1637/410 661/1638/410 649/1639/410 656/1640/410
f 660/1641/411 648/1642/411 646/1643/411 658/1644/411
f 657/1645/412 645/1646/412 647/1647/412 659/1648/412
f 661/1649/413 662/1650/413 664/1651/413 663/1652/413
f 663/1653/414 652/1654/414 651/1655/414 661/1656/414
f 664/1657/415 662/1658/415 653/1659/415 655/1660/415
f 647/1661/416 648/1662/416 666/1663/416 665/1664/416
f 660/1665/417 659/1666/417 667/1667/417 668/1668/417
f 660/1669/418 648/1670/418 647/1671/418 659/1672/418
f 659/1673/419 647/1674/419 665/1675/419 667/1676/419
f 648/1677/420 660/1678/420 668/1679/420 666/1680/420
f 674/1681/421 670/1682/421 669/1683/421 673/1684/421
f 675/1685/422 671/1686/422 672/1687/422 676/1688/422
f 673/1689/423 669/1690/423 671/1691/423 675/1692/423
f 670/1693/424 674/1694/424 676/1695/424 672/1696/424
f 678/1697/425 674/1698/425 673/1699/425 677/1700/425
f 675/1701/426 676/1702/426 680/1703/426 679/1704/426
f 678/1705/427 677/1706/427 681/1707/427 682/1708/427
f 677/1709/428 675/1710/428 679/1711/428 681/1712/428
f 676/1713/429 678/1714/429 682/1715/429 680/1716/429
f 681/1717/430 683/1718/430 684/1719/430 682/1720/430
f 680/1721/431 686/1722/431 685/1723/431 679/1724/431
f 683/1725/432 687/1726/432 688/1727/432 684/1728/432
f 679/1729/433 685/1730/433 687/1731/433 683/1732/433
f 686/1733/434 680/1734/434 684/1735/434 688/1736/434
f 673/1736/435 675/1737/435 677/1738/435 673/1739/435
f 681/1739/436 679/1740/436 683/1741/436 681/1742/436
f 678/1742/437 676/1743/437 674/1744/437 678/1745/437
f 680/1745/438 682/1746/438 684/1747/438 680/1748/438
o mb_pen
v 0.3028 0.0625 0.5674
v 0.3163 0.0625 0.6285
v 0.3028 0 0.5674
v 0.3163 0 0.6285
v 0.0587 0.0625 0.6215
v 0.0722 0.0625 0.6826
v 0.0587 0 0.6215
v 0.0722 0 0.6826
vt 0.25 0.5625
vt 0.2813 0.5625
vt 0.2813 0.5313
vt 0.25 0.5313
vt 0.25 0.5625
vt 0.2813 0.5625
vt 0.2813 0.5313
vt 0.25 0.5313
vt 0.1875 0.5625
vt 0.3125 0.5625
vt 0.3125 0.5313
vt 0.1875 0.5313
vt 0.1875 0.5625
vt 0.3125 0.5625
vt 0.3125 0.5313
vt 0.1875 0.5313
vt 0.1875 0.5625
vt 0.3125 0.5625
vt 0.3125 0.5313
vt 0.1875 0.5313
vt 0.1875 0.5625
vt 0.3125 0.5625
vt 0.3125 0.5313
vt 0.1875 0.5313
vn 0.98 0 -0.22
vn -0.98 0 0.22
vn 0 1 0
vn 0 -1 0
vn -0.22 0 -0.98
vn 0.22 0 0.98
usemtl data_input_machine
f 689/1749/439 690/1750/439 692/1751/439 691/1752/439
f 694/1753/440 693/1754/440 695/1755/440 696/1756/440
f 694/1757/441 690/1758/441 689/1759/441 693/1760/441
f 695/1761/442 691/1762/442 692/1763/442 696/1764/442
f 693/1765/443 689/1766/443 691/1767/443 695/1768/443
f 690/1769/444 694/1770/444 696/1771/444 692/1772/444
o mb_penholder
v 0.4531 0.1875 0.6259
v 0.5249 0.1875 0.7991
v 0.4531 0 0.6259
v 0.5249 0 0.7991
v 0.2799 0.1875 0.6976
v 0.3517 0.1875 0.8708
v 0.2799 0 0.6976
v 0.3517 0 0.8708
vt 0.2813 0.5
vt 0.375 0.5
vt 0.375 0.4063
vt 0.2813 0.4063
vt 0.2813 0.5
vt 0.375 0.5
vt 0.375 0.4063
vt 0.2813 0.4063
vt 0.1875 0.5
vt 0.2813 0.5
vt 0.2813 0.4063
vt 0.1875 0.4063
vt 0.2813 0.5
vt 0.375 0.5
vt 0.375 0.4063
vt 0.2813 0.4063
vt 0.2813 0.5
vt 0.375 0.5
vt 0.375 0.4063
vt 0.2813 0.4063
vt 0.0938 0.4062
vt 0.0938 0.5
vt 0.1875 0.5
vt 0.1875 0.4062
vn 0.92 0 -0.38
vn -0.92 0 0.38
vn 0 1 0
vn -0.38 0 -0.92
vn 0.38 0 0.92
vn 0 -1 0
usemtl data_input_machine
f 697/1773/445 698/1774/445 700/1775/445 699/1776/445
f 702/1777/446 701/1778/446 703/1779/446 704/1780/446
f 702/1781/447 698/1782/447 697/1783/447 701/1784/447
f 701/1785/448 697/1786/448 699/1787/448 703/1788/448
f 698/1789/449 702/1790/449 704/1791/449 700/1792/449
f 704/1793/450 703/1794/450 699/1795/450 700/1796/450
o mb_holder_pens
v 0.4172 0.0937 0.7192
v 0.4349 0.1119 0.7763
v 0.3586 0.0863 0.7397
v 0.3763 0.1045 0.7968
v 0.3663 0.3309 0.6591
v 0.384 0.3492 0.7162
v 0.3077 0.3235 0.6797
v 0.3254 0.3418 0.7368
v 0.4543 0.1004 0.7369
v 0.4816 0.0976 0.793
v 0.3984 0.0929 0.7638
v 0.4257 0.0902 0.8199
v 0.4324 0.3484 0.7596
v 0.4597 0.3456 0.8157
v 0.3764 0.3409 0.7865
v 0.4038 0.3382 0.8426
vt 0.2813 0.5938
vt 0.3125 0.5938
vt 0.3125 0.5625
vt 0.2813 0.5625
vt 0.1875 0.5938
vt 0.2188 0.5938
vt 0.2188 0.5625
vt 0.1875 0.5625
vt 0.1875 0.5938
vt 0.3125 0.5938
vt 0.3125 0.5625
vt 0.1875 0.5625
vt 0.1875 0.5938
vt 0.3125 0.5938
vt 0.3125 0.5625
vt 0.1875 0.5625
vt 0.1875 0.5938
vt 0.3125 0.5938
vt 0.3125 0.5625
vt 0.1875 0.5625
vt 0.3125 0.5938
vt 0.1875 0.5938
vt 0.1875 0.5625
vt 0.3125 0.5625
vt 0.2813 0.625
vt 0.3125 0.625
vt 0.3125 0.5938
vt 0.2813 0.5938
vt 0.1875 0.625
vt 0.2188 0.625
vt 0.2188 0.5938
vt 0.1875 0.5938
vt 0.1875 0.625
vt 0.3125 0.625
vt 0.3125 0.5938
vt 0.1875 0.5938
vt 0.1875 0.625
vt 0.3125 0.625
vt 0.3125 0.5938
vt 0.1875 0.5938
vt 0.1875 0.625
vt 0.3125 0.625
vt 0.3125 0.5938
vt 0.1875 0.5938
vt 0.3125 0.625
vt 0.1875 0.625
vt 0.1875 0.5938
vt 0.3125 0.5938
vn 0.2 -0.95 0.24
vn -0.2 0.95 -0.24
vn 0.94 0.12 -0.33
vn -0.94 -0.12 0.33
vn -0.28 -0.29 -0.91
vn 0.28 0.29 0.91
vn 0.09 -0.99 -0.09
vn -0.09 0.99 0.09
vn 0.9 0.12 -0.43
vn -0.9 -0.12 0.43
vn -0.44 0.04 -0.9
vn 0.44 -0.04 0.9
usemtl data_input_machine
f 705/1797/451 706/1798/451 708/1799/451 707/1800/451
f 710/1801/452 709/1802/452 711/1803/452 712/1804/452
f 710/1805/453 706/1806/453 705/1807/453 709/1808/453
f 711/1809/454 707/1810/454 708/1811/454 712/1812/454
f 709/1813/455 705/1814/455 707/1815/455 711/1816/455
f 706/1817/456 710/1818/456 712/1819/456 708/1820/456
f 713/1821/457 714/1822/457 716/1823/457 715/1824/457
f 718/1825/458 717/1826/458 719/1827/458 720/1828/458
f 718/1829/459 714/1830/459 713/1831/459 717/1832/459
f 719/1833/460 715/1834/460 716/1835/460 720/1836/460
f 717/1837/461 713/1838/461 715/1839/461 719/1840/461
f 714/1841/462 718/1842/462 720/1843/462 716/1844/462
o mb_book1
v 0.7951 0.125 0.0505
v 0.9076 0.125 0.5376
v 0.7951 0 0.0505
v 0.9076 0 0.5376
v 0.4297 0.125 0.1348
v 0.5422 0.125 0.622
v 0.4297 0 0.1348
v 0.5422 0 0.622
vt 0.8125 0.75
vt 0.8125 1
vt 0.875 1
vt 0.875 0.75
vt 0.625 0.5
vt 0.625 0.75
vt 0.6875 0.75
vt 0.6875 0.5
vt 0.4375 0.75
vt 0.625 0.75
vt 0.625 0.5
vt 0.4375 0.5
vt 0.6875 0.75
vt 0.875 0.75
vt 0.875 0.5
vt 0.6875 0.5
vt 0.3125 0.5
vt 0.3125 0.6875
vt 0.375 0.6875
vt 0.375 0.5
vt 0.3125 0.6875
vt 0.3125 0.5
vt 0.375 0.5
vt 0.375 0.6875
vn 0.97 0 -0.22
vn -0.97 0 0.22
vn 0 1 0
vn 0 -1 0
vn -0.22 0 -0.97
vn 0.22 0 0.97
usemtl data_input_machine
f 721/1845/463 722/1846/463 724/1847/463 723/1848/463
f 726/1849/464 725/1850/464 727/1851/464 728/1852/464
f 726/1853/465 722/1854/465 721/1855/465 725/1856/465
f 727/1857/466 723/1858/466 724/1859/466 728/1860/466
f 725/1861/467 721/1862/467 723/1863/467 727/1864/467
f 722/1865/468 726/1866/468 728/1867/468 724/1868/468
o mb_book2
v 0.9041 0.25 0.1307
v 0.8001 0.25 0.6198
v 0.9041 0.125 0.1307
v 0.8001 0.125 0.6198
v 0.5373 0.25 0.0527
v 0.4333 0.25 0.5418
v 0.5373 0.125 0.0527
v 0.4333 0.125 0.5418
vt 0.8125 0.75
vt 0.8125 1
vt 0.875 1
vt 0.875 0.75
vt 0.375 0.75
vt 0.375 1
vt 0.4375 1
vt 0.4375 0.75
vt 0.4375 1
vt 0.625 1
vt 0.625 0.75
vt 0.4375 0.75
vt 0.2813 0.375
vt 0.4688 0.375
vt 0.4688 0.125
vt 0.2813 0.125
vt 0.3125 0.75
vt 0.3125 0.9375
vt 0.375 0.9375
vt 0.375 0.75
vt 0.3125 0.9375
vt 0.3125 0.75
vt 0.375 0.75
vt 0.375 0.9375
vn 0.98 0 0.21
vn -0.98 0 -0.21
vn 0 1 0
vn 0 -1 0
vn 0.21 0 -0.98
vn -0.21 0 0.98
usemtl data_input_machine
f 729/1869/469 730/1870/469 732/1871/469 731/1872/469
f 734/1873/470 733/1874/470 735/1875/470 736/1876/470
f 734/1877/471 730/1878/471 729/1879/471 733/1880/471
f 735/1881/472 731/1882/472 732/1883/472 736/1884/472
f 733/1885/473 729/1886/473 731/1887/473 735/1888/473
f 730/1889/474 734/1890/474 736/1891/474 732/1892/474
o drawer
v -0.3125 -0.25 0.0625
v -0.3125 -0.25 0
v -0.3125 -0.375 0.0625
v -0.3125 -0.375 0
v -0.4375 -0.25 0.0625
v -0.4375 -0.25 0
v -0.4375 -0.375 0.0625
v -0.4375 -0.375 0
v 0 -0.1875 0.125
v 0 -0.1875 0.0625
v 0 -0.4375 0.125
v 0 -0.4375 0.0625
v -0.75 -0.1875 0.125
v -0.75 -0.1875 0.0625
v -0.75 -0.4375 0.125
v -0.75 -0.4375 0.0625
v -0.0312 -0.3437 0.625
v -0.0312 -0.3437 0.125
v -0.0312 -0.4062 0.625
v -0.0312 -0.4062 0.125
v -0.7187 -0.3437 0.625
v -0.7187 -0.3437 0.125
v -0.7187 -0.4062 0.625
v -0.7187 -0.4062 0.125
v -0.6562 -0.2187 0.625
v -0.6562 -0.2187 0.125
v -0.6562 -0.3437 0.625
v -0.6562 -0.3437 0.125
v -0.7187 -0.2187 0.625
v -0.7187 -0.2187 0.125
v -0.7187 -0.3437 0.625
v -0.7187 -0.3437 0.125
v -0.0312 -0.2187 0.625
v -0.0312 -0.2187 0.125
v -0.0312 -0.3437 0.625
v -0.0312 -0.3437 0.125
v -0.0937 -0.2187 0.625
v -0.0937 -0.2187 0.125
v -0.0937 -0.3437 0.625
v -0.0937 -0.3437 0.125
vt 0.9844 0.2813
vt 0.9844 0.3125
vt 1 0.3125
vt 1 0.2813
vt 0.9688 0.2813
vt 0.9688 0.3125
vt 0.9844 0.3125
vt 0.9844 0.2813
vt 1 0.3125
vt 1 0.2969
vt 0.9688 0.2969
vt 0.9688 0.3125
vt 1 0.2813
vt 1 0.2969
vt 0.9688 0.2969
vt 0.9688 0.2813
vt 0.9688 0.2813
vt 0.9688 0.3125
vt 1 0.3125
vt 1 0.2813
vt 0.8125 0.3906
vt 0.8125 0.4531
vt 0.7969 0.4531
vt 0.7969 0.3906
vt 0.9844 0.3906
vt 0.9844 0.4531
vt 0.9688 0.4531
vt 0.9688 0.3906
vt 0.7813 0.25
vt 0.7656 0.25
vt 0.7656 0.0625
vt 0.7813 0.0625
vt 1 0.25
vt 0.9844 0.25
vt 0.9844 0.0625
vt 1 0.0625
vt 0.9844 0.3906
vt 0.9844 0.4531
vt 0.7969 0.4531
vt 0.7969 0.3906
vt 0.9844 0.3906
vt 0.9844 0.4531
vt 0.7969 0.4531
vt 0.7969 0.3906
vt 0.9688 0.25
vt 0.9531 0.25
vt 0.9531 0.125
vt 0.9688 0.125
vt 0.8125 0.125
vt 0.7969 0.125
vt 0.7969 0.25
vt 0.8125 0.25
vt 0.9688 0.25
vt 0.9688 0.375
vt 0.7969 0.375
vt 0.7969 0.25
vt 0.9688 0.25
vt 0.9688 0.125
vt 0.7969 0.125
vt 0.7969 0.25
vt 0.9375 0.0781
vt 0.9375 0.0938
vt 0.7656 0.0938
vt 0.7656 0.0781
vt 0.8281 0.375
vt 0.7969 0.375
vt 0.7969 0.25
vt 0.8281 0.25
vt 0.8281 0.375
vt 0.7969 0.375
vt 0.7969 0.25
vt 0.8281 0.25
vt 0.7969 0.375
vt 0.7969 0.25
vt 0.8125 0.25
vt 0.8125 0.375
vt 0.9375 0.375
vt 0.9688 0.375
vt 0.9688 0.25
vt 0.9375 0.25
vt 0.9375 0.375
vt 0.9688 0.375
vt 0.9688 0.25
vt 0.9375 0.25
vt 0.9531 0.375
vt 0.9531 0.25
vt 0.9375 0.25
vt 0.9375 0.375
vt 0.9531 0.3906
vt 0.9531 0.3594
vt 0.8125 0.3594
vt 0.8125 0.3906
vn 1 0 0
vn -1 0 0
vn 0 1 0
vn 0 -1 0
vn 0 0 -1
vn 1 0 0
vn -1 0 0
vn 0 1 0
vn 0 -1 0
vn 0 0 1
vn 0 0 -1
vn 1 0 0
vn -1 0 0
vn 0 1 0
vn 0 -1 0
vn 0 0 -1
vn 1 0 0
vn -1 0 0
vn 0 1 0
vn 1 0 0
vn -1 0 0
vn 0 1 0
vn 0 0 -1
usemtl common_table
f 740/1893/475 738/1894/475 737/1895/475 739/1896/475
f 743/1897/476 741/1898/476 742/1899/476 744/1900/476
f 737/1901/477 738/1902/477 742/1903/477 741/1904/477
f 740/1905/478 739/1906/478 743/1907/478 744/1908/478
f 744/1909/479 742/1910/479 738/1911/479 740/1912/479
f 748/1913/480 746/1914/480 745/1915/480 747/1916/480
f 751/1917/481 749/1918/481 750/1919/481 752/1920/481
f 745/1921/482 746/1922/482 750/1923/482 749/1924/482
f 748/1925/483 747/1926/483 751/1927/483 752/1928/483
f 747/1929/484 745/1930/484 749/1931/484 751/1932/484
f 752/1933/485 750/1934/485 746/1935/485 748/1936/485
f 756/1937/486 754/1938/486 753/1939/486 755/1940/486
f 759/1941/487 757/1942/487 758/1943/487 760/1944/487
f 753/1945/488 754/1946/488 758/1947/488 757/1948/488
f 756/1949/489 755/1950/489 759/1951/489 760/1952/489
f 760/1953/490 758/1954/490 754/1955/490 756/1956/490
f 764/1957/491 762/1958/491 761/1959/491 763/1960/491
f 767/1961/492 765/1962/492 766/1963/492 768/1964/492
f 761/1965/493 762/1966/493 766/1967/493 765/1968/493
f 772/1969/494 770/1970/494 769/1971/494 771/1972/494
f 775/1973/495 773/1974/495 774/1975/495 776/1976/495
f 769/1977/496 770/1978/496 774/1979/496 773/1980/496
f 773/1981/497 775/1982/497 763/1983/497 761/1984/497
o door
v 0 2 0.9375
v 1 2 0.9375
v 0 1 0.9375
v 1 1 0.9375
v 0 2 1
v 1 2 1
v 0 1 1
v 1 1 1
vt 0.5 0.25
vt 0.75 0.25
vt 0.75 0
vt 0.5 0
vt 0.5 0.25
vt 0.75 0.25
vt 0.75 0
vt 0.5 0
vt 0.5 0.2344
vt 0.5 0.25
vt 0.75 0.25
vt 0.75 0.2344
vt 0.5 0
vt 0.5 0.0156
vt 0.75 0.0156
vt 0.75 0
vt 0.5 0.25
vt 0.5156 0.25
vt 0.5156 0
vt 0.5 0
vt 0.7344 0.25
vt 0.75 0.25
vt 0.75 0
vt 0.7344 0
vn 0 0 -1
vn 0 0 1
vn 0 1 0
vn 0 -1 0
vn -1 0 0
vn 1 0 0
usemtl common_steel
f 777/1985/498 778/1986/498 780/1987/498 779/1988/498
f 782/1989/499 781/1990/499 783/1991/499 784/1992/499
f 782/1993/500 778/1994/500 777/1995/500 781/1996/500
f 783/1997/501 779/1998/501 780/1999/501 784/2000/501
f 781/2001/502 777/2002/502 779/2003/502 783/2004/502
f 778/2005/503 782/2006/503 784/2007/503 780/2008/503