# Made by Pabilo8 with Blockbench
# Exported with IIToolkit Plugin
mtllib data_input_machine.mtl

o main
v 0 -0.1875 0.125
v 0 -0.1875 1
v 0 -0.4375 0.125
v 0 -0.4375 1
v -0.75 -0.1875 0.125
v -0.75 -0.1875 1
v -0.75 -0.4375 0.125
v -0.75 -0.4375 1
v 1 0 1
v -1 0 1
v 1 1 1
v 1 1 2
v 1 0 2
v -1 1 1
v -1 1 2
v -1 0 2
v 1 -1 1
v 1 -1 2
v -1 -1 1
v -1 -1 2
v 0 1 2
v 0 0 2
v 0 1 1
v 0 0 1
v 0 -1 1
v 0 -1 2
v 0.0625 2 1
v 0.0625 2 2
v 0.0625 1 1
v 0.0625 1 2
v -1 2 1
v -1 2 2
v 1 -0.125 1.125
v 1 -0.125 1.875
v 1 -0.875 1.125
v 1 -0.875 1.875
v 0.9375 -0.875 1.875
v 0.9375 -0.875 1.125
v 0.9375 -0.125 1.125
v 0.9375 -0.125 1.875
v -0.9375 -0.125 1.875
v -0.9375 -0.125 1.125
v -0.9375 -0.875 1.875
v -0.9375 -0.875 1.125
v -1 -0.125 1.125
v -1 -0.125 1.875
v -1 -0.875 1.875
v -1 -0.875 1.125
v -0.8749999999999991 1.9375000000000009 1.875
v -0.8749999999999991 1.9375000000000009 1.125
v -0.12500000000000044 1.9375 1.875
v -0.12500000000000044 1.9375 1.125
v -0.875 1.9999999999999991 1.125
v -0.875 1.9999999999999991 1.875
v -0.1250000000000009 2.000000000000001 1.875
v -8.881784197001252e-16 2 2
v -0.1250000000000009 2.000000000000001 1.125
v -8.881784197001252e-16 2 1
v 0.9375 2 1
v 0.9375 1.9375 1
v 0.9375 1.9375 2
v 0.0625 1.9375 1
v 0.0625 1.9375 2
v 0.9375 1.9375 1.9375
v 0.9375 1 1.9375
v 0.0625 1.9375 1.9375
v 0.0625 1 1.9375
v 1 2 1
v 1 2 2
v 0.9375 2 2
v 0.9375 1 1
v 0.9375 1 2
v -1 1.5 1.21875
v -1 1.5 1.78125
v -1 1.125 1.21875
v -1 1.125 1.78125
v -1.0625 1.5 1.21875
v -1.0625 1.5 1.78125
v -1.0625 1.125 1.21875
v -1.0625 1.125 1.78125
v 0.4375 0.625 0.9375
v 0.4375 0.5625 0.9375
v 0.4375 0.5625 1
v -0.0625 0.625 0.9375
v -0.0625 0.5625 0.9375
v -0.0625 0.5625 1
v 0.375 0.75 0.9375
v 0.375 0.75 1
v 0.4375 0.6875 0.9375
v 0.4375 0.6875 1
v 0 0.75 0.9375
v 0 0.75 1
v -0.0625 0.6875 0.9375
v -0.0625 0.6875 1
v 0 0.6875 0.9375
v 0 0.6875 1
v 0 0.625 0.9375
v 0 0.625 1
v 0.375 0.6875 0.9375
v 0.375 0.6875 1
v 0.375 0.625 0.9375
v 0.375 0.625 1
v 0.4375 0.625 0.9921875
v -0.0625 0.625 0.9921875
v 0.4375 0.6875 0.9921875
v -0.0625 0.6875 0.9921875
v 0.4375 0.375 0.9375
v 0.4375 0.3125 0.9375
v 0.4375 0.3125 1
v -0.0625 0.375 0.9375
v -0.0625 0.3125 0.9375
v -0.0625 0.3125 1
v 0.375 0.5 0.9375
v 0.375 0.5 1
v 0.4375 0.4375 0.9375
v 0.4375 0.4375 1
v 0 0.5 0.9375
v 0 0.5 1
v -0.0625 0.4375 0.9375
v -0.0625 0.4375 1
v 0 0.4375 0.9375
v 0 0.4375 1
v 0 0.375 0.9375
v 0 0.375 1
v 0.375 0.4375 0.9375
v 0.375 0.4375 1
v 0.375 0.375 0.9375
v 0.375 0.375 1
v 0.4375 0.375 0.9921875
v -0.0625 0.375 0.9921875
v 0.4375 0.4375 0.9921875
v -0.0625 0.4375 0.9921875
v 0.9375 0.9076131058551669 0.9687797430755669
v 0.9375 0.9048868941448331 1.031220256924433
v 0.9375 0.15832693966877365 0.936065202551565
v 0.9375 0.15560072795843993 0.9985057164004311
v 0.4375 0.9076131058551669 0.9687797430755669
v 0.4375 0.9048868941448331 1.031220256924433
v 0.4375 0.15832693966877365 0.936065202551565
v 0.4375 0.15560072795843993 0.9985057164004311
v 0.5937499999999996 1.8437499999999982 1.9375
v 0.625 1.8125 1.8125
v 0.5937499999999996 1.0312499999999996 1.9375
v 0.625 1.0625 1.8125
v 0.7187499999999996 1.8437499999999982 1.9375
v 0.6875 1.8125 1.8125
v 0.7187499999999996 1.0312499999999996 1.9375
v 0.6875 1.0625 1.8125
v 0.7812499999999996 1.8437499999999982 1.9375
v 0.8125 1.8125 1.8125
v 0.7812499999999996 1.0312499999999996 1.9375
v 0.8125 1.0625 1.8125
v 0.9062499999999996 1.8437499999999982 1.9375
v 0.875 1.8125 1.8125
v 0.9062499999999996 1.0312499999999996 1.9375
v 0.875 1.0625 1.8125
v 0.40624999999999956 1.8437499999999982 1.9375
v 0.4375 1.8125 1.8125
v 0.40624999999999956 1.0312499999999996 1.9375
v 0.4375 1.0625 1.8125
v 0.5312499999999996 1.8437499999999982 1.9375
v 0.5 1.8125 1.8125
v 0.5312499999999996 1.0312499999999996 1.9375
v 0.5 1.0625 1.8125
v 0.37547723993867144 1.7539392513184664 1.6963940795856933
v 0.41995917078798106 1.0650387811285293 1.1338940795856929
v 0.43959188201888577 1.8147817748601973 1.1338940795856933
v 0.41995917078798106 1.065038781128529 1.8838940795856929
v 0.43959188201888577 1.8147817748601964 1.8838940795856933
v 0.482437753598953 1.063402721859287 1.1338940795856929
v 0.5020704648298582 1.813145715590954 1.1338940795856933
v 0.482437753598953 1.063402721859287 1.8838940795856929
v 0.5020704648298582 1.813145715590954 1.8838940795856933
v 0.36566088432321897 1.3790677544526329 1.1963940795856933
v 0.37547723993867144 1.7539392513184664 1.1963940795856933
v 0.36566088432321897 1.3790677544526329 1.415144079585693
v 0.37547723993867144 1.7539392513184664 1.4151440795856933
v 0.4281394671341914 1.377431695183391 1.1963940795856933
v 0.4379558227496436 1.752303192049224 1.1963940795856933
v 0.4281394671341914 1.3774316951833905 1.415144079585693
v 0.4379558227496436 1.752303192049224 1.4151440795856933
v 0.36566088432321897 1.3790677544526329 1.446394079585693
v 0.37547723993867144 1.7539392513184664 1.4463940795856933
v 0.36566088432321897 1.3790677544526329 1.665144079585693
v 0.37547723993867144 1.7539392513184664 1.6651440795856933
v 0.4281394671341914 1.3774316951833905 1.446394079585693
v 0.4379558227496436 1.752303192049224 1.4463940795856933
v 0.4281394671341914 1.3774316951833905 1.665144079585693
v 0.4379558227496436 1.752303192049224 1.6651440795856933
v 0.3623887657847349 1.2541105888306876 1.696394079585693
v 0.36566088432321897 1.3790677544526329 1.696394079585693
v 0.3623887657847349 1.2541105888306876 1.8213940795856929
v 0.36566088432321897 1.3790677544526329 1.821394079585693
v 0.42486734859570685 1.2524745295614457 1.696394079585693
v 0.4281394671341914 1.3774316951833905 1.696394079585693
v 0.42486734859570685 1.2524745295614457 1.8213940795856929
v 0.4281394671341914 1.3774316951833905 1.821394079585693
v 0.3672969435924611 1.4415463372636044 1.696394079585693
v 0.3705690621309452 1.5665035028855492 1.6963940795856933
v 0.3672969435924611 1.4415463372636044 1.821394079585693
v 0.3705690621309452 1.5665035028855492 1.8213940795856933
v 0.4297755264034335 1.4399102779943624 1.696394079585693
v 0.4330476449419174 1.5648674436163077 1.6963940795856933
v 0.4297755264034335 1.4399102779943624 1.821394079585693
v 0.4330476449419174 1.5648674436163077 1.8213940795856933
v 0.37220512140018713 1.6289820856965216 1.6963940795856933
v 0.37220512140018713 1.6289820856965216 1.8213940795856933
v 0.37547723993867144 1.7539392513184655 1.8213940795856933
v 0.4346837042111593 1.6273460264272792 1.6963940795856933
v 0.4379558227496436 1.752303192049224 1.6963940795856933
v 0.4346837042111593 1.6273460264272792 1.8213940795856933
v 0.4379558227496436 1.752303192049224 1.8213940795856933
v 0.5627987814852697 1.7457606161874661 1.6963940795856933
v 0.6072807123345794 1.056860145997529 1.1338940795856929
v 0.6269134235654841 1.8066031397291962 1.1338940795856933
v 0.6072807123345794 1.0568601459975286 1.8838940795856929
v 0.6269134235654841 1.8066031397291962 1.8838940795856933
v 0.6697592951455513 1.0552240867282867 1.1338940795856929
v 0.6893920063764565 1.8049670804599538 1.1338940795856933
v 0.6697592951455513 1.0552240867282863 1.8838940795856929
v 0.6893920063764565 1.804967080459953 1.8838940795856933
v 0.5420775790284833 1.1211270639261683 1.1963940795856929
v 0.5518939346439358 1.4959985607920014 1.1963940795856933
v 0.5420775790284833 1.121127063926168 1.4151440795856929
v 0.5518939346439358 1.4959985607920014 1.415144079585693
v 0.6045561618394557 1.119491004656926 1.1963940795856929
v 0.614372517454908 1.4943625015227595 1.1963940795856933
v 0.6045561618394557 1.119491004656926 1.4151440795856929
v 0.614372517454908 1.4943625015227595 1.415144079585693
v 0.5420775790284833 1.121127063926168 1.4463940795856929
v 0.5518939346439358 1.4959985607920014 1.446394079585693
v 0.5420775790284833 1.121127063926168 1.6651440795856929
v 0.5518939346439358 1.4959985607920014 1.6651440795856933
v 0.6045561618394557 1.119491004656926 1.4463940795856929
v 0.614372517454908 1.4943625015227595 1.446394079585693
v 0.6045561618394557 1.1194910046569255 1.6651440795856929
v 0.614372517454908 1.494362501522759 1.6651440795856933
v 0.5497103073313332 1.2459319536996873 1.696394079585693
v 0.5529824258698173 1.3708891193216322 1.696394079585693
v 0.5497103073313332 1.245931953699687 1.8213940795856929
v 0.5529824258698173 1.3708891193216322 1.821394079585693
v 0.6121888901423054 1.2442958944304454 1.696394079585693
v 0.6154610086807897 1.3692530600523902 1.696394079585693
v 0.6121888901423054 1.2442958944304454 1.8213940795856929
v 0.6154610086807897 1.3692530600523898 1.821394079585693
v 0.5546184851390594 1.4333677021326041 1.696394079585693
v 0.5578906036775435 1.5583248677545498 1.6963940795856933
v 0.5546184851390594 1.4333677021326041 1.821394079585693
v 0.5578906036775435 1.558324867754549 1.821394079585693
v 0.6170970679500316 1.4317316428633622 1.696394079585693
v 0.6203691864885159 1.5566888084853074 1.6963940795856933
v 0.6170970679500316 1.4317316428633622 1.821394079585693
v 0.6203691864885159 1.5566888084853066 1.8213940795856933
v 0.5595266629467854 1.6208034505655213 1.6963940795856933
v 0.5595266629467854 1.6208034505655213 1.8213940795856933
v 0.5627987814852697 1.7457606161874661 1.8213940795856933
v 0.6220052457577576 1.619167391296279 1.6963940795856933
v 0.6252773642962419 1.7441245569182229 1.6963940795856933
v 0.6220052457577576 1.619167391296279 1.8213940795856933
v 0.6252773642962419 1.7441245569182229 1.8213940795856933
v 0.750120323031868 1.753206981056465 1.6963940795856933
v 0.7946022538811777 1.0643065108665284 1.1338940795856929
v 0.8142349651120824 1.814049504598196 1.1338940795856933
v 0.7946022538811777 1.064306510866528 1.8838940795856929
v 0.8142349651120824 1.814049504598195 1.8838940795856933
v 0.8570808366921496 1.062670451597286 1.1338940795856929
v 0.8767135479230546 1.8124134453289535 1.1338940795856933
v 0.8570808366921496 1.0626704515972856 1.8838940795856929
v 0.8767135479230546 1.8124134453289535 1.8838940795856933
v 0.7403039674164156 1.378335484190632 1.1963940795856933
v 0.750120323031868 1.753206981056465 1.1963940795856933
v 0.7403039674164156 1.378335484190632 1.415144079585693
v 0.750120323031868 1.753206981056465 1.4151440795856933
v 0.802782550227388 1.37669942492139 1.1963940795856933
v 0.8125989058428402 1.7515709217872235 1.1963940795856933
v 0.802782550227388 1.37669942492139 1.415144079585693
v 0.8125989058428402 1.7515709217872235 1.4151440795856933
v 0.7321253322854151 1.1910139426440338 1.4463940795856929
v 0.7419416879008676 1.5658854395098665 1.4463940795856933
v 0.7321253322854151 1.1910139426440334 1.665144079585693
v 0.7419416879008676 1.5658854395098665 1.6651440795856933
v 0.7946039150963875 1.1893778833747914 1.4463940795856929
v 0.8044202707118397 1.564249380240625 1.4463940795856933
v 0.7946039150963875 1.1893778833747914 1.665144079585693
v 0.8044202707118397 1.564249380240625 1.6651440795856933
v 0.7370318488779315 1.2533783185686866 1.696394079585693
v 0.7403039674164156 1.378335484190632 1.696394079585693
v 0.7370318488779315 1.2533783185686866 1.8213940795856929
v 0.7403039674164156 1.3783354841906315 1.821394079585693
v 0.7995104316889035 1.2517422592994447 1.696394079585693
v 0.802782550227388 1.3766994249213895 1.696394079585693
v 0.7995104316889035 1.2517422592994447 1.8213940795856929
v 0.802782550227388 1.3766994249213895 1.821394079585693
v 0.7419400266856577 1.4408140670016034 1.696394079585693
v 0.7452121452241418 1.5657712326235487 1.6963940795856933
v 0.7419400266856577 1.4408140670016034 1.821394079585693
v 0.7452121452241418 1.5657712326235487 1.821394079585693
v 0.8044186094966301 1.4391780077323615 1.696394079585693
v 0.8076907280351142 1.5641351733543072 1.6963940795856933
v 0.8044186094966301 1.4391780077323615 1.821394079585693
v 0.8076907280351142 1.5641351733543072 1.821394079585693
v 0.7468482044933837 1.6282498154345202 1.6963940795856933
v 0.7468482044933837 1.6282498154345202 1.8213940795856933
v 0.750120323031868 1.753206981056465 1.8213940795856933
v 0.8093267873043559 1.6266137561652787 1.6963940795856933
v 0.8125989058428402 1.7515709217872235 1.6963940795856933
v 0.8093267873043559 1.6266137561652787 1.8213940795856933
v 0.8125989058428402 1.7515709217872235 1.8213940795856933
v 0.125 1.8125 1.375
v 0.125 1.8125 1.875
v 0.125 1.6875 1.375
v 0.125 1.6875 1.875
v 0.0625 1.8125 1.375
v 0.0625 1.8125 1.875
v 0.0625 1.6875 1.375
v 0.0625 1.6875 1.875
v 0.4375 1.8125 1.875
v 0.4375 1.8125 1.9375
v 0.4375 1.6875 1.875
v 0.4375 1.6875 1.9375
v 0.0625 1.8125 1.9375
v 0.0625 1.6875 1.9375
v 0.125 1.625 1.375
v 0.125 1.625 1.875
v 0.125 1.5 1.375
v 0.125 1.5 1.875
v 0.0625 1.625 1.375
v 0.0625 1.625 1.875
v 0.0625 1.5 1.375
v 0.0625 1.5 1.875
v 0.4375 1.625 1.875
v 0.4375 1.625 1.9375
v 0.4375 1.5 1.875
v 0.4375 1.5 1.9375
v 0.0625 1.625 1.9375
v 0.0625 1.5 1.9375
v 0.125 1.4375 1.375
v 0.125 1.4375 1.875
v 0.125 1.3125 1.375
v 0.125 1.3125 1.875
v 0.0625 1.4375 1.375
v 0.0625 1.4375 1.875
v 0.0625 1.3125 1.375
v 0.0625 1.3125 1.875
v 0.4375 1.4375 1.875
v 0.4375 1.4375 1.9375
v 0.4375 1.3125 1.875
v 0.4375 1.3125 1.9375
v 0.0625 1.4375 1.9375
v 0.0625 1.3125 1.9375
v 0.03125 1.875 0.940625
v 0.03125 1.875 1.003125
v 0.03125 1.75 0.940625
v 0.03125 1.75 1.003125
v -0.03125 1.875 0.940625
v -0.03125 1.875 1.003125
v -0.03125 1.75 0.940625
v -0.03125 1.75 1.003125
v 0.9375 -0.1875 0.75
v 0.9375 -0.1875 0.9375
v 0.9375 -1 0.75
v 0.9375 -1 0.9375
v 0.75 -0.1875 0.75
v 0.75 -0.1875 0.9375
v 0.75 -1 0.75
v 0.75 -1 0.9375
v 0.9375 -0.1875 0.125
v 0.9375 -0.1875 0.3125
v 0.9375 -1 0.125
v 0.9375 -1 0.3125
v 0.75 -0.1875 0.125
v 0.75 -0.1875 0.3125
v 0.75 -1 0.125
v 0.75 -1 0.3125
v -0.75 -0.1875 0.75
v -0.75 -0.1875 0.9375
v -0.75 -1 0.75
v -0.75 -1 0.9375
v -0.9375 -0.1875 0.75
v -0.9375 -0.1875 0.9375
v -0.9375 -1 0.75
v -0.9375 -1 0.9375
v -0.75 -0.1875 0.0625
v -0.75 -0.1875 0.25
v -0.75 -1 0.0625
v -0.75 -1 0.25
v -0.9375 -0.1875 0.0625
v -0.9375 -0.1875 0.25
v -0.9375 -1 0.0625
v -0.9375 -1 0.25
v 1 0 0
v 1 -0.1875 0
v 1 -0.1875 1
v -1 0 0
v -1 -0.1875 0
v -1 -0.1875 1
v -0.03125 1.25 0.940625
v -0.03125 1.25 1.003125
v -0.03125 1.125 0.940625
v -0.03125 1.125 1.003125
v 0.03125 1.25 1.003125
v 0.03125 1.25 0.940625
v 0.03125 1.125 1.003125
v 0.03125 1.125 0.940625
v -0.71875 1 0.878125
v -0.71875 1 1.003125
v -0.71875 0.875 0.878125
v -0.71875 0.875 1.003125
v -0.65625 1 1.003125
v -0.65625 1 0.878125
v -0.65625 0.875 1.003125
v -0.65625 0.875 0.878125
v -0.46875 1 0.878125
v -0.46875 1 1.003125
v -0.46875 0.875 0.878125
v -0.46875 0.875 1.003125
v -0.40625 1 1.003125
v -0.40625 1 0.878125
v -0.40625 0.875 1.003125
v -0.40625 0.875 0.878125
v -0.453125 1.203125 0.9375
v -0.453125 1.203125 1
v -0.453125 1.015625 0.9375
v -0.453125 1.015625 1
v -0.640625 1.203125 0.9375
v -0.640625 1.203125 1
v -0.640625 1.015625 0.9375
v -0.640625 1.015625 1
v -0.6122721845404853 1.0430171570076756 0.7690256106845439
v -0.6122721845404855 1.1680171570076756 0.8002756106845433
v -0.48727218454048526 1.0430171570076756 0.7690256106845439
v -0.48727218454048526 1.168017157007676 0.8002756106845433
v -0.4868912175582889 1.1673845943266343 0.8940256106845434
v -0.6118912175582889 1.1673845943266343 0.8940256106845434
v -0.6118912175582889 1.0423845943266343 0.8940256106845439
v -0.4868912175582889 1.0423845943266343 0.8940256106845439
v -0.6115102505760925 1.041752031645593 0.9565256106845439
v -0.48651025057609243 1.166752031645593 0.9565256106845434
v -0.6115102505760925 1.166752031645593 0.9565256106845434
v -0.48651025057609243 1.041752031645593 0.9565256106845439
v -0.375 0.979212388907416 0.9465100433653757
v -0.375 0.7961568875724288 0.9059276157519814
v -0.375 1.0603772441342043 0.5803990406954005
v -0.375 0.877321742799217 0.5398166130820063
v -0.75 0.979212388907416 0.9465100433653757
v -0.75 0.7961568875724288 0.9059276157519814
v -0.75 1.0603772441342043 0.5803990406954005
v -0.75 0.877321742799217 0.5398166130820063
v -0.6875 0.8096843634435595 0.8449091153069856
v -0.4375 0.8096843634435595 0.8449091153069856
v -0.6875 0.8637942669280854 0.6008351135270023
v -0.4375 0.8637942669280854 0.6008351135270023
v -0.6875 0.8707028638885559 0.8584365911781171
v -0.4375 0.8707028638885559 0.8584365911781171
v -0.6875 0.9248127673730817 0.6143625893981337
v -0.4375 0.9248127673730817 0.6143625893981337
v -0.4375 1.0537583652235436 0.8990190187915114
v -0.4375 1.1078682687080694 0.6549450170115279
v -0.6875 1.0537583652235436 0.8990190187915114
v -0.6875 1.1078682687080694 0.6549450170115279
v -0.6875 0.8401936136660577 0.8516728532425514
v -0.4375 0.8401936136660577 0.8516728532425514
v -0.6875 0.8943035171505835 0.607598851462568
v -0.4375 0.8943035171505835 0.607598851462568
v -1 2 1
v -1 2 2
v -0.8749999999999991 1.9375000000000009 1.875
v -0.8749999999999991 1.9375000000000009 1.125
v -0.12500000000000044 1.9375 1.875
v -0.12500000000000044 1.9375 1.125
v -0.875 1.9999999999999991 1.125
v -0.875 1.9999999999999991 1.875
v -0.1250000000000009 2.000000000000001 1.875
v -8.881784197001252e-16 2 2
v -0.1250000000000009 2.000000000000001 1.125
v -8.881784197001252e-16 2 1
v -0.25 2.0062499999999996 1.25
v -0.25 2.0062499999999996 1.75
v -0.25 1.9437499999999996 1.25
v -0.25 1.9437499999999996 1.75
v -0.75 2.0062499999999996 1.25
v -0.75 2.0062499999999996 1.75
v -0.75 1.9437499999999996 1.25
v -0.75 1.9437499999999996 1.75
v -0.0625 0.9999999999999996 1
v -0.0625 2 1
v 0.125 0.25 0.9375
v 0.125 0.25 1
v 0.125 0.0625 0.9375
v 0.125 0.0625 1
v -0.0625 0.25 0.9375
v -0.0625 0.25 1
v -0.0625 0.0625 0.9375
v -0.0625 0.0625 1
v 0.125 0.25 0.6875
v 0.125 0.25 0.9375
v 0.125 0.0625 0.6875
v 0.125 0.0625 0.9375
v -0.0625 0.25 0.6875
v -0.0625 0.25 0.9375
v -0.0625 0.0625 0.6875
v -0.0625 0.0625 0.9375
v 0.125 0.1875 0.6875
v -0.0625 0.1875 0.6875
v 0 0.0625 0.6875
v 0 0.1875 0.6875
vt 0.765625 0.0625
vt 0.984375 0.0625
vt 0.984375 0
vt 0.765625 0
vt 0.78125 0.0625
vt 1 0.0625
vt 1 0
vt 0.78125 0
vt 0.765625 0.0625
vt 0.765625 0.25
vt 0.984375 0.25
vt 0.984375 0.0625
vt 0.796875 0.453125
vt 0.984375 0.453125
vt 0.984375 0.390625
vt 0.796875 0.390625
vt 0.75 0.5
vt 1 0.5
vt 1 0.25
vt 0.75 0.25
vt 0.75 0.5
vt 1 0.5
vt 1 0.25
vt 0.75 0.25
vt 0.25 0.5
vt 0.25 0.25
vt 0 0.25
vt 0 0.5
vt 0.75 0.25
vt 0.5 0.25
vt 0.5 0.5
vt 0.75 0.5
vt 1 0.5
vt 0.75 0.5
vt 0.75 0.25
vt 1 0.25
vt 0.5 0
vt 0.25 0
vt 0.25 0.25
vt 0.5 0.25
vt 0.25 0.25
vt 0.25 0
vt 0 0
vt 0 0.25
vt 0 0.5
vt 0.25 0.5
vt 0.25 0.25
vt 0 0.25
vt 1 0.25
vt 1 0
vt 0.75 0
vt 0.75 0.25
vt 0.5 0.25
vt 0.5 0.5
vt 0.75 0.5
vt 0.75 0.25
vt 0 0.25
vt 0.25 0.25
vt 0.25 0
vt 0 0
vt 0.75 0.75
vt 1 0.75
vt 1 1
vt 0.75 1
vt 0.25 0
vt 0.25 0.25
vt 0.5 0.25
vt 0.5 0
vt 0.75 0.25
vt 1 0.25
vt 1 0
vt 0.75 0
vt 0.75 1
vt 1 1
vt 1 0.75
vt 0.75 0.75
vt 0.484375 1
vt 0.75 1
vt 0.75 0.75
vt 0.484375 0.75
vt 0.78125 0.21875
vt 0.96875 0.21875
vt 0.96875 0.03125
vt 0.78125 0.03125
vt 1 0
vt 0.96875 0.03125
vt 0.96875 0.21875
vt 1 0.25
vt 1 0.25
vt 0.96875 0.21875
vt 0.78125 0.21875
vt 0.75 0.25
vt 0.75 0.25
vt 0.78125 0.21875
vt 0.78125 0.03125
vt 0.75 0
vt 0.75 0
vt 0.78125 0.03125
vt 0.96875 0.03125
vt 1 0
vt 0.96875 0.21875
vt 0.984375 0.21875
vt 0.984375 0.03125
vt 0.96875 0.03125
vt 0.96875 0.234375
vt 0.96875 0.21875
vt 0.78125 0.21875
vt 0.78125 0.234375
vt 0.765625 0.21875
vt 0.78125 0.21875
vt 0.78125 0.03125
vt 0.765625 0.03125
vt 0.78125 0.03125
vt 0.78125 0.015625
vt 0.96875 0.015625
vt 0.96875 0.03125
vt 0.96875 0.03125
vt 0.96875 0.21875
vt 0.78125 0.21875
vt 0.78125 0.03125
vt 0.96875 0.21875
vt 0.96875 0.03125
vt 1 0
vt 1 0.25
vt 0.78125 0.21875
vt 0.96875 0.21875
vt 1 0.25
vt 0.75 0.25
vt 0.78125 0.03125
vt 0.78125 0.21875
vt 0.75 0.25
vt 0.75 0
vt 0.96875 0.03125
vt 0.78125 0.03125
vt 0.75 0
vt 1 0
vt 0.984375 0.03125
vt 0.984375 0.21875
vt 0.96875 0.21875
vt 0.96875 0.03125
vt 0.78125 0.21875
vt 0.96875 0.21875
vt 0.96875 0.234375
vt 0.78125 0.234375
vt 0.78125 0.03125
vt 0.78125 0.21875
vt 0.765625 0.21875
vt 0.765625 0.03125
vt 0.96875 0.015625
vt 0.78125 0.015625
vt 0.78125 0.03125
vt 0.96875 0.03125
vt 0.71875 0.21875
vt 0.734375 0.21875
vt 0.734375 0.03125
vt 0.71875 0.03125
vt 0.71875 0.234375
vt 0.71875 0.21875
vt 0.53125 0.21875
vt 0.53125 0.234375
vt 0.515625 0.21875
vt 0.53125 0.21875
vt 0.53125 0.03125
vt 0.515625 0.03125
vt 0.53125 0.03125
vt 0.53125 0.015625
vt 0.71875 0.015625
vt 0.71875 0.03125
vt 0.75 0.25
vt 1 0.25
vt 1 0
vt 0.75 0
vt 0.78125 1
vt 1 1
vt 1 0.984375
vt 0.78125 0.984375
vt 0.75 0.25
vt 1 0.25
vt 1 0
vt 0.75 0
vt 0.75 1
vt 1 1
vt 1 0.75
vt 0.75 0.75
vt 0.984375 1
vt 1 1
vt 1 0.75
vt 0.984375 0.75
vt 0.75 0.25
vt 1 0.25
vt 1 0
vt 0.75 0
vt 0.234375 1
vt 0.234375 0.75
vt 0 0.75
vt 0 1
vt 0 0
vt 0 0.25
vt 0.25 0.25
vt 0.25 0
vt 0 0.34375
vt 0 0.375
vt 0.28125 0.375
vt 0.28125 0.34375
vt 0 0.1875
vt 0 0.21875
vt 0.28125 0.21875
vt 0.28125 0.1875
vt 0.25 0.375
vt 0.28125 0.375
vt 0.28125 0.1875
vt 0.25 0.1875
vt 0 0.375
vt 0.03125 0.375
vt 0.03125 0.1875
vt 0 0.1875
vt 0.625 0.09375
vt 0.75 0.09375
vt 0.75 0.078125
vt 0.625 0.078125
vt 0.625 0.09375
vt 0.75 0.09375
vt 0.75 0.078125
vt 0.625 0.078125
vt 0.734375 0.125
vt 0.75 0.125
vt 0.75 0.109375
vt 0.734375 0.109375
vt 0.625 0.125
vt 0.640625 0.125
vt 0.640625 0.109375
vt 0.625 0.109375
vt 0.640625 0.125
vt 0.734375 0.125
vt 0.734375 0.109375
vt 0.640625 0.109375
vt 0.640625 0.125
vt 0.734375 0.125
vt 0.75 0.109375
vt 0.625 0.109375
vt 0.625 0.125
vt 0.640625 0.125
vt 0.640625 0.109375
vt 0.625 0.109375
vt 0.625 0.109375
vt 0.640625 0.109375
vt 0.640625 0.09375
vt 0.625 0.09375
vt 0.625 0.125
vt 0.640625 0.125
vt 0.640625 0.109375
vt 0.625 0.109375
vt 0.734375 0.109375
vt 0.75 0.109375
vt 0.75 0.09375
vt 0.734375 0.09375
vt 0.625 0.109375
vt 0.640625 0.109375
vt 0.640625 0.078125
vt 0.625 0.078125
vt 0.625 0.125
vt 0.640625 0.125
vt 0.640625 0.09375
vt 0.625 0.09375
vt 0.640625 0.078125
vt 0.640625 0.09375
vt 0.734375 0.09375
vt 0.734375 0.078125
vt 0.734375 0.125
vt 0.734375 0.109375
vt 0.640625 0.109375
vt 0.640625 0.125
vt 0.625 0.09375
vt 0.625 0.109375
vt 0.75 0.109375
vt 0.75 0.09375
vt 0.5 0.09375
vt 0.625 0.09375
vt 0.625 0.078125
vt 0.5 0.078125
vt 0.5 0.09375
vt 0.625 0.09375
vt 0.625 0.078125
vt 0.5 0.078125
vt 0.609375 0.125
vt 0.625 0.125
vt 0.625 0.109375
vt 0.609375 0.109375
vt 0.5 0.125
vt 0.515625 0.125
vt 0.515625 0.109375
vt 0.5 0.109375
vt 0.515625 0.125
vt 0.609375 0.125
vt 0.609375 0.109375
vt 0.515625 0.109375
vt 0.515625 0.125
vt 0.609375 0.125
vt 0.625 0.109375
vt 0.5 0.109375
vt 0.5 0.125
vt 0.515625 0.125
vt 0.515625 0.109375
vt 0.5 0.109375
vt 0.5 0.109375
vt 0.515625 0.109375
vt 0.515625 0.09375
vt 0.5 0.09375
vt 0.5 0.125
vt 0.515625 0.125
vt 0.515625 0.109375
vt 0.5 0.109375
vt 0.609375 0.109375
vt 0.625 0.109375
vt 0.625 0.09375
vt 0.609375 0.09375
vt 0.5 0.109375
vt 0.515625 0.109375
vt 0.515625 0.078125
vt 0.5 0.078125
vt 0.5 0.125
vt 0.515625 0.125
vt 0.515625 0.09375
vt 0.5 0.09375
vt 0.515625 0.078125
vt 0.515625 0.09375
vt 0.609375 0.09375
vt 0.609375 0.078125
vt 0.609375 0.125
vt 0.609375 0.109375
vt 0.515625 0.109375
vt 0.515625 0.125
vt 0.5 0.09375
vt 0.5 0.109375
vt 0.625 0.109375
vt 0.625 0.09375
vt 0 1
vt 0.03125 1
vt 0.03125 0.625
vt 0 0.625
vt 0.28125 1
vt 0.3125 1
vt 0.3125 0.625
vt 0.28125 0.625
vt 0.03125 1
vt 0.28125 1
vt 0.28125 0.96875
vt 0.03125 0.96875
vt 0.03125 0.65625
vt 0.28125 0.65625
vt 0.28125 0.625
vt 0.03125 0.625
vt 0 1
vt 0.3125 1
vt 0.3125 0.625
vt 0 0.625
vt 0.03125 1
vt 0.28125 1
vt 0.28125 0.625
vt 0.03125 0.625
vt 0.75 1
vt 0.8125 1
vt 0.8125 0.8125
vt 0.75 0.8125
vt 0.75 1
vt 0.8125 1
vt 0.8125 0.8125
vt 0.75 0.8125
vt 0.75 0.9375
vt 0.75 0.9375
vt 0.75 1
vt 0.8125 1
vt 0.8125 0.9375
vt 0.75 0.9375
vt 0.75 1
vt 0.75 1
vt 0.75 1
vt 0.8125 1
vt 0.8125 0.8125
vt 0.75 0.8125
vt 0.75 1
vt 0.8125 1
vt 0.8125 0.8125
vt 0.75 0.8125
vt 0.75 0.9375
vt 0.75 0.9375
vt 0.75 1
vt 0.8125 1
vt 0.8125 0.9375
vt 0.75 0.9375
vt 0.75 1
vt 0.75 1
vt 0.75 1
vt 0.8125 1
vt 0.8125 0.8125
vt 0.75 0.8125
vt 0.75 1
vt 0.8125 1
vt 0.8125 0.8125
vt 0.75 0.8125
vt 0.75 0.9375
vt 0.75 0.9375
vt 0.75 1
vt 0.8125 1
vt 0.8125 0.9375
vt 0.75 0.9375
vt 0.75 1
vt 0.75 1
vt 0.75 0.25
vt 0.75 1
vt 0 1
vt 0 0.25
vt 0 0.25
vt 0 1
vt 0.75 1
vt 0.75 0.25
vt 0 1
vt 0.75 1
vt 0.75 0.9375
vt 0 0.9375
vt 0.75 0.3125
vt 0 0.3125
vt 0 0.25
vt 0.75 0.25
vt 0.0625 0.25
vt 0.0625 1
vt 0 1
vt 0 0.25
vt 0.75 0.25
vt 0.75 1
vt 0.6875 1
vt 0.6875 0.25
vt 1 0.625
vt 0.75 0.625
vt 0.75 1
vt 1 1
vt 0.75 1
vt 0.75 0.625
vt 0.8125 0.625
vt 0.8125 1
vt 1 0.625
vt 1 1
vt 0.9375 1
vt 0.9375 0.625
vt 1 0.9375
vt 0.75 0.9375
vt 0.75 1
vt 1 1
vt 1 0.625
vt 0.75 0.625
vt 0.75 0.6875
vt 1 0.6875
vt 1 0.25
vt 0.75 0.25
vt 0.75 0.625
vt 1 0.625
vt 0.8125 0.625
vt 0.8125 0.25
vt 0.75 0.25
vt 0.75 0.625
vt 1 0.25
vt 1 0.625
vt 0.9375 0.625
vt 0.9375 0.25
vt 1 0.5625
vt 0.75 0.5625
vt 0.75 0.625
vt 1 0.625
vt 1 0.25
vt 0.75 0.25
vt 0.75 0.3125
vt 1 0.3125
vt 0.75 0.125
vt 0.75 0.25
vt 0.625 0.25
vt 0.625 0.125
vt 0.625 0.25
vt 0.75 0.25
vt 0.75 0.1875
vt 0.625 0.1875
vt 0.75 0.1875
vt 0.625 0.1875
vt 0.625 0.125
vt 0.75 0.125
vt 0.625 0.125
vt 0.625 0.25
vt 0.6875 0.25
vt 0.6875 0.125
vt 0.6875 0.125
vt 0.6875 0.25
vt 0.75 0.25
vt 0.75 0.125
vt 0.875 0.125
vt 0.875 0.25
vt 0.75 0.25
vt 0.75 0.125
vt 0.75 0.25
vt 0.875 0.25
vt 0.875 0.1875
vt 0.75 0.1875
vt 0.875 0.1875
vt 0.75 0.1875
vt 0.75 0.125
vt 0.875 0.125
vt 0.75 0.125
vt 0.75 0.25
vt 0.8125 0.25
vt 0.8125 0.125
vt 0.8125 0.125
vt 0.8125 0.25
vt 0.875 0.25
vt 0.875 0.125
vt 1 0.125
vt 1 0.25
vt 0.875 0.25
vt 0.875 0.125
vt 0.875 0.25
vt 1 0.25
vt 1 0.1875
vt 0.875 0.1875
vt 1 0.1875
vt 0.875 0.1875
vt 0.875 0.125
vt 1 0.125
vt 0.875 0.125
vt 0.875 0.25
vt 0.9375 0.25
vt 0.9375 0.125
vt 0.9375 0.125
vt 0.9375 0.25
vt 1 0.25
vt 1 0.125
vt 0.75 0.25
vt 0.75 1
vt 0 1
vt 0 0.25
vt 0 0.25
vt 0 1
vt 0.75 1
vt 0.75 0.25
vt 0 1
vt 0.75 1
vt 0.75 0.9375
vt 0 0.9375
vt 0.75 0.3125
vt 0 0.3125
vt 0 0.25
vt 0.75 0.25
vt 0.0625 0.25
vt 0.0625 1
vt 0 1
vt 0 0.25
vt 0.75 0.25
vt 0.75 1
vt 0.6875 1
vt 0.6875 0.25
vt 1 0.625
vt 0.75 0.625
vt 0.75 1
vt 1 1
vt 0.75 1
vt 0.75 0.625
vt 0.8125 0.625
vt 0.8125 1
vt 1 0.625
vt 1 1
vt 0.9375 1
vt 0.9375 0.625
vt 1 0.9375
vt 0.75 0.9375
vt 0.75 1
vt 1 1
vt 1 0.625
vt 0.75 0.625
vt 0.75 0.6875
vt 1 0.6875
vt 1 0.25
vt 0.75 0.25
vt 0.75 0.625
vt 1 0.625
vt 0.8125 0.625
vt 0.8125 0.25
vt 0.75 0.25
vt 0.75 0.625
vt 1 0.25
vt 1 0.625
vt 0.9375 0.625
vt 0.9375 0.25
vt 1 0.5625
vt 0.75 0.5625
vt 0.75 0.625
vt 1 0.625
vt 1 0.25
vt 0.75 0.25
vt 0.75 0.3125
vt 1 0.3125
vt 0.75 0.125
vt 0.75 0.25
vt 0.625 0.25
vt 0.625 0.125
vt 0.625 0.25
vt 0.75 0.25
vt 0.75 0.1875
vt 0.625 0.1875
vt 0.75 0.1875
vt 0.625 0.1875
vt 0.625 0.125
vt 0.75 0.125
vt 0.625 0.125
vt 0.625 0.25
vt 0.6875 0.25
vt 0.6875 0.125
vt 0.6875 0.125
vt 0.6875 0.25
vt 0.75 0.25
vt 0.75 0.125
vt 0.875 0.125
vt 0.875 0.25
vt 0.75 0.25
vt 0.75 0.125
vt 0.75 0.25
vt 0.875 0.25
vt 0.875 0.1875
vt 0.75 0.1875
vt 0.875 0.1875
vt 0.75 0.1875
vt 0.75 0.125
vt 0.875 0.125
vt 0.75 0.125
vt 0.75 0.25
vt 0.8125 0.25
vt 0.8125 0.125
vt 0.8125 0.125
vt 0.8125 0.25
vt 0.875 0.25
vt 0.875 0.125
vt 1 0.125
vt 1 0.25
vt 0.875 0.25
vt 0.875 0.125
vt 0.875 0.25
vt 1 0.25
vt 1 0.1875
vt 0.875 0.1875
vt 1 0.1875
vt 0.875 0.1875
vt 0.875 0.125
vt 1 0.125
vt 0.875 0.125
vt 0.875 0.25
vt 0.9375 0.25
vt 0.9375 0.125
vt 0.9375 0.125
vt 0.9375 0.25
vt 1 0.25
vt 1 0.125
vt 0.75 0.25
vt 0.75 1
vt 0 1
vt 0 0.25
vt 0 0.25
vt 0 1
vt 0.75 1
vt 0.75 0.25
vt 0 1
vt 0.75 1
vt 0.75 0.9375
vt 0 0.9375
vt 0.75 0.3125
vt 0 0.3125
vt 0 0.25
vt 0.75 0.25
vt 0.0625 0.25
vt 0.0625 1
vt 0 1
vt 0 0.25
vt 0.75 0.25
vt 0.75 1
vt 0.6875 1
vt 0.6875 0.25
vt 1 0.625
vt 0.75 0.625
vt 0.75 1
vt 1 1
vt 0.75 1
vt 0.75 0.625
vt 0.8125 0.625
vt 0.8125 1
vt 1 0.625
vt 1 1
vt 0.9375 1
vt 0.9375 0.625
vt 1 0.9375
vt 0.75 0.9375
vt 0.75 1
vt 1 1
vt 1 0.625
vt 0.75 0.625
vt 0.75 0.6875
vt 1 0.6875
vt 1 0.25
vt 0.75 0.25
vt 0.75 0.625
vt 1 0.625
vt 0.8125 0.625
vt 0.8125 0.25
vt 0.75 0.25
vt 0.75 0.625
vt 1 0.25
vt 1 0.625
vt 0.9375 0.625
vt 0.9375 0.25
vt 1 0.5625
vt 0.75 0.5625
vt 0.75 0.625
vt 1 0.625
vt 1 0.25
vt 0.75 0.25
vt 0.75 0.3125
vt 1 0.3125
vt 0.75 0.125
vt 0.75 0.25
vt 0.625 0.25
vt 0.625 0.125
vt 0.625 0.25
vt 0.75 0.25
vt 0.75 0.1875
vt 0.625 0.1875
vt 0.75 0.1875
vt 0.625 0.1875
vt 0.625 0.125
vt 0.75 0.125
vt 0.625 0.125
vt 0.625 0.25
vt 0.6875 0.25
vt 0.6875 0.125
vt 0.6875 0.125
vt 0.6875 0.25
vt 0.75 0.25
vt 0.75 0.125
vt 0.875 0.125
vt 0.875 0.25
vt 0.75 0.25
vt 0.75 0.125
vt 0.75 0.25
vt 0.875 0.25
vt 0.875 0.1875
vt 0.75 0.1875
vt 0.875 0.1875
vt 0.75 0.1875
vt 0.75 0.125
vt 0.875 0.125
vt 0.75 0.125
vt 0.75 0.25
vt 0.8125 0.25
vt 0.8125 0.125
vt 0.8125 0.125
vt 0.8125 0.25
vt 0.875 0.25
vt 0.875 0.125
vt 1 0.125
vt 1 0.25
vt 0.875 0.25
vt 0.875 0.125
vt 0.875 0.25
vt 1 0.25
vt 1 0.1875
vt 0.875 0.1875
vt 1 0.1875
vt 0.875 0.1875
vt 0.875 0.125
vt 1 0.125
vt 0.875 0.125
vt 0.875 0.25
vt 0.9375 0.25
vt 0.9375 0.125
vt 0.9375 0.125
vt 0.9375 0.25
vt 1 0.25
vt 1 0.125
vt 0.5625 0.0625
vt 0.5625 0.5625
vt 0.6875 0.5625
vt 0.6875 0.0625
vt 0.5625 0.5625
vt 0.625 0.5625
vt 0.625 0.0625
vt 0.5625 0.0625
vt 0.5625 0.0625
vt 0.625 0.0625
vt 0.625 0.5625
vt 0.5625 0.5625
vt 0.5625 0.0625
vt 0.5625 0.125
vt 0.6875 0.125
vt 0.6875 0.0625
vt 0.5625 0.875
vt 0.5625 0.9375
vt 0.6875 0.9375
vt 0.6875 0.875
vt 0.5625 0.5625
vt 0.5625 0.9375
vt 0.625 0.9375
vt 0.625 0.5625
vt 0.5625 0.5625
vt 0.5625 0.9375
vt 0.625 0.9375
vt 0.625 0.5625
vt 0.5625 0.5625
vt 0.5625 0.9375
vt 0.6875 0.9375
vt 0.6875 0.5625
vt 0.5625 0.0625
vt 0.5625 0.5625
vt 0.6875 0.5625
vt 0.6875 0.0625
vt 0.5625 0.5625
vt 0.625 0.5625
vt 0.625 0.0625
vt 0.5625 0.0625
vt 0.5625 0.0625
vt 0.625 0.0625
vt 0.625 0.5625
vt 0.5625 0.5625
vt 0.5625 0.0625
vt 0.5625 0.125
vt 0.6875 0.125
vt 0.6875 0.0625
vt 0.5625 0.875
vt 0.5625 0.9375
vt 0.6875 0.9375
vt 0.6875 0.875
vt 0.5625 0.5625
vt 0.5625 0.9375
vt 0.625 0.9375
vt 0.625 0.5625
vt 0.5625 0.5625
vt 0.5625 0.9375
vt 0.625 0.9375
vt 0.625 0.5625
vt 0.5625 0.5625
vt 0.5625 0.9375
vt 0.6875 0.9375
vt 0.6875 0.5625
vt 0.5625 0.0625
vt 0.5625 0.5625
vt 0.6875 0.5625
vt 0.6875 0.0625
vt 0.5625 0.5625
vt 0.625 0.5625
vt 0.625 0.0625
vt 0.5625 0.0625
vt 0.5625 0.0625
vt 0.625 0.0625
vt 0.625 0.5625
vt 0.5625 0.5625
vt 0.5625 0.0625
vt 0.5625 0.125
vt 0.6875 0.125
vt 0.6875 0.0625
vt 0.5625 0.875
vt 0.5625 0.9375
vt 0.6875 0.9375
vt 0.6875 0.875
vt 0.5625 0.5625
vt 0.5625 0.9375
vt 0.625 0.9375
vt 0.625 0.5625
vt 0.5625 0.5625
vt 0.5625 0.9375
vt 0.625 0.9375
vt 0.625 0.5625
vt 0.5625 0.5625
vt 0.5625 0.9375
vt 0.6875 0.9375
vt 0.6875 0.5625
vt 0.6875 0.21875
vt 0.703125 0.21875
vt 0.703125 0.1875
vt 0.6875 0.1875
vt 0.6875 0.21875
vt 0.703125 0.21875
vt 0.703125 0.1875
vt 0.6875 0.1875
vt 0.6875 0.21875
vt 0.703125 0.21875
vt 0.703125 0.203125
vt 0.6875 0.203125
vt 0.6875 0.203125
vt 0.703125 0.203125
vt 0.703125 0.1875
vt 0.6875 0.1875
vt 0.6875 0.21875
vt 0.703125 0.21875
vt 0.703125 0.1875
vt 0.6875 0.1875
vt 0.796875 0.703125
vt 0.84375 0.703125
vt 0.84375 0.5
vt 0.796875 0.5
vt 0.796875 0.703125
vt 0.84375 0.703125
vt 0.84375 0.5
vt 0.796875 0.5
vt 0.84375 0.75
vt 0.890625 0.75
vt 0.890625 0.703125
vt 0.84375 0.703125
vt 0.84375 0.703125
vt 0.890625 0.703125
vt 0.890625 0.5
vt 0.84375 0.5
vt 0.84375 0.703125
vt 0.890625 0.703125
vt 0.890625 0.5
vt 0.84375 0.5
vt 0.84375 0.703125
vt 0.890625 0.703125
vt 0.890625 0.5
vt 0.84375 0.5
vt 0.84375 0.703125
vt 0.890625 0.703125
vt 0.890625 0.5
vt 0.84375 0.5
vt 0.84375 0.75
vt 0.890625 0.75
vt 0.890625 0.703125
vt 0.84375 0.703125
vt 0.796875 0.703125
vt 0.84375 0.703125
vt 0.84375 0.5
vt 0.796875 0.5
vt 0.796875 0.703125
vt 0.84375 0.703125
vt 0.84375 0.5
vt 0.796875 0.5
vt 0.796875 0.703125
vt 0.84375 0.703125
vt 0.84375 0.5
vt 0.796875 0.5
vt 0.796875 0.703125
vt 0.84375 0.703125
vt 0.84375 0.5
vt 0.796875 0.5
vt 0.84375 0.75
vt 0.890625 0.75
vt 0.890625 0.703125
vt 0.84375 0.703125
vt 0.84375 0.703125
vt 0.890625 0.703125
vt 0.890625 0.5
vt 0.84375 0.5
vt 0.84375 0.703125
vt 0.890625 0.703125
vt 0.890625 0.5
vt 0.84375 0.5
vt 0.796875 0.703125
vt 0.84375 0.703125
vt 0.84375 0.5
vt 0.796875 0.5
vt 0.796875 0.703125
vt 0.84375 0.703125
vt 0.84375 0.5
vt 0.796875 0.5
vt 0.84375 0.75
vt 0.890625 0.75
vt 0.890625 0.703125
vt 0.84375 0.703125
vt 0.84375 0.703125
vt 0.890625 0.703125
vt 0.890625 0.5
vt 0.84375 0.5
vt 0.84375 0.703125
vt 0.890625 0.703125
vt 0.890625 0.5
vt 0.84375 0.5
vt 0.796875 0.5
vt 0.796875 0.75
vt 0.84375 0.75
vt 0.84375 0.5
vt 0.796875 0.5
vt 0.796875 0.75
vt 0.84375 0.75
vt 0.84375 0.5
vt 0.5 0
vt 0 0
vt 0 0.25
vt 0.5 0.25
vt 0.5 0.25
vt 0 0.25
vt 0 0
vt 0.5 0
vt 0.75 0.25
vt 0.75 0.75
vt 0.796875 0.75
vt 0.796875 0.25
vt 0 0.1875
vt 0 0.375
vt 0.28125 0.375
vt 0.28125 0.1875
vt 0.6875 0.21875
vt 0.703125 0.21875
vt 0.703125 0.1875
vt 0.6875 0.1875
vt 0.6875 0.21875
vt 0.703125 0.21875
vt 0.703125 0.1875
vt 0.6875 0.1875
vt 0.6875 0.21875
vt 0.703125 0.21875
vt 0.703125 0.203125
vt 0.6875 0.203125
vt 0.6875 0.203125
vt 0.703125 0.203125
vt 0.703125 0.1875
vt 0.6875 0.1875
vt 0.6875 0.21875
vt 0.703125 0.21875
vt 0.703125 0.1875
vt 0.6875 0.1875
vt 0.6875 0.21875
vt 0.703125 0.21875
vt 0.703125 0.1875
vt 0.6875 0.1875
vt 0.6875 0.21875
vt 0.703125 0.21875
vt 0.703125 0.1875
vt 0.6875 0.1875
vt 0.6875 0.21875
vt 0.703125 0.21875
vt 0.703125 0.203125
vt 0.6875 0.203125
vt 0.6875 0.203125
vt 0.703125 0.203125
vt 0.703125 0.1875
vt 0.6875 0.1875
vt 0.6875 0.21875
vt 0.703125 0.21875
vt 0.703125 0.1875
vt 0.6875 0.1875
vt 0.6875 0.21875
vt 0.703125 0.21875
vt 0.703125 0.1875
vt 0.6875 0.1875
vt 0.6875 0.21875
vt 0.703125 0.21875
vt 0.703125 0.1875
vt 0.6875 0.1875
vt 0.6875 0.21875
vt 0.703125 0.21875
vt 0.703125 0.203125
vt 0.6875 0.203125
vt 0.6875 0.203125
vt 0.703125 0.203125
vt 0.703125 0.1875
vt 0.6875 0.1875
vt 0.6875 0.21875
vt 0.703125 0.21875
vt 0.703125 0.1875
vt 0.6875 0.1875
vt 0.71875 0.265625
vt 0.734375 0.265625
vt 0.734375 0.21875
vt 0.71875 0.21875
vt 0.6875 0.265625
vt 0.703125 0.265625
vt 0.703125 0.21875
vt 0.6875 0.21875
vt 0.6875 0.265625
vt 0.734375 0.265625
vt 0.734375 0.25
vt 0.6875 0.25
vt 0.6875 0.234375
vt 0.734375 0.234375
vt 0.734375 0.21875
vt 0.6875 0.21875
vt 0.6875 0.265625
vt 0.734375 0.265625
vt 0.734375 0.21875
vt 0.6875 0.21875
vt 0.6875 0.875
vt 0.6875 1
vt 0.5625 1
vt 0.5625 0.875
vt 0.6875 1
vt 0.5625 1
vt 0.5625 0.875
vt 0.6875 0.875
vt 1 0.125
vt 1 0.25
vt 0.875 0.25
vt 0.875 0.125
vt 0.875 0.125
vt 0.75 0.125
vt 0.75 0
vt 0.875 0
vt 0.6875 0.6875
vt 0.5625 0.6875
vt 0.5625 0.625
vt 0.6875 0.625
vt 0.6875 0.6875
vt 0.5625 0.6875
vt 0.5625 0.625
vt 0.6875 0.625
vt 0.5625 0.6875
vt 0.6875 0.6875
vt 0.6875 0.625
vt 0.5625 0.625
vt 0.5625 0.6875
vt 0.6875 0.6875
vt 0.6875 0.625
vt 0.5625 0.625
vt 0.6875 0.46875
vt 0.6875 0.375
vt 0.875 0.375
vt 0.875 0.46875
vt 0.375 0.375
vt 0.375 0.46875
vt 0.5625 0.46875
vt 0.5625 0.375
vt 0.53125 0.375
vt 0.71875 0.375
vt 0.71875 0.46875
vt 0.53125 0.46875
vt 0.53125 0.46875
vt 0.71875 0.46875
vt 0.71875 0.375
vt 0.53125 0.375
vt 0.71875 0.375
vt 0.84375 0.375
vt 0.84375 0.25
vt 0.71875 0.25
vt 0.71875 0.1875
vt 0.6875 0.21875
vt 0.6875 0.34375
vt 0.71875 0.375
vt 0.71875 0.375
vt 0.6875 0.34375
vt 0.5625 0.34375
vt 0.53125 0.375
vt 0.53125 0.375
vt 0.5625 0.34375
vt 0.5625 0.21875
vt 0.53125 0.1875
vt 0.53125 0.1875
vt 0.5625 0.21875
vt 0.6875 0.21875
vt 0.71875 0.1875
vt 0.6875 0.21875
vt 0.65625 0.21875
vt 0.65625 0.34375
vt 0.6875 0.34375
vt 0.5625 0.3125
vt 0.5625 0.34375
vt 0.6875 0.34375
vt 0.6875 0.3125
vt 0.5625 0.34375
vt 0.59375 0.34375
vt 0.59375 0.21875
vt 0.5625 0.21875
vt 0.6875 0.25
vt 0.6875 0.21875
vt 0.5625 0.21875
vt 0.5625 0.25
vt 0.71875 0.5
vt 0.6875 0.46875
vt 0.875 0.46875
vt 0.84375 0.5
vt 0.375 0.46875
vt 0.40625 0.5
vt 0.53125 0.5
vt 0.5625 0.46875
vt 0.53125 0.46875
vt 0.71875 0.46875
vt 0.6875 0.5
vt 0.5625 0.5
vt 0.5625 0.5
vt 0.6875 0.5
vt 0.71875 0.46875
vt 0.53125 0.46875
vt 0.5625 0.34375
vt 0.6875 0.34375
vt 0.6875 0.21875
vt 0.5625 0.21875
vt 0.71875 0.25
vt 0.84375 0.25
vt 0.84375 0.125
vt 0.71875 0.125
vt 0.53125 0.21875
vt 0.71875 0.21875
vt 0.71875 0.03125
vt 0.53125 0.03125
vt 0.75 0
vt 0.71875 0.03125
vt 0.71875 0.21875
vt 0.75 0.25
vt 0.75 0.25
vt 0.71875 0.21875
vt 0.53125 0.21875
vt 0.5 0.25
vt 0.5 0.25
vt 0.53125 0.21875
vt 0.53125 0.03125
vt 0.5 0
vt 0.5 0
vt 0.53125 0.03125
vt 0.71875 0.03125
vt 0.75 0
vt 0.125 0.484375
vt 0.109375 0.484375
vt 0.109375 0.609375
vt 0.125 0.609375
vt 0 0.609375
vt 0 0.484375
vt 0.015625 0.484375
vt 0.015625 0.609375
vt 0.125 0.609375
vt 0.125 0.484375
vt 0 0.484375
vt 0 0.609375
vt 0 0.5
vt 0.125 0.5
vt 0.125 0.484375
vt 0 0.484375
vt 0.125 0.59375
vt 0.125 0.609375
vt 0 0.609375
vt 0 0.59375
vt 0.71875 1
vt 0.75 1
vt 0.75 0.75
vt 0.71875 0.75
vt 0 0.75
vt 0 1
vt 0.234375 1
vt 0.234375 0.75
vt 0.828125 0.359375
vt 0.828125 0.34375
vt 0.78125 0.34375
vt 0.78125 0.359375
vt 0.828125 0.359375
vt 0.828125 0.34375
vt 0.78125 0.34375
vt 0.78125 0.359375
vt 0.78125 0.359375
vt 0.828125 0.359375
vt 0.828125 0.34375
vt 0.78125 0.34375
vt 0.78125 0.359375
vt 0.828125 0.359375
vt 0.828125 0.34375
vt 0.78125 0.34375
vt 0.78125 0.28125
vt 0.828125 0.28125
vt 0.828125 0.234375
vt 0.78125 0.234375
vt 0.78125 0.28125
vt 0.828125 0.28125
vt 0.828125 0.234375
vt 0.78125 0.234375
vt 0.875 0.875
vt 0.875 1
vt 0.96875 1
vt 0.96875 0.875
vt 0.875 0.875
vt 0.875 1
vt 0.96875 1
vt 0.96875 0.875
vt 0.875 1
vt 0.96875 1
vt 0.96875 0.875
vt 0.875 0.875
vt 0.875 1
vt 0.96875 1
vt 0.96875 0.875
vt 0.875 0.875
vt 0.875 0.875
vt 0.96875 0.875
vt 0.96875 0.78125
vt 0.875 0.78125
vt 0.59375 0.46875
vt 0.640625 0.46875
vt 0.640625 0.453125
vt 0.59375 0.453125
vt 0.640625 0.4375
vt 0.640625 0.40625
vt 0.609375 0.40625
vt 0.609375 0.4375
vt 0.59375 0.40625
vt 0.578125 0.40625
vt 0.578125 0.4375
vt 0.59375 0.4375
vn 1 0 0
vn -1 0 6.344131569286608e-17
vn 0 -1 0
vn 0 0 1
vn 1 0 0
vn -1 0 0
vn 0 0 -1
vn 0 0 1
vn 0 -1 0
vn 0 0 -1
vn 0 0 1
vn 0 0 1
vn 0 1 0
vn 0 0 -1
vn 0 0 -1
vn 0 -1 0
vn 0 0 1
vn 1 0 0
vn -1 0 0
vn 0 0 1
vn 1 0 0
vn 1 0 0
vn 1 0 0
vn 1 0 0
vn 1 0 0
vn 0 0 -1
vn 0 -1 0
vn 0 0 1
vn 0 1 0
vn -1 0 0
vn -1 0 0
vn -1 0 0
vn -1 0 0
vn -1 0 0
vn 0 0 -1
vn 0 -1 0
vn 0 0 1
vn 0 1 0
vn 0 0 -1
vn 1 1.4210854715202408e-14 0
vn 0 0 1
vn -1 -7.105427357600901e-15 0
vn 0 -1 0
vn 0 0 -1
vn 0 0 -1
vn 1 0 0
vn 0 0 -1
vn -1 0 0
vn 0 0 1
vn 0 1 0
vn 0 1 0
vn 0 -1 0
vn 0 0 -1
vn 0 0 1
vn 0 -1 0
vn 0 0 -1
vn 0.7071067811865476 0.7071067811865476 0
vn -0.7071067811865476 0.7071067811865476 0
vn 0 1 0
vn 0 0 -1
vn 1 0 0
vn 0 0 -1
vn -1 0 0
vn 0 0 -1
vn -1 0 0
vn 1 0 0
vn 0 1 0
vn 0 -1 0
vn 0 0 -1
vn 0 -1 0
vn 0 0 -1
vn 0.7071067811865476 0.7071067811865476 0
vn -0.7071067811865476 0.7071067811865476 0
vn 0 1 0
vn 0 0 -1
vn 1 0 0
vn 0 0 -1
vn -1 0 0
vn 0 0 -1
vn -1 0 0
vn 1 0 0
vn 0 1 0
vn 0 -1 0
vn 0 0 -1
vn 1 0 0
vn -1 0 0
vn 0 0.9990482215818577 0.043619387365339386
vn 0 -0.9990482215818576 -0.043619387365339456
vn 0 0.04361938736533589 -0.9990482215818578
vn 0 -0.043619387365336035 0.9990482215818578
vn -0.9701425001453311 0 -0.24253562503633622
vn 0.9701425001453329 0 -0.24253562503632978
vn 0 0.9701425001453352 -0.24253562503632
vn 0 -0.9701425001453311 -0.24253562503633622
vn -0.9701425001453311 0 -0.24253562503633622
vn 0.9701425001453329 0 -0.24253562503632978
vn 0 0.9701425001453352 -0.24253562503632
vn 0 -0.9701425001453311 -0.24253562503633622
vn -0.9701425001453311 0 -0.24253562503633622
vn 0.9701425001453329 0 -0.24253562503632978
vn 0 0.9701425001453352 -0.24253562503632
vn 0 -0.9701425001453311 -0.24253562503633622
vn -0.9996573249755575 0.02617694830787295 3.099973410754462e-17
vn 0.9996573249755573 -0.02617694830787357 0
vn 1.5499867053783675e-17 5.919160420922965e-16 -1
vn -1.549986705377118e-17 -5.91916042092297e-16 1
vn -0.02617694830787813 -0.9996573249755571 -5.919160420922966e-16
vn 0.026176948307892148 0.9996573249755568 0
vn -0.9996573249755575 0.02617694830787328 0
vn 0 0 -1
vn -1.5499867053775284e-17 -5.919160420922972e-16 1
vn -0.026176948307870842 -0.9996573249755574 0
vn 0.02617694830787804 0.9996573249755573 0
vn -0.9996573249755575 0.02617694830787328 0
vn 1.5499867053775336e-17 5.919160420922972e-16 -1
vn -1.5499867053775284e-17 -5.919160420922972e-16 1
vn -0.026176948307877947 -0.9996573249755573 0
vn 0.02617694830787804 0.9996573249755573 0
vn -0.9996573249755574 0.026176948307872528 0
vn 0 0 -1
vn -4.6499601161313294e-17 -1.7757481262768817e-15 1
vn -0.026176948307871033 -0.9996573249755574 0
vn 0.026176948307877944 0.9996573249755571 0
vn -0.9996573249755574 0.02617694830787262 0
vn 4.6499601161300685e-17 1.7757481262768884e-15 -1
vn -4.6499601161313134e-17 -1.7757481262768882e-15 1
vn -0.026176948307870845 -0.9996573249755574 0
vn 0.026176948307863837 0.9996573249755576 0
vn -0.9996573249755574 0.026176948307874398 1.85998404645278e-16
vn 0 0 -1
vn 0 0 1
vn -0.026176948307878038 -0.9996573249755571 0
vn 0.026176948307878038 0.9996573249755571 0
vn -0.9996573249755575 0.026176948307872983 0
vn 0.9996573249755573 -0.02617694830787357 -1.5499867053772677e-17
vn 1.5499867053775284e-17 5.919160420922972e-16 -1
vn -1.5499867053775385e-17 -5.919160420922969e-16 1
vn -0.02617694830787813 -0.9996573249755571 -5.919160420922966e-16
vn 0.026176948307877944 0.9996573249755571 1.1838320841845931e-15
vn -0.9996573249755575 0.026176948307873312 0
vn 3.09997341075423e-17 1.183832084184596e-15 -1
vn -1.549986705377108e-17 -5.919160420922973e-16 1
vn -0.026176948307877947 -0.9996573249755573 -2.0294264300307314e-15
vn 0.026176948307870936 0.9996573249755574 0
vn -0.9996573249755575 0.02617694830787328 0
vn 1.5499867053771136e-17 5.919160420922973e-16 -1
vn -3.099973410755057e-17 -1.1838320841845945e-15 1
vn -0.026176948307870842 -0.9996573249755574 0
vn 0.02617694830787094 0.9996573249755574 2.0294264300307295e-15
vn -0.9996573249755574 0.02617694830787262 0
vn 0 0 -1
vn -4.649960116130051e-17 -1.7757481262768819e-15 1
vn -0.02617694830787094 -0.9996573249755574 -3.5514962525537866e-15
vn 0.026176948307870845 0.9996573249755574 3.5514962525537803e-15
vn -0.9996573249755574 0.026176948307872434 1.8599840464526437e-16
vn 4.6499601161325417e-17 1.7757481262768752e-15 -1
vn 0 0 1
vn -0.026176948307870936 -0.9996573249755574 0
vn 0.026176948307877944 0.9996573249755571 7.102992505107559e-15
vn -0.9996573249755574 0.026176948307874398 0
vn 0 0 -1
vn 0 0 1
vn -0.026176948307878038 -0.9996573249755571 0
vn 0.026176948307892238 0.9996573249755568 0
vn -0.9996573249755575 0.02617694830787297 3.099973410754464e-17
vn 0.9996573249755575 -0.026176948307873264 -1.5499867053772495e-17
vn 1.549986705377533e-17 5.919160420922969e-16 -1
vn -1.5499867053775392e-17 -5.919160420922972e-16 1
vn -0.02617694830787813 -0.9996573249755571 -5.919160420922966e-16
vn 0.026176948307878038 0.9996573249755571 0
vn -0.9996573249755575 0.026176948307873312 0
vn 0 0 -1
vn -1.54998670537711e-17 -5.91916042092298e-16 1
vn -0.026176948307870842 -0.9996573249755574 0
vn 0.026176948307863837 0.9996573249755576 0
vn -0.9996573249755575 0.02617694830787334 0
vn 3.099973410753394e-17 1.1838320841845978e-15 -1
vn -1.54998670537711e-17 -5.91916042092298e-16 1
vn -0.02617694830787795 -0.9996573249755573 -2.0294264300307295e-15
vn 0.026176948307863837 0.9996573249755576 0
vn -0.9996573249755574 0.026176948307872528 9.299920232263236e-17
vn 0 0 -1
vn -4.649960116131346e-17 -1.775748126276888e-15 1
vn -0.026176948307871033 -0.9996573249755574 0
vn 0.026176948307877944 0.9996573249755571 0
vn -0.9996573249755574 0.026176948307872528 0
vn 4.649960116130036e-17 1.7757481262768823e-15 -1
vn 0 0 1
vn -0.026176948307870845 -0.9996573249755574 0
vn 0.026176948307863747 0.9996573249755576 0
vn -0.9996573249755574 0.026176948307874398 0
vn 0 0 -1
vn 0 0 1
vn -0.026176948307863837 -0.9996573249755576 0
vn 0.026176948307863837 0.9996573249755576 0
vn 1 0 0
vn 0 1 0
vn 0 -1 0
vn 0 0 -1
vn 1 0 0
vn 0 1 0
vn 0 -1 0
vn 0 0 -1
vn 1 0 0
vn 0 1 0
vn 0 -1 0
vn 0 0 -1
vn 1 0 0
vn 0 1 0
vn 0 -1 0
vn 0 0 -1
vn 1 0 0
vn 0 1 0
vn 0 -1 0
vn 0 0 -1
vn 1 0 0
vn 0 1 0
vn 0 -1 0
vn 0 0 -1
vn 1 0 0
vn -1 0 0
vn 0 1 0
vn 0 -1 0
vn 0 0 -1
vn 1 0 0
vn -1 0 0
vn 0 -1 0
vn 0 0 -1
vn 0 0 1
vn 1 0 0
vn -1 0 0
vn 0 -1 0
vn 0 0 -1
vn 0 0 1
vn 1 0 0
vn -1 0 0
vn 0 -1 0
vn 0 0 -1
vn 0 0 1
vn 1 0 0
vn -1 0 0
vn 0 -1 0
vn 0 0 -1
vn 0 0 1
vn 1 0 0
vn -1 0 0
vn 0 1 0
vn 0 -1 0
vn 0 0 -1
vn -1 0 0
vn 1 0 0
vn -1 0 0
vn 0 1 0
vn 0 -1 0
vn 0 0 -1
vn 1 0 0
vn -1 0 0
vn 0 1 0
vn 0 -1 0
vn 0 0 -1
vn 1 0 0
vn -1 0 0
vn 0 1 0
vn 0 -1 0
vn 0 0 -1
vn 1 0 0
vn -1 0 0
vn 0 1 0
vn 0 -1 0
vn 0 0 -1
vn -3.5526328101931603e-15 0.9999772375106347 0.0067471816782978845
vn 0 0.24253562503632892 -0.970142500145333
vn 0.9999950778798974 0.0007609674947848529 -0.0030438699791394764
vn -0.999991256980658 -0.0010141922965251305 0.0040567691860970406
vn 0 0.9999487865846725 0.010120484565535636
vn 0 -0.9999487865846725 -0.010120484565535636
vn 0.9999814231299481 -2.1655063450359143e-17 -0.006095358480357618
vn -0.9999814231299481 -4.224258966121638e-16 0.006095358480356725
vn 1 0 0
vn -1 0 0
vn 0 -0.21643961393810301 0.9762960071199335
vn 0 0.2164396139381024 -0.9762960071199335
vn 0 -0.9762960071199334 -0.21643961393810324
vn -3.275157922644211e-15 -0.9762960071199334 -0.21643961393810324
vn 0 -0.9762960071199355 -0.21643961393809327
vn 1.0214051826551439e-14 -0.9762960071199334 -0.21643961393810324
vn 0 -0.9762960071199327 -0.21643961393810646
vn 1 0 0
vn 0 0.21643961393810157 -0.9762960071199338
vn -1 0 0
vn 0 -0.21643961393810157 0.9762960071199338
vn 0.7071067811865497 0.6903455270798529 0.1530459187330299
vn -0.7071067811865493 0.690345527079853 0.15304591873303075
vn 0 0.5372996083468217 0.843391445812887
vn 0 0.8433914458128826 -0.5372996083468291
vn 0 0.9762960071199334 0.21643961393810315
vn 0 -0.9762960071199334 -0.21643961393810324
vn 1.1842378929335024e-15 1 0
vn -2.3684757858670032e-15 1 9.473903143468005e-15
vn 7.105427357601002e-15 1 0
vn -2.3684757858670032e-15 1 9.473903143468005e-15
vn 7.105427357601002e-15 1 0
vn 1 0 0
vn -1 0 0
vn 0 1 0
vn 0 0 -1
vn 0 0 1
vn 0 0 -1
vn 0 0 -1
vn 1 0 0
vn -1 0 0
vn 0 1 0
vn 0 -1 0
vn 0 0 -1
vn 0 0 1
vn 1 0 0
vn -1 0 0
vn 0 1 0
vn 0 -1 0
vn 0 0 1
vn 0 0 -1
vn 0 0 -1
vn 0 0 -1
usemtl common_table
f 1/1/1 2/2/1 4/3/1
f 1/1/1 4/3/1 3/4/1
f 6/5/2 5/6/2 7/7/2
f 6/5/2 7/7/2 8/8/2
f 7/9/3 3/10/3 4/11/3
f 7/9/3 4/11/3 8/12/3
f 2/13/4 6/14/4 8/15/4
f 2/13/4 8/15/4 4/16/4
usemtl common_steel
f 11/17/5 12/18/5 13/19/5
f 11/17/5 13/19/5 9/20/5
f 15/21/6 14/22/6 10/23/6
f 15/21/6 10/23/6 16/24/6
f 23/25/7 24/26/7 10/27/7
f 23/25/7 10/27/7 14/28/7
f 16/29/8 22/30/8 21/31/8
f 16/29/8 21/31/8 15/32/8
usemtl common_bottom
f 25/33/9 26/34/9 20/35/9
f 25/33/9 20/35/9 19/36/9
usemtl common_steel
f 17/37/10 25/38/10 24/39/10
f 17/37/10 24/39/10 9/40/10
f 26/41/11 22/42/11 16/43/11
f 26/41/11 16/43/11 20/44/11
f 12/45/12 21/46/12 22/47/12
f 12/45/12 22/47/12 13/48/12
usemtl common_wooden_base_light
f 23/49/13 21/50/13 12/51/13
f 23/49/13 12/51/13 11/52/13
usemtl common_steel
f 24/53/14 23/54/14 11/55/14
f 24/53/14 11/55/14 9/56/14
f 10/57/15 24/58/15 25/59/15
f 10/57/15 25/59/15 19/60/15
usemtl common_bottom
f 26/61/16 25/62/16 17/63/16
f 26/61/16 17/63/16 18/64/16
usemtl common_steel
f 22/65/17 26/66/17 18/67/17
f 22/65/17 18/67/17 13/68/17
f 27/69/18 28/70/18 30/71/18
f 27/69/18 30/71/18 29/72/18
f 32/73/19 31/74/19 14/75/19
f 32/73/19 14/75/19 15/76/19
f 28/77/20 32/78/20 15/79/20
f 28/77/20 15/79/20 30/80/20
f 39/81/21 40/82/21 37/83/21
f 39/81/21 37/83/21 38/84/21
f 18/85/22 36/86/22 34/87/22
f 18/85/22 34/87/22 13/88/22
f 13/89/23 34/90/23 33/91/23
f 13/89/23 33/91/23 9/92/23
f 9/93/24 33/94/24 35/95/24
f 9/93/24 35/95/24 17/96/24
f 17/97/25 35/98/25 36/99/25
f 17/97/25 36/99/25 18/100/25
f 36/101/26 37/102/26 40/103/26
f 36/101/26 40/103/26 34/104/26
f 34/105/27 40/106/27 39/107/27
f 34/105/27 39/107/27 33/108/27
f 33/109/28 39/110/28 38/111/28
f 33/109/28 38/111/28 35/112/28
f 35/113/29 38/114/29 37/115/29
f 35/113/29 37/115/29 36/116/29
f 43/117/30 41/118/30 42/119/30
f 43/117/30 42/119/30 44/120/30
f 46/121/31 47/122/31 20/123/31
f 46/121/31 20/123/31 16/124/31
f 45/125/32 46/126/32 16/127/32
f 45/125/32 16/127/32 10/128/32
f 48/129/33 45/130/33 10/131/33
f 48/129/33 10/131/33 19/132/33
f 47/133/34 48/134/34 19/135/34
f 47/133/34 19/135/34 20/136/34
f 41/137/35 43/138/35 47/139/35
f 41/137/35 47/139/35 46/140/35
f 42/141/36 41/142/36 46/143/36
f 42/141/36 46/143/36 45/144/36
f 44/145/37 42/146/37 45/147/37
f 44/145/37 45/147/37 48/148/37
f 43/149/38 44/150/38 48/151/38
f 43/149/38 48/151/38 47/152/38
usemtl common_bottom
f 55/153/39 51/154/39 49/155/39
f 55/153/39 49/155/39 54/156/39
f 54/157/40 49/158/40 50/159/40
f 54/157/40 50/159/40 53/160/40
f 53/161/41 50/162/41 52/163/41
f 53/161/41 52/163/41 57/164/41
f 57/165/42 52/166/42 51/167/42
f 57/165/42 51/167/42 55/168/42
usemtl common_wooden_base_light
f 62/169/43 60/170/43 61/171/43
f 62/169/43 61/171/43 63/172/43
usemtl common_steel
f 27/173/44 59/174/44 60/175/44
f 27/173/44 60/175/44 62/176/44
f 66/177/45 64/178/45 65/179/45
f 66/177/45 65/179/45 67/180/45
f 68/181/46 69/182/46 12/183/46
f 68/181/46 12/183/46 11/184/46
f 59/185/47 68/186/47 11/187/47
f 59/185/47 11/187/47 71/188/47
usemtl common_wooden_base_light
f 70/189/48 59/190/48 71/191/48
f 70/189/48 71/191/48 72/192/48
usemtl common_steel
f 28/193/49 30/194/49 12/195/49
f 28/193/49 12/195/49 69/196/49
f 69/197/50 68/198/50 58/199/50
f 69/197/50 58/199/50 56/200/50
usemtl data_input_machine
f 78/201/51 74/202/51 73/203/51
f 78/201/51 73/203/51 77/204/51
f 79/205/52 75/206/52 76/207/52
f 79/205/52 76/207/52 80/208/52
f 77/209/53 73/210/53 75/211/53
f 77/209/53 75/211/53 79/212/53
f 74/213/54 78/214/54 80/215/54
f 74/213/54 80/215/54 76/216/54
usemtl common_thingies
f 85/217/55 82/218/55 83/219/55
f 85/217/55 83/219/55 86/220/55
f 84/221/56 81/222/56 82/223/56
f 84/221/56 82/223/56 85/224/56
f 87/225/57 88/226/57 90/227/57
f 87/225/57 90/227/57 89/228/57
f 92/229/58 91/230/58 93/231/58
f 92/229/58 93/231/58 94/232/58
f 92/233/59 88/234/59 87/235/59
f 92/233/59 87/235/59 91/236/59
f 91/237/60 87/238/60 89/239/60
f 91/237/60 89/239/60 93/240/60
f 95/241/61 96/242/61 98/243/61
f 95/241/61 98/243/61 97/244/61
f 93/245/62 95/246/62 97/247/62
f 93/245/62 97/247/62 84/248/62
f 100/249/63 99/250/63 101/251/63
f 100/249/63 101/251/63 102/252/63
f 99/253/64 89/254/64 81/255/64
f 99/253/64 81/255/64 101/256/64
f 94/257/65 93/258/65 85/259/65
f 94/257/65 85/259/65 86/260/65
f 89/261/66 90/262/66 83/263/66
f 89/261/66 83/263/66 82/264/66
f 97/265/67 98/266/67 102/267/67
f 97/265/67 102/267/67 101/268/67
f 99/269/68 100/270/68 96/271/68
f 99/269/68 96/271/68 95/272/68
f 104/273/69 106/274/69 105/275/69
f 104/273/69 105/275/69 103/276/69
f 111/277/70 108/278/70 109/279/70
f 111/277/70 109/279/70 112/280/70
f 110/281/71 107/282/71 108/283/71
f 110/281/71 108/283/71 111/284/71
f 113/285/72 114/286/72 116/287/72
f 113/285/72 116/287/72 115/288/72
f 118/289/73 117/290/73 119/291/73
f 118/289/73 119/291/73 120/292/73
f 118/293/74 114/294/74 113/295/74
f 118/293/74 113/295/74 117/296/74
f 117/297/75 113/298/75 115/299/75
f 117/297/75 115/299/75 119/300/75
f 121/301/76 122/302/76 124/303/76
f 121/301/76 124/303/76 123/304/76
f 119/305/77 121/306/77 123/307/77
f 119/305/77 123/307/77 110/308/77
f 126/309/78 125/310/78 127/311/78
f 126/309/78 127/311/78 128/312/78
f 125/313/79 115/314/79 107/315/79
f 125/313/79 107/315/79 127/316/79
f 120/317/80 119/318/80 111/319/80
f 120/317/80 111/319/80 112/320/80
f 115/321/81 116/322/81 109/323/81
f 115/321/81 109/323/81 108/324/81
f 123/325/82 124/326/82 128/327/82
f 123/325/82 128/327/82 127/328/82
f 125/329/83 126/330/83 122/331/83
f 125/329/83 122/331/83 121/332/83
f 130/333/84 132/334/84 131/335/84
f 130/333/84 131/335/84 129/336/84
usemtl data_input_machine
f 133/337/85 134/338/85 136/339/85
f 133/337/85 136/339/85 135/340/85
f 138/341/86 137/342/86 139/343/86
f 138/341/86 139/343/86 140/344/86
f 138/345/87 134/346/87 133/347/87
f 138/345/87 133/347/87 137/348/87
f 139/349/88 135/350/88 136/351/88
f 139/349/88 136/351/88 140/352/88
f 137/353/89 133/354/89 135/355/89
f 137/353/89 135/355/89 139/356/89
f 134/357/90 138/358/90 140/359/90
f 134/357/90 140/359/90 136/360/90
usemtl circuit_basic
f 141/361/91 142/362/91 144/363/91
f 141/361/91 144/363/91 143/364/91
f 146/365/92 145/366/92 147/367/92
f 146/365/92 147/367/92 148/368/92
f 146/369/93 142/370/93 141/371/93
f 146/369/93 141/371/93 145/372/93
f 147/373/94 143/374/94 144/375/94
f 147/373/94 144/375/94 148/376/94
f 149/377/95 150/378/95 152/379/95
f 149/377/95 152/379/95 151/380/95
f 154/381/96 153/382/96 155/383/96
f 154/381/96 155/383/96 156/384/96
f 154/385/97 150/386/97 149/387/97
f 154/385/97 149/387/97 153/388/97
f 155/389/98 151/390/98 152/391/98
f 155/389/98 152/391/98 156/392/98
f 157/393/99 158/394/99 160/395/99
f 157/393/99 160/395/99 159/396/99
f 162/397/100 161/398/100 163/399/100
f 162/397/100 163/399/100 164/400/100
f 162/401/101 158/402/101 157/403/101
f 162/401/101 157/403/101 161/404/101
f 163/405/102 159/406/102 160/407/102
f 163/405/102 160/407/102 164/408/102
f 169/409/103 167/410/103 166/411/103
f 169/409/103 166/411/103 168/412/103
f 172/413/104 170/414/104 171/415/104
f 172/413/104 171/415/104 173/416/104
f 166/417/105 167/418/105 171/419/105
f 166/417/105 171/419/105 170/420/105
f 169/421/106 168/422/106 172/423/106
f 169/421/106 172/423/106 173/424/106
f 168/425/107 166/426/107 170/427/107
f 168/425/107 170/427/107 172/428/107
f 173/429/108 171/430/108 167/431/108
f 173/429/108 167/431/108 169/432/108
f 177/433/109 175/434/109 174/435/109
f 177/433/109 174/435/109 176/436/109
f 174/437/110 175/438/110 179/439/110
f 174/437/110 179/439/110 178/440/110
f 177/441/111 176/442/111 180/443/111
f 177/441/111 180/443/111 181/444/111
f 176/445/112 174/446/112 178/447/112
f 176/445/112 178/447/112 180/448/112
f 181/449/113 179/450/113 175/451/113
f 181/449/113 175/451/113 177/452/113
f 185/453/114 183/454/114 182/455/114
f 185/453/114 182/455/114 184/456/114
f 182/457/115 183/458/115 187/459/115
f 182/457/115 187/459/115 186/460/115
f 185/461/116 184/462/116 188/463/116
f 185/461/116 188/463/116 189/464/116
f 184/465/117 182/466/117 186/467/117
f 184/465/117 186/467/117 188/468/117
f 189/469/118 187/470/118 183/471/118
f 189/469/118 183/471/118 185/472/118
f 193/473/119 191/474/119 190/475/119
f 193/473/119 190/475/119 192/476/119
f 190/477/120 191/478/120 195/479/120
f 190/477/120 195/479/120 194/480/120
f 193/481/121 192/482/121 196/483/121
f 193/481/121 196/483/121 197/484/121
f 192/485/122 190/486/122 194/487/122
f 192/485/122 194/487/122 196/488/122
f 197/489/123 195/490/123 191/491/123
f 197/489/123 191/491/123 193/492/123
f 201/493/124 199/494/124 198/495/124
f 201/493/124 198/495/124 200/496/124
f 198/497/125 199/498/125 203/499/125
f 198/497/125 203/499/125 202/500/125
f 201/501/126 200/502/126 204/503/126
f 201/501/126 204/503/126 205/504/126
f 200/505/127 198/506/127 202/507/127
f 200/505/127 202/507/127 204/508/127
f 205/509/128 203/510/128 199/511/128
f 205/509/128 199/511/128 201/512/128
f 208/513/129 165/514/129 206/515/129
f 208/513/129 206/515/129 207/516/129
f 206/517/130 165/518/130 210/519/130
f 206/517/130 210/519/130 209/520/130
f 208/521/131 207/522/131 211/523/131
f 208/521/131 211/523/131 212/524/131
f 207/525/132 206/526/132 209/527/132
f 207/525/132 209/527/132 211/528/132
f 212/529/133 210/530/133 165/531/133
f 212/529/133 165/531/133 208/532/133
f 217/533/134 215/534/134 214/535/134
f 217/533/134 214/535/134 216/536/134
f 220/537/135 218/538/135 219/539/135
f 220/537/135 219/539/135 221/540/135
f 214/541/136 215/542/136 219/543/136
f 214/541/136 219/543/136 218/544/136
f 217/545/137 216/546/137 220/547/137
f 217/545/137 220/547/137 221/548/137
f 216/549/138 214/550/138 218/551/138
f 216/549/138 218/551/138 220/552/138
f 221/553/139 219/554/139 215/555/139
f 221/553/139 215/555/139 217/556/139
f 225/557/140 223/558/140 222/559/140
f 225/557/140 222/559/140 224/560/140
f 222/561/141 223/562/141 227/563/141
f 222/561/141 227/563/141 226/564/141
f 225/565/142 224/566/142 228/567/142
f 225/565/142 228/567/142 229/568/142
f 224/569/143 222/570/143 226/571/143
f 224/569/143 226/571/143 228/572/143
f 229/573/144 227/574/144 223/575/144
f 229/573/144 223/575/144 225/576/144
f 233/577/145 231/578/145 230/579/145
f 233/577/145 230/579/145 232/580/145
f 230/581/146 231/582/146 235/583/146
f 230/581/146 235/583/146 234/584/146
f 233/585/147 232/586/147 236/587/147
f 233/585/147 236/587/147 237/588/147
f 232/589/148 230/590/148 234/591/148
f 232/589/148 234/591/148 236/592/148
f 237/593/149 235/594/149 231/595/149
f 237/593/149 231/595/149 233/596/149
f 241/597/150 239/598/150 238/599/150
f 241/597/150 238/599/150 240/600/150
f 238/601/151 239/602/151 243/603/151
f 238/601/151 243/603/151 242/604/151
f 241/605/152 240/606/152 244/607/152
f 241/605/152 244/607/152 245/608/152
f 240/609/153 238/610/153 242/611/153
f 240/609/153 242/611/153 244/612/153
f 245/613/154 243/614/154 239/615/154
f 245/613/154 239/615/154 241/616/154
f 249/617/155 247/618/155 246/619/155
f 249/617/155 246/619/155 248/620/155
f 246/621/156 247/622/156 251/623/156
f 246/621/156 251/623/156 250/624/156
f 249/625/157 248/626/157 252/627/157
f 249/625/157 252/627/157 253/628/157
f 248/629/158 246/630/158 250/631/158
f 248/629/158 250/631/158 252/632/158
f 253/633/159 251/634/159 247/635/159
f 253/633/159 247/635/159 249/636/159
f 256/637/160 213/638/160 254/639/160
f 256/637/160 254/639/160 255/640/160
f 254/641/161 213/642/161 258/643/161
f 254/641/161 258/643/161 257/644/161
f 256/645/162 255/646/162 259/647/162
f 256/645/162 259/647/162 260/648/162
f 255/649/163 254/650/163 257/651/163
f 255/649/163 257/651/163 259/652/163
f 260/653/164 258/654/164 213/655/164
f 260/653/164 213/655/164 256/656/164
f 265/657/165 263/658/165 262/659/165
f 265/657/165 262/659/165 264/660/165
f 268/661/166 266/662/166 267/663/166
f 268/661/166 267/663/166 269/664/166
f 262/665/167 263/666/167 267/667/167
f 262/665/167 267/667/167 266/668/167
f 265/669/168 264/670/168 268/671/168
f 265/669/168 268/671/168 269/672/168
f 264/673/169 262/674/169 266/675/169
f 264/673/169 266/675/169 268/676/169
f 269/677/170 267/678/170 263/679/170
f 269/677/170 263/679/170 265/680/170
f 273/681/171 271/682/171 270/683/171
f 273/681/171 270/683/171 272/684/171
f 270/685/172 271/686/172 275/687/172
f 270/685/172 275/687/172 274/688/172
f 273/689/173 272/690/173 276/691/173
f 273/689/173 276/691/173 277/692/173
f 272/693/174 270/694/174 274/695/174
f 272/693/174 274/695/174 276/696/174
f 277/697/175 275/698/175 271/699/175
f 277/697/175 271/699/175 273/700/175
f 281/701/176 279/702/176 278/703/176
f 281/701/176 278/703/176 280/704/176
f 278/705/177 279/706/177 283/707/177
f 278/705/177 283/707/177 282/708/177
f 281/709/178 280/710/178 284/711/178
f 281/709/178 284/711/178 285/712/178
f 280/713/179 278/714/179 282/715/179
f 280/713/179 282/715/179 284/716/179
f 285/717/180 283/718/180 279/719/180
f 285/717/180 279/719/180 281/720/180
f 289/721/181 287/722/181 286/723/181
f 289/721/181 286/723/181 288/724/181
f 286/725/182 287/726/182 291/727/182
f 286/725/182 291/727/182 290/728/182
f 289/729/183 288/730/183 292/731/183
f 289/729/183 292/731/183 293/732/183
f 288/733/184 286/734/184 290/735/184
f 288/733/184 290/735/184 292/736/184
f 293/737/185 291/738/185 287/739/185
f 293/737/185 287/739/185 289/740/185
f 297/741/186 295/742/186 294/743/186
f 297/741/186 294/743/186 296/744/186
f 294/745/187 295/746/187 299/747/187
f 294/745/187 299/747/187 298/748/187
f 297/749/188 296/750/188 300/751/188
f 297/749/188 300/751/188 301/752/188
f 296/753/189 294/754/189 298/755/189
f 296/753/189 298/755/189 300/756/189
f 301/757/190 299/758/190 295/759/190
f 301/757/190 295/759/190 297/760/190
f 304/761/191 261/762/191 302/763/191
f 304/761/191 302/763/191 303/764/191
f 302/765/192 261/766/192 306/767/192
f 302/765/192 306/767/192 305/768/192
f 304/769/193 303/770/193 307/771/193
f 304/769/193 307/771/193 308/772/193
f 303/773/194 302/774/194 305/775/194
f 303/773/194 305/775/194 307/776/194
f 308/777/195 306/778/195 261/779/195
f 308/777/195 261/779/195 304/780/195
usemtl common_copper_cable
f 309/781/196 310/782/196 312/783/196
f 309/781/196 312/783/196 311/784/196
f 314/785/197 310/786/197 309/787/197
f 314/785/197 309/787/197 313/788/197
f 315/789/198 311/790/198 312/791/198
f 315/789/198 312/791/198 316/792/198
f 313/793/199 309/794/199 311/795/199
f 313/793/199 311/795/199 315/796/199
f 317/797/200 318/798/200 320/799/200
f 317/797/200 320/799/200 319/800/200
f 321/801/201 318/802/201 317/803/201
f 321/801/201 317/803/201 314/804/201
f 316/805/202 319/806/202 320/807/202
f 316/805/202 320/807/202 322/808/202
f 314/809/203 317/810/203 319/811/203
f 314/809/203 319/811/203 316/812/203
f 323/813/204 324/814/204 326/815/204
f 323/813/204 326/815/204 325/816/204
f 328/817/205 324/818/205 323/819/205
f 328/817/205 323/819/205 327/820/205
f 329/821/206 325/822/206 326/823/206
f 329/821/206 326/823/206 330/824/206
f 327/825/207 323/826/207 325/827/207
f 327/825/207 325/827/207 329/828/207
f 331/829/208 332/830/208 334/831/208
f 331/829/208 334/831/208 333/832/208
f 335/833/209 332/834/209 331/835/209
f 335/833/209 331/835/209 328/836/209
f 330/837/210 333/838/210 334/839/210
f 330/837/210 334/839/210 336/840/210
f 328/841/211 331/842/211 333/843/211
f 328/841/211 333/843/211 330/844/211
f 337/845/212 338/846/212 340/847/212
f 337/845/212 340/847/212 339/848/212
f 342/849/213 338/850/213 337/851/213
f 342/849/213 337/851/213 341/852/213
f 343/853/214 339/854/214 340/855/214
f 343/853/214 340/855/214 344/856/214
f 341/857/215 337/858/215 339/859/215
f 341/857/215 339/859/215 343/860/215
f 345/861/216 346/862/216 348/863/216
f 345/861/216 348/863/216 347/864/216
f 349/865/217 346/866/217 345/867/217
f 349/865/217 345/867/217 342/868/217
f 344/869/218 347/870/218 348/871/218
f 344/869/218 348/871/218 350/872/218
f 342/873/219 345/874/219 347/875/219
f 342/873/219 347/875/219 344/876/219
usemtl common_steel
f 351/877/220 352/878/220 354/879/220
f 351/877/220 354/879/220 353/880/220
f 356/881/221 355/882/221 357/883/221
f 356/881/221 357/883/221 358/884/221
f 356/885/222 352/886/222 351/887/222
f 356/885/222 351/887/222 355/888/222
f 357/889/223 353/890/223 354/891/223
f 357/889/223 354/891/223 358/892/223
f 355/893/224 351/894/224 353/895/224
f 355/893/224 353/895/224 357/896/224
usemtl common_table
f 359/897/225 360/898/225 362/899/225
f 359/897/225 362/899/225 361/900/225
f 364/901/226 363/902/226 365/903/226
f 364/901/226 365/903/226 366/904/226
f 365/905/227 361/906/227 362/907/227
f 365/905/227 362/907/227 366/908/227
f 363/909/228 359/910/228 361/911/228
f 363/909/228 361/911/228 365/912/228
f 360/913/229 364/914/229 366/915/229
f 360/913/229 366/915/229 362/916/229
f 367/917/230 368/918/230 370/919/230
f 367/917/230 370/919/230 369/920/230
f 372/921/231 371/922/231 373/923/231
f 372/921/231 373/923/231 374/924/231
f 373/925/232 369/926/232 370/927/232
f 373/925/232 370/927/232 374/928/232
f 371/929/233 367/930/233 369/931/233
f 371/929/233 369/931/233 373/932/233
f 368/933/234 372/934/234 374/935/234
f 368/933/234 374/935/234 370/936/234
f 375/937/235 376/938/235 378/939/235
f 375/937/235 378/939/235 377/940/235
f 380/941/236 379/942/236 381/943/236
f 380/941/236 381/943/236 382/944/236
f 381/945/237 377/946/237 378/947/237
f 381/945/237 378/947/237 382/948/237
f 379/949/238 375/950/238 377/951/238
f 379/949/238 377/951/238 381/952/238
f 376/953/239 380/954/239 382/955/239
f 376/953/239 382/955/239 378/956/239
f 383/957/240 384/958/240 386/959/240
f 383/957/240 386/959/240 385/960/240
f 388/961/241 387/962/241 389/963/241
f 388/961/241 389/963/241 390/964/241
f 389/965/242 385/966/242 386/967/242
f 389/965/242 386/967/242 390/968/242
f 387/969/243 383/970/243 385/971/243
f 387/969/243 385/971/243 389/972/243
f 384/973/244 388/974/244 390/975/244
f 384/973/244 390/975/244 386/976/244
f 391/977/245 9/978/245 393/979/245
f 391/977/245 393/979/245 392/980/245
f 10/981/246 394/982/246 395/983/246
f 10/981/246 395/983/246 396/984/246
f 10/985/247 9/986/247 391/987/247
f 10/985/247 391/987/247 394/988/247
f 395/989/248 392/990/248 393/991/248
f 395/989/248 393/991/248 396/992/248
f 394/993/249 391/994/249 392/995/249
f 394/993/249 392/995/249 395/996/249
usemtl data_input_machine
f 80/997/250 78/998/250 77/999/250
f 80/997/250 77/999/250 79/1000/250
usemtl common_steel
f 402/1001/251 401/1002/251 403/1003/251
f 402/1001/251 403/1003/251 404/1004/251
f 398/1005/252 397/1006/252 399/1007/252
f 398/1005/252 399/1007/252 400/1008/252
f 398/1009/253 401/1010/253 402/1011/253
f 398/1009/253 402/1011/253 397/1012/253
f 399/1013/254 404/1014/254 403/1015/254
f 399/1013/254 403/1015/254 400/1016/254
f 397/1017/255 402/1018/255 404/1019/255
f 397/1017/255 404/1019/255 399/1020/255
f 410/1021/256 409/1022/256 411/1023/256
f 410/1021/256 411/1023/256 412/1024/256
f 406/1025/257 405/1026/257 407/1027/257
f 406/1025/257 407/1027/257 408/1028/257
f 406/1029/258 409/1030/258 410/1031/258
f 406/1029/258 410/1031/258 405/1032/258
f 407/1033/259 412/1034/259 411/1035/259
f 407/1033/259 411/1035/259 408/1036/259
f 405/1037/260 410/1038/260 412/1039/260
f 405/1037/260 412/1039/260 407/1040/260
f 418/1041/261 417/1042/261 419/1043/261
f 418/1041/261 419/1043/261 420/1044/261
f 414/1045/262 413/1046/262 415/1047/262
f 414/1045/262 415/1047/262 416/1048/262
f 414/1049/263 417/1050/263 418/1051/263
f 414/1049/263 418/1051/263 413/1052/263
f 415/1053/264 420/1054/264 419/1055/264
f 415/1053/264 419/1055/264 416/1056/264
f 413/1057/265 418/1058/265 420/1059/265
f 413/1057/265 420/1059/265 415/1060/265
usemtl common_thingies
f 421/1061/266 422/1062/266 424/1063/266
f 421/1061/266 424/1063/266 423/1064/266
f 426/1065/267 425/1066/267 427/1067/267
f 426/1065/267 427/1067/267 428/1068/267
f 426/1069/268 422/1070/268 421/1071/268
f 426/1069/268 421/1071/268 425/1072/268
f 427/1073/269 423/1074/269 424/1075/269
f 427/1073/269 424/1075/269 428/1076/269
f 425/1077/270 421/1078/270 423/1079/270
f 425/1077/270 423/1079/270 427/1080/270
usemtl common_copper_cable
f 433/1081/271 432/1082/271 430/1083/271
f 433/1081/271 430/1083/271 434/1084/271
f 431/1085/272 429/1086/272 430/1087/272
f 431/1085/272 430/1087/272 432/1088/272
f 436/1089/273 431/1090/273 432/1091/273
f 436/1089/273 432/1091/273 433/1092/273
f 434/1093/274 430/1094/274 429/1095/274
f 434/1093/274 429/1095/274 435/1096/274
f 433/1097/275 434/1098/275 439/1099/275
f 433/1097/275 439/1099/275 438/1100/275
f 435/1101/276 436/1102/276 440/1103/276
f 435/1101/276 440/1103/276 437/1104/276
f 436/1105/277 433/1106/277 438/1107/277
f 436/1105/277 438/1107/277 440/1108/277
f 434/1109/278 435/1110/278 437/1111/278
f 434/1109/278 437/1111/278 439/1112/278
usemtl data_input_machine
f 441/1113/279 442/1114/279 444/1115/279
f 441/1113/279 444/1115/279 443/1116/279
f 446/1117/280 445/1118/280 447/1119/280
f 446/1117/280 447/1119/280 448/1120/280
f 446/1121/281 442/1122/281 441/1123/281
f 446/1121/281 441/1123/281 445/1124/281
f 447/1125/282 443/1126/282 444/1127/282
f 447/1125/282 444/1127/282 448/1128/282
f 454/1129/283 453/1130/283 455/1131/283
f 454/1129/283 455/1131/283 456/1132/283
f 448/1133/284 451/1134/284 449/1135/284
f 448/1133/284 449/1135/284 446/1136/284
f 446/1137/285 449/1138/285 450/1139/285
f 446/1137/285 450/1139/285 442/1140/285
f 442/1141/286 450/1142/286 452/1143/286
f 442/1141/286 452/1143/286 444/1144/286
f 444/1145/287 452/1146/287 451/1147/287
f 444/1145/287 451/1147/287 448/1148/287
f 451/1149/288 455/1150/288 453/1151/288
f 451/1149/288 453/1151/288 449/1152/288
f 449/1153/289 453/1154/289 454/1155/289
f 449/1153/289 454/1155/289 450/1156/289
f 450/1157/290 454/1158/290 456/1159/290
f 450/1157/290 456/1159/290 452/1160/290
f 452/1161/291 456/1162/291 455/1163/291
f 452/1161/291 455/1163/291 451/1164/291
f 457/1165/292 441/1166/292 443/1167/292
f 457/1165/292 443/1167/292 458/1168/292
f 445/1169/293 459/1170/293 460/1171/293
f 445/1169/293 460/1171/293 447/1172/293
f 445/1173/294 441/1174/294 457/1175/294
f 445/1173/294 457/1175/294 459/1176/294
f 460/1177/295 458/1178/295 443/1179/295
f 460/1177/295 443/1179/295 447/1180/295
f 459/1181/296 457/1182/296 458/1183/296
f 459/1181/296 458/1183/296 460/1184/296
f 462/1185/297 461/1186/297 463/1187/297
f 462/1185/297 463/1187/297 464/1188/297
usemtl common_bottom
f 468/1189/298 467/1190/298 469/1191/298
f 468/1189/298 469/1191/298 470/1192/298
f 474/1193/299 473/1194/299 472/1195/299
f 474/1193/299 472/1195/299 466/1196/299
f 466/1197/300 472/1198/300 471/1199/300
f 466/1197/300 471/1199/300 465/1200/300
f 465/1201/301 471/1202/301 475/1203/301
f 465/1201/301 475/1203/301 476/1204/301
f 476/1205/302 475/1206/302 473/1207/302
f 476/1205/302 473/1207/302 474/1208/302
usemtl common_thingies
f 479/1209/303 477/1210/303 478/1211/303
f 479/1209/303 478/1211/303 480/1212/303
f 482/1213/304 481/1214/304 483/1215/304
f 482/1213/304 483/1215/304 484/1216/304
f 478/1217/305 477/1218/305 481/1219/305
f 478/1217/305 481/1219/305 482/1220/305
f 481/1221/306 477/1222/306 479/1223/306
f 481/1221/306 479/1223/306 483/1224/306
f 480/1225/307 478/1226/307 482/1227/307
f 480/1225/307 482/1227/307 484/1228/307
usemtl common_steel
f 486/1229/308 27/1230/308 29/1231/308
f 486/1229/308 29/1231/308 485/1232/308
f 14/1233/309 31/1234/309 486/1235/309
f 14/1233/309 486/1235/309 485/1236/309
usemtl common_thingies
f 487/1237/310 488/1238/310 490/1239/310
f 487/1237/310 490/1239/310 489/1240/310
f 492/1241/311 491/1242/311 493/1243/311
f 492/1241/311 493/1243/311 494/1244/311
f 492/1245/312 488/1246/312 487/1247/312
f 492/1245/312 487/1247/312 491/1248/312
f 493/1249/313 489/1250/313 490/1251/313
f 493/1249/313 490/1251/313 494/1252/313
f 491/1253/314 487/1254/314 489/1255/314
f 491/1253/314 489/1255/314 493/1256/314
f 488/1257/315 492/1258/315 494/1259/315
f 488/1257/315 494/1259/315 490/1260/315
usemtl data_input_machine
f 495/1261/316 496/1262/316 498/1263/316
f 495/1261/316 498/1263/316 497/1264/316
f 500/1265/317 499/1266/317 501/1267/317
f 500/1265/317 501/1267/317 502/1268/317
f 500/1269/318 496/1270/318 495/1271/318
f 500/1269/318 495/1271/318 499/1272/318
f 501/1273/319 497/1274/319 498/1275/319
f 501/1273/319 498/1275/319 502/1276/319
f 496/1277/320 500/1278/320 502/1279/320
f 496/1277/320 502/1279/320 498/1280/320
usemtl common_thingies
f 499/1281/321 495/1282/321 503/1283/321
f 499/1281/321 503/1283/321 504/1284/321
f 503/1285/322 497/1286/322 505/1287/322
f 503/1285/322 505/1287/322 506/1288/322
f 505/1289/323 501/1290/323 504/1291/323
f 505/1289/323 504/1291/323 506/1292/323
o main_selection
v -1.00625 -0.75 1.25
v -1.00625 -0.75 1.75
v -0.9437500000000001 -0.75 1.25
v -0.9437500000000001 -0.75 1.75
v -1.00625 -0.25 1.25
v -0.9437500000000001 -0.25 1.25
v -1.00625 -0.25 1.75
v -0.9437500000000001 -0.25 1.75
v 0.9437500000000001 -0.25 1.25
v 0.9437500000000001 -0.25 1.75
v 0.9437500000000001 -0.75 1.25
v 0.9437500000000001 -0.75 1.75
v 1.00625 -0.25 1.25
v 1.00625 -0.25 1.75
v 1.00625 -0.75 1.25
v 1.00625 -0.75 1.75
v -1.0046874999999993 -0.0625 1.375
v -0.9406249999999994 -0.0625 1.375
v -1.0046874999999993 -0.25 1.375
v -0.9406249999999994 -0.25 1.375
v -1.0046874999999993 -0.0625 1.625
v -1.0046874999999993 -0.25 1.625
v -0.9406249999999994 -0.0625 1.625
v -0.9406249999999994 -0.25 1.625
v 1.0046874999999995 -0.0625 1.375
v 0.9406249999999996 -0.0625 1.375
v 1.0046874999999995 -0.25 1.375
v 0.9406249999999996 -0.25 1.375
v 1.0046874999999995 -0.0625 1.625
v 1.0046874999999995 -0.25 1.625
v 0.9406249999999996 -0.0625 1.625
v 0.9406249999999996 -0.25 1.625
vt 0.75 0.484375
vt 0.75 0.609375
vt 0.734375 0.609375
vt 0.734375 0.484375
vt 0.75 0.484375
vt 0.75 0.609375
vt 0.734375 0.609375
vt 0.734375 0.484375
vt 0.625 0.484375
vt 0.640625 0.484375
vt 0.640625 0.609375
vt 0.625 0.609375
vt 0.640625 0.609375
vt 0.625 0.609375
vt 0.625 0.484375
vt 0.640625 0.484375
vt 0.875 0.609375
vt 0.75 0.609375
vt 0.75 0.484375
vt 0.875 0.484375
vt 0.75 0.484375
vt 0.75 0.609375
vt 0.625 0.609375
vt 0.625 0.484375
vt 0.75 0.484375
vt 0.765625 0.484375
vt 0.765625 0.609375
vt 0.75 0.609375
vt 0.765625 0.484375
vt 0.765625 0.609375
vt 0.75 0.609375
vt 0.75 0.484375
vt 0.765625 0.484375
vt 0.765625 0.609375
vt 0.75 0.609375
vt 0.75 0.484375
vt 0.765625 0.609375
vt 0.75 0.609375
vt 0.75 0.484375
vt 0.765625 0.484375
vt 0.125 0.6875
vt 0.125 0.734375
vt 0.0625 0.734375
vt 0.0625 0.6875
vt 0.078125 0.6875
vt 0.078125 0.734375
vt 0.0625 0.734375
vt 0.0625 0.6875
vt 0.125 0.6875
vt 0.125 0.734375
vt 0.109375 0.734375
vt 0.109375 0.6875
vt 0 0.734375
vt 0.0625 0.734375
vt 0.0625 0.6875
vt 0 0.6875
vt 0 0.734375
vt 0.015625 0.734375
vt 0.015625 0.6875
vt 0 0.6875
vt 0.046875 0.734375
vt 0.0625 0.734375
vt 0.0625 0.6875
vt 0.046875 0.6875
vn 0 -1 0
vn 0 0 -1
vn 0 1 0
vn 0 0 1
vn -1 0 0
vn 1 0 0
vn 0 1 0
vn 0 -1 0
vn 0 0 -1
vn 0 0 1
vn -1 0 0
vn 0 0 -1
vn 0 0 1
vn 1 0 0
vn 0 0 -1
vn 0 0 1
usemtl common_thingies
f 508/1293/324 507/1294/324 509/1295/324
f 508/1293/324 509/1295/324 510/1296/324
f 507/1297/325 511/1298/325 512/1299/325
f 507/1297/325 512/1299/325 509/1300/325
f 512/1301/326 511/1302/326 513/1303/326
f 512/1301/326 513/1303/326 514/1304/326
f 514/1305/327 513/1306/327 508/1307/327
f 514/1305/327 508/1307/327 510/1308/327
f 513/1309/328 511/1310/328 507/1311/328
f 513/1309/328 507/1311/328 508/1312/328
f 521/1313/329 519/1314/329 520/1315/329
f 521/1313/329 520/1315/329 522/1316/329
f 519/1317/330 515/1318/330 516/1319/330
f 519/1317/330 516/1319/330 520/1320/330
f 518/1321/331 517/1322/331 521/1323/331
f 518/1321/331 521/1323/331 522/1324/331
f 517/1325/332 515/1326/332 519/1327/332
f 517/1325/332 519/1327/332 521/1328/332
f 520/1329/333 516/1330/333 518/1331/333
f 520/1329/333 518/1331/333 522/1332/333
f 528/1333/334 527/1334/334 523/1335/334
f 528/1333/334 523/1335/334 525/1336/334
f 525/1337/335 523/1338/335 524/1339/335
f 525/1337/335 524/1339/335 526/1340/335
f 530/1341/336 529/1342/336 527/1343/336
f 530/1341/336 527/1343/336 528/1344/336
f 531/1345/337 535/1346/337 536/1347/337
f 531/1345/337 536/1347/337 533/1348/337
f 532/1349/338 531/1350/338 533/1351/338
f 532/1349/338 533/1351/338 534/1352/338
f 535/1353/339 537/1354/339 538/1355/339
f 535/1353/339 538/1355/339 536/1356/339