# Made by Pabilo8 with Blockbench
# Exported with IIToolkit Plugin
mtllib wiring.mtl


o cube
v 0.25853503579156945 0.11293323865221386 0.4172897643232447
v -0.19292783328927304 0.09100759591925782 -0.5537721989646146
v -0.262104220748022 0.13944542388398945 -0.64593186606588
v -0.22877636056121342 0.03981059315119584 -0.5537721989646146
v -0.29795274801996235 0.08824842111592748 -0.64593186606588
v -0.19334527377556154 0.042905525954715654 -0.5787406351281381
v -0.2625216612343105 0.09134335391944726 -0.6709003022294036
v -0.17641682481647772 -0.00417858745620639 -0.6161941246871515
v -0.24559321227522674 0.0442592405085253 -0.708353791788417
v 0.11622774107870916 0.08672746928588132 0.3283155476045132
v 0.15054480677063187 0.08856844933030754 0.44849853223533565
v 0.16160181377878974 0.04555066926062657 0.31599018082344066
v 0.19591887947071235 0.04739164930505253 0.43617316545426155
v 0.1683108064852437 0.08840783478991784 0.313418001983951
v 0.20262787217716643 0.09024881483434385 0.4336009866147723
v 0.2242179700996468 0.11109225860778782 0.29710677969242383
v 0.22399935995731482 0.1538055455550857 0.2965149134602362
v -0.14164798013992563 0.11534913100907976 -0.5794700337734842
v 0.221953849555096 0.02884725306139517 0.29901311766639027
v -0.15707788938447234 0.0011532697760033295 -0.6279078617382158
v 0.10381968243448812 0.15645807821977767 0.33079040296763884
v -0.24461178600811428 0.09991922176453319 -0.5102936463147351
v 0.1017741720322692 0.031499785726087096 0.33328860717379305
v -0.2600416952526611 -0.014276639468543503 -0.5587314742794668
v -0.06250000000000001 0.125 0.02083333333333337
v -0.06250000000000001 -1.3877787807814457e-17 0.02083333333333337
v -0.06250000000000001 0.125 -0.2708333333333333
v -0.06250000000000001 -1.3877787807814457e-17 -0.2708333333333333
v 0.0625 -2.7755575615628914e-17 0.02083333333333337
v 0.0625 -2.7755575615628914e-17 -0.2708333333333333
v 0.06250000000000003 0.125 0.02083333333333337
v 0.06250000000000003 0.125 -0.2708333333333333
vt 0.9375 0.8125
vt 0.9375 0.875
vt 0.8125 0.875
vt 0.8125 0.8125
vt 0.9375 0.8125
vt 0.9375 0.875
vt 0.8125 0.875
vt 0.8125 0.8125
vt 0.8125 0.875
vt 0.9375 0.875
vt 0.9375 0.8125
vt 0.8125 0.8125
vt 0.8125 0.875
vt 0.9375 0.875
vt 0.9375 0.8125
vt 0.8125 0.8125
vt 0.6875 0.125
vt 0.6875 0.41666666666666674
vt 0.5625 0.41666666666666674
vt 0.5625 0.125
vt 0.5625 1
vt 0.5625 0.7083333333333333
vt 0.6875 0.7083333333333333
vt 0.6875 1
vt 0.5625 1
vt 0.5625 0.7083333333333333
vt 0.6875 0.7083333333333333
vt 0.6875 1
vt 0.6875 0.125
vt 0.6875 0.41666666666666674
vt 0.5625 0.41666666666666674
vt 0.5625 0.125
vt 1 0
vt 1 0.125
vt 0.875 0.125
vt 0.875 0
vt 1 0
vt 1 0.125
vt 0.875 0.125
vt 0.875 0
vt 0.6875 0.125
vt 0.6875 0.41666666666666663
vt 0.5625 0.41666666666666663
vt 0.5625 0.125
vt 0.6875 0.41666666666666663
vt 0.6875 0.7083333333333333
vt 0.5625 0.7083333333333333
vt 0.5625 0.41666666666666663
vt 0.5625 1
vt 0.5625 0.7083333333333334
vt 0.6875 0.7083333333333334
vt 0.6875 1
vt 0.5625 0.7083333333333334
vt 0.5625 0.41666666666666674
vt 0.6875 0.41666666666666674
vt 0.6875 0.7083333333333334
vt 0.5625 1
vt 0.5625 0.7083333333333334
vt 0.6875 0.7083333333333334
vt 0.6875 1
vt 0.5625 0.7083333333333334
vt 0.5625 0.41666666666666674
vt 0.6875 0.41666666666666674
vt 0.6875 0.7083333333333334
vt 0.6875 0.125
vt 0.6875 0.41666666666666663
vt 0.5625 0.41666666666666663
vt 0.5625 0.125
vt 0.6875 0.41666666666666663
vt 0.6875 0.7083333333333333
vt 0.5625 0.7083333333333333
vt 0.5625 0.41666666666666663
vn 0.6039422376559571 -0.42288490744994117 -0.6755902076156598
vn 0.7876380034108383 0.5313302177313854 -0.31195284148170005
vn 0.6305356761980704 0.7521487236422 -0.19156476336960218
vn -0.3528077304065292 0.9316919132565155 0.0864689778926958
vn 0.8340526930626275 0 -0.5516847878952059
vn -0.8245607324123319 0 0.565773451624976
vn 1.6653345369377343e-16 0.9945596161248423 -0.10416894918163554
vn 2.775557561562891e-16 -0.9999947843230381 -0.0032297564490880834
vn 0.27453652553538266 0.014727840355407099 0.9614638770465721
vn -0.5534110996699926 0.38750262371785377 -0.737277336810124
vn -0.8811587818336863 0 0.47282047459619797
vn -1 -1.1102230246251563e-16 0
vn 0 -0.9949567050093475 0.10030530971460204
vn 2.2204460492503126e-16 -1 0
vn 0.8675787277245544 -1.1102230246251565e-16 -0.497299860446234
vn 1 -1.665334536937734e-16 0
vn 0 0.9945853770510391 -0.10392270087061198
vn 5.5511151231257815e-17 1 0
usemtl common_copper_cable
f 5/1/1 3/2/1 2/3/1 4/4/1
f 9/5/2 7/6/2 6/7/2 8/8/2
f 10/9/3 11/10/3 13/11/3 12/12/3
f 14/13/4 15/14/4 1/15/4 16/16/4
f 18/17/5 32/18/5 30/19/5 20/20/5
f 24/21/6 28/22/6 27/23/6 22/24/6
f 22/25/7 27/26/7 32/27/7 18/28/7
f 20/29/8 30/30/8 28/31/8 24/32/8
f 19/33/9 17/34/9 21/35/9 23/36/9
f 24/37/10 22/38/10 18/39/10 20/40/10
f 21/41/11 25/42/11 26/43/11 23/44/11
f 25/45/12 27/46/12 28/47/12 26/48/12
f 23/49/13 26/50/13 29/51/13 19/52/13
f 26/53/14 28/54/14 30/55/14 29/56/14
f 19/57/15 29/58/15 31/59/15 17/60/15
f 29/61/16 30/62/16 32/63/16 31/64/16
f 17/65/17 31/66/17 25/67/17 21/68/17
f 31/69/18 32/70/18 27/71/18 25/72/18