# Made by Pabilo8 with Blockbench
# Exported with IIToolkit Plugin
mtllib wiring.mtl


o cube
v -0.07478825776469149 0.10279276507887494 0.4375
v 0.35127750285393156 0.09144297620579198 -0.559012289808691
v 0.4501825172584592 0.022188939553001774 -0.5913646704465059
v 0.3154289755819912 0.040245973437729995 -0.559012289808691
v 0.4143339899865188 -0.02900806321506022 -0.5913646704465059
v 0.33637512569083805 0.05348336809283895 -0.5233136413372828
v 0.43528014009536564 -0.015770668559951198 -0.5556660219750976
v 0.3315756850442352 0.021613286773207202 -0.46976447433946866
v 0.4304806994487629 -0.047640749879583055 -0.5021168549772838
v -0.1866546441400325 0.07604521721726581 0.3125
v -0.1866546441400325 0.07604521721726581 0.4375
v -0.13877686644509638 0.035870991611857125 0.3125
v -0.13877686644509638 0.035870991611857125 0.4375
v -0.13253072854664696 0.07887505055605684 0.3125
v -0.13253072854664696 0.07887505055605684 0.4375
v -0.07478825776469149 0.10279276507887494 0.3125
v -0.07574253280806433 0.14550005177581876 0.3125
v 0.38764927335446375 0.12622326314656718 -0.5222707828392494
v -0.07574253280806433 0.02050005177581876 0.3125
v 0.34411913123045046 0.03170339680114209 -0.4530167461864594
v -0.20074253280806437 0.1455000517758188 0.3125
v 0.32481675906207474 0.08269312102255438 -0.6211757972437773
v -0.20074253280806437 0.020500051775818748 0.3125
v 0.2812866169380615 -0.011826745322871215 -0.551921760590987
v -0.06250000000000001 0.125 0.02083333333333337
v -0.06250000000000001 -1.3877787807814457e-17 0.02083333333333337
v -0.06250000000000001 0.125 -0.2708333333333333
v -0.06250000000000001 -1.3877787807814457e-17 -0.2708333333333333
v 0.0625 -2.7755575615628914e-17 0.02083333333333337
v 0.0625 -2.7755575615628914e-17 -0.2708333333333333
v 0.06250000000000003 0.125 0.02083333333333337
v 0.06250000000000003 0.125 -0.2708333333333333
vt 0.9375 0.8125
vt 0.9375 0.875
vt 0.8125 0.875
vt 0.8125 0.8125
vt 0.9375 0.8125
vt 0.9375 0.875
vt 0.8125 0.875
vt 0.8125 0.8125
vt 0.8125 0.875
vt 0.9375 0.875
vt 0.9375 0.8125
vt 0.8125 0.8125
vt 0.8125 0.875
vt 0.9375 0.875
vt 0.9375 0.8125
vt 0.8125 0.8125
vt 0.6875 0.125
vt 0.6875 0.41666666666666674
vt 0.5625 0.41666666666666674
vt 0.5625 0.125
vt 0.5625 1
vt 0.5625 0.7083333333333333
vt 0.6875 0.7083333333333333
vt 0.6875 1
vt 0.5625 1
vt 0.5625 0.7083333333333333
vt 0.6875 0.7083333333333333
vt 0.6875 1
vt 0.6875 0.125
vt 0.6875 0.41666666666666674
vt 0.5625 0.41666666666666674
vt 0.5625 0.125
vt 1 0
vt 1 0.125
vt 0.875 0.125
vt 0.875 0
vt 1 0
vt 1 0.125
vt 0.875 0.125
vt 0.875 0
vt 0.6875 0.125
vt 0.6875 0.41666666666666663
vt 0.5625 0.41666666666666663
vt 0.5625 0.125
vt 0.6875 0.41666666666666663
vt 0.6875 0.7083333333333333
vt 0.5625 0.7083333333333333
vt 0.5625 0.41666666666666663
vt 0.5625 1
vt 0.5625 0.7083333333333334
vt 0.6875 0.7083333333333334
vt 0.6875 1
vt 0.5625 0.7083333333333334
vt 0.5625 0.41666666666666674
vt 0.6875 0.41666666666666674
vt 0.6875 0.7083333333333334
vt 0.5625 1
vt 0.5625 0.7083333333333334
vt 0.6875 0.7083333333333334
vt 0.6875 1
vt 0.5625 0.7083333333333334
vt 0.5625 0.41666666666666674
vt 0.6875 0.41666666666666674
vt 0.6875 0.7083333333333334
vt 0.6875 0.125
vt 0.6875 0.41666666666666663
vt 0.5625 0.41666666666666663
vt 0.5625 0.125
vt 0.6875 0.41666666666666663
vt 0.6875 0.7083333333333333
vt 0.5625 0.7083333333333333
vt 0.5625 0.41666666666666663
vn 0.21201214989665437 -0.1484525055496843 0.9659258262890684
vn 0.6066648289028949 0.6580489987355884 0.44601491077688293
vn 0.6427876096865393 0.766044443118978 0
vn -0.3826834323650895 0.923879532511287 0
vn 0.6117304039641142 1.6653345369377348e-16 0.7910663138232481
vn -0.6329793968778228 1.6653345369377348e-16 -0.7741686399798096
vn 1.6653345369377343e-16 0.9927874638476366 -0.11988766253029423
vn 5.5511151231257815e-17 -0.985194108572901 -0.17144260973645625
vn 0 0 1
vn 0.7912401152362235 -0.5540322932223235 -0.2588190451025215
vn -0.9036363648130756 -1.1102230246251565e-16 -0.4283005022030797
vn -1 -1.1102230246251563e-16 0
vn 2.2204460492503126e-16 -0.9975390609382884 0.0701129225061825
vn 2.2204460492503126e-16 -1 0
vn 0.9036363648130755 -5.5511151231257815e-17 0.4283005022030797
vn 1 -1.665334536937734e-16 0
vn -5.5511151231257815e-17 0.9975390609382884 -0.07011292250618242
vn 5.5511151231257815e-17 1 0
usemtl common_copper_cable
f 5/1/1 3/2/1 2/3/1 4/4/1
f 9/5/2 7/6/2 6/7/2 8/8/2
f 10/9/3 11/10/3 13/11/3 12/12/3
f 14/13/4 15/14/4 1/15/4 16/16/4
f 18/17/5 32/18/5 30/19/5 20/20/5
f 24/21/6 28/22/6 27/23/6 22/24/6
f 22/25/7 27/26/7 32/27/7 18/28/7
f 20/29/8 30/30/8 28/31/8 24/32/8
f 19/33/9 17/34/9 21/35/9 23/36/9
f 24/37/10 22/38/10 18/39/10 20/40/10
f 21/41/11 25/42/11 26/43/11 23/44/11
f 25/45/12 27/46/12 28/47/12 26/48/12
f 23/49/13 26/50/13 29/51/13 19/52/13
f 26/53/14 28/54/14 30/55/14 29/56/14
f 19/57/15 29/58/15 31/59/15 17/60/15
f 29/61/16 30/62/16 32/63/16 31/64/16
f 17/65/17 31/66/17 25/67/17 21/68/17
f 31/69/18 32/70/18 27/71/18 25/72/18