# Made in Blockbench 4.7.4
mtllib sawmill.mtl

o sawdust
v -0.3125 -0.009375000000000133 1.75
v -0.3125 -0.009375000000000133 0.25
v 1.1875 -0.009375000000000133 1.75
v 1.1875 -0.009375000000000133 0.25
v 0.21875 0.625 1.25
v 0.21875 0.625 0.75
v -0.25 0 1.6875
v -0.25 0 0.3125
v 0.71875 0.625 1.25
v 0.71875 0.625 0.75
v 1.125 0 1.6875
v 1.125 0 0.3125
v 0.1875 0.640625 1.28125
v 0.1875 0.640625 0.71875
v 0.75 0.640625 1.28125
v 0.75 0.640625 0.71875
v 0.71875 0.625 1.375
v 0.71875 0.625 0.625
v 0.9397208691207961 0.4040291308792039 1.375
v 0.9397208691207961 0.4040291308792039 0.625
v 0.84375 0.4375000000000002 1.5625
v 0.84375 0.4375000000000002 0.4375
v 1.0647208691207957 0.21652913087920367 1.5625
v 1.0647208691207957 0.21652913087920367 0.4375
v 0.96875 0.2500000000000002 1.6875
v 0.96875 0.2500000000000002 0.3125
v 1.189720869120796 0.029029130879204113 1.6875
v 1.189720869120796 0.029029130879204113 0.3125
v 0.84375 0.6250000068437953 0.7500000068437953
v 0.09375 0.6249999931562047 0.7499999931562047
v 0.84375000806549 0.40402913772299853 0.5290291377229999
v 0.09375000806549005 0.40402912403540814 0.5290291240354094
v 1.0312500057031624 0.43750001026569274 0.6250000102656936
v -0.09374999429683717 0.43749998973430704 0.6249999897343078
v 1.0312500137686524 0.21652914114489552 0.4040291411448984
v -0.09374998623134712 0.21652912061350982 0.4040291206135126
v 1.1562500114063252 0.2500000125469577 0.5000000125469592
v -0.21874998859367434 0.24999998745304164 0.4999999874530432
v 1.1562500194718153 0.02902914342616092 0.27902914342616403
v -0.21874998052818428 0.029029118332244863 0.27902911833224797
v 0.21875000684379753 0.6250000068437953 0.6250000000000001
v 0.21874999315620247 0.6249999931562047 1.375
v -0.002220862276999469 0.4040291377230001 0.6249999919345086
v -0.0022208759645943044 0.40402912403540947 1.3749999919345084
v 0.09375001026569585 0.43750001026569385 0.4374999942968366
v 0.09374998973430326 0.4374999897343077 1.5624999942968363
v -0.12722085885510115 0.21652914114489819 0.4374999862313451
v -0.1272208793864933 0.21652912061351182 1.562499986231345
v -0.031249987453039196 0.25000001254695947 0.3124999885936731
v -0.031250012546963246 0.24999998745304297 1.687499988593673
v -0.2522208565738362 0.02902914342616425 0.3124999805281816
v -0.25222088166776 0.02902911833224775 1.6874999805281814
v 0.09375 0.625 1.25
v 0.84375 0.625 1.25
v 0.09375 0.40402913087920345 1.4709708691207957
v 0.84375 0.40402913087920345 1.4709708691207957
v -0.09375 0.4375 1.3749999999999996
v 1.03125 0.4375 1.3749999999999996
v -0.09374999999999978 0.216529130879203 1.5959708691207952
v 1.03125 0.216529130879203 1.595970869120795
v -0.21874999999999978 0.24999999999999978 1.4999999999999996
v 1.15625 0.25 1.4999999999999991
v -0.21874999999999956 0.029029130879203446 1.7209708691207952
v 1.15625 0.029029130879203446 1.7209708691207948
vt 0 0.625
vt 0.375 0.625
vt 0.375 1
vt 0 1
vt 0 1
vt 0.375 1
vt 0.375 0.625
vt 0 0.625
vt 0.375 0.8046875
vt 0.484375 1
vt 0.609375 1
vt 0.71875 0.8046875
vt 0.484375 1
vt 0.609375 1
vt 0.71875 0.8046875
vt 0.375 0.8046875
vt 0.875 1
vt 0.875 0.875
vt 0.75 0.875
vt 0.75 1
vt 0.375 0.84375
vt 0.71875 0.84375
vt 0.71875 0.5
vt 0.375 0.5
vt 0.484375 1
vt 0.609375 1
vt 0.71875 0.8046875
vt 0.375 0.8046875
vt 0.375 0.8046875
vt 0.484375 1
vt 0.609375 1
vt 0.71875 0.8046875
vt 1 1
vt 1 0.875
vt 0.875 0.875
vt 0.875 1
vt 0.953125 0.875
vt 0.765625 0.875
vt 0.765625 0.796875
vt 0.953125 0.796875
vt 0.71875 0.796875
vt 1 0.796875
vt 1 0.71875
vt 0.71875 0.71875
vt 0 0.578125
vt 0.34375 0.578125
vt 0.34375 0.5
vt 0 0.5
vt 0.953125 0.875
vt 0.765625 0.875
vt 0.765625 0.796875
vt 0.953125 0.796875
vt 0.71875 0.796875
vt 1 0.796875
vt 1 0.71875
vt 0.71875 0.71875
vt 0 0.578125
vt 0.34375 0.578125
vt 0.34375 0.5
vt 0 0.5
vt 0.953125 0.875
vt 0.765625 0.875
vt 0.765625 0.796875
vt 0.953125 0.796875
vt 0.71875 0.796875
vt 1 0.796875
vt 1 0.71875
vt 0.71875 0.71875
vt 0 0.578125
vt 0.34375 0.578125
vt 0.34375 0.5
vt 0 0.5
vt 0.953125 0.875
vt 0.765625 0.875
vt 0.765625 0.796875
vt 0.953125 0.796875
vt 0.71875 0.796875
vt 1 0.796875
vt 1 0.71875
vt 0.71875 0.71875
vt 0 0.578125
vt 0.34375 0.578125
vt 0.34375 0.5
vt 0 0.5
vn 0 1 0
vn 0 -1 0
vn -0.8 0.6 0
vn 0.8384436163006372 0.5449883505954142 0
vn 0 1 0
vn 0 -1 0
vn 0 0.5734623443633283 0.8192319205190405
vn 0 0.5734623443633283 -0.8192319205190405
vn 0 1 0
vn 0.7071067811865476 0.7071067811865476 0
vn 0.707106781186549 0.7071067811865461 0
vn 0.7071067811865476 0.7071067811865476 0
vn -2.6168124699400016e-17 0.7071067811865452 -0.7071067811865498
vn 6.978200467824558e-17 0.7071067811865444 -0.7071067811865507
vn 2.8547222233507185e-17 0.7071067811865452 -0.7071067811865499
vn -0.7071067811865447 0.7071067811865503 -4.186913119737029e-15
vn -0.7071067811865455 0.7071067811865497 -4.047349370372591e-15
vn -0.7071067811865447 0.7071067811865503 -3.88241034026974e-15
vn 1.8317745351310748e-16 0.7071067811865461 0.707106781186549
vn 1.3956377410522493e-16 0.7071067811865452 0.7071067811865499
vn 2.85471356124326e-17 0.7071067811865467 0.7071067811865485
usemtl m_61989cdd-fe00-fd72-7d86-424014dac813
f 4/1/1 2/2/1 1/3/1 3/4/1
f 3/5/2 1/6/2 2/7/2 4/8/2
f 7/9/3 5/10/3 6/11/3 8/12/3
f 10/13/4 9/14/4 11/15/4 12/16/4
f 6/17/5 5/18/5 9/19/5 10/20/5
f 11/21/6 7/22/6 8/23/6 12/24/6
f 9/25/7 5/26/7 7/27/7 11/28/7
f 8/29/8 6/30/8 10/31/8 12/32/8
f 14/33/9 13/34/9 15/35/9 16/36/9
f 18/37/10 17/38/10 19/39/10 20/40/10
f 22/41/11 21/42/11 23/43/11 24/44/11
f 26/45/12 25/46/12 27/47/12 28/48/12
f 30/49/13 29/50/13 31/51/13 32/52/13
f 34/53/14 33/54/14 35/55/14 36/56/14
f 38/57/15 37/58/15 39/59/15 40/60/15
f 42/61/16 41/62/16 43/63/16 44/64/16
f 46/65/17 45/66/17 47/67/17 48/68/17
f 50/69/18 49/70/18 51/71/18 52/72/18
f 54/73/19 53/74/19 55/75/19 56/76/19
f 58/77/20 57/78/20 59/79/20 60/80/20
f 62/81/21 61/82/21 63/83/21 64/84/21