# Made by Pabilo8 with Blockbench
# Exported with IIToolkit Plugin on 13/05/2026
mtllib sawmill.mtl

o unregulator_base
v 0.625 0.875 1.3438
v 0.625 0.875 0.7813
v 0.625 0.625 1.3438
v 0.625 0.625 0.7813
v 0.375 0.875 1.3438
v 0.375 0.875 0.7813
v 0.375 0.625 1.3438
v 0.375 0.625 0.7813
vt 0.9531 0.875
vt 0.9531 0.9375
vt 0.8125 0.9375
vt 0.8125 0.875
vt 0.9531 0.875
vt 0.9531 0.9375
vt 0.8125 0.9375
vt 0.8125 0.875
vt 0.9531 0.9375
vt 0.8125 0.9375
vt 0.8125 0.875
vt 0.9531 0.875
vt 0.9531 0.9375
vt 0.8125 0.9375
vt 0.8125 0.875
vt 0.9531 0.875
vt 0.9844 0.9375
vt 0.9844 1
vt 0.9219 1
vt 0.9219 0.9375
vt 0.9844 0.9375
vt 0.9844 1
vt 0.9219 1
vt 0.9219 0.9375
vn 1 0 0
vn -1 0 0
vn 0 1 0
vn 0 -1 0
vn 0 0 1
vn 0 0 -1
usemtl sawmill2
f 4/1/1 2/2/1 1/3/1 3/4/1
f 7/5/2 5/6/2 6/7/2 8/8/2
f 1/9/3 2/10/3 6/11/3 5/12/3
f 4/13/4 3/14/4 7/15/4 8/16/4
f 3/17/5 1/18/5 5/19/5 7/20/5
f 8/21/6 6/22/6 2/23/6 4/24/6
o unregulator1
v 0.5625 0.8125 0.9063
v 0.5625 0.8125 0.8438
v 0.5625 0.5625 0.9063
v 0.5625 0.5625 0.8438
v 0.3125 0.8125 0.9063
v 0.3125 0.8125 0.8438
v 0.3125 0.5625 0.9063
v 0.3125 0.5625 0.8438
vt 0.875 0.9375
vt 0.875 1
vt 0.8594 1
vt 0.8594 0.9375
vt 0.9219 0.9375
vt 0.9219 1
vt 0.9063 1
vt 0.9063 0.9375
vt 0.9219 0.9844
vt 0.9219 1
vt 0.8594 1
vt 0.8594 0.9844
vt 0.8594 0.9375
vt 0.8594 0.9531
vt 0.9219 0.9531
vt 0.9219 0.9375
vt 0.9219 0.9375
vt 0.9219 1
vt 0.8594 1
vt 0.8594 0.9375
vt 0.9219 0.9375
vt 0.9219 1
vt 0.8594 1
vt 0.8594 0.9375
vn 1 0 0
vn -1 0 0
vn 0 1 0
vn 0 -1 0
vn 0 0 1
vn 0 0 -1
usemtl sawmill2
f 12/25/7 10/26/7 9/27/7 11/28/7
f 15/29/8 13/30/8 14/31/8 16/32/8
f 9/33/9 10/34/9 14/35/9 13/36/9
f 12/37/10 11/38/10 15/39/10 16/40/10
f 11/41/11 9/42/11 13/43/11 15/44/11
f 16/45/12 14/46/12 10/47/12 12/48/12
o unregulator2
v 0.5625 0.8125 1.0313
v 0.5625 0.8125 0.9688
v 0.5625 0.5625 1.0313
v 0.5625 0.5625 0.9688
v 0.3125 0.8125 1.0313
v 0.3125 0.8125 0.9688
v 0.3125 0.5625 1.0313
v 0.3125 0.5625 0.9688
vt 0.875 0.9375
vt 0.875 1
vt 0.8594 1
vt 0.8594 0.9375
vt 0.9219 0.9375
vt 0.9219 1
vt 0.9063 1
vt 0.9063 0.9375
vt 0.9219 0.9844
vt 0.9219 1
vt 0.8594 1
vt 0.8594 0.9844
vt 0.8594 0.9375
vt 0.8594 0.9531
vt 0.9219 0.9531
vt 0.9219 0.9375
vt 0.9219 0.9375
vt 0.9219 1
vt 0.8594 1
vt 0.8594 0.9375
vt 0.9219 0.9375
vt 0.9219 1
vt 0.8594 1
vt 0.8594 0.9375
vn 1 0 0
vn -1 0 0
vn 0 1 0
vn 0 -1 0
vn 0 0 1
vn 0 0 -1
usemtl sawmill2
f 20/49/13 18/50/13 17/51/13 19/52/13
f 23/53/14 21/54/14 22/55/14 24/56/14
f 17/57/15 18/58/15 22/59/15 21/60/15
f 20/61/16 19/62/16 23/63/16 24/64/16
f 19/65/17 17/66/17 21/67/17 23/68/17
f 24/69/18 22/70/18 18/71/18 20/72/18
o unregulator3
v 0.6875 0.8125 1.2813
v 0.6875 0.8125 1.2188
v 0.6875 0.5625 1.2813
v 0.6875 0.5625 1.2188
v 0.4375 0.8125 1.2813
v 0.4375 0.8125 1.2188
v 0.4375 0.5625 1.2813
v 0.4375 0.5625 1.2188
vt 0.875 0.9375
vt 0.875 1
vt 0.8594 1
vt 0.8594 0.9375
vt 0.9219 0.9375
vt 0.9219 1
vt 0.9063 1
vt 0.9063 0.9375
vt 0.9219 0.9844
vt 0.9219 1
vt 0.8594 1
vt 0.8594 0.9844
vt 0.8594 0.9375
vt 0.8594 0.9531
vt 0.9219 0.9531
vt 0.9219 0.9375
vt 0.9219 0.9375
vt 0.9219 1
vt 0.8594 1
vt 0.8594 0.9375
vt 0.9219 0.9375
vt 0.9219 1
vt 0.8594 1
vt 0.8594 0.9375
vn 1 0 0
vn -1 0 0
vn 0 1 0
vn 0 -1 0
vn 0 0 1
vn 0 0 -1
usemtl sawmill2
f 28/73/19 26/74/19 25/75/19 27/76/19
f 31/77/20 29/78/20 30/79/20 32/80/20
f 25/81/21 26/82/21 30/83/21 29/84/21
f 28/85/22 27/86/22 31/87/22 32/88/22
f 27/89/23 25/90/23 29/91/23 31/92/23
f 32/93/24 30/94/24 26/95/24 28/96/24
o unregulator4
v 0.6875 0.8125 1.1563
v 0.6875 0.8125 1.0938
v 0.6875 0.5625 1.1563
v 0.6875 0.5625 1.0938
v 0.4375 0.8125 1.1563
v 0.4375 0.8125 1.0938
v 0.4375 0.5625 1.1563
v 0.4375 0.5625 1.0938
vt 0.875 0.9375
vt 0.875 1
vt 0.8594 1
vt 0.8594 0.9375
vt 0.9219 0.9375
vt 0.9219 1
vt 0.9063 1
vt 0.9063 0.9375
vt 0.9219 0.9844
vt 0.9219 1
vt 0.8594 1
vt 0.8594 0.9844
vt 0.8594 0.9375
vt 0.8594 0.9531
vt 0.9219 0.9531
vt 0.9219 0.9375
vt 0.9219 0.9375
vt 0.9219 1
vt 0.8594 1
vt 0.8594 0.9375
vt 0.9219 0.9375
vt 0.9219 1
vt 0.8594 1
vt 0.8594 0.9375
vn 1 0 0
vn -1 0 0
vn 0 1 0
vn 0 -1 0
vn 0 0 1
vn 0 0 -1
usemtl sawmill2
f 36/97/25 34/98/25 33/99/25 35/100/25
f 39/101/26 37/102/26 38/103/26 40/104/26
f 33/105/27 34/106/27 38/107/27 37/108/27
f 36/109/28 35/110/28 39/111/28 40/112/28
f 35/113/29 33/114/29 37/115/29 39/116/29
f 40/117/30 38/118/30 34/119/30 36/120/30