# Made by Pabilo8 with Blockbench
# Exported with IIToolkit Plugin on 13/05/2026
mtllib sawmill.mtl

o gearbox_gear1
v 0.6094 0.8594 1.5625
v 0.6094 0.8594 1.5
v 0.6094 0.6094 1.5625
v 0.6094 0.6094 1.5
v 0.3594 0.8594 1.5625
v 0.3594 0.8594 1.5
v 0.3594 0.6094 1.5625
v 0.3594 0.6094 1.5
v 0.6094 0.8594 1.4375
v 0.6094 0.8594 1.375
v 0.6094 0.6094 1.4375
v 0.6094 0.6094 1.375
v 0.3594 0.8594 1.4375
v 0.3594 0.8594 1.375
v 0.3594 0.6094 1.4375
v 0.3594 0.6094 1.375
vt 0.875 0.9375
vt 0.875 1
vt 0.8594 1
vt 0.8594 0.9375
vt 0.9219 0.9375
vt 0.9219 1
vt 0.9063 1
vt 0.9063 0.9375
vt 0.9219 0.9844
vt 0.9219 1
vt 0.8594 1
vt 0.8594 0.9844
vt 0.8594 0.9375
vt 0.8594 0.9531
vt 0.9219 0.9531
vt 0.9219 0.9375
vt 0.9219 0.9375
vt 0.9219 1
vt 0.8594 1
vt 0.8594 0.9375
vt 0.9219 0.9375
vt 0.9219 1
vt 0.8594 1
vt 0.8594 0.9375
vt 0.875 0.9375
vt 0.875 1
vt 0.8594 1
vt 0.8594 0.9375
vt 0.9219 0.9375
vt 0.9219 1
vt 0.9063 1
vt 0.9063 0.9375
vt 0.9219 0.9844
vt 0.9219 1
vt 0.8594 1
vt 0.8594 0.9844
vt 0.8594 0.9375
vt 0.8594 0.9531
vt 0.9219 0.9531
vt 0.9219 0.9375
vt 0.9219 0.9375
vt 0.9219 1
vt 0.8594 1
vt 0.8594 0.9375
vt 0.9219 0.9375
vt 0.9219 1
vt 0.8594 1
vt 0.8594 0.9375
vn 1 0 0
vn -1 0 0
vn 0 1 0
vn 0 -1 0
vn 0 0 1
vn 0 0 -1
vn 1 0 0
vn -1 0 0
vn 0 1 0
vn 0 -1 0
vn 0 0 1
vn 0 0 -1
usemtl sawmill2
f 4/1/1 2/2/1 1/3/1 3/4/1
f 7/5/2 5/6/2 6/7/2 8/8/2
f 1/9/3 2/10/3 6/11/3 5/12/3
f 4/13/4 3/14/4 7/15/4 8/16/4
f 3/17/5 1/18/5 5/19/5 7/20/5
f 8/21/6 6/22/6 2/23/6 4/24/6
f 12/25/7 10/26/7 9/27/7 11/28/7
f 15/29/8 13/30/8 14/31/8 16/32/8
f 9/33/9 10/34/9 14/35/9 13/36/9
f 12/37/10 11/38/10 15/39/10 16/40/10
f 11/41/11 9/42/11 13/43/11 15/44/11
f 16/45/12 14/46/12 10/47/12 12/48/12
o gearbox_gear2
v 0.4063 0.8281 1.5
v 0.4063 0.8281 1.4375
v 0.4063 0.6406 1.5
v 0.4063 0.6406 1.4375
v 0.5938 0.8281 1.5
v 0.5938 0.8281 1.4375
v 0.5938 0.6406 1.5
v 0.5938 0.6406 1.4375
vt 0.8438 1
vt 0.8594 1
vt 0.8594 0.9531
vt 0.8438 0.9531
vt 0.8125 1
vt 0.8281 1
vt 0.8281 0.9531
vt 0.8125 0.9531
vt 0.8125 1
vt 0.8594 1
vt 0.8594 0.9844
vt 0.8125 0.9844
vt 0.8125 0.9688
vt 0.8594 0.9688
vt 0.8594 0.9531
vt 0.8125 0.9531
vt 0.8125 1
vt 0.8594 1
vt 0.8594 0.9531
vt 0.8125 0.9531
vt 0.8125 1
vt 0.8594 1
vt 0.8594 0.9531
vt 0.8125 0.9531
vn -1 0 0
vn 1 0 0
vn 0 1 0
vn 0 -1 0
vn 0 0 1
vn 0 0 -1
usemtl sawmill2
f 17/49/13 18/50/13 20/51/13 19/52/13
f 22/53/14 21/54/14 23/55/14 24/56/14
f 22/57/15 18/58/15 17/59/15 21/60/15
f 23/61/16 19/62/16 20/63/16 24/64/16
f 21/65/17 17/66/17 19/67/17 23/68/17
f 18/69/18 22/70/18 24/71/18 20/72/18
o gearbox_gauge
v 0.1229 0.3423 1.9531
v 0.1229 0.3423 1.6406
v 0.016 0.0487 1.9531
v 0.016 0.0487 1.6406
v 0.0641 0.3637 1.9531
v 0.0641 0.3637 1.6406
v -0.0428 0.07 1.9531
v -0.0428 0.07 1.6406
v 0.1602 0.2622 1.8906
v 0.1602 0.2622 1.7031
v 0.0961 0.086 1.8906
v 0.0961 0.086 1.7031
v 0.1015 0.2836 1.8906
v 0.1015 0.2836 1.7031
v 0.0374 0.1074 1.8906
v 0.0374 0.1074 1.7031
vt 0.7813 0.0781
vt 0.7031 0.0781
vt 0.7031 0.0625
vt 0.7813 0.0625
vt 0.7813 0.0156
vt 0.7031 0.0156
vt 0.7031 0
vt 0.7813 0
vt 0.7813 0
vt 0.7813 0.0781
vt 0.7656 0.0781
vt 0.7656 0
vt 0.7188 0
vt 0.7188 0.0781
vt 0.7031 0.0781
vt 0.7031 0
vt 0.9219 0.5
vt 0.875 0.5
vt 0.875 0.4844
vt 0.9219 0.4844
vt 0.9219 0.5
vt 0.875 0.5
vt 0.875 0.4844
vt 0.9219 0.4844
vt 0.875 0.5
vt 0.9219 0.5
vt 0.9219 0.4844
vt 0.875 0.4844
vt 0.9219 0.5
vt 0.875 0.5
vt 0.875 0.4844
vt 0.9219 0.4844
vt 0.7031 0
vt 0.7813 0
vt 0.7813 0.0781
vt 0.7031 0.0781
vt 0.2344 0.8125
vt 0.1563 0.8125
vt 0.1563 0.7344
vt 0.2344 0.7344
vn 0.34 0.94 0
vn -0.34 -0.94 0
vn 0 0 1
vn 0 0 -1
vn 0.34 0.94 0
vn -0.34 -0.94 0
vn 0 0 1
vn 0 0 -1
vn 0.94 -0.34 0
vn -0.94 0.34 0
usemtl common_thingies
f 25/73/19 26/74/19 30/75/19 29/76/19
f 28/77/20 27/78/20 31/79/20 32/80/20
f 27/81/21 25/82/21 29/83/21 31/84/21
f 32/85/22 30/86/22 26/87/22 28/88/22
usemtl sawmill
f 33/89/23 34/90/23 38/91/23 37/92/23
f 36/93/24 35/94/24 39/95/24 40/96/24
f 35/97/25 33/98/25 37/99/25 39/100/25
f 40/101/26 38/102/26 34/103/26 36/104/26
usemtl common_thingies
f 27/105/27 28/106/27 26/107/27 25/108/27
f 29/109/28 30/110/28 32/111/28 31/112/28
o gearbox_base
v 0.875 0.8125 1.9531
v 0.875 0.8125 1.6219
v 0.875 0.1875 1.9531
v 0.875 0.1875 1.6219
v 0.125 0.8125 1.9531
v 0.125 0.8125 1.6219
v 0.125 0.1875 1.9531
v 0.125 0.1875 1.6219
v 0.9375 0.1875 2.0156
v 0.9375 0.1875 1.5594
v 0.9375 0 2.0156
v 0.9375 0 1.5594
v 0.0625 0.1875 2.0156
v 0.0625 0.1875 1.5594
v 0.0625 0 2.0156
v 0.0625 0 1.5594
v 0.125 0.6875 1.875
v 0.125 0.6875 1.6875
v 0.125 0.1875 1.875
v 0.125 0.1875 1.6875
v 0.0625 0.6875 1.875
v 0.0625 0.6875 1.6875
v 0.0625 0.1875 1.875
v 0.0625 0.1875 1.6875
vt 0.7344 0.4219
vt 0.7344 0.5781
vt 0.6563 0.5781
vt 0.6563 0.4219
vt 0.7344 0.4219
vt 0.7344 0.5781
vt 0.6563 0.5781
vt 0.6563 0.4219
vt 0.6563 0.4219
vt 0.6563 0.5781
vt 0.4688 0.5781
vt 0.4688 0.4219
vt 0.6563 0.4219
vt 0.6563 0.5781
vt 0.4688 0.5781
vt 0.4688 0.4219
vt 0.5625 0.6875
vt 0.5625 0.7344
vt 0.4531 0.7344
vt 0.4531 0.6875
vt 0.5625 0.6875
vt 0.5625 0.7344
vt 0.4531 0.7344
vt 0.4531 0.6875
vt 0.6719 0.5781
vt 0.6719 0.6875
vt 0.4531 0.6875
vt 0.4531 0.5781
vt 0.8906 0.625
vt 0.8906 0.7344
vt 0.6719 0.7344
vt 0.6719 0.625
vt 0.6719 0.7344
vt 0.6719 0.7813
vt 0.4531 0.7813
vt 0.4531 0.7344
vt 0.4531 0.7344
vt 0.4531 0.7813
vt 0.6719 0.7813
vt 0.6719 0.7344
vt 0.7344 0.625
vt 0.7344 0.4375
vt 0.8281 0.4375
vt 0.8281 0.625
vt 0.5 0.2188
vt 0.625 0.2188
vt 0.625 0.2656
vt 0.5 0.2656
vt 0.625 0.2656
vt 0.625 0.2188
vt 0.6094 0.2188
vt 0.6094 0.2656
vt 0.625 0.2656
vt 0.625 0.2188
vt 0.6094 0.2188
vt 0.6094 0.2656
vt 0.5 0.2344
vt 0.625 0.2344
vt 0.625 0.2188
vt 0.5 0.2188
vt 0.5 0.2656
vt 0.625 0.2656
vt 0.625 0.25
vt 0.5 0.25
vn 1 0 0
vn -1 0 0
vn 0 0 1
vn 0 0 -1
vn 1 0 0
vn -1 0 0
vn 0 1 0
vn 0 -1 0
vn 0 0 1
vn 0 0 -1
vn 0 1 0
vn -1 0 0
vn 0 1 0
vn 0 -1 0
vn 0 0 1
vn 0 0 -1
usemtl sawmill2
f 44/113/29 42/114/29 41/115/29 43/116/29
f 47/117/30 45/118/30 46/119/30 48/120/30
f 43/121/31 41/122/31 45/123/31 47/124/31
f 48/125/32 46/126/32 42/127/32 44/128/32
f 52/129/33 50/130/33 49/131/33 51/132/33
f 55/133/34 53/134/34 54/135/34 56/136/34
f 49/137/35 50/138/35 54/139/35 53/140/35
f 52/141/36 51/142/36 55/143/36 56/144/36
f 51/145/37 49/146/37 53/147/37 55/148/37
f 56/149/38 54/150/38 50/151/38 52/152/38
f 42/153/39 46/154/39 45/155/39 41/156/39
usemtl common_thingies
f 63/157/40 61/158/40 62/159/40 64/160/40
f 57/161/41 58/162/41 62/163/41 61/164/41
f 60/165/42 59/166/42 63/167/42 64/168/42
f 59/169/43 57/170/43 61/171/43 63/172/43
f 64/173/44 62/174/44 58/175/44 60/176/44
o gearbox_lever
v 0.1551 0.5277 1.8281
v 0.1551 0.5277 1.7656
v 0.1262 0.4723 1.8281
v 0.1262 0.4723 1.7656
v -0.0113 0.6143 1.8281
v -0.0113 0.6143 1.7656
v -0.0401 0.5589 1.8281
v -0.0401 0.5589 1.7656
v -0.0113 0.6143 1.8906
v -0.0113 0.6143 1.7031
v -0.0401 0.5589 1.8906
v -0.0401 0.5589 1.7031
v -0.0667 0.6432 1.8906
v -0.0667 0.6432 1.7031
v -0.0956 0.5877 1.8906
v -0.0956 0.5877 1.7031
vt 0.5469 0.1406
vt 0.5469 0.1563
vt 0.5313 0.1563
vt 0.5313 0.1406
vt 0.5469 0.1719
vt 0.5469 0.1875
vt 0.5313 0.1875
vt 0.5313 0.1719
vt 0.5313 0.1406
vt 0.5469 0.1406
vt 0.5469 0.1875
vt 0.5313 0.1875
vt 0.5313 0.1406
vt 0.5469 0.1406
vt 0.5469 0.1875
vt 0.5313 0.1875
vt 0.5313 0.1406
vt 0.5469 0.1406
vt 0.5469 0.1875
vt 0.5313 0.1875
vt 0.5313 0.1875
vt 0.5469 0.1875
vt 0.5469 0.1406
vt 0.5313 0.1406
vt 0.8281 0.3438
vt 0.8281 0.3594
vt 0.7813 0.3594
vt 0.7813 0.3438
vt 0.8281 0.3438
vt 0.8281 0.3594
vt 0.7813 0.3594
vt 0.7813 0.3438
vt 0.8281 0.3594
vt 0.7813 0.3594
vt 0.7813 0.3438
vt 0.8281 0.3438
vt 0.7813 0.3438
vt 0.8281 0.3438
vt 0.8281 0.3594
vt 0.7813 0.3594
vt 0.7969 0.3438
vt 0.7969 0.3594
vt 0.7813 0.3594
vt 0.7813 0.3438
vt 0.8281 0.3438
vt 0.8281 0.3594
vt 0.8125 0.3594
vt 0.8125 0.3438
vn 0.89 -0.46 0
vn -0.89 0.46 0
vn 0.46 0.89 0
vn -0.46 -0.89 0
vn 0 0 1
vn 0 0 -1
vn 0.89 -0.46 0
vn -0.89 0.46 0
vn 0.46 0.89 0
vn -0.46 -0.89 0
vn 0 0 1
vn 0 0 -1
usemtl sawmill
f 68/177/45 66/178/45 65/179/45 67/180/45
f 71/181/46 69/182/46 70/183/46 72/184/46
f 65/185/47 66/186/47 70/187/47 69/188/47
f 68/189/48 67/190/48 71/191/48 72/192/48
f 67/193/49 65/194/49 69/195/49 71/196/49
f 72/197/50 70/198/50 66/199/50 68/200/50
usemtl common_thingies
f 76/201/51 74/202/51 73/203/51 75/204/51
f 79/205/52 77/206/52 78/207/52 80/208/52
f 73/209/53 74/210/53 78/211/53 77/212/53
f 76/213/54 75/214/54 79/215/54 80/216/54
f 75/217/55 73/218/55 77/219/55 79/220/55
f 80/221/56 78/222/56 74/223/56 76/224/56