# Made in Blockbench 4.6.4
mtllib upgrades.mtl

o long_barrel
v 0.15625 1.2343749999999998 -2.1250000000000027
v 0.15625 1.2343749999999998 -2.6250000000000013
v 0.15625 1.1093749999999998 -2.1250000000000027
v 0.15625 1.1093749999999998 -2.625
v 0.03125 1.2343749999999998 -2.1250000000000027
v 0.03125 1.2343749999999998 -2.6250000000000013
v 0.03125 1.1093749999999998 -2.1250000000000027
v 0.03125 1.1093749999999998 -2.625
v 0.15625 1.3593749999999998 -2.6250000000000027
v 0.15625 1.3593749999999998 -3.1875
v 0.15625 1.2343749999999998 -3.1875
v 0.03125 1.3593749999999998 -2.6250000000000027
v 0.03125 1.3593749999999998 -3.1875
v 0.03125 1.2343749999999998 -3.1875
v 0.171875 1.375 -2.0625000000000027
v 0.171875 1.375 -2.1875000000000027
v 0.171875 1.0937499999999996 -2.0625000000000027
v 0.171875 1.0937499999999996 -2.1875000000000027
v 0.015625 1.375 -2.0625000000000027
v 0.015625 1.375 -2.1875000000000027
v 0.015625 1.0937499999999996 -2.0625000000000027
v 0.015625 1.0937499999999996 -2.1875000000000027
v 0.171875 1.3749999999999998 -2.5312500000000027
v 0.171875 1.3749999999999998 -2.6562500000000027
v 0.171875 1.0937499999999996 -2.5312500000000027
v 0.171875 1.0937499999999996 -2.6562500000000027
v 0.015625 1.3749999999999998 -2.5312500000000027
v 0.015625 1.3749999999999998 -2.6562500000000027
v 0.015625 1.0937499999999996 -2.5312500000000027
v 0.015625 1.0937499999999996 -2.6562500000000027
vt 0.875 0.4765625
vt 0.90625 0.4765625
vt 0.90625 0.3515625
vt 0.875 0.3515625
vt 0.875 0.3515625
vt 0.90625 0.3515625
vt 0.90625 0.4765625
vt 0.875 0.4765625
vt 0.875 0.3515625
vt 0.875 0.4765625
vt 0.84375 0.4765625
vt 0.84375 0.3515625
vt 0.84375 0.4765625
vt 0.84375 0.3515625
vt 0.875 0.3515625
vt 0.875 0.4765625
vt 0.875 0.4765625
vt 0.875 0.5078125
vt 0.84375 0.5078125
vt 0.84375 0.4765625
vt 0.875 0.4765625
vt 0.875 0.5078125
vt 0.84375 0.5078125
vt 0.84375 0.4765625
vt 0.1406249999999999 0.6562500000000002
vt 0.1406249999999999 0.6875000000000002
vt 0 0.6875000000000002
vt 0 0.6562500000000002
vt 0 0.6875000000000003
vt 0 0.6562500000000003
vt 0.1406249999999999 0.6562500000000003
vt 0.1406249999999999 0.6875000000000003
vt 0 0.6875000000000002
vt 0.1406249999999999 0.6875000000000002
vt 0.1406249999999999 0.6562500000000002
vt 0 0.6562500000000002
vt 0.1406249999999999 0.6562500000000003
vt 0 0.6562500000000003
vt 0 0.6875000000000003
vt 0.1406249999999999 0.6875000000000003
vt 0.1718750000000001 0.6562500000000003
vt 0.1718750000000001 0.6875000000000003
vt 0.1406250000000001 0.6875000000000003
vt 0.1406250000000001 0.6562500000000003
vt 0.8125 0.4140625
vt 0.8125 0.484375
vt 0.84375 0.484375
vt 0.84375 0.4140625
vt 0.84375 0.4140625
vt 0.84375 0.484375
vt 0.8125 0.484375
vt 0.8125 0.4140625
vt 0.84375 0.5234375
vt 0.8125 0.5234375
vt 0.8125 0.484375
vt 0.84375 0.484375
vt 0.8125 0.4140625
vt 0.84375 0.4140625
vt 0.84375 0.375
vt 0.8125 0.375
vt 0.8125 0.4140625
vt 0.8125 0.484375
vt 0.7734375 0.484375
vt 0.7734375 0.4140625
vt 0.8125 0.4140625
vt 0.8125 0.484375
vt 0.7734375 0.484375
vt 0.7734375 0.4140625
vt 0.7421875 0.4140625
vt 0.7421875 0.484375
vt 0.7734375 0.484375
vt 0.7734375 0.4140625
vt 0.7734375 0.4140625
vt 0.7734375 0.484375
vt 0.7421875 0.484375
vt 0.7421875 0.4140625
vt 0.7734374999999999 0.41406249999999967
vt 0.7421874999999999 0.41406249999999967
vt 0.7421874999999999 0.37499999999999967
vt 0.7734374999999999 0.37499999999999967
vt 0.7421875 0.5234375
vt 0.7734375 0.5234375
vt 0.7734375 0.484375
vt 0.7421875 0.484375
vt 0.7421875 0.4140625
vt 0.7421875 0.484375
vt 0.703125 0.484375
vt 0.703125 0.4140625
vt 0.7421875 0.4140625
vt 0.7421875 0.484375
vt 0.703125 0.484375
vt 0.703125 0.4140625
vn 1 0 0
vn -1 0 0
vn 0 1 0
vn 0 -1 0
vn 0 0 1
vn 0 -1.0658141036401503e-14 -1
vn 1 0 0
vn -1 0 0
vn 0 1 0
vn 0 -1 0
vn 0 0 -1
vn 1 0 0
vn -1 0 0
vn 0 1 0
vn 0 -1 0
vn 0 0 1
vn 0 0 -1
vn 1 0 0
vn -1 0 0
vn 0 1 0
vn 0 -1 0
vn 0 0 1
vn 0 0 -1
usemtl m_84ddc615-b168-8719-d269-8168388d085e
f 4/1/1 2/2/1 1/3/1 3/4/1
f 7/5/2 5/6/2 6/7/2 8/8/2
f 1/9/3 2/10/3 6/11/3 5/12/3
f 4/13/4 3/14/4 7/15/4 8/16/4
f 3/17/5 1/18/5 5/19/5 7/20/5
f 8/21/6 6/22/6 2/23/6 4/24/6
f 11/25/7 10/26/7 9/27/7 2/28/7
f 6/29/8 12/30/8 13/31/8 14/32/8
f 9/33/9 10/34/9 13/35/9 12/36/9
f 11/37/10 2/38/10 6/39/10 14/40/10
f 14/41/11 13/42/11 10/43/11 11/44/11
f 18/45/12 16/46/12 15/47/12 17/48/12
f 21/49/13 19/50/13 20/51/13 22/52/13
f 15/53/14 16/54/14 20/55/14 19/56/14
f 18/57/15 17/58/15 21/59/15 22/60/15
f 17/61/16 15/62/16 19/63/16 21/64/16
f 22/65/17 20/66/17 16/67/17 18/68/17
f 26/69/18 24/70/18 23/71/18 25/72/18
f 29/73/19 27/74/19 28/75/19 30/76/19
f 23/77/20 24/78/20 28/79/20 27/80/20
f 26/81/21 25/82/21 29/83/21 30/84/21
f 25/85/22 23/86/22 27/87/22 29/88/22
f 30/89/23 28/90/23 24/91/23 26/92/23