# Made in Blockbench 4.6.4
mtllib upgrades.mtl

o semi_automatic
v 0.1875 1.2812499999999998 0.5624999999999977
v 0.1875 1.2812499999999998 0.1249999999999983
v 0.1875 1.2499999999999998 0.5624999999999978
v 0.1875 1.2499999999999998 0.1249999999999983
v 0.15625 1.2812499999999998 0.5624999999999977
v 0.15625 1.2812499999999998 0.1249999999999983
v 0.15625 1.2499999999999998 0.5624999999999977
v 0.15625 1.2499999999999998 0.1249999999999983
v 0.03125 1.2812499999999998 0.5624999999999977
v 0.03125 1.2499999999999998 0.5624999999999977
v 0 1.2812499999999998 0.5624999999999977
v 0 1.2499999999999998 0.5624999999999978
v 0.03125 1.2812499999999998 0.1249999999999983
v 0.03125 1.2499999999999998 0.1249999999999983
v 0 1.2812499999999998 0.1249999999999983
v 0 1.2499999999999998 0.1249999999999983
v 0.1875 1.3749999999999998 1.0624999999999982
v 0.1875 1.3749999999999998 0.5624999999999978
v 0.1875 1.2499999999999998 1.0624999999999982
v 0 1.3749999999999998 1.0624999999999982
v 0 1.3749999999999998 0.5624999999999978
v 0 1.2499999999999998 1.0624999999999982
vt 0.46875 0.96875
vt 0.46875 0.9765625
vt 0.359375 0.9765625
vt 0.359375 0.96875
vt 0.46875 0.96875
vt 0.46875 0.9765625
vt 0.359375 0.9765625
vt 0.359375 0.96875
vt 0.359375 0.9765625
vt 0.46875 0.9765625
vt 0.46875 0.984375
vt 0.359375 0.984375
vt 0.46875 0.96875
vt 0.359375 0.96875
vt 0.359375 0.9765625
vt 0.46875 0.9765625
vt 0.46875 0.96875
vt 0.46875 0.9765625
vt 0.359375 0.9765625
vt 0.359375 0.96875
vt 0.46875 0.96875
vt 0.46875 0.9765625
vt 0.359375 0.9765625
vt 0.359375 0.96875
vt 0.359375 0.9765625
vt 0.46875 0.9765625
vt 0.46875 0.984375
vt 0.359375 0.984375
vt 0.46875 0.96875
vt 0.359375 0.96875
vt 0.359375 0.9765625
vt 0.46875 0.9765625
vt 0.3984375 0.59375
vt 0.3984375 0.625
vt 0.5234375 0.625
vt 0.5234375 0.59375
vt 0.5234375 0.59375
vt 0.5234375 0.625
vt 0.3984375 0.625
vt 0.3984375 0.59375
vt 0.5234375 0.671875
vt 0.3984375 0.671875
vt 0.3984375 0.625
vt 0.5234375 0.625
vt 0.5234375 0.671875
vt 0.5234375 0.625
vt 0.3984375 0.625
vt 0.3984375 0.671875
vt 0.9375 0.8125
vt 0.9375 0.84375
vt 0.890625 0.84375
vt 0.890625 0.8125
vt 0.9375 0.84375
vt 0.9375 0.875
vt 0.890625 0.875
vt 0.890625 0.84375
vn 1 0 0
vn -1 0 0
vn 0 1 0
vn 0 -1 0
vn 1 0 0
vn -1 0 0
vn 0 1 0
vn 0 -1 0
vn 1 0 0
vn -1 0 0
vn 0 1 0
vn 0 -1 0
vn 0 0 1
vn 0 4.440892098500626e-16 -1
usemtl m_84ddc615-b168-8719-d269-8168388d085e
f 4/1/1 2/2/1 1/3/1 3/4/1
f 7/5/2 5/6/2 6/7/2 8/8/2
f 1/9/3 2/10/3 6/11/3 5/12/3
f 4/13/4 3/14/4 7/15/4 8/16/4
f 14/17/5 13/18/5 9/19/5 10/20/5
f 12/21/6 11/22/6 15/23/6 16/24/6
f 9/25/7 13/26/7 15/27/7 11/28/7
f 14/29/8 10/30/8 12/31/8 16/32/8
f 3/33/9 18/34/9 17/35/9 19/36/9
f 22/37/10 20/38/10 21/39/10 12/40/10
f 17/41/11 18/42/11 21/43/11 20/44/11
f 3/45/12 19/46/12 22/47/12 12/48/12
f 19/49/13 17/50/13 20/51/13 22/52/13
f 12/53/14 21/54/14 18/55/14 3/56/14
o bolt_semiauto
v 0.28125 1.3437499999999998 0.18749999999999845
v 0.28125 1.3437499999999998 0.12499999999999778
v 0.28125 1.2812499999999998 0.18749999999999845
v 0.28125 1.2812499999999998 0.12499999999999778
v 0.15625 1.3437499999999998 0.18749999999999845
v 0.15625 1.3437499999999998 0.12499999999999778
v 0.15625 1.2812499999999998 0.18749999999999845
v 0.15625 1.2812499999999998 0.12499999999999778
v 0.15625000000000006 1.3437499999999993 0.5624999999999984
v 0.15625000000000006 1.3437499999999993 0.12499999999999778
v 0.15625000000000006 1.2187499999999993 0.5624999999999984
v 0.15625000000000006 1.2187499999999993 0.12499999999999778
v 0.03125 1.3437499999999993 0.5624999999999984
v 0.03125 1.3437499999999993 0.12499999999999778
v 0.03125 1.2187499999999993 0.5624999999999984
v 0.03125 1.2187499999999993 0.12499999999999778
vt 0.6640625 0.6171875
vt 0.6640625 0.6328125
vt 0.6328125 0.6328125
vt 0.6328125 0.6171875
vt 0.6328125 0.625
vt 0.6328125 0.609375
vt 0.6640625 0.609375
vt 0.6640625 0.625
vt 0.6328125 0.609375
vt 0.6328125 0.625
vt 0.6640625 0.625
vt 0.6640625 0.609375
vt 0.6328125 0.640625
vt 0.6328125 0.625
vt 0.6640625 0.625
vt 0.6640625 0.640625
vt 0.6328125 0.671875
vt 0.6328125 0.640625
vt 0.5234375 0.640625
vt 0.5234375 0.671875
vt 0.5234375 0.640625
vt 0.6328125 0.640625
vt 0.6328125 0.671875
vt 0.5234375 0.671875
vt 0.5234375 0.640625
vt 0.5234375 0.671875
vt 0.6328125 0.671875
vt 0.6328125 0.640625
vt 0.6640625 0.6171875
vt 0.6640625 0.6328125
vt 0.6796875 0.6328125
vt 0.6796875 0.6171875
vt 0.6796875 0.6328125
vt 0.6640625 0.6328125
vt 0.6640625 0.6171875
vt 0.6796875 0.6171875
vt 0.6640625 0.640625
vt 0.6640625 0.671875
vt 0.6328125 0.671875
vt 0.6328125 0.640625
vt 0.6640625 0.640625
vt 0.6640625 0.671875
vt 0.6328125 0.671875
vt 0.6328125 0.640625
vn 0 1 0
vn 0 -1 0
vn 0 0 1
vn 0 0 -1
vn 1 0 0
vn 0 1 0
vn -1 0 0
vn -1 0 0
vn 1 0 0
vn 0 0 -1
vn 0 0 1
usemtl m_84ddc615-b168-8719-d269-8168388d085e
f 23/57/15 24/58/15 28/59/15 27/60/15
f 26/61/16 25/62/16 29/63/16 30/64/16
f 25/65/17 23/66/17 27/67/17 29/68/17
f 30/69/18 28/70/18 24/71/18 26/72/18
f 34/73/19 32/74/19 31/75/19 33/76/19
f 31/77/20 32/78/20 36/79/20 35/80/20
f 37/81/21 35/82/21 36/83/21 38/84/21
f 29/85/22 27/86/22 28/87/22 30/88/22
f 26/89/23 24/90/23 23/91/23 25/92/23
f 38/93/24 36/94/24 32/95/24 34/96/24
f 33/97/25 31/98/25 35/99/25 37/100/25
o big_magazine
v 0.15586226583013524 1.178712394521575 0.5313809803008158
v 0.15687974992569007 1.197847604604952 0.0934249904043648
v 0.1556378419599031 0.4904940444393419 0.501310764654511
v 0.15667402804464392 0.5669807836962382 0.06586062606191867
v 0.030612609851158837 1.1787658496868452 0.5310923287923738
v 0.03163009394671366 1.197901059770222 0.09313633889592277
v 0.030388185980926685 0.4905474996046119 0.5010221131460689
v 0.031424372065667526 0.5670342388615082 0.06557197455347663
vt 0.03125 0.3359375
vt 0.03125 0.4921875
vt 0.140625 0.4921875
vt 0.140625 0.3203125
vt 0.140625 0.3203125
vt 0.140625 0.4921875
vt 0.03125 0.4921875
vt 0.03125 0.3359375
vt 0.140625 0.5234375
vt 0.03125 0.5234375
vt 0.03125 0.4921875
vt 0.140625 0.4921875
vt 0.03125 0.28125
vt 0.140625 0.28125
vt 0.140625 0.3125
vt 0.03125 0.3125
vt 0.171875 0.3203125
vt 0.171875 0.4921875
vt 0.140625 0.4921875
vt 0.140625 0.3203125
vt 0.03125 0.3359375
vt 0.03125 0.4921875
vt 0 0.4921875
vt 0 0.3359375
vn 0.9999972533251623 -0.0004267877466671084 0.0023046028618126883
vn -0.9999972533251623 0.0004267877466671084 -0.0023046028618126883
vn 0.0003257831540296135 0.999046779288308 0.043651193099335656
vn -0.00002165311147987883 -0.9849215864704371 -0.17300135269904662
vn -0.0023210358609747797 -0.04365032240291282 0.9990441742719157
vn 0.0023210358609747797 0.04365032240291282 -0.9990441742719157
usemtl m_84ddc615-b168-8719-d269-8168388d085e
f 42/101/26 40/102/26 39/103/26 41/104/26
f 45/105/27 43/106/27 44/107/27 46/108/27
f 39/109/28 40/110/28 44/111/28 43/112/28
f 42/113/29 41/114/29 45/115/29 46/116/29
f 41/117/30 39/118/30 43/119/30 45/120/30
f 46/121/31 44/122/31 40/123/31 42/124/31