# Made by Pabilo8 with Blockbench
# Exported with IIToolkit Plugin
mtllib flesh.mtl


o FL2
v 0.30000000000000004 0.0875 0.3125
v 0.30000000000000004 0.0875 0
v 0.30000000000000004 -0.025 0.3125
v 0.30000000000000004 -0.025 0
v 0.050000000000000044 0.0875 0.3125
v 0.050000000000000044 0.0875 -0.07291666666666666
v 0.050000000000000044 -0.025 0.3125
v 0.050000000000000044 -0.025 -0.07291666666666666
vt 0.375 0.875
vt 0.375 1
vt 0 1
vt 0 0.875
vt 0.375 0.875
vt 0.375 1
vt 0 1
vt 0 0.875
vt 0.25 0.625
vt 0.25 1
vt 0 1
vt 0 0.625
vt 0.25 0.625
vt 0.25 1
vt 0 1
vt 0 0.625
vt 0.25 0.875
vt 0.25 1
vt 0 1
vt 0 0.875
vt 0.25 0.875
vt 0.25 1
vt 0 1
vt 0 0.875
vn 1 0 0
vn -1 0 0
vn 0 1 0
vn 0 -1 0
vn 0 0 1
vn 0.27999999999999997 0 -0.96
usemtl slime
f 4/1/1 2/2/1 1/3/1 3/4/1
f 7/5/2 5/6/2 6/7/2 8/8/2
f 1/9/3 2/10/3 6/11/3 5/12/3
f 4/13/4 3/14/4 7/15/4 8/16/4
f 3/17/5 1/18/5 5/19/5 7/20/5
f 8/21/6 6/22/6 2/23/6 4/24/6
o FL3
v 0.19375 0.0625 0.4375
v 0.19375 0.0625 -0.1875
v 0.19375 0 0.4375
v 0.19375 0 -0.1875
v 0.13125 0.0625 0.4375
v 0.13125 0.0625 -0.125
v 0.13125 0 0.4375
v 0.13125 0 -0.125
vt 0.375 0.875
vt 0.375 1
vt 0 1
vt 0 0.875
vt 0.375 0.875
vt 0.375 1
vt 0 1
vt 0 0.875
vt 0.25 0.625
vt 0.25 1
vt 0 1
vt 0 0.625
vt 0.25 0.625
vt 0.25 1
vt 0 1
vt 0 0.625
vt 0.25 0.875
vt 0.25 1
vt 0 1
vt 0 0.875
vt 0.25 0.875
vt 0.25 1
vt 0 1
vt 0 0.875
vn 1 0 0
vn -1 0 0
vn 0 1 0
vn 0 -1 0
vn 0 0 1
vn -0.7071067811865476 0 -0.7071067811865476
usemtl slime
f 12/25/7 10/26/7 9/27/7 11/28/7
f 15/29/8 13/30/8 14/31/8 16/32/8
f 9/33/9 10/34/9 14/35/9 13/36/9
f 12/37/10 11/38/10 15/39/10 16/40/10
f 11/41/11 9/42/11 13/43/11 15/44/11
f 16/45/12 14/46/12 10/47/12 12/48/12