# Made by Pabilo8 with Blockbench
# Exported with IIToolkit Plugin
mtllib flesh.mtl


o FL3
v 0.174742496064218 0.05235125165326369 0.3125
v 0.174742496064218 0.05235125165326369 0
v 0.18556447676112314 0.0035364512972670195 0.3125
v 0.18556447676112314 0.0035364512972670195 0
v -0.09638645745802821 0.12027834905872964 0.3125
v -0.09638645745802821 0.12027834905872964 -0.07291666666666664
v -0.07203700088999163 0.010445048257737139 0.31249999999999956
v -0.07203700088999163 0.010445048257737139 -0.0729166666666662
vt 0.375 0.875
vt 0.375 1
vt 0 1
vt 0 0.875
vt 0.375 0.875
vt 0.375 1
vt 0 1
vt 0 0.875
vt 0.25 0.625
vt 0.25 1
vt 0 1
vt 0 0.625
vt 0.25 0.625
vt 0.25 1
vt 0 1
vt 0 0.625
vt 0.25 0.875
vt 0.25 1
vt 0 1
vt 0 0.875
vt 0.25 0.875
vt 0.25 1
vt 0 1
vt 0 0.875
vn 0.9762960071199334 0.21643961393810288 0
vn -0.9762960071199334 -0.21643961393810288 0
vn 0.24302337170059435 0.9700204331905977 0
vn -0.026809294110907662 -0.9996405662783374 0
vn 0 0 1
vn 0.2733628819935804 0.06060309190266472 -0.9600000000000007
usemtl slime
f 4/1/1 2/2/1 1/3/1 3/4/1
f 7/5/2 5/6/2 6/7/2 8/8/2
f 1/9/3 2/10/3 6/11/3 5/12/3
f 4/13/4 3/14/4 7/15/4 8/16/4
f 3/17/5 1/18/5 5/19/5 7/20/5
f 8/21/6 6/22/6 2/23/6 4/24/6