# Made by Pabilo8 with Blockbench
# Exported with IIToolkit Plugin
mtllib flesh.mtl


o FL4
v 0.10019651974809074 0.09984227622712809 0.1875
v 0.10019651974809074 0.09984227622712809 0.125
v 0.18556447676112314 0.0035364512972670195 0.3125
v 0.18556447676112314 0.0035364512972670195 0
v 0.039178019303094905 0.08631480035599665 0.1875
v 0.039178019303094905 0.08631480035599665 0.052083333333333356
v -0.07203700088999163 0.010445048257737139 0.31249999999999956
v -0.07203700088999163 0.010445048257737139 -0.0729166666666662
vt 0.375 0.875
vt 0.375 1
vt 0 1
vt 0 0.875
vt 0.375 0.875
vt 0.375 1
vt 0 1
vt 0 0.875
vt 0.25 0.625
vt 0.25 1
vt 0 1
vt 0 0.625
vt 0.25 0.625
vt 0.25 1
vt 0 1
vt 0 0.625
vt 0.25 0.875
vt 0.25 1
vt 0 1
vt 0 0.875
vt 0.25 0.875
vt 0.25 1
vt 0 1
vt 0 0.875
vn 0.7483238897362225 0.6633335179606483 0
vn -0.5635463709318157 0.8260844314049142 0
vn -0.216439613938103 0.9762960071199334 0
vn -0.026809294110907662 -0.9996405662783374 0
vn -0.16087829805618847 0.7256751070967283 0.6689647316224497
vn 0.7720681957839269 -0.09690280240399338 -0.6281087071082558
usemtl slime
f 4/1/1 2/2/1 1/3/1 3/4/1
f 7/5/2 5/6/2 6/7/2 8/8/2
f 1/9/3 2/10/3 6/11/3 5/12/3
f 4/13/4 3/14/4 7/15/4 8/16/4
f 3/17/5 1/18/5 5/19/5 7/20/5
f 8/21/6 6/22/6 2/23/6 4/24/6