# Made by Pabilo8 with Blockbench
# Exported with IIToolkit Plugin
mtllib upgrades.mtl


o folding_stock_moving
v 0.1340064683324118 1.6875 0.029596624200832256
v 0.10677029872376864 1.6875 0.3409074673545027
v 0.1340064683324118 1.625 0.029596624200832256
v 0.10677029872376864 1.625 0.3409074673545027
v 0.1962686369631459 1.6875 0.03504385812256089
v 0.16903246735450272 1.6875 0.34635470127623136
v 0.1962686369631459 1.625 0.03504385812256089
v 0.16903246735450272 1.625 0.34635470127623136
v 0.1340064683324118 1.5625 0.029596624200832256
v 0.10677029872376864 1.5625 0.3409074673545027
v 0.1340064683324118 1.5 0.029596624200832256
v 0.10677029872376864 1.5 0.3409074673545027
v 0.1962686369631459 1.5625 0.03504385812256089
v 0.1690324673545027 1.5625 0.34635470127623136
v 0.1962686369631459 1.5 0.03504385812256089
v 0.1690324673545027 1.5 0.34635470127623136
v -0.125 1.75 0.25
v -0.125 1.75 0.375
v -0.125 1.375 0.25
v -0.125 1.375 0.375
v 0.12499999999999997 1.75 0.25
v 0.125 1.75 0.37500000000000006
v 0.12499999999999997 1.375 0.25
v 0.125 1.375 0.37500000000000006
v -0.03125000000000003 1.75 0.375
v -0.03125 1.75 0.6875
v -0.03125000000000003 1.625 0.375
v -0.03125 1.625 0.6875
v 0.031249999999999986 1.75 0.37500000000000006
v 0.031249999999999972 1.75 0.6875
v 0.031249999999999986 1.625 0.37500000000000006
v 0.031249999999999972 1.625 0.6875
v -0.03125 1.3894579959690065 0.7800442150530909
v -0.03125000000000003 1.2705759314321123 0.7414170907562225
v -0.03125 1.5246529310080459 0.3639569891739612
v -0.03125000000000003 1.4057708664711517 0.3253298648770928
v 0.031249999999999972 1.3894579959690065 0.7800442150530909
v 0.03125 1.2705759314321123 0.7414170907562225
v 0.031249999999999972 1.5246529310080459 0.3639569891739612
v 0.031249999999999986 1.4057708664711517 0.3253298648770928
v -0.06250000000000003 1.78125 0.6875
v -0.06250000000000003 1.78125 0.8125
v -0.06250000000000003 1.21875 0.6875
v -0.06250000000000003 1.21875 0.8125
v 0.062499999999999986 1.78125 0.6875
v 0.0625 1.78125 0.8125
v 0.062499999999999986 1.21875 0.6875
v 0.0625 1.21875 0.8125
v -0.09375000000000003 1.75 0.8125000000000001
v -0.09375000000000003 1.75 0.8750000000000001
v -0.09375000000000003 1.25 0.8125000000000001
v -0.09375000000000003 1.25 0.8750000000000001
v 0.09374999999999999 1.75 0.8125000000000001
v 0.09374999999999999 1.75 0.875
v 0.09374999999999999 1.25 0.8125000000000001
v 0.09374999999999999 1.25 0.875
vt 0.171875 0.625
vt 0.1875 0.625
vt 0.1875 0.546875
vt 0.171875 0.546875
vt 0.203125 0.625
vt 0.21875 0.625
vt 0.21875 0.546875
vt 0.203125 0.546875
vt 0.171875 0.546875
vt 0.171875 0.625
vt 0.15625 0.625
vt 0.15625 0.546875
vt 0.203125 0.625
vt 0.203125 0.546875
vt 0.1875 0.546875
vt 0.1875 0.625
vt 0.171875 0.625
vt 0.171875 0.640625
vt 0.1875 0.640625
vt 0.1875 0.625
vt 0.171875 0.625
vt 0.171875 0.640625
vt 0.1875 0.640625
vt 0.1875 0.625
vt 0.171875 0.625
vt 0.1875 0.625
vt 0.1875 0.546875
vt 0.171875 0.546875
vt 0.203125 0.546875
vt 0.21875 0.546875
vt 0.21875 0.625
vt 0.203125 0.625
vt 0.171875 0.546875
vt 0.171875 0.625
vt 0.15625 0.625
vt 0.15625 0.546875
vt 0.203125 0.625
vt 0.203125 0.546875
vt 0.1875 0.546875
vt 0.1875 0.625
vt 0.171875 0.625
vt 0.171875 0.640625
vt 0.1875 0.640625
vt 0.1875 0.625
vt 0.171875 0.625
vt 0.171875 0.640625
vt 0.1875 0.640625
vt 0.1875 0.625
vt 0.0625 0.46875
vt 0.0625 0.5625
vt 0.09375 0.5625
vt 0.09375 0.46875
vt 0.09375 0.46875
vt 0.09375 0.5625
vt 0.0625 0.5625
vt 0.0625 0.46875
vt 0.0625 0.59375
vt 0.0625 0.5625
vt 0 0.5625
vt 0 0.59375
vt 0.0625 0.5625
vt 0.0625 0.59375
vt 0 0.59375
vt 0 0.5625
vt 0.09375 0.46875
vt 0.09375 0.5625
vt 0.15625 0.5625
vt 0.15625 0.46875
vt 0 0.46875
vt 0 0.5625
vt 0.0625 0.5625
vt 0.0625 0.46875
vt 0.25 0.578125
vt 0.21875 0.578125
vt 0.21875 0.5
vt 0.25 0.5
vt 0.25 0.5
vt 0.21875 0.5
vt 0.21875 0.578125
vt 0.25 0.578125
vt 0.265625 0.578125
vt 0.265625 0.5
vt 0.25 0.5
vt 0.25 0.578125
vt 0.265625 0.5
vt 0.265625 0.578125
vt 0.25 0.578125
vt 0.25 0.5
vt 0.21875 0.46875
vt 0.21875 0.578125
vt 0.25 0.578125
vt 0.25 0.46875
vt 0.21875 0.46875
vt 0.21875 0.578125
vt 0.25 0.578125
vt 0.25 0.46875
vt 0.25 0.46875
vt 0.25 0.578125
vt 0.265625 0.578125
vt 0.265625 0.46875
vt 0.25 0.46875
vt 0.25 0.578125
vt 0.265625 0.578125
vt 0.265625 0.46875
vt 0.265625 0.46875
vt 0.265625 0.609375
vt 0.296875 0.609375
vt 0.296875 0.46875
vt 0.265625 0.46875
vt 0.265625 0.609375
vt 0.296875 0.609375
vt 0.296875 0.46875
vt 0.265625 0.640625
vt 0.265625 0.609375
vt 0.296875 0.609375
vt 0.296875 0.640625
vt 0.265625 0.609375
vt 0.265625 0.640625
vt 0.234375 0.640625
vt 0.234375 0.609375
vt 0.296875 0.46875
vt 0.296875 0.609375
vt 0.265625 0.609375
vt 0.265625 0.46875
vt 0.296875 0.46875
vt 0.296875 0.609375
vt 0.265625 0.609375
vt 0.265625 0.46875
vt 0.34375 0.46875
vt 0.34375 0.59375
vt 0.359375 0.59375
vt 0.359375 0.46875
vt 0.359375 0.46875
vt 0.359375 0.59375
vt 0.34375 0.59375
vt 0.34375 0.46875
vt 0.34375 0.609375
vt 0.34375 0.59375
vt 0.296875 0.59375
vt 0.296875 0.609375
vt 0.390625 0.59375
vt 0.390625 0.609375
vt 0.34375 0.609375
vt 0.34375 0.59375
vt 0.359375 0.46875
vt 0.359375 0.59375
vt 0.40625 0.59375
vt 0.40625 0.46875
vt 0.296875 0.46875
vt 0.296875 0.59375
vt 0.34375 0.59375
vt 0.34375 0.46875
vn -0.9961946980917455 0 -0.08715574274765818
vn 0.9961946980917455 0 0.08715574274765818
vn 0 1 0
vn 0 -1 0
vn 0.08715574274765818 0 -0.9961946980917455
vn -0.08715574274765818 0 0.9961946980917455
vn -0.9961946980917455 0 -0.08715574274765818
vn 0.9961946980917455 0 0.08715574274765818
vn 0 1 0
vn 0 -1 0
vn 0.08715574274765818 0 -0.9961946980917455
vn -0.08715574274765818 0 0.9961946980917455
vn -1 0 -6.938893903907227e-17
vn 1 0 -1.6653345369377353e-16
vn 0 1 0
vn 0 -1 0
vn 4.163336342344336e-17 0 -1
vn -5.5511151231257815e-17 0 1
vn -1 0 6.938893903907228e-17
vn 1 0 2.7755575615628914e-17
vn 0 1 0
vn 0 -1 0
vn -1 6.344131569286611e-17 0
vn 1 1.586032892321653e-16 4.163336342344338e-17
vn 1.734723475976807e-17 0.9510565162951536 0.3090169943749472
vn -1.0408340855860846e-17 -0.9510565162951539 -0.3090169943749471
vn -1 0 -9.71445146547012e-17
vn 1 0 -1.3877787807814457e-17
vn 0 1 0
vn 0 -1 0
vn 5.551115123125783e-17 0 -1
vn -5.551115123125783e-17 0 1
vn -1 0 -2.7755575615628914e-17
vn 1 0 2.7755575615628914e-17
vn 0 1 0
vn 0 -1 0
vn 5.5511151231257815e-17 0 -1
vn -5.5511151231257815e-17 0 1
usemtl submachinegun
f 4/1/1 2/2/1 1/3/1 3/4/1
f 7/5/2 5/6/2 6/7/2 8/8/2
f 1/9/3 2/10/3 6/11/3 5/12/3
f 4/13/4 3/14/4 7/15/4 8/16/4
f 3/17/5 1/18/5 5/19/5 7/20/5
f 8/21/6 6/22/6 2/23/6 4/24/6
f 12/25/7 10/26/7 9/27/7 11/28/7
f 15/29/8 13/30/8 14/31/8 16/32/8
f 9/33/9 10/34/9 14/35/9 13/36/9
f 12/37/10 11/38/10 15/39/10 16/40/10
f 11/41/11 9/42/11 13/43/11 15/44/11
f 16/45/12 14/46/12 10/47/12 12/48/12
f 20/49/13 18/50/13 17/51/13 19/52/13
f 23/53/14 21/54/14 22/55/14 24/56/14
f 17/57/15 18/58/15 22/59/15 21/60/15
f 20/61/16 19/62/16 23/63/16 24/64/16
f 19/65/17 17/66/17 21/67/17 23/68/17
f 24/69/18 22/70/18 18/71/18 20/72/18
f 28/73/19 26/74/19 25/75/19 27/76/19
f 31/77/20 29/78/20 30/79/20 32/80/20
f 25/81/21 26/82/21 30/83/21 29/84/21
f 28/85/22 27/86/22 31/87/22 32/88/22
f 36/89/23 34/90/23 33/91/23 35/92/23
f 39/93/24 37/94/24 38/95/24 40/96/24
f 35/97/25 33/98/25 37/99/25 39/100/25
f 40/101/26 38/102/26 34/103/26 36/104/26
f 44/105/27 42/106/27 41/107/27 43/108/27
f 47/109/28 45/110/28 46/111/28 48/112/28
f 41/113/29 42/114/29 46/115/29 45/116/29
f 44/117/30 43/118/30 47/119/30 48/120/30
f 43/121/31 41/122/31 45/123/31 47/124/31
f 48/125/32 46/126/32 42/127/32 44/128/32
f 52/129/33 50/130/33 49/131/33 51/132/33
f 55/133/34 53/134/34 54/135/34 56/136/34
f 49/137/35 50/138/35 54/139/35 53/140/35
f 52/141/36 51/142/36 55/143/36 56/144/36
f 51/145/37 49/146/37 53/147/37 55/148/37
f 56/149/38 54/150/38 50/151/38 52/152/38
o folding_stock
v -0.15625 1.7506249999999999 0
v -0.15625 1.7506249999999999 0.0625
v -0.15625 1.4993750000000001 0
v -0.15625 1.4993750000000001 0.0625
v 0.15625 1.7506249999999999 0
v 0.15625 1.7506249999999999 0.0625
v 0.15625 1.4993750000000001 0
v 0.15625 1.4993750000000001 0.0625
v 0.140625 1.71875 0.0006250000000000006
v 0.140625 1.71875 0.063125
v 0.140625 1.46875 0.0006250000000000006
v 0.140625 1.46875 0.063125
v 0.203125 1.71875 0.0006250000000000006
v 0.203125 1.71875 0.063125
v 0.203125 1.46875 0.0006250000000000006
v 0.203125 1.46875 0.063125
vt 0.484375 0.46875
vt 0.484375 0.53125
vt 0.5 0.53125
vt 0.5 0.46875
vt 0.5 0.53125
vt 0.5 0.46875
vt 0.484375 0.46875
vt 0.484375 0.53125
vt 0.484375 0.546875
vt 0.484375 0.53125
vt 0.40625 0.53125
vt 0.40625 0.546875
vt 0.484375 0.53125
vt 0.484375 0.546875
vt 0.40625 0.546875
vt 0.40625 0.53125
vt 0.40625 0.46875
vt 0.40625 0.53125
vt 0.484375 0.53125
vt 0.484375 0.46875
vt 0.40625 0.46875
vt 0.40625 0.53125
vt 0.484375 0.53125
vt 0.484375 0.46875
vt 0.1875 0.46875
vt 0.1875 0.53125
vt 0.203125 0.53125
vt 0.203125 0.46875
vt 0.15625 0.46875
vt 0.15625 0.53125
vt 0.171875 0.53125
vt 0.171875 0.46875
vt 0.1875 0.546875
vt 0.1875 0.53125
vt 0.171875 0.53125
vt 0.171875 0.546875
vt 0.203125 0.53125
vt 0.203125 0.546875
vt 0.1875 0.546875
vt 0.1875 0.53125
vt 0.203125 0.46875
vt 0.203125 0.53125
vt 0.21875 0.53125
vt 0.21875 0.46875
vt 0.171875 0.46875
vt 0.171875 0.53125
vt 0.1875 0.53125
vt 0.1875 0.46875
vn -1 0 0
vn 1 0 0
vn 0 1 0
vn 0 -1 0
vn 0 0 -1
vn 0 0 1
vn -1 0 0
vn 1 0 0
vn 0 1 0
vn 0 -1 0
vn 0 0 -1
vn 0 0 1
usemtl submachinegun
f 60/153/39 58/154/39 57/155/39 59/156/39
f 63/157/40 61/158/40 62/159/40 64/160/40
f 57/161/41 58/162/41 62/163/41 61/164/41
f 60/165/42 59/166/42 63/167/42 64/168/42
f 59/169/43 57/170/43 61/171/43 63/172/43
f 64/173/44 62/174/44 58/175/44 60/176/44
f 68/177/45 66/178/45 65/179/45 67/180/45
f 71/181/46 69/182/46 70/183/46 72/184/46
f 65/185/47 66/186/47 70/187/47 69/188/47
f 68/189/48 67/190/48 71/191/48 72/192/48
f 67/193/49 65/194/49 69/195/49 71/196/49
f 72/197/50 70/198/50 66/199/50 68/200/50