# Made by Pabilo8 with Blockbench
# Exported with IIToolkit Plugin
mtllib upgrades.mtl

o sturdy_barrel
v -0.125 1.88125 -1.6875
v -0.125 1.88125 -0.8125
v -0.125 1.56875 -1.6875
v -0.125 1.56875 -0.8125
v 0.125 1.88125 -1.6875
v 0.125 1.88125 -0.8125
v 0.125 1.56875 -1.6875
v 0.125 1.56875 -0.8125
vt 0.78125 0.2890625
vt 0.78125 0.3671875
vt 1 0.3671875
vt 1 0.2890625
vt 1 0.3671875
vt 1 0.2890625
vt 0.78125 0.2890625
vt 0.78125 0.3671875
vt 1 0.296875
vt 0.78125 0.296875
vt 0.78125 0.359375
vt 1 0.359375
vt 0.78125 0.359375
vt 1 0.359375
vt 1 0.296875
vt 0.78125 0.296875
vt 0.78125 0.2890625
vt 0.78125 0.3671875
vt 0.71875 0.3671875
vt 0.71875 0.2890625
vn -1 0 0
vn 1 0 0
vn 0 1 0
vn 0 -1 0
vn 0 0 -1
usemtl submachinegun
f 4/1/1 2/2/1 1/3/1 3/4/1
f 7/5/2 5/6/2 6/7/2 8/8/2
f 1/9/3 2/10/3 6/11/3 5/12/3
f 4/13/4 3/14/4 7/15/4 8/16/4
f 3/17/5 1/18/5 5/19/5 7/20/5