# Made by Pabilo8 with Blockbench
# Exported with IIToolkit Plugin
mtllib circuit_racks.mtl

o light5
v -0.11875 1.7875 0.12187499999999996
v -0.11875 1.7875 0.023437499999999944
v -0.11875 1.7125 0.12187499999999996
v -0.11875 1.7125 0.023437499999999944
v -0.19375 1.7875 0.12187499999999996
v -0.19375 1.7875 0.023437499999999944
v -0.19375 1.7125 0.12187499999999996
v -0.19375 1.7125 0.023437499999999944
vt 0.6875 0.8125
vt 0.6875 0.8359375
vt 0.671875 0.8359375
vt 0.671875 0.8125
vt 0.6875 0.8125
vt 0.6875 0.8359375
vt 0.671875 0.8359375
vt 0.671875 0.8125
vt 0.6875 0.8125
vt 0.6875 0.8359375
vt 0.671875 0.8359375
vt 0.671875 0.8125
vt 0.6875 0.8125
vt 0.6875 0.8359375
vt 0.671875 0.8359375
vt 0.671875 0.8125
vt 0.6875 0.8125
vt 0.6875 0.828125
vt 0.671875 0.828125
vt 0.671875 0.8125
vn 1 0 0
vn -1 0 0
vn 0 1 0
vn 0 -1 0
vn 0 0 -1
usemtl arithmetic_logic_machine
f 4/1/1 2/2/1 1/3/1
f 4/1/1 1/3/1 3/4/1
f 7/5/2 5/6/2 6/7/2
f 7/5/2 6/7/2 8/8/2
f 1/9/3 2/10/3 6/11/3
f 1/9/3 6/11/3 5/12/3
f 4/13/4 3/14/4 7/15/4
f 4/13/4 7/15/4 8/16/4
f 8/17/5 6/18/5 2/19/5
f 8/17/5 2/19/5 4/20/5
o circuit5
v 0.021993732505151048 1.3411890935179922 0.08714967440978577
v 0.771993732505151 1.3411890935179922 0.08714967440978572
v 0.021993732505151076 1.373903634041992 0.8364358405961791
v 0.7719937325051511 1.3739036340419917 0.8364358405961791
v 0.02199373250515102 1.278748579669126 0.08987588612011904
v 0.771993732505151 1.278748579669126 0.08987588612011899
v 0.021993732505151076 1.3114631201931257 0.8391620523065124
v 0.771993732505151 1.3114631201931257 0.8391620523065124
v 0.334493732505151 1.4063558190771916 0.14686397654831873
v 0.7094937325051509 1.4063558190771916 0.14686397654831873
v 0.334493732505151 1.4158975600633572 0.3654057750193501
v 0.7094937325051509 1.4158975600633572 0.36540577501935023
v 0.334493732505151 1.3439153052283255 0.149590188258652
v 0.7094937325051509 1.3439153052283255 0.1495901882586521
v 0.334493732505151 1.3534570462144921 0.3681319867296833
v 0.7094937325051509 1.3534570462144915 0.3681319867296834
v 0.334493732505151 1.4172606659185243 0.3966260319437832
v 0.7094937325051509 1.4172606659185243 0.3966260319437832
v 0.3344937325051511 1.426802406904691 0.6151678304148145
v 0.7094937325051509 1.426802406904691 0.6151678304148145
v 0.334493732505151 1.3548201520696588 0.39935224365411637
v 0.7094937325051509 1.3548201520696588 0.3993522436541165
v 0.3344937325051511 1.3643618930558248 0.6178940421251478
v 0.7094937325051509 1.3643618930558243 0.6178940421251478
v 0.5844937325051509 1.4281655127598571 0.6463880873392476
v 0.7094937325051509 1.4281655127598571 0.6463880873392476
v 0.5844937325051509 1.4336179361805237 0.7712691150369797
v 0.7094937325051509 1.4336179361805237 0.7712691150369797
v 0.5844937325051509 1.3657249989109914 0.6491142990495808
v 0.7094937325051509 1.3657249989109914 0.6491142990495808
v 0.5844937325051509 1.3711774223316575 0.773995326747313
v 0.7094937325051509 1.3711774223316575 0.773995326747313
v 0.20949373250515096 1.4281655127598571 0.6463880873392476
v 0.334493732505151 1.4281655127598571 0.6463880873392476
v 0.209493732505151 1.4336179361805237 0.7712691150369797
v 0.33449373250515096 1.4336179361805237 0.7712691150369797
v 0.209493732505151 1.3657249989109914 0.6491142990495808
v 0.334493732505151 1.3657249989109914 0.6491142990495808
v 0.209493732505151 1.3711774223316575 0.773995326747313
v 0.33449373250515096 1.3711774223316575 0.773995326747313
v 0.396993732505151 1.4281655127598571 0.6463880873392476
v 0.5219937325051509 1.4281655127598571 0.6463880873392476
v 0.396993732505151 1.4336179361805237 0.7712691150369797
v 0.5219937325051509 1.4336179361805237 0.7712691150369797
v 0.396993732505151 1.3657249989109914 0.6491142990495808
v 0.5219937325051509 1.3657249989109914 0.6491142990495808
v 0.39699373250515096 1.3711774223316575 0.773995326747313
v 0.5219937325051509 1.3711774223316575 0.773995326747313
vt 0.75 0.25
vt 0.75 1
vt 0 1
vt 0 0.25
vt 0.75 0.25
vt 0.75 1
vt 0 1
vt 0 0.25
vt 0.75 0.25
vt 0.75 1
vt 0.6875 1
vt 0.6875 0.25
vt 0.75 0.25
vt 0.75 1
vt 0.6875 1
vt 0.6875 0.25
vt 0.0625 0.25
vt 0.0625 1
vt 0 1
vt 0 0.25
vt 0.75 0.25
vt 0.75 1
vt 0.6875 1
vt 0.6875 0.25
vt 0.75 0.625
vt 1 0.625
vt 1 1
vt 0.75 1
vt 1 0.625
vt 1 1
vt 0.9375 1
vt 0.9375 0.625
vt 0.8125 0.6249976918314881
vt 0.8124630096199245 1
vt 0.7499626249251723 0.9999938349366541
vt 0.7500006421907992 0.6249976918314881
vt 0.75 0.9375
vt 1 0.9375
vt 1 1
vt 0.75 1
vt 0.75 0.625
vt 1 0.625
vt 1 0.6875
vt 0.75 0.6875
vt 0.75 0.625
vt 1 0.625
vt 1 1
vt 0.75 1
vt 1 0.625
vt 1 1
vt 0.9375 1
vt 0.9375 0.625
vt 0.8125 0.6249976918314881
vt 0.8124630096199245 1
vt 0.7499626249251723 0.9999938349366541
vt 0.7500006421907992 0.6249976918314881
vt 0.75 0.9375
vt 1 0.9375
vt 1 1
vt 0.75 1
vt 0.75 0.625
vt 1 0.625
vt 1 0.6875
vt 0.75 0.6875
vt 1 0.125
vt 1 0.25
vt 0.875 0.25
vt 0.875 0.125
vt 0.875 0.25
vt 0.875 0.125
vt 0.9375 0.125
vt 0.9375 0.25
vt 0.9375 0.125
vt 0.9375 0.25
vt 0.875 0.25
vt 0.875 0.125
vt 1 0.125
vt 1 0.25
vt 0.9375 0.25
vt 0.9375 0.125
vt 1 0.125
vt 1 0.25
vt 0.9375 0.25
vt 0.9375 0.125
vt 0.875 0.125
vt 0.875 0.25
vt 0.75 0.25
vt 0.75 0.125
vt 0.75 0.25
vt 0.75 0.125
vt 0.8125 0.125
vt 0.8125 0.25
vt 0.8125 0.125
vt 0.8125 0.25
vt 0.75 0.25
vt 0.75 0.125
vt 0.875 0.125
vt 0.875 0.25
vt 0.8125 0.25
vt 0.8125 0.125
vt 0.875 0.125
vt 0.875 0.25
vt 0.8125 0.25
vt 0.8125 0.125
vt 0.75 0.125
vt 0.75 0.25
vt 0.625 0.25
vt 0.625 0.125
vt 0.625 0.25
vt 0.625 0.125
vt 0.6875 0.125
vt 0.6875 0.25
vt 0.6875 0.125
vt 0.6875 0.25
vt 0.625 0.25
vt 0.625 0.125
vt 0.75 0.125
vt 0.75 0.25
vt 0.6875 0.25
vt 0.6875 0.125
vt 0.75 0.125
vt 0.75 0.25
vt 0.6875 0.25
vt 0.6875 0.125
vn 5.0615592098246085e-17 0.9990482215818579 -0.043619387365332773
vn -5.0615592098246085e-17 -0.9990482215818579 0.043619387365332773
vn -1.133379962397512e-16 -0.04361938736533283 -0.9990482215818579
vn 1.133379962397512e-16 0.04361938736533283 0.9990482215818579
vn -1 1.133379962397512e-16 5.0615592098246085e-17
vn 1 -1.133379962397512e-16 -5.0615592098246085e-17
vn 5.061559209824655e-17 0.9990482215818581 -0.043619387365328714
vn -1.133379962397513e-16 -0.043619387365334605 -0.9990482215818578
vn -1.8272147699362416e-16 0.04361938736533105 0.999048221581858
vn -1 1.133379962397512e-16 5.0615592098246085e-17
vn 1 -9.119982564636232e-17 4.564318768439231e-16
vn 5.0615592098246085e-17 0.9990482215818579 -0.043619387365332773
vn -1.133379962397512e-16 -0.04361938736533283 -0.9990482215818579
vn 1.133379962397512e-16 0.04361938736533283 0.9990482215818579
vn -1 1.133379962397512e-16 5.0615592098246085e-17
vn 1 -1.133379962397512e-16 -5.0615592098246085e-17
vn 5.0615592098246085e-17 0.9990482215818579 -0.043619387365332773
vn -1.133379962397512e-16 -0.04361938736533283 -0.9990482215818579
vn 1.133379962397512e-16 0.04361938736533283 0.9990482215818579
vn -1 1.133379962397512e-16 5.0615592098246085e-17
vn 1 -1.133379962397512e-16 -5.0615592098246085e-17
vn 5.0615592098246085e-17 0.9990482215818579 -0.043619387365332773
vn -1.133379962397512e-16 -0.04361938736533283 -0.9990482215818579
vn 1.133379962397512e-16 0.04361938736533283 0.9990482215818579
vn -1 -3.206430894500423e-16 2.9181975902965945e-16
vn 1 -9.396709697053673e-17 3.9305094322615147e-16
vn 5.0615592098246085e-17 0.9990482215818579 -0.043619387365332773
vn -1.133379962397512e-16 -0.04361938736533283 -0.9990482215818579
vn 1.133379962397512e-16 0.04361938736533283 0.9990482215818579
vn -1 1.133379962397512e-16 5.0615592098246085e-17
vn 1 -1.133379962397512e-16 -5.0615592098246085e-17
usemtl circuit5
f 12/21/6 10/22/6 9/23/6
f 12/21/6 9/23/6 11/24/6
f 15/25/7 13/26/7 14/27/7
f 15/25/7 14/27/7 16/28/7
f 9/29/8 10/30/8 14/31/8
f 9/29/8 14/31/8 13/32/8
f 12/33/9 11/34/9 15/35/9
f 12/33/9 15/35/9 16/36/9
f 11/37/10 9/38/10 13/39/10
f 11/37/10 13/39/10 15/40/10
f 16/41/11 14/42/11 10/43/11
f 16/41/11 10/43/11 12/44/11
f 20/45/12 18/46/12 17/47/12
f 20/45/12 17/47/12 19/48/12
f 17/49/13 18/50/13 22/51/13
f 17/49/13 22/51/13 21/52/13
f 20/53/14 19/54/14 23/55/14
f 20/53/14 23/55/14 24/56/14
f 19/57/15 17/58/15 21/59/15
f 19/57/15 21/59/15 23/60/15
f 24/61/16 22/62/16 18/63/16
f 24/61/16 18/63/16 20/64/16
f 28/65/17 26/66/17 25/67/17
f 28/65/17 25/67/17 27/68/17
f 25/69/18 26/70/18 30/71/18
f 25/69/18 30/71/18 29/72/18
f 28/73/19 27/74/19 31/75/19
f 28/73/19 31/75/19 32/76/19
f 27/77/20 25/78/20 29/79/20
f 27/77/20 29/79/20 31/80/20
f 32/81/21 30/82/21 26/83/21
f 32/81/21 26/83/21 28/84/21
f 36/85/22 34/86/22 33/87/22
f 36/85/22 33/87/22 35/88/22
f 33/89/23 34/90/23 38/91/23
f 33/89/23 38/91/23 37/92/23
f 36/93/24 35/94/24 39/95/24
f 36/93/24 39/95/24 40/96/24
f 35/97/25 33/98/25 37/99/25
f 35/97/25 37/99/25 39/100/25
f 40/101/26 38/102/26 34/103/26
f 40/101/26 34/103/26 36/104/26
f 44/105/27 42/106/27 41/107/27
f 44/105/27 41/107/27 43/108/27
f 41/109/28 42/110/28 46/111/28
f 41/109/28 46/111/28 45/112/28
f 44/113/29 43/114/29 47/115/29
f 44/113/29 47/115/29 48/116/29
f 43/117/30 41/118/30 45/119/30
f 43/117/30 45/119/30 47/120/30
f 48/121/31 46/122/31 42/123/31
f 48/121/31 42/123/31 44/124/31
f 52/125/32 50/126/32 49/127/32
f 52/125/32 49/127/32 51/128/32
f 49/129/33 50/130/33 54/131/33
f 49/129/33 54/131/33 53/132/33
f 52/133/34 51/134/34 55/135/34
f 52/133/34 55/135/34 56/136/34
f 51/137/35 49/138/35 53/139/35
f 51/137/35 53/139/35 55/140/35
f 56/141/36 54/142/36 50/143/36
f 56/141/36 50/143/36 52/144/36
o light6
v -0.2125 1.7875 0.12187499999999996
v -0.2125 1.7875 0.023437499999999944
v -0.2125 1.7125 0.12187499999999996
v -0.2125 1.7125 0.023437499999999944
v -0.2875 1.7875 0.12187499999999996
v -0.2875 1.7875 0.023437499999999944
v -0.2875 1.7125 0.12187499999999996
v -0.2875 1.7125 0.023437499999999944
vt 0.6875 0.8125
vt 0.6875 0.8359375
vt 0.671875 0.8359375
vt 0.671875 0.8125
vt 0.6875 0.8125
vt 0.6875 0.8359375
vt 0.671875 0.8359375
vt 0.671875 0.8125
vt 0.6875 0.8125
vt 0.6875 0.8359375
vt 0.671875 0.8359375
vt 0.671875 0.8125
vt 0.6875 0.8125
vt 0.6875 0.8359375
vt 0.671875 0.8359375
vt 0.671875 0.8125
vt 0.6875 0.8125
vt 0.6875 0.828125
vt 0.671875 0.828125
vt 0.671875 0.8125
vn 1 0 0
vn -1 0 0
vn 0 1 0
vn 0 -1 0
vn 0 0 -1
usemtl arithmetic_logic_machine
f 60/145/37 58/146/37 57/147/37
f 60/145/37 57/147/37 59/148/37
f 63/149/38 61/150/38 62/151/38
f 63/149/38 62/151/38 64/152/38
f 57/153/39 58/154/39 62/155/39
f 57/153/39 62/155/39 61/156/39
f 60/157/40 59/158/40 63/159/40
f 60/157/40 63/159/40 64/160/40
f 64/161/41 62/162/41 58/163/41
f 64/161/41 58/163/41 60/164/41
o circuit6
v 0.021993732505151048 1.5286890935179922 0.08714967440978577
v 0.771993732505151 1.5286890935179922 0.08714967440978572
v 0.021993732505151076 1.561403634041992 0.8364358405961791
v 0.7719937325051511 1.5614036340419917 0.8364358405961791
v 0.02199373250515102 1.466248579669126 0.08987588612011904
v 0.771993732505151 1.466248579669126 0.08987588612011899
v 0.021993732505151076 1.4989631201931257 0.8391620523065124
v 0.771993732505151 1.4989631201931257 0.8391620523065124
v 0.334493732505151 1.5938558190771916 0.14686397654831873
v 0.7094937325051509 1.5938558190771916 0.14686397654831873
v 0.334493732505151 1.6033975600633572 0.3654057750193501
v 0.7094937325051509 1.6033975600633572 0.36540577501935023
v 0.334493732505151 1.5314153052283255 0.149590188258652
v 0.7094937325051509 1.5314153052283255 0.1495901882586521
v 0.334493732505151 1.5409570462144921 0.3681319867296833
v 0.7094937325051509 1.5409570462144915 0.3681319867296834
v 0.334493732505151 1.6047606659185243 0.3966260319437832
v 0.7094937325051509 1.6047606659185243 0.3966260319437832
v 0.3344937325051511 1.614302406904691 0.6151678304148145
v 0.7094937325051509 1.614302406904691 0.6151678304148145
v 0.334493732505151 1.5423201520696588 0.39935224365411637
v 0.7094937325051509 1.5423201520696588 0.3993522436541165
v 0.3344937325051511 1.5518618930558248 0.6178940421251478
v 0.7094937325051509 1.5518618930558243 0.6178940421251478
v 0.5844937325051509 1.6156655127598571 0.6463880873392476
v 0.7094937325051509 1.6156655127598571 0.6463880873392476
v 0.5844937325051509 1.6211179361805237 0.7712691150369797
v 0.7094937325051509 1.6211179361805237 0.7712691150369797
v 0.5844937325051509 1.5532249989109914 0.6491142990495808
v 0.7094937325051509 1.5532249989109914 0.6491142990495808
v 0.5844937325051509 1.5586774223316575 0.773995326747313
v 0.7094937325051509 1.5586774223316575 0.773995326747313
v 0.20949373250515096 1.6156655127598571 0.6463880873392476
v 0.334493732505151 1.6156655127598571 0.6463880873392476
v 0.209493732505151 1.6211179361805237 0.7712691150369797
v 0.33449373250515096 1.6211179361805237 0.7712691150369797
v 0.209493732505151 1.5532249989109914 0.6491142990495808
v 0.334493732505151 1.5532249989109914 0.6491142990495808
v 0.209493732505151 1.5586774223316575 0.773995326747313
v 0.33449373250515096 1.5586774223316575 0.773995326747313
v 0.396993732505151 1.6156655127598571 0.6463880873392476
v 0.5219937325051509 1.6156655127598571 0.6463880873392476
v 0.396993732505151 1.6211179361805237 0.7712691150369797
v 0.5219937325051509 1.6211179361805237 0.7712691150369797
v 0.396993732505151 1.5532249989109914 0.6491142990495808
v 0.5219937325051509 1.5532249989109914 0.6491142990495808
v 0.39699373250515096 1.5586774223316575 0.773995326747313
v 0.5219937325051509 1.5586774223316575 0.773995326747313
vt 0.75 0.25
vt 0.75 1
vt 0 1
vt 0 0.25
vt 0.75 0.25
vt 0.75 1
vt 0 1
vt 0 0.25
vt 0.75 0.25
vt 0.75 1
vt 0.6875 1
vt 0.6875 0.25
vt 0.75 0.25
vt 0.75 1
vt 0.6875 1
vt 0.6875 0.25
vt 0.0625 0.25
vt 0.0625 1
vt 0 1
vt 0 0.25
vt 0.75 0.25
vt 0.75 1
vt 0.6875 1
vt 0.6875 0.25
vt 0.75 0.625
vt 1 0.625
vt 1 1
vt 0.75 1
vt 1 0.625
vt 1 1
vt 0.9375 1
vt 0.9375 0.625
vt 0.8125 0.6249976918314881
vt 0.8124630096199245 1
vt 0.7499626249251723 0.9999938349366541
vt 0.7500006421907992 0.6249976918314881
vt 0.75 0.9375
vt 1 0.9375
vt 1 1
vt 0.75 1
vt 0.75 0.625
vt 1 0.625
vt 1 0.6875
vt 0.75 0.6875
vt 0.75 0.625
vt 1 0.625
vt 1 1
vt 0.75 1
vt 1 0.625
vt 1 1
vt 0.9375 1
vt 0.9375 0.625
vt 0.8125 0.6249976918314881
vt 0.8124630096199245 1
vt 0.7499626249251723 0.9999938349366541
vt 0.7500006421907992 0.6249976918314881
vt 0.75 0.9375
vt 1 0.9375
vt 1 1
vt 0.75 1
vt 0.75 0.625
vt 1 0.625
vt 1 0.6875
vt 0.75 0.6875
vt 1 0.125
vt 1 0.25
vt 0.875 0.25
vt 0.875 0.125
vt 0.875 0.25
vt 0.875 0.125
vt 0.9375 0.125
vt 0.9375 0.25
vt 0.9375 0.125
vt 0.9375 0.25
vt 0.875 0.25
vt 0.875 0.125
vt 1 0.125
vt 1 0.25
vt 0.9375 0.25
vt 0.9375 0.125
vt 1 0.125
vt 1 0.25
vt 0.9375 0.25
vt 0.9375 0.125
vt 0.875 0.125
vt 0.875 0.25
vt 0.75 0.25
vt 0.75 0.125
vt 0.75 0.25
vt 0.75 0.125
vt 0.8125 0.125
vt 0.8125 0.25
vt 0.8125 0.125
vt 0.8125 0.25
vt 0.75 0.25
vt 0.75 0.125
vt 0.875 0.125
vt 0.875 0.25
vt 0.8125 0.25
vt 0.8125 0.125
vt 0.875 0.125
vt 0.875 0.25
vt 0.8125 0.25
vt 0.8125 0.125
vt 0.75 0.125
vt 0.75 0.25
vt 0.625 0.25
vt 0.625 0.125
vt 0.625 0.25
vt 0.625 0.125
vt 0.6875 0.125
vt 0.6875 0.25
vt 0.6875 0.125
vt 0.6875 0.25
vt 0.625 0.25
vt 0.625 0.125
vt 0.75 0.125
vt 0.75 0.25
vt 0.6875 0.25
vt 0.6875 0.125
vt 0.75 0.125
vt 0.75 0.25
vt 0.6875 0.25
vt 0.6875 0.125
vn 5.0615592098246085e-17 0.9990482215818579 -0.043619387365332773
vn -5.0615592098246085e-17 -0.9990482215818579 0.043619387365332773
vn -1.133379962397512e-16 -0.04361938736533283 -0.9990482215818579
vn 1.133379962397512e-16 0.04361938736533283 0.9990482215818579
vn -1 1.133379962397512e-16 5.0615592098246085e-17
vn 1 -1.133379962397512e-16 -5.0615592098246085e-17
vn 5.061559209824655e-17 0.9990482215818581 -0.043619387365328714
vn -1.133379962397513e-16 -0.043619387365334605 -0.9990482215818578
vn -1.8272147699362416e-16 0.04361938736533105 0.999048221581858
vn -1 1.133379962397512e-16 5.0615592098246085e-17
vn 1 -9.119982564636232e-17 4.564318768439231e-16
vn 5.0615592098246085e-17 0.9990482215818579 -0.043619387365332773
vn -1.133379962397512e-16 -0.04361938736533283 -0.9990482215818579
vn 1.133379962397512e-16 0.04361938736533283 0.9990482215818579
vn -1 1.133379962397512e-16 5.0615592098246085e-17
vn 1 -1.133379962397512e-16 -5.0615592098246085e-17
vn 5.0615592098246085e-17 0.9990482215818579 -0.043619387365332773
vn -1.133379962397512e-16 -0.04361938736533283 -0.9990482215818579
vn 1.133379962397512e-16 0.04361938736533283 0.9990482215818579
vn -1 1.133379962397512e-16 5.0615592098246085e-17
vn 1 -1.133379962397512e-16 -5.0615592098246085e-17
vn 5.0615592098246085e-17 0.9990482215818579 -0.043619387365332773
vn -1.133379962397512e-16 -0.04361938736533283 -0.9990482215818579
vn 1.133379962397512e-16 0.04361938736533283 0.9990482215818579
vn -1 -3.206430894500423e-16 2.9181975902965945e-16
vn 1 -9.396709697053673e-17 3.9305094322615147e-16
vn 5.0615592098246085e-17 0.9990482215818579 -0.043619387365332773
vn -1.133379962397512e-16 -0.04361938736533283 -0.9990482215818579
vn 1.133379962397512e-16 0.04361938736533283 0.9990482215818579
vn -1 1.133379962397512e-16 5.0615592098246085e-17
vn 1 -1.133379962397512e-16 -5.0615592098246085e-17
usemtl circuit6
f 68/165/42 66/166/42 65/167/42
f 68/165/42 65/167/42 67/168/42
f 71/169/43 69/170/43 70/171/43
f 71/169/43 70/171/43 72/172/43
f 65/173/44 66/174/44 70/175/44
f 65/173/44 70/175/44 69/176/44
f 68/177/45 67/178/45 71/179/45
f 68/177/45 71/179/45 72/180/45
f 67/181/46 65/182/46 69/183/46
f 67/181/46 69/183/46 71/184/46
f 72/185/47 70/186/47 66/187/47
f 72/185/47 66/187/47 68/188/47
f 76/189/48 74/190/48 73/191/48
f 76/189/48 73/191/48 75/192/48
f 73/193/49 74/194/49 78/195/49
f 73/193/49 78/195/49 77/196/49
f 76/197/50 75/198/50 79/199/50
f 76/197/50 79/199/50 80/200/50
f 75/201/51 73/202/51 77/203/51
f 75/201/51 77/203/51 79/204/51
f 80/205/52 78/206/52 74/207/52
f 80/205/52 74/207/52 76/208/52
f 84/209/53 82/210/53 81/211/53
f 84/209/53 81/211/53 83/212/53
f 81/213/54 82/214/54 86/215/54
f 81/213/54 86/215/54 85/216/54
f 84/217/55 83/218/55 87/219/55
f 84/217/55 87/219/55 88/220/55
f 83/221/56 81/222/56 85/223/56
f 83/221/56 85/223/56 87/224/56
f 88/225/57 86/226/57 82/227/57
f 88/225/57 82/227/57 84/228/57
f 92/229/58 90/230/58 89/231/58
f 92/229/58 89/231/58 91/232/58
f 89/233/59 90/234/59 94/235/59
f 89/233/59 94/235/59 93/236/59
f 92/237/60 91/238/60 95/239/60
f 92/237/60 95/239/60 96/240/60
f 91/241/61 89/242/61 93/243/61
f 91/241/61 93/243/61 95/244/61
f 96/245/62 94/246/62 90/247/62
f 96/245/62 90/247/62 92/248/62
f 100/249/63 98/250/63 97/251/63
f 100/249/63 97/251/63 99/252/63
f 97/253/64 98/254/64 102/255/64
f 97/253/64 102/255/64 101/256/64
f 100/257/65 99/258/65 103/259/65
f 100/257/65 103/259/65 104/260/65
f 99/261/66 97/262/66 101/263/66
f 99/261/66 101/263/66 103/264/66
f 104/265/67 102/266/67 98/267/67
f 104/265/67 98/267/67 100/268/67
f 108/269/68 106/270/68 105/271/68
f 108/269/68 105/271/68 107/272/68
f 105/273/69 106/274/69 110/275/69
f 105/273/69 110/275/69 109/276/69
f 108/277/70 107/278/70 111/279/70
f 108/277/70 111/279/70 112/280/70
f 107/281/71 105/282/71 109/283/71
f 107/281/71 109/283/71 111/284/71
f 112/285/72 110/286/72 106/287/72
f 112/285/72 106/287/72 108/288/72
o additional_racks_upgrade
v 0.9375 1.9375 0.90625
v 0.9375 0.3125 0.90625
v -0.9375 1.9375 0.90625
v -0.9375 0.3125 0.90625
v -0.062499998137354906 1.3749999999091633 0.9375000132201906
v 0.8125000018626447 1.3749999999091633 0.9374999871431584
v -0.062499998137354906 1.2499999999091633 0.9375000130385158
v 0.8125000018626447 1.2499999999091633 0.9374999869614837
v -0.0625000018626452 1.3750000000908384 0.8125000132201907
v 0.8124999981373544 1.3750000000908384 0.8124999871431585
v -0.0625000018626452 1.2500000000908384 0.8125000130385158
v 0.8124999981373544 1.2500000000908384 0.8124999869614837
v -0.062499998137354906 1.5624999999091633 0.9375000134927028
v 0.8125000018626447 1.5624999999091633 0.9374999874156706
v -0.062499998137354906 1.4374999999091633 0.9375000133110281
v 0.8125000018626447 1.4374999999091633 0.9374999872339959
v -0.0625000018626452 1.5625000000908384 0.812500013492703
v 0.8124999981373544 1.5625000000908384 0.8124999874156706
v -0.0625000018626452 1.4375000000908384 0.8125000133110281
v 0.8124999981373544 1.4375000000908384 0.812499987233996
v -0.125 1.78125 0.12187499999999996
v -0.125 1.78125 0.028124999999999956
v -0.125 1.71875 0.12187499999999996
v -0.125 1.71875 0.028124999999999956
v -0.1875 1.78125 0.12187499999999996
v -0.1875 1.78125 0.028124999999999956
v -0.1875 1.71875 0.12187499999999996
v -0.1875 1.71875 0.028124999999999956
v -0.21875 1.78125 0.12187499999999996
v -0.21875 1.78125 0.028124999999999956
v -0.21875 1.71875 0.12187499999999996
v -0.21875 1.71875 0.028124999999999956
v -0.28125 1.78125 0.12187499999999996
v -0.28125 1.78125 0.028124999999999956
v -0.28125 1.71875 0.12187499999999996
v -0.28125 1.71875 0.028124999999999956
v 0.9375 1.9375 0.5656249999999998
v 0.9375 1.9375 0.37187499999999973
v 0.9375 1.8734375 0.5656249999999998
v 0.9375 1.8734375 0.37187499999999973
v 0 1.9375 0.565625
v 0 1.9375 0.37187499999999996
v 0 1.8734375 0.565625
v 0 1.8734375 0.37187499999999996
v 0.9375000000000002 0.875 0.565625
v 0.9375000000000002 0.875 0.37187499999999996
v 0.8734375000000002 0.875 0.5656249999999998
v 0.8734375000000002 0.875 0.37187499999999973
v 0.8734375 1.875 0.5656249999999998
v 0.8734375 1.875 0.37187499999999996
v 0.9375000000000004 0.3125 0.5656249999999998
v 0.9375000000000002 0.3125 0.37187499999999996
v 0.8734375000000004 0.3125 0.5656249999999998
v 0.8734375000000002 0.3125 0.37187499999999973
v 0.9375 1.9375 0.7453124999999998
v 0.9375 1.8734375 0.9421874999999997
v 0.9375 1.8734375 0.7453124999999998
v 5.551115123125783e-17 1.9375 0.7453125
v 0 1.8734375 0.9421875
v 5.551115123125783e-17 1.8734375 0.7453125
v 0.9375000000000002 0.875 0.7453125
v 0.8718750000000002 0.875 0.9421874999999997
v 0.8718750000000002 0.875 0.7453125
v 0.871875 1.875 0.9421875
v 0.8718750000000002 1.875 0.7453125
v 0.9375000000000002 0.3125 0.7453125
v 0.8718750000000002 0.3125 0.9421874999999997
v 0.8718750000000002 0.3125 0.7453125
v -0.9375 1.125 0.90625
v 0.9375 1.125 0.90625
v 0 1.125 0.90625
v 0 1.9375 0.90625
v 0 0.3125 0.90625
vt 0.7500000000000002 1
vt 0.5156250000000001 1
vt 0.5156250000000001 0.796875
vt 0.7500000000000002 0.796875
vt 0.515625 1
vt 0.484375 1
vt 0.484375 0.78125
vt 0.515625 0.78125
vt 0.46875 1
vt 0.46875 0.78125
vt 0.5 0.78125
vt 0.5 1
vt 0.53125 0.78125
vt 0.53125 1
vt 0.5 1
vt 0.5 0.78125
vt 0.515625 0.796875
vt 0.515625 0.765625
vt 0.484375 0.765625
vt 0.484375 0.796875
vt 0.515625 0.796875
vt 0.484375 0.796875
vt 0.484375 0.765625
vt 0.515625 0.765625
vt 0.515625 1
vt 0.484375 1
vt 0.484375 0.78125
vt 0.515625 0.78125
vt 0.46875 1
vt 0.46875 0.78125
vt 0.5 0.78125
vt 0.5 1
vt 0.53125 0.78125
vt 0.53125 1
vt 0.5 1
vt 0.5 0.78125
vt 0.515625 0.796875
vt 0.515625 0.765625
vt 0.484375 0.765625
vt 0.484375 0.796875
vt 0.515625 0.796875
vt 0.484375 0.796875
vt 0.484375 0.765625
vt 0.515625 0.765625
vt 0.671875 0.8125
vt 0.671875 0.8359375
vt 0.65625 0.8359375
vt 0.65625 0.8125
vt 0.671875 0.8125
vt 0.671875 0.8359375
vt 0.65625 0.8359375
vt 0.65625 0.8125
vt 0.671875 0.8125
vt 0.671875 0.8359375
vt 0.65625 0.8359375
vt 0.65625 0.8125
vt 0.671875 0.8125
vt 0.671875 0.8359375
vt 0.65625 0.8359375
vt 0.65625 0.8125
vt 0.671875 0.8125
vt 0.671875 0.828125
vt 0.65625 0.828125
vt 0.65625 0.8125
vt 0.671875 0.8125
vt 0.671875 0.8359375
vt 0.65625 0.8359375
vt 0.65625 0.8125
vt 0.671875 0.8125
vt 0.671875 0.8359375
vt 0.65625 0.8359375
vt 0.65625 0.8125
vt 0.671875 0.8125
vt 0.671875 0.8359375
vt 0.65625 0.8359375
vt 0.65625 0.8125
vt 0.671875 0.8125
vt 0.671875 0.8359375
vt 0.65625 0.8359375
vt 0.65625 0.8125
vt 0.671875 0.8125
vt 0.671875 0.828125
vt 0.65625 0.828125
vt 0.65625 0.8125
vt 0.65625 0.640625
vt 0.703125 0.640625
vt 0.703125 0.40625
vt 0.65625 0.40625
vt 0.703125 0.640625
vt 0.65625 0.640625
vt 0.65625 0.40625
vt 0.703125 0.40625
vt 0.703125 0.640625
vt 0.6875 0.640625
vt 0.6875 0.40625
vt 0.703125 0.40625
vt 0.671875 0.40625
vt 0.65625 0.40625
vt 0.65625 0.640625
vt 0.671875 0.640625
vt 0.65625 0.640625
vt 0.703125 0.640625
vt 0.703125 0.390625
vt 0.65625 0.390625
vt 0.703125 0.640625
vt 0.65625 0.640625
vt 0.65625 0.390625
vt 0.703125 0.390625
vt 0.703125 0.640625
vt 0.6875 0.640625
vt 0.6875 0.390625
vt 0.703125 0.390625
vt 0.671875 0.390625
vt 0.65625 0.390625
vt 0.65625 0.640625
vt 0.671875 0.640625
vt 0.65625 0.5
vt 0.703125 0.5
vt 0.703125 0.640625
vt 0.65625 0.640625
vt 0.703125 0.5
vt 0.65625 0.5
vt 0.65625 0.640625
vt 0.703125 0.640625
vt 0.703125 0.5
vt 0.6875 0.5
vt 0.6875 0.640625
vt 0.703125 0.640625
vt 0.671875 0.640625
vt 0.65625 0.640625
vt 0.65625 0.5
vt 0.671875 0.5
vt 0.703125 0.640625
vt 0.65625 0.640625
vt 0.65625 0.40625
vt 0.703125 0.40625
vt 0.671875 0.40625
vt 0.65625 0.40625
vt 0.65625 0.640625
vt 0.671875 0.640625
vt 0.703125 0.640625
vt 0.65625 0.640625
vt 0.65625 0.390625
vt 0.703125 0.390625
vt 0.671875 0.390625
vt 0.65625 0.390625
vt 0.65625 0.640625
vt 0.671875 0.640625
vt 0.703125 0.5
vt 0.65625 0.5
vt 0.65625 0.640625
vt 0.703125 0.640625
vt 0.671875 0.640625
vt 0.65625 0.640625
vt 0.65625 0.5
vt 0.671875 0.5
vt 0.7500000000000002 0.453125
vt 0.5156250000000001 0.453125
vt 0.5156250000000001 0.2499999999999999
vt 0.7500000000000002 0.2499999999999999
vt 0 0.796875
vt 0.2343750000000001 0.796875
vt 0.2343750000000001 1
vt 0 1
vt 0 0.2499999999999999
vt 0.2343750000000001 0.2499999999999999
vt 0.2343750000000001 0.453125
vt 0 0.453125
vn 0 0 -1
vn -2.980232251457795e-8 1.4533987346965199e-9 -0.9999999999999997
vn 4.3314723915948824e-17 1 1.4534009551425691e-9
vn -4.331472391594883e-17 -1 -1.4534009551425691e-9
vn -0.9999999999999996 -4.331464441440437e-17 2.9802322387695326e-8
vn 0.9999999999999996 4.331464441440435e-17 -2.9802322387695312e-8
vn -2.980232251457795e-8 1.45339829060731e-9 -0.9999999999999997
vn 4.33147240081545e-17 1 1.4534009551425691e-9
vn -4.331472400815449e-17 -1 -1.4534009551425691e-9
vn -0.9999999999999996 -4.331464441440435e-17 2.9802322387695312e-8
vn 0.9999999999999996 4.331464441440435e-17 -2.9802322387695312e-8
vn 1 0 0
vn -1 0 0
vn 0 1 0
vn 0 -1 0
vn 0 0 -1
vn 1 0 0
vn -1 0 0
vn 0 1 0
vn 0 -1 0
vn 0 0 -1
vn 0 1 0
vn 0 -1 0
vn 2.3684757858670006e-16 0 1
vn -2.3684757858670006e-16 0 -1
vn 1 2.223920925696714e-16 0
vn -1 -2.220446049250313e-16 0
vn -3.466062125659024e-15 2.2239209256967064e-16 1
vn -3.4714863230387717e-15 -2.2239209256967216e-16 -1
vn 1 0 -1.1460366705808073e-15
vn -1 -3.9474596431116675e-16 1.1460366705808065e-15
vn -1.733031062829512e-15 -1.9737298215558406e-16 1
vn 3.466062125659024e-15 0 -1
vn 0 -1 0
vn -2.3684757858670006e-16 0 -1
vn -1 -2.220446049250313e-16 0
vn -3.3888318867759542e-15 -2.223920925696721e-16 -1
vn -1 0 0
vn 0 0 -1
vn 0 0 -1
vn 0 0 -1
vn 0 0 -1
usemtl common_rough_steel
f 115/289/73 184/290/73 183/291/73
f 115/289/73 183/291/73 181/292/73
usemtl arithmetic_logic_machine
f 123/293/74 121/294/74 122/295/74
f 123/293/74 122/295/74 124/296/74
f 117/297/75 118/298/75 122/299/75
f 117/297/75 122/299/75 121/300/75
f 120/301/76 119/302/76 123/303/76
f 120/301/76 123/303/76 124/304/76
f 119/305/77 117/306/77 121/307/77
f 119/305/77 121/307/77 123/308/77
f 124/309/78 122/310/78 118/311/78
f 124/309/78 118/311/78 120/312/78
f 131/313/79 129/314/79 130/315/79
f 131/313/79 130/315/79 132/316/79
f 125/317/80 126/318/80 130/319/80
f 125/317/80 130/319/80 129/320/80
f 128/321/81 127/322/81 131/323/81
f 128/321/81 131/323/81 132/324/81
f 127/325/82 125/326/82 129/327/82
f 127/325/82 129/327/82 131/328/82
f 132/329/83 130/330/83 126/331/83
f 132/329/83 126/331/83 128/332/83
f 136/333/84 134/334/84 133/335/84
f 136/333/84 133/335/84 135/336/84
f 139/337/85 137/338/85 138/339/85
f 139/337/85 138/339/85 140/340/85
f 133/341/86 134/342/86 138/343/86
f 133/341/86 138/343/86 137/344/86
f 136/345/87 135/346/87 139/347/87
f 136/345/87 139/347/87 140/348/87
f 140/349/88 138/350/88 134/351/88
f 140/349/88 134/351/88 136/352/88
f 144/353/89 142/354/89 141/355/89
f 144/353/89 141/355/89 143/356/89
f 147/357/90 145/358/90 146/359/90
f 147/357/90 146/359/90 148/360/90
f 141/361/91 142/362/91 146/363/91
f 141/361/91 146/363/91 145/364/91
f 144/365/92 143/366/92 147/367/92
f 144/365/92 147/367/92 148/368/92
f 148/369/93 146/370/93 142/371/93
f 148/369/93 142/371/93 144/372/93
f 149/373/94 150/374/94 154/375/94
f 149/373/94 154/375/94 153/376/94
f 152/377/95 151/378/95 155/379/95
f 152/377/95 155/379/95 156/380/95
f 151/381/96 149/382/96 153/383/96
f 151/381/96 153/383/96 155/384/96
f 156/385/97 154/386/97 150/387/97
f 156/385/97 150/387/97 152/388/97
f 157/389/98 158/390/98 152/391/98
f 157/389/98 152/391/98 151/392/98
f 160/393/99 159/394/99 161/395/99
f 160/393/99 161/395/99 162/396/99
f 159/397/100 157/398/100 151/399/100
f 159/397/100 151/399/100 161/400/100
f 162/401/101 152/402/101 158/403/101
f 162/401/101 158/403/101 160/404/101
f 163/405/102 164/406/102 158/407/102
f 163/405/102 158/407/102 157/408/102
f 166/409/103 165/410/103 159/411/103
f 166/409/103 159/411/103 160/412/103
f 165/413/104 163/414/104 157/415/104
f 165/413/104 157/415/104 159/416/104
f 160/417/105 158/418/105 164/419/105
f 160/417/105 164/419/105 166/420/105
f 169/421/106 168/422/106 171/423/106
f 169/421/106 171/423/106 172/424/106
f 172/425/107 170/426/107 167/427/107
f 172/425/107 167/427/107 169/428/107
f 175/429/108 174/430/108 176/431/108
f 175/429/108 176/431/108 177/432/108
f 177/433/109 169/434/109 173/435/109
f 177/433/109 173/435/109 175/436/109
f 180/437/110 179/438/110 174/439/110
f 180/437/110 174/439/110 175/440/110
f 175/441/111 173/442/111 178/443/111
f 175/441/111 178/443/111 180/444/111
usemtl common_rough_steel
f 181/445/112 183/446/112 185/447/112
f 181/445/112 185/447/112 116/448/112
f 182/449/113 183/450/113 184/451/113
f 182/449/113 184/451/113 113/452/113
f 114/453/114 185/454/114 183/455/114
f 114/453/114 183/455/114 182/456/114