# Made by Pabilo8 with Blockbench
# Exported with IIToolkit Plugin
mtllib circuit_racks.mtl


o memory_upgrade
v 0.9375 1.6875 0.9375
v 0.9375 1.6875 0.3125
v 0.9375 1.0625 0.9375
v 0.9375 1.0625 0.3125
v 0.8125 1.6875 0.9375
v 0.8125 1.6875 0.3125
v 0.8125 1.0625 0.9375
v 0.8125 1.0625 0.3125
v 0.9375 1.6875 0.625
v 0.9375 1.0625 0.625
v 0.8125 1.0625 0.625
v 0.8125 1.6875 0.625
v 0.8125 1.375 0.3125
v 0.9375 1.375 0.3125
v 0.9375 1.375 0.625
v 0.9375 1.375 0.9375
v 0.8125 1.375 0.9375
v 0.8125 1.375 0.625
v 0.6875 1.9375 0.9375
v 0.6875 1.9375 0.3125
v 0.6875 1.6875 0.9375
v 0.6875 1.6875 0.3125
v 0.125 1.9375 0.9375
v 0.125 1.9375 0.3125
v 0.125 1.6875 0.9375
v 0.125 1.6875 0.3125
v 0.4375 1.6875 0.3125
v 0.4375 1.6875 0.9375
v 0.375 1.6875 0.3125
v 0.375 1.9375 0.3125
v 0.375 1.8125 0.3125
v 0.6875 1.8125 0.3125
v 0.375 1.75 0.3125
v 0.125 1.75 0.3125
v 0.4375 1.6875 0.5
v 0.6875 1.6875 0.5
v 0.4375 1.6875 0.5625
v 0.125 1.6875 0.5625
v 0.625 1.875 0.3125
v 0.625 1.875 0.25
v 0.625 1.75 0.3125
v 0.625 1.75 0.25
v 0.5 1.875 0.3125
v 0.5 1.875 0.25
v 0.5 1.75 0.3125
v 0.5 1.75 0.25
v 0.3125 1.875 0.3125
v 0.3125 1.875 0.25
v 0.3125 1.75 0.3125
v 0.3125 1.75 0.25
v 0.1875 1.875 0.3125
v 0.1875 1.875 0.25
v 0.1875 1.75 0.3125
v 0.1875 1.75 0.25
v -0.46875 0.7469196359852368 0.14867693519796
v -0.46875 0.7523668699069654 0.08641476656722591
v -0.46875 0.5601331300930346 0.1323352334327741
v -0.46875 0.5655803640147632 0.07007306480204001
v -0.78125 0.7469196359852368 0.14867693519796
v -0.78125 0.7523668699069654 0.08641476656722591
v -0.78125 0.5601331300930346 0.1323352334327741
v -0.78125 0.5655803640147632 0.07007306480204001
v -0.59375 0.7523668699069654 0.08641476656722591
v -0.59375 0.5655803640147632 0.07007306480204001
v -0.59375 0.7523668699069654 0.08641476656722591
v -0.59375 0.7469196359852368 0.14867693519796
v -0.59375 0.6278425326454973 0.07552029872376864
v -0.78125 0.6278425326454973 0.07552029872376864
v -0.59375 0.6278425326454973 0.07552029872376864
v -0.46875 0.6278425326454973 0.07552029872376864
v -0.59375 0.5655803640147632 0.07007306480204001
v -0.59375 0.5601331300930346 0.1323352334327741
v -0.46875 0.5594196359852368 0.14867693519796
v -0.46875 0.5648668699069654 0.08641476656722591
v -0.46875 0.37263313009303456 0.1323352334327741
v -0.46875 0.3780803640147632 0.07007306480204001
v -0.78125 0.5594196359852368 0.14867693519796
v -0.78125 0.5648668699069654 0.08641476656722591
v -0.78125 0.37263313009303456 0.1323352334327741
v -0.78125 0.3780803640147632 0.07007306480204001
v -0.59375 0.5648668699069654 0.08641476656722591
v -0.59375 0.3780803640147632 0.07007306480204001
v -0.59375 0.5648668699069654 0.08641476656722591
v -0.59375 0.5594196359852368 0.14867693519796
v -0.59375 0.4403425326454973 0.07552029872376864
v -0.78125 0.4403425326454973 0.07552029872376864
v -0.59375 0.4403425326454973 0.07552029872376864
v -0.46875 0.4403425326454973 0.07552029872376864
v -0.59375 0.3780803640147632 0.07007306480204001
v -0.59375 0.37263313009303456 0.1323352334327741
vt 0 1
vt 0 0.6875
vt 0.3125 0.6875
vt 0.3125 1
vt 0.4375 1
vt 0.4375 0.6875
vt 0.75 0.6875
vt 0.75 1
vt 0.125 0.375
vt 0.125 0.6875
vt 0 0.6875
vt 0 0.375
vt 0 1
vt 0 0.6875
vt 0.125 0.6875
vt 0.125 1
vt 0 1
vt 0 0.6875
vt 0.125 0.6875
vt 0.125 1
vt 0.125 1
vt 0.125 0.6875
vt 0 0.6875
vt 0 1
vt 0.4375 1
vt 0.4375 0.6875
vt 0.75 0.6875
vt 0.75 1
vt 0.125 0.375
vt 0.125 0.6875
vt 0 0.6875
vt 0 0.375
vt 0 1
vt 0 0.6875
vt 0.3125 0.6875
vt 0.3125 1
vt 0 1
vt 0 0.6875
vt 0.125 0.6875
vt 0.125 1
vt 0 0.375
vt 0 0.6875
vt 0.125 0.6875
vt 0.125 0.375
vt 0.75 0.25
vt 0.75 0.5625
vt 0.4375 0.5625
vt 0.4375 0.25
vt 0.3125 0.25
vt 0.3125 0.5625
vt 0 0.5625
vt 0 0.25
vt 0.125 0.375
vt 0.125 0.6875
vt 0 0.6875
vt 0 0.375
vt 0.75 0.25
vt 0.75 0.5625
vt 0.4375 0.5625
vt 0.4375 0.25
vt 0.3125 0.25
vt 0.3125 0.5625
vt 0 0.5625
vt 0 0.25
vt 0.390625 0.125
vt 0.390625 0.1875
vt 0.234375 0.1875
vt 0.234375 0.125
vt 0.34375 0.125
vt 0.34375 0.1875
vt 0.1875 0.1875
vt 0.1875 0.125
vt 0.328125 0.09375
vt 0.328125 0.25
vt 0.1875 0.25
vt 0.1875 0.09375
vt 0.328125 0.1875
vt 0.328125 0.25
vt 0.1875 0.25
vt 0.1875 0.1875
vt 0 0.75
vt 0.078125 0.75
vt 0.078125 0.78125
vt 0 0.78125
vt 0.078125 0.96875
vt 0.078125 1
vt 0 1
vt 0 0.96875
vt 0.40625 0.765625
vt 0.40625 0.75
vt 0.46875 0.75
vt 0.46875 0.765625
vt 0.46875 1
vt 0.40625 1
vt 0.40625 0.953125
vt 0.46875 0.953125
vt 0.0625 0.796875
vt 0.0625 0.75
vt 0 0.75
vt 0 0.796875
vt 0 1
vt 0.0625 1
vt 0.0625 0.890625
vt 0 0.890625
vt 0.46875 0.75
vt 0.390625 0.75
vt 0.390625 0.8125
vt 0.46875 0.8125
vt 0.390625 0.90625
vt 0.390625 1
vt 0.46875 1
vt 0.46875 0.90625
vt 0.703125 0.78125
vt 0.703125 0.8125
vt 0.6875 0.8125
vt 0.6875 0.78125
vt 0.703125 0.78125
vt 0.703125 0.8125
vt 0.6875 0.8125
vt 0.6875 0.78125
vt 0.71875 0.796875
vt 0.71875 0.8125
vt 0.6875 0.8125
vt 0.6875 0.796875
vt 0.71875 0.796875
vt 0.71875 0.8125
vt 0.6875 0.8125
vt 0.6875 0.796875
vt 0.71875 0.78125
vt 0.71875 0.8125
vt 0.6875 0.8125
vt 0.6875 0.78125
vt 0.703125 0.78125
vt 0.703125 0.8125
vt 0.6875 0.8125
vt 0.6875 0.78125
vt 0.703125 0.78125
vt 0.703125 0.8125
vt 0.6875 0.8125
vt 0.6875 0.78125
vt 0.71875 0.796875
vt 0.71875 0.8125
vt 0.6875 0.8125
vt 0.6875 0.796875
vt 0.71875 0.796875
vt 0.71875 0.8125
vt 0.6875 0.8125
vt 0.6875 0.796875
vt 0.71875 0.78125
vt 0.71875 0.8125
vt 0.6875 0.8125
vt 0.6875 0.78125
vt 0.375 0.6875
vt 0.375 0.734375
vt 0.359375 0.734375
vt 0.359375 0.6875
vt 0.3125 0.6875
vt 0.3125 0.734375
vt 0.296875 0.734375
vt 0.296875 0.6875
vt 0.375 0.6875
vt 0.375 0.734375
vt 0.296875 0.734375
vt 0.296875 0.6875
vt 0.359375 0.71875
vt 0.359375 0.734375
vt 0.328125 0.734375
vt 0.328125 0.71875
vt 0.34375 0.734375
vt 0.296875 0.734375
vt 0.296875 0.71875
vt 0.34375 0.71875
vt 0.375 0.734375
vt 0.328125 0.734375
vt 0.328125 0.703125
vt 0.375 0.703125
vt 0.328125 0.6875
vt 0.328125 0.671875
vt 0.375 0.671875
vt 0.375 0.6875
vt 0.34375 0.703125
vt 0.34375 0.734375
vt 0.375 0.734375
vt 0.375 0.703125
vt 0.375 0.671875
vt 0.34375 0.671875
vt 0.34375 0.6875
vt 0.375 0.6875
vt 0.34375 0.671875
vt 0.375 0.671875
vt 0.375 0.6875
vt 0.34375 0.6875
vt 0.328125 0.6875
vt 0.328125 0.671875
vt 0.375 0.671875
vt 0.375 0.6875
vt 0.5 0.6875
vt 0.5 0.734375
vt 0.484375 0.734375
vt 0.484375 0.6875
vt 0.4375 0.6875
vt 0.4375 0.734375
vt 0.421875 0.734375
vt 0.421875 0.6875
vt 0.5 0.6875
vt 0.5 0.734375
vt 0.421875 0.734375
vt 0.421875 0.6875
vt 0.484375 0.71875
vt 0.484375 0.734375
vt 0.453125 0.734375
vt 0.453125 0.71875
vt 0.46875 0.734375
vt 0.421875 0.734375
vt 0.421875 0.71875
vt 0.46875 0.71875
vt 0.5 0.734375
vt 0.453125 0.734375
vt 0.453125 0.703125
vt 0.5 0.703125
vt 0.453125 0.6875
vt 0.453125 0.671875
vt 0.5 0.671875
vt 0.5 0.6875
vt 0.46875 0.703125
vt 0.46875 0.734375
vt 0.5 0.734375
vt 0.5 0.703125
vt 0.5 0.671875
vt 0.46875 0.671875
vt 0.46875 0.6875
vt 0.5 0.6875
vt 0.46875 0.671875
vt 0.5 0.671875
vt 0.5 0.6875
vt 0.46875 0.6875
vt 0.453125 0.6875
vt 0.453125 0.671875
vt 0.5 0.671875
vt 0.5 0.6875
vn 1 0 0
vn -1 0 0
vn 0 1 0
vn 0 -1 0
vn 0 0 1
vn 0 0 -1
vn 1 0 0
vn 0 -1 0
vn -1 0 0
vn 0 1 0
vn 0 0 -1
vn 1 0 0
vn 1 0 0
vn 0 0 1
vn -1 0 0
vn -1 0 0
vn 1 0 0
vn -1 0 0
vn 0 1 0
vn 0 0 1
vn 0 0 -1
vn 0 0 -1
vn 0 0 -1
vn 0 0 -1
vn 0 -1 0
vn 0 -1 0
vn 0 -1 0
vn 0 -1 0
vn 1 0 0
vn -1 0 0
vn 0 1 0
vn 0 -1 0
vn 0 0 -1
vn 1 0 0
vn -1 0 0
vn 0 1 0
vn 0 -1 0
vn 0 0 -1
vn 1 0 0
vn -1 0 0
vn 0 -0.08715574274765815 0.9961946980917455
vn 0 0.9961946980917455 0.08715574274765815
vn 0 0.9961946980917457 0.08715574274765817
vn 0 0.08715574274765817 -0.9961946980917457
vn 0 0.08715574274765817 -0.9961946980917457
vn 0 0.08715574274765815 -0.9961946980917455
vn 0 0.08715574274765815 -0.9961946980917455
vn 0 -0.9961946980917455 -0.08715574274765815
vn 0 -0.9961946980917457 -0.08715574274765817
vn 1 0 0
vn -1 0 0
vn 0 -0.08715574274765815 0.9961946980917455
vn 0 0.9961946980917455 0.08715574274765815
vn 0 0.9961946980917457 0.08715574274765817
vn 0 0.08715574274765817 -0.9961946980917457
vn 0 0.08715574274765817 -0.9961946980917457
vn 0 0.08715574274765815 -0.9961946980917455
vn 0 0.08715574274765815 -0.9961946980917455
vn 0 -0.9961946980917455 -0.08715574274765815
vn 0 -0.9961946980917457 -0.08715574274765817
usemtl circuit_basic
f 1/1/1 16/2/1 15/3/1
f 1/1/1 15/3/1 9/4/1
f 12/5/2 18/6/2 17/7/2
f 12/5/2 17/7/2 5/8/2
f 1/9/3 9/10/3 12/11/3
f 1/9/3 12/11/3 5/12/3
f 7/13/4 11/14/4 10/15/4
f 7/13/4 10/15/4 3/16/4
f 5/17/5 17/18/5 16/19/5
f 5/17/5 16/19/5 1/20/5
f 2/21/6 14/22/6 13/23/6
f 2/21/6 13/23/6 6/24/6
f 9/25/7 15/26/7 14/27/7
f 9/25/7 14/27/7 2/28/7
f 4/29/8 10/30/8 11/31/8
f 4/29/8 11/31/8 8/32/8
f 6/33/9 13/34/9 18/35/9
f 6/33/9 18/35/9 12/36/9
f 6/37/10 12/38/10 9/39/10
f 6/37/10 9/39/10 2/40/10
f 8/41/11 13/42/11 14/43/11
f 8/41/11 14/43/11 4/44/11
f 4/45/12 14/46/12 15/47/12
f 4/45/12 15/47/12 10/48/12
f 10/49/13 15/50/13 16/51/13
f 10/49/13 16/51/13 3/52/13
f 3/53/14 16/54/14 17/55/14
f 3/53/14 17/55/14 7/56/14
f 7/57/15 17/58/15 18/59/15
f 7/57/15 18/59/15 11/60/15
f 11/61/16 18/62/16 13/63/16
f 11/61/16 13/63/16 8/64/16
usemtl arithmetic_logic_machine
f 22/65/17 20/66/17 19/67/17
f 22/65/17 19/67/17 21/68/17
f 25/69/18 23/70/18 24/71/18
f 25/69/18 24/71/18 26/72/18
f 19/73/19 20/74/19 24/75/19
f 19/73/19 24/75/19 23/76/19
f 21/77/20 19/78/20 23/79/20
f 21/77/20 23/79/20 25/80/20
f 22/81/21 29/82/21 31/83/21
f 22/81/21 31/83/21 32/84/21
f 31/85/22 30/86/22 20/87/22
f 31/85/22 20/87/22 32/88/22
f 33/89/23 29/90/23 26/91/23
f 33/89/23 26/91/23 34/92/23
f 24/93/24 30/94/24 33/95/24
f 24/93/24 33/95/24 34/96/24
f 35/97/25 27/98/25 22/99/25
f 35/97/25 22/99/25 36/100/25
f 21/101/26 28/102/26 35/103/26
f 21/101/26 35/103/26 36/104/26
f 26/105/27 27/106/27 37/107/27
f 26/105/27 37/107/27 38/108/27
f 37/109/28 28/110/28 25/111/28
f 37/109/28 25/111/28 38/112/28
f 42/113/29 40/114/29 39/115/29
f 42/113/29 39/115/29 41/116/29
f 45/117/30 43/118/30 44/119/30
f 45/117/30 44/119/30 46/120/30
f 39/121/31 40/122/31 44/123/31
f 39/121/31 44/123/31 43/124/31
f 42/125/32 41/126/32 45/127/32
f 42/125/32 45/127/32 46/128/32
f 46/129/33 44/130/33 40/131/33
f 46/129/33 40/131/33 42/132/33
f 50/133/34 48/134/34 47/135/34
f 50/133/34 47/135/34 49/136/34
f 53/137/35 51/138/35 52/139/35
f 53/137/35 52/139/35 54/140/35
f 47/141/36 48/142/36 52/143/36
f 47/141/36 52/143/36 51/144/36
f 50/145/37 49/146/37 53/147/37
f 50/145/37 53/147/37 54/148/37
f 54/149/38 52/150/38 48/151/38
f 54/149/38 48/151/38 50/152/38
usemtl common_thingies
f 58/153/39 56/154/39 55/155/39
f 58/153/39 55/155/39 57/156/39
f 61/157/40 59/158/40 60/159/40
f 61/157/40 60/159/40 62/160/40
f 57/161/41 55/162/41 59/163/41
f 57/161/41 59/163/41 61/164/41
f 55/165/42 56/166/42 65/167/42
f 55/165/42 65/167/42 66/168/42
f 65/169/43 60/170/43 59/171/43
f 65/169/43 59/171/43 66/172/43
f 60/173/44 63/174/44 67/175/44
f 60/173/44 67/175/44 68/176/44
f 67/177/45 64/178/45 62/179/45
f 67/177/45 62/179/45 68/180/45
f 69/181/46 63/182/46 56/183/46
f 69/181/46 56/183/46 70/184/46
f 58/185/47 64/186/47 69/187/47
f 58/185/47 69/187/47 70/188/47
f 71/189/48 58/190/48 57/191/48
f 71/189/48 57/191/48 72/192/48
f 61/193/49 62/194/49 71/195/49
f 61/193/49 71/195/49 72/196/49
f 76/197/50 74/198/50 73/199/50
f 76/197/50 73/199/50 75/200/50
f 79/201/51 77/202/51 78/203/51
f 79/201/51 78/203/51 80/204/51
f 75/205/52 73/206/52 77/207/52
f 75/205/52 77/207/52 79/208/52
f 73/209/53 74/210/53 83/211/53
f 73/209/53 83/211/53 84/212/53
f 83/213/54 78/214/54 77/215/54
f 83/213/54 77/215/54 84/216/54
f 78/217/55 81/218/55 85/219/55
f 78/217/55 85/219/55 86/220/55
f 85/221/56 82/222/56 80/223/56
f 85/221/56 80/223/56 86/224/56
f 87/225/57 81/226/57 74/227/57
f 87/225/57 74/227/57 88/228/57
f 76/229/58 82/230/58 87/231/58
f 76/229/58 87/231/58 88/232/58
f 89/233/59 76/234/59 75/235/59
f 89/233/59 75/235/59 90/236/59
f 79/237/60 80/238/60 89/239/60
f 79/237/60 89/239/60 90/240/60