# Made by Pabilo8 with Blockbench
# Exported with IIToolkit Plugin
mtllib chemical_bath.mtl


o main
v 3 0.9999997852391702 1.9999998456804498
v 2 0.9999997852391702 1.9999998456804498
v 3 0.9999996512971054 1.0000000905506057
v 2 0.9999996512971054 1.0000000905506057
v 3 -0.7499997937712158 1.000000233107773
v 2 -0.7499997937712158 1.000000233107773
v 2 0.12499980988719905 2.0000001006419246
v 3 0.12500018158075554 0.999999978146298
v 2 0.12500018158075554 0.999999978146298
v 2.75 -0.25000008627702464 1.940625243697564
v 2.75 -0.24999971028602774 2.00312520272142
v 2.75 -0.7499997110241357 1.9406251269857049
v 2.75 -0.7500002080345427 2.003124947739722
v 2.25 -0.25000008627702464 1.940625243697564
v 2.25 -0.24999971028602774 2.00312520272142
v 2.25 -0.7499997110241357 1.9406251269857049
v 2.25 -0.7500002080345427 2.003124947739722
v 1.9375 -0.2127815653274755 -0.9503816351507675
v -0.9375 -0.2127815653274755 -0.9503816351507675
v 1.9375 -0.7184171868118177 -0.5830158524679718
v -0.9375 -0.7184171868118177 -0.5830158524679718
v 1.9375 -0.24987975987773514 -1.0002363244058954
v -0.9375 -0.24987975987773514 -1.0002363244058954
v 1.9375 -0.7551537650800972 -0.6335794146164062
v -0.9375 -0.7551537650800972 -0.6335794146164062
v -0.9375 0.25000009530069256 1.9999998542955522
v -1 0.25000009530069256 1.9999998542955522
v -0.9375 -0.25000003508204016 2.0000001049494758
v -1 -0.25000003508204016 2.0000001049494758
v -0.9375 0.25000019911012006 -0.9999997784597621
v -1 0.25000019911012006 -0.9999997784597621
v -1 -0.25000029863839524 -1.0000000334414596
v 1.9375 0.2499997020997129 -0.937499957705745
v -0.9375 0.2499997020997129 -0.937499957705745
v 1.9375 -0.24999992264739823 -0.9375000744176043
v -0.9375 -0.24999992264739823 -0.9375000744176043
v 1.9375 0.25000019911012006 -0.9999997784597621
v 1.9375 -0.25000003508204016 2.0000001049494758
v 1.9375 -0.7556358371072186 1.6326340797547314
v -0.9375 -0.7556358371072186 1.6326340797547314
v 1.9375 -0.21326339108161396 1.9494362628465367
v -0.9375 -0.21326339108161396 1.9494362628465367
v 1.9375 -0.7188988257410098 1.5820707432874137
v -0.9375 -0.7188988257410098 1.5820707432874137
v 1.9375 0.25000009530069256 1.9999998542955522
v 1.9375 0.24999971930969567 1.9374998952716966
v -0.9375 0.24999971930969567 1.9374998952716966
v 1.9375 -0.24999990543741535 1.9374997785598376
v -0.9375 -0.24999990543741535 1.9374997785598376
v 2 0.25000009530069256 1.9999998542955522
v 2 -0.25000003508204016 2.0000001049494758
v 2 0.25000019911012006 -0.9999997784597621
v 2 -0.25000029863839524 -1.0000000334414596
v 1.9375 -0.6249998843588304 1.6250002642877888
v -0.9375 -0.6249998843588304 1.6250002642877888
v 1.9375 -0.6250001393000825 -0.6250001841646695
v -0.9375 -0.6250001393000825 -0.6250001841646695
v -0.9375 -0.6250002646472671 0.5000002237444507
v 1.9375 -0.6250002646472671 0.5000002237444507
v 2 -0.7499996641367026 1.625000143268378
v 1.9375 -0.7499996641367026 1.625000143268378
v 2 -0.7499999190779549 -0.6250003051840798
v 1.9375 -0.7499999190779549 -0.6250003051840798
v -0.9375 -0.7499996641367026 1.625000143268378
v -1 -0.7499996641367026 1.625000143268378
v -0.9375 -0.7499999190779549 -0.6250003051840798
v -1 -0.7499999190779549 -0.6250003051840798
v 1.125 -0.4875957464942503 1.7681187030403571
v 1.1875 -0.4875957464942503 1.7681187030403571
v 1.125 -0.7812498856874515 1.8749998908196213
v 1.1875 -0.7812498856874515 1.8749998908196213
v 1.125 -0.4662196835386784 1.8268495032250296
v 1.1875 -0.4662196835386784 1.8268495032250296
v 1.125 -0.7598738227318795 1.9337306910042937
v 1.1875 -0.7598738227318795 1.9337306910042937
v 1.6875 -0.4875957464942503 1.7681187030403571
v 1.75 -0.4875957464942503 1.7681187030403571
v 1.6875 -0.7812498856874515 1.8749998908196213
v 1.75 -0.7812498856874515 1.8749998908196213
v 1.6875 -0.4662196835386784 1.8268495032250296
v 1.75 -0.4662196835386784 1.8268495032250296
v 1.6875 -0.7598738227318795 1.9337306910042937
v 1.75 -0.7598738227318795 1.9337306910042937
v -0.3125000000000001 -0.4875957464942503 1.7681187030403571
v -0.2500000000000001 -0.4875957464942503 1.7681187030403571
v -0.3125000000000001 -0.7812498856874515 1.8749998908196213
v -0.2500000000000001 -0.7812498856874515 1.8749998908196213
v -0.3125000000000001 -0.4662196835386784 1.8268495032250296
v -0.2500000000000001 -0.4662196835386784 1.8268495032250296
v -0.3125000000000001 -0.7598738227318795 1.9337306910042937
v -0.2500000000000001 -0.7598738227318795 1.9337306910042937
v -0.875 -0.4875957464942503 1.7681187030403571
v -0.8125 -0.4875957464942503 1.7681187030403571
v -0.875 -0.7812498856874515 1.8749998908196213
v -0.8125 -0.7812498856874515 1.8749998908196213
v -0.875 -0.4662196835386784 1.8268495032250296
v -0.8125 -0.4662196835386784 1.8268495032250296
v -0.875 -0.7598738227318795 1.9337306910042937
v -0.8125 -0.7598738227318795 1.9337306910042937
v -0.75 -0.48759622982041867 -0.7681186135728588
v -0.8125 -0.48759622982041867 -0.7681186135728588
v -0.75 -0.7812500239168445 -0.8750001823799478
v -0.8125 -0.7812500239168445 -0.8750001823799478
v -0.75 -0.46621974145871997 -0.8268493447381764
v -0.8125 -0.46621974145871997 -0.8268493447381764
v -0.75 -0.7598735355551458 -0.9337309135452654
v -0.8125 -0.7598735355551458 -0.9337309135452654
v -0.1875000000000001 -0.48759622982041867 -0.7681186135728588
v -0.2500000000000001 -0.48759622982041867 -0.7681186135728588
v -0.1875000000000001 -0.7812500239168445 -0.8750001823799478
v -0.2500000000000001 -0.7812500239168445 -0.8750001823799478
v -0.1875000000000001 -0.46621974145871997 -0.8268493447381764
v -0.2500000000000001 -0.46621974145871997 -0.8268493447381764
v -0.1875000000000001 -0.7598735355551458 -0.9337309135452654
v -0.2500000000000001 -0.7598735355551458 -0.9337309135452654
v 1.25 -0.48759622982041867 -0.7681186135728588
v 1.1875 -0.48759622982041867 -0.7681186135728588
v 1.25 -0.7812500239168445 -0.8750001823799478
v 1.1875 -0.7812500239168445 -0.8750001823799478
v 1.25 -0.46621974145871997 -0.8268493447381764
v 1.1875 -0.46621974145871997 -0.8268493447381764
v 1.25 -0.7598735355551458 -0.9337309135452654
v 1.1875 -0.7598735355551458 -0.9337309135452654
v 1.8125 -0.48759622982041867 -0.7681186135728588
v 1.75 -0.48759622982041867 -0.7681186135728588
v 1.8125 -0.7812500239168445 -0.8750001823799478
v 1.75 -0.7812500239168445 -0.8750001823799478
v 1.8125 -0.46621974145871997 -0.8268493447381764
v 1.75 -0.46621974145871997 -0.8268493447381764
v 1.8125 -0.7598735355551458 -0.9337309135452654
v 1.75 -0.7598735355551458 -0.9337309135452654
v -2 -1.0000003602704297 9.766926978294066e-8
v -1 -0.7500002950790632 -2.7657692247551324e-8
v -2 -0.7500002950790632 -2.7657692247551324e-8
v -1 -1.0000002453840118 6.704536203994138e-8
v -1 -0.7499997937712158 1.000000233107773
v 2 -0.7499999233855064 -1.000000150153319
v 2 -0.9999999885768729 -1.0000000248263572
v 3 -0.7500002950790632 -2.7657692247551324e-8
v 2 -0.7500002950790632 -2.7657692247551324e-8
v 3 -1.0000003602704297 9.766926978294066e-8
v 2 -1.0000002453840118 6.704536203994138e-8
v 3 -1.000000226328365 0.9999998527991134
v 3 2.678608184703002e-7 1.0199704369995288e-7
v 2 2.678608184703002e-7 1.0199704369995288e-7
v 3 1.339187539750597e-7 -0.9999996531328001
v 2 1.339187539750597e-7 -0.9999996531328001
v 3 -0.9999999885768726 -1.000000024826357
v 2.875 -0.12500001322490129 -1.0000002797878318
v 2.125 -0.12500001322490129 -1.0000002797878318
v 2.875 -0.8750002087990002 -0.9999999038069465
v 2.125 -0.8750002087990002 -0.9999999038069465
v 2.875 -0.12500014286952577 -0.9374999533981938
v 2.125 -0.12500014286952577 -0.9374999533981938
v 2.875 -0.8749998328080033 -0.9374999447830907
v 2.125 -0.8749998328080033 -0.9374999447830907
v 2.78125 -2.2914958885955627e-7 0.06249992275106053
v 2.65625 -2.2914958885955627e-7 0.06249992275106053
v 2.78125 -0.06250018817344444 0.06250029874205743
v 2.65625 -0.06250018817344444 0.06250029874205743
v 2.78125 2.678608184703002e-7 1.0199704369995288e-7
v 2.65625 2.678608184703002e-7 1.0199704369995288e-7
v 2.78125 -0.06250005852881987 -2.764758089135455e-8
v 2.65625 -0.06250005852881987 -2.764758089135455e-8
v 2.28125 -2.2914958885955627e-7 0.06249992275106053
v 2.15625 -2.2914958885955627e-7 0.06249992275106053
v 2.28125 -0.06250018817344444 0.06250029874205743
v 2.15625 -0.06250018817344444 0.06250029874205743
v 2.28125 2.678608184703002e-7 1.0199704369995288e-7
v 2.15625 2.678608184703002e-7 1.0199704369995288e-7
v 2.28125 -0.06250005852881987 -2.764758089135455e-8
v 2.15625 -0.06250005852881987 -2.764758089135455e-8
v 2.75 -0.2500002080611612 -0.937499568783337
v 2.25 -0.2500002080611612 -0.937499568783337
v 2.75 -0.7499998328082724 -0.9374996854951958
v 2.25 -0.7499998328082724 -0.9374996854951958
v 2.75 -0.2500000784165367 -0.9999998951729754
v 2.25 -0.2500000784165367 -0.9999998951729754
v 2.75 -0.7500002087992692 -0.9999996445190515
v 2.25 -0.7500002087992692 -0.9999996445190515
v -1 2.678608184703002e-7 1.0199704369995288e-7
v -2 2.678608184703002e-7 1.0199704369995288e-7
v -1 1.339187539750597e-7 -0.9999996531328001
v -2 1.339187539750597e-7 -0.9999996531328001
v -2 -0.9999999885768726 -1.000000024826357
v -1.125 -0.12500001322490129 -1.0000002797878318
v -1.875 -0.12500001322490129 -1.0000002797878318
v -1.125 -0.8750002087990002 -0.9999999038069465
v -1.875 -0.8750002087990002 -0.9999999038069465
v -1.125 -0.12500014286952577 -0.9374999533981938
v -1.875 -0.12500014286952577 -0.9374999533981938
v -1.125 -0.8749998328080033 -0.9374999447830907
v -1.875 -0.8749998328080033 -0.9374999447830907
v -1.21875 -2.2914958885955627e-7 0.06249992275106053
v -1.34375 -2.2914958885955627e-7 0.06249992275106053
v -1.21875 -0.06250018817344444 0.06250029874205743
v -1.34375 -0.06250018817344444 0.06250029874205743
v -1.21875 2.678608184703002e-7 1.0199704369995288e-7
v -1.34375 2.678608184703002e-7 1.0199704369995288e-7
v -1.21875 -0.06250005852881987 -2.764758089135455e-8
v -1.34375 -0.06250005852881987 -2.764758089135455e-8
v -1.71875 -2.2914958885955627e-7 0.06249992275106053
v -1.84375 -2.2914958885955627e-7 0.06249992275106053
v -1.71875 -0.06250018817344444 0.06250029874205743
v -1.84375 -0.06250018817344444 0.06250029874205743
v -1.71875 2.678608184703002e-7 1.0199704369995288e-7
v -1.84375 2.678608184703002e-7 1.0199704369995288e-7
v -1.71875 -0.06250005852881987 -2.764758089135455e-8
v -1.84375 -0.06250005852881987 -2.764758089135455e-8
v -1.25 -0.2500002080611612 -0.937499568783337
v -1.75 -0.2500002080611612 -0.937499568783337
v -1.25 -0.7499998328082724 -0.9374996854951958
v -1.75 -0.7499998328082724 -0.9374996854951958
v -1.25 -0.2500000784165367 -0.9999998951729754
v -1.75 -0.2500000784165367 -0.9999998951729754
v -1.25 -0.7500002087992692 -0.9999996445190515
v -1.75 -0.7500002087992692 -0.9999996445190515
v -1 0.9999998418818126 2.000000214107104
v -2.000000000000001 0.9999998418818126 2.000000214107104
v -1 1.000000197908872 1.0000000916114749
v -2.000000000000001 1.000000197908872 1.0000000916114749
v -2.0000000000000018 0.12499980988719861 2.000000100641925
v -1 0.12499980988719861 2.000000100641925
v -1 0.12500015024776118 0.9999999781462943
v -2.0000000000000018 0.12500015024776118 0.9999999781462943
v -1.875 0.937499947234725 1.875000441893574
v -1.875 0.9375000768894608 1.1249998789536921
v -1.125 0.937499947234725 1.875000441893574
v -1.125 0.9375000768894608 1.1249998789536921
v 2.9375 -0.5019722997971523 -0.00520581790889485
v 2 -0.5019722997971523 -0.00520581790889485
v 2.9375 -0.5644131356465043 -0.0024796051489660575
v 2 -0.5644131356465043 -0.0024796051489660575
v 2.9375 -0.4665313482045046 0.8065210504914434
v 2 -0.4665313482045046 0.8065210504914434
v 2.9375 -0.5289721840538566 0.8092472632513723
v 2 -0.5289721840538566 0.8092472632513723
v 2.5 -0.5019722997971523 -0.00520581790889485
v 2.5 -0.4665313482045046 0.8065210504914434
v 2.5 -0.5289721840538566 0.8092472632513723
v 2.5 -0.5644131356465043 -0.0024796051489660575
v 3 -0.4463217403142833 -0.008377046898759954
v 2.9375 -0.4463217403142833 -0.008377046898759954
v 3 -0.5712025390115832 -0.002924483109063458
v 2.9375 -0.5712025390115832 -0.002924483109063458
v 3 -0.4108807887216356 0.8033498215015782
v 2.9375 -0.4108807887216356 0.8033498215015782
v 3 -0.5289721840538566 0.8092472632513723
v 3 0.8749998715192331 0.9999999695311951
v 2.75 0.8749998715192331 0.9999999695311951
v 3 0.6249998063278667 1.0000000948581569
v 2.75 0.6249998063278667 1.0000000948581569
v 3 0.8749997418847197 0.37500005937059006
v 2.75 0.8749997418847197 0.37500005937059006
v 3 0.6250001823289749 0.37499981733176924
v 2.75 0.6250001823289749 0.37499981733176924
v 2.96875 0.843750389027824 0.25000010022243346
v 2.78125 0.843750389027824 0.25000010022243346
v 2.96875 0.6562497772246916 0.25000021692418106
v 2.78125 0.6562497772246916 0.25000021692418106
v 2.75 0.7499999621068473 0.3749999383511797
v 2.75 0.7500000917413605 0.9999998485117848
v 3 0.7500000917413605 0.9999998485117848
v 3 0.7499999621068473 0.3749999383511797
v 2.875 0.8749998715192331 0.9999999695311951
v 2.875 0.8749997418847197 0.37500005937059006
v 2.875 0.7500000917413605 0.9999998485117848
v 2.875 0.6249998063278667 1.0000000948581569
v 2.875 0.6250001823289749 0.37499981733176924
v 2.875 0.843750389027824 0.25000010022243346
v 2.875 0.6562497772246916 0.25000021692418106
v 2.96875 0.7500000831262578 0.25000015857330726
v 2.875 0.7500000831262578 0.25000015857330726
v 2.78125 0.7500000831262578 0.25000015857330726
v -1.75 0.8749998715192331 0.9999999695311951
v -2 0.8749998715192331 0.9999999695311951
v -1.75 0.6249998063278667 1.0000000948581569
v -2 0.6249998063278667 1.0000000948581569
v -1.75 0.8749997418847197 0.37500005937059006
v -2 0.8749997418847197 0.37500005937059006
v -1.75 0.6250001823289749 0.37499981733176924
v -2 0.6250001823289749 0.37499981733176924
v -1.78125 0.843750389027824 0.25000010022243346
v -1.96875 0.843750389027824 0.25000010022243346
v -1.78125 0.6562497772246916 0.25000021692418106
v -1.96875 0.6562497772246916 0.25000021692418106
v -2 0.7499999621068473 0.3749999383511797
v -2 0.7500000917413605 0.9999998485117848
v -1.75 0.7500000917413605 0.9999998485117848
v -1.75 0.7499999621068473 0.3749999383511797
v -1.875 0.8749998715192331 0.9999999695311951
v -1.875 0.8749997418847197 0.37500005937059006
v -1.875 0.7500000917413605 0.9999998485117848
v -1.875 0.6249998063278667 1.0000000948581569
v -1.875 0.6250001823289749 0.37499981733176924
v -1.875 0.843750389027824 0.25000010022243346
v -1.875 0.6562497772246916 0.25000021692418106
v -1.78125 0.7500000831262578 0.25000015857330726
v -1.875 0.7500000831262578 0.25000015857330726
v -1.96875 0.7500000831262578 0.25000015857330726
v -1 -0.6874999600743221 0.7499997919254099
v -1.9375 -0.6874999600743221 0.7499997919254099
v -1 -0.7485182479191456 0.7364726035464675
v -1.9375 -0.7485182479191456 0.7364726035464675
v -1 -0.5116429716987205 -0.04324052161777381
v -1.9375 -0.5116429716987205 -0.04324052161777381
v -1 -0.572661259543544 -0.05676770999671632
v -1.9375 -0.572661259543544 -0.05676770999671632
v -1.4375 -0.6874999600743221 0.7499997919254099
v -1.4375 -0.5116429716987205 -0.04324052161777381
v -1.4375 -0.572661259543544 -0.05676770999671632
v -1.4375 -0.7485182479191456 0.7364726035464675
v -1.9375 -0.631892612377758 0.7879352695708102
v -2 -0.631892612377758 0.7879352695708102
v -1.9375 -0.7539295554331875 0.7608803871773038
v -2 -0.7539295554331875 0.7608803871773038
v -1.9375 -0.45603511836653476 -0.005305411338156318
v -2 -0.45603511836653476 -0.005305411338156318
v -1.9375 -0.5780722407922487 -0.0011108198553564375
v -2 -0.5780722407922487 -0.0011108198553564375
v 1.9375 -0.06250011259236499 1.6562499845205785
v 1.875 -0.06250011259236499 1.6562499845205785
v 1.9375 -0.5625002429750976 1.656250235174502
v 1.875 -0.5625002429750976 1.656250235174502
v 1.9375 -0.06249999588050595 1.1562503597734672
v 1.875 -0.06249999588050595 1.1562503597734672
v 1.9375 -0.5624999879933998 1.1562497374259868
v 1.875 -0.5624999879933998 1.1562497374259868
v 1 -0.7499999233855064 -1.000000150153319
v 1 -0.9999999885768729 -1.0000000248263572
v 0 -0.7499999233855064 -1.000000150153319
v -1 -0.7499999233855064 -1.000000150153319
v 0 -0.9999999885768729 -1.0000000248263572
v -1 -0.9999999885768729 -1.0000000248263572
v 2 -0.7500001654647728 2.0000003556034
v 3 -0.7500001654647728 2.0000003556034
v 2 -0.9999997250205177 2.000000113564579
v 3 -0.9999997250205177 2.000000113564579
v 1 -0.7500001654647729 2.0000003556033996
v 1 -0.9999997250205177 2.000000113564579
v 0 -0.7500001654647729 2.0000003556033996
v 0 -0.9999997250205177 2.000000113564579
v -1.0000000000000002 -0.7500001654647729 2.0000003556033996
v -1.0000000000000002 -0.9999997250205177 2.000000113564579
v -2 -0.7500002950790634 0.9999999723423079
v -2 -0.7499997937712158 2.0000002331077735
v -2 -1.00000036027043 1.00000009766927
v -2 -1.000000226328365 1.999999852799114
v -1.8125 1.0000001282163298 1.1875001221437498
v -1.8125 0.9999998959078562 1.8125001987035165
v -1.1875 0.9999998959078562 1.8125001987035165
v -1.1875 1.0000001282163298 1.1875001221437498
v -1.8125 0.9375001282163253 1.1875001453745941
v -1.8125 0.9374998959078522 1.8125002219343609
v -1.1875 0.9374998959078522 1.8125002219343609
v -1.1875 0.9375001282163253 1.1875001453745941
v 2.375 -0.06250001948977091 1.9375009022257712
v 2.6249999999999982 -0.06250001948977146 1.9375009022257705
v 2.374999999999999 -0.25000008468226853 1.937500651561489
v 2.625 -0.25000008468226875 1.937500651561489
v 2.375 -0.06249964349877424 2.0000008612496263
v 2.624999999999999 -0.062499643498774016 2.0000008612496267
v 2.374999999999999 -0.24999970869127164 2.000000610585345
v 2.624999999999999 -0.24999970869127164 2.0000006105853445
v -1.3749999999999996 -0.06250014286952521 -0.9406249533981941
v -1.6250000000000004 -0.06250014286952632 -0.9406249533981943
v -1.3749999999999998 -0.2500002080610264 -0.940624698427285
v -1.625 -0.2500002080610264 -0.940624698427285
v -1.375 -0.06250001322490062 -1.0031252797878325
v -1.625 -0.0625000132249004 -1.0031252797878334
v -1.3750000000000002 -0.25000007841640237 -1.003125024816923
v -1.625 -0.2500000784164018 -1.003125024816924
v 2.625 -0.06250014286952554 -0.9406249533981932
v 2.375 -0.06250014286952577 -0.9406249533981941
v 2.625 -0.25000020806102696 -0.9406246984272848
v 2.375 -0.25000020806102674 -0.9406246984272839
v 2.625 -0.06250001322490062 -1.0031252797878325
v 2.375 -0.06250001322490162 -1.003125279787832
v 2.625 -0.25000007841640215 -1.0031250248169228
v 2.375 -0.25000007841640215 -1.0031250248169228
v -1.25 0.9374997008883528 1.7500001564800802
v -1.75 0.9374997008883528 1.7500001564800802
v -1.25 0.9375003232358332 1.2500001643671863
v -1.75 0.9375003232358332 1.2500001643671863
v -1.25 1.0000000272779914 1.7500002861247048
v -1.75 1.0000000272779914 1.7500002861247048
v -1.25 0.9999997766240669 1.2500001557419722
v -1.75 0.9999997766240669 1.2500001557419722
v 2.25 0.24999979196545752 2.003124947739722
v 2.25 0.7500002897139728 2.00312520272142
v 2.75 0.7500002897139728 2.00312520272142
v 2.75 0.24999979196545752 2.003124947739722
v 2.75 0.7499999137229759 1.940625243697564
v 2.75 0.25000028897586474 1.940625126985705
v 2.25 0.7499999137229759 1.940625243697564
v 2.25 0.25000028897586474 1.940625126985705
v 3 0.12499980988719916 2.0000001006419246
v 2.8125 -0.7500001654647729 2.0000003556034
v 2.8125 -0.06250018483108055 2.0000001552765267
v 2.1875 -0.062500184831081 2.0000001552765267
v 2.1875 -0.7500001654647729 2.0000003556034
v 2.1875 -0.06250016661954616 1.937500155276524
v 2.8125 -0.06250016661954605 1.9375001552765243
v 2.1875 -0.7500001472532383 1.9375003556033972
v 2.8125 -0.7500001472532383 1.9375003556033972
v -1.75 0.812500167477075 0.4999998477736767
v -1.75 0.6874998820635814 0.5000000941200486
v -1.75 0.8125002884964856 0.3750000679958044
v -1.75 0.6875000030829919 0.3750003143421762
v -0.625 0.8125002884964856 0.3750000679958037
v -0.625 0.812500167477075 0.4999998477736767
v -0.625 0.6874998820635814 0.5000000941200486
v -0.625 0.6875000030829918 0.375000314342176
v 0.5 0.8125002884964856 0.3750000679958037
v 0.5 0.812500167477075 0.4999998477736767
v 0.5 0.6875000030829918 0.375000314342176
v 0.5 0.6874998820635813 0.5000000941200484
v 1.625 0.8125002884964855 0.37500006799580354
v 2.75 0.8125002884964855 0.37500006799580354
v 2.75 0.812500167477075 0.4999998477736767
v 1.625 0.812500167477075 0.4999998477736767
v 2.75 0.6874998820635811 0.5000000941200483
v 1.625 0.6874998820635813 0.5000000941200484
v 1.625 0.6875000030829918 0.375000314342176
v 2.75 0.6875000030829918 0.375000314342176
v -1.75 0.8125011507068194 0.8125000679949549
v -0.625 0.8125011507068192 0.8125000679949546
v -0.625 0.8125010296874089 0.9374998477728272
v -1.75 0.8125010296874094 0.9374998477728274
v -0.625 0.6875007442739149 0.9375000941191994
v -1.75 0.6875007442739149 0.9375000941191994
v -0.625 0.6875008652933257 0.8125003143413267
v -1.75 0.6875008652933254 0.8125003143413272
v 0.5 0.6875008652933248 0.812500314341327
v 0.5 0.8125011507068192 0.8125000679949546
v 0.5 0.8125010296874089 0.9374998477728272
v 0.5 0.6875007442739149 0.9375000941191994
v 1.625 0.8125010296874089 0.9374998477728272
v 1.625 0.6875007442739146 0.9375000941191991
v 1.625 0.8125011507068192 0.8125000679949546
v 1.625 0.6875008652933251 0.8125003143413267
v 2.75 0.8125010296874089 0.9374998477728272
v 2.75 0.6875007442739145 0.9375000941191989
v 2.75 0.8125011507068189 0.8125000679949542
v 2.75 0.6875008652933251 0.8125003143413267
v 3 -0.5000021014297238 1.1249986382387651
v 3 -0.49999882165953924 1.8749968232880752
v 3 -0.6874990331576012 1.8749976246092643
v 3 -0.6875023904594817 1.1249995888702642
v 3 0.7499999030128804 1.1249921512968206
v 3 0.7500000034700305 1.8749964590577275
v 3 0.9374998272394659 1.8749964044231757
v 3 0.9374997267823164 1.1249920966622688
v 2.9375 0.7499999030128804 1.1249921512968206
v 2.9375 0.7500000034700305 1.8749964590577275
v 2.9375 0.9374998272394659 1.8749964044231757
v 2.9375 0.9374997267823164 1.1249920966622688
v 2.9375 -0.49999882165953924 1.8749968232880752
v 2.9375 -0.5000021014297238 1.1249986382387651
v 2.9375 -0.6875023904594817 1.1249995888702642
v 2.9375 -0.6874990331576012 1.8749976246092643
v -1.84375 -0.515625 0.0046874999999997335
v -1.84375 -0.07812500000000008 0.004687499999999956
v -1.21875 -0.07812500000000008 0.004687499999999956
v -1.21875 -0.515625 0.0046874999999997335
v 2.15625 -0.515625 0.0046874999999997335
v 2.15625 -0.07812500000000008 0.004687499999999956
v 2.78125 -0.07812500000000008 0.004687499999999956
v 2.78125 -0.515625 0.0046874999999997335
v -1 -1.0000002263283652 0.9999998527991135
v 2 -1.0000002263283652 0.9999998527991135
v 0 -0.9999999007247591 -2.4826360300878036e-8
v 1 -0.9999999007247591 -2.4826360300878036e-8
vt 0.9999999999999997 0.7500015625
vt 0.7499999999999996 0.7500015625
vt 0.7499999999999996 1
vt 0.9999999999999997 1
vt 0.5 0.25
vt 0.75 0.25
vt 0.75 0
vt 0.5 0
vt 0.75 0.46875
vt 1 0.46875
vt 1 0.25
vt 0.75 0.25
vt 0.75 0.46875
vt 1 0.46875
vt 1 0.25
vt 0.75 0.25
vt 0.5 0.609375
vt 0.515625 0.609375
vt 0.515625 0.484375
vt 0.5 0.484375
vt 0.609375 0.609375
vt 0.625 0.609375
vt 0.625 0.484375
vt 0.609375 0.484375
vt 0.625 0.609375
vt 0.5 0.609375
vt 0.5 0.59375
vt 0.625 0.59375
vt 0.625 0.5
vt 0.5 0.5
vt 0.5 0.484375
vt 0.625 0.484375
vt 0.5 0.609375
vt 0.625 0.609375
vt 0.625 0.484375
vt 0.5 0.484375
vt 0.015625 0.453125
vt 0.734375 0.453125
vt 0.734375 0.296875
vt 0.015625 0.296875
vt 0.015625 0.40625
vt 0.734375 0.40625
vt 0.734375 0.25
vt 0.015625 0.25
vt 0.015625 1
vt 0.765625 1
vt 0.765625 0.984375
vt 0.015625 0.984375
vt 0 1
vt 0.75 1
vt 0.75 0.875
vt 0 0.875
vt 0 1
vt 0.75 1
vt 0.75 0.875
vt 0 0.875
vt 0.75 0.875
vt 0.75 1
vt 0.765625 1
vt 0.765625 0.875
vt 0.75 0.875
vt 0.75 1
vt 0.765625 1
vt 0.765625 0.875
vt 0.015625 1
vt 0.734375 1
vt 0.734375 0.875
vt 0.015625 0.875
vt 0.015625 1
vt 0.734375 1
vt 0.734375 0.875
vt 0.015625 0.875
vt 0.984375 1
vt 1 1
vt 1 0.28125
vt 0.984375 0.28125
vt 0.015625 0.40625
vt 0.734375 0.40625
vt 0.734375 0.25
vt 0.015625 0.25
vt 0.015625 0.453125
vt 0.734375 0.453125
vt 0.734375 0.296875
vt 0.015625 0.296875
vt 0.015625 1
vt 0.734375 1
vt 0.734375 0.875
vt 0.015625 0.875
vt 0.015625 1
vt 0.734375 1
vt 0.734375 0.875
vt 0.015625 0.875
vt 0.984375 1
vt 1 1
vt 1 0.28125
vt 0.984375 0.28125
vt 0 1
vt 0.75 1
vt 0.75 0.984375
vt 0 0.984375
vt 0 1
vt 0.75 1
vt 0.75 0.875
vt 0 0.875
vt 0 1
vt 0.75 1
vt 0.75 0.875
vt 0 0.875
vt 0.75 1
vt 0.75 0.875
vt 0.734375 0.875
vt 0.734375 1
vt 0.734375 0.875
vt 0.734375 1
vt 0.75 1
vt 0.75 0.875
vt 0.703125 0.265625
vt 0.421875 0.265625
vt 0.421875 0.984375
vt 0.703125 0.984375
vt 0.703125 0.984375
vt 0.421875 0.984375
vt 0.421875 0.265625
vt 0.703125 0.265625
vt 0.75 0.046875
vt 0.75 0.203125
vt 0.765625 0.203125
vt 0.765625 0.046875
vt 0.75 0.21875
vt 0.765625 0.21875
vt 0.765625 0.0625
vt 0.75 0.0625
vt 0 1
vt 0.25 1
vt 0.25 0.75
vt 0 0.75
vt 0 0.375
vt 0.75 0.375
vt 0.65625 0.25
vt 0.09375 0.25
vt 0.09375 0.25
vt 0 0.375
vt 0.75 0.375
vt 0.65625 0.25
vt 0.734375 0.09375
vt 0.734375 0.25
vt 0.75 0.25
vt 0.75 0.09375
vt 0.734375 0.25
vt 0.75 0.25
vt 0.75 0.09375
vt 0.734375 0.09375
vt 0 1
vt 0.25 1
vt 0.25 0.75
vt 0 0.75
vt 0 0.390625
vt 0.75 0.390625
vt 0.65625 0.265625
vt 0.09375 0.265625
vt 0.09375 0.265625
vt 0 0.390625
vt 0.75 0.390625
vt 0.65625 0.265625
vt 0.015625 1
vt 0 1
vt 0 0.921875
vt 0.015625 0.921875
vt 0.015625 1
vt 0 1
vt 0 0.921875
vt 0.015625 0.921875
vt 0.015625 1
vt 0 1
vt 0 0.921875
vt 0.015625 0.921875
vt 0.015625 1
vt 0 1
vt 0 0.921875
vt 0.015625 0.921875
vt 0.015625 1
vt 0 1
vt 0 0.921875
vt 0.015625 0.921875
vt 0.015625 1
vt 0 1
vt 0 0.921875
vt 0.015625 0.921875
vt 0.015625 1
vt 0 1
vt 0 0.921875
vt 0.015625 0.921875
vt 0.015625 1
vt 0 1
vt 0 0.921875
vt 0.015625 0.921875
vt 0.015625 1
vt 0 1
vt 0 0.921875
vt 0.015625 0.921875
vt 0.015625 1
vt 0 1
vt 0 0.921875
vt 0.015625 0.921875
vt 0.015625 1
vt 0 1
vt 0 0.921875
vt 0.015625 0.921875
vt 0.015625 1
vt 0 1
vt 0 0.921875
vt 0.015625 0.921875
vt 0.015625 1
vt 0 1
vt 0 0.921875
vt 0.015625 0.921875
vt 0.015625 1
vt 0 1
vt 0 0.921875
vt 0.015625 0.921875
vt 0.015625 1
vt 0 1
vt 0 0.921875
vt 0.015625 0.921875
vt 0.015625 1
vt 0 1
vt 0 0.921875
vt 0.015625 0.921875
vt 0.015625 1
vt 0 1
vt 0 0.921875
vt 0.015625 0.921875
vt 0.015625 1
vt 0 1
vt 0 0.921875
vt 0.015625 0.921875
vt 0.015625 1
vt 0 1
vt 0 0.921875
vt 0.015625 0.921875
vt 0.015625 1
vt 0 1
vt 0 0.921875
vt 0.015625 0.921875
vt 0.015625 1
vt 0 1
vt 0 0.921875
vt 0.015625 0.921875
vt 0.015625 1
vt 0 1
vt 0 0.921875
vt 0.015625 0.921875
vt 0.015625 1
vt 0 1
vt 0 0.921875
vt 0.015625 0.921875
vt 0.015625 1
vt 0 1
vt 0 0.921875
vt 0.015625 0.921875
vt 0.015625 1
vt 0 1
vt 0 0.921875
vt 0.015625 0.921875
vt 0.015625 1
vt 0 1
vt 0 0.921875
vt 0.015625 0.921875
vt 0.015625 1
vt 0 1
vt 0 0.921875
vt 0.015625 0.921875
vt 0.015625 1
vt 0 1
vt 0 0.921875
vt 0.015625 0.921875
vt 0.015625 1
vt 0 1
vt 0 0.921875
vt 0.015625 0.921875
vt 0.015625 1
vt 0 1
vt 0 0.921875
vt 0.015625 0.921875
vt 0.015625 1
vt 0 1
vt 0 0.921875
vt 0.015625 0.921875
vt 0.015625 1
vt 0 1
vt 0 0.921875
vt 0.015625 0.921875
vt 0 0.5
vt 0.75 0.5
vt 0.75 0.75
vt 0 0.75
vt 0 0.5
vt 0.75 0.5
vt 0.75 0.75
vt 0 0.75
vt 0 0.75
vt 0.25 0.75
vt 0.25 1
vt 0 1
vt 0.5 0.75
vt 0.5 1
vt 0.75 1
vt 0.75 0.75
vt 0 0.5
vt 0.75 0.5
vt 0.75 0.75
vt 0 0.75
vt 1 0.5
vt 0.75 0.5
vt 0.75 0.25
vt 1 0.25
vt 0.5 0.25
vt 0.75 0.25
vt 0.75 0
vt 0.5 0
vt 0.78125 0.21875
vt 0.96875 0.21875
vt 0.96875 0.03125
vt 0.78125 0.03125
vt 0.5 0.25
vt 0.75 0.25
vt 0.75 0
vt 0.5 0
vt 0.5 0.25
vt 0.75 0.25
vt 0.75 0
vt 0.5 0
vt 0.5 0.25
vt 0.75 0.25
vt 0.75 0
vt 0.5 0
vt 0.5 0.25
vt 0.75 0.25
vt 0.75 0
vt 0.5 0
vt 1 0
vt 0.96875 0.03125
vt 0.96875 0.21875
vt 1 0.25
vt 1 0.25
vt 0.96875 0.21875
vt 0.78125 0.21875
vt 0.75 0.25
vt 0.75 0.25
vt 0.78125 0.21875
vt 0.78125 0.03125
vt 0.75 0
vt 0.75 0
vt 0.78125 0.03125
vt 0.96875 0.03125
vt 1 0
vt 0.984375 0.046875
vt 0.96875 0.046875
vt 0.96875 0.234375
vt 0.984375 0.234375
vt 0.96875 0.21875
vt 0.984375 0.21875
vt 0.984375 0.03125
vt 0.96875 0.03125
vt 0.96875 0.21875
vt 0.984375 0.21875
vt 0.984375 0.03125
vt 0.96875 0.03125
vt 0.96875 0.21875
vt 0.984375 0.21875
vt 0.984375 0.03125
vt 0.96875 0.03125
vt 0.046875 0.25
vt 0.078125 0.25
vt 0.078125 0.234375
vt 0.046875 0.234375
vt 0.03125 0.265625
vt 0.046875 0.265625
vt 0.046875 0.234375
vt 0.03125 0.234375
vt 0.078125 0.25
vt 0.09375 0.25
vt 0.09375 0.234375
vt 0.078125 0.234375
vt 0.03125 0.25
vt 0.046875 0.25
vt 0.046875 0.234375
vt 0.03125 0.234375
vt 0.046875 0.25
vt 0.078125 0.25
vt 0.078125 0.234375
vt 0.046875 0.234375
vt 0.03125 0.265625
vt 0.046875 0.265625
vt 0.046875 0.234375
vt 0.03125 0.234375
vt 0.078125 0.25
vt 0.09375 0.25
vt 0.09375 0.234375
vt 0.078125 0.234375
vt 0.03125 0.25
vt 0.046875 0.25
vt 0.046875 0.234375
vt 0.03125 0.234375
vt 0.375 0.609375
vt 0.5 0.609375
vt 0.5 0.484375
vt 0.375 0.484375
vt 0.375 0.609375
vt 0.390625 0.609375
vt 0.390625 0.484375
vt 0.375 0.484375
vt 0.5 0.484375
vt 0.484375 0.484375
vt 0.484375 0.609375
vt 0.5 0.609375
vt 0.484375 0.609375
vt 0.5 0.609375
vt 0.5 0.484375
vt 0.484375 0.484375
vt 0.375 0.609375
vt 0.390625 0.609375
vt 0.390625 0.484375
vt 0.375 0.484375
vt 0.5 0.25
vt 0.75 0.25
vt 0.75 0
vt 0.5 0
vt 0.78125 0.21875
vt 0.96875 0.21875
vt 0.96875 0.03125
vt 0.78125 0.03125
vt 0.5 0.25
vt 0.75 0.25
vt 0.75 0
vt 0.5 0
vt 0.5 0.25
vt 0.75 0.25
vt 0.75 0
vt 0.5 0
vt 0.5 0.25
vt 0.75 0.25
vt 0.75 0
vt 0.5 0
vt 0.5 0.25
vt 0.75 0.25
vt 0.75 0
vt 0.5 0
vt 1 0
vt 0.96875 0.03125
vt 0.96875 0.21875
vt 1 0.25
vt 1 0.25
vt 0.96875 0.21875
vt 0.78125 0.21875
vt 0.75 0.25
vt 0.75 0.25
vt 0.78125 0.21875
vt 0.78125 0.03125
vt 0.75 0
vt 0.75 0
vt 0.78125 0.03125
vt 0.96875 0.03125
vt 1 0
vt 0.984375 0.046875
vt 0.96875 0.046875
vt 0.96875 0.234375
vt 0.984375 0.234375
vt 0.96875 0.21875
vt 0.984375 0.21875
vt 0.984375 0.03125
vt 0.96875 0.03125
vt 0.96875 0.21875
vt 0.984375 0.21875
vt 0.984375 0.03125
vt 0.96875 0.03125
vt 0.96875 0.21875
vt 0.984375 0.21875
vt 0.984375 0.03125
vt 0.96875 0.03125
vt 0.046875 0.25
vt 0.078125 0.25
vt 0.078125 0.234375
vt 0.046875 0.234375
vt 0.03125 0.265625
vt 0.046875 0.265625
vt 0.046875 0.234375
vt 0.03125 0.234375
vt 0.078125 0.25
vt 0.09375 0.25
vt 0.09375 0.234375
vt 0.078125 0.234375
vt 0.03125 0.25
vt 0.046875 0.25
vt 0.046875 0.234375
vt 0.03125 0.234375
vt 0.046875 0.25
vt 0.078125 0.25
vt 0.078125 0.234375
vt 0.046875 0.234375
vt 0.03125 0.265625
vt 0.046875 0.265625
vt 0.046875 0.234375
vt 0.03125 0.234375
vt 0.078125 0.25
vt 0.09375 0.25
vt 0.09375 0.234375
vt 0.078125 0.234375
vt 0.03125 0.25
vt 0.046875 0.25
vt 0.046875 0.234375
vt 0.03125 0.234375
vt 0.375 0.609375
vt 0.5 0.609375
vt 0.5 0.484375
vt 0.375 0.484375
vt 0.375 0.609375
vt 0.390625 0.609375
vt 0.390625 0.484375
vt 0.375 0.484375
vt 0.5 0.484375
vt 0.484375 0.484375
vt 0.484375 0.609375
vt 0.5 0.609375
vt 0.484375 0.609375
vt 0.5 0.609375
vt 0.5 0.484375
vt 0.484375 0.484375
vt 0.375 0.609375
vt 0.390625 0.609375
vt 0.390625 0.484375
vt 0.375 0.484375
vt 0.9999993146281579 0.7499984375
vt 0.749999314628158 0.7499984375
vt 0.749999314628158 1
vt 0.9999993146281579 1
vt 0.9999993146281589 0.75
vt 0.749999314628159 0.75
vt 0.749999314628159 1
vt 0.9999993146281589 1
vt 0.9999995407954705 0.7499997738326885
vt 0.7499997738326885 0.7499997738326885
vt 0.7499997738326883 0.9999995407954704
vt 1 0.9999982767024952
vt 1 0.750000233037218
vt 0.7499993146281587 0.7499989689442428
vt 0.7499993146281587 0.9999987359070248
vt 1 1
vt 0.75 0.46875
vt 1 0.46875
vt 1 0.25
vt 0.75 0.25
vt 0.75 0.46875
vt 1 0.46875
vt 1 0.25
vt 0.75 0.25
vt 0.75 0.46875
vt 1 0.46875
vt 1 0.25
vt 0.75 0.25
vt 0.75 0.46875
vt 1 0.46875
vt 1 0.25
vt 0.75 0.25
vt 1 0
vt 0.875 0
vt 0.875 0.015625
vt 1 0.015625
vt 0.75 0.25
vt 0.75 0.125
vt 0.953125 0.125
vt 0.953125 0.25
vt 0.703125 0
vt 0.703125 0.125
vt 0.5 0.125
vt 0.5 0
vt 1 0
vt 1 0.015625
vt 0.796875 0.015625
vt 0.796875 0
vt 0.953125 0
vt 0.953125 0.109375
vt 0.75 0.109375
vt 0.75 0
vt 0.890625 0.015625
vt 1 0.015625
vt 1 0
vt 0.890625 0
vt 0.5 0.25
vt 0.5 0.140625
vt 0.703125 0.140625
vt 0.703125 0.25
vt 0.40625 0.96875
vt 0.40625 1
vt 0.390625 1
vt 0.390625 0.96875
vt 0.5625 0.96875
vt 0.5625 1
vt 0.546875 1
vt 0.546875 0.96875
vt 0.53125 0.984375
vt 0.53125 1
vt 0.328125 1
vt 0.328125 0.984375
vt 0.4375 0.9375
vt 0.4375 0.953125
vt 0.234375 0.953125
vt 0.234375 0.9375
vt 0.515625 0.96875
vt 0.515625 1
vt 0.3125 1
vt 0.3125 0.96875
vt 0.3125 0.96875
vt 0.3125 1
vt 0.109375 1
vt 0.109375 0.96875
vt 0.96875 0.96875
vt 0.96875 1
vt 1 1
vt 1 0.96875
vt 0 0.96875
vt 0.15625 0.96875
vt 0.15625 1
vt 0 1
vt 0.15625 0.96875
vt 0 0.96875
vt 0 1
vt 0.15625 1
vt 0 0.96875
vt 0.15625 0.96875
vt 0.15625 1
vt 0 1
vt 0.15625 0.96875
vt 0 0.96875
vt 0 1
vt 0.15625 1
vt 0.0234375 0.9765625
vt 0 0.9765625
vt 0 1
vt 0.0234375 1
vt 0.03125 0.03125
vt 0.03125 0
vt 0.0078125 0
vt 0 0.03125
vt 0.78125 1
vt 0.78125 0.96875
vt 0.75 0.96875
vt 0.7578125 1
vt 0.78125 0.96875
vt 0.75 0.96875
vt 0.75 0.9921875
vt 0.78125 1
vt 1 0.96875
vt 0.96875 0.96875
vt 0.96875 1
vt 1 0.9921875
vt 0 0.28125
vt 0.15625 0.28125
vt 0.15625 0.25
vt 0 0.25
vt 0.96875 0.25
vt 0.96875 0.28125
vt 1 0.28125
vt 1 0.25
vt 0.15625 0.03125
vt 0 0.03125
vt 0 0
vt 0.15625 0
vt 0.15625 0.03125
vt 0 0.03125
vt 0 0
vt 0.15625 0
vt 0.78125 1
vt 0.78125 0.96875
vt 0.75 0.96875
vt 0.75 1
vt 0.78125 0.28125
vt 0.78125 0.25
vt 0.75 0.25
vt 0.75 0.28125
vt 0 0.28125
vt 0.15625 0.28125
vt 0.15625 0.25
vt 0 0.25
vt 0.96875 0.25
vt 0.96875 0.28125
vt 1 0.28125
vt 0.9921875 0.25
vt 1 0.9765625
vt 0.9765625 0.9765625
vt 0.9765625 1
vt 1 1
vt 0.96875 0.96875
vt 0.96875 1
vt 0.9921875 1
vt 1 0.96875
vt 0.75 0.234375
vt 0.78125 0.234375
vt 0.78125 0.265625
vt 0.75 0.2578125
vt 0.9765625 0.2734375
vt 1 0.2734375
vt 1 0.25
vt 0.9765625 0.25
vt 0 0.0234375
vt 0.0234375 0.0234375
vt 0.0234375 0
vt 0 0
vt 0.96875 0.28125
vt 1 0.28125
vt 1 0.2578125
vt 0.96875 0.25
vt 0.96875 0.96875
vt 0.96875 1
vt 1 1
vt 1 0.96875
vt 0 0.96875
vt 0.15625 0.96875
vt 0.15625 1
vt 0 1
vt 0.15625 0.96875
vt 0 0.96875
vt 0 1
vt 0.15625 1
vt 0 0.96875
vt 0.15625 0.96875
vt 0.15625 1
vt 0 1
vt 0.15625 0.96875
vt 0 0.96875
vt 0 1
vt 0.15625 1
vt 0.0234375 0.9765625
vt 0 0.9765625
vt 0 1
vt 0.0234375 1
vt 0.03125 0.03125
vt 0.03125 0
vt 0.0078125 0
vt 0 0.03125
vt 0.78125 1
vt 0.78125 0.96875
vt 0.75 0.96875
vt 0.7578125 1
vt 0.78125 0.96875
vt 0.75 0.96875
vt 0.75 0.9921875
vt 0.78125 1
vt 1 0.96875
vt 0.96875 0.96875
vt 0.96875 1
vt 1 0.9921875
vt 0 0.28125
vt 0.15625 0.28125
vt 0.15625 0.25
vt 0 0.25
vt 0.96875 0.25
vt 0.96875 0.28125
vt 1 0.28125
vt 1 0.25
vt 0.15625 0.03125
vt 0 0.03125
vt 0 0
vt 0.15625 0
vt 0.15625 0.03125
vt 0 0.03125
vt 0 0
vt 0.15625 0
vt 0.78125 1
vt 0.78125 0.96875
vt 0.75 0.96875
vt 0.75 1
vt 0.78125 0.28125
vt 0.78125 0.25
vt 0.75 0.25
vt 0.75 0.28125
vt 0 0.28125
vt 0.15625 0.28125
vt 0.15625 0.25
vt 0 0.25
vt 0.96875 0.25
vt 0.96875 0.28125
vt 1 0.28125
vt 0.9921875 0.25
vt 1 0.9765625
vt 0.9765625 0.9765625
vt 0.9765625 1
vt 1 1
vt 0.96875 0.96875
vt 0.96875 1
vt 0.9921875 1
vt 1 0.96875
vt 0.75 0.234375
vt 0.78125 0.234375
vt 0.78125 0.265625
vt 0.75 0.2578125
vt 0.9765625 0.2734375
vt 1 0.2734375
vt 1 0.25
vt 0.9765625 0.25
vt 0 0.0234375
vt 0.0234375 0.0234375
vt 0.0234375 0
vt 0 0
vt 0.96875 0.28125
vt 1 0.28125
vt 1 0.2578125
vt 0.96875 0.25
vt 0.875 0
vt 0.875 0.015625
vt 1 0.015625
vt 1 0
vt 1 0.125
vt 0.796875 0.125
vt 0.796875 0.25
vt 1 0.25
vt 0.5 0.125
vt 0.703125 0.125
vt 0.703125 0
vt 0.5 0
vt 0.796875 0.015625
vt 1 0.015625
vt 1 0
vt 0.796875 0
vt 0.796875 0.109375
vt 1 0.109375
vt 1 0
vt 0.796875 0
vt 0.703125 0.140625
vt 0.5 0.140625
vt 0.5 0.25
vt 0.703125 0.25
vt 1 0.015625
vt 1 0
vt 0.890625 0
vt 0.890625 0.015625
vt 0.390625 1
vt 0.40625 1
vt 0.40625 0.96875
vt 0.390625 0.96875
vt 0.546875 1
vt 0.5625 1
vt 0.5625 0.96875
vt 0.546875 0.96875
vt 0.328125 1
vt 0.53125 1
vt 0.53125 0.984375
vt 0.328125 0.984375
vt 0.234375 0.953125
vt 0.4375 0.953125
vt 0.4375 0.9375
vt 0.234375 0.9375
vt 0.3125 1
vt 0.515625 1
vt 0.515625 0.96875
vt 0.3125 0.96875
vt 0.109375 1
vt 0.3125 1
vt 0.3125 0.96875
vt 0.109375 0.96875
vt 0.5 0.609375
vt 0.515625 0.609375
vt 0.515625 0.484375
vt 0.5 0.484375
vt 0.609375 0.609375
vt 0.625 0.609375
vt 0.625 0.484375
vt 0.609375 0.484375
vt 0.625 0.609375
vt 0.5 0.609375
vt 0.5 0.59375
vt 0.625 0.59375
vt 0.625 0.5
vt 0.5 0.5
vt 0.5 0.484375
vt 0.625 0.484375
vt 0.5 0.609375
vt 0.625 0.609375
vt 0.625 0.484375
vt 0.5 0.484375
vt 0.25 0.125
vt 0.5 0.125
vt 0.5 0.0625
vt 0.25 0.0625
vt 0.109375 0.125
vt 0.359375 0.125
vt 0.359375 0.0625
vt 0.109375 0.0625
vt 0 0.125
vt 0.25 0.125
vt 0.25 0.0625
vt 0 0.0625
vt 0 0.125
vt 0.25 0.125
vt 0.25 0.0625
vt 0 0.0625
vt 0.25 0.125
vt 0.5 0.125
vt 0.5 0.0625
vt 0.25 0.0625
vt 0.125 0.125
vt 0.375 0.125
vt 0.375 0.0625
vt 0.125 0.0625
vt 0 0.125
vt 0.25 0.125
vt 0.25 0.0625
vt 0 0.0625
vt 0.125 0.125
vt 0.375 0.125
vt 0.375 0.0625
vt 0.125 0.0625
vt 0.125 0.125
vt 0.375 0.125
vt 0.375 0.0625
vt 0.125 0.0625
vt 0.25 0.125
vt 0.5 0.125
vt 0.5 0.0625
vt 0.25 0.0625
vt 0.25 0.125
vt 0.4999997669583349 0.12499850883770003
vt 0.4999997669583349 0.06249974476788889
vt 0.2500003456708981 0.06249905342609274
vt 0 0.125
vt 0.24999976695833492 0.12499850883770003
vt 0.24999976695833492 0.06249974476788889
vt 3.4567089812753693e-7 0.06249905342609274
vt 0.796875 0.046875
vt 0.75 0
vt 0.75 0.25
vt 0.796875 0.203125
vt 0.953125 0.046875
vt 1 0
vt 0.75 0
vt 0.796875 0.046875
vt 1 0.25
vt 1 0
vt 0.953125 0.046875
vt 0.953125 0.203125
vt 0.796875 0.203125
vt 0.75 0.25
vt 1 0.25
vt 0.953125 0.203125
vt 0.953125 0.203125
vt 0.953125 0.046875
vt 0.796875 0.046875
vt 0.796875 0.203125
vt 0.3906250000000007 0.5781189171799628
vt 0.546875815856031 0.5781250000000006
vt 0.546875815856031 0.5624988152792896
vt 0.3906259183678681 0.5624939965821533
vt 0.3593749999999986 0.5312499999999998
vt 0.5156249999999986 0.5312499999999998
vt 0.5156249999999986 0.5156249999999998
vt 0.3593749999999986 0.5156249999999998
vt 0.40625118469372 0.6406249999999998
vt 0.4062542856469725 0.4843741840563387
vt 0.39062936502217416 0.4843741840563387
vt 0.3906250000000001 0.6406240815578341
vt 0.5156249999999986 0.6093749999999998
vt 0.3593749999999986 0.6093749999999998
vt 0.3593749999999986 0.5937499999999998
vt 0.5156249999999986 0.5937499999999998
vt 0 0.734375
vt 0.0625 0.734375
vt 0.0625 0.6875
vt 0 0.6875
vt 0 0.734375
vt 0.015625 0.734375
vt 0.015625 0.671875
vt 0 0.671875
vt 0.046875 0.734375
vt 0.0625 0.734375
vt 0.0625 0.6875
vt 0.046875 0.6875
vt 0 0.734375
vt 0.015625 0.734375
vt 0.015625 0.6875
vt 0 0.6875
vt 0 0.734375
vt 0.0625 0.734375
vt 0.0625 0.6875
vt 0 0.6875
vt 0 0.734375
vt 0.015625 0.734375
vt 0.015625 0.671875
vt 0 0.671875
vt 0.046875 0.734375
vt 0.0625 0.734375
vt 0.0625 0.6875
vt 0.046875 0.6875
vt 0 0.734375
vt 0.015625 0.734375
vt 0.015625 0.6875
vt 0 0.6875
vt 0.0625 0.734375
vt 0.125 0.734375
vt 0.125 0.6875
vt 0.0625 0.6875
vt 0.0625 0.734375
vt 0.078125 0.734375
vt 0.078125 0.671875
vt 0.0625 0.671875
vt 0.109375 0.734375
vt 0.125 0.734375
vt 0.125 0.6875
vt 0.109375 0.6875
vt 0.0625 0.734375
vt 0.078125 0.734375
vt 0.078125 0.6875
vt 0.0625 0.6875
vt 0 0.609375
vt 0.125 0.609375
vt 0.125 0.484375
vt 0 0.484375
vt 0 0.609375
vt 0.015625 0.609375
vt 0.015625 0.484375
vt 0 0.484375
vt 0.125 0.484375
vt 0.109375 0.484375
vt 0.109375 0.609375
vt 0.125 0.609375
vt 0.109375 0.609375
vt 0.125 0.609375
vt 0.125 0.484375
vt 0.109375 0.484375
vt 0 0.609375
vt 0.015625 0.609375
vt 0.015625 0.484375
vt 0 0.484375
vt 0.625 0.609375
vt 0.640625 0.609375
vt 0.640625 0.484375
vt 0.625 0.484375
vt 0.734375 0.609375
vt 0.75 0.609375
vt 0.75 0.484375
vt 0.734375 0.484375
vt 0.75 0.609375
vt 0.625 0.609375
vt 0.625 0.59375
vt 0.75 0.59375
vt 0.75 0.5
vt 0.625 0.5
vt 0.625 0.484375
vt 0.75 0.484375
vt 0.625 0.609375
vt 0.75 0.609375
vt 0.75 0.484375
vt 0.625 0.484375
vt 0.75 0.03125
vt 0.5 0.03125
vt 0.5 0.25
vt 0.75 0.25
vt 0.953125 0.203125
vt 1 0.25
vt 1 0.03125
vt 0.953125 0.03125
vt 0.796875 0.203125
vt 0.75 0.25
vt 1 0.25
vt 0.953125 0.203125
vt 0.75 0.03125
vt 0.75 0.25
vt 0.796875 0.203125
vt 0.796875 0.03125
vt 0.796875 0.203125
vt 0.953125 0.203125
vt 0.953125 0.03125
vt 0.796875 0.03125
vt 0.48437492061975984 0.48437518181827866
vt 0.46875000000000044 0.4843747849996771
vt 0.46875000000000044 0.6562496031813991
vt 0.48437492061975995 0.6562500000000007
vt 0.5156250000000004 0.6093749999999987
vt 0.5156250000000004 0.5937499999999987
vt 0.35937500000000033 0.5937499999999987
vt 0.35937500000000033 0.6093749999999987
vt 0.48437521500032366 0.5624999999999992
vt 0.484374818181722 0.5468750793802397
vt 0.3125 0.5468750793802398
vt 0.31250039681860164 0.5624999999999993
vt 0.5156250000000014 0.5156249999999987
vt 0.5156250000000014 0.49999999999999867
vt 0.3593750000000014 0.49999999999999867
vt 0.3593750000000014 0.5156249999999987
vt 0.5625 0.4375
vt 0.5 0.4375
vt 0.5 1
vt 0.5625 1
vt 0.5 0.4375
vt 0.5625 0.4375
vt 0.5625 1
vt 0.5 1
vt 0.5 0.4375
vt 0.5625 0.4375
vt 0.5625 1
vt 0.5 1
vt 0.5625 0.4375
vt 0.5 0.4375
vt 0.5 1
vt 0.5625 1
vt 0.5625 0
vt 0.5 0
vt 0.5 0.5625
vt 0.5625 0.5625
vt 0.5 0
vt 0.5625 0
vt 0.5625 0.5625
vt 0.5 0.5625
vt 0.5 0
vt 0.5625 0
vt 0.5625 0.5625
vt 0.5 0.5625
vt 0.5625 0
vt 0.5 0
vt 0.5 0.5625
vt 0.5625 0.5625
vt 0.5625 0
vt 0.5 0
vt 0.5 0.5625
vt 0.5625 0.5625
vt 0.5 0
vt 0.5625 0
vt 0.5625 0.5625
vt 0.5 0.5625
vt 0.5 0
vt 0.5625 0
vt 0.5625 0.5625
vt 0.5 0.5625
vt 0.5625 0
vt 0.5 0
vt 0.5 0.5625
vt 0.5625 0.5625
vt 0.5625 1
vt 0.5 1
vt 0.5 0.4375
vt 0.5625 0.4375
vt 0.5 1
vt 0.5625 1
vt 0.5625 0.4375
vt 0.5 0.4375
vt 0.5 1
vt 0.5625 1
vt 0.5625 0.4375
vt 0.5 0.4375
vt 0.5625 1
vt 0.5 1
vt 0.5 0.4375
vt 0.5625 0.4375
vt 0.5625 0.4375
vt 0.5 0.4375
vt 0.5 1
vt 0.5625 1
vt 0.5 0.4375
vt 0.5625 0.4375
vt 0.5625 1
vt 0.5 1
vt 0.5 0.4375
vt 0.5625 0.4375
vt 0.5625 1
vt 0.5 1
vt 0.5625 0.4375
vt 0.5 0.4375
vt 0.5 1
vt 0.5625 1
vt 0.5625 0
vt 0.5 0
vt 0.5 0.5625
vt 0.5625 0.5625
vt 0.5 0
vt 0.5625 0
vt 0.5625 0.5625
vt 0.5 0.5625
vt 0.5 0
vt 0.5625 0
vt 0.5625 0.5625
vt 0.5 0.5625
vt 0.5625 0
vt 0.5 0
vt 0.5 0.5625
vt 0.5625 0.5625
vt 0.5625 0
vt 0.5 0
vt 0.5 0.5625
vt 0.5625 0.5625
vt 0.5 0
vt 0.5625 0
vt 0.5625 0.5625
vt 0.5 0.5625
vt 0.5 0
vt 0.5625 0
vt 0.5625 0.5625
vt 0.5 0.5625
vt 0.5625 0
vt 0.5 0
vt 0.5 0.5625
vt 0.5625 0.5625
vt 0.5625 1
vt 0.5 1
vt 0.5 0.4375
vt 0.5625 0.4375
vt 0.5 1
vt 0.5625 1
vt 0.5625 0.4375
vt 0.5 0.4375
vt 0.5 1
vt 0.5625 1
vt 0.5625 0.4375
vt 0.5 0.4375
vt 0.5625 1
vt 0.5 1
vt 0.5 0.4375
vt 0.5625 0.4375
vt 0.43750000000000006 0.25
vt 0.500001370746447 1
vt 0.5000013707464466 0.12499920223797745
vt 0.4375003733411178 0.15624980613545447
vt 0 0.12500162628840883
vt 0.000004365004931478067 1
vt 0.06250306133775221 0.24999841034157833
vt 0.06250350933358459 0.15624817771113875
vt 0.4375003733411178 0.15624980613545447
vt 0.5000013707464466 0.12499920223797745
vt 0 0.12500162628840883
vt 0.06250350933358459 0.15624817771113875
vt 0.06250350933358459 0.15624817771113875
vt 0.06250306133775221 0.24999841034157833
vt 0.43750000000000006 0.25
vt 0.4375003733411178 0.15624980613545447
vt 0.500001370746447 1
vt 0.43750000000000006 0.25
vt 0.4374999999999999 0.875
vt 0.000004365004931478067 1
vt 0.500001370746447 1
vt 0.4375000000000001 0.96875
vt 0.06250000000000006 0.9687500000000001
vt 0.06250306133775221 0.24999841034157833
vt 0.000004365004931478067 1
vt 0.06250000000000003 0.875
vt 0.4374999999999999 0.875
vt 0.43750000000000006 0.25
vt 0.06250306133775221 0.24999841034157833
vt 0.06250000000000003 0.875
vt 0.4375000000000001 0.96875
vt 0.4374999999999999 0.875
vt 0.06250000000000003 0.875
vt 0.06250000000000006 0.9687500000000001
vt 0.4374999999999999 0.875
vt 0.4375000000000001 0.96875
vt 0.500001370746447 1
vt 0.06250000000000006 0.9687500000000001
vt 0.06250000000000003 0.875
vt 0.000004365004931478067 1
vt 0.0625 0.84375
vt 0.0625 0.875
vt 0.4375 0.875
vt 0.4375 0.84375
vt 0.46875000000000067 0.875
vt 0.43750000000000067 0.875
vt 0.43750000000000067 0.96875
vt 0.46875000000000067 0.96875
vt 0.0625 0.96875
vt 0.0625 1
vt 0.4375 1
vt 0.4375 0.96875
vt 0.03125000000000289 0.96875
vt 0.06250000000000289 0.96875
vt 0.06250000000000289 0.875
vt 0.03125000000000289 0.875
vt 0.4375 0.28125
vt 0.4375 0.25
vt 0.0625 0.25
vt 0.0625 0.28125
vt 0.03125000000000289 0.24999999999999878
vt 0.06250000000000289 0.24999999999999878
vt 0.06250000000000289 0.15624999999999878
vt 0.03125000000000289 0.15624999999999878
vt 0.0625 0.125
vt 0.0625 0.15625
vt 0.4375 0.15625
vt 0.4375 0.125
vt 0.46875000000000067 0.15624999999999878
vt 0.43750000000000067 0.15624999999999878
vt 0.43750000000000067 0.24999999999999878
vt 0.46875000000000067 0.24999999999999878
vt 0.5625 0.78125
vt 0.875 0.78125
vt 0.875 0.5625
vt 0.5625 0.5625
vt 0.5625 0.78125
vt 0.875 0.78125
vt 0.875 0.5625
vt 0.5625 0.5625
vt 0 0.96875
vt 0.75 0.96875
vt 0.75 0.71875
vt 0 0.71875
vt 0.25 0.5
vt 0.25 0.25
vt 0 0.25
vt 1.3877787807814457e-17 0.5
vt 0.5 0.25
vt 0.5 0.5
vt 0.75 0.5
vt 0.75 0.25
vt 0.75 0.75
vt 0.5 0.75
vt 0.5 1
vt 0.75 1
vt 0.5 0.5
vt 0.5 0.25
vt 0.75 0.25
vt 0.75 0.5
vt 0.24999999423371078 0.7500000057662891
vt 0 0.7500000057662892
vt 6.938893903907228e-17 0.9999999942337109
vt 0.24999999423371083 0.9999999942337108
vt 0.5 0.75
vt 0.25 0.75
vt 0.25 0.25
vt 0.5 0.25
vt 0.7499999942337108 0.7500000115325782
vt 0.5 0.7500000115325784
vt 0.5 1
vt 0.7499999942337108 0.9999999999999999
vt 0.5 0.75
vt 0.25 0.75
vt 0.25 0.25
vt 0.5 0.25
vt 0.9999987359116687 0.7500002330404139
vt 0.7499993146249629 0.7499993146249628
vt 0.7499993146249628 1
vt 1 1
vn 0 1.2846214370032527e-7 -0.9999999999999919
vn 5.551116482428491e-17 0.999999999999991 -1.3394209741335314e-7
vn 0 -2.9138455126531676e-7 -0.9999999999999576
vn -1 0 0
vn 1 0 0
vn -1 0 0
vn 0 0.9999999999819047 -0.00000601585989373765
vn 0 -0.9999999999683813 -0.000007952189321147605
vn 0 -5.099628881399808e-7 0.9999999999998701
vn 0 0.587785252292473 0.8090169943749475
vn 0 -0.587317416052782 -0.8093566907124963
vn 0 0.9999999999999994 3.4603146792377963e-8
vn -1 0 0
vn 1 0 0
vn 0 5.099628879734475e-7 -0.9999999999998701
vn 0 5.013077163384948e-7 0.9999999999998743
vn 0 -2.3342389326996832e-7 0.9999999999999728
vn 0 0.00047320544742024395 -0.9999998880382961
vn 0 0.9999999999683813 0.000007952189321036583
vn 0 -0.5877853688905919 0.8090169096614426
vn 0 0.5877851188905789 -0.8090170912970802
vn 0 5.013077163384948e-7 0.9999999999998743
vn 0 2.3342389310343492e-7 -0.9999999999999729
vn 0 0.9999999999819047 -0.00000601585989373765
vn 0 0.9999999999999994 3.4603146792377963e-8
vn 1 0 0
vn -1 0 0
vn 0 5.013077163384948e-7 0.9999999999998743
vn 0 0.00047320544742024395 -0.9999998880382961
vn 0 0.9999999999999429 -3.3803415383504287e-7
vn 0 0.9999999999999938 1.114196793716715e-7
vn 0 -0.6000002456475608 0.7999998157642704
vn 0.0018673489236471275 -0.599998967139449 -0.7999985952735116
vn 0 -0.9999999999999936 1.1330720067759256e-7
vn 1 0 0
vn -1 0 0
vn 0 -0.6000002456475608 0.7999998157642704
vn -0.0018666374635011068 -0.6001482885901186 -0.7998865840648484
vn 0 -0.9999999999999936 1.1330720067759256e-7
vn 1 0 0
vn -1 0 0
vn 0 -0.34201964019780734 -0.9396928039093215
vn 0 0.34201964019780734 0.9396928039093215
vn -1 0 0
vn 1 0 0
vn 0 -0.34201964019780734 -0.9396928039093215
vn 0 0.34201964019780734 0.9396928039093215
vn -1 0 0
vn 1 0 0
vn 0 -0.34201964019780734 -0.9396928039093215
vn 0 0.34201964019780734 0.9396928039093215
vn -1 0 0
vn 1 0 0
vn 0 -0.34201964019780734 -0.9396928039093215
vn 0 0.34201964019780734 0.9396928039093215
vn -1 0 0
vn 1 0 0
vn 0 -0.3420210717751997 0.9396922828573956
vn 0 0.34202107177519947 -0.9396922828573958
vn 1 0 0
vn -1 0 0
vn 0 -0.3420210717751997 0.9396922828573956
vn 0 0.34202107177519947 -0.9396922828573958
vn 1 0 0
vn -1 0 0
vn 0 -0.3420210717751997 0.9396922828573956
vn 0 0.34202107177519947 -0.9396922828573958
vn 1 0 0
vn -1 0 0
vn 0 -0.3420210717751997 0.9396922828573956
vn 0 0.34202107177519947 -0.9396922828573958
vn 1 0 0
vn -1 0 0
vn 0 0.9999999999999968 8.069307533276059e-8
vn 0 0.9999999999999968 8.069307527724944e-8
vn -5.013077167918998e-7 0.9999999999997486 -5.013077165050283e-7
vn -5.013077167918998e-7 0.9999999999997486 -5.013077168380952e-7
vn -2.960594233220266e-16 0.9999999999999968 8.069307533276059e-8
vn -6.525722703609037e-17 0.9999999999998743 -5.013077166160506e-7
vn 0 -3.4951663840931944e-8 0.9999999999999993
vn 0 -1.1486808448868399e-8 -1
vn 0 0.999999999999991 -1.3394209741335314e-7
vn -1.1488640647048958e-7 -0.9999999999999243 -3.716935116360175e-7
vn 1 0 0
vn -1 0 0
vn -0.000001469462117160774 -5.01307716727073e-7 -0.9999999999987947
vn 0 0.000005013234353701267 -0.9999999999874337
vn -0.000005514548561737855 -5.013077166715618e-7 -0.9999999999846694
vn 0 9.681569905217733e-7 -0.9999999999995314
vn -1 0 0
vn 0 -0.9999999999978486 -0.0000020743031611814007
vn 1 0 0
vn 0 0.9999999999819048 -0.000006015859894459295
vn 0 0.000006015859894403784 0.9999999999819047
vn 0 0.9999999999683813 0.000007952189323090496
vn 1 0 0
vn -1 0 0
vn 0 0.000006015859894403784 0.9999999999819047
vn 0 0.9999999999683813 0.000007952189323090496
vn 1 0 0
vn -1 0 0
vn 0 -5.01307716782584e-7 -0.9999999999998744
vn 0 0.9999999999978486 0.000002074303159793622
vn 0 -0.9999999999819047 0.000006015859894403784
vn 1 0 0
vn -1 0 0
vn 0 -4.327771363499266e-9 1
vn 0 -1.1486808448868399e-8 -1
vn 0 0.999999999999991 -1.3394209741335314e-7
vn 1.1488640998876411e-7 -0.9999999999999605 -2.568071155173434e-7
vn 1 0 0
vn -1 0 0
vn -0.0000014694621182709968 -5.01307716727073e-7 -0.9999999999987947
vn 0 0.000005013234353701267 -0.9999999999874337
vn -0.000005514548561737855 -5.013077166715618e-7 -0.9999999999846694
vn 0 9.681569894115503e-7 -0.9999999999995315
vn -1 0 0
vn 0 -0.9999999999978486 -0.0000020743031611814007
vn 1 0 0
vn 0 0.9999999999819048 -0.000006015859894459295
vn 0 0.000006015859894403784 0.9999999999819047
vn 0 0.9999999999683813 0.000007952189323090496
vn 1 0 0
vn -1 0 0
vn 0 0.000006015859894403784 0.9999999999819047
vn 0 0.9999999999683813 0.000007952189323090496
vn 1 0 0
vn -1 0 0
vn 0 -5.01307716782584e-7 -0.9999999999998744
vn 0 0.9999999999978486 0.000002074303159793622
vn 0 -0.9999999999819047 0.000006015859894403784
vn 1 0 0
vn -1 0 0
vn 0 -1.2967448531631118e-7 0.9999999999999916
vn 0 1.2967448514977773e-7 -0.9999999999999916
vn 1 0 0
vn -1 1.0150610139698297e-15 3.454866955619709e-22
vn 0 1.5138960934857337e-7 0.9999999999999887
vn 1 -2.53765269919848e-16 -8.637167946182287e-23
vn 0 -2.913845658092384e-7 -0.9999999999999576
vn -1 -2.03012106895186e-15 -6.909730645355271e-22
vn 0 0.04361917961444627 0.9990482306524359
vn 0 0.9990482113304876 -0.04361962215968268
vn 0 -0.9990482113304876 0.04361962215968268
vn 1 0 0
vn 0 0.9990482113304876 -0.04361962215968262
vn 0 0.043619179614446224 0.999048230652436
vn 0 -0.9990482113304876 0.04361962215968262
vn 0 -0.04362058801790419 -0.9990481691595117
vn 0 0.04987748214679266 0.9987553438028237
vn 0 0.9990482113304875 -0.04361962215968256
vn 0 -0.9986508999418537 0.05192667951377039
vn 1 0 0
vn -1 0 0
vn 0 -9.68156988578883e-7 0.9999999999995314
vn 0 0.9999999999999785 -2.0741525080802953e-7
vn 0 -0.999999999999819 -6.016015061116596e-7
vn 1 0 0
vn -1 0 0
vn 0 -6.224072898186606e-7 -0.9999999999998064
vn 0 0.9701436632663065 -0.2425309725050216
vn 0 -0.970143057497318 -0.24253339561750176
vn 0.9701423996053445 -1.509561913942692e-7 -0.2425360271958817
vn -0.9701423996054166 2.3481294980642886e-7 -0.24253602719552622
vn -1 0 0
vn 0 0.0000019707664778434437 0.9999999999980581
vn 1 0 0
vn 0 0.9999999999999785 -2.0741525080802953e-7
vn 0 -9.68156988578883e-7 0.9999999999995314
vn 0 0.0000019707664778434437 0.9999999999980581
vn 0 -0.999999999999819 -6.016015061116596e-7
vn 0 0.9701436632663065 -0.2425309725050216
vn 0 -6.224072898186606e-7 -0.9999999999998064
vn 0 -0.970143057497318 -0.24253339561750176
vn 0.9701423996054167 2.3481294994520674e-7 -0.24253602719552625
vn 0 -6.224072898186606e-7 -0.9999999999998064
vn 0 -6.224072898186606e-7 -0.9999999999998064
vn -0.9701423996053445 -1.509561913942692e-7 -0.2425360271958817
vn 0 -9.68156988578883e-7 0.9999999999995314
vn 0 0.9999999999999785 -2.0741525080802953e-7
vn 0 -0.999999999999819 -6.016015061116596e-7
vn 1 0 0
vn -1 0 0
vn 0 -6.224072898186606e-7 -0.9999999999998064
vn 0 0.9701436632663065 -0.2425309725050216
vn 0 -0.970143057497318 -0.24253339561750176
vn 0.9701423996053445 -1.509561913942692e-7 -0.2425360271958817
vn -0.9701423996054166 2.3481294980642886e-7 -0.24253602719552622
vn -1 0 0
vn 0 0.0000019707664778434437 0.9999999999980581
vn 1 0 0
vn 0 0.9999999999999785 -2.0741525080802953e-7
vn 0 -9.68156988578883e-7 0.9999999999995314
vn 0 0.0000019707664778434437 0.9999999999980581
vn 0 -0.999999999999819 -6.016015061116596e-7
vn 0 0.9701436632663065 -0.2425309725050216
vn 0 -6.224072898186606e-7 -0.9999999999998064
vn 0 -0.970143057497318 -0.24253339561750176
vn 0.9701423996054167 2.3481294994520674e-7 -0.24253602719552625
vn 0 -6.224072898186606e-7 -0.9999999999998064
vn 0 -6.224072898186606e-7 -0.9999999999998064
vn -0.9701423996053445 -1.509561913942692e-7 -0.2425360271958817
vn 0 -0.2164359483216885 0.976296819760308
vn 0 0.9762960475170671 0.21643943171832764
vn 0 -0.9762960475170672 -0.21643943171832758
vn -1 0 0
vn 0 0.9762960475170672 0.21643943171832775
vn 0 -0.9762960475170671 -0.21643943171832752
vn 0 -0.2164359483216885 0.976296819760308
vn 0 -0.21643918290530534 0.9762961026775042
vn 0 -0.034351153618805357 -0.9994098249692451
vn 0 0.976295937196098 0.21643992934390055
vn 0 -0.9743875000970825 -0.22487552035416863
vn 1 0 0
vn -1 0 0
vn 0 5.01307716394006e-7 0.9999999999998744
vn 0 0.00000124469498069546 -0.9999999999992255
vn 0 0.9999999999999729 2.3342389343650183e-7
vn 0 -0.9999999999998701 -5.099628877514028e-7
vn -1 0 0
vn 0 -5.013077165605394e-7 -0.9999999999998744
vn 0 -5.013077165605394e-7 -0.9999999999998744
vn 0 -5.013077165605394e-7 -0.9999999999998744
vn 1 0 0
vn 1 0 0
vn -2.2033358431111392e-16 -9.68156987746216e-7 0.9999999999995315
vn 0 -9.681569887454167e-7 0.9999999999995315
vn 0 -9.68156987746216e-7 0.9999999999995315
vn 0 -9.68156987746216e-7 0.9999999999995315
vn -1.2249619142179522e-7 -0.0000015212320064739156 0.9999999999988354
vn -1 0 0
vn -1 0 0
vn -6.788814537521829e-8 0.9999999999999343 3.560270160907208e-7
vn 0 0.9999999999999585 2.881388763142922e-7
vn 6.788814515317339e-8 0.9999999999999343 3.5602701603520965e-7
vn 0 0.9999999999999309 3.716934987574304e-7
vn 0 0.9999999999999309 3.716935114139729e-7
vn 1 0 0
vn 0 -3.7169350886046004e-7 -0.999999999999931
vn -1 0 0
vn 0 3.716935101372164e-7 0.9999999999999309
vn -7.185507376469543e-16 -0.0000013368757034726286 0.9999999999991065
vn 2.0816695359151554e-15 0.9999999999819047 -0.0000060158599034521015
vn -1 4.736949924766252e-15 -2.849682706811813e-20
vn 1 1.8998158900933792e-20 -1.4210864032218805e-14
vn 4.243885234017315e-15 -0.0000013598443777684819 -0.9999999999990754
vn -4.440868907233444e-15 0.9999999999978486 0.0000020743031827197274
vn 1 -1.1842471434166477e-15 -7.1053927080765335e-15
vn -1 -9.662224992671321e-21 -7.105390251608867e-15
vn -1.369676652050521e-15 -0.000001359844378823194 -0.9999999999990755
vn -6.383749054148231e-16 0.9999999999978486 0.0000020743031540759733
vn 1 0 0
vn -1 0 0
vn 0 0.9999999999998743 -5.013077183368963e-7
vn 0 -0.0000020743031634018467 0.9999999999978487
vn 0 -1.3800463116719894e-7 -0.9999999999999905
vn 1 0 0
vn -1 0 0
vn 1 0 0
vn -1 0 0
vn 0 0.9999999999819047 -0.00000601585989373765
vn 0 -0.9999999999683813 -0.000007952189322535384
vn 0 -5.099628876403805e-7 0.99999999999987
vn 6.525724589116981e-17 2.91384550987761e-7 0.9999999999999576
vn -3.806479048797177e-16 2.913845511542945e-7 0.9999999999999576
vn 5.551115279495883e-17 2.913845513208279e-7 0.9999999999999576
vn 3.3835369322641575e-16 2.913845511542945e-7 0.9999999999999576
vn -2.8742063507765707e-16 2.913845508212276e-7 0.9999999999999576
vn 1 0 0
vn 2.1094237467876223e-16 -0.9999999999999576 -2.913845583707441e-7
vn -1 0 0
vn 0 0.9999999999999577 2.9138455420740783e-7
vn 0 0.000001970766476067087 0.999999999998058
vn -1.5419729022885115e-16 -0.0000019707664780654883 -0.9999999999980581
vn -8.635083182393813e-17 0.9999999999995315 9.681569908548404e-7
vn 0 -0.9999999999995315 -9.681569879682606e-7
vn 0 0.000001970766474568286 0.999999999998058
vn 0 -0.0000019707664780654883 -0.9999999999980581
vn 0 0.9999999999995315 9.681569908548404e-7
vn -1.1719041461820216e-16 -0.9999999999995315 -9.681569890229724e-7
vn 0 0.000001970766474568286 0.999999999998058
vn 0 -0.0000019707664796198006 -0.999999999998058
vn 1.1102249805934885e-16 0.9999999999995314 9.681569897446172e-7
vn 0 -0.9999999999995315 -9.681569890229724e-7
vn 0 0.000001970766473180507 0.9999999999980581
vn 0 -0.0000019707664796198006 -0.999999999998058
vn 0 0.9999999999995314 9.681569897446172e-7
vn -1.1719041461820233e-16 -0.9999999999995315 -9.681569900776843e-7
vn 8.635048252815664e-17 0.0000019707664780654883 0.9999999999980581
vn -3.9474506298586047e-16 -0.0000019707664774548657 -0.9999999999980581
vn 2.34380829236404e-16 0.9999999999995315 9.681569879682606e-7
vn 0 -0.9999999999995315 -9.68156991909552e-7
vn 0 0.0000019707664780654883 0.9999999999980581
vn 3.0222668884854735e-16 -0.0000019707664802304232 -0.999999999998058
vn 0 0.9999999999995315 9.681569879682606e-7
vn 0 -0.9999999999995315 -9.681569851371918e-7
vn 0 0.000001970766475345442 0.999999999998058
vn -3.1456247206685617e-16 -0.0000019707664773993545 -0.999999999998058
vn 0 0.9999999999995315 9.681569879682606e-7
vn -2.282129126775517e-16 -0.9999999999995315 -9.68156989578084e-7
vn 0 0.0000019707664737911297 0.999999999998058
vn 0 -0.0000019707664796198006 -0.999999999998058
vn 1.727016636478762e-16 0.9999999999995315 9.681569864694593e-7
vn -1.171904146182024e-16 -0.9999999999995315 -9.681569906327958e-7
vn 1 0 0
vn 1 0 0
vn 1 0 0
vn 1 0 0
vn 1 0 0
vn 1 0 0
vn 1 0 0
vn 1 0 0
vn 1 0 0
vn 1 0 0
vn 1 0 0
vn 0 0.9999999999999911 -1.3394209757988662e-7
vn 0 -2.9138455037713834e-7 -0.9999999999999576
vn 0 -0.9999999999999911 1.3394209685824165e-7
vn 0 2.9138455082122755e-7 0.9999999999999576
vn 0 -0.9999999999904384 0.000004373037494953547
vn 0 0.0000050700268454662015 0.9999999999871474
vn 0 0.9999999999899809 -0.000004476414231069369
vn 0 -0.000004273708188229364 -0.9999999999908679
vn 0 -5.551115123125782e-16 1
vn 0 -5.551115123125782e-16 1
vn 0 -0.9999999999999962 8.785211424999771e-8
vn 1.339420646060601e-7 -0.999999999999991 -5.5511151231257815e-17
vn 1.3394218736134226e-7 -0.9999999999998654 5.013077166160506e-7
vn 1.8779502017459385e-16 -0.9999999999999998 1.9055650779531416e-8
vn 1.8779507770105825e-16 -0.9999999999998743 5.01307716449517e-7
vn 3.446592291729335e-7 -0.9999999999999076 -2.568071155173434e-7
vn 3.446592608373806e-7 -0.9999999999999368 8.785211447204232e-8
vn -3.4465926083738046e-7 -0.9999999999999367 8.785211369488617e-8
vn -3.4465927666958985e-7 -0.9999999999999067 2.6018174098529906e-7
vn -1 0 0
usemtl common_steel
f 8/1/1 9/2/1 4/3/1
f 8/1/1 4/3/1 3/4/1
f 4/5/2 2/6/2 1/7/2
f 4/5/2 1/7/2 3/8/2
f 9/9/3 8/10/3 5/11/3
f 9/9/3 5/11/3 6/12/3
f 7/13/4 9/14/4 6/15/4
f 7/13/4 6/15/4 335/16/4
usemtl common_thingies
f 10/17/5 11/18/5 13/19/5
f 10/17/5 13/19/5 12/20/5
f 15/21/6 14/22/6 16/23/6
f 15/21/6 16/23/6 17/24/6
f 15/25/7 11/26/7 10/27/7
f 15/25/7 10/27/7 14/28/7
f 16/29/8 12/30/8 13/31/8
f 16/29/8 13/31/8 17/32/8
f 11/33/9 15/34/9 17/35/9
f 11/33/9 17/35/9 13/36/9
usemtl common_table_steel
f 18/37/10 19/38/10 21/39/10
f 18/37/10 21/39/10 20/40/10
usemtl common_steel_norivets
f 23/41/11 22/42/11 24/43/11
f 23/41/11 24/43/11 25/44/11
usemtl common_steel
f 31/45/12 27/46/12 26/47/12
f 31/45/12 26/47/12 30/48/12
f 27/49/13 31/50/13 32/51/13
f 27/49/13 32/51/13 29/52/13
usemtl common_table_steel
f 30/53/14 26/54/14 28/55/14
f 30/53/14 28/55/14 23/56/14
usemtl common_steel
f 32/57/15 31/58/15 30/59/15
f 32/57/15 30/59/15 23/60/15
f 28/61/16 26/62/16 27/63/16
f 28/61/16 27/63/16 29/64/16
usemtl common_table_steel
f 33/65/17 34/66/17 36/67/17
f 33/65/17 36/67/17 35/68/17
usemtl common_steel
f 30/69/18 37/70/18 22/71/18
f 30/69/18 22/71/18 23/72/18
f 30/73/19 34/74/19 33/75/19
f 30/73/19 33/75/19 37/76/19
usemtl common_steel_norivets
f 38/77/20 28/78/20 40/79/20
f 38/77/20 40/79/20 39/80/20
usemtl common_table_steel
f 42/81/21 41/82/21 43/83/21
f 42/81/21 43/83/21 44/84/21
usemtl common_steel
f 45/85/22 26/86/22 28/87/22
f 45/85/22 28/87/22 38/88/22
usemtl common_table_steel
f 47/89/23 46/90/23 48/91/23
f 47/89/23 48/91/23 49/92/23
usemtl common_steel
f 47/93/24 26/94/24 45/95/24
f 47/93/24 45/95/24 46/96/24
f 37/97/25 45/98/25 50/99/25
f 37/97/25 50/99/25 52/100/25
f 52/101/26 50/102/26 51/103/26
f 52/101/26 51/103/26 53/104/26
usemtl common_table_steel
f 45/105/27 37/106/27 22/107/27
f 45/105/27 22/107/27 38/108/27
usemtl common_steel
f 45/109/28 38/110/28 51/111/28
f 45/109/28 51/111/28 50/112/28
f 22/113/29 37/114/29 52/115/29
f 22/113/29 52/115/29 53/116/29
usemtl common_table_steel
f 54/117/30 59/118/30 58/119/30
f 54/117/30 58/119/30 55/120/30
f 57/121/31 58/122/31 59/123/31
f 57/121/31 59/123/31 56/124/31
usemtl common_steel_norivets
f 60/125/32 51/126/32 38/127/32
f 60/125/32 38/127/32 61/128/32
f 22/129/33 53/130/33 62/131/33
f 22/129/33 62/131/33 63/132/33
f 62/133/34 60/134/34 61/135/34
f 62/133/34 61/135/34 63/136/34
f 53/137/35 51/138/35 60/139/35
f 53/137/35 60/139/35 62/140/35
usemtl common_table_steel
f 61/141/36 38/142/36 22/143/36
f 61/141/36 22/143/36 63/144/36
usemtl common_steel_norivets
f 64/145/37 28/146/37 29/147/37
f 64/145/37 29/147/37 65/148/37
f 32/149/38 23/150/38 66/151/38
f 32/149/38 66/151/38 67/152/38
f 66/153/39 64/154/39 65/155/39
f 66/153/39 65/155/39 67/156/39
usemtl common_table_steel
f 23/157/40 28/158/40 64/159/40
f 23/157/40 64/159/40 66/160/40
usemtl common_steel_norivets
f 65/161/41 29/162/41 32/163/41
f 65/161/41 32/163/41 67/164/41
usemtl common_steel
f 68/165/42 69/166/42 71/167/42
f 68/165/42 71/167/42 70/168/42
f 73/169/43 72/170/43 74/171/43
f 73/169/43 74/171/43 75/172/43
f 72/173/44 68/174/44 70/175/44
f 72/173/44 70/175/44 74/176/44
f 69/177/45 73/178/45 75/179/45
f 69/177/45 75/179/45 71/180/45
f 76/181/46 77/182/46 79/183/46
f 76/181/46 79/183/46 78/184/46
f 81/185/47 80/186/47 82/187/47
f 81/185/47 82/187/47 83/188/47
f 80/189/48 76/190/48 78/191/48
f 80/189/48 78/191/48 82/192/48
f 77/193/49 81/194/49 83/195/49
f 77/193/49 83/195/49 79/196/49
f 84/197/50 85/198/50 87/199/50
f 84/197/50 87/199/50 86/200/50
f 89/201/51 88/202/51 90/203/51
f 89/201/51 90/203/51 91/204/51
f 88/205/52 84/206/52 86/207/52
f 88/205/52 86/207/52 90/208/52
f 85/209/53 89/210/53 91/211/53
f 85/209/53 91/211/53 87/212/53
f 92/213/54 93/214/54 95/215/54
f 92/213/54 95/215/54 94/216/54
f 97/217/55 96/218/55 98/219/55
f 97/217/55 98/219/55 99/220/55
f 96/221/56 92/222/56 94/223/56
f 96/221/56 94/223/56 98/224/56
f 93/225/57 97/226/57 99/227/57
f 93/225/57 99/227/57 95/228/57
f 100/229/58 101/230/58 103/231/58
f 100/229/58 103/231/58 102/232/58
f 105/233/59 104/234/59 106/235/59
f 105/233/59 106/235/59 107/236/59
f 104/237/60 100/238/60 102/239/60
f 104/237/60 102/239/60 106/240/60
f 101/241/61 105/242/61 107/243/61
f 101/241/61 107/243/61 103/244/61
f 108/245/62 109/246/62 111/247/62
f 108/245/62 111/247/62 110/248/62
f 113/249/63 112/250/63 114/251/63
f 113/249/63 114/251/63 115/252/63
f 112/253/64 108/254/64 110/255/64
f 112/253/64 110/255/64 114/256/64
f 109/257/65 113/258/65 115/259/65
f 109/257/65 115/259/65 111/260/65
f 116/261/66 117/262/66 119/263/66
f 116/261/66 119/263/66 118/264/66
f 121/265/67 120/266/67 122/267/67
f 121/265/67 122/267/67 123/268/67
f 120/269/68 116/270/68 118/271/68
f 120/269/68 118/271/68 122/272/68
f 117/273/69 121/274/69 123/275/69
f 117/273/69 123/275/69 119/276/69
f 124/277/70 125/278/70 127/279/70
f 124/277/70 127/279/70 126/280/70
f 129/281/71 128/282/71 130/283/71
f 129/281/71 130/283/71 131/284/71
f 128/285/72 124/286/72 126/287/72
f 128/285/72 126/287/72 130/288/72
f 125/289/73 129/290/73 131/291/73
f 125/289/73 131/291/73 127/292/73
usemtl common_concrete
f 331/293/74 341/294/74 339/295/74
f 331/293/74 339/295/74 329/296/74
f 332/297/75 343/298/75 341/299/75
f 332/297/75 341/299/75 331/300/75
f 345/301/76 136/302/76 133/303/76
f 345/301/76 133/303/76 134/304/76
f 136/305/77 345/306/77 346/307/77
f 136/305/77 346/307/77 343/308/77
f 329/309/78 339/310/78 335/311/78
f 329/309/78 335/311/78 137/312/78
f 6/313/79 5/314/79 139/315/79
f 6/313/79 139/315/79 140/316/79
usemtl common_steel_norivets
f 144/317/80 145/318/80 142/319/80
f 144/317/80 142/319/80 141/320/80
f 154/321/81 153/322/81 155/323/81
f 154/321/81 155/323/81 156/324/81
usemtl common_steel
f 147/325/82 145/326/82 144/327/82
f 147/325/82 144/327/82 146/328/82
f 148/329/83 141/330/83 142/331/83
f 148/329/83 142/331/83 138/332/83
f 146/333/84 144/334/84 141/335/84
f 146/333/84 141/335/84 148/336/84
f 145/337/85 147/338/85 138/339/85
f 145/337/85 138/339/85 142/340/85
usemtl common_steel_norivets
f 148/341/86 151/342/86 149/343/86
f 148/341/86 149/343/86 146/344/86
f 146/345/87 149/346/87 150/347/87
f 146/345/87 150/347/87 147/348/87
f 147/349/88 150/350/88 152/351/88
f 147/349/88 152/351/88 138/352/88
f 138/353/89 152/354/89 151/355/89
f 138/353/89 151/355/89 148/356/89
f 151/357/90 155/358/90 153/359/90
f 151/357/90 153/359/90 149/360/90
f 149/361/91 153/362/91 154/363/91
f 149/361/91 154/363/91 150/364/91
f 150/365/92 154/366/92 156/367/92
f 150/365/92 156/367/92 152/368/92
f 152/369/93 156/370/93 155/371/93
f 152/369/93 155/371/93 151/372/93
usemtl common_steel
f 157/373/94 158/374/94 160/375/94
f 157/373/94 160/375/94 159/376/94
f 162/377/95 158/378/95 157/379/95
f 162/377/95 157/379/95 161/380/95
f 161/381/96 157/382/96 159/383/96
f 161/381/96 159/383/96 163/384/96
f 158/385/97 162/386/97 164/387/97
f 158/385/97 164/387/97 160/388/97
f 165/389/98 166/390/98 168/391/98
f 165/389/98 168/391/98 167/392/98
f 170/393/99 166/394/99 165/395/99
f 170/393/99 165/395/99 169/396/99
f 169/397/100 165/398/100 167/399/100
f 169/397/100 167/399/100 171/400/100
f 166/401/101 170/402/101 172/403/101
f 166/401/101 172/403/101 168/404/101
usemtl common_thingies
f 178/405/102 177/406/102 179/407/102
f 178/405/102 179/407/102 180/408/102
f 178/409/103 174/410/103 173/411/103
f 178/409/103 173/411/103 177/412/103
f 179/413/104 175/414/104 176/415/104
f 179/413/104 176/415/104 180/416/104
f 177/417/105 173/418/105 175/419/105
f 177/417/105 175/419/105 179/420/105
f 174/421/106 178/422/106 180/423/106
f 174/421/106 180/423/106 176/424/106
usemtl common_steel_norivets
f 181/425/107 182/426/107 132/427/107
f 181/425/107 132/427/107 135/428/107
f 191/429/108 190/430/108 192/431/108
f 191/429/108 192/431/108 193/432/108
usemtl common_steel
f 184/433/109 182/434/109 181/435/109
f 184/433/109 181/435/109 183/436/109
f 334/437/110 135/438/110 132/439/110
f 334/437/110 132/439/110 185/440/110
f 183/441/111 181/442/111 135/443/111
f 183/441/111 135/443/111 334/444/111
f 182/445/112 184/446/112 185/447/112
f 182/445/112 185/447/112 132/448/112
usemtl common_steel_norivets
f 334/449/113 188/450/113 186/451/113
f 334/449/113 186/451/113 183/452/113
f 183/453/114 186/454/114 187/455/114
f 183/453/114 187/455/114 184/456/114
f 184/457/115 187/458/115 189/459/115
f 184/457/115 189/459/115 185/460/115
f 185/461/116 189/462/116 188/463/116
f 185/461/116 188/463/116 334/464/116
f 188/465/117 192/466/117 190/467/117
f 188/465/117 190/467/117 186/468/117
f 186/469/118 190/470/118 191/471/118
f 186/469/118 191/471/118 187/472/118
f 187/473/119 191/474/119 193/475/119
f 187/473/119 193/475/119 189/476/119
f 189/477/120 193/478/120 192/479/120
f 189/477/120 192/479/120 188/480/120
usemtl common_steel
f 194/481/121 195/482/121 197/483/121
f 194/481/121 197/483/121 196/484/121
f 199/485/122 195/486/122 194/487/122
f 199/485/122 194/487/122 198/488/122
f 198/489/123 194/490/123 196/491/123
f 198/489/123 196/491/123 200/492/123
f 195/493/124 199/494/124 201/495/124
f 195/493/124 201/495/124 197/496/124
f 202/497/125 203/498/125 205/499/125
f 202/497/125 205/499/125 204/500/125
f 207/501/126 203/502/126 202/503/126
f 207/501/126 202/503/126 206/504/126
f 206/505/127 202/506/127 204/507/127
f 206/505/127 204/507/127 208/508/127
f 203/509/128 207/510/128 209/511/128
f 203/509/128 209/511/128 205/512/128
usemtl common_thingies
f 215/513/129 214/514/129 216/515/129
f 215/513/129 216/515/129 217/516/129
f 215/517/130 211/518/130 210/519/130
f 215/517/130 210/519/130 214/520/130
f 216/521/131 212/522/131 213/523/131
f 216/521/131 213/523/131 217/524/131
f 214/525/132 210/526/132 212/527/132
f 214/525/132 212/527/132 216/528/132
f 211/529/133 215/530/133 217/531/133
f 211/529/133 217/531/133 213/532/133
usemtl common_steel
f 222/533/134 223/534/134 218/535/134
f 222/533/134 218/535/134 219/536/134
f 224/537/135 225/538/135 221/539/135
f 224/537/135 221/539/135 220/540/135
f 223/541/136 224/542/136 220/543/136
f 223/541/136 220/543/136 218/544/136
f 225/545/137 222/546/137 219/547/137
f 225/545/137 219/547/137 221/548/137
f 223/549/138 222/550/138 346/551/138
f 223/549/138 346/551/138 343/552/138
f 224/553/139 223/554/139 343/555/139
f 224/553/139 343/555/139 136/556/139
f 225/557/140 224/558/140 136/559/140
f 225/557/140 136/559/140 345/560/140
f 222/561/141 225/562/141 345/563/141
f 222/561/141 345/563/141 346/564/141
usemtl common_steel_norivets
f 237/565/142 240/566/142 239/567/142
f 237/565/142 239/567/142 235/568/142
f 235/569/143 239/570/143 238/571/143
f 235/569/143 238/571/143 231/572/143
f 233/573/144 241/574/144 240/575/144
f 233/573/144 240/575/144 237/576/144
f 232/577/145 230/578/145 234/579/145
f 232/577/145 234/579/145 236/580/145
f 230/581/146 238/582/146 239/583/146
f 230/581/146 239/583/146 234/584/146
f 234/585/147 239/586/147 240/587/147
f 234/585/147 240/587/147 236/588/147
f 236/589/148 240/590/148 241/591/148
f 236/589/148 241/591/148 232/592/148
usemtl common_steel
f 245/593/149 243/594/149 242/595/149
f 245/593/149 242/595/149 244/596/149
f 248/597/150 246/598/150 247/599/150
f 248/597/150 247/599/150 236/600/150
f 242/601/151 243/602/151 247/603/151
f 242/601/151 247/603/151 246/604/151
f 245/605/152 244/606/152 248/607/152
f 245/605/152 248/607/152 236/608/152
f 244/609/153 242/610/153 246/611/153
f 244/609/153 246/611/153 248/612/153
f 236/613/154 247/614/154 243/615/154
f 236/613/154 243/615/154 245/616/154
usemtl common_steel_norivets
f 267/617/155 265/618/155 250/619/155
f 267/617/155 250/619/155 262/620/155
usemtl common_steel
f 265/621/156 266/622/156 254/623/156
f 265/621/156 254/623/156 250/624/156
usemtl common_steel_norivets
f 269/625/157 268/626/157 252/627/157
f 269/625/157 252/627/157 256/628/157
f 263/629/158 264/630/158 253/631/158
f 263/629/158 253/631/158 249/632/158
f 261/633/159 262/634/159 250/635/159
f 261/633/159 250/635/159 254/636/159
f 273/637/160 274/638/160 258/639/160
f 273/637/160 258/639/160 270/640/160
f 266/641/161 270/642/161 258/643/161
f 266/641/161 258/643/161 254/644/161
f 271/645/162 269/646/162 256/647/162
f 271/645/162 256/647/162 260/648/162
f 264/649/163 272/650/163 257/651/163
f 264/649/163 257/651/163 253/652/163
f 274/653/164 261/654/164 254/655/164
f 274/653/164 254/655/164 258/656/164
f 262/657/165 261/658/165 256/659/165
f 262/657/165 256/659/165 252/660/165
f 268/661/166 267/662/166 262/663/166
f 268/661/166 262/663/166 252/664/166
f 264/665/167 263/666/167 251/667/167
f 264/665/167 251/667/167 255/668/167
usemtl common_steel
f 266/669/168 265/670/168 249/671/168
f 266/669/168 249/671/168 253/672/168
usemtl common_steel_norivets
f 265/673/169 267/674/169 263/675/169
f 265/673/169 263/675/169 249/676/169
f 267/677/170 268/678/170 251/679/170
f 267/677/170 251/679/170 263/680/170
f 268/681/171 269/682/171 255/683/171
f 268/681/171 255/683/171 251/684/171
f 270/685/172 266/686/172 253/687/172
f 270/685/172 253/687/172 257/688/172
f 272/689/173 273/690/173 270/691/173
f 272/689/173 270/691/173 257/692/173
f 269/693/174 271/694/174 259/695/174
f 269/693/174 259/695/174 255/696/174
f 272/697/175 264/698/175 255/699/175
f 272/697/175 255/699/175 259/700/175
f 273/701/176 272/702/176 259/703/176
f 273/701/176 259/703/176 271/704/176
f 274/705/177 273/706/177 271/707/177
f 274/705/177 271/707/177 260/708/177
f 261/709/178 274/710/178 260/711/178
f 261/709/178 260/711/178 256/712/178
f 293/713/179 291/714/179 276/715/179
f 293/713/179 276/715/179 288/716/179
usemtl common_steel
f 291/717/180 292/718/180 280/719/180
f 291/717/180 280/719/180 276/720/180
usemtl common_steel_norivets
f 295/721/181 294/722/181 278/723/181
f 295/721/181 278/723/181 282/724/181
f 289/725/182 290/726/182 279/727/182
f 289/725/182 279/727/182 275/728/182
f 287/729/183 288/730/183 276/731/183
f 287/729/183 276/731/183 280/732/183
f 299/733/184 300/734/184 284/735/184
f 299/733/184 284/735/184 296/736/184
f 292/737/185 296/738/185 284/739/185
f 292/737/185 284/739/185 280/740/185
f 297/741/186 295/742/186 282/743/186
f 297/741/186 282/743/186 286/744/186
f 290/745/187 298/746/187 283/747/187
f 290/745/187 283/747/187 279/748/187
f 300/749/188 287/750/188 280/751/188
f 300/749/188 280/751/188 284/752/188
f 288/753/189 287/754/189 282/755/189
f 288/753/189 282/755/189 278/756/189
f 294/757/190 293/758/190 288/759/190
f 294/757/190 288/759/190 278/760/190
f 290/761/191 289/762/191 277/763/191
f 290/761/191 277/763/191 281/764/191
usemtl common_steel
f 292/765/192 291/766/192 275/767/192
f 292/765/192 275/767/192 279/768/192
usemtl common_steel_norivets
f 291/769/193 293/770/193 289/771/193
f 291/769/193 289/771/193 275/772/193
f 293/773/194 294/774/194 277/775/194
f 293/773/194 277/775/194 289/776/194
f 294/777/195 295/778/195 281/779/195
f 294/777/195 281/779/195 277/780/195
f 296/781/196 292/782/196 279/783/196
f 296/781/196 279/783/196 283/784/196
f 298/785/197 299/786/197 296/787/197
f 298/785/197 296/787/197 283/788/197
f 295/789/198 297/790/198 285/791/198
f 295/789/198 285/791/198 281/792/198
f 298/793/199 290/794/199 281/795/199
f 298/793/199 281/795/199 285/796/199
f 299/797/200 298/798/200 285/799/200
f 299/797/200 285/799/200 297/800/200
f 300/801/201 299/802/201 297/803/201
f 300/801/201 297/803/201 286/804/201
f 287/805/202 300/806/202 286/807/202
f 287/805/202 286/807/202 282/808/202
f 312/809/203 309/810/203 302/811/203
f 312/809/203 302/811/203 304/812/203
f 309/813/204 310/814/204 306/815/204
f 309/813/204 306/815/204 302/816/204
f 311/817/205 312/818/205 304/819/205
f 311/817/205 304/819/205 308/820/205
f 302/821/206 306/822/206 308/823/206
f 302/821/206 308/823/206 304/824/206
f 310/825/207 309/826/207 301/827/207
f 310/825/207 301/827/207 305/828/207
f 312/829/208 311/830/208 307/831/208
f 312/829/208 307/831/208 303/832/208
f 309/833/209 312/834/209 303/835/209
f 309/833/209 303/835/209 301/836/209
usemtl common_steel
f 313/837/210 314/838/210 316/839/210
f 313/837/210 316/839/210 315/840/210
f 318/841/211 317/842/211 319/843/211
f 318/841/211 319/843/211 320/844/211
f 318/845/212 314/846/212 313/847/212
f 318/845/212 313/847/212 317/848/212
f 319/849/213 315/850/213 316/851/213
f 319/849/213 316/851/213 320/852/213
f 317/853/214 313/854/214 315/855/214
f 317/853/214 315/855/214 319/856/214
f 314/857/215 318/858/215 320/859/215
f 314/857/215 320/859/215 316/860/215
usemtl common_thingies
f 321/861/216 322/862/216 324/863/216
f 321/861/216 324/863/216 323/864/216
f 326/865/217 325/866/217 327/867/217
f 326/865/217 327/867/217 328/868/217
f 326/869/218 322/870/218 321/871/218
f 326/869/218 321/871/218 325/872/218
f 327/873/219 323/874/219 324/875/219
f 327/873/219 324/875/219 328/876/219
f 322/877/220 326/878/220 328/879/220
f 322/877/220 328/879/220 324/880/220
usemtl common_concrete
f 329/881/221 137/882/221 138/883/221
f 329/881/221 138/883/221 330/884/221
f 331/885/222 329/886/222 330/887/222
f 331/885/222 330/887/222 333/888/222
f 332/889/223 331/890/223 333/891/223
f 332/889/223 333/891/223 334/892/223
f 139/893/224 5/894/224 143/895/224
f 139/893/224 143/895/224 141/896/224
f 5/897/225 336/898/225 338/899/225
f 5/897/225 338/899/225 143/900/225
f 335/901/226 339/902/226 340/903/226
f 335/901/226 340/903/226 337/904/226
f 336/905/227 335/906/227 337/907/227
f 336/905/227 337/907/227 338/908/227
f 339/909/228 341/910/228 342/911/228
f 339/909/228 342/911/228 340/912/228
f 341/913/229 343/914/229 344/915/229
f 341/913/229 344/915/229 342/916/229
f 343/917/230 346/918/230 348/919/230
f 343/917/230 348/919/230 344/920/230
f 345/921/231 134/922/231 132/923/231
f 345/921/231 132/923/231 347/924/231
f 346/925/232 345/926/232 347/927/232
f 346/925/232 347/927/232 348/928/232
usemtl common_steel
f 351/929/233 218/930/233 220/931/233
f 351/929/233 220/931/233 352/932/233
f 350/933/234 219/934/234 218/935/234
f 350/933/234 218/935/234 351/936/234
f 221/937/235 219/938/235 350/939/235
f 221/937/235 350/939/235 349/940/235
f 352/941/236 220/942/236 221/943/236
f 352/941/236 221/943/236 349/944/236
f 353/945/237 354/946/237 355/947/237
f 353/945/237 355/947/237 356/948/237
f 354/949/238 353/950/238 349/951/238
f 354/949/238 349/951/238 350/952/238
f 355/953/239 354/954/239 350/955/239
f 355/953/239 350/955/239 351/956/239
f 356/957/240 355/958/240 351/959/240
f 356/957/240 351/959/240 352/960/240
f 353/961/241 356/962/241 352/963/241
f 353/961/241 352/963/241 349/964/241
usemtl common_thingies
f 362/965/242 361/966/242 363/967/242
f 362/965/242 363/967/242 364/968/242
f 362/969/243 358/970/243 357/971/243
f 362/969/243 357/971/243 361/972/243
f 361/973/244 357/974/244 359/975/244
f 361/973/244 359/975/244 363/976/244
f 358/977/245 362/978/245 364/979/245
f 358/977/245 364/979/245 360/980/245
f 370/981/246 369/982/246 371/983/246
f 370/981/246 371/983/246 372/984/246
f 370/985/247 366/986/247 365/987/247
f 370/985/247 365/987/247 369/988/247
f 369/989/248 365/990/248 367/991/248
f 369/989/248 367/991/248 371/992/248
f 366/993/249 370/994/249 372/995/249
f 366/993/249 372/995/249 368/996/249
f 378/997/250 377/998/250 379/999/250
f 378/997/250 379/999/250 380/1000/250
f 378/1001/251 374/1002/251 373/1003/251
f 378/1001/251 373/1003/251 377/1004/251
f 377/1005/252 373/1006/252 375/1007/252
f 377/1005/252 375/1007/252 379/1008/252
f 374/1009/253 378/1010/253 380/1011/253
f 374/1009/253 380/1011/253 376/1012/253
f 386/1013/254 385/1014/254 387/1015/254
f 386/1013/254 387/1015/254 388/1016/254
f 386/1017/255 382/1018/255 381/1019/255
f 386/1017/255 381/1019/255 385/1020/255
f 387/1021/256 383/1022/256 384/1023/256
f 387/1021/256 384/1023/256 388/1024/256
f 385/1025/257 381/1026/257 383/1027/257
f 385/1025/257 383/1027/257 387/1028/257
f 382/1029/258 386/1030/258 388/1031/258
f 382/1029/258 388/1031/258 384/1032/258
f 393/1033/259 391/1034/259 392/1035/259
f 393/1033/259 392/1035/259 394/1036/259
f 390/1037/260 395/1038/260 396/1039/260
f 390/1037/260 396/1039/260 389/1040/260
f 390/1041/261 391/1042/261 393/1043/261
f 390/1041/261 393/1043/261 395/1044/261
f 396/1045/262 394/1046/262 392/1047/262
f 396/1045/262 392/1047/262 389/1048/262
f 391/1049/263 390/1050/263 389/1051/263
f 391/1049/263 389/1051/263 392/1052/263
usemtl common_steel
f 7/1053/264 397/1054/264 1/1055/264
f 7/1053/264 1/1055/264 2/1056/264
f 400/1057/265 7/1058/265 335/1059/265
f 400/1057/265 335/1059/265 401/1060/265
f 399/1061/266 397/1062/266 7/1063/266
f 399/1061/266 7/1063/266 400/1064/266
f 336/1065/267 397/1066/267 399/1067/267
f 336/1065/267 399/1067/267 398/1068/267
f 403/1069/268 402/1070/268 404/1071/268
f 403/1069/268 404/1071/268 405/1072/268
f 401/1073/269 404/1074/269 402/1075/269
f 401/1073/269 402/1075/269 400/1076/269
f 400/1077/270 402/1078/270 403/1079/270
f 400/1077/270 403/1079/270 399/1080/270
f 399/1081/271 403/1082/271 405/1083/271
f 399/1081/271 405/1083/271 398/1084/271
f 398/1085/272 405/1086/272 404/1087/272
f 398/1085/272 404/1087/272 401/1088/272
usemtl chemical_bath
f 412/1089/273 411/1090/273 406/1091/273
f 412/1089/273 406/1091/273 407/1092/273
f 410/1093/274 413/1094/274 409/1095/274
f 410/1093/274 409/1095/274 408/1096/274
f 411/1097/275 410/1098/275 408/1099/275
f 411/1097/275 408/1099/275 406/1100/275
f 413/1101/276 412/1102/276 407/1103/276
f 413/1101/276 407/1103/276 409/1104/276
f 417/1105/277 415/1106/277 411/1107/277
f 417/1105/277 411/1107/277 412/1108/277
f 414/1109/278 416/1110/278 413/1111/278
f 414/1109/278 413/1111/278 410/1112/278
f 415/1113/279 414/1114/279 410/1115/279
f 415/1113/279 410/1115/279 411/1116/279
f 416/1117/280 417/1118/280 412/1119/280
f 416/1117/280 412/1119/280 413/1120/280
f 423/1121/281 421/1122/281 415/1123/281
f 423/1121/281 415/1123/281 417/1124/281
f 418/1125/282 424/1126/282 416/1127/282
f 418/1125/282 416/1127/282 414/1128/282
f 421/1129/283 418/1130/283 414/1131/283
f 421/1129/283 414/1131/283 415/1132/283
f 424/1133/284 423/1134/284 417/1135/284
f 424/1133/284 417/1135/284 416/1136/284
f 422/1137/285 420/1138/285 421/1139/285
f 422/1137/285 421/1139/285 423/1140/285
f 419/1141/286 425/1142/286 424/1143/286
f 419/1141/286 424/1143/286 418/1144/286
f 420/1145/287 419/1146/287 418/1147/287
f 420/1145/287 418/1147/287 421/1148/287
f 425/1149/288 422/1150/288 423/1151/288
f 425/1149/288 423/1151/288 424/1152/288
f 430/1153/289 428/1154/289 429/1155/289
f 430/1153/289 429/1155/289 431/1156/289
f 427/1157/290 432/1158/290 433/1159/290
f 427/1157/290 433/1159/290 426/1160/290
f 428/1161/291 427/1162/291 426/1163/291
f 428/1161/291 426/1163/291 429/1164/291
f 432/1165/292 430/1166/292 431/1167/292
f 432/1165/292 431/1167/292 433/1168/292
f 437/1169/293 436/1170/293 428/1171/293
f 437/1169/293 428/1171/293 430/1172/293
f 435/1173/294 434/1174/294 432/1175/294
f 435/1173/294 432/1175/294 427/1176/294
f 436/1177/295 435/1178/295 427/1179/295
f 436/1177/295 427/1179/295 428/1180/295
f 434/1181/296 437/1182/296 430/1183/296
f 434/1181/296 430/1183/296 432/1184/296
f 439/1185/297 438/1186/297 436/1187/297
f 439/1185/297 436/1187/297 437/1188/297
f 440/1189/298 441/1190/298 434/1191/298
f 440/1189/298 434/1191/298 435/1192/298
f 438/1193/299 440/1194/299 435/1195/299
f 438/1193/299 435/1195/299 436/1196/299
f 441/1197/300 439/1198/300 437/1199/300
f 441/1197/300 437/1199/300 434/1200/300
f 443/1201/301 442/1202/301 438/1203/301
f 443/1201/301 438/1203/301 439/1204/301
f 444/1205/302 445/1206/302 441/1207/302
f 444/1205/302 441/1207/302 440/1208/302
f 442/1209/303 444/1210/303 440/1211/303
f 442/1209/303 440/1211/303 438/1212/303
f 445/1213/304 443/1214/304 439/1215/304
f 445/1213/304 439/1215/304 441/1216/304
f 447/1217/305 1/1218/305 336/1219/305
f 447/1217/305 336/1219/305 448/1220/305
f 5/1221/306 3/1222/306 446/1223/306
f 5/1221/306 446/1223/306 449/1224/306
f 448/1225/307 336/1226/307 5/1227/307
f 448/1225/307 5/1227/307 449/1228/307
f 460/1229/308 459/1230/308 458/1231/308
f 460/1229/308 458/1231/308 461/1232/308
f 1/1233/309 447/1234/309 451/1235/309
f 3/1236/310 1/1237/310 452/1238/310
f 3/1236/310 452/1238/310 453/1239/310
f 446/1240/311 3/1241/311 450/1242/311
f 451/1243/312 447/1244/312 446/1245/312
f 451/1243/312 446/1245/312 450/1246/312
f 456/1247/313 455/1248/313 454/1249/313
f 456/1247/313 454/1249/313 457/1250/313
f 451/1251/314 452/1252/314 1/1253/314
f 453/1254/315 450/1255/315 3/1256/315
f 450/1257/316 454/1258/316 455/1259/316
f 450/1257/316 455/1259/316 451/1260/316
f 451/1261/317 455/1262/317 456/1263/317
f 451/1261/317 456/1263/317 452/1264/317
f 452/1265/318 456/1266/318 457/1267/318
f 452/1265/318 457/1267/318 453/1268/318
f 453/1269/319 457/1270/319 454/1271/319
f 453/1269/319 454/1271/319 450/1272/319
f 447/1273/320 458/1274/320 459/1275/320
f 447/1273/320 459/1275/320 446/1276/320
f 446/1277/321 459/1278/321 460/1279/321
f 446/1277/321 460/1279/321 449/1280/321
f 449/1281/322 460/1282/322 461/1283/322
f 449/1281/322 461/1283/322 448/1284/322
f 448/1285/323 461/1286/323 458/1287/323
f 448/1285/323 458/1287/323 447/1288/323
f 464/1289/324 463/1290/324 462/1291/324
f 464/1289/324 462/1291/324 465/1292/324
f 468/1293/325 467/1294/325 466/1295/325
f 468/1293/325 466/1295/325 469/1296/325
usemtl common_concrete
f 330/1297/326 340/1298/326 342/1299/326
f 330/1297/326 342/1299/326 333/1300/326
f 470/1301/327 347/1302/327 132/1303/327
f 470/1301/327 132/1303/327 135/1304/327
f 347/1305/328 470/1306/328 344/1307/328
f 347/1305/328 344/1307/328 348/1308/328
f 143/1309/329 471/1310/329 142/1311/329
f 143/1309/329 142/1311/329 141/1312/329
f 471/1313/330 143/1314/330 338/1315/330
f 471/1313/330 338/1315/330 337/1316/330
f 472/1317/331 135/1318/331 334/1319/331
f 472/1317/331 334/1319/331 333/1320/331
f 135/1321/332 472/1322/332 342/1323/332
f 135/1321/332 342/1323/332 344/1324/332
f 142/1325/333 473/1326/333 330/1327/333
f 142/1325/333 330/1327/333 138/1328/333
f 473/1329/334 142/1330/334 337/1331/334
f 473/1329/334 337/1331/334 340/1332/334
usemtl common_steel
f 9/1333/335 7/1334/335 2/1335/335
f 9/1333/335 2/1335/335 4/1336/335