# Made by Pabilo8 with Blockbench
# Exported with IIToolkit Plugin
mtllib radio_station.mtl

o flipped
v 0 -0.5 3
v 0 -0.5 1
v 0 -1 3
v 0 -1 1
v 1 -0.5 3
v 1 -0.5 1
v 1 -1 3
v 1 -1 1
v 0 -0.75 3
v 1 -0.75 3
v 0 -0.75 1
v 1 -1 2
v 3 -0.5 3
v 3 -0.5 2
v 3 -1 3
v 3 -1 2
v 2 -1 3
v 2 -1 2
v 2 -0.5 2
v 2 -0.5 3
v 3 -0.75 3
v 3 -0.75 2
v 2 -0.75 3
v 1 -0.5 2
v 1 -0.5 0
v 1 -1 0
v 3 -0.5 0
v 3 -1 0
v 3 -0.75 0
v 1 -0.75 0
v 0 1 1
v 0 1 0
v 0 -1 0
v 1 1 1
v 1 1 0
v 1 0 3
v 1 0 2
v 2 0 3
v 2 0 2
v 1 0 0
v 0 0 0
v 0 0 1
v 1 0 1
v 0.125 0.875 0
v 0.875 0.125 0
v 0.125 0.125 0
v 0.875 0.875 0
v 0.125 0.875 0.0625
v 0.875 0.125 0.0625
v 0.125 0.125 0.0625
v 0.875 0.875 0.0625
v 0.25 0.75 0.0625
v 0.75 0.25 0.0625
v 0.25 0.25 0.0625
v 0.75 0.75 0.0625
v 0.25 0.75 0
v 0.75 0.25 0
v 0.25 0.25 0
v 0.75 0.75 0
v 2.875 -0.5 2.875
v 2.5 0 2.875
v 2.5 0 2.5
v 2.5 -0.5 2.875
v 2.5 -0.5 2.5
v 2.875 0 2.875
v 2.875 0 2.5
v 2.875 -0.5 2.5
v 2.5 0 0.5
v 2.5 0 0.125
v 2.5 -0.5 0.5
v 2.5 -0.5 0.125
v 2.875 0 0.5
v 2.875 0 0.125
v 2.875 -0.5 0.5
v 2.875 -0.5 0.125
v 0.6875 0.875 1.0625
v 0.3125 0.5 1.0625
v 0.6875 0.5 1.0625
v 0.3125 0.875 1.0625
v 0.3125 0.875 1
v 0.6875 0.875 1
v 0.6875 0.5 1
v 0.3125 0.5 1
v 1.75 -0.25 2.9375
v 1.25 -0.25 2.9375
v 1.75 -0.75 2.9375
v 1.75 -0.25 3
v 1.25 -0.75 3
v 1.75 -0.75 3
v 1.25 -0.25 3
v 1.25 -0.75 2.9375
v 1.125 -0.125 2.9375
v 1.875 -0.125 2.9375
v 1.875 -0.125 3
v 1.125 -0.125 3
v 1.875 -0.875 3
v 1.875 -0.875 2.9375
v 1.125 -0.875 2.9375
v 1.125 -0.875 3
v 0.14374999999999938 0 2.875
v 0.14374999999999938 0 2.5
v 0.14374999999999938 -0.5 2.875
v 0.14374999999999938 -0.5 2.5
v 0.5187499999999994 0 2.875
v 0.5187499999999994 0 2.5
v 0.5187499999999994 -0.5 2.875
v 0.5187499999999994 -0.5 2.5
v 0.1875 1.1875 0.8125
v 0.1875 1.1875 0.1875
v 0.1875 1 0.8125
v 0.1875 1 0.1875
v 0.8125 1.1875 0.8125
v 0.8125 1.1875 0.1875
v 0.8125 1 0.8125
v 0.8125 1 0.1875
v 0.25 1.25 0.75
v 0.25 1.25 0.25
v 0.75 1.25 0.75
v 0.75 1.25 0.25
vt 0.140625 0.9375
vt 0.640625 0.9375
vt 0.640625 1
vt 0.140625 1
vt 0.25 0.5
vt 5.551115123125783e-17 0.5
vt 0 1
vt 0.25 1
vt 0.5 0.25
vt 0.75 0.25
vt 0.75 0.75
vt 0.5 0.75
vt 0.21875 0.9375
vt 0.46875 0.9375
vt 0.46875 1
vt 0.21875 1
vt 0.359375 0.3124999999999999
vt 0.109375 0.3125
vt 0.109375 0.2500000000000001
vt 0.359375 0.25
vt 0.1875 0.3125
vt 0.6875 0.3125
vt 0.6875 0.25
vt 0.1875 0.25
vt 0.6875 0.9375
vt 0.4375 0.9375
vt 0.4375 1
vt 0.6875 1
vt 0.25 0.75
vt 0.25 1
vt 0 1
vt 0 0.75
vt 0.5 0.25
vt 0.5 0.5
vt 0.75 0.5
vt 0.75 0.25
vt 0.28125 0.9375
vt 0.53125 0.9375
vt 0.53125 1
vt 0.28125 1
vt 0.75 0.25
vt 0.75 0.5
vt 1 0.5
vt 1 0.25
vt 0.15625 0.3125
vt 0.40625 0.3125
vt 0.40625 0.25
vt 0.15625 0.25
vt 0.203125 0.3125
vt 0.453125 0.3125
vt 0.453125 0.25
vt 0.203125 0.25
vt 0.578125 0.9375
vt 0.078125 0.9375
vt 0.078125 1
vt 0.578125 1
vt 0 1
vt 0.5 1
vt 0.5 0.5
vt 0 0.5
vt 0.25000000000000006 0.25
vt 0.24999999999999994 0.75
vt 0.75 0.75
vt 0.75 0.25
vt 0.65625 0.9375
vt 0.15625 0.9375
vt 0.15625 1
vt 0.65625 1
vt 0.09375 0.3125
vt 0.59375 0.3125
vt 0.59375 0.25
vt 0.09375 0.25
vt 0.171875 0.3125
vt 0.671875 0.3125
vt 0.671875 0.25
vt 0.171875 0.25
vt 0.25 0.59375
vt 0.5 0.59375
vt 0.5 0.84375
vt 0.25 0.84375
vt 0.25 0.59375
vt 0.5 0.59375
vt 0.5 0.84375
vt 0.25 0.84375
vt 0.75 0.25
vt 1 0.25
vt 1 0.5
vt 0.75 0.5
vt 0.75 0.765625
vt 1 0.765625
vt 1 0.515625
vt 0.75 0.515625
vt 0.25 0.59375
vt 0.5 0.59375
vt 0.5 0.84375
vt 0.25 0.84375
vt 0.875 0.484375
vt 0.75 0.484375
vt 0.75 0.609375
vt 0.875 0.609375
vt 0.5625 0.125
vt 0.5625 0.375
vt 0.6875 0.375
vt 0.6875 0.125
vt 0.6875 0.375
vt 0.6875 0.125
vt 0.5625 0.125
vt 0.5625 0.375
vt 0.5 0.375
vt 0.75 0.375
vt 0.75 0.125
vt 0.5 0.125
vt 0.5 0.125
vt 0.75 0.125
vt 0.75 0
vt 0.5 0
vt 0.25 0.59375
vt 0 0.59375
vt 0 0.34375
vt 0.25 0.34375
vt 0.5 0.59375
vt 0.25 0.59375
vt 0.25 0.34375
vt 0.5 0.34375
vt 0.5 0.59375
vt 0.25 0.59375
vt 0.25 0.34375
vt 0.5 0.34375
vt 0.5 0.59375
vt 0.25 0.59375
vt 0.25 0.34375
vt 0.5 0.34375
vt 0 0.84375
vt 0.03125 0.8125
vt 0.03125 0.625
vt 0 0.59375
vt 0 0.84375
vt 0.03125 0.8125
vt 0.21875 0.8125
vt 0.25 0.84375
vt 0.25 0.59375
vt 0.21875 0.625
vt 0.21875 0.8125
vt 0.25 0.84375
vt 0.25 0.84375
vt 0.21875 0.8125
vt 0.03125 0.8125
vt 0 0.84375
vt 0.015625 0.796875
vt 0.03125 0.796875
vt 0.03125 0.609375
vt 0.015625 0.609375
vt 0.21875 0.828125
vt 0.21875 0.8125
vt 0.03125 0.8125
vt 0.03125 0.828125
vt 0.03125 0.609375
vt 0.015625 0.609375
vt 0.015625 0.796875
vt 0.03125 0.796875
vt 0.03125 0.8125
vt 0.03125 0.828125
vt 0.21875 0.828125
vt 0.21875 0.8125
vt 0.03125 0.8125
vt 0.0625 0.78125
vt 0.0625 0.65625
vt 0.03125 0.625
vt 0.03125 0.625
vt 0.0625 0.65625
vt 0.1875 0.65625
vt 0.21875 0.625
vt 0.21875 0.625
vt 0.1875 0.65625
vt 0.1875 0.78125
vt 0.21875 0.8125
vt 0.21875 0.8125
vt 0.1875 0.78125
vt 0.0625 0.78125
vt 0.03125 0.8125
vt 0.75 0.609375
vt 0.765625 0.609375
vt 0.765625 0.484375
vt 0.75 0.484375
vt 0.75 0.5
vt 0.75 0.484375
vt 0.875 0.484375
vt 0.875 0.5
vt 0.875 0.484375
vt 0.859375 0.484375
vt 0.859375 0.609375
vt 0.875 0.609375
vt 0.875 0.59375
vt 0.875 0.609375
vt 0.75 0.609375
vt 0.75 0.59375
vt 0 0.25
vt 0.09375 0.25
vt 0.09375 0.125
vt 0 0.125
vt 0 0.25
vt 0.09375 0.25
vt 0.09375 0.125
vt 0 0.125
vt 0 0.34375
vt 0.09375 0.34375
vt 0.09375 0.25
vt 0 0.25
vt 0 0.25
vt 0.09375 0.25
vt 0.09375 0.125
vt 0 0.125
vt 0 0.25
vt 0.09375 0.25
vt 0.09375 0.125
vt 0 0.125
vt 0 0.25
vt 0.09375 0.25
vt 0.09375 0.125
vt 0 0.125
vt 0 0.25
vt 0.09375 0.25
vt 0.09375 0.125
vt 0 0.125
vt 0 0.34375
vt 0.09375 0.34375
vt 0.09375 0.25
vt 0 0.25
vt 0 0.25
vt 0.09375 0.25
vt 0.09375 0.125
vt 0 0.125
vt 0 0.25
vt 0.09375 0.25
vt 0.09375 0.125
vt 0 0.125
vt 0.09375 0.390625
vt 0 0.390625
vt 0 0.484375
vt 0.09375 0.484375
vt 0 0.484375
vt 0.015625 0.484375
vt 0.015625 0.390625
vt 0 0.390625
vt 0 0.40625
vt 0 0.390625
vt 0.09375 0.390625
vt 0.09375 0.40625
vt 0.09375 0.390625
vt 0.078125 0.390625
vt 0.078125 0.484375
vt 0.09375 0.484375
vt 0.09375 0.46875
vt 0.09375 0.484375
vt 0 0.484375
vt 0 0.46875
vt 0.125 0.484375
vt 0 0.484375
vt 0 0.609375
vt 0.125 0.609375
vt 0 0.609375
vt 0.015625 0.609375
vt 0.015625 0.484375
vt 0 0.484375
vt 0 0.5
vt 0 0.484375
vt 0.125 0.484375
vt 0.125 0.5
vt 0.125 0.484375
vt 0.109375 0.484375
vt 0.109375 0.609375
vt 0.125 0.609375
vt 0.125 0.59375
vt 0.125 0.609375
vt 0 0.609375
vt 0 0.59375
vt 0.75 0.25
vt 0.78125 0.21875
vt 0.78125 0.03125
vt 0.75 0
vt 0.75 0.25
vt 0.78125 0.21875
vt 0.96875 0.21875
vt 1 0.25
vt 1 0
vt 0.96875 0.03125
vt 0.96875 0.21875
vt 1 0.25
vt 1 0.25
vt 0.96875 0.21875
vt 0.78125 0.21875
vt 0.75 0.25
vt 0.765625 0.203125
vt 0.78125 0.203125
vt 0.78125 0.015625
vt 0.765625 0.015625
vt 0.96875 0.234375
vt 0.96875 0.21875
vt 0.78125 0.21875
vt 0.78125 0.234375
vt 0.78125 0.015625
vt 0.765625 0.015625
vt 0.765625 0.203125
vt 0.78125 0.203125
vt 0.78125 0.21875
vt 0.78125 0.234375
vt 0.96875 0.234375
vt 0.96875 0.21875
vt 0.78125 0.21875
vt 0.8125 0.1875
vt 0.8125 0.0625
vt 0.78125 0.03125
vt 0.78125 0.03125
vt 0.8125 0.0625
vt 0.9375 0.0625
vt 0.96875 0.03125
vt 0.96875 0.03125
vt 0.9375 0.0625
vt 0.9375 0.1875
vt 0.96875 0.21875
vt 0.96875 0.21875
vt 0.9375 0.1875
vt 0.8125 0.1875
vt 0.78125 0.21875
vt 0 0.25
vt 0.09375 0.25
vt 0.09375 0.125
vt 0 0.125
vt 0 0.25
vt 0.09375 0.25
vt 0.09375 0.125
vt 0 0.125
vt 0 0.34375
vt 0.09375 0.34375
vt 0.09375 0.25
vt 0 0.25
vt 0.15625 0.34375
vt 0.25 0.34375
vt 0.25 0.25
vt 0.15625 0.25
vt 0 0.25
vt 0.09375 0.25
vt 0.09375 0.125
vt 0 0.125
vt 0 0.25
vt 0.09375 0.25
vt 0.09375 0.125
vt 0 0.125
vt 0 0.890625
vt 0.15625 0.890625
vt 0.15625 0.84375
vt 0 0.84375
vt 0 0.890625
vt 0.15625 0.890625
vt 0.15625 0.84375
vt 0 0.84375
vt 0.3125 1
vt 0.46875 1
vt 0.46875 0.84375
vt 0.3125 0.84375
vt 0 0.890625
vt 0.15625 0.890625
vt 0.15625 0.84375
vt 0 0.84375
vt 0 0.890625
vt 0.15625 0.890625
vt 0.15625 0.84375
vt 0 0.84375
vt 0.015625 1
vt 0.140625 1
vt 0.15625 0.984375
vt 0 0.984375
vt 0.015625 1
vt 0.140625 1
vt 0.15625 0.984375
vt 0 0.984375
vt 0.15625 0.96875
vt 0.28125 0.96875
vt 0.28125 0.84375
vt 0.15625 0.84375
vt 0 1
vt 0.15625 1
vt 0.15625 0.84375
vt 0 0.84375
vt 0.015625 1
vt 0.140625 1
vt 0.15625 0.984375
vt 0 0.984375
vt 0.015625 1
vt 0.140625 1
vt 0.15625 0.984375
vt 0 0.984375
vn -1 0 0
vn 0 1 0
vn 0 -1 0
vn 0 0 1
vn 0 0 1
vn -1 0 0
vn 1 0 0
vn 0 1 0
vn 0 -1 0
vn 0 0 1
vn 0 -1 0
vn 1 0 0
vn 0 0 1
vn 1 0 0
vn 0 1 0
vn 0 -1 0
vn 0 0 -1
vn 1 0 0
vn 0 0 -1
vn -1 0 0
vn 1 0 0
vn 0 1 0
vn 0 -1 0
vn 0 0 1
vn 0 0 -1
vn -1 0 0
vn 1 0 0
vn 0 1 0
vn 0 0 -1
vn 0 0 -1
vn -1 0 0
vn 0 0 1
vn 1 0 0
vn 0 0 -1
vn 0 0 -1
vn 0 0 -1
vn 0 0 -1
vn 1 0 0
vn 0 1 0
vn -1 0 0
vn 0 -1 0
vn 0 0 -1
vn 0 0 -1
vn 0 0 -1
vn 0 0 -1
vn -1 0 0
vn 0 -1 0
vn 1 0 0
vn 0 1 0
vn -1 0 0
vn 1 0 0
vn 0 1 0
vn 0 0 1
vn 0 0 -1
vn -1 0 0
vn 1 0 0
vn 0 1 0
vn 0 0 1
vn 0 0 -1
vn 0 0 1
vn 1 0 0
vn 0 -1 0
vn -1 0 0
vn 0 1 0
vn 0 0 1
vn 1 0 0
vn 0 -1 0
vn -1 0 0
vn 0 1 0
vn 0 0 1
vn 0 0 1
vn 0 0 1
vn 0 0 1
vn -1 0 0
vn 0 1 0
vn 1 0 0
vn 0 -1 0
vn 0 0 1
vn 0 0 1
vn 0 0 1
vn 0 0 1
vn -1 0 0
vn 1 0 0
vn 0 1 0
vn 0 -1 0
vn 0 0 1
vn 0 0 -1
vn -1 0 0
vn 1 0 0
vn 0 -1 0
vn 0 0 1
vn 0 0 -1
vn -0.7071067811865476 0.7071067811865476 0
vn 0.7071067811865476 0.7071067811865476 0
vn 0 1 0
vn 0 -1 0
vn 0 0.7071067811865476 0.7071067811865476
vn 0 0.7071067811865476 -0.7071067811865476
usemtl common_concrete
f 11/1/1 9/2/1 1/3/1
f 11/1/1 1/3/1 2/4/1
f 6/5/2 2/6/2 1/7/2
f 6/5/2 1/7/2 5/8/2
f 7/9/3 3/10/3 4/11/3
f 7/9/3 4/11/3 8/12/3
f 9/13/4 10/14/4 5/15/4
f 9/13/4 5/15/4 1/16/4
f 10/17/5 9/18/5 3/19/5
f 10/17/5 3/19/5 7/20/5
f 9/21/6 11/22/6 4/23/6
f 9/21/6 4/23/6 3/24/6
f 21/25/7 22/26/7 14/27/7
f 21/25/7 14/27/7 13/28/7
f 19/29/8 20/30/8 13/31/8
f 19/29/8 13/31/8 14/32/8
f 17/33/9 18/34/9 16/35/9
f 17/33/9 16/35/9 15/36/9
f 23/37/10 21/38/10 13/39/10
f 23/37/10 13/39/10 20/40/10
usemtl radio_station
f 18/41/11 17/42/11 7/43/11
f 18/41/11 7/43/11 12/44/11
usemtl common_concrete
f 22/45/12 21/46/12 15/47/12
f 22/45/12 15/47/12 16/48/12
f 21/49/13 23/50/13 17/51/13
f 21/49/13 17/51/13 15/52/13
f 22/53/14 29/54/14 27/55/14
f 22/53/14 27/55/14 14/56/14
f 27/57/15 25/58/15 24/59/15
f 27/57/15 24/59/15 14/60/15
f 16/61/16 12/62/16 26/63/16
f 16/61/16 26/63/16 28/64/16
f 29/65/17 30/66/17 25/67/17
f 29/65/17 25/67/17 27/68/17
f 29/69/18 22/70/18 16/71/18
f 29/69/18 16/71/18 28/72/18
f 30/73/19 29/74/19 28/75/19
f 30/73/19 28/75/19 26/76/19
usemtl radio_station
f 41/77/20 42/78/20 31/79/20
f 41/77/20 31/79/20 32/80/20
f 43/81/21 40/82/21 35/83/21
f 43/81/21 35/83/21 34/84/21
f 35/85/22 32/86/22 31/87/22
f 35/85/22 31/87/22 34/88/22
f 8/89/23 4/90/23 33/91/23
f 8/89/23 33/91/23 26/92/23
f 42/93/24 43/94/24 34/95/24
f 42/93/24 34/95/24 31/96/24
usemtl common_thingies
f 57/97/25 58/98/25 56/99/25
f 57/97/25 56/99/25 59/100/25
usemtl radio_station
f 36/101/26 37/102/26 24/103/26
f 36/101/26 24/103/26 5/104/26
f 39/105/27 38/106/27 20/107/27
f 39/105/27 20/107/27 19/108/27
f 39/109/28 37/110/28 36/111/28
f 39/109/28 36/111/28 38/112/28
f 37/113/29 39/114/29 19/115/29
f 37/113/29 19/115/29 24/116/29
f 41/117/30 40/118/30 26/119/30
f 41/117/30 26/119/30 33/120/30
f 42/121/31 41/122/31 33/123/31
f 42/121/31 33/123/31 4/124/31
f 43/125/32 42/126/32 4/127/32
f 43/125/32 4/127/32 8/128/32
f 40/129/33 43/130/33 8/131/33
f 40/129/33 8/131/33 26/132/33
f 32/133/34 44/134/34 46/135/34
f 32/133/34 46/135/34 41/136/34
f 41/137/35 46/138/35 45/139/35
f 41/137/35 45/139/35 40/140/35
f 40/141/36 45/142/36 47/143/36
f 40/141/36 47/143/36 35/144/36
f 35/145/37 47/146/37 44/147/37
f 35/145/37 44/147/37 32/148/37
f 44/149/38 48/150/38 50/151/38
f 44/149/38 50/151/38 46/152/38
f 46/153/39 50/154/39 49/155/39
f 46/153/39 49/155/39 45/156/39
f 45/157/40 49/158/40 51/159/40
f 45/157/40 51/159/40 47/160/40
f 47/161/41 51/162/41 48/163/41
f 47/161/41 48/163/41 44/164/41
f 48/165/42 52/166/42 54/167/42
f 48/165/42 54/167/42 50/168/42
f 50/169/43 54/170/43 53/171/43
f 50/169/43 53/171/43 49/172/43
f 49/173/44 53/174/44 55/175/44
f 49/173/44 55/175/44 51/176/44
f 51/177/45 55/178/45 52/179/45
f 51/177/45 52/179/45 48/180/45
usemtl common_thingies
f 52/181/46 56/182/46 58/183/46
f 52/181/46 58/183/46 54/184/46
f 54/185/47 58/186/47 57/187/47
f 54/185/47 57/187/47 53/188/47
f 53/189/48 57/190/48 59/191/48
f 53/189/48 59/191/48 55/192/48
f 55/193/49 59/194/49 56/195/49
f 55/193/49 56/195/49 52/196/49
usemtl radio_station
f 61/197/50 62/198/50 64/199/50
f 61/197/50 64/199/50 63/200/50
f 66/201/51 65/202/51 60/203/51
f 66/201/51 60/203/51 67/204/51
f 66/205/52 62/206/52 61/207/52
f 66/205/52 61/207/52 65/208/52
f 65/209/53 61/210/53 63/211/53
f 65/209/53 63/211/53 60/212/53
f 62/213/54 66/214/54 67/215/54
f 62/213/54 67/215/54 64/216/54
f 68/217/55 69/218/55 71/219/55
f 68/217/55 71/219/55 70/220/55
f 73/221/56 72/222/56 74/223/56
f 73/221/56 74/223/56 75/224/56
f 73/225/57 69/226/57 68/227/57
f 73/225/57 68/227/57 72/228/57
f 72/229/58 68/230/58 70/231/58
f 72/229/58 70/231/58 74/232/58
f 69/233/59 73/234/59 75/235/59
f 69/233/59 75/235/59 71/236/59
usemtl common_thingies
f 77/237/60 78/238/60 76/239/60
f 77/237/60 76/239/60 79/240/60
f 81/241/61 76/242/61 78/243/61
f 81/241/61 78/243/61 82/244/61
f 82/245/62 78/246/62 77/247/62
f 82/245/62 77/247/62 83/248/62
f 83/249/63 77/250/63 79/251/63
f 83/249/63 79/251/63 80/252/63
f 80/253/64 79/254/64 76/255/64
f 80/253/64 76/255/64 81/256/64
f 88/257/65 89/258/65 87/259/65
f 88/257/65 87/259/65 90/260/65
f 84/261/66 87/262/66 89/263/66
f 84/261/66 89/263/66 86/264/66
f 86/265/67 89/266/67 88/267/67
f 86/265/67 88/267/67 91/268/67
f 91/269/68 88/270/68 90/271/68
f 91/269/68 90/271/68 85/272/68
f 85/273/69 90/274/69 87/275/69
f 85/273/69 87/275/69 84/276/69
usemtl radio_station
f 38/277/70 94/278/70 96/279/70
f 38/277/70 96/279/70 17/280/70
f 17/281/71 96/282/71 99/283/71
f 17/281/71 99/283/71 7/284/71
f 7/285/72 99/286/72 95/287/72
f 7/285/72 95/287/72 36/288/72
f 36/289/73 95/290/73 94/291/73
f 36/289/73 94/291/73 38/292/73
f 94/293/74 93/294/74 97/295/74
f 94/293/74 97/295/74 96/296/74
f 96/297/75 97/298/75 98/299/75
f 96/297/75 98/299/75 99/300/75
f 99/301/76 98/302/76 92/303/76
f 99/301/76 92/303/76 95/304/76
f 95/305/77 92/306/77 93/307/77
f 95/305/77 93/307/77 94/308/77
f 93/309/78 84/310/78 86/311/78
f 93/309/78 86/311/78 97/312/78
f 97/313/79 86/314/79 91/315/79
f 97/313/79 91/315/79 98/316/79
f 98/317/80 91/318/80 85/319/80
f 98/317/80 85/319/80 92/320/80
f 92/321/81 85/322/81 84/323/81
f 92/321/81 84/323/81 93/324/81
f 100/325/82 101/326/82 103/327/82
f 100/325/82 103/327/82 102/328/82
f 105/329/83 104/330/83 106/331/83
f 105/329/83 106/331/83 107/332/83
f 105/333/84 101/334/84 100/335/84
f 105/333/84 100/335/84 104/336/84
f 106/337/85 102/338/85 103/339/85
f 106/337/85 103/339/85 107/340/85
f 104/341/86 100/342/86 102/343/86
f 104/341/86 102/343/86 106/344/86
f 101/345/87 105/346/87 107/347/87
f 101/345/87 107/347/87 103/348/87
f 108/349/88 109/350/88 111/351/88
f 108/349/88 111/351/88 110/352/88
f 113/353/89 112/354/89 114/355/89
f 113/353/89 114/355/89 115/356/89
f 114/357/90 110/358/90 111/359/90
f 114/357/90 111/359/90 115/360/90
f 112/361/91 108/362/91 110/363/91
f 112/361/91 110/363/91 114/364/91
f 109/365/92 113/366/92 115/367/92
f 109/365/92 115/367/92 111/368/92
f 116/369/93 117/370/93 109/371/93
f 116/369/93 109/371/93 108/372/93
f 119/373/94 118/374/94 112/375/94
f 119/373/94 112/375/94 113/376/94
f 119/377/95 117/378/95 116/379/95
f 119/377/95 116/379/95 118/380/95
f 112/381/96 108/382/96 109/383/96
f 112/381/96 109/383/96 113/384/96
f 118/385/97 116/386/97 108/387/97
f 118/385/97 108/387/97 112/388/97
f 117/389/98 119/390/98 113/391/98
f 117/389/98 113/391/98 109/392/98