# Made by Pabilo8 with Blockbench
# Exported with IIToolkit Plugin
mtllib radio_station.mtl

o base
v 1.5 0.5 1.5
v 1.5 0.5 -0.5
v 1.5 0 1.5
v 1.5 0 -0.5
v 0.5 0.5 1.5
v 0.5 0.5 -0.5
v 0.5 0 1.5
v 0.5 0 -0.5
v 1.5 0.25 1.5
v 0.5 0.25 1.5
v 1.5 0.25 -0.5
v 0.5 0 0.5
v -1.5 0.5 1.5
v -1.5 0.5 0.5
v -1.5 0 1.5
v -1.5 0 0.5
v -0.5 0 1.5
v -0.5 0 0.5
v -0.5 0.5 0.5
v -0.5 0.5 1.5
v -1.5 0.25 1.5
v -1.5 0.25 0.5
v -0.5 0.25 1.5
v 0.5 0.5 0.5
v 0.5 0.5 -1.5
v 0.5 0 -1.5
v -1.5 0.5 -1.5
v -1.5 0 -1.5
v -1.5 0.25 -1.5
v 0.5 0.25 -1.5
v 1.5 2 -0.5
v 1.5 2 -1.5
v 1.5 0 -1.5
v 0.5 2 -0.5
v 0.5 2 -1.5
v 1.3125 2.1875 -0.6875
v 1.3125 2.1875 -1.3125
v 1.3125 2 -0.6875
v 1.3125 2 -1.3125
v 0.6875 2.1875 -0.6875
v 0.6875 2.1875 -1.3125
v 0.6875 2 -0.6875
v 0.6875 2 -1.3125
v 0.5 1 1.5
v 0.5 1 0.5
v -0.5 1 1.5
v -0.5 1 0.5
v 0.5 1 -1.5
v 1.5 1 -1.5
v 1.5 1 -0.5
v 0.5 1 -0.5
v 1.375 1.875 -1.5
v 0.625 1.125 -1.5
v 1.375 1.125 -1.5
v 0.625 1.875 -1.5
v 1.375 1.875 -1.4375
v 0.625 1.125 -1.4375
v 1.375 1.125 -1.4375
v 0.625 1.875 -1.4375
v 1.25 1.75 -1.4375
v 0.75 1.25 -1.4375
v 1.25 1.25 -1.4375
v 0.75 1.75 -1.4375
v 1.25 1.75 -1.5
v 0.75 1.25 -1.5
v 1.25 1.25 -1.5
v 0.75 1.75 -1.5
v -1.375 0.5 1.375
v -1 1 1.375
v -1 1 1
v -1 0.5 1.375
v -1 0.5 1
v -1.375 1 1.375
v -1.375 1 1
v -1.375 0.5 1
v -1 1 -1
v -1 1 -1.375
v -1 0.5 -1
v -1 0.5 -1.375
v -1.375 1 -1
v -1.375 1 -1.375
v -1.375 0.5 -1
v -1.375 0.5 -1.375
v 0.8125 1.875 -0.4375
v 1.1875 1.5 -0.4375
v 0.8125 1.5 -0.4375
v 1.1875 1.875 -0.4375
v 1.1875 1.875 -0.5
v 0.8125 1.875 -0.5
v 0.8125 1.5 -0.5
v 1.1875 1.5 -0.5
v -0.25 0.75 1.4375
v 0.25 0.75 1.4375
v -0.25 0.25 1.4375
v -0.25 0.75 1.5
v 0.25 0.25 1.5
v -0.25 0.25 1.5
v 0.25 0.75 1.5
v 0.25 0.25 1.4375
v 0.375 0.875 1.4375
v -0.375 0.875 1.4375
v -0.375 0.875 1.5
v 0.375 0.875 1.5
v -0.375 0.125 1.5
v -0.375 0.125 1.4375
v 0.375 0.125 1.4375
v 0.375 0.125 1.5
v 1.3562500000000006 1 1.375
v 1.3562500000000006 1 1
v 1.3562500000000006 0.5 1.375
v 1.3562500000000006 0.5 1
v 0.9812500000000006 1 1.375
v 0.9812500000000006 1 1
v 0.9812500000000006 0.5 1.375
v 0.9812500000000006 0.5 1
v 1.25 2.25 -0.75
v 1.25 2.25 -1.25
v 1.3125 2.1875 -0.6875
v 1.3125 2.1875 -1.3125
v 0.75 2.25 -0.75
v 0.75 2.25 -1.25
v 0.6875 2.1875 -0.6875
v 0.6875 2.1875 -1.3125
v 0.125 0.75 -0.25
v 0.125 0.75 -0.5
v 0.125 0.5 -0.25
v 0.125 0.5 -0.5
v -0.125 0.75 -0.25
v -0.125 0.75 -0.4375
v -0.125 0.5 -0.25
v -0.125 0.5 -0.4375
v 0.125 0.5 -0.25
v 0.125 0.5 0.5
v 0.125 0.75 -0.25
v 0.125 0.75 0.5
v -0.125 0.5 -0.25
v -0.125 0.5 0.5
v -0.125 0.75 -0.25
v -0.125 0.75 0.5
v 0.875 0.75 -0.25
v 0.875 0.75 -0.5
v 0.875 0.5 -0.25
v 0.875 0.5 -0.5
v 0.125 0.75 -0.25
v 0.125 0.75 -0.5
v 0.125 0.5 -0.25
v 0.125 0.5 -0.5
v 1.125 1.5625 -0.25
v 1.125 1.5625 -0.5
v 1.125 0.75 -0.25
v 1.125 0.75 -0.5
v 0.875 1.5625 -0.25
v 0.875 1.5625 -0.5
v 0.875 0.75 -0.25
v 0.875 0.75 -0.5
v 1.125 1.8125 -0.3125
v 1.125 1.8125 -0.5
v 1.125 1.5625 -0.25
v 1.125 1.5625 -0.5
v 0.875 1.8125 -0.3125
v 0.875 1.8125 -0.5
v 0.875 1.5625 -0.25
v 0.875 1.5625 -0.5
v 0.8750000018626453 0.7500000014435493 -0.5000000000000006
v 1.1250000018626451 0.749999997718259 -0.5000000000000007
v 0.8750000018626453 0.7500000014435506 -0.25000000000000067
v 1.1250000018626451 0.7499999977182603 -0.25000000000000067
v 0.874999998137355 0.5000000014435493 -0.49999999999999933
v 1.0624999981373549 0.4999999986495818 -0.49999999999999933
v 0.874999998137355 0.5000000014435506 -0.24999999999999933
v 1.0624999981373549 0.4999999986495829 -0.24999999999999933
v 0.25 7.9375 0.25
v 0.25 7.9375 -0.25
v 0.25 7.6875 0.25
v 0.25 7.6875 -0.25
v -0.25 7.9375 0.25
v -0.25 7.9375 -0.25
v -0.25 7.6875 0.25
v -0.25 7.6875 -0.25
v -0.1875 7.5625 0.1875
v -0.1875 7.5625 -0.1875
v -0.25 7.6875 0.25
v -0.25 7.6875 -0.25
v 0.1875 7.5625 0.1875
v 0.1875 7.5625 -0.1875
v 0.25 7.6875 0.25
v 0.25 7.6875 -0.25
v 0.1875 8.0625 0.1875
v 0.1875 8.0625 -0.1875
v 0.25 7.9375 0.25
v 0.25 7.9375 -0.25
v -0.1875 8.0625 0.1875
v -0.1875 8.0625 -0.1875
v -0.25 7.9375 0.25
v -0.25 7.9375 -0.25
v -0.9126862441957413 1.7725810815631133 -1.0450224879310426
v -1.0452404770287576 1.7725347784800483 -0.9124116919373715
v -1.0562988069969346 0.7934640383216616 -1.1889156685887463
v -1.1888530398299508 0.7934177352385965 -1.0563048725950757
v -1.042534397368856 1.8106993080028553 -1.1748019467472197
v -1.1750886302018726 1.8106530049197902 -1.0421911507535486
v -1.1861469601700492 0.8315822647614035 -1.3186951274049235
v -1.3187011930030659 0.8315359616783384 -1.1860843314112528
v -0.7690736813945485 2.751698124804564 -0.9011293072733388
v -0.9016279142275652 2.7516518217215022 -0.7685185112796691
v -0.9126862441957417 1.7725810815631138 -1.0450224879310435
v -1.0452404770287576 1.7725347784800483 -0.9124116919373719
v -0.8989218345676635 2.7898163512443066 -1.0309087660895164
v -1.0314760674006793 2.7897700481612446 -0.8982979700958458
v -1.0425343973688568 1.8106993080028553 -1.1748019467472202
v -1.1750886302018735 1.8106530049197906 -1.0421911507535495
v -0.6254611185933552 3.730815168046016 -0.7572361266156356
v -0.7580153514263719 3.730768864962954 -0.6246253306219649
v -0.7690736813945485 2.751698124804564 -0.9011293072733388
v -0.9016279142275652 2.7516518217215022 -0.7685185112796691
v -0.7553092717664698 3.7689333944857584 -0.8870155854318127
v -0.887863504599486 3.7688870914026964 -0.754404789438142
v -0.8989218345676635 2.7898163512443066 -1.0309087660895164
v -1.0314760674006793 2.7897700481612446 -0.8982979700958458
v -0.48184855579216124 4.7099322112874695 -0.6133429459579314
v -0.6144027886251777 4.709885908204406 -0.48073214996426117
v -0.6254611185933552 3.730815168046016 -0.7572361266156356
v -0.7580153514263719 3.730768864962954 -0.6246253306219649
v -0.6116967089652765 4.748050437727212 -0.7431224047741085
v -0.7442509417982919 4.748004134644148 -0.6105116087804379
v -0.7553092717664698 3.7689333944857584 -0.8870155854318127
v -0.887863504599486 3.7688870914026964 -0.754404789438142
v -0.33823599299096796 5.689049254528921 -0.4694497653002272
v -0.47079022582398444 5.689002951445859 -0.33683896930655743
v -0.48184855579216124 4.7099322112874695 -0.6133429459579314
v -0.6144027886251777 4.709885908204406 -0.48073214996426117
v -0.468084146164083 5.727167480968664 -0.5992292241164043
v -0.6006383789970986 5.7271211778856 -0.4666184281227337
v -0.6116967089652765 4.748050437727212 -0.7431224047741085
v -0.7442509417982919 4.748004134644148 -0.6105116087804379
v -0.19462343018977446 6.668166297770371 -0.3255565846425239
v -0.3271776630227907 6.668119994687306 -0.19294578864885326
v -0.33823599299096796 5.689049254528921 -0.4694497653002272
v -0.47079022582398444 5.689002951445859 -0.33683896930655743
v -0.3244715833628895 6.706284524210114 -0.45533604345870105
v -0.45702581619590577 6.706238221127048 -0.3227252474650304
v -0.468084146164083 5.727167480968664 -0.5992292241164043
v -0.6006383789970986 5.7271211778856 -0.4666184281227337
v -0.051010867388581405 7.647283341011821 -0.18166340398482062
v -0.18356510022159833 7.647237037928756 -0.049052607991149966
v -0.19462343018977446 6.668166297770371 -0.3255565846425239
v -0.3271776630227907 6.668119994687306 -0.19294578864885326
v -0.18085902056169623 7.685401567451565 -0.31144286280099776
v -0.3134132533947127 7.685355264368498 -0.1788320668073271
v -0.3244715833628895 6.706284524210114 -0.45533604345870105
v -0.45702581619590577 6.706238221127048 -0.3227252474650304
v 0.8989218345676626 2.9773163512443066 -0.968408766089516
v -0.8510781654323374 2.9773163512443066 -0.9684087660895164
v 0.8989218345676626 2.7898163512443066 -0.968408766089516
v -0.8510781654323374 2.7898163512443066 -0.9684087660895164
v 0.8989218345676626 2.9773163512443066 -0.780908766089516
v -0.8510781654323374 2.9773163512443066 -0.7809087660895164
v 0.8989218345676626 2.7898163512443066 -0.780908766089516
v -0.8510781654323374 2.7898163512443066 -0.7809087660895164
v 0.8510781654323374 2.9773163512443066 0.7809087660895164
v -0.8989218345676626 2.9773163512443066 0.780908766089516
v 0.8510781654323374 2.7898163512443066 0.7809087660895164
v -0.8989218345676626 2.7898163512443066 0.780908766089516
v 0.8510781654323374 2.9773163512443066 0.9684087660895169
v -0.8989218345676626 2.9773163512443066 0.968408766089516
v 0.8510781654323374 2.7898163512443066 0.9684087660895169
v -0.8989218345676626 2.7898163512443066 0.968408766089516
v -0.9689760674006793 2.977270048161243 -0.8982979700958452
v -0.9689760674006793 2.977270048161243 0.8517020299041547
v -0.9689760674006793 2.789770048161243 -0.8982979700958452
v -0.9689760674006793 2.789770048161243 0.8517020299041547
v -0.7814760674006793 2.977270048161243 -0.8982979700958452
v -0.7814760674006793 2.977270048161243 0.8517020299041547
v -0.7814760674006793 2.789770048161243 -0.8982979700958452
v -0.7814760674006793 2.789770048161243 0.8517020299041547
v 0.7814760674006787 2.977270048161243 -0.8517020299041548
v 0.7814760674006789 2.977270048161243 0.8982979700958453
v 0.7814760674006787 2.789770048161243 -0.8517020299041548
v 0.7814760674006789 2.789770048161243 0.8982979700958453
v 0.9689760674006787 2.977270048161243 -0.8517020299041548
v 0.9689760674006789 2.977270048161243 0.8982979700958453
v 0.9689760674006787 2.789770048161243 -0.8517020299041548
v 0.9689760674006789 2.789770048161243 0.8982979700958453
v -0.6378635045994856 5.268887091402695 -0.535654789438141
v -0.6378635045994852 5.268887091402695 0.5268452105618588
v -0.6378635045994856 5.081387091402695 -0.535654789438141
v -0.6378635045994852 5.081387091402695 0.5268452105618588
v -0.4503635045994854 5.268887091402695 -0.5356547894381412
v -0.4503635045994854 5.268887091402695 0.5268452105618588
v -0.4503635045994854 5.081387091402695 -0.5356547894381412
v -0.4503635045994854 5.081387091402695 0.5268452105618588
v 0.536559271766469 5.268933394485758 -0.6370155854318121
v -0.5259407282335311 5.268933394485758 -0.6370155854318124
v 0.536559271766469 5.081433394485758 -0.6370155854318121
v -0.5259407282335311 5.081433394485758 -0.6370155854318124
v 0.536559271766469 5.268933394485758 -0.44951558543181225
v -0.5259407282335311 5.268933394485758 -0.44951558543181225
v 0.536559271766469 5.081433394485758 -0.44951558543181225
v -0.5259407282335311 5.081433394485758 -0.44951558543181225
v 0.45036350459948515 5.268887091402695 -0.5268452105618586
v 0.45036350459948515 5.268887091402695 0.5356547894381416
v 0.45036350459948515 5.081387091402695 -0.5268452105618586
v 0.45036350459948515 5.081387091402695 0.5356547894381416
v 0.637863504599485 5.268887091402695 -0.5268452105618587
v 0.6378635045994853 5.268887091402695 0.5356547894381412
v 0.637863504599485 5.081387091402695 -0.5268452105618587
v 0.6378635045994853 5.081387091402695 0.5356547894381412
v 0.5259407282335308 5.268933394485758 0.4495155854318127
v -0.5365592717664693 5.268933394485758 0.44951558543181225
v 0.5259407282335308 5.081433394485758 0.4495155854318127
v -0.5365592717664693 5.081433394485758 0.44951558543181225
v 0.5259407282335308 5.268933394485758 0.6370155854318127
v -0.5365592717664693 5.268933394485758 0.6370155854318122
v 0.5259407282335308 5.081433394485758 0.6370155854318127
v -0.5365592717664693 5.081433394485758 0.6370155854318122
v 0.7690736813945485 2.751698124804564 -0.9011293072733388
v 0.9016279142275652 2.7516518217215022 -0.7685185112796691
v 0.9126862441957417 1.7725810815631138 -1.0450224879310435
v 1.0452404770287576 1.7725347784800483 -0.9124116919373719
v 0.8989218345676635 2.7898163512443066 -1.0309087660895164
v 1.0314760674006793 2.7897700481612446 -0.8982979700958458
v 1.0425343973688568 1.8106993080028553 -1.1748019467472202
v 1.1750886302018735 1.8106530049197906 -1.0421911507535495
v 0.6254611185933552 3.730815168046016 -0.7572361266156356
v 0.7580153514263719 3.730768864962954 -0.6246253306219649
v 0.7690736813945485 2.751698124804564 -0.9011293072733388
v 0.9016279142275652 2.7516518217215022 -0.7685185112796691
v 0.7553092717664698 3.7689333944857584 -0.8870155854318127
v 0.887863504599486 3.7688870914026964 -0.754404789438142
v 0.8989218345676635 2.7898163512443066 -1.0309087660895164
v 1.0314760674006793 2.7897700481612446 -0.8982979700958458
v 0.48184855579216124 4.7099322112874695 -0.6133429459579314
v 0.6144027886251777 4.709885908204406 -0.48073214996426117
v 0.6254611185933552 3.730815168046016 -0.7572361266156356
v 0.7580153514263719 3.730768864962954 -0.6246253306219649
v 0.6116967089652765 4.748050437727212 -0.7431224047741085
v 0.7442509417982919 4.748004134644148 -0.6105116087804379
v 0.7553092717664698 3.7689333944857584 -0.8870155854318127
v 0.887863504599486 3.7688870914026964 -0.754404789438142
v 0.33823599299096796 5.689049254528921 -0.4694497653002272
v 0.47079022582398444 5.689002951445859 -0.33683896930655743
v 0.48184855579216124 4.7099322112874695 -0.6133429459579314
v 0.6144027886251777 4.709885908204406 -0.48073214996426117
v 0.468084146164083 5.727167480968664 -0.5992292241164043
v 0.6006383789970986 5.7271211778856 -0.4666184281227337
v 0.6116967089652765 4.748050437727212 -0.7431224047741085
v 0.7442509417982919 4.748004134644148 -0.6105116087804379
v 0.19462343018977446 6.668166297770371 -0.3255565846425239
v 0.3271776630227907 6.668119994687306 -0.19294578864885326
v 0.33823599299096796 5.689049254528921 -0.4694497653002272
v 0.47079022582398444 5.689002951445859 -0.33683896930655743
v 0.3244715833628895 6.706284524210114 -0.45533604345870105
v 0.45702581619590577 6.706238221127048 -0.3227252474650304
v 0.468084146164083 5.727167480968664 -0.5992292241164043
v 0.6006383789970986 5.7271211778856 -0.4666184281227337
v 0.051010867388581405 7.647283341011821 -0.18166340398482062
v 0.18356510022159833 7.647237037928756 -0.049052607991149966
v 0.19462343018977446 6.668166297770371 -0.3255565846425239
v 0.3271776630227907 6.668119994687306 -0.19294578864885326
v 0.18085902056169623 7.685401567451565 -0.31144286280099776
v 0.3134132533947127 7.685355264368498 -0.1788320668073271
v 0.3244715833628895 6.706284524210114 -0.45533604345870105
v 0.45702581619590577 6.706238221127048 -0.3227252474650304
v 0.9126862441957413 1.7725810815631133 1.0450224879310426
v 1.0452404770287576 1.7725347784800483 0.9124116919373715
v 1.0562988069969346 0.7934640383216616 1.1889156685887463
v 1.1888530398299508 0.7934177352385965 1.0563048725950757
v 1.042534397368856 1.8106993080028553 1.1748019467472197
v 1.1750886302018726 1.8106530049197902 1.0421911507535486
v 1.1861469601700492 0.8315822647614035 1.3186951274049235
v 1.3187011930030659 0.8315359616783384 1.1860843314112528
v 0.7690736813945485 2.751698124804564 0.9011293072733388
v 0.9016279142275652 2.7516518217215022 0.7685185112796691
v 0.9126862441957417 1.7725810815631138 1.0450224879310435
v 1.0452404770287576 1.7725347784800483 0.9124116919373719
v 0.8989218345676635 2.7898163512443066 1.0309087660895164
v 1.0314760674006793 2.7897700481612446 0.8982979700958458
v 1.0425343973688568 1.8106993080028553 1.1748019467472202
v 1.1750886302018735 1.8106530049197906 1.0421911507535495
v 0.6254611185933552 3.730815168046016 0.7572361266156356
v 0.7580153514263719 3.730768864962954 0.6246253306219649
v 0.7690736813945485 2.751698124804564 0.9011293072733388
v 0.9016279142275652 2.7516518217215022 0.7685185112796691
v 0.7553092717664698 3.7689333944857584 0.8870155854318127
v 0.887863504599486 3.7688870914026964 0.754404789438142
v 0.8989218345676635 2.7898163512443066 1.0309087660895164
v 1.0314760674006793 2.7897700481612446 0.8982979700958458
v 0.48184855579216124 4.7099322112874695 0.6133429459579314
v 0.6144027886251777 4.709885908204406 0.48073214996426117
v 0.6254611185933552 3.730815168046016 0.7572361266156356
v 0.7580153514263719 3.730768864962954 0.6246253306219649
v 0.6116967089652765 4.748050437727212 0.7431224047741085
v 0.7442509417982919 4.748004134644148 0.6105116087804379
v 0.7553092717664698 3.7689333944857584 0.8870155854318127
v 0.887863504599486 3.7688870914026964 0.754404789438142
v 0.33823599299096796 5.689049254528921 0.4694497653002272
v 0.47079022582398444 5.689002951445859 0.33683896930655743
v 0.48184855579216124 4.7099322112874695 0.6133429459579314
v 0.6144027886251777 4.709885908204406 0.48073214996426117
v 0.468084146164083 5.727167480968664 0.5992292241164043
v 0.6006383789970986 5.7271211778856 0.4666184281227337
v 0.6116967089652765 4.748050437727212 0.7431224047741085
v 0.7442509417982919 4.748004134644148 0.6105116087804379
v 0.19462343018977446 6.668166297770371 0.3255565846425239
v 0.3271776630227907 6.668119994687306 0.19294578864885326
v 0.33823599299096796 5.689049254528921 0.4694497653002272
v 0.47079022582398444 5.689002951445859 0.33683896930655743
v 0.3244715833628895 6.706284524210114 0.45533604345870105
v 0.45702581619590577 6.706238221127048 0.3227252474650304
v 0.468084146164083 5.727167480968664 0.5992292241164043
v 0.6006383789970986 5.7271211778856 0.4666184281227337
v 0.051010867388581405 7.647283341011821 0.18166340398482062
v 0.18356510022159833 7.647237037928756 0.049052607991149966
v 0.19462343018977446 6.668166297770371 0.3255565846425239
v 0.3271776630227907 6.668119994687306 0.19294578864885326
v 0.18085902056169623 7.685401567451565 0.31144286280099776
v 0.3134132533947127 7.685355264368498 0.1788320668073271
v 0.3244715833628895 6.706284524210114 0.45533604345870105
v 0.45702581619590577 6.706238221127048 0.3227252474650304
v -0.9126862441957413 1.7725810815631133 1.0450224879310426
v -1.0452404770287576 1.7725347784800483 0.9124116919373715
v -1.0562988069969346 0.7934640383216616 1.1889156685887463
v -1.1888530398299508 0.7934177352385965 1.0563048725950757
v -1.042534397368856 1.8106993080028553 1.1748019467472197
v -1.1750886302018726 1.8106530049197902 1.0421911507535486
v -1.1861469601700492 0.8315822647614035 1.3186951274049235
v -1.3187011930030659 0.8315359616783384 1.1860843314112528
v -0.7690736813945485 2.751698124804564 0.9011293072733388
v -0.9016279142275652 2.7516518217215022 0.7685185112796691
v -0.9126862441957417 1.7725810815631138 1.0450224879310435
v -1.0452404770287576 1.7725347784800483 0.9124116919373719
v -0.8989218345676635 2.7898163512443066 1.0309087660895164
v -1.0314760674006793 2.7897700481612446 0.8982979700958458
v -1.0425343973688568 1.8106993080028553 1.1748019467472202
v -1.1750886302018735 1.8106530049197906 1.0421911507535495
v -0.6254611185933552 3.730815168046016 0.7572361266156356
v -0.7580153514263719 3.730768864962954 0.6246253306219649
v -0.7690736813945485 2.751698124804564 0.9011293072733388
v -0.9016279142275652 2.7516518217215022 0.7685185112796691
v -0.7553092717664698 3.7689333944857584 0.8870155854318127
v -0.887863504599486 3.7688870914026964 0.754404789438142
v -0.8989218345676635 2.7898163512443066 1.0309087660895164
v -1.0314760674006793 2.7897700481612446 0.8982979700958458
v -0.48184855579216124 4.7099322112874695 0.6133429459579314
v -0.6144027886251777 4.709885908204406 0.48073214996426117
v -0.6254611185933552 3.730815168046016 0.7572361266156356
v -0.7580153514263719 3.730768864962954 0.6246253306219649
v -0.6116967089652765 4.748050437727212 0.7431224047741085
v -0.7442509417982919 4.748004134644148 0.6105116087804379
v -0.7553092717664698 3.7689333944857584 0.8870155854318127
v -0.887863504599486 3.7688870914026964 0.754404789438142
v -0.33823599299096796 5.689049254528921 0.4694497653002272
v -0.47079022582398444 5.689002951445859 0.33683896930655743
v -0.48184855579216124 4.7099322112874695 0.6133429459579314
v -0.6144027886251777 4.709885908204406 0.48073214996426117
v -0.468084146164083 5.727167480968664 0.5992292241164043
v -0.6006383789970986 5.7271211778856 0.4666184281227337
v -0.6116967089652765 4.748050437727212 0.7431224047741085
v -0.7442509417982919 4.748004134644148 0.6105116087804379
v -0.19462343018977446 6.668166297770371 0.3255565846425239
v -0.3271776630227907 6.668119994687306 0.19294578864885326
v -0.33823599299096796 5.689049254528921 0.4694497653002272
v -0.47079022582398444 5.689002951445859 0.33683896930655743
v -0.3244715833628895 6.706284524210114 0.45533604345870105
v -0.45702581619590577 6.706238221127048 0.3227252474650304
v -0.468084146164083 5.727167480968664 0.5992292241164043
v -0.6006383789970986 5.7271211778856 0.4666184281227337
v -0.051010867388581405 7.647283341011821 0.18166340398482062
v -0.18356510022159833 7.647237037928756 0.049052607991149966
v -0.19462343018977446 6.668166297770371 0.3255565846425239
v -0.3271776630227907 6.668119994687306 0.19294578864885326
v -0.18085902056169623 7.685401567451565 0.31144286280099776
v -0.3134132533947127 7.685355264368498 0.1788320668073271
v -0.3244715833628895 6.706284524210114 0.45533604345870105
v -0.45702581619590577 6.706238221127048 0.3227252474650304
vt 0.640625 1.000000
vt 0.640625 0.937500
vt 0.140625 0.937500
vt 0.140625 1.000000
vt 0.000000 1.000000
vt 5.551115123125783e-17 0.5
vt 0.250000 0.500000
vt 0.250000 1.000000
vt 0.750000 0.750000
vt 0.750000 0.250000
vt 0.500000 0.250000
vt 0.500000 0.750000
vt 0.468750 1.000000
vt 0.468750 0.937500
vt 0.218750 0.937500
vt 0.218750 1.000000
vt 0.109375 0.250000
vt 0.109375 0.312500
vt 0.359375 0.312500
vt 0.359375 0.250000
vt 0.687500 0.250000
vt 0.687500 0.312500
vt 0.187500 0.312500
vt 0.187500 0.250000
vt 0.437500 1.000000
vt 0.437500 0.937500
vt 0.687500 0.937500
vt 0.687500 1.000000
vt 0.000000 1.000000
vt 0.250000 1.000000
vt 0.250000 0.750000
vt 0.000000 0.750000
vt 0.750000 0.500000
vt 0.500000 0.500000
vt 0.500000 0.250000
vt 0.750000 0.250000
vt 0.531250 1.000000
vt 0.531250 0.937500
vt 0.281250 0.937500
vt 0.281250 1.000000
vt 1.000000 0.500000
vt 0.750000 0.500000
vt 0.750000 0.250000
vt 1.000000 0.250000
vt 0.406250 0.250000
vt 0.406250 0.312500
vt 0.156250 0.312500
vt 0.156250 0.250000
vt 0.453125 0.250000
vt 0.453125 0.312500
vt 0.203125 0.312500
vt 0.203125 0.250000
vt 0.078125 1.000000
vt 0.078125 0.937500
vt 0.578125 0.937500
vt 0.578125 1.000000
vt 0.500000 0.500000
vt 0.500000 1.000000
vt 0.000000 1.000000
vt 0.000000 0.500000
vt 0.750000 0.750000
vt 0.250000 0.750000
vt 0.250000 0.250000
vt 0.750000 0.250000
vt 0.156250 1.000000
vt 0.156250 0.937500
vt 0.656250 0.937500
vt 0.656250 1.000000
vt 0.593750 0.250000
vt 0.593750 0.312500
vt 0.093750 0.312500
vt 0.093750 0.250000
vt 0.671875 0.250000
vt 0.671875 0.312500
vt 0.171875 0.312500
vt 0.171875 0.250000
vt 0.500000 0.843750
vt 0.500000 0.593750
vt 0.250000 0.593750
vt 0.250000 0.843750
vt 0.500000 0.843750
vt 0.500000 0.593750
vt 0.250000 0.593750
vt 0.250000 0.843750
vt 1.000000 0.500000
vt 1.000000 0.250000
vt 0.750000 0.250000
vt 0.750000 0.500000
vt 1.000000 0.515625
vt 1.000000 0.765625
vt 0.750000 0.765625
vt 0.750000 0.515625
vt 0.500000 0.843750
vt 0.500000 0.593750
vt 0.250000 0.593750
vt 0.250000 0.843750
vt 0.750000 0.609375
vt 0.750000 0.484375
vt 0.875000 0.484375
vt 0.875000 0.609375
vt 0.156250 0.843750
vt 0.156250 0.890625
vt 0.000000 0.890625
vt 0.000000 0.843750
vt 0.156250 0.843750
vt 0.156250 0.890625
vt 0.000000 0.890625
vt 0.000000 0.843750
vt 0.312500 0.843750
vt 0.312500 1.000000
vt 0.156250 1.000000
vt 0.156250 0.843750
vt 0.468750 0.843750
vt 0.468750 1.000000
vt 0.312500 1.000000
vt 0.312500 0.843750
vt 0.156250 0.843750
vt 0.156250 0.890625
vt 0.000000 0.890625
vt 0.000000 0.843750
vt 0.156250 0.843750
vt 0.156250 0.890625
vt 0.000000 0.890625
vt 0.000000 0.843750
vt 0.687500 0.375000
vt 0.562500 0.375000
vt 0.562500 0.125000
vt 0.687500 0.125000
vt 0.562500 0.125000
vt 0.687500 0.125000
vt 0.687500 0.375000
vt 0.562500 0.375000
vt 0.750000 0.125000
vt 0.750000 0.375000
vt 0.500000 0.375000
vt 0.500000 0.125000
vt 0.750000 0.000000
vt 0.750000 0.125000
vt 0.500000 0.125000
vt 0.500000 0.000000
vt 0.000000 0.343750
vt 0.000000 0.593750
vt 0.250000 0.593750
vt 0.250000 0.343750
vt 0.250000 0.343750
vt 0.250000 0.593750
vt 0.500000 0.593750
vt 0.500000 0.343750
vt 0.250000 0.343750
vt 0.250000 0.593750
vt 0.500000 0.593750
vt 0.500000 0.343750
vt 0.250000 0.343750
vt 0.250000 0.593750
vt 0.500000 0.593750
vt 0.500000 0.343750
vt 0.031250 0.625000
vt 0.031250 0.812500
vt 0.000000 0.843750
vt 0.000000 0.593750
vt 0.218750 0.812500
vt 0.031250 0.812500
vt 0.000000 0.843750
vt 0.250000 0.843750
vt 0.218750 0.812500
vt 0.218750 0.625000
vt 0.250000 0.593750
vt 0.250000 0.843750
vt 0.031250 0.812500
vt 0.218750 0.812500
vt 0.250000 0.843750
vt 0.000000 0.843750
vt 0.031250 0.609375
vt 0.031250 0.796875
vt 0.015625 0.796875
vt 0.015625 0.609375
vt 0.031250 0.812500
vt 0.218750 0.812500
vt 0.218750 0.828125
vt 0.031250 0.828125
vt 0.015625 0.796875
vt 0.015625 0.609375
vt 0.031250 0.609375
vt 0.031250 0.796875
vt 0.218750 0.828125
vt 0.031250 0.828125
vt 0.031250 0.812500
vt 0.218750 0.812500
vt 0.062500 0.656250
vt 0.062500 0.781250
vt 0.031250 0.812500
vt 0.031250 0.625000
vt 0.187500 0.656250
vt 0.062500 0.656250
vt 0.031250 0.625000
vt 0.218750 0.625000
vt 0.187500 0.781250
vt 0.187500 0.656250
vt 0.218750 0.625000
vt 0.218750 0.812500
vt 0.062500 0.781250
vt 0.187500 0.781250
vt 0.218750 0.812500
vt 0.031250 0.812500
vt 0.765625 0.484375
vt 0.765625 0.609375
vt 0.750000 0.609375
vt 0.750000 0.484375
vt 0.875000 0.484375
vt 0.750000 0.484375
vt 0.750000 0.500000
vt 0.875000 0.500000
vt 0.859375 0.609375
vt 0.859375 0.484375
vt 0.875000 0.484375
vt 0.875000 0.609375
vt 0.750000 0.609375
vt 0.875000 0.609375
vt 0.875000 0.593750
vt 0.750000 0.593750
vt 0.093750 0.125000
vt 0.093750 0.250000
vt 0.000000 0.250000
vt 0.000000 0.125000
vt 0.093750 0.125000
vt 0.093750 0.250000
vt 0.000000 0.250000
vt 0.000000 0.125000
vt 0.093750 0.250000
vt 0.093750 0.343750
vt 0.000000 0.343750
vt 0.000000 0.250000
vt 0.093750 0.125000
vt 0.093750 0.250000
vt 0.000000 0.250000
vt 0.000000 0.125000
vt 0.093750 0.125000
vt 0.093750 0.250000
vt 0.000000 0.250000
vt 0.000000 0.125000
vt 0.093750 0.125000
vt 0.093750 0.250000
vt 0.000000 0.250000
vt 0.000000 0.125000
vt 0.093750 0.125000
vt 0.093750 0.250000
vt 0.000000 0.250000
vt 0.000000 0.125000
vt 0.093750 0.250000
vt 0.093750 0.343750
vt 0.000000 0.343750
vt 0.000000 0.250000
vt 0.093750 0.125000
vt 0.093750 0.250000
vt 0.000000 0.250000
vt 0.000000 0.125000
vt 0.093750 0.125000
vt 0.093750 0.250000
vt 0.000000 0.250000
vt 0.000000 0.125000
vt 0.000000 0.484375
vt 0.000000 0.390625
vt 0.093750 0.390625
vt 0.093750 0.484375
vt 0.015625 0.390625
vt 0.015625 0.484375
vt 0.000000 0.484375
vt 0.000000 0.390625
vt 0.093750 0.390625
vt 0.000000 0.390625
vt 0.000000 0.406250
vt 0.093750 0.406250
vt 0.078125 0.484375
vt 0.078125 0.390625
vt 0.093750 0.390625
vt 0.093750 0.484375
vt 0.000000 0.484375
vt 0.093750 0.484375
vt 0.093750 0.468750
vt 0.000000 0.468750
vt 0.000000 0.609375
vt 0.000000 0.484375
vt 0.125000 0.484375
vt 0.125000 0.609375
vt 0.015625 0.484375
vt 0.015625 0.609375
vt 0.000000 0.609375
vt 0.000000 0.484375
vt 0.125000 0.484375
vt 0.000000 0.484375
vt 0.000000 0.500000
vt 0.125000 0.500000
vt 0.109375 0.609375
vt 0.109375 0.484375
vt 0.125000 0.484375
vt 0.125000 0.609375
vt 0.000000 0.609375
vt 0.125000 0.609375
vt 0.125000 0.593750
vt 0.000000 0.593750
vt 0.781250 0.031250
vt 0.781250 0.218750
vt 0.750000 0.250000
vt 0.750000 0.000000
vt 0.968750 0.218750
vt 0.781250 0.218750
vt 0.750000 0.250000
vt 1.000000 0.250000
vt 0.968750 0.218750
vt 0.968750 0.031250
vt 1.000000 0.000000
vt 1.000000 0.250000
vt 0.781250 0.218750
vt 0.968750 0.218750
vt 1.000000 0.250000
vt 0.750000 0.250000
vt 0.781250 0.015625
vt 0.781250 0.203125
vt 0.765625 0.203125
vt 0.765625 0.015625
vt 0.781250 0.218750
vt 0.968750 0.218750
vt 0.968750 0.234375
vt 0.781250 0.234375
vt 0.765625 0.203125
vt 0.765625 0.015625
vt 0.781250 0.015625
vt 0.781250 0.203125
vt 0.968750 0.234375
vt 0.781250 0.234375
vt 0.781250 0.218750
vt 0.968750 0.218750
vt 0.812500 0.062500
vt 0.812500 0.187500
vt 0.781250 0.218750
vt 0.781250 0.031250
vt 0.937500 0.062500
vt 0.812500 0.062500
vt 0.781250 0.031250
vt 0.968750 0.031250
vt 0.937500 0.187500
vt 0.937500 0.062500
vt 0.968750 0.031250
vt 0.968750 0.218750
vt 0.812500 0.187500
vt 0.937500 0.187500
vt 0.968750 0.218750
vt 0.781250 0.218750
vt 0.093750 0.125000
vt 0.093750 0.250000
vt 0.000000 0.250000
vt 0.000000 0.125000
vt 0.093750 0.125000
vt 0.093750 0.250000
vt 0.000000 0.250000
vt 0.000000 0.125000
vt 0.093750 0.250000
vt 0.093750 0.343750
vt 0.000000 0.343750
vt 0.000000 0.250000
vt 0.250000 0.250000
vt 0.250000 0.343750
vt 0.156250 0.343750
vt 0.156250 0.250000
vt 0.093750 0.125000
vt 0.093750 0.250000
vt 0.000000 0.250000
vt 0.000000 0.125000
vt 0.093750 0.125000
vt 0.093750 0.250000
vt 0.000000 0.250000
vt 0.000000 0.125000
vt 0.156250 0.984375
vt 0.140625 1.000000
vt 0.015625 1.000000
vt 0.000000 0.984375
vt 0.156250 0.984375
vt 0.140625 1.000000
vt 0.015625 1.000000
vt 0.000000 0.984375
vt 0.281250 0.843750
vt 0.281250 0.968750
vt 0.156250 0.968750
vt 0.156250 0.843750
vt 0.156250 0.843750
vt 0.156250 1.000000
vt 0.000000 1.000000
vt 0.000000 0.843750
vt 0.156250 0.984375
vt 0.140625 1.000000
vt 0.015625 1.000000
vt 0.000000 0.984375
vt 0.156250 0.984375
vt 0.140625 1.000000
vt 0.015625 1.000000
vt 0.000000 0.984375
vt 0.000000 0.375000
vt 0.250000 0.375000
vt 0.250000 0.562500
vt 0.000000 0.562500
vt 1.000000 0.500000
vt 1.000000 0.750000
vt 0.750000 0.750000
vt 0.750000 0.500000
vt 0.747837 0.502201
vt 0.997799 0.497837
vt 1.000000 0.747799
vt 0.752201 0.752163
vt 0.000000 0.312500
vt 0.250000 0.312500
vt 0.250000 0.562500
vt 0.000000 0.562500
vt 0.250000 0.750000
vt 0.000000 0.750000
vt 0.000000 0.000000
vt 0.250000 0.000000
vt 0.000000 0.000000
vt 0.250000 0.000000
vt 0.250000 0.750000
vt 0.000000 0.750000
vt 0.250000 0.000000
vt 0.250000 0.750000
vt 0.000000 0.750000
vt 0.000000 0.000000
vt 0.000000 0.750000
vt 0.000000 0.000000
vt 0.250000 0.000000
vt 0.250000 0.750000
vt 0.250000 0.750000
vt 0.000000 0.750000
vt 0.000000 0.000000
vt 0.250000 0.000000
vt 0.250000 0.750000
vt 0.000000 0.750000
vt 0.000000 0.000000
vt 0.250000 0.000000
vt 0.250000 0.750000
vt 0.000000 0.750000
vt 0.000000 0.000000
vt 0.250000 0.000000
vt 1.1102230246251565e-16 0
vt 0.250000 0.000000
vt 0.250000 0.750000
vt 0.000000 0.750000
vt 0.250000 0.000000
vt 0.250000 0.812500
vt 0.000000 0.812500
vt 0.000000 0.000000
vt 0.250000 0.000000
vt 0.250000 0.812500
vt 0.000000 0.812500
vt 0.000000 0.000000
vt 0.250000 0.000000
vt 0.250000 0.812500
vt 0.000000 0.812500
vt 0.000000 0.000000
vt 0.250000 0.000000
vt 0.250000 0.812500
vt 0.000000 0.812500
vt 0.000000 0.000000
vt 1.000000 0.500000
vt 1.000000 0.750000
vt 0.750000 0.750000
vt 0.750000 0.500000
vt 1.000000 0.747799
vt 0.752201 0.752163
vt 0.747837 0.502201
vt 0.997799 0.497837
vt 0.250000 0.375000
vt 0.250000 0.562500
vt 0.000000 0.562500
vt 0.000000 0.375000
vt 0.250000 0.750000
vt 0.250000 1.000000
vt 0.000000 1.000000
vt 0.000000 0.750000
vt 0.000000 0.375000
vt 0.250000 0.375000
vt 0.250000 0.562500
vt 0.000000 0.562500
vt 1.000000 0.500000
vt 1.000000 0.750000
vt 0.750000 0.750000
vt 0.750000 0.500000
vt 0.747837 0.502201
vt 0.997799 0.497837
vt 1.000000 0.747799
vt 0.752201 0.752163
vt 0.000000 0.312500
vt 0.250000 0.312500
vt 0.250000 0.562500
vt 0.000000 0.562500
vt 0.281250 0.890625
vt 0.281250 0.953125
vt 0.156250 0.953125
vt 0.156250 0.890625
vt 0.281250 0.875000
vt 0.281250 0.937500
vt 0.156250 0.937500
vt 0.156250 0.875000
vt 0.281250 0.890625
vt 0.281250 0.953125
vt 0.156250 0.953125
vt 0.156250 0.890625
vt 0.281250 0.875000
vt 0.281250 0.937500
vt 0.156250 0.937500
vt 0.156250 0.875000
vt 0.281250 0.937500
vt 0.265625 0.968750
vt 0.171875 0.968750
vt 0.156250 0.937500
vt 0.281250 0.937500
vt 0.265625 0.968750
vt 0.171875 0.968750
vt 0.156250 0.937500
vt 0.265625 0.859375
vt 0.265625 0.953125
vt 0.171875 0.953125
vt 0.171875 0.859375
vt 0.281250 0.937500
vt 0.265625 0.968750
vt 0.171875 0.968750
vt 0.156250 0.937500
vt 0.281250 0.937500
vt 0.265625 0.968750
vt 0.171875 0.968750
vt 0.156250 0.937500
vt 0.281250 0.937500
vt 0.265625 0.968750
vt 0.171875 0.968750
vt 0.156250 0.937500
vt 0.281250 0.937500
vt 0.265625 0.968750
vt 0.171875 0.968750
vt 0.156250 0.937500
vt 0.265625 0.859375
vt 0.265625 0.953125
vt 0.171875 0.953125
vt 0.171875 0.859375
vt 0.281250 0.937500
vt 0.265625 0.968750
vt 0.171875 0.968750
vt 0.156250 0.937500
vt 0.281250 0.937500
vt 0.265625 0.968750
vt 0.171875 0.968750
vt 0.156250 0.937500
vt 0.500000 0.250000
vt 0.453125 0.250000
vt 0.453125 0.000000
vt 0.500000 0.000000
vt 0.500000 0.250000
vt 0.453125 0.250000
vt 0.453125 0.000000
vt 0.500000 0.000000
vt 0.453125 0.250000
vt 0.500000 0.250000
vt 0.500000 0.296875
vt 0.453125 0.296875
vt 0.500000 0.250000
vt 0.453125 0.250000
vt 0.453125 0.000000
vt 0.500000 0.000000
vt 0.500000 0.250000
vt 0.453125 0.250000
vt 0.453125 0.000000
vt 0.500000 0.000000
vt 0.500000 0.250000
vt 0.453125 0.250000
vt 0.453125 0.000000
vt 0.500000 0.000000
vt 0.500000 0.250000
vt 0.453125 0.250000
vt 0.453125 0.000000
vt 0.500000 0.000000
vt 0.500000 0.250000
vt 0.453125 0.250000
vt 0.453125 0.000000
vt 0.500000 0.000000
vt 0.500000 0.250000
vt 0.453125 0.250000
vt 0.453125 0.000000
vt 0.500000 0.000000
vt 0.500000 0.250000
vt 0.453125 0.250000
vt 0.453125 0.000000
vt 0.500000 0.000000
vt 0.500000 0.250000
vt 0.453125 0.250000
vt 0.453125 0.000000
vt 0.500000 0.000000
vt 0.500000 0.250000
vt 0.453125 0.250000
vt 0.453125 0.000000
vt 0.500000 0.000000
vt 0.500000 0.250000
vt 0.453125 0.250000
vt 0.453125 0.000000
vt 0.500000 0.000000
vt 0.500000 0.250000
vt 0.453125 0.250000
vt 0.453125 0.000000
vt 0.500000 0.000000
vt 0.500000 0.250000
vt 0.453125 0.250000
vt 0.453125 0.000000
vt 0.500000 0.000000
vt 0.500000 0.250000
vt 0.453125 0.250000
vt 0.453125 0.000000
vt 0.500000 0.000000
vt 0.500000 0.250000
vt 0.453125 0.250000
vt 0.453125 0.000000
vt 0.500000 0.000000
vt 0.500000 0.250000
vt 0.453125 0.250000
vt 0.453125 0.000000
vt 0.500000 0.000000
vt 0.500000 0.250000
vt 0.453125 0.250000
vt 0.453125 0.000000
vt 0.500000 0.000000
vt 0.500000 0.250000
vt 0.453125 0.250000
vt 0.453125 0.000000
vt 0.500000 0.000000
vt 0.500000 0.250000
vt 0.453125 0.250000
vt 0.453125 0.000000
vt 0.500000 0.000000
vt 0.500000 0.250000
vt 0.453125 0.250000
vt 0.453125 0.000000
vt 0.500000 0.000000
vt 0.500000 0.250000
vt 0.453125 0.250000
vt 0.453125 0.000000
vt 0.500000 0.000000
vt 0.500000 0.250000
vt 0.453125 0.250000
vt 0.453125 0.000000
vt 0.500000 0.000000
vt 0.500000 0.250000
vt 0.453125 0.250000
vt 0.453125 0.000000
vt 0.500000 0.000000
vt 0.500000 0.250000
vt 0.453125 0.250000
vt 0.453125 0.000000
vt 0.500000 0.000000
vt 0.500000 0.250000
vt 0.453125 0.250000
vt 0.453125 0.000000
vt 0.500000 0.000000
vt 0.453125 0.234375
vt 0.500000 0.234375
vt 0.500000 0.281250
vt 0.453125 0.281250
vt 0.500000 0.250000
vt 0.453125 0.250000
vt 0.453125 0.000000
vt 0.500000 0.000000
vt 0.500000 0.250000
vt 0.453125 0.250000
vt 0.453125 0.000000
vt 0.500000 0.000000
vt 0.546875 0.843750
vt 0.500000 0.843750
vt 0.500000 0.406250
vt 0.546875 0.406250
vt 0.546875 0.843750
vt 0.500000 0.843750
vt 0.500000 0.406250
vt 0.546875 0.406250
vt 0.546875 0.406250
vt 0.546875 0.843750
vt 0.500000 0.843750
vt 0.500000 0.406250
vt 0.546875 0.406250
vt 0.546875 0.843750
vt 0.500000 0.843750
vt 0.500000 0.406250
vt 0.546875 0.843750
vt 0.500000 0.843750
vt 0.500000 0.406250
vt 0.546875 0.406250
vt 0.546875 0.843750
vt 0.500000 0.843750
vt 0.500000 0.406250
vt 0.546875 0.406250
vt 0.546875 0.406250
vt 0.546875 0.843750
vt 0.500000 0.843750
vt 0.500000 0.406250
vt 0.546875 0.406250
vt 0.546875 0.843750
vt 0.500000 0.843750
vt 0.500000 0.406250
vt 0.546875 0.843750
vt 0.500000 0.843750
vt 0.500000 0.406250
vt 0.546875 0.406250
vt 0.546875 0.843750
vt 0.500000 0.843750
vt 0.500000 0.406250
vt 0.546875 0.406250
vt 0.546875 0.406250
vt 0.546875 0.843750
vt 0.500000 0.843750
vt 0.500000 0.406250
vt 0.546875 0.406250
vt 0.546875 0.843750
vt 0.500000 0.843750
vt 0.500000 0.406250
vt 0.546875 0.843750
vt 0.500000 0.843750
vt 0.500000 0.406250
vt 0.546875 0.406250
vt 0.546875 0.843750
vt 0.500000 0.843750
vt 0.500000 0.406250
vt 0.546875 0.406250
vt 0.546875 0.406250
vt 0.546875 0.843750
vt 0.500000 0.843750
vt 0.500000 0.406250
vt 0.546875 0.406250
vt 0.546875 0.843750
vt 0.500000 0.843750
vt 0.500000 0.406250
vt 0.500000 0.578125
vt 0.546875 0.578125
vt 0.546875 0.843750
vt 0.500000 0.843750
vt 0.500000 0.578125
vt 0.546875 0.578125
vt 0.546875 0.843750
vt 0.500000 0.843750
vt 0.546875 0.515625
vt 0.546875 0.781250
vt 0.500000 0.781250
vt 0.500000 0.515625
vt 0.546875 0.500000
vt 0.546875 0.765625
vt 0.500000 0.765625
vt 0.500000 0.500000
vt 0.500000 0.578125
vt 0.546875 0.578125
vt 0.546875 0.843750
vt 0.500000 0.843750
vt 0.546875 0.515625
vt 0.546875 0.781250
vt 0.500000 0.781250
vt 0.500000 0.515625
vt 0.500000 0.578125
vt 0.546875 0.578125
vt 0.546875 0.843750
vt 0.500000 0.843750
vt 0.500000 0.578125
vt 0.546875 0.578125
vt 0.546875 0.843750
vt 0.500000 0.843750
vt 0.546875 0.515625
vt 0.546875 0.781250
vt 0.500000 0.781250
vt 0.500000 0.515625
vt 0.546875 0.500000
vt 0.546875 0.765625
vt 0.500000 0.765625
vt 0.500000 0.500000
vt 0.500000 0.578125
vt 0.546875 0.578125
vt 0.546875 0.843750
vt 0.500000 0.843750
vt 0.500000 0.578125
vt 0.546875 0.578125
vt 0.546875 0.843750
vt 0.500000 0.843750
vt 0.546875 0.515625
vt 0.546875 0.781250
vt 0.500000 0.781250
vt 0.500000 0.515625
vt 0.546875 0.500000
vt 0.546875 0.765625
vt 0.500000 0.765625
vt 0.500000 0.500000
vt 0.546875 0.500000
vt 0.546875 0.765625
vt 0.500000 0.765625
vt 0.500000 0.500000
vt 0.500000 0.578125
vt 0.546875 0.578125
vt 0.546875 0.843750
vt 0.500000 0.843750
vt 0.453125 0.000000
vt 0.453125 0.250000
vt 0.500000 0.250000
vt 0.500000 0.000000
vt 0.453125 0.000000
vt 0.453125 0.250000
vt 0.500000 0.250000
vt 0.500000 0.000000
vt 0.453125 0.000000
vt 0.453125 0.250000
vt 0.500000 0.250000
vt 0.500000 0.000000
vt 0.453125 0.000000
vt 0.453125 0.250000
vt 0.500000 0.250000
vt 0.500000 0.000000
vt 0.453125 0.000000
vt 0.453125 0.250000
vt 0.500000 0.250000
vt 0.500000 0.000000
vt 0.453125 0.000000
vt 0.453125 0.250000
vt 0.500000 0.250000
vt 0.500000 0.000000
vt 0.453125 0.000000
vt 0.453125 0.250000
vt 0.500000 0.250000
vt 0.500000 0.000000
vt 0.453125 0.000000
vt 0.453125 0.250000
vt 0.500000 0.250000
vt 0.500000 0.000000
vt 0.453125 0.000000
vt 0.453125 0.250000
vt 0.500000 0.250000
vt 0.500000 0.000000
vt 0.453125 0.000000
vt 0.453125 0.250000
vt 0.500000 0.250000
vt 0.500000 0.000000
vt 0.453125 0.000000
vt 0.453125 0.250000
vt 0.500000 0.250000
vt 0.500000 0.000000
vt 0.453125 0.000000
vt 0.453125 0.250000
vt 0.500000 0.250000
vt 0.500000 0.000000
vt 0.453125 0.000000
vt 0.453125 0.250000
vt 0.500000 0.250000
vt 0.500000 0.000000
vt 0.453125 0.000000
vt 0.453125 0.250000
vt 0.500000 0.250000
vt 0.500000 0.000000
vt 0.453125 0.000000
vt 0.453125 0.250000
vt 0.500000 0.250000
vt 0.500000 0.000000
vt 0.453125 0.000000
vt 0.453125 0.250000
vt 0.500000 0.250000
vt 0.500000 0.000000
vt 0.453125 0.000000
vt 0.453125 0.250000
vt 0.500000 0.250000
vt 0.500000 0.000000
vt 0.453125 0.000000
vt 0.453125 0.250000
vt 0.500000 0.250000
vt 0.500000 0.000000
vt 0.453125 0.000000
vt 0.453125 0.250000
vt 0.500000 0.250000
vt 0.500000 0.000000
vt 0.453125 0.000000
vt 0.453125 0.250000
vt 0.500000 0.250000
vt 0.500000 0.000000
vt 0.453125 0.000000
vt 0.453125 0.250000
vt 0.500000 0.250000
vt 0.500000 0.000000
vt 0.453125 0.000000
vt 0.453125 0.250000
vt 0.500000 0.250000
vt 0.500000 0.000000
vt 0.500000 0.281250
vt 0.500000 0.234375
vt 0.453125 0.234375
vt 0.453125 0.281250
vt 0.453125 0.000000
vt 0.453125 0.250000
vt 0.500000 0.250000
vt 0.500000 0.000000
vt 0.453125 0.000000
vt 0.453125 0.250000
vt 0.500000 0.250000
vt 0.500000 0.000000
vt 0.500000 0.250000
vt 0.453125 0.250000
vt 0.453125 0.000000
vt 0.500000 0.000000
vt 0.500000 0.250000
vt 0.453125 0.250000
vt 0.453125 0.000000
vt 0.500000 0.000000
vt 0.453125 0.250000
vt 0.500000 0.250000
vt 0.500000 0.296875
vt 0.453125 0.296875
vt 0.500000 0.250000
vt 0.453125 0.250000
vt 0.453125 0.000000
vt 0.500000 0.000000
vt 0.500000 0.250000
vt 0.453125 0.250000
vt 0.453125 0.000000
vt 0.500000 0.000000
vt 0.500000 0.250000
vt 0.453125 0.250000
vt 0.453125 0.000000
vt 0.500000 0.000000
vt 0.500000 0.250000
vt 0.453125 0.250000
vt 0.453125 0.000000
vt 0.500000 0.000000
vt 0.500000 0.250000
vt 0.453125 0.250000
vt 0.453125 0.000000
vt 0.500000 0.000000
vt 0.500000 0.250000
vt 0.453125 0.250000
vt 0.453125 0.000000
vt 0.500000 0.000000
vt 0.500000 0.250000
vt 0.453125 0.250000
vt 0.453125 0.000000
vt 0.500000 0.000000
vt 0.500000 0.250000
vt 0.453125 0.250000
vt 0.453125 0.000000
vt 0.500000 0.000000
vt 0.500000 0.250000
vt 0.453125 0.250000
vt 0.453125 0.000000
vt 0.500000 0.000000
vt 0.500000 0.250000
vt 0.453125 0.250000
vt 0.453125 0.000000
vt 0.500000 0.000000
vt 0.500000 0.250000
vt 0.453125 0.250000
vt 0.453125 0.000000
vt 0.500000 0.000000
vt 0.500000 0.250000
vt 0.453125 0.250000
vt 0.453125 0.000000
vt 0.500000 0.000000
vt 0.500000 0.250000
vt 0.453125 0.250000
vt 0.453125 0.000000
vt 0.500000 0.000000
vt 0.500000 0.250000
vt 0.453125 0.250000
vt 0.453125 0.000000
vt 0.500000 0.000000
vt 0.500000 0.250000
vt 0.453125 0.250000
vt 0.453125 0.000000
vt 0.500000 0.000000
vt 0.500000 0.250000
vt 0.453125 0.250000
vt 0.453125 0.000000
vt 0.500000 0.000000
vt 0.500000 0.250000
vt 0.453125 0.250000
vt 0.453125 0.000000
vt 0.500000 0.000000
vt 0.500000 0.250000
vt 0.453125 0.250000
vt 0.453125 0.000000
vt 0.500000 0.000000
vt 0.500000 0.250000
vt 0.453125 0.250000
vt 0.453125 0.000000
vt 0.500000 0.000000
vt 0.500000 0.250000
vt 0.453125 0.250000
vt 0.453125 0.000000
vt 0.500000 0.000000
vt 0.500000 0.250000
vt 0.453125 0.250000
vt 0.453125 0.000000
vt 0.500000 0.000000
vt 0.500000 0.250000
vt 0.453125 0.250000
vt 0.453125 0.000000
vt 0.500000 0.000000
vt 0.500000 0.250000
vt 0.453125 0.250000
vt 0.453125 0.000000
vt 0.500000 0.000000
vt 0.500000 0.250000
vt 0.453125 0.250000
vt 0.453125 0.000000
vt 0.500000 0.000000
vt 0.453125 0.234375
vt 0.500000 0.234375
vt 0.500000 0.281250
vt 0.453125 0.281250
vt 0.500000 0.250000
vt 0.453125 0.250000
vt 0.453125 0.000000
vt 0.500000 0.000000
vt 0.500000 0.250000
vt 0.453125 0.250000
vt 0.453125 0.000000
vt 0.500000 0.000000
vt 0.453125 0.000000
vt 0.453125 0.250000
vt 0.500000 0.250000
vt 0.500000 0.000000
vt 0.453125 0.000000
vt 0.453125 0.250000
vt 0.500000 0.250000
vt 0.500000 0.000000
vt 0.500000 0.296875
vt 0.500000 0.250000
vt 0.453125 0.250000
vt 0.453125 0.296875
vt 0.453125 0.000000
vt 0.453125 0.250000
vt 0.500000 0.250000
vt 0.500000 0.000000
vt 0.453125 0.000000
vt 0.453125 0.250000
vt 0.500000 0.250000
vt 0.500000 0.000000
vt 0.453125 0.000000
vt 0.453125 0.250000
vt 0.500000 0.250000
vt 0.500000 0.000000
vt 0.453125 0.000000
vt 0.453125 0.250000
vt 0.500000 0.250000
vt 0.500000 0.000000
vt 0.453125 0.000000
vt 0.453125 0.250000
vt 0.500000 0.250000
vt 0.500000 0.000000
vt 0.453125 0.000000
vt 0.453125 0.250000
vt 0.500000 0.250000
vt 0.500000 0.000000
vt 0.453125 0.000000
vt 0.453125 0.250000
vt 0.500000 0.250000
vt 0.500000 0.000000
vt 0.453125 0.000000
vt 0.453125 0.250000
vt 0.500000 0.250000
vt 0.500000 0.000000
vt 0.453125 0.000000
vt 0.453125 0.250000
vt 0.500000 0.250000
vt 0.500000 0.000000
vt 0.453125 0.000000
vt 0.453125 0.250000
vt 0.500000 0.250000
vt 0.500000 0.000000
vt 0.453125 0.000000
vt 0.453125 0.250000
vt 0.500000 0.250000
vt 0.500000 0.000000
vt 0.453125 0.000000
vt 0.453125 0.250000
vt 0.500000 0.250000
vt 0.500000 0.000000
vt 0.453125 0.000000
vt 0.453125 0.250000
vt 0.500000 0.250000
vt 0.500000 0.000000
vt 0.453125 0.000000
vt 0.453125 0.250000
vt 0.500000 0.250000
vt 0.500000 0.000000
vt 0.453125 0.000000
vt 0.453125 0.250000
vt 0.500000 0.250000
vt 0.500000 0.000000
vt 0.453125 0.000000
vt 0.453125 0.250000
vt 0.500000 0.250000
vt 0.500000 0.000000
vt 0.453125 0.000000
vt 0.453125 0.250000
vt 0.500000 0.250000
vt 0.500000 0.000000
vt 0.453125 0.000000
vt 0.453125 0.250000
vt 0.500000 0.250000
vt 0.500000 0.000000
vt 0.453125 0.000000
vt 0.453125 0.250000
vt 0.500000 0.250000
vt 0.500000 0.000000
vt 0.453125 0.000000
vt 0.453125 0.250000
vt 0.500000 0.250000
vt 0.500000 0.000000
vt 0.453125 0.000000
vt 0.453125 0.250000
vt 0.500000 0.250000
vt 0.500000 0.000000
vt 0.453125 0.000000
vt 0.453125 0.250000
vt 0.500000 0.250000
vt 0.500000 0.000000
vt 0.453125 0.000000
vt 0.453125 0.250000
vt 0.500000 0.250000
vt 0.500000 0.000000
vt 0.453125 0.000000
vt 0.453125 0.250000
vt 0.500000 0.250000
vt 0.500000 0.000000
vt 0.500000 0.281250
vt 0.500000 0.234375
vt 0.453125 0.234375
vt 0.453125 0.281250
vt 0.453125 0.000000
vt 0.453125 0.250000
vt 0.500000 0.250000
vt 0.500000 0.000000
vt 0.453125 0.000000
vt 0.453125 0.250000
vt 0.500000 0.250000
vt 0.500000 0.000000
vn 1 0 0
vn 0 1 0
vn 0 -1 0
vn 0 0 1
vn 0 0 1
vn 1 0 0
vn -1 0 0
vn 0 1 0
vn 0 -1 0
vn 0 0 1
vn 0 -1 0
vn -1 0 0
vn 0 0 1
vn -1 0 0
vn 0 1 0
vn 0 -1 0
vn 0 0 -1
vn -1 0 0
vn 0 0 -1
vn 1 0 0
vn -1 0 0
vn 0 1 0
vn 0 -1 0
vn 0 0 1
vn 0 0 -1
vn 1 0 0
vn -1 0 0
vn 0 1 0
vn 0 -1 0
vn 0 0 1
vn 0 0 -1
vn 1 0 0
vn -1 0 0
vn 0 1 0
vn 0 0 -1
vn 0 0 -1
vn 1 0 0
vn 0 0 1
vn -1 0 0
vn 0 0 -1
vn 0 0 -1
vn 0 0 -1
vn 0 0 -1
vn -1 0 0
vn 0 1 0
vn 1 0 0
vn 0 -1 0
vn 0 0 -1
vn 0 0 -1
vn 0 0 -1
vn 0 0 -1
vn 1 0 0
vn 0 -1 0
vn -1 0 0
vn 0 1 0
vn 1 0 0
vn -1 0 0
vn 0 1 0
vn 0 0 1
vn 0 0 -1
vn 1 0 0
vn -1 0 0
vn 0 1 0
vn 0 0 1
vn 0 0 -1
vn 0 0 1
vn -1 0 0
vn 0 -1 0
vn 1 0 0
vn 0 1 0
vn 0 0 1
vn -1 0 0
vn 0 -1 0
vn 1 0 0
vn 0 1 0
vn 0 0 1
vn 0 0 1
vn 0 0 1
vn 0 0 1
vn 1 0 0
vn 0 1 0
vn -1 0 0
vn 0 -1 0
vn 0 0 1
vn 0 0 1
vn 0 0 1
vn 0 0 1
vn 1 0 0
vn -1 0 0
vn 0 1 0
vn 0 -1 0
vn 0 0 1
vn 0 0 -1
vn 0.7071067811865476 0.7071067811865476 0
vn -0.7071067811865476 0.7071067811865476 0
vn 0 1 0
vn 0 -1 0
vn 0 0.7071067811865476 0.7071067811865476
vn 0 0.7071067811865476 -0.7071067811865476
vn -1 0 0
vn 0 1 0
vn 0 -1 0
vn -0.24253562503633297 0 -0.9701425001453319
vn 1 0 0
vn -1 0 0
vn 0 -1 0
vn 0 1 0
vn 0 1 0
vn 0 -1 0
vn 0 0 1
vn 0 0 -1
vn 1 0 0
vn -1 0 0
vn 0 0 1
vn 0 0 -1
vn 1 0 0
vn -1 0 0
vn 0 1 0
vn 0 0.24253562503633297 0.9701425001453319
vn -1.490116000960977e-8 -0.9999999999999999 5.3290705182007506e-15
vn -4.440892876050403e-16 -5.218048209120794e-15 -1
vn 7.940933880509068e-23 5.32907051820075e-15 1
vn 0.9701424965312694 -0.24253563949258297 1.0770746050274081e-15
vn 1 0 0
vn -1 0 0
vn 0 0 1
vn 0 0 -1
vn -0.8944271909999161 -0.44721359549995804 0
vn 0.8944271909999161 -0.44721359549995804 0
vn 0 -1 0
vn 0 -0.44721359549995804 0.8944271909999161
vn 0 -0.44721359549995804 -0.8944271909999161
vn 0.8944271909999161 0.44721359549995804 0
vn -0.8944271909999161 0.44721359549995804 0
vn 0 1 0
vn 0 0.44721359549995804 0.8944271909999161
vn 0 0.44721359549995804 -0.8944271909999161
vn 0.6925234835899466 -0.20329720767862344 0.6921571136862784
vn -0.6925234835899456 0.2032972076786231 -0.6921571136862795
vn -0.14361256280119372 -0.9791170432414515 -0.14389318065770454
vn 0.7069559084427539 0.0002469497763469302 -0.7072575786329113
vn -0.7069559084427528 -0.0002469497763475751 0.7072575786329124
vn 0.6925234835899399 -0.2032972076786214 0.6921571136862857
vn -0.6925234835899444 0.20329720767862322 -0.6921571136862807
vn 0.706955908442754 0.000246949776347546 -0.707257578632911
vn -0.7069559084427539 -0.00024694977634631736 0.7072575786329112
vn 0.692523483589942 -0.2032972076786234 0.6921571136862831
vn -0.6925234835899432 0.20329720767862342 -0.6921571136862819
vn 0.7069559084427539 0.0002469497763466225 -0.7072575786329113
vn -0.7069559084427551 -0.0002469497763465766 0.70725757863291
vn 0.6925234835899426 -0.20329720767862366 0.6921571136862822
vn -0.6925234835899469 0.20329720767862308 -0.6921571136862783
vn 0.7069559084427521 0.0002469497763472863 -0.7072575786329129
vn -0.7069559084427539 -0.000246949776346614 0.7072575786329113
vn 0.6925234835899403 -0.20329720767862275 0.692157113686285
vn -0.6925234835899462 0.20329720767862353 -0.6921571136862789
vn 0.7069559084427528 0.00024694977634757845 -0.7072575786329123
vn -0.7069559084427529 -0.00024694977634757704 0.7072575786329123
vn 0.6925234835899455 -0.20329720767862478 0.692157113686279
vn -0.6925234835899459 0.2032972076786233 -0.6921571136862792
vn 0.7069559084427527 0.0002469497763468098 -0.7072575786329124
vn -0.7069559084427528 -0.0002469497763472798 0.7072575786329123
vn 0.6925234835899442 -0.20329720767862255 0.692157113686281
vn -0.6925234835899469 0.2032972076786228 -0.6921571136862784
vn 0.1436125628011935 0.979117043241451 0.14389318065770826
vn 0.7069559084427534 0.0002469497763469472 -0.7072575786329117
vn -0.7069559084427545 -0.0002469497763465768 0.7072575786329106
vn 2.5376526277146434e-16 0 -1
vn -2.5376526277146434e-16 0 1
vn 0 1 0
vn 0 -1 0
vn 2.5376526277146434e-16 0 -1
vn -5.075305255429287e-16 0 1
vn 0 1 0
vn 0 -1 0
vn -1 0 0
vn 1 0 0
vn 0 1 0
vn 0 -1 0
vn -1 0 1.2688263138573217e-16
vn 1 0 -1.2688263138573217e-16
vn 0 1 0
vn 0 -1 0
vn -1 0 4.179663151530001e-16
vn 1 0 0
vn 0 1 0
vn 0 -1 0
vn 2.0898315757650005e-16 0 -1
vn 0 1 0
vn -1 0 0
vn 1 0 -2.0898315757650005e-16
vn 0 1 0
vn 0 -1 0
vn 4.179663151530001e-16 0 -1
vn -4.179663151530001e-16 0 1
vn 0 1 0
vn 0 -1 0
vn 0 -1 0
vn 0 0 1
vn -0.6925234835899399 -0.20329720767862136 0.6921571136862856
vn 0.6925234835899444 0.20329720767862322 -0.6921571136862807
vn -0.706955908442754 0.00024694977634754706 -0.707257578632911
vn 0.7069559084427539 -0.00024694977634631736 0.7072575786329112
vn -0.6925234835899421 -0.20329720767862344 0.692157113686283
vn 0.6925234835899432 0.2032972076786234 -0.6921571136862817
vn -0.7069559084427539 0.0002469497763466225 -0.7072575786329113
vn 0.7069559084427551 -0.0002469497763465766 0.7072575786329101
vn -0.6925234835899426 -0.20329720767862366 0.6921571136862822
vn 0.6925234835899469 0.20329720767862303 -0.6921571136862782
vn -0.7069559084427521 0.00024694977634728745 -0.7072575786329129
vn 0.7069559084427539 -0.000246949776346614 0.7072575786329113
vn -0.6925234835899404 -0.20329720767862278 0.6921571136862849
vn 0.6925234835899463 0.20329720767862353 -0.6921571136862786
vn -0.7069559084427529 0.0002469497763475796 -0.7072575786329123
vn 0.706955908442753 -0.00024694977634757704 0.7072575786329122
vn -0.6925234835899456 -0.20329720767862475 0.6921571136862791
vn 0.6925234835899459 0.2032972076786233 -0.6921571136862792
vn -0.7069559084427527 0.0002469497763468098 -0.7072575786329124
vn 0.7069559084427527 -0.0002469497763472798 0.7072575786329124
vn -0.6925234835899442 -0.20329720767862253 0.6921571136862811
vn 0.6925234835899466 0.2032972076786228 -0.6921571136862784
vn -0.14361256280119347 0.979117043241451 0.14389318065770826
vn -0.7069559084427534 0.00024694977634694604 -0.7072575786329118
vn 0.7069559084427545 -0.00024694977634661384 0.7072575786329106
vn -0.6925234835899466 -0.20329720767862344 -0.6921571136862784
vn 0.6925234835899456 0.2032972076786231 0.6921571136862795
vn 0.14361256280119372 -0.9791170432414515 0.14389318065770454
vn -0.7069559084427539 0.0002469497763469302 0.7072575786329113
vn 0.7069559084427528 -0.0002469497763475751 -0.7072575786329124
vn -0.6925234835899399 -0.2032972076786214 -0.6921571136862857
vn 0.6925234835899444 0.20329720767862322 0.6921571136862807
vn -0.706955908442754 0.000246949776347546 0.707257578632911
vn 0.7069559084427539 -0.00024694977634631736 -0.7072575786329112
vn -0.692523483589942 -0.2032972076786234 -0.6921571136862831
vn 0.6925234835899432 0.20329720767862342 0.6921571136862819
vn -0.7069559084427539 0.0002469497763466225 0.7072575786329113
vn 0.7069559084427551 -0.0002469497763465766 -0.70725757863291
vn -0.6925234835899426 -0.20329720767862366 -0.6921571136862822
vn 0.6925234835899469 0.20329720767862308 0.6921571136862783
vn -0.7069559084427521 0.0002469497763472863 0.7072575786329129
vn 0.7069559084427539 -0.000246949776346614 -0.7072575786329113
vn -0.6925234835899403 -0.20329720767862275 -0.692157113686285
vn 0.6925234835899462 0.20329720767862353 0.6921571136862789
vn -0.7069559084427528 0.00024694977634757845 0.7072575786329123
vn 0.7069559084427529 -0.00024694977634757704 -0.7072575786329123
vn -0.6925234835899455 -0.20329720767862478 -0.692157113686279
vn 0.6925234835899459 0.2032972076786233 0.6921571136862792
vn -0.7069559084427527 0.0002469497763468098 0.7072575786329124
vn 0.7069559084427528 -0.0002469497763472798 -0.7072575786329123
vn -0.6925234835899442 -0.20329720767862255 -0.692157113686281
vn 0.6925234835899469 0.2032972076786228 0.6921571136862784
vn -0.1436125628011935 0.979117043241451 -0.14389318065770826
vn -0.7069559084427534 0.0002469497763469472 0.7072575786329117
vn 0.7069559084427545 -0.0002469497763465768 -0.7072575786329106
vn 0.6925234835899468 -0.20329720767862344 -0.6921571136862783
vn -0.6925234835899455 0.20329720767862305 0.6921571136862795
vn -0.14361256280119375 -0.9791170432414515 0.14389318065770454
vn 0.706955908442754 0.0002469497763469325 0.7072575786329112
vn -0.7069559084427528 -0.0002469497763475751 -0.7072575786329123
vn 0.6925234835899399 -0.20329720767862136 -0.6921571136862856
vn -0.6925234835899444 0.20329720767862322 0.6921571136862807
vn 0.706955908442754 0.00024694977634754706 0.707257578632911
vn -0.7069559084427539 -0.00024694977634631736 -0.7072575786329112
vn 0.6925234835899421 -0.20329720767862344 -0.692157113686283
vn -0.6925234835899432 0.2032972076786234 0.6921571136862817
vn 0.7069559084427539 0.0002469497763466225 0.7072575786329113
vn -0.7069559084427551 -0.0002469497763465766 -0.7072575786329101
vn 0.6925234835899426 -0.20329720767862366 -0.6921571136862822
vn -0.6925234835899469 0.20329720767862303 0.6921571136862782
vn 0.7069559084427521 0.00024694977634728745 0.7072575786329129
vn -0.7069559084427539 -0.000246949776346614 -0.7072575786329113
vn 0.6925234835899404 -0.20329720767862278 -0.6921571136862849
vn -0.6925234835899463 0.20329720767862353 0.6921571136862786
vn 0.7069559084427529 0.0002469497763475796 0.7072575786329123
vn -0.706955908442753 -0.00024694977634757704 -0.7072575786329122
vn 0.6925234835899456 -0.20329720767862475 -0.6921571136862791
vn -0.6925234835899459 0.2032972076786233 0.6921571136862792
vn 0.7069559084427527 0.0002469497763468098 0.7072575786329124
vn -0.7069559084427527 -0.0002469497763472798 -0.7072575786329124
vn 0.6925234835899442 -0.20329720767862253 -0.6921571136862811
vn -0.6925234835899466 0.2032972076786228 0.6921571136862784
vn 0.14361256280119347 0.979117043241451 -0.14389318065770826
vn 0.7069559084427534 0.00024694977634694604 0.7072575786329118
vn -0.7069559084427545 -0.00024694977634661384 -0.7072575786329106
usemtl common_concrete
f 1/1/1 9/2/1 11/3/1
f 1/1/1 11/3/1 2/4/1
f 1/5/2 2/6/2 6/7/2
f 1/5/2 6/7/2 5/8/2
f 4/9/3 3/10/3 7/11/3
f 4/9/3 7/11/3 8/12/3
f 5/13/4 10/14/4 9/15/4
f 5/13/4 9/15/4 1/16/4
f 3/17/5 9/18/5 10/19/5
f 3/17/5 10/19/5 7/20/5
f 4/21/6 11/22/6 9/23/6
f 4/21/6 9/23/6 3/24/6
f 14/25/7 22/26/7 21/27/7
f 14/25/7 21/27/7 13/28/7
f 13/29/8 20/30/8 19/31/8
f 13/29/8 19/31/8 14/32/8
f 16/33/9 18/34/9 17/35/9
f 16/33/9 17/35/9 15/36/9
f 13/37/10 21/38/10 23/39/10
f 13/37/10 23/39/10 20/40/10
usemtl radio_station
f 7/41/11 17/42/11 18/43/11
f 7/41/11 18/43/11 12/44/11
usemtl common_concrete
f 15/45/12 21/46/12 22/47/12
f 15/45/12 22/47/12 16/48/12
f 17/49/13 23/50/13 21/51/13
f 17/49/13 21/51/13 15/52/13
f 27/53/14 29/54/14 22/55/14
f 27/53/14 22/55/14 14/56/14
f 24/57/15 25/58/15 27/59/15
f 24/57/15 27/59/15 14/60/15
f 26/61/16 12/62/16 16/63/16
f 26/61/16 16/63/16 28/64/16
f 25/65/17 30/66/17 29/67/17
f 25/65/17 29/67/17 27/68/17
f 16/69/18 22/70/18 29/71/18
f 16/69/18 29/71/18 28/72/18
f 28/73/19 29/74/19 30/75/19
f 28/73/19 30/75/19 26/76/19
usemtl radio_station
f 31/77/20 50/78/20 49/79/20
f 31/77/20 49/79/20 32/80/20
f 35/81/21 48/82/21 51/83/21
f 35/81/21 51/83/21 34/84/21
f 31/85/22 32/86/22 35/87/22
f 31/85/22 35/87/22 34/88/22
f 33/89/23 4/90/23 8/91/23
f 33/89/23 8/91/23 26/92/23
f 34/93/24 51/94/24 50/95/24
f 34/93/24 50/95/24 31/96/24
usemtl common_thingies
f 64/97/25 66/98/25 65/99/25
f 64/97/25 65/99/25 67/100/25
usemtl radio_station
f 39/101/26 37/102/26 36/103/26
f 39/101/26 36/103/26 38/104/26
f 42/105/27 40/106/27 41/107/27
f 42/105/27 41/107/27 43/108/27
f 36/109/28 37/110/28 41/111/28
f 36/109/28 41/111/28 40/112/28
f 39/113/29 38/114/29 42/115/29
f 39/113/29 42/115/29 43/116/29
f 38/117/30 36/118/30 40/119/30
f 38/117/30 40/119/30 42/120/30
f 43/121/31 41/122/31 37/123/31
f 43/121/31 37/123/31 39/124/31
f 24/125/32 45/126/32 44/127/32
f 24/125/32 44/127/32 5/128/32
f 20/129/33 46/130/33 47/131/33
f 20/129/33 47/131/33 19/132/33
f 44/133/34 45/134/34 47/135/34
f 44/133/34 47/135/34 46/136/34
f 19/137/35 47/138/35 45/139/35
f 19/137/35 45/139/35 24/140/35
f 26/141/36 48/142/36 49/143/36
f 26/141/36 49/143/36 33/144/36
f 33/145/37 49/146/37 50/147/37
f 33/145/37 50/147/37 4/148/37
f 4/149/38 50/150/38 51/151/38
f 4/149/38 51/151/38 8/152/38
f 8/153/39 51/154/39 48/155/39
f 8/153/39 48/155/39 26/156/39
f 54/157/40 52/158/40 32/159/40
f 54/157/40 32/159/40 49/160/40
f 53/161/41 54/162/41 49/163/41
f 53/161/41 49/163/41 48/164/41
f 55/165/42 53/166/42 48/167/42
f 55/165/42 48/167/42 35/168/42
f 52/169/43 55/170/43 35/171/43
f 52/169/43 35/171/43 32/172/43
f 58/173/44 56/174/44 52/175/44
f 58/173/44 52/175/44 54/176/44
f 57/177/45 58/178/45 54/179/45
f 57/177/45 54/179/45 53/180/45
f 59/181/46 57/182/46 53/183/46
f 59/181/46 53/183/46 55/184/46
f 56/185/47 59/186/47 55/187/47
f 56/185/47 55/187/47 52/188/47
f 62/189/48 60/190/48 56/191/48
f 62/189/48 56/191/48 58/192/48
f 61/193/49 62/194/49 58/195/49
f 61/193/49 58/195/49 57/196/49
f 63/197/50 61/198/50 57/199/50
f 63/197/50 57/199/50 59/200/50
f 60/201/51 63/202/51 59/203/51
f 60/201/51 59/203/51 56/204/51
usemtl common_thingies
f 66/205/52 64/206/52 60/207/52
f 66/205/52 60/207/52 62/208/52
f 65/209/53 66/210/53 62/211/53
f 65/209/53 62/211/53 61/212/53
f 67/213/54 65/214/54 61/215/54
f 67/213/54 61/215/54 63/216/54
f 64/217/55 67/218/55 63/219/55
f 64/217/55 63/219/55 60/220/55
usemtl radio_station
f 72/221/56 70/222/56 69/223/56
f 72/221/56 69/223/56 71/224/56
f 68/225/57 73/226/57 74/227/57
f 68/225/57 74/227/57 75/228/57
f 69/229/58 70/230/58 74/231/58
f 69/229/58 74/231/58 73/232/58
f 71/233/59 69/234/59 73/235/59
f 71/233/59 73/235/59 68/236/59
f 75/237/60 74/238/60 70/239/60
f 75/237/60 70/239/60 72/240/60
f 79/241/61 77/242/61 76/243/61
f 79/241/61 76/243/61 78/244/61
f 82/245/62 80/246/62 81/247/62
f 82/245/62 81/247/62 83/248/62
f 76/249/63 77/250/63 81/251/63
f 76/249/63 81/251/63 80/252/63
f 78/253/64 76/254/64 80/255/64
f 78/253/64 80/255/64 82/256/64
f 83/257/65 81/258/65 77/259/65
f 83/257/65 77/259/65 79/260/65
usemtl common_thingies
f 84/261/66 86/262/66 85/263/66
f 84/261/66 85/263/66 87/264/66
f 86/265/67 84/266/67 89/267/67
f 86/265/67 89/267/67 90/268/67
f 85/269/68 86/270/68 90/271/68
f 85/269/68 90/271/68 91/272/68
f 87/273/69 85/274/69 91/275/69
f 87/273/69 91/275/69 88/276/69
f 84/277/70 87/278/70 88/279/70
f 84/277/70 88/279/70 89/280/70
f 95/281/71 97/282/71 96/283/71
f 95/281/71 96/283/71 98/284/71
f 97/285/72 95/286/72 92/287/72
f 97/285/72 92/287/72 94/288/72
f 96/289/73 97/290/73 94/291/73
f 96/289/73 94/291/73 99/292/73
f 98/293/74 96/294/74 99/295/74
f 98/293/74 99/295/74 93/296/74
f 95/297/75 98/298/75 93/299/75
f 95/297/75 93/299/75 92/300/75
usemtl radio_station
f 104/301/76 102/302/76 46/303/76
f 104/301/76 46/303/76 17/304/76
f 107/305/77 104/306/77 17/307/77
f 107/305/77 17/307/77 7/308/77
f 103/309/78 107/310/78 7/311/78
f 103/309/78 7/311/78 44/312/78
f 102/313/79 103/314/79 44/315/79
f 102/313/79 44/315/79 46/316/79
f 105/317/80 101/318/80 102/319/80
f 105/317/80 102/319/80 104/320/80
f 106/321/81 105/322/81 104/323/81
f 106/321/81 104/323/81 107/324/81
f 100/325/82 106/326/82 107/327/82
f 100/325/82 107/327/82 103/328/82
f 101/329/83 100/330/83 103/331/83
f 101/329/83 103/331/83 102/332/83
f 94/333/84 92/334/84 101/335/84
f 94/333/84 101/335/84 105/336/84
f 99/337/85 94/338/85 105/339/85
f 99/337/85 105/339/85 106/340/85
f 93/341/86 99/342/86 106/343/86
f 93/341/86 106/343/86 100/344/86
f 92/345/87 93/346/87 100/347/87
f 92/345/87 100/347/87 101/348/87
f 111/349/88 109/350/88 108/351/88
f 111/349/88 108/351/88 110/352/88
f 114/353/89 112/354/89 113/355/89
f 114/353/89 113/355/89 115/356/89
f 108/357/90 109/358/90 113/359/90
f 108/357/90 113/359/90 112/360/90
f 111/361/91 110/362/91 114/363/91
f 111/361/91 114/363/91 115/364/91
f 110/365/92 108/366/92 112/367/92
f 110/365/92 112/367/92 114/368/92
f 115/369/93 113/370/93 109/371/93
f 115/369/93 109/371/93 111/372/93
f 119/373/94 117/374/94 116/375/94
f 119/373/94 116/375/94 118/376/94
f 122/377/95 120/378/95 121/379/95
f 122/377/95 121/379/95 123/380/95
f 116/381/96 117/382/96 121/383/96
f 116/381/96 121/383/96 120/384/96
f 119/385/97 118/386/97 122/387/97
f 119/385/97 122/387/97 123/388/97
f 118/389/98 116/390/98 120/391/98
f 118/389/98 120/391/98 122/392/98
f 123/393/99 121/394/99 117/395/99
f 123/393/99 117/395/99 119/396/99
usemtl common_copper_cable
f 130/397/100 128/398/100 129/399/100
f 130/397/100 129/399/100 131/400/100
f 124/401/101 125/402/101 129/403/101
f 124/401/101 129/403/101 128/404/101
f 127/405/102 126/406/102 130/407/102
f 127/405/102 130/407/102 131/408/102
f 131/409/103 129/410/103 125/411/103
f 131/409/103 125/411/103 127/412/103
f 135/413/104 133/414/104 132/415/104
f 135/413/104 132/415/104 134/416/104
f 138/417/105 136/418/105 137/419/105
f 138/417/105 137/419/105 139/420/105
f 132/421/106 133/422/106 137/423/106
f 132/421/106 137/423/106 136/424/106
f 135/425/107 134/426/107 138/427/107
f 135/425/107 138/427/107 139/428/107
f 140/429/108 141/430/108 145/431/108
f 140/429/108 145/431/108 144/432/108
f 143/433/109 142/434/109 146/435/109
f 143/433/109 146/435/109 147/436/109
f 142/437/110 140/438/110 144/439/110
f 142/437/110 144/439/110 146/440/110
f 147/441/111 145/442/111 141/443/111
f 147/441/111 141/443/111 143/444/111
f 151/445/112 149/446/112 148/447/112
f 151/445/112 148/447/112 150/448/112
f 154/449/113 152/450/113 153/451/113
f 154/449/113 153/451/113 155/452/113
f 150/453/114 148/454/114 152/455/114
f 150/453/114 152/455/114 154/456/114
f 155/457/115 153/458/115 149/459/115
f 155/457/115 149/459/115 151/460/115
f 159/461/116 157/462/116 156/463/116
f 159/461/116 156/463/116 158/464/116
f 162/465/117 160/466/117 161/467/117
f 162/465/117 161/467/117 163/468/117
f 156/469/118 157/470/118 161/471/118
f 156/469/118 161/471/118 160/472/118
f 158/473/119 156/474/119 160/475/119
f 158/473/119 160/475/119 162/476/119
f 170/477/120 168/478/120 169/479/120
f 170/477/120 169/479/120 171/480/120
f 164/481/121 165/482/121 169/483/121
f 164/481/121 169/483/121 168/484/121
f 167/485/122 166/486/122 170/487/122
f 167/485/122 170/487/122 171/488/122
f 171/489/123 169/490/123 165/491/123
f 171/489/123 165/491/123 167/492/123
usemtl radio_station
f 175/493/124 173/494/124 172/495/124
f 175/493/124 172/495/124 174/496/124
f 178/497/125 176/498/125 177/499/125
f 178/497/125 177/499/125 179/500/125
f 174/501/126 172/502/126 176/503/126
f 174/501/126 176/503/126 178/504/126
f 179/505/127 177/506/127 173/507/127
f 179/505/127 173/507/127 175/508/127
f 183/509/128 181/510/128 180/511/128
f 183/509/128 180/511/128 182/512/128
f 186/513/129 184/514/129 185/515/129
f 186/513/129 185/515/129 187/516/129
f 180/517/130 181/518/130 185/519/130
f 180/517/130 185/519/130 184/520/130
f 182/521/131 180/522/131 184/523/131
f 182/521/131 184/523/131 186/524/131
f 187/525/132 185/526/132 181/527/132
f 187/525/132 181/527/132 183/528/132
f 191/529/133 189/530/133 188/531/133
f 191/529/133 188/531/133 190/532/133
f 194/533/134 192/534/134 193/535/134
f 194/533/134 193/535/134 195/536/134
f 188/537/135 189/538/135 193/539/135
f 188/537/135 193/539/135 192/540/135
f 190/541/136 188/542/136 192/543/136
f 190/541/136 192/543/136 194/544/136
f 195/545/137 193/546/137 189/547/137
f 195/545/137 189/547/137 191/548/137
f 196/549/138 197/550/138 199/551/138
f 196/549/138 199/551/138 198/552/138
f 201/553/139 200/554/139 202/555/139
f 201/553/139 202/555/139 203/556/139
f 202/557/140 198/558/140 199/559/140
f 202/557/140 199/559/140 203/560/140
f 200/561/141 196/562/141 198/563/141
f 200/561/141 198/563/141 202/564/141
f 197/565/142 201/566/142 203/567/142
f 197/565/142 203/567/142 199/568/142
f 204/569/143 205/570/143 207/571/143
f 204/569/143 207/571/143 206/572/143
f 209/573/144 208/574/144 210/575/144
f 209/573/144 210/575/144 211/576/144
f 208/577/145 204/578/145 206/579/145
f 208/577/145 206/579/145 210/580/145
f 205/581/146 209/582/146 211/583/146
f 205/581/146 211/583/146 207/584/146
f 212/585/147 213/586/147 215/587/147
f 212/585/147 215/587/147 214/588/147
f 217/589/148 216/590/148 218/591/148
f 217/589/148 218/591/148 219/592/148
f 216/593/149 212/594/149 214/595/149
f 216/593/149 214/595/149 218/596/149
f 213/597/150 217/598/150 219/599/150
f 213/597/150 219/599/150 215/600/150
f 220/601/151 221/602/151 223/603/151
f 220/601/151 223/603/151 222/604/151
f 225/605/152 224/606/152 226/607/152
f 225/605/152 226/607/152 227/608/152
f 224/609/153 220/610/153 222/611/153
f 224/609/153 222/611/153 226/612/153
f 221/613/154 225/614/154 227/615/154
f 221/613/154 227/615/154 223/616/154
f 228/617/155 229/618/155 231/619/155
f 228/617/155 231/619/155 230/620/155
f 233/621/156 232/622/156 234/623/156
f 233/621/156 234/623/156 235/624/156
f 232/625/157 228/626/157 230/627/157
f 232/625/157 230/627/157 234/628/157
f 229/629/158 233/630/158 235/631/158
f 229/629/158 235/631/158 231/632/158
f 236/633/159 237/634/159 239/635/159
f 236/633/159 239/635/159 238/636/159
f 241/637/160 240/638/160 242/639/160
f 241/637/160 242/639/160 243/640/160
f 240/641/161 236/642/161 238/643/161
f 240/641/161 238/643/161 242/644/161
f 237/645/162 241/646/162 243/647/162
f 237/645/162 243/647/162 239/648/162
f 244/649/163 245/650/163 247/651/163
f 244/649/163 247/651/163 246/652/163
f 249/653/164 248/654/164 250/655/164
f 249/653/164 250/655/164 251/656/164
f 249/657/165 245/658/165 244/659/165
f 249/657/165 244/659/165 248/660/165
f 248/661/166 244/662/166 246/663/166
f 248/661/166 246/663/166 250/664/166
f 245/665/167 249/666/167 251/667/167
f 245/665/167 251/667/167 247/668/167
f 255/669/168 253/670/168 252/671/168
f 255/669/168 252/671/168 254/672/168
f 258/673/169 256/674/169 257/675/169
f 258/673/169 257/675/169 259/676/169
f 252/677/170 253/678/170 257/679/170
f 252/677/170 257/679/170 256/680/170
f 255/681/171 254/682/171 258/683/171
f 255/681/171 258/683/171 259/684/171
f 263/685/172 261/686/172 260/687/172
f 263/685/172 260/687/172 262/688/172
f 266/689/173 264/690/173 265/691/173
f 266/689/173 265/691/173 267/692/173
f 260/693/174 261/694/174 265/695/174
f 260/693/174 265/695/174 264/696/174
f 263/697/175 262/698/175 266/699/175
f 263/697/175 266/699/175 267/700/175
f 271/701/176 269/702/176 268/703/176
f 271/701/176 268/703/176 270/704/176
f 274/705/177 272/706/177 273/707/177
f 274/705/177 273/707/177 275/708/177
f 268/709/178 269/710/178 273/711/178
f 268/709/178 273/711/178 272/712/178
f 271/713/179 270/714/179 274/715/179
f 271/713/179 274/715/179 275/716/179
f 279/717/180 277/718/180 276/719/180
f 279/717/180 276/719/180 278/720/180
f 282/721/181 280/722/181 281/723/181
f 282/721/181 281/723/181 283/724/181
f 276/725/182 277/726/182 281/727/182
f 276/725/182 281/727/182 280/728/182
f 279/729/183 278/730/183 282/731/183
f 279/729/183 282/731/183 283/732/183
f 287/733/184 285/734/184 284/735/184
f 287/733/184 284/735/184 286/736/184
f 290/737/185 288/738/185 289/739/185
f 290/737/185 289/739/185 291/740/185
f 284/741/186 285/742/186 289/743/186
f 284/741/186 289/743/186 288/744/186
f 287/745/187 286/746/187 290/747/187
f 287/745/187 290/747/187 291/748/187
f 295/749/188 293/750/188 292/751/188
f 295/749/188 292/751/188 294/752/188
f 292/753/189 293/754/189 297/755/189
f 292/753/189 297/755/189 296/756/189
f 303/757/190 301/758/190 300/759/190
f 303/757/190 300/759/190 302/760/190
f 306/761/191 304/762/191 305/763/191
f 306/761/191 305/763/191 307/764/191
f 300/765/192 301/766/192 305/767/192
f 300/765/192 305/767/192 304/768/192
f 303/769/193 302/770/193 306/771/193
f 303/769/193 306/771/193 307/772/193
f 311/773/194 309/774/194 308/775/194
f 311/773/194 308/775/194 310/776/194
f 314/777/195 312/778/195 313/779/195
f 314/777/195 313/779/195 315/780/195
f 308/781/196 309/782/196 313/783/196
f 308/781/196 313/783/196 312/784/196
f 311/785/197 310/786/197 314/787/197
f 311/785/197 314/787/197 315/788/197
f 295/789/198 294/790/198 298/791/198
f 295/789/198 298/791/198 299/792/198
f 298/793/199 296/794/199 297/795/199
f 298/793/199 297/795/199 299/796/199
f 319/797/200 317/798/200 316/799/200
f 319/797/200 316/799/200 318/800/200
f 322/801/201 320/802/201 321/803/201
f 322/801/201 321/803/201 323/804/201
f 318/805/202 316/806/202 320/807/202
f 318/805/202 320/807/202 322/808/202
f 323/809/203 321/810/203 317/811/203
f 323/809/203 317/811/203 319/812/203
f 327/813/204 325/814/204 324/815/204
f 327/813/204 324/815/204 326/816/204
f 330/817/205 328/818/205 329/819/205
f 330/817/205 329/819/205 331/820/205
f 326/821/206 324/822/206 328/823/206
f 326/821/206 328/823/206 330/824/206
f 331/825/207 329/826/207 325/827/207
f 331/825/207 325/827/207 327/828/207
f 335/829/208 333/830/208 332/831/208
f 335/829/208 332/831/208 334/832/208
f 338/833/209 336/834/209 337/835/209
f 338/833/209 337/835/209 339/836/209
f 334/837/210 332/838/210 336/839/210
f 334/837/210 336/839/210 338/840/210
f 339/841/211 337/842/211 333/843/211
f 339/841/211 333/843/211 335/844/211
f 343/845/212 341/846/212 340/847/212
f 343/845/212 340/847/212 342/848/212
f 346/849/213 344/850/213 345/851/213
f 346/849/213 345/851/213 347/852/213
f 342/853/214 340/854/214 344/855/214
f 342/853/214 344/855/214 346/856/214
f 347/857/215 345/858/215 341/859/215
f 347/857/215 341/859/215 343/860/215
f 351/861/216 349/862/216 348/863/216
f 351/861/216 348/863/216 350/864/216
f 354/865/217 352/866/217 353/867/217
f 354/865/217 353/867/217 355/868/217
f 350/869/218 348/870/218 352/871/218
f 350/869/218 352/871/218 354/872/218
f 355/873/219 353/874/219 349/875/219
f 355/873/219 349/875/219 351/876/219
f 359/877/220 357/878/220 356/879/220
f 359/877/220 356/879/220 358/880/220
f 362/881/221 360/882/221 361/883/221
f 362/881/221 361/883/221 363/884/221
f 356/885/222 357/886/222 361/887/222
f 356/885/222 361/887/222 360/888/222
f 358/889/223 356/890/223 360/891/223
f 358/889/223 360/891/223 362/892/223
f 363/893/224 361/894/224 357/895/224
f 363/893/224 357/895/224 359/896/224
f 364/897/225 365/898/225 367/899/225
f 364/897/225 367/899/225 366/900/225
f 369/901/226 368/902/226 370/903/226
f 369/901/226 370/903/226 371/904/226
f 370/905/227 366/906/227 367/907/227
f 370/905/227 367/907/227 371/908/227
f 368/909/228 364/910/228 366/911/228
f 368/909/228 366/911/228 370/912/228
f 365/913/229 369/914/229 371/915/229
f 365/913/229 371/915/229 367/916/229
f 372/917/230 373/918/230 375/919/230
f 372/917/230 375/919/230 374/920/230
f 377/921/231 376/922/231 378/923/231
f 377/921/231 378/923/231 379/924/231
f 376/925/232 372/926/232 374/927/232
f 376/925/232 374/927/232 378/928/232
f 373/929/233 377/930/233 379/931/233
f 373/929/233 379/931/233 375/932/233
f 380/933/234 381/934/234 383/935/234
f 380/933/234 383/935/234 382/936/234
f 385/937/235 384/938/235 386/939/235
f 385/937/235 386/939/235 387/940/235
f 384/941/236 380/942/236 382/943/236
f 384/941/236 382/943/236 386/944/236
f 381/945/237 385/946/237 387/947/237
f 381/945/237 387/947/237 383/948/237
f 388/949/238 389/950/238 391/951/238
f 388/949/238 391/951/238 390/952/238
f 393/953/239 392/954/239 394/955/239
f 393/953/239 394/955/239 395/956/239
f 392/957/240 388/958/240 390/959/240
f 392/957/240 390/959/240 394/960/240
f 389/961/241 393/962/241 395/963/241
f 389/961/241 395/963/241 391/964/241
f 396/965/242 397/966/242 399/967/242
f 396/965/242 399/967/242 398/968/242
f 401/969/243 400/970/243 402/971/243
f 401/969/243 402/971/243 403/972/243
f 400/973/244 396/974/244 398/975/244
f 400/973/244 398/975/244 402/976/244
f 397/977/245 401/978/245 403/979/245
f 397/977/245 403/979/245 399/980/245
f 404/981/246 405/982/246 407/983/246
f 404/981/246 407/983/246 406/984/246
f 409/985/247 408/986/247 410/987/247
f 409/985/247 410/987/247 411/988/247
f 408/989/248 404/990/248 406/991/248
f 408/989/248 406/991/248 410/992/248
f 405/993/249 409/994/249 411/995/249
f 405/993/249 411/995/249 407/996/249
f 412/997/250 413/998/250 415/999/250
f 412/997/250 415/999/250 414/1000/250
f 417/1001/251 416/1002/251 418/1003/251
f 417/1001/251 418/1003/251 419/1004/251
f 417/1005/252 413/1006/252 412/1007/252
f 417/1005/252 412/1007/252 416/1008/252
f 416/1009/253 412/1010/253 414/1011/253
f 416/1009/253 414/1011/253 418/1012/253
f 413/1013/254 417/1014/254 419/1015/254
f 413/1013/254 419/1015/254 415/1016/254
f 423/1017/255 421/1018/255 420/1019/255
f 423/1017/255 420/1019/255 422/1020/255
f 426/1021/256 424/1022/256 425/1023/256
f 426/1021/256 425/1023/256 427/1024/256
f 423/1025/257 422/1026/257 426/1027/257
f 423/1025/257 426/1027/257 427/1028/257
f 422/1029/258 420/1030/258 424/1031/258
f 422/1029/258 424/1031/258 426/1032/258
f 427/1033/259 425/1034/259 421/1035/259
f 427/1033/259 421/1035/259 423/1036/259
f 431/1037/260 429/1038/260 428/1039/260
f 431/1037/260 428/1039/260 430/1040/260
f 434/1041/261 432/1042/261 433/1043/261
f 434/1041/261 433/1043/261 435/1044/261
f 430/1045/262 428/1046/262 432/1047/262
f 430/1045/262 432/1047/262 434/1048/262
f 435/1049/263 433/1050/263 429/1051/263
f 435/1049/263 429/1051/263 431/1052/263
f 439/1053/264 437/1054/264 436/1055/264
f 439/1053/264 436/1055/264 438/1056/264
f 442/1057/265 440/1058/265 441/1059/265
f 442/1057/265 441/1059/265 443/1060/265
f 438/1061/266 436/1062/266 440/1063/266
f 438/1061/266 440/1063/266 442/1064/266
f 443/1065/267 441/1066/267 437/1067/267
f 443/1065/267 437/1067/267 439/1068/267
f 447/1069/268 445/1070/268 444/1071/268
f 447/1069/268 444/1071/268 446/1072/268
f 450/1073/269 448/1074/269 449/1075/269
f 450/1073/269 449/1075/269 451/1076/269
f 446/1077/270 444/1078/270 448/1079/270
f 446/1077/270 448/1079/270 450/1080/270
f 451/1081/271 449/1082/271 445/1083/271
f 451/1081/271 445/1083/271 447/1084/271
f 455/1085/272 453/1086/272 452/1087/272
f 455/1085/272 452/1087/272 454/1088/272
f 458/1089/273 456/1090/273 457/1091/273
f 458/1089/273 457/1091/273 459/1092/273
f 454/1093/274 452/1094/274 456/1095/274
f 454/1093/274 456/1095/274 458/1096/274
f 459/1097/275 457/1098/275 453/1099/275
f 459/1097/275 453/1099/275 455/1100/275
f 463/1101/276 461/1102/276 460/1103/276
f 463/1101/276 460/1103/276 462/1104/276
f 466/1105/277 464/1106/277 465/1107/277
f 466/1105/277 465/1107/277 467/1108/277
f 462/1109/278 460/1110/278 464/1111/278
f 462/1109/278 464/1111/278 466/1112/278
f 467/1113/279 465/1114/279 461/1115/279
f 467/1113/279 461/1115/279 463/1116/279
f 471/1117/280 469/1118/280 468/1119/280
f 471/1117/280 468/1119/280 470/1120/280
f 474/1121/281 472/1122/281 473/1123/281
f 474/1121/281 473/1123/281 475/1124/281
f 468/1125/282 469/1126/282 473/1127/282
f 468/1125/282 473/1127/282 472/1128/282
f 470/1129/283 468/1130/283 472/1131/283
f 470/1129/283 472/1131/283 474/1132/283
f 475/1133/284 473/1134/284 469/1135/284
f 475/1133/284 469/1135/284 471/1136/284