# Made by Pabilo8 with Blockbench
# Exported with IIToolkit Plugin on 03/06/2026
mtllib data_input_machine.mtl

o mess_upgraded
v -0.9687 0.2476 0.4678
v -0.9687 0.1057 0.1894
v -0.9687 0.1919 0.4962
v -0.0937 0.2476 0.4678
v -0.0937 0.1057 0.1894
v -0.0937 0.1919 0.4962
v -0.0937 0.0501 0.2177
v -0.2812 0.1057 0.1894
v -0.2812 0.0501 0.2177
v -0.0937 0.1057 0.1894
v -0.0937 0.0501 0.2177
v -0.9687 0.1057 0.1894
v -0.9687 0.0774 0.1337
v -0.9687 0.0217 0.1621
v -0.2812 0.1057 0.1894
v -0.2812 0.0774 0.1337
v -0.2812 0.0501 0.2177
v -0.2812 0.0217 0.1621
v -0.2812 0.0774 0.1337
v -0.2812 0.049 0.078
v -0.2812 0.0217 0.1621
v -0.2812 -0.0067 0.1064
v -0.0937 0.0774 0.1337
v -0.0937 0.049 0.078
v -0.0937 0.0217 0.1621
v -0.0937 -0.0067 0.1064
v -0.2187 0.1057 0.1894
v -0.2187 0.0774 0.1337
v -0.2187 0.0501 0.2177
v -0.2187 0.0217 0.1621
v -0.1562 0.1057 0.1894
v -0.1562 0.0774 0.1337
v -0.1562 0.0501 0.2177
v -0.1562 0.0217 0.1621
v -0.0937 0.1875 1
v -0.0937 0.1875 0.4844
v -0.0937 0 1
v -0.0937 0 0.1094
v -0.9687 0.1875 1
v -0.9687 0.1875 0.4844
v -0.9687 0 1
v -0.9687 0 0.1094
v -0.1875 0.5901 0.8672
v -0.375 0.5901 0.8672
v -0.1875 0.5305 0.8484
v -0.375 0.5305 0.8484
v -0.1875 0.5713 0.9269
v -0.1875 0.5117 0.9081
v -0.375 0.5713 0.9269
v -0.375 0.5117 0.9081
v -0.25 0.5305 0.8484
v -0.3125 0.5305 0.8484
v -0.25 0.4113 0.8109
v -0.3125 0.4113 0.8109
v -0.25 0.5117 0.9081
v -0.25 0.3925 0.8705
v -0.3125 0.5117 0.9081
v -0.3125 0.3925 0.8705
v -0.4375 0.5799 0.7858
v -0.625 0.5799 0.7858
v -0.4375 0.5183 0.7966
v -0.625 0.5183 0.7966
v -0.4375 0.5907 0.8473
v -0.4375 0.5292 0.8582
v -0.625 0.5907 0.8473
v -0.625 0.5292 0.8582
v -0.5 0.5183 0.7966
v -0.5625 0.5183 0.7966
v -0.5 0.3952 0.8183
v -0.5625 0.3952 0.8183
v -0.5 0.5292 0.8582
v -0.5 0.4061 0.8799
v -0.5625 0.5292 0.8582
v -0.5625 0.4061 0.8799
v -0.1875 0.5469 0.5625
v -0.375 0.5469 0.5625
v -0.1875 0.4844 0.5625
v -0.375 0.4844 0.5625
v -0.1875 0.5469 0.625
v -0.1875 0.4844 0.625
v -0.375 0.5469 0.625
v -0.375 0.4844 0.625
v -0.25 0.4844 0.5625
v -0.3125 0.4844 0.5625
v -0.25 0.3594 0.5625
v -0.3125 0.3594 0.5625
v -0.25 0.4844 0.625
v -0.25 0.3594 0.625
v -0.3125 0.4844 0.625
v -0.3125 0.3594 0.625
v -0.7187 0.5278 0.7633
v -0.7187 0.5441 0.8872
v -0.8437 0.5278 0.7633
v -0.8437 0.5441 0.8872
v -0.7187 0.4658 0.7714
v -0.8437 0.4658 0.7714
v -0.8437 0.4822 0.8954
v -0.7187 0.4822 0.8954
v -0.6875 0.4332 0.5236
v -0.6875 0.4903 0.9573
v -0.875 0.4332 0.5236
v -0.875 0.4903 0.9573
v -0.6875 0.3712 0.5317
v -0.875 0.3712 0.5317
v -0.875 0.4283 0.9655
v -0.6875 0.4283 0.9655
v -0.7187 0.5033 0.5774
v -0.7187 0.5196 0.7013
v -0.8437 0.5033 0.5774
v -0.8437 0.5196 0.7013
v -0.7187 0.4414 0.5855
v -0.8437 0.4414 0.5855
v -0.8437 0.4577 0.7095
v -0.7187 0.4577 0.7095
v -0.125 0.4375 1
v -0.9375 0.4375 1
v -0.125 0.1875 1
v -0.9375 0.1875 1
v -0.125 0.3655 0.4962
v -0.125 0.1875 0.4962
v -0.9375 0.3655 0.4962
v -0.9375 0.1875 0.4962
v -0.5 0.5183 0.6091
v -0.5625 0.5183 0.6091
v -0.5 0.3952 0.6308
v -0.5625 0.3952 0.6308
v -0.5 0.5292 0.6707
v -0.5 0.4061 0.6924
v -0.5625 0.5292 0.6707
v -0.5625 0.4061 0.6924
v -0.4375 0.5799 0.5983
v -0.625 0.5799 0.5983
v -0.4375 0.5183 0.6091
v -0.625 0.5183 0.6091
v -0.4375 0.5907 0.6598
v -0.4375 0.5292 0.6707
v -0.625 0.5907 0.6598
v -0.625 0.5292 0.6707
v -0.5 0.4375 1
v -0.5 0.3655 0.4962
v -0.5 0.1875 0.4962
v -0.5 0.3655 0.4962
v -0.5 0.4015 0.7481
v -0.9375 0.4015 0.7481
v -0.5 0.4015 0.7481
v -0.125 0.4015 0.7481
v 0.6875 -0.1875 0.0625
v 0.6875 -0.1875 1
v 0.6875 -1 0.0625
v 0.6875 -1 1
v 0.0625 -0.1875 0.0625
v 0.0625 -0.1875 1
v 0.0625 -1 0.0625
v 0.0625 -1 1
v 0.375 -1 0.0625
v 0.375 -1 1
v 0.375 -0.1875 1
v 0.375 -0.1875 0.0625
v 0.375 -0.625 0.0625
v 0.0625 -0.625 0.0625
v 0.6875 -0.625 0.0625
v 0.375 -0.625 0.0625
v 0.6875 -0.625 1
v 0.6875 -0.625 0.0625
v 0.0625 -0.625 1
v 0.0625 -0.625 0.0625
v 0.375 -0.625 1
v 0.6875 -0.625 1
v 0.0625 -0.625 1
v 0.375 -0.625 1
v 0.6875 -0.625 0.5625
v 0.6875 -0.1875 0.5625
v 0.6875 -1 0.5625
v 0.6875 -0.625 0.5625
v 0.0625 -1 0.5625
v 0.0625 -0.625 0.5625
v 0.0625 -0.1875 0.5625
v 0.0625 -0.625 0.5625
v 0.0625 -1 0.5625
v 0.375 -1 0.5625
v 0.6875 -1 0.5625
v 0.375 -1 0.5625
v -1.0959 0.6161 0.5922
v -1.0959 0.6161 0.9672
v -0.9665 0.1331 0.5922
v -0.9665 0.1331 0.9672
v -1.2167 0.5837 0.5922
v -1.2167 0.5837 0.9672
v -1.0873 0.1008 0.5922
v -1.0873 0.1008 0.9672
v -1.1439 0.3183 0.6297
v -1.1439 0.3183 0.7484
v -1.0792 0.0768 0.6297
v -1.0792 0.0768 0.7484
v -1.2043 0.3021 0.6297
v -1.2043 0.3021 0.7484
v -1.1396 0.0607 0.6297
v -1.1396 0.0607 0.7484
v -0.9687 0.125 0.625
v -0.9687 0.125 0.75
v -0.9687 0.0625 0.625
v -0.9687 0.0625 0.75
v -1.1375 0.125 0.625
v -1.1375 0.125 0.75
v -1.1375 0.0625 0.625
v -1.1375 0.0625 0.75
v -1.1439 0.3183 0.8172
v -1.1439 0.3183 0.9359
v -1.0792 0.0768 0.8172
v -1.0792 0.0768 0.9359
v -1.2043 0.3021 0.8172
v -1.2043 0.3021 0.9359
v -1.1396 0.0607 0.8172
v -1.1396 0.0607 0.9359
v -0.9687 0.125 0.8125
v -0.9687 0.125 0.9375
v -0.9687 0.0625 0.8125
v -0.9687 0.0625 0.9375
v -1.1375 0.125 0.8125
v -1.1375 0.125 0.9375
v -1.1375 0.0625 0.8125
v -1.1375 0.0625 0.9375
vt 1 0.6406
vt 0.7813 0.6406
vt 0.7813 0.7188
vt 1 0.7188
vt 1 0.7188
vt 0.7813 0.7188
vt 0.7813 0.7031
vt 1 0.7031
vt 0.9844 0.6406
vt 0.9844 0.7188
vt 1 0.7188
vt 1 0.6406
vt 0.9531 0.6563
vt 1 0.6563
vt 1 0.6406
vt 0.9531 0.6406
vt 0.9375 0.6406
vt 0.9531 0.6406
vt 0.9531 0.625
vt 0.9375 0.625
vt 0.9531 0.6406
vt 0.7813 0.6406
vt 0.7813 0.625
vt 0.9531 0.625
vt 0.7813 0.6406
vt 0.9531 0.6406
vt 0.9531 0.625
vt 0.7813 0.625
vt 0.9531 0.625
vt 0.9688 0.625
vt 0.9688 0.6094
vt 0.9531 0.6094
vt 0.9531 0.625
vt 1 0.625
vt 1 0.6094
vt 0.9531 0.6094
vt 0.9531 0.625
vt 1 0.625
vt 1 0.6094
vt 0.9531 0.6094
vt 0.9531 0.625
vt 1 0.625
vt 1 0.6094
vt 0.9531 0.6094
vt 0.9844 0.6094
vt 0.9844 0.625
vt 1 0.625
vt 1 0.6094
vt 0.9688 0.6406
vt 0.9844 0.6406
vt 0.9844 0.625
vt 0.9688 0.625
vt 0.9688 0.6406
vt 0.9844 0.6406
vt 0.9844 0.625
vt 0.9688 0.625
vt 0.9688 0.6406
vt 0.9844 0.6406
vt 0.9844 0.625
vt 0.9688 0.625
vt 0.7969 0.7188
vt 0.7813 0.7188
vt 0.7813 0.625
vt 0.7969 0.625
vt 0.4375 0.625
vt 0.5313 0.8125
vt 0.5313 1
vt 0.4375 1
vt 0.4375 1
vt 0.5313 1
vt 0.5313 0.8125
vt 0.4375 0.625
vt 0.4375 1
vt 0.4375 0.8125
vt 0 0.8125
vt 0 1
vt 0 0.5
vt 0 0.5938
vt 0.4375 0.5938
vt 0.4375 0.5
vt 0 0.5938
vt 0 0.8125
vt 0.4375 0.8125
vt 0.4375 0.5938
vt 0 0.8828
vt 0.0938 0.8828
vt 0.0938 0.8672
vt 0 0.8672
vt 0.2031 0.2031
vt 0.25 0.2031
vt 0.25 0.1875
vt 0.2031 0.1875
vt 0.2031 0.3281
vt 0.25 0.3281
vt 0.25 0.3125
vt 0.2031 0.3125
vt 0.25 0.3125
vt 0.25 0.2031
vt 0.2031 0.2031
vt 0.2031 0.3125
vt 0.2188 0.3125
vt 0.2187 0.2031
vt 0.2031 0.2031
vt 0.2031 0.3125
vt 0.25 0.3125
vt 0.25 0.2031
vt 0.2344 0.2031
vt 0.2344 0.3125
vt 0.7813 0.9219
vt 0.8125 0.9219
vt 0.8125 0.9063
vt 0.7813 0.9063
vt 0.8125 0.9375
vt 0.7813 0.9375
vt 0.7813 0.9219
vt 0.8125 0.9219
vt 0.8125 0.9375
vt 0.8125 0.9063
vt 0.7813 0.9063
vt 0.7813 0.9375
vt 0.7969 0.9375
vt 0.7969 0.9062
vt 0.7813 0.9062
vt 0.7813 0.9375
vt 0.8125 0.9219
vt 0.7813 0.9219
vt 0.7813 0.9062
vt 0.8125 0.9062
vt 0.75 0.9219
vt 0.7813 0.9219
vt 0.7813 0.9063
vt 0.75 0.9063
vt 0.7813 0.9375
vt 0.75 0.9375
vt 0.75 0.9219
vt 0.7813 0.9219
vt 0.7813 0.9375
vt 0.7813 0.9063
vt 0.75 0.9063
vt 0.75 0.9375
vt 0.7656 0.9375
vt 0.7656 0.9062
vt 0.75 0.9062
vt 0.75 0.9375
vt 0.7813 0.9219
vt 0.75 0.9219
vt 0.75 0.9063
vt 0.7813 0.9062
vt 0.7813 0.3906
vt 0.7969 0.3906
vt 0.7969 0.375
vt 0.7813 0.375
vt 0.7813 0.3906
vt 0.7969 0.3906
vt 0.7969 0.375
vt 0.7813 0.375
vt 0.7813 0.3906
vt 0.8281 0.3906
vt 0.8281 0.375
vt 0.7813 0.375
vt 0.7813 0.3906
vt 0.8281 0.3906
vt 0.8281 0.375
vt 0.7813 0.375
vt 0.7813 0.3906
vt 0.8281 0.3906
vt 0.8281 0.375
vt 0.7813 0.375
vt 0.7813 0.3906
vt 0.8281 0.3906
vt 0.8281 0.375
vt 0.7813 0.375
vt 0.8281 0.3906
vt 0.8438 0.3906
vt 0.8438 0.3594
vt 0.8281 0.3594
vt 0.8281 0.3906
vt 0.8438 0.3906
vt 0.8438 0.3594
vt 0.8281 0.3594
vt 0.8281 0.3906
vt 0.8438 0.3906
vt 0.8438 0.3594
vt 0.8281 0.3594
vt 0.8281 0.3906
vt 0.8438 0.3906
vt 0.8438 0.3594
vt 0.8281 0.3594
vt 0.7813 0.375
vt 0.7969 0.375
vt 0.7969 0.3594
vt 0.7813 0.3594
vt 0.7969 0.375
vt 0.7969 0.3594
vt 0.7813 0.3594
vt 0.7813 0.375
vt 0.7813 0.375
vt 0.8281 0.375
vt 0.8281 0.3594
vt 0.7813 0.3594
vt 0.8281 0.3594
vt 0.7813 0.3594
vt 0.7813 0.375
vt 0.8281 0.375
vt 0.7813 0.375
vt 0.8281 0.375
vt 0.8281 0.3594
vt 0.7813 0.3594
vt 0.7813 0.375
vt 0.8281 0.375
vt 0.8281 0.3594
vt 0.7813 0.3594
vt 0.8281 0.3906
vt 0.8438 0.3906
vt 0.8438 0.3594
vt 0.8281 0.3594
vt 0.8281 0.3125
vt 0.8281 0.3281
vt 0.7969 0.3281
vt 0.7969 0.3125
vt 0.8281 0.3906
vt 0.8438 0.3906
vt 0.8438 0.3594
vt 0.8281 0.3594
vt 0.8281 0.3906
vt 0.8438 0.3906
vt 0.8438 0.3594
vt 0.8281 0.3594
vt 0.7969 0.3594
vt 0.7969 0.3438
vt 0.7813 0.3438
vt 0.7813 0.3594
vt 0.7813 0.3594
vt 0.7969 0.3594
vt 0.7969 0.3437
vt 0.7813 0.3437
vt 0.8281 0.3438
vt 0.7813 0.3438
vt 0.7813 0.3594
vt 0.8281 0.3594
vt 0.7813 0.375
vt 0.8281 0.375
vt 0.8281 0.3594
vt 0.7813 0.3594
vt 0.7813 0.3594
vt 0.8281 0.3594
vt 0.8281 0.3438
vt 0.7813 0.3438
vt 0.7813 0.3594
vt 0.8281 0.3594
vt 0.8281 0.3438
vt 0.7813 0.3438
vt 0.8281 0.3125
vt 0.8281 0.3281
vt 0.7969 0.3281
vt 0.7969 0.3125
vt 0.8281 0.3906
vt 0.8437 0.3906
vt 0.8437 0.3594
vt 0.8281 0.3594
vt 0.8281 0.3906
vt 0.8438 0.3906
vt 0.8438 0.3594
vt 0.8281 0.3594
vt 0.8281 0.3906
vt 0.8438 0.3906
vt 0.8438 0.3594
vt 0.8281 0.3594
vt 0.7969 0.375
vt 0.7969 0.4195
vt 0.9219 0.4375
vt 0.9219 0.375
vt 0.9844 0.4195
vt 0.9844 0.375
vt 0.8594 0.375
vt 0.8594 0.4375
vt 0.7813 0.3437
vt 0.7969 0.3438
vt 0.7969 0.3281
vt 0.7813 0.3281
vt 0.7969 0.3438
vt 0.7969 0.3281
vt 0.7813 0.3281
vt 0.7813 0.3438
vt 0.7813 0.3438
vt 0.8281 0.3438
vt 0.8281 0.3281
vt 0.7813 0.3281
vt 0.8281 0.3281
vt 0.7813 0.3281
vt 0.7813 0.3438
vt 0.8281 0.3438
vt 0.7813 0.3438
vt 0.8281 0.3438
vt 0.8281 0.3281
vt 0.7813 0.3281
vt 0.7813 0.3438
vt 0.8281 0.3438
vt 0.8281 0.3281
vt 0.7813 0.3281
vt 0.8281 0.3906
vt 0.8438 0.3906
vt 0.8438 0.3594
vt 0.8281 0.3594
vt 0.8438 0.3906
vt 0.8281 0.3906
vt 0.8281 0.3594
vt 0.8437 0.3594
vt 0.8281 0.3906
vt 0.8438 0.3906
vt 0.8438 0.3594
vt 0.8281 0.3594
vt 0.8281 0.3906
vt 0.8438 0.3906
vt 0.8438 0.3594
vt 0.8281 0.3594
vt 0.2031 1
vt 0.2031 0.8741
vt 0 0.8741
vt 0 1
vt 1 0.25
vt 1 0.2031
vt 0.9063 0.2031
vt 0.9063 0.25
vt 0.875 0.2031
vt 0.7656 0.2031
vt 0.7656 0.25
vt 0.875 0.25
vt 0.7656 0.25
vt 0.875 0.25
vt 0.875 0.1875
vt 0.7656 0.1875
vt 0.875 0.125
vt 0.875 0.0625
vt 0.7656 0.0625
vt 0.7656 0.125
vt 0.9063 0.25
vt 1 0.25
vt 1 0.1875
vt 0.9063 0.1875
vt 1 0.0625
vt 0.9063 0.0625
vt 0.9063 0.125
vt 1 0.125
vt 0.6563 0.1875
vt 0.6563 0
vt 0.5 0
vt 0.5 0.1875
vt 0.5 0.5
vt 0.6563 0.5
vt 0.6563 0.2813
vt 0.5 0.2813
vt 0.8438 0.5
vt 1 0.5
vt 1 0.2813
vt 0.8438 0.2813
vt 1 0.1875
vt 1 0
vt 0.8438 0
vt 0.8438 0.1875
vt 0.6563 0.1875
vt 0.6563 0
vt 0.5 0
vt 0.5 0.1875
vt 0.5 0.5
vt 0.6563 0.5
vt 0.6563 0.2813
vt 0.5 0.2813
vt 0.8438 0.5
vt 1 0.5
vt 1 0.2813
vt 0.8438 0.2813
vt 1 0.1875
vt 1 0
vt 0.8438 0
vt 0.8438 0.1875
vt 1 0.5
vt 1 0.2813
vt 0.7813 0.2813
vt 0.7813 0.5
vt 0.75 0.2813
vt 0.5 0.2813
vt 0.5 0.5
vt 0.75 0.5
vt 1 0.1875
vt 1 0
vt 0.7813 0
vt 0.7813 0.1875
vt 0.75 0
vt 0.5 0
vt 0.5 0.1875
vt 0.75 0.1875
vt 0.7188 0
vt 0.5 0
vt 0.5 0.1875
vt 0.7188 0.1875
vt 1 0.1875
vt 1 0
vt 0.75 0
vt 0.75 0.1875
vt 0.5 0.2813
vt 0.5 0.5
vt 0.7188 0.5
vt 0.7188 0.2813
vt 0.75 0.5
vt 1 0.5
vt 1 0.2813
vt 0.75 0.2813
vt 0.5 0.3438
vt 0.5 0.5
vt 0.7188 0.5
vt 0.7188 0.3438
vt 0.75 0.5
vt 1 0.5
vt 1 0.3438
vt 0.75 0.3438
vt 1 0.1563
vt 1 0
vt 0.75 0
vt 0.75 0.1563
vt 0.7188 0
vt 0.5 0
vt 0.5 0.1563
vt 0.7188 0.1563
vt 0.4063 0.75
vt 0.625 0.75
vt 0.625 0.5
vt 0.4063 0.5
vt 0.625 0.75
vt 0.4063 0.75
vt 0.4063 0.5
vt 0.625 0.5
vt 0.375 0.7188
vt 0.3125 0.7188
vt 0.3125 0.5
vt 0.375 0.5
vt 0.375 0.5
vt 0.3125 0.5
vt 0.3125 0.7188
vt 0.375 0.7188
vt 0.4063 0.75
vt 0.4688 0.75
vt 0.4688 0.5
vt 0.4063 0.5
vt 0.3125 0.75
vt 0.375 0.75
vt 0.375 0.5313
vt 0.3125 0.5313
vt 0.0313 0.2969
vt 0 0.2969
vt 0 0.2344
vt 0.0313 0.2344
vt 0 0.2969
vt 0.0313 0.2969
vt 0.0313 0.2344
vt 0 0.2344
vt 0 0.2969
vt 0 0.2813
vt 0.0313 0.2813
vt 0.0313 0.2969
vt 0.0313 0.25
vt 0.0313 0.2344
vt 0 0.2344
vt 0 0.25
vt 0.0156 0.2969
vt 0.0313 0.2969
vt 0.0313 0.2344
vt 0.0156 0.2344
vt 0 0.2969
vt 0.0156 0.2969
vt 0.0156 0.2344
vt 0 0.2344
vt 0 0.2813
vt 0.0313 0.2813
vt 0.0313 0.2656
vt 0 0.2656
vt 0 0.2813
vt 0.0313 0.2813
vt 0.0313 0.2656
vt 0 0.2656
vt 0.0313 0.3234
vt 0.0313 0.2813
vt 0 0.2813
vt 0 0.3234
vt 0.0313 0.3234
vt 0.0313 0.2813
vt 0 0.2813
vt 0 0.3234
vt 0.0156 0.2609
vt 0.0156 0.2188
vt 0 0.2188
vt 0 0.2609
vt 0.0156 0.2609
vt 0.0156 0.2188
vt 0 0.2188
vt 0 0.2609
vt 0.0313 0.2969
vt 0 0.2969
vt 0 0.2344
vt 0.0313 0.2344
vt 0 0.2969
vt 0.0313 0.2969
vt 0.0313 0.2344
vt 0 0.2344
vt 0 0.2969
vt 0 0.2813
vt 0.0313 0.2813
vt 0.0313 0.2969
vt 0.0313 0.25
vt 0.0313 0.2344
vt 0 0.2344
vt 0 0.25
vt 0.0156 0.2969
vt 0.0313 0.2969
vt 0.0313 0.2344
vt 0.0156 0.2344
vt 0 0.2969
vt 0.0156 0.2969
vt 0.0156 0.2344
vt 0 0.2344
vt 0 0.2813
vt 0.0313 0.2813
vt 0.0313 0.2656
vt 0 0.2656
vt 0 0.2813
vt 0.0313 0.2813
vt 0.0313 0.2656
vt 0 0.2656
vt 0.0313 0.3234
vt 0.0313 0.2813
vt 0 0.2813
vt 0 0.3234
vt 0.0313 0.3234
vt 0.0313 0.2813
vt 0 0.2813
vt 0 0.3234
vt 0.0156 0.2609
vt 0.0156 0.2188
vt 0 0.2188
vt 0 0.2609
vt 0.0156 0.2609
vt 0.0156 0.2188
vt 0 0.2188
vt 0 0.2609
vn 0 0.89 -0.45
vn 0 0.45 0.89
vn 1 0 0
vn 0 -0.45 -0.89
vn 1 0 0
vn 0 0.89 -0.45
vn 0 -0.45 -0.89
vn -1 0 0
vn 0 0.89 -0.45
vn 0 0.45 0.89
vn 0 -0.45 -0.89
vn 1 0 0
vn -1 0 0
vn 1 0 0
vn 0 0.89 -0.45
vn -1 0 0
vn 1 0 0
vn -1 0 0
vn 0 1 0
vn 0 0 1
vn 0 0.89 -0.45
vn 0 0 1
vn 0 -0.13 -0.99
vn 0 0.13 0.99
vn 0 0.99 -0.13
vn -1 0 0
vn 1 0 0
vn 0 -0.13 -0.99
vn 0 0.13 0.99
vn 0 0.99 -0.13
vn -1 0 0
vn 1 0 0
vn 0 -0.13 -0.99
vn 0 0.13 0.99
vn 0 0.99 -0.13
vn -1 0 0
vn 1 0 0
vn 1 0 0
vn -1 0 0
vn 0 1 0
vn 0 -1 0
vn 0 0 -1
vn 0 0 1
vn 1 0 0
vn -1 0 0
vn 0 0 -1
vn 0 0 1
vn 1 0 0
vn -1 0 0
vn 0 0.98 -0.17
vn 0 -0.98 0.17
vn 0 -0.17 -0.98
vn 0 0.17 0.98
vn 1 0 0
vn -1 0 0
vn 0 -0.17 -0.98
vn 0 0.17 0.98
vn 1 0 0
vn -1 0 0
vn 0 0.95 0.3
vn 0 -0.95 -0.3
vn 0 0.3 -0.95
vn 0 -0.3 0.95
vn 1 0 0
vn -1 0 0
vn 0 0.3 -0.95
vn 0 -0.3 0.95
vn 1 0 0
vn -1 0 0
vn 1 0 0
vn -1 0 0
vn 0 0.98 -0.17
vn 0 -0.98 0.17
vn 0 -0.17 -0.98
vn 0 0.17 0.98
vn 1 0 0
vn -1 0 0
vn 0 -0.17 -0.98
vn 0 0.17 0.98
vn 0 -1 0
vn 0 0 -1
vn 0 0 -1
vn 0 0.99 -0.14
vn 0 0.99 -0.14
vn 0 0.99 -0.14
vn 0 0.99 -0.14
vn 0 0 -1
vn 0 0 -1
vn 0 0 -1
vn 0 0 -1
vn 0 0 1
vn 0 0 1
vn 0 0 1
vn 0 0 1
vn 1 0 0
vn 1 0 0
vn 1 0 0
vn 1 0 0
vn -1 0 0
vn -1 0 0
vn -1 0 0
vn -1 0 0
vn 0 -1 0
vn 0 -1 0
vn 0 -1 0
vn 0 -1 0
vn 0.97 0.26 0
vn -0.97 -0.26 0
vn -0.26 0.97 0
vn 0.26 -0.97 0
vn 0 0 -1
vn 0 0 1
vn 0.97 0.26 0
vn -0.97 -0.26 0
vn -0.26 0.97 0
vn 0.26 -0.97 0
vn 0 0 -1
vn 0 0 1
vn 1 0 0
vn -1 0 0
vn 0 1 0
vn 0 -1 0
vn 0 0 -1
vn 0 0 1
vn 0.97 0.26 0
vn -0.97 -0.26 0
vn -0.26 0.97 0
vn 0.26 -0.97 0
vn 0 0 -1
vn 0 0 1
vn 1 0 0
vn -1 0 0
vn 0 1 0
vn 0 -1 0
vn 0 0 -1
vn 0 0 1
usemtl common_thingies
f 5/1/1 2/2/1 1/3/1 4/4/1
f 4/5/2 1/6/2 3/7/2 6/8/2
f 5/9/3 4/10/3 6/11/3 7/12/3
f 8/13/4 10/14/4 11/15/4 9/16/4
f 16/17/5 15/18/5 17/19/5 18/20/5
f 16/21/6 13/22/6 12/23/6 15/24/6
f 13/25/7 16/26/7 18/27/7 14/28/7
f 19/29/8 20/30/8 22/31/8 21/32/8
f 24/33/9 20/34/9 19/35/9 23/36/9
f 23/37/10 19/38/10 21/39/10 25/40/10
f 20/41/11 24/42/11 26/43/11 22/44/11
f 26/45/12 24/46/12 23/47/12 25/48/12
f 27/49/13 28/50/13 30/51/13 29/52/13
f 32/53/14 31/54/14 33/55/14 34/56/14
f 32/57/15 28/58/15 27/59/15 31/60/15
f 3/61/16 1/62/16 13/63/16 14/64/16
usemtl typewriter_red
f 38/65/17 36/66/17 35/67/17 37/68/17
f 41/69/18 39/70/18 40/71/18 42/72/18
f 35/73/19 36/74/19 40/75/19 39/76/19
f 37/77/20 35/78/20 39/79/20 41/80/20
f 42/81/21 40/82/21 36/83/21 38/84/21
usemtl common_thingies
f 115/85/22 116/86/22 118/87/22 117/88/22
f 101/89/23 99/90/23 103/91/23 104/92/23
f 100/93/24 102/94/24 105/95/24 106/96/24
f 100/97/25 99/98/25 101/99/25 102/100/25
f 102/101/26 101/102/26 104/103/26 105/104/26
f 99/105/27 100/106/27 106/107/27 103/108/27
f 93/109/28 91/110/28 95/111/28 96/112/28
f 92/113/29 94/114/29 97/115/29 98/116/29
f 92/117/30 91/118/30 93/119/30 94/120/30
f 94/121/31 93/122/31 96/123/31 97/124/31
f 91/125/32 92/126/32 98/127/32 95/128/32
f 109/129/33 107/130/33 111/131/33 112/132/33
f 108/133/34 110/134/34 113/135/34 114/136/34
f 108/137/35 107/138/35 109/139/35 110/140/35
f 110/141/36 109/142/36 112/143/36 113/144/36
f 107/145/37 108/146/37 114/147/37 111/148/37
f 75/149/38 79/150/38 80/151/38 77/152/38
f 81/153/39 76/154/39 78/155/39 82/156/39
f 81/157/40 79/158/40 75/159/40 76/160/40
f 78/161/41 77/162/41 80/163/41 82/164/41
f 76/165/42 75/166/42 77/167/42 78/168/42
f 79/169/43 81/170/43 82/171/43 80/172/43
f 83/173/44 87/174/44 88/175/44 85/176/44
f 89/177/45 84/178/45 86/179/45 90/180/45
f 84/181/46 83/182/46 85/183/46 86/184/46
f 87/185/47 89/186/47 90/187/47 88/188/47
f 59/189/48 63/190/48 64/191/48 61/192/48
f 65/193/49 60/194/49 62/195/49 66/196/49
f 65/197/50 63/198/50 59/199/50 60/200/50
f 62/201/51 61/202/51 64/203/51 66/204/51
f 60/205/52 59/206/52 61/207/52 62/208/52
f 63/209/53 65/210/53 66/211/53 64/212/53
f 67/213/54 71/214/54 72/215/54 69/216/54
f 73/217/55 68/218/55 70/219/55 74/220/55
f 68/221/56 67/222/56 69/223/56 70/224/56
f 71/225/57 73/226/57 74/227/57 72/228/57
f 43/229/58 47/230/58 48/231/58 45/232/58
f 49/233/59 44/234/59 46/235/59 50/236/59
f 49/237/60 47/238/60 43/239/60 44/240/60
f 46/241/61 45/242/61 48/243/61 50/244/61
f 44/245/62 43/246/62 45/247/62 46/248/62
f 47/249/63 49/250/63 50/251/63 48/252/63
f 51/253/64 55/254/64 56/255/64 53/256/64
f 57/257/65 52/258/65 54/259/65 58/260/65
f 52/261/66 51/262/66 53/263/66 54/264/66
f 55/265/67 57/266/67 58/267/67 56/268/67
usemtl common_table
f 120/269/68 119/270/68 115/271/68 117/272/68
f 121/273/69 122/274/69 118/275/69 116/276/69
usemtl common_thingies
f 131/277/70 135/278/70 136/279/70 133/280/70
f 137/281/71 132/282/71 134/283/71 138/284/71
f 137/285/72 135/286/72 131/287/72 132/288/72
f 134/289/73 133/290/73 136/291/73 138/292/73
f 132/293/74 131/294/74 133/295/74 134/296/74
f 135/297/75 137/298/75 138/299/75 136/300/75
f 123/301/76 127/302/76 128/303/76 125/304/76
f 129/305/77 124/306/77 126/307/77 130/308/77
f 124/309/78 123/310/78 125/311/78 126/312/78
f 127/313/79 129/314/79 130/315/79 128/316/79
f 120/317/80 117/318/80 118/319/80 122/320/80
usemtl common_table
f 119/321/81 120/322/81 141/323/81 142/324/81
f 141/325/82 122/326/82 121/327/82 142/328/82
f 116/329/83 139/330/83 143/331/83 144/332/83
f 143/333/84 140/334/84 121/335/84 144/336/84
f 139/337/85 115/338/85 146/339/85 145/340/85
f 119/341/86 140/342/86 145/343/86 146/344/86
usemtl typewriter_red
f 159/345/87 155/346/87 153/347/87 160/348/87
f 151/349/88 158/350/88 159/351/88 160/352/88
f 158/353/89 147/354/89 161/355/89 162/356/89
f 161/357/90 149/358/90 155/359/90 162/360/90
f 167/361/91 156/362/91 150/363/91 168/364/91
f 148/365/92 157/366/92 167/367/92 168/368/92
f 157/369/93 152/370/93 169/371/93 170/372/93
f 169/373/94 154/374/94 156/375/94 170/376/94
f 148/377/95 163/378/95 171/379/95 172/380/95
f 171/381/96 164/382/96 147/383/96 172/384/96
f 163/385/97 150/386/97 173/387/97 174/388/97
f 173/389/98 149/390/98 164/391/98 174/392/98
f 175/393/99 154/394/99 165/395/99 176/396/99
f 166/397/100 153/398/100 175/399/100 176/400/100
f 165/401/101 152/402/101 177/403/101 178/404/101
f 177/405/102 151/406/102 166/407/102 178/408/102
f 156/409/103 154/410/103 179/411/103 180/412/103
f 179/413/104 153/414/104 155/415/104 180/416/104
f 155/417/105 149/418/105 181/419/105 182/420/105
f 181/421/106 150/422/106 156/423/106 182/424/106
usemtl data_input_machine
f 183/425/107 184/426/107 186/427/107 185/428/107
f 188/429/108 187/430/108 189/431/108 190/432/108
f 188/433/109 184/434/109 183/435/109 187/436/109
f 189/437/110 185/438/110 186/439/110 190/440/110
f 187/441/111 183/442/111 185/443/111 189/444/111
f 184/445/112 188/446/112 190/447/112 186/448/112
usemtl common_thingies
f 191/449/113 192/450/113 194/451/113 193/452/113
f 196/453/114 195/454/114 197/455/114 198/456/114
f 196/457/115 192/458/115 191/459/115 195/460/115
f 197/461/116 193/462/116 194/463/116 198/464/116
f 195/465/117 191/466/117 193/467/117 197/468/117
f 192/469/118 196/470/118 198/471/118 194/472/118
f 199/473/119 200/474/119 202/475/119 201/476/119
f 204/477/120 203/478/120 205/479/120 206/480/120
f 204/481/121 200/482/121 199/483/121 203/484/121
f 205/485/122 201/486/122 202/487/122 206/488/122
f 203/489/123 199/490/123 201/491/123 205/492/123
f 200/493/124 204/494/124 206/495/124 202/496/124
f 207/497/125 208/498/125 210/499/125 209/500/125
f 212/501/126 211/502/126 213/503/126 214/504/126
f 212/505/127 208/506/127 207/507/127 211/508/127
f 213/509/128 209/510/128 210/511/128 214/512/128
f 211/513/129 207/514/129 209/515/129 213/516/129
f 208/517/130 212/518/130 214/519/130 210/520/130
f 215/521/131 216/522/131 218/523/131 217/524/131
f 220/525/132 219/526/132 221/527/132 222/528/132
f 220/529/133 216/530/133 215/531/133 219/532/133
f 221/533/134 217/534/134 218/535/134 222/536/134
f 219/537/135 215/538/135 217/539/135 221/540/135
f 216/541/136 220/542/136 222/543/136 218/544/136