# Made by Pabilo8 with Blockbench
# Exported with IIToolkit Plugin
mtllib artillery_6bcal.mtl


o paint
v 0.18125 0.4375 0.18125
v 0.18125 0.4375 -0.18125
v 0.1875 0.25 0.1875
v 0.1875 0.25 -0.1875
v -0.18125 0.4375 0.18125
v -0.18125 0.4375 -0.18125
v -0.1875 0.25 0.1875
v -0.1875 0.25 -0.1875
vt 0.8125 0.8125
vt 1 0.8125
vt 1 0.4375
vt 0.8125 0.4375
vt 0.8125 0.8125
vt 1 0.8125
vt 1 0.4375
vt 0.8125 0.4375
vt 0.8125 0.8125
vt 1 0.8125
vt 1 0.4375
vt 0.8125 0.4375
vt 0.8125 0.8125
vt 1 0.8125
vt 1 0.4375
vt 0.8125 0.4375
vn 0.9994449069791544 0.03331483023263851 0
vn -0.9994449069791544 0.03331483023263851 0
vn 0 0.03331483023263851 0.9994449069791544
vn 0 0.03331483023263851 -0.9994449069791544
usemtl 6bcal_light_artillery
f 4/1/1 2/2/1 1/3/1 3/4/1
f 7/5/2 5/6/2 6/7/2 8/8/2
f 3/9/3 1/10/3 5/11/3 7/12/3
f 8/13/4 6/14/4 2/15/4 4/16/4
o casing
v 0.1875 0.1875 0.1875
v 0.1875 0.1875 -0.1875
v 0.1875 0 0.1875
v 0.1875 0 -0.1875
v -0.1875 0.1875 0.1875
v -0.1875 0.1875 -0.1875
v -0.1875 0 0.1875
v -0.1875 0 -0.1875
v 0.171875 0.5625 0.171875
v 0.171875 0.5625 -0.171875
v -0.171875 0.5625 0.171875
v -0.171875 0.5625 -0.171875
v 0.116875 0.5625 -0.116875
v -0.116875 0.5625 -0.116875
v 0.116875 0.5625 0.116875
v -0.116875 0.5625 0.116875
v 0.116875 0.1875 -0.116875
v -0.116875 0.1875 -0.116875
v 0.116875 0.1875 0.116875
v -0.116875 0.1875 0.116875
vt 0 0.375
vt 0 0.5625
vt 0.375 0.5625
vt 0.375 0.375
vt 0 0.375
vt 0 0.5625
vt 0.375 0.5625
vt 0.375 0.375
vt 0.375 0.375
vt 0.375 0
vt 0 0
vt 0 0.375
vt 0.375 0
vt 0.375 0.375
vt 0 0.375
vt 0 0
vt 0 0.375
vt 0 0.5625
vt 0.375 0.5625
vt 0.375 0.375
vt 0 0.375
vt 0 0.5625
vt 0.375 0.5625
vt 0.375 0.375
vt 0.375 0.5625
vt 0.375 0.9375
vt 0 0.9375
vt 0 0.5625
vt 0.375 0.5625
vt 0.375 0.9375
vt 0 0.9375
vt 0 0.5625
vt 0 0.5625
vt 0 0.9375
vt 0.375 0.9375
vt 0.375 0.5625
vt 0 0.5625
vt 0 0.9375
vt 0.375 0.9375
vt 0.375 0.5625
vt 0.3125 0.875
vt 0.0625 0.875
vt 0 0.9375
vt 0.375 0.9375
vt 0.0625 0.875
vt 0.3125 0.875
vt 0.375 0.9375
vt 0 0.9375
vt 0.3125 0.875
vt 0.0625 0.875
vt 0 0.9375
vt 0.375 0.9375
vt 0.0625 0.875
vt 0.3125 0.875
vt 0.375 0.9375
vt 0 0.9375
vt 0.0625 0.5625
vt 0.3125 0.5625
vt 0.3125 0.9375
vt 0.0625 0.9375
vt 0.0625 0.5625
vt 0.3125 0.5625
vt 0.3125 0.9375
vt 0.0625 0.9375
vt 0.0625 0.5625
vt 0.3125 0.5625
vt 0.3125 0.9375
vt 0.0625 0.9375
vt 0.0625 0.5625
vt 0.3125 0.5625
vt 0.3125 0.9375
vt 0.0625 0.9375
vn 1 0 0
vn -1 0 0
vn 0 1 0
vn 0 -1 0
vn 0 0 1
vn 0 0 -1
vn 0.999133073092352 0.04163054471218133 0
vn -0.999133073092352 0.04163054471218133 0
vn 0 0.04163054471218133 0.999133073092352
vn 0 0.04163054471218133 -0.999133073092352
vn 0 1 0
vn 0 1 0
vn 0 1 0
vn 0 1 0
vn -1 0 0
vn 0 0 1
vn 1 0 0
vn 0 0 -1
usemtl 6bcal_light_artillery
f 12/17/5 10/18/5 9/19/5 11/20/5
f 15/21/6 13/22/6 14/23/6 16/24/6
f 9/25/7 10/26/7 14/27/7 13/28/7
f 12/29/8 11/30/8 15/31/8 16/32/8
f 11/33/9 9/34/9 13/35/9 15/36/9
f 16/37/10 14/38/10 10/39/10 12/40/10
f 10/41/11 18/42/11 17/43/11 9/44/11
f 13/45/12 19/46/12 20/47/12 14/48/12
f 9/49/13 17/50/13 19/51/13 13/52/13
f 14/53/14 20/54/14 18/55/14 10/56/14
f 21/57/15 23/58/15 17/59/15 18/60/15
f 22/61/16 21/62/16 18/63/16 20/64/16
f 24/65/17 22/66/17 20/67/17 19/68/17
f 23/69/18 24/70/18 19/71/18 17/72/18
f 25/73/19 27/74/19 23/75/19 21/76/19
f 26/77/20 25/78/20 21/79/20 22/80/20
f 28/81/21 26/82/21 22/83/21 24/84/21
f 27/85/22 28/86/22 24/87/22 23/88/22
o casing_simple
v 0.171875 0.5625 0.171875
v 0.1875 0.1875 0.1875
v 0.1875 0.1875 -0.1875
v 0.1875 0 0.1875
v 0.1875 0 -0.1875
v -0.1875 0.1875 0.1875
v -0.1875 0.1875 -0.1875
v -0.1875 0 0.1875
v -0.1875 0 -0.1875
v 0.171875 0.5625 -0.171875
v 0.1875 0.1875 0.1875
v 0.1875 0.1875 -0.1875
v -0.171875 0.5625 0.171875
v -0.171875 0.5625 -0.171875
v -0.1875 0.1875 0.1875
v -0.1875 0.1875 -0.1875
vt 0 0.375
vt 0 0.5625
vt 0.375 0.5625
vt 0.375 0.375
vt 0 0.375
vt 0 0.5625
vt 0.375 0.5625
vt 0.375 0.375
vt 0.375 0.375
vt 0.375 0
vt 0 0
vt 0 0.375
vt 0.375 0
vt 0.375 0.375
vt 0 0.375
vt 0 0
vt 0 0.375
vt 0 0.5625
vt 0.375 0.5625
vt 0.375 0.375
vt 0 0.375
vt 0 0.5625
vt 0.375 0.5625
vt 0.375 0.375
vt 0.375 0.5625
vt 0.375 0.9375
vt 0 0.9375
vt 0 0.5625
vt 0 0.5625
vt 0 0.9375
vt 0.375 0.9375
vt 0.375 0.5625
vt 0 0.375
vt 0 0
vt 0.375 0
vt 0.375 0.375
vt 0.375 0.5625
vt 0.375 0.9375
vt 0 0.9375
vt 0 0.5625
vt 0.375 0.5625
vt 0.375 0.9375
vt 0 0.9375
vt 0 0.5625
vt 0 0.5625
vt 0 0.9375
vt 0.375 0.9375
vt 0.375 0.5625
vn 1 0 0
vn -1 0 0
vn 0 1 0
vn 0 -1 0
vn 0 0 1
vn 0 0 -1
vn 0.999133073092352 0.04163054471218133 0
vn -0.999133073092352 0.04163054471218133 0
vn 0 1 0
vn 0 -1 0
vn 0 0.04163054471218133 0.999133073092352
vn 0 0.04163054471218133 -0.999133073092352
usemtl 6bcal_light_artillery
f 33/89/23 31/90/23 30/91/23 32/92/23
f 36/93/24 34/94/24 35/95/24 37/96/24
f 30/97/25 31/98/25 35/99/25 34/100/25
f 33/101/26 32/102/26 36/103/26 37/104/26
f 32/105/27 30/106/27 34/107/27 36/108/27
f 37/109/28 35/110/28 31/111/28 33/112/28
f 40/113/29 38/114/29 29/115/29 39/116/29
f 43/117/30 41/118/30 42/119/30 44/120/30
f 29/121/31 38/122/31 42/123/31 41/124/31
f 40/125/32 39/126/32 43/127/32 44/128/32
f 39/129/33 29/130/33 41/131/33 43/132/33
f 44/133/34 42/134/34 38/135/34 40/136/34
o casing_filling
v 0.125 0.1875 0.125
v 0.125 0.1875 -0.125
v -0.125 0.1875 0.125
v -0.125 0.1875 -0.125
vt 0.3125 0.6875
vt 0.3125 0.9375
vt 0.0625 0.9375
vt 0.0625 0.6875
vn 0 1 0
usemtl gunpowder
f 45/137/35 46/138/35 48/139/35 47/140/35
o core_shaped
v 0.09375 0.75 0.09375
v 0.09375 0.75 -0.09375
v 0.15625 0.5628124999999997 0.15625
v 0.15625 0.5628124999999997 -0.15625
v -0.09375 0.75 0.09375
v -0.09375 0.75 -0.09375
v -0.15625 0.5628124999999997 0.15625
v -0.15625 0.5628124999999997 -0.15625
v 0.15625 0.06312499999999988 0.15625
v 0.15625 0.06312499999999988 -0.15625
v -0.15625 0.06312499999999988 0.15625
v -0.15625 0.06312499999999988 -0.15625
v 0.030937499999999993 0.75 -0.030937499999999993
v -0.030937499999999993 0.75 -0.030937499999999993
v 0.030937499999999993 0.75 0.030937499999999993
v -0.030937499999999993 0.75 0.030937499999999993
v 0.030937499999999993 0.6875 -0.030937499999999993
v -0.030937499999999993 0.6875 -0.030937499999999993
v 0.030937499999999993 0.6875 0.030937499999999993
v -0.030937499999999993 0.6875 0.030937499999999993
vt 0.6875 0.8125
vt 0.625 1
vt 0.4375 1
vt 0.375 0.8125
vt 0.6875 0.8125
vt 0.625 1
vt 0.4375 1
vt 0.375 0.8125
vt 0.936875 0.875625
vt 0.936875 0.9375
vt 0.875 0.9375
vt 0.875 0.875625
vt 0.375 0.8125
vt 0.4375 1
vt 0.625 1
vt 0.6875 0.8125
vt 0.375 0.8125
vt 0.4375 1
vt 0.625 1
vt 0.6875 0.8125
vt 0.375 0.3125000000000001
vt 0.375 0.8125000000000001
vt 0.6875 0.8125000000000001
vt 0.6875 0.3125000000000001
vt 0.375 0.3125000000000001
vt 0.375 0.8125000000000001
vt 0.6875 0.8125000000000001
vt 0.6875 0.3125000000000001
vt 0.6875 0
vt 0.6875 0.3125
vt 0.375 0.3125
vt 0.375 0
vt 0.3750000000000001 0.3124999999999999
vt 0.3750000000000001 0.8124999999999999
vt 0.6875000000000001 0.8124999999999999
vt 0.6875000000000001 0.3124999999999999
vt 0.3749999999999999 0.3125000000000001
vt 0.3749999999999999 0.8125000000000001
vt 0.6874999999999999 0.8125000000000001
vt 0.6874999999999999 0.3125000000000001
vt 0.9371875000000001 0.9371875000000001
vt 0.9371875000000001 0.8753124999999999
vt 1 0.8125
vt 1 1
vt 0.8753125 0.9371875000000001
vt 0.9371875 0.9371875000000001
vt 1 1
vt 0.8125 1
vt 0.8753125 0.8753124999999999
vt 0.8753125 0.9371875000000001
vt 0.8125 1
vt 0.8125 0.8125
vt 0.9371875 0.875
vt 0.8753125 0.875
vt 0.8125 0.8121875000000001
vt 1 0.8121875000000001
vt 0.561875 1
vt 0.5 1
vt 0.5 0.9375
vt 0.561875 0.9375
vt 0.561875 1
vt 0.5 1
vt 0.5 0.9375
vt 0.561875 0.9375
vt 0.561875 1
vt 0.5 1
vt 0.5 0.9375
vt 0.561875 0.9375
vt 0.561875 1
vt 0.5 1
vt 0.5 0.9375
vt 0.561875 0.9375
vn 0.9485248277182956 0.3167027805403319 0
vn -0.9485248277182956 0.3167027805403319 0
vn 0 1 0
vn 0 0.3167027805403319 0.9485248277182956
vn 0 0.3167027805403319 -0.9485248277182956
vn 1 0 0
vn -1 0 0
vn 0 -1 0
vn 0 0 1
vn 0 0 -1
vn 0 1 0
vn 0 1 0
vn 0 1 0
vn 0 1 0
vn -1 0 0
vn 0 0 1
vn 1 0 0
vn 0 0 -1
usemtl 6bcal_light_artillery
f 52/141/36 50/142/36 49/143/36 51/144/36
f 55/145/37 53/146/37 54/147/37 56/148/37
f 67/149/38 65/150/38 66/151/38 68/152/38
f 51/153/39 49/154/39 53/155/39 55/156/39
f 56/157/40 54/158/40 50/159/40 52/160/40
f 58/161/41 52/162/41 51/163/41 57/164/41
f 59/165/42 55/166/42 56/167/42 60/168/42
f 58/169/43 57/170/43 59/171/43 60/172/43
f 57/173/44 51/174/44 55/175/44 59/176/44
f 60/177/45 56/178/45 52/179/45 58/180/45
f 61/181/46 63/182/46 49/183/46 50/184/46
f 62/185/47 61/186/47 50/187/47 54/188/47
f 64/189/48 62/190/48 54/191/48 53/192/48
f 63/193/49 64/194/49 53/195/49 49/196/49
f 65/197/50 67/198/50 63/199/50 61/200/50
f 66/201/51 65/202/51 61/203/51 62/204/51
f 68/205/52 66/206/52 62/207/52 64/208/52
f 67/209/53 68/210/53 64/211/53 63/212/53
o core_piercing
v 0.015625 0.8125 0.015625
v 0.015625 0.8125 -0.015625
v 0.15625 0.5628124999999997 0.15625
v 0.15625 0.5628124999999997 -0.15625
v -0.015625 0.8125 0.015625
v -0.015625 0.8125 -0.015625
v -0.15625 0.5628124999999997 0.15625
v -0.15625 0.5628124999999997 -0.15625
v 0.15625 0.06312499999999988 0.15625
v 0.15625 0.06312499999999988 -0.15625
v -0.15625 0.06312499999999988 0.15625
v -0.15625 0.06312499999999988 -0.15625
vt 0.375 0.75
vt 0.5 1
vt 0.5625 1
vt 0.6875 0.75
vt 0.375 0.75
vt 0.5 1
vt 0.5625 1
vt 0.6875 0.75
vt 0.9375 0.875
vt 0.9375 0.9375
vt 0.875 0.9375
vt 0.875 0.875
vt 0.6875 0.75
vt 0.5625 1
vt 0.5 1
vt 0.375 0.75
vt 0.6875 0.75
vt 0.5625 1
vt 0.5 1
vt 0.375 0.75
vt 0.375 0.3125000000000001
vt 0.375 0.8125000000000001
vt 0.6875 0.8125000000000001
vt 0.6875 0.3125000000000001
vt 0.375 0.3125000000000001
vt 0.375 0.8125000000000001
vt 0.6875 0.8125000000000001
vt 0.6875 0.3125000000000001
vt 0.6875 0
vt 0.6875 0.3125
vt 0.375 0.3125
vt 0.375 0
vt 0.3750000000000001 0.3124999999999999
vt 0.3750000000000001 0.8124999999999999
vt 0.6875000000000001 0.8124999999999999
vt 0.6875000000000001 0.3124999999999999
vt 0.3749999999999999 0.3125000000000001
vt 0.3749999999999999 0.8125000000000001
vt 0.6874999999999999 0.8125000000000001
vt 0.6874999999999999 0.3125000000000001
vn 0.871313303109962 0.4907271419267615 0
vn -0.871313303109962 0.4907271419267615 0
vn 0 1 0
vn 0 0.4907271419267615 0.871313303109962
vn 0 0.4907271419267615 -0.871313303109962
vn 1 0 0
vn -1 0 0
vn 0 -1 0
vn 0 0 1
vn 0 0 -1
usemtl 6bcal_light_artillery
f 72/213/54 70/214/54 69/215/54 71/216/54
f 75/217/55 73/218/55 74/219/55 76/220/55
f 69/221/56 70/222/56 74/223/56 73/224/56
f 71/225/57 69/226/57 73/227/57 75/228/57
f 76/229/58 74/230/58 70/231/58 72/232/58
f 78/233/59 72/234/59 71/235/59 77/236/59
f 79/237/60 75/238/60 76/239/60 80/240/60
f 78/241/61 77/242/61 79/243/61 80/244/61
f 77/245/62 71/246/62 75/247/62 79/248/62
f 80/249/63 76/250/63 72/251/63 78/252/63
o core_canister
v 0.09375 0.75 0.09375
v 0.09375 0.75 -0.09375
v 0.15625 0.5628124999999997 0.15625
v 0.15625 0.5628124999999997 -0.15625
v -0.09375 0.75 0.09375
v -0.09375 0.75 -0.09375
v -0.15625 0.5628124999999997 0.15625
v -0.15625 0.5628124999999997 -0.15625
v 0.15625 0.06312499999999988 0.15625
v 0.15625 0.06312499999999988 -0.15625
v -0.15625 0.06312499999999988 0.15625
v -0.15625 0.06312499999999988 -0.15625
vt 0.6875 0.8125
vt 0.625 1
vt 0.4375 1
vt 0.375 0.8125
vt 0.6875 0.8125
vt 0.625 1
vt 0.4375 1
vt 0.375 0.8125
vt 1 0.8125
vt 1 1
vt 0.8125 1
vt 0.8125 0.8125
vt 0.375 0.8125
vt 0.4375 1
vt 0.625 1
vt 0.6875 0.8125
vt 0.375 0.8125
vt 0.4375 1
vt 0.625 1
vt 0.6875 0.8125
vt 0.375 0.3125000000000001
vt 0.375 0.8125000000000001
vt 0.6875 0.8125000000000001
vt 0.6875 0.3125000000000001
vt 0.375 0.3125000000000001
vt 0.375 0.8125000000000001
vt 0.6875 0.8125000000000001
vt 0.6875 0.3125000000000001
vt 0.6875 0
vt 0.6875 0.3125
vt 0.375 0.3125
vt 0.375 0
vt 0.3750000000000001 0.3124999999999999
vt 0.3750000000000001 0.8124999999999999
vt 0.6875000000000001 0.8124999999999999
vt 0.6875000000000001 0.3124999999999999
vt 0.3749999999999999 0.3125000000000001
vt 0.3749999999999999 0.8125000000000001
vt 0.6874999999999999 0.8125000000000001
vt 0.6874999999999999 0.3125000000000001
vn 0.9485248277182956 0.3167027805403319 0
vn -0.9485248277182956 0.3167027805403319 0
vn 0 1 0
vn 0 0.3167027805403319 0.9485248277182956
vn 0 0.3167027805403319 -0.9485248277182956
vn 1 0 0
vn -1 0 0
vn 0 -1 0
vn 0 0 1
vn 0 0 -1
usemtl 6bcal_light_artillery
f 84/253/64 82/254/64 81/255/64 83/256/64
f 87/257/65 85/258/65 86/259/65 88/260/65
f 81/261/66 82/262/66 86/263/66 85/264/66
f 83/265/67 81/266/67 85/267/67 87/268/67
f 88/269/68 86/270/68 82/271/68 84/272/68
f 90/273/69 84/274/69 83/275/69 89/276/69
f 91/277/70 87/278/70 88/279/70 92/280/70
f 90/281/71 89/282/71 91/283/71 92/284/71
f 89/285/72 83/286/72 87/287/72 91/288/72
f 92/289/73 88/290/73 84/291/73 90/292/73