# Made by Pabilo8 with Blockbench
# Exported with IIToolkit Plugin
mtllib grenade_5bcal.mtl


o casing
v -0.11771755288949882 0.12500000000000067 -0.3614883507690226
v -0.11771755288949884 6.696032617270475e-16 -0.3614883507690228
v 0.19973461870958692 0.12499999999999953 0.2483315970410049
v 0.19973461870958692 -4.753142324176451e-16 0.2483315970410047
v -0.2285939070367765 0.12500000000000058 -0.3037697741146434
v -0.22859390703677654 5.793976409762536e-16 -0.3037697741146436
v 0.08885826456230923 0.12499999999999943 0.3060501736953841
v 0.08885826456230922 -5.655198531684391e-16 0.3060501736953839
vt 0.25 0.3125
vt 0.25 1
vt 0.375 1
vt 0.375 0.3125
vt 0.375 0.3125
vt 0.375 1
vt 0.25 1
vt 0.25 0.3125
vt 0 0.3749999999999999
vt 0 0.2499999999999999
vt 0.125 0.2499999999999999
vt 0.125 0.3749999999999999
vt 0.125 0.2500000000000001
vt 0.125 0.3750000000000001
vt 0.25 0.3750000000000001
vt 0.25 0.2500000000000001
vt 0.25 0.3125
vt 0.25 1
vt 0.375 1
vt 0.375 0.3125
vt 0.25 0.3125
vt 0.25 1
vt 0.375 1
vt 0.375 0.3125
vn 0.8870108331782218 7.217523221949929e-16 -0.46174861323503386
vn -0.8870108331782218 -7.217523221949929e-16 0.46174861323503386
vn -0.46174861323503397 1.6269121543384763e-15 -0.8870108331782219
vn 0.46174861323503397 -1.6269121543384763e-15 0.8870108331782219
vn 1.2885901044724269e-16 1 1.8103883374310844e-15
vn -1.2885901044724269e-16 -1 -1.8103883374310844e-15
usemtl grenade
f 4/1/1 2/2/1 1/3/1 3/4/1
f 7/5/2 5/6/2 6/7/2 8/8/2
f 1/9/3 2/10/3 6/11/3 5/12/3
f 4/13/4 3/14/4 7/15/4 8/16/4
f 3/17/5 1/18/5 5/19/5 7/20/5
f 8/21/6 6/22/6 2/23/6 4/24/6
o casing_simple
v 0.0625 0.0625 0.0625
v 0.0625 0.0625 -0.0625
v 0.0625 -0.625 0.0625
v 0.0625 -0.625 -0.0625
v -0.0625 0.0625 0.0625
v -0.0625 0.0625 -0.0625
v -0.0625 -0.625 0.0625
v -0.0625 -0.625 -0.0625
vt 0.25 0.3125
vt 0.25 1
vt 0.375 1
vt 0.375 0.3125
vt 0.375 0.3125
vt 0.375 1
vt 0.25 1
vt 0.25 0.3125
vt 0.125 0.3749999999999999
vt 0.125 0.2499999999999999
vt 0 0.2499999999999999
vt 0 0.3749999999999999
vt 0.25 0.2500000000000001
vt 0.25 0.3750000000000001
vt 0.125 0.3750000000000001
vt 0.125 0.2500000000000001
vt 0.25 0.3125
vt 0.25 1
vt 0.375 1
vt 0.375 0.3125
vt 0.25 0.3125
vt 0.25 1
vt 0.375 1
vt 0.375 0.3125
vn 1 0 0
vn -1 0 0
vn 0 1 0
vn 0 -1 0
vn 0 0 1
vn 0 0 -1
usemtl grenade
f 12/25/7 10/26/7 9/27/7 11/28/7
f 15/29/8 13/30/8 14/31/8 16/32/8
f 9/33/9 10/34/9 14/35/9 13/36/9
f 12/37/10 11/38/10 15/39/10 16/40/10
f 11/41/11 9/42/11 13/43/11 15/44/11
f 16/45/12 14/46/12 10/47/12 12/48/12
o paint
v 0.06875 -0.25 0.06875
v 0.06875 -0.25 -0.06875
v 0.06875 -0.4375 0.06875
v 0.06875 -0.4375 -0.06875
v -0.06875 -0.25 0.06875
v -0.06875 -0.25 -0.06875
v -0.06875 -0.4375 0.06875
v -0.06875 -0.4375 -0.06875
vt 0.125 0.0625
vt 0.125 0.25
vt 0.25 0.25
vt 0.25 0.0625
vt 0 0.0625
vt 0 0.25
vt 0.125 0.25
vt 0.125 0.0625
vt 0.125 0.0625
vt 0.125 0.25
vt 0.25 0.25
vt 0.25 0.0625
vt 0 0.0625
vt 0 0.25
vt 0.125 0.25
vt 0.125 0.0625
vn 1 0 0
vn -1 0 0
vn 0 0 1
vn 0 0 -1
usemtl grenade
f 20/49/13 18/50/13 17/51/13 19/52/13
f 23/53/14 21/54/14 22/55/14 24/56/14
f 19/57/15 17/58/15 21/59/15 23/60/15
f 24/61/16 22/62/16 18/63/16 20/64/16
o core_canister_simple
v 0.125 0.4375 0.125
v 0.125 0.4375 -0.125
v 0.125 0.0625 0.125
v 0.125 0.0625 -0.125
v -0.125 0.4375 0.125
v -0.125 0.4375 -0.125
v -0.125 0.0625 0.125
v -0.125 0.0625 -0.125
v 0.0640625 -0.5687500000000001 0.0640625
v 0.0640625 -0.5687500000000001 -0.0640625
v 0.0640625 -0.6312500000000001 0.0640625
v 0.0640625 -0.6312500000000001 -0.0640625
v -0.0640625 -0.5687500000000001 0.0640625
v -0.0640625 -0.5687500000000001 -0.0640625
v -0.0640625 -0.6312500000000001 0.0640625
v -0.0640625 -0.6312500000000001 -0.0640625
vt 0 0.375
vt 0 0.75
vt 0.25 0.75
vt 0.25 0.375
vt 0 0.375
vt 0 0.75
vt 0.25 0.75
vt 0.25 0.375
vt 0.25 1
vt 0.25 0.75
vt 0 0.75
vt 0 1
vt 0.25 0.75
vt 0.25 1
vt 0 1
vt 0 0.75
vt 0.25 0.375
vt 0.25 0.75
vt 0 0.75
vt 0 0.375
vt 0.25 0.375
vt 0.25 0.75
vt 0 0.75
vt 0 0.375
vt 0.25 0.25
vt 0.25 0.3125
vt 0.375 0.3125
vt 0.375 0.25
vt 0.25 0.25
vt 0.25 0.3125
vt 0.375 0.3125
vt 0.375 0.25
vt 0.375 0.1875
vt 0.375 0.3125
vt 0.25 0.3125
vt 0.25 0.1875
vt 0.25 0.25
vt 0.25 0.1875
vt 0.375 0.1875
vt 0.375 0.25
vt 0.25 0.1875
vt 0.25 0.25
vt 0.375 0.25
vt 0.375 0.1875
vn 1 0 0
vn -1 0 0
vn 0 1 0
vn 0 -1 0
vn 0 0 1
vn 0 0 -1
vn 1 0 0
vn -1 0 0
vn 0 -1 0
vn 0 0 1
vn 0 0 -1
usemtl grenade
f 28/65/17 26/66/17 25/67/17 27/68/17
f 31/69/18 29/70/18 30/71/18 32/72/18
f 25/73/19 26/74/19 30/75/19 29/76/19
f 28/77/20 27/78/20 31/79/20 32/80/20
f 27/81/21 25/82/21 29/83/21 31/84/21
f 32/85/22 30/86/22 26/87/22 28/88/22
f 36/89/23 34/90/23 33/91/23 35/92/23
f 39/93/24 37/94/24 38/95/24 40/96/24
f 36/97/25 35/98/25 39/99/25 40/100/25
f 35/101/26 33/102/26 37/103/26 39/104/26
f 40/105/27 38/106/27 34/107/27 36/108/27
o core_canister
v 0.125 0.375 0.125
v 0.125 0.375 -0.125
v 0.125 0 0.125
v 0.125 0 -0.125
v -0.125 0.375 0.125
v -0.125 0.375 -0.125
v -0.125 0 0.125
v -0.125 0 -0.125
v 0.0640625 0.4312499999999999 0.0640625
v 0.0640625 0.4312499999999999 -0.0640625
v 0.0640625 0.3687499999999999 0.0640625
v 0.0640625 0.3687499999999999 -0.0640625
v -0.0640625 0.4312499999999999 0.0640625
v -0.0640625 0.4312499999999999 -0.0640625
v -0.0640625 0.3687499999999999 0.0640625
v -0.0640625 0.3687499999999999 -0.0640625
vt 0 0.375
vt 0 0.75
vt 0.25 0.75
vt 0.25 0.375
vt 0 0.375
vt 0 0.75
vt 0.25 0.75
vt 0.25 0.375
vt 0.25 1
vt 0.25 0.75
vt 0 0.75
vt 0 1
vt 0.25 0.75
vt 0.25 1
vt 0 1
vt 0 0.75
vt 0.25 0.375
vt 0.25 0.75
vt 0 0.75
vt 0 0.375
vt 0.25 0.375
vt 0.25 0.75
vt 0 0.75
vt 0 0.375
vt 0.25 0.25
vt 0.25 0.3125
vt 0.375 0.3125
vt 0.375 0.25
vt 0.25 0.25
vt 0.25 0.3125
vt 0.375 0.3125
vt 0.375 0.25
vt 0.375 0.3125
vt 0.375 0.1875
vt 0.25 0.1875
vt 0.25 0.3125
vt 0.25 0.25
vt 0.25 0.1875
vt 0.375 0.1875
vt 0.375 0.25
vt 0.25 0.1875
vt 0.25 0.25
vt 0.375 0.25
vt 0.375 0.1875
vn 1 0 0
vn -1 0 0
vn 0 1 0
vn 0 -1 0
vn 0 0 1
vn 0 0 -1
vn 1 0 0
vn -1 0 0
vn 0 1 0
vn 0 0 1
vn 0 0 -1
usemtl grenade
f 44/109/28 42/110/28 41/111/28 43/112/28
f 47/113/29 45/114/29 46/115/29 48/116/29
f 41/117/30 42/118/30 46/119/30 45/120/30
f 44/121/31 43/122/31 47/123/31 48/124/31
f 43/125/32 41/126/32 45/127/32 47/128/32
f 48/129/33 46/130/33 42/131/33 44/132/33
f 52/133/34 50/134/34 49/135/34 51/136/34
f 55/137/35 53/138/35 54/139/35 56/140/35
f 49/141/36 50/142/36 54/143/36 53/144/36
f 51/145/37 49/146/37 53/147/37 55/148/37
f 56/149/38 54/150/38 50/151/38 52/152/38