# Made by Pabilo8 with Blockbench
# Exported with IIToolkit Plugin on 03/10/2026
mtllib grenade_5bcal.mtl

o casing
v 0.0625 0.0625 0.0625
v 0.0625 0.0625 -0.0625
v 0.0625 -0.625 0.0625
v 0.0625 -0.625 -0.0625
v -0.0625 0.0625 0.0625
v -0.0625 0.0625 -0.0625
v -0.0625 -0.625 0.0625
v -0.0625 -0.625 -0.0625
vt 0.25 0.3125
vt 0.25 1
vt 0.375 1
vt 0.375 0.3125
vt 0.375 0.3125
vt 0.375 1
vt 0.25 1
vt 0.25 0.3125
vt 0.125 0.375
vt 0.125 0.25
vt 0 0.25
vt 0 0.375
vt 0.25 0.25
vt 0.25 0.375
vt 0.125 0.375
vt 0.125 0.25
vt 0.25 0.3125
vt 0.25 1
vt 0.375 1
vt 0.375 0.3125
vt 0.25 0.3125
vt 0.25 1
vt 0.375 1
vt 0.375 0.3125
vn 1 0 0
vn -1 0 0
vn 0 1 0
vn 0 -1 0
vn 0 0 1
vn 0 0 -1
usemtl grenade
f 4/1/1 2/2/1 1/3/1
f 4/1/1 1/3/1 3/4/1
f 7/5/2 5/6/2 6/7/2
f 7/5/2 6/7/2 8/8/2
f 1/9/3 2/10/3 6/11/3
f 1/9/3 6/11/3 5/12/3
f 4/13/4 3/14/4 7/15/4
f 4/13/4 7/15/4 8/16/4
f 3/17/5 1/18/5 5/19/5
f 3/17/5 5/19/5 7/20/5
f 8/21/6 6/22/6 2/23/6
f 8/21/6 2/23/6 4/24/6
o paint
v 0.0688 -0.0625 0.0688
v 0.0688 -0.0625 -0.0687
v 0.0688 -0.25 0.0688
v 0.0688 -0.25 -0.0687
v -0.0687 -0.0625 0.0688
v -0.0687 -0.0625 -0.0687
v -0.0687 -0.25 0.0688
v -0.0687 -0.25 -0.0687
vt 0.125 0.0625
vt 0.125 0.25
vt 0.25 0.25
vt 0.25 0.0625
vt 0 0.0625
vt 0 0.25
vt 0.125 0.25
vt 0.125 0.0625
vt 0.125 0.0625
vt 0.125 0.25
vt 0.25 0.25
vt 0.25 0.0625
vt 0 0.0625
vt 0 0.25
vt 0.125 0.25
vt 0.125 0.0625
vn 1 0 0
vn -1 0 0
vn 0 0 1
vn 0 0 -1
usemtl grenade
f 12/25/7 10/26/7 9/27/7
f 12/25/7 9/27/7 11/28/7
f 15/29/8 13/30/8 14/31/8
f 15/29/8 14/31/8 16/32/8
f 11/33/9 9/34/9 13/35/9
f 11/33/9 13/35/9 15/36/9
f 16/37/10 14/38/10 10/39/10
f 16/37/10 10/39/10 12/40/10
o core_canister_simple
v 0.125 0.4375 0.125
v 0.125 0.4375 -0.125
v 0.125 0.0625 0.125
v 0.125 0.0625 -0.125
v -0.125 0.4375 0.125
v -0.125 0.4375 -0.125
v -0.125 0.0625 0.125
v -0.125 0.0625 -0.125
v 0.0641 -0.5688 0.0641
v 0.0641 -0.5688 -0.0641
v 0.0641 -0.6313 0.0641
v 0.0641 -0.6313 -0.0641
v -0.0641 -0.5688 0.0641
v -0.0641 -0.5688 -0.0641
v -0.0641 -0.6313 0.0641
v -0.0641 -0.6313 -0.0641
vt 0 0.375
vt 0 0.75
vt 0.25 0.75
vt 0.25 0.375
vt 0 0.375
vt 0 0.75
vt 0.25 0.75
vt 0.25 0.375
vt 0.25 1
vt 0.25 0.75
vt 0 0.75
vt 0 1
vt 0.25 0.75
vt 0.25 1
vt 0 1
vt 0 0.75
vt 0.25 0.375
vt 0.25 0.75
vt 0 0.75
vt 0 0.375
vt 0.25 0.375
vt 0.25 0.75
vt 0 0.75
vt 0 0.375
vt 0.25 0.25
vt 0.25 0.3125
vt 0.375 0.3125
vt 0.375 0.25
vt 0.25 0.25
vt 0.25 0.3125
vt 0.375 0.3125
vt 0.375 0.25
vt 0.375 0.1875
vt 0.375 0.3125
vt 0.25 0.3125
vt 0.25 0.1875
vt 0.25 0.25
vt 0.25 0.1875
vt 0.375 0.1875
vt 0.375 0.25
vt 0.25 0.1875
vt 0.25 0.25
vt 0.375 0.25
vt 0.375 0.1875
vn 1 0 0
vn -1 0 0
vn 0 1 0
vn 0 -1 0
vn 0 0 1
vn 0 0 -1
vn 1 0 0
vn -1 0 0
vn 0 -1 0
vn 0 0 1
vn 0 0 -1
usemtl grenade
f 20/41/11 18/42/11 17/43/11
f 20/41/11 17/43/11 19/44/11
f 23/45/12 21/46/12 22/47/12
f 23/45/12 22/47/12 24/48/12
f 17/49/13 18/50/13 22/51/13
f 17/49/13 22/51/13 21/52/13
f 20/53/14 19/54/14 23/55/14
f 20/53/14 23/55/14 24/56/14
f 19/57/15 17/58/15 21/59/15
f 19/57/15 21/59/15 23/60/15
f 24/61/16 22/62/16 18/63/16
f 24/61/16 18/63/16 20/64/16
f 28/65/17 26/66/17 25/67/17
f 28/65/17 25/67/17 27/68/17
f 31/69/18 29/70/18 30/71/18
f 31/69/18 30/71/18 32/72/18
f 28/73/19 27/74/19 31/75/19
f 28/73/19 31/75/19 32/76/19
f 27/77/20 25/78/20 29/79/20
f 27/77/20 29/79/20 31/80/20
f 32/81/21 30/82/21 26/83/21
f 32/81/21 26/83/21 28/84/21
o core_canister
v 0.125 0.4375 0.125
v 0.125 0.4375 -0.125
v 0.125 0.0625 0.125
v 0.125 0.0625 -0.125
v -0.125 0.4375 0.125
v -0.125 0.4375 -0.125
v -0.125 0.0625 0.125
v -0.125 0.0625 -0.125
vt 0 0.375
vt 0 0.75
vt 0.25 0.75
vt 0.25 0.375
vt 0 0.375
vt 0 0.75
vt 0.25 0.75
vt 0.25 0.375
vt 0.25 1
vt 0.25 0.75
vt 0 0.75
vt 0 1
vt 0.25 0.75
vt 0.25 1
vt 0 1
vt 0 0.75
vt 0.25 0.375
vt 0.25 0.75
vt 0 0.75
vt 0 0.375
vt 0.25 0.375
vt 0.25 0.75
vt 0 0.75
vt 0 0.375
vn 1 0 0
vn -1 0 0
vn 0 1 0
vn 0 -1 0
vn 0 0 1
vn 0 0 -1
usemtl grenade
f 36/85/22 34/86/22 33/87/22
f 36/85/22 33/87/22 35/88/22
f 39/89/23 37/90/23 38/91/23
f 39/89/23 38/91/23 40/92/23
f 33/93/24 34/94/24 38/95/24
f 33/93/24 38/95/24 37/96/24
f 36/97/25 35/98/25 39/99/25
f 36/97/25 39/99/25 40/100/25
f 35/101/26 33/102/26 37/103/26
f 35/101/26 37/103/26 39/104/26
f 40/105/27 38/106/27 34/107/27
f 40/105/27 34/107/27 36/108/27