# Made by Pabilo8 with Blockbench
# Exported with IIToolkit Plugin
mtllib gun_4bcal.mtl


o casing
v 0.125 0.0625 0.12499999999999999
v 0.125 0.0625 -0.12499999999999997
v 0.12499999999999997 0 0.125
v 0.12499999999999997 0 -0.12499999999999997
v -0.125 0.0625 0.12499999999999999
v -0.125 0.0625 -0.12499999999999997
v -0.125 0 0.125
v -0.125 0 -0.12499999999999997
v 0.125 0.5815217391304348 -0.12499999999999997
v -0.125 0.5815217391304348 -0.12499999999999997
v 0.12500000000000006 0.5815217391304348 0.12499999999999999
v -0.12499999999999999 0.5815217391304348 0.125
v 0.08552631578947362 0.7812499999999999 -0.06578947368421054
v 0.08552631578947367 0.7812499999999999 -0.09210526315789466
v -0.0855263157894737 0.7812499999999999 -0.06578947368421054
v -0.0855263157894737 0.7812499999999999 -0.09210526315789466
v -0.0855263157894737 0.7812499999999999 0.06578947368421055
v -0.08552631578947367 0.7812499999999999 0.09210526315789469
v 0.08552631578947364 0.7812499999999999 0.06578947368421054
v 0.08552631578947367 0.7812499999999999 0.09210526315789469
v -0.06578947368421052 0.78125 0.06578947368421052
v -0.06578947368421052 0.78125 -0.06578947368421051
v 0.06578947368421048 0.78125 -0.06578947368421054
v 0.06578947368421048 0.78125 0.06578947368421051
v 0.06578947368421054 0.125 -0.06578947368421051
v -0.06578947368421054 0.125 -0.06578947368421051
v 0.06578947368421054 0.125 0.06578947368421051
v -0.06578947368421054 0.125 0.06578947368421051
vt 0.25 0
vt 0.25 0.25
vt 0 0.25
vt 0 0
vt 0.1875 0.9375
vt 0.1875 1
vt 0.0625 1
vt 0.0625 0.9375
vt 0.25 0.8125
vt 0.1875 1
vt 0.0625 1
vt 0 0.8125
vt 0.0625 1
vt 0.0625 0.9375
vt 0.1875 0.9375
vt 0.1875 1
vt 0.25 0.8125
vt 0.1875 1
vt 0.0625 1
vt 0 0.8125
vt 0.1875 1
vt 0.0625 1
vt 0.0625 0.9375
vt 0.1875 0.9375
vt 0.1875 1
vt 0.0625 1
vt 0.0625 0.9375
vt 0.1875 0.9375
vt 0.1875 1
vt 0.0625 1
vt 0 0.8125
vt 0.25 0.8125
vt 0.1875 1
vt 0.0625 1
vt 0 0.8125
vt 0.25 0.8125
vt 0.25 0
vt 0.25 0.25
vt 0 0.25
vt 0 0
vt 0.1875 0.3125
vt 0.1875 1
vt 0.0625 1
vt 0.0625 0.3125
vt 0.1875 0.3125
vt 0.1875 1
vt 0.0625 1
vt 0.0625 0.3125
vt 0.1875 0.3125
vt 0.1875 1
vt 0.0625 1
vt 0.0625 0.3125
vt 0.1875 0.3125
vt 0.1875 1
vt 0.0625 1
vt 0.0625 0.3125
vt 0 0.8125
vt 0 0.25
vt 0.25 0.25
vt 0.25 0.8125
vt 0 0.8125
vt 0 0.25
vt 0.25 0.25
vt 0.25 0.8125
vt 0.25 0.8125
vt 0 0.8125
vt 0 0.25
vt 0.25 0.25
vt 0.25 0.8125
vt 0 0.8125
vt 0 0.25
vt 0.25 0.25
vn 0 -1 0
vn 0 1 0
vn 0 0.1625081673134395 -0.9867071984922514
vn 0 1 0
vn 0 0.16250816731343948 0.9867071984922514
vn -5.625129991434121e-15 1 0
vn 5.625129991434125e-15 1 0
vn -0.9810239516092526 0.19388658119882116 1.4781394426372583e-16
vn 0.9810239516092524 0.19388658119882154 0
vn 0 1 0
vn -1 -8.458842092382145e-17 0
vn 2.109423746787798e-16 4.229421046191075e-17 1
vn 1 -2.114710523095536e-17 0
vn -1.054711873393899e-16 2.1147105230955365e-17 -1
vn 0 0 -1
vn 0 0 1
vn -1 0 5.551115123125784e-17
vn 1 -1.431876424282912e-16 -2.2204460492503136e-16
usemtl 4bcal_light_gun
f 4/1/1 3/2/1 7/3/1 8/4/1
f 13/5/2 14/6/2 16/7/2 15/8/2
f 10/9/3 16/10/3 14/11/3 9/12/3
f 17/13/4 18/14/4 20/15/4 19/16/4
f 11/17/5 20/18/5 18/19/5 12/20/5
f 21/21/6 22/22/6 15/23/6 17/24/6
f 23/25/7 24/26/7 19/27/7 13/28/7
f 18/29/8 16/30/8 10/31/8 12/32/8
f 14/33/9 20/34/9 11/35/9 9/36/9
f 1/37/10 2/38/10 6/39/10 5/40/10
f 27/41/11 24/42/11 23/43/11 25/44/11
f 25/45/12 23/46/12 22/47/12 26/48/12
f 26/49/13 22/50/13 21/51/13 28/52/13
f 28/53/14 21/54/14 24/55/14 27/56/14
f 9/57/15 4/58/15 8/59/15 10/60/15
f 12/61/16 7/62/16 3/63/16 11/64/16
f 12/65/17 10/66/17 8/67/17 7/68/17
f 9/69/18 11/70/18 3/71/18 4/72/18
o casing_simple
v 0.12499999999999997 0 0.125
v 0.12499999999999997 0 -0.12499999999999997
v -0.125 0 0.125
v -0.125 0 -0.12499999999999997
v 0.125 0.5815217391304348 -0.12499999999999997
v -0.125 0.5815217391304348 -0.12499999999999997
v 0.12500000000000006 0.5815217391304348 0.12499999999999999
v -0.12499999999999999 0.5815217391304348 0.125
v 0.08573190789473682 0.78125 -0.09292763157894732
v -0.08573190789473685 0.78125 -0.09292763157894732
v -0.08573190789473684 0.78125 0.09292763157894735
v 0.08573190789473682 0.78125 0.09292763157894735
vt 0.25 0
vt 0.25 0.25
vt 0 0.25
vt 0 0
vt 0.25 0.8125
vt 0.1875 1
vt 0.0625 1
vt 0 0.8125
vt 0.25 0.8125
vt 0.1875 1
vt 0.0625 1
vt 0 0.8125
vt 0.1875 1
vt 0.0625 1
vt 0 0.8125
vt 0.25 0.8125
vt 0.1875 1
vt 0.0625 1
vt 0 0.8125
vt 0.25 0.8125
vt 0 0.8125
vt 0 0.25
vt 0.25 0.25
vt 0.25 0.8125
vt 0 0.8125
vt 0 0.25
vt 0.25 0.25
vt 0.25 0.8125
vt 0.25 0.8125
vt 0 0.8125
vt 0 0.25
vt 0.25 0.25
vt 0.25 0.8125
vt 0 0.8125
vt 0 0.25
vt 0.25 0.25
vt 0 0.25
vt 0.25 0.25
vt 0.25 0
vt 0 0
vn 0 -1 0
vn 0 0.1585488659262692 -0.9873511316211139
vn 0 0.15854886592626916 0.9873511316211139
vn -0.9812155838927804 0.19291443161658542 7.32672372878473e-17
vn 0.9812155838927803 0.19291443161658578 0
vn 0 0 -1
vn 0 0 1
vn -1 0 5.551115123125784e-17
vn 1 -1.431876424282912e-16 -2.2204460492503136e-16
vn 0 1 0
usemtl 4bcal_light_gun
f 30/73/19 29/74/19 31/75/19 32/76/19
f 34/77/20 38/78/20 37/79/20 33/80/20
f 35/81/21 40/82/21 39/83/21 36/84/21
f 39/85/22 38/86/22 34/87/22 36/88/22
f 37/89/23 40/90/23 35/91/23 33/92/23
f 33/93/24 30/94/24 32/95/24 34/96/24
f 36/97/25 31/98/25 29/99/25 35/100/25
f 36/101/26 34/102/26 32/103/26 31/104/26
f 33/105/27 35/106/27 29/107/27 30/108/27
f 39/109/28 40/110/28 37/111/28 38/112/28
o casing_filling
v 0.07500000000000001 0.0625 0.0625
v 0.07500000000000001 0.0625 -0.07500000000000001
v -0.0625 0.0625 0.0625
v -0.0625 0.0625 -0.07500000000000001
vt 0.125 0.875
vt 0.125 1
vt 0 1
vt 0 0.875
vn 0 1 0
usemtl gunpowder
f 41/113/29 42/114/29 44/115/29 43/116/29
o paint
v 0.12968749999999998 0.5 0.1296875
v 0.12968749999999998 0.5 -0.1296875
v 0.12968749999999998 0.31249999999999994 0.1296875
v 0.12968749999999998 0.31249999999999994 -0.1296875
v -0.12968749999999998 0.5 0.1296875
v -0.12968749999999998 0.5 -0.1296875
v -0.12968749999999998 0.31249999999999994 0.1296875
v -0.12968749999999998 0.31249999999999994 -0.1296875
vt 0.5 0.375
vt 0.5 0.5625
vt 0.25 0.5625
vt 0.25 0.375
vt 0.25 0.5625
vt 0.25 0.375
vt 0.5 0.375
vt 0.5 0.5625
vt 0.25 0.5625
vt 0.25 0.375
vt 0.5 0.375
vt 0.5 0.5625
vt 0.5 0.375
vt 0.5 0.5625
vt 0.25 0.5625
vt 0.25 0.375
vn -1 0 0
vn -1 0 0
vn 0 0 -1
vn 0 0 -1
usemtl 4bcal_light_gun
f 47/117/30 45/118/30 46/119/30 48/120/30
f 51/121/31 49/122/31 50/123/31 52/124/31
f 51/125/32 49/126/32 45/127/32 47/128/32
f 52/129/33 50/130/33 46/131/33 48/132/33
o core_shaped
v 0.06875000000000003 0.78125 0.06874999999999998
v 0.06875000000000003 0.78125 -0.06875000000000003
v 0.06875000000000003 0.4687499999999999 0.06874999999999998
v 0.06875000000000003 0.4687499999999999 -0.06875000000000003
v -0.06874999999999999 0.78125 0.06874999999999998
v -0.06874999999999999 0.78125 -0.06875000000000003
v -0.06875 0.4687499999999999 0.06874999999999998
v -0.06875 0.4687499999999999 -0.06875000000000003
v 0.04125000000000004 0.84375 0.041249999999999974
v 0.04125000000000004 0.84375 -0.04125000000000004
v -0.04124999999999997 0.84375 0.041249999999999974
v -0.04124999999999997 0.84375 -0.04125000000000004
v 0.020625000000000032 0.84375 -0.020625000000000032
v -0.020624999999999977 0.84375 -0.020625000000000032
v 0.020625000000000032 0.84375 0.020624999999999977
v -0.020624999999999977 0.84375 0.020624999999999977
v 0.020625000000000032 0.8125 -0.020625000000000032
v -0.020624999999999977 0.8125 -0.020625000000000032
v 0.020625000000000032 0.8125 0.020624999999999977
v -0.020624999999999977 0.8125 0.020624999999999977
vt 0.375 0.5625
vt 0.375 0.9375
vt 0.25 0.9375
vt 0.25 0.5625
vt 0.375 0.5625
vt 0.375 0.9375
vt 0.25 0.9375
vt 0.25 0.5625
vt 0.375 0.5625
vt 0.375 0.9375
vt 0.25 0.9375
vt 0.25 0.5625
vt 0.375 0.5625
vt 0.375 0.9375
vt 0.25 0.9375
vt 0.25 0.5625
vt 0.375 0.875
vt 0.375 1
vt 0.25 1
vt 0.25 0.875
vt 0.375 0.9326875
vt 0.35 1
vt 0.275 1
vt 0.25 0.9326875
vt 0.375 0.9326875
vt 0.35 1
vt 0.275 1
vt 0.25 0.9326875
vt 0.4375 0.9375
vt 0.4375 1
vt 0.375 1
vt 0.375 0.9375
vt 0.375 0.9326875
vt 0.35 1
vt 0.275 1
vt 0.25 0.9326875
vt 0.375 0.9326875
vt 0.35 1
vt 0.275 1
vt 0.25 0.9326875
vt 0.34375 1
vt 0.28125 1
vt 0.25 0.9375
vt 0.375 0.9375
vt 0.34375 1
vt 0.28125 1
vt 0.25 0.9375
vt 0.375 0.9375
vt 0.34375 1
vt 0.28125 1
vt 0.25 0.9375
vt 0.375 0.9375
vt 0.34375 1
vt 0.28125 1
vt 0.25 0.9375
vt 0.375 0.9375
vt 0.4375 1
vt 0.375 1
vt 0.375 0.9375
vt 0.4375 0.9375
vt 0.4375 1
vt 0.375 1
vt 0.375 0.9375
vt 0.4375 0.9375
vt 0.4375 1
vt 0.375 1
vt 0.375 0.9375
vt 0.4375 0.9375
vt 0.4375 1
vt 0.375 1
vt 0.375 0.9375
vt 0.4375 0.9375
vn 1 0 0
vn -1 3.608224830031757e-17 0
vn 0 0 1
vn 0 0 -1
vn 0 -1 0
vn 0.9153150324227658 0.40273861426601687 0
vn -0.9153150324227657 0.40273861426601715 0
vn 0 1 0
vn 0 0.4027386142660169 0.9153150324227656
vn 0 0.40273861426601687 -0.9153150324227658
vn 0 1 0
vn 0 1 0
vn 0 1 0
vn 0 1 0
vn -1 0 0
vn 0 0 1
vn 1 0 0
vn 0 0 -1
usemtl 4bcal_light_gun
f 56/133/34 54/134/34 53/135/34 55/136/34
f 59/137/35 57/138/35 58/139/35 60/140/35
f 55/141/36 53/142/36 57/143/36 59/144/36
f 60/145/37 58/146/37 54/147/37 56/148/37
f 56/149/38 55/150/38 59/151/38 60/152/38
f 54/153/39 62/154/39 61/155/39 53/156/39
f 57/157/40 63/158/40 64/159/40 58/160/40
f 71/161/41 69/162/41 70/163/41 72/164/41
f 53/165/42 61/166/42 63/167/42 57/168/42
f 58/169/43 64/170/43 62/171/43 54/172/43
f 65/173/44 67/174/44 61/175/44 62/176/44
f 66/177/45 65/178/45 62/179/45 64/180/45
f 68/181/46 66/182/46 64/183/46 63/184/46
f 67/185/47 68/186/47 63/187/47 61/188/47
f 69/189/48 71/190/48 67/191/48 65/192/48
f 70/193/49 69/194/49 65/195/49 66/196/49
f 72/197/50 70/198/50 66/199/50 68/200/50
f 71/201/51 72/202/51 68/203/51 67/204/51
o core_canister
v 0.06875000000000003 0.78125 0.06874999999999998
v 0.06875000000000003 0.78125 -0.06875000000000003
v 0.06875000000000003 0.4687499999999999 0.06874999999999998
v 0.06875000000000003 0.4687499999999999 -0.06875000000000003
v -0.06875 0.78125 0.06874999999999998
v -0.06875 0.78125 -0.06875000000000003
v -0.06875 0.4687499999999999 0.06874999999999998
v -0.06875 0.4687499999999999 -0.06875000000000003
v 0.05500000000000002 0.90625 0.054999999999999966
v 0.05500000000000002 0.90625 -0.05500000000000002
v -0.05499999999999999 0.90625 0.054999999999999966
v -0.05499999999999999 0.90625 -0.05500000000000002
vt 0.375 0.625
vt 0.375 1
vt 0.25 1
vt 0.25 0.625
vt 0.375 0.625
vt 0.375 1
vt 0.25 1
vt 0.25 0.625
vt 0.375 0.625
vt 0.375 1
vt 0.25 1
vt 0.25 0.625
vt 0.375 0.625
vt 0.375 1
vt 0.25 1
vt 0.25 0.625
vt 0.375 0.8749999999999999
vt 0.375 1
vt 0.25 1
vt 0.25 0.8749999999999999
vt 0.375 0.8749999999999999
vt 0.375 1
vt 0.25 1
vt 0.25 0.8749999999999999
vt 0.375 0.875
vt 0.375 1
vt 0.25 1
vt 0.25 0.875
vt 0.375 0.8749999999999999
vt 0.375 1
vt 0.25 1
vt 0.25 0.8749999999999999
vt 0.375 0.8749999999999999
vt 0.375 1
vt 0.25 1
vt 0.25 0.8749999999999999
vt 0.375 0.875
vt 0.375 1
vt 0.25 1
vt 0.25 0.875
vn 1 0 0
vn -1 1.1102230246251561e-17 0
vn 0 0 1
vn 0 0 -1
vn 0.994004355935433 0.10934047915289773 0
vn -0.994004355935433 0.10934047915289768 0
vn 0 1 0
vn 0 0.10934047915289771 0.994004355935433
vn 0 0.10934047915289774 -0.994004355935433
vn 0 -1 0
usemtl 4bcal_light_gun
f 76/205/52 74/206/52 73/207/52 75/208/52
f 79/209/53 77/210/53 78/211/53 80/212/53
f 75/213/54 73/214/54 77/215/54 79/216/54
f 80/217/55 78/218/55 74/219/55 76/220/55
f 74/221/56 82/222/56 81/223/56 73/224/56
f 77/225/57 83/226/57 84/227/57 78/228/57
f 81/229/58 82/230/58 84/231/58 83/232/58
f 73/233/59 81/234/59 83/235/59 77/236/59
f 78/237/60 84/238/60 82/239/60 74/240/60
f 76/241/61 75/242/61 79/243/61 80/244/61
o core_piercing_sabot
v 0.06875000000000006 0.78125 0.06875
v 0.06875000000000006 0.78125 -0.06875000000000003
v 0.06875000000000003 0.4687499999999999 0.06874999999999999
v 0.06875000000000003 0.4687499999999999 -0.06875000000000003
v -0.06875 0.78125 0.06875
v -0.06875 0.78125 -0.06875000000000003
v -0.06875 0.4687499999999999 0.06874999999999999
v -0.06875 0.4687499999999999 -0.06875000000000003
v 0.020625000000000088 0.90625 0.02062500000000008
v 0.020625000000000088 0.90625 -0.020624999999999963
v -0.02062499999999999 0.90625 0.02062500000000008
v -0.02062499999999999 0.90625 -0.020624999999999963
vt 0.375 0.6875
vt 0.375 1
vt 0.25 1
vt 0.25 0.6875
vt 0.375 0.6875
vt 0.375 1
vt 0.25 1
vt 0.25 0.6875
vt 0.37500000000000006 0.6875
vt 0.37500000000000006 1
vt 0.25 1
vt 0.25 0.6875
vt 0.37500000000000006 0.6875
vt 0.37500000000000006 1
vt 0.25 1
vt 0.25 0.6875
vt 0.375 0.86756875
vt 0.33125 1
vt 0.29375 1
vt 0.25 0.86756875
vt 0.375 0.8675625
vt 0.33125 1
vt 0.29375 1
vt 0.25 0.8675625
vt 0.37500000000000006 0.875
vt 0.37500000000000006 1
vt 0.25 1
vt 0.25 0.875
vt 0.375 0.8675624999999999
vt 0.33125 1
vt 0.29375 1
vt 0.25 0.8675624999999999
vt 0.375 0.8675625
vt 0.33125 1
vt 0.29375 1
vt 0.25 0.8675625
vt 0.375 0.875
vt 0.375 1
vt 0.25 1
vt 0.25 0.875
vn 1 -8.881784197001249e-17 0
vn -1 1.110223024625156e-17 0
vn 0 -4.4408920985006246e-17 1
vn 0 0 -1
vn 0.933225292836745 0.3592917377421466 0
vn -0.9332252928367452 0.35929173774214684 0
vn 0 1 0
vn 0 0.3592917377421463 0.9332252928367453
vn 0 0.35929173774214734 -0.9332252928367448
vn 0 -1 0
usemtl 4bcal_light_gun
f 88/245/62 86/246/62 85/247/62 87/248/62
f 91/249/63 89/250/63 90/251/63 92/252/63
f 87/253/64 85/254/64 89/255/64 91/256/64
f 92/257/65 90/258/65 86/259/65 88/260/65
f 86/261/66 94/262/66 93/263/66 85/264/66
f 89/265/67 95/266/67 96/267/67 90/268/67
f 93/269/68 94/270/68 96/271/68 95/272/68
f 85/273/69 93/274/69 95/275/69 89/276/69
f 90/277/70 96/278/70 94/279/70 86/280/70
f 88/281/71 87/282/71 91/283/71 92/284/71
o core_piercing
v 0.06875000000000006 0.78125 0.06874999999999998
v 0.06875000000000006 0.78125 -0.06875000000000003
v 0.06875000000000003 0.4687499999999999 0.06874999999999998
v 0.06875000000000003 0.4687499999999999 -0.06875000000000003
v -0.06875 0.78125 0.06874999999999998
v -0.06875 0.78125 -0.06875000000000003
v -0.06875 0.4687499999999999 0.06874999999999998
v -0.06875 0.4687499999999999 -0.06875000000000003
v 0.0068750000000000755 0.90625 0.006875000000000006
v 0.0068750000000000755 0.90625 -0.006875000000000006
v -0.006874999999999999 0.90625 0.006875000000000006
v -0.006874999999999999 0.90625 -0.006875000000000006
vt 0.375 0.6875
vt 0.375 1
vt 0.25 1
vt 0.25 0.6875
vt 0.375 0.6875
vt 0.375 1
vt 0.25 1
vt 0.25 0.6875
vt 0.37500000000000006 0.6875
vt 0.37500000000000006 1
vt 0.25 1
vt 0.25 0.6875
vt 0.37500000000000006 0.6875
vt 0.37500000000000006 1
vt 0.25 1
vt 0.25 0.6875
vt 0.375 0.862925
vt 0.31875 1
vt 0.30625 1
vt 0.25 0.862925
vt 0.375 0.862925
vt 0.31875 1
vt 0.30625 1
vt 0.25 0.862925
vt 0.37500000000000006 0.875
vt 0.37500000000000006 1
vt 0.25 1
vt 0.25 0.875
vt 0.375 0.8629249999999999
vt 0.31875 1
vt 0.30625 1
vt 0.25 0.8629249999999999
vt 0.375 0.862925
vt 0.31875 1
vt 0.30625 1
vt 0.25 0.862925
vt 0.375 0.875
vt 0.375 1
vt 0.25 1
vt 0.25 0.875
vn 1 -8.881784197001249e-17 0
vn -1 1.1102230246251561e-17 0
vn 0 0 1
vn 0 0 -1
vn 0.8962124318248272 0.44362515375328954 0
vn -0.8962124318248272 0.44362515375328954 0
vn 0 1 0
vn 0 0.4436251537532891 0.8962124318248272
vn 0 0.4436251537532895 -0.8962124318248271
vn 0 -1 0
usemtl 4bcal_light_gun
f 100/285/72 98/286/72 97/287/72 99/288/72
f 103/289/73 101/290/73 102/291/73 104/292/73
f 99/293/74 97/294/74 101/295/74 103/296/74
f 104/297/75 102/298/75 98/299/75 100/300/75
f 98/301/76 106/302/76 105/303/76 97/304/76
f 101/305/77 107/306/77 108/307/77 102/308/77
f 105/309/78 106/310/78 108/311/78 107/312/78
f 97/313/79 105/314/79 107/315/79 101/316/79
f 102/317/80 108/318/80 106/319/80 98/320/80
f 100/321/81 99/322/81 103/323/81 104/324/81