# Made by Pabilo8 with Blockbench
# Exported with IIToolkit Plugin
mtllib mg_2bcal.mtl


o paint
v 0.0609375 0.234375 0.0609375
v 0.0609375 0.234375 -0.0609375
v 0.06406250000000001 0.140625 0.06406250000000001
v 0.06406250000000001 0.140625 -0.06406250000000001
v -0.0609375 0.234375 0.0609375
v -0.0609375 0.234375 -0.0609375
v -0.06406250000000001 0.140625 0.06406250000000001
v -0.06406250000000001 0.140625 -0.06406250000000001
vt 0.25 0
vt 0.25 0.25
vt 0.5 0.25
vt 0.5 0
vt 0.5 0
vt 0.5 0.25
vt 0.25 0.25
vt 0.25 0
vt 0 0
vt 0 0.25
vt 0.25 0.25
vt 0.25 0
vt 0.25 0
vt 0.25 0.25
vt 0 0.25
vt 0 0
vn 0.9994449069791543 0.03331483023263858 0
vn -0.9994449069791543 0.03331483023263858 0
vn 0 0.03331483023263858 0.9994449069791543
vn 0 0.03331483023263858 -0.9994449069791543
usemtl 2bcal_machinegun
f 4/1/1 2/2/1 1/3/1 3/4/1
f 7/5/2 5/6/2 6/7/2 8/8/2
f 3/9/3 1/10/3 5/11/3 7/12/3
f 8/13/4 6/14/4 2/15/4 4/16/4
o casing
v 0.04375 0.3125 0.04375
v 0.04375 0.3125 -0.04375
v 0.0625 0.1875 0.0625
v 0.0625 0.1875 -0.0625
v -0.04375 0.3125 0.04375
v -0.04375 0.3125 -0.04375
v -0.0625 0.1875 0.0625
v -0.0625 0.1875 -0.0625
v 0.0625 0 0.0625
v 0.0625 0 -0.0625
v -0.0625 0 0.0625
v -0.0625 0 -0.0625
vt 0.25 0.7472000000000003
vt 0.2875000000000001 1
vt 0.46250000000000013 1
vt 0.5 0.7472000000000003
vt 0.25 0.7472000000000003
vt 0.2875000000000001 1
vt 0.4624999999999999 1
vt 0.5 0.7472000000000003
vt 1 0.75
vt 1 1
vt 0.75 1
vt 0.75 0.75
vt 0.5 0.7472000000000003
vt 0.4624999999999999 1
vt 0.28749999999999987 1
vt 0.25 0.7472000000000003
vt 0.5 0.7472000000000003
vt 0.4624999999999999 1
vt 0.2875 1
vt 0.25 0.7472000000000003
vt 0.25 0.375
vt 0.25 0.75
vt 0.5 0.75
vt 0.5 0.375
vt 0.25 0.375
vt 0.25 0.75
vt 0.5 0.75
vt 0.5 0.375
vt 0.25 0.75
vt 0.25 1
vt 0 1
vt 0 0.75
vt 0.5 0.375
vt 0.5 0.75
vt 0.25 0.75
vt 0.25 0.375
vt 0.5 0.375
vt 0.5 0.75
vt 0.25 0.75
vt 0.25 0.375
vn 0.9889363528682975 0.14834045293024462 0
vn -0.9889363528682975 0.14834045293024462 0
vn 0 1 0
vn 0 0.14834045293024462 0.9889363528682975
vn 0 0.14834045293024462 -0.9889363528682975
vn 1 0 0
vn -1 0 0
vn 0 -1 0
vn 0 0 1
vn 0 0 -1
usemtl 2bcal_machinegun
f 12/17/5 10/18/5 9/19/5 11/20/5
f 15/21/6 13/22/6 14/23/6 16/24/6
f 9/25/7 10/26/7 14/27/7 13/28/7
f 11/29/8 9/30/8 13/31/8 15/32/8
f 16/33/9 14/34/9 10/35/9 12/36/9
f 18/37/10 12/38/10 11/39/10 17/40/10
f 19/41/11 15/42/11 16/43/11 20/44/11
f 18/45/12 17/46/12 19/47/12 20/48/12
f 17/49/13 11/50/13 15/51/13 19/52/13
f 20/53/14 16/54/14 12/55/14 18/56/14
o core_softpoint
v 0.05 0.2562500000000001 0.05
v 0.05 0.2562500000000001 -0.05
v 0.05 0.06875000000000009 0.05
v 0.05 0.06875000000000009 -0.05
v -0.05 0.2562500000000001 0.05
v -0.05 0.2562500000000001 -0.05
v -0.05 0.06875000000000009 0.05
v -0.05 0.06875000000000009 -0.05
v 0.02500000000000001 0.3812500000000001 0.02500000000000001
v 0.02500000000000001 0.3812500000000001 -0.02500000000000001
v 0.05 0.2562500000000001 0.05
v 0.05 0.2562500000000001 -0.05
v -0.02500000000000001 0.3812500000000001 0.02500000000000001
v -0.02500000000000001 0.3812500000000001 -0.02500000000000001
v -0.05 0.2562500000000001 0.05
v -0.05 0.2562500000000001 -0.05
vt 0.75 0.375
vt 0.75 0.75
vt 0.5 0.75
vt 0.5 0.375
vt 0.75 0.375
vt 0.75 0.75
vt 0.5 0.75
vt 0.5 0.375
vt 1 0.25
vt 1 0.5
vt 0.75 0.5
vt 0.75 0.25
vt 0.5 0.375
vt 0.5 0.75
vt 0.75 0.75
vt 0.75 0.375
vt 0.5 0.375
vt 0.5 0.75
vt 0.75 0.75
vt 0.75 0.375
vt 0.73125 0.74505
vt 0.68125 1
vt 0.58125 1
vt 0.53125 0.74505
vt 0.73125 0.74505
vt 0.68125 1
vt 0.58125 1
vt 0.53125 0.74505
vt 1.0000000000000002 0.75
vt 0.7500000000000002 0.75
vt 0.7500000000000002 0.5
vt 1.0000000000000002 0.5
vt 0.53125 0.74505
vt 0.5812499999999999 1
vt 0.6812499999999999 1
vt 0.73125 0.74505
vt 0.53125 0.74505
vt 0.5812499999999999 1
vt 0.6812499999999999 1
vt 0.73125 0.74505
vn 1 0 0
vn -1 0 0
vn 0 -1 0
vn 0 0 1
vn 0 0 -1
vn 0.9805806756909202 0.19611613513818402 0
vn -0.9805806756909202 0.19611613513818402 0
vn 0 1 0
vn 0 0.19611613513818402 0.9805806756909202
vn 0 0.19611613513818402 -0.9805806756909202
usemtl 2bcal_machinegun
f 24/57/15 22/58/15 21/59/15 23/60/15
f 27/61/16 25/62/16 26/63/16 28/64/16
f 24/65/17 23/66/17 27/67/17 28/68/17
f 23/69/18 21/70/18 25/71/18 27/72/18
f 28/73/19 26/74/19 22/75/19 24/76/19
f 32/77/20 30/78/20 29/79/20 31/80/20
f 35/81/21 33/82/21 34/83/21 36/84/21
f 29/85/22 30/86/22 34/87/22 33/88/22
f 31/89/23 29/90/23 33/91/23 35/92/23
f 36/93/24 34/94/24 30/95/24 32/96/24
o core_piercing
v 0.05 0.2562500000000001 0.05
v 0.05 0.2562500000000001 -0.05
v 0.05 0.06875000000000009 0.05
v 0.05 0.06875000000000009 -0.05
v -0.05 0.2562500000000001 0.05
v -0.05 0.2562500000000001 -0.05
v -0.05 0.06875000000000009 0.05
v -0.05 0.06875000000000009 -0.05
v 0.009375000000000008 0.3812500000000001 0.009375000000000008
v 0.009375000000000008 0.3812500000000001 -0.009375000000000008
v 0.05 0.2562500000000001 0.05
v 0.05 0.2562500000000001 -0.05
v -0.009375000000000008 0.3812500000000001 0.009375000000000008
v -0.009375000000000008 0.3812500000000001 -0.009375000000000008
v -0.05 0.2562500000000001 0.05
v -0.05 0.2562500000000001 -0.05
vt 0.75 0.375
vt 0.75 0.75
vt 0.5 0.75
vt 0.5 0.375
vt 0.75 0.375
vt 0.75 0.75
vt 0.5 0.75
vt 0.5 0.375
vt 1 0.25
vt 1 0.5
vt 0.75 0.5
vt 0.75 0.25
vt 0.5 0.375
vt 0.5 0.75
vt 0.75 0.75
vt 0.75 0.375
vt 0.5 0.375
vt 0.5 0.75
vt 0.75 0.75
vt 0.75 0.375
vt 0.73125 0.74505
vt 0.68125 1
vt 0.58125 1
vt 0.53125 0.74505
vt 0.73125 0.74505
vt 0.68125 1
vt 0.58125 1
vt 0.53125 0.74505
vt 1.0000000000000002 0.75
vt 0.7500000000000002 0.75
vt 0.7500000000000002 0.5
vt 1.0000000000000002 0.5
vt 0.53125 0.74505
vt 0.5812499999999999 1
vt 0.6812499999999999 1
vt 0.73125 0.74505
vt 0.53125 0.74505
vt 0.5812499999999999 1
vt 0.6812499999999999 1
vt 0.73125 0.74505
vn 1 0 0
vn -1 0 0
vn 0 -1 0
vn 0 0 1
vn 0 0 -1
vn 0.9510340687309482 0.30908607233755814 0
vn -0.9510340687309482 0.30908607233755814 0
vn 0 1 0
vn 0 0.30908607233755814 0.9510340687309482
vn 0 0.30908607233755814 -0.9510340687309482
usemtl 2bcal_machinegun
f 40/97/25 38/98/25 37/99/25 39/100/25
f 43/101/26 41/102/26 42/103/26 44/104/26
f 40/105/27 39/106/27 43/107/27 44/108/27
f 39/109/28 37/110/28 41/111/28 43/112/28
f 44/113/29 42/114/29 38/115/29 40/116/29
f 48/117/30 46/118/30 45/119/30 47/120/30
f 51/121/31 49/122/31 50/123/31 52/124/31
f 45/125/32 46/126/32 50/127/32 49/128/32
f 47/129/33 45/130/33 49/131/33 51/132/33
f 52/133/34 50/134/34 46/135/34 48/136/34