# Made by Pabilo8 with Blockbench
# Exported with IIToolkit Plugin on 01/10/2026
mtllib missile_guided_6bcal.mtl

o casing
v 0.1875 1.1094 0.1875
v 0.1875 1.1094 -0.1875
v 0.1875 0.1094 0.1875
v 0.1875 0.1094 -0.1875
v -0.1875 1.1094 0.1875
v -0.1875 1.1094 -0.1875
v -0.1875 0.1094 0.1875
v -0.1875 0.1094 -0.1875
v 0.125 0.0031 0.125
v 0.125 0.0031 -0.125
v -0.125 0.0031 0.125
v -0.125 0.0031 -0.125
v 0.1646 1.1553 -0.1646
v 0.1646 1.1553 0.1641
v -0.1641 1.1553 0.1641
v -0.1641 1.1553 -0.1646
v 0.1225 0.6719 -0.0783
v 0.2109 0.6719 -0.1667
v 0.1225 0.0531 -0.0783
v 0.2551 0.0531 -0.2109
v 0.0783 0.6719 -0.1225
v 0.1667 0.6719 -0.2109
v 0.0783 0.0531 -0.1225
v 0.2109 0.0531 -0.2551
v -0.1225 0.6719 -0.0783
v -0.2109 0.6719 -0.1667
v -0.1225 0.0531 -0.0783
v -0.2551 0.0531 -0.2109
v -0.0783 0.6719 -0.1225
v -0.1667 0.6719 -0.2109
v -0.0783 0.0531 -0.1225
v -0.2109 0.0531 -0.2551
v -0.1225 0.6719 0.0783
v -0.2109 0.6719 0.1667
v -0.1225 0.0531 0.0783
v -0.2551 0.0531 0.2109
v -0.0783 0.6719 0.1225
v -0.1667 0.6719 0.2109
v -0.0783 0.0531 0.1225
v -0.2109 0.0531 0.2551
v 0.1225 0.6719 0.0783
v 0.2109 0.6719 0.1667
v 0.1225 0.0531 0.0783
v 0.2551 0.0531 0.2109
v 0.0783 0.6719 0.1225
v 0.1667 0.6719 0.2109
v 0.0783 0.0531 0.1225
v 0.2109 0.0531 0.2551
v 0.1646 0.6865 0.1636
v 0.1646 0.6865 -0.1646
v -0.1636 0.6865 0.1636
v -0.1636 0.6865 -0.1646
v 0.2031 0.4375 0.125
v 0.2031 0.4375 -0.125
v 0.2031 0.1875 0.125
v 0.2031 0.1875 -0.125
v 0.1875 0.4375 0.125
v 0.1875 0.4375 -0.125
v 0.1875 0.1875 0.125
v 0.1875 0.1875 -0.125
v 0.2125 0.9375 0.2125
v 0.2125 0.9375 -0.2125
v 0.2125 0.875 0.2125
v 0.2125 0.875 -0.2125
v -0.2125 0.9375 0.2125
v -0.2125 0.9375 -0.2125
v -0.2125 0.875 0.2125
v -0.2125 0.875 -0.2125
v 0.2125 0.6875 0.2125
v 0.2125 0.6875 -0.2125
v 0.2125 0.625 0.2125
v 0.2125 0.625 -0.2125
v -0.2125 0.6875 0.2125
v -0.2125 0.6875 -0.2125
v -0.2125 0.625 0.2125
v -0.2125 0.625 -0.2125
vt 0.375 0
vt 0.375 1
vt 0 1
vt 0 0
vt 0.375 0
vt 0.375 1
vt 0 1
vt 0 0
vt 0.375 0
vt 0.375 1
vt 0 1
vt 0 0
vt 0.375 0
vt 0.375 1
vt 0 1
vt 0 0
vt 0.6875 0
vt 0.75 0.1233
vt 0.375 0.1233
vt 0.4375 0
vt 0.6875 0
vt 0.75 0.1233
vt 0.375 0.1233
vt 0.4375 0
vt 1 0
vt 1 0.25
vt 0.75 0.25
vt 0.75 0
vt 0.6875 0
vt 0.75 0.1233
vt 0.375 0.1233
vt 0.4375 0
vt 0.6875 0
vt 0.75 0.1233
vt 0.375 0.1233
vt 0.4375 0
vt 0.375 0.7205
vt 0.3521 0.7718
vt 0.0229 0.7718
vt 0 0.7205
vt 0.375 0.7205
vt 0.3521 0.7718
vt 0.0229 0.7718
vt 0 0.7205
vt 0.375 0.7205
vt 0.3521 0.7718
vt 0.0229 0.7718
vt 0 0.7205
vt 0.375 0.7205
vt 0.3521 0.7718
vt 0.0229 0.7718
vt 0 0.7205
vt 0.8125 0.375
vt 0.875 1
vt 1 1
vt 1 0.375
vt 1 0.375
vt 1 1
vt 0.875 1
vt 0.8125 0.375
vt 1 0.4375
vt 1 0.5625
vt 0.9375 0.5625
vt 0.9375 0.4375
vt 1 0.5625
vt 1 0.75
vt 0.9375 0.75
vt 0.9375 0.5625
vt 0.875 0.3781
vt 0.875 1
vt 0.8125 1
vt 0.8125 0.3781
vt 1 1
vt 0.875 1
vt 0.8125 0.375
vt 1 0.375
vt 0.875 1
vt 1 1
vt 1 0.375
vt 0.8125 0.375
vt 0.9375 0.5625
vt 1 0.5625
vt 1 0.4375
vt 0.9375 0.4375
vt 0.9375 0.75
vt 1 0.75
vt 1 0.5625
vt 0.9375 0.5625
vt 0.8125 1
vt 0.875 1
vt 0.875 0.3781
vt 0.8125 0.3781
vt 0.8125 0.375
vt 0.875 1
vt 1 1
vt 1 0.375
vt 1 0.375
vt 1 1
vt 0.875 1
vt 0.8125 0.375
vt 1 0.4375
vt 1 0.5625
vt 0.9375 0.5625
vt 0.9375 0.4375
vt 1 0.5625
vt 1 0.75
vt 0.9375 0.75
vt 0.9375 0.5625
vt 0.875 0.3781
vt 0.875 1
vt 0.8125 1
vt 0.8125 0.3781
vt 1 1
vt 0.875 1
vt 0.8125 0.375
vt 1 0.375
vt 0.875 1
vt 1 1
vt 1 0.375
vt 0.8125 0.375
vt 0.9375 0.5625
vt 1 0.5625
vt 1 0.4375
vt 0.9375 0.4375
vt 0.9375 0.75
vt 1 0.75
vt 1 0.5625
vt 0.9375 0.5625
vt 0.8125 1
vt 0.875 1
vt 0.875 0.3781
vt 0.8125 0.3781
vt 0.0156 1
vt 0.3438 1
vt 0.3438 0.5
vt 0.0156 0.5
vt 0.0156 1
vt 0.3438 1
vt 0.3438 0.5
vt 0.0156 0.5
vt 0.0156 1
vt 0.3438 1
vt 0.3438 0.5
vt 0.0156 0.5
vt 0.0156 1
vt 0.3438 1
vt 0.3438 0.5
vt 0.0156 0.5
vt 0.625 0.5
vt 0.625 0.75
vt 0.375 0.75
vt 0.375 0.5
vt 0.375 0.75
vt 0.625 0.75
vt 0.625 0.6875
vt 0.375 0.6875
vt 0.625 0.5625
vt 0.375 0.5625
vt 0.375 0.5
vt 0.625 0.5
vt 0.4375 0.5
vt 0.4375 0.75
vt 0.375 0.75
vt 0.375 0.5
vt 0.625 0.5
vt 0.625 0.75
vt 0.5625 0.75
vt 0.5625 0.5
vt 0.6938 1
vt 0.6313 1
vt 0.6313 0.575
vt 0.6938 0.575
vt 0.6938 1
vt 0.6313 1
vt 0.6313 0.575
vt 0.6938 0.575
vt 0.6875 1
vt 0.625 1
vt 0.625 0.5625
vt 0.6875 0.5625
vt 0.6938 1
vt 0.6313 1
vt 0.6313 0.575
vt 0.6938 0.575
vt 0.6875 1
vt 0.625 1
vt 0.625 0.5625
vt 0.6875 0.5625
vt 0.6875 1
vt 0.625 1
vt 0.625 0.5625
vt 0.6875 0.5625
vt 0.6875 1
vt 0.625 1
vt 0.625 0.5625
vt 0.6875 0.5625
vt 0.6875 1
vt 0.625 1
vt 0.625 0.5625
vt 0.6875 0.5625
vt 0 0
vt 0 0.375
vt 0.375 0.375
vt 0.375 0
vt 0.0219 0.025
vt 0.35 0.025
vt 0.35 0.3531
vt 0.0219 0.3531
vn 1 0 0
vn -1 0 0
vn 0 0 1
vn 0 0 -1
vn 0.86 -0.51 0
vn -0.86 -0.51 0
vn 0 -1 0
vn 0 -0.51 0.86
vn 0 -0.51 -0.86
vn 0.89 0.45 0
vn 0 0.45 0.89
vn -0.89 0.45 0
vn 0 0.45 -0.89
vn 0.71 0 0.71
vn -0.71 0 -0.71
vn 0 1 0
vn 0 -1 0
vn 0.7 0.1 -0.7
vn -0.71 0 0.71
vn 0.71 0 -0.71
vn 0 1 0
vn 0 -1 0
vn -0.7 0.1 -0.7
vn -0.71 0 -0.71
vn 0.71 0 0.71
vn 0 1 0
vn 0 -1 0
vn -0.7 0.1 0.7
vn 0.71 0 -0.71
vn -0.71 0 0.71
vn 0 1 0
vn 0 -1 0
vn 0.7 0.1 0.7
vn -1 0 0
vn 1 0 0
vn 0 0 -1
vn 0 0 1
vn 1 0 0
vn 0 1 0
vn 0 -1 0
vn 0 0 1
vn 0 0 -1
vn 1 0 0
vn -1 0 0
vn 0 0 1
vn 0 0 -1
vn 1 0 0
vn -1 0 0
vn 0 0 1
vn 0 0 -1
vn 0 -1 0
vn 0 1 0
usemtl 6bcal_rocket1
f 4/1/1 2/2/1 1/3/1
f 4/1/1 1/3/1 3/4/1
f 7/5/2 5/6/2 6/7/2
f 7/5/2 6/7/2 8/8/2
f 3/9/3 1/10/3 5/11/3
f 3/9/3 5/11/3 7/12/3
f 8/13/4 6/14/4 2/15/4
f 8/13/4 2/15/4 4/16/4
f 10/17/5 4/18/5 3/19/5
f 10/17/5 3/19/5 9/20/5
f 11/21/6 7/22/6 8/23/6
f 11/21/6 8/23/6 12/24/6
f 10/25/7 9/26/7 11/27/7
f 10/25/7 11/27/7 12/28/7
f 9/29/8 3/30/8 7/31/8
f 9/29/8 7/31/8 11/32/8
f 12/33/9 8/34/9 4/35/9
f 12/33/9 4/35/9 10/36/9
f 2/37/10 13/38/10 14/39/10
f 2/37/10 14/39/10 1/40/10
f 1/41/11 14/42/11 15/43/11
f 1/41/11 15/43/11 5/44/11
f 5/45/12 15/46/12 16/47/12
f 5/45/12 16/47/12 6/48/12
f 6/49/13 16/50/13 13/51/13
f 6/49/13 13/51/13 2/52/13
f 20/53/14 18/54/14 17/55/14
f 20/53/14 17/55/14 19/56/14
f 23/57/15 21/58/15 22/59/15
f 23/57/15 22/59/15 24/60/15
f 17/61/16 18/62/16 22/63/16
f 17/61/16 22/63/16 21/64/16
f 20/65/17 19/66/17 23/67/17
f 20/65/17 23/67/17 24/68/17
f 24/69/18 22/70/18 18/71/18
f 24/69/18 18/71/18 20/72/18
f 25/73/19 26/74/19 28/75/19
f 25/73/19 28/75/19 27/76/19
f 30/77/20 29/78/20 31/79/20
f 30/77/20 31/79/20 32/80/20
f 30/81/21 26/82/21 25/83/21
f 30/81/21 25/83/21 29/84/21
f 31/85/22 27/86/22 28/87/22
f 31/85/22 28/87/22 32/88/22
f 26/89/23 30/90/23 32/91/23
f 26/89/23 32/91/23 28/92/23
f 36/93/24 34/94/24 33/95/24
f 36/93/24 33/95/24 35/96/24
f 39/97/25 37/98/25 38/99/25
f 39/97/25 38/99/25 40/100/25
f 33/101/26 34/102/26 38/103/26
f 33/101/26 38/103/26 37/104/26
f 36/105/27 35/106/27 39/107/27
f 36/105/27 39/107/27 40/108/27
f 40/109/28 38/110/28 34/111/28
f 40/109/28 34/111/28 36/112/28
f 41/113/29 42/114/29 44/115/29
f 41/113/29 44/115/29 43/116/29
f 46/117/30 45/118/30 47/119/30
f 46/117/30 47/119/30 48/120/30
f 46/121/31 42/122/31 41/123/31
f 46/121/31 41/123/31 45/124/31
f 47/125/32 43/126/32 44/127/32
f 47/125/32 44/127/32 48/128/32
f 42/129/33 46/130/33 48/131/33
f 42/129/33 48/131/33 44/132/33
f 14/133/34 13/134/34 50/135/34
f 14/133/34 50/135/34 49/136/34
f 16/137/35 15/138/35 51/139/35
f 16/137/35 51/139/35 52/140/35
f 15/141/36 14/142/36 49/143/36
f 15/141/36 49/143/36 51/144/36
f 13/145/37 16/146/37 52/147/37
f 13/145/37 52/147/37 50/148/37
f 56/149/38 54/150/38 53/151/38
f 56/149/38 53/151/38 55/152/38
f 53/153/39 54/154/39 58/155/39
f 53/153/39 58/155/39 57/156/39
f 56/157/40 55/158/40 59/159/40
f 56/157/40 59/159/40 60/160/40
f 55/161/41 53/162/41 57/163/41
f 55/161/41 57/163/41 59/164/41
f 60/165/42 58/166/42 54/167/42
f 60/165/42 54/167/42 56/168/42
f 64/169/43 62/170/43 61/171/43
f 64/169/43 61/171/43 63/172/43
f 67/173/44 65/174/44 66/175/44
f 67/173/44 66/175/44 68/176/44
f 63/177/45 61/178/45 65/179/45
f 63/177/45 65/179/45 67/180/45
f 68/181/46 66/182/46 62/183/46
f 68/181/46 62/183/46 64/184/46
f 72/185/47 70/186/47 69/187/47
f 72/185/47 69/187/47 71/188/47
f 75/189/48 73/190/48 74/191/48
f 75/189/48 74/191/48 76/192/48
f 71/193/49 69/194/49 73/195/49
f 71/193/49 73/195/49 75/196/49
f 76/197/50 74/198/50 70/199/50
f 76/197/50 70/199/50 72/200/50
f 72/201/51 71/202/51 75/203/51
f 72/201/51 75/203/51 76/204/51
f 51/205/52 49/206/52 50/207/52
f 51/205/52 50/207/52 52/208/52
o casing_simple
v 0.1875 1.1094 0.1875
v 0.1875 1.1094 -0.1875
v 0.1875 0.1094 0.1875
v 0.1875 0.1094 -0.1875
v -0.1875 1.1094 0.1875
v -0.1875 1.1094 -0.1875
v -0.1875 0.1094 0.1875
v -0.1875 0.1094 -0.1875
v 0.125 0.0031 0.125
v 0.125 0.0031 -0.125
v -0.125 0.0031 0.125
v -0.125 0.0031 -0.125
v 0.1646 1.1553 -0.1646
v 0.1646 1.1553 0.1638
v -0.1638 1.1553 0.1638
v -0.1638 1.1553 -0.1646
v 0.1225 0.6719 -0.0783
v 0.2109 0.6719 -0.1667
v 0.1225 0.0531 -0.0783
v 0.2551 0.0531 -0.2109
v 0.0783 0.6719 -0.1225
v 0.1667 0.6719 -0.2109
v 0.0783 0.0531 -0.1225
v 0.2109 0.0531 -0.2551
v -0.1225 0.6719 -0.0783
v -0.2109 0.6719 -0.1667
v -0.1225 0.0531 -0.0783
v -0.2551 0.0531 -0.2109
v -0.0783 0.6719 -0.1225
v -0.1667 0.6719 -0.2109
v -0.0783 0.0531 -0.1225
v -0.2109 0.0531 -0.2551
v -0.1225 0.6719 0.0783
v -0.2109 0.6719 0.1667
v -0.1225 0.0531 0.0783
v -0.2551 0.0531 0.2109
v -0.0783 0.6719 0.1225
v -0.1667 0.6719 0.2109
v -0.0783 0.0531 0.1225
v -0.2109 0.0531 0.2551
v 0.1225 0.6719 0.0783
v 0.2109 0.6719 0.1667
v 0.1225 0.0531 0.0783
v 0.2551 0.0531 0.2109
v 0.0783 0.6719 0.1225
v 0.1667 0.6719 0.2109
v 0.0783 0.0531 0.1225
v 0.2109 0.0531 0.2551
v 0.2125 0.9375 0.2125
v 0.2125 0.9375 -0.2125
v 0.2125 0.875 0.2125
v 0.2125 0.875 -0.2125
v -0.2125 0.9375 0.2125
v -0.2125 0.9375 -0.2125
v -0.2125 0.875 0.2125
v -0.2125 0.875 -0.2125
v 0.2125 0.6875 0.2125
v 0.2125 0.6875 -0.2125
v 0.2125 0.625 0.2125
v 0.2125 0.625 -0.2125
v -0.2125 0.6875 0.2125
v -0.2125 0.6875 -0.2125
v -0.2125 0.625 0.2125
v -0.2125 0.625 -0.2125
v 0.2031 0.4375 0.125
v 0.2031 0.4375 -0.125
v 0.2031 0.1875 0.125
v 0.2031 0.1875 -0.125
v 0.1875 0.4375 0.125
v 0.1875 0.4375 -0.125
v 0.1875 0.1875 0.125
v 0.1875 0.1875 -0.125
vt 0.375 0
vt 0.375 1
vt 0 1
vt 0 0
vt 0.375 0
vt 0.375 1
vt 0 1
vt 0 0
vt 0.375 0
vt 0.375 1
vt 0 1
vt 0 0
vt 0.375 0
vt 0.375 1
vt 0 1
vt 0 0
vt 0.6875 0
vt 0.75 0.1233
vt 0.375 0.1233
vt 0.4375 0
vt 0.6875 0
vt 0.75 0.1233
vt 0.375 0.1233
vt 0.4375 0
vt 1 0
vt 1 0.25
vt 0.75 0.25
vt 0.75 0
vt 0.6875 0
vt 0.75 0.1233
vt 0.375 0.1233
vt 0.4375 0
vt 0.6875 0
vt 0.75 0.1233
vt 0.375 0.1233
vt 0.4375 0
vt 0.75 0.4392
vt 0.7271 0.4905
vt 0.3979 0.4905
vt 0.375 0.4392
vt 0.75 0.4392
vt 0.7271 0.4905
vt 0.3979 0.4905
vt 0.375 0.4392
vt 0.75 0.4392
vt 0.7271 0.4905
vt 0.3979 0.4905
vt 0.375 0.4392
vt 0.75 0.4392
vt 0.7271 0.4905
vt 0.3979 0.4905
vt 0.375 0.4392
vt 0.8125 0.375
vt 0.875 1
vt 1 1
vt 1 0.375
vt 1 0.375
vt 1 1
vt 0.875 1
vt 0.8125 0.375
vt 1 0.4375
vt 1 0.5625
vt 0.9375 0.5625
vt 0.9375 0.4375
vt 1 0.5625
vt 1 0.75
vt 0.9375 0.75
vt 0.9375 0.5625
vt 0.875 0.3781
vt 0.875 1
vt 0.8125 1
vt 0.8125 0.3781
vt 1 1
vt 0.875 1
vt 0.8125 0.375
vt 1 0.375
vt 0.875 1
vt 1 1
vt 1 0.375
vt 0.8125 0.375
vt 0.9375 0.5625
vt 1 0.5625
vt 1 0.4375
vt 0.9375 0.4375
vt 0.9375 0.75
vt 1 0.75
vt 1 0.5625
vt 0.9375 0.5625
vt 0.8125 1
vt 0.875 1
vt 0.875 0.3781
vt 0.8125 0.3781
vt 0.8125 0.375
vt 0.875 1
vt 1 1
vt 1 0.375
vt 1 0.375
vt 1 1
vt 0.875 1
vt 0.8125 0.375
vt 1 0.4375
vt 1 0.5625
vt 0.9375 0.5625
vt 0.9375 0.4375
vt 1 0.5625
vt 1 0.75
vt 0.9375 0.75
vt 0.9375 0.5625
vt 0.875 0.3781
vt 0.875 1
vt 0.8125 1
vt 0.8125 0.3781
vt 1 1
vt 0.875 1
vt 0.8125 0.375
vt 1 0.375
vt 0.875 1
vt 1 1
vt 1 0.375
vt 0.8125 0.375
vt 0.9375 0.5625
vt 1 0.5625
vt 1 0.4375
vt 0.9375 0.4375
vt 0.9375 0.75
vt 1 0.75
vt 1 0.5625
vt 0.9375 0.5625
vt 0.8125 1
vt 0.875 1
vt 0.875 0.3781
vt 0.8125 0.3781
vt 0.6938 1
vt 0.6313 1
vt 0.6313 0.575
vt 0.6938 0.575
vt 0.6938 1
vt 0.6313 1
vt 0.6313 0.575
vt 0.6938 0.575
vt 0.6875 1
vt 0.625 1
vt 0.625 0.5625
vt 0.6875 0.5625
vt 0.6938 1
vt 0.6313 1
vt 0.6313 0.575
vt 0.6938 0.575
vt 0.6875 1
vt 0.625 1
vt 0.625 0.5625
vt 0.6875 0.5625
vt 0.6875 1
vt 0.625 1
vt 0.625 0.5625
vt 0.6875 0.5625
vt 0.6875 1
vt 0.625 1
vt 0.625 0.5625
vt 0.6875 0.5625
vt 0.6875 1
vt 0.625 1
vt 0.625 0.5625
vt 0.6875 0.5625
vt 0 0
vt 0 0.375
vt 0.375 0.375
vt 0.375 0
vt 0.0219 0.025
vt 0.35 0.025
vt 0.35 0.3531
vt 0.0219 0.3531
vt 0.625 0.5
vt 0.625 0.75
vt 0.375 0.75
vt 0.375 0.5
vt 0.375 0.75
vt 0.625 0.75
vt 0.625 0.6875
vt 0.375 0.6875
vt 0.625 0.5625
vt 0.375 0.5625
vt 0.375 0.5
vt 0.625 0.5
vt 0.4375 0.5
vt 0.4375 0.75
vt 0.375 0.75
vt 0.375 0.5
vt 0.625 0.5
vt 0.625 0.75
vt 0.5625 0.75
vt 0.5625 0.5
vn 1 0 0
vn -1 0 0
vn 0 0 1
vn 0 0 -1
vn 0.86 -0.51 0
vn -0.86 -0.51 0
vn 0 -1 0
vn 0 -0.51 0.86
vn 0 -0.51 -0.86
vn 0.89 0.45 0
vn 0 0.46 0.89
vn -0.89 0.46 0
vn 0 0.45 -0.89
vn 0.71 0 0.71
vn -0.71 0 -0.71
vn 0 1 0
vn 0 -1 0
vn 0.7 0.1 -0.7
vn -0.71 0 0.71
vn 0.71 0 -0.71
vn 0 1 0
vn 0 -1 0
vn -0.7 0.1 -0.7
vn -0.71 0 -0.71
vn 0.71 0 0.71
vn 0 1 0
vn 0 -1 0
vn -0.7 0.1 0.7
vn 0.71 0 -0.71
vn -0.71 0 0.71
vn 0 1 0
vn 0 -1 0
vn 0.7 0.1 0.7
vn 1 0 0
vn -1 0 0
vn 0 0 1
vn 0 0 -1
vn 1 0 0
vn -1 0 0
vn 0 0 1
vn 0 0 -1
vn 0 -1 0
vn 0 1 0
vn 1 0 0
vn 0 1 0
vn 0 -1 0
vn 0 0 1
vn 0 0 -1
usemtl 6bcal_rocket1
f 80/209/53 78/210/53 77/211/53
f 80/209/53 77/211/53 79/212/53
f 83/213/54 81/214/54 82/215/54
f 83/213/54 82/215/54 84/216/54
f 79/217/55 77/218/55 81/219/55
f 79/217/55 81/219/55 83/220/55
f 84/221/56 82/222/56 78/223/56
f 84/221/56 78/223/56 80/224/56
f 86/225/57 80/226/57 79/227/57
f 86/225/57 79/227/57 85/228/57
f 87/229/58 83/230/58 84/231/58
f 87/229/58 84/231/58 88/232/58
f 86/233/59 85/234/59 87/235/59
f 86/233/59 87/235/59 88/236/59
f 85/237/60 79/238/60 83/239/60
f 85/237/60 83/239/60 87/240/60
f 88/241/61 84/242/61 80/243/61
f 88/241/61 80/243/61 86/244/61
f 78/245/62 89/246/62 90/247/62
f 78/245/62 90/247/62 77/248/62
f 77/249/63 90/250/63 91/251/63
f 77/249/63 91/251/63 81/252/63
f 81/253/64 91/254/64 92/255/64
f 81/253/64 92/255/64 82/256/64
f 82/257/65 92/258/65 89/259/65
f 82/257/65 89/259/65 78/260/65
f 96/261/66 94/262/66 93/263/66
f 96/261/66 93/263/66 95/264/66
f 99/265/67 97/266/67 98/267/67
f 99/265/67 98/267/67 100/268/67
f 93/269/68 94/270/68 98/271/68
f 93/269/68 98/271/68 97/272/68
f 96/273/69 95/274/69 99/275/69
f 96/273/69 99/275/69 100/276/69
f 100/277/70 98/278/70 94/279/70
f 100/277/70 94/279/70 96/280/70
f 101/281/71 102/282/71 104/283/71
f 101/281/71 104/283/71 103/284/71
f 106/285/72 105/286/72 107/287/72
f 106/285/72 107/287/72 108/288/72
f 106/289/73 102/290/73 101/291/73
f 106/289/73 101/291/73 105/292/73
f 107/293/74 103/294/74 104/295/74
f 107/293/74 104/295/74 108/296/74
f 102/297/75 106/298/75 108/299/75
f 102/297/75 108/299/75 104/300/75
f 112/301/76 110/302/76 109/303/76
f 112/301/76 109/303/76 111/304/76
f 115/305/77 113/306/77 114/307/77
f 115/305/77 114/307/77 116/308/77
f 109/309/78 110/310/78 114/311/78
f 109/309/78 114/311/78 113/312/78
f 112/313/79 111/314/79 115/315/79
f 112/313/79 115/315/79 116/316/79
f 116/317/80 114/318/80 110/319/80
f 116/317/80 110/319/80 112/320/80
f 117/321/81 118/322/81 120/323/81
f 117/321/81 120/323/81 119/324/81
f 122/325/82 121/326/82 123/327/82
f 122/325/82 123/327/82 124/328/82
f 122/329/83 118/330/83 117/331/83
f 122/329/83 117/331/83 121/332/83
f 123/333/84 119/334/84 120/335/84
f 123/333/84 120/335/84 124/336/84
f 118/337/85 122/338/85 124/339/85
f 118/337/85 124/339/85 120/340/85
f 128/341/86 126/342/86 125/343/86
f 128/341/86 125/343/86 127/344/86
f 131/345/87 129/346/87 130/347/87
f 131/345/87 130/347/87 132/348/87
f 127/349/88 125/350/88 129/351/88
f 127/349/88 129/351/88 131/352/88
f 132/353/89 130/354/89 126/355/89
f 132/353/89 126/355/89 128/356/89
f 136/357/90 134/358/90 133/359/90
f 136/357/90 133/359/90 135/360/90
f 139/361/91 137/362/91 138/363/91
f 139/361/91 138/363/91 140/364/91
f 135/365/92 133/366/92 137/367/92
f 135/365/92 137/367/92 139/368/92
f 140/369/93 138/370/93 134/371/93
f 140/369/93 134/371/93 136/372/93
f 136/373/94 135/374/94 139/375/94
f 136/373/94 139/375/94 140/376/94
f 91/377/95 90/378/95 89/379/95
f 91/377/95 89/379/95 92/380/95
f 144/381/96 142/382/96 141/383/96
f 144/381/96 141/383/96 143/384/96
f 141/385/97 142/386/97 146/387/97
f 141/385/97 146/387/97 145/388/97
f 144/389/98 143/390/98 147/391/98
f 144/389/98 147/391/98 148/392/98
f 143/393/99 141/394/99 145/395/99
f 143/393/99 145/395/99 147/396/99
f 148/397/100 146/398/100 142/399/100
f 148/397/100 142/399/100 144/400/100
o core_piercing
v 0.0164 1.4375 0.0164
v 0.0164 1.4375 -0.0164
v 0.1641 1.1774 0.1641
v 0.1641 1.1774 -0.1641
v -0.0164 1.4375 0.0164
v -0.0164 1.4375 -0.0164
v -0.1641 1.1774 0.1641
v -0.1641 1.1774 -0.1641
v 0.1641 0.6569 0.1641
v 0.1641 0.6569 -0.1641
v -0.1641 0.6569 0.1641
v -0.1641 0.6569 -0.1641
vt 0 0.75
vt 0.125 1
vt 0.1875 1
vt 0.3125 0.75
vt 0 0.75
vt 0.125 1
vt 0.1875 1
vt 0.3125 0.75
vt 0.4375 0.875
vt 0.4375 0.9375
vt 0.375 0.9375
vt 0.375 0.875
vt 0.3125 0.75
vt 0.1875 1
vt 0.125 1
vt 0 0.75
vt 0.3125 0.75
vt 0.1875 1
vt 0.125 1
vt 0 0.75
vt 0 0.3125
vt 0 0.8125
vt 0.3125 0.8125
vt 0.3125 0.3125
vt 0 0.3125
vt 0 0.8125
vt 0.3125 0.8125
vt 0.3125 0.3125
vt 0.3125 0
vt 0.3125 0.3125
vt 0 0.3125
vt 0 0
vt 0 0.3125
vt 0 0.8125
vt 0.3125 0.8125
vt 0.3125 0.3125
vt 0 0.3125
vt 0 0.8125
vt 0.3125 0.8125
vt 0.3125 0.3125
vn 0.87 0.49 0
vn -0.87 0.49 0
vn 0 1 0
vn 0 0.49 0.87
vn 0 0.49 -0.87
vn 1 0 0
vn -1 0 0
vn 0 -1 0
vn 0 0 1
vn 0 0 -1
usemtl 6bcal_rocket2
f 152/401/101 150/402/101 149/403/101
f 152/401/101 149/403/101 151/404/101
f 155/405/102 153/406/102 154/407/102
f 155/405/102 154/407/102 156/408/102
f 149/409/103 150/410/103 154/411/103
f 149/409/103 154/411/103 153/412/103
f 151/413/104 149/414/104 153/415/104
f 151/413/104 153/415/104 155/416/104
f 156/417/105 154/418/105 150/419/105
f 156/417/105 150/419/105 152/420/105
f 158/421/106 152/422/106 151/423/106
f 158/421/106 151/423/106 157/424/106
f 159/425/107 155/426/107 156/427/107
f 159/425/107 156/427/107 160/428/107
f 158/429/108 157/430/108 159/431/108
f 158/429/108 159/431/108 160/432/108
f 157/433/109 151/434/109 155/435/109
f 157/433/109 155/435/109 159/436/109
f 160/437/110 156/438/110 152/439/110
f 160/437/110 152/439/110 158/440/110
o core_shaped
v 0.0984 1.375 0.0984
v 0.0984 1.375 -0.0984
v 0.1641 1.1793 0.1641
v 0.1641 1.1793 -0.1641
v -0.0984 1.375 0.0984
v -0.0984 1.375 -0.0984
v -0.1641 1.1793 0.1641
v -0.1641 1.1793 -0.1641
v 0.1641 0.6569 0.1641
v 0.1641 0.6569 -0.1641
v -0.1641 0.6569 0.1641
v -0.1641 0.6569 -0.1641
v 0.0325 1.375 -0.0325
v -0.0325 1.375 -0.0325
v 0.0325 1.375 0.0325
v -0.0325 1.375 0.0325
v 0.0325 1.3097 -0.0325
v -0.0325 1.3097 -0.0325
v 0.0325 1.3097 0.0325
v -0.0325 1.3097 0.0325
vt 0.3125 0.8125
vt 0.25 1
vt 0.0625 1
vt 0 0.8125
vt 0.3125 0.8125
vt 0.25 1
vt 0.0625 1
vt 0 0.8125
vt 0.4369 0.8756
vt 0.4369 0.9375
vt 0.375 0.9375
vt 0.375 0.8756
vt 0 0.8125
vt 0.0625 1
vt 0.25 1
vt 0.3125 0.8125
vt 0 0.8125
vt 0.0625 1
vt 0.25 1
vt 0.3125 0.8125
vt 0 0.3125
vt 0 0.8125
vt 0.3125 0.8125
vt 0.3125 0.3125
vt 0 0.3125
vt 0 0.8125
vt 0.3125 0.8125
vt 0.3125 0.3125
vt 0.3125 0
vt 0.3125 0.3125
vt 0 0.3125
vt 0 0
vt 0 0.3125
vt 0 0.8125
vt 0.3125 0.8125
vt 0.3125 0.3125
vt 0 0.3125
vt 0 0.8125
vt 0.3125 0.8125
vt 0.3125 0.3125
vt 0.4372 0.9372
vt 0.4372 0.8753
vt 0.5 0.8125
vt 0.5 1
vt 0.3753 0.9372
vt 0.4372 0.9372
vt 0.5 1
vt 0.3125 1
vt 0.3753 0.8753
vt 0.3753 0.9372
vt 0.3125 1
vt 0.3125 0.8125
vt 0.4372 0.875
vt 0.3753 0.875
vt 0.3125 0.8122
vt 0.5 0.8122
vt 0.1869 1
vt 0.125 1
vt 0.125 0.9375
vt 0.1869 0.9375
vt 0.1869 1
vt 0.125 1
vt 0.125 0.9375
vt 0.1869 0.9375
vt 0.1869 1
vt 0.125 1
vt 0.125 0.9375
vt 0.1869 0.9375
vt 0.1869 1
vt 0.125 1
vt 0.125 0.9375
vt 0.1869 0.9375
vn 0.95 0.32 0
vn -0.95 0.32 0
vn 0 1 0
vn 0 0.32 0.95
vn 0 0.32 -0.95
vn 1 0 0
vn -1 0 0
vn 0 -1 0
vn 0 0 1
vn 0 0 -1
vn 0 1 0
vn 0 1 0
vn 0 1 0
vn 0 1 0
vn -1 0 0
vn 0 0 1
vn 1 0 0
vn 0 0 -1
usemtl 6bcal_rocket2
f 164/441/111 162/442/111 161/443/111
f 164/441/111 161/443/111 163/444/111
f 167/445/112 165/446/112 166/447/112
f 167/445/112 166/447/112 168/448/112
f 179/449/113 177/450/113 178/451/113
f 179/449/113 178/451/113 180/452/113
f 163/453/114 161/454/114 165/455/114
f 163/453/114 165/455/114 167/456/114
f 168/457/115 166/458/115 162/459/115
f 168/457/115 162/459/115 164/460/115
f 170/461/116 164/462/116 163/463/116
f 170/461/116 163/463/116 169/464/116
f 171/465/117 167/466/117 168/467/117
f 171/465/117 168/467/117 172/468/117
f 170/469/118 169/470/118 171/471/118
f 170/469/118 171/471/118 172/472/118
f 169/473/119 163/474/119 167/475/119
f 169/473/119 167/475/119 171/476/119
f 172/477/120 168/478/120 164/479/120
f 172/477/120 164/479/120 170/480/120
f 173/481/121 175/482/121 161/483/121
f 173/481/121 161/483/121 162/484/121
f 174/485/122 173/486/122 162/487/122
f 174/485/122 162/487/122 166/488/122
f 176/489/123 174/490/123 166/491/123
f 176/489/123 166/491/123 165/492/123
f 175/493/124 176/494/124 165/495/124
f 175/493/124 165/495/124 161/496/124
f 177/497/125 179/498/125 175/499/125
f 177/497/125 175/499/125 173/500/125
f 178/501/126 177/502/126 173/503/126
f 178/501/126 173/503/126 174/504/126
f 180/505/127 178/506/127 174/507/127
f 180/505/127 174/507/127 176/508/127
f 179/509/128 180/510/128 176/511/128
f 179/509/128 176/511/128 175/512/128
o core_canister
v 0.0984 1.375 0.0984
v 0.0984 1.375 -0.0984
v 0.1641 1.1793 0.1641
v 0.1641 1.1793 -0.1641
v -0.0984 1.375 0.0984
v -0.0984 1.375 -0.0984
v -0.1641 1.1793 0.1641
v -0.1641 1.1793 -0.1641
v 0.1641 0.6569 0.1641
v 0.1641 0.6569 -0.1641
v -0.1641 0.6569 0.1641
v -0.1641 0.6569 -0.1641
vt 0.3125 0.8125
vt 0.25 1
vt 0.0625 1
vt 0 0.8125
vt 0.3125 0.8125
vt 0.25 1
vt 0.0625 1
vt 0 0.8125
vt 0.5 0.8125
vt 0.5 1
vt 0.3125 1
vt 0.3125 0.8125
vt 0 0.8125
vt 0.0625 1
vt 0.25 1
vt 0.3125 0.8125
vt 0 0.8125
vt 0.0625 1
vt 0.25 1
vt 0.3125 0.8125
vt 0 0.3125
vt 0 0.8125
vt 0.3125 0.8125
vt 0.3125 0.3125
vt 0 0.3125
vt 0 0.8125
vt 0.3125 0.8125
vt 0.3125 0.3125
vt 0.3125 0
vt 0.3125 0.3125
vt 0 0.3125
vt 0 0
vt 0 0.3125
vt 0 0.8125
vt 0.3125 0.8125
vt 0.3125 0.3125
vt 0 0.3125
vt 0 0.8125
vt 0.3125 0.8125
vt 0.3125 0.3125
vn 0.95 0.32 0
vn -0.95 0.32 0
vn 0 1 0
vn 0 0.32 0.95
vn 0 0.32 -0.95
vn 1 0 0
vn -1 0 0
vn 0 -1 0
vn 0 0 1
vn 0 0 -1
usemtl 6bcal_rocket2
f 184/513/129 182/514/129 181/515/129
f 184/513/129 181/515/129 183/516/129
f 187/517/130 185/518/130 186/519/130
f 187/517/130 186/519/130 188/520/130
f 181/521/131 182/522/131 186/523/131
f 181/521/131 186/523/131 185/524/131
f 183/525/132 181/526/132 185/527/132
f 183/525/132 185/527/132 187/528/132
f 188/529/133 186/530/133 182/531/133
f 188/529/133 182/531/133 184/532/133
f 190/533/134 184/534/134 183/535/134
f 190/533/134 183/535/134 189/536/134
f 191/537/135 187/538/135 188/539/135
f 191/537/135 188/539/135 192/540/135
f 190/541/136 189/542/136 191/543/136
f 190/541/136 191/543/136 192/544/136
f 189/545/137 183/546/137 187/547/137
f 189/545/137 187/547/137 191/548/137
f 192/549/138 188/550/138 184/551/138
f 192/549/138 184/551/138 190/552/138
o paint
v 0.1906 0.875 0.1891
v 0.1906 0.875 -0.1891
v 0.1906 0.6875 0.1891
v 0.1906 0.6875 -0.1891
v -0.1906 0.875 0.1891
v -0.1906 0.875 -0.1891
v -0.1906 0.6875 0.1891
v -0.1906 0.6875 -0.1891
vt 1 0.8125
vt 1 1
vt 0.625 1
vt 0.625 0.8125
vt 1 0.8125
vt 1 1
vt 0.625 1
vt 0.625 0.8125
vt 1 0.8125
vt 1 1
vt 0.625 1
vt 0.625 0.8125
vt 1 0.8125
vt 1 1
vt 0.625 1
vt 0.625 0.8125
vn 1 0 0
vn -1 0 0
vn 0 0 1
vn 0 0 -1
usemtl 6bcal_rocket2
f 196/553/139 194/554/139 193/555/139
f 196/553/139 193/555/139 195/556/139
f 199/557/140 197/558/140 198/559/140
f 199/557/140 198/559/140 200/560/140
f 195/561/141 193/562/141 197/563/141
f 195/561/141 197/563/141 199/564/141
f 200/565/142 198/566/142 194/567/142
f 200/565/142 194/567/142 196/568/142
o jet_flame
v 0.375 0 0
v -0.375 0 0
v 0.375 -0.75 0
v -0.375 -0.75 0
v 0 0 -0.375
v 0 0 0.375
v 0 -0.75 -0.375
v 0 -0.75 0.375
v 0.375 -0.0625 0.375
v 0.375 -0.0625 -0.375
v -0.375 -0.0625 0.375
v -0.375 -0.0625 -0.375
v 0.375 -0.0625 0
v -0.375 -0.0625 0
v 0 0 0
v 0 -0.0625 -0.375
v 0 -0.0625 0.375
vt 0 0.5625
vt 0.375 0.5625
vt 0.375 0.9375
vt 0 0.9375
vt 0 0.5625
vt 0.375 0.5625
vt 0.375 0.9375
vt 0 0.9375
vt 0 0.5625
vt 0.375 0.5625
vt 0.375 0.9375
vt 0 0.9375
vt 0 0.5625
vt 0.375 0.5625
vt 0.375 0.9375
vt 0 0.9375
vt 0.5 0.5
vt 0.25 0.5
vt 0.25 0.25
vt 0.5 0.25
vt 0.5 0.25
vt 0.25 0.25
vt 0.25 0
vt 0.5 0
vt 0 0
vt 0.25 0
vt 0.25 0.25
vt 0 0.25
vt 0 0.25
vt 0.25 0.25
vt 0.25 0.5
vt 0 0.5
vt 0.25 0.5
vt 0.25 0.25
vt 0 0.25
vt 0 0.5
vt 0.25 0.25
vt 0.25 0
vt 0 0
vt 0 0.25
vt 0.25 0
vt 0.25 0.25
vt 0.5 0.25
vt 0.5 0
vt 0.25 0.25
vt 0.25 0.5
vt 0.5 0.5
vt 0.5 0.25
vn 0 0 -1
vn 0 0 1
vn -1 0 0
vn 1 0 0
vn 0 0.99 -0.16
vn -0.16 -0.97 0.16
vn 0 0.99 0.16
vn 0.16 -0.97 -0.16
vn 0.16 -0.97 0.16
vn 0 0.99 -0.16
vn -0.16 -0.97 -0.16
vn 0 0.99 0.16
usemtl rocket_trail_start
f 204/569/143 202/570/143 201/571/143
f 204/569/143 201/571/143 203/572/143
f 203/573/144 201/574/144 202/575/144
f 203/573/144 202/575/144 204/576/144
f 208/577/145 206/578/145 205/579/145
f 208/577/145 205/579/145 207/580/145
f 207/581/146 205/582/146 206/583/146
f 207/581/146 206/583/146 208/584/146
f 210/585/147 216/586/147 215/587/147
f 210/585/147 215/587/147 213/588/147
f 213/589/148 215/590/148 216/591/148
f 213/589/148 216/591/148 210/592/148
f 211/593/149 217/594/149 215/595/149
f 211/593/149 215/595/149 214/596/149
f 214/597/150 215/598/150 217/599/150
f 214/597/150 217/599/150 211/600/150
f 216/601/151 215/602/151 214/603/151
f 216/601/151 214/603/151 212/604/151
f 215/605/152 216/606/152 212/607/152
f 215/605/152 212/607/152 214/608/152
f 217/609/153 215/610/153 213/611/153
f 217/609/153 213/611/153 209/612/153
f 215/613/154 217/614/154 209/615/154
f 215/613/154 209/615/154 213/616/154