# Made by Pabilo8 with Blockbench
# Exported with IIToolkit Plugin
mtllib mortar_6bcal.mtl



o casing
v 0.1875 0.875 0.1875
v 0.1875 0.875 -0.1875
v 0.1875 0.625 0.1875
v 0.1875 0.625 -0.1875
v -0.1875 0.875 0.1875
v -0.1875 0.875 -0.1875
v -0.1875 0.625 0.1875
v -0.1875 0.625 -0.1875
v 0.15624999999999997 1.0625 0.15624999999999997
v 0.15624999999999997 1.0625 -0.15624999999999997
v -0.1625 1.0625 0.15624999999999997
v -0.1625 1.0625 -0.15624999999999997
v 0.0625 0.3125 0.0625
v 0.0625 0.3125 -0.0625
v -0.0625 0.3125 0.0625
v -0.0625 0.3125 -0.0625
v 0.0625 0 0.0625
v 0.0625 0 -0.0625
v -0.0625 0 0.0625
v -0.0625 0 -0.0625
v -0.18750000000000008 0.24999999999999997 -0.03125000000000017
v -0.18750000000000008 0.24999999999999997 0.031249999999999827
v -0.18750000000000006 -2.6789148731348375e-17 -0.03125000000000013
v -0.18750000000000006 -1.913510623667742e-17 0.031249999999999865
v -0.06250000000000028 0.3125 -0.031250000000000173
v -0.06250000000000028 0.3125 0.031249999999999827
v -0.06250000000000024 -1.1481063742006482e-17 -0.03125000000000013
v -0.06250000000000024 -3.827021247335525e-18 0.031249999999999865
v 0.18749999999999983 0.25 0.031249999999999844
v 0.18749999999999983 0.25 -0.03125000000000016
v 0.18749999999999983 3.642476228985972e-21 0.031249999999999833
v 0.18749999999999983 -3.642476228986011e-21 -0.03125000000000017
v 0.06249999999999983 0.3125 0.031249999999999833
v 0.06249999999999983 0.3125 -0.03125000000000017
v 0.06249999999999983 3.642476228985972e-21 0.031249999999999833
v 0.06249999999999983 -3.642476228986011e-21 -0.03125000000000017
v 0.03125000000000004 0.25 -0.1875
v -0.03124999999999996 0.25 -0.1875
v 0.03125000000000004 0 -0.1875
v -0.03124999999999996 0 -0.1875
v 0.031250000000000014 0.3125 -0.06249999999999999
v -0.031249999999999986 0.3125 -0.0625
v 0.031250000000000014 0 -0.06249999999999999
v -0.031249999999999986 0 -0.0625
v -0.031249999999999993 0.25 0.1875
v 0.03125000000000001 0.25 0.1875
v -0.031249999999999993 0 0.1875
v 0.03125000000000001 0 0.1875
v -0.03125000000000002 0.3125 0.06250000000000001
v 0.03124999999999998 0.3125 0.06249999999999999
v -0.03125000000000002 0 0.06250000000000001
v 0.03124999999999998 0 0.06249999999999999
v 0.11990624999999996 1.0625 -0.12031249999999999
v -0.12615625 1.0625 -0.12031249999999999
v 0.11990624999999996 1.0625 0.12031249999999999
v -0.12615625 1.0625 0.12031249999999999
v 0.11990624999999996 0.625 -0.12031249999999999
v -0.12615625 0.625 -0.12031249999999999
v 0.11990624999999996 0.625 0.12031249999999999
v -0.12615625 0.625 0.12031249999999999
vt 0.375 0.5
vt 0.375 0.75
vt 0 0.75
vt 0 0.5
vt 0.375 0.5
vt 0.375 0.75
vt 0 0.75
vt 0 0.5
vt 0.375 0.5
vt 0.375 0.75
vt 0 0.75
vt 0 0.5
vt 0.375 0.5
vt 0.375 0.75
vt 0 0.75
vt 0 0.5
vt 0.375 0.75
vt 0.3125 0.9375
vt 0.0625 0.9375
vt 0 0.75
vt 0.375 0.75
vt 0.3125 0.9375
vt 0.0625 0.9375
vt 0 0.75
vt 0.375 0.75
vt 0.3125 0.9375
vt 0.0625 0.9375
vt 0 0.75
vt 0.375 0.75
vt 0.3125 0.9375
vt 0.0625 0.9375
vt 0 0.75
vt 0.25 0.1875
vt 0.375 0.5
vt 0 0.5
vt 0.125 0.1875
vt 0.25 0.1875
vt 0.375 0.5
vt 0 0.5
vt 0.125 0.1875
vt 0.25 0.1875
vt 0.375 0.5
vt 0 0.5
vt 0.125 0.1875
vt 0.875 0
vt 0.875 0.3125
vt 0.75 0.3125
vt 0.75 0
vt 0.875 0
vt 0.875 0.3125
vt 0.75 0.3125
vt 0.75 0
vt 0.875 0
vt 0.875 0.3125
vt 0.75 0.3125
vt 0.75 0
vt 0.875 0
vt 0.875 0.3125
vt 0.75 0.3125
vt 0.75 0
vt 1 0
vt 1 0.25
vt 0.9375 0.25
vt 0.9375 0
vt 0.6875 0.375
vt 0.6875 0.6875
vt 0.75 0.6875
vt 0.75 0.375
vt 0.9375 0.11024374999999997
vt 1 0.11024374999999997
vt 1 0.25
vt 0.9375 0.25
vt 1 0.1875
vt 1 0.25
vt 0.875 0.25
vt 0.875 0.1875
vt 1 0
vt 1 0.25
vt 0.875 0.3125
vt 0.875 0
vt 0.875 0.3125
vt 0.875 0
vt 1 0.0625
vt 1 0.3125
vt 1 0
vt 1 0.25
vt 0.9375 0.25
vt 0.9375 0
vt 0.6875 0.4375
vt 0.6875 0.75
vt 0.75 0.75
vt 0.75 0.4375
vt 0.9375 0.11024374999999997
vt 1 0.11024374999999997
vt 1 0.25
vt 0.9375 0.25
vt 1 0.1875
vt 1 0.25
vt 0.875 0.25
vt 0.875 0.1875
vt 1 0
vt 1 0.25
vt 0.875 0.3125
vt 0.875 0
vt 0.875 0.3125
vt 0.875 0
vt 1 0.0625
vt 1 0.3125
vt 1 0
vt 1 0.25
vt 0.9375 0.25
vt 0.9375 0
vt 0.6875 0.5
vt 0.6875 0.8125
vt 0.75 0.8125
vt 0.75 0.5
vt 0.9375 0.11024374999999997
vt 1 0.11024374999999997
vt 1 0.25
vt 0.9375 0.25
vt 1 0.0625
vt 1 0.125
vt 0.875 0.125
vt 0.875 0.0625
vt 1 0
vt 1 0.25
vt 0.875 0.3125
vt 0.875 0
vt 0.875 0.3125
vt 0.875 0
vt 1 0.0625
vt 1 0.3125
vt 1 0
vt 1 0.25
vt 0.9375 0.25
vt 0.9375 0
vt 0.9375 0.11024374999999997
vt 1 0.11024374999999997
vt 1 0.25
vt 0.9375 0.25
vt 1 0
vt 1 0.25
vt 0.875 0.3125
vt 0.875 0
vt 0.875 0.3125
vt 0.875 0
vt 1 0.0625
vt 1 0.3125
vt 0.875 0.3125
vt 0.875 0.4375
vt 0.75 0.4375
vt 0.75 0.3125
vt 0.6875 0.3125
vt 0.6875 0.0625
vt 0.75 0
vt 0.75 0.375
vt 0.4375 0.3125
vt 0.6875 0.3125
vt 0.75 0.375
vt 0.375 0.375
vt 0.4375 0.0625
vt 0.4375 0.3125
vt 0.375 0.375
vt 0.375 0
vt 0.6875 0.0625
vt 0.4375 0.0625
vt 0.375 0
vt 0.75 0
vt 0.0625 0.5
vt 0.3125 0.5
vt 0.3125 0.9375
vt 0.0625 0.9375
vt 0.0625 0.5
vt 0.3125 0.5
vt 0.3125 0.9375
vt 0.0625 0.9375
vt 0.0625 0.5
vt 0.3125 0.5
vt 0.3125 0.9375
vt 0.0625 0.9375
vt 0.0625 0.5
vt 0.3125 0.5
vt 0.3125 0.9375
vt 0.0625 0.9375
vt 1 0.0625
vt 1 0.125
vt 0.875 0.125
vt 0.875 0.0625
vt 0.75 0.375
vt 0.75 0
vt 0.375 0
vt 0.375 0.375
vt 0.25 0.1875
vt 0.375 0.5
vt 0 0.5
vt 0.125 0.1875
vn 1 0 0
vn -1 0 0
vn 0 0 1
vn 0 0 -1
vn 0.9863939238321437 0.16439898730535746 0
vn -0.9912279006826347 0.1321637200910179 0
vn 0 0.16439898730535749 0.9863939238321437
vn 0 0.16439898730535746 -0.9863939238321439
vn 0.9284766908852594 -0.3713906763541038 0
vn -0.9284766908852594 -0.3713906763541038 0
vn 0 -0.3713906763541038 0.9284766908852594
vn 1 0 0
vn -1 0 0
vn 0 0 1
vn 0 0 -1
vn -1 -1.1102230246251565e-16 0
vn 1 1.3322676295501878e-16 0
vn -0.44721359549995865 0.8944271909999156 0
vn 1.2246467991473532e-16 -1 1.224646799147353e-16
vn 1.3877787807814478e-17 -1.387778780781446e-16 -1
vn -6.106226635438374e-17 1.221245327087672e-16 1
vn 1 0 0
vn -1 0 0
vn 0.44721359549995804 0.8944271909999161 0
vn 0 -1 1.1655923932755173e-19
vn -1.0408340855860843e-16 -4.163336342344337e-17 1
vn 5.551115123125783e-17 0 -1
vn 0 0 -1
vn -1.1102230246251565e-16 0 1
vn 0 0.8944271909999161 -0.44721359549995804
vn 0 -1 0
vn 1 0 2.220446049250313e-16
vn -1 0 -2.220446049250313e-16
vn 0 0 1
vn 0 0.8944271909999161 0.44721359549995804
vn -1 0 2.2204460492503136e-16
vn 1 0 -2.220446049250313e-16
vn 0 -1 0
vn 0 1 0
vn 0 1 0
vn 0 1 0
vn 0 1 0
vn -1 0 0
vn 0 0 1
vn 1 0 0
vn 0 0 -1
vn 0 -1 0
vn 0 1 0
vn 0 -0.3713906763541038 -0.9284766908852594
usemtl 6bcal_mortar
f 4/1/1 2/2/1 1/3/1 3/4/1
f 7/5/2 5/6/2 6/7/2 8/8/2
f 3/9/3 1/10/3 5/11/3 7/12/3
f 8/13/4 6/14/4 2/15/4 4/16/4
f 2/17/5 10/18/5 9/19/5 1/20/5
f 5/21/6 11/22/6 12/23/6 6/24/6
f 1/25/7 9/26/7 11/27/7 5/28/7
f 6/29/8 12/30/8 10/31/8 2/32/8
f 14/33/9 4/34/9 3/35/9 13/36/9
f 15/37/10 7/38/10 8/39/10 16/40/10
f 13/41/11 3/42/11 7/43/11 15/44/11
f 18/45/12 14/46/12 13/47/12 17/48/12
f 19/49/13 15/50/13 16/51/13 20/52/13
f 17/53/14 13/54/14 15/55/14 19/56/14
f 20/57/15 16/58/15 14/59/15 18/60/15
f 24/61/16 22/62/16 21/63/16 23/64/16
f 27/65/17 25/66/17 26/67/17 28/68/17
f 21/69/18 22/70/18 26/71/18 25/72/18
f 24/73/19 23/74/19 27/75/19 28/76/19
f 23/77/20 21/78/20 25/79/20 27/80/20
f 28/81/21 26/82/21 22/83/21 24/84/21
f 32/85/22 30/86/22 29/87/22 31/88/22
f 35/89/23 33/90/23 34/91/23 36/92/23
f 29/93/24 30/94/24 34/95/24 33/96/24
f 32/97/25 31/98/25 35/99/25 36/100/25
f 31/101/26 29/102/26 33/103/26 35/104/26
f 36/105/27 34/106/27 30/107/27 32/108/27
f 40/109/28 38/110/28 37/111/28 39/112/28
f 43/113/29 41/114/29 42/115/29 44/116/29
f 37/117/30 38/118/30 42/119/30 41/120/30
f 40/121/31 39/122/31 43/123/31 44/124/31
f 39/125/32 37/126/32 41/127/32 43/128/32
f 44/129/33 42/130/33 38/131/33 40/132/33
f 48/133/34 46/134/34 45/135/34 47/136/34
f 45/137/35 46/138/35 50/139/35 49/140/35
f 47/141/36 45/142/36 49/143/36 51/144/36
f 52/145/37 50/146/37 46/147/37 48/148/37
f 18/149/38 17/150/38 19/151/38 20/152/38
f 53/153/39 55/154/39 9/155/39 10/156/39
f 54/157/40 53/158/40 10/159/40 12/160/40
f 56/161/41 54/162/41 12/163/41 11/164/41
f 55/165/42 56/166/42 11/167/42 9/168/42
f 57/169/43 59/170/43 55/171/43 53/172/43
f 58/173/44 57/174/44 53/175/44 54/176/44
f 60/177/45 58/178/45 54/179/45 56/180/45
f 59/181/46 60/182/46 56/183/46 55/184/46
f 48/185/47 47/186/47 51/187/47 52/188/47
f 3/189/48 4/190/48 8/191/48 7/192/48
f 16/193/49 8/194/49 4/195/49 14/196/49
o casing_simple
v 0.1875 0.875 0.1875
v 0.1875 0.875 -0.1875
v 0.1875 0.625 0.1875
v 0.1875 0.625 -0.1875
v -0.1875 0.875 0.1875
v -0.1875 0.875 -0.1875
v -0.1875 0.625 0.1875
v -0.1875 0.625 -0.1875
v 0.15624999999999997 1.0625 0.15624999999999997
v 0.15624999999999997 1.0625 -0.15624999999999997
v -0.1625 1.0625 0.15624999999999997
v -0.1625 1.0625 -0.15624999999999997
v 0.0625 0.3125 0.0625
v 0.0625 0.3125 -0.0625
v -0.0625 0.3125 0.0625
v -0.0625 0.3125 -0.0625
v 0.0625 0 0.0625
v 0.0625 0 -0.0625
v -0.0625 0 0.0625
v -0.0625 0 -0.0625
v -0.18750000000000008 0.24999999999999997 -0.03125000000000017
v -0.18750000000000008 0.24999999999999997 0.031249999999999827
v -0.18750000000000006 -2.6789148731348375e-17 -0.03125000000000013
v -0.18750000000000006 -1.913510623667742e-17 0.031249999999999865
v -0.06250000000000028 0.3125 -0.031250000000000173
v -0.06250000000000028 0.3125 0.031249999999999827
v -0.06250000000000024 -1.1481063742006482e-17 -0.03125000000000013
v -0.06250000000000024 -3.827021247335525e-18 0.031249999999999865
v 0.18749999999999983 0.25 0.031249999999999844
v 0.18749999999999983 0.25 -0.03125000000000016
v 0.18749999999999983 3.642476228985972e-21 0.031249999999999833
v 0.18749999999999983 -3.642476228986011e-21 -0.03125000000000017
v 0.06249999999999983 0.3125 0.031249999999999833
v 0.06249999999999983 0.3125 -0.03125000000000017
v 0.06249999999999983 3.642476228985972e-21 0.031249999999999833
v 0.06249999999999983 -3.642476228986011e-21 -0.03125000000000017
v 0.03125000000000004 0.25 -0.1875
v -0.03124999999999996 0.25 -0.1875
v 0.03125000000000004 0 -0.1875
v -0.03124999999999996 0 -0.1875
v 0.031250000000000014 0.3125 -0.06249999999999999
v -0.031249999999999986 0.3125 -0.0625
v 0.031250000000000014 0 -0.06249999999999999
v -0.031249999999999986 0 -0.0625
v -0.031249999999999993 0.25 0.1875
v 0.03125000000000001 0.25 0.1875
v -0.031249999999999993 0 0.1875
v 0.03125000000000001 0 0.1875
v -0.03125000000000002 0.3125 0.06250000000000001
v 0.03124999999999998 0.3125 0.06249999999999999
v -0.03125000000000002 0 0.06250000000000001
v 0.03124999999999998 0 0.06249999999999999
vt 0.375 0.5
vt 0.375 0.75
vt 0 0.75
vt 0 0.5
vt 0.375 0.5
vt 0.375 0.75
vt 0 0.75
vt 0 0.5
vt 0.375 0.5
vt 0.375 0.75
vt 0 0.75
vt 0 0.5
vt 0.375 0.5
vt 0.375 0.75
vt 0 0.75
vt 0 0.5
vt 0.375 0.75
vt 0.3125 0.9375
vt 0.0625 0.9375
vt 0 0.75
vt 0.375 0.75
vt 0.3125 0.9375
vt 0.0625 0.9375
vt 0 0.75
vt 0.375 0.75
vt 0.3125 0.9375
vt 0.0625 0.9375
vt 0 0.75
vt 0.375 0.75
vt 0.3125 0.9375
vt 0.0625 0.9375
vt 0 0.75
vt 0.25 0.1875
vt 0.375 0.5
vt 0 0.5
vt 0.125 0.1875
vt 0.25 0.1875
vt 0.375 0.5
vt 0 0.5
vt 0.125 0.1875
vt 0.25 0.1875
vt 0.375 0.5
vt 0 0.5
vt 0.125 0.1875
vt 0.25 0.1875
vt 0.375 0.5
vt 0 0.5
vt 0.125 0.1875
vt 0.875 0
vt 0.875 0.3125
vt 0.75 0.3125
vt 0.75 0
vt 0.875 0
vt 0.875 0.3125
vt 0.75 0.3125
vt 0.75 0
vt 0.875 0
vt 0.875 0.3125
vt 0.75 0.3125
vt 0.75 0
vt 0.875 0
vt 0.875 0.3125
vt 0.75 0.3125
vt 0.75 0
vt 1 0
vt 1 0.25
vt 0.9375 0.25
vt 0.9375 0
vt 0.6875 0.375
vt 0.6875 0.6875
vt 0.75 0.6875
vt 0.75 0.375
vt 0.9375 0.11024374999999997
vt 1 0.11024374999999997
vt 1 0.25
vt 0.9375 0.25
vt 1 0.1875
vt 1 0.25
vt 0.875 0.25
vt 0.875 0.1875
vt 1 0
vt 1 0.25
vt 0.875 0.3125
vt 0.875 0
vt 0.875 0.3125
vt 0.875 0
vt 1 0.0625
vt 1 0.3125
vt 1 0
vt 1 0.25
vt 0.9375 0.25
vt 0.9375 0
vt 0.6875 0.375
vt 0.6875 0.6875
vt 0.75 0.6875
vt 0.75 0.375
vt 0.9375 0.11024374999999997
vt 1 0.11024374999999997
vt 1 0.25
vt 0.9375 0.25
vt 1 0.1875
vt 1 0.25
vt 0.875 0.25
vt 0.875 0.1875
vt 1 0
vt 1 0.25
vt 0.875 0.3125
vt 0.875 0
vt 0.875 0.3125
vt 0.875 0
vt 1 0.0625
vt 1 0.3125
vt 1 0
vt 1 0.25
vt 0.9375 0.25
vt 0.9375 0
vt 0.6875 0.375
vt 0.6875 0.6875
vt 0.75 0.6875
vt 0.75 0.375
vt 0.9375 0.11024374999999997
vt 1 0.11024374999999997
vt 1 0.25
vt 0.9375 0.25
vt 1 0.0625
vt 1 0.125
vt 0.875 0.125
vt 0.875 0.0625
vt 1 0
vt 1 0.25
vt 0.875 0.3125
vt 0.875 0
vt 0.875 0.3125
vt 0.875 0
vt 1 0.0625
vt 1 0.3125
vt 1 0
vt 1 0.25
vt 0.9375 0.25
vt 0.9375 0
vt 0.6875 0.375
vt 0.6875 0.6875
vt 0.75 0.6875
vt 0.75 0.375
vt 0.9375 0.11024374999999997
vt 1 0.11024374999999997
vt 1 0.25
vt 0.9375 0.25
vt 1 0.0625
vt 1 0.125
vt 0.875 0.125
vt 0.875 0.0625
vt 1 0
vt 1 0.25
vt 0.875 0.3125
vt 0.875 0
vt 0.875 0.3125
vt 0.875 0
vt 1 0.0625
vt 1 0.3125
vt 0.875 0.3125
vt 0.875 0.4375
vt 0.75 0.4375
vt 0.75 0.3125
vt 0.721875 0.028125000000000067
vt 0.721875 0.34687500000000004
vt 0.40937500000000004 0.34687500000000004
vt 0.40937500000000004 0.028125000000000067
vn 1 0 0
vn -1 0 0
vn 0 0 1
vn 0 0 -1
vn 0.9863939238321437 0.16439898730535746 0
vn -0.9912279006826347 0.1321637200910179 0
vn 0 0.16439898730535749 0.9863939238321437
vn 0 0.16439898730535746 -0.9863939238321439
vn 0.9284766908852594 -0.3713906763541038 0
vn -0.9284766908852594 -0.3713906763541038 0
vn 0 -0.3713906763541038 0.9284766908852594
vn 0 -0.3713906763541038 -0.9284766908852594
vn 1 0 0
vn -1 0 0
vn 0 0 1
vn 0 0 -1
vn -1 -1.1102230246251565e-16 0
vn 1 1.3322676295501878e-16 0
vn -0.44721359549995865 0.8944271909999156 0
vn 1.2246467991473532e-16 -1 1.224646799147353e-16
vn 1.3877787807814478e-17 -1.387778780781446e-16 -1
vn -6.106226635438374e-17 1.221245327087672e-16 1
vn 1 0 0
vn -1 0 0
vn 0.44721359549995804 0.8944271909999161 0
vn 0 -1 1.1655923932755173e-19
vn -1.0408340855860843e-16 -4.163336342344337e-17 1
vn 5.551115123125783e-17 0 -1
vn 0 0 -1
vn -1.1102230246251565e-16 0 1
vn 0 0.8944271909999161 -0.44721359549995804
vn 0 -1 0
vn 1 0 2.220446049250313e-16
vn -1 0 -2.220446049250313e-16
vn 0 0 1
vn -3.3306690738754696e-16 0 -1
vn 0 0.8944271909999161 0.44721359549995804
vn 0 -1 0
vn -1 0 2.2204460492503136e-16
vn 1 0 -2.220446049250313e-16
vn 0 -1 0
vn 0 1 0
usemtl 6bcal_mortar
f 64/197/50 62/198/50 61/199/50 63/200/50
f 67/201/51 65/202/51 66/203/51 68/204/51
f 63/205/52 61/206/52 65/207/52 67/208/52
f 68/209/53 66/210/53 62/211/53 64/212/53
f 62/213/54 70/214/54 69/215/54 61/216/54
f 65/217/55 71/218/55 72/219/55 66/220/55
f 61/221/56 69/222/56 71/223/56 65/224/56
f 66/225/57 72/226/57 70/227/57 62/228/57
f 74/229/58 64/230/58 63/231/58 73/232/58
f 75/233/59 67/234/59 68/235/59 76/236/59
f 73/237/60 63/238/60 67/239/60 75/240/60
f 76/241/61 68/242/61 64/243/61 74/244/61
f 78/245/62 74/246/62 73/247/62 77/248/62
f 79/249/63 75/250/63 76/251/63 80/252/63
f 77/253/64 73/254/64 75/255/64 79/256/64
f 80/257/65 76/258/65 74/259/65 78/260/65
f 84/261/66 82/262/66 81/263/66 83/264/66
f 87/265/67 85/266/67 86/267/67 88/268/67
f 81/269/68 82/270/68 86/271/68 85/272/68
f 84/273/69 83/274/69 87/275/69 88/276/69
f 83/277/70 81/278/70 85/279/70 87/280/70
f 88/281/71 86/282/71 82/283/71 84/284/71
f 92/285/72 90/286/72 89/287/72 91/288/72
f 95/289/73 93/290/73 94/291/73 96/292/73
f 89/293/74 90/294/74 94/295/74 93/296/74
f 92/297/75 91/298/75 95/299/75 96/300/75
f 91/301/76 89/302/76 93/303/76 95/304/76
f 96/305/77 94/306/77 90/307/77 92/308/77
f 100/309/78 98/310/78 97/311/78 99/312/78
f 103/313/79 101/314/79 102/315/79 104/316/79
f 97/317/80 98/318/80 102/319/80 101/320/80
f 100/321/81 99/322/81 103/323/81 104/324/81
f 99/325/82 97/326/82 101/327/82 103/328/82
f 104/329/83 102/330/83 98/331/83 100/332/83
f 108/333/84 106/334/84 105/335/84 107/336/84
f 111/337/85 109/338/85 110/339/85 112/340/85
f 105/341/86 106/342/86 110/343/86 109/344/86
f 108/345/87 107/346/87 111/347/87 112/348/87
f 107/349/88 105/350/88 109/351/88 111/352/88
f 112/353/89 110/354/89 106/355/89 108/356/89
f 78/357/90 77/358/90 79/359/90 80/360/90
f 70/361/91 72/362/91 71/363/91 69/364/91
o paint
v -0.18874999999999997 0.875 0.19140624999999997
v -0.18874999999999992 0.875 -0.19140624999999997
v -0.18874999999999997 0.6875 0.19140624999999997
v -0.18874999999999992 0.6875 -0.19140624999999997
v 0.1940625 0.875 0.19140625000000003
v 0.1940625 0.6875 0.19140625000000003
v 0.19406250000000003 0.875 -0.19140624999999992
v 0.19406250000000003 0.6875 -0.19140624999999992
vt 0 0
vt 0 0.1875
vt 0.375 0.1875
vt 0.375 0
vt 0 0
vt 0 0.1875
vt 0.375 0.1875
vt 0.375 0
vt 0 0
vt 0 0.1875
vt 0.375 0.1875
vt 0.375 0
vt 0 0
vt 0 0.1875
vt 0.375 0.1875
vt 0.375 0
vt 0 0
vt 0 0.1875
vt 0.375 0.1875
vt 0.375 0
vt 0 0
vt 0 0.1875
vt 0.375 0.1875
vt 0.375 0
vt 0 0
vt 0 0.1875
vt 0.375 0.1875
vt 0.375 0
vt 0 0
vt 0 0.1875
vt 0.375 0.1875
vt 0.375 0
vn 1 0 1.4500872158369395e-16
vn -1 0 -1.4500872158369395e-16
vn 1.450087215836939e-16 0 -1
vn -1.450087215836939e-16 0 1
vn 1.4500872158369395e-16 0 -1
vn -1.4500872158369395e-16 0 1
vn 1 0 7.250436079184698e-17
vn -1 0 -7.250436079184698e-17
usemtl 6bcal_mortar
f 116/365/92 114/366/92 113/367/92 115/368/92
f 115/369/93 113/370/93 114/371/93 116/372/93
f 115/373/94 113/374/94 117/375/94 118/376/94
f 118/377/95 117/378/95 113/379/95 115/380/95
f 116/381/96 114/382/96 119/383/96 120/384/96
f 120/385/97 119/386/97 114/387/97 116/388/97
f 120/389/98 119/390/98 117/391/98 118/392/98
f 118/393/99 117/394/99 119/395/99 120/396/99
o core_piercing
v 0.012499999999999999 1.3125 0.0125
v 0.012499999999999999 1.3125 -0.0125
v 0.125 1.0628124999999997 0.125
v 0.125 1.0628124999999997 -0.125
v -0.012499999999999999 1.3125 0.0125
v -0.012499999999999999 1.3125 -0.0125
v -0.125 1.0628124999999997 0.125
v -0.125 1.0628124999999997 -0.125
v 0.125 0.5631249999999999 0.125
v 0.125 0.5631249999999999 -0.125
v -0.125 0.5631249999999999 0.125
v -0.125 0.5631249999999999 -0.125
vt 1 0.6875
vt 0.8875 1
vt 0.8625 1
vt 0.75 0.6875
vt 1 0.6875
vt 0.8875 1
vt 0.8625 1
vt 0.75 0.6875
vt 0.90625 0.9375
vt 0.90625 1
vt 0.84375 1
vt 0.84375 0.9375
vt 1 0.6875
vt 0.8875 1
vt 0.8625 1
vt 0.75 0.6875
vt 1 0.6875
vt 0.8875 1
vt 0.8625 1
vt 0.75 0.6875
vt 0.625 0.375
vt 0.625 0.875
vt 0.375 0.875
vt 0.375 0.375
vt 0.625 0.375
vt 0.625 0.875
vt 0.375 0.875
vt 0.375 0.375
vt 1 0.4375
vt 1 0.6875
vt 0.75 0.6875
vt 0.75 0.4375
vt 0.625 0.375
vt 0.625 0.875
vt 0.375 0.875
vt 0.375 0.375
vt 0.625 0.375
vt 0.625 0.875
vt 0.375 0.875
vt 0.375 0.375
vn 0.9117292469402728 0.41079165068648055 0
vn -0.9117292469402728 0.41079165068648055 0
vn 0 1 0
vn 0 0.41079165068648055 0.9117292469402728
vn 0 0.41079165068648055 -0.9117292469402728
vn 1 0 0
vn -1 0 0
vn 0 -1 0
vn 0 0 1
vn 0 0 -1
usemtl 6bcal_mortar
f 124/397/100 122/398/100 121/399/100 123/400/100
f 127/401/101 125/402/101 126/403/101 128/404/101
f 121/405/102 122/406/102 126/407/102 125/408/102
f 123/409/103 121/410/103 125/411/103 127/412/103
f 128/413/104 126/414/104 122/415/104 124/416/104
f 130/417/105 124/418/105 123/419/105 129/420/105
f 131/421/106 127/422/106 128/423/106 132/424/106
f 130/425/107 129/426/107 131/427/107 132/428/107
f 129/429/108 123/430/108 127/431/108 131/432/108
f 132/433/109 128/434/109 124/435/109 130/436/109
o core_canister
v 0.075 1.25 0.075
v 0.075 1.25 -0.075
v 0.125 1.0628124999999997 0.125
v 0.125 1.0628124999999997 -0.125
v -0.075 1.25 0.075
v -0.075 1.25 -0.075
v -0.125 1.0628124999999997 0.125
v -0.125 1.0628124999999997 -0.125
v 0.125 0.5631249999999999 0.125
v 0.125 0.5631249999999999 -0.125
v -0.125 0.5631249999999999 0.125
v -0.125 0.5631249999999999 -0.125
vt 1 0.6875
vt 0.9375 0.875
vt 0.8125 0.875
vt 0.75 0.6875
vt 1 0.6875
vt 0.9375 0.875
vt 0.8125 0.875
vt 0.75 0.6875
vt 0.9375 0.5
vt 0.9375 0.625
vt 0.8125 0.625
vt 0.8125 0.5
vt 1 0.6875
vt 0.9375 0.875
vt 0.8125 0.875
vt 0.75 0.6875
vt 1 0.6875
vt 0.9375 0.875
vt 0.8125 0.875
vt 0.75 0.6875
vt 0.625 0.375
vt 0.625 0.875
vt 0.375 0.875
vt 0.375 0.375
vt 0.625 0.375
vt 0.625 0.875
vt 0.375 0.875
vt 0.375 0.375
vt 1 0.4375
vt 1 0.6875
vt 0.75 0.6875
vt 0.75 0.4375
vt 0.625 0.375
vt 0.625 0.875
vt 0.375 0.875
vt 0.375 0.375
vt 0.625 0.375
vt 0.625 0.875
vt 0.375 0.875
vt 0.375 0.375
vn 0.9661277755890385 0.25806418045783963 0
vn -0.9661277755890385 0.25806418045783963 0
vn 0 1 0
vn 0 0.25806418045783963 0.9661277755890385
vn 0 0.25806418045783963 -0.9661277755890385
vn 1 0 0
vn -1 0 0
vn 0 -1 0
vn 0 0 1
vn 0 0 -1
usemtl 6bcal_mortar
f 136/437/110 134/438/110 133/439/110 135/440/110
f 139/441/111 137/442/111 138/443/111 140/444/111
f 133/445/112 134/446/112 138/447/112 137/448/112
f 135/449/113 133/450/113 137/451/113 139/452/113
f 140/453/114 138/454/114 134/455/114 136/456/114
f 142/457/115 136/458/115 135/459/115 141/460/115
f 143/461/116 139/462/116 140/463/116 144/464/116
f 142/465/117 141/466/117 143/467/117 144/468/117
f 141/469/118 135/470/118 139/471/118 143/472/118
f 144/473/119 140/474/119 136/475/119 142/476/119