# Made by Pabilo8 with Blockbench
# Exported with IIToolkit Plugin
mtllib tellermine.mtl


o casing
v 0.375 0.12500000000000006 -0.25
v 0.375 4.163336342344337e-17 -0.25
v 0.375 0.12499999999999994 0.25
v 0.375 -5.551115123125783e-17 0.25
v 0.25 0.12500000000000006 -0.375
v 0.25 8.326672684688674e-17 -0.37499999999999994
v 0.25 0.12499999999999994 0.375
v 0.25 -5.551115123125783e-17 0.375
v -0.25 0.12500000000000006 -0.375
v -0.25 8.326672684688674e-17 -0.37499999999999994
v -0.25 0.12499999999999994 0.375
v -0.25 -5.551115123125783e-17 0.375
v -0.375 0.12500000000000006 -0.25
v -0.375 -1.6653345369377348e-16 -0.25
v -0.375 0.12499999999999994 0.25
v -0.375 -5.551115123125783e-17 0.25
v -0.0625 0.18536599504252949 -0.37672597736070096
v -0.0625 0.1308435859729835 -0.48851348387564525
v -0.0625 0.12919136714883162 -0.3493277806863836
v -0.0625 0.07466895807928564 -0.46111528720132805
v -0.125 0.18643299752126485 -0.37586298868035045
v -0.125 0.15796779836821218 -0.4329006052543989
v -0.125 0.12919136714883162 -0.3493277806863836
v -0.125 0.1017931704745143 -0.4055024085800816
v 0.0625 0.15851576692638947 -0.4317771067094957
v 0.0625 0.13084358597298373 -0.4885134838756453
v 0.0625 0.1023411390326916 -0.40437891003517845
v 0.0625 0.07466895807928586 -0.4611152872013281
v -0.0625 0.15851576692638947 -0.4317771067094957
v -0.0625 0.1023411390326916 -0.40437891003517845
v 0.125 0.18643299752126485 -0.37586298868035045
v 0.125 0.1579677983682124 -0.4329006052543989
v 0.125 0.12919136714883162 -0.3493277806863836
v 0.125 0.1017931704745143 -0.4055024085800816
v 0.0625 0.18536599504252949 -0.3767259773607009
v 0.0625 0.12919136714883162 -0.3493277806863836
v 0.125 0.1875 -0.31249999999999994
v 0.125 0.125 -0.31250000000000006
v 0.125 0.125 -0.3750000000000001
v -0.125 0.1875 -0.31249999999999994
v -0.125 0.125 -0.31250000000000006
v -0.125 0.125 -0.3750000000000001
v 0.125 0.18833386524043894 0.37396591628078185
v 0.125 0.1875 0.3125
v 0.125 0.125 0.375
v 0.125 0.125 0.3125
v -0.125 0.18833386524043894 0.37396591628078185
v -0.125 0.1875 0.3125
v -0.125 0.125 0.375
v -0.125 0.125 0.3125
v 0.125 0.13007281950592064 0.3525838229079914
v 0.125 0.10972480985234823 0.41167873388294873
v 0.125 0.16881972082730545 0.43202674353652104
v 0.0625 0.13007281950592064 0.3525838229079914
v 0.0625 0.0895802804531658 0.47018269451857453
v 0.0625 0.18916773048087787 0.3729318325615637
v 0.0625 0.14867519142812302 0.4905307041721469
v 0.0625 0.11013177036112776 0.41049683320428576
v 0.0625 0.16922668133608498 0.43084484285785807
v -0.0625 0.11013177036112776 0.41049683320428576
v -0.0625 0.0895802804531658 0.47018269451857453
v -0.0625 0.16922668133608498 0.43084484285785807
v -0.0625 0.14867519142812302 0.4905307041721469
v -0.0625 0.13007281950592064 0.3525838229079914
v -0.0625 0.18916773048087787 0.3729318325615637
v -0.125 0.13007281950592064 0.3525838229079914
v -0.125 0.10972480985234823 0.41167873388294873
v -0.125 0.16881972082730545 0.43202674353652104
vt 0.5 1
vt 0.5 0.9375
vt 0.75 0.9375
vt 0.75 1
vt 0.3125 0.875
vt 0.37231875000000003 0.875
vt 0.37231875000000003 0.9375
vt 0.3125 0.9375
vt 0.375 0.875
vt 0.375 0.8125
vt 0.3125 0.8125
vt 0.3125 0.875
vt 0.375 0.375
vt 0.375 0.625
vt 0.3125 0.6875
vt 0.3125 0.3125
vt 0.0625 0.6875
vt 0 0.625
vt 0 0.375
vt 0.0625 0.3125
vt 0.5625 0.9375
vt 0.5625 1
vt 0.3125 1
vt 0.3125 0.9375
vt 0.3125 1
vt 0.3125 0.9375
vt 0.5625 0.9375
vt 0.5625 1
vt 0.0625 0.3125
vt 0.0625 0.6875
vt 0.3125 0.6875
vt 0.3125 0.3125
vt 0.0625 0.3125
vt 0.0625 0.6875
vt 0.3125 0.6875
vt 0.3125 0.3125
vt 0.5 1
vt 0.75 1
vt 0.75 0.9375
vt 0.5 0.9375
vt 0.3125 0.9375
vt 0.25 0.9375
vt 0.25 0.875
vt 0.3125 0.875
vt 0.25 0.8125
vt 0.25 0.875
vt 0.3125 0.875
vt 0.3125 0.8125
vt 0.0625 0.6875
vt 0.0625 0.3125
vt 0 0.375
vt 0 0.625
vt 0.375 0.375
vt 0.3125 0.3125
vt 0.3125 0.6875
vt 0.375 0.625
vt 0.0625 0.25
vt 0.125 0.25
vt 0.125 0.21875
vt 0.0625 0.21875
vt 0.125 0.21875
vt 0.125 0.25
vt 0.09375 0.25
vt 0.09375 0.21875
vt 0.09375 0.21875
vt 0.125 0.21875
vt 0.125 0.28125
vt 0.09375 0.25
vt 0.09375 0.21875
vt 0.09375 0.28125
vt 0.0625 0.28125
vt 0.0625 0.25
vt 0.125 0.28125
vt 0.09375 0.28125
vt 0.09375 0.25
vt 0.125 0.25
vt 0.0625 0.28125
vt 0.0625 0.25
vt 0 0.25
vt 0 0.28125
vt 0.0625 0.25
vt 0.0625 0.28125
vt 0 0.28125
vt 0 0.25
vt 0.0625 0.25
vt 0.0625 0.28125
vt 0 0.28125
vt 0 0.25
vt 0 0.25
vt 0 0.28125
vt 0.0625 0.28125
vt 0.0625 0.25
vt 0.125 0.25
vt 0.09375 0.25
vt 0.09375 0.21875
vt 0.125 0.21875
vt 0.125 0.21875
vt 0.125 0.25
vt 0.0625 0.25
vt 0.0625 0.21875
vt 0.09375 0.21875
vt 0.125 0.21875
vt 0.125 0.25
vt 0.09375 0.28125
vt 0.09375 0.25
vt 0.09375 0.28125
vt 0.0625 0.28125
vt 0.0625 0.21875
vt 0.125 0.28125
vt 0.09375 0.28125
vt 0.09375 0.25
vt 0.125 0.25
vt 0 0.28125
vt 0 0.3125
vt 0.03125 0.3125
vt 0.03125 0.28125
vt 0.09375 0.28125
vt 0.09375 0.3125
vt 0.125 0.3125
vt 0.125 0.28125
vt 0 0.3125
vt 0 0.28125
vt 0.125 0.28125
vt 0.125 0.3125
vt 0.125 0.28125
vt 0.125 0.3125
vt 0 0.3125
vt 0 0.28125
vt 0 0.28125
vt 0 0.3125
vt 0.125 0.3125
vt 0.125 0.28125
vt 0.125 0.28125
vt 0.125 0.3125
vt 0 0.3125
vt 0 0.28125
vt 0 0.28125
vt 0 0.3125
vt 0.03125 0.3125
vt 0.03125 0.28125
vt 0.09375 0.28125
vt 0.09375 0.3125
vt 0.125 0.3125
vt 0.125 0.28125
vt 0 0.3125
vt 0 0.28125
vt 0.125 0.28125
vt 0.125 0.3125
vt 0.125 0.28125
vt 0.125 0.3125
vt 0 0.3125
vt 0 0.28125
vt 0 0.28125
vt 0 0.3125
vt 0.125 0.3125
vt 0.125 0.28125
vt 0.125 0.28125
vt 0.125 0.3125
vt 0 0.3125
vt 0 0.28125
vt 0.125 0.25
vt 0.09375 0.25
vt 0.09375 0.21875
vt 0.125 0.21875
vt 0.0625 0.25
vt 0.0625 0.28125
vt 0.125 0.28125
vt 0.125 0.25
vt 0.09375 0.21875
vt 0.125 0.21875
vt 0.125 0.25
vt 0.09375 0.28125
vt 0.09375 0.25
vt 0.09375 0.28125
vt 0.0625 0.28125
vt 0.0625 0.21875
vt 0.125 0.28125
vt 0.09375 0.28125
vt 0.09375 0.25
vt 0.125 0.25
vt 0.0625 0.28125
vt 0.0625 0.25
vt 0 0.25
vt 0 0.28125
vt 0.0625 0.25
vt 0.0625 0.28125
vt 0 0.28125
vt 0 0.25
vt 0.0625 0.25
vt 0.0625 0.28125
vt 0 0.28125
vt 0 0.25
vt 0 0.25
vt 0 0.28125
vt 0.0625 0.28125
vt 0.0625 0.25
vt 0.125 0.28125
vt 0.0625 0.28125
vt 0.0625 0.25
vt 0.125 0.25
vt 0.125 0.21875
vt 0.125 0.25
vt 0.09375 0.25
vt 0.09375 0.21875
vt 0.09375 0.21875
vt 0.125 0.21875
vt 0.125 0.28125
vt 0.09375 0.25
vt 0.09375 0.21875
vt 0.09375 0.28125
vt 0.0625 0.28125
vt 0.0625 0.25
vt 0.09375 0.25
vt 0.0625 0.25
vt 0.0625 0.21875
vt 0.09375 0.21875
vn 1 0 0
vn 0.7071067811865476 0 -0.7071067811865476
vn 0.7071067811865476 0 0.7071067811865476
vn -2.220446049250313e-16 1 2.220446049250313e-16
vn -1.3877787807814467e-16 -1 -1.942890293094024e-16
vn 0 -4.440892098500627e-16 -1
vn 0 0 1
vn 0 1 1.4802973661668753e-16
vn 0 -1 -1.8503717077085943e-16
vn -1 0 0
vn -0.7071067811865476 -3.140184917367551e-16 -0.7071067811865476
vn -0.7071067811865476 0 0.7071067811865476
vn 1.4802973661668753e-16 1 1.4802973661668753e-16
vn 1.8133642735544222e-15 -1 -1.8503717077085943e-16
vn 1 0 0
vn -1 0 0
vn 0.009290897302694157 0.8987552558636074 -0.4383522205770749
vn 0 -0.898794048999188 0.43837114125321386
vn -0.7035445766492021 -0.31152895085503773 -0.638729004701254
vn -1.7862498110389336e-15 0.8987940409793267 -0.43837115769636653
vn 0 -0.8987940409793269 0.43837115769636625
vn 0 0.43837114678907674 0.8987940462991674
vn 3.885780586188056e-16 -0.43837114678907607 -0.8987940462991677
vn 1 0 0
vn -1 0 0
vn -0.009109304183705067 0.8947262056719912 -0.4465221578612763
vn 0 -0.8987940462991675 0.43837114678907685
vn 0.7035445766492023 -0.31152895085503757 -0.6387290047012537
vn 1 0 0
vn -1 0 0
vn 0 0.9998582453868614 -0.016837135501823267
vn 0 -1 0
vn 0 -1.7763568394002505e-15 1
vn 0 -0.014046254916890304 -0.999901346495148
vn 1 0 0
vn -1 0 0
vn 0 0.999907990412543 -0.013565054705006708
vn 0 -1 0
vn 0 0.016325324627922428 0.999866733007851
vn 0 0 -1
vn 1 0 0
vn -1 0 0
vn 0 -0.9455185755993164 -0.3255681544571583
vn 0.0073753478834640805 0.9478683204011804 0.3185769160241261
vn 0.7035445909489851 -0.2313653722702642 0.6719338308648162
vn 0 -0.9455185768941569 -0.32556815069666845
vn 0 0.9455185768941569 0.32556815069666817
vn 0 0.32556815445715725 -0.9455185755993166
vn 0 -0.3255681544571581 0.9455185755993164
vn 1 0 0
vn -1 0 0
vn 0 -0.9455185749421369 -0.32556815636574576
vn -0.0072281366735705965 0.9454938748567978 0.325559651444257
vn -0.703544590948985 -0.23136537227026477 0.671933830864816
usemtl tellermine
f 2/1/1 1/2/1 3/3/1 4/4/1
f 5/5/2 1/6/2 2/7/2 6/8/2
f 4/9/3 3/10/3 7/11/3 8/12/3
f 3/13/4 1/14/4 5/15/4 7/16/4
f 6/17/5 2/18/5 4/19/5 8/20/5
f 5/21/6 6/22/6 10/23/6 9/24/6
f 8/25/7 7/26/7 11/27/7 12/28/7
f 7/29/8 5/30/8 9/31/8 11/32/8
f 12/33/9 10/34/9 6/35/9 8/36/9
f 15/37/10 13/38/10 14/39/10 16/40/10
f 13/41/11 9/42/11 10/43/11 14/44/11
f 12/45/12 11/46/12 15/47/12 16/48/12
f 11/49/13 9/50/13 13/51/13 15/52/13
f 14/53/14 10/54/14 12/55/14 16/56/14
f 18/57/15 17/58/15 19/59/15 20/60/15
f 23/61/16 21/62/16 22/63/16 24/64/16
f 21/65/17 17/66/17 18/67/17 22/68/17
f 20/69/18 19/70/18 23/71/18 24/72/18
f 22/73/19 18/74/19 20/75/19 24/76/19
f 25/77/20 26/78/20 18/79/20 29/80/20
f 28/81/21 27/82/21 30/83/21 20/84/21
f 27/85/22 25/86/22 29/87/22 30/88/22
f 20/89/23 18/90/23 26/91/23 28/92/23
f 32/93/24 31/94/24 33/95/24 34/96/24
f 36/97/25 35/98/25 26/99/25 28/100/25
f 35/101/26 31/102/26 32/103/26 26/104/26
f 34/105/27 33/106/27 36/107/27 28/108/27
f 26/109/28 32/110/28 34/111/28 28/112/28
f 39/113/29 31/114/29 37/115/29 38/116/29
f 41/117/30 40/118/30 21/119/30 42/120/30
f 37/121/31 31/122/31 21/123/31 40/124/31
f 39/125/32 38/126/32 41/127/32 42/128/32
f 38/129/33 37/130/33 40/131/33 41/132/33
f 42/133/34 21/134/34 31/135/34 39/136/34
f 46/137/35 44/138/35 43/139/35 45/140/35
f 49/141/36 47/142/36 48/143/36 50/144/36
f 43/145/37 44/146/37 48/147/37 47/148/37
f 46/149/38 45/150/38 49/151/38 50/152/38
f 45/153/39 43/154/39 47/155/39 49/156/39
f 50/157/40 48/158/40 44/159/40 46/160/40
f 52/161/41 51/162/41 43/163/41 53/164/41
f 56/165/42 54/166/42 55/167/42 57/168/42
f 54/169/43 51/170/43 52/171/43 55/172/43
f 53/173/44 43/174/44 56/175/44 57/176/44
f 55/177/45 52/178/45 53/179/45 57/180/45
f 58/181/46 55/182/46 61/183/46 60/184/46
f 57/185/47 59/186/47 62/187/47 63/188/47
f 59/189/48 58/190/48 60/191/48 62/192/48
f 63/193/49 61/194/49 55/195/49 57/196/49
f 61/197/50 64/198/50 65/199/50 63/200/50
f 47/201/51 66/202/51 67/203/51 68/204/51
f 66/205/52 64/206/52 61/207/52 67/208/52
f 63/209/53 65/210/53 47/211/53 68/212/53
f 67/213/54 61/214/54 63/215/54 68/216/54
o core_canister
v 0.25 0.25 0.25
v 0.25 0.25 -0.25
v 0.25 0.125 0.25
v 0.25 0.125 -0.25
v -0.25 0.25 -0.25
v -0.25 0.25 0.25
v -0.25 0.125 -0.25
v -0.25 0.125 0.25
vt 0.25 0.75
vt 0 0.75
vt 0 0.6875
vt 0.25 0.6875
vt 0 0.75
vt 0.25 0.75
vt 0.25 0.6875
vt 0 0.6875
vt 0.25 0.75
vt 0 0.75
vt 0 0.6875
vt 0.25 0.6875
vt 0 0.75
vt 0.25 0.75
vt 0.25 0.6875
vt 0 0.6875
vt 0 0.75
vt 0.25 0.75
vt 0.25 1
vt 0 1
vt 0 1
vt 0.25 1
vt 0.25 0.75
vt 0 0.75
vn 0 0 -1
vn 1 0 0
vn 0 0 1
vn -1 0 0
vn 0 1 0
vn 0 -1 0
usemtl tellermine
f 72/220/55 75/219/55 73/218/55 70/217/55
f 71/224/56 72/223/56 70/222/56 69/221/56
f 76/228/57 71/227/57 69/226/57 74/225/57
f 75/232/58 76/231/58 74/230/58 73/229/58
f 74/236/59 69/235/59 70/234/59 73/233/59
f 75/240/60 72/239/60 71/238/60 76/237/60