# Made by Pabilo8 with Blockbench
# Exported with IIToolkit Plugin on 29/08/2026
mtllib tripmine.mtl

o core_canister
v 0.0625 0.4381 0.0625
v 0.0625 0.4381 -0.125
v 0.0625 0.0006 0.0625
v 0.0625 0.0006 -0.125
v -0.125 0.4381 0.0625
v -0.125 0.4381 -0.125
v -0.125 0.0006 0.0625
v -0.125 0.0006 -0.125
v 0 0.4375 0
v 0 0.4375 -0.0625
v -0.0625 0.4375 0
v -0.0625 0.4375 -0.0625
vt 0.3125 0
vt 0.3125 0.4375
vt 0.5 0.4375
vt 0.5 0
vt 0.4375 0
vt 0.4375 0.4375
vt 0.625 0.4375
vt 0.625 0
vt 0.375 0.625
vt 0.375 0.4375
vt 0.5625 0.4375
vt 0.5625 0.625
vt 0.5625 0.4375
vt 0.5625 0.625
vt 0.375 0.625
vt 0.375 0.4375
vt 0.5 0
vt 0.5 0.4375
vt 0.3125 0.4375
vt 0.3125 0
vt 0.625 0
vt 0.625 0.4375
vt 0.4375 0.4375
vt 0.4375 0
vt 0.3125 0
vt 0.3125 0.0625
vt 0.25 0.0625
vt 0.25 0
vn 1 0 0
vn -1 0 0
vn 0 1 0
vn 0 -1 0
vn 0 0 1
vn 0 0 -1
vn 0 -1 0
usemtl tripmine
f 4/1/1 2/2/1 1/3/1
f 4/1/1 1/3/1 3/4/1
f 7/5/2 5/6/2 6/7/2
f 7/5/2 6/7/2 8/8/2
f 1/9/3 2/10/3 6/11/3
f 1/9/3 6/11/3 5/12/3
f 4/13/4 3/14/4 7/15/4
f 4/13/4 7/15/4 8/16/4
f 3/17/5 1/18/5 5/19/5
f 3/17/5 5/19/5 7/20/5
f 8/21/6 6/22/6 2/23/6
f 8/21/6 2/23/6 4/24/6
f 10/25/7 9/26/7 11/27/7
f 10/25/7 11/27/7 12/28/7
o casing_lid
v -0.0206 0.2108 -0.0476
v -0.042 0.1813 -0.0657
v -0.0486 0.213 -0.0182
v -0.0699 0.1836 -0.0363
v -0.083 0.2967 -0.1135
v -0.1044 0.2673 -0.1316
v -0.111 0.2989 -0.0841
v -0.1324 0.2695 -0.1022
v -0.0404 0.2183 -0.061
v -0.0192 0.2189 -0.0263
v -0.0123 0.1942 -0.0777
v 0.0089 0.1948 -0.043
v 0.0224 0.3188 -0.101
v 0.0436 0.3194 -0.0664
v 0.0504 0.2946 -0.1178
v 0.0716 0.2952 -0.0831
v -0.0074 0.2215 -0.0224
v -0.0478 0.2196 -0.0268
v -0.0094 0.194 0.0074
v -0.0497 0.1921 0.0031
v -0.0208 0.3134 0.0612
v -0.0612 0.3115 0.0569
v -0.0228 0.2859 0.0911
v -0.0631 0.284 0.0867
v 0 0.25 0
v 0 0.25 -0.0625
v 0 0 0
v 0 0 -0.0625
v -0.0625 0.25 0
v -0.0625 0.25 -0.0625
v -0.0625 0 0
v -0.0625 0 -0.0625
vt 0.3062 0.15
vt 0.2813 0.15
vt 0.2813 0.125
vt 0.3062 0.125
vt 0.3062 0.15
vt 0.2813 0.15
vt 0.2813 0.125
vt 0.3062 0.125
vt 0.3062 0.125
vt 0.2813 0.125
vt 0.2813 0
vt 0.3062 0
vt 0.3062 0.125
vt 0.2813 0.125
vt 0.2813 0
vt 0.3062 0
vt 0.3062 0.125
vt 0.2813 0.125
vt 0.2813 0
vt 0.3062 0
vt 0.3062 0.125
vt 0.2813 0.125
vt 0.2813 0
vt 0.3062 0
vt 0.3062 0.25
vt 0.2813 0.25
vt 0.2813 0.225
vt 0.3062 0.225
vt 0.3062 0.25
vt 0.2813 0.25
vt 0.2813 0.225
vt 0.3062 0.225
vt 0.3062 0.25
vt 0.2813 0.25
vt 0.2813 0.125
vt 0.3062 0.125
vt 0.3062 0.25
vt 0.2813 0.25
vt 0.2813 0.125
vt 0.3062 0.125
vt 0.3062 0.25
vt 0.2813 0.25
vt 0.2813 0.125
vt 0.3062 0.125
vt 0.3062 0.25
vt 0.2813 0.25
vt 0.2813 0.125
vt 0.3062 0.125
vt 0.3063 0.25
vt 0.2813 0.25
vt 0.2813 0.225
vt 0.3063 0.225
vt 0.3063 0.25
vt 0.2813 0.25
vt 0.2813 0.225
vt 0.3063 0.225
vt 0.3062 0.225
vt 0.2813 0.225
vt 0.2813 0.1
vt 0.3062 0.1
vt 0.3062 0.225
vt 0.2813 0.225
vt 0.2813 0.1
vt 0.3062 0.1
vt 0.3063 0.225
vt 0.2813 0.225
vt 0.2813 0.1
vt 0.3063 0.1
vt 0.3063 0.225
vt 0.2813 0.225
vt 0.2813 0.1
vt 0.3063 0.1
vt 0.3125 0
vt 0.3125 0.25
vt 0.25 0.25
vt 0.25 0
vt 0.3125 0
vt 0.3125 0.25
vt 0.25 0.25
vt 0.25 0
vt 0.3125 0
vt 0.3125 0.0625
vt 0.25 0.0625
vt 0.25 0
vt 0.3125 0
vt 0.3125 0.25
vt 0.25 0.25
vt 0.25 0
vt 0.3125 0
vt 0.3125 0.25
vt 0.25 0.25
vt 0.25 0
vn 0.5 -0.69 0.53
vn -0.5 0.69 -0.53
vn 0.69 -0.06 -0.72
vn -0.69 0.06 0.72
vn 0.53 0.72 0.45
vn -0.53 -0.72 -0.45
vn -0.5 -0.8 0.32
vn 0.5 0.8 -0.32
vn -0.69 0.6 0.41
vn 0.69 -0.6 -0.41
vn -0.52 -0.01 -0.85
vn 0.52 0.01 0.85
vn 0.11 -0.74 -0.67
vn -0.11 0.74 0.67
vn 0.05 0.68 -0.74
vn -0.05 -0.68 0.74
vn 0.99 0.05 0.11
vn -0.99 -0.05 -0.11
vn 1 0 0
vn -1 0 0
vn 0 1 0
vn 0 0 1
vn 0 0 -1
usemtl tripmine
f 16/29/8 14/30/8 13/31/8
f 16/29/8 13/31/8 15/32/8
f 19/33/9 17/34/9 18/35/9
f 19/33/9 18/35/9 20/36/9
f 13/37/10 14/38/10 18/39/10
f 13/37/10 18/39/10 17/40/10
f 16/41/11 15/42/11 19/43/11
f 16/41/11 19/43/11 20/44/11
f 15/45/12 13/46/12 17/47/12
f 15/45/12 17/47/12 19/48/12
f 20/49/13 18/50/13 14/51/13
f 20/49/13 14/51/13 16/52/13
f 24/53/14 22/54/14 21/55/14
f 24/53/14 21/55/14 23/56/14
f 27/57/15 25/58/15 26/59/15
f 27/57/15 26/59/15 28/60/15
f 21/61/16 22/62/16 26/63/16
f 21/61/16 26/63/16 25/64/16
f 24/65/17 23/66/17 27/67/17
f 24/65/17 27/67/17 28/68/17
f 23/69/18 21/70/18 25/71/18
f 23/69/18 25/71/18 27/72/18
f 28/73/19 26/74/19 22/75/19
f 28/73/19 22/75/19 24/76/19
f 32/77/20 30/78/20 29/79/20
f 32/77/20 29/79/20 31/80/20
f 35/81/21 33/82/21 34/83/21
f 35/81/21 34/83/21 36/84/21
f 29/85/22 30/86/22 34/87/22
f 29/85/22 34/87/22 33/88/22
f 32/89/23 31/90/23 35/91/23
f 32/89/23 35/91/23 36/92/23
f 31/93/24 29/94/24 33/95/24
f 31/93/24 33/95/24 35/96/24
f 36/97/25 34/98/25 30/99/25
f 36/97/25 30/99/25 32/100/25
f 40/101/26 38/102/26 37/103/26
f 40/101/26 37/103/26 39/104/26
f 43/105/27 41/106/27 42/107/27
f 43/105/27 42/107/27 44/108/27
f 37/109/28 38/110/28 42/111/28
f 37/109/28 42/111/28 41/112/28
f 39/113/29 37/114/29 41/115/29
f 39/113/29 41/115/29 43/116/29
f 44/117/30 42/118/30 38/119/30
f 44/117/30 38/119/30 40/120/30
o casing
v 0.0625 0.0625 0.0563
v 0.0625 0.0625 -0.1312
v 0.0625 0 0.0562
v 0.0625 0 -0.1313
v -0.125 0.0625 0.0563
v -0.125 0.0625 -0.1312
v -0.125 0 0.0563
v -0.125 0 -0.1313
v 0.0646 0.375 0.1188
v 0.125 0.375 0.0562
v 0.0646 0 0.1188
v 0.125 0 0.0562
v 0.125 0.375 -0.1313
v 0.0641 0.375 -0.1938
v 0.125 0 -0.1313
v 0.0641 0 -0.1938
v -0.1271 0.375 -0.1938
v -0.1271 0 -0.1938
v -0.1875 0.375 -0.1312
v -0.1875 0 -0.1312
v -0.1281 0.375 0.1187
v -0.1281 0 0.1187
v -0.1875 0.375 0.0563
v -0.1875 0 0.0563
v -0.125 0.375 0.0562
v -0.125 0.375 -0.1313
v 0.0625 0.375 0.0562
v 0.0625 0.375 -0.1313
vt 0.375 0.5
vt 0.375 0.5625
vt 0.5625 0.5625
vt 0.5625 0.5
vt 0 0.5
vt 0 0.5625
vt 0.1875 0.5625
vt 0.1875 0.5
vt 0.25 0.625
vt 0.25 0.4375
vt 0.0625 0.4375
vt 0.0625 0.625
vt 0.5625 0.5
vt 0.5625 0.5625
vt 0.75 0.5625
vt 0.75 0.5
vt 0.1875 0.5
vt 0.1875 0.5625
vt 0.375 0.5625
vt 0.375 0.5
vt 0.0625 0.375
vt 0 0.375
vt 0 0
vt 0.0625 0
vt 0.3125 0.375
vt 0.25 0.375
vt 0.25 0
vt 0.3125 0
vt 0.3125 0
vt 0.3125 0.375
vt 0.25 0.375
vt 0.25 0
vt 0.0625 0
vt 0.0625 0.375
vt 0 0.375
vt 0 0
vt 0.1875 0
vt 0.1875 0.375
vt 0 0.375
vt 0 0
vt 0.25 0
vt 0.25 0.375
vt 0.0625 0.375
vt 0.0625 0
vt 0.25 0
vt 0.25 0.375
vt 0.0625 0.375
vt 0.0625 0
vt 0.1875 0
vt 0.1875 0.375
vt 0 0.375
vt 0 0
vt 0.0625 0.4375
vt 0.25 0.4375
vt 0.25 0.375
vt 0.0625 0.375
vt 0.25 0
vt 0.25 0.375
vt 0.0625 0.375
vt 0.0625 0
vt 0 0
vt 0 0.375
vt 0.1875 0.375
vt 0.1875 0
vt 0.25 0.6875
vt 0.0625 0.6875
vt 0.0625 0.625
vt 0.25 0.625
vt 0.1859 0.3758
vt 0.1891 0.0008
vt 0.0016 0
vt 0 0.3742
vt 0.25 0
vt 0.25 0.375
vt 0.0625 0.375
vt 0.0625 0
vt 0.3109 0.4375
vt 0.3109 0.625
vt 0.2505 0.6875
vt 0.25 0.375
vt 0.2542 0.375
vt 0.063 0.375
vt 0.0625 0.6875
vt 0.2552 0.6875
vt 0.0602 0.375
vt 0.0602 0.6875
vt 0.0006 0.6252
vt 0 0.4377
vt 0.251 0.375
vt 0.25 0.6875
vt 0.3104 0.625
vt 0.3104 0.4375
vt 0 0.6875
vt 0 0.375
vt 0.0605 0.4374
vt 0.0608 0.6249
vn 1 0 0
vn -1 0 0
vn 0 1 0
vn 0 0 1
vn 0 0 -1
vn 0.72 0 0.7
vn 0.72 0 -0.7
vn -0.72 0 -0.7
vn -0.72 0 0.69
vn 1 0 0
vn -1 0 0
vn 0 0 1
vn 0 0 -1
vn 0 1 0
vn 0 0 -1
vn 0 0 1
vn 0 1 0
vn -1 0 0
vn 1 0 0
vn 0 -1 0
vn 0 -1 0
vn 0 -1 0
vn 0 1 0
vn 0 1 0
usemtl tripmine
f 48/121/31 46/122/31 45/123/31
f 48/121/31 45/123/31 47/124/31
f 51/125/32 49/126/32 50/127/32
f 51/125/32 50/127/32 52/128/32
f 45/129/33 46/130/33 50/131/33
f 45/129/33 50/131/33 49/132/33
f 47/133/34 45/134/34 49/135/34
f 47/133/34 49/135/34 51/136/34
f 52/137/35 50/138/35 46/139/35
f 52/137/35 46/139/35 48/140/35
f 54/141/36 53/142/36 55/143/36
f 54/141/36 55/143/36 56/144/36
f 58/145/37 57/146/37 59/147/37
f 58/145/37 59/147/37 60/148/37
f 64/149/38 63/150/38 61/151/38
f 64/149/38 61/151/38 62/152/38
f 66/153/39 65/154/39 67/155/39
f 66/153/39 67/155/39 68/156/39
f 52/157/40 70/158/40 69/159/40
f 52/157/40 69/159/40 51/160/40
f 68/161/41 67/162/41 63/163/41
f 68/161/41 63/163/41 64/164/41
f 55/165/42 53/166/42 65/167/42
f 55/165/42 65/167/42 66/168/42
f 51/169/43 69/170/43 71/171/43
f 51/169/43 71/171/43 47/172/43
f 65/173/44 53/174/44 71/175/44
f 65/173/44 71/175/44 69/176/44
f 62/177/45 61/178/45 58/179/45
f 62/177/45 58/179/45 60/180/45
f 48/181/46 72/182/46 70/183/46
f 48/181/46 70/183/46 52/184/46
f 58/185/47 61/186/47 70/187/47
f 58/185/47 70/187/47 72/188/47
f 47/189/48 71/190/48 72/191/48
f 47/189/48 72/191/48 48/192/48
f 59/193/49 57/194/49 54/195/49
f 59/193/49 54/195/49 56/196/49
f 59/197/50 56/198/50 55/199/50
f 59/197/50 55/199/50 60/200/50
f 62/201/51 60/202/51 55/203/51
f 62/201/51 55/203/51 66/204/51
f 62/205/52 66/206/52 68/207/52
f 62/205/52 68/207/52 64/208/52
f 65/209/53 61/210/53 63/211/53
f 65/209/53 63/211/53 67/212/53
f 58/213/54 53/214/54 54/215/54
f 58/213/54 54/215/54 57/216/54
o casing_simple
v 0.125 0.375 0.0562
v 0.0646 0 0.1188
v 0.125 0 0.0562
v 0.125 0.375 -0.1313
v 0.125 0 -0.1313
v 0.0641 0 -0.1938
v -0.1271 0 -0.1938
v -0.1875 0.375 -0.1312
v -0.1875 0 -0.1312
v -0.1281 0 0.1187
v -0.1875 0.375 0.0563
v -0.1875 0 0.0563
v -0.1271 0.375 -0.1938
v 0.0641 0.375 -0.1938
v 0.0646 0.375 0.1188
v -0.1281 0.375 0.1187
v -0.0206 0.5858 -0.0476
v -0.042 0.5563 -0.0657
v -0.0486 0.588 -0.0182
v -0.0699 0.5586 -0.0363
v -0.083 0.6717 -0.1135
v -0.1044 0.6423 -0.1316
v -0.111 0.6739 -0.0841
v -0.1324 0.6445 -0.1022
v -0.0404 0.5933 -0.061
v -0.0192 0.5939 -0.0263
v -0.0123 0.5692 -0.0777
v 0.0089 0.5698 -0.043
v 0.0224 0.6938 -0.101
v 0.0436 0.6944 -0.0664
v 0.0504 0.6696 -0.1178
v 0.0716 0.6702 -0.0831
v -0.0074 0.5965 -0.0224
v -0.0478 0.5946 -0.0268
v -0.0094 0.569 0.0074
v -0.0497 0.5671 0.0031
v -0.0208 0.6884 0.0612
v -0.0612 0.6865 0.0569
v -0.0228 0.6609 0.0911
v -0.0631 0.659 0.0867
v 0 0.625 0
v 0 0.625 -0.0625
v 0 0.375 0
v 0 0.375 -0.0625
v -0.0625 0.625 0
v -0.0625 0.625 -0.0625
v -0.0625 0.375 0
v -0.0625 0.375 -0.0625
vt 0.0625 0.375
vt 0 0.375
vt 0 0
vt 0.0625 0
vt 0.3125 0.375
vt 0.25 0.375
vt 0.25 0
vt 0.3125 0
vt 0.3125 0
vt 0.3125 0.375
vt 0.25 0.375
vt 0.25 0
vt 0.0625 0
vt 0.0625 0.375
vt 0 0.375
vt 0 0
vt 0.25 0
vt 0.25 0.375
vt 0.0625 0.375
vt 0.0625 0
vt 0.25 0
vt 0.25 0.375
vt 0.0625 0.375
vt 0.0625 0
vt 0.25 0
vt 0.25 0.375
vt 0.0625 0.375
vt 0.0625 0
vt 0.25 0
vt 0.25 0.375
vt 0.0625 0.375
vt 0.0625 0
vt 0.3125 0.4375
vt 0.3125 0.625
vt 0.25 0.6875
vt 0.25 0.375
vt 0.25 0.375
vt 0.0625 0.375
vt 0.0625 0.6875
vt 0.25 0.6875
vt 0.0625 0.375
vt 0.0625 0.6875
vt 0 0.625
vt 0 0.4375
vt 0.25 0.375
vt 0.25 0.6875
vt 0.3125 0.625
vt 0.3125 0.4375
vt 0 0.6875
vt 0 0.375
vt 0.0625 0.4375
vt 0.0625 0.625
vt 0.0625 0.6875
vt 0.0625 0.375
vt 0.25 0.375
vt 0.25 0.6875
vt 0.3062 0.15
vt 0.2813 0.15
vt 0.2813 0.125
vt 0.3062 0.125
vt 0.3062 0.15
vt 0.2813 0.15
vt 0.2813 0.125
vt 0.3062 0.125
vt 0.3062 0.125
vt 0.2813 0.125
vt 0.2813 0
vt 0.3062 0
vt 0.3062 0.125
vt 0.2813 0.125
vt 0.2813 0
vt 0.3062 0
vt 0.3062 0.125
vt 0.2813 0.125
vt 0.2813 0
vt 0.3062 0
vt 0.3062 0.125
vt 0.2813 0.125
vt 0.2813 0
vt 0.3062 0
vt 0.3062 0.25
vt 0.2813 0.25
vt 0.2813 0.225
vt 0.3062 0.225
vt 0.3062 0.25
vt 0.2813 0.25
vt 0.2813 0.225
vt 0.3062 0.225
vt 0.3062 0.25
vt 0.2813 0.25
vt 0.2813 0.125
vt 0.3062 0.125
vt 0.3062 0.25
vt 0.2813 0.25
vt 0.2813 0.125
vt 0.3062 0.125
vt 0.3062 0.25
vt 0.2813 0.25
vt 0.2813 0.125
vt 0.3062 0.125
vt 0.3062 0.25
vt 0.2813 0.25
vt 0.2813 0.125
vt 0.3062 0.125
vt 0.3063 0.25
vt 0.2813 0.25
vt 0.2813 0.225
vt 0.3063 0.225
vt 0.3063 0.25
vt 0.2813 0.25
vt 0.2813 0.225
vt 0.3063 0.225
vt 0.3062 0.225
vt 0.2813 0.225
vt 0.2813 0.1
vt 0.3062 0.1
vt 0.3062 0.225
vt 0.2813 0.225
vt 0.2813 0.1
vt 0.3062 0.1
vt 0.3063 0.225
vt 0.2813 0.225
vt 0.2813 0.1
vt 0.3063 0.1
vt 0.3063 0.225
vt 0.2813 0.225
vt 0.2813 0.1
vt 0.3063 0.1
vt 0.3125 0
vt 0.3125 0.25
vt 0.25 0.25
vt 0.25 0
vt 0.3125 0
vt 0.3125 0.25
vt 0.25 0.25
vt 0.25 0
vt 0.3125 0
vt 0.3125 0.0625
vt 0.25 0.0625
vt 0.25 0
vt 0.3125 0
vt 0.3125 0.25
vt 0.25 0.25
vt 0.25 0
vt 0.3125 0
vt 0.3125 0.25
vt 0.25 0.25
vt 0.25 0
vn 0.72 0 0.7
vn 0.72 0 -0.7
vn -0.72 0 -0.7
vn -0.72 0 0.69
vn -1 0 0
vn 0 0 1
vn 0 0 -1
vn 1 0 0
vn 0 -1 0
vn 0 -1 0
vn 0 -1 0
vn 0 1 0
vn 0 1 0
vn 0 1 0
vn 0.5 -0.69 0.53
vn -0.5 0.69 -0.53
vn 0.69 -0.06 -0.72
vn -0.69 0.06 0.72
vn 0.53 0.72 0.45
vn -0.53 -0.72 -0.45
vn -0.5 -0.8 0.32
vn 0.5 0.8 -0.32
vn -0.69 0.6 0.41
vn 0.69 -0.6 -0.41
vn -0.52 -0.01 -0.85
vn 0.52 0.01 0.85
vn 0.11 -0.74 -0.67
vn -0.11 0.74 0.67
vn 0.05 0.68 -0.74
vn -0.05 -0.68 0.74
vn 0.99 0.05 0.11
vn -0.99 -0.05 -0.11
vn 1 0 0
vn -1 0 0
vn 0 1 0
vn 0 0 1
vn 0 0 -1
usemtl tripmine
f 73/217/55 87/218/55 74/219/55
f 73/217/55 74/219/55 75/220/55
f 86/221/56 76/222/56 77/223/56
f 86/221/56 77/223/56 78/224/56
f 81/225/57 80/226/57 85/227/57
f 81/225/57 85/227/57 79/228/57
f 82/229/58 88/230/58 83/231/58
f 82/229/58 83/231/58 84/232/58
f 84/233/59 83/234/59 80/235/59
f 84/233/59 80/235/59 81/236/59
f 74/237/60 87/238/60 88/239/60
f 74/237/60 88/239/60 82/240/60
f 79/241/61 85/242/61 86/243/61
f 79/241/61 86/243/61 78/244/61
f 77/245/62 76/246/62 73/247/62
f 77/245/62 73/247/62 75/248/62
f 77/249/63 75/250/63 74/251/63
f 77/249/63 74/251/63 78/252/63
f 79/253/64 78/254/64 74/255/64
f 79/253/64 74/255/64 82/256/64
f 79/257/65 82/258/65 84/259/65
f 79/257/65 84/259/65 81/260/65
f 88/261/66 85/262/66 80/263/66
f 88/261/66 80/263/66 83/264/66
f 86/265/67 87/266/67 73/267/67
f 86/265/67 73/267/67 76/268/67
f 87/269/68 86/270/68 85/271/68
f 87/269/68 85/271/68 88/272/68
f 92/273/69 90/274/69 89/275/69
f 92/273/69 89/275/69 91/276/69
f 95/277/70 93/278/70 94/279/70
f 95/277/70 94/279/70 96/280/70
f 89/281/71 90/282/71 94/283/71
f 89/281/71 94/283/71 93/284/71
f 92/285/72 91/286/72 95/287/72
f 92/285/72 95/287/72 96/288/72
f 91/289/73 89/290/73 93/291/73
f 91/289/73 93/291/73 95/292/73
f 96/293/74 94/294/74 90/295/74
f 96/293/74 90/295/74 92/296/74
f 100/297/75 98/298/75 97/299/75
f 100/297/75 97/299/75 99/300/75
f 103/301/76 101/302/76 102/303/76
f 103/301/76 102/303/76 104/304/76
f 97/305/77 98/306/77 102/307/77
f 97/305/77 102/307/77 101/308/77
f 100/309/78 99/310/78 103/311/78
f 100/309/78 103/311/78 104/312/78
f 99/313/79 97/314/79 101/315/79
f 99/313/79 101/315/79 103/316/79
f 104/317/80 102/318/80 98/319/80
f 104/317/80 98/319/80 100/320/80
f 108/321/81 106/322/81 105/323/81
f 108/321/81 105/323/81 107/324/81
f 111/325/82 109/326/82 110/327/82
f 111/325/82 110/327/82 112/328/82
f 105/329/83 106/330/83 110/331/83
f 105/329/83 110/331/83 109/332/83
f 108/333/84 107/334/84 111/335/84
f 108/333/84 111/335/84 112/336/84
f 107/337/85 105/338/85 109/339/85
f 107/337/85 109/339/85 111/340/85
f 112/341/86 110/342/86 106/343/86
f 112/341/86 106/343/86 108/344/86
f 116/345/87 114/346/87 113/347/87
f 116/345/87 113/347/87 115/348/87
f 119/349/88 117/350/88 118/351/88
f 119/349/88 118/351/88 120/352/88
f 113/353/89 114/354/89 118/355/89
f 113/353/89 118/355/89 117/356/89
f 115/357/90 113/358/90 117/359/90
f 115/357/90 117/359/90 119/360/90
f 120/361/91 118/362/91 114/363/91
f 120/361/91 114/363/91 116/364/91