# Made by Pabilo8 with Blockbench
# Exported with IIToolkit Plugin
mtllib tripmine.mtl


o core_canister
v 0.0625 0.4381250000000001 0.06250000000000003
v 0.062499999999999944 0.4381250000000001 -0.125
v 0.06249999999999997 0.0006250000000000977 0.06250000000000006
v 0.062499999999999944 0.0006250000000000977 -0.125
v -0.12500000000000003 0.4381250000000001 0.0625
v -0.12500000000000006 0.4381250000000001 -0.12500000000000003
v -0.12500000000000003 0.0006250000000000977 0.06249999999999997
v -0.12500000000000003 0.0006250000000000977 -0.12499999999999997
v 0 0.4375 5.551115123125783e-17
v 1.3877787807814457e-17 0.43750000000000006 -0.06249999999999997
v -0.062499999999999986 0.43749999999999994 2.7755575615628914e-17
v -0.0625 0.4375 -0.06249999999999996
vt 0.3125 6.661338147750939e-16
vt 0.3125 0.43750000000000067
vt 0.5 0.43750000000000067
vt 0.5 6.661338147750939e-16
vt 0.4375 0
vt 0.4375 0.4375
vt 0.625 0.4375
vt 0.625 0
vt 0.375 0.625
vt 0.375 0.4375
vt 0.5625 0.4375
vt 0.5625 0.625
vt 0.5625 0.4375
vt 0.5625 0.625
vt 0.375 0.625
vt 0.375 0.4375
vt 0.5 6.661338147750939e-16
vt 0.5 0.43750000000000067
vt 0.3125 0.43750000000000067
vt 0.3125 6.661338147750939e-16
vt 0.625 6.661338147750939e-16
vt 0.625 0.43750000000000067
vt 0.4375 0.43750000000000067
vt 0.4375 6.661338147750939e-16
vt 0.3125 0
vt 0.3125 0.0625
vt 0.25 0.0625
vt 0.25 0
vn 1 0 -1.1102230246251565e-16
vn -1 0 1.6653345369377348e-16
vn 5.551115123125783e-17 1 1.1102230246251565e-16
vn 5.551115123125783e-17 -1 -1.1102230246251565e-16
vn -3.3306690738754696e-16 1.6653345369377348e-16 1
vn 1.6653345369377343e-16 -1.1102230246251563e-16 -1
vn 3.885780586188047e-16 -1 -3.885780586188047e-16
usemtl tripmine
f 4/1/1 2/2/1 1/3/1 3/4/1
f 7/5/2 5/6/2 6/7/2 8/8/2
f 1/9/3 2/10/3 6/11/3 5/12/3
f 4/13/4 3/14/4 7/15/4 8/16/4
f 3/17/5 1/18/5 5/19/5 7/20/5
f 8/21/6 6/22/6 2/23/6 4/24/6
f 10/25/7 9/26/7 11/27/7 12/28/7
o casing
v 0.0625 0.0625 0.05625000000000002
v 0.0625 0.0625 -0.13124999999999998
v 0.0625 0 0.05624999999999991
v 0.062499999999999944 0 -0.1312500000000001
v -0.125 0.0625 0.05625000000000002
v -0.125 0.0625 -0.13124999999999998
v -0.125 0 0.05625000000000002
v -0.125 0 -0.13125000000000003
v 0.06458333333333338 0.375 0.11875000000000002
v 0.125 0.375 0.05624999999999991
v 0.06458333333333338 0 0.11875000000000002
v 0.125 0 0.05624999999999991
v 0.125 0.375 -0.13125000000000003
v 0.06406249999999991 0.375 -0.19375000000000003
v 0.125 0 -0.1312500000000001
v 0.06406249999999991 0 -0.19375000000000003
v -0.12708333333333333 0.375 -0.19375000000000003
v -0.12708333333333333 0 -0.19375000000000003
v -0.1875 0.375 -0.13124999999999998
v -0.1875 0 -0.13124999999999998
v -0.12812500000000004 0.375 0.11874999999999991
v -0.12812500000000004 0 0.11874999999999991
v -0.1875 0.375 0.05625000000000002
v -0.1875 0 0.05625000000000002
v -0.125 0.375 0.05624999999999991
v -0.125 0.375 -0.13125000000000003
v 0.0625 0.375 0.05624999999999991
v 0.062499999999999944 0.375 -0.1312500000000001
vt 0.375 0.5
vt 0.375 0.5625
vt 0.5625 0.5625
vt 0.5625 0.5
vt 0 0.5
vt 0 0.5625
vt 0.1875 0.5625
vt 0.1875 0.5
vt 0.25 0.625
vt 0.25 0.4375
vt 0.0625 0.4375
vt 0.0625 0.625
vt 0.5625 0.5
vt 0.5625 0.5625
vt 0.75 0.5625
vt 0.75 0.5
vt 0.1875 0.5
vt 0.1875 0.5625
vt 0.375 0.5625
vt 0.375 0.5
vt 0.0625 0.375
vt 0 0.375
vt 0 0
vt 0.0625 0
vt 0.3125 0.375
vt 0.25 0.375
vt 0.25 0
vt 0.3125 0
vt 0.3125 0
vt 0.3125 0.375
vt 0.25 0.375
vt 0.25 0
vt 0.0625 0
vt 0.0625 0.375
vt 0 0.375
vt 0 0
vt 0.1875 0
vt 0.1875 0.375
vt 0 0.375
vt 0 0
vt 0.25 0
vt 0.25 0.375
vt 0.0625 0.375
vt 0.0625 0
vt 0.25 0
vt 0.25 0.375
vt 0.0625 0.375
vt 0.0625 0
vt 0.1875 0
vt 0.1875 0.375
vt 0 0.375
vt 0 0
vt 0.0625 0.4375
vt 0.25 0.4375
vt 0.25 0.375
vt 0.0625 0.375
vt 0.25 0
vt 0.25 0.375
vt 0.0625 0.375
vt 0.0625 0
vt 0 0
vt 0 0.375
vt 0.1875 0.375
vt 0.1875 0
vt 0.25 0.6875
vt 0.0625 0.6875
vt 0.0625 0.625
vt 0.25 0.625
vt 0.18587460778624565 0.3758039275751581
vt 0.18911837738837917 0.0008179572259086054
vt 0.0016253922137543647 0
vt 0 0.3741820427740914
vt 0.24999999999999856 0
vt 0.24999999999999856 0.375
vt 0.06249999999999856 0.375
vt 0.06249999999999856 0
vt 0.3109375 0.4375
vt 0.3109375 0.625
vt 0.25051874999999996 0.6875
vt 0.25 0.375
vt 0.2541625 0.375
vt 0.06301874999999996 0.375
vt 0.0625 0.6875
vt 0.25520625 0.6875
vt 0.06020966416347173 0.3749982569423612
vt 0.06020966416347173 0.6875
vt 0.0006262465069318823 0.6251986600034452
vt 0 0.437699705832195
vt 0.25104375 0.375
vt 0.25 0.6875
vt 0.31041874999999997 0.625
vt 0.31041874999999997 0.4375
vt 1.1102230246251565e-16 0.6875
vt 0 0.37499956943779655
vt 0.06052241661227187 0.43739918833866087
vt 0.060833666183432555 0.6248989300016947
vn 1 -8.881784197001252e-16 0
vn -1 0 0
vn 0 1 0
vn 0 -1.7763568394002505e-15 1
vn 0 8.881784197001252e-16 -1
vn 0.7189883760491129 0 0.6950220968474741
vn 0.7160001396200403 1.0598931208546608e-16 -0.6981001361295404
vn -0.7189883760491123 0 -0.6950220968474746
vn -0.7249994335944134 0 0.6887494619146936
vn 1 0 0
vn -1 0 0
vn -5.761157316973783e-16 0 1
vn 0 -2.9605947323337506e-16 -1
vn 0 1 0
vn 0 0 -1
vn 2.960594732333752e-16 0 1
vn 0 1 0
vn -1 0 2.9605947323337506e-16
vn 1 0 0
vn 0 -1 0
vn 0 -1 0
vn 0 -1 0
vn 0 1 0
vn 0 1 0
usemtl tripmine
f 16/29/8 14/30/8 13/31/8 15/32/8
f 19/33/9 17/34/9 18/35/9 20/36/9
f 13/37/10 14/38/10 18/39/10 17/40/10
f 15/41/11 13/42/11 17/43/11 19/44/11
f 20/45/12 18/46/12 14/47/12 16/48/12
f 22/49/13 21/50/13 23/51/13 24/52/13
f 26/53/14 25/54/14 27/55/14 28/56/14
f 32/57/15 31/58/15 29/59/15 30/60/15
f 34/61/16 33/62/16 35/63/16 36/64/16
f 20/65/17 38/66/17 37/67/17 19/68/17
f 36/69/18 35/70/18 31/71/18 32/72/18
f 23/73/19 21/74/19 33/75/19 34/76/19
f 19/77/20 37/78/20 39/79/20 15/80/20
f 33/81/21 21/82/21 39/83/21 37/84/21
f 30/85/22 29/86/22 26/87/22 28/88/22
f 16/89/23 40/90/23 38/91/23 20/92/23
f 26/93/24 29/94/24 38/95/24 40/96/24
f 15/97/25 39/98/25 40/99/25 16/100/25
f 27/101/26 25/102/26 22/103/26 24/104/26
f 27/105/27 24/106/27 23/107/27 28/108/27
f 30/109/28 28/110/28 23/111/28 34/112/28
f 30/113/29 34/114/29 36/115/29 32/116/29
f 33/117/30 29/118/30 31/119/30 35/120/30
f 26/121/31 21/122/31 22/123/31 25/124/31
o casing
v 0.125 0.375 0.05624999999999991
v 0.06458333333333338 0 0.11875000000000002
v 0.125 0 0.05624999999999991
v 0.125 0.375 -0.13125000000000003
v 0.125 0 -0.1312500000000001
v 0.06406249999999991 0 -0.19375000000000003
v -0.12708333333333333 0 -0.19375000000000003
v -0.1875 0.375 -0.13124999999999998
v -0.1875 0 -0.13124999999999998
v -0.12812500000000004 0 0.11874999999999991
v -0.1875 0.375 0.05625000000000002
v -0.1875 0 0.05625000000000002
v -0.12708333333333333 0.375 -0.19375000000000003
v 0.06406249999999991 0.375 -0.19375000000000003
v 0.06458333333333338 0.375 0.11875000000000002
v -0.12812500000000004 0.375 0.11874999999999991
v -0.02060578491932774 0.5857630483983698 -0.047613112722192374
v -0.04199672964960155 0.5563415755133008 -0.06570164615692703
v -0.048556068726310686 0.588011577703482 -0.01821725627824522
v -0.0699470134565845 0.5585901048184128 -0.03630578971297982
v -0.08303015761779697 0.6716809491714422 -0.11353967808055976
v -0.10442110234807078 0.6422594762863731 -0.13162821151529436
v -0.11098044142477992 0.6739294784765544 -0.08414382163661255
v -0.13237138615505373 0.6445080055914851 -0.1022323550713472
v -0.04035505681537899 0.5933479738165881 -0.06095355985823242
v -0.019150139391624132 0.5939345888993672 -0.026306799767332245
v -0.012330680659536242 0.5691670468079653 -0.07769595320803374
v 0.008874236764218724 0.5697536618907442 -0.04304919311713351
v 0.022355054342587 0.6937768424236181 -0.10103453176345861
v 0.04355997176634202 0.6943634575063973 -0.06638777167255838
v 0.050379430498429745 0.6695959154149949 -0.11777692511325988
v 0.07158434792218471 0.670182530497774 -0.0831301650223597
v -0.007444572677515082 0.5964982667743439 -0.02244562535093364
v -0.047789967026708124 0.5946014856417201 -0.026809339496363216
v -0.009382835892324692 0.5690238467630708 0.007417227924570224
v -0.049728230241517846 0.5671270656304468 0.0030535137791406486
v -0.020815180916092135 0.6883921644993389 0.061230765562146905
v -0.06116057526528518 0.6864953833667149 0.05686705141671733
v -0.022753444130901745 0.6609177444880658 0.09109361883765077
v -0.06309883848009479 0.6590209633554418 0.0867299046922212
v 0 0.625 0
v 0 0.625 -0.062499999999999944
v 0 0.375 0
v 0 0.375 -0.0625
v -0.0625 0.625 0
v -0.0625 0.625 -0.0625
v -0.0625 0.375 0
v -0.0625 0.375 -0.062499999999999944
vt 0.0625 0.375
vt 0 0.375
vt 0 0
vt 0.0625 0
vt 0.3125 0.375
vt 0.25 0.375
vt 0.25 0
vt 0.3125 0
vt 0.3125 0
vt 0.3125 0.375
vt 0.25 0.375
vt 0.25 0
vt 0.0625 0
vt 0.0625 0.375
vt 0 0.375
vt 0 0
vt 0.25 0
vt 0.25 0.375
vt 0.0625 0.375
vt 0.0625 0
vt 0.25 0
vt 0.25 0.375
vt 0.0625 0.375
vt 0.0625 0
vt 0.25 0
vt 0.25 0.375
vt 0.0625 0.375
vt 0.0625 0
vt 0.24999999999999856 0
vt 0.24999999999999856 0.375
vt 0.06249999999999856 0.375
vt 0.06249999999999856 0
vt 0.3125 0.4375
vt 0.3125 0.625
vt 0.25 0.6875
vt 0.25 0.375
vt 0.25 0.375
vt 0.0625 0.375
vt 0.0625 0.6875
vt 0.25 0.6875
vt 0.0625 0.375
vt 0.0625 0.6875
vt 0 0.625
vt 0 0.4375
vt 0.25 0.375
vt 0.25 0.6875
vt 0.3125 0.625
vt 0.3125 0.4375
vt 0 0.6875
vt 0 0.375
vt 0.0625 0.4375
vt 0.0625 0.625
vt 0.0625 0.6875
vt 0.0625 0.375
vt 0.25 0.375
vt 0.25 0.6875
vt 0.3062499999999999 0.1499999999999999
vt 0.28125 0.1499999999999999
vt 0.28125 0.125
vt 0.3062499999999999 0.125
vt 0.3062499999999999 0.1499999999999999
vt 0.28125 0.1499999999999999
vt 0.28125 0.125
vt 0.3062499999999999 0.125
vt 0.3062499999999999 0.125
vt 0.28125 0.125
vt 0.28125 0
vt 0.3062499999999999 0
vt 0.3062499999999999 0.125
vt 0.28125 0.125
vt 0.28125 0
vt 0.3062499999999999 0
vt 0.3062499999999999 0.125
vt 0.28125 0.125
vt 0.28125 0
vt 0.3062499999999999 0
vt 0.3062499999999999 0.125
vt 0.28125 0.125
vt 0.28125 0
vt 0.3062499999999999 0
vt 0.3062499999999999 0.25
vt 0.28125 0.25
vt 0.28125 0.2250000000000001
vt 0.3062499999999999 0.2250000000000001
vt 0.3062499999999999 0.25
vt 0.28125 0.25
vt 0.28125 0.2250000000000001
vt 0.3062499999999999 0.2250000000000001
vt 0.3062499999999999 0.25
vt 0.28125 0.25
vt 0.28125 0.125
vt 0.3062499999999999 0.125
vt 0.3062499999999999 0.25
vt 0.28125 0.25
vt 0.28125 0.125
vt 0.3062499999999999 0.125
vt 0.3062499999999999 0.25
vt 0.28125 0.25
vt 0.28125 0.125
vt 0.3062499999999999 0.125
vt 0.3062499999999999 0.25
vt 0.28125 0.25
vt 0.28125 0.125
vt 0.3062499999999999 0.125
vt 0.30625000000000013 0.2499999999999999
vt 0.28125 0.2499999999999999
vt 0.28125 0.22499999999999998
vt 0.30625000000000013 0.22499999999999998
vt 0.30625000000000013 0.2499999999999999
vt 0.28125 0.2499999999999999
vt 0.28125 0.22499999999999998
vt 0.30625000000000013 0.22499999999999998
vt 0.3062499999999999 0.22499999999999998
vt 0.28125 0.22499999999999998
vt 0.28125 0.09999999999999998
vt 0.3062499999999999 0.09999999999999998
vt 0.3062499999999999 0.22499999999999998
vt 0.28125 0.22499999999999998
vt 0.28125 0.09999999999999998
vt 0.3062499999999999 0.09999999999999998
vt 0.30625000000000013 0.22499999999999998
vt 0.28125 0.22499999999999998
vt 0.28125 0.09999999999999998
vt 0.30625000000000013 0.09999999999999998
vt 0.30625000000000013 0.22499999999999998
vt 0.28125 0.22499999999999998
vt 0.28125 0.09999999999999998
vt 0.30625000000000013 0.09999999999999998
vt 0.3125 0
vt 0.3125 0.25
vt 0.25 0.25
vt 0.25 0
vt 0.3125 0
vt 0.3125 0.25
vt 0.25 0.25
vt 0.25 0
vt 0.3125 0
vt 0.3125 0.0625
vt 0.25 0.0625
vt 0.25 0
vt 0.3125 0
vt 0.3125 0.25
vt 0.25 0.25
vt 0.25 0
vt 0.3125 0
vt 0.3125 0.25
vt 0.25 0.25
vt 0.25 0
vn 0.7189883760491129 0 0.6950220968474741
vn 0.7160001396200403 1.0598931208546608e-16 -0.6981001361295404
vn -0.7189883760491123 0 -0.6950220968474746
vn -0.7249994335944134 0 0.6887494619146936
vn -1 0 0
vn -5.761157316973783e-16 0 1
vn 0 0 -1
vn 1 0 0
vn 0 -1 0
vn 0 -1 0
vn 0 -1 0
vn 0 1 0
vn 0 1 0
vn 0 1 0
vn 0.4993949815877551 -0.6873432061845819 0.5274125228669349
vn -0.49939498158775286 0.6873432061845812 -0.527412522866938
vn 0.6880069860180437 -0.05534841366429977 -0.7235903124663937
vn -0.6880069860180432 0.05534841366430029 0.7235903124663939
vn 0.5265463318221243 0.7242208710170872 0.4452562076242362
vn -0.5265463318221217 -0.7242208710170872 -0.44525620762423923
vn -0.5016808892637267 -0.8034309488562379 0.32064777524180915
vn 0.5016808892637298 0.8034309488562345 -0.320647775241813
vn -0.6898307976822838 0.5952228186737989 0.4121204516874188
vn 0.6898307976822808 -0.5952228186738 -0.4121204516874223
vn -0.5219671981231958 -0.014439755883794241 -0.8528433253144665
vn 0.5219671981231958 0.014439755883792873 0.8528433253144667
vn 0.10696486590861194 -0.7351511817999584 -0.6694111273046461
vn -0.10696486590861581 0.7351511817999608 0.669411127304643
vn 0.04771109451839663 0.6762934156621093 -0.7350856190893236
vn -0.04771109451839295 -0.6762934156621083 0.7350856190893248
vn 0.9931173993647523 0.04668999711074785 0.10741450204134172
vn -0.9931173993647523 -0.04668999711074792 -0.10741450204134179
vn 1 0 0
vn -1 0 0
vn 0 1 0
vn 0 0 1
vn 8.881784197001252e-16 -2.220446049250313e-16 -1
usemtl tripmine
f 41/125/32 55/126/32 42/127/32 43/128/32
f 54/129/33 44/130/33 45/131/33 46/132/33
f 49/133/34 48/134/34 53/135/34 47/136/34
f 50/137/35 56/138/35 51/139/35 52/140/35
f 52/141/36 51/142/36 48/143/36 49/144/36
f 42/145/37 55/146/37 56/147/37 50/148/37
f 47/149/38 53/150/38 54/151/38 46/152/38
f 45/153/39 44/154/39 41/155/39 43/156/39
f 45/157/40 43/158/40 42/159/40 46/160/40
f 47/161/41 46/162/41 42/163/41 50/164/41
f 47/165/42 50/166/42 52/167/42 49/168/42
f 56/169/43 53/170/43 48/171/43 51/172/43
f 54/173/44 55/174/44 41/175/44 44/176/44
f 55/177/45 54/178/45 53/179/45 56/180/45
f 60/181/46 58/182/46 57/183/46 59/184/46
f 63/185/47 61/186/47 62/187/47 64/188/47
f 57/189/48 58/190/48 62/191/48 61/192/48
f 60/193/49 59/194/49 63/195/49 64/196/49
f 59/197/50 57/198/50 61/199/50 63/200/50
f 64/201/51 62/202/51 58/203/51 60/204/51
f 68/205/52 66/206/52 65/207/52 67/208/52
f 71/209/53 69/210/53 70/211/53 72/212/53
f 65/213/54 66/214/54 70/215/54 69/216/54
f 68/217/55 67/218/55 71/219/55 72/220/55
f 67/221/56 65/222/56 69/223/56 71/224/56
f 72/225/57 70/226/57 66/227/57 68/228/57
f 76/229/58 74/230/58 73/231/58 75/232/58
f 79/233/59 77/234/59 78/235/59 80/236/59
f 73/237/60 74/238/60 78/239/60 77/240/60
f 76/241/61 75/242/61 79/243/61 80/244/61
f 75/245/62 73/246/62 77/247/62 79/248/62
f 80/249/63 78/250/63 74/251/63 76/252/63
f 84/253/64 82/254/64 81/255/64 83/256/64
f 87/257/65 85/258/65 86/259/65 88/260/65
f 81/261/66 82/262/66 86/263/66 85/264/66
f 83/265/67 81/266/67 85/267/67 87/268/67
f 88/269/68 86/270/68 82/271/68 84/272/68
o casing_fuse
v -0.020605784919327706 0.21076304839836985 -0.0476131127221924
v -0.04199672964960151 0.18134157551330066 -0.06570164615692703
v -0.04855606872631066 0.213011577703482 -0.01821725627824522
v -0.06994701345658447 0.1835901048184128 -0.03630578971297985
v -0.08303015761779697 0.2966809491714423 -0.11353967808055973
v -0.10442110234807078 0.2672594762863731 -0.13162821151529436
v -0.11098044142477992 0.29892947847655443 -0.08414382163661256
v -0.13237138615505373 0.26950800559148524 -0.10223235507134719
v -0.040355056815379 0.21834797381658813 -0.060953559858232406
v -0.019150139391624084 0.2189345888993673 -0.02630679976733226
v -0.012330680659536283 0.1941670468079651 -0.07769595320803376
v 0.008874236764218738 0.19475366189074414 -0.04304919311713353
v 0.022355054342587 0.31877684242361803 -0.1010345317634586
v 0.04355997176634202 0.31936345750639716 -0.06638777167255837
v 0.050379430498429745 0.2945959154149948 -0.1177769251132599
v 0.07158434792218471 0.295182530497774 -0.08313016502235973
v -0.00744457267751511 0.22149826677434392 -0.022445625350933626
v -0.04778996702670809 0.21960148564171994 -0.026809339496363195
v -0.00938283589232472 0.19402384676307083 0.007417227924570238
v -0.049728230241517804 0.19212706563044685 0.0030535137791406347
v -0.020815180916092135 0.31339216449933904 0.06123076556214693
v -0.061160575265285136 0.3114953833667149 0.05686705141671736
v -0.022753444130901766 0.28591774448806595 0.09109361883765077
v -0.06309883848009479 0.2840209633554418 0.0867299046922212
v 0 0.25000000000000006 2.7755575615628914e-17
v 2.7755575615628914e-17 0.25000000000000006 -0.06249999999999996
v 0 0 5.551115123125783e-17
v 1.3877787807814457e-17 5.551115123125783e-17 -0.06249999999999997
v -0.06250000000000003 0.25000000000000006 0
v -0.06250000000000003 0.2500000000000001 -0.06250000000000001
v -0.062499999999999986 -5.551115123125783e-17 2.7755575615628914e-17
v -0.0625 0 -0.06249999999999996
vt 0.3062499999999999 0.1499999999999999
vt 0.28125 0.1499999999999999
vt 0.28125 0.125
vt 0.3062499999999999 0.125
vt 0.3062499999999999 0.1499999999999999
vt 0.28125 0.1499999999999999
vt 0.28125 0.125
vt 0.3062499999999999 0.125
vt 0.3062499999999999 0.125
vt 0.28125 0.125
vt 0.28125 0
vt 0.3062499999999999 0
vt 0.3062499999999999 0.125
vt 0.28125 0.125
vt 0.28125 0
vt 0.3062499999999999 0
vt 0.3062499999999999 0.125
vt 0.28125 0.125
vt 0.28125 0
vt 0.3062499999999999 0
vt 0.3062499999999999 0.125
vt 0.28125 0.125
vt 0.28125 0
vt 0.3062499999999999 0
vt 0.3062499999999999 0.25
vt 0.28125 0.25
vt 0.28125 0.2250000000000001
vt 0.3062499999999999 0.2250000000000001
vt 0.3062499999999999 0.25
vt 0.28125 0.25
vt 0.28125 0.2250000000000001
vt 0.3062499999999999 0.2250000000000001
vt 0.3062499999999999 0.25
vt 0.28125 0.25
vt 0.28125 0.125
vt 0.3062499999999999 0.125
vt 0.3062499999999999 0.25
vt 0.28125 0.25
vt 0.28125 0.125
vt 0.3062499999999999 0.125
vt 0.3062499999999999 0.25
vt 0.28125 0.25
vt 0.28125 0.125
vt 0.3062499999999999 0.125
vt 0.3062499999999999 0.25
vt 0.28125 0.25
vt 0.28125 0.125
vt 0.3062499999999999 0.125
vt 0.30625000000000013 0.2499999999999999
vt 0.28125 0.2499999999999999
vt 0.28125 0.22499999999999998
vt 0.30625000000000013 0.22499999999999998
vt 0.30625000000000013 0.2499999999999999
vt 0.28125 0.2499999999999999
vt 0.28125 0.22499999999999998
vt 0.30625000000000013 0.22499999999999998
vt 0.3062499999999999 0.22499999999999998
vt 0.28125 0.22499999999999998
vt 0.28125 0.09999999999999998
vt 0.3062499999999999 0.09999999999999998
vt 0.3062499999999999 0.22499999999999998
vt 0.28125 0.22499999999999998
vt 0.28125 0.09999999999999998
vt 0.3062499999999999 0.09999999999999998
vt 0.30625000000000013 0.22499999999999998
vt 0.28125 0.22499999999999998
vt 0.28125 0.09999999999999998
vt 0.30625000000000013 0.09999999999999998
vt 0.30625000000000013 0.22499999999999998
vt 0.28125 0.22499999999999998
vt 0.28125 0.09999999999999998
vt 0.30625000000000013 0.09999999999999998
vt 0.3125 0
vt 0.3125 0.25
vt 0.25 0.25
vt 0.25 0
vt 0.3125 0
vt 0.3125 0.25
vt 0.25 0.25
vt 0.25 0
vt 0.3125 0
vt 0.3125 0.0625
vt 0.25 0.0625
vt 0.25 0
vt 0.3125 0
vt 0.3125 0.25
vt 0.25 0.25
vt 0.25 0
vt 0.3125 0
vt 0.3125 0.25
vt 0.25 0.25
vt 0.25 0
vn 0.4993949815877543 -0.6873432061845796 0.5274125228669388
vn -0.4993949815877543 0.6873432061845796 -0.5274125228669388
vn 0.6880069860180434 -0.05534841366429974 -0.7235903124663938
vn -0.6880069860180434 0.05534841366429974 0.7235903124663938
vn 0.5265463318221241 0.724220871017087 0.44525620762423684
vn -0.5265463318221241 -0.724220871017087 -0.44525620762423684
vn -0.5016808892637274 -0.8034309488562363 0.3206477752418113
vn 0.5016808892637291 0.8034309488562352 -0.320647775241812
vn -0.6898307976822831 0.5952228186737992 0.4121204516874195
vn 0.6898307976822815 -0.5952228186737998 -0.41212045168742156
vn -0.5219671981231964 -0.014439755883793592 -0.8528433253144663
vn 0.5219671981231966 0.01443975588379232 0.8528433253144663
vn 0.10696486590861407 -0.7351511817999603 -0.6694111273046438
vn -0.10696486590861787 0.7351511817999602 0.6694111273046432
vn 0.04771109451839439 0.6762934156621087 -0.7350856190893243
vn -0.04771109451839453 -0.676293415662108 0.7350856190893249
vn 0.9931173993647524 0.046689997110747845 0.10741450204134131
vn -0.9931173993647522 -0.046689997110746895 -0.10741450204134279
vn 1 0 3.3306690738754696e-16
vn -1 -1.6653345369377348e-16 0
vn 8.326672684688672e-16 1 -2.775557561562891e-16
vn -4.440892098500625e-16 1.1102230246251563e-16 1
vn 9.436895709313829e-16 -2.2204460492503126e-16 -1
usemtl tripmine
f 92/273/69 90/274/69 89/275/69 91/276/69
f 95/277/70 93/278/70 94/279/70 96/280/70
f 89/281/71 90/282/71 94/283/71 93/284/71
f 92/285/72 91/286/72 95/287/72 96/288/72
f 91/289/73 89/290/73 93/291/73 95/292/73
f 96/293/74 94/294/74 90/295/74 92/296/74
f 100/297/75 98/298/75 97/299/75 99/300/75
f 103/301/76 101/302/76 102/303/76 104/304/76
f 97/305/77 98/306/77 102/307/77 101/308/77
f 100/309/78 99/310/78 103/311/78 104/312/78
f 99/313/79 97/314/79 101/315/79 103/316/79
f 104/317/80 102/318/80 98/319/80 100/320/80
f 108/321/81 106/322/81 105/323/81 107/324/81
f 111/325/82 109/326/82 110/327/82 112/328/82
f 105/329/83 106/330/83 110/331/83 109/332/83
f 108/333/84 107/334/84 111/335/84 112/336/84
f 107/337/85 105/338/85 109/339/85 111/340/85
f 112/341/86 110/342/86 106/343/86 108/344/86
f 116/345/87 114/346/87 113/347/87 115/348/87
f 119/349/88 117/350/88 118/351/88 120/352/88
f 113/353/89 114/354/89 118/355/89 117/356/89
f 115/357/90 113/358/90 117/359/90 119/360/90
f 120/361/91 118/362/91 114/363/91 116/364/91