# Made by Pabilo8 with Blockbench
# Exported with IIToolkit Plugin
mtllib dust_pile.mtl


o dust_pile_big
v -0.5898437518254824 -0.02065154907970168 0.5625
v -0.5898437518254824 -0.02065154907970168 -0.5625
v 0.5357106446267423 -0.02065154907970168 0.5625
v 0.5357106446267423 -0.02065154907970168 -0.5625
v -0.19120990308198618 0.36973306630491387 0.18750000000000003
v -0.19120990308198618 0.36973306630491387 -0.18750000000000003
v -0.5429456519733064 -0.014882318310470821 0.515625
v -0.5429456519733064 -0.014882318310470821 -0.515625
v 0.18397489573542206 0.36973306630491387 0.18750000000000003
v 0.18397489573542206 0.36973306630491387 -0.18750000000000003
v 0.4888125447745662 -0.014882318310470821 0.515625
v 0.4888125447745662 -0.014882318310470821 -0.515625
v -0.2146589530080742 0.37934845092029845 0.21093750000000003
v -0.2146589530080742 0.37934845092029845 -0.21093749999999997
v 0.20742394566151007 0.37934845092029845 0.21093750000000003
v 0.20742394566151007 0.37934845092029845 -0.21093749999999997
v 0.18397489573542206 0.36973306630491387 0.28125000000000006
v 0.18397489573542206 0.36973306630491387 -0.28124999999999994
v 0.3497847178866095 0.2337509929998085 0.28125000000000006
v 0.3497847178866095 0.2337509929998085 -0.28124999999999994
v 0.27777109543977413 0.25434845092029856 0.421875
v 0.27777109543977413 0.25434845092029856 -0.421875
v 0.4435809175909612 0.11836637761519297 0.421875
v 0.4435809175909612 0.11836637761519297 -0.421875
v 0.3715672951441261 0.1389638355356832 0.515625
v 0.3715672951441261 0.1389638355356832 -0.515625
v 0.5373771172953137 0.0029817622305778335 0.515625
v 0.5373771172953137 0.0029817622305778335 -0.515625
v 0.27777109543977413 0.36973307051648013 -0.18749999486715355
v -0.28500610278633826 0.36973306209334755 -0.18750000513284645
v 0.2777711014918726 0.23375099721137443 -0.35322814670775005
v -0.2850060967342397 0.23375098878824185 -0.35322815697344284
v 0.41846539927578186 0.25434845723764776 -0.2812499923007297
v -0.4257003980633864 0.2543484446029489 -0.28125000769926917
v 0.41846540532788035 0.11836638393254179 -0.4469781441413262
v -0.42570039201128784 0.11836637129784292 -0.44697815953986564
v 0.5122616032596139 0.13896384325688782 -0.3749999905897805
v -0.5194965934882584 0.13896382781447786 -0.3750000094102176
v 0.5122616093117125 0.0029817699517820373 -0.5407281424303769
v -0.5194965874361598 0.0029817545093721864 -0.540728161250814
v -0.1912098979466086 0.36973307051648013 -0.28124999999999994
v -0.19120990821736378 0.36973306209334755 0.28124999999999994
v -0.3570197200977967 0.23375099721137543 -0.2812500060491185
v -0.3570197303685517 0.23375098878824274 0.28124999395088135
v -0.2850060950832722 0.25434845723764854 -0.42187500427737246
v -0.28500611048940494 0.2543484446029493 0.4218749957226273
v -0.45081591723446035 0.11836638393254348 -0.42187501032649116
v -0.45081593264059283 0.11836637129784414 0.42187498967350867
v -0.37880229307583235 0.13896384325688882 -0.5156250085547452
v -0.3788023119055501 0.13896382781447875 0.5156249914452546
v -0.5446121152270205 0.002981769951784091 -0.5156250146038638
v -0.544612134056738 0.002981754509373963 0.5156249853961361
v -0.28500610278633826 0.36973306630491387 0.18750000000000008
v 0.27777109543977413 0.36973306630491387 0.18749999999999992
v -0.28500610278633826 0.23375099299980823 0.35322815184059686
v 0.27777109543977413 0.23375099299980823 0.3532281518405968
v -0.4257004023428664 0.25434845092029845 0.2812499999999998
v 0.41846539499630214 0.25434845092029845 0.2812499999999996
v -0.4257004023428662 0.11836637761519256 0.4469781518405964
v 0.41846539499630214 0.11836637761519256 0.44697815184059625
v -0.5194966020472181 0.13896383553568287 0.37499999999999956
v 0.5122615947006542 0.13896383553568303 0.37499999999999933
v -0.519496602047218 0.002981762230577445 0.5407281518405964
v 0.5122615947006542 0.002981762230577445 0.5407281518405961
vt 0 0.625
vt 0.375 0.625
vt 0.375 1
vt 0 1
vt 0 1
vt 0.375 1
vt 0.375 0.625
vt 0 0.625
vt 0.375 0.8046875
vt 0.484375 1
vt 0.609375 1
vt 0.71875 0.8046875
vt 0.484375 1
vt 0.609375 1
vt 0.71875 0.8046875
vt 0.375 0.8046875
vt 0.875 1
vt 0.875 0.875
vt 0.75 0.875
vt 0.75 1
vt 0.375 0.84375
vt 0.71875 0.84375
vt 0.71875 0.5
vt 0.375 0.5
vt 0.484375 1
vt 0.609375 1
vt 0.71875 0.8046875
vt 0.375 0.8046875
vt 0.375 0.8046875
vt 0.484375 1
vt 0.609375 1
vt 0.71875 0.8046875
vt 1 1
vt 1 0.875
vt 0.875 0.875
vt 0.875 1
vt 0.953125 0.875
vt 0.765625 0.875
vt 0.765625 0.796875
vt 0.953125 0.796875
vt 0.71875 0.796875
vt 1 0.796875
vt 1 0.71875
vt 0.71875 0.71875
vt 0 0.578125
vt 0.34375 0.578125
vt 0.34375 0.5
vt 0 0.5
vt 0.953125 0.875
vt 0.765625 0.875
vt 0.765625 0.796875
vt 0.953125 0.796875
vt 0.71875 0.796875
vt 1 0.796875
vt 1 0.71875
vt 0.71875 0.71875
vt 0 0.578125
vt 0.34375 0.578125
vt 0.34375 0.5
vt 0 0.5
vt 0.953125 0.875
vt 0.765625 0.875
vt 0.765625 0.796875
vt 0.953125 0.796875
vt 0.71875 0.796875
vt 1 0.796875
vt 1 0.71875
vt 0.71875 0.71875
vt 0 0.578125
vt 0.34375 0.578125
vt 0.34375 0.5
vt 0 0.5
vt 0.953125 0.875
vt 0.765625 0.875
vt 0.765625 0.796875
vt 0.953125 0.796875
vt 0.71875 0.796875
vt 1 0.796875
vt 1 0.71875
vt 0.71875 0.71875
vt 0 0.578125
vt 0.34375 0.578125
vt 0.34375 0.5
vt 0 0.5
vn 0 1 0
vn 0 -1 0
vn -0.7379452991704839 0.6748605303558545 0
vn 0.7836981672250006 0.6211418378182034 0
vn 0 1 0
vn 0 -1 0
vn 0 0.6490275551090523 0.760764899761527
vn 0 0.6490275551090524 -0.7607648997615268
vn 0 1 0
vn 0.6341298315912018 0.773226588191401 0
vn 0.6341298315912032 0.7732265881913997 0
vn 0.6341298315912015 0.773226588191401 0
vn 8.407534961535635e-17 0.7730733704825884 -0.6343166116780252
vn 1.7206113043511398e-16 0.7730733704825878 -0.6343166116780262
vn -2.666226218258411e-17 0.7730733704825882 -0.6343166116780258
vn -0.6341298315911982 0.7732265881914037 -3.89774448977027e-15
vn -0.6341298315911992 0.7732265881914029 -3.5462207540614777e-15
vn -0.6341298315911982 0.7732265881914038 -3.567117186978798e-15
vn 1.8770294249844798e-16 0.7730733704825891 0.6343166116780247
vn 1.251352949989655e-16 0.7730733704825883 0.6343166116780256
vn 1.1731433906153265e-17 0.7730733704825898 0.6343166116780238
usemtl dust
f 4/1/1 2/2/1 1/3/1 3/4/1
f 3/5/2 1/6/2 2/7/2 4/8/2
f 7/9/3 5/10/3 6/11/3 8/12/3
f 10/13/4 9/14/4 11/15/4 12/16/4
f 6/17/5 5/18/5 9/19/5 10/20/5
f 11/21/6 7/22/6 8/23/6 12/24/6
f 9/25/7 5/26/7 7/27/7 11/28/7
f 8/29/8 6/30/8 10/31/8 12/32/8
f 14/33/9 13/34/9 15/35/9 16/36/9
f 18/37/10 17/38/10 19/39/10 20/40/10
f 22/41/11 21/42/11 23/43/11 24/44/11
f 26/45/12 25/46/12 27/47/12 28/48/12
f 30/49/13 29/50/13 31/51/13 32/52/13
f 34/53/14 33/54/14 35/55/14 36/56/14
f 38/57/15 37/58/15 39/59/15 40/60/15
f 42/61/16 41/62/16 43/63/16 44/64/16
f 46/65/17 45/66/17 47/67/17 48/68/17
f 50/69/18 49/70/18 51/71/18 52/72/18
f 54/73/19 53/74/19 55/75/19 56/76/19
f 58/77/20 57/78/20 59/79/20 60/80/20
f 62/81/21 61/82/21 63/83/21 64/84/21