# Made by Pabilo8 with Blockbench
# Exported with IIToolkit Plugin
mtllib dust_pile.mtl


o dust_pile_medium
v -0.4023437518254825 -0.02065154907970168 0.375
v -0.4023437518254825 -0.02065154907970168 -0.375
v 0.348765041078967 -0.02065154907970168 0.375
v 0.348765041078967 -0.02065154907970168 -0.375
v -0.13632605433848993 0.24773787399722158 0.125
v -0.13632605433848993 0.24773787399722158 -0.12500000000000003
v -0.37104755212113033 -0.016685202925855458 0.34375
v -0.37104755212113033 -0.016685202925855458 -0.34375
v 0.11404354329632654 0.24773787399722158 0.125
v 0.11404354329632654 0.24773787399722158 -0.12500000000000003
v 0.3174688413746149 -0.016685202925855458 0.34375
v 0.3174688413746149 -0.016685202925855458 -0.34375
v -0.15197415419066596 0.25434845092029845 0.140625
v -0.15197415419066596 0.25434845092029845 -0.140625
v 0.12969164314850257 0.25434845092029845 0.140625
v 0.12969164314850257 0.25434845092029845 -0.140625
v 0.11404354329632654 0.24773787399722158 0.1875
v 0.11404354329632654 0.24773787399722158 -0.1875
v 0.22469231847790533 0.15425019859996159 0.1875
v 0.22469231847790533 0.15425019859996159 -0.1875
v 0.1766359427050307 0.1684109509202985 0.28125
v 0.1766359427050307 0.1684109509202985 -0.28125
v 0.28728471788660925 0.0749232755230384 0.28125
v 0.28728471788660925 0.0749232755230384 -0.28125
v 0.23922834211373478 0.08908402784337544 0.34375
v 0.23922834211373478 0.08908402784337544 -0.34375
v 0.3498771172953136 -0.004403647553884518 0.34375
v 0.3498771172953136 -0.004403647553884518 -0.34375
v 0.1766359427050307 0.24773787689267335 -0.12499999657810236
v -0.19891845374719405 0.2477378711017697 -0.12500000342189765
v 0.17663594674373764 0.1542502014954132 -0.23548543113850004
v -0.19891844970848704 0.15425019570450954 -0.23548543798229524
v 0.2705245446738838 0.1684109552634761 -0.18749999486715319
v -0.29280705000445306 0.16841094657712063 -0.18750000513284615
v 0.27052454871259074 0.07492327986621572 -0.2979854294275508
v -0.2928070459657461 0.07492327117986025 -0.29798543969324376
v 0.333116946938385 0.08908403315170363 -0.24999999372652035
v -0.35539944655736 0.08908402253504677 -0.2500000062734784
v 0.33311695097709204 -0.00440364224555663 -0.36048542828691793
v -0.355399442518653 -0.004403652862213392 -0.36048544083387596
v -0.13632605091153227 0.24773787689267335 -0.1875
v -0.1363260577654476 0.2477378711017697 0.18749999999999994
v -0.24697482609311153 0.15425020149541385 -0.18750000403274567
v -0.24697483294702674 0.15425019570451015 0.1874999959672542
v -0.19891844860675775 0.16841095526347663 -0.28125000285158164
v -0.19891845888763074 0.1684109465771209 0.2812499971484182
v -0.30956722378833706 0.07492327986621689 -0.28125000688432744
v -0.30956723406920983 0.07492327117986108 0.28124999311567245
v -0.2615108468731431 0.0890840331517043 -0.34375000570316344
v -0.26151085943865443 0.08908402253504738 0.34374999429683645
v -0.3721596220547224 -0.004403642245555214 -0.3437500097359092
v -0.37215963462023366 -0.004403652862212171 0.34374999026409075
v -0.19891845374719405 0.24773787399722158 0.12500000000000006
v 0.1766359427050307 0.24773787399722158 0.12499999999999992
v -0.19891845374719405 0.15425019859996142 0.23548543456039786
v 0.1766359427050307 0.15425019859996142 0.23548543456039786
v -0.2928070528602502 0.16841095092029845 0.1874999999999998
v 0.2705245418180868 0.16841095092029845 0.1874999999999997
v -0.29280705286025016 0.07492327552303812 0.2979854345603976
v 0.2705245418180868 0.07492327552303812 0.29798543456039744
v -0.3553994522689542 0.08908402784337521 0.2499999999999997
v 0.3331169412267909 0.08908402784337532 0.24999999999999953
v -0.35539945226895414 -0.004403647553884782 0.36048543456039756
v 0.3331169412267909 -0.004403647553884782 0.3604854345603974
vt 0 0.625
vt 0.375 0.625
vt 0.375 1
vt 0 1
vt 0 1
vt 0.375 1
vt 0.375 0.625
vt 0 0.625
vt 0.375 0.8046875
vt 0.484375 1
vt 0.609375 1
vt 0.71875 0.8046875
vt 0.484375 1
vt 0.609375 1
vt 0.71875 0.8046875
vt 0.375 0.8046875
vt 0.875 1
vt 0.875 0.875
vt 0.75 0.875
vt 0.75 1
vt 0.375 0.84375
vt 0.71875 0.84375
vt 0.71875 0.5
vt 0.375 0.5
vt 0.484375 1
vt 0.609375 1
vt 0.71875 0.8046875
vt 0.375 0.8046875
vt 0.375 0.8046875
vt 0.484375 1
vt 0.609375 1
vt 0.71875 0.8046875
vt 1 1
vt 1 0.875
vt 0.875 0.875
vt 0.875 1
vt 0.953125 0.875
vt 0.765625 0.875
vt 0.765625 0.796875
vt 0.953125 0.796875
vt 0.71875 0.796875
vt 1 0.796875
vt 1 0.71875
vt 0.71875 0.71875
vt 0 0.578125
vt 0.34375 0.578125
vt 0.34375 0.5
vt 0 0.5
vt 0.953125 0.875
vt 0.765625 0.875
vt 0.765625 0.796875
vt 0.953125 0.796875
vt 0.71875 0.796875
vt 1 0.796875
vt 1 0.71875
vt 0.71875 0.71875
vt 0 0.578125
vt 0.34375 0.578125
vt 0.34375 0.5
vt 0 0.5
vt 0.953125 0.875
vt 0.765625 0.875
vt 0.765625 0.796875
vt 0.953125 0.796875
vt 0.71875 0.796875
vt 1 0.796875
vt 1 0.71875
vt 0.71875 0.71875
vt 0 0.578125
vt 0.34375 0.578125
vt 0.34375 0.5
vt 0 0.5
vt 0.953125 0.875
vt 0.765625 0.875
vt 0.765625 0.796875
vt 0.953125 0.796875
vt 0.71875 0.796875
vt 1 0.796875
vt 1 0.71875
vt 0.71875 0.71875
vt 0 0.578125
vt 0.34375 0.578125
vt 0.34375 0.5
vt 0 0.5
vn 0 1 0
vn 0 -1 0
vn -0.7478602865585388 0.6638561529341883 0
vn 0.792590770364082 0.609753942778291 0
vn 0 1 0
vn 0 -1 0
vn 0 0.6374243471515599 0.7705129471062817
vn 0 0.63742434715156 -0.7705129471062816
vn 0 1 0
vn 0.6453860411137187 0.7638565689549062 0
vn 0.6453860411137199 0.7638565689549052 0
vn 0.6453860411137183 0.7638565689549065 0
vn 1.323666181556802e-16 0.7633862853691126 -0.6459422414661763
vn 1.5623602519642982e-16 0.7633862853691117 -0.6459422414661773
vn -2.1304805306776993e-17 0.7633862853691119 -0.645942241466177
vn -0.6453860411137151 0.7638565689549095 -3.966406050563912e-15
vn -0.6453860411137159 0.7638565689549086 -3.627185614268806e-15
vn -0.6453860411137149 0.7638565689549095 -3.639939882342219e-15
vn 2.386937670775478e-16 0.7633862853691129 0.6459422414661758
vn 1.2730334244135895e-16 0.7633862853691122 0.6459422414661765
vn 3.314095278432104e-17 0.7633862853691138 0.645942241466175
usemtl dust
f 4/1/1 2/2/1 1/3/1 3/4/1
f 3/5/2 1/6/2 2/7/2 4/8/2
f 7/9/3 5/10/3 6/11/3 8/12/3
f 10/13/4 9/14/4 11/15/4 12/16/4
f 6/17/5 5/18/5 9/19/5 10/20/5
f 11/21/6 7/22/6 8/23/6 12/24/6
f 9/25/7 5/26/7 7/27/7 11/28/7
f 8/29/8 6/30/8 10/31/8 12/32/8
f 14/33/9 13/34/9 15/35/9 16/36/9
f 18/37/10 17/38/10 19/39/10 20/40/10
f 22/41/11 21/42/11 23/43/11 24/44/11
f 26/45/12 25/46/12 27/47/12 28/48/12
f 30/49/13 29/50/13 31/51/13 32/52/13
f 34/53/14 33/54/14 35/55/14 36/56/14
f 38/57/15 37/58/15 39/59/15 40/60/15
f 42/61/16 41/62/16 43/63/16 44/64/16
f 46/65/17 45/66/17 47/67/17 48/68/17
f 50/69/18 49/70/18 51/71/18 52/72/18
f 54/73/19 53/74/19 55/75/19 56/76/19
f 58/77/20 57/78/20 59/79/20 60/80/20
f 62/81/21 61/82/21 63/83/21 64/84/21