# Made by Pabilo8 with Blockbench
# Exported with IIToolkit Plugin
mtllib dust_pile.mtl


o dust_pile_tiny
v 0.16126504107896703 -0.005026549079701681 -0.18750000000000003
v -0.21484375182548252 -0.005026549079701681 -0.18750000000000003
v -0.21484375182548252 -0.005026549079701681 0.18749999999999997
v 0.16126504107896703 -0.005026549079701681 0.18749999999999997
v 0.04373104329632655 0.12273787399722155 0.062499999999999986
v -0.08163855433848996 0.12273787399722155 0.062499999999999986
v -0.19917255212113041 -0.0031384048962988438 0.17187499999999997
v 0.14559384137461492 -0.0031384048962988438 0.17187499999999997
v -0.08163855433848996 0.12273787399722155 -0.06250000000000003
v -0.19917255212113041 -0.0031384048962988438 -0.17187500000000003
v 0.04373104329632655 0.12273787399722155 -0.06250000000000003
v 0.14559384137461492 -0.0031384048962988438 -0.17187500000000003
v -0.08389060705672574 0.12504056673126257 0.07256455056509023
v -0.08389060705672574 0.12504056673126257 -0.07256455271823499
v 0.06160809386141652 0.12504056673126257 0.07256455056509023
v 0.06160809386141652 0.12504056673126257 -0.07256455271823499
v -0.09298427586410962 0.12934845092029845 0.08163511952029806
v -0.09298427586410962 0.12934845092029845 -0.08163512167344279
v 0.0707017626688004 0.12934845092029845 0.08163511952029806
v 0.0707017626688004 0.12934845092029845 -0.08163512167344279
v 0.06160809386141652 0.12504056673126257 0.10884682638592154
v 0.06160809386141652 0.12504056673126257 -0.10884682853906627
v 0.1259100426570738 0.06411788427859028 0.10884682638592154
v 0.1259100426570738 0.06411788427859028 -0.10884682853906627
v 0.09798276909095208 0.07334595646283151 0.16327024011716848
v 0.09798276909095208 0.07334595646283151 -0.16327024227031325
v 0.16228471788660925 0.012423274010159135 0.16327024011716848
v 0.16228471788660925 0.012423274010159135 -0.16327024227031325
v 0.09798276909095208 0.1250405686181283 -0.07256455073176722
v -0.1202652822862613 0.1250405648443968 -0.07256455470470273
v 0.09798277143798872 0.06411788616545586 -0.13670315890624332
v -0.12026527993922465 0.06411788239172439 -0.13670316287917875
v 0.15254478359486087 0.07334595929313004 -0.10884682555936445
v -0.17482729347095907 0.0733459536325328 -0.10884683151876771
v 0.15254478594189746 0.012423276840457475 -0.1729854337338405
v -0.17482729112392242 0.012423271179860251 -0.1729854396932438
v -0.08389060506519844 0.1250405686181283 -0.10884682853906627
v -0.08389060904825302 0.1250405648443968 0.10884682638592151
v -0.14819255386085603 0.0641178861654563 -0.10884683088014133
v -0.14819255784391056 0.06411788239172478 0.10884682404484641
v -0.12026527929897046 0.07334595929313037 -0.1632702439257032
v -0.12026528527355235 0.07334595363253299 0.16327023846177843
v -0.18456722809462808 0.012423276840458235 -0.1632702462667783
v -0.18456723406920983 0.012423271179860794 0.16327023612070332
v -0.1202652822862613 0.12504056673126257 0.07256455056509027
v 0.09798276909095208 0.12504056673126257 0.07256455056509019
v -0.1202652822862613 0.06411788427859016 0.13670315873956643
v 0.09798276909095208 0.06411788427859016 0.13670315873956643
v -0.17482729513056464 0.07334595646283147 0.10884682638592143
v 0.15254478193525536 0.07334595646283147 0.10884682638592136
v -0.1748272951305646 0.012423274010158953 0.17298543456039758
v 0.15254478193525536 0.012423274010158953 0.17298543456039747
vt 0 0.625
vt 0.375 0.625
vt 0.375 1
vt 0 1
vt 0.375 0.8046875
vt 0.484375 1
vt 0.609375 1
vt 0.71875 0.8046875
vt 0.484375 1
vt 0.609375 1
vt 0.71875 0.8046875
vt 0.375 0.8046875
vt 0.875 1
vt 0.875 0.875
vt 0.75 0.875
vt 0.75 1
vt 0.375 0.84375
vt 0.71875 0.84375
vt 0.71875 0.5
vt 0.375 0.5
vt 0.484375 1
vt 0.609375 1
vt 0.71875 0.8046875
vt 0.375 0.8046875
vt 0.375 0.8046875
vt 0.484375 1
vt 0.609375 1
vt 0.71875 0.8046875
vt 0.875 1
vt 0.875 0.875
vt 0.75 0.875
vt 0.75 1
vt 1 1
vt 1 0.875
vt 0.875 0.875
vt 0.875 1
vt 0.953125 0.875
vt 0.765625 0.875
vt 0.765625 0.796875
vt 0.953125 0.796875
vt 0.71875 0.796875
vt 1 0.796875
vt 1 0.71875
vt 0.71875 0.71875
vt 0.953125 0.875
vt 0.765625 0.875
vt 0.765625 0.796875
vt 0.953125 0.796875
vt 0.71875 0.796875
vt 1 0.796875
vt 1 0.71875
vt 0.71875 0.71875
vt 0.953125 0.875
vt 0.765625 0.875
vt 0.765625 0.796875
vt 0.953125 0.796875
vt 0.71875 0.796875
vt 1 0.796875
vt 1 0.71875
vt 0.71875 0.71875
vt 0.953125 0.875
vt 0.765625 0.875
vt 0.765625 0.796875
vt 0.953125 0.796875
vt 0.71875 0.796875
vt 1 0.796875
vt 1 0.71875
vt 0.71875 0.71875
vn 0 1 0
vn -0.7309119649077349 0.6824717573311838 0
vn 0.7773567434099757 0.6290600078490424 0
vn 0 1 0
vn 0 -1 0
vn 0 0.6558964963222327 0.7548508369951109
vn 0 0.6558964963222327 -0.7548508369951109
vn 0 1 0
vn 0 1 0
vn 0.6877746732004831 0.7259242377162846 0
vn 0.6877746732004844 0.7259242377162834 0
vn 1.415939823913637e-16 0.7250502082424869 -0.6886960109711152
vn 1.4159401541759426e-16 0.7250502082424859 -0.6886960109711162
vn -0.6877746732004796 0.7259242377162879 -4.154526973113034e-15
vn -0.6877746732004804 0.7259242377162871 -3.8752432971979586e-15
vn 2.627536065692433e-16 0.7250502082424873 0.6886960109711147
vn 1.45974225871802e-16 0.7250502082424867 0.6886960109711154
usemtl dust
f 1/1/1 2/2/1 3/3/1 4/4/1
f 7/5/2 6/6/2 9/7/2 10/8/2
f 11/9/3 5/10/3 8/11/3 12/12/3
f 9/13/4 6/14/4 5/15/4 11/16/4
f 8/17/5 7/18/5 10/19/5 12/20/5
f 5/21/6 6/22/6 7/23/6 8/24/6
f 10/25/7 9/26/7 11/27/7 12/28/7
f 14/29/8 13/30/8 15/31/8 16/32/8
f 18/33/9 17/34/9 19/35/9 20/36/9
f 22/37/10 21/38/10 23/39/10 24/40/10
f 26/41/11 25/42/11 27/43/11 28/44/11
f 30/45/12 29/46/12 31/47/12 32/48/12
f 34/49/13 33/50/13 35/51/13 36/52/13
f 38/53/14 37/54/14 39/55/14 40/56/14
f 42/57/15 41/58/15 43/59/15 44/60/15
f 46/61/16 45/62/16 47/63/16 48/64/16
f 50/65/17 49/66/17 51/67/17 52/68/17