# Made by Pabilo8 in Blockbench 4.2.0
mtllib data_connector.mtl

o Main
v 0.625 1 0.625
v 0.625 1 0.375
v 0.6875 0.875 0.6875
v 0.6875 0.875 0.3125
v 0.375 1 0.625
v 0.375 1 0.375
v 0.3125 0.875 0.6875
v 0.3125 0.875 0.3125
v 0.75 0.375 0.75
v 0.75 0.375 0.25
v 0.75 0 0.75
v 0.75 0 0.25
v 0.25 0.375 0.75
v 0.25 0.375 0.25
v 0.25 0 0.75
v 0.25 0 0.25
v 0.75 0.875 0.75
v 0.75 0.875 0.25
v 0.75 0.75 0.75
v 0.75 0.75 0.25
v 0.25 0.875 0.75
v 0.25 0.875 0.25
v 0.25 0.75 0.75
v 0.25 0.75 0.25
v 0.6875 0.5 0.6875
v 0.6875 0.5 0.3125
v 0.6875 0.375 0.6875
v 0.6875 0.375 0.3125
v 0.3125 0.5 0.6875
v 0.3125 0.5 0.3125
v 0.3125 0.375 0.6875
v 0.3125 0.375 0.3125
v 0.75 0.625 0.75
v 0.75 0.625 0.25
v 0.75 0.5 0.75
v 0.75 0.5 0.25
v 0.25 0.625 0.75
v 0.25 0.625 0.25
v 0.25 0.5 0.75
v 0.25 0.5 0.25
v 0.6875 0.75 0.6875
v 0.6875 0.75 0.3125
v 0.6875 0.625 0.6875
v 0.6875 0.625 0.3125
v 0.3125 0.75 0.6875
v 0.3125 0.75 0.3125
v 0.3125 0.625 0.6875
v 0.3125 0.625 0.3125
vt 0.5625 0.625
vt 0.8125 0.625
vt 0.875 0.5
vt 0.5 0.5
vt 0.5 0.5
vt 0.5625 0.625
vt 0.8125 0.625
vt 0.875 0.5
vt 0.5 0.25
vt 0.75 0.25
vt 0.75 0.5
vt 0.5 0.5
vt 0.875 0.5
vt 0.8125 0.625
vt 0.5625 0.625
vt 0.5 0.5
vt 0.8125 0.625
vt 0.5625 0.625
vt 0.5 0.5
vt 0.875 0.5
vt 0 0.125
vt 0 0.5
vt 0.5 0.5
vt 0.5 0.125
vt 0.5 0.125
vt 0.5 0.5
vt 0 0.5
vt 0 0.125
vt 0.5 0.5
vt 0.5 1
vt 0 1
vt 0 0.5
vt 0.5 0.5
vt 0.5 1
vt 0 1
vt 0 0.5
vt 0.5 0.125
vt 0.5 0.5
vt 0 0.5
vt 0 0.125
vt 0.5 0.125
vt 0.5 0.5
vt 0 0.5
vt 0 0.125
vt 0.5 0.375
vt 0.5 0.5
vt 0 0.5
vt 0 0.375
vt 0.5 0.375
vt 0.5 0.5
vt 0 0.5
vt 0 0.375
vt 0.5 0.5
vt 0.5 1
vt 0 1
vt 0 0.5
vt 0.5 0.5
vt 0.5 1
vt 0 1
vt 0 0.5
vt 0.5 0.375
vt 0.5 0.5
vt 0 0.5
vt 0 0.375
vt 0.5 0.375
vt 0.5 0.5
vt 0 0.5
vt 0 0.375
vt 0.875 0.5
vt 0.875 0.625
vt 0.5 0.625
vt 0.5 0.5
vt 0.875 0.5
vt 0.875 0.625
vt 0.5 0.625
vt 0.5 0.5
vt 0.875 0.5
vt 0.875 0.625
vt 0.5 0.625
vt 0.5 0.5
vt 0.875 0.5
vt 0.875 0.625
vt 0.5 0.625
vt 0.5 0.5
vt 0.5 0.375
vt 0.5 0.5
vt 0 0.5
vt 0 0.375
vt 0.5 0.375
vt 0.5 0.5
vt 0 0.5
vt 0 0.375
vt 0.5 0.5
vt 0.5 1
vt 0 1
vt 0 0.5
vt 0.5 0.5
vt 0.5 1
vt 0 1
vt 0 0.5
vt 0.5 0.375
vt 0.5 0.5
vt 0 0.5
vt 0 0.375
vt 0.5 0.375
vt 0.5 0.5
vt 0 0.5
vt 0 0.375
vt 0.875 0.5
vt 0.875 0.625
vt 0.5 0.625
vt 0.5 0.5
vt 0.875 0.5
vt 0.875 0.625
vt 0.5 0.625
vt 0.5 0.5
vt 0.875 0.5
vt 0.875 0.625
vt 0.5 0.625
vt 0.5 0.5
vt 0.875 0.5
vt 0.875 0.625
vt 0.5 0.625
vt 0.5 0.5
vn 0.8944271909999161 0.44721359549995804 0
vn -0.8944271909999161 0.44721359549995804 0
vn 0 1 0
vn 0 0.44721359549995804 0.8944271909999161
vn 0 0.44721359549995804 -0.8944271909999161
vn 1 0 0
vn -1 0 0
vn 0 1 0
vn 0 -1 0
vn 0 0 1
vn 0 0 -1
vn 1 0 0
vn -1 0 0
vn 0 1 0
vn 0 -1 0
vn 0 0 1
vn 0 0 -1
vn 1 0 0
vn -1 0 0
vn 0 0 1
vn 0 0 -1
vn 1 0 0
vn -1 0 0
vn 0 1 0
vn 0 -1 0
vn 0 0 1
vn 0 0 -1
vn 1 0 0
vn -1 0 0
vn 0 0 1
vn 0 0 -1
usemtl m_0
f 2/1/1 1/2/1 3/3/1 4/4/1
f 7/5/2 5/6/2 6/7/2 8/8/2
f 5/9/3 1/10/3 2/11/3 6/12/3
f 3/13/4 1/14/4 5/15/4 7/16/4
f 6/17/5 2/18/5 4/19/5 8/20/5
f 12/21/6 10/22/6 9/23/6 11/24/6
f 15/25/7 13/26/7 14/27/7 16/28/7
f 9/29/8 10/30/8 14/31/8 13/32/8
f 12/33/9 11/34/9 15/35/9 16/36/9
f 11/37/10 9/38/10 13/39/10 15/40/10
f 16/41/11 14/42/11 10/43/11 12/44/11
f 20/45/12 18/46/12 17/47/12 19/48/12
f 23/49/13 21/50/13 22/51/13 24/52/13
f 17/53/14 18/54/14 22/55/14 21/56/14
f 20/57/15 19/58/15 23/59/15 24/60/15
f 19/61/16 17/62/16 21/63/16 23/64/16
f 24/65/17 22/66/17 18/67/17 20/68/17
f 28/69/18 26/70/18 25/71/18 27/72/18
f 31/73/19 29/74/19 30/75/19 32/76/19
f 27/77/20 25/78/20 29/79/20 31/80/20
f 32/81/21 30/82/21 26/83/21 28/84/21
f 36/85/22 34/86/22 33/87/22 35/88/22
f 39/89/23 37/90/23 38/91/23 40/92/23
f 33/93/24 34/94/24 38/95/24 37/96/24
f 36/97/25 35/98/25 39/99/25 40/100/25
f 35/101/26 33/102/26 37/103/26 39/104/26
f 40/105/27 38/106/27 34/107/27 36/108/27
f 44/109/28 42/110/28 41/111/28 43/112/28
f 47/113/29 45/114/29 46/115/29 48/116/29
f 43/117/30 41/118/30 45/119/30 47/120/30
f 48/121/31 46/122/31 42/123/31 44/124/31