# Made in Blockbench 4.7.4
mtllib gearbox.mtl

o cube
v -34 13 15.25
v -34 13 9.95
v -34 3 15.25
v -34 3 9.95
v -46 13 9.95
v -46 13 15.25
v -46 3 9.95
v -46 3 15.25
vt 0 1
vt 0.09375 1
vt 0.09375 0.921875
vt 0 0.921875
vt 0 1
vt 0.041406250000000006 1
vt 0.041406250000000006 0.921875
vt 0 0.921875
vt 0 1
vt 0.09375 1
vt 0.09375 0.921875
vt 0 0.921875
vt 0 1
vt 0.041406250000000006 1
vt 0.041406250000000006 0.921875
vt 0 0.921875
vt 0 1
vt 0.09375 1
vt 0.09375 0.95859375
vt 0 0.95859375
vt 0 1
vt 0.09375 1
vt 0.09375 0.95859375
vt 0 0.95859375
vn 0 0 -1
vn 1 0 0
vn 0 0 1
vn -1 0 0
vn 0 1 0
vn 0 -1 0
usemtl none
f 4/4/1 7/3/1 5/2/1 2/1/1
f 3/8/2 4/7/2 2/6/2 1/5/2
f 8/12/3 3/11/3 1/10/3 6/9/3
f 7/16/4 8/15/4 6/14/4 5/13/4
f 6/20/5 1/19/5 2/18/5 5/17/5
f 7/24/6 4/23/6 3/22/6 8/21/6
o cube
v -33 3 16.25
v -33 3 8.95
v -33 0 16.25
v -33 0 8.95
v -47 3 8.95
v -47 3 16.25
v -47 0 8.95
v -47 0 16.25
vt 0 1
vt 0.109375 1
vt 0.109375 0.9765625
vt 0 0.9765625
vt 0 1
vt 0.057031250000000006 1
vt 0.057031250000000006 0.9765625
vt 0 0.9765625
vt 0 1
vt 0.109375 1
vt 0.109375 0.9765625
vt 0 0.9765625
vt 0 1
vt 0.057031250000000006 1
vt 0.057031250000000006 0.9765625
vt 0 0.9765625
vt 0 1
vt 0.109375 1
vt 0.109375 0.94296875
vt 0 0.94296875
vt 0 1
vt 0.109375 1
vt 0.109375 0.94296875
vt 0 0.94296875
vn 0 0 -1
vn 1 0 0
vn 0 0 1
vn -1 0 0
vn 0 1 0
vn 0 -1 0
usemtl none
f 12/28/7 15/27/7 13/26/7 10/25/7
f 11/32/8 12/31/8 10/30/8 9/29/8
f 16/36/9 11/35/9 9/34/9 14/33/9
f 15/40/10 16/39/10 14/38/10 13/37/10
f 14/44/11 9/43/11 10/42/11 13/41/11
f 15/48/12 12/47/12 11/46/12 16/45/12
o cube
v -33 11.5 14.75
v -33 11.5 10.45
v -33 7.5 14.75
v -33 7.5 10.45
v -34 11.5 10.45
v -34 11.5 14.75
v -34 7.5 10.45
v -34 7.5 14.75
vt 0 1
vt 0.0078125 1
vt 0.0078125 0.96875
vt 0 0.96875
vt 0 1
vt 0.033593750000000006 1
vt 0.033593750000000006 0.96875
vt 0 0.96875
vt 0 1
vt 0.0078125 1
vt 0.0078125 0.96875
vt 0 0.96875
vt 0 1
vt 0.033593750000000006 1
vt 0.033593750000000006 0.96875
vt 0 0.96875
vt 0 1
vt 0.0078125 1
vt 0.0078125 0.96640625
vt 0 0.96640625
vt 0 1
vt 0.0078125 1
vt 0.0078125 0.96640625
vt 0 0.96640625
vn 0 0 -1
vn 1 0 0
vn 0 0 1
vn -1 0 0
vn 0 1 0
vn 0 -1 0
usemtl none
f 20/52/13 23/51/13 21/50/13 18/49/13
f 19/56/14 20/55/14 18/54/14 17/53/14
f 24/60/15 19/59/15 17/58/15 22/57/15
f 23/64/16 24/63/16 22/62/16 21/61/16
f 22/68/17 17/67/17 18/66/17 21/65/17
f 23/72/18 20/71/18 19/70/18 24/69/18
o cube
v -31 10.5 12
v -31 10.5 11
v -31 6.5 12
v -31 6.5 11
v -35 10.5 11
v -35 10.5 12
v -35 6.5 11
v -35 6.5 12
vt 0 1
vt 0.03125 1
vt 0.03125 0.96875
vt 0 0.96875
vt 0 1
vt 0.0078125 1
vt 0.0078125 0.96875
vt 0 0.96875
vt 0 1
vt 0.03125 1
vt 0.03125 0.96875
vt 0 0.96875
vt 0 1
vt 0.0078125 1
vt 0.0078125 0.96875
vt 0 0.96875
vt 0 1
vt 0.03125 1
vt 0.03125 0.9921875
vt 0 0.9921875
vt 0 1
vt 0.03125 1
vt 0.03125 0.9921875
vt 0 0.9921875
vn 0 0 -1
vn 1 0 0
vn 0 0 1
vn -1 0 0
vn 0 1 0
vn 0 -1 0
usemtl none
f 28/76/19 31/75/19 29/74/19 26/73/19
f 27/80/20 28/79/20 26/78/20 25/77/20
f 32/84/21 27/83/21 25/82/21 30/81/21
f 31/88/22 32/87/22 30/86/22 29/85/22
f 30/92/23 25/91/23 26/90/23 29/89/23
f 31/96/24 28/95/24 27/94/24 32/93/24
o cube
v -31 10.5 14
v -31 10.5 13
v -31 6.5 14
v -31 6.5 13
v -35 10.5 13
v -35 10.5 14
v -35 6.5 13
v -35 6.5 14
vt 0 1
vt 0.03125 1
vt 0.03125 0.96875
vt 0 0.96875
vt 0 1
vt 0.0078125 1
vt 0.0078125 0.96875
vt 0 0.96875
vt 0 1
vt 0.03125 1
vt 0.03125 0.96875
vt 0 0.96875
vt 0 1
vt 0.0078125 1
vt 0.0078125 0.96875
vt 0 0.96875
vt 0 1
vt 0.03125 1
vt 0.03125 0.9921875
vt 0 0.9921875
vt 0 1
vt 0.03125 1
vt 0.03125 0.9921875
vt 0 0.9921875
vn 0 0 -1
vn 1 0 0
vn 0 0 1
vn -1 0 0
vn 0 1 0
vn 0 -1 0
usemtl none
f 36/100/25 39/99/25 37/98/25 34/97/25
f 35/104/26 36/103/26 34/102/26 33/101/26
f 40/108/27 35/107/27 33/106/27 38/105/27
f 39/112/28 40/111/28 38/110/28 37/109/28
f 38/116/29 33/115/29 34/114/29 37/113/29
f 39/120/30 36/119/30 35/118/30 40/117/30
o cube
v -32 7.5 13
v -32 7.5 12
v -32 4.5 13
v -32 4.5 12
v -35 7.5 12
v -35 7.5 13
v -35 4.5 12
v -35 4.5 13
vt 0 1
vt 0.0234375 1
vt 0.0234375 0.9765625
vt 0 0.9765625
vt 0 1
vt 0.0078125 1
vt 0.0078125 0.9765625
vt 0 0.9765625
vt 0 1
vt 0.0234375 1
vt 0.0234375 0.9765625
vt 0 0.9765625
vt 0 1
vt 0.0078125 1
vt 0.0078125 0.9765625
vt 0 0.9765625
vt 0 1
vt 0.0234375 1
vt 0.0234375 0.9921875
vt 0 0.9921875
vt 0 1
vt 0.0234375 1
vt 0.0234375 0.9921875
vt 0 0.9921875
vn 0 0 -1
vn 1 0 0
vn 0 0 1
vn -1 0 0
vn 0 1 0
vn 0 -1 0
usemtl none
f 44/124/31 47/123/31 45/122/31 42/121/31
f 43/128/32 44/127/32 42/126/32 41/125/32
f 48/132/33 43/131/33 41/130/33 46/129/33
f 47/136/34 48/135/34 46/134/34 45/133/34
f 46/140/35 41/139/35 42/138/35 45/137/35
f 47/144/36 44/143/36 43/142/36 48/141/36