# Made by Pabilo8 with Blockbench
# Exported with IIToolkit Plugin on 22/09/2026
mtllib clipboard.mtl

o cube
v 0.8125 0 0.0625
v 0.8125 0.0625 0.9375
v 0.8125 0.0625 0.0625
v 0.8125 0 0.9375
v 0.1875 0.0625 0.9375
v 0.1875 0.0625 0.0625
v 0.1875 0 0.9375
v 0.1875 0 0.0625
v 0.625 0.125 1
v 0.625 0.125 0.875
v 0.625 0.0016 1
v 0.625 0.0016 0.875
v 0.375 0.125 1
v 0.375 0.125 0.875
v 0.375 0.0016 1
v 0.375 0.0016 0.875
v 0.75 0.0937 0.9389
v 0.75 0.1115 0.1266
v 0.75 0.0313 0.9375
v 0.75 0.049 0.1252
v 0.25 0.0937 0.9389
v 0.25 0.1115 0.1266
v 0.25 0.0313 0.9375
v 0.25 0.049 0.1252
vt 0.7188 0.4375
vt 0.6875 0.4375
vt 0.6875 0
vt 0.7188 0
vt 1 0.4375
vt 0.9688 0.4375
vt 0.9688 0
vt 1 0
vt 1 0
vt 1 0.4375
vt 0.6875 0.4375
vt 0.6875 0
vt 1 0
vt 1 0.4375
vt 0.6875 0.4375
vt 0.6875 0
vt 1 0.4063
vt 1 0.4375
vt 0.6875 0.4375
vt 0.6875 0.4063
vt 0.6875 0
vt 0.6875 0.0313
vt 1 0.0313
vt 1 0
vt 0.875 0.9063
vt 0.8125 0.9063
vt 0.8125 0.8438
vt 0.875 0.8438
vt 0.8125 0.8438
vt 0.8125 0.9063
vt 0.75 0.9063
vt 0.75 0.8438
vt 0.875 0.9063
vt 0.875 0.8438
vt 1 0.8438
vt 1 0.9063
vt 0.875 0.9063
vt 0.875 0.8438
vt 1 0.8438
vt 1 0.9063
vt 0.875 0.8438
vt 0.875 0.9063
vt 1 0.9063
vt 1 0.8438
vt 1 0.9063
vt 1 0.8438
vt 0.875 0.8438
vt 0.875 0.9063
vt 1 0.8438
vt 0.9688 0.8438
vt 0.9688 0.4375
vt 1 0.4375
vt 0.7813 0.8438
vt 0.75 0.8438
vt 0.75 0.4375
vt 0.7813 0.4375
vt 1 0.4375
vt 1 0.8438
vt 0.75 0.8438
vt 0.75 0.4375
vt 1 0.8438
vt 1 0.4375
vt 0.75 0.4375
vt 0.75 0.8438
vt 1 0.8125
vt 1 0.8438
vt 0.75 0.8438
vt 0.75 0.8125
vt 0.75 0.4375
vt 0.75 0.4688
vt 1 0.4688
vt 1 0.4375
vn 1 0 0
vn -1 0 0
vn 0 1 0
vn 0 -1 0
vn 0 0 1
vn 0 0 -1
vn 1 0 0
vn -1 0 0
vn 0 1 0
vn 0 -1 0
vn 0 0 1
vn 0 0 -1
vn 1 0 0
vn -1 0 0
vn 0 1 0.02
vn 0 -1 -0.02
vn 0 -0.02 1
vn 0 0.02 -1
usemtl engineeringtools
f 1/1/1 3/2/1 2/3/1
f 1/1/1 2/3/1 4/4/1
f 7/5/2 5/6/2 6/7/2
f 7/5/2 6/7/2 8/8/2
f 2/9/3 3/10/3 6/11/3
f 2/9/3 6/11/3 5/12/3
f 1/13/4 4/14/4 7/15/4
f 1/13/4 7/15/4 8/16/4
f 4/17/5 2/18/5 5/19/5
f 4/17/5 5/19/5 7/20/5
f 8/21/6 6/22/6 3/23/6
f 8/21/6 3/23/6 1/24/6
f 12/25/7 10/26/7 9/27/7
f 12/25/7 9/27/7 11/28/7
f 15/29/8 13/30/8 14/31/8
f 15/29/8 14/31/8 16/32/8
f 9/33/9 10/34/9 14/35/9
f 9/33/9 14/35/9 13/36/9
f 12/37/10 11/38/10 15/39/10
f 12/37/10 15/39/10 16/40/10
f 11/41/11 9/42/11 13/43/11
f 11/41/11 13/43/11 15/44/11
f 16/45/12 14/46/12 10/47/12
f 16/45/12 10/47/12 12/48/12
f 20/49/13 18/50/13 17/51/13
f 20/49/13 17/51/13 19/52/13
f 23/53/14 21/54/14 22/55/14
f 23/53/14 22/55/14 24/56/14
f 17/57/15 18/58/15 22/59/15
f 17/57/15 22/59/15 21/60/15
f 20/61/16 19/62/16 23/63/16
f 20/61/16 23/63/16 24/64/16
f 19/65/17 17/66/17 21/67/17
f 19/65/17 21/67/17 23/68/17
f 24/69/18 22/70/18 18/71/18
f 24/69/18 18/71/18 20/72/18