# Made by Pabilo8 with Blockbench
# Exported with IIToolkit Plugin on 29/05/2026
mtllib field_howitzer.mtl

o howizer
v -0.4375 0.3125 0.4375
v -0.4375 0.3125 0.375
v -0.4375 0.5625 0.4375
v -0.4375 0.5625 0.375
v -0.1875 0.3125 0.6875
v -0.1875 0.3125 0.375
v -0.1875 0.5625 0.6875
v -0.1875 0.5625 0.375
v -0.1875 0.5625 0.375
v -0.1875 0.5625 -0.3125
v -0.1875 0.3125 0.375
v -0.1875 0.3125 -0.3125
v -0.4375 0.5625 0.375
v -0.4375 0.5625 -0.3125
v -0.4375 0.3125 0.375
v -0.4375 0.3125 -0.3125
v 0.3125 0.5625 0.6875
v 0.3125 0.5625 0.4375
v 0.3125 0.3125 0.6875
v 0.3125 0.3125 0.4375
v -0.1875 0.5625 0.6875
v -0.1875 0.5625 0.4375
v -0.1875 0.3125 0.6875
v -0.1875 0.3125 0.4375
v 0.5625 0.5625 0.4375
v 0.5625 0.5625 0.375
v 0.5625 0.3125 0.4375
v 0.5625 0.3125 0.375
v 0.3125 0.5625 0.6875
v 0.3125 0.5625 0.375
v 0.3125 0.3125 0.6875
v 0.3125 0.3125 0.375
v 0.5625 0.5625 0.375
v 0.5625 0.5625 -0.3125
v 0.5625 0.3125 0.375
v 0.5625 0.3125 -0.3125
v 0.3125 0.5625 0.375
v 0.3125 0.5625 -0.3125
v 0.3125 0.3125 0.375
v 0.3125 0.3125 -0.3125
v 0.25 0.5625 0.9375
v 0.25 0.5625 0.6875
v 0.25 0.3125 0.9375
v 0.25 0.3125 0.6875
v -0.125 0.5625 0.9375
v -0.125 0.5625 0.6875
v -0.125 0.3125 0.9375
v -0.125 0.3125 0.6875
v 0.25 0.5625 1.0625
v 0.25 0.5625 0.9375
v 0.25 0.3125 1.0625
v 0.25 0.3125 0.9375
v 0.125 0.5625 1.0625
v 0.125 0.5625 0.9375
v 0.125 0.3125 1.0625
v 0.125 0.3125 0.9375
v 0 0.5625 1.0625
v 0 0.5625 0.9375
v 0 0.3125 1.0625
v 0 0.3125 0.9375
v -0.125 0.5625 1.0625
v -0.125 0.5625 0.9375
v -0.125 0.3125 1.0625
v -0.125 0.3125 0.9375
v 0.25 0.5625 1.1875
v 0.25 0.5625 1.0625
v 0.25 0.3125 1.1875
v 0.25 0.3125 1.0625
v -0.125 0.5625 1.1875
v -0.125 0.5625 1.0625
v -0.125 0.3125 1.1875
v -0.125 0.3125 1.0625
v 0.5625 0.5625 -0.3125
v 0.5625 0.5625 -0.5625
v 0.5625 0.1875 -0.3125
v 0.5625 0.1875 -0.5625
v -0.4375 0.5625 -0.3125
v -0.4375 0.5625 -0.5625
v -0.4375 0.1875 -0.3125
v -0.4375 0.1875 -0.5625
v 0.375 1.1974 -0.3243
v 0.375 1.1757 -0.4474
v 0.375 1.0743 -0.3026
v 0.375 1.0526 -0.4257
v 0.3125 1.1974 -0.3243
v 0.3125 1.1757 -0.4474
v 0.3125 1.0743 -0.3026
v 0.3125 1.0526 -0.4257
v -0.1875 1.1974 -0.3243
v -0.1875 1.1757 -0.4474
v -0.1875 1.0743 -0.3026
v -0.1875 1.0526 -0.4257
v -0.25 1.1974 -0.3243
v -0.25 1.1757 -0.4474
v -0.25 1.0743 -0.3026
v -0.25 1.0526 -0.4257
v 0.625 0.5 -0.125
v 0.625 0.5 -0.25
v 0.625 0.375 -0.125
v 0.625 0.375 -0.25
v -0.5 0.5 -0.125
v -0.5 0.5 -0.25
v -0.5 0.375 -0.125
v -0.5 0.375 -0.25
v 0.6875 0.625 0
v 0.6875 0.625 -0.375
v 0.6875 0.25 0
v 0.6875 0.25 -0.375
v 0.625 0.625 0
v 0.625 0.625 -0.375
v 0.625 0.25 0
v 0.625 0.25 -0.375
v -0.5 0.625 0
v -0.5 0.625 -0.375
v -0.5 0.25 0
v -0.5 0.25 -0.375
v -0.5625 0.625 0
v -0.5625 0.625 -0.375
v -0.5625 0.25 0
v -0.5625 0.25 -0.375
v -0.25 0.9375 -0.3125
v -0.25 0.9375 -0.5562
v -0.25 0.5625 -0.3125
v -0.25 0.5625 -0.5625
v -0.375 0.9375 -0.3125
v -0.375 0.9375 -0.5562
v -0.375 0.5625 -0.3125
v -0.375 0.5625 -0.5625
v 0.5 0.9375 -0.3125
v 0.5 0.9375 -0.5562
v 0.5 0.5625 -0.3125
v 0.5 0.5625 -0.5625
v 0.375 0.9375 -0.3125
v 0.375 0.9375 -0.5562
v 0.375 0.5625 -0.3125
v 0.375 0.5625 -0.5625
v 0.375 1.2516 -0.2441
v 0.375 1.2537 -0.5566
v 0.375 1.0016 -0.2463
v 0.375 1.0038 -0.5588
v 0.5 1.2516 -0.2441
v 0.5 1.2537 -0.5566
v 0.5 1.0016 -0.2463
v 0.5 1.0038 -0.5588
v -0.25 1.2516 -0.2441
v -0.25 1.2537 -0.5566
v -0.25 1.0016 -0.2463
v -0.25 1.0038 -0.5588
v -0.375 1.2516 -0.2441
v -0.375 1.2537 -0.5566
v -0.375 1.0016 -0.2463
v -0.375 1.0038 -0.5588
v -0.25 1.6662 -0.5533
v -0.25 1.6673 -0.6783
v -0.25 0.4163 -0.5642
v -0.25 0.4174 -0.6892
v -0.375 1.6662 -0.5533
v -0.375 1.6673 -0.6783
v -0.375 0.4163 -0.5642
v -0.375 0.4174 -0.6892
v -0.25 1.6673 -0.6783
v -0.25 1.6679 -0.7408
v -0.25 0.4174 -0.6892
v -0.25 0.4179 -0.7517
v -0.875 1.6673 -0.6783
v -0.875 1.6679 -0.7408
v -1 0.4174 -0.6892
v -1 0.4179 -0.7517
v -1 1.4804 -0.7424
v -0.25 1.4804 -0.7424
v -0.25 1.4798 -0.6799
v -1 1.4798 -0.6799
v 0.5 1.6662 -0.5533
v 0.5 1.6673 -0.6783
v 0.5 0.4163 -0.5642
v 0.5 0.4174 -0.6892
v 0.375 1.6662 -0.5533
v 0.375 1.6673 -0.6783
v 0.375 0.4163 -0.5642
v 0.375 0.4174 -0.6892
v 1 1.6673 -0.6783
v 1 1.6679 -0.7408
v 1.125 0.4174 -0.6892
v 1.125 0.4179 -0.7517
v 0.375 1.6673 -0.6783
v 0.375 1.6679 -0.7408
v 0.375 0.4174 -0.6892
v 0.375 0.4179 -0.7517
v 0.375 1.4804 -0.7424
v 1.125 1.4804 -0.7424
v 1.125 1.4798 -0.6799
v 0.375 1.4798 -0.6799
v 1.0625 1.2939 -0.621
v 1.0625 1.2944 -0.6835
v 1.0625 0.9189 -0.6242
v 1.0625 0.9194 -0.6867
v 0.5 1.2939 -0.621
v 0.5 1.2944 -0.6835
v 0.5 0.9189 -0.6242
v 0.5 0.9194 -0.6867
vt 0.4688 0.4688
vt 0.4688 0.5313
vt 0.4531 0.5313
vt 0.4531 0.4688
vt 0.3125 0.4688
vt 0.3125 0.5313
vt 0.2344 0.5313
vt 0.2344 0.4688
vt 0.4844 0.5938
vt 0.4844 0.6094
vt 0.4219 0.6094
vt 0.4219 0.5313
vt 0.4531 0.6094
vt 0.4531 0.5938
vt 0.5156 0.5313
vt 0.5156 0.6094
vt 0.604 0.4688
vt 0.604 0.5313
vt 0.5156 0.5313
vt 0.5156 0.4688
vt 0.3906 0.4688
vt 0.3906 0.5313
vt 0.3281 0.5313
vt 0.3281 0.4688
vt 0.1875 0.0625
vt 0.1875 0
vt 0.0156 0
vt 0.0156 0.0625
vt 0.0156 0.0625
vt 0.0156 0
vt 0.1875 0
vt 0.1875 0.0625
vt 0 0.125
vt 0.1719 0.125
vt 0.1719 0.0625
vt 0 0.0625
vt 0.1719 0.125
vt 0 0.125
vt 0 0.0625
vt 0.1719 0.0625
vt 0.4219 0.5313
vt 0.4219 0.5938
vt 0.2969 0.5938
vt 0.2969 0.5313
vt 0.4219 0.5938
vt 0.4219 0.5313
vt 0.2969 0.5313
vt 0.2969 0.5938
vt 0.4844 0.4688
vt 0.4844 0.5313
vt 0.6094 0.5313
vt 0.6094 0.4688
vt 0.2969 0.4688
vt 0.2969 0.5313
vt 0.4219 0.5313
vt 0.4219 0.4688
vt 0.4688 0.4688
vt 0.4688 0.5313
vt 0.4531 0.5313
vt 0.4531 0.4688
vt 0.3125 0.4688
vt 0.3125 0.5313
vt 0.2344 0.5313
vt 0.2344 0.4688
vt 0.4844 0.5938
vt 0.4844 0.6094
vt 0.4219 0.6094
vt 0.4219 0.5313
vt 0.4844 0.6094
vt 0.4844 0.5938
vt 0.4219 0.5313
vt 0.4219 0.6094
vt 0.604 0.4688
vt 0.604 0.5313
vt 0.5156 0.5313
vt 0.5156 0.4688
vt 0.3906 0.4688
vt 0.3906 0.5313
vt 0.3281 0.5313
vt 0.3281 0.4688
vt 0.1875 0.0625
vt 0.1875 0
vt 0.0156 0
vt 0.0156 0.0625
vt 0.0156 0.0625
vt 0.0156 0
vt 0.1875 0
vt 0.1875 0.0625
vt 0 0.125
vt 0.1719 0.125
vt 0.1719 0.0625
vt 0 0.0625
vt 0.1719 0.125
vt 0 0.125
vt 0 0.0625
vt 0.1719 0.0625
vt 0.2188 0.125
vt 0.2188 0.1875
vt 0.1563 0.1875
vt 0.1563 0.125
vt 0 0.125
vt 0 0.1875
vt 0.0625 0.1875
vt 0.0625 0.125
vt 0.1563 0.25
vt 0.1563 0.1875
vt 0.0625 0.1875
vt 0.0625 0.25
vt 0.25 0.25
vt 0.25 0.1875
vt 0.1563 0.1875
vt 0.1563 0.25
vt 0.2188 0.125
vt 0.2188 0.1875
vt 0.3125 0.1875
vt 0.3125 0.125
vt 0.0625 0.125
vt 0.0625 0.1875
vt 0.1563 0.1875
vt 0.1563 0.125
vt 0.25 0
vt 0.25 0.0625
vt 0.2813 0.0625
vt 0.2813 0
vt 0.3125 0
vt 0.3125 0.0625
vt 0.2813 0.0625
vt 0.2813 0
vt 0.2813 0.0938
vt 0.2813 0.0625
vt 0.3125 0.0625
vt 0.3125 0.0938
vt 0.2813 0.0625
vt 0.2813 0.0938
vt 0.3125 0.0938
vt 0.3125 0.0625
vt 0.2813 0
vt 0.2813 0.0625
vt 0.3125 0.0625
vt 0.3125 0
vt 0.2813 0
vt 0.2813 0.0625
vt 0.25 0.0625
vt 0.25 0
vt 0.3125 0.0938
vt 0.3125 0.0625
vt 0.2813 0.0625
vt 0.2813 0.0938
vt 0.3125 0.0625
vt 0.3125 0.0938
vt 0.2813 0.0938
vt 0.2813 0.0625
vt 0.4063 0
vt 0.4063 0.0625
vt 0.4375 0.0625
vt 0.4375 0
vt 0.4375 0
vt 0.4375 0.0625
vt 0.4063 0.0625
vt 0.4063 0
vt 0.5 0.0625
vt 0.5 0.0938
vt 0.4063 0.0938
vt 0.4063 0.0625
vt 0.5 0.0938
vt 0.5 0.0625
vt 0.4063 0.0625
vt 0.4063 0.0938
vt 0.4375 0
vt 0.4375 0.0625
vt 0.5313 0.0625
vt 0.5313 0
vt 0.3125 0
vt 0.3125 0.0625
vt 0.4063 0.0625
vt 0.4063 0
vt 0.25 0.9063
vt 0.25 1
vt 0.3125 1
vt 0.3125 0.9063
vt 0.25 0.9063
vt 0.25 1
vt 0.3125 1
vt 0.3125 0.9063
vt 0.8125 1
vt 0.8125 0.9375
vt 0.5625 0.9375
vt 0.5625 1
vt 0.5625 0.9375
vt 0.5625 1
vt 0.8125 1
vt 0.8125 0.9375
vt 0.3125 0.9063
vt 0.3125 1
vt 0.5625 1
vt 0.5625 0.9063
vt 0.3125 0.9063
vt 0.3125 1
vt 0.5625 1
vt 0.5625 0.9063
vt 0.0781 0.9844
vt 0.0781 0.9531
vt 0.0625 0.9531
vt 0.0625 0.9844
vt 0.0781 0.9531
vt 0.0781 0.9844
vt 0.0625 0.9844
vt 0.0625 0.9531
vt 0.0469 0.9531
vt 0.0469 0.9844
vt 0.0625 0.9844
vt 0.0625 0.9531
vt 0.0469 0.9844
vt 0.0469 0.9531
vt 0.0625 0.9531
vt 0.0625 0.9844
vt 0.0781 0.9844
vt 0.0781 0.9531
vt 0.0625 0.9531
vt 0.0625 0.9844
vt 0.0781 0.9531
vt 0.0781 0.9844
vt 0.0625 0.9844
vt 0.0625 0.9531
vt 0.0469 0.9531
vt 0.0469 0.9844
vt 0.0625 0.9844
vt 0.0625 0.9531
vt 0.0469 0.9844
vt 0.0469 0.9531
vt 0.0625 0.9531
vt 0.0625 0.9844
vt 0.0313 0.2969
vt 0.0313 0.2656
vt 0.3125 0.2656
vt 0.3125 0.2969
vt 0.0313 0.2969
vt 0.0313 0.2656
vt 0.3125 0.2656
vt 0.3125 0.2969
vt 0.0313 0.2656
vt 0.0313 0.2969
vt 0.3125 0.2969
vt 0.3125 0.2656
vt 0.3125 0.2969
vt 0.3125 0.2656
vt 0.0313 0.2656
vt 0.0313 0.2969
vt 0.2188 0.4531
vt 0.2188 0.3594
vt 0.3125 0.3594
vt 0.3125 0.4531
vt 0.2344 0.3594
vt 0.2344 0.4531
vt 0.2188 0.4531
vt 0.2188 0.3594
vt 0.3125 0.4531
vt 0.3125 0.3594
vt 0.2969 0.3594
vt 0.2969 0.4531
vt 0.2188 0.4531
vt 0.2188 0.3594
vt 0.2344 0.3594
vt 0.2344 0.4531
vt 0.2969 0.4531
vt 0.2969 0.3594
vt 0.3125 0.3594
vt 0.3125 0.4531
vt 0.3125 0.4531
vt 0.3125 0.3594
vt 0.2188 0.3594
vt 0.2188 0.4531
vt 0.2344 0.3594
vt 0.2344 0.4531
vt 0.2188 0.4531
vt 0.2188 0.3594
vt 0.3125 0.4531
vt 0.3125 0.3594
vt 0.2969 0.3594
vt 0.2969 0.4531
vt 0.2188 0.4531
vt 0.2188 0.3594
vt 0.2344 0.3594
vt 0.2344 0.4531
vt 0.2969 0.4531
vt 0.2969 0.3594
vt 0.3125 0.3594
vt 0.3125 0.4531
vt 0.6547 0.8906
vt 0.5938 0.8906
vt 0.5938 0.7969
vt 0.6563 0.7969
vt 0.6563 0.7969
vt 0.6563 0.8906
vt 0.5953 0.8906
vt 0.5938 0.7969
vt 0.6563 0.8906
vt 0.6563 0.9219
vt 0.5938 0.9219
vt 0.5938 0.8906
vt 0.5938 0.7969
vt 0.5938 0.8906
vt 0.5625 0.8906
vt 0.5625 0.7969
vt 0.6547 0.8906
vt 0.5938 0.8906
vt 0.5938 0.7969
vt 0.6563 0.7969
vt 0.6563 0.7969
vt 0.6563 0.8906
vt 0.5953 0.8906
vt 0.5938 0.7969
vt 0.6563 0.8906
vt 0.6563 0.9219
vt 0.5938 0.9219
vt 0.5938 0.8906
vt 0.5938 0.7969
vt 0.5938 0.8906
vt 0.5625 0.8906
vt 0.5625 0.7969
vt 0.1094 0.9219
vt 0.0313 0.9217
vt 0.0313 0.8594
vt 0.1094 0.8595
vt 0.0469 0.9217
vt 0.125 0.9219
vt 0.125 0.8595
vt 0.0469 0.8594
vt 0.1563 0.8594
vt 0.1563 0.8906
vt 0.2344 0.8906
vt 0.2344 0.8594
vt 0.2344 0.9219
vt 0.2344 0.8906
vt 0.1563 0.8906
vt 0.1563 0.9219
vt 0.25 0.9219
vt 0.2188 0.9219
vt 0.2188 0.8594
vt 0.25 0.8594
vt 0.0313 0.8594
vt 0.0313 0.9217
vt 0.1094 0.9219
vt 0.1094 0.8595
vt 0.125 0.8595
vt 0.125 0.9219
vt 0.0469 0.9217
vt 0.0469 0.8594
vt 0.2344 0.8906
vt 0.1563 0.8906
vt 0.1563 0.8594
vt 0.2344 0.8594
vt 0.1563 0.8906
vt 0.2344 0.8906
vt 0.2344 0.9219
vt 0.1563 0.9219
vt 0.2188 0.8594
vt 0.2188 0.9219
vt 0.25 0.9219
vt 0.25 0.8594
vt 0.3125 0.125
vt 0.3125 0.4375
vt 0.3438 0.4375
vt 0.3438 0.125
vt 0.3125 0.125
vt 0.3125 0.4375
vt 0.3438 0.4375
vt 0.3438 0.125
vt 0.3125 0.4688
vt 0.3125 0.4375
vt 0.3438 0.4375
vt 0.3438 0.4688
vt 0.3438 0.4688
vt 0.3438 0.4375
vt 0.3125 0.4375
vt 0.3125 0.4688
vt 0.3438 0.125
vt 0.3438 0.4375
vt 0.3125 0.4375
vt 0.3125 0.125
vt 0.3594 0.4688
vt 0.3594 0.4219
vt 0.3438 0.4219
vt 0.3438 0.4688
vt 0.5313 0.4688
vt 0.5313 0.4219
vt 0.5156 0.4219
vt 0.5156 0.4688
vt 0.3438 0.4688
vt 0.3438 0.4531
vt 0.5313 0.4531
vt 0.5313 0.4688
vt 0.3438 0.1563
vt 0.3438 0.1719
vt 0.5313 0.1719
vt 0.5313 0.1563
vt 0.375 0.4688
vt 0.3438 0.4219
vt 0.5313 0.4219
vt 0.5313 0.4688
vt 0.3438 0.4688
vt 0.3438 0.4219
vt 0.5313 0.4219
vt 0.5 0.4688
vt 0.5313 0.1563
vt 0.5313 0.4219
vt 0.3438 0.4219
vt 0.3438 0.1563
vt 0.3438 0.1563
vt 0.3438 0.4219
vt 0.3594 0.4219
vt 0.3594 0.1563
vt 0.3438 0.1563
vt 0.3438 0.4219
vt 0.5313 0.4219
vt 0.5313 0.1563
vt 0.5156 0.1563
vt 0.5156 0.4219
vt 0.5313 0.4219
vt 0.5313 0.1563
vt 0.3125 0.125
vt 0.3125 0.4375
vt 0.3438 0.4375
vt 0.3438 0.125
vt 0.3125 0.125
vt 0.3125 0.4375
vt 0.3438 0.4375
vt 0.3438 0.125
vt 0.3125 0.4688
vt 0.3125 0.4375
vt 0.3438 0.4375
vt 0.3438 0.4688
vt 0.3438 0.4688
vt 0.3438 0.4375
vt 0.3125 0.4375
vt 0.3125 0.4688
vt 0.3438 0.125
vt 0.3438 0.4375
vt 0.3125 0.4375
vt 0.3125 0.125
vt 0.3594 0.4688
vt 0.3594 0.4219
vt 0.3438 0.4219
vt 0.3438 0.4688
vt 0.5313 0.4688
vt 0.5313 0.4219
vt 0.5156 0.4219
vt 0.5156 0.4688
vt 0.3438 0.4688
vt 0.3438 0.4531
vt 0.5313 0.4531
vt 0.5313 0.4688
vt 0.3438 0.1563
vt 0.3438 0.1719
vt 0.5313 0.1719
vt 0.5313 0.1563
vt 0.5313 0.4688
vt 0.5313 0.4219
vt 0.3438 0.4219
vt 0.375 0.4688
vt 0.375 0.4688
vt 0.3438 0.4219
vt 0.5313 0.4219
vt 0.5313 0.4688
vt 0.5313 0.1563
vt 0.5313 0.4219
vt 0.3438 0.4219
vt 0.3438 0.1563
vt 0.3438 0.1563
vt 0.3438 0.4219
vt 0.3594 0.4219
vt 0.3594 0.1563
vt 0.3438 0.1563
vt 0.3438 0.4219
vt 0.5313 0.4219
vt 0.5313 0.1563
vt 0.5156 0.1563
vt 0.5156 0.4219
vt 0.5313 0.4219
vt 0.5313 0.1563
vt 0 0.7656
vt 0 0.8594
vt 0.0156 0.8594
vt 0.0156 0.7656
vt 0 0.7656
vt 0 0.8594
vt 0.0156 0.8594
vt 0.0156 0.7656
vt 0.1406 0.8594
vt 0.1406 0.8438
vt 0 0.8438
vt 0 0.8594
vt 0.1406 0.8438
vt 0.1406 0.8594
vt 0 0.8594
vt 0 0.8438
vt 0 0.7656
vt 0 0.8594
vt 0.1406 0.8594
vt 0.1406 0.7656
vn -1 0 0
vn 1 0 0
vn 0 -1 0
vn 0 1 0
vn -0.71 0 0.71
vn 0 0 -1
vn 1 0 0
vn -1 0 0
vn 0 1 0
vn 0 -1 0
vn 0 1 0
vn 0 -1 0
vn 0 0 1
vn 0 0 -1
vn 1 0 0
vn -1 0 0
vn 0 1 0
vn 0 -1 0
vn 0.71 0 0.71
vn 0 0 -1
vn 1 0 0
vn -1 0 0
vn 0 1 0
vn 0 -1 0
vn 1 0 0
vn -1 0 0
vn 0 1 0
vn 0 -1 0
vn 0 0 1
vn 0 0 -1
vn 1 0 0
vn -1 0 0
vn 0 1 0
vn 0 -1 0
vn 1 0 0
vn -1 0 0
vn 0 1 0
vn 0 -1 0
vn 1 0 0
vn -1 0 0
vn 0 1 0
vn 0 -1 0
vn 0 0 1
vn 0 0 -1
vn 1 0 0
vn -1 0 0
vn 0 1 0
vn 0 -1 0
vn 0 0 1
vn 0 0 -1
vn 0 0.98 -0.17
vn 0 -0.98 0.17
vn 0 0.17 0.98
vn 0 -0.17 -0.98
vn 0 0.98 -0.17
vn 0 -0.98 0.17
vn 0 0.17 0.98
vn 0 -0.17 -0.98
vn 0 1 0
vn 0 -1 0
vn 0 0 1
vn 0 0 -1
vn -1 0 0
vn 0 1 0
vn 0 -1 0
vn 0 0 1
vn 0 0 -1
vn 1 0 0
vn 0 1 0
vn 0 -1 0
vn 0 0 1
vn 0 0 -1
vn 1 0 0
vn -1 0 0
vn 0 1 0
vn 0 0 1
vn 1 0 0
vn -1 0 0
vn 0 1 0
vn 0 0 1
vn -1 0 0
vn 1 0 0
vn 0 1 0.01
vn 0 -1 -0.01
vn 0 -0.01 1
vn 1 0 0
vn -1 0 0
vn 0 1 0.01
vn 0 -1 -0.01
vn 0 -0.01 1
vn 1 0 0
vn -1 0 0
vn 0 1 0.01
vn 0 -1 -0.01
vn 0 -0.01 1
vn 1 0 0
vn -0.83 0.55 0
vn 0 1 0.01
vn 0 -1 -0.01
vn 0 -0.01 1
vn 0 0.01 -1
vn 0 0.01 -1
vn 1 0 0
vn 0 -0.01 1
vn -1 0 0
vn 1 0 0
vn -1 0 0
vn 0 1 0.01
vn 0 -1 -0.01
vn 0 -0.01 1
vn 0.83 0.55 0
vn -1 0 0
vn 0 1 0.01
vn 0 -1 -0.01
vn 0 -0.01 1
vn 0 0.01 -1
vn 0 0.01 -1
vn 1 0 0
vn 0 -0.01 1
vn -1 0 0
vn 1 0 0
vn -1 0 0
vn 0 1 0.01
vn 0 -1 -0.01
vn 0 -0.01 1
usemtl field_howitzer_paint
f 4/1/1 2/2/1 1/3/1 3/4/1
f 7/5/2 5/6/2 6/7/2 8/8/2
f 1/9/3 2/10/3 6/11/3 5/12/3
f 4/13/4 3/14/4 7/15/4 8/16/4
f 3/17/5 1/18/5 5/19/5 7/20/5
f 8/21/6 6/22/6 2/23/6 4/24/6
f 12/25/7 10/26/7 9/27/7 11/28/7
f 15/29/8 13/30/8 14/31/8 16/32/8
f 9/33/9 10/34/9 14/35/9 13/36/9
f 12/37/10 11/38/10 15/39/10 16/40/10
f 17/41/11 18/42/11 22/43/11 21/44/11
f 20/45/12 19/46/12 23/47/12 24/48/12
f 19/49/13 17/50/13 21/51/13 23/52/13
f 24/53/14 22/54/14 18/55/14 20/56/14
f 28/57/15 26/58/15 25/59/15 27/60/15
f 31/61/16 29/62/16 30/63/16 32/64/16
f 25/65/17 26/66/17 30/67/17 29/68/17
f 28/69/18 27/70/18 31/71/18 32/72/18
f 27/73/19 25/74/19 29/75/19 31/76/19
f 32/77/20 30/78/20 26/79/20 28/80/20
f 36/81/21 34/82/21 33/83/21 35/84/21
f 39/85/22 37/86/22 38/87/22 40/88/22
f 33/89/23 34/90/23 38/91/23 37/92/23
f 36/93/24 35/94/24 39/95/24 40/96/24
f 44/97/25 42/98/25 41/99/25 43/100/25
f 47/101/26 45/102/26 46/103/26 48/104/26
f 41/105/27 42/106/27 46/107/27 45/108/27
f 44/109/28 43/110/28 47/111/28 48/112/28
f 43/113/29 41/114/29 45/115/29 47/116/29
f 48/117/30 46/118/30 42/119/30 44/120/30
f 52/121/31 50/122/31 49/123/31 51/124/31
f 55/125/32 53/126/32 54/127/32 56/128/32
f 49/129/33 50/130/33 54/131/33 53/132/33
f 52/133/34 51/134/34 55/135/34 56/136/34
f 60/137/35 58/138/35 57/139/35 59/140/35
f 63/141/36 61/142/36 62/143/36 64/144/36
f 57/145/37 58/146/37 62/147/37 61/148/37
f 60/149/38 59/150/38 63/151/38 64/152/38
f 68/153/39 66/154/39 65/155/39 67/156/39
f 71/157/40 69/158/40 70/159/40 72/160/40
f 65/161/41 66/162/41 70/163/41 69/164/41
f 68/165/42 67/166/42 71/167/42 72/168/42
f 67/169/43 65/170/43 69/171/43 71/172/43
f 72/173/44 70/174/44 66/175/44 68/176/44
usemtl field_howitzer
f 76/177/45 74/178/45 73/179/45 75/180/45
f 79/181/46 77/182/46 78/183/46 80/184/46
f 73/185/47 74/186/47 78/187/47 77/188/47
f 76/189/48 75/190/48 79/191/48 80/192/48
f 75/193/49 73/194/49 77/195/49 79/196/49
f 80/197/50 78/198/50 74/199/50 76/200/50
f 81/201/51 82/202/51 86/203/51 85/204/51
f 84/205/52 83/206/52 87/207/52 88/208/52
f 83/209/53 81/210/53 85/211/53 87/212/53
f 88/213/54 86/214/54 82/215/54 84/216/54
f 89/217/55 90/218/55 94/219/55 93/220/55
f 92/221/56 91/222/56 95/223/56 96/224/56
f 91/225/57 89/226/57 93/227/57 95/228/57
f 96/229/58 94/230/58 90/231/58 92/232/58
f 97/233/59 98/234/59 102/235/59 101/236/59
f 100/237/60 99/238/60 103/239/60 104/240/60
f 99/241/61 97/242/61 101/243/61 103/244/61
f 104/245/62 102/246/62 98/247/62 100/248/62
f 111/249/63 109/250/63 110/251/63 112/252/63
f 105/253/64 106/254/64 110/255/64 109/256/64
f 108/257/65 107/258/65 111/259/65 112/260/65
f 107/261/66 105/262/66 109/263/66 111/264/66
f 112/265/67 110/266/67 106/267/67 108/268/67
f 116/269/68 114/270/68 113/271/68 115/272/68
f 113/273/69 114/274/69 118/275/69 117/276/69
f 116/277/70 115/278/70 119/279/70 120/280/70
f 115/281/71 113/282/71 117/283/71 119/284/71
f 120/285/72 118/286/72 114/287/72 116/288/72
f 122/289/73 121/290/73 123/291/73 124/292/73
f 127/293/74 125/294/74 126/295/74 128/296/74
f 125/297/75 121/298/75 122/299/75 126/300/75
f 123/301/76 121/302/76 125/303/76 127/304/76
f 130/305/77 129/306/77 131/307/77 132/308/77
f 135/309/78 133/310/78 134/311/78 136/312/78
f 133/313/79 129/314/79 130/315/79 134/316/79
f 131/317/80 129/318/80 133/319/80 135/320/80
f 137/321/81 138/322/81 140/323/81 139/324/81
f 142/325/82 141/326/82 143/327/82 144/328/82
f 142/329/83 138/330/83 137/331/83 141/332/83
f 143/333/84 139/334/84 140/335/84 144/336/84
f 141/337/85 137/338/85 139/339/85 143/340/85
f 148/341/86 146/342/86 145/343/86 147/344/86
f 151/345/87 149/346/87 150/347/87 152/348/87
f 145/349/88 146/350/88 150/351/88 149/352/88
f 148/353/89 147/354/89 151/355/89 152/356/89
f 147/357/90 145/358/90 149/359/90 151/360/90
usemtl field_howitzer_paint
f 156/361/91 154/362/91 153/363/91 155/364/91
f 159/365/92 157/366/92 158/367/92 160/368/92
f 153/369/93 154/370/93 158/371/93 157/372/93
f 156/373/94 155/374/94 159/375/94 160/376/94
f 155/377/95 153/378/95 157/379/95 159/380/95
f 161/381/96 171/382/96 170/383/96 162/384/96
f 166/385/97 169/386/97 172/387/97 165/388/97
f 161/389/98 162/390/98 166/391/98 165/392/98
f 164/393/99 163/394/99 167/395/99 168/396/99
f 165/397/100 172/398/100 171/399/100 161/400/100
f 162/401/101 170/402/101 169/403/101 166/404/101
f 168/405/102 169/406/102 170/407/102 164/408/102
f 164/409/103 170/410/103 171/411/103 163/412/103
f 163/413/104 171/414/104 172/415/104 167/416/104
f 167/417/105 172/418/105 169/419/105 168/420/105
f 176/421/106 174/422/106 173/423/106 175/424/106
f 179/425/107 177/426/107 178/427/107 180/428/107
f 173/429/108 174/430/108 178/431/108 177/432/108
f 176/433/109 175/434/109 179/435/109 180/436/109
f 175/437/110 173/438/110 177/439/110 179/440/110
f 181/441/111 191/442/111 190/443/111 182/444/111
f 186/445/112 189/446/112 192/447/112 185/448/112
f 181/449/113 182/450/113 186/451/113 185/452/113
f 184/453/114 183/454/114 187/455/114 188/456/114
f 185/457/115 192/458/115 191/459/115 181/460/115
f 182/461/116 190/462/116 189/463/116 186/464/116
f 188/465/117 189/466/117 190/467/117 184/468/117
f 184/469/118 190/470/118 191/471/118 183/472/118
f 183/473/119 191/474/119 192/475/119 187/476/119
f 187/477/120 192/478/120 189/479/120 188/480/120
usemtl field_howitzer
f 196/481/121 194/482/121 193/483/121 195/484/121
f 199/485/122 197/486/122 198/487/122 200/488/122
f 193/489/123 194/490/123 198/491/123 197/492/123
f 196/493/124 195/494/124 199/495/124 200/496/124
f 195/497/125 193/498/125 197/499/125 199/500/125
o howi
v 0.25 1.3757 -0.7532
v 0.25 1.3757 -1.2532
v 0.25 1.3132 -0.7532
v 0.25 1.3132 -1.2532
v -0.125 1.3757 -0.7532
v -0.125 1.3757 -1.2532
v -0.125 1.3132 -0.7532
v -0.125 1.3132 -1.2532
v 0.3125 1.3757 -0.1282
v 0.3125 1.3757 -1.2532
v 0.3125 0.9382 -0.1282
v 0.3125 0.9382 -1.2532
v 0.25 1.3757 -0.1282
v 0.25 1.3757 -1.2532
v 0.25 0.9382 -0.1282
v 0.25 0.9382 -1.2532
v 0.3125 1.3757 -0.6907
v 0.3125 0.9382 -0.6907
v 0.25 0.9382 -0.6907
v 0.25 1.3757 -0.6907
v 0.3125 0.9382 -0.1282
v 0.3125 0.9382 -1.2532
v 0.3125 0.8757 -0.1282
v 0.3125 0.8757 -1.2532
v -0.1875 0.9382 -0.1282
v -0.1875 0.9382 -1.2532
v -0.1875 0.8757 -0.1282
v -0.1875 0.8757 -1.2532
v 0.3125 0.8757 -0.6907
v -0.1875 0.8757 -0.6907
v -0.1875 0.9382 -0.6907
v 0.3125 0.9382 -0.6907
v -0.125 1.3757 -0.1282
v -0.125 1.3757 -1.2532
v -0.125 0.9382 -0.1282
v -0.125 0.9382 -1.2532
v -0.1875 1.3757 -0.1282
v -0.1875 1.3757 -1.2532
v -0.1875 0.9382 -0.1282
v -0.1875 0.9382 -1.2532
v -0.125 1.3757 -0.6907
v -0.125 0.9382 -0.6907
v -0.1875 0.9382 -0.6907
v -0.1875 1.3757 -0.6907
v 0.1875 0.875 -0.0625
v 0.1875 0.875 -1.3125
v 0.1875 0.75 -0.0625
v 0.1875 0.75 -1.3125
v -0.0625 0.875 -0.0625
v -0.0625 0.875 -1.3125
v -0.0625 0.75 -0.0625
v -0.0625 0.75 -1.3125
vt 0.5313 0.7344
vt 0.6563 0.7344
vt 0.6563 0.6406
vt 0.5313 0.6406
vt 0.6563 0.7188
vt 0.5313 0.7188
vt 0.5313 0.625
vt 0.6563 0.625
vt 0.8281 0.4375
vt 0.8125 0.4375
vt 0.8125 0.3438
vt 0.8281 0.3438
vt 0.6719 0.625
vt 0.6563 0.625
vt 0.6563 0.7188
vt 0.6719 0.7188
vt 0.5156 0.6406
vt 0.6563 0.6406
vt 0.6563 0.75
vt 0.5156 0.75
vt 0.875 0.4688
vt 0.7344 0.4688
vt 0.7344 0.3594
vt 0.875 0.3594
vt 0.6719 0.75
vt 0.5313 0.75
vt 0.5313 0.7344
vt 0.6719 0.7344
vt 0.625 0.6406
vt 0.625 0.75
vt 0.6094 0.75
vt 0.6094 0.6406
vt 0.6406 0.6406
vt 0.6406 0.75
vt 0.625 0.75
vt 0.625 0.6406
vt 0.6719 0.75
vt 0.5313 0.75
vt 0.5313 0.6406
vt 0.6719 0.6406
vt 0.7188 0.3438
vt 0.8594 0.3438
vt 0.8594 0.4531
vt 0.7188 0.4531
vt 0.5156 0.7344
vt 0.6563 0.7344
vt 0.6563 0.75
vt 0.5156 0.75
vt 0.5156 0.625
vt 0.6563 0.625
vt 0.6563 0.6406
vt 0.5156 0.6406
vt 0.6563 0.75
vt 0.5156 0.75
vt 0.5156 0.7344
vt 0.6563 0.7344
vt 0.8594 0.3438
vt 0.7188 0.3438
vt 0.7188 0.4688
vt 0.8594 0.4688
vt 0.6563 0.75
vt 0.5156 0.75
vt 0.5156 0.625
vt 0.6563 0.625
vt 0.6094 0.625
vt 0.5938 0.625
vt 0.5938 0.75
vt 0.6094 0.75
vt 0.5938 0.75
vt 0.5781 0.75
vt 0.5781 0.625
vt 0.5938 0.625
vt 0.6563 0.625
vt 0.5156 0.625
vt 0.5156 0.75
vt 0.6563 0.75
vt 0.5313 0.7344
vt 0.6719 0.7344
vt 0.6719 0.75
vt 0.5313 0.75
vt 0.7188 0.4688
vt 0.8594 0.4688
vt 0.8594 0.3438
vt 0.7188 0.3438
vt 0.6719 0.6406
vt 0.5313 0.6406
vt 0.5313 0.625
vt 0.6719 0.625
vt 0.7188 0.4531
vt 0.8594 0.4531
vt 0.8594 0.3438
vt 0.7188 0.3438
vt 0.6719 0.625
vt 0.5313 0.625
vt 0.5313 0.7344
vt 0.6719 0.7344
vt 0.6719 0.6406
vt 0.5313 0.6406
vt 0.5313 0.625
vt 0.6719 0.625
vt 0.625 0.75
vt 0.625 0.6406
vt 0.6094 0.6406
vt 0.6094 0.75
vt 0.6406 0.75
vt 0.6406 0.6406
vt 0.625 0.6406
vt 0.625 0.75
vt 0.875 0.3438
vt 0.7344 0.3438
vt 0.7344 0.4531
vt 0.875 0.4531
vt 0.5313 0.7344
vt 0.6719 0.7344
vt 0.6719 0.625
vt 0.5313 0.625
vt 0.5156 0.625
vt 0.6563 0.625
vt 0.6563 0.6406
vt 0.5156 0.6406
vt 0.5625 0.4688
vt 0.5313 0.4688
vt 0.5313 0.1563
vt 0.5625 0.1563
vt 0.7188 0.1563
vt 0.6875 0.1563
vt 0.6875 0.4688
vt 0.7188 0.4688
vt 0.625 0.4688
vt 0.625 0.1563
vt 0.5625 0.1563
vt 0.5625 0.4688
vt 0.6875 0.1563
vt 0.6875 0.4688
vt 0.625 0.4688
vt 0.625 0.1563
vt 0.6875 0.125
vt 0.6875 0.1563
vt 0.625 0.1563
vt 0.625 0.125
vt 0.625 0.125
vt 0.625 0.1563
vt 0.6875 0.1563
vt 0.6875 0.125
vn 0 1 0
vn 0 -1 0
vn 0 0 1
vn 0 0 -1
vn 1 0 0
vn -1 0 0
vn 0 1 0
vn 0 0 1
vn 0 0 -1
vn 1 0 0
vn -1 0 0
vn 0 1 0
vn 1 0 0
vn -1 0 0
vn 0 1 0
vn 0 -1 0
vn 0 0 1
vn 0 0 -1
vn 0 -1 0
vn -1 0 0
vn 0 1 0
vn 1 0 0
vn 1 0 0
vn -1 0 0
vn 0 1 0
vn 0 0 1
vn 0 0 -1
vn 1 0 0
vn -1 0 0
vn 0 1 0
vn 1 0 0
vn -1 0 0
vn 0 1 0
vn 0 -1 0
vn 0 0 1
vn 0 0 -1
usemtl field_howitzer
f 201/501/126 202/502/126 206/503/126 205/504/126
f 204/505/127 203/506/127 207/507/127 208/508/127
f 203/509/128 201/510/128 205/511/128 207/512/128
f 208/513/129 206/514/129 202/515/129 204/516/129
f 211/517/130 218/518/130 217/519/130 209/520/130
f 213/521/131 220/522/131 219/523/131 215/524/131
f 209/525/132 217/526/132 220/527/132 213/528/132
f 211/529/133 209/530/133 213/531/133 215/532/133
f 216/533/134 214/534/134 210/535/134 212/536/134
f 210/537/135 217/538/135 218/539/135 212/540/135
f 216/541/136 219/542/136 220/543/136 214/544/136
f 214/545/137 220/546/137 217/547/137 210/548/137
f 223/549/138 229/550/138 232/551/138 221/552/138
f 225/553/139 231/554/139 230/555/139 227/556/139
f 221/557/140 232/558/140 231/559/140 225/560/140
f 227/561/141 230/562/141 229/563/141 223/564/141
f 223/565/142 221/566/142 225/567/142 227/568/142
f 228/569/143 226/570/143 222/571/143 224/572/143
f 224/573/144 229/574/144 230/575/144 228/576/144
f 228/577/145 230/578/145 231/579/145 226/580/145
f 226/581/146 231/582/146 232/583/146 222/584/146
f 222/585/147 232/586/147 229/587/147 224/588/147
f 235/589/148 242/590/148 241/591/148 233/592/148
f 237/593/149 244/594/149 243/595/149 239/596/149
f 233/597/150 241/598/150 244/599/150 237/600/150
f 235/601/151 233/602/151 237/603/151 239/604/151
f 240/605/152 238/606/152 234/607/152 236/608/152
f 234/609/153 241/610/153 242/611/153 236/612/153
f 240/613/154 243/614/154 244/615/154 238/616/154
f 238/617/155 244/618/155 241/619/155 234/620/155
f 248/621/156 246/622/156 245/623/156 247/624/156
f 251/625/157 249/626/157 250/627/157 252/628/157
f 245/629/158 246/630/158 250/631/158 249/632/158
f 248/633/159 247/634/159 251/635/159 252/636/159
f 247/637/160 245/638/160 249/639/160 251/640/160
f 252/641/161 250/642/161 246/643/161 248/644/161
o breech
v 0.25 1.3757 -0.1282
v 0.25 1.3757 -0.7532
v 0.25 1.3132 -0.1282
v 0.25 1.3132 -0.7532
v -0.125 1.3757 -0.1282
v -0.125 1.3757 -0.7532
v -0.125 1.3132 -0.1282
v -0.125 1.3132 -0.7532
vt 0.9688 0.625
vt 0.9531 0.625
vt 0.9531 0.4688
vt 0.9688 0.4688
vt 0.875 0.4688
vt 0.8906 0.4688
vt 0.8906 0.625
vt 0.875 0.625
vt 0.4063 0.7813
vt 0.4063 0.625
vt 0.3125 0.625
vt 0.3125 0.7813
vt 0.9688 0.4688
vt 0.9688 0.625
vt 0.875 0.625
vt 0.875 0.4688
vt 0.9688 0.625
vt 0.9688 0.6094
vt 0.875 0.6094
vt 0.875 0.625
vt 0.875 0.4688
vt 0.875 0.4844
vt 0.9688 0.4844
vt 0.9688 0.4688
vn 1 0 0
vn -1 0 0
vn 0 1 0
vn 0 -1 0
vn 0 0 1
vn 0 0 -1
usemtl field_howitzer
f 256/645/162 254/646/162 253/647/162 255/648/162
f 259/649/163 257/650/163 258/651/163 260/652/163
f 253/653/164 254/654/164 258/655/164 257/656/164
f 256/657/165 255/658/165 259/659/165 260/660/165
f 255/661/166 253/662/166 257/663/166 259/664/166
f 260/665/167 258/666/167 254/667/167 256/668/167
o gun
v 0.25 1.3132 -0.8157
v 0.25 1.3132 -1.3782
v 0.25 1.2507 -0.8157
v 0.25 1.2507 -1.3782
v -0.125 1.3132 -0.8157
v -0.125 1.3132 -1.3782
v -0.125 1.2507 -0.8157
v -0.125 1.2507 -1.3782
v 0.25 1.3132 -1.1907
v -0.125 1.3132 -1.1907
v -0.125 1.2507 -1.1907
v 0.25 1.2507 -1.1907
v 0.25 1.2507 -0.8157
v 0.25 1.2507 -1.3782
v 0.25 1.0007 -0.8157
v 0.25 1.0007 -1.3782
v 0.1875 1.2507 -0.8157
v 0.1875 1.2507 -1.3782
v 0.1875 1.0007 -0.8157
v 0.1875 1.0007 -1.3782
v 0.25 1.2507 -1.1907
v 0.25 1.0007 -1.1907
v 0.1875 1.0007 -1.1907
v 0.1875 1.2507 -1.1907
v -0.125 0.9382 -0.8157
v -0.125 0.9382 -1.3782
v -0.125 1.0007 -0.8157
v -0.125 1.0007 -1.3782
v 0.25 0.9382 -0.8157
v 0.25 0.9382 -1.3782
v 0.25 1.0007 -0.8157
v 0.25 1.0007 -1.3782
v -0.125 0.9382 -1.1907
v 0.25 0.9382 -1.1907
v 0.25 1.0007 -1.1907
v -0.125 1.0007 -1.1907
v -0.125 1.0007 -0.8157
v -0.125 1.0007 -1.3782
v -0.125 1.2507 -0.8157
v -0.125 1.2507 -1.3782
v -0.0625 1.0007 -0.8157
v -0.0625 1.0007 -1.3782
v -0.0625 1.2507 -0.8157
v -0.0625 1.2507 -1.3782
v -0.125 1.0007 -1.1907
v -0.125 1.2507 -1.1907
v -0.0625 1.2507 -1.1907
v -0.0625 1.0007 -1.1907
v 0.25 1.3132 -0.7532
v 0.25 1.3132 -0.8157
v 0.25 0.9382 -0.7532
v 0.25 0.9382 -0.8157
v -0.125 1.3132 -0.7532
v -0.125 1.3132 -0.8157
v -0.125 0.9382 -0.7532
v -0.125 0.9382 -0.8157
v 0.3125 1.3757 0.1218
v 0.3125 1.3757 -0.1282
v 0.3125 0.8757 0.1218
v 0.3125 0.8757 -0.1282
v -0.1875 1.3757 0.1218
v -0.1875 1.3757 -0.1282
v -0.1875 0.8757 0.1218
v -0.1875 0.8757 -0.1282
v -0.125 1.3132 -1.0032
v 0.25 1.3132 -1.0032
v -0.125 0.9382 -1.0032
v 0.25 0.9382 -1.0032
vt 0.7031 0.8438
vt 0.6563 0.8438
vt 0.6563 0.8281
vt 0.7031 0.8281
vt 0.6563 0.75
vt 0.7031 0.75
vt 0.7031 0.7656
vt 0.6563 0.7656
vt 0.6563 0.75
vt 0.7031 0.75
vt 0.7031 0.8438
vt 0.6563 0.8438
vt 0.1406 0.5469
vt 0.0938 0.5469
vt 0.0938 0.6406
vt 0.1406 0.6406
vt 0.7813 0.75
vt 0.7813 0.7656
vt 0.6875 0.7656
vt 0.6875 0.75
vt 0.7813 0.8281
vt 0.7813 0.8438
vt 0.6875 0.8438
vt 0.6875 0.8281
vt 0.6719 0.6563
vt 0.5781 0.6563
vt 0.5781 0.75
vt 0.6719 0.75
vt 0.6719 0.7188
vt 0.5781 0.7188
vt 0.5781 0.7031
vt 0.6719 0.7031
vt 0 0.6406
vt 0.0938 0.6406
vt 0.0938 0.5469
vt 0 0.5469
vt 0.5469 0.6563
vt 0.6406 0.6563
vt 0.6406 0.6719
vt 0.5469 0.6719
vt 0.5469 0.7344
vt 0.6406 0.7344
vt 0.6406 0.6719
vt 0.5469 0.6719
vt 0.7031 0.7656
vt 0.7031 0.8281
vt 0.6875 0.8281
vt 0.6875 0.7656
vt 0.7031 0.8281
vt 0.6563 0.8281
vt 0.6563 0.7656
vt 0.7031 0.7656
vt 0.0781 0.625
vt 0.125 0.625
vt 0.125 0.5625
vt 0.0781 0.5625
vt 0.7031 0.8438
vt 0.6563 0.8438
vt 0.6563 0.8281
vt 0.7031 0.8281
vt 0.6563 0.75
vt 0.7031 0.75
vt 0.7031 0.7656
vt 0.6563 0.7656
vt 0.6563 0.75
vt 0.7031 0.75
vt 0.7031 0.8438
vt 0.6563 0.8438
vt 0.1406 0.5469
vt 0.0938 0.5469
vt 0.0938 0.6406
vt 0.1406 0.6406
vt 0.5625 0.6563
vt 0.5781 0.6563
vt 0.5781 0.75
vt 0.5625 0.75
vt 0.7813 0.8281
vt 0.7813 0.8438
vt 0.6875 0.8438
vt 0.6875 0.8281
vt 0.6719 0.6563
vt 0.5781 0.6563
vt 0.5781 0.75
vt 0.6719 0.75
vt 0.6719 0.7188
vt 0.5781 0.7188
vt 0.5781 0.7031
vt 0.6719 0.7031
vt 0 0.6406
vt 0.0938 0.6406
vt 0.0938 0.5469
vt 0 0.5469
vt 0.5469 0.6563
vt 0.6406 0.6563
vt 0.6406 0.6719
vt 0.5469 0.6719
vt 0.5469 0.7344
vt 0.6406 0.7344
vt 0.6406 0.6719
vt 0.5469 0.6719
vt 0.7031 0.7656
vt 0.7031 0.8281
vt 0.6875 0.8281
vt 0.6875 0.7656
vt 0.7031 0.8281
vt 0.6563 0.8281
vt 0.6563 0.7656
vt 0.7031 0.7656
vt 0.0938 0.625
vt 0.1406 0.625
vt 0.1406 0.5625
vt 0.0938 0.5625
vt 0.7031 0.75
vt 0.7031 0.8438
vt 0.6875 0.8438
vt 0.6875 0.75
vt 0.7813 0.75
vt 0.7813 0.8438
vt 0.7656 0.8438
vt 0.7656 0.75
vt 0.9688 0.625
vt 0.9688 0.7188
vt 0.875 0.7188
vt 0.875 0.625
vt 0.7813 0.8281
vt 0.7813 0.8438
vt 0.6875 0.8438
vt 0.6875 0.8281
vt 0.375 0.7813
vt 0.375 0.9063
vt 0.4375 0.9063
vt 0.4375 0.7813
vt 0.4375 0.7813
vt 0.4375 0.9063
vt 0.375 0.9063
vt 0.375 0.7813
vt 0.4375 0.9063
vt 0.375 0.9063
vt 0.375 0.7813
vt 0.4375 0.7813
vt 0.375 0.7813
vt 0.4375 0.7813
vt 0.4375 0.9063
vt 0.375 0.9063
vt 0.4375 0.7813
vt 0.4375 0.9063
vt 0.5625 0.9063
vt 0.5625 0.7813
vt 0.25 0.7813
vt 0.25 0.9063
vt 0.375 0.9063
vt 0.375 0.7813
vt 0.6875 0.75
vt 0.6875 0.8438
vt 0.7813 0.8438
vt 0.7813 0.75
vt 0.0938 0.5625
vt 0 0.5625
vt 0 0.625
vt 0.0938 0.625
vt 0.6406 0.7188
vt 0.6406 0.6563
vt 0.625 0.6563
vt 0.625 0.7188
vt 0.0938 0.5625
vt 0 0.5625
vt 0 0.625
vt 0.0938 0.625
vt 0.7031 0.7656
vt 0.7031 0.8281
vt 0.6875 0.8281
vt 0.6875 0.7656
vn 1 0 0
vn -1 0 0
vn 0 1 0
vn 0 -1 0
vn 0 0 1
vn 0 0 -1
vn 0 1 0
vn -1 0 0
vn 0 -1 0
vn 1 0 0
vn 1 0 0
vn 0 0 -1
vn 1 0 0
vn -1 0 0
vn -1 0 0
vn 1 0 0
vn 0 -1 0
vn 0 1 0
vn 0 0 1
vn 0 0 -1
vn 0 -1 0
vn 1 0 0
vn 0 1 0
vn -1 0 0
vn -1 0 0
vn 0 0 -1
vn -1 0 0
vn 1 0 0
vn 1 0 0
vn -1 0 0
vn 0 0 1
vn 0 1 0
vn 1 0 0
vn -1 0 0
vn 0 1 0
vn 0 -1 0
vn 0 0 1
vn 0 0 -1
vn 0 0 -1
vn -1 0 0
vn 0 0 1
vn 1 0 0
vn 0 0 1
usemtl field_howitzer
f 262/669/168 269/670/168 272/671/168 264/672/168
f 268/673/169 271/674/169 270/675/169 266/676/169
f 266/677/170 270/678/170 269/679/170 262/680/170
f 264/681/171 272/682/171 271/683/171 268/684/171
f 263/685/172 261/686/172 265/687/172 267/688/172
f 268/689/173 266/690/173 262/691/173 264/692/173
f 261/693/174 269/694/174 270/695/174 265/696/174
f 265/697/175 270/698/175 271/699/175 267/700/175
f 267/701/176 271/702/176 272/703/176 263/704/176
f 263/705/177 272/706/177 269/707/177 261/708/177
f 275/709/178 282/710/178 281/711/178 273/712/178
f 280/713/179 278/714/179 274/715/179 276/716/179
f 274/717/180 281/718/180 282/719/180 276/720/180
f 280/721/181 283/722/181 284/723/181 278/724/181
f 286/725/182 293/726/182 296/727/182 288/728/182
f 292/729/183 295/730/183 294/731/183 290/732/183
f 290/733/184 294/734/184 293/735/184 286/736/184
f 288/737/185 296/738/185 295/739/185 292/740/185
f 287/741/186 285/742/186 289/743/186 291/744/186
f 292/745/187 290/746/187 286/747/187 288/748/187
f 285/749/188 293/750/188 294/751/188 289/752/188
f 289/753/189 294/754/189 295/755/189 291/756/189
f 291/757/190 295/758/190 296/759/190 287/760/190
f 287/761/191 296/762/191 293/763/191 285/764/191
f 299/765/192 306/766/192 305/767/192 297/768/192
f 304/769/193 302/770/193 298/771/193 300/772/193
f 298/773/194 305/774/194 306/775/194 300/776/194
f 304/777/195 307/778/195 308/779/195 302/780/195
f 312/781/196 310/782/196 309/783/196 311/784/196
f 315/785/197 313/786/197 314/787/197 316/788/197
f 311/789/198 309/790/198 313/791/198 315/792/198
f 309/793/199 310/794/199 314/795/199 313/796/199
f 320/797/200 318/798/200 317/799/200 319/800/200
f 323/801/201 321/802/201 322/803/201 324/804/201
f 317/805/202 318/806/202 322/807/202 321/808/202
f 320/809/203 319/810/203 323/811/203 324/812/203
f 319/813/204 317/814/204 321/815/204 323/816/204
f 324/817/205 322/818/205 318/819/205 320/820/205
f 327/821/206 325/822/206 326/823/206 328/824/206
f 277/825/207 284/826/207 283/827/207 279/828/207
f 275/829/208 273/830/208 277/831/208 279/832/208
f 301/833/209 308/834/209 307/835/209 303/836/209
f 299/837/210 297/838/210 301/839/210 303/840/210
o bolt
v -0.125 1.0007 -0.0657
v -0.125 1.0007 -0.1907
v -0.125 1.2507 -0.0657
v -0.125 1.2507 -0.1907
v -0.0625 1.0007 -0.0657
v -0.0625 1.0007 -0.1907
v -0.0625 1.2507 -0.0657
v -0.0625 1.2507 -0.1907
v -0.125 0.9382 -0.0657
v -0.125 0.9382 -0.1907
v -0.125 1.0007 -0.0657
v -0.125 1.0007 -0.1907
v 0.25 0.9382 -0.0657
v 0.25 0.9382 -0.1907
v 0.25 1.0007 -0.0657
v 0.25 1.0007 -0.1907
v 0.25 1.3132 -0.0657
v 0.25 1.3132 -0.1907
v 0.25 1.2507 -0.0657
v 0.25 1.2507 -0.1907
v -0.125 1.3132 -0.0657
v -0.125 1.3132 -0.1907
v -0.125 1.2507 -0.0657
v -0.125 1.2507 -0.1907
v 0.25 1.2507 -0.0657
v 0.25 1.2507 -0.1907
v 0.25 1.0007 -0.0657
v 0.25 1.0007 -0.1907
v 0.1875 1.2507 -0.0657
v 0.1875 1.2507 -0.1907
v 0.1875 1.0007 -0.0657
v 0.1875 1.0007 -0.1907
vt 0.8125 0.4063
vt 0.8125 0.3438
vt 0.7813 0.3438
vt 0.7813 0.4063
vt 0.8125 0.4063
vt 0.8125 0.3438
vt 0.7813 0.3438
vt 0.7813 0.4063
vt 0.8281 0.4063
vt 0.8281 0.3438
vt 0.8125 0.3438
vt 0.8125 0.4063
vt 0.8125 0.4063
vt 0.8125 0.3438
vt 0.7969 0.3438
vt 0.7969 0.4063
vt 0.9063 0.5469
vt 0.9063 0.5625
vt 0.875 0.5625
vt 0.875 0.5469
vt 0.8281 0.5469
vt 0.8281 0.5625
vt 0.7969 0.5625
vt 0.7969 0.5469
vt 0.8906 0.5313
vt 0.8906 0.5625
vt 0.7969 0.5625
vt 0.7969 0.5313
vt 0.8906 0.5313
vt 0.8906 0.5625
vt 0.7969 0.5625
vt 0.7969 0.5313
vt 0.8906 0.5469
vt 0.8906 0.5625
vt 0.7969 0.5625
vt 0.7969 0.5469
vt 0.7969 0.5469
vt 0.7969 0.5625
vt 0.8906 0.5625
vt 0.8906 0.5469
vt 0.9063 0.5469
vt 0.9063 0.5625
vt 0.875 0.5625
vt 0.875 0.5469
vt 0.8281 0.5469
vt 0.8281 0.5625
vt 0.7969 0.5625
vt 0.7969 0.5469
vt 0.8906 0.5313
vt 0.8906 0.5625
vt 0.7969 0.5625
vt 0.7969 0.5313
vt 0.8906 0.5313
vt 0.8906 0.5625
vt 0.7969 0.5625
vt 0.7969 0.5313
vt 0.8906 0.5469
vt 0.8906 0.5625
vt 0.7969 0.5625
vt 0.7969 0.5469
vt 0.7969 0.5469
vt 0.7969 0.5625
vt 0.8906 0.5625
vt 0.8906 0.5469
vt 0.8125 0.4063
vt 0.8125 0.3438
vt 0.7813 0.3438
vt 0.7813 0.4063
vt 0.8125 0.4063
vt 0.8125 0.3438
vt 0.7813 0.3438
vt 0.7813 0.4063
vt 0.8281 0.4063
vt 0.8281 0.3438
vt 0.8125 0.3438
vt 0.8125 0.4063
vt 0.8125 0.4063
vt 0.8125 0.3438
vt 0.7969 0.3438
vt 0.7969 0.4063
vn -1 0 0
vn 1 0 0
vn 0 0 1
vn 0 0 -1
vn -1 0 0
vn 1 0 0
vn 0 -1 0
vn 0 1 0
vn 0 0 1
vn 0 0 -1
vn 1 0 0
vn -1 0 0
vn 0 1 0
vn 0 -1 0
vn 0 0 1
vn 0 0 -1
vn 1 0 0
vn -1 0 0
vn 0 0 1
vn 0 0 -1
usemtl field_howitzer
f 332/841/211 330/842/211 329/843/211 331/844/211
f 335/845/212 333/846/212 334/847/212 336/848/212
f 331/849/213 329/850/213 333/851/213 335/852/213
f 336/853/214 334/854/214 330/855/214 332/856/214
f 340/857/215 338/858/215 337/859/215 339/860/215
f 343/861/216 341/862/216 342/863/216 344/864/216
f 337/865/217 338/866/217 342/867/217 341/868/217
f 340/869/218 339/870/218 343/871/218 344/872/218
f 339/873/219 337/874/219 341/875/219 343/876/219
f 344/877/220 342/878/220 338/879/220 340/880/220
f 348/881/221 346/882/221 345/883/221 347/884/221
f 351/885/222 349/886/222 350/887/222 352/888/222
f 345/889/223 346/890/223 350/891/223 349/892/223
f 348/893/224 347/894/224 351/895/224 352/896/224
f 347/897/225 345/898/225 349/899/225 351/900/225
f 352/901/226 350/902/226 346/903/226 348/904/226
f 356/905/227 354/906/227 353/907/227 355/908/227
f 359/909/228 357/910/228 358/911/228 360/912/228
f 355/913/229 353/914/229 357/915/229 359/916/229
f 360/917/230 358/918/230 354/919/230 356/920/230
o vertical_drive_guida_mechanismnce
v -0.2812 0.625 0.4063
v -0.2812 0.625 0.3438
v -0.2812 0.5625 0.4063
v -0.2812 0.5625 0.3438
v -0.3437 0.625 0.4063
v -0.3437 0.625 0.3438
v -0.3437 0.5625 0.4063
v -0.3437 0.5625 0.3438
v -0.2187 0.6875 0.4688
v -0.2187 0.6875 0.2813
v -0.2187 0.625 0.4688
v -0.2187 0.625 0.2813
v -0.4062 0.6875 0.4688
v -0.4062 0.6875 0.2813
v -0.4062 0.625 0.4688
v -0.4062 0.625 0.2813
vt 0.0625 0.9844
vt 0.0625 1
vt 0.0781 1
vt 0.0781 0.9844
vt 0.0469 0.9844
vt 0.0469 1
vt 0.0625 1
vt 0.0625 0.9844
vt 0.0625 1
vt 0.0625 0.9844
vt 0.0469 0.9844
vt 0.0469 1
vt 0.0625 0.9844
vt 0.0625 1
vt 0.0469 1
vt 0.0469 0.9844
vt 0.0625 0.9844
vt 0.0625 1
vt 0.0781 1
vt 0.0781 0.9844
vt 0.0625 0.9844
vt 0.0625 1
vt 0.0781 1
vt 0.0781 0.9844
vt 0.0469 0.9375
vt 0.0469 0.9531
vt 0 0.9531
vt 0 0.9375
vt 0.0469 0.9375
vt 0.0469 0.9531
vt 0 0.9531
vt 0 0.9375
vt 0.0469 0.9844
vt 0.0469 0.9375
vt 0 0.9375
vt 0 0.9844
vt 0.0469 0.9375
vt 0.0469 0.9844
vt 0 0.9844
vt 0 0.9375
vt 0.0469 0.9688
vt 0.0469 0.9844
vt 0 0.9844
vt 0 0.9688
vt 0 0.9375
vt 0 0.9531
vt 0.0469 0.9531
vt 0.0469 0.9375
vn 1 0 0
vn -1 0 0
vn 0 1 0
vn 0 -1 0
vn 0 0 1
vn 0 0 -1
vn 1 0 0
vn -1 0 0
vn 0 1 0
vn 0 -1 0
vn 0 0 1
vn 0 0 -1
usemtl field_howitzer
f 364/921/231 362/922/231 361/923/231 363/924/231
f 367/925/232 365/926/232 366/927/232 368/928/232
f 361/929/233 362/930/233 366/931/233 365/932/233
f 364/933/234 363/934/234 367/935/234 368/936/234
f 363/937/235 361/938/235 365/939/235 367/940/235
f 368/941/236 366/942/236 362/943/236 364/944/236
f 372/945/237 370/946/237 369/947/237 371/948/237
f 375/949/238 373/950/238 374/951/238 376/952/238
f 369/953/239 370/954/239 374/955/239 373/956/239
f 372/957/240 371/958/240 375/959/240 376/960/240
f 371/961/241 369/962/241 373/963/241 375/964/241
f 376/965/242 374/966/242 370/967/242 372/968/242
o lever
v -0.5 1.1813 -0.0563
v -0.5 1.1813 -0.1813
v -0.5 1.0563 -0.0563
v -0.5 1.0563 -0.1813
v -0.5625 1.1813 -0.0563
v -0.5625 1.1813 -0.1813
v -0.5625 1.0563 -0.0563
v -0.5625 1.0563 -0.1813
v -0.375 1.1813 -0.3062
v -0.375 1.1813 -0.4312
v -0.375 1.0563 -0.3062
v -0.375 1.0563 -0.4312
v -0.4375 1.1813 -0.3062
v -0.4375 1.1813 -0.4312
v -0.4375 1.0563 -0.3062
v -0.4375 1.0563 -0.4312
v -0.4375 1.1813 -0.0563
v -0.4375 1.1813 -0.4312
v -0.4375 1.0563 -0.0563
v -0.4375 1.0563 -0.4312
v -0.5 1.1813 -0.0563
v -0.5 1.1813 -0.4312
v -0.5 1.0563 -0.0563
v -0.5 1.0563 -0.4312
vt 0.0469 0.9219
vt 0.0469 0.9531
vt 0.0781 0.9531
vt 0.0781 0.9219
vt 0.0781 0.9219
vt 0.0781 0.9531
vt 0.0625 0.9531
vt 0.0625 0.9219
vt 0.0469 0.9531
vt 0.0469 0.9219
vt 0.0625 0.9219
vt 0.0625 0.9531
vt 0.0469 0.9219
vt 0.0469 0.9531
vt 0.0625 0.9531
vt 0.0625 0.9219
vt 0.0625 0.9219
vt 0.0625 0.9531
vt 0.0781 0.9531
vt 0.0781 0.9219
vt 0.0625 0.9844
vt 0.0625 0.9531
vt 0.0469 0.9531
vt 0.0469 0.9844
vt 0.0625 0.9531
vt 0.0625 0.9844
vt 0.0469 0.9844
vt 0.0469 0.9531
vt 0.0625 0.9531
vt 0.0625 0.9844
vt 0.0781 0.9844
vt 0.0781 0.9531
vt 0.0625 0.9531
vt 0.0625 0.9844
vt 0.0781 0.9844
vt 0.0781 0.9531
vt 0.0781 0.9688
vt 0.0781 1
vt 0.1719 1
vt 0.1719 0.9688
vt 0.0781 0.9688
vt 0.0781 1
vt 0.1719 1
vt 0.1719 0.9688
vt 0.1719 1
vt 0.0781 1
vt 0.0781 0.9844
vt 0.1719 0.9844
vt 0.1719 0.9844
vt 0.0781 0.9844
vt 0.0781 0.9688
vt 0.1719 0.9688
vt 0.1719 0.9688
vt 0.1719 1
vt 0.1875 1
vt 0.1875 0.9688
vt 0.1719 0.9688
vt 0.1719 1
vt 0.1875 1
vt 0.1875 0.9688
vn -1 0 0
vn 0 1 0
vn 0 -1 0
vn 0 0 1
vn 0 0 -1
vn 0 1 0
vn 0 -1 0
vn 0 0 1
vn 0 0 -1
vn 1 0 0
vn -1 0 0
vn 0 1 0
vn 0 -1 0
vn 0 0 1
vn 0 0 -1
usemtl field_howitzer
f 383/969/243 381/970/243 382/971/243 384/972/243
f 377/973/244 378/974/244 382/975/244 381/976/244
f 380/977/245 379/978/245 383/979/245 384/980/245
f 379/981/246 377/982/246 381/983/246 383/984/246
f 384/985/247 382/986/247 378/987/247 380/988/247
f 385/989/248 386/990/248 390/991/248 389/992/248
f 388/993/249 387/994/249 391/995/249 392/996/249
f 387/997/250 385/998/250 389/999/250 391/1000/250
f 392/1001/251 390/1002/251 386/1003/251 388/1004/251
f 396/1005/252 394/1006/252 393/1007/252 395/1008/252
f 399/1009/253 397/1010/253 398/1011/253 400/1012/253
f 393/1013/254 394/1014/254 398/1015/254 397/1016/254
f 396/1017/255 395/1018/255 399/1019/255 400/1020/255
f 395/1021/256 393/1022/256 397/1023/256 399/1024/256
f 400/1025/257 398/1026/257 394/1027/257 396/1028/257
o scope
v -0.625 1.6185 -0.522
v -0.625 1.5893 -0.6436
v -0.625 1.497 -0.4928
v -0.625 1.4678 -0.6144
v -0.75 1.6185 -0.522
v -0.75 1.5893 -0.6436
v -0.75 1.497 -0.4928
v -0.75 1.4678 -0.6144
v -0.6312 1.6474 -0.5354
v -0.6312 1.6212 -0.6448
v -0.6312 1.5867 -0.5208
v -0.6312 1.5604 -0.6302
v -0.7437 1.6474 -0.5354
v -0.7437 1.6212 -0.6448
v -0.7437 1.5867 -0.5208
v -0.7437 1.5604 -0.6302
v -0.5937 1.8385 -0.5427
v -0.5937 1.7947 -0.725
v -0.5937 1.6562 -0.4989
v -0.5937 1.6124 -0.6812
v -0.7812 1.8385 -0.5427
v -0.7812 1.7947 -0.725
v -0.7812 1.6562 -0.4989
v -0.7812 1.6124 -0.6812
v -0.875 1.7935 -0.5962
v -0.75 1.7935 -0.5962
v -0.875 1.672 -0.567
v -0.75 1.672 -0.567
v -0.875 1.779 -0.6569
v -0.75 1.779 -0.6569
v -0.875 1.6574 -0.6278
v -0.75 1.6574 -0.6278
v -0.6437 1.5874 -0.5487
v -0.7312 1.5874 -0.5487
v -0.6437 1.5144 -0.5004
v -0.7312 1.5144 -0.5004
v -0.625 1.7065 -0.4027
v -0.75 1.7065 -0.4027
v -0.625 1.6023 -0.3337
v -0.75 1.6023 -0.3337
v -0.65 1.6632 -0.4228
v -0.725 1.6632 -0.4228
v -0.65 1.6007 -0.3814
v -0.725 1.6007 -0.3814
v -0.65 1.6908 -0.3811
v -0.725 1.6908 -0.3811
v -0.65 1.6283 -0.3397
v -0.725 1.6283 -0.3397
v -0.5312 1.8008 -0.5658
v -0.5312 1.7717 -0.6873
v -0.5312 1.6793 -0.5366
v -0.5312 1.6501 -0.6582
v -0.5937 1.8008 -0.5658
v -0.5937 1.7717 -0.6873
v -0.5937 1.6793 -0.5366
v -0.5937 1.6501 -0.6582
v -0.5937 1.9905 -0.5792
v -0.5937 2.022 -0.7153
v -0.5937 1.8689 -0.55
v -0.5937 1.8397 -0.6715
v -0.7812 1.9905 -0.5792
v -0.7812 2.022 -0.7153
v -0.7812 1.8689 -0.55
v -0.7812 1.8397 -0.6715
v -0.5937 2.0075 -0.7761
v -0.5937 1.8251 -0.7323
v -0.7812 2.0075 -0.7761
v -0.7812 1.8251 -0.7323
v -0.625 1.999 -0.6776
v -0.625 1.9698 -0.7992
v -0.625 1.8774 -0.6484
v -0.625 1.8482 -0.77
v -0.75 1.999 -0.6776
v -0.75 1.9698 -0.7992
v -0.75 1.8774 -0.6484
v -0.75 1.8482 -0.77
v -0.6312 1.8905 -0.5938
v -0.6312 1.8643 -0.7031
v -0.6312 1.8298 -0.5792
v -0.6312 1.8035 -0.6886
v -0.7437 1.8905 -0.5938
v -0.7437 1.8643 -0.7031
v -0.7437 1.8298 -0.5792
v -0.7437 1.8035 -0.6886
v -0.5312 1.6246 -0.3628
v -0.5312 1.5662 -0.6059
v -0.5312 1.5638 -0.3482
v -0.5312 1.5055 -0.5913
v -0.5937 1.6246 -0.3628
v -0.5937 1.5662 -0.6059
v -0.5937 1.5638 -0.3482
v -0.5937 1.5055 -0.5913
v -0.5937 1.5808 -0.5451
v -0.5937 1.5201 -0.5305
v -0.625 1.5808 -0.5451
v -0.625 1.5662 -0.6059
v -0.625 1.5201 -0.5305
v -0.625 1.5055 -0.5913
vt 0.125 0.75
vt 0.125 0.875
vt 0 0.875
vt 0 0.75
vt 0.125 0.75
vt 0.125 0.875
vt 0 0.875
vt 0 0.75
vt 0.125 0.75
vt 0.125 0.875
vt 0.25 0.875
vt 0.25 0.75
vt 0.25 0.75
vt 0.25 0.875
vt 0.125 0.875
vt 0.125 0.75
vt 0 0.75
vt 0 0.875
vt 0.125 0.875
vt 0.125 0.75
vt 0 0.75
vt 0 0.875
vt 0.125 0.875
vt 0.125 0.75
vt 0.5625 0.9375
vt 0.5625 1
vt 0.675 1
vt 0.675 0.9375
vt 0.5625 0.9375
vt 0.5625 1
vt 0.675 1
vt 0.675 0.9375
vt 0.675 0.9375
vt 0.675 1
vt 0.5625 1
vt 0.5625 0.9375
vt 0.675 0.9375
vt 0.675 1
vt 0.5625 1
vt 0.5625 0.9375
vt 0.1875 0.5625
vt 0.1875 0.75
vt 0 0.75
vt 0 0.5625
vt 0.1875 0.5625
vt 0.1875 0.75
vt 0 0.75
vt 0 0.5625
vt 0 0.375
vt 0 0.5625
vt 0.1875 0.5625
vt 0.1875 0.375
vt 0.1875 0.375
vt 0.1875 0.5625
vt 0 0.5625
vt 0 0.375
vt 0 0.5625
vt 0 0.75
vt 0.1875 0.75
vt 0.1875 0.5625
vt 0 0.5625
vt 0 0.75
vt 0.1875 0.75
vt 0.1875 0.5625
vt 0.25 0.75
vt 0.25 0.875
vt 0.125 0.875
vt 0.125 0.75
vt 0.125 0.75
vt 0.125 0.875
vt 0.25 0.875
vt 0.25 0.75
vt 0.125 0.8125
vt 0.25 0.8125
vt 0.25 0.875
vt 0.125 0.875
vt 0.1875 0.8125
vt 0.0625 0.8125
vt 0.0625 0.75
vt 0.1875 0.75
vt 0.1875 0.75
vt 0.1875 0.875
vt 0.125 0.875
vt 0.125 0.75
vt 0.5625 0.875
vt 0.5625 1
vt 0.4375 1
vt 0.4375 0.875
vt 0.4375 0.875
vt 0.2495 0.8933
vt 0.2495 0.9808
vt 0.4375 1
vt 0.2495 0.8935
vt 0.2495 0.981
vt 0.438 0.9998
vt 0.4375 0.8743
vt 0.25 0.9813
vt 0.25 0.8938
vt 0.4384 0.875
vt 0.4384 1
vt 0.4384 1
vt 0.25 0.9813
vt 0.25 0.8938
vt 0.4384 0.875
vt 0 0.875
vt 0 1
vt 0.125 1
vt 0.125 0.875
vt 0.0625 1
vt 0.0625 0.875
vt 0 0.875
vt 0 1
vt 0.0625 0.875
vt 0.0625 1
vt 0.0625 1
vt 0.0625 0.875
vt 0.0625 0.875
vt 0.0625 1
vt 0 1
vt 0 0.875
vt 0.125 0.875
vt 0.125 1
vt 0.0625 1
vt 0.0625 0.875
vt 0.3125 0.625
vt 0.3125 0.75
vt 0.1875 0.75
vt 0.1875 0.625
vt 0.1875 0.75
vt 0.3125 0.75
vt 0.3125 0.6875
vt 0.1875 0.6875
vt 0.3125 0.625
vt 0.1875 0.625
vt 0.1875 0.6875
vt 0.3125 0.6875
vt 0.25 0.625
vt 0.25 0.75
vt 0.1875 0.75
vt 0.1875 0.625
vt 0.3125 0.625
vt 0.3125 0.75
vt 0.25 0.75
vt 0.25 0.625
vt 0.5625 0.6875
vt 0.5625 0.875
vt 0.4375 0.8125
vt 0.4375 0.6875
vt 0.4375 0.6875
vt 0.4375 0.8125
vt 0.5625 0.875
vt 0.5625 0.6875
vt 0.8125 0.5
vt 0.8125 0.625
vt 0.625 0.625
vt 0.625 0.5
vt 0.625 0.625
vt 0.625 0.5
vt 0.8125 0.5
vt 0.8125 0.625
vt 0.625 0.6875
vt 0.625 0.5625
vt 0.8125 0.5625
vt 0.8125 0.6875
vt 0.6875 0.6875
vt 0.6875 0.875
vt 0.625 0.875
vt 0.625 0.6875
vt 0.8125 0.6875
vt 0.8125 0.875
vt 0.75 0.875
vt 0.75 0.6875
vt 0.625 0.8125
vt 0.625 0.875
vt 0.8125 0.875
vt 0.8125 0.8125
vt 0.625 0.6875
vt 0.625 0.75
vt 0.8125 0.75
vt 0.8125 0.6875
vt 0.8125 0.6875
vt 0.8125 0.875
vt 0.625 0.875
vt 0.625 0.6875
vt 0 0.875
vt 0 1
vt 0.125 1
vt 0.125 0.875
vt 0 0.875
vt 0 1
vt 0.125 1
vt 0.125 0.875
vt 0.125 1
vt 0 1
vt 0 0.875
vt 0.125 0.875
vt 0 1
vt 0 0.875
vt 0.125 0.875
vt 0.125 1
vt 0.125 0.875
vt 0.125 1
vt 0 1
vt 0 0.875
vt 0.5625 0.9375
vt 0.5625 1
vt 0.675 1
vt 0.675 0.9375
vt 0.5625 0.9375
vt 0.5625 1
vt 0.675 1
vt 0.675 0.9375
vt 0.675 0.9375
vt 0.675 1
vt 0.5625 1
vt 0.5625 0.9375
vt 0.675 0.9375
vt 0.675 1
vt 0.5625 1
vt 0.5625 0.9375
vt 0 0.3125
vt 0 0.375
vt 0.25 0.375
vt 0.25 0.3125
vt 0.25 0.3125
vt 0.25 0.375
vt 0 0.375
vt 0 0.3125
vt 0.25 0.3125
vt 0 0.3125
vt 0 0.375
vt 0.25 0.375
vt 0 0.375
vt 0.25 0.375
vt 0.25 0.3125
vt 0 0.3125
vt 0.1875 0.3125
vt 0.1875 0.375
vt 0.25 0.375
vt 0.25 0.3125
vt 0 0.3125
vt 0 0.375
vt 0.0625 0.375
vt 0.0625 0.3125
vt 0.25 0.4375
vt 0.25 0.375
vt 0.1875 0.375
vt 0.1875 0.4375
vt 0.25 0.375
vt 0.25 0.4375
vt 0.1875 0.4375
vt 0.1875 0.375
vt 0.1875 0.375
vt 0.1875 0.4375
vt 0.25 0.4375
vt 0.25 0.375
vt 0.25 0.375
vt 0.25 0.4375
vt 0.1875 0.4375
vt 0.1875 0.375
vn 1 0 0
vn -1 0 0
vn 0 0.97 -0.23
vn 0 -0.97 0.23
vn 0 0.23 0.97
vn 0 -0.23 -0.97
vn 1 0 0
vn -1 0 0
vn 0 0.23 0.97
vn 0 -0.23 -0.97
vn 1 0 0
vn -1 0 0
vn 0 0.97 -0.23
vn 0 -0.97 0.23
vn 0 0.23 0.97
vn 0 -0.23 -0.97
vn 0 0.23 0.97
vn 0 -0.23 -0.97
vn 0 0.97 -0.23
vn 0 -0.97 0.23
vn -1 0 0
vn 0 0.55 0.83
vn 0 0.77 -0.63
vn 0 -0.88 0.47
vn 1 -0.05 -0.08
vn -1 -0.05 -0.08
vn 0 0.55 0.83
vn 0 0.83 -0.55
vn 0 -0.83 0.55
vn 1 0 0
vn -1 0 0
vn 1 0 0
vn 0 0.97 -0.23
vn 0 -0.97 0.23
vn 0 0.23 0.97
vn 0 -0.23 -0.97
vn 1 0 0
vn -1 0 0
vn 0 0.97 0.23
vn 0 -0.97 0.23
vn 0 0.23 0.97
vn 1 0 0
vn -1 0 0
vn 0 0.97 -0.23
vn 0 -0.97 0.23
vn 0 -0.23 -0.97
vn 1 0 0
vn -1 0 0
vn 0 0.97 -0.23
vn 0 -0.97 0.23
vn 0 -0.23 -0.97
vn 1 0 0
vn -1 0 0
vn 0 0.23 0.97
vn 0 -0.23 -0.97
vn 1 0 0
vn -1 0 0
vn 0 0.97 -0.23
vn 0 -0.97 0.23
vn 0 0.23 0.97
vn 0 -0.23 -0.97
vn 0 0.97 -0.23
vn 0 -0.97 0.23
vn 0 0.23 0.97
vn 0 -0.23 -0.97
usemtl artillery_scope
f 404/1029/258 402/1030/258 401/1031/258 403/1032/258
f 407/1033/259 405/1034/259 406/1035/259 408/1036/259
f 401/1037/260 402/1038/260 406/1039/260 405/1040/260
f 404/1041/261 403/1042/261 407/1043/261 408/1044/261
f 403/1045/262 401/1046/262 405/1047/262 407/1048/262
f 408/1049/263 406/1050/263 402/1051/263 404/1052/263
f 412/1053/264 410/1054/264 409/1055/264 411/1056/264
f 415/1057/265 413/1058/265 414/1059/265 416/1060/265
f 411/1061/266 409/1062/266 413/1063/266 415/1064/266
f 416/1065/267 414/1066/267 410/1067/267 412/1068/267
f 420/1069/268 418/1070/268 417/1071/268 419/1072/268
f 423/1073/269 421/1074/269 422/1075/269 424/1076/269
f 417/1077/270 418/1078/270 422/1079/270 421/1080/270
f 420/1081/271 419/1082/271 423/1083/271 424/1084/271
f 419/1085/272 417/1086/272 421/1087/272 423/1088/272
f 424/1089/273 422/1090/273 418/1091/273 420/1092/273
f 428/1093/274 426/1094/274 425/1095/274 427/1096/274
f 431/1097/275 429/1098/275 430/1099/275 432/1100/275
f 425/1101/276 426/1102/276 430/1103/276 429/1104/276
f 428/1105/277 427/1106/277 431/1107/277 432/1108/277
f 427/1109/278 425/1110/278 429/1111/278 431/1112/278
f 439/1113/279 437/1114/279 438/1115/279 440/1116/279
f 437/1117/280 433/1118/280 434/1119/280 438/1120/280
f 436/1121/281 435/1122/281 439/1123/281 440/1124/281
f 435/1125/282 433/1126/282 437/1127/282 439/1128/282
f 438/1129/283 434/1130/283 436/1131/283 440/1132/283
f 447/1133/284 445/1134/284 446/1135/284 448/1136/284
f 441/1137/285 442/1138/285 446/1139/285 445/1140/285
f 444/1141/286 443/1142/286 447/1143/286 448/1144/286
f 443/1145/287 441/1146/287 445/1147/287 447/1148/287
f 448/1149/288 446/1150/288 442/1151/288 444/1152/288
f 452/1153/289 450/1154/289 449/1155/289 451/1156/289
f 449/1157/290 450/1158/290 454/1159/290 453/1160/290
f 452/1161/291 451/1162/291 455/1163/291 456/1164/291
f 451/1165/292 449/1166/292 453/1167/292 455/1168/292
f 456/1169/293 454/1170/293 450/1171/293 452/1172/293
f 460/1173/294 458/1174/294 457/1175/294 459/1176/294
f 463/1177/295 461/1178/295 462/1179/295 464/1180/295
f 457/1181/296 458/1182/296 462/1183/296 461/1184/296
f 460/1185/297 459/1186/297 463/1187/297 464/1188/297
f 459/1189/298 457/1190/298 461/1191/298 463/1192/298
f 466/1193/299 465/1194/299 458/1195/299 460/1196/299
f 464/1197/300 462/1198/300 467/1199/300 468/1200/300
f 458/1201/301 465/1202/301 467/1203/301 462/1204/301
f 466/1205/302 460/1206/302 464/1207/302 468/1208/302
f 468/1209/303 467/1210/303 465/1211/303 466/1212/303
f 472/1213/304 470/1214/304 469/1215/304 471/1216/304
f 475/1217/305 473/1218/305 474/1219/305 476/1220/305
f 469/1221/306 470/1222/306 474/1223/306 473/1224/306
f 472/1225/307 471/1226/307 475/1227/307 476/1228/307
f 476/1229/308 474/1230/308 470/1231/308 472/1232/308
f 480/1233/309 478/1234/309 477/1235/309 479/1236/309
f 483/1237/310 481/1238/310 482/1239/310 484/1240/310
f 479/1241/311 477/1242/311 481/1243/311 483/1244/311
f 484/1245/312 482/1246/312 478/1247/312 480/1248/312
f 488/1249/313 486/1250/313 485/1251/313 487/1252/313
f 491/1253/314 489/1254/314 490/1255/314 492/1256/314
f 485/1257/315 486/1258/315 490/1259/315 489/1260/315
f 488/1261/316 487/1262/316 491/1263/316 492/1264/316
f 487/1265/317 485/1266/317 489/1267/317 491/1268/317
f 492/1269/318 490/1270/318 486/1271/318 488/1272/318
f 493/1273/319 490/1274/319 496/1275/319 495/1276/319
f 492/1277/320 494/1278/320 497/1279/320 498/1280/320
f 494/1281/321 493/1282/321 495/1283/321 497/1284/321
f 498/1285/322 496/1286/322 490/1287/322 492/1288/322
o range
v -0.8437 1.7777 -0.5281
v -0.7812 1.7777 -0.5281
v -0.8437 1.717 -0.5135
v -0.7812 1.717 -0.5135
v -0.8437 1.734 -0.7104
v -0.7812 1.734 -0.7104
v -0.8437 1.6732 -0.6958
v -0.7812 1.6732 -0.6958
v -0.875 1.8227 -0.4746
v -0.75 1.8227 -0.4746
v -0.875 1.7012 -0.4454
v -0.75 1.7012 -0.4454
v -0.875 1.8081 -0.5354
v -0.75 1.8081 -0.5354
v -0.875 1.6866 -0.5062
v -0.75 1.6866 -0.5062
vt 0.25 0.8125
vt 0.25 0.875
vt 0.1875 0.875
vt 0.1875 0.8125
vt 0.375 0.8125
vt 0.375 0.875
vt 0.1875 0.875
vt 0.1875 0.8125
vt 0.375 0.8125
vt 0.375 0.875
vt 0.1875 0.875
vt 0.1875 0.8125
vt 0.375 0.8125
vt 0.375 0.875
vt 0.1875 0.875
vt 0.1875 0.8125
vt 0.1875 0.8125
vt 0.1875 0.875
vt 0.375 0.875
vt 0.375 0.8125
vt 0.3125 0.625
vt 0.3125 0.75
vt 0.1875 0.75
vt 0.1875 0.625
vt 0.1875 0.625
vt 0.1875 0.75
vt 0.3125 0.75
vt 0.3125 0.625
vt 0.1875 0.75
vt 0.3125 0.75
vt 0.3125 0.6875
vt 0.1875 0.6875
vt 0.3125 0.625
vt 0.1875 0.625
vt 0.1875 0.6875
vt 0.3125 0.6875
vt 0.25 0.625
vt 0.25 0.75
vt 0.1875 0.75
vt 0.1875 0.625
vt 0.3125 0.625
vt 0.3125 0.75
vt 0.25 0.75
vt 0.25 0.625
vn 0 -0.23 -0.97
vn 0 0.97 -0.23
vn 0 -0.97 0.23
vn -1 0 0
vn 1 0 0
vn 0 0.23 0.97
vn 0 -0.23 -0.97
vn 0 0.97 -0.23
vn 0 -0.97 0.23
vn -1 0 0
vn 1 0 0
usemtl artillery_scope
f 505/1289/323 503/1290/323 504/1291/323 506/1292/323
f 499/1293/324 500/1294/324 504/1295/324 503/1296/324
f 502/1297/325 501/1298/325 505/1299/325 506/1300/325
f 501/1301/326 499/1302/326 503/1303/326 505/1304/326
f 506/1305/327 504/1306/327 500/1307/327 502/1308/327
f 510/1309/328 508/1310/328 507/1311/328 509/1312/328
f 513/1313/329 511/1314/329 512/1315/329 514/1316/329
f 507/1317/330 508/1318/330 512/1319/330 511/1320/330
f 510/1321/331 509/1322/331 513/1323/331 514/1324/331
f 509/1325/332 507/1326/332 511/1327/332 513/1328/332
f 514/1329/333 512/1330/333 508/1331/333 510/1332/333
o wheel2
v -0.8125 0.8717 0
v -0.5625 0.8717 0
v -0.8125 0.6217 0.25
v -0.5625 0.6217 0.25
v -0.8125 0.8717 -0.375
v -0.5625 0.8717 -0.375
v -0.8125 0.6217 -0.625
v -0.5625 0.6217 -0.625
v -0.8125 -0.0033 0
v -0.5625 -0.0033 0
v -0.8125 0.2467 0.25
v -0.5625 0.2467 0.25
v -0.8125 -0.0033 -0.375
v -0.5625 -0.0033 -0.375
v -0.8125 0.2467 -0.625
v -0.5625 0.2467 -0.625
v -0.8125 0.6217 0.25
v -0.5625 0.6217 0.25
v -0.8125 0.2467 0.25
v -0.5625 0.2467 0.25
v -0.8125 0.6217 -0.625
v -0.5625 0.6217 -0.625
v -0.8125 0.2467 -0.625
v -0.5625 0.2467 -0.625
v -0.8125 0.625 0
v -0.8125 0.625 -0.375
v -0.8125 0.25 0
v -0.8125 0.25 -0.375
v -0.875 0.625 0
v -0.875 0.625 -0.375
v -0.875 0.25 0
v -0.875 0.25 -0.375
vt 0.8438 0.5625
vt 0.8438 0.7188
vt 0.7188 0.7188
vt 0.7188 0.5625
vt 0.2813 0.5625
vt 0.2813 0.7188
vt 0.1563 0.7188
vt 0.1563 0.5625
vt 0.4063 0.7188
vt 0.4063 0.8438
vt 0.5938 0.8438
vt 0.5938 0.7188
vt 0.7188 0.5938
vt 0.5938 0.7188
vt 0.4063 0.7188
vt 0.2813 0.5938
vt 0.2813 0.5938
vt 0.4063 0.7188
vt 0.5938 0.7188
vt 0.7188 0.5938
vt 0.7188 0.2813
vt 0.8438 0.2813
vt 0.8438 0.4375
vt 0.7188 0.4375
vt 0.1563 0.2813
vt 0.2813 0.2813
vt 0.2813 0.4375
vt 0.1563 0.4375
vt 0.4063 0.1563
vt 0.5938 0.1563
vt 0.5938 0.2813
vt 0.4063 0.2813
vt 0.4063 0.2813
vt 0.5938 0.2813
vt 0.7188 0.4063
vt 0.2813 0.4063
vt 0.5938 0.2813
vt 0.4063 0.2813
vt 0.2813 0.4063
vt 0.7188 0.4063
vt 0.8438 0.4063
vt 0.8438 0.5938
vt 0.7188 0.5938
vt 0.7188 0.4063
vt 0.2813 0.4063
vt 0.2813 0.5938
vt 0.1563 0.5938
vt 0.1563 0.4063
vt 0.7188 0.4063
vt 0.7188 0.5938
vt 0.2813 0.5938
vt 0.2813 0.4063
vt 0.2813 0.4063
vt 0.2813 0.5938
vt 0.7188 0.5938
vt 0.7188 0.4063
vt 0.5938 0.4063
vt 0.5938 0.5938
vt 0.4063 0.5938
vt 0.4063 0.4063
vt 0.5938 0.5938
vt 0.4063 0.5938
vt 0.4063 0.5625
vt 0.5938 0.5625
vt 0.4063 0.4063
vt 0.5938 0.4063
vt 0.5938 0.4375
vt 0.4063 0.4375
vt 0.5938 0.4063
vt 0.5938 0.5938
vt 0.5625 0.5938
vt 0.5625 0.4063
vt 0.4375 0.4063
vt 0.4375 0.5938
vt 0.4063 0.5938
vt 0.4063 0.4063
vn 0 0.71 0.71
vn 0 0.71 -0.71
vn 0 1 0
vn -1 0 0
vn 1 0 0
vn 0 -0.71 0.71
vn 0 -0.71 -0.71
vn 0 -1 0
vn -1 0 0
vn 1 0 0
vn 0 0 1
vn 0 0 -1
vn -1 0 0
vn 1 0 0
vn -1 0 0
vn 0 1 0
vn 0 -1 0
vn 0 0 1
vn 0 0 -1
usemtl wheel_12_terrain
f 518/1333/334 516/1334/334 515/1335/334 517/1336/334
f 521/1337/335 519/1338/335 520/1339/335 522/1340/335
f 515/1341/336 516/1342/336 520/1343/336 519/1344/336
f 517/1345/337 515/1346/337 519/1347/337 521/1348/337
f 522/1349/338 520/1350/338 516/1351/338 518/1352/338
f 523/1353/339 524/1354/339 526/1355/339 525/1356/339
f 528/1357/340 527/1358/340 529/1359/340 530/1360/340
f 528/1361/341 524/1362/341 523/1363/341 527/1364/341
f 527/1365/342 523/1366/342 525/1367/342 529/1368/342
f 524/1369/343 528/1370/343 530/1371/343 526/1372/343
f 534/1373/344 532/1374/344 531/1375/344 533/1376/344
f 537/1377/345 535/1378/345 536/1379/345 538/1380/345
f 533/1381/346 531/1382/346 535/1383/346 537/1384/346
f 538/1385/347 536/1386/347 532/1387/347 534/1388/347
f 545/1389/348 543/1390/348 544/1391/348 546/1392/348
f 539/1393/349 540/1394/349 544/1395/349 543/1396/349
f 542/1397/350 541/1398/350 545/1399/350 546/1400/350
f 541/1401/351 539/1402/351 543/1403/351 545/1404/351
f 546/1405/352 544/1406/352 540/1407/352 542/1408/352
o wheel1
v 0.9375 0.8717 0
v 0.6875 0.8717 0
v 0.9375 0.6217 0.25
v 0.6875 0.6217 0.25
v 0.9375 0.8717 -0.375
v 0.6875 0.8717 -0.375
v 0.9375 0.6217 -0.625
v 0.6875 0.6217 -0.625
v 0.9375 -0.0033 0
v 0.6875 -0.0033 0
v 0.9375 0.2467 0.25
v 0.6875 0.2467 0.25
v 0.9375 -0.0033 -0.375
v 0.6875 -0.0033 -0.375
v 0.9375 0.2467 -0.625
v 0.6875 0.2467 -0.625
v 0.9375 0.6217 0.25
v 0.6875 0.6217 0.25
v 0.9375 0.2467 0.25
v 0.6875 0.2467 0.25
v 0.9375 0.6217 -0.625
v 0.6875 0.6217 -0.625
v 0.9375 0.2467 -0.625
v 0.6875 0.2467 -0.625
v 0.9375 0.625 0
v 0.9375 0.625 -0.375
v 0.9375 0.25 0
v 0.9375 0.25 -0.375
v 1 0.625 0
v 1 0.625 -0.375
v 1 0.25 0
v 1 0.25 -0.375
vt 0.7188 0.7188
vt 0.8438 0.7188
vt 0.8438 0.5625
vt 0.7188 0.5625
vt 0.1563 0.7188
vt 0.2813 0.7188
vt 0.2813 0.5625
vt 0.1563 0.5625
vt 0.5938 0.8438
vt 0.4063 0.8438
vt 0.4063 0.7188
vt 0.5938 0.7188
vt 0.4063 0.7188
vt 0.5938 0.7188
vt 0.7188 0.5938
vt 0.2813 0.5938
vt 0.5938 0.7188
vt 0.4063 0.7188
vt 0.2813 0.5938
vt 0.7188 0.5938
vt 0.8438 0.4375
vt 0.8438 0.2813
vt 0.7188 0.2813
vt 0.7188 0.4375
vt 0.2813 0.4375
vt 0.2813 0.2813
vt 0.1563 0.2813
vt 0.1563 0.4375
vt 0.5938 0.2813
vt 0.5938 0.1563
vt 0.4063 0.1563
vt 0.4063 0.2813
vt 0.7188 0.4063
vt 0.5938 0.2813
vt 0.4063 0.2813
vt 0.2813 0.4063
vt 0.2813 0.4063
vt 0.4063 0.2813
vt 0.5938 0.2813
vt 0.7188 0.4063
vt 0.7188 0.5938
vt 0.8438 0.5938
vt 0.8438 0.4063
vt 0.7188 0.4063
vt 0.1563 0.5938
vt 0.2813 0.5938
vt 0.2813 0.4063
vt 0.1563 0.4063
vt 0.2813 0.5938
vt 0.7188 0.5938
vt 0.7188 0.4063
vt 0.2813 0.4063
vt 0.7188 0.5938
vt 0.2813 0.5938
vt 0.2813 0.4063
vt 0.7188 0.4063
vt 0.4063 0.5938
vt 0.5938 0.5938
vt 0.5938 0.4063
vt 0.4063 0.4063
vt 0.4063 0.5625
vt 0.4063 0.5938
vt 0.5938 0.5938
vt 0.5938 0.5625
vt 0.5938 0.4375
vt 0.5938 0.4063
vt 0.4063 0.4063
vt 0.4063 0.4375
vt 0.5625 0.5938
vt 0.5938 0.5938
vt 0.5938 0.4063
vt 0.5625 0.4063
vt 0.4063 0.5938
vt 0.4375 0.5938
vt 0.4375 0.4063
vt 0.4063 0.4063
vn 0 0.71 0.71
vn 0 0.71 -0.71
vn 0 1 0
vn 1 0 0
vn -1 0 0
vn 0 -0.71 0.71
vn 0 -0.71 -0.71
vn 0 -1 0
vn 1 0 0
vn -1 0 0
vn 0 0 1
vn 0 0 -1
vn 1 0 0
vn -1 0 0
vn 1 0 0
vn 0 1 0
vn 0 -1 0
vn 0 0 1
vn 0 0 -1
usemtl wheel_12_terrain
f 547/1409/353 548/1410/353 550/1411/353 549/1412/353
f 552/1413/354 551/1414/354 553/1415/354 554/1416/354
f 552/1417/355 548/1418/355 547/1419/355 551/1420/355
f 551/1421/356 547/1422/356 549/1423/356 553/1424/356
f 548/1425/357 552/1426/357 554/1427/357 550/1428/357
f 558/1429/358 556/1430/358 555/1431/358 557/1432/358
f 561/1433/359 559/1434/359 560/1435/359 562/1436/359
f 555/1437/360 556/1438/360 560/1439/360 559/1440/360
f 557/1441/361 555/1442/361 559/1443/361 561/1444/361
f 562/1445/362 560/1446/362 556/1447/362 558/1448/362
f 563/1449/363 564/1450/363 566/1451/363 565/1452/363
f 568/1453/364 567/1454/364 569/1455/364 570/1456/364
f 567/1457/365 563/1458/365 565/1459/365 569/1460/365
f 564/1461/366 568/1462/366 570/1463/366 566/1464/366
f 576/1465/367 575/1466/367 577/1467/367 578/1468/367
f 576/1469/368 572/1470/368 571/1471/368 575/1472/368
f 577/1473/369 573/1474/369 574/1475/369 578/1476/369
f 575/1477/370 571/1478/370 573/1479/370 577/1480/370
f 572/1481/371 576/1482/371 578/1483/371 574/1484/371