# Made by Pabilo8 with Blockbench
# Exported with IIToolkit Plugin
mtllib ammo_particles.mtl


o air_cone
v 0 1.0625 0
v 0.3125 0.375 0.3125
v 0.3125 0.375 -0.3125
v -0.3125 0.375 0.3125
v -0.3125 0.375 -0.3125
v 0.4375 -0.375 0.4375
v 0.4375 -0.375 -0.4375
v -0.4375 -0.375 0.4375
v -0.4375 -0.375 -0.4375
vt 0.5625 0.1875
vt 1 0.5
vt 0.5625 0.8125
vt 0.5625 0.1875
vt 1 0.5
vt 0.5625 0.8125
vt 0.5625 0.1875
vt 1 0.5
vt 0.5625 0.8125
vt 0.5625 0.1875
vt 1 0.5
vt 0.5625 0.8125
vt 0 0
vt 0.5625 0.1875
vt 0.5625 0.8125
vt 0 1
vt 0 0
vt 0.5625 0.1875
vt 0.5625 0.8125
vt 0 1
vt 0 0
vt 0.5625 0.1875
vt 0.5625 0.8125
vt 0 1
vt 0 0
vt 0.5625 0.1875
vt 0.5625 0.8125
vt 0 1
vn 0.9103664774626049 0.4138029443011841 0
vn -0.9103664774626049 0.4138029443011841 0
vn 0 0.4138029443011841 0.9103664774626049
vn 0 0.4138029443011841 -0.9103664774626049
vn 0.9863939238321437 0.1643989873053573 0
vn -0.9863939238321437 0.1643989873053573 0
vn 0 0.1643989873053573 0.9863939238321437
vn 0 0.1643989873053573 -0.9863939238321437
usemtl air_cone
f 3/1/1 1/2/1 2/3/1
f 4/4/2 1/5/2 5/6/2
f 2/7/3 1/8/3 4/9/3
f 5/10/4 1/11/4 3/12/4
f 7/13/5 3/14/5 2/15/5
f 7/13/5 2/15/5 6/16/5
f 8/17/6 4/18/6 5/19/6
f 8/17/6 5/19/6 9/20/6
f 6/21/7 2/22/7 4/23/7
f 6/21/7 4/23/7 8/24/7
f 9/25/8 5/26/8 3/27/8
f 9/25/8 3/27/8 7/28/8