# Made by Pabilo8 with Blockbench
# Exported with IIToolkit Plugin on 02/10/2026
mtllib gunfire_howitzer.mtl

o gunfire_howitzer
v 0.5 -0.5312 0.0625
v 0.5 0.4688 0.0625
v -0.5 -0.5313 0.0625
v -0.5 0.4687 0.0625
v 0.5 -0.0312 0.0625
v -0.5 -0.0313 0.0625
v 0 -0.0312 0.125
v 0 -0.5312 0.0625
v 0 0.4688 0.0625
v 0 0.5 2
v 0 0.5 0
v 0 -0.5 2
v 0 -0.5 0
v 0 0.5 2
v 0 0.5 0
v 0 -0.5 2
v 0 -0.5 0
v 0.5 0 2
v 0.5 0 0
v -0.5 0 2
v -0.5 0 0
v 0.5 0 2
v 0.5 0 0
v -0.5 0 2
v -0.5 0 0
v 0.5 -0.5312 0.5
v 0.5 0.4688 0.5
v -0.5 -0.5313 0.5
v -0.5 0.4687 0.5
v 0.5 -0.0312 0.5
v -0.5 -0.0313 0.5
v 0 -0.0312 0.5625
v 0 -0.5312 0.5
v 0 0.4687 0.5
v -0.3536 0.3536 2
v -0.3536 0.3536 0
v 0.3536 -0.3536 2
v 0.3536 -0.3536 0
v -0.3536 0.3536 2
v -0.3536 0.3536 0
v 0.3536 -0.3536 2
v 0.3536 -0.3536 0
v 0.3536 0.3536 2
v 0.3536 0.3536 0
v -0.3536 -0.3536 2
v -0.3536 -0.3536 0
v 0.3536 0.3536 2
v 0.3536 0.3536 0
v -0.3536 -0.3536 2
v -0.3536 -0.3536 0
vt 0.3333 0.4896
vt 0.5 0.4896
vt 0.5 0.6458
vt 0.3333 0.6458
vt 0.3333 0.3333
vt 0.5 0.3333
vt 0.5 0.4896
vt 0.3333 0.4896
vt 0.6667 0.4896
vt 0.5 0.4896
vt 0.5 0.3333
vt 0.6667 0.3333
vt 0.6667 0.6458
vt 0.5 0.6458
vt 0.5 0.4896
vt 0.6667 0.4896
vt 0.3333 0.3333
vt 0.3333 1
vt 0 1
vt 0 0.3333
vt 0 1
vt 0.3333 1
vt 0.3333 0.3333
vt 0 0.3333
vt 0.3333 0.3333
vt 0.3333 1
vt 0 1
vt 0 0.3333
vt 0 1
vt 0.3333 1
vt 0.3333 0.3333
vt 0 0.3333
vt 0.6667 0.4896
vt 0.8333 0.4896
vt 0.8333 0.6458
vt 0.6667 0.6458
vt 0.6667 0.3333
vt 0.8333 0.3333
vt 0.8333 0.4896
vt 0.6667 0.4896
vt 1 0.4896
vt 0.8333 0.4896
vt 0.8333 0.3333
vt 1 0.3333
vt 1 0.6458
vt 0.8333 0.6458
vt 0.8333 0.4896
vt 1 0.4896
vt 0.3333 0.3333
vt 0.3333 1
vt 0 1
vt 0 0.3333
vt 0 1
vt 0.3333 1
vt 0.3333 0.3333
vt 0 0.3333
vt 0.3333 0.3333
vt 0.3333 1
vt 0 1
vt 0 0.3333
vt 0 1
vt 0.3333 1
vt 0.3333 0.3333
vt 0 0.3333
vn -0.12 0.12 0.98
vn 0 -0.12 0.99
vn 0.12 -0.12 0.98
vn 0 0.12 0.99
vn 1 0 0
vn -1 0 0
vn 0 -1 0
vn 0 1 0
vn -0.12 0.12 0.98
vn 0 -0.12 0.99
vn 0.12 -0.12 0.98
vn 0 0.12 0.99
vn 0.71 0.71 0
vn -0.71 -0.71 0
vn 0.71 -0.71 0
vn -0.71 0.71 0
usemtl howitzer_gunfire3
f 6/1/1 7/2/1 9/3/1
f 6/1/1 9/3/1 4/4/1
f 3/5/2 8/6/2 7/7/2
f 3/5/2 7/7/2 6/8/2
f 5/9/3 7/10/3 8/11/3
f 5/9/3 8/11/3 1/12/3
f 2/13/4 9/14/4 7/15/4
f 2/13/4 7/15/4 5/16/4
f 11/17/5 10/18/5 12/19/5
f 11/17/5 12/19/5 13/20/5
f 16/21/6 14/22/6 15/23/6
f 16/21/6 15/23/6 17/24/6
f 19/25/7 18/26/7 20/27/7
f 19/25/7 20/27/7 21/28/7
f 24/29/8 22/30/8 23/31/8
f 24/29/8 23/31/8 25/32/8
f 31/33/9 32/34/9 34/35/9
f 31/33/9 34/35/9 29/36/9
f 28/37/10 33/38/10 32/39/10
f 28/37/10 32/39/10 31/40/10
f 30/41/11 32/42/11 33/43/11
f 30/41/11 33/43/11 26/44/11
f 27/45/12 34/46/12 32/47/12
f 27/45/12 32/47/12 30/48/12
f 36/49/13 35/50/13 37/51/13
f 36/49/13 37/51/13 38/52/13
f 41/53/14 39/54/14 40/55/14
f 41/53/14 40/55/14 42/56/14
f 44/57/15 43/58/15 45/59/15
f 44/57/15 45/59/15 46/60/15
f 49/61/16 47/62/16 48/63/16
f 49/61/16 48/63/16 50/64/16