# Made by Pabilo8 with Blockbench
# Exported with IIToolkit Plugin on 02/10/2026
mtllib smoke_mortar.mtl

o smoke_mortar
v 0 -0.5 1
v 0 -0.5 0
v 0 0.5 1
v 0 0.5 0
v 0 -0.5 1
v 0 -0.5 0
v 0 0.5 1
v 0 0.5 0
v 0.5 0 1
v 0.5 0 0
v -0.5 0 1
v -0.5 0 0
v 0.5 0 1
v 0.5 0 0
v -0.5 0 1
v -0.5 0 0
v 0.3536 -0.3536 1
v 0.3536 -0.3536 0
v -0.3536 0.3536 1
v -0.3536 0.3536 0
v 0.3536 -0.3536 1
v 0.3536 -0.3536 0
v -0.3536 0.3536 1
v -0.3536 0.3536 0
v -0.3536 -0.3536 1
v -0.3536 -0.3536 0
v 0.3536 0.3536 1
v 0.3536 0.3536 0
v -0.3536 -0.3536 1
v -0.3536 -0.3536 0
v 0.3536 0.3536 1
v 0.3536 0.3536 0
v 0.5 -0.4687 0
v 0.5 0.5313 0
v -0.5 -0.4688 0
v -0.5 0.5312 0
v 0.5 0.0313 0
v -0.5 0.0312 0
v 0 0.0312 0.0625
v 0 -0.4687 0
v 0 0.5313 0
vt 0 1
vt 0.5 1
vt 0.5 0
vt 0 0
vt 0.5 0
vt 0.5 1
vt 0 1
vt 0 0
vt 0 1
vt 0.5 1
vt 0.5 0
vt 0 0
vt 0.5 0
vt 0.5 1
vt 0 1
vt 0 0
vt 0 1
vt 0.5 1
vt 0.5 0
vt 0 0
vt 0.5 0
vt 0.5 1
vt 0 1
vt 0 0
vt 0 1
vt 0.5 1
vt 0.5 0
vt 0 0
vt 0.5 0
vt 0.5 1
vt 0 1
vt 0 0
vt 0.5 0.5313
vt 0.75 0.5313
vt 0.75 1
vt 0.5 1
vt 0.5 0.0625
vt 0.75 0.0625
vt 0.75 0.5313
vt 0.5 0.5313
vt 1 0.5313
vt 0.75 0.5313
vt 0.75 0.0625
vt 1 0.0625
vt 1 1
vt 0.75 1
vt 0.75 0.5313
vt 1 0.5313
vn -1 0 0
vn 1 0 0
vn 0 -1 0
vn 0 1 0
vn -0.71 -0.71 0
vn 0.71 0.71 0
vn -0.71 0.71 0
vn 0.71 -0.71 0
vn -0.12 0.12 0.98
vn 0 -0.12 0.99
vn 0.12 -0.12 0.98
vn 0 0.12 0.99
usemtl mortar_smoke0
f 1/1/1 3/2/1 4/3/1
f 1/1/1 4/3/1 2/4/1
f 8/5/2 7/6/2 5/7/2
f 8/5/2 5/7/2 6/8/2
f 9/9/3 11/10/3 12/11/3
f 9/9/3 12/11/3 10/12/3
f 16/13/4 15/14/4 13/15/4
f 16/13/4 13/15/4 14/16/4
f 17/17/5 19/18/5 20/19/5
f 17/17/5 20/19/5 18/20/5
f 24/21/6 23/22/6 21/23/6
f 24/21/6 21/23/6 22/24/6
f 25/25/7 27/26/7 28/27/7
f 25/25/7 28/27/7 26/28/7
f 32/29/8 31/30/8 29/31/8
f 32/29/8 29/31/8 30/32/8
f 38/33/9 39/34/9 41/35/9
f 38/33/9 41/35/9 36/36/9
f 35/37/10 40/38/10 39/39/10
f 35/37/10 39/39/10 38/40/10
f 37/41/11 39/42/11 40/43/11
f 37/41/11 40/43/11 33/44/11
f 34/45/12 41/46/12 39/47/12
f 34/45/12 39/47/12 37/48/12