# Made by Pabilo8 with Blockbench
# Exported with IIToolkit Plugin
mtllib ammo_particles.mtl


o tracer_start
v 0.3125 -0.015625 0.3125
v 0.3125 -0.015625 -0.3125
v -0.3125 -0.015625 0.3125
v -0.3125 -0.015625 -0.3125
v 0 0 0.1875
v 0 0 -0.1875
v 0 -0.5 0.1875
v 0 -0.5 -0.1875
v 0.1875 0 4.163336342344337e-17
v -0.1875 0 -4.163336342344337e-17
v 0.1875 -0.5 4.163336342344337e-17
v -0.1875 -0.5 -4.163336342344337e-17
vt 0 0
vt 0 1
vt 1 1
vt 1 0
vt 1 0
vt 1 1
vt 0 1
vt 0 0
vt 1 0
vt 1 1
vt 0 1
vt 0 0
vt 1 0
vt 1 1
vt 0 1
vt 0 0
vt 1 0
vt 1 1
vt 0 1
vt 0 0
vn 0 -1 0
vn 1 0 0
vn -1 0 0
vn 2.220446049250313e-16 0 -1
vn -2.220446049250313e-16 0 1
usemtl tracer_circle
f 2/1/1 1/2/1 3/3/1
f 2/1/1 3/3/1 4/4/1
usemtl tracer_start
f 8/5/2 6/6/2 5/7/2
f 8/5/2 5/7/2 7/8/2
f 7/9/3 5/10/3 6/11/3
f 7/9/3 6/11/3 8/12/3
f 12/13/4 10/14/4 9/15/4
f 12/13/4 9/15/4 11/16/4
f 11/17/5 9/18/5 10/19/5
f 11/17/5 10/19/5 12/20/5