# Made by Pabilo8 with Blockbench
# Exported with IIToolkit Plugin
mtllib ammo_particles.mtl


o tracer_mid
v 0 -0.5 0.1875
v 0 -0.5 -0.1875
v 0 -1 0.1875
v 0 -1 -0.1875
v 0.1875 -0.5 4.163336342344337e-17
v -0.1875 -0.5 -4.163336342344337e-17
v 0.1875 -1 4.163336342344337e-17
v -0.1875 -1 -4.163336342344337e-17
vt 1 0
vt 1 1
vt 0 1
vt 0 0
vt 1 0
vt 1 1
vt 0 1
vt 0 0
vt 1 0
vt 1 1
vt 0 1
vt 0 0
vt 1 0
vt 1 1
vt 0 1
vt 0 0
vn 1 0 0
vn -1 0 0
vn 2.220446049250313e-16 0 -1
vn -2.220446049250313e-16 0 1
usemtl tracer_mid
f 4/1/1 2/2/1 1/3/1
f 4/1/1 1/3/1 3/4/1
f 3/5/2 1/6/2 2/7/2
f 3/5/2 2/7/2 4/8/2
f 8/9/3 6/10/3 5/11/3
f 8/9/3 5/11/3 7/12/3
f 7/13/4 5/14/4 6/15/4
f 7/13/4 6/15/4 8/16/4